<svg xmlns="http://www.w3.org/2000/svg" width="700" height="234" viewBox="0 0 700 234" role="img">
<rect width="700" height="234" rx="12" fill="#16181d"/>
<text x="36" y="22" fill="#e8eaed" font-family="system-ui,sans-serif" font-size="14" font-weight="700">Is Anthropic acting? cyber/aup false positives over time</text>
<line x1="36" y1="198.0" x2="664" y2="198.0" stroke="#2a2e37" stroke-width="1"/><text x="30" y="202.0" fill="#6b7280" font-size="11" text-anchor="end">0</text><line x1="36" y1="117.0" x2="664" y2="117.0" stroke="#2a2e37" stroke-width="1"/><text x="30" y="121.0" fill="#6b7280" font-size="11" text-anchor="end">400</text><line x1="36" y1="36.0" x2="664" y2="36.0" stroke="#2a2e37" stroke-width="1"/><text x="30" y="40.0" fill="#6b7280" font-size="11" text-anchor="end">800</text>

<polyline fill="none" stroke="#8a5a5a" stroke-width="2.5" stroke-linejoin="round" points="36.0,145.1 39.2,145.1 42.4,145.1 45.6,145.1 48.8,145.1 51.9,145.1 55.1,145.1 58.3,145.1 61.5,145.1 64.7,145.1 67.9,145.1 71.1,145.1 74.3,145.1 77.4,145.1 80.6,145.1 83.8,145.1 87.0,145.1 90.2,145.1 93.4,145.1 96.6,145.1 99.8,145.1 102.9,145.1 106.1,145.1 109.3,145.1 112.5,145.1 115.7,145.1 118.9,145.1 122.1,145.1 125.3,145.1 128.4,145.1 131.6,145.1 134.8,145.1 138.0,145.1 141.2,145.1 144.4,145.1 147.6,145.1 150.8,145.1 153.9,145.1 157.1,145.1 160.3,145.1 163.5,145.1 166.7,145.1 169.9,145.1 173.1,145.1 176.3,145.1 179.5,145.1 182.6,145.1 185.8,145.1 189.0,145.1 192.2,145.1 195.4,155.7 198.6,155.7 201.8,155.7 205.0,155.7 208.1,155.7 211.3,155.7 214.5,155.7 217.7,155.7 220.9,155.7 224.1,155.7 227.3,155.7 230.5,155.7 233.6,155.7 236.8,155.7 240.0,155.7 243.2,155.7 246.4,155.7 249.6,155.7 252.8,155.7 256.0,155.7 259.1,155.7 262.3,155.7 265.5,155.7 268.7,155.7 271.9,155.7 275.1,155.7 278.3,155.7 281.5,155.7 284.6,155.7 287.8,155.7 291.0,155.7 294.2,155.7 297.4,155.7 300.6,155.7 303.8,167.6 307.0,167.6 310.2,170.3 313.3,170.3 316.5,170.5 319.7,170.7 322.9,170.7 326.1,170.9 329.3,172.7 332.5,180.6 335.7,181.8 338.8,189.1 342.0,190.5 345.2,195.2 348.4,198.0 351.6,198.0 354.8,198.0 358.0,198.0 361.2,198.0 364.3,198.0 367.5,198.0 370.7,198.0 373.9,198.0 377.1,198.0 380.3,198.0 383.5,198.0 386.7,198.0 389.8,198.0 393.0,198.0 396.2,198.0 399.4,198.0 402.6,198.0 405.8,198.0 409.0,198.0 412.2,198.0 415.4,198.0 418.5,198.0 421.7,198.0 424.9,198.0 428.1,198.0 431.3,198.0 434.5,198.0 437.7,198.0 440.9,198.0 444.0,198.0 447.2,198.0 450.4,198.0 453.6,198.0 456.8,198.0 460.0,198.0 463.2,198.0 466.4,198.0 469.5,198.0 472.7,198.0 475.9,198.0 479.1,198.0 482.3,198.0 485.5,198.0 488.7,198.0 491.9,198.0 495.0,198.0 498.2,198.0 501.4,198.0 504.6,198.0 507.8,198.0 511.0,198.0 514.2,198.0 517.4,198.0 520.5,198.0 523.7,198.0 526.9,198.0 530.1,198.0 533.3,198.0 536.5,198.0 539.7,198.0 542.9,198.0 546.1,198.0 549.2,198.0 552.4,198.0 555.6,198.0 558.8,198.0 562.0,198.0 565.2,198.0 568.4,198.0 571.6,198.0 574.7,198.0 577.9,198.0 581.1,198.0 584.3,198.0 587.5,198.0 590.7,198.0 593.9,198.0 597.1,198.0 600.2,198.0 603.4,198.0 606.6,198.0 609.8,198.0 613.0,198.0 616.2,198.0 619.4,198.0 622.6,198.0 625.7,198.0 628.9,198.0 632.1,198.0 635.3,198.0 638.5,198.0 641.7,198.0 644.9,198.0 648.1,198.0 651.2,198.0 654.4,198.0 657.6,198.0 660.8,198.0 664.0,198.0"/><circle cx="36.0" cy="145.1" r="3" fill="#8a5a5a"/><circle cx="39.2" cy="145.1" r="3" fill="#8a5a5a"/><circle cx="42.4" cy="145.1" r="3" fill="#8a5a5a"/><circle cx="45.6" cy="145.1" r="3" fill="#8a5a5a"/><circle cx="48.8" cy="145.1" r="3" fill="#8a5a5a"/><circle cx="51.9" cy="145.1" r="3" fill="#8a5a5a"/><circle cx="55.1" cy="145.1" r="3" fill="#8a5a5a"/><circle cx="58.3" cy="145.1" r="3" fill="#8a5a5a"/><circle cx="61.5" cy="145.1" r="3" fill="#8a5a5a"/><circle cx="64.7" cy="145.1" r="3" fill="#8a5a5a"/><circle cx="67.9" cy="145.1" r="3" fill="#8a5a5a"/><circle cx="71.1" cy="145.1" r="3" fill="#8a5a5a"/><circle cx="74.3" cy="145.1" r="3" fill="#8a5a5a"/><circle cx="77.4" cy="145.1" r="3" fill="#8a5a5a"/><circle cx="80.6" cy="145.1" r="3" fill="#8a5a5a"/><circle cx="83.8" cy="145.1" r="3" fill="#8a5a5a"/><circle cx="87.0" cy="145.1" r="3" fill="#8a5a5a"/><circle cx="90.2" cy="145.1" r="3" fill="#8a5a5a"/><circle cx="93.4" cy="145.1" r="3" fill="#8a5a5a"/><circle cx="96.6" cy="145.1" r="3" fill="#8a5a5a"/><circle cx="99.8" cy="145.1" r="3" fill="#8a5a5a"/><circle cx="102.9" cy="145.1" r="3" fill="#8a5a5a"/><circle cx="106.1" cy="145.1" r="3" fill="#8a5a5a"/><circle cx="109.3" cy="145.1" r="3" fill="#8a5a5a"/><circle cx="112.5" cy="145.1" r="3" fill="#8a5a5a"/><circle cx="115.7" cy="145.1" r="3" fill="#8a5a5a"/><circle cx="118.9" cy="145.1" r="3" fill="#8a5a5a"/><circle cx="122.1" cy="145.1" r="3" fill="#8a5a5a"/><circle cx="125.3" cy="145.1" r="3" fill="#8a5a5a"/><circle cx="128.4" cy="145.1" r="3" fill="#8a5a5a"/><circle cx="131.6" cy="145.1" r="3" fill="#8a5a5a"/><circle cx="134.8" cy="145.1" r="3" fill="#8a5a5a"/><circle cx="138.0" cy="145.1" r="3" fill="#8a5a5a"/><circle cx="141.2" cy="145.1" r="3" fill="#8a5a5a"/><circle cx="144.4" cy="145.1" r="3" fill="#8a5a5a"/><circle cx="147.6" cy="145.1" r="3" fill="#8a5a5a"/><circle cx="150.8" cy="145.1" r="3" fill="#8a5a5a"/><circle cx="153.9" cy="145.1" r="3" fill="#8a5a5a"/><circle cx="157.1" cy="145.1" r="3" fill="#8a5a5a"/><circle cx="160.3" cy="145.1" r="3" fill="#8a5a5a"/><circle cx="163.5" cy="145.1" r="3" fill="#8a5a5a"/><circle cx="166.7" cy="145.1" r="3" fill="#8a5a5a"/><circle cx="169.9" cy="145.1" r="3" fill="#8a5a5a"/><circle cx="173.1" cy="145.1" r="3" fill="#8a5a5a"/><circle cx="176.3" cy="145.1" r="3" fill="#8a5a5a"/><circle cx="179.5" cy="145.1" r="3" fill="#8a5a5a"/><circle cx="182.6" cy="145.1" r="3" fill="#8a5a5a"/><circle cx="185.8" cy="145.1" r="3" fill="#8a5a5a"/><circle cx="189.0" cy="145.1" r="3" fill="#8a5a5a"/><circle cx="192.2" cy="145.1" r="3" fill="#8a5a5a"/><circle cx="195.4" cy="155.7" r="3" fill="#8a5a5a"/><circle cx="198.6" cy="155.7" r="3" fill="#8a5a5a"/><circle cx="201.8" cy="155.7" r="3" fill="#8a5a5a"/><circle cx="205.0" cy="155.7" r="3" fill="#8a5a5a"/><circle cx="208.1" cy="155.7" r="3" fill="#8a5a5a"/><circle cx="211.3" cy="155.7" r="3" fill="#8a5a5a"/><circle cx="214.5" cy="155.7" r="3" fill="#8a5a5a"/><circle cx="217.7" cy="155.7" r="3" fill="#8a5a5a"/><circle cx="220.9" cy="155.7" r="3" fill="#8a5a5a"/><circle cx="224.1" cy="155.7" r="3" fill="#8a5a5a"/><circle cx="227.3" cy="155.7" r="3" fill="#8a5a5a"/><circle cx="230.5" cy="155.7" r="3" fill="#8a5a5a"/><circle cx="233.6" cy="155.7" r="3" fill="#8a5a5a"/><circle cx="236.8" cy="155.7" r="3" fill="#8a5a5a"/><circle cx="240.0" cy="155.7" r="3" fill="#8a5a5a"/><circle cx="243.2" cy="155.7" r="3" fill="#8a5a5a"/><circle cx="246.4" cy="155.7" r="3" fill="#8a5a5a"/><circle cx="249.6" cy="155.7" r="3" fill="#8a5a5a"/><circle cx="252.8" cy="155.7" r="3" fill="#8a5a5a"/><circle cx="256.0" cy="155.7" r="3" fill="#8a5a5a"/><circle cx="259.1" cy="155.7" r="3" fill="#8a5a5a"/><circle cx="262.3" cy="155.7" r="3" fill="#8a5a5a"/><circle cx="265.5" cy="155.7" r="3" fill="#8a5a5a"/><circle cx="268.7" cy="155.7" r="3" fill="#8a5a5a"/><circle cx="271.9" cy="155.7" r="3" fill="#8a5a5a"/><circle cx="275.1" cy="155.7" r="3" fill="#8a5a5a"/><circle cx="278.3" cy="155.7" r="3" fill="#8a5a5a"/><circle cx="281.5" cy="155.7" r="3" fill="#8a5a5a"/><circle cx="284.6" cy="155.7" r="3" fill="#8a5a5a"/><circle cx="287.8" cy="155.7" r="3" fill="#8a5a5a"/><circle cx="291.0" cy="155.7" r="3" fill="#8a5a5a"/><circle cx="294.2" cy="155.7" r="3" fill="#8a5a5a"/><circle cx="297.4" cy="155.7" r="3" fill="#8a5a5a"/><circle cx="300.6" cy="155.7" r="3" fill="#8a5a5a"/><circle cx="303.8" cy="167.6" r="3" fill="#8a5a5a"/><circle cx="307.0" cy="167.6" r="3" fill="#8a5a5a"/><circle cx="310.2" cy="170.3" r="3" fill="#8a5a5a"/><circle cx="313.3" cy="170.3" r="3" fill="#8a5a5a"/><circle cx="316.5" cy="170.5" r="3" fill="#8a5a5a"/><circle cx="319.7" cy="170.7" r="3" fill="#8a5a5a"/><circle cx="322.9" cy="170.7" r="3" fill="#8a5a5a"/><circle cx="326.1" cy="170.9" r="3" fill="#8a5a5a"/><circle cx="329.3" cy="172.7" r="3" fill="#8a5a5a"/><circle cx="332.5" cy="180.6" r="3" fill="#8a5a5a"/><circle cx="335.7" cy="181.8" r="3" fill="#8a5a5a"/><circle cx="338.8" cy="189.1" r="3" fill="#8a5a5a"/><circle cx="342.0" cy="190.5" r="3" fill="#8a5a5a"/><circle cx="345.2" cy="195.2" r="3" fill="#8a5a5a"/><circle cx="348.4" cy="198.0" r="3" fill="#8a5a5a"/><circle cx="351.6" cy="198.0" r="3" fill="#8a5a5a"/><circle cx="354.8" cy="198.0" r="3" fill="#8a5a5a"/><circle cx="358.0" cy="198.0" r="3" fill="#8a5a5a"/><circle cx="361.2" cy="198.0" r="3" fill="#8a5a5a"/><circle cx="364.3" cy="198.0" r="3" fill="#8a5a5a"/><circle cx="367.5" cy="198.0" r="3" fill="#8a5a5a"/><circle cx="370.7" cy="198.0" r="3" fill="#8a5a5a"/><circle cx="373.9" cy="198.0" r="3" fill="#8a5a5a"/><circle cx="377.1" cy="198.0" r="3" fill="#8a5a5a"/><circle cx="380.3" cy="198.0" r="3" fill="#8a5a5a"/><circle cx="383.5" cy="198.0" r="3" fill="#8a5a5a"/><circle cx="386.7" cy="198.0" r="3" fill="#8a5a5a"/><circle cx="389.8" cy="198.0" r="3" fill="#8a5a5a"/><circle cx="393.0" cy="198.0" r="3" fill="#8a5a5a"/><circle cx="396.2" cy="198.0" r="3" fill="#8a5a5a"/><circle cx="399.4" cy="198.0" r="3" fill="#8a5a5a"/><circle cx="402.6" cy="198.0" r="3" fill="#8a5a5a"/><circle cx="405.8" cy="198.0" r="3" fill="#8a5a5a"/><circle cx="409.0" cy="198.0" r="3" fill="#8a5a5a"/><circle cx="412.2" cy="198.0" r="3" fill="#8a5a5a"/><circle cx="415.4" cy="198.0" r="3" fill="#8a5a5a"/><circle cx="418.5" cy="198.0" r="3" fill="#8a5a5a"/><circle cx="421.7" cy="198.0" r="3" fill="#8a5a5a"/><circle cx="424.9" cy="198.0" r="3" fill="#8a5a5a"/><circle cx="428.1" cy="198.0" r="3" fill="#8a5a5a"/><circle cx="431.3" cy="198.0" r="3" fill="#8a5a5a"/><circle cx="434.5" cy="198.0" r="3" fill="#8a5a5a"/><circle cx="437.7" cy="198.0" r="3" fill="#8a5a5a"/><circle cx="440.9" cy="198.0" r="3" fill="#8a5a5a"/><circle cx="444.0" cy="198.0" r="3" fill="#8a5a5a"/><circle cx="447.2" cy="198.0" r="3" fill="#8a5a5a"/><circle cx="450.4" cy="198.0" r="3" fill="#8a5a5a"/><circle cx="453.6" cy="198.0" r="3" fill="#8a5a5a"/><circle cx="456.8" cy="198.0" r="3" fill="#8a5a5a"/><circle cx="460.0" cy="198.0" r="3" fill="#8a5a5a"/><circle cx="463.2" cy="198.0" r="3" fill="#8a5a5a"/><circle cx="466.4" cy="198.0" r="3" fill="#8a5a5a"/><circle cx="469.5" cy="198.0" r="3" fill="#8a5a5a"/><circle cx="472.7" cy="198.0" r="3" fill="#8a5a5a"/><circle cx="475.9" cy="198.0" r="3" fill="#8a5a5a"/><circle cx="479.1" cy="198.0" r="3" fill="#8a5a5a"/><circle cx="482.3" cy="198.0" r="3" fill="#8a5a5a"/><circle cx="485.5" cy="198.0" r="3" fill="#8a5a5a"/><circle cx="488.7" cy="198.0" r="3" fill="#8a5a5a"/><circle cx="491.9" cy="198.0" r="3" fill="#8a5a5a"/><circle cx="495.0" cy="198.0" r="3" fill="#8a5a5a"/><circle cx="498.2" cy="198.0" r="3" fill="#8a5a5a"/><circle cx="501.4" cy="198.0" r="3" fill="#8a5a5a"/><circle cx="504.6" cy="198.0" r="3" fill="#8a5a5a"/><circle cx="507.8" cy="198.0" r="3" fill="#8a5a5a"/><circle cx="511.0" cy="198.0" r="3" fill="#8a5a5a"/><circle cx="514.2" cy="198.0" r="3" fill="#8a5a5a"/><circle cx="517.4" cy="198.0" r="3" fill="#8a5a5a"/><circle cx="520.5" cy="198.0" r="3" fill="#8a5a5a"/><circle cx="523.7" cy="198.0" r="3" fill="#8a5a5a"/><circle cx="526.9" cy="198.0" r="3" fill="#8a5a5a"/><circle cx="530.1" cy="198.0" r="3" fill="#8a5a5a"/><circle cx="533.3" cy="198.0" r="3" fill="#8a5a5a"/><circle cx="536.5" cy="198.0" r="3" fill="#8a5a5a"/><circle cx="539.7" cy="198.0" r="3" fill="#8a5a5a"/><circle cx="542.9" cy="198.0" r="3" fill="#8a5a5a"/><circle cx="546.1" cy="198.0" r="3" fill="#8a5a5a"/><circle cx="549.2" cy="198.0" r="3" fill="#8a5a5a"/><circle cx="552.4" cy="198.0" r="3" fill="#8a5a5a"/><circle cx="555.6" cy="198.0" r="3" fill="#8a5a5a"/><circle cx="558.8" cy="198.0" r="3" fill="#8a5a5a"/><circle cx="562.0" cy="198.0" r="3" fill="#8a5a5a"/><circle cx="565.2" cy="198.0" r="3" fill="#8a5a5a"/><circle cx="568.4" cy="198.0" r="3" fill="#8a5a5a"/><circle cx="571.6" cy="198.0" r="3" fill="#8a5a5a"/><circle cx="574.7" cy="198.0" r="3" fill="#8a5a5a"/><circle cx="577.9" cy="198.0" r="3" fill="#8a5a5a"/><circle cx="581.1" cy="198.0" r="3" fill="#8a5a5a"/><circle cx="584.3" cy="198.0" r="3" fill="#8a5a5a"/><circle cx="587.5" cy="198.0" r="3" fill="#8a5a5a"/><circle cx="590.7" cy="198.0" r="3" fill="#8a5a5a"/><circle cx="593.9" cy="198.0" r="3" fill="#8a5a5a"/><circle cx="597.1" cy="198.0" r="3" fill="#8a5a5a"/><circle cx="600.2" cy="198.0" r="3" fill="#8a5a5a"/><circle cx="603.4" cy="198.0" r="3" fill="#8a5a5a"/><circle cx="606.6" cy="198.0" r="3" fill="#8a5a5a"/><circle cx="609.8" cy="198.0" r="3" fill="#8a5a5a"/><circle cx="613.0" cy="198.0" r="3" fill="#8a5a5a"/><circle cx="616.2" cy="198.0" r="3" fill="#8a5a5a"/><circle cx="619.4" cy="198.0" r="3" fill="#8a5a5a"/><circle cx="622.6" cy="198.0" r="3" fill="#8a5a5a"/><circle cx="625.7" cy="198.0" r="3" fill="#8a5a5a"/><circle cx="628.9" cy="198.0" r="3" fill="#8a5a5a"/><circle cx="632.1" cy="198.0" r="3" fill="#8a5a5a"/><circle cx="635.3" cy="198.0" r="3" fill="#8a5a5a"/><circle cx="638.5" cy="198.0" r="3" fill="#8a5a5a"/><circle cx="641.7" cy="198.0" r="3" fill="#8a5a5a"/><circle cx="644.9" cy="198.0" r="3" fill="#8a5a5a"/><circle cx="648.1" cy="198.0" r="3" fill="#8a5a5a"/><circle cx="651.2" cy="198.0" r="3" fill="#8a5a5a"/><circle cx="654.4" cy="198.0" r="3" fill="#8a5a5a"/><circle cx="657.6" cy="198.0" r="3" fill="#8a5a5a"/><circle cx="660.8" cy="198.0" r="3" fill="#8a5a5a"/><circle cx="664.0" cy="198.0" r="3" fill="#8a5a5a"/>
<polyline fill="none" stroke="#3fb950" stroke-width="2.5" stroke-linejoin="round" points="36.0,198.0 39.2,198.0 42.4,198.0 45.6,198.0 48.8,198.0 51.9,198.0 55.1,198.0 58.3,198.0 61.5,198.0 64.7,198.0 67.9,198.0 71.1,198.0 74.3,198.0 77.4,198.0 80.6,198.0 83.8,198.0 87.0,198.0 90.2,198.0 93.4,198.0 96.6,198.0 99.8,198.0 102.9,198.0 106.1,198.0 109.3,198.0 112.5,198.0 115.7,198.0 118.9,198.0 122.1,198.0 125.3,198.0 128.4,198.0 131.6,198.0 134.8,198.0 138.0,198.0 141.2,198.0 144.4,198.0 147.6,198.0 150.8,198.0 153.9,198.0 157.1,198.0 160.3,198.0 163.5,198.0 166.7,198.0 169.9,198.0 173.1,191.7 176.3,191.7 179.5,191.7 182.6,191.7 185.8,191.7 189.0,191.7 192.2,191.7 195.4,192.9 198.6,192.9 201.8,190.7 205.0,190.7 208.1,190.7 211.3,190.7 214.5,190.7 217.7,190.5 220.9,190.5 224.1,190.5 227.3,190.3 230.5,190.3 233.6,190.3 236.8,190.3 240.0,190.3 243.2,190.3 246.4,190.3 249.6,190.3 252.8,190.3 256.0,190.3 259.1,190.3 262.3,190.3 265.5,190.3 268.7,190.3 271.9,190.3 275.1,190.3 278.3,190.3 281.5,190.3 284.6,190.3 287.8,190.3 291.0,190.3 294.2,189.3 297.4,189.3 300.6,189.3 303.8,190.7 307.0,190.7 310.2,190.7 313.3,190.7 316.5,190.7 319.7,190.7 322.9,190.7 326.1,190.7 329.3,190.7 332.5,190.9 335.7,190.9 338.8,190.9 342.0,194.2 345.2,196.8 348.4,198.0 351.6,198.0 354.8,198.0 358.0,198.0 361.2,198.0 364.3,198.0 367.5,198.0 370.7,198.0 373.9,198.0 377.1,198.0 380.3,198.0 383.5,198.0 386.7,198.0 389.8,198.0 393.0,198.0 396.2,198.0 399.4,198.0 402.6,198.0 405.8,198.0 409.0,198.0 412.2,198.0 415.4,198.0 418.5,198.0 421.7,198.0 424.9,198.0 428.1,198.0 431.3,198.0 434.5,198.0 437.7,198.0 440.9,198.0 444.0,198.0 447.2,198.0 450.4,198.0 453.6,198.0 456.8,198.0 460.0,198.0 463.2,198.0 466.4,198.0 469.5,198.0 472.7,198.0 475.9,198.0 479.1,198.0 482.3,198.0 485.5,198.0 488.7,198.0 491.9,198.0 495.0,198.0 498.2,198.0 501.4,198.0 504.6,198.0 507.8,198.0 511.0,198.0 514.2,198.0 517.4,198.0 520.5,198.0 523.7,198.0 526.9,198.0 530.1,198.0 533.3,198.0 536.5,198.0 539.7,198.0 542.9,198.0 546.1,198.0 549.2,198.0 552.4,198.0 555.6,198.0 558.8,198.0 562.0,198.0 565.2,198.0 568.4,198.0 571.6,198.0 574.7,198.0 577.9,198.0 581.1,198.0 584.3,198.0 587.5,198.0 590.7,198.0 593.9,198.0 597.1,198.0 600.2,198.0 603.4,198.0 606.6,198.0 609.8,198.0 613.0,198.0 616.2,198.0 619.4,198.0 622.6,198.0 625.7,198.0 628.9,198.0 632.1,198.0 635.3,198.0 638.5,198.0 641.7,198.0 644.9,198.0 648.1,198.0 651.2,198.0 654.4,198.0 657.6,198.0 660.8,198.0 664.0,198.0"/><circle cx="36.0" cy="198.0" r="3" fill="#3fb950"/><circle cx="39.2" cy="198.0" r="3" fill="#3fb950"/><circle cx="42.4" cy="198.0" r="3" fill="#3fb950"/><circle cx="45.6" cy="198.0" r="3" fill="#3fb950"/><circle cx="48.8" cy="198.0" r="3" fill="#3fb950"/><circle cx="51.9" cy="198.0" r="3" fill="#3fb950"/><circle cx="55.1" cy="198.0" r="3" fill="#3fb950"/><circle cx="58.3" cy="198.0" r="3" fill="#3fb950"/><circle cx="61.5" cy="198.0" r="3" fill="#3fb950"/><circle cx="64.7" cy="198.0" r="3" fill="#3fb950"/><circle cx="67.9" cy="198.0" r="3" fill="#3fb950"/><circle cx="71.1" cy="198.0" r="3" fill="#3fb950"/><circle cx="74.3" cy="198.0" r="3" fill="#3fb950"/><circle cx="77.4" cy="198.0" r="3" fill="#3fb950"/><circle cx="80.6" cy="198.0" r="3" fill="#3fb950"/><circle cx="83.8" cy="198.0" r="3" fill="#3fb950"/><circle cx="87.0" cy="198.0" r="3" fill="#3fb950"/><circle cx="90.2" cy="198.0" r="3" fill="#3fb950"/><circle cx="93.4" cy="198.0" r="3" fill="#3fb950"/><circle cx="96.6" cy="198.0" r="3" fill="#3fb950"/><circle cx="99.8" cy="198.0" r="3" fill="#3fb950"/><circle cx="102.9" cy="198.0" r="3" fill="#3fb950"/><circle cx="106.1" cy="198.0" r="3" fill="#3fb950"/><circle cx="109.3" cy="198.0" r="3" fill="#3fb950"/><circle cx="112.5" cy="198.0" r="3" fill="#3fb950"/><circle cx="115.7" cy="198.0" r="3" fill="#3fb950"/><circle cx="118.9" cy="198.0" r="3" fill="#3fb950"/><circle cx="122.1" cy="198.0" r="3" fill="#3fb950"/><circle cx="125.3" cy="198.0" r="3" fill="#3fb950"/><circle cx="128.4" cy="198.0" r="3" fill="#3fb950"/><circle cx="131.6" cy="198.0" r="3" fill="#3fb950"/><circle cx="134.8" cy="198.0" r="3" fill="#3fb950"/><circle cx="138.0" cy="198.0" r="3" fill="#3fb950"/><circle cx="141.2" cy="198.0" r="3" fill="#3fb950"/><circle cx="144.4" cy="198.0" r="3" fill="#3fb950"/><circle cx="147.6" cy="198.0" r="3" fill="#3fb950"/><circle cx="150.8" cy="198.0" r="3" fill="#3fb950"/><circle cx="153.9" cy="198.0" r="3" fill="#3fb950"/><circle cx="157.1" cy="198.0" r="3" fill="#3fb950"/><circle cx="160.3" cy="198.0" r="3" fill="#3fb950"/><circle cx="163.5" cy="198.0" r="3" fill="#3fb950"/><circle cx="166.7" cy="198.0" r="3" fill="#3fb950"/><circle cx="169.9" cy="198.0" r="3" fill="#3fb950"/><circle cx="173.1" cy="191.7" r="3" fill="#3fb950"/><circle cx="176.3" cy="191.7" r="3" fill="#3fb950"/><circle cx="179.5" cy="191.7" r="3" fill="#3fb950"/><circle cx="182.6" cy="191.7" r="3" fill="#3fb950"/><circle cx="185.8" cy="191.7" r="3" fill="#3fb950"/><circle cx="189.0" cy="191.7" r="3" fill="#3fb950"/><circle cx="192.2" cy="191.7" r="3" fill="#3fb950"/><circle cx="195.4" cy="192.9" r="3" fill="#3fb950"/><circle cx="198.6" cy="192.9" r="3" fill="#3fb950"/><circle cx="201.8" cy="190.7" r="3" fill="#3fb950"/><circle cx="205.0" cy="190.7" r="3" fill="#3fb950"/><circle cx="208.1" cy="190.7" r="3" fill="#3fb950"/><circle cx="211.3" cy="190.7" r="3" fill="#3fb950"/><circle cx="214.5" cy="190.7" r="3" fill="#3fb950"/><circle cx="217.7" cy="190.5" r="3" fill="#3fb950"/><circle cx="220.9" cy="190.5" r="3" fill="#3fb950"/><circle cx="224.1" cy="190.5" r="3" fill="#3fb950"/><circle cx="227.3" cy="190.3" r="3" fill="#3fb950"/><circle cx="230.5" cy="190.3" r="3" fill="#3fb950"/><circle cx="233.6" cy="190.3" r="3" fill="#3fb950"/><circle cx="236.8" cy="190.3" r="3" fill="#3fb950"/><circle cx="240.0" cy="190.3" r="3" fill="#3fb950"/><circle cx="243.2" cy="190.3" r="3" fill="#3fb950"/><circle cx="246.4" cy="190.3" r="3" fill="#3fb950"/><circle cx="249.6" cy="190.3" r="3" fill="#3fb950"/><circle cx="252.8" cy="190.3" r="3" fill="#3fb950"/><circle cx="256.0" cy="190.3" r="3" fill="#3fb950"/><circle cx="259.1" cy="190.3" r="3" fill="#3fb950"/><circle cx="262.3" cy="190.3" r="3" fill="#3fb950"/><circle cx="265.5" cy="190.3" r="3" fill="#3fb950"/><circle cx="268.7" cy="190.3" r="3" fill="#3fb950"/><circle cx="271.9" cy="190.3" r="3" fill="#3fb950"/><circle cx="275.1" cy="190.3" r="3" fill="#3fb950"/><circle cx="278.3" cy="190.3" r="3" fill="#3fb950"/><circle cx="281.5" cy="190.3" r="3" fill="#3fb950"/><circle cx="284.6" cy="190.3" r="3" fill="#3fb950"/><circle cx="287.8" cy="190.3" r="3" fill="#3fb950"/><circle cx="291.0" cy="190.3" r="3" fill="#3fb950"/><circle cx="294.2" cy="189.3" r="3" fill="#3fb950"/><circle cx="297.4" cy="189.3" r="3" fill="#3fb950"/><circle cx="300.6" cy="189.3" r="3" fill="#3fb950"/><circle cx="303.8" cy="190.7" r="3" fill="#3fb950"/><circle cx="307.0" cy="190.7" r="3" fill="#3fb950"/><circle cx="310.2" cy="190.7" r="3" fill="#3fb950"/><circle cx="313.3" cy="190.7" r="3" fill="#3fb950"/><circle cx="316.5" cy="190.7" r="3" fill="#3fb950"/><circle cx="319.7" cy="190.7" r="3" fill="#3fb950"/><circle cx="322.9" cy="190.7" r="3" fill="#3fb950"/><circle cx="326.1" cy="190.7" r="3" fill="#3fb950"/><circle cx="329.3" cy="190.7" r="3" fill="#3fb950"/><circle cx="332.5" cy="190.9" r="3" fill="#3fb950"/><circle cx="335.7" cy="190.9" r="3" fill="#3fb950"/><circle cx="338.8" cy="190.9" r="3" fill="#3fb950"/><circle cx="342.0" cy="194.2" r="3" fill="#3fb950"/><circle cx="345.2" cy="196.8" r="3" fill="#3fb950"/><circle cx="348.4" cy="198.0" r="3" fill="#3fb950"/><circle cx="351.6" cy="198.0" r="3" fill="#3fb950"/><circle cx="354.8" cy="198.0" r="3" fill="#3fb950"/><circle cx="358.0" cy="198.0" r="3" fill="#3fb950"/><circle cx="361.2" cy="198.0" r="3" fill="#3fb950"/><circle cx="364.3" cy="198.0" r="3" fill="#3fb950"/><circle cx="367.5" cy="198.0" r="3" fill="#3fb950"/><circle cx="370.7" cy="198.0" r="3" fill="#3fb950"/><circle cx="373.9" cy="198.0" r="3" fill="#3fb950"/><circle cx="377.1" cy="198.0" r="3" fill="#3fb950"/><circle cx="380.3" cy="198.0" r="3" fill="#3fb950"/><circle cx="383.5" cy="198.0" r="3" fill="#3fb950"/><circle cx="386.7" cy="198.0" r="3" fill="#3fb950"/><circle cx="389.8" cy="198.0" r="3" fill="#3fb950"/><circle cx="393.0" cy="198.0" r="3" fill="#3fb950"/><circle cx="396.2" cy="198.0" r="3" fill="#3fb950"/><circle cx="399.4" cy="198.0" r="3" fill="#3fb950"/><circle cx="402.6" cy="198.0" r="3" fill="#3fb950"/><circle cx="405.8" cy="198.0" r="3" fill="#3fb950"/><circle cx="409.0" cy="198.0" r="3" fill="#3fb950"/><circle cx="412.2" cy="198.0" r="3" fill="#3fb950"/><circle cx="415.4" cy="198.0" r="3" fill="#3fb950"/><circle cx="418.5" cy="198.0" r="3" fill="#3fb950"/><circle cx="421.7" cy="198.0" r="3" fill="#3fb950"/><circle cx="424.9" cy="198.0" r="3" fill="#3fb950"/><circle cx="428.1" cy="198.0" r="3" fill="#3fb950"/><circle cx="431.3" cy="198.0" r="3" fill="#3fb950"/><circle cx="434.5" cy="198.0" r="3" fill="#3fb950"/><circle cx="437.7" cy="198.0" r="3" fill="#3fb950"/><circle cx="440.9" cy="198.0" r="3" fill="#3fb950"/><circle cx="444.0" cy="198.0" r="3" fill="#3fb950"/><circle cx="447.2" cy="198.0" r="3" fill="#3fb950"/><circle cx="450.4" cy="198.0" r="3" fill="#3fb950"/><circle cx="453.6" cy="198.0" r="3" fill="#3fb950"/><circle cx="456.8" cy="198.0" r="3" fill="#3fb950"/><circle cx="460.0" cy="198.0" r="3" fill="#3fb950"/><circle cx="463.2" cy="198.0" r="3" fill="#3fb950"/><circle cx="466.4" cy="198.0" r="3" fill="#3fb950"/><circle cx="469.5" cy="198.0" r="3" fill="#3fb950"/><circle cx="472.7" cy="198.0" r="3" fill="#3fb950"/><circle cx="475.9" cy="198.0" r="3" fill="#3fb950"/><circle cx="479.1" cy="198.0" r="3" fill="#3fb950"/><circle cx="482.3" cy="198.0" r="3" fill="#3fb950"/><circle cx="485.5" cy="198.0" r="3" fill="#3fb950"/><circle cx="488.7" cy="198.0" r="3" fill="#3fb950"/><circle cx="491.9" cy="198.0" r="3" fill="#3fb950"/><circle cx="495.0" cy="198.0" r="3" fill="#3fb950"/><circle cx="498.2" cy="198.0" r="3" fill="#3fb950"/><circle cx="501.4" cy="198.0" r="3" fill="#3fb950"/><circle cx="504.6" cy="198.0" r="3" fill="#3fb950"/><circle cx="507.8" cy="198.0" r="3" fill="#3fb950"/><circle cx="511.0" cy="198.0" r="3" fill="#3fb950"/><circle cx="514.2" cy="198.0" r="3" fill="#3fb950"/><circle cx="517.4" cy="198.0" r="3" fill="#3fb950"/><circle cx="520.5" cy="198.0" r="3" fill="#3fb950"/><circle cx="523.7" cy="198.0" r="3" fill="#3fb950"/><circle cx="526.9" cy="198.0" r="3" fill="#3fb950"/><circle cx="530.1" cy="198.0" r="3" fill="#3fb950"/><circle cx="533.3" cy="198.0" r="3" fill="#3fb950"/><circle cx="536.5" cy="198.0" r="3" fill="#3fb950"/><circle cx="539.7" cy="198.0" r="3" fill="#3fb950"/><circle cx="542.9" cy="198.0" r="3" fill="#3fb950"/><circle cx="546.1" cy="198.0" r="3" fill="#3fb950"/><circle cx="549.2" cy="198.0" r="3" fill="#3fb950"/><circle cx="552.4" cy="198.0" r="3" fill="#3fb950"/><circle cx="555.6" cy="198.0" r="3" fill="#3fb950"/><circle cx="558.8" cy="198.0" r="3" fill="#3fb950"/><circle cx="562.0" cy="198.0" r="3" fill="#3fb950"/><circle cx="565.2" cy="198.0" r="3" fill="#3fb950"/><circle cx="568.4" cy="198.0" r="3" fill="#3fb950"/><circle cx="571.6" cy="198.0" r="3" fill="#3fb950"/><circle cx="574.7" cy="198.0" r="3" fill="#3fb950"/><circle cx="577.9" cy="198.0" r="3" fill="#3fb950"/><circle cx="581.1" cy="198.0" r="3" fill="#3fb950"/><circle cx="584.3" cy="198.0" r="3" fill="#3fb950"/><circle cx="587.5" cy="198.0" r="3" fill="#3fb950"/><circle cx="590.7" cy="198.0" r="3" fill="#3fb950"/><circle cx="593.9" cy="198.0" r="3" fill="#3fb950"/><circle cx="597.1" cy="198.0" r="3" fill="#3fb950"/><circle cx="600.2" cy="198.0" r="3" fill="#3fb950"/><circle cx="603.4" cy="198.0" r="3" fill="#3fb950"/><circle cx="606.6" cy="198.0" r="3" fill="#3fb950"/><circle cx="609.8" cy="198.0" r="3" fill="#3fb950"/><circle cx="613.0" cy="198.0" r="3" fill="#3fb950"/><circle cx="616.2" cy="198.0" r="3" fill="#3fb950"/><circle cx="619.4" cy="198.0" r="3" fill="#3fb950"/><circle cx="622.6" cy="198.0" r="3" fill="#3fb950"/><circle cx="625.7" cy="198.0" r="3" fill="#3fb950"/><circle cx="628.9" cy="198.0" r="3" fill="#3fb950"/><circle cx="632.1" cy="198.0" r="3" fill="#3fb950"/><circle cx="635.3" cy="198.0" r="3" fill="#3fb950"/><circle cx="638.5" cy="198.0" r="3" fill="#3fb950"/><circle cx="641.7" cy="198.0" r="3" fill="#3fb950"/><circle cx="644.9" cy="198.0" r="3" fill="#3fb950"/><circle cx="648.1" cy="198.0" r="3" fill="#3fb950"/><circle cx="651.2" cy="198.0" r="3" fill="#3fb950"/><circle cx="654.4" cy="198.0" r="3" fill="#3fb950"/><circle cx="657.6" cy="198.0" r="3" fill="#3fb950"/><circle cx="660.8" cy="198.0" r="3" fill="#3fb950"/><circle cx="664.0" cy="198.0" r="3" fill="#3fb950"/>
<polyline fill="none" stroke="#4aa3ff" stroke-width="2.5" stroke-linejoin="round" points="36.0,144.3 39.2,144.3 42.4,144.3 45.6,144.3 48.8,144.3 51.9,144.3 55.1,144.3 58.3,144.3 61.5,144.3 64.7,144.3 67.9,144.3 71.1,144.3 74.3,144.3 77.4,144.3 80.6,144.3 83.8,136.2 87.0,132.4 90.2,129.6 93.4,129.6 96.6,121.0 99.8,121.0 102.9,121.0 106.1,114.4 109.3,114.4 112.5,114.4 115.7,111.3 118.9,110.9 122.1,110.9 125.3,110.5 128.4,110.5 131.6,109.9 134.8,108.7 138.0,107.3 141.2,106.9 144.4,106.9 147.6,106.9 150.8,106.9 153.9,106.9 157.1,106.9 160.3,106.9 163.5,106.9 166.7,106.9 169.9,106.9 173.1,113.2 176.3,113.2 179.5,113.2 182.6,113.2 185.8,113.2 189.0,110.7 192.2,105.3 195.4,83.4 198.6,83.4 201.8,85.6 205.0,85.6 208.1,85.6 211.3,85.6 214.5,85.6 217.7,85.8 220.9,85.8 224.1,85.8 227.3,86.0 230.5,86.0 233.6,86.0 236.8,86.0 240.0,86.0 243.2,86.0 246.4,86.0 249.6,86.0 252.8,86.0 256.0,86.0 259.1,86.0 262.3,86.0 265.5,86.0 268.7,86.0 271.9,86.0 275.1,86.0 278.3,86.0 281.5,86.0 284.6,86.0 287.8,86.0 291.0,86.0 294.2,87.0 297.4,87.0 300.6,87.0 303.8,73.7 307.0,73.7 310.2,71.0 313.3,71.0 316.5,70.8 319.7,70.6 322.9,70.6 326.1,70.4 329.3,68.6 332.5,60.5 335.7,59.3 338.8,52.0 342.0,47.3 345.2,40.1 348.4,36.0 351.6,36.0 354.8,36.0 358.0,36.0 361.2,36.0 364.3,36.0 367.5,36.0 370.7,36.0 373.9,36.0 377.1,36.0 380.3,36.0 383.5,36.0 386.7,36.0 389.8,36.0 393.0,36.0 396.2,36.0 399.4,36.0 402.6,36.0 405.8,36.0 409.0,36.0 412.2,36.0 415.4,36.0 418.5,36.0 421.7,36.0 424.9,36.0 428.1,36.0 431.3,36.0 434.5,36.0 437.7,36.0 440.9,36.0 444.0,36.0 447.2,36.0 450.4,36.0 453.6,36.0 456.8,36.0 460.0,36.0 463.2,36.0 466.4,36.0 469.5,36.0 472.7,36.0 475.9,36.0 479.1,36.0 482.3,36.0 485.5,36.0 488.7,36.0 491.9,36.0 495.0,36.0 498.2,36.0 501.4,36.0 504.6,36.0 507.8,36.0 511.0,36.0 514.2,36.0 517.4,36.0 520.5,36.0 523.7,36.0 526.9,36.0 530.1,36.0 533.3,36.0 536.5,36.0 539.7,36.0 542.9,36.0 546.1,36.0 549.2,36.0 552.4,36.0 555.6,36.0 558.8,36.0 562.0,36.0 565.2,36.0 568.4,36.0 571.6,36.0 574.7,36.0 577.9,36.0 581.1,36.0 584.3,36.0 587.5,36.0 590.7,36.0 593.9,36.0 597.1,36.0 600.2,36.0 603.4,36.0 606.6,36.0 609.8,36.0 613.0,36.0 616.2,36.0 619.4,36.0 622.6,36.0 625.7,36.0 628.9,36.0 632.1,36.0 635.3,36.0 638.5,36.0 641.7,36.0 644.9,36.0 648.1,36.0 651.2,36.0 654.4,36.0 657.6,36.0 660.8,36.0 664.0,36.0"/><circle cx="36.0" cy="144.3" r="3" fill="#4aa3ff"/><circle cx="39.2" cy="144.3" r="3" fill="#4aa3ff"/><circle cx="42.4" cy="144.3" r="3" fill="#4aa3ff"/><circle cx="45.6" cy="144.3" r="3" fill="#4aa3ff"/><circle cx="48.8" cy="144.3" r="3" fill="#4aa3ff"/><circle cx="51.9" cy="144.3" r="3" fill="#4aa3ff"/><circle cx="55.1" cy="144.3" r="3" fill="#4aa3ff"/><circle cx="58.3" cy="144.3" r="3" fill="#4aa3ff"/><circle cx="61.5" cy="144.3" r="3" fill="#4aa3ff"/><circle cx="64.7" cy="144.3" r="3" fill="#4aa3ff"/><circle cx="67.9" cy="144.3" r="3" fill="#4aa3ff"/><circle cx="71.1" cy="144.3" r="3" fill="#4aa3ff"/><circle cx="74.3" cy="144.3" r="3" fill="#4aa3ff"/><circle cx="77.4" cy="144.3" r="3" fill="#4aa3ff"/><circle cx="80.6" cy="144.3" r="3" fill="#4aa3ff"/><circle cx="83.8" cy="136.2" r="3" fill="#4aa3ff"/><circle cx="87.0" cy="132.4" r="3" fill="#4aa3ff"/><circle cx="90.2" cy="129.6" r="3" fill="#4aa3ff"/><circle cx="93.4" cy="129.6" r="3" fill="#4aa3ff"/><circle cx="96.6" cy="121.0" r="3" fill="#4aa3ff"/><circle cx="99.8" cy="121.0" r="3" fill="#4aa3ff"/><circle cx="102.9" cy="121.0" r="3" fill="#4aa3ff"/><circle cx="106.1" cy="114.4" r="3" fill="#4aa3ff"/><circle cx="109.3" cy="114.4" r="3" fill="#4aa3ff"/><circle cx="112.5" cy="114.4" r="3" fill="#4aa3ff"/><circle cx="115.7" cy="111.3" r="3" fill="#4aa3ff"/><circle cx="118.9" cy="110.9" r="3" fill="#4aa3ff"/><circle cx="122.1" cy="110.9" r="3" fill="#4aa3ff"/><circle cx="125.3" cy="110.5" r="3" fill="#4aa3ff"/><circle cx="128.4" cy="110.5" r="3" fill="#4aa3ff"/><circle cx="131.6" cy="109.9" r="3" fill="#4aa3ff"/><circle cx="134.8" cy="108.7" r="3" fill="#4aa3ff"/><circle cx="138.0" cy="107.3" r="3" fill="#4aa3ff"/><circle cx="141.2" cy="106.9" r="3" fill="#4aa3ff"/><circle cx="144.4" cy="106.9" r="3" fill="#4aa3ff"/><circle cx="147.6" cy="106.9" r="3" fill="#4aa3ff"/><circle cx="150.8" cy="106.9" r="3" fill="#4aa3ff"/><circle cx="153.9" cy="106.9" r="3" fill="#4aa3ff"/><circle cx="157.1" cy="106.9" r="3" fill="#4aa3ff"/><circle cx="160.3" cy="106.9" r="3" fill="#4aa3ff"/><circle cx="163.5" cy="106.9" r="3" fill="#4aa3ff"/><circle cx="166.7" cy="106.9" r="3" fill="#4aa3ff"/><circle cx="169.9" cy="106.9" r="3" fill="#4aa3ff"/><circle cx="173.1" cy="113.2" r="3" fill="#4aa3ff"/><circle cx="176.3" cy="113.2" r="3" fill="#4aa3ff"/><circle cx="179.5" cy="113.2" r="3" fill="#4aa3ff"/><circle cx="182.6" cy="113.2" r="3" fill="#4aa3ff"/><circle cx="185.8" cy="113.2" r="3" fill="#4aa3ff"/><circle cx="189.0" cy="110.7" r="3" fill="#4aa3ff"/><circle cx="192.2" cy="105.3" r="3" fill="#4aa3ff"/><circle cx="195.4" cy="83.4" r="3" fill="#4aa3ff"/><circle cx="198.6" cy="83.4" r="3" fill="#4aa3ff"/><circle cx="201.8" cy="85.6" r="3" fill="#4aa3ff"/><circle cx="205.0" cy="85.6" r="3" fill="#4aa3ff"/><circle cx="208.1" cy="85.6" r="3" fill="#4aa3ff"/><circle cx="211.3" cy="85.6" r="3" fill="#4aa3ff"/><circle cx="214.5" cy="85.6" r="3" fill="#4aa3ff"/><circle cx="217.7" cy="85.8" r="3" fill="#4aa3ff"/><circle cx="220.9" cy="85.8" r="3" fill="#4aa3ff"/><circle cx="224.1" cy="85.8" r="3" fill="#4aa3ff"/><circle cx="227.3" cy="86.0" r="3" fill="#4aa3ff"/><circle cx="230.5" cy="86.0" r="3" fill="#4aa3ff"/><circle cx="233.6" cy="86.0" r="3" fill="#4aa3ff"/><circle cx="236.8" cy="86.0" r="3" fill="#4aa3ff"/><circle cx="240.0" cy="86.0" r="3" fill="#4aa3ff"/><circle cx="243.2" cy="86.0" r="3" fill="#4aa3ff"/><circle cx="246.4" cy="86.0" r="3" fill="#4aa3ff"/><circle cx="249.6" cy="86.0" r="3" fill="#4aa3ff"/><circle cx="252.8" cy="86.0" r="3" fill="#4aa3ff"/><circle cx="256.0" cy="86.0" r="3" fill="#4aa3ff"/><circle cx="259.1" cy="86.0" r="3" fill="#4aa3ff"/><circle cx="262.3" cy="86.0" r="3" fill="#4aa3ff"/><circle cx="265.5" cy="86.0" r="3" fill="#4aa3ff"/><circle cx="268.7" cy="86.0" r="3" fill="#4aa3ff"/><circle cx="271.9" cy="86.0" r="3" fill="#4aa3ff"/><circle cx="275.1" cy="86.0" r="3" fill="#4aa3ff"/><circle cx="278.3" cy="86.0" r="3" fill="#4aa3ff"/><circle cx="281.5" cy="86.0" r="3" fill="#4aa3ff"/><circle cx="284.6" cy="86.0" r="3" fill="#4aa3ff"/><circle cx="287.8" cy="86.0" r="3" fill="#4aa3ff"/><circle cx="291.0" cy="86.0" r="3" fill="#4aa3ff"/><circle cx="294.2" cy="87.0" r="3" fill="#4aa3ff"/><circle cx="297.4" cy="87.0" r="3" fill="#4aa3ff"/><circle cx="300.6" cy="87.0" r="3" fill="#4aa3ff"/><circle cx="303.8" cy="73.7" r="3" fill="#4aa3ff"/><circle cx="307.0" cy="73.7" r="3" fill="#4aa3ff"/><circle cx="310.2" cy="71.0" r="3" fill="#4aa3ff"/><circle cx="313.3" cy="71.0" r="3" fill="#4aa3ff"/><circle cx="316.5" cy="70.8" r="3" fill="#4aa3ff"/><circle cx="319.7" cy="70.6" r="3" fill="#4aa3ff"/><circle cx="322.9" cy="70.6" r="3" fill="#4aa3ff"/><circle cx="326.1" cy="70.4" r="3" fill="#4aa3ff"/><circle cx="329.3" cy="68.6" r="3" fill="#4aa3ff"/><circle cx="332.5" cy="60.5" r="3" fill="#4aa3ff"/><circle cx="335.7" cy="59.3" r="3" fill="#4aa3ff"/><circle cx="338.8" cy="52.0" r="3" fill="#4aa3ff"/><circle cx="342.0" cy="47.3" r="3" fill="#4aa3ff"/><circle cx="345.2" cy="40.1" r="3" fill="#4aa3ff"/><circle cx="348.4" cy="36.0" r="3" fill="#4aa3ff"/><circle cx="351.6" cy="36.0" r="3" fill="#4aa3ff"/><circle cx="354.8" cy="36.0" r="3" fill="#4aa3ff"/><circle cx="358.0" cy="36.0" r="3" fill="#4aa3ff"/><circle cx="361.2" cy="36.0" r="3" fill="#4aa3ff"/><circle cx="364.3" cy="36.0" r="3" fill="#4aa3ff"/><circle cx="367.5" cy="36.0" r="3" fill="#4aa3ff"/><circle cx="370.7" cy="36.0" r="3" fill="#4aa3ff"/><circle cx="373.9" cy="36.0" r="3" fill="#4aa3ff"/><circle cx="377.1" cy="36.0" r="3" fill="#4aa3ff"/><circle cx="380.3" cy="36.0" r="3" fill="#4aa3ff"/><circle cx="383.5" cy="36.0" r="3" fill="#4aa3ff"/><circle cx="386.7" cy="36.0" r="3" fill="#4aa3ff"/><circle cx="389.8" cy="36.0" r="3" fill="#4aa3ff"/><circle cx="393.0" cy="36.0" r="3" fill="#4aa3ff"/><circle cx="396.2" cy="36.0" r="3" fill="#4aa3ff"/><circle cx="399.4" cy="36.0" r="3" fill="#4aa3ff"/><circle cx="402.6" cy="36.0" r="3" fill="#4aa3ff"/><circle cx="405.8" cy="36.0" r="3" fill="#4aa3ff"/><circle cx="409.0" cy="36.0" r="3" fill="#4aa3ff"/><circle cx="412.2" cy="36.0" r="3" fill="#4aa3ff"/><circle cx="415.4" cy="36.0" r="3" fill="#4aa3ff"/><circle cx="418.5" cy="36.0" r="3" fill="#4aa3ff"/><circle cx="421.7" cy="36.0" r="3" fill="#4aa3ff"/><circle cx="424.9" cy="36.0" r="3" fill="#4aa3ff"/><circle cx="428.1" cy="36.0" r="3" fill="#4aa3ff"/><circle cx="431.3" cy="36.0" r="3" fill="#4aa3ff"/><circle cx="434.5" cy="36.0" r="3" fill="#4aa3ff"/><circle cx="437.7" cy="36.0" r="3" fill="#4aa3ff"/><circle cx="440.9" cy="36.0" r="3" fill="#4aa3ff"/><circle cx="444.0" cy="36.0" r="3" fill="#4aa3ff"/><circle cx="447.2" cy="36.0" r="3" fill="#4aa3ff"/><circle cx="450.4" cy="36.0" r="3" fill="#4aa3ff"/><circle cx="453.6" cy="36.0" r="3" fill="#4aa3ff"/><circle cx="456.8" cy="36.0" r="3" fill="#4aa3ff"/><circle cx="460.0" cy="36.0" r="3" fill="#4aa3ff"/><circle cx="463.2" cy="36.0" r="3" fill="#4aa3ff"/><circle cx="466.4" cy="36.0" r="3" fill="#4aa3ff"/><circle cx="469.5" cy="36.0" r="3" fill="#4aa3ff"/><circle cx="472.7" cy="36.0" r="3" fill="#4aa3ff"/><circle cx="475.9" cy="36.0" r="3" fill="#4aa3ff"/><circle cx="479.1" cy="36.0" r="3" fill="#4aa3ff"/><circle cx="482.3" cy="36.0" r="3" fill="#4aa3ff"/><circle cx="485.5" cy="36.0" r="3" fill="#4aa3ff"/><circle cx="488.7" cy="36.0" r="3" fill="#4aa3ff"/><circle cx="491.9" cy="36.0" r="3" fill="#4aa3ff"/><circle cx="495.0" cy="36.0" r="3" fill="#4aa3ff"/><circle cx="498.2" cy="36.0" r="3" fill="#4aa3ff"/><circle cx="501.4" cy="36.0" r="3" fill="#4aa3ff"/><circle cx="504.6" cy="36.0" r="3" fill="#4aa3ff"/><circle cx="507.8" cy="36.0" r="3" fill="#4aa3ff"/><circle cx="511.0" cy="36.0" r="3" fill="#4aa3ff"/><circle cx="514.2" cy="36.0" r="3" fill="#4aa3ff"/><circle cx="517.4" cy="36.0" r="3" fill="#4aa3ff"/><circle cx="520.5" cy="36.0" r="3" fill="#4aa3ff"/><circle cx="523.7" cy="36.0" r="3" fill="#4aa3ff"/><circle cx="526.9" cy="36.0" r="3" fill="#4aa3ff"/><circle cx="530.1" cy="36.0" r="3" fill="#4aa3ff"/><circle cx="533.3" cy="36.0" r="3" fill="#4aa3ff"/><circle cx="536.5" cy="36.0" r="3" fill="#4aa3ff"/><circle cx="539.7" cy="36.0" r="3" fill="#4aa3ff"/><circle cx="542.9" cy="36.0" r="3" fill="#4aa3ff"/><circle cx="546.1" cy="36.0" r="3" fill="#4aa3ff"/><circle cx="549.2" cy="36.0" r="3" fill="#4aa3ff"/><circle cx="552.4" cy="36.0" r="3" fill="#4aa3ff"/><circle cx="555.6" cy="36.0" r="3" fill="#4aa3ff"/><circle cx="558.8" cy="36.0" r="3" fill="#4aa3ff"/><circle cx="562.0" cy="36.0" r="3" fill="#4aa3ff"/><circle cx="565.2" cy="36.0" r="3" fill="#4aa3ff"/><circle cx="568.4" cy="36.0" r="3" fill="#4aa3ff"/><circle cx="571.6" cy="36.0" r="3" fill="#4aa3ff"/><circle cx="574.7" cy="36.0" r="3" fill="#4aa3ff"/><circle cx="577.9" cy="36.0" r="3" fill="#4aa3ff"/><circle cx="581.1" cy="36.0" r="3" fill="#4aa3ff"/><circle cx="584.3" cy="36.0" r="3" fill="#4aa3ff"/><circle cx="587.5" cy="36.0" r="3" fill="#4aa3ff"/><circle cx="590.7" cy="36.0" r="3" fill="#4aa3ff"/><circle cx="593.9" cy="36.0" r="3" fill="#4aa3ff"/><circle cx="597.1" cy="36.0" r="3" fill="#4aa3ff"/><circle cx="600.2" cy="36.0" r="3" fill="#4aa3ff"/><circle cx="603.4" cy="36.0" r="3" fill="#4aa3ff"/><circle cx="606.6" cy="36.0" r="3" fill="#4aa3ff"/><circle cx="609.8" cy="36.0" r="3" fill="#4aa3ff"/><circle cx="613.0" cy="36.0" r="3" fill="#4aa3ff"/><circle cx="616.2" cy="36.0" r="3" fill="#4aa3ff"/><circle cx="619.4" cy="36.0" r="3" fill="#4aa3ff"/><circle cx="622.6" cy="36.0" r="3" fill="#4aa3ff"/><circle cx="625.7" cy="36.0" r="3" fill="#4aa3ff"/><circle cx="628.9" cy="36.0" r="3" fill="#4aa3ff"/><circle cx="632.1" cy="36.0" r="3" fill="#4aa3ff"/><circle cx="635.3" cy="36.0" r="3" fill="#4aa3ff"/><circle cx="638.5" cy="36.0" r="3" fill="#4aa3ff"/><circle cx="641.7" cy="36.0" r="3" fill="#4aa3ff"/><circle cx="644.9" cy="36.0" r="3" fill="#4aa3ff"/><circle cx="648.1" cy="36.0" r="3" fill="#4aa3ff"/><circle cx="651.2" cy="36.0" r="3" fill="#4aa3ff"/><circle cx="654.4" cy="36.0" r="3" fill="#4aa3ff"/><circle cx="657.6" cy="36.0" r="3" fill="#4aa3ff"/><circle cx="660.8" cy="36.0" r="3" fill="#4aa3ff"/><circle cx="664.0" cy="36.0" r="3" fill="#4aa3ff"/>
<text x="36" y="225" fill="#6b7280" font-size="11">2026-06-26</text>
<text x="664" y="225" fill="#6b7280" font-size="11" text-anchor="end">2026-07-16</text>
<text x="36" y="212" font-family="system-ui,sans-serif" font-size="11">
<tspan fill="#4aa3ff">&#9679; open FPs</tspan>  <tspan fill="#3fb950">&#9679; closed (Anthropic acting)</tspan>  <tspan fill="#8a5a5a">&#9679; harness withdrawn</tspan></text>
<text x="664" y="22" text-anchor="end" font-family="system-ui,sans-serif" font-size="12">
<tspan fill="#4aa3ff">open 800</tspan>  <tspan fill="#3fb950">closed 0</tspan>  <tspan fill="#8a5a5a">harness 0</tspan></text>
</svg>