<svg xmlns="http://www.w3.org/2000/svg" width="700" height="234" viewBox="0 0 700 234" role="img">
<rect width="700" height="234" rx="12" fill="#16181d"/>
<text x="36" y="22" fill="#e8eaed" font-family="system-ui,sans-serif" font-size="14" font-weight="700">Is Anthropic acting? cyber/aup false positives over time</text>
<line x1="36" y1="198.0" x2="664" y2="198.0" stroke="#2a2e37" stroke-width="1"/><text x="30" y="202.0" fill="#6b7280" font-size="11" text-anchor="end">0</text><line x1="36" y1="117.0" x2="664" y2="117.0" stroke="#2a2e37" stroke-width="1"/><text x="30" y="121.0" fill="#6b7280" font-size="11" text-anchor="end">400</text><line x1="36" y1="36.0" x2="664" y2="36.0" stroke="#2a2e37" stroke-width="1"/><text x="30" y="40.0" fill="#6b7280" font-size="11" text-anchor="end">800</text>

<polyline fill="none" stroke="#8a5a5a" stroke-width="2.5" stroke-linejoin="round" points="36.0,145.1 39.5,145.1 43.0,145.1 46.5,145.1 50.0,145.1 53.4,145.1 56.9,145.1 60.4,145.1 63.9,145.1 67.4,145.1 70.9,145.1 74.4,145.1 77.9,145.1 81.4,145.1 84.8,145.1 88.3,145.1 91.8,145.1 95.3,145.1 98.8,145.1 102.3,145.1 105.8,145.1 109.3,145.1 112.8,145.1 116.2,145.1 119.7,145.1 123.2,145.1 126.7,145.1 130.2,145.1 133.7,145.1 137.2,145.1 140.7,145.1 144.2,145.1 147.6,145.1 151.1,145.1 154.6,145.1 158.1,145.1 161.6,145.1 165.1,145.1 168.6,145.1 172.1,145.1 175.6,145.1 179.0,145.1 182.5,145.1 186.0,145.1 189.5,145.1 193.0,145.1 196.5,145.1 200.0,145.1 203.5,145.1 207.0,145.1 210.4,155.7 213.9,155.7 217.4,155.7 220.9,155.7 224.4,155.7 227.9,155.7 231.4,155.7 234.9,155.7 238.4,155.7 241.8,155.7 245.3,155.7 248.8,155.7 252.3,155.7 255.8,155.7 259.3,155.7 262.8,155.7 266.3,155.7 269.8,155.7 273.2,155.7 276.7,155.7 280.2,155.7 283.7,155.7 287.2,155.7 290.7,155.7 294.2,155.7 297.7,155.7 301.2,155.7 304.6,155.7 308.1,155.7 311.6,155.7 315.1,155.7 318.6,155.7 322.1,155.7 325.6,155.7 329.1,167.6 332.6,167.6 336.0,170.3 339.5,170.3 343.0,170.5 346.5,170.7 350.0,170.7 353.5,170.9 357.0,172.7 360.5,180.6 364.0,181.8 367.4,189.1 370.9,190.5 374.4,195.2 377.9,198.0 381.4,198.0 384.9,198.0 388.4,198.0 391.9,198.0 395.4,198.0 398.8,198.0 402.3,198.0 405.8,198.0 409.3,198.0 412.8,198.0 416.3,198.0 419.8,198.0 423.3,198.0 426.8,198.0 430.2,198.0 433.7,198.0 437.2,198.0 440.7,198.0 444.2,198.0 447.7,198.0 451.2,198.0 454.7,198.0 458.2,198.0 461.6,198.0 465.1,198.0 468.6,198.0 472.1,198.0 475.6,198.0 479.1,198.0 482.6,198.0 486.1,198.0 489.6,198.0 493.0,198.0 496.5,198.0 500.0,198.0 503.5,198.0 507.0,198.0 510.5,198.0 514.0,198.0 517.5,198.0 521.0,198.0 524.4,198.0 527.9,198.0 531.4,198.0 534.9,198.0 538.4,198.0 541.9,198.0 545.4,198.0 548.9,198.0 552.4,198.0 555.8,198.0 559.3,198.0 562.8,198.0 566.3,198.0 569.8,198.0 573.3,198.0 576.8,198.0 580.3,198.0 583.8,198.0 587.2,198.0 590.7,198.0 594.2,198.0 597.7,198.0 601.2,198.0 604.7,198.0 608.2,198.0 611.7,198.0 615.2,198.0 618.6,198.0 622.1,198.0 625.6,198.0 629.1,198.0 632.6,198.0 636.1,198.0 639.6,198.0 643.1,198.0 646.6,198.0 650.0,198.0 653.5,198.0 657.0,198.0 660.5,198.0 664.0,198.0"/><circle cx="36.0" cy="145.1" r="3" fill="#8a5a5a"/><circle cx="39.5" cy="145.1" r="3" fill="#8a5a5a"/><circle cx="43.0" cy="145.1" r="3" fill="#8a5a5a"/><circle cx="46.5" cy="145.1" r="3" fill="#8a5a5a"/><circle cx="50.0" cy="145.1" r="3" fill="#8a5a5a"/><circle cx="53.4" cy="145.1" r="3" fill="#8a5a5a"/><circle cx="56.9" cy="145.1" r="3" fill="#8a5a5a"/><circle cx="60.4" cy="145.1" r="3" fill="#8a5a5a"/><circle cx="63.9" cy="145.1" r="3" fill="#8a5a5a"/><circle cx="67.4" cy="145.1" r="3" fill="#8a5a5a"/><circle cx="70.9" cy="145.1" r="3" fill="#8a5a5a"/><circle cx="74.4" cy="145.1" r="3" fill="#8a5a5a"/><circle cx="77.9" cy="145.1" r="3" fill="#8a5a5a"/><circle cx="81.4" cy="145.1" r="3" fill="#8a5a5a"/><circle cx="84.8" cy="145.1" r="3" fill="#8a5a5a"/><circle cx="88.3" cy="145.1" r="3" fill="#8a5a5a"/><circle cx="91.8" cy="145.1" r="3" fill="#8a5a5a"/><circle cx="95.3" cy="145.1" r="3" fill="#8a5a5a"/><circle cx="98.8" cy="145.1" r="3" fill="#8a5a5a"/><circle cx="102.3" cy="145.1" r="3" fill="#8a5a5a"/><circle cx="105.8" cy="145.1" r="3" fill="#8a5a5a"/><circle cx="109.3" cy="145.1" r="3" fill="#8a5a5a"/><circle cx="112.8" cy="145.1" r="3" fill="#8a5a5a"/><circle cx="116.2" cy="145.1" r="3" fill="#8a5a5a"/><circle cx="119.7" cy="145.1" r="3" fill="#8a5a5a"/><circle cx="123.2" cy="145.1" r="3" fill="#8a5a5a"/><circle cx="126.7" cy="145.1" r="3" fill="#8a5a5a"/><circle cx="130.2" cy="145.1" r="3" fill="#8a5a5a"/><circle cx="133.7" cy="145.1" r="3" fill="#8a5a5a"/><circle cx="137.2" cy="145.1" r="3" fill="#8a5a5a"/><circle cx="140.7" cy="145.1" r="3" fill="#8a5a5a"/><circle cx="144.2" cy="145.1" r="3" fill="#8a5a5a"/><circle cx="147.6" cy="145.1" r="3" fill="#8a5a5a"/><circle cx="151.1" cy="145.1" r="3" fill="#8a5a5a"/><circle cx="154.6" cy="145.1" r="3" fill="#8a5a5a"/><circle cx="158.1" cy="145.1" r="3" fill="#8a5a5a"/><circle cx="161.6" cy="145.1" r="3" fill="#8a5a5a"/><circle cx="165.1" cy="145.1" r="3" fill="#8a5a5a"/><circle cx="168.6" cy="145.1" r="3" fill="#8a5a5a"/><circle cx="172.1" cy="145.1" r="3" fill="#8a5a5a"/><circle cx="175.6" cy="145.1" r="3" fill="#8a5a5a"/><circle cx="179.0" cy="145.1" r="3" fill="#8a5a5a"/><circle cx="182.5" cy="145.1" r="3" fill="#8a5a5a"/><circle cx="186.0" cy="145.1" r="3" fill="#8a5a5a"/><circle cx="189.5" cy="145.1" r="3" fill="#8a5a5a"/><circle cx="193.0" cy="145.1" r="3" fill="#8a5a5a"/><circle cx="196.5" cy="145.1" r="3" fill="#8a5a5a"/><circle cx="200.0" cy="145.1" r="3" fill="#8a5a5a"/><circle cx="203.5" cy="145.1" r="3" fill="#8a5a5a"/><circle cx="207.0" cy="145.1" r="3" fill="#8a5a5a"/><circle cx="210.4" cy="155.7" r="3" fill="#8a5a5a"/><circle cx="213.9" cy="155.7" r="3" fill="#8a5a5a"/><circle cx="217.4" cy="155.7" r="3" fill="#8a5a5a"/><circle cx="220.9" cy="155.7" r="3" fill="#8a5a5a"/><circle cx="224.4" cy="155.7" r="3" fill="#8a5a5a"/><circle cx="227.9" cy="155.7" r="3" fill="#8a5a5a"/><circle cx="231.4" cy="155.7" r="3" fill="#8a5a5a"/><circle cx="234.9" cy="155.7" r="3" fill="#8a5a5a"/><circle cx="238.4" cy="155.7" r="3" fill="#8a5a5a"/><circle cx="241.8" cy="155.7" r="3" fill="#8a5a5a"/><circle cx="245.3" cy="155.7" r="3" fill="#8a5a5a"/><circle cx="248.8" cy="155.7" r="3" fill="#8a5a5a"/><circle cx="252.3" cy="155.7" r="3" fill="#8a5a5a"/><circle cx="255.8" cy="155.7" r="3" fill="#8a5a5a"/><circle cx="259.3" cy="155.7" r="3" fill="#8a5a5a"/><circle cx="262.8" cy="155.7" r="3" fill="#8a5a5a"/><circle cx="266.3" cy="155.7" r="3" fill="#8a5a5a"/><circle cx="269.8" cy="155.7" r="3" fill="#8a5a5a"/><circle cx="273.2" cy="155.7" r="3" fill="#8a5a5a"/><circle cx="276.7" cy="155.7" r="3" fill="#8a5a5a"/><circle cx="280.2" cy="155.7" r="3" fill="#8a5a5a"/><circle cx="283.7" cy="155.7" r="3" fill="#8a5a5a"/><circle cx="287.2" cy="155.7" r="3" fill="#8a5a5a"/><circle cx="290.7" cy="155.7" r="3" fill="#8a5a5a"/><circle cx="294.2" cy="155.7" r="3" fill="#8a5a5a"/><circle cx="297.7" cy="155.7" r="3" fill="#8a5a5a"/><circle cx="301.2" cy="155.7" r="3" fill="#8a5a5a"/><circle cx="304.6" cy="155.7" r="3" fill="#8a5a5a"/><circle cx="308.1" cy="155.7" r="3" fill="#8a5a5a"/><circle cx="311.6" cy="155.7" r="3" fill="#8a5a5a"/><circle cx="315.1" cy="155.7" r="3" fill="#8a5a5a"/><circle cx="318.6" cy="155.7" r="3" fill="#8a5a5a"/><circle cx="322.1" cy="155.7" r="3" fill="#8a5a5a"/><circle cx="325.6" cy="155.7" r="3" fill="#8a5a5a"/><circle cx="329.1" cy="167.6" r="3" fill="#8a5a5a"/><circle cx="332.6" cy="167.6" r="3" fill="#8a5a5a"/><circle cx="336.0" cy="170.3" r="3" fill="#8a5a5a"/><circle cx="339.5" cy="170.3" r="3" fill="#8a5a5a"/><circle cx="343.0" cy="170.5" r="3" fill="#8a5a5a"/><circle cx="346.5" cy="170.7" r="3" fill="#8a5a5a"/><circle cx="350.0" cy="170.7" r="3" fill="#8a5a5a"/><circle cx="353.5" cy="170.9" r="3" fill="#8a5a5a"/><circle cx="357.0" cy="172.7" r="3" fill="#8a5a5a"/><circle cx="360.5" cy="180.6" r="3" fill="#8a5a5a"/><circle cx="364.0" cy="181.8" r="3" fill="#8a5a5a"/><circle cx="367.4" cy="189.1" r="3" fill="#8a5a5a"/><circle cx="370.9" cy="190.5" r="3" fill="#8a5a5a"/><circle cx="374.4" cy="195.2" r="3" fill="#8a5a5a"/><circle cx="377.9" cy="198.0" r="3" fill="#8a5a5a"/><circle cx="381.4" cy="198.0" r="3" fill="#8a5a5a"/><circle cx="384.9" cy="198.0" r="3" fill="#8a5a5a"/><circle cx="388.4" cy="198.0" r="3" fill="#8a5a5a"/><circle cx="391.9" cy="198.0" r="3" fill="#8a5a5a"/><circle cx="395.4" cy="198.0" r="3" fill="#8a5a5a"/><circle cx="398.8" cy="198.0" r="3" fill="#8a5a5a"/><circle cx="402.3" cy="198.0" r="3" fill="#8a5a5a"/><circle cx="405.8" cy="198.0" r="3" fill="#8a5a5a"/><circle cx="409.3" cy="198.0" r="3" fill="#8a5a5a"/><circle cx="412.8" cy="198.0" r="3" fill="#8a5a5a"/><circle cx="416.3" cy="198.0" r="3" fill="#8a5a5a"/><circle cx="419.8" cy="198.0" r="3" fill="#8a5a5a"/><circle cx="423.3" cy="198.0" r="3" fill="#8a5a5a"/><circle cx="426.8" cy="198.0" r="3" fill="#8a5a5a"/><circle cx="430.2" cy="198.0" r="3" fill="#8a5a5a"/><circle cx="433.7" cy="198.0" r="3" fill="#8a5a5a"/><circle cx="437.2" cy="198.0" r="3" fill="#8a5a5a"/><circle cx="440.7" cy="198.0" r="3" fill="#8a5a5a"/><circle cx="444.2" cy="198.0" r="3" fill="#8a5a5a"/><circle cx="447.7" cy="198.0" r="3" fill="#8a5a5a"/><circle cx="451.2" cy="198.0" r="3" fill="#8a5a5a"/><circle cx="454.7" cy="198.0" r="3" fill="#8a5a5a"/><circle cx="458.2" cy="198.0" r="3" fill="#8a5a5a"/><circle cx="461.6" cy="198.0" r="3" fill="#8a5a5a"/><circle cx="465.1" cy="198.0" r="3" fill="#8a5a5a"/><circle cx="468.6" cy="198.0" r="3" fill="#8a5a5a"/><circle cx="472.1" cy="198.0" r="3" fill="#8a5a5a"/><circle cx="475.6" cy="198.0" r="3" fill="#8a5a5a"/><circle cx="479.1" cy="198.0" r="3" fill="#8a5a5a"/><circle cx="482.6" cy="198.0" r="3" fill="#8a5a5a"/><circle cx="486.1" cy="198.0" r="3" fill="#8a5a5a"/><circle cx="489.6" cy="198.0" r="3" fill="#8a5a5a"/><circle cx="493.0" cy="198.0" r="3" fill="#8a5a5a"/><circle cx="496.5" cy="198.0" r="3" fill="#8a5a5a"/><circle cx="500.0" cy="198.0" r="3" fill="#8a5a5a"/><circle cx="503.5" cy="198.0" r="3" fill="#8a5a5a"/><circle cx="507.0" cy="198.0" r="3" fill="#8a5a5a"/><circle cx="510.5" cy="198.0" r="3" fill="#8a5a5a"/><circle cx="514.0" cy="198.0" r="3" fill="#8a5a5a"/><circle cx="517.5" cy="198.0" r="3" fill="#8a5a5a"/><circle cx="521.0" cy="198.0" r="3" fill="#8a5a5a"/><circle cx="524.4" cy="198.0" r="3" fill="#8a5a5a"/><circle cx="527.9" cy="198.0" r="3" fill="#8a5a5a"/><circle cx="531.4" cy="198.0" r="3" fill="#8a5a5a"/><circle cx="534.9" cy="198.0" r="3" fill="#8a5a5a"/><circle cx="538.4" cy="198.0" r="3" fill="#8a5a5a"/><circle cx="541.9" cy="198.0" r="3" fill="#8a5a5a"/><circle cx="545.4" cy="198.0" r="3" fill="#8a5a5a"/><circle cx="548.9" cy="198.0" r="3" fill="#8a5a5a"/><circle cx="552.4" cy="198.0" r="3" fill="#8a5a5a"/><circle cx="555.8" cy="198.0" r="3" fill="#8a5a5a"/><circle cx="559.3" cy="198.0" r="3" fill="#8a5a5a"/><circle cx="562.8" cy="198.0" r="3" fill="#8a5a5a"/><circle cx="566.3" cy="198.0" r="3" fill="#8a5a5a"/><circle cx="569.8" cy="198.0" r="3" fill="#8a5a5a"/><circle cx="573.3" cy="198.0" r="3" fill="#8a5a5a"/><circle cx="576.8" cy="198.0" r="3" fill="#8a5a5a"/><circle cx="580.3" cy="198.0" r="3" fill="#8a5a5a"/><circle cx="583.8" cy="198.0" r="3" fill="#8a5a5a"/><circle cx="587.2" cy="198.0" r="3" fill="#8a5a5a"/><circle cx="590.7" cy="198.0" r="3" fill="#8a5a5a"/><circle cx="594.2" cy="198.0" r="3" fill="#8a5a5a"/><circle cx="597.7" cy="198.0" r="3" fill="#8a5a5a"/><circle cx="601.2" cy="198.0" r="3" fill="#8a5a5a"/><circle cx="604.7" cy="198.0" r="3" fill="#8a5a5a"/><circle cx="608.2" cy="198.0" r="3" fill="#8a5a5a"/><circle cx="611.7" cy="198.0" r="3" fill="#8a5a5a"/><circle cx="615.2" cy="198.0" r="3" fill="#8a5a5a"/><circle cx="618.6" cy="198.0" r="3" fill="#8a5a5a"/><circle cx="622.1" cy="198.0" r="3" fill="#8a5a5a"/><circle cx="625.6" cy="198.0" r="3" fill="#8a5a5a"/><circle cx="629.1" cy="198.0" r="3" fill="#8a5a5a"/><circle cx="632.6" cy="198.0" r="3" fill="#8a5a5a"/><circle cx="636.1" cy="198.0" r="3" fill="#8a5a5a"/><circle cx="639.6" cy="198.0" r="3" fill="#8a5a5a"/><circle cx="643.1" cy="198.0" r="3" fill="#8a5a5a"/><circle cx="646.6" cy="198.0" r="3" fill="#8a5a5a"/><circle cx="650.0" cy="198.0" r="3" fill="#8a5a5a"/><circle cx="653.5" cy="198.0" r="3" fill="#8a5a5a"/><circle cx="657.0" cy="198.0" r="3" fill="#8a5a5a"/><circle cx="660.5" cy="198.0" r="3" fill="#8a5a5a"/><circle cx="664.0" cy="198.0" r="3" fill="#8a5a5a"/>
<polyline fill="none" stroke="#3fb950" stroke-width="2.5" stroke-linejoin="round" points="36.0,198.0 39.5,198.0 43.0,198.0 46.5,198.0 50.0,198.0 53.4,198.0 56.9,198.0 60.4,198.0 63.9,198.0 67.4,198.0 70.9,198.0 74.4,198.0 77.9,198.0 81.4,198.0 84.8,198.0 88.3,198.0 91.8,198.0 95.3,198.0 98.8,198.0 102.3,198.0 105.8,198.0 109.3,198.0 112.8,198.0 116.2,198.0 119.7,198.0 123.2,198.0 126.7,198.0 130.2,198.0 133.7,198.0 137.2,198.0 140.7,198.0 144.2,198.0 147.6,198.0 151.1,198.0 154.6,198.0 158.1,198.0 161.6,198.0 165.1,198.0 168.6,198.0 172.1,198.0 175.6,198.0 179.0,198.0 182.5,198.0 186.0,191.7 189.5,191.7 193.0,191.7 196.5,191.7 200.0,191.7 203.5,191.7 207.0,191.7 210.4,192.9 213.9,192.9 217.4,190.7 220.9,190.7 224.4,190.7 227.9,190.7 231.4,190.7 234.9,190.5 238.4,190.5 241.8,190.5 245.3,190.3 248.8,190.3 252.3,190.3 255.8,190.3 259.3,190.3 262.8,190.3 266.3,190.3 269.8,190.3 273.2,190.3 276.7,190.3 280.2,190.3 283.7,190.3 287.2,190.3 290.7,190.3 294.2,190.3 297.7,190.3 301.2,190.3 304.6,190.3 308.1,190.3 311.6,190.3 315.1,190.3 318.6,189.3 322.1,189.3 325.6,189.3 329.1,190.7 332.6,190.7 336.0,190.7 339.5,190.7 343.0,190.7 346.5,190.7 350.0,190.7 353.5,190.7 357.0,190.7 360.5,190.9 364.0,190.9 367.4,190.9 370.9,194.2 374.4,196.8 377.9,198.0 381.4,198.0 384.9,198.0 388.4,198.0 391.9,198.0 395.4,198.0 398.8,198.0 402.3,198.0 405.8,198.0 409.3,198.0 412.8,198.0 416.3,198.0 419.8,198.0 423.3,198.0 426.8,198.0 430.2,198.0 433.7,198.0 437.2,198.0 440.7,198.0 444.2,198.0 447.7,198.0 451.2,198.0 454.7,198.0 458.2,198.0 461.6,198.0 465.1,198.0 468.6,198.0 472.1,198.0 475.6,198.0 479.1,198.0 482.6,198.0 486.1,198.0 489.6,198.0 493.0,198.0 496.5,198.0 500.0,198.0 503.5,198.0 507.0,198.0 510.5,198.0 514.0,198.0 517.5,198.0 521.0,198.0 524.4,198.0 527.9,198.0 531.4,198.0 534.9,198.0 538.4,198.0 541.9,198.0 545.4,198.0 548.9,198.0 552.4,198.0 555.8,198.0 559.3,198.0 562.8,198.0 566.3,198.0 569.8,198.0 573.3,198.0 576.8,198.0 580.3,198.0 583.8,198.0 587.2,198.0 590.7,198.0 594.2,198.0 597.7,198.0 601.2,198.0 604.7,198.0 608.2,198.0 611.7,198.0 615.2,198.0 618.6,198.0 622.1,198.0 625.6,198.0 629.1,198.0 632.6,198.0 636.1,198.0 639.6,198.0 643.1,198.0 646.6,198.0 650.0,198.0 653.5,198.0 657.0,198.0 660.5,198.0 664.0,198.0"/><circle cx="36.0" cy="198.0" r="3" fill="#3fb950"/><circle cx="39.5" cy="198.0" r="3" fill="#3fb950"/><circle cx="43.0" cy="198.0" r="3" fill="#3fb950"/><circle cx="46.5" cy="198.0" r="3" fill="#3fb950"/><circle cx="50.0" cy="198.0" r="3" fill="#3fb950"/><circle cx="53.4" cy="198.0" r="3" fill="#3fb950"/><circle cx="56.9" cy="198.0" r="3" fill="#3fb950"/><circle cx="60.4" cy="198.0" r="3" fill="#3fb950"/><circle cx="63.9" cy="198.0" r="3" fill="#3fb950"/><circle cx="67.4" cy="198.0" r="3" fill="#3fb950"/><circle cx="70.9" cy="198.0" r="3" fill="#3fb950"/><circle cx="74.4" cy="198.0" r="3" fill="#3fb950"/><circle cx="77.9" cy="198.0" r="3" fill="#3fb950"/><circle cx="81.4" cy="198.0" r="3" fill="#3fb950"/><circle cx="84.8" cy="198.0" r="3" fill="#3fb950"/><circle cx="88.3" cy="198.0" r="3" fill="#3fb950"/><circle cx="91.8" cy="198.0" r="3" fill="#3fb950"/><circle cx="95.3" cy="198.0" r="3" fill="#3fb950"/><circle cx="98.8" cy="198.0" r="3" fill="#3fb950"/><circle cx="102.3" cy="198.0" r="3" fill="#3fb950"/><circle cx="105.8" cy="198.0" r="3" fill="#3fb950"/><circle cx="109.3" cy="198.0" r="3" fill="#3fb950"/><circle cx="112.8" cy="198.0" r="3" fill="#3fb950"/><circle cx="116.2" cy="198.0" r="3" fill="#3fb950"/><circle cx="119.7" cy="198.0" r="3" fill="#3fb950"/><circle cx="123.2" cy="198.0" r="3" fill="#3fb950"/><circle cx="126.7" cy="198.0" r="3" fill="#3fb950"/><circle cx="130.2" cy="198.0" r="3" fill="#3fb950"/><circle cx="133.7" cy="198.0" r="3" fill="#3fb950"/><circle cx="137.2" cy="198.0" r="3" fill="#3fb950"/><circle cx="140.7" cy="198.0" r="3" fill="#3fb950"/><circle cx="144.2" cy="198.0" r="3" fill="#3fb950"/><circle cx="147.6" cy="198.0" r="3" fill="#3fb950"/><circle cx="151.1" cy="198.0" r="3" fill="#3fb950"/><circle cx="154.6" cy="198.0" r="3" fill="#3fb950"/><circle cx="158.1" cy="198.0" r="3" fill="#3fb950"/><circle cx="161.6" cy="198.0" r="3" fill="#3fb950"/><circle cx="165.1" cy="198.0" r="3" fill="#3fb950"/><circle cx="168.6" cy="198.0" r="3" fill="#3fb950"/><circle cx="172.1" cy="198.0" r="3" fill="#3fb950"/><circle cx="175.6" cy="198.0" r="3" fill="#3fb950"/><circle cx="179.0" cy="198.0" r="3" fill="#3fb950"/><circle cx="182.5" cy="198.0" r="3" fill="#3fb950"/><circle cx="186.0" cy="191.7" r="3" fill="#3fb950"/><circle cx="189.5" cy="191.7" r="3" fill="#3fb950"/><circle cx="193.0" cy="191.7" r="3" fill="#3fb950"/><circle cx="196.5" cy="191.7" r="3" fill="#3fb950"/><circle cx="200.0" cy="191.7" r="3" fill="#3fb950"/><circle cx="203.5" cy="191.7" r="3" fill="#3fb950"/><circle cx="207.0" cy="191.7" r="3" fill="#3fb950"/><circle cx="210.4" cy="192.9" r="3" fill="#3fb950"/><circle cx="213.9" cy="192.9" r="3" fill="#3fb950"/><circle cx="217.4" cy="190.7" r="3" fill="#3fb950"/><circle cx="220.9" cy="190.7" r="3" fill="#3fb950"/><circle cx="224.4" cy="190.7" r="3" fill="#3fb950"/><circle cx="227.9" cy="190.7" r="3" fill="#3fb950"/><circle cx="231.4" cy="190.7" r="3" fill="#3fb950"/><circle cx="234.9" cy="190.5" r="3" fill="#3fb950"/><circle cx="238.4" cy="190.5" r="3" fill="#3fb950"/><circle cx="241.8" cy="190.5" r="3" fill="#3fb950"/><circle cx="245.3" cy="190.3" r="3" fill="#3fb950"/><circle cx="248.8" cy="190.3" r="3" fill="#3fb950"/><circle cx="252.3" cy="190.3" r="3" fill="#3fb950"/><circle cx="255.8" cy="190.3" r="3" fill="#3fb950"/><circle cx="259.3" cy="190.3" r="3" fill="#3fb950"/><circle cx="262.8" cy="190.3" r="3" fill="#3fb950"/><circle cx="266.3" cy="190.3" r="3" fill="#3fb950"/><circle cx="269.8" cy="190.3" r="3" fill="#3fb950"/><circle cx="273.2" cy="190.3" r="3" fill="#3fb950"/><circle cx="276.7" cy="190.3" r="3" fill="#3fb950"/><circle cx="280.2" cy="190.3" r="3" fill="#3fb950"/><circle cx="283.7" cy="190.3" r="3" fill="#3fb950"/><circle cx="287.2" cy="190.3" r="3" fill="#3fb950"/><circle cx="290.7" cy="190.3" r="3" fill="#3fb950"/><circle cx="294.2" cy="190.3" r="3" fill="#3fb950"/><circle cx="297.7" cy="190.3" r="3" fill="#3fb950"/><circle cx="301.2" cy="190.3" r="3" fill="#3fb950"/><circle cx="304.6" cy="190.3" r="3" fill="#3fb950"/><circle cx="308.1" cy="190.3" r="3" fill="#3fb950"/><circle cx="311.6" cy="190.3" r="3" fill="#3fb950"/><circle cx="315.1" cy="190.3" r="3" fill="#3fb950"/><circle cx="318.6" cy="189.3" r="3" fill="#3fb950"/><circle cx="322.1" cy="189.3" r="3" fill="#3fb950"/><circle cx="325.6" cy="189.3" r="3" fill="#3fb950"/><circle cx="329.1" cy="190.7" r="3" fill="#3fb950"/><circle cx="332.6" cy="190.7" r="3" fill="#3fb950"/><circle cx="336.0" cy="190.7" r="3" fill="#3fb950"/><circle cx="339.5" cy="190.7" r="3" fill="#3fb950"/><circle cx="343.0" cy="190.7" r="3" fill="#3fb950"/><circle cx="346.5" cy="190.7" r="3" fill="#3fb950"/><circle cx="350.0" cy="190.7" r="3" fill="#3fb950"/><circle cx="353.5" cy="190.7" r="3" fill="#3fb950"/><circle cx="357.0" cy="190.7" r="3" fill="#3fb950"/><circle cx="360.5" cy="190.9" r="3" fill="#3fb950"/><circle cx="364.0" cy="190.9" r="3" fill="#3fb950"/><circle cx="367.4" cy="190.9" r="3" fill="#3fb950"/><circle cx="370.9" cy="194.2" r="3" fill="#3fb950"/><circle cx="374.4" cy="196.8" r="3" fill="#3fb950"/><circle cx="377.9" cy="198.0" r="3" fill="#3fb950"/><circle cx="381.4" cy="198.0" r="3" fill="#3fb950"/><circle cx="384.9" cy="198.0" r="3" fill="#3fb950"/><circle cx="388.4" cy="198.0" r="3" fill="#3fb950"/><circle cx="391.9" cy="198.0" r="3" fill="#3fb950"/><circle cx="395.4" cy="198.0" r="3" fill="#3fb950"/><circle cx="398.8" cy="198.0" r="3" fill="#3fb950"/><circle cx="402.3" cy="198.0" r="3" fill="#3fb950"/><circle cx="405.8" cy="198.0" r="3" fill="#3fb950"/><circle cx="409.3" cy="198.0" r="3" fill="#3fb950"/><circle cx="412.8" cy="198.0" r="3" fill="#3fb950"/><circle cx="416.3" cy="198.0" r="3" fill="#3fb950"/><circle cx="419.8" cy="198.0" r="3" fill="#3fb950"/><circle cx="423.3" cy="198.0" r="3" fill="#3fb950"/><circle cx="426.8" cy="198.0" r="3" fill="#3fb950"/><circle cx="430.2" cy="198.0" r="3" fill="#3fb950"/><circle cx="433.7" cy="198.0" r="3" fill="#3fb950"/><circle cx="437.2" cy="198.0" r="3" fill="#3fb950"/><circle cx="440.7" cy="198.0" r="3" fill="#3fb950"/><circle cx="444.2" cy="198.0" r="3" fill="#3fb950"/><circle cx="447.7" cy="198.0" r="3" fill="#3fb950"/><circle cx="451.2" cy="198.0" r="3" fill="#3fb950"/><circle cx="454.7" cy="198.0" r="3" fill="#3fb950"/><circle cx="458.2" cy="198.0" r="3" fill="#3fb950"/><circle cx="461.6" cy="198.0" r="3" fill="#3fb950"/><circle cx="465.1" cy="198.0" r="3" fill="#3fb950"/><circle cx="468.6" cy="198.0" r="3" fill="#3fb950"/><circle cx="472.1" cy="198.0" r="3" fill="#3fb950"/><circle cx="475.6" cy="198.0" r="3" fill="#3fb950"/><circle cx="479.1" cy="198.0" r="3" fill="#3fb950"/><circle cx="482.6" cy="198.0" r="3" fill="#3fb950"/><circle cx="486.1" cy="198.0" r="3" fill="#3fb950"/><circle cx="489.6" cy="198.0" r="3" fill="#3fb950"/><circle cx="493.0" cy="198.0" r="3" fill="#3fb950"/><circle cx="496.5" cy="198.0" r="3" fill="#3fb950"/><circle cx="500.0" cy="198.0" r="3" fill="#3fb950"/><circle cx="503.5" cy="198.0" r="3" fill="#3fb950"/><circle cx="507.0" cy="198.0" r="3" fill="#3fb950"/><circle cx="510.5" cy="198.0" r="3" fill="#3fb950"/><circle cx="514.0" cy="198.0" r="3" fill="#3fb950"/><circle cx="517.5" cy="198.0" r="3" fill="#3fb950"/><circle cx="521.0" cy="198.0" r="3" fill="#3fb950"/><circle cx="524.4" cy="198.0" r="3" fill="#3fb950"/><circle cx="527.9" cy="198.0" r="3" fill="#3fb950"/><circle cx="531.4" cy="198.0" r="3" fill="#3fb950"/><circle cx="534.9" cy="198.0" r="3" fill="#3fb950"/><circle cx="538.4" cy="198.0" r="3" fill="#3fb950"/><circle cx="541.9" cy="198.0" r="3" fill="#3fb950"/><circle cx="545.4" cy="198.0" r="3" fill="#3fb950"/><circle cx="548.9" cy="198.0" r="3" fill="#3fb950"/><circle cx="552.4" cy="198.0" r="3" fill="#3fb950"/><circle cx="555.8" cy="198.0" r="3" fill="#3fb950"/><circle cx="559.3" cy="198.0" r="3" fill="#3fb950"/><circle cx="562.8" cy="198.0" r="3" fill="#3fb950"/><circle cx="566.3" cy="198.0" r="3" fill="#3fb950"/><circle cx="569.8" cy="198.0" r="3" fill="#3fb950"/><circle cx="573.3" cy="198.0" r="3" fill="#3fb950"/><circle cx="576.8" cy="198.0" r="3" fill="#3fb950"/><circle cx="580.3" cy="198.0" r="3" fill="#3fb950"/><circle cx="583.8" cy="198.0" r="3" fill="#3fb950"/><circle cx="587.2" cy="198.0" r="3" fill="#3fb950"/><circle cx="590.7" cy="198.0" r="3" fill="#3fb950"/><circle cx="594.2" cy="198.0" r="3" fill="#3fb950"/><circle cx="597.7" cy="198.0" r="3" fill="#3fb950"/><circle cx="601.2" cy="198.0" r="3" fill="#3fb950"/><circle cx="604.7" cy="198.0" r="3" fill="#3fb950"/><circle cx="608.2" cy="198.0" r="3" fill="#3fb950"/><circle cx="611.7" cy="198.0" r="3" fill="#3fb950"/><circle cx="615.2" cy="198.0" r="3" fill="#3fb950"/><circle cx="618.6" cy="198.0" r="3" fill="#3fb950"/><circle cx="622.1" cy="198.0" r="3" fill="#3fb950"/><circle cx="625.6" cy="198.0" r="3" fill="#3fb950"/><circle cx="629.1" cy="198.0" r="3" fill="#3fb950"/><circle cx="632.6" cy="198.0" r="3" fill="#3fb950"/><circle cx="636.1" cy="198.0" r="3" fill="#3fb950"/><circle cx="639.6" cy="198.0" r="3" fill="#3fb950"/><circle cx="643.1" cy="198.0" r="3" fill="#3fb950"/><circle cx="646.6" cy="198.0" r="3" fill="#3fb950"/><circle cx="650.0" cy="198.0" r="3" fill="#3fb950"/><circle cx="653.5" cy="198.0" r="3" fill="#3fb950"/><circle cx="657.0" cy="198.0" r="3" fill="#3fb950"/><circle cx="660.5" cy="198.0" r="3" fill="#3fb950"/><circle cx="664.0" cy="198.0" r="3" fill="#3fb950"/>
<polyline fill="none" stroke="#4aa3ff" stroke-width="2.5" stroke-linejoin="round" points="36.0,144.3 39.5,144.3 43.0,144.3 46.5,144.3 50.0,144.3 53.4,144.3 56.9,144.3 60.4,144.3 63.9,144.3 67.4,144.3 70.9,144.3 74.4,144.3 77.9,144.3 81.4,144.3 84.8,144.3 88.3,136.2 91.8,132.4 95.3,129.6 98.8,129.6 102.3,121.0 105.8,121.0 109.3,121.0 112.8,114.4 116.2,114.4 119.7,114.4 123.2,111.3 126.7,110.9 130.2,110.9 133.7,110.5 137.2,110.5 140.7,109.9 144.2,108.7 147.6,107.3 151.1,106.9 154.6,106.9 158.1,106.9 161.6,106.9 165.1,106.9 168.6,106.9 172.1,106.9 175.6,106.9 179.0,106.9 182.5,106.9 186.0,113.2 189.5,113.2 193.0,113.2 196.5,113.2 200.0,113.2 203.5,110.7 207.0,105.3 210.4,83.4 213.9,83.4 217.4,85.6 220.9,85.6 224.4,85.6 227.9,85.6 231.4,85.6 234.9,85.8 238.4,85.8 241.8,85.8 245.3,86.0 248.8,86.0 252.3,86.0 255.8,86.0 259.3,86.0 262.8,86.0 266.3,86.0 269.8,86.0 273.2,86.0 276.7,86.0 280.2,86.0 283.7,86.0 287.2,86.0 290.7,86.0 294.2,86.0 297.7,86.0 301.2,86.0 304.6,86.0 308.1,86.0 311.6,86.0 315.1,86.0 318.6,87.0 322.1,87.0 325.6,87.0 329.1,73.7 332.6,73.7 336.0,71.0 339.5,71.0 343.0,70.8 346.5,70.6 350.0,70.6 353.5,70.4 357.0,68.6 360.5,60.5 364.0,59.3 367.4,52.0 370.9,47.3 374.4,40.1 377.9,36.0 381.4,36.0 384.9,36.0 388.4,36.0 391.9,36.0 395.4,36.0 398.8,36.0 402.3,36.0 405.8,36.0 409.3,36.0 412.8,36.0 416.3,36.0 419.8,36.0 423.3,36.0 426.8,36.0 430.2,36.0 433.7,36.0 437.2,36.0 440.7,36.0 444.2,36.0 447.7,36.0 451.2,36.0 454.7,36.0 458.2,36.0 461.6,36.0 465.1,36.0 468.6,36.0 472.1,36.0 475.6,36.0 479.1,36.0 482.6,36.0 486.1,36.0 489.6,36.0 493.0,36.0 496.5,36.0 500.0,36.0 503.5,36.0 507.0,36.0 510.5,36.0 514.0,36.0 517.5,36.0 521.0,36.0 524.4,36.0 527.9,36.0 531.4,36.0 534.9,36.0 538.4,36.0 541.9,36.0 545.4,36.0 548.9,36.0 552.4,36.0 555.8,36.0 559.3,36.0 562.8,36.0 566.3,36.0 569.8,36.0 573.3,36.0 576.8,36.0 580.3,36.0 583.8,36.0 587.2,36.0 590.7,36.0 594.2,36.0 597.7,36.0 601.2,36.0 604.7,36.0 608.2,36.0 611.7,36.0 615.2,36.0 618.6,36.0 622.1,36.0 625.6,36.0 629.1,36.0 632.6,36.0 636.1,36.0 639.6,36.0 643.1,36.0 646.6,36.0 650.0,36.0 653.5,36.0 657.0,36.0 660.5,36.0 664.0,36.0"/><circle cx="36.0" cy="144.3" r="3" fill="#4aa3ff"/><circle cx="39.5" cy="144.3" r="3" fill="#4aa3ff"/><circle cx="43.0" cy="144.3" r="3" fill="#4aa3ff"/><circle cx="46.5" cy="144.3" r="3" fill="#4aa3ff"/><circle cx="50.0" cy="144.3" r="3" fill="#4aa3ff"/><circle cx="53.4" cy="144.3" r="3" fill="#4aa3ff"/><circle cx="56.9" cy="144.3" r="3" fill="#4aa3ff"/><circle cx="60.4" cy="144.3" r="3" fill="#4aa3ff"/><circle cx="63.9" cy="144.3" r="3" fill="#4aa3ff"/><circle cx="67.4" cy="144.3" r="3" fill="#4aa3ff"/><circle cx="70.9" cy="144.3" r="3" fill="#4aa3ff"/><circle cx="74.4" cy="144.3" r="3" fill="#4aa3ff"/><circle cx="77.9" cy="144.3" r="3" fill="#4aa3ff"/><circle cx="81.4" cy="144.3" r="3" fill="#4aa3ff"/><circle cx="84.8" cy="144.3" r="3" fill="#4aa3ff"/><circle cx="88.3" cy="136.2" r="3" fill="#4aa3ff"/><circle cx="91.8" cy="132.4" r="3" fill="#4aa3ff"/><circle cx="95.3" cy="129.6" r="3" fill="#4aa3ff"/><circle cx="98.8" cy="129.6" r="3" fill="#4aa3ff"/><circle cx="102.3" cy="121.0" r="3" fill="#4aa3ff"/><circle cx="105.8" cy="121.0" r="3" fill="#4aa3ff"/><circle cx="109.3" cy="121.0" r="3" fill="#4aa3ff"/><circle cx="112.8" cy="114.4" r="3" fill="#4aa3ff"/><circle cx="116.2" cy="114.4" r="3" fill="#4aa3ff"/><circle cx="119.7" cy="114.4" r="3" fill="#4aa3ff"/><circle cx="123.2" cy="111.3" r="3" fill="#4aa3ff"/><circle cx="126.7" cy="110.9" r="3" fill="#4aa3ff"/><circle cx="130.2" cy="110.9" r="3" fill="#4aa3ff"/><circle cx="133.7" cy="110.5" r="3" fill="#4aa3ff"/><circle cx="137.2" cy="110.5" r="3" fill="#4aa3ff"/><circle cx="140.7" cy="109.9" r="3" fill="#4aa3ff"/><circle cx="144.2" cy="108.7" r="3" fill="#4aa3ff"/><circle cx="147.6" cy="107.3" r="3" fill="#4aa3ff"/><circle cx="151.1" cy="106.9" r="3" fill="#4aa3ff"/><circle cx="154.6" cy="106.9" r="3" fill="#4aa3ff"/><circle cx="158.1" cy="106.9" r="3" fill="#4aa3ff"/><circle cx="161.6" cy="106.9" r="3" fill="#4aa3ff"/><circle cx="165.1" cy="106.9" r="3" fill="#4aa3ff"/><circle cx="168.6" cy="106.9" r="3" fill="#4aa3ff"/><circle cx="172.1" cy="106.9" r="3" fill="#4aa3ff"/><circle cx="175.6" cy="106.9" r="3" fill="#4aa3ff"/><circle cx="179.0" cy="106.9" r="3" fill="#4aa3ff"/><circle cx="182.5" cy="106.9" r="3" fill="#4aa3ff"/><circle cx="186.0" cy="113.2" r="3" fill="#4aa3ff"/><circle cx="189.5" cy="113.2" r="3" fill="#4aa3ff"/><circle cx="193.0" cy="113.2" r="3" fill="#4aa3ff"/><circle cx="196.5" cy="113.2" r="3" fill="#4aa3ff"/><circle cx="200.0" cy="113.2" r="3" fill="#4aa3ff"/><circle cx="203.5" cy="110.7" r="3" fill="#4aa3ff"/><circle cx="207.0" cy="105.3" r="3" fill="#4aa3ff"/><circle cx="210.4" cy="83.4" r="3" fill="#4aa3ff"/><circle cx="213.9" cy="83.4" r="3" fill="#4aa3ff"/><circle cx="217.4" cy="85.6" r="3" fill="#4aa3ff"/><circle cx="220.9" cy="85.6" r="3" fill="#4aa3ff"/><circle cx="224.4" cy="85.6" r="3" fill="#4aa3ff"/><circle cx="227.9" cy="85.6" r="3" fill="#4aa3ff"/><circle cx="231.4" cy="85.6" r="3" fill="#4aa3ff"/><circle cx="234.9" cy="85.8" r="3" fill="#4aa3ff"/><circle cx="238.4" cy="85.8" r="3" fill="#4aa3ff"/><circle cx="241.8" cy="85.8" r="3" fill="#4aa3ff"/><circle cx="245.3" cy="86.0" r="3" fill="#4aa3ff"/><circle cx="248.8" cy="86.0" r="3" fill="#4aa3ff"/><circle cx="252.3" cy="86.0" r="3" fill="#4aa3ff"/><circle cx="255.8" cy="86.0" r="3" fill="#4aa3ff"/><circle cx="259.3" cy="86.0" r="3" fill="#4aa3ff"/><circle cx="262.8" cy="86.0" r="3" fill="#4aa3ff"/><circle cx="266.3" cy="86.0" r="3" fill="#4aa3ff"/><circle cx="269.8" cy="86.0" r="3" fill="#4aa3ff"/><circle cx="273.2" cy="86.0" r="3" fill="#4aa3ff"/><circle cx="276.7" cy="86.0" r="3" fill="#4aa3ff"/><circle cx="280.2" cy="86.0" r="3" fill="#4aa3ff"/><circle cx="283.7" cy="86.0" r="3" fill="#4aa3ff"/><circle cx="287.2" cy="86.0" r="3" fill="#4aa3ff"/><circle cx="290.7" cy="86.0" r="3" fill="#4aa3ff"/><circle cx="294.2" cy="86.0" r="3" fill="#4aa3ff"/><circle cx="297.7" cy="86.0" r="3" fill="#4aa3ff"/><circle cx="301.2" cy="86.0" r="3" fill="#4aa3ff"/><circle cx="304.6" cy="86.0" r="3" fill="#4aa3ff"/><circle cx="308.1" cy="86.0" r="3" fill="#4aa3ff"/><circle cx="311.6" cy="86.0" r="3" fill="#4aa3ff"/><circle cx="315.1" cy="86.0" r="3" fill="#4aa3ff"/><circle cx="318.6" cy="87.0" r="3" fill="#4aa3ff"/><circle cx="322.1" cy="87.0" r="3" fill="#4aa3ff"/><circle cx="325.6" cy="87.0" r="3" fill="#4aa3ff"/><circle cx="329.1" cy="73.7" r="3" fill="#4aa3ff"/><circle cx="332.6" cy="73.7" r="3" fill="#4aa3ff"/><circle cx="336.0" cy="71.0" r="3" fill="#4aa3ff"/><circle cx="339.5" cy="71.0" r="3" fill="#4aa3ff"/><circle cx="343.0" cy="70.8" r="3" fill="#4aa3ff"/><circle cx="346.5" cy="70.6" r="3" fill="#4aa3ff"/><circle cx="350.0" cy="70.6" r="3" fill="#4aa3ff"/><circle cx="353.5" cy="70.4" r="3" fill="#4aa3ff"/><circle cx="357.0" cy="68.6" r="3" fill="#4aa3ff"/><circle cx="360.5" cy="60.5" r="3" fill="#4aa3ff"/><circle cx="364.0" cy="59.3" r="3" fill="#4aa3ff"/><circle cx="367.4" cy="52.0" r="3" fill="#4aa3ff"/><circle cx="370.9" cy="47.3" r="3" fill="#4aa3ff"/><circle cx="374.4" cy="40.1" r="3" fill="#4aa3ff"/><circle cx="377.9" cy="36.0" r="3" fill="#4aa3ff"/><circle cx="381.4" cy="36.0" r="3" fill="#4aa3ff"/><circle cx="384.9" cy="36.0" r="3" fill="#4aa3ff"/><circle cx="388.4" cy="36.0" r="3" fill="#4aa3ff"/><circle cx="391.9" cy="36.0" r="3" fill="#4aa3ff"/><circle cx="395.4" cy="36.0" r="3" fill="#4aa3ff"/><circle cx="398.8" cy="36.0" r="3" fill="#4aa3ff"/><circle cx="402.3" cy="36.0" r="3" fill="#4aa3ff"/><circle cx="405.8" cy="36.0" r="3" fill="#4aa3ff"/><circle cx="409.3" cy="36.0" r="3" fill="#4aa3ff"/><circle cx="412.8" cy="36.0" r="3" fill="#4aa3ff"/><circle cx="416.3" cy="36.0" r="3" fill="#4aa3ff"/><circle cx="419.8" cy="36.0" r="3" fill="#4aa3ff"/><circle cx="423.3" cy="36.0" r="3" fill="#4aa3ff"/><circle cx="426.8" cy="36.0" r="3" fill="#4aa3ff"/><circle cx="430.2" cy="36.0" r="3" fill="#4aa3ff"/><circle cx="433.7" cy="36.0" r="3" fill="#4aa3ff"/><circle cx="437.2" cy="36.0" r="3" fill="#4aa3ff"/><circle cx="440.7" cy="36.0" r="3" fill="#4aa3ff"/><circle cx="444.2" cy="36.0" r="3" fill="#4aa3ff"/><circle cx="447.7" cy="36.0" r="3" fill="#4aa3ff"/><circle cx="451.2" cy="36.0" r="3" fill="#4aa3ff"/><circle cx="454.7" cy="36.0" r="3" fill="#4aa3ff"/><circle cx="458.2" cy="36.0" r="3" fill="#4aa3ff"/><circle cx="461.6" cy="36.0" r="3" fill="#4aa3ff"/><circle cx="465.1" cy="36.0" r="3" fill="#4aa3ff"/><circle cx="468.6" cy="36.0" r="3" fill="#4aa3ff"/><circle cx="472.1" cy="36.0" r="3" fill="#4aa3ff"/><circle cx="475.6" cy="36.0" r="3" fill="#4aa3ff"/><circle cx="479.1" cy="36.0" r="3" fill="#4aa3ff"/><circle cx="482.6" cy="36.0" r="3" fill="#4aa3ff"/><circle cx="486.1" cy="36.0" r="3" fill="#4aa3ff"/><circle cx="489.6" cy="36.0" r="3" fill="#4aa3ff"/><circle cx="493.0" cy="36.0" r="3" fill="#4aa3ff"/><circle cx="496.5" cy="36.0" r="3" fill="#4aa3ff"/><circle cx="500.0" cy="36.0" r="3" fill="#4aa3ff"/><circle cx="503.5" cy="36.0" r="3" fill="#4aa3ff"/><circle cx="507.0" cy="36.0" r="3" fill="#4aa3ff"/><circle cx="510.5" cy="36.0" r="3" fill="#4aa3ff"/><circle cx="514.0" cy="36.0" r="3" fill="#4aa3ff"/><circle cx="517.5" cy="36.0" r="3" fill="#4aa3ff"/><circle cx="521.0" cy="36.0" r="3" fill="#4aa3ff"/><circle cx="524.4" cy="36.0" r="3" fill="#4aa3ff"/><circle cx="527.9" cy="36.0" r="3" fill="#4aa3ff"/><circle cx="531.4" cy="36.0" r="3" fill="#4aa3ff"/><circle cx="534.9" cy="36.0" r="3" fill="#4aa3ff"/><circle cx="538.4" cy="36.0" r="3" fill="#4aa3ff"/><circle cx="541.9" cy="36.0" r="3" fill="#4aa3ff"/><circle cx="545.4" cy="36.0" r="3" fill="#4aa3ff"/><circle cx="548.9" cy="36.0" r="3" fill="#4aa3ff"/><circle cx="552.4" cy="36.0" r="3" fill="#4aa3ff"/><circle cx="555.8" cy="36.0" r="3" fill="#4aa3ff"/><circle cx="559.3" cy="36.0" r="3" fill="#4aa3ff"/><circle cx="562.8" cy="36.0" r="3" fill="#4aa3ff"/><circle cx="566.3" cy="36.0" r="3" fill="#4aa3ff"/><circle cx="569.8" cy="36.0" r="3" fill="#4aa3ff"/><circle cx="573.3" cy="36.0" r="3" fill="#4aa3ff"/><circle cx="576.8" cy="36.0" r="3" fill="#4aa3ff"/><circle cx="580.3" cy="36.0" r="3" fill="#4aa3ff"/><circle cx="583.8" cy="36.0" r="3" fill="#4aa3ff"/><circle cx="587.2" cy="36.0" r="3" fill="#4aa3ff"/><circle cx="590.7" cy="36.0" r="3" fill="#4aa3ff"/><circle cx="594.2" cy="36.0" r="3" fill="#4aa3ff"/><circle cx="597.7" cy="36.0" r="3" fill="#4aa3ff"/><circle cx="601.2" cy="36.0" r="3" fill="#4aa3ff"/><circle cx="604.7" cy="36.0" r="3" fill="#4aa3ff"/><circle cx="608.2" cy="36.0" r="3" fill="#4aa3ff"/><circle cx="611.7" cy="36.0" r="3" fill="#4aa3ff"/><circle cx="615.2" cy="36.0" r="3" fill="#4aa3ff"/><circle cx="618.6" cy="36.0" r="3" fill="#4aa3ff"/><circle cx="622.1" cy="36.0" r="3" fill="#4aa3ff"/><circle cx="625.6" cy="36.0" r="3" fill="#4aa3ff"/><circle cx="629.1" cy="36.0" r="3" fill="#4aa3ff"/><circle cx="632.6" cy="36.0" r="3" fill="#4aa3ff"/><circle cx="636.1" cy="36.0" r="3" fill="#4aa3ff"/><circle cx="639.6" cy="36.0" r="3" fill="#4aa3ff"/><circle cx="643.1" cy="36.0" r="3" fill="#4aa3ff"/><circle cx="646.6" cy="36.0" r="3" fill="#4aa3ff"/><circle cx="650.0" cy="36.0" r="3" fill="#4aa3ff"/><circle cx="653.5" cy="36.0" r="3" fill="#4aa3ff"/><circle cx="657.0" cy="36.0" r="3" fill="#4aa3ff"/><circle cx="660.5" cy="36.0" r="3" fill="#4aa3ff"/><circle cx="664.0" cy="36.0" r="3" fill="#4aa3ff"/>
<text x="36" y="225" fill="#6b7280" font-size="11">2026-06-26</text>
<text x="664" y="225" fill="#6b7280" font-size="11" text-anchor="end">2026-07-15</text>
<text x="36" y="212" font-family="system-ui,sans-serif" font-size="11">
<tspan fill="#4aa3ff">&#9679; open FPs</tspan>  <tspan fill="#3fb950">&#9679; closed (Anthropic acting)</tspan>  <tspan fill="#8a5a5a">&#9679; harness withdrawn</tspan></text>
<text x="664" y="22" text-anchor="end" font-family="system-ui,sans-serif" font-size="12">
<tspan fill="#4aa3ff">open 800</tspan>  <tspan fill="#3fb950">closed 0</tspan>  <tspan fill="#8a5a5a">harness 0</tspan></text>
</svg>