<svg xmlns="http://www.w3.org/2000/svg" width="700" height="234" viewBox="0 0 700 234" role="img">
<rect width="700" height="234" rx="12" fill="#16181d"/>
<text x="36" y="22" fill="#e8eaed" font-family="system-ui,sans-serif" font-size="14" font-weight="700">Is Anthropic acting? cyber/aup false positives over time</text>
<line x1="36" y1="198.0" x2="664" y2="198.0" stroke="#2a2e37" stroke-width="1"/><text x="30" y="202.0" fill="#6b7280" font-size="11" text-anchor="end">0</text><line x1="36" y1="117.0" x2="664" y2="117.0" stroke="#2a2e37" stroke-width="1"/><text x="30" y="121.0" fill="#6b7280" font-size="11" text-anchor="end">283</text><line x1="36" y1="36.0" x2="664" y2="36.0" stroke="#2a2e37" stroke-width="1"/><text x="30" y="40.0" fill="#6b7280" font-size="11" text-anchor="end">566</text>

<polyline fill="none" stroke="#8a5a5a" stroke-width="2.5" stroke-linejoin="round" points="36.0,123.3 48.1,123.3 60.2,123.3 72.2,123.3 84.3,123.3 96.4,123.3 108.5,123.3 120.5,123.3 132.6,123.3 144.7,123.3 156.8,123.3 168.8,123.3 180.9,123.3 193.0,123.3 205.1,123.3 217.2,123.3 229.2,123.3 241.3,123.3 253.4,123.3 265.5,123.3 277.5,123.3 289.6,123.3 301.7,123.3 313.8,123.3 325.8,123.3 337.9,123.3 350.0,123.3 362.1,123.3 374.2,123.3 386.2,123.3 398.3,123.3 410.4,123.3 422.5,123.3 434.5,123.3 446.6,123.3 458.7,123.3 470.8,123.3 482.8,123.3 494.9,123.3 507.0,123.3 519.1,123.3 531.2,123.3 543.2,123.3 555.3,123.3 567.4,123.3 579.5,123.3 591.5,123.3 603.6,123.3 615.7,123.3 627.8,123.3 639.8,138.2 651.9,138.2 664.0,138.2"/><circle cx="36.0" cy="123.3" r="3" fill="#8a5a5a"/><circle cx="48.1" cy="123.3" r="3" fill="#8a5a5a"/><circle cx="60.2" cy="123.3" r="3" fill="#8a5a5a"/><circle cx="72.2" cy="123.3" r="3" fill="#8a5a5a"/><circle cx="84.3" cy="123.3" r="3" fill="#8a5a5a"/><circle cx="96.4" cy="123.3" r="3" fill="#8a5a5a"/><circle cx="108.5" cy="123.3" r="3" fill="#8a5a5a"/><circle cx="120.5" cy="123.3" r="3" fill="#8a5a5a"/><circle cx="132.6" cy="123.3" r="3" fill="#8a5a5a"/><circle cx="144.7" cy="123.3" r="3" fill="#8a5a5a"/><circle cx="156.8" cy="123.3" r="3" fill="#8a5a5a"/><circle cx="168.8" cy="123.3" r="3" fill="#8a5a5a"/><circle cx="180.9" cy="123.3" r="3" fill="#8a5a5a"/><circle cx="193.0" cy="123.3" r="3" fill="#8a5a5a"/><circle cx="205.1" cy="123.3" r="3" fill="#8a5a5a"/><circle cx="217.2" cy="123.3" r="3" fill="#8a5a5a"/><circle cx="229.2" cy="123.3" r="3" fill="#8a5a5a"/><circle cx="241.3" cy="123.3" r="3" fill="#8a5a5a"/><circle cx="253.4" cy="123.3" r="3" fill="#8a5a5a"/><circle cx="265.5" cy="123.3" r="3" fill="#8a5a5a"/><circle cx="277.5" cy="123.3" r="3" fill="#8a5a5a"/><circle cx="289.6" cy="123.3" r="3" fill="#8a5a5a"/><circle cx="301.7" cy="123.3" r="3" fill="#8a5a5a"/><circle cx="313.8" cy="123.3" r="3" fill="#8a5a5a"/><circle cx="325.8" cy="123.3" r="3" fill="#8a5a5a"/><circle cx="337.9" cy="123.3" r="3" fill="#8a5a5a"/><circle cx="350.0" cy="123.3" r="3" fill="#8a5a5a"/><circle cx="362.1" cy="123.3" r="3" fill="#8a5a5a"/><circle cx="374.2" cy="123.3" r="3" fill="#8a5a5a"/><circle cx="386.2" cy="123.3" r="3" fill="#8a5a5a"/><circle cx="398.3" cy="123.3" r="3" fill="#8a5a5a"/><circle cx="410.4" cy="123.3" r="3" fill="#8a5a5a"/><circle cx="422.5" cy="123.3" r="3" fill="#8a5a5a"/><circle cx="434.5" cy="123.3" r="3" fill="#8a5a5a"/><circle cx="446.6" cy="123.3" r="3" fill="#8a5a5a"/><circle cx="458.7" cy="123.3" r="3" fill="#8a5a5a"/><circle cx="470.8" cy="123.3" r="3" fill="#8a5a5a"/><circle cx="482.8" cy="123.3" r="3" fill="#8a5a5a"/><circle cx="494.9" cy="123.3" r="3" fill="#8a5a5a"/><circle cx="507.0" cy="123.3" r="3" fill="#8a5a5a"/><circle cx="519.1" cy="123.3" r="3" fill="#8a5a5a"/><circle cx="531.2" cy="123.3" r="3" fill="#8a5a5a"/><circle cx="543.2" cy="123.3" r="3" fill="#8a5a5a"/><circle cx="555.3" cy="123.3" r="3" fill="#8a5a5a"/><circle cx="567.4" cy="123.3" r="3" fill="#8a5a5a"/><circle cx="579.5" cy="123.3" r="3" fill="#8a5a5a"/><circle cx="591.5" cy="123.3" r="3" fill="#8a5a5a"/><circle cx="603.6" cy="123.3" r="3" fill="#8a5a5a"/><circle cx="615.7" cy="123.3" r="3" fill="#8a5a5a"/><circle cx="627.8" cy="123.3" r="3" fill="#8a5a5a"/><circle cx="639.8" cy="138.2" r="3" fill="#8a5a5a"/><circle cx="651.9" cy="138.2" r="3" fill="#8a5a5a"/><circle cx="664.0" cy="138.2" r="3" fill="#8a5a5a"/>
<polyline fill="none" stroke="#3fb950" stroke-width="2.5" stroke-linejoin="round" points="36.0,198.0 48.1,198.0 60.2,198.0 72.2,198.0 84.3,198.0 96.4,198.0 108.5,198.0 120.5,198.0 132.6,198.0 144.7,198.0 156.8,198.0 168.8,198.0 180.9,198.0 193.0,198.0 205.1,198.0 217.2,198.0 229.2,198.0 241.3,198.0 253.4,198.0 265.5,198.0 277.5,198.0 289.6,198.0 301.7,198.0 313.8,198.0 325.8,198.0 337.9,198.0 350.0,198.0 362.1,198.0 374.2,198.0 386.2,198.0 398.3,198.0 410.4,198.0 422.5,198.0 434.5,198.0 446.6,198.0 458.7,198.0 470.8,198.0 482.8,198.0 494.9,198.0 507.0,198.0 519.1,198.0 531.2,198.0 543.2,198.0 555.3,189.1 567.4,189.1 579.5,189.1 591.5,189.1 603.6,189.1 615.7,189.1 627.8,189.1 639.8,190.8 651.9,190.8 664.0,187.7"/><circle cx="36.0" cy="198.0" r="3" fill="#3fb950"/><circle cx="48.1" cy="198.0" r="3" fill="#3fb950"/><circle cx="60.2" cy="198.0" r="3" fill="#3fb950"/><circle cx="72.2" cy="198.0" r="3" fill="#3fb950"/><circle cx="84.3" cy="198.0" r="3" fill="#3fb950"/><circle cx="96.4" cy="198.0" r="3" fill="#3fb950"/><circle cx="108.5" cy="198.0" r="3" fill="#3fb950"/><circle cx="120.5" cy="198.0" r="3" fill="#3fb950"/><circle cx="132.6" cy="198.0" r="3" fill="#3fb950"/><circle cx="144.7" cy="198.0" r="3" fill="#3fb950"/><circle cx="156.8" cy="198.0" r="3" fill="#3fb950"/><circle cx="168.8" cy="198.0" r="3" fill="#3fb950"/><circle cx="180.9" cy="198.0" r="3" fill="#3fb950"/><circle cx="193.0" cy="198.0" r="3" fill="#3fb950"/><circle cx="205.1" cy="198.0" r="3" fill="#3fb950"/><circle cx="217.2" cy="198.0" r="3" fill="#3fb950"/><circle cx="229.2" cy="198.0" r="3" fill="#3fb950"/><circle cx="241.3" cy="198.0" r="3" fill="#3fb950"/><circle cx="253.4" cy="198.0" r="3" fill="#3fb950"/><circle cx="265.5" cy="198.0" r="3" fill="#3fb950"/><circle cx="277.5" cy="198.0" r="3" fill="#3fb950"/><circle cx="289.6" cy="198.0" r="3" fill="#3fb950"/><circle cx="301.7" cy="198.0" r="3" fill="#3fb950"/><circle cx="313.8" cy="198.0" r="3" fill="#3fb950"/><circle cx="325.8" cy="198.0" r="3" fill="#3fb950"/><circle cx="337.9" cy="198.0" r="3" fill="#3fb950"/><circle cx="350.0" cy="198.0" r="3" fill="#3fb950"/><circle cx="362.1" cy="198.0" r="3" fill="#3fb950"/><circle cx="374.2" cy="198.0" r="3" fill="#3fb950"/><circle cx="386.2" cy="198.0" r="3" fill="#3fb950"/><circle cx="398.3" cy="198.0" r="3" fill="#3fb950"/><circle cx="410.4" cy="198.0" r="3" fill="#3fb950"/><circle cx="422.5" cy="198.0" r="3" fill="#3fb950"/><circle cx="434.5" cy="198.0" r="3" fill="#3fb950"/><circle cx="446.6" cy="198.0" r="3" fill="#3fb950"/><circle cx="458.7" cy="198.0" r="3" fill="#3fb950"/><circle cx="470.8" cy="198.0" r="3" fill="#3fb950"/><circle cx="482.8" cy="198.0" r="3" fill="#3fb950"/><circle cx="494.9" cy="198.0" r="3" fill="#3fb950"/><circle cx="507.0" cy="198.0" r="3" fill="#3fb950"/><circle cx="519.1" cy="198.0" r="3" fill="#3fb950"/><circle cx="531.2" cy="198.0" r="3" fill="#3fb950"/><circle cx="543.2" cy="198.0" r="3" fill="#3fb950"/><circle cx="555.3" cy="189.1" r="3" fill="#3fb950"/><circle cx="567.4" cy="189.1" r="3" fill="#3fb950"/><circle cx="579.5" cy="189.1" r="3" fill="#3fb950"/><circle cx="591.5" cy="189.1" r="3" fill="#3fb950"/><circle cx="603.6" cy="189.1" r="3" fill="#3fb950"/><circle cx="615.7" cy="189.1" r="3" fill="#3fb950"/><circle cx="627.8" cy="189.1" r="3" fill="#3fb950"/><circle cx="639.8" cy="190.8" r="3" fill="#3fb950"/><circle cx="651.9" cy="190.8" r="3" fill="#3fb950"/><circle cx="664.0" cy="187.7" r="3" fill="#3fb950"/>
<polyline fill="none" stroke="#4aa3ff" stroke-width="2.5" stroke-linejoin="round" points="36.0,122.2 48.1,122.2 60.2,122.2 72.2,122.2 84.3,122.2 96.4,122.2 108.5,122.2 120.5,122.2 132.6,122.2 144.7,122.2 156.8,122.2 168.8,122.2 180.9,122.2 193.0,122.2 205.1,122.2 217.2,110.7 229.2,105.3 241.3,101.3 253.4,101.3 265.5,89.2 277.5,89.2 289.6,89.2 301.7,79.8 313.8,79.8 325.8,79.8 337.9,75.5 350.0,74.9 362.1,74.9 374.2,74.4 386.2,74.4 398.3,73.5 410.4,71.8 422.5,69.8 434.5,69.2 446.6,69.2 458.7,69.2 470.8,69.2 482.8,69.2 494.9,69.2 507.0,69.2 519.1,69.2 531.2,69.2 543.2,69.2 555.3,78.1 567.4,78.1 579.5,78.1 591.5,78.1 603.6,78.1 615.7,74.6 627.8,66.9 639.8,36.0 651.9,36.0 664.0,39.1"/><circle cx="36.0" cy="122.2" r="3" fill="#4aa3ff"/><circle cx="48.1" cy="122.2" r="3" fill="#4aa3ff"/><circle cx="60.2" cy="122.2" r="3" fill="#4aa3ff"/><circle cx="72.2" cy="122.2" r="3" fill="#4aa3ff"/><circle cx="84.3" cy="122.2" r="3" fill="#4aa3ff"/><circle cx="96.4" cy="122.2" r="3" fill="#4aa3ff"/><circle cx="108.5" cy="122.2" r="3" fill="#4aa3ff"/><circle cx="120.5" cy="122.2" r="3" fill="#4aa3ff"/><circle cx="132.6" cy="122.2" r="3" fill="#4aa3ff"/><circle cx="144.7" cy="122.2" r="3" fill="#4aa3ff"/><circle cx="156.8" cy="122.2" r="3" fill="#4aa3ff"/><circle cx="168.8" cy="122.2" r="3" fill="#4aa3ff"/><circle cx="180.9" cy="122.2" r="3" fill="#4aa3ff"/><circle cx="193.0" cy="122.2" r="3" fill="#4aa3ff"/><circle cx="205.1" cy="122.2" r="3" fill="#4aa3ff"/><circle cx="217.2" cy="110.7" r="3" fill="#4aa3ff"/><circle cx="229.2" cy="105.3" r="3" fill="#4aa3ff"/><circle cx="241.3" cy="101.3" r="3" fill="#4aa3ff"/><circle cx="253.4" cy="101.3" r="3" fill="#4aa3ff"/><circle cx="265.5" cy="89.2" r="3" fill="#4aa3ff"/><circle cx="277.5" cy="89.2" r="3" fill="#4aa3ff"/><circle cx="289.6" cy="89.2" r="3" fill="#4aa3ff"/><circle cx="301.7" cy="79.8" r="3" fill="#4aa3ff"/><circle cx="313.8" cy="79.8" r="3" fill="#4aa3ff"/><circle cx="325.8" cy="79.8" r="3" fill="#4aa3ff"/><circle cx="337.9" cy="75.5" r="3" fill="#4aa3ff"/><circle cx="350.0" cy="74.9" r="3" fill="#4aa3ff"/><circle cx="362.1" cy="74.9" r="3" fill="#4aa3ff"/><circle cx="374.2" cy="74.4" r="3" fill="#4aa3ff"/><circle cx="386.2" cy="74.4" r="3" fill="#4aa3ff"/><circle cx="398.3" cy="73.5" r="3" fill="#4aa3ff"/><circle cx="410.4" cy="71.8" r="3" fill="#4aa3ff"/><circle cx="422.5" cy="69.8" r="3" fill="#4aa3ff"/><circle cx="434.5" cy="69.2" r="3" fill="#4aa3ff"/><circle cx="446.6" cy="69.2" r="3" fill="#4aa3ff"/><circle cx="458.7" cy="69.2" r="3" fill="#4aa3ff"/><circle cx="470.8" cy="69.2" r="3" fill="#4aa3ff"/><circle cx="482.8" cy="69.2" r="3" fill="#4aa3ff"/><circle cx="494.9" cy="69.2" r="3" fill="#4aa3ff"/><circle cx="507.0" cy="69.2" r="3" fill="#4aa3ff"/><circle cx="519.1" cy="69.2" r="3" fill="#4aa3ff"/><circle cx="531.2" cy="69.2" r="3" fill="#4aa3ff"/><circle cx="543.2" cy="69.2" r="3" fill="#4aa3ff"/><circle cx="555.3" cy="78.1" r="3" fill="#4aa3ff"/><circle cx="567.4" cy="78.1" r="3" fill="#4aa3ff"/><circle cx="579.5" cy="78.1" r="3" fill="#4aa3ff"/><circle cx="591.5" cy="78.1" r="3" fill="#4aa3ff"/><circle cx="603.6" cy="78.1" r="3" fill="#4aa3ff"/><circle cx="615.7" cy="74.6" r="3" fill="#4aa3ff"/><circle cx="627.8" cy="66.9" r="3" fill="#4aa3ff"/><circle cx="639.8" cy="36.0" r="3" fill="#4aa3ff"/><circle cx="651.9" cy="36.0" r="3" fill="#4aa3ff"/><circle cx="664.0" cy="39.1" r="3" fill="#4aa3ff"/>
<text x="36" y="225" fill="#6b7280" font-size="11">2026-06-26</text>
<text x="664" y="225" fill="#6b7280" font-size="11" text-anchor="end">2026-07-02</text>
<text x="36" y="212" font-family="system-ui,sans-serif" font-size="11">
<tspan fill="#4aa3ff">&#9679; open FPs</tspan>  <tspan fill="#3fb950">&#9679; closed (Anthropic acting)</tspan>  <tspan fill="#8a5a5a">&#9679; harness withdrawn</tspan></text>
<text x="664" y="22" text-anchor="end" font-family="system-ui,sans-serif" font-size="12">
<tspan fill="#4aa3ff">open 555</tspan>  <tspan fill="#3fb950">closed 36</tspan>  <tspan fill="#8a5a5a">harness 209</tspan></text>
</svg>