<svg xmlns="http://www.w3.org/2000/svg" width="700" height="234" viewBox="0 0 700 234" role="img">
<rect width="700" height="234" rx="12" fill="#16181d"/>
<text x="36" y="22" fill="#e8eaed" font-family="system-ui,sans-serif" font-size="14" font-weight="700">Is Anthropic acting? cyber/aup false positives over time</text>
<line x1="36" y1="198.0" x2="664" y2="198.0" stroke="#2a2e37" stroke-width="1"/><text x="30" y="202.0" fill="#6b7280" font-size="11" text-anchor="end">0</text><line x1="36" y1="117.0" x2="664" y2="117.0" stroke="#2a2e37" stroke-width="1"/><text x="30" y="121.0" fill="#6b7280" font-size="11" text-anchor="end">400</text><line x1="36" y1="36.0" x2="664" y2="36.0" stroke="#2a2e37" stroke-width="1"/><text x="30" y="40.0" fill="#6b7280" font-size="11" text-anchor="end">800</text>

<polyline fill="none" stroke="#8a5a5a" stroke-width="2.5" stroke-linejoin="round" points="36.0,145.1 39.7,145.1 43.4,145.1 47.1,145.1 50.9,145.1 54.6,145.1 58.3,145.1 62.0,145.1 65.7,145.1 69.4,145.1 73.2,145.1 76.9,145.1 80.6,145.1 84.3,145.1 88.0,145.1 91.7,145.1 95.5,145.1 99.2,145.1 102.9,145.1 106.6,145.1 110.3,145.1 114.0,145.1 117.8,145.1 121.5,145.1 125.2,145.1 128.9,145.1 132.6,145.1 136.3,145.1 140.0,145.1 143.8,145.1 147.5,145.1 151.2,145.1 154.9,145.1 158.6,145.1 162.3,145.1 166.1,145.1 169.8,145.1 173.5,145.1 177.2,145.1 180.9,145.1 184.6,145.1 188.4,145.1 192.1,145.1 195.8,145.1 199.5,145.1 203.2,145.1 206.9,145.1 210.7,145.1 214.4,145.1 218.1,145.1 221.8,155.7 225.5,155.7 229.2,155.7 232.9,155.7 236.7,155.7 240.4,155.7 244.1,155.7 247.8,155.7 251.5,155.7 255.2,155.7 259.0,155.7 262.7,155.7 266.4,155.7 270.1,155.7 273.8,155.7 277.5,155.7 281.3,155.7 285.0,155.7 288.7,155.7 292.4,155.7 296.1,155.7 299.8,155.7 303.6,155.7 307.3,155.7 311.0,155.7 314.7,155.7 318.4,155.7 322.1,155.7 325.8,155.7 329.6,155.7 333.3,155.7 337.0,155.7 340.7,155.7 344.4,155.7 348.1,167.6 351.9,167.6 355.6,170.3 359.3,170.3 363.0,170.5 366.7,170.7 370.4,170.7 374.2,170.9 377.9,172.7 381.6,180.6 385.3,181.8 389.0,189.1 392.7,190.5 396.4,195.2 400.2,198.0 403.9,198.0 407.6,198.0 411.3,198.0 415.0,198.0 418.7,198.0 422.5,198.0 426.2,198.0 429.9,198.0 433.6,198.0 437.3,198.0 441.0,198.0 444.8,198.0 448.5,198.0 452.2,198.0 455.9,198.0 459.6,198.0 463.3,198.0 467.1,198.0 470.8,198.0 474.5,198.0 478.2,198.0 481.9,198.0 485.6,198.0 489.3,198.0 493.1,198.0 496.8,198.0 500.5,198.0 504.2,198.0 507.9,198.0 511.6,198.0 515.4,198.0 519.1,198.0 522.8,198.0 526.5,198.0 530.2,198.0 533.9,198.0 537.7,198.0 541.4,198.0 545.1,198.0 548.8,198.0 552.5,198.0 556.2,198.0 560.0,198.0 563.7,198.0 567.4,198.0 571.1,198.0 574.8,198.0 578.5,198.0 582.2,198.0 586.0,198.0 589.7,198.0 593.4,198.0 597.1,198.0 600.8,198.0 604.5,198.0 608.3,198.0 612.0,198.0 615.7,198.0 619.4,198.0 623.1,198.0 626.8,198.0 630.6,198.0 634.3,198.0 638.0,198.0 641.7,198.0 645.4,198.0 649.1,198.0 652.9,198.0 656.6,198.0 660.3,198.0 664.0,198.0"/><circle cx="36.0" cy="145.1" r="3" fill="#8a5a5a"/><circle cx="39.7" cy="145.1" r="3" fill="#8a5a5a"/><circle cx="43.4" cy="145.1" r="3" fill="#8a5a5a"/><circle cx="47.1" cy="145.1" r="3" fill="#8a5a5a"/><circle cx="50.9" cy="145.1" r="3" fill="#8a5a5a"/><circle cx="54.6" cy="145.1" r="3" fill="#8a5a5a"/><circle cx="58.3" cy="145.1" r="3" fill="#8a5a5a"/><circle cx="62.0" cy="145.1" r="3" fill="#8a5a5a"/><circle cx="65.7" cy="145.1" r="3" fill="#8a5a5a"/><circle cx="69.4" cy="145.1" r="3" fill="#8a5a5a"/><circle cx="73.2" cy="145.1" r="3" fill="#8a5a5a"/><circle cx="76.9" cy="145.1" r="3" fill="#8a5a5a"/><circle cx="80.6" cy="145.1" r="3" fill="#8a5a5a"/><circle cx="84.3" cy="145.1" r="3" fill="#8a5a5a"/><circle cx="88.0" cy="145.1" r="3" fill="#8a5a5a"/><circle cx="91.7" cy="145.1" r="3" fill="#8a5a5a"/><circle cx="95.5" cy="145.1" r="3" fill="#8a5a5a"/><circle cx="99.2" cy="145.1" r="3" fill="#8a5a5a"/><circle cx="102.9" cy="145.1" r="3" fill="#8a5a5a"/><circle cx="106.6" cy="145.1" r="3" fill="#8a5a5a"/><circle cx="110.3" cy="145.1" r="3" fill="#8a5a5a"/><circle cx="114.0" cy="145.1" r="3" fill="#8a5a5a"/><circle cx="117.8" cy="145.1" r="3" fill="#8a5a5a"/><circle cx="121.5" cy="145.1" r="3" fill="#8a5a5a"/><circle cx="125.2" cy="145.1" r="3" fill="#8a5a5a"/><circle cx="128.9" cy="145.1" r="3" fill="#8a5a5a"/><circle cx="132.6" cy="145.1" r="3" fill="#8a5a5a"/><circle cx="136.3" cy="145.1" r="3" fill="#8a5a5a"/><circle cx="140.0" cy="145.1" r="3" fill="#8a5a5a"/><circle cx="143.8" cy="145.1" r="3" fill="#8a5a5a"/><circle cx="147.5" cy="145.1" r="3" fill="#8a5a5a"/><circle cx="151.2" cy="145.1" r="3" fill="#8a5a5a"/><circle cx="154.9" cy="145.1" r="3" fill="#8a5a5a"/><circle cx="158.6" cy="145.1" r="3" fill="#8a5a5a"/><circle cx="162.3" cy="145.1" r="3" fill="#8a5a5a"/><circle cx="166.1" cy="145.1" r="3" fill="#8a5a5a"/><circle cx="169.8" cy="145.1" r="3" fill="#8a5a5a"/><circle cx="173.5" cy="145.1" r="3" fill="#8a5a5a"/><circle cx="177.2" cy="145.1" r="3" fill="#8a5a5a"/><circle cx="180.9" cy="145.1" r="3" fill="#8a5a5a"/><circle cx="184.6" cy="145.1" r="3" fill="#8a5a5a"/><circle cx="188.4" cy="145.1" r="3" fill="#8a5a5a"/><circle cx="192.1" cy="145.1" r="3" fill="#8a5a5a"/><circle cx="195.8" cy="145.1" r="3" fill="#8a5a5a"/><circle cx="199.5" cy="145.1" r="3" fill="#8a5a5a"/><circle cx="203.2" cy="145.1" r="3" fill="#8a5a5a"/><circle cx="206.9" cy="145.1" r="3" fill="#8a5a5a"/><circle cx="210.7" cy="145.1" r="3" fill="#8a5a5a"/><circle cx="214.4" cy="145.1" r="3" fill="#8a5a5a"/><circle cx="218.1" cy="145.1" r="3" fill="#8a5a5a"/><circle cx="221.8" cy="155.7" r="3" fill="#8a5a5a"/><circle cx="225.5" cy="155.7" r="3" fill="#8a5a5a"/><circle cx="229.2" cy="155.7" r="3" fill="#8a5a5a"/><circle cx="232.9" cy="155.7" r="3" fill="#8a5a5a"/><circle cx="236.7" cy="155.7" r="3" fill="#8a5a5a"/><circle cx="240.4" cy="155.7" r="3" fill="#8a5a5a"/><circle cx="244.1" cy="155.7" r="3" fill="#8a5a5a"/><circle cx="247.8" cy="155.7" r="3" fill="#8a5a5a"/><circle cx="251.5" cy="155.7" r="3" fill="#8a5a5a"/><circle cx="255.2" cy="155.7" r="3" fill="#8a5a5a"/><circle cx="259.0" cy="155.7" r="3" fill="#8a5a5a"/><circle cx="262.7" cy="155.7" r="3" fill="#8a5a5a"/><circle cx="266.4" cy="155.7" r="3" fill="#8a5a5a"/><circle cx="270.1" cy="155.7" r="3" fill="#8a5a5a"/><circle cx="273.8" cy="155.7" r="3" fill="#8a5a5a"/><circle cx="277.5" cy="155.7" r="3" fill="#8a5a5a"/><circle cx="281.3" cy="155.7" r="3" fill="#8a5a5a"/><circle cx="285.0" cy="155.7" r="3" fill="#8a5a5a"/><circle cx="288.7" cy="155.7" r="3" fill="#8a5a5a"/><circle cx="292.4" cy="155.7" r="3" fill="#8a5a5a"/><circle cx="296.1" cy="155.7" r="3" fill="#8a5a5a"/><circle cx="299.8" cy="155.7" r="3" fill="#8a5a5a"/><circle cx="303.6" cy="155.7" r="3" fill="#8a5a5a"/><circle cx="307.3" cy="155.7" r="3" fill="#8a5a5a"/><circle cx="311.0" cy="155.7" r="3" fill="#8a5a5a"/><circle cx="314.7" cy="155.7" r="3" fill="#8a5a5a"/><circle cx="318.4" cy="155.7" r="3" fill="#8a5a5a"/><circle cx="322.1" cy="155.7" r="3" fill="#8a5a5a"/><circle cx="325.8" cy="155.7" r="3" fill="#8a5a5a"/><circle cx="329.6" cy="155.7" r="3" fill="#8a5a5a"/><circle cx="333.3" cy="155.7" r="3" fill="#8a5a5a"/><circle cx="337.0" cy="155.7" r="3" fill="#8a5a5a"/><circle cx="340.7" cy="155.7" r="3" fill="#8a5a5a"/><circle cx="344.4" cy="155.7" r="3" fill="#8a5a5a"/><circle cx="348.1" cy="167.6" r="3" fill="#8a5a5a"/><circle cx="351.9" cy="167.6" r="3" fill="#8a5a5a"/><circle cx="355.6" cy="170.3" r="3" fill="#8a5a5a"/><circle cx="359.3" cy="170.3" r="3" fill="#8a5a5a"/><circle cx="363.0" cy="170.5" r="3" fill="#8a5a5a"/><circle cx="366.7" cy="170.7" r="3" fill="#8a5a5a"/><circle cx="370.4" cy="170.7" r="3" fill="#8a5a5a"/><circle cx="374.2" cy="170.9" r="3" fill="#8a5a5a"/><circle cx="377.9" cy="172.7" r="3" fill="#8a5a5a"/><circle cx="381.6" cy="180.6" r="3" fill="#8a5a5a"/><circle cx="385.3" cy="181.8" r="3" fill="#8a5a5a"/><circle cx="389.0" cy="189.1" r="3" fill="#8a5a5a"/><circle cx="392.7" cy="190.5" r="3" fill="#8a5a5a"/><circle cx="396.4" cy="195.2" r="3" fill="#8a5a5a"/><circle cx="400.2" cy="198.0" r="3" fill="#8a5a5a"/><circle cx="403.9" cy="198.0" r="3" fill="#8a5a5a"/><circle cx="407.6" cy="198.0" r="3" fill="#8a5a5a"/><circle cx="411.3" cy="198.0" r="3" fill="#8a5a5a"/><circle cx="415.0" cy="198.0" r="3" fill="#8a5a5a"/><circle cx="418.7" cy="198.0" r="3" fill="#8a5a5a"/><circle cx="422.5" cy="198.0" r="3" fill="#8a5a5a"/><circle cx="426.2" cy="198.0" r="3" fill="#8a5a5a"/><circle cx="429.9" cy="198.0" r="3" fill="#8a5a5a"/><circle cx="433.6" cy="198.0" r="3" fill="#8a5a5a"/><circle cx="437.3" cy="198.0" r="3" fill="#8a5a5a"/><circle cx="441.0" cy="198.0" r="3" fill="#8a5a5a"/><circle cx="444.8" cy="198.0" r="3" fill="#8a5a5a"/><circle cx="448.5" cy="198.0" r="3" fill="#8a5a5a"/><circle cx="452.2" cy="198.0" r="3" fill="#8a5a5a"/><circle cx="455.9" cy="198.0" r="3" fill="#8a5a5a"/><circle cx="459.6" cy="198.0" r="3" fill="#8a5a5a"/><circle cx="463.3" cy="198.0" r="3" fill="#8a5a5a"/><circle cx="467.1" cy="198.0" r="3" fill="#8a5a5a"/><circle cx="470.8" cy="198.0" r="3" fill="#8a5a5a"/><circle cx="474.5" cy="198.0" r="3" fill="#8a5a5a"/><circle cx="478.2" cy="198.0" r="3" fill="#8a5a5a"/><circle cx="481.9" cy="198.0" r="3" fill="#8a5a5a"/><circle cx="485.6" cy="198.0" r="3" fill="#8a5a5a"/><circle cx="489.3" cy="198.0" r="3" fill="#8a5a5a"/><circle cx="493.1" cy="198.0" r="3" fill="#8a5a5a"/><circle cx="496.8" cy="198.0" r="3" fill="#8a5a5a"/><circle cx="500.5" cy="198.0" r="3" fill="#8a5a5a"/><circle cx="504.2" cy="198.0" r="3" fill="#8a5a5a"/><circle cx="507.9" cy="198.0" r="3" fill="#8a5a5a"/><circle cx="511.6" cy="198.0" r="3" fill="#8a5a5a"/><circle cx="515.4" cy="198.0" r="3" fill="#8a5a5a"/><circle cx="519.1" cy="198.0" r="3" fill="#8a5a5a"/><circle cx="522.8" cy="198.0" r="3" fill="#8a5a5a"/><circle cx="526.5" cy="198.0" r="3" fill="#8a5a5a"/><circle cx="530.2" cy="198.0" r="3" fill="#8a5a5a"/><circle cx="533.9" cy="198.0" r="3" fill="#8a5a5a"/><circle cx="537.7" cy="198.0" r="3" fill="#8a5a5a"/><circle cx="541.4" cy="198.0" r="3" fill="#8a5a5a"/><circle cx="545.1" cy="198.0" r="3" fill="#8a5a5a"/><circle cx="548.8" cy="198.0" r="3" fill="#8a5a5a"/><circle cx="552.5" cy="198.0" r="3" fill="#8a5a5a"/><circle cx="556.2" cy="198.0" r="3" fill="#8a5a5a"/><circle cx="560.0" cy="198.0" r="3" fill="#8a5a5a"/><circle cx="563.7" cy="198.0" r="3" fill="#8a5a5a"/><circle cx="567.4" cy="198.0" r="3" fill="#8a5a5a"/><circle cx="571.1" cy="198.0" r="3" fill="#8a5a5a"/><circle cx="574.8" cy="198.0" r="3" fill="#8a5a5a"/><circle cx="578.5" cy="198.0" r="3" fill="#8a5a5a"/><circle cx="582.2" cy="198.0" r="3" fill="#8a5a5a"/><circle cx="586.0" cy="198.0" r="3" fill="#8a5a5a"/><circle cx="589.7" cy="198.0" r="3" fill="#8a5a5a"/><circle cx="593.4" cy="198.0" r="3" fill="#8a5a5a"/><circle cx="597.1" cy="198.0" r="3" fill="#8a5a5a"/><circle cx="600.8" cy="198.0" r="3" fill="#8a5a5a"/><circle cx="604.5" cy="198.0" r="3" fill="#8a5a5a"/><circle cx="608.3" cy="198.0" r="3" fill="#8a5a5a"/><circle cx="612.0" cy="198.0" r="3" fill="#8a5a5a"/><circle cx="615.7" cy="198.0" r="3" fill="#8a5a5a"/><circle cx="619.4" cy="198.0" r="3" fill="#8a5a5a"/><circle cx="623.1" cy="198.0" r="3" fill="#8a5a5a"/><circle cx="626.8" cy="198.0" r="3" fill="#8a5a5a"/><circle cx="630.6" cy="198.0" r="3" fill="#8a5a5a"/><circle cx="634.3" cy="198.0" r="3" fill="#8a5a5a"/><circle cx="638.0" cy="198.0" r="3" fill="#8a5a5a"/><circle cx="641.7" cy="198.0" r="3" fill="#8a5a5a"/><circle cx="645.4" cy="198.0" r="3" fill="#8a5a5a"/><circle cx="649.1" cy="198.0" r="3" fill="#8a5a5a"/><circle cx="652.9" cy="198.0" r="3" fill="#8a5a5a"/><circle cx="656.6" cy="198.0" r="3" fill="#8a5a5a"/><circle cx="660.3" cy="198.0" r="3" fill="#8a5a5a"/><circle cx="664.0" cy="198.0" r="3" fill="#8a5a5a"/>
<polyline fill="none" stroke="#3fb950" stroke-width="2.5" stroke-linejoin="round" points="36.0,198.0 39.7,198.0 43.4,198.0 47.1,198.0 50.9,198.0 54.6,198.0 58.3,198.0 62.0,198.0 65.7,198.0 69.4,198.0 73.2,198.0 76.9,198.0 80.6,198.0 84.3,198.0 88.0,198.0 91.7,198.0 95.5,198.0 99.2,198.0 102.9,198.0 106.6,198.0 110.3,198.0 114.0,198.0 117.8,198.0 121.5,198.0 125.2,198.0 128.9,198.0 132.6,198.0 136.3,198.0 140.0,198.0 143.8,198.0 147.5,198.0 151.2,198.0 154.9,198.0 158.6,198.0 162.3,198.0 166.1,198.0 169.8,198.0 173.5,198.0 177.2,198.0 180.9,198.0 184.6,198.0 188.4,198.0 192.1,198.0 195.8,191.7 199.5,191.7 203.2,191.7 206.9,191.7 210.7,191.7 214.4,191.7 218.1,191.7 221.8,192.9 225.5,192.9 229.2,190.7 232.9,190.7 236.7,190.7 240.4,190.7 244.1,190.7 247.8,190.5 251.5,190.5 255.2,190.5 259.0,190.3 262.7,190.3 266.4,190.3 270.1,190.3 273.8,190.3 277.5,190.3 281.3,190.3 285.0,190.3 288.7,190.3 292.4,190.3 296.1,190.3 299.8,190.3 303.6,190.3 307.3,190.3 311.0,190.3 314.7,190.3 318.4,190.3 322.1,190.3 325.8,190.3 329.6,190.3 333.3,190.3 337.0,189.3 340.7,189.3 344.4,189.3 348.1,190.7 351.9,190.7 355.6,190.7 359.3,190.7 363.0,190.7 366.7,190.7 370.4,190.7 374.2,190.7 377.9,190.7 381.6,190.9 385.3,190.9 389.0,190.9 392.7,194.2 396.4,196.8 400.2,198.0 403.9,198.0 407.6,198.0 411.3,198.0 415.0,198.0 418.7,198.0 422.5,198.0 426.2,198.0 429.9,198.0 433.6,198.0 437.3,198.0 441.0,198.0 444.8,198.0 448.5,198.0 452.2,198.0 455.9,198.0 459.6,198.0 463.3,198.0 467.1,198.0 470.8,198.0 474.5,198.0 478.2,198.0 481.9,198.0 485.6,198.0 489.3,198.0 493.1,198.0 496.8,198.0 500.5,198.0 504.2,198.0 507.9,198.0 511.6,198.0 515.4,198.0 519.1,198.0 522.8,198.0 526.5,198.0 530.2,198.0 533.9,198.0 537.7,198.0 541.4,198.0 545.1,198.0 548.8,198.0 552.5,198.0 556.2,198.0 560.0,198.0 563.7,198.0 567.4,198.0 571.1,198.0 574.8,198.0 578.5,198.0 582.2,198.0 586.0,198.0 589.7,198.0 593.4,198.0 597.1,198.0 600.8,198.0 604.5,198.0 608.3,198.0 612.0,198.0 615.7,198.0 619.4,198.0 623.1,198.0 626.8,198.0 630.6,198.0 634.3,198.0 638.0,198.0 641.7,198.0 645.4,198.0 649.1,198.0 652.9,198.0 656.6,198.0 660.3,198.0 664.0,198.0"/><circle cx="36.0" cy="198.0" r="3" fill="#3fb950"/><circle cx="39.7" cy="198.0" r="3" fill="#3fb950"/><circle cx="43.4" cy="198.0" r="3" fill="#3fb950"/><circle cx="47.1" cy="198.0" r="3" fill="#3fb950"/><circle cx="50.9" cy="198.0" r="3" fill="#3fb950"/><circle cx="54.6" cy="198.0" r="3" fill="#3fb950"/><circle cx="58.3" cy="198.0" r="3" fill="#3fb950"/><circle cx="62.0" cy="198.0" r="3" fill="#3fb950"/><circle cx="65.7" cy="198.0" r="3" fill="#3fb950"/><circle cx="69.4" cy="198.0" r="3" fill="#3fb950"/><circle cx="73.2" cy="198.0" r="3" fill="#3fb950"/><circle cx="76.9" cy="198.0" r="3" fill="#3fb950"/><circle cx="80.6" cy="198.0" r="3" fill="#3fb950"/><circle cx="84.3" cy="198.0" r="3" fill="#3fb950"/><circle cx="88.0" cy="198.0" r="3" fill="#3fb950"/><circle cx="91.7" cy="198.0" r="3" fill="#3fb950"/><circle cx="95.5" cy="198.0" r="3" fill="#3fb950"/><circle cx="99.2" cy="198.0" r="3" fill="#3fb950"/><circle cx="102.9" cy="198.0" r="3" fill="#3fb950"/><circle cx="106.6" cy="198.0" r="3" fill="#3fb950"/><circle cx="110.3" cy="198.0" r="3" fill="#3fb950"/><circle cx="114.0" cy="198.0" r="3" fill="#3fb950"/><circle cx="117.8" cy="198.0" r="3" fill="#3fb950"/><circle cx="121.5" cy="198.0" r="3" fill="#3fb950"/><circle cx="125.2" cy="198.0" r="3" fill="#3fb950"/><circle cx="128.9" cy="198.0" r="3" fill="#3fb950"/><circle cx="132.6" cy="198.0" r="3" fill="#3fb950"/><circle cx="136.3" cy="198.0" r="3" fill="#3fb950"/><circle cx="140.0" cy="198.0" r="3" fill="#3fb950"/><circle cx="143.8" cy="198.0" r="3" fill="#3fb950"/><circle cx="147.5" cy="198.0" r="3" fill="#3fb950"/><circle cx="151.2" cy="198.0" r="3" fill="#3fb950"/><circle cx="154.9" cy="198.0" r="3" fill="#3fb950"/><circle cx="158.6" cy="198.0" r="3" fill="#3fb950"/><circle cx="162.3" cy="198.0" r="3" fill="#3fb950"/><circle cx="166.1" cy="198.0" r="3" fill="#3fb950"/><circle cx="169.8" cy="198.0" r="3" fill="#3fb950"/><circle cx="173.5" cy="198.0" r="3" fill="#3fb950"/><circle cx="177.2" cy="198.0" r="3" fill="#3fb950"/><circle cx="180.9" cy="198.0" r="3" fill="#3fb950"/><circle cx="184.6" cy="198.0" r="3" fill="#3fb950"/><circle cx="188.4" cy="198.0" r="3" fill="#3fb950"/><circle cx="192.1" cy="198.0" r="3" fill="#3fb950"/><circle cx="195.8" cy="191.7" r="3" fill="#3fb950"/><circle cx="199.5" cy="191.7" r="3" fill="#3fb950"/><circle cx="203.2" cy="191.7" r="3" fill="#3fb950"/><circle cx="206.9" cy="191.7" r="3" fill="#3fb950"/><circle cx="210.7" cy="191.7" r="3" fill="#3fb950"/><circle cx="214.4" cy="191.7" r="3" fill="#3fb950"/><circle cx="218.1" cy="191.7" r="3" fill="#3fb950"/><circle cx="221.8" cy="192.9" r="3" fill="#3fb950"/><circle cx="225.5" cy="192.9" r="3" fill="#3fb950"/><circle cx="229.2" cy="190.7" r="3" fill="#3fb950"/><circle cx="232.9" cy="190.7" r="3" fill="#3fb950"/><circle cx="236.7" cy="190.7" r="3" fill="#3fb950"/><circle cx="240.4" cy="190.7" r="3" fill="#3fb950"/><circle cx="244.1" cy="190.7" r="3" fill="#3fb950"/><circle cx="247.8" cy="190.5" r="3" fill="#3fb950"/><circle cx="251.5" cy="190.5" r="3" fill="#3fb950"/><circle cx="255.2" cy="190.5" r="3" fill="#3fb950"/><circle cx="259.0" cy="190.3" r="3" fill="#3fb950"/><circle cx="262.7" cy="190.3" r="3" fill="#3fb950"/><circle cx="266.4" cy="190.3" r="3" fill="#3fb950"/><circle cx="270.1" cy="190.3" r="3" fill="#3fb950"/><circle cx="273.8" cy="190.3" r="3" fill="#3fb950"/><circle cx="277.5" cy="190.3" r="3" fill="#3fb950"/><circle cx="281.3" cy="190.3" r="3" fill="#3fb950"/><circle cx="285.0" cy="190.3" r="3" fill="#3fb950"/><circle cx="288.7" cy="190.3" r="3" fill="#3fb950"/><circle cx="292.4" cy="190.3" r="3" fill="#3fb950"/><circle cx="296.1" cy="190.3" r="3" fill="#3fb950"/><circle cx="299.8" cy="190.3" r="3" fill="#3fb950"/><circle cx="303.6" cy="190.3" r="3" fill="#3fb950"/><circle cx="307.3" cy="190.3" r="3" fill="#3fb950"/><circle cx="311.0" cy="190.3" r="3" fill="#3fb950"/><circle cx="314.7" cy="190.3" r="3" fill="#3fb950"/><circle cx="318.4" cy="190.3" r="3" fill="#3fb950"/><circle cx="322.1" cy="190.3" r="3" fill="#3fb950"/><circle cx="325.8" cy="190.3" r="3" fill="#3fb950"/><circle cx="329.6" cy="190.3" r="3" fill="#3fb950"/><circle cx="333.3" cy="190.3" r="3" fill="#3fb950"/><circle cx="337.0" cy="189.3" r="3" fill="#3fb950"/><circle cx="340.7" cy="189.3" r="3" fill="#3fb950"/><circle cx="344.4" cy="189.3" r="3" fill="#3fb950"/><circle cx="348.1" cy="190.7" r="3" fill="#3fb950"/><circle cx="351.9" cy="190.7" r="3" fill="#3fb950"/><circle cx="355.6" cy="190.7" r="3" fill="#3fb950"/><circle cx="359.3" cy="190.7" r="3" fill="#3fb950"/><circle cx="363.0" cy="190.7" r="3" fill="#3fb950"/><circle cx="366.7" cy="190.7" r="3" fill="#3fb950"/><circle cx="370.4" cy="190.7" r="3" fill="#3fb950"/><circle cx="374.2" cy="190.7" r="3" fill="#3fb950"/><circle cx="377.9" cy="190.7" r="3" fill="#3fb950"/><circle cx="381.6" cy="190.9" r="3" fill="#3fb950"/><circle cx="385.3" cy="190.9" r="3" fill="#3fb950"/><circle cx="389.0" cy="190.9" r="3" fill="#3fb950"/><circle cx="392.7" cy="194.2" r="3" fill="#3fb950"/><circle cx="396.4" cy="196.8" r="3" fill="#3fb950"/><circle cx="400.2" cy="198.0" r="3" fill="#3fb950"/><circle cx="403.9" cy="198.0" r="3" fill="#3fb950"/><circle cx="407.6" cy="198.0" r="3" fill="#3fb950"/><circle cx="411.3" cy="198.0" r="3" fill="#3fb950"/><circle cx="415.0" cy="198.0" r="3" fill="#3fb950"/><circle cx="418.7" cy="198.0" r="3" fill="#3fb950"/><circle cx="422.5" cy="198.0" r="3" fill="#3fb950"/><circle cx="426.2" cy="198.0" r="3" fill="#3fb950"/><circle cx="429.9" cy="198.0" r="3" fill="#3fb950"/><circle cx="433.6" cy="198.0" r="3" fill="#3fb950"/><circle cx="437.3" cy="198.0" r="3" fill="#3fb950"/><circle cx="441.0" cy="198.0" r="3" fill="#3fb950"/><circle cx="444.8" cy="198.0" r="3" fill="#3fb950"/><circle cx="448.5" cy="198.0" r="3" fill="#3fb950"/><circle cx="452.2" cy="198.0" r="3" fill="#3fb950"/><circle cx="455.9" cy="198.0" r="3" fill="#3fb950"/><circle cx="459.6" cy="198.0" r="3" fill="#3fb950"/><circle cx="463.3" cy="198.0" r="3" fill="#3fb950"/><circle cx="467.1" cy="198.0" r="3" fill="#3fb950"/><circle cx="470.8" cy="198.0" r="3" fill="#3fb950"/><circle cx="474.5" cy="198.0" r="3" fill="#3fb950"/><circle cx="478.2" cy="198.0" r="3" fill="#3fb950"/><circle cx="481.9" cy="198.0" r="3" fill="#3fb950"/><circle cx="485.6" cy="198.0" r="3" fill="#3fb950"/><circle cx="489.3" cy="198.0" r="3" fill="#3fb950"/><circle cx="493.1" cy="198.0" r="3" fill="#3fb950"/><circle cx="496.8" cy="198.0" r="3" fill="#3fb950"/><circle cx="500.5" cy="198.0" r="3" fill="#3fb950"/><circle cx="504.2" cy="198.0" r="3" fill="#3fb950"/><circle cx="507.9" cy="198.0" r="3" fill="#3fb950"/><circle cx="511.6" cy="198.0" r="3" fill="#3fb950"/><circle cx="515.4" cy="198.0" r="3" fill="#3fb950"/><circle cx="519.1" cy="198.0" r="3" fill="#3fb950"/><circle cx="522.8" cy="198.0" r="3" fill="#3fb950"/><circle cx="526.5" cy="198.0" r="3" fill="#3fb950"/><circle cx="530.2" cy="198.0" r="3" fill="#3fb950"/><circle cx="533.9" cy="198.0" r="3" fill="#3fb950"/><circle cx="537.7" cy="198.0" r="3" fill="#3fb950"/><circle cx="541.4" cy="198.0" r="3" fill="#3fb950"/><circle cx="545.1" cy="198.0" r="3" fill="#3fb950"/><circle cx="548.8" cy="198.0" r="3" fill="#3fb950"/><circle cx="552.5" cy="198.0" r="3" fill="#3fb950"/><circle cx="556.2" cy="198.0" r="3" fill="#3fb950"/><circle cx="560.0" cy="198.0" r="3" fill="#3fb950"/><circle cx="563.7" cy="198.0" r="3" fill="#3fb950"/><circle cx="567.4" cy="198.0" r="3" fill="#3fb950"/><circle cx="571.1" cy="198.0" r="3" fill="#3fb950"/><circle cx="574.8" cy="198.0" r="3" fill="#3fb950"/><circle cx="578.5" cy="198.0" r="3" fill="#3fb950"/><circle cx="582.2" cy="198.0" r="3" fill="#3fb950"/><circle cx="586.0" cy="198.0" r="3" fill="#3fb950"/><circle cx="589.7" cy="198.0" r="3" fill="#3fb950"/><circle cx="593.4" cy="198.0" r="3" fill="#3fb950"/><circle cx="597.1" cy="198.0" r="3" fill="#3fb950"/><circle cx="600.8" cy="198.0" r="3" fill="#3fb950"/><circle cx="604.5" cy="198.0" r="3" fill="#3fb950"/><circle cx="608.3" cy="198.0" r="3" fill="#3fb950"/><circle cx="612.0" cy="198.0" r="3" fill="#3fb950"/><circle cx="615.7" cy="198.0" r="3" fill="#3fb950"/><circle cx="619.4" cy="198.0" r="3" fill="#3fb950"/><circle cx="623.1" cy="198.0" r="3" fill="#3fb950"/><circle cx="626.8" cy="198.0" r="3" fill="#3fb950"/><circle cx="630.6" cy="198.0" r="3" fill="#3fb950"/><circle cx="634.3" cy="198.0" r="3" fill="#3fb950"/><circle cx="638.0" cy="198.0" r="3" fill="#3fb950"/><circle cx="641.7" cy="198.0" r="3" fill="#3fb950"/><circle cx="645.4" cy="198.0" r="3" fill="#3fb950"/><circle cx="649.1" cy="198.0" r="3" fill="#3fb950"/><circle cx="652.9" cy="198.0" r="3" fill="#3fb950"/><circle cx="656.6" cy="198.0" r="3" fill="#3fb950"/><circle cx="660.3" cy="198.0" r="3" fill="#3fb950"/><circle cx="664.0" cy="198.0" r="3" fill="#3fb950"/>
<polyline fill="none" stroke="#4aa3ff" stroke-width="2.5" stroke-linejoin="round" points="36.0,144.3 39.7,144.3 43.4,144.3 47.1,144.3 50.9,144.3 54.6,144.3 58.3,144.3 62.0,144.3 65.7,144.3 69.4,144.3 73.2,144.3 76.9,144.3 80.6,144.3 84.3,144.3 88.0,144.3 91.7,136.2 95.5,132.4 99.2,129.6 102.9,129.6 106.6,121.0 110.3,121.0 114.0,121.0 117.8,114.4 121.5,114.4 125.2,114.4 128.9,111.3 132.6,110.9 136.3,110.9 140.0,110.5 143.8,110.5 147.5,109.9 151.2,108.7 154.9,107.3 158.6,106.9 162.3,106.9 166.1,106.9 169.8,106.9 173.5,106.9 177.2,106.9 180.9,106.9 184.6,106.9 188.4,106.9 192.1,106.9 195.8,113.2 199.5,113.2 203.2,113.2 206.9,113.2 210.7,113.2 214.4,110.7 218.1,105.3 221.8,83.4 225.5,83.4 229.2,85.6 232.9,85.6 236.7,85.6 240.4,85.6 244.1,85.6 247.8,85.8 251.5,85.8 255.2,85.8 259.0,86.0 262.7,86.0 266.4,86.0 270.1,86.0 273.8,86.0 277.5,86.0 281.3,86.0 285.0,86.0 288.7,86.0 292.4,86.0 296.1,86.0 299.8,86.0 303.6,86.0 307.3,86.0 311.0,86.0 314.7,86.0 318.4,86.0 322.1,86.0 325.8,86.0 329.6,86.0 333.3,86.0 337.0,87.0 340.7,87.0 344.4,87.0 348.1,73.7 351.9,73.7 355.6,71.0 359.3,71.0 363.0,70.8 366.7,70.6 370.4,70.6 374.2,70.4 377.9,68.6 381.6,60.5 385.3,59.3 389.0,52.0 392.7,47.3 396.4,40.1 400.2,36.0 403.9,36.0 407.6,36.0 411.3,36.0 415.0,36.0 418.7,36.0 422.5,36.0 426.2,36.0 429.9,36.0 433.6,36.0 437.3,36.0 441.0,36.0 444.8,36.0 448.5,36.0 452.2,36.0 455.9,36.0 459.6,36.0 463.3,36.0 467.1,36.0 470.8,36.0 474.5,36.0 478.2,36.0 481.9,36.0 485.6,36.0 489.3,36.0 493.1,36.0 496.8,36.0 500.5,36.0 504.2,36.0 507.9,36.0 511.6,36.0 515.4,36.0 519.1,36.0 522.8,36.0 526.5,36.0 530.2,36.0 533.9,36.0 537.7,36.0 541.4,36.0 545.1,36.0 548.8,36.0 552.5,36.0 556.2,36.0 560.0,36.0 563.7,36.0 567.4,36.0 571.1,36.0 574.8,36.0 578.5,36.0 582.2,36.0 586.0,36.0 589.7,36.0 593.4,36.0 597.1,36.0 600.8,36.0 604.5,36.0 608.3,36.0 612.0,36.0 615.7,36.0 619.4,36.0 623.1,36.0 626.8,36.0 630.6,36.0 634.3,36.0 638.0,36.0 641.7,36.0 645.4,36.0 649.1,36.0 652.9,36.0 656.6,36.0 660.3,36.0 664.0,36.0"/><circle cx="36.0" cy="144.3" r="3" fill="#4aa3ff"/><circle cx="39.7" cy="144.3" r="3" fill="#4aa3ff"/><circle cx="43.4" cy="144.3" r="3" fill="#4aa3ff"/><circle cx="47.1" cy="144.3" r="3" fill="#4aa3ff"/><circle cx="50.9" cy="144.3" r="3" fill="#4aa3ff"/><circle cx="54.6" cy="144.3" r="3" fill="#4aa3ff"/><circle cx="58.3" cy="144.3" r="3" fill="#4aa3ff"/><circle cx="62.0" cy="144.3" r="3" fill="#4aa3ff"/><circle cx="65.7" cy="144.3" r="3" fill="#4aa3ff"/><circle cx="69.4" cy="144.3" r="3" fill="#4aa3ff"/><circle cx="73.2" cy="144.3" r="3" fill="#4aa3ff"/><circle cx="76.9" cy="144.3" r="3" fill="#4aa3ff"/><circle cx="80.6" cy="144.3" r="3" fill="#4aa3ff"/><circle cx="84.3" cy="144.3" r="3" fill="#4aa3ff"/><circle cx="88.0" cy="144.3" r="3" fill="#4aa3ff"/><circle cx="91.7" cy="136.2" r="3" fill="#4aa3ff"/><circle cx="95.5" cy="132.4" r="3" fill="#4aa3ff"/><circle cx="99.2" cy="129.6" r="3" fill="#4aa3ff"/><circle cx="102.9" cy="129.6" r="3" fill="#4aa3ff"/><circle cx="106.6" cy="121.0" r="3" fill="#4aa3ff"/><circle cx="110.3" cy="121.0" r="3" fill="#4aa3ff"/><circle cx="114.0" cy="121.0" r="3" fill="#4aa3ff"/><circle cx="117.8" cy="114.4" r="3" fill="#4aa3ff"/><circle cx="121.5" cy="114.4" r="3" fill="#4aa3ff"/><circle cx="125.2" cy="114.4" r="3" fill="#4aa3ff"/><circle cx="128.9" cy="111.3" r="3" fill="#4aa3ff"/><circle cx="132.6" cy="110.9" r="3" fill="#4aa3ff"/><circle cx="136.3" cy="110.9" r="3" fill="#4aa3ff"/><circle cx="140.0" cy="110.5" r="3" fill="#4aa3ff"/><circle cx="143.8" cy="110.5" r="3" fill="#4aa3ff"/><circle cx="147.5" cy="109.9" r="3" fill="#4aa3ff"/><circle cx="151.2" cy="108.7" r="3" fill="#4aa3ff"/><circle cx="154.9" cy="107.3" r="3" fill="#4aa3ff"/><circle cx="158.6" cy="106.9" r="3" fill="#4aa3ff"/><circle cx="162.3" cy="106.9" r="3" fill="#4aa3ff"/><circle cx="166.1" cy="106.9" r="3" fill="#4aa3ff"/><circle cx="169.8" cy="106.9" r="3" fill="#4aa3ff"/><circle cx="173.5" cy="106.9" r="3" fill="#4aa3ff"/><circle cx="177.2" cy="106.9" r="3" fill="#4aa3ff"/><circle cx="180.9" cy="106.9" r="3" fill="#4aa3ff"/><circle cx="184.6" cy="106.9" r="3" fill="#4aa3ff"/><circle cx="188.4" cy="106.9" r="3" fill="#4aa3ff"/><circle cx="192.1" cy="106.9" r="3" fill="#4aa3ff"/><circle cx="195.8" cy="113.2" r="3" fill="#4aa3ff"/><circle cx="199.5" cy="113.2" r="3" fill="#4aa3ff"/><circle cx="203.2" cy="113.2" r="3" fill="#4aa3ff"/><circle cx="206.9" cy="113.2" r="3" fill="#4aa3ff"/><circle cx="210.7" cy="113.2" r="3" fill="#4aa3ff"/><circle cx="214.4" cy="110.7" r="3" fill="#4aa3ff"/><circle cx="218.1" cy="105.3" r="3" fill="#4aa3ff"/><circle cx="221.8" cy="83.4" r="3" fill="#4aa3ff"/><circle cx="225.5" cy="83.4" r="3" fill="#4aa3ff"/><circle cx="229.2" cy="85.6" r="3" fill="#4aa3ff"/><circle cx="232.9" cy="85.6" r="3" fill="#4aa3ff"/><circle cx="236.7" cy="85.6" r="3" fill="#4aa3ff"/><circle cx="240.4" cy="85.6" r="3" fill="#4aa3ff"/><circle cx="244.1" cy="85.6" r="3" fill="#4aa3ff"/><circle cx="247.8" cy="85.8" r="3" fill="#4aa3ff"/><circle cx="251.5" cy="85.8" r="3" fill="#4aa3ff"/><circle cx="255.2" cy="85.8" r="3" fill="#4aa3ff"/><circle cx="259.0" cy="86.0" r="3" fill="#4aa3ff"/><circle cx="262.7" cy="86.0" r="3" fill="#4aa3ff"/><circle cx="266.4" cy="86.0" r="3" fill="#4aa3ff"/><circle cx="270.1" cy="86.0" r="3" fill="#4aa3ff"/><circle cx="273.8" cy="86.0" r="3" fill="#4aa3ff"/><circle cx="277.5" cy="86.0" r="3" fill="#4aa3ff"/><circle cx="281.3" cy="86.0" r="3" fill="#4aa3ff"/><circle cx="285.0" cy="86.0" r="3" fill="#4aa3ff"/><circle cx="288.7" cy="86.0" r="3" fill="#4aa3ff"/><circle cx="292.4" cy="86.0" r="3" fill="#4aa3ff"/><circle cx="296.1" cy="86.0" r="3" fill="#4aa3ff"/><circle cx="299.8" cy="86.0" r="3" fill="#4aa3ff"/><circle cx="303.6" cy="86.0" r="3" fill="#4aa3ff"/><circle cx="307.3" cy="86.0" r="3" fill="#4aa3ff"/><circle cx="311.0" cy="86.0" r="3" fill="#4aa3ff"/><circle cx="314.7" cy="86.0" r="3" fill="#4aa3ff"/><circle cx="318.4" cy="86.0" r="3" fill="#4aa3ff"/><circle cx="322.1" cy="86.0" r="3" fill="#4aa3ff"/><circle cx="325.8" cy="86.0" r="3" fill="#4aa3ff"/><circle cx="329.6" cy="86.0" r="3" fill="#4aa3ff"/><circle cx="333.3" cy="86.0" r="3" fill="#4aa3ff"/><circle cx="337.0" cy="87.0" r="3" fill="#4aa3ff"/><circle cx="340.7" cy="87.0" r="3" fill="#4aa3ff"/><circle cx="344.4" cy="87.0" r="3" fill="#4aa3ff"/><circle cx="348.1" cy="73.7" r="3" fill="#4aa3ff"/><circle cx="351.9" cy="73.7" r="3" fill="#4aa3ff"/><circle cx="355.6" cy="71.0" r="3" fill="#4aa3ff"/><circle cx="359.3" cy="71.0" r="3" fill="#4aa3ff"/><circle cx="363.0" cy="70.8" r="3" fill="#4aa3ff"/><circle cx="366.7" cy="70.6" r="3" fill="#4aa3ff"/><circle cx="370.4" cy="70.6" r="3" fill="#4aa3ff"/><circle cx="374.2" cy="70.4" r="3" fill="#4aa3ff"/><circle cx="377.9" cy="68.6" r="3" fill="#4aa3ff"/><circle cx="381.6" cy="60.5" r="3" fill="#4aa3ff"/><circle cx="385.3" cy="59.3" r="3" fill="#4aa3ff"/><circle cx="389.0" cy="52.0" r="3" fill="#4aa3ff"/><circle cx="392.7" cy="47.3" r="3" fill="#4aa3ff"/><circle cx="396.4" cy="40.1" r="3" fill="#4aa3ff"/><circle cx="400.2" cy="36.0" r="3" fill="#4aa3ff"/><circle cx="403.9" cy="36.0" r="3" fill="#4aa3ff"/><circle cx="407.6" cy="36.0" r="3" fill="#4aa3ff"/><circle cx="411.3" cy="36.0" r="3" fill="#4aa3ff"/><circle cx="415.0" cy="36.0" r="3" fill="#4aa3ff"/><circle cx="418.7" cy="36.0" r="3" fill="#4aa3ff"/><circle cx="422.5" cy="36.0" r="3" fill="#4aa3ff"/><circle cx="426.2" cy="36.0" r="3" fill="#4aa3ff"/><circle cx="429.9" cy="36.0" r="3" fill="#4aa3ff"/><circle cx="433.6" cy="36.0" r="3" fill="#4aa3ff"/><circle cx="437.3" cy="36.0" r="3" fill="#4aa3ff"/><circle cx="441.0" cy="36.0" r="3" fill="#4aa3ff"/><circle cx="444.8" cy="36.0" r="3" fill="#4aa3ff"/><circle cx="448.5" cy="36.0" r="3" fill="#4aa3ff"/><circle cx="452.2" cy="36.0" r="3" fill="#4aa3ff"/><circle cx="455.9" cy="36.0" r="3" fill="#4aa3ff"/><circle cx="459.6" cy="36.0" r="3" fill="#4aa3ff"/><circle cx="463.3" cy="36.0" r="3" fill="#4aa3ff"/><circle cx="467.1" cy="36.0" r="3" fill="#4aa3ff"/><circle cx="470.8" cy="36.0" r="3" fill="#4aa3ff"/><circle cx="474.5" cy="36.0" r="3" fill="#4aa3ff"/><circle cx="478.2" cy="36.0" r="3" fill="#4aa3ff"/><circle cx="481.9" cy="36.0" r="3" fill="#4aa3ff"/><circle cx="485.6" cy="36.0" r="3" fill="#4aa3ff"/><circle cx="489.3" cy="36.0" r="3" fill="#4aa3ff"/><circle cx="493.1" cy="36.0" r="3" fill="#4aa3ff"/><circle cx="496.8" cy="36.0" r="3" fill="#4aa3ff"/><circle cx="500.5" cy="36.0" r="3" fill="#4aa3ff"/><circle cx="504.2" cy="36.0" r="3" fill="#4aa3ff"/><circle cx="507.9" cy="36.0" r="3" fill="#4aa3ff"/><circle cx="511.6" cy="36.0" r="3" fill="#4aa3ff"/><circle cx="515.4" cy="36.0" r="3" fill="#4aa3ff"/><circle cx="519.1" cy="36.0" r="3" fill="#4aa3ff"/><circle cx="522.8" cy="36.0" r="3" fill="#4aa3ff"/><circle cx="526.5" cy="36.0" r="3" fill="#4aa3ff"/><circle cx="530.2" cy="36.0" r="3" fill="#4aa3ff"/><circle cx="533.9" cy="36.0" r="3" fill="#4aa3ff"/><circle cx="537.7" cy="36.0" r="3" fill="#4aa3ff"/><circle cx="541.4" cy="36.0" r="3" fill="#4aa3ff"/><circle cx="545.1" cy="36.0" r="3" fill="#4aa3ff"/><circle cx="548.8" cy="36.0" r="3" fill="#4aa3ff"/><circle cx="552.5" cy="36.0" r="3" fill="#4aa3ff"/><circle cx="556.2" cy="36.0" r="3" fill="#4aa3ff"/><circle cx="560.0" cy="36.0" r="3" fill="#4aa3ff"/><circle cx="563.7" cy="36.0" r="3" fill="#4aa3ff"/><circle cx="567.4" cy="36.0" r="3" fill="#4aa3ff"/><circle cx="571.1" cy="36.0" r="3" fill="#4aa3ff"/><circle cx="574.8" cy="36.0" r="3" fill="#4aa3ff"/><circle cx="578.5" cy="36.0" r="3" fill="#4aa3ff"/><circle cx="582.2" cy="36.0" r="3" fill="#4aa3ff"/><circle cx="586.0" cy="36.0" r="3" fill="#4aa3ff"/><circle cx="589.7" cy="36.0" r="3" fill="#4aa3ff"/><circle cx="593.4" cy="36.0" r="3" fill="#4aa3ff"/><circle cx="597.1" cy="36.0" r="3" fill="#4aa3ff"/><circle cx="600.8" cy="36.0" r="3" fill="#4aa3ff"/><circle cx="604.5" cy="36.0" r="3" fill="#4aa3ff"/><circle cx="608.3" cy="36.0" r="3" fill="#4aa3ff"/><circle cx="612.0" cy="36.0" r="3" fill="#4aa3ff"/><circle cx="615.7" cy="36.0" r="3" fill="#4aa3ff"/><circle cx="619.4" cy="36.0" r="3" fill="#4aa3ff"/><circle cx="623.1" cy="36.0" r="3" fill="#4aa3ff"/><circle cx="626.8" cy="36.0" r="3" fill="#4aa3ff"/><circle cx="630.6" cy="36.0" r="3" fill="#4aa3ff"/><circle cx="634.3" cy="36.0" r="3" fill="#4aa3ff"/><circle cx="638.0" cy="36.0" r="3" fill="#4aa3ff"/><circle cx="641.7" cy="36.0" r="3" fill="#4aa3ff"/><circle cx="645.4" cy="36.0" r="3" fill="#4aa3ff"/><circle cx="649.1" cy="36.0" r="3" fill="#4aa3ff"/><circle cx="652.9" cy="36.0" r="3" fill="#4aa3ff"/><circle cx="656.6" cy="36.0" r="3" fill="#4aa3ff"/><circle cx="660.3" cy="36.0" r="3" fill="#4aa3ff"/><circle cx="664.0" cy="36.0" r="3" fill="#4aa3ff"/>
<text x="36" y="225" fill="#6b7280" font-size="11">2026-06-26</text>
<text x="664" y="225" fill="#6b7280" font-size="11" text-anchor="end">2026-07-14</text>
<text x="36" y="212" font-family="system-ui,sans-serif" font-size="11">
<tspan fill="#4aa3ff">&#9679; open FPs</tspan>  <tspan fill="#3fb950">&#9679; closed (Anthropic acting)</tspan>  <tspan fill="#8a5a5a">&#9679; harness withdrawn</tspan></text>
<text x="664" y="22" text-anchor="end" font-family="system-ui,sans-serif" font-size="12">
<tspan fill="#4aa3ff">open 800</tspan>  <tspan fill="#3fb950">closed 0</tspan>  <tspan fill="#8a5a5a">harness 0</tspan></text>
</svg>