<svg xmlns="http://www.w3.org/2000/svg" width="700" height="234" viewBox="0 0 700 234" role="img">
<rect width="700" height="234" rx="12" fill="#16181d"/>
<text x="36" y="22" fill="#e8eaed" font-family="system-ui,sans-serif" font-size="14" font-weight="700">Is Anthropic acting? cyber/aup false positives over time</text>
<line x1="36" y1="198.0" x2="664" y2="198.0" stroke="#2a2e37" stroke-width="1"/><text x="30" y="202.0" fill="#6b7280" font-size="11" text-anchor="end">0</text><line x1="36" y1="117.0" x2="664" y2="117.0" stroke="#2a2e37" stroke-width="1"/><text x="30" y="121.0" fill="#6b7280" font-size="11" text-anchor="end">225</text><line x1="36" y1="36.0" x2="664" y2="36.0" stroke="#2a2e37" stroke-width="1"/><text x="30" y="40.0" fill="#6b7280" font-size="11" text-anchor="end">450</text>

<polyline fill="none" stroke="#8a5a5a" stroke-width="2.5" stroke-linejoin="round" points="36.0,104.0 51.7,104.0 67.4,104.0 83.1,104.0 98.8,104.0 114.5,104.0 130.2,104.0 145.9,104.0 161.6,104.0 177.3,104.0 193.0,104.0 208.7,104.0 224.4,104.0 240.1,104.0 255.8,104.0 271.5,104.0 287.2,104.0 302.9,104.0 318.6,104.0 334.3,104.0 350.0,104.0 365.7,104.0 381.4,104.0 397.1,104.0 412.8,104.0 428.5,104.0 444.2,104.0 459.9,104.0 475.6,104.0 491.3,104.0 507.0,104.0 522.7,104.0 538.4,104.0 554.1,104.0 569.8,104.0 585.5,104.0 601.2,104.0 616.9,104.0 632.6,104.0 648.3,104.0 664.0,104.0"/><circle cx="36.0" cy="104.0" r="3" fill="#8a5a5a"/><circle cx="51.7" cy="104.0" r="3" fill="#8a5a5a"/><circle cx="67.4" cy="104.0" r="3" fill="#8a5a5a"/><circle cx="83.1" cy="104.0" r="3" fill="#8a5a5a"/><circle cx="98.8" cy="104.0" r="3" fill="#8a5a5a"/><circle cx="114.5" cy="104.0" r="3" fill="#8a5a5a"/><circle cx="130.2" cy="104.0" r="3" fill="#8a5a5a"/><circle cx="145.9" cy="104.0" r="3" fill="#8a5a5a"/><circle cx="161.6" cy="104.0" r="3" fill="#8a5a5a"/><circle cx="177.3" cy="104.0" r="3" fill="#8a5a5a"/><circle cx="193.0" cy="104.0" r="3" fill="#8a5a5a"/><circle cx="208.7" cy="104.0" r="3" fill="#8a5a5a"/><circle cx="224.4" cy="104.0" r="3" fill="#8a5a5a"/><circle cx="240.1" cy="104.0" r="3" fill="#8a5a5a"/><circle cx="255.8" cy="104.0" r="3" fill="#8a5a5a"/><circle cx="271.5" cy="104.0" r="3" fill="#8a5a5a"/><circle cx="287.2" cy="104.0" r="3" fill="#8a5a5a"/><circle cx="302.9" cy="104.0" r="3" fill="#8a5a5a"/><circle cx="318.6" cy="104.0" r="3" fill="#8a5a5a"/><circle cx="334.3" cy="104.0" r="3" fill="#8a5a5a"/><circle cx="350.0" cy="104.0" r="3" fill="#8a5a5a"/><circle cx="365.7" cy="104.0" r="3" fill="#8a5a5a"/><circle cx="381.4" cy="104.0" r="3" fill="#8a5a5a"/><circle cx="397.1" cy="104.0" r="3" fill="#8a5a5a"/><circle cx="412.8" cy="104.0" r="3" fill="#8a5a5a"/><circle cx="428.5" cy="104.0" r="3" fill="#8a5a5a"/><circle cx="444.2" cy="104.0" r="3" fill="#8a5a5a"/><circle cx="459.9" cy="104.0" r="3" fill="#8a5a5a"/><circle cx="475.6" cy="104.0" r="3" fill="#8a5a5a"/><circle cx="491.3" cy="104.0" r="3" fill="#8a5a5a"/><circle cx="507.0" cy="104.0" r="3" fill="#8a5a5a"/><circle cx="522.7" cy="104.0" r="3" fill="#8a5a5a"/><circle cx="538.4" cy="104.0" r="3" fill="#8a5a5a"/><circle cx="554.1" cy="104.0" r="3" fill="#8a5a5a"/><circle cx="569.8" cy="104.0" r="3" fill="#8a5a5a"/><circle cx="585.5" cy="104.0" r="3" fill="#8a5a5a"/><circle cx="601.2" cy="104.0" r="3" fill="#8a5a5a"/><circle cx="616.9" cy="104.0" r="3" fill="#8a5a5a"/><circle cx="632.6" cy="104.0" r="3" fill="#8a5a5a"/><circle cx="648.3" cy="104.0" r="3" fill="#8a5a5a"/><circle cx="664.0" cy="104.0" r="3" fill="#8a5a5a"/>
<polyline fill="none" stroke="#3fb950" stroke-width="2.5" stroke-linejoin="round" points="36.0,198.0 51.7,198.0 67.4,198.0 83.1,198.0 98.8,198.0 114.5,198.0 130.2,198.0 145.9,198.0 161.6,198.0 177.3,198.0 193.0,198.0 208.7,198.0 224.4,198.0 240.1,198.0 255.8,198.0 271.5,198.0 287.2,198.0 302.9,198.0 318.6,198.0 334.3,198.0 350.0,198.0 365.7,198.0 381.4,198.0 397.1,198.0 412.8,198.0 428.5,198.0 444.2,198.0 459.9,198.0 475.6,198.0 491.3,198.0 507.0,198.0 522.7,198.0 538.4,198.0 554.1,198.0 569.8,198.0 585.5,198.0 601.2,198.0 616.9,198.0 632.6,198.0 648.3,198.0 664.0,198.0"/><circle cx="36.0" cy="198.0" r="3" fill="#3fb950"/><circle cx="51.7" cy="198.0" r="3" fill="#3fb950"/><circle cx="67.4" cy="198.0" r="3" fill="#3fb950"/><circle cx="83.1" cy="198.0" r="3" fill="#3fb950"/><circle cx="98.8" cy="198.0" r="3" fill="#3fb950"/><circle cx="114.5" cy="198.0" r="3" fill="#3fb950"/><circle cx="130.2" cy="198.0" r="3" fill="#3fb950"/><circle cx="145.9" cy="198.0" r="3" fill="#3fb950"/><circle cx="161.6" cy="198.0" r="3" fill="#3fb950"/><circle cx="177.3" cy="198.0" r="3" fill="#3fb950"/><circle cx="193.0" cy="198.0" r="3" fill="#3fb950"/><circle cx="208.7" cy="198.0" r="3" fill="#3fb950"/><circle cx="224.4" cy="198.0" r="3" fill="#3fb950"/><circle cx="240.1" cy="198.0" r="3" fill="#3fb950"/><circle cx="255.8" cy="198.0" r="3" fill="#3fb950"/><circle cx="271.5" cy="198.0" r="3" fill="#3fb950"/><circle cx="287.2" cy="198.0" r="3" fill="#3fb950"/><circle cx="302.9" cy="198.0" r="3" fill="#3fb950"/><circle cx="318.6" cy="198.0" r="3" fill="#3fb950"/><circle cx="334.3" cy="198.0" r="3" fill="#3fb950"/><circle cx="350.0" cy="198.0" r="3" fill="#3fb950"/><circle cx="365.7" cy="198.0" r="3" fill="#3fb950"/><circle cx="381.4" cy="198.0" r="3" fill="#3fb950"/><circle cx="397.1" cy="198.0" r="3" fill="#3fb950"/><circle cx="412.8" cy="198.0" r="3" fill="#3fb950"/><circle cx="428.5" cy="198.0" r="3" fill="#3fb950"/><circle cx="444.2" cy="198.0" r="3" fill="#3fb950"/><circle cx="459.9" cy="198.0" r="3" fill="#3fb950"/><circle cx="475.6" cy="198.0" r="3" fill="#3fb950"/><circle cx="491.3" cy="198.0" r="3" fill="#3fb950"/><circle cx="507.0" cy="198.0" r="3" fill="#3fb950"/><circle cx="522.7" cy="198.0" r="3" fill="#3fb950"/><circle cx="538.4" cy="198.0" r="3" fill="#3fb950"/><circle cx="554.1" cy="198.0" r="3" fill="#3fb950"/><circle cx="569.8" cy="198.0" r="3" fill="#3fb950"/><circle cx="585.5" cy="198.0" r="3" fill="#3fb950"/><circle cx="601.2" cy="198.0" r="3" fill="#3fb950"/><circle cx="616.9" cy="198.0" r="3" fill="#3fb950"/><circle cx="632.6" cy="198.0" r="3" fill="#3fb950"/><circle cx="648.3" cy="198.0" r="3" fill="#3fb950"/><circle cx="664.0" cy="198.0" r="3" fill="#3fb950"/>
<polyline fill="none" stroke="#4aa3ff" stroke-width="2.5" stroke-linejoin="round" points="36.0,102.6 51.7,102.6 67.4,102.6 83.1,102.6 98.8,102.6 114.5,102.6 130.2,102.6 145.9,102.6 161.6,102.6 177.3,102.6 193.0,102.6 208.7,102.6 224.4,102.6 240.1,102.6 255.8,102.6 271.5,88.2 287.2,81.4 302.9,76.3 318.6,76.3 334.3,61.2 350.0,61.2 365.7,61.2 381.4,49.3 397.1,49.3 412.8,49.3 428.5,43.9 444.2,43.2 459.9,43.2 475.6,42.5 491.3,42.5 507.0,41.4 522.7,39.2 538.4,36.7 554.1,36.0 569.8,36.0 585.5,36.0 601.2,36.0 616.9,36.0 632.6,36.0 648.3,36.0 664.0,36.0"/><circle cx="36.0" cy="102.6" r="3" fill="#4aa3ff"/><circle cx="51.7" cy="102.6" r="3" fill="#4aa3ff"/><circle cx="67.4" cy="102.6" r="3" fill="#4aa3ff"/><circle cx="83.1" cy="102.6" r="3" fill="#4aa3ff"/><circle cx="98.8" cy="102.6" r="3" fill="#4aa3ff"/><circle cx="114.5" cy="102.6" r="3" fill="#4aa3ff"/><circle cx="130.2" cy="102.6" r="3" fill="#4aa3ff"/><circle cx="145.9" cy="102.6" r="3" fill="#4aa3ff"/><circle cx="161.6" cy="102.6" r="3" fill="#4aa3ff"/><circle cx="177.3" cy="102.6" r="3" fill="#4aa3ff"/><circle cx="193.0" cy="102.6" r="3" fill="#4aa3ff"/><circle cx="208.7" cy="102.6" r="3" fill="#4aa3ff"/><circle cx="224.4" cy="102.6" r="3" fill="#4aa3ff"/><circle cx="240.1" cy="102.6" r="3" fill="#4aa3ff"/><circle cx="255.8" cy="102.6" r="3" fill="#4aa3ff"/><circle cx="271.5" cy="88.2" r="3" fill="#4aa3ff"/><circle cx="287.2" cy="81.4" r="3" fill="#4aa3ff"/><circle cx="302.9" cy="76.3" r="3" fill="#4aa3ff"/><circle cx="318.6" cy="76.3" r="3" fill="#4aa3ff"/><circle cx="334.3" cy="61.2" r="3" fill="#4aa3ff"/><circle cx="350.0" cy="61.2" r="3" fill="#4aa3ff"/><circle cx="365.7" cy="61.2" r="3" fill="#4aa3ff"/><circle cx="381.4" cy="49.3" r="3" fill="#4aa3ff"/><circle cx="397.1" cy="49.3" r="3" fill="#4aa3ff"/><circle cx="412.8" cy="49.3" r="3" fill="#4aa3ff"/><circle cx="428.5" cy="43.9" r="3" fill="#4aa3ff"/><circle cx="444.2" cy="43.2" r="3" fill="#4aa3ff"/><circle cx="459.9" cy="43.2" r="3" fill="#4aa3ff"/><circle cx="475.6" cy="42.5" r="3" fill="#4aa3ff"/><circle cx="491.3" cy="42.5" r="3" fill="#4aa3ff"/><circle cx="507.0" cy="41.4" r="3" fill="#4aa3ff"/><circle cx="522.7" cy="39.2" r="3" fill="#4aa3ff"/><circle cx="538.4" cy="36.7" r="3" fill="#4aa3ff"/><circle cx="554.1" cy="36.0" r="3" fill="#4aa3ff"/><circle cx="569.8" cy="36.0" r="3" fill="#4aa3ff"/><circle cx="585.5" cy="36.0" r="3" fill="#4aa3ff"/><circle cx="601.2" cy="36.0" r="3" fill="#4aa3ff"/><circle cx="616.9" cy="36.0" r="3" fill="#4aa3ff"/><circle cx="632.6" cy="36.0" r="3" fill="#4aa3ff"/><circle cx="648.3" cy="36.0" r="3" fill="#4aa3ff"/><circle cx="664.0" cy="36.0" r="3" fill="#4aa3ff"/>
<text x="36" y="225" fill="#6b7280" font-size="11">2026-06-26</text>
<text x="664" y="225" fill="#6b7280" font-size="11" text-anchor="end">2026-06-30</text>
<text x="36" y="212" font-family="system-ui,sans-serif" font-size="11">
<tspan fill="#4aa3ff">&#9679; open FPs</tspan>  <tspan fill="#3fb950">&#9679; closed (Anthropic acting)</tspan>  <tspan fill="#8a5a5a">&#9679; harness withdrawn</tspan></text>
<text x="664" y="22" text-anchor="end" font-family="system-ui,sans-serif" font-size="12">
<tspan fill="#4aa3ff">open 450</tspan>  <tspan fill="#3fb950">closed 0</tspan>  <tspan fill="#8a5a5a">harness 261</tspan></text>
</svg>