<svg xmlns="http://www.w3.org/2000/svg" width="700" height="234" viewBox="0 0 700 234" role="img">
<rect width="700" height="234" rx="12" fill="#16181d"/>
<text x="36" y="22" fill="#e8eaed" font-family="system-ui,sans-serif" font-size="14" font-weight="700">Is Anthropic acting? cyber/aup false positives over time</text>
<line x1="36" y1="198.0" x2="664" y2="198.0" stroke="#2a2e37" stroke-width="1"/><text x="30" y="202.0" fill="#6b7280" font-size="11" text-anchor="end">0</text><line x1="36" y1="117.0" x2="664" y2="117.0" stroke="#2a2e37" stroke-width="1"/><text x="30" y="121.0" fill="#6b7280" font-size="11" text-anchor="end">360</text><line x1="36" y1="36.0" x2="664" y2="36.0" stroke="#2a2e37" stroke-width="1"/><text x="30" y="40.0" fill="#6b7280" font-size="11" text-anchor="end">721</text>

<polyline fill="none" stroke="#8a5a5a" stroke-width="2.5" stroke-linejoin="round" points="36.0,139.4 42.6,139.4 49.2,139.4 55.8,139.4 62.4,139.4 69.1,139.4 75.7,139.4 82.3,139.4 88.9,139.4 95.5,139.4 102.1,139.4 108.7,139.4 115.3,139.4 121.9,139.4 128.5,139.4 135.2,139.4 141.8,139.4 148.4,139.4 155.0,139.4 161.6,139.4 168.2,139.4 174.8,139.4 181.4,139.4 188.0,139.4 194.7,139.4 201.3,139.4 207.9,139.4 214.5,139.4 221.1,139.4 227.7,139.4 234.3,139.4 240.9,139.4 247.5,139.4 254.1,139.4 260.8,139.4 267.4,139.4 274.0,139.4 280.6,139.4 287.2,139.4 293.8,139.4 300.4,139.4 307.0,139.4 313.6,139.4 320.3,139.4 326.9,139.4 333.5,139.4 340.1,139.4 346.7,139.4 353.3,139.4 359.9,139.4 366.5,151.0 373.1,151.0 379.7,151.0 386.4,151.0 393.0,151.0 399.6,151.0 406.2,151.0 412.8,151.0 419.4,151.0 426.0,151.0 432.6,151.0 439.2,151.0 445.9,151.0 452.5,151.0 459.1,151.0 465.7,151.0 472.3,151.0 478.9,151.0 485.5,151.0 492.1,151.0 498.7,151.0 505.3,151.0 512.0,151.0 518.6,151.0 525.2,151.0 531.8,151.0 538.4,151.0 545.0,151.0 551.6,151.0 558.2,151.0 564.8,151.0 571.5,151.0 578.1,151.0 584.7,151.0 591.3,164.3 597.9,164.3 604.5,167.2 611.1,167.2 617.7,167.4 624.3,167.7 630.9,167.7 637.6,167.9 644.2,169.9 650.8,178.7 657.4,180.0 664.0,188.1"/><circle cx="36.0" cy="139.4" r="3" fill="#8a5a5a"/><circle cx="42.6" cy="139.4" r="3" fill="#8a5a5a"/><circle cx="49.2" cy="139.4" r="3" fill="#8a5a5a"/><circle cx="55.8" cy="139.4" r="3" fill="#8a5a5a"/><circle cx="62.4" cy="139.4" r="3" fill="#8a5a5a"/><circle cx="69.1" cy="139.4" r="3" fill="#8a5a5a"/><circle cx="75.7" cy="139.4" r="3" fill="#8a5a5a"/><circle cx="82.3" cy="139.4" r="3" fill="#8a5a5a"/><circle cx="88.9" cy="139.4" r="3" fill="#8a5a5a"/><circle cx="95.5" cy="139.4" r="3" fill="#8a5a5a"/><circle cx="102.1" cy="139.4" r="3" fill="#8a5a5a"/><circle cx="108.7" cy="139.4" r="3" fill="#8a5a5a"/><circle cx="115.3" cy="139.4" r="3" fill="#8a5a5a"/><circle cx="121.9" cy="139.4" r="3" fill="#8a5a5a"/><circle cx="128.5" cy="139.4" r="3" fill="#8a5a5a"/><circle cx="135.2" cy="139.4" r="3" fill="#8a5a5a"/><circle cx="141.8" cy="139.4" r="3" fill="#8a5a5a"/><circle cx="148.4" cy="139.4" r="3" fill="#8a5a5a"/><circle cx="155.0" cy="139.4" r="3" fill="#8a5a5a"/><circle cx="161.6" cy="139.4" r="3" fill="#8a5a5a"/><circle cx="168.2" cy="139.4" r="3" fill="#8a5a5a"/><circle cx="174.8" cy="139.4" r="3" fill="#8a5a5a"/><circle cx="181.4" cy="139.4" r="3" fill="#8a5a5a"/><circle cx="188.0" cy="139.4" r="3" fill="#8a5a5a"/><circle cx="194.7" cy="139.4" r="3" fill="#8a5a5a"/><circle cx="201.3" cy="139.4" r="3" fill="#8a5a5a"/><circle cx="207.9" cy="139.4" r="3" fill="#8a5a5a"/><circle cx="214.5" cy="139.4" r="3" fill="#8a5a5a"/><circle cx="221.1" cy="139.4" r="3" fill="#8a5a5a"/><circle cx="227.7" cy="139.4" r="3" fill="#8a5a5a"/><circle cx="234.3" cy="139.4" r="3" fill="#8a5a5a"/><circle cx="240.9" cy="139.4" r="3" fill="#8a5a5a"/><circle cx="247.5" cy="139.4" r="3" fill="#8a5a5a"/><circle cx="254.1" cy="139.4" r="3" fill="#8a5a5a"/><circle cx="260.8" cy="139.4" r="3" fill="#8a5a5a"/><circle cx="267.4" cy="139.4" r="3" fill="#8a5a5a"/><circle cx="274.0" cy="139.4" r="3" fill="#8a5a5a"/><circle cx="280.6" cy="139.4" r="3" fill="#8a5a5a"/><circle cx="287.2" cy="139.4" r="3" fill="#8a5a5a"/><circle cx="293.8" cy="139.4" r="3" fill="#8a5a5a"/><circle cx="300.4" cy="139.4" r="3" fill="#8a5a5a"/><circle cx="307.0" cy="139.4" r="3" fill="#8a5a5a"/><circle cx="313.6" cy="139.4" r="3" fill="#8a5a5a"/><circle cx="320.3" cy="139.4" r="3" fill="#8a5a5a"/><circle cx="326.9" cy="139.4" r="3" fill="#8a5a5a"/><circle cx="333.5" cy="139.4" r="3" fill="#8a5a5a"/><circle cx="340.1" cy="139.4" r="3" fill="#8a5a5a"/><circle cx="346.7" cy="139.4" r="3" fill="#8a5a5a"/><circle cx="353.3" cy="139.4" r="3" fill="#8a5a5a"/><circle cx="359.9" cy="139.4" r="3" fill="#8a5a5a"/><circle cx="366.5" cy="151.0" r="3" fill="#8a5a5a"/><circle cx="373.1" cy="151.0" r="3" fill="#8a5a5a"/><circle cx="379.7" cy="151.0" r="3" fill="#8a5a5a"/><circle cx="386.4" cy="151.0" r="3" fill="#8a5a5a"/><circle cx="393.0" cy="151.0" r="3" fill="#8a5a5a"/><circle cx="399.6" cy="151.0" r="3" fill="#8a5a5a"/><circle cx="406.2" cy="151.0" r="3" fill="#8a5a5a"/><circle cx="412.8" cy="151.0" r="3" fill="#8a5a5a"/><circle cx="419.4" cy="151.0" r="3" fill="#8a5a5a"/><circle cx="426.0" cy="151.0" r="3" fill="#8a5a5a"/><circle cx="432.6" cy="151.0" r="3" fill="#8a5a5a"/><circle cx="439.2" cy="151.0" r="3" fill="#8a5a5a"/><circle cx="445.9" cy="151.0" r="3" fill="#8a5a5a"/><circle cx="452.5" cy="151.0" r="3" fill="#8a5a5a"/><circle cx="459.1" cy="151.0" r="3" fill="#8a5a5a"/><circle cx="465.7" cy="151.0" r="3" fill="#8a5a5a"/><circle cx="472.3" cy="151.0" r="3" fill="#8a5a5a"/><circle cx="478.9" cy="151.0" r="3" fill="#8a5a5a"/><circle cx="485.5" cy="151.0" r="3" fill="#8a5a5a"/><circle cx="492.1" cy="151.0" r="3" fill="#8a5a5a"/><circle cx="498.7" cy="151.0" r="3" fill="#8a5a5a"/><circle cx="505.3" cy="151.0" r="3" fill="#8a5a5a"/><circle cx="512.0" cy="151.0" r="3" fill="#8a5a5a"/><circle cx="518.6" cy="151.0" r="3" fill="#8a5a5a"/><circle cx="525.2" cy="151.0" r="3" fill="#8a5a5a"/><circle cx="531.8" cy="151.0" r="3" fill="#8a5a5a"/><circle cx="538.4" cy="151.0" r="3" fill="#8a5a5a"/><circle cx="545.0" cy="151.0" r="3" fill="#8a5a5a"/><circle cx="551.6" cy="151.0" r="3" fill="#8a5a5a"/><circle cx="558.2" cy="151.0" r="3" fill="#8a5a5a"/><circle cx="564.8" cy="151.0" r="3" fill="#8a5a5a"/><circle cx="571.5" cy="151.0" r="3" fill="#8a5a5a"/><circle cx="578.1" cy="151.0" r="3" fill="#8a5a5a"/><circle cx="584.7" cy="151.0" r="3" fill="#8a5a5a"/><circle cx="591.3" cy="164.3" r="3" fill="#8a5a5a"/><circle cx="597.9" cy="164.3" r="3" fill="#8a5a5a"/><circle cx="604.5" cy="167.2" r="3" fill="#8a5a5a"/><circle cx="611.1" cy="167.2" r="3" fill="#8a5a5a"/><circle cx="617.7" cy="167.4" r="3" fill="#8a5a5a"/><circle cx="624.3" cy="167.7" r="3" fill="#8a5a5a"/><circle cx="630.9" cy="167.7" r="3" fill="#8a5a5a"/><circle cx="637.6" cy="167.9" r="3" fill="#8a5a5a"/><circle cx="644.2" cy="169.9" r="3" fill="#8a5a5a"/><circle cx="650.8" cy="178.7" r="3" fill="#8a5a5a"/><circle cx="657.4" cy="180.0" r="3" fill="#8a5a5a"/><circle cx="664.0" cy="188.1" r="3" fill="#8a5a5a"/>
<polyline fill="none" stroke="#3fb950" stroke-width="2.5" stroke-linejoin="round" points="36.0,198.0 42.6,198.0 49.2,198.0 55.8,198.0 62.4,198.0 69.1,198.0 75.7,198.0 82.3,198.0 88.9,198.0 95.5,198.0 102.1,198.0 108.7,198.0 115.3,198.0 121.9,198.0 128.5,198.0 135.2,198.0 141.8,198.0 148.4,198.0 155.0,198.0 161.6,198.0 168.2,198.0 174.8,198.0 181.4,198.0 188.0,198.0 194.7,198.0 201.3,198.0 207.9,198.0 214.5,198.0 221.1,198.0 227.7,198.0 234.3,198.0 240.9,198.0 247.5,198.0 254.1,198.0 260.8,198.0 267.4,198.0 274.0,198.0 280.6,198.0 287.2,198.0 293.8,198.0 300.4,198.0 307.0,198.0 313.6,198.0 320.3,191.0 326.9,191.0 333.5,191.0 340.1,191.0 346.7,191.0 353.3,191.0 359.9,191.0 366.5,192.4 373.1,192.4 379.7,189.9 386.4,189.9 393.0,189.9 399.6,189.9 406.2,189.9 412.8,189.7 419.4,189.7 426.0,189.7 432.6,189.5 439.2,189.5 445.9,189.5 452.5,189.5 459.1,189.5 465.7,189.5 472.3,189.5 478.9,189.5 485.5,189.5 492.1,189.5 498.7,189.5 505.3,189.5 512.0,189.5 518.6,189.5 525.2,189.5 531.8,189.5 538.4,189.5 545.0,189.5 551.6,189.5 558.2,189.5 564.8,189.5 571.5,188.3 578.1,188.3 584.7,188.3 591.3,189.9 597.9,189.9 604.5,189.9 611.1,189.9 617.7,189.9 624.3,189.9 630.9,189.9 637.6,189.9 644.2,189.9 650.8,190.1 657.4,190.1 664.0,190.1"/><circle cx="36.0" cy="198.0" r="3" fill="#3fb950"/><circle cx="42.6" cy="198.0" r="3" fill="#3fb950"/><circle cx="49.2" cy="198.0" r="3" fill="#3fb950"/><circle cx="55.8" cy="198.0" r="3" fill="#3fb950"/><circle cx="62.4" cy="198.0" r="3" fill="#3fb950"/><circle cx="69.1" cy="198.0" r="3" fill="#3fb950"/><circle cx="75.7" cy="198.0" r="3" fill="#3fb950"/><circle cx="82.3" cy="198.0" r="3" fill="#3fb950"/><circle cx="88.9" cy="198.0" r="3" fill="#3fb950"/><circle cx="95.5" cy="198.0" r="3" fill="#3fb950"/><circle cx="102.1" cy="198.0" r="3" fill="#3fb950"/><circle cx="108.7" cy="198.0" r="3" fill="#3fb950"/><circle cx="115.3" cy="198.0" r="3" fill="#3fb950"/><circle cx="121.9" cy="198.0" r="3" fill="#3fb950"/><circle cx="128.5" cy="198.0" r="3" fill="#3fb950"/><circle cx="135.2" cy="198.0" r="3" fill="#3fb950"/><circle cx="141.8" cy="198.0" r="3" fill="#3fb950"/><circle cx="148.4" cy="198.0" r="3" fill="#3fb950"/><circle cx="155.0" cy="198.0" r="3" fill="#3fb950"/><circle cx="161.6" cy="198.0" r="3" fill="#3fb950"/><circle cx="168.2" cy="198.0" r="3" fill="#3fb950"/><circle cx="174.8" cy="198.0" r="3" fill="#3fb950"/><circle cx="181.4" cy="198.0" r="3" fill="#3fb950"/><circle cx="188.0" cy="198.0" r="3" fill="#3fb950"/><circle cx="194.7" cy="198.0" r="3" fill="#3fb950"/><circle cx="201.3" cy="198.0" r="3" fill="#3fb950"/><circle cx="207.9" cy="198.0" r="3" fill="#3fb950"/><circle cx="214.5" cy="198.0" r="3" fill="#3fb950"/><circle cx="221.1" cy="198.0" r="3" fill="#3fb950"/><circle cx="227.7" cy="198.0" r="3" fill="#3fb950"/><circle cx="234.3" cy="198.0" r="3" fill="#3fb950"/><circle cx="240.9" cy="198.0" r="3" fill="#3fb950"/><circle cx="247.5" cy="198.0" r="3" fill="#3fb950"/><circle cx="254.1" cy="198.0" r="3" fill="#3fb950"/><circle cx="260.8" cy="198.0" r="3" fill="#3fb950"/><circle cx="267.4" cy="198.0" r="3" fill="#3fb950"/><circle cx="274.0" cy="198.0" r="3" fill="#3fb950"/><circle cx="280.6" cy="198.0" r="3" fill="#3fb950"/><circle cx="287.2" cy="198.0" r="3" fill="#3fb950"/><circle cx="293.8" cy="198.0" r="3" fill="#3fb950"/><circle cx="300.4" cy="198.0" r="3" fill="#3fb950"/><circle cx="307.0" cy="198.0" r="3" fill="#3fb950"/><circle cx="313.6" cy="198.0" r="3" fill="#3fb950"/><circle cx="320.3" cy="191.0" r="3" fill="#3fb950"/><circle cx="326.9" cy="191.0" r="3" fill="#3fb950"/><circle cx="333.5" cy="191.0" r="3" fill="#3fb950"/><circle cx="340.1" cy="191.0" r="3" fill="#3fb950"/><circle cx="346.7" cy="191.0" r="3" fill="#3fb950"/><circle cx="353.3" cy="191.0" r="3" fill="#3fb950"/><circle cx="359.9" cy="191.0" r="3" fill="#3fb950"/><circle cx="366.5" cy="192.4" r="3" fill="#3fb950"/><circle cx="373.1" cy="192.4" r="3" fill="#3fb950"/><circle cx="379.7" cy="189.9" r="3" fill="#3fb950"/><circle cx="386.4" cy="189.9" r="3" fill="#3fb950"/><circle cx="393.0" cy="189.9" r="3" fill="#3fb950"/><circle cx="399.6" cy="189.9" r="3" fill="#3fb950"/><circle cx="406.2" cy="189.9" r="3" fill="#3fb950"/><circle cx="412.8" cy="189.7" r="3" fill="#3fb950"/><circle cx="419.4" cy="189.7" r="3" fill="#3fb950"/><circle cx="426.0" cy="189.7" r="3" fill="#3fb950"/><circle cx="432.6" cy="189.5" r="3" fill="#3fb950"/><circle cx="439.2" cy="189.5" r="3" fill="#3fb950"/><circle cx="445.9" cy="189.5" r="3" fill="#3fb950"/><circle cx="452.5" cy="189.5" r="3" fill="#3fb950"/><circle cx="459.1" cy="189.5" r="3" fill="#3fb950"/><circle cx="465.7" cy="189.5" r="3" fill="#3fb950"/><circle cx="472.3" cy="189.5" r="3" fill="#3fb950"/><circle cx="478.9" cy="189.5" r="3" fill="#3fb950"/><circle cx="485.5" cy="189.5" r="3" fill="#3fb950"/><circle cx="492.1" cy="189.5" r="3" fill="#3fb950"/><circle cx="498.7" cy="189.5" r="3" fill="#3fb950"/><circle cx="505.3" cy="189.5" r="3" fill="#3fb950"/><circle cx="512.0" cy="189.5" r="3" fill="#3fb950"/><circle cx="518.6" cy="189.5" r="3" fill="#3fb950"/><circle cx="525.2" cy="189.5" r="3" fill="#3fb950"/><circle cx="531.8" cy="189.5" r="3" fill="#3fb950"/><circle cx="538.4" cy="189.5" r="3" fill="#3fb950"/><circle cx="545.0" cy="189.5" r="3" fill="#3fb950"/><circle cx="551.6" cy="189.5" r="3" fill="#3fb950"/><circle cx="558.2" cy="189.5" r="3" fill="#3fb950"/><circle cx="564.8" cy="189.5" r="3" fill="#3fb950"/><circle cx="571.5" cy="188.3" r="3" fill="#3fb950"/><circle cx="578.1" cy="188.3" r="3" fill="#3fb950"/><circle cx="584.7" cy="188.3" r="3" fill="#3fb950"/><circle cx="591.3" cy="189.9" r="3" fill="#3fb950"/><circle cx="597.9" cy="189.9" r="3" fill="#3fb950"/><circle cx="604.5" cy="189.9" r="3" fill="#3fb950"/><circle cx="611.1" cy="189.9" r="3" fill="#3fb950"/><circle cx="617.7" cy="189.9" r="3" fill="#3fb950"/><circle cx="624.3" cy="189.9" r="3" fill="#3fb950"/><circle cx="630.9" cy="189.9" r="3" fill="#3fb950"/><circle cx="637.6" cy="189.9" r="3" fill="#3fb950"/><circle cx="644.2" cy="189.9" r="3" fill="#3fb950"/><circle cx="650.8" cy="190.1" r="3" fill="#3fb950"/><circle cx="657.4" cy="190.1" r="3" fill="#3fb950"/><circle cx="664.0" cy="190.1" r="3" fill="#3fb950"/>
<polyline fill="none" stroke="#4aa3ff" stroke-width="2.5" stroke-linejoin="round" points="36.0,138.5 42.6,138.5 49.2,138.5 55.8,138.5 62.4,138.5 69.1,138.5 75.7,138.5 82.3,138.5 88.9,138.5 95.5,138.5 102.1,138.5 108.7,138.5 115.3,138.5 121.9,138.5 128.5,138.5 135.2,129.5 141.8,125.2 148.4,122.1 155.0,122.1 161.6,112.6 168.2,112.6 174.8,112.6 181.4,105.2 188.0,105.2 194.7,105.2 201.3,101.8 207.9,101.4 214.5,101.4 221.1,100.9 227.7,100.9 234.3,100.3 240.9,98.9 247.5,97.3 254.1,96.9 260.8,96.9 267.4,96.9 274.0,96.9 280.6,96.9 287.2,96.9 293.8,96.9 300.4,96.9 307.0,96.9 313.6,96.9 320.3,103.9 326.9,103.9 333.5,103.9 340.1,103.9 346.7,103.9 353.3,101.2 359.9,95.1 366.5,70.8 373.1,70.8 379.7,73.3 386.4,73.3 393.0,73.3 399.6,73.3 406.2,73.3 412.8,73.5 419.4,73.5 426.0,73.5 432.6,73.7 439.2,73.7 445.9,73.7 452.5,73.7 459.1,73.7 465.7,73.7 472.3,73.7 478.9,73.7 485.5,73.7 492.1,73.7 498.7,73.7 505.3,73.7 512.0,73.7 518.6,73.7 525.2,73.7 531.8,73.7 538.4,73.7 545.0,73.7 551.6,73.7 558.2,73.7 564.8,73.7 571.5,74.9 578.1,74.9 584.7,74.9 591.3,60.0 597.9,60.0 604.5,57.1 611.1,57.1 617.7,56.9 624.3,56.7 630.9,56.7 637.6,56.4 644.2,54.4 650.8,45.4 657.4,44.1 664.0,36.0"/><circle cx="36.0" cy="138.5" r="3" fill="#4aa3ff"/><circle cx="42.6" cy="138.5" r="3" fill="#4aa3ff"/><circle cx="49.2" cy="138.5" r="3" fill="#4aa3ff"/><circle cx="55.8" cy="138.5" r="3" fill="#4aa3ff"/><circle cx="62.4" cy="138.5" r="3" fill="#4aa3ff"/><circle cx="69.1" cy="138.5" r="3" fill="#4aa3ff"/><circle cx="75.7" cy="138.5" r="3" fill="#4aa3ff"/><circle cx="82.3" cy="138.5" r="3" fill="#4aa3ff"/><circle cx="88.9" cy="138.5" r="3" fill="#4aa3ff"/><circle cx="95.5" cy="138.5" r="3" fill="#4aa3ff"/><circle cx="102.1" cy="138.5" r="3" fill="#4aa3ff"/><circle cx="108.7" cy="138.5" r="3" fill="#4aa3ff"/><circle cx="115.3" cy="138.5" r="3" fill="#4aa3ff"/><circle cx="121.9" cy="138.5" r="3" fill="#4aa3ff"/><circle cx="128.5" cy="138.5" r="3" fill="#4aa3ff"/><circle cx="135.2" cy="129.5" r="3" fill="#4aa3ff"/><circle cx="141.8" cy="125.2" r="3" fill="#4aa3ff"/><circle cx="148.4" cy="122.1" r="3" fill="#4aa3ff"/><circle cx="155.0" cy="122.1" r="3" fill="#4aa3ff"/><circle cx="161.6" cy="112.6" r="3" fill="#4aa3ff"/><circle cx="168.2" cy="112.6" r="3" fill="#4aa3ff"/><circle cx="174.8" cy="112.6" r="3" fill="#4aa3ff"/><circle cx="181.4" cy="105.2" r="3" fill="#4aa3ff"/><circle cx="188.0" cy="105.2" r="3" fill="#4aa3ff"/><circle cx="194.7" cy="105.2" r="3" fill="#4aa3ff"/><circle cx="201.3" cy="101.8" r="3" fill="#4aa3ff"/><circle cx="207.9" cy="101.4" r="3" fill="#4aa3ff"/><circle cx="214.5" cy="101.4" r="3" fill="#4aa3ff"/><circle cx="221.1" cy="100.9" r="3" fill="#4aa3ff"/><circle cx="227.7" cy="100.9" r="3" fill="#4aa3ff"/><circle cx="234.3" cy="100.3" r="3" fill="#4aa3ff"/><circle cx="240.9" cy="98.9" r="3" fill="#4aa3ff"/><circle cx="247.5" cy="97.3" r="3" fill="#4aa3ff"/><circle cx="254.1" cy="96.9" r="3" fill="#4aa3ff"/><circle cx="260.8" cy="96.9" r="3" fill="#4aa3ff"/><circle cx="267.4" cy="96.9" r="3" fill="#4aa3ff"/><circle cx="274.0" cy="96.9" r="3" fill="#4aa3ff"/><circle cx="280.6" cy="96.9" r="3" fill="#4aa3ff"/><circle cx="287.2" cy="96.9" r="3" fill="#4aa3ff"/><circle cx="293.8" cy="96.9" r="3" fill="#4aa3ff"/><circle cx="300.4" cy="96.9" r="3" fill="#4aa3ff"/><circle cx="307.0" cy="96.9" r="3" fill="#4aa3ff"/><circle cx="313.6" cy="96.9" r="3" fill="#4aa3ff"/><circle cx="320.3" cy="103.9" r="3" fill="#4aa3ff"/><circle cx="326.9" cy="103.9" r="3" fill="#4aa3ff"/><circle cx="333.5" cy="103.9" r="3" fill="#4aa3ff"/><circle cx="340.1" cy="103.9" r="3" fill="#4aa3ff"/><circle cx="346.7" cy="103.9" r="3" fill="#4aa3ff"/><circle cx="353.3" cy="101.2" r="3" fill="#4aa3ff"/><circle cx="359.9" cy="95.1" r="3" fill="#4aa3ff"/><circle cx="366.5" cy="70.8" r="3" fill="#4aa3ff"/><circle cx="373.1" cy="70.8" r="3" fill="#4aa3ff"/><circle cx="379.7" cy="73.3" r="3" fill="#4aa3ff"/><circle cx="386.4" cy="73.3" r="3" fill="#4aa3ff"/><circle cx="393.0" cy="73.3" r="3" fill="#4aa3ff"/><circle cx="399.6" cy="73.3" r="3" fill="#4aa3ff"/><circle cx="406.2" cy="73.3" r="3" fill="#4aa3ff"/><circle cx="412.8" cy="73.5" r="3" fill="#4aa3ff"/><circle cx="419.4" cy="73.5" r="3" fill="#4aa3ff"/><circle cx="426.0" cy="73.5" r="3" fill="#4aa3ff"/><circle cx="432.6" cy="73.7" r="3" fill="#4aa3ff"/><circle cx="439.2" cy="73.7" r="3" fill="#4aa3ff"/><circle cx="445.9" cy="73.7" r="3" fill="#4aa3ff"/><circle cx="452.5" cy="73.7" r="3" fill="#4aa3ff"/><circle cx="459.1" cy="73.7" r="3" fill="#4aa3ff"/><circle cx="465.7" cy="73.7" r="3" fill="#4aa3ff"/><circle cx="472.3" cy="73.7" r="3" fill="#4aa3ff"/><circle cx="478.9" cy="73.7" r="3" fill="#4aa3ff"/><circle cx="485.5" cy="73.7" r="3" fill="#4aa3ff"/><circle cx="492.1" cy="73.7" r="3" fill="#4aa3ff"/><circle cx="498.7" cy="73.7" r="3" fill="#4aa3ff"/><circle cx="505.3" cy="73.7" r="3" fill="#4aa3ff"/><circle cx="512.0" cy="73.7" r="3" fill="#4aa3ff"/><circle cx="518.6" cy="73.7" r="3" fill="#4aa3ff"/><circle cx="525.2" cy="73.7" r="3" fill="#4aa3ff"/><circle cx="531.8" cy="73.7" r="3" fill="#4aa3ff"/><circle cx="538.4" cy="73.7" r="3" fill="#4aa3ff"/><circle cx="545.0" cy="73.7" r="3" fill="#4aa3ff"/><circle cx="551.6" cy="73.7" r="3" fill="#4aa3ff"/><circle cx="558.2" cy="73.7" r="3" fill="#4aa3ff"/><circle cx="564.8" cy="73.7" r="3" fill="#4aa3ff"/><circle cx="571.5" cy="74.9" r="3" fill="#4aa3ff"/><circle cx="578.1" cy="74.9" r="3" fill="#4aa3ff"/><circle cx="584.7" cy="74.9" r="3" fill="#4aa3ff"/><circle cx="591.3" cy="60.0" r="3" fill="#4aa3ff"/><circle cx="597.9" cy="60.0" r="3" fill="#4aa3ff"/><circle cx="604.5" cy="57.1" r="3" fill="#4aa3ff"/><circle cx="611.1" cy="57.1" r="3" fill="#4aa3ff"/><circle cx="617.7" cy="56.9" r="3" fill="#4aa3ff"/><circle cx="624.3" cy="56.7" r="3" fill="#4aa3ff"/><circle cx="630.9" cy="56.7" r="3" fill="#4aa3ff"/><circle cx="637.6" cy="56.4" r="3" fill="#4aa3ff"/><circle cx="644.2" cy="54.4" r="3" fill="#4aa3ff"/><circle cx="650.8" cy="45.4" r="3" fill="#4aa3ff"/><circle cx="657.4" cy="44.1" r="3" fill="#4aa3ff"/><circle cx="664.0" cy="36.0" r="3" fill="#4aa3ff"/>
<text x="36" y="225" fill="#6b7280" font-size="11">2026-06-26</text>
<text x="664" y="225" fill="#6b7280" font-size="11" text-anchor="end">2026-07-06</text>
<text x="36" y="212" font-family="system-ui,sans-serif" font-size="11">
<tspan fill="#4aa3ff">&#9679; open FPs</tspan>  <tspan fill="#3fb950">&#9679; closed (Anthropic acting)</tspan>  <tspan fill="#8a5a5a">&#9679; harness withdrawn</tspan></text>
<text x="664" y="22" text-anchor="end" font-family="system-ui,sans-serif" font-size="12">
<tspan fill="#4aa3ff">open 721</tspan>  <tspan fill="#3fb950">closed 35</tspan>  <tspan fill="#8a5a5a">harness 44</tspan></text>
</svg>