<svg xmlns="http://www.w3.org/2000/svg" width="700" height="234" viewBox="0 0 700 234" role="img">
<rect width="700" height="234" rx="12" fill="#16181d"/>
<text x="36" y="22" fill="#e8eaed" font-family="system-ui,sans-serif" font-size="14" font-weight="700">Is Anthropic acting? cyber/aup false positives over time</text>
<line x1="36" y1="198.0" x2="664" y2="198.0" stroke="#2a2e37" stroke-width="1"/><text x="30" y="202.0" fill="#6b7280" font-size="11" text-anchor="end">0</text><line x1="36" y1="117.0" x2="664" y2="117.0" stroke="#2a2e37" stroke-width="1"/><text x="30" y="121.0" fill="#6b7280" font-size="11" text-anchor="end">400</text><line x1="36" y1="36.0" x2="664" y2="36.0" stroke="#2a2e37" stroke-width="1"/><text x="30" y="40.0" fill="#6b7280" font-size="11" text-anchor="end">800</text>

<polyline fill="none" stroke="#8a5a5a" stroke-width="2.5" stroke-linejoin="round" points="36.0,145.1 39.1,145.1 42.1,145.1 45.2,145.1 48.3,145.1 51.3,145.1 54.4,145.1 57.4,145.1 60.5,145.1 63.6,145.1 66.6,145.1 69.7,145.1 72.8,145.1 75.8,145.1 78.9,145.1 82.0,145.1 85.0,145.1 88.1,145.1 91.1,145.1 94.2,145.1 97.3,145.1 100.3,145.1 103.4,145.1 106.5,145.1 109.5,145.1 112.6,145.1 115.6,145.1 118.7,145.1 121.8,145.1 124.8,145.1 127.9,145.1 131.0,145.1 134.0,145.1 137.1,145.1 140.2,145.1 143.2,145.1 146.3,145.1 149.3,145.1 152.4,145.1 155.5,145.1 158.5,145.1 161.6,145.1 164.7,145.1 167.7,145.1 170.8,145.1 173.9,145.1 176.9,145.1 180.0,145.1 183.0,145.1 186.1,145.1 189.2,155.7 192.2,155.7 195.3,155.7 198.4,155.7 201.4,155.7 204.5,155.7 207.6,155.7 210.6,155.7 213.7,155.7 216.7,155.7 219.8,155.7 222.9,155.7 225.9,155.7 229.0,155.7 232.1,155.7 235.1,155.7 238.2,155.7 241.2,155.7 244.3,155.7 247.4,155.7 250.4,155.7 253.5,155.7 256.6,155.7 259.6,155.7 262.7,155.7 265.8,155.7 268.8,155.7 271.9,155.7 274.9,155.7 278.0,155.7 281.1,155.7 284.1,155.7 287.2,155.7 290.3,155.7 293.3,167.6 296.4,167.6 299.5,170.3 302.5,170.3 305.6,170.5 308.6,170.7 311.7,170.7 314.8,170.9 317.8,172.7 320.9,180.6 324.0,181.8 327.0,189.1 330.1,190.5 333.2,195.2 336.2,198.0 339.3,198.0 342.3,198.0 345.4,198.0 348.5,198.0 351.5,198.0 354.6,198.0 357.7,198.0 360.7,198.0 363.8,198.0 366.8,198.0 369.9,198.0 373.0,198.0 376.0,198.0 379.1,198.0 382.2,198.0 385.2,198.0 388.3,198.0 391.4,198.0 394.4,198.0 397.5,198.0 400.5,198.0 403.6,198.0 406.7,198.0 409.7,198.0 412.8,198.0 415.9,198.0 418.9,198.0 422.0,198.0 425.1,198.0 428.1,198.0 431.2,198.0 434.2,198.0 437.3,198.0 440.4,198.0 443.4,198.0 446.5,198.0 449.6,198.0 452.6,198.0 455.7,198.0 458.8,198.0 461.8,198.0 464.9,198.0 467.9,198.0 471.0,198.0 474.1,198.0 477.1,198.0 480.2,198.0 483.3,198.0 486.3,198.0 489.4,198.0 492.4,198.0 495.5,198.0 498.6,198.0 501.6,198.0 504.7,198.0 507.8,198.0 510.8,198.0 513.9,198.0 517.0,198.0 520.0,198.0 523.1,198.0 526.1,198.0 529.2,198.0 532.3,198.0 535.3,198.0 538.4,198.0 541.5,198.0 544.5,198.0 547.6,198.0 550.7,198.0 553.7,198.0 556.8,198.0 559.8,198.0 562.9,198.0 566.0,198.0 569.0,198.0 572.1,198.0 575.2,198.0 578.2,198.0 581.3,198.0 584.4,198.0 587.4,198.0 590.5,198.0 593.5,198.0 596.6,198.0 599.7,198.0 602.7,198.0 605.8,198.0 608.9,198.0 611.9,198.0 615.0,198.0 618.0,198.0 621.1,198.0 624.2,198.0 627.2,198.0 630.3,198.0 633.4,198.0 636.4,198.0 639.5,198.0 642.6,198.0 645.6,198.0 648.7,198.0 651.7,198.0 654.8,198.0 657.9,198.0 660.9,198.0 664.0,198.0"/><circle cx="36.0" cy="145.1" r="3" fill="#8a5a5a"/><circle cx="39.1" cy="145.1" r="3" fill="#8a5a5a"/><circle cx="42.1" cy="145.1" r="3" fill="#8a5a5a"/><circle cx="45.2" cy="145.1" r="3" fill="#8a5a5a"/><circle cx="48.3" cy="145.1" r="3" fill="#8a5a5a"/><circle cx="51.3" cy="145.1" r="3" fill="#8a5a5a"/><circle cx="54.4" cy="145.1" r="3" fill="#8a5a5a"/><circle cx="57.4" cy="145.1" r="3" fill="#8a5a5a"/><circle cx="60.5" cy="145.1" r="3" fill="#8a5a5a"/><circle cx="63.6" cy="145.1" r="3" fill="#8a5a5a"/><circle cx="66.6" cy="145.1" r="3" fill="#8a5a5a"/><circle cx="69.7" cy="145.1" r="3" fill="#8a5a5a"/><circle cx="72.8" cy="145.1" r="3" fill="#8a5a5a"/><circle cx="75.8" cy="145.1" r="3" fill="#8a5a5a"/><circle cx="78.9" cy="145.1" r="3" fill="#8a5a5a"/><circle cx="82.0" cy="145.1" r="3" fill="#8a5a5a"/><circle cx="85.0" cy="145.1" r="3" fill="#8a5a5a"/><circle cx="88.1" cy="145.1" r="3" fill="#8a5a5a"/><circle cx="91.1" cy="145.1" r="3" fill="#8a5a5a"/><circle cx="94.2" cy="145.1" r="3" fill="#8a5a5a"/><circle cx="97.3" cy="145.1" r="3" fill="#8a5a5a"/><circle cx="100.3" cy="145.1" r="3" fill="#8a5a5a"/><circle cx="103.4" cy="145.1" r="3" fill="#8a5a5a"/><circle cx="106.5" cy="145.1" r="3" fill="#8a5a5a"/><circle cx="109.5" cy="145.1" r="3" fill="#8a5a5a"/><circle cx="112.6" cy="145.1" r="3" fill="#8a5a5a"/><circle cx="115.6" cy="145.1" r="3" fill="#8a5a5a"/><circle cx="118.7" cy="145.1" r="3" fill="#8a5a5a"/><circle cx="121.8" cy="145.1" r="3" fill="#8a5a5a"/><circle cx="124.8" cy="145.1" r="3" fill="#8a5a5a"/><circle cx="127.9" cy="145.1" r="3" fill="#8a5a5a"/><circle cx="131.0" cy="145.1" r="3" fill="#8a5a5a"/><circle cx="134.0" cy="145.1" r="3" fill="#8a5a5a"/><circle cx="137.1" cy="145.1" r="3" fill="#8a5a5a"/><circle cx="140.2" cy="145.1" r="3" fill="#8a5a5a"/><circle cx="143.2" cy="145.1" r="3" fill="#8a5a5a"/><circle cx="146.3" cy="145.1" r="3" fill="#8a5a5a"/><circle cx="149.3" cy="145.1" r="3" fill="#8a5a5a"/><circle cx="152.4" cy="145.1" r="3" fill="#8a5a5a"/><circle cx="155.5" cy="145.1" r="3" fill="#8a5a5a"/><circle cx="158.5" cy="145.1" r="3" fill="#8a5a5a"/><circle cx="161.6" cy="145.1" r="3" fill="#8a5a5a"/><circle cx="164.7" cy="145.1" r="3" fill="#8a5a5a"/><circle cx="167.7" cy="145.1" r="3" fill="#8a5a5a"/><circle cx="170.8" cy="145.1" r="3" fill="#8a5a5a"/><circle cx="173.9" cy="145.1" r="3" fill="#8a5a5a"/><circle cx="176.9" cy="145.1" r="3" fill="#8a5a5a"/><circle cx="180.0" cy="145.1" r="3" fill="#8a5a5a"/><circle cx="183.0" cy="145.1" r="3" fill="#8a5a5a"/><circle cx="186.1" cy="145.1" r="3" fill="#8a5a5a"/><circle cx="189.2" cy="155.7" r="3" fill="#8a5a5a"/><circle cx="192.2" cy="155.7" r="3" fill="#8a5a5a"/><circle cx="195.3" cy="155.7" r="3" fill="#8a5a5a"/><circle cx="198.4" cy="155.7" r="3" fill="#8a5a5a"/><circle cx="201.4" cy="155.7" r="3" fill="#8a5a5a"/><circle cx="204.5" cy="155.7" r="3" fill="#8a5a5a"/><circle cx="207.6" cy="155.7" r="3" fill="#8a5a5a"/><circle cx="210.6" cy="155.7" r="3" fill="#8a5a5a"/><circle cx="213.7" cy="155.7" r="3" fill="#8a5a5a"/><circle cx="216.7" cy="155.7" r="3" fill="#8a5a5a"/><circle cx="219.8" cy="155.7" r="3" fill="#8a5a5a"/><circle cx="222.9" cy="155.7" r="3" fill="#8a5a5a"/><circle cx="225.9" cy="155.7" r="3" fill="#8a5a5a"/><circle cx="229.0" cy="155.7" r="3" fill="#8a5a5a"/><circle cx="232.1" cy="155.7" r="3" fill="#8a5a5a"/><circle cx="235.1" cy="155.7" r="3" fill="#8a5a5a"/><circle cx="238.2" cy="155.7" r="3" fill="#8a5a5a"/><circle cx="241.2" cy="155.7" r="3" fill="#8a5a5a"/><circle cx="244.3" cy="155.7" r="3" fill="#8a5a5a"/><circle cx="247.4" cy="155.7" r="3" fill="#8a5a5a"/><circle cx="250.4" cy="155.7" r="3" fill="#8a5a5a"/><circle cx="253.5" cy="155.7" r="3" fill="#8a5a5a"/><circle cx="256.6" cy="155.7" r="3" fill="#8a5a5a"/><circle cx="259.6" cy="155.7" r="3" fill="#8a5a5a"/><circle cx="262.7" cy="155.7" r="3" fill="#8a5a5a"/><circle cx="265.8" cy="155.7" r="3" fill="#8a5a5a"/><circle cx="268.8" cy="155.7" r="3" fill="#8a5a5a"/><circle cx="271.9" cy="155.7" r="3" fill="#8a5a5a"/><circle cx="274.9" cy="155.7" r="3" fill="#8a5a5a"/><circle cx="278.0" cy="155.7" r="3" fill="#8a5a5a"/><circle cx="281.1" cy="155.7" r="3" fill="#8a5a5a"/><circle cx="284.1" cy="155.7" r="3" fill="#8a5a5a"/><circle cx="287.2" cy="155.7" r="3" fill="#8a5a5a"/><circle cx="290.3" cy="155.7" r="3" fill="#8a5a5a"/><circle cx="293.3" cy="167.6" r="3" fill="#8a5a5a"/><circle cx="296.4" cy="167.6" r="3" fill="#8a5a5a"/><circle cx="299.5" cy="170.3" r="3" fill="#8a5a5a"/><circle cx="302.5" cy="170.3" r="3" fill="#8a5a5a"/><circle cx="305.6" cy="170.5" r="3" fill="#8a5a5a"/><circle cx="308.6" cy="170.7" r="3" fill="#8a5a5a"/><circle cx="311.7" cy="170.7" r="3" fill="#8a5a5a"/><circle cx="314.8" cy="170.9" r="3" fill="#8a5a5a"/><circle cx="317.8" cy="172.7" r="3" fill="#8a5a5a"/><circle cx="320.9" cy="180.6" r="3" fill="#8a5a5a"/><circle cx="324.0" cy="181.8" r="3" fill="#8a5a5a"/><circle cx="327.0" cy="189.1" r="3" fill="#8a5a5a"/><circle cx="330.1" cy="190.5" r="3" fill="#8a5a5a"/><circle cx="333.2" cy="195.2" r="3" fill="#8a5a5a"/><circle cx="336.2" cy="198.0" r="3" fill="#8a5a5a"/><circle cx="339.3" cy="198.0" r="3" fill="#8a5a5a"/><circle cx="342.3" cy="198.0" r="3" fill="#8a5a5a"/><circle cx="345.4" cy="198.0" r="3" fill="#8a5a5a"/><circle cx="348.5" cy="198.0" r="3" fill="#8a5a5a"/><circle cx="351.5" cy="198.0" r="3" fill="#8a5a5a"/><circle cx="354.6" cy="198.0" r="3" fill="#8a5a5a"/><circle cx="357.7" cy="198.0" r="3" fill="#8a5a5a"/><circle cx="360.7" cy="198.0" r="3" fill="#8a5a5a"/><circle cx="363.8" cy="198.0" r="3" fill="#8a5a5a"/><circle cx="366.8" cy="198.0" r="3" fill="#8a5a5a"/><circle cx="369.9" cy="198.0" r="3" fill="#8a5a5a"/><circle cx="373.0" cy="198.0" r="3" fill="#8a5a5a"/><circle cx="376.0" cy="198.0" r="3" fill="#8a5a5a"/><circle cx="379.1" cy="198.0" r="3" fill="#8a5a5a"/><circle cx="382.2" cy="198.0" r="3" fill="#8a5a5a"/><circle cx="385.2" cy="198.0" r="3" fill="#8a5a5a"/><circle cx="388.3" cy="198.0" r="3" fill="#8a5a5a"/><circle cx="391.4" cy="198.0" r="3" fill="#8a5a5a"/><circle cx="394.4" cy="198.0" r="3" fill="#8a5a5a"/><circle cx="397.5" cy="198.0" r="3" fill="#8a5a5a"/><circle cx="400.5" cy="198.0" r="3" fill="#8a5a5a"/><circle cx="403.6" cy="198.0" r="3" fill="#8a5a5a"/><circle cx="406.7" cy="198.0" r="3" fill="#8a5a5a"/><circle cx="409.7" cy="198.0" r="3" fill="#8a5a5a"/><circle cx="412.8" cy="198.0" r="3" fill="#8a5a5a"/><circle cx="415.9" cy="198.0" r="3" fill="#8a5a5a"/><circle cx="418.9" cy="198.0" r="3" fill="#8a5a5a"/><circle cx="422.0" cy="198.0" r="3" fill="#8a5a5a"/><circle cx="425.1" cy="198.0" r="3" fill="#8a5a5a"/><circle cx="428.1" cy="198.0" r="3" fill="#8a5a5a"/><circle cx="431.2" cy="198.0" r="3" fill="#8a5a5a"/><circle cx="434.2" cy="198.0" r="3" fill="#8a5a5a"/><circle cx="437.3" cy="198.0" r="3" fill="#8a5a5a"/><circle cx="440.4" cy="198.0" r="3" fill="#8a5a5a"/><circle cx="443.4" cy="198.0" r="3" fill="#8a5a5a"/><circle cx="446.5" cy="198.0" r="3" fill="#8a5a5a"/><circle cx="449.6" cy="198.0" r="3" fill="#8a5a5a"/><circle cx="452.6" cy="198.0" r="3" fill="#8a5a5a"/><circle cx="455.7" cy="198.0" r="3" fill="#8a5a5a"/><circle cx="458.8" cy="198.0" r="3" fill="#8a5a5a"/><circle cx="461.8" cy="198.0" r="3" fill="#8a5a5a"/><circle cx="464.9" cy="198.0" r="3" fill="#8a5a5a"/><circle cx="467.9" cy="198.0" r="3" fill="#8a5a5a"/><circle cx="471.0" cy="198.0" r="3" fill="#8a5a5a"/><circle cx="474.1" cy="198.0" r="3" fill="#8a5a5a"/><circle cx="477.1" cy="198.0" r="3" fill="#8a5a5a"/><circle cx="480.2" cy="198.0" r="3" fill="#8a5a5a"/><circle cx="483.3" cy="198.0" r="3" fill="#8a5a5a"/><circle cx="486.3" cy="198.0" r="3" fill="#8a5a5a"/><circle cx="489.4" cy="198.0" r="3" fill="#8a5a5a"/><circle cx="492.4" cy="198.0" r="3" fill="#8a5a5a"/><circle cx="495.5" cy="198.0" r="3" fill="#8a5a5a"/><circle cx="498.6" cy="198.0" r="3" fill="#8a5a5a"/><circle cx="501.6" cy="198.0" r="3" fill="#8a5a5a"/><circle cx="504.7" cy="198.0" r="3" fill="#8a5a5a"/><circle cx="507.8" cy="198.0" r="3" fill="#8a5a5a"/><circle cx="510.8" cy="198.0" r="3" fill="#8a5a5a"/><circle cx="513.9" cy="198.0" r="3" fill="#8a5a5a"/><circle cx="517.0" cy="198.0" r="3" fill="#8a5a5a"/><circle cx="520.0" cy="198.0" r="3" fill="#8a5a5a"/><circle cx="523.1" cy="198.0" r="3" fill="#8a5a5a"/><circle cx="526.1" cy="198.0" r="3" fill="#8a5a5a"/><circle cx="529.2" cy="198.0" r="3" fill="#8a5a5a"/><circle cx="532.3" cy="198.0" r="3" fill="#8a5a5a"/><circle cx="535.3" cy="198.0" r="3" fill="#8a5a5a"/><circle cx="538.4" cy="198.0" r="3" fill="#8a5a5a"/><circle cx="541.5" cy="198.0" r="3" fill="#8a5a5a"/><circle cx="544.5" cy="198.0" r="3" fill="#8a5a5a"/><circle cx="547.6" cy="198.0" r="3" fill="#8a5a5a"/><circle cx="550.7" cy="198.0" r="3" fill="#8a5a5a"/><circle cx="553.7" cy="198.0" r="3" fill="#8a5a5a"/><circle cx="556.8" cy="198.0" r="3" fill="#8a5a5a"/><circle cx="559.8" cy="198.0" r="3" fill="#8a5a5a"/><circle cx="562.9" cy="198.0" r="3" fill="#8a5a5a"/><circle cx="566.0" cy="198.0" r="3" fill="#8a5a5a"/><circle cx="569.0" cy="198.0" r="3" fill="#8a5a5a"/><circle cx="572.1" cy="198.0" r="3" fill="#8a5a5a"/><circle cx="575.2" cy="198.0" r="3" fill="#8a5a5a"/><circle cx="578.2" cy="198.0" r="3" fill="#8a5a5a"/><circle cx="581.3" cy="198.0" r="3" fill="#8a5a5a"/><circle cx="584.4" cy="198.0" r="3" fill="#8a5a5a"/><circle cx="587.4" cy="198.0" r="3" fill="#8a5a5a"/><circle cx="590.5" cy="198.0" r="3" fill="#8a5a5a"/><circle cx="593.5" cy="198.0" r="3" fill="#8a5a5a"/><circle cx="596.6" cy="198.0" r="3" fill="#8a5a5a"/><circle cx="599.7" cy="198.0" r="3" fill="#8a5a5a"/><circle cx="602.7" cy="198.0" r="3" fill="#8a5a5a"/><circle cx="605.8" cy="198.0" r="3" fill="#8a5a5a"/><circle cx="608.9" cy="198.0" r="3" fill="#8a5a5a"/><circle cx="611.9" cy="198.0" r="3" fill="#8a5a5a"/><circle cx="615.0" cy="198.0" r="3" fill="#8a5a5a"/><circle cx="618.0" cy="198.0" r="3" fill="#8a5a5a"/><circle cx="621.1" cy="198.0" r="3" fill="#8a5a5a"/><circle cx="624.2" cy="198.0" r="3" fill="#8a5a5a"/><circle cx="627.2" cy="198.0" r="3" fill="#8a5a5a"/><circle cx="630.3" cy="198.0" r="3" fill="#8a5a5a"/><circle cx="633.4" cy="198.0" r="3" fill="#8a5a5a"/><circle cx="636.4" cy="198.0" r="3" fill="#8a5a5a"/><circle cx="639.5" cy="198.0" r="3" fill="#8a5a5a"/><circle cx="642.6" cy="198.0" r="3" fill="#8a5a5a"/><circle cx="645.6" cy="198.0" r="3" fill="#8a5a5a"/><circle cx="648.7" cy="198.0" r="3" fill="#8a5a5a"/><circle cx="651.7" cy="198.0" r="3" fill="#8a5a5a"/><circle cx="654.8" cy="198.0" r="3" fill="#8a5a5a"/><circle cx="657.9" cy="198.0" r="3" fill="#8a5a5a"/><circle cx="660.9" cy="198.0" r="3" fill="#8a5a5a"/><circle cx="664.0" cy="198.0" r="3" fill="#8a5a5a"/>
<polyline fill="none" stroke="#3fb950" stroke-width="2.5" stroke-linejoin="round" points="36.0,198.0 39.1,198.0 42.1,198.0 45.2,198.0 48.3,198.0 51.3,198.0 54.4,198.0 57.4,198.0 60.5,198.0 63.6,198.0 66.6,198.0 69.7,198.0 72.8,198.0 75.8,198.0 78.9,198.0 82.0,198.0 85.0,198.0 88.1,198.0 91.1,198.0 94.2,198.0 97.3,198.0 100.3,198.0 103.4,198.0 106.5,198.0 109.5,198.0 112.6,198.0 115.6,198.0 118.7,198.0 121.8,198.0 124.8,198.0 127.9,198.0 131.0,198.0 134.0,198.0 137.1,198.0 140.2,198.0 143.2,198.0 146.3,198.0 149.3,198.0 152.4,198.0 155.5,198.0 158.5,198.0 161.6,198.0 164.7,198.0 167.7,191.7 170.8,191.7 173.9,191.7 176.9,191.7 180.0,191.7 183.0,191.7 186.1,191.7 189.2,192.9 192.2,192.9 195.3,190.7 198.4,190.7 201.4,190.7 204.5,190.7 207.6,190.7 210.6,190.5 213.7,190.5 216.7,190.5 219.8,190.3 222.9,190.3 225.9,190.3 229.0,190.3 232.1,190.3 235.1,190.3 238.2,190.3 241.2,190.3 244.3,190.3 247.4,190.3 250.4,190.3 253.5,190.3 256.6,190.3 259.6,190.3 262.7,190.3 265.8,190.3 268.8,190.3 271.9,190.3 274.9,190.3 278.0,190.3 281.1,190.3 284.1,189.3 287.2,189.3 290.3,189.3 293.3,190.7 296.4,190.7 299.5,190.7 302.5,190.7 305.6,190.7 308.6,190.7 311.7,190.7 314.8,190.7 317.8,190.7 320.9,190.9 324.0,190.9 327.0,190.9 330.1,194.2 333.2,196.8 336.2,198.0 339.3,198.0 342.3,198.0 345.4,198.0 348.5,198.0 351.5,198.0 354.6,198.0 357.7,198.0 360.7,198.0 363.8,198.0 366.8,198.0 369.9,198.0 373.0,198.0 376.0,198.0 379.1,198.0 382.2,198.0 385.2,198.0 388.3,198.0 391.4,198.0 394.4,198.0 397.5,198.0 400.5,198.0 403.6,198.0 406.7,198.0 409.7,198.0 412.8,198.0 415.9,198.0 418.9,198.0 422.0,198.0 425.1,198.0 428.1,198.0 431.2,198.0 434.2,198.0 437.3,198.0 440.4,198.0 443.4,198.0 446.5,198.0 449.6,198.0 452.6,198.0 455.7,198.0 458.8,198.0 461.8,198.0 464.9,198.0 467.9,198.0 471.0,198.0 474.1,198.0 477.1,198.0 480.2,198.0 483.3,198.0 486.3,198.0 489.4,198.0 492.4,198.0 495.5,198.0 498.6,198.0 501.6,198.0 504.7,198.0 507.8,198.0 510.8,198.0 513.9,198.0 517.0,198.0 520.0,198.0 523.1,198.0 526.1,198.0 529.2,198.0 532.3,198.0 535.3,198.0 538.4,198.0 541.5,198.0 544.5,198.0 547.6,198.0 550.7,198.0 553.7,198.0 556.8,198.0 559.8,198.0 562.9,198.0 566.0,198.0 569.0,198.0 572.1,198.0 575.2,198.0 578.2,198.0 581.3,198.0 584.4,198.0 587.4,198.0 590.5,198.0 593.5,198.0 596.6,198.0 599.7,198.0 602.7,198.0 605.8,198.0 608.9,198.0 611.9,198.0 615.0,198.0 618.0,198.0 621.1,198.0 624.2,198.0 627.2,198.0 630.3,198.0 633.4,198.0 636.4,198.0 639.5,198.0 642.6,198.0 645.6,198.0 648.7,198.0 651.7,198.0 654.8,198.0 657.9,198.0 660.9,198.0 664.0,198.0"/><circle cx="36.0" cy="198.0" r="3" fill="#3fb950"/><circle cx="39.1" cy="198.0" r="3" fill="#3fb950"/><circle cx="42.1" cy="198.0" r="3" fill="#3fb950"/><circle cx="45.2" cy="198.0" r="3" fill="#3fb950"/><circle cx="48.3" cy="198.0" r="3" fill="#3fb950"/><circle cx="51.3" cy="198.0" r="3" fill="#3fb950"/><circle cx="54.4" cy="198.0" r="3" fill="#3fb950"/><circle cx="57.4" cy="198.0" r="3" fill="#3fb950"/><circle cx="60.5" cy="198.0" r="3" fill="#3fb950"/><circle cx="63.6" cy="198.0" r="3" fill="#3fb950"/><circle cx="66.6" cy="198.0" r="3" fill="#3fb950"/><circle cx="69.7" cy="198.0" r="3" fill="#3fb950"/><circle cx="72.8" cy="198.0" r="3" fill="#3fb950"/><circle cx="75.8" cy="198.0" r="3" fill="#3fb950"/><circle cx="78.9" cy="198.0" r="3" fill="#3fb950"/><circle cx="82.0" cy="198.0" r="3" fill="#3fb950"/><circle cx="85.0" cy="198.0" r="3" fill="#3fb950"/><circle cx="88.1" cy="198.0" r="3" fill="#3fb950"/><circle cx="91.1" cy="198.0" r="3" fill="#3fb950"/><circle cx="94.2" cy="198.0" r="3" fill="#3fb950"/><circle cx="97.3" cy="198.0" r="3" fill="#3fb950"/><circle cx="100.3" cy="198.0" r="3" fill="#3fb950"/><circle cx="103.4" cy="198.0" r="3" fill="#3fb950"/><circle cx="106.5" cy="198.0" r="3" fill="#3fb950"/><circle cx="109.5" cy="198.0" r="3" fill="#3fb950"/><circle cx="112.6" cy="198.0" r="3" fill="#3fb950"/><circle cx="115.6" cy="198.0" r="3" fill="#3fb950"/><circle cx="118.7" cy="198.0" r="3" fill="#3fb950"/><circle cx="121.8" cy="198.0" r="3" fill="#3fb950"/><circle cx="124.8" cy="198.0" r="3" fill="#3fb950"/><circle cx="127.9" cy="198.0" r="3" fill="#3fb950"/><circle cx="131.0" cy="198.0" r="3" fill="#3fb950"/><circle cx="134.0" cy="198.0" r="3" fill="#3fb950"/><circle cx="137.1" cy="198.0" r="3" fill="#3fb950"/><circle cx="140.2" cy="198.0" r="3" fill="#3fb950"/><circle cx="143.2" cy="198.0" r="3" fill="#3fb950"/><circle cx="146.3" cy="198.0" r="3" fill="#3fb950"/><circle cx="149.3" cy="198.0" r="3" fill="#3fb950"/><circle cx="152.4" cy="198.0" r="3" fill="#3fb950"/><circle cx="155.5" cy="198.0" r="3" fill="#3fb950"/><circle cx="158.5" cy="198.0" r="3" fill="#3fb950"/><circle cx="161.6" cy="198.0" r="3" fill="#3fb950"/><circle cx="164.7" cy="198.0" r="3" fill="#3fb950"/><circle cx="167.7" cy="191.7" r="3" fill="#3fb950"/><circle cx="170.8" cy="191.7" r="3" fill="#3fb950"/><circle cx="173.9" cy="191.7" r="3" fill="#3fb950"/><circle cx="176.9" cy="191.7" r="3" fill="#3fb950"/><circle cx="180.0" cy="191.7" r="3" fill="#3fb950"/><circle cx="183.0" cy="191.7" r="3" fill="#3fb950"/><circle cx="186.1" cy="191.7" r="3" fill="#3fb950"/><circle cx="189.2" cy="192.9" r="3" fill="#3fb950"/><circle cx="192.2" cy="192.9" r="3" fill="#3fb950"/><circle cx="195.3" cy="190.7" r="3" fill="#3fb950"/><circle cx="198.4" cy="190.7" r="3" fill="#3fb950"/><circle cx="201.4" cy="190.7" r="3" fill="#3fb950"/><circle cx="204.5" cy="190.7" r="3" fill="#3fb950"/><circle cx="207.6" cy="190.7" r="3" fill="#3fb950"/><circle cx="210.6" cy="190.5" r="3" fill="#3fb950"/><circle cx="213.7" cy="190.5" r="3" fill="#3fb950"/><circle cx="216.7" cy="190.5" r="3" fill="#3fb950"/><circle cx="219.8" cy="190.3" r="3" fill="#3fb950"/><circle cx="222.9" cy="190.3" r="3" fill="#3fb950"/><circle cx="225.9" cy="190.3" r="3" fill="#3fb950"/><circle cx="229.0" cy="190.3" r="3" fill="#3fb950"/><circle cx="232.1" cy="190.3" r="3" fill="#3fb950"/><circle cx="235.1" cy="190.3" r="3" fill="#3fb950"/><circle cx="238.2" cy="190.3" r="3" fill="#3fb950"/><circle cx="241.2" cy="190.3" r="3" fill="#3fb950"/><circle cx="244.3" cy="190.3" r="3" fill="#3fb950"/><circle cx="247.4" cy="190.3" r="3" fill="#3fb950"/><circle cx="250.4" cy="190.3" r="3" fill="#3fb950"/><circle cx="253.5" cy="190.3" r="3" fill="#3fb950"/><circle cx="256.6" cy="190.3" r="3" fill="#3fb950"/><circle cx="259.6" cy="190.3" r="3" fill="#3fb950"/><circle cx="262.7" cy="190.3" r="3" fill="#3fb950"/><circle cx="265.8" cy="190.3" r="3" fill="#3fb950"/><circle cx="268.8" cy="190.3" r="3" fill="#3fb950"/><circle cx="271.9" cy="190.3" r="3" fill="#3fb950"/><circle cx="274.9" cy="190.3" r="3" fill="#3fb950"/><circle cx="278.0" cy="190.3" r="3" fill="#3fb950"/><circle cx="281.1" cy="190.3" r="3" fill="#3fb950"/><circle cx="284.1" cy="189.3" r="3" fill="#3fb950"/><circle cx="287.2" cy="189.3" r="3" fill="#3fb950"/><circle cx="290.3" cy="189.3" r="3" fill="#3fb950"/><circle cx="293.3" cy="190.7" r="3" fill="#3fb950"/><circle cx="296.4" cy="190.7" r="3" fill="#3fb950"/><circle cx="299.5" cy="190.7" r="3" fill="#3fb950"/><circle cx="302.5" cy="190.7" r="3" fill="#3fb950"/><circle cx="305.6" cy="190.7" r="3" fill="#3fb950"/><circle cx="308.6" cy="190.7" r="3" fill="#3fb950"/><circle cx="311.7" cy="190.7" r="3" fill="#3fb950"/><circle cx="314.8" cy="190.7" r="3" fill="#3fb950"/><circle cx="317.8" cy="190.7" r="3" fill="#3fb950"/><circle cx="320.9" cy="190.9" r="3" fill="#3fb950"/><circle cx="324.0" cy="190.9" r="3" fill="#3fb950"/><circle cx="327.0" cy="190.9" r="3" fill="#3fb950"/><circle cx="330.1" cy="194.2" r="3" fill="#3fb950"/><circle cx="333.2" cy="196.8" r="3" fill="#3fb950"/><circle cx="336.2" cy="198.0" r="3" fill="#3fb950"/><circle cx="339.3" cy="198.0" r="3" fill="#3fb950"/><circle cx="342.3" cy="198.0" r="3" fill="#3fb950"/><circle cx="345.4" cy="198.0" r="3" fill="#3fb950"/><circle cx="348.5" cy="198.0" r="3" fill="#3fb950"/><circle cx="351.5" cy="198.0" r="3" fill="#3fb950"/><circle cx="354.6" cy="198.0" r="3" fill="#3fb950"/><circle cx="357.7" cy="198.0" r="3" fill="#3fb950"/><circle cx="360.7" cy="198.0" r="3" fill="#3fb950"/><circle cx="363.8" cy="198.0" r="3" fill="#3fb950"/><circle cx="366.8" cy="198.0" r="3" fill="#3fb950"/><circle cx="369.9" cy="198.0" r="3" fill="#3fb950"/><circle cx="373.0" cy="198.0" r="3" fill="#3fb950"/><circle cx="376.0" cy="198.0" r="3" fill="#3fb950"/><circle cx="379.1" cy="198.0" r="3" fill="#3fb950"/><circle cx="382.2" cy="198.0" r="3" fill="#3fb950"/><circle cx="385.2" cy="198.0" r="3" fill="#3fb950"/><circle cx="388.3" cy="198.0" r="3" fill="#3fb950"/><circle cx="391.4" cy="198.0" r="3" fill="#3fb950"/><circle cx="394.4" cy="198.0" r="3" fill="#3fb950"/><circle cx="397.5" cy="198.0" r="3" fill="#3fb950"/><circle cx="400.5" cy="198.0" r="3" fill="#3fb950"/><circle cx="403.6" cy="198.0" r="3" fill="#3fb950"/><circle cx="406.7" cy="198.0" r="3" fill="#3fb950"/><circle cx="409.7" cy="198.0" r="3" fill="#3fb950"/><circle cx="412.8" cy="198.0" r="3" fill="#3fb950"/><circle cx="415.9" cy="198.0" r="3" fill="#3fb950"/><circle cx="418.9" cy="198.0" r="3" fill="#3fb950"/><circle cx="422.0" cy="198.0" r="3" fill="#3fb950"/><circle cx="425.1" cy="198.0" r="3" fill="#3fb950"/><circle cx="428.1" cy="198.0" r="3" fill="#3fb950"/><circle cx="431.2" cy="198.0" r="3" fill="#3fb950"/><circle cx="434.2" cy="198.0" r="3" fill="#3fb950"/><circle cx="437.3" cy="198.0" r="3" fill="#3fb950"/><circle cx="440.4" cy="198.0" r="3" fill="#3fb950"/><circle cx="443.4" cy="198.0" r="3" fill="#3fb950"/><circle cx="446.5" cy="198.0" r="3" fill="#3fb950"/><circle cx="449.6" cy="198.0" r="3" fill="#3fb950"/><circle cx="452.6" cy="198.0" r="3" fill="#3fb950"/><circle cx="455.7" cy="198.0" r="3" fill="#3fb950"/><circle cx="458.8" cy="198.0" r="3" fill="#3fb950"/><circle cx="461.8" cy="198.0" r="3" fill="#3fb950"/><circle cx="464.9" cy="198.0" r="3" fill="#3fb950"/><circle cx="467.9" cy="198.0" r="3" fill="#3fb950"/><circle cx="471.0" cy="198.0" r="3" fill="#3fb950"/><circle cx="474.1" cy="198.0" r="3" fill="#3fb950"/><circle cx="477.1" cy="198.0" r="3" fill="#3fb950"/><circle cx="480.2" cy="198.0" r="3" fill="#3fb950"/><circle cx="483.3" cy="198.0" r="3" fill="#3fb950"/><circle cx="486.3" cy="198.0" r="3" fill="#3fb950"/><circle cx="489.4" cy="198.0" r="3" fill="#3fb950"/><circle cx="492.4" cy="198.0" r="3" fill="#3fb950"/><circle cx="495.5" cy="198.0" r="3" fill="#3fb950"/><circle cx="498.6" cy="198.0" r="3" fill="#3fb950"/><circle cx="501.6" cy="198.0" r="3" fill="#3fb950"/><circle cx="504.7" cy="198.0" r="3" fill="#3fb950"/><circle cx="507.8" cy="198.0" r="3" fill="#3fb950"/><circle cx="510.8" cy="198.0" r="3" fill="#3fb950"/><circle cx="513.9" cy="198.0" r="3" fill="#3fb950"/><circle cx="517.0" cy="198.0" r="3" fill="#3fb950"/><circle cx="520.0" cy="198.0" r="3" fill="#3fb950"/><circle cx="523.1" cy="198.0" r="3" fill="#3fb950"/><circle cx="526.1" cy="198.0" r="3" fill="#3fb950"/><circle cx="529.2" cy="198.0" r="3" fill="#3fb950"/><circle cx="532.3" cy="198.0" r="3" fill="#3fb950"/><circle cx="535.3" cy="198.0" r="3" fill="#3fb950"/><circle cx="538.4" cy="198.0" r="3" fill="#3fb950"/><circle cx="541.5" cy="198.0" r="3" fill="#3fb950"/><circle cx="544.5" cy="198.0" r="3" fill="#3fb950"/><circle cx="547.6" cy="198.0" r="3" fill="#3fb950"/><circle cx="550.7" cy="198.0" r="3" fill="#3fb950"/><circle cx="553.7" cy="198.0" r="3" fill="#3fb950"/><circle cx="556.8" cy="198.0" r="3" fill="#3fb950"/><circle cx="559.8" cy="198.0" r="3" fill="#3fb950"/><circle cx="562.9" cy="198.0" r="3" fill="#3fb950"/><circle cx="566.0" cy="198.0" r="3" fill="#3fb950"/><circle cx="569.0" cy="198.0" r="3" fill="#3fb950"/><circle cx="572.1" cy="198.0" r="3" fill="#3fb950"/><circle cx="575.2" cy="198.0" r="3" fill="#3fb950"/><circle cx="578.2" cy="198.0" r="3" fill="#3fb950"/><circle cx="581.3" cy="198.0" r="3" fill="#3fb950"/><circle cx="584.4" cy="198.0" r="3" fill="#3fb950"/><circle cx="587.4" cy="198.0" r="3" fill="#3fb950"/><circle cx="590.5" cy="198.0" r="3" fill="#3fb950"/><circle cx="593.5" cy="198.0" r="3" fill="#3fb950"/><circle cx="596.6" cy="198.0" r="3" fill="#3fb950"/><circle cx="599.7" cy="198.0" r="3" fill="#3fb950"/><circle cx="602.7" cy="198.0" r="3" fill="#3fb950"/><circle cx="605.8" cy="198.0" r="3" fill="#3fb950"/><circle cx="608.9" cy="198.0" r="3" fill="#3fb950"/><circle cx="611.9" cy="198.0" r="3" fill="#3fb950"/><circle cx="615.0" cy="198.0" r="3" fill="#3fb950"/><circle cx="618.0" cy="198.0" r="3" fill="#3fb950"/><circle cx="621.1" cy="198.0" r="3" fill="#3fb950"/><circle cx="624.2" cy="198.0" r="3" fill="#3fb950"/><circle cx="627.2" cy="198.0" r="3" fill="#3fb950"/><circle cx="630.3" cy="198.0" r="3" fill="#3fb950"/><circle cx="633.4" cy="198.0" r="3" fill="#3fb950"/><circle cx="636.4" cy="198.0" r="3" fill="#3fb950"/><circle cx="639.5" cy="198.0" r="3" fill="#3fb950"/><circle cx="642.6" cy="198.0" r="3" fill="#3fb950"/><circle cx="645.6" cy="198.0" r="3" fill="#3fb950"/><circle cx="648.7" cy="198.0" r="3" fill="#3fb950"/><circle cx="651.7" cy="198.0" r="3" fill="#3fb950"/><circle cx="654.8" cy="198.0" r="3" fill="#3fb950"/><circle cx="657.9" cy="198.0" r="3" fill="#3fb950"/><circle cx="660.9" cy="198.0" r="3" fill="#3fb950"/><circle cx="664.0" cy="198.0" r="3" fill="#3fb950"/>
<polyline fill="none" stroke="#4aa3ff" stroke-width="2.5" stroke-linejoin="round" points="36.0,144.3 39.1,144.3 42.1,144.3 45.2,144.3 48.3,144.3 51.3,144.3 54.4,144.3 57.4,144.3 60.5,144.3 63.6,144.3 66.6,144.3 69.7,144.3 72.8,144.3 75.8,144.3 78.9,144.3 82.0,136.2 85.0,132.4 88.1,129.6 91.1,129.6 94.2,121.0 97.3,121.0 100.3,121.0 103.4,114.4 106.5,114.4 109.5,114.4 112.6,111.3 115.6,110.9 118.7,110.9 121.8,110.5 124.8,110.5 127.9,109.9 131.0,108.7 134.0,107.3 137.1,106.9 140.2,106.9 143.2,106.9 146.3,106.9 149.3,106.9 152.4,106.9 155.5,106.9 158.5,106.9 161.6,106.9 164.7,106.9 167.7,113.2 170.8,113.2 173.9,113.2 176.9,113.2 180.0,113.2 183.0,110.7 186.1,105.3 189.2,83.4 192.2,83.4 195.3,85.6 198.4,85.6 201.4,85.6 204.5,85.6 207.6,85.6 210.6,85.8 213.7,85.8 216.7,85.8 219.8,86.0 222.9,86.0 225.9,86.0 229.0,86.0 232.1,86.0 235.1,86.0 238.2,86.0 241.2,86.0 244.3,86.0 247.4,86.0 250.4,86.0 253.5,86.0 256.6,86.0 259.6,86.0 262.7,86.0 265.8,86.0 268.8,86.0 271.9,86.0 274.9,86.0 278.0,86.0 281.1,86.0 284.1,87.0 287.2,87.0 290.3,87.0 293.3,73.7 296.4,73.7 299.5,71.0 302.5,71.0 305.6,70.8 308.6,70.6 311.7,70.6 314.8,70.4 317.8,68.6 320.9,60.5 324.0,59.3 327.0,52.0 330.1,47.3 333.2,40.1 336.2,36.0 339.3,36.0 342.3,36.0 345.4,36.0 348.5,36.0 351.5,36.0 354.6,36.0 357.7,36.0 360.7,36.0 363.8,36.0 366.8,36.0 369.9,36.0 373.0,36.0 376.0,36.0 379.1,36.0 382.2,36.0 385.2,36.0 388.3,36.0 391.4,36.0 394.4,36.0 397.5,36.0 400.5,36.0 403.6,36.0 406.7,36.0 409.7,36.0 412.8,36.0 415.9,36.0 418.9,36.0 422.0,36.0 425.1,36.0 428.1,36.0 431.2,36.0 434.2,36.0 437.3,36.0 440.4,36.0 443.4,36.0 446.5,36.0 449.6,36.0 452.6,36.0 455.7,36.0 458.8,36.0 461.8,36.0 464.9,36.0 467.9,36.0 471.0,36.0 474.1,36.0 477.1,36.0 480.2,36.0 483.3,36.0 486.3,36.0 489.4,36.0 492.4,36.0 495.5,36.0 498.6,36.0 501.6,36.0 504.7,36.0 507.8,36.0 510.8,36.0 513.9,36.0 517.0,36.0 520.0,36.0 523.1,36.0 526.1,36.0 529.2,36.0 532.3,36.0 535.3,36.0 538.4,36.0 541.5,36.0 544.5,36.0 547.6,36.0 550.7,36.0 553.7,36.0 556.8,36.0 559.8,36.0 562.9,36.0 566.0,36.0 569.0,36.0 572.1,36.0 575.2,36.0 578.2,36.0 581.3,36.0 584.4,36.0 587.4,36.0 590.5,36.0 593.5,36.0 596.6,36.0 599.7,36.0 602.7,36.0 605.8,36.0 608.9,36.0 611.9,36.0 615.0,36.0 618.0,36.0 621.1,36.0 624.2,36.0 627.2,36.0 630.3,36.0 633.4,36.0 636.4,36.0 639.5,36.0 642.6,36.0 645.6,36.0 648.7,36.0 651.7,36.0 654.8,36.0 657.9,36.0 660.9,36.0 664.0,36.0"/><circle cx="36.0" cy="144.3" r="3" fill="#4aa3ff"/><circle cx="39.1" cy="144.3" r="3" fill="#4aa3ff"/><circle cx="42.1" cy="144.3" r="3" fill="#4aa3ff"/><circle cx="45.2" cy="144.3" r="3" fill="#4aa3ff"/><circle cx="48.3" cy="144.3" r="3" fill="#4aa3ff"/><circle cx="51.3" cy="144.3" r="3" fill="#4aa3ff"/><circle cx="54.4" cy="144.3" r="3" fill="#4aa3ff"/><circle cx="57.4" cy="144.3" r="3" fill="#4aa3ff"/><circle cx="60.5" cy="144.3" r="3" fill="#4aa3ff"/><circle cx="63.6" cy="144.3" r="3" fill="#4aa3ff"/><circle cx="66.6" cy="144.3" r="3" fill="#4aa3ff"/><circle cx="69.7" cy="144.3" r="3" fill="#4aa3ff"/><circle cx="72.8" cy="144.3" r="3" fill="#4aa3ff"/><circle cx="75.8" cy="144.3" r="3" fill="#4aa3ff"/><circle cx="78.9" cy="144.3" r="3" fill="#4aa3ff"/><circle cx="82.0" cy="136.2" r="3" fill="#4aa3ff"/><circle cx="85.0" cy="132.4" r="3" fill="#4aa3ff"/><circle cx="88.1" cy="129.6" r="3" fill="#4aa3ff"/><circle cx="91.1" cy="129.6" r="3" fill="#4aa3ff"/><circle cx="94.2" cy="121.0" r="3" fill="#4aa3ff"/><circle cx="97.3" cy="121.0" r="3" fill="#4aa3ff"/><circle cx="100.3" cy="121.0" r="3" fill="#4aa3ff"/><circle cx="103.4" cy="114.4" r="3" fill="#4aa3ff"/><circle cx="106.5" cy="114.4" r="3" fill="#4aa3ff"/><circle cx="109.5" cy="114.4" r="3" fill="#4aa3ff"/><circle cx="112.6" cy="111.3" r="3" fill="#4aa3ff"/><circle cx="115.6" cy="110.9" r="3" fill="#4aa3ff"/><circle cx="118.7" cy="110.9" r="3" fill="#4aa3ff"/><circle cx="121.8" cy="110.5" r="3" fill="#4aa3ff"/><circle cx="124.8" cy="110.5" r="3" fill="#4aa3ff"/><circle cx="127.9" cy="109.9" r="3" fill="#4aa3ff"/><circle cx="131.0" cy="108.7" r="3" fill="#4aa3ff"/><circle cx="134.0" cy="107.3" r="3" fill="#4aa3ff"/><circle cx="137.1" cy="106.9" r="3" fill="#4aa3ff"/><circle cx="140.2" cy="106.9" r="3" fill="#4aa3ff"/><circle cx="143.2" cy="106.9" r="3" fill="#4aa3ff"/><circle cx="146.3" cy="106.9" r="3" fill="#4aa3ff"/><circle cx="149.3" cy="106.9" r="3" fill="#4aa3ff"/><circle cx="152.4" cy="106.9" r="3" fill="#4aa3ff"/><circle cx="155.5" cy="106.9" r="3" fill="#4aa3ff"/><circle cx="158.5" cy="106.9" r="3" fill="#4aa3ff"/><circle cx="161.6" cy="106.9" r="3" fill="#4aa3ff"/><circle cx="164.7" cy="106.9" r="3" fill="#4aa3ff"/><circle cx="167.7" cy="113.2" r="3" fill="#4aa3ff"/><circle cx="170.8" cy="113.2" r="3" fill="#4aa3ff"/><circle cx="173.9" cy="113.2" r="3" fill="#4aa3ff"/><circle cx="176.9" cy="113.2" r="3" fill="#4aa3ff"/><circle cx="180.0" cy="113.2" r="3" fill="#4aa3ff"/><circle cx="183.0" cy="110.7" r="3" fill="#4aa3ff"/><circle cx="186.1" cy="105.3" r="3" fill="#4aa3ff"/><circle cx="189.2" cy="83.4" r="3" fill="#4aa3ff"/><circle cx="192.2" cy="83.4" r="3" fill="#4aa3ff"/><circle cx="195.3" cy="85.6" r="3" fill="#4aa3ff"/><circle cx="198.4" cy="85.6" r="3" fill="#4aa3ff"/><circle cx="201.4" cy="85.6" r="3" fill="#4aa3ff"/><circle cx="204.5" cy="85.6" r="3" fill="#4aa3ff"/><circle cx="207.6" cy="85.6" r="3" fill="#4aa3ff"/><circle cx="210.6" cy="85.8" r="3" fill="#4aa3ff"/><circle cx="213.7" cy="85.8" r="3" fill="#4aa3ff"/><circle cx="216.7" cy="85.8" r="3" fill="#4aa3ff"/><circle cx="219.8" cy="86.0" r="3" fill="#4aa3ff"/><circle cx="222.9" cy="86.0" r="3" fill="#4aa3ff"/><circle cx="225.9" cy="86.0" r="3" fill="#4aa3ff"/><circle cx="229.0" cy="86.0" r="3" fill="#4aa3ff"/><circle cx="232.1" cy="86.0" r="3" fill="#4aa3ff"/><circle cx="235.1" cy="86.0" r="3" fill="#4aa3ff"/><circle cx="238.2" cy="86.0" r="3" fill="#4aa3ff"/><circle cx="241.2" cy="86.0" r="3" fill="#4aa3ff"/><circle cx="244.3" cy="86.0" r="3" fill="#4aa3ff"/><circle cx="247.4" cy="86.0" r="3" fill="#4aa3ff"/><circle cx="250.4" cy="86.0" r="3" fill="#4aa3ff"/><circle cx="253.5" cy="86.0" r="3" fill="#4aa3ff"/><circle cx="256.6" cy="86.0" r="3" fill="#4aa3ff"/><circle cx="259.6" cy="86.0" r="3" fill="#4aa3ff"/><circle cx="262.7" cy="86.0" r="3" fill="#4aa3ff"/><circle cx="265.8" cy="86.0" r="3" fill="#4aa3ff"/><circle cx="268.8" cy="86.0" r="3" fill="#4aa3ff"/><circle cx="271.9" cy="86.0" r="3" fill="#4aa3ff"/><circle cx="274.9" cy="86.0" r="3" fill="#4aa3ff"/><circle cx="278.0" cy="86.0" r="3" fill="#4aa3ff"/><circle cx="281.1" cy="86.0" r="3" fill="#4aa3ff"/><circle cx="284.1" cy="87.0" r="3" fill="#4aa3ff"/><circle cx="287.2" cy="87.0" r="3" fill="#4aa3ff"/><circle cx="290.3" cy="87.0" r="3" fill="#4aa3ff"/><circle cx="293.3" cy="73.7" r="3" fill="#4aa3ff"/><circle cx="296.4" cy="73.7" r="3" fill="#4aa3ff"/><circle cx="299.5" cy="71.0" r="3" fill="#4aa3ff"/><circle cx="302.5" cy="71.0" r="3" fill="#4aa3ff"/><circle cx="305.6" cy="70.8" r="3" fill="#4aa3ff"/><circle cx="308.6" cy="70.6" r="3" fill="#4aa3ff"/><circle cx="311.7" cy="70.6" r="3" fill="#4aa3ff"/><circle cx="314.8" cy="70.4" r="3" fill="#4aa3ff"/><circle cx="317.8" cy="68.6" r="3" fill="#4aa3ff"/><circle cx="320.9" cy="60.5" r="3" fill="#4aa3ff"/><circle cx="324.0" cy="59.3" r="3" fill="#4aa3ff"/><circle cx="327.0" cy="52.0" r="3" fill="#4aa3ff"/><circle cx="330.1" cy="47.3" r="3" fill="#4aa3ff"/><circle cx="333.2" cy="40.1" r="3" fill="#4aa3ff"/><circle cx="336.2" cy="36.0" r="3" fill="#4aa3ff"/><circle cx="339.3" cy="36.0" r="3" fill="#4aa3ff"/><circle cx="342.3" cy="36.0" r="3" fill="#4aa3ff"/><circle cx="345.4" cy="36.0" r="3" fill="#4aa3ff"/><circle cx="348.5" cy="36.0" r="3" fill="#4aa3ff"/><circle cx="351.5" cy="36.0" r="3" fill="#4aa3ff"/><circle cx="354.6" cy="36.0" r="3" fill="#4aa3ff"/><circle cx="357.7" cy="36.0" r="3" fill="#4aa3ff"/><circle cx="360.7" cy="36.0" r="3" fill="#4aa3ff"/><circle cx="363.8" cy="36.0" r="3" fill="#4aa3ff"/><circle cx="366.8" cy="36.0" r="3" fill="#4aa3ff"/><circle cx="369.9" cy="36.0" r="3" fill="#4aa3ff"/><circle cx="373.0" cy="36.0" r="3" fill="#4aa3ff"/><circle cx="376.0" cy="36.0" r="3" fill="#4aa3ff"/><circle cx="379.1" cy="36.0" r="3" fill="#4aa3ff"/><circle cx="382.2" cy="36.0" r="3" fill="#4aa3ff"/><circle cx="385.2" cy="36.0" r="3" fill="#4aa3ff"/><circle cx="388.3" cy="36.0" r="3" fill="#4aa3ff"/><circle cx="391.4" cy="36.0" r="3" fill="#4aa3ff"/><circle cx="394.4" cy="36.0" r="3" fill="#4aa3ff"/><circle cx="397.5" cy="36.0" r="3" fill="#4aa3ff"/><circle cx="400.5" cy="36.0" r="3" fill="#4aa3ff"/><circle cx="403.6" cy="36.0" r="3" fill="#4aa3ff"/><circle cx="406.7" cy="36.0" r="3" fill="#4aa3ff"/><circle cx="409.7" cy="36.0" r="3" fill="#4aa3ff"/><circle cx="412.8" cy="36.0" r="3" fill="#4aa3ff"/><circle cx="415.9" cy="36.0" r="3" fill="#4aa3ff"/><circle cx="418.9" cy="36.0" r="3" fill="#4aa3ff"/><circle cx="422.0" cy="36.0" r="3" fill="#4aa3ff"/><circle cx="425.1" cy="36.0" r="3" fill="#4aa3ff"/><circle cx="428.1" cy="36.0" r="3" fill="#4aa3ff"/><circle cx="431.2" cy="36.0" r="3" fill="#4aa3ff"/><circle cx="434.2" cy="36.0" r="3" fill="#4aa3ff"/><circle cx="437.3" cy="36.0" r="3" fill="#4aa3ff"/><circle cx="440.4" cy="36.0" r="3" fill="#4aa3ff"/><circle cx="443.4" cy="36.0" r="3" fill="#4aa3ff"/><circle cx="446.5" cy="36.0" r="3" fill="#4aa3ff"/><circle cx="449.6" cy="36.0" r="3" fill="#4aa3ff"/><circle cx="452.6" cy="36.0" r="3" fill="#4aa3ff"/><circle cx="455.7" cy="36.0" r="3" fill="#4aa3ff"/><circle cx="458.8" cy="36.0" r="3" fill="#4aa3ff"/><circle cx="461.8" cy="36.0" r="3" fill="#4aa3ff"/><circle cx="464.9" cy="36.0" r="3" fill="#4aa3ff"/><circle cx="467.9" cy="36.0" r="3" fill="#4aa3ff"/><circle cx="471.0" cy="36.0" r="3" fill="#4aa3ff"/><circle cx="474.1" cy="36.0" r="3" fill="#4aa3ff"/><circle cx="477.1" cy="36.0" r="3" fill="#4aa3ff"/><circle cx="480.2" cy="36.0" r="3" fill="#4aa3ff"/><circle cx="483.3" cy="36.0" r="3" fill="#4aa3ff"/><circle cx="486.3" cy="36.0" r="3" fill="#4aa3ff"/><circle cx="489.4" cy="36.0" r="3" fill="#4aa3ff"/><circle cx="492.4" cy="36.0" r="3" fill="#4aa3ff"/><circle cx="495.5" cy="36.0" r="3" fill="#4aa3ff"/><circle cx="498.6" cy="36.0" r="3" fill="#4aa3ff"/><circle cx="501.6" cy="36.0" r="3" fill="#4aa3ff"/><circle cx="504.7" cy="36.0" r="3" fill="#4aa3ff"/><circle cx="507.8" cy="36.0" r="3" fill="#4aa3ff"/><circle cx="510.8" cy="36.0" r="3" fill="#4aa3ff"/><circle cx="513.9" cy="36.0" r="3" fill="#4aa3ff"/><circle cx="517.0" cy="36.0" r="3" fill="#4aa3ff"/><circle cx="520.0" cy="36.0" r="3" fill="#4aa3ff"/><circle cx="523.1" cy="36.0" r="3" fill="#4aa3ff"/><circle cx="526.1" cy="36.0" r="3" fill="#4aa3ff"/><circle cx="529.2" cy="36.0" r="3" fill="#4aa3ff"/><circle cx="532.3" cy="36.0" r="3" fill="#4aa3ff"/><circle cx="535.3" cy="36.0" r="3" fill="#4aa3ff"/><circle cx="538.4" cy="36.0" r="3" fill="#4aa3ff"/><circle cx="541.5" cy="36.0" r="3" fill="#4aa3ff"/><circle cx="544.5" cy="36.0" r="3" fill="#4aa3ff"/><circle cx="547.6" cy="36.0" r="3" fill="#4aa3ff"/><circle cx="550.7" cy="36.0" r="3" fill="#4aa3ff"/><circle cx="553.7" cy="36.0" r="3" fill="#4aa3ff"/><circle cx="556.8" cy="36.0" r="3" fill="#4aa3ff"/><circle cx="559.8" cy="36.0" r="3" fill="#4aa3ff"/><circle cx="562.9" cy="36.0" r="3" fill="#4aa3ff"/><circle cx="566.0" cy="36.0" r="3" fill="#4aa3ff"/><circle cx="569.0" cy="36.0" r="3" fill="#4aa3ff"/><circle cx="572.1" cy="36.0" r="3" fill="#4aa3ff"/><circle cx="575.2" cy="36.0" r="3" fill="#4aa3ff"/><circle cx="578.2" cy="36.0" r="3" fill="#4aa3ff"/><circle cx="581.3" cy="36.0" r="3" fill="#4aa3ff"/><circle cx="584.4" cy="36.0" r="3" fill="#4aa3ff"/><circle cx="587.4" cy="36.0" r="3" fill="#4aa3ff"/><circle cx="590.5" cy="36.0" r="3" fill="#4aa3ff"/><circle cx="593.5" cy="36.0" r="3" fill="#4aa3ff"/><circle cx="596.6" cy="36.0" r="3" fill="#4aa3ff"/><circle cx="599.7" cy="36.0" r="3" fill="#4aa3ff"/><circle cx="602.7" cy="36.0" r="3" fill="#4aa3ff"/><circle cx="605.8" cy="36.0" r="3" fill="#4aa3ff"/><circle cx="608.9" cy="36.0" r="3" fill="#4aa3ff"/><circle cx="611.9" cy="36.0" r="3" fill="#4aa3ff"/><circle cx="615.0" cy="36.0" r="3" fill="#4aa3ff"/><circle cx="618.0" cy="36.0" r="3" fill="#4aa3ff"/><circle cx="621.1" cy="36.0" r="3" fill="#4aa3ff"/><circle cx="624.2" cy="36.0" r="3" fill="#4aa3ff"/><circle cx="627.2" cy="36.0" r="3" fill="#4aa3ff"/><circle cx="630.3" cy="36.0" r="3" fill="#4aa3ff"/><circle cx="633.4" cy="36.0" r="3" fill="#4aa3ff"/><circle cx="636.4" cy="36.0" r="3" fill="#4aa3ff"/><circle cx="639.5" cy="36.0" r="3" fill="#4aa3ff"/><circle cx="642.6" cy="36.0" r="3" fill="#4aa3ff"/><circle cx="645.6" cy="36.0" r="3" fill="#4aa3ff"/><circle cx="648.7" cy="36.0" r="3" fill="#4aa3ff"/><circle cx="651.7" cy="36.0" r="3" fill="#4aa3ff"/><circle cx="654.8" cy="36.0" r="3" fill="#4aa3ff"/><circle cx="657.9" cy="36.0" r="3" fill="#4aa3ff"/><circle cx="660.9" cy="36.0" r="3" fill="#4aa3ff"/><circle cx="664.0" cy="36.0" r="3" fill="#4aa3ff"/>
<text x="36" y="225" fill="#6b7280" font-size="11">2026-06-26</text>
<text x="664" y="225" fill="#6b7280" font-size="11" text-anchor="end">2026-07-17</text>
<text x="36" y="212" font-family="system-ui,sans-serif" font-size="11">
<tspan fill="#4aa3ff">&#9679; open FPs</tspan>  <tspan fill="#3fb950">&#9679; closed (Anthropic acting)</tspan>  <tspan fill="#8a5a5a">&#9679; harness withdrawn</tspan></text>
<text x="664" y="22" text-anchor="end" font-family="system-ui,sans-serif" font-size="12">
<tspan fill="#4aa3ff">open 800</tspan>  <tspan fill="#3fb950">closed 0</tspan>  <tspan fill="#8a5a5a">harness 0</tspan></text>
</svg>