<svg xmlns="http://www.w3.org/2000/svg" width="700" height="234" viewBox="0 0 700 234" role="img">
<rect width="700" height="234" rx="12" fill="#16181d"/>
<text x="36" y="22" fill="#e8eaed" font-family="system-ui,sans-serif" font-size="14" font-weight="700">Is Anthropic acting? cyber/aup false positives over time</text>
<line x1="36" y1="198.0" x2="664" y2="198.0" stroke="#2a2e37" stroke-width="1"/><text x="30" y="202.0" fill="#6b7280" font-size="11" text-anchor="end">0</text><line x1="36" y1="117.0" x2="664" y2="117.0" stroke="#2a2e37" stroke-width="1"/><text x="30" y="121.0" fill="#6b7280" font-size="11" text-anchor="end">400</text><line x1="36" y1="36.0" x2="664" y2="36.0" stroke="#2a2e37" stroke-width="1"/><text x="30" y="40.0" fill="#6b7280" font-size="11" text-anchor="end">800</text>

<polyline fill="none" stroke="#8a5a5a" stroke-width="2.5" stroke-linejoin="round" points="36.0,145.1 40.5,145.1 45.0,145.1 49.5,145.1 53.9,145.1 58.4,145.1 62.9,145.1 67.4,145.1 71.9,145.1 76.4,145.1 80.9,145.1 85.3,145.1 89.8,145.1 94.3,145.1 98.8,145.1 103.3,145.1 107.8,145.1 112.3,145.1 116.7,145.1 121.2,145.1 125.7,145.1 130.2,145.1 134.7,145.1 139.2,145.1 143.7,145.1 148.1,145.1 152.6,145.1 157.1,145.1 161.6,145.1 166.1,145.1 170.6,145.1 175.1,145.1 179.5,145.1 184.0,145.1 188.5,145.1 193.0,145.1 197.5,145.1 202.0,145.1 206.5,145.1 210.9,145.1 215.4,145.1 219.9,145.1 224.4,145.1 228.9,145.1 233.4,145.1 237.9,145.1 242.3,145.1 246.8,145.1 251.3,145.1 255.8,145.1 260.3,155.7 264.8,155.7 269.3,155.7 273.7,155.7 278.2,155.7 282.7,155.7 287.2,155.7 291.7,155.7 296.2,155.7 300.7,155.7 305.1,155.7 309.6,155.7 314.1,155.7 318.6,155.7 323.1,155.7 327.6,155.7 332.1,155.7 336.5,155.7 341.0,155.7 345.5,155.7 350.0,155.7 354.5,155.7 359.0,155.7 363.5,155.7 367.9,155.7 372.4,155.7 376.9,155.7 381.4,155.7 385.9,155.7 390.4,155.7 394.9,155.7 399.3,155.7 403.8,155.7 408.3,155.7 412.8,167.6 417.3,167.6 421.8,170.3 426.3,170.3 430.7,170.5 435.2,170.7 439.7,170.7 444.2,170.9 448.7,172.7 453.2,180.6 457.7,181.8 462.1,189.1 466.6,190.5 471.1,195.2 475.6,198.0 480.1,198.0 484.6,198.0 489.1,198.0 493.5,198.0 498.0,198.0 502.5,198.0 507.0,198.0 511.5,198.0 516.0,198.0 520.5,198.0 524.9,198.0 529.4,198.0 533.9,198.0 538.4,198.0 542.9,198.0 547.4,198.0 551.9,198.0 556.3,198.0 560.8,198.0 565.3,198.0 569.8,198.0 574.3,198.0 578.8,198.0 583.3,198.0 587.7,198.0 592.2,198.0 596.7,198.0 601.2,198.0 605.7,198.0 610.2,198.0 614.7,198.0 619.1,198.0 623.6,198.0 628.1,198.0 632.6,198.0 637.1,198.0 641.6,198.0 646.1,198.0 650.5,198.0 655.0,198.0 659.5,198.0 664.0,198.0"/><circle cx="36.0" cy="145.1" r="3" fill="#8a5a5a"/><circle cx="40.5" cy="145.1" r="3" fill="#8a5a5a"/><circle cx="45.0" cy="145.1" r="3" fill="#8a5a5a"/><circle cx="49.5" cy="145.1" r="3" fill="#8a5a5a"/><circle cx="53.9" cy="145.1" r="3" fill="#8a5a5a"/><circle cx="58.4" cy="145.1" r="3" fill="#8a5a5a"/><circle cx="62.9" cy="145.1" r="3" fill="#8a5a5a"/><circle cx="67.4" cy="145.1" r="3" fill="#8a5a5a"/><circle cx="71.9" cy="145.1" r="3" fill="#8a5a5a"/><circle cx="76.4" cy="145.1" r="3" fill="#8a5a5a"/><circle cx="80.9" cy="145.1" r="3" fill="#8a5a5a"/><circle cx="85.3" cy="145.1" r="3" fill="#8a5a5a"/><circle cx="89.8" cy="145.1" r="3" fill="#8a5a5a"/><circle cx="94.3" cy="145.1" r="3" fill="#8a5a5a"/><circle cx="98.8" cy="145.1" r="3" fill="#8a5a5a"/><circle cx="103.3" cy="145.1" r="3" fill="#8a5a5a"/><circle cx="107.8" cy="145.1" r="3" fill="#8a5a5a"/><circle cx="112.3" cy="145.1" r="3" fill="#8a5a5a"/><circle cx="116.7" cy="145.1" r="3" fill="#8a5a5a"/><circle cx="121.2" cy="145.1" r="3" fill="#8a5a5a"/><circle cx="125.7" cy="145.1" r="3" fill="#8a5a5a"/><circle cx="130.2" cy="145.1" r="3" fill="#8a5a5a"/><circle cx="134.7" cy="145.1" r="3" fill="#8a5a5a"/><circle cx="139.2" cy="145.1" r="3" fill="#8a5a5a"/><circle cx="143.7" cy="145.1" r="3" fill="#8a5a5a"/><circle cx="148.1" cy="145.1" r="3" fill="#8a5a5a"/><circle cx="152.6" cy="145.1" r="3" fill="#8a5a5a"/><circle cx="157.1" cy="145.1" r="3" fill="#8a5a5a"/><circle cx="161.6" cy="145.1" r="3" fill="#8a5a5a"/><circle cx="166.1" cy="145.1" r="3" fill="#8a5a5a"/><circle cx="170.6" cy="145.1" r="3" fill="#8a5a5a"/><circle cx="175.1" cy="145.1" r="3" fill="#8a5a5a"/><circle cx="179.5" cy="145.1" r="3" fill="#8a5a5a"/><circle cx="184.0" cy="145.1" r="3" fill="#8a5a5a"/><circle cx="188.5" cy="145.1" r="3" fill="#8a5a5a"/><circle cx="193.0" cy="145.1" r="3" fill="#8a5a5a"/><circle cx="197.5" cy="145.1" r="3" fill="#8a5a5a"/><circle cx="202.0" cy="145.1" r="3" fill="#8a5a5a"/><circle cx="206.5" cy="145.1" r="3" fill="#8a5a5a"/><circle cx="210.9" cy="145.1" r="3" fill="#8a5a5a"/><circle cx="215.4" cy="145.1" r="3" fill="#8a5a5a"/><circle cx="219.9" cy="145.1" r="3" fill="#8a5a5a"/><circle cx="224.4" cy="145.1" r="3" fill="#8a5a5a"/><circle cx="228.9" cy="145.1" r="3" fill="#8a5a5a"/><circle cx="233.4" cy="145.1" r="3" fill="#8a5a5a"/><circle cx="237.9" cy="145.1" r="3" fill="#8a5a5a"/><circle cx="242.3" cy="145.1" r="3" fill="#8a5a5a"/><circle cx="246.8" cy="145.1" r="3" fill="#8a5a5a"/><circle cx="251.3" cy="145.1" r="3" fill="#8a5a5a"/><circle cx="255.8" cy="145.1" r="3" fill="#8a5a5a"/><circle cx="260.3" cy="155.7" r="3" fill="#8a5a5a"/><circle cx="264.8" cy="155.7" r="3" fill="#8a5a5a"/><circle cx="269.3" cy="155.7" r="3" fill="#8a5a5a"/><circle cx="273.7" cy="155.7" r="3" fill="#8a5a5a"/><circle cx="278.2" cy="155.7" r="3" fill="#8a5a5a"/><circle cx="282.7" cy="155.7" r="3" fill="#8a5a5a"/><circle cx="287.2" cy="155.7" r="3" fill="#8a5a5a"/><circle cx="291.7" cy="155.7" r="3" fill="#8a5a5a"/><circle cx="296.2" cy="155.7" r="3" fill="#8a5a5a"/><circle cx="300.7" cy="155.7" r="3" fill="#8a5a5a"/><circle cx="305.1" cy="155.7" r="3" fill="#8a5a5a"/><circle cx="309.6" cy="155.7" r="3" fill="#8a5a5a"/><circle cx="314.1" cy="155.7" r="3" fill="#8a5a5a"/><circle cx="318.6" cy="155.7" r="3" fill="#8a5a5a"/><circle cx="323.1" cy="155.7" r="3" fill="#8a5a5a"/><circle cx="327.6" cy="155.7" r="3" fill="#8a5a5a"/><circle cx="332.1" cy="155.7" r="3" fill="#8a5a5a"/><circle cx="336.5" cy="155.7" r="3" fill="#8a5a5a"/><circle cx="341.0" cy="155.7" r="3" fill="#8a5a5a"/><circle cx="345.5" cy="155.7" r="3" fill="#8a5a5a"/><circle cx="350.0" cy="155.7" r="3" fill="#8a5a5a"/><circle cx="354.5" cy="155.7" r="3" fill="#8a5a5a"/><circle cx="359.0" cy="155.7" r="3" fill="#8a5a5a"/><circle cx="363.5" cy="155.7" r="3" fill="#8a5a5a"/><circle cx="367.9" cy="155.7" r="3" fill="#8a5a5a"/><circle cx="372.4" cy="155.7" r="3" fill="#8a5a5a"/><circle cx="376.9" cy="155.7" r="3" fill="#8a5a5a"/><circle cx="381.4" cy="155.7" r="3" fill="#8a5a5a"/><circle cx="385.9" cy="155.7" r="3" fill="#8a5a5a"/><circle cx="390.4" cy="155.7" r="3" fill="#8a5a5a"/><circle cx="394.9" cy="155.7" r="3" fill="#8a5a5a"/><circle cx="399.3" cy="155.7" r="3" fill="#8a5a5a"/><circle cx="403.8" cy="155.7" r="3" fill="#8a5a5a"/><circle cx="408.3" cy="155.7" r="3" fill="#8a5a5a"/><circle cx="412.8" cy="167.6" r="3" fill="#8a5a5a"/><circle cx="417.3" cy="167.6" r="3" fill="#8a5a5a"/><circle cx="421.8" cy="170.3" r="3" fill="#8a5a5a"/><circle cx="426.3" cy="170.3" r="3" fill="#8a5a5a"/><circle cx="430.7" cy="170.5" r="3" fill="#8a5a5a"/><circle cx="435.2" cy="170.7" r="3" fill="#8a5a5a"/><circle cx="439.7" cy="170.7" r="3" fill="#8a5a5a"/><circle cx="444.2" cy="170.9" r="3" fill="#8a5a5a"/><circle cx="448.7" cy="172.7" r="3" fill="#8a5a5a"/><circle cx="453.2" cy="180.6" r="3" fill="#8a5a5a"/><circle cx="457.7" cy="181.8" r="3" fill="#8a5a5a"/><circle cx="462.1" cy="189.1" r="3" fill="#8a5a5a"/><circle cx="466.6" cy="190.5" r="3" fill="#8a5a5a"/><circle cx="471.1" cy="195.2" r="3" fill="#8a5a5a"/><circle cx="475.6" cy="198.0" r="3" fill="#8a5a5a"/><circle cx="480.1" cy="198.0" r="3" fill="#8a5a5a"/><circle cx="484.6" cy="198.0" r="3" fill="#8a5a5a"/><circle cx="489.1" cy="198.0" r="3" fill="#8a5a5a"/><circle cx="493.5" cy="198.0" r="3" fill="#8a5a5a"/><circle cx="498.0" cy="198.0" r="3" fill="#8a5a5a"/><circle cx="502.5" cy="198.0" r="3" fill="#8a5a5a"/><circle cx="507.0" cy="198.0" r="3" fill="#8a5a5a"/><circle cx="511.5" cy="198.0" r="3" fill="#8a5a5a"/><circle cx="516.0" cy="198.0" r="3" fill="#8a5a5a"/><circle cx="520.5" cy="198.0" r="3" fill="#8a5a5a"/><circle cx="524.9" cy="198.0" r="3" fill="#8a5a5a"/><circle cx="529.4" cy="198.0" r="3" fill="#8a5a5a"/><circle cx="533.9" cy="198.0" r="3" fill="#8a5a5a"/><circle cx="538.4" cy="198.0" r="3" fill="#8a5a5a"/><circle cx="542.9" cy="198.0" r="3" fill="#8a5a5a"/><circle cx="547.4" cy="198.0" r="3" fill="#8a5a5a"/><circle cx="551.9" cy="198.0" r="3" fill="#8a5a5a"/><circle cx="556.3" cy="198.0" r="3" fill="#8a5a5a"/><circle cx="560.8" cy="198.0" r="3" fill="#8a5a5a"/><circle cx="565.3" cy="198.0" r="3" fill="#8a5a5a"/><circle cx="569.8" cy="198.0" r="3" fill="#8a5a5a"/><circle cx="574.3" cy="198.0" r="3" fill="#8a5a5a"/><circle cx="578.8" cy="198.0" r="3" fill="#8a5a5a"/><circle cx="583.3" cy="198.0" r="3" fill="#8a5a5a"/><circle cx="587.7" cy="198.0" r="3" fill="#8a5a5a"/><circle cx="592.2" cy="198.0" r="3" fill="#8a5a5a"/><circle cx="596.7" cy="198.0" r="3" fill="#8a5a5a"/><circle cx="601.2" cy="198.0" r="3" fill="#8a5a5a"/><circle cx="605.7" cy="198.0" r="3" fill="#8a5a5a"/><circle cx="610.2" cy="198.0" r="3" fill="#8a5a5a"/><circle cx="614.7" cy="198.0" r="3" fill="#8a5a5a"/><circle cx="619.1" cy="198.0" r="3" fill="#8a5a5a"/><circle cx="623.6" cy="198.0" r="3" fill="#8a5a5a"/><circle cx="628.1" cy="198.0" r="3" fill="#8a5a5a"/><circle cx="632.6" cy="198.0" r="3" fill="#8a5a5a"/><circle cx="637.1" cy="198.0" r="3" fill="#8a5a5a"/><circle cx="641.6" cy="198.0" r="3" fill="#8a5a5a"/><circle cx="646.1" cy="198.0" r="3" fill="#8a5a5a"/><circle cx="650.5" cy="198.0" r="3" fill="#8a5a5a"/><circle cx="655.0" cy="198.0" r="3" fill="#8a5a5a"/><circle cx="659.5" cy="198.0" r="3" fill="#8a5a5a"/><circle cx="664.0" cy="198.0" r="3" fill="#8a5a5a"/>
<polyline fill="none" stroke="#3fb950" stroke-width="2.5" stroke-linejoin="round" points="36.0,198.0 40.5,198.0 45.0,198.0 49.5,198.0 53.9,198.0 58.4,198.0 62.9,198.0 67.4,198.0 71.9,198.0 76.4,198.0 80.9,198.0 85.3,198.0 89.8,198.0 94.3,198.0 98.8,198.0 103.3,198.0 107.8,198.0 112.3,198.0 116.7,198.0 121.2,198.0 125.7,198.0 130.2,198.0 134.7,198.0 139.2,198.0 143.7,198.0 148.1,198.0 152.6,198.0 157.1,198.0 161.6,198.0 166.1,198.0 170.6,198.0 175.1,198.0 179.5,198.0 184.0,198.0 188.5,198.0 193.0,198.0 197.5,198.0 202.0,198.0 206.5,198.0 210.9,198.0 215.4,198.0 219.9,198.0 224.4,198.0 228.9,191.7 233.4,191.7 237.9,191.7 242.3,191.7 246.8,191.7 251.3,191.7 255.8,191.7 260.3,192.9 264.8,192.9 269.3,190.7 273.7,190.7 278.2,190.7 282.7,190.7 287.2,190.7 291.7,190.5 296.2,190.5 300.7,190.5 305.1,190.3 309.6,190.3 314.1,190.3 318.6,190.3 323.1,190.3 327.6,190.3 332.1,190.3 336.5,190.3 341.0,190.3 345.5,190.3 350.0,190.3 354.5,190.3 359.0,190.3 363.5,190.3 367.9,190.3 372.4,190.3 376.9,190.3 381.4,190.3 385.9,190.3 390.4,190.3 394.9,190.3 399.3,189.3 403.8,189.3 408.3,189.3 412.8,190.7 417.3,190.7 421.8,190.7 426.3,190.7 430.7,190.7 435.2,190.7 439.7,190.7 444.2,190.7 448.7,190.7 453.2,190.9 457.7,190.9 462.1,190.9 466.6,194.2 471.1,196.8 475.6,198.0 480.1,198.0 484.6,198.0 489.1,198.0 493.5,198.0 498.0,198.0 502.5,198.0 507.0,198.0 511.5,198.0 516.0,198.0 520.5,198.0 524.9,198.0 529.4,198.0 533.9,198.0 538.4,198.0 542.9,198.0 547.4,198.0 551.9,198.0 556.3,198.0 560.8,198.0 565.3,198.0 569.8,198.0 574.3,198.0 578.8,198.0 583.3,198.0 587.7,198.0 592.2,198.0 596.7,198.0 601.2,198.0 605.7,198.0 610.2,198.0 614.7,198.0 619.1,198.0 623.6,198.0 628.1,198.0 632.6,198.0 637.1,198.0 641.6,198.0 646.1,198.0 650.5,198.0 655.0,198.0 659.5,198.0 664.0,198.0"/><circle cx="36.0" cy="198.0" r="3" fill="#3fb950"/><circle cx="40.5" cy="198.0" r="3" fill="#3fb950"/><circle cx="45.0" cy="198.0" r="3" fill="#3fb950"/><circle cx="49.5" cy="198.0" r="3" fill="#3fb950"/><circle cx="53.9" cy="198.0" r="3" fill="#3fb950"/><circle cx="58.4" cy="198.0" r="3" fill="#3fb950"/><circle cx="62.9" cy="198.0" r="3" fill="#3fb950"/><circle cx="67.4" cy="198.0" r="3" fill="#3fb950"/><circle cx="71.9" cy="198.0" r="3" fill="#3fb950"/><circle cx="76.4" cy="198.0" r="3" fill="#3fb950"/><circle cx="80.9" cy="198.0" r="3" fill="#3fb950"/><circle cx="85.3" cy="198.0" r="3" fill="#3fb950"/><circle cx="89.8" cy="198.0" r="3" fill="#3fb950"/><circle cx="94.3" cy="198.0" r="3" fill="#3fb950"/><circle cx="98.8" cy="198.0" r="3" fill="#3fb950"/><circle cx="103.3" cy="198.0" r="3" fill="#3fb950"/><circle cx="107.8" cy="198.0" r="3" fill="#3fb950"/><circle cx="112.3" cy="198.0" r="3" fill="#3fb950"/><circle cx="116.7" cy="198.0" r="3" fill="#3fb950"/><circle cx="121.2" cy="198.0" r="3" fill="#3fb950"/><circle cx="125.7" cy="198.0" r="3" fill="#3fb950"/><circle cx="130.2" cy="198.0" r="3" fill="#3fb950"/><circle cx="134.7" cy="198.0" r="3" fill="#3fb950"/><circle cx="139.2" cy="198.0" r="3" fill="#3fb950"/><circle cx="143.7" cy="198.0" r="3" fill="#3fb950"/><circle cx="148.1" cy="198.0" r="3" fill="#3fb950"/><circle cx="152.6" cy="198.0" r="3" fill="#3fb950"/><circle cx="157.1" cy="198.0" r="3" fill="#3fb950"/><circle cx="161.6" cy="198.0" r="3" fill="#3fb950"/><circle cx="166.1" cy="198.0" r="3" fill="#3fb950"/><circle cx="170.6" cy="198.0" r="3" fill="#3fb950"/><circle cx="175.1" cy="198.0" r="3" fill="#3fb950"/><circle cx="179.5" cy="198.0" r="3" fill="#3fb950"/><circle cx="184.0" cy="198.0" r="3" fill="#3fb950"/><circle cx="188.5" cy="198.0" r="3" fill="#3fb950"/><circle cx="193.0" cy="198.0" r="3" fill="#3fb950"/><circle cx="197.5" cy="198.0" r="3" fill="#3fb950"/><circle cx="202.0" cy="198.0" r="3" fill="#3fb950"/><circle cx="206.5" cy="198.0" r="3" fill="#3fb950"/><circle cx="210.9" cy="198.0" r="3" fill="#3fb950"/><circle cx="215.4" cy="198.0" r="3" fill="#3fb950"/><circle cx="219.9" cy="198.0" r="3" fill="#3fb950"/><circle cx="224.4" cy="198.0" r="3" fill="#3fb950"/><circle cx="228.9" cy="191.7" r="3" fill="#3fb950"/><circle cx="233.4" cy="191.7" r="3" fill="#3fb950"/><circle cx="237.9" cy="191.7" r="3" fill="#3fb950"/><circle cx="242.3" cy="191.7" r="3" fill="#3fb950"/><circle cx="246.8" cy="191.7" r="3" fill="#3fb950"/><circle cx="251.3" cy="191.7" r="3" fill="#3fb950"/><circle cx="255.8" cy="191.7" r="3" fill="#3fb950"/><circle cx="260.3" cy="192.9" r="3" fill="#3fb950"/><circle cx="264.8" cy="192.9" r="3" fill="#3fb950"/><circle cx="269.3" cy="190.7" r="3" fill="#3fb950"/><circle cx="273.7" cy="190.7" r="3" fill="#3fb950"/><circle cx="278.2" cy="190.7" r="3" fill="#3fb950"/><circle cx="282.7" cy="190.7" r="3" fill="#3fb950"/><circle cx="287.2" cy="190.7" r="3" fill="#3fb950"/><circle cx="291.7" cy="190.5" r="3" fill="#3fb950"/><circle cx="296.2" cy="190.5" r="3" fill="#3fb950"/><circle cx="300.7" cy="190.5" r="3" fill="#3fb950"/><circle cx="305.1" cy="190.3" r="3" fill="#3fb950"/><circle cx="309.6" cy="190.3" r="3" fill="#3fb950"/><circle cx="314.1" cy="190.3" r="3" fill="#3fb950"/><circle cx="318.6" cy="190.3" r="3" fill="#3fb950"/><circle cx="323.1" cy="190.3" r="3" fill="#3fb950"/><circle cx="327.6" cy="190.3" r="3" fill="#3fb950"/><circle cx="332.1" cy="190.3" r="3" fill="#3fb950"/><circle cx="336.5" cy="190.3" r="3" fill="#3fb950"/><circle cx="341.0" cy="190.3" r="3" fill="#3fb950"/><circle cx="345.5" cy="190.3" r="3" fill="#3fb950"/><circle cx="350.0" cy="190.3" r="3" fill="#3fb950"/><circle cx="354.5" cy="190.3" r="3" fill="#3fb950"/><circle cx="359.0" cy="190.3" r="3" fill="#3fb950"/><circle cx="363.5" cy="190.3" r="3" fill="#3fb950"/><circle cx="367.9" cy="190.3" r="3" fill="#3fb950"/><circle cx="372.4" cy="190.3" r="3" fill="#3fb950"/><circle cx="376.9" cy="190.3" r="3" fill="#3fb950"/><circle cx="381.4" cy="190.3" r="3" fill="#3fb950"/><circle cx="385.9" cy="190.3" r="3" fill="#3fb950"/><circle cx="390.4" cy="190.3" r="3" fill="#3fb950"/><circle cx="394.9" cy="190.3" r="3" fill="#3fb950"/><circle cx="399.3" cy="189.3" r="3" fill="#3fb950"/><circle cx="403.8" cy="189.3" r="3" fill="#3fb950"/><circle cx="408.3" cy="189.3" r="3" fill="#3fb950"/><circle cx="412.8" cy="190.7" r="3" fill="#3fb950"/><circle cx="417.3" cy="190.7" r="3" fill="#3fb950"/><circle cx="421.8" cy="190.7" r="3" fill="#3fb950"/><circle cx="426.3" cy="190.7" r="3" fill="#3fb950"/><circle cx="430.7" cy="190.7" r="3" fill="#3fb950"/><circle cx="435.2" cy="190.7" r="3" fill="#3fb950"/><circle cx="439.7" cy="190.7" r="3" fill="#3fb950"/><circle cx="444.2" cy="190.7" r="3" fill="#3fb950"/><circle cx="448.7" cy="190.7" r="3" fill="#3fb950"/><circle cx="453.2" cy="190.9" r="3" fill="#3fb950"/><circle cx="457.7" cy="190.9" r="3" fill="#3fb950"/><circle cx="462.1" cy="190.9" r="3" fill="#3fb950"/><circle cx="466.6" cy="194.2" r="3" fill="#3fb950"/><circle cx="471.1" cy="196.8" r="3" fill="#3fb950"/><circle cx="475.6" cy="198.0" r="3" fill="#3fb950"/><circle cx="480.1" cy="198.0" r="3" fill="#3fb950"/><circle cx="484.6" cy="198.0" r="3" fill="#3fb950"/><circle cx="489.1" cy="198.0" r="3" fill="#3fb950"/><circle cx="493.5" cy="198.0" r="3" fill="#3fb950"/><circle cx="498.0" cy="198.0" r="3" fill="#3fb950"/><circle cx="502.5" cy="198.0" r="3" fill="#3fb950"/><circle cx="507.0" cy="198.0" r="3" fill="#3fb950"/><circle cx="511.5" cy="198.0" r="3" fill="#3fb950"/><circle cx="516.0" cy="198.0" r="3" fill="#3fb950"/><circle cx="520.5" cy="198.0" r="3" fill="#3fb950"/><circle cx="524.9" cy="198.0" r="3" fill="#3fb950"/><circle cx="529.4" cy="198.0" r="3" fill="#3fb950"/><circle cx="533.9" cy="198.0" r="3" fill="#3fb950"/><circle cx="538.4" cy="198.0" r="3" fill="#3fb950"/><circle cx="542.9" cy="198.0" r="3" fill="#3fb950"/><circle cx="547.4" cy="198.0" r="3" fill="#3fb950"/><circle cx="551.9" cy="198.0" r="3" fill="#3fb950"/><circle cx="556.3" cy="198.0" r="3" fill="#3fb950"/><circle cx="560.8" cy="198.0" r="3" fill="#3fb950"/><circle cx="565.3" cy="198.0" r="3" fill="#3fb950"/><circle cx="569.8" cy="198.0" r="3" fill="#3fb950"/><circle cx="574.3" cy="198.0" r="3" fill="#3fb950"/><circle cx="578.8" cy="198.0" r="3" fill="#3fb950"/><circle cx="583.3" cy="198.0" r="3" fill="#3fb950"/><circle cx="587.7" cy="198.0" r="3" fill="#3fb950"/><circle cx="592.2" cy="198.0" r="3" fill="#3fb950"/><circle cx="596.7" cy="198.0" r="3" fill="#3fb950"/><circle cx="601.2" cy="198.0" r="3" fill="#3fb950"/><circle cx="605.7" cy="198.0" r="3" fill="#3fb950"/><circle cx="610.2" cy="198.0" r="3" fill="#3fb950"/><circle cx="614.7" cy="198.0" r="3" fill="#3fb950"/><circle cx="619.1" cy="198.0" r="3" fill="#3fb950"/><circle cx="623.6" cy="198.0" r="3" fill="#3fb950"/><circle cx="628.1" cy="198.0" r="3" fill="#3fb950"/><circle cx="632.6" cy="198.0" r="3" fill="#3fb950"/><circle cx="637.1" cy="198.0" r="3" fill="#3fb950"/><circle cx="641.6" cy="198.0" r="3" fill="#3fb950"/><circle cx="646.1" cy="198.0" r="3" fill="#3fb950"/><circle cx="650.5" cy="198.0" r="3" fill="#3fb950"/><circle cx="655.0" cy="198.0" r="3" fill="#3fb950"/><circle cx="659.5" cy="198.0" r="3" fill="#3fb950"/><circle cx="664.0" cy="198.0" r="3" fill="#3fb950"/>
<polyline fill="none" stroke="#4aa3ff" stroke-width="2.5" stroke-linejoin="round" points="36.0,144.3 40.5,144.3 45.0,144.3 49.5,144.3 53.9,144.3 58.4,144.3 62.9,144.3 67.4,144.3 71.9,144.3 76.4,144.3 80.9,144.3 85.3,144.3 89.8,144.3 94.3,144.3 98.8,144.3 103.3,136.2 107.8,132.4 112.3,129.6 116.7,129.6 121.2,121.0 125.7,121.0 130.2,121.0 134.7,114.4 139.2,114.4 143.7,114.4 148.1,111.3 152.6,110.9 157.1,110.9 161.6,110.5 166.1,110.5 170.6,109.9 175.1,108.7 179.5,107.3 184.0,106.9 188.5,106.9 193.0,106.9 197.5,106.9 202.0,106.9 206.5,106.9 210.9,106.9 215.4,106.9 219.9,106.9 224.4,106.9 228.9,113.2 233.4,113.2 237.9,113.2 242.3,113.2 246.8,113.2 251.3,110.7 255.8,105.3 260.3,83.4 264.8,83.4 269.3,85.6 273.7,85.6 278.2,85.6 282.7,85.6 287.2,85.6 291.7,85.8 296.2,85.8 300.7,85.8 305.1,86.0 309.6,86.0 314.1,86.0 318.6,86.0 323.1,86.0 327.6,86.0 332.1,86.0 336.5,86.0 341.0,86.0 345.5,86.0 350.0,86.0 354.5,86.0 359.0,86.0 363.5,86.0 367.9,86.0 372.4,86.0 376.9,86.0 381.4,86.0 385.9,86.0 390.4,86.0 394.9,86.0 399.3,87.0 403.8,87.0 408.3,87.0 412.8,73.7 417.3,73.7 421.8,71.0 426.3,71.0 430.7,70.8 435.2,70.6 439.7,70.6 444.2,70.4 448.7,68.6 453.2,60.5 457.7,59.3 462.1,52.0 466.6,47.3 471.1,40.1 475.6,36.0 480.1,36.0 484.6,36.0 489.1,36.0 493.5,36.0 498.0,36.0 502.5,36.0 507.0,36.0 511.5,36.0 516.0,36.0 520.5,36.0 524.9,36.0 529.4,36.0 533.9,36.0 538.4,36.0 542.9,36.0 547.4,36.0 551.9,36.0 556.3,36.0 560.8,36.0 565.3,36.0 569.8,36.0 574.3,36.0 578.8,36.0 583.3,36.0 587.7,36.0 592.2,36.0 596.7,36.0 601.2,36.0 605.7,36.0 610.2,36.0 614.7,36.0 619.1,36.0 623.6,36.0 628.1,36.0 632.6,36.0 637.1,36.0 641.6,36.0 646.1,36.0 650.5,36.0 655.0,36.0 659.5,36.0 664.0,36.0"/><circle cx="36.0" cy="144.3" r="3" fill="#4aa3ff"/><circle cx="40.5" cy="144.3" r="3" fill="#4aa3ff"/><circle cx="45.0" cy="144.3" r="3" fill="#4aa3ff"/><circle cx="49.5" cy="144.3" r="3" fill="#4aa3ff"/><circle cx="53.9" cy="144.3" r="3" fill="#4aa3ff"/><circle cx="58.4" cy="144.3" r="3" fill="#4aa3ff"/><circle cx="62.9" cy="144.3" r="3" fill="#4aa3ff"/><circle cx="67.4" cy="144.3" r="3" fill="#4aa3ff"/><circle cx="71.9" cy="144.3" r="3" fill="#4aa3ff"/><circle cx="76.4" cy="144.3" r="3" fill="#4aa3ff"/><circle cx="80.9" cy="144.3" r="3" fill="#4aa3ff"/><circle cx="85.3" cy="144.3" r="3" fill="#4aa3ff"/><circle cx="89.8" cy="144.3" r="3" fill="#4aa3ff"/><circle cx="94.3" cy="144.3" r="3" fill="#4aa3ff"/><circle cx="98.8" cy="144.3" r="3" fill="#4aa3ff"/><circle cx="103.3" cy="136.2" r="3" fill="#4aa3ff"/><circle cx="107.8" cy="132.4" r="3" fill="#4aa3ff"/><circle cx="112.3" cy="129.6" r="3" fill="#4aa3ff"/><circle cx="116.7" cy="129.6" r="3" fill="#4aa3ff"/><circle cx="121.2" cy="121.0" r="3" fill="#4aa3ff"/><circle cx="125.7" cy="121.0" r="3" fill="#4aa3ff"/><circle cx="130.2" cy="121.0" r="3" fill="#4aa3ff"/><circle cx="134.7" cy="114.4" r="3" fill="#4aa3ff"/><circle cx="139.2" cy="114.4" r="3" fill="#4aa3ff"/><circle cx="143.7" cy="114.4" r="3" fill="#4aa3ff"/><circle cx="148.1" cy="111.3" r="3" fill="#4aa3ff"/><circle cx="152.6" cy="110.9" r="3" fill="#4aa3ff"/><circle cx="157.1" cy="110.9" r="3" fill="#4aa3ff"/><circle cx="161.6" cy="110.5" r="3" fill="#4aa3ff"/><circle cx="166.1" cy="110.5" r="3" fill="#4aa3ff"/><circle cx="170.6" cy="109.9" r="3" fill="#4aa3ff"/><circle cx="175.1" cy="108.7" r="3" fill="#4aa3ff"/><circle cx="179.5" cy="107.3" r="3" fill="#4aa3ff"/><circle cx="184.0" cy="106.9" r="3" fill="#4aa3ff"/><circle cx="188.5" cy="106.9" r="3" fill="#4aa3ff"/><circle cx="193.0" cy="106.9" r="3" fill="#4aa3ff"/><circle cx="197.5" cy="106.9" r="3" fill="#4aa3ff"/><circle cx="202.0" cy="106.9" r="3" fill="#4aa3ff"/><circle cx="206.5" cy="106.9" r="3" fill="#4aa3ff"/><circle cx="210.9" cy="106.9" r="3" fill="#4aa3ff"/><circle cx="215.4" cy="106.9" r="3" fill="#4aa3ff"/><circle cx="219.9" cy="106.9" r="3" fill="#4aa3ff"/><circle cx="224.4" cy="106.9" r="3" fill="#4aa3ff"/><circle cx="228.9" cy="113.2" r="3" fill="#4aa3ff"/><circle cx="233.4" cy="113.2" r="3" fill="#4aa3ff"/><circle cx="237.9" cy="113.2" r="3" fill="#4aa3ff"/><circle cx="242.3" cy="113.2" r="3" fill="#4aa3ff"/><circle cx="246.8" cy="113.2" r="3" fill="#4aa3ff"/><circle cx="251.3" cy="110.7" r="3" fill="#4aa3ff"/><circle cx="255.8" cy="105.3" r="3" fill="#4aa3ff"/><circle cx="260.3" cy="83.4" r="3" fill="#4aa3ff"/><circle cx="264.8" cy="83.4" r="3" fill="#4aa3ff"/><circle cx="269.3" cy="85.6" r="3" fill="#4aa3ff"/><circle cx="273.7" cy="85.6" r="3" fill="#4aa3ff"/><circle cx="278.2" cy="85.6" r="3" fill="#4aa3ff"/><circle cx="282.7" cy="85.6" r="3" fill="#4aa3ff"/><circle cx="287.2" cy="85.6" r="3" fill="#4aa3ff"/><circle cx="291.7" cy="85.8" r="3" fill="#4aa3ff"/><circle cx="296.2" cy="85.8" r="3" fill="#4aa3ff"/><circle cx="300.7" cy="85.8" r="3" fill="#4aa3ff"/><circle cx="305.1" cy="86.0" r="3" fill="#4aa3ff"/><circle cx="309.6" cy="86.0" r="3" fill="#4aa3ff"/><circle cx="314.1" cy="86.0" r="3" fill="#4aa3ff"/><circle cx="318.6" cy="86.0" r="3" fill="#4aa3ff"/><circle cx="323.1" cy="86.0" r="3" fill="#4aa3ff"/><circle cx="327.6" cy="86.0" r="3" fill="#4aa3ff"/><circle cx="332.1" cy="86.0" r="3" fill="#4aa3ff"/><circle cx="336.5" cy="86.0" r="3" fill="#4aa3ff"/><circle cx="341.0" cy="86.0" r="3" fill="#4aa3ff"/><circle cx="345.5" cy="86.0" r="3" fill="#4aa3ff"/><circle cx="350.0" cy="86.0" r="3" fill="#4aa3ff"/><circle cx="354.5" cy="86.0" r="3" fill="#4aa3ff"/><circle cx="359.0" cy="86.0" r="3" fill="#4aa3ff"/><circle cx="363.5" cy="86.0" r="3" fill="#4aa3ff"/><circle cx="367.9" cy="86.0" r="3" fill="#4aa3ff"/><circle cx="372.4" cy="86.0" r="3" fill="#4aa3ff"/><circle cx="376.9" cy="86.0" r="3" fill="#4aa3ff"/><circle cx="381.4" cy="86.0" r="3" fill="#4aa3ff"/><circle cx="385.9" cy="86.0" r="3" fill="#4aa3ff"/><circle cx="390.4" cy="86.0" r="3" fill="#4aa3ff"/><circle cx="394.9" cy="86.0" r="3" fill="#4aa3ff"/><circle cx="399.3" cy="87.0" r="3" fill="#4aa3ff"/><circle cx="403.8" cy="87.0" r="3" fill="#4aa3ff"/><circle cx="408.3" cy="87.0" r="3" fill="#4aa3ff"/><circle cx="412.8" cy="73.7" r="3" fill="#4aa3ff"/><circle cx="417.3" cy="73.7" r="3" fill="#4aa3ff"/><circle cx="421.8" cy="71.0" r="3" fill="#4aa3ff"/><circle cx="426.3" cy="71.0" r="3" fill="#4aa3ff"/><circle cx="430.7" cy="70.8" r="3" fill="#4aa3ff"/><circle cx="435.2" cy="70.6" r="3" fill="#4aa3ff"/><circle cx="439.7" cy="70.6" r="3" fill="#4aa3ff"/><circle cx="444.2" cy="70.4" r="3" fill="#4aa3ff"/><circle cx="448.7" cy="68.6" r="3" fill="#4aa3ff"/><circle cx="453.2" cy="60.5" r="3" fill="#4aa3ff"/><circle cx="457.7" cy="59.3" r="3" fill="#4aa3ff"/><circle cx="462.1" cy="52.0" r="3" fill="#4aa3ff"/><circle cx="466.6" cy="47.3" r="3" fill="#4aa3ff"/><circle cx="471.1" cy="40.1" r="3" fill="#4aa3ff"/><circle cx="475.6" cy="36.0" r="3" fill="#4aa3ff"/><circle cx="480.1" cy="36.0" r="3" fill="#4aa3ff"/><circle cx="484.6" cy="36.0" r="3" fill="#4aa3ff"/><circle cx="489.1" cy="36.0" r="3" fill="#4aa3ff"/><circle cx="493.5" cy="36.0" r="3" fill="#4aa3ff"/><circle cx="498.0" cy="36.0" r="3" fill="#4aa3ff"/><circle cx="502.5" cy="36.0" r="3" fill="#4aa3ff"/><circle cx="507.0" cy="36.0" r="3" fill="#4aa3ff"/><circle cx="511.5" cy="36.0" r="3" fill="#4aa3ff"/><circle cx="516.0" cy="36.0" r="3" fill="#4aa3ff"/><circle cx="520.5" cy="36.0" r="3" fill="#4aa3ff"/><circle cx="524.9" cy="36.0" r="3" fill="#4aa3ff"/><circle cx="529.4" cy="36.0" r="3" fill="#4aa3ff"/><circle cx="533.9" cy="36.0" r="3" fill="#4aa3ff"/><circle cx="538.4" cy="36.0" r="3" fill="#4aa3ff"/><circle cx="542.9" cy="36.0" r="3" fill="#4aa3ff"/><circle cx="547.4" cy="36.0" r="3" fill="#4aa3ff"/><circle cx="551.9" cy="36.0" r="3" fill="#4aa3ff"/><circle cx="556.3" cy="36.0" r="3" fill="#4aa3ff"/><circle cx="560.8" cy="36.0" r="3" fill="#4aa3ff"/><circle cx="565.3" cy="36.0" r="3" fill="#4aa3ff"/><circle cx="569.8" cy="36.0" r="3" fill="#4aa3ff"/><circle cx="574.3" cy="36.0" r="3" fill="#4aa3ff"/><circle cx="578.8" cy="36.0" r="3" fill="#4aa3ff"/><circle cx="583.3" cy="36.0" r="3" fill="#4aa3ff"/><circle cx="587.7" cy="36.0" r="3" fill="#4aa3ff"/><circle cx="592.2" cy="36.0" r="3" fill="#4aa3ff"/><circle cx="596.7" cy="36.0" r="3" fill="#4aa3ff"/><circle cx="601.2" cy="36.0" r="3" fill="#4aa3ff"/><circle cx="605.7" cy="36.0" r="3" fill="#4aa3ff"/><circle cx="610.2" cy="36.0" r="3" fill="#4aa3ff"/><circle cx="614.7" cy="36.0" r="3" fill="#4aa3ff"/><circle cx="619.1" cy="36.0" r="3" fill="#4aa3ff"/><circle cx="623.6" cy="36.0" r="3" fill="#4aa3ff"/><circle cx="628.1" cy="36.0" r="3" fill="#4aa3ff"/><circle cx="632.6" cy="36.0" r="3" fill="#4aa3ff"/><circle cx="637.1" cy="36.0" r="3" fill="#4aa3ff"/><circle cx="641.6" cy="36.0" r="3" fill="#4aa3ff"/><circle cx="646.1" cy="36.0" r="3" fill="#4aa3ff"/><circle cx="650.5" cy="36.0" r="3" fill="#4aa3ff"/><circle cx="655.0" cy="36.0" r="3" fill="#4aa3ff"/><circle cx="659.5" cy="36.0" r="3" fill="#4aa3ff"/><circle cx="664.0" cy="36.0" r="3" fill="#4aa3ff"/>
<text x="36" y="225" fill="#6b7280" font-size="11">2026-06-26</text>
<text x="664" y="225" fill="#6b7280" font-size="11" text-anchor="end">2026-07-11</text>
<text x="36" y="212" font-family="system-ui,sans-serif" font-size="11">
<tspan fill="#4aa3ff">&#9679; open FPs</tspan>  <tspan fill="#3fb950">&#9679; closed (Anthropic acting)</tspan>  <tspan fill="#8a5a5a">&#9679; harness withdrawn</tspan></text>
<text x="664" y="22" text-anchor="end" font-family="system-ui,sans-serif" font-size="12">
<tspan fill="#4aa3ff">open 800</tspan>  <tspan fill="#3fb950">closed 0</tspan>  <tspan fill="#8a5a5a">harness 0</tspan></text>
</svg>