<svg xmlns="http://www.w3.org/2000/svg" width="700" height="234" viewBox="0 0 700 234" role="img">
<rect width="700" height="234" rx="12" fill="#16181d"/>
<text x="36" y="22" fill="#e8eaed" font-family="system-ui,sans-serif" font-size="14" font-weight="700">Is Anthropic acting? cyber/aup false positives over time</text>
<line x1="36" y1="198.0" x2="664" y2="198.0" stroke="#2a2e37" stroke-width="1"/><text x="30" y="202.0" fill="#6b7280" font-size="11" text-anchor="end">0</text><line x1="36" y1="117.0" x2="664" y2="117.0" stroke="#2a2e37" stroke-width="1"/><text x="30" y="121.0" fill="#6b7280" font-size="11" text-anchor="end">283</text><line x1="36" y1="36.0" x2="664" y2="36.0" stroke="#2a2e37" stroke-width="1"/><text x="30" y="40.0" fill="#6b7280" font-size="11" text-anchor="end">566</text>

<polyline fill="none" stroke="#8a5a5a" stroke-width="2.5" stroke-linejoin="round" points="36.0,123.3 46.5,123.3 56.9,123.3 67.4,123.3 77.9,123.3 88.3,123.3 98.8,123.3 109.3,123.3 119.7,123.3 130.2,123.3 140.7,123.3 151.1,123.3 161.6,123.3 172.1,123.3 182.5,123.3 193.0,123.3 203.5,123.3 213.9,123.3 224.4,123.3 234.9,123.3 245.3,123.3 255.8,123.3 266.3,123.3 276.7,123.3 287.2,123.3 297.7,123.3 308.1,123.3 318.6,123.3 329.1,123.3 339.5,123.3 350.0,123.3 360.5,123.3 370.9,123.3 381.4,123.3 391.9,123.3 402.3,123.3 412.8,123.3 423.3,123.3 433.7,123.3 444.2,123.3 454.7,123.3 465.1,123.3 475.6,123.3 486.1,123.3 496.5,123.3 507.0,123.3 517.5,123.3 527.9,123.3 538.4,123.3 548.9,123.3 559.3,138.2 569.8,138.2 580.3,138.2 590.7,138.2 601.2,138.2 611.7,138.2 622.1,138.2 632.6,138.2 643.1,138.2 653.5,138.2 664.0,138.2"/><circle cx="36.0" cy="123.3" r="3" fill="#8a5a5a"/><circle cx="46.5" cy="123.3" r="3" fill="#8a5a5a"/><circle cx="56.9" cy="123.3" r="3" fill="#8a5a5a"/><circle cx="67.4" cy="123.3" r="3" fill="#8a5a5a"/><circle cx="77.9" cy="123.3" r="3" fill="#8a5a5a"/><circle cx="88.3" cy="123.3" r="3" fill="#8a5a5a"/><circle cx="98.8" cy="123.3" r="3" fill="#8a5a5a"/><circle cx="109.3" cy="123.3" r="3" fill="#8a5a5a"/><circle cx="119.7" cy="123.3" r="3" fill="#8a5a5a"/><circle cx="130.2" cy="123.3" r="3" fill="#8a5a5a"/><circle cx="140.7" cy="123.3" r="3" fill="#8a5a5a"/><circle cx="151.1" cy="123.3" r="3" fill="#8a5a5a"/><circle cx="161.6" cy="123.3" r="3" fill="#8a5a5a"/><circle cx="172.1" cy="123.3" r="3" fill="#8a5a5a"/><circle cx="182.5" cy="123.3" r="3" fill="#8a5a5a"/><circle cx="193.0" cy="123.3" r="3" fill="#8a5a5a"/><circle cx="203.5" cy="123.3" r="3" fill="#8a5a5a"/><circle cx="213.9" cy="123.3" r="3" fill="#8a5a5a"/><circle cx="224.4" cy="123.3" r="3" fill="#8a5a5a"/><circle cx="234.9" cy="123.3" r="3" fill="#8a5a5a"/><circle cx="245.3" cy="123.3" r="3" fill="#8a5a5a"/><circle cx="255.8" cy="123.3" r="3" fill="#8a5a5a"/><circle cx="266.3" cy="123.3" r="3" fill="#8a5a5a"/><circle cx="276.7" cy="123.3" r="3" fill="#8a5a5a"/><circle cx="287.2" cy="123.3" r="3" fill="#8a5a5a"/><circle cx="297.7" cy="123.3" r="3" fill="#8a5a5a"/><circle cx="308.1" cy="123.3" r="3" fill="#8a5a5a"/><circle cx="318.6" cy="123.3" r="3" fill="#8a5a5a"/><circle cx="329.1" cy="123.3" r="3" fill="#8a5a5a"/><circle cx="339.5" cy="123.3" r="3" fill="#8a5a5a"/><circle cx="350.0" cy="123.3" r="3" fill="#8a5a5a"/><circle cx="360.5" cy="123.3" r="3" fill="#8a5a5a"/><circle cx="370.9" cy="123.3" r="3" fill="#8a5a5a"/><circle cx="381.4" cy="123.3" r="3" fill="#8a5a5a"/><circle cx="391.9" cy="123.3" r="3" fill="#8a5a5a"/><circle cx="402.3" cy="123.3" r="3" fill="#8a5a5a"/><circle cx="412.8" cy="123.3" r="3" fill="#8a5a5a"/><circle cx="423.3" cy="123.3" r="3" fill="#8a5a5a"/><circle cx="433.7" cy="123.3" r="3" fill="#8a5a5a"/><circle cx="444.2" cy="123.3" r="3" fill="#8a5a5a"/><circle cx="454.7" cy="123.3" r="3" fill="#8a5a5a"/><circle cx="465.1" cy="123.3" r="3" fill="#8a5a5a"/><circle cx="475.6" cy="123.3" r="3" fill="#8a5a5a"/><circle cx="486.1" cy="123.3" r="3" fill="#8a5a5a"/><circle cx="496.5" cy="123.3" r="3" fill="#8a5a5a"/><circle cx="507.0" cy="123.3" r="3" fill="#8a5a5a"/><circle cx="517.5" cy="123.3" r="3" fill="#8a5a5a"/><circle cx="527.9" cy="123.3" r="3" fill="#8a5a5a"/><circle cx="538.4" cy="123.3" r="3" fill="#8a5a5a"/><circle cx="548.9" cy="123.3" r="3" fill="#8a5a5a"/><circle cx="559.3" cy="138.2" r="3" fill="#8a5a5a"/><circle cx="569.8" cy="138.2" r="3" fill="#8a5a5a"/><circle cx="580.3" cy="138.2" r="3" fill="#8a5a5a"/><circle cx="590.7" cy="138.2" r="3" fill="#8a5a5a"/><circle cx="601.2" cy="138.2" r="3" fill="#8a5a5a"/><circle cx="611.7" cy="138.2" r="3" fill="#8a5a5a"/><circle cx="622.1" cy="138.2" r="3" fill="#8a5a5a"/><circle cx="632.6" cy="138.2" r="3" fill="#8a5a5a"/><circle cx="643.1" cy="138.2" r="3" fill="#8a5a5a"/><circle cx="653.5" cy="138.2" r="3" fill="#8a5a5a"/><circle cx="664.0" cy="138.2" r="3" fill="#8a5a5a"/>
<polyline fill="none" stroke="#3fb950" stroke-width="2.5" stroke-linejoin="round" points="36.0,198.0 46.5,198.0 56.9,198.0 67.4,198.0 77.9,198.0 88.3,198.0 98.8,198.0 109.3,198.0 119.7,198.0 130.2,198.0 140.7,198.0 151.1,198.0 161.6,198.0 172.1,198.0 182.5,198.0 193.0,198.0 203.5,198.0 213.9,198.0 224.4,198.0 234.9,198.0 245.3,198.0 255.8,198.0 266.3,198.0 276.7,198.0 287.2,198.0 297.7,198.0 308.1,198.0 318.6,198.0 329.1,198.0 339.5,198.0 350.0,198.0 360.5,198.0 370.9,198.0 381.4,198.0 391.9,198.0 402.3,198.0 412.8,198.0 423.3,198.0 433.7,198.0 444.2,198.0 454.7,198.0 465.1,198.0 475.6,198.0 486.1,189.1 496.5,189.1 507.0,189.1 517.5,189.1 527.9,189.1 538.4,189.1 548.9,189.1 559.3,190.8 569.8,190.8 580.3,187.7 590.7,187.7 601.2,187.7 611.7,187.7 622.1,187.7 632.6,187.4 643.1,187.4 653.5,187.4 664.0,187.1"/><circle cx="36.0" cy="198.0" r="3" fill="#3fb950"/><circle cx="46.5" cy="198.0" r="3" fill="#3fb950"/><circle cx="56.9" cy="198.0" r="3" fill="#3fb950"/><circle cx="67.4" cy="198.0" r="3" fill="#3fb950"/><circle cx="77.9" cy="198.0" r="3" fill="#3fb950"/><circle cx="88.3" cy="198.0" r="3" fill="#3fb950"/><circle cx="98.8" cy="198.0" r="3" fill="#3fb950"/><circle cx="109.3" cy="198.0" r="3" fill="#3fb950"/><circle cx="119.7" cy="198.0" r="3" fill="#3fb950"/><circle cx="130.2" cy="198.0" r="3" fill="#3fb950"/><circle cx="140.7" cy="198.0" r="3" fill="#3fb950"/><circle cx="151.1" cy="198.0" r="3" fill="#3fb950"/><circle cx="161.6" cy="198.0" r="3" fill="#3fb950"/><circle cx="172.1" cy="198.0" r="3" fill="#3fb950"/><circle cx="182.5" cy="198.0" r="3" fill="#3fb950"/><circle cx="193.0" cy="198.0" r="3" fill="#3fb950"/><circle cx="203.5" cy="198.0" r="3" fill="#3fb950"/><circle cx="213.9" cy="198.0" r="3" fill="#3fb950"/><circle cx="224.4" cy="198.0" r="3" fill="#3fb950"/><circle cx="234.9" cy="198.0" r="3" fill="#3fb950"/><circle cx="245.3" cy="198.0" r="3" fill="#3fb950"/><circle cx="255.8" cy="198.0" r="3" fill="#3fb950"/><circle cx="266.3" cy="198.0" r="3" fill="#3fb950"/><circle cx="276.7" cy="198.0" r="3" fill="#3fb950"/><circle cx="287.2" cy="198.0" r="3" fill="#3fb950"/><circle cx="297.7" cy="198.0" r="3" fill="#3fb950"/><circle cx="308.1" cy="198.0" r="3" fill="#3fb950"/><circle cx="318.6" cy="198.0" r="3" fill="#3fb950"/><circle cx="329.1" cy="198.0" r="3" fill="#3fb950"/><circle cx="339.5" cy="198.0" r="3" fill="#3fb950"/><circle cx="350.0" cy="198.0" r="3" fill="#3fb950"/><circle cx="360.5" cy="198.0" r="3" fill="#3fb950"/><circle cx="370.9" cy="198.0" r="3" fill="#3fb950"/><circle cx="381.4" cy="198.0" r="3" fill="#3fb950"/><circle cx="391.9" cy="198.0" r="3" fill="#3fb950"/><circle cx="402.3" cy="198.0" r="3" fill="#3fb950"/><circle cx="412.8" cy="198.0" r="3" fill="#3fb950"/><circle cx="423.3" cy="198.0" r="3" fill="#3fb950"/><circle cx="433.7" cy="198.0" r="3" fill="#3fb950"/><circle cx="444.2" cy="198.0" r="3" fill="#3fb950"/><circle cx="454.7" cy="198.0" r="3" fill="#3fb950"/><circle cx="465.1" cy="198.0" r="3" fill="#3fb950"/><circle cx="475.6" cy="198.0" r="3" fill="#3fb950"/><circle cx="486.1" cy="189.1" r="3" fill="#3fb950"/><circle cx="496.5" cy="189.1" r="3" fill="#3fb950"/><circle cx="507.0" cy="189.1" r="3" fill="#3fb950"/><circle cx="517.5" cy="189.1" r="3" fill="#3fb950"/><circle cx="527.9" cy="189.1" r="3" fill="#3fb950"/><circle cx="538.4" cy="189.1" r="3" fill="#3fb950"/><circle cx="548.9" cy="189.1" r="3" fill="#3fb950"/><circle cx="559.3" cy="190.8" r="3" fill="#3fb950"/><circle cx="569.8" cy="190.8" r="3" fill="#3fb950"/><circle cx="580.3" cy="187.7" r="3" fill="#3fb950"/><circle cx="590.7" cy="187.7" r="3" fill="#3fb950"/><circle cx="601.2" cy="187.7" r="3" fill="#3fb950"/><circle cx="611.7" cy="187.7" r="3" fill="#3fb950"/><circle cx="622.1" cy="187.7" r="3" fill="#3fb950"/><circle cx="632.6" cy="187.4" r="3" fill="#3fb950"/><circle cx="643.1" cy="187.4" r="3" fill="#3fb950"/><circle cx="653.5" cy="187.4" r="3" fill="#3fb950"/><circle cx="664.0" cy="187.1" r="3" fill="#3fb950"/>
<polyline fill="none" stroke="#4aa3ff" stroke-width="2.5" stroke-linejoin="round" points="36.0,122.2 46.5,122.2 56.9,122.2 67.4,122.2 77.9,122.2 88.3,122.2 98.8,122.2 109.3,122.2 119.7,122.2 130.2,122.2 140.7,122.2 151.1,122.2 161.6,122.2 172.1,122.2 182.5,122.2 193.0,110.7 203.5,105.3 213.9,101.3 224.4,101.3 234.9,89.2 245.3,89.2 255.8,89.2 266.3,79.8 276.7,79.8 287.2,79.8 297.7,75.5 308.1,74.9 318.6,74.9 329.1,74.4 339.5,74.4 350.0,73.5 360.5,71.8 370.9,69.8 381.4,69.2 391.9,69.2 402.3,69.2 412.8,69.2 423.3,69.2 433.7,69.2 444.2,69.2 454.7,69.2 465.1,69.2 475.6,69.2 486.1,78.1 496.5,78.1 507.0,78.1 517.5,78.1 527.9,78.1 538.4,74.6 548.9,66.9 559.3,36.0 569.8,36.0 580.3,39.1 590.7,39.1 601.2,39.1 611.7,39.1 622.1,39.1 632.6,39.4 643.1,39.4 653.5,39.4 664.0,39.7"/><circle cx="36.0" cy="122.2" r="3" fill="#4aa3ff"/><circle cx="46.5" cy="122.2" r="3" fill="#4aa3ff"/><circle cx="56.9" cy="122.2" r="3" fill="#4aa3ff"/><circle cx="67.4" cy="122.2" r="3" fill="#4aa3ff"/><circle cx="77.9" cy="122.2" r="3" fill="#4aa3ff"/><circle cx="88.3" cy="122.2" r="3" fill="#4aa3ff"/><circle cx="98.8" cy="122.2" r="3" fill="#4aa3ff"/><circle cx="109.3" cy="122.2" r="3" fill="#4aa3ff"/><circle cx="119.7" cy="122.2" r="3" fill="#4aa3ff"/><circle cx="130.2" cy="122.2" r="3" fill="#4aa3ff"/><circle cx="140.7" cy="122.2" r="3" fill="#4aa3ff"/><circle cx="151.1" cy="122.2" r="3" fill="#4aa3ff"/><circle cx="161.6" cy="122.2" r="3" fill="#4aa3ff"/><circle cx="172.1" cy="122.2" r="3" fill="#4aa3ff"/><circle cx="182.5" cy="122.2" r="3" fill="#4aa3ff"/><circle cx="193.0" cy="110.7" r="3" fill="#4aa3ff"/><circle cx="203.5" cy="105.3" r="3" fill="#4aa3ff"/><circle cx="213.9" cy="101.3" r="3" fill="#4aa3ff"/><circle cx="224.4" cy="101.3" r="3" fill="#4aa3ff"/><circle cx="234.9" cy="89.2" r="3" fill="#4aa3ff"/><circle cx="245.3" cy="89.2" r="3" fill="#4aa3ff"/><circle cx="255.8" cy="89.2" r="3" fill="#4aa3ff"/><circle cx="266.3" cy="79.8" r="3" fill="#4aa3ff"/><circle cx="276.7" cy="79.8" r="3" fill="#4aa3ff"/><circle cx="287.2" cy="79.8" r="3" fill="#4aa3ff"/><circle cx="297.7" cy="75.5" r="3" fill="#4aa3ff"/><circle cx="308.1" cy="74.9" r="3" fill="#4aa3ff"/><circle cx="318.6" cy="74.9" r="3" fill="#4aa3ff"/><circle cx="329.1" cy="74.4" r="3" fill="#4aa3ff"/><circle cx="339.5" cy="74.4" r="3" fill="#4aa3ff"/><circle cx="350.0" cy="73.5" r="3" fill="#4aa3ff"/><circle cx="360.5" cy="71.8" r="3" fill="#4aa3ff"/><circle cx="370.9" cy="69.8" r="3" fill="#4aa3ff"/><circle cx="381.4" cy="69.2" r="3" fill="#4aa3ff"/><circle cx="391.9" cy="69.2" r="3" fill="#4aa3ff"/><circle cx="402.3" cy="69.2" r="3" fill="#4aa3ff"/><circle cx="412.8" cy="69.2" r="3" fill="#4aa3ff"/><circle cx="423.3" cy="69.2" r="3" fill="#4aa3ff"/><circle cx="433.7" cy="69.2" r="3" fill="#4aa3ff"/><circle cx="444.2" cy="69.2" r="3" fill="#4aa3ff"/><circle cx="454.7" cy="69.2" r="3" fill="#4aa3ff"/><circle cx="465.1" cy="69.2" r="3" fill="#4aa3ff"/><circle cx="475.6" cy="69.2" r="3" fill="#4aa3ff"/><circle cx="486.1" cy="78.1" r="3" fill="#4aa3ff"/><circle cx="496.5" cy="78.1" r="3" fill="#4aa3ff"/><circle cx="507.0" cy="78.1" r="3" fill="#4aa3ff"/><circle cx="517.5" cy="78.1" r="3" fill="#4aa3ff"/><circle cx="527.9" cy="78.1" r="3" fill="#4aa3ff"/><circle cx="538.4" cy="74.6" r="3" fill="#4aa3ff"/><circle cx="548.9" cy="66.9" r="3" fill="#4aa3ff"/><circle cx="559.3" cy="36.0" r="3" fill="#4aa3ff"/><circle cx="569.8" cy="36.0" r="3" fill="#4aa3ff"/><circle cx="580.3" cy="39.1" r="3" fill="#4aa3ff"/><circle cx="590.7" cy="39.1" r="3" fill="#4aa3ff"/><circle cx="601.2" cy="39.1" r="3" fill="#4aa3ff"/><circle cx="611.7" cy="39.1" r="3" fill="#4aa3ff"/><circle cx="622.1" cy="39.1" r="3" fill="#4aa3ff"/><circle cx="632.6" cy="39.4" r="3" fill="#4aa3ff"/><circle cx="643.1" cy="39.4" r="3" fill="#4aa3ff"/><circle cx="653.5" cy="39.4" r="3" fill="#4aa3ff"/><circle cx="664.0" cy="39.7" r="3" fill="#4aa3ff"/>
<text x="36" y="225" fill="#6b7280" font-size="11">2026-06-26</text>
<text x="664" y="225" fill="#6b7280" font-size="11" text-anchor="end">2026-07-03</text>
<text x="36" y="212" font-family="system-ui,sans-serif" font-size="11">
<tspan fill="#4aa3ff">&#9679; open FPs</tspan>  <tspan fill="#3fb950">&#9679; closed (Anthropic acting)</tspan>  <tspan fill="#8a5a5a">&#9679; harness withdrawn</tspan></text>
<text x="664" y="22" text-anchor="end" font-family="system-ui,sans-serif" font-size="12">
<tspan fill="#4aa3ff">open 553</tspan>  <tspan fill="#3fb950">closed 38</tspan>  <tspan fill="#8a5a5a">harness 209</tspan></text>
</svg>