<svg xmlns="http://www.w3.org/2000/svg" width="700" height="234" viewBox="0 0 700 234" role="img">
<rect width="700" height="234" rx="12" fill="#16181d"/>
<text x="36" y="22" fill="#e8eaed" font-family="system-ui,sans-serif" font-size="14" font-weight="700">Is Anthropic acting? cyber/aup false positives over time</text>
<line x1="36" y1="198.0" x2="664" y2="198.0" stroke="#2a2e37" stroke-width="1"/><text x="30" y="202.0" fill="#6b7280" font-size="11" text-anchor="end">0</text><line x1="36" y1="117.0" x2="664" y2="117.0" stroke="#2a2e37" stroke-width="1"/><text x="30" y="121.0" fill="#6b7280" font-size="11" text-anchor="end">400</text><line x1="36" y1="36.0" x2="664" y2="36.0" stroke="#2a2e37" stroke-width="1"/><text x="30" y="40.0" fill="#6b7280" font-size="11" text-anchor="end">800</text>

<polyline fill="none" stroke="#8a5a5a" stroke-width="2.5" stroke-linejoin="round" points="36.0,145.1 38.6,145.1 41.1,145.1 43.7,145.1 46.3,145.1 48.9,145.1 51.4,145.1 54.0,145.1 56.6,145.1 59.2,145.1 61.7,145.1 64.3,145.1 66.9,145.1 69.5,145.1 72.0,145.1 74.6,145.1 77.2,145.1 79.8,145.1 82.3,145.1 84.9,145.1 87.5,145.1 90.0,145.1 92.6,145.1 95.2,145.1 97.8,145.1 100.3,145.1 102.9,145.1 105.5,145.1 108.1,145.1 110.6,145.1 113.2,145.1 115.8,145.1 118.4,145.1 120.9,145.1 123.5,145.1 126.1,145.1 128.7,145.1 131.2,145.1 133.8,145.1 136.4,145.1 139.0,145.1 141.5,145.1 144.1,145.1 146.7,145.1 149.2,145.1 151.8,145.1 154.4,145.1 157.0,145.1 159.5,145.1 162.1,145.1 164.7,155.7 167.3,155.7 169.8,155.7 172.4,155.7 175.0,155.7 177.6,155.7 180.1,155.7 182.7,155.7 185.3,155.7 187.9,155.7 190.4,155.7 193.0,155.7 195.6,155.7 198.1,155.7 200.7,155.7 203.3,155.7 205.9,155.7 208.4,155.7 211.0,155.7 213.6,155.7 216.2,155.7 218.7,155.7 221.3,155.7 223.9,155.7 226.5,155.7 229.0,155.7 231.6,155.7 234.2,155.7 236.8,155.7 239.3,155.7 241.9,155.7 244.5,155.7 247.0,155.7 249.6,155.7 252.2,167.6 254.8,167.6 257.3,170.3 259.9,170.3 262.5,170.5 265.1,170.7 267.6,170.7 270.2,170.9 272.8,172.7 275.4,180.6 277.9,181.8 280.5,189.1 283.1,190.5 285.7,195.2 288.2,198.0 290.8,198.0 293.4,198.0 296.0,198.0 298.5,198.0 301.1,198.0 303.7,198.0 306.2,198.0 308.8,198.0 311.4,198.0 314.0,198.0 316.5,198.0 319.1,198.0 321.7,198.0 324.3,198.0 326.8,198.0 329.4,198.0 332.0,198.0 334.6,198.0 337.1,198.0 339.7,198.0 342.3,198.0 344.9,198.0 347.4,198.0 350.0,198.0 352.6,198.0 355.1,198.0 357.7,198.0 360.3,198.0 362.9,198.0 365.4,198.0 368.0,198.0 370.6,198.0 373.2,198.0 375.7,198.0 378.3,198.0 380.9,198.0 383.5,198.0 386.0,198.0 388.6,198.0 391.2,198.0 393.8,198.0 396.3,198.0 398.9,198.0 401.5,198.0 404.0,198.0 406.6,198.0 409.2,198.0 411.8,198.0 414.3,198.0 416.9,198.0 419.5,198.0 422.1,198.0 424.6,198.0 427.2,198.0 429.8,198.0 432.4,198.0 434.9,198.0 437.5,198.0 440.1,198.0 442.7,198.0 445.2,198.0 447.8,198.0 450.4,198.0 453.0,198.0 455.5,198.0 458.1,198.0 460.7,198.0 463.2,198.0 465.8,198.0 468.4,198.0 471.0,198.0 473.5,198.0 476.1,198.0 478.7,198.0 481.3,198.0 483.8,198.0 486.4,198.0 489.0,198.0 491.6,198.0 494.1,198.0 496.7,198.0 499.3,198.0 501.9,198.0 504.4,198.0 507.0,198.0 509.6,198.0 512.1,198.0 514.7,198.0 517.3,198.0 519.9,198.0 522.4,198.0 525.0,198.0 527.6,198.0 530.2,198.0 532.7,198.0 535.3,198.0 537.9,198.0 540.5,198.0 543.0,198.0 545.6,198.0 548.2,198.0 550.8,198.0 553.3,198.0 555.9,198.0 558.5,198.0 561.0,198.0 563.6,198.0 566.2,198.0 568.8,198.0 571.3,198.0 573.9,198.0 576.5,198.0 579.1,198.0 581.6,198.0 584.2,198.0 586.8,198.0 589.4,198.0 591.9,198.0 594.5,198.0 597.1,198.0 599.7,198.0 602.2,198.0 604.8,198.0 607.4,198.0 610.0,198.0 612.5,198.0 615.1,198.0 617.7,198.0 620.2,198.0 622.8,198.0 625.4,198.0 628.0,198.0 630.5,198.0 633.1,198.0 635.7,198.0 638.3,198.0 640.8,198.0 643.4,198.0 646.0,198.0 648.6,198.0 651.1,198.0 653.7,198.0 656.3,198.0 658.9,198.0 661.4,198.0 664.0,198.0"/><circle cx="36.0" cy="145.1" r="3" fill="#8a5a5a"/><circle cx="38.6" cy="145.1" r="3" fill="#8a5a5a"/><circle cx="41.1" cy="145.1" r="3" fill="#8a5a5a"/><circle cx="43.7" cy="145.1" r="3" fill="#8a5a5a"/><circle cx="46.3" cy="145.1" r="3" fill="#8a5a5a"/><circle cx="48.9" cy="145.1" r="3" fill="#8a5a5a"/><circle cx="51.4" cy="145.1" r="3" fill="#8a5a5a"/><circle cx="54.0" cy="145.1" r="3" fill="#8a5a5a"/><circle cx="56.6" cy="145.1" r="3" fill="#8a5a5a"/><circle cx="59.2" cy="145.1" r="3" fill="#8a5a5a"/><circle cx="61.7" cy="145.1" r="3" fill="#8a5a5a"/><circle cx="64.3" cy="145.1" r="3" fill="#8a5a5a"/><circle cx="66.9" cy="145.1" r="3" fill="#8a5a5a"/><circle cx="69.5" cy="145.1" r="3" fill="#8a5a5a"/><circle cx="72.0" cy="145.1" r="3" fill="#8a5a5a"/><circle cx="74.6" cy="145.1" r="3" fill="#8a5a5a"/><circle cx="77.2" cy="145.1" r="3" fill="#8a5a5a"/><circle cx="79.8" cy="145.1" r="3" fill="#8a5a5a"/><circle cx="82.3" cy="145.1" r="3" fill="#8a5a5a"/><circle cx="84.9" cy="145.1" r="3" fill="#8a5a5a"/><circle cx="87.5" cy="145.1" r="3" fill="#8a5a5a"/><circle cx="90.0" cy="145.1" r="3" fill="#8a5a5a"/><circle cx="92.6" cy="145.1" r="3" fill="#8a5a5a"/><circle cx="95.2" cy="145.1" r="3" fill="#8a5a5a"/><circle cx="97.8" cy="145.1" r="3" fill="#8a5a5a"/><circle cx="100.3" cy="145.1" r="3" fill="#8a5a5a"/><circle cx="102.9" cy="145.1" r="3" fill="#8a5a5a"/><circle cx="105.5" cy="145.1" r="3" fill="#8a5a5a"/><circle cx="108.1" cy="145.1" r="3" fill="#8a5a5a"/><circle cx="110.6" cy="145.1" r="3" fill="#8a5a5a"/><circle cx="113.2" cy="145.1" r="3" fill="#8a5a5a"/><circle cx="115.8" cy="145.1" r="3" fill="#8a5a5a"/><circle cx="118.4" cy="145.1" r="3" fill="#8a5a5a"/><circle cx="120.9" cy="145.1" r="3" fill="#8a5a5a"/><circle cx="123.5" cy="145.1" r="3" fill="#8a5a5a"/><circle cx="126.1" cy="145.1" r="3" fill="#8a5a5a"/><circle cx="128.7" cy="145.1" r="3" fill="#8a5a5a"/><circle cx="131.2" cy="145.1" r="3" fill="#8a5a5a"/><circle cx="133.8" cy="145.1" r="3" fill="#8a5a5a"/><circle cx="136.4" cy="145.1" r="3" fill="#8a5a5a"/><circle cx="139.0" cy="145.1" r="3" fill="#8a5a5a"/><circle cx="141.5" cy="145.1" r="3" fill="#8a5a5a"/><circle cx="144.1" cy="145.1" r="3" fill="#8a5a5a"/><circle cx="146.7" cy="145.1" r="3" fill="#8a5a5a"/><circle cx="149.2" cy="145.1" r="3" fill="#8a5a5a"/><circle cx="151.8" cy="145.1" r="3" fill="#8a5a5a"/><circle cx="154.4" cy="145.1" r="3" fill="#8a5a5a"/><circle cx="157.0" cy="145.1" r="3" fill="#8a5a5a"/><circle cx="159.5" cy="145.1" r="3" fill="#8a5a5a"/><circle cx="162.1" cy="145.1" r="3" fill="#8a5a5a"/><circle cx="164.7" cy="155.7" r="3" fill="#8a5a5a"/><circle cx="167.3" cy="155.7" r="3" fill="#8a5a5a"/><circle cx="169.8" cy="155.7" r="3" fill="#8a5a5a"/><circle cx="172.4" cy="155.7" r="3" fill="#8a5a5a"/><circle cx="175.0" cy="155.7" r="3" fill="#8a5a5a"/><circle cx="177.6" cy="155.7" r="3" fill="#8a5a5a"/><circle cx="180.1" cy="155.7" r="3" fill="#8a5a5a"/><circle cx="182.7" cy="155.7" r="3" fill="#8a5a5a"/><circle cx="185.3" cy="155.7" r="3" fill="#8a5a5a"/><circle cx="187.9" cy="155.7" r="3" fill="#8a5a5a"/><circle cx="190.4" cy="155.7" r="3" fill="#8a5a5a"/><circle cx="193.0" cy="155.7" r="3" fill="#8a5a5a"/><circle cx="195.6" cy="155.7" r="3" fill="#8a5a5a"/><circle cx="198.1" cy="155.7" r="3" fill="#8a5a5a"/><circle cx="200.7" cy="155.7" r="3" fill="#8a5a5a"/><circle cx="203.3" cy="155.7" r="3" fill="#8a5a5a"/><circle cx="205.9" cy="155.7" r="3" fill="#8a5a5a"/><circle cx="208.4" cy="155.7" r="3" fill="#8a5a5a"/><circle cx="211.0" cy="155.7" r="3" fill="#8a5a5a"/><circle cx="213.6" cy="155.7" r="3" fill="#8a5a5a"/><circle cx="216.2" cy="155.7" r="3" fill="#8a5a5a"/><circle cx="218.7" cy="155.7" r="3" fill="#8a5a5a"/><circle cx="221.3" cy="155.7" r="3" fill="#8a5a5a"/><circle cx="223.9" cy="155.7" r="3" fill="#8a5a5a"/><circle cx="226.5" cy="155.7" r="3" fill="#8a5a5a"/><circle cx="229.0" cy="155.7" r="3" fill="#8a5a5a"/><circle cx="231.6" cy="155.7" r="3" fill="#8a5a5a"/><circle cx="234.2" cy="155.7" r="3" fill="#8a5a5a"/><circle cx="236.8" cy="155.7" r="3" fill="#8a5a5a"/><circle cx="239.3" cy="155.7" r="3" fill="#8a5a5a"/><circle cx="241.9" cy="155.7" r="3" fill="#8a5a5a"/><circle cx="244.5" cy="155.7" r="3" fill="#8a5a5a"/><circle cx="247.0" cy="155.7" r="3" fill="#8a5a5a"/><circle cx="249.6" cy="155.7" r="3" fill="#8a5a5a"/><circle cx="252.2" cy="167.6" r="3" fill="#8a5a5a"/><circle cx="254.8" cy="167.6" r="3" fill="#8a5a5a"/><circle cx="257.3" cy="170.3" r="3" fill="#8a5a5a"/><circle cx="259.9" cy="170.3" r="3" fill="#8a5a5a"/><circle cx="262.5" cy="170.5" r="3" fill="#8a5a5a"/><circle cx="265.1" cy="170.7" r="3" fill="#8a5a5a"/><circle cx="267.6" cy="170.7" r="3" fill="#8a5a5a"/><circle cx="270.2" cy="170.9" r="3" fill="#8a5a5a"/><circle cx="272.8" cy="172.7" r="3" fill="#8a5a5a"/><circle cx="275.4" cy="180.6" r="3" fill="#8a5a5a"/><circle cx="277.9" cy="181.8" r="3" fill="#8a5a5a"/><circle cx="280.5" cy="189.1" r="3" fill="#8a5a5a"/><circle cx="283.1" cy="190.5" r="3" fill="#8a5a5a"/><circle cx="285.7" cy="195.2" r="3" fill="#8a5a5a"/><circle cx="288.2" cy="198.0" r="3" fill="#8a5a5a"/><circle cx="290.8" cy="198.0" r="3" fill="#8a5a5a"/><circle cx="293.4" cy="198.0" r="3" fill="#8a5a5a"/><circle cx="296.0" cy="198.0" r="3" fill="#8a5a5a"/><circle cx="298.5" cy="198.0" r="3" fill="#8a5a5a"/><circle cx="301.1" cy="198.0" r="3" fill="#8a5a5a"/><circle cx="303.7" cy="198.0" r="3" fill="#8a5a5a"/><circle cx="306.2" cy="198.0" r="3" fill="#8a5a5a"/><circle cx="308.8" cy="198.0" r="3" fill="#8a5a5a"/><circle cx="311.4" cy="198.0" r="3" fill="#8a5a5a"/><circle cx="314.0" cy="198.0" r="3" fill="#8a5a5a"/><circle cx="316.5" cy="198.0" r="3" fill="#8a5a5a"/><circle cx="319.1" cy="198.0" r="3" fill="#8a5a5a"/><circle cx="321.7" cy="198.0" r="3" fill="#8a5a5a"/><circle cx="324.3" cy="198.0" r="3" fill="#8a5a5a"/><circle cx="326.8" cy="198.0" r="3" fill="#8a5a5a"/><circle cx="329.4" cy="198.0" r="3" fill="#8a5a5a"/><circle cx="332.0" cy="198.0" r="3" fill="#8a5a5a"/><circle cx="334.6" cy="198.0" r="3" fill="#8a5a5a"/><circle cx="337.1" cy="198.0" r="3" fill="#8a5a5a"/><circle cx="339.7" cy="198.0" r="3" fill="#8a5a5a"/><circle cx="342.3" cy="198.0" r="3" fill="#8a5a5a"/><circle cx="344.9" cy="198.0" r="3" fill="#8a5a5a"/><circle cx="347.4" cy="198.0" r="3" fill="#8a5a5a"/><circle cx="350.0" cy="198.0" r="3" fill="#8a5a5a"/><circle cx="352.6" cy="198.0" r="3" fill="#8a5a5a"/><circle cx="355.1" cy="198.0" r="3" fill="#8a5a5a"/><circle cx="357.7" cy="198.0" r="3" fill="#8a5a5a"/><circle cx="360.3" cy="198.0" r="3" fill="#8a5a5a"/><circle cx="362.9" cy="198.0" r="3" fill="#8a5a5a"/><circle cx="365.4" cy="198.0" r="3" fill="#8a5a5a"/><circle cx="368.0" cy="198.0" r="3" fill="#8a5a5a"/><circle cx="370.6" cy="198.0" r="3" fill="#8a5a5a"/><circle cx="373.2" cy="198.0" r="3" fill="#8a5a5a"/><circle cx="375.7" cy="198.0" r="3" fill="#8a5a5a"/><circle cx="378.3" cy="198.0" r="3" fill="#8a5a5a"/><circle cx="380.9" cy="198.0" r="3" fill="#8a5a5a"/><circle cx="383.5" cy="198.0" r="3" fill="#8a5a5a"/><circle cx="386.0" cy="198.0" r="3" fill="#8a5a5a"/><circle cx="388.6" cy="198.0" r="3" fill="#8a5a5a"/><circle cx="391.2" cy="198.0" r="3" fill="#8a5a5a"/><circle cx="393.8" cy="198.0" r="3" fill="#8a5a5a"/><circle cx="396.3" cy="198.0" r="3" fill="#8a5a5a"/><circle cx="398.9" cy="198.0" r="3" fill="#8a5a5a"/><circle cx="401.5" cy="198.0" r="3" fill="#8a5a5a"/><circle cx="404.0" cy="198.0" r="3" fill="#8a5a5a"/><circle cx="406.6" cy="198.0" r="3" fill="#8a5a5a"/><circle cx="409.2" cy="198.0" r="3" fill="#8a5a5a"/><circle cx="411.8" cy="198.0" r="3" fill="#8a5a5a"/><circle cx="414.3" cy="198.0" r="3" fill="#8a5a5a"/><circle cx="416.9" cy="198.0" r="3" fill="#8a5a5a"/><circle cx="419.5" cy="198.0" r="3" fill="#8a5a5a"/><circle cx="422.1" cy="198.0" r="3" fill="#8a5a5a"/><circle cx="424.6" cy="198.0" r="3" fill="#8a5a5a"/><circle cx="427.2" cy="198.0" r="3" fill="#8a5a5a"/><circle cx="429.8" cy="198.0" r="3" fill="#8a5a5a"/><circle cx="432.4" cy="198.0" r="3" fill="#8a5a5a"/><circle cx="434.9" cy="198.0" r="3" fill="#8a5a5a"/><circle cx="437.5" cy="198.0" r="3" fill="#8a5a5a"/><circle cx="440.1" cy="198.0" r="3" fill="#8a5a5a"/><circle cx="442.7" cy="198.0" r="3" fill="#8a5a5a"/><circle cx="445.2" cy="198.0" r="3" fill="#8a5a5a"/><circle cx="447.8" cy="198.0" r="3" fill="#8a5a5a"/><circle cx="450.4" cy="198.0" r="3" fill="#8a5a5a"/><circle cx="453.0" cy="198.0" r="3" fill="#8a5a5a"/><circle cx="455.5" cy="198.0" r="3" fill="#8a5a5a"/><circle cx="458.1" cy="198.0" r="3" fill="#8a5a5a"/><circle cx="460.7" cy="198.0" r="3" fill="#8a5a5a"/><circle cx="463.2" cy="198.0" r="3" fill="#8a5a5a"/><circle cx="465.8" cy="198.0" r="3" fill="#8a5a5a"/><circle cx="468.4" cy="198.0" r="3" fill="#8a5a5a"/><circle cx="471.0" cy="198.0" r="3" fill="#8a5a5a"/><circle cx="473.5" cy="198.0" r="3" fill="#8a5a5a"/><circle cx="476.1" cy="198.0" r="3" fill="#8a5a5a"/><circle cx="478.7" cy="198.0" r="3" fill="#8a5a5a"/><circle cx="481.3" cy="198.0" r="3" fill="#8a5a5a"/><circle cx="483.8" cy="198.0" r="3" fill="#8a5a5a"/><circle cx="486.4" cy="198.0" r="3" fill="#8a5a5a"/><circle cx="489.0" cy="198.0" r="3" fill="#8a5a5a"/><circle cx="491.6" cy="198.0" r="3" fill="#8a5a5a"/><circle cx="494.1" cy="198.0" r="3" fill="#8a5a5a"/><circle cx="496.7" cy="198.0" r="3" fill="#8a5a5a"/><circle cx="499.3" cy="198.0" r="3" fill="#8a5a5a"/><circle cx="501.9" cy="198.0" r="3" fill="#8a5a5a"/><circle cx="504.4" cy="198.0" r="3" fill="#8a5a5a"/><circle cx="507.0" cy="198.0" r="3" fill="#8a5a5a"/><circle cx="509.6" cy="198.0" r="3" fill="#8a5a5a"/><circle cx="512.1" cy="198.0" r="3" fill="#8a5a5a"/><circle cx="514.7" cy="198.0" r="3" fill="#8a5a5a"/><circle cx="517.3" cy="198.0" r="3" fill="#8a5a5a"/><circle cx="519.9" cy="198.0" r="3" fill="#8a5a5a"/><circle cx="522.4" cy="198.0" r="3" fill="#8a5a5a"/><circle cx="525.0" cy="198.0" r="3" fill="#8a5a5a"/><circle cx="527.6" cy="198.0" r="3" fill="#8a5a5a"/><circle cx="530.2" cy="198.0" r="3" fill="#8a5a5a"/><circle cx="532.7" cy="198.0" r="3" fill="#8a5a5a"/><circle cx="535.3" cy="198.0" r="3" fill="#8a5a5a"/><circle cx="537.9" cy="198.0" r="3" fill="#8a5a5a"/><circle cx="540.5" cy="198.0" r="3" fill="#8a5a5a"/><circle cx="543.0" cy="198.0" r="3" fill="#8a5a5a"/><circle cx="545.6" cy="198.0" r="3" fill="#8a5a5a"/><circle cx="548.2" cy="198.0" r="3" fill="#8a5a5a"/><circle cx="550.8" cy="198.0" r="3" fill="#8a5a5a"/><circle cx="553.3" cy="198.0" r="3" fill="#8a5a5a"/><circle cx="555.9" cy="198.0" r="3" fill="#8a5a5a"/><circle cx="558.5" cy="198.0" r="3" fill="#8a5a5a"/><circle cx="561.0" cy="198.0" r="3" fill="#8a5a5a"/><circle cx="563.6" cy="198.0" r="3" fill="#8a5a5a"/><circle cx="566.2" cy="198.0" r="3" fill="#8a5a5a"/><circle cx="568.8" cy="198.0" r="3" fill="#8a5a5a"/><circle cx="571.3" cy="198.0" r="3" fill="#8a5a5a"/><circle cx="573.9" cy="198.0" r="3" fill="#8a5a5a"/><circle cx="576.5" cy="198.0" r="3" fill="#8a5a5a"/><circle cx="579.1" cy="198.0" r="3" fill="#8a5a5a"/><circle cx="581.6" cy="198.0" r="3" fill="#8a5a5a"/><circle cx="584.2" cy="198.0" r="3" fill="#8a5a5a"/><circle cx="586.8" cy="198.0" r="3" fill="#8a5a5a"/><circle cx="589.4" cy="198.0" r="3" fill="#8a5a5a"/><circle cx="591.9" cy="198.0" r="3" fill="#8a5a5a"/><circle cx="594.5" cy="198.0" r="3" fill="#8a5a5a"/><circle cx="597.1" cy="198.0" r="3" fill="#8a5a5a"/><circle cx="599.7" cy="198.0" r="3" fill="#8a5a5a"/><circle cx="602.2" cy="198.0" r="3" fill="#8a5a5a"/><circle cx="604.8" cy="198.0" r="3" fill="#8a5a5a"/><circle cx="607.4" cy="198.0" r="3" fill="#8a5a5a"/><circle cx="610.0" cy="198.0" r="3" fill="#8a5a5a"/><circle cx="612.5" cy="198.0" r="3" fill="#8a5a5a"/><circle cx="615.1" cy="198.0" r="3" fill="#8a5a5a"/><circle cx="617.7" cy="198.0" r="3" fill="#8a5a5a"/><circle cx="620.2" cy="198.0" r="3" fill="#8a5a5a"/><circle cx="622.8" cy="198.0" r="3" fill="#8a5a5a"/><circle cx="625.4" cy="198.0" r="3" fill="#8a5a5a"/><circle cx="628.0" cy="198.0" r="3" fill="#8a5a5a"/><circle cx="630.5" cy="198.0" r="3" fill="#8a5a5a"/><circle cx="633.1" cy="198.0" r="3" fill="#8a5a5a"/><circle cx="635.7" cy="198.0" r="3" fill="#8a5a5a"/><circle cx="638.3" cy="198.0" r="3" fill="#8a5a5a"/><circle cx="640.8" cy="198.0" r="3" fill="#8a5a5a"/><circle cx="643.4" cy="198.0" r="3" fill="#8a5a5a"/><circle cx="646.0" cy="198.0" r="3" fill="#8a5a5a"/><circle cx="648.6" cy="198.0" r="3" fill="#8a5a5a"/><circle cx="651.1" cy="198.0" r="3" fill="#8a5a5a"/><circle cx="653.7" cy="198.0" r="3" fill="#8a5a5a"/><circle cx="656.3" cy="198.0" r="3" fill="#8a5a5a"/><circle cx="658.9" cy="198.0" r="3" fill="#8a5a5a"/><circle cx="661.4" cy="198.0" r="3" fill="#8a5a5a"/><circle cx="664.0" cy="198.0" r="3" fill="#8a5a5a"/>
<polyline fill="none" stroke="#3fb950" stroke-width="2.5" stroke-linejoin="round" points="36.0,198.0 38.6,198.0 41.1,198.0 43.7,198.0 46.3,198.0 48.9,198.0 51.4,198.0 54.0,198.0 56.6,198.0 59.2,198.0 61.7,198.0 64.3,198.0 66.9,198.0 69.5,198.0 72.0,198.0 74.6,198.0 77.2,198.0 79.8,198.0 82.3,198.0 84.9,198.0 87.5,198.0 90.0,198.0 92.6,198.0 95.2,198.0 97.8,198.0 100.3,198.0 102.9,198.0 105.5,198.0 108.1,198.0 110.6,198.0 113.2,198.0 115.8,198.0 118.4,198.0 120.9,198.0 123.5,198.0 126.1,198.0 128.7,198.0 131.2,198.0 133.8,198.0 136.4,198.0 139.0,198.0 141.5,198.0 144.1,198.0 146.7,191.7 149.2,191.7 151.8,191.7 154.4,191.7 157.0,191.7 159.5,191.7 162.1,191.7 164.7,192.9 167.3,192.9 169.8,190.7 172.4,190.7 175.0,190.7 177.6,190.7 180.1,190.7 182.7,190.5 185.3,190.5 187.9,190.5 190.4,190.3 193.0,190.3 195.6,190.3 198.1,190.3 200.7,190.3 203.3,190.3 205.9,190.3 208.4,190.3 211.0,190.3 213.6,190.3 216.2,190.3 218.7,190.3 221.3,190.3 223.9,190.3 226.5,190.3 229.0,190.3 231.6,190.3 234.2,190.3 236.8,190.3 239.3,190.3 241.9,190.3 244.5,189.3 247.0,189.3 249.6,189.3 252.2,190.7 254.8,190.7 257.3,190.7 259.9,190.7 262.5,190.7 265.1,190.7 267.6,190.7 270.2,190.7 272.8,190.7 275.4,190.9 277.9,190.9 280.5,190.9 283.1,194.2 285.7,196.8 288.2,198.0 290.8,198.0 293.4,198.0 296.0,198.0 298.5,198.0 301.1,198.0 303.7,198.0 306.2,198.0 308.8,198.0 311.4,198.0 314.0,198.0 316.5,198.0 319.1,198.0 321.7,198.0 324.3,198.0 326.8,198.0 329.4,198.0 332.0,198.0 334.6,198.0 337.1,198.0 339.7,198.0 342.3,198.0 344.9,198.0 347.4,198.0 350.0,198.0 352.6,198.0 355.1,198.0 357.7,198.0 360.3,198.0 362.9,198.0 365.4,198.0 368.0,198.0 370.6,198.0 373.2,198.0 375.7,198.0 378.3,198.0 380.9,198.0 383.5,198.0 386.0,198.0 388.6,198.0 391.2,198.0 393.8,198.0 396.3,198.0 398.9,198.0 401.5,198.0 404.0,198.0 406.6,198.0 409.2,198.0 411.8,198.0 414.3,198.0 416.9,198.0 419.5,198.0 422.1,198.0 424.6,198.0 427.2,198.0 429.8,198.0 432.4,198.0 434.9,198.0 437.5,198.0 440.1,198.0 442.7,198.0 445.2,198.0 447.8,198.0 450.4,198.0 453.0,198.0 455.5,198.0 458.1,198.0 460.7,198.0 463.2,198.0 465.8,198.0 468.4,198.0 471.0,198.0 473.5,198.0 476.1,198.0 478.7,198.0 481.3,198.0 483.8,198.0 486.4,198.0 489.0,198.0 491.6,198.0 494.1,198.0 496.7,198.0 499.3,198.0 501.9,198.0 504.4,198.0 507.0,198.0 509.6,198.0 512.1,198.0 514.7,198.0 517.3,198.0 519.9,198.0 522.4,198.0 525.0,198.0 527.6,198.0 530.2,198.0 532.7,198.0 535.3,198.0 537.9,198.0 540.5,198.0 543.0,198.0 545.6,198.0 548.2,198.0 550.8,198.0 553.3,198.0 555.9,198.0 558.5,198.0 561.0,198.0 563.6,198.0 566.2,198.0 568.8,198.0 571.3,198.0 573.9,198.0 576.5,198.0 579.1,198.0 581.6,198.0 584.2,198.0 586.8,198.0 589.4,198.0 591.9,198.0 594.5,198.0 597.1,198.0 599.7,198.0 602.2,198.0 604.8,198.0 607.4,198.0 610.0,198.0 612.5,198.0 615.1,198.0 617.7,198.0 620.2,198.0 622.8,198.0 625.4,198.0 628.0,198.0 630.5,198.0 633.1,198.0 635.7,198.0 638.3,198.0 640.8,198.0 643.4,198.0 646.0,198.0 648.6,198.0 651.1,198.0 653.7,198.0 656.3,198.0 658.9,198.0 661.4,198.0 664.0,198.0"/><circle cx="36.0" cy="198.0" r="3" fill="#3fb950"/><circle cx="38.6" cy="198.0" r="3" fill="#3fb950"/><circle cx="41.1" cy="198.0" r="3" fill="#3fb950"/><circle cx="43.7" cy="198.0" r="3" fill="#3fb950"/><circle cx="46.3" cy="198.0" r="3" fill="#3fb950"/><circle cx="48.9" cy="198.0" r="3" fill="#3fb950"/><circle cx="51.4" cy="198.0" r="3" fill="#3fb950"/><circle cx="54.0" cy="198.0" r="3" fill="#3fb950"/><circle cx="56.6" cy="198.0" r="3" fill="#3fb950"/><circle cx="59.2" cy="198.0" r="3" fill="#3fb950"/><circle cx="61.7" cy="198.0" r="3" fill="#3fb950"/><circle cx="64.3" cy="198.0" r="3" fill="#3fb950"/><circle cx="66.9" cy="198.0" r="3" fill="#3fb950"/><circle cx="69.5" cy="198.0" r="3" fill="#3fb950"/><circle cx="72.0" cy="198.0" r="3" fill="#3fb950"/><circle cx="74.6" cy="198.0" r="3" fill="#3fb950"/><circle cx="77.2" cy="198.0" r="3" fill="#3fb950"/><circle cx="79.8" cy="198.0" r="3" fill="#3fb950"/><circle cx="82.3" cy="198.0" r="3" fill="#3fb950"/><circle cx="84.9" cy="198.0" r="3" fill="#3fb950"/><circle cx="87.5" cy="198.0" r="3" fill="#3fb950"/><circle cx="90.0" cy="198.0" r="3" fill="#3fb950"/><circle cx="92.6" cy="198.0" r="3" fill="#3fb950"/><circle cx="95.2" cy="198.0" r="3" fill="#3fb950"/><circle cx="97.8" cy="198.0" r="3" fill="#3fb950"/><circle cx="100.3" cy="198.0" r="3" fill="#3fb950"/><circle cx="102.9" cy="198.0" r="3" fill="#3fb950"/><circle cx="105.5" cy="198.0" r="3" fill="#3fb950"/><circle cx="108.1" cy="198.0" r="3" fill="#3fb950"/><circle cx="110.6" cy="198.0" r="3" fill="#3fb950"/><circle cx="113.2" cy="198.0" r="3" fill="#3fb950"/><circle cx="115.8" cy="198.0" r="3" fill="#3fb950"/><circle cx="118.4" cy="198.0" r="3" fill="#3fb950"/><circle cx="120.9" cy="198.0" r="3" fill="#3fb950"/><circle cx="123.5" cy="198.0" r="3" fill="#3fb950"/><circle cx="126.1" cy="198.0" r="3" fill="#3fb950"/><circle cx="128.7" cy="198.0" r="3" fill="#3fb950"/><circle cx="131.2" cy="198.0" r="3" fill="#3fb950"/><circle cx="133.8" cy="198.0" r="3" fill="#3fb950"/><circle cx="136.4" cy="198.0" r="3" fill="#3fb950"/><circle cx="139.0" cy="198.0" r="3" fill="#3fb950"/><circle cx="141.5" cy="198.0" r="3" fill="#3fb950"/><circle cx="144.1" cy="198.0" r="3" fill="#3fb950"/><circle cx="146.7" cy="191.7" r="3" fill="#3fb950"/><circle cx="149.2" cy="191.7" r="3" fill="#3fb950"/><circle cx="151.8" cy="191.7" r="3" fill="#3fb950"/><circle cx="154.4" cy="191.7" r="3" fill="#3fb950"/><circle cx="157.0" cy="191.7" r="3" fill="#3fb950"/><circle cx="159.5" cy="191.7" r="3" fill="#3fb950"/><circle cx="162.1" cy="191.7" r="3" fill="#3fb950"/><circle cx="164.7" cy="192.9" r="3" fill="#3fb950"/><circle cx="167.3" cy="192.9" r="3" fill="#3fb950"/><circle cx="169.8" cy="190.7" r="3" fill="#3fb950"/><circle cx="172.4" cy="190.7" r="3" fill="#3fb950"/><circle cx="175.0" cy="190.7" r="3" fill="#3fb950"/><circle cx="177.6" cy="190.7" r="3" fill="#3fb950"/><circle cx="180.1" cy="190.7" r="3" fill="#3fb950"/><circle cx="182.7" cy="190.5" r="3" fill="#3fb950"/><circle cx="185.3" cy="190.5" r="3" fill="#3fb950"/><circle cx="187.9" cy="190.5" r="3" fill="#3fb950"/><circle cx="190.4" cy="190.3" r="3" fill="#3fb950"/><circle cx="193.0" cy="190.3" r="3" fill="#3fb950"/><circle cx="195.6" cy="190.3" r="3" fill="#3fb950"/><circle cx="198.1" cy="190.3" r="3" fill="#3fb950"/><circle cx="200.7" cy="190.3" r="3" fill="#3fb950"/><circle cx="203.3" cy="190.3" r="3" fill="#3fb950"/><circle cx="205.9" cy="190.3" r="3" fill="#3fb950"/><circle cx="208.4" cy="190.3" r="3" fill="#3fb950"/><circle cx="211.0" cy="190.3" r="3" fill="#3fb950"/><circle cx="213.6" cy="190.3" r="3" fill="#3fb950"/><circle cx="216.2" cy="190.3" r="3" fill="#3fb950"/><circle cx="218.7" cy="190.3" r="3" fill="#3fb950"/><circle cx="221.3" cy="190.3" r="3" fill="#3fb950"/><circle cx="223.9" cy="190.3" r="3" fill="#3fb950"/><circle cx="226.5" cy="190.3" r="3" fill="#3fb950"/><circle cx="229.0" cy="190.3" r="3" fill="#3fb950"/><circle cx="231.6" cy="190.3" r="3" fill="#3fb950"/><circle cx="234.2" cy="190.3" r="3" fill="#3fb950"/><circle cx="236.8" cy="190.3" r="3" fill="#3fb950"/><circle cx="239.3" cy="190.3" r="3" fill="#3fb950"/><circle cx="241.9" cy="190.3" r="3" fill="#3fb950"/><circle cx="244.5" cy="189.3" r="3" fill="#3fb950"/><circle cx="247.0" cy="189.3" r="3" fill="#3fb950"/><circle cx="249.6" cy="189.3" r="3" fill="#3fb950"/><circle cx="252.2" cy="190.7" r="3" fill="#3fb950"/><circle cx="254.8" cy="190.7" r="3" fill="#3fb950"/><circle cx="257.3" cy="190.7" r="3" fill="#3fb950"/><circle cx="259.9" cy="190.7" r="3" fill="#3fb950"/><circle cx="262.5" cy="190.7" r="3" fill="#3fb950"/><circle cx="265.1" cy="190.7" r="3" fill="#3fb950"/><circle cx="267.6" cy="190.7" r="3" fill="#3fb950"/><circle cx="270.2" cy="190.7" r="3" fill="#3fb950"/><circle cx="272.8" cy="190.7" r="3" fill="#3fb950"/><circle cx="275.4" cy="190.9" r="3" fill="#3fb950"/><circle cx="277.9" cy="190.9" r="3" fill="#3fb950"/><circle cx="280.5" cy="190.9" r="3" fill="#3fb950"/><circle cx="283.1" cy="194.2" r="3" fill="#3fb950"/><circle cx="285.7" cy="196.8" r="3" fill="#3fb950"/><circle cx="288.2" cy="198.0" r="3" fill="#3fb950"/><circle cx="290.8" cy="198.0" r="3" fill="#3fb950"/><circle cx="293.4" cy="198.0" r="3" fill="#3fb950"/><circle cx="296.0" cy="198.0" r="3" fill="#3fb950"/><circle cx="298.5" cy="198.0" r="3" fill="#3fb950"/><circle cx="301.1" cy="198.0" r="3" fill="#3fb950"/><circle cx="303.7" cy="198.0" r="3" fill="#3fb950"/><circle cx="306.2" cy="198.0" r="3" fill="#3fb950"/><circle cx="308.8" cy="198.0" r="3" fill="#3fb950"/><circle cx="311.4" cy="198.0" r="3" fill="#3fb950"/><circle cx="314.0" cy="198.0" r="3" fill="#3fb950"/><circle cx="316.5" cy="198.0" r="3" fill="#3fb950"/><circle cx="319.1" cy="198.0" r="3" fill="#3fb950"/><circle cx="321.7" cy="198.0" r="3" fill="#3fb950"/><circle cx="324.3" cy="198.0" r="3" fill="#3fb950"/><circle cx="326.8" cy="198.0" r="3" fill="#3fb950"/><circle cx="329.4" cy="198.0" r="3" fill="#3fb950"/><circle cx="332.0" cy="198.0" r="3" fill="#3fb950"/><circle cx="334.6" cy="198.0" r="3" fill="#3fb950"/><circle cx="337.1" cy="198.0" r="3" fill="#3fb950"/><circle cx="339.7" cy="198.0" r="3" fill="#3fb950"/><circle cx="342.3" cy="198.0" r="3" fill="#3fb950"/><circle cx="344.9" cy="198.0" r="3" fill="#3fb950"/><circle cx="347.4" cy="198.0" r="3" fill="#3fb950"/><circle cx="350.0" cy="198.0" r="3" fill="#3fb950"/><circle cx="352.6" cy="198.0" r="3" fill="#3fb950"/><circle cx="355.1" cy="198.0" r="3" fill="#3fb950"/><circle cx="357.7" cy="198.0" r="3" fill="#3fb950"/><circle cx="360.3" cy="198.0" r="3" fill="#3fb950"/><circle cx="362.9" cy="198.0" r="3" fill="#3fb950"/><circle cx="365.4" cy="198.0" r="3" fill="#3fb950"/><circle cx="368.0" cy="198.0" r="3" fill="#3fb950"/><circle cx="370.6" cy="198.0" r="3" fill="#3fb950"/><circle cx="373.2" cy="198.0" r="3" fill="#3fb950"/><circle cx="375.7" cy="198.0" r="3" fill="#3fb950"/><circle cx="378.3" cy="198.0" r="3" fill="#3fb950"/><circle cx="380.9" cy="198.0" r="3" fill="#3fb950"/><circle cx="383.5" cy="198.0" r="3" fill="#3fb950"/><circle cx="386.0" cy="198.0" r="3" fill="#3fb950"/><circle cx="388.6" cy="198.0" r="3" fill="#3fb950"/><circle cx="391.2" cy="198.0" r="3" fill="#3fb950"/><circle cx="393.8" cy="198.0" r="3" fill="#3fb950"/><circle cx="396.3" cy="198.0" r="3" fill="#3fb950"/><circle cx="398.9" cy="198.0" r="3" fill="#3fb950"/><circle cx="401.5" cy="198.0" r="3" fill="#3fb950"/><circle cx="404.0" cy="198.0" r="3" fill="#3fb950"/><circle cx="406.6" cy="198.0" r="3" fill="#3fb950"/><circle cx="409.2" cy="198.0" r="3" fill="#3fb950"/><circle cx="411.8" cy="198.0" r="3" fill="#3fb950"/><circle cx="414.3" cy="198.0" r="3" fill="#3fb950"/><circle cx="416.9" cy="198.0" r="3" fill="#3fb950"/><circle cx="419.5" cy="198.0" r="3" fill="#3fb950"/><circle cx="422.1" cy="198.0" r="3" fill="#3fb950"/><circle cx="424.6" cy="198.0" r="3" fill="#3fb950"/><circle cx="427.2" cy="198.0" r="3" fill="#3fb950"/><circle cx="429.8" cy="198.0" r="3" fill="#3fb950"/><circle cx="432.4" cy="198.0" r="3" fill="#3fb950"/><circle cx="434.9" cy="198.0" r="3" fill="#3fb950"/><circle cx="437.5" cy="198.0" r="3" fill="#3fb950"/><circle cx="440.1" cy="198.0" r="3" fill="#3fb950"/><circle cx="442.7" cy="198.0" r="3" fill="#3fb950"/><circle cx="445.2" cy="198.0" r="3" fill="#3fb950"/><circle cx="447.8" cy="198.0" r="3" fill="#3fb950"/><circle cx="450.4" cy="198.0" r="3" fill="#3fb950"/><circle cx="453.0" cy="198.0" r="3" fill="#3fb950"/><circle cx="455.5" cy="198.0" r="3" fill="#3fb950"/><circle cx="458.1" cy="198.0" r="3" fill="#3fb950"/><circle cx="460.7" cy="198.0" r="3" fill="#3fb950"/><circle cx="463.2" cy="198.0" r="3" fill="#3fb950"/><circle cx="465.8" cy="198.0" r="3" fill="#3fb950"/><circle cx="468.4" cy="198.0" r="3" fill="#3fb950"/><circle cx="471.0" cy="198.0" r="3" fill="#3fb950"/><circle cx="473.5" cy="198.0" r="3" fill="#3fb950"/><circle cx="476.1" cy="198.0" r="3" fill="#3fb950"/><circle cx="478.7" cy="198.0" r="3" fill="#3fb950"/><circle cx="481.3" cy="198.0" r="3" fill="#3fb950"/><circle cx="483.8" cy="198.0" r="3" fill="#3fb950"/><circle cx="486.4" cy="198.0" r="3" fill="#3fb950"/><circle cx="489.0" cy="198.0" r="3" fill="#3fb950"/><circle cx="491.6" cy="198.0" r="3" fill="#3fb950"/><circle cx="494.1" cy="198.0" r="3" fill="#3fb950"/><circle cx="496.7" cy="198.0" r="3" fill="#3fb950"/><circle cx="499.3" cy="198.0" r="3" fill="#3fb950"/><circle cx="501.9" cy="198.0" r="3" fill="#3fb950"/><circle cx="504.4" cy="198.0" r="3" fill="#3fb950"/><circle cx="507.0" cy="198.0" r="3" fill="#3fb950"/><circle cx="509.6" cy="198.0" r="3" fill="#3fb950"/><circle cx="512.1" cy="198.0" r="3" fill="#3fb950"/><circle cx="514.7" cy="198.0" r="3" fill="#3fb950"/><circle cx="517.3" cy="198.0" r="3" fill="#3fb950"/><circle cx="519.9" cy="198.0" r="3" fill="#3fb950"/><circle cx="522.4" cy="198.0" r="3" fill="#3fb950"/><circle cx="525.0" cy="198.0" r="3" fill="#3fb950"/><circle cx="527.6" cy="198.0" r="3" fill="#3fb950"/><circle cx="530.2" cy="198.0" r="3" fill="#3fb950"/><circle cx="532.7" cy="198.0" r="3" fill="#3fb950"/><circle cx="535.3" cy="198.0" r="3" fill="#3fb950"/><circle cx="537.9" cy="198.0" r="3" fill="#3fb950"/><circle cx="540.5" cy="198.0" r="3" fill="#3fb950"/><circle cx="543.0" cy="198.0" r="3" fill="#3fb950"/><circle cx="545.6" cy="198.0" r="3" fill="#3fb950"/><circle cx="548.2" cy="198.0" r="3" fill="#3fb950"/><circle cx="550.8" cy="198.0" r="3" fill="#3fb950"/><circle cx="553.3" cy="198.0" r="3" fill="#3fb950"/><circle cx="555.9" cy="198.0" r="3" fill="#3fb950"/><circle cx="558.5" cy="198.0" r="3" fill="#3fb950"/><circle cx="561.0" cy="198.0" r="3" fill="#3fb950"/><circle cx="563.6" cy="198.0" r="3" fill="#3fb950"/><circle cx="566.2" cy="198.0" r="3" fill="#3fb950"/><circle cx="568.8" cy="198.0" r="3" fill="#3fb950"/><circle cx="571.3" cy="198.0" r="3" fill="#3fb950"/><circle cx="573.9" cy="198.0" r="3" fill="#3fb950"/><circle cx="576.5" cy="198.0" r="3" fill="#3fb950"/><circle cx="579.1" cy="198.0" r="3" fill="#3fb950"/><circle cx="581.6" cy="198.0" r="3" fill="#3fb950"/><circle cx="584.2" cy="198.0" r="3" fill="#3fb950"/><circle cx="586.8" cy="198.0" r="3" fill="#3fb950"/><circle cx="589.4" cy="198.0" r="3" fill="#3fb950"/><circle cx="591.9" cy="198.0" r="3" fill="#3fb950"/><circle cx="594.5" cy="198.0" r="3" fill="#3fb950"/><circle cx="597.1" cy="198.0" r="3" fill="#3fb950"/><circle cx="599.7" cy="198.0" r="3" fill="#3fb950"/><circle cx="602.2" cy="198.0" r="3" fill="#3fb950"/><circle cx="604.8" cy="198.0" r="3" fill="#3fb950"/><circle cx="607.4" cy="198.0" r="3" fill="#3fb950"/><circle cx="610.0" cy="198.0" r="3" fill="#3fb950"/><circle cx="612.5" cy="198.0" r="3" fill="#3fb950"/><circle cx="615.1" cy="198.0" r="3" fill="#3fb950"/><circle cx="617.7" cy="198.0" r="3" fill="#3fb950"/><circle cx="620.2" cy="198.0" r="3" fill="#3fb950"/><circle cx="622.8" cy="198.0" r="3" fill="#3fb950"/><circle cx="625.4" cy="198.0" r="3" fill="#3fb950"/><circle cx="628.0" cy="198.0" r="3" fill="#3fb950"/><circle cx="630.5" cy="198.0" r="3" fill="#3fb950"/><circle cx="633.1" cy="198.0" r="3" fill="#3fb950"/><circle cx="635.7" cy="198.0" r="3" fill="#3fb950"/><circle cx="638.3" cy="198.0" r="3" fill="#3fb950"/><circle cx="640.8" cy="198.0" r="3" fill="#3fb950"/><circle cx="643.4" cy="198.0" r="3" fill="#3fb950"/><circle cx="646.0" cy="198.0" r="3" fill="#3fb950"/><circle cx="648.6" cy="198.0" r="3" fill="#3fb950"/><circle cx="651.1" cy="198.0" r="3" fill="#3fb950"/><circle cx="653.7" cy="198.0" r="3" fill="#3fb950"/><circle cx="656.3" cy="198.0" r="3" fill="#3fb950"/><circle cx="658.9" cy="198.0" r="3" fill="#3fb950"/><circle cx="661.4" cy="198.0" r="3" fill="#3fb950"/><circle cx="664.0" cy="198.0" r="3" fill="#3fb950"/>
<polyline fill="none" stroke="#4aa3ff" stroke-width="2.5" stroke-linejoin="round" points="36.0,144.3 38.6,144.3 41.1,144.3 43.7,144.3 46.3,144.3 48.9,144.3 51.4,144.3 54.0,144.3 56.6,144.3 59.2,144.3 61.7,144.3 64.3,144.3 66.9,144.3 69.5,144.3 72.0,144.3 74.6,136.2 77.2,132.4 79.8,129.6 82.3,129.6 84.9,121.0 87.5,121.0 90.0,121.0 92.6,114.4 95.2,114.4 97.8,114.4 100.3,111.3 102.9,110.9 105.5,110.9 108.1,110.5 110.6,110.5 113.2,109.9 115.8,108.7 118.4,107.3 120.9,106.9 123.5,106.9 126.1,106.9 128.7,106.9 131.2,106.9 133.8,106.9 136.4,106.9 139.0,106.9 141.5,106.9 144.1,106.9 146.7,113.2 149.2,113.2 151.8,113.2 154.4,113.2 157.0,113.2 159.5,110.7 162.1,105.3 164.7,83.4 167.3,83.4 169.8,85.6 172.4,85.6 175.0,85.6 177.6,85.6 180.1,85.6 182.7,85.8 185.3,85.8 187.9,85.8 190.4,86.0 193.0,86.0 195.6,86.0 198.1,86.0 200.7,86.0 203.3,86.0 205.9,86.0 208.4,86.0 211.0,86.0 213.6,86.0 216.2,86.0 218.7,86.0 221.3,86.0 223.9,86.0 226.5,86.0 229.0,86.0 231.6,86.0 234.2,86.0 236.8,86.0 239.3,86.0 241.9,86.0 244.5,87.0 247.0,87.0 249.6,87.0 252.2,73.7 254.8,73.7 257.3,71.0 259.9,71.0 262.5,70.8 265.1,70.6 267.6,70.6 270.2,70.4 272.8,68.6 275.4,60.5 277.9,59.3 280.5,52.0 283.1,47.3 285.7,40.1 288.2,36.0 290.8,36.0 293.4,36.0 296.0,36.0 298.5,36.0 301.1,36.0 303.7,36.0 306.2,36.0 308.8,36.0 311.4,36.0 314.0,36.0 316.5,36.0 319.1,36.0 321.7,36.0 324.3,36.0 326.8,36.0 329.4,36.0 332.0,36.0 334.6,36.0 337.1,36.0 339.7,36.0 342.3,36.0 344.9,36.0 347.4,36.0 350.0,36.0 352.6,36.0 355.1,36.0 357.7,36.0 360.3,36.0 362.9,36.0 365.4,36.0 368.0,36.0 370.6,36.0 373.2,36.0 375.7,36.0 378.3,36.0 380.9,36.0 383.5,36.0 386.0,36.0 388.6,36.0 391.2,36.0 393.8,36.0 396.3,36.0 398.9,36.0 401.5,36.0 404.0,36.0 406.6,36.0 409.2,36.0 411.8,36.0 414.3,36.0 416.9,36.0 419.5,36.0 422.1,36.0 424.6,36.0 427.2,36.0 429.8,36.0 432.4,36.0 434.9,36.0 437.5,36.0 440.1,36.0 442.7,36.0 445.2,36.0 447.8,36.0 450.4,36.0 453.0,36.0 455.5,36.0 458.1,36.0 460.7,36.0 463.2,36.0 465.8,36.0 468.4,36.0 471.0,36.0 473.5,36.0 476.1,36.0 478.7,36.0 481.3,36.0 483.8,36.0 486.4,36.0 489.0,36.0 491.6,36.0 494.1,36.0 496.7,36.0 499.3,36.0 501.9,36.0 504.4,36.0 507.0,36.0 509.6,36.0 512.1,36.0 514.7,36.0 517.3,36.0 519.9,36.0 522.4,36.0 525.0,36.0 527.6,36.0 530.2,36.0 532.7,36.0 535.3,36.0 537.9,36.0 540.5,36.0 543.0,36.0 545.6,36.0 548.2,36.0 550.8,36.0 553.3,36.0 555.9,36.0 558.5,36.0 561.0,36.0 563.6,36.0 566.2,36.0 568.8,36.0 571.3,36.0 573.9,36.0 576.5,36.0 579.1,36.0 581.6,36.0 584.2,36.0 586.8,36.0 589.4,36.0 591.9,36.0 594.5,36.0 597.1,36.0 599.7,36.0 602.2,36.0 604.8,36.0 607.4,36.0 610.0,36.0 612.5,36.0 615.1,36.0 617.7,36.0 620.2,36.0 622.8,36.0 625.4,36.0 628.0,36.0 630.5,36.0 633.1,36.0 635.7,36.0 638.3,36.0 640.8,36.0 643.4,36.0 646.0,36.0 648.6,36.0 651.1,36.0 653.7,36.0 656.3,36.0 658.9,36.0 661.4,36.0 664.0,36.0"/><circle cx="36.0" cy="144.3" r="3" fill="#4aa3ff"/><circle cx="38.6" cy="144.3" r="3" fill="#4aa3ff"/><circle cx="41.1" cy="144.3" r="3" fill="#4aa3ff"/><circle cx="43.7" cy="144.3" r="3" fill="#4aa3ff"/><circle cx="46.3" cy="144.3" r="3" fill="#4aa3ff"/><circle cx="48.9" cy="144.3" r="3" fill="#4aa3ff"/><circle cx="51.4" cy="144.3" r="3" fill="#4aa3ff"/><circle cx="54.0" cy="144.3" r="3" fill="#4aa3ff"/><circle cx="56.6" cy="144.3" r="3" fill="#4aa3ff"/><circle cx="59.2" cy="144.3" r="3" fill="#4aa3ff"/><circle cx="61.7" cy="144.3" r="3" fill="#4aa3ff"/><circle cx="64.3" cy="144.3" r="3" fill="#4aa3ff"/><circle cx="66.9" cy="144.3" r="3" fill="#4aa3ff"/><circle cx="69.5" cy="144.3" r="3" fill="#4aa3ff"/><circle cx="72.0" cy="144.3" r="3" fill="#4aa3ff"/><circle cx="74.6" cy="136.2" r="3" fill="#4aa3ff"/><circle cx="77.2" cy="132.4" r="3" fill="#4aa3ff"/><circle cx="79.8" cy="129.6" r="3" fill="#4aa3ff"/><circle cx="82.3" cy="129.6" r="3" fill="#4aa3ff"/><circle cx="84.9" cy="121.0" r="3" fill="#4aa3ff"/><circle cx="87.5" cy="121.0" r="3" fill="#4aa3ff"/><circle cx="90.0" cy="121.0" r="3" fill="#4aa3ff"/><circle cx="92.6" cy="114.4" r="3" fill="#4aa3ff"/><circle cx="95.2" cy="114.4" r="3" fill="#4aa3ff"/><circle cx="97.8" cy="114.4" r="3" fill="#4aa3ff"/><circle cx="100.3" cy="111.3" r="3" fill="#4aa3ff"/><circle cx="102.9" cy="110.9" r="3" fill="#4aa3ff"/><circle cx="105.5" cy="110.9" r="3" fill="#4aa3ff"/><circle cx="108.1" cy="110.5" r="3" fill="#4aa3ff"/><circle cx="110.6" cy="110.5" r="3" fill="#4aa3ff"/><circle cx="113.2" cy="109.9" r="3" fill="#4aa3ff"/><circle cx="115.8" cy="108.7" r="3" fill="#4aa3ff"/><circle cx="118.4" cy="107.3" r="3" fill="#4aa3ff"/><circle cx="120.9" cy="106.9" r="3" fill="#4aa3ff"/><circle cx="123.5" cy="106.9" r="3" fill="#4aa3ff"/><circle cx="126.1" cy="106.9" r="3" fill="#4aa3ff"/><circle cx="128.7" cy="106.9" r="3" fill="#4aa3ff"/><circle cx="131.2" cy="106.9" r="3" fill="#4aa3ff"/><circle cx="133.8" cy="106.9" r="3" fill="#4aa3ff"/><circle cx="136.4" cy="106.9" r="3" fill="#4aa3ff"/><circle cx="139.0" cy="106.9" r="3" fill="#4aa3ff"/><circle cx="141.5" cy="106.9" r="3" fill="#4aa3ff"/><circle cx="144.1" cy="106.9" r="3" fill="#4aa3ff"/><circle cx="146.7" cy="113.2" r="3" fill="#4aa3ff"/><circle cx="149.2" cy="113.2" r="3" fill="#4aa3ff"/><circle cx="151.8" cy="113.2" r="3" fill="#4aa3ff"/><circle cx="154.4" cy="113.2" r="3" fill="#4aa3ff"/><circle cx="157.0" cy="113.2" r="3" fill="#4aa3ff"/><circle cx="159.5" cy="110.7" r="3" fill="#4aa3ff"/><circle cx="162.1" cy="105.3" r="3" fill="#4aa3ff"/><circle cx="164.7" cy="83.4" r="3" fill="#4aa3ff"/><circle cx="167.3" cy="83.4" r="3" fill="#4aa3ff"/><circle cx="169.8" cy="85.6" r="3" fill="#4aa3ff"/><circle cx="172.4" cy="85.6" r="3" fill="#4aa3ff"/><circle cx="175.0" cy="85.6" r="3" fill="#4aa3ff"/><circle cx="177.6" cy="85.6" r="3" fill="#4aa3ff"/><circle cx="180.1" cy="85.6" r="3" fill="#4aa3ff"/><circle cx="182.7" cy="85.8" r="3" fill="#4aa3ff"/><circle cx="185.3" cy="85.8" r="3" fill="#4aa3ff"/><circle cx="187.9" cy="85.8" r="3" fill="#4aa3ff"/><circle cx="190.4" cy="86.0" r="3" fill="#4aa3ff"/><circle cx="193.0" cy="86.0" r="3" fill="#4aa3ff"/><circle cx="195.6" cy="86.0" r="3" fill="#4aa3ff"/><circle cx="198.1" cy="86.0" r="3" fill="#4aa3ff"/><circle cx="200.7" cy="86.0" r="3" fill="#4aa3ff"/><circle cx="203.3" cy="86.0" r="3" fill="#4aa3ff"/><circle cx="205.9" cy="86.0" r="3" fill="#4aa3ff"/><circle cx="208.4" cy="86.0" r="3" fill="#4aa3ff"/><circle cx="211.0" cy="86.0" r="3" fill="#4aa3ff"/><circle cx="213.6" cy="86.0" r="3" fill="#4aa3ff"/><circle cx="216.2" cy="86.0" r="3" fill="#4aa3ff"/><circle cx="218.7" cy="86.0" r="3" fill="#4aa3ff"/><circle cx="221.3" cy="86.0" r="3" fill="#4aa3ff"/><circle cx="223.9" cy="86.0" r="3" fill="#4aa3ff"/><circle cx="226.5" cy="86.0" r="3" fill="#4aa3ff"/><circle cx="229.0" cy="86.0" r="3" fill="#4aa3ff"/><circle cx="231.6" cy="86.0" r="3" fill="#4aa3ff"/><circle cx="234.2" cy="86.0" r="3" fill="#4aa3ff"/><circle cx="236.8" cy="86.0" r="3" fill="#4aa3ff"/><circle cx="239.3" cy="86.0" r="3" fill="#4aa3ff"/><circle cx="241.9" cy="86.0" r="3" fill="#4aa3ff"/><circle cx="244.5" cy="87.0" r="3" fill="#4aa3ff"/><circle cx="247.0" cy="87.0" r="3" fill="#4aa3ff"/><circle cx="249.6" cy="87.0" r="3" fill="#4aa3ff"/><circle cx="252.2" cy="73.7" r="3" fill="#4aa3ff"/><circle cx="254.8" cy="73.7" r="3" fill="#4aa3ff"/><circle cx="257.3" cy="71.0" r="3" fill="#4aa3ff"/><circle cx="259.9" cy="71.0" r="3" fill="#4aa3ff"/><circle cx="262.5" cy="70.8" r="3" fill="#4aa3ff"/><circle cx="265.1" cy="70.6" r="3" fill="#4aa3ff"/><circle cx="267.6" cy="70.6" r="3" fill="#4aa3ff"/><circle cx="270.2" cy="70.4" r="3" fill="#4aa3ff"/><circle cx="272.8" cy="68.6" r="3" fill="#4aa3ff"/><circle cx="275.4" cy="60.5" r="3" fill="#4aa3ff"/><circle cx="277.9" cy="59.3" r="3" fill="#4aa3ff"/><circle cx="280.5" cy="52.0" r="3" fill="#4aa3ff"/><circle cx="283.1" cy="47.3" r="3" fill="#4aa3ff"/><circle cx="285.7" cy="40.1" r="3" fill="#4aa3ff"/><circle cx="288.2" cy="36.0" r="3" fill="#4aa3ff"/><circle cx="290.8" cy="36.0" r="3" fill="#4aa3ff"/><circle cx="293.4" cy="36.0" r="3" fill="#4aa3ff"/><circle cx="296.0" cy="36.0" r="3" fill="#4aa3ff"/><circle cx="298.5" cy="36.0" r="3" fill="#4aa3ff"/><circle cx="301.1" cy="36.0" r="3" fill="#4aa3ff"/><circle cx="303.7" cy="36.0" r="3" fill="#4aa3ff"/><circle cx="306.2" cy="36.0" r="3" fill="#4aa3ff"/><circle cx="308.8" cy="36.0" r="3" fill="#4aa3ff"/><circle cx="311.4" cy="36.0" r="3" fill="#4aa3ff"/><circle cx="314.0" cy="36.0" r="3" fill="#4aa3ff"/><circle cx="316.5" cy="36.0" r="3" fill="#4aa3ff"/><circle cx="319.1" cy="36.0" r="3" fill="#4aa3ff"/><circle cx="321.7" cy="36.0" r="3" fill="#4aa3ff"/><circle cx="324.3" cy="36.0" r="3" fill="#4aa3ff"/><circle cx="326.8" cy="36.0" r="3" fill="#4aa3ff"/><circle cx="329.4" cy="36.0" r="3" fill="#4aa3ff"/><circle cx="332.0" cy="36.0" r="3" fill="#4aa3ff"/><circle cx="334.6" cy="36.0" r="3" fill="#4aa3ff"/><circle cx="337.1" cy="36.0" r="3" fill="#4aa3ff"/><circle cx="339.7" cy="36.0" r="3" fill="#4aa3ff"/><circle cx="342.3" cy="36.0" r="3" fill="#4aa3ff"/><circle cx="344.9" cy="36.0" r="3" fill="#4aa3ff"/><circle cx="347.4" cy="36.0" r="3" fill="#4aa3ff"/><circle cx="350.0" cy="36.0" r="3" fill="#4aa3ff"/><circle cx="352.6" cy="36.0" r="3" fill="#4aa3ff"/><circle cx="355.1" cy="36.0" r="3" fill="#4aa3ff"/><circle cx="357.7" cy="36.0" r="3" fill="#4aa3ff"/><circle cx="360.3" cy="36.0" r="3" fill="#4aa3ff"/><circle cx="362.9" cy="36.0" r="3" fill="#4aa3ff"/><circle cx="365.4" cy="36.0" r="3" fill="#4aa3ff"/><circle cx="368.0" cy="36.0" r="3" fill="#4aa3ff"/><circle cx="370.6" cy="36.0" r="3" fill="#4aa3ff"/><circle cx="373.2" cy="36.0" r="3" fill="#4aa3ff"/><circle cx="375.7" cy="36.0" r="3" fill="#4aa3ff"/><circle cx="378.3" cy="36.0" r="3" fill="#4aa3ff"/><circle cx="380.9" cy="36.0" r="3" fill="#4aa3ff"/><circle cx="383.5" cy="36.0" r="3" fill="#4aa3ff"/><circle cx="386.0" cy="36.0" r="3" fill="#4aa3ff"/><circle cx="388.6" cy="36.0" r="3" fill="#4aa3ff"/><circle cx="391.2" cy="36.0" r="3" fill="#4aa3ff"/><circle cx="393.8" cy="36.0" r="3" fill="#4aa3ff"/><circle cx="396.3" cy="36.0" r="3" fill="#4aa3ff"/><circle cx="398.9" cy="36.0" r="3" fill="#4aa3ff"/><circle cx="401.5" cy="36.0" r="3" fill="#4aa3ff"/><circle cx="404.0" cy="36.0" r="3" fill="#4aa3ff"/><circle cx="406.6" cy="36.0" r="3" fill="#4aa3ff"/><circle cx="409.2" cy="36.0" r="3" fill="#4aa3ff"/><circle cx="411.8" cy="36.0" r="3" fill="#4aa3ff"/><circle cx="414.3" cy="36.0" r="3" fill="#4aa3ff"/><circle cx="416.9" cy="36.0" r="3" fill="#4aa3ff"/><circle cx="419.5" cy="36.0" r="3" fill="#4aa3ff"/><circle cx="422.1" cy="36.0" r="3" fill="#4aa3ff"/><circle cx="424.6" cy="36.0" r="3" fill="#4aa3ff"/><circle cx="427.2" cy="36.0" r="3" fill="#4aa3ff"/><circle cx="429.8" cy="36.0" r="3" fill="#4aa3ff"/><circle cx="432.4" cy="36.0" r="3" fill="#4aa3ff"/><circle cx="434.9" cy="36.0" r="3" fill="#4aa3ff"/><circle cx="437.5" cy="36.0" r="3" fill="#4aa3ff"/><circle cx="440.1" cy="36.0" r="3" fill="#4aa3ff"/><circle cx="442.7" cy="36.0" r="3" fill="#4aa3ff"/><circle cx="445.2" cy="36.0" r="3" fill="#4aa3ff"/><circle cx="447.8" cy="36.0" r="3" fill="#4aa3ff"/><circle cx="450.4" cy="36.0" r="3" fill="#4aa3ff"/><circle cx="453.0" cy="36.0" r="3" fill="#4aa3ff"/><circle cx="455.5" cy="36.0" r="3" fill="#4aa3ff"/><circle cx="458.1" cy="36.0" r="3" fill="#4aa3ff"/><circle cx="460.7" cy="36.0" r="3" fill="#4aa3ff"/><circle cx="463.2" cy="36.0" r="3" fill="#4aa3ff"/><circle cx="465.8" cy="36.0" r="3" fill="#4aa3ff"/><circle cx="468.4" cy="36.0" r="3" fill="#4aa3ff"/><circle cx="471.0" cy="36.0" r="3" fill="#4aa3ff"/><circle cx="473.5" cy="36.0" r="3" fill="#4aa3ff"/><circle cx="476.1" cy="36.0" r="3" fill="#4aa3ff"/><circle cx="478.7" cy="36.0" r="3" fill="#4aa3ff"/><circle cx="481.3" cy="36.0" r="3" fill="#4aa3ff"/><circle cx="483.8" cy="36.0" r="3" fill="#4aa3ff"/><circle cx="486.4" cy="36.0" r="3" fill="#4aa3ff"/><circle cx="489.0" cy="36.0" r="3" fill="#4aa3ff"/><circle cx="491.6" cy="36.0" r="3" fill="#4aa3ff"/><circle cx="494.1" cy="36.0" r="3" fill="#4aa3ff"/><circle cx="496.7" cy="36.0" r="3" fill="#4aa3ff"/><circle cx="499.3" cy="36.0" r="3" fill="#4aa3ff"/><circle cx="501.9" cy="36.0" r="3" fill="#4aa3ff"/><circle cx="504.4" cy="36.0" r="3" fill="#4aa3ff"/><circle cx="507.0" cy="36.0" r="3" fill="#4aa3ff"/><circle cx="509.6" cy="36.0" r="3" fill="#4aa3ff"/><circle cx="512.1" cy="36.0" r="3" fill="#4aa3ff"/><circle cx="514.7" cy="36.0" r="3" fill="#4aa3ff"/><circle cx="517.3" cy="36.0" r="3" fill="#4aa3ff"/><circle cx="519.9" cy="36.0" r="3" fill="#4aa3ff"/><circle cx="522.4" cy="36.0" r="3" fill="#4aa3ff"/><circle cx="525.0" cy="36.0" r="3" fill="#4aa3ff"/><circle cx="527.6" cy="36.0" r="3" fill="#4aa3ff"/><circle cx="530.2" cy="36.0" r="3" fill="#4aa3ff"/><circle cx="532.7" cy="36.0" r="3" fill="#4aa3ff"/><circle cx="535.3" cy="36.0" r="3" fill="#4aa3ff"/><circle cx="537.9" cy="36.0" r="3" fill="#4aa3ff"/><circle cx="540.5" cy="36.0" r="3" fill="#4aa3ff"/><circle cx="543.0" cy="36.0" r="3" fill="#4aa3ff"/><circle cx="545.6" cy="36.0" r="3" fill="#4aa3ff"/><circle cx="548.2" cy="36.0" r="3" fill="#4aa3ff"/><circle cx="550.8" cy="36.0" r="3" fill="#4aa3ff"/><circle cx="553.3" cy="36.0" r="3" fill="#4aa3ff"/><circle cx="555.9" cy="36.0" r="3" fill="#4aa3ff"/><circle cx="558.5" cy="36.0" r="3" fill="#4aa3ff"/><circle cx="561.0" cy="36.0" r="3" fill="#4aa3ff"/><circle cx="563.6" cy="36.0" r="3" fill="#4aa3ff"/><circle cx="566.2" cy="36.0" r="3" fill="#4aa3ff"/><circle cx="568.8" cy="36.0" r="3" fill="#4aa3ff"/><circle cx="571.3" cy="36.0" r="3" fill="#4aa3ff"/><circle cx="573.9" cy="36.0" r="3" fill="#4aa3ff"/><circle cx="576.5" cy="36.0" r="3" fill="#4aa3ff"/><circle cx="579.1" cy="36.0" r="3" fill="#4aa3ff"/><circle cx="581.6" cy="36.0" r="3" fill="#4aa3ff"/><circle cx="584.2" cy="36.0" r="3" fill="#4aa3ff"/><circle cx="586.8" cy="36.0" r="3" fill="#4aa3ff"/><circle cx="589.4" cy="36.0" r="3" fill="#4aa3ff"/><circle cx="591.9" cy="36.0" r="3" fill="#4aa3ff"/><circle cx="594.5" cy="36.0" r="3" fill="#4aa3ff"/><circle cx="597.1" cy="36.0" r="3" fill="#4aa3ff"/><circle cx="599.7" cy="36.0" r="3" fill="#4aa3ff"/><circle cx="602.2" cy="36.0" r="3" fill="#4aa3ff"/><circle cx="604.8" cy="36.0" r="3" fill="#4aa3ff"/><circle cx="607.4" cy="36.0" r="3" fill="#4aa3ff"/><circle cx="610.0" cy="36.0" r="3" fill="#4aa3ff"/><circle cx="612.5" cy="36.0" r="3" fill="#4aa3ff"/><circle cx="615.1" cy="36.0" r="3" fill="#4aa3ff"/><circle cx="617.7" cy="36.0" r="3" fill="#4aa3ff"/><circle cx="620.2" cy="36.0" r="3" fill="#4aa3ff"/><circle cx="622.8" cy="36.0" r="3" fill="#4aa3ff"/><circle cx="625.4" cy="36.0" r="3" fill="#4aa3ff"/><circle cx="628.0" cy="36.0" r="3" fill="#4aa3ff"/><circle cx="630.5" cy="36.0" r="3" fill="#4aa3ff"/><circle cx="633.1" cy="36.0" r="3" fill="#4aa3ff"/><circle cx="635.7" cy="36.0" r="3" fill="#4aa3ff"/><circle cx="638.3" cy="36.0" r="3" fill="#4aa3ff"/><circle cx="640.8" cy="36.0" r="3" fill="#4aa3ff"/><circle cx="643.4" cy="36.0" r="3" fill="#4aa3ff"/><circle cx="646.0" cy="36.0" r="3" fill="#4aa3ff"/><circle cx="648.6" cy="36.0" r="3" fill="#4aa3ff"/><circle cx="651.1" cy="36.0" r="3" fill="#4aa3ff"/><circle cx="653.7" cy="36.0" r="3" fill="#4aa3ff"/><circle cx="656.3" cy="36.0" r="3" fill="#4aa3ff"/><circle cx="658.9" cy="36.0" r="3" fill="#4aa3ff"/><circle cx="661.4" cy="36.0" r="3" fill="#4aa3ff"/><circle cx="664.0" cy="36.0" r="3" fill="#4aa3ff"/>
<text x="36" y="225" fill="#6b7280" font-size="11">2026-06-26</text>
<text x="664" y="225" fill="#6b7280" font-size="11" text-anchor="end">2026-07-20</text>
<text x="36" y="212" font-family="system-ui,sans-serif" font-size="11">
<tspan fill="#4aa3ff">&#9679; open FPs</tspan>  <tspan fill="#3fb950">&#9679; closed (Anthropic acting)</tspan>  <tspan fill="#8a5a5a">&#9679; harness withdrawn</tspan></text>
<text x="664" y="22" text-anchor="end" font-family="system-ui,sans-serif" font-size="12">
<tspan fill="#4aa3ff">open 800</tspan>  <tspan fill="#3fb950">closed 0</tspan>  <tspan fill="#8a5a5a">harness 0</tspan></text>
</svg>