<svg xmlns="http://www.w3.org/2000/svg" width="700" height="234" viewBox="0 0 700 234" role="img">
<rect width="700" height="234" rx="12" fill="#16181d"/>
<text x="36" y="22" fill="#e8eaed" font-family="system-ui,sans-serif" font-size="14" font-weight="700">Is Anthropic acting? cyber/aup false positives over time</text>
<line x1="36" y1="198.0" x2="664" y2="198.0" stroke="#2a2e37" stroke-width="1"/><text x="30" y="202.0" fill="#6b7280" font-size="11" text-anchor="end">0</text><line x1="36" y1="117.0" x2="664" y2="117.0" stroke="#2a2e37" stroke-width="1"/><text x="30" y="121.0" fill="#6b7280" font-size="11" text-anchor="end">400</text><line x1="36" y1="36.0" x2="664" y2="36.0" stroke="#2a2e37" stroke-width="1"/><text x="30" y="40.0" fill="#6b7280" font-size="11" text-anchor="end">800</text>

<polyline fill="none" stroke="#8a5a5a" stroke-width="2.5" stroke-linejoin="round" points="36.0,145.1 39.0,145.1 42.0,145.1 44.9,145.1 47.9,145.1 50.9,145.1 53.9,145.1 56.8,145.1 59.8,145.1 62.8,145.1 65.8,145.1 68.7,145.1 71.7,145.1 74.7,145.1 77.7,145.1 80.6,145.1 83.6,145.1 86.6,145.1 89.6,145.1 92.5,145.1 95.5,145.1 98.5,145.1 101.5,145.1 104.5,145.1 107.4,145.1 110.4,145.1 113.4,145.1 116.4,145.1 119.3,145.1 122.3,145.1 125.3,145.1 128.3,145.1 131.2,145.1 134.2,145.1 137.2,145.1 140.2,145.1 143.1,145.1 146.1,145.1 149.1,145.1 152.1,145.1 155.1,145.1 158.0,145.1 161.0,145.1 164.0,145.1 167.0,145.1 169.9,145.1 172.9,145.1 175.9,145.1 178.9,145.1 181.8,145.1 184.8,155.7 187.8,155.7 190.8,155.7 193.7,155.7 196.7,155.7 199.7,155.7 202.7,155.7 205.6,155.7 208.6,155.7 211.6,155.7 214.6,155.7 217.6,155.7 220.5,155.7 223.5,155.7 226.5,155.7 229.5,155.7 232.4,155.7 235.4,155.7 238.4,155.7 241.4,155.7 244.3,155.7 247.3,155.7 250.3,155.7 253.3,155.7 256.2,155.7 259.2,155.7 262.2,155.7 265.2,155.7 268.2,155.7 271.1,155.7 274.1,155.7 277.1,155.7 280.1,155.7 283.0,155.7 286.0,167.6 289.0,167.6 292.0,170.3 294.9,170.3 297.9,170.5 300.9,170.7 303.9,170.7 306.8,170.9 309.8,172.7 312.8,180.6 315.8,181.8 318.7,189.1 321.7,190.5 324.7,195.2 327.7,198.0 330.7,198.0 333.6,198.0 336.6,198.0 339.6,198.0 342.6,198.0 345.5,198.0 348.5,198.0 351.5,198.0 354.5,198.0 357.4,198.0 360.4,198.0 363.4,198.0 366.4,198.0 369.3,198.0 372.3,198.0 375.3,198.0 378.3,198.0 381.3,198.0 384.2,198.0 387.2,198.0 390.2,198.0 393.2,198.0 396.1,198.0 399.1,198.0 402.1,198.0 405.1,198.0 408.0,198.0 411.0,198.0 414.0,198.0 417.0,198.0 419.9,198.0 422.9,198.0 425.9,198.0 428.9,198.0 431.8,198.0 434.8,198.0 437.8,198.0 440.8,198.0 443.8,198.0 446.7,198.0 449.7,198.0 452.7,198.0 455.7,198.0 458.6,198.0 461.6,198.0 464.6,198.0 467.6,198.0 470.5,198.0 473.5,198.0 476.5,198.0 479.5,198.0 482.4,198.0 485.4,198.0 488.4,198.0 491.4,198.0 494.4,198.0 497.3,198.0 500.3,198.0 503.3,198.0 506.3,198.0 509.2,198.0 512.2,198.0 515.2,198.0 518.2,198.0 521.1,198.0 524.1,198.0 527.1,198.0 530.1,198.0 533.0,198.0 536.0,198.0 539.0,198.0 542.0,198.0 544.9,198.0 547.9,198.0 550.9,198.0 553.9,198.0 556.9,198.0 559.8,198.0 562.8,198.0 565.8,198.0 568.8,198.0 571.7,198.0 574.7,198.0 577.7,198.0 580.7,198.0 583.6,198.0 586.6,198.0 589.6,198.0 592.6,198.0 595.5,198.0 598.5,198.0 601.5,198.0 604.5,198.0 607.5,198.0 610.4,198.0 613.4,198.0 616.4,198.0 619.4,198.0 622.3,198.0 625.3,198.0 628.3,198.0 631.3,198.0 634.2,198.0 637.2,198.0 640.2,198.0 643.2,198.0 646.1,198.0 649.1,198.0 652.1,198.0 655.1,198.0 658.0,198.0 661.0,198.0 664.0,198.0"/><circle cx="36.0" cy="145.1" r="3" fill="#8a5a5a"/><circle cx="39.0" cy="145.1" r="3" fill="#8a5a5a"/><circle cx="42.0" cy="145.1" r="3" fill="#8a5a5a"/><circle cx="44.9" cy="145.1" r="3" fill="#8a5a5a"/><circle cx="47.9" cy="145.1" r="3" fill="#8a5a5a"/><circle cx="50.9" cy="145.1" r="3" fill="#8a5a5a"/><circle cx="53.9" cy="145.1" r="3" fill="#8a5a5a"/><circle cx="56.8" cy="145.1" r="3" fill="#8a5a5a"/><circle cx="59.8" cy="145.1" r="3" fill="#8a5a5a"/><circle cx="62.8" cy="145.1" r="3" fill="#8a5a5a"/><circle cx="65.8" cy="145.1" r="3" fill="#8a5a5a"/><circle cx="68.7" cy="145.1" r="3" fill="#8a5a5a"/><circle cx="71.7" cy="145.1" r="3" fill="#8a5a5a"/><circle cx="74.7" cy="145.1" r="3" fill="#8a5a5a"/><circle cx="77.7" cy="145.1" r="3" fill="#8a5a5a"/><circle cx="80.6" cy="145.1" r="3" fill="#8a5a5a"/><circle cx="83.6" cy="145.1" r="3" fill="#8a5a5a"/><circle cx="86.6" cy="145.1" r="3" fill="#8a5a5a"/><circle cx="89.6" cy="145.1" r="3" fill="#8a5a5a"/><circle cx="92.5" cy="145.1" r="3" fill="#8a5a5a"/><circle cx="95.5" cy="145.1" r="3" fill="#8a5a5a"/><circle cx="98.5" cy="145.1" r="3" fill="#8a5a5a"/><circle cx="101.5" cy="145.1" r="3" fill="#8a5a5a"/><circle cx="104.5" cy="145.1" r="3" fill="#8a5a5a"/><circle cx="107.4" cy="145.1" r="3" fill="#8a5a5a"/><circle cx="110.4" cy="145.1" r="3" fill="#8a5a5a"/><circle cx="113.4" cy="145.1" r="3" fill="#8a5a5a"/><circle cx="116.4" cy="145.1" r="3" fill="#8a5a5a"/><circle cx="119.3" cy="145.1" r="3" fill="#8a5a5a"/><circle cx="122.3" cy="145.1" r="3" fill="#8a5a5a"/><circle cx="125.3" cy="145.1" r="3" fill="#8a5a5a"/><circle cx="128.3" cy="145.1" r="3" fill="#8a5a5a"/><circle cx="131.2" cy="145.1" r="3" fill="#8a5a5a"/><circle cx="134.2" cy="145.1" r="3" fill="#8a5a5a"/><circle cx="137.2" cy="145.1" r="3" fill="#8a5a5a"/><circle cx="140.2" cy="145.1" r="3" fill="#8a5a5a"/><circle cx="143.1" cy="145.1" r="3" fill="#8a5a5a"/><circle cx="146.1" cy="145.1" r="3" fill="#8a5a5a"/><circle cx="149.1" cy="145.1" r="3" fill="#8a5a5a"/><circle cx="152.1" cy="145.1" r="3" fill="#8a5a5a"/><circle cx="155.1" cy="145.1" r="3" fill="#8a5a5a"/><circle cx="158.0" cy="145.1" r="3" fill="#8a5a5a"/><circle cx="161.0" cy="145.1" r="3" fill="#8a5a5a"/><circle cx="164.0" cy="145.1" r="3" fill="#8a5a5a"/><circle cx="167.0" cy="145.1" r="3" fill="#8a5a5a"/><circle cx="169.9" cy="145.1" r="3" fill="#8a5a5a"/><circle cx="172.9" cy="145.1" r="3" fill="#8a5a5a"/><circle cx="175.9" cy="145.1" r="3" fill="#8a5a5a"/><circle cx="178.9" cy="145.1" r="3" fill="#8a5a5a"/><circle cx="181.8" cy="145.1" r="3" fill="#8a5a5a"/><circle cx="184.8" cy="155.7" r="3" fill="#8a5a5a"/><circle cx="187.8" cy="155.7" r="3" fill="#8a5a5a"/><circle cx="190.8" cy="155.7" r="3" fill="#8a5a5a"/><circle cx="193.7" cy="155.7" r="3" fill="#8a5a5a"/><circle cx="196.7" cy="155.7" r="3" fill="#8a5a5a"/><circle cx="199.7" cy="155.7" r="3" fill="#8a5a5a"/><circle cx="202.7" cy="155.7" r="3" fill="#8a5a5a"/><circle cx="205.6" cy="155.7" r="3" fill="#8a5a5a"/><circle cx="208.6" cy="155.7" r="3" fill="#8a5a5a"/><circle cx="211.6" cy="155.7" r="3" fill="#8a5a5a"/><circle cx="214.6" cy="155.7" r="3" fill="#8a5a5a"/><circle cx="217.6" cy="155.7" r="3" fill="#8a5a5a"/><circle cx="220.5" cy="155.7" r="3" fill="#8a5a5a"/><circle cx="223.5" cy="155.7" r="3" fill="#8a5a5a"/><circle cx="226.5" cy="155.7" r="3" fill="#8a5a5a"/><circle cx="229.5" cy="155.7" r="3" fill="#8a5a5a"/><circle cx="232.4" cy="155.7" r="3" fill="#8a5a5a"/><circle cx="235.4" cy="155.7" r="3" fill="#8a5a5a"/><circle cx="238.4" cy="155.7" r="3" fill="#8a5a5a"/><circle cx="241.4" cy="155.7" r="3" fill="#8a5a5a"/><circle cx="244.3" cy="155.7" r="3" fill="#8a5a5a"/><circle cx="247.3" cy="155.7" r="3" fill="#8a5a5a"/><circle cx="250.3" cy="155.7" r="3" fill="#8a5a5a"/><circle cx="253.3" cy="155.7" r="3" fill="#8a5a5a"/><circle cx="256.2" cy="155.7" r="3" fill="#8a5a5a"/><circle cx="259.2" cy="155.7" r="3" fill="#8a5a5a"/><circle cx="262.2" cy="155.7" r="3" fill="#8a5a5a"/><circle cx="265.2" cy="155.7" r="3" fill="#8a5a5a"/><circle cx="268.2" cy="155.7" r="3" fill="#8a5a5a"/><circle cx="271.1" cy="155.7" r="3" fill="#8a5a5a"/><circle cx="274.1" cy="155.7" r="3" fill="#8a5a5a"/><circle cx="277.1" cy="155.7" r="3" fill="#8a5a5a"/><circle cx="280.1" cy="155.7" r="3" fill="#8a5a5a"/><circle cx="283.0" cy="155.7" r="3" fill="#8a5a5a"/><circle cx="286.0" cy="167.6" r="3" fill="#8a5a5a"/><circle cx="289.0" cy="167.6" r="3" fill="#8a5a5a"/><circle cx="292.0" cy="170.3" r="3" fill="#8a5a5a"/><circle cx="294.9" cy="170.3" r="3" fill="#8a5a5a"/><circle cx="297.9" cy="170.5" r="3" fill="#8a5a5a"/><circle cx="300.9" cy="170.7" r="3" fill="#8a5a5a"/><circle cx="303.9" cy="170.7" r="3" fill="#8a5a5a"/><circle cx="306.8" cy="170.9" r="3" fill="#8a5a5a"/><circle cx="309.8" cy="172.7" r="3" fill="#8a5a5a"/><circle cx="312.8" cy="180.6" r="3" fill="#8a5a5a"/><circle cx="315.8" cy="181.8" r="3" fill="#8a5a5a"/><circle cx="318.7" cy="189.1" r="3" fill="#8a5a5a"/><circle cx="321.7" cy="190.5" r="3" fill="#8a5a5a"/><circle cx="324.7" cy="195.2" r="3" fill="#8a5a5a"/><circle cx="327.7" cy="198.0" r="3" fill="#8a5a5a"/><circle cx="330.7" cy="198.0" r="3" fill="#8a5a5a"/><circle cx="333.6" cy="198.0" r="3" fill="#8a5a5a"/><circle cx="336.6" cy="198.0" r="3" fill="#8a5a5a"/><circle cx="339.6" cy="198.0" r="3" fill="#8a5a5a"/><circle cx="342.6" cy="198.0" r="3" fill="#8a5a5a"/><circle cx="345.5" cy="198.0" r="3" fill="#8a5a5a"/><circle cx="348.5" cy="198.0" r="3" fill="#8a5a5a"/><circle cx="351.5" cy="198.0" r="3" fill="#8a5a5a"/><circle cx="354.5" cy="198.0" r="3" fill="#8a5a5a"/><circle cx="357.4" cy="198.0" r="3" fill="#8a5a5a"/><circle cx="360.4" cy="198.0" r="3" fill="#8a5a5a"/><circle cx="363.4" cy="198.0" r="3" fill="#8a5a5a"/><circle cx="366.4" cy="198.0" r="3" fill="#8a5a5a"/><circle cx="369.3" cy="198.0" r="3" fill="#8a5a5a"/><circle cx="372.3" cy="198.0" r="3" fill="#8a5a5a"/><circle cx="375.3" cy="198.0" r="3" fill="#8a5a5a"/><circle cx="378.3" cy="198.0" r="3" fill="#8a5a5a"/><circle cx="381.3" cy="198.0" r="3" fill="#8a5a5a"/><circle cx="384.2" cy="198.0" r="3" fill="#8a5a5a"/><circle cx="387.2" cy="198.0" r="3" fill="#8a5a5a"/><circle cx="390.2" cy="198.0" r="3" fill="#8a5a5a"/><circle cx="393.2" cy="198.0" r="3" fill="#8a5a5a"/><circle cx="396.1" cy="198.0" r="3" fill="#8a5a5a"/><circle cx="399.1" cy="198.0" r="3" fill="#8a5a5a"/><circle cx="402.1" cy="198.0" r="3" fill="#8a5a5a"/><circle cx="405.1" cy="198.0" r="3" fill="#8a5a5a"/><circle cx="408.0" cy="198.0" r="3" fill="#8a5a5a"/><circle cx="411.0" cy="198.0" r="3" fill="#8a5a5a"/><circle cx="414.0" cy="198.0" r="3" fill="#8a5a5a"/><circle cx="417.0" cy="198.0" r="3" fill="#8a5a5a"/><circle cx="419.9" cy="198.0" r="3" fill="#8a5a5a"/><circle cx="422.9" cy="198.0" r="3" fill="#8a5a5a"/><circle cx="425.9" cy="198.0" r="3" fill="#8a5a5a"/><circle cx="428.9" cy="198.0" r="3" fill="#8a5a5a"/><circle cx="431.8" cy="198.0" r="3" fill="#8a5a5a"/><circle cx="434.8" cy="198.0" r="3" fill="#8a5a5a"/><circle cx="437.8" cy="198.0" r="3" fill="#8a5a5a"/><circle cx="440.8" cy="198.0" r="3" fill="#8a5a5a"/><circle cx="443.8" cy="198.0" r="3" fill="#8a5a5a"/><circle cx="446.7" cy="198.0" r="3" fill="#8a5a5a"/><circle cx="449.7" cy="198.0" r="3" fill="#8a5a5a"/><circle cx="452.7" cy="198.0" r="3" fill="#8a5a5a"/><circle cx="455.7" cy="198.0" r="3" fill="#8a5a5a"/><circle cx="458.6" cy="198.0" r="3" fill="#8a5a5a"/><circle cx="461.6" cy="198.0" r="3" fill="#8a5a5a"/><circle cx="464.6" cy="198.0" r="3" fill="#8a5a5a"/><circle cx="467.6" cy="198.0" r="3" fill="#8a5a5a"/><circle cx="470.5" cy="198.0" r="3" fill="#8a5a5a"/><circle cx="473.5" cy="198.0" r="3" fill="#8a5a5a"/><circle cx="476.5" cy="198.0" r="3" fill="#8a5a5a"/><circle cx="479.5" cy="198.0" r="3" fill="#8a5a5a"/><circle cx="482.4" cy="198.0" r="3" fill="#8a5a5a"/><circle cx="485.4" cy="198.0" r="3" fill="#8a5a5a"/><circle cx="488.4" cy="198.0" r="3" fill="#8a5a5a"/><circle cx="491.4" cy="198.0" r="3" fill="#8a5a5a"/><circle cx="494.4" cy="198.0" r="3" fill="#8a5a5a"/><circle cx="497.3" cy="198.0" r="3" fill="#8a5a5a"/><circle cx="500.3" cy="198.0" r="3" fill="#8a5a5a"/><circle cx="503.3" cy="198.0" r="3" fill="#8a5a5a"/><circle cx="506.3" cy="198.0" r="3" fill="#8a5a5a"/><circle cx="509.2" cy="198.0" r="3" fill="#8a5a5a"/><circle cx="512.2" cy="198.0" r="3" fill="#8a5a5a"/><circle cx="515.2" cy="198.0" r="3" fill="#8a5a5a"/><circle cx="518.2" cy="198.0" r="3" fill="#8a5a5a"/><circle cx="521.1" cy="198.0" r="3" fill="#8a5a5a"/><circle cx="524.1" cy="198.0" r="3" fill="#8a5a5a"/><circle cx="527.1" cy="198.0" r="3" fill="#8a5a5a"/><circle cx="530.1" cy="198.0" r="3" fill="#8a5a5a"/><circle cx="533.0" cy="198.0" r="3" fill="#8a5a5a"/><circle cx="536.0" cy="198.0" r="3" fill="#8a5a5a"/><circle cx="539.0" cy="198.0" r="3" fill="#8a5a5a"/><circle cx="542.0" cy="198.0" r="3" fill="#8a5a5a"/><circle cx="544.9" cy="198.0" r="3" fill="#8a5a5a"/><circle cx="547.9" cy="198.0" r="3" fill="#8a5a5a"/><circle cx="550.9" cy="198.0" r="3" fill="#8a5a5a"/><circle cx="553.9" cy="198.0" r="3" fill="#8a5a5a"/><circle cx="556.9" cy="198.0" r="3" fill="#8a5a5a"/><circle cx="559.8" cy="198.0" r="3" fill="#8a5a5a"/><circle cx="562.8" cy="198.0" r="3" fill="#8a5a5a"/><circle cx="565.8" cy="198.0" r="3" fill="#8a5a5a"/><circle cx="568.8" cy="198.0" r="3" fill="#8a5a5a"/><circle cx="571.7" cy="198.0" r="3" fill="#8a5a5a"/><circle cx="574.7" cy="198.0" r="3" fill="#8a5a5a"/><circle cx="577.7" cy="198.0" r="3" fill="#8a5a5a"/><circle cx="580.7" cy="198.0" r="3" fill="#8a5a5a"/><circle cx="583.6" cy="198.0" r="3" fill="#8a5a5a"/><circle cx="586.6" cy="198.0" r="3" fill="#8a5a5a"/><circle cx="589.6" cy="198.0" r="3" fill="#8a5a5a"/><circle cx="592.6" cy="198.0" r="3" fill="#8a5a5a"/><circle cx="595.5" cy="198.0" r="3" fill="#8a5a5a"/><circle cx="598.5" cy="198.0" r="3" fill="#8a5a5a"/><circle cx="601.5" cy="198.0" r="3" fill="#8a5a5a"/><circle cx="604.5" cy="198.0" r="3" fill="#8a5a5a"/><circle cx="607.5" cy="198.0" r="3" fill="#8a5a5a"/><circle cx="610.4" cy="198.0" r="3" fill="#8a5a5a"/><circle cx="613.4" cy="198.0" r="3" fill="#8a5a5a"/><circle cx="616.4" cy="198.0" r="3" fill="#8a5a5a"/><circle cx="619.4" cy="198.0" r="3" fill="#8a5a5a"/><circle cx="622.3" cy="198.0" r="3" fill="#8a5a5a"/><circle cx="625.3" cy="198.0" r="3" fill="#8a5a5a"/><circle cx="628.3" cy="198.0" r="3" fill="#8a5a5a"/><circle cx="631.3" cy="198.0" r="3" fill="#8a5a5a"/><circle cx="634.2" cy="198.0" r="3" fill="#8a5a5a"/><circle cx="637.2" cy="198.0" r="3" fill="#8a5a5a"/><circle cx="640.2" cy="198.0" r="3" fill="#8a5a5a"/><circle cx="643.2" cy="198.0" r="3" fill="#8a5a5a"/><circle cx="646.1" cy="198.0" r="3" fill="#8a5a5a"/><circle cx="649.1" cy="198.0" r="3" fill="#8a5a5a"/><circle cx="652.1" cy="198.0" r="3" fill="#8a5a5a"/><circle cx="655.1" cy="198.0" r="3" fill="#8a5a5a"/><circle cx="658.0" cy="198.0" r="3" fill="#8a5a5a"/><circle cx="661.0" cy="198.0" r="3" fill="#8a5a5a"/><circle cx="664.0" cy="198.0" r="3" fill="#8a5a5a"/>
<polyline fill="none" stroke="#3fb950" stroke-width="2.5" stroke-linejoin="round" points="36.0,198.0 39.0,198.0 42.0,198.0 44.9,198.0 47.9,198.0 50.9,198.0 53.9,198.0 56.8,198.0 59.8,198.0 62.8,198.0 65.8,198.0 68.7,198.0 71.7,198.0 74.7,198.0 77.7,198.0 80.6,198.0 83.6,198.0 86.6,198.0 89.6,198.0 92.5,198.0 95.5,198.0 98.5,198.0 101.5,198.0 104.5,198.0 107.4,198.0 110.4,198.0 113.4,198.0 116.4,198.0 119.3,198.0 122.3,198.0 125.3,198.0 128.3,198.0 131.2,198.0 134.2,198.0 137.2,198.0 140.2,198.0 143.1,198.0 146.1,198.0 149.1,198.0 152.1,198.0 155.1,198.0 158.0,198.0 161.0,198.0 164.0,191.7 167.0,191.7 169.9,191.7 172.9,191.7 175.9,191.7 178.9,191.7 181.8,191.7 184.8,192.9 187.8,192.9 190.8,190.7 193.7,190.7 196.7,190.7 199.7,190.7 202.7,190.7 205.6,190.5 208.6,190.5 211.6,190.5 214.6,190.3 217.6,190.3 220.5,190.3 223.5,190.3 226.5,190.3 229.5,190.3 232.4,190.3 235.4,190.3 238.4,190.3 241.4,190.3 244.3,190.3 247.3,190.3 250.3,190.3 253.3,190.3 256.2,190.3 259.2,190.3 262.2,190.3 265.2,190.3 268.2,190.3 271.1,190.3 274.1,190.3 277.1,189.3 280.1,189.3 283.0,189.3 286.0,190.7 289.0,190.7 292.0,190.7 294.9,190.7 297.9,190.7 300.9,190.7 303.9,190.7 306.8,190.7 309.8,190.7 312.8,190.9 315.8,190.9 318.7,190.9 321.7,194.2 324.7,196.8 327.7,198.0 330.7,198.0 333.6,198.0 336.6,198.0 339.6,198.0 342.6,198.0 345.5,198.0 348.5,198.0 351.5,198.0 354.5,198.0 357.4,198.0 360.4,198.0 363.4,198.0 366.4,198.0 369.3,198.0 372.3,198.0 375.3,198.0 378.3,198.0 381.3,198.0 384.2,198.0 387.2,198.0 390.2,198.0 393.2,198.0 396.1,198.0 399.1,198.0 402.1,198.0 405.1,198.0 408.0,198.0 411.0,198.0 414.0,198.0 417.0,198.0 419.9,198.0 422.9,198.0 425.9,198.0 428.9,198.0 431.8,198.0 434.8,198.0 437.8,198.0 440.8,198.0 443.8,198.0 446.7,198.0 449.7,198.0 452.7,198.0 455.7,198.0 458.6,198.0 461.6,198.0 464.6,198.0 467.6,198.0 470.5,198.0 473.5,198.0 476.5,198.0 479.5,198.0 482.4,198.0 485.4,198.0 488.4,198.0 491.4,198.0 494.4,198.0 497.3,198.0 500.3,198.0 503.3,198.0 506.3,198.0 509.2,198.0 512.2,198.0 515.2,198.0 518.2,198.0 521.1,198.0 524.1,198.0 527.1,198.0 530.1,198.0 533.0,198.0 536.0,198.0 539.0,198.0 542.0,198.0 544.9,198.0 547.9,198.0 550.9,198.0 553.9,198.0 556.9,198.0 559.8,198.0 562.8,198.0 565.8,198.0 568.8,198.0 571.7,198.0 574.7,198.0 577.7,198.0 580.7,198.0 583.6,198.0 586.6,198.0 589.6,198.0 592.6,198.0 595.5,198.0 598.5,198.0 601.5,198.0 604.5,198.0 607.5,198.0 610.4,198.0 613.4,198.0 616.4,198.0 619.4,198.0 622.3,198.0 625.3,198.0 628.3,198.0 631.3,198.0 634.2,198.0 637.2,198.0 640.2,198.0 643.2,198.0 646.1,198.0 649.1,198.0 652.1,198.0 655.1,198.0 658.0,198.0 661.0,198.0 664.0,198.0"/><circle cx="36.0" cy="198.0" r="3" fill="#3fb950"/><circle cx="39.0" cy="198.0" r="3" fill="#3fb950"/><circle cx="42.0" cy="198.0" r="3" fill="#3fb950"/><circle cx="44.9" cy="198.0" r="3" fill="#3fb950"/><circle cx="47.9" cy="198.0" r="3" fill="#3fb950"/><circle cx="50.9" cy="198.0" r="3" fill="#3fb950"/><circle cx="53.9" cy="198.0" r="3" fill="#3fb950"/><circle cx="56.8" cy="198.0" r="3" fill="#3fb950"/><circle cx="59.8" cy="198.0" r="3" fill="#3fb950"/><circle cx="62.8" cy="198.0" r="3" fill="#3fb950"/><circle cx="65.8" cy="198.0" r="3" fill="#3fb950"/><circle cx="68.7" cy="198.0" r="3" fill="#3fb950"/><circle cx="71.7" cy="198.0" r="3" fill="#3fb950"/><circle cx="74.7" cy="198.0" r="3" fill="#3fb950"/><circle cx="77.7" cy="198.0" r="3" fill="#3fb950"/><circle cx="80.6" cy="198.0" r="3" fill="#3fb950"/><circle cx="83.6" cy="198.0" r="3" fill="#3fb950"/><circle cx="86.6" cy="198.0" r="3" fill="#3fb950"/><circle cx="89.6" cy="198.0" r="3" fill="#3fb950"/><circle cx="92.5" cy="198.0" r="3" fill="#3fb950"/><circle cx="95.5" cy="198.0" r="3" fill="#3fb950"/><circle cx="98.5" cy="198.0" r="3" fill="#3fb950"/><circle cx="101.5" cy="198.0" r="3" fill="#3fb950"/><circle cx="104.5" cy="198.0" r="3" fill="#3fb950"/><circle cx="107.4" cy="198.0" r="3" fill="#3fb950"/><circle cx="110.4" cy="198.0" r="3" fill="#3fb950"/><circle cx="113.4" cy="198.0" r="3" fill="#3fb950"/><circle cx="116.4" cy="198.0" r="3" fill="#3fb950"/><circle cx="119.3" cy="198.0" r="3" fill="#3fb950"/><circle cx="122.3" cy="198.0" r="3" fill="#3fb950"/><circle cx="125.3" cy="198.0" r="3" fill="#3fb950"/><circle cx="128.3" cy="198.0" r="3" fill="#3fb950"/><circle cx="131.2" cy="198.0" r="3" fill="#3fb950"/><circle cx="134.2" cy="198.0" r="3" fill="#3fb950"/><circle cx="137.2" cy="198.0" r="3" fill="#3fb950"/><circle cx="140.2" cy="198.0" r="3" fill="#3fb950"/><circle cx="143.1" cy="198.0" r="3" fill="#3fb950"/><circle cx="146.1" cy="198.0" r="3" fill="#3fb950"/><circle cx="149.1" cy="198.0" r="3" fill="#3fb950"/><circle cx="152.1" cy="198.0" r="3" fill="#3fb950"/><circle cx="155.1" cy="198.0" r="3" fill="#3fb950"/><circle cx="158.0" cy="198.0" r="3" fill="#3fb950"/><circle cx="161.0" cy="198.0" r="3" fill="#3fb950"/><circle cx="164.0" cy="191.7" r="3" fill="#3fb950"/><circle cx="167.0" cy="191.7" r="3" fill="#3fb950"/><circle cx="169.9" cy="191.7" r="3" fill="#3fb950"/><circle cx="172.9" cy="191.7" r="3" fill="#3fb950"/><circle cx="175.9" cy="191.7" r="3" fill="#3fb950"/><circle cx="178.9" cy="191.7" r="3" fill="#3fb950"/><circle cx="181.8" cy="191.7" r="3" fill="#3fb950"/><circle cx="184.8" cy="192.9" r="3" fill="#3fb950"/><circle cx="187.8" cy="192.9" r="3" fill="#3fb950"/><circle cx="190.8" cy="190.7" r="3" fill="#3fb950"/><circle cx="193.7" cy="190.7" r="3" fill="#3fb950"/><circle cx="196.7" cy="190.7" r="3" fill="#3fb950"/><circle cx="199.7" cy="190.7" r="3" fill="#3fb950"/><circle cx="202.7" cy="190.7" r="3" fill="#3fb950"/><circle cx="205.6" cy="190.5" r="3" fill="#3fb950"/><circle cx="208.6" cy="190.5" r="3" fill="#3fb950"/><circle cx="211.6" cy="190.5" r="3" fill="#3fb950"/><circle cx="214.6" cy="190.3" r="3" fill="#3fb950"/><circle cx="217.6" cy="190.3" r="3" fill="#3fb950"/><circle cx="220.5" cy="190.3" r="3" fill="#3fb950"/><circle cx="223.5" cy="190.3" r="3" fill="#3fb950"/><circle cx="226.5" cy="190.3" r="3" fill="#3fb950"/><circle cx="229.5" cy="190.3" r="3" fill="#3fb950"/><circle cx="232.4" cy="190.3" r="3" fill="#3fb950"/><circle cx="235.4" cy="190.3" r="3" fill="#3fb950"/><circle cx="238.4" cy="190.3" r="3" fill="#3fb950"/><circle cx="241.4" cy="190.3" r="3" fill="#3fb950"/><circle cx="244.3" cy="190.3" r="3" fill="#3fb950"/><circle cx="247.3" cy="190.3" r="3" fill="#3fb950"/><circle cx="250.3" cy="190.3" r="3" fill="#3fb950"/><circle cx="253.3" cy="190.3" r="3" fill="#3fb950"/><circle cx="256.2" cy="190.3" r="3" fill="#3fb950"/><circle cx="259.2" cy="190.3" r="3" fill="#3fb950"/><circle cx="262.2" cy="190.3" r="3" fill="#3fb950"/><circle cx="265.2" cy="190.3" r="3" fill="#3fb950"/><circle cx="268.2" cy="190.3" r="3" fill="#3fb950"/><circle cx="271.1" cy="190.3" r="3" fill="#3fb950"/><circle cx="274.1" cy="190.3" r="3" fill="#3fb950"/><circle cx="277.1" cy="189.3" r="3" fill="#3fb950"/><circle cx="280.1" cy="189.3" r="3" fill="#3fb950"/><circle cx="283.0" cy="189.3" r="3" fill="#3fb950"/><circle cx="286.0" cy="190.7" r="3" fill="#3fb950"/><circle cx="289.0" cy="190.7" r="3" fill="#3fb950"/><circle cx="292.0" cy="190.7" r="3" fill="#3fb950"/><circle cx="294.9" cy="190.7" r="3" fill="#3fb950"/><circle cx="297.9" cy="190.7" r="3" fill="#3fb950"/><circle cx="300.9" cy="190.7" r="3" fill="#3fb950"/><circle cx="303.9" cy="190.7" r="3" fill="#3fb950"/><circle cx="306.8" cy="190.7" r="3" fill="#3fb950"/><circle cx="309.8" cy="190.7" r="3" fill="#3fb950"/><circle cx="312.8" cy="190.9" r="3" fill="#3fb950"/><circle cx="315.8" cy="190.9" r="3" fill="#3fb950"/><circle cx="318.7" cy="190.9" r="3" fill="#3fb950"/><circle cx="321.7" cy="194.2" r="3" fill="#3fb950"/><circle cx="324.7" cy="196.8" r="3" fill="#3fb950"/><circle cx="327.7" cy="198.0" r="3" fill="#3fb950"/><circle cx="330.7" cy="198.0" r="3" fill="#3fb950"/><circle cx="333.6" cy="198.0" r="3" fill="#3fb950"/><circle cx="336.6" cy="198.0" r="3" fill="#3fb950"/><circle cx="339.6" cy="198.0" r="3" fill="#3fb950"/><circle cx="342.6" cy="198.0" r="3" fill="#3fb950"/><circle cx="345.5" cy="198.0" r="3" fill="#3fb950"/><circle cx="348.5" cy="198.0" r="3" fill="#3fb950"/><circle cx="351.5" cy="198.0" r="3" fill="#3fb950"/><circle cx="354.5" cy="198.0" r="3" fill="#3fb950"/><circle cx="357.4" cy="198.0" r="3" fill="#3fb950"/><circle cx="360.4" cy="198.0" r="3" fill="#3fb950"/><circle cx="363.4" cy="198.0" r="3" fill="#3fb950"/><circle cx="366.4" cy="198.0" r="3" fill="#3fb950"/><circle cx="369.3" cy="198.0" r="3" fill="#3fb950"/><circle cx="372.3" cy="198.0" r="3" fill="#3fb950"/><circle cx="375.3" cy="198.0" r="3" fill="#3fb950"/><circle cx="378.3" cy="198.0" r="3" fill="#3fb950"/><circle cx="381.3" cy="198.0" r="3" fill="#3fb950"/><circle cx="384.2" cy="198.0" r="3" fill="#3fb950"/><circle cx="387.2" cy="198.0" r="3" fill="#3fb950"/><circle cx="390.2" cy="198.0" r="3" fill="#3fb950"/><circle cx="393.2" cy="198.0" r="3" fill="#3fb950"/><circle cx="396.1" cy="198.0" r="3" fill="#3fb950"/><circle cx="399.1" cy="198.0" r="3" fill="#3fb950"/><circle cx="402.1" cy="198.0" r="3" fill="#3fb950"/><circle cx="405.1" cy="198.0" r="3" fill="#3fb950"/><circle cx="408.0" cy="198.0" r="3" fill="#3fb950"/><circle cx="411.0" cy="198.0" r="3" fill="#3fb950"/><circle cx="414.0" cy="198.0" r="3" fill="#3fb950"/><circle cx="417.0" cy="198.0" r="3" fill="#3fb950"/><circle cx="419.9" cy="198.0" r="3" fill="#3fb950"/><circle cx="422.9" cy="198.0" r="3" fill="#3fb950"/><circle cx="425.9" cy="198.0" r="3" fill="#3fb950"/><circle cx="428.9" cy="198.0" r="3" fill="#3fb950"/><circle cx="431.8" cy="198.0" r="3" fill="#3fb950"/><circle cx="434.8" cy="198.0" r="3" fill="#3fb950"/><circle cx="437.8" cy="198.0" r="3" fill="#3fb950"/><circle cx="440.8" cy="198.0" r="3" fill="#3fb950"/><circle cx="443.8" cy="198.0" r="3" fill="#3fb950"/><circle cx="446.7" cy="198.0" r="3" fill="#3fb950"/><circle cx="449.7" cy="198.0" r="3" fill="#3fb950"/><circle cx="452.7" cy="198.0" r="3" fill="#3fb950"/><circle cx="455.7" cy="198.0" r="3" fill="#3fb950"/><circle cx="458.6" cy="198.0" r="3" fill="#3fb950"/><circle cx="461.6" cy="198.0" r="3" fill="#3fb950"/><circle cx="464.6" cy="198.0" r="3" fill="#3fb950"/><circle cx="467.6" cy="198.0" r="3" fill="#3fb950"/><circle cx="470.5" cy="198.0" r="3" fill="#3fb950"/><circle cx="473.5" cy="198.0" r="3" fill="#3fb950"/><circle cx="476.5" cy="198.0" r="3" fill="#3fb950"/><circle cx="479.5" cy="198.0" r="3" fill="#3fb950"/><circle cx="482.4" cy="198.0" r="3" fill="#3fb950"/><circle cx="485.4" cy="198.0" r="3" fill="#3fb950"/><circle cx="488.4" cy="198.0" r="3" fill="#3fb950"/><circle cx="491.4" cy="198.0" r="3" fill="#3fb950"/><circle cx="494.4" cy="198.0" r="3" fill="#3fb950"/><circle cx="497.3" cy="198.0" r="3" fill="#3fb950"/><circle cx="500.3" cy="198.0" r="3" fill="#3fb950"/><circle cx="503.3" cy="198.0" r="3" fill="#3fb950"/><circle cx="506.3" cy="198.0" r="3" fill="#3fb950"/><circle cx="509.2" cy="198.0" r="3" fill="#3fb950"/><circle cx="512.2" cy="198.0" r="3" fill="#3fb950"/><circle cx="515.2" cy="198.0" r="3" fill="#3fb950"/><circle cx="518.2" cy="198.0" r="3" fill="#3fb950"/><circle cx="521.1" cy="198.0" r="3" fill="#3fb950"/><circle cx="524.1" cy="198.0" r="3" fill="#3fb950"/><circle cx="527.1" cy="198.0" r="3" fill="#3fb950"/><circle cx="530.1" cy="198.0" r="3" fill="#3fb950"/><circle cx="533.0" cy="198.0" r="3" fill="#3fb950"/><circle cx="536.0" cy="198.0" r="3" fill="#3fb950"/><circle cx="539.0" cy="198.0" r="3" fill="#3fb950"/><circle cx="542.0" cy="198.0" r="3" fill="#3fb950"/><circle cx="544.9" cy="198.0" r="3" fill="#3fb950"/><circle cx="547.9" cy="198.0" r="3" fill="#3fb950"/><circle cx="550.9" cy="198.0" r="3" fill="#3fb950"/><circle cx="553.9" cy="198.0" r="3" fill="#3fb950"/><circle cx="556.9" cy="198.0" r="3" fill="#3fb950"/><circle cx="559.8" cy="198.0" r="3" fill="#3fb950"/><circle cx="562.8" cy="198.0" r="3" fill="#3fb950"/><circle cx="565.8" cy="198.0" r="3" fill="#3fb950"/><circle cx="568.8" cy="198.0" r="3" fill="#3fb950"/><circle cx="571.7" cy="198.0" r="3" fill="#3fb950"/><circle cx="574.7" cy="198.0" r="3" fill="#3fb950"/><circle cx="577.7" cy="198.0" r="3" fill="#3fb950"/><circle cx="580.7" cy="198.0" r="3" fill="#3fb950"/><circle cx="583.6" cy="198.0" r="3" fill="#3fb950"/><circle cx="586.6" cy="198.0" r="3" fill="#3fb950"/><circle cx="589.6" cy="198.0" r="3" fill="#3fb950"/><circle cx="592.6" cy="198.0" r="3" fill="#3fb950"/><circle cx="595.5" cy="198.0" r="3" fill="#3fb950"/><circle cx="598.5" cy="198.0" r="3" fill="#3fb950"/><circle cx="601.5" cy="198.0" r="3" fill="#3fb950"/><circle cx="604.5" cy="198.0" r="3" fill="#3fb950"/><circle cx="607.5" cy="198.0" r="3" fill="#3fb950"/><circle cx="610.4" cy="198.0" r="3" fill="#3fb950"/><circle cx="613.4" cy="198.0" r="3" fill="#3fb950"/><circle cx="616.4" cy="198.0" r="3" fill="#3fb950"/><circle cx="619.4" cy="198.0" r="3" fill="#3fb950"/><circle cx="622.3" cy="198.0" r="3" fill="#3fb950"/><circle cx="625.3" cy="198.0" r="3" fill="#3fb950"/><circle cx="628.3" cy="198.0" r="3" fill="#3fb950"/><circle cx="631.3" cy="198.0" r="3" fill="#3fb950"/><circle cx="634.2" cy="198.0" r="3" fill="#3fb950"/><circle cx="637.2" cy="198.0" r="3" fill="#3fb950"/><circle cx="640.2" cy="198.0" r="3" fill="#3fb950"/><circle cx="643.2" cy="198.0" r="3" fill="#3fb950"/><circle cx="646.1" cy="198.0" r="3" fill="#3fb950"/><circle cx="649.1" cy="198.0" r="3" fill="#3fb950"/><circle cx="652.1" cy="198.0" r="3" fill="#3fb950"/><circle cx="655.1" cy="198.0" r="3" fill="#3fb950"/><circle cx="658.0" cy="198.0" r="3" fill="#3fb950"/><circle cx="661.0" cy="198.0" r="3" fill="#3fb950"/><circle cx="664.0" cy="198.0" r="3" fill="#3fb950"/>
<polyline fill="none" stroke="#4aa3ff" stroke-width="2.5" stroke-linejoin="round" points="36.0,144.3 39.0,144.3 42.0,144.3 44.9,144.3 47.9,144.3 50.9,144.3 53.9,144.3 56.8,144.3 59.8,144.3 62.8,144.3 65.8,144.3 68.7,144.3 71.7,144.3 74.7,144.3 77.7,144.3 80.6,136.2 83.6,132.4 86.6,129.6 89.6,129.6 92.5,121.0 95.5,121.0 98.5,121.0 101.5,114.4 104.5,114.4 107.4,114.4 110.4,111.3 113.4,110.9 116.4,110.9 119.3,110.5 122.3,110.5 125.3,109.9 128.3,108.7 131.2,107.3 134.2,106.9 137.2,106.9 140.2,106.9 143.1,106.9 146.1,106.9 149.1,106.9 152.1,106.9 155.1,106.9 158.0,106.9 161.0,106.9 164.0,113.2 167.0,113.2 169.9,113.2 172.9,113.2 175.9,113.2 178.9,110.7 181.8,105.3 184.8,83.4 187.8,83.4 190.8,85.6 193.7,85.6 196.7,85.6 199.7,85.6 202.7,85.6 205.6,85.8 208.6,85.8 211.6,85.8 214.6,86.0 217.6,86.0 220.5,86.0 223.5,86.0 226.5,86.0 229.5,86.0 232.4,86.0 235.4,86.0 238.4,86.0 241.4,86.0 244.3,86.0 247.3,86.0 250.3,86.0 253.3,86.0 256.2,86.0 259.2,86.0 262.2,86.0 265.2,86.0 268.2,86.0 271.1,86.0 274.1,86.0 277.1,87.0 280.1,87.0 283.0,87.0 286.0,73.7 289.0,73.7 292.0,71.0 294.9,71.0 297.9,70.8 300.9,70.6 303.9,70.6 306.8,70.4 309.8,68.6 312.8,60.5 315.8,59.3 318.7,52.0 321.7,47.3 324.7,40.1 327.7,36.0 330.7,36.0 333.6,36.0 336.6,36.0 339.6,36.0 342.6,36.0 345.5,36.0 348.5,36.0 351.5,36.0 354.5,36.0 357.4,36.0 360.4,36.0 363.4,36.0 366.4,36.0 369.3,36.0 372.3,36.0 375.3,36.0 378.3,36.0 381.3,36.0 384.2,36.0 387.2,36.0 390.2,36.0 393.2,36.0 396.1,36.0 399.1,36.0 402.1,36.0 405.1,36.0 408.0,36.0 411.0,36.0 414.0,36.0 417.0,36.0 419.9,36.0 422.9,36.0 425.9,36.0 428.9,36.0 431.8,36.0 434.8,36.0 437.8,36.0 440.8,36.0 443.8,36.0 446.7,36.0 449.7,36.0 452.7,36.0 455.7,36.0 458.6,36.0 461.6,36.0 464.6,36.0 467.6,36.0 470.5,36.0 473.5,36.0 476.5,36.0 479.5,36.0 482.4,36.0 485.4,36.0 488.4,36.0 491.4,36.0 494.4,36.0 497.3,36.0 500.3,36.0 503.3,36.0 506.3,36.0 509.2,36.0 512.2,36.0 515.2,36.0 518.2,36.0 521.1,36.0 524.1,36.0 527.1,36.0 530.1,36.0 533.0,36.0 536.0,36.0 539.0,36.0 542.0,36.0 544.9,36.0 547.9,36.0 550.9,36.0 553.9,36.0 556.9,36.0 559.8,36.0 562.8,36.0 565.8,36.0 568.8,36.0 571.7,36.0 574.7,36.0 577.7,36.0 580.7,36.0 583.6,36.0 586.6,36.0 589.6,36.0 592.6,36.0 595.5,36.0 598.5,36.0 601.5,36.0 604.5,36.0 607.5,36.0 610.4,36.0 613.4,36.0 616.4,36.0 619.4,36.0 622.3,36.0 625.3,36.0 628.3,36.0 631.3,36.0 634.2,36.0 637.2,36.0 640.2,36.0 643.2,36.0 646.1,36.0 649.1,36.0 652.1,36.0 655.1,36.0 658.0,36.0 661.0,36.0 664.0,36.0"/><circle cx="36.0" cy="144.3" r="3" fill="#4aa3ff"/><circle cx="39.0" cy="144.3" r="3" fill="#4aa3ff"/><circle cx="42.0" cy="144.3" r="3" fill="#4aa3ff"/><circle cx="44.9" cy="144.3" r="3" fill="#4aa3ff"/><circle cx="47.9" cy="144.3" r="3" fill="#4aa3ff"/><circle cx="50.9" cy="144.3" r="3" fill="#4aa3ff"/><circle cx="53.9" cy="144.3" r="3" fill="#4aa3ff"/><circle cx="56.8" cy="144.3" r="3" fill="#4aa3ff"/><circle cx="59.8" cy="144.3" r="3" fill="#4aa3ff"/><circle cx="62.8" cy="144.3" r="3" fill="#4aa3ff"/><circle cx="65.8" cy="144.3" r="3" fill="#4aa3ff"/><circle cx="68.7" cy="144.3" r="3" fill="#4aa3ff"/><circle cx="71.7" cy="144.3" r="3" fill="#4aa3ff"/><circle cx="74.7" cy="144.3" r="3" fill="#4aa3ff"/><circle cx="77.7" cy="144.3" r="3" fill="#4aa3ff"/><circle cx="80.6" cy="136.2" r="3" fill="#4aa3ff"/><circle cx="83.6" cy="132.4" r="3" fill="#4aa3ff"/><circle cx="86.6" cy="129.6" r="3" fill="#4aa3ff"/><circle cx="89.6" cy="129.6" r="3" fill="#4aa3ff"/><circle cx="92.5" cy="121.0" r="3" fill="#4aa3ff"/><circle cx="95.5" cy="121.0" r="3" fill="#4aa3ff"/><circle cx="98.5" cy="121.0" r="3" fill="#4aa3ff"/><circle cx="101.5" cy="114.4" r="3" fill="#4aa3ff"/><circle cx="104.5" cy="114.4" r="3" fill="#4aa3ff"/><circle cx="107.4" cy="114.4" r="3" fill="#4aa3ff"/><circle cx="110.4" cy="111.3" r="3" fill="#4aa3ff"/><circle cx="113.4" cy="110.9" r="3" fill="#4aa3ff"/><circle cx="116.4" cy="110.9" r="3" fill="#4aa3ff"/><circle cx="119.3" cy="110.5" r="3" fill="#4aa3ff"/><circle cx="122.3" cy="110.5" r="3" fill="#4aa3ff"/><circle cx="125.3" cy="109.9" r="3" fill="#4aa3ff"/><circle cx="128.3" cy="108.7" r="3" fill="#4aa3ff"/><circle cx="131.2" cy="107.3" r="3" fill="#4aa3ff"/><circle cx="134.2" cy="106.9" r="3" fill="#4aa3ff"/><circle cx="137.2" cy="106.9" r="3" fill="#4aa3ff"/><circle cx="140.2" cy="106.9" r="3" fill="#4aa3ff"/><circle cx="143.1" cy="106.9" r="3" fill="#4aa3ff"/><circle cx="146.1" cy="106.9" r="3" fill="#4aa3ff"/><circle cx="149.1" cy="106.9" r="3" fill="#4aa3ff"/><circle cx="152.1" cy="106.9" r="3" fill="#4aa3ff"/><circle cx="155.1" cy="106.9" r="3" fill="#4aa3ff"/><circle cx="158.0" cy="106.9" r="3" fill="#4aa3ff"/><circle cx="161.0" cy="106.9" r="3" fill="#4aa3ff"/><circle cx="164.0" cy="113.2" r="3" fill="#4aa3ff"/><circle cx="167.0" cy="113.2" r="3" fill="#4aa3ff"/><circle cx="169.9" cy="113.2" r="3" fill="#4aa3ff"/><circle cx="172.9" cy="113.2" r="3" fill="#4aa3ff"/><circle cx="175.9" cy="113.2" r="3" fill="#4aa3ff"/><circle cx="178.9" cy="110.7" r="3" fill="#4aa3ff"/><circle cx="181.8" cy="105.3" r="3" fill="#4aa3ff"/><circle cx="184.8" cy="83.4" r="3" fill="#4aa3ff"/><circle cx="187.8" cy="83.4" r="3" fill="#4aa3ff"/><circle cx="190.8" cy="85.6" r="3" fill="#4aa3ff"/><circle cx="193.7" cy="85.6" r="3" fill="#4aa3ff"/><circle cx="196.7" cy="85.6" r="3" fill="#4aa3ff"/><circle cx="199.7" cy="85.6" r="3" fill="#4aa3ff"/><circle cx="202.7" cy="85.6" r="3" fill="#4aa3ff"/><circle cx="205.6" cy="85.8" r="3" fill="#4aa3ff"/><circle cx="208.6" cy="85.8" r="3" fill="#4aa3ff"/><circle cx="211.6" cy="85.8" r="3" fill="#4aa3ff"/><circle cx="214.6" cy="86.0" r="3" fill="#4aa3ff"/><circle cx="217.6" cy="86.0" r="3" fill="#4aa3ff"/><circle cx="220.5" cy="86.0" r="3" fill="#4aa3ff"/><circle cx="223.5" cy="86.0" r="3" fill="#4aa3ff"/><circle cx="226.5" cy="86.0" r="3" fill="#4aa3ff"/><circle cx="229.5" cy="86.0" r="3" fill="#4aa3ff"/><circle cx="232.4" cy="86.0" r="3" fill="#4aa3ff"/><circle cx="235.4" cy="86.0" r="3" fill="#4aa3ff"/><circle cx="238.4" cy="86.0" r="3" fill="#4aa3ff"/><circle cx="241.4" cy="86.0" r="3" fill="#4aa3ff"/><circle cx="244.3" cy="86.0" r="3" fill="#4aa3ff"/><circle cx="247.3" cy="86.0" r="3" fill="#4aa3ff"/><circle cx="250.3" cy="86.0" r="3" fill="#4aa3ff"/><circle cx="253.3" cy="86.0" r="3" fill="#4aa3ff"/><circle cx="256.2" cy="86.0" r="3" fill="#4aa3ff"/><circle cx="259.2" cy="86.0" r="3" fill="#4aa3ff"/><circle cx="262.2" cy="86.0" r="3" fill="#4aa3ff"/><circle cx="265.2" cy="86.0" r="3" fill="#4aa3ff"/><circle cx="268.2" cy="86.0" r="3" fill="#4aa3ff"/><circle cx="271.1" cy="86.0" r="3" fill="#4aa3ff"/><circle cx="274.1" cy="86.0" r="3" fill="#4aa3ff"/><circle cx="277.1" cy="87.0" r="3" fill="#4aa3ff"/><circle cx="280.1" cy="87.0" r="3" fill="#4aa3ff"/><circle cx="283.0" cy="87.0" r="3" fill="#4aa3ff"/><circle cx="286.0" cy="73.7" r="3" fill="#4aa3ff"/><circle cx="289.0" cy="73.7" r="3" fill="#4aa3ff"/><circle cx="292.0" cy="71.0" r="3" fill="#4aa3ff"/><circle cx="294.9" cy="71.0" r="3" fill="#4aa3ff"/><circle cx="297.9" cy="70.8" r="3" fill="#4aa3ff"/><circle cx="300.9" cy="70.6" r="3" fill="#4aa3ff"/><circle cx="303.9" cy="70.6" r="3" fill="#4aa3ff"/><circle cx="306.8" cy="70.4" r="3" fill="#4aa3ff"/><circle cx="309.8" cy="68.6" r="3" fill="#4aa3ff"/><circle cx="312.8" cy="60.5" r="3" fill="#4aa3ff"/><circle cx="315.8" cy="59.3" r="3" fill="#4aa3ff"/><circle cx="318.7" cy="52.0" r="3" fill="#4aa3ff"/><circle cx="321.7" cy="47.3" r="3" fill="#4aa3ff"/><circle cx="324.7" cy="40.1" r="3" fill="#4aa3ff"/><circle cx="327.7" cy="36.0" r="3" fill="#4aa3ff"/><circle cx="330.7" cy="36.0" r="3" fill="#4aa3ff"/><circle cx="333.6" cy="36.0" r="3" fill="#4aa3ff"/><circle cx="336.6" cy="36.0" r="3" fill="#4aa3ff"/><circle cx="339.6" cy="36.0" r="3" fill="#4aa3ff"/><circle cx="342.6" cy="36.0" r="3" fill="#4aa3ff"/><circle cx="345.5" cy="36.0" r="3" fill="#4aa3ff"/><circle cx="348.5" cy="36.0" r="3" fill="#4aa3ff"/><circle cx="351.5" cy="36.0" r="3" fill="#4aa3ff"/><circle cx="354.5" cy="36.0" r="3" fill="#4aa3ff"/><circle cx="357.4" cy="36.0" r="3" fill="#4aa3ff"/><circle cx="360.4" cy="36.0" r="3" fill="#4aa3ff"/><circle cx="363.4" cy="36.0" r="3" fill="#4aa3ff"/><circle cx="366.4" cy="36.0" r="3" fill="#4aa3ff"/><circle cx="369.3" cy="36.0" r="3" fill="#4aa3ff"/><circle cx="372.3" cy="36.0" r="3" fill="#4aa3ff"/><circle cx="375.3" cy="36.0" r="3" fill="#4aa3ff"/><circle cx="378.3" cy="36.0" r="3" fill="#4aa3ff"/><circle cx="381.3" cy="36.0" r="3" fill="#4aa3ff"/><circle cx="384.2" cy="36.0" r="3" fill="#4aa3ff"/><circle cx="387.2" cy="36.0" r="3" fill="#4aa3ff"/><circle cx="390.2" cy="36.0" r="3" fill="#4aa3ff"/><circle cx="393.2" cy="36.0" r="3" fill="#4aa3ff"/><circle cx="396.1" cy="36.0" r="3" fill="#4aa3ff"/><circle cx="399.1" cy="36.0" r="3" fill="#4aa3ff"/><circle cx="402.1" cy="36.0" r="3" fill="#4aa3ff"/><circle cx="405.1" cy="36.0" r="3" fill="#4aa3ff"/><circle cx="408.0" cy="36.0" r="3" fill="#4aa3ff"/><circle cx="411.0" cy="36.0" r="3" fill="#4aa3ff"/><circle cx="414.0" cy="36.0" r="3" fill="#4aa3ff"/><circle cx="417.0" cy="36.0" r="3" fill="#4aa3ff"/><circle cx="419.9" cy="36.0" r="3" fill="#4aa3ff"/><circle cx="422.9" cy="36.0" r="3" fill="#4aa3ff"/><circle cx="425.9" cy="36.0" r="3" fill="#4aa3ff"/><circle cx="428.9" cy="36.0" r="3" fill="#4aa3ff"/><circle cx="431.8" cy="36.0" r="3" fill="#4aa3ff"/><circle cx="434.8" cy="36.0" r="3" fill="#4aa3ff"/><circle cx="437.8" cy="36.0" r="3" fill="#4aa3ff"/><circle cx="440.8" cy="36.0" r="3" fill="#4aa3ff"/><circle cx="443.8" cy="36.0" r="3" fill="#4aa3ff"/><circle cx="446.7" cy="36.0" r="3" fill="#4aa3ff"/><circle cx="449.7" cy="36.0" r="3" fill="#4aa3ff"/><circle cx="452.7" cy="36.0" r="3" fill="#4aa3ff"/><circle cx="455.7" cy="36.0" r="3" fill="#4aa3ff"/><circle cx="458.6" cy="36.0" r="3" fill="#4aa3ff"/><circle cx="461.6" cy="36.0" r="3" fill="#4aa3ff"/><circle cx="464.6" cy="36.0" r="3" fill="#4aa3ff"/><circle cx="467.6" cy="36.0" r="3" fill="#4aa3ff"/><circle cx="470.5" cy="36.0" r="3" fill="#4aa3ff"/><circle cx="473.5" cy="36.0" r="3" fill="#4aa3ff"/><circle cx="476.5" cy="36.0" r="3" fill="#4aa3ff"/><circle cx="479.5" cy="36.0" r="3" fill="#4aa3ff"/><circle cx="482.4" cy="36.0" r="3" fill="#4aa3ff"/><circle cx="485.4" cy="36.0" r="3" fill="#4aa3ff"/><circle cx="488.4" cy="36.0" r="3" fill="#4aa3ff"/><circle cx="491.4" cy="36.0" r="3" fill="#4aa3ff"/><circle cx="494.4" cy="36.0" r="3" fill="#4aa3ff"/><circle cx="497.3" cy="36.0" r="3" fill="#4aa3ff"/><circle cx="500.3" cy="36.0" r="3" fill="#4aa3ff"/><circle cx="503.3" cy="36.0" r="3" fill="#4aa3ff"/><circle cx="506.3" cy="36.0" r="3" fill="#4aa3ff"/><circle cx="509.2" cy="36.0" r="3" fill="#4aa3ff"/><circle cx="512.2" cy="36.0" r="3" fill="#4aa3ff"/><circle cx="515.2" cy="36.0" r="3" fill="#4aa3ff"/><circle cx="518.2" cy="36.0" r="3" fill="#4aa3ff"/><circle cx="521.1" cy="36.0" r="3" fill="#4aa3ff"/><circle cx="524.1" cy="36.0" r="3" fill="#4aa3ff"/><circle cx="527.1" cy="36.0" r="3" fill="#4aa3ff"/><circle cx="530.1" cy="36.0" r="3" fill="#4aa3ff"/><circle cx="533.0" cy="36.0" r="3" fill="#4aa3ff"/><circle cx="536.0" cy="36.0" r="3" fill="#4aa3ff"/><circle cx="539.0" cy="36.0" r="3" fill="#4aa3ff"/><circle cx="542.0" cy="36.0" r="3" fill="#4aa3ff"/><circle cx="544.9" cy="36.0" r="3" fill="#4aa3ff"/><circle cx="547.9" cy="36.0" r="3" fill="#4aa3ff"/><circle cx="550.9" cy="36.0" r="3" fill="#4aa3ff"/><circle cx="553.9" cy="36.0" r="3" fill="#4aa3ff"/><circle cx="556.9" cy="36.0" r="3" fill="#4aa3ff"/><circle cx="559.8" cy="36.0" r="3" fill="#4aa3ff"/><circle cx="562.8" cy="36.0" r="3" fill="#4aa3ff"/><circle cx="565.8" cy="36.0" r="3" fill="#4aa3ff"/><circle cx="568.8" cy="36.0" r="3" fill="#4aa3ff"/><circle cx="571.7" cy="36.0" r="3" fill="#4aa3ff"/><circle cx="574.7" cy="36.0" r="3" fill="#4aa3ff"/><circle cx="577.7" cy="36.0" r="3" fill="#4aa3ff"/><circle cx="580.7" cy="36.0" r="3" fill="#4aa3ff"/><circle cx="583.6" cy="36.0" r="3" fill="#4aa3ff"/><circle cx="586.6" cy="36.0" r="3" fill="#4aa3ff"/><circle cx="589.6" cy="36.0" r="3" fill="#4aa3ff"/><circle cx="592.6" cy="36.0" r="3" fill="#4aa3ff"/><circle cx="595.5" cy="36.0" r="3" fill="#4aa3ff"/><circle cx="598.5" cy="36.0" r="3" fill="#4aa3ff"/><circle cx="601.5" cy="36.0" r="3" fill="#4aa3ff"/><circle cx="604.5" cy="36.0" r="3" fill="#4aa3ff"/><circle cx="607.5" cy="36.0" r="3" fill="#4aa3ff"/><circle cx="610.4" cy="36.0" r="3" fill="#4aa3ff"/><circle cx="613.4" cy="36.0" r="3" fill="#4aa3ff"/><circle cx="616.4" cy="36.0" r="3" fill="#4aa3ff"/><circle cx="619.4" cy="36.0" r="3" fill="#4aa3ff"/><circle cx="622.3" cy="36.0" r="3" fill="#4aa3ff"/><circle cx="625.3" cy="36.0" r="3" fill="#4aa3ff"/><circle cx="628.3" cy="36.0" r="3" fill="#4aa3ff"/><circle cx="631.3" cy="36.0" r="3" fill="#4aa3ff"/><circle cx="634.2" cy="36.0" r="3" fill="#4aa3ff"/><circle cx="637.2" cy="36.0" r="3" fill="#4aa3ff"/><circle cx="640.2" cy="36.0" r="3" fill="#4aa3ff"/><circle cx="643.2" cy="36.0" r="3" fill="#4aa3ff"/><circle cx="646.1" cy="36.0" r="3" fill="#4aa3ff"/><circle cx="649.1" cy="36.0" r="3" fill="#4aa3ff"/><circle cx="652.1" cy="36.0" r="3" fill="#4aa3ff"/><circle cx="655.1" cy="36.0" r="3" fill="#4aa3ff"/><circle cx="658.0" cy="36.0" r="3" fill="#4aa3ff"/><circle cx="661.0" cy="36.0" r="3" fill="#4aa3ff"/><circle cx="664.0" cy="36.0" r="3" fill="#4aa3ff"/>
<text x="36" y="225" fill="#6b7280" font-size="11">2026-06-26</text>
<text x="664" y="225" fill="#6b7280" font-size="11" text-anchor="end">2026-07-18</text>
<text x="36" y="212" font-family="system-ui,sans-serif" font-size="11">
<tspan fill="#4aa3ff">&#9679; open FPs</tspan>  <tspan fill="#3fb950">&#9679; closed (Anthropic acting)</tspan>  <tspan fill="#8a5a5a">&#9679; harness withdrawn</tspan></text>
<text x="664" y="22" text-anchor="end" font-family="system-ui,sans-serif" font-size="12">
<tspan fill="#4aa3ff">open 800</tspan>  <tspan fill="#3fb950">closed 0</tspan>  <tspan fill="#8a5a5a">harness 0</tspan></text>
</svg>