<svg xmlns="http://www.w3.org/2000/svg" width="700" height="234" viewBox="0 0 700 234" role="img">
<rect width="700" height="234" rx="12" fill="#16181d"/>
<text x="36" y="22" fill="#e8eaed" font-family="system-ui,sans-serif" font-size="14" font-weight="700">Is Anthropic acting? cyber/aup false positives over time</text>
<line x1="36" y1="198.0" x2="664" y2="198.0" stroke="#2a2e37" stroke-width="1"/><text x="30" y="202.0" fill="#6b7280" font-size="11" text-anchor="end">0</text><line x1="36" y1="117.0" x2="664" y2="117.0" stroke="#2a2e37" stroke-width="1"/><text x="30" y="121.0" fill="#6b7280" font-size="11" text-anchor="end">225</text><line x1="36" y1="36.0" x2="664" y2="36.0" stroke="#2a2e37" stroke-width="1"/><text x="30" y="40.0" fill="#6b7280" font-size="11" text-anchor="end">450</text>

<polyline fill="none" stroke="#8a5a5a" stroke-width="2.5" stroke-linejoin="round" points="36.0,104.0 52.1,104.0 68.2,104.0 84.3,104.0 100.4,104.0 116.5,104.0 132.6,104.0 148.7,104.0 164.8,104.0 180.9,104.0 197.0,104.0 213.1,104.0 229.2,104.0 245.3,104.0 261.4,104.0 277.5,104.0 293.6,104.0 309.7,104.0 325.8,104.0 341.9,104.0 358.1,104.0 374.2,104.0 390.3,104.0 406.4,104.0 422.5,104.0 438.6,104.0 454.7,104.0 470.8,104.0 486.9,104.0 503.0,104.0 519.1,104.0 535.2,104.0 551.3,104.0 567.4,104.0 583.5,104.0 599.6,104.0 615.7,104.0 631.8,104.0 647.9,104.0 664.0,104.0"/><circle cx="36.0" cy="104.0" r="3" fill="#8a5a5a"/><circle cx="52.1" cy="104.0" r="3" fill="#8a5a5a"/><circle cx="68.2" cy="104.0" r="3" fill="#8a5a5a"/><circle cx="84.3" cy="104.0" r="3" fill="#8a5a5a"/><circle cx="100.4" cy="104.0" r="3" fill="#8a5a5a"/><circle cx="116.5" cy="104.0" r="3" fill="#8a5a5a"/><circle cx="132.6" cy="104.0" r="3" fill="#8a5a5a"/><circle cx="148.7" cy="104.0" r="3" fill="#8a5a5a"/><circle cx="164.8" cy="104.0" r="3" fill="#8a5a5a"/><circle cx="180.9" cy="104.0" r="3" fill="#8a5a5a"/><circle cx="197.0" cy="104.0" r="3" fill="#8a5a5a"/><circle cx="213.1" cy="104.0" r="3" fill="#8a5a5a"/><circle cx="229.2" cy="104.0" r="3" fill="#8a5a5a"/><circle cx="245.3" cy="104.0" r="3" fill="#8a5a5a"/><circle cx="261.4" cy="104.0" r="3" fill="#8a5a5a"/><circle cx="277.5" cy="104.0" r="3" fill="#8a5a5a"/><circle cx="293.6" cy="104.0" r="3" fill="#8a5a5a"/><circle cx="309.7" cy="104.0" r="3" fill="#8a5a5a"/><circle cx="325.8" cy="104.0" r="3" fill="#8a5a5a"/><circle cx="341.9" cy="104.0" r="3" fill="#8a5a5a"/><circle cx="358.1" cy="104.0" r="3" fill="#8a5a5a"/><circle cx="374.2" cy="104.0" r="3" fill="#8a5a5a"/><circle cx="390.3" cy="104.0" r="3" fill="#8a5a5a"/><circle cx="406.4" cy="104.0" r="3" fill="#8a5a5a"/><circle cx="422.5" cy="104.0" r="3" fill="#8a5a5a"/><circle cx="438.6" cy="104.0" r="3" fill="#8a5a5a"/><circle cx="454.7" cy="104.0" r="3" fill="#8a5a5a"/><circle cx="470.8" cy="104.0" r="3" fill="#8a5a5a"/><circle cx="486.9" cy="104.0" r="3" fill="#8a5a5a"/><circle cx="503.0" cy="104.0" r="3" fill="#8a5a5a"/><circle cx="519.1" cy="104.0" r="3" fill="#8a5a5a"/><circle cx="535.2" cy="104.0" r="3" fill="#8a5a5a"/><circle cx="551.3" cy="104.0" r="3" fill="#8a5a5a"/><circle cx="567.4" cy="104.0" r="3" fill="#8a5a5a"/><circle cx="583.5" cy="104.0" r="3" fill="#8a5a5a"/><circle cx="599.6" cy="104.0" r="3" fill="#8a5a5a"/><circle cx="615.7" cy="104.0" r="3" fill="#8a5a5a"/><circle cx="631.8" cy="104.0" r="3" fill="#8a5a5a"/><circle cx="647.9" cy="104.0" r="3" fill="#8a5a5a"/><circle cx="664.0" cy="104.0" r="3" fill="#8a5a5a"/>
<polyline fill="none" stroke="#3fb950" stroke-width="2.5" stroke-linejoin="round" points="36.0,198.0 52.1,198.0 68.2,198.0 84.3,198.0 100.4,198.0 116.5,198.0 132.6,198.0 148.7,198.0 164.8,198.0 180.9,198.0 197.0,198.0 213.1,198.0 229.2,198.0 245.3,198.0 261.4,198.0 277.5,198.0 293.6,198.0 309.7,198.0 325.8,198.0 341.9,198.0 358.1,198.0 374.2,198.0 390.3,198.0 406.4,198.0 422.5,198.0 438.6,198.0 454.7,198.0 470.8,198.0 486.9,198.0 503.0,198.0 519.1,198.0 535.2,198.0 551.3,198.0 567.4,198.0 583.5,198.0 599.6,198.0 615.7,198.0 631.8,198.0 647.9,198.0 664.0,198.0"/><circle cx="36.0" cy="198.0" r="3" fill="#3fb950"/><circle cx="52.1" cy="198.0" r="3" fill="#3fb950"/><circle cx="68.2" cy="198.0" r="3" fill="#3fb950"/><circle cx="84.3" cy="198.0" r="3" fill="#3fb950"/><circle cx="100.4" cy="198.0" r="3" fill="#3fb950"/><circle cx="116.5" cy="198.0" r="3" fill="#3fb950"/><circle cx="132.6" cy="198.0" r="3" fill="#3fb950"/><circle cx="148.7" cy="198.0" r="3" fill="#3fb950"/><circle cx="164.8" cy="198.0" r="3" fill="#3fb950"/><circle cx="180.9" cy="198.0" r="3" fill="#3fb950"/><circle cx="197.0" cy="198.0" r="3" fill="#3fb950"/><circle cx="213.1" cy="198.0" r="3" fill="#3fb950"/><circle cx="229.2" cy="198.0" r="3" fill="#3fb950"/><circle cx="245.3" cy="198.0" r="3" fill="#3fb950"/><circle cx="261.4" cy="198.0" r="3" fill="#3fb950"/><circle cx="277.5" cy="198.0" r="3" fill="#3fb950"/><circle cx="293.6" cy="198.0" r="3" fill="#3fb950"/><circle cx="309.7" cy="198.0" r="3" fill="#3fb950"/><circle cx="325.8" cy="198.0" r="3" fill="#3fb950"/><circle cx="341.9" cy="198.0" r="3" fill="#3fb950"/><circle cx="358.1" cy="198.0" r="3" fill="#3fb950"/><circle cx="374.2" cy="198.0" r="3" fill="#3fb950"/><circle cx="390.3" cy="198.0" r="3" fill="#3fb950"/><circle cx="406.4" cy="198.0" r="3" fill="#3fb950"/><circle cx="422.5" cy="198.0" r="3" fill="#3fb950"/><circle cx="438.6" cy="198.0" r="3" fill="#3fb950"/><circle cx="454.7" cy="198.0" r="3" fill="#3fb950"/><circle cx="470.8" cy="198.0" r="3" fill="#3fb950"/><circle cx="486.9" cy="198.0" r="3" fill="#3fb950"/><circle cx="503.0" cy="198.0" r="3" fill="#3fb950"/><circle cx="519.1" cy="198.0" r="3" fill="#3fb950"/><circle cx="535.2" cy="198.0" r="3" fill="#3fb950"/><circle cx="551.3" cy="198.0" r="3" fill="#3fb950"/><circle cx="567.4" cy="198.0" r="3" fill="#3fb950"/><circle cx="583.5" cy="198.0" r="3" fill="#3fb950"/><circle cx="599.6" cy="198.0" r="3" fill="#3fb950"/><circle cx="615.7" cy="198.0" r="3" fill="#3fb950"/><circle cx="631.8" cy="198.0" r="3" fill="#3fb950"/><circle cx="647.9" cy="198.0" r="3" fill="#3fb950"/><circle cx="664.0" cy="198.0" r="3" fill="#3fb950"/>
<polyline fill="none" stroke="#4aa3ff" stroke-width="2.5" stroke-linejoin="round" points="36.0,102.6 52.1,102.6 68.2,102.6 84.3,102.6 100.4,102.6 116.5,102.6 132.6,102.6 148.7,102.6 164.8,102.6 180.9,102.6 197.0,102.6 213.1,102.6 229.2,102.6 245.3,102.6 261.4,102.6 277.5,88.2 293.6,81.4 309.7,76.3 325.8,76.3 341.9,61.2 358.1,61.2 374.2,61.2 390.3,49.3 406.4,49.3 422.5,49.3 438.6,43.9 454.7,43.2 470.8,43.2 486.9,42.5 503.0,42.5 519.1,41.4 535.2,39.2 551.3,36.7 567.4,36.0 583.5,36.0 599.6,36.0 615.7,36.0 631.8,36.0 647.9,36.0 664.0,36.0"/><circle cx="36.0" cy="102.6" r="3" fill="#4aa3ff"/><circle cx="52.1" cy="102.6" r="3" fill="#4aa3ff"/><circle cx="68.2" cy="102.6" r="3" fill="#4aa3ff"/><circle cx="84.3" cy="102.6" r="3" fill="#4aa3ff"/><circle cx="100.4" cy="102.6" r="3" fill="#4aa3ff"/><circle cx="116.5" cy="102.6" r="3" fill="#4aa3ff"/><circle cx="132.6" cy="102.6" r="3" fill="#4aa3ff"/><circle cx="148.7" cy="102.6" r="3" fill="#4aa3ff"/><circle cx="164.8" cy="102.6" r="3" fill="#4aa3ff"/><circle cx="180.9" cy="102.6" r="3" fill="#4aa3ff"/><circle cx="197.0" cy="102.6" r="3" fill="#4aa3ff"/><circle cx="213.1" cy="102.6" r="3" fill="#4aa3ff"/><circle cx="229.2" cy="102.6" r="3" fill="#4aa3ff"/><circle cx="245.3" cy="102.6" r="3" fill="#4aa3ff"/><circle cx="261.4" cy="102.6" r="3" fill="#4aa3ff"/><circle cx="277.5" cy="88.2" r="3" fill="#4aa3ff"/><circle cx="293.6" cy="81.4" r="3" fill="#4aa3ff"/><circle cx="309.7" cy="76.3" r="3" fill="#4aa3ff"/><circle cx="325.8" cy="76.3" r="3" fill="#4aa3ff"/><circle cx="341.9" cy="61.2" r="3" fill="#4aa3ff"/><circle cx="358.1" cy="61.2" r="3" fill="#4aa3ff"/><circle cx="374.2" cy="61.2" r="3" fill="#4aa3ff"/><circle cx="390.3" cy="49.3" r="3" fill="#4aa3ff"/><circle cx="406.4" cy="49.3" r="3" fill="#4aa3ff"/><circle cx="422.5" cy="49.3" r="3" fill="#4aa3ff"/><circle cx="438.6" cy="43.9" r="3" fill="#4aa3ff"/><circle cx="454.7" cy="43.2" r="3" fill="#4aa3ff"/><circle cx="470.8" cy="43.2" r="3" fill="#4aa3ff"/><circle cx="486.9" cy="42.5" r="3" fill="#4aa3ff"/><circle cx="503.0" cy="42.5" r="3" fill="#4aa3ff"/><circle cx="519.1" cy="41.4" r="3" fill="#4aa3ff"/><circle cx="535.2" cy="39.2" r="3" fill="#4aa3ff"/><circle cx="551.3" cy="36.7" r="3" fill="#4aa3ff"/><circle cx="567.4" cy="36.0" r="3" fill="#4aa3ff"/><circle cx="583.5" cy="36.0" r="3" fill="#4aa3ff"/><circle cx="599.6" cy="36.0" r="3" fill="#4aa3ff"/><circle cx="615.7" cy="36.0" r="3" fill="#4aa3ff"/><circle cx="631.8" cy="36.0" r="3" fill="#4aa3ff"/><circle cx="647.9" cy="36.0" r="3" fill="#4aa3ff"/><circle cx="664.0" cy="36.0" r="3" fill="#4aa3ff"/>
<text x="36" y="225" fill="#6b7280" font-size="11">2026-06-26</text>
<text x="664" y="225" fill="#6b7280" font-size="11" text-anchor="end">2026-06-30</text>
<text x="36" y="212" font-family="system-ui,sans-serif" font-size="11">
<tspan fill="#4aa3ff">&#9679; open FPs</tspan>  <tspan fill="#3fb950">&#9679; closed (Anthropic acting)</tspan>  <tspan fill="#8a5a5a">&#9679; harness withdrawn</tspan></text>
<text x="664" y="22" text-anchor="end" font-family="system-ui,sans-serif" font-size="12">
<tspan fill="#4aa3ff">open 450</tspan>  <tspan fill="#3fb950">closed 0</tspan>  <tspan fill="#8a5a5a">harness 261</tspan></text>
</svg>