<svg xmlns="http://www.w3.org/2000/svg" width="700" height="234" viewBox="0 0 700 234" role="img">
<rect width="700" height="234" rx="12" fill="#16181d"/>
<text x="36" y="22" fill="#e8eaed" font-family="system-ui,sans-serif" font-size="14" font-weight="700">Is Anthropic acting? cyber/aup false positives over time</text>
<line x1="36" y1="198.0" x2="664" y2="198.0" stroke="#2a2e37" stroke-width="1"/><text x="30" y="202.0" fill="#6b7280" font-size="11" text-anchor="end">0</text><line x1="36" y1="117.0" x2="664" y2="117.0" stroke="#2a2e37" stroke-width="1"/><text x="30" y="121.0" fill="#6b7280" font-size="11" text-anchor="end">400</text><line x1="36" y1="36.0" x2="664" y2="36.0" stroke="#2a2e37" stroke-width="1"/><text x="30" y="40.0" fill="#6b7280" font-size="11" text-anchor="end">800</text>

<polyline fill="none" stroke="#8a5a5a" stroke-width="2.5" stroke-linejoin="round" points="36.0,145.1 40.2,145.1 44.3,145.1 48.5,145.1 52.6,145.1 56.8,145.1 61.0,145.1 65.1,145.1 69.3,145.1 73.4,145.1 77.6,145.1 81.7,145.1 85.9,145.1 90.1,145.1 94.2,145.1 98.4,145.1 102.5,145.1 106.7,145.1 110.9,145.1 115.0,145.1 119.2,145.1 123.3,145.1 127.5,145.1 131.7,145.1 135.8,145.1 140.0,145.1 144.1,145.1 148.3,145.1 152.5,145.1 156.6,145.1 160.8,145.1 164.9,145.1 169.1,145.1 173.2,145.1 177.4,145.1 181.6,145.1 185.7,145.1 189.9,145.1 194.0,145.1 198.2,145.1 202.4,145.1 206.5,145.1 210.7,145.1 214.8,145.1 219.0,145.1 223.2,145.1 227.3,145.1 231.5,145.1 235.6,145.1 239.8,145.1 243.9,155.7 248.1,155.7 252.3,155.7 256.4,155.7 260.6,155.7 264.7,155.7 268.9,155.7 273.1,155.7 277.2,155.7 281.4,155.7 285.5,155.7 289.7,155.7 293.9,155.7 298.0,155.7 302.2,155.7 306.3,155.7 310.5,155.7 314.6,155.7 318.8,155.7 323.0,155.7 327.1,155.7 331.3,155.7 335.4,155.7 339.6,155.7 343.8,155.7 347.9,155.7 352.1,155.7 356.2,155.7 360.4,155.7 364.6,155.7 368.7,155.7 372.9,155.7 377.0,155.7 381.2,155.7 385.4,167.6 389.5,167.6 393.7,170.3 397.8,170.3 402.0,170.5 406.1,170.7 410.3,170.7 414.5,170.9 418.6,172.7 422.8,180.6 426.9,181.8 431.1,189.1 435.3,190.5 439.4,195.2 443.6,198.0 447.7,198.0 451.9,198.0 456.1,198.0 460.2,198.0 464.4,198.0 468.5,198.0 472.7,198.0 476.8,198.0 481.0,198.0 485.2,198.0 489.3,198.0 493.5,198.0 497.6,198.0 501.8,198.0 506.0,198.0 510.1,198.0 514.3,198.0 518.4,198.0 522.6,198.0 526.8,198.0 530.9,198.0 535.1,198.0 539.2,198.0 543.4,198.0 547.5,198.0 551.7,198.0 555.9,198.0 560.0,198.0 564.2,198.0 568.3,198.0 572.5,198.0 576.7,198.0 580.8,198.0 585.0,198.0 589.1,198.0 593.3,198.0 597.5,198.0 601.6,198.0 605.8,198.0 609.9,198.0 614.1,198.0 618.3,198.0 622.4,198.0 626.6,198.0 630.7,198.0 634.9,198.0 639.0,198.0 643.2,198.0 647.4,198.0 651.5,198.0 655.7,198.0 659.8,198.0 664.0,198.0"/><circle cx="36.0" cy="145.1" r="3" fill="#8a5a5a"/><circle cx="40.2" cy="145.1" r="3" fill="#8a5a5a"/><circle cx="44.3" cy="145.1" r="3" fill="#8a5a5a"/><circle cx="48.5" cy="145.1" r="3" fill="#8a5a5a"/><circle cx="52.6" cy="145.1" r="3" fill="#8a5a5a"/><circle cx="56.8" cy="145.1" r="3" fill="#8a5a5a"/><circle cx="61.0" cy="145.1" r="3" fill="#8a5a5a"/><circle cx="65.1" cy="145.1" r="3" fill="#8a5a5a"/><circle cx="69.3" cy="145.1" r="3" fill="#8a5a5a"/><circle cx="73.4" cy="145.1" r="3" fill="#8a5a5a"/><circle cx="77.6" cy="145.1" r="3" fill="#8a5a5a"/><circle cx="81.7" cy="145.1" r="3" fill="#8a5a5a"/><circle cx="85.9" cy="145.1" r="3" fill="#8a5a5a"/><circle cx="90.1" cy="145.1" r="3" fill="#8a5a5a"/><circle cx="94.2" cy="145.1" r="3" fill="#8a5a5a"/><circle cx="98.4" cy="145.1" r="3" fill="#8a5a5a"/><circle cx="102.5" cy="145.1" r="3" fill="#8a5a5a"/><circle cx="106.7" cy="145.1" r="3" fill="#8a5a5a"/><circle cx="110.9" cy="145.1" r="3" fill="#8a5a5a"/><circle cx="115.0" cy="145.1" r="3" fill="#8a5a5a"/><circle cx="119.2" cy="145.1" r="3" fill="#8a5a5a"/><circle cx="123.3" cy="145.1" r="3" fill="#8a5a5a"/><circle cx="127.5" cy="145.1" r="3" fill="#8a5a5a"/><circle cx="131.7" cy="145.1" r="3" fill="#8a5a5a"/><circle cx="135.8" cy="145.1" r="3" fill="#8a5a5a"/><circle cx="140.0" cy="145.1" r="3" fill="#8a5a5a"/><circle cx="144.1" cy="145.1" r="3" fill="#8a5a5a"/><circle cx="148.3" cy="145.1" r="3" fill="#8a5a5a"/><circle cx="152.5" cy="145.1" r="3" fill="#8a5a5a"/><circle cx="156.6" cy="145.1" r="3" fill="#8a5a5a"/><circle cx="160.8" cy="145.1" r="3" fill="#8a5a5a"/><circle cx="164.9" cy="145.1" r="3" fill="#8a5a5a"/><circle cx="169.1" cy="145.1" r="3" fill="#8a5a5a"/><circle cx="173.2" cy="145.1" r="3" fill="#8a5a5a"/><circle cx="177.4" cy="145.1" r="3" fill="#8a5a5a"/><circle cx="181.6" cy="145.1" r="3" fill="#8a5a5a"/><circle cx="185.7" cy="145.1" r="3" fill="#8a5a5a"/><circle cx="189.9" cy="145.1" r="3" fill="#8a5a5a"/><circle cx="194.0" cy="145.1" r="3" fill="#8a5a5a"/><circle cx="198.2" cy="145.1" r="3" fill="#8a5a5a"/><circle cx="202.4" cy="145.1" r="3" fill="#8a5a5a"/><circle cx="206.5" cy="145.1" r="3" fill="#8a5a5a"/><circle cx="210.7" cy="145.1" r="3" fill="#8a5a5a"/><circle cx="214.8" cy="145.1" r="3" fill="#8a5a5a"/><circle cx="219.0" cy="145.1" r="3" fill="#8a5a5a"/><circle cx="223.2" cy="145.1" r="3" fill="#8a5a5a"/><circle cx="227.3" cy="145.1" r="3" fill="#8a5a5a"/><circle cx="231.5" cy="145.1" r="3" fill="#8a5a5a"/><circle cx="235.6" cy="145.1" r="3" fill="#8a5a5a"/><circle cx="239.8" cy="145.1" r="3" fill="#8a5a5a"/><circle cx="243.9" cy="155.7" r="3" fill="#8a5a5a"/><circle cx="248.1" cy="155.7" r="3" fill="#8a5a5a"/><circle cx="252.3" cy="155.7" r="3" fill="#8a5a5a"/><circle cx="256.4" cy="155.7" r="3" fill="#8a5a5a"/><circle cx="260.6" cy="155.7" r="3" fill="#8a5a5a"/><circle cx="264.7" cy="155.7" r="3" fill="#8a5a5a"/><circle cx="268.9" cy="155.7" r="3" fill="#8a5a5a"/><circle cx="273.1" cy="155.7" r="3" fill="#8a5a5a"/><circle cx="277.2" cy="155.7" r="3" fill="#8a5a5a"/><circle cx="281.4" cy="155.7" r="3" fill="#8a5a5a"/><circle cx="285.5" cy="155.7" r="3" fill="#8a5a5a"/><circle cx="289.7" cy="155.7" r="3" fill="#8a5a5a"/><circle cx="293.9" cy="155.7" r="3" fill="#8a5a5a"/><circle cx="298.0" cy="155.7" r="3" fill="#8a5a5a"/><circle cx="302.2" cy="155.7" r="3" fill="#8a5a5a"/><circle cx="306.3" cy="155.7" r="3" fill="#8a5a5a"/><circle cx="310.5" cy="155.7" r="3" fill="#8a5a5a"/><circle cx="314.6" cy="155.7" r="3" fill="#8a5a5a"/><circle cx="318.8" cy="155.7" r="3" fill="#8a5a5a"/><circle cx="323.0" cy="155.7" r="3" fill="#8a5a5a"/><circle cx="327.1" cy="155.7" r="3" fill="#8a5a5a"/><circle cx="331.3" cy="155.7" r="3" fill="#8a5a5a"/><circle cx="335.4" cy="155.7" r="3" fill="#8a5a5a"/><circle cx="339.6" cy="155.7" r="3" fill="#8a5a5a"/><circle cx="343.8" cy="155.7" r="3" fill="#8a5a5a"/><circle cx="347.9" cy="155.7" r="3" fill="#8a5a5a"/><circle cx="352.1" cy="155.7" r="3" fill="#8a5a5a"/><circle cx="356.2" cy="155.7" r="3" fill="#8a5a5a"/><circle cx="360.4" cy="155.7" r="3" fill="#8a5a5a"/><circle cx="364.6" cy="155.7" r="3" fill="#8a5a5a"/><circle cx="368.7" cy="155.7" r="3" fill="#8a5a5a"/><circle cx="372.9" cy="155.7" r="3" fill="#8a5a5a"/><circle cx="377.0" cy="155.7" r="3" fill="#8a5a5a"/><circle cx="381.2" cy="155.7" r="3" fill="#8a5a5a"/><circle cx="385.4" cy="167.6" r="3" fill="#8a5a5a"/><circle cx="389.5" cy="167.6" r="3" fill="#8a5a5a"/><circle cx="393.7" cy="170.3" r="3" fill="#8a5a5a"/><circle cx="397.8" cy="170.3" r="3" fill="#8a5a5a"/><circle cx="402.0" cy="170.5" r="3" fill="#8a5a5a"/><circle cx="406.1" cy="170.7" r="3" fill="#8a5a5a"/><circle cx="410.3" cy="170.7" r="3" fill="#8a5a5a"/><circle cx="414.5" cy="170.9" r="3" fill="#8a5a5a"/><circle cx="418.6" cy="172.7" r="3" fill="#8a5a5a"/><circle cx="422.8" cy="180.6" r="3" fill="#8a5a5a"/><circle cx="426.9" cy="181.8" r="3" fill="#8a5a5a"/><circle cx="431.1" cy="189.1" r="3" fill="#8a5a5a"/><circle cx="435.3" cy="190.5" r="3" fill="#8a5a5a"/><circle cx="439.4" cy="195.2" r="3" fill="#8a5a5a"/><circle cx="443.6" cy="198.0" r="3" fill="#8a5a5a"/><circle cx="447.7" cy="198.0" r="3" fill="#8a5a5a"/><circle cx="451.9" cy="198.0" r="3" fill="#8a5a5a"/><circle cx="456.1" cy="198.0" r="3" fill="#8a5a5a"/><circle cx="460.2" cy="198.0" r="3" fill="#8a5a5a"/><circle cx="464.4" cy="198.0" r="3" fill="#8a5a5a"/><circle cx="468.5" cy="198.0" r="3" fill="#8a5a5a"/><circle cx="472.7" cy="198.0" r="3" fill="#8a5a5a"/><circle cx="476.8" cy="198.0" r="3" fill="#8a5a5a"/><circle cx="481.0" cy="198.0" r="3" fill="#8a5a5a"/><circle cx="485.2" cy="198.0" r="3" fill="#8a5a5a"/><circle cx="489.3" cy="198.0" r="3" fill="#8a5a5a"/><circle cx="493.5" cy="198.0" r="3" fill="#8a5a5a"/><circle cx="497.6" cy="198.0" r="3" fill="#8a5a5a"/><circle cx="501.8" cy="198.0" r="3" fill="#8a5a5a"/><circle cx="506.0" cy="198.0" r="3" fill="#8a5a5a"/><circle cx="510.1" cy="198.0" r="3" fill="#8a5a5a"/><circle cx="514.3" cy="198.0" r="3" fill="#8a5a5a"/><circle cx="518.4" cy="198.0" r="3" fill="#8a5a5a"/><circle cx="522.6" cy="198.0" r="3" fill="#8a5a5a"/><circle cx="526.8" cy="198.0" r="3" fill="#8a5a5a"/><circle cx="530.9" cy="198.0" r="3" fill="#8a5a5a"/><circle cx="535.1" cy="198.0" r="3" fill="#8a5a5a"/><circle cx="539.2" cy="198.0" r="3" fill="#8a5a5a"/><circle cx="543.4" cy="198.0" r="3" fill="#8a5a5a"/><circle cx="547.5" cy="198.0" r="3" fill="#8a5a5a"/><circle cx="551.7" cy="198.0" r="3" fill="#8a5a5a"/><circle cx="555.9" cy="198.0" r="3" fill="#8a5a5a"/><circle cx="560.0" cy="198.0" r="3" fill="#8a5a5a"/><circle cx="564.2" cy="198.0" r="3" fill="#8a5a5a"/><circle cx="568.3" cy="198.0" r="3" fill="#8a5a5a"/><circle cx="572.5" cy="198.0" r="3" fill="#8a5a5a"/><circle cx="576.7" cy="198.0" r="3" fill="#8a5a5a"/><circle cx="580.8" cy="198.0" r="3" fill="#8a5a5a"/><circle cx="585.0" cy="198.0" r="3" fill="#8a5a5a"/><circle cx="589.1" cy="198.0" r="3" fill="#8a5a5a"/><circle cx="593.3" cy="198.0" r="3" fill="#8a5a5a"/><circle cx="597.5" cy="198.0" r="3" fill="#8a5a5a"/><circle cx="601.6" cy="198.0" r="3" fill="#8a5a5a"/><circle cx="605.8" cy="198.0" r="3" fill="#8a5a5a"/><circle cx="609.9" cy="198.0" r="3" fill="#8a5a5a"/><circle cx="614.1" cy="198.0" r="3" fill="#8a5a5a"/><circle cx="618.3" cy="198.0" r="3" fill="#8a5a5a"/><circle cx="622.4" cy="198.0" r="3" fill="#8a5a5a"/><circle cx="626.6" cy="198.0" r="3" fill="#8a5a5a"/><circle cx="630.7" cy="198.0" r="3" fill="#8a5a5a"/><circle cx="634.9" cy="198.0" r="3" fill="#8a5a5a"/><circle cx="639.0" cy="198.0" r="3" fill="#8a5a5a"/><circle cx="643.2" cy="198.0" r="3" fill="#8a5a5a"/><circle cx="647.4" cy="198.0" r="3" fill="#8a5a5a"/><circle cx="651.5" cy="198.0" r="3" fill="#8a5a5a"/><circle cx="655.7" cy="198.0" r="3" fill="#8a5a5a"/><circle cx="659.8" cy="198.0" r="3" fill="#8a5a5a"/><circle cx="664.0" cy="198.0" r="3" fill="#8a5a5a"/>
<polyline fill="none" stroke="#3fb950" stroke-width="2.5" stroke-linejoin="round" points="36.0,198.0 40.2,198.0 44.3,198.0 48.5,198.0 52.6,198.0 56.8,198.0 61.0,198.0 65.1,198.0 69.3,198.0 73.4,198.0 77.6,198.0 81.7,198.0 85.9,198.0 90.1,198.0 94.2,198.0 98.4,198.0 102.5,198.0 106.7,198.0 110.9,198.0 115.0,198.0 119.2,198.0 123.3,198.0 127.5,198.0 131.7,198.0 135.8,198.0 140.0,198.0 144.1,198.0 148.3,198.0 152.5,198.0 156.6,198.0 160.8,198.0 164.9,198.0 169.1,198.0 173.2,198.0 177.4,198.0 181.6,198.0 185.7,198.0 189.9,198.0 194.0,198.0 198.2,198.0 202.4,198.0 206.5,198.0 210.7,198.0 214.8,191.7 219.0,191.7 223.2,191.7 227.3,191.7 231.5,191.7 235.6,191.7 239.8,191.7 243.9,192.9 248.1,192.9 252.3,190.7 256.4,190.7 260.6,190.7 264.7,190.7 268.9,190.7 273.1,190.5 277.2,190.5 281.4,190.5 285.5,190.3 289.7,190.3 293.9,190.3 298.0,190.3 302.2,190.3 306.3,190.3 310.5,190.3 314.6,190.3 318.8,190.3 323.0,190.3 327.1,190.3 331.3,190.3 335.4,190.3 339.6,190.3 343.8,190.3 347.9,190.3 352.1,190.3 356.2,190.3 360.4,190.3 364.6,190.3 368.7,190.3 372.9,189.3 377.0,189.3 381.2,189.3 385.4,190.7 389.5,190.7 393.7,190.7 397.8,190.7 402.0,190.7 406.1,190.7 410.3,190.7 414.5,190.7 418.6,190.7 422.8,190.9 426.9,190.9 431.1,190.9 435.3,194.2 439.4,196.8 443.6,198.0 447.7,198.0 451.9,198.0 456.1,198.0 460.2,198.0 464.4,198.0 468.5,198.0 472.7,198.0 476.8,198.0 481.0,198.0 485.2,198.0 489.3,198.0 493.5,198.0 497.6,198.0 501.8,198.0 506.0,198.0 510.1,198.0 514.3,198.0 518.4,198.0 522.6,198.0 526.8,198.0 530.9,198.0 535.1,198.0 539.2,198.0 543.4,198.0 547.5,198.0 551.7,198.0 555.9,198.0 560.0,198.0 564.2,198.0 568.3,198.0 572.5,198.0 576.7,198.0 580.8,198.0 585.0,198.0 589.1,198.0 593.3,198.0 597.5,198.0 601.6,198.0 605.8,198.0 609.9,198.0 614.1,198.0 618.3,198.0 622.4,198.0 626.6,198.0 630.7,198.0 634.9,198.0 639.0,198.0 643.2,198.0 647.4,198.0 651.5,198.0 655.7,198.0 659.8,198.0 664.0,198.0"/><circle cx="36.0" cy="198.0" r="3" fill="#3fb950"/><circle cx="40.2" cy="198.0" r="3" fill="#3fb950"/><circle cx="44.3" cy="198.0" r="3" fill="#3fb950"/><circle cx="48.5" cy="198.0" r="3" fill="#3fb950"/><circle cx="52.6" cy="198.0" r="3" fill="#3fb950"/><circle cx="56.8" cy="198.0" r="3" fill="#3fb950"/><circle cx="61.0" cy="198.0" r="3" fill="#3fb950"/><circle cx="65.1" cy="198.0" r="3" fill="#3fb950"/><circle cx="69.3" cy="198.0" r="3" fill="#3fb950"/><circle cx="73.4" cy="198.0" r="3" fill="#3fb950"/><circle cx="77.6" cy="198.0" r="3" fill="#3fb950"/><circle cx="81.7" cy="198.0" r="3" fill="#3fb950"/><circle cx="85.9" cy="198.0" r="3" fill="#3fb950"/><circle cx="90.1" cy="198.0" r="3" fill="#3fb950"/><circle cx="94.2" cy="198.0" r="3" fill="#3fb950"/><circle cx="98.4" cy="198.0" r="3" fill="#3fb950"/><circle cx="102.5" cy="198.0" r="3" fill="#3fb950"/><circle cx="106.7" cy="198.0" r="3" fill="#3fb950"/><circle cx="110.9" cy="198.0" r="3" fill="#3fb950"/><circle cx="115.0" cy="198.0" r="3" fill="#3fb950"/><circle cx="119.2" cy="198.0" r="3" fill="#3fb950"/><circle cx="123.3" cy="198.0" r="3" fill="#3fb950"/><circle cx="127.5" cy="198.0" r="3" fill="#3fb950"/><circle cx="131.7" cy="198.0" r="3" fill="#3fb950"/><circle cx="135.8" cy="198.0" r="3" fill="#3fb950"/><circle cx="140.0" cy="198.0" r="3" fill="#3fb950"/><circle cx="144.1" cy="198.0" r="3" fill="#3fb950"/><circle cx="148.3" cy="198.0" r="3" fill="#3fb950"/><circle cx="152.5" cy="198.0" r="3" fill="#3fb950"/><circle cx="156.6" cy="198.0" r="3" fill="#3fb950"/><circle cx="160.8" cy="198.0" r="3" fill="#3fb950"/><circle cx="164.9" cy="198.0" r="3" fill="#3fb950"/><circle cx="169.1" cy="198.0" r="3" fill="#3fb950"/><circle cx="173.2" cy="198.0" r="3" fill="#3fb950"/><circle cx="177.4" cy="198.0" r="3" fill="#3fb950"/><circle cx="181.6" cy="198.0" r="3" fill="#3fb950"/><circle cx="185.7" cy="198.0" r="3" fill="#3fb950"/><circle cx="189.9" cy="198.0" r="3" fill="#3fb950"/><circle cx="194.0" cy="198.0" r="3" fill="#3fb950"/><circle cx="198.2" cy="198.0" r="3" fill="#3fb950"/><circle cx="202.4" cy="198.0" r="3" fill="#3fb950"/><circle cx="206.5" cy="198.0" r="3" fill="#3fb950"/><circle cx="210.7" cy="198.0" r="3" fill="#3fb950"/><circle cx="214.8" cy="191.7" r="3" fill="#3fb950"/><circle cx="219.0" cy="191.7" r="3" fill="#3fb950"/><circle cx="223.2" cy="191.7" r="3" fill="#3fb950"/><circle cx="227.3" cy="191.7" r="3" fill="#3fb950"/><circle cx="231.5" cy="191.7" r="3" fill="#3fb950"/><circle cx="235.6" cy="191.7" r="3" fill="#3fb950"/><circle cx="239.8" cy="191.7" r="3" fill="#3fb950"/><circle cx="243.9" cy="192.9" r="3" fill="#3fb950"/><circle cx="248.1" cy="192.9" r="3" fill="#3fb950"/><circle cx="252.3" cy="190.7" r="3" fill="#3fb950"/><circle cx="256.4" cy="190.7" r="3" fill="#3fb950"/><circle cx="260.6" cy="190.7" r="3" fill="#3fb950"/><circle cx="264.7" cy="190.7" r="3" fill="#3fb950"/><circle cx="268.9" cy="190.7" r="3" fill="#3fb950"/><circle cx="273.1" cy="190.5" r="3" fill="#3fb950"/><circle cx="277.2" cy="190.5" r="3" fill="#3fb950"/><circle cx="281.4" cy="190.5" r="3" fill="#3fb950"/><circle cx="285.5" cy="190.3" r="3" fill="#3fb950"/><circle cx="289.7" cy="190.3" r="3" fill="#3fb950"/><circle cx="293.9" cy="190.3" r="3" fill="#3fb950"/><circle cx="298.0" cy="190.3" r="3" fill="#3fb950"/><circle cx="302.2" cy="190.3" r="3" fill="#3fb950"/><circle cx="306.3" cy="190.3" r="3" fill="#3fb950"/><circle cx="310.5" cy="190.3" r="3" fill="#3fb950"/><circle cx="314.6" cy="190.3" r="3" fill="#3fb950"/><circle cx="318.8" cy="190.3" r="3" fill="#3fb950"/><circle cx="323.0" cy="190.3" r="3" fill="#3fb950"/><circle cx="327.1" cy="190.3" r="3" fill="#3fb950"/><circle cx="331.3" cy="190.3" r="3" fill="#3fb950"/><circle cx="335.4" cy="190.3" r="3" fill="#3fb950"/><circle cx="339.6" cy="190.3" r="3" fill="#3fb950"/><circle cx="343.8" cy="190.3" r="3" fill="#3fb950"/><circle cx="347.9" cy="190.3" r="3" fill="#3fb950"/><circle cx="352.1" cy="190.3" r="3" fill="#3fb950"/><circle cx="356.2" cy="190.3" r="3" fill="#3fb950"/><circle cx="360.4" cy="190.3" r="3" fill="#3fb950"/><circle cx="364.6" cy="190.3" r="3" fill="#3fb950"/><circle cx="368.7" cy="190.3" r="3" fill="#3fb950"/><circle cx="372.9" cy="189.3" r="3" fill="#3fb950"/><circle cx="377.0" cy="189.3" r="3" fill="#3fb950"/><circle cx="381.2" cy="189.3" r="3" fill="#3fb950"/><circle cx="385.4" cy="190.7" r="3" fill="#3fb950"/><circle cx="389.5" cy="190.7" r="3" fill="#3fb950"/><circle cx="393.7" cy="190.7" r="3" fill="#3fb950"/><circle cx="397.8" cy="190.7" r="3" fill="#3fb950"/><circle cx="402.0" cy="190.7" r="3" fill="#3fb950"/><circle cx="406.1" cy="190.7" r="3" fill="#3fb950"/><circle cx="410.3" cy="190.7" r="3" fill="#3fb950"/><circle cx="414.5" cy="190.7" r="3" fill="#3fb950"/><circle cx="418.6" cy="190.7" r="3" fill="#3fb950"/><circle cx="422.8" cy="190.9" r="3" fill="#3fb950"/><circle cx="426.9" cy="190.9" r="3" fill="#3fb950"/><circle cx="431.1" cy="190.9" r="3" fill="#3fb950"/><circle cx="435.3" cy="194.2" r="3" fill="#3fb950"/><circle cx="439.4" cy="196.8" r="3" fill="#3fb950"/><circle cx="443.6" cy="198.0" r="3" fill="#3fb950"/><circle cx="447.7" cy="198.0" r="3" fill="#3fb950"/><circle cx="451.9" cy="198.0" r="3" fill="#3fb950"/><circle cx="456.1" cy="198.0" r="3" fill="#3fb950"/><circle cx="460.2" cy="198.0" r="3" fill="#3fb950"/><circle cx="464.4" cy="198.0" r="3" fill="#3fb950"/><circle cx="468.5" cy="198.0" r="3" fill="#3fb950"/><circle cx="472.7" cy="198.0" r="3" fill="#3fb950"/><circle cx="476.8" cy="198.0" r="3" fill="#3fb950"/><circle cx="481.0" cy="198.0" r="3" fill="#3fb950"/><circle cx="485.2" cy="198.0" r="3" fill="#3fb950"/><circle cx="489.3" cy="198.0" r="3" fill="#3fb950"/><circle cx="493.5" cy="198.0" r="3" fill="#3fb950"/><circle cx="497.6" cy="198.0" r="3" fill="#3fb950"/><circle cx="501.8" cy="198.0" r="3" fill="#3fb950"/><circle cx="506.0" cy="198.0" r="3" fill="#3fb950"/><circle cx="510.1" cy="198.0" r="3" fill="#3fb950"/><circle cx="514.3" cy="198.0" r="3" fill="#3fb950"/><circle cx="518.4" cy="198.0" r="3" fill="#3fb950"/><circle cx="522.6" cy="198.0" r="3" fill="#3fb950"/><circle cx="526.8" cy="198.0" r="3" fill="#3fb950"/><circle cx="530.9" cy="198.0" r="3" fill="#3fb950"/><circle cx="535.1" cy="198.0" r="3" fill="#3fb950"/><circle cx="539.2" cy="198.0" r="3" fill="#3fb950"/><circle cx="543.4" cy="198.0" r="3" fill="#3fb950"/><circle cx="547.5" cy="198.0" r="3" fill="#3fb950"/><circle cx="551.7" cy="198.0" r="3" fill="#3fb950"/><circle cx="555.9" cy="198.0" r="3" fill="#3fb950"/><circle cx="560.0" cy="198.0" r="3" fill="#3fb950"/><circle cx="564.2" cy="198.0" r="3" fill="#3fb950"/><circle cx="568.3" cy="198.0" r="3" fill="#3fb950"/><circle cx="572.5" cy="198.0" r="3" fill="#3fb950"/><circle cx="576.7" cy="198.0" r="3" fill="#3fb950"/><circle cx="580.8" cy="198.0" r="3" fill="#3fb950"/><circle cx="585.0" cy="198.0" r="3" fill="#3fb950"/><circle cx="589.1" cy="198.0" r="3" fill="#3fb950"/><circle cx="593.3" cy="198.0" r="3" fill="#3fb950"/><circle cx="597.5" cy="198.0" r="3" fill="#3fb950"/><circle cx="601.6" cy="198.0" r="3" fill="#3fb950"/><circle cx="605.8" cy="198.0" r="3" fill="#3fb950"/><circle cx="609.9" cy="198.0" r="3" fill="#3fb950"/><circle cx="614.1" cy="198.0" r="3" fill="#3fb950"/><circle cx="618.3" cy="198.0" r="3" fill="#3fb950"/><circle cx="622.4" cy="198.0" r="3" fill="#3fb950"/><circle cx="626.6" cy="198.0" r="3" fill="#3fb950"/><circle cx="630.7" cy="198.0" r="3" fill="#3fb950"/><circle cx="634.9" cy="198.0" r="3" fill="#3fb950"/><circle cx="639.0" cy="198.0" r="3" fill="#3fb950"/><circle cx="643.2" cy="198.0" r="3" fill="#3fb950"/><circle cx="647.4" cy="198.0" r="3" fill="#3fb950"/><circle cx="651.5" cy="198.0" r="3" fill="#3fb950"/><circle cx="655.7" cy="198.0" r="3" fill="#3fb950"/><circle cx="659.8" cy="198.0" r="3" fill="#3fb950"/><circle cx="664.0" cy="198.0" r="3" fill="#3fb950"/>
<polyline fill="none" stroke="#4aa3ff" stroke-width="2.5" stroke-linejoin="round" points="36.0,144.3 40.2,144.3 44.3,144.3 48.5,144.3 52.6,144.3 56.8,144.3 61.0,144.3 65.1,144.3 69.3,144.3 73.4,144.3 77.6,144.3 81.7,144.3 85.9,144.3 90.1,144.3 94.2,144.3 98.4,136.2 102.5,132.4 106.7,129.6 110.9,129.6 115.0,121.0 119.2,121.0 123.3,121.0 127.5,114.4 131.7,114.4 135.8,114.4 140.0,111.3 144.1,110.9 148.3,110.9 152.5,110.5 156.6,110.5 160.8,109.9 164.9,108.7 169.1,107.3 173.2,106.9 177.4,106.9 181.6,106.9 185.7,106.9 189.9,106.9 194.0,106.9 198.2,106.9 202.4,106.9 206.5,106.9 210.7,106.9 214.8,113.2 219.0,113.2 223.2,113.2 227.3,113.2 231.5,113.2 235.6,110.7 239.8,105.3 243.9,83.4 248.1,83.4 252.3,85.6 256.4,85.6 260.6,85.6 264.7,85.6 268.9,85.6 273.1,85.8 277.2,85.8 281.4,85.8 285.5,86.0 289.7,86.0 293.9,86.0 298.0,86.0 302.2,86.0 306.3,86.0 310.5,86.0 314.6,86.0 318.8,86.0 323.0,86.0 327.1,86.0 331.3,86.0 335.4,86.0 339.6,86.0 343.8,86.0 347.9,86.0 352.1,86.0 356.2,86.0 360.4,86.0 364.6,86.0 368.7,86.0 372.9,87.0 377.0,87.0 381.2,87.0 385.4,73.7 389.5,73.7 393.7,71.0 397.8,71.0 402.0,70.8 406.1,70.6 410.3,70.6 414.5,70.4 418.6,68.6 422.8,60.5 426.9,59.3 431.1,52.0 435.3,47.3 439.4,40.1 443.6,36.0 447.7,36.0 451.9,36.0 456.1,36.0 460.2,36.0 464.4,36.0 468.5,36.0 472.7,36.0 476.8,36.0 481.0,36.0 485.2,36.0 489.3,36.0 493.5,36.0 497.6,36.0 501.8,36.0 506.0,36.0 510.1,36.0 514.3,36.0 518.4,36.0 522.6,36.0 526.8,36.0 530.9,36.0 535.1,36.0 539.2,36.0 543.4,36.0 547.5,36.0 551.7,36.0 555.9,36.0 560.0,36.0 564.2,36.0 568.3,36.0 572.5,36.0 576.7,36.0 580.8,36.0 585.0,36.0 589.1,36.0 593.3,36.0 597.5,36.0 601.6,36.0 605.8,36.0 609.9,36.0 614.1,36.0 618.3,36.0 622.4,36.0 626.6,36.0 630.7,36.0 634.9,36.0 639.0,36.0 643.2,36.0 647.4,36.0 651.5,36.0 655.7,36.0 659.8,36.0 664.0,36.0"/><circle cx="36.0" cy="144.3" r="3" fill="#4aa3ff"/><circle cx="40.2" cy="144.3" r="3" fill="#4aa3ff"/><circle cx="44.3" cy="144.3" r="3" fill="#4aa3ff"/><circle cx="48.5" cy="144.3" r="3" fill="#4aa3ff"/><circle cx="52.6" cy="144.3" r="3" fill="#4aa3ff"/><circle cx="56.8" cy="144.3" r="3" fill="#4aa3ff"/><circle cx="61.0" cy="144.3" r="3" fill="#4aa3ff"/><circle cx="65.1" cy="144.3" r="3" fill="#4aa3ff"/><circle cx="69.3" cy="144.3" r="3" fill="#4aa3ff"/><circle cx="73.4" cy="144.3" r="3" fill="#4aa3ff"/><circle cx="77.6" cy="144.3" r="3" fill="#4aa3ff"/><circle cx="81.7" cy="144.3" r="3" fill="#4aa3ff"/><circle cx="85.9" cy="144.3" r="3" fill="#4aa3ff"/><circle cx="90.1" cy="144.3" r="3" fill="#4aa3ff"/><circle cx="94.2" cy="144.3" r="3" fill="#4aa3ff"/><circle cx="98.4" cy="136.2" r="3" fill="#4aa3ff"/><circle cx="102.5" cy="132.4" r="3" fill="#4aa3ff"/><circle cx="106.7" cy="129.6" r="3" fill="#4aa3ff"/><circle cx="110.9" cy="129.6" r="3" fill="#4aa3ff"/><circle cx="115.0" cy="121.0" r="3" fill="#4aa3ff"/><circle cx="119.2" cy="121.0" r="3" fill="#4aa3ff"/><circle cx="123.3" cy="121.0" r="3" fill="#4aa3ff"/><circle cx="127.5" cy="114.4" r="3" fill="#4aa3ff"/><circle cx="131.7" cy="114.4" r="3" fill="#4aa3ff"/><circle cx="135.8" cy="114.4" r="3" fill="#4aa3ff"/><circle cx="140.0" cy="111.3" r="3" fill="#4aa3ff"/><circle cx="144.1" cy="110.9" r="3" fill="#4aa3ff"/><circle cx="148.3" cy="110.9" r="3" fill="#4aa3ff"/><circle cx="152.5" cy="110.5" r="3" fill="#4aa3ff"/><circle cx="156.6" cy="110.5" r="3" fill="#4aa3ff"/><circle cx="160.8" cy="109.9" r="3" fill="#4aa3ff"/><circle cx="164.9" cy="108.7" r="3" fill="#4aa3ff"/><circle cx="169.1" cy="107.3" r="3" fill="#4aa3ff"/><circle cx="173.2" cy="106.9" r="3" fill="#4aa3ff"/><circle cx="177.4" cy="106.9" r="3" fill="#4aa3ff"/><circle cx="181.6" cy="106.9" r="3" fill="#4aa3ff"/><circle cx="185.7" cy="106.9" r="3" fill="#4aa3ff"/><circle cx="189.9" cy="106.9" r="3" fill="#4aa3ff"/><circle cx="194.0" cy="106.9" r="3" fill="#4aa3ff"/><circle cx="198.2" cy="106.9" r="3" fill="#4aa3ff"/><circle cx="202.4" cy="106.9" r="3" fill="#4aa3ff"/><circle cx="206.5" cy="106.9" r="3" fill="#4aa3ff"/><circle cx="210.7" cy="106.9" r="3" fill="#4aa3ff"/><circle cx="214.8" cy="113.2" r="3" fill="#4aa3ff"/><circle cx="219.0" cy="113.2" r="3" fill="#4aa3ff"/><circle cx="223.2" cy="113.2" r="3" fill="#4aa3ff"/><circle cx="227.3" cy="113.2" r="3" fill="#4aa3ff"/><circle cx="231.5" cy="113.2" r="3" fill="#4aa3ff"/><circle cx="235.6" cy="110.7" r="3" fill="#4aa3ff"/><circle cx="239.8" cy="105.3" r="3" fill="#4aa3ff"/><circle cx="243.9" cy="83.4" r="3" fill="#4aa3ff"/><circle cx="248.1" cy="83.4" r="3" fill="#4aa3ff"/><circle cx="252.3" cy="85.6" r="3" fill="#4aa3ff"/><circle cx="256.4" cy="85.6" r="3" fill="#4aa3ff"/><circle cx="260.6" cy="85.6" r="3" fill="#4aa3ff"/><circle cx="264.7" cy="85.6" r="3" fill="#4aa3ff"/><circle cx="268.9" cy="85.6" r="3" fill="#4aa3ff"/><circle cx="273.1" cy="85.8" r="3" fill="#4aa3ff"/><circle cx="277.2" cy="85.8" r="3" fill="#4aa3ff"/><circle cx="281.4" cy="85.8" r="3" fill="#4aa3ff"/><circle cx="285.5" cy="86.0" r="3" fill="#4aa3ff"/><circle cx="289.7" cy="86.0" r="3" fill="#4aa3ff"/><circle cx="293.9" cy="86.0" r="3" fill="#4aa3ff"/><circle cx="298.0" cy="86.0" r="3" fill="#4aa3ff"/><circle cx="302.2" cy="86.0" r="3" fill="#4aa3ff"/><circle cx="306.3" cy="86.0" r="3" fill="#4aa3ff"/><circle cx="310.5" cy="86.0" r="3" fill="#4aa3ff"/><circle cx="314.6" cy="86.0" r="3" fill="#4aa3ff"/><circle cx="318.8" cy="86.0" r="3" fill="#4aa3ff"/><circle cx="323.0" cy="86.0" r="3" fill="#4aa3ff"/><circle cx="327.1" cy="86.0" r="3" fill="#4aa3ff"/><circle cx="331.3" cy="86.0" r="3" fill="#4aa3ff"/><circle cx="335.4" cy="86.0" r="3" fill="#4aa3ff"/><circle cx="339.6" cy="86.0" r="3" fill="#4aa3ff"/><circle cx="343.8" cy="86.0" r="3" fill="#4aa3ff"/><circle cx="347.9" cy="86.0" r="3" fill="#4aa3ff"/><circle cx="352.1" cy="86.0" r="3" fill="#4aa3ff"/><circle cx="356.2" cy="86.0" r="3" fill="#4aa3ff"/><circle cx="360.4" cy="86.0" r="3" fill="#4aa3ff"/><circle cx="364.6" cy="86.0" r="3" fill="#4aa3ff"/><circle cx="368.7" cy="86.0" r="3" fill="#4aa3ff"/><circle cx="372.9" cy="87.0" r="3" fill="#4aa3ff"/><circle cx="377.0" cy="87.0" r="3" fill="#4aa3ff"/><circle cx="381.2" cy="87.0" r="3" fill="#4aa3ff"/><circle cx="385.4" cy="73.7" r="3" fill="#4aa3ff"/><circle cx="389.5" cy="73.7" r="3" fill="#4aa3ff"/><circle cx="393.7" cy="71.0" r="3" fill="#4aa3ff"/><circle cx="397.8" cy="71.0" r="3" fill="#4aa3ff"/><circle cx="402.0" cy="70.8" r="3" fill="#4aa3ff"/><circle cx="406.1" cy="70.6" r="3" fill="#4aa3ff"/><circle cx="410.3" cy="70.6" r="3" fill="#4aa3ff"/><circle cx="414.5" cy="70.4" r="3" fill="#4aa3ff"/><circle cx="418.6" cy="68.6" r="3" fill="#4aa3ff"/><circle cx="422.8" cy="60.5" r="3" fill="#4aa3ff"/><circle cx="426.9" cy="59.3" r="3" fill="#4aa3ff"/><circle cx="431.1" cy="52.0" r="3" fill="#4aa3ff"/><circle cx="435.3" cy="47.3" r="3" fill="#4aa3ff"/><circle cx="439.4" cy="40.1" r="3" fill="#4aa3ff"/><circle cx="443.6" cy="36.0" r="3" fill="#4aa3ff"/><circle cx="447.7" cy="36.0" r="3" fill="#4aa3ff"/><circle cx="451.9" cy="36.0" r="3" fill="#4aa3ff"/><circle cx="456.1" cy="36.0" r="3" fill="#4aa3ff"/><circle cx="460.2" cy="36.0" r="3" fill="#4aa3ff"/><circle cx="464.4" cy="36.0" r="3" fill="#4aa3ff"/><circle cx="468.5" cy="36.0" r="3" fill="#4aa3ff"/><circle cx="472.7" cy="36.0" r="3" fill="#4aa3ff"/><circle cx="476.8" cy="36.0" r="3" fill="#4aa3ff"/><circle cx="481.0" cy="36.0" r="3" fill="#4aa3ff"/><circle cx="485.2" cy="36.0" r="3" fill="#4aa3ff"/><circle cx="489.3" cy="36.0" r="3" fill="#4aa3ff"/><circle cx="493.5" cy="36.0" r="3" fill="#4aa3ff"/><circle cx="497.6" cy="36.0" r="3" fill="#4aa3ff"/><circle cx="501.8" cy="36.0" r="3" fill="#4aa3ff"/><circle cx="506.0" cy="36.0" r="3" fill="#4aa3ff"/><circle cx="510.1" cy="36.0" r="3" fill="#4aa3ff"/><circle cx="514.3" cy="36.0" r="3" fill="#4aa3ff"/><circle cx="518.4" cy="36.0" r="3" fill="#4aa3ff"/><circle cx="522.6" cy="36.0" r="3" fill="#4aa3ff"/><circle cx="526.8" cy="36.0" r="3" fill="#4aa3ff"/><circle cx="530.9" cy="36.0" r="3" fill="#4aa3ff"/><circle cx="535.1" cy="36.0" r="3" fill="#4aa3ff"/><circle cx="539.2" cy="36.0" r="3" fill="#4aa3ff"/><circle cx="543.4" cy="36.0" r="3" fill="#4aa3ff"/><circle cx="547.5" cy="36.0" r="3" fill="#4aa3ff"/><circle cx="551.7" cy="36.0" r="3" fill="#4aa3ff"/><circle cx="555.9" cy="36.0" r="3" fill="#4aa3ff"/><circle cx="560.0" cy="36.0" r="3" fill="#4aa3ff"/><circle cx="564.2" cy="36.0" r="3" fill="#4aa3ff"/><circle cx="568.3" cy="36.0" r="3" fill="#4aa3ff"/><circle cx="572.5" cy="36.0" r="3" fill="#4aa3ff"/><circle cx="576.7" cy="36.0" r="3" fill="#4aa3ff"/><circle cx="580.8" cy="36.0" r="3" fill="#4aa3ff"/><circle cx="585.0" cy="36.0" r="3" fill="#4aa3ff"/><circle cx="589.1" cy="36.0" r="3" fill="#4aa3ff"/><circle cx="593.3" cy="36.0" r="3" fill="#4aa3ff"/><circle cx="597.5" cy="36.0" r="3" fill="#4aa3ff"/><circle cx="601.6" cy="36.0" r="3" fill="#4aa3ff"/><circle cx="605.8" cy="36.0" r="3" fill="#4aa3ff"/><circle cx="609.9" cy="36.0" r="3" fill="#4aa3ff"/><circle cx="614.1" cy="36.0" r="3" fill="#4aa3ff"/><circle cx="618.3" cy="36.0" r="3" fill="#4aa3ff"/><circle cx="622.4" cy="36.0" r="3" fill="#4aa3ff"/><circle cx="626.6" cy="36.0" r="3" fill="#4aa3ff"/><circle cx="630.7" cy="36.0" r="3" fill="#4aa3ff"/><circle cx="634.9" cy="36.0" r="3" fill="#4aa3ff"/><circle cx="639.0" cy="36.0" r="3" fill="#4aa3ff"/><circle cx="643.2" cy="36.0" r="3" fill="#4aa3ff"/><circle cx="647.4" cy="36.0" r="3" fill="#4aa3ff"/><circle cx="651.5" cy="36.0" r="3" fill="#4aa3ff"/><circle cx="655.7" cy="36.0" r="3" fill="#4aa3ff"/><circle cx="659.8" cy="36.0" r="3" fill="#4aa3ff"/><circle cx="664.0" cy="36.0" r="3" fill="#4aa3ff"/>
<text x="36" y="225" fill="#6b7280" font-size="11">2026-06-26</text>
<text x="664" y="225" fill="#6b7280" font-size="11" text-anchor="end">2026-07-12</text>
<text x="36" y="212" font-family="system-ui,sans-serif" font-size="11">
<tspan fill="#4aa3ff">&#9679; open FPs</tspan>  <tspan fill="#3fb950">&#9679; closed (Anthropic acting)</tspan>  <tspan fill="#8a5a5a">&#9679; harness withdrawn</tspan></text>
<text x="664" y="22" text-anchor="end" font-family="system-ui,sans-serif" font-size="12">
<tspan fill="#4aa3ff">open 800</tspan>  <tspan fill="#3fb950">closed 0</tspan>  <tspan fill="#8a5a5a">harness 0</tspan></text>
</svg>