<svg xmlns="http://www.w3.org/2000/svg" width="700" height="234" viewBox="0 0 700 234" role="img">
<rect width="700" height="234" rx="12" fill="#16181d"/>
<text x="36" y="22" fill="#e8eaed" font-family="system-ui,sans-serif" font-size="14" font-weight="700">Is Anthropic acting? cyber/aup false positives over time</text>
<line x1="36" y1="198.0" x2="664" y2="198.0" stroke="#2a2e37" stroke-width="1"/><text x="30" y="202.0" fill="#6b7280" font-size="11" text-anchor="end">0</text><line x1="36" y1="117.0" x2="664" y2="117.0" stroke="#2a2e37" stroke-width="1"/><text x="30" y="121.0" fill="#6b7280" font-size="11" text-anchor="end">225</text><line x1="36" y1="36.0" x2="664" y2="36.0" stroke="#2a2e37" stroke-width="1"/><text x="30" y="40.0" fill="#6b7280" font-size="11" text-anchor="end">450</text>

<polyline fill="none" stroke="#8a5a5a" stroke-width="2.5" stroke-linejoin="round" points="36.0,104.0 50.3,104.0 64.5,104.0 78.8,104.0 93.1,104.0 107.4,104.0 121.6,104.0 135.9,104.0 150.2,104.0 164.5,104.0 178.7,104.0 193.0,104.0 207.3,104.0 221.5,104.0 235.8,104.0 250.1,104.0 264.4,104.0 278.6,104.0 292.9,104.0 307.2,104.0 321.5,104.0 335.7,104.0 350.0,104.0 364.3,104.0 378.5,104.0 392.8,104.0 407.1,104.0 421.4,104.0 435.6,104.0 449.9,104.0 464.2,104.0 478.5,104.0 492.7,104.0 507.0,104.0 521.3,104.0 535.5,104.0 549.8,104.0 564.1,104.0 578.4,104.0 592.6,104.0 606.9,104.0 621.2,104.0 635.5,104.0 649.7,104.0 664.0,104.0"/><circle cx="36.0" cy="104.0" r="3" fill="#8a5a5a"/><circle cx="50.3" cy="104.0" r="3" fill="#8a5a5a"/><circle cx="64.5" cy="104.0" r="3" fill="#8a5a5a"/><circle cx="78.8" cy="104.0" r="3" fill="#8a5a5a"/><circle cx="93.1" cy="104.0" r="3" fill="#8a5a5a"/><circle cx="107.4" cy="104.0" r="3" fill="#8a5a5a"/><circle cx="121.6" cy="104.0" r="3" fill="#8a5a5a"/><circle cx="135.9" cy="104.0" r="3" fill="#8a5a5a"/><circle cx="150.2" cy="104.0" r="3" fill="#8a5a5a"/><circle cx="164.5" cy="104.0" r="3" fill="#8a5a5a"/><circle cx="178.7" cy="104.0" r="3" fill="#8a5a5a"/><circle cx="193.0" cy="104.0" r="3" fill="#8a5a5a"/><circle cx="207.3" cy="104.0" r="3" fill="#8a5a5a"/><circle cx="221.5" cy="104.0" r="3" fill="#8a5a5a"/><circle cx="235.8" cy="104.0" r="3" fill="#8a5a5a"/><circle cx="250.1" cy="104.0" r="3" fill="#8a5a5a"/><circle cx="264.4" cy="104.0" r="3" fill="#8a5a5a"/><circle cx="278.6" cy="104.0" r="3" fill="#8a5a5a"/><circle cx="292.9" cy="104.0" r="3" fill="#8a5a5a"/><circle cx="307.2" cy="104.0" r="3" fill="#8a5a5a"/><circle cx="321.5" cy="104.0" r="3" fill="#8a5a5a"/><circle cx="335.7" cy="104.0" r="3" fill="#8a5a5a"/><circle cx="350.0" cy="104.0" r="3" fill="#8a5a5a"/><circle cx="364.3" cy="104.0" r="3" fill="#8a5a5a"/><circle cx="378.5" cy="104.0" r="3" fill="#8a5a5a"/><circle cx="392.8" cy="104.0" r="3" fill="#8a5a5a"/><circle cx="407.1" cy="104.0" r="3" fill="#8a5a5a"/><circle cx="421.4" cy="104.0" r="3" fill="#8a5a5a"/><circle cx="435.6" cy="104.0" r="3" fill="#8a5a5a"/><circle cx="449.9" cy="104.0" r="3" fill="#8a5a5a"/><circle cx="464.2" cy="104.0" r="3" fill="#8a5a5a"/><circle cx="478.5" cy="104.0" r="3" fill="#8a5a5a"/><circle cx="492.7" cy="104.0" r="3" fill="#8a5a5a"/><circle cx="507.0" cy="104.0" r="3" fill="#8a5a5a"/><circle cx="521.3" cy="104.0" r="3" fill="#8a5a5a"/><circle cx="535.5" cy="104.0" r="3" fill="#8a5a5a"/><circle cx="549.8" cy="104.0" r="3" fill="#8a5a5a"/><circle cx="564.1" cy="104.0" r="3" fill="#8a5a5a"/><circle cx="578.4" cy="104.0" r="3" fill="#8a5a5a"/><circle cx="592.6" cy="104.0" r="3" fill="#8a5a5a"/><circle cx="606.9" cy="104.0" r="3" fill="#8a5a5a"/><circle cx="621.2" cy="104.0" r="3" fill="#8a5a5a"/><circle cx="635.5" cy="104.0" r="3" fill="#8a5a5a"/><circle cx="649.7" cy="104.0" r="3" fill="#8a5a5a"/><circle cx="664.0" cy="104.0" r="3" fill="#8a5a5a"/>
<polyline fill="none" stroke="#3fb950" stroke-width="2.5" stroke-linejoin="round" points="36.0,198.0 50.3,198.0 64.5,198.0 78.8,198.0 93.1,198.0 107.4,198.0 121.6,198.0 135.9,198.0 150.2,198.0 164.5,198.0 178.7,198.0 193.0,198.0 207.3,198.0 221.5,198.0 235.8,198.0 250.1,198.0 264.4,198.0 278.6,198.0 292.9,198.0 307.2,198.0 321.5,198.0 335.7,198.0 350.0,198.0 364.3,198.0 378.5,198.0 392.8,198.0 407.1,198.0 421.4,198.0 435.6,198.0 449.9,198.0 464.2,198.0 478.5,198.0 492.7,198.0 507.0,198.0 521.3,198.0 535.5,198.0 549.8,198.0 564.1,198.0 578.4,198.0 592.6,198.0 606.9,198.0 621.2,198.0 635.5,198.0 649.7,186.8 664.0,186.8"/><circle cx="36.0" cy="198.0" r="3" fill="#3fb950"/><circle cx="50.3" cy="198.0" r="3" fill="#3fb950"/><circle cx="64.5" cy="198.0" r="3" fill="#3fb950"/><circle cx="78.8" cy="198.0" r="3" fill="#3fb950"/><circle cx="93.1" cy="198.0" r="3" fill="#3fb950"/><circle cx="107.4" cy="198.0" r="3" fill="#3fb950"/><circle cx="121.6" cy="198.0" r="3" fill="#3fb950"/><circle cx="135.9" cy="198.0" r="3" fill="#3fb950"/><circle cx="150.2" cy="198.0" r="3" fill="#3fb950"/><circle cx="164.5" cy="198.0" r="3" fill="#3fb950"/><circle cx="178.7" cy="198.0" r="3" fill="#3fb950"/><circle cx="193.0" cy="198.0" r="3" fill="#3fb950"/><circle cx="207.3" cy="198.0" r="3" fill="#3fb950"/><circle cx="221.5" cy="198.0" r="3" fill="#3fb950"/><circle cx="235.8" cy="198.0" r="3" fill="#3fb950"/><circle cx="250.1" cy="198.0" r="3" fill="#3fb950"/><circle cx="264.4" cy="198.0" r="3" fill="#3fb950"/><circle cx="278.6" cy="198.0" r="3" fill="#3fb950"/><circle cx="292.9" cy="198.0" r="3" fill="#3fb950"/><circle cx="307.2" cy="198.0" r="3" fill="#3fb950"/><circle cx="321.5" cy="198.0" r="3" fill="#3fb950"/><circle cx="335.7" cy="198.0" r="3" fill="#3fb950"/><circle cx="350.0" cy="198.0" r="3" fill="#3fb950"/><circle cx="364.3" cy="198.0" r="3" fill="#3fb950"/><circle cx="378.5" cy="198.0" r="3" fill="#3fb950"/><circle cx="392.8" cy="198.0" r="3" fill="#3fb950"/><circle cx="407.1" cy="198.0" r="3" fill="#3fb950"/><circle cx="421.4" cy="198.0" r="3" fill="#3fb950"/><circle cx="435.6" cy="198.0" r="3" fill="#3fb950"/><circle cx="449.9" cy="198.0" r="3" fill="#3fb950"/><circle cx="464.2" cy="198.0" r="3" fill="#3fb950"/><circle cx="478.5" cy="198.0" r="3" fill="#3fb950"/><circle cx="492.7" cy="198.0" r="3" fill="#3fb950"/><circle cx="507.0" cy="198.0" r="3" fill="#3fb950"/><circle cx="521.3" cy="198.0" r="3" fill="#3fb950"/><circle cx="535.5" cy="198.0" r="3" fill="#3fb950"/><circle cx="549.8" cy="198.0" r="3" fill="#3fb950"/><circle cx="564.1" cy="198.0" r="3" fill="#3fb950"/><circle cx="578.4" cy="198.0" r="3" fill="#3fb950"/><circle cx="592.6" cy="198.0" r="3" fill="#3fb950"/><circle cx="606.9" cy="198.0" r="3" fill="#3fb950"/><circle cx="621.2" cy="198.0" r="3" fill="#3fb950"/><circle cx="635.5" cy="198.0" r="3" fill="#3fb950"/><circle cx="649.7" cy="186.8" r="3" fill="#3fb950"/><circle cx="664.0" cy="186.8" r="3" fill="#3fb950"/>
<polyline fill="none" stroke="#4aa3ff" stroke-width="2.5" stroke-linejoin="round" points="36.0,102.6 50.3,102.6 64.5,102.6 78.8,102.6 93.1,102.6 107.4,102.6 121.6,102.6 135.9,102.6 150.2,102.6 164.5,102.6 178.7,102.6 193.0,102.6 207.3,102.6 221.5,102.6 235.8,102.6 250.1,88.2 264.4,81.4 278.6,76.3 292.9,76.3 307.2,61.2 321.5,61.2 335.7,61.2 350.0,49.3 364.3,49.3 378.5,49.3 392.8,43.9 407.1,43.2 421.4,43.2 435.6,42.5 449.9,42.5 464.2,41.4 478.5,39.2 492.7,36.7 507.0,36.0 521.3,36.0 535.5,36.0 549.8,36.0 564.1,36.0 578.4,36.0 592.6,36.0 606.9,36.0 621.2,36.0 635.5,36.0 649.7,47.2 664.0,47.2"/><circle cx="36.0" cy="102.6" r="3" fill="#4aa3ff"/><circle cx="50.3" cy="102.6" r="3" fill="#4aa3ff"/><circle cx="64.5" cy="102.6" r="3" fill="#4aa3ff"/><circle cx="78.8" cy="102.6" r="3" fill="#4aa3ff"/><circle cx="93.1" cy="102.6" r="3" fill="#4aa3ff"/><circle cx="107.4" cy="102.6" r="3" fill="#4aa3ff"/><circle cx="121.6" cy="102.6" r="3" fill="#4aa3ff"/><circle cx="135.9" cy="102.6" r="3" fill="#4aa3ff"/><circle cx="150.2" cy="102.6" r="3" fill="#4aa3ff"/><circle cx="164.5" cy="102.6" r="3" fill="#4aa3ff"/><circle cx="178.7" cy="102.6" r="3" fill="#4aa3ff"/><circle cx="193.0" cy="102.6" r="3" fill="#4aa3ff"/><circle cx="207.3" cy="102.6" r="3" fill="#4aa3ff"/><circle cx="221.5" cy="102.6" r="3" fill="#4aa3ff"/><circle cx="235.8" cy="102.6" r="3" fill="#4aa3ff"/><circle cx="250.1" cy="88.2" r="3" fill="#4aa3ff"/><circle cx="264.4" cy="81.4" r="3" fill="#4aa3ff"/><circle cx="278.6" cy="76.3" r="3" fill="#4aa3ff"/><circle cx="292.9" cy="76.3" r="3" fill="#4aa3ff"/><circle cx="307.2" cy="61.2" r="3" fill="#4aa3ff"/><circle cx="321.5" cy="61.2" r="3" fill="#4aa3ff"/><circle cx="335.7" cy="61.2" r="3" fill="#4aa3ff"/><circle cx="350.0" cy="49.3" r="3" fill="#4aa3ff"/><circle cx="364.3" cy="49.3" r="3" fill="#4aa3ff"/><circle cx="378.5" cy="49.3" r="3" fill="#4aa3ff"/><circle cx="392.8" cy="43.9" r="3" fill="#4aa3ff"/><circle cx="407.1" cy="43.2" r="3" fill="#4aa3ff"/><circle cx="421.4" cy="43.2" r="3" fill="#4aa3ff"/><circle cx="435.6" cy="42.5" r="3" fill="#4aa3ff"/><circle cx="449.9" cy="42.5" r="3" fill="#4aa3ff"/><circle cx="464.2" cy="41.4" r="3" fill="#4aa3ff"/><circle cx="478.5" cy="39.2" r="3" fill="#4aa3ff"/><circle cx="492.7" cy="36.7" r="3" fill="#4aa3ff"/><circle cx="507.0" cy="36.0" r="3" fill="#4aa3ff"/><circle cx="521.3" cy="36.0" r="3" fill="#4aa3ff"/><circle cx="535.5" cy="36.0" r="3" fill="#4aa3ff"/><circle cx="549.8" cy="36.0" r="3" fill="#4aa3ff"/><circle cx="564.1" cy="36.0" r="3" fill="#4aa3ff"/><circle cx="578.4" cy="36.0" r="3" fill="#4aa3ff"/><circle cx="592.6" cy="36.0" r="3" fill="#4aa3ff"/><circle cx="606.9" cy="36.0" r="3" fill="#4aa3ff"/><circle cx="621.2" cy="36.0" r="3" fill="#4aa3ff"/><circle cx="635.5" cy="36.0" r="3" fill="#4aa3ff"/><circle cx="649.7" cy="47.2" r="3" fill="#4aa3ff"/><circle cx="664.0" cy="47.2" r="3" fill="#4aa3ff"/>
<text x="36" y="225" fill="#6b7280" font-size="11">2026-06-26</text>
<text x="664" y="225" fill="#6b7280" font-size="11" text-anchor="end">2026-07-01</text>
<text x="36" y="212" font-family="system-ui,sans-serif" font-size="11">
<tspan fill="#4aa3ff">&#9679; open FPs</tspan>  <tspan fill="#3fb950">&#9679; closed (Anthropic acting)</tspan>  <tspan fill="#8a5a5a">&#9679; harness withdrawn</tspan></text>
<text x="664" y="22" text-anchor="end" font-family="system-ui,sans-serif" font-size="12">
<tspan fill="#4aa3ff">open 419</tspan>  <tspan fill="#3fb950">closed 31</tspan>  <tspan fill="#8a5a5a">harness 261</tspan></text>
</svg>