<svg xmlns="http://www.w3.org/2000/svg" width="700" height="234" viewBox="0 0 700 234" role="img">
<rect width="700" height="234" rx="12" fill="#16181d"/>
<text x="36" y="22" fill="#e8eaed" font-family="system-ui,sans-serif" font-size="14" font-weight="700">Is Anthropic acting? cyber/aup false positives over time</text>
<line x1="36" y1="198.0" x2="664" y2="198.0" stroke="#2a2e37" stroke-width="1"/><text x="30" y="202.0" fill="#6b7280" font-size="11" text-anchor="end">0</text><line x1="36" y1="117.0" x2="664" y2="117.0" stroke="#2a2e37" stroke-width="1"/><text x="30" y="121.0" fill="#6b7280" font-size="11" text-anchor="end">400</text><line x1="36" y1="36.0" x2="664" y2="36.0" stroke="#2a2e37" stroke-width="1"/><text x="30" y="40.0" fill="#6b7280" font-size="11" text-anchor="end">800</text>

<polyline fill="none" stroke="#8a5a5a" stroke-width="2.5" stroke-linejoin="round" points="36.0,145.1 39.5,145.1 42.9,145.1 46.4,145.1 49.8,145.1 53.3,145.1 56.7,145.1 60.2,145.1 63.6,145.1 67.1,145.1 70.5,145.1 74.0,145.1 77.4,145.1 80.9,145.1 84.3,145.1 87.8,145.1 91.2,145.1 94.7,145.1 98.1,145.1 101.6,145.1 105.0,145.1 108.5,145.1 111.9,145.1 115.4,145.1 118.8,145.1 122.3,145.1 125.7,145.1 129.2,145.1 132.6,145.1 136.1,145.1 139.5,145.1 143.0,145.1 146.4,145.1 149.9,145.1 153.3,145.1 156.8,145.1 160.2,145.1 163.7,145.1 167.1,145.1 170.6,145.1 174.0,145.1 177.5,145.1 180.9,145.1 184.4,145.1 187.8,145.1 191.3,145.1 194.7,145.1 198.2,145.1 201.6,145.1 205.1,145.1 208.5,155.7 212.0,155.7 215.4,155.7 218.9,155.7 222.3,155.7 225.8,155.7 229.2,155.7 232.7,155.7 236.1,155.7 239.6,155.7 243.0,155.7 246.5,155.7 249.9,155.7 253.4,155.7 256.8,155.7 260.3,155.7 263.7,155.7 267.2,155.7 270.6,155.7 274.1,155.7 277.5,155.7 281.0,155.7 284.4,155.7 287.9,155.7 291.3,155.7 294.8,155.7 298.2,155.7 301.7,155.7 305.1,155.7 308.6,155.7 312.0,155.7 315.5,155.7 318.9,155.7 322.4,155.7 325.8,167.6 329.3,167.6 332.7,170.3 336.2,170.3 339.6,170.5 343.1,170.7 346.5,170.7 350.0,170.9 353.5,172.7 356.9,180.6 360.4,181.8 363.8,189.1 367.3,190.5 370.7,195.2 374.2,198.0 377.6,198.0 381.1,198.0 384.5,198.0 388.0,198.0 391.4,198.0 394.9,198.0 398.3,198.0 401.8,198.0 405.2,198.0 408.7,198.0 412.1,198.0 415.6,198.0 419.0,198.0 422.5,198.0 425.9,198.0 429.4,198.0 432.8,198.0 436.3,198.0 439.7,198.0 443.2,198.0 446.6,198.0 450.1,198.0 453.5,198.0 457.0,198.0 460.4,198.0 463.9,198.0 467.3,198.0 470.8,198.0 474.2,198.0 477.7,198.0 481.1,198.0 484.6,198.0 488.0,198.0 491.5,198.0 494.9,198.0 498.4,198.0 501.8,198.0 505.3,198.0 508.7,198.0 512.2,198.0 515.6,198.0 519.1,198.0 522.5,198.0 526.0,198.0 529.4,198.0 532.9,198.0 536.3,198.0 539.8,198.0 543.2,198.0 546.7,198.0 550.1,198.0 553.6,198.0 557.0,198.0 560.5,198.0 563.9,198.0 567.4,198.0 570.8,198.0 574.3,198.0 577.7,198.0 581.2,198.0 584.6,198.0 588.1,198.0 591.5,198.0 595.0,198.0 598.4,198.0 601.9,198.0 605.3,198.0 608.8,198.0 612.2,198.0 615.7,198.0 619.1,198.0 622.6,198.0 626.0,198.0 629.5,198.0 632.9,198.0 636.4,198.0 639.8,198.0 643.3,198.0 646.7,198.0 650.2,198.0 653.6,198.0 657.1,198.0 660.5,198.0 664.0,198.0"/><circle cx="36.0" cy="145.1" r="3" fill="#8a5a5a"/><circle cx="39.5" cy="145.1" r="3" fill="#8a5a5a"/><circle cx="42.9" cy="145.1" r="3" fill="#8a5a5a"/><circle cx="46.4" cy="145.1" r="3" fill="#8a5a5a"/><circle cx="49.8" cy="145.1" r="3" fill="#8a5a5a"/><circle cx="53.3" cy="145.1" r="3" fill="#8a5a5a"/><circle cx="56.7" cy="145.1" r="3" fill="#8a5a5a"/><circle cx="60.2" cy="145.1" r="3" fill="#8a5a5a"/><circle cx="63.6" cy="145.1" r="3" fill="#8a5a5a"/><circle cx="67.1" cy="145.1" r="3" fill="#8a5a5a"/><circle cx="70.5" cy="145.1" r="3" fill="#8a5a5a"/><circle cx="74.0" cy="145.1" r="3" fill="#8a5a5a"/><circle cx="77.4" cy="145.1" r="3" fill="#8a5a5a"/><circle cx="80.9" cy="145.1" r="3" fill="#8a5a5a"/><circle cx="84.3" cy="145.1" r="3" fill="#8a5a5a"/><circle cx="87.8" cy="145.1" r="3" fill="#8a5a5a"/><circle cx="91.2" cy="145.1" r="3" fill="#8a5a5a"/><circle cx="94.7" cy="145.1" r="3" fill="#8a5a5a"/><circle cx="98.1" cy="145.1" r="3" fill="#8a5a5a"/><circle cx="101.6" cy="145.1" r="3" fill="#8a5a5a"/><circle cx="105.0" cy="145.1" r="3" fill="#8a5a5a"/><circle cx="108.5" cy="145.1" r="3" fill="#8a5a5a"/><circle cx="111.9" cy="145.1" r="3" fill="#8a5a5a"/><circle cx="115.4" cy="145.1" r="3" fill="#8a5a5a"/><circle cx="118.8" cy="145.1" r="3" fill="#8a5a5a"/><circle cx="122.3" cy="145.1" r="3" fill="#8a5a5a"/><circle cx="125.7" cy="145.1" r="3" fill="#8a5a5a"/><circle cx="129.2" cy="145.1" r="3" fill="#8a5a5a"/><circle cx="132.6" cy="145.1" r="3" fill="#8a5a5a"/><circle cx="136.1" cy="145.1" r="3" fill="#8a5a5a"/><circle cx="139.5" cy="145.1" r="3" fill="#8a5a5a"/><circle cx="143.0" cy="145.1" r="3" fill="#8a5a5a"/><circle cx="146.4" cy="145.1" r="3" fill="#8a5a5a"/><circle cx="149.9" cy="145.1" r="3" fill="#8a5a5a"/><circle cx="153.3" cy="145.1" r="3" fill="#8a5a5a"/><circle cx="156.8" cy="145.1" r="3" fill="#8a5a5a"/><circle cx="160.2" cy="145.1" r="3" fill="#8a5a5a"/><circle cx="163.7" cy="145.1" r="3" fill="#8a5a5a"/><circle cx="167.1" cy="145.1" r="3" fill="#8a5a5a"/><circle cx="170.6" cy="145.1" r="3" fill="#8a5a5a"/><circle cx="174.0" cy="145.1" r="3" fill="#8a5a5a"/><circle cx="177.5" cy="145.1" r="3" fill="#8a5a5a"/><circle cx="180.9" cy="145.1" r="3" fill="#8a5a5a"/><circle cx="184.4" cy="145.1" r="3" fill="#8a5a5a"/><circle cx="187.8" cy="145.1" r="3" fill="#8a5a5a"/><circle cx="191.3" cy="145.1" r="3" fill="#8a5a5a"/><circle cx="194.7" cy="145.1" r="3" fill="#8a5a5a"/><circle cx="198.2" cy="145.1" r="3" fill="#8a5a5a"/><circle cx="201.6" cy="145.1" r="3" fill="#8a5a5a"/><circle cx="205.1" cy="145.1" r="3" fill="#8a5a5a"/><circle cx="208.5" cy="155.7" r="3" fill="#8a5a5a"/><circle cx="212.0" cy="155.7" r="3" fill="#8a5a5a"/><circle cx="215.4" cy="155.7" r="3" fill="#8a5a5a"/><circle cx="218.9" cy="155.7" r="3" fill="#8a5a5a"/><circle cx="222.3" cy="155.7" r="3" fill="#8a5a5a"/><circle cx="225.8" cy="155.7" r="3" fill="#8a5a5a"/><circle cx="229.2" cy="155.7" r="3" fill="#8a5a5a"/><circle cx="232.7" cy="155.7" r="3" fill="#8a5a5a"/><circle cx="236.1" cy="155.7" r="3" fill="#8a5a5a"/><circle cx="239.6" cy="155.7" r="3" fill="#8a5a5a"/><circle cx="243.0" cy="155.7" r="3" fill="#8a5a5a"/><circle cx="246.5" cy="155.7" r="3" fill="#8a5a5a"/><circle cx="249.9" cy="155.7" r="3" fill="#8a5a5a"/><circle cx="253.4" cy="155.7" r="3" fill="#8a5a5a"/><circle cx="256.8" cy="155.7" r="3" fill="#8a5a5a"/><circle cx="260.3" cy="155.7" r="3" fill="#8a5a5a"/><circle cx="263.7" cy="155.7" r="3" fill="#8a5a5a"/><circle cx="267.2" cy="155.7" r="3" fill="#8a5a5a"/><circle cx="270.6" cy="155.7" r="3" fill="#8a5a5a"/><circle cx="274.1" cy="155.7" r="3" fill="#8a5a5a"/><circle cx="277.5" cy="155.7" r="3" fill="#8a5a5a"/><circle cx="281.0" cy="155.7" r="3" fill="#8a5a5a"/><circle cx="284.4" cy="155.7" r="3" fill="#8a5a5a"/><circle cx="287.9" cy="155.7" r="3" fill="#8a5a5a"/><circle cx="291.3" cy="155.7" r="3" fill="#8a5a5a"/><circle cx="294.8" cy="155.7" r="3" fill="#8a5a5a"/><circle cx="298.2" cy="155.7" r="3" fill="#8a5a5a"/><circle cx="301.7" cy="155.7" r="3" fill="#8a5a5a"/><circle cx="305.1" cy="155.7" r="3" fill="#8a5a5a"/><circle cx="308.6" cy="155.7" r="3" fill="#8a5a5a"/><circle cx="312.0" cy="155.7" r="3" fill="#8a5a5a"/><circle cx="315.5" cy="155.7" r="3" fill="#8a5a5a"/><circle cx="318.9" cy="155.7" r="3" fill="#8a5a5a"/><circle cx="322.4" cy="155.7" r="3" fill="#8a5a5a"/><circle cx="325.8" cy="167.6" r="3" fill="#8a5a5a"/><circle cx="329.3" cy="167.6" r="3" fill="#8a5a5a"/><circle cx="332.7" cy="170.3" r="3" fill="#8a5a5a"/><circle cx="336.2" cy="170.3" r="3" fill="#8a5a5a"/><circle cx="339.6" cy="170.5" r="3" fill="#8a5a5a"/><circle cx="343.1" cy="170.7" r="3" fill="#8a5a5a"/><circle cx="346.5" cy="170.7" r="3" fill="#8a5a5a"/><circle cx="350.0" cy="170.9" r="3" fill="#8a5a5a"/><circle cx="353.5" cy="172.7" r="3" fill="#8a5a5a"/><circle cx="356.9" cy="180.6" r="3" fill="#8a5a5a"/><circle cx="360.4" cy="181.8" r="3" fill="#8a5a5a"/><circle cx="363.8" cy="189.1" r="3" fill="#8a5a5a"/><circle cx="367.3" cy="190.5" r="3" fill="#8a5a5a"/><circle cx="370.7" cy="195.2" r="3" fill="#8a5a5a"/><circle cx="374.2" cy="198.0" r="3" fill="#8a5a5a"/><circle cx="377.6" cy="198.0" r="3" fill="#8a5a5a"/><circle cx="381.1" cy="198.0" r="3" fill="#8a5a5a"/><circle cx="384.5" cy="198.0" r="3" fill="#8a5a5a"/><circle cx="388.0" cy="198.0" r="3" fill="#8a5a5a"/><circle cx="391.4" cy="198.0" r="3" fill="#8a5a5a"/><circle cx="394.9" cy="198.0" r="3" fill="#8a5a5a"/><circle cx="398.3" cy="198.0" r="3" fill="#8a5a5a"/><circle cx="401.8" cy="198.0" r="3" fill="#8a5a5a"/><circle cx="405.2" cy="198.0" r="3" fill="#8a5a5a"/><circle cx="408.7" cy="198.0" r="3" fill="#8a5a5a"/><circle cx="412.1" cy="198.0" r="3" fill="#8a5a5a"/><circle cx="415.6" cy="198.0" r="3" fill="#8a5a5a"/><circle cx="419.0" cy="198.0" r="3" fill="#8a5a5a"/><circle cx="422.5" cy="198.0" r="3" fill="#8a5a5a"/><circle cx="425.9" cy="198.0" r="3" fill="#8a5a5a"/><circle cx="429.4" cy="198.0" r="3" fill="#8a5a5a"/><circle cx="432.8" cy="198.0" r="3" fill="#8a5a5a"/><circle cx="436.3" cy="198.0" r="3" fill="#8a5a5a"/><circle cx="439.7" cy="198.0" r="3" fill="#8a5a5a"/><circle cx="443.2" cy="198.0" r="3" fill="#8a5a5a"/><circle cx="446.6" cy="198.0" r="3" fill="#8a5a5a"/><circle cx="450.1" cy="198.0" r="3" fill="#8a5a5a"/><circle cx="453.5" cy="198.0" r="3" fill="#8a5a5a"/><circle cx="457.0" cy="198.0" r="3" fill="#8a5a5a"/><circle cx="460.4" cy="198.0" r="3" fill="#8a5a5a"/><circle cx="463.9" cy="198.0" r="3" fill="#8a5a5a"/><circle cx="467.3" cy="198.0" r="3" fill="#8a5a5a"/><circle cx="470.8" cy="198.0" r="3" fill="#8a5a5a"/><circle cx="474.2" cy="198.0" r="3" fill="#8a5a5a"/><circle cx="477.7" cy="198.0" r="3" fill="#8a5a5a"/><circle cx="481.1" cy="198.0" r="3" fill="#8a5a5a"/><circle cx="484.6" cy="198.0" r="3" fill="#8a5a5a"/><circle cx="488.0" cy="198.0" r="3" fill="#8a5a5a"/><circle cx="491.5" cy="198.0" r="3" fill="#8a5a5a"/><circle cx="494.9" cy="198.0" r="3" fill="#8a5a5a"/><circle cx="498.4" cy="198.0" r="3" fill="#8a5a5a"/><circle cx="501.8" cy="198.0" r="3" fill="#8a5a5a"/><circle cx="505.3" cy="198.0" r="3" fill="#8a5a5a"/><circle cx="508.7" cy="198.0" r="3" fill="#8a5a5a"/><circle cx="512.2" cy="198.0" r="3" fill="#8a5a5a"/><circle cx="515.6" cy="198.0" r="3" fill="#8a5a5a"/><circle cx="519.1" cy="198.0" r="3" fill="#8a5a5a"/><circle cx="522.5" cy="198.0" r="3" fill="#8a5a5a"/><circle cx="526.0" cy="198.0" r="3" fill="#8a5a5a"/><circle cx="529.4" cy="198.0" r="3" fill="#8a5a5a"/><circle cx="532.9" cy="198.0" r="3" fill="#8a5a5a"/><circle cx="536.3" cy="198.0" r="3" fill="#8a5a5a"/><circle cx="539.8" cy="198.0" r="3" fill="#8a5a5a"/><circle cx="543.2" cy="198.0" r="3" fill="#8a5a5a"/><circle cx="546.7" cy="198.0" r="3" fill="#8a5a5a"/><circle cx="550.1" cy="198.0" r="3" fill="#8a5a5a"/><circle cx="553.6" cy="198.0" r="3" fill="#8a5a5a"/><circle cx="557.0" cy="198.0" r="3" fill="#8a5a5a"/><circle cx="560.5" cy="198.0" r="3" fill="#8a5a5a"/><circle cx="563.9" cy="198.0" r="3" fill="#8a5a5a"/><circle cx="567.4" cy="198.0" r="3" fill="#8a5a5a"/><circle cx="570.8" cy="198.0" r="3" fill="#8a5a5a"/><circle cx="574.3" cy="198.0" r="3" fill="#8a5a5a"/><circle cx="577.7" cy="198.0" r="3" fill="#8a5a5a"/><circle cx="581.2" cy="198.0" r="3" fill="#8a5a5a"/><circle cx="584.6" cy="198.0" r="3" fill="#8a5a5a"/><circle cx="588.1" cy="198.0" r="3" fill="#8a5a5a"/><circle cx="591.5" cy="198.0" r="3" fill="#8a5a5a"/><circle cx="595.0" cy="198.0" r="3" fill="#8a5a5a"/><circle cx="598.4" cy="198.0" r="3" fill="#8a5a5a"/><circle cx="601.9" cy="198.0" r="3" fill="#8a5a5a"/><circle cx="605.3" cy="198.0" r="3" fill="#8a5a5a"/><circle cx="608.8" cy="198.0" r="3" fill="#8a5a5a"/><circle cx="612.2" cy="198.0" r="3" fill="#8a5a5a"/><circle cx="615.7" cy="198.0" r="3" fill="#8a5a5a"/><circle cx="619.1" cy="198.0" r="3" fill="#8a5a5a"/><circle cx="622.6" cy="198.0" r="3" fill="#8a5a5a"/><circle cx="626.0" cy="198.0" r="3" fill="#8a5a5a"/><circle cx="629.5" cy="198.0" r="3" fill="#8a5a5a"/><circle cx="632.9" cy="198.0" r="3" fill="#8a5a5a"/><circle cx="636.4" cy="198.0" r="3" fill="#8a5a5a"/><circle cx="639.8" cy="198.0" r="3" fill="#8a5a5a"/><circle cx="643.3" cy="198.0" r="3" fill="#8a5a5a"/><circle cx="646.7" cy="198.0" r="3" fill="#8a5a5a"/><circle cx="650.2" cy="198.0" r="3" fill="#8a5a5a"/><circle cx="653.6" cy="198.0" r="3" fill="#8a5a5a"/><circle cx="657.1" cy="198.0" r="3" fill="#8a5a5a"/><circle cx="660.5" cy="198.0" r="3" fill="#8a5a5a"/><circle cx="664.0" cy="198.0" r="3" fill="#8a5a5a"/>
<polyline fill="none" stroke="#3fb950" stroke-width="2.5" stroke-linejoin="round" points="36.0,198.0 39.5,198.0 42.9,198.0 46.4,198.0 49.8,198.0 53.3,198.0 56.7,198.0 60.2,198.0 63.6,198.0 67.1,198.0 70.5,198.0 74.0,198.0 77.4,198.0 80.9,198.0 84.3,198.0 87.8,198.0 91.2,198.0 94.7,198.0 98.1,198.0 101.6,198.0 105.0,198.0 108.5,198.0 111.9,198.0 115.4,198.0 118.8,198.0 122.3,198.0 125.7,198.0 129.2,198.0 132.6,198.0 136.1,198.0 139.5,198.0 143.0,198.0 146.4,198.0 149.9,198.0 153.3,198.0 156.8,198.0 160.2,198.0 163.7,198.0 167.1,198.0 170.6,198.0 174.0,198.0 177.5,198.0 180.9,198.0 184.4,191.7 187.8,191.7 191.3,191.7 194.7,191.7 198.2,191.7 201.6,191.7 205.1,191.7 208.5,192.9 212.0,192.9 215.4,190.7 218.9,190.7 222.3,190.7 225.8,190.7 229.2,190.7 232.7,190.5 236.1,190.5 239.6,190.5 243.0,190.3 246.5,190.3 249.9,190.3 253.4,190.3 256.8,190.3 260.3,190.3 263.7,190.3 267.2,190.3 270.6,190.3 274.1,190.3 277.5,190.3 281.0,190.3 284.4,190.3 287.9,190.3 291.3,190.3 294.8,190.3 298.2,190.3 301.7,190.3 305.1,190.3 308.6,190.3 312.0,190.3 315.5,189.3 318.9,189.3 322.4,189.3 325.8,190.7 329.3,190.7 332.7,190.7 336.2,190.7 339.6,190.7 343.1,190.7 346.5,190.7 350.0,190.7 353.5,190.7 356.9,190.9 360.4,190.9 363.8,190.9 367.3,194.2 370.7,196.8 374.2,198.0 377.6,198.0 381.1,198.0 384.5,198.0 388.0,198.0 391.4,198.0 394.9,198.0 398.3,198.0 401.8,198.0 405.2,198.0 408.7,198.0 412.1,198.0 415.6,198.0 419.0,198.0 422.5,198.0 425.9,198.0 429.4,198.0 432.8,198.0 436.3,198.0 439.7,198.0 443.2,198.0 446.6,198.0 450.1,198.0 453.5,198.0 457.0,198.0 460.4,198.0 463.9,198.0 467.3,198.0 470.8,198.0 474.2,198.0 477.7,198.0 481.1,198.0 484.6,198.0 488.0,198.0 491.5,198.0 494.9,198.0 498.4,198.0 501.8,198.0 505.3,198.0 508.7,198.0 512.2,198.0 515.6,198.0 519.1,198.0 522.5,198.0 526.0,198.0 529.4,198.0 532.9,198.0 536.3,198.0 539.8,198.0 543.2,198.0 546.7,198.0 550.1,198.0 553.6,198.0 557.0,198.0 560.5,198.0 563.9,198.0 567.4,198.0 570.8,198.0 574.3,198.0 577.7,198.0 581.2,198.0 584.6,198.0 588.1,198.0 591.5,198.0 595.0,198.0 598.4,198.0 601.9,198.0 605.3,198.0 608.8,198.0 612.2,198.0 615.7,198.0 619.1,198.0 622.6,198.0 626.0,198.0 629.5,198.0 632.9,198.0 636.4,198.0 639.8,198.0 643.3,198.0 646.7,198.0 650.2,198.0 653.6,198.0 657.1,198.0 660.5,198.0 664.0,198.0"/><circle cx="36.0" cy="198.0" r="3" fill="#3fb950"/><circle cx="39.5" cy="198.0" r="3" fill="#3fb950"/><circle cx="42.9" cy="198.0" r="3" fill="#3fb950"/><circle cx="46.4" cy="198.0" r="3" fill="#3fb950"/><circle cx="49.8" cy="198.0" r="3" fill="#3fb950"/><circle cx="53.3" cy="198.0" r="3" fill="#3fb950"/><circle cx="56.7" cy="198.0" r="3" fill="#3fb950"/><circle cx="60.2" cy="198.0" r="3" fill="#3fb950"/><circle cx="63.6" cy="198.0" r="3" fill="#3fb950"/><circle cx="67.1" cy="198.0" r="3" fill="#3fb950"/><circle cx="70.5" cy="198.0" r="3" fill="#3fb950"/><circle cx="74.0" cy="198.0" r="3" fill="#3fb950"/><circle cx="77.4" cy="198.0" r="3" fill="#3fb950"/><circle cx="80.9" cy="198.0" r="3" fill="#3fb950"/><circle cx="84.3" cy="198.0" r="3" fill="#3fb950"/><circle cx="87.8" cy="198.0" r="3" fill="#3fb950"/><circle cx="91.2" cy="198.0" r="3" fill="#3fb950"/><circle cx="94.7" cy="198.0" r="3" fill="#3fb950"/><circle cx="98.1" cy="198.0" r="3" fill="#3fb950"/><circle cx="101.6" cy="198.0" r="3" fill="#3fb950"/><circle cx="105.0" cy="198.0" r="3" fill="#3fb950"/><circle cx="108.5" cy="198.0" r="3" fill="#3fb950"/><circle cx="111.9" cy="198.0" r="3" fill="#3fb950"/><circle cx="115.4" cy="198.0" r="3" fill="#3fb950"/><circle cx="118.8" cy="198.0" r="3" fill="#3fb950"/><circle cx="122.3" cy="198.0" r="3" fill="#3fb950"/><circle cx="125.7" cy="198.0" r="3" fill="#3fb950"/><circle cx="129.2" cy="198.0" r="3" fill="#3fb950"/><circle cx="132.6" cy="198.0" r="3" fill="#3fb950"/><circle cx="136.1" cy="198.0" r="3" fill="#3fb950"/><circle cx="139.5" cy="198.0" r="3" fill="#3fb950"/><circle cx="143.0" cy="198.0" r="3" fill="#3fb950"/><circle cx="146.4" cy="198.0" r="3" fill="#3fb950"/><circle cx="149.9" cy="198.0" r="3" fill="#3fb950"/><circle cx="153.3" cy="198.0" r="3" fill="#3fb950"/><circle cx="156.8" cy="198.0" r="3" fill="#3fb950"/><circle cx="160.2" cy="198.0" r="3" fill="#3fb950"/><circle cx="163.7" cy="198.0" r="3" fill="#3fb950"/><circle cx="167.1" cy="198.0" r="3" fill="#3fb950"/><circle cx="170.6" cy="198.0" r="3" fill="#3fb950"/><circle cx="174.0" cy="198.0" r="3" fill="#3fb950"/><circle cx="177.5" cy="198.0" r="3" fill="#3fb950"/><circle cx="180.9" cy="198.0" r="3" fill="#3fb950"/><circle cx="184.4" cy="191.7" r="3" fill="#3fb950"/><circle cx="187.8" cy="191.7" r="3" fill="#3fb950"/><circle cx="191.3" cy="191.7" r="3" fill="#3fb950"/><circle cx="194.7" cy="191.7" r="3" fill="#3fb950"/><circle cx="198.2" cy="191.7" r="3" fill="#3fb950"/><circle cx="201.6" cy="191.7" r="3" fill="#3fb950"/><circle cx="205.1" cy="191.7" r="3" fill="#3fb950"/><circle cx="208.5" cy="192.9" r="3" fill="#3fb950"/><circle cx="212.0" cy="192.9" r="3" fill="#3fb950"/><circle cx="215.4" cy="190.7" r="3" fill="#3fb950"/><circle cx="218.9" cy="190.7" r="3" fill="#3fb950"/><circle cx="222.3" cy="190.7" r="3" fill="#3fb950"/><circle cx="225.8" cy="190.7" r="3" fill="#3fb950"/><circle cx="229.2" cy="190.7" r="3" fill="#3fb950"/><circle cx="232.7" cy="190.5" r="3" fill="#3fb950"/><circle cx="236.1" cy="190.5" r="3" fill="#3fb950"/><circle cx="239.6" cy="190.5" r="3" fill="#3fb950"/><circle cx="243.0" cy="190.3" r="3" fill="#3fb950"/><circle cx="246.5" cy="190.3" r="3" fill="#3fb950"/><circle cx="249.9" cy="190.3" r="3" fill="#3fb950"/><circle cx="253.4" cy="190.3" r="3" fill="#3fb950"/><circle cx="256.8" cy="190.3" r="3" fill="#3fb950"/><circle cx="260.3" cy="190.3" r="3" fill="#3fb950"/><circle cx="263.7" cy="190.3" r="3" fill="#3fb950"/><circle cx="267.2" cy="190.3" r="3" fill="#3fb950"/><circle cx="270.6" cy="190.3" r="3" fill="#3fb950"/><circle cx="274.1" cy="190.3" r="3" fill="#3fb950"/><circle cx="277.5" cy="190.3" r="3" fill="#3fb950"/><circle cx="281.0" cy="190.3" r="3" fill="#3fb950"/><circle cx="284.4" cy="190.3" r="3" fill="#3fb950"/><circle cx="287.9" cy="190.3" r="3" fill="#3fb950"/><circle cx="291.3" cy="190.3" r="3" fill="#3fb950"/><circle cx="294.8" cy="190.3" r="3" fill="#3fb950"/><circle cx="298.2" cy="190.3" r="3" fill="#3fb950"/><circle cx="301.7" cy="190.3" r="3" fill="#3fb950"/><circle cx="305.1" cy="190.3" r="3" fill="#3fb950"/><circle cx="308.6" cy="190.3" r="3" fill="#3fb950"/><circle cx="312.0" cy="190.3" r="3" fill="#3fb950"/><circle cx="315.5" cy="189.3" r="3" fill="#3fb950"/><circle cx="318.9" cy="189.3" r="3" fill="#3fb950"/><circle cx="322.4" cy="189.3" r="3" fill="#3fb950"/><circle cx="325.8" cy="190.7" r="3" fill="#3fb950"/><circle cx="329.3" cy="190.7" r="3" fill="#3fb950"/><circle cx="332.7" cy="190.7" r="3" fill="#3fb950"/><circle cx="336.2" cy="190.7" r="3" fill="#3fb950"/><circle cx="339.6" cy="190.7" r="3" fill="#3fb950"/><circle cx="343.1" cy="190.7" r="3" fill="#3fb950"/><circle cx="346.5" cy="190.7" r="3" fill="#3fb950"/><circle cx="350.0" cy="190.7" r="3" fill="#3fb950"/><circle cx="353.5" cy="190.7" r="3" fill="#3fb950"/><circle cx="356.9" cy="190.9" r="3" fill="#3fb950"/><circle cx="360.4" cy="190.9" r="3" fill="#3fb950"/><circle cx="363.8" cy="190.9" r="3" fill="#3fb950"/><circle cx="367.3" cy="194.2" r="3" fill="#3fb950"/><circle cx="370.7" cy="196.8" r="3" fill="#3fb950"/><circle cx="374.2" cy="198.0" r="3" fill="#3fb950"/><circle cx="377.6" cy="198.0" r="3" fill="#3fb950"/><circle cx="381.1" cy="198.0" r="3" fill="#3fb950"/><circle cx="384.5" cy="198.0" r="3" fill="#3fb950"/><circle cx="388.0" cy="198.0" r="3" fill="#3fb950"/><circle cx="391.4" cy="198.0" r="3" fill="#3fb950"/><circle cx="394.9" cy="198.0" r="3" fill="#3fb950"/><circle cx="398.3" cy="198.0" r="3" fill="#3fb950"/><circle cx="401.8" cy="198.0" r="3" fill="#3fb950"/><circle cx="405.2" cy="198.0" r="3" fill="#3fb950"/><circle cx="408.7" cy="198.0" r="3" fill="#3fb950"/><circle cx="412.1" cy="198.0" r="3" fill="#3fb950"/><circle cx="415.6" cy="198.0" r="3" fill="#3fb950"/><circle cx="419.0" cy="198.0" r="3" fill="#3fb950"/><circle cx="422.5" cy="198.0" r="3" fill="#3fb950"/><circle cx="425.9" cy="198.0" r="3" fill="#3fb950"/><circle cx="429.4" cy="198.0" r="3" fill="#3fb950"/><circle cx="432.8" cy="198.0" r="3" fill="#3fb950"/><circle cx="436.3" cy="198.0" r="3" fill="#3fb950"/><circle cx="439.7" cy="198.0" r="3" fill="#3fb950"/><circle cx="443.2" cy="198.0" r="3" fill="#3fb950"/><circle cx="446.6" cy="198.0" r="3" fill="#3fb950"/><circle cx="450.1" cy="198.0" r="3" fill="#3fb950"/><circle cx="453.5" cy="198.0" r="3" fill="#3fb950"/><circle cx="457.0" cy="198.0" r="3" fill="#3fb950"/><circle cx="460.4" cy="198.0" r="3" fill="#3fb950"/><circle cx="463.9" cy="198.0" r="3" fill="#3fb950"/><circle cx="467.3" cy="198.0" r="3" fill="#3fb950"/><circle cx="470.8" cy="198.0" r="3" fill="#3fb950"/><circle cx="474.2" cy="198.0" r="3" fill="#3fb950"/><circle cx="477.7" cy="198.0" r="3" fill="#3fb950"/><circle cx="481.1" cy="198.0" r="3" fill="#3fb950"/><circle cx="484.6" cy="198.0" r="3" fill="#3fb950"/><circle cx="488.0" cy="198.0" r="3" fill="#3fb950"/><circle cx="491.5" cy="198.0" r="3" fill="#3fb950"/><circle cx="494.9" cy="198.0" r="3" fill="#3fb950"/><circle cx="498.4" cy="198.0" r="3" fill="#3fb950"/><circle cx="501.8" cy="198.0" r="3" fill="#3fb950"/><circle cx="505.3" cy="198.0" r="3" fill="#3fb950"/><circle cx="508.7" cy="198.0" r="3" fill="#3fb950"/><circle cx="512.2" cy="198.0" r="3" fill="#3fb950"/><circle cx="515.6" cy="198.0" r="3" fill="#3fb950"/><circle cx="519.1" cy="198.0" r="3" fill="#3fb950"/><circle cx="522.5" cy="198.0" r="3" fill="#3fb950"/><circle cx="526.0" cy="198.0" r="3" fill="#3fb950"/><circle cx="529.4" cy="198.0" r="3" fill="#3fb950"/><circle cx="532.9" cy="198.0" r="3" fill="#3fb950"/><circle cx="536.3" cy="198.0" r="3" fill="#3fb950"/><circle cx="539.8" cy="198.0" r="3" fill="#3fb950"/><circle cx="543.2" cy="198.0" r="3" fill="#3fb950"/><circle cx="546.7" cy="198.0" r="3" fill="#3fb950"/><circle cx="550.1" cy="198.0" r="3" fill="#3fb950"/><circle cx="553.6" cy="198.0" r="3" fill="#3fb950"/><circle cx="557.0" cy="198.0" r="3" fill="#3fb950"/><circle cx="560.5" cy="198.0" r="3" fill="#3fb950"/><circle cx="563.9" cy="198.0" r="3" fill="#3fb950"/><circle cx="567.4" cy="198.0" r="3" fill="#3fb950"/><circle cx="570.8" cy="198.0" r="3" fill="#3fb950"/><circle cx="574.3" cy="198.0" r="3" fill="#3fb950"/><circle cx="577.7" cy="198.0" r="3" fill="#3fb950"/><circle cx="581.2" cy="198.0" r="3" fill="#3fb950"/><circle cx="584.6" cy="198.0" r="3" fill="#3fb950"/><circle cx="588.1" cy="198.0" r="3" fill="#3fb950"/><circle cx="591.5" cy="198.0" r="3" fill="#3fb950"/><circle cx="595.0" cy="198.0" r="3" fill="#3fb950"/><circle cx="598.4" cy="198.0" r="3" fill="#3fb950"/><circle cx="601.9" cy="198.0" r="3" fill="#3fb950"/><circle cx="605.3" cy="198.0" r="3" fill="#3fb950"/><circle cx="608.8" cy="198.0" r="3" fill="#3fb950"/><circle cx="612.2" cy="198.0" r="3" fill="#3fb950"/><circle cx="615.7" cy="198.0" r="3" fill="#3fb950"/><circle cx="619.1" cy="198.0" r="3" fill="#3fb950"/><circle cx="622.6" cy="198.0" r="3" fill="#3fb950"/><circle cx="626.0" cy="198.0" r="3" fill="#3fb950"/><circle cx="629.5" cy="198.0" r="3" fill="#3fb950"/><circle cx="632.9" cy="198.0" r="3" fill="#3fb950"/><circle cx="636.4" cy="198.0" r="3" fill="#3fb950"/><circle cx="639.8" cy="198.0" r="3" fill="#3fb950"/><circle cx="643.3" cy="198.0" r="3" fill="#3fb950"/><circle cx="646.7" cy="198.0" r="3" fill="#3fb950"/><circle cx="650.2" cy="198.0" r="3" fill="#3fb950"/><circle cx="653.6" cy="198.0" r="3" fill="#3fb950"/><circle cx="657.1" cy="198.0" r="3" fill="#3fb950"/><circle cx="660.5" cy="198.0" r="3" fill="#3fb950"/><circle cx="664.0" cy="198.0" r="3" fill="#3fb950"/>
<polyline fill="none" stroke="#4aa3ff" stroke-width="2.5" stroke-linejoin="round" points="36.0,144.3 39.5,144.3 42.9,144.3 46.4,144.3 49.8,144.3 53.3,144.3 56.7,144.3 60.2,144.3 63.6,144.3 67.1,144.3 70.5,144.3 74.0,144.3 77.4,144.3 80.9,144.3 84.3,144.3 87.8,136.2 91.2,132.4 94.7,129.6 98.1,129.6 101.6,121.0 105.0,121.0 108.5,121.0 111.9,114.4 115.4,114.4 118.8,114.4 122.3,111.3 125.7,110.9 129.2,110.9 132.6,110.5 136.1,110.5 139.5,109.9 143.0,108.7 146.4,107.3 149.9,106.9 153.3,106.9 156.8,106.9 160.2,106.9 163.7,106.9 167.1,106.9 170.6,106.9 174.0,106.9 177.5,106.9 180.9,106.9 184.4,113.2 187.8,113.2 191.3,113.2 194.7,113.2 198.2,113.2 201.6,110.7 205.1,105.3 208.5,83.4 212.0,83.4 215.4,85.6 218.9,85.6 222.3,85.6 225.8,85.6 229.2,85.6 232.7,85.8 236.1,85.8 239.6,85.8 243.0,86.0 246.5,86.0 249.9,86.0 253.4,86.0 256.8,86.0 260.3,86.0 263.7,86.0 267.2,86.0 270.6,86.0 274.1,86.0 277.5,86.0 281.0,86.0 284.4,86.0 287.9,86.0 291.3,86.0 294.8,86.0 298.2,86.0 301.7,86.0 305.1,86.0 308.6,86.0 312.0,86.0 315.5,87.0 318.9,87.0 322.4,87.0 325.8,73.7 329.3,73.7 332.7,71.0 336.2,71.0 339.6,70.8 343.1,70.6 346.5,70.6 350.0,70.4 353.5,68.6 356.9,60.5 360.4,59.3 363.8,52.0 367.3,47.3 370.7,40.1 374.2,36.0 377.6,36.0 381.1,36.0 384.5,36.0 388.0,36.0 391.4,36.0 394.9,36.0 398.3,36.0 401.8,36.0 405.2,36.0 408.7,36.0 412.1,36.0 415.6,36.0 419.0,36.0 422.5,36.0 425.9,36.0 429.4,36.0 432.8,36.0 436.3,36.0 439.7,36.0 443.2,36.0 446.6,36.0 450.1,36.0 453.5,36.0 457.0,36.0 460.4,36.0 463.9,36.0 467.3,36.0 470.8,36.0 474.2,36.0 477.7,36.0 481.1,36.0 484.6,36.0 488.0,36.0 491.5,36.0 494.9,36.0 498.4,36.0 501.8,36.0 505.3,36.0 508.7,36.0 512.2,36.0 515.6,36.0 519.1,36.0 522.5,36.0 526.0,36.0 529.4,36.0 532.9,36.0 536.3,36.0 539.8,36.0 543.2,36.0 546.7,36.0 550.1,36.0 553.6,36.0 557.0,36.0 560.5,36.0 563.9,36.0 567.4,36.0 570.8,36.0 574.3,36.0 577.7,36.0 581.2,36.0 584.6,36.0 588.1,36.0 591.5,36.0 595.0,36.0 598.4,36.0 601.9,36.0 605.3,36.0 608.8,36.0 612.2,36.0 615.7,36.0 619.1,36.0 622.6,36.0 626.0,36.0 629.5,36.0 632.9,36.0 636.4,36.0 639.8,36.0 643.3,36.0 646.7,36.0 650.2,36.0 653.6,36.0 657.1,36.0 660.5,36.0 664.0,36.0"/><circle cx="36.0" cy="144.3" r="3" fill="#4aa3ff"/><circle cx="39.5" cy="144.3" r="3" fill="#4aa3ff"/><circle cx="42.9" cy="144.3" r="3" fill="#4aa3ff"/><circle cx="46.4" cy="144.3" r="3" fill="#4aa3ff"/><circle cx="49.8" cy="144.3" r="3" fill="#4aa3ff"/><circle cx="53.3" cy="144.3" r="3" fill="#4aa3ff"/><circle cx="56.7" cy="144.3" r="3" fill="#4aa3ff"/><circle cx="60.2" cy="144.3" r="3" fill="#4aa3ff"/><circle cx="63.6" cy="144.3" r="3" fill="#4aa3ff"/><circle cx="67.1" cy="144.3" r="3" fill="#4aa3ff"/><circle cx="70.5" cy="144.3" r="3" fill="#4aa3ff"/><circle cx="74.0" cy="144.3" r="3" fill="#4aa3ff"/><circle cx="77.4" cy="144.3" r="3" fill="#4aa3ff"/><circle cx="80.9" cy="144.3" r="3" fill="#4aa3ff"/><circle cx="84.3" cy="144.3" r="3" fill="#4aa3ff"/><circle cx="87.8" cy="136.2" r="3" fill="#4aa3ff"/><circle cx="91.2" cy="132.4" r="3" fill="#4aa3ff"/><circle cx="94.7" cy="129.6" r="3" fill="#4aa3ff"/><circle cx="98.1" cy="129.6" r="3" fill="#4aa3ff"/><circle cx="101.6" cy="121.0" r="3" fill="#4aa3ff"/><circle cx="105.0" cy="121.0" r="3" fill="#4aa3ff"/><circle cx="108.5" cy="121.0" r="3" fill="#4aa3ff"/><circle cx="111.9" cy="114.4" r="3" fill="#4aa3ff"/><circle cx="115.4" cy="114.4" r="3" fill="#4aa3ff"/><circle cx="118.8" cy="114.4" r="3" fill="#4aa3ff"/><circle cx="122.3" cy="111.3" r="3" fill="#4aa3ff"/><circle cx="125.7" cy="110.9" r="3" fill="#4aa3ff"/><circle cx="129.2" cy="110.9" r="3" fill="#4aa3ff"/><circle cx="132.6" cy="110.5" r="3" fill="#4aa3ff"/><circle cx="136.1" cy="110.5" r="3" fill="#4aa3ff"/><circle cx="139.5" cy="109.9" r="3" fill="#4aa3ff"/><circle cx="143.0" cy="108.7" r="3" fill="#4aa3ff"/><circle cx="146.4" cy="107.3" r="3" fill="#4aa3ff"/><circle cx="149.9" cy="106.9" r="3" fill="#4aa3ff"/><circle cx="153.3" cy="106.9" r="3" fill="#4aa3ff"/><circle cx="156.8" cy="106.9" r="3" fill="#4aa3ff"/><circle cx="160.2" cy="106.9" r="3" fill="#4aa3ff"/><circle cx="163.7" cy="106.9" r="3" fill="#4aa3ff"/><circle cx="167.1" cy="106.9" r="3" fill="#4aa3ff"/><circle cx="170.6" cy="106.9" r="3" fill="#4aa3ff"/><circle cx="174.0" cy="106.9" r="3" fill="#4aa3ff"/><circle cx="177.5" cy="106.9" r="3" fill="#4aa3ff"/><circle cx="180.9" cy="106.9" r="3" fill="#4aa3ff"/><circle cx="184.4" cy="113.2" r="3" fill="#4aa3ff"/><circle cx="187.8" cy="113.2" r="3" fill="#4aa3ff"/><circle cx="191.3" cy="113.2" r="3" fill="#4aa3ff"/><circle cx="194.7" cy="113.2" r="3" fill="#4aa3ff"/><circle cx="198.2" cy="113.2" r="3" fill="#4aa3ff"/><circle cx="201.6" cy="110.7" r="3" fill="#4aa3ff"/><circle cx="205.1" cy="105.3" r="3" fill="#4aa3ff"/><circle cx="208.5" cy="83.4" r="3" fill="#4aa3ff"/><circle cx="212.0" cy="83.4" r="3" fill="#4aa3ff"/><circle cx="215.4" cy="85.6" r="3" fill="#4aa3ff"/><circle cx="218.9" cy="85.6" r="3" fill="#4aa3ff"/><circle cx="222.3" cy="85.6" r="3" fill="#4aa3ff"/><circle cx="225.8" cy="85.6" r="3" fill="#4aa3ff"/><circle cx="229.2" cy="85.6" r="3" fill="#4aa3ff"/><circle cx="232.7" cy="85.8" r="3" fill="#4aa3ff"/><circle cx="236.1" cy="85.8" r="3" fill="#4aa3ff"/><circle cx="239.6" cy="85.8" r="3" fill="#4aa3ff"/><circle cx="243.0" cy="86.0" r="3" fill="#4aa3ff"/><circle cx="246.5" cy="86.0" r="3" fill="#4aa3ff"/><circle cx="249.9" cy="86.0" r="3" fill="#4aa3ff"/><circle cx="253.4" cy="86.0" r="3" fill="#4aa3ff"/><circle cx="256.8" cy="86.0" r="3" fill="#4aa3ff"/><circle cx="260.3" cy="86.0" r="3" fill="#4aa3ff"/><circle cx="263.7" cy="86.0" r="3" fill="#4aa3ff"/><circle cx="267.2" cy="86.0" r="3" fill="#4aa3ff"/><circle cx="270.6" cy="86.0" r="3" fill="#4aa3ff"/><circle cx="274.1" cy="86.0" r="3" fill="#4aa3ff"/><circle cx="277.5" cy="86.0" r="3" fill="#4aa3ff"/><circle cx="281.0" cy="86.0" r="3" fill="#4aa3ff"/><circle cx="284.4" cy="86.0" r="3" fill="#4aa3ff"/><circle cx="287.9" cy="86.0" r="3" fill="#4aa3ff"/><circle cx="291.3" cy="86.0" r="3" fill="#4aa3ff"/><circle cx="294.8" cy="86.0" r="3" fill="#4aa3ff"/><circle cx="298.2" cy="86.0" r="3" fill="#4aa3ff"/><circle cx="301.7" cy="86.0" r="3" fill="#4aa3ff"/><circle cx="305.1" cy="86.0" r="3" fill="#4aa3ff"/><circle cx="308.6" cy="86.0" r="3" fill="#4aa3ff"/><circle cx="312.0" cy="86.0" r="3" fill="#4aa3ff"/><circle cx="315.5" cy="87.0" r="3" fill="#4aa3ff"/><circle cx="318.9" cy="87.0" r="3" fill="#4aa3ff"/><circle cx="322.4" cy="87.0" r="3" fill="#4aa3ff"/><circle cx="325.8" cy="73.7" r="3" fill="#4aa3ff"/><circle cx="329.3" cy="73.7" r="3" fill="#4aa3ff"/><circle cx="332.7" cy="71.0" r="3" fill="#4aa3ff"/><circle cx="336.2" cy="71.0" r="3" fill="#4aa3ff"/><circle cx="339.6" cy="70.8" r="3" fill="#4aa3ff"/><circle cx="343.1" cy="70.6" r="3" fill="#4aa3ff"/><circle cx="346.5" cy="70.6" r="3" fill="#4aa3ff"/><circle cx="350.0" cy="70.4" r="3" fill="#4aa3ff"/><circle cx="353.5" cy="68.6" r="3" fill="#4aa3ff"/><circle cx="356.9" cy="60.5" r="3" fill="#4aa3ff"/><circle cx="360.4" cy="59.3" r="3" fill="#4aa3ff"/><circle cx="363.8" cy="52.0" r="3" fill="#4aa3ff"/><circle cx="367.3" cy="47.3" r="3" fill="#4aa3ff"/><circle cx="370.7" cy="40.1" r="3" fill="#4aa3ff"/><circle cx="374.2" cy="36.0" r="3" fill="#4aa3ff"/><circle cx="377.6" cy="36.0" r="3" fill="#4aa3ff"/><circle cx="381.1" cy="36.0" r="3" fill="#4aa3ff"/><circle cx="384.5" cy="36.0" r="3" fill="#4aa3ff"/><circle cx="388.0" cy="36.0" r="3" fill="#4aa3ff"/><circle cx="391.4" cy="36.0" r="3" fill="#4aa3ff"/><circle cx="394.9" cy="36.0" r="3" fill="#4aa3ff"/><circle cx="398.3" cy="36.0" r="3" fill="#4aa3ff"/><circle cx="401.8" cy="36.0" r="3" fill="#4aa3ff"/><circle cx="405.2" cy="36.0" r="3" fill="#4aa3ff"/><circle cx="408.7" cy="36.0" r="3" fill="#4aa3ff"/><circle cx="412.1" cy="36.0" r="3" fill="#4aa3ff"/><circle cx="415.6" cy="36.0" r="3" fill="#4aa3ff"/><circle cx="419.0" cy="36.0" r="3" fill="#4aa3ff"/><circle cx="422.5" cy="36.0" r="3" fill="#4aa3ff"/><circle cx="425.9" cy="36.0" r="3" fill="#4aa3ff"/><circle cx="429.4" cy="36.0" r="3" fill="#4aa3ff"/><circle cx="432.8" cy="36.0" r="3" fill="#4aa3ff"/><circle cx="436.3" cy="36.0" r="3" fill="#4aa3ff"/><circle cx="439.7" cy="36.0" r="3" fill="#4aa3ff"/><circle cx="443.2" cy="36.0" r="3" fill="#4aa3ff"/><circle cx="446.6" cy="36.0" r="3" fill="#4aa3ff"/><circle cx="450.1" cy="36.0" r="3" fill="#4aa3ff"/><circle cx="453.5" cy="36.0" r="3" fill="#4aa3ff"/><circle cx="457.0" cy="36.0" r="3" fill="#4aa3ff"/><circle cx="460.4" cy="36.0" r="3" fill="#4aa3ff"/><circle cx="463.9" cy="36.0" r="3" fill="#4aa3ff"/><circle cx="467.3" cy="36.0" r="3" fill="#4aa3ff"/><circle cx="470.8" cy="36.0" r="3" fill="#4aa3ff"/><circle cx="474.2" cy="36.0" r="3" fill="#4aa3ff"/><circle cx="477.7" cy="36.0" r="3" fill="#4aa3ff"/><circle cx="481.1" cy="36.0" r="3" fill="#4aa3ff"/><circle cx="484.6" cy="36.0" r="3" fill="#4aa3ff"/><circle cx="488.0" cy="36.0" r="3" fill="#4aa3ff"/><circle cx="491.5" cy="36.0" r="3" fill="#4aa3ff"/><circle cx="494.9" cy="36.0" r="3" fill="#4aa3ff"/><circle cx="498.4" cy="36.0" r="3" fill="#4aa3ff"/><circle cx="501.8" cy="36.0" r="3" fill="#4aa3ff"/><circle cx="505.3" cy="36.0" r="3" fill="#4aa3ff"/><circle cx="508.7" cy="36.0" r="3" fill="#4aa3ff"/><circle cx="512.2" cy="36.0" r="3" fill="#4aa3ff"/><circle cx="515.6" cy="36.0" r="3" fill="#4aa3ff"/><circle cx="519.1" cy="36.0" r="3" fill="#4aa3ff"/><circle cx="522.5" cy="36.0" r="3" fill="#4aa3ff"/><circle cx="526.0" cy="36.0" r="3" fill="#4aa3ff"/><circle cx="529.4" cy="36.0" r="3" fill="#4aa3ff"/><circle cx="532.9" cy="36.0" r="3" fill="#4aa3ff"/><circle cx="536.3" cy="36.0" r="3" fill="#4aa3ff"/><circle cx="539.8" cy="36.0" r="3" fill="#4aa3ff"/><circle cx="543.2" cy="36.0" r="3" fill="#4aa3ff"/><circle cx="546.7" cy="36.0" r="3" fill="#4aa3ff"/><circle cx="550.1" cy="36.0" r="3" fill="#4aa3ff"/><circle cx="553.6" cy="36.0" r="3" fill="#4aa3ff"/><circle cx="557.0" cy="36.0" r="3" fill="#4aa3ff"/><circle cx="560.5" cy="36.0" r="3" fill="#4aa3ff"/><circle cx="563.9" cy="36.0" r="3" fill="#4aa3ff"/><circle cx="567.4" cy="36.0" r="3" fill="#4aa3ff"/><circle cx="570.8" cy="36.0" r="3" fill="#4aa3ff"/><circle cx="574.3" cy="36.0" r="3" fill="#4aa3ff"/><circle cx="577.7" cy="36.0" r="3" fill="#4aa3ff"/><circle cx="581.2" cy="36.0" r="3" fill="#4aa3ff"/><circle cx="584.6" cy="36.0" r="3" fill="#4aa3ff"/><circle cx="588.1" cy="36.0" r="3" fill="#4aa3ff"/><circle cx="591.5" cy="36.0" r="3" fill="#4aa3ff"/><circle cx="595.0" cy="36.0" r="3" fill="#4aa3ff"/><circle cx="598.4" cy="36.0" r="3" fill="#4aa3ff"/><circle cx="601.9" cy="36.0" r="3" fill="#4aa3ff"/><circle cx="605.3" cy="36.0" r="3" fill="#4aa3ff"/><circle cx="608.8" cy="36.0" r="3" fill="#4aa3ff"/><circle cx="612.2" cy="36.0" r="3" fill="#4aa3ff"/><circle cx="615.7" cy="36.0" r="3" fill="#4aa3ff"/><circle cx="619.1" cy="36.0" r="3" fill="#4aa3ff"/><circle cx="622.6" cy="36.0" r="3" fill="#4aa3ff"/><circle cx="626.0" cy="36.0" r="3" fill="#4aa3ff"/><circle cx="629.5" cy="36.0" r="3" fill="#4aa3ff"/><circle cx="632.9" cy="36.0" r="3" fill="#4aa3ff"/><circle cx="636.4" cy="36.0" r="3" fill="#4aa3ff"/><circle cx="639.8" cy="36.0" r="3" fill="#4aa3ff"/><circle cx="643.3" cy="36.0" r="3" fill="#4aa3ff"/><circle cx="646.7" cy="36.0" r="3" fill="#4aa3ff"/><circle cx="650.2" cy="36.0" r="3" fill="#4aa3ff"/><circle cx="653.6" cy="36.0" r="3" fill="#4aa3ff"/><circle cx="657.1" cy="36.0" r="3" fill="#4aa3ff"/><circle cx="660.5" cy="36.0" r="3" fill="#4aa3ff"/><circle cx="664.0" cy="36.0" r="3" fill="#4aa3ff"/>
<text x="36" y="225" fill="#6b7280" font-size="11">2026-06-26</text>
<text x="664" y="225" fill="#6b7280" font-size="11" text-anchor="end">2026-07-15</text>
<text x="36" y="212" font-family="system-ui,sans-serif" font-size="11">
<tspan fill="#4aa3ff">&#9679; open FPs</tspan>  <tspan fill="#3fb950">&#9679; closed (Anthropic acting)</tspan>  <tspan fill="#8a5a5a">&#9679; harness withdrawn</tspan></text>
<text x="664" y="22" text-anchor="end" font-family="system-ui,sans-serif" font-size="12">
<tspan fill="#4aa3ff">open 800</tspan>  <tspan fill="#3fb950">closed 0</tspan>  <tspan fill="#8a5a5a">harness 0</tspan></text>
</svg>