<svg xmlns="http://www.w3.org/2000/svg" width="700" height="234" viewBox="0 0 700 234" role="img">
<rect width="700" height="234" rx="12" fill="#16181d"/>
<text x="36" y="22" fill="#e8eaed" font-family="system-ui,sans-serif" font-size="14" font-weight="700">Is Anthropic acting? cyber/aup false positives over time</text>
<line x1="36" y1="198.0" x2="664" y2="198.0" stroke="#2a2e37" stroke-width="1"/><text x="30" y="202.0" fill="#6b7280" font-size="11" text-anchor="end">0</text><line x1="36" y1="117.0" x2="664" y2="117.0" stroke="#2a2e37" stroke-width="1"/><text x="30" y="121.0" fill="#6b7280" font-size="11" text-anchor="end">372</text><line x1="36" y1="36.0" x2="664" y2="36.0" stroke="#2a2e37" stroke-width="1"/><text x="30" y="40.0" fill="#6b7280" font-size="11" text-anchor="end">744</text>

<polyline fill="none" stroke="#8a5a5a" stroke-width="2.5" stroke-linejoin="round" points="36.0,141.2 42.5,141.2 49.1,141.2 55.6,141.2 62.2,141.2 68.7,141.2 75.2,141.2 81.8,141.2 88.3,141.2 94.9,141.2 101.4,141.2 108.0,141.2 114.5,141.2 121.0,141.2 127.6,141.2 134.1,141.2 140.7,141.2 147.2,141.2 153.8,141.2 160.3,141.2 166.8,141.2 173.4,141.2 179.9,141.2 186.5,141.2 193.0,141.2 199.5,141.2 206.1,141.2 212.6,141.2 219.2,141.2 225.7,141.2 232.2,141.2 238.8,141.2 245.3,141.2 251.9,141.2 258.4,141.2 265.0,141.2 271.5,141.2 278.0,141.2 284.6,141.2 291.1,141.2 297.7,141.2 304.2,141.2 310.8,141.2 317.3,141.2 323.8,141.2 330.4,141.2 336.9,141.2 343.5,141.2 350.0,141.2 356.5,141.2 363.1,152.5 369.6,152.5 376.2,152.5 382.7,152.5 389.2,152.5 395.8,152.5 402.3,152.5 408.9,152.5 415.4,152.5 422.0,152.5 428.5,152.5 435.0,152.5 441.6,152.5 448.1,152.5 454.7,152.5 461.2,152.5 467.8,152.5 474.3,152.5 480.8,152.5 487.4,152.5 493.9,152.5 500.5,152.5 507.0,152.5 513.5,152.5 520.1,152.5 526.6,152.5 533.2,152.5 539.7,152.5 546.2,152.5 552.8,152.5 559.3,152.5 565.9,152.5 572.4,152.5 579.0,152.5 585.5,165.3 592.0,165.3 598.6,168.2 605.1,168.2 611.7,168.4 618.2,168.6 624.8,168.6 631.3,168.8 637.8,170.8 644.4,179.3 650.9,180.6 657.5,188.4 664.0,189.9"/><circle cx="36.0" cy="141.2" r="3" fill="#8a5a5a"/><circle cx="42.5" cy="141.2" r="3" fill="#8a5a5a"/><circle cx="49.1" cy="141.2" r="3" fill="#8a5a5a"/><circle cx="55.6" cy="141.2" r="3" fill="#8a5a5a"/><circle cx="62.2" cy="141.2" r="3" fill="#8a5a5a"/><circle cx="68.7" cy="141.2" r="3" fill="#8a5a5a"/><circle cx="75.2" cy="141.2" r="3" fill="#8a5a5a"/><circle cx="81.8" cy="141.2" r="3" fill="#8a5a5a"/><circle cx="88.3" cy="141.2" r="3" fill="#8a5a5a"/><circle cx="94.9" cy="141.2" r="3" fill="#8a5a5a"/><circle cx="101.4" cy="141.2" r="3" fill="#8a5a5a"/><circle cx="108.0" cy="141.2" r="3" fill="#8a5a5a"/><circle cx="114.5" cy="141.2" r="3" fill="#8a5a5a"/><circle cx="121.0" cy="141.2" r="3" fill="#8a5a5a"/><circle cx="127.6" cy="141.2" r="3" fill="#8a5a5a"/><circle cx="134.1" cy="141.2" r="3" fill="#8a5a5a"/><circle cx="140.7" cy="141.2" r="3" fill="#8a5a5a"/><circle cx="147.2" cy="141.2" r="3" fill="#8a5a5a"/><circle cx="153.8" cy="141.2" r="3" fill="#8a5a5a"/><circle cx="160.3" cy="141.2" r="3" fill="#8a5a5a"/><circle cx="166.8" cy="141.2" r="3" fill="#8a5a5a"/><circle cx="173.4" cy="141.2" r="3" fill="#8a5a5a"/><circle cx="179.9" cy="141.2" r="3" fill="#8a5a5a"/><circle cx="186.5" cy="141.2" r="3" fill="#8a5a5a"/><circle cx="193.0" cy="141.2" r="3" fill="#8a5a5a"/><circle cx="199.5" cy="141.2" r="3" fill="#8a5a5a"/><circle cx="206.1" cy="141.2" r="3" fill="#8a5a5a"/><circle cx="212.6" cy="141.2" r="3" fill="#8a5a5a"/><circle cx="219.2" cy="141.2" r="3" fill="#8a5a5a"/><circle cx="225.7" cy="141.2" r="3" fill="#8a5a5a"/><circle cx="232.2" cy="141.2" r="3" fill="#8a5a5a"/><circle cx="238.8" cy="141.2" r="3" fill="#8a5a5a"/><circle cx="245.3" cy="141.2" r="3" fill="#8a5a5a"/><circle cx="251.9" cy="141.2" r="3" fill="#8a5a5a"/><circle cx="258.4" cy="141.2" r="3" fill="#8a5a5a"/><circle cx="265.0" cy="141.2" r="3" fill="#8a5a5a"/><circle cx="271.5" cy="141.2" r="3" fill="#8a5a5a"/><circle cx="278.0" cy="141.2" r="3" fill="#8a5a5a"/><circle cx="284.6" cy="141.2" r="3" fill="#8a5a5a"/><circle cx="291.1" cy="141.2" r="3" fill="#8a5a5a"/><circle cx="297.7" cy="141.2" r="3" fill="#8a5a5a"/><circle cx="304.2" cy="141.2" r="3" fill="#8a5a5a"/><circle cx="310.8" cy="141.2" r="3" fill="#8a5a5a"/><circle cx="317.3" cy="141.2" r="3" fill="#8a5a5a"/><circle cx="323.8" cy="141.2" r="3" fill="#8a5a5a"/><circle cx="330.4" cy="141.2" r="3" fill="#8a5a5a"/><circle cx="336.9" cy="141.2" r="3" fill="#8a5a5a"/><circle cx="343.5" cy="141.2" r="3" fill="#8a5a5a"/><circle cx="350.0" cy="141.2" r="3" fill="#8a5a5a"/><circle cx="356.5" cy="141.2" r="3" fill="#8a5a5a"/><circle cx="363.1" cy="152.5" r="3" fill="#8a5a5a"/><circle cx="369.6" cy="152.5" r="3" fill="#8a5a5a"/><circle cx="376.2" cy="152.5" r="3" fill="#8a5a5a"/><circle cx="382.7" cy="152.5" r="3" fill="#8a5a5a"/><circle cx="389.2" cy="152.5" r="3" fill="#8a5a5a"/><circle cx="395.8" cy="152.5" r="3" fill="#8a5a5a"/><circle cx="402.3" cy="152.5" r="3" fill="#8a5a5a"/><circle cx="408.9" cy="152.5" r="3" fill="#8a5a5a"/><circle cx="415.4" cy="152.5" r="3" fill="#8a5a5a"/><circle cx="422.0" cy="152.5" r="3" fill="#8a5a5a"/><circle cx="428.5" cy="152.5" r="3" fill="#8a5a5a"/><circle cx="435.0" cy="152.5" r="3" fill="#8a5a5a"/><circle cx="441.6" cy="152.5" r="3" fill="#8a5a5a"/><circle cx="448.1" cy="152.5" r="3" fill="#8a5a5a"/><circle cx="454.7" cy="152.5" r="3" fill="#8a5a5a"/><circle cx="461.2" cy="152.5" r="3" fill="#8a5a5a"/><circle cx="467.8" cy="152.5" r="3" fill="#8a5a5a"/><circle cx="474.3" cy="152.5" r="3" fill="#8a5a5a"/><circle cx="480.8" cy="152.5" r="3" fill="#8a5a5a"/><circle cx="487.4" cy="152.5" r="3" fill="#8a5a5a"/><circle cx="493.9" cy="152.5" r="3" fill="#8a5a5a"/><circle cx="500.5" cy="152.5" r="3" fill="#8a5a5a"/><circle cx="507.0" cy="152.5" r="3" fill="#8a5a5a"/><circle cx="513.5" cy="152.5" r="3" fill="#8a5a5a"/><circle cx="520.1" cy="152.5" r="3" fill="#8a5a5a"/><circle cx="526.6" cy="152.5" r="3" fill="#8a5a5a"/><circle cx="533.2" cy="152.5" r="3" fill="#8a5a5a"/><circle cx="539.7" cy="152.5" r="3" fill="#8a5a5a"/><circle cx="546.2" cy="152.5" r="3" fill="#8a5a5a"/><circle cx="552.8" cy="152.5" r="3" fill="#8a5a5a"/><circle cx="559.3" cy="152.5" r="3" fill="#8a5a5a"/><circle cx="565.9" cy="152.5" r="3" fill="#8a5a5a"/><circle cx="572.4" cy="152.5" r="3" fill="#8a5a5a"/><circle cx="579.0" cy="152.5" r="3" fill="#8a5a5a"/><circle cx="585.5" cy="165.3" r="3" fill="#8a5a5a"/><circle cx="592.0" cy="165.3" r="3" fill="#8a5a5a"/><circle cx="598.6" cy="168.2" r="3" fill="#8a5a5a"/><circle cx="605.1" cy="168.2" r="3" fill="#8a5a5a"/><circle cx="611.7" cy="168.4" r="3" fill="#8a5a5a"/><circle cx="618.2" cy="168.6" r="3" fill="#8a5a5a"/><circle cx="624.8" cy="168.6" r="3" fill="#8a5a5a"/><circle cx="631.3" cy="168.8" r="3" fill="#8a5a5a"/><circle cx="637.8" cy="170.8" r="3" fill="#8a5a5a"/><circle cx="644.4" cy="179.3" r="3" fill="#8a5a5a"/><circle cx="650.9" cy="180.6" r="3" fill="#8a5a5a"/><circle cx="657.5" cy="188.4" r="3" fill="#8a5a5a"/><circle cx="664.0" cy="189.9" r="3" fill="#8a5a5a"/>
<polyline fill="none" stroke="#3fb950" stroke-width="2.5" stroke-linejoin="round" points="36.0,198.0 42.5,198.0 49.1,198.0 55.6,198.0 62.2,198.0 68.7,198.0 75.2,198.0 81.8,198.0 88.3,198.0 94.9,198.0 101.4,198.0 108.0,198.0 114.5,198.0 121.0,198.0 127.6,198.0 134.1,198.0 140.7,198.0 147.2,198.0 153.8,198.0 160.3,198.0 166.8,198.0 173.4,198.0 179.9,198.0 186.5,198.0 193.0,198.0 199.5,198.0 206.1,198.0 212.6,198.0 219.2,198.0 225.7,198.0 232.2,198.0 238.8,198.0 245.3,198.0 251.9,198.0 258.4,198.0 265.0,198.0 271.5,198.0 278.0,198.0 284.6,198.0 291.1,198.0 297.7,198.0 304.2,198.0 310.8,198.0 317.3,191.2 323.8,191.2 330.4,191.2 336.9,191.2 343.5,191.2 350.0,191.2 356.5,191.2 363.1,192.6 369.6,192.6 376.2,190.2 382.7,190.2 389.2,190.2 395.8,190.2 402.3,190.2 408.9,189.9 415.4,189.9 422.0,189.9 428.5,189.7 435.0,189.7 441.6,189.7 448.1,189.7 454.7,189.7 461.2,189.7 467.8,189.7 474.3,189.7 480.8,189.7 487.4,189.7 493.9,189.7 500.5,189.7 507.0,189.7 513.5,189.7 520.1,189.7 526.6,189.7 533.2,189.7 539.7,189.7 546.2,189.7 552.8,189.7 559.3,189.7 565.9,188.6 572.4,188.6 579.0,188.6 585.5,190.2 592.0,190.2 598.6,190.2 605.1,190.2 611.7,190.2 618.2,190.2 624.8,190.2 631.3,190.2 637.8,190.2 644.4,190.4 650.9,190.4 657.5,190.4 664.0,193.9"/><circle cx="36.0" cy="198.0" r="3" fill="#3fb950"/><circle cx="42.5" cy="198.0" r="3" fill="#3fb950"/><circle cx="49.1" cy="198.0" r="3" fill="#3fb950"/><circle cx="55.6" cy="198.0" r="3" fill="#3fb950"/><circle cx="62.2" cy="198.0" r="3" fill="#3fb950"/><circle cx="68.7" cy="198.0" r="3" fill="#3fb950"/><circle cx="75.2" cy="198.0" r="3" fill="#3fb950"/><circle cx="81.8" cy="198.0" r="3" fill="#3fb950"/><circle cx="88.3" cy="198.0" r="3" fill="#3fb950"/><circle cx="94.9" cy="198.0" r="3" fill="#3fb950"/><circle cx="101.4" cy="198.0" r="3" fill="#3fb950"/><circle cx="108.0" cy="198.0" r="3" fill="#3fb950"/><circle cx="114.5" cy="198.0" r="3" fill="#3fb950"/><circle cx="121.0" cy="198.0" r="3" fill="#3fb950"/><circle cx="127.6" cy="198.0" r="3" fill="#3fb950"/><circle cx="134.1" cy="198.0" r="3" fill="#3fb950"/><circle cx="140.7" cy="198.0" r="3" fill="#3fb950"/><circle cx="147.2" cy="198.0" r="3" fill="#3fb950"/><circle cx="153.8" cy="198.0" r="3" fill="#3fb950"/><circle cx="160.3" cy="198.0" r="3" fill="#3fb950"/><circle cx="166.8" cy="198.0" r="3" fill="#3fb950"/><circle cx="173.4" cy="198.0" r="3" fill="#3fb950"/><circle cx="179.9" cy="198.0" r="3" fill="#3fb950"/><circle cx="186.5" cy="198.0" r="3" fill="#3fb950"/><circle cx="193.0" cy="198.0" r="3" fill="#3fb950"/><circle cx="199.5" cy="198.0" r="3" fill="#3fb950"/><circle cx="206.1" cy="198.0" r="3" fill="#3fb950"/><circle cx="212.6" cy="198.0" r="3" fill="#3fb950"/><circle cx="219.2" cy="198.0" r="3" fill="#3fb950"/><circle cx="225.7" cy="198.0" r="3" fill="#3fb950"/><circle cx="232.2" cy="198.0" r="3" fill="#3fb950"/><circle cx="238.8" cy="198.0" r="3" fill="#3fb950"/><circle cx="245.3" cy="198.0" r="3" fill="#3fb950"/><circle cx="251.9" cy="198.0" r="3" fill="#3fb950"/><circle cx="258.4" cy="198.0" r="3" fill="#3fb950"/><circle cx="265.0" cy="198.0" r="3" fill="#3fb950"/><circle cx="271.5" cy="198.0" r="3" fill="#3fb950"/><circle cx="278.0" cy="198.0" r="3" fill="#3fb950"/><circle cx="284.6" cy="198.0" r="3" fill="#3fb950"/><circle cx="291.1" cy="198.0" r="3" fill="#3fb950"/><circle cx="297.7" cy="198.0" r="3" fill="#3fb950"/><circle cx="304.2" cy="198.0" r="3" fill="#3fb950"/><circle cx="310.8" cy="198.0" r="3" fill="#3fb950"/><circle cx="317.3" cy="191.2" r="3" fill="#3fb950"/><circle cx="323.8" cy="191.2" r="3" fill="#3fb950"/><circle cx="330.4" cy="191.2" r="3" fill="#3fb950"/><circle cx="336.9" cy="191.2" r="3" fill="#3fb950"/><circle cx="343.5" cy="191.2" r="3" fill="#3fb950"/><circle cx="350.0" cy="191.2" r="3" fill="#3fb950"/><circle cx="356.5" cy="191.2" r="3" fill="#3fb950"/><circle cx="363.1" cy="192.6" r="3" fill="#3fb950"/><circle cx="369.6" cy="192.6" r="3" fill="#3fb950"/><circle cx="376.2" cy="190.2" r="3" fill="#3fb950"/><circle cx="382.7" cy="190.2" r="3" fill="#3fb950"/><circle cx="389.2" cy="190.2" r="3" fill="#3fb950"/><circle cx="395.8" cy="190.2" r="3" fill="#3fb950"/><circle cx="402.3" cy="190.2" r="3" fill="#3fb950"/><circle cx="408.9" cy="189.9" r="3" fill="#3fb950"/><circle cx="415.4" cy="189.9" r="3" fill="#3fb950"/><circle cx="422.0" cy="189.9" r="3" fill="#3fb950"/><circle cx="428.5" cy="189.7" r="3" fill="#3fb950"/><circle cx="435.0" cy="189.7" r="3" fill="#3fb950"/><circle cx="441.6" cy="189.7" r="3" fill="#3fb950"/><circle cx="448.1" cy="189.7" r="3" fill="#3fb950"/><circle cx="454.7" cy="189.7" r="3" fill="#3fb950"/><circle cx="461.2" cy="189.7" r="3" fill="#3fb950"/><circle cx="467.8" cy="189.7" r="3" fill="#3fb950"/><circle cx="474.3" cy="189.7" r="3" fill="#3fb950"/><circle cx="480.8" cy="189.7" r="3" fill="#3fb950"/><circle cx="487.4" cy="189.7" r="3" fill="#3fb950"/><circle cx="493.9" cy="189.7" r="3" fill="#3fb950"/><circle cx="500.5" cy="189.7" r="3" fill="#3fb950"/><circle cx="507.0" cy="189.7" r="3" fill="#3fb950"/><circle cx="513.5" cy="189.7" r="3" fill="#3fb950"/><circle cx="520.1" cy="189.7" r="3" fill="#3fb950"/><circle cx="526.6" cy="189.7" r="3" fill="#3fb950"/><circle cx="533.2" cy="189.7" r="3" fill="#3fb950"/><circle cx="539.7" cy="189.7" r="3" fill="#3fb950"/><circle cx="546.2" cy="189.7" r="3" fill="#3fb950"/><circle cx="552.8" cy="189.7" r="3" fill="#3fb950"/><circle cx="559.3" cy="189.7" r="3" fill="#3fb950"/><circle cx="565.9" cy="188.6" r="3" fill="#3fb950"/><circle cx="572.4" cy="188.6" r="3" fill="#3fb950"/><circle cx="579.0" cy="188.6" r="3" fill="#3fb950"/><circle cx="585.5" cy="190.2" r="3" fill="#3fb950"/><circle cx="592.0" cy="190.2" r="3" fill="#3fb950"/><circle cx="598.6" cy="190.2" r="3" fill="#3fb950"/><circle cx="605.1" cy="190.2" r="3" fill="#3fb950"/><circle cx="611.7" cy="190.2" r="3" fill="#3fb950"/><circle cx="618.2" cy="190.2" r="3" fill="#3fb950"/><circle cx="624.8" cy="190.2" r="3" fill="#3fb950"/><circle cx="631.3" cy="190.2" r="3" fill="#3fb950"/><circle cx="637.8" cy="190.2" r="3" fill="#3fb950"/><circle cx="644.4" cy="190.4" r="3" fill="#3fb950"/><circle cx="650.9" cy="190.4" r="3" fill="#3fb950"/><circle cx="657.5" cy="190.4" r="3" fill="#3fb950"/><circle cx="664.0" cy="193.9" r="3" fill="#3fb950"/>
<polyline fill="none" stroke="#4aa3ff" stroke-width="2.5" stroke-linejoin="round" points="36.0,140.3 42.5,140.3 49.1,140.3 55.6,140.3 62.2,140.3 68.7,140.3 75.2,140.3 81.8,140.3 88.3,140.3 94.9,140.3 101.4,140.3 108.0,140.3 114.5,140.3 121.0,140.3 127.6,140.3 134.1,131.6 140.7,127.5 147.2,124.4 153.8,124.4 160.3,115.3 166.8,115.3 173.4,115.3 179.9,108.1 186.5,108.1 193.0,108.1 199.5,104.8 206.1,104.4 212.6,104.4 219.2,103.9 225.7,103.9 232.2,103.3 238.8,102.0 245.3,100.5 251.9,100.0 258.4,100.0 265.0,100.0 271.5,100.0 278.0,100.0 284.6,100.0 291.1,100.0 297.7,100.0 304.2,100.0 310.8,100.0 317.3,106.8 323.8,106.8 330.4,106.8 336.9,106.8 343.5,106.8 350.0,104.2 356.5,98.3 363.1,74.8 369.6,74.8 376.2,77.2 382.7,77.2 389.2,77.2 395.8,77.2 402.3,77.2 408.9,77.4 415.4,77.4 422.0,77.4 428.5,77.6 435.0,77.6 441.6,77.6 448.1,77.6 454.7,77.6 461.2,77.6 467.8,77.6 474.3,77.6 480.8,77.6 487.4,77.6 493.9,77.6 500.5,77.6 507.0,77.6 513.5,77.6 520.1,77.6 526.6,77.6 533.2,77.6 539.7,77.6 546.2,77.6 552.8,77.6 559.3,77.6 565.9,78.7 572.4,78.7 579.0,78.7 585.5,64.3 592.0,64.3 598.6,61.5 605.1,61.5 611.7,61.3 618.2,61.0 624.8,61.0 631.3,60.8 637.8,58.9 644.4,50.2 650.9,48.8 657.5,41.0 664.0,36.0"/><circle cx="36.0" cy="140.3" r="3" fill="#4aa3ff"/><circle cx="42.5" cy="140.3" r="3" fill="#4aa3ff"/><circle cx="49.1" cy="140.3" r="3" fill="#4aa3ff"/><circle cx="55.6" cy="140.3" r="3" fill="#4aa3ff"/><circle cx="62.2" cy="140.3" r="3" fill="#4aa3ff"/><circle cx="68.7" cy="140.3" r="3" fill="#4aa3ff"/><circle cx="75.2" cy="140.3" r="3" fill="#4aa3ff"/><circle cx="81.8" cy="140.3" r="3" fill="#4aa3ff"/><circle cx="88.3" cy="140.3" r="3" fill="#4aa3ff"/><circle cx="94.9" cy="140.3" r="3" fill="#4aa3ff"/><circle cx="101.4" cy="140.3" r="3" fill="#4aa3ff"/><circle cx="108.0" cy="140.3" r="3" fill="#4aa3ff"/><circle cx="114.5" cy="140.3" r="3" fill="#4aa3ff"/><circle cx="121.0" cy="140.3" r="3" fill="#4aa3ff"/><circle cx="127.6" cy="140.3" r="3" fill="#4aa3ff"/><circle cx="134.1" cy="131.6" r="3" fill="#4aa3ff"/><circle cx="140.7" cy="127.5" r="3" fill="#4aa3ff"/><circle cx="147.2" cy="124.4" r="3" fill="#4aa3ff"/><circle cx="153.8" cy="124.4" r="3" fill="#4aa3ff"/><circle cx="160.3" cy="115.3" r="3" fill="#4aa3ff"/><circle cx="166.8" cy="115.3" r="3" fill="#4aa3ff"/><circle cx="173.4" cy="115.3" r="3" fill="#4aa3ff"/><circle cx="179.9" cy="108.1" r="3" fill="#4aa3ff"/><circle cx="186.5" cy="108.1" r="3" fill="#4aa3ff"/><circle cx="193.0" cy="108.1" r="3" fill="#4aa3ff"/><circle cx="199.5" cy="104.8" r="3" fill="#4aa3ff"/><circle cx="206.1" cy="104.4" r="3" fill="#4aa3ff"/><circle cx="212.6" cy="104.4" r="3" fill="#4aa3ff"/><circle cx="219.2" cy="103.9" r="3" fill="#4aa3ff"/><circle cx="225.7" cy="103.9" r="3" fill="#4aa3ff"/><circle cx="232.2" cy="103.3" r="3" fill="#4aa3ff"/><circle cx="238.8" cy="102.0" r="3" fill="#4aa3ff"/><circle cx="245.3" cy="100.5" r="3" fill="#4aa3ff"/><circle cx="251.9" cy="100.0" r="3" fill="#4aa3ff"/><circle cx="258.4" cy="100.0" r="3" fill="#4aa3ff"/><circle cx="265.0" cy="100.0" r="3" fill="#4aa3ff"/><circle cx="271.5" cy="100.0" r="3" fill="#4aa3ff"/><circle cx="278.0" cy="100.0" r="3" fill="#4aa3ff"/><circle cx="284.6" cy="100.0" r="3" fill="#4aa3ff"/><circle cx="291.1" cy="100.0" r="3" fill="#4aa3ff"/><circle cx="297.7" cy="100.0" r="3" fill="#4aa3ff"/><circle cx="304.2" cy="100.0" r="3" fill="#4aa3ff"/><circle cx="310.8" cy="100.0" r="3" fill="#4aa3ff"/><circle cx="317.3" cy="106.8" r="3" fill="#4aa3ff"/><circle cx="323.8" cy="106.8" r="3" fill="#4aa3ff"/><circle cx="330.4" cy="106.8" r="3" fill="#4aa3ff"/><circle cx="336.9" cy="106.8" r="3" fill="#4aa3ff"/><circle cx="343.5" cy="106.8" r="3" fill="#4aa3ff"/><circle cx="350.0" cy="104.2" r="3" fill="#4aa3ff"/><circle cx="356.5" cy="98.3" r="3" fill="#4aa3ff"/><circle cx="363.1" cy="74.8" r="3" fill="#4aa3ff"/><circle cx="369.6" cy="74.8" r="3" fill="#4aa3ff"/><circle cx="376.2" cy="77.2" r="3" fill="#4aa3ff"/><circle cx="382.7" cy="77.2" r="3" fill="#4aa3ff"/><circle cx="389.2" cy="77.2" r="3" fill="#4aa3ff"/><circle cx="395.8" cy="77.2" r="3" fill="#4aa3ff"/><circle cx="402.3" cy="77.2" r="3" fill="#4aa3ff"/><circle cx="408.9" cy="77.4" r="3" fill="#4aa3ff"/><circle cx="415.4" cy="77.4" r="3" fill="#4aa3ff"/><circle cx="422.0" cy="77.4" r="3" fill="#4aa3ff"/><circle cx="428.5" cy="77.6" r="3" fill="#4aa3ff"/><circle cx="435.0" cy="77.6" r="3" fill="#4aa3ff"/><circle cx="441.6" cy="77.6" r="3" fill="#4aa3ff"/><circle cx="448.1" cy="77.6" r="3" fill="#4aa3ff"/><circle cx="454.7" cy="77.6" r="3" fill="#4aa3ff"/><circle cx="461.2" cy="77.6" r="3" fill="#4aa3ff"/><circle cx="467.8" cy="77.6" r="3" fill="#4aa3ff"/><circle cx="474.3" cy="77.6" r="3" fill="#4aa3ff"/><circle cx="480.8" cy="77.6" r="3" fill="#4aa3ff"/><circle cx="487.4" cy="77.6" r="3" fill="#4aa3ff"/><circle cx="493.9" cy="77.6" r="3" fill="#4aa3ff"/><circle cx="500.5" cy="77.6" r="3" fill="#4aa3ff"/><circle cx="507.0" cy="77.6" r="3" fill="#4aa3ff"/><circle cx="513.5" cy="77.6" r="3" fill="#4aa3ff"/><circle cx="520.1" cy="77.6" r="3" fill="#4aa3ff"/><circle cx="526.6" cy="77.6" r="3" fill="#4aa3ff"/><circle cx="533.2" cy="77.6" r="3" fill="#4aa3ff"/><circle cx="539.7" cy="77.6" r="3" fill="#4aa3ff"/><circle cx="546.2" cy="77.6" r="3" fill="#4aa3ff"/><circle cx="552.8" cy="77.6" r="3" fill="#4aa3ff"/><circle cx="559.3" cy="77.6" r="3" fill="#4aa3ff"/><circle cx="565.9" cy="78.7" r="3" fill="#4aa3ff"/><circle cx="572.4" cy="78.7" r="3" fill="#4aa3ff"/><circle cx="579.0" cy="78.7" r="3" fill="#4aa3ff"/><circle cx="585.5" cy="64.3" r="3" fill="#4aa3ff"/><circle cx="592.0" cy="64.3" r="3" fill="#4aa3ff"/><circle cx="598.6" cy="61.5" r="3" fill="#4aa3ff"/><circle cx="605.1" cy="61.5" r="3" fill="#4aa3ff"/><circle cx="611.7" cy="61.3" r="3" fill="#4aa3ff"/><circle cx="618.2" cy="61.0" r="3" fill="#4aa3ff"/><circle cx="624.8" cy="61.0" r="3" fill="#4aa3ff"/><circle cx="631.3" cy="60.8" r="3" fill="#4aa3ff"/><circle cx="637.8" cy="58.9" r="3" fill="#4aa3ff"/><circle cx="644.4" cy="50.2" r="3" fill="#4aa3ff"/><circle cx="650.9" cy="48.8" r="3" fill="#4aa3ff"/><circle cx="657.5" cy="41.0" r="3" fill="#4aa3ff"/><circle cx="664.0" cy="36.0" r="3" fill="#4aa3ff"/>
<text x="36" y="225" fill="#6b7280" font-size="11">2026-06-26</text>
<text x="664" y="225" fill="#6b7280" font-size="11" text-anchor="end">2026-07-07</text>
<text x="36" y="212" font-family="system-ui,sans-serif" font-size="11">
<tspan fill="#4aa3ff">&#9679; open FPs</tspan>  <tspan fill="#3fb950">&#9679; closed (Anthropic acting)</tspan>  <tspan fill="#8a5a5a">&#9679; harness withdrawn</tspan></text>
<text x="664" y="22" text-anchor="end" font-family="system-ui,sans-serif" font-size="12">
<tspan fill="#4aa3ff">open 744</tspan>  <tspan fill="#3fb950">closed 19</tspan>  <tspan fill="#8a5a5a">harness 37</tspan></text>
</svg>