<svg xmlns="http://www.w3.org/2000/svg" width="700" height="234" viewBox="0 0 700 234" role="img">
<rect width="700" height="234" rx="12" fill="#16181d"/>
<text x="36" y="22" fill="#e8eaed" font-family="system-ui,sans-serif" font-size="14" font-weight="700">Is Anthropic acting? cyber/aup false positives over time</text>
<line x1="36" y1="198.0" x2="664" y2="198.0" stroke="#2a2e37" stroke-width="1"/><text x="30" y="202.0" fill="#6b7280" font-size="11" text-anchor="end">0</text><line x1="36" y1="117.0" x2="664" y2="117.0" stroke="#2a2e37" stroke-width="1"/><text x="30" y="121.0" fill="#6b7280" font-size="11" text-anchor="end">400</text><line x1="36" y1="36.0" x2="664" y2="36.0" stroke="#2a2e37" stroke-width="1"/><text x="30" y="40.0" fill="#6b7280" font-size="11" text-anchor="end">800</text>

<polyline fill="none" stroke="#8a5a5a" stroke-width="2.5" stroke-linejoin="round" points="36.0,145.1 40.7,145.1 45.4,145.1 50.1,145.1 54.7,145.1 59.4,145.1 64.1,145.1 68.8,145.1 73.5,145.1 78.2,145.1 82.9,145.1 87.6,145.1 92.2,145.1 96.9,145.1 101.6,145.1 106.3,145.1 111.0,145.1 115.7,145.1 120.4,145.1 125.0,145.1 129.7,145.1 134.4,145.1 139.1,145.1 143.8,145.1 148.5,145.1 153.2,145.1 157.9,145.1 162.5,145.1 167.2,145.1 171.9,145.1 176.6,145.1 181.3,145.1 186.0,145.1 190.7,145.1 195.3,145.1 200.0,145.1 204.7,145.1 209.4,145.1 214.1,145.1 218.8,145.1 223.5,145.1 228.1,145.1 232.8,145.1 237.5,145.1 242.2,145.1 246.9,145.1 251.6,145.1 256.3,145.1 261.0,145.1 265.6,145.1 270.3,155.7 275.0,155.7 279.7,155.7 284.4,155.7 289.1,155.7 293.8,155.7 298.4,155.7 303.1,155.7 307.8,155.7 312.5,155.7 317.2,155.7 321.9,155.7 326.6,155.7 331.3,155.7 335.9,155.7 340.6,155.7 345.3,155.7 350.0,155.7 354.7,155.7 359.4,155.7 364.1,155.7 368.7,155.7 373.4,155.7 378.1,155.7 382.8,155.7 387.5,155.7 392.2,155.7 396.9,155.7 401.6,155.7 406.2,155.7 410.9,155.7 415.6,155.7 420.3,155.7 425.0,155.7 429.7,167.6 434.4,167.6 439.0,170.3 443.7,170.3 448.4,170.5 453.1,170.7 457.8,170.7 462.5,170.9 467.2,172.7 471.9,180.6 476.5,181.8 481.2,189.1 485.9,190.5 490.6,195.2 495.3,198.0 500.0,198.0 504.7,198.0 509.3,198.0 514.0,198.0 518.7,198.0 523.4,198.0 528.1,198.0 532.8,198.0 537.5,198.0 542.1,198.0 546.8,198.0 551.5,198.0 556.2,198.0 560.9,198.0 565.6,198.0 570.3,198.0 575.0,198.0 579.6,198.0 584.3,198.0 589.0,198.0 593.7,198.0 598.4,198.0 603.1,198.0 607.8,198.0 612.4,198.0 617.1,198.0 621.8,198.0 626.5,198.0 631.2,198.0 635.9,198.0 640.6,198.0 645.3,198.0 649.9,198.0 654.6,198.0 659.3,198.0 664.0,198.0"/><circle cx="36.0" cy="145.1" r="3" fill="#8a5a5a"/><circle cx="40.7" cy="145.1" r="3" fill="#8a5a5a"/><circle cx="45.4" cy="145.1" r="3" fill="#8a5a5a"/><circle cx="50.1" cy="145.1" r="3" fill="#8a5a5a"/><circle cx="54.7" cy="145.1" r="3" fill="#8a5a5a"/><circle cx="59.4" cy="145.1" r="3" fill="#8a5a5a"/><circle cx="64.1" cy="145.1" r="3" fill="#8a5a5a"/><circle cx="68.8" cy="145.1" r="3" fill="#8a5a5a"/><circle cx="73.5" cy="145.1" r="3" fill="#8a5a5a"/><circle cx="78.2" cy="145.1" r="3" fill="#8a5a5a"/><circle cx="82.9" cy="145.1" r="3" fill="#8a5a5a"/><circle cx="87.6" cy="145.1" r="3" fill="#8a5a5a"/><circle cx="92.2" cy="145.1" r="3" fill="#8a5a5a"/><circle cx="96.9" cy="145.1" r="3" fill="#8a5a5a"/><circle cx="101.6" cy="145.1" r="3" fill="#8a5a5a"/><circle cx="106.3" cy="145.1" r="3" fill="#8a5a5a"/><circle cx="111.0" cy="145.1" r="3" fill="#8a5a5a"/><circle cx="115.7" cy="145.1" r="3" fill="#8a5a5a"/><circle cx="120.4" cy="145.1" r="3" fill="#8a5a5a"/><circle cx="125.0" cy="145.1" r="3" fill="#8a5a5a"/><circle cx="129.7" cy="145.1" r="3" fill="#8a5a5a"/><circle cx="134.4" cy="145.1" r="3" fill="#8a5a5a"/><circle cx="139.1" cy="145.1" r="3" fill="#8a5a5a"/><circle cx="143.8" cy="145.1" r="3" fill="#8a5a5a"/><circle cx="148.5" cy="145.1" r="3" fill="#8a5a5a"/><circle cx="153.2" cy="145.1" r="3" fill="#8a5a5a"/><circle cx="157.9" cy="145.1" r="3" fill="#8a5a5a"/><circle cx="162.5" cy="145.1" r="3" fill="#8a5a5a"/><circle cx="167.2" cy="145.1" r="3" fill="#8a5a5a"/><circle cx="171.9" cy="145.1" r="3" fill="#8a5a5a"/><circle cx="176.6" cy="145.1" r="3" fill="#8a5a5a"/><circle cx="181.3" cy="145.1" r="3" fill="#8a5a5a"/><circle cx="186.0" cy="145.1" r="3" fill="#8a5a5a"/><circle cx="190.7" cy="145.1" r="3" fill="#8a5a5a"/><circle cx="195.3" cy="145.1" r="3" fill="#8a5a5a"/><circle cx="200.0" cy="145.1" r="3" fill="#8a5a5a"/><circle cx="204.7" cy="145.1" r="3" fill="#8a5a5a"/><circle cx="209.4" cy="145.1" r="3" fill="#8a5a5a"/><circle cx="214.1" cy="145.1" r="3" fill="#8a5a5a"/><circle cx="218.8" cy="145.1" r="3" fill="#8a5a5a"/><circle cx="223.5" cy="145.1" r="3" fill="#8a5a5a"/><circle cx="228.1" cy="145.1" r="3" fill="#8a5a5a"/><circle cx="232.8" cy="145.1" r="3" fill="#8a5a5a"/><circle cx="237.5" cy="145.1" r="3" fill="#8a5a5a"/><circle cx="242.2" cy="145.1" r="3" fill="#8a5a5a"/><circle cx="246.9" cy="145.1" r="3" fill="#8a5a5a"/><circle cx="251.6" cy="145.1" r="3" fill="#8a5a5a"/><circle cx="256.3" cy="145.1" r="3" fill="#8a5a5a"/><circle cx="261.0" cy="145.1" r="3" fill="#8a5a5a"/><circle cx="265.6" cy="145.1" r="3" fill="#8a5a5a"/><circle cx="270.3" cy="155.7" r="3" fill="#8a5a5a"/><circle cx="275.0" cy="155.7" r="3" fill="#8a5a5a"/><circle cx="279.7" cy="155.7" r="3" fill="#8a5a5a"/><circle cx="284.4" cy="155.7" r="3" fill="#8a5a5a"/><circle cx="289.1" cy="155.7" r="3" fill="#8a5a5a"/><circle cx="293.8" cy="155.7" r="3" fill="#8a5a5a"/><circle cx="298.4" cy="155.7" r="3" fill="#8a5a5a"/><circle cx="303.1" cy="155.7" r="3" fill="#8a5a5a"/><circle cx="307.8" cy="155.7" r="3" fill="#8a5a5a"/><circle cx="312.5" cy="155.7" r="3" fill="#8a5a5a"/><circle cx="317.2" cy="155.7" r="3" fill="#8a5a5a"/><circle cx="321.9" cy="155.7" r="3" fill="#8a5a5a"/><circle cx="326.6" cy="155.7" r="3" fill="#8a5a5a"/><circle cx="331.3" cy="155.7" r="3" fill="#8a5a5a"/><circle cx="335.9" cy="155.7" r="3" fill="#8a5a5a"/><circle cx="340.6" cy="155.7" r="3" fill="#8a5a5a"/><circle cx="345.3" cy="155.7" r="3" fill="#8a5a5a"/><circle cx="350.0" cy="155.7" r="3" fill="#8a5a5a"/><circle cx="354.7" cy="155.7" r="3" fill="#8a5a5a"/><circle cx="359.4" cy="155.7" r="3" fill="#8a5a5a"/><circle cx="364.1" cy="155.7" r="3" fill="#8a5a5a"/><circle cx="368.7" cy="155.7" r="3" fill="#8a5a5a"/><circle cx="373.4" cy="155.7" r="3" fill="#8a5a5a"/><circle cx="378.1" cy="155.7" r="3" fill="#8a5a5a"/><circle cx="382.8" cy="155.7" r="3" fill="#8a5a5a"/><circle cx="387.5" cy="155.7" r="3" fill="#8a5a5a"/><circle cx="392.2" cy="155.7" r="3" fill="#8a5a5a"/><circle cx="396.9" cy="155.7" r="3" fill="#8a5a5a"/><circle cx="401.6" cy="155.7" r="3" fill="#8a5a5a"/><circle cx="406.2" cy="155.7" r="3" fill="#8a5a5a"/><circle cx="410.9" cy="155.7" r="3" fill="#8a5a5a"/><circle cx="415.6" cy="155.7" r="3" fill="#8a5a5a"/><circle cx="420.3" cy="155.7" r="3" fill="#8a5a5a"/><circle cx="425.0" cy="155.7" r="3" fill="#8a5a5a"/><circle cx="429.7" cy="167.6" r="3" fill="#8a5a5a"/><circle cx="434.4" cy="167.6" r="3" fill="#8a5a5a"/><circle cx="439.0" cy="170.3" r="3" fill="#8a5a5a"/><circle cx="443.7" cy="170.3" r="3" fill="#8a5a5a"/><circle cx="448.4" cy="170.5" r="3" fill="#8a5a5a"/><circle cx="453.1" cy="170.7" r="3" fill="#8a5a5a"/><circle cx="457.8" cy="170.7" r="3" fill="#8a5a5a"/><circle cx="462.5" cy="170.9" r="3" fill="#8a5a5a"/><circle cx="467.2" cy="172.7" r="3" fill="#8a5a5a"/><circle cx="471.9" cy="180.6" r="3" fill="#8a5a5a"/><circle cx="476.5" cy="181.8" r="3" fill="#8a5a5a"/><circle cx="481.2" cy="189.1" r="3" fill="#8a5a5a"/><circle cx="485.9" cy="190.5" r="3" fill="#8a5a5a"/><circle cx="490.6" cy="195.2" r="3" fill="#8a5a5a"/><circle cx="495.3" cy="198.0" r="3" fill="#8a5a5a"/><circle cx="500.0" cy="198.0" r="3" fill="#8a5a5a"/><circle cx="504.7" cy="198.0" r="3" fill="#8a5a5a"/><circle cx="509.3" cy="198.0" r="3" fill="#8a5a5a"/><circle cx="514.0" cy="198.0" r="3" fill="#8a5a5a"/><circle cx="518.7" cy="198.0" r="3" fill="#8a5a5a"/><circle cx="523.4" cy="198.0" r="3" fill="#8a5a5a"/><circle cx="528.1" cy="198.0" r="3" fill="#8a5a5a"/><circle cx="532.8" cy="198.0" r="3" fill="#8a5a5a"/><circle cx="537.5" cy="198.0" r="3" fill="#8a5a5a"/><circle cx="542.1" cy="198.0" r="3" fill="#8a5a5a"/><circle cx="546.8" cy="198.0" r="3" fill="#8a5a5a"/><circle cx="551.5" cy="198.0" r="3" fill="#8a5a5a"/><circle cx="556.2" cy="198.0" r="3" fill="#8a5a5a"/><circle cx="560.9" cy="198.0" r="3" fill="#8a5a5a"/><circle cx="565.6" cy="198.0" r="3" fill="#8a5a5a"/><circle cx="570.3" cy="198.0" r="3" fill="#8a5a5a"/><circle cx="575.0" cy="198.0" r="3" fill="#8a5a5a"/><circle cx="579.6" cy="198.0" r="3" fill="#8a5a5a"/><circle cx="584.3" cy="198.0" r="3" fill="#8a5a5a"/><circle cx="589.0" cy="198.0" r="3" fill="#8a5a5a"/><circle cx="593.7" cy="198.0" r="3" fill="#8a5a5a"/><circle cx="598.4" cy="198.0" r="3" fill="#8a5a5a"/><circle cx="603.1" cy="198.0" r="3" fill="#8a5a5a"/><circle cx="607.8" cy="198.0" r="3" fill="#8a5a5a"/><circle cx="612.4" cy="198.0" r="3" fill="#8a5a5a"/><circle cx="617.1" cy="198.0" r="3" fill="#8a5a5a"/><circle cx="621.8" cy="198.0" r="3" fill="#8a5a5a"/><circle cx="626.5" cy="198.0" r="3" fill="#8a5a5a"/><circle cx="631.2" cy="198.0" r="3" fill="#8a5a5a"/><circle cx="635.9" cy="198.0" r="3" fill="#8a5a5a"/><circle cx="640.6" cy="198.0" r="3" fill="#8a5a5a"/><circle cx="645.3" cy="198.0" r="3" fill="#8a5a5a"/><circle cx="649.9" cy="198.0" r="3" fill="#8a5a5a"/><circle cx="654.6" cy="198.0" r="3" fill="#8a5a5a"/><circle cx="659.3" cy="198.0" r="3" fill="#8a5a5a"/><circle cx="664.0" cy="198.0" r="3" fill="#8a5a5a"/>
<polyline fill="none" stroke="#3fb950" stroke-width="2.5" stroke-linejoin="round" points="36.0,198.0 40.7,198.0 45.4,198.0 50.1,198.0 54.7,198.0 59.4,198.0 64.1,198.0 68.8,198.0 73.5,198.0 78.2,198.0 82.9,198.0 87.6,198.0 92.2,198.0 96.9,198.0 101.6,198.0 106.3,198.0 111.0,198.0 115.7,198.0 120.4,198.0 125.0,198.0 129.7,198.0 134.4,198.0 139.1,198.0 143.8,198.0 148.5,198.0 153.2,198.0 157.9,198.0 162.5,198.0 167.2,198.0 171.9,198.0 176.6,198.0 181.3,198.0 186.0,198.0 190.7,198.0 195.3,198.0 200.0,198.0 204.7,198.0 209.4,198.0 214.1,198.0 218.8,198.0 223.5,198.0 228.1,198.0 232.8,198.0 237.5,191.7 242.2,191.7 246.9,191.7 251.6,191.7 256.3,191.7 261.0,191.7 265.6,191.7 270.3,192.9 275.0,192.9 279.7,190.7 284.4,190.7 289.1,190.7 293.8,190.7 298.4,190.7 303.1,190.5 307.8,190.5 312.5,190.5 317.2,190.3 321.9,190.3 326.6,190.3 331.3,190.3 335.9,190.3 340.6,190.3 345.3,190.3 350.0,190.3 354.7,190.3 359.4,190.3 364.1,190.3 368.7,190.3 373.4,190.3 378.1,190.3 382.8,190.3 387.5,190.3 392.2,190.3 396.9,190.3 401.6,190.3 406.2,190.3 410.9,190.3 415.6,189.3 420.3,189.3 425.0,189.3 429.7,190.7 434.4,190.7 439.0,190.7 443.7,190.7 448.4,190.7 453.1,190.7 457.8,190.7 462.5,190.7 467.2,190.7 471.9,190.9 476.5,190.9 481.2,190.9 485.9,194.2 490.6,196.8 495.3,198.0 500.0,198.0 504.7,198.0 509.3,198.0 514.0,198.0 518.7,198.0 523.4,198.0 528.1,198.0 532.8,198.0 537.5,198.0 542.1,198.0 546.8,198.0 551.5,198.0 556.2,198.0 560.9,198.0 565.6,198.0 570.3,198.0 575.0,198.0 579.6,198.0 584.3,198.0 589.0,198.0 593.7,198.0 598.4,198.0 603.1,198.0 607.8,198.0 612.4,198.0 617.1,198.0 621.8,198.0 626.5,198.0 631.2,198.0 635.9,198.0 640.6,198.0 645.3,198.0 649.9,198.0 654.6,198.0 659.3,198.0 664.0,198.0"/><circle cx="36.0" cy="198.0" r="3" fill="#3fb950"/><circle cx="40.7" cy="198.0" r="3" fill="#3fb950"/><circle cx="45.4" cy="198.0" r="3" fill="#3fb950"/><circle cx="50.1" cy="198.0" r="3" fill="#3fb950"/><circle cx="54.7" cy="198.0" r="3" fill="#3fb950"/><circle cx="59.4" cy="198.0" r="3" fill="#3fb950"/><circle cx="64.1" cy="198.0" r="3" fill="#3fb950"/><circle cx="68.8" cy="198.0" r="3" fill="#3fb950"/><circle cx="73.5" cy="198.0" r="3" fill="#3fb950"/><circle cx="78.2" cy="198.0" r="3" fill="#3fb950"/><circle cx="82.9" cy="198.0" r="3" fill="#3fb950"/><circle cx="87.6" cy="198.0" r="3" fill="#3fb950"/><circle cx="92.2" cy="198.0" r="3" fill="#3fb950"/><circle cx="96.9" cy="198.0" r="3" fill="#3fb950"/><circle cx="101.6" cy="198.0" r="3" fill="#3fb950"/><circle cx="106.3" cy="198.0" r="3" fill="#3fb950"/><circle cx="111.0" cy="198.0" r="3" fill="#3fb950"/><circle cx="115.7" cy="198.0" r="3" fill="#3fb950"/><circle cx="120.4" cy="198.0" r="3" fill="#3fb950"/><circle cx="125.0" cy="198.0" r="3" fill="#3fb950"/><circle cx="129.7" cy="198.0" r="3" fill="#3fb950"/><circle cx="134.4" cy="198.0" r="3" fill="#3fb950"/><circle cx="139.1" cy="198.0" r="3" fill="#3fb950"/><circle cx="143.8" cy="198.0" r="3" fill="#3fb950"/><circle cx="148.5" cy="198.0" r="3" fill="#3fb950"/><circle cx="153.2" cy="198.0" r="3" fill="#3fb950"/><circle cx="157.9" cy="198.0" r="3" fill="#3fb950"/><circle cx="162.5" cy="198.0" r="3" fill="#3fb950"/><circle cx="167.2" cy="198.0" r="3" fill="#3fb950"/><circle cx="171.9" cy="198.0" r="3" fill="#3fb950"/><circle cx="176.6" cy="198.0" r="3" fill="#3fb950"/><circle cx="181.3" cy="198.0" r="3" fill="#3fb950"/><circle cx="186.0" cy="198.0" r="3" fill="#3fb950"/><circle cx="190.7" cy="198.0" r="3" fill="#3fb950"/><circle cx="195.3" cy="198.0" r="3" fill="#3fb950"/><circle cx="200.0" cy="198.0" r="3" fill="#3fb950"/><circle cx="204.7" cy="198.0" r="3" fill="#3fb950"/><circle cx="209.4" cy="198.0" r="3" fill="#3fb950"/><circle cx="214.1" cy="198.0" r="3" fill="#3fb950"/><circle cx="218.8" cy="198.0" r="3" fill="#3fb950"/><circle cx="223.5" cy="198.0" r="3" fill="#3fb950"/><circle cx="228.1" cy="198.0" r="3" fill="#3fb950"/><circle cx="232.8" cy="198.0" r="3" fill="#3fb950"/><circle cx="237.5" cy="191.7" r="3" fill="#3fb950"/><circle cx="242.2" cy="191.7" r="3" fill="#3fb950"/><circle cx="246.9" cy="191.7" r="3" fill="#3fb950"/><circle cx="251.6" cy="191.7" r="3" fill="#3fb950"/><circle cx="256.3" cy="191.7" r="3" fill="#3fb950"/><circle cx="261.0" cy="191.7" r="3" fill="#3fb950"/><circle cx="265.6" cy="191.7" r="3" fill="#3fb950"/><circle cx="270.3" cy="192.9" r="3" fill="#3fb950"/><circle cx="275.0" cy="192.9" r="3" fill="#3fb950"/><circle cx="279.7" cy="190.7" r="3" fill="#3fb950"/><circle cx="284.4" cy="190.7" r="3" fill="#3fb950"/><circle cx="289.1" cy="190.7" r="3" fill="#3fb950"/><circle cx="293.8" cy="190.7" r="3" fill="#3fb950"/><circle cx="298.4" cy="190.7" r="3" fill="#3fb950"/><circle cx="303.1" cy="190.5" r="3" fill="#3fb950"/><circle cx="307.8" cy="190.5" r="3" fill="#3fb950"/><circle cx="312.5" cy="190.5" r="3" fill="#3fb950"/><circle cx="317.2" cy="190.3" r="3" fill="#3fb950"/><circle cx="321.9" cy="190.3" r="3" fill="#3fb950"/><circle cx="326.6" cy="190.3" r="3" fill="#3fb950"/><circle cx="331.3" cy="190.3" r="3" fill="#3fb950"/><circle cx="335.9" cy="190.3" r="3" fill="#3fb950"/><circle cx="340.6" cy="190.3" r="3" fill="#3fb950"/><circle cx="345.3" cy="190.3" r="3" fill="#3fb950"/><circle cx="350.0" cy="190.3" r="3" fill="#3fb950"/><circle cx="354.7" cy="190.3" r="3" fill="#3fb950"/><circle cx="359.4" cy="190.3" r="3" fill="#3fb950"/><circle cx="364.1" cy="190.3" r="3" fill="#3fb950"/><circle cx="368.7" cy="190.3" r="3" fill="#3fb950"/><circle cx="373.4" cy="190.3" r="3" fill="#3fb950"/><circle cx="378.1" cy="190.3" r="3" fill="#3fb950"/><circle cx="382.8" cy="190.3" r="3" fill="#3fb950"/><circle cx="387.5" cy="190.3" r="3" fill="#3fb950"/><circle cx="392.2" cy="190.3" r="3" fill="#3fb950"/><circle cx="396.9" cy="190.3" r="3" fill="#3fb950"/><circle cx="401.6" cy="190.3" r="3" fill="#3fb950"/><circle cx="406.2" cy="190.3" r="3" fill="#3fb950"/><circle cx="410.9" cy="190.3" r="3" fill="#3fb950"/><circle cx="415.6" cy="189.3" r="3" fill="#3fb950"/><circle cx="420.3" cy="189.3" r="3" fill="#3fb950"/><circle cx="425.0" cy="189.3" r="3" fill="#3fb950"/><circle cx="429.7" cy="190.7" r="3" fill="#3fb950"/><circle cx="434.4" cy="190.7" r="3" fill="#3fb950"/><circle cx="439.0" cy="190.7" r="3" fill="#3fb950"/><circle cx="443.7" cy="190.7" r="3" fill="#3fb950"/><circle cx="448.4" cy="190.7" r="3" fill="#3fb950"/><circle cx="453.1" cy="190.7" r="3" fill="#3fb950"/><circle cx="457.8" cy="190.7" r="3" fill="#3fb950"/><circle cx="462.5" cy="190.7" r="3" fill="#3fb950"/><circle cx="467.2" cy="190.7" r="3" fill="#3fb950"/><circle cx="471.9" cy="190.9" r="3" fill="#3fb950"/><circle cx="476.5" cy="190.9" r="3" fill="#3fb950"/><circle cx="481.2" cy="190.9" r="3" fill="#3fb950"/><circle cx="485.9" cy="194.2" r="3" fill="#3fb950"/><circle cx="490.6" cy="196.8" r="3" fill="#3fb950"/><circle cx="495.3" cy="198.0" r="3" fill="#3fb950"/><circle cx="500.0" cy="198.0" r="3" fill="#3fb950"/><circle cx="504.7" cy="198.0" r="3" fill="#3fb950"/><circle cx="509.3" cy="198.0" r="3" fill="#3fb950"/><circle cx="514.0" cy="198.0" r="3" fill="#3fb950"/><circle cx="518.7" cy="198.0" r="3" fill="#3fb950"/><circle cx="523.4" cy="198.0" r="3" fill="#3fb950"/><circle cx="528.1" cy="198.0" r="3" fill="#3fb950"/><circle cx="532.8" cy="198.0" r="3" fill="#3fb950"/><circle cx="537.5" cy="198.0" r="3" fill="#3fb950"/><circle cx="542.1" cy="198.0" r="3" fill="#3fb950"/><circle cx="546.8" cy="198.0" r="3" fill="#3fb950"/><circle cx="551.5" cy="198.0" r="3" fill="#3fb950"/><circle cx="556.2" cy="198.0" r="3" fill="#3fb950"/><circle cx="560.9" cy="198.0" r="3" fill="#3fb950"/><circle cx="565.6" cy="198.0" r="3" fill="#3fb950"/><circle cx="570.3" cy="198.0" r="3" fill="#3fb950"/><circle cx="575.0" cy="198.0" r="3" fill="#3fb950"/><circle cx="579.6" cy="198.0" r="3" fill="#3fb950"/><circle cx="584.3" cy="198.0" r="3" fill="#3fb950"/><circle cx="589.0" cy="198.0" r="3" fill="#3fb950"/><circle cx="593.7" cy="198.0" r="3" fill="#3fb950"/><circle cx="598.4" cy="198.0" r="3" fill="#3fb950"/><circle cx="603.1" cy="198.0" r="3" fill="#3fb950"/><circle cx="607.8" cy="198.0" r="3" fill="#3fb950"/><circle cx="612.4" cy="198.0" r="3" fill="#3fb950"/><circle cx="617.1" cy="198.0" r="3" fill="#3fb950"/><circle cx="621.8" cy="198.0" r="3" fill="#3fb950"/><circle cx="626.5" cy="198.0" r="3" fill="#3fb950"/><circle cx="631.2" cy="198.0" r="3" fill="#3fb950"/><circle cx="635.9" cy="198.0" r="3" fill="#3fb950"/><circle cx="640.6" cy="198.0" r="3" fill="#3fb950"/><circle cx="645.3" cy="198.0" r="3" fill="#3fb950"/><circle cx="649.9" cy="198.0" r="3" fill="#3fb950"/><circle cx="654.6" cy="198.0" r="3" fill="#3fb950"/><circle cx="659.3" cy="198.0" r="3" fill="#3fb950"/><circle cx="664.0" cy="198.0" r="3" fill="#3fb950"/>
<polyline fill="none" stroke="#4aa3ff" stroke-width="2.5" stroke-linejoin="round" points="36.0,144.3 40.7,144.3 45.4,144.3 50.1,144.3 54.7,144.3 59.4,144.3 64.1,144.3 68.8,144.3 73.5,144.3 78.2,144.3 82.9,144.3 87.6,144.3 92.2,144.3 96.9,144.3 101.6,144.3 106.3,136.2 111.0,132.4 115.7,129.6 120.4,129.6 125.0,121.0 129.7,121.0 134.4,121.0 139.1,114.4 143.8,114.4 148.5,114.4 153.2,111.3 157.9,110.9 162.5,110.9 167.2,110.5 171.9,110.5 176.6,109.9 181.3,108.7 186.0,107.3 190.7,106.9 195.3,106.9 200.0,106.9 204.7,106.9 209.4,106.9 214.1,106.9 218.8,106.9 223.5,106.9 228.1,106.9 232.8,106.9 237.5,113.2 242.2,113.2 246.9,113.2 251.6,113.2 256.3,113.2 261.0,110.7 265.6,105.3 270.3,83.4 275.0,83.4 279.7,85.6 284.4,85.6 289.1,85.6 293.8,85.6 298.4,85.6 303.1,85.8 307.8,85.8 312.5,85.8 317.2,86.0 321.9,86.0 326.6,86.0 331.3,86.0 335.9,86.0 340.6,86.0 345.3,86.0 350.0,86.0 354.7,86.0 359.4,86.0 364.1,86.0 368.7,86.0 373.4,86.0 378.1,86.0 382.8,86.0 387.5,86.0 392.2,86.0 396.9,86.0 401.6,86.0 406.2,86.0 410.9,86.0 415.6,87.0 420.3,87.0 425.0,87.0 429.7,73.7 434.4,73.7 439.0,71.0 443.7,71.0 448.4,70.8 453.1,70.6 457.8,70.6 462.5,70.4 467.2,68.6 471.9,60.5 476.5,59.3 481.2,52.0 485.9,47.3 490.6,40.1 495.3,36.0 500.0,36.0 504.7,36.0 509.3,36.0 514.0,36.0 518.7,36.0 523.4,36.0 528.1,36.0 532.8,36.0 537.5,36.0 542.1,36.0 546.8,36.0 551.5,36.0 556.2,36.0 560.9,36.0 565.6,36.0 570.3,36.0 575.0,36.0 579.6,36.0 584.3,36.0 589.0,36.0 593.7,36.0 598.4,36.0 603.1,36.0 607.8,36.0 612.4,36.0 617.1,36.0 621.8,36.0 626.5,36.0 631.2,36.0 635.9,36.0 640.6,36.0 645.3,36.0 649.9,36.0 654.6,36.0 659.3,36.0 664.0,36.0"/><circle cx="36.0" cy="144.3" r="3" fill="#4aa3ff"/><circle cx="40.7" cy="144.3" r="3" fill="#4aa3ff"/><circle cx="45.4" cy="144.3" r="3" fill="#4aa3ff"/><circle cx="50.1" cy="144.3" r="3" fill="#4aa3ff"/><circle cx="54.7" cy="144.3" r="3" fill="#4aa3ff"/><circle cx="59.4" cy="144.3" r="3" fill="#4aa3ff"/><circle cx="64.1" cy="144.3" r="3" fill="#4aa3ff"/><circle cx="68.8" cy="144.3" r="3" fill="#4aa3ff"/><circle cx="73.5" cy="144.3" r="3" fill="#4aa3ff"/><circle cx="78.2" cy="144.3" r="3" fill="#4aa3ff"/><circle cx="82.9" cy="144.3" r="3" fill="#4aa3ff"/><circle cx="87.6" cy="144.3" r="3" fill="#4aa3ff"/><circle cx="92.2" cy="144.3" r="3" fill="#4aa3ff"/><circle cx="96.9" cy="144.3" r="3" fill="#4aa3ff"/><circle cx="101.6" cy="144.3" r="3" fill="#4aa3ff"/><circle cx="106.3" cy="136.2" r="3" fill="#4aa3ff"/><circle cx="111.0" cy="132.4" r="3" fill="#4aa3ff"/><circle cx="115.7" cy="129.6" r="3" fill="#4aa3ff"/><circle cx="120.4" cy="129.6" r="3" fill="#4aa3ff"/><circle cx="125.0" cy="121.0" r="3" fill="#4aa3ff"/><circle cx="129.7" cy="121.0" r="3" fill="#4aa3ff"/><circle cx="134.4" cy="121.0" r="3" fill="#4aa3ff"/><circle cx="139.1" cy="114.4" r="3" fill="#4aa3ff"/><circle cx="143.8" cy="114.4" r="3" fill="#4aa3ff"/><circle cx="148.5" cy="114.4" r="3" fill="#4aa3ff"/><circle cx="153.2" cy="111.3" r="3" fill="#4aa3ff"/><circle cx="157.9" cy="110.9" r="3" fill="#4aa3ff"/><circle cx="162.5" cy="110.9" r="3" fill="#4aa3ff"/><circle cx="167.2" cy="110.5" r="3" fill="#4aa3ff"/><circle cx="171.9" cy="110.5" r="3" fill="#4aa3ff"/><circle cx="176.6" cy="109.9" r="3" fill="#4aa3ff"/><circle cx="181.3" cy="108.7" r="3" fill="#4aa3ff"/><circle cx="186.0" cy="107.3" r="3" fill="#4aa3ff"/><circle cx="190.7" cy="106.9" r="3" fill="#4aa3ff"/><circle cx="195.3" cy="106.9" r="3" fill="#4aa3ff"/><circle cx="200.0" cy="106.9" r="3" fill="#4aa3ff"/><circle cx="204.7" cy="106.9" r="3" fill="#4aa3ff"/><circle cx="209.4" cy="106.9" r="3" fill="#4aa3ff"/><circle cx="214.1" cy="106.9" r="3" fill="#4aa3ff"/><circle cx="218.8" cy="106.9" r="3" fill="#4aa3ff"/><circle cx="223.5" cy="106.9" r="3" fill="#4aa3ff"/><circle cx="228.1" cy="106.9" r="3" fill="#4aa3ff"/><circle cx="232.8" cy="106.9" r="3" fill="#4aa3ff"/><circle cx="237.5" cy="113.2" r="3" fill="#4aa3ff"/><circle cx="242.2" cy="113.2" r="3" fill="#4aa3ff"/><circle cx="246.9" cy="113.2" r="3" fill="#4aa3ff"/><circle cx="251.6" cy="113.2" r="3" fill="#4aa3ff"/><circle cx="256.3" cy="113.2" r="3" fill="#4aa3ff"/><circle cx="261.0" cy="110.7" r="3" fill="#4aa3ff"/><circle cx="265.6" cy="105.3" r="3" fill="#4aa3ff"/><circle cx="270.3" cy="83.4" r="3" fill="#4aa3ff"/><circle cx="275.0" cy="83.4" r="3" fill="#4aa3ff"/><circle cx="279.7" cy="85.6" r="3" fill="#4aa3ff"/><circle cx="284.4" cy="85.6" r="3" fill="#4aa3ff"/><circle cx="289.1" cy="85.6" r="3" fill="#4aa3ff"/><circle cx="293.8" cy="85.6" r="3" fill="#4aa3ff"/><circle cx="298.4" cy="85.6" r="3" fill="#4aa3ff"/><circle cx="303.1" cy="85.8" r="3" fill="#4aa3ff"/><circle cx="307.8" cy="85.8" r="3" fill="#4aa3ff"/><circle cx="312.5" cy="85.8" r="3" fill="#4aa3ff"/><circle cx="317.2" cy="86.0" r="3" fill="#4aa3ff"/><circle cx="321.9" cy="86.0" r="3" fill="#4aa3ff"/><circle cx="326.6" cy="86.0" r="3" fill="#4aa3ff"/><circle cx="331.3" cy="86.0" r="3" fill="#4aa3ff"/><circle cx="335.9" cy="86.0" r="3" fill="#4aa3ff"/><circle cx="340.6" cy="86.0" r="3" fill="#4aa3ff"/><circle cx="345.3" cy="86.0" r="3" fill="#4aa3ff"/><circle cx="350.0" cy="86.0" r="3" fill="#4aa3ff"/><circle cx="354.7" cy="86.0" r="3" fill="#4aa3ff"/><circle cx="359.4" cy="86.0" r="3" fill="#4aa3ff"/><circle cx="364.1" cy="86.0" r="3" fill="#4aa3ff"/><circle cx="368.7" cy="86.0" r="3" fill="#4aa3ff"/><circle cx="373.4" cy="86.0" r="3" fill="#4aa3ff"/><circle cx="378.1" cy="86.0" r="3" fill="#4aa3ff"/><circle cx="382.8" cy="86.0" r="3" fill="#4aa3ff"/><circle cx="387.5" cy="86.0" r="3" fill="#4aa3ff"/><circle cx="392.2" cy="86.0" r="3" fill="#4aa3ff"/><circle cx="396.9" cy="86.0" r="3" fill="#4aa3ff"/><circle cx="401.6" cy="86.0" r="3" fill="#4aa3ff"/><circle cx="406.2" cy="86.0" r="3" fill="#4aa3ff"/><circle cx="410.9" cy="86.0" r="3" fill="#4aa3ff"/><circle cx="415.6" cy="87.0" r="3" fill="#4aa3ff"/><circle cx="420.3" cy="87.0" r="3" fill="#4aa3ff"/><circle cx="425.0" cy="87.0" r="3" fill="#4aa3ff"/><circle cx="429.7" cy="73.7" r="3" fill="#4aa3ff"/><circle cx="434.4" cy="73.7" r="3" fill="#4aa3ff"/><circle cx="439.0" cy="71.0" r="3" fill="#4aa3ff"/><circle cx="443.7" cy="71.0" r="3" fill="#4aa3ff"/><circle cx="448.4" cy="70.8" r="3" fill="#4aa3ff"/><circle cx="453.1" cy="70.6" r="3" fill="#4aa3ff"/><circle cx="457.8" cy="70.6" r="3" fill="#4aa3ff"/><circle cx="462.5" cy="70.4" r="3" fill="#4aa3ff"/><circle cx="467.2" cy="68.6" r="3" fill="#4aa3ff"/><circle cx="471.9" cy="60.5" r="3" fill="#4aa3ff"/><circle cx="476.5" cy="59.3" r="3" fill="#4aa3ff"/><circle cx="481.2" cy="52.0" r="3" fill="#4aa3ff"/><circle cx="485.9" cy="47.3" r="3" fill="#4aa3ff"/><circle cx="490.6" cy="40.1" r="3" fill="#4aa3ff"/><circle cx="495.3" cy="36.0" r="3" fill="#4aa3ff"/><circle cx="500.0" cy="36.0" r="3" fill="#4aa3ff"/><circle cx="504.7" cy="36.0" r="3" fill="#4aa3ff"/><circle cx="509.3" cy="36.0" r="3" fill="#4aa3ff"/><circle cx="514.0" cy="36.0" r="3" fill="#4aa3ff"/><circle cx="518.7" cy="36.0" r="3" fill="#4aa3ff"/><circle cx="523.4" cy="36.0" r="3" fill="#4aa3ff"/><circle cx="528.1" cy="36.0" r="3" fill="#4aa3ff"/><circle cx="532.8" cy="36.0" r="3" fill="#4aa3ff"/><circle cx="537.5" cy="36.0" r="3" fill="#4aa3ff"/><circle cx="542.1" cy="36.0" r="3" fill="#4aa3ff"/><circle cx="546.8" cy="36.0" r="3" fill="#4aa3ff"/><circle cx="551.5" cy="36.0" r="3" fill="#4aa3ff"/><circle cx="556.2" cy="36.0" r="3" fill="#4aa3ff"/><circle cx="560.9" cy="36.0" r="3" fill="#4aa3ff"/><circle cx="565.6" cy="36.0" r="3" fill="#4aa3ff"/><circle cx="570.3" cy="36.0" r="3" fill="#4aa3ff"/><circle cx="575.0" cy="36.0" r="3" fill="#4aa3ff"/><circle cx="579.6" cy="36.0" r="3" fill="#4aa3ff"/><circle cx="584.3" cy="36.0" r="3" fill="#4aa3ff"/><circle cx="589.0" cy="36.0" r="3" fill="#4aa3ff"/><circle cx="593.7" cy="36.0" r="3" fill="#4aa3ff"/><circle cx="598.4" cy="36.0" r="3" fill="#4aa3ff"/><circle cx="603.1" cy="36.0" r="3" fill="#4aa3ff"/><circle cx="607.8" cy="36.0" r="3" fill="#4aa3ff"/><circle cx="612.4" cy="36.0" r="3" fill="#4aa3ff"/><circle cx="617.1" cy="36.0" r="3" fill="#4aa3ff"/><circle cx="621.8" cy="36.0" r="3" fill="#4aa3ff"/><circle cx="626.5" cy="36.0" r="3" fill="#4aa3ff"/><circle cx="631.2" cy="36.0" r="3" fill="#4aa3ff"/><circle cx="635.9" cy="36.0" r="3" fill="#4aa3ff"/><circle cx="640.6" cy="36.0" r="3" fill="#4aa3ff"/><circle cx="645.3" cy="36.0" r="3" fill="#4aa3ff"/><circle cx="649.9" cy="36.0" r="3" fill="#4aa3ff"/><circle cx="654.6" cy="36.0" r="3" fill="#4aa3ff"/><circle cx="659.3" cy="36.0" r="3" fill="#4aa3ff"/><circle cx="664.0" cy="36.0" r="3" fill="#4aa3ff"/>
<text x="36" y="225" fill="#6b7280" font-size="11">2026-06-26</text>
<text x="664" y="225" fill="#6b7280" font-size="11" text-anchor="end">2026-07-11</text>
<text x="36" y="212" font-family="system-ui,sans-serif" font-size="11">
<tspan fill="#4aa3ff">&#9679; open FPs</tspan>  <tspan fill="#3fb950">&#9679; closed (Anthropic acting)</tspan>  <tspan fill="#8a5a5a">&#9679; harness withdrawn</tspan></text>
<text x="664" y="22" text-anchor="end" font-family="system-ui,sans-serif" font-size="12">
<tspan fill="#4aa3ff">open 800</tspan>  <tspan fill="#3fb950">closed 0</tspan>  <tspan fill="#8a5a5a">harness 0</tspan></text>
</svg>