<svg xmlns="http://www.w3.org/2000/svg" width="700" height="234" viewBox="0 0 700 234" role="img">
<rect width="700" height="234" rx="12" fill="#16181d"/>
<text x="36" y="22" fill="#e8eaed" font-family="system-ui,sans-serif" font-size="14" font-weight="700">Is Anthropic acting? cyber/aup false positives over time</text>
<line x1="36" y1="198.0" x2="664" y2="198.0" stroke="#2a2e37" stroke-width="1"/><text x="30" y="202.0" fill="#6b7280" font-size="11" text-anchor="end">0</text><line x1="36" y1="117.0" x2="664" y2="117.0" stroke="#2a2e37" stroke-width="1"/><text x="30" y="121.0" fill="#6b7280" font-size="11" text-anchor="end">400</text><line x1="36" y1="36.0" x2="664" y2="36.0" stroke="#2a2e37" stroke-width="1"/><text x="30" y="40.0" fill="#6b7280" font-size="11" text-anchor="end">800</text>

<polyline fill="none" stroke="#8a5a5a" stroke-width="2.5" stroke-linejoin="round" points="36.0,145.1 40.4,145.1 44.7,145.1 49.1,145.1 53.4,145.1 57.8,145.1 62.2,145.1 66.5,145.1 70.9,145.1 75.2,145.1 79.6,145.1 84.0,145.1 88.3,145.1 92.7,145.1 97.1,145.1 101.4,145.1 105.8,145.1 110.1,145.1 114.5,145.1 118.9,145.1 123.2,145.1 127.6,145.1 131.9,145.1 136.3,145.1 140.7,145.1 145.0,145.1 149.4,145.1 153.8,145.1 158.1,145.1 162.5,145.1 166.8,145.1 171.2,145.1 175.6,145.1 179.9,145.1 184.3,145.1 188.6,145.1 193.0,145.1 197.4,145.1 201.7,145.1 206.1,145.1 210.4,145.1 214.8,145.1 219.2,145.1 223.5,145.1 227.9,145.1 232.2,145.1 236.6,145.1 241.0,145.1 245.3,145.1 249.7,145.1 254.1,155.7 258.4,155.7 262.8,155.7 267.1,155.7 271.5,155.7 275.9,155.7 280.2,155.7 284.6,155.7 288.9,155.7 293.3,155.7 297.7,155.7 302.0,155.7 306.4,155.7 310.8,155.7 315.1,155.7 319.5,155.7 323.8,155.7 328.2,155.7 332.6,155.7 336.9,155.7 341.3,155.7 345.6,155.7 350.0,155.7 354.4,155.7 358.7,155.7 363.1,155.7 367.4,155.7 371.8,155.7 376.2,155.7 380.5,155.7 384.9,155.7 389.2,155.7 393.6,155.7 398.0,155.7 402.3,167.6 406.7,167.6 411.1,170.3 415.4,170.3 419.8,170.5 424.1,170.7 428.5,170.7 432.9,170.9 437.2,172.7 441.6,180.6 445.9,181.8 450.3,189.1 454.7,190.5 459.0,195.2 463.4,198.0 467.8,198.0 472.1,198.0 476.5,198.0 480.8,198.0 485.2,198.0 489.6,198.0 493.9,198.0 498.3,198.0 502.6,198.0 507.0,198.0 511.4,198.0 515.7,198.0 520.1,198.0 524.4,198.0 528.8,198.0 533.2,198.0 537.5,198.0 541.9,198.0 546.2,198.0 550.6,198.0 555.0,198.0 559.3,198.0 563.7,198.0 568.1,198.0 572.4,198.0 576.8,198.0 581.1,198.0 585.5,198.0 589.9,198.0 594.2,198.0 598.6,198.0 602.9,198.0 607.3,198.0 611.7,198.0 616.0,198.0 620.4,198.0 624.8,198.0 629.1,198.0 633.5,198.0 637.8,198.0 642.2,198.0 646.6,198.0 650.9,198.0 655.3,198.0 659.6,198.0 664.0,198.0"/><circle cx="36.0" cy="145.1" r="3" fill="#8a5a5a"/><circle cx="40.4" cy="145.1" r="3" fill="#8a5a5a"/><circle cx="44.7" cy="145.1" r="3" fill="#8a5a5a"/><circle cx="49.1" cy="145.1" r="3" fill="#8a5a5a"/><circle cx="53.4" cy="145.1" r="3" fill="#8a5a5a"/><circle cx="57.8" cy="145.1" r="3" fill="#8a5a5a"/><circle cx="62.2" cy="145.1" r="3" fill="#8a5a5a"/><circle cx="66.5" cy="145.1" r="3" fill="#8a5a5a"/><circle cx="70.9" cy="145.1" r="3" fill="#8a5a5a"/><circle cx="75.2" cy="145.1" r="3" fill="#8a5a5a"/><circle cx="79.6" cy="145.1" r="3" fill="#8a5a5a"/><circle cx="84.0" cy="145.1" r="3" fill="#8a5a5a"/><circle cx="88.3" cy="145.1" r="3" fill="#8a5a5a"/><circle cx="92.7" cy="145.1" r="3" fill="#8a5a5a"/><circle cx="97.1" cy="145.1" r="3" fill="#8a5a5a"/><circle cx="101.4" cy="145.1" r="3" fill="#8a5a5a"/><circle cx="105.8" cy="145.1" r="3" fill="#8a5a5a"/><circle cx="110.1" cy="145.1" r="3" fill="#8a5a5a"/><circle cx="114.5" cy="145.1" r="3" fill="#8a5a5a"/><circle cx="118.9" cy="145.1" r="3" fill="#8a5a5a"/><circle cx="123.2" cy="145.1" r="3" fill="#8a5a5a"/><circle cx="127.6" cy="145.1" r="3" fill="#8a5a5a"/><circle cx="131.9" cy="145.1" r="3" fill="#8a5a5a"/><circle cx="136.3" cy="145.1" r="3" fill="#8a5a5a"/><circle cx="140.7" cy="145.1" r="3" fill="#8a5a5a"/><circle cx="145.0" cy="145.1" r="3" fill="#8a5a5a"/><circle cx="149.4" cy="145.1" r="3" fill="#8a5a5a"/><circle cx="153.8" cy="145.1" r="3" fill="#8a5a5a"/><circle cx="158.1" cy="145.1" r="3" fill="#8a5a5a"/><circle cx="162.5" cy="145.1" r="3" fill="#8a5a5a"/><circle cx="166.8" cy="145.1" r="3" fill="#8a5a5a"/><circle cx="171.2" cy="145.1" r="3" fill="#8a5a5a"/><circle cx="175.6" cy="145.1" r="3" fill="#8a5a5a"/><circle cx="179.9" cy="145.1" r="3" fill="#8a5a5a"/><circle cx="184.3" cy="145.1" r="3" fill="#8a5a5a"/><circle cx="188.6" cy="145.1" r="3" fill="#8a5a5a"/><circle cx="193.0" cy="145.1" r="3" fill="#8a5a5a"/><circle cx="197.4" cy="145.1" r="3" fill="#8a5a5a"/><circle cx="201.7" cy="145.1" r="3" fill="#8a5a5a"/><circle cx="206.1" cy="145.1" r="3" fill="#8a5a5a"/><circle cx="210.4" cy="145.1" r="3" fill="#8a5a5a"/><circle cx="214.8" cy="145.1" r="3" fill="#8a5a5a"/><circle cx="219.2" cy="145.1" r="3" fill="#8a5a5a"/><circle cx="223.5" cy="145.1" r="3" fill="#8a5a5a"/><circle cx="227.9" cy="145.1" r="3" fill="#8a5a5a"/><circle cx="232.2" cy="145.1" r="3" fill="#8a5a5a"/><circle cx="236.6" cy="145.1" r="3" fill="#8a5a5a"/><circle cx="241.0" cy="145.1" r="3" fill="#8a5a5a"/><circle cx="245.3" cy="145.1" r="3" fill="#8a5a5a"/><circle cx="249.7" cy="145.1" r="3" fill="#8a5a5a"/><circle cx="254.1" cy="155.7" r="3" fill="#8a5a5a"/><circle cx="258.4" cy="155.7" r="3" fill="#8a5a5a"/><circle cx="262.8" cy="155.7" r="3" fill="#8a5a5a"/><circle cx="267.1" cy="155.7" r="3" fill="#8a5a5a"/><circle cx="271.5" cy="155.7" r="3" fill="#8a5a5a"/><circle cx="275.9" cy="155.7" r="3" fill="#8a5a5a"/><circle cx="280.2" cy="155.7" r="3" fill="#8a5a5a"/><circle cx="284.6" cy="155.7" r="3" fill="#8a5a5a"/><circle cx="288.9" cy="155.7" r="3" fill="#8a5a5a"/><circle cx="293.3" cy="155.7" r="3" fill="#8a5a5a"/><circle cx="297.7" cy="155.7" r="3" fill="#8a5a5a"/><circle cx="302.0" cy="155.7" r="3" fill="#8a5a5a"/><circle cx="306.4" cy="155.7" r="3" fill="#8a5a5a"/><circle cx="310.8" cy="155.7" r="3" fill="#8a5a5a"/><circle cx="315.1" cy="155.7" r="3" fill="#8a5a5a"/><circle cx="319.5" cy="155.7" r="3" fill="#8a5a5a"/><circle cx="323.8" cy="155.7" r="3" fill="#8a5a5a"/><circle cx="328.2" cy="155.7" r="3" fill="#8a5a5a"/><circle cx="332.6" cy="155.7" r="3" fill="#8a5a5a"/><circle cx="336.9" cy="155.7" r="3" fill="#8a5a5a"/><circle cx="341.3" cy="155.7" r="3" fill="#8a5a5a"/><circle cx="345.6" cy="155.7" r="3" fill="#8a5a5a"/><circle cx="350.0" cy="155.7" r="3" fill="#8a5a5a"/><circle cx="354.4" cy="155.7" r="3" fill="#8a5a5a"/><circle cx="358.7" cy="155.7" r="3" fill="#8a5a5a"/><circle cx="363.1" cy="155.7" r="3" fill="#8a5a5a"/><circle cx="367.4" cy="155.7" r="3" fill="#8a5a5a"/><circle cx="371.8" cy="155.7" r="3" fill="#8a5a5a"/><circle cx="376.2" cy="155.7" r="3" fill="#8a5a5a"/><circle cx="380.5" cy="155.7" r="3" fill="#8a5a5a"/><circle cx="384.9" cy="155.7" r="3" fill="#8a5a5a"/><circle cx="389.2" cy="155.7" r="3" fill="#8a5a5a"/><circle cx="393.6" cy="155.7" r="3" fill="#8a5a5a"/><circle cx="398.0" cy="155.7" r="3" fill="#8a5a5a"/><circle cx="402.3" cy="167.6" r="3" fill="#8a5a5a"/><circle cx="406.7" cy="167.6" r="3" fill="#8a5a5a"/><circle cx="411.1" cy="170.3" r="3" fill="#8a5a5a"/><circle cx="415.4" cy="170.3" r="3" fill="#8a5a5a"/><circle cx="419.8" cy="170.5" r="3" fill="#8a5a5a"/><circle cx="424.1" cy="170.7" r="3" fill="#8a5a5a"/><circle cx="428.5" cy="170.7" r="3" fill="#8a5a5a"/><circle cx="432.9" cy="170.9" r="3" fill="#8a5a5a"/><circle cx="437.2" cy="172.7" r="3" fill="#8a5a5a"/><circle cx="441.6" cy="180.6" r="3" fill="#8a5a5a"/><circle cx="445.9" cy="181.8" r="3" fill="#8a5a5a"/><circle cx="450.3" cy="189.1" r="3" fill="#8a5a5a"/><circle cx="454.7" cy="190.5" r="3" fill="#8a5a5a"/><circle cx="459.0" cy="195.2" r="3" fill="#8a5a5a"/><circle cx="463.4" cy="198.0" r="3" fill="#8a5a5a"/><circle cx="467.8" cy="198.0" r="3" fill="#8a5a5a"/><circle cx="472.1" cy="198.0" r="3" fill="#8a5a5a"/><circle cx="476.5" cy="198.0" r="3" fill="#8a5a5a"/><circle cx="480.8" cy="198.0" r="3" fill="#8a5a5a"/><circle cx="485.2" cy="198.0" r="3" fill="#8a5a5a"/><circle cx="489.6" cy="198.0" r="3" fill="#8a5a5a"/><circle cx="493.9" cy="198.0" r="3" fill="#8a5a5a"/><circle cx="498.3" cy="198.0" r="3" fill="#8a5a5a"/><circle cx="502.6" cy="198.0" r="3" fill="#8a5a5a"/><circle cx="507.0" cy="198.0" r="3" fill="#8a5a5a"/><circle cx="511.4" cy="198.0" r="3" fill="#8a5a5a"/><circle cx="515.7" cy="198.0" r="3" fill="#8a5a5a"/><circle cx="520.1" cy="198.0" r="3" fill="#8a5a5a"/><circle cx="524.4" cy="198.0" r="3" fill="#8a5a5a"/><circle cx="528.8" cy="198.0" r="3" fill="#8a5a5a"/><circle cx="533.2" cy="198.0" r="3" fill="#8a5a5a"/><circle cx="537.5" cy="198.0" r="3" fill="#8a5a5a"/><circle cx="541.9" cy="198.0" r="3" fill="#8a5a5a"/><circle cx="546.2" cy="198.0" r="3" fill="#8a5a5a"/><circle cx="550.6" cy="198.0" r="3" fill="#8a5a5a"/><circle cx="555.0" cy="198.0" r="3" fill="#8a5a5a"/><circle cx="559.3" cy="198.0" r="3" fill="#8a5a5a"/><circle cx="563.7" cy="198.0" r="3" fill="#8a5a5a"/><circle cx="568.1" cy="198.0" r="3" fill="#8a5a5a"/><circle cx="572.4" cy="198.0" r="3" fill="#8a5a5a"/><circle cx="576.8" cy="198.0" r="3" fill="#8a5a5a"/><circle cx="581.1" cy="198.0" r="3" fill="#8a5a5a"/><circle cx="585.5" cy="198.0" r="3" fill="#8a5a5a"/><circle cx="589.9" cy="198.0" r="3" fill="#8a5a5a"/><circle cx="594.2" cy="198.0" r="3" fill="#8a5a5a"/><circle cx="598.6" cy="198.0" r="3" fill="#8a5a5a"/><circle cx="602.9" cy="198.0" r="3" fill="#8a5a5a"/><circle cx="607.3" cy="198.0" r="3" fill="#8a5a5a"/><circle cx="611.7" cy="198.0" r="3" fill="#8a5a5a"/><circle cx="616.0" cy="198.0" r="3" fill="#8a5a5a"/><circle cx="620.4" cy="198.0" r="3" fill="#8a5a5a"/><circle cx="624.8" cy="198.0" r="3" fill="#8a5a5a"/><circle cx="629.1" cy="198.0" r="3" fill="#8a5a5a"/><circle cx="633.5" cy="198.0" r="3" fill="#8a5a5a"/><circle cx="637.8" cy="198.0" r="3" fill="#8a5a5a"/><circle cx="642.2" cy="198.0" r="3" fill="#8a5a5a"/><circle cx="646.6" cy="198.0" r="3" fill="#8a5a5a"/><circle cx="650.9" cy="198.0" r="3" fill="#8a5a5a"/><circle cx="655.3" cy="198.0" r="3" fill="#8a5a5a"/><circle cx="659.6" cy="198.0" r="3" fill="#8a5a5a"/><circle cx="664.0" cy="198.0" r="3" fill="#8a5a5a"/>
<polyline fill="none" stroke="#3fb950" stroke-width="2.5" stroke-linejoin="round" points="36.0,198.0 40.4,198.0 44.7,198.0 49.1,198.0 53.4,198.0 57.8,198.0 62.2,198.0 66.5,198.0 70.9,198.0 75.2,198.0 79.6,198.0 84.0,198.0 88.3,198.0 92.7,198.0 97.1,198.0 101.4,198.0 105.8,198.0 110.1,198.0 114.5,198.0 118.9,198.0 123.2,198.0 127.6,198.0 131.9,198.0 136.3,198.0 140.7,198.0 145.0,198.0 149.4,198.0 153.8,198.0 158.1,198.0 162.5,198.0 166.8,198.0 171.2,198.0 175.6,198.0 179.9,198.0 184.3,198.0 188.6,198.0 193.0,198.0 197.4,198.0 201.7,198.0 206.1,198.0 210.4,198.0 214.8,198.0 219.2,198.0 223.5,191.7 227.9,191.7 232.2,191.7 236.6,191.7 241.0,191.7 245.3,191.7 249.7,191.7 254.1,192.9 258.4,192.9 262.8,190.7 267.1,190.7 271.5,190.7 275.9,190.7 280.2,190.7 284.6,190.5 288.9,190.5 293.3,190.5 297.7,190.3 302.0,190.3 306.4,190.3 310.8,190.3 315.1,190.3 319.5,190.3 323.8,190.3 328.2,190.3 332.6,190.3 336.9,190.3 341.3,190.3 345.6,190.3 350.0,190.3 354.4,190.3 358.7,190.3 363.1,190.3 367.4,190.3 371.8,190.3 376.2,190.3 380.5,190.3 384.9,190.3 389.2,189.3 393.6,189.3 398.0,189.3 402.3,190.7 406.7,190.7 411.1,190.7 415.4,190.7 419.8,190.7 424.1,190.7 428.5,190.7 432.9,190.7 437.2,190.7 441.6,190.9 445.9,190.9 450.3,190.9 454.7,194.2 459.0,196.8 463.4,198.0 467.8,198.0 472.1,198.0 476.5,198.0 480.8,198.0 485.2,198.0 489.6,198.0 493.9,198.0 498.3,198.0 502.6,198.0 507.0,198.0 511.4,198.0 515.7,198.0 520.1,198.0 524.4,198.0 528.8,198.0 533.2,198.0 537.5,198.0 541.9,198.0 546.2,198.0 550.6,198.0 555.0,198.0 559.3,198.0 563.7,198.0 568.1,198.0 572.4,198.0 576.8,198.0 581.1,198.0 585.5,198.0 589.9,198.0 594.2,198.0 598.6,198.0 602.9,198.0 607.3,198.0 611.7,198.0 616.0,198.0 620.4,198.0 624.8,198.0 629.1,198.0 633.5,198.0 637.8,198.0 642.2,198.0 646.6,198.0 650.9,198.0 655.3,198.0 659.6,198.0 664.0,198.0"/><circle cx="36.0" cy="198.0" r="3" fill="#3fb950"/><circle cx="40.4" cy="198.0" r="3" fill="#3fb950"/><circle cx="44.7" cy="198.0" r="3" fill="#3fb950"/><circle cx="49.1" cy="198.0" r="3" fill="#3fb950"/><circle cx="53.4" cy="198.0" r="3" fill="#3fb950"/><circle cx="57.8" cy="198.0" r="3" fill="#3fb950"/><circle cx="62.2" cy="198.0" r="3" fill="#3fb950"/><circle cx="66.5" cy="198.0" r="3" fill="#3fb950"/><circle cx="70.9" cy="198.0" r="3" fill="#3fb950"/><circle cx="75.2" cy="198.0" r="3" fill="#3fb950"/><circle cx="79.6" cy="198.0" r="3" fill="#3fb950"/><circle cx="84.0" cy="198.0" r="3" fill="#3fb950"/><circle cx="88.3" cy="198.0" r="3" fill="#3fb950"/><circle cx="92.7" cy="198.0" r="3" fill="#3fb950"/><circle cx="97.1" cy="198.0" r="3" fill="#3fb950"/><circle cx="101.4" cy="198.0" r="3" fill="#3fb950"/><circle cx="105.8" cy="198.0" r="3" fill="#3fb950"/><circle cx="110.1" cy="198.0" r="3" fill="#3fb950"/><circle cx="114.5" cy="198.0" r="3" fill="#3fb950"/><circle cx="118.9" cy="198.0" r="3" fill="#3fb950"/><circle cx="123.2" cy="198.0" r="3" fill="#3fb950"/><circle cx="127.6" cy="198.0" r="3" fill="#3fb950"/><circle cx="131.9" cy="198.0" r="3" fill="#3fb950"/><circle cx="136.3" cy="198.0" r="3" fill="#3fb950"/><circle cx="140.7" cy="198.0" r="3" fill="#3fb950"/><circle cx="145.0" cy="198.0" r="3" fill="#3fb950"/><circle cx="149.4" cy="198.0" r="3" fill="#3fb950"/><circle cx="153.8" cy="198.0" r="3" fill="#3fb950"/><circle cx="158.1" cy="198.0" r="3" fill="#3fb950"/><circle cx="162.5" cy="198.0" r="3" fill="#3fb950"/><circle cx="166.8" cy="198.0" r="3" fill="#3fb950"/><circle cx="171.2" cy="198.0" r="3" fill="#3fb950"/><circle cx="175.6" cy="198.0" r="3" fill="#3fb950"/><circle cx="179.9" cy="198.0" r="3" fill="#3fb950"/><circle cx="184.3" cy="198.0" r="3" fill="#3fb950"/><circle cx="188.6" cy="198.0" r="3" fill="#3fb950"/><circle cx="193.0" cy="198.0" r="3" fill="#3fb950"/><circle cx="197.4" cy="198.0" r="3" fill="#3fb950"/><circle cx="201.7" cy="198.0" r="3" fill="#3fb950"/><circle cx="206.1" cy="198.0" r="3" fill="#3fb950"/><circle cx="210.4" cy="198.0" r="3" fill="#3fb950"/><circle cx="214.8" cy="198.0" r="3" fill="#3fb950"/><circle cx="219.2" cy="198.0" r="3" fill="#3fb950"/><circle cx="223.5" cy="191.7" r="3" fill="#3fb950"/><circle cx="227.9" cy="191.7" r="3" fill="#3fb950"/><circle cx="232.2" cy="191.7" r="3" fill="#3fb950"/><circle cx="236.6" cy="191.7" r="3" fill="#3fb950"/><circle cx="241.0" cy="191.7" r="3" fill="#3fb950"/><circle cx="245.3" cy="191.7" r="3" fill="#3fb950"/><circle cx="249.7" cy="191.7" r="3" fill="#3fb950"/><circle cx="254.1" cy="192.9" r="3" fill="#3fb950"/><circle cx="258.4" cy="192.9" r="3" fill="#3fb950"/><circle cx="262.8" cy="190.7" r="3" fill="#3fb950"/><circle cx="267.1" cy="190.7" r="3" fill="#3fb950"/><circle cx="271.5" cy="190.7" r="3" fill="#3fb950"/><circle cx="275.9" cy="190.7" r="3" fill="#3fb950"/><circle cx="280.2" cy="190.7" r="3" fill="#3fb950"/><circle cx="284.6" cy="190.5" r="3" fill="#3fb950"/><circle cx="288.9" cy="190.5" r="3" fill="#3fb950"/><circle cx="293.3" cy="190.5" r="3" fill="#3fb950"/><circle cx="297.7" cy="190.3" r="3" fill="#3fb950"/><circle cx="302.0" cy="190.3" r="3" fill="#3fb950"/><circle cx="306.4" cy="190.3" r="3" fill="#3fb950"/><circle cx="310.8" cy="190.3" r="3" fill="#3fb950"/><circle cx="315.1" cy="190.3" r="3" fill="#3fb950"/><circle cx="319.5" cy="190.3" r="3" fill="#3fb950"/><circle cx="323.8" cy="190.3" r="3" fill="#3fb950"/><circle cx="328.2" cy="190.3" r="3" fill="#3fb950"/><circle cx="332.6" cy="190.3" r="3" fill="#3fb950"/><circle cx="336.9" cy="190.3" r="3" fill="#3fb950"/><circle cx="341.3" cy="190.3" r="3" fill="#3fb950"/><circle cx="345.6" cy="190.3" r="3" fill="#3fb950"/><circle cx="350.0" cy="190.3" r="3" fill="#3fb950"/><circle cx="354.4" cy="190.3" r="3" fill="#3fb950"/><circle cx="358.7" cy="190.3" r="3" fill="#3fb950"/><circle cx="363.1" cy="190.3" r="3" fill="#3fb950"/><circle cx="367.4" cy="190.3" r="3" fill="#3fb950"/><circle cx="371.8" cy="190.3" r="3" fill="#3fb950"/><circle cx="376.2" cy="190.3" r="3" fill="#3fb950"/><circle cx="380.5" cy="190.3" r="3" fill="#3fb950"/><circle cx="384.9" cy="190.3" r="3" fill="#3fb950"/><circle cx="389.2" cy="189.3" r="3" fill="#3fb950"/><circle cx="393.6" cy="189.3" r="3" fill="#3fb950"/><circle cx="398.0" cy="189.3" r="3" fill="#3fb950"/><circle cx="402.3" cy="190.7" r="3" fill="#3fb950"/><circle cx="406.7" cy="190.7" r="3" fill="#3fb950"/><circle cx="411.1" cy="190.7" r="3" fill="#3fb950"/><circle cx="415.4" cy="190.7" r="3" fill="#3fb950"/><circle cx="419.8" cy="190.7" r="3" fill="#3fb950"/><circle cx="424.1" cy="190.7" r="3" fill="#3fb950"/><circle cx="428.5" cy="190.7" r="3" fill="#3fb950"/><circle cx="432.9" cy="190.7" r="3" fill="#3fb950"/><circle cx="437.2" cy="190.7" r="3" fill="#3fb950"/><circle cx="441.6" cy="190.9" r="3" fill="#3fb950"/><circle cx="445.9" cy="190.9" r="3" fill="#3fb950"/><circle cx="450.3" cy="190.9" r="3" fill="#3fb950"/><circle cx="454.7" cy="194.2" r="3" fill="#3fb950"/><circle cx="459.0" cy="196.8" r="3" fill="#3fb950"/><circle cx="463.4" cy="198.0" r="3" fill="#3fb950"/><circle cx="467.8" cy="198.0" r="3" fill="#3fb950"/><circle cx="472.1" cy="198.0" r="3" fill="#3fb950"/><circle cx="476.5" cy="198.0" r="3" fill="#3fb950"/><circle cx="480.8" cy="198.0" r="3" fill="#3fb950"/><circle cx="485.2" cy="198.0" r="3" fill="#3fb950"/><circle cx="489.6" cy="198.0" r="3" fill="#3fb950"/><circle cx="493.9" cy="198.0" r="3" fill="#3fb950"/><circle cx="498.3" cy="198.0" r="3" fill="#3fb950"/><circle cx="502.6" cy="198.0" r="3" fill="#3fb950"/><circle cx="507.0" cy="198.0" r="3" fill="#3fb950"/><circle cx="511.4" cy="198.0" r="3" fill="#3fb950"/><circle cx="515.7" cy="198.0" r="3" fill="#3fb950"/><circle cx="520.1" cy="198.0" r="3" fill="#3fb950"/><circle cx="524.4" cy="198.0" r="3" fill="#3fb950"/><circle cx="528.8" cy="198.0" r="3" fill="#3fb950"/><circle cx="533.2" cy="198.0" r="3" fill="#3fb950"/><circle cx="537.5" cy="198.0" r="3" fill="#3fb950"/><circle cx="541.9" cy="198.0" r="3" fill="#3fb950"/><circle cx="546.2" cy="198.0" r="3" fill="#3fb950"/><circle cx="550.6" cy="198.0" r="3" fill="#3fb950"/><circle cx="555.0" cy="198.0" r="3" fill="#3fb950"/><circle cx="559.3" cy="198.0" r="3" fill="#3fb950"/><circle cx="563.7" cy="198.0" r="3" fill="#3fb950"/><circle cx="568.1" cy="198.0" r="3" fill="#3fb950"/><circle cx="572.4" cy="198.0" r="3" fill="#3fb950"/><circle cx="576.8" cy="198.0" r="3" fill="#3fb950"/><circle cx="581.1" cy="198.0" r="3" fill="#3fb950"/><circle cx="585.5" cy="198.0" r="3" fill="#3fb950"/><circle cx="589.9" cy="198.0" r="3" fill="#3fb950"/><circle cx="594.2" cy="198.0" r="3" fill="#3fb950"/><circle cx="598.6" cy="198.0" r="3" fill="#3fb950"/><circle cx="602.9" cy="198.0" r="3" fill="#3fb950"/><circle cx="607.3" cy="198.0" r="3" fill="#3fb950"/><circle cx="611.7" cy="198.0" r="3" fill="#3fb950"/><circle cx="616.0" cy="198.0" r="3" fill="#3fb950"/><circle cx="620.4" cy="198.0" r="3" fill="#3fb950"/><circle cx="624.8" cy="198.0" r="3" fill="#3fb950"/><circle cx="629.1" cy="198.0" r="3" fill="#3fb950"/><circle cx="633.5" cy="198.0" r="3" fill="#3fb950"/><circle cx="637.8" cy="198.0" r="3" fill="#3fb950"/><circle cx="642.2" cy="198.0" r="3" fill="#3fb950"/><circle cx="646.6" cy="198.0" r="3" fill="#3fb950"/><circle cx="650.9" cy="198.0" r="3" fill="#3fb950"/><circle cx="655.3" cy="198.0" r="3" fill="#3fb950"/><circle cx="659.6" cy="198.0" r="3" fill="#3fb950"/><circle cx="664.0" cy="198.0" r="3" fill="#3fb950"/>
<polyline fill="none" stroke="#4aa3ff" stroke-width="2.5" stroke-linejoin="round" points="36.0,144.3 40.4,144.3 44.7,144.3 49.1,144.3 53.4,144.3 57.8,144.3 62.2,144.3 66.5,144.3 70.9,144.3 75.2,144.3 79.6,144.3 84.0,144.3 88.3,144.3 92.7,144.3 97.1,144.3 101.4,136.2 105.8,132.4 110.1,129.6 114.5,129.6 118.9,121.0 123.2,121.0 127.6,121.0 131.9,114.4 136.3,114.4 140.7,114.4 145.0,111.3 149.4,110.9 153.8,110.9 158.1,110.5 162.5,110.5 166.8,109.9 171.2,108.7 175.6,107.3 179.9,106.9 184.3,106.9 188.6,106.9 193.0,106.9 197.4,106.9 201.7,106.9 206.1,106.9 210.4,106.9 214.8,106.9 219.2,106.9 223.5,113.2 227.9,113.2 232.2,113.2 236.6,113.2 241.0,113.2 245.3,110.7 249.7,105.3 254.1,83.4 258.4,83.4 262.8,85.6 267.1,85.6 271.5,85.6 275.9,85.6 280.2,85.6 284.6,85.8 288.9,85.8 293.3,85.8 297.7,86.0 302.0,86.0 306.4,86.0 310.8,86.0 315.1,86.0 319.5,86.0 323.8,86.0 328.2,86.0 332.6,86.0 336.9,86.0 341.3,86.0 345.6,86.0 350.0,86.0 354.4,86.0 358.7,86.0 363.1,86.0 367.4,86.0 371.8,86.0 376.2,86.0 380.5,86.0 384.9,86.0 389.2,87.0 393.6,87.0 398.0,87.0 402.3,73.7 406.7,73.7 411.1,71.0 415.4,71.0 419.8,70.8 424.1,70.6 428.5,70.6 432.9,70.4 437.2,68.6 441.6,60.5 445.9,59.3 450.3,52.0 454.7,47.3 459.0,40.1 463.4,36.0 467.8,36.0 472.1,36.0 476.5,36.0 480.8,36.0 485.2,36.0 489.6,36.0 493.9,36.0 498.3,36.0 502.6,36.0 507.0,36.0 511.4,36.0 515.7,36.0 520.1,36.0 524.4,36.0 528.8,36.0 533.2,36.0 537.5,36.0 541.9,36.0 546.2,36.0 550.6,36.0 555.0,36.0 559.3,36.0 563.7,36.0 568.1,36.0 572.4,36.0 576.8,36.0 581.1,36.0 585.5,36.0 589.9,36.0 594.2,36.0 598.6,36.0 602.9,36.0 607.3,36.0 611.7,36.0 616.0,36.0 620.4,36.0 624.8,36.0 629.1,36.0 633.5,36.0 637.8,36.0 642.2,36.0 646.6,36.0 650.9,36.0 655.3,36.0 659.6,36.0 664.0,36.0"/><circle cx="36.0" cy="144.3" r="3" fill="#4aa3ff"/><circle cx="40.4" cy="144.3" r="3" fill="#4aa3ff"/><circle cx="44.7" cy="144.3" r="3" fill="#4aa3ff"/><circle cx="49.1" cy="144.3" r="3" fill="#4aa3ff"/><circle cx="53.4" cy="144.3" r="3" fill="#4aa3ff"/><circle cx="57.8" cy="144.3" r="3" fill="#4aa3ff"/><circle cx="62.2" cy="144.3" r="3" fill="#4aa3ff"/><circle cx="66.5" cy="144.3" r="3" fill="#4aa3ff"/><circle cx="70.9" cy="144.3" r="3" fill="#4aa3ff"/><circle cx="75.2" cy="144.3" r="3" fill="#4aa3ff"/><circle cx="79.6" cy="144.3" r="3" fill="#4aa3ff"/><circle cx="84.0" cy="144.3" r="3" fill="#4aa3ff"/><circle cx="88.3" cy="144.3" r="3" fill="#4aa3ff"/><circle cx="92.7" cy="144.3" r="3" fill="#4aa3ff"/><circle cx="97.1" cy="144.3" r="3" fill="#4aa3ff"/><circle cx="101.4" cy="136.2" r="3" fill="#4aa3ff"/><circle cx="105.8" cy="132.4" r="3" fill="#4aa3ff"/><circle cx="110.1" cy="129.6" r="3" fill="#4aa3ff"/><circle cx="114.5" cy="129.6" r="3" fill="#4aa3ff"/><circle cx="118.9" cy="121.0" r="3" fill="#4aa3ff"/><circle cx="123.2" cy="121.0" r="3" fill="#4aa3ff"/><circle cx="127.6" cy="121.0" r="3" fill="#4aa3ff"/><circle cx="131.9" cy="114.4" r="3" fill="#4aa3ff"/><circle cx="136.3" cy="114.4" r="3" fill="#4aa3ff"/><circle cx="140.7" cy="114.4" r="3" fill="#4aa3ff"/><circle cx="145.0" cy="111.3" r="3" fill="#4aa3ff"/><circle cx="149.4" cy="110.9" r="3" fill="#4aa3ff"/><circle cx="153.8" cy="110.9" r="3" fill="#4aa3ff"/><circle cx="158.1" cy="110.5" r="3" fill="#4aa3ff"/><circle cx="162.5" cy="110.5" r="3" fill="#4aa3ff"/><circle cx="166.8" cy="109.9" r="3" fill="#4aa3ff"/><circle cx="171.2" cy="108.7" r="3" fill="#4aa3ff"/><circle cx="175.6" cy="107.3" r="3" fill="#4aa3ff"/><circle cx="179.9" cy="106.9" r="3" fill="#4aa3ff"/><circle cx="184.3" cy="106.9" r="3" fill="#4aa3ff"/><circle cx="188.6" cy="106.9" r="3" fill="#4aa3ff"/><circle cx="193.0" cy="106.9" r="3" fill="#4aa3ff"/><circle cx="197.4" cy="106.9" r="3" fill="#4aa3ff"/><circle cx="201.7" cy="106.9" r="3" fill="#4aa3ff"/><circle cx="206.1" cy="106.9" r="3" fill="#4aa3ff"/><circle cx="210.4" cy="106.9" r="3" fill="#4aa3ff"/><circle cx="214.8" cy="106.9" r="3" fill="#4aa3ff"/><circle cx="219.2" cy="106.9" r="3" fill="#4aa3ff"/><circle cx="223.5" cy="113.2" r="3" fill="#4aa3ff"/><circle cx="227.9" cy="113.2" r="3" fill="#4aa3ff"/><circle cx="232.2" cy="113.2" r="3" fill="#4aa3ff"/><circle cx="236.6" cy="113.2" r="3" fill="#4aa3ff"/><circle cx="241.0" cy="113.2" r="3" fill="#4aa3ff"/><circle cx="245.3" cy="110.7" r="3" fill="#4aa3ff"/><circle cx="249.7" cy="105.3" r="3" fill="#4aa3ff"/><circle cx="254.1" cy="83.4" r="3" fill="#4aa3ff"/><circle cx="258.4" cy="83.4" r="3" fill="#4aa3ff"/><circle cx="262.8" cy="85.6" r="3" fill="#4aa3ff"/><circle cx="267.1" cy="85.6" r="3" fill="#4aa3ff"/><circle cx="271.5" cy="85.6" r="3" fill="#4aa3ff"/><circle cx="275.9" cy="85.6" r="3" fill="#4aa3ff"/><circle cx="280.2" cy="85.6" r="3" fill="#4aa3ff"/><circle cx="284.6" cy="85.8" r="3" fill="#4aa3ff"/><circle cx="288.9" cy="85.8" r="3" fill="#4aa3ff"/><circle cx="293.3" cy="85.8" r="3" fill="#4aa3ff"/><circle cx="297.7" cy="86.0" r="3" fill="#4aa3ff"/><circle cx="302.0" cy="86.0" r="3" fill="#4aa3ff"/><circle cx="306.4" cy="86.0" r="3" fill="#4aa3ff"/><circle cx="310.8" cy="86.0" r="3" fill="#4aa3ff"/><circle cx="315.1" cy="86.0" r="3" fill="#4aa3ff"/><circle cx="319.5" cy="86.0" r="3" fill="#4aa3ff"/><circle cx="323.8" cy="86.0" r="3" fill="#4aa3ff"/><circle cx="328.2" cy="86.0" r="3" fill="#4aa3ff"/><circle cx="332.6" cy="86.0" r="3" fill="#4aa3ff"/><circle cx="336.9" cy="86.0" r="3" fill="#4aa3ff"/><circle cx="341.3" cy="86.0" r="3" fill="#4aa3ff"/><circle cx="345.6" cy="86.0" r="3" fill="#4aa3ff"/><circle cx="350.0" cy="86.0" r="3" fill="#4aa3ff"/><circle cx="354.4" cy="86.0" r="3" fill="#4aa3ff"/><circle cx="358.7" cy="86.0" r="3" fill="#4aa3ff"/><circle cx="363.1" cy="86.0" r="3" fill="#4aa3ff"/><circle cx="367.4" cy="86.0" r="3" fill="#4aa3ff"/><circle cx="371.8" cy="86.0" r="3" fill="#4aa3ff"/><circle cx="376.2" cy="86.0" r="3" fill="#4aa3ff"/><circle cx="380.5" cy="86.0" r="3" fill="#4aa3ff"/><circle cx="384.9" cy="86.0" r="3" fill="#4aa3ff"/><circle cx="389.2" cy="87.0" r="3" fill="#4aa3ff"/><circle cx="393.6" cy="87.0" r="3" fill="#4aa3ff"/><circle cx="398.0" cy="87.0" r="3" fill="#4aa3ff"/><circle cx="402.3" cy="73.7" r="3" fill="#4aa3ff"/><circle cx="406.7" cy="73.7" r="3" fill="#4aa3ff"/><circle cx="411.1" cy="71.0" r="3" fill="#4aa3ff"/><circle cx="415.4" cy="71.0" r="3" fill="#4aa3ff"/><circle cx="419.8" cy="70.8" r="3" fill="#4aa3ff"/><circle cx="424.1" cy="70.6" r="3" fill="#4aa3ff"/><circle cx="428.5" cy="70.6" r="3" fill="#4aa3ff"/><circle cx="432.9" cy="70.4" r="3" fill="#4aa3ff"/><circle cx="437.2" cy="68.6" r="3" fill="#4aa3ff"/><circle cx="441.6" cy="60.5" r="3" fill="#4aa3ff"/><circle cx="445.9" cy="59.3" r="3" fill="#4aa3ff"/><circle cx="450.3" cy="52.0" r="3" fill="#4aa3ff"/><circle cx="454.7" cy="47.3" r="3" fill="#4aa3ff"/><circle cx="459.0" cy="40.1" r="3" fill="#4aa3ff"/><circle cx="463.4" cy="36.0" r="3" fill="#4aa3ff"/><circle cx="467.8" cy="36.0" r="3" fill="#4aa3ff"/><circle cx="472.1" cy="36.0" r="3" fill="#4aa3ff"/><circle cx="476.5" cy="36.0" r="3" fill="#4aa3ff"/><circle cx="480.8" cy="36.0" r="3" fill="#4aa3ff"/><circle cx="485.2" cy="36.0" r="3" fill="#4aa3ff"/><circle cx="489.6" cy="36.0" r="3" fill="#4aa3ff"/><circle cx="493.9" cy="36.0" r="3" fill="#4aa3ff"/><circle cx="498.3" cy="36.0" r="3" fill="#4aa3ff"/><circle cx="502.6" cy="36.0" r="3" fill="#4aa3ff"/><circle cx="507.0" cy="36.0" r="3" fill="#4aa3ff"/><circle cx="511.4" cy="36.0" r="3" fill="#4aa3ff"/><circle cx="515.7" cy="36.0" r="3" fill="#4aa3ff"/><circle cx="520.1" cy="36.0" r="3" fill="#4aa3ff"/><circle cx="524.4" cy="36.0" r="3" fill="#4aa3ff"/><circle cx="528.8" cy="36.0" r="3" fill="#4aa3ff"/><circle cx="533.2" cy="36.0" r="3" fill="#4aa3ff"/><circle cx="537.5" cy="36.0" r="3" fill="#4aa3ff"/><circle cx="541.9" cy="36.0" r="3" fill="#4aa3ff"/><circle cx="546.2" cy="36.0" r="3" fill="#4aa3ff"/><circle cx="550.6" cy="36.0" r="3" fill="#4aa3ff"/><circle cx="555.0" cy="36.0" r="3" fill="#4aa3ff"/><circle cx="559.3" cy="36.0" r="3" fill="#4aa3ff"/><circle cx="563.7" cy="36.0" r="3" fill="#4aa3ff"/><circle cx="568.1" cy="36.0" r="3" fill="#4aa3ff"/><circle cx="572.4" cy="36.0" r="3" fill="#4aa3ff"/><circle cx="576.8" cy="36.0" r="3" fill="#4aa3ff"/><circle cx="581.1" cy="36.0" r="3" fill="#4aa3ff"/><circle cx="585.5" cy="36.0" r="3" fill="#4aa3ff"/><circle cx="589.9" cy="36.0" r="3" fill="#4aa3ff"/><circle cx="594.2" cy="36.0" r="3" fill="#4aa3ff"/><circle cx="598.6" cy="36.0" r="3" fill="#4aa3ff"/><circle cx="602.9" cy="36.0" r="3" fill="#4aa3ff"/><circle cx="607.3" cy="36.0" r="3" fill="#4aa3ff"/><circle cx="611.7" cy="36.0" r="3" fill="#4aa3ff"/><circle cx="616.0" cy="36.0" r="3" fill="#4aa3ff"/><circle cx="620.4" cy="36.0" r="3" fill="#4aa3ff"/><circle cx="624.8" cy="36.0" r="3" fill="#4aa3ff"/><circle cx="629.1" cy="36.0" r="3" fill="#4aa3ff"/><circle cx="633.5" cy="36.0" r="3" fill="#4aa3ff"/><circle cx="637.8" cy="36.0" r="3" fill="#4aa3ff"/><circle cx="642.2" cy="36.0" r="3" fill="#4aa3ff"/><circle cx="646.6" cy="36.0" r="3" fill="#4aa3ff"/><circle cx="650.9" cy="36.0" r="3" fill="#4aa3ff"/><circle cx="655.3" cy="36.0" r="3" fill="#4aa3ff"/><circle cx="659.6" cy="36.0" r="3" fill="#4aa3ff"/><circle cx="664.0" cy="36.0" r="3" fill="#4aa3ff"/>
<text x="36" y="225" fill="#6b7280" font-size="11">2026-06-26</text>
<text x="664" y="225" fill="#6b7280" font-size="11" text-anchor="end">2026-07-12</text>
<text x="36" y="212" font-family="system-ui,sans-serif" font-size="11">
<tspan fill="#4aa3ff">&#9679; open FPs</tspan>  <tspan fill="#3fb950">&#9679; closed (Anthropic acting)</tspan>  <tspan fill="#8a5a5a">&#9679; harness withdrawn</tspan></text>
<text x="664" y="22" text-anchor="end" font-family="system-ui,sans-serif" font-size="12">
<tspan fill="#4aa3ff">open 800</tspan>  <tspan fill="#3fb950">closed 0</tspan>  <tspan fill="#8a5a5a">harness 0</tspan></text>
</svg>