<svg xmlns="http://www.w3.org/2000/svg" width="700" height="234" viewBox="0 0 700 234" role="img">
<rect width="700" height="234" rx="12" fill="#16181d"/>
<text x="36" y="22" fill="#e8eaed" font-family="system-ui,sans-serif" font-size="14" font-weight="700">Is Anthropic acting? cyber/aup false positives over time</text>
<line x1="36" y1="198.0" x2="664" y2="198.0" stroke="#2a2e37" stroke-width="1"/><text x="30" y="202.0" fill="#6b7280" font-size="11" text-anchor="end">0</text><line x1="36" y1="117.0" x2="664" y2="117.0" stroke="#2a2e37" stroke-width="1"/><text x="30" y="121.0" fill="#6b7280" font-size="11" text-anchor="end">400</text><line x1="36" y1="36.0" x2="664" y2="36.0" stroke="#2a2e37" stroke-width="1"/><text x="30" y="40.0" fill="#6b7280" font-size="11" text-anchor="end">800</text>

<polyline fill="none" stroke="#8a5a5a" stroke-width="2.5" stroke-linejoin="round" points="36.0,145.1 38.6,145.1 41.1,145.1 43.7,145.1 46.2,145.1 48.8,145.1 51.3,145.1 53.9,145.1 56.4,145.1 59.0,145.1 61.5,145.1 64.1,145.1 66.6,145.1 69.2,145.1 71.7,145.1 74.3,145.1 76.8,145.1 79.4,145.1 82.0,145.1 84.5,145.1 87.1,145.1 89.6,145.1 92.2,145.1 94.7,145.1 97.3,145.1 99.8,145.1 102.4,145.1 104.9,145.1 107.5,145.1 110.0,145.1 112.6,145.1 115.1,145.1 117.7,145.1 120.2,145.1 122.8,145.1 125.3,145.1 127.9,145.1 130.5,145.1 133.0,145.1 135.6,145.1 138.1,145.1 140.7,145.1 143.2,145.1 145.8,145.1 148.3,145.1 150.9,145.1 153.4,145.1 156.0,145.1 158.5,145.1 161.1,145.1 163.6,155.7 166.2,155.7 168.7,155.7 171.3,155.7 173.9,155.7 176.4,155.7 179.0,155.7 181.5,155.7 184.1,155.7 186.6,155.7 189.2,155.7 191.7,155.7 194.3,155.7 196.8,155.7 199.4,155.7 201.9,155.7 204.5,155.7 207.0,155.7 209.6,155.7 212.1,155.7 214.7,155.7 217.3,155.7 219.8,155.7 222.4,155.7 224.9,155.7 227.5,155.7 230.0,155.7 232.6,155.7 235.1,155.7 237.7,155.7 240.2,155.7 242.8,155.7 245.3,155.7 247.9,155.7 250.4,167.6 253.0,167.6 255.5,170.3 258.1,170.3 260.7,170.5 263.2,170.7 265.8,170.7 268.3,170.9 270.9,172.7 273.4,180.6 276.0,181.8 278.5,189.1 281.1,190.5 283.6,195.2 286.2,198.0 288.7,198.0 291.3,198.0 293.8,198.0 296.4,198.0 298.9,198.0 301.5,198.0 304.0,198.0 306.6,198.0 309.2,198.0 311.7,198.0 314.3,198.0 316.8,198.0 319.4,198.0 321.9,198.0 324.5,198.0 327.0,198.0 329.6,198.0 332.1,198.0 334.7,198.0 337.2,198.0 339.8,198.0 342.3,198.0 344.9,198.0 347.4,198.0 350.0,198.0 352.6,198.0 355.1,198.0 357.7,198.0 360.2,198.0 362.8,198.0 365.3,198.0 367.9,198.0 370.4,198.0 373.0,198.0 375.5,198.0 378.1,198.0 380.6,198.0 383.2,198.0 385.7,198.0 388.3,198.0 390.8,198.0 393.4,198.0 396.0,198.0 398.5,198.0 401.1,198.0 403.6,198.0 406.2,198.0 408.7,198.0 411.3,198.0 413.8,198.0 416.4,198.0 418.9,198.0 421.5,198.0 424.0,198.0 426.6,198.0 429.1,198.0 431.7,198.0 434.2,198.0 436.8,198.0 439.3,198.0 441.9,198.0 444.5,198.0 447.0,198.0 449.6,198.0 452.1,198.0 454.7,198.0 457.2,198.0 459.8,198.0 462.3,198.0 464.9,198.0 467.4,198.0 470.0,198.0 472.5,198.0 475.1,198.0 477.6,198.0 480.2,198.0 482.7,198.0 485.3,198.0 487.9,198.0 490.4,198.0 493.0,198.0 495.5,198.0 498.1,198.0 500.6,198.0 503.2,198.0 505.7,198.0 508.3,198.0 510.8,198.0 513.4,198.0 515.9,198.0 518.5,198.0 521.0,198.0 523.6,198.0 526.1,198.0 528.7,198.0 531.3,198.0 533.8,198.0 536.4,198.0 538.9,198.0 541.5,198.0 544.0,198.0 546.6,198.0 549.1,198.0 551.7,198.0 554.2,198.0 556.8,198.0 559.3,198.0 561.9,198.0 564.4,198.0 567.0,198.0 569.5,198.0 572.1,198.0 574.7,198.0 577.2,198.0 579.8,198.0 582.3,198.0 584.9,198.0 587.4,198.0 590.0,198.0 592.5,198.0 595.1,198.0 597.6,198.0 600.2,198.0 602.7,198.0 605.3,198.0 607.8,198.0 610.4,198.0 612.9,198.0 615.5,198.0 618.0,198.0 620.6,198.0 623.2,198.0 625.7,198.0 628.3,198.0 630.8,198.0 633.4,198.0 635.9,198.0 638.5,198.0 641.0,198.0 643.6,198.0 646.1,198.0 648.7,198.0 651.2,198.0 653.8,198.0 656.3,198.0 658.9,198.0 661.4,198.0 664.0,198.0"/><circle cx="36.0" cy="145.1" r="3" fill="#8a5a5a"/><circle cx="38.6" cy="145.1" r="3" fill="#8a5a5a"/><circle cx="41.1" cy="145.1" r="3" fill="#8a5a5a"/><circle cx="43.7" cy="145.1" r="3" fill="#8a5a5a"/><circle cx="46.2" cy="145.1" r="3" fill="#8a5a5a"/><circle cx="48.8" cy="145.1" r="3" fill="#8a5a5a"/><circle cx="51.3" cy="145.1" r="3" fill="#8a5a5a"/><circle cx="53.9" cy="145.1" r="3" fill="#8a5a5a"/><circle cx="56.4" cy="145.1" r="3" fill="#8a5a5a"/><circle cx="59.0" cy="145.1" r="3" fill="#8a5a5a"/><circle cx="61.5" cy="145.1" r="3" fill="#8a5a5a"/><circle cx="64.1" cy="145.1" r="3" fill="#8a5a5a"/><circle cx="66.6" cy="145.1" r="3" fill="#8a5a5a"/><circle cx="69.2" cy="145.1" r="3" fill="#8a5a5a"/><circle cx="71.7" cy="145.1" r="3" fill="#8a5a5a"/><circle cx="74.3" cy="145.1" r="3" fill="#8a5a5a"/><circle cx="76.8" cy="145.1" r="3" fill="#8a5a5a"/><circle cx="79.4" cy="145.1" r="3" fill="#8a5a5a"/><circle cx="82.0" cy="145.1" r="3" fill="#8a5a5a"/><circle cx="84.5" cy="145.1" r="3" fill="#8a5a5a"/><circle cx="87.1" cy="145.1" r="3" fill="#8a5a5a"/><circle cx="89.6" cy="145.1" r="3" fill="#8a5a5a"/><circle cx="92.2" cy="145.1" r="3" fill="#8a5a5a"/><circle cx="94.7" cy="145.1" r="3" fill="#8a5a5a"/><circle cx="97.3" cy="145.1" r="3" fill="#8a5a5a"/><circle cx="99.8" cy="145.1" r="3" fill="#8a5a5a"/><circle cx="102.4" cy="145.1" r="3" fill="#8a5a5a"/><circle cx="104.9" cy="145.1" r="3" fill="#8a5a5a"/><circle cx="107.5" cy="145.1" r="3" fill="#8a5a5a"/><circle cx="110.0" cy="145.1" r="3" fill="#8a5a5a"/><circle cx="112.6" cy="145.1" r="3" fill="#8a5a5a"/><circle cx="115.1" cy="145.1" r="3" fill="#8a5a5a"/><circle cx="117.7" cy="145.1" r="3" fill="#8a5a5a"/><circle cx="120.2" cy="145.1" r="3" fill="#8a5a5a"/><circle cx="122.8" cy="145.1" r="3" fill="#8a5a5a"/><circle cx="125.3" cy="145.1" r="3" fill="#8a5a5a"/><circle cx="127.9" cy="145.1" r="3" fill="#8a5a5a"/><circle cx="130.5" cy="145.1" r="3" fill="#8a5a5a"/><circle cx="133.0" cy="145.1" r="3" fill="#8a5a5a"/><circle cx="135.6" cy="145.1" r="3" fill="#8a5a5a"/><circle cx="138.1" cy="145.1" r="3" fill="#8a5a5a"/><circle cx="140.7" cy="145.1" r="3" fill="#8a5a5a"/><circle cx="143.2" cy="145.1" r="3" fill="#8a5a5a"/><circle cx="145.8" cy="145.1" r="3" fill="#8a5a5a"/><circle cx="148.3" cy="145.1" r="3" fill="#8a5a5a"/><circle cx="150.9" cy="145.1" r="3" fill="#8a5a5a"/><circle cx="153.4" cy="145.1" r="3" fill="#8a5a5a"/><circle cx="156.0" cy="145.1" r="3" fill="#8a5a5a"/><circle cx="158.5" cy="145.1" r="3" fill="#8a5a5a"/><circle cx="161.1" cy="145.1" r="3" fill="#8a5a5a"/><circle cx="163.6" cy="155.7" r="3" fill="#8a5a5a"/><circle cx="166.2" cy="155.7" r="3" fill="#8a5a5a"/><circle cx="168.7" cy="155.7" r="3" fill="#8a5a5a"/><circle cx="171.3" cy="155.7" r="3" fill="#8a5a5a"/><circle cx="173.9" cy="155.7" r="3" fill="#8a5a5a"/><circle cx="176.4" cy="155.7" r="3" fill="#8a5a5a"/><circle cx="179.0" cy="155.7" r="3" fill="#8a5a5a"/><circle cx="181.5" cy="155.7" r="3" fill="#8a5a5a"/><circle cx="184.1" cy="155.7" r="3" fill="#8a5a5a"/><circle cx="186.6" cy="155.7" r="3" fill="#8a5a5a"/><circle cx="189.2" cy="155.7" r="3" fill="#8a5a5a"/><circle cx="191.7" cy="155.7" r="3" fill="#8a5a5a"/><circle cx="194.3" cy="155.7" r="3" fill="#8a5a5a"/><circle cx="196.8" cy="155.7" r="3" fill="#8a5a5a"/><circle cx="199.4" cy="155.7" r="3" fill="#8a5a5a"/><circle cx="201.9" cy="155.7" r="3" fill="#8a5a5a"/><circle cx="204.5" cy="155.7" r="3" fill="#8a5a5a"/><circle cx="207.0" cy="155.7" r="3" fill="#8a5a5a"/><circle cx="209.6" cy="155.7" r="3" fill="#8a5a5a"/><circle cx="212.1" cy="155.7" r="3" fill="#8a5a5a"/><circle cx="214.7" cy="155.7" r="3" fill="#8a5a5a"/><circle cx="217.3" cy="155.7" r="3" fill="#8a5a5a"/><circle cx="219.8" cy="155.7" r="3" fill="#8a5a5a"/><circle cx="222.4" cy="155.7" r="3" fill="#8a5a5a"/><circle cx="224.9" cy="155.7" r="3" fill="#8a5a5a"/><circle cx="227.5" cy="155.7" r="3" fill="#8a5a5a"/><circle cx="230.0" cy="155.7" r="3" fill="#8a5a5a"/><circle cx="232.6" cy="155.7" r="3" fill="#8a5a5a"/><circle cx="235.1" cy="155.7" r="3" fill="#8a5a5a"/><circle cx="237.7" cy="155.7" r="3" fill="#8a5a5a"/><circle cx="240.2" cy="155.7" r="3" fill="#8a5a5a"/><circle cx="242.8" cy="155.7" r="3" fill="#8a5a5a"/><circle cx="245.3" cy="155.7" r="3" fill="#8a5a5a"/><circle cx="247.9" cy="155.7" r="3" fill="#8a5a5a"/><circle cx="250.4" cy="167.6" r="3" fill="#8a5a5a"/><circle cx="253.0" cy="167.6" r="3" fill="#8a5a5a"/><circle cx="255.5" cy="170.3" r="3" fill="#8a5a5a"/><circle cx="258.1" cy="170.3" r="3" fill="#8a5a5a"/><circle cx="260.7" cy="170.5" r="3" fill="#8a5a5a"/><circle cx="263.2" cy="170.7" r="3" fill="#8a5a5a"/><circle cx="265.8" cy="170.7" r="3" fill="#8a5a5a"/><circle cx="268.3" cy="170.9" r="3" fill="#8a5a5a"/><circle cx="270.9" cy="172.7" r="3" fill="#8a5a5a"/><circle cx="273.4" cy="180.6" r="3" fill="#8a5a5a"/><circle cx="276.0" cy="181.8" r="3" fill="#8a5a5a"/><circle cx="278.5" cy="189.1" r="3" fill="#8a5a5a"/><circle cx="281.1" cy="190.5" r="3" fill="#8a5a5a"/><circle cx="283.6" cy="195.2" r="3" fill="#8a5a5a"/><circle cx="286.2" cy="198.0" r="3" fill="#8a5a5a"/><circle cx="288.7" cy="198.0" r="3" fill="#8a5a5a"/><circle cx="291.3" cy="198.0" r="3" fill="#8a5a5a"/><circle cx="293.8" cy="198.0" r="3" fill="#8a5a5a"/><circle cx="296.4" cy="198.0" r="3" fill="#8a5a5a"/><circle cx="298.9" cy="198.0" r="3" fill="#8a5a5a"/><circle cx="301.5" cy="198.0" r="3" fill="#8a5a5a"/><circle cx="304.0" cy="198.0" r="3" fill="#8a5a5a"/><circle cx="306.6" cy="198.0" r="3" fill="#8a5a5a"/><circle cx="309.2" cy="198.0" r="3" fill="#8a5a5a"/><circle cx="311.7" cy="198.0" r="3" fill="#8a5a5a"/><circle cx="314.3" cy="198.0" r="3" fill="#8a5a5a"/><circle cx="316.8" cy="198.0" r="3" fill="#8a5a5a"/><circle cx="319.4" cy="198.0" r="3" fill="#8a5a5a"/><circle cx="321.9" cy="198.0" r="3" fill="#8a5a5a"/><circle cx="324.5" cy="198.0" r="3" fill="#8a5a5a"/><circle cx="327.0" cy="198.0" r="3" fill="#8a5a5a"/><circle cx="329.6" cy="198.0" r="3" fill="#8a5a5a"/><circle cx="332.1" cy="198.0" r="3" fill="#8a5a5a"/><circle cx="334.7" cy="198.0" r="3" fill="#8a5a5a"/><circle cx="337.2" cy="198.0" r="3" fill="#8a5a5a"/><circle cx="339.8" cy="198.0" r="3" fill="#8a5a5a"/><circle cx="342.3" cy="198.0" r="3" fill="#8a5a5a"/><circle cx="344.9" cy="198.0" r="3" fill="#8a5a5a"/><circle cx="347.4" cy="198.0" r="3" fill="#8a5a5a"/><circle cx="350.0" cy="198.0" r="3" fill="#8a5a5a"/><circle cx="352.6" cy="198.0" r="3" fill="#8a5a5a"/><circle cx="355.1" cy="198.0" r="3" fill="#8a5a5a"/><circle cx="357.7" cy="198.0" r="3" fill="#8a5a5a"/><circle cx="360.2" cy="198.0" r="3" fill="#8a5a5a"/><circle cx="362.8" cy="198.0" r="3" fill="#8a5a5a"/><circle cx="365.3" cy="198.0" r="3" fill="#8a5a5a"/><circle cx="367.9" cy="198.0" r="3" fill="#8a5a5a"/><circle cx="370.4" cy="198.0" r="3" fill="#8a5a5a"/><circle cx="373.0" cy="198.0" r="3" fill="#8a5a5a"/><circle cx="375.5" cy="198.0" r="3" fill="#8a5a5a"/><circle cx="378.1" cy="198.0" r="3" fill="#8a5a5a"/><circle cx="380.6" cy="198.0" r="3" fill="#8a5a5a"/><circle cx="383.2" cy="198.0" r="3" fill="#8a5a5a"/><circle cx="385.7" cy="198.0" r="3" fill="#8a5a5a"/><circle cx="388.3" cy="198.0" r="3" fill="#8a5a5a"/><circle cx="390.8" cy="198.0" r="3" fill="#8a5a5a"/><circle cx="393.4" cy="198.0" r="3" fill="#8a5a5a"/><circle cx="396.0" cy="198.0" r="3" fill="#8a5a5a"/><circle cx="398.5" cy="198.0" r="3" fill="#8a5a5a"/><circle cx="401.1" cy="198.0" r="3" fill="#8a5a5a"/><circle cx="403.6" cy="198.0" r="3" fill="#8a5a5a"/><circle cx="406.2" cy="198.0" r="3" fill="#8a5a5a"/><circle cx="408.7" cy="198.0" r="3" fill="#8a5a5a"/><circle cx="411.3" cy="198.0" r="3" fill="#8a5a5a"/><circle cx="413.8" cy="198.0" r="3" fill="#8a5a5a"/><circle cx="416.4" cy="198.0" r="3" fill="#8a5a5a"/><circle cx="418.9" cy="198.0" r="3" fill="#8a5a5a"/><circle cx="421.5" cy="198.0" r="3" fill="#8a5a5a"/><circle cx="424.0" cy="198.0" r="3" fill="#8a5a5a"/><circle cx="426.6" cy="198.0" r="3" fill="#8a5a5a"/><circle cx="429.1" cy="198.0" r="3" fill="#8a5a5a"/><circle cx="431.7" cy="198.0" r="3" fill="#8a5a5a"/><circle cx="434.2" cy="198.0" r="3" fill="#8a5a5a"/><circle cx="436.8" cy="198.0" r="3" fill="#8a5a5a"/><circle cx="439.3" cy="198.0" r="3" fill="#8a5a5a"/><circle cx="441.9" cy="198.0" r="3" fill="#8a5a5a"/><circle cx="444.5" cy="198.0" r="3" fill="#8a5a5a"/><circle cx="447.0" cy="198.0" r="3" fill="#8a5a5a"/><circle cx="449.6" cy="198.0" r="3" fill="#8a5a5a"/><circle cx="452.1" cy="198.0" r="3" fill="#8a5a5a"/><circle cx="454.7" cy="198.0" r="3" fill="#8a5a5a"/><circle cx="457.2" cy="198.0" r="3" fill="#8a5a5a"/><circle cx="459.8" cy="198.0" r="3" fill="#8a5a5a"/><circle cx="462.3" cy="198.0" r="3" fill="#8a5a5a"/><circle cx="464.9" cy="198.0" r="3" fill="#8a5a5a"/><circle cx="467.4" cy="198.0" r="3" fill="#8a5a5a"/><circle cx="470.0" cy="198.0" r="3" fill="#8a5a5a"/><circle cx="472.5" cy="198.0" r="3" fill="#8a5a5a"/><circle cx="475.1" cy="198.0" r="3" fill="#8a5a5a"/><circle cx="477.6" cy="198.0" r="3" fill="#8a5a5a"/><circle cx="480.2" cy="198.0" r="3" fill="#8a5a5a"/><circle cx="482.7" cy="198.0" r="3" fill="#8a5a5a"/><circle cx="485.3" cy="198.0" r="3" fill="#8a5a5a"/><circle cx="487.9" cy="198.0" r="3" fill="#8a5a5a"/><circle cx="490.4" cy="198.0" r="3" fill="#8a5a5a"/><circle cx="493.0" cy="198.0" r="3" fill="#8a5a5a"/><circle cx="495.5" cy="198.0" r="3" fill="#8a5a5a"/><circle cx="498.1" cy="198.0" r="3" fill="#8a5a5a"/><circle cx="500.6" cy="198.0" r="3" fill="#8a5a5a"/><circle cx="503.2" cy="198.0" r="3" fill="#8a5a5a"/><circle cx="505.7" cy="198.0" r="3" fill="#8a5a5a"/><circle cx="508.3" cy="198.0" r="3" fill="#8a5a5a"/><circle cx="510.8" cy="198.0" r="3" fill="#8a5a5a"/><circle cx="513.4" cy="198.0" r="3" fill="#8a5a5a"/><circle cx="515.9" cy="198.0" r="3" fill="#8a5a5a"/><circle cx="518.5" cy="198.0" r="3" fill="#8a5a5a"/><circle cx="521.0" cy="198.0" r="3" fill="#8a5a5a"/><circle cx="523.6" cy="198.0" r="3" fill="#8a5a5a"/><circle cx="526.1" cy="198.0" r="3" fill="#8a5a5a"/><circle cx="528.7" cy="198.0" r="3" fill="#8a5a5a"/><circle cx="531.3" cy="198.0" r="3" fill="#8a5a5a"/><circle cx="533.8" cy="198.0" r="3" fill="#8a5a5a"/><circle cx="536.4" cy="198.0" r="3" fill="#8a5a5a"/><circle cx="538.9" cy="198.0" r="3" fill="#8a5a5a"/><circle cx="541.5" cy="198.0" r="3" fill="#8a5a5a"/><circle cx="544.0" cy="198.0" r="3" fill="#8a5a5a"/><circle cx="546.6" cy="198.0" r="3" fill="#8a5a5a"/><circle cx="549.1" cy="198.0" r="3" fill="#8a5a5a"/><circle cx="551.7" cy="198.0" r="3" fill="#8a5a5a"/><circle cx="554.2" cy="198.0" r="3" fill="#8a5a5a"/><circle cx="556.8" cy="198.0" r="3" fill="#8a5a5a"/><circle cx="559.3" cy="198.0" r="3" fill="#8a5a5a"/><circle cx="561.9" cy="198.0" r="3" fill="#8a5a5a"/><circle cx="564.4" cy="198.0" r="3" fill="#8a5a5a"/><circle cx="567.0" cy="198.0" r="3" fill="#8a5a5a"/><circle cx="569.5" cy="198.0" r="3" fill="#8a5a5a"/><circle cx="572.1" cy="198.0" r="3" fill="#8a5a5a"/><circle cx="574.7" cy="198.0" r="3" fill="#8a5a5a"/><circle cx="577.2" cy="198.0" r="3" fill="#8a5a5a"/><circle cx="579.8" cy="198.0" r="3" fill="#8a5a5a"/><circle cx="582.3" cy="198.0" r="3" fill="#8a5a5a"/><circle cx="584.9" cy="198.0" r="3" fill="#8a5a5a"/><circle cx="587.4" cy="198.0" r="3" fill="#8a5a5a"/><circle cx="590.0" cy="198.0" r="3" fill="#8a5a5a"/><circle cx="592.5" cy="198.0" r="3" fill="#8a5a5a"/><circle cx="595.1" cy="198.0" r="3" fill="#8a5a5a"/><circle cx="597.6" cy="198.0" r="3" fill="#8a5a5a"/><circle cx="600.2" cy="198.0" r="3" fill="#8a5a5a"/><circle cx="602.7" cy="198.0" r="3" fill="#8a5a5a"/><circle cx="605.3" cy="198.0" r="3" fill="#8a5a5a"/><circle cx="607.8" cy="198.0" r="3" fill="#8a5a5a"/><circle cx="610.4" cy="198.0" r="3" fill="#8a5a5a"/><circle cx="612.9" cy="198.0" r="3" fill="#8a5a5a"/><circle cx="615.5" cy="198.0" r="3" fill="#8a5a5a"/><circle cx="618.0" cy="198.0" r="3" fill="#8a5a5a"/><circle cx="620.6" cy="198.0" r="3" fill="#8a5a5a"/><circle cx="623.2" cy="198.0" r="3" fill="#8a5a5a"/><circle cx="625.7" cy="198.0" r="3" fill="#8a5a5a"/><circle cx="628.3" cy="198.0" r="3" fill="#8a5a5a"/><circle cx="630.8" cy="198.0" r="3" fill="#8a5a5a"/><circle cx="633.4" cy="198.0" r="3" fill="#8a5a5a"/><circle cx="635.9" cy="198.0" r="3" fill="#8a5a5a"/><circle cx="638.5" cy="198.0" r="3" fill="#8a5a5a"/><circle cx="641.0" cy="198.0" r="3" fill="#8a5a5a"/><circle cx="643.6" cy="198.0" r="3" fill="#8a5a5a"/><circle cx="646.1" cy="198.0" r="3" fill="#8a5a5a"/><circle cx="648.7" cy="198.0" r="3" fill="#8a5a5a"/><circle cx="651.2" cy="198.0" r="3" fill="#8a5a5a"/><circle cx="653.8" cy="198.0" r="3" fill="#8a5a5a"/><circle cx="656.3" cy="198.0" r="3" fill="#8a5a5a"/><circle cx="658.9" cy="198.0" r="3" fill="#8a5a5a"/><circle cx="661.4" cy="198.0" r="3" fill="#8a5a5a"/><circle cx="664.0" cy="198.0" r="3" fill="#8a5a5a"/>
<polyline fill="none" stroke="#3fb950" stroke-width="2.5" stroke-linejoin="round" points="36.0,198.0 38.6,198.0 41.1,198.0 43.7,198.0 46.2,198.0 48.8,198.0 51.3,198.0 53.9,198.0 56.4,198.0 59.0,198.0 61.5,198.0 64.1,198.0 66.6,198.0 69.2,198.0 71.7,198.0 74.3,198.0 76.8,198.0 79.4,198.0 82.0,198.0 84.5,198.0 87.1,198.0 89.6,198.0 92.2,198.0 94.7,198.0 97.3,198.0 99.8,198.0 102.4,198.0 104.9,198.0 107.5,198.0 110.0,198.0 112.6,198.0 115.1,198.0 117.7,198.0 120.2,198.0 122.8,198.0 125.3,198.0 127.9,198.0 130.5,198.0 133.0,198.0 135.6,198.0 138.1,198.0 140.7,198.0 143.2,198.0 145.8,191.7 148.3,191.7 150.9,191.7 153.4,191.7 156.0,191.7 158.5,191.7 161.1,191.7 163.6,192.9 166.2,192.9 168.7,190.7 171.3,190.7 173.9,190.7 176.4,190.7 179.0,190.7 181.5,190.5 184.1,190.5 186.6,190.5 189.2,190.3 191.7,190.3 194.3,190.3 196.8,190.3 199.4,190.3 201.9,190.3 204.5,190.3 207.0,190.3 209.6,190.3 212.1,190.3 214.7,190.3 217.3,190.3 219.8,190.3 222.4,190.3 224.9,190.3 227.5,190.3 230.0,190.3 232.6,190.3 235.1,190.3 237.7,190.3 240.2,190.3 242.8,189.3 245.3,189.3 247.9,189.3 250.4,190.7 253.0,190.7 255.5,190.7 258.1,190.7 260.7,190.7 263.2,190.7 265.8,190.7 268.3,190.7 270.9,190.7 273.4,190.9 276.0,190.9 278.5,190.9 281.1,194.2 283.6,196.8 286.2,198.0 288.7,198.0 291.3,198.0 293.8,198.0 296.4,198.0 298.9,198.0 301.5,198.0 304.0,198.0 306.6,198.0 309.2,198.0 311.7,198.0 314.3,198.0 316.8,198.0 319.4,198.0 321.9,198.0 324.5,198.0 327.0,198.0 329.6,198.0 332.1,198.0 334.7,198.0 337.2,198.0 339.8,198.0 342.3,198.0 344.9,198.0 347.4,198.0 350.0,198.0 352.6,198.0 355.1,198.0 357.7,198.0 360.2,198.0 362.8,198.0 365.3,198.0 367.9,198.0 370.4,198.0 373.0,198.0 375.5,198.0 378.1,198.0 380.6,198.0 383.2,198.0 385.7,198.0 388.3,198.0 390.8,198.0 393.4,198.0 396.0,198.0 398.5,198.0 401.1,198.0 403.6,198.0 406.2,198.0 408.7,198.0 411.3,198.0 413.8,198.0 416.4,198.0 418.9,198.0 421.5,198.0 424.0,198.0 426.6,198.0 429.1,198.0 431.7,198.0 434.2,198.0 436.8,198.0 439.3,198.0 441.9,198.0 444.5,198.0 447.0,198.0 449.6,198.0 452.1,198.0 454.7,198.0 457.2,198.0 459.8,198.0 462.3,198.0 464.9,198.0 467.4,198.0 470.0,198.0 472.5,198.0 475.1,198.0 477.6,198.0 480.2,198.0 482.7,198.0 485.3,198.0 487.9,198.0 490.4,198.0 493.0,198.0 495.5,198.0 498.1,198.0 500.6,198.0 503.2,198.0 505.7,198.0 508.3,198.0 510.8,198.0 513.4,198.0 515.9,198.0 518.5,198.0 521.0,198.0 523.6,198.0 526.1,198.0 528.7,198.0 531.3,198.0 533.8,198.0 536.4,198.0 538.9,198.0 541.5,198.0 544.0,198.0 546.6,198.0 549.1,198.0 551.7,198.0 554.2,198.0 556.8,198.0 559.3,198.0 561.9,198.0 564.4,198.0 567.0,198.0 569.5,198.0 572.1,198.0 574.7,198.0 577.2,198.0 579.8,198.0 582.3,198.0 584.9,198.0 587.4,198.0 590.0,198.0 592.5,198.0 595.1,198.0 597.6,198.0 600.2,198.0 602.7,198.0 605.3,198.0 607.8,198.0 610.4,198.0 612.9,198.0 615.5,198.0 618.0,198.0 620.6,198.0 623.2,198.0 625.7,198.0 628.3,198.0 630.8,198.0 633.4,198.0 635.9,198.0 638.5,198.0 641.0,198.0 643.6,198.0 646.1,198.0 648.7,198.0 651.2,198.0 653.8,198.0 656.3,198.0 658.9,198.0 661.4,198.0 664.0,198.0"/><circle cx="36.0" cy="198.0" r="3" fill="#3fb950"/><circle cx="38.6" cy="198.0" r="3" fill="#3fb950"/><circle cx="41.1" cy="198.0" r="3" fill="#3fb950"/><circle cx="43.7" cy="198.0" r="3" fill="#3fb950"/><circle cx="46.2" cy="198.0" r="3" fill="#3fb950"/><circle cx="48.8" cy="198.0" r="3" fill="#3fb950"/><circle cx="51.3" cy="198.0" r="3" fill="#3fb950"/><circle cx="53.9" cy="198.0" r="3" fill="#3fb950"/><circle cx="56.4" cy="198.0" r="3" fill="#3fb950"/><circle cx="59.0" cy="198.0" r="3" fill="#3fb950"/><circle cx="61.5" cy="198.0" r="3" fill="#3fb950"/><circle cx="64.1" cy="198.0" r="3" fill="#3fb950"/><circle cx="66.6" cy="198.0" r="3" fill="#3fb950"/><circle cx="69.2" cy="198.0" r="3" fill="#3fb950"/><circle cx="71.7" cy="198.0" r="3" fill="#3fb950"/><circle cx="74.3" cy="198.0" r="3" fill="#3fb950"/><circle cx="76.8" cy="198.0" r="3" fill="#3fb950"/><circle cx="79.4" cy="198.0" r="3" fill="#3fb950"/><circle cx="82.0" cy="198.0" r="3" fill="#3fb950"/><circle cx="84.5" cy="198.0" r="3" fill="#3fb950"/><circle cx="87.1" cy="198.0" r="3" fill="#3fb950"/><circle cx="89.6" cy="198.0" r="3" fill="#3fb950"/><circle cx="92.2" cy="198.0" r="3" fill="#3fb950"/><circle cx="94.7" cy="198.0" r="3" fill="#3fb950"/><circle cx="97.3" cy="198.0" r="3" fill="#3fb950"/><circle cx="99.8" cy="198.0" r="3" fill="#3fb950"/><circle cx="102.4" cy="198.0" r="3" fill="#3fb950"/><circle cx="104.9" cy="198.0" r="3" fill="#3fb950"/><circle cx="107.5" cy="198.0" r="3" fill="#3fb950"/><circle cx="110.0" cy="198.0" r="3" fill="#3fb950"/><circle cx="112.6" cy="198.0" r="3" fill="#3fb950"/><circle cx="115.1" cy="198.0" r="3" fill="#3fb950"/><circle cx="117.7" cy="198.0" r="3" fill="#3fb950"/><circle cx="120.2" cy="198.0" r="3" fill="#3fb950"/><circle cx="122.8" cy="198.0" r="3" fill="#3fb950"/><circle cx="125.3" cy="198.0" r="3" fill="#3fb950"/><circle cx="127.9" cy="198.0" r="3" fill="#3fb950"/><circle cx="130.5" cy="198.0" r="3" fill="#3fb950"/><circle cx="133.0" cy="198.0" r="3" fill="#3fb950"/><circle cx="135.6" cy="198.0" r="3" fill="#3fb950"/><circle cx="138.1" cy="198.0" r="3" fill="#3fb950"/><circle cx="140.7" cy="198.0" r="3" fill="#3fb950"/><circle cx="143.2" cy="198.0" r="3" fill="#3fb950"/><circle cx="145.8" cy="191.7" r="3" fill="#3fb950"/><circle cx="148.3" cy="191.7" r="3" fill="#3fb950"/><circle cx="150.9" cy="191.7" r="3" fill="#3fb950"/><circle cx="153.4" cy="191.7" r="3" fill="#3fb950"/><circle cx="156.0" cy="191.7" r="3" fill="#3fb950"/><circle cx="158.5" cy="191.7" r="3" fill="#3fb950"/><circle cx="161.1" cy="191.7" r="3" fill="#3fb950"/><circle cx="163.6" cy="192.9" r="3" fill="#3fb950"/><circle cx="166.2" cy="192.9" r="3" fill="#3fb950"/><circle cx="168.7" cy="190.7" r="3" fill="#3fb950"/><circle cx="171.3" cy="190.7" r="3" fill="#3fb950"/><circle cx="173.9" cy="190.7" r="3" fill="#3fb950"/><circle cx="176.4" cy="190.7" r="3" fill="#3fb950"/><circle cx="179.0" cy="190.7" r="3" fill="#3fb950"/><circle cx="181.5" cy="190.5" r="3" fill="#3fb950"/><circle cx="184.1" cy="190.5" r="3" fill="#3fb950"/><circle cx="186.6" cy="190.5" r="3" fill="#3fb950"/><circle cx="189.2" cy="190.3" r="3" fill="#3fb950"/><circle cx="191.7" cy="190.3" r="3" fill="#3fb950"/><circle cx="194.3" cy="190.3" r="3" fill="#3fb950"/><circle cx="196.8" cy="190.3" r="3" fill="#3fb950"/><circle cx="199.4" cy="190.3" r="3" fill="#3fb950"/><circle cx="201.9" cy="190.3" r="3" fill="#3fb950"/><circle cx="204.5" cy="190.3" r="3" fill="#3fb950"/><circle cx="207.0" cy="190.3" r="3" fill="#3fb950"/><circle cx="209.6" cy="190.3" r="3" fill="#3fb950"/><circle cx="212.1" cy="190.3" r="3" fill="#3fb950"/><circle cx="214.7" cy="190.3" r="3" fill="#3fb950"/><circle cx="217.3" cy="190.3" r="3" fill="#3fb950"/><circle cx="219.8" cy="190.3" r="3" fill="#3fb950"/><circle cx="222.4" cy="190.3" r="3" fill="#3fb950"/><circle cx="224.9" cy="190.3" r="3" fill="#3fb950"/><circle cx="227.5" cy="190.3" r="3" fill="#3fb950"/><circle cx="230.0" cy="190.3" r="3" fill="#3fb950"/><circle cx="232.6" cy="190.3" r="3" fill="#3fb950"/><circle cx="235.1" cy="190.3" r="3" fill="#3fb950"/><circle cx="237.7" cy="190.3" r="3" fill="#3fb950"/><circle cx="240.2" cy="190.3" r="3" fill="#3fb950"/><circle cx="242.8" cy="189.3" r="3" fill="#3fb950"/><circle cx="245.3" cy="189.3" r="3" fill="#3fb950"/><circle cx="247.9" cy="189.3" r="3" fill="#3fb950"/><circle cx="250.4" cy="190.7" r="3" fill="#3fb950"/><circle cx="253.0" cy="190.7" r="3" fill="#3fb950"/><circle cx="255.5" cy="190.7" r="3" fill="#3fb950"/><circle cx="258.1" cy="190.7" r="3" fill="#3fb950"/><circle cx="260.7" cy="190.7" r="3" fill="#3fb950"/><circle cx="263.2" cy="190.7" r="3" fill="#3fb950"/><circle cx="265.8" cy="190.7" r="3" fill="#3fb950"/><circle cx="268.3" cy="190.7" r="3" fill="#3fb950"/><circle cx="270.9" cy="190.7" r="3" fill="#3fb950"/><circle cx="273.4" cy="190.9" r="3" fill="#3fb950"/><circle cx="276.0" cy="190.9" r="3" fill="#3fb950"/><circle cx="278.5" cy="190.9" r="3" fill="#3fb950"/><circle cx="281.1" cy="194.2" r="3" fill="#3fb950"/><circle cx="283.6" cy="196.8" r="3" fill="#3fb950"/><circle cx="286.2" cy="198.0" r="3" fill="#3fb950"/><circle cx="288.7" cy="198.0" r="3" fill="#3fb950"/><circle cx="291.3" cy="198.0" r="3" fill="#3fb950"/><circle cx="293.8" cy="198.0" r="3" fill="#3fb950"/><circle cx="296.4" cy="198.0" r="3" fill="#3fb950"/><circle cx="298.9" cy="198.0" r="3" fill="#3fb950"/><circle cx="301.5" cy="198.0" r="3" fill="#3fb950"/><circle cx="304.0" cy="198.0" r="3" fill="#3fb950"/><circle cx="306.6" cy="198.0" r="3" fill="#3fb950"/><circle cx="309.2" cy="198.0" r="3" fill="#3fb950"/><circle cx="311.7" cy="198.0" r="3" fill="#3fb950"/><circle cx="314.3" cy="198.0" r="3" fill="#3fb950"/><circle cx="316.8" cy="198.0" r="3" fill="#3fb950"/><circle cx="319.4" cy="198.0" r="3" fill="#3fb950"/><circle cx="321.9" cy="198.0" r="3" fill="#3fb950"/><circle cx="324.5" cy="198.0" r="3" fill="#3fb950"/><circle cx="327.0" cy="198.0" r="3" fill="#3fb950"/><circle cx="329.6" cy="198.0" r="3" fill="#3fb950"/><circle cx="332.1" cy="198.0" r="3" fill="#3fb950"/><circle cx="334.7" cy="198.0" r="3" fill="#3fb950"/><circle cx="337.2" cy="198.0" r="3" fill="#3fb950"/><circle cx="339.8" cy="198.0" r="3" fill="#3fb950"/><circle cx="342.3" cy="198.0" r="3" fill="#3fb950"/><circle cx="344.9" cy="198.0" r="3" fill="#3fb950"/><circle cx="347.4" cy="198.0" r="3" fill="#3fb950"/><circle cx="350.0" cy="198.0" r="3" fill="#3fb950"/><circle cx="352.6" cy="198.0" r="3" fill="#3fb950"/><circle cx="355.1" cy="198.0" r="3" fill="#3fb950"/><circle cx="357.7" cy="198.0" r="3" fill="#3fb950"/><circle cx="360.2" cy="198.0" r="3" fill="#3fb950"/><circle cx="362.8" cy="198.0" r="3" fill="#3fb950"/><circle cx="365.3" cy="198.0" r="3" fill="#3fb950"/><circle cx="367.9" cy="198.0" r="3" fill="#3fb950"/><circle cx="370.4" cy="198.0" r="3" fill="#3fb950"/><circle cx="373.0" cy="198.0" r="3" fill="#3fb950"/><circle cx="375.5" cy="198.0" r="3" fill="#3fb950"/><circle cx="378.1" cy="198.0" r="3" fill="#3fb950"/><circle cx="380.6" cy="198.0" r="3" fill="#3fb950"/><circle cx="383.2" cy="198.0" r="3" fill="#3fb950"/><circle cx="385.7" cy="198.0" r="3" fill="#3fb950"/><circle cx="388.3" cy="198.0" r="3" fill="#3fb950"/><circle cx="390.8" cy="198.0" r="3" fill="#3fb950"/><circle cx="393.4" cy="198.0" r="3" fill="#3fb950"/><circle cx="396.0" cy="198.0" r="3" fill="#3fb950"/><circle cx="398.5" cy="198.0" r="3" fill="#3fb950"/><circle cx="401.1" cy="198.0" r="3" fill="#3fb950"/><circle cx="403.6" cy="198.0" r="3" fill="#3fb950"/><circle cx="406.2" cy="198.0" r="3" fill="#3fb950"/><circle cx="408.7" cy="198.0" r="3" fill="#3fb950"/><circle cx="411.3" cy="198.0" r="3" fill="#3fb950"/><circle cx="413.8" cy="198.0" r="3" fill="#3fb950"/><circle cx="416.4" cy="198.0" r="3" fill="#3fb950"/><circle cx="418.9" cy="198.0" r="3" fill="#3fb950"/><circle cx="421.5" cy="198.0" r="3" fill="#3fb950"/><circle cx="424.0" cy="198.0" r="3" fill="#3fb950"/><circle cx="426.6" cy="198.0" r="3" fill="#3fb950"/><circle cx="429.1" cy="198.0" r="3" fill="#3fb950"/><circle cx="431.7" cy="198.0" r="3" fill="#3fb950"/><circle cx="434.2" cy="198.0" r="3" fill="#3fb950"/><circle cx="436.8" cy="198.0" r="3" fill="#3fb950"/><circle cx="439.3" cy="198.0" r="3" fill="#3fb950"/><circle cx="441.9" cy="198.0" r="3" fill="#3fb950"/><circle cx="444.5" cy="198.0" r="3" fill="#3fb950"/><circle cx="447.0" cy="198.0" r="3" fill="#3fb950"/><circle cx="449.6" cy="198.0" r="3" fill="#3fb950"/><circle cx="452.1" cy="198.0" r="3" fill="#3fb950"/><circle cx="454.7" cy="198.0" r="3" fill="#3fb950"/><circle cx="457.2" cy="198.0" r="3" fill="#3fb950"/><circle cx="459.8" cy="198.0" r="3" fill="#3fb950"/><circle cx="462.3" cy="198.0" r="3" fill="#3fb950"/><circle cx="464.9" cy="198.0" r="3" fill="#3fb950"/><circle cx="467.4" cy="198.0" r="3" fill="#3fb950"/><circle cx="470.0" cy="198.0" r="3" fill="#3fb950"/><circle cx="472.5" cy="198.0" r="3" fill="#3fb950"/><circle cx="475.1" cy="198.0" r="3" fill="#3fb950"/><circle cx="477.6" cy="198.0" r="3" fill="#3fb950"/><circle cx="480.2" cy="198.0" r="3" fill="#3fb950"/><circle cx="482.7" cy="198.0" r="3" fill="#3fb950"/><circle cx="485.3" cy="198.0" r="3" fill="#3fb950"/><circle cx="487.9" cy="198.0" r="3" fill="#3fb950"/><circle cx="490.4" cy="198.0" r="3" fill="#3fb950"/><circle cx="493.0" cy="198.0" r="3" fill="#3fb950"/><circle cx="495.5" cy="198.0" r="3" fill="#3fb950"/><circle cx="498.1" cy="198.0" r="3" fill="#3fb950"/><circle cx="500.6" cy="198.0" r="3" fill="#3fb950"/><circle cx="503.2" cy="198.0" r="3" fill="#3fb950"/><circle cx="505.7" cy="198.0" r="3" fill="#3fb950"/><circle cx="508.3" cy="198.0" r="3" fill="#3fb950"/><circle cx="510.8" cy="198.0" r="3" fill="#3fb950"/><circle cx="513.4" cy="198.0" r="3" fill="#3fb950"/><circle cx="515.9" cy="198.0" r="3" fill="#3fb950"/><circle cx="518.5" cy="198.0" r="3" fill="#3fb950"/><circle cx="521.0" cy="198.0" r="3" fill="#3fb950"/><circle cx="523.6" cy="198.0" r="3" fill="#3fb950"/><circle cx="526.1" cy="198.0" r="3" fill="#3fb950"/><circle cx="528.7" cy="198.0" r="3" fill="#3fb950"/><circle cx="531.3" cy="198.0" r="3" fill="#3fb950"/><circle cx="533.8" cy="198.0" r="3" fill="#3fb950"/><circle cx="536.4" cy="198.0" r="3" fill="#3fb950"/><circle cx="538.9" cy="198.0" r="3" fill="#3fb950"/><circle cx="541.5" cy="198.0" r="3" fill="#3fb950"/><circle cx="544.0" cy="198.0" r="3" fill="#3fb950"/><circle cx="546.6" cy="198.0" r="3" fill="#3fb950"/><circle cx="549.1" cy="198.0" r="3" fill="#3fb950"/><circle cx="551.7" cy="198.0" r="3" fill="#3fb950"/><circle cx="554.2" cy="198.0" r="3" fill="#3fb950"/><circle cx="556.8" cy="198.0" r="3" fill="#3fb950"/><circle cx="559.3" cy="198.0" r="3" fill="#3fb950"/><circle cx="561.9" cy="198.0" r="3" fill="#3fb950"/><circle cx="564.4" cy="198.0" r="3" fill="#3fb950"/><circle cx="567.0" cy="198.0" r="3" fill="#3fb950"/><circle cx="569.5" cy="198.0" r="3" fill="#3fb950"/><circle cx="572.1" cy="198.0" r="3" fill="#3fb950"/><circle cx="574.7" cy="198.0" r="3" fill="#3fb950"/><circle cx="577.2" cy="198.0" r="3" fill="#3fb950"/><circle cx="579.8" cy="198.0" r="3" fill="#3fb950"/><circle cx="582.3" cy="198.0" r="3" fill="#3fb950"/><circle cx="584.9" cy="198.0" r="3" fill="#3fb950"/><circle cx="587.4" cy="198.0" r="3" fill="#3fb950"/><circle cx="590.0" cy="198.0" r="3" fill="#3fb950"/><circle cx="592.5" cy="198.0" r="3" fill="#3fb950"/><circle cx="595.1" cy="198.0" r="3" fill="#3fb950"/><circle cx="597.6" cy="198.0" r="3" fill="#3fb950"/><circle cx="600.2" cy="198.0" r="3" fill="#3fb950"/><circle cx="602.7" cy="198.0" r="3" fill="#3fb950"/><circle cx="605.3" cy="198.0" r="3" fill="#3fb950"/><circle cx="607.8" cy="198.0" r="3" fill="#3fb950"/><circle cx="610.4" cy="198.0" r="3" fill="#3fb950"/><circle cx="612.9" cy="198.0" r="3" fill="#3fb950"/><circle cx="615.5" cy="198.0" r="3" fill="#3fb950"/><circle cx="618.0" cy="198.0" r="3" fill="#3fb950"/><circle cx="620.6" cy="198.0" r="3" fill="#3fb950"/><circle cx="623.2" cy="198.0" r="3" fill="#3fb950"/><circle cx="625.7" cy="198.0" r="3" fill="#3fb950"/><circle cx="628.3" cy="198.0" r="3" fill="#3fb950"/><circle cx="630.8" cy="198.0" r="3" fill="#3fb950"/><circle cx="633.4" cy="198.0" r="3" fill="#3fb950"/><circle cx="635.9" cy="198.0" r="3" fill="#3fb950"/><circle cx="638.5" cy="198.0" r="3" fill="#3fb950"/><circle cx="641.0" cy="198.0" r="3" fill="#3fb950"/><circle cx="643.6" cy="198.0" r="3" fill="#3fb950"/><circle cx="646.1" cy="198.0" r="3" fill="#3fb950"/><circle cx="648.7" cy="198.0" r="3" fill="#3fb950"/><circle cx="651.2" cy="198.0" r="3" fill="#3fb950"/><circle cx="653.8" cy="198.0" r="3" fill="#3fb950"/><circle cx="656.3" cy="198.0" r="3" fill="#3fb950"/><circle cx="658.9" cy="198.0" r="3" fill="#3fb950"/><circle cx="661.4" cy="198.0" r="3" fill="#3fb950"/><circle cx="664.0" cy="198.0" r="3" fill="#3fb950"/>
<polyline fill="none" stroke="#4aa3ff" stroke-width="2.5" stroke-linejoin="round" points="36.0,144.3 38.6,144.3 41.1,144.3 43.7,144.3 46.2,144.3 48.8,144.3 51.3,144.3 53.9,144.3 56.4,144.3 59.0,144.3 61.5,144.3 64.1,144.3 66.6,144.3 69.2,144.3 71.7,144.3 74.3,136.2 76.8,132.4 79.4,129.6 82.0,129.6 84.5,121.0 87.1,121.0 89.6,121.0 92.2,114.4 94.7,114.4 97.3,114.4 99.8,111.3 102.4,110.9 104.9,110.9 107.5,110.5 110.0,110.5 112.6,109.9 115.1,108.7 117.7,107.3 120.2,106.9 122.8,106.9 125.3,106.9 127.9,106.9 130.5,106.9 133.0,106.9 135.6,106.9 138.1,106.9 140.7,106.9 143.2,106.9 145.8,113.2 148.3,113.2 150.9,113.2 153.4,113.2 156.0,113.2 158.5,110.7 161.1,105.3 163.6,83.4 166.2,83.4 168.7,85.6 171.3,85.6 173.9,85.6 176.4,85.6 179.0,85.6 181.5,85.8 184.1,85.8 186.6,85.8 189.2,86.0 191.7,86.0 194.3,86.0 196.8,86.0 199.4,86.0 201.9,86.0 204.5,86.0 207.0,86.0 209.6,86.0 212.1,86.0 214.7,86.0 217.3,86.0 219.8,86.0 222.4,86.0 224.9,86.0 227.5,86.0 230.0,86.0 232.6,86.0 235.1,86.0 237.7,86.0 240.2,86.0 242.8,87.0 245.3,87.0 247.9,87.0 250.4,73.7 253.0,73.7 255.5,71.0 258.1,71.0 260.7,70.8 263.2,70.6 265.8,70.6 268.3,70.4 270.9,68.6 273.4,60.5 276.0,59.3 278.5,52.0 281.1,47.3 283.6,40.1 286.2,36.0 288.7,36.0 291.3,36.0 293.8,36.0 296.4,36.0 298.9,36.0 301.5,36.0 304.0,36.0 306.6,36.0 309.2,36.0 311.7,36.0 314.3,36.0 316.8,36.0 319.4,36.0 321.9,36.0 324.5,36.0 327.0,36.0 329.6,36.0 332.1,36.0 334.7,36.0 337.2,36.0 339.8,36.0 342.3,36.0 344.9,36.0 347.4,36.0 350.0,36.0 352.6,36.0 355.1,36.0 357.7,36.0 360.2,36.0 362.8,36.0 365.3,36.0 367.9,36.0 370.4,36.0 373.0,36.0 375.5,36.0 378.1,36.0 380.6,36.0 383.2,36.0 385.7,36.0 388.3,36.0 390.8,36.0 393.4,36.0 396.0,36.0 398.5,36.0 401.1,36.0 403.6,36.0 406.2,36.0 408.7,36.0 411.3,36.0 413.8,36.0 416.4,36.0 418.9,36.0 421.5,36.0 424.0,36.0 426.6,36.0 429.1,36.0 431.7,36.0 434.2,36.0 436.8,36.0 439.3,36.0 441.9,36.0 444.5,36.0 447.0,36.0 449.6,36.0 452.1,36.0 454.7,36.0 457.2,36.0 459.8,36.0 462.3,36.0 464.9,36.0 467.4,36.0 470.0,36.0 472.5,36.0 475.1,36.0 477.6,36.0 480.2,36.0 482.7,36.0 485.3,36.0 487.9,36.0 490.4,36.0 493.0,36.0 495.5,36.0 498.1,36.0 500.6,36.0 503.2,36.0 505.7,36.0 508.3,36.0 510.8,36.0 513.4,36.0 515.9,36.0 518.5,36.0 521.0,36.0 523.6,36.0 526.1,36.0 528.7,36.0 531.3,36.0 533.8,36.0 536.4,36.0 538.9,36.0 541.5,36.0 544.0,36.0 546.6,36.0 549.1,36.0 551.7,36.0 554.2,36.0 556.8,36.0 559.3,36.0 561.9,36.0 564.4,36.0 567.0,36.0 569.5,36.0 572.1,36.0 574.7,36.0 577.2,36.0 579.8,36.0 582.3,36.0 584.9,36.0 587.4,36.0 590.0,36.0 592.5,36.0 595.1,36.0 597.6,36.0 600.2,36.0 602.7,36.0 605.3,36.0 607.8,36.0 610.4,36.0 612.9,36.0 615.5,36.0 618.0,36.0 620.6,36.0 623.2,36.0 625.7,36.0 628.3,36.0 630.8,36.0 633.4,36.0 635.9,36.0 638.5,36.0 641.0,36.0 643.6,36.0 646.1,36.0 648.7,36.0 651.2,36.0 653.8,36.0 656.3,36.0 658.9,36.0 661.4,36.0 664.0,36.0"/><circle cx="36.0" cy="144.3" r="3" fill="#4aa3ff"/><circle cx="38.6" cy="144.3" r="3" fill="#4aa3ff"/><circle cx="41.1" cy="144.3" r="3" fill="#4aa3ff"/><circle cx="43.7" cy="144.3" r="3" fill="#4aa3ff"/><circle cx="46.2" cy="144.3" r="3" fill="#4aa3ff"/><circle cx="48.8" cy="144.3" r="3" fill="#4aa3ff"/><circle cx="51.3" cy="144.3" r="3" fill="#4aa3ff"/><circle cx="53.9" cy="144.3" r="3" fill="#4aa3ff"/><circle cx="56.4" cy="144.3" r="3" fill="#4aa3ff"/><circle cx="59.0" cy="144.3" r="3" fill="#4aa3ff"/><circle cx="61.5" cy="144.3" r="3" fill="#4aa3ff"/><circle cx="64.1" cy="144.3" r="3" fill="#4aa3ff"/><circle cx="66.6" cy="144.3" r="3" fill="#4aa3ff"/><circle cx="69.2" cy="144.3" r="3" fill="#4aa3ff"/><circle cx="71.7" cy="144.3" r="3" fill="#4aa3ff"/><circle cx="74.3" cy="136.2" r="3" fill="#4aa3ff"/><circle cx="76.8" cy="132.4" r="3" fill="#4aa3ff"/><circle cx="79.4" cy="129.6" r="3" fill="#4aa3ff"/><circle cx="82.0" cy="129.6" r="3" fill="#4aa3ff"/><circle cx="84.5" cy="121.0" r="3" fill="#4aa3ff"/><circle cx="87.1" cy="121.0" r="3" fill="#4aa3ff"/><circle cx="89.6" cy="121.0" r="3" fill="#4aa3ff"/><circle cx="92.2" cy="114.4" r="3" fill="#4aa3ff"/><circle cx="94.7" cy="114.4" r="3" fill="#4aa3ff"/><circle cx="97.3" cy="114.4" r="3" fill="#4aa3ff"/><circle cx="99.8" cy="111.3" r="3" fill="#4aa3ff"/><circle cx="102.4" cy="110.9" r="3" fill="#4aa3ff"/><circle cx="104.9" cy="110.9" r="3" fill="#4aa3ff"/><circle cx="107.5" cy="110.5" r="3" fill="#4aa3ff"/><circle cx="110.0" cy="110.5" r="3" fill="#4aa3ff"/><circle cx="112.6" cy="109.9" r="3" fill="#4aa3ff"/><circle cx="115.1" cy="108.7" r="3" fill="#4aa3ff"/><circle cx="117.7" cy="107.3" r="3" fill="#4aa3ff"/><circle cx="120.2" cy="106.9" r="3" fill="#4aa3ff"/><circle cx="122.8" cy="106.9" r="3" fill="#4aa3ff"/><circle cx="125.3" cy="106.9" r="3" fill="#4aa3ff"/><circle cx="127.9" cy="106.9" r="3" fill="#4aa3ff"/><circle cx="130.5" cy="106.9" r="3" fill="#4aa3ff"/><circle cx="133.0" cy="106.9" r="3" fill="#4aa3ff"/><circle cx="135.6" cy="106.9" r="3" fill="#4aa3ff"/><circle cx="138.1" cy="106.9" r="3" fill="#4aa3ff"/><circle cx="140.7" cy="106.9" r="3" fill="#4aa3ff"/><circle cx="143.2" cy="106.9" r="3" fill="#4aa3ff"/><circle cx="145.8" cy="113.2" r="3" fill="#4aa3ff"/><circle cx="148.3" cy="113.2" r="3" fill="#4aa3ff"/><circle cx="150.9" cy="113.2" r="3" fill="#4aa3ff"/><circle cx="153.4" cy="113.2" r="3" fill="#4aa3ff"/><circle cx="156.0" cy="113.2" r="3" fill="#4aa3ff"/><circle cx="158.5" cy="110.7" r="3" fill="#4aa3ff"/><circle cx="161.1" cy="105.3" r="3" fill="#4aa3ff"/><circle cx="163.6" cy="83.4" r="3" fill="#4aa3ff"/><circle cx="166.2" cy="83.4" r="3" fill="#4aa3ff"/><circle cx="168.7" cy="85.6" r="3" fill="#4aa3ff"/><circle cx="171.3" cy="85.6" r="3" fill="#4aa3ff"/><circle cx="173.9" cy="85.6" r="3" fill="#4aa3ff"/><circle cx="176.4" cy="85.6" r="3" fill="#4aa3ff"/><circle cx="179.0" cy="85.6" r="3" fill="#4aa3ff"/><circle cx="181.5" cy="85.8" r="3" fill="#4aa3ff"/><circle cx="184.1" cy="85.8" r="3" fill="#4aa3ff"/><circle cx="186.6" cy="85.8" r="3" fill="#4aa3ff"/><circle cx="189.2" cy="86.0" r="3" fill="#4aa3ff"/><circle cx="191.7" cy="86.0" r="3" fill="#4aa3ff"/><circle cx="194.3" cy="86.0" r="3" fill="#4aa3ff"/><circle cx="196.8" cy="86.0" r="3" fill="#4aa3ff"/><circle cx="199.4" cy="86.0" r="3" fill="#4aa3ff"/><circle cx="201.9" cy="86.0" r="3" fill="#4aa3ff"/><circle cx="204.5" cy="86.0" r="3" fill="#4aa3ff"/><circle cx="207.0" cy="86.0" r="3" fill="#4aa3ff"/><circle cx="209.6" cy="86.0" r="3" fill="#4aa3ff"/><circle cx="212.1" cy="86.0" r="3" fill="#4aa3ff"/><circle cx="214.7" cy="86.0" r="3" fill="#4aa3ff"/><circle cx="217.3" cy="86.0" r="3" fill="#4aa3ff"/><circle cx="219.8" cy="86.0" r="3" fill="#4aa3ff"/><circle cx="222.4" cy="86.0" r="3" fill="#4aa3ff"/><circle cx="224.9" cy="86.0" r="3" fill="#4aa3ff"/><circle cx="227.5" cy="86.0" r="3" fill="#4aa3ff"/><circle cx="230.0" cy="86.0" r="3" fill="#4aa3ff"/><circle cx="232.6" cy="86.0" r="3" fill="#4aa3ff"/><circle cx="235.1" cy="86.0" r="3" fill="#4aa3ff"/><circle cx="237.7" cy="86.0" r="3" fill="#4aa3ff"/><circle cx="240.2" cy="86.0" r="3" fill="#4aa3ff"/><circle cx="242.8" cy="87.0" r="3" fill="#4aa3ff"/><circle cx="245.3" cy="87.0" r="3" fill="#4aa3ff"/><circle cx="247.9" cy="87.0" r="3" fill="#4aa3ff"/><circle cx="250.4" cy="73.7" r="3" fill="#4aa3ff"/><circle cx="253.0" cy="73.7" r="3" fill="#4aa3ff"/><circle cx="255.5" cy="71.0" r="3" fill="#4aa3ff"/><circle cx="258.1" cy="71.0" r="3" fill="#4aa3ff"/><circle cx="260.7" cy="70.8" r="3" fill="#4aa3ff"/><circle cx="263.2" cy="70.6" r="3" fill="#4aa3ff"/><circle cx="265.8" cy="70.6" r="3" fill="#4aa3ff"/><circle cx="268.3" cy="70.4" r="3" fill="#4aa3ff"/><circle cx="270.9" cy="68.6" r="3" fill="#4aa3ff"/><circle cx="273.4" cy="60.5" r="3" fill="#4aa3ff"/><circle cx="276.0" cy="59.3" r="3" fill="#4aa3ff"/><circle cx="278.5" cy="52.0" r="3" fill="#4aa3ff"/><circle cx="281.1" cy="47.3" r="3" fill="#4aa3ff"/><circle cx="283.6" cy="40.1" r="3" fill="#4aa3ff"/><circle cx="286.2" cy="36.0" r="3" fill="#4aa3ff"/><circle cx="288.7" cy="36.0" r="3" fill="#4aa3ff"/><circle cx="291.3" cy="36.0" r="3" fill="#4aa3ff"/><circle cx="293.8" cy="36.0" r="3" fill="#4aa3ff"/><circle cx="296.4" cy="36.0" r="3" fill="#4aa3ff"/><circle cx="298.9" cy="36.0" r="3" fill="#4aa3ff"/><circle cx="301.5" cy="36.0" r="3" fill="#4aa3ff"/><circle cx="304.0" cy="36.0" r="3" fill="#4aa3ff"/><circle cx="306.6" cy="36.0" r="3" fill="#4aa3ff"/><circle cx="309.2" cy="36.0" r="3" fill="#4aa3ff"/><circle cx="311.7" cy="36.0" r="3" fill="#4aa3ff"/><circle cx="314.3" cy="36.0" r="3" fill="#4aa3ff"/><circle cx="316.8" cy="36.0" r="3" fill="#4aa3ff"/><circle cx="319.4" cy="36.0" r="3" fill="#4aa3ff"/><circle cx="321.9" cy="36.0" r="3" fill="#4aa3ff"/><circle cx="324.5" cy="36.0" r="3" fill="#4aa3ff"/><circle cx="327.0" cy="36.0" r="3" fill="#4aa3ff"/><circle cx="329.6" cy="36.0" r="3" fill="#4aa3ff"/><circle cx="332.1" cy="36.0" r="3" fill="#4aa3ff"/><circle cx="334.7" cy="36.0" r="3" fill="#4aa3ff"/><circle cx="337.2" cy="36.0" r="3" fill="#4aa3ff"/><circle cx="339.8" cy="36.0" r="3" fill="#4aa3ff"/><circle cx="342.3" cy="36.0" r="3" fill="#4aa3ff"/><circle cx="344.9" cy="36.0" r="3" fill="#4aa3ff"/><circle cx="347.4" cy="36.0" r="3" fill="#4aa3ff"/><circle cx="350.0" cy="36.0" r="3" fill="#4aa3ff"/><circle cx="352.6" cy="36.0" r="3" fill="#4aa3ff"/><circle cx="355.1" cy="36.0" r="3" fill="#4aa3ff"/><circle cx="357.7" cy="36.0" r="3" fill="#4aa3ff"/><circle cx="360.2" cy="36.0" r="3" fill="#4aa3ff"/><circle cx="362.8" cy="36.0" r="3" fill="#4aa3ff"/><circle cx="365.3" cy="36.0" r="3" fill="#4aa3ff"/><circle cx="367.9" cy="36.0" r="3" fill="#4aa3ff"/><circle cx="370.4" cy="36.0" r="3" fill="#4aa3ff"/><circle cx="373.0" cy="36.0" r="3" fill="#4aa3ff"/><circle cx="375.5" cy="36.0" r="3" fill="#4aa3ff"/><circle cx="378.1" cy="36.0" r="3" fill="#4aa3ff"/><circle cx="380.6" cy="36.0" r="3" fill="#4aa3ff"/><circle cx="383.2" cy="36.0" r="3" fill="#4aa3ff"/><circle cx="385.7" cy="36.0" r="3" fill="#4aa3ff"/><circle cx="388.3" cy="36.0" r="3" fill="#4aa3ff"/><circle cx="390.8" cy="36.0" r="3" fill="#4aa3ff"/><circle cx="393.4" cy="36.0" r="3" fill="#4aa3ff"/><circle cx="396.0" cy="36.0" r="3" fill="#4aa3ff"/><circle cx="398.5" cy="36.0" r="3" fill="#4aa3ff"/><circle cx="401.1" cy="36.0" r="3" fill="#4aa3ff"/><circle cx="403.6" cy="36.0" r="3" fill="#4aa3ff"/><circle cx="406.2" cy="36.0" r="3" fill="#4aa3ff"/><circle cx="408.7" cy="36.0" r="3" fill="#4aa3ff"/><circle cx="411.3" cy="36.0" r="3" fill="#4aa3ff"/><circle cx="413.8" cy="36.0" r="3" fill="#4aa3ff"/><circle cx="416.4" cy="36.0" r="3" fill="#4aa3ff"/><circle cx="418.9" cy="36.0" r="3" fill="#4aa3ff"/><circle cx="421.5" cy="36.0" r="3" fill="#4aa3ff"/><circle cx="424.0" cy="36.0" r="3" fill="#4aa3ff"/><circle cx="426.6" cy="36.0" r="3" fill="#4aa3ff"/><circle cx="429.1" cy="36.0" r="3" fill="#4aa3ff"/><circle cx="431.7" cy="36.0" r="3" fill="#4aa3ff"/><circle cx="434.2" cy="36.0" r="3" fill="#4aa3ff"/><circle cx="436.8" cy="36.0" r="3" fill="#4aa3ff"/><circle cx="439.3" cy="36.0" r="3" fill="#4aa3ff"/><circle cx="441.9" cy="36.0" r="3" fill="#4aa3ff"/><circle cx="444.5" cy="36.0" r="3" fill="#4aa3ff"/><circle cx="447.0" cy="36.0" r="3" fill="#4aa3ff"/><circle cx="449.6" cy="36.0" r="3" fill="#4aa3ff"/><circle cx="452.1" cy="36.0" r="3" fill="#4aa3ff"/><circle cx="454.7" cy="36.0" r="3" fill="#4aa3ff"/><circle cx="457.2" cy="36.0" r="3" fill="#4aa3ff"/><circle cx="459.8" cy="36.0" r="3" fill="#4aa3ff"/><circle cx="462.3" cy="36.0" r="3" fill="#4aa3ff"/><circle cx="464.9" cy="36.0" r="3" fill="#4aa3ff"/><circle cx="467.4" cy="36.0" r="3" fill="#4aa3ff"/><circle cx="470.0" cy="36.0" r="3" fill="#4aa3ff"/><circle cx="472.5" cy="36.0" r="3" fill="#4aa3ff"/><circle cx="475.1" cy="36.0" r="3" fill="#4aa3ff"/><circle cx="477.6" cy="36.0" r="3" fill="#4aa3ff"/><circle cx="480.2" cy="36.0" r="3" fill="#4aa3ff"/><circle cx="482.7" cy="36.0" r="3" fill="#4aa3ff"/><circle cx="485.3" cy="36.0" r="3" fill="#4aa3ff"/><circle cx="487.9" cy="36.0" r="3" fill="#4aa3ff"/><circle cx="490.4" cy="36.0" r="3" fill="#4aa3ff"/><circle cx="493.0" cy="36.0" r="3" fill="#4aa3ff"/><circle cx="495.5" cy="36.0" r="3" fill="#4aa3ff"/><circle cx="498.1" cy="36.0" r="3" fill="#4aa3ff"/><circle cx="500.6" cy="36.0" r="3" fill="#4aa3ff"/><circle cx="503.2" cy="36.0" r="3" fill="#4aa3ff"/><circle cx="505.7" cy="36.0" r="3" fill="#4aa3ff"/><circle cx="508.3" cy="36.0" r="3" fill="#4aa3ff"/><circle cx="510.8" cy="36.0" r="3" fill="#4aa3ff"/><circle cx="513.4" cy="36.0" r="3" fill="#4aa3ff"/><circle cx="515.9" cy="36.0" r="3" fill="#4aa3ff"/><circle cx="518.5" cy="36.0" r="3" fill="#4aa3ff"/><circle cx="521.0" cy="36.0" r="3" fill="#4aa3ff"/><circle cx="523.6" cy="36.0" r="3" fill="#4aa3ff"/><circle cx="526.1" cy="36.0" r="3" fill="#4aa3ff"/><circle cx="528.7" cy="36.0" r="3" fill="#4aa3ff"/><circle cx="531.3" cy="36.0" r="3" fill="#4aa3ff"/><circle cx="533.8" cy="36.0" r="3" fill="#4aa3ff"/><circle cx="536.4" cy="36.0" r="3" fill="#4aa3ff"/><circle cx="538.9" cy="36.0" r="3" fill="#4aa3ff"/><circle cx="541.5" cy="36.0" r="3" fill="#4aa3ff"/><circle cx="544.0" cy="36.0" r="3" fill="#4aa3ff"/><circle cx="546.6" cy="36.0" r="3" fill="#4aa3ff"/><circle cx="549.1" cy="36.0" r="3" fill="#4aa3ff"/><circle cx="551.7" cy="36.0" r="3" fill="#4aa3ff"/><circle cx="554.2" cy="36.0" r="3" fill="#4aa3ff"/><circle cx="556.8" cy="36.0" r="3" fill="#4aa3ff"/><circle cx="559.3" cy="36.0" r="3" fill="#4aa3ff"/><circle cx="561.9" cy="36.0" r="3" fill="#4aa3ff"/><circle cx="564.4" cy="36.0" r="3" fill="#4aa3ff"/><circle cx="567.0" cy="36.0" r="3" fill="#4aa3ff"/><circle cx="569.5" cy="36.0" r="3" fill="#4aa3ff"/><circle cx="572.1" cy="36.0" r="3" fill="#4aa3ff"/><circle cx="574.7" cy="36.0" r="3" fill="#4aa3ff"/><circle cx="577.2" cy="36.0" r="3" fill="#4aa3ff"/><circle cx="579.8" cy="36.0" r="3" fill="#4aa3ff"/><circle cx="582.3" cy="36.0" r="3" fill="#4aa3ff"/><circle cx="584.9" cy="36.0" r="3" fill="#4aa3ff"/><circle cx="587.4" cy="36.0" r="3" fill="#4aa3ff"/><circle cx="590.0" cy="36.0" r="3" fill="#4aa3ff"/><circle cx="592.5" cy="36.0" r="3" fill="#4aa3ff"/><circle cx="595.1" cy="36.0" r="3" fill="#4aa3ff"/><circle cx="597.6" cy="36.0" r="3" fill="#4aa3ff"/><circle cx="600.2" cy="36.0" r="3" fill="#4aa3ff"/><circle cx="602.7" cy="36.0" r="3" fill="#4aa3ff"/><circle cx="605.3" cy="36.0" r="3" fill="#4aa3ff"/><circle cx="607.8" cy="36.0" r="3" fill="#4aa3ff"/><circle cx="610.4" cy="36.0" r="3" fill="#4aa3ff"/><circle cx="612.9" cy="36.0" r="3" fill="#4aa3ff"/><circle cx="615.5" cy="36.0" r="3" fill="#4aa3ff"/><circle cx="618.0" cy="36.0" r="3" fill="#4aa3ff"/><circle cx="620.6" cy="36.0" r="3" fill="#4aa3ff"/><circle cx="623.2" cy="36.0" r="3" fill="#4aa3ff"/><circle cx="625.7" cy="36.0" r="3" fill="#4aa3ff"/><circle cx="628.3" cy="36.0" r="3" fill="#4aa3ff"/><circle cx="630.8" cy="36.0" r="3" fill="#4aa3ff"/><circle cx="633.4" cy="36.0" r="3" fill="#4aa3ff"/><circle cx="635.9" cy="36.0" r="3" fill="#4aa3ff"/><circle cx="638.5" cy="36.0" r="3" fill="#4aa3ff"/><circle cx="641.0" cy="36.0" r="3" fill="#4aa3ff"/><circle cx="643.6" cy="36.0" r="3" fill="#4aa3ff"/><circle cx="646.1" cy="36.0" r="3" fill="#4aa3ff"/><circle cx="648.7" cy="36.0" r="3" fill="#4aa3ff"/><circle cx="651.2" cy="36.0" r="3" fill="#4aa3ff"/><circle cx="653.8" cy="36.0" r="3" fill="#4aa3ff"/><circle cx="656.3" cy="36.0" r="3" fill="#4aa3ff"/><circle cx="658.9" cy="36.0" r="3" fill="#4aa3ff"/><circle cx="661.4" cy="36.0" r="3" fill="#4aa3ff"/><circle cx="664.0" cy="36.0" r="3" fill="#4aa3ff"/>
<text x="36" y="225" fill="#6b7280" font-size="11">2026-06-26</text>
<text x="664" y="225" fill="#6b7280" font-size="11" text-anchor="end">2026-07-20</text>
<text x="36" y="212" font-family="system-ui,sans-serif" font-size="11">
<tspan fill="#4aa3ff">&#9679; open FPs</tspan>  <tspan fill="#3fb950">&#9679; closed (Anthropic acting)</tspan>  <tspan fill="#8a5a5a">&#9679; harness withdrawn</tspan></text>
<text x="664" y="22" text-anchor="end" font-family="system-ui,sans-serif" font-size="12">
<tspan fill="#4aa3ff">open 800</tspan>  <tspan fill="#3fb950">closed 0</tspan>  <tspan fill="#8a5a5a">harness 0</tspan></text>
</svg>