<svg xmlns="http://www.w3.org/2000/svg" width="700" height="234" viewBox="0 0 700 234" role="img">
<rect width="700" height="234" rx="12" fill="#16181d"/>
<text x="36" y="22" fill="#e8eaed" font-family="system-ui,sans-serif" font-size="14" font-weight="700">Is Anthropic acting? cyber/aup false positives over time</text>
<line x1="36" y1="198.0" x2="664" y2="198.0" stroke="#2a2e37" stroke-width="1"/><text x="30" y="202.0" fill="#6b7280" font-size="11" text-anchor="end">0</text><line x1="36" y1="117.0" x2="664" y2="117.0" stroke="#2a2e37" stroke-width="1"/><text x="30" y="121.0" fill="#6b7280" font-size="11" text-anchor="end">400</text><line x1="36" y1="36.0" x2="664" y2="36.0" stroke="#2a2e37" stroke-width="1"/><text x="30" y="40.0" fill="#6b7280" font-size="11" text-anchor="end">800</text>

<polyline fill="none" stroke="#8a5a5a" stroke-width="2.5" stroke-linejoin="round" points="36.0,145.1 39.2,145.1 42.3,145.1 45.5,145.1 48.7,145.1 51.9,145.1 55.0,145.1 58.2,145.1 61.4,145.1 64.5,145.1 67.7,145.1 70.9,145.1 74.1,145.1 77.2,145.1 80.4,145.1 83.6,145.1 86.7,145.1 89.9,145.1 93.1,145.1 96.3,145.1 99.4,145.1 102.6,145.1 105.8,145.1 108.9,145.1 112.1,145.1 115.3,145.1 118.5,145.1 121.6,145.1 124.8,145.1 128.0,145.1 131.2,145.1 134.3,145.1 137.5,145.1 140.7,145.1 143.8,145.1 147.0,145.1 150.2,145.1 153.4,145.1 156.5,145.1 159.7,145.1 162.9,145.1 166.0,145.1 169.2,145.1 172.4,145.1 175.6,145.1 178.7,145.1 181.9,145.1 185.1,145.1 188.2,145.1 191.4,145.1 194.6,155.7 197.8,155.7 200.9,155.7 204.1,155.7 207.3,155.7 210.4,155.7 213.6,155.7 216.8,155.7 220.0,155.7 223.1,155.7 226.3,155.7 229.5,155.7 232.6,155.7 235.8,155.7 239.0,155.7 242.2,155.7 245.3,155.7 248.5,155.7 251.7,155.7 254.8,155.7 258.0,155.7 261.2,155.7 264.4,155.7 267.5,155.7 270.7,155.7 273.9,155.7 277.1,155.7 280.2,155.7 283.4,155.7 286.6,155.7 289.7,155.7 292.9,155.7 296.1,155.7 299.3,155.7 302.4,167.6 305.6,167.6 308.8,170.3 311.9,170.3 315.1,170.5 318.3,170.7 321.5,170.7 324.6,170.9 327.8,172.7 331.0,180.6 334.1,181.8 337.3,189.1 340.5,190.5 343.7,195.2 346.8,198.0 350.0,198.0 353.2,198.0 356.3,198.0 359.5,198.0 362.7,198.0 365.9,198.0 369.0,198.0 372.2,198.0 375.4,198.0 378.5,198.0 381.7,198.0 384.9,198.0 388.1,198.0 391.2,198.0 394.4,198.0 397.6,198.0 400.7,198.0 403.9,198.0 407.1,198.0 410.3,198.0 413.4,198.0 416.6,198.0 419.8,198.0 422.9,198.0 426.1,198.0 429.3,198.0 432.5,198.0 435.6,198.0 438.8,198.0 442.0,198.0 445.2,198.0 448.3,198.0 451.5,198.0 454.7,198.0 457.8,198.0 461.0,198.0 464.2,198.0 467.4,198.0 470.5,198.0 473.7,198.0 476.9,198.0 480.0,198.0 483.2,198.0 486.4,198.0 489.6,198.0 492.7,198.0 495.9,198.0 499.1,198.0 502.2,198.0 505.4,198.0 508.6,198.0 511.8,198.0 514.9,198.0 518.1,198.0 521.3,198.0 524.4,198.0 527.6,198.0 530.8,198.0 534.0,198.0 537.1,198.0 540.3,198.0 543.5,198.0 546.6,198.0 549.8,198.0 553.0,198.0 556.2,198.0 559.3,198.0 562.5,198.0 565.7,198.0 568.8,198.0 572.0,198.0 575.2,198.0 578.4,198.0 581.5,198.0 584.7,198.0 587.9,198.0 591.1,198.0 594.2,198.0 597.4,198.0 600.6,198.0 603.7,198.0 606.9,198.0 610.1,198.0 613.3,198.0 616.4,198.0 619.6,198.0 622.8,198.0 625.9,198.0 629.1,198.0 632.3,198.0 635.5,198.0 638.6,198.0 641.8,198.0 645.0,198.0 648.1,198.0 651.3,198.0 654.5,198.0 657.7,198.0 660.8,198.0 664.0,198.0"/><circle cx="36.0" cy="145.1" r="3" fill="#8a5a5a"/><circle cx="39.2" cy="145.1" r="3" fill="#8a5a5a"/><circle cx="42.3" cy="145.1" r="3" fill="#8a5a5a"/><circle cx="45.5" cy="145.1" r="3" fill="#8a5a5a"/><circle cx="48.7" cy="145.1" r="3" fill="#8a5a5a"/><circle cx="51.9" cy="145.1" r="3" fill="#8a5a5a"/><circle cx="55.0" cy="145.1" r="3" fill="#8a5a5a"/><circle cx="58.2" cy="145.1" r="3" fill="#8a5a5a"/><circle cx="61.4" cy="145.1" r="3" fill="#8a5a5a"/><circle cx="64.5" cy="145.1" r="3" fill="#8a5a5a"/><circle cx="67.7" cy="145.1" r="3" fill="#8a5a5a"/><circle cx="70.9" cy="145.1" r="3" fill="#8a5a5a"/><circle cx="74.1" cy="145.1" r="3" fill="#8a5a5a"/><circle cx="77.2" cy="145.1" r="3" fill="#8a5a5a"/><circle cx="80.4" cy="145.1" r="3" fill="#8a5a5a"/><circle cx="83.6" cy="145.1" r="3" fill="#8a5a5a"/><circle cx="86.7" cy="145.1" r="3" fill="#8a5a5a"/><circle cx="89.9" cy="145.1" r="3" fill="#8a5a5a"/><circle cx="93.1" cy="145.1" r="3" fill="#8a5a5a"/><circle cx="96.3" cy="145.1" r="3" fill="#8a5a5a"/><circle cx="99.4" cy="145.1" r="3" fill="#8a5a5a"/><circle cx="102.6" cy="145.1" r="3" fill="#8a5a5a"/><circle cx="105.8" cy="145.1" r="3" fill="#8a5a5a"/><circle cx="108.9" cy="145.1" r="3" fill="#8a5a5a"/><circle cx="112.1" cy="145.1" r="3" fill="#8a5a5a"/><circle cx="115.3" cy="145.1" r="3" fill="#8a5a5a"/><circle cx="118.5" cy="145.1" r="3" fill="#8a5a5a"/><circle cx="121.6" cy="145.1" r="3" fill="#8a5a5a"/><circle cx="124.8" cy="145.1" r="3" fill="#8a5a5a"/><circle cx="128.0" cy="145.1" r="3" fill="#8a5a5a"/><circle cx="131.2" cy="145.1" r="3" fill="#8a5a5a"/><circle cx="134.3" cy="145.1" r="3" fill="#8a5a5a"/><circle cx="137.5" cy="145.1" r="3" fill="#8a5a5a"/><circle cx="140.7" cy="145.1" r="3" fill="#8a5a5a"/><circle cx="143.8" cy="145.1" r="3" fill="#8a5a5a"/><circle cx="147.0" cy="145.1" r="3" fill="#8a5a5a"/><circle cx="150.2" cy="145.1" r="3" fill="#8a5a5a"/><circle cx="153.4" cy="145.1" r="3" fill="#8a5a5a"/><circle cx="156.5" cy="145.1" r="3" fill="#8a5a5a"/><circle cx="159.7" cy="145.1" r="3" fill="#8a5a5a"/><circle cx="162.9" cy="145.1" r="3" fill="#8a5a5a"/><circle cx="166.0" cy="145.1" r="3" fill="#8a5a5a"/><circle cx="169.2" cy="145.1" r="3" fill="#8a5a5a"/><circle cx="172.4" cy="145.1" r="3" fill="#8a5a5a"/><circle cx="175.6" cy="145.1" r="3" fill="#8a5a5a"/><circle cx="178.7" cy="145.1" r="3" fill="#8a5a5a"/><circle cx="181.9" cy="145.1" r="3" fill="#8a5a5a"/><circle cx="185.1" cy="145.1" r="3" fill="#8a5a5a"/><circle cx="188.2" cy="145.1" r="3" fill="#8a5a5a"/><circle cx="191.4" cy="145.1" r="3" fill="#8a5a5a"/><circle cx="194.6" cy="155.7" r="3" fill="#8a5a5a"/><circle cx="197.8" cy="155.7" r="3" fill="#8a5a5a"/><circle cx="200.9" cy="155.7" r="3" fill="#8a5a5a"/><circle cx="204.1" cy="155.7" r="3" fill="#8a5a5a"/><circle cx="207.3" cy="155.7" r="3" fill="#8a5a5a"/><circle cx="210.4" cy="155.7" r="3" fill="#8a5a5a"/><circle cx="213.6" cy="155.7" r="3" fill="#8a5a5a"/><circle cx="216.8" cy="155.7" r="3" fill="#8a5a5a"/><circle cx="220.0" cy="155.7" r="3" fill="#8a5a5a"/><circle cx="223.1" cy="155.7" r="3" fill="#8a5a5a"/><circle cx="226.3" cy="155.7" r="3" fill="#8a5a5a"/><circle cx="229.5" cy="155.7" r="3" fill="#8a5a5a"/><circle cx="232.6" cy="155.7" r="3" fill="#8a5a5a"/><circle cx="235.8" cy="155.7" r="3" fill="#8a5a5a"/><circle cx="239.0" cy="155.7" r="3" fill="#8a5a5a"/><circle cx="242.2" cy="155.7" r="3" fill="#8a5a5a"/><circle cx="245.3" cy="155.7" r="3" fill="#8a5a5a"/><circle cx="248.5" cy="155.7" r="3" fill="#8a5a5a"/><circle cx="251.7" cy="155.7" r="3" fill="#8a5a5a"/><circle cx="254.8" cy="155.7" r="3" fill="#8a5a5a"/><circle cx="258.0" cy="155.7" r="3" fill="#8a5a5a"/><circle cx="261.2" cy="155.7" r="3" fill="#8a5a5a"/><circle cx="264.4" cy="155.7" r="3" fill="#8a5a5a"/><circle cx="267.5" cy="155.7" r="3" fill="#8a5a5a"/><circle cx="270.7" cy="155.7" r="3" fill="#8a5a5a"/><circle cx="273.9" cy="155.7" r="3" fill="#8a5a5a"/><circle cx="277.1" cy="155.7" r="3" fill="#8a5a5a"/><circle cx="280.2" cy="155.7" r="3" fill="#8a5a5a"/><circle cx="283.4" cy="155.7" r="3" fill="#8a5a5a"/><circle cx="286.6" cy="155.7" r="3" fill="#8a5a5a"/><circle cx="289.7" cy="155.7" r="3" fill="#8a5a5a"/><circle cx="292.9" cy="155.7" r="3" fill="#8a5a5a"/><circle cx="296.1" cy="155.7" r="3" fill="#8a5a5a"/><circle cx="299.3" cy="155.7" r="3" fill="#8a5a5a"/><circle cx="302.4" cy="167.6" r="3" fill="#8a5a5a"/><circle cx="305.6" cy="167.6" r="3" fill="#8a5a5a"/><circle cx="308.8" cy="170.3" r="3" fill="#8a5a5a"/><circle cx="311.9" cy="170.3" r="3" fill="#8a5a5a"/><circle cx="315.1" cy="170.5" r="3" fill="#8a5a5a"/><circle cx="318.3" cy="170.7" r="3" fill="#8a5a5a"/><circle cx="321.5" cy="170.7" r="3" fill="#8a5a5a"/><circle cx="324.6" cy="170.9" r="3" fill="#8a5a5a"/><circle cx="327.8" cy="172.7" r="3" fill="#8a5a5a"/><circle cx="331.0" cy="180.6" r="3" fill="#8a5a5a"/><circle cx="334.1" cy="181.8" r="3" fill="#8a5a5a"/><circle cx="337.3" cy="189.1" r="3" fill="#8a5a5a"/><circle cx="340.5" cy="190.5" r="3" fill="#8a5a5a"/><circle cx="343.7" cy="195.2" r="3" fill="#8a5a5a"/><circle cx="346.8" cy="198.0" r="3" fill="#8a5a5a"/><circle cx="350.0" cy="198.0" r="3" fill="#8a5a5a"/><circle cx="353.2" cy="198.0" r="3" fill="#8a5a5a"/><circle cx="356.3" cy="198.0" r="3" fill="#8a5a5a"/><circle cx="359.5" cy="198.0" r="3" fill="#8a5a5a"/><circle cx="362.7" cy="198.0" r="3" fill="#8a5a5a"/><circle cx="365.9" cy="198.0" r="3" fill="#8a5a5a"/><circle cx="369.0" cy="198.0" r="3" fill="#8a5a5a"/><circle cx="372.2" cy="198.0" r="3" fill="#8a5a5a"/><circle cx="375.4" cy="198.0" r="3" fill="#8a5a5a"/><circle cx="378.5" cy="198.0" r="3" fill="#8a5a5a"/><circle cx="381.7" cy="198.0" r="3" fill="#8a5a5a"/><circle cx="384.9" cy="198.0" r="3" fill="#8a5a5a"/><circle cx="388.1" cy="198.0" r="3" fill="#8a5a5a"/><circle cx="391.2" cy="198.0" r="3" fill="#8a5a5a"/><circle cx="394.4" cy="198.0" r="3" fill="#8a5a5a"/><circle cx="397.6" cy="198.0" r="3" fill="#8a5a5a"/><circle cx="400.7" cy="198.0" r="3" fill="#8a5a5a"/><circle cx="403.9" cy="198.0" r="3" fill="#8a5a5a"/><circle cx="407.1" cy="198.0" r="3" fill="#8a5a5a"/><circle cx="410.3" cy="198.0" r="3" fill="#8a5a5a"/><circle cx="413.4" cy="198.0" r="3" fill="#8a5a5a"/><circle cx="416.6" cy="198.0" r="3" fill="#8a5a5a"/><circle cx="419.8" cy="198.0" r="3" fill="#8a5a5a"/><circle cx="422.9" cy="198.0" r="3" fill="#8a5a5a"/><circle cx="426.1" cy="198.0" r="3" fill="#8a5a5a"/><circle cx="429.3" cy="198.0" r="3" fill="#8a5a5a"/><circle cx="432.5" cy="198.0" r="3" fill="#8a5a5a"/><circle cx="435.6" cy="198.0" r="3" fill="#8a5a5a"/><circle cx="438.8" cy="198.0" r="3" fill="#8a5a5a"/><circle cx="442.0" cy="198.0" r="3" fill="#8a5a5a"/><circle cx="445.2" cy="198.0" r="3" fill="#8a5a5a"/><circle cx="448.3" cy="198.0" r="3" fill="#8a5a5a"/><circle cx="451.5" cy="198.0" r="3" fill="#8a5a5a"/><circle cx="454.7" cy="198.0" r="3" fill="#8a5a5a"/><circle cx="457.8" cy="198.0" r="3" fill="#8a5a5a"/><circle cx="461.0" cy="198.0" r="3" fill="#8a5a5a"/><circle cx="464.2" cy="198.0" r="3" fill="#8a5a5a"/><circle cx="467.4" cy="198.0" r="3" fill="#8a5a5a"/><circle cx="470.5" cy="198.0" r="3" fill="#8a5a5a"/><circle cx="473.7" cy="198.0" r="3" fill="#8a5a5a"/><circle cx="476.9" cy="198.0" r="3" fill="#8a5a5a"/><circle cx="480.0" cy="198.0" r="3" fill="#8a5a5a"/><circle cx="483.2" cy="198.0" r="3" fill="#8a5a5a"/><circle cx="486.4" cy="198.0" r="3" fill="#8a5a5a"/><circle cx="489.6" cy="198.0" r="3" fill="#8a5a5a"/><circle cx="492.7" cy="198.0" r="3" fill="#8a5a5a"/><circle cx="495.9" cy="198.0" r="3" fill="#8a5a5a"/><circle cx="499.1" cy="198.0" r="3" fill="#8a5a5a"/><circle cx="502.2" cy="198.0" r="3" fill="#8a5a5a"/><circle cx="505.4" cy="198.0" r="3" fill="#8a5a5a"/><circle cx="508.6" cy="198.0" r="3" fill="#8a5a5a"/><circle cx="511.8" cy="198.0" r="3" fill="#8a5a5a"/><circle cx="514.9" cy="198.0" r="3" fill="#8a5a5a"/><circle cx="518.1" cy="198.0" r="3" fill="#8a5a5a"/><circle cx="521.3" cy="198.0" r="3" fill="#8a5a5a"/><circle cx="524.4" cy="198.0" r="3" fill="#8a5a5a"/><circle cx="527.6" cy="198.0" r="3" fill="#8a5a5a"/><circle cx="530.8" cy="198.0" r="3" fill="#8a5a5a"/><circle cx="534.0" cy="198.0" r="3" fill="#8a5a5a"/><circle cx="537.1" cy="198.0" r="3" fill="#8a5a5a"/><circle cx="540.3" cy="198.0" r="3" fill="#8a5a5a"/><circle cx="543.5" cy="198.0" r="3" fill="#8a5a5a"/><circle cx="546.6" cy="198.0" r="3" fill="#8a5a5a"/><circle cx="549.8" cy="198.0" r="3" fill="#8a5a5a"/><circle cx="553.0" cy="198.0" r="3" fill="#8a5a5a"/><circle cx="556.2" cy="198.0" r="3" fill="#8a5a5a"/><circle cx="559.3" cy="198.0" r="3" fill="#8a5a5a"/><circle cx="562.5" cy="198.0" r="3" fill="#8a5a5a"/><circle cx="565.7" cy="198.0" r="3" fill="#8a5a5a"/><circle cx="568.8" cy="198.0" r="3" fill="#8a5a5a"/><circle cx="572.0" cy="198.0" r="3" fill="#8a5a5a"/><circle cx="575.2" cy="198.0" r="3" fill="#8a5a5a"/><circle cx="578.4" cy="198.0" r="3" fill="#8a5a5a"/><circle cx="581.5" cy="198.0" r="3" fill="#8a5a5a"/><circle cx="584.7" cy="198.0" r="3" fill="#8a5a5a"/><circle cx="587.9" cy="198.0" r="3" fill="#8a5a5a"/><circle cx="591.1" cy="198.0" r="3" fill="#8a5a5a"/><circle cx="594.2" cy="198.0" r="3" fill="#8a5a5a"/><circle cx="597.4" cy="198.0" r="3" fill="#8a5a5a"/><circle cx="600.6" cy="198.0" r="3" fill="#8a5a5a"/><circle cx="603.7" cy="198.0" r="3" fill="#8a5a5a"/><circle cx="606.9" cy="198.0" r="3" fill="#8a5a5a"/><circle cx="610.1" cy="198.0" r="3" fill="#8a5a5a"/><circle cx="613.3" cy="198.0" r="3" fill="#8a5a5a"/><circle cx="616.4" cy="198.0" r="3" fill="#8a5a5a"/><circle cx="619.6" cy="198.0" r="3" fill="#8a5a5a"/><circle cx="622.8" cy="198.0" r="3" fill="#8a5a5a"/><circle cx="625.9" cy="198.0" r="3" fill="#8a5a5a"/><circle cx="629.1" cy="198.0" r="3" fill="#8a5a5a"/><circle cx="632.3" cy="198.0" r="3" fill="#8a5a5a"/><circle cx="635.5" cy="198.0" r="3" fill="#8a5a5a"/><circle cx="638.6" cy="198.0" r="3" fill="#8a5a5a"/><circle cx="641.8" cy="198.0" r="3" fill="#8a5a5a"/><circle cx="645.0" cy="198.0" r="3" fill="#8a5a5a"/><circle cx="648.1" cy="198.0" r="3" fill="#8a5a5a"/><circle cx="651.3" cy="198.0" r="3" fill="#8a5a5a"/><circle cx="654.5" cy="198.0" r="3" fill="#8a5a5a"/><circle cx="657.7" cy="198.0" r="3" fill="#8a5a5a"/><circle cx="660.8" cy="198.0" r="3" fill="#8a5a5a"/><circle cx="664.0" cy="198.0" r="3" fill="#8a5a5a"/>
<polyline fill="none" stroke="#3fb950" stroke-width="2.5" stroke-linejoin="round" points="36.0,198.0 39.2,198.0 42.3,198.0 45.5,198.0 48.7,198.0 51.9,198.0 55.0,198.0 58.2,198.0 61.4,198.0 64.5,198.0 67.7,198.0 70.9,198.0 74.1,198.0 77.2,198.0 80.4,198.0 83.6,198.0 86.7,198.0 89.9,198.0 93.1,198.0 96.3,198.0 99.4,198.0 102.6,198.0 105.8,198.0 108.9,198.0 112.1,198.0 115.3,198.0 118.5,198.0 121.6,198.0 124.8,198.0 128.0,198.0 131.2,198.0 134.3,198.0 137.5,198.0 140.7,198.0 143.8,198.0 147.0,198.0 150.2,198.0 153.4,198.0 156.5,198.0 159.7,198.0 162.9,198.0 166.0,198.0 169.2,198.0 172.4,191.7 175.6,191.7 178.7,191.7 181.9,191.7 185.1,191.7 188.2,191.7 191.4,191.7 194.6,192.9 197.8,192.9 200.9,190.7 204.1,190.7 207.3,190.7 210.4,190.7 213.6,190.7 216.8,190.5 220.0,190.5 223.1,190.5 226.3,190.3 229.5,190.3 232.6,190.3 235.8,190.3 239.0,190.3 242.2,190.3 245.3,190.3 248.5,190.3 251.7,190.3 254.8,190.3 258.0,190.3 261.2,190.3 264.4,190.3 267.5,190.3 270.7,190.3 273.9,190.3 277.1,190.3 280.2,190.3 283.4,190.3 286.6,190.3 289.7,190.3 292.9,189.3 296.1,189.3 299.3,189.3 302.4,190.7 305.6,190.7 308.8,190.7 311.9,190.7 315.1,190.7 318.3,190.7 321.5,190.7 324.6,190.7 327.8,190.7 331.0,190.9 334.1,190.9 337.3,190.9 340.5,194.2 343.7,196.8 346.8,198.0 350.0,198.0 353.2,198.0 356.3,198.0 359.5,198.0 362.7,198.0 365.9,198.0 369.0,198.0 372.2,198.0 375.4,198.0 378.5,198.0 381.7,198.0 384.9,198.0 388.1,198.0 391.2,198.0 394.4,198.0 397.6,198.0 400.7,198.0 403.9,198.0 407.1,198.0 410.3,198.0 413.4,198.0 416.6,198.0 419.8,198.0 422.9,198.0 426.1,198.0 429.3,198.0 432.5,198.0 435.6,198.0 438.8,198.0 442.0,198.0 445.2,198.0 448.3,198.0 451.5,198.0 454.7,198.0 457.8,198.0 461.0,198.0 464.2,198.0 467.4,198.0 470.5,198.0 473.7,198.0 476.9,198.0 480.0,198.0 483.2,198.0 486.4,198.0 489.6,198.0 492.7,198.0 495.9,198.0 499.1,198.0 502.2,198.0 505.4,198.0 508.6,198.0 511.8,198.0 514.9,198.0 518.1,198.0 521.3,198.0 524.4,198.0 527.6,198.0 530.8,198.0 534.0,198.0 537.1,198.0 540.3,198.0 543.5,198.0 546.6,198.0 549.8,198.0 553.0,198.0 556.2,198.0 559.3,198.0 562.5,198.0 565.7,198.0 568.8,198.0 572.0,198.0 575.2,198.0 578.4,198.0 581.5,198.0 584.7,198.0 587.9,198.0 591.1,198.0 594.2,198.0 597.4,198.0 600.6,198.0 603.7,198.0 606.9,198.0 610.1,198.0 613.3,198.0 616.4,198.0 619.6,198.0 622.8,198.0 625.9,198.0 629.1,198.0 632.3,198.0 635.5,198.0 638.6,198.0 641.8,198.0 645.0,198.0 648.1,198.0 651.3,198.0 654.5,198.0 657.7,198.0 660.8,198.0 664.0,198.0"/><circle cx="36.0" cy="198.0" r="3" fill="#3fb950"/><circle cx="39.2" cy="198.0" r="3" fill="#3fb950"/><circle cx="42.3" cy="198.0" r="3" fill="#3fb950"/><circle cx="45.5" cy="198.0" r="3" fill="#3fb950"/><circle cx="48.7" cy="198.0" r="3" fill="#3fb950"/><circle cx="51.9" cy="198.0" r="3" fill="#3fb950"/><circle cx="55.0" cy="198.0" r="3" fill="#3fb950"/><circle cx="58.2" cy="198.0" r="3" fill="#3fb950"/><circle cx="61.4" cy="198.0" r="3" fill="#3fb950"/><circle cx="64.5" cy="198.0" r="3" fill="#3fb950"/><circle cx="67.7" cy="198.0" r="3" fill="#3fb950"/><circle cx="70.9" cy="198.0" r="3" fill="#3fb950"/><circle cx="74.1" cy="198.0" r="3" fill="#3fb950"/><circle cx="77.2" cy="198.0" r="3" fill="#3fb950"/><circle cx="80.4" cy="198.0" r="3" fill="#3fb950"/><circle cx="83.6" cy="198.0" r="3" fill="#3fb950"/><circle cx="86.7" cy="198.0" r="3" fill="#3fb950"/><circle cx="89.9" cy="198.0" r="3" fill="#3fb950"/><circle cx="93.1" cy="198.0" r="3" fill="#3fb950"/><circle cx="96.3" cy="198.0" r="3" fill="#3fb950"/><circle cx="99.4" cy="198.0" r="3" fill="#3fb950"/><circle cx="102.6" cy="198.0" r="3" fill="#3fb950"/><circle cx="105.8" cy="198.0" r="3" fill="#3fb950"/><circle cx="108.9" cy="198.0" r="3" fill="#3fb950"/><circle cx="112.1" cy="198.0" r="3" fill="#3fb950"/><circle cx="115.3" cy="198.0" r="3" fill="#3fb950"/><circle cx="118.5" cy="198.0" r="3" fill="#3fb950"/><circle cx="121.6" cy="198.0" r="3" fill="#3fb950"/><circle cx="124.8" cy="198.0" r="3" fill="#3fb950"/><circle cx="128.0" cy="198.0" r="3" fill="#3fb950"/><circle cx="131.2" cy="198.0" r="3" fill="#3fb950"/><circle cx="134.3" cy="198.0" r="3" fill="#3fb950"/><circle cx="137.5" cy="198.0" r="3" fill="#3fb950"/><circle cx="140.7" cy="198.0" r="3" fill="#3fb950"/><circle cx="143.8" cy="198.0" r="3" fill="#3fb950"/><circle cx="147.0" cy="198.0" r="3" fill="#3fb950"/><circle cx="150.2" cy="198.0" r="3" fill="#3fb950"/><circle cx="153.4" cy="198.0" r="3" fill="#3fb950"/><circle cx="156.5" cy="198.0" r="3" fill="#3fb950"/><circle cx="159.7" cy="198.0" r="3" fill="#3fb950"/><circle cx="162.9" cy="198.0" r="3" fill="#3fb950"/><circle cx="166.0" cy="198.0" r="3" fill="#3fb950"/><circle cx="169.2" cy="198.0" r="3" fill="#3fb950"/><circle cx="172.4" cy="191.7" r="3" fill="#3fb950"/><circle cx="175.6" cy="191.7" r="3" fill="#3fb950"/><circle cx="178.7" cy="191.7" r="3" fill="#3fb950"/><circle cx="181.9" cy="191.7" r="3" fill="#3fb950"/><circle cx="185.1" cy="191.7" r="3" fill="#3fb950"/><circle cx="188.2" cy="191.7" r="3" fill="#3fb950"/><circle cx="191.4" cy="191.7" r="3" fill="#3fb950"/><circle cx="194.6" cy="192.9" r="3" fill="#3fb950"/><circle cx="197.8" cy="192.9" r="3" fill="#3fb950"/><circle cx="200.9" cy="190.7" r="3" fill="#3fb950"/><circle cx="204.1" cy="190.7" r="3" fill="#3fb950"/><circle cx="207.3" cy="190.7" r="3" fill="#3fb950"/><circle cx="210.4" cy="190.7" r="3" fill="#3fb950"/><circle cx="213.6" cy="190.7" r="3" fill="#3fb950"/><circle cx="216.8" cy="190.5" r="3" fill="#3fb950"/><circle cx="220.0" cy="190.5" r="3" fill="#3fb950"/><circle cx="223.1" cy="190.5" r="3" fill="#3fb950"/><circle cx="226.3" cy="190.3" r="3" fill="#3fb950"/><circle cx="229.5" cy="190.3" r="3" fill="#3fb950"/><circle cx="232.6" cy="190.3" r="3" fill="#3fb950"/><circle cx="235.8" cy="190.3" r="3" fill="#3fb950"/><circle cx="239.0" cy="190.3" r="3" fill="#3fb950"/><circle cx="242.2" cy="190.3" r="3" fill="#3fb950"/><circle cx="245.3" cy="190.3" r="3" fill="#3fb950"/><circle cx="248.5" cy="190.3" r="3" fill="#3fb950"/><circle cx="251.7" cy="190.3" r="3" fill="#3fb950"/><circle cx="254.8" cy="190.3" r="3" fill="#3fb950"/><circle cx="258.0" cy="190.3" r="3" fill="#3fb950"/><circle cx="261.2" cy="190.3" r="3" fill="#3fb950"/><circle cx="264.4" cy="190.3" r="3" fill="#3fb950"/><circle cx="267.5" cy="190.3" r="3" fill="#3fb950"/><circle cx="270.7" cy="190.3" r="3" fill="#3fb950"/><circle cx="273.9" cy="190.3" r="3" fill="#3fb950"/><circle cx="277.1" cy="190.3" r="3" fill="#3fb950"/><circle cx="280.2" cy="190.3" r="3" fill="#3fb950"/><circle cx="283.4" cy="190.3" r="3" fill="#3fb950"/><circle cx="286.6" cy="190.3" r="3" fill="#3fb950"/><circle cx="289.7" cy="190.3" r="3" fill="#3fb950"/><circle cx="292.9" cy="189.3" r="3" fill="#3fb950"/><circle cx="296.1" cy="189.3" r="3" fill="#3fb950"/><circle cx="299.3" cy="189.3" r="3" fill="#3fb950"/><circle cx="302.4" cy="190.7" r="3" fill="#3fb950"/><circle cx="305.6" cy="190.7" r="3" fill="#3fb950"/><circle cx="308.8" cy="190.7" r="3" fill="#3fb950"/><circle cx="311.9" cy="190.7" r="3" fill="#3fb950"/><circle cx="315.1" cy="190.7" r="3" fill="#3fb950"/><circle cx="318.3" cy="190.7" r="3" fill="#3fb950"/><circle cx="321.5" cy="190.7" r="3" fill="#3fb950"/><circle cx="324.6" cy="190.7" r="3" fill="#3fb950"/><circle cx="327.8" cy="190.7" r="3" fill="#3fb950"/><circle cx="331.0" cy="190.9" r="3" fill="#3fb950"/><circle cx="334.1" cy="190.9" r="3" fill="#3fb950"/><circle cx="337.3" cy="190.9" r="3" fill="#3fb950"/><circle cx="340.5" cy="194.2" r="3" fill="#3fb950"/><circle cx="343.7" cy="196.8" r="3" fill="#3fb950"/><circle cx="346.8" cy="198.0" r="3" fill="#3fb950"/><circle cx="350.0" cy="198.0" r="3" fill="#3fb950"/><circle cx="353.2" cy="198.0" r="3" fill="#3fb950"/><circle cx="356.3" cy="198.0" r="3" fill="#3fb950"/><circle cx="359.5" cy="198.0" r="3" fill="#3fb950"/><circle cx="362.7" cy="198.0" r="3" fill="#3fb950"/><circle cx="365.9" cy="198.0" r="3" fill="#3fb950"/><circle cx="369.0" cy="198.0" r="3" fill="#3fb950"/><circle cx="372.2" cy="198.0" r="3" fill="#3fb950"/><circle cx="375.4" cy="198.0" r="3" fill="#3fb950"/><circle cx="378.5" cy="198.0" r="3" fill="#3fb950"/><circle cx="381.7" cy="198.0" r="3" fill="#3fb950"/><circle cx="384.9" cy="198.0" r="3" fill="#3fb950"/><circle cx="388.1" cy="198.0" r="3" fill="#3fb950"/><circle cx="391.2" cy="198.0" r="3" fill="#3fb950"/><circle cx="394.4" cy="198.0" r="3" fill="#3fb950"/><circle cx="397.6" cy="198.0" r="3" fill="#3fb950"/><circle cx="400.7" cy="198.0" r="3" fill="#3fb950"/><circle cx="403.9" cy="198.0" r="3" fill="#3fb950"/><circle cx="407.1" cy="198.0" r="3" fill="#3fb950"/><circle cx="410.3" cy="198.0" r="3" fill="#3fb950"/><circle cx="413.4" cy="198.0" r="3" fill="#3fb950"/><circle cx="416.6" cy="198.0" r="3" fill="#3fb950"/><circle cx="419.8" cy="198.0" r="3" fill="#3fb950"/><circle cx="422.9" cy="198.0" r="3" fill="#3fb950"/><circle cx="426.1" cy="198.0" r="3" fill="#3fb950"/><circle cx="429.3" cy="198.0" r="3" fill="#3fb950"/><circle cx="432.5" cy="198.0" r="3" fill="#3fb950"/><circle cx="435.6" cy="198.0" r="3" fill="#3fb950"/><circle cx="438.8" cy="198.0" r="3" fill="#3fb950"/><circle cx="442.0" cy="198.0" r="3" fill="#3fb950"/><circle cx="445.2" cy="198.0" r="3" fill="#3fb950"/><circle cx="448.3" cy="198.0" r="3" fill="#3fb950"/><circle cx="451.5" cy="198.0" r="3" fill="#3fb950"/><circle cx="454.7" cy="198.0" r="3" fill="#3fb950"/><circle cx="457.8" cy="198.0" r="3" fill="#3fb950"/><circle cx="461.0" cy="198.0" r="3" fill="#3fb950"/><circle cx="464.2" cy="198.0" r="3" fill="#3fb950"/><circle cx="467.4" cy="198.0" r="3" fill="#3fb950"/><circle cx="470.5" cy="198.0" r="3" fill="#3fb950"/><circle cx="473.7" cy="198.0" r="3" fill="#3fb950"/><circle cx="476.9" cy="198.0" r="3" fill="#3fb950"/><circle cx="480.0" cy="198.0" r="3" fill="#3fb950"/><circle cx="483.2" cy="198.0" r="3" fill="#3fb950"/><circle cx="486.4" cy="198.0" r="3" fill="#3fb950"/><circle cx="489.6" cy="198.0" r="3" fill="#3fb950"/><circle cx="492.7" cy="198.0" r="3" fill="#3fb950"/><circle cx="495.9" cy="198.0" r="3" fill="#3fb950"/><circle cx="499.1" cy="198.0" r="3" fill="#3fb950"/><circle cx="502.2" cy="198.0" r="3" fill="#3fb950"/><circle cx="505.4" cy="198.0" r="3" fill="#3fb950"/><circle cx="508.6" cy="198.0" r="3" fill="#3fb950"/><circle cx="511.8" cy="198.0" r="3" fill="#3fb950"/><circle cx="514.9" cy="198.0" r="3" fill="#3fb950"/><circle cx="518.1" cy="198.0" r="3" fill="#3fb950"/><circle cx="521.3" cy="198.0" r="3" fill="#3fb950"/><circle cx="524.4" cy="198.0" r="3" fill="#3fb950"/><circle cx="527.6" cy="198.0" r="3" fill="#3fb950"/><circle cx="530.8" cy="198.0" r="3" fill="#3fb950"/><circle cx="534.0" cy="198.0" r="3" fill="#3fb950"/><circle cx="537.1" cy="198.0" r="3" fill="#3fb950"/><circle cx="540.3" cy="198.0" r="3" fill="#3fb950"/><circle cx="543.5" cy="198.0" r="3" fill="#3fb950"/><circle cx="546.6" cy="198.0" r="3" fill="#3fb950"/><circle cx="549.8" cy="198.0" r="3" fill="#3fb950"/><circle cx="553.0" cy="198.0" r="3" fill="#3fb950"/><circle cx="556.2" cy="198.0" r="3" fill="#3fb950"/><circle cx="559.3" cy="198.0" r="3" fill="#3fb950"/><circle cx="562.5" cy="198.0" r="3" fill="#3fb950"/><circle cx="565.7" cy="198.0" r="3" fill="#3fb950"/><circle cx="568.8" cy="198.0" r="3" fill="#3fb950"/><circle cx="572.0" cy="198.0" r="3" fill="#3fb950"/><circle cx="575.2" cy="198.0" r="3" fill="#3fb950"/><circle cx="578.4" cy="198.0" r="3" fill="#3fb950"/><circle cx="581.5" cy="198.0" r="3" fill="#3fb950"/><circle cx="584.7" cy="198.0" r="3" fill="#3fb950"/><circle cx="587.9" cy="198.0" r="3" fill="#3fb950"/><circle cx="591.1" cy="198.0" r="3" fill="#3fb950"/><circle cx="594.2" cy="198.0" r="3" fill="#3fb950"/><circle cx="597.4" cy="198.0" r="3" fill="#3fb950"/><circle cx="600.6" cy="198.0" r="3" fill="#3fb950"/><circle cx="603.7" cy="198.0" r="3" fill="#3fb950"/><circle cx="606.9" cy="198.0" r="3" fill="#3fb950"/><circle cx="610.1" cy="198.0" r="3" fill="#3fb950"/><circle cx="613.3" cy="198.0" r="3" fill="#3fb950"/><circle cx="616.4" cy="198.0" r="3" fill="#3fb950"/><circle cx="619.6" cy="198.0" r="3" fill="#3fb950"/><circle cx="622.8" cy="198.0" r="3" fill="#3fb950"/><circle cx="625.9" cy="198.0" r="3" fill="#3fb950"/><circle cx="629.1" cy="198.0" r="3" fill="#3fb950"/><circle cx="632.3" cy="198.0" r="3" fill="#3fb950"/><circle cx="635.5" cy="198.0" r="3" fill="#3fb950"/><circle cx="638.6" cy="198.0" r="3" fill="#3fb950"/><circle cx="641.8" cy="198.0" r="3" fill="#3fb950"/><circle cx="645.0" cy="198.0" r="3" fill="#3fb950"/><circle cx="648.1" cy="198.0" r="3" fill="#3fb950"/><circle cx="651.3" cy="198.0" r="3" fill="#3fb950"/><circle cx="654.5" cy="198.0" r="3" fill="#3fb950"/><circle cx="657.7" cy="198.0" r="3" fill="#3fb950"/><circle cx="660.8" cy="198.0" r="3" fill="#3fb950"/><circle cx="664.0" cy="198.0" r="3" fill="#3fb950"/>
<polyline fill="none" stroke="#4aa3ff" stroke-width="2.5" stroke-linejoin="round" points="36.0,144.3 39.2,144.3 42.3,144.3 45.5,144.3 48.7,144.3 51.9,144.3 55.0,144.3 58.2,144.3 61.4,144.3 64.5,144.3 67.7,144.3 70.9,144.3 74.1,144.3 77.2,144.3 80.4,144.3 83.6,136.2 86.7,132.4 89.9,129.6 93.1,129.6 96.3,121.0 99.4,121.0 102.6,121.0 105.8,114.4 108.9,114.4 112.1,114.4 115.3,111.3 118.5,110.9 121.6,110.9 124.8,110.5 128.0,110.5 131.2,109.9 134.3,108.7 137.5,107.3 140.7,106.9 143.8,106.9 147.0,106.9 150.2,106.9 153.4,106.9 156.5,106.9 159.7,106.9 162.9,106.9 166.0,106.9 169.2,106.9 172.4,113.2 175.6,113.2 178.7,113.2 181.9,113.2 185.1,113.2 188.2,110.7 191.4,105.3 194.6,83.4 197.8,83.4 200.9,85.6 204.1,85.6 207.3,85.6 210.4,85.6 213.6,85.6 216.8,85.8 220.0,85.8 223.1,85.8 226.3,86.0 229.5,86.0 232.6,86.0 235.8,86.0 239.0,86.0 242.2,86.0 245.3,86.0 248.5,86.0 251.7,86.0 254.8,86.0 258.0,86.0 261.2,86.0 264.4,86.0 267.5,86.0 270.7,86.0 273.9,86.0 277.1,86.0 280.2,86.0 283.4,86.0 286.6,86.0 289.7,86.0 292.9,87.0 296.1,87.0 299.3,87.0 302.4,73.7 305.6,73.7 308.8,71.0 311.9,71.0 315.1,70.8 318.3,70.6 321.5,70.6 324.6,70.4 327.8,68.6 331.0,60.5 334.1,59.3 337.3,52.0 340.5,47.3 343.7,40.1 346.8,36.0 350.0,36.0 353.2,36.0 356.3,36.0 359.5,36.0 362.7,36.0 365.9,36.0 369.0,36.0 372.2,36.0 375.4,36.0 378.5,36.0 381.7,36.0 384.9,36.0 388.1,36.0 391.2,36.0 394.4,36.0 397.6,36.0 400.7,36.0 403.9,36.0 407.1,36.0 410.3,36.0 413.4,36.0 416.6,36.0 419.8,36.0 422.9,36.0 426.1,36.0 429.3,36.0 432.5,36.0 435.6,36.0 438.8,36.0 442.0,36.0 445.2,36.0 448.3,36.0 451.5,36.0 454.7,36.0 457.8,36.0 461.0,36.0 464.2,36.0 467.4,36.0 470.5,36.0 473.7,36.0 476.9,36.0 480.0,36.0 483.2,36.0 486.4,36.0 489.6,36.0 492.7,36.0 495.9,36.0 499.1,36.0 502.2,36.0 505.4,36.0 508.6,36.0 511.8,36.0 514.9,36.0 518.1,36.0 521.3,36.0 524.4,36.0 527.6,36.0 530.8,36.0 534.0,36.0 537.1,36.0 540.3,36.0 543.5,36.0 546.6,36.0 549.8,36.0 553.0,36.0 556.2,36.0 559.3,36.0 562.5,36.0 565.7,36.0 568.8,36.0 572.0,36.0 575.2,36.0 578.4,36.0 581.5,36.0 584.7,36.0 587.9,36.0 591.1,36.0 594.2,36.0 597.4,36.0 600.6,36.0 603.7,36.0 606.9,36.0 610.1,36.0 613.3,36.0 616.4,36.0 619.6,36.0 622.8,36.0 625.9,36.0 629.1,36.0 632.3,36.0 635.5,36.0 638.6,36.0 641.8,36.0 645.0,36.0 648.1,36.0 651.3,36.0 654.5,36.0 657.7,36.0 660.8,36.0 664.0,36.0"/><circle cx="36.0" cy="144.3" r="3" fill="#4aa3ff"/><circle cx="39.2" cy="144.3" r="3" fill="#4aa3ff"/><circle cx="42.3" cy="144.3" r="3" fill="#4aa3ff"/><circle cx="45.5" cy="144.3" r="3" fill="#4aa3ff"/><circle cx="48.7" cy="144.3" r="3" fill="#4aa3ff"/><circle cx="51.9" cy="144.3" r="3" fill="#4aa3ff"/><circle cx="55.0" cy="144.3" r="3" fill="#4aa3ff"/><circle cx="58.2" cy="144.3" r="3" fill="#4aa3ff"/><circle cx="61.4" cy="144.3" r="3" fill="#4aa3ff"/><circle cx="64.5" cy="144.3" r="3" fill="#4aa3ff"/><circle cx="67.7" cy="144.3" r="3" fill="#4aa3ff"/><circle cx="70.9" cy="144.3" r="3" fill="#4aa3ff"/><circle cx="74.1" cy="144.3" r="3" fill="#4aa3ff"/><circle cx="77.2" cy="144.3" r="3" fill="#4aa3ff"/><circle cx="80.4" cy="144.3" r="3" fill="#4aa3ff"/><circle cx="83.6" cy="136.2" r="3" fill="#4aa3ff"/><circle cx="86.7" cy="132.4" r="3" fill="#4aa3ff"/><circle cx="89.9" cy="129.6" r="3" fill="#4aa3ff"/><circle cx="93.1" cy="129.6" r="3" fill="#4aa3ff"/><circle cx="96.3" cy="121.0" r="3" fill="#4aa3ff"/><circle cx="99.4" cy="121.0" r="3" fill="#4aa3ff"/><circle cx="102.6" cy="121.0" r="3" fill="#4aa3ff"/><circle cx="105.8" cy="114.4" r="3" fill="#4aa3ff"/><circle cx="108.9" cy="114.4" r="3" fill="#4aa3ff"/><circle cx="112.1" cy="114.4" r="3" fill="#4aa3ff"/><circle cx="115.3" cy="111.3" r="3" fill="#4aa3ff"/><circle cx="118.5" cy="110.9" r="3" fill="#4aa3ff"/><circle cx="121.6" cy="110.9" r="3" fill="#4aa3ff"/><circle cx="124.8" cy="110.5" r="3" fill="#4aa3ff"/><circle cx="128.0" cy="110.5" r="3" fill="#4aa3ff"/><circle cx="131.2" cy="109.9" r="3" fill="#4aa3ff"/><circle cx="134.3" cy="108.7" r="3" fill="#4aa3ff"/><circle cx="137.5" cy="107.3" r="3" fill="#4aa3ff"/><circle cx="140.7" cy="106.9" r="3" fill="#4aa3ff"/><circle cx="143.8" cy="106.9" r="3" fill="#4aa3ff"/><circle cx="147.0" cy="106.9" r="3" fill="#4aa3ff"/><circle cx="150.2" cy="106.9" r="3" fill="#4aa3ff"/><circle cx="153.4" cy="106.9" r="3" fill="#4aa3ff"/><circle cx="156.5" cy="106.9" r="3" fill="#4aa3ff"/><circle cx="159.7" cy="106.9" r="3" fill="#4aa3ff"/><circle cx="162.9" cy="106.9" r="3" fill="#4aa3ff"/><circle cx="166.0" cy="106.9" r="3" fill="#4aa3ff"/><circle cx="169.2" cy="106.9" r="3" fill="#4aa3ff"/><circle cx="172.4" cy="113.2" r="3" fill="#4aa3ff"/><circle cx="175.6" cy="113.2" r="3" fill="#4aa3ff"/><circle cx="178.7" cy="113.2" r="3" fill="#4aa3ff"/><circle cx="181.9" cy="113.2" r="3" fill="#4aa3ff"/><circle cx="185.1" cy="113.2" r="3" fill="#4aa3ff"/><circle cx="188.2" cy="110.7" r="3" fill="#4aa3ff"/><circle cx="191.4" cy="105.3" r="3" fill="#4aa3ff"/><circle cx="194.6" cy="83.4" r="3" fill="#4aa3ff"/><circle cx="197.8" cy="83.4" r="3" fill="#4aa3ff"/><circle cx="200.9" cy="85.6" r="3" fill="#4aa3ff"/><circle cx="204.1" cy="85.6" r="3" fill="#4aa3ff"/><circle cx="207.3" cy="85.6" r="3" fill="#4aa3ff"/><circle cx="210.4" cy="85.6" r="3" fill="#4aa3ff"/><circle cx="213.6" cy="85.6" r="3" fill="#4aa3ff"/><circle cx="216.8" cy="85.8" r="3" fill="#4aa3ff"/><circle cx="220.0" cy="85.8" r="3" fill="#4aa3ff"/><circle cx="223.1" cy="85.8" r="3" fill="#4aa3ff"/><circle cx="226.3" cy="86.0" r="3" fill="#4aa3ff"/><circle cx="229.5" cy="86.0" r="3" fill="#4aa3ff"/><circle cx="232.6" cy="86.0" r="3" fill="#4aa3ff"/><circle cx="235.8" cy="86.0" r="3" fill="#4aa3ff"/><circle cx="239.0" cy="86.0" r="3" fill="#4aa3ff"/><circle cx="242.2" cy="86.0" r="3" fill="#4aa3ff"/><circle cx="245.3" cy="86.0" r="3" fill="#4aa3ff"/><circle cx="248.5" cy="86.0" r="3" fill="#4aa3ff"/><circle cx="251.7" cy="86.0" r="3" fill="#4aa3ff"/><circle cx="254.8" cy="86.0" r="3" fill="#4aa3ff"/><circle cx="258.0" cy="86.0" r="3" fill="#4aa3ff"/><circle cx="261.2" cy="86.0" r="3" fill="#4aa3ff"/><circle cx="264.4" cy="86.0" r="3" fill="#4aa3ff"/><circle cx="267.5" cy="86.0" r="3" fill="#4aa3ff"/><circle cx="270.7" cy="86.0" r="3" fill="#4aa3ff"/><circle cx="273.9" cy="86.0" r="3" fill="#4aa3ff"/><circle cx="277.1" cy="86.0" r="3" fill="#4aa3ff"/><circle cx="280.2" cy="86.0" r="3" fill="#4aa3ff"/><circle cx="283.4" cy="86.0" r="3" fill="#4aa3ff"/><circle cx="286.6" cy="86.0" r="3" fill="#4aa3ff"/><circle cx="289.7" cy="86.0" r="3" fill="#4aa3ff"/><circle cx="292.9" cy="87.0" r="3" fill="#4aa3ff"/><circle cx="296.1" cy="87.0" r="3" fill="#4aa3ff"/><circle cx="299.3" cy="87.0" r="3" fill="#4aa3ff"/><circle cx="302.4" cy="73.7" r="3" fill="#4aa3ff"/><circle cx="305.6" cy="73.7" r="3" fill="#4aa3ff"/><circle cx="308.8" cy="71.0" r="3" fill="#4aa3ff"/><circle cx="311.9" cy="71.0" r="3" fill="#4aa3ff"/><circle cx="315.1" cy="70.8" r="3" fill="#4aa3ff"/><circle cx="318.3" cy="70.6" r="3" fill="#4aa3ff"/><circle cx="321.5" cy="70.6" r="3" fill="#4aa3ff"/><circle cx="324.6" cy="70.4" r="3" fill="#4aa3ff"/><circle cx="327.8" cy="68.6" r="3" fill="#4aa3ff"/><circle cx="331.0" cy="60.5" r="3" fill="#4aa3ff"/><circle cx="334.1" cy="59.3" r="3" fill="#4aa3ff"/><circle cx="337.3" cy="52.0" r="3" fill="#4aa3ff"/><circle cx="340.5" cy="47.3" r="3" fill="#4aa3ff"/><circle cx="343.7" cy="40.1" r="3" fill="#4aa3ff"/><circle cx="346.8" cy="36.0" r="3" fill="#4aa3ff"/><circle cx="350.0" cy="36.0" r="3" fill="#4aa3ff"/><circle cx="353.2" cy="36.0" r="3" fill="#4aa3ff"/><circle cx="356.3" cy="36.0" r="3" fill="#4aa3ff"/><circle cx="359.5" cy="36.0" r="3" fill="#4aa3ff"/><circle cx="362.7" cy="36.0" r="3" fill="#4aa3ff"/><circle cx="365.9" cy="36.0" r="3" fill="#4aa3ff"/><circle cx="369.0" cy="36.0" r="3" fill="#4aa3ff"/><circle cx="372.2" cy="36.0" r="3" fill="#4aa3ff"/><circle cx="375.4" cy="36.0" r="3" fill="#4aa3ff"/><circle cx="378.5" cy="36.0" r="3" fill="#4aa3ff"/><circle cx="381.7" cy="36.0" r="3" fill="#4aa3ff"/><circle cx="384.9" cy="36.0" r="3" fill="#4aa3ff"/><circle cx="388.1" cy="36.0" r="3" fill="#4aa3ff"/><circle cx="391.2" cy="36.0" r="3" fill="#4aa3ff"/><circle cx="394.4" cy="36.0" r="3" fill="#4aa3ff"/><circle cx="397.6" cy="36.0" r="3" fill="#4aa3ff"/><circle cx="400.7" cy="36.0" r="3" fill="#4aa3ff"/><circle cx="403.9" cy="36.0" r="3" fill="#4aa3ff"/><circle cx="407.1" cy="36.0" r="3" fill="#4aa3ff"/><circle cx="410.3" cy="36.0" r="3" fill="#4aa3ff"/><circle cx="413.4" cy="36.0" r="3" fill="#4aa3ff"/><circle cx="416.6" cy="36.0" r="3" fill="#4aa3ff"/><circle cx="419.8" cy="36.0" r="3" fill="#4aa3ff"/><circle cx="422.9" cy="36.0" r="3" fill="#4aa3ff"/><circle cx="426.1" cy="36.0" r="3" fill="#4aa3ff"/><circle cx="429.3" cy="36.0" r="3" fill="#4aa3ff"/><circle cx="432.5" cy="36.0" r="3" fill="#4aa3ff"/><circle cx="435.6" cy="36.0" r="3" fill="#4aa3ff"/><circle cx="438.8" cy="36.0" r="3" fill="#4aa3ff"/><circle cx="442.0" cy="36.0" r="3" fill="#4aa3ff"/><circle cx="445.2" cy="36.0" r="3" fill="#4aa3ff"/><circle cx="448.3" cy="36.0" r="3" fill="#4aa3ff"/><circle cx="451.5" cy="36.0" r="3" fill="#4aa3ff"/><circle cx="454.7" cy="36.0" r="3" fill="#4aa3ff"/><circle cx="457.8" cy="36.0" r="3" fill="#4aa3ff"/><circle cx="461.0" cy="36.0" r="3" fill="#4aa3ff"/><circle cx="464.2" cy="36.0" r="3" fill="#4aa3ff"/><circle cx="467.4" cy="36.0" r="3" fill="#4aa3ff"/><circle cx="470.5" cy="36.0" r="3" fill="#4aa3ff"/><circle cx="473.7" cy="36.0" r="3" fill="#4aa3ff"/><circle cx="476.9" cy="36.0" r="3" fill="#4aa3ff"/><circle cx="480.0" cy="36.0" r="3" fill="#4aa3ff"/><circle cx="483.2" cy="36.0" r="3" fill="#4aa3ff"/><circle cx="486.4" cy="36.0" r="3" fill="#4aa3ff"/><circle cx="489.6" cy="36.0" r="3" fill="#4aa3ff"/><circle cx="492.7" cy="36.0" r="3" fill="#4aa3ff"/><circle cx="495.9" cy="36.0" r="3" fill="#4aa3ff"/><circle cx="499.1" cy="36.0" r="3" fill="#4aa3ff"/><circle cx="502.2" cy="36.0" r="3" fill="#4aa3ff"/><circle cx="505.4" cy="36.0" r="3" fill="#4aa3ff"/><circle cx="508.6" cy="36.0" r="3" fill="#4aa3ff"/><circle cx="511.8" cy="36.0" r="3" fill="#4aa3ff"/><circle cx="514.9" cy="36.0" r="3" fill="#4aa3ff"/><circle cx="518.1" cy="36.0" r="3" fill="#4aa3ff"/><circle cx="521.3" cy="36.0" r="3" fill="#4aa3ff"/><circle cx="524.4" cy="36.0" r="3" fill="#4aa3ff"/><circle cx="527.6" cy="36.0" r="3" fill="#4aa3ff"/><circle cx="530.8" cy="36.0" r="3" fill="#4aa3ff"/><circle cx="534.0" cy="36.0" r="3" fill="#4aa3ff"/><circle cx="537.1" cy="36.0" r="3" fill="#4aa3ff"/><circle cx="540.3" cy="36.0" r="3" fill="#4aa3ff"/><circle cx="543.5" cy="36.0" r="3" fill="#4aa3ff"/><circle cx="546.6" cy="36.0" r="3" fill="#4aa3ff"/><circle cx="549.8" cy="36.0" r="3" fill="#4aa3ff"/><circle cx="553.0" cy="36.0" r="3" fill="#4aa3ff"/><circle cx="556.2" cy="36.0" r="3" fill="#4aa3ff"/><circle cx="559.3" cy="36.0" r="3" fill="#4aa3ff"/><circle cx="562.5" cy="36.0" r="3" fill="#4aa3ff"/><circle cx="565.7" cy="36.0" r="3" fill="#4aa3ff"/><circle cx="568.8" cy="36.0" r="3" fill="#4aa3ff"/><circle cx="572.0" cy="36.0" r="3" fill="#4aa3ff"/><circle cx="575.2" cy="36.0" r="3" fill="#4aa3ff"/><circle cx="578.4" cy="36.0" r="3" fill="#4aa3ff"/><circle cx="581.5" cy="36.0" r="3" fill="#4aa3ff"/><circle cx="584.7" cy="36.0" r="3" fill="#4aa3ff"/><circle cx="587.9" cy="36.0" r="3" fill="#4aa3ff"/><circle cx="591.1" cy="36.0" r="3" fill="#4aa3ff"/><circle cx="594.2" cy="36.0" r="3" fill="#4aa3ff"/><circle cx="597.4" cy="36.0" r="3" fill="#4aa3ff"/><circle cx="600.6" cy="36.0" r="3" fill="#4aa3ff"/><circle cx="603.7" cy="36.0" r="3" fill="#4aa3ff"/><circle cx="606.9" cy="36.0" r="3" fill="#4aa3ff"/><circle cx="610.1" cy="36.0" r="3" fill="#4aa3ff"/><circle cx="613.3" cy="36.0" r="3" fill="#4aa3ff"/><circle cx="616.4" cy="36.0" r="3" fill="#4aa3ff"/><circle cx="619.6" cy="36.0" r="3" fill="#4aa3ff"/><circle cx="622.8" cy="36.0" r="3" fill="#4aa3ff"/><circle cx="625.9" cy="36.0" r="3" fill="#4aa3ff"/><circle cx="629.1" cy="36.0" r="3" fill="#4aa3ff"/><circle cx="632.3" cy="36.0" r="3" fill="#4aa3ff"/><circle cx="635.5" cy="36.0" r="3" fill="#4aa3ff"/><circle cx="638.6" cy="36.0" r="3" fill="#4aa3ff"/><circle cx="641.8" cy="36.0" r="3" fill="#4aa3ff"/><circle cx="645.0" cy="36.0" r="3" fill="#4aa3ff"/><circle cx="648.1" cy="36.0" r="3" fill="#4aa3ff"/><circle cx="651.3" cy="36.0" r="3" fill="#4aa3ff"/><circle cx="654.5" cy="36.0" r="3" fill="#4aa3ff"/><circle cx="657.7" cy="36.0" r="3" fill="#4aa3ff"/><circle cx="660.8" cy="36.0" r="3" fill="#4aa3ff"/><circle cx="664.0" cy="36.0" r="3" fill="#4aa3ff"/>
<text x="36" y="225" fill="#6b7280" font-size="11">2026-06-26</text>
<text x="664" y="225" fill="#6b7280" font-size="11" text-anchor="end">2026-07-16</text>
<text x="36" y="212" font-family="system-ui,sans-serif" font-size="11">
<tspan fill="#4aa3ff">&#9679; open FPs</tspan>  <tspan fill="#3fb950">&#9679; closed (Anthropic acting)</tspan>  <tspan fill="#8a5a5a">&#9679; harness withdrawn</tspan></text>
<text x="664" y="22" text-anchor="end" font-family="system-ui,sans-serif" font-size="12">
<tspan fill="#4aa3ff">open 800</tspan>  <tspan fill="#3fb950">closed 0</tspan>  <tspan fill="#8a5a5a">harness 0</tspan></text>
</svg>