<svg xmlns="http://www.w3.org/2000/svg" width="700" height="234" viewBox="0 0 700 234" role="img">
<rect width="700" height="234" rx="12" fill="#16181d"/>
<text x="36" y="22" fill="#e8eaed" font-family="system-ui,sans-serif" font-size="14" font-weight="700">Is Anthropic acting? cyber/aup false positives over time</text>
<line x1="36" y1="198.0" x2="664" y2="198.0" stroke="#2a2e37" stroke-width="1"/><text x="30" y="202.0" fill="#6b7280" font-size="11" text-anchor="end">0</text><line x1="36" y1="117.0" x2="664" y2="117.0" stroke="#2a2e37" stroke-width="1"/><text x="30" y="121.0" fill="#6b7280" font-size="11" text-anchor="end">400</text><line x1="36" y1="36.0" x2="664" y2="36.0" stroke="#2a2e37" stroke-width="1"/><text x="30" y="40.0" fill="#6b7280" font-size="11" text-anchor="end">800</text>

<polyline fill="none" stroke="#8a5a5a" stroke-width="2.5" stroke-linejoin="round" points="36.0,145.1 42.3,145.1 48.7,145.1 55.0,145.1 61.4,145.1 67.7,145.1 74.1,145.1 80.4,145.1 86.7,145.1 93.1,145.1 99.4,145.1 105.8,145.1 112.1,145.1 118.5,145.1 124.8,145.1 131.2,145.1 137.5,145.1 143.8,145.1 150.2,145.1 156.5,145.1 162.9,145.1 169.2,145.1 175.6,145.1 181.9,145.1 188.2,145.1 194.6,145.1 200.9,145.1 207.3,145.1 213.6,145.1 220.0,145.1 226.3,145.1 232.6,145.1 239.0,145.1 245.3,145.1 251.7,145.1 258.0,145.1 264.4,145.1 270.7,145.1 277.1,145.1 283.4,145.1 289.7,145.1 296.1,145.1 302.4,145.1 308.8,145.1 315.1,145.1 321.5,145.1 327.8,145.1 334.1,145.1 340.5,145.1 346.8,145.1 353.2,155.7 359.5,155.7 365.9,155.7 372.2,155.7 378.5,155.7 384.9,155.7 391.2,155.7 397.6,155.7 403.9,155.7 410.3,155.7 416.6,155.7 422.9,155.7 429.3,155.7 435.6,155.7 442.0,155.7 448.3,155.7 454.7,155.7 461.0,155.7 467.4,155.7 473.7,155.7 480.0,155.7 486.4,155.7 492.7,155.7 499.1,155.7 505.4,155.7 511.8,155.7 518.1,155.7 524.4,155.7 530.8,155.7 537.1,155.7 543.5,155.7 549.8,155.7 556.2,155.7 562.5,155.7 568.8,167.6 575.2,167.6 581.5,170.3 587.9,170.3 594.2,170.5 600.6,170.7 606.9,170.7 613.3,170.9 619.6,172.7 625.9,180.6 632.3,181.8 638.6,189.1 645.0,190.5 651.3,195.2 657.7,198.0 664.0,198.0"/><circle cx="36.0" cy="145.1" r="3" fill="#8a5a5a"/><circle cx="42.3" cy="145.1" r="3" fill="#8a5a5a"/><circle cx="48.7" cy="145.1" r="3" fill="#8a5a5a"/><circle cx="55.0" cy="145.1" r="3" fill="#8a5a5a"/><circle cx="61.4" cy="145.1" r="3" fill="#8a5a5a"/><circle cx="67.7" cy="145.1" r="3" fill="#8a5a5a"/><circle cx="74.1" cy="145.1" r="3" fill="#8a5a5a"/><circle cx="80.4" cy="145.1" r="3" fill="#8a5a5a"/><circle cx="86.7" cy="145.1" r="3" fill="#8a5a5a"/><circle cx="93.1" cy="145.1" r="3" fill="#8a5a5a"/><circle cx="99.4" cy="145.1" r="3" fill="#8a5a5a"/><circle cx="105.8" cy="145.1" r="3" fill="#8a5a5a"/><circle cx="112.1" cy="145.1" r="3" fill="#8a5a5a"/><circle cx="118.5" cy="145.1" r="3" fill="#8a5a5a"/><circle cx="124.8" cy="145.1" r="3" fill="#8a5a5a"/><circle cx="131.2" cy="145.1" r="3" fill="#8a5a5a"/><circle cx="137.5" cy="145.1" r="3" fill="#8a5a5a"/><circle cx="143.8" cy="145.1" r="3" fill="#8a5a5a"/><circle cx="150.2" cy="145.1" r="3" fill="#8a5a5a"/><circle cx="156.5" cy="145.1" r="3" fill="#8a5a5a"/><circle cx="162.9" cy="145.1" r="3" fill="#8a5a5a"/><circle cx="169.2" cy="145.1" r="3" fill="#8a5a5a"/><circle cx="175.6" cy="145.1" r="3" fill="#8a5a5a"/><circle cx="181.9" cy="145.1" r="3" fill="#8a5a5a"/><circle cx="188.2" cy="145.1" r="3" fill="#8a5a5a"/><circle cx="194.6" cy="145.1" r="3" fill="#8a5a5a"/><circle cx="200.9" cy="145.1" r="3" fill="#8a5a5a"/><circle cx="207.3" cy="145.1" r="3" fill="#8a5a5a"/><circle cx="213.6" cy="145.1" r="3" fill="#8a5a5a"/><circle cx="220.0" cy="145.1" r="3" fill="#8a5a5a"/><circle cx="226.3" cy="145.1" r="3" fill="#8a5a5a"/><circle cx="232.6" cy="145.1" r="3" fill="#8a5a5a"/><circle cx="239.0" cy="145.1" r="3" fill="#8a5a5a"/><circle cx="245.3" cy="145.1" r="3" fill="#8a5a5a"/><circle cx="251.7" cy="145.1" r="3" fill="#8a5a5a"/><circle cx="258.0" cy="145.1" r="3" fill="#8a5a5a"/><circle cx="264.4" cy="145.1" r="3" fill="#8a5a5a"/><circle cx="270.7" cy="145.1" r="3" fill="#8a5a5a"/><circle cx="277.1" cy="145.1" r="3" fill="#8a5a5a"/><circle cx="283.4" cy="145.1" r="3" fill="#8a5a5a"/><circle cx="289.7" cy="145.1" r="3" fill="#8a5a5a"/><circle cx="296.1" cy="145.1" r="3" fill="#8a5a5a"/><circle cx="302.4" cy="145.1" r="3" fill="#8a5a5a"/><circle cx="308.8" cy="145.1" r="3" fill="#8a5a5a"/><circle cx="315.1" cy="145.1" r="3" fill="#8a5a5a"/><circle cx="321.5" cy="145.1" r="3" fill="#8a5a5a"/><circle cx="327.8" cy="145.1" r="3" fill="#8a5a5a"/><circle cx="334.1" cy="145.1" r="3" fill="#8a5a5a"/><circle cx="340.5" cy="145.1" r="3" fill="#8a5a5a"/><circle cx="346.8" cy="145.1" r="3" fill="#8a5a5a"/><circle cx="353.2" cy="155.7" r="3" fill="#8a5a5a"/><circle cx="359.5" cy="155.7" r="3" fill="#8a5a5a"/><circle cx="365.9" cy="155.7" r="3" fill="#8a5a5a"/><circle cx="372.2" cy="155.7" r="3" fill="#8a5a5a"/><circle cx="378.5" cy="155.7" r="3" fill="#8a5a5a"/><circle cx="384.9" cy="155.7" r="3" fill="#8a5a5a"/><circle cx="391.2" cy="155.7" r="3" fill="#8a5a5a"/><circle cx="397.6" cy="155.7" r="3" fill="#8a5a5a"/><circle cx="403.9" cy="155.7" r="3" fill="#8a5a5a"/><circle cx="410.3" cy="155.7" r="3" fill="#8a5a5a"/><circle cx="416.6" cy="155.7" r="3" fill="#8a5a5a"/><circle cx="422.9" cy="155.7" r="3" fill="#8a5a5a"/><circle cx="429.3" cy="155.7" r="3" fill="#8a5a5a"/><circle cx="435.6" cy="155.7" r="3" fill="#8a5a5a"/><circle cx="442.0" cy="155.7" r="3" fill="#8a5a5a"/><circle cx="448.3" cy="155.7" r="3" fill="#8a5a5a"/><circle cx="454.7" cy="155.7" r="3" fill="#8a5a5a"/><circle cx="461.0" cy="155.7" r="3" fill="#8a5a5a"/><circle cx="467.4" cy="155.7" r="3" fill="#8a5a5a"/><circle cx="473.7" cy="155.7" r="3" fill="#8a5a5a"/><circle cx="480.0" cy="155.7" r="3" fill="#8a5a5a"/><circle cx="486.4" cy="155.7" r="3" fill="#8a5a5a"/><circle cx="492.7" cy="155.7" r="3" fill="#8a5a5a"/><circle cx="499.1" cy="155.7" r="3" fill="#8a5a5a"/><circle cx="505.4" cy="155.7" r="3" fill="#8a5a5a"/><circle cx="511.8" cy="155.7" r="3" fill="#8a5a5a"/><circle cx="518.1" cy="155.7" r="3" fill="#8a5a5a"/><circle cx="524.4" cy="155.7" r="3" fill="#8a5a5a"/><circle cx="530.8" cy="155.7" r="3" fill="#8a5a5a"/><circle cx="537.1" cy="155.7" r="3" fill="#8a5a5a"/><circle cx="543.5" cy="155.7" r="3" fill="#8a5a5a"/><circle cx="549.8" cy="155.7" r="3" fill="#8a5a5a"/><circle cx="556.2" cy="155.7" r="3" fill="#8a5a5a"/><circle cx="562.5" cy="155.7" r="3" fill="#8a5a5a"/><circle cx="568.8" cy="167.6" r="3" fill="#8a5a5a"/><circle cx="575.2" cy="167.6" r="3" fill="#8a5a5a"/><circle cx="581.5" cy="170.3" r="3" fill="#8a5a5a"/><circle cx="587.9" cy="170.3" r="3" fill="#8a5a5a"/><circle cx="594.2" cy="170.5" r="3" fill="#8a5a5a"/><circle cx="600.6" cy="170.7" r="3" fill="#8a5a5a"/><circle cx="606.9" cy="170.7" r="3" fill="#8a5a5a"/><circle cx="613.3" cy="170.9" r="3" fill="#8a5a5a"/><circle cx="619.6" cy="172.7" r="3" fill="#8a5a5a"/><circle cx="625.9" cy="180.6" r="3" fill="#8a5a5a"/><circle cx="632.3" cy="181.8" r="3" fill="#8a5a5a"/><circle cx="638.6" cy="189.1" r="3" fill="#8a5a5a"/><circle cx="645.0" cy="190.5" r="3" fill="#8a5a5a"/><circle cx="651.3" cy="195.2" r="3" fill="#8a5a5a"/><circle cx="657.7" cy="198.0" r="3" fill="#8a5a5a"/><circle cx="664.0" cy="198.0" r="3" fill="#8a5a5a"/>
<polyline fill="none" stroke="#3fb950" stroke-width="2.5" stroke-linejoin="round" points="36.0,198.0 42.3,198.0 48.7,198.0 55.0,198.0 61.4,198.0 67.7,198.0 74.1,198.0 80.4,198.0 86.7,198.0 93.1,198.0 99.4,198.0 105.8,198.0 112.1,198.0 118.5,198.0 124.8,198.0 131.2,198.0 137.5,198.0 143.8,198.0 150.2,198.0 156.5,198.0 162.9,198.0 169.2,198.0 175.6,198.0 181.9,198.0 188.2,198.0 194.6,198.0 200.9,198.0 207.3,198.0 213.6,198.0 220.0,198.0 226.3,198.0 232.6,198.0 239.0,198.0 245.3,198.0 251.7,198.0 258.0,198.0 264.4,198.0 270.7,198.0 277.1,198.0 283.4,198.0 289.7,198.0 296.1,198.0 302.4,198.0 308.8,191.7 315.1,191.7 321.5,191.7 327.8,191.7 334.1,191.7 340.5,191.7 346.8,191.7 353.2,192.9 359.5,192.9 365.9,190.7 372.2,190.7 378.5,190.7 384.9,190.7 391.2,190.7 397.6,190.5 403.9,190.5 410.3,190.5 416.6,190.3 422.9,190.3 429.3,190.3 435.6,190.3 442.0,190.3 448.3,190.3 454.7,190.3 461.0,190.3 467.4,190.3 473.7,190.3 480.0,190.3 486.4,190.3 492.7,190.3 499.1,190.3 505.4,190.3 511.8,190.3 518.1,190.3 524.4,190.3 530.8,190.3 537.1,190.3 543.5,190.3 549.8,189.3 556.2,189.3 562.5,189.3 568.8,190.7 575.2,190.7 581.5,190.7 587.9,190.7 594.2,190.7 600.6,190.7 606.9,190.7 613.3,190.7 619.6,190.7 625.9,190.9 632.3,190.9 638.6,190.9 645.0,194.2 651.3,196.8 657.7,198.0 664.0,198.0"/><circle cx="36.0" cy="198.0" r="3" fill="#3fb950"/><circle cx="42.3" cy="198.0" r="3" fill="#3fb950"/><circle cx="48.7" cy="198.0" r="3" fill="#3fb950"/><circle cx="55.0" cy="198.0" r="3" fill="#3fb950"/><circle cx="61.4" cy="198.0" r="3" fill="#3fb950"/><circle cx="67.7" cy="198.0" r="3" fill="#3fb950"/><circle cx="74.1" cy="198.0" r="3" fill="#3fb950"/><circle cx="80.4" cy="198.0" r="3" fill="#3fb950"/><circle cx="86.7" cy="198.0" r="3" fill="#3fb950"/><circle cx="93.1" cy="198.0" r="3" fill="#3fb950"/><circle cx="99.4" cy="198.0" r="3" fill="#3fb950"/><circle cx="105.8" cy="198.0" r="3" fill="#3fb950"/><circle cx="112.1" cy="198.0" r="3" fill="#3fb950"/><circle cx="118.5" cy="198.0" r="3" fill="#3fb950"/><circle cx="124.8" cy="198.0" r="3" fill="#3fb950"/><circle cx="131.2" cy="198.0" r="3" fill="#3fb950"/><circle cx="137.5" cy="198.0" r="3" fill="#3fb950"/><circle cx="143.8" cy="198.0" r="3" fill="#3fb950"/><circle cx="150.2" cy="198.0" r="3" fill="#3fb950"/><circle cx="156.5" cy="198.0" r="3" fill="#3fb950"/><circle cx="162.9" cy="198.0" r="3" fill="#3fb950"/><circle cx="169.2" cy="198.0" r="3" fill="#3fb950"/><circle cx="175.6" cy="198.0" r="3" fill="#3fb950"/><circle cx="181.9" cy="198.0" r="3" fill="#3fb950"/><circle cx="188.2" cy="198.0" r="3" fill="#3fb950"/><circle cx="194.6" cy="198.0" r="3" fill="#3fb950"/><circle cx="200.9" cy="198.0" r="3" fill="#3fb950"/><circle cx="207.3" cy="198.0" r="3" fill="#3fb950"/><circle cx="213.6" cy="198.0" r="3" fill="#3fb950"/><circle cx="220.0" cy="198.0" r="3" fill="#3fb950"/><circle cx="226.3" cy="198.0" r="3" fill="#3fb950"/><circle cx="232.6" cy="198.0" r="3" fill="#3fb950"/><circle cx="239.0" cy="198.0" r="3" fill="#3fb950"/><circle cx="245.3" cy="198.0" r="3" fill="#3fb950"/><circle cx="251.7" cy="198.0" r="3" fill="#3fb950"/><circle cx="258.0" cy="198.0" r="3" fill="#3fb950"/><circle cx="264.4" cy="198.0" r="3" fill="#3fb950"/><circle cx="270.7" cy="198.0" r="3" fill="#3fb950"/><circle cx="277.1" cy="198.0" r="3" fill="#3fb950"/><circle cx="283.4" cy="198.0" r="3" fill="#3fb950"/><circle cx="289.7" cy="198.0" r="3" fill="#3fb950"/><circle cx="296.1" cy="198.0" r="3" fill="#3fb950"/><circle cx="302.4" cy="198.0" r="3" fill="#3fb950"/><circle cx="308.8" cy="191.7" r="3" fill="#3fb950"/><circle cx="315.1" cy="191.7" r="3" fill="#3fb950"/><circle cx="321.5" cy="191.7" r="3" fill="#3fb950"/><circle cx="327.8" cy="191.7" r="3" fill="#3fb950"/><circle cx="334.1" cy="191.7" r="3" fill="#3fb950"/><circle cx="340.5" cy="191.7" r="3" fill="#3fb950"/><circle cx="346.8" cy="191.7" r="3" fill="#3fb950"/><circle cx="353.2" cy="192.9" r="3" fill="#3fb950"/><circle cx="359.5" cy="192.9" r="3" fill="#3fb950"/><circle cx="365.9" cy="190.7" r="3" fill="#3fb950"/><circle cx="372.2" cy="190.7" r="3" fill="#3fb950"/><circle cx="378.5" cy="190.7" r="3" fill="#3fb950"/><circle cx="384.9" cy="190.7" r="3" fill="#3fb950"/><circle cx="391.2" cy="190.7" r="3" fill="#3fb950"/><circle cx="397.6" cy="190.5" r="3" fill="#3fb950"/><circle cx="403.9" cy="190.5" r="3" fill="#3fb950"/><circle cx="410.3" cy="190.5" r="3" fill="#3fb950"/><circle cx="416.6" cy="190.3" r="3" fill="#3fb950"/><circle cx="422.9" cy="190.3" r="3" fill="#3fb950"/><circle cx="429.3" cy="190.3" r="3" fill="#3fb950"/><circle cx="435.6" cy="190.3" r="3" fill="#3fb950"/><circle cx="442.0" cy="190.3" r="3" fill="#3fb950"/><circle cx="448.3" cy="190.3" r="3" fill="#3fb950"/><circle cx="454.7" cy="190.3" r="3" fill="#3fb950"/><circle cx="461.0" cy="190.3" r="3" fill="#3fb950"/><circle cx="467.4" cy="190.3" r="3" fill="#3fb950"/><circle cx="473.7" cy="190.3" r="3" fill="#3fb950"/><circle cx="480.0" cy="190.3" r="3" fill="#3fb950"/><circle cx="486.4" cy="190.3" r="3" fill="#3fb950"/><circle cx="492.7" cy="190.3" r="3" fill="#3fb950"/><circle cx="499.1" cy="190.3" r="3" fill="#3fb950"/><circle cx="505.4" cy="190.3" r="3" fill="#3fb950"/><circle cx="511.8" cy="190.3" r="3" fill="#3fb950"/><circle cx="518.1" cy="190.3" r="3" fill="#3fb950"/><circle cx="524.4" cy="190.3" r="3" fill="#3fb950"/><circle cx="530.8" cy="190.3" r="3" fill="#3fb950"/><circle cx="537.1" cy="190.3" r="3" fill="#3fb950"/><circle cx="543.5" cy="190.3" r="3" fill="#3fb950"/><circle cx="549.8" cy="189.3" r="3" fill="#3fb950"/><circle cx="556.2" cy="189.3" r="3" fill="#3fb950"/><circle cx="562.5" cy="189.3" r="3" fill="#3fb950"/><circle cx="568.8" cy="190.7" r="3" fill="#3fb950"/><circle cx="575.2" cy="190.7" r="3" fill="#3fb950"/><circle cx="581.5" cy="190.7" r="3" fill="#3fb950"/><circle cx="587.9" cy="190.7" r="3" fill="#3fb950"/><circle cx="594.2" cy="190.7" r="3" fill="#3fb950"/><circle cx="600.6" cy="190.7" r="3" fill="#3fb950"/><circle cx="606.9" cy="190.7" r="3" fill="#3fb950"/><circle cx="613.3" cy="190.7" r="3" fill="#3fb950"/><circle cx="619.6" cy="190.7" r="3" fill="#3fb950"/><circle cx="625.9" cy="190.9" r="3" fill="#3fb950"/><circle cx="632.3" cy="190.9" r="3" fill="#3fb950"/><circle cx="638.6" cy="190.9" r="3" fill="#3fb950"/><circle cx="645.0" cy="194.2" r="3" fill="#3fb950"/><circle cx="651.3" cy="196.8" r="3" fill="#3fb950"/><circle cx="657.7" cy="198.0" r="3" fill="#3fb950"/><circle cx="664.0" cy="198.0" r="3" fill="#3fb950"/>
<polyline fill="none" stroke="#4aa3ff" stroke-width="2.5" stroke-linejoin="round" points="36.0,144.3 42.3,144.3 48.7,144.3 55.0,144.3 61.4,144.3 67.7,144.3 74.1,144.3 80.4,144.3 86.7,144.3 93.1,144.3 99.4,144.3 105.8,144.3 112.1,144.3 118.5,144.3 124.8,144.3 131.2,136.2 137.5,132.4 143.8,129.6 150.2,129.6 156.5,121.0 162.9,121.0 169.2,121.0 175.6,114.4 181.9,114.4 188.2,114.4 194.6,111.3 200.9,110.9 207.3,110.9 213.6,110.5 220.0,110.5 226.3,109.9 232.6,108.7 239.0,107.3 245.3,106.9 251.7,106.9 258.0,106.9 264.4,106.9 270.7,106.9 277.1,106.9 283.4,106.9 289.7,106.9 296.1,106.9 302.4,106.9 308.8,113.2 315.1,113.2 321.5,113.2 327.8,113.2 334.1,113.2 340.5,110.7 346.8,105.3 353.2,83.4 359.5,83.4 365.9,85.6 372.2,85.6 378.5,85.6 384.9,85.6 391.2,85.6 397.6,85.8 403.9,85.8 410.3,85.8 416.6,86.0 422.9,86.0 429.3,86.0 435.6,86.0 442.0,86.0 448.3,86.0 454.7,86.0 461.0,86.0 467.4,86.0 473.7,86.0 480.0,86.0 486.4,86.0 492.7,86.0 499.1,86.0 505.4,86.0 511.8,86.0 518.1,86.0 524.4,86.0 530.8,86.0 537.1,86.0 543.5,86.0 549.8,87.0 556.2,87.0 562.5,87.0 568.8,73.7 575.2,73.7 581.5,71.0 587.9,71.0 594.2,70.8 600.6,70.6 606.9,70.6 613.3,70.4 619.6,68.6 625.9,60.5 632.3,59.3 638.6,52.0 645.0,47.3 651.3,40.1 657.7,36.0 664.0,36.0"/><circle cx="36.0" cy="144.3" r="3" fill="#4aa3ff"/><circle cx="42.3" cy="144.3" r="3" fill="#4aa3ff"/><circle cx="48.7" cy="144.3" r="3" fill="#4aa3ff"/><circle cx="55.0" cy="144.3" r="3" fill="#4aa3ff"/><circle cx="61.4" cy="144.3" r="3" fill="#4aa3ff"/><circle cx="67.7" cy="144.3" r="3" fill="#4aa3ff"/><circle cx="74.1" cy="144.3" r="3" fill="#4aa3ff"/><circle cx="80.4" cy="144.3" r="3" fill="#4aa3ff"/><circle cx="86.7" cy="144.3" r="3" fill="#4aa3ff"/><circle cx="93.1" cy="144.3" r="3" fill="#4aa3ff"/><circle cx="99.4" cy="144.3" r="3" fill="#4aa3ff"/><circle cx="105.8" cy="144.3" r="3" fill="#4aa3ff"/><circle cx="112.1" cy="144.3" r="3" fill="#4aa3ff"/><circle cx="118.5" cy="144.3" r="3" fill="#4aa3ff"/><circle cx="124.8" cy="144.3" r="3" fill="#4aa3ff"/><circle cx="131.2" cy="136.2" r="3" fill="#4aa3ff"/><circle cx="137.5" cy="132.4" r="3" fill="#4aa3ff"/><circle cx="143.8" cy="129.6" r="3" fill="#4aa3ff"/><circle cx="150.2" cy="129.6" r="3" fill="#4aa3ff"/><circle cx="156.5" cy="121.0" r="3" fill="#4aa3ff"/><circle cx="162.9" cy="121.0" r="3" fill="#4aa3ff"/><circle cx="169.2" cy="121.0" r="3" fill="#4aa3ff"/><circle cx="175.6" cy="114.4" r="3" fill="#4aa3ff"/><circle cx="181.9" cy="114.4" r="3" fill="#4aa3ff"/><circle cx="188.2" cy="114.4" r="3" fill="#4aa3ff"/><circle cx="194.6" cy="111.3" r="3" fill="#4aa3ff"/><circle cx="200.9" cy="110.9" r="3" fill="#4aa3ff"/><circle cx="207.3" cy="110.9" r="3" fill="#4aa3ff"/><circle cx="213.6" cy="110.5" r="3" fill="#4aa3ff"/><circle cx="220.0" cy="110.5" r="3" fill="#4aa3ff"/><circle cx="226.3" cy="109.9" r="3" fill="#4aa3ff"/><circle cx="232.6" cy="108.7" r="3" fill="#4aa3ff"/><circle cx="239.0" cy="107.3" r="3" fill="#4aa3ff"/><circle cx="245.3" cy="106.9" r="3" fill="#4aa3ff"/><circle cx="251.7" cy="106.9" r="3" fill="#4aa3ff"/><circle cx="258.0" cy="106.9" r="3" fill="#4aa3ff"/><circle cx="264.4" cy="106.9" r="3" fill="#4aa3ff"/><circle cx="270.7" cy="106.9" r="3" fill="#4aa3ff"/><circle cx="277.1" cy="106.9" r="3" fill="#4aa3ff"/><circle cx="283.4" cy="106.9" r="3" fill="#4aa3ff"/><circle cx="289.7" cy="106.9" r="3" fill="#4aa3ff"/><circle cx="296.1" cy="106.9" r="3" fill="#4aa3ff"/><circle cx="302.4" cy="106.9" r="3" fill="#4aa3ff"/><circle cx="308.8" cy="113.2" r="3" fill="#4aa3ff"/><circle cx="315.1" cy="113.2" r="3" fill="#4aa3ff"/><circle cx="321.5" cy="113.2" r="3" fill="#4aa3ff"/><circle cx="327.8" cy="113.2" r="3" fill="#4aa3ff"/><circle cx="334.1" cy="113.2" r="3" fill="#4aa3ff"/><circle cx="340.5" cy="110.7" r="3" fill="#4aa3ff"/><circle cx="346.8" cy="105.3" r="3" fill="#4aa3ff"/><circle cx="353.2" cy="83.4" r="3" fill="#4aa3ff"/><circle cx="359.5" cy="83.4" r="3" fill="#4aa3ff"/><circle cx="365.9" cy="85.6" r="3" fill="#4aa3ff"/><circle cx="372.2" cy="85.6" r="3" fill="#4aa3ff"/><circle cx="378.5" cy="85.6" r="3" fill="#4aa3ff"/><circle cx="384.9" cy="85.6" r="3" fill="#4aa3ff"/><circle cx="391.2" cy="85.6" r="3" fill="#4aa3ff"/><circle cx="397.6" cy="85.8" r="3" fill="#4aa3ff"/><circle cx="403.9" cy="85.8" r="3" fill="#4aa3ff"/><circle cx="410.3" cy="85.8" r="3" fill="#4aa3ff"/><circle cx="416.6" cy="86.0" r="3" fill="#4aa3ff"/><circle cx="422.9" cy="86.0" r="3" fill="#4aa3ff"/><circle cx="429.3" cy="86.0" r="3" fill="#4aa3ff"/><circle cx="435.6" cy="86.0" r="3" fill="#4aa3ff"/><circle cx="442.0" cy="86.0" r="3" fill="#4aa3ff"/><circle cx="448.3" cy="86.0" r="3" fill="#4aa3ff"/><circle cx="454.7" cy="86.0" r="3" fill="#4aa3ff"/><circle cx="461.0" cy="86.0" r="3" fill="#4aa3ff"/><circle cx="467.4" cy="86.0" r="3" fill="#4aa3ff"/><circle cx="473.7" cy="86.0" r="3" fill="#4aa3ff"/><circle cx="480.0" cy="86.0" r="3" fill="#4aa3ff"/><circle cx="486.4" cy="86.0" r="3" fill="#4aa3ff"/><circle cx="492.7" cy="86.0" r="3" fill="#4aa3ff"/><circle cx="499.1" cy="86.0" r="3" fill="#4aa3ff"/><circle cx="505.4" cy="86.0" r="3" fill="#4aa3ff"/><circle cx="511.8" cy="86.0" r="3" fill="#4aa3ff"/><circle cx="518.1" cy="86.0" r="3" fill="#4aa3ff"/><circle cx="524.4" cy="86.0" r="3" fill="#4aa3ff"/><circle cx="530.8" cy="86.0" r="3" fill="#4aa3ff"/><circle cx="537.1" cy="86.0" r="3" fill="#4aa3ff"/><circle cx="543.5" cy="86.0" r="3" fill="#4aa3ff"/><circle cx="549.8" cy="87.0" r="3" fill="#4aa3ff"/><circle cx="556.2" cy="87.0" r="3" fill="#4aa3ff"/><circle cx="562.5" cy="87.0" r="3" fill="#4aa3ff"/><circle cx="568.8" cy="73.7" r="3" fill="#4aa3ff"/><circle cx="575.2" cy="73.7" r="3" fill="#4aa3ff"/><circle cx="581.5" cy="71.0" r="3" fill="#4aa3ff"/><circle cx="587.9" cy="71.0" r="3" fill="#4aa3ff"/><circle cx="594.2" cy="70.8" r="3" fill="#4aa3ff"/><circle cx="600.6" cy="70.6" r="3" fill="#4aa3ff"/><circle cx="606.9" cy="70.6" r="3" fill="#4aa3ff"/><circle cx="613.3" cy="70.4" r="3" fill="#4aa3ff"/><circle cx="619.6" cy="68.6" r="3" fill="#4aa3ff"/><circle cx="625.9" cy="60.5" r="3" fill="#4aa3ff"/><circle cx="632.3" cy="59.3" r="3" fill="#4aa3ff"/><circle cx="638.6" cy="52.0" r="3" fill="#4aa3ff"/><circle cx="645.0" cy="47.3" r="3" fill="#4aa3ff"/><circle cx="651.3" cy="40.1" r="3" fill="#4aa3ff"/><circle cx="657.7" cy="36.0" r="3" fill="#4aa3ff"/><circle cx="664.0" cy="36.0" r="3" fill="#4aa3ff"/>
<text x="36" y="225" fill="#6b7280" font-size="11">2026-06-26</text>
<text x="664" y="225" fill="#6b7280" font-size="11" text-anchor="end">2026-07-07</text>
<text x="36" y="212" font-family="system-ui,sans-serif" font-size="11">
<tspan fill="#4aa3ff">&#9679; open FPs</tspan>  <tspan fill="#3fb950">&#9679; closed (Anthropic acting)</tspan>  <tspan fill="#8a5a5a">&#9679; harness withdrawn</tspan></text>
<text x="664" y="22" text-anchor="end" font-family="system-ui,sans-serif" font-size="12">
<tspan fill="#4aa3ff">open 800</tspan>  <tspan fill="#3fb950">closed 0</tspan>  <tspan fill="#8a5a5a">harness 0</tspan></text>
</svg>