<svg xmlns="http://www.w3.org/2000/svg" width="700" height="234" viewBox="0 0 700 234" role="img">
<rect width="700" height="234" rx="12" fill="#16181d"/>
<text x="36" y="22" fill="#e8eaed" font-family="system-ui,sans-serif" font-size="14" font-weight="700">Is Anthropic acting? cyber/aup false positives over time</text>
<line x1="36" y1="198.0" x2="664" y2="198.0" stroke="#2a2e37" stroke-width="1"/><text x="30" y="202.0" fill="#6b7280" font-size="11" text-anchor="end">0</text><line x1="36" y1="117.0" x2="664" y2="117.0" stroke="#2a2e37" stroke-width="1"/><text x="30" y="121.0" fill="#6b7280" font-size="11" text-anchor="end">400</text><line x1="36" y1="36.0" x2="664" y2="36.0" stroke="#2a2e37" stroke-width="1"/><text x="30" y="40.0" fill="#6b7280" font-size="11" text-anchor="end">800</text>

<polyline fill="none" stroke="#8a5a5a" stroke-width="2.5" stroke-linejoin="round" points="36.0,145.1 40.2,145.1 44.5,145.1 48.7,145.1 53.0,145.1 57.2,145.1 61.5,145.1 65.7,145.1 69.9,145.1 74.2,145.1 78.4,145.1 82.7,145.1 86.9,145.1 91.2,145.1 95.4,145.1 99.6,145.1 103.9,145.1 108.1,145.1 112.4,145.1 116.6,145.1 120.9,145.1 125.1,145.1 129.4,145.1 133.6,145.1 137.8,145.1 142.1,145.1 146.3,145.1 150.6,145.1 154.8,145.1 159.1,145.1 163.3,145.1 167.5,145.1 171.8,145.1 176.0,145.1 180.3,145.1 184.5,145.1 188.8,145.1 193.0,145.1 197.2,145.1 201.5,145.1 205.7,145.1 210.0,145.1 214.2,145.1 218.5,145.1 222.7,145.1 226.9,145.1 231.2,145.1 235.4,145.1 239.7,145.1 243.9,145.1 248.2,155.7 252.4,155.7 256.6,155.7 260.9,155.7 265.1,155.7 269.4,155.7 273.6,155.7 277.9,155.7 282.1,155.7 286.4,155.7 290.6,155.7 294.8,155.7 299.1,155.7 303.3,155.7 307.6,155.7 311.8,155.7 316.1,155.7 320.3,155.7 324.5,155.7 328.8,155.7 333.0,155.7 337.3,155.7 341.5,155.7 345.8,155.7 350.0,155.7 354.2,155.7 358.5,155.7 362.7,155.7 367.0,155.7 371.2,155.7 375.5,155.7 379.7,155.7 383.9,155.7 388.2,155.7 392.4,167.6 396.7,167.6 400.9,170.3 405.2,170.3 409.4,170.5 413.6,170.7 417.9,170.7 422.1,170.9 426.4,172.7 430.6,180.6 434.9,181.8 439.1,189.1 443.4,190.5 447.6,195.2 451.8,198.0 456.1,198.0 460.3,198.0 464.6,198.0 468.8,198.0 473.1,198.0 477.3,198.0 481.5,198.0 485.8,198.0 490.0,198.0 494.3,198.0 498.5,198.0 502.8,198.0 507.0,198.0 511.2,198.0 515.5,198.0 519.7,198.0 524.0,198.0 528.2,198.0 532.5,198.0 536.7,198.0 540.9,198.0 545.2,198.0 549.4,198.0 553.7,198.0 557.9,198.0 562.2,198.0 566.4,198.0 570.6,198.0 574.9,198.0 579.1,198.0 583.4,198.0 587.6,198.0 591.9,198.0 596.1,198.0 600.4,198.0 604.6,198.0 608.8,198.0 613.1,198.0 617.3,198.0 621.6,198.0 625.8,198.0 630.1,198.0 634.3,198.0 638.5,198.0 642.8,198.0 647.0,198.0 651.3,198.0 655.5,198.0 659.8,198.0 664.0,198.0"/><circle cx="36.0" cy="145.1" r="3" fill="#8a5a5a"/><circle cx="40.2" cy="145.1" r="3" fill="#8a5a5a"/><circle cx="44.5" cy="145.1" r="3" fill="#8a5a5a"/><circle cx="48.7" cy="145.1" r="3" fill="#8a5a5a"/><circle cx="53.0" cy="145.1" r="3" fill="#8a5a5a"/><circle cx="57.2" cy="145.1" r="3" fill="#8a5a5a"/><circle cx="61.5" cy="145.1" r="3" fill="#8a5a5a"/><circle cx="65.7" cy="145.1" r="3" fill="#8a5a5a"/><circle cx="69.9" cy="145.1" r="3" fill="#8a5a5a"/><circle cx="74.2" cy="145.1" r="3" fill="#8a5a5a"/><circle cx="78.4" cy="145.1" r="3" fill="#8a5a5a"/><circle cx="82.7" cy="145.1" r="3" fill="#8a5a5a"/><circle cx="86.9" cy="145.1" r="3" fill="#8a5a5a"/><circle cx="91.2" cy="145.1" r="3" fill="#8a5a5a"/><circle cx="95.4" cy="145.1" r="3" fill="#8a5a5a"/><circle cx="99.6" cy="145.1" r="3" fill="#8a5a5a"/><circle cx="103.9" cy="145.1" r="3" fill="#8a5a5a"/><circle cx="108.1" cy="145.1" r="3" fill="#8a5a5a"/><circle cx="112.4" cy="145.1" r="3" fill="#8a5a5a"/><circle cx="116.6" cy="145.1" r="3" fill="#8a5a5a"/><circle cx="120.9" cy="145.1" r="3" fill="#8a5a5a"/><circle cx="125.1" cy="145.1" r="3" fill="#8a5a5a"/><circle cx="129.4" cy="145.1" r="3" fill="#8a5a5a"/><circle cx="133.6" cy="145.1" r="3" fill="#8a5a5a"/><circle cx="137.8" cy="145.1" r="3" fill="#8a5a5a"/><circle cx="142.1" cy="145.1" r="3" fill="#8a5a5a"/><circle cx="146.3" cy="145.1" r="3" fill="#8a5a5a"/><circle cx="150.6" cy="145.1" r="3" fill="#8a5a5a"/><circle cx="154.8" cy="145.1" r="3" fill="#8a5a5a"/><circle cx="159.1" cy="145.1" r="3" fill="#8a5a5a"/><circle cx="163.3" cy="145.1" r="3" fill="#8a5a5a"/><circle cx="167.5" cy="145.1" r="3" fill="#8a5a5a"/><circle cx="171.8" cy="145.1" r="3" fill="#8a5a5a"/><circle cx="176.0" cy="145.1" r="3" fill="#8a5a5a"/><circle cx="180.3" cy="145.1" r="3" fill="#8a5a5a"/><circle cx="184.5" cy="145.1" r="3" fill="#8a5a5a"/><circle cx="188.8" cy="145.1" r="3" fill="#8a5a5a"/><circle cx="193.0" cy="145.1" r="3" fill="#8a5a5a"/><circle cx="197.2" cy="145.1" r="3" fill="#8a5a5a"/><circle cx="201.5" cy="145.1" r="3" fill="#8a5a5a"/><circle cx="205.7" cy="145.1" r="3" fill="#8a5a5a"/><circle cx="210.0" cy="145.1" r="3" fill="#8a5a5a"/><circle cx="214.2" cy="145.1" r="3" fill="#8a5a5a"/><circle cx="218.5" cy="145.1" r="3" fill="#8a5a5a"/><circle cx="222.7" cy="145.1" r="3" fill="#8a5a5a"/><circle cx="226.9" cy="145.1" r="3" fill="#8a5a5a"/><circle cx="231.2" cy="145.1" r="3" fill="#8a5a5a"/><circle cx="235.4" cy="145.1" r="3" fill="#8a5a5a"/><circle cx="239.7" cy="145.1" r="3" fill="#8a5a5a"/><circle cx="243.9" cy="145.1" r="3" fill="#8a5a5a"/><circle cx="248.2" cy="155.7" r="3" fill="#8a5a5a"/><circle cx="252.4" cy="155.7" r="3" fill="#8a5a5a"/><circle cx="256.6" cy="155.7" r="3" fill="#8a5a5a"/><circle cx="260.9" cy="155.7" r="3" fill="#8a5a5a"/><circle cx="265.1" cy="155.7" r="3" fill="#8a5a5a"/><circle cx="269.4" cy="155.7" r="3" fill="#8a5a5a"/><circle cx="273.6" cy="155.7" r="3" fill="#8a5a5a"/><circle cx="277.9" cy="155.7" r="3" fill="#8a5a5a"/><circle cx="282.1" cy="155.7" r="3" fill="#8a5a5a"/><circle cx="286.4" cy="155.7" r="3" fill="#8a5a5a"/><circle cx="290.6" cy="155.7" r="3" fill="#8a5a5a"/><circle cx="294.8" cy="155.7" r="3" fill="#8a5a5a"/><circle cx="299.1" cy="155.7" r="3" fill="#8a5a5a"/><circle cx="303.3" cy="155.7" r="3" fill="#8a5a5a"/><circle cx="307.6" cy="155.7" r="3" fill="#8a5a5a"/><circle cx="311.8" cy="155.7" r="3" fill="#8a5a5a"/><circle cx="316.1" cy="155.7" r="3" fill="#8a5a5a"/><circle cx="320.3" cy="155.7" r="3" fill="#8a5a5a"/><circle cx="324.5" cy="155.7" r="3" fill="#8a5a5a"/><circle cx="328.8" cy="155.7" r="3" fill="#8a5a5a"/><circle cx="333.0" cy="155.7" r="3" fill="#8a5a5a"/><circle cx="337.3" cy="155.7" r="3" fill="#8a5a5a"/><circle cx="341.5" cy="155.7" r="3" fill="#8a5a5a"/><circle cx="345.8" cy="155.7" r="3" fill="#8a5a5a"/><circle cx="350.0" cy="155.7" r="3" fill="#8a5a5a"/><circle cx="354.2" cy="155.7" r="3" fill="#8a5a5a"/><circle cx="358.5" cy="155.7" r="3" fill="#8a5a5a"/><circle cx="362.7" cy="155.7" r="3" fill="#8a5a5a"/><circle cx="367.0" cy="155.7" r="3" fill="#8a5a5a"/><circle cx="371.2" cy="155.7" r="3" fill="#8a5a5a"/><circle cx="375.5" cy="155.7" r="3" fill="#8a5a5a"/><circle cx="379.7" cy="155.7" r="3" fill="#8a5a5a"/><circle cx="383.9" cy="155.7" r="3" fill="#8a5a5a"/><circle cx="388.2" cy="155.7" r="3" fill="#8a5a5a"/><circle cx="392.4" cy="167.6" r="3" fill="#8a5a5a"/><circle cx="396.7" cy="167.6" r="3" fill="#8a5a5a"/><circle cx="400.9" cy="170.3" r="3" fill="#8a5a5a"/><circle cx="405.2" cy="170.3" r="3" fill="#8a5a5a"/><circle cx="409.4" cy="170.5" r="3" fill="#8a5a5a"/><circle cx="413.6" cy="170.7" r="3" fill="#8a5a5a"/><circle cx="417.9" cy="170.7" r="3" fill="#8a5a5a"/><circle cx="422.1" cy="170.9" r="3" fill="#8a5a5a"/><circle cx="426.4" cy="172.7" r="3" fill="#8a5a5a"/><circle cx="430.6" cy="180.6" r="3" fill="#8a5a5a"/><circle cx="434.9" cy="181.8" r="3" fill="#8a5a5a"/><circle cx="439.1" cy="189.1" r="3" fill="#8a5a5a"/><circle cx="443.4" cy="190.5" r="3" fill="#8a5a5a"/><circle cx="447.6" cy="195.2" r="3" fill="#8a5a5a"/><circle cx="451.8" cy="198.0" r="3" fill="#8a5a5a"/><circle cx="456.1" cy="198.0" r="3" fill="#8a5a5a"/><circle cx="460.3" cy="198.0" r="3" fill="#8a5a5a"/><circle cx="464.6" cy="198.0" r="3" fill="#8a5a5a"/><circle cx="468.8" cy="198.0" r="3" fill="#8a5a5a"/><circle cx="473.1" cy="198.0" r="3" fill="#8a5a5a"/><circle cx="477.3" cy="198.0" r="3" fill="#8a5a5a"/><circle cx="481.5" cy="198.0" r="3" fill="#8a5a5a"/><circle cx="485.8" cy="198.0" r="3" fill="#8a5a5a"/><circle cx="490.0" cy="198.0" r="3" fill="#8a5a5a"/><circle cx="494.3" cy="198.0" r="3" fill="#8a5a5a"/><circle cx="498.5" cy="198.0" r="3" fill="#8a5a5a"/><circle cx="502.8" cy="198.0" r="3" fill="#8a5a5a"/><circle cx="507.0" cy="198.0" r="3" fill="#8a5a5a"/><circle cx="511.2" cy="198.0" r="3" fill="#8a5a5a"/><circle cx="515.5" cy="198.0" r="3" fill="#8a5a5a"/><circle cx="519.7" cy="198.0" r="3" fill="#8a5a5a"/><circle cx="524.0" cy="198.0" r="3" fill="#8a5a5a"/><circle cx="528.2" cy="198.0" r="3" fill="#8a5a5a"/><circle cx="532.5" cy="198.0" r="3" fill="#8a5a5a"/><circle cx="536.7" cy="198.0" r="3" fill="#8a5a5a"/><circle cx="540.9" cy="198.0" r="3" fill="#8a5a5a"/><circle cx="545.2" cy="198.0" r="3" fill="#8a5a5a"/><circle cx="549.4" cy="198.0" r="3" fill="#8a5a5a"/><circle cx="553.7" cy="198.0" r="3" fill="#8a5a5a"/><circle cx="557.9" cy="198.0" r="3" fill="#8a5a5a"/><circle cx="562.2" cy="198.0" r="3" fill="#8a5a5a"/><circle cx="566.4" cy="198.0" r="3" fill="#8a5a5a"/><circle cx="570.6" cy="198.0" r="3" fill="#8a5a5a"/><circle cx="574.9" cy="198.0" r="3" fill="#8a5a5a"/><circle cx="579.1" cy="198.0" r="3" fill="#8a5a5a"/><circle cx="583.4" cy="198.0" r="3" fill="#8a5a5a"/><circle cx="587.6" cy="198.0" r="3" fill="#8a5a5a"/><circle cx="591.9" cy="198.0" r="3" fill="#8a5a5a"/><circle cx="596.1" cy="198.0" r="3" fill="#8a5a5a"/><circle cx="600.4" cy="198.0" r="3" fill="#8a5a5a"/><circle cx="604.6" cy="198.0" r="3" fill="#8a5a5a"/><circle cx="608.8" cy="198.0" r="3" fill="#8a5a5a"/><circle cx="613.1" cy="198.0" r="3" fill="#8a5a5a"/><circle cx="617.3" cy="198.0" r="3" fill="#8a5a5a"/><circle cx="621.6" cy="198.0" r="3" fill="#8a5a5a"/><circle cx="625.8" cy="198.0" r="3" fill="#8a5a5a"/><circle cx="630.1" cy="198.0" r="3" fill="#8a5a5a"/><circle cx="634.3" cy="198.0" r="3" fill="#8a5a5a"/><circle cx="638.5" cy="198.0" r="3" fill="#8a5a5a"/><circle cx="642.8" cy="198.0" r="3" fill="#8a5a5a"/><circle cx="647.0" cy="198.0" r="3" fill="#8a5a5a"/><circle cx="651.3" cy="198.0" r="3" fill="#8a5a5a"/><circle cx="655.5" cy="198.0" r="3" fill="#8a5a5a"/><circle cx="659.8" cy="198.0" r="3" fill="#8a5a5a"/><circle cx="664.0" cy="198.0" r="3" fill="#8a5a5a"/>
<polyline fill="none" stroke="#3fb950" stroke-width="2.5" stroke-linejoin="round" points="36.0,198.0 40.2,198.0 44.5,198.0 48.7,198.0 53.0,198.0 57.2,198.0 61.5,198.0 65.7,198.0 69.9,198.0 74.2,198.0 78.4,198.0 82.7,198.0 86.9,198.0 91.2,198.0 95.4,198.0 99.6,198.0 103.9,198.0 108.1,198.0 112.4,198.0 116.6,198.0 120.9,198.0 125.1,198.0 129.4,198.0 133.6,198.0 137.8,198.0 142.1,198.0 146.3,198.0 150.6,198.0 154.8,198.0 159.1,198.0 163.3,198.0 167.5,198.0 171.8,198.0 176.0,198.0 180.3,198.0 184.5,198.0 188.8,198.0 193.0,198.0 197.2,198.0 201.5,198.0 205.7,198.0 210.0,198.0 214.2,198.0 218.5,191.7 222.7,191.7 226.9,191.7 231.2,191.7 235.4,191.7 239.7,191.7 243.9,191.7 248.2,192.9 252.4,192.9 256.6,190.7 260.9,190.7 265.1,190.7 269.4,190.7 273.6,190.7 277.9,190.5 282.1,190.5 286.4,190.5 290.6,190.3 294.8,190.3 299.1,190.3 303.3,190.3 307.6,190.3 311.8,190.3 316.1,190.3 320.3,190.3 324.5,190.3 328.8,190.3 333.0,190.3 337.3,190.3 341.5,190.3 345.8,190.3 350.0,190.3 354.2,190.3 358.5,190.3 362.7,190.3 367.0,190.3 371.2,190.3 375.5,190.3 379.7,189.3 383.9,189.3 388.2,189.3 392.4,190.7 396.7,190.7 400.9,190.7 405.2,190.7 409.4,190.7 413.6,190.7 417.9,190.7 422.1,190.7 426.4,190.7 430.6,190.9 434.9,190.9 439.1,190.9 443.4,194.2 447.6,196.8 451.8,198.0 456.1,198.0 460.3,198.0 464.6,198.0 468.8,198.0 473.1,198.0 477.3,198.0 481.5,198.0 485.8,198.0 490.0,198.0 494.3,198.0 498.5,198.0 502.8,198.0 507.0,198.0 511.2,198.0 515.5,198.0 519.7,198.0 524.0,198.0 528.2,198.0 532.5,198.0 536.7,198.0 540.9,198.0 545.2,198.0 549.4,198.0 553.7,198.0 557.9,198.0 562.2,198.0 566.4,198.0 570.6,198.0 574.9,198.0 579.1,198.0 583.4,198.0 587.6,198.0 591.9,198.0 596.1,198.0 600.4,198.0 604.6,198.0 608.8,198.0 613.1,198.0 617.3,198.0 621.6,198.0 625.8,198.0 630.1,198.0 634.3,198.0 638.5,198.0 642.8,198.0 647.0,198.0 651.3,198.0 655.5,198.0 659.8,198.0 664.0,198.0"/><circle cx="36.0" cy="198.0" r="3" fill="#3fb950"/><circle cx="40.2" cy="198.0" r="3" fill="#3fb950"/><circle cx="44.5" cy="198.0" r="3" fill="#3fb950"/><circle cx="48.7" cy="198.0" r="3" fill="#3fb950"/><circle cx="53.0" cy="198.0" r="3" fill="#3fb950"/><circle cx="57.2" cy="198.0" r="3" fill="#3fb950"/><circle cx="61.5" cy="198.0" r="3" fill="#3fb950"/><circle cx="65.7" cy="198.0" r="3" fill="#3fb950"/><circle cx="69.9" cy="198.0" r="3" fill="#3fb950"/><circle cx="74.2" cy="198.0" r="3" fill="#3fb950"/><circle cx="78.4" cy="198.0" r="3" fill="#3fb950"/><circle cx="82.7" cy="198.0" r="3" fill="#3fb950"/><circle cx="86.9" cy="198.0" r="3" fill="#3fb950"/><circle cx="91.2" cy="198.0" r="3" fill="#3fb950"/><circle cx="95.4" cy="198.0" r="3" fill="#3fb950"/><circle cx="99.6" cy="198.0" r="3" fill="#3fb950"/><circle cx="103.9" cy="198.0" r="3" fill="#3fb950"/><circle cx="108.1" cy="198.0" r="3" fill="#3fb950"/><circle cx="112.4" cy="198.0" r="3" fill="#3fb950"/><circle cx="116.6" cy="198.0" r="3" fill="#3fb950"/><circle cx="120.9" cy="198.0" r="3" fill="#3fb950"/><circle cx="125.1" cy="198.0" r="3" fill="#3fb950"/><circle cx="129.4" cy="198.0" r="3" fill="#3fb950"/><circle cx="133.6" cy="198.0" r="3" fill="#3fb950"/><circle cx="137.8" cy="198.0" r="3" fill="#3fb950"/><circle cx="142.1" cy="198.0" r="3" fill="#3fb950"/><circle cx="146.3" cy="198.0" r="3" fill="#3fb950"/><circle cx="150.6" cy="198.0" r="3" fill="#3fb950"/><circle cx="154.8" cy="198.0" r="3" fill="#3fb950"/><circle cx="159.1" cy="198.0" r="3" fill="#3fb950"/><circle cx="163.3" cy="198.0" r="3" fill="#3fb950"/><circle cx="167.5" cy="198.0" r="3" fill="#3fb950"/><circle cx="171.8" cy="198.0" r="3" fill="#3fb950"/><circle cx="176.0" cy="198.0" r="3" fill="#3fb950"/><circle cx="180.3" cy="198.0" r="3" fill="#3fb950"/><circle cx="184.5" cy="198.0" r="3" fill="#3fb950"/><circle cx="188.8" cy="198.0" r="3" fill="#3fb950"/><circle cx="193.0" cy="198.0" r="3" fill="#3fb950"/><circle cx="197.2" cy="198.0" r="3" fill="#3fb950"/><circle cx="201.5" cy="198.0" r="3" fill="#3fb950"/><circle cx="205.7" cy="198.0" r="3" fill="#3fb950"/><circle cx="210.0" cy="198.0" r="3" fill="#3fb950"/><circle cx="214.2" cy="198.0" r="3" fill="#3fb950"/><circle cx="218.5" cy="191.7" r="3" fill="#3fb950"/><circle cx="222.7" cy="191.7" r="3" fill="#3fb950"/><circle cx="226.9" cy="191.7" r="3" fill="#3fb950"/><circle cx="231.2" cy="191.7" r="3" fill="#3fb950"/><circle cx="235.4" cy="191.7" r="3" fill="#3fb950"/><circle cx="239.7" cy="191.7" r="3" fill="#3fb950"/><circle cx="243.9" cy="191.7" r="3" fill="#3fb950"/><circle cx="248.2" cy="192.9" r="3" fill="#3fb950"/><circle cx="252.4" cy="192.9" r="3" fill="#3fb950"/><circle cx="256.6" cy="190.7" r="3" fill="#3fb950"/><circle cx="260.9" cy="190.7" r="3" fill="#3fb950"/><circle cx="265.1" cy="190.7" r="3" fill="#3fb950"/><circle cx="269.4" cy="190.7" r="3" fill="#3fb950"/><circle cx="273.6" cy="190.7" r="3" fill="#3fb950"/><circle cx="277.9" cy="190.5" r="3" fill="#3fb950"/><circle cx="282.1" cy="190.5" r="3" fill="#3fb950"/><circle cx="286.4" cy="190.5" r="3" fill="#3fb950"/><circle cx="290.6" cy="190.3" r="3" fill="#3fb950"/><circle cx="294.8" cy="190.3" r="3" fill="#3fb950"/><circle cx="299.1" cy="190.3" r="3" fill="#3fb950"/><circle cx="303.3" cy="190.3" r="3" fill="#3fb950"/><circle cx="307.6" cy="190.3" r="3" fill="#3fb950"/><circle cx="311.8" cy="190.3" r="3" fill="#3fb950"/><circle cx="316.1" cy="190.3" r="3" fill="#3fb950"/><circle cx="320.3" cy="190.3" r="3" fill="#3fb950"/><circle cx="324.5" cy="190.3" r="3" fill="#3fb950"/><circle cx="328.8" cy="190.3" r="3" fill="#3fb950"/><circle cx="333.0" cy="190.3" r="3" fill="#3fb950"/><circle cx="337.3" cy="190.3" r="3" fill="#3fb950"/><circle cx="341.5" cy="190.3" r="3" fill="#3fb950"/><circle cx="345.8" cy="190.3" r="3" fill="#3fb950"/><circle cx="350.0" cy="190.3" r="3" fill="#3fb950"/><circle cx="354.2" cy="190.3" r="3" fill="#3fb950"/><circle cx="358.5" cy="190.3" r="3" fill="#3fb950"/><circle cx="362.7" cy="190.3" r="3" fill="#3fb950"/><circle cx="367.0" cy="190.3" r="3" fill="#3fb950"/><circle cx="371.2" cy="190.3" r="3" fill="#3fb950"/><circle cx="375.5" cy="190.3" r="3" fill="#3fb950"/><circle cx="379.7" cy="189.3" r="3" fill="#3fb950"/><circle cx="383.9" cy="189.3" r="3" fill="#3fb950"/><circle cx="388.2" cy="189.3" r="3" fill="#3fb950"/><circle cx="392.4" cy="190.7" r="3" fill="#3fb950"/><circle cx="396.7" cy="190.7" r="3" fill="#3fb950"/><circle cx="400.9" cy="190.7" r="3" fill="#3fb950"/><circle cx="405.2" cy="190.7" r="3" fill="#3fb950"/><circle cx="409.4" cy="190.7" r="3" fill="#3fb950"/><circle cx="413.6" cy="190.7" r="3" fill="#3fb950"/><circle cx="417.9" cy="190.7" r="3" fill="#3fb950"/><circle cx="422.1" cy="190.7" r="3" fill="#3fb950"/><circle cx="426.4" cy="190.7" r="3" fill="#3fb950"/><circle cx="430.6" cy="190.9" r="3" fill="#3fb950"/><circle cx="434.9" cy="190.9" r="3" fill="#3fb950"/><circle cx="439.1" cy="190.9" r="3" fill="#3fb950"/><circle cx="443.4" cy="194.2" r="3" fill="#3fb950"/><circle cx="447.6" cy="196.8" r="3" fill="#3fb950"/><circle cx="451.8" cy="198.0" r="3" fill="#3fb950"/><circle cx="456.1" cy="198.0" r="3" fill="#3fb950"/><circle cx="460.3" cy="198.0" r="3" fill="#3fb950"/><circle cx="464.6" cy="198.0" r="3" fill="#3fb950"/><circle cx="468.8" cy="198.0" r="3" fill="#3fb950"/><circle cx="473.1" cy="198.0" r="3" fill="#3fb950"/><circle cx="477.3" cy="198.0" r="3" fill="#3fb950"/><circle cx="481.5" cy="198.0" r="3" fill="#3fb950"/><circle cx="485.8" cy="198.0" r="3" fill="#3fb950"/><circle cx="490.0" cy="198.0" r="3" fill="#3fb950"/><circle cx="494.3" cy="198.0" r="3" fill="#3fb950"/><circle cx="498.5" cy="198.0" r="3" fill="#3fb950"/><circle cx="502.8" cy="198.0" r="3" fill="#3fb950"/><circle cx="507.0" cy="198.0" r="3" fill="#3fb950"/><circle cx="511.2" cy="198.0" r="3" fill="#3fb950"/><circle cx="515.5" cy="198.0" r="3" fill="#3fb950"/><circle cx="519.7" cy="198.0" r="3" fill="#3fb950"/><circle cx="524.0" cy="198.0" r="3" fill="#3fb950"/><circle cx="528.2" cy="198.0" r="3" fill="#3fb950"/><circle cx="532.5" cy="198.0" r="3" fill="#3fb950"/><circle cx="536.7" cy="198.0" r="3" fill="#3fb950"/><circle cx="540.9" cy="198.0" r="3" fill="#3fb950"/><circle cx="545.2" cy="198.0" r="3" fill="#3fb950"/><circle cx="549.4" cy="198.0" r="3" fill="#3fb950"/><circle cx="553.7" cy="198.0" r="3" fill="#3fb950"/><circle cx="557.9" cy="198.0" r="3" fill="#3fb950"/><circle cx="562.2" cy="198.0" r="3" fill="#3fb950"/><circle cx="566.4" cy="198.0" r="3" fill="#3fb950"/><circle cx="570.6" cy="198.0" r="3" fill="#3fb950"/><circle cx="574.9" cy="198.0" r="3" fill="#3fb950"/><circle cx="579.1" cy="198.0" r="3" fill="#3fb950"/><circle cx="583.4" cy="198.0" r="3" fill="#3fb950"/><circle cx="587.6" cy="198.0" r="3" fill="#3fb950"/><circle cx="591.9" cy="198.0" r="3" fill="#3fb950"/><circle cx="596.1" cy="198.0" r="3" fill="#3fb950"/><circle cx="600.4" cy="198.0" r="3" fill="#3fb950"/><circle cx="604.6" cy="198.0" r="3" fill="#3fb950"/><circle cx="608.8" cy="198.0" r="3" fill="#3fb950"/><circle cx="613.1" cy="198.0" r="3" fill="#3fb950"/><circle cx="617.3" cy="198.0" r="3" fill="#3fb950"/><circle cx="621.6" cy="198.0" r="3" fill="#3fb950"/><circle cx="625.8" cy="198.0" r="3" fill="#3fb950"/><circle cx="630.1" cy="198.0" r="3" fill="#3fb950"/><circle cx="634.3" cy="198.0" r="3" fill="#3fb950"/><circle cx="638.5" cy="198.0" r="3" fill="#3fb950"/><circle cx="642.8" cy="198.0" r="3" fill="#3fb950"/><circle cx="647.0" cy="198.0" r="3" fill="#3fb950"/><circle cx="651.3" cy="198.0" r="3" fill="#3fb950"/><circle cx="655.5" cy="198.0" r="3" fill="#3fb950"/><circle cx="659.8" cy="198.0" r="3" fill="#3fb950"/><circle cx="664.0" cy="198.0" r="3" fill="#3fb950"/>
<polyline fill="none" stroke="#4aa3ff" stroke-width="2.5" stroke-linejoin="round" points="36.0,144.3 40.2,144.3 44.5,144.3 48.7,144.3 53.0,144.3 57.2,144.3 61.5,144.3 65.7,144.3 69.9,144.3 74.2,144.3 78.4,144.3 82.7,144.3 86.9,144.3 91.2,144.3 95.4,144.3 99.6,136.2 103.9,132.4 108.1,129.6 112.4,129.6 116.6,121.0 120.9,121.0 125.1,121.0 129.4,114.4 133.6,114.4 137.8,114.4 142.1,111.3 146.3,110.9 150.6,110.9 154.8,110.5 159.1,110.5 163.3,109.9 167.5,108.7 171.8,107.3 176.0,106.9 180.3,106.9 184.5,106.9 188.8,106.9 193.0,106.9 197.2,106.9 201.5,106.9 205.7,106.9 210.0,106.9 214.2,106.9 218.5,113.2 222.7,113.2 226.9,113.2 231.2,113.2 235.4,113.2 239.7,110.7 243.9,105.3 248.2,83.4 252.4,83.4 256.6,85.6 260.9,85.6 265.1,85.6 269.4,85.6 273.6,85.6 277.9,85.8 282.1,85.8 286.4,85.8 290.6,86.0 294.8,86.0 299.1,86.0 303.3,86.0 307.6,86.0 311.8,86.0 316.1,86.0 320.3,86.0 324.5,86.0 328.8,86.0 333.0,86.0 337.3,86.0 341.5,86.0 345.8,86.0 350.0,86.0 354.2,86.0 358.5,86.0 362.7,86.0 367.0,86.0 371.2,86.0 375.5,86.0 379.7,87.0 383.9,87.0 388.2,87.0 392.4,73.7 396.7,73.7 400.9,71.0 405.2,71.0 409.4,70.8 413.6,70.6 417.9,70.6 422.1,70.4 426.4,68.6 430.6,60.5 434.9,59.3 439.1,52.0 443.4,47.3 447.6,40.1 451.8,36.0 456.1,36.0 460.3,36.0 464.6,36.0 468.8,36.0 473.1,36.0 477.3,36.0 481.5,36.0 485.8,36.0 490.0,36.0 494.3,36.0 498.5,36.0 502.8,36.0 507.0,36.0 511.2,36.0 515.5,36.0 519.7,36.0 524.0,36.0 528.2,36.0 532.5,36.0 536.7,36.0 540.9,36.0 545.2,36.0 549.4,36.0 553.7,36.0 557.9,36.0 562.2,36.0 566.4,36.0 570.6,36.0 574.9,36.0 579.1,36.0 583.4,36.0 587.6,36.0 591.9,36.0 596.1,36.0 600.4,36.0 604.6,36.0 608.8,36.0 613.1,36.0 617.3,36.0 621.6,36.0 625.8,36.0 630.1,36.0 634.3,36.0 638.5,36.0 642.8,36.0 647.0,36.0 651.3,36.0 655.5,36.0 659.8,36.0 664.0,36.0"/><circle cx="36.0" cy="144.3" r="3" fill="#4aa3ff"/><circle cx="40.2" cy="144.3" r="3" fill="#4aa3ff"/><circle cx="44.5" cy="144.3" r="3" fill="#4aa3ff"/><circle cx="48.7" cy="144.3" r="3" fill="#4aa3ff"/><circle cx="53.0" cy="144.3" r="3" fill="#4aa3ff"/><circle cx="57.2" cy="144.3" r="3" fill="#4aa3ff"/><circle cx="61.5" cy="144.3" r="3" fill="#4aa3ff"/><circle cx="65.7" cy="144.3" r="3" fill="#4aa3ff"/><circle cx="69.9" cy="144.3" r="3" fill="#4aa3ff"/><circle cx="74.2" cy="144.3" r="3" fill="#4aa3ff"/><circle cx="78.4" cy="144.3" r="3" fill="#4aa3ff"/><circle cx="82.7" cy="144.3" r="3" fill="#4aa3ff"/><circle cx="86.9" cy="144.3" r="3" fill="#4aa3ff"/><circle cx="91.2" cy="144.3" r="3" fill="#4aa3ff"/><circle cx="95.4" cy="144.3" r="3" fill="#4aa3ff"/><circle cx="99.6" cy="136.2" r="3" fill="#4aa3ff"/><circle cx="103.9" cy="132.4" r="3" fill="#4aa3ff"/><circle cx="108.1" cy="129.6" r="3" fill="#4aa3ff"/><circle cx="112.4" cy="129.6" r="3" fill="#4aa3ff"/><circle cx="116.6" cy="121.0" r="3" fill="#4aa3ff"/><circle cx="120.9" cy="121.0" r="3" fill="#4aa3ff"/><circle cx="125.1" cy="121.0" r="3" fill="#4aa3ff"/><circle cx="129.4" cy="114.4" r="3" fill="#4aa3ff"/><circle cx="133.6" cy="114.4" r="3" fill="#4aa3ff"/><circle cx="137.8" cy="114.4" r="3" fill="#4aa3ff"/><circle cx="142.1" cy="111.3" r="3" fill="#4aa3ff"/><circle cx="146.3" cy="110.9" r="3" fill="#4aa3ff"/><circle cx="150.6" cy="110.9" r="3" fill="#4aa3ff"/><circle cx="154.8" cy="110.5" r="3" fill="#4aa3ff"/><circle cx="159.1" cy="110.5" r="3" fill="#4aa3ff"/><circle cx="163.3" cy="109.9" r="3" fill="#4aa3ff"/><circle cx="167.5" cy="108.7" r="3" fill="#4aa3ff"/><circle cx="171.8" cy="107.3" r="3" fill="#4aa3ff"/><circle cx="176.0" cy="106.9" r="3" fill="#4aa3ff"/><circle cx="180.3" cy="106.9" r="3" fill="#4aa3ff"/><circle cx="184.5" cy="106.9" r="3" fill="#4aa3ff"/><circle cx="188.8" cy="106.9" r="3" fill="#4aa3ff"/><circle cx="193.0" cy="106.9" r="3" fill="#4aa3ff"/><circle cx="197.2" cy="106.9" r="3" fill="#4aa3ff"/><circle cx="201.5" cy="106.9" r="3" fill="#4aa3ff"/><circle cx="205.7" cy="106.9" r="3" fill="#4aa3ff"/><circle cx="210.0" cy="106.9" r="3" fill="#4aa3ff"/><circle cx="214.2" cy="106.9" r="3" fill="#4aa3ff"/><circle cx="218.5" cy="113.2" r="3" fill="#4aa3ff"/><circle cx="222.7" cy="113.2" r="3" fill="#4aa3ff"/><circle cx="226.9" cy="113.2" r="3" fill="#4aa3ff"/><circle cx="231.2" cy="113.2" r="3" fill="#4aa3ff"/><circle cx="235.4" cy="113.2" r="3" fill="#4aa3ff"/><circle cx="239.7" cy="110.7" r="3" fill="#4aa3ff"/><circle cx="243.9" cy="105.3" r="3" fill="#4aa3ff"/><circle cx="248.2" cy="83.4" r="3" fill="#4aa3ff"/><circle cx="252.4" cy="83.4" r="3" fill="#4aa3ff"/><circle cx="256.6" cy="85.6" r="3" fill="#4aa3ff"/><circle cx="260.9" cy="85.6" r="3" fill="#4aa3ff"/><circle cx="265.1" cy="85.6" r="3" fill="#4aa3ff"/><circle cx="269.4" cy="85.6" r="3" fill="#4aa3ff"/><circle cx="273.6" cy="85.6" r="3" fill="#4aa3ff"/><circle cx="277.9" cy="85.8" r="3" fill="#4aa3ff"/><circle cx="282.1" cy="85.8" r="3" fill="#4aa3ff"/><circle cx="286.4" cy="85.8" r="3" fill="#4aa3ff"/><circle cx="290.6" cy="86.0" r="3" fill="#4aa3ff"/><circle cx="294.8" cy="86.0" r="3" fill="#4aa3ff"/><circle cx="299.1" cy="86.0" r="3" fill="#4aa3ff"/><circle cx="303.3" cy="86.0" r="3" fill="#4aa3ff"/><circle cx="307.6" cy="86.0" r="3" fill="#4aa3ff"/><circle cx="311.8" cy="86.0" r="3" fill="#4aa3ff"/><circle cx="316.1" cy="86.0" r="3" fill="#4aa3ff"/><circle cx="320.3" cy="86.0" r="3" fill="#4aa3ff"/><circle cx="324.5" cy="86.0" r="3" fill="#4aa3ff"/><circle cx="328.8" cy="86.0" r="3" fill="#4aa3ff"/><circle cx="333.0" cy="86.0" r="3" fill="#4aa3ff"/><circle cx="337.3" cy="86.0" r="3" fill="#4aa3ff"/><circle cx="341.5" cy="86.0" r="3" fill="#4aa3ff"/><circle cx="345.8" cy="86.0" r="3" fill="#4aa3ff"/><circle cx="350.0" cy="86.0" r="3" fill="#4aa3ff"/><circle cx="354.2" cy="86.0" r="3" fill="#4aa3ff"/><circle cx="358.5" cy="86.0" r="3" fill="#4aa3ff"/><circle cx="362.7" cy="86.0" r="3" fill="#4aa3ff"/><circle cx="367.0" cy="86.0" r="3" fill="#4aa3ff"/><circle cx="371.2" cy="86.0" r="3" fill="#4aa3ff"/><circle cx="375.5" cy="86.0" r="3" fill="#4aa3ff"/><circle cx="379.7" cy="87.0" r="3" fill="#4aa3ff"/><circle cx="383.9" cy="87.0" r="3" fill="#4aa3ff"/><circle cx="388.2" cy="87.0" r="3" fill="#4aa3ff"/><circle cx="392.4" cy="73.7" r="3" fill="#4aa3ff"/><circle cx="396.7" cy="73.7" r="3" fill="#4aa3ff"/><circle cx="400.9" cy="71.0" r="3" fill="#4aa3ff"/><circle cx="405.2" cy="71.0" r="3" fill="#4aa3ff"/><circle cx="409.4" cy="70.8" r="3" fill="#4aa3ff"/><circle cx="413.6" cy="70.6" r="3" fill="#4aa3ff"/><circle cx="417.9" cy="70.6" r="3" fill="#4aa3ff"/><circle cx="422.1" cy="70.4" r="3" fill="#4aa3ff"/><circle cx="426.4" cy="68.6" r="3" fill="#4aa3ff"/><circle cx="430.6" cy="60.5" r="3" fill="#4aa3ff"/><circle cx="434.9" cy="59.3" r="3" fill="#4aa3ff"/><circle cx="439.1" cy="52.0" r="3" fill="#4aa3ff"/><circle cx="443.4" cy="47.3" r="3" fill="#4aa3ff"/><circle cx="447.6" cy="40.1" r="3" fill="#4aa3ff"/><circle cx="451.8" cy="36.0" r="3" fill="#4aa3ff"/><circle cx="456.1" cy="36.0" r="3" fill="#4aa3ff"/><circle cx="460.3" cy="36.0" r="3" fill="#4aa3ff"/><circle cx="464.6" cy="36.0" r="3" fill="#4aa3ff"/><circle cx="468.8" cy="36.0" r="3" fill="#4aa3ff"/><circle cx="473.1" cy="36.0" r="3" fill="#4aa3ff"/><circle cx="477.3" cy="36.0" r="3" fill="#4aa3ff"/><circle cx="481.5" cy="36.0" r="3" fill="#4aa3ff"/><circle cx="485.8" cy="36.0" r="3" fill="#4aa3ff"/><circle cx="490.0" cy="36.0" r="3" fill="#4aa3ff"/><circle cx="494.3" cy="36.0" r="3" fill="#4aa3ff"/><circle cx="498.5" cy="36.0" r="3" fill="#4aa3ff"/><circle cx="502.8" cy="36.0" r="3" fill="#4aa3ff"/><circle cx="507.0" cy="36.0" r="3" fill="#4aa3ff"/><circle cx="511.2" cy="36.0" r="3" fill="#4aa3ff"/><circle cx="515.5" cy="36.0" r="3" fill="#4aa3ff"/><circle cx="519.7" cy="36.0" r="3" fill="#4aa3ff"/><circle cx="524.0" cy="36.0" r="3" fill="#4aa3ff"/><circle cx="528.2" cy="36.0" r="3" fill="#4aa3ff"/><circle cx="532.5" cy="36.0" r="3" fill="#4aa3ff"/><circle cx="536.7" cy="36.0" r="3" fill="#4aa3ff"/><circle cx="540.9" cy="36.0" r="3" fill="#4aa3ff"/><circle cx="545.2" cy="36.0" r="3" fill="#4aa3ff"/><circle cx="549.4" cy="36.0" r="3" fill="#4aa3ff"/><circle cx="553.7" cy="36.0" r="3" fill="#4aa3ff"/><circle cx="557.9" cy="36.0" r="3" fill="#4aa3ff"/><circle cx="562.2" cy="36.0" r="3" fill="#4aa3ff"/><circle cx="566.4" cy="36.0" r="3" fill="#4aa3ff"/><circle cx="570.6" cy="36.0" r="3" fill="#4aa3ff"/><circle cx="574.9" cy="36.0" r="3" fill="#4aa3ff"/><circle cx="579.1" cy="36.0" r="3" fill="#4aa3ff"/><circle cx="583.4" cy="36.0" r="3" fill="#4aa3ff"/><circle cx="587.6" cy="36.0" r="3" fill="#4aa3ff"/><circle cx="591.9" cy="36.0" r="3" fill="#4aa3ff"/><circle cx="596.1" cy="36.0" r="3" fill="#4aa3ff"/><circle cx="600.4" cy="36.0" r="3" fill="#4aa3ff"/><circle cx="604.6" cy="36.0" r="3" fill="#4aa3ff"/><circle cx="608.8" cy="36.0" r="3" fill="#4aa3ff"/><circle cx="613.1" cy="36.0" r="3" fill="#4aa3ff"/><circle cx="617.3" cy="36.0" r="3" fill="#4aa3ff"/><circle cx="621.6" cy="36.0" r="3" fill="#4aa3ff"/><circle cx="625.8" cy="36.0" r="3" fill="#4aa3ff"/><circle cx="630.1" cy="36.0" r="3" fill="#4aa3ff"/><circle cx="634.3" cy="36.0" r="3" fill="#4aa3ff"/><circle cx="638.5" cy="36.0" r="3" fill="#4aa3ff"/><circle cx="642.8" cy="36.0" r="3" fill="#4aa3ff"/><circle cx="647.0" cy="36.0" r="3" fill="#4aa3ff"/><circle cx="651.3" cy="36.0" r="3" fill="#4aa3ff"/><circle cx="655.5" cy="36.0" r="3" fill="#4aa3ff"/><circle cx="659.8" cy="36.0" r="3" fill="#4aa3ff"/><circle cx="664.0" cy="36.0" r="3" fill="#4aa3ff"/>
<text x="36" y="225" fill="#6b7280" font-size="11">2026-06-26</text>
<text x="664" y="225" fill="#6b7280" font-size="11" text-anchor="end">2026-07-12</text>
<text x="36" y="212" font-family="system-ui,sans-serif" font-size="11">
<tspan fill="#4aa3ff">&#9679; open FPs</tspan>  <tspan fill="#3fb950">&#9679; closed (Anthropic acting)</tspan>  <tspan fill="#8a5a5a">&#9679; harness withdrawn</tspan></text>
<text x="664" y="22" text-anchor="end" font-family="system-ui,sans-serif" font-size="12">
<tspan fill="#4aa3ff">open 800</tspan>  <tspan fill="#3fb950">closed 0</tspan>  <tspan fill="#8a5a5a">harness 0</tspan></text>
</svg>