<svg xmlns="http://www.w3.org/2000/svg" width="700" height="234" viewBox="0 0 700 234" role="img">
<rect width="700" height="234" rx="12" fill="#16181d"/>
<text x="36" y="22" fill="#e8eaed" font-family="system-ui,sans-serif" font-size="14" font-weight="700">Is Anthropic acting? cyber/aup false positives over time</text>
<line x1="36" y1="198.0" x2="664" y2="198.0" stroke="#2a2e37" stroke-width="1"/><text x="30" y="202.0" fill="#6b7280" font-size="11" text-anchor="end">0</text><line x1="36" y1="117.0" x2="664" y2="117.0" stroke="#2a2e37" stroke-width="1"/><text x="30" y="121.0" fill="#6b7280" font-size="11" text-anchor="end">283</text><line x1="36" y1="36.0" x2="664" y2="36.0" stroke="#2a2e37" stroke-width="1"/><text x="30" y="40.0" fill="#6b7280" font-size="11" text-anchor="end">566</text>

<polyline fill="none" stroke="#8a5a5a" stroke-width="2.5" stroke-linejoin="round" points="36.0,123.3 44.8,123.3 53.7,123.3 62.5,123.3 71.4,123.3 80.2,123.3 89.1,123.3 97.9,123.3 106.8,123.3 115.6,123.3 124.5,123.3 133.3,123.3 142.1,123.3 151.0,123.3 159.8,123.3 168.7,123.3 177.5,123.3 186.4,123.3 195.2,123.3 204.1,123.3 212.9,123.3 221.7,123.3 230.6,123.3 239.4,123.3 248.3,123.3 257.1,123.3 266.0,123.3 274.8,123.3 283.7,123.3 292.5,123.3 301.4,123.3 310.2,123.3 319.0,123.3 327.9,123.3 336.7,123.3 345.6,123.3 354.4,123.3 363.3,123.3 372.1,123.3 381.0,123.3 389.8,123.3 398.6,123.3 407.5,123.3 416.3,123.3 425.2,123.3 434.0,123.3 442.9,123.3 451.7,123.3 460.6,123.3 469.4,123.3 478.3,138.2 487.1,138.2 495.9,138.2 504.8,138.2 513.6,138.2 522.5,138.2 531.3,138.2 540.2,138.2 549.0,138.2 557.9,138.2 566.7,138.2 575.5,138.2 584.4,138.2 593.2,138.2 602.1,138.2 610.9,138.2 619.8,138.2 628.6,138.2 637.5,138.2 646.3,138.2 655.2,138.2 664.0,138.2"/><circle cx="36.0" cy="123.3" r="3" fill="#8a5a5a"/><circle cx="44.8" cy="123.3" r="3" fill="#8a5a5a"/><circle cx="53.7" cy="123.3" r="3" fill="#8a5a5a"/><circle cx="62.5" cy="123.3" r="3" fill="#8a5a5a"/><circle cx="71.4" cy="123.3" r="3" fill="#8a5a5a"/><circle cx="80.2" cy="123.3" r="3" fill="#8a5a5a"/><circle cx="89.1" cy="123.3" r="3" fill="#8a5a5a"/><circle cx="97.9" cy="123.3" r="3" fill="#8a5a5a"/><circle cx="106.8" cy="123.3" r="3" fill="#8a5a5a"/><circle cx="115.6" cy="123.3" r="3" fill="#8a5a5a"/><circle cx="124.5" cy="123.3" r="3" fill="#8a5a5a"/><circle cx="133.3" cy="123.3" r="3" fill="#8a5a5a"/><circle cx="142.1" cy="123.3" r="3" fill="#8a5a5a"/><circle cx="151.0" cy="123.3" r="3" fill="#8a5a5a"/><circle cx="159.8" cy="123.3" r="3" fill="#8a5a5a"/><circle cx="168.7" cy="123.3" r="3" fill="#8a5a5a"/><circle cx="177.5" cy="123.3" r="3" fill="#8a5a5a"/><circle cx="186.4" cy="123.3" r="3" fill="#8a5a5a"/><circle cx="195.2" cy="123.3" r="3" fill="#8a5a5a"/><circle cx="204.1" cy="123.3" r="3" fill="#8a5a5a"/><circle cx="212.9" cy="123.3" r="3" fill="#8a5a5a"/><circle cx="221.7" cy="123.3" r="3" fill="#8a5a5a"/><circle cx="230.6" cy="123.3" r="3" fill="#8a5a5a"/><circle cx="239.4" cy="123.3" r="3" fill="#8a5a5a"/><circle cx="248.3" cy="123.3" r="3" fill="#8a5a5a"/><circle cx="257.1" cy="123.3" r="3" fill="#8a5a5a"/><circle cx="266.0" cy="123.3" r="3" fill="#8a5a5a"/><circle cx="274.8" cy="123.3" r="3" fill="#8a5a5a"/><circle cx="283.7" cy="123.3" r="3" fill="#8a5a5a"/><circle cx="292.5" cy="123.3" r="3" fill="#8a5a5a"/><circle cx="301.4" cy="123.3" r="3" fill="#8a5a5a"/><circle cx="310.2" cy="123.3" r="3" fill="#8a5a5a"/><circle cx="319.0" cy="123.3" r="3" fill="#8a5a5a"/><circle cx="327.9" cy="123.3" r="3" fill="#8a5a5a"/><circle cx="336.7" cy="123.3" r="3" fill="#8a5a5a"/><circle cx="345.6" cy="123.3" r="3" fill="#8a5a5a"/><circle cx="354.4" cy="123.3" r="3" fill="#8a5a5a"/><circle cx="363.3" cy="123.3" r="3" fill="#8a5a5a"/><circle cx="372.1" cy="123.3" r="3" fill="#8a5a5a"/><circle cx="381.0" cy="123.3" r="3" fill="#8a5a5a"/><circle cx="389.8" cy="123.3" r="3" fill="#8a5a5a"/><circle cx="398.6" cy="123.3" r="3" fill="#8a5a5a"/><circle cx="407.5" cy="123.3" r="3" fill="#8a5a5a"/><circle cx="416.3" cy="123.3" r="3" fill="#8a5a5a"/><circle cx="425.2" cy="123.3" r="3" fill="#8a5a5a"/><circle cx="434.0" cy="123.3" r="3" fill="#8a5a5a"/><circle cx="442.9" cy="123.3" r="3" fill="#8a5a5a"/><circle cx="451.7" cy="123.3" r="3" fill="#8a5a5a"/><circle cx="460.6" cy="123.3" r="3" fill="#8a5a5a"/><circle cx="469.4" cy="123.3" r="3" fill="#8a5a5a"/><circle cx="478.3" cy="138.2" r="3" fill="#8a5a5a"/><circle cx="487.1" cy="138.2" r="3" fill="#8a5a5a"/><circle cx="495.9" cy="138.2" r="3" fill="#8a5a5a"/><circle cx="504.8" cy="138.2" r="3" fill="#8a5a5a"/><circle cx="513.6" cy="138.2" r="3" fill="#8a5a5a"/><circle cx="522.5" cy="138.2" r="3" fill="#8a5a5a"/><circle cx="531.3" cy="138.2" r="3" fill="#8a5a5a"/><circle cx="540.2" cy="138.2" r="3" fill="#8a5a5a"/><circle cx="549.0" cy="138.2" r="3" fill="#8a5a5a"/><circle cx="557.9" cy="138.2" r="3" fill="#8a5a5a"/><circle cx="566.7" cy="138.2" r="3" fill="#8a5a5a"/><circle cx="575.5" cy="138.2" r="3" fill="#8a5a5a"/><circle cx="584.4" cy="138.2" r="3" fill="#8a5a5a"/><circle cx="593.2" cy="138.2" r="3" fill="#8a5a5a"/><circle cx="602.1" cy="138.2" r="3" fill="#8a5a5a"/><circle cx="610.9" cy="138.2" r="3" fill="#8a5a5a"/><circle cx="619.8" cy="138.2" r="3" fill="#8a5a5a"/><circle cx="628.6" cy="138.2" r="3" fill="#8a5a5a"/><circle cx="637.5" cy="138.2" r="3" fill="#8a5a5a"/><circle cx="646.3" cy="138.2" r="3" fill="#8a5a5a"/><circle cx="655.2" cy="138.2" r="3" fill="#8a5a5a"/><circle cx="664.0" cy="138.2" r="3" fill="#8a5a5a"/>
<polyline fill="none" stroke="#3fb950" stroke-width="2.5" stroke-linejoin="round" points="36.0,198.0 44.8,198.0 53.7,198.0 62.5,198.0 71.4,198.0 80.2,198.0 89.1,198.0 97.9,198.0 106.8,198.0 115.6,198.0 124.5,198.0 133.3,198.0 142.1,198.0 151.0,198.0 159.8,198.0 168.7,198.0 177.5,198.0 186.4,198.0 195.2,198.0 204.1,198.0 212.9,198.0 221.7,198.0 230.6,198.0 239.4,198.0 248.3,198.0 257.1,198.0 266.0,198.0 274.8,198.0 283.7,198.0 292.5,198.0 301.4,198.0 310.2,198.0 319.0,198.0 327.9,198.0 336.7,198.0 345.6,198.0 354.4,198.0 363.3,198.0 372.1,198.0 381.0,198.0 389.8,198.0 398.6,198.0 407.5,198.0 416.3,189.1 425.2,189.1 434.0,189.1 442.9,189.1 451.7,189.1 460.6,189.1 469.4,189.1 478.3,190.8 487.1,190.8 495.9,187.7 504.8,187.7 513.6,187.7 522.5,187.7 531.3,187.7 540.2,187.4 549.0,187.4 557.9,187.4 566.7,187.1 575.5,187.1 584.4,187.1 593.2,187.1 602.1,187.1 610.9,187.1 619.8,187.1 628.6,187.1 637.5,187.1 646.3,187.1 655.2,187.1 664.0,187.1"/><circle cx="36.0" cy="198.0" r="3" fill="#3fb950"/><circle cx="44.8" cy="198.0" r="3" fill="#3fb950"/><circle cx="53.7" cy="198.0" r="3" fill="#3fb950"/><circle cx="62.5" cy="198.0" r="3" fill="#3fb950"/><circle cx="71.4" cy="198.0" r="3" fill="#3fb950"/><circle cx="80.2" cy="198.0" r="3" fill="#3fb950"/><circle cx="89.1" cy="198.0" r="3" fill="#3fb950"/><circle cx="97.9" cy="198.0" r="3" fill="#3fb950"/><circle cx="106.8" cy="198.0" r="3" fill="#3fb950"/><circle cx="115.6" cy="198.0" r="3" fill="#3fb950"/><circle cx="124.5" cy="198.0" r="3" fill="#3fb950"/><circle cx="133.3" cy="198.0" r="3" fill="#3fb950"/><circle cx="142.1" cy="198.0" r="3" fill="#3fb950"/><circle cx="151.0" cy="198.0" r="3" fill="#3fb950"/><circle cx="159.8" cy="198.0" r="3" fill="#3fb950"/><circle cx="168.7" cy="198.0" r="3" fill="#3fb950"/><circle cx="177.5" cy="198.0" r="3" fill="#3fb950"/><circle cx="186.4" cy="198.0" r="3" fill="#3fb950"/><circle cx="195.2" cy="198.0" r="3" fill="#3fb950"/><circle cx="204.1" cy="198.0" r="3" fill="#3fb950"/><circle cx="212.9" cy="198.0" r="3" fill="#3fb950"/><circle cx="221.7" cy="198.0" r="3" fill="#3fb950"/><circle cx="230.6" cy="198.0" r="3" fill="#3fb950"/><circle cx="239.4" cy="198.0" r="3" fill="#3fb950"/><circle cx="248.3" cy="198.0" r="3" fill="#3fb950"/><circle cx="257.1" cy="198.0" r="3" fill="#3fb950"/><circle cx="266.0" cy="198.0" r="3" fill="#3fb950"/><circle cx="274.8" cy="198.0" r="3" fill="#3fb950"/><circle cx="283.7" cy="198.0" r="3" fill="#3fb950"/><circle cx="292.5" cy="198.0" r="3" fill="#3fb950"/><circle cx="301.4" cy="198.0" r="3" fill="#3fb950"/><circle cx="310.2" cy="198.0" r="3" fill="#3fb950"/><circle cx="319.0" cy="198.0" r="3" fill="#3fb950"/><circle cx="327.9" cy="198.0" r="3" fill="#3fb950"/><circle cx="336.7" cy="198.0" r="3" fill="#3fb950"/><circle cx="345.6" cy="198.0" r="3" fill="#3fb950"/><circle cx="354.4" cy="198.0" r="3" fill="#3fb950"/><circle cx="363.3" cy="198.0" r="3" fill="#3fb950"/><circle cx="372.1" cy="198.0" r="3" fill="#3fb950"/><circle cx="381.0" cy="198.0" r="3" fill="#3fb950"/><circle cx="389.8" cy="198.0" r="3" fill="#3fb950"/><circle cx="398.6" cy="198.0" r="3" fill="#3fb950"/><circle cx="407.5" cy="198.0" r="3" fill="#3fb950"/><circle cx="416.3" cy="189.1" r="3" fill="#3fb950"/><circle cx="425.2" cy="189.1" r="3" fill="#3fb950"/><circle cx="434.0" cy="189.1" r="3" fill="#3fb950"/><circle cx="442.9" cy="189.1" r="3" fill="#3fb950"/><circle cx="451.7" cy="189.1" r="3" fill="#3fb950"/><circle cx="460.6" cy="189.1" r="3" fill="#3fb950"/><circle cx="469.4" cy="189.1" r="3" fill="#3fb950"/><circle cx="478.3" cy="190.8" r="3" fill="#3fb950"/><circle cx="487.1" cy="190.8" r="3" fill="#3fb950"/><circle cx="495.9" cy="187.7" r="3" fill="#3fb950"/><circle cx="504.8" cy="187.7" r="3" fill="#3fb950"/><circle cx="513.6" cy="187.7" r="3" fill="#3fb950"/><circle cx="522.5" cy="187.7" r="3" fill="#3fb950"/><circle cx="531.3" cy="187.7" r="3" fill="#3fb950"/><circle cx="540.2" cy="187.4" r="3" fill="#3fb950"/><circle cx="549.0" cy="187.4" r="3" fill="#3fb950"/><circle cx="557.9" cy="187.4" r="3" fill="#3fb950"/><circle cx="566.7" cy="187.1" r="3" fill="#3fb950"/><circle cx="575.5" cy="187.1" r="3" fill="#3fb950"/><circle cx="584.4" cy="187.1" r="3" fill="#3fb950"/><circle cx="593.2" cy="187.1" r="3" fill="#3fb950"/><circle cx="602.1" cy="187.1" r="3" fill="#3fb950"/><circle cx="610.9" cy="187.1" r="3" fill="#3fb950"/><circle cx="619.8" cy="187.1" r="3" fill="#3fb950"/><circle cx="628.6" cy="187.1" r="3" fill="#3fb950"/><circle cx="637.5" cy="187.1" r="3" fill="#3fb950"/><circle cx="646.3" cy="187.1" r="3" fill="#3fb950"/><circle cx="655.2" cy="187.1" r="3" fill="#3fb950"/><circle cx="664.0" cy="187.1" r="3" fill="#3fb950"/>
<polyline fill="none" stroke="#4aa3ff" stroke-width="2.5" stroke-linejoin="round" points="36.0,122.2 44.8,122.2 53.7,122.2 62.5,122.2 71.4,122.2 80.2,122.2 89.1,122.2 97.9,122.2 106.8,122.2 115.6,122.2 124.5,122.2 133.3,122.2 142.1,122.2 151.0,122.2 159.8,122.2 168.7,110.7 177.5,105.3 186.4,101.3 195.2,101.3 204.1,89.2 212.9,89.2 221.7,89.2 230.6,79.8 239.4,79.8 248.3,79.8 257.1,75.5 266.0,74.9 274.8,74.9 283.7,74.4 292.5,74.4 301.4,73.5 310.2,71.8 319.0,69.8 327.9,69.2 336.7,69.2 345.6,69.2 354.4,69.2 363.3,69.2 372.1,69.2 381.0,69.2 389.8,69.2 398.6,69.2 407.5,69.2 416.3,78.1 425.2,78.1 434.0,78.1 442.9,78.1 451.7,78.1 460.6,74.6 469.4,66.9 478.3,36.0 487.1,36.0 495.9,39.1 504.8,39.1 513.6,39.1 522.5,39.1 531.3,39.1 540.2,39.4 549.0,39.4 557.9,39.4 566.7,39.7 575.5,39.7 584.4,39.7 593.2,39.7 602.1,39.7 610.9,39.7 619.8,39.7 628.6,39.7 637.5,39.7 646.3,39.7 655.2,39.7 664.0,39.7"/><circle cx="36.0" cy="122.2" r="3" fill="#4aa3ff"/><circle cx="44.8" cy="122.2" r="3" fill="#4aa3ff"/><circle cx="53.7" cy="122.2" r="3" fill="#4aa3ff"/><circle cx="62.5" cy="122.2" r="3" fill="#4aa3ff"/><circle cx="71.4" cy="122.2" r="3" fill="#4aa3ff"/><circle cx="80.2" cy="122.2" r="3" fill="#4aa3ff"/><circle cx="89.1" cy="122.2" r="3" fill="#4aa3ff"/><circle cx="97.9" cy="122.2" r="3" fill="#4aa3ff"/><circle cx="106.8" cy="122.2" r="3" fill="#4aa3ff"/><circle cx="115.6" cy="122.2" r="3" fill="#4aa3ff"/><circle cx="124.5" cy="122.2" r="3" fill="#4aa3ff"/><circle cx="133.3" cy="122.2" r="3" fill="#4aa3ff"/><circle cx="142.1" cy="122.2" r="3" fill="#4aa3ff"/><circle cx="151.0" cy="122.2" r="3" fill="#4aa3ff"/><circle cx="159.8" cy="122.2" r="3" fill="#4aa3ff"/><circle cx="168.7" cy="110.7" r="3" fill="#4aa3ff"/><circle cx="177.5" cy="105.3" r="3" fill="#4aa3ff"/><circle cx="186.4" cy="101.3" r="3" fill="#4aa3ff"/><circle cx="195.2" cy="101.3" r="3" fill="#4aa3ff"/><circle cx="204.1" cy="89.2" r="3" fill="#4aa3ff"/><circle cx="212.9" cy="89.2" r="3" fill="#4aa3ff"/><circle cx="221.7" cy="89.2" r="3" fill="#4aa3ff"/><circle cx="230.6" cy="79.8" r="3" fill="#4aa3ff"/><circle cx="239.4" cy="79.8" r="3" fill="#4aa3ff"/><circle cx="248.3" cy="79.8" r="3" fill="#4aa3ff"/><circle cx="257.1" cy="75.5" r="3" fill="#4aa3ff"/><circle cx="266.0" cy="74.9" r="3" fill="#4aa3ff"/><circle cx="274.8" cy="74.9" r="3" fill="#4aa3ff"/><circle cx="283.7" cy="74.4" r="3" fill="#4aa3ff"/><circle cx="292.5" cy="74.4" r="3" fill="#4aa3ff"/><circle cx="301.4" cy="73.5" r="3" fill="#4aa3ff"/><circle cx="310.2" cy="71.8" r="3" fill="#4aa3ff"/><circle cx="319.0" cy="69.8" r="3" fill="#4aa3ff"/><circle cx="327.9" cy="69.2" r="3" fill="#4aa3ff"/><circle cx="336.7" cy="69.2" r="3" fill="#4aa3ff"/><circle cx="345.6" cy="69.2" r="3" fill="#4aa3ff"/><circle cx="354.4" cy="69.2" r="3" fill="#4aa3ff"/><circle cx="363.3" cy="69.2" r="3" fill="#4aa3ff"/><circle cx="372.1" cy="69.2" r="3" fill="#4aa3ff"/><circle cx="381.0" cy="69.2" r="3" fill="#4aa3ff"/><circle cx="389.8" cy="69.2" r="3" fill="#4aa3ff"/><circle cx="398.6" cy="69.2" r="3" fill="#4aa3ff"/><circle cx="407.5" cy="69.2" r="3" fill="#4aa3ff"/><circle cx="416.3" cy="78.1" r="3" fill="#4aa3ff"/><circle cx="425.2" cy="78.1" r="3" fill="#4aa3ff"/><circle cx="434.0" cy="78.1" r="3" fill="#4aa3ff"/><circle cx="442.9" cy="78.1" r="3" fill="#4aa3ff"/><circle cx="451.7" cy="78.1" r="3" fill="#4aa3ff"/><circle cx="460.6" cy="74.6" r="3" fill="#4aa3ff"/><circle cx="469.4" cy="66.9" r="3" fill="#4aa3ff"/><circle cx="478.3" cy="36.0" r="3" fill="#4aa3ff"/><circle cx="487.1" cy="36.0" r="3" fill="#4aa3ff"/><circle cx="495.9" cy="39.1" r="3" fill="#4aa3ff"/><circle cx="504.8" cy="39.1" r="3" fill="#4aa3ff"/><circle cx="513.6" cy="39.1" r="3" fill="#4aa3ff"/><circle cx="522.5" cy="39.1" r="3" fill="#4aa3ff"/><circle cx="531.3" cy="39.1" r="3" fill="#4aa3ff"/><circle cx="540.2" cy="39.4" r="3" fill="#4aa3ff"/><circle cx="549.0" cy="39.4" r="3" fill="#4aa3ff"/><circle cx="557.9" cy="39.4" r="3" fill="#4aa3ff"/><circle cx="566.7" cy="39.7" r="3" fill="#4aa3ff"/><circle cx="575.5" cy="39.7" r="3" fill="#4aa3ff"/><circle cx="584.4" cy="39.7" r="3" fill="#4aa3ff"/><circle cx="593.2" cy="39.7" r="3" fill="#4aa3ff"/><circle cx="602.1" cy="39.7" r="3" fill="#4aa3ff"/><circle cx="610.9" cy="39.7" r="3" fill="#4aa3ff"/><circle cx="619.8" cy="39.7" r="3" fill="#4aa3ff"/><circle cx="628.6" cy="39.7" r="3" fill="#4aa3ff"/><circle cx="637.5" cy="39.7" r="3" fill="#4aa3ff"/><circle cx="646.3" cy="39.7" r="3" fill="#4aa3ff"/><circle cx="655.2" cy="39.7" r="3" fill="#4aa3ff"/><circle cx="664.0" cy="39.7" r="3" fill="#4aa3ff"/>
<text x="36" y="225" fill="#6b7280" font-size="11">2026-06-26</text>
<text x="664" y="225" fill="#6b7280" font-size="11" text-anchor="end">2026-07-04</text>
<text x="36" y="212" font-family="system-ui,sans-serif" font-size="11">
<tspan fill="#4aa3ff">&#9679; open FPs</tspan>  <tspan fill="#3fb950">&#9679; closed (Anthropic acting)</tspan>  <tspan fill="#8a5a5a">&#9679; harness withdrawn</tspan></text>
<text x="664" y="22" text-anchor="end" font-family="system-ui,sans-serif" font-size="12">
<tspan fill="#4aa3ff">open 553</tspan>  <tspan fill="#3fb950">closed 38</tspan>  <tspan fill="#8a5a5a">harness 209</tspan></text>
</svg>