<svg xmlns="http://www.w3.org/2000/svg" width="700" height="234" viewBox="0 0 700 234" role="img">
<rect width="700" height="234" rx="12" fill="#16181d"/>
<text x="36" y="22" fill="#e8eaed" font-family="system-ui,sans-serif" font-size="14" font-weight="700">Is Anthropic acting? cyber/aup false positives over time</text>
<line x1="36" y1="198.0" x2="664" y2="198.0" stroke="#2a2e37" stroke-width="1"/><text x="30" y="202.0" fill="#6b7280" font-size="11" text-anchor="end">0</text><line x1="36" y1="117.0" x2="664" y2="117.0" stroke="#2a2e37" stroke-width="1"/><text x="30" y="121.0" fill="#6b7280" font-size="11" text-anchor="end">400</text><line x1="36" y1="36.0" x2="664" y2="36.0" stroke="#2a2e37" stroke-width="1"/><text x="30" y="40.0" fill="#6b7280" font-size="11" text-anchor="end">800</text>

<polyline fill="none" stroke="#8a5a5a" stroke-width="2.5" stroke-linejoin="round" points="36.0,145.1 42.3,145.1 48.6,145.1 54.8,145.1 61.1,145.1 67.4,145.1 73.7,145.1 80.0,145.1 86.2,145.1 92.5,145.1 98.8,145.1 105.1,145.1 111.4,145.1 117.6,145.1 123.9,145.1 130.2,145.1 136.5,145.1 142.8,145.1 149.0,145.1 155.3,145.1 161.6,145.1 167.9,145.1 174.2,145.1 180.4,145.1 186.7,145.1 193.0,145.1 199.3,145.1 205.6,145.1 211.8,145.1 218.1,145.1 224.4,145.1 230.7,145.1 237.0,145.1 243.2,145.1 249.5,145.1 255.8,145.1 262.1,145.1 268.4,145.1 274.6,145.1 280.9,145.1 287.2,145.1 293.5,145.1 299.8,145.1 306.0,145.1 312.3,145.1 318.6,145.1 324.9,145.1 331.2,145.1 337.4,145.1 343.7,145.1 350.0,155.7 356.3,155.7 362.6,155.7 368.8,155.7 375.1,155.7 381.4,155.7 387.7,155.7 394.0,155.7 400.2,155.7 406.5,155.7 412.8,155.7 419.1,155.7 425.4,155.7 431.6,155.7 437.9,155.7 444.2,155.7 450.5,155.7 456.8,155.7 463.0,155.7 469.3,155.7 475.6,155.7 481.9,155.7 488.2,155.7 494.4,155.7 500.7,155.7 507.0,155.7 513.3,155.7 519.6,155.7 525.8,155.7 532.1,155.7 538.4,155.7 544.7,155.7 551.0,155.7 557.2,155.7 563.5,167.6 569.8,167.6 576.1,170.3 582.4,170.3 588.6,170.5 594.9,170.7 601.2,170.7 607.5,170.9 613.8,172.7 620.0,180.6 626.3,181.8 632.6,189.1 638.9,190.5 645.2,195.2 651.4,198.0 657.7,198.0 664.0,198.0"/><circle cx="36.0" cy="145.1" r="3" fill="#8a5a5a"/><circle cx="42.3" cy="145.1" r="3" fill="#8a5a5a"/><circle cx="48.6" cy="145.1" r="3" fill="#8a5a5a"/><circle cx="54.8" cy="145.1" r="3" fill="#8a5a5a"/><circle cx="61.1" cy="145.1" r="3" fill="#8a5a5a"/><circle cx="67.4" cy="145.1" r="3" fill="#8a5a5a"/><circle cx="73.7" cy="145.1" r="3" fill="#8a5a5a"/><circle cx="80.0" cy="145.1" r="3" fill="#8a5a5a"/><circle cx="86.2" cy="145.1" r="3" fill="#8a5a5a"/><circle cx="92.5" cy="145.1" r="3" fill="#8a5a5a"/><circle cx="98.8" cy="145.1" r="3" fill="#8a5a5a"/><circle cx="105.1" cy="145.1" r="3" fill="#8a5a5a"/><circle cx="111.4" cy="145.1" r="3" fill="#8a5a5a"/><circle cx="117.6" cy="145.1" r="3" fill="#8a5a5a"/><circle cx="123.9" cy="145.1" r="3" fill="#8a5a5a"/><circle cx="130.2" cy="145.1" r="3" fill="#8a5a5a"/><circle cx="136.5" cy="145.1" r="3" fill="#8a5a5a"/><circle cx="142.8" cy="145.1" r="3" fill="#8a5a5a"/><circle cx="149.0" cy="145.1" r="3" fill="#8a5a5a"/><circle cx="155.3" cy="145.1" r="3" fill="#8a5a5a"/><circle cx="161.6" cy="145.1" r="3" fill="#8a5a5a"/><circle cx="167.9" cy="145.1" r="3" fill="#8a5a5a"/><circle cx="174.2" cy="145.1" r="3" fill="#8a5a5a"/><circle cx="180.4" cy="145.1" r="3" fill="#8a5a5a"/><circle cx="186.7" cy="145.1" r="3" fill="#8a5a5a"/><circle cx="193.0" cy="145.1" r="3" fill="#8a5a5a"/><circle cx="199.3" cy="145.1" r="3" fill="#8a5a5a"/><circle cx="205.6" cy="145.1" r="3" fill="#8a5a5a"/><circle cx="211.8" cy="145.1" r="3" fill="#8a5a5a"/><circle cx="218.1" cy="145.1" r="3" fill="#8a5a5a"/><circle cx="224.4" cy="145.1" r="3" fill="#8a5a5a"/><circle cx="230.7" cy="145.1" r="3" fill="#8a5a5a"/><circle cx="237.0" cy="145.1" r="3" fill="#8a5a5a"/><circle cx="243.2" cy="145.1" r="3" fill="#8a5a5a"/><circle cx="249.5" cy="145.1" r="3" fill="#8a5a5a"/><circle cx="255.8" cy="145.1" r="3" fill="#8a5a5a"/><circle cx="262.1" cy="145.1" r="3" fill="#8a5a5a"/><circle cx="268.4" cy="145.1" r="3" fill="#8a5a5a"/><circle cx="274.6" cy="145.1" r="3" fill="#8a5a5a"/><circle cx="280.9" cy="145.1" r="3" fill="#8a5a5a"/><circle cx="287.2" cy="145.1" r="3" fill="#8a5a5a"/><circle cx="293.5" cy="145.1" r="3" fill="#8a5a5a"/><circle cx="299.8" cy="145.1" r="3" fill="#8a5a5a"/><circle cx="306.0" cy="145.1" r="3" fill="#8a5a5a"/><circle cx="312.3" cy="145.1" r="3" fill="#8a5a5a"/><circle cx="318.6" cy="145.1" r="3" fill="#8a5a5a"/><circle cx="324.9" cy="145.1" r="3" fill="#8a5a5a"/><circle cx="331.2" cy="145.1" r="3" fill="#8a5a5a"/><circle cx="337.4" cy="145.1" r="3" fill="#8a5a5a"/><circle cx="343.7" cy="145.1" r="3" fill="#8a5a5a"/><circle cx="350.0" cy="155.7" r="3" fill="#8a5a5a"/><circle cx="356.3" cy="155.7" r="3" fill="#8a5a5a"/><circle cx="362.6" cy="155.7" r="3" fill="#8a5a5a"/><circle cx="368.8" cy="155.7" r="3" fill="#8a5a5a"/><circle cx="375.1" cy="155.7" r="3" fill="#8a5a5a"/><circle cx="381.4" cy="155.7" r="3" fill="#8a5a5a"/><circle cx="387.7" cy="155.7" r="3" fill="#8a5a5a"/><circle cx="394.0" cy="155.7" r="3" fill="#8a5a5a"/><circle cx="400.2" cy="155.7" r="3" fill="#8a5a5a"/><circle cx="406.5" cy="155.7" r="3" fill="#8a5a5a"/><circle cx="412.8" cy="155.7" r="3" fill="#8a5a5a"/><circle cx="419.1" cy="155.7" r="3" fill="#8a5a5a"/><circle cx="425.4" cy="155.7" r="3" fill="#8a5a5a"/><circle cx="431.6" cy="155.7" r="3" fill="#8a5a5a"/><circle cx="437.9" cy="155.7" r="3" fill="#8a5a5a"/><circle cx="444.2" cy="155.7" r="3" fill="#8a5a5a"/><circle cx="450.5" cy="155.7" r="3" fill="#8a5a5a"/><circle cx="456.8" cy="155.7" r="3" fill="#8a5a5a"/><circle cx="463.0" cy="155.7" r="3" fill="#8a5a5a"/><circle cx="469.3" cy="155.7" r="3" fill="#8a5a5a"/><circle cx="475.6" cy="155.7" r="3" fill="#8a5a5a"/><circle cx="481.9" cy="155.7" r="3" fill="#8a5a5a"/><circle cx="488.2" cy="155.7" r="3" fill="#8a5a5a"/><circle cx="494.4" cy="155.7" r="3" fill="#8a5a5a"/><circle cx="500.7" cy="155.7" r="3" fill="#8a5a5a"/><circle cx="507.0" cy="155.7" r="3" fill="#8a5a5a"/><circle cx="513.3" cy="155.7" r="3" fill="#8a5a5a"/><circle cx="519.6" cy="155.7" r="3" fill="#8a5a5a"/><circle cx="525.8" cy="155.7" r="3" fill="#8a5a5a"/><circle cx="532.1" cy="155.7" r="3" fill="#8a5a5a"/><circle cx="538.4" cy="155.7" r="3" fill="#8a5a5a"/><circle cx="544.7" cy="155.7" r="3" fill="#8a5a5a"/><circle cx="551.0" cy="155.7" r="3" fill="#8a5a5a"/><circle cx="557.2" cy="155.7" r="3" fill="#8a5a5a"/><circle cx="563.5" cy="167.6" r="3" fill="#8a5a5a"/><circle cx="569.8" cy="167.6" r="3" fill="#8a5a5a"/><circle cx="576.1" cy="170.3" r="3" fill="#8a5a5a"/><circle cx="582.4" cy="170.3" r="3" fill="#8a5a5a"/><circle cx="588.6" cy="170.5" r="3" fill="#8a5a5a"/><circle cx="594.9" cy="170.7" r="3" fill="#8a5a5a"/><circle cx="601.2" cy="170.7" r="3" fill="#8a5a5a"/><circle cx="607.5" cy="170.9" r="3" fill="#8a5a5a"/><circle cx="613.8" cy="172.7" r="3" fill="#8a5a5a"/><circle cx="620.0" cy="180.6" r="3" fill="#8a5a5a"/><circle cx="626.3" cy="181.8" r="3" fill="#8a5a5a"/><circle cx="632.6" cy="189.1" r="3" fill="#8a5a5a"/><circle cx="638.9" cy="190.5" r="3" fill="#8a5a5a"/><circle cx="645.2" cy="195.2" r="3" fill="#8a5a5a"/><circle cx="651.4" cy="198.0" r="3" fill="#8a5a5a"/><circle cx="657.7" cy="198.0" r="3" fill="#8a5a5a"/><circle cx="664.0" cy="198.0" r="3" fill="#8a5a5a"/>
<polyline fill="none" stroke="#3fb950" stroke-width="2.5" stroke-linejoin="round" points="36.0,198.0 42.3,198.0 48.6,198.0 54.8,198.0 61.1,198.0 67.4,198.0 73.7,198.0 80.0,198.0 86.2,198.0 92.5,198.0 98.8,198.0 105.1,198.0 111.4,198.0 117.6,198.0 123.9,198.0 130.2,198.0 136.5,198.0 142.8,198.0 149.0,198.0 155.3,198.0 161.6,198.0 167.9,198.0 174.2,198.0 180.4,198.0 186.7,198.0 193.0,198.0 199.3,198.0 205.6,198.0 211.8,198.0 218.1,198.0 224.4,198.0 230.7,198.0 237.0,198.0 243.2,198.0 249.5,198.0 255.8,198.0 262.1,198.0 268.4,198.0 274.6,198.0 280.9,198.0 287.2,198.0 293.5,198.0 299.8,198.0 306.0,191.7 312.3,191.7 318.6,191.7 324.9,191.7 331.2,191.7 337.4,191.7 343.7,191.7 350.0,192.9 356.3,192.9 362.6,190.7 368.8,190.7 375.1,190.7 381.4,190.7 387.7,190.7 394.0,190.5 400.2,190.5 406.5,190.5 412.8,190.3 419.1,190.3 425.4,190.3 431.6,190.3 437.9,190.3 444.2,190.3 450.5,190.3 456.8,190.3 463.0,190.3 469.3,190.3 475.6,190.3 481.9,190.3 488.2,190.3 494.4,190.3 500.7,190.3 507.0,190.3 513.3,190.3 519.6,190.3 525.8,190.3 532.1,190.3 538.4,190.3 544.7,189.3 551.0,189.3 557.2,189.3 563.5,190.7 569.8,190.7 576.1,190.7 582.4,190.7 588.6,190.7 594.9,190.7 601.2,190.7 607.5,190.7 613.8,190.7 620.0,190.9 626.3,190.9 632.6,190.9 638.9,194.2 645.2,196.8 651.4,198.0 657.7,198.0 664.0,198.0"/><circle cx="36.0" cy="198.0" r="3" fill="#3fb950"/><circle cx="42.3" cy="198.0" r="3" fill="#3fb950"/><circle cx="48.6" cy="198.0" r="3" fill="#3fb950"/><circle cx="54.8" cy="198.0" r="3" fill="#3fb950"/><circle cx="61.1" cy="198.0" r="3" fill="#3fb950"/><circle cx="67.4" cy="198.0" r="3" fill="#3fb950"/><circle cx="73.7" cy="198.0" r="3" fill="#3fb950"/><circle cx="80.0" cy="198.0" r="3" fill="#3fb950"/><circle cx="86.2" cy="198.0" r="3" fill="#3fb950"/><circle cx="92.5" cy="198.0" r="3" fill="#3fb950"/><circle cx="98.8" cy="198.0" r="3" fill="#3fb950"/><circle cx="105.1" cy="198.0" r="3" fill="#3fb950"/><circle cx="111.4" cy="198.0" r="3" fill="#3fb950"/><circle cx="117.6" cy="198.0" r="3" fill="#3fb950"/><circle cx="123.9" cy="198.0" r="3" fill="#3fb950"/><circle cx="130.2" cy="198.0" r="3" fill="#3fb950"/><circle cx="136.5" cy="198.0" r="3" fill="#3fb950"/><circle cx="142.8" cy="198.0" r="3" fill="#3fb950"/><circle cx="149.0" cy="198.0" r="3" fill="#3fb950"/><circle cx="155.3" cy="198.0" r="3" fill="#3fb950"/><circle cx="161.6" cy="198.0" r="3" fill="#3fb950"/><circle cx="167.9" cy="198.0" r="3" fill="#3fb950"/><circle cx="174.2" cy="198.0" r="3" fill="#3fb950"/><circle cx="180.4" cy="198.0" r="3" fill="#3fb950"/><circle cx="186.7" cy="198.0" r="3" fill="#3fb950"/><circle cx="193.0" cy="198.0" r="3" fill="#3fb950"/><circle cx="199.3" cy="198.0" r="3" fill="#3fb950"/><circle cx="205.6" cy="198.0" r="3" fill="#3fb950"/><circle cx="211.8" cy="198.0" r="3" fill="#3fb950"/><circle cx="218.1" cy="198.0" r="3" fill="#3fb950"/><circle cx="224.4" cy="198.0" r="3" fill="#3fb950"/><circle cx="230.7" cy="198.0" r="3" fill="#3fb950"/><circle cx="237.0" cy="198.0" r="3" fill="#3fb950"/><circle cx="243.2" cy="198.0" r="3" fill="#3fb950"/><circle cx="249.5" cy="198.0" r="3" fill="#3fb950"/><circle cx="255.8" cy="198.0" r="3" fill="#3fb950"/><circle cx="262.1" cy="198.0" r="3" fill="#3fb950"/><circle cx="268.4" cy="198.0" r="3" fill="#3fb950"/><circle cx="274.6" cy="198.0" r="3" fill="#3fb950"/><circle cx="280.9" cy="198.0" r="3" fill="#3fb950"/><circle cx="287.2" cy="198.0" r="3" fill="#3fb950"/><circle cx="293.5" cy="198.0" r="3" fill="#3fb950"/><circle cx="299.8" cy="198.0" r="3" fill="#3fb950"/><circle cx="306.0" cy="191.7" r="3" fill="#3fb950"/><circle cx="312.3" cy="191.7" r="3" fill="#3fb950"/><circle cx="318.6" cy="191.7" r="3" fill="#3fb950"/><circle cx="324.9" cy="191.7" r="3" fill="#3fb950"/><circle cx="331.2" cy="191.7" r="3" fill="#3fb950"/><circle cx="337.4" cy="191.7" r="3" fill="#3fb950"/><circle cx="343.7" cy="191.7" r="3" fill="#3fb950"/><circle cx="350.0" cy="192.9" r="3" fill="#3fb950"/><circle cx="356.3" cy="192.9" r="3" fill="#3fb950"/><circle cx="362.6" cy="190.7" r="3" fill="#3fb950"/><circle cx="368.8" cy="190.7" r="3" fill="#3fb950"/><circle cx="375.1" cy="190.7" r="3" fill="#3fb950"/><circle cx="381.4" cy="190.7" r="3" fill="#3fb950"/><circle cx="387.7" cy="190.7" r="3" fill="#3fb950"/><circle cx="394.0" cy="190.5" r="3" fill="#3fb950"/><circle cx="400.2" cy="190.5" r="3" fill="#3fb950"/><circle cx="406.5" cy="190.5" r="3" fill="#3fb950"/><circle cx="412.8" cy="190.3" r="3" fill="#3fb950"/><circle cx="419.1" cy="190.3" r="3" fill="#3fb950"/><circle cx="425.4" cy="190.3" r="3" fill="#3fb950"/><circle cx="431.6" cy="190.3" r="3" fill="#3fb950"/><circle cx="437.9" cy="190.3" r="3" fill="#3fb950"/><circle cx="444.2" cy="190.3" r="3" fill="#3fb950"/><circle cx="450.5" cy="190.3" r="3" fill="#3fb950"/><circle cx="456.8" cy="190.3" r="3" fill="#3fb950"/><circle cx="463.0" cy="190.3" r="3" fill="#3fb950"/><circle cx="469.3" cy="190.3" r="3" fill="#3fb950"/><circle cx="475.6" cy="190.3" r="3" fill="#3fb950"/><circle cx="481.9" cy="190.3" r="3" fill="#3fb950"/><circle cx="488.2" cy="190.3" r="3" fill="#3fb950"/><circle cx="494.4" cy="190.3" r="3" fill="#3fb950"/><circle cx="500.7" cy="190.3" r="3" fill="#3fb950"/><circle cx="507.0" cy="190.3" r="3" fill="#3fb950"/><circle cx="513.3" cy="190.3" r="3" fill="#3fb950"/><circle cx="519.6" cy="190.3" r="3" fill="#3fb950"/><circle cx="525.8" cy="190.3" r="3" fill="#3fb950"/><circle cx="532.1" cy="190.3" r="3" fill="#3fb950"/><circle cx="538.4" cy="190.3" r="3" fill="#3fb950"/><circle cx="544.7" cy="189.3" r="3" fill="#3fb950"/><circle cx="551.0" cy="189.3" r="3" fill="#3fb950"/><circle cx="557.2" cy="189.3" r="3" fill="#3fb950"/><circle cx="563.5" cy="190.7" r="3" fill="#3fb950"/><circle cx="569.8" cy="190.7" r="3" fill="#3fb950"/><circle cx="576.1" cy="190.7" r="3" fill="#3fb950"/><circle cx="582.4" cy="190.7" r="3" fill="#3fb950"/><circle cx="588.6" cy="190.7" r="3" fill="#3fb950"/><circle cx="594.9" cy="190.7" r="3" fill="#3fb950"/><circle cx="601.2" cy="190.7" r="3" fill="#3fb950"/><circle cx="607.5" cy="190.7" r="3" fill="#3fb950"/><circle cx="613.8" cy="190.7" r="3" fill="#3fb950"/><circle cx="620.0" cy="190.9" r="3" fill="#3fb950"/><circle cx="626.3" cy="190.9" r="3" fill="#3fb950"/><circle cx="632.6" cy="190.9" r="3" fill="#3fb950"/><circle cx="638.9" cy="194.2" r="3" fill="#3fb950"/><circle cx="645.2" cy="196.8" r="3" fill="#3fb950"/><circle cx="651.4" cy="198.0" r="3" fill="#3fb950"/><circle cx="657.7" cy="198.0" r="3" fill="#3fb950"/><circle cx="664.0" cy="198.0" r="3" fill="#3fb950"/>
<polyline fill="none" stroke="#4aa3ff" stroke-width="2.5" stroke-linejoin="round" points="36.0,144.3 42.3,144.3 48.6,144.3 54.8,144.3 61.1,144.3 67.4,144.3 73.7,144.3 80.0,144.3 86.2,144.3 92.5,144.3 98.8,144.3 105.1,144.3 111.4,144.3 117.6,144.3 123.9,144.3 130.2,136.2 136.5,132.4 142.8,129.6 149.0,129.6 155.3,121.0 161.6,121.0 167.9,121.0 174.2,114.4 180.4,114.4 186.7,114.4 193.0,111.3 199.3,110.9 205.6,110.9 211.8,110.5 218.1,110.5 224.4,109.9 230.7,108.7 237.0,107.3 243.2,106.9 249.5,106.9 255.8,106.9 262.1,106.9 268.4,106.9 274.6,106.9 280.9,106.9 287.2,106.9 293.5,106.9 299.8,106.9 306.0,113.2 312.3,113.2 318.6,113.2 324.9,113.2 331.2,113.2 337.4,110.7 343.7,105.3 350.0,83.4 356.3,83.4 362.6,85.6 368.8,85.6 375.1,85.6 381.4,85.6 387.7,85.6 394.0,85.8 400.2,85.8 406.5,85.8 412.8,86.0 419.1,86.0 425.4,86.0 431.6,86.0 437.9,86.0 444.2,86.0 450.5,86.0 456.8,86.0 463.0,86.0 469.3,86.0 475.6,86.0 481.9,86.0 488.2,86.0 494.4,86.0 500.7,86.0 507.0,86.0 513.3,86.0 519.6,86.0 525.8,86.0 532.1,86.0 538.4,86.0 544.7,87.0 551.0,87.0 557.2,87.0 563.5,73.7 569.8,73.7 576.1,71.0 582.4,71.0 588.6,70.8 594.9,70.6 601.2,70.6 607.5,70.4 613.8,68.6 620.0,60.5 626.3,59.3 632.6,52.0 638.9,47.3 645.2,40.1 651.4,36.0 657.7,36.0 664.0,36.0"/><circle cx="36.0" cy="144.3" r="3" fill="#4aa3ff"/><circle cx="42.3" cy="144.3" r="3" fill="#4aa3ff"/><circle cx="48.6" cy="144.3" r="3" fill="#4aa3ff"/><circle cx="54.8" cy="144.3" r="3" fill="#4aa3ff"/><circle cx="61.1" cy="144.3" r="3" fill="#4aa3ff"/><circle cx="67.4" cy="144.3" r="3" fill="#4aa3ff"/><circle cx="73.7" cy="144.3" r="3" fill="#4aa3ff"/><circle cx="80.0" cy="144.3" r="3" fill="#4aa3ff"/><circle cx="86.2" cy="144.3" r="3" fill="#4aa3ff"/><circle cx="92.5" cy="144.3" r="3" fill="#4aa3ff"/><circle cx="98.8" cy="144.3" r="3" fill="#4aa3ff"/><circle cx="105.1" cy="144.3" r="3" fill="#4aa3ff"/><circle cx="111.4" cy="144.3" r="3" fill="#4aa3ff"/><circle cx="117.6" cy="144.3" r="3" fill="#4aa3ff"/><circle cx="123.9" cy="144.3" r="3" fill="#4aa3ff"/><circle cx="130.2" cy="136.2" r="3" fill="#4aa3ff"/><circle cx="136.5" cy="132.4" r="3" fill="#4aa3ff"/><circle cx="142.8" cy="129.6" r="3" fill="#4aa3ff"/><circle cx="149.0" cy="129.6" r="3" fill="#4aa3ff"/><circle cx="155.3" cy="121.0" r="3" fill="#4aa3ff"/><circle cx="161.6" cy="121.0" r="3" fill="#4aa3ff"/><circle cx="167.9" cy="121.0" r="3" fill="#4aa3ff"/><circle cx="174.2" cy="114.4" r="3" fill="#4aa3ff"/><circle cx="180.4" cy="114.4" r="3" fill="#4aa3ff"/><circle cx="186.7" cy="114.4" r="3" fill="#4aa3ff"/><circle cx="193.0" cy="111.3" r="3" fill="#4aa3ff"/><circle cx="199.3" cy="110.9" r="3" fill="#4aa3ff"/><circle cx="205.6" cy="110.9" r="3" fill="#4aa3ff"/><circle cx="211.8" cy="110.5" r="3" fill="#4aa3ff"/><circle cx="218.1" cy="110.5" r="3" fill="#4aa3ff"/><circle cx="224.4" cy="109.9" r="3" fill="#4aa3ff"/><circle cx="230.7" cy="108.7" r="3" fill="#4aa3ff"/><circle cx="237.0" cy="107.3" r="3" fill="#4aa3ff"/><circle cx="243.2" cy="106.9" r="3" fill="#4aa3ff"/><circle cx="249.5" cy="106.9" r="3" fill="#4aa3ff"/><circle cx="255.8" cy="106.9" r="3" fill="#4aa3ff"/><circle cx="262.1" cy="106.9" r="3" fill="#4aa3ff"/><circle cx="268.4" cy="106.9" r="3" fill="#4aa3ff"/><circle cx="274.6" cy="106.9" r="3" fill="#4aa3ff"/><circle cx="280.9" cy="106.9" r="3" fill="#4aa3ff"/><circle cx="287.2" cy="106.9" r="3" fill="#4aa3ff"/><circle cx="293.5" cy="106.9" r="3" fill="#4aa3ff"/><circle cx="299.8" cy="106.9" r="3" fill="#4aa3ff"/><circle cx="306.0" cy="113.2" r="3" fill="#4aa3ff"/><circle cx="312.3" cy="113.2" r="3" fill="#4aa3ff"/><circle cx="318.6" cy="113.2" r="3" fill="#4aa3ff"/><circle cx="324.9" cy="113.2" r="3" fill="#4aa3ff"/><circle cx="331.2" cy="113.2" r="3" fill="#4aa3ff"/><circle cx="337.4" cy="110.7" r="3" fill="#4aa3ff"/><circle cx="343.7" cy="105.3" r="3" fill="#4aa3ff"/><circle cx="350.0" cy="83.4" r="3" fill="#4aa3ff"/><circle cx="356.3" cy="83.4" r="3" fill="#4aa3ff"/><circle cx="362.6" cy="85.6" r="3" fill="#4aa3ff"/><circle cx="368.8" cy="85.6" r="3" fill="#4aa3ff"/><circle cx="375.1" cy="85.6" r="3" fill="#4aa3ff"/><circle cx="381.4" cy="85.6" r="3" fill="#4aa3ff"/><circle cx="387.7" cy="85.6" r="3" fill="#4aa3ff"/><circle cx="394.0" cy="85.8" r="3" fill="#4aa3ff"/><circle cx="400.2" cy="85.8" r="3" fill="#4aa3ff"/><circle cx="406.5" cy="85.8" r="3" fill="#4aa3ff"/><circle cx="412.8" cy="86.0" r="3" fill="#4aa3ff"/><circle cx="419.1" cy="86.0" r="3" fill="#4aa3ff"/><circle cx="425.4" cy="86.0" r="3" fill="#4aa3ff"/><circle cx="431.6" cy="86.0" r="3" fill="#4aa3ff"/><circle cx="437.9" cy="86.0" r="3" fill="#4aa3ff"/><circle cx="444.2" cy="86.0" r="3" fill="#4aa3ff"/><circle cx="450.5" cy="86.0" r="3" fill="#4aa3ff"/><circle cx="456.8" cy="86.0" r="3" fill="#4aa3ff"/><circle cx="463.0" cy="86.0" r="3" fill="#4aa3ff"/><circle cx="469.3" cy="86.0" r="3" fill="#4aa3ff"/><circle cx="475.6" cy="86.0" r="3" fill="#4aa3ff"/><circle cx="481.9" cy="86.0" r="3" fill="#4aa3ff"/><circle cx="488.2" cy="86.0" r="3" fill="#4aa3ff"/><circle cx="494.4" cy="86.0" r="3" fill="#4aa3ff"/><circle cx="500.7" cy="86.0" r="3" fill="#4aa3ff"/><circle cx="507.0" cy="86.0" r="3" fill="#4aa3ff"/><circle cx="513.3" cy="86.0" r="3" fill="#4aa3ff"/><circle cx="519.6" cy="86.0" r="3" fill="#4aa3ff"/><circle cx="525.8" cy="86.0" r="3" fill="#4aa3ff"/><circle cx="532.1" cy="86.0" r="3" fill="#4aa3ff"/><circle cx="538.4" cy="86.0" r="3" fill="#4aa3ff"/><circle cx="544.7" cy="87.0" r="3" fill="#4aa3ff"/><circle cx="551.0" cy="87.0" r="3" fill="#4aa3ff"/><circle cx="557.2" cy="87.0" r="3" fill="#4aa3ff"/><circle cx="563.5" cy="73.7" r="3" fill="#4aa3ff"/><circle cx="569.8" cy="73.7" r="3" fill="#4aa3ff"/><circle cx="576.1" cy="71.0" r="3" fill="#4aa3ff"/><circle cx="582.4" cy="71.0" r="3" fill="#4aa3ff"/><circle cx="588.6" cy="70.8" r="3" fill="#4aa3ff"/><circle cx="594.9" cy="70.6" r="3" fill="#4aa3ff"/><circle cx="601.2" cy="70.6" r="3" fill="#4aa3ff"/><circle cx="607.5" cy="70.4" r="3" fill="#4aa3ff"/><circle cx="613.8" cy="68.6" r="3" fill="#4aa3ff"/><circle cx="620.0" cy="60.5" r="3" fill="#4aa3ff"/><circle cx="626.3" cy="59.3" r="3" fill="#4aa3ff"/><circle cx="632.6" cy="52.0" r="3" fill="#4aa3ff"/><circle cx="638.9" cy="47.3" r="3" fill="#4aa3ff"/><circle cx="645.2" cy="40.1" r="3" fill="#4aa3ff"/><circle cx="651.4" cy="36.0" r="3" fill="#4aa3ff"/><circle cx="657.7" cy="36.0" r="3" fill="#4aa3ff"/><circle cx="664.0" cy="36.0" r="3" fill="#4aa3ff"/>
<text x="36" y="225" fill="#6b7280" font-size="11">2026-06-26</text>
<text x="664" y="225" fill="#6b7280" font-size="11" text-anchor="end">2026-07-07</text>
<text x="36" y="212" font-family="system-ui,sans-serif" font-size="11">
<tspan fill="#4aa3ff">&#9679; open FPs</tspan>  <tspan fill="#3fb950">&#9679; closed (Anthropic acting)</tspan>  <tspan fill="#8a5a5a">&#9679; harness withdrawn</tspan></text>
<text x="664" y="22" text-anchor="end" font-family="system-ui,sans-serif" font-size="12">
<tspan fill="#4aa3ff">open 800</tspan>  <tspan fill="#3fb950">closed 0</tspan>  <tspan fill="#8a5a5a">harness 0</tspan></text>
</svg>