<svg xmlns="http://www.w3.org/2000/svg" width="700" height="234" viewBox="0 0 700 234" role="img">
<rect width="700" height="234" rx="12" fill="#16181d"/>
<text x="36" y="22" fill="#e8eaed" font-family="system-ui,sans-serif" font-size="14" font-weight="700">Is Anthropic acting? cyber/aup false positives over time</text>
<line x1="36" y1="198.0" x2="664" y2="198.0" stroke="#2a2e37" stroke-width="1"/><text x="30" y="202.0" fill="#6b7280" font-size="11" text-anchor="end">0</text><line x1="36" y1="117.0" x2="664" y2="117.0" stroke="#2a2e37" stroke-width="1"/><text x="30" y="121.0" fill="#6b7280" font-size="11" text-anchor="end">283</text><line x1="36" y1="36.0" x2="664" y2="36.0" stroke="#2a2e37" stroke-width="1"/><text x="30" y="40.0" fill="#6b7280" font-size="11" text-anchor="end">566</text>

<polyline fill="none" stroke="#8a5a5a" stroke-width="2.5" stroke-linejoin="round" points="36.0,123.3 45.1,123.3 54.2,123.3 63.3,123.3 72.4,123.3 81.5,123.3 90.6,123.3 99.7,123.3 108.8,123.3 117.9,123.3 127.0,123.3 136.1,123.3 145.2,123.3 154.3,123.3 163.4,123.3 172.5,123.3 181.6,123.3 190.7,123.3 199.8,123.3 208.9,123.3 218.0,123.3 227.1,123.3 236.2,123.3 245.3,123.3 254.4,123.3 263.5,123.3 272.6,123.3 281.7,123.3 290.8,123.3 299.9,123.3 309.0,123.3 318.1,123.3 327.2,123.3 336.3,123.3 345.4,123.3 354.6,123.3 363.7,123.3 372.8,123.3 381.9,123.3 391.0,123.3 400.1,123.3 409.2,123.3 418.3,123.3 427.4,123.3 436.5,123.3 445.6,123.3 454.7,123.3 463.8,123.3 472.9,123.3 482.0,123.3 491.1,138.2 500.2,138.2 509.3,138.2 518.4,138.2 527.5,138.2 536.6,138.2 545.7,138.2 554.8,138.2 563.9,138.2 573.0,138.2 582.1,138.2 591.2,138.2 600.3,138.2 609.4,138.2 618.5,138.2 627.6,138.2 636.7,138.2 645.8,138.2 654.9,138.2 664.0,138.2"/><circle cx="36.0" cy="123.3" r="3" fill="#8a5a5a"/><circle cx="45.1" cy="123.3" r="3" fill="#8a5a5a"/><circle cx="54.2" cy="123.3" r="3" fill="#8a5a5a"/><circle cx="63.3" cy="123.3" r="3" fill="#8a5a5a"/><circle cx="72.4" cy="123.3" r="3" fill="#8a5a5a"/><circle cx="81.5" cy="123.3" r="3" fill="#8a5a5a"/><circle cx="90.6" cy="123.3" r="3" fill="#8a5a5a"/><circle cx="99.7" cy="123.3" r="3" fill="#8a5a5a"/><circle cx="108.8" cy="123.3" r="3" fill="#8a5a5a"/><circle cx="117.9" cy="123.3" r="3" fill="#8a5a5a"/><circle cx="127.0" cy="123.3" r="3" fill="#8a5a5a"/><circle cx="136.1" cy="123.3" r="3" fill="#8a5a5a"/><circle cx="145.2" cy="123.3" r="3" fill="#8a5a5a"/><circle cx="154.3" cy="123.3" r="3" fill="#8a5a5a"/><circle cx="163.4" cy="123.3" r="3" fill="#8a5a5a"/><circle cx="172.5" cy="123.3" r="3" fill="#8a5a5a"/><circle cx="181.6" cy="123.3" r="3" fill="#8a5a5a"/><circle cx="190.7" cy="123.3" r="3" fill="#8a5a5a"/><circle cx="199.8" cy="123.3" r="3" fill="#8a5a5a"/><circle cx="208.9" cy="123.3" r="3" fill="#8a5a5a"/><circle cx="218.0" cy="123.3" r="3" fill="#8a5a5a"/><circle cx="227.1" cy="123.3" r="3" fill="#8a5a5a"/><circle cx="236.2" cy="123.3" r="3" fill="#8a5a5a"/><circle cx="245.3" cy="123.3" r="3" fill="#8a5a5a"/><circle cx="254.4" cy="123.3" r="3" fill="#8a5a5a"/><circle cx="263.5" cy="123.3" r="3" fill="#8a5a5a"/><circle cx="272.6" cy="123.3" r="3" fill="#8a5a5a"/><circle cx="281.7" cy="123.3" r="3" fill="#8a5a5a"/><circle cx="290.8" cy="123.3" r="3" fill="#8a5a5a"/><circle cx="299.9" cy="123.3" r="3" fill="#8a5a5a"/><circle cx="309.0" cy="123.3" r="3" fill="#8a5a5a"/><circle cx="318.1" cy="123.3" r="3" fill="#8a5a5a"/><circle cx="327.2" cy="123.3" r="3" fill="#8a5a5a"/><circle cx="336.3" cy="123.3" r="3" fill="#8a5a5a"/><circle cx="345.4" cy="123.3" r="3" fill="#8a5a5a"/><circle cx="354.6" cy="123.3" r="3" fill="#8a5a5a"/><circle cx="363.7" cy="123.3" r="3" fill="#8a5a5a"/><circle cx="372.8" cy="123.3" r="3" fill="#8a5a5a"/><circle cx="381.9" cy="123.3" r="3" fill="#8a5a5a"/><circle cx="391.0" cy="123.3" r="3" fill="#8a5a5a"/><circle cx="400.1" cy="123.3" r="3" fill="#8a5a5a"/><circle cx="409.2" cy="123.3" r="3" fill="#8a5a5a"/><circle cx="418.3" cy="123.3" r="3" fill="#8a5a5a"/><circle cx="427.4" cy="123.3" r="3" fill="#8a5a5a"/><circle cx="436.5" cy="123.3" r="3" fill="#8a5a5a"/><circle cx="445.6" cy="123.3" r="3" fill="#8a5a5a"/><circle cx="454.7" cy="123.3" r="3" fill="#8a5a5a"/><circle cx="463.8" cy="123.3" r="3" fill="#8a5a5a"/><circle cx="472.9" cy="123.3" r="3" fill="#8a5a5a"/><circle cx="482.0" cy="123.3" r="3" fill="#8a5a5a"/><circle cx="491.1" cy="138.2" r="3" fill="#8a5a5a"/><circle cx="500.2" cy="138.2" r="3" fill="#8a5a5a"/><circle cx="509.3" cy="138.2" r="3" fill="#8a5a5a"/><circle cx="518.4" cy="138.2" r="3" fill="#8a5a5a"/><circle cx="527.5" cy="138.2" r="3" fill="#8a5a5a"/><circle cx="536.6" cy="138.2" r="3" fill="#8a5a5a"/><circle cx="545.7" cy="138.2" r="3" fill="#8a5a5a"/><circle cx="554.8" cy="138.2" r="3" fill="#8a5a5a"/><circle cx="563.9" cy="138.2" r="3" fill="#8a5a5a"/><circle cx="573.0" cy="138.2" r="3" fill="#8a5a5a"/><circle cx="582.1" cy="138.2" r="3" fill="#8a5a5a"/><circle cx="591.2" cy="138.2" r="3" fill="#8a5a5a"/><circle cx="600.3" cy="138.2" r="3" fill="#8a5a5a"/><circle cx="609.4" cy="138.2" r="3" fill="#8a5a5a"/><circle cx="618.5" cy="138.2" r="3" fill="#8a5a5a"/><circle cx="627.6" cy="138.2" r="3" fill="#8a5a5a"/><circle cx="636.7" cy="138.2" r="3" fill="#8a5a5a"/><circle cx="645.8" cy="138.2" r="3" fill="#8a5a5a"/><circle cx="654.9" cy="138.2" r="3" fill="#8a5a5a"/><circle cx="664.0" cy="138.2" r="3" fill="#8a5a5a"/>
<polyline fill="none" stroke="#3fb950" stroke-width="2.5" stroke-linejoin="round" points="36.0,198.0 45.1,198.0 54.2,198.0 63.3,198.0 72.4,198.0 81.5,198.0 90.6,198.0 99.7,198.0 108.8,198.0 117.9,198.0 127.0,198.0 136.1,198.0 145.2,198.0 154.3,198.0 163.4,198.0 172.5,198.0 181.6,198.0 190.7,198.0 199.8,198.0 208.9,198.0 218.0,198.0 227.1,198.0 236.2,198.0 245.3,198.0 254.4,198.0 263.5,198.0 272.6,198.0 281.7,198.0 290.8,198.0 299.9,198.0 309.0,198.0 318.1,198.0 327.2,198.0 336.3,198.0 345.4,198.0 354.6,198.0 363.7,198.0 372.8,198.0 381.9,198.0 391.0,198.0 400.1,198.0 409.2,198.0 418.3,198.0 427.4,189.1 436.5,189.1 445.6,189.1 454.7,189.1 463.8,189.1 472.9,189.1 482.0,189.1 491.1,190.8 500.2,190.8 509.3,187.7 518.4,187.7 527.5,187.7 536.6,187.7 545.7,187.7 554.8,187.4 563.9,187.4 573.0,187.4 582.1,187.1 591.2,187.1 600.3,187.1 609.4,187.1 618.5,187.1 627.6,187.1 636.7,187.1 645.8,187.1 654.9,187.1 664.0,187.1"/><circle cx="36.0" cy="198.0" r="3" fill="#3fb950"/><circle cx="45.1" cy="198.0" r="3" fill="#3fb950"/><circle cx="54.2" cy="198.0" r="3" fill="#3fb950"/><circle cx="63.3" cy="198.0" r="3" fill="#3fb950"/><circle cx="72.4" cy="198.0" r="3" fill="#3fb950"/><circle cx="81.5" cy="198.0" r="3" fill="#3fb950"/><circle cx="90.6" cy="198.0" r="3" fill="#3fb950"/><circle cx="99.7" cy="198.0" r="3" fill="#3fb950"/><circle cx="108.8" cy="198.0" r="3" fill="#3fb950"/><circle cx="117.9" cy="198.0" r="3" fill="#3fb950"/><circle cx="127.0" cy="198.0" r="3" fill="#3fb950"/><circle cx="136.1" cy="198.0" r="3" fill="#3fb950"/><circle cx="145.2" cy="198.0" r="3" fill="#3fb950"/><circle cx="154.3" cy="198.0" r="3" fill="#3fb950"/><circle cx="163.4" cy="198.0" r="3" fill="#3fb950"/><circle cx="172.5" cy="198.0" r="3" fill="#3fb950"/><circle cx="181.6" cy="198.0" r="3" fill="#3fb950"/><circle cx="190.7" cy="198.0" r="3" fill="#3fb950"/><circle cx="199.8" cy="198.0" r="3" fill="#3fb950"/><circle cx="208.9" cy="198.0" r="3" fill="#3fb950"/><circle cx="218.0" cy="198.0" r="3" fill="#3fb950"/><circle cx="227.1" cy="198.0" r="3" fill="#3fb950"/><circle cx="236.2" cy="198.0" r="3" fill="#3fb950"/><circle cx="245.3" cy="198.0" r="3" fill="#3fb950"/><circle cx="254.4" cy="198.0" r="3" fill="#3fb950"/><circle cx="263.5" cy="198.0" r="3" fill="#3fb950"/><circle cx="272.6" cy="198.0" r="3" fill="#3fb950"/><circle cx="281.7" cy="198.0" r="3" fill="#3fb950"/><circle cx="290.8" cy="198.0" r="3" fill="#3fb950"/><circle cx="299.9" cy="198.0" r="3" fill="#3fb950"/><circle cx="309.0" cy="198.0" r="3" fill="#3fb950"/><circle cx="318.1" cy="198.0" r="3" fill="#3fb950"/><circle cx="327.2" cy="198.0" r="3" fill="#3fb950"/><circle cx="336.3" cy="198.0" r="3" fill="#3fb950"/><circle cx="345.4" cy="198.0" r="3" fill="#3fb950"/><circle cx="354.6" cy="198.0" r="3" fill="#3fb950"/><circle cx="363.7" cy="198.0" r="3" fill="#3fb950"/><circle cx="372.8" cy="198.0" r="3" fill="#3fb950"/><circle cx="381.9" cy="198.0" r="3" fill="#3fb950"/><circle cx="391.0" cy="198.0" r="3" fill="#3fb950"/><circle cx="400.1" cy="198.0" r="3" fill="#3fb950"/><circle cx="409.2" cy="198.0" r="3" fill="#3fb950"/><circle cx="418.3" cy="198.0" r="3" fill="#3fb950"/><circle cx="427.4" cy="189.1" r="3" fill="#3fb950"/><circle cx="436.5" cy="189.1" r="3" fill="#3fb950"/><circle cx="445.6" cy="189.1" r="3" fill="#3fb950"/><circle cx="454.7" cy="189.1" r="3" fill="#3fb950"/><circle cx="463.8" cy="189.1" r="3" fill="#3fb950"/><circle cx="472.9" cy="189.1" r="3" fill="#3fb950"/><circle cx="482.0" cy="189.1" r="3" fill="#3fb950"/><circle cx="491.1" cy="190.8" r="3" fill="#3fb950"/><circle cx="500.2" cy="190.8" r="3" fill="#3fb950"/><circle cx="509.3" cy="187.7" r="3" fill="#3fb950"/><circle cx="518.4" cy="187.7" r="3" fill="#3fb950"/><circle cx="527.5" cy="187.7" r="3" fill="#3fb950"/><circle cx="536.6" cy="187.7" r="3" fill="#3fb950"/><circle cx="545.7" cy="187.7" r="3" fill="#3fb950"/><circle cx="554.8" cy="187.4" r="3" fill="#3fb950"/><circle cx="563.9" cy="187.4" r="3" fill="#3fb950"/><circle cx="573.0" cy="187.4" r="3" fill="#3fb950"/><circle cx="582.1" cy="187.1" r="3" fill="#3fb950"/><circle cx="591.2" cy="187.1" r="3" fill="#3fb950"/><circle cx="600.3" cy="187.1" r="3" fill="#3fb950"/><circle cx="609.4" cy="187.1" r="3" fill="#3fb950"/><circle cx="618.5" cy="187.1" r="3" fill="#3fb950"/><circle cx="627.6" cy="187.1" r="3" fill="#3fb950"/><circle cx="636.7" cy="187.1" r="3" fill="#3fb950"/><circle cx="645.8" cy="187.1" r="3" fill="#3fb950"/><circle cx="654.9" cy="187.1" r="3" fill="#3fb950"/><circle cx="664.0" cy="187.1" r="3" fill="#3fb950"/>
<polyline fill="none" stroke="#4aa3ff" stroke-width="2.5" stroke-linejoin="round" points="36.0,122.2 45.1,122.2 54.2,122.2 63.3,122.2 72.4,122.2 81.5,122.2 90.6,122.2 99.7,122.2 108.8,122.2 117.9,122.2 127.0,122.2 136.1,122.2 145.2,122.2 154.3,122.2 163.4,122.2 172.5,110.7 181.6,105.3 190.7,101.3 199.8,101.3 208.9,89.2 218.0,89.2 227.1,89.2 236.2,79.8 245.3,79.8 254.4,79.8 263.5,75.5 272.6,74.9 281.7,74.9 290.8,74.4 299.9,74.4 309.0,73.5 318.1,71.8 327.2,69.8 336.3,69.2 345.4,69.2 354.6,69.2 363.7,69.2 372.8,69.2 381.9,69.2 391.0,69.2 400.1,69.2 409.2,69.2 418.3,69.2 427.4,78.1 436.5,78.1 445.6,78.1 454.7,78.1 463.8,78.1 472.9,74.6 482.0,66.9 491.1,36.0 500.2,36.0 509.3,39.1 518.4,39.1 527.5,39.1 536.6,39.1 545.7,39.1 554.8,39.4 563.9,39.4 573.0,39.4 582.1,39.7 591.2,39.7 600.3,39.7 609.4,39.7 618.5,39.7 627.6,39.7 636.7,39.7 645.8,39.7 654.9,39.7 664.0,39.7"/><circle cx="36.0" cy="122.2" r="3" fill="#4aa3ff"/><circle cx="45.1" cy="122.2" r="3" fill="#4aa3ff"/><circle cx="54.2" cy="122.2" r="3" fill="#4aa3ff"/><circle cx="63.3" cy="122.2" r="3" fill="#4aa3ff"/><circle cx="72.4" cy="122.2" r="3" fill="#4aa3ff"/><circle cx="81.5" cy="122.2" r="3" fill="#4aa3ff"/><circle cx="90.6" cy="122.2" r="3" fill="#4aa3ff"/><circle cx="99.7" cy="122.2" r="3" fill="#4aa3ff"/><circle cx="108.8" cy="122.2" r="3" fill="#4aa3ff"/><circle cx="117.9" cy="122.2" r="3" fill="#4aa3ff"/><circle cx="127.0" cy="122.2" r="3" fill="#4aa3ff"/><circle cx="136.1" cy="122.2" r="3" fill="#4aa3ff"/><circle cx="145.2" cy="122.2" r="3" fill="#4aa3ff"/><circle cx="154.3" cy="122.2" r="3" fill="#4aa3ff"/><circle cx="163.4" cy="122.2" r="3" fill="#4aa3ff"/><circle cx="172.5" cy="110.7" r="3" fill="#4aa3ff"/><circle cx="181.6" cy="105.3" r="3" fill="#4aa3ff"/><circle cx="190.7" cy="101.3" r="3" fill="#4aa3ff"/><circle cx="199.8" cy="101.3" r="3" fill="#4aa3ff"/><circle cx="208.9" cy="89.2" r="3" fill="#4aa3ff"/><circle cx="218.0" cy="89.2" r="3" fill="#4aa3ff"/><circle cx="227.1" cy="89.2" r="3" fill="#4aa3ff"/><circle cx="236.2" cy="79.8" r="3" fill="#4aa3ff"/><circle cx="245.3" cy="79.8" r="3" fill="#4aa3ff"/><circle cx="254.4" cy="79.8" r="3" fill="#4aa3ff"/><circle cx="263.5" cy="75.5" r="3" fill="#4aa3ff"/><circle cx="272.6" cy="74.9" r="3" fill="#4aa3ff"/><circle cx="281.7" cy="74.9" r="3" fill="#4aa3ff"/><circle cx="290.8" cy="74.4" r="3" fill="#4aa3ff"/><circle cx="299.9" cy="74.4" r="3" fill="#4aa3ff"/><circle cx="309.0" cy="73.5" r="3" fill="#4aa3ff"/><circle cx="318.1" cy="71.8" r="3" fill="#4aa3ff"/><circle cx="327.2" cy="69.8" r="3" fill="#4aa3ff"/><circle cx="336.3" cy="69.2" r="3" fill="#4aa3ff"/><circle cx="345.4" cy="69.2" r="3" fill="#4aa3ff"/><circle cx="354.6" cy="69.2" r="3" fill="#4aa3ff"/><circle cx="363.7" cy="69.2" r="3" fill="#4aa3ff"/><circle cx="372.8" cy="69.2" r="3" fill="#4aa3ff"/><circle cx="381.9" cy="69.2" r="3" fill="#4aa3ff"/><circle cx="391.0" cy="69.2" r="3" fill="#4aa3ff"/><circle cx="400.1" cy="69.2" r="3" fill="#4aa3ff"/><circle cx="409.2" cy="69.2" r="3" fill="#4aa3ff"/><circle cx="418.3" cy="69.2" r="3" fill="#4aa3ff"/><circle cx="427.4" cy="78.1" r="3" fill="#4aa3ff"/><circle cx="436.5" cy="78.1" r="3" fill="#4aa3ff"/><circle cx="445.6" cy="78.1" r="3" fill="#4aa3ff"/><circle cx="454.7" cy="78.1" r="3" fill="#4aa3ff"/><circle cx="463.8" cy="78.1" r="3" fill="#4aa3ff"/><circle cx="472.9" cy="74.6" r="3" fill="#4aa3ff"/><circle cx="482.0" cy="66.9" r="3" fill="#4aa3ff"/><circle cx="491.1" cy="36.0" r="3" fill="#4aa3ff"/><circle cx="500.2" cy="36.0" r="3" fill="#4aa3ff"/><circle cx="509.3" cy="39.1" r="3" fill="#4aa3ff"/><circle cx="518.4" cy="39.1" r="3" fill="#4aa3ff"/><circle cx="527.5" cy="39.1" r="3" fill="#4aa3ff"/><circle cx="536.6" cy="39.1" r="3" fill="#4aa3ff"/><circle cx="545.7" cy="39.1" r="3" fill="#4aa3ff"/><circle cx="554.8" cy="39.4" r="3" fill="#4aa3ff"/><circle cx="563.9" cy="39.4" r="3" fill="#4aa3ff"/><circle cx="573.0" cy="39.4" r="3" fill="#4aa3ff"/><circle cx="582.1" cy="39.7" r="3" fill="#4aa3ff"/><circle cx="591.2" cy="39.7" r="3" fill="#4aa3ff"/><circle cx="600.3" cy="39.7" r="3" fill="#4aa3ff"/><circle cx="609.4" cy="39.7" r="3" fill="#4aa3ff"/><circle cx="618.5" cy="39.7" r="3" fill="#4aa3ff"/><circle cx="627.6" cy="39.7" r="3" fill="#4aa3ff"/><circle cx="636.7" cy="39.7" r="3" fill="#4aa3ff"/><circle cx="645.8" cy="39.7" r="3" fill="#4aa3ff"/><circle cx="654.9" cy="39.7" r="3" fill="#4aa3ff"/><circle cx="664.0" cy="39.7" r="3" fill="#4aa3ff"/>
<text x="36" y="225" fill="#6b7280" font-size="11">2026-06-26</text>
<text x="664" y="225" fill="#6b7280" font-size="11" text-anchor="end">2026-07-04</text>
<text x="36" y="212" font-family="system-ui,sans-serif" font-size="11">
<tspan fill="#4aa3ff">&#9679; open FPs</tspan>  <tspan fill="#3fb950">&#9679; closed (Anthropic acting)</tspan>  <tspan fill="#8a5a5a">&#9679; harness withdrawn</tspan></text>
<text x="664" y="22" text-anchor="end" font-family="system-ui,sans-serif" font-size="12">
<tspan fill="#4aa3ff">open 553</tspan>  <tspan fill="#3fb950">closed 38</tspan>  <tspan fill="#8a5a5a">harness 209</tspan></text>
</svg>