<svg xmlns="http://www.w3.org/2000/svg" width="700" height="234" viewBox="0 0 700 234" role="img">
<rect width="700" height="234" rx="12" fill="#16181d"/>
<text x="36" y="22" fill="#e8eaed" font-family="system-ui,sans-serif" font-size="14" font-weight="700">Is Anthropic acting? cyber/aup false positives over time</text>
<line x1="36" y1="198.0" x2="664" y2="198.0" stroke="#2a2e37" stroke-width="1"/><text x="30" y="202.0" fill="#6b7280" font-size="11" text-anchor="end">0</text><line x1="36" y1="117.0" x2="664" y2="117.0" stroke="#2a2e37" stroke-width="1"/><text x="30" y="121.0" fill="#6b7280" font-size="11" text-anchor="end">283</text><line x1="36" y1="36.0" x2="664" y2="36.0" stroke="#2a2e37" stroke-width="1"/><text x="30" y="40.0" fill="#6b7280" font-size="11" text-anchor="end">566</text>

<polyline fill="none" stroke="#8a5a5a" stroke-width="2.5" stroke-linejoin="round" points="36.0,123.3 43.8,123.3 51.5,123.3 59.3,123.3 67.0,123.3 74.8,123.3 82.5,123.3 90.3,123.3 98.0,123.3 105.8,123.3 113.5,123.3 121.3,123.3 129.0,123.3 136.8,123.3 144.5,123.3 152.3,123.3 160.0,123.3 167.8,123.3 175.6,123.3 183.3,123.3 191.1,123.3 198.8,123.3 206.6,123.3 214.3,123.3 222.1,123.3 229.8,123.3 237.6,123.3 245.3,123.3 253.1,123.3 260.8,123.3 268.6,123.3 276.3,123.3 284.1,123.3 291.9,123.3 299.6,123.3 307.4,123.3 315.1,123.3 322.9,123.3 330.6,123.3 338.4,123.3 346.1,123.3 353.9,123.3 361.6,123.3 369.4,123.3 377.1,123.3 384.9,123.3 392.6,123.3 400.4,123.3 408.1,123.3 415.9,123.3 423.7,138.2 431.4,138.2 439.2,138.2 446.9,138.2 454.7,138.2 462.4,138.2 470.2,138.2 477.9,138.2 485.7,138.2 493.4,138.2 501.2,138.2 508.9,138.2 516.7,138.2 524.4,138.2 532.2,138.2 540.0,138.2 547.7,138.2 555.5,138.2 563.2,138.2 571.0,138.2 578.7,138.2 586.5,138.2 594.2,138.2 602.0,138.2 609.7,138.2 617.5,138.2 625.2,138.2 633.0,138.2 640.7,138.2 648.5,138.2 656.2,138.2 664.0,138.2"/><circle cx="36.0" cy="123.3" r="3" fill="#8a5a5a"/><circle cx="43.8" cy="123.3" r="3" fill="#8a5a5a"/><circle cx="51.5" cy="123.3" r="3" fill="#8a5a5a"/><circle cx="59.3" cy="123.3" r="3" fill="#8a5a5a"/><circle cx="67.0" cy="123.3" r="3" fill="#8a5a5a"/><circle cx="74.8" cy="123.3" r="3" fill="#8a5a5a"/><circle cx="82.5" cy="123.3" r="3" fill="#8a5a5a"/><circle cx="90.3" cy="123.3" r="3" fill="#8a5a5a"/><circle cx="98.0" cy="123.3" r="3" fill="#8a5a5a"/><circle cx="105.8" cy="123.3" r="3" fill="#8a5a5a"/><circle cx="113.5" cy="123.3" r="3" fill="#8a5a5a"/><circle cx="121.3" cy="123.3" r="3" fill="#8a5a5a"/><circle cx="129.0" cy="123.3" r="3" fill="#8a5a5a"/><circle cx="136.8" cy="123.3" r="3" fill="#8a5a5a"/><circle cx="144.5" cy="123.3" r="3" fill="#8a5a5a"/><circle cx="152.3" cy="123.3" r="3" fill="#8a5a5a"/><circle cx="160.0" cy="123.3" r="3" fill="#8a5a5a"/><circle cx="167.8" cy="123.3" r="3" fill="#8a5a5a"/><circle cx="175.6" cy="123.3" r="3" fill="#8a5a5a"/><circle cx="183.3" cy="123.3" r="3" fill="#8a5a5a"/><circle cx="191.1" cy="123.3" r="3" fill="#8a5a5a"/><circle cx="198.8" cy="123.3" r="3" fill="#8a5a5a"/><circle cx="206.6" cy="123.3" r="3" fill="#8a5a5a"/><circle cx="214.3" cy="123.3" r="3" fill="#8a5a5a"/><circle cx="222.1" cy="123.3" r="3" fill="#8a5a5a"/><circle cx="229.8" cy="123.3" r="3" fill="#8a5a5a"/><circle cx="237.6" cy="123.3" r="3" fill="#8a5a5a"/><circle cx="245.3" cy="123.3" r="3" fill="#8a5a5a"/><circle cx="253.1" cy="123.3" r="3" fill="#8a5a5a"/><circle cx="260.8" cy="123.3" r="3" fill="#8a5a5a"/><circle cx="268.6" cy="123.3" r="3" fill="#8a5a5a"/><circle cx="276.3" cy="123.3" r="3" fill="#8a5a5a"/><circle cx="284.1" cy="123.3" r="3" fill="#8a5a5a"/><circle cx="291.9" cy="123.3" r="3" fill="#8a5a5a"/><circle cx="299.6" cy="123.3" r="3" fill="#8a5a5a"/><circle cx="307.4" cy="123.3" r="3" fill="#8a5a5a"/><circle cx="315.1" cy="123.3" r="3" fill="#8a5a5a"/><circle cx="322.9" cy="123.3" r="3" fill="#8a5a5a"/><circle cx="330.6" cy="123.3" r="3" fill="#8a5a5a"/><circle cx="338.4" cy="123.3" r="3" fill="#8a5a5a"/><circle cx="346.1" cy="123.3" r="3" fill="#8a5a5a"/><circle cx="353.9" cy="123.3" r="3" fill="#8a5a5a"/><circle cx="361.6" cy="123.3" r="3" fill="#8a5a5a"/><circle cx="369.4" cy="123.3" r="3" fill="#8a5a5a"/><circle cx="377.1" cy="123.3" r="3" fill="#8a5a5a"/><circle cx="384.9" cy="123.3" r="3" fill="#8a5a5a"/><circle cx="392.6" cy="123.3" r="3" fill="#8a5a5a"/><circle cx="400.4" cy="123.3" r="3" fill="#8a5a5a"/><circle cx="408.1" cy="123.3" r="3" fill="#8a5a5a"/><circle cx="415.9" cy="123.3" r="3" fill="#8a5a5a"/><circle cx="423.7" cy="138.2" r="3" fill="#8a5a5a"/><circle cx="431.4" cy="138.2" r="3" fill="#8a5a5a"/><circle cx="439.2" cy="138.2" r="3" fill="#8a5a5a"/><circle cx="446.9" cy="138.2" r="3" fill="#8a5a5a"/><circle cx="454.7" cy="138.2" r="3" fill="#8a5a5a"/><circle cx="462.4" cy="138.2" r="3" fill="#8a5a5a"/><circle cx="470.2" cy="138.2" r="3" fill="#8a5a5a"/><circle cx="477.9" cy="138.2" r="3" fill="#8a5a5a"/><circle cx="485.7" cy="138.2" r="3" fill="#8a5a5a"/><circle cx="493.4" cy="138.2" r="3" fill="#8a5a5a"/><circle cx="501.2" cy="138.2" r="3" fill="#8a5a5a"/><circle cx="508.9" cy="138.2" r="3" fill="#8a5a5a"/><circle cx="516.7" cy="138.2" r="3" fill="#8a5a5a"/><circle cx="524.4" cy="138.2" r="3" fill="#8a5a5a"/><circle cx="532.2" cy="138.2" r="3" fill="#8a5a5a"/><circle cx="540.0" cy="138.2" r="3" fill="#8a5a5a"/><circle cx="547.7" cy="138.2" r="3" fill="#8a5a5a"/><circle cx="555.5" cy="138.2" r="3" fill="#8a5a5a"/><circle cx="563.2" cy="138.2" r="3" fill="#8a5a5a"/><circle cx="571.0" cy="138.2" r="3" fill="#8a5a5a"/><circle cx="578.7" cy="138.2" r="3" fill="#8a5a5a"/><circle cx="586.5" cy="138.2" r="3" fill="#8a5a5a"/><circle cx="594.2" cy="138.2" r="3" fill="#8a5a5a"/><circle cx="602.0" cy="138.2" r="3" fill="#8a5a5a"/><circle cx="609.7" cy="138.2" r="3" fill="#8a5a5a"/><circle cx="617.5" cy="138.2" r="3" fill="#8a5a5a"/><circle cx="625.2" cy="138.2" r="3" fill="#8a5a5a"/><circle cx="633.0" cy="138.2" r="3" fill="#8a5a5a"/><circle cx="640.7" cy="138.2" r="3" fill="#8a5a5a"/><circle cx="648.5" cy="138.2" r="3" fill="#8a5a5a"/><circle cx="656.2" cy="138.2" r="3" fill="#8a5a5a"/><circle cx="664.0" cy="138.2" r="3" fill="#8a5a5a"/>
<polyline fill="none" stroke="#3fb950" stroke-width="2.5" stroke-linejoin="round" points="36.0,198.0 43.8,198.0 51.5,198.0 59.3,198.0 67.0,198.0 74.8,198.0 82.5,198.0 90.3,198.0 98.0,198.0 105.8,198.0 113.5,198.0 121.3,198.0 129.0,198.0 136.8,198.0 144.5,198.0 152.3,198.0 160.0,198.0 167.8,198.0 175.6,198.0 183.3,198.0 191.1,198.0 198.8,198.0 206.6,198.0 214.3,198.0 222.1,198.0 229.8,198.0 237.6,198.0 245.3,198.0 253.1,198.0 260.8,198.0 268.6,198.0 276.3,198.0 284.1,198.0 291.9,198.0 299.6,198.0 307.4,198.0 315.1,198.0 322.9,198.0 330.6,198.0 338.4,198.0 346.1,198.0 353.9,198.0 361.6,198.0 369.4,189.1 377.1,189.1 384.9,189.1 392.6,189.1 400.4,189.1 408.1,189.1 415.9,189.1 423.7,190.8 431.4,190.8 439.2,187.7 446.9,187.7 454.7,187.7 462.4,187.7 470.2,187.7 477.9,187.4 485.7,187.4 493.4,187.4 501.2,187.1 508.9,187.1 516.7,187.1 524.4,187.1 532.2,187.1 540.0,187.1 547.7,187.1 555.5,187.1 563.2,187.1 571.0,187.1 578.7,187.1 586.5,187.1 594.2,187.1 602.0,187.1 609.7,187.1 617.5,187.1 625.2,187.1 633.0,187.1 640.7,187.1 648.5,187.1 656.2,187.1 664.0,185.7"/><circle cx="36.0" cy="198.0" r="3" fill="#3fb950"/><circle cx="43.8" cy="198.0" r="3" fill="#3fb950"/><circle cx="51.5" cy="198.0" r="3" fill="#3fb950"/><circle cx="59.3" cy="198.0" r="3" fill="#3fb950"/><circle cx="67.0" cy="198.0" r="3" fill="#3fb950"/><circle cx="74.8" cy="198.0" r="3" fill="#3fb950"/><circle cx="82.5" cy="198.0" r="3" fill="#3fb950"/><circle cx="90.3" cy="198.0" r="3" fill="#3fb950"/><circle cx="98.0" cy="198.0" r="3" fill="#3fb950"/><circle cx="105.8" cy="198.0" r="3" fill="#3fb950"/><circle cx="113.5" cy="198.0" r="3" fill="#3fb950"/><circle cx="121.3" cy="198.0" r="3" fill="#3fb950"/><circle cx="129.0" cy="198.0" r="3" fill="#3fb950"/><circle cx="136.8" cy="198.0" r="3" fill="#3fb950"/><circle cx="144.5" cy="198.0" r="3" fill="#3fb950"/><circle cx="152.3" cy="198.0" r="3" fill="#3fb950"/><circle cx="160.0" cy="198.0" r="3" fill="#3fb950"/><circle cx="167.8" cy="198.0" r="3" fill="#3fb950"/><circle cx="175.6" cy="198.0" r="3" fill="#3fb950"/><circle cx="183.3" cy="198.0" r="3" fill="#3fb950"/><circle cx="191.1" cy="198.0" r="3" fill="#3fb950"/><circle cx="198.8" cy="198.0" r="3" fill="#3fb950"/><circle cx="206.6" cy="198.0" r="3" fill="#3fb950"/><circle cx="214.3" cy="198.0" r="3" fill="#3fb950"/><circle cx="222.1" cy="198.0" r="3" fill="#3fb950"/><circle cx="229.8" cy="198.0" r="3" fill="#3fb950"/><circle cx="237.6" cy="198.0" r="3" fill="#3fb950"/><circle cx="245.3" cy="198.0" r="3" fill="#3fb950"/><circle cx="253.1" cy="198.0" r="3" fill="#3fb950"/><circle cx="260.8" cy="198.0" r="3" fill="#3fb950"/><circle cx="268.6" cy="198.0" r="3" fill="#3fb950"/><circle cx="276.3" cy="198.0" r="3" fill="#3fb950"/><circle cx="284.1" cy="198.0" r="3" fill="#3fb950"/><circle cx="291.9" cy="198.0" r="3" fill="#3fb950"/><circle cx="299.6" cy="198.0" r="3" fill="#3fb950"/><circle cx="307.4" cy="198.0" r="3" fill="#3fb950"/><circle cx="315.1" cy="198.0" r="3" fill="#3fb950"/><circle cx="322.9" cy="198.0" r="3" fill="#3fb950"/><circle cx="330.6" cy="198.0" r="3" fill="#3fb950"/><circle cx="338.4" cy="198.0" r="3" fill="#3fb950"/><circle cx="346.1" cy="198.0" r="3" fill="#3fb950"/><circle cx="353.9" cy="198.0" r="3" fill="#3fb950"/><circle cx="361.6" cy="198.0" r="3" fill="#3fb950"/><circle cx="369.4" cy="189.1" r="3" fill="#3fb950"/><circle cx="377.1" cy="189.1" r="3" fill="#3fb950"/><circle cx="384.9" cy="189.1" r="3" fill="#3fb950"/><circle cx="392.6" cy="189.1" r="3" fill="#3fb950"/><circle cx="400.4" cy="189.1" r="3" fill="#3fb950"/><circle cx="408.1" cy="189.1" r="3" fill="#3fb950"/><circle cx="415.9" cy="189.1" r="3" fill="#3fb950"/><circle cx="423.7" cy="190.8" r="3" fill="#3fb950"/><circle cx="431.4" cy="190.8" r="3" fill="#3fb950"/><circle cx="439.2" cy="187.7" r="3" fill="#3fb950"/><circle cx="446.9" cy="187.7" r="3" fill="#3fb950"/><circle cx="454.7" cy="187.7" r="3" fill="#3fb950"/><circle cx="462.4" cy="187.7" r="3" fill="#3fb950"/><circle cx="470.2" cy="187.7" r="3" fill="#3fb950"/><circle cx="477.9" cy="187.4" r="3" fill="#3fb950"/><circle cx="485.7" cy="187.4" r="3" fill="#3fb950"/><circle cx="493.4" cy="187.4" r="3" fill="#3fb950"/><circle cx="501.2" cy="187.1" r="3" fill="#3fb950"/><circle cx="508.9" cy="187.1" r="3" fill="#3fb950"/><circle cx="516.7" cy="187.1" r="3" fill="#3fb950"/><circle cx="524.4" cy="187.1" r="3" fill="#3fb950"/><circle cx="532.2" cy="187.1" r="3" fill="#3fb950"/><circle cx="540.0" cy="187.1" r="3" fill="#3fb950"/><circle cx="547.7" cy="187.1" r="3" fill="#3fb950"/><circle cx="555.5" cy="187.1" r="3" fill="#3fb950"/><circle cx="563.2" cy="187.1" r="3" fill="#3fb950"/><circle cx="571.0" cy="187.1" r="3" fill="#3fb950"/><circle cx="578.7" cy="187.1" r="3" fill="#3fb950"/><circle cx="586.5" cy="187.1" r="3" fill="#3fb950"/><circle cx="594.2" cy="187.1" r="3" fill="#3fb950"/><circle cx="602.0" cy="187.1" r="3" fill="#3fb950"/><circle cx="609.7" cy="187.1" r="3" fill="#3fb950"/><circle cx="617.5" cy="187.1" r="3" fill="#3fb950"/><circle cx="625.2" cy="187.1" r="3" fill="#3fb950"/><circle cx="633.0" cy="187.1" r="3" fill="#3fb950"/><circle cx="640.7" cy="187.1" r="3" fill="#3fb950"/><circle cx="648.5" cy="187.1" r="3" fill="#3fb950"/><circle cx="656.2" cy="187.1" r="3" fill="#3fb950"/><circle cx="664.0" cy="185.7" r="3" fill="#3fb950"/>
<polyline fill="none" stroke="#4aa3ff" stroke-width="2.5" stroke-linejoin="round" points="36.0,122.2 43.8,122.2 51.5,122.2 59.3,122.2 67.0,122.2 74.8,122.2 82.5,122.2 90.3,122.2 98.0,122.2 105.8,122.2 113.5,122.2 121.3,122.2 129.0,122.2 136.8,122.2 144.5,122.2 152.3,110.7 160.0,105.3 167.8,101.3 175.6,101.3 183.3,89.2 191.1,89.2 198.8,89.2 206.6,79.8 214.3,79.8 222.1,79.8 229.8,75.5 237.6,74.9 245.3,74.9 253.1,74.4 260.8,74.4 268.6,73.5 276.3,71.8 284.1,69.8 291.9,69.2 299.6,69.2 307.4,69.2 315.1,69.2 322.9,69.2 330.6,69.2 338.4,69.2 346.1,69.2 353.9,69.2 361.6,69.2 369.4,78.1 377.1,78.1 384.9,78.1 392.6,78.1 400.4,78.1 408.1,74.6 415.9,66.9 423.7,36.0 431.4,36.0 439.2,39.1 446.9,39.1 454.7,39.1 462.4,39.1 470.2,39.1 477.9,39.4 485.7,39.4 493.4,39.4 501.2,39.7 508.9,39.7 516.7,39.7 524.4,39.7 532.2,39.7 540.0,39.7 547.7,39.7 555.5,39.7 563.2,39.7 571.0,39.7 578.7,39.7 586.5,39.7 594.2,39.7 602.0,39.7 609.7,39.7 617.5,39.7 625.2,39.7 633.0,39.7 640.7,39.7 648.5,39.7 656.2,39.7 664.0,41.2"/><circle cx="36.0" cy="122.2" r="3" fill="#4aa3ff"/><circle cx="43.8" cy="122.2" r="3" fill="#4aa3ff"/><circle cx="51.5" cy="122.2" r="3" fill="#4aa3ff"/><circle cx="59.3" cy="122.2" r="3" fill="#4aa3ff"/><circle cx="67.0" cy="122.2" r="3" fill="#4aa3ff"/><circle cx="74.8" cy="122.2" r="3" fill="#4aa3ff"/><circle cx="82.5" cy="122.2" r="3" fill="#4aa3ff"/><circle cx="90.3" cy="122.2" r="3" fill="#4aa3ff"/><circle cx="98.0" cy="122.2" r="3" fill="#4aa3ff"/><circle cx="105.8" cy="122.2" r="3" fill="#4aa3ff"/><circle cx="113.5" cy="122.2" r="3" fill="#4aa3ff"/><circle cx="121.3" cy="122.2" r="3" fill="#4aa3ff"/><circle cx="129.0" cy="122.2" r="3" fill="#4aa3ff"/><circle cx="136.8" cy="122.2" r="3" fill="#4aa3ff"/><circle cx="144.5" cy="122.2" r="3" fill="#4aa3ff"/><circle cx="152.3" cy="110.7" r="3" fill="#4aa3ff"/><circle cx="160.0" cy="105.3" r="3" fill="#4aa3ff"/><circle cx="167.8" cy="101.3" r="3" fill="#4aa3ff"/><circle cx="175.6" cy="101.3" r="3" fill="#4aa3ff"/><circle cx="183.3" cy="89.2" r="3" fill="#4aa3ff"/><circle cx="191.1" cy="89.2" r="3" fill="#4aa3ff"/><circle cx="198.8" cy="89.2" r="3" fill="#4aa3ff"/><circle cx="206.6" cy="79.8" r="3" fill="#4aa3ff"/><circle cx="214.3" cy="79.8" r="3" fill="#4aa3ff"/><circle cx="222.1" cy="79.8" r="3" fill="#4aa3ff"/><circle cx="229.8" cy="75.5" r="3" fill="#4aa3ff"/><circle cx="237.6" cy="74.9" r="3" fill="#4aa3ff"/><circle cx="245.3" cy="74.9" r="3" fill="#4aa3ff"/><circle cx="253.1" cy="74.4" r="3" fill="#4aa3ff"/><circle cx="260.8" cy="74.4" r="3" fill="#4aa3ff"/><circle cx="268.6" cy="73.5" r="3" fill="#4aa3ff"/><circle cx="276.3" cy="71.8" r="3" fill="#4aa3ff"/><circle cx="284.1" cy="69.8" r="3" fill="#4aa3ff"/><circle cx="291.9" cy="69.2" r="3" fill="#4aa3ff"/><circle cx="299.6" cy="69.2" r="3" fill="#4aa3ff"/><circle cx="307.4" cy="69.2" r="3" fill="#4aa3ff"/><circle cx="315.1" cy="69.2" r="3" fill="#4aa3ff"/><circle cx="322.9" cy="69.2" r="3" fill="#4aa3ff"/><circle cx="330.6" cy="69.2" r="3" fill="#4aa3ff"/><circle cx="338.4" cy="69.2" r="3" fill="#4aa3ff"/><circle cx="346.1" cy="69.2" r="3" fill="#4aa3ff"/><circle cx="353.9" cy="69.2" r="3" fill="#4aa3ff"/><circle cx="361.6" cy="69.2" r="3" fill="#4aa3ff"/><circle cx="369.4" cy="78.1" r="3" fill="#4aa3ff"/><circle cx="377.1" cy="78.1" r="3" fill="#4aa3ff"/><circle cx="384.9" cy="78.1" r="3" fill="#4aa3ff"/><circle cx="392.6" cy="78.1" r="3" fill="#4aa3ff"/><circle cx="400.4" cy="78.1" r="3" fill="#4aa3ff"/><circle cx="408.1" cy="74.6" r="3" fill="#4aa3ff"/><circle cx="415.9" cy="66.9" r="3" fill="#4aa3ff"/><circle cx="423.7" cy="36.0" r="3" fill="#4aa3ff"/><circle cx="431.4" cy="36.0" r="3" fill="#4aa3ff"/><circle cx="439.2" cy="39.1" r="3" fill="#4aa3ff"/><circle cx="446.9" cy="39.1" r="3" fill="#4aa3ff"/><circle cx="454.7" cy="39.1" r="3" fill="#4aa3ff"/><circle cx="462.4" cy="39.1" r="3" fill="#4aa3ff"/><circle cx="470.2" cy="39.1" r="3" fill="#4aa3ff"/><circle cx="477.9" cy="39.4" r="3" fill="#4aa3ff"/><circle cx="485.7" cy="39.4" r="3" fill="#4aa3ff"/><circle cx="493.4" cy="39.4" r="3" fill="#4aa3ff"/><circle cx="501.2" cy="39.7" r="3" fill="#4aa3ff"/><circle cx="508.9" cy="39.7" r="3" fill="#4aa3ff"/><circle cx="516.7" cy="39.7" r="3" fill="#4aa3ff"/><circle cx="524.4" cy="39.7" r="3" fill="#4aa3ff"/><circle cx="532.2" cy="39.7" r="3" fill="#4aa3ff"/><circle cx="540.0" cy="39.7" r="3" fill="#4aa3ff"/><circle cx="547.7" cy="39.7" r="3" fill="#4aa3ff"/><circle cx="555.5" cy="39.7" r="3" fill="#4aa3ff"/><circle cx="563.2" cy="39.7" r="3" fill="#4aa3ff"/><circle cx="571.0" cy="39.7" r="3" fill="#4aa3ff"/><circle cx="578.7" cy="39.7" r="3" fill="#4aa3ff"/><circle cx="586.5" cy="39.7" r="3" fill="#4aa3ff"/><circle cx="594.2" cy="39.7" r="3" fill="#4aa3ff"/><circle cx="602.0" cy="39.7" r="3" fill="#4aa3ff"/><circle cx="609.7" cy="39.7" r="3" fill="#4aa3ff"/><circle cx="617.5" cy="39.7" r="3" fill="#4aa3ff"/><circle cx="625.2" cy="39.7" r="3" fill="#4aa3ff"/><circle cx="633.0" cy="39.7" r="3" fill="#4aa3ff"/><circle cx="640.7" cy="39.7" r="3" fill="#4aa3ff"/><circle cx="648.5" cy="39.7" r="3" fill="#4aa3ff"/><circle cx="656.2" cy="39.7" r="3" fill="#4aa3ff"/><circle cx="664.0" cy="41.2" r="3" fill="#4aa3ff"/>
<text x="36" y="225" fill="#6b7280" font-size="11">2026-06-26</text>
<text x="664" y="225" fill="#6b7280" font-size="11" text-anchor="end">2026-07-05</text>
<text x="36" y="212" font-family="system-ui,sans-serif" font-size="11">
<tspan fill="#4aa3ff">&#9679; open FPs</tspan>  <tspan fill="#3fb950">&#9679; closed (Anthropic acting)</tspan>  <tspan fill="#8a5a5a">&#9679; harness withdrawn</tspan></text>
<text x="664" y="22" text-anchor="end" font-family="system-ui,sans-serif" font-size="12">
<tspan fill="#4aa3ff">open 548</tspan>  <tspan fill="#3fb950">closed 43</tspan>  <tspan fill="#8a5a5a">harness 209</tspan></text>
</svg>