<svg xmlns="http://www.w3.org/2000/svg" width="700" height="234" viewBox="0 0 700 234" role="img">
<rect width="700" height="234" rx="12" fill="#16181d"/>
<text x="36" y="22" fill="#e8eaed" font-family="system-ui,sans-serif" font-size="14" font-weight="700">Is Anthropic acting? cyber/aup false positives over time</text>
<line x1="36" y1="198.0" x2="664" y2="198.0" stroke="#2a2e37" stroke-width="1"/><text x="30" y="202.0" fill="#6b7280" font-size="11" text-anchor="end">0</text><line x1="36" y1="117.0" x2="664" y2="117.0" stroke="#2a2e37" stroke-width="1"/><text x="30" y="121.0" fill="#6b7280" font-size="11" text-anchor="end">314</text><line x1="36" y1="36.0" x2="664" y2="36.0" stroke="#2a2e37" stroke-width="1"/><text x="30" y="40.0" fill="#6b7280" font-size="11" text-anchor="end">627</text>

<polyline fill="none" stroke="#8a5a5a" stroke-width="2.5" stroke-linejoin="round" points="36.0,130.6 43.3,130.6 50.6,130.6 57.9,130.6 65.2,130.6 72.5,130.6 79.8,130.6 87.1,130.6 94.4,130.6 101.7,130.6 109.0,130.6 116.3,130.6 123.6,130.6 130.9,130.6 138.2,130.6 145.5,130.6 152.8,130.6 160.1,130.6 167.4,130.6 174.7,130.6 182.0,130.6 189.3,130.6 196.7,130.6 204.0,130.6 211.3,130.6 218.6,130.6 225.9,130.6 233.2,130.6 240.5,130.6 247.8,130.6 255.1,130.6 262.4,130.6 269.7,130.6 277.0,130.6 284.3,130.6 291.6,130.6 298.9,130.6 306.2,130.6 313.5,130.6 320.8,130.6 328.1,130.6 335.4,130.6 342.7,130.6 350.0,130.6 357.3,130.6 364.6,130.6 371.9,130.6 379.2,130.6 386.5,130.6 393.8,130.6 401.1,144.0 408.4,144.0 415.7,144.0 423.0,144.0 430.3,144.0 437.6,144.0 444.9,144.0 452.2,144.0 459.5,144.0 466.8,144.0 474.1,144.0 481.4,144.0 488.7,144.0 496.0,144.0 503.3,144.0 510.7,144.0 518.0,144.0 525.3,144.0 532.6,144.0 539.9,144.0 547.2,144.0 554.5,144.0 561.8,144.0 569.1,144.0 576.4,144.0 583.7,144.0 591.0,144.0 598.3,144.0 605.6,144.0 612.9,144.0 620.2,144.0 627.5,144.0 634.8,144.0 642.1,144.0 649.4,159.2 656.7,159.2 664.0,162.6"/><circle cx="36.0" cy="130.6" r="3" fill="#8a5a5a"/><circle cx="43.3" cy="130.6" r="3" fill="#8a5a5a"/><circle cx="50.6" cy="130.6" r="3" fill="#8a5a5a"/><circle cx="57.9" cy="130.6" r="3" fill="#8a5a5a"/><circle cx="65.2" cy="130.6" r="3" fill="#8a5a5a"/><circle cx="72.5" cy="130.6" r="3" fill="#8a5a5a"/><circle cx="79.8" cy="130.6" r="3" fill="#8a5a5a"/><circle cx="87.1" cy="130.6" r="3" fill="#8a5a5a"/><circle cx="94.4" cy="130.6" r="3" fill="#8a5a5a"/><circle cx="101.7" cy="130.6" r="3" fill="#8a5a5a"/><circle cx="109.0" cy="130.6" r="3" fill="#8a5a5a"/><circle cx="116.3" cy="130.6" r="3" fill="#8a5a5a"/><circle cx="123.6" cy="130.6" r="3" fill="#8a5a5a"/><circle cx="130.9" cy="130.6" r="3" fill="#8a5a5a"/><circle cx="138.2" cy="130.6" r="3" fill="#8a5a5a"/><circle cx="145.5" cy="130.6" r="3" fill="#8a5a5a"/><circle cx="152.8" cy="130.6" r="3" fill="#8a5a5a"/><circle cx="160.1" cy="130.6" r="3" fill="#8a5a5a"/><circle cx="167.4" cy="130.6" r="3" fill="#8a5a5a"/><circle cx="174.7" cy="130.6" r="3" fill="#8a5a5a"/><circle cx="182.0" cy="130.6" r="3" fill="#8a5a5a"/><circle cx="189.3" cy="130.6" r="3" fill="#8a5a5a"/><circle cx="196.7" cy="130.6" r="3" fill="#8a5a5a"/><circle cx="204.0" cy="130.6" r="3" fill="#8a5a5a"/><circle cx="211.3" cy="130.6" r="3" fill="#8a5a5a"/><circle cx="218.6" cy="130.6" r="3" fill="#8a5a5a"/><circle cx="225.9" cy="130.6" r="3" fill="#8a5a5a"/><circle cx="233.2" cy="130.6" r="3" fill="#8a5a5a"/><circle cx="240.5" cy="130.6" r="3" fill="#8a5a5a"/><circle cx="247.8" cy="130.6" r="3" fill="#8a5a5a"/><circle cx="255.1" cy="130.6" r="3" fill="#8a5a5a"/><circle cx="262.4" cy="130.6" r="3" fill="#8a5a5a"/><circle cx="269.7" cy="130.6" r="3" fill="#8a5a5a"/><circle cx="277.0" cy="130.6" r="3" fill="#8a5a5a"/><circle cx="284.3" cy="130.6" r="3" fill="#8a5a5a"/><circle cx="291.6" cy="130.6" r="3" fill="#8a5a5a"/><circle cx="298.9" cy="130.6" r="3" fill="#8a5a5a"/><circle cx="306.2" cy="130.6" r="3" fill="#8a5a5a"/><circle cx="313.5" cy="130.6" r="3" fill="#8a5a5a"/><circle cx="320.8" cy="130.6" r="3" fill="#8a5a5a"/><circle cx="328.1" cy="130.6" r="3" fill="#8a5a5a"/><circle cx="335.4" cy="130.6" r="3" fill="#8a5a5a"/><circle cx="342.7" cy="130.6" r="3" fill="#8a5a5a"/><circle cx="350.0" cy="130.6" r="3" fill="#8a5a5a"/><circle cx="357.3" cy="130.6" r="3" fill="#8a5a5a"/><circle cx="364.6" cy="130.6" r="3" fill="#8a5a5a"/><circle cx="371.9" cy="130.6" r="3" fill="#8a5a5a"/><circle cx="379.2" cy="130.6" r="3" fill="#8a5a5a"/><circle cx="386.5" cy="130.6" r="3" fill="#8a5a5a"/><circle cx="393.8" cy="130.6" r="3" fill="#8a5a5a"/><circle cx="401.1" cy="144.0" r="3" fill="#8a5a5a"/><circle cx="408.4" cy="144.0" r="3" fill="#8a5a5a"/><circle cx="415.7" cy="144.0" r="3" fill="#8a5a5a"/><circle cx="423.0" cy="144.0" r="3" fill="#8a5a5a"/><circle cx="430.3" cy="144.0" r="3" fill="#8a5a5a"/><circle cx="437.6" cy="144.0" r="3" fill="#8a5a5a"/><circle cx="444.9" cy="144.0" r="3" fill="#8a5a5a"/><circle cx="452.2" cy="144.0" r="3" fill="#8a5a5a"/><circle cx="459.5" cy="144.0" r="3" fill="#8a5a5a"/><circle cx="466.8" cy="144.0" r="3" fill="#8a5a5a"/><circle cx="474.1" cy="144.0" r="3" fill="#8a5a5a"/><circle cx="481.4" cy="144.0" r="3" fill="#8a5a5a"/><circle cx="488.7" cy="144.0" r="3" fill="#8a5a5a"/><circle cx="496.0" cy="144.0" r="3" fill="#8a5a5a"/><circle cx="503.3" cy="144.0" r="3" fill="#8a5a5a"/><circle cx="510.7" cy="144.0" r="3" fill="#8a5a5a"/><circle cx="518.0" cy="144.0" r="3" fill="#8a5a5a"/><circle cx="525.3" cy="144.0" r="3" fill="#8a5a5a"/><circle cx="532.6" cy="144.0" r="3" fill="#8a5a5a"/><circle cx="539.9" cy="144.0" r="3" fill="#8a5a5a"/><circle cx="547.2" cy="144.0" r="3" fill="#8a5a5a"/><circle cx="554.5" cy="144.0" r="3" fill="#8a5a5a"/><circle cx="561.8" cy="144.0" r="3" fill="#8a5a5a"/><circle cx="569.1" cy="144.0" r="3" fill="#8a5a5a"/><circle cx="576.4" cy="144.0" r="3" fill="#8a5a5a"/><circle cx="583.7" cy="144.0" r="3" fill="#8a5a5a"/><circle cx="591.0" cy="144.0" r="3" fill="#8a5a5a"/><circle cx="598.3" cy="144.0" r="3" fill="#8a5a5a"/><circle cx="605.6" cy="144.0" r="3" fill="#8a5a5a"/><circle cx="612.9" cy="144.0" r="3" fill="#8a5a5a"/><circle cx="620.2" cy="144.0" r="3" fill="#8a5a5a"/><circle cx="627.5" cy="144.0" r="3" fill="#8a5a5a"/><circle cx="634.8" cy="144.0" r="3" fill="#8a5a5a"/><circle cx="642.1" cy="144.0" r="3" fill="#8a5a5a"/><circle cx="649.4" cy="159.2" r="3" fill="#8a5a5a"/><circle cx="656.7" cy="159.2" r="3" fill="#8a5a5a"/><circle cx="664.0" cy="162.6" r="3" fill="#8a5a5a"/>
<polyline fill="none" stroke="#3fb950" stroke-width="2.5" stroke-linejoin="round" points="36.0,198.0 43.3,198.0 50.6,198.0 57.9,198.0 65.2,198.0 72.5,198.0 79.8,198.0 87.1,198.0 94.4,198.0 101.7,198.0 109.0,198.0 116.3,198.0 123.6,198.0 130.9,198.0 138.2,198.0 145.5,198.0 152.8,198.0 160.1,198.0 167.4,198.0 174.7,198.0 182.0,198.0 189.3,198.0 196.7,198.0 204.0,198.0 211.3,198.0 218.6,198.0 225.9,198.0 233.2,198.0 240.5,198.0 247.8,198.0 255.1,198.0 262.4,198.0 269.7,198.0 277.0,198.0 284.3,198.0 291.6,198.0 298.9,198.0 306.2,198.0 313.5,198.0 320.8,198.0 328.1,198.0 335.4,198.0 342.7,198.0 350.0,190.0 357.3,190.0 364.6,190.0 371.9,190.0 379.2,190.0 386.5,190.0 393.8,190.0 401.1,191.5 408.4,191.5 415.7,188.7 423.0,188.7 430.3,188.7 437.6,188.7 444.9,188.7 452.2,188.4 459.5,188.4 466.8,188.4 474.1,188.2 481.4,188.2 488.7,188.2 496.0,188.2 503.3,188.2 510.7,188.2 518.0,188.2 525.3,188.2 532.6,188.2 539.9,188.2 547.2,188.2 554.5,188.2 561.8,188.2 569.1,188.2 576.4,188.2 583.7,188.2 591.0,188.2 598.3,188.2 605.6,188.2 612.9,188.2 620.2,188.2 627.5,186.9 634.8,186.9 642.1,186.9 649.4,188.7 656.7,188.7 664.0,188.7"/><circle cx="36.0" cy="198.0" r="3" fill="#3fb950"/><circle cx="43.3" cy="198.0" r="3" fill="#3fb950"/><circle cx="50.6" cy="198.0" r="3" fill="#3fb950"/><circle cx="57.9" cy="198.0" r="3" fill="#3fb950"/><circle cx="65.2" cy="198.0" r="3" fill="#3fb950"/><circle cx="72.5" cy="198.0" r="3" fill="#3fb950"/><circle cx="79.8" cy="198.0" r="3" fill="#3fb950"/><circle cx="87.1" cy="198.0" r="3" fill="#3fb950"/><circle cx="94.4" cy="198.0" r="3" fill="#3fb950"/><circle cx="101.7" cy="198.0" r="3" fill="#3fb950"/><circle cx="109.0" cy="198.0" r="3" fill="#3fb950"/><circle cx="116.3" cy="198.0" r="3" fill="#3fb950"/><circle cx="123.6" cy="198.0" r="3" fill="#3fb950"/><circle cx="130.9" cy="198.0" r="3" fill="#3fb950"/><circle cx="138.2" cy="198.0" r="3" fill="#3fb950"/><circle cx="145.5" cy="198.0" r="3" fill="#3fb950"/><circle cx="152.8" cy="198.0" r="3" fill="#3fb950"/><circle cx="160.1" cy="198.0" r="3" fill="#3fb950"/><circle cx="167.4" cy="198.0" r="3" fill="#3fb950"/><circle cx="174.7" cy="198.0" r="3" fill="#3fb950"/><circle cx="182.0" cy="198.0" r="3" fill="#3fb950"/><circle cx="189.3" cy="198.0" r="3" fill="#3fb950"/><circle cx="196.7" cy="198.0" r="3" fill="#3fb950"/><circle cx="204.0" cy="198.0" r="3" fill="#3fb950"/><circle cx="211.3" cy="198.0" r="3" fill="#3fb950"/><circle cx="218.6" cy="198.0" r="3" fill="#3fb950"/><circle cx="225.9" cy="198.0" r="3" fill="#3fb950"/><circle cx="233.2" cy="198.0" r="3" fill="#3fb950"/><circle cx="240.5" cy="198.0" r="3" fill="#3fb950"/><circle cx="247.8" cy="198.0" r="3" fill="#3fb950"/><circle cx="255.1" cy="198.0" r="3" fill="#3fb950"/><circle cx="262.4" cy="198.0" r="3" fill="#3fb950"/><circle cx="269.7" cy="198.0" r="3" fill="#3fb950"/><circle cx="277.0" cy="198.0" r="3" fill="#3fb950"/><circle cx="284.3" cy="198.0" r="3" fill="#3fb950"/><circle cx="291.6" cy="198.0" r="3" fill="#3fb950"/><circle cx="298.9" cy="198.0" r="3" fill="#3fb950"/><circle cx="306.2" cy="198.0" r="3" fill="#3fb950"/><circle cx="313.5" cy="198.0" r="3" fill="#3fb950"/><circle cx="320.8" cy="198.0" r="3" fill="#3fb950"/><circle cx="328.1" cy="198.0" r="3" fill="#3fb950"/><circle cx="335.4" cy="198.0" r="3" fill="#3fb950"/><circle cx="342.7" cy="198.0" r="3" fill="#3fb950"/><circle cx="350.0" cy="190.0" r="3" fill="#3fb950"/><circle cx="357.3" cy="190.0" r="3" fill="#3fb950"/><circle cx="364.6" cy="190.0" r="3" fill="#3fb950"/><circle cx="371.9" cy="190.0" r="3" fill="#3fb950"/><circle cx="379.2" cy="190.0" r="3" fill="#3fb950"/><circle cx="386.5" cy="190.0" r="3" fill="#3fb950"/><circle cx="393.8" cy="190.0" r="3" fill="#3fb950"/><circle cx="401.1" cy="191.5" r="3" fill="#3fb950"/><circle cx="408.4" cy="191.5" r="3" fill="#3fb950"/><circle cx="415.7" cy="188.7" r="3" fill="#3fb950"/><circle cx="423.0" cy="188.7" r="3" fill="#3fb950"/><circle cx="430.3" cy="188.7" r="3" fill="#3fb950"/><circle cx="437.6" cy="188.7" r="3" fill="#3fb950"/><circle cx="444.9" cy="188.7" r="3" fill="#3fb950"/><circle cx="452.2" cy="188.4" r="3" fill="#3fb950"/><circle cx="459.5" cy="188.4" r="3" fill="#3fb950"/><circle cx="466.8" cy="188.4" r="3" fill="#3fb950"/><circle cx="474.1" cy="188.2" r="3" fill="#3fb950"/><circle cx="481.4" cy="188.2" r="3" fill="#3fb950"/><circle cx="488.7" cy="188.2" r="3" fill="#3fb950"/><circle cx="496.0" cy="188.2" r="3" fill="#3fb950"/><circle cx="503.3" cy="188.2" r="3" fill="#3fb950"/><circle cx="510.7" cy="188.2" r="3" fill="#3fb950"/><circle cx="518.0" cy="188.2" r="3" fill="#3fb950"/><circle cx="525.3" cy="188.2" r="3" fill="#3fb950"/><circle cx="532.6" cy="188.2" r="3" fill="#3fb950"/><circle cx="539.9" cy="188.2" r="3" fill="#3fb950"/><circle cx="547.2" cy="188.2" r="3" fill="#3fb950"/><circle cx="554.5" cy="188.2" r="3" fill="#3fb950"/><circle cx="561.8" cy="188.2" r="3" fill="#3fb950"/><circle cx="569.1" cy="188.2" r="3" fill="#3fb950"/><circle cx="576.4" cy="188.2" r="3" fill="#3fb950"/><circle cx="583.7" cy="188.2" r="3" fill="#3fb950"/><circle cx="591.0" cy="188.2" r="3" fill="#3fb950"/><circle cx="598.3" cy="188.2" r="3" fill="#3fb950"/><circle cx="605.6" cy="188.2" r="3" fill="#3fb950"/><circle cx="612.9" cy="188.2" r="3" fill="#3fb950"/><circle cx="620.2" cy="188.2" r="3" fill="#3fb950"/><circle cx="627.5" cy="186.9" r="3" fill="#3fb950"/><circle cx="634.8" cy="186.9" r="3" fill="#3fb950"/><circle cx="642.1" cy="186.9" r="3" fill="#3fb950"/><circle cx="649.4" cy="188.7" r="3" fill="#3fb950"/><circle cx="656.7" cy="188.7" r="3" fill="#3fb950"/><circle cx="664.0" cy="188.7" r="3" fill="#3fb950"/>
<polyline fill="none" stroke="#4aa3ff" stroke-width="2.5" stroke-linejoin="round" points="36.0,129.5 43.3,129.5 50.6,129.5 57.9,129.5 65.2,129.5 72.5,129.5 79.8,129.5 87.1,129.5 94.4,129.5 101.7,129.5 109.0,129.5 116.3,129.5 123.6,129.5 130.9,129.5 138.2,129.5 145.5,119.2 152.8,114.3 160.1,110.7 167.4,110.7 174.7,99.8 182.0,99.8 189.3,99.8 196.7,91.3 204.0,91.3 211.3,91.3 218.6,87.4 225.9,86.9 233.2,86.9 240.5,86.4 247.8,86.4 255.1,85.6 262.4,84.1 269.7,82.2 277.0,81.7 284.3,81.7 291.6,81.7 298.9,81.7 306.2,81.7 313.5,81.7 320.8,81.7 328.1,81.7 335.4,81.7 342.7,81.7 350.0,89.7 357.3,89.7 364.6,89.7 371.9,89.7 379.2,89.7 386.5,86.6 393.8,79.7 401.1,51.8 408.4,51.8 415.7,54.6 423.0,54.6 430.3,54.6 437.6,54.6 444.9,54.6 452.2,54.9 459.5,54.9 466.8,54.9 474.1,55.1 481.4,55.1 488.7,55.1 496.0,55.1 503.3,55.1 510.7,55.1 518.0,55.1 525.3,55.1 532.6,55.1 539.9,55.1 547.2,55.1 554.5,55.1 561.8,55.1 569.1,55.1 576.4,55.1 583.7,55.1 591.0,55.1 598.3,55.1 605.6,55.1 612.9,55.1 620.2,55.1 627.5,56.4 634.8,56.4 642.1,56.4 649.4,39.4 656.7,39.4 664.0,36.0"/><circle cx="36.0" cy="129.5" r="3" fill="#4aa3ff"/><circle cx="43.3" cy="129.5" r="3" fill="#4aa3ff"/><circle cx="50.6" cy="129.5" r="3" fill="#4aa3ff"/><circle cx="57.9" cy="129.5" r="3" fill="#4aa3ff"/><circle cx="65.2" cy="129.5" r="3" fill="#4aa3ff"/><circle cx="72.5" cy="129.5" r="3" fill="#4aa3ff"/><circle cx="79.8" cy="129.5" r="3" fill="#4aa3ff"/><circle cx="87.1" cy="129.5" r="3" fill="#4aa3ff"/><circle cx="94.4" cy="129.5" r="3" fill="#4aa3ff"/><circle cx="101.7" cy="129.5" r="3" fill="#4aa3ff"/><circle cx="109.0" cy="129.5" r="3" fill="#4aa3ff"/><circle cx="116.3" cy="129.5" r="3" fill="#4aa3ff"/><circle cx="123.6" cy="129.5" r="3" fill="#4aa3ff"/><circle cx="130.9" cy="129.5" r="3" fill="#4aa3ff"/><circle cx="138.2" cy="129.5" r="3" fill="#4aa3ff"/><circle cx="145.5" cy="119.2" r="3" fill="#4aa3ff"/><circle cx="152.8" cy="114.3" r="3" fill="#4aa3ff"/><circle cx="160.1" cy="110.7" r="3" fill="#4aa3ff"/><circle cx="167.4" cy="110.7" r="3" fill="#4aa3ff"/><circle cx="174.7" cy="99.8" r="3" fill="#4aa3ff"/><circle cx="182.0" cy="99.8" r="3" fill="#4aa3ff"/><circle cx="189.3" cy="99.8" r="3" fill="#4aa3ff"/><circle cx="196.7" cy="91.3" r="3" fill="#4aa3ff"/><circle cx="204.0" cy="91.3" r="3" fill="#4aa3ff"/><circle cx="211.3" cy="91.3" r="3" fill="#4aa3ff"/><circle cx="218.6" cy="87.4" r="3" fill="#4aa3ff"/><circle cx="225.9" cy="86.9" r="3" fill="#4aa3ff"/><circle cx="233.2" cy="86.9" r="3" fill="#4aa3ff"/><circle cx="240.5" cy="86.4" r="3" fill="#4aa3ff"/><circle cx="247.8" cy="86.4" r="3" fill="#4aa3ff"/><circle cx="255.1" cy="85.6" r="3" fill="#4aa3ff"/><circle cx="262.4" cy="84.1" r="3" fill="#4aa3ff"/><circle cx="269.7" cy="82.2" r="3" fill="#4aa3ff"/><circle cx="277.0" cy="81.7" r="3" fill="#4aa3ff"/><circle cx="284.3" cy="81.7" r="3" fill="#4aa3ff"/><circle cx="291.6" cy="81.7" r="3" fill="#4aa3ff"/><circle cx="298.9" cy="81.7" r="3" fill="#4aa3ff"/><circle cx="306.2" cy="81.7" r="3" fill="#4aa3ff"/><circle cx="313.5" cy="81.7" r="3" fill="#4aa3ff"/><circle cx="320.8" cy="81.7" r="3" fill="#4aa3ff"/><circle cx="328.1" cy="81.7" r="3" fill="#4aa3ff"/><circle cx="335.4" cy="81.7" r="3" fill="#4aa3ff"/><circle cx="342.7" cy="81.7" r="3" fill="#4aa3ff"/><circle cx="350.0" cy="89.7" r="3" fill="#4aa3ff"/><circle cx="357.3" cy="89.7" r="3" fill="#4aa3ff"/><circle cx="364.6" cy="89.7" r="3" fill="#4aa3ff"/><circle cx="371.9" cy="89.7" r="3" fill="#4aa3ff"/><circle cx="379.2" cy="89.7" r="3" fill="#4aa3ff"/><circle cx="386.5" cy="86.6" r="3" fill="#4aa3ff"/><circle cx="393.8" cy="79.7" r="3" fill="#4aa3ff"/><circle cx="401.1" cy="51.8" r="3" fill="#4aa3ff"/><circle cx="408.4" cy="51.8" r="3" fill="#4aa3ff"/><circle cx="415.7" cy="54.6" r="3" fill="#4aa3ff"/><circle cx="423.0" cy="54.6" r="3" fill="#4aa3ff"/><circle cx="430.3" cy="54.6" r="3" fill="#4aa3ff"/><circle cx="437.6" cy="54.6" r="3" fill="#4aa3ff"/><circle cx="444.9" cy="54.6" r="3" fill="#4aa3ff"/><circle cx="452.2" cy="54.9" r="3" fill="#4aa3ff"/><circle cx="459.5" cy="54.9" r="3" fill="#4aa3ff"/><circle cx="466.8" cy="54.9" r="3" fill="#4aa3ff"/><circle cx="474.1" cy="55.1" r="3" fill="#4aa3ff"/><circle cx="481.4" cy="55.1" r="3" fill="#4aa3ff"/><circle cx="488.7" cy="55.1" r="3" fill="#4aa3ff"/><circle cx="496.0" cy="55.1" r="3" fill="#4aa3ff"/><circle cx="503.3" cy="55.1" r="3" fill="#4aa3ff"/><circle cx="510.7" cy="55.1" r="3" fill="#4aa3ff"/><circle cx="518.0" cy="55.1" r="3" fill="#4aa3ff"/><circle cx="525.3" cy="55.1" r="3" fill="#4aa3ff"/><circle cx="532.6" cy="55.1" r="3" fill="#4aa3ff"/><circle cx="539.9" cy="55.1" r="3" fill="#4aa3ff"/><circle cx="547.2" cy="55.1" r="3" fill="#4aa3ff"/><circle cx="554.5" cy="55.1" r="3" fill="#4aa3ff"/><circle cx="561.8" cy="55.1" r="3" fill="#4aa3ff"/><circle cx="569.1" cy="55.1" r="3" fill="#4aa3ff"/><circle cx="576.4" cy="55.1" r="3" fill="#4aa3ff"/><circle cx="583.7" cy="55.1" r="3" fill="#4aa3ff"/><circle cx="591.0" cy="55.1" r="3" fill="#4aa3ff"/><circle cx="598.3" cy="55.1" r="3" fill="#4aa3ff"/><circle cx="605.6" cy="55.1" r="3" fill="#4aa3ff"/><circle cx="612.9" cy="55.1" r="3" fill="#4aa3ff"/><circle cx="620.2" cy="55.1" r="3" fill="#4aa3ff"/><circle cx="627.5" cy="56.4" r="3" fill="#4aa3ff"/><circle cx="634.8" cy="56.4" r="3" fill="#4aa3ff"/><circle cx="642.1" cy="56.4" r="3" fill="#4aa3ff"/><circle cx="649.4" cy="39.4" r="3" fill="#4aa3ff"/><circle cx="656.7" cy="39.4" r="3" fill="#4aa3ff"/><circle cx="664.0" cy="36.0" r="3" fill="#4aa3ff"/>
<text x="36" y="225" fill="#6b7280" font-size="11">2026-06-26</text>
<text x="664" y="225" fill="#6b7280" font-size="11" text-anchor="end">2026-07-05</text>
<text x="36" y="212" font-family="system-ui,sans-serif" font-size="11">
<tspan fill="#4aa3ff">&#9679; open FPs</tspan>  <tspan fill="#3fb950">&#9679; closed (Anthropic acting)</tspan>  <tspan fill="#8a5a5a">&#9679; harness withdrawn</tspan></text>
<text x="664" y="22" text-anchor="end" font-family="system-ui,sans-serif" font-size="12">
<tspan fill="#4aa3ff">open 627</tspan>  <tspan fill="#3fb950">closed 36</tspan>  <tspan fill="#8a5a5a">harness 137</tspan></text>
</svg>