<svg xmlns="http://www.w3.org/2000/svg" width="700" height="234" viewBox="0 0 700 234" role="img">
<rect width="700" height="234" rx="12" fill="#16181d"/>
<text x="36" y="22" fill="#e8eaed" font-family="system-ui,sans-serif" font-size="14" font-weight="700">Is Anthropic acting? cyber/aup false positives over time</text>
<line x1="36" y1="198.0" x2="664" y2="198.0" stroke="#2a2e37" stroke-width="1"/><text x="30" y="202.0" fill="#6b7280" font-size="11" text-anchor="end">0</text><line x1="36" y1="117.0" x2="664" y2="117.0" stroke="#2a2e37" stroke-width="1"/><text x="30" y="121.0" fill="#6b7280" font-size="11" text-anchor="end">400</text><line x1="36" y1="36.0" x2="664" y2="36.0" stroke="#2a2e37" stroke-width="1"/><text x="30" y="40.0" fill="#6b7280" font-size="11" text-anchor="end">800</text>

<polyline fill="none" stroke="#8a5a5a" stroke-width="2.5" stroke-linejoin="round" points="36.0,145.1 38.9,145.1 41.9,145.1 44.8,145.1 47.7,145.1 50.7,145.1 53.6,145.1 56.5,145.1 59.5,145.1 62.4,145.1 65.3,145.1 68.3,145.1 71.2,145.1 74.1,145.1 77.1,145.1 80.0,145.1 83.0,145.1 85.9,145.1 88.8,145.1 91.8,145.1 94.7,145.1 97.6,145.1 100.6,145.1 103.5,145.1 106.4,145.1 109.4,145.1 112.3,145.1 115.2,145.1 118.2,145.1 121.1,145.1 124.0,145.1 127.0,145.1 129.9,145.1 132.8,145.1 135.8,145.1 138.7,145.1 141.6,145.1 144.6,145.1 147.5,145.1 150.4,145.1 153.4,145.1 156.3,145.1 159.3,145.1 162.2,145.1 165.1,145.1 168.1,145.1 171.0,145.1 173.9,145.1 176.9,145.1 179.8,145.1 182.7,155.7 185.7,155.7 188.6,155.7 191.5,155.7 194.5,155.7 197.4,155.7 200.3,155.7 203.3,155.7 206.2,155.7 209.1,155.7 212.1,155.7 215.0,155.7 217.9,155.7 220.9,155.7 223.8,155.7 226.7,155.7 229.7,155.7 232.6,155.7 235.6,155.7 238.5,155.7 241.4,155.7 244.4,155.7 247.3,155.7 250.2,155.7 253.2,155.7 256.1,155.7 259.0,155.7 262.0,155.7 264.9,155.7 267.8,155.7 270.8,155.7 273.7,155.7 276.6,155.7 279.6,155.7 282.5,167.6 285.4,167.6 288.4,170.3 291.3,170.3 294.2,170.5 297.2,170.7 300.1,170.7 303.0,170.9 306.0,172.7 308.9,180.6 311.9,181.8 314.8,189.1 317.7,190.5 320.7,195.2 323.6,198.0 326.5,198.0 329.5,198.0 332.4,198.0 335.3,198.0 338.3,198.0 341.2,198.0 344.1,198.0 347.1,198.0 350.0,198.0 352.9,198.0 355.9,198.0 358.8,198.0 361.7,198.0 364.7,198.0 367.6,198.0 370.5,198.0 373.5,198.0 376.4,198.0 379.3,198.0 382.3,198.0 385.2,198.0 388.1,198.0 391.1,198.0 394.0,198.0 397.0,198.0 399.9,198.0 402.8,198.0 405.8,198.0 408.7,198.0 411.6,198.0 414.6,198.0 417.5,198.0 420.4,198.0 423.4,198.0 426.3,198.0 429.2,198.0 432.2,198.0 435.1,198.0 438.0,198.0 441.0,198.0 443.9,198.0 446.8,198.0 449.8,198.0 452.7,198.0 455.6,198.0 458.6,198.0 461.5,198.0 464.4,198.0 467.4,198.0 470.3,198.0 473.3,198.0 476.2,198.0 479.1,198.0 482.1,198.0 485.0,198.0 487.9,198.0 490.9,198.0 493.8,198.0 496.7,198.0 499.7,198.0 502.6,198.0 505.5,198.0 508.5,198.0 511.4,198.0 514.3,198.0 517.3,198.0 520.2,198.0 523.1,198.0 526.1,198.0 529.0,198.0 531.9,198.0 534.9,198.0 537.8,198.0 540.7,198.0 543.7,198.0 546.6,198.0 549.6,198.0 552.5,198.0 555.4,198.0 558.4,198.0 561.3,198.0 564.2,198.0 567.2,198.0 570.1,198.0 573.0,198.0 576.0,198.0 578.9,198.0 581.8,198.0 584.8,198.0 587.7,198.0 590.6,198.0 593.6,198.0 596.5,198.0 599.4,198.0 602.4,198.0 605.3,198.0 608.2,198.0 611.2,198.0 614.1,198.0 617.0,198.0 620.0,198.0 622.9,198.0 625.9,198.0 628.8,198.0 631.7,198.0 634.7,198.0 637.6,198.0 640.5,198.0 643.5,198.0 646.4,198.0 649.3,198.0 652.3,198.0 655.2,198.0 658.1,198.0 661.1,198.0 664.0,198.0"/><circle cx="36.0" cy="145.1" r="3" fill="#8a5a5a"/><circle cx="38.9" cy="145.1" r="3" fill="#8a5a5a"/><circle cx="41.9" cy="145.1" r="3" fill="#8a5a5a"/><circle cx="44.8" cy="145.1" r="3" fill="#8a5a5a"/><circle cx="47.7" cy="145.1" r="3" fill="#8a5a5a"/><circle cx="50.7" cy="145.1" r="3" fill="#8a5a5a"/><circle cx="53.6" cy="145.1" r="3" fill="#8a5a5a"/><circle cx="56.5" cy="145.1" r="3" fill="#8a5a5a"/><circle cx="59.5" cy="145.1" r="3" fill="#8a5a5a"/><circle cx="62.4" cy="145.1" r="3" fill="#8a5a5a"/><circle cx="65.3" cy="145.1" r="3" fill="#8a5a5a"/><circle cx="68.3" cy="145.1" r="3" fill="#8a5a5a"/><circle cx="71.2" cy="145.1" r="3" fill="#8a5a5a"/><circle cx="74.1" cy="145.1" r="3" fill="#8a5a5a"/><circle cx="77.1" cy="145.1" r="3" fill="#8a5a5a"/><circle cx="80.0" cy="145.1" r="3" fill="#8a5a5a"/><circle cx="83.0" cy="145.1" r="3" fill="#8a5a5a"/><circle cx="85.9" cy="145.1" r="3" fill="#8a5a5a"/><circle cx="88.8" cy="145.1" r="3" fill="#8a5a5a"/><circle cx="91.8" cy="145.1" r="3" fill="#8a5a5a"/><circle cx="94.7" cy="145.1" r="3" fill="#8a5a5a"/><circle cx="97.6" cy="145.1" r="3" fill="#8a5a5a"/><circle cx="100.6" cy="145.1" r="3" fill="#8a5a5a"/><circle cx="103.5" cy="145.1" r="3" fill="#8a5a5a"/><circle cx="106.4" cy="145.1" r="3" fill="#8a5a5a"/><circle cx="109.4" cy="145.1" r="3" fill="#8a5a5a"/><circle cx="112.3" cy="145.1" r="3" fill="#8a5a5a"/><circle cx="115.2" cy="145.1" r="3" fill="#8a5a5a"/><circle cx="118.2" cy="145.1" r="3" fill="#8a5a5a"/><circle cx="121.1" cy="145.1" r="3" fill="#8a5a5a"/><circle cx="124.0" cy="145.1" r="3" fill="#8a5a5a"/><circle cx="127.0" cy="145.1" r="3" fill="#8a5a5a"/><circle cx="129.9" cy="145.1" r="3" fill="#8a5a5a"/><circle cx="132.8" cy="145.1" r="3" fill="#8a5a5a"/><circle cx="135.8" cy="145.1" r="3" fill="#8a5a5a"/><circle cx="138.7" cy="145.1" r="3" fill="#8a5a5a"/><circle cx="141.6" cy="145.1" r="3" fill="#8a5a5a"/><circle cx="144.6" cy="145.1" r="3" fill="#8a5a5a"/><circle cx="147.5" cy="145.1" r="3" fill="#8a5a5a"/><circle cx="150.4" cy="145.1" r="3" fill="#8a5a5a"/><circle cx="153.4" cy="145.1" r="3" fill="#8a5a5a"/><circle cx="156.3" cy="145.1" r="3" fill="#8a5a5a"/><circle cx="159.3" cy="145.1" r="3" fill="#8a5a5a"/><circle cx="162.2" cy="145.1" r="3" fill="#8a5a5a"/><circle cx="165.1" cy="145.1" r="3" fill="#8a5a5a"/><circle cx="168.1" cy="145.1" r="3" fill="#8a5a5a"/><circle cx="171.0" cy="145.1" r="3" fill="#8a5a5a"/><circle cx="173.9" cy="145.1" r="3" fill="#8a5a5a"/><circle cx="176.9" cy="145.1" r="3" fill="#8a5a5a"/><circle cx="179.8" cy="145.1" r="3" fill="#8a5a5a"/><circle cx="182.7" cy="155.7" r="3" fill="#8a5a5a"/><circle cx="185.7" cy="155.7" r="3" fill="#8a5a5a"/><circle cx="188.6" cy="155.7" r="3" fill="#8a5a5a"/><circle cx="191.5" cy="155.7" r="3" fill="#8a5a5a"/><circle cx="194.5" cy="155.7" r="3" fill="#8a5a5a"/><circle cx="197.4" cy="155.7" r="3" fill="#8a5a5a"/><circle cx="200.3" cy="155.7" r="3" fill="#8a5a5a"/><circle cx="203.3" cy="155.7" r="3" fill="#8a5a5a"/><circle cx="206.2" cy="155.7" r="3" fill="#8a5a5a"/><circle cx="209.1" cy="155.7" r="3" fill="#8a5a5a"/><circle cx="212.1" cy="155.7" r="3" fill="#8a5a5a"/><circle cx="215.0" cy="155.7" r="3" fill="#8a5a5a"/><circle cx="217.9" cy="155.7" r="3" fill="#8a5a5a"/><circle cx="220.9" cy="155.7" r="3" fill="#8a5a5a"/><circle cx="223.8" cy="155.7" r="3" fill="#8a5a5a"/><circle cx="226.7" cy="155.7" r="3" fill="#8a5a5a"/><circle cx="229.7" cy="155.7" r="3" fill="#8a5a5a"/><circle cx="232.6" cy="155.7" r="3" fill="#8a5a5a"/><circle cx="235.6" cy="155.7" r="3" fill="#8a5a5a"/><circle cx="238.5" cy="155.7" r="3" fill="#8a5a5a"/><circle cx="241.4" cy="155.7" r="3" fill="#8a5a5a"/><circle cx="244.4" cy="155.7" r="3" fill="#8a5a5a"/><circle cx="247.3" cy="155.7" r="3" fill="#8a5a5a"/><circle cx="250.2" cy="155.7" r="3" fill="#8a5a5a"/><circle cx="253.2" cy="155.7" r="3" fill="#8a5a5a"/><circle cx="256.1" cy="155.7" r="3" fill="#8a5a5a"/><circle cx="259.0" cy="155.7" r="3" fill="#8a5a5a"/><circle cx="262.0" cy="155.7" r="3" fill="#8a5a5a"/><circle cx="264.9" cy="155.7" r="3" fill="#8a5a5a"/><circle cx="267.8" cy="155.7" r="3" fill="#8a5a5a"/><circle cx="270.8" cy="155.7" r="3" fill="#8a5a5a"/><circle cx="273.7" cy="155.7" r="3" fill="#8a5a5a"/><circle cx="276.6" cy="155.7" r="3" fill="#8a5a5a"/><circle cx="279.6" cy="155.7" r="3" fill="#8a5a5a"/><circle cx="282.5" cy="167.6" r="3" fill="#8a5a5a"/><circle cx="285.4" cy="167.6" r="3" fill="#8a5a5a"/><circle cx="288.4" cy="170.3" r="3" fill="#8a5a5a"/><circle cx="291.3" cy="170.3" r="3" fill="#8a5a5a"/><circle cx="294.2" cy="170.5" r="3" fill="#8a5a5a"/><circle cx="297.2" cy="170.7" r="3" fill="#8a5a5a"/><circle cx="300.1" cy="170.7" r="3" fill="#8a5a5a"/><circle cx="303.0" cy="170.9" r="3" fill="#8a5a5a"/><circle cx="306.0" cy="172.7" r="3" fill="#8a5a5a"/><circle cx="308.9" cy="180.6" r="3" fill="#8a5a5a"/><circle cx="311.9" cy="181.8" r="3" fill="#8a5a5a"/><circle cx="314.8" cy="189.1" r="3" fill="#8a5a5a"/><circle cx="317.7" cy="190.5" r="3" fill="#8a5a5a"/><circle cx="320.7" cy="195.2" r="3" fill="#8a5a5a"/><circle cx="323.6" cy="198.0" r="3" fill="#8a5a5a"/><circle cx="326.5" cy="198.0" r="3" fill="#8a5a5a"/><circle cx="329.5" cy="198.0" r="3" fill="#8a5a5a"/><circle cx="332.4" cy="198.0" r="3" fill="#8a5a5a"/><circle cx="335.3" cy="198.0" r="3" fill="#8a5a5a"/><circle cx="338.3" cy="198.0" r="3" fill="#8a5a5a"/><circle cx="341.2" cy="198.0" r="3" fill="#8a5a5a"/><circle cx="344.1" cy="198.0" r="3" fill="#8a5a5a"/><circle cx="347.1" cy="198.0" r="3" fill="#8a5a5a"/><circle cx="350.0" cy="198.0" r="3" fill="#8a5a5a"/><circle cx="352.9" cy="198.0" r="3" fill="#8a5a5a"/><circle cx="355.9" cy="198.0" r="3" fill="#8a5a5a"/><circle cx="358.8" cy="198.0" r="3" fill="#8a5a5a"/><circle cx="361.7" cy="198.0" r="3" fill="#8a5a5a"/><circle cx="364.7" cy="198.0" r="3" fill="#8a5a5a"/><circle cx="367.6" cy="198.0" r="3" fill="#8a5a5a"/><circle cx="370.5" cy="198.0" r="3" fill="#8a5a5a"/><circle cx="373.5" cy="198.0" r="3" fill="#8a5a5a"/><circle cx="376.4" cy="198.0" r="3" fill="#8a5a5a"/><circle cx="379.3" cy="198.0" r="3" fill="#8a5a5a"/><circle cx="382.3" cy="198.0" r="3" fill="#8a5a5a"/><circle cx="385.2" cy="198.0" r="3" fill="#8a5a5a"/><circle cx="388.1" cy="198.0" r="3" fill="#8a5a5a"/><circle cx="391.1" cy="198.0" r="3" fill="#8a5a5a"/><circle cx="394.0" cy="198.0" r="3" fill="#8a5a5a"/><circle cx="397.0" cy="198.0" r="3" fill="#8a5a5a"/><circle cx="399.9" cy="198.0" r="3" fill="#8a5a5a"/><circle cx="402.8" cy="198.0" r="3" fill="#8a5a5a"/><circle cx="405.8" cy="198.0" r="3" fill="#8a5a5a"/><circle cx="408.7" cy="198.0" r="3" fill="#8a5a5a"/><circle cx="411.6" cy="198.0" r="3" fill="#8a5a5a"/><circle cx="414.6" cy="198.0" r="3" fill="#8a5a5a"/><circle cx="417.5" cy="198.0" r="3" fill="#8a5a5a"/><circle cx="420.4" cy="198.0" r="3" fill="#8a5a5a"/><circle cx="423.4" cy="198.0" r="3" fill="#8a5a5a"/><circle cx="426.3" cy="198.0" r="3" fill="#8a5a5a"/><circle cx="429.2" cy="198.0" r="3" fill="#8a5a5a"/><circle cx="432.2" cy="198.0" r="3" fill="#8a5a5a"/><circle cx="435.1" cy="198.0" r="3" fill="#8a5a5a"/><circle cx="438.0" cy="198.0" r="3" fill="#8a5a5a"/><circle cx="441.0" cy="198.0" r="3" fill="#8a5a5a"/><circle cx="443.9" cy="198.0" r="3" fill="#8a5a5a"/><circle cx="446.8" cy="198.0" r="3" fill="#8a5a5a"/><circle cx="449.8" cy="198.0" r="3" fill="#8a5a5a"/><circle cx="452.7" cy="198.0" r="3" fill="#8a5a5a"/><circle cx="455.6" cy="198.0" r="3" fill="#8a5a5a"/><circle cx="458.6" cy="198.0" r="3" fill="#8a5a5a"/><circle cx="461.5" cy="198.0" r="3" fill="#8a5a5a"/><circle cx="464.4" cy="198.0" r="3" fill="#8a5a5a"/><circle cx="467.4" cy="198.0" r="3" fill="#8a5a5a"/><circle cx="470.3" cy="198.0" r="3" fill="#8a5a5a"/><circle cx="473.3" cy="198.0" r="3" fill="#8a5a5a"/><circle cx="476.2" cy="198.0" r="3" fill="#8a5a5a"/><circle cx="479.1" cy="198.0" r="3" fill="#8a5a5a"/><circle cx="482.1" cy="198.0" r="3" fill="#8a5a5a"/><circle cx="485.0" cy="198.0" r="3" fill="#8a5a5a"/><circle cx="487.9" cy="198.0" r="3" fill="#8a5a5a"/><circle cx="490.9" cy="198.0" r="3" fill="#8a5a5a"/><circle cx="493.8" cy="198.0" r="3" fill="#8a5a5a"/><circle cx="496.7" cy="198.0" r="3" fill="#8a5a5a"/><circle cx="499.7" cy="198.0" r="3" fill="#8a5a5a"/><circle cx="502.6" cy="198.0" r="3" fill="#8a5a5a"/><circle cx="505.5" cy="198.0" r="3" fill="#8a5a5a"/><circle cx="508.5" cy="198.0" r="3" fill="#8a5a5a"/><circle cx="511.4" cy="198.0" r="3" fill="#8a5a5a"/><circle cx="514.3" cy="198.0" r="3" fill="#8a5a5a"/><circle cx="517.3" cy="198.0" r="3" fill="#8a5a5a"/><circle cx="520.2" cy="198.0" r="3" fill="#8a5a5a"/><circle cx="523.1" cy="198.0" r="3" fill="#8a5a5a"/><circle cx="526.1" cy="198.0" r="3" fill="#8a5a5a"/><circle cx="529.0" cy="198.0" r="3" fill="#8a5a5a"/><circle cx="531.9" cy="198.0" r="3" fill="#8a5a5a"/><circle cx="534.9" cy="198.0" r="3" fill="#8a5a5a"/><circle cx="537.8" cy="198.0" r="3" fill="#8a5a5a"/><circle cx="540.7" cy="198.0" r="3" fill="#8a5a5a"/><circle cx="543.7" cy="198.0" r="3" fill="#8a5a5a"/><circle cx="546.6" cy="198.0" r="3" fill="#8a5a5a"/><circle cx="549.6" cy="198.0" r="3" fill="#8a5a5a"/><circle cx="552.5" cy="198.0" r="3" fill="#8a5a5a"/><circle cx="555.4" cy="198.0" r="3" fill="#8a5a5a"/><circle cx="558.4" cy="198.0" r="3" fill="#8a5a5a"/><circle cx="561.3" cy="198.0" r="3" fill="#8a5a5a"/><circle cx="564.2" cy="198.0" r="3" fill="#8a5a5a"/><circle cx="567.2" cy="198.0" r="3" fill="#8a5a5a"/><circle cx="570.1" cy="198.0" r="3" fill="#8a5a5a"/><circle cx="573.0" cy="198.0" r="3" fill="#8a5a5a"/><circle cx="576.0" cy="198.0" r="3" fill="#8a5a5a"/><circle cx="578.9" cy="198.0" r="3" fill="#8a5a5a"/><circle cx="581.8" cy="198.0" r="3" fill="#8a5a5a"/><circle cx="584.8" cy="198.0" r="3" fill="#8a5a5a"/><circle cx="587.7" cy="198.0" r="3" fill="#8a5a5a"/><circle cx="590.6" cy="198.0" r="3" fill="#8a5a5a"/><circle cx="593.6" cy="198.0" r="3" fill="#8a5a5a"/><circle cx="596.5" cy="198.0" r="3" fill="#8a5a5a"/><circle cx="599.4" cy="198.0" r="3" fill="#8a5a5a"/><circle cx="602.4" cy="198.0" r="3" fill="#8a5a5a"/><circle cx="605.3" cy="198.0" r="3" fill="#8a5a5a"/><circle cx="608.2" cy="198.0" r="3" fill="#8a5a5a"/><circle cx="611.2" cy="198.0" r="3" fill="#8a5a5a"/><circle cx="614.1" cy="198.0" r="3" fill="#8a5a5a"/><circle cx="617.0" cy="198.0" r="3" fill="#8a5a5a"/><circle cx="620.0" cy="198.0" r="3" fill="#8a5a5a"/><circle cx="622.9" cy="198.0" r="3" fill="#8a5a5a"/><circle cx="625.9" cy="198.0" r="3" fill="#8a5a5a"/><circle cx="628.8" cy="198.0" r="3" fill="#8a5a5a"/><circle cx="631.7" cy="198.0" r="3" fill="#8a5a5a"/><circle cx="634.7" cy="198.0" r="3" fill="#8a5a5a"/><circle cx="637.6" cy="198.0" r="3" fill="#8a5a5a"/><circle cx="640.5" cy="198.0" r="3" fill="#8a5a5a"/><circle cx="643.5" cy="198.0" r="3" fill="#8a5a5a"/><circle cx="646.4" cy="198.0" r="3" fill="#8a5a5a"/><circle cx="649.3" cy="198.0" r="3" fill="#8a5a5a"/><circle cx="652.3" cy="198.0" r="3" fill="#8a5a5a"/><circle cx="655.2" cy="198.0" r="3" fill="#8a5a5a"/><circle cx="658.1" cy="198.0" r="3" fill="#8a5a5a"/><circle cx="661.1" cy="198.0" r="3" fill="#8a5a5a"/><circle cx="664.0" cy="198.0" r="3" fill="#8a5a5a"/>
<polyline fill="none" stroke="#3fb950" stroke-width="2.5" stroke-linejoin="round" points="36.0,198.0 38.9,198.0 41.9,198.0 44.8,198.0 47.7,198.0 50.7,198.0 53.6,198.0 56.5,198.0 59.5,198.0 62.4,198.0 65.3,198.0 68.3,198.0 71.2,198.0 74.1,198.0 77.1,198.0 80.0,198.0 83.0,198.0 85.9,198.0 88.8,198.0 91.8,198.0 94.7,198.0 97.6,198.0 100.6,198.0 103.5,198.0 106.4,198.0 109.4,198.0 112.3,198.0 115.2,198.0 118.2,198.0 121.1,198.0 124.0,198.0 127.0,198.0 129.9,198.0 132.8,198.0 135.8,198.0 138.7,198.0 141.6,198.0 144.6,198.0 147.5,198.0 150.4,198.0 153.4,198.0 156.3,198.0 159.3,198.0 162.2,191.7 165.1,191.7 168.1,191.7 171.0,191.7 173.9,191.7 176.9,191.7 179.8,191.7 182.7,192.9 185.7,192.9 188.6,190.7 191.5,190.7 194.5,190.7 197.4,190.7 200.3,190.7 203.3,190.5 206.2,190.5 209.1,190.5 212.1,190.3 215.0,190.3 217.9,190.3 220.9,190.3 223.8,190.3 226.7,190.3 229.7,190.3 232.6,190.3 235.6,190.3 238.5,190.3 241.4,190.3 244.4,190.3 247.3,190.3 250.2,190.3 253.2,190.3 256.1,190.3 259.0,190.3 262.0,190.3 264.9,190.3 267.8,190.3 270.8,190.3 273.7,189.3 276.6,189.3 279.6,189.3 282.5,190.7 285.4,190.7 288.4,190.7 291.3,190.7 294.2,190.7 297.2,190.7 300.1,190.7 303.0,190.7 306.0,190.7 308.9,190.9 311.9,190.9 314.8,190.9 317.7,194.2 320.7,196.8 323.6,198.0 326.5,198.0 329.5,198.0 332.4,198.0 335.3,198.0 338.3,198.0 341.2,198.0 344.1,198.0 347.1,198.0 350.0,198.0 352.9,198.0 355.9,198.0 358.8,198.0 361.7,198.0 364.7,198.0 367.6,198.0 370.5,198.0 373.5,198.0 376.4,198.0 379.3,198.0 382.3,198.0 385.2,198.0 388.1,198.0 391.1,198.0 394.0,198.0 397.0,198.0 399.9,198.0 402.8,198.0 405.8,198.0 408.7,198.0 411.6,198.0 414.6,198.0 417.5,198.0 420.4,198.0 423.4,198.0 426.3,198.0 429.2,198.0 432.2,198.0 435.1,198.0 438.0,198.0 441.0,198.0 443.9,198.0 446.8,198.0 449.8,198.0 452.7,198.0 455.6,198.0 458.6,198.0 461.5,198.0 464.4,198.0 467.4,198.0 470.3,198.0 473.3,198.0 476.2,198.0 479.1,198.0 482.1,198.0 485.0,198.0 487.9,198.0 490.9,198.0 493.8,198.0 496.7,198.0 499.7,198.0 502.6,198.0 505.5,198.0 508.5,198.0 511.4,198.0 514.3,198.0 517.3,198.0 520.2,198.0 523.1,198.0 526.1,198.0 529.0,198.0 531.9,198.0 534.9,198.0 537.8,198.0 540.7,198.0 543.7,198.0 546.6,198.0 549.6,198.0 552.5,198.0 555.4,198.0 558.4,198.0 561.3,198.0 564.2,198.0 567.2,198.0 570.1,198.0 573.0,198.0 576.0,198.0 578.9,198.0 581.8,198.0 584.8,198.0 587.7,198.0 590.6,198.0 593.6,198.0 596.5,198.0 599.4,198.0 602.4,198.0 605.3,198.0 608.2,198.0 611.2,198.0 614.1,198.0 617.0,198.0 620.0,198.0 622.9,198.0 625.9,198.0 628.8,198.0 631.7,198.0 634.7,198.0 637.6,198.0 640.5,198.0 643.5,198.0 646.4,198.0 649.3,198.0 652.3,198.0 655.2,198.0 658.1,198.0 661.1,198.0 664.0,198.0"/><circle cx="36.0" cy="198.0" r="3" fill="#3fb950"/><circle cx="38.9" cy="198.0" r="3" fill="#3fb950"/><circle cx="41.9" cy="198.0" r="3" fill="#3fb950"/><circle cx="44.8" cy="198.0" r="3" fill="#3fb950"/><circle cx="47.7" cy="198.0" r="3" fill="#3fb950"/><circle cx="50.7" cy="198.0" r="3" fill="#3fb950"/><circle cx="53.6" cy="198.0" r="3" fill="#3fb950"/><circle cx="56.5" cy="198.0" r="3" fill="#3fb950"/><circle cx="59.5" cy="198.0" r="3" fill="#3fb950"/><circle cx="62.4" cy="198.0" r="3" fill="#3fb950"/><circle cx="65.3" cy="198.0" r="3" fill="#3fb950"/><circle cx="68.3" cy="198.0" r="3" fill="#3fb950"/><circle cx="71.2" cy="198.0" r="3" fill="#3fb950"/><circle cx="74.1" cy="198.0" r="3" fill="#3fb950"/><circle cx="77.1" cy="198.0" r="3" fill="#3fb950"/><circle cx="80.0" cy="198.0" r="3" fill="#3fb950"/><circle cx="83.0" cy="198.0" r="3" fill="#3fb950"/><circle cx="85.9" cy="198.0" r="3" fill="#3fb950"/><circle cx="88.8" cy="198.0" r="3" fill="#3fb950"/><circle cx="91.8" cy="198.0" r="3" fill="#3fb950"/><circle cx="94.7" cy="198.0" r="3" fill="#3fb950"/><circle cx="97.6" cy="198.0" r="3" fill="#3fb950"/><circle cx="100.6" cy="198.0" r="3" fill="#3fb950"/><circle cx="103.5" cy="198.0" r="3" fill="#3fb950"/><circle cx="106.4" cy="198.0" r="3" fill="#3fb950"/><circle cx="109.4" cy="198.0" r="3" fill="#3fb950"/><circle cx="112.3" cy="198.0" r="3" fill="#3fb950"/><circle cx="115.2" cy="198.0" r="3" fill="#3fb950"/><circle cx="118.2" cy="198.0" r="3" fill="#3fb950"/><circle cx="121.1" cy="198.0" r="3" fill="#3fb950"/><circle cx="124.0" cy="198.0" r="3" fill="#3fb950"/><circle cx="127.0" cy="198.0" r="3" fill="#3fb950"/><circle cx="129.9" cy="198.0" r="3" fill="#3fb950"/><circle cx="132.8" cy="198.0" r="3" fill="#3fb950"/><circle cx="135.8" cy="198.0" r="3" fill="#3fb950"/><circle cx="138.7" cy="198.0" r="3" fill="#3fb950"/><circle cx="141.6" cy="198.0" r="3" fill="#3fb950"/><circle cx="144.6" cy="198.0" r="3" fill="#3fb950"/><circle cx="147.5" cy="198.0" r="3" fill="#3fb950"/><circle cx="150.4" cy="198.0" r="3" fill="#3fb950"/><circle cx="153.4" cy="198.0" r="3" fill="#3fb950"/><circle cx="156.3" cy="198.0" r="3" fill="#3fb950"/><circle cx="159.3" cy="198.0" r="3" fill="#3fb950"/><circle cx="162.2" cy="191.7" r="3" fill="#3fb950"/><circle cx="165.1" cy="191.7" r="3" fill="#3fb950"/><circle cx="168.1" cy="191.7" r="3" fill="#3fb950"/><circle cx="171.0" cy="191.7" r="3" fill="#3fb950"/><circle cx="173.9" cy="191.7" r="3" fill="#3fb950"/><circle cx="176.9" cy="191.7" r="3" fill="#3fb950"/><circle cx="179.8" cy="191.7" r="3" fill="#3fb950"/><circle cx="182.7" cy="192.9" r="3" fill="#3fb950"/><circle cx="185.7" cy="192.9" r="3" fill="#3fb950"/><circle cx="188.6" cy="190.7" r="3" fill="#3fb950"/><circle cx="191.5" cy="190.7" r="3" fill="#3fb950"/><circle cx="194.5" cy="190.7" r="3" fill="#3fb950"/><circle cx="197.4" cy="190.7" r="3" fill="#3fb950"/><circle cx="200.3" cy="190.7" r="3" fill="#3fb950"/><circle cx="203.3" cy="190.5" r="3" fill="#3fb950"/><circle cx="206.2" cy="190.5" r="3" fill="#3fb950"/><circle cx="209.1" cy="190.5" r="3" fill="#3fb950"/><circle cx="212.1" cy="190.3" r="3" fill="#3fb950"/><circle cx="215.0" cy="190.3" r="3" fill="#3fb950"/><circle cx="217.9" cy="190.3" r="3" fill="#3fb950"/><circle cx="220.9" cy="190.3" r="3" fill="#3fb950"/><circle cx="223.8" cy="190.3" r="3" fill="#3fb950"/><circle cx="226.7" cy="190.3" r="3" fill="#3fb950"/><circle cx="229.7" cy="190.3" r="3" fill="#3fb950"/><circle cx="232.6" cy="190.3" r="3" fill="#3fb950"/><circle cx="235.6" cy="190.3" r="3" fill="#3fb950"/><circle cx="238.5" cy="190.3" r="3" fill="#3fb950"/><circle cx="241.4" cy="190.3" r="3" fill="#3fb950"/><circle cx="244.4" cy="190.3" r="3" fill="#3fb950"/><circle cx="247.3" cy="190.3" r="3" fill="#3fb950"/><circle cx="250.2" cy="190.3" r="3" fill="#3fb950"/><circle cx="253.2" cy="190.3" r="3" fill="#3fb950"/><circle cx="256.1" cy="190.3" r="3" fill="#3fb950"/><circle cx="259.0" cy="190.3" r="3" fill="#3fb950"/><circle cx="262.0" cy="190.3" r="3" fill="#3fb950"/><circle cx="264.9" cy="190.3" r="3" fill="#3fb950"/><circle cx="267.8" cy="190.3" r="3" fill="#3fb950"/><circle cx="270.8" cy="190.3" r="3" fill="#3fb950"/><circle cx="273.7" cy="189.3" r="3" fill="#3fb950"/><circle cx="276.6" cy="189.3" r="3" fill="#3fb950"/><circle cx="279.6" cy="189.3" r="3" fill="#3fb950"/><circle cx="282.5" cy="190.7" r="3" fill="#3fb950"/><circle cx="285.4" cy="190.7" r="3" fill="#3fb950"/><circle cx="288.4" cy="190.7" r="3" fill="#3fb950"/><circle cx="291.3" cy="190.7" r="3" fill="#3fb950"/><circle cx="294.2" cy="190.7" r="3" fill="#3fb950"/><circle cx="297.2" cy="190.7" r="3" fill="#3fb950"/><circle cx="300.1" cy="190.7" r="3" fill="#3fb950"/><circle cx="303.0" cy="190.7" r="3" fill="#3fb950"/><circle cx="306.0" cy="190.7" r="3" fill="#3fb950"/><circle cx="308.9" cy="190.9" r="3" fill="#3fb950"/><circle cx="311.9" cy="190.9" r="3" fill="#3fb950"/><circle cx="314.8" cy="190.9" r="3" fill="#3fb950"/><circle cx="317.7" cy="194.2" r="3" fill="#3fb950"/><circle cx="320.7" cy="196.8" r="3" fill="#3fb950"/><circle cx="323.6" cy="198.0" r="3" fill="#3fb950"/><circle cx="326.5" cy="198.0" r="3" fill="#3fb950"/><circle cx="329.5" cy="198.0" r="3" fill="#3fb950"/><circle cx="332.4" cy="198.0" r="3" fill="#3fb950"/><circle cx="335.3" cy="198.0" r="3" fill="#3fb950"/><circle cx="338.3" cy="198.0" r="3" fill="#3fb950"/><circle cx="341.2" cy="198.0" r="3" fill="#3fb950"/><circle cx="344.1" cy="198.0" r="3" fill="#3fb950"/><circle cx="347.1" cy="198.0" r="3" fill="#3fb950"/><circle cx="350.0" cy="198.0" r="3" fill="#3fb950"/><circle cx="352.9" cy="198.0" r="3" fill="#3fb950"/><circle cx="355.9" cy="198.0" r="3" fill="#3fb950"/><circle cx="358.8" cy="198.0" r="3" fill="#3fb950"/><circle cx="361.7" cy="198.0" r="3" fill="#3fb950"/><circle cx="364.7" cy="198.0" r="3" fill="#3fb950"/><circle cx="367.6" cy="198.0" r="3" fill="#3fb950"/><circle cx="370.5" cy="198.0" r="3" fill="#3fb950"/><circle cx="373.5" cy="198.0" r="3" fill="#3fb950"/><circle cx="376.4" cy="198.0" r="3" fill="#3fb950"/><circle cx="379.3" cy="198.0" r="3" fill="#3fb950"/><circle cx="382.3" cy="198.0" r="3" fill="#3fb950"/><circle cx="385.2" cy="198.0" r="3" fill="#3fb950"/><circle cx="388.1" cy="198.0" r="3" fill="#3fb950"/><circle cx="391.1" cy="198.0" r="3" fill="#3fb950"/><circle cx="394.0" cy="198.0" r="3" fill="#3fb950"/><circle cx="397.0" cy="198.0" r="3" fill="#3fb950"/><circle cx="399.9" cy="198.0" r="3" fill="#3fb950"/><circle cx="402.8" cy="198.0" r="3" fill="#3fb950"/><circle cx="405.8" cy="198.0" r="3" fill="#3fb950"/><circle cx="408.7" cy="198.0" r="3" fill="#3fb950"/><circle cx="411.6" cy="198.0" r="3" fill="#3fb950"/><circle cx="414.6" cy="198.0" r="3" fill="#3fb950"/><circle cx="417.5" cy="198.0" r="3" fill="#3fb950"/><circle cx="420.4" cy="198.0" r="3" fill="#3fb950"/><circle cx="423.4" cy="198.0" r="3" fill="#3fb950"/><circle cx="426.3" cy="198.0" r="3" fill="#3fb950"/><circle cx="429.2" cy="198.0" r="3" fill="#3fb950"/><circle cx="432.2" cy="198.0" r="3" fill="#3fb950"/><circle cx="435.1" cy="198.0" r="3" fill="#3fb950"/><circle cx="438.0" cy="198.0" r="3" fill="#3fb950"/><circle cx="441.0" cy="198.0" r="3" fill="#3fb950"/><circle cx="443.9" cy="198.0" r="3" fill="#3fb950"/><circle cx="446.8" cy="198.0" r="3" fill="#3fb950"/><circle cx="449.8" cy="198.0" r="3" fill="#3fb950"/><circle cx="452.7" cy="198.0" r="3" fill="#3fb950"/><circle cx="455.6" cy="198.0" r="3" fill="#3fb950"/><circle cx="458.6" cy="198.0" r="3" fill="#3fb950"/><circle cx="461.5" cy="198.0" r="3" fill="#3fb950"/><circle cx="464.4" cy="198.0" r="3" fill="#3fb950"/><circle cx="467.4" cy="198.0" r="3" fill="#3fb950"/><circle cx="470.3" cy="198.0" r="3" fill="#3fb950"/><circle cx="473.3" cy="198.0" r="3" fill="#3fb950"/><circle cx="476.2" cy="198.0" r="3" fill="#3fb950"/><circle cx="479.1" cy="198.0" r="3" fill="#3fb950"/><circle cx="482.1" cy="198.0" r="3" fill="#3fb950"/><circle cx="485.0" cy="198.0" r="3" fill="#3fb950"/><circle cx="487.9" cy="198.0" r="3" fill="#3fb950"/><circle cx="490.9" cy="198.0" r="3" fill="#3fb950"/><circle cx="493.8" cy="198.0" r="3" fill="#3fb950"/><circle cx="496.7" cy="198.0" r="3" fill="#3fb950"/><circle cx="499.7" cy="198.0" r="3" fill="#3fb950"/><circle cx="502.6" cy="198.0" r="3" fill="#3fb950"/><circle cx="505.5" cy="198.0" r="3" fill="#3fb950"/><circle cx="508.5" cy="198.0" r="3" fill="#3fb950"/><circle cx="511.4" cy="198.0" r="3" fill="#3fb950"/><circle cx="514.3" cy="198.0" r="3" fill="#3fb950"/><circle cx="517.3" cy="198.0" r="3" fill="#3fb950"/><circle cx="520.2" cy="198.0" r="3" fill="#3fb950"/><circle cx="523.1" cy="198.0" r="3" fill="#3fb950"/><circle cx="526.1" cy="198.0" r="3" fill="#3fb950"/><circle cx="529.0" cy="198.0" r="3" fill="#3fb950"/><circle cx="531.9" cy="198.0" r="3" fill="#3fb950"/><circle cx="534.9" cy="198.0" r="3" fill="#3fb950"/><circle cx="537.8" cy="198.0" r="3" fill="#3fb950"/><circle cx="540.7" cy="198.0" r="3" fill="#3fb950"/><circle cx="543.7" cy="198.0" r="3" fill="#3fb950"/><circle cx="546.6" cy="198.0" r="3" fill="#3fb950"/><circle cx="549.6" cy="198.0" r="3" fill="#3fb950"/><circle cx="552.5" cy="198.0" r="3" fill="#3fb950"/><circle cx="555.4" cy="198.0" r="3" fill="#3fb950"/><circle cx="558.4" cy="198.0" r="3" fill="#3fb950"/><circle cx="561.3" cy="198.0" r="3" fill="#3fb950"/><circle cx="564.2" cy="198.0" r="3" fill="#3fb950"/><circle cx="567.2" cy="198.0" r="3" fill="#3fb950"/><circle cx="570.1" cy="198.0" r="3" fill="#3fb950"/><circle cx="573.0" cy="198.0" r="3" fill="#3fb950"/><circle cx="576.0" cy="198.0" r="3" fill="#3fb950"/><circle cx="578.9" cy="198.0" r="3" fill="#3fb950"/><circle cx="581.8" cy="198.0" r="3" fill="#3fb950"/><circle cx="584.8" cy="198.0" r="3" fill="#3fb950"/><circle cx="587.7" cy="198.0" r="3" fill="#3fb950"/><circle cx="590.6" cy="198.0" r="3" fill="#3fb950"/><circle cx="593.6" cy="198.0" r="3" fill="#3fb950"/><circle cx="596.5" cy="198.0" r="3" fill="#3fb950"/><circle cx="599.4" cy="198.0" r="3" fill="#3fb950"/><circle cx="602.4" cy="198.0" r="3" fill="#3fb950"/><circle cx="605.3" cy="198.0" r="3" fill="#3fb950"/><circle cx="608.2" cy="198.0" r="3" fill="#3fb950"/><circle cx="611.2" cy="198.0" r="3" fill="#3fb950"/><circle cx="614.1" cy="198.0" r="3" fill="#3fb950"/><circle cx="617.0" cy="198.0" r="3" fill="#3fb950"/><circle cx="620.0" cy="198.0" r="3" fill="#3fb950"/><circle cx="622.9" cy="198.0" r="3" fill="#3fb950"/><circle cx="625.9" cy="198.0" r="3" fill="#3fb950"/><circle cx="628.8" cy="198.0" r="3" fill="#3fb950"/><circle cx="631.7" cy="198.0" r="3" fill="#3fb950"/><circle cx="634.7" cy="198.0" r="3" fill="#3fb950"/><circle cx="637.6" cy="198.0" r="3" fill="#3fb950"/><circle cx="640.5" cy="198.0" r="3" fill="#3fb950"/><circle cx="643.5" cy="198.0" r="3" fill="#3fb950"/><circle cx="646.4" cy="198.0" r="3" fill="#3fb950"/><circle cx="649.3" cy="198.0" r="3" fill="#3fb950"/><circle cx="652.3" cy="198.0" r="3" fill="#3fb950"/><circle cx="655.2" cy="198.0" r="3" fill="#3fb950"/><circle cx="658.1" cy="198.0" r="3" fill="#3fb950"/><circle cx="661.1" cy="198.0" r="3" fill="#3fb950"/><circle cx="664.0" cy="198.0" r="3" fill="#3fb950"/>
<polyline fill="none" stroke="#4aa3ff" stroke-width="2.5" stroke-linejoin="round" points="36.0,144.3 38.9,144.3 41.9,144.3 44.8,144.3 47.7,144.3 50.7,144.3 53.6,144.3 56.5,144.3 59.5,144.3 62.4,144.3 65.3,144.3 68.3,144.3 71.2,144.3 74.1,144.3 77.1,144.3 80.0,136.2 83.0,132.4 85.9,129.6 88.8,129.6 91.8,121.0 94.7,121.0 97.6,121.0 100.6,114.4 103.5,114.4 106.4,114.4 109.4,111.3 112.3,110.9 115.2,110.9 118.2,110.5 121.1,110.5 124.0,109.9 127.0,108.7 129.9,107.3 132.8,106.9 135.8,106.9 138.7,106.9 141.6,106.9 144.6,106.9 147.5,106.9 150.4,106.9 153.4,106.9 156.3,106.9 159.3,106.9 162.2,113.2 165.1,113.2 168.1,113.2 171.0,113.2 173.9,113.2 176.9,110.7 179.8,105.3 182.7,83.4 185.7,83.4 188.6,85.6 191.5,85.6 194.5,85.6 197.4,85.6 200.3,85.6 203.3,85.8 206.2,85.8 209.1,85.8 212.1,86.0 215.0,86.0 217.9,86.0 220.9,86.0 223.8,86.0 226.7,86.0 229.7,86.0 232.6,86.0 235.6,86.0 238.5,86.0 241.4,86.0 244.4,86.0 247.3,86.0 250.2,86.0 253.2,86.0 256.1,86.0 259.0,86.0 262.0,86.0 264.9,86.0 267.8,86.0 270.8,86.0 273.7,87.0 276.6,87.0 279.6,87.0 282.5,73.7 285.4,73.7 288.4,71.0 291.3,71.0 294.2,70.8 297.2,70.6 300.1,70.6 303.0,70.4 306.0,68.6 308.9,60.5 311.9,59.3 314.8,52.0 317.7,47.3 320.7,40.1 323.6,36.0 326.5,36.0 329.5,36.0 332.4,36.0 335.3,36.0 338.3,36.0 341.2,36.0 344.1,36.0 347.1,36.0 350.0,36.0 352.9,36.0 355.9,36.0 358.8,36.0 361.7,36.0 364.7,36.0 367.6,36.0 370.5,36.0 373.5,36.0 376.4,36.0 379.3,36.0 382.3,36.0 385.2,36.0 388.1,36.0 391.1,36.0 394.0,36.0 397.0,36.0 399.9,36.0 402.8,36.0 405.8,36.0 408.7,36.0 411.6,36.0 414.6,36.0 417.5,36.0 420.4,36.0 423.4,36.0 426.3,36.0 429.2,36.0 432.2,36.0 435.1,36.0 438.0,36.0 441.0,36.0 443.9,36.0 446.8,36.0 449.8,36.0 452.7,36.0 455.6,36.0 458.6,36.0 461.5,36.0 464.4,36.0 467.4,36.0 470.3,36.0 473.3,36.0 476.2,36.0 479.1,36.0 482.1,36.0 485.0,36.0 487.9,36.0 490.9,36.0 493.8,36.0 496.7,36.0 499.7,36.0 502.6,36.0 505.5,36.0 508.5,36.0 511.4,36.0 514.3,36.0 517.3,36.0 520.2,36.0 523.1,36.0 526.1,36.0 529.0,36.0 531.9,36.0 534.9,36.0 537.8,36.0 540.7,36.0 543.7,36.0 546.6,36.0 549.6,36.0 552.5,36.0 555.4,36.0 558.4,36.0 561.3,36.0 564.2,36.0 567.2,36.0 570.1,36.0 573.0,36.0 576.0,36.0 578.9,36.0 581.8,36.0 584.8,36.0 587.7,36.0 590.6,36.0 593.6,36.0 596.5,36.0 599.4,36.0 602.4,36.0 605.3,36.0 608.2,36.0 611.2,36.0 614.1,36.0 617.0,36.0 620.0,36.0 622.9,36.0 625.9,36.0 628.8,36.0 631.7,36.0 634.7,36.0 637.6,36.0 640.5,36.0 643.5,36.0 646.4,36.0 649.3,36.0 652.3,36.0 655.2,36.0 658.1,36.0 661.1,36.0 664.0,36.0"/><circle cx="36.0" cy="144.3" r="3" fill="#4aa3ff"/><circle cx="38.9" cy="144.3" r="3" fill="#4aa3ff"/><circle cx="41.9" cy="144.3" r="3" fill="#4aa3ff"/><circle cx="44.8" cy="144.3" r="3" fill="#4aa3ff"/><circle cx="47.7" cy="144.3" r="3" fill="#4aa3ff"/><circle cx="50.7" cy="144.3" r="3" fill="#4aa3ff"/><circle cx="53.6" cy="144.3" r="3" fill="#4aa3ff"/><circle cx="56.5" cy="144.3" r="3" fill="#4aa3ff"/><circle cx="59.5" cy="144.3" r="3" fill="#4aa3ff"/><circle cx="62.4" cy="144.3" r="3" fill="#4aa3ff"/><circle cx="65.3" cy="144.3" r="3" fill="#4aa3ff"/><circle cx="68.3" cy="144.3" r="3" fill="#4aa3ff"/><circle cx="71.2" cy="144.3" r="3" fill="#4aa3ff"/><circle cx="74.1" cy="144.3" r="3" fill="#4aa3ff"/><circle cx="77.1" cy="144.3" r="3" fill="#4aa3ff"/><circle cx="80.0" cy="136.2" r="3" fill="#4aa3ff"/><circle cx="83.0" cy="132.4" r="3" fill="#4aa3ff"/><circle cx="85.9" cy="129.6" r="3" fill="#4aa3ff"/><circle cx="88.8" cy="129.6" r="3" fill="#4aa3ff"/><circle cx="91.8" cy="121.0" r="3" fill="#4aa3ff"/><circle cx="94.7" cy="121.0" r="3" fill="#4aa3ff"/><circle cx="97.6" cy="121.0" r="3" fill="#4aa3ff"/><circle cx="100.6" cy="114.4" r="3" fill="#4aa3ff"/><circle cx="103.5" cy="114.4" r="3" fill="#4aa3ff"/><circle cx="106.4" cy="114.4" r="3" fill="#4aa3ff"/><circle cx="109.4" cy="111.3" r="3" fill="#4aa3ff"/><circle cx="112.3" cy="110.9" r="3" fill="#4aa3ff"/><circle cx="115.2" cy="110.9" r="3" fill="#4aa3ff"/><circle cx="118.2" cy="110.5" r="3" fill="#4aa3ff"/><circle cx="121.1" cy="110.5" r="3" fill="#4aa3ff"/><circle cx="124.0" cy="109.9" r="3" fill="#4aa3ff"/><circle cx="127.0" cy="108.7" r="3" fill="#4aa3ff"/><circle cx="129.9" cy="107.3" r="3" fill="#4aa3ff"/><circle cx="132.8" cy="106.9" r="3" fill="#4aa3ff"/><circle cx="135.8" cy="106.9" r="3" fill="#4aa3ff"/><circle cx="138.7" cy="106.9" r="3" fill="#4aa3ff"/><circle cx="141.6" cy="106.9" r="3" fill="#4aa3ff"/><circle cx="144.6" cy="106.9" r="3" fill="#4aa3ff"/><circle cx="147.5" cy="106.9" r="3" fill="#4aa3ff"/><circle cx="150.4" cy="106.9" r="3" fill="#4aa3ff"/><circle cx="153.4" cy="106.9" r="3" fill="#4aa3ff"/><circle cx="156.3" cy="106.9" r="3" fill="#4aa3ff"/><circle cx="159.3" cy="106.9" r="3" fill="#4aa3ff"/><circle cx="162.2" cy="113.2" r="3" fill="#4aa3ff"/><circle cx="165.1" cy="113.2" r="3" fill="#4aa3ff"/><circle cx="168.1" cy="113.2" r="3" fill="#4aa3ff"/><circle cx="171.0" cy="113.2" r="3" fill="#4aa3ff"/><circle cx="173.9" cy="113.2" r="3" fill="#4aa3ff"/><circle cx="176.9" cy="110.7" r="3" fill="#4aa3ff"/><circle cx="179.8" cy="105.3" r="3" fill="#4aa3ff"/><circle cx="182.7" cy="83.4" r="3" fill="#4aa3ff"/><circle cx="185.7" cy="83.4" r="3" fill="#4aa3ff"/><circle cx="188.6" cy="85.6" r="3" fill="#4aa3ff"/><circle cx="191.5" cy="85.6" r="3" fill="#4aa3ff"/><circle cx="194.5" cy="85.6" r="3" fill="#4aa3ff"/><circle cx="197.4" cy="85.6" r="3" fill="#4aa3ff"/><circle cx="200.3" cy="85.6" r="3" fill="#4aa3ff"/><circle cx="203.3" cy="85.8" r="3" fill="#4aa3ff"/><circle cx="206.2" cy="85.8" r="3" fill="#4aa3ff"/><circle cx="209.1" cy="85.8" r="3" fill="#4aa3ff"/><circle cx="212.1" cy="86.0" r="3" fill="#4aa3ff"/><circle cx="215.0" cy="86.0" r="3" fill="#4aa3ff"/><circle cx="217.9" cy="86.0" r="3" fill="#4aa3ff"/><circle cx="220.9" cy="86.0" r="3" fill="#4aa3ff"/><circle cx="223.8" cy="86.0" r="3" fill="#4aa3ff"/><circle cx="226.7" cy="86.0" r="3" fill="#4aa3ff"/><circle cx="229.7" cy="86.0" r="3" fill="#4aa3ff"/><circle cx="232.6" cy="86.0" r="3" fill="#4aa3ff"/><circle cx="235.6" cy="86.0" r="3" fill="#4aa3ff"/><circle cx="238.5" cy="86.0" r="3" fill="#4aa3ff"/><circle cx="241.4" cy="86.0" r="3" fill="#4aa3ff"/><circle cx="244.4" cy="86.0" r="3" fill="#4aa3ff"/><circle cx="247.3" cy="86.0" r="3" fill="#4aa3ff"/><circle cx="250.2" cy="86.0" r="3" fill="#4aa3ff"/><circle cx="253.2" cy="86.0" r="3" fill="#4aa3ff"/><circle cx="256.1" cy="86.0" r="3" fill="#4aa3ff"/><circle cx="259.0" cy="86.0" r="3" fill="#4aa3ff"/><circle cx="262.0" cy="86.0" r="3" fill="#4aa3ff"/><circle cx="264.9" cy="86.0" r="3" fill="#4aa3ff"/><circle cx="267.8" cy="86.0" r="3" fill="#4aa3ff"/><circle cx="270.8" cy="86.0" r="3" fill="#4aa3ff"/><circle cx="273.7" cy="87.0" r="3" fill="#4aa3ff"/><circle cx="276.6" cy="87.0" r="3" fill="#4aa3ff"/><circle cx="279.6" cy="87.0" r="3" fill="#4aa3ff"/><circle cx="282.5" cy="73.7" r="3" fill="#4aa3ff"/><circle cx="285.4" cy="73.7" r="3" fill="#4aa3ff"/><circle cx="288.4" cy="71.0" r="3" fill="#4aa3ff"/><circle cx="291.3" cy="71.0" r="3" fill="#4aa3ff"/><circle cx="294.2" cy="70.8" r="3" fill="#4aa3ff"/><circle cx="297.2" cy="70.6" r="3" fill="#4aa3ff"/><circle cx="300.1" cy="70.6" r="3" fill="#4aa3ff"/><circle cx="303.0" cy="70.4" r="3" fill="#4aa3ff"/><circle cx="306.0" cy="68.6" r="3" fill="#4aa3ff"/><circle cx="308.9" cy="60.5" r="3" fill="#4aa3ff"/><circle cx="311.9" cy="59.3" r="3" fill="#4aa3ff"/><circle cx="314.8" cy="52.0" r="3" fill="#4aa3ff"/><circle cx="317.7" cy="47.3" r="3" fill="#4aa3ff"/><circle cx="320.7" cy="40.1" r="3" fill="#4aa3ff"/><circle cx="323.6" cy="36.0" r="3" fill="#4aa3ff"/><circle cx="326.5" cy="36.0" r="3" fill="#4aa3ff"/><circle cx="329.5" cy="36.0" r="3" fill="#4aa3ff"/><circle cx="332.4" cy="36.0" r="3" fill="#4aa3ff"/><circle cx="335.3" cy="36.0" r="3" fill="#4aa3ff"/><circle cx="338.3" cy="36.0" r="3" fill="#4aa3ff"/><circle cx="341.2" cy="36.0" r="3" fill="#4aa3ff"/><circle cx="344.1" cy="36.0" r="3" fill="#4aa3ff"/><circle cx="347.1" cy="36.0" r="3" fill="#4aa3ff"/><circle cx="350.0" cy="36.0" r="3" fill="#4aa3ff"/><circle cx="352.9" cy="36.0" r="3" fill="#4aa3ff"/><circle cx="355.9" cy="36.0" r="3" fill="#4aa3ff"/><circle cx="358.8" cy="36.0" r="3" fill="#4aa3ff"/><circle cx="361.7" cy="36.0" r="3" fill="#4aa3ff"/><circle cx="364.7" cy="36.0" r="3" fill="#4aa3ff"/><circle cx="367.6" cy="36.0" r="3" fill="#4aa3ff"/><circle cx="370.5" cy="36.0" r="3" fill="#4aa3ff"/><circle cx="373.5" cy="36.0" r="3" fill="#4aa3ff"/><circle cx="376.4" cy="36.0" r="3" fill="#4aa3ff"/><circle cx="379.3" cy="36.0" r="3" fill="#4aa3ff"/><circle cx="382.3" cy="36.0" r="3" fill="#4aa3ff"/><circle cx="385.2" cy="36.0" r="3" fill="#4aa3ff"/><circle cx="388.1" cy="36.0" r="3" fill="#4aa3ff"/><circle cx="391.1" cy="36.0" r="3" fill="#4aa3ff"/><circle cx="394.0" cy="36.0" r="3" fill="#4aa3ff"/><circle cx="397.0" cy="36.0" r="3" fill="#4aa3ff"/><circle cx="399.9" cy="36.0" r="3" fill="#4aa3ff"/><circle cx="402.8" cy="36.0" r="3" fill="#4aa3ff"/><circle cx="405.8" cy="36.0" r="3" fill="#4aa3ff"/><circle cx="408.7" cy="36.0" r="3" fill="#4aa3ff"/><circle cx="411.6" cy="36.0" r="3" fill="#4aa3ff"/><circle cx="414.6" cy="36.0" r="3" fill="#4aa3ff"/><circle cx="417.5" cy="36.0" r="3" fill="#4aa3ff"/><circle cx="420.4" cy="36.0" r="3" fill="#4aa3ff"/><circle cx="423.4" cy="36.0" r="3" fill="#4aa3ff"/><circle cx="426.3" cy="36.0" r="3" fill="#4aa3ff"/><circle cx="429.2" cy="36.0" r="3" fill="#4aa3ff"/><circle cx="432.2" cy="36.0" r="3" fill="#4aa3ff"/><circle cx="435.1" cy="36.0" r="3" fill="#4aa3ff"/><circle cx="438.0" cy="36.0" r="3" fill="#4aa3ff"/><circle cx="441.0" cy="36.0" r="3" fill="#4aa3ff"/><circle cx="443.9" cy="36.0" r="3" fill="#4aa3ff"/><circle cx="446.8" cy="36.0" r="3" fill="#4aa3ff"/><circle cx="449.8" cy="36.0" r="3" fill="#4aa3ff"/><circle cx="452.7" cy="36.0" r="3" fill="#4aa3ff"/><circle cx="455.6" cy="36.0" r="3" fill="#4aa3ff"/><circle cx="458.6" cy="36.0" r="3" fill="#4aa3ff"/><circle cx="461.5" cy="36.0" r="3" fill="#4aa3ff"/><circle cx="464.4" cy="36.0" r="3" fill="#4aa3ff"/><circle cx="467.4" cy="36.0" r="3" fill="#4aa3ff"/><circle cx="470.3" cy="36.0" r="3" fill="#4aa3ff"/><circle cx="473.3" cy="36.0" r="3" fill="#4aa3ff"/><circle cx="476.2" cy="36.0" r="3" fill="#4aa3ff"/><circle cx="479.1" cy="36.0" r="3" fill="#4aa3ff"/><circle cx="482.1" cy="36.0" r="3" fill="#4aa3ff"/><circle cx="485.0" cy="36.0" r="3" fill="#4aa3ff"/><circle cx="487.9" cy="36.0" r="3" fill="#4aa3ff"/><circle cx="490.9" cy="36.0" r="3" fill="#4aa3ff"/><circle cx="493.8" cy="36.0" r="3" fill="#4aa3ff"/><circle cx="496.7" cy="36.0" r="3" fill="#4aa3ff"/><circle cx="499.7" cy="36.0" r="3" fill="#4aa3ff"/><circle cx="502.6" cy="36.0" r="3" fill="#4aa3ff"/><circle cx="505.5" cy="36.0" r="3" fill="#4aa3ff"/><circle cx="508.5" cy="36.0" r="3" fill="#4aa3ff"/><circle cx="511.4" cy="36.0" r="3" fill="#4aa3ff"/><circle cx="514.3" cy="36.0" r="3" fill="#4aa3ff"/><circle cx="517.3" cy="36.0" r="3" fill="#4aa3ff"/><circle cx="520.2" cy="36.0" r="3" fill="#4aa3ff"/><circle cx="523.1" cy="36.0" r="3" fill="#4aa3ff"/><circle cx="526.1" cy="36.0" r="3" fill="#4aa3ff"/><circle cx="529.0" cy="36.0" r="3" fill="#4aa3ff"/><circle cx="531.9" cy="36.0" r="3" fill="#4aa3ff"/><circle cx="534.9" cy="36.0" r="3" fill="#4aa3ff"/><circle cx="537.8" cy="36.0" r="3" fill="#4aa3ff"/><circle cx="540.7" cy="36.0" r="3" fill="#4aa3ff"/><circle cx="543.7" cy="36.0" r="3" fill="#4aa3ff"/><circle cx="546.6" cy="36.0" r="3" fill="#4aa3ff"/><circle cx="549.6" cy="36.0" r="3" fill="#4aa3ff"/><circle cx="552.5" cy="36.0" r="3" fill="#4aa3ff"/><circle cx="555.4" cy="36.0" r="3" fill="#4aa3ff"/><circle cx="558.4" cy="36.0" r="3" fill="#4aa3ff"/><circle cx="561.3" cy="36.0" r="3" fill="#4aa3ff"/><circle cx="564.2" cy="36.0" r="3" fill="#4aa3ff"/><circle cx="567.2" cy="36.0" r="3" fill="#4aa3ff"/><circle cx="570.1" cy="36.0" r="3" fill="#4aa3ff"/><circle cx="573.0" cy="36.0" r="3" fill="#4aa3ff"/><circle cx="576.0" cy="36.0" r="3" fill="#4aa3ff"/><circle cx="578.9" cy="36.0" r="3" fill="#4aa3ff"/><circle cx="581.8" cy="36.0" r="3" fill="#4aa3ff"/><circle cx="584.8" cy="36.0" r="3" fill="#4aa3ff"/><circle cx="587.7" cy="36.0" r="3" fill="#4aa3ff"/><circle cx="590.6" cy="36.0" r="3" fill="#4aa3ff"/><circle cx="593.6" cy="36.0" r="3" fill="#4aa3ff"/><circle cx="596.5" cy="36.0" r="3" fill="#4aa3ff"/><circle cx="599.4" cy="36.0" r="3" fill="#4aa3ff"/><circle cx="602.4" cy="36.0" r="3" fill="#4aa3ff"/><circle cx="605.3" cy="36.0" r="3" fill="#4aa3ff"/><circle cx="608.2" cy="36.0" r="3" fill="#4aa3ff"/><circle cx="611.2" cy="36.0" r="3" fill="#4aa3ff"/><circle cx="614.1" cy="36.0" r="3" fill="#4aa3ff"/><circle cx="617.0" cy="36.0" r="3" fill="#4aa3ff"/><circle cx="620.0" cy="36.0" r="3" fill="#4aa3ff"/><circle cx="622.9" cy="36.0" r="3" fill="#4aa3ff"/><circle cx="625.9" cy="36.0" r="3" fill="#4aa3ff"/><circle cx="628.8" cy="36.0" r="3" fill="#4aa3ff"/><circle cx="631.7" cy="36.0" r="3" fill="#4aa3ff"/><circle cx="634.7" cy="36.0" r="3" fill="#4aa3ff"/><circle cx="637.6" cy="36.0" r="3" fill="#4aa3ff"/><circle cx="640.5" cy="36.0" r="3" fill="#4aa3ff"/><circle cx="643.5" cy="36.0" r="3" fill="#4aa3ff"/><circle cx="646.4" cy="36.0" r="3" fill="#4aa3ff"/><circle cx="649.3" cy="36.0" r="3" fill="#4aa3ff"/><circle cx="652.3" cy="36.0" r="3" fill="#4aa3ff"/><circle cx="655.2" cy="36.0" r="3" fill="#4aa3ff"/><circle cx="658.1" cy="36.0" r="3" fill="#4aa3ff"/><circle cx="661.1" cy="36.0" r="3" fill="#4aa3ff"/><circle cx="664.0" cy="36.0" r="3" fill="#4aa3ff"/>
<text x="36" y="225" fill="#6b7280" font-size="11">2026-06-26</text>
<text x="664" y="225" fill="#6b7280" font-size="11" text-anchor="end">2026-07-18</text>
<text x="36" y="212" font-family="system-ui,sans-serif" font-size="11">
<tspan fill="#4aa3ff">&#9679; open FPs</tspan>  <tspan fill="#3fb950">&#9679; closed (Anthropic acting)</tspan>  <tspan fill="#8a5a5a">&#9679; harness withdrawn</tspan></text>
<text x="664" y="22" text-anchor="end" font-family="system-ui,sans-serif" font-size="12">
<tspan fill="#4aa3ff">open 800</tspan>  <tspan fill="#3fb950">closed 0</tspan>  <tspan fill="#8a5a5a">harness 0</tspan></text>
</svg>