<svg xmlns="http://www.w3.org/2000/svg" width="700" height="234" viewBox="0 0 700 234" role="img">
<rect width="700" height="234" rx="12" fill="#16181d"/>
<text x="36" y="22" fill="#e8eaed" font-family="system-ui,sans-serif" font-size="14" font-weight="700">Is Anthropic acting? cyber/aup false positives over time</text>
<line x1="36" y1="198.0" x2="664" y2="198.0" stroke="#2a2e37" stroke-width="1"/><text x="30" y="202.0" fill="#6b7280" font-size="11" text-anchor="end">0</text><line x1="36" y1="117.0" x2="664" y2="117.0" stroke="#2a2e37" stroke-width="1"/><text x="30" y="121.0" fill="#6b7280" font-size="11" text-anchor="end">400</text><line x1="36" y1="36.0" x2="664" y2="36.0" stroke="#2a2e37" stroke-width="1"/><text x="30" y="40.0" fill="#6b7280" font-size="11" text-anchor="end">800</text>

<polyline fill="none" stroke="#8a5a5a" stroke-width="2.5" stroke-linejoin="round" points="36.0,145.1 39.4,145.1 42.7,145.1 46.1,145.1 49.4,145.1 52.8,145.1 56.1,145.1 59.5,145.1 62.9,145.1 66.2,145.1 69.6,145.1 72.9,145.1 76.3,145.1 79.7,145.1 83.0,145.1 86.4,145.1 89.7,145.1 93.1,145.1 96.4,145.1 99.8,145.1 103.2,145.1 106.5,145.1 109.9,145.1 113.2,145.1 116.6,145.1 120.0,145.1 123.3,145.1 126.7,145.1 130.0,145.1 133.4,145.1 136.7,145.1 140.1,145.1 143.5,145.1 146.8,145.1 150.2,145.1 153.5,145.1 156.9,145.1 160.3,145.1 163.6,145.1 167.0,145.1 170.3,145.1 173.7,145.1 177.0,145.1 180.4,145.1 183.8,145.1 187.1,145.1 190.5,145.1 193.8,145.1 197.2,145.1 200.6,145.1 203.9,155.7 207.3,155.7 210.6,155.7 214.0,155.7 217.3,155.7 220.7,155.7 224.1,155.7 227.4,155.7 230.8,155.7 234.1,155.7 237.5,155.7 240.9,155.7 244.2,155.7 247.6,155.7 250.9,155.7 254.3,155.7 257.6,155.7 261.0,155.7 264.4,155.7 267.7,155.7 271.1,155.7 274.4,155.7 277.8,155.7 281.2,155.7 284.5,155.7 287.9,155.7 291.2,155.7 294.6,155.7 297.9,155.7 301.3,155.7 304.7,155.7 308.0,155.7 311.4,155.7 314.7,155.7 318.1,167.6 321.5,167.6 324.8,170.3 328.2,170.3 331.5,170.5 334.9,170.7 338.2,170.7 341.6,170.9 345.0,172.7 348.3,180.6 351.7,181.8 355.0,189.1 358.4,190.5 361.8,195.2 365.1,198.0 368.5,198.0 371.8,198.0 375.2,198.0 378.5,198.0 381.9,198.0 385.3,198.0 388.6,198.0 392.0,198.0 395.3,198.0 398.7,198.0 402.1,198.0 405.4,198.0 408.8,198.0 412.1,198.0 415.5,198.0 418.8,198.0 422.2,198.0 425.6,198.0 428.9,198.0 432.3,198.0 435.6,198.0 439.0,198.0 442.4,198.0 445.7,198.0 449.1,198.0 452.4,198.0 455.8,198.0 459.1,198.0 462.5,198.0 465.9,198.0 469.2,198.0 472.6,198.0 475.9,198.0 479.3,198.0 482.7,198.0 486.0,198.0 489.4,198.0 492.7,198.0 496.1,198.0 499.4,198.0 502.8,198.0 506.2,198.0 509.5,198.0 512.9,198.0 516.2,198.0 519.6,198.0 523.0,198.0 526.3,198.0 529.7,198.0 533.0,198.0 536.4,198.0 539.7,198.0 543.1,198.0 546.5,198.0 549.8,198.0 553.2,198.0 556.5,198.0 559.9,198.0 563.3,198.0 566.6,198.0 570.0,198.0 573.3,198.0 576.7,198.0 580.0,198.0 583.4,198.0 586.8,198.0 590.1,198.0 593.5,198.0 596.8,198.0 600.2,198.0 603.6,198.0 606.9,198.0 610.3,198.0 613.6,198.0 617.0,198.0 620.3,198.0 623.7,198.0 627.1,198.0 630.4,198.0 633.8,198.0 637.1,198.0 640.5,198.0 643.9,198.0 647.2,198.0 650.6,198.0 653.9,198.0 657.3,198.0 660.6,198.0 664.0,198.0"/><circle cx="36.0" cy="145.1" r="3" fill="#8a5a5a"/><circle cx="39.4" cy="145.1" r="3" fill="#8a5a5a"/><circle cx="42.7" cy="145.1" r="3" fill="#8a5a5a"/><circle cx="46.1" cy="145.1" r="3" fill="#8a5a5a"/><circle cx="49.4" cy="145.1" r="3" fill="#8a5a5a"/><circle cx="52.8" cy="145.1" r="3" fill="#8a5a5a"/><circle cx="56.1" cy="145.1" r="3" fill="#8a5a5a"/><circle cx="59.5" cy="145.1" r="3" fill="#8a5a5a"/><circle cx="62.9" cy="145.1" r="3" fill="#8a5a5a"/><circle cx="66.2" cy="145.1" r="3" fill="#8a5a5a"/><circle cx="69.6" cy="145.1" r="3" fill="#8a5a5a"/><circle cx="72.9" cy="145.1" r="3" fill="#8a5a5a"/><circle cx="76.3" cy="145.1" r="3" fill="#8a5a5a"/><circle cx="79.7" cy="145.1" r="3" fill="#8a5a5a"/><circle cx="83.0" cy="145.1" r="3" fill="#8a5a5a"/><circle cx="86.4" cy="145.1" r="3" fill="#8a5a5a"/><circle cx="89.7" cy="145.1" r="3" fill="#8a5a5a"/><circle cx="93.1" cy="145.1" r="3" fill="#8a5a5a"/><circle cx="96.4" cy="145.1" r="3" fill="#8a5a5a"/><circle cx="99.8" cy="145.1" r="3" fill="#8a5a5a"/><circle cx="103.2" cy="145.1" r="3" fill="#8a5a5a"/><circle cx="106.5" cy="145.1" r="3" fill="#8a5a5a"/><circle cx="109.9" cy="145.1" r="3" fill="#8a5a5a"/><circle cx="113.2" cy="145.1" r="3" fill="#8a5a5a"/><circle cx="116.6" cy="145.1" r="3" fill="#8a5a5a"/><circle cx="120.0" cy="145.1" r="3" fill="#8a5a5a"/><circle cx="123.3" cy="145.1" r="3" fill="#8a5a5a"/><circle cx="126.7" cy="145.1" r="3" fill="#8a5a5a"/><circle cx="130.0" cy="145.1" r="3" fill="#8a5a5a"/><circle cx="133.4" cy="145.1" r="3" fill="#8a5a5a"/><circle cx="136.7" cy="145.1" r="3" fill="#8a5a5a"/><circle cx="140.1" cy="145.1" r="3" fill="#8a5a5a"/><circle cx="143.5" cy="145.1" r="3" fill="#8a5a5a"/><circle cx="146.8" cy="145.1" r="3" fill="#8a5a5a"/><circle cx="150.2" cy="145.1" r="3" fill="#8a5a5a"/><circle cx="153.5" cy="145.1" r="3" fill="#8a5a5a"/><circle cx="156.9" cy="145.1" r="3" fill="#8a5a5a"/><circle cx="160.3" cy="145.1" r="3" fill="#8a5a5a"/><circle cx="163.6" cy="145.1" r="3" fill="#8a5a5a"/><circle cx="167.0" cy="145.1" r="3" fill="#8a5a5a"/><circle cx="170.3" cy="145.1" r="3" fill="#8a5a5a"/><circle cx="173.7" cy="145.1" r="3" fill="#8a5a5a"/><circle cx="177.0" cy="145.1" r="3" fill="#8a5a5a"/><circle cx="180.4" cy="145.1" r="3" fill="#8a5a5a"/><circle cx="183.8" cy="145.1" r="3" fill="#8a5a5a"/><circle cx="187.1" cy="145.1" r="3" fill="#8a5a5a"/><circle cx="190.5" cy="145.1" r="3" fill="#8a5a5a"/><circle cx="193.8" cy="145.1" r="3" fill="#8a5a5a"/><circle cx="197.2" cy="145.1" r="3" fill="#8a5a5a"/><circle cx="200.6" cy="145.1" r="3" fill="#8a5a5a"/><circle cx="203.9" cy="155.7" r="3" fill="#8a5a5a"/><circle cx="207.3" cy="155.7" r="3" fill="#8a5a5a"/><circle cx="210.6" cy="155.7" r="3" fill="#8a5a5a"/><circle cx="214.0" cy="155.7" r="3" fill="#8a5a5a"/><circle cx="217.3" cy="155.7" r="3" fill="#8a5a5a"/><circle cx="220.7" cy="155.7" r="3" fill="#8a5a5a"/><circle cx="224.1" cy="155.7" r="3" fill="#8a5a5a"/><circle cx="227.4" cy="155.7" r="3" fill="#8a5a5a"/><circle cx="230.8" cy="155.7" r="3" fill="#8a5a5a"/><circle cx="234.1" cy="155.7" r="3" fill="#8a5a5a"/><circle cx="237.5" cy="155.7" r="3" fill="#8a5a5a"/><circle cx="240.9" cy="155.7" r="3" fill="#8a5a5a"/><circle cx="244.2" cy="155.7" r="3" fill="#8a5a5a"/><circle cx="247.6" cy="155.7" r="3" fill="#8a5a5a"/><circle cx="250.9" cy="155.7" r="3" fill="#8a5a5a"/><circle cx="254.3" cy="155.7" r="3" fill="#8a5a5a"/><circle cx="257.6" cy="155.7" r="3" fill="#8a5a5a"/><circle cx="261.0" cy="155.7" r="3" fill="#8a5a5a"/><circle cx="264.4" cy="155.7" r="3" fill="#8a5a5a"/><circle cx="267.7" cy="155.7" r="3" fill="#8a5a5a"/><circle cx="271.1" cy="155.7" r="3" fill="#8a5a5a"/><circle cx="274.4" cy="155.7" r="3" fill="#8a5a5a"/><circle cx="277.8" cy="155.7" r="3" fill="#8a5a5a"/><circle cx="281.2" cy="155.7" r="3" fill="#8a5a5a"/><circle cx="284.5" cy="155.7" r="3" fill="#8a5a5a"/><circle cx="287.9" cy="155.7" r="3" fill="#8a5a5a"/><circle cx="291.2" cy="155.7" r="3" fill="#8a5a5a"/><circle cx="294.6" cy="155.7" r="3" fill="#8a5a5a"/><circle cx="297.9" cy="155.7" r="3" fill="#8a5a5a"/><circle cx="301.3" cy="155.7" r="3" fill="#8a5a5a"/><circle cx="304.7" cy="155.7" r="3" fill="#8a5a5a"/><circle cx="308.0" cy="155.7" r="3" fill="#8a5a5a"/><circle cx="311.4" cy="155.7" r="3" fill="#8a5a5a"/><circle cx="314.7" cy="155.7" r="3" fill="#8a5a5a"/><circle cx="318.1" cy="167.6" r="3" fill="#8a5a5a"/><circle cx="321.5" cy="167.6" r="3" fill="#8a5a5a"/><circle cx="324.8" cy="170.3" r="3" fill="#8a5a5a"/><circle cx="328.2" cy="170.3" r="3" fill="#8a5a5a"/><circle cx="331.5" cy="170.5" r="3" fill="#8a5a5a"/><circle cx="334.9" cy="170.7" r="3" fill="#8a5a5a"/><circle cx="338.2" cy="170.7" r="3" fill="#8a5a5a"/><circle cx="341.6" cy="170.9" r="3" fill="#8a5a5a"/><circle cx="345.0" cy="172.7" r="3" fill="#8a5a5a"/><circle cx="348.3" cy="180.6" r="3" fill="#8a5a5a"/><circle cx="351.7" cy="181.8" r="3" fill="#8a5a5a"/><circle cx="355.0" cy="189.1" r="3" fill="#8a5a5a"/><circle cx="358.4" cy="190.5" r="3" fill="#8a5a5a"/><circle cx="361.8" cy="195.2" r="3" fill="#8a5a5a"/><circle cx="365.1" cy="198.0" r="3" fill="#8a5a5a"/><circle cx="368.5" cy="198.0" r="3" fill="#8a5a5a"/><circle cx="371.8" cy="198.0" r="3" fill="#8a5a5a"/><circle cx="375.2" cy="198.0" r="3" fill="#8a5a5a"/><circle cx="378.5" cy="198.0" r="3" fill="#8a5a5a"/><circle cx="381.9" cy="198.0" r="3" fill="#8a5a5a"/><circle cx="385.3" cy="198.0" r="3" fill="#8a5a5a"/><circle cx="388.6" cy="198.0" r="3" fill="#8a5a5a"/><circle cx="392.0" cy="198.0" r="3" fill="#8a5a5a"/><circle cx="395.3" cy="198.0" r="3" fill="#8a5a5a"/><circle cx="398.7" cy="198.0" r="3" fill="#8a5a5a"/><circle cx="402.1" cy="198.0" r="3" fill="#8a5a5a"/><circle cx="405.4" cy="198.0" r="3" fill="#8a5a5a"/><circle cx="408.8" cy="198.0" r="3" fill="#8a5a5a"/><circle cx="412.1" cy="198.0" r="3" fill="#8a5a5a"/><circle cx="415.5" cy="198.0" r="3" fill="#8a5a5a"/><circle cx="418.8" cy="198.0" r="3" fill="#8a5a5a"/><circle cx="422.2" cy="198.0" r="3" fill="#8a5a5a"/><circle cx="425.6" cy="198.0" r="3" fill="#8a5a5a"/><circle cx="428.9" cy="198.0" r="3" fill="#8a5a5a"/><circle cx="432.3" cy="198.0" r="3" fill="#8a5a5a"/><circle cx="435.6" cy="198.0" r="3" fill="#8a5a5a"/><circle cx="439.0" cy="198.0" r="3" fill="#8a5a5a"/><circle cx="442.4" cy="198.0" r="3" fill="#8a5a5a"/><circle cx="445.7" cy="198.0" r="3" fill="#8a5a5a"/><circle cx="449.1" cy="198.0" r="3" fill="#8a5a5a"/><circle cx="452.4" cy="198.0" r="3" fill="#8a5a5a"/><circle cx="455.8" cy="198.0" r="3" fill="#8a5a5a"/><circle cx="459.1" cy="198.0" r="3" fill="#8a5a5a"/><circle cx="462.5" cy="198.0" r="3" fill="#8a5a5a"/><circle cx="465.9" cy="198.0" r="3" fill="#8a5a5a"/><circle cx="469.2" cy="198.0" r="3" fill="#8a5a5a"/><circle cx="472.6" cy="198.0" r="3" fill="#8a5a5a"/><circle cx="475.9" cy="198.0" r="3" fill="#8a5a5a"/><circle cx="479.3" cy="198.0" r="3" fill="#8a5a5a"/><circle cx="482.7" cy="198.0" r="3" fill="#8a5a5a"/><circle cx="486.0" cy="198.0" r="3" fill="#8a5a5a"/><circle cx="489.4" cy="198.0" r="3" fill="#8a5a5a"/><circle cx="492.7" cy="198.0" r="3" fill="#8a5a5a"/><circle cx="496.1" cy="198.0" r="3" fill="#8a5a5a"/><circle cx="499.4" cy="198.0" r="3" fill="#8a5a5a"/><circle cx="502.8" cy="198.0" r="3" fill="#8a5a5a"/><circle cx="506.2" cy="198.0" r="3" fill="#8a5a5a"/><circle cx="509.5" cy="198.0" r="3" fill="#8a5a5a"/><circle cx="512.9" cy="198.0" r="3" fill="#8a5a5a"/><circle cx="516.2" cy="198.0" r="3" fill="#8a5a5a"/><circle cx="519.6" cy="198.0" r="3" fill="#8a5a5a"/><circle cx="523.0" cy="198.0" r="3" fill="#8a5a5a"/><circle cx="526.3" cy="198.0" r="3" fill="#8a5a5a"/><circle cx="529.7" cy="198.0" r="3" fill="#8a5a5a"/><circle cx="533.0" cy="198.0" r="3" fill="#8a5a5a"/><circle cx="536.4" cy="198.0" r="3" fill="#8a5a5a"/><circle cx="539.7" cy="198.0" r="3" fill="#8a5a5a"/><circle cx="543.1" cy="198.0" r="3" fill="#8a5a5a"/><circle cx="546.5" cy="198.0" r="3" fill="#8a5a5a"/><circle cx="549.8" cy="198.0" r="3" fill="#8a5a5a"/><circle cx="553.2" cy="198.0" r="3" fill="#8a5a5a"/><circle cx="556.5" cy="198.0" r="3" fill="#8a5a5a"/><circle cx="559.9" cy="198.0" r="3" fill="#8a5a5a"/><circle cx="563.3" cy="198.0" r="3" fill="#8a5a5a"/><circle cx="566.6" cy="198.0" r="3" fill="#8a5a5a"/><circle cx="570.0" cy="198.0" r="3" fill="#8a5a5a"/><circle cx="573.3" cy="198.0" r="3" fill="#8a5a5a"/><circle cx="576.7" cy="198.0" r="3" fill="#8a5a5a"/><circle cx="580.0" cy="198.0" r="3" fill="#8a5a5a"/><circle cx="583.4" cy="198.0" r="3" fill="#8a5a5a"/><circle cx="586.8" cy="198.0" r="3" fill="#8a5a5a"/><circle cx="590.1" cy="198.0" r="3" fill="#8a5a5a"/><circle cx="593.5" cy="198.0" r="3" fill="#8a5a5a"/><circle cx="596.8" cy="198.0" r="3" fill="#8a5a5a"/><circle cx="600.2" cy="198.0" r="3" fill="#8a5a5a"/><circle cx="603.6" cy="198.0" r="3" fill="#8a5a5a"/><circle cx="606.9" cy="198.0" r="3" fill="#8a5a5a"/><circle cx="610.3" cy="198.0" r="3" fill="#8a5a5a"/><circle cx="613.6" cy="198.0" r="3" fill="#8a5a5a"/><circle cx="617.0" cy="198.0" r="3" fill="#8a5a5a"/><circle cx="620.3" cy="198.0" r="3" fill="#8a5a5a"/><circle cx="623.7" cy="198.0" r="3" fill="#8a5a5a"/><circle cx="627.1" cy="198.0" r="3" fill="#8a5a5a"/><circle cx="630.4" cy="198.0" r="3" fill="#8a5a5a"/><circle cx="633.8" cy="198.0" r="3" fill="#8a5a5a"/><circle cx="637.1" cy="198.0" r="3" fill="#8a5a5a"/><circle cx="640.5" cy="198.0" r="3" fill="#8a5a5a"/><circle cx="643.9" cy="198.0" r="3" fill="#8a5a5a"/><circle cx="647.2" cy="198.0" r="3" fill="#8a5a5a"/><circle cx="650.6" cy="198.0" r="3" fill="#8a5a5a"/><circle cx="653.9" cy="198.0" r="3" fill="#8a5a5a"/><circle cx="657.3" cy="198.0" r="3" fill="#8a5a5a"/><circle cx="660.6" cy="198.0" r="3" fill="#8a5a5a"/><circle cx="664.0" cy="198.0" r="3" fill="#8a5a5a"/>
<polyline fill="none" stroke="#3fb950" stroke-width="2.5" stroke-linejoin="round" points="36.0,198.0 39.4,198.0 42.7,198.0 46.1,198.0 49.4,198.0 52.8,198.0 56.1,198.0 59.5,198.0 62.9,198.0 66.2,198.0 69.6,198.0 72.9,198.0 76.3,198.0 79.7,198.0 83.0,198.0 86.4,198.0 89.7,198.0 93.1,198.0 96.4,198.0 99.8,198.0 103.2,198.0 106.5,198.0 109.9,198.0 113.2,198.0 116.6,198.0 120.0,198.0 123.3,198.0 126.7,198.0 130.0,198.0 133.4,198.0 136.7,198.0 140.1,198.0 143.5,198.0 146.8,198.0 150.2,198.0 153.5,198.0 156.9,198.0 160.3,198.0 163.6,198.0 167.0,198.0 170.3,198.0 173.7,198.0 177.0,198.0 180.4,191.7 183.8,191.7 187.1,191.7 190.5,191.7 193.8,191.7 197.2,191.7 200.6,191.7 203.9,192.9 207.3,192.9 210.6,190.7 214.0,190.7 217.3,190.7 220.7,190.7 224.1,190.7 227.4,190.5 230.8,190.5 234.1,190.5 237.5,190.3 240.9,190.3 244.2,190.3 247.6,190.3 250.9,190.3 254.3,190.3 257.6,190.3 261.0,190.3 264.4,190.3 267.7,190.3 271.1,190.3 274.4,190.3 277.8,190.3 281.2,190.3 284.5,190.3 287.9,190.3 291.2,190.3 294.6,190.3 297.9,190.3 301.3,190.3 304.7,190.3 308.0,189.3 311.4,189.3 314.7,189.3 318.1,190.7 321.5,190.7 324.8,190.7 328.2,190.7 331.5,190.7 334.9,190.7 338.2,190.7 341.6,190.7 345.0,190.7 348.3,190.9 351.7,190.9 355.0,190.9 358.4,194.2 361.8,196.8 365.1,198.0 368.5,198.0 371.8,198.0 375.2,198.0 378.5,198.0 381.9,198.0 385.3,198.0 388.6,198.0 392.0,198.0 395.3,198.0 398.7,198.0 402.1,198.0 405.4,198.0 408.8,198.0 412.1,198.0 415.5,198.0 418.8,198.0 422.2,198.0 425.6,198.0 428.9,198.0 432.3,198.0 435.6,198.0 439.0,198.0 442.4,198.0 445.7,198.0 449.1,198.0 452.4,198.0 455.8,198.0 459.1,198.0 462.5,198.0 465.9,198.0 469.2,198.0 472.6,198.0 475.9,198.0 479.3,198.0 482.7,198.0 486.0,198.0 489.4,198.0 492.7,198.0 496.1,198.0 499.4,198.0 502.8,198.0 506.2,198.0 509.5,198.0 512.9,198.0 516.2,198.0 519.6,198.0 523.0,198.0 526.3,198.0 529.7,198.0 533.0,198.0 536.4,198.0 539.7,198.0 543.1,198.0 546.5,198.0 549.8,198.0 553.2,198.0 556.5,198.0 559.9,198.0 563.3,198.0 566.6,198.0 570.0,198.0 573.3,198.0 576.7,198.0 580.0,198.0 583.4,198.0 586.8,198.0 590.1,198.0 593.5,198.0 596.8,198.0 600.2,198.0 603.6,198.0 606.9,198.0 610.3,198.0 613.6,198.0 617.0,198.0 620.3,198.0 623.7,198.0 627.1,198.0 630.4,198.0 633.8,198.0 637.1,198.0 640.5,198.0 643.9,198.0 647.2,198.0 650.6,198.0 653.9,198.0 657.3,198.0 660.6,198.0 664.0,198.0"/><circle cx="36.0" cy="198.0" r="3" fill="#3fb950"/><circle cx="39.4" cy="198.0" r="3" fill="#3fb950"/><circle cx="42.7" cy="198.0" r="3" fill="#3fb950"/><circle cx="46.1" cy="198.0" r="3" fill="#3fb950"/><circle cx="49.4" cy="198.0" r="3" fill="#3fb950"/><circle cx="52.8" cy="198.0" r="3" fill="#3fb950"/><circle cx="56.1" cy="198.0" r="3" fill="#3fb950"/><circle cx="59.5" cy="198.0" r="3" fill="#3fb950"/><circle cx="62.9" cy="198.0" r="3" fill="#3fb950"/><circle cx="66.2" cy="198.0" r="3" fill="#3fb950"/><circle cx="69.6" cy="198.0" r="3" fill="#3fb950"/><circle cx="72.9" cy="198.0" r="3" fill="#3fb950"/><circle cx="76.3" cy="198.0" r="3" fill="#3fb950"/><circle cx="79.7" cy="198.0" r="3" fill="#3fb950"/><circle cx="83.0" cy="198.0" r="3" fill="#3fb950"/><circle cx="86.4" cy="198.0" r="3" fill="#3fb950"/><circle cx="89.7" cy="198.0" r="3" fill="#3fb950"/><circle cx="93.1" cy="198.0" r="3" fill="#3fb950"/><circle cx="96.4" cy="198.0" r="3" fill="#3fb950"/><circle cx="99.8" cy="198.0" r="3" fill="#3fb950"/><circle cx="103.2" cy="198.0" r="3" fill="#3fb950"/><circle cx="106.5" cy="198.0" r="3" fill="#3fb950"/><circle cx="109.9" cy="198.0" r="3" fill="#3fb950"/><circle cx="113.2" cy="198.0" r="3" fill="#3fb950"/><circle cx="116.6" cy="198.0" r="3" fill="#3fb950"/><circle cx="120.0" cy="198.0" r="3" fill="#3fb950"/><circle cx="123.3" cy="198.0" r="3" fill="#3fb950"/><circle cx="126.7" cy="198.0" r="3" fill="#3fb950"/><circle cx="130.0" cy="198.0" r="3" fill="#3fb950"/><circle cx="133.4" cy="198.0" r="3" fill="#3fb950"/><circle cx="136.7" cy="198.0" r="3" fill="#3fb950"/><circle cx="140.1" cy="198.0" r="3" fill="#3fb950"/><circle cx="143.5" cy="198.0" r="3" fill="#3fb950"/><circle cx="146.8" cy="198.0" r="3" fill="#3fb950"/><circle cx="150.2" cy="198.0" r="3" fill="#3fb950"/><circle cx="153.5" cy="198.0" r="3" fill="#3fb950"/><circle cx="156.9" cy="198.0" r="3" fill="#3fb950"/><circle cx="160.3" cy="198.0" r="3" fill="#3fb950"/><circle cx="163.6" cy="198.0" r="3" fill="#3fb950"/><circle cx="167.0" cy="198.0" r="3" fill="#3fb950"/><circle cx="170.3" cy="198.0" r="3" fill="#3fb950"/><circle cx="173.7" cy="198.0" r="3" fill="#3fb950"/><circle cx="177.0" cy="198.0" r="3" fill="#3fb950"/><circle cx="180.4" cy="191.7" r="3" fill="#3fb950"/><circle cx="183.8" cy="191.7" r="3" fill="#3fb950"/><circle cx="187.1" cy="191.7" r="3" fill="#3fb950"/><circle cx="190.5" cy="191.7" r="3" fill="#3fb950"/><circle cx="193.8" cy="191.7" r="3" fill="#3fb950"/><circle cx="197.2" cy="191.7" r="3" fill="#3fb950"/><circle cx="200.6" cy="191.7" r="3" fill="#3fb950"/><circle cx="203.9" cy="192.9" r="3" fill="#3fb950"/><circle cx="207.3" cy="192.9" r="3" fill="#3fb950"/><circle cx="210.6" cy="190.7" r="3" fill="#3fb950"/><circle cx="214.0" cy="190.7" r="3" fill="#3fb950"/><circle cx="217.3" cy="190.7" r="3" fill="#3fb950"/><circle cx="220.7" cy="190.7" r="3" fill="#3fb950"/><circle cx="224.1" cy="190.7" r="3" fill="#3fb950"/><circle cx="227.4" cy="190.5" r="3" fill="#3fb950"/><circle cx="230.8" cy="190.5" r="3" fill="#3fb950"/><circle cx="234.1" cy="190.5" r="3" fill="#3fb950"/><circle cx="237.5" cy="190.3" r="3" fill="#3fb950"/><circle cx="240.9" cy="190.3" r="3" fill="#3fb950"/><circle cx="244.2" cy="190.3" r="3" fill="#3fb950"/><circle cx="247.6" cy="190.3" r="3" fill="#3fb950"/><circle cx="250.9" cy="190.3" r="3" fill="#3fb950"/><circle cx="254.3" cy="190.3" r="3" fill="#3fb950"/><circle cx="257.6" cy="190.3" r="3" fill="#3fb950"/><circle cx="261.0" cy="190.3" r="3" fill="#3fb950"/><circle cx="264.4" cy="190.3" r="3" fill="#3fb950"/><circle cx="267.7" cy="190.3" r="3" fill="#3fb950"/><circle cx="271.1" cy="190.3" r="3" fill="#3fb950"/><circle cx="274.4" cy="190.3" r="3" fill="#3fb950"/><circle cx="277.8" cy="190.3" r="3" fill="#3fb950"/><circle cx="281.2" cy="190.3" r="3" fill="#3fb950"/><circle cx="284.5" cy="190.3" r="3" fill="#3fb950"/><circle cx="287.9" cy="190.3" r="3" fill="#3fb950"/><circle cx="291.2" cy="190.3" r="3" fill="#3fb950"/><circle cx="294.6" cy="190.3" r="3" fill="#3fb950"/><circle cx="297.9" cy="190.3" r="3" fill="#3fb950"/><circle cx="301.3" cy="190.3" r="3" fill="#3fb950"/><circle cx="304.7" cy="190.3" r="3" fill="#3fb950"/><circle cx="308.0" cy="189.3" r="3" fill="#3fb950"/><circle cx="311.4" cy="189.3" r="3" fill="#3fb950"/><circle cx="314.7" cy="189.3" r="3" fill="#3fb950"/><circle cx="318.1" cy="190.7" r="3" fill="#3fb950"/><circle cx="321.5" cy="190.7" r="3" fill="#3fb950"/><circle cx="324.8" cy="190.7" r="3" fill="#3fb950"/><circle cx="328.2" cy="190.7" r="3" fill="#3fb950"/><circle cx="331.5" cy="190.7" r="3" fill="#3fb950"/><circle cx="334.9" cy="190.7" r="3" fill="#3fb950"/><circle cx="338.2" cy="190.7" r="3" fill="#3fb950"/><circle cx="341.6" cy="190.7" r="3" fill="#3fb950"/><circle cx="345.0" cy="190.7" r="3" fill="#3fb950"/><circle cx="348.3" cy="190.9" r="3" fill="#3fb950"/><circle cx="351.7" cy="190.9" r="3" fill="#3fb950"/><circle cx="355.0" cy="190.9" r="3" fill="#3fb950"/><circle cx="358.4" cy="194.2" r="3" fill="#3fb950"/><circle cx="361.8" cy="196.8" r="3" fill="#3fb950"/><circle cx="365.1" cy="198.0" r="3" fill="#3fb950"/><circle cx="368.5" cy="198.0" r="3" fill="#3fb950"/><circle cx="371.8" cy="198.0" r="3" fill="#3fb950"/><circle cx="375.2" cy="198.0" r="3" fill="#3fb950"/><circle cx="378.5" cy="198.0" r="3" fill="#3fb950"/><circle cx="381.9" cy="198.0" r="3" fill="#3fb950"/><circle cx="385.3" cy="198.0" r="3" fill="#3fb950"/><circle cx="388.6" cy="198.0" r="3" fill="#3fb950"/><circle cx="392.0" cy="198.0" r="3" fill="#3fb950"/><circle cx="395.3" cy="198.0" r="3" fill="#3fb950"/><circle cx="398.7" cy="198.0" r="3" fill="#3fb950"/><circle cx="402.1" cy="198.0" r="3" fill="#3fb950"/><circle cx="405.4" cy="198.0" r="3" fill="#3fb950"/><circle cx="408.8" cy="198.0" r="3" fill="#3fb950"/><circle cx="412.1" cy="198.0" r="3" fill="#3fb950"/><circle cx="415.5" cy="198.0" r="3" fill="#3fb950"/><circle cx="418.8" cy="198.0" r="3" fill="#3fb950"/><circle cx="422.2" cy="198.0" r="3" fill="#3fb950"/><circle cx="425.6" cy="198.0" r="3" fill="#3fb950"/><circle cx="428.9" cy="198.0" r="3" fill="#3fb950"/><circle cx="432.3" cy="198.0" r="3" fill="#3fb950"/><circle cx="435.6" cy="198.0" r="3" fill="#3fb950"/><circle cx="439.0" cy="198.0" r="3" fill="#3fb950"/><circle cx="442.4" cy="198.0" r="3" fill="#3fb950"/><circle cx="445.7" cy="198.0" r="3" fill="#3fb950"/><circle cx="449.1" cy="198.0" r="3" fill="#3fb950"/><circle cx="452.4" cy="198.0" r="3" fill="#3fb950"/><circle cx="455.8" cy="198.0" r="3" fill="#3fb950"/><circle cx="459.1" cy="198.0" r="3" fill="#3fb950"/><circle cx="462.5" cy="198.0" r="3" fill="#3fb950"/><circle cx="465.9" cy="198.0" r="3" fill="#3fb950"/><circle cx="469.2" cy="198.0" r="3" fill="#3fb950"/><circle cx="472.6" cy="198.0" r="3" fill="#3fb950"/><circle cx="475.9" cy="198.0" r="3" fill="#3fb950"/><circle cx="479.3" cy="198.0" r="3" fill="#3fb950"/><circle cx="482.7" cy="198.0" r="3" fill="#3fb950"/><circle cx="486.0" cy="198.0" r="3" fill="#3fb950"/><circle cx="489.4" cy="198.0" r="3" fill="#3fb950"/><circle cx="492.7" cy="198.0" r="3" fill="#3fb950"/><circle cx="496.1" cy="198.0" r="3" fill="#3fb950"/><circle cx="499.4" cy="198.0" r="3" fill="#3fb950"/><circle cx="502.8" cy="198.0" r="3" fill="#3fb950"/><circle cx="506.2" cy="198.0" r="3" fill="#3fb950"/><circle cx="509.5" cy="198.0" r="3" fill="#3fb950"/><circle cx="512.9" cy="198.0" r="3" fill="#3fb950"/><circle cx="516.2" cy="198.0" r="3" fill="#3fb950"/><circle cx="519.6" cy="198.0" r="3" fill="#3fb950"/><circle cx="523.0" cy="198.0" r="3" fill="#3fb950"/><circle cx="526.3" cy="198.0" r="3" fill="#3fb950"/><circle cx="529.7" cy="198.0" r="3" fill="#3fb950"/><circle cx="533.0" cy="198.0" r="3" fill="#3fb950"/><circle cx="536.4" cy="198.0" r="3" fill="#3fb950"/><circle cx="539.7" cy="198.0" r="3" fill="#3fb950"/><circle cx="543.1" cy="198.0" r="3" fill="#3fb950"/><circle cx="546.5" cy="198.0" r="3" fill="#3fb950"/><circle cx="549.8" cy="198.0" r="3" fill="#3fb950"/><circle cx="553.2" cy="198.0" r="3" fill="#3fb950"/><circle cx="556.5" cy="198.0" r="3" fill="#3fb950"/><circle cx="559.9" cy="198.0" r="3" fill="#3fb950"/><circle cx="563.3" cy="198.0" r="3" fill="#3fb950"/><circle cx="566.6" cy="198.0" r="3" fill="#3fb950"/><circle cx="570.0" cy="198.0" r="3" fill="#3fb950"/><circle cx="573.3" cy="198.0" r="3" fill="#3fb950"/><circle cx="576.7" cy="198.0" r="3" fill="#3fb950"/><circle cx="580.0" cy="198.0" r="3" fill="#3fb950"/><circle cx="583.4" cy="198.0" r="3" fill="#3fb950"/><circle cx="586.8" cy="198.0" r="3" fill="#3fb950"/><circle cx="590.1" cy="198.0" r="3" fill="#3fb950"/><circle cx="593.5" cy="198.0" r="3" fill="#3fb950"/><circle cx="596.8" cy="198.0" r="3" fill="#3fb950"/><circle cx="600.2" cy="198.0" r="3" fill="#3fb950"/><circle cx="603.6" cy="198.0" r="3" fill="#3fb950"/><circle cx="606.9" cy="198.0" r="3" fill="#3fb950"/><circle cx="610.3" cy="198.0" r="3" fill="#3fb950"/><circle cx="613.6" cy="198.0" r="3" fill="#3fb950"/><circle cx="617.0" cy="198.0" r="3" fill="#3fb950"/><circle cx="620.3" cy="198.0" r="3" fill="#3fb950"/><circle cx="623.7" cy="198.0" r="3" fill="#3fb950"/><circle cx="627.1" cy="198.0" r="3" fill="#3fb950"/><circle cx="630.4" cy="198.0" r="3" fill="#3fb950"/><circle cx="633.8" cy="198.0" r="3" fill="#3fb950"/><circle cx="637.1" cy="198.0" r="3" fill="#3fb950"/><circle cx="640.5" cy="198.0" r="3" fill="#3fb950"/><circle cx="643.9" cy="198.0" r="3" fill="#3fb950"/><circle cx="647.2" cy="198.0" r="3" fill="#3fb950"/><circle cx="650.6" cy="198.0" r="3" fill="#3fb950"/><circle cx="653.9" cy="198.0" r="3" fill="#3fb950"/><circle cx="657.3" cy="198.0" r="3" fill="#3fb950"/><circle cx="660.6" cy="198.0" r="3" fill="#3fb950"/><circle cx="664.0" cy="198.0" r="3" fill="#3fb950"/>
<polyline fill="none" stroke="#4aa3ff" stroke-width="2.5" stroke-linejoin="round" points="36.0,144.3 39.4,144.3 42.7,144.3 46.1,144.3 49.4,144.3 52.8,144.3 56.1,144.3 59.5,144.3 62.9,144.3 66.2,144.3 69.6,144.3 72.9,144.3 76.3,144.3 79.7,144.3 83.0,144.3 86.4,136.2 89.7,132.4 93.1,129.6 96.4,129.6 99.8,121.0 103.2,121.0 106.5,121.0 109.9,114.4 113.2,114.4 116.6,114.4 120.0,111.3 123.3,110.9 126.7,110.9 130.0,110.5 133.4,110.5 136.7,109.9 140.1,108.7 143.5,107.3 146.8,106.9 150.2,106.9 153.5,106.9 156.9,106.9 160.3,106.9 163.6,106.9 167.0,106.9 170.3,106.9 173.7,106.9 177.0,106.9 180.4,113.2 183.8,113.2 187.1,113.2 190.5,113.2 193.8,113.2 197.2,110.7 200.6,105.3 203.9,83.4 207.3,83.4 210.6,85.6 214.0,85.6 217.3,85.6 220.7,85.6 224.1,85.6 227.4,85.8 230.8,85.8 234.1,85.8 237.5,86.0 240.9,86.0 244.2,86.0 247.6,86.0 250.9,86.0 254.3,86.0 257.6,86.0 261.0,86.0 264.4,86.0 267.7,86.0 271.1,86.0 274.4,86.0 277.8,86.0 281.2,86.0 284.5,86.0 287.9,86.0 291.2,86.0 294.6,86.0 297.9,86.0 301.3,86.0 304.7,86.0 308.0,87.0 311.4,87.0 314.7,87.0 318.1,73.7 321.5,73.7 324.8,71.0 328.2,71.0 331.5,70.8 334.9,70.6 338.2,70.6 341.6,70.4 345.0,68.6 348.3,60.5 351.7,59.3 355.0,52.0 358.4,47.3 361.8,40.1 365.1,36.0 368.5,36.0 371.8,36.0 375.2,36.0 378.5,36.0 381.9,36.0 385.3,36.0 388.6,36.0 392.0,36.0 395.3,36.0 398.7,36.0 402.1,36.0 405.4,36.0 408.8,36.0 412.1,36.0 415.5,36.0 418.8,36.0 422.2,36.0 425.6,36.0 428.9,36.0 432.3,36.0 435.6,36.0 439.0,36.0 442.4,36.0 445.7,36.0 449.1,36.0 452.4,36.0 455.8,36.0 459.1,36.0 462.5,36.0 465.9,36.0 469.2,36.0 472.6,36.0 475.9,36.0 479.3,36.0 482.7,36.0 486.0,36.0 489.4,36.0 492.7,36.0 496.1,36.0 499.4,36.0 502.8,36.0 506.2,36.0 509.5,36.0 512.9,36.0 516.2,36.0 519.6,36.0 523.0,36.0 526.3,36.0 529.7,36.0 533.0,36.0 536.4,36.0 539.7,36.0 543.1,36.0 546.5,36.0 549.8,36.0 553.2,36.0 556.5,36.0 559.9,36.0 563.3,36.0 566.6,36.0 570.0,36.0 573.3,36.0 576.7,36.0 580.0,36.0 583.4,36.0 586.8,36.0 590.1,36.0 593.5,36.0 596.8,36.0 600.2,36.0 603.6,36.0 606.9,36.0 610.3,36.0 613.6,36.0 617.0,36.0 620.3,36.0 623.7,36.0 627.1,36.0 630.4,36.0 633.8,36.0 637.1,36.0 640.5,36.0 643.9,36.0 647.2,36.0 650.6,36.0 653.9,36.0 657.3,36.0 660.6,36.0 664.0,36.0"/><circle cx="36.0" cy="144.3" r="3" fill="#4aa3ff"/><circle cx="39.4" cy="144.3" r="3" fill="#4aa3ff"/><circle cx="42.7" cy="144.3" r="3" fill="#4aa3ff"/><circle cx="46.1" cy="144.3" r="3" fill="#4aa3ff"/><circle cx="49.4" cy="144.3" r="3" fill="#4aa3ff"/><circle cx="52.8" cy="144.3" r="3" fill="#4aa3ff"/><circle cx="56.1" cy="144.3" r="3" fill="#4aa3ff"/><circle cx="59.5" cy="144.3" r="3" fill="#4aa3ff"/><circle cx="62.9" cy="144.3" r="3" fill="#4aa3ff"/><circle cx="66.2" cy="144.3" r="3" fill="#4aa3ff"/><circle cx="69.6" cy="144.3" r="3" fill="#4aa3ff"/><circle cx="72.9" cy="144.3" r="3" fill="#4aa3ff"/><circle cx="76.3" cy="144.3" r="3" fill="#4aa3ff"/><circle cx="79.7" cy="144.3" r="3" fill="#4aa3ff"/><circle cx="83.0" cy="144.3" r="3" fill="#4aa3ff"/><circle cx="86.4" cy="136.2" r="3" fill="#4aa3ff"/><circle cx="89.7" cy="132.4" r="3" fill="#4aa3ff"/><circle cx="93.1" cy="129.6" r="3" fill="#4aa3ff"/><circle cx="96.4" cy="129.6" r="3" fill="#4aa3ff"/><circle cx="99.8" cy="121.0" r="3" fill="#4aa3ff"/><circle cx="103.2" cy="121.0" r="3" fill="#4aa3ff"/><circle cx="106.5" cy="121.0" r="3" fill="#4aa3ff"/><circle cx="109.9" cy="114.4" r="3" fill="#4aa3ff"/><circle cx="113.2" cy="114.4" r="3" fill="#4aa3ff"/><circle cx="116.6" cy="114.4" r="3" fill="#4aa3ff"/><circle cx="120.0" cy="111.3" r="3" fill="#4aa3ff"/><circle cx="123.3" cy="110.9" r="3" fill="#4aa3ff"/><circle cx="126.7" cy="110.9" r="3" fill="#4aa3ff"/><circle cx="130.0" cy="110.5" r="3" fill="#4aa3ff"/><circle cx="133.4" cy="110.5" r="3" fill="#4aa3ff"/><circle cx="136.7" cy="109.9" r="3" fill="#4aa3ff"/><circle cx="140.1" cy="108.7" r="3" fill="#4aa3ff"/><circle cx="143.5" cy="107.3" r="3" fill="#4aa3ff"/><circle cx="146.8" cy="106.9" r="3" fill="#4aa3ff"/><circle cx="150.2" cy="106.9" r="3" fill="#4aa3ff"/><circle cx="153.5" cy="106.9" r="3" fill="#4aa3ff"/><circle cx="156.9" cy="106.9" r="3" fill="#4aa3ff"/><circle cx="160.3" cy="106.9" r="3" fill="#4aa3ff"/><circle cx="163.6" cy="106.9" r="3" fill="#4aa3ff"/><circle cx="167.0" cy="106.9" r="3" fill="#4aa3ff"/><circle cx="170.3" cy="106.9" r="3" fill="#4aa3ff"/><circle cx="173.7" cy="106.9" r="3" fill="#4aa3ff"/><circle cx="177.0" cy="106.9" r="3" fill="#4aa3ff"/><circle cx="180.4" cy="113.2" r="3" fill="#4aa3ff"/><circle cx="183.8" cy="113.2" r="3" fill="#4aa3ff"/><circle cx="187.1" cy="113.2" r="3" fill="#4aa3ff"/><circle cx="190.5" cy="113.2" r="3" fill="#4aa3ff"/><circle cx="193.8" cy="113.2" r="3" fill="#4aa3ff"/><circle cx="197.2" cy="110.7" r="3" fill="#4aa3ff"/><circle cx="200.6" cy="105.3" r="3" fill="#4aa3ff"/><circle cx="203.9" cy="83.4" r="3" fill="#4aa3ff"/><circle cx="207.3" cy="83.4" r="3" fill="#4aa3ff"/><circle cx="210.6" cy="85.6" r="3" fill="#4aa3ff"/><circle cx="214.0" cy="85.6" r="3" fill="#4aa3ff"/><circle cx="217.3" cy="85.6" r="3" fill="#4aa3ff"/><circle cx="220.7" cy="85.6" r="3" fill="#4aa3ff"/><circle cx="224.1" cy="85.6" r="3" fill="#4aa3ff"/><circle cx="227.4" cy="85.8" r="3" fill="#4aa3ff"/><circle cx="230.8" cy="85.8" r="3" fill="#4aa3ff"/><circle cx="234.1" cy="85.8" r="3" fill="#4aa3ff"/><circle cx="237.5" cy="86.0" r="3" fill="#4aa3ff"/><circle cx="240.9" cy="86.0" r="3" fill="#4aa3ff"/><circle cx="244.2" cy="86.0" r="3" fill="#4aa3ff"/><circle cx="247.6" cy="86.0" r="3" fill="#4aa3ff"/><circle cx="250.9" cy="86.0" r="3" fill="#4aa3ff"/><circle cx="254.3" cy="86.0" r="3" fill="#4aa3ff"/><circle cx="257.6" cy="86.0" r="3" fill="#4aa3ff"/><circle cx="261.0" cy="86.0" r="3" fill="#4aa3ff"/><circle cx="264.4" cy="86.0" r="3" fill="#4aa3ff"/><circle cx="267.7" cy="86.0" r="3" fill="#4aa3ff"/><circle cx="271.1" cy="86.0" r="3" fill="#4aa3ff"/><circle cx="274.4" cy="86.0" r="3" fill="#4aa3ff"/><circle cx="277.8" cy="86.0" r="3" fill="#4aa3ff"/><circle cx="281.2" cy="86.0" r="3" fill="#4aa3ff"/><circle cx="284.5" cy="86.0" r="3" fill="#4aa3ff"/><circle cx="287.9" cy="86.0" r="3" fill="#4aa3ff"/><circle cx="291.2" cy="86.0" r="3" fill="#4aa3ff"/><circle cx="294.6" cy="86.0" r="3" fill="#4aa3ff"/><circle cx="297.9" cy="86.0" r="3" fill="#4aa3ff"/><circle cx="301.3" cy="86.0" r="3" fill="#4aa3ff"/><circle cx="304.7" cy="86.0" r="3" fill="#4aa3ff"/><circle cx="308.0" cy="87.0" r="3" fill="#4aa3ff"/><circle cx="311.4" cy="87.0" r="3" fill="#4aa3ff"/><circle cx="314.7" cy="87.0" r="3" fill="#4aa3ff"/><circle cx="318.1" cy="73.7" r="3" fill="#4aa3ff"/><circle cx="321.5" cy="73.7" r="3" fill="#4aa3ff"/><circle cx="324.8" cy="71.0" r="3" fill="#4aa3ff"/><circle cx="328.2" cy="71.0" r="3" fill="#4aa3ff"/><circle cx="331.5" cy="70.8" r="3" fill="#4aa3ff"/><circle cx="334.9" cy="70.6" r="3" fill="#4aa3ff"/><circle cx="338.2" cy="70.6" r="3" fill="#4aa3ff"/><circle cx="341.6" cy="70.4" r="3" fill="#4aa3ff"/><circle cx="345.0" cy="68.6" r="3" fill="#4aa3ff"/><circle cx="348.3" cy="60.5" r="3" fill="#4aa3ff"/><circle cx="351.7" cy="59.3" r="3" fill="#4aa3ff"/><circle cx="355.0" cy="52.0" r="3" fill="#4aa3ff"/><circle cx="358.4" cy="47.3" r="3" fill="#4aa3ff"/><circle cx="361.8" cy="40.1" r="3" fill="#4aa3ff"/><circle cx="365.1" cy="36.0" r="3" fill="#4aa3ff"/><circle cx="368.5" cy="36.0" r="3" fill="#4aa3ff"/><circle cx="371.8" cy="36.0" r="3" fill="#4aa3ff"/><circle cx="375.2" cy="36.0" r="3" fill="#4aa3ff"/><circle cx="378.5" cy="36.0" r="3" fill="#4aa3ff"/><circle cx="381.9" cy="36.0" r="3" fill="#4aa3ff"/><circle cx="385.3" cy="36.0" r="3" fill="#4aa3ff"/><circle cx="388.6" cy="36.0" r="3" fill="#4aa3ff"/><circle cx="392.0" cy="36.0" r="3" fill="#4aa3ff"/><circle cx="395.3" cy="36.0" r="3" fill="#4aa3ff"/><circle cx="398.7" cy="36.0" r="3" fill="#4aa3ff"/><circle cx="402.1" cy="36.0" r="3" fill="#4aa3ff"/><circle cx="405.4" cy="36.0" r="3" fill="#4aa3ff"/><circle cx="408.8" cy="36.0" r="3" fill="#4aa3ff"/><circle cx="412.1" cy="36.0" r="3" fill="#4aa3ff"/><circle cx="415.5" cy="36.0" r="3" fill="#4aa3ff"/><circle cx="418.8" cy="36.0" r="3" fill="#4aa3ff"/><circle cx="422.2" cy="36.0" r="3" fill="#4aa3ff"/><circle cx="425.6" cy="36.0" r="3" fill="#4aa3ff"/><circle cx="428.9" cy="36.0" r="3" fill="#4aa3ff"/><circle cx="432.3" cy="36.0" r="3" fill="#4aa3ff"/><circle cx="435.6" cy="36.0" r="3" fill="#4aa3ff"/><circle cx="439.0" cy="36.0" r="3" fill="#4aa3ff"/><circle cx="442.4" cy="36.0" r="3" fill="#4aa3ff"/><circle cx="445.7" cy="36.0" r="3" fill="#4aa3ff"/><circle cx="449.1" cy="36.0" r="3" fill="#4aa3ff"/><circle cx="452.4" cy="36.0" r="3" fill="#4aa3ff"/><circle cx="455.8" cy="36.0" r="3" fill="#4aa3ff"/><circle cx="459.1" cy="36.0" r="3" fill="#4aa3ff"/><circle cx="462.5" cy="36.0" r="3" fill="#4aa3ff"/><circle cx="465.9" cy="36.0" r="3" fill="#4aa3ff"/><circle cx="469.2" cy="36.0" r="3" fill="#4aa3ff"/><circle cx="472.6" cy="36.0" r="3" fill="#4aa3ff"/><circle cx="475.9" cy="36.0" r="3" fill="#4aa3ff"/><circle cx="479.3" cy="36.0" r="3" fill="#4aa3ff"/><circle cx="482.7" cy="36.0" r="3" fill="#4aa3ff"/><circle cx="486.0" cy="36.0" r="3" fill="#4aa3ff"/><circle cx="489.4" cy="36.0" r="3" fill="#4aa3ff"/><circle cx="492.7" cy="36.0" r="3" fill="#4aa3ff"/><circle cx="496.1" cy="36.0" r="3" fill="#4aa3ff"/><circle cx="499.4" cy="36.0" r="3" fill="#4aa3ff"/><circle cx="502.8" cy="36.0" r="3" fill="#4aa3ff"/><circle cx="506.2" cy="36.0" r="3" fill="#4aa3ff"/><circle cx="509.5" cy="36.0" r="3" fill="#4aa3ff"/><circle cx="512.9" cy="36.0" r="3" fill="#4aa3ff"/><circle cx="516.2" cy="36.0" r="3" fill="#4aa3ff"/><circle cx="519.6" cy="36.0" r="3" fill="#4aa3ff"/><circle cx="523.0" cy="36.0" r="3" fill="#4aa3ff"/><circle cx="526.3" cy="36.0" r="3" fill="#4aa3ff"/><circle cx="529.7" cy="36.0" r="3" fill="#4aa3ff"/><circle cx="533.0" cy="36.0" r="3" fill="#4aa3ff"/><circle cx="536.4" cy="36.0" r="3" fill="#4aa3ff"/><circle cx="539.7" cy="36.0" r="3" fill="#4aa3ff"/><circle cx="543.1" cy="36.0" r="3" fill="#4aa3ff"/><circle cx="546.5" cy="36.0" r="3" fill="#4aa3ff"/><circle cx="549.8" cy="36.0" r="3" fill="#4aa3ff"/><circle cx="553.2" cy="36.0" r="3" fill="#4aa3ff"/><circle cx="556.5" cy="36.0" r="3" fill="#4aa3ff"/><circle cx="559.9" cy="36.0" r="3" fill="#4aa3ff"/><circle cx="563.3" cy="36.0" r="3" fill="#4aa3ff"/><circle cx="566.6" cy="36.0" r="3" fill="#4aa3ff"/><circle cx="570.0" cy="36.0" r="3" fill="#4aa3ff"/><circle cx="573.3" cy="36.0" r="3" fill="#4aa3ff"/><circle cx="576.7" cy="36.0" r="3" fill="#4aa3ff"/><circle cx="580.0" cy="36.0" r="3" fill="#4aa3ff"/><circle cx="583.4" cy="36.0" r="3" fill="#4aa3ff"/><circle cx="586.8" cy="36.0" r="3" fill="#4aa3ff"/><circle cx="590.1" cy="36.0" r="3" fill="#4aa3ff"/><circle cx="593.5" cy="36.0" r="3" fill="#4aa3ff"/><circle cx="596.8" cy="36.0" r="3" fill="#4aa3ff"/><circle cx="600.2" cy="36.0" r="3" fill="#4aa3ff"/><circle cx="603.6" cy="36.0" r="3" fill="#4aa3ff"/><circle cx="606.9" cy="36.0" r="3" fill="#4aa3ff"/><circle cx="610.3" cy="36.0" r="3" fill="#4aa3ff"/><circle cx="613.6" cy="36.0" r="3" fill="#4aa3ff"/><circle cx="617.0" cy="36.0" r="3" fill="#4aa3ff"/><circle cx="620.3" cy="36.0" r="3" fill="#4aa3ff"/><circle cx="623.7" cy="36.0" r="3" fill="#4aa3ff"/><circle cx="627.1" cy="36.0" r="3" fill="#4aa3ff"/><circle cx="630.4" cy="36.0" r="3" fill="#4aa3ff"/><circle cx="633.8" cy="36.0" r="3" fill="#4aa3ff"/><circle cx="637.1" cy="36.0" r="3" fill="#4aa3ff"/><circle cx="640.5" cy="36.0" r="3" fill="#4aa3ff"/><circle cx="643.9" cy="36.0" r="3" fill="#4aa3ff"/><circle cx="647.2" cy="36.0" r="3" fill="#4aa3ff"/><circle cx="650.6" cy="36.0" r="3" fill="#4aa3ff"/><circle cx="653.9" cy="36.0" r="3" fill="#4aa3ff"/><circle cx="657.3" cy="36.0" r="3" fill="#4aa3ff"/><circle cx="660.6" cy="36.0" r="3" fill="#4aa3ff"/><circle cx="664.0" cy="36.0" r="3" fill="#4aa3ff"/>
<text x="36" y="225" fill="#6b7280" font-size="11">2026-06-26</text>
<text x="664" y="225" fill="#6b7280" font-size="11" text-anchor="end">2026-07-15</text>
<text x="36" y="212" font-family="system-ui,sans-serif" font-size="11">
<tspan fill="#4aa3ff">&#9679; open FPs</tspan>  <tspan fill="#3fb950">&#9679; closed (Anthropic acting)</tspan>  <tspan fill="#8a5a5a">&#9679; harness withdrawn</tspan></text>
<text x="664" y="22" text-anchor="end" font-family="system-ui,sans-serif" font-size="12">
<tspan fill="#4aa3ff">open 800</tspan>  <tspan fill="#3fb950">closed 0</tspan>  <tspan fill="#8a5a5a">harness 0</tspan></text>
</svg>