<svg xmlns="http://www.w3.org/2000/svg" width="700" height="234" viewBox="0 0 700 234" role="img">
<rect width="700" height="234" rx="12" fill="#16181d"/>
<text x="36" y="22" fill="#e8eaed" font-family="system-ui,sans-serif" font-size="14" font-weight="700">Is Anthropic acting? cyber/aup false positives over time</text>
<line x1="36" y1="198.0" x2="664" y2="198.0" stroke="#2a2e37" stroke-width="1"/><text x="30" y="202.0" fill="#6b7280" font-size="11" text-anchor="end">0</text><line x1="36" y1="117.0" x2="664" y2="117.0" stroke="#2a2e37" stroke-width="1"/><text x="30" y="121.0" fill="#6b7280" font-size="11" text-anchor="end">400</text><line x1="36" y1="36.0" x2="664" y2="36.0" stroke="#2a2e37" stroke-width="1"/><text x="30" y="40.0" fill="#6b7280" font-size="11" text-anchor="end">800</text>

<polyline fill="none" stroke="#8a5a5a" stroke-width="2.5" stroke-linejoin="round" points="36.0,145.1 38.7,145.1 41.4,145.1 44.1,145.1 46.8,145.1 49.5,145.1 52.2,145.1 54.9,145.1 57.6,145.1 60.3,145.1 63.0,145.1 65.6,145.1 68.3,145.1 71.0,145.1 73.7,145.1 76.4,145.1 79.1,145.1 81.8,145.1 84.5,145.1 87.2,145.1 89.9,145.1 92.6,145.1 95.3,145.1 98.0,145.1 100.7,145.1 103.4,145.1 106.1,145.1 108.8,145.1 111.5,145.1 114.2,145.1 116.9,145.1 119.6,145.1 122.2,145.1 124.9,145.1 127.6,145.1 130.3,145.1 133.0,145.1 135.7,145.1 138.4,145.1 141.1,145.1 143.8,145.1 146.5,145.1 149.2,145.1 151.9,145.1 154.6,145.1 157.3,145.1 160.0,145.1 162.7,145.1 165.4,145.1 168.1,145.1 170.8,155.7 173.5,155.7 176.2,155.7 178.8,155.7 181.5,155.7 184.2,155.7 186.9,155.7 189.6,155.7 192.3,155.7 195.0,155.7 197.7,155.7 200.4,155.7 203.1,155.7 205.8,155.7 208.5,155.7 211.2,155.7 213.9,155.7 216.6,155.7 219.3,155.7 222.0,155.7 224.7,155.7 227.4,155.7 230.1,155.7 232.8,155.7 235.5,155.7 238.1,155.7 240.8,155.7 243.5,155.7 246.2,155.7 248.9,155.7 251.6,155.7 254.3,155.7 257.0,155.7 259.7,155.7 262.4,167.6 265.1,167.6 267.8,170.3 270.5,170.3 273.2,170.5 275.9,170.7 278.6,170.7 281.3,170.9 284.0,172.7 286.7,180.6 289.4,181.8 292.1,189.1 294.7,190.5 297.4,195.2 300.1,198.0 302.8,198.0 305.5,198.0 308.2,198.0 310.9,198.0 313.6,198.0 316.3,198.0 319.0,198.0 321.7,198.0 324.4,198.0 327.1,198.0 329.8,198.0 332.5,198.0 335.2,198.0 337.9,198.0 340.6,198.0 343.3,198.0 346.0,198.0 348.7,198.0 351.3,198.0 354.0,198.0 356.7,198.0 359.4,198.0 362.1,198.0 364.8,198.0 367.5,198.0 370.2,198.0 372.9,198.0 375.6,198.0 378.3,198.0 381.0,198.0 383.7,198.0 386.4,198.0 389.1,198.0 391.8,198.0 394.5,198.0 397.2,198.0 399.9,198.0 402.6,198.0 405.3,198.0 407.9,198.0 410.6,198.0 413.3,198.0 416.0,198.0 418.7,198.0 421.4,198.0 424.1,198.0 426.8,198.0 429.5,198.0 432.2,198.0 434.9,198.0 437.6,198.0 440.3,198.0 443.0,198.0 445.7,198.0 448.4,198.0 451.1,198.0 453.8,198.0 456.5,198.0 459.2,198.0 461.9,198.0 464.5,198.0 467.2,198.0 469.9,198.0 472.6,198.0 475.3,198.0 478.0,198.0 480.7,198.0 483.4,198.0 486.1,198.0 488.8,198.0 491.5,198.0 494.2,198.0 496.9,198.0 499.6,198.0 502.3,198.0 505.0,198.0 507.7,198.0 510.4,198.0 513.1,198.0 515.8,198.0 518.5,198.0 521.2,198.0 523.8,198.0 526.5,198.0 529.2,198.0 531.9,198.0 534.6,198.0 537.3,198.0 540.0,198.0 542.7,198.0 545.4,198.0 548.1,198.0 550.8,198.0 553.5,198.0 556.2,198.0 558.9,198.0 561.6,198.0 564.3,198.0 567.0,198.0 569.7,198.0 572.4,198.0 575.1,198.0 577.8,198.0 580.4,198.0 583.1,198.0 585.8,198.0 588.5,198.0 591.2,198.0 593.9,198.0 596.6,198.0 599.3,198.0 602.0,198.0 604.7,198.0 607.4,198.0 610.1,198.0 612.8,198.0 615.5,198.0 618.2,198.0 620.9,198.0 623.6,198.0 626.3,198.0 629.0,198.0 631.7,198.0 634.4,198.0 637.0,198.0 639.7,198.0 642.4,198.0 645.1,198.0 647.8,198.0 650.5,198.0 653.2,198.0 655.9,198.0 658.6,198.0 661.3,198.0 664.0,198.0"/><circle cx="36.0" cy="145.1" r="3" fill="#8a5a5a"/><circle cx="38.7" cy="145.1" r="3" fill="#8a5a5a"/><circle cx="41.4" cy="145.1" r="3" fill="#8a5a5a"/><circle cx="44.1" cy="145.1" r="3" fill="#8a5a5a"/><circle cx="46.8" cy="145.1" r="3" fill="#8a5a5a"/><circle cx="49.5" cy="145.1" r="3" fill="#8a5a5a"/><circle cx="52.2" cy="145.1" r="3" fill="#8a5a5a"/><circle cx="54.9" cy="145.1" r="3" fill="#8a5a5a"/><circle cx="57.6" cy="145.1" r="3" fill="#8a5a5a"/><circle cx="60.3" cy="145.1" r="3" fill="#8a5a5a"/><circle cx="63.0" cy="145.1" r="3" fill="#8a5a5a"/><circle cx="65.6" cy="145.1" r="3" fill="#8a5a5a"/><circle cx="68.3" cy="145.1" r="3" fill="#8a5a5a"/><circle cx="71.0" cy="145.1" r="3" fill="#8a5a5a"/><circle cx="73.7" cy="145.1" r="3" fill="#8a5a5a"/><circle cx="76.4" cy="145.1" r="3" fill="#8a5a5a"/><circle cx="79.1" cy="145.1" r="3" fill="#8a5a5a"/><circle cx="81.8" cy="145.1" r="3" fill="#8a5a5a"/><circle cx="84.5" cy="145.1" r="3" fill="#8a5a5a"/><circle cx="87.2" cy="145.1" r="3" fill="#8a5a5a"/><circle cx="89.9" cy="145.1" r="3" fill="#8a5a5a"/><circle cx="92.6" cy="145.1" r="3" fill="#8a5a5a"/><circle cx="95.3" cy="145.1" r="3" fill="#8a5a5a"/><circle cx="98.0" cy="145.1" r="3" fill="#8a5a5a"/><circle cx="100.7" cy="145.1" r="3" fill="#8a5a5a"/><circle cx="103.4" cy="145.1" r="3" fill="#8a5a5a"/><circle cx="106.1" cy="145.1" r="3" fill="#8a5a5a"/><circle cx="108.8" cy="145.1" r="3" fill="#8a5a5a"/><circle cx="111.5" cy="145.1" r="3" fill="#8a5a5a"/><circle cx="114.2" cy="145.1" r="3" fill="#8a5a5a"/><circle cx="116.9" cy="145.1" r="3" fill="#8a5a5a"/><circle cx="119.6" cy="145.1" r="3" fill="#8a5a5a"/><circle cx="122.2" cy="145.1" r="3" fill="#8a5a5a"/><circle cx="124.9" cy="145.1" r="3" fill="#8a5a5a"/><circle cx="127.6" cy="145.1" r="3" fill="#8a5a5a"/><circle cx="130.3" cy="145.1" r="3" fill="#8a5a5a"/><circle cx="133.0" cy="145.1" r="3" fill="#8a5a5a"/><circle cx="135.7" cy="145.1" r="3" fill="#8a5a5a"/><circle cx="138.4" cy="145.1" r="3" fill="#8a5a5a"/><circle cx="141.1" cy="145.1" r="3" fill="#8a5a5a"/><circle cx="143.8" cy="145.1" r="3" fill="#8a5a5a"/><circle cx="146.5" cy="145.1" r="3" fill="#8a5a5a"/><circle cx="149.2" cy="145.1" r="3" fill="#8a5a5a"/><circle cx="151.9" cy="145.1" r="3" fill="#8a5a5a"/><circle cx="154.6" cy="145.1" r="3" fill="#8a5a5a"/><circle cx="157.3" cy="145.1" r="3" fill="#8a5a5a"/><circle cx="160.0" cy="145.1" r="3" fill="#8a5a5a"/><circle cx="162.7" cy="145.1" r="3" fill="#8a5a5a"/><circle cx="165.4" cy="145.1" r="3" fill="#8a5a5a"/><circle cx="168.1" cy="145.1" r="3" fill="#8a5a5a"/><circle cx="170.8" cy="155.7" r="3" fill="#8a5a5a"/><circle cx="173.5" cy="155.7" r="3" fill="#8a5a5a"/><circle cx="176.2" cy="155.7" r="3" fill="#8a5a5a"/><circle cx="178.8" cy="155.7" r="3" fill="#8a5a5a"/><circle cx="181.5" cy="155.7" r="3" fill="#8a5a5a"/><circle cx="184.2" cy="155.7" r="3" fill="#8a5a5a"/><circle cx="186.9" cy="155.7" r="3" fill="#8a5a5a"/><circle cx="189.6" cy="155.7" r="3" fill="#8a5a5a"/><circle cx="192.3" cy="155.7" r="3" fill="#8a5a5a"/><circle cx="195.0" cy="155.7" r="3" fill="#8a5a5a"/><circle cx="197.7" cy="155.7" r="3" fill="#8a5a5a"/><circle cx="200.4" cy="155.7" r="3" fill="#8a5a5a"/><circle cx="203.1" cy="155.7" r="3" fill="#8a5a5a"/><circle cx="205.8" cy="155.7" r="3" fill="#8a5a5a"/><circle cx="208.5" cy="155.7" r="3" fill="#8a5a5a"/><circle cx="211.2" cy="155.7" r="3" fill="#8a5a5a"/><circle cx="213.9" cy="155.7" r="3" fill="#8a5a5a"/><circle cx="216.6" cy="155.7" r="3" fill="#8a5a5a"/><circle cx="219.3" cy="155.7" r="3" fill="#8a5a5a"/><circle cx="222.0" cy="155.7" r="3" fill="#8a5a5a"/><circle cx="224.7" cy="155.7" r="3" fill="#8a5a5a"/><circle cx="227.4" cy="155.7" r="3" fill="#8a5a5a"/><circle cx="230.1" cy="155.7" r="3" fill="#8a5a5a"/><circle cx="232.8" cy="155.7" r="3" fill="#8a5a5a"/><circle cx="235.5" cy="155.7" r="3" fill="#8a5a5a"/><circle cx="238.1" cy="155.7" r="3" fill="#8a5a5a"/><circle cx="240.8" cy="155.7" r="3" fill="#8a5a5a"/><circle cx="243.5" cy="155.7" r="3" fill="#8a5a5a"/><circle cx="246.2" cy="155.7" r="3" fill="#8a5a5a"/><circle cx="248.9" cy="155.7" r="3" fill="#8a5a5a"/><circle cx="251.6" cy="155.7" r="3" fill="#8a5a5a"/><circle cx="254.3" cy="155.7" r="3" fill="#8a5a5a"/><circle cx="257.0" cy="155.7" r="3" fill="#8a5a5a"/><circle cx="259.7" cy="155.7" r="3" fill="#8a5a5a"/><circle cx="262.4" cy="167.6" r="3" fill="#8a5a5a"/><circle cx="265.1" cy="167.6" r="3" fill="#8a5a5a"/><circle cx="267.8" cy="170.3" r="3" fill="#8a5a5a"/><circle cx="270.5" cy="170.3" r="3" fill="#8a5a5a"/><circle cx="273.2" cy="170.5" r="3" fill="#8a5a5a"/><circle cx="275.9" cy="170.7" r="3" fill="#8a5a5a"/><circle cx="278.6" cy="170.7" r="3" fill="#8a5a5a"/><circle cx="281.3" cy="170.9" r="3" fill="#8a5a5a"/><circle cx="284.0" cy="172.7" r="3" fill="#8a5a5a"/><circle cx="286.7" cy="180.6" r="3" fill="#8a5a5a"/><circle cx="289.4" cy="181.8" r="3" fill="#8a5a5a"/><circle cx="292.1" cy="189.1" r="3" fill="#8a5a5a"/><circle cx="294.7" cy="190.5" r="3" fill="#8a5a5a"/><circle cx="297.4" cy="195.2" r="3" fill="#8a5a5a"/><circle cx="300.1" cy="198.0" r="3" fill="#8a5a5a"/><circle cx="302.8" cy="198.0" r="3" fill="#8a5a5a"/><circle cx="305.5" cy="198.0" r="3" fill="#8a5a5a"/><circle cx="308.2" cy="198.0" r="3" fill="#8a5a5a"/><circle cx="310.9" cy="198.0" r="3" fill="#8a5a5a"/><circle cx="313.6" cy="198.0" r="3" fill="#8a5a5a"/><circle cx="316.3" cy="198.0" r="3" fill="#8a5a5a"/><circle cx="319.0" cy="198.0" r="3" fill="#8a5a5a"/><circle cx="321.7" cy="198.0" r="3" fill="#8a5a5a"/><circle cx="324.4" cy="198.0" r="3" fill="#8a5a5a"/><circle cx="327.1" cy="198.0" r="3" fill="#8a5a5a"/><circle cx="329.8" cy="198.0" r="3" fill="#8a5a5a"/><circle cx="332.5" cy="198.0" r="3" fill="#8a5a5a"/><circle cx="335.2" cy="198.0" r="3" fill="#8a5a5a"/><circle cx="337.9" cy="198.0" r="3" fill="#8a5a5a"/><circle cx="340.6" cy="198.0" r="3" fill="#8a5a5a"/><circle cx="343.3" cy="198.0" r="3" fill="#8a5a5a"/><circle cx="346.0" cy="198.0" r="3" fill="#8a5a5a"/><circle cx="348.7" cy="198.0" r="3" fill="#8a5a5a"/><circle cx="351.3" cy="198.0" r="3" fill="#8a5a5a"/><circle cx="354.0" cy="198.0" r="3" fill="#8a5a5a"/><circle cx="356.7" cy="198.0" r="3" fill="#8a5a5a"/><circle cx="359.4" cy="198.0" r="3" fill="#8a5a5a"/><circle cx="362.1" cy="198.0" r="3" fill="#8a5a5a"/><circle cx="364.8" cy="198.0" r="3" fill="#8a5a5a"/><circle cx="367.5" cy="198.0" r="3" fill="#8a5a5a"/><circle cx="370.2" cy="198.0" r="3" fill="#8a5a5a"/><circle cx="372.9" cy="198.0" r="3" fill="#8a5a5a"/><circle cx="375.6" cy="198.0" r="3" fill="#8a5a5a"/><circle cx="378.3" cy="198.0" r="3" fill="#8a5a5a"/><circle cx="381.0" cy="198.0" r="3" fill="#8a5a5a"/><circle cx="383.7" cy="198.0" r="3" fill="#8a5a5a"/><circle cx="386.4" cy="198.0" r="3" fill="#8a5a5a"/><circle cx="389.1" cy="198.0" r="3" fill="#8a5a5a"/><circle cx="391.8" cy="198.0" r="3" fill="#8a5a5a"/><circle cx="394.5" cy="198.0" r="3" fill="#8a5a5a"/><circle cx="397.2" cy="198.0" r="3" fill="#8a5a5a"/><circle cx="399.9" cy="198.0" r="3" fill="#8a5a5a"/><circle cx="402.6" cy="198.0" r="3" fill="#8a5a5a"/><circle cx="405.3" cy="198.0" r="3" fill="#8a5a5a"/><circle cx="407.9" cy="198.0" r="3" fill="#8a5a5a"/><circle cx="410.6" cy="198.0" r="3" fill="#8a5a5a"/><circle cx="413.3" cy="198.0" r="3" fill="#8a5a5a"/><circle cx="416.0" cy="198.0" r="3" fill="#8a5a5a"/><circle cx="418.7" cy="198.0" r="3" fill="#8a5a5a"/><circle cx="421.4" cy="198.0" r="3" fill="#8a5a5a"/><circle cx="424.1" cy="198.0" r="3" fill="#8a5a5a"/><circle cx="426.8" cy="198.0" r="3" fill="#8a5a5a"/><circle cx="429.5" cy="198.0" r="3" fill="#8a5a5a"/><circle cx="432.2" cy="198.0" r="3" fill="#8a5a5a"/><circle cx="434.9" cy="198.0" r="3" fill="#8a5a5a"/><circle cx="437.6" cy="198.0" r="3" fill="#8a5a5a"/><circle cx="440.3" cy="198.0" r="3" fill="#8a5a5a"/><circle cx="443.0" cy="198.0" r="3" fill="#8a5a5a"/><circle cx="445.7" cy="198.0" r="3" fill="#8a5a5a"/><circle cx="448.4" cy="198.0" r="3" fill="#8a5a5a"/><circle cx="451.1" cy="198.0" r="3" fill="#8a5a5a"/><circle cx="453.8" cy="198.0" r="3" fill="#8a5a5a"/><circle cx="456.5" cy="198.0" r="3" fill="#8a5a5a"/><circle cx="459.2" cy="198.0" r="3" fill="#8a5a5a"/><circle cx="461.9" cy="198.0" r="3" fill="#8a5a5a"/><circle cx="464.5" cy="198.0" r="3" fill="#8a5a5a"/><circle cx="467.2" cy="198.0" r="3" fill="#8a5a5a"/><circle cx="469.9" cy="198.0" r="3" fill="#8a5a5a"/><circle cx="472.6" cy="198.0" r="3" fill="#8a5a5a"/><circle cx="475.3" cy="198.0" r="3" fill="#8a5a5a"/><circle cx="478.0" cy="198.0" r="3" fill="#8a5a5a"/><circle cx="480.7" cy="198.0" r="3" fill="#8a5a5a"/><circle cx="483.4" cy="198.0" r="3" fill="#8a5a5a"/><circle cx="486.1" cy="198.0" r="3" fill="#8a5a5a"/><circle cx="488.8" cy="198.0" r="3" fill="#8a5a5a"/><circle cx="491.5" cy="198.0" r="3" fill="#8a5a5a"/><circle cx="494.2" cy="198.0" r="3" fill="#8a5a5a"/><circle cx="496.9" cy="198.0" r="3" fill="#8a5a5a"/><circle cx="499.6" cy="198.0" r="3" fill="#8a5a5a"/><circle cx="502.3" cy="198.0" r="3" fill="#8a5a5a"/><circle cx="505.0" cy="198.0" r="3" fill="#8a5a5a"/><circle cx="507.7" cy="198.0" r="3" fill="#8a5a5a"/><circle cx="510.4" cy="198.0" r="3" fill="#8a5a5a"/><circle cx="513.1" cy="198.0" r="3" fill="#8a5a5a"/><circle cx="515.8" cy="198.0" r="3" fill="#8a5a5a"/><circle cx="518.5" cy="198.0" r="3" fill="#8a5a5a"/><circle cx="521.2" cy="198.0" r="3" fill="#8a5a5a"/><circle cx="523.8" cy="198.0" r="3" fill="#8a5a5a"/><circle cx="526.5" cy="198.0" r="3" fill="#8a5a5a"/><circle cx="529.2" cy="198.0" r="3" fill="#8a5a5a"/><circle cx="531.9" cy="198.0" r="3" fill="#8a5a5a"/><circle cx="534.6" cy="198.0" r="3" fill="#8a5a5a"/><circle cx="537.3" cy="198.0" r="3" fill="#8a5a5a"/><circle cx="540.0" cy="198.0" r="3" fill="#8a5a5a"/><circle cx="542.7" cy="198.0" r="3" fill="#8a5a5a"/><circle cx="545.4" cy="198.0" r="3" fill="#8a5a5a"/><circle cx="548.1" cy="198.0" r="3" fill="#8a5a5a"/><circle cx="550.8" cy="198.0" r="3" fill="#8a5a5a"/><circle cx="553.5" cy="198.0" r="3" fill="#8a5a5a"/><circle cx="556.2" cy="198.0" r="3" fill="#8a5a5a"/><circle cx="558.9" cy="198.0" r="3" fill="#8a5a5a"/><circle cx="561.6" cy="198.0" r="3" fill="#8a5a5a"/><circle cx="564.3" cy="198.0" r="3" fill="#8a5a5a"/><circle cx="567.0" cy="198.0" r="3" fill="#8a5a5a"/><circle cx="569.7" cy="198.0" r="3" fill="#8a5a5a"/><circle cx="572.4" cy="198.0" r="3" fill="#8a5a5a"/><circle cx="575.1" cy="198.0" r="3" fill="#8a5a5a"/><circle cx="577.8" cy="198.0" r="3" fill="#8a5a5a"/><circle cx="580.4" cy="198.0" r="3" fill="#8a5a5a"/><circle cx="583.1" cy="198.0" r="3" fill="#8a5a5a"/><circle cx="585.8" cy="198.0" r="3" fill="#8a5a5a"/><circle cx="588.5" cy="198.0" r="3" fill="#8a5a5a"/><circle cx="591.2" cy="198.0" r="3" fill="#8a5a5a"/><circle cx="593.9" cy="198.0" r="3" fill="#8a5a5a"/><circle cx="596.6" cy="198.0" r="3" fill="#8a5a5a"/><circle cx="599.3" cy="198.0" r="3" fill="#8a5a5a"/><circle cx="602.0" cy="198.0" r="3" fill="#8a5a5a"/><circle cx="604.7" cy="198.0" r="3" fill="#8a5a5a"/><circle cx="607.4" cy="198.0" r="3" fill="#8a5a5a"/><circle cx="610.1" cy="198.0" r="3" fill="#8a5a5a"/><circle cx="612.8" cy="198.0" r="3" fill="#8a5a5a"/><circle cx="615.5" cy="198.0" r="3" fill="#8a5a5a"/><circle cx="618.2" cy="198.0" r="3" fill="#8a5a5a"/><circle cx="620.9" cy="198.0" r="3" fill="#8a5a5a"/><circle cx="623.6" cy="198.0" r="3" fill="#8a5a5a"/><circle cx="626.3" cy="198.0" r="3" fill="#8a5a5a"/><circle cx="629.0" cy="198.0" r="3" fill="#8a5a5a"/><circle cx="631.7" cy="198.0" r="3" fill="#8a5a5a"/><circle cx="634.4" cy="198.0" r="3" fill="#8a5a5a"/><circle cx="637.0" cy="198.0" r="3" fill="#8a5a5a"/><circle cx="639.7" cy="198.0" r="3" fill="#8a5a5a"/><circle cx="642.4" cy="198.0" r="3" fill="#8a5a5a"/><circle cx="645.1" cy="198.0" r="3" fill="#8a5a5a"/><circle cx="647.8" cy="198.0" r="3" fill="#8a5a5a"/><circle cx="650.5" cy="198.0" r="3" fill="#8a5a5a"/><circle cx="653.2" cy="198.0" r="3" fill="#8a5a5a"/><circle cx="655.9" cy="198.0" r="3" fill="#8a5a5a"/><circle cx="658.6" cy="198.0" r="3" fill="#8a5a5a"/><circle cx="661.3" cy="198.0" r="3" fill="#8a5a5a"/><circle cx="664.0" cy="198.0" r="3" fill="#8a5a5a"/>
<polyline fill="none" stroke="#3fb950" stroke-width="2.5" stroke-linejoin="round" points="36.0,198.0 38.7,198.0 41.4,198.0 44.1,198.0 46.8,198.0 49.5,198.0 52.2,198.0 54.9,198.0 57.6,198.0 60.3,198.0 63.0,198.0 65.6,198.0 68.3,198.0 71.0,198.0 73.7,198.0 76.4,198.0 79.1,198.0 81.8,198.0 84.5,198.0 87.2,198.0 89.9,198.0 92.6,198.0 95.3,198.0 98.0,198.0 100.7,198.0 103.4,198.0 106.1,198.0 108.8,198.0 111.5,198.0 114.2,198.0 116.9,198.0 119.6,198.0 122.2,198.0 124.9,198.0 127.6,198.0 130.3,198.0 133.0,198.0 135.7,198.0 138.4,198.0 141.1,198.0 143.8,198.0 146.5,198.0 149.2,198.0 151.9,191.7 154.6,191.7 157.3,191.7 160.0,191.7 162.7,191.7 165.4,191.7 168.1,191.7 170.8,192.9 173.5,192.9 176.2,190.7 178.8,190.7 181.5,190.7 184.2,190.7 186.9,190.7 189.6,190.5 192.3,190.5 195.0,190.5 197.7,190.3 200.4,190.3 203.1,190.3 205.8,190.3 208.5,190.3 211.2,190.3 213.9,190.3 216.6,190.3 219.3,190.3 222.0,190.3 224.7,190.3 227.4,190.3 230.1,190.3 232.8,190.3 235.5,190.3 238.1,190.3 240.8,190.3 243.5,190.3 246.2,190.3 248.9,190.3 251.6,190.3 254.3,189.3 257.0,189.3 259.7,189.3 262.4,190.7 265.1,190.7 267.8,190.7 270.5,190.7 273.2,190.7 275.9,190.7 278.6,190.7 281.3,190.7 284.0,190.7 286.7,190.9 289.4,190.9 292.1,190.9 294.7,194.2 297.4,196.8 300.1,198.0 302.8,198.0 305.5,198.0 308.2,198.0 310.9,198.0 313.6,198.0 316.3,198.0 319.0,198.0 321.7,198.0 324.4,198.0 327.1,198.0 329.8,198.0 332.5,198.0 335.2,198.0 337.9,198.0 340.6,198.0 343.3,198.0 346.0,198.0 348.7,198.0 351.3,198.0 354.0,198.0 356.7,198.0 359.4,198.0 362.1,198.0 364.8,198.0 367.5,198.0 370.2,198.0 372.9,198.0 375.6,198.0 378.3,198.0 381.0,198.0 383.7,198.0 386.4,198.0 389.1,198.0 391.8,198.0 394.5,198.0 397.2,198.0 399.9,198.0 402.6,198.0 405.3,198.0 407.9,198.0 410.6,198.0 413.3,198.0 416.0,198.0 418.7,198.0 421.4,198.0 424.1,198.0 426.8,198.0 429.5,198.0 432.2,198.0 434.9,198.0 437.6,198.0 440.3,198.0 443.0,198.0 445.7,198.0 448.4,198.0 451.1,198.0 453.8,198.0 456.5,198.0 459.2,198.0 461.9,198.0 464.5,198.0 467.2,198.0 469.9,198.0 472.6,198.0 475.3,198.0 478.0,198.0 480.7,198.0 483.4,198.0 486.1,198.0 488.8,198.0 491.5,198.0 494.2,198.0 496.9,198.0 499.6,198.0 502.3,198.0 505.0,198.0 507.7,198.0 510.4,198.0 513.1,198.0 515.8,198.0 518.5,198.0 521.2,198.0 523.8,198.0 526.5,198.0 529.2,198.0 531.9,198.0 534.6,198.0 537.3,198.0 540.0,198.0 542.7,198.0 545.4,198.0 548.1,198.0 550.8,198.0 553.5,198.0 556.2,198.0 558.9,198.0 561.6,198.0 564.3,198.0 567.0,198.0 569.7,198.0 572.4,198.0 575.1,198.0 577.8,198.0 580.4,198.0 583.1,198.0 585.8,198.0 588.5,198.0 591.2,198.0 593.9,198.0 596.6,198.0 599.3,198.0 602.0,198.0 604.7,198.0 607.4,198.0 610.1,198.0 612.8,198.0 615.5,198.0 618.2,198.0 620.9,198.0 623.6,198.0 626.3,198.0 629.0,198.0 631.7,198.0 634.4,198.0 637.0,198.0 639.7,198.0 642.4,198.0 645.1,198.0 647.8,198.0 650.5,198.0 653.2,198.0 655.9,198.0 658.6,198.0 661.3,198.0 664.0,198.0"/><circle cx="36.0" cy="198.0" r="3" fill="#3fb950"/><circle cx="38.7" cy="198.0" r="3" fill="#3fb950"/><circle cx="41.4" cy="198.0" r="3" fill="#3fb950"/><circle cx="44.1" cy="198.0" r="3" fill="#3fb950"/><circle cx="46.8" cy="198.0" r="3" fill="#3fb950"/><circle cx="49.5" cy="198.0" r="3" fill="#3fb950"/><circle cx="52.2" cy="198.0" r="3" fill="#3fb950"/><circle cx="54.9" cy="198.0" r="3" fill="#3fb950"/><circle cx="57.6" cy="198.0" r="3" fill="#3fb950"/><circle cx="60.3" cy="198.0" r="3" fill="#3fb950"/><circle cx="63.0" cy="198.0" r="3" fill="#3fb950"/><circle cx="65.6" cy="198.0" r="3" fill="#3fb950"/><circle cx="68.3" cy="198.0" r="3" fill="#3fb950"/><circle cx="71.0" cy="198.0" r="3" fill="#3fb950"/><circle cx="73.7" cy="198.0" r="3" fill="#3fb950"/><circle cx="76.4" cy="198.0" r="3" fill="#3fb950"/><circle cx="79.1" cy="198.0" r="3" fill="#3fb950"/><circle cx="81.8" cy="198.0" r="3" fill="#3fb950"/><circle cx="84.5" cy="198.0" r="3" fill="#3fb950"/><circle cx="87.2" cy="198.0" r="3" fill="#3fb950"/><circle cx="89.9" cy="198.0" r="3" fill="#3fb950"/><circle cx="92.6" cy="198.0" r="3" fill="#3fb950"/><circle cx="95.3" cy="198.0" r="3" fill="#3fb950"/><circle cx="98.0" cy="198.0" r="3" fill="#3fb950"/><circle cx="100.7" cy="198.0" r="3" fill="#3fb950"/><circle cx="103.4" cy="198.0" r="3" fill="#3fb950"/><circle cx="106.1" cy="198.0" r="3" fill="#3fb950"/><circle cx="108.8" cy="198.0" r="3" fill="#3fb950"/><circle cx="111.5" cy="198.0" r="3" fill="#3fb950"/><circle cx="114.2" cy="198.0" r="3" fill="#3fb950"/><circle cx="116.9" cy="198.0" r="3" fill="#3fb950"/><circle cx="119.6" cy="198.0" r="3" fill="#3fb950"/><circle cx="122.2" cy="198.0" r="3" fill="#3fb950"/><circle cx="124.9" cy="198.0" r="3" fill="#3fb950"/><circle cx="127.6" cy="198.0" r="3" fill="#3fb950"/><circle cx="130.3" cy="198.0" r="3" fill="#3fb950"/><circle cx="133.0" cy="198.0" r="3" fill="#3fb950"/><circle cx="135.7" cy="198.0" r="3" fill="#3fb950"/><circle cx="138.4" cy="198.0" r="3" fill="#3fb950"/><circle cx="141.1" cy="198.0" r="3" fill="#3fb950"/><circle cx="143.8" cy="198.0" r="3" fill="#3fb950"/><circle cx="146.5" cy="198.0" r="3" fill="#3fb950"/><circle cx="149.2" cy="198.0" r="3" fill="#3fb950"/><circle cx="151.9" cy="191.7" r="3" fill="#3fb950"/><circle cx="154.6" cy="191.7" r="3" fill="#3fb950"/><circle cx="157.3" cy="191.7" r="3" fill="#3fb950"/><circle cx="160.0" cy="191.7" r="3" fill="#3fb950"/><circle cx="162.7" cy="191.7" r="3" fill="#3fb950"/><circle cx="165.4" cy="191.7" r="3" fill="#3fb950"/><circle cx="168.1" cy="191.7" r="3" fill="#3fb950"/><circle cx="170.8" cy="192.9" r="3" fill="#3fb950"/><circle cx="173.5" cy="192.9" r="3" fill="#3fb950"/><circle cx="176.2" cy="190.7" r="3" fill="#3fb950"/><circle cx="178.8" cy="190.7" r="3" fill="#3fb950"/><circle cx="181.5" cy="190.7" r="3" fill="#3fb950"/><circle cx="184.2" cy="190.7" r="3" fill="#3fb950"/><circle cx="186.9" cy="190.7" r="3" fill="#3fb950"/><circle cx="189.6" cy="190.5" r="3" fill="#3fb950"/><circle cx="192.3" cy="190.5" r="3" fill="#3fb950"/><circle cx="195.0" cy="190.5" r="3" fill="#3fb950"/><circle cx="197.7" cy="190.3" r="3" fill="#3fb950"/><circle cx="200.4" cy="190.3" r="3" fill="#3fb950"/><circle cx="203.1" cy="190.3" r="3" fill="#3fb950"/><circle cx="205.8" cy="190.3" r="3" fill="#3fb950"/><circle cx="208.5" cy="190.3" r="3" fill="#3fb950"/><circle cx="211.2" cy="190.3" r="3" fill="#3fb950"/><circle cx="213.9" cy="190.3" r="3" fill="#3fb950"/><circle cx="216.6" cy="190.3" r="3" fill="#3fb950"/><circle cx="219.3" cy="190.3" r="3" fill="#3fb950"/><circle cx="222.0" cy="190.3" r="3" fill="#3fb950"/><circle cx="224.7" cy="190.3" r="3" fill="#3fb950"/><circle cx="227.4" cy="190.3" r="3" fill="#3fb950"/><circle cx="230.1" cy="190.3" r="3" fill="#3fb950"/><circle cx="232.8" cy="190.3" r="3" fill="#3fb950"/><circle cx="235.5" cy="190.3" r="3" fill="#3fb950"/><circle cx="238.1" cy="190.3" r="3" fill="#3fb950"/><circle cx="240.8" cy="190.3" r="3" fill="#3fb950"/><circle cx="243.5" cy="190.3" r="3" fill="#3fb950"/><circle cx="246.2" cy="190.3" r="3" fill="#3fb950"/><circle cx="248.9" cy="190.3" r="3" fill="#3fb950"/><circle cx="251.6" cy="190.3" r="3" fill="#3fb950"/><circle cx="254.3" cy="189.3" r="3" fill="#3fb950"/><circle cx="257.0" cy="189.3" r="3" fill="#3fb950"/><circle cx="259.7" cy="189.3" r="3" fill="#3fb950"/><circle cx="262.4" cy="190.7" r="3" fill="#3fb950"/><circle cx="265.1" cy="190.7" r="3" fill="#3fb950"/><circle cx="267.8" cy="190.7" r="3" fill="#3fb950"/><circle cx="270.5" cy="190.7" r="3" fill="#3fb950"/><circle cx="273.2" cy="190.7" r="3" fill="#3fb950"/><circle cx="275.9" cy="190.7" r="3" fill="#3fb950"/><circle cx="278.6" cy="190.7" r="3" fill="#3fb950"/><circle cx="281.3" cy="190.7" r="3" fill="#3fb950"/><circle cx="284.0" cy="190.7" r="3" fill="#3fb950"/><circle cx="286.7" cy="190.9" r="3" fill="#3fb950"/><circle cx="289.4" cy="190.9" r="3" fill="#3fb950"/><circle cx="292.1" cy="190.9" r="3" fill="#3fb950"/><circle cx="294.7" cy="194.2" r="3" fill="#3fb950"/><circle cx="297.4" cy="196.8" r="3" fill="#3fb950"/><circle cx="300.1" cy="198.0" r="3" fill="#3fb950"/><circle cx="302.8" cy="198.0" r="3" fill="#3fb950"/><circle cx="305.5" cy="198.0" r="3" fill="#3fb950"/><circle cx="308.2" cy="198.0" r="3" fill="#3fb950"/><circle cx="310.9" cy="198.0" r="3" fill="#3fb950"/><circle cx="313.6" cy="198.0" r="3" fill="#3fb950"/><circle cx="316.3" cy="198.0" r="3" fill="#3fb950"/><circle cx="319.0" cy="198.0" r="3" fill="#3fb950"/><circle cx="321.7" cy="198.0" r="3" fill="#3fb950"/><circle cx="324.4" cy="198.0" r="3" fill="#3fb950"/><circle cx="327.1" cy="198.0" r="3" fill="#3fb950"/><circle cx="329.8" cy="198.0" r="3" fill="#3fb950"/><circle cx="332.5" cy="198.0" r="3" fill="#3fb950"/><circle cx="335.2" cy="198.0" r="3" fill="#3fb950"/><circle cx="337.9" cy="198.0" r="3" fill="#3fb950"/><circle cx="340.6" cy="198.0" r="3" fill="#3fb950"/><circle cx="343.3" cy="198.0" r="3" fill="#3fb950"/><circle cx="346.0" cy="198.0" r="3" fill="#3fb950"/><circle cx="348.7" cy="198.0" r="3" fill="#3fb950"/><circle cx="351.3" cy="198.0" r="3" fill="#3fb950"/><circle cx="354.0" cy="198.0" r="3" fill="#3fb950"/><circle cx="356.7" cy="198.0" r="3" fill="#3fb950"/><circle cx="359.4" cy="198.0" r="3" fill="#3fb950"/><circle cx="362.1" cy="198.0" r="3" fill="#3fb950"/><circle cx="364.8" cy="198.0" r="3" fill="#3fb950"/><circle cx="367.5" cy="198.0" r="3" fill="#3fb950"/><circle cx="370.2" cy="198.0" r="3" fill="#3fb950"/><circle cx="372.9" cy="198.0" r="3" fill="#3fb950"/><circle cx="375.6" cy="198.0" r="3" fill="#3fb950"/><circle cx="378.3" cy="198.0" r="3" fill="#3fb950"/><circle cx="381.0" cy="198.0" r="3" fill="#3fb950"/><circle cx="383.7" cy="198.0" r="3" fill="#3fb950"/><circle cx="386.4" cy="198.0" r="3" fill="#3fb950"/><circle cx="389.1" cy="198.0" r="3" fill="#3fb950"/><circle cx="391.8" cy="198.0" r="3" fill="#3fb950"/><circle cx="394.5" cy="198.0" r="3" fill="#3fb950"/><circle cx="397.2" cy="198.0" r="3" fill="#3fb950"/><circle cx="399.9" cy="198.0" r="3" fill="#3fb950"/><circle cx="402.6" cy="198.0" r="3" fill="#3fb950"/><circle cx="405.3" cy="198.0" r="3" fill="#3fb950"/><circle cx="407.9" cy="198.0" r="3" fill="#3fb950"/><circle cx="410.6" cy="198.0" r="3" fill="#3fb950"/><circle cx="413.3" cy="198.0" r="3" fill="#3fb950"/><circle cx="416.0" cy="198.0" r="3" fill="#3fb950"/><circle cx="418.7" cy="198.0" r="3" fill="#3fb950"/><circle cx="421.4" cy="198.0" r="3" fill="#3fb950"/><circle cx="424.1" cy="198.0" r="3" fill="#3fb950"/><circle cx="426.8" cy="198.0" r="3" fill="#3fb950"/><circle cx="429.5" cy="198.0" r="3" fill="#3fb950"/><circle cx="432.2" cy="198.0" r="3" fill="#3fb950"/><circle cx="434.9" cy="198.0" r="3" fill="#3fb950"/><circle cx="437.6" cy="198.0" r="3" fill="#3fb950"/><circle cx="440.3" cy="198.0" r="3" fill="#3fb950"/><circle cx="443.0" cy="198.0" r="3" fill="#3fb950"/><circle cx="445.7" cy="198.0" r="3" fill="#3fb950"/><circle cx="448.4" cy="198.0" r="3" fill="#3fb950"/><circle cx="451.1" cy="198.0" r="3" fill="#3fb950"/><circle cx="453.8" cy="198.0" r="3" fill="#3fb950"/><circle cx="456.5" cy="198.0" r="3" fill="#3fb950"/><circle cx="459.2" cy="198.0" r="3" fill="#3fb950"/><circle cx="461.9" cy="198.0" r="3" fill="#3fb950"/><circle cx="464.5" cy="198.0" r="3" fill="#3fb950"/><circle cx="467.2" cy="198.0" r="3" fill="#3fb950"/><circle cx="469.9" cy="198.0" r="3" fill="#3fb950"/><circle cx="472.6" cy="198.0" r="3" fill="#3fb950"/><circle cx="475.3" cy="198.0" r="3" fill="#3fb950"/><circle cx="478.0" cy="198.0" r="3" fill="#3fb950"/><circle cx="480.7" cy="198.0" r="3" fill="#3fb950"/><circle cx="483.4" cy="198.0" r="3" fill="#3fb950"/><circle cx="486.1" cy="198.0" r="3" fill="#3fb950"/><circle cx="488.8" cy="198.0" r="3" fill="#3fb950"/><circle cx="491.5" cy="198.0" r="3" fill="#3fb950"/><circle cx="494.2" cy="198.0" r="3" fill="#3fb950"/><circle cx="496.9" cy="198.0" r="3" fill="#3fb950"/><circle cx="499.6" cy="198.0" r="3" fill="#3fb950"/><circle cx="502.3" cy="198.0" r="3" fill="#3fb950"/><circle cx="505.0" cy="198.0" r="3" fill="#3fb950"/><circle cx="507.7" cy="198.0" r="3" fill="#3fb950"/><circle cx="510.4" cy="198.0" r="3" fill="#3fb950"/><circle cx="513.1" cy="198.0" r="3" fill="#3fb950"/><circle cx="515.8" cy="198.0" r="3" fill="#3fb950"/><circle cx="518.5" cy="198.0" r="3" fill="#3fb950"/><circle cx="521.2" cy="198.0" r="3" fill="#3fb950"/><circle cx="523.8" cy="198.0" r="3" fill="#3fb950"/><circle cx="526.5" cy="198.0" r="3" fill="#3fb950"/><circle cx="529.2" cy="198.0" r="3" fill="#3fb950"/><circle cx="531.9" cy="198.0" r="3" fill="#3fb950"/><circle cx="534.6" cy="198.0" r="3" fill="#3fb950"/><circle cx="537.3" cy="198.0" r="3" fill="#3fb950"/><circle cx="540.0" cy="198.0" r="3" fill="#3fb950"/><circle cx="542.7" cy="198.0" r="3" fill="#3fb950"/><circle cx="545.4" cy="198.0" r="3" fill="#3fb950"/><circle cx="548.1" cy="198.0" r="3" fill="#3fb950"/><circle cx="550.8" cy="198.0" r="3" fill="#3fb950"/><circle cx="553.5" cy="198.0" r="3" fill="#3fb950"/><circle cx="556.2" cy="198.0" r="3" fill="#3fb950"/><circle cx="558.9" cy="198.0" r="3" fill="#3fb950"/><circle cx="561.6" cy="198.0" r="3" fill="#3fb950"/><circle cx="564.3" cy="198.0" r="3" fill="#3fb950"/><circle cx="567.0" cy="198.0" r="3" fill="#3fb950"/><circle cx="569.7" cy="198.0" r="3" fill="#3fb950"/><circle cx="572.4" cy="198.0" r="3" fill="#3fb950"/><circle cx="575.1" cy="198.0" r="3" fill="#3fb950"/><circle cx="577.8" cy="198.0" r="3" fill="#3fb950"/><circle cx="580.4" cy="198.0" r="3" fill="#3fb950"/><circle cx="583.1" cy="198.0" r="3" fill="#3fb950"/><circle cx="585.8" cy="198.0" r="3" fill="#3fb950"/><circle cx="588.5" cy="198.0" r="3" fill="#3fb950"/><circle cx="591.2" cy="198.0" r="3" fill="#3fb950"/><circle cx="593.9" cy="198.0" r="3" fill="#3fb950"/><circle cx="596.6" cy="198.0" r="3" fill="#3fb950"/><circle cx="599.3" cy="198.0" r="3" fill="#3fb950"/><circle cx="602.0" cy="198.0" r="3" fill="#3fb950"/><circle cx="604.7" cy="198.0" r="3" fill="#3fb950"/><circle cx="607.4" cy="198.0" r="3" fill="#3fb950"/><circle cx="610.1" cy="198.0" r="3" fill="#3fb950"/><circle cx="612.8" cy="198.0" r="3" fill="#3fb950"/><circle cx="615.5" cy="198.0" r="3" fill="#3fb950"/><circle cx="618.2" cy="198.0" r="3" fill="#3fb950"/><circle cx="620.9" cy="198.0" r="3" fill="#3fb950"/><circle cx="623.6" cy="198.0" r="3" fill="#3fb950"/><circle cx="626.3" cy="198.0" r="3" fill="#3fb950"/><circle cx="629.0" cy="198.0" r="3" fill="#3fb950"/><circle cx="631.7" cy="198.0" r="3" fill="#3fb950"/><circle cx="634.4" cy="198.0" r="3" fill="#3fb950"/><circle cx="637.0" cy="198.0" r="3" fill="#3fb950"/><circle cx="639.7" cy="198.0" r="3" fill="#3fb950"/><circle cx="642.4" cy="198.0" r="3" fill="#3fb950"/><circle cx="645.1" cy="198.0" r="3" fill="#3fb950"/><circle cx="647.8" cy="198.0" r="3" fill="#3fb950"/><circle cx="650.5" cy="198.0" r="3" fill="#3fb950"/><circle cx="653.2" cy="198.0" r="3" fill="#3fb950"/><circle cx="655.9" cy="198.0" r="3" fill="#3fb950"/><circle cx="658.6" cy="198.0" r="3" fill="#3fb950"/><circle cx="661.3" cy="198.0" r="3" fill="#3fb950"/><circle cx="664.0" cy="198.0" r="3" fill="#3fb950"/>
<polyline fill="none" stroke="#4aa3ff" stroke-width="2.5" stroke-linejoin="round" points="36.0,144.3 38.7,144.3 41.4,144.3 44.1,144.3 46.8,144.3 49.5,144.3 52.2,144.3 54.9,144.3 57.6,144.3 60.3,144.3 63.0,144.3 65.6,144.3 68.3,144.3 71.0,144.3 73.7,144.3 76.4,136.2 79.1,132.4 81.8,129.6 84.5,129.6 87.2,121.0 89.9,121.0 92.6,121.0 95.3,114.4 98.0,114.4 100.7,114.4 103.4,111.3 106.1,110.9 108.8,110.9 111.5,110.5 114.2,110.5 116.9,109.9 119.6,108.7 122.2,107.3 124.9,106.9 127.6,106.9 130.3,106.9 133.0,106.9 135.7,106.9 138.4,106.9 141.1,106.9 143.8,106.9 146.5,106.9 149.2,106.9 151.9,113.2 154.6,113.2 157.3,113.2 160.0,113.2 162.7,113.2 165.4,110.7 168.1,105.3 170.8,83.4 173.5,83.4 176.2,85.6 178.8,85.6 181.5,85.6 184.2,85.6 186.9,85.6 189.6,85.8 192.3,85.8 195.0,85.8 197.7,86.0 200.4,86.0 203.1,86.0 205.8,86.0 208.5,86.0 211.2,86.0 213.9,86.0 216.6,86.0 219.3,86.0 222.0,86.0 224.7,86.0 227.4,86.0 230.1,86.0 232.8,86.0 235.5,86.0 238.1,86.0 240.8,86.0 243.5,86.0 246.2,86.0 248.9,86.0 251.6,86.0 254.3,87.0 257.0,87.0 259.7,87.0 262.4,73.7 265.1,73.7 267.8,71.0 270.5,71.0 273.2,70.8 275.9,70.6 278.6,70.6 281.3,70.4 284.0,68.6 286.7,60.5 289.4,59.3 292.1,52.0 294.7,47.3 297.4,40.1 300.1,36.0 302.8,36.0 305.5,36.0 308.2,36.0 310.9,36.0 313.6,36.0 316.3,36.0 319.0,36.0 321.7,36.0 324.4,36.0 327.1,36.0 329.8,36.0 332.5,36.0 335.2,36.0 337.9,36.0 340.6,36.0 343.3,36.0 346.0,36.0 348.7,36.0 351.3,36.0 354.0,36.0 356.7,36.0 359.4,36.0 362.1,36.0 364.8,36.0 367.5,36.0 370.2,36.0 372.9,36.0 375.6,36.0 378.3,36.0 381.0,36.0 383.7,36.0 386.4,36.0 389.1,36.0 391.8,36.0 394.5,36.0 397.2,36.0 399.9,36.0 402.6,36.0 405.3,36.0 407.9,36.0 410.6,36.0 413.3,36.0 416.0,36.0 418.7,36.0 421.4,36.0 424.1,36.0 426.8,36.0 429.5,36.0 432.2,36.0 434.9,36.0 437.6,36.0 440.3,36.0 443.0,36.0 445.7,36.0 448.4,36.0 451.1,36.0 453.8,36.0 456.5,36.0 459.2,36.0 461.9,36.0 464.5,36.0 467.2,36.0 469.9,36.0 472.6,36.0 475.3,36.0 478.0,36.0 480.7,36.0 483.4,36.0 486.1,36.0 488.8,36.0 491.5,36.0 494.2,36.0 496.9,36.0 499.6,36.0 502.3,36.0 505.0,36.0 507.7,36.0 510.4,36.0 513.1,36.0 515.8,36.0 518.5,36.0 521.2,36.0 523.8,36.0 526.5,36.0 529.2,36.0 531.9,36.0 534.6,36.0 537.3,36.0 540.0,36.0 542.7,36.0 545.4,36.0 548.1,36.0 550.8,36.0 553.5,36.0 556.2,36.0 558.9,36.0 561.6,36.0 564.3,36.0 567.0,36.0 569.7,36.0 572.4,36.0 575.1,36.0 577.8,36.0 580.4,36.0 583.1,36.0 585.8,36.0 588.5,36.0 591.2,36.0 593.9,36.0 596.6,36.0 599.3,36.0 602.0,36.0 604.7,36.0 607.4,36.0 610.1,36.0 612.8,36.0 615.5,36.0 618.2,36.0 620.9,36.0 623.6,36.0 626.3,36.0 629.0,36.0 631.7,36.0 634.4,36.0 637.0,36.0 639.7,36.0 642.4,36.0 645.1,36.0 647.8,36.0 650.5,36.0 653.2,36.0 655.9,36.0 658.6,36.0 661.3,36.0 664.0,36.0"/><circle cx="36.0" cy="144.3" r="3" fill="#4aa3ff"/><circle cx="38.7" cy="144.3" r="3" fill="#4aa3ff"/><circle cx="41.4" cy="144.3" r="3" fill="#4aa3ff"/><circle cx="44.1" cy="144.3" r="3" fill="#4aa3ff"/><circle cx="46.8" cy="144.3" r="3" fill="#4aa3ff"/><circle cx="49.5" cy="144.3" r="3" fill="#4aa3ff"/><circle cx="52.2" cy="144.3" r="3" fill="#4aa3ff"/><circle cx="54.9" cy="144.3" r="3" fill="#4aa3ff"/><circle cx="57.6" cy="144.3" r="3" fill="#4aa3ff"/><circle cx="60.3" cy="144.3" r="3" fill="#4aa3ff"/><circle cx="63.0" cy="144.3" r="3" fill="#4aa3ff"/><circle cx="65.6" cy="144.3" r="3" fill="#4aa3ff"/><circle cx="68.3" cy="144.3" r="3" fill="#4aa3ff"/><circle cx="71.0" cy="144.3" r="3" fill="#4aa3ff"/><circle cx="73.7" cy="144.3" r="3" fill="#4aa3ff"/><circle cx="76.4" cy="136.2" r="3" fill="#4aa3ff"/><circle cx="79.1" cy="132.4" r="3" fill="#4aa3ff"/><circle cx="81.8" cy="129.6" r="3" fill="#4aa3ff"/><circle cx="84.5" cy="129.6" r="3" fill="#4aa3ff"/><circle cx="87.2" cy="121.0" r="3" fill="#4aa3ff"/><circle cx="89.9" cy="121.0" r="3" fill="#4aa3ff"/><circle cx="92.6" cy="121.0" r="3" fill="#4aa3ff"/><circle cx="95.3" cy="114.4" r="3" fill="#4aa3ff"/><circle cx="98.0" cy="114.4" r="3" fill="#4aa3ff"/><circle cx="100.7" cy="114.4" r="3" fill="#4aa3ff"/><circle cx="103.4" cy="111.3" r="3" fill="#4aa3ff"/><circle cx="106.1" cy="110.9" r="3" fill="#4aa3ff"/><circle cx="108.8" cy="110.9" r="3" fill="#4aa3ff"/><circle cx="111.5" cy="110.5" r="3" fill="#4aa3ff"/><circle cx="114.2" cy="110.5" r="3" fill="#4aa3ff"/><circle cx="116.9" cy="109.9" r="3" fill="#4aa3ff"/><circle cx="119.6" cy="108.7" r="3" fill="#4aa3ff"/><circle cx="122.2" cy="107.3" r="3" fill="#4aa3ff"/><circle cx="124.9" cy="106.9" r="3" fill="#4aa3ff"/><circle cx="127.6" cy="106.9" r="3" fill="#4aa3ff"/><circle cx="130.3" cy="106.9" r="3" fill="#4aa3ff"/><circle cx="133.0" cy="106.9" r="3" fill="#4aa3ff"/><circle cx="135.7" cy="106.9" r="3" fill="#4aa3ff"/><circle cx="138.4" cy="106.9" r="3" fill="#4aa3ff"/><circle cx="141.1" cy="106.9" r="3" fill="#4aa3ff"/><circle cx="143.8" cy="106.9" r="3" fill="#4aa3ff"/><circle cx="146.5" cy="106.9" r="3" fill="#4aa3ff"/><circle cx="149.2" cy="106.9" r="3" fill="#4aa3ff"/><circle cx="151.9" cy="113.2" r="3" fill="#4aa3ff"/><circle cx="154.6" cy="113.2" r="3" fill="#4aa3ff"/><circle cx="157.3" cy="113.2" r="3" fill="#4aa3ff"/><circle cx="160.0" cy="113.2" r="3" fill="#4aa3ff"/><circle cx="162.7" cy="113.2" r="3" fill="#4aa3ff"/><circle cx="165.4" cy="110.7" r="3" fill="#4aa3ff"/><circle cx="168.1" cy="105.3" r="3" fill="#4aa3ff"/><circle cx="170.8" cy="83.4" r="3" fill="#4aa3ff"/><circle cx="173.5" cy="83.4" r="3" fill="#4aa3ff"/><circle cx="176.2" cy="85.6" r="3" fill="#4aa3ff"/><circle cx="178.8" cy="85.6" r="3" fill="#4aa3ff"/><circle cx="181.5" cy="85.6" r="3" fill="#4aa3ff"/><circle cx="184.2" cy="85.6" r="3" fill="#4aa3ff"/><circle cx="186.9" cy="85.6" r="3" fill="#4aa3ff"/><circle cx="189.6" cy="85.8" r="3" fill="#4aa3ff"/><circle cx="192.3" cy="85.8" r="3" fill="#4aa3ff"/><circle cx="195.0" cy="85.8" r="3" fill="#4aa3ff"/><circle cx="197.7" cy="86.0" r="3" fill="#4aa3ff"/><circle cx="200.4" cy="86.0" r="3" fill="#4aa3ff"/><circle cx="203.1" cy="86.0" r="3" fill="#4aa3ff"/><circle cx="205.8" cy="86.0" r="3" fill="#4aa3ff"/><circle cx="208.5" cy="86.0" r="3" fill="#4aa3ff"/><circle cx="211.2" cy="86.0" r="3" fill="#4aa3ff"/><circle cx="213.9" cy="86.0" r="3" fill="#4aa3ff"/><circle cx="216.6" cy="86.0" r="3" fill="#4aa3ff"/><circle cx="219.3" cy="86.0" r="3" fill="#4aa3ff"/><circle cx="222.0" cy="86.0" r="3" fill="#4aa3ff"/><circle cx="224.7" cy="86.0" r="3" fill="#4aa3ff"/><circle cx="227.4" cy="86.0" r="3" fill="#4aa3ff"/><circle cx="230.1" cy="86.0" r="3" fill="#4aa3ff"/><circle cx="232.8" cy="86.0" r="3" fill="#4aa3ff"/><circle cx="235.5" cy="86.0" r="3" fill="#4aa3ff"/><circle cx="238.1" cy="86.0" r="3" fill="#4aa3ff"/><circle cx="240.8" cy="86.0" r="3" fill="#4aa3ff"/><circle cx="243.5" cy="86.0" r="3" fill="#4aa3ff"/><circle cx="246.2" cy="86.0" r="3" fill="#4aa3ff"/><circle cx="248.9" cy="86.0" r="3" fill="#4aa3ff"/><circle cx="251.6" cy="86.0" r="3" fill="#4aa3ff"/><circle cx="254.3" cy="87.0" r="3" fill="#4aa3ff"/><circle cx="257.0" cy="87.0" r="3" fill="#4aa3ff"/><circle cx="259.7" cy="87.0" r="3" fill="#4aa3ff"/><circle cx="262.4" cy="73.7" r="3" fill="#4aa3ff"/><circle cx="265.1" cy="73.7" r="3" fill="#4aa3ff"/><circle cx="267.8" cy="71.0" r="3" fill="#4aa3ff"/><circle cx="270.5" cy="71.0" r="3" fill="#4aa3ff"/><circle cx="273.2" cy="70.8" r="3" fill="#4aa3ff"/><circle cx="275.9" cy="70.6" r="3" fill="#4aa3ff"/><circle cx="278.6" cy="70.6" r="3" fill="#4aa3ff"/><circle cx="281.3" cy="70.4" r="3" fill="#4aa3ff"/><circle cx="284.0" cy="68.6" r="3" fill="#4aa3ff"/><circle cx="286.7" cy="60.5" r="3" fill="#4aa3ff"/><circle cx="289.4" cy="59.3" r="3" fill="#4aa3ff"/><circle cx="292.1" cy="52.0" r="3" fill="#4aa3ff"/><circle cx="294.7" cy="47.3" r="3" fill="#4aa3ff"/><circle cx="297.4" cy="40.1" r="3" fill="#4aa3ff"/><circle cx="300.1" cy="36.0" r="3" fill="#4aa3ff"/><circle cx="302.8" cy="36.0" r="3" fill="#4aa3ff"/><circle cx="305.5" cy="36.0" r="3" fill="#4aa3ff"/><circle cx="308.2" cy="36.0" r="3" fill="#4aa3ff"/><circle cx="310.9" cy="36.0" r="3" fill="#4aa3ff"/><circle cx="313.6" cy="36.0" r="3" fill="#4aa3ff"/><circle cx="316.3" cy="36.0" r="3" fill="#4aa3ff"/><circle cx="319.0" cy="36.0" r="3" fill="#4aa3ff"/><circle cx="321.7" cy="36.0" r="3" fill="#4aa3ff"/><circle cx="324.4" cy="36.0" r="3" fill="#4aa3ff"/><circle cx="327.1" cy="36.0" r="3" fill="#4aa3ff"/><circle cx="329.8" cy="36.0" r="3" fill="#4aa3ff"/><circle cx="332.5" cy="36.0" r="3" fill="#4aa3ff"/><circle cx="335.2" cy="36.0" r="3" fill="#4aa3ff"/><circle cx="337.9" cy="36.0" r="3" fill="#4aa3ff"/><circle cx="340.6" cy="36.0" r="3" fill="#4aa3ff"/><circle cx="343.3" cy="36.0" r="3" fill="#4aa3ff"/><circle cx="346.0" cy="36.0" r="3" fill="#4aa3ff"/><circle cx="348.7" cy="36.0" r="3" fill="#4aa3ff"/><circle cx="351.3" cy="36.0" r="3" fill="#4aa3ff"/><circle cx="354.0" cy="36.0" r="3" fill="#4aa3ff"/><circle cx="356.7" cy="36.0" r="3" fill="#4aa3ff"/><circle cx="359.4" cy="36.0" r="3" fill="#4aa3ff"/><circle cx="362.1" cy="36.0" r="3" fill="#4aa3ff"/><circle cx="364.8" cy="36.0" r="3" fill="#4aa3ff"/><circle cx="367.5" cy="36.0" r="3" fill="#4aa3ff"/><circle cx="370.2" cy="36.0" r="3" fill="#4aa3ff"/><circle cx="372.9" cy="36.0" r="3" fill="#4aa3ff"/><circle cx="375.6" cy="36.0" r="3" fill="#4aa3ff"/><circle cx="378.3" cy="36.0" r="3" fill="#4aa3ff"/><circle cx="381.0" cy="36.0" r="3" fill="#4aa3ff"/><circle cx="383.7" cy="36.0" r="3" fill="#4aa3ff"/><circle cx="386.4" cy="36.0" r="3" fill="#4aa3ff"/><circle cx="389.1" cy="36.0" r="3" fill="#4aa3ff"/><circle cx="391.8" cy="36.0" r="3" fill="#4aa3ff"/><circle cx="394.5" cy="36.0" r="3" fill="#4aa3ff"/><circle cx="397.2" cy="36.0" r="3" fill="#4aa3ff"/><circle cx="399.9" cy="36.0" r="3" fill="#4aa3ff"/><circle cx="402.6" cy="36.0" r="3" fill="#4aa3ff"/><circle cx="405.3" cy="36.0" r="3" fill="#4aa3ff"/><circle cx="407.9" cy="36.0" r="3" fill="#4aa3ff"/><circle cx="410.6" cy="36.0" r="3" fill="#4aa3ff"/><circle cx="413.3" cy="36.0" r="3" fill="#4aa3ff"/><circle cx="416.0" cy="36.0" r="3" fill="#4aa3ff"/><circle cx="418.7" cy="36.0" r="3" fill="#4aa3ff"/><circle cx="421.4" cy="36.0" r="3" fill="#4aa3ff"/><circle cx="424.1" cy="36.0" r="3" fill="#4aa3ff"/><circle cx="426.8" cy="36.0" r="3" fill="#4aa3ff"/><circle cx="429.5" cy="36.0" r="3" fill="#4aa3ff"/><circle cx="432.2" cy="36.0" r="3" fill="#4aa3ff"/><circle cx="434.9" cy="36.0" r="3" fill="#4aa3ff"/><circle cx="437.6" cy="36.0" r="3" fill="#4aa3ff"/><circle cx="440.3" cy="36.0" r="3" fill="#4aa3ff"/><circle cx="443.0" cy="36.0" r="3" fill="#4aa3ff"/><circle cx="445.7" cy="36.0" r="3" fill="#4aa3ff"/><circle cx="448.4" cy="36.0" r="3" fill="#4aa3ff"/><circle cx="451.1" cy="36.0" r="3" fill="#4aa3ff"/><circle cx="453.8" cy="36.0" r="3" fill="#4aa3ff"/><circle cx="456.5" cy="36.0" r="3" fill="#4aa3ff"/><circle cx="459.2" cy="36.0" r="3" fill="#4aa3ff"/><circle cx="461.9" cy="36.0" r="3" fill="#4aa3ff"/><circle cx="464.5" cy="36.0" r="3" fill="#4aa3ff"/><circle cx="467.2" cy="36.0" r="3" fill="#4aa3ff"/><circle cx="469.9" cy="36.0" r="3" fill="#4aa3ff"/><circle cx="472.6" cy="36.0" r="3" fill="#4aa3ff"/><circle cx="475.3" cy="36.0" r="3" fill="#4aa3ff"/><circle cx="478.0" cy="36.0" r="3" fill="#4aa3ff"/><circle cx="480.7" cy="36.0" r="3" fill="#4aa3ff"/><circle cx="483.4" cy="36.0" r="3" fill="#4aa3ff"/><circle cx="486.1" cy="36.0" r="3" fill="#4aa3ff"/><circle cx="488.8" cy="36.0" r="3" fill="#4aa3ff"/><circle cx="491.5" cy="36.0" r="3" fill="#4aa3ff"/><circle cx="494.2" cy="36.0" r="3" fill="#4aa3ff"/><circle cx="496.9" cy="36.0" r="3" fill="#4aa3ff"/><circle cx="499.6" cy="36.0" r="3" fill="#4aa3ff"/><circle cx="502.3" cy="36.0" r="3" fill="#4aa3ff"/><circle cx="505.0" cy="36.0" r="3" fill="#4aa3ff"/><circle cx="507.7" cy="36.0" r="3" fill="#4aa3ff"/><circle cx="510.4" cy="36.0" r="3" fill="#4aa3ff"/><circle cx="513.1" cy="36.0" r="3" fill="#4aa3ff"/><circle cx="515.8" cy="36.0" r="3" fill="#4aa3ff"/><circle cx="518.5" cy="36.0" r="3" fill="#4aa3ff"/><circle cx="521.2" cy="36.0" r="3" fill="#4aa3ff"/><circle cx="523.8" cy="36.0" r="3" fill="#4aa3ff"/><circle cx="526.5" cy="36.0" r="3" fill="#4aa3ff"/><circle cx="529.2" cy="36.0" r="3" fill="#4aa3ff"/><circle cx="531.9" cy="36.0" r="3" fill="#4aa3ff"/><circle cx="534.6" cy="36.0" r="3" fill="#4aa3ff"/><circle cx="537.3" cy="36.0" r="3" fill="#4aa3ff"/><circle cx="540.0" cy="36.0" r="3" fill="#4aa3ff"/><circle cx="542.7" cy="36.0" r="3" fill="#4aa3ff"/><circle cx="545.4" cy="36.0" r="3" fill="#4aa3ff"/><circle cx="548.1" cy="36.0" r="3" fill="#4aa3ff"/><circle cx="550.8" cy="36.0" r="3" fill="#4aa3ff"/><circle cx="553.5" cy="36.0" r="3" fill="#4aa3ff"/><circle cx="556.2" cy="36.0" r="3" fill="#4aa3ff"/><circle cx="558.9" cy="36.0" r="3" fill="#4aa3ff"/><circle cx="561.6" cy="36.0" r="3" fill="#4aa3ff"/><circle cx="564.3" cy="36.0" r="3" fill="#4aa3ff"/><circle cx="567.0" cy="36.0" r="3" fill="#4aa3ff"/><circle cx="569.7" cy="36.0" r="3" fill="#4aa3ff"/><circle cx="572.4" cy="36.0" r="3" fill="#4aa3ff"/><circle cx="575.1" cy="36.0" r="3" fill="#4aa3ff"/><circle cx="577.8" cy="36.0" r="3" fill="#4aa3ff"/><circle cx="580.4" cy="36.0" r="3" fill="#4aa3ff"/><circle cx="583.1" cy="36.0" r="3" fill="#4aa3ff"/><circle cx="585.8" cy="36.0" r="3" fill="#4aa3ff"/><circle cx="588.5" cy="36.0" r="3" fill="#4aa3ff"/><circle cx="591.2" cy="36.0" r="3" fill="#4aa3ff"/><circle cx="593.9" cy="36.0" r="3" fill="#4aa3ff"/><circle cx="596.6" cy="36.0" r="3" fill="#4aa3ff"/><circle cx="599.3" cy="36.0" r="3" fill="#4aa3ff"/><circle cx="602.0" cy="36.0" r="3" fill="#4aa3ff"/><circle cx="604.7" cy="36.0" r="3" fill="#4aa3ff"/><circle cx="607.4" cy="36.0" r="3" fill="#4aa3ff"/><circle cx="610.1" cy="36.0" r="3" fill="#4aa3ff"/><circle cx="612.8" cy="36.0" r="3" fill="#4aa3ff"/><circle cx="615.5" cy="36.0" r="3" fill="#4aa3ff"/><circle cx="618.2" cy="36.0" r="3" fill="#4aa3ff"/><circle cx="620.9" cy="36.0" r="3" fill="#4aa3ff"/><circle cx="623.6" cy="36.0" r="3" fill="#4aa3ff"/><circle cx="626.3" cy="36.0" r="3" fill="#4aa3ff"/><circle cx="629.0" cy="36.0" r="3" fill="#4aa3ff"/><circle cx="631.7" cy="36.0" r="3" fill="#4aa3ff"/><circle cx="634.4" cy="36.0" r="3" fill="#4aa3ff"/><circle cx="637.0" cy="36.0" r="3" fill="#4aa3ff"/><circle cx="639.7" cy="36.0" r="3" fill="#4aa3ff"/><circle cx="642.4" cy="36.0" r="3" fill="#4aa3ff"/><circle cx="645.1" cy="36.0" r="3" fill="#4aa3ff"/><circle cx="647.8" cy="36.0" r="3" fill="#4aa3ff"/><circle cx="650.5" cy="36.0" r="3" fill="#4aa3ff"/><circle cx="653.2" cy="36.0" r="3" fill="#4aa3ff"/><circle cx="655.9" cy="36.0" r="3" fill="#4aa3ff"/><circle cx="658.6" cy="36.0" r="3" fill="#4aa3ff"/><circle cx="661.3" cy="36.0" r="3" fill="#4aa3ff"/><circle cx="664.0" cy="36.0" r="3" fill="#4aa3ff"/>
<text x="36" y="225" fill="#6b7280" font-size="11">2026-06-26</text>
<text x="664" y="225" fill="#6b7280" font-size="11" text-anchor="end">2026-07-19</text>
<text x="36" y="212" font-family="system-ui,sans-serif" font-size="11">
<tspan fill="#4aa3ff">&#9679; open FPs</tspan>  <tspan fill="#3fb950">&#9679; closed (Anthropic acting)</tspan>  <tspan fill="#8a5a5a">&#9679; harness withdrawn</tspan></text>
<text x="664" y="22" text-anchor="end" font-family="system-ui,sans-serif" font-size="12">
<tspan fill="#4aa3ff">open 800</tspan>  <tspan fill="#3fb950">closed 0</tspan>  <tspan fill="#8a5a5a">harness 0</tspan></text>
</svg>