<svg xmlns="http://www.w3.org/2000/svg" width="700" height="234" viewBox="0 0 700 234" role="img">
<rect width="700" height="234" rx="12" fill="#16181d"/>
<text x="36" y="22" fill="#e8eaed" font-family="system-ui,sans-serif" font-size="14" font-weight="700">Is Anthropic acting? cyber/aup false positives over time</text>
<line x1="36" y1="198.0" x2="664" y2="198.0" stroke="#2a2e37" stroke-width="1"/><text x="30" y="202.0" fill="#6b7280" font-size="11" text-anchor="end">0</text><line x1="36" y1="117.0" x2="664" y2="117.0" stroke="#2a2e37" stroke-width="1"/><text x="30" y="121.0" fill="#6b7280" font-size="11" text-anchor="end">390</text><line x1="36" y1="36.0" x2="664" y2="36.0" stroke="#2a2e37" stroke-width="1"/><text x="30" y="40.0" fill="#6b7280" font-size="11" text-anchor="end">780</text>

<polyline fill="none" stroke="#8a5a5a" stroke-width="2.5" stroke-linejoin="round" points="36.0,143.8 42.5,143.8 48.9,143.8 55.4,143.8 61.9,143.8 68.4,143.8 74.8,143.8 81.3,143.8 87.8,143.8 94.3,143.8 100.7,143.8 107.2,143.8 113.7,143.8 120.2,143.8 126.6,143.8 133.1,143.8 139.6,143.8 146.1,143.8 152.5,143.8 159.0,143.8 165.5,143.8 172.0,143.8 178.4,143.8 184.9,143.8 191.4,143.8 197.9,143.8 204.3,143.8 210.8,143.8 217.3,143.8 223.8,143.8 230.2,143.8 236.7,143.8 243.2,143.8 249.6,143.8 256.1,143.8 262.6,143.8 269.1,143.8 275.5,143.8 282.0,143.8 288.5,143.8 295.0,143.8 301.4,143.8 307.9,143.8 314.4,143.8 320.9,143.8 327.3,143.8 333.8,143.8 340.3,143.8 346.8,143.8 353.2,143.8 359.7,154.6 366.2,154.6 372.7,154.6 379.1,154.6 385.6,154.6 392.1,154.6 398.6,154.6 405.0,154.6 411.5,154.6 418.0,154.6 424.5,154.6 430.9,154.6 437.4,154.6 443.9,154.6 450.4,154.6 456.8,154.6 463.3,154.6 469.8,154.6 476.2,154.6 482.7,154.6 489.2,154.6 495.7,154.6 502.1,154.6 508.6,154.6 515.1,154.6 521.6,154.6 528.0,154.6 534.5,154.6 541.0,154.6 547.5,154.6 553.9,154.6 560.4,154.6 566.9,154.6 573.4,154.6 579.8,166.8 586.3,166.8 592.8,169.5 599.3,169.5 605.7,169.8 612.2,170.0 618.7,170.0 625.2,170.2 631.6,172.0 638.1,180.1 644.6,181.4 651.1,188.9 657.5,190.3 664.0,195.1"/><circle cx="36.0" cy="143.8" r="3" fill="#8a5a5a"/><circle cx="42.5" cy="143.8" r="3" fill="#8a5a5a"/><circle cx="48.9" cy="143.8" r="3" fill="#8a5a5a"/><circle cx="55.4" cy="143.8" r="3" fill="#8a5a5a"/><circle cx="61.9" cy="143.8" r="3" fill="#8a5a5a"/><circle cx="68.4" cy="143.8" r="3" fill="#8a5a5a"/><circle cx="74.8" cy="143.8" r="3" fill="#8a5a5a"/><circle cx="81.3" cy="143.8" r="3" fill="#8a5a5a"/><circle cx="87.8" cy="143.8" r="3" fill="#8a5a5a"/><circle cx="94.3" cy="143.8" r="3" fill="#8a5a5a"/><circle cx="100.7" cy="143.8" r="3" fill="#8a5a5a"/><circle cx="107.2" cy="143.8" r="3" fill="#8a5a5a"/><circle cx="113.7" cy="143.8" r="3" fill="#8a5a5a"/><circle cx="120.2" cy="143.8" r="3" fill="#8a5a5a"/><circle cx="126.6" cy="143.8" r="3" fill="#8a5a5a"/><circle cx="133.1" cy="143.8" r="3" fill="#8a5a5a"/><circle cx="139.6" cy="143.8" r="3" fill="#8a5a5a"/><circle cx="146.1" cy="143.8" r="3" fill="#8a5a5a"/><circle cx="152.5" cy="143.8" r="3" fill="#8a5a5a"/><circle cx="159.0" cy="143.8" r="3" fill="#8a5a5a"/><circle cx="165.5" cy="143.8" r="3" fill="#8a5a5a"/><circle cx="172.0" cy="143.8" r="3" fill="#8a5a5a"/><circle cx="178.4" cy="143.8" r="3" fill="#8a5a5a"/><circle cx="184.9" cy="143.8" r="3" fill="#8a5a5a"/><circle cx="191.4" cy="143.8" r="3" fill="#8a5a5a"/><circle cx="197.9" cy="143.8" r="3" fill="#8a5a5a"/><circle cx="204.3" cy="143.8" r="3" fill="#8a5a5a"/><circle cx="210.8" cy="143.8" r="3" fill="#8a5a5a"/><circle cx="217.3" cy="143.8" r="3" fill="#8a5a5a"/><circle cx="223.8" cy="143.8" r="3" fill="#8a5a5a"/><circle cx="230.2" cy="143.8" r="3" fill="#8a5a5a"/><circle cx="236.7" cy="143.8" r="3" fill="#8a5a5a"/><circle cx="243.2" cy="143.8" r="3" fill="#8a5a5a"/><circle cx="249.6" cy="143.8" r="3" fill="#8a5a5a"/><circle cx="256.1" cy="143.8" r="3" fill="#8a5a5a"/><circle cx="262.6" cy="143.8" r="3" fill="#8a5a5a"/><circle cx="269.1" cy="143.8" r="3" fill="#8a5a5a"/><circle cx="275.5" cy="143.8" r="3" fill="#8a5a5a"/><circle cx="282.0" cy="143.8" r="3" fill="#8a5a5a"/><circle cx="288.5" cy="143.8" r="3" fill="#8a5a5a"/><circle cx="295.0" cy="143.8" r="3" fill="#8a5a5a"/><circle cx="301.4" cy="143.8" r="3" fill="#8a5a5a"/><circle cx="307.9" cy="143.8" r="3" fill="#8a5a5a"/><circle cx="314.4" cy="143.8" r="3" fill="#8a5a5a"/><circle cx="320.9" cy="143.8" r="3" fill="#8a5a5a"/><circle cx="327.3" cy="143.8" r="3" fill="#8a5a5a"/><circle cx="333.8" cy="143.8" r="3" fill="#8a5a5a"/><circle cx="340.3" cy="143.8" r="3" fill="#8a5a5a"/><circle cx="346.8" cy="143.8" r="3" fill="#8a5a5a"/><circle cx="353.2" cy="143.8" r="3" fill="#8a5a5a"/><circle cx="359.7" cy="154.6" r="3" fill="#8a5a5a"/><circle cx="366.2" cy="154.6" r="3" fill="#8a5a5a"/><circle cx="372.7" cy="154.6" r="3" fill="#8a5a5a"/><circle cx="379.1" cy="154.6" r="3" fill="#8a5a5a"/><circle cx="385.6" cy="154.6" r="3" fill="#8a5a5a"/><circle cx="392.1" cy="154.6" r="3" fill="#8a5a5a"/><circle cx="398.6" cy="154.6" r="3" fill="#8a5a5a"/><circle cx="405.0" cy="154.6" r="3" fill="#8a5a5a"/><circle cx="411.5" cy="154.6" r="3" fill="#8a5a5a"/><circle cx="418.0" cy="154.6" r="3" fill="#8a5a5a"/><circle cx="424.5" cy="154.6" r="3" fill="#8a5a5a"/><circle cx="430.9" cy="154.6" r="3" fill="#8a5a5a"/><circle cx="437.4" cy="154.6" r="3" fill="#8a5a5a"/><circle cx="443.9" cy="154.6" r="3" fill="#8a5a5a"/><circle cx="450.4" cy="154.6" r="3" fill="#8a5a5a"/><circle cx="456.8" cy="154.6" r="3" fill="#8a5a5a"/><circle cx="463.3" cy="154.6" r="3" fill="#8a5a5a"/><circle cx="469.8" cy="154.6" r="3" fill="#8a5a5a"/><circle cx="476.2" cy="154.6" r="3" fill="#8a5a5a"/><circle cx="482.7" cy="154.6" r="3" fill="#8a5a5a"/><circle cx="489.2" cy="154.6" r="3" fill="#8a5a5a"/><circle cx="495.7" cy="154.6" r="3" fill="#8a5a5a"/><circle cx="502.1" cy="154.6" r="3" fill="#8a5a5a"/><circle cx="508.6" cy="154.6" r="3" fill="#8a5a5a"/><circle cx="515.1" cy="154.6" r="3" fill="#8a5a5a"/><circle cx="521.6" cy="154.6" r="3" fill="#8a5a5a"/><circle cx="528.0" cy="154.6" r="3" fill="#8a5a5a"/><circle cx="534.5" cy="154.6" r="3" fill="#8a5a5a"/><circle cx="541.0" cy="154.6" r="3" fill="#8a5a5a"/><circle cx="547.5" cy="154.6" r="3" fill="#8a5a5a"/><circle cx="553.9" cy="154.6" r="3" fill="#8a5a5a"/><circle cx="560.4" cy="154.6" r="3" fill="#8a5a5a"/><circle cx="566.9" cy="154.6" r="3" fill="#8a5a5a"/><circle cx="573.4" cy="154.6" r="3" fill="#8a5a5a"/><circle cx="579.8" cy="166.8" r="3" fill="#8a5a5a"/><circle cx="586.3" cy="166.8" r="3" fill="#8a5a5a"/><circle cx="592.8" cy="169.5" r="3" fill="#8a5a5a"/><circle cx="599.3" cy="169.5" r="3" fill="#8a5a5a"/><circle cx="605.7" cy="169.8" r="3" fill="#8a5a5a"/><circle cx="612.2" cy="170.0" r="3" fill="#8a5a5a"/><circle cx="618.7" cy="170.0" r="3" fill="#8a5a5a"/><circle cx="625.2" cy="170.2" r="3" fill="#8a5a5a"/><circle cx="631.6" cy="172.0" r="3" fill="#8a5a5a"/><circle cx="638.1" cy="180.1" r="3" fill="#8a5a5a"/><circle cx="644.6" cy="181.4" r="3" fill="#8a5a5a"/><circle cx="651.1" cy="188.9" r="3" fill="#8a5a5a"/><circle cx="657.5" cy="190.3" r="3" fill="#8a5a5a"/><circle cx="664.0" cy="195.1" r="3" fill="#8a5a5a"/>
<polyline fill="none" stroke="#3fb950" stroke-width="2.5" stroke-linejoin="round" points="36.0,198.0 42.5,198.0 48.9,198.0 55.4,198.0 61.9,198.0 68.4,198.0 74.8,198.0 81.3,198.0 87.8,198.0 94.3,198.0 100.7,198.0 107.2,198.0 113.7,198.0 120.2,198.0 126.6,198.0 133.1,198.0 139.6,198.0 146.1,198.0 152.5,198.0 159.0,198.0 165.5,198.0 172.0,198.0 178.4,198.0 184.9,198.0 191.4,198.0 197.9,198.0 204.3,198.0 210.8,198.0 217.3,198.0 223.8,198.0 230.2,198.0 236.7,198.0 243.2,198.0 249.6,198.0 256.1,198.0 262.6,198.0 269.1,198.0 275.5,198.0 282.0,198.0 288.5,198.0 295.0,198.0 301.4,198.0 307.9,198.0 314.4,191.6 320.9,191.6 327.3,191.6 333.8,191.6 340.3,191.6 346.8,191.6 353.2,191.6 359.7,192.8 366.2,192.8 372.7,190.5 379.1,190.5 385.6,190.5 392.1,190.5 398.6,190.5 405.0,190.3 411.5,190.3 418.0,190.3 424.5,190.1 430.9,190.1 437.4,190.1 443.9,190.1 450.4,190.1 456.8,190.1 463.3,190.1 469.8,190.1 476.2,190.1 482.7,190.1 489.2,190.1 495.7,190.1 502.1,190.1 508.6,190.1 515.1,190.1 521.6,190.1 528.0,190.1 534.5,190.1 541.0,190.1 547.5,190.1 553.9,190.1 560.4,189.1 566.9,189.1 573.4,189.1 579.8,190.5 586.3,190.5 592.8,190.5 599.3,190.5 605.7,190.5 612.2,190.5 618.7,190.5 625.2,190.5 631.6,190.5 638.1,190.7 644.6,190.7 651.1,190.7 657.5,194.1 664.0,196.8"/><circle cx="36.0" cy="198.0" r="3" fill="#3fb950"/><circle cx="42.5" cy="198.0" r="3" fill="#3fb950"/><circle cx="48.9" cy="198.0" r="3" fill="#3fb950"/><circle cx="55.4" cy="198.0" r="3" fill="#3fb950"/><circle cx="61.9" cy="198.0" r="3" fill="#3fb950"/><circle cx="68.4" cy="198.0" r="3" fill="#3fb950"/><circle cx="74.8" cy="198.0" r="3" fill="#3fb950"/><circle cx="81.3" cy="198.0" r="3" fill="#3fb950"/><circle cx="87.8" cy="198.0" r="3" fill="#3fb950"/><circle cx="94.3" cy="198.0" r="3" fill="#3fb950"/><circle cx="100.7" cy="198.0" r="3" fill="#3fb950"/><circle cx="107.2" cy="198.0" r="3" fill="#3fb950"/><circle cx="113.7" cy="198.0" r="3" fill="#3fb950"/><circle cx="120.2" cy="198.0" r="3" fill="#3fb950"/><circle cx="126.6" cy="198.0" r="3" fill="#3fb950"/><circle cx="133.1" cy="198.0" r="3" fill="#3fb950"/><circle cx="139.6" cy="198.0" r="3" fill="#3fb950"/><circle cx="146.1" cy="198.0" r="3" fill="#3fb950"/><circle cx="152.5" cy="198.0" r="3" fill="#3fb950"/><circle cx="159.0" cy="198.0" r="3" fill="#3fb950"/><circle cx="165.5" cy="198.0" r="3" fill="#3fb950"/><circle cx="172.0" cy="198.0" r="3" fill="#3fb950"/><circle cx="178.4" cy="198.0" r="3" fill="#3fb950"/><circle cx="184.9" cy="198.0" r="3" fill="#3fb950"/><circle cx="191.4" cy="198.0" r="3" fill="#3fb950"/><circle cx="197.9" cy="198.0" r="3" fill="#3fb950"/><circle cx="204.3" cy="198.0" r="3" fill="#3fb950"/><circle cx="210.8" cy="198.0" r="3" fill="#3fb950"/><circle cx="217.3" cy="198.0" r="3" fill="#3fb950"/><circle cx="223.8" cy="198.0" r="3" fill="#3fb950"/><circle cx="230.2" cy="198.0" r="3" fill="#3fb950"/><circle cx="236.7" cy="198.0" r="3" fill="#3fb950"/><circle cx="243.2" cy="198.0" r="3" fill="#3fb950"/><circle cx="249.6" cy="198.0" r="3" fill="#3fb950"/><circle cx="256.1" cy="198.0" r="3" fill="#3fb950"/><circle cx="262.6" cy="198.0" r="3" fill="#3fb950"/><circle cx="269.1" cy="198.0" r="3" fill="#3fb950"/><circle cx="275.5" cy="198.0" r="3" fill="#3fb950"/><circle cx="282.0" cy="198.0" r="3" fill="#3fb950"/><circle cx="288.5" cy="198.0" r="3" fill="#3fb950"/><circle cx="295.0" cy="198.0" r="3" fill="#3fb950"/><circle cx="301.4" cy="198.0" r="3" fill="#3fb950"/><circle cx="307.9" cy="198.0" r="3" fill="#3fb950"/><circle cx="314.4" cy="191.6" r="3" fill="#3fb950"/><circle cx="320.9" cy="191.6" r="3" fill="#3fb950"/><circle cx="327.3" cy="191.6" r="3" fill="#3fb950"/><circle cx="333.8" cy="191.6" r="3" fill="#3fb950"/><circle cx="340.3" cy="191.6" r="3" fill="#3fb950"/><circle cx="346.8" cy="191.6" r="3" fill="#3fb950"/><circle cx="353.2" cy="191.6" r="3" fill="#3fb950"/><circle cx="359.7" cy="192.8" r="3" fill="#3fb950"/><circle cx="366.2" cy="192.8" r="3" fill="#3fb950"/><circle cx="372.7" cy="190.5" r="3" fill="#3fb950"/><circle cx="379.1" cy="190.5" r="3" fill="#3fb950"/><circle cx="385.6" cy="190.5" r="3" fill="#3fb950"/><circle cx="392.1" cy="190.5" r="3" fill="#3fb950"/><circle cx="398.6" cy="190.5" r="3" fill="#3fb950"/><circle cx="405.0" cy="190.3" r="3" fill="#3fb950"/><circle cx="411.5" cy="190.3" r="3" fill="#3fb950"/><circle cx="418.0" cy="190.3" r="3" fill="#3fb950"/><circle cx="424.5" cy="190.1" r="3" fill="#3fb950"/><circle cx="430.9" cy="190.1" r="3" fill="#3fb950"/><circle cx="437.4" cy="190.1" r="3" fill="#3fb950"/><circle cx="443.9" cy="190.1" r="3" fill="#3fb950"/><circle cx="450.4" cy="190.1" r="3" fill="#3fb950"/><circle cx="456.8" cy="190.1" r="3" fill="#3fb950"/><circle cx="463.3" cy="190.1" r="3" fill="#3fb950"/><circle cx="469.8" cy="190.1" r="3" fill="#3fb950"/><circle cx="476.2" cy="190.1" r="3" fill="#3fb950"/><circle cx="482.7" cy="190.1" r="3" fill="#3fb950"/><circle cx="489.2" cy="190.1" r="3" fill="#3fb950"/><circle cx="495.7" cy="190.1" r="3" fill="#3fb950"/><circle cx="502.1" cy="190.1" r="3" fill="#3fb950"/><circle cx="508.6" cy="190.1" r="3" fill="#3fb950"/><circle cx="515.1" cy="190.1" r="3" fill="#3fb950"/><circle cx="521.6" cy="190.1" r="3" fill="#3fb950"/><circle cx="528.0" cy="190.1" r="3" fill="#3fb950"/><circle cx="534.5" cy="190.1" r="3" fill="#3fb950"/><circle cx="541.0" cy="190.1" r="3" fill="#3fb950"/><circle cx="547.5" cy="190.1" r="3" fill="#3fb950"/><circle cx="553.9" cy="190.1" r="3" fill="#3fb950"/><circle cx="560.4" cy="189.1" r="3" fill="#3fb950"/><circle cx="566.9" cy="189.1" r="3" fill="#3fb950"/><circle cx="573.4" cy="189.1" r="3" fill="#3fb950"/><circle cx="579.8" cy="190.5" r="3" fill="#3fb950"/><circle cx="586.3" cy="190.5" r="3" fill="#3fb950"/><circle cx="592.8" cy="190.5" r="3" fill="#3fb950"/><circle cx="599.3" cy="190.5" r="3" fill="#3fb950"/><circle cx="605.7" cy="190.5" r="3" fill="#3fb950"/><circle cx="612.2" cy="190.5" r="3" fill="#3fb950"/><circle cx="618.7" cy="190.5" r="3" fill="#3fb950"/><circle cx="625.2" cy="190.5" r="3" fill="#3fb950"/><circle cx="631.6" cy="190.5" r="3" fill="#3fb950"/><circle cx="638.1" cy="190.7" r="3" fill="#3fb950"/><circle cx="644.6" cy="190.7" r="3" fill="#3fb950"/><circle cx="651.1" cy="190.7" r="3" fill="#3fb950"/><circle cx="657.5" cy="194.1" r="3" fill="#3fb950"/><circle cx="664.0" cy="196.8" r="3" fill="#3fb950"/>
<polyline fill="none" stroke="#4aa3ff" stroke-width="2.5" stroke-linejoin="round" points="36.0,143.0 42.5,143.0 48.9,143.0 55.4,143.0 61.9,143.0 68.4,143.0 74.8,143.0 81.3,143.0 87.8,143.0 94.3,143.0 100.7,143.0 107.2,143.0 113.7,143.0 120.2,143.0 126.6,143.0 133.1,134.7 139.6,130.7 146.1,127.8 152.5,127.8 159.0,119.1 165.5,119.1 172.0,119.1 178.4,112.2 184.9,112.2 191.4,112.2 197.9,109.1 204.3,108.7 210.8,108.7 217.3,108.3 223.8,108.3 230.2,107.7 236.7,106.4 243.2,105.0 249.6,104.5 256.1,104.5 262.6,104.5 269.1,104.5 275.5,104.5 282.0,104.5 288.5,104.5 295.0,104.5 301.4,104.5 307.9,104.5 314.4,111.0 320.9,111.0 327.3,111.0 333.8,111.0 340.3,111.0 346.8,108.5 353.2,102.9 359.7,80.4 366.2,80.4 372.7,82.7 379.1,82.7 385.6,82.7 392.1,82.7 398.6,82.7 405.0,82.9 411.5,82.9 418.0,82.9 424.5,83.1 430.9,83.1 437.4,83.1 443.9,83.1 450.4,83.1 456.8,83.1 463.3,83.1 469.8,83.1 476.2,83.1 482.7,83.1 489.2,83.1 495.7,83.1 502.1,83.1 508.6,83.1 515.1,83.1 521.6,83.1 528.0,83.1 534.5,83.1 541.0,83.1 547.5,83.1 553.9,83.1 560.4,84.2 566.9,84.2 573.4,84.2 579.8,70.5 586.3,70.5 592.8,67.8 599.3,67.8 605.7,67.6 612.2,67.4 618.7,67.4 625.2,67.2 631.6,65.3 638.1,57.0 644.6,55.7 651.1,48.3 657.5,43.5 664.0,36.0"/><circle cx="36.0" cy="143.0" r="3" fill="#4aa3ff"/><circle cx="42.5" cy="143.0" r="3" fill="#4aa3ff"/><circle cx="48.9" cy="143.0" r="3" fill="#4aa3ff"/><circle cx="55.4" cy="143.0" r="3" fill="#4aa3ff"/><circle cx="61.9" cy="143.0" r="3" fill="#4aa3ff"/><circle cx="68.4" cy="143.0" r="3" fill="#4aa3ff"/><circle cx="74.8" cy="143.0" r="3" fill="#4aa3ff"/><circle cx="81.3" cy="143.0" r="3" fill="#4aa3ff"/><circle cx="87.8" cy="143.0" r="3" fill="#4aa3ff"/><circle cx="94.3" cy="143.0" r="3" fill="#4aa3ff"/><circle cx="100.7" cy="143.0" r="3" fill="#4aa3ff"/><circle cx="107.2" cy="143.0" r="3" fill="#4aa3ff"/><circle cx="113.7" cy="143.0" r="3" fill="#4aa3ff"/><circle cx="120.2" cy="143.0" r="3" fill="#4aa3ff"/><circle cx="126.6" cy="143.0" r="3" fill="#4aa3ff"/><circle cx="133.1" cy="134.7" r="3" fill="#4aa3ff"/><circle cx="139.6" cy="130.7" r="3" fill="#4aa3ff"/><circle cx="146.1" cy="127.8" r="3" fill="#4aa3ff"/><circle cx="152.5" cy="127.8" r="3" fill="#4aa3ff"/><circle cx="159.0" cy="119.1" r="3" fill="#4aa3ff"/><circle cx="165.5" cy="119.1" r="3" fill="#4aa3ff"/><circle cx="172.0" cy="119.1" r="3" fill="#4aa3ff"/><circle cx="178.4" cy="112.2" r="3" fill="#4aa3ff"/><circle cx="184.9" cy="112.2" r="3" fill="#4aa3ff"/><circle cx="191.4" cy="112.2" r="3" fill="#4aa3ff"/><circle cx="197.9" cy="109.1" r="3" fill="#4aa3ff"/><circle cx="204.3" cy="108.7" r="3" fill="#4aa3ff"/><circle cx="210.8" cy="108.7" r="3" fill="#4aa3ff"/><circle cx="217.3" cy="108.3" r="3" fill="#4aa3ff"/><circle cx="223.8" cy="108.3" r="3" fill="#4aa3ff"/><circle cx="230.2" cy="107.7" r="3" fill="#4aa3ff"/><circle cx="236.7" cy="106.4" r="3" fill="#4aa3ff"/><circle cx="243.2" cy="105.0" r="3" fill="#4aa3ff"/><circle cx="249.6" cy="104.5" r="3" fill="#4aa3ff"/><circle cx="256.1" cy="104.5" r="3" fill="#4aa3ff"/><circle cx="262.6" cy="104.5" r="3" fill="#4aa3ff"/><circle cx="269.1" cy="104.5" r="3" fill="#4aa3ff"/><circle cx="275.5" cy="104.5" r="3" fill="#4aa3ff"/><circle cx="282.0" cy="104.5" r="3" fill="#4aa3ff"/><circle cx="288.5" cy="104.5" r="3" fill="#4aa3ff"/><circle cx="295.0" cy="104.5" r="3" fill="#4aa3ff"/><circle cx="301.4" cy="104.5" r="3" fill="#4aa3ff"/><circle cx="307.9" cy="104.5" r="3" fill="#4aa3ff"/><circle cx="314.4" cy="111.0" r="3" fill="#4aa3ff"/><circle cx="320.9" cy="111.0" r="3" fill="#4aa3ff"/><circle cx="327.3" cy="111.0" r="3" fill="#4aa3ff"/><circle cx="333.8" cy="111.0" r="3" fill="#4aa3ff"/><circle cx="340.3" cy="111.0" r="3" fill="#4aa3ff"/><circle cx="346.8" cy="108.5" r="3" fill="#4aa3ff"/><circle cx="353.2" cy="102.9" r="3" fill="#4aa3ff"/><circle cx="359.7" cy="80.4" r="3" fill="#4aa3ff"/><circle cx="366.2" cy="80.4" r="3" fill="#4aa3ff"/><circle cx="372.7" cy="82.7" r="3" fill="#4aa3ff"/><circle cx="379.1" cy="82.7" r="3" fill="#4aa3ff"/><circle cx="385.6" cy="82.7" r="3" fill="#4aa3ff"/><circle cx="392.1" cy="82.7" r="3" fill="#4aa3ff"/><circle cx="398.6" cy="82.7" r="3" fill="#4aa3ff"/><circle cx="405.0" cy="82.9" r="3" fill="#4aa3ff"/><circle cx="411.5" cy="82.9" r="3" fill="#4aa3ff"/><circle cx="418.0" cy="82.9" r="3" fill="#4aa3ff"/><circle cx="424.5" cy="83.1" r="3" fill="#4aa3ff"/><circle cx="430.9" cy="83.1" r="3" fill="#4aa3ff"/><circle cx="437.4" cy="83.1" r="3" fill="#4aa3ff"/><circle cx="443.9" cy="83.1" r="3" fill="#4aa3ff"/><circle cx="450.4" cy="83.1" r="3" fill="#4aa3ff"/><circle cx="456.8" cy="83.1" r="3" fill="#4aa3ff"/><circle cx="463.3" cy="83.1" r="3" fill="#4aa3ff"/><circle cx="469.8" cy="83.1" r="3" fill="#4aa3ff"/><circle cx="476.2" cy="83.1" r="3" fill="#4aa3ff"/><circle cx="482.7" cy="83.1" r="3" fill="#4aa3ff"/><circle cx="489.2" cy="83.1" r="3" fill="#4aa3ff"/><circle cx="495.7" cy="83.1" r="3" fill="#4aa3ff"/><circle cx="502.1" cy="83.1" r="3" fill="#4aa3ff"/><circle cx="508.6" cy="83.1" r="3" fill="#4aa3ff"/><circle cx="515.1" cy="83.1" r="3" fill="#4aa3ff"/><circle cx="521.6" cy="83.1" r="3" fill="#4aa3ff"/><circle cx="528.0" cy="83.1" r="3" fill="#4aa3ff"/><circle cx="534.5" cy="83.1" r="3" fill="#4aa3ff"/><circle cx="541.0" cy="83.1" r="3" fill="#4aa3ff"/><circle cx="547.5" cy="83.1" r="3" fill="#4aa3ff"/><circle cx="553.9" cy="83.1" r="3" fill="#4aa3ff"/><circle cx="560.4" cy="84.2" r="3" fill="#4aa3ff"/><circle cx="566.9" cy="84.2" r="3" fill="#4aa3ff"/><circle cx="573.4" cy="84.2" r="3" fill="#4aa3ff"/><circle cx="579.8" cy="70.5" r="3" fill="#4aa3ff"/><circle cx="586.3" cy="70.5" r="3" fill="#4aa3ff"/><circle cx="592.8" cy="67.8" r="3" fill="#4aa3ff"/><circle cx="599.3" cy="67.8" r="3" fill="#4aa3ff"/><circle cx="605.7" cy="67.6" r="3" fill="#4aa3ff"/><circle cx="612.2" cy="67.4" r="3" fill="#4aa3ff"/><circle cx="618.7" cy="67.4" r="3" fill="#4aa3ff"/><circle cx="625.2" cy="67.2" r="3" fill="#4aa3ff"/><circle cx="631.6" cy="65.3" r="3" fill="#4aa3ff"/><circle cx="638.1" cy="57.0" r="3" fill="#4aa3ff"/><circle cx="644.6" cy="55.7" r="3" fill="#4aa3ff"/><circle cx="651.1" cy="48.3" r="3" fill="#4aa3ff"/><circle cx="657.5" cy="43.5" r="3" fill="#4aa3ff"/><circle cx="664.0" cy="36.0" r="3" fill="#4aa3ff"/>
<text x="36" y="225" fill="#6b7280" font-size="11">2026-06-26</text>
<text x="664" y="225" fill="#6b7280" font-size="11" text-anchor="end">2026-07-07</text>
<text x="36" y="212" font-family="system-ui,sans-serif" font-size="11">
<tspan fill="#4aa3ff">&#9679; open FPs</tspan>  <tspan fill="#3fb950">&#9679; closed (Anthropic acting)</tspan>  <tspan fill="#8a5a5a">&#9679; harness withdrawn</tspan></text>
<text x="664" y="22" text-anchor="end" font-family="system-ui,sans-serif" font-size="12">
<tspan fill="#4aa3ff">open 780</tspan>  <tspan fill="#3fb950">closed 6</tspan>  <tspan fill="#8a5a5a">harness 14</tspan></text>
</svg>