<svg xmlns="http://www.w3.org/2000/svg" width="700" height="234" viewBox="0 0 700 234" role="img">
<rect width="700" height="234" rx="12" fill="#16181d"/>
<text x="36" y="22" fill="#e8eaed" font-family="system-ui,sans-serif" font-size="14" font-weight="700">Is Anthropic acting? cyber/aup false positives over time</text>
<line x1="36" y1="198.0" x2="664" y2="198.0" stroke="#2a2e37" stroke-width="1"/><text x="30" y="202.0" fill="#6b7280" font-size="11" text-anchor="end">0</text><line x1="36" y1="117.0" x2="664" y2="117.0" stroke="#2a2e37" stroke-width="1"/><text x="30" y="121.0" fill="#6b7280" font-size="11" text-anchor="end">400</text><line x1="36" y1="36.0" x2="664" y2="36.0" stroke="#2a2e37" stroke-width="1"/><text x="30" y="40.0" fill="#6b7280" font-size="11" text-anchor="end">800</text>

<polyline fill="none" stroke="#8a5a5a" stroke-width="2.5" stroke-linejoin="round" points="36.0,145.1 39.9,145.1 43.8,145.1 47.6,145.1 51.5,145.1 55.4,145.1 59.3,145.1 63.1,145.1 67.0,145.1 70.9,145.1 74.8,145.1 78.6,145.1 82.5,145.1 86.4,145.1 90.3,145.1 94.1,145.1 98.0,145.1 101.9,145.1 105.8,145.1 109.7,145.1 113.5,145.1 117.4,145.1 121.3,145.1 125.2,145.1 129.0,145.1 132.9,145.1 136.8,145.1 140.7,145.1 144.5,145.1 148.4,145.1 152.3,145.1 156.2,145.1 160.0,145.1 163.9,145.1 167.8,145.1 171.7,145.1 175.6,145.1 179.4,145.1 183.3,145.1 187.2,145.1 191.1,145.1 194.9,145.1 198.8,145.1 202.7,145.1 206.6,145.1 210.4,145.1 214.3,145.1 218.2,145.1 222.1,145.1 226.0,145.1 229.8,155.7 233.7,155.7 237.6,155.7 241.5,155.7 245.3,155.7 249.2,155.7 253.1,155.7 257.0,155.7 260.8,155.7 264.7,155.7 268.6,155.7 272.5,155.7 276.3,155.7 280.2,155.7 284.1,155.7 288.0,155.7 291.9,155.7 295.7,155.7 299.6,155.7 303.5,155.7 307.4,155.7 311.2,155.7 315.1,155.7 319.0,155.7 322.9,155.7 326.7,155.7 330.6,155.7 334.5,155.7 338.4,155.7 342.2,155.7 346.1,155.7 350.0,155.7 353.9,155.7 357.8,155.7 361.6,167.6 365.5,167.6 369.4,170.3 373.3,170.3 377.1,170.5 381.0,170.7 384.9,170.7 388.8,170.9 392.6,172.7 396.5,180.6 400.4,181.8 404.3,189.1 408.1,190.5 412.0,195.2 415.9,198.0 419.8,198.0 423.7,198.0 427.5,198.0 431.4,198.0 435.3,198.0 439.2,198.0 443.0,198.0 446.9,198.0 450.8,198.0 454.7,198.0 458.5,198.0 462.4,198.0 466.3,198.0 470.2,198.0 474.0,198.0 477.9,198.0 481.8,198.0 485.7,198.0 489.6,198.0 493.4,198.0 497.3,198.0 501.2,198.0 505.1,198.0 508.9,198.0 512.8,198.0 516.7,198.0 520.6,198.0 524.4,198.0 528.3,198.0 532.2,198.0 536.1,198.0 540.0,198.0 543.8,198.0 547.7,198.0 551.6,198.0 555.5,198.0 559.3,198.0 563.2,198.0 567.1,198.0 571.0,198.0 574.8,198.0 578.7,198.0 582.6,198.0 586.5,198.0 590.3,198.0 594.2,198.0 598.1,198.0 602.0,198.0 605.9,198.0 609.7,198.0 613.6,198.0 617.5,198.0 621.4,198.0 625.2,198.0 629.1,198.0 633.0,198.0 636.9,198.0 640.7,198.0 644.6,198.0 648.5,198.0 652.4,198.0 656.2,198.0 660.1,198.0 664.0,198.0"/><circle cx="36.0" cy="145.1" r="3" fill="#8a5a5a"/><circle cx="39.9" cy="145.1" r="3" fill="#8a5a5a"/><circle cx="43.8" cy="145.1" r="3" fill="#8a5a5a"/><circle cx="47.6" cy="145.1" r="3" fill="#8a5a5a"/><circle cx="51.5" cy="145.1" r="3" fill="#8a5a5a"/><circle cx="55.4" cy="145.1" r="3" fill="#8a5a5a"/><circle cx="59.3" cy="145.1" r="3" fill="#8a5a5a"/><circle cx="63.1" cy="145.1" r="3" fill="#8a5a5a"/><circle cx="67.0" cy="145.1" r="3" fill="#8a5a5a"/><circle cx="70.9" cy="145.1" r="3" fill="#8a5a5a"/><circle cx="74.8" cy="145.1" r="3" fill="#8a5a5a"/><circle cx="78.6" cy="145.1" r="3" fill="#8a5a5a"/><circle cx="82.5" cy="145.1" r="3" fill="#8a5a5a"/><circle cx="86.4" cy="145.1" r="3" fill="#8a5a5a"/><circle cx="90.3" cy="145.1" r="3" fill="#8a5a5a"/><circle cx="94.1" cy="145.1" r="3" fill="#8a5a5a"/><circle cx="98.0" cy="145.1" r="3" fill="#8a5a5a"/><circle cx="101.9" cy="145.1" r="3" fill="#8a5a5a"/><circle cx="105.8" cy="145.1" r="3" fill="#8a5a5a"/><circle cx="109.7" cy="145.1" r="3" fill="#8a5a5a"/><circle cx="113.5" cy="145.1" r="3" fill="#8a5a5a"/><circle cx="117.4" cy="145.1" r="3" fill="#8a5a5a"/><circle cx="121.3" cy="145.1" r="3" fill="#8a5a5a"/><circle cx="125.2" cy="145.1" r="3" fill="#8a5a5a"/><circle cx="129.0" cy="145.1" r="3" fill="#8a5a5a"/><circle cx="132.9" cy="145.1" r="3" fill="#8a5a5a"/><circle cx="136.8" cy="145.1" r="3" fill="#8a5a5a"/><circle cx="140.7" cy="145.1" r="3" fill="#8a5a5a"/><circle cx="144.5" cy="145.1" r="3" fill="#8a5a5a"/><circle cx="148.4" cy="145.1" r="3" fill="#8a5a5a"/><circle cx="152.3" cy="145.1" r="3" fill="#8a5a5a"/><circle cx="156.2" cy="145.1" r="3" fill="#8a5a5a"/><circle cx="160.0" cy="145.1" r="3" fill="#8a5a5a"/><circle cx="163.9" cy="145.1" r="3" fill="#8a5a5a"/><circle cx="167.8" cy="145.1" r="3" fill="#8a5a5a"/><circle cx="171.7" cy="145.1" r="3" fill="#8a5a5a"/><circle cx="175.6" cy="145.1" r="3" fill="#8a5a5a"/><circle cx="179.4" cy="145.1" r="3" fill="#8a5a5a"/><circle cx="183.3" cy="145.1" r="3" fill="#8a5a5a"/><circle cx="187.2" cy="145.1" r="3" fill="#8a5a5a"/><circle cx="191.1" cy="145.1" r="3" fill="#8a5a5a"/><circle cx="194.9" cy="145.1" r="3" fill="#8a5a5a"/><circle cx="198.8" cy="145.1" r="3" fill="#8a5a5a"/><circle cx="202.7" cy="145.1" r="3" fill="#8a5a5a"/><circle cx="206.6" cy="145.1" r="3" fill="#8a5a5a"/><circle cx="210.4" cy="145.1" r="3" fill="#8a5a5a"/><circle cx="214.3" cy="145.1" r="3" fill="#8a5a5a"/><circle cx="218.2" cy="145.1" r="3" fill="#8a5a5a"/><circle cx="222.1" cy="145.1" r="3" fill="#8a5a5a"/><circle cx="226.0" cy="145.1" r="3" fill="#8a5a5a"/><circle cx="229.8" cy="155.7" r="3" fill="#8a5a5a"/><circle cx="233.7" cy="155.7" r="3" fill="#8a5a5a"/><circle cx="237.6" cy="155.7" r="3" fill="#8a5a5a"/><circle cx="241.5" cy="155.7" r="3" fill="#8a5a5a"/><circle cx="245.3" cy="155.7" r="3" fill="#8a5a5a"/><circle cx="249.2" cy="155.7" r="3" fill="#8a5a5a"/><circle cx="253.1" cy="155.7" r="3" fill="#8a5a5a"/><circle cx="257.0" cy="155.7" r="3" fill="#8a5a5a"/><circle cx="260.8" cy="155.7" r="3" fill="#8a5a5a"/><circle cx="264.7" cy="155.7" r="3" fill="#8a5a5a"/><circle cx="268.6" cy="155.7" r="3" fill="#8a5a5a"/><circle cx="272.5" cy="155.7" r="3" fill="#8a5a5a"/><circle cx="276.3" cy="155.7" r="3" fill="#8a5a5a"/><circle cx="280.2" cy="155.7" r="3" fill="#8a5a5a"/><circle cx="284.1" cy="155.7" r="3" fill="#8a5a5a"/><circle cx="288.0" cy="155.7" r="3" fill="#8a5a5a"/><circle cx="291.9" cy="155.7" r="3" fill="#8a5a5a"/><circle cx="295.7" cy="155.7" r="3" fill="#8a5a5a"/><circle cx="299.6" cy="155.7" r="3" fill="#8a5a5a"/><circle cx="303.5" cy="155.7" r="3" fill="#8a5a5a"/><circle cx="307.4" cy="155.7" r="3" fill="#8a5a5a"/><circle cx="311.2" cy="155.7" r="3" fill="#8a5a5a"/><circle cx="315.1" cy="155.7" r="3" fill="#8a5a5a"/><circle cx="319.0" cy="155.7" r="3" fill="#8a5a5a"/><circle cx="322.9" cy="155.7" r="3" fill="#8a5a5a"/><circle cx="326.7" cy="155.7" r="3" fill="#8a5a5a"/><circle cx="330.6" cy="155.7" r="3" fill="#8a5a5a"/><circle cx="334.5" cy="155.7" r="3" fill="#8a5a5a"/><circle cx="338.4" cy="155.7" r="3" fill="#8a5a5a"/><circle cx="342.2" cy="155.7" r="3" fill="#8a5a5a"/><circle cx="346.1" cy="155.7" r="3" fill="#8a5a5a"/><circle cx="350.0" cy="155.7" r="3" fill="#8a5a5a"/><circle cx="353.9" cy="155.7" r="3" fill="#8a5a5a"/><circle cx="357.8" cy="155.7" r="3" fill="#8a5a5a"/><circle cx="361.6" cy="167.6" r="3" fill="#8a5a5a"/><circle cx="365.5" cy="167.6" r="3" fill="#8a5a5a"/><circle cx="369.4" cy="170.3" r="3" fill="#8a5a5a"/><circle cx="373.3" cy="170.3" r="3" fill="#8a5a5a"/><circle cx="377.1" cy="170.5" r="3" fill="#8a5a5a"/><circle cx="381.0" cy="170.7" r="3" fill="#8a5a5a"/><circle cx="384.9" cy="170.7" r="3" fill="#8a5a5a"/><circle cx="388.8" cy="170.9" r="3" fill="#8a5a5a"/><circle cx="392.6" cy="172.7" r="3" fill="#8a5a5a"/><circle cx="396.5" cy="180.6" r="3" fill="#8a5a5a"/><circle cx="400.4" cy="181.8" r="3" fill="#8a5a5a"/><circle cx="404.3" cy="189.1" r="3" fill="#8a5a5a"/><circle cx="408.1" cy="190.5" r="3" fill="#8a5a5a"/><circle cx="412.0" cy="195.2" r="3" fill="#8a5a5a"/><circle cx="415.9" cy="198.0" r="3" fill="#8a5a5a"/><circle cx="419.8" cy="198.0" r="3" fill="#8a5a5a"/><circle cx="423.7" cy="198.0" r="3" fill="#8a5a5a"/><circle cx="427.5" cy="198.0" r="3" fill="#8a5a5a"/><circle cx="431.4" cy="198.0" r="3" fill="#8a5a5a"/><circle cx="435.3" cy="198.0" r="3" fill="#8a5a5a"/><circle cx="439.2" cy="198.0" r="3" fill="#8a5a5a"/><circle cx="443.0" cy="198.0" r="3" fill="#8a5a5a"/><circle cx="446.9" cy="198.0" r="3" fill="#8a5a5a"/><circle cx="450.8" cy="198.0" r="3" fill="#8a5a5a"/><circle cx="454.7" cy="198.0" r="3" fill="#8a5a5a"/><circle cx="458.5" cy="198.0" r="3" fill="#8a5a5a"/><circle cx="462.4" cy="198.0" r="3" fill="#8a5a5a"/><circle cx="466.3" cy="198.0" r="3" fill="#8a5a5a"/><circle cx="470.2" cy="198.0" r="3" fill="#8a5a5a"/><circle cx="474.0" cy="198.0" r="3" fill="#8a5a5a"/><circle cx="477.9" cy="198.0" r="3" fill="#8a5a5a"/><circle cx="481.8" cy="198.0" r="3" fill="#8a5a5a"/><circle cx="485.7" cy="198.0" r="3" fill="#8a5a5a"/><circle cx="489.6" cy="198.0" r="3" fill="#8a5a5a"/><circle cx="493.4" cy="198.0" r="3" fill="#8a5a5a"/><circle cx="497.3" cy="198.0" r="3" fill="#8a5a5a"/><circle cx="501.2" cy="198.0" r="3" fill="#8a5a5a"/><circle cx="505.1" cy="198.0" r="3" fill="#8a5a5a"/><circle cx="508.9" cy="198.0" r="3" fill="#8a5a5a"/><circle cx="512.8" cy="198.0" r="3" fill="#8a5a5a"/><circle cx="516.7" cy="198.0" r="3" fill="#8a5a5a"/><circle cx="520.6" cy="198.0" r="3" fill="#8a5a5a"/><circle cx="524.4" cy="198.0" r="3" fill="#8a5a5a"/><circle cx="528.3" cy="198.0" r="3" fill="#8a5a5a"/><circle cx="532.2" cy="198.0" r="3" fill="#8a5a5a"/><circle cx="536.1" cy="198.0" r="3" fill="#8a5a5a"/><circle cx="540.0" cy="198.0" r="3" fill="#8a5a5a"/><circle cx="543.8" cy="198.0" r="3" fill="#8a5a5a"/><circle cx="547.7" cy="198.0" r="3" fill="#8a5a5a"/><circle cx="551.6" cy="198.0" r="3" fill="#8a5a5a"/><circle cx="555.5" cy="198.0" r="3" fill="#8a5a5a"/><circle cx="559.3" cy="198.0" r="3" fill="#8a5a5a"/><circle cx="563.2" cy="198.0" r="3" fill="#8a5a5a"/><circle cx="567.1" cy="198.0" r="3" fill="#8a5a5a"/><circle cx="571.0" cy="198.0" r="3" fill="#8a5a5a"/><circle cx="574.8" cy="198.0" r="3" fill="#8a5a5a"/><circle cx="578.7" cy="198.0" r="3" fill="#8a5a5a"/><circle cx="582.6" cy="198.0" r="3" fill="#8a5a5a"/><circle cx="586.5" cy="198.0" r="3" fill="#8a5a5a"/><circle cx="590.3" cy="198.0" r="3" fill="#8a5a5a"/><circle cx="594.2" cy="198.0" r="3" fill="#8a5a5a"/><circle cx="598.1" cy="198.0" r="3" fill="#8a5a5a"/><circle cx="602.0" cy="198.0" r="3" fill="#8a5a5a"/><circle cx="605.9" cy="198.0" r="3" fill="#8a5a5a"/><circle cx="609.7" cy="198.0" r="3" fill="#8a5a5a"/><circle cx="613.6" cy="198.0" r="3" fill="#8a5a5a"/><circle cx="617.5" cy="198.0" r="3" fill="#8a5a5a"/><circle cx="621.4" cy="198.0" r="3" fill="#8a5a5a"/><circle cx="625.2" cy="198.0" r="3" fill="#8a5a5a"/><circle cx="629.1" cy="198.0" r="3" fill="#8a5a5a"/><circle cx="633.0" cy="198.0" r="3" fill="#8a5a5a"/><circle cx="636.9" cy="198.0" r="3" fill="#8a5a5a"/><circle cx="640.7" cy="198.0" r="3" fill="#8a5a5a"/><circle cx="644.6" cy="198.0" r="3" fill="#8a5a5a"/><circle cx="648.5" cy="198.0" r="3" fill="#8a5a5a"/><circle cx="652.4" cy="198.0" r="3" fill="#8a5a5a"/><circle cx="656.2" cy="198.0" r="3" fill="#8a5a5a"/><circle cx="660.1" cy="198.0" r="3" fill="#8a5a5a"/><circle cx="664.0" cy="198.0" r="3" fill="#8a5a5a"/>
<polyline fill="none" stroke="#3fb950" stroke-width="2.5" stroke-linejoin="round" points="36.0,198.0 39.9,198.0 43.8,198.0 47.6,198.0 51.5,198.0 55.4,198.0 59.3,198.0 63.1,198.0 67.0,198.0 70.9,198.0 74.8,198.0 78.6,198.0 82.5,198.0 86.4,198.0 90.3,198.0 94.1,198.0 98.0,198.0 101.9,198.0 105.8,198.0 109.7,198.0 113.5,198.0 117.4,198.0 121.3,198.0 125.2,198.0 129.0,198.0 132.9,198.0 136.8,198.0 140.7,198.0 144.5,198.0 148.4,198.0 152.3,198.0 156.2,198.0 160.0,198.0 163.9,198.0 167.8,198.0 171.7,198.0 175.6,198.0 179.4,198.0 183.3,198.0 187.2,198.0 191.1,198.0 194.9,198.0 198.8,198.0 202.7,191.7 206.6,191.7 210.4,191.7 214.3,191.7 218.2,191.7 222.1,191.7 226.0,191.7 229.8,192.9 233.7,192.9 237.6,190.7 241.5,190.7 245.3,190.7 249.2,190.7 253.1,190.7 257.0,190.5 260.8,190.5 264.7,190.5 268.6,190.3 272.5,190.3 276.3,190.3 280.2,190.3 284.1,190.3 288.0,190.3 291.9,190.3 295.7,190.3 299.6,190.3 303.5,190.3 307.4,190.3 311.2,190.3 315.1,190.3 319.0,190.3 322.9,190.3 326.7,190.3 330.6,190.3 334.5,190.3 338.4,190.3 342.2,190.3 346.1,190.3 350.0,189.3 353.9,189.3 357.8,189.3 361.6,190.7 365.5,190.7 369.4,190.7 373.3,190.7 377.1,190.7 381.0,190.7 384.9,190.7 388.8,190.7 392.6,190.7 396.5,190.9 400.4,190.9 404.3,190.9 408.1,194.2 412.0,196.8 415.9,198.0 419.8,198.0 423.7,198.0 427.5,198.0 431.4,198.0 435.3,198.0 439.2,198.0 443.0,198.0 446.9,198.0 450.8,198.0 454.7,198.0 458.5,198.0 462.4,198.0 466.3,198.0 470.2,198.0 474.0,198.0 477.9,198.0 481.8,198.0 485.7,198.0 489.6,198.0 493.4,198.0 497.3,198.0 501.2,198.0 505.1,198.0 508.9,198.0 512.8,198.0 516.7,198.0 520.6,198.0 524.4,198.0 528.3,198.0 532.2,198.0 536.1,198.0 540.0,198.0 543.8,198.0 547.7,198.0 551.6,198.0 555.5,198.0 559.3,198.0 563.2,198.0 567.1,198.0 571.0,198.0 574.8,198.0 578.7,198.0 582.6,198.0 586.5,198.0 590.3,198.0 594.2,198.0 598.1,198.0 602.0,198.0 605.9,198.0 609.7,198.0 613.6,198.0 617.5,198.0 621.4,198.0 625.2,198.0 629.1,198.0 633.0,198.0 636.9,198.0 640.7,198.0 644.6,198.0 648.5,198.0 652.4,198.0 656.2,198.0 660.1,198.0 664.0,198.0"/><circle cx="36.0" cy="198.0" r="3" fill="#3fb950"/><circle cx="39.9" cy="198.0" r="3" fill="#3fb950"/><circle cx="43.8" cy="198.0" r="3" fill="#3fb950"/><circle cx="47.6" cy="198.0" r="3" fill="#3fb950"/><circle cx="51.5" cy="198.0" r="3" fill="#3fb950"/><circle cx="55.4" cy="198.0" r="3" fill="#3fb950"/><circle cx="59.3" cy="198.0" r="3" fill="#3fb950"/><circle cx="63.1" cy="198.0" r="3" fill="#3fb950"/><circle cx="67.0" cy="198.0" r="3" fill="#3fb950"/><circle cx="70.9" cy="198.0" r="3" fill="#3fb950"/><circle cx="74.8" cy="198.0" r="3" fill="#3fb950"/><circle cx="78.6" cy="198.0" r="3" fill="#3fb950"/><circle cx="82.5" cy="198.0" r="3" fill="#3fb950"/><circle cx="86.4" cy="198.0" r="3" fill="#3fb950"/><circle cx="90.3" cy="198.0" r="3" fill="#3fb950"/><circle cx="94.1" cy="198.0" r="3" fill="#3fb950"/><circle cx="98.0" cy="198.0" r="3" fill="#3fb950"/><circle cx="101.9" cy="198.0" r="3" fill="#3fb950"/><circle cx="105.8" cy="198.0" r="3" fill="#3fb950"/><circle cx="109.7" cy="198.0" r="3" fill="#3fb950"/><circle cx="113.5" cy="198.0" r="3" fill="#3fb950"/><circle cx="117.4" cy="198.0" r="3" fill="#3fb950"/><circle cx="121.3" cy="198.0" r="3" fill="#3fb950"/><circle cx="125.2" cy="198.0" r="3" fill="#3fb950"/><circle cx="129.0" cy="198.0" r="3" fill="#3fb950"/><circle cx="132.9" cy="198.0" r="3" fill="#3fb950"/><circle cx="136.8" cy="198.0" r="3" fill="#3fb950"/><circle cx="140.7" cy="198.0" r="3" fill="#3fb950"/><circle cx="144.5" cy="198.0" r="3" fill="#3fb950"/><circle cx="148.4" cy="198.0" r="3" fill="#3fb950"/><circle cx="152.3" cy="198.0" r="3" fill="#3fb950"/><circle cx="156.2" cy="198.0" r="3" fill="#3fb950"/><circle cx="160.0" cy="198.0" r="3" fill="#3fb950"/><circle cx="163.9" cy="198.0" r="3" fill="#3fb950"/><circle cx="167.8" cy="198.0" r="3" fill="#3fb950"/><circle cx="171.7" cy="198.0" r="3" fill="#3fb950"/><circle cx="175.6" cy="198.0" r="3" fill="#3fb950"/><circle cx="179.4" cy="198.0" r="3" fill="#3fb950"/><circle cx="183.3" cy="198.0" r="3" fill="#3fb950"/><circle cx="187.2" cy="198.0" r="3" fill="#3fb950"/><circle cx="191.1" cy="198.0" r="3" fill="#3fb950"/><circle cx="194.9" cy="198.0" r="3" fill="#3fb950"/><circle cx="198.8" cy="198.0" r="3" fill="#3fb950"/><circle cx="202.7" cy="191.7" r="3" fill="#3fb950"/><circle cx="206.6" cy="191.7" r="3" fill="#3fb950"/><circle cx="210.4" cy="191.7" r="3" fill="#3fb950"/><circle cx="214.3" cy="191.7" r="3" fill="#3fb950"/><circle cx="218.2" cy="191.7" r="3" fill="#3fb950"/><circle cx="222.1" cy="191.7" r="3" fill="#3fb950"/><circle cx="226.0" cy="191.7" r="3" fill="#3fb950"/><circle cx="229.8" cy="192.9" r="3" fill="#3fb950"/><circle cx="233.7" cy="192.9" r="3" fill="#3fb950"/><circle cx="237.6" cy="190.7" r="3" fill="#3fb950"/><circle cx="241.5" cy="190.7" r="3" fill="#3fb950"/><circle cx="245.3" cy="190.7" r="3" fill="#3fb950"/><circle cx="249.2" cy="190.7" r="3" fill="#3fb950"/><circle cx="253.1" cy="190.7" r="3" fill="#3fb950"/><circle cx="257.0" cy="190.5" r="3" fill="#3fb950"/><circle cx="260.8" cy="190.5" r="3" fill="#3fb950"/><circle cx="264.7" cy="190.5" r="3" fill="#3fb950"/><circle cx="268.6" cy="190.3" r="3" fill="#3fb950"/><circle cx="272.5" cy="190.3" r="3" fill="#3fb950"/><circle cx="276.3" cy="190.3" r="3" fill="#3fb950"/><circle cx="280.2" cy="190.3" r="3" fill="#3fb950"/><circle cx="284.1" cy="190.3" r="3" fill="#3fb950"/><circle cx="288.0" cy="190.3" r="3" fill="#3fb950"/><circle cx="291.9" cy="190.3" r="3" fill="#3fb950"/><circle cx="295.7" cy="190.3" r="3" fill="#3fb950"/><circle cx="299.6" cy="190.3" r="3" fill="#3fb950"/><circle cx="303.5" cy="190.3" r="3" fill="#3fb950"/><circle cx="307.4" cy="190.3" r="3" fill="#3fb950"/><circle cx="311.2" cy="190.3" r="3" fill="#3fb950"/><circle cx="315.1" cy="190.3" r="3" fill="#3fb950"/><circle cx="319.0" cy="190.3" r="3" fill="#3fb950"/><circle cx="322.9" cy="190.3" r="3" fill="#3fb950"/><circle cx="326.7" cy="190.3" r="3" fill="#3fb950"/><circle cx="330.6" cy="190.3" r="3" fill="#3fb950"/><circle cx="334.5" cy="190.3" r="3" fill="#3fb950"/><circle cx="338.4" cy="190.3" r="3" fill="#3fb950"/><circle cx="342.2" cy="190.3" r="3" fill="#3fb950"/><circle cx="346.1" cy="190.3" r="3" fill="#3fb950"/><circle cx="350.0" cy="189.3" r="3" fill="#3fb950"/><circle cx="353.9" cy="189.3" r="3" fill="#3fb950"/><circle cx="357.8" cy="189.3" r="3" fill="#3fb950"/><circle cx="361.6" cy="190.7" r="3" fill="#3fb950"/><circle cx="365.5" cy="190.7" r="3" fill="#3fb950"/><circle cx="369.4" cy="190.7" r="3" fill="#3fb950"/><circle cx="373.3" cy="190.7" r="3" fill="#3fb950"/><circle cx="377.1" cy="190.7" r="3" fill="#3fb950"/><circle cx="381.0" cy="190.7" r="3" fill="#3fb950"/><circle cx="384.9" cy="190.7" r="3" fill="#3fb950"/><circle cx="388.8" cy="190.7" r="3" fill="#3fb950"/><circle cx="392.6" cy="190.7" r="3" fill="#3fb950"/><circle cx="396.5" cy="190.9" r="3" fill="#3fb950"/><circle cx="400.4" cy="190.9" r="3" fill="#3fb950"/><circle cx="404.3" cy="190.9" r="3" fill="#3fb950"/><circle cx="408.1" cy="194.2" r="3" fill="#3fb950"/><circle cx="412.0" cy="196.8" r="3" fill="#3fb950"/><circle cx="415.9" cy="198.0" r="3" fill="#3fb950"/><circle cx="419.8" cy="198.0" r="3" fill="#3fb950"/><circle cx="423.7" cy="198.0" r="3" fill="#3fb950"/><circle cx="427.5" cy="198.0" r="3" fill="#3fb950"/><circle cx="431.4" cy="198.0" r="3" fill="#3fb950"/><circle cx="435.3" cy="198.0" r="3" fill="#3fb950"/><circle cx="439.2" cy="198.0" r="3" fill="#3fb950"/><circle cx="443.0" cy="198.0" r="3" fill="#3fb950"/><circle cx="446.9" cy="198.0" r="3" fill="#3fb950"/><circle cx="450.8" cy="198.0" r="3" fill="#3fb950"/><circle cx="454.7" cy="198.0" r="3" fill="#3fb950"/><circle cx="458.5" cy="198.0" r="3" fill="#3fb950"/><circle cx="462.4" cy="198.0" r="3" fill="#3fb950"/><circle cx="466.3" cy="198.0" r="3" fill="#3fb950"/><circle cx="470.2" cy="198.0" r="3" fill="#3fb950"/><circle cx="474.0" cy="198.0" r="3" fill="#3fb950"/><circle cx="477.9" cy="198.0" r="3" fill="#3fb950"/><circle cx="481.8" cy="198.0" r="3" fill="#3fb950"/><circle cx="485.7" cy="198.0" r="3" fill="#3fb950"/><circle cx="489.6" cy="198.0" r="3" fill="#3fb950"/><circle cx="493.4" cy="198.0" r="3" fill="#3fb950"/><circle cx="497.3" cy="198.0" r="3" fill="#3fb950"/><circle cx="501.2" cy="198.0" r="3" fill="#3fb950"/><circle cx="505.1" cy="198.0" r="3" fill="#3fb950"/><circle cx="508.9" cy="198.0" r="3" fill="#3fb950"/><circle cx="512.8" cy="198.0" r="3" fill="#3fb950"/><circle cx="516.7" cy="198.0" r="3" fill="#3fb950"/><circle cx="520.6" cy="198.0" r="3" fill="#3fb950"/><circle cx="524.4" cy="198.0" r="3" fill="#3fb950"/><circle cx="528.3" cy="198.0" r="3" fill="#3fb950"/><circle cx="532.2" cy="198.0" r="3" fill="#3fb950"/><circle cx="536.1" cy="198.0" r="3" fill="#3fb950"/><circle cx="540.0" cy="198.0" r="3" fill="#3fb950"/><circle cx="543.8" cy="198.0" r="3" fill="#3fb950"/><circle cx="547.7" cy="198.0" r="3" fill="#3fb950"/><circle cx="551.6" cy="198.0" r="3" fill="#3fb950"/><circle cx="555.5" cy="198.0" r="3" fill="#3fb950"/><circle cx="559.3" cy="198.0" r="3" fill="#3fb950"/><circle cx="563.2" cy="198.0" r="3" fill="#3fb950"/><circle cx="567.1" cy="198.0" r="3" fill="#3fb950"/><circle cx="571.0" cy="198.0" r="3" fill="#3fb950"/><circle cx="574.8" cy="198.0" r="3" fill="#3fb950"/><circle cx="578.7" cy="198.0" r="3" fill="#3fb950"/><circle cx="582.6" cy="198.0" r="3" fill="#3fb950"/><circle cx="586.5" cy="198.0" r="3" fill="#3fb950"/><circle cx="590.3" cy="198.0" r="3" fill="#3fb950"/><circle cx="594.2" cy="198.0" r="3" fill="#3fb950"/><circle cx="598.1" cy="198.0" r="3" fill="#3fb950"/><circle cx="602.0" cy="198.0" r="3" fill="#3fb950"/><circle cx="605.9" cy="198.0" r="3" fill="#3fb950"/><circle cx="609.7" cy="198.0" r="3" fill="#3fb950"/><circle cx="613.6" cy="198.0" r="3" fill="#3fb950"/><circle cx="617.5" cy="198.0" r="3" fill="#3fb950"/><circle cx="621.4" cy="198.0" r="3" fill="#3fb950"/><circle cx="625.2" cy="198.0" r="3" fill="#3fb950"/><circle cx="629.1" cy="198.0" r="3" fill="#3fb950"/><circle cx="633.0" cy="198.0" r="3" fill="#3fb950"/><circle cx="636.9" cy="198.0" r="3" fill="#3fb950"/><circle cx="640.7" cy="198.0" r="3" fill="#3fb950"/><circle cx="644.6" cy="198.0" r="3" fill="#3fb950"/><circle cx="648.5" cy="198.0" r="3" fill="#3fb950"/><circle cx="652.4" cy="198.0" r="3" fill="#3fb950"/><circle cx="656.2" cy="198.0" r="3" fill="#3fb950"/><circle cx="660.1" cy="198.0" r="3" fill="#3fb950"/><circle cx="664.0" cy="198.0" r="3" fill="#3fb950"/>
<polyline fill="none" stroke="#4aa3ff" stroke-width="2.5" stroke-linejoin="round" points="36.0,144.3 39.9,144.3 43.8,144.3 47.6,144.3 51.5,144.3 55.4,144.3 59.3,144.3 63.1,144.3 67.0,144.3 70.9,144.3 74.8,144.3 78.6,144.3 82.5,144.3 86.4,144.3 90.3,144.3 94.1,136.2 98.0,132.4 101.9,129.6 105.8,129.6 109.7,121.0 113.5,121.0 117.4,121.0 121.3,114.4 125.2,114.4 129.0,114.4 132.9,111.3 136.8,110.9 140.7,110.9 144.5,110.5 148.4,110.5 152.3,109.9 156.2,108.7 160.0,107.3 163.9,106.9 167.8,106.9 171.7,106.9 175.6,106.9 179.4,106.9 183.3,106.9 187.2,106.9 191.1,106.9 194.9,106.9 198.8,106.9 202.7,113.2 206.6,113.2 210.4,113.2 214.3,113.2 218.2,113.2 222.1,110.7 226.0,105.3 229.8,83.4 233.7,83.4 237.6,85.6 241.5,85.6 245.3,85.6 249.2,85.6 253.1,85.6 257.0,85.8 260.8,85.8 264.7,85.8 268.6,86.0 272.5,86.0 276.3,86.0 280.2,86.0 284.1,86.0 288.0,86.0 291.9,86.0 295.7,86.0 299.6,86.0 303.5,86.0 307.4,86.0 311.2,86.0 315.1,86.0 319.0,86.0 322.9,86.0 326.7,86.0 330.6,86.0 334.5,86.0 338.4,86.0 342.2,86.0 346.1,86.0 350.0,87.0 353.9,87.0 357.8,87.0 361.6,73.7 365.5,73.7 369.4,71.0 373.3,71.0 377.1,70.8 381.0,70.6 384.9,70.6 388.8,70.4 392.6,68.6 396.5,60.5 400.4,59.3 404.3,52.0 408.1,47.3 412.0,40.1 415.9,36.0 419.8,36.0 423.7,36.0 427.5,36.0 431.4,36.0 435.3,36.0 439.2,36.0 443.0,36.0 446.9,36.0 450.8,36.0 454.7,36.0 458.5,36.0 462.4,36.0 466.3,36.0 470.2,36.0 474.0,36.0 477.9,36.0 481.8,36.0 485.7,36.0 489.6,36.0 493.4,36.0 497.3,36.0 501.2,36.0 505.1,36.0 508.9,36.0 512.8,36.0 516.7,36.0 520.6,36.0 524.4,36.0 528.3,36.0 532.2,36.0 536.1,36.0 540.0,36.0 543.8,36.0 547.7,36.0 551.6,36.0 555.5,36.0 559.3,36.0 563.2,36.0 567.1,36.0 571.0,36.0 574.8,36.0 578.7,36.0 582.6,36.0 586.5,36.0 590.3,36.0 594.2,36.0 598.1,36.0 602.0,36.0 605.9,36.0 609.7,36.0 613.6,36.0 617.5,36.0 621.4,36.0 625.2,36.0 629.1,36.0 633.0,36.0 636.9,36.0 640.7,36.0 644.6,36.0 648.5,36.0 652.4,36.0 656.2,36.0 660.1,36.0 664.0,36.0"/><circle cx="36.0" cy="144.3" r="3" fill="#4aa3ff"/><circle cx="39.9" cy="144.3" r="3" fill="#4aa3ff"/><circle cx="43.8" cy="144.3" r="3" fill="#4aa3ff"/><circle cx="47.6" cy="144.3" r="3" fill="#4aa3ff"/><circle cx="51.5" cy="144.3" r="3" fill="#4aa3ff"/><circle cx="55.4" cy="144.3" r="3" fill="#4aa3ff"/><circle cx="59.3" cy="144.3" r="3" fill="#4aa3ff"/><circle cx="63.1" cy="144.3" r="3" fill="#4aa3ff"/><circle cx="67.0" cy="144.3" r="3" fill="#4aa3ff"/><circle cx="70.9" cy="144.3" r="3" fill="#4aa3ff"/><circle cx="74.8" cy="144.3" r="3" fill="#4aa3ff"/><circle cx="78.6" cy="144.3" r="3" fill="#4aa3ff"/><circle cx="82.5" cy="144.3" r="3" fill="#4aa3ff"/><circle cx="86.4" cy="144.3" r="3" fill="#4aa3ff"/><circle cx="90.3" cy="144.3" r="3" fill="#4aa3ff"/><circle cx="94.1" cy="136.2" r="3" fill="#4aa3ff"/><circle cx="98.0" cy="132.4" r="3" fill="#4aa3ff"/><circle cx="101.9" cy="129.6" r="3" fill="#4aa3ff"/><circle cx="105.8" cy="129.6" r="3" fill="#4aa3ff"/><circle cx="109.7" cy="121.0" r="3" fill="#4aa3ff"/><circle cx="113.5" cy="121.0" r="3" fill="#4aa3ff"/><circle cx="117.4" cy="121.0" r="3" fill="#4aa3ff"/><circle cx="121.3" cy="114.4" r="3" fill="#4aa3ff"/><circle cx="125.2" cy="114.4" r="3" fill="#4aa3ff"/><circle cx="129.0" cy="114.4" r="3" fill="#4aa3ff"/><circle cx="132.9" cy="111.3" r="3" fill="#4aa3ff"/><circle cx="136.8" cy="110.9" r="3" fill="#4aa3ff"/><circle cx="140.7" cy="110.9" r="3" fill="#4aa3ff"/><circle cx="144.5" cy="110.5" r="3" fill="#4aa3ff"/><circle cx="148.4" cy="110.5" r="3" fill="#4aa3ff"/><circle cx="152.3" cy="109.9" r="3" fill="#4aa3ff"/><circle cx="156.2" cy="108.7" r="3" fill="#4aa3ff"/><circle cx="160.0" cy="107.3" r="3" fill="#4aa3ff"/><circle cx="163.9" cy="106.9" r="3" fill="#4aa3ff"/><circle cx="167.8" cy="106.9" r="3" fill="#4aa3ff"/><circle cx="171.7" cy="106.9" r="3" fill="#4aa3ff"/><circle cx="175.6" cy="106.9" r="3" fill="#4aa3ff"/><circle cx="179.4" cy="106.9" r="3" fill="#4aa3ff"/><circle cx="183.3" cy="106.9" r="3" fill="#4aa3ff"/><circle cx="187.2" cy="106.9" r="3" fill="#4aa3ff"/><circle cx="191.1" cy="106.9" r="3" fill="#4aa3ff"/><circle cx="194.9" cy="106.9" r="3" fill="#4aa3ff"/><circle cx="198.8" cy="106.9" r="3" fill="#4aa3ff"/><circle cx="202.7" cy="113.2" r="3" fill="#4aa3ff"/><circle cx="206.6" cy="113.2" r="3" fill="#4aa3ff"/><circle cx="210.4" cy="113.2" r="3" fill="#4aa3ff"/><circle cx="214.3" cy="113.2" r="3" fill="#4aa3ff"/><circle cx="218.2" cy="113.2" r="3" fill="#4aa3ff"/><circle cx="222.1" cy="110.7" r="3" fill="#4aa3ff"/><circle cx="226.0" cy="105.3" r="3" fill="#4aa3ff"/><circle cx="229.8" cy="83.4" r="3" fill="#4aa3ff"/><circle cx="233.7" cy="83.4" r="3" fill="#4aa3ff"/><circle cx="237.6" cy="85.6" r="3" fill="#4aa3ff"/><circle cx="241.5" cy="85.6" r="3" fill="#4aa3ff"/><circle cx="245.3" cy="85.6" r="3" fill="#4aa3ff"/><circle cx="249.2" cy="85.6" r="3" fill="#4aa3ff"/><circle cx="253.1" cy="85.6" r="3" fill="#4aa3ff"/><circle cx="257.0" cy="85.8" r="3" fill="#4aa3ff"/><circle cx="260.8" cy="85.8" r="3" fill="#4aa3ff"/><circle cx="264.7" cy="85.8" r="3" fill="#4aa3ff"/><circle cx="268.6" cy="86.0" r="3" fill="#4aa3ff"/><circle cx="272.5" cy="86.0" r="3" fill="#4aa3ff"/><circle cx="276.3" cy="86.0" r="3" fill="#4aa3ff"/><circle cx="280.2" cy="86.0" r="3" fill="#4aa3ff"/><circle cx="284.1" cy="86.0" r="3" fill="#4aa3ff"/><circle cx="288.0" cy="86.0" r="3" fill="#4aa3ff"/><circle cx="291.9" cy="86.0" r="3" fill="#4aa3ff"/><circle cx="295.7" cy="86.0" r="3" fill="#4aa3ff"/><circle cx="299.6" cy="86.0" r="3" fill="#4aa3ff"/><circle cx="303.5" cy="86.0" r="3" fill="#4aa3ff"/><circle cx="307.4" cy="86.0" r="3" fill="#4aa3ff"/><circle cx="311.2" cy="86.0" r="3" fill="#4aa3ff"/><circle cx="315.1" cy="86.0" r="3" fill="#4aa3ff"/><circle cx="319.0" cy="86.0" r="3" fill="#4aa3ff"/><circle cx="322.9" cy="86.0" r="3" fill="#4aa3ff"/><circle cx="326.7" cy="86.0" r="3" fill="#4aa3ff"/><circle cx="330.6" cy="86.0" r="3" fill="#4aa3ff"/><circle cx="334.5" cy="86.0" r="3" fill="#4aa3ff"/><circle cx="338.4" cy="86.0" r="3" fill="#4aa3ff"/><circle cx="342.2" cy="86.0" r="3" fill="#4aa3ff"/><circle cx="346.1" cy="86.0" r="3" fill="#4aa3ff"/><circle cx="350.0" cy="87.0" r="3" fill="#4aa3ff"/><circle cx="353.9" cy="87.0" r="3" fill="#4aa3ff"/><circle cx="357.8" cy="87.0" r="3" fill="#4aa3ff"/><circle cx="361.6" cy="73.7" r="3" fill="#4aa3ff"/><circle cx="365.5" cy="73.7" r="3" fill="#4aa3ff"/><circle cx="369.4" cy="71.0" r="3" fill="#4aa3ff"/><circle cx="373.3" cy="71.0" r="3" fill="#4aa3ff"/><circle cx="377.1" cy="70.8" r="3" fill="#4aa3ff"/><circle cx="381.0" cy="70.6" r="3" fill="#4aa3ff"/><circle cx="384.9" cy="70.6" r="3" fill="#4aa3ff"/><circle cx="388.8" cy="70.4" r="3" fill="#4aa3ff"/><circle cx="392.6" cy="68.6" r="3" fill="#4aa3ff"/><circle cx="396.5" cy="60.5" r="3" fill="#4aa3ff"/><circle cx="400.4" cy="59.3" r="3" fill="#4aa3ff"/><circle cx="404.3" cy="52.0" r="3" fill="#4aa3ff"/><circle cx="408.1" cy="47.3" r="3" fill="#4aa3ff"/><circle cx="412.0" cy="40.1" r="3" fill="#4aa3ff"/><circle cx="415.9" cy="36.0" r="3" fill="#4aa3ff"/><circle cx="419.8" cy="36.0" r="3" fill="#4aa3ff"/><circle cx="423.7" cy="36.0" r="3" fill="#4aa3ff"/><circle cx="427.5" cy="36.0" r="3" fill="#4aa3ff"/><circle cx="431.4" cy="36.0" r="3" fill="#4aa3ff"/><circle cx="435.3" cy="36.0" r="3" fill="#4aa3ff"/><circle cx="439.2" cy="36.0" r="3" fill="#4aa3ff"/><circle cx="443.0" cy="36.0" r="3" fill="#4aa3ff"/><circle cx="446.9" cy="36.0" r="3" fill="#4aa3ff"/><circle cx="450.8" cy="36.0" r="3" fill="#4aa3ff"/><circle cx="454.7" cy="36.0" r="3" fill="#4aa3ff"/><circle cx="458.5" cy="36.0" r="3" fill="#4aa3ff"/><circle cx="462.4" cy="36.0" r="3" fill="#4aa3ff"/><circle cx="466.3" cy="36.0" r="3" fill="#4aa3ff"/><circle cx="470.2" cy="36.0" r="3" fill="#4aa3ff"/><circle cx="474.0" cy="36.0" r="3" fill="#4aa3ff"/><circle cx="477.9" cy="36.0" r="3" fill="#4aa3ff"/><circle cx="481.8" cy="36.0" r="3" fill="#4aa3ff"/><circle cx="485.7" cy="36.0" r="3" fill="#4aa3ff"/><circle cx="489.6" cy="36.0" r="3" fill="#4aa3ff"/><circle cx="493.4" cy="36.0" r="3" fill="#4aa3ff"/><circle cx="497.3" cy="36.0" r="3" fill="#4aa3ff"/><circle cx="501.2" cy="36.0" r="3" fill="#4aa3ff"/><circle cx="505.1" cy="36.0" r="3" fill="#4aa3ff"/><circle cx="508.9" cy="36.0" r="3" fill="#4aa3ff"/><circle cx="512.8" cy="36.0" r="3" fill="#4aa3ff"/><circle cx="516.7" cy="36.0" r="3" fill="#4aa3ff"/><circle cx="520.6" cy="36.0" r="3" fill="#4aa3ff"/><circle cx="524.4" cy="36.0" r="3" fill="#4aa3ff"/><circle cx="528.3" cy="36.0" r="3" fill="#4aa3ff"/><circle cx="532.2" cy="36.0" r="3" fill="#4aa3ff"/><circle cx="536.1" cy="36.0" r="3" fill="#4aa3ff"/><circle cx="540.0" cy="36.0" r="3" fill="#4aa3ff"/><circle cx="543.8" cy="36.0" r="3" fill="#4aa3ff"/><circle cx="547.7" cy="36.0" r="3" fill="#4aa3ff"/><circle cx="551.6" cy="36.0" r="3" fill="#4aa3ff"/><circle cx="555.5" cy="36.0" r="3" fill="#4aa3ff"/><circle cx="559.3" cy="36.0" r="3" fill="#4aa3ff"/><circle cx="563.2" cy="36.0" r="3" fill="#4aa3ff"/><circle cx="567.1" cy="36.0" r="3" fill="#4aa3ff"/><circle cx="571.0" cy="36.0" r="3" fill="#4aa3ff"/><circle cx="574.8" cy="36.0" r="3" fill="#4aa3ff"/><circle cx="578.7" cy="36.0" r="3" fill="#4aa3ff"/><circle cx="582.6" cy="36.0" r="3" fill="#4aa3ff"/><circle cx="586.5" cy="36.0" r="3" fill="#4aa3ff"/><circle cx="590.3" cy="36.0" r="3" fill="#4aa3ff"/><circle cx="594.2" cy="36.0" r="3" fill="#4aa3ff"/><circle cx="598.1" cy="36.0" r="3" fill="#4aa3ff"/><circle cx="602.0" cy="36.0" r="3" fill="#4aa3ff"/><circle cx="605.9" cy="36.0" r="3" fill="#4aa3ff"/><circle cx="609.7" cy="36.0" r="3" fill="#4aa3ff"/><circle cx="613.6" cy="36.0" r="3" fill="#4aa3ff"/><circle cx="617.5" cy="36.0" r="3" fill="#4aa3ff"/><circle cx="621.4" cy="36.0" r="3" fill="#4aa3ff"/><circle cx="625.2" cy="36.0" r="3" fill="#4aa3ff"/><circle cx="629.1" cy="36.0" r="3" fill="#4aa3ff"/><circle cx="633.0" cy="36.0" r="3" fill="#4aa3ff"/><circle cx="636.9" cy="36.0" r="3" fill="#4aa3ff"/><circle cx="640.7" cy="36.0" r="3" fill="#4aa3ff"/><circle cx="644.6" cy="36.0" r="3" fill="#4aa3ff"/><circle cx="648.5" cy="36.0" r="3" fill="#4aa3ff"/><circle cx="652.4" cy="36.0" r="3" fill="#4aa3ff"/><circle cx="656.2" cy="36.0" r="3" fill="#4aa3ff"/><circle cx="660.1" cy="36.0" r="3" fill="#4aa3ff"/><circle cx="664.0" cy="36.0" r="3" fill="#4aa3ff"/>
<text x="36" y="225" fill="#6b7280" font-size="11">2026-06-26</text>
<text x="664" y="225" fill="#6b7280" font-size="11" text-anchor="end">2026-07-13</text>
<text x="36" y="212" font-family="system-ui,sans-serif" font-size="11">
<tspan fill="#4aa3ff">&#9679; open FPs</tspan>  <tspan fill="#3fb950">&#9679; closed (Anthropic acting)</tspan>  <tspan fill="#8a5a5a">&#9679; harness withdrawn</tspan></text>
<text x="664" y="22" text-anchor="end" font-family="system-ui,sans-serif" font-size="12">
<tspan fill="#4aa3ff">open 800</tspan>  <tspan fill="#3fb950">closed 0</tspan>  <tspan fill="#8a5a5a">harness 0</tspan></text>
</svg>