<svg xmlns="http://www.w3.org/2000/svg" width="700" height="234" viewBox="0 0 700 234" role="img">
<rect width="700" height="234" rx="12" fill="#16181d"/>
<text x="36" y="22" fill="#e8eaed" font-family="system-ui,sans-serif" font-size="14" font-weight="700">Is Anthropic acting? cyber/aup false positives over time</text>
<line x1="36" y1="198.0" x2="664" y2="198.0" stroke="#2a2e37" stroke-width="1"/><text x="30" y="202.0" fill="#6b7280" font-size="11" text-anchor="end">0</text><line x1="36" y1="117.0" x2="664" y2="117.0" stroke="#2a2e37" stroke-width="1"/><text x="30" y="121.0" fill="#6b7280" font-size="11" text-anchor="end">400</text><line x1="36" y1="36.0" x2="664" y2="36.0" stroke="#2a2e37" stroke-width="1"/><text x="30" y="40.0" fill="#6b7280" font-size="11" text-anchor="end">800</text>

<polyline fill="none" stroke="#8a5a5a" stroke-width="2.5" stroke-linejoin="round" points="36.0,145.1 38.5,145.1 41.0,145.1 43.4,145.1 45.9,145.1 48.4,145.1 50.9,145.1 53.4,145.1 55.9,145.1 58.3,145.1 60.8,145.1 63.3,145.1 65.8,145.1 68.3,145.1 70.8,145.1 73.2,145.1 75.7,145.1 78.2,145.1 80.7,145.1 83.2,145.1 85.6,145.1 88.1,145.1 90.6,145.1 93.1,145.1 95.6,145.1 98.1,145.1 100.5,145.1 103.0,145.1 105.5,145.1 108.0,145.1 110.5,145.1 112.9,145.1 115.4,145.1 117.9,145.1 120.4,145.1 122.9,145.1 125.4,145.1 127.8,145.1 130.3,145.1 132.8,145.1 135.3,145.1 137.8,145.1 140.3,145.1 142.7,145.1 145.2,145.1 147.7,145.1 150.2,145.1 152.7,145.1 155.1,145.1 157.6,145.1 160.1,155.7 162.6,155.7 165.1,155.7 167.6,155.7 170.0,155.7 172.5,155.7 175.0,155.7 177.5,155.7 180.0,155.7 182.5,155.7 184.9,155.7 187.4,155.7 189.9,155.7 192.4,155.7 194.9,155.7 197.3,155.7 199.8,155.7 202.3,155.7 204.8,155.7 207.3,155.7 209.8,155.7 212.2,155.7 214.7,155.7 217.2,155.7 219.7,155.7 222.2,155.7 224.6,155.7 227.1,155.7 229.6,155.7 232.1,155.7 234.6,155.7 237.1,155.7 239.5,155.7 242.0,155.7 244.5,167.6 247.0,167.6 249.5,170.3 252.0,170.3 254.4,170.5 256.9,170.7 259.4,170.7 261.9,170.9 264.4,172.7 266.8,180.6 269.3,181.8 271.8,189.1 274.3,190.5 276.8,195.2 279.3,198.0 281.7,198.0 284.2,198.0 286.7,198.0 289.2,198.0 291.7,198.0 294.2,198.0 296.6,198.0 299.1,198.0 301.6,198.0 304.1,198.0 306.6,198.0 309.0,198.0 311.5,198.0 314.0,198.0 316.5,198.0 319.0,198.0 321.5,198.0 323.9,198.0 326.4,198.0 328.9,198.0 331.4,198.0 333.9,198.0 336.3,198.0 338.8,198.0 341.3,198.0 343.8,198.0 346.3,198.0 348.8,198.0 351.2,198.0 353.7,198.0 356.2,198.0 358.7,198.0 361.2,198.0 363.7,198.0 366.1,198.0 368.6,198.0 371.1,198.0 373.6,198.0 376.1,198.0 378.5,198.0 381.0,198.0 383.5,198.0 386.0,198.0 388.5,198.0 391.0,198.0 393.4,198.0 395.9,198.0 398.4,198.0 400.9,198.0 403.4,198.0 405.8,198.0 408.3,198.0 410.8,198.0 413.3,198.0 415.8,198.0 418.3,198.0 420.7,198.0 423.2,198.0 425.7,198.0 428.2,198.0 430.7,198.0 433.2,198.0 435.6,198.0 438.1,198.0 440.6,198.0 443.1,198.0 445.6,198.0 448.0,198.0 450.5,198.0 453.0,198.0 455.5,198.0 458.0,198.0 460.5,198.0 462.9,198.0 465.4,198.0 467.9,198.0 470.4,198.0 472.9,198.0 475.4,198.0 477.8,198.0 480.3,198.0 482.8,198.0 485.3,198.0 487.8,198.0 490.2,198.0 492.7,198.0 495.2,198.0 497.7,198.0 500.2,198.0 502.7,198.0 505.1,198.0 507.6,198.0 510.1,198.0 512.6,198.0 515.1,198.0 517.5,198.0 520.0,198.0 522.5,198.0 525.0,198.0 527.5,198.0 530.0,198.0 532.4,198.0 534.9,198.0 537.4,198.0 539.9,198.0 542.4,198.0 544.9,198.0 547.3,198.0 549.8,198.0 552.3,198.0 554.8,198.0 557.3,198.0 559.7,198.0 562.2,198.0 564.7,198.0 567.2,198.0 569.7,198.0 572.2,198.0 574.6,198.0 577.1,198.0 579.6,198.0 582.1,198.0 584.6,198.0 587.1,198.0 589.5,198.0 592.0,198.0 594.5,198.0 597.0,198.0 599.5,198.0 601.9,198.0 604.4,198.0 606.9,198.0 609.4,198.0 611.9,198.0 614.4,198.0 616.8,198.0 619.3,198.0 621.8,198.0 624.3,198.0 626.8,198.0 629.2,198.0 631.7,198.0 634.2,198.0 636.7,198.0 639.2,198.0 641.7,198.0 644.1,198.0 646.6,198.0 649.1,198.0 651.6,198.0 654.1,198.0 656.6,198.0 659.0,198.0 661.5,198.0 664.0,198.0"/><circle cx="36.0" cy="145.1" r="3" fill="#8a5a5a"/><circle cx="38.5" cy="145.1" r="3" fill="#8a5a5a"/><circle cx="41.0" cy="145.1" r="3" fill="#8a5a5a"/><circle cx="43.4" cy="145.1" r="3" fill="#8a5a5a"/><circle cx="45.9" cy="145.1" r="3" fill="#8a5a5a"/><circle cx="48.4" cy="145.1" r="3" fill="#8a5a5a"/><circle cx="50.9" cy="145.1" r="3" fill="#8a5a5a"/><circle cx="53.4" cy="145.1" r="3" fill="#8a5a5a"/><circle cx="55.9" cy="145.1" r="3" fill="#8a5a5a"/><circle cx="58.3" cy="145.1" r="3" fill="#8a5a5a"/><circle cx="60.8" cy="145.1" r="3" fill="#8a5a5a"/><circle cx="63.3" cy="145.1" r="3" fill="#8a5a5a"/><circle cx="65.8" cy="145.1" r="3" fill="#8a5a5a"/><circle cx="68.3" cy="145.1" r="3" fill="#8a5a5a"/><circle cx="70.8" cy="145.1" r="3" fill="#8a5a5a"/><circle cx="73.2" cy="145.1" r="3" fill="#8a5a5a"/><circle cx="75.7" cy="145.1" r="3" fill="#8a5a5a"/><circle cx="78.2" cy="145.1" r="3" fill="#8a5a5a"/><circle cx="80.7" cy="145.1" r="3" fill="#8a5a5a"/><circle cx="83.2" cy="145.1" r="3" fill="#8a5a5a"/><circle cx="85.6" cy="145.1" r="3" fill="#8a5a5a"/><circle cx="88.1" cy="145.1" r="3" fill="#8a5a5a"/><circle cx="90.6" cy="145.1" r="3" fill="#8a5a5a"/><circle cx="93.1" cy="145.1" r="3" fill="#8a5a5a"/><circle cx="95.6" cy="145.1" r="3" fill="#8a5a5a"/><circle cx="98.1" cy="145.1" r="3" fill="#8a5a5a"/><circle cx="100.5" cy="145.1" r="3" fill="#8a5a5a"/><circle cx="103.0" cy="145.1" r="3" fill="#8a5a5a"/><circle cx="105.5" cy="145.1" r="3" fill="#8a5a5a"/><circle cx="108.0" cy="145.1" r="3" fill="#8a5a5a"/><circle cx="110.5" cy="145.1" r="3" fill="#8a5a5a"/><circle cx="112.9" cy="145.1" r="3" fill="#8a5a5a"/><circle cx="115.4" cy="145.1" r="3" fill="#8a5a5a"/><circle cx="117.9" cy="145.1" r="3" fill="#8a5a5a"/><circle cx="120.4" cy="145.1" r="3" fill="#8a5a5a"/><circle cx="122.9" cy="145.1" r="3" fill="#8a5a5a"/><circle cx="125.4" cy="145.1" r="3" fill="#8a5a5a"/><circle cx="127.8" cy="145.1" r="3" fill="#8a5a5a"/><circle cx="130.3" cy="145.1" r="3" fill="#8a5a5a"/><circle cx="132.8" cy="145.1" r="3" fill="#8a5a5a"/><circle cx="135.3" cy="145.1" r="3" fill="#8a5a5a"/><circle cx="137.8" cy="145.1" r="3" fill="#8a5a5a"/><circle cx="140.3" cy="145.1" r="3" fill="#8a5a5a"/><circle cx="142.7" cy="145.1" r="3" fill="#8a5a5a"/><circle cx="145.2" cy="145.1" r="3" fill="#8a5a5a"/><circle cx="147.7" cy="145.1" r="3" fill="#8a5a5a"/><circle cx="150.2" cy="145.1" r="3" fill="#8a5a5a"/><circle cx="152.7" cy="145.1" r="3" fill="#8a5a5a"/><circle cx="155.1" cy="145.1" r="3" fill="#8a5a5a"/><circle cx="157.6" cy="145.1" r="3" fill="#8a5a5a"/><circle cx="160.1" cy="155.7" r="3" fill="#8a5a5a"/><circle cx="162.6" cy="155.7" r="3" fill="#8a5a5a"/><circle cx="165.1" cy="155.7" r="3" fill="#8a5a5a"/><circle cx="167.6" cy="155.7" r="3" fill="#8a5a5a"/><circle cx="170.0" cy="155.7" r="3" fill="#8a5a5a"/><circle cx="172.5" cy="155.7" r="3" fill="#8a5a5a"/><circle cx="175.0" cy="155.7" r="3" fill="#8a5a5a"/><circle cx="177.5" cy="155.7" r="3" fill="#8a5a5a"/><circle cx="180.0" cy="155.7" r="3" fill="#8a5a5a"/><circle cx="182.5" cy="155.7" r="3" fill="#8a5a5a"/><circle cx="184.9" cy="155.7" r="3" fill="#8a5a5a"/><circle cx="187.4" cy="155.7" r="3" fill="#8a5a5a"/><circle cx="189.9" cy="155.7" r="3" fill="#8a5a5a"/><circle cx="192.4" cy="155.7" r="3" fill="#8a5a5a"/><circle cx="194.9" cy="155.7" r="3" fill="#8a5a5a"/><circle cx="197.3" cy="155.7" r="3" fill="#8a5a5a"/><circle cx="199.8" cy="155.7" r="3" fill="#8a5a5a"/><circle cx="202.3" cy="155.7" r="3" fill="#8a5a5a"/><circle cx="204.8" cy="155.7" r="3" fill="#8a5a5a"/><circle cx="207.3" cy="155.7" r="3" fill="#8a5a5a"/><circle cx="209.8" cy="155.7" r="3" fill="#8a5a5a"/><circle cx="212.2" cy="155.7" r="3" fill="#8a5a5a"/><circle cx="214.7" cy="155.7" r="3" fill="#8a5a5a"/><circle cx="217.2" cy="155.7" r="3" fill="#8a5a5a"/><circle cx="219.7" cy="155.7" r="3" fill="#8a5a5a"/><circle cx="222.2" cy="155.7" r="3" fill="#8a5a5a"/><circle cx="224.6" cy="155.7" r="3" fill="#8a5a5a"/><circle cx="227.1" cy="155.7" r="3" fill="#8a5a5a"/><circle cx="229.6" cy="155.7" r="3" fill="#8a5a5a"/><circle cx="232.1" cy="155.7" r="3" fill="#8a5a5a"/><circle cx="234.6" cy="155.7" r="3" fill="#8a5a5a"/><circle cx="237.1" cy="155.7" r="3" fill="#8a5a5a"/><circle cx="239.5" cy="155.7" r="3" fill="#8a5a5a"/><circle cx="242.0" cy="155.7" r="3" fill="#8a5a5a"/><circle cx="244.5" cy="167.6" r="3" fill="#8a5a5a"/><circle cx="247.0" cy="167.6" r="3" fill="#8a5a5a"/><circle cx="249.5" cy="170.3" r="3" fill="#8a5a5a"/><circle cx="252.0" cy="170.3" r="3" fill="#8a5a5a"/><circle cx="254.4" cy="170.5" r="3" fill="#8a5a5a"/><circle cx="256.9" cy="170.7" r="3" fill="#8a5a5a"/><circle cx="259.4" cy="170.7" r="3" fill="#8a5a5a"/><circle cx="261.9" cy="170.9" r="3" fill="#8a5a5a"/><circle cx="264.4" cy="172.7" r="3" fill="#8a5a5a"/><circle cx="266.8" cy="180.6" r="3" fill="#8a5a5a"/><circle cx="269.3" cy="181.8" r="3" fill="#8a5a5a"/><circle cx="271.8" cy="189.1" r="3" fill="#8a5a5a"/><circle cx="274.3" cy="190.5" r="3" fill="#8a5a5a"/><circle cx="276.8" cy="195.2" r="3" fill="#8a5a5a"/><circle cx="279.3" cy="198.0" r="3" fill="#8a5a5a"/><circle cx="281.7" cy="198.0" r="3" fill="#8a5a5a"/><circle cx="284.2" cy="198.0" r="3" fill="#8a5a5a"/><circle cx="286.7" cy="198.0" r="3" fill="#8a5a5a"/><circle cx="289.2" cy="198.0" r="3" fill="#8a5a5a"/><circle cx="291.7" cy="198.0" r="3" fill="#8a5a5a"/><circle cx="294.2" cy="198.0" r="3" fill="#8a5a5a"/><circle cx="296.6" cy="198.0" r="3" fill="#8a5a5a"/><circle cx="299.1" cy="198.0" r="3" fill="#8a5a5a"/><circle cx="301.6" cy="198.0" r="3" fill="#8a5a5a"/><circle cx="304.1" cy="198.0" r="3" fill="#8a5a5a"/><circle cx="306.6" cy="198.0" r="3" fill="#8a5a5a"/><circle cx="309.0" cy="198.0" r="3" fill="#8a5a5a"/><circle cx="311.5" cy="198.0" r="3" fill="#8a5a5a"/><circle cx="314.0" cy="198.0" r="3" fill="#8a5a5a"/><circle cx="316.5" cy="198.0" r="3" fill="#8a5a5a"/><circle cx="319.0" cy="198.0" r="3" fill="#8a5a5a"/><circle cx="321.5" cy="198.0" r="3" fill="#8a5a5a"/><circle cx="323.9" cy="198.0" r="3" fill="#8a5a5a"/><circle cx="326.4" cy="198.0" r="3" fill="#8a5a5a"/><circle cx="328.9" cy="198.0" r="3" fill="#8a5a5a"/><circle cx="331.4" cy="198.0" r="3" fill="#8a5a5a"/><circle cx="333.9" cy="198.0" r="3" fill="#8a5a5a"/><circle cx="336.3" cy="198.0" r="3" fill="#8a5a5a"/><circle cx="338.8" cy="198.0" r="3" fill="#8a5a5a"/><circle cx="341.3" cy="198.0" r="3" fill="#8a5a5a"/><circle cx="343.8" cy="198.0" r="3" fill="#8a5a5a"/><circle cx="346.3" cy="198.0" r="3" fill="#8a5a5a"/><circle cx="348.8" cy="198.0" r="3" fill="#8a5a5a"/><circle cx="351.2" cy="198.0" r="3" fill="#8a5a5a"/><circle cx="353.7" cy="198.0" r="3" fill="#8a5a5a"/><circle cx="356.2" cy="198.0" r="3" fill="#8a5a5a"/><circle cx="358.7" cy="198.0" r="3" fill="#8a5a5a"/><circle cx="361.2" cy="198.0" r="3" fill="#8a5a5a"/><circle cx="363.7" cy="198.0" r="3" fill="#8a5a5a"/><circle cx="366.1" cy="198.0" r="3" fill="#8a5a5a"/><circle cx="368.6" cy="198.0" r="3" fill="#8a5a5a"/><circle cx="371.1" cy="198.0" r="3" fill="#8a5a5a"/><circle cx="373.6" cy="198.0" r="3" fill="#8a5a5a"/><circle cx="376.1" cy="198.0" r="3" fill="#8a5a5a"/><circle cx="378.5" cy="198.0" r="3" fill="#8a5a5a"/><circle cx="381.0" cy="198.0" r="3" fill="#8a5a5a"/><circle cx="383.5" cy="198.0" r="3" fill="#8a5a5a"/><circle cx="386.0" cy="198.0" r="3" fill="#8a5a5a"/><circle cx="388.5" cy="198.0" r="3" fill="#8a5a5a"/><circle cx="391.0" cy="198.0" r="3" fill="#8a5a5a"/><circle cx="393.4" cy="198.0" r="3" fill="#8a5a5a"/><circle cx="395.9" cy="198.0" r="3" fill="#8a5a5a"/><circle cx="398.4" cy="198.0" r="3" fill="#8a5a5a"/><circle cx="400.9" cy="198.0" r="3" fill="#8a5a5a"/><circle cx="403.4" cy="198.0" r="3" fill="#8a5a5a"/><circle cx="405.8" cy="198.0" r="3" fill="#8a5a5a"/><circle cx="408.3" cy="198.0" r="3" fill="#8a5a5a"/><circle cx="410.8" cy="198.0" r="3" fill="#8a5a5a"/><circle cx="413.3" cy="198.0" r="3" fill="#8a5a5a"/><circle cx="415.8" cy="198.0" r="3" fill="#8a5a5a"/><circle cx="418.3" cy="198.0" r="3" fill="#8a5a5a"/><circle cx="420.7" cy="198.0" r="3" fill="#8a5a5a"/><circle cx="423.2" cy="198.0" r="3" fill="#8a5a5a"/><circle cx="425.7" cy="198.0" r="3" fill="#8a5a5a"/><circle cx="428.2" cy="198.0" r="3" fill="#8a5a5a"/><circle cx="430.7" cy="198.0" r="3" fill="#8a5a5a"/><circle cx="433.2" cy="198.0" r="3" fill="#8a5a5a"/><circle cx="435.6" cy="198.0" r="3" fill="#8a5a5a"/><circle cx="438.1" cy="198.0" r="3" fill="#8a5a5a"/><circle cx="440.6" cy="198.0" r="3" fill="#8a5a5a"/><circle cx="443.1" cy="198.0" r="3" fill="#8a5a5a"/><circle cx="445.6" cy="198.0" r="3" fill="#8a5a5a"/><circle cx="448.0" cy="198.0" r="3" fill="#8a5a5a"/><circle cx="450.5" cy="198.0" r="3" fill="#8a5a5a"/><circle cx="453.0" cy="198.0" r="3" fill="#8a5a5a"/><circle cx="455.5" cy="198.0" r="3" fill="#8a5a5a"/><circle cx="458.0" cy="198.0" r="3" fill="#8a5a5a"/><circle cx="460.5" cy="198.0" r="3" fill="#8a5a5a"/><circle cx="462.9" cy="198.0" r="3" fill="#8a5a5a"/><circle cx="465.4" cy="198.0" r="3" fill="#8a5a5a"/><circle cx="467.9" cy="198.0" r="3" fill="#8a5a5a"/><circle cx="470.4" cy="198.0" r="3" fill="#8a5a5a"/><circle cx="472.9" cy="198.0" r="3" fill="#8a5a5a"/><circle cx="475.4" cy="198.0" r="3" fill="#8a5a5a"/><circle cx="477.8" cy="198.0" r="3" fill="#8a5a5a"/><circle cx="480.3" cy="198.0" r="3" fill="#8a5a5a"/><circle cx="482.8" cy="198.0" r="3" fill="#8a5a5a"/><circle cx="485.3" cy="198.0" r="3" fill="#8a5a5a"/><circle cx="487.8" cy="198.0" r="3" fill="#8a5a5a"/><circle cx="490.2" cy="198.0" r="3" fill="#8a5a5a"/><circle cx="492.7" cy="198.0" r="3" fill="#8a5a5a"/><circle cx="495.2" cy="198.0" r="3" fill="#8a5a5a"/><circle cx="497.7" cy="198.0" r="3" fill="#8a5a5a"/><circle cx="500.2" cy="198.0" r="3" fill="#8a5a5a"/><circle cx="502.7" cy="198.0" r="3" fill="#8a5a5a"/><circle cx="505.1" cy="198.0" r="3" fill="#8a5a5a"/><circle cx="507.6" cy="198.0" r="3" fill="#8a5a5a"/><circle cx="510.1" cy="198.0" r="3" fill="#8a5a5a"/><circle cx="512.6" cy="198.0" r="3" fill="#8a5a5a"/><circle cx="515.1" cy="198.0" r="3" fill="#8a5a5a"/><circle cx="517.5" cy="198.0" r="3" fill="#8a5a5a"/><circle cx="520.0" cy="198.0" r="3" fill="#8a5a5a"/><circle cx="522.5" cy="198.0" r="3" fill="#8a5a5a"/><circle cx="525.0" cy="198.0" r="3" fill="#8a5a5a"/><circle cx="527.5" cy="198.0" r="3" fill="#8a5a5a"/><circle cx="530.0" cy="198.0" r="3" fill="#8a5a5a"/><circle cx="532.4" cy="198.0" r="3" fill="#8a5a5a"/><circle cx="534.9" cy="198.0" r="3" fill="#8a5a5a"/><circle cx="537.4" cy="198.0" r="3" fill="#8a5a5a"/><circle cx="539.9" cy="198.0" r="3" fill="#8a5a5a"/><circle cx="542.4" cy="198.0" r="3" fill="#8a5a5a"/><circle cx="544.9" cy="198.0" r="3" fill="#8a5a5a"/><circle cx="547.3" cy="198.0" r="3" fill="#8a5a5a"/><circle cx="549.8" cy="198.0" r="3" fill="#8a5a5a"/><circle cx="552.3" cy="198.0" r="3" fill="#8a5a5a"/><circle cx="554.8" cy="198.0" r="3" fill="#8a5a5a"/><circle cx="557.3" cy="198.0" r="3" fill="#8a5a5a"/><circle cx="559.7" cy="198.0" r="3" fill="#8a5a5a"/><circle cx="562.2" cy="198.0" r="3" fill="#8a5a5a"/><circle cx="564.7" cy="198.0" r="3" fill="#8a5a5a"/><circle cx="567.2" cy="198.0" r="3" fill="#8a5a5a"/><circle cx="569.7" cy="198.0" r="3" fill="#8a5a5a"/><circle cx="572.2" cy="198.0" r="3" fill="#8a5a5a"/><circle cx="574.6" cy="198.0" r="3" fill="#8a5a5a"/><circle cx="577.1" cy="198.0" r="3" fill="#8a5a5a"/><circle cx="579.6" cy="198.0" r="3" fill="#8a5a5a"/><circle cx="582.1" cy="198.0" r="3" fill="#8a5a5a"/><circle cx="584.6" cy="198.0" r="3" fill="#8a5a5a"/><circle cx="587.1" cy="198.0" r="3" fill="#8a5a5a"/><circle cx="589.5" cy="198.0" r="3" fill="#8a5a5a"/><circle cx="592.0" cy="198.0" r="3" fill="#8a5a5a"/><circle cx="594.5" cy="198.0" r="3" fill="#8a5a5a"/><circle cx="597.0" cy="198.0" r="3" fill="#8a5a5a"/><circle cx="599.5" cy="198.0" r="3" fill="#8a5a5a"/><circle cx="601.9" cy="198.0" r="3" fill="#8a5a5a"/><circle cx="604.4" cy="198.0" r="3" fill="#8a5a5a"/><circle cx="606.9" cy="198.0" r="3" fill="#8a5a5a"/><circle cx="609.4" cy="198.0" r="3" fill="#8a5a5a"/><circle cx="611.9" cy="198.0" r="3" fill="#8a5a5a"/><circle cx="614.4" cy="198.0" r="3" fill="#8a5a5a"/><circle cx="616.8" cy="198.0" r="3" fill="#8a5a5a"/><circle cx="619.3" cy="198.0" r="3" fill="#8a5a5a"/><circle cx="621.8" cy="198.0" r="3" fill="#8a5a5a"/><circle cx="624.3" cy="198.0" r="3" fill="#8a5a5a"/><circle cx="626.8" cy="198.0" r="3" fill="#8a5a5a"/><circle cx="629.2" cy="198.0" r="3" fill="#8a5a5a"/><circle cx="631.7" cy="198.0" r="3" fill="#8a5a5a"/><circle cx="634.2" cy="198.0" r="3" fill="#8a5a5a"/><circle cx="636.7" cy="198.0" r="3" fill="#8a5a5a"/><circle cx="639.2" cy="198.0" r="3" fill="#8a5a5a"/><circle cx="641.7" cy="198.0" r="3" fill="#8a5a5a"/><circle cx="644.1" cy="198.0" r="3" fill="#8a5a5a"/><circle cx="646.6" cy="198.0" r="3" fill="#8a5a5a"/><circle cx="649.1" cy="198.0" r="3" fill="#8a5a5a"/><circle cx="651.6" cy="198.0" r="3" fill="#8a5a5a"/><circle cx="654.1" cy="198.0" r="3" fill="#8a5a5a"/><circle cx="656.6" cy="198.0" r="3" fill="#8a5a5a"/><circle cx="659.0" cy="198.0" r="3" fill="#8a5a5a"/><circle cx="661.5" cy="198.0" r="3" fill="#8a5a5a"/><circle cx="664.0" cy="198.0" r="3" fill="#8a5a5a"/>
<polyline fill="none" stroke="#3fb950" stroke-width="2.5" stroke-linejoin="round" points="36.0,198.0 38.5,198.0 41.0,198.0 43.4,198.0 45.9,198.0 48.4,198.0 50.9,198.0 53.4,198.0 55.9,198.0 58.3,198.0 60.8,198.0 63.3,198.0 65.8,198.0 68.3,198.0 70.8,198.0 73.2,198.0 75.7,198.0 78.2,198.0 80.7,198.0 83.2,198.0 85.6,198.0 88.1,198.0 90.6,198.0 93.1,198.0 95.6,198.0 98.1,198.0 100.5,198.0 103.0,198.0 105.5,198.0 108.0,198.0 110.5,198.0 112.9,198.0 115.4,198.0 117.9,198.0 120.4,198.0 122.9,198.0 125.4,198.0 127.8,198.0 130.3,198.0 132.8,198.0 135.3,198.0 137.8,198.0 140.3,198.0 142.7,191.7 145.2,191.7 147.7,191.7 150.2,191.7 152.7,191.7 155.1,191.7 157.6,191.7 160.1,192.9 162.6,192.9 165.1,190.7 167.6,190.7 170.0,190.7 172.5,190.7 175.0,190.7 177.5,190.5 180.0,190.5 182.5,190.5 184.9,190.3 187.4,190.3 189.9,190.3 192.4,190.3 194.9,190.3 197.3,190.3 199.8,190.3 202.3,190.3 204.8,190.3 207.3,190.3 209.8,190.3 212.2,190.3 214.7,190.3 217.2,190.3 219.7,190.3 222.2,190.3 224.6,190.3 227.1,190.3 229.6,190.3 232.1,190.3 234.6,190.3 237.1,189.3 239.5,189.3 242.0,189.3 244.5,190.7 247.0,190.7 249.5,190.7 252.0,190.7 254.4,190.7 256.9,190.7 259.4,190.7 261.9,190.7 264.4,190.7 266.8,190.9 269.3,190.9 271.8,190.9 274.3,194.2 276.8,196.8 279.3,198.0 281.7,198.0 284.2,198.0 286.7,198.0 289.2,198.0 291.7,198.0 294.2,198.0 296.6,198.0 299.1,198.0 301.6,198.0 304.1,198.0 306.6,198.0 309.0,198.0 311.5,198.0 314.0,198.0 316.5,198.0 319.0,198.0 321.5,198.0 323.9,198.0 326.4,198.0 328.9,198.0 331.4,198.0 333.9,198.0 336.3,198.0 338.8,198.0 341.3,198.0 343.8,198.0 346.3,198.0 348.8,198.0 351.2,198.0 353.7,198.0 356.2,198.0 358.7,198.0 361.2,198.0 363.7,198.0 366.1,198.0 368.6,198.0 371.1,198.0 373.6,198.0 376.1,198.0 378.5,198.0 381.0,198.0 383.5,198.0 386.0,198.0 388.5,198.0 391.0,198.0 393.4,198.0 395.9,198.0 398.4,198.0 400.9,198.0 403.4,198.0 405.8,198.0 408.3,198.0 410.8,198.0 413.3,198.0 415.8,198.0 418.3,198.0 420.7,198.0 423.2,198.0 425.7,198.0 428.2,198.0 430.7,198.0 433.2,198.0 435.6,198.0 438.1,198.0 440.6,198.0 443.1,198.0 445.6,198.0 448.0,198.0 450.5,198.0 453.0,198.0 455.5,198.0 458.0,198.0 460.5,198.0 462.9,198.0 465.4,198.0 467.9,198.0 470.4,198.0 472.9,198.0 475.4,198.0 477.8,198.0 480.3,198.0 482.8,198.0 485.3,198.0 487.8,198.0 490.2,198.0 492.7,198.0 495.2,198.0 497.7,198.0 500.2,198.0 502.7,198.0 505.1,198.0 507.6,198.0 510.1,198.0 512.6,198.0 515.1,198.0 517.5,198.0 520.0,198.0 522.5,198.0 525.0,198.0 527.5,198.0 530.0,198.0 532.4,198.0 534.9,198.0 537.4,198.0 539.9,198.0 542.4,198.0 544.9,198.0 547.3,198.0 549.8,198.0 552.3,198.0 554.8,198.0 557.3,198.0 559.7,198.0 562.2,198.0 564.7,198.0 567.2,198.0 569.7,198.0 572.2,198.0 574.6,198.0 577.1,198.0 579.6,198.0 582.1,198.0 584.6,198.0 587.1,198.0 589.5,198.0 592.0,198.0 594.5,198.0 597.0,198.0 599.5,198.0 601.9,198.0 604.4,198.0 606.9,198.0 609.4,198.0 611.9,198.0 614.4,198.0 616.8,198.0 619.3,198.0 621.8,198.0 624.3,198.0 626.8,198.0 629.2,198.0 631.7,198.0 634.2,198.0 636.7,198.0 639.2,198.0 641.7,198.0 644.1,198.0 646.6,198.0 649.1,198.0 651.6,198.0 654.1,198.0 656.6,198.0 659.0,198.0 661.5,198.0 664.0,198.0"/><circle cx="36.0" cy="198.0" r="3" fill="#3fb950"/><circle cx="38.5" cy="198.0" r="3" fill="#3fb950"/><circle cx="41.0" cy="198.0" r="3" fill="#3fb950"/><circle cx="43.4" cy="198.0" r="3" fill="#3fb950"/><circle cx="45.9" cy="198.0" r="3" fill="#3fb950"/><circle cx="48.4" cy="198.0" r="3" fill="#3fb950"/><circle cx="50.9" cy="198.0" r="3" fill="#3fb950"/><circle cx="53.4" cy="198.0" r="3" fill="#3fb950"/><circle cx="55.9" cy="198.0" r="3" fill="#3fb950"/><circle cx="58.3" cy="198.0" r="3" fill="#3fb950"/><circle cx="60.8" cy="198.0" r="3" fill="#3fb950"/><circle cx="63.3" cy="198.0" r="3" fill="#3fb950"/><circle cx="65.8" cy="198.0" r="3" fill="#3fb950"/><circle cx="68.3" cy="198.0" r="3" fill="#3fb950"/><circle cx="70.8" cy="198.0" r="3" fill="#3fb950"/><circle cx="73.2" cy="198.0" r="3" fill="#3fb950"/><circle cx="75.7" cy="198.0" r="3" fill="#3fb950"/><circle cx="78.2" cy="198.0" r="3" fill="#3fb950"/><circle cx="80.7" cy="198.0" r="3" fill="#3fb950"/><circle cx="83.2" cy="198.0" r="3" fill="#3fb950"/><circle cx="85.6" cy="198.0" r="3" fill="#3fb950"/><circle cx="88.1" cy="198.0" r="3" fill="#3fb950"/><circle cx="90.6" cy="198.0" r="3" fill="#3fb950"/><circle cx="93.1" cy="198.0" r="3" fill="#3fb950"/><circle cx="95.6" cy="198.0" r="3" fill="#3fb950"/><circle cx="98.1" cy="198.0" r="3" fill="#3fb950"/><circle cx="100.5" cy="198.0" r="3" fill="#3fb950"/><circle cx="103.0" cy="198.0" r="3" fill="#3fb950"/><circle cx="105.5" cy="198.0" r="3" fill="#3fb950"/><circle cx="108.0" cy="198.0" r="3" fill="#3fb950"/><circle cx="110.5" cy="198.0" r="3" fill="#3fb950"/><circle cx="112.9" cy="198.0" r="3" fill="#3fb950"/><circle cx="115.4" cy="198.0" r="3" fill="#3fb950"/><circle cx="117.9" cy="198.0" r="3" fill="#3fb950"/><circle cx="120.4" cy="198.0" r="3" fill="#3fb950"/><circle cx="122.9" cy="198.0" r="3" fill="#3fb950"/><circle cx="125.4" cy="198.0" r="3" fill="#3fb950"/><circle cx="127.8" cy="198.0" r="3" fill="#3fb950"/><circle cx="130.3" cy="198.0" r="3" fill="#3fb950"/><circle cx="132.8" cy="198.0" r="3" fill="#3fb950"/><circle cx="135.3" cy="198.0" r="3" fill="#3fb950"/><circle cx="137.8" cy="198.0" r="3" fill="#3fb950"/><circle cx="140.3" cy="198.0" r="3" fill="#3fb950"/><circle cx="142.7" cy="191.7" r="3" fill="#3fb950"/><circle cx="145.2" cy="191.7" r="3" fill="#3fb950"/><circle cx="147.7" cy="191.7" r="3" fill="#3fb950"/><circle cx="150.2" cy="191.7" r="3" fill="#3fb950"/><circle cx="152.7" cy="191.7" r="3" fill="#3fb950"/><circle cx="155.1" cy="191.7" r="3" fill="#3fb950"/><circle cx="157.6" cy="191.7" r="3" fill="#3fb950"/><circle cx="160.1" cy="192.9" r="3" fill="#3fb950"/><circle cx="162.6" cy="192.9" r="3" fill="#3fb950"/><circle cx="165.1" cy="190.7" r="3" fill="#3fb950"/><circle cx="167.6" cy="190.7" r="3" fill="#3fb950"/><circle cx="170.0" cy="190.7" r="3" fill="#3fb950"/><circle cx="172.5" cy="190.7" r="3" fill="#3fb950"/><circle cx="175.0" cy="190.7" r="3" fill="#3fb950"/><circle cx="177.5" cy="190.5" r="3" fill="#3fb950"/><circle cx="180.0" cy="190.5" r="3" fill="#3fb950"/><circle cx="182.5" cy="190.5" r="3" fill="#3fb950"/><circle cx="184.9" cy="190.3" r="3" fill="#3fb950"/><circle cx="187.4" cy="190.3" r="3" fill="#3fb950"/><circle cx="189.9" cy="190.3" r="3" fill="#3fb950"/><circle cx="192.4" cy="190.3" r="3" fill="#3fb950"/><circle cx="194.9" cy="190.3" r="3" fill="#3fb950"/><circle cx="197.3" cy="190.3" r="3" fill="#3fb950"/><circle cx="199.8" cy="190.3" r="3" fill="#3fb950"/><circle cx="202.3" cy="190.3" r="3" fill="#3fb950"/><circle cx="204.8" cy="190.3" r="3" fill="#3fb950"/><circle cx="207.3" cy="190.3" r="3" fill="#3fb950"/><circle cx="209.8" cy="190.3" r="3" fill="#3fb950"/><circle cx="212.2" cy="190.3" r="3" fill="#3fb950"/><circle cx="214.7" cy="190.3" r="3" fill="#3fb950"/><circle cx="217.2" cy="190.3" r="3" fill="#3fb950"/><circle cx="219.7" cy="190.3" r="3" fill="#3fb950"/><circle cx="222.2" cy="190.3" r="3" fill="#3fb950"/><circle cx="224.6" cy="190.3" r="3" fill="#3fb950"/><circle cx="227.1" cy="190.3" r="3" fill="#3fb950"/><circle cx="229.6" cy="190.3" r="3" fill="#3fb950"/><circle cx="232.1" cy="190.3" r="3" fill="#3fb950"/><circle cx="234.6" cy="190.3" r="3" fill="#3fb950"/><circle cx="237.1" cy="189.3" r="3" fill="#3fb950"/><circle cx="239.5" cy="189.3" r="3" fill="#3fb950"/><circle cx="242.0" cy="189.3" r="3" fill="#3fb950"/><circle cx="244.5" cy="190.7" r="3" fill="#3fb950"/><circle cx="247.0" cy="190.7" r="3" fill="#3fb950"/><circle cx="249.5" cy="190.7" r="3" fill="#3fb950"/><circle cx="252.0" cy="190.7" r="3" fill="#3fb950"/><circle cx="254.4" cy="190.7" r="3" fill="#3fb950"/><circle cx="256.9" cy="190.7" r="3" fill="#3fb950"/><circle cx="259.4" cy="190.7" r="3" fill="#3fb950"/><circle cx="261.9" cy="190.7" r="3" fill="#3fb950"/><circle cx="264.4" cy="190.7" r="3" fill="#3fb950"/><circle cx="266.8" cy="190.9" r="3" fill="#3fb950"/><circle cx="269.3" cy="190.9" r="3" fill="#3fb950"/><circle cx="271.8" cy="190.9" r="3" fill="#3fb950"/><circle cx="274.3" cy="194.2" r="3" fill="#3fb950"/><circle cx="276.8" cy="196.8" r="3" fill="#3fb950"/><circle cx="279.3" cy="198.0" r="3" fill="#3fb950"/><circle cx="281.7" cy="198.0" r="3" fill="#3fb950"/><circle cx="284.2" cy="198.0" r="3" fill="#3fb950"/><circle cx="286.7" cy="198.0" r="3" fill="#3fb950"/><circle cx="289.2" cy="198.0" r="3" fill="#3fb950"/><circle cx="291.7" cy="198.0" r="3" fill="#3fb950"/><circle cx="294.2" cy="198.0" r="3" fill="#3fb950"/><circle cx="296.6" cy="198.0" r="3" fill="#3fb950"/><circle cx="299.1" cy="198.0" r="3" fill="#3fb950"/><circle cx="301.6" cy="198.0" r="3" fill="#3fb950"/><circle cx="304.1" cy="198.0" r="3" fill="#3fb950"/><circle cx="306.6" cy="198.0" r="3" fill="#3fb950"/><circle cx="309.0" cy="198.0" r="3" fill="#3fb950"/><circle cx="311.5" cy="198.0" r="3" fill="#3fb950"/><circle cx="314.0" cy="198.0" r="3" fill="#3fb950"/><circle cx="316.5" cy="198.0" r="3" fill="#3fb950"/><circle cx="319.0" cy="198.0" r="3" fill="#3fb950"/><circle cx="321.5" cy="198.0" r="3" fill="#3fb950"/><circle cx="323.9" cy="198.0" r="3" fill="#3fb950"/><circle cx="326.4" cy="198.0" r="3" fill="#3fb950"/><circle cx="328.9" cy="198.0" r="3" fill="#3fb950"/><circle cx="331.4" cy="198.0" r="3" fill="#3fb950"/><circle cx="333.9" cy="198.0" r="3" fill="#3fb950"/><circle cx="336.3" cy="198.0" r="3" fill="#3fb950"/><circle cx="338.8" cy="198.0" r="3" fill="#3fb950"/><circle cx="341.3" cy="198.0" r="3" fill="#3fb950"/><circle cx="343.8" cy="198.0" r="3" fill="#3fb950"/><circle cx="346.3" cy="198.0" r="3" fill="#3fb950"/><circle cx="348.8" cy="198.0" r="3" fill="#3fb950"/><circle cx="351.2" cy="198.0" r="3" fill="#3fb950"/><circle cx="353.7" cy="198.0" r="3" fill="#3fb950"/><circle cx="356.2" cy="198.0" r="3" fill="#3fb950"/><circle cx="358.7" cy="198.0" r="3" fill="#3fb950"/><circle cx="361.2" cy="198.0" r="3" fill="#3fb950"/><circle cx="363.7" cy="198.0" r="3" fill="#3fb950"/><circle cx="366.1" cy="198.0" r="3" fill="#3fb950"/><circle cx="368.6" cy="198.0" r="3" fill="#3fb950"/><circle cx="371.1" cy="198.0" r="3" fill="#3fb950"/><circle cx="373.6" cy="198.0" r="3" fill="#3fb950"/><circle cx="376.1" cy="198.0" r="3" fill="#3fb950"/><circle cx="378.5" cy="198.0" r="3" fill="#3fb950"/><circle cx="381.0" cy="198.0" r="3" fill="#3fb950"/><circle cx="383.5" cy="198.0" r="3" fill="#3fb950"/><circle cx="386.0" cy="198.0" r="3" fill="#3fb950"/><circle cx="388.5" cy="198.0" r="3" fill="#3fb950"/><circle cx="391.0" cy="198.0" r="3" fill="#3fb950"/><circle cx="393.4" cy="198.0" r="3" fill="#3fb950"/><circle cx="395.9" cy="198.0" r="3" fill="#3fb950"/><circle cx="398.4" cy="198.0" r="3" fill="#3fb950"/><circle cx="400.9" cy="198.0" r="3" fill="#3fb950"/><circle cx="403.4" cy="198.0" r="3" fill="#3fb950"/><circle cx="405.8" cy="198.0" r="3" fill="#3fb950"/><circle cx="408.3" cy="198.0" r="3" fill="#3fb950"/><circle cx="410.8" cy="198.0" r="3" fill="#3fb950"/><circle cx="413.3" cy="198.0" r="3" fill="#3fb950"/><circle cx="415.8" cy="198.0" r="3" fill="#3fb950"/><circle cx="418.3" cy="198.0" r="3" fill="#3fb950"/><circle cx="420.7" cy="198.0" r="3" fill="#3fb950"/><circle cx="423.2" cy="198.0" r="3" fill="#3fb950"/><circle cx="425.7" cy="198.0" r="3" fill="#3fb950"/><circle cx="428.2" cy="198.0" r="3" fill="#3fb950"/><circle cx="430.7" cy="198.0" r="3" fill="#3fb950"/><circle cx="433.2" cy="198.0" r="3" fill="#3fb950"/><circle cx="435.6" cy="198.0" r="3" fill="#3fb950"/><circle cx="438.1" cy="198.0" r="3" fill="#3fb950"/><circle cx="440.6" cy="198.0" r="3" fill="#3fb950"/><circle cx="443.1" cy="198.0" r="3" fill="#3fb950"/><circle cx="445.6" cy="198.0" r="3" fill="#3fb950"/><circle cx="448.0" cy="198.0" r="3" fill="#3fb950"/><circle cx="450.5" cy="198.0" r="3" fill="#3fb950"/><circle cx="453.0" cy="198.0" r="3" fill="#3fb950"/><circle cx="455.5" cy="198.0" r="3" fill="#3fb950"/><circle cx="458.0" cy="198.0" r="3" fill="#3fb950"/><circle cx="460.5" cy="198.0" r="3" fill="#3fb950"/><circle cx="462.9" cy="198.0" r="3" fill="#3fb950"/><circle cx="465.4" cy="198.0" r="3" fill="#3fb950"/><circle cx="467.9" cy="198.0" r="3" fill="#3fb950"/><circle cx="470.4" cy="198.0" r="3" fill="#3fb950"/><circle cx="472.9" cy="198.0" r="3" fill="#3fb950"/><circle cx="475.4" cy="198.0" r="3" fill="#3fb950"/><circle cx="477.8" cy="198.0" r="3" fill="#3fb950"/><circle cx="480.3" cy="198.0" r="3" fill="#3fb950"/><circle cx="482.8" cy="198.0" r="3" fill="#3fb950"/><circle cx="485.3" cy="198.0" r="3" fill="#3fb950"/><circle cx="487.8" cy="198.0" r="3" fill="#3fb950"/><circle cx="490.2" cy="198.0" r="3" fill="#3fb950"/><circle cx="492.7" cy="198.0" r="3" fill="#3fb950"/><circle cx="495.2" cy="198.0" r="3" fill="#3fb950"/><circle cx="497.7" cy="198.0" r="3" fill="#3fb950"/><circle cx="500.2" cy="198.0" r="3" fill="#3fb950"/><circle cx="502.7" cy="198.0" r="3" fill="#3fb950"/><circle cx="505.1" cy="198.0" r="3" fill="#3fb950"/><circle cx="507.6" cy="198.0" r="3" fill="#3fb950"/><circle cx="510.1" cy="198.0" r="3" fill="#3fb950"/><circle cx="512.6" cy="198.0" r="3" fill="#3fb950"/><circle cx="515.1" cy="198.0" r="3" fill="#3fb950"/><circle cx="517.5" cy="198.0" r="3" fill="#3fb950"/><circle cx="520.0" cy="198.0" r="3" fill="#3fb950"/><circle cx="522.5" cy="198.0" r="3" fill="#3fb950"/><circle cx="525.0" cy="198.0" r="3" fill="#3fb950"/><circle cx="527.5" cy="198.0" r="3" fill="#3fb950"/><circle cx="530.0" cy="198.0" r="3" fill="#3fb950"/><circle cx="532.4" cy="198.0" r="3" fill="#3fb950"/><circle cx="534.9" cy="198.0" r="3" fill="#3fb950"/><circle cx="537.4" cy="198.0" r="3" fill="#3fb950"/><circle cx="539.9" cy="198.0" r="3" fill="#3fb950"/><circle cx="542.4" cy="198.0" r="3" fill="#3fb950"/><circle cx="544.9" cy="198.0" r="3" fill="#3fb950"/><circle cx="547.3" cy="198.0" r="3" fill="#3fb950"/><circle cx="549.8" cy="198.0" r="3" fill="#3fb950"/><circle cx="552.3" cy="198.0" r="3" fill="#3fb950"/><circle cx="554.8" cy="198.0" r="3" fill="#3fb950"/><circle cx="557.3" cy="198.0" r="3" fill="#3fb950"/><circle cx="559.7" cy="198.0" r="3" fill="#3fb950"/><circle cx="562.2" cy="198.0" r="3" fill="#3fb950"/><circle cx="564.7" cy="198.0" r="3" fill="#3fb950"/><circle cx="567.2" cy="198.0" r="3" fill="#3fb950"/><circle cx="569.7" cy="198.0" r="3" fill="#3fb950"/><circle cx="572.2" cy="198.0" r="3" fill="#3fb950"/><circle cx="574.6" cy="198.0" r="3" fill="#3fb950"/><circle cx="577.1" cy="198.0" r="3" fill="#3fb950"/><circle cx="579.6" cy="198.0" r="3" fill="#3fb950"/><circle cx="582.1" cy="198.0" r="3" fill="#3fb950"/><circle cx="584.6" cy="198.0" r="3" fill="#3fb950"/><circle cx="587.1" cy="198.0" r="3" fill="#3fb950"/><circle cx="589.5" cy="198.0" r="3" fill="#3fb950"/><circle cx="592.0" cy="198.0" r="3" fill="#3fb950"/><circle cx="594.5" cy="198.0" r="3" fill="#3fb950"/><circle cx="597.0" cy="198.0" r="3" fill="#3fb950"/><circle cx="599.5" cy="198.0" r="3" fill="#3fb950"/><circle cx="601.9" cy="198.0" r="3" fill="#3fb950"/><circle cx="604.4" cy="198.0" r="3" fill="#3fb950"/><circle cx="606.9" cy="198.0" r="3" fill="#3fb950"/><circle cx="609.4" cy="198.0" r="3" fill="#3fb950"/><circle cx="611.9" cy="198.0" r="3" fill="#3fb950"/><circle cx="614.4" cy="198.0" r="3" fill="#3fb950"/><circle cx="616.8" cy="198.0" r="3" fill="#3fb950"/><circle cx="619.3" cy="198.0" r="3" fill="#3fb950"/><circle cx="621.8" cy="198.0" r="3" fill="#3fb950"/><circle cx="624.3" cy="198.0" r="3" fill="#3fb950"/><circle cx="626.8" cy="198.0" r="3" fill="#3fb950"/><circle cx="629.2" cy="198.0" r="3" fill="#3fb950"/><circle cx="631.7" cy="198.0" r="3" fill="#3fb950"/><circle cx="634.2" cy="198.0" r="3" fill="#3fb950"/><circle cx="636.7" cy="198.0" r="3" fill="#3fb950"/><circle cx="639.2" cy="198.0" r="3" fill="#3fb950"/><circle cx="641.7" cy="198.0" r="3" fill="#3fb950"/><circle cx="644.1" cy="198.0" r="3" fill="#3fb950"/><circle cx="646.6" cy="198.0" r="3" fill="#3fb950"/><circle cx="649.1" cy="198.0" r="3" fill="#3fb950"/><circle cx="651.6" cy="198.0" r="3" fill="#3fb950"/><circle cx="654.1" cy="198.0" r="3" fill="#3fb950"/><circle cx="656.6" cy="198.0" r="3" fill="#3fb950"/><circle cx="659.0" cy="198.0" r="3" fill="#3fb950"/><circle cx="661.5" cy="198.0" r="3" fill="#3fb950"/><circle cx="664.0" cy="198.0" r="3" fill="#3fb950"/>
<polyline fill="none" stroke="#4aa3ff" stroke-width="2.5" stroke-linejoin="round" points="36.0,144.3 38.5,144.3 41.0,144.3 43.4,144.3 45.9,144.3 48.4,144.3 50.9,144.3 53.4,144.3 55.9,144.3 58.3,144.3 60.8,144.3 63.3,144.3 65.8,144.3 68.3,144.3 70.8,144.3 73.2,136.2 75.7,132.4 78.2,129.6 80.7,129.6 83.2,121.0 85.6,121.0 88.1,121.0 90.6,114.4 93.1,114.4 95.6,114.4 98.1,111.3 100.5,110.9 103.0,110.9 105.5,110.5 108.0,110.5 110.5,109.9 112.9,108.7 115.4,107.3 117.9,106.9 120.4,106.9 122.9,106.9 125.4,106.9 127.8,106.9 130.3,106.9 132.8,106.9 135.3,106.9 137.8,106.9 140.3,106.9 142.7,113.2 145.2,113.2 147.7,113.2 150.2,113.2 152.7,113.2 155.1,110.7 157.6,105.3 160.1,83.4 162.6,83.4 165.1,85.6 167.6,85.6 170.0,85.6 172.5,85.6 175.0,85.6 177.5,85.8 180.0,85.8 182.5,85.8 184.9,86.0 187.4,86.0 189.9,86.0 192.4,86.0 194.9,86.0 197.3,86.0 199.8,86.0 202.3,86.0 204.8,86.0 207.3,86.0 209.8,86.0 212.2,86.0 214.7,86.0 217.2,86.0 219.7,86.0 222.2,86.0 224.6,86.0 227.1,86.0 229.6,86.0 232.1,86.0 234.6,86.0 237.1,87.0 239.5,87.0 242.0,87.0 244.5,73.7 247.0,73.7 249.5,71.0 252.0,71.0 254.4,70.8 256.9,70.6 259.4,70.6 261.9,70.4 264.4,68.6 266.8,60.5 269.3,59.3 271.8,52.0 274.3,47.3 276.8,40.1 279.3,36.0 281.7,36.0 284.2,36.0 286.7,36.0 289.2,36.0 291.7,36.0 294.2,36.0 296.6,36.0 299.1,36.0 301.6,36.0 304.1,36.0 306.6,36.0 309.0,36.0 311.5,36.0 314.0,36.0 316.5,36.0 319.0,36.0 321.5,36.0 323.9,36.0 326.4,36.0 328.9,36.0 331.4,36.0 333.9,36.0 336.3,36.0 338.8,36.0 341.3,36.0 343.8,36.0 346.3,36.0 348.8,36.0 351.2,36.0 353.7,36.0 356.2,36.0 358.7,36.0 361.2,36.0 363.7,36.0 366.1,36.0 368.6,36.0 371.1,36.0 373.6,36.0 376.1,36.0 378.5,36.0 381.0,36.0 383.5,36.0 386.0,36.0 388.5,36.0 391.0,36.0 393.4,36.0 395.9,36.0 398.4,36.0 400.9,36.0 403.4,36.0 405.8,36.0 408.3,36.0 410.8,36.0 413.3,36.0 415.8,36.0 418.3,36.0 420.7,36.0 423.2,36.0 425.7,36.0 428.2,36.0 430.7,36.0 433.2,36.0 435.6,36.0 438.1,36.0 440.6,36.0 443.1,36.0 445.6,36.0 448.0,36.0 450.5,36.0 453.0,36.0 455.5,36.0 458.0,36.0 460.5,36.0 462.9,36.0 465.4,36.0 467.9,36.0 470.4,36.0 472.9,36.0 475.4,36.0 477.8,36.0 480.3,36.0 482.8,36.0 485.3,36.0 487.8,36.0 490.2,36.0 492.7,36.0 495.2,36.0 497.7,36.0 500.2,36.0 502.7,36.0 505.1,36.0 507.6,36.0 510.1,36.0 512.6,36.0 515.1,36.0 517.5,36.0 520.0,36.0 522.5,36.0 525.0,36.0 527.5,36.0 530.0,36.0 532.4,36.0 534.9,36.0 537.4,36.0 539.9,36.0 542.4,36.0 544.9,36.0 547.3,36.0 549.8,36.0 552.3,36.0 554.8,36.0 557.3,36.0 559.7,36.0 562.2,36.0 564.7,36.0 567.2,36.0 569.7,36.0 572.2,36.0 574.6,36.0 577.1,36.0 579.6,36.0 582.1,36.0 584.6,36.0 587.1,36.0 589.5,36.0 592.0,36.0 594.5,36.0 597.0,36.0 599.5,36.0 601.9,36.0 604.4,36.0 606.9,36.0 609.4,36.0 611.9,36.0 614.4,36.0 616.8,36.0 619.3,36.0 621.8,36.0 624.3,36.0 626.8,36.0 629.2,36.0 631.7,36.0 634.2,36.0 636.7,36.0 639.2,36.0 641.7,36.0 644.1,36.0 646.6,36.0 649.1,36.0 651.6,36.0 654.1,36.0 656.6,36.0 659.0,36.0 661.5,36.0 664.0,36.0"/><circle cx="36.0" cy="144.3" r="3" fill="#4aa3ff"/><circle cx="38.5" cy="144.3" r="3" fill="#4aa3ff"/><circle cx="41.0" cy="144.3" r="3" fill="#4aa3ff"/><circle cx="43.4" cy="144.3" r="3" fill="#4aa3ff"/><circle cx="45.9" cy="144.3" r="3" fill="#4aa3ff"/><circle cx="48.4" cy="144.3" r="3" fill="#4aa3ff"/><circle cx="50.9" cy="144.3" r="3" fill="#4aa3ff"/><circle cx="53.4" cy="144.3" r="3" fill="#4aa3ff"/><circle cx="55.9" cy="144.3" r="3" fill="#4aa3ff"/><circle cx="58.3" cy="144.3" r="3" fill="#4aa3ff"/><circle cx="60.8" cy="144.3" r="3" fill="#4aa3ff"/><circle cx="63.3" cy="144.3" r="3" fill="#4aa3ff"/><circle cx="65.8" cy="144.3" r="3" fill="#4aa3ff"/><circle cx="68.3" cy="144.3" r="3" fill="#4aa3ff"/><circle cx="70.8" cy="144.3" r="3" fill="#4aa3ff"/><circle cx="73.2" cy="136.2" r="3" fill="#4aa3ff"/><circle cx="75.7" cy="132.4" r="3" fill="#4aa3ff"/><circle cx="78.2" cy="129.6" r="3" fill="#4aa3ff"/><circle cx="80.7" cy="129.6" r="3" fill="#4aa3ff"/><circle cx="83.2" cy="121.0" r="3" fill="#4aa3ff"/><circle cx="85.6" cy="121.0" r="3" fill="#4aa3ff"/><circle cx="88.1" cy="121.0" r="3" fill="#4aa3ff"/><circle cx="90.6" cy="114.4" r="3" fill="#4aa3ff"/><circle cx="93.1" cy="114.4" r="3" fill="#4aa3ff"/><circle cx="95.6" cy="114.4" r="3" fill="#4aa3ff"/><circle cx="98.1" cy="111.3" r="3" fill="#4aa3ff"/><circle cx="100.5" cy="110.9" r="3" fill="#4aa3ff"/><circle cx="103.0" cy="110.9" r="3" fill="#4aa3ff"/><circle cx="105.5" cy="110.5" r="3" fill="#4aa3ff"/><circle cx="108.0" cy="110.5" r="3" fill="#4aa3ff"/><circle cx="110.5" cy="109.9" r="3" fill="#4aa3ff"/><circle cx="112.9" cy="108.7" r="3" fill="#4aa3ff"/><circle cx="115.4" cy="107.3" r="3" fill="#4aa3ff"/><circle cx="117.9" cy="106.9" r="3" fill="#4aa3ff"/><circle cx="120.4" cy="106.9" r="3" fill="#4aa3ff"/><circle cx="122.9" cy="106.9" r="3" fill="#4aa3ff"/><circle cx="125.4" cy="106.9" r="3" fill="#4aa3ff"/><circle cx="127.8" cy="106.9" r="3" fill="#4aa3ff"/><circle cx="130.3" cy="106.9" r="3" fill="#4aa3ff"/><circle cx="132.8" cy="106.9" r="3" fill="#4aa3ff"/><circle cx="135.3" cy="106.9" r="3" fill="#4aa3ff"/><circle cx="137.8" cy="106.9" r="3" fill="#4aa3ff"/><circle cx="140.3" cy="106.9" r="3" fill="#4aa3ff"/><circle cx="142.7" cy="113.2" r="3" fill="#4aa3ff"/><circle cx="145.2" cy="113.2" r="3" fill="#4aa3ff"/><circle cx="147.7" cy="113.2" r="3" fill="#4aa3ff"/><circle cx="150.2" cy="113.2" r="3" fill="#4aa3ff"/><circle cx="152.7" cy="113.2" r="3" fill="#4aa3ff"/><circle cx="155.1" cy="110.7" r="3" fill="#4aa3ff"/><circle cx="157.6" cy="105.3" r="3" fill="#4aa3ff"/><circle cx="160.1" cy="83.4" r="3" fill="#4aa3ff"/><circle cx="162.6" cy="83.4" r="3" fill="#4aa3ff"/><circle cx="165.1" cy="85.6" r="3" fill="#4aa3ff"/><circle cx="167.6" cy="85.6" r="3" fill="#4aa3ff"/><circle cx="170.0" cy="85.6" r="3" fill="#4aa3ff"/><circle cx="172.5" cy="85.6" r="3" fill="#4aa3ff"/><circle cx="175.0" cy="85.6" r="3" fill="#4aa3ff"/><circle cx="177.5" cy="85.8" r="3" fill="#4aa3ff"/><circle cx="180.0" cy="85.8" r="3" fill="#4aa3ff"/><circle cx="182.5" cy="85.8" r="3" fill="#4aa3ff"/><circle cx="184.9" cy="86.0" r="3" fill="#4aa3ff"/><circle cx="187.4" cy="86.0" r="3" fill="#4aa3ff"/><circle cx="189.9" cy="86.0" r="3" fill="#4aa3ff"/><circle cx="192.4" cy="86.0" r="3" fill="#4aa3ff"/><circle cx="194.9" cy="86.0" r="3" fill="#4aa3ff"/><circle cx="197.3" cy="86.0" r="3" fill="#4aa3ff"/><circle cx="199.8" cy="86.0" r="3" fill="#4aa3ff"/><circle cx="202.3" cy="86.0" r="3" fill="#4aa3ff"/><circle cx="204.8" cy="86.0" r="3" fill="#4aa3ff"/><circle cx="207.3" cy="86.0" r="3" fill="#4aa3ff"/><circle cx="209.8" cy="86.0" r="3" fill="#4aa3ff"/><circle cx="212.2" cy="86.0" r="3" fill="#4aa3ff"/><circle cx="214.7" cy="86.0" r="3" fill="#4aa3ff"/><circle cx="217.2" cy="86.0" r="3" fill="#4aa3ff"/><circle cx="219.7" cy="86.0" r="3" fill="#4aa3ff"/><circle cx="222.2" cy="86.0" r="3" fill="#4aa3ff"/><circle cx="224.6" cy="86.0" r="3" fill="#4aa3ff"/><circle cx="227.1" cy="86.0" r="3" fill="#4aa3ff"/><circle cx="229.6" cy="86.0" r="3" fill="#4aa3ff"/><circle cx="232.1" cy="86.0" r="3" fill="#4aa3ff"/><circle cx="234.6" cy="86.0" r="3" fill="#4aa3ff"/><circle cx="237.1" cy="87.0" r="3" fill="#4aa3ff"/><circle cx="239.5" cy="87.0" r="3" fill="#4aa3ff"/><circle cx="242.0" cy="87.0" r="3" fill="#4aa3ff"/><circle cx="244.5" cy="73.7" r="3" fill="#4aa3ff"/><circle cx="247.0" cy="73.7" r="3" fill="#4aa3ff"/><circle cx="249.5" cy="71.0" r="3" fill="#4aa3ff"/><circle cx="252.0" cy="71.0" r="3" fill="#4aa3ff"/><circle cx="254.4" cy="70.8" r="3" fill="#4aa3ff"/><circle cx="256.9" cy="70.6" r="3" fill="#4aa3ff"/><circle cx="259.4" cy="70.6" r="3" fill="#4aa3ff"/><circle cx="261.9" cy="70.4" r="3" fill="#4aa3ff"/><circle cx="264.4" cy="68.6" r="3" fill="#4aa3ff"/><circle cx="266.8" cy="60.5" r="3" fill="#4aa3ff"/><circle cx="269.3" cy="59.3" r="3" fill="#4aa3ff"/><circle cx="271.8" cy="52.0" r="3" fill="#4aa3ff"/><circle cx="274.3" cy="47.3" r="3" fill="#4aa3ff"/><circle cx="276.8" cy="40.1" r="3" fill="#4aa3ff"/><circle cx="279.3" cy="36.0" r="3" fill="#4aa3ff"/><circle cx="281.7" cy="36.0" r="3" fill="#4aa3ff"/><circle cx="284.2" cy="36.0" r="3" fill="#4aa3ff"/><circle cx="286.7" cy="36.0" r="3" fill="#4aa3ff"/><circle cx="289.2" cy="36.0" r="3" fill="#4aa3ff"/><circle cx="291.7" cy="36.0" r="3" fill="#4aa3ff"/><circle cx="294.2" cy="36.0" r="3" fill="#4aa3ff"/><circle cx="296.6" cy="36.0" r="3" fill="#4aa3ff"/><circle cx="299.1" cy="36.0" r="3" fill="#4aa3ff"/><circle cx="301.6" cy="36.0" r="3" fill="#4aa3ff"/><circle cx="304.1" cy="36.0" r="3" fill="#4aa3ff"/><circle cx="306.6" cy="36.0" r="3" fill="#4aa3ff"/><circle cx="309.0" cy="36.0" r="3" fill="#4aa3ff"/><circle cx="311.5" cy="36.0" r="3" fill="#4aa3ff"/><circle cx="314.0" cy="36.0" r="3" fill="#4aa3ff"/><circle cx="316.5" cy="36.0" r="3" fill="#4aa3ff"/><circle cx="319.0" cy="36.0" r="3" fill="#4aa3ff"/><circle cx="321.5" cy="36.0" r="3" fill="#4aa3ff"/><circle cx="323.9" cy="36.0" r="3" fill="#4aa3ff"/><circle cx="326.4" cy="36.0" r="3" fill="#4aa3ff"/><circle cx="328.9" cy="36.0" r="3" fill="#4aa3ff"/><circle cx="331.4" cy="36.0" r="3" fill="#4aa3ff"/><circle cx="333.9" cy="36.0" r="3" fill="#4aa3ff"/><circle cx="336.3" cy="36.0" r="3" fill="#4aa3ff"/><circle cx="338.8" cy="36.0" r="3" fill="#4aa3ff"/><circle cx="341.3" cy="36.0" r="3" fill="#4aa3ff"/><circle cx="343.8" cy="36.0" r="3" fill="#4aa3ff"/><circle cx="346.3" cy="36.0" r="3" fill="#4aa3ff"/><circle cx="348.8" cy="36.0" r="3" fill="#4aa3ff"/><circle cx="351.2" cy="36.0" r="3" fill="#4aa3ff"/><circle cx="353.7" cy="36.0" r="3" fill="#4aa3ff"/><circle cx="356.2" cy="36.0" r="3" fill="#4aa3ff"/><circle cx="358.7" cy="36.0" r="3" fill="#4aa3ff"/><circle cx="361.2" cy="36.0" r="3" fill="#4aa3ff"/><circle cx="363.7" cy="36.0" r="3" fill="#4aa3ff"/><circle cx="366.1" cy="36.0" r="3" fill="#4aa3ff"/><circle cx="368.6" cy="36.0" r="3" fill="#4aa3ff"/><circle cx="371.1" cy="36.0" r="3" fill="#4aa3ff"/><circle cx="373.6" cy="36.0" r="3" fill="#4aa3ff"/><circle cx="376.1" cy="36.0" r="3" fill="#4aa3ff"/><circle cx="378.5" cy="36.0" r="3" fill="#4aa3ff"/><circle cx="381.0" cy="36.0" r="3" fill="#4aa3ff"/><circle cx="383.5" cy="36.0" r="3" fill="#4aa3ff"/><circle cx="386.0" cy="36.0" r="3" fill="#4aa3ff"/><circle cx="388.5" cy="36.0" r="3" fill="#4aa3ff"/><circle cx="391.0" cy="36.0" r="3" fill="#4aa3ff"/><circle cx="393.4" cy="36.0" r="3" fill="#4aa3ff"/><circle cx="395.9" cy="36.0" r="3" fill="#4aa3ff"/><circle cx="398.4" cy="36.0" r="3" fill="#4aa3ff"/><circle cx="400.9" cy="36.0" r="3" fill="#4aa3ff"/><circle cx="403.4" cy="36.0" r="3" fill="#4aa3ff"/><circle cx="405.8" cy="36.0" r="3" fill="#4aa3ff"/><circle cx="408.3" cy="36.0" r="3" fill="#4aa3ff"/><circle cx="410.8" cy="36.0" r="3" fill="#4aa3ff"/><circle cx="413.3" cy="36.0" r="3" fill="#4aa3ff"/><circle cx="415.8" cy="36.0" r="3" fill="#4aa3ff"/><circle cx="418.3" cy="36.0" r="3" fill="#4aa3ff"/><circle cx="420.7" cy="36.0" r="3" fill="#4aa3ff"/><circle cx="423.2" cy="36.0" r="3" fill="#4aa3ff"/><circle cx="425.7" cy="36.0" r="3" fill="#4aa3ff"/><circle cx="428.2" cy="36.0" r="3" fill="#4aa3ff"/><circle cx="430.7" cy="36.0" r="3" fill="#4aa3ff"/><circle cx="433.2" cy="36.0" r="3" fill="#4aa3ff"/><circle cx="435.6" cy="36.0" r="3" fill="#4aa3ff"/><circle cx="438.1" cy="36.0" r="3" fill="#4aa3ff"/><circle cx="440.6" cy="36.0" r="3" fill="#4aa3ff"/><circle cx="443.1" cy="36.0" r="3" fill="#4aa3ff"/><circle cx="445.6" cy="36.0" r="3" fill="#4aa3ff"/><circle cx="448.0" cy="36.0" r="3" fill="#4aa3ff"/><circle cx="450.5" cy="36.0" r="3" fill="#4aa3ff"/><circle cx="453.0" cy="36.0" r="3" fill="#4aa3ff"/><circle cx="455.5" cy="36.0" r="3" fill="#4aa3ff"/><circle cx="458.0" cy="36.0" r="3" fill="#4aa3ff"/><circle cx="460.5" cy="36.0" r="3" fill="#4aa3ff"/><circle cx="462.9" cy="36.0" r="3" fill="#4aa3ff"/><circle cx="465.4" cy="36.0" r="3" fill="#4aa3ff"/><circle cx="467.9" cy="36.0" r="3" fill="#4aa3ff"/><circle cx="470.4" cy="36.0" r="3" fill="#4aa3ff"/><circle cx="472.9" cy="36.0" r="3" fill="#4aa3ff"/><circle cx="475.4" cy="36.0" r="3" fill="#4aa3ff"/><circle cx="477.8" cy="36.0" r="3" fill="#4aa3ff"/><circle cx="480.3" cy="36.0" r="3" fill="#4aa3ff"/><circle cx="482.8" cy="36.0" r="3" fill="#4aa3ff"/><circle cx="485.3" cy="36.0" r="3" fill="#4aa3ff"/><circle cx="487.8" cy="36.0" r="3" fill="#4aa3ff"/><circle cx="490.2" cy="36.0" r="3" fill="#4aa3ff"/><circle cx="492.7" cy="36.0" r="3" fill="#4aa3ff"/><circle cx="495.2" cy="36.0" r="3" fill="#4aa3ff"/><circle cx="497.7" cy="36.0" r="3" fill="#4aa3ff"/><circle cx="500.2" cy="36.0" r="3" fill="#4aa3ff"/><circle cx="502.7" cy="36.0" r="3" fill="#4aa3ff"/><circle cx="505.1" cy="36.0" r="3" fill="#4aa3ff"/><circle cx="507.6" cy="36.0" r="3" fill="#4aa3ff"/><circle cx="510.1" cy="36.0" r="3" fill="#4aa3ff"/><circle cx="512.6" cy="36.0" r="3" fill="#4aa3ff"/><circle cx="515.1" cy="36.0" r="3" fill="#4aa3ff"/><circle cx="517.5" cy="36.0" r="3" fill="#4aa3ff"/><circle cx="520.0" cy="36.0" r="3" fill="#4aa3ff"/><circle cx="522.5" cy="36.0" r="3" fill="#4aa3ff"/><circle cx="525.0" cy="36.0" r="3" fill="#4aa3ff"/><circle cx="527.5" cy="36.0" r="3" fill="#4aa3ff"/><circle cx="530.0" cy="36.0" r="3" fill="#4aa3ff"/><circle cx="532.4" cy="36.0" r="3" fill="#4aa3ff"/><circle cx="534.9" cy="36.0" r="3" fill="#4aa3ff"/><circle cx="537.4" cy="36.0" r="3" fill="#4aa3ff"/><circle cx="539.9" cy="36.0" r="3" fill="#4aa3ff"/><circle cx="542.4" cy="36.0" r="3" fill="#4aa3ff"/><circle cx="544.9" cy="36.0" r="3" fill="#4aa3ff"/><circle cx="547.3" cy="36.0" r="3" fill="#4aa3ff"/><circle cx="549.8" cy="36.0" r="3" fill="#4aa3ff"/><circle cx="552.3" cy="36.0" r="3" fill="#4aa3ff"/><circle cx="554.8" cy="36.0" r="3" fill="#4aa3ff"/><circle cx="557.3" cy="36.0" r="3" fill="#4aa3ff"/><circle cx="559.7" cy="36.0" r="3" fill="#4aa3ff"/><circle cx="562.2" cy="36.0" r="3" fill="#4aa3ff"/><circle cx="564.7" cy="36.0" r="3" fill="#4aa3ff"/><circle cx="567.2" cy="36.0" r="3" fill="#4aa3ff"/><circle cx="569.7" cy="36.0" r="3" fill="#4aa3ff"/><circle cx="572.2" cy="36.0" r="3" fill="#4aa3ff"/><circle cx="574.6" cy="36.0" r="3" fill="#4aa3ff"/><circle cx="577.1" cy="36.0" r="3" fill="#4aa3ff"/><circle cx="579.6" cy="36.0" r="3" fill="#4aa3ff"/><circle cx="582.1" cy="36.0" r="3" fill="#4aa3ff"/><circle cx="584.6" cy="36.0" r="3" fill="#4aa3ff"/><circle cx="587.1" cy="36.0" r="3" fill="#4aa3ff"/><circle cx="589.5" cy="36.0" r="3" fill="#4aa3ff"/><circle cx="592.0" cy="36.0" r="3" fill="#4aa3ff"/><circle cx="594.5" cy="36.0" r="3" fill="#4aa3ff"/><circle cx="597.0" cy="36.0" r="3" fill="#4aa3ff"/><circle cx="599.5" cy="36.0" r="3" fill="#4aa3ff"/><circle cx="601.9" cy="36.0" r="3" fill="#4aa3ff"/><circle cx="604.4" cy="36.0" r="3" fill="#4aa3ff"/><circle cx="606.9" cy="36.0" r="3" fill="#4aa3ff"/><circle cx="609.4" cy="36.0" r="3" fill="#4aa3ff"/><circle cx="611.9" cy="36.0" r="3" fill="#4aa3ff"/><circle cx="614.4" cy="36.0" r="3" fill="#4aa3ff"/><circle cx="616.8" cy="36.0" r="3" fill="#4aa3ff"/><circle cx="619.3" cy="36.0" r="3" fill="#4aa3ff"/><circle cx="621.8" cy="36.0" r="3" fill="#4aa3ff"/><circle cx="624.3" cy="36.0" r="3" fill="#4aa3ff"/><circle cx="626.8" cy="36.0" r="3" fill="#4aa3ff"/><circle cx="629.2" cy="36.0" r="3" fill="#4aa3ff"/><circle cx="631.7" cy="36.0" r="3" fill="#4aa3ff"/><circle cx="634.2" cy="36.0" r="3" fill="#4aa3ff"/><circle cx="636.7" cy="36.0" r="3" fill="#4aa3ff"/><circle cx="639.2" cy="36.0" r="3" fill="#4aa3ff"/><circle cx="641.7" cy="36.0" r="3" fill="#4aa3ff"/><circle cx="644.1" cy="36.0" r="3" fill="#4aa3ff"/><circle cx="646.6" cy="36.0" r="3" fill="#4aa3ff"/><circle cx="649.1" cy="36.0" r="3" fill="#4aa3ff"/><circle cx="651.6" cy="36.0" r="3" fill="#4aa3ff"/><circle cx="654.1" cy="36.0" r="3" fill="#4aa3ff"/><circle cx="656.6" cy="36.0" r="3" fill="#4aa3ff"/><circle cx="659.0" cy="36.0" r="3" fill="#4aa3ff"/><circle cx="661.5" cy="36.0" r="3" fill="#4aa3ff"/><circle cx="664.0" cy="36.0" r="3" fill="#4aa3ff"/>
<text x="36" y="225" fill="#6b7280" font-size="11">2026-06-26</text>
<text x="664" y="225" fill="#6b7280" font-size="11" text-anchor="end">2026-07-21</text>
<text x="36" y="212" font-family="system-ui,sans-serif" font-size="11">
<tspan fill="#4aa3ff">&#9679; open FPs</tspan>  <tspan fill="#3fb950">&#9679; closed (Anthropic acting)</tspan>  <tspan fill="#8a5a5a">&#9679; harness withdrawn</tspan></text>
<text x="664" y="22" text-anchor="end" font-family="system-ui,sans-serif" font-size="12">
<tspan fill="#4aa3ff">open 800</tspan>  <tspan fill="#3fb950">closed 0</tspan>  <tspan fill="#8a5a5a">harness 0</tspan></text>
</svg>