<svg xmlns="http://www.w3.org/2000/svg" width="700" height="234" viewBox="0 0 700 234" role="img">
<rect width="700" height="234" rx="12" fill="#16181d"/>
<text x="36" y="22" fill="#e8eaed" font-family="system-ui,sans-serif" font-size="14" font-weight="700">Is Anthropic acting? cyber/aup false positives over time</text>
<line x1="36" y1="198.0" x2="664" y2="198.0" stroke="#2a2e37" stroke-width="1"/><text x="30" y="202.0" fill="#6b7280" font-size="11" text-anchor="end">0</text><line x1="36" y1="117.0" x2="664" y2="117.0" stroke="#2a2e37" stroke-width="1"/><text x="30" y="121.0" fill="#6b7280" font-size="11" text-anchor="end">400</text><line x1="36" y1="36.0" x2="664" y2="36.0" stroke="#2a2e37" stroke-width="1"/><text x="30" y="40.0" fill="#6b7280" font-size="11" text-anchor="end">800</text>

<polyline fill="none" stroke="#8a5a5a" stroke-width="2.5" stroke-linejoin="round" points="36.0,145.1 40.9,145.1 45.8,145.1 50.7,145.1 55.6,145.1 60.5,145.1 65.4,145.1 70.3,145.1 75.2,145.1 80.2,145.1 85.1,145.1 90.0,145.1 94.9,145.1 99.8,145.1 104.7,145.1 109.6,145.1 114.5,145.1 119.4,145.1 124.3,145.1 129.2,145.1 134.1,145.1 139.0,145.1 143.9,145.1 148.8,145.1 153.8,145.1 158.7,145.1 163.6,145.1 168.5,145.1 173.4,145.1 178.3,145.1 183.2,145.1 188.1,145.1 193.0,145.1 197.9,145.1 202.8,145.1 207.7,145.1 212.6,145.1 217.5,145.1 222.4,145.1 227.3,145.1 232.2,145.1 237.2,145.1 242.1,145.1 247.0,145.1 251.9,145.1 256.8,145.1 261.7,145.1 266.6,145.1 271.5,145.1 276.4,145.1 281.3,155.7 286.2,155.7 291.1,155.7 296.0,155.7 300.9,155.7 305.8,155.7 310.8,155.7 315.7,155.7 320.6,155.7 325.5,155.7 330.4,155.7 335.3,155.7 340.2,155.7 345.1,155.7 350.0,155.7 354.9,155.7 359.8,155.7 364.7,155.7 369.6,155.7 374.5,155.7 379.4,155.7 384.3,155.7 389.2,155.7 394.2,155.7 399.1,155.7 404.0,155.7 408.9,155.7 413.8,155.7 418.7,155.7 423.6,155.7 428.5,155.7 433.4,155.7 438.3,155.7 443.2,155.7 448.1,167.6 453.0,167.6 457.9,170.3 462.8,170.3 467.8,170.5 472.7,170.7 477.6,170.7 482.5,170.9 487.4,172.7 492.3,180.6 497.2,181.8 502.1,189.1 507.0,190.5 511.9,195.2 516.8,198.0 521.7,198.0 526.6,198.0 531.5,198.0 536.4,198.0 541.3,198.0 546.2,198.0 551.2,198.0 556.1,198.0 561.0,198.0 565.9,198.0 570.8,198.0 575.7,198.0 580.6,198.0 585.5,198.0 590.4,198.0 595.3,198.0 600.2,198.0 605.1,198.0 610.0,198.0 614.9,198.0 619.8,198.0 624.8,198.0 629.7,198.0 634.6,198.0 639.5,198.0 644.4,198.0 649.3,198.0 654.2,198.0 659.1,198.0 664.0,198.0"/><circle cx="36.0" cy="145.1" r="3" fill="#8a5a5a"/><circle cx="40.9" cy="145.1" r="3" fill="#8a5a5a"/><circle cx="45.8" cy="145.1" r="3" fill="#8a5a5a"/><circle cx="50.7" cy="145.1" r="3" fill="#8a5a5a"/><circle cx="55.6" cy="145.1" r="3" fill="#8a5a5a"/><circle cx="60.5" cy="145.1" r="3" fill="#8a5a5a"/><circle cx="65.4" cy="145.1" r="3" fill="#8a5a5a"/><circle cx="70.3" cy="145.1" r="3" fill="#8a5a5a"/><circle cx="75.2" cy="145.1" r="3" fill="#8a5a5a"/><circle cx="80.2" cy="145.1" r="3" fill="#8a5a5a"/><circle cx="85.1" cy="145.1" r="3" fill="#8a5a5a"/><circle cx="90.0" cy="145.1" r="3" fill="#8a5a5a"/><circle cx="94.9" cy="145.1" r="3" fill="#8a5a5a"/><circle cx="99.8" cy="145.1" r="3" fill="#8a5a5a"/><circle cx="104.7" cy="145.1" r="3" fill="#8a5a5a"/><circle cx="109.6" cy="145.1" r="3" fill="#8a5a5a"/><circle cx="114.5" cy="145.1" r="3" fill="#8a5a5a"/><circle cx="119.4" cy="145.1" r="3" fill="#8a5a5a"/><circle cx="124.3" cy="145.1" r="3" fill="#8a5a5a"/><circle cx="129.2" cy="145.1" r="3" fill="#8a5a5a"/><circle cx="134.1" cy="145.1" r="3" fill="#8a5a5a"/><circle cx="139.0" cy="145.1" r="3" fill="#8a5a5a"/><circle cx="143.9" cy="145.1" r="3" fill="#8a5a5a"/><circle cx="148.8" cy="145.1" r="3" fill="#8a5a5a"/><circle cx="153.8" cy="145.1" r="3" fill="#8a5a5a"/><circle cx="158.7" cy="145.1" r="3" fill="#8a5a5a"/><circle cx="163.6" cy="145.1" r="3" fill="#8a5a5a"/><circle cx="168.5" cy="145.1" r="3" fill="#8a5a5a"/><circle cx="173.4" cy="145.1" r="3" fill="#8a5a5a"/><circle cx="178.3" cy="145.1" r="3" fill="#8a5a5a"/><circle cx="183.2" cy="145.1" r="3" fill="#8a5a5a"/><circle cx="188.1" cy="145.1" r="3" fill="#8a5a5a"/><circle cx="193.0" cy="145.1" r="3" fill="#8a5a5a"/><circle cx="197.9" cy="145.1" r="3" fill="#8a5a5a"/><circle cx="202.8" cy="145.1" r="3" fill="#8a5a5a"/><circle cx="207.7" cy="145.1" r="3" fill="#8a5a5a"/><circle cx="212.6" cy="145.1" r="3" fill="#8a5a5a"/><circle cx="217.5" cy="145.1" r="3" fill="#8a5a5a"/><circle cx="222.4" cy="145.1" r="3" fill="#8a5a5a"/><circle cx="227.3" cy="145.1" r="3" fill="#8a5a5a"/><circle cx="232.2" cy="145.1" r="3" fill="#8a5a5a"/><circle cx="237.2" cy="145.1" r="3" fill="#8a5a5a"/><circle cx="242.1" cy="145.1" r="3" fill="#8a5a5a"/><circle cx="247.0" cy="145.1" r="3" fill="#8a5a5a"/><circle cx="251.9" cy="145.1" r="3" fill="#8a5a5a"/><circle cx="256.8" cy="145.1" r="3" fill="#8a5a5a"/><circle cx="261.7" cy="145.1" r="3" fill="#8a5a5a"/><circle cx="266.6" cy="145.1" r="3" fill="#8a5a5a"/><circle cx="271.5" cy="145.1" r="3" fill="#8a5a5a"/><circle cx="276.4" cy="145.1" r="3" fill="#8a5a5a"/><circle cx="281.3" cy="155.7" r="3" fill="#8a5a5a"/><circle cx="286.2" cy="155.7" r="3" fill="#8a5a5a"/><circle cx="291.1" cy="155.7" r="3" fill="#8a5a5a"/><circle cx="296.0" cy="155.7" r="3" fill="#8a5a5a"/><circle cx="300.9" cy="155.7" r="3" fill="#8a5a5a"/><circle cx="305.8" cy="155.7" r="3" fill="#8a5a5a"/><circle cx="310.8" cy="155.7" r="3" fill="#8a5a5a"/><circle cx="315.7" cy="155.7" r="3" fill="#8a5a5a"/><circle cx="320.6" cy="155.7" r="3" fill="#8a5a5a"/><circle cx="325.5" cy="155.7" r="3" fill="#8a5a5a"/><circle cx="330.4" cy="155.7" r="3" fill="#8a5a5a"/><circle cx="335.3" cy="155.7" r="3" fill="#8a5a5a"/><circle cx="340.2" cy="155.7" r="3" fill="#8a5a5a"/><circle cx="345.1" cy="155.7" r="3" fill="#8a5a5a"/><circle cx="350.0" cy="155.7" r="3" fill="#8a5a5a"/><circle cx="354.9" cy="155.7" r="3" fill="#8a5a5a"/><circle cx="359.8" cy="155.7" r="3" fill="#8a5a5a"/><circle cx="364.7" cy="155.7" r="3" fill="#8a5a5a"/><circle cx="369.6" cy="155.7" r="3" fill="#8a5a5a"/><circle cx="374.5" cy="155.7" r="3" fill="#8a5a5a"/><circle cx="379.4" cy="155.7" r="3" fill="#8a5a5a"/><circle cx="384.3" cy="155.7" r="3" fill="#8a5a5a"/><circle cx="389.2" cy="155.7" r="3" fill="#8a5a5a"/><circle cx="394.2" cy="155.7" r="3" fill="#8a5a5a"/><circle cx="399.1" cy="155.7" r="3" fill="#8a5a5a"/><circle cx="404.0" cy="155.7" r="3" fill="#8a5a5a"/><circle cx="408.9" cy="155.7" r="3" fill="#8a5a5a"/><circle cx="413.8" cy="155.7" r="3" fill="#8a5a5a"/><circle cx="418.7" cy="155.7" r="3" fill="#8a5a5a"/><circle cx="423.6" cy="155.7" r="3" fill="#8a5a5a"/><circle cx="428.5" cy="155.7" r="3" fill="#8a5a5a"/><circle cx="433.4" cy="155.7" r="3" fill="#8a5a5a"/><circle cx="438.3" cy="155.7" r="3" fill="#8a5a5a"/><circle cx="443.2" cy="155.7" r="3" fill="#8a5a5a"/><circle cx="448.1" cy="167.6" r="3" fill="#8a5a5a"/><circle cx="453.0" cy="167.6" r="3" fill="#8a5a5a"/><circle cx="457.9" cy="170.3" r="3" fill="#8a5a5a"/><circle cx="462.8" cy="170.3" r="3" fill="#8a5a5a"/><circle cx="467.8" cy="170.5" r="3" fill="#8a5a5a"/><circle cx="472.7" cy="170.7" r="3" fill="#8a5a5a"/><circle cx="477.6" cy="170.7" r="3" fill="#8a5a5a"/><circle cx="482.5" cy="170.9" r="3" fill="#8a5a5a"/><circle cx="487.4" cy="172.7" r="3" fill="#8a5a5a"/><circle cx="492.3" cy="180.6" r="3" fill="#8a5a5a"/><circle cx="497.2" cy="181.8" r="3" fill="#8a5a5a"/><circle cx="502.1" cy="189.1" r="3" fill="#8a5a5a"/><circle cx="507.0" cy="190.5" r="3" fill="#8a5a5a"/><circle cx="511.9" cy="195.2" r="3" fill="#8a5a5a"/><circle cx="516.8" cy="198.0" r="3" fill="#8a5a5a"/><circle cx="521.7" cy="198.0" r="3" fill="#8a5a5a"/><circle cx="526.6" cy="198.0" r="3" fill="#8a5a5a"/><circle cx="531.5" cy="198.0" r="3" fill="#8a5a5a"/><circle cx="536.4" cy="198.0" r="3" fill="#8a5a5a"/><circle cx="541.3" cy="198.0" r="3" fill="#8a5a5a"/><circle cx="546.2" cy="198.0" r="3" fill="#8a5a5a"/><circle cx="551.2" cy="198.0" r="3" fill="#8a5a5a"/><circle cx="556.1" cy="198.0" r="3" fill="#8a5a5a"/><circle cx="561.0" cy="198.0" r="3" fill="#8a5a5a"/><circle cx="565.9" cy="198.0" r="3" fill="#8a5a5a"/><circle cx="570.8" cy="198.0" r="3" fill="#8a5a5a"/><circle cx="575.7" cy="198.0" r="3" fill="#8a5a5a"/><circle cx="580.6" cy="198.0" r="3" fill="#8a5a5a"/><circle cx="585.5" cy="198.0" r="3" fill="#8a5a5a"/><circle cx="590.4" cy="198.0" r="3" fill="#8a5a5a"/><circle cx="595.3" cy="198.0" r="3" fill="#8a5a5a"/><circle cx="600.2" cy="198.0" r="3" fill="#8a5a5a"/><circle cx="605.1" cy="198.0" r="3" fill="#8a5a5a"/><circle cx="610.0" cy="198.0" r="3" fill="#8a5a5a"/><circle cx="614.9" cy="198.0" r="3" fill="#8a5a5a"/><circle cx="619.8" cy="198.0" r="3" fill="#8a5a5a"/><circle cx="624.8" cy="198.0" r="3" fill="#8a5a5a"/><circle cx="629.7" cy="198.0" r="3" fill="#8a5a5a"/><circle cx="634.6" cy="198.0" r="3" fill="#8a5a5a"/><circle cx="639.5" cy="198.0" r="3" fill="#8a5a5a"/><circle cx="644.4" cy="198.0" r="3" fill="#8a5a5a"/><circle cx="649.3" cy="198.0" r="3" fill="#8a5a5a"/><circle cx="654.2" cy="198.0" r="3" fill="#8a5a5a"/><circle cx="659.1" cy="198.0" r="3" fill="#8a5a5a"/><circle cx="664.0" cy="198.0" r="3" fill="#8a5a5a"/>
<polyline fill="none" stroke="#3fb950" stroke-width="2.5" stroke-linejoin="round" points="36.0,198.0 40.9,198.0 45.8,198.0 50.7,198.0 55.6,198.0 60.5,198.0 65.4,198.0 70.3,198.0 75.2,198.0 80.2,198.0 85.1,198.0 90.0,198.0 94.9,198.0 99.8,198.0 104.7,198.0 109.6,198.0 114.5,198.0 119.4,198.0 124.3,198.0 129.2,198.0 134.1,198.0 139.0,198.0 143.9,198.0 148.8,198.0 153.8,198.0 158.7,198.0 163.6,198.0 168.5,198.0 173.4,198.0 178.3,198.0 183.2,198.0 188.1,198.0 193.0,198.0 197.9,198.0 202.8,198.0 207.7,198.0 212.6,198.0 217.5,198.0 222.4,198.0 227.3,198.0 232.2,198.0 237.2,198.0 242.1,198.0 247.0,191.7 251.9,191.7 256.8,191.7 261.7,191.7 266.6,191.7 271.5,191.7 276.4,191.7 281.3,192.9 286.2,192.9 291.1,190.7 296.0,190.7 300.9,190.7 305.8,190.7 310.8,190.7 315.7,190.5 320.6,190.5 325.5,190.5 330.4,190.3 335.3,190.3 340.2,190.3 345.1,190.3 350.0,190.3 354.9,190.3 359.8,190.3 364.7,190.3 369.6,190.3 374.5,190.3 379.4,190.3 384.3,190.3 389.2,190.3 394.2,190.3 399.1,190.3 404.0,190.3 408.9,190.3 413.8,190.3 418.7,190.3 423.6,190.3 428.5,190.3 433.4,189.3 438.3,189.3 443.2,189.3 448.1,190.7 453.0,190.7 457.9,190.7 462.8,190.7 467.8,190.7 472.7,190.7 477.6,190.7 482.5,190.7 487.4,190.7 492.3,190.9 497.2,190.9 502.1,190.9 507.0,194.2 511.9,196.8 516.8,198.0 521.7,198.0 526.6,198.0 531.5,198.0 536.4,198.0 541.3,198.0 546.2,198.0 551.2,198.0 556.1,198.0 561.0,198.0 565.9,198.0 570.8,198.0 575.7,198.0 580.6,198.0 585.5,198.0 590.4,198.0 595.3,198.0 600.2,198.0 605.1,198.0 610.0,198.0 614.9,198.0 619.8,198.0 624.8,198.0 629.7,198.0 634.6,198.0 639.5,198.0 644.4,198.0 649.3,198.0 654.2,198.0 659.1,198.0 664.0,198.0"/><circle cx="36.0" cy="198.0" r="3" fill="#3fb950"/><circle cx="40.9" cy="198.0" r="3" fill="#3fb950"/><circle cx="45.8" cy="198.0" r="3" fill="#3fb950"/><circle cx="50.7" cy="198.0" r="3" fill="#3fb950"/><circle cx="55.6" cy="198.0" r="3" fill="#3fb950"/><circle cx="60.5" cy="198.0" r="3" fill="#3fb950"/><circle cx="65.4" cy="198.0" r="3" fill="#3fb950"/><circle cx="70.3" cy="198.0" r="3" fill="#3fb950"/><circle cx="75.2" cy="198.0" r="3" fill="#3fb950"/><circle cx="80.2" cy="198.0" r="3" fill="#3fb950"/><circle cx="85.1" cy="198.0" r="3" fill="#3fb950"/><circle cx="90.0" cy="198.0" r="3" fill="#3fb950"/><circle cx="94.9" cy="198.0" r="3" fill="#3fb950"/><circle cx="99.8" cy="198.0" r="3" fill="#3fb950"/><circle cx="104.7" cy="198.0" r="3" fill="#3fb950"/><circle cx="109.6" cy="198.0" r="3" fill="#3fb950"/><circle cx="114.5" cy="198.0" r="3" fill="#3fb950"/><circle cx="119.4" cy="198.0" r="3" fill="#3fb950"/><circle cx="124.3" cy="198.0" r="3" fill="#3fb950"/><circle cx="129.2" cy="198.0" r="3" fill="#3fb950"/><circle cx="134.1" cy="198.0" r="3" fill="#3fb950"/><circle cx="139.0" cy="198.0" r="3" fill="#3fb950"/><circle cx="143.9" cy="198.0" r="3" fill="#3fb950"/><circle cx="148.8" cy="198.0" r="3" fill="#3fb950"/><circle cx="153.8" cy="198.0" r="3" fill="#3fb950"/><circle cx="158.7" cy="198.0" r="3" fill="#3fb950"/><circle cx="163.6" cy="198.0" r="3" fill="#3fb950"/><circle cx="168.5" cy="198.0" r="3" fill="#3fb950"/><circle cx="173.4" cy="198.0" r="3" fill="#3fb950"/><circle cx="178.3" cy="198.0" r="3" fill="#3fb950"/><circle cx="183.2" cy="198.0" r="3" fill="#3fb950"/><circle cx="188.1" cy="198.0" r="3" fill="#3fb950"/><circle cx="193.0" cy="198.0" r="3" fill="#3fb950"/><circle cx="197.9" cy="198.0" r="3" fill="#3fb950"/><circle cx="202.8" cy="198.0" r="3" fill="#3fb950"/><circle cx="207.7" cy="198.0" r="3" fill="#3fb950"/><circle cx="212.6" cy="198.0" r="3" fill="#3fb950"/><circle cx="217.5" cy="198.0" r="3" fill="#3fb950"/><circle cx="222.4" cy="198.0" r="3" fill="#3fb950"/><circle cx="227.3" cy="198.0" r="3" fill="#3fb950"/><circle cx="232.2" cy="198.0" r="3" fill="#3fb950"/><circle cx="237.2" cy="198.0" r="3" fill="#3fb950"/><circle cx="242.1" cy="198.0" r="3" fill="#3fb950"/><circle cx="247.0" cy="191.7" r="3" fill="#3fb950"/><circle cx="251.9" cy="191.7" r="3" fill="#3fb950"/><circle cx="256.8" cy="191.7" r="3" fill="#3fb950"/><circle cx="261.7" cy="191.7" r="3" fill="#3fb950"/><circle cx="266.6" cy="191.7" r="3" fill="#3fb950"/><circle cx="271.5" cy="191.7" r="3" fill="#3fb950"/><circle cx="276.4" cy="191.7" r="3" fill="#3fb950"/><circle cx="281.3" cy="192.9" r="3" fill="#3fb950"/><circle cx="286.2" cy="192.9" r="3" fill="#3fb950"/><circle cx="291.1" cy="190.7" r="3" fill="#3fb950"/><circle cx="296.0" cy="190.7" r="3" fill="#3fb950"/><circle cx="300.9" cy="190.7" r="3" fill="#3fb950"/><circle cx="305.8" cy="190.7" r="3" fill="#3fb950"/><circle cx="310.8" cy="190.7" r="3" fill="#3fb950"/><circle cx="315.7" cy="190.5" r="3" fill="#3fb950"/><circle cx="320.6" cy="190.5" r="3" fill="#3fb950"/><circle cx="325.5" cy="190.5" r="3" fill="#3fb950"/><circle cx="330.4" cy="190.3" r="3" fill="#3fb950"/><circle cx="335.3" cy="190.3" r="3" fill="#3fb950"/><circle cx="340.2" cy="190.3" r="3" fill="#3fb950"/><circle cx="345.1" cy="190.3" r="3" fill="#3fb950"/><circle cx="350.0" cy="190.3" r="3" fill="#3fb950"/><circle cx="354.9" cy="190.3" r="3" fill="#3fb950"/><circle cx="359.8" cy="190.3" r="3" fill="#3fb950"/><circle cx="364.7" cy="190.3" r="3" fill="#3fb950"/><circle cx="369.6" cy="190.3" r="3" fill="#3fb950"/><circle cx="374.5" cy="190.3" r="3" fill="#3fb950"/><circle cx="379.4" cy="190.3" r="3" fill="#3fb950"/><circle cx="384.3" cy="190.3" r="3" fill="#3fb950"/><circle cx="389.2" cy="190.3" r="3" fill="#3fb950"/><circle cx="394.2" cy="190.3" r="3" fill="#3fb950"/><circle cx="399.1" cy="190.3" r="3" fill="#3fb950"/><circle cx="404.0" cy="190.3" r="3" fill="#3fb950"/><circle cx="408.9" cy="190.3" r="3" fill="#3fb950"/><circle cx="413.8" cy="190.3" r="3" fill="#3fb950"/><circle cx="418.7" cy="190.3" r="3" fill="#3fb950"/><circle cx="423.6" cy="190.3" r="3" fill="#3fb950"/><circle cx="428.5" cy="190.3" r="3" fill="#3fb950"/><circle cx="433.4" cy="189.3" r="3" fill="#3fb950"/><circle cx="438.3" cy="189.3" r="3" fill="#3fb950"/><circle cx="443.2" cy="189.3" r="3" fill="#3fb950"/><circle cx="448.1" cy="190.7" r="3" fill="#3fb950"/><circle cx="453.0" cy="190.7" r="3" fill="#3fb950"/><circle cx="457.9" cy="190.7" r="3" fill="#3fb950"/><circle cx="462.8" cy="190.7" r="3" fill="#3fb950"/><circle cx="467.8" cy="190.7" r="3" fill="#3fb950"/><circle cx="472.7" cy="190.7" r="3" fill="#3fb950"/><circle cx="477.6" cy="190.7" r="3" fill="#3fb950"/><circle cx="482.5" cy="190.7" r="3" fill="#3fb950"/><circle cx="487.4" cy="190.7" r="3" fill="#3fb950"/><circle cx="492.3" cy="190.9" r="3" fill="#3fb950"/><circle cx="497.2" cy="190.9" r="3" fill="#3fb950"/><circle cx="502.1" cy="190.9" r="3" fill="#3fb950"/><circle cx="507.0" cy="194.2" r="3" fill="#3fb950"/><circle cx="511.9" cy="196.8" r="3" fill="#3fb950"/><circle cx="516.8" cy="198.0" r="3" fill="#3fb950"/><circle cx="521.7" cy="198.0" r="3" fill="#3fb950"/><circle cx="526.6" cy="198.0" r="3" fill="#3fb950"/><circle cx="531.5" cy="198.0" r="3" fill="#3fb950"/><circle cx="536.4" cy="198.0" r="3" fill="#3fb950"/><circle cx="541.3" cy="198.0" r="3" fill="#3fb950"/><circle cx="546.2" cy="198.0" r="3" fill="#3fb950"/><circle cx="551.2" cy="198.0" r="3" fill="#3fb950"/><circle cx="556.1" cy="198.0" r="3" fill="#3fb950"/><circle cx="561.0" cy="198.0" r="3" fill="#3fb950"/><circle cx="565.9" cy="198.0" r="3" fill="#3fb950"/><circle cx="570.8" cy="198.0" r="3" fill="#3fb950"/><circle cx="575.7" cy="198.0" r="3" fill="#3fb950"/><circle cx="580.6" cy="198.0" r="3" fill="#3fb950"/><circle cx="585.5" cy="198.0" r="3" fill="#3fb950"/><circle cx="590.4" cy="198.0" r="3" fill="#3fb950"/><circle cx="595.3" cy="198.0" r="3" fill="#3fb950"/><circle cx="600.2" cy="198.0" r="3" fill="#3fb950"/><circle cx="605.1" cy="198.0" r="3" fill="#3fb950"/><circle cx="610.0" cy="198.0" r="3" fill="#3fb950"/><circle cx="614.9" cy="198.0" r="3" fill="#3fb950"/><circle cx="619.8" cy="198.0" r="3" fill="#3fb950"/><circle cx="624.8" cy="198.0" r="3" fill="#3fb950"/><circle cx="629.7" cy="198.0" r="3" fill="#3fb950"/><circle cx="634.6" cy="198.0" r="3" fill="#3fb950"/><circle cx="639.5" cy="198.0" r="3" fill="#3fb950"/><circle cx="644.4" cy="198.0" r="3" fill="#3fb950"/><circle cx="649.3" cy="198.0" r="3" fill="#3fb950"/><circle cx="654.2" cy="198.0" r="3" fill="#3fb950"/><circle cx="659.1" cy="198.0" r="3" fill="#3fb950"/><circle cx="664.0" cy="198.0" r="3" fill="#3fb950"/>
<polyline fill="none" stroke="#4aa3ff" stroke-width="2.5" stroke-linejoin="round" points="36.0,144.3 40.9,144.3 45.8,144.3 50.7,144.3 55.6,144.3 60.5,144.3 65.4,144.3 70.3,144.3 75.2,144.3 80.2,144.3 85.1,144.3 90.0,144.3 94.9,144.3 99.8,144.3 104.7,144.3 109.6,136.2 114.5,132.4 119.4,129.6 124.3,129.6 129.2,121.0 134.1,121.0 139.0,121.0 143.9,114.4 148.8,114.4 153.8,114.4 158.7,111.3 163.6,110.9 168.5,110.9 173.4,110.5 178.3,110.5 183.2,109.9 188.1,108.7 193.0,107.3 197.9,106.9 202.8,106.9 207.7,106.9 212.6,106.9 217.5,106.9 222.4,106.9 227.3,106.9 232.2,106.9 237.2,106.9 242.1,106.9 247.0,113.2 251.9,113.2 256.8,113.2 261.7,113.2 266.6,113.2 271.5,110.7 276.4,105.3 281.3,83.4 286.2,83.4 291.1,85.6 296.0,85.6 300.9,85.6 305.8,85.6 310.8,85.6 315.7,85.8 320.6,85.8 325.5,85.8 330.4,86.0 335.3,86.0 340.2,86.0 345.1,86.0 350.0,86.0 354.9,86.0 359.8,86.0 364.7,86.0 369.6,86.0 374.5,86.0 379.4,86.0 384.3,86.0 389.2,86.0 394.2,86.0 399.1,86.0 404.0,86.0 408.9,86.0 413.8,86.0 418.7,86.0 423.6,86.0 428.5,86.0 433.4,87.0 438.3,87.0 443.2,87.0 448.1,73.7 453.0,73.7 457.9,71.0 462.8,71.0 467.8,70.8 472.7,70.6 477.6,70.6 482.5,70.4 487.4,68.6 492.3,60.5 497.2,59.3 502.1,52.0 507.0,47.3 511.9,40.1 516.8,36.0 521.7,36.0 526.6,36.0 531.5,36.0 536.4,36.0 541.3,36.0 546.2,36.0 551.2,36.0 556.1,36.0 561.0,36.0 565.9,36.0 570.8,36.0 575.7,36.0 580.6,36.0 585.5,36.0 590.4,36.0 595.3,36.0 600.2,36.0 605.1,36.0 610.0,36.0 614.9,36.0 619.8,36.0 624.8,36.0 629.7,36.0 634.6,36.0 639.5,36.0 644.4,36.0 649.3,36.0 654.2,36.0 659.1,36.0 664.0,36.0"/><circle cx="36.0" cy="144.3" r="3" fill="#4aa3ff"/><circle cx="40.9" cy="144.3" r="3" fill="#4aa3ff"/><circle cx="45.8" cy="144.3" r="3" fill="#4aa3ff"/><circle cx="50.7" cy="144.3" r="3" fill="#4aa3ff"/><circle cx="55.6" cy="144.3" r="3" fill="#4aa3ff"/><circle cx="60.5" cy="144.3" r="3" fill="#4aa3ff"/><circle cx="65.4" cy="144.3" r="3" fill="#4aa3ff"/><circle cx="70.3" cy="144.3" r="3" fill="#4aa3ff"/><circle cx="75.2" cy="144.3" r="3" fill="#4aa3ff"/><circle cx="80.2" cy="144.3" r="3" fill="#4aa3ff"/><circle cx="85.1" cy="144.3" r="3" fill="#4aa3ff"/><circle cx="90.0" cy="144.3" r="3" fill="#4aa3ff"/><circle cx="94.9" cy="144.3" r="3" fill="#4aa3ff"/><circle cx="99.8" cy="144.3" r="3" fill="#4aa3ff"/><circle cx="104.7" cy="144.3" r="3" fill="#4aa3ff"/><circle cx="109.6" cy="136.2" r="3" fill="#4aa3ff"/><circle cx="114.5" cy="132.4" r="3" fill="#4aa3ff"/><circle cx="119.4" cy="129.6" r="3" fill="#4aa3ff"/><circle cx="124.3" cy="129.6" r="3" fill="#4aa3ff"/><circle cx="129.2" cy="121.0" r="3" fill="#4aa3ff"/><circle cx="134.1" cy="121.0" r="3" fill="#4aa3ff"/><circle cx="139.0" cy="121.0" r="3" fill="#4aa3ff"/><circle cx="143.9" cy="114.4" r="3" fill="#4aa3ff"/><circle cx="148.8" cy="114.4" r="3" fill="#4aa3ff"/><circle cx="153.8" cy="114.4" r="3" fill="#4aa3ff"/><circle cx="158.7" cy="111.3" r="3" fill="#4aa3ff"/><circle cx="163.6" cy="110.9" r="3" fill="#4aa3ff"/><circle cx="168.5" cy="110.9" r="3" fill="#4aa3ff"/><circle cx="173.4" cy="110.5" r="3" fill="#4aa3ff"/><circle cx="178.3" cy="110.5" r="3" fill="#4aa3ff"/><circle cx="183.2" cy="109.9" r="3" fill="#4aa3ff"/><circle cx="188.1" cy="108.7" r="3" fill="#4aa3ff"/><circle cx="193.0" cy="107.3" r="3" fill="#4aa3ff"/><circle cx="197.9" cy="106.9" r="3" fill="#4aa3ff"/><circle cx="202.8" cy="106.9" r="3" fill="#4aa3ff"/><circle cx="207.7" cy="106.9" r="3" fill="#4aa3ff"/><circle cx="212.6" cy="106.9" r="3" fill="#4aa3ff"/><circle cx="217.5" cy="106.9" r="3" fill="#4aa3ff"/><circle cx="222.4" cy="106.9" r="3" fill="#4aa3ff"/><circle cx="227.3" cy="106.9" r="3" fill="#4aa3ff"/><circle cx="232.2" cy="106.9" r="3" fill="#4aa3ff"/><circle cx="237.2" cy="106.9" r="3" fill="#4aa3ff"/><circle cx="242.1" cy="106.9" r="3" fill="#4aa3ff"/><circle cx="247.0" cy="113.2" r="3" fill="#4aa3ff"/><circle cx="251.9" cy="113.2" r="3" fill="#4aa3ff"/><circle cx="256.8" cy="113.2" r="3" fill="#4aa3ff"/><circle cx="261.7" cy="113.2" r="3" fill="#4aa3ff"/><circle cx="266.6" cy="113.2" r="3" fill="#4aa3ff"/><circle cx="271.5" cy="110.7" r="3" fill="#4aa3ff"/><circle cx="276.4" cy="105.3" r="3" fill="#4aa3ff"/><circle cx="281.3" cy="83.4" r="3" fill="#4aa3ff"/><circle cx="286.2" cy="83.4" r="3" fill="#4aa3ff"/><circle cx="291.1" cy="85.6" r="3" fill="#4aa3ff"/><circle cx="296.0" cy="85.6" r="3" fill="#4aa3ff"/><circle cx="300.9" cy="85.6" r="3" fill="#4aa3ff"/><circle cx="305.8" cy="85.6" r="3" fill="#4aa3ff"/><circle cx="310.8" cy="85.6" r="3" fill="#4aa3ff"/><circle cx="315.7" cy="85.8" r="3" fill="#4aa3ff"/><circle cx="320.6" cy="85.8" r="3" fill="#4aa3ff"/><circle cx="325.5" cy="85.8" r="3" fill="#4aa3ff"/><circle cx="330.4" cy="86.0" r="3" fill="#4aa3ff"/><circle cx="335.3" cy="86.0" r="3" fill="#4aa3ff"/><circle cx="340.2" cy="86.0" r="3" fill="#4aa3ff"/><circle cx="345.1" cy="86.0" r="3" fill="#4aa3ff"/><circle cx="350.0" cy="86.0" r="3" fill="#4aa3ff"/><circle cx="354.9" cy="86.0" r="3" fill="#4aa3ff"/><circle cx="359.8" cy="86.0" r="3" fill="#4aa3ff"/><circle cx="364.7" cy="86.0" r="3" fill="#4aa3ff"/><circle cx="369.6" cy="86.0" r="3" fill="#4aa3ff"/><circle cx="374.5" cy="86.0" r="3" fill="#4aa3ff"/><circle cx="379.4" cy="86.0" r="3" fill="#4aa3ff"/><circle cx="384.3" cy="86.0" r="3" fill="#4aa3ff"/><circle cx="389.2" cy="86.0" r="3" fill="#4aa3ff"/><circle cx="394.2" cy="86.0" r="3" fill="#4aa3ff"/><circle cx="399.1" cy="86.0" r="3" fill="#4aa3ff"/><circle cx="404.0" cy="86.0" r="3" fill="#4aa3ff"/><circle cx="408.9" cy="86.0" r="3" fill="#4aa3ff"/><circle cx="413.8" cy="86.0" r="3" fill="#4aa3ff"/><circle cx="418.7" cy="86.0" r="3" fill="#4aa3ff"/><circle cx="423.6" cy="86.0" r="3" fill="#4aa3ff"/><circle cx="428.5" cy="86.0" r="3" fill="#4aa3ff"/><circle cx="433.4" cy="87.0" r="3" fill="#4aa3ff"/><circle cx="438.3" cy="87.0" r="3" fill="#4aa3ff"/><circle cx="443.2" cy="87.0" r="3" fill="#4aa3ff"/><circle cx="448.1" cy="73.7" r="3" fill="#4aa3ff"/><circle cx="453.0" cy="73.7" r="3" fill="#4aa3ff"/><circle cx="457.9" cy="71.0" r="3" fill="#4aa3ff"/><circle cx="462.8" cy="71.0" r="3" fill="#4aa3ff"/><circle cx="467.8" cy="70.8" r="3" fill="#4aa3ff"/><circle cx="472.7" cy="70.6" r="3" fill="#4aa3ff"/><circle cx="477.6" cy="70.6" r="3" fill="#4aa3ff"/><circle cx="482.5" cy="70.4" r="3" fill="#4aa3ff"/><circle cx="487.4" cy="68.6" r="3" fill="#4aa3ff"/><circle cx="492.3" cy="60.5" r="3" fill="#4aa3ff"/><circle cx="497.2" cy="59.3" r="3" fill="#4aa3ff"/><circle cx="502.1" cy="52.0" r="3" fill="#4aa3ff"/><circle cx="507.0" cy="47.3" r="3" fill="#4aa3ff"/><circle cx="511.9" cy="40.1" r="3" fill="#4aa3ff"/><circle cx="516.8" cy="36.0" r="3" fill="#4aa3ff"/><circle cx="521.7" cy="36.0" r="3" fill="#4aa3ff"/><circle cx="526.6" cy="36.0" r="3" fill="#4aa3ff"/><circle cx="531.5" cy="36.0" r="3" fill="#4aa3ff"/><circle cx="536.4" cy="36.0" r="3" fill="#4aa3ff"/><circle cx="541.3" cy="36.0" r="3" fill="#4aa3ff"/><circle cx="546.2" cy="36.0" r="3" fill="#4aa3ff"/><circle cx="551.2" cy="36.0" r="3" fill="#4aa3ff"/><circle cx="556.1" cy="36.0" r="3" fill="#4aa3ff"/><circle cx="561.0" cy="36.0" r="3" fill="#4aa3ff"/><circle cx="565.9" cy="36.0" r="3" fill="#4aa3ff"/><circle cx="570.8" cy="36.0" r="3" fill="#4aa3ff"/><circle cx="575.7" cy="36.0" r="3" fill="#4aa3ff"/><circle cx="580.6" cy="36.0" r="3" fill="#4aa3ff"/><circle cx="585.5" cy="36.0" r="3" fill="#4aa3ff"/><circle cx="590.4" cy="36.0" r="3" fill="#4aa3ff"/><circle cx="595.3" cy="36.0" r="3" fill="#4aa3ff"/><circle cx="600.2" cy="36.0" r="3" fill="#4aa3ff"/><circle cx="605.1" cy="36.0" r="3" fill="#4aa3ff"/><circle cx="610.0" cy="36.0" r="3" fill="#4aa3ff"/><circle cx="614.9" cy="36.0" r="3" fill="#4aa3ff"/><circle cx="619.8" cy="36.0" r="3" fill="#4aa3ff"/><circle cx="624.8" cy="36.0" r="3" fill="#4aa3ff"/><circle cx="629.7" cy="36.0" r="3" fill="#4aa3ff"/><circle cx="634.6" cy="36.0" r="3" fill="#4aa3ff"/><circle cx="639.5" cy="36.0" r="3" fill="#4aa3ff"/><circle cx="644.4" cy="36.0" r="3" fill="#4aa3ff"/><circle cx="649.3" cy="36.0" r="3" fill="#4aa3ff"/><circle cx="654.2" cy="36.0" r="3" fill="#4aa3ff"/><circle cx="659.1" cy="36.0" r="3" fill="#4aa3ff"/><circle cx="664.0" cy="36.0" r="3" fill="#4aa3ff"/>
<text x="36" y="225" fill="#6b7280" font-size="11">2026-06-26</text>
<text x="664" y="225" fill="#6b7280" font-size="11" text-anchor="end">2026-07-10</text>
<text x="36" y="212" font-family="system-ui,sans-serif" font-size="11">
<tspan fill="#4aa3ff">&#9679; open FPs</tspan>  <tspan fill="#3fb950">&#9679; closed (Anthropic acting)</tspan>  <tspan fill="#8a5a5a">&#9679; harness withdrawn</tspan></text>
<text x="664" y="22" text-anchor="end" font-family="system-ui,sans-serif" font-size="12">
<tspan fill="#4aa3ff">open 800</tspan>  <tspan fill="#3fb950">closed 0</tspan>  <tspan fill="#8a5a5a">harness 0</tspan></text>
</svg>