<svg xmlns="http://www.w3.org/2000/svg" width="700" height="234" viewBox="0 0 700 234" role="img">
<rect width="700" height="234" rx="12" fill="#16181d"/>
<text x="36" y="22" fill="#e8eaed" font-family="system-ui,sans-serif" font-size="14" font-weight="700">Is Anthropic acting? cyber/aup false positives over time</text>
<line x1="36" y1="198.0" x2="664" y2="198.0" stroke="#2a2e37" stroke-width="1"/><text x="30" y="202.0" fill="#6b7280" font-size="11" text-anchor="end">0</text><line x1="36" y1="117.0" x2="664" y2="117.0" stroke="#2a2e37" stroke-width="1"/><text x="30" y="121.0" fill="#6b7280" font-size="11" text-anchor="end">215</text><line x1="36" y1="36.0" x2="664" y2="36.0" stroke="#2a2e37" stroke-width="1"/><text x="30" y="40.0" fill="#6b7280" font-size="11" text-anchor="end">430</text>

<polyline fill="none" stroke="#8a5a5a" stroke-width="2.5" stroke-linejoin="round" points="36.0,99.7 59.3,99.7 82.5,99.7 105.8,99.7 129.0,99.7 152.3,99.7 175.6,99.7 198.8,99.7 222.1,99.7 245.3,99.7 268.6,99.7 291.9,99.7 315.1,99.7 338.4,99.7 361.6,99.7 384.9,99.7 408.1,99.7 431.4,99.7 454.7,99.7 477.9,99.7 501.2,99.7 524.4,99.7 547.7,99.7 571.0,99.7 594.2,99.7 617.5,99.7 640.7,99.7 664.0,99.7"/><circle cx="36.0" cy="99.7" r="3" fill="#8a5a5a"/><circle cx="59.3" cy="99.7" r="3" fill="#8a5a5a"/><circle cx="82.5" cy="99.7" r="3" fill="#8a5a5a"/><circle cx="105.8" cy="99.7" r="3" fill="#8a5a5a"/><circle cx="129.0" cy="99.7" r="3" fill="#8a5a5a"/><circle cx="152.3" cy="99.7" r="3" fill="#8a5a5a"/><circle cx="175.6" cy="99.7" r="3" fill="#8a5a5a"/><circle cx="198.8" cy="99.7" r="3" fill="#8a5a5a"/><circle cx="222.1" cy="99.7" r="3" fill="#8a5a5a"/><circle cx="245.3" cy="99.7" r="3" fill="#8a5a5a"/><circle cx="268.6" cy="99.7" r="3" fill="#8a5a5a"/><circle cx="291.9" cy="99.7" r="3" fill="#8a5a5a"/><circle cx="315.1" cy="99.7" r="3" fill="#8a5a5a"/><circle cx="338.4" cy="99.7" r="3" fill="#8a5a5a"/><circle cx="361.6" cy="99.7" r="3" fill="#8a5a5a"/><circle cx="384.9" cy="99.7" r="3" fill="#8a5a5a"/><circle cx="408.1" cy="99.7" r="3" fill="#8a5a5a"/><circle cx="431.4" cy="99.7" r="3" fill="#8a5a5a"/><circle cx="454.7" cy="99.7" r="3" fill="#8a5a5a"/><circle cx="477.9" cy="99.7" r="3" fill="#8a5a5a"/><circle cx="501.2" cy="99.7" r="3" fill="#8a5a5a"/><circle cx="524.4" cy="99.7" r="3" fill="#8a5a5a"/><circle cx="547.7" cy="99.7" r="3" fill="#8a5a5a"/><circle cx="571.0" cy="99.7" r="3" fill="#8a5a5a"/><circle cx="594.2" cy="99.7" r="3" fill="#8a5a5a"/><circle cx="617.5" cy="99.7" r="3" fill="#8a5a5a"/><circle cx="640.7" cy="99.7" r="3" fill="#8a5a5a"/><circle cx="664.0" cy="99.7" r="3" fill="#8a5a5a"/>
<polyline fill="none" stroke="#3fb950" stroke-width="2.5" stroke-linejoin="round" points="36.0,198.0 59.3,198.0 82.5,198.0 105.8,198.0 129.0,198.0 152.3,198.0 175.6,198.0 198.8,198.0 222.1,198.0 245.3,198.0 268.6,198.0 291.9,198.0 315.1,198.0 338.4,198.0 361.6,198.0 384.9,198.0 408.1,198.0 431.4,198.0 454.7,198.0 477.9,198.0 501.2,198.0 524.4,198.0 547.7,198.0 571.0,198.0 594.2,198.0 617.5,198.0 640.7,198.0 664.0,198.0"/><circle cx="36.0" cy="198.0" r="3" fill="#3fb950"/><circle cx="59.3" cy="198.0" r="3" fill="#3fb950"/><circle cx="82.5" cy="198.0" r="3" fill="#3fb950"/><circle cx="105.8" cy="198.0" r="3" fill="#3fb950"/><circle cx="129.0" cy="198.0" r="3" fill="#3fb950"/><circle cx="152.3" cy="198.0" r="3" fill="#3fb950"/><circle cx="175.6" cy="198.0" r="3" fill="#3fb950"/><circle cx="198.8" cy="198.0" r="3" fill="#3fb950"/><circle cx="222.1" cy="198.0" r="3" fill="#3fb950"/><circle cx="245.3" cy="198.0" r="3" fill="#3fb950"/><circle cx="268.6" cy="198.0" r="3" fill="#3fb950"/><circle cx="291.9" cy="198.0" r="3" fill="#3fb950"/><circle cx="315.1" cy="198.0" r="3" fill="#3fb950"/><circle cx="338.4" cy="198.0" r="3" fill="#3fb950"/><circle cx="361.6" cy="198.0" r="3" fill="#3fb950"/><circle cx="384.9" cy="198.0" r="3" fill="#3fb950"/><circle cx="408.1" cy="198.0" r="3" fill="#3fb950"/><circle cx="431.4" cy="198.0" r="3" fill="#3fb950"/><circle cx="454.7" cy="198.0" r="3" fill="#3fb950"/><circle cx="477.9" cy="198.0" r="3" fill="#3fb950"/><circle cx="501.2" cy="198.0" r="3" fill="#3fb950"/><circle cx="524.4" cy="198.0" r="3" fill="#3fb950"/><circle cx="547.7" cy="198.0" r="3" fill="#3fb950"/><circle cx="571.0" cy="198.0" r="3" fill="#3fb950"/><circle cx="594.2" cy="198.0" r="3" fill="#3fb950"/><circle cx="617.5" cy="198.0" r="3" fill="#3fb950"/><circle cx="640.7" cy="198.0" r="3" fill="#3fb950"/><circle cx="664.0" cy="198.0" r="3" fill="#3fb950"/>
<polyline fill="none" stroke="#4aa3ff" stroke-width="2.5" stroke-linejoin="round" points="36.0,98.2 59.3,98.2 82.5,98.2 105.8,98.2 129.0,98.2 152.3,98.2 175.6,98.2 198.8,98.2 222.1,98.2 245.3,98.2 268.6,98.2 291.9,98.2 315.1,98.2 338.4,98.2 361.6,98.2 384.9,83.1 408.1,75.9 431.4,70.7 454.7,70.7 477.9,54.8 501.2,54.8 524.4,54.8 547.7,42.4 571.0,42.4 594.2,42.4 617.5,36.8 640.7,36.0 664.0,36.0"/><circle cx="36.0" cy="98.2" r="3" fill="#4aa3ff"/><circle cx="59.3" cy="98.2" r="3" fill="#4aa3ff"/><circle cx="82.5" cy="98.2" r="3" fill="#4aa3ff"/><circle cx="105.8" cy="98.2" r="3" fill="#4aa3ff"/><circle cx="129.0" cy="98.2" r="3" fill="#4aa3ff"/><circle cx="152.3" cy="98.2" r="3" fill="#4aa3ff"/><circle cx="175.6" cy="98.2" r="3" fill="#4aa3ff"/><circle cx="198.8" cy="98.2" r="3" fill="#4aa3ff"/><circle cx="222.1" cy="98.2" r="3" fill="#4aa3ff"/><circle cx="245.3" cy="98.2" r="3" fill="#4aa3ff"/><circle cx="268.6" cy="98.2" r="3" fill="#4aa3ff"/><circle cx="291.9" cy="98.2" r="3" fill="#4aa3ff"/><circle cx="315.1" cy="98.2" r="3" fill="#4aa3ff"/><circle cx="338.4" cy="98.2" r="3" fill="#4aa3ff"/><circle cx="361.6" cy="98.2" r="3" fill="#4aa3ff"/><circle cx="384.9" cy="83.1" r="3" fill="#4aa3ff"/><circle cx="408.1" cy="75.9" r="3" fill="#4aa3ff"/><circle cx="431.4" cy="70.7" r="3" fill="#4aa3ff"/><circle cx="454.7" cy="70.7" r="3" fill="#4aa3ff"/><circle cx="477.9" cy="54.8" r="3" fill="#4aa3ff"/><circle cx="501.2" cy="54.8" r="3" fill="#4aa3ff"/><circle cx="524.4" cy="54.8" r="3" fill="#4aa3ff"/><circle cx="547.7" cy="42.4" r="3" fill="#4aa3ff"/><circle cx="571.0" cy="42.4" r="3" fill="#4aa3ff"/><circle cx="594.2" cy="42.4" r="3" fill="#4aa3ff"/><circle cx="617.5" cy="36.8" r="3" fill="#4aa3ff"/><circle cx="640.7" cy="36.0" r="3" fill="#4aa3ff"/><circle cx="664.0" cy="36.0" r="3" fill="#4aa3ff"/>
<text x="36" y="225" fill="#6b7280" font-size="11">2026-06-26</text>
<text x="664" y="225" fill="#6b7280" font-size="11" text-anchor="end">2026-06-29</text>
<text x="36" y="212" font-family="system-ui,sans-serif" font-size="11">
<tspan fill="#4aa3ff">&#9679; open FPs</tspan>  <tspan fill="#3fb950">&#9679; closed (Anthropic acting)</tspan>  <tspan fill="#8a5a5a">&#9679; harness withdrawn</tspan></text>
<text x="664" y="22" text-anchor="end" font-family="system-ui,sans-serif" font-size="12">
<tspan fill="#4aa3ff">open 430</tspan>  <tspan fill="#3fb950">closed 0</tspan>  <tspan fill="#8a5a5a">harness 261</tspan></text>
</svg>