<svg xmlns="http://www.w3.org/2000/svg" width="700" height="234" viewBox="0 0 700 234" role="img">
<rect width="700" height="234" rx="12" fill="#16181d"/>
<text x="36" y="22" fill="#e8eaed" font-family="system-ui,sans-serif" font-size="14" font-weight="700">Is Anthropic acting? cyber/aup false positives over time</text>
<line x1="36" y1="198.0" x2="664" y2="198.0" stroke="#2a2e37" stroke-width="1"/><text x="30" y="202.0" fill="#6b7280" font-size="11" text-anchor="end">0</text><line x1="36" y1="117.0" x2="664" y2="117.0" stroke="#2a2e37" stroke-width="1"/><text x="30" y="121.0" fill="#6b7280" font-size="11" text-anchor="end">340</text><line x1="36" y1="36.0" x2="664" y2="36.0" stroke="#2a2e37" stroke-width="1"/><text x="30" y="40.0" fill="#6b7280" font-size="11" text-anchor="end">679</text>

<polyline fill="none" stroke="#8a5a5a" stroke-width="2.5" stroke-linejoin="round" points="36.0,135.7 42.8,135.7 49.5,135.7 56.3,135.7 63.0,135.7 69.8,135.7 76.5,135.7 83.3,135.7 90.0,135.7 96.8,135.7 103.5,135.7 110.3,135.7 117.0,135.7 123.8,135.7 130.5,135.7 137.3,135.7 144.0,135.7 150.8,135.7 157.5,135.7 164.3,135.7 171.1,135.7 177.8,135.7 184.6,135.7 191.3,135.7 198.1,135.7 204.8,135.7 211.6,135.7 218.3,135.7 225.1,135.7 231.8,135.7 238.6,135.7 245.3,135.7 252.1,135.7 258.8,135.7 265.6,135.7 272.3,135.7 279.1,135.7 285.8,135.7 292.6,135.7 299.4,135.7 306.1,135.7 312.9,135.7 319.6,135.7 326.4,135.7 333.1,135.7 339.9,135.7 346.6,135.7 353.4,135.7 360.1,135.7 366.9,135.7 373.6,148.1 380.4,148.1 387.1,148.1 393.9,148.1 400.6,148.1 407.4,148.1 414.2,148.1 420.9,148.1 427.7,148.1 434.4,148.1 441.2,148.1 447.9,148.1 454.7,148.1 461.4,148.1 468.2,148.1 474.9,148.1 481.7,148.1 488.4,148.1 495.2,148.1 501.9,148.1 508.7,148.1 515.4,148.1 522.2,148.1 528.9,148.1 535.7,148.1 542.5,148.1 549.2,148.1 556.0,148.1 562.7,148.1 569.5,148.1 576.2,148.1 583.0,148.1 589.7,148.1 596.5,148.1 603.2,162.2 610.0,162.2 616.7,165.3 623.5,165.3 630.2,165.6 637.0,165.8 643.7,165.8 650.5,166.0 657.2,168.2 664.0,177.5"/><circle cx="36.0" cy="135.7" r="3" fill="#8a5a5a"/><circle cx="42.8" cy="135.7" r="3" fill="#8a5a5a"/><circle cx="49.5" cy="135.7" r="3" fill="#8a5a5a"/><circle cx="56.3" cy="135.7" r="3" fill="#8a5a5a"/><circle cx="63.0" cy="135.7" r="3" fill="#8a5a5a"/><circle cx="69.8" cy="135.7" r="3" fill="#8a5a5a"/><circle cx="76.5" cy="135.7" r="3" fill="#8a5a5a"/><circle cx="83.3" cy="135.7" r="3" fill="#8a5a5a"/><circle cx="90.0" cy="135.7" r="3" fill="#8a5a5a"/><circle cx="96.8" cy="135.7" r="3" fill="#8a5a5a"/><circle cx="103.5" cy="135.7" r="3" fill="#8a5a5a"/><circle cx="110.3" cy="135.7" r="3" fill="#8a5a5a"/><circle cx="117.0" cy="135.7" r="3" fill="#8a5a5a"/><circle cx="123.8" cy="135.7" r="3" fill="#8a5a5a"/><circle cx="130.5" cy="135.7" r="3" fill="#8a5a5a"/><circle cx="137.3" cy="135.7" r="3" fill="#8a5a5a"/><circle cx="144.0" cy="135.7" r="3" fill="#8a5a5a"/><circle cx="150.8" cy="135.7" r="3" fill="#8a5a5a"/><circle cx="157.5" cy="135.7" r="3" fill="#8a5a5a"/><circle cx="164.3" cy="135.7" r="3" fill="#8a5a5a"/><circle cx="171.1" cy="135.7" r="3" fill="#8a5a5a"/><circle cx="177.8" cy="135.7" r="3" fill="#8a5a5a"/><circle cx="184.6" cy="135.7" r="3" fill="#8a5a5a"/><circle cx="191.3" cy="135.7" r="3" fill="#8a5a5a"/><circle cx="198.1" cy="135.7" r="3" fill="#8a5a5a"/><circle cx="204.8" cy="135.7" r="3" fill="#8a5a5a"/><circle cx="211.6" cy="135.7" r="3" fill="#8a5a5a"/><circle cx="218.3" cy="135.7" r="3" fill="#8a5a5a"/><circle cx="225.1" cy="135.7" r="3" fill="#8a5a5a"/><circle cx="231.8" cy="135.7" r="3" fill="#8a5a5a"/><circle cx="238.6" cy="135.7" r="3" fill="#8a5a5a"/><circle cx="245.3" cy="135.7" r="3" fill="#8a5a5a"/><circle cx="252.1" cy="135.7" r="3" fill="#8a5a5a"/><circle cx="258.8" cy="135.7" r="3" fill="#8a5a5a"/><circle cx="265.6" cy="135.7" r="3" fill="#8a5a5a"/><circle cx="272.3" cy="135.7" r="3" fill="#8a5a5a"/><circle cx="279.1" cy="135.7" r="3" fill="#8a5a5a"/><circle cx="285.8" cy="135.7" r="3" fill="#8a5a5a"/><circle cx="292.6" cy="135.7" r="3" fill="#8a5a5a"/><circle cx="299.4" cy="135.7" r="3" fill="#8a5a5a"/><circle cx="306.1" cy="135.7" r="3" fill="#8a5a5a"/><circle cx="312.9" cy="135.7" r="3" fill="#8a5a5a"/><circle cx="319.6" cy="135.7" r="3" fill="#8a5a5a"/><circle cx="326.4" cy="135.7" r="3" fill="#8a5a5a"/><circle cx="333.1" cy="135.7" r="3" fill="#8a5a5a"/><circle cx="339.9" cy="135.7" r="3" fill="#8a5a5a"/><circle cx="346.6" cy="135.7" r="3" fill="#8a5a5a"/><circle cx="353.4" cy="135.7" r="3" fill="#8a5a5a"/><circle cx="360.1" cy="135.7" r="3" fill="#8a5a5a"/><circle cx="366.9" cy="135.7" r="3" fill="#8a5a5a"/><circle cx="373.6" cy="148.1" r="3" fill="#8a5a5a"/><circle cx="380.4" cy="148.1" r="3" fill="#8a5a5a"/><circle cx="387.1" cy="148.1" r="3" fill="#8a5a5a"/><circle cx="393.9" cy="148.1" r="3" fill="#8a5a5a"/><circle cx="400.6" cy="148.1" r="3" fill="#8a5a5a"/><circle cx="407.4" cy="148.1" r="3" fill="#8a5a5a"/><circle cx="414.2" cy="148.1" r="3" fill="#8a5a5a"/><circle cx="420.9" cy="148.1" r="3" fill="#8a5a5a"/><circle cx="427.7" cy="148.1" r="3" fill="#8a5a5a"/><circle cx="434.4" cy="148.1" r="3" fill="#8a5a5a"/><circle cx="441.2" cy="148.1" r="3" fill="#8a5a5a"/><circle cx="447.9" cy="148.1" r="3" fill="#8a5a5a"/><circle cx="454.7" cy="148.1" r="3" fill="#8a5a5a"/><circle cx="461.4" cy="148.1" r="3" fill="#8a5a5a"/><circle cx="468.2" cy="148.1" r="3" fill="#8a5a5a"/><circle cx="474.9" cy="148.1" r="3" fill="#8a5a5a"/><circle cx="481.7" cy="148.1" r="3" fill="#8a5a5a"/><circle cx="488.4" cy="148.1" r="3" fill="#8a5a5a"/><circle cx="495.2" cy="148.1" r="3" fill="#8a5a5a"/><circle cx="501.9" cy="148.1" r="3" fill="#8a5a5a"/><circle cx="508.7" cy="148.1" r="3" fill="#8a5a5a"/><circle cx="515.4" cy="148.1" r="3" fill="#8a5a5a"/><circle cx="522.2" cy="148.1" r="3" fill="#8a5a5a"/><circle cx="528.9" cy="148.1" r="3" fill="#8a5a5a"/><circle cx="535.7" cy="148.1" r="3" fill="#8a5a5a"/><circle cx="542.5" cy="148.1" r="3" fill="#8a5a5a"/><circle cx="549.2" cy="148.1" r="3" fill="#8a5a5a"/><circle cx="556.0" cy="148.1" r="3" fill="#8a5a5a"/><circle cx="562.7" cy="148.1" r="3" fill="#8a5a5a"/><circle cx="569.5" cy="148.1" r="3" fill="#8a5a5a"/><circle cx="576.2" cy="148.1" r="3" fill="#8a5a5a"/><circle cx="583.0" cy="148.1" r="3" fill="#8a5a5a"/><circle cx="589.7" cy="148.1" r="3" fill="#8a5a5a"/><circle cx="596.5" cy="148.1" r="3" fill="#8a5a5a"/><circle cx="603.2" cy="162.2" r="3" fill="#8a5a5a"/><circle cx="610.0" cy="162.2" r="3" fill="#8a5a5a"/><circle cx="616.7" cy="165.3" r="3" fill="#8a5a5a"/><circle cx="623.5" cy="165.3" r="3" fill="#8a5a5a"/><circle cx="630.2" cy="165.6" r="3" fill="#8a5a5a"/><circle cx="637.0" cy="165.8" r="3" fill="#8a5a5a"/><circle cx="643.7" cy="165.8" r="3" fill="#8a5a5a"/><circle cx="650.5" cy="166.0" r="3" fill="#8a5a5a"/><circle cx="657.2" cy="168.2" r="3" fill="#8a5a5a"/><circle cx="664.0" cy="177.5" r="3" fill="#8a5a5a"/>
<polyline fill="none" stroke="#3fb950" stroke-width="2.5" stroke-linejoin="round" points="36.0,198.0 42.8,198.0 49.5,198.0 56.3,198.0 63.0,198.0 69.8,198.0 76.5,198.0 83.3,198.0 90.0,198.0 96.8,198.0 103.5,198.0 110.3,198.0 117.0,198.0 123.8,198.0 130.5,198.0 137.3,198.0 144.0,198.0 150.8,198.0 157.5,198.0 164.3,198.0 171.1,198.0 177.8,198.0 184.6,198.0 191.3,198.0 198.1,198.0 204.8,198.0 211.6,198.0 218.3,198.0 225.1,198.0 231.8,198.0 238.6,198.0 245.3,198.0 252.1,198.0 258.8,198.0 265.6,198.0 272.3,198.0 279.1,198.0 285.8,198.0 292.6,198.0 299.4,198.0 306.1,198.0 312.9,198.0 319.6,198.0 326.4,190.6 333.1,190.6 339.9,190.6 346.6,190.6 353.4,190.6 360.1,190.6 366.9,190.6 373.6,192.0 380.4,192.0 387.1,189.4 393.9,189.4 400.6,189.4 407.4,189.4 414.2,189.4 420.9,189.2 427.7,189.2 434.4,189.2 441.2,188.9 447.9,188.9 454.7,188.9 461.4,188.9 468.2,188.9 474.9,188.9 481.7,188.9 488.4,188.9 495.2,188.9 501.9,188.9 508.7,188.9 515.4,188.9 522.2,188.9 528.9,188.9 535.7,188.9 542.5,188.9 549.2,188.9 556.0,188.9 562.7,188.9 569.5,188.9 576.2,188.9 583.0,187.7 589.7,187.7 596.5,187.7 603.2,189.4 610.0,189.4 616.7,189.4 623.5,189.4 630.2,189.4 637.0,189.4 643.7,189.4 650.5,189.4 657.2,189.4 664.0,189.6"/><circle cx="36.0" cy="198.0" r="3" fill="#3fb950"/><circle cx="42.8" cy="198.0" r="3" fill="#3fb950"/><circle cx="49.5" cy="198.0" r="3" fill="#3fb950"/><circle cx="56.3" cy="198.0" r="3" fill="#3fb950"/><circle cx="63.0" cy="198.0" r="3" fill="#3fb950"/><circle cx="69.8" cy="198.0" r="3" fill="#3fb950"/><circle cx="76.5" cy="198.0" r="3" fill="#3fb950"/><circle cx="83.3" cy="198.0" r="3" fill="#3fb950"/><circle cx="90.0" cy="198.0" r="3" fill="#3fb950"/><circle cx="96.8" cy="198.0" r="3" fill="#3fb950"/><circle cx="103.5" cy="198.0" r="3" fill="#3fb950"/><circle cx="110.3" cy="198.0" r="3" fill="#3fb950"/><circle cx="117.0" cy="198.0" r="3" fill="#3fb950"/><circle cx="123.8" cy="198.0" r="3" fill="#3fb950"/><circle cx="130.5" cy="198.0" r="3" fill="#3fb950"/><circle cx="137.3" cy="198.0" r="3" fill="#3fb950"/><circle cx="144.0" cy="198.0" r="3" fill="#3fb950"/><circle cx="150.8" cy="198.0" r="3" fill="#3fb950"/><circle cx="157.5" cy="198.0" r="3" fill="#3fb950"/><circle cx="164.3" cy="198.0" r="3" fill="#3fb950"/><circle cx="171.1" cy="198.0" r="3" fill="#3fb950"/><circle cx="177.8" cy="198.0" r="3" fill="#3fb950"/><circle cx="184.6" cy="198.0" r="3" fill="#3fb950"/><circle cx="191.3" cy="198.0" r="3" fill="#3fb950"/><circle cx="198.1" cy="198.0" r="3" fill="#3fb950"/><circle cx="204.8" cy="198.0" r="3" fill="#3fb950"/><circle cx="211.6" cy="198.0" r="3" fill="#3fb950"/><circle cx="218.3" cy="198.0" r="3" fill="#3fb950"/><circle cx="225.1" cy="198.0" r="3" fill="#3fb950"/><circle cx="231.8" cy="198.0" r="3" fill="#3fb950"/><circle cx="238.6" cy="198.0" r="3" fill="#3fb950"/><circle cx="245.3" cy="198.0" r="3" fill="#3fb950"/><circle cx="252.1" cy="198.0" r="3" fill="#3fb950"/><circle cx="258.8" cy="198.0" r="3" fill="#3fb950"/><circle cx="265.6" cy="198.0" r="3" fill="#3fb950"/><circle cx="272.3" cy="198.0" r="3" fill="#3fb950"/><circle cx="279.1" cy="198.0" r="3" fill="#3fb950"/><circle cx="285.8" cy="198.0" r="3" fill="#3fb950"/><circle cx="292.6" cy="198.0" r="3" fill="#3fb950"/><circle cx="299.4" cy="198.0" r="3" fill="#3fb950"/><circle cx="306.1" cy="198.0" r="3" fill="#3fb950"/><circle cx="312.9" cy="198.0" r="3" fill="#3fb950"/><circle cx="319.6" cy="198.0" r="3" fill="#3fb950"/><circle cx="326.4" cy="190.6" r="3" fill="#3fb950"/><circle cx="333.1" cy="190.6" r="3" fill="#3fb950"/><circle cx="339.9" cy="190.6" r="3" fill="#3fb950"/><circle cx="346.6" cy="190.6" r="3" fill="#3fb950"/><circle cx="353.4" cy="190.6" r="3" fill="#3fb950"/><circle cx="360.1" cy="190.6" r="3" fill="#3fb950"/><circle cx="366.9" cy="190.6" r="3" fill="#3fb950"/><circle cx="373.6" cy="192.0" r="3" fill="#3fb950"/><circle cx="380.4" cy="192.0" r="3" fill="#3fb950"/><circle cx="387.1" cy="189.4" r="3" fill="#3fb950"/><circle cx="393.9" cy="189.4" r="3" fill="#3fb950"/><circle cx="400.6" cy="189.4" r="3" fill="#3fb950"/><circle cx="407.4" cy="189.4" r="3" fill="#3fb950"/><circle cx="414.2" cy="189.4" r="3" fill="#3fb950"/><circle cx="420.9" cy="189.2" r="3" fill="#3fb950"/><circle cx="427.7" cy="189.2" r="3" fill="#3fb950"/><circle cx="434.4" cy="189.2" r="3" fill="#3fb950"/><circle cx="441.2" cy="188.9" r="3" fill="#3fb950"/><circle cx="447.9" cy="188.9" r="3" fill="#3fb950"/><circle cx="454.7" cy="188.9" r="3" fill="#3fb950"/><circle cx="461.4" cy="188.9" r="3" fill="#3fb950"/><circle cx="468.2" cy="188.9" r="3" fill="#3fb950"/><circle cx="474.9" cy="188.9" r="3" fill="#3fb950"/><circle cx="481.7" cy="188.9" r="3" fill="#3fb950"/><circle cx="488.4" cy="188.9" r="3" fill="#3fb950"/><circle cx="495.2" cy="188.9" r="3" fill="#3fb950"/><circle cx="501.9" cy="188.9" r="3" fill="#3fb950"/><circle cx="508.7" cy="188.9" r="3" fill="#3fb950"/><circle cx="515.4" cy="188.9" r="3" fill="#3fb950"/><circle cx="522.2" cy="188.9" r="3" fill="#3fb950"/><circle cx="528.9" cy="188.9" r="3" fill="#3fb950"/><circle cx="535.7" cy="188.9" r="3" fill="#3fb950"/><circle cx="542.5" cy="188.9" r="3" fill="#3fb950"/><circle cx="549.2" cy="188.9" r="3" fill="#3fb950"/><circle cx="556.0" cy="188.9" r="3" fill="#3fb950"/><circle cx="562.7" cy="188.9" r="3" fill="#3fb950"/><circle cx="569.5" cy="188.9" r="3" fill="#3fb950"/><circle cx="576.2" cy="188.9" r="3" fill="#3fb950"/><circle cx="583.0" cy="187.7" r="3" fill="#3fb950"/><circle cx="589.7" cy="187.7" r="3" fill="#3fb950"/><circle cx="596.5" cy="187.7" r="3" fill="#3fb950"/><circle cx="603.2" cy="189.4" r="3" fill="#3fb950"/><circle cx="610.0" cy="189.4" r="3" fill="#3fb950"/><circle cx="616.7" cy="189.4" r="3" fill="#3fb950"/><circle cx="623.5" cy="189.4" r="3" fill="#3fb950"/><circle cx="630.2" cy="189.4" r="3" fill="#3fb950"/><circle cx="637.0" cy="189.4" r="3" fill="#3fb950"/><circle cx="643.7" cy="189.4" r="3" fill="#3fb950"/><circle cx="650.5" cy="189.4" r="3" fill="#3fb950"/><circle cx="657.2" cy="189.4" r="3" fill="#3fb950"/><circle cx="664.0" cy="189.6" r="3" fill="#3fb950"/>
<polyline fill="none" stroke="#4aa3ff" stroke-width="2.5" stroke-linejoin="round" points="36.0,134.8 42.8,134.8 49.5,134.8 56.3,134.8 63.0,134.8 69.8,134.8 76.5,134.8 83.3,134.8 90.0,134.8 96.8,134.8 103.5,134.8 110.3,134.8 117.0,134.8 123.8,134.8 130.5,134.8 137.3,125.2 144.0,120.7 150.8,117.4 157.5,117.4 164.3,107.3 171.1,107.3 177.8,107.3 184.6,99.5 191.3,99.5 198.1,99.5 204.8,95.9 211.6,95.4 218.3,95.4 225.1,94.9 231.8,94.9 238.6,94.2 245.3,92.8 252.1,91.1 258.8,90.6 265.6,90.6 272.3,90.6 279.1,90.6 285.8,90.6 292.6,90.6 299.4,90.6 306.1,90.6 312.9,90.6 319.6,90.6 326.4,98.0 333.1,98.0 339.9,98.0 346.6,98.0 353.4,98.0 360.1,95.2 366.9,88.7 373.6,63.0 380.4,63.0 387.1,65.6 393.9,65.6 400.6,65.6 407.4,65.6 414.2,65.6 420.9,65.8 427.7,65.8 434.4,65.8 441.2,66.1 447.9,66.1 454.7,66.1 461.4,66.1 468.2,66.1 474.9,66.1 481.7,66.1 488.4,66.1 495.2,66.1 501.9,66.1 508.7,66.1 515.4,66.1 522.2,66.1 528.9,66.1 535.7,66.1 542.5,66.1 549.2,66.1 556.0,66.1 562.7,66.1 569.5,66.1 576.2,66.1 583.0,67.3 589.7,67.3 596.5,67.3 603.2,51.5 610.0,51.5 616.7,48.4 623.5,48.4 630.2,48.2 637.0,47.9 643.7,47.9 650.5,47.7 657.2,45.5 664.0,36.0"/><circle cx="36.0" cy="134.8" r="3" fill="#4aa3ff"/><circle cx="42.8" cy="134.8" r="3" fill="#4aa3ff"/><circle cx="49.5" cy="134.8" r="3" fill="#4aa3ff"/><circle cx="56.3" cy="134.8" r="3" fill="#4aa3ff"/><circle cx="63.0" cy="134.8" r="3" fill="#4aa3ff"/><circle cx="69.8" cy="134.8" r="3" fill="#4aa3ff"/><circle cx="76.5" cy="134.8" r="3" fill="#4aa3ff"/><circle cx="83.3" cy="134.8" r="3" fill="#4aa3ff"/><circle cx="90.0" cy="134.8" r="3" fill="#4aa3ff"/><circle cx="96.8" cy="134.8" r="3" fill="#4aa3ff"/><circle cx="103.5" cy="134.8" r="3" fill="#4aa3ff"/><circle cx="110.3" cy="134.8" r="3" fill="#4aa3ff"/><circle cx="117.0" cy="134.8" r="3" fill="#4aa3ff"/><circle cx="123.8" cy="134.8" r="3" fill="#4aa3ff"/><circle cx="130.5" cy="134.8" r="3" fill="#4aa3ff"/><circle cx="137.3" cy="125.2" r="3" fill="#4aa3ff"/><circle cx="144.0" cy="120.7" r="3" fill="#4aa3ff"/><circle cx="150.8" cy="117.4" r="3" fill="#4aa3ff"/><circle cx="157.5" cy="117.4" r="3" fill="#4aa3ff"/><circle cx="164.3" cy="107.3" r="3" fill="#4aa3ff"/><circle cx="171.1" cy="107.3" r="3" fill="#4aa3ff"/><circle cx="177.8" cy="107.3" r="3" fill="#4aa3ff"/><circle cx="184.6" cy="99.5" r="3" fill="#4aa3ff"/><circle cx="191.3" cy="99.5" r="3" fill="#4aa3ff"/><circle cx="198.1" cy="99.5" r="3" fill="#4aa3ff"/><circle cx="204.8" cy="95.9" r="3" fill="#4aa3ff"/><circle cx="211.6" cy="95.4" r="3" fill="#4aa3ff"/><circle cx="218.3" cy="95.4" r="3" fill="#4aa3ff"/><circle cx="225.1" cy="94.9" r="3" fill="#4aa3ff"/><circle cx="231.8" cy="94.9" r="3" fill="#4aa3ff"/><circle cx="238.6" cy="94.2" r="3" fill="#4aa3ff"/><circle cx="245.3" cy="92.8" r="3" fill="#4aa3ff"/><circle cx="252.1" cy="91.1" r="3" fill="#4aa3ff"/><circle cx="258.8" cy="90.6" r="3" fill="#4aa3ff"/><circle cx="265.6" cy="90.6" r="3" fill="#4aa3ff"/><circle cx="272.3" cy="90.6" r="3" fill="#4aa3ff"/><circle cx="279.1" cy="90.6" r="3" fill="#4aa3ff"/><circle cx="285.8" cy="90.6" r="3" fill="#4aa3ff"/><circle cx="292.6" cy="90.6" r="3" fill="#4aa3ff"/><circle cx="299.4" cy="90.6" r="3" fill="#4aa3ff"/><circle cx="306.1" cy="90.6" r="3" fill="#4aa3ff"/><circle cx="312.9" cy="90.6" r="3" fill="#4aa3ff"/><circle cx="319.6" cy="90.6" r="3" fill="#4aa3ff"/><circle cx="326.4" cy="98.0" r="3" fill="#4aa3ff"/><circle cx="333.1" cy="98.0" r="3" fill="#4aa3ff"/><circle cx="339.9" cy="98.0" r="3" fill="#4aa3ff"/><circle cx="346.6" cy="98.0" r="3" fill="#4aa3ff"/><circle cx="353.4" cy="98.0" r="3" fill="#4aa3ff"/><circle cx="360.1" cy="95.2" r="3" fill="#4aa3ff"/><circle cx="366.9" cy="88.7" r="3" fill="#4aa3ff"/><circle cx="373.6" cy="63.0" r="3" fill="#4aa3ff"/><circle cx="380.4" cy="63.0" r="3" fill="#4aa3ff"/><circle cx="387.1" cy="65.6" r="3" fill="#4aa3ff"/><circle cx="393.9" cy="65.6" r="3" fill="#4aa3ff"/><circle cx="400.6" cy="65.6" r="3" fill="#4aa3ff"/><circle cx="407.4" cy="65.6" r="3" fill="#4aa3ff"/><circle cx="414.2" cy="65.6" r="3" fill="#4aa3ff"/><circle cx="420.9" cy="65.8" r="3" fill="#4aa3ff"/><circle cx="427.7" cy="65.8" r="3" fill="#4aa3ff"/><circle cx="434.4" cy="65.8" r="3" fill="#4aa3ff"/><circle cx="441.2" cy="66.1" r="3" fill="#4aa3ff"/><circle cx="447.9" cy="66.1" r="3" fill="#4aa3ff"/><circle cx="454.7" cy="66.1" r="3" fill="#4aa3ff"/><circle cx="461.4" cy="66.1" r="3" fill="#4aa3ff"/><circle cx="468.2" cy="66.1" r="3" fill="#4aa3ff"/><circle cx="474.9" cy="66.1" r="3" fill="#4aa3ff"/><circle cx="481.7" cy="66.1" r="3" fill="#4aa3ff"/><circle cx="488.4" cy="66.1" r="3" fill="#4aa3ff"/><circle cx="495.2" cy="66.1" r="3" fill="#4aa3ff"/><circle cx="501.9" cy="66.1" r="3" fill="#4aa3ff"/><circle cx="508.7" cy="66.1" r="3" fill="#4aa3ff"/><circle cx="515.4" cy="66.1" r="3" fill="#4aa3ff"/><circle cx="522.2" cy="66.1" r="3" fill="#4aa3ff"/><circle cx="528.9" cy="66.1" r="3" fill="#4aa3ff"/><circle cx="535.7" cy="66.1" r="3" fill="#4aa3ff"/><circle cx="542.5" cy="66.1" r="3" fill="#4aa3ff"/><circle cx="549.2" cy="66.1" r="3" fill="#4aa3ff"/><circle cx="556.0" cy="66.1" r="3" fill="#4aa3ff"/><circle cx="562.7" cy="66.1" r="3" fill="#4aa3ff"/><circle cx="569.5" cy="66.1" r="3" fill="#4aa3ff"/><circle cx="576.2" cy="66.1" r="3" fill="#4aa3ff"/><circle cx="583.0" cy="67.3" r="3" fill="#4aa3ff"/><circle cx="589.7" cy="67.3" r="3" fill="#4aa3ff"/><circle cx="596.5" cy="67.3" r="3" fill="#4aa3ff"/><circle cx="603.2" cy="51.5" r="3" fill="#4aa3ff"/><circle cx="610.0" cy="51.5" r="3" fill="#4aa3ff"/><circle cx="616.7" cy="48.4" r="3" fill="#4aa3ff"/><circle cx="623.5" cy="48.4" r="3" fill="#4aa3ff"/><circle cx="630.2" cy="48.2" r="3" fill="#4aa3ff"/><circle cx="637.0" cy="47.9" r="3" fill="#4aa3ff"/><circle cx="643.7" cy="47.9" r="3" fill="#4aa3ff"/><circle cx="650.5" cy="47.7" r="3" fill="#4aa3ff"/><circle cx="657.2" cy="45.5" r="3" fill="#4aa3ff"/><circle cx="664.0" cy="36.0" r="3" fill="#4aa3ff"/>
<text x="36" y="225" fill="#6b7280" font-size="11">2026-06-26</text>
<text x="664" y="225" fill="#6b7280" font-size="11" text-anchor="end">2026-07-06</text>
<text x="36" y="212" font-family="system-ui,sans-serif" font-size="11">
<tspan fill="#4aa3ff">&#9679; open FPs</tspan>  <tspan fill="#3fb950">&#9679; closed (Anthropic acting)</tspan>  <tspan fill="#8a5a5a">&#9679; harness withdrawn</tspan></text>
<text x="664" y="22" text-anchor="end" font-family="system-ui,sans-serif" font-size="12">
<tspan fill="#4aa3ff">open 679</tspan>  <tspan fill="#3fb950">closed 35</tspan>  <tspan fill="#8a5a5a">harness 86</tspan></text>
</svg>