<svg xmlns="http://www.w3.org/2000/svg" width="700" height="234" viewBox="0 0 700 234" role="img">
<rect width="700" height="234" rx="12" fill="#16181d"/>
<text x="36" y="22" fill="#e8eaed" font-family="system-ui,sans-serif" font-size="14" font-weight="700">Is Anthropic acting? cyber/aup false positives over time</text>
<line x1="36" y1="198.0" x2="664" y2="198.0" stroke="#2a2e37" stroke-width="1"/><text x="30" y="202.0" fill="#6b7280" font-size="11" text-anchor="end">0</text><line x1="36" y1="117.0" x2="664" y2="117.0" stroke="#2a2e37" stroke-width="1"/><text x="30" y="121.0" fill="#6b7280" font-size="11" text-anchor="end">225</text><line x1="36" y1="36.0" x2="664" y2="36.0" stroke="#2a2e37" stroke-width="1"/><text x="30" y="40.0" fill="#6b7280" font-size="11" text-anchor="end">450</text>

<polyline fill="none" stroke="#8a5a5a" stroke-width="2.5" stroke-linejoin="round" points="36.0,104.0 49.1,104.0 62.2,104.0 75.2,104.0 88.3,104.0 101.4,104.0 114.5,104.0 127.6,104.0 140.7,104.0 153.8,104.0 166.8,104.0 179.9,104.0 193.0,104.0 206.1,104.0 219.2,104.0 232.2,104.0 245.3,104.0 258.4,104.0 271.5,104.0 284.6,104.0 297.7,104.0 310.8,104.0 323.8,104.0 336.9,104.0 350.0,104.0 363.1,104.0 376.2,104.0 389.2,104.0 402.3,104.0 415.4,104.0 428.5,104.0 441.6,104.0 454.7,104.0 467.8,104.0 480.8,104.0 493.9,104.0 507.0,104.0 520.1,104.0 533.2,104.0 546.2,104.0 559.3,104.0 572.4,104.0 585.5,104.0 598.6,104.0 611.7,104.0 624.8,104.0 637.8,104.0 650.9,104.0 664.0,104.0"/><circle cx="36.0" cy="104.0" r="3" fill="#8a5a5a"/><circle cx="49.1" cy="104.0" r="3" fill="#8a5a5a"/><circle cx="62.2" cy="104.0" r="3" fill="#8a5a5a"/><circle cx="75.2" cy="104.0" r="3" fill="#8a5a5a"/><circle cx="88.3" cy="104.0" r="3" fill="#8a5a5a"/><circle cx="101.4" cy="104.0" r="3" fill="#8a5a5a"/><circle cx="114.5" cy="104.0" r="3" fill="#8a5a5a"/><circle cx="127.6" cy="104.0" r="3" fill="#8a5a5a"/><circle cx="140.7" cy="104.0" r="3" fill="#8a5a5a"/><circle cx="153.8" cy="104.0" r="3" fill="#8a5a5a"/><circle cx="166.8" cy="104.0" r="3" fill="#8a5a5a"/><circle cx="179.9" cy="104.0" r="3" fill="#8a5a5a"/><circle cx="193.0" cy="104.0" r="3" fill="#8a5a5a"/><circle cx="206.1" cy="104.0" r="3" fill="#8a5a5a"/><circle cx="219.2" cy="104.0" r="3" fill="#8a5a5a"/><circle cx="232.2" cy="104.0" r="3" fill="#8a5a5a"/><circle cx="245.3" cy="104.0" r="3" fill="#8a5a5a"/><circle cx="258.4" cy="104.0" r="3" fill="#8a5a5a"/><circle cx="271.5" cy="104.0" r="3" fill="#8a5a5a"/><circle cx="284.6" cy="104.0" r="3" fill="#8a5a5a"/><circle cx="297.7" cy="104.0" r="3" fill="#8a5a5a"/><circle cx="310.8" cy="104.0" r="3" fill="#8a5a5a"/><circle cx="323.8" cy="104.0" r="3" fill="#8a5a5a"/><circle cx="336.9" cy="104.0" r="3" fill="#8a5a5a"/><circle cx="350.0" cy="104.0" r="3" fill="#8a5a5a"/><circle cx="363.1" cy="104.0" r="3" fill="#8a5a5a"/><circle cx="376.2" cy="104.0" r="3" fill="#8a5a5a"/><circle cx="389.2" cy="104.0" r="3" fill="#8a5a5a"/><circle cx="402.3" cy="104.0" r="3" fill="#8a5a5a"/><circle cx="415.4" cy="104.0" r="3" fill="#8a5a5a"/><circle cx="428.5" cy="104.0" r="3" fill="#8a5a5a"/><circle cx="441.6" cy="104.0" r="3" fill="#8a5a5a"/><circle cx="454.7" cy="104.0" r="3" fill="#8a5a5a"/><circle cx="467.8" cy="104.0" r="3" fill="#8a5a5a"/><circle cx="480.8" cy="104.0" r="3" fill="#8a5a5a"/><circle cx="493.9" cy="104.0" r="3" fill="#8a5a5a"/><circle cx="507.0" cy="104.0" r="3" fill="#8a5a5a"/><circle cx="520.1" cy="104.0" r="3" fill="#8a5a5a"/><circle cx="533.2" cy="104.0" r="3" fill="#8a5a5a"/><circle cx="546.2" cy="104.0" r="3" fill="#8a5a5a"/><circle cx="559.3" cy="104.0" r="3" fill="#8a5a5a"/><circle cx="572.4" cy="104.0" r="3" fill="#8a5a5a"/><circle cx="585.5" cy="104.0" r="3" fill="#8a5a5a"/><circle cx="598.6" cy="104.0" r="3" fill="#8a5a5a"/><circle cx="611.7" cy="104.0" r="3" fill="#8a5a5a"/><circle cx="624.8" cy="104.0" r="3" fill="#8a5a5a"/><circle cx="637.8" cy="104.0" r="3" fill="#8a5a5a"/><circle cx="650.9" cy="104.0" r="3" fill="#8a5a5a"/><circle cx="664.0" cy="104.0" r="3" fill="#8a5a5a"/>
<polyline fill="none" stroke="#3fb950" stroke-width="2.5" stroke-linejoin="round" points="36.0,198.0 49.1,198.0 62.2,198.0 75.2,198.0 88.3,198.0 101.4,198.0 114.5,198.0 127.6,198.0 140.7,198.0 153.8,198.0 166.8,198.0 179.9,198.0 193.0,198.0 206.1,198.0 219.2,198.0 232.2,198.0 245.3,198.0 258.4,198.0 271.5,198.0 284.6,198.0 297.7,198.0 310.8,198.0 323.8,198.0 336.9,198.0 350.0,198.0 363.1,198.0 376.2,198.0 389.2,198.0 402.3,198.0 415.4,198.0 428.5,198.0 441.6,198.0 454.7,198.0 467.8,198.0 480.8,198.0 493.9,198.0 507.0,198.0 520.1,198.0 533.2,198.0 546.2,198.0 559.3,198.0 572.4,198.0 585.5,198.0 598.6,186.8 611.7,186.8 624.8,186.8 637.8,186.8 650.9,186.8 664.0,186.8"/><circle cx="36.0" cy="198.0" r="3" fill="#3fb950"/><circle cx="49.1" cy="198.0" r="3" fill="#3fb950"/><circle cx="62.2" cy="198.0" r="3" fill="#3fb950"/><circle cx="75.2" cy="198.0" r="3" fill="#3fb950"/><circle cx="88.3" cy="198.0" r="3" fill="#3fb950"/><circle cx="101.4" cy="198.0" r="3" fill="#3fb950"/><circle cx="114.5" cy="198.0" r="3" fill="#3fb950"/><circle cx="127.6" cy="198.0" r="3" fill="#3fb950"/><circle cx="140.7" cy="198.0" r="3" fill="#3fb950"/><circle cx="153.8" cy="198.0" r="3" fill="#3fb950"/><circle cx="166.8" cy="198.0" r="3" fill="#3fb950"/><circle cx="179.9" cy="198.0" r="3" fill="#3fb950"/><circle cx="193.0" cy="198.0" r="3" fill="#3fb950"/><circle cx="206.1" cy="198.0" r="3" fill="#3fb950"/><circle cx="219.2" cy="198.0" r="3" fill="#3fb950"/><circle cx="232.2" cy="198.0" r="3" fill="#3fb950"/><circle cx="245.3" cy="198.0" r="3" fill="#3fb950"/><circle cx="258.4" cy="198.0" r="3" fill="#3fb950"/><circle cx="271.5" cy="198.0" r="3" fill="#3fb950"/><circle cx="284.6" cy="198.0" r="3" fill="#3fb950"/><circle cx="297.7" cy="198.0" r="3" fill="#3fb950"/><circle cx="310.8" cy="198.0" r="3" fill="#3fb950"/><circle cx="323.8" cy="198.0" r="3" fill="#3fb950"/><circle cx="336.9" cy="198.0" r="3" fill="#3fb950"/><circle cx="350.0" cy="198.0" r="3" fill="#3fb950"/><circle cx="363.1" cy="198.0" r="3" fill="#3fb950"/><circle cx="376.2" cy="198.0" r="3" fill="#3fb950"/><circle cx="389.2" cy="198.0" r="3" fill="#3fb950"/><circle cx="402.3" cy="198.0" r="3" fill="#3fb950"/><circle cx="415.4" cy="198.0" r="3" fill="#3fb950"/><circle cx="428.5" cy="198.0" r="3" fill="#3fb950"/><circle cx="441.6" cy="198.0" r="3" fill="#3fb950"/><circle cx="454.7" cy="198.0" r="3" fill="#3fb950"/><circle cx="467.8" cy="198.0" r="3" fill="#3fb950"/><circle cx="480.8" cy="198.0" r="3" fill="#3fb950"/><circle cx="493.9" cy="198.0" r="3" fill="#3fb950"/><circle cx="507.0" cy="198.0" r="3" fill="#3fb950"/><circle cx="520.1" cy="198.0" r="3" fill="#3fb950"/><circle cx="533.2" cy="198.0" r="3" fill="#3fb950"/><circle cx="546.2" cy="198.0" r="3" fill="#3fb950"/><circle cx="559.3" cy="198.0" r="3" fill="#3fb950"/><circle cx="572.4" cy="198.0" r="3" fill="#3fb950"/><circle cx="585.5" cy="198.0" r="3" fill="#3fb950"/><circle cx="598.6" cy="186.8" r="3" fill="#3fb950"/><circle cx="611.7" cy="186.8" r="3" fill="#3fb950"/><circle cx="624.8" cy="186.8" r="3" fill="#3fb950"/><circle cx="637.8" cy="186.8" r="3" fill="#3fb950"/><circle cx="650.9" cy="186.8" r="3" fill="#3fb950"/><circle cx="664.0" cy="186.8" r="3" fill="#3fb950"/>
<polyline fill="none" stroke="#4aa3ff" stroke-width="2.5" stroke-linejoin="round" points="36.0,102.6 49.1,102.6 62.2,102.6 75.2,102.6 88.3,102.6 101.4,102.6 114.5,102.6 127.6,102.6 140.7,102.6 153.8,102.6 166.8,102.6 179.9,102.6 193.0,102.6 206.1,102.6 219.2,102.6 232.2,88.2 245.3,81.4 258.4,76.3 271.5,76.3 284.6,61.2 297.7,61.2 310.8,61.2 323.8,49.3 336.9,49.3 350.0,49.3 363.1,43.9 376.2,43.2 389.2,43.2 402.3,42.5 415.4,42.5 428.5,41.4 441.6,39.2 454.7,36.7 467.8,36.0 480.8,36.0 493.9,36.0 507.0,36.0 520.1,36.0 533.2,36.0 546.2,36.0 559.3,36.0 572.4,36.0 585.5,36.0 598.6,47.2 611.7,47.2 624.8,47.2 637.8,47.2 650.9,47.2 664.0,42.8"/><circle cx="36.0" cy="102.6" r="3" fill="#4aa3ff"/><circle cx="49.1" cy="102.6" r="3" fill="#4aa3ff"/><circle cx="62.2" cy="102.6" r="3" fill="#4aa3ff"/><circle cx="75.2" cy="102.6" r="3" fill="#4aa3ff"/><circle cx="88.3" cy="102.6" r="3" fill="#4aa3ff"/><circle cx="101.4" cy="102.6" r="3" fill="#4aa3ff"/><circle cx="114.5" cy="102.6" r="3" fill="#4aa3ff"/><circle cx="127.6" cy="102.6" r="3" fill="#4aa3ff"/><circle cx="140.7" cy="102.6" r="3" fill="#4aa3ff"/><circle cx="153.8" cy="102.6" r="3" fill="#4aa3ff"/><circle cx="166.8" cy="102.6" r="3" fill="#4aa3ff"/><circle cx="179.9" cy="102.6" r="3" fill="#4aa3ff"/><circle cx="193.0" cy="102.6" r="3" fill="#4aa3ff"/><circle cx="206.1" cy="102.6" r="3" fill="#4aa3ff"/><circle cx="219.2" cy="102.6" r="3" fill="#4aa3ff"/><circle cx="232.2" cy="88.2" r="3" fill="#4aa3ff"/><circle cx="245.3" cy="81.4" r="3" fill="#4aa3ff"/><circle cx="258.4" cy="76.3" r="3" fill="#4aa3ff"/><circle cx="271.5" cy="76.3" r="3" fill="#4aa3ff"/><circle cx="284.6" cy="61.2" r="3" fill="#4aa3ff"/><circle cx="297.7" cy="61.2" r="3" fill="#4aa3ff"/><circle cx="310.8" cy="61.2" r="3" fill="#4aa3ff"/><circle cx="323.8" cy="49.3" r="3" fill="#4aa3ff"/><circle cx="336.9" cy="49.3" r="3" fill="#4aa3ff"/><circle cx="350.0" cy="49.3" r="3" fill="#4aa3ff"/><circle cx="363.1" cy="43.9" r="3" fill="#4aa3ff"/><circle cx="376.2" cy="43.2" r="3" fill="#4aa3ff"/><circle cx="389.2" cy="43.2" r="3" fill="#4aa3ff"/><circle cx="402.3" cy="42.5" r="3" fill="#4aa3ff"/><circle cx="415.4" cy="42.5" r="3" fill="#4aa3ff"/><circle cx="428.5" cy="41.4" r="3" fill="#4aa3ff"/><circle cx="441.6" cy="39.2" r="3" fill="#4aa3ff"/><circle cx="454.7" cy="36.7" r="3" fill="#4aa3ff"/><circle cx="467.8" cy="36.0" r="3" fill="#4aa3ff"/><circle cx="480.8" cy="36.0" r="3" fill="#4aa3ff"/><circle cx="493.9" cy="36.0" r="3" fill="#4aa3ff"/><circle cx="507.0" cy="36.0" r="3" fill="#4aa3ff"/><circle cx="520.1" cy="36.0" r="3" fill="#4aa3ff"/><circle cx="533.2" cy="36.0" r="3" fill="#4aa3ff"/><circle cx="546.2" cy="36.0" r="3" fill="#4aa3ff"/><circle cx="559.3" cy="36.0" r="3" fill="#4aa3ff"/><circle cx="572.4" cy="36.0" r="3" fill="#4aa3ff"/><circle cx="585.5" cy="36.0" r="3" fill="#4aa3ff"/><circle cx="598.6" cy="47.2" r="3" fill="#4aa3ff"/><circle cx="611.7" cy="47.2" r="3" fill="#4aa3ff"/><circle cx="624.8" cy="47.2" r="3" fill="#4aa3ff"/><circle cx="637.8" cy="47.2" r="3" fill="#4aa3ff"/><circle cx="650.9" cy="47.2" r="3" fill="#4aa3ff"/><circle cx="664.0" cy="42.8" r="3" fill="#4aa3ff"/>
<text x="36" y="225" fill="#6b7280" font-size="11">2026-06-26</text>
<text x="664" y="225" fill="#6b7280" font-size="11" text-anchor="end">2026-07-01</text>
<text x="36" y="212" font-family="system-ui,sans-serif" font-size="11">
<tspan fill="#4aa3ff">&#9679; open FPs</tspan>  <tspan fill="#3fb950">&#9679; closed (Anthropic acting)</tspan>  <tspan fill="#8a5a5a">&#9679; harness withdrawn</tspan></text>
<text x="664" y="22" text-anchor="end" font-family="system-ui,sans-serif" font-size="12">
<tspan fill="#4aa3ff">open 431</tspan>  <tspan fill="#3fb950">closed 31</tspan>  <tspan fill="#8a5a5a">harness 261</tspan></text>
</svg>