<svg xmlns="http://www.w3.org/2000/svg" width="700" height="234" viewBox="0 0 700 234" role="img">
<rect width="700" height="234" rx="12" fill="#16181d"/>
<text x="36" y="22" fill="#e8eaed" font-family="system-ui,sans-serif" font-size="14" font-weight="700">Is Anthropic acting? cyber/aup false positives over time</text>
<line x1="36" y1="198.0" x2="664" y2="198.0" stroke="#2a2e37" stroke-width="1"/><text x="30" y="202.0" fill="#6b7280" font-size="11" text-anchor="end">0</text><line x1="36" y1="117.0" x2="664" y2="117.0" stroke="#2a2e37" stroke-width="1"/><text x="30" y="121.0" fill="#6b7280" font-size="11" text-anchor="end">400</text><line x1="36" y1="36.0" x2="664" y2="36.0" stroke="#2a2e37" stroke-width="1"/><text x="30" y="40.0" fill="#6b7280" font-size="11" text-anchor="end">800</text>

<polyline fill="none" stroke="#8a5a5a" stroke-width="2.5" stroke-linejoin="round" points="36.0,145.1 39.5,145.1 43.1,145.1 46.6,145.1 50.2,145.1 53.7,145.1 57.3,145.1 60.8,145.1 64.4,145.1 67.9,145.1 71.5,145.1 75.0,145.1 78.6,145.1 82.1,145.1 85.7,145.1 89.2,145.1 92.8,145.1 96.3,145.1 99.9,145.1 103.4,145.1 107.0,145.1 110.5,145.1 114.1,145.1 117.6,145.1 121.2,145.1 124.7,145.1 128.2,145.1 131.8,145.1 135.3,145.1 138.9,145.1 142.4,145.1 146.0,145.1 149.5,145.1 153.1,145.1 156.6,145.1 160.2,145.1 163.7,145.1 167.3,145.1 170.8,145.1 174.4,145.1 177.9,145.1 181.5,145.1 185.0,145.1 188.6,145.1 192.1,145.1 195.7,145.1 199.2,145.1 202.8,145.1 206.3,145.1 209.9,145.1 213.4,155.7 216.9,155.7 220.5,155.7 224.0,155.7 227.6,155.7 231.1,155.7 234.7,155.7 238.2,155.7 241.8,155.7 245.3,155.7 248.9,155.7 252.4,155.7 256.0,155.7 259.5,155.7 263.1,155.7 266.6,155.7 270.2,155.7 273.7,155.7 277.3,155.7 280.8,155.7 284.4,155.7 287.9,155.7 291.5,155.7 295.0,155.7 298.6,155.7 302.1,155.7 305.6,155.7 309.2,155.7 312.7,155.7 316.3,155.7 319.8,155.7 323.4,155.7 326.9,155.7 330.5,155.7 334.0,167.6 337.6,167.6 341.1,170.3 344.7,170.3 348.2,170.5 351.8,170.7 355.3,170.7 358.9,170.9 362.4,172.7 366.0,180.6 369.5,181.8 373.1,189.1 376.6,190.5 380.2,195.2 383.7,198.0 387.3,198.0 390.8,198.0 394.4,198.0 397.9,198.0 401.4,198.0 405.0,198.0 408.5,198.0 412.1,198.0 415.6,198.0 419.2,198.0 422.7,198.0 426.3,198.0 429.8,198.0 433.4,198.0 436.9,198.0 440.5,198.0 444.0,198.0 447.6,198.0 451.1,198.0 454.7,198.0 458.2,198.0 461.8,198.0 465.3,198.0 468.9,198.0 472.4,198.0 476.0,198.0 479.5,198.0 483.1,198.0 486.6,198.0 490.1,198.0 493.7,198.0 497.2,198.0 500.8,198.0 504.3,198.0 507.9,198.0 511.4,198.0 515.0,198.0 518.5,198.0 522.1,198.0 525.6,198.0 529.2,198.0 532.7,198.0 536.3,198.0 539.8,198.0 543.4,198.0 546.9,198.0 550.5,198.0 554.0,198.0 557.6,198.0 561.1,198.0 564.7,198.0 568.2,198.0 571.8,198.0 575.3,198.0 578.8,198.0 582.4,198.0 585.9,198.0 589.5,198.0 593.0,198.0 596.6,198.0 600.1,198.0 603.7,198.0 607.2,198.0 610.8,198.0 614.3,198.0 617.9,198.0 621.4,198.0 625.0,198.0 628.5,198.0 632.1,198.0 635.6,198.0 639.2,198.0 642.7,198.0 646.3,198.0 649.8,198.0 653.4,198.0 656.9,198.0 660.5,198.0 664.0,198.0"/><circle cx="36.0" cy="145.1" r="3" fill="#8a5a5a"/><circle cx="39.5" cy="145.1" r="3" fill="#8a5a5a"/><circle cx="43.1" cy="145.1" r="3" fill="#8a5a5a"/><circle cx="46.6" cy="145.1" r="3" fill="#8a5a5a"/><circle cx="50.2" cy="145.1" r="3" fill="#8a5a5a"/><circle cx="53.7" cy="145.1" r="3" fill="#8a5a5a"/><circle cx="57.3" cy="145.1" r="3" fill="#8a5a5a"/><circle cx="60.8" cy="145.1" r="3" fill="#8a5a5a"/><circle cx="64.4" cy="145.1" r="3" fill="#8a5a5a"/><circle cx="67.9" cy="145.1" r="3" fill="#8a5a5a"/><circle cx="71.5" cy="145.1" r="3" fill="#8a5a5a"/><circle cx="75.0" cy="145.1" r="3" fill="#8a5a5a"/><circle cx="78.6" cy="145.1" r="3" fill="#8a5a5a"/><circle cx="82.1" cy="145.1" r="3" fill="#8a5a5a"/><circle cx="85.7" cy="145.1" r="3" fill="#8a5a5a"/><circle cx="89.2" cy="145.1" r="3" fill="#8a5a5a"/><circle cx="92.8" cy="145.1" r="3" fill="#8a5a5a"/><circle cx="96.3" cy="145.1" r="3" fill="#8a5a5a"/><circle cx="99.9" cy="145.1" r="3" fill="#8a5a5a"/><circle cx="103.4" cy="145.1" r="3" fill="#8a5a5a"/><circle cx="107.0" cy="145.1" r="3" fill="#8a5a5a"/><circle cx="110.5" cy="145.1" r="3" fill="#8a5a5a"/><circle cx="114.1" cy="145.1" r="3" fill="#8a5a5a"/><circle cx="117.6" cy="145.1" r="3" fill="#8a5a5a"/><circle cx="121.2" cy="145.1" r="3" fill="#8a5a5a"/><circle cx="124.7" cy="145.1" r="3" fill="#8a5a5a"/><circle cx="128.2" cy="145.1" r="3" fill="#8a5a5a"/><circle cx="131.8" cy="145.1" r="3" fill="#8a5a5a"/><circle cx="135.3" cy="145.1" r="3" fill="#8a5a5a"/><circle cx="138.9" cy="145.1" r="3" fill="#8a5a5a"/><circle cx="142.4" cy="145.1" r="3" fill="#8a5a5a"/><circle cx="146.0" cy="145.1" r="3" fill="#8a5a5a"/><circle cx="149.5" cy="145.1" r="3" fill="#8a5a5a"/><circle cx="153.1" cy="145.1" r="3" fill="#8a5a5a"/><circle cx="156.6" cy="145.1" r="3" fill="#8a5a5a"/><circle cx="160.2" cy="145.1" r="3" fill="#8a5a5a"/><circle cx="163.7" cy="145.1" r="3" fill="#8a5a5a"/><circle cx="167.3" cy="145.1" r="3" fill="#8a5a5a"/><circle cx="170.8" cy="145.1" r="3" fill="#8a5a5a"/><circle cx="174.4" cy="145.1" r="3" fill="#8a5a5a"/><circle cx="177.9" cy="145.1" r="3" fill="#8a5a5a"/><circle cx="181.5" cy="145.1" r="3" fill="#8a5a5a"/><circle cx="185.0" cy="145.1" r="3" fill="#8a5a5a"/><circle cx="188.6" cy="145.1" r="3" fill="#8a5a5a"/><circle cx="192.1" cy="145.1" r="3" fill="#8a5a5a"/><circle cx="195.7" cy="145.1" r="3" fill="#8a5a5a"/><circle cx="199.2" cy="145.1" r="3" fill="#8a5a5a"/><circle cx="202.8" cy="145.1" r="3" fill="#8a5a5a"/><circle cx="206.3" cy="145.1" r="3" fill="#8a5a5a"/><circle cx="209.9" cy="145.1" r="3" fill="#8a5a5a"/><circle cx="213.4" cy="155.7" r="3" fill="#8a5a5a"/><circle cx="216.9" cy="155.7" r="3" fill="#8a5a5a"/><circle cx="220.5" cy="155.7" r="3" fill="#8a5a5a"/><circle cx="224.0" cy="155.7" r="3" fill="#8a5a5a"/><circle cx="227.6" cy="155.7" r="3" fill="#8a5a5a"/><circle cx="231.1" cy="155.7" r="3" fill="#8a5a5a"/><circle cx="234.7" cy="155.7" r="3" fill="#8a5a5a"/><circle cx="238.2" cy="155.7" r="3" fill="#8a5a5a"/><circle cx="241.8" cy="155.7" r="3" fill="#8a5a5a"/><circle cx="245.3" cy="155.7" r="3" fill="#8a5a5a"/><circle cx="248.9" cy="155.7" r="3" fill="#8a5a5a"/><circle cx="252.4" cy="155.7" r="3" fill="#8a5a5a"/><circle cx="256.0" cy="155.7" r="3" fill="#8a5a5a"/><circle cx="259.5" cy="155.7" r="3" fill="#8a5a5a"/><circle cx="263.1" cy="155.7" r="3" fill="#8a5a5a"/><circle cx="266.6" cy="155.7" r="3" fill="#8a5a5a"/><circle cx="270.2" cy="155.7" r="3" fill="#8a5a5a"/><circle cx="273.7" cy="155.7" r="3" fill="#8a5a5a"/><circle cx="277.3" cy="155.7" r="3" fill="#8a5a5a"/><circle cx="280.8" cy="155.7" r="3" fill="#8a5a5a"/><circle cx="284.4" cy="155.7" r="3" fill="#8a5a5a"/><circle cx="287.9" cy="155.7" r="3" fill="#8a5a5a"/><circle cx="291.5" cy="155.7" r="3" fill="#8a5a5a"/><circle cx="295.0" cy="155.7" r="3" fill="#8a5a5a"/><circle cx="298.6" cy="155.7" r="3" fill="#8a5a5a"/><circle cx="302.1" cy="155.7" r="3" fill="#8a5a5a"/><circle cx="305.6" cy="155.7" r="3" fill="#8a5a5a"/><circle cx="309.2" cy="155.7" r="3" fill="#8a5a5a"/><circle cx="312.7" cy="155.7" r="3" fill="#8a5a5a"/><circle cx="316.3" cy="155.7" r="3" fill="#8a5a5a"/><circle cx="319.8" cy="155.7" r="3" fill="#8a5a5a"/><circle cx="323.4" cy="155.7" r="3" fill="#8a5a5a"/><circle cx="326.9" cy="155.7" r="3" fill="#8a5a5a"/><circle cx="330.5" cy="155.7" r="3" fill="#8a5a5a"/><circle cx="334.0" cy="167.6" r="3" fill="#8a5a5a"/><circle cx="337.6" cy="167.6" r="3" fill="#8a5a5a"/><circle cx="341.1" cy="170.3" r="3" fill="#8a5a5a"/><circle cx="344.7" cy="170.3" r="3" fill="#8a5a5a"/><circle cx="348.2" cy="170.5" r="3" fill="#8a5a5a"/><circle cx="351.8" cy="170.7" r="3" fill="#8a5a5a"/><circle cx="355.3" cy="170.7" r="3" fill="#8a5a5a"/><circle cx="358.9" cy="170.9" r="3" fill="#8a5a5a"/><circle cx="362.4" cy="172.7" r="3" fill="#8a5a5a"/><circle cx="366.0" cy="180.6" r="3" fill="#8a5a5a"/><circle cx="369.5" cy="181.8" r="3" fill="#8a5a5a"/><circle cx="373.1" cy="189.1" r="3" fill="#8a5a5a"/><circle cx="376.6" cy="190.5" r="3" fill="#8a5a5a"/><circle cx="380.2" cy="195.2" r="3" fill="#8a5a5a"/><circle cx="383.7" cy="198.0" r="3" fill="#8a5a5a"/><circle cx="387.3" cy="198.0" r="3" fill="#8a5a5a"/><circle cx="390.8" cy="198.0" r="3" fill="#8a5a5a"/><circle cx="394.4" cy="198.0" r="3" fill="#8a5a5a"/><circle cx="397.9" cy="198.0" r="3" fill="#8a5a5a"/><circle cx="401.4" cy="198.0" r="3" fill="#8a5a5a"/><circle cx="405.0" cy="198.0" r="3" fill="#8a5a5a"/><circle cx="408.5" cy="198.0" r="3" fill="#8a5a5a"/><circle cx="412.1" cy="198.0" r="3" fill="#8a5a5a"/><circle cx="415.6" cy="198.0" r="3" fill="#8a5a5a"/><circle cx="419.2" cy="198.0" r="3" fill="#8a5a5a"/><circle cx="422.7" cy="198.0" r="3" fill="#8a5a5a"/><circle cx="426.3" cy="198.0" r="3" fill="#8a5a5a"/><circle cx="429.8" cy="198.0" r="3" fill="#8a5a5a"/><circle cx="433.4" cy="198.0" r="3" fill="#8a5a5a"/><circle cx="436.9" cy="198.0" r="3" fill="#8a5a5a"/><circle cx="440.5" cy="198.0" r="3" fill="#8a5a5a"/><circle cx="444.0" cy="198.0" r="3" fill="#8a5a5a"/><circle cx="447.6" cy="198.0" r="3" fill="#8a5a5a"/><circle cx="451.1" cy="198.0" r="3" fill="#8a5a5a"/><circle cx="454.7" cy="198.0" r="3" fill="#8a5a5a"/><circle cx="458.2" cy="198.0" r="3" fill="#8a5a5a"/><circle cx="461.8" cy="198.0" r="3" fill="#8a5a5a"/><circle cx="465.3" cy="198.0" r="3" fill="#8a5a5a"/><circle cx="468.9" cy="198.0" r="3" fill="#8a5a5a"/><circle cx="472.4" cy="198.0" r="3" fill="#8a5a5a"/><circle cx="476.0" cy="198.0" r="3" fill="#8a5a5a"/><circle cx="479.5" cy="198.0" r="3" fill="#8a5a5a"/><circle cx="483.1" cy="198.0" r="3" fill="#8a5a5a"/><circle cx="486.6" cy="198.0" r="3" fill="#8a5a5a"/><circle cx="490.1" cy="198.0" r="3" fill="#8a5a5a"/><circle cx="493.7" cy="198.0" r="3" fill="#8a5a5a"/><circle cx="497.2" cy="198.0" r="3" fill="#8a5a5a"/><circle cx="500.8" cy="198.0" r="3" fill="#8a5a5a"/><circle cx="504.3" cy="198.0" r="3" fill="#8a5a5a"/><circle cx="507.9" cy="198.0" r="3" fill="#8a5a5a"/><circle cx="511.4" cy="198.0" r="3" fill="#8a5a5a"/><circle cx="515.0" cy="198.0" r="3" fill="#8a5a5a"/><circle cx="518.5" cy="198.0" r="3" fill="#8a5a5a"/><circle cx="522.1" cy="198.0" r="3" fill="#8a5a5a"/><circle cx="525.6" cy="198.0" r="3" fill="#8a5a5a"/><circle cx="529.2" cy="198.0" r="3" fill="#8a5a5a"/><circle cx="532.7" cy="198.0" r="3" fill="#8a5a5a"/><circle cx="536.3" cy="198.0" r="3" fill="#8a5a5a"/><circle cx="539.8" cy="198.0" r="3" fill="#8a5a5a"/><circle cx="543.4" cy="198.0" r="3" fill="#8a5a5a"/><circle cx="546.9" cy="198.0" r="3" fill="#8a5a5a"/><circle cx="550.5" cy="198.0" r="3" fill="#8a5a5a"/><circle cx="554.0" cy="198.0" r="3" fill="#8a5a5a"/><circle cx="557.6" cy="198.0" r="3" fill="#8a5a5a"/><circle cx="561.1" cy="198.0" r="3" fill="#8a5a5a"/><circle cx="564.7" cy="198.0" r="3" fill="#8a5a5a"/><circle cx="568.2" cy="198.0" r="3" fill="#8a5a5a"/><circle cx="571.8" cy="198.0" r="3" fill="#8a5a5a"/><circle cx="575.3" cy="198.0" r="3" fill="#8a5a5a"/><circle cx="578.8" cy="198.0" r="3" fill="#8a5a5a"/><circle cx="582.4" cy="198.0" r="3" fill="#8a5a5a"/><circle cx="585.9" cy="198.0" r="3" fill="#8a5a5a"/><circle cx="589.5" cy="198.0" r="3" fill="#8a5a5a"/><circle cx="593.0" cy="198.0" r="3" fill="#8a5a5a"/><circle cx="596.6" cy="198.0" r="3" fill="#8a5a5a"/><circle cx="600.1" cy="198.0" r="3" fill="#8a5a5a"/><circle cx="603.7" cy="198.0" r="3" fill="#8a5a5a"/><circle cx="607.2" cy="198.0" r="3" fill="#8a5a5a"/><circle cx="610.8" cy="198.0" r="3" fill="#8a5a5a"/><circle cx="614.3" cy="198.0" r="3" fill="#8a5a5a"/><circle cx="617.9" cy="198.0" r="3" fill="#8a5a5a"/><circle cx="621.4" cy="198.0" r="3" fill="#8a5a5a"/><circle cx="625.0" cy="198.0" r="3" fill="#8a5a5a"/><circle cx="628.5" cy="198.0" r="3" fill="#8a5a5a"/><circle cx="632.1" cy="198.0" r="3" fill="#8a5a5a"/><circle cx="635.6" cy="198.0" r="3" fill="#8a5a5a"/><circle cx="639.2" cy="198.0" r="3" fill="#8a5a5a"/><circle cx="642.7" cy="198.0" r="3" fill="#8a5a5a"/><circle cx="646.3" cy="198.0" r="3" fill="#8a5a5a"/><circle cx="649.8" cy="198.0" r="3" fill="#8a5a5a"/><circle cx="653.4" cy="198.0" r="3" fill="#8a5a5a"/><circle cx="656.9" cy="198.0" r="3" fill="#8a5a5a"/><circle cx="660.5" cy="198.0" r="3" fill="#8a5a5a"/><circle cx="664.0" cy="198.0" r="3" fill="#8a5a5a"/>
<polyline fill="none" stroke="#3fb950" stroke-width="2.5" stroke-linejoin="round" points="36.0,198.0 39.5,198.0 43.1,198.0 46.6,198.0 50.2,198.0 53.7,198.0 57.3,198.0 60.8,198.0 64.4,198.0 67.9,198.0 71.5,198.0 75.0,198.0 78.6,198.0 82.1,198.0 85.7,198.0 89.2,198.0 92.8,198.0 96.3,198.0 99.9,198.0 103.4,198.0 107.0,198.0 110.5,198.0 114.1,198.0 117.6,198.0 121.2,198.0 124.7,198.0 128.2,198.0 131.8,198.0 135.3,198.0 138.9,198.0 142.4,198.0 146.0,198.0 149.5,198.0 153.1,198.0 156.6,198.0 160.2,198.0 163.7,198.0 167.3,198.0 170.8,198.0 174.4,198.0 177.9,198.0 181.5,198.0 185.0,198.0 188.6,191.7 192.1,191.7 195.7,191.7 199.2,191.7 202.8,191.7 206.3,191.7 209.9,191.7 213.4,192.9 216.9,192.9 220.5,190.7 224.0,190.7 227.6,190.7 231.1,190.7 234.7,190.7 238.2,190.5 241.8,190.5 245.3,190.5 248.9,190.3 252.4,190.3 256.0,190.3 259.5,190.3 263.1,190.3 266.6,190.3 270.2,190.3 273.7,190.3 277.3,190.3 280.8,190.3 284.4,190.3 287.9,190.3 291.5,190.3 295.0,190.3 298.6,190.3 302.1,190.3 305.6,190.3 309.2,190.3 312.7,190.3 316.3,190.3 319.8,190.3 323.4,189.3 326.9,189.3 330.5,189.3 334.0,190.7 337.6,190.7 341.1,190.7 344.7,190.7 348.2,190.7 351.8,190.7 355.3,190.7 358.9,190.7 362.4,190.7 366.0,190.9 369.5,190.9 373.1,190.9 376.6,194.2 380.2,196.8 383.7,198.0 387.3,198.0 390.8,198.0 394.4,198.0 397.9,198.0 401.4,198.0 405.0,198.0 408.5,198.0 412.1,198.0 415.6,198.0 419.2,198.0 422.7,198.0 426.3,198.0 429.8,198.0 433.4,198.0 436.9,198.0 440.5,198.0 444.0,198.0 447.6,198.0 451.1,198.0 454.7,198.0 458.2,198.0 461.8,198.0 465.3,198.0 468.9,198.0 472.4,198.0 476.0,198.0 479.5,198.0 483.1,198.0 486.6,198.0 490.1,198.0 493.7,198.0 497.2,198.0 500.8,198.0 504.3,198.0 507.9,198.0 511.4,198.0 515.0,198.0 518.5,198.0 522.1,198.0 525.6,198.0 529.2,198.0 532.7,198.0 536.3,198.0 539.8,198.0 543.4,198.0 546.9,198.0 550.5,198.0 554.0,198.0 557.6,198.0 561.1,198.0 564.7,198.0 568.2,198.0 571.8,198.0 575.3,198.0 578.8,198.0 582.4,198.0 585.9,198.0 589.5,198.0 593.0,198.0 596.6,198.0 600.1,198.0 603.7,198.0 607.2,198.0 610.8,198.0 614.3,198.0 617.9,198.0 621.4,198.0 625.0,198.0 628.5,198.0 632.1,198.0 635.6,198.0 639.2,198.0 642.7,198.0 646.3,198.0 649.8,198.0 653.4,198.0 656.9,198.0 660.5,198.0 664.0,198.0"/><circle cx="36.0" cy="198.0" r="3" fill="#3fb950"/><circle cx="39.5" cy="198.0" r="3" fill="#3fb950"/><circle cx="43.1" cy="198.0" r="3" fill="#3fb950"/><circle cx="46.6" cy="198.0" r="3" fill="#3fb950"/><circle cx="50.2" cy="198.0" r="3" fill="#3fb950"/><circle cx="53.7" cy="198.0" r="3" fill="#3fb950"/><circle cx="57.3" cy="198.0" r="3" fill="#3fb950"/><circle cx="60.8" cy="198.0" r="3" fill="#3fb950"/><circle cx="64.4" cy="198.0" r="3" fill="#3fb950"/><circle cx="67.9" cy="198.0" r="3" fill="#3fb950"/><circle cx="71.5" cy="198.0" r="3" fill="#3fb950"/><circle cx="75.0" cy="198.0" r="3" fill="#3fb950"/><circle cx="78.6" cy="198.0" r="3" fill="#3fb950"/><circle cx="82.1" cy="198.0" r="3" fill="#3fb950"/><circle cx="85.7" cy="198.0" r="3" fill="#3fb950"/><circle cx="89.2" cy="198.0" r="3" fill="#3fb950"/><circle cx="92.8" cy="198.0" r="3" fill="#3fb950"/><circle cx="96.3" cy="198.0" r="3" fill="#3fb950"/><circle cx="99.9" cy="198.0" r="3" fill="#3fb950"/><circle cx="103.4" cy="198.0" r="3" fill="#3fb950"/><circle cx="107.0" cy="198.0" r="3" fill="#3fb950"/><circle cx="110.5" cy="198.0" r="3" fill="#3fb950"/><circle cx="114.1" cy="198.0" r="3" fill="#3fb950"/><circle cx="117.6" cy="198.0" r="3" fill="#3fb950"/><circle cx="121.2" cy="198.0" r="3" fill="#3fb950"/><circle cx="124.7" cy="198.0" r="3" fill="#3fb950"/><circle cx="128.2" cy="198.0" r="3" fill="#3fb950"/><circle cx="131.8" cy="198.0" r="3" fill="#3fb950"/><circle cx="135.3" cy="198.0" r="3" fill="#3fb950"/><circle cx="138.9" cy="198.0" r="3" fill="#3fb950"/><circle cx="142.4" cy="198.0" r="3" fill="#3fb950"/><circle cx="146.0" cy="198.0" r="3" fill="#3fb950"/><circle cx="149.5" cy="198.0" r="3" fill="#3fb950"/><circle cx="153.1" cy="198.0" r="3" fill="#3fb950"/><circle cx="156.6" cy="198.0" r="3" fill="#3fb950"/><circle cx="160.2" cy="198.0" r="3" fill="#3fb950"/><circle cx="163.7" cy="198.0" r="3" fill="#3fb950"/><circle cx="167.3" cy="198.0" r="3" fill="#3fb950"/><circle cx="170.8" cy="198.0" r="3" fill="#3fb950"/><circle cx="174.4" cy="198.0" r="3" fill="#3fb950"/><circle cx="177.9" cy="198.0" r="3" fill="#3fb950"/><circle cx="181.5" cy="198.0" r="3" fill="#3fb950"/><circle cx="185.0" cy="198.0" r="3" fill="#3fb950"/><circle cx="188.6" cy="191.7" r="3" fill="#3fb950"/><circle cx="192.1" cy="191.7" r="3" fill="#3fb950"/><circle cx="195.7" cy="191.7" r="3" fill="#3fb950"/><circle cx="199.2" cy="191.7" r="3" fill="#3fb950"/><circle cx="202.8" cy="191.7" r="3" fill="#3fb950"/><circle cx="206.3" cy="191.7" r="3" fill="#3fb950"/><circle cx="209.9" cy="191.7" r="3" fill="#3fb950"/><circle cx="213.4" cy="192.9" r="3" fill="#3fb950"/><circle cx="216.9" cy="192.9" r="3" fill="#3fb950"/><circle cx="220.5" cy="190.7" r="3" fill="#3fb950"/><circle cx="224.0" cy="190.7" r="3" fill="#3fb950"/><circle cx="227.6" cy="190.7" r="3" fill="#3fb950"/><circle cx="231.1" cy="190.7" r="3" fill="#3fb950"/><circle cx="234.7" cy="190.7" r="3" fill="#3fb950"/><circle cx="238.2" cy="190.5" r="3" fill="#3fb950"/><circle cx="241.8" cy="190.5" r="3" fill="#3fb950"/><circle cx="245.3" cy="190.5" r="3" fill="#3fb950"/><circle cx="248.9" cy="190.3" r="3" fill="#3fb950"/><circle cx="252.4" cy="190.3" r="3" fill="#3fb950"/><circle cx="256.0" cy="190.3" r="3" fill="#3fb950"/><circle cx="259.5" cy="190.3" r="3" fill="#3fb950"/><circle cx="263.1" cy="190.3" r="3" fill="#3fb950"/><circle cx="266.6" cy="190.3" r="3" fill="#3fb950"/><circle cx="270.2" cy="190.3" r="3" fill="#3fb950"/><circle cx="273.7" cy="190.3" r="3" fill="#3fb950"/><circle cx="277.3" cy="190.3" r="3" fill="#3fb950"/><circle cx="280.8" cy="190.3" r="3" fill="#3fb950"/><circle cx="284.4" cy="190.3" r="3" fill="#3fb950"/><circle cx="287.9" cy="190.3" r="3" fill="#3fb950"/><circle cx="291.5" cy="190.3" r="3" fill="#3fb950"/><circle cx="295.0" cy="190.3" r="3" fill="#3fb950"/><circle cx="298.6" cy="190.3" r="3" fill="#3fb950"/><circle cx="302.1" cy="190.3" r="3" fill="#3fb950"/><circle cx="305.6" cy="190.3" r="3" fill="#3fb950"/><circle cx="309.2" cy="190.3" r="3" fill="#3fb950"/><circle cx="312.7" cy="190.3" r="3" fill="#3fb950"/><circle cx="316.3" cy="190.3" r="3" fill="#3fb950"/><circle cx="319.8" cy="190.3" r="3" fill="#3fb950"/><circle cx="323.4" cy="189.3" r="3" fill="#3fb950"/><circle cx="326.9" cy="189.3" r="3" fill="#3fb950"/><circle cx="330.5" cy="189.3" r="3" fill="#3fb950"/><circle cx="334.0" cy="190.7" r="3" fill="#3fb950"/><circle cx="337.6" cy="190.7" r="3" fill="#3fb950"/><circle cx="341.1" cy="190.7" r="3" fill="#3fb950"/><circle cx="344.7" cy="190.7" r="3" fill="#3fb950"/><circle cx="348.2" cy="190.7" r="3" fill="#3fb950"/><circle cx="351.8" cy="190.7" r="3" fill="#3fb950"/><circle cx="355.3" cy="190.7" r="3" fill="#3fb950"/><circle cx="358.9" cy="190.7" r="3" fill="#3fb950"/><circle cx="362.4" cy="190.7" r="3" fill="#3fb950"/><circle cx="366.0" cy="190.9" r="3" fill="#3fb950"/><circle cx="369.5" cy="190.9" r="3" fill="#3fb950"/><circle cx="373.1" cy="190.9" r="3" fill="#3fb950"/><circle cx="376.6" cy="194.2" r="3" fill="#3fb950"/><circle cx="380.2" cy="196.8" r="3" fill="#3fb950"/><circle cx="383.7" cy="198.0" r="3" fill="#3fb950"/><circle cx="387.3" cy="198.0" r="3" fill="#3fb950"/><circle cx="390.8" cy="198.0" r="3" fill="#3fb950"/><circle cx="394.4" cy="198.0" r="3" fill="#3fb950"/><circle cx="397.9" cy="198.0" r="3" fill="#3fb950"/><circle cx="401.4" cy="198.0" r="3" fill="#3fb950"/><circle cx="405.0" cy="198.0" r="3" fill="#3fb950"/><circle cx="408.5" cy="198.0" r="3" fill="#3fb950"/><circle cx="412.1" cy="198.0" r="3" fill="#3fb950"/><circle cx="415.6" cy="198.0" r="3" fill="#3fb950"/><circle cx="419.2" cy="198.0" r="3" fill="#3fb950"/><circle cx="422.7" cy="198.0" r="3" fill="#3fb950"/><circle cx="426.3" cy="198.0" r="3" fill="#3fb950"/><circle cx="429.8" cy="198.0" r="3" fill="#3fb950"/><circle cx="433.4" cy="198.0" r="3" fill="#3fb950"/><circle cx="436.9" cy="198.0" r="3" fill="#3fb950"/><circle cx="440.5" cy="198.0" r="3" fill="#3fb950"/><circle cx="444.0" cy="198.0" r="3" fill="#3fb950"/><circle cx="447.6" cy="198.0" r="3" fill="#3fb950"/><circle cx="451.1" cy="198.0" r="3" fill="#3fb950"/><circle cx="454.7" cy="198.0" r="3" fill="#3fb950"/><circle cx="458.2" cy="198.0" r="3" fill="#3fb950"/><circle cx="461.8" cy="198.0" r="3" fill="#3fb950"/><circle cx="465.3" cy="198.0" r="3" fill="#3fb950"/><circle cx="468.9" cy="198.0" r="3" fill="#3fb950"/><circle cx="472.4" cy="198.0" r="3" fill="#3fb950"/><circle cx="476.0" cy="198.0" r="3" fill="#3fb950"/><circle cx="479.5" cy="198.0" r="3" fill="#3fb950"/><circle cx="483.1" cy="198.0" r="3" fill="#3fb950"/><circle cx="486.6" cy="198.0" r="3" fill="#3fb950"/><circle cx="490.1" cy="198.0" r="3" fill="#3fb950"/><circle cx="493.7" cy="198.0" r="3" fill="#3fb950"/><circle cx="497.2" cy="198.0" r="3" fill="#3fb950"/><circle cx="500.8" cy="198.0" r="3" fill="#3fb950"/><circle cx="504.3" cy="198.0" r="3" fill="#3fb950"/><circle cx="507.9" cy="198.0" r="3" fill="#3fb950"/><circle cx="511.4" cy="198.0" r="3" fill="#3fb950"/><circle cx="515.0" cy="198.0" r="3" fill="#3fb950"/><circle cx="518.5" cy="198.0" r="3" fill="#3fb950"/><circle cx="522.1" cy="198.0" r="3" fill="#3fb950"/><circle cx="525.6" cy="198.0" r="3" fill="#3fb950"/><circle cx="529.2" cy="198.0" r="3" fill="#3fb950"/><circle cx="532.7" cy="198.0" r="3" fill="#3fb950"/><circle cx="536.3" cy="198.0" r="3" fill="#3fb950"/><circle cx="539.8" cy="198.0" r="3" fill="#3fb950"/><circle cx="543.4" cy="198.0" r="3" fill="#3fb950"/><circle cx="546.9" cy="198.0" r="3" fill="#3fb950"/><circle cx="550.5" cy="198.0" r="3" fill="#3fb950"/><circle cx="554.0" cy="198.0" r="3" fill="#3fb950"/><circle cx="557.6" cy="198.0" r="3" fill="#3fb950"/><circle cx="561.1" cy="198.0" r="3" fill="#3fb950"/><circle cx="564.7" cy="198.0" r="3" fill="#3fb950"/><circle cx="568.2" cy="198.0" r="3" fill="#3fb950"/><circle cx="571.8" cy="198.0" r="3" fill="#3fb950"/><circle cx="575.3" cy="198.0" r="3" fill="#3fb950"/><circle cx="578.8" cy="198.0" r="3" fill="#3fb950"/><circle cx="582.4" cy="198.0" r="3" fill="#3fb950"/><circle cx="585.9" cy="198.0" r="3" fill="#3fb950"/><circle cx="589.5" cy="198.0" r="3" fill="#3fb950"/><circle cx="593.0" cy="198.0" r="3" fill="#3fb950"/><circle cx="596.6" cy="198.0" r="3" fill="#3fb950"/><circle cx="600.1" cy="198.0" r="3" fill="#3fb950"/><circle cx="603.7" cy="198.0" r="3" fill="#3fb950"/><circle cx="607.2" cy="198.0" r="3" fill="#3fb950"/><circle cx="610.8" cy="198.0" r="3" fill="#3fb950"/><circle cx="614.3" cy="198.0" r="3" fill="#3fb950"/><circle cx="617.9" cy="198.0" r="3" fill="#3fb950"/><circle cx="621.4" cy="198.0" r="3" fill="#3fb950"/><circle cx="625.0" cy="198.0" r="3" fill="#3fb950"/><circle cx="628.5" cy="198.0" r="3" fill="#3fb950"/><circle cx="632.1" cy="198.0" r="3" fill="#3fb950"/><circle cx="635.6" cy="198.0" r="3" fill="#3fb950"/><circle cx="639.2" cy="198.0" r="3" fill="#3fb950"/><circle cx="642.7" cy="198.0" r="3" fill="#3fb950"/><circle cx="646.3" cy="198.0" r="3" fill="#3fb950"/><circle cx="649.8" cy="198.0" r="3" fill="#3fb950"/><circle cx="653.4" cy="198.0" r="3" fill="#3fb950"/><circle cx="656.9" cy="198.0" r="3" fill="#3fb950"/><circle cx="660.5" cy="198.0" r="3" fill="#3fb950"/><circle cx="664.0" cy="198.0" r="3" fill="#3fb950"/>
<polyline fill="none" stroke="#4aa3ff" stroke-width="2.5" stroke-linejoin="round" points="36.0,144.3 39.5,144.3 43.1,144.3 46.6,144.3 50.2,144.3 53.7,144.3 57.3,144.3 60.8,144.3 64.4,144.3 67.9,144.3 71.5,144.3 75.0,144.3 78.6,144.3 82.1,144.3 85.7,144.3 89.2,136.2 92.8,132.4 96.3,129.6 99.9,129.6 103.4,121.0 107.0,121.0 110.5,121.0 114.1,114.4 117.6,114.4 121.2,114.4 124.7,111.3 128.2,110.9 131.8,110.9 135.3,110.5 138.9,110.5 142.4,109.9 146.0,108.7 149.5,107.3 153.1,106.9 156.6,106.9 160.2,106.9 163.7,106.9 167.3,106.9 170.8,106.9 174.4,106.9 177.9,106.9 181.5,106.9 185.0,106.9 188.6,113.2 192.1,113.2 195.7,113.2 199.2,113.2 202.8,113.2 206.3,110.7 209.9,105.3 213.4,83.4 216.9,83.4 220.5,85.6 224.0,85.6 227.6,85.6 231.1,85.6 234.7,85.6 238.2,85.8 241.8,85.8 245.3,85.8 248.9,86.0 252.4,86.0 256.0,86.0 259.5,86.0 263.1,86.0 266.6,86.0 270.2,86.0 273.7,86.0 277.3,86.0 280.8,86.0 284.4,86.0 287.9,86.0 291.5,86.0 295.0,86.0 298.6,86.0 302.1,86.0 305.6,86.0 309.2,86.0 312.7,86.0 316.3,86.0 319.8,86.0 323.4,87.0 326.9,87.0 330.5,87.0 334.0,73.7 337.6,73.7 341.1,71.0 344.7,71.0 348.2,70.8 351.8,70.6 355.3,70.6 358.9,70.4 362.4,68.6 366.0,60.5 369.5,59.3 373.1,52.0 376.6,47.3 380.2,40.1 383.7,36.0 387.3,36.0 390.8,36.0 394.4,36.0 397.9,36.0 401.4,36.0 405.0,36.0 408.5,36.0 412.1,36.0 415.6,36.0 419.2,36.0 422.7,36.0 426.3,36.0 429.8,36.0 433.4,36.0 436.9,36.0 440.5,36.0 444.0,36.0 447.6,36.0 451.1,36.0 454.7,36.0 458.2,36.0 461.8,36.0 465.3,36.0 468.9,36.0 472.4,36.0 476.0,36.0 479.5,36.0 483.1,36.0 486.6,36.0 490.1,36.0 493.7,36.0 497.2,36.0 500.8,36.0 504.3,36.0 507.9,36.0 511.4,36.0 515.0,36.0 518.5,36.0 522.1,36.0 525.6,36.0 529.2,36.0 532.7,36.0 536.3,36.0 539.8,36.0 543.4,36.0 546.9,36.0 550.5,36.0 554.0,36.0 557.6,36.0 561.1,36.0 564.7,36.0 568.2,36.0 571.8,36.0 575.3,36.0 578.8,36.0 582.4,36.0 585.9,36.0 589.5,36.0 593.0,36.0 596.6,36.0 600.1,36.0 603.7,36.0 607.2,36.0 610.8,36.0 614.3,36.0 617.9,36.0 621.4,36.0 625.0,36.0 628.5,36.0 632.1,36.0 635.6,36.0 639.2,36.0 642.7,36.0 646.3,36.0 649.8,36.0 653.4,36.0 656.9,36.0 660.5,36.0 664.0,36.0"/><circle cx="36.0" cy="144.3" r="3" fill="#4aa3ff"/><circle cx="39.5" cy="144.3" r="3" fill="#4aa3ff"/><circle cx="43.1" cy="144.3" r="3" fill="#4aa3ff"/><circle cx="46.6" cy="144.3" r="3" fill="#4aa3ff"/><circle cx="50.2" cy="144.3" r="3" fill="#4aa3ff"/><circle cx="53.7" cy="144.3" r="3" fill="#4aa3ff"/><circle cx="57.3" cy="144.3" r="3" fill="#4aa3ff"/><circle cx="60.8" cy="144.3" r="3" fill="#4aa3ff"/><circle cx="64.4" cy="144.3" r="3" fill="#4aa3ff"/><circle cx="67.9" cy="144.3" r="3" fill="#4aa3ff"/><circle cx="71.5" cy="144.3" r="3" fill="#4aa3ff"/><circle cx="75.0" cy="144.3" r="3" fill="#4aa3ff"/><circle cx="78.6" cy="144.3" r="3" fill="#4aa3ff"/><circle cx="82.1" cy="144.3" r="3" fill="#4aa3ff"/><circle cx="85.7" cy="144.3" r="3" fill="#4aa3ff"/><circle cx="89.2" cy="136.2" r="3" fill="#4aa3ff"/><circle cx="92.8" cy="132.4" r="3" fill="#4aa3ff"/><circle cx="96.3" cy="129.6" r="3" fill="#4aa3ff"/><circle cx="99.9" cy="129.6" r="3" fill="#4aa3ff"/><circle cx="103.4" cy="121.0" r="3" fill="#4aa3ff"/><circle cx="107.0" cy="121.0" r="3" fill="#4aa3ff"/><circle cx="110.5" cy="121.0" r="3" fill="#4aa3ff"/><circle cx="114.1" cy="114.4" r="3" fill="#4aa3ff"/><circle cx="117.6" cy="114.4" r="3" fill="#4aa3ff"/><circle cx="121.2" cy="114.4" r="3" fill="#4aa3ff"/><circle cx="124.7" cy="111.3" r="3" fill="#4aa3ff"/><circle cx="128.2" cy="110.9" r="3" fill="#4aa3ff"/><circle cx="131.8" cy="110.9" r="3" fill="#4aa3ff"/><circle cx="135.3" cy="110.5" r="3" fill="#4aa3ff"/><circle cx="138.9" cy="110.5" r="3" fill="#4aa3ff"/><circle cx="142.4" cy="109.9" r="3" fill="#4aa3ff"/><circle cx="146.0" cy="108.7" r="3" fill="#4aa3ff"/><circle cx="149.5" cy="107.3" r="3" fill="#4aa3ff"/><circle cx="153.1" cy="106.9" r="3" fill="#4aa3ff"/><circle cx="156.6" cy="106.9" r="3" fill="#4aa3ff"/><circle cx="160.2" cy="106.9" r="3" fill="#4aa3ff"/><circle cx="163.7" cy="106.9" r="3" fill="#4aa3ff"/><circle cx="167.3" cy="106.9" r="3" fill="#4aa3ff"/><circle cx="170.8" cy="106.9" r="3" fill="#4aa3ff"/><circle cx="174.4" cy="106.9" r="3" fill="#4aa3ff"/><circle cx="177.9" cy="106.9" r="3" fill="#4aa3ff"/><circle cx="181.5" cy="106.9" r="3" fill="#4aa3ff"/><circle cx="185.0" cy="106.9" r="3" fill="#4aa3ff"/><circle cx="188.6" cy="113.2" r="3" fill="#4aa3ff"/><circle cx="192.1" cy="113.2" r="3" fill="#4aa3ff"/><circle cx="195.7" cy="113.2" r="3" fill="#4aa3ff"/><circle cx="199.2" cy="113.2" r="3" fill="#4aa3ff"/><circle cx="202.8" cy="113.2" r="3" fill="#4aa3ff"/><circle cx="206.3" cy="110.7" r="3" fill="#4aa3ff"/><circle cx="209.9" cy="105.3" r="3" fill="#4aa3ff"/><circle cx="213.4" cy="83.4" r="3" fill="#4aa3ff"/><circle cx="216.9" cy="83.4" r="3" fill="#4aa3ff"/><circle cx="220.5" cy="85.6" r="3" fill="#4aa3ff"/><circle cx="224.0" cy="85.6" r="3" fill="#4aa3ff"/><circle cx="227.6" cy="85.6" r="3" fill="#4aa3ff"/><circle cx="231.1" cy="85.6" r="3" fill="#4aa3ff"/><circle cx="234.7" cy="85.6" r="3" fill="#4aa3ff"/><circle cx="238.2" cy="85.8" r="3" fill="#4aa3ff"/><circle cx="241.8" cy="85.8" r="3" fill="#4aa3ff"/><circle cx="245.3" cy="85.8" r="3" fill="#4aa3ff"/><circle cx="248.9" cy="86.0" r="3" fill="#4aa3ff"/><circle cx="252.4" cy="86.0" r="3" fill="#4aa3ff"/><circle cx="256.0" cy="86.0" r="3" fill="#4aa3ff"/><circle cx="259.5" cy="86.0" r="3" fill="#4aa3ff"/><circle cx="263.1" cy="86.0" r="3" fill="#4aa3ff"/><circle cx="266.6" cy="86.0" r="3" fill="#4aa3ff"/><circle cx="270.2" cy="86.0" r="3" fill="#4aa3ff"/><circle cx="273.7" cy="86.0" r="3" fill="#4aa3ff"/><circle cx="277.3" cy="86.0" r="3" fill="#4aa3ff"/><circle cx="280.8" cy="86.0" r="3" fill="#4aa3ff"/><circle cx="284.4" cy="86.0" r="3" fill="#4aa3ff"/><circle cx="287.9" cy="86.0" r="3" fill="#4aa3ff"/><circle cx="291.5" cy="86.0" r="3" fill="#4aa3ff"/><circle cx="295.0" cy="86.0" r="3" fill="#4aa3ff"/><circle cx="298.6" cy="86.0" r="3" fill="#4aa3ff"/><circle cx="302.1" cy="86.0" r="3" fill="#4aa3ff"/><circle cx="305.6" cy="86.0" r="3" fill="#4aa3ff"/><circle cx="309.2" cy="86.0" r="3" fill="#4aa3ff"/><circle cx="312.7" cy="86.0" r="3" fill="#4aa3ff"/><circle cx="316.3" cy="86.0" r="3" fill="#4aa3ff"/><circle cx="319.8" cy="86.0" r="3" fill="#4aa3ff"/><circle cx="323.4" cy="87.0" r="3" fill="#4aa3ff"/><circle cx="326.9" cy="87.0" r="3" fill="#4aa3ff"/><circle cx="330.5" cy="87.0" r="3" fill="#4aa3ff"/><circle cx="334.0" cy="73.7" r="3" fill="#4aa3ff"/><circle cx="337.6" cy="73.7" r="3" fill="#4aa3ff"/><circle cx="341.1" cy="71.0" r="3" fill="#4aa3ff"/><circle cx="344.7" cy="71.0" r="3" fill="#4aa3ff"/><circle cx="348.2" cy="70.8" r="3" fill="#4aa3ff"/><circle cx="351.8" cy="70.6" r="3" fill="#4aa3ff"/><circle cx="355.3" cy="70.6" r="3" fill="#4aa3ff"/><circle cx="358.9" cy="70.4" r="3" fill="#4aa3ff"/><circle cx="362.4" cy="68.6" r="3" fill="#4aa3ff"/><circle cx="366.0" cy="60.5" r="3" fill="#4aa3ff"/><circle cx="369.5" cy="59.3" r="3" fill="#4aa3ff"/><circle cx="373.1" cy="52.0" r="3" fill="#4aa3ff"/><circle cx="376.6" cy="47.3" r="3" fill="#4aa3ff"/><circle cx="380.2" cy="40.1" r="3" fill="#4aa3ff"/><circle cx="383.7" cy="36.0" r="3" fill="#4aa3ff"/><circle cx="387.3" cy="36.0" r="3" fill="#4aa3ff"/><circle cx="390.8" cy="36.0" r="3" fill="#4aa3ff"/><circle cx="394.4" cy="36.0" r="3" fill="#4aa3ff"/><circle cx="397.9" cy="36.0" r="3" fill="#4aa3ff"/><circle cx="401.4" cy="36.0" r="3" fill="#4aa3ff"/><circle cx="405.0" cy="36.0" r="3" fill="#4aa3ff"/><circle cx="408.5" cy="36.0" r="3" fill="#4aa3ff"/><circle cx="412.1" cy="36.0" r="3" fill="#4aa3ff"/><circle cx="415.6" cy="36.0" r="3" fill="#4aa3ff"/><circle cx="419.2" cy="36.0" r="3" fill="#4aa3ff"/><circle cx="422.7" cy="36.0" r="3" fill="#4aa3ff"/><circle cx="426.3" cy="36.0" r="3" fill="#4aa3ff"/><circle cx="429.8" cy="36.0" r="3" fill="#4aa3ff"/><circle cx="433.4" cy="36.0" r="3" fill="#4aa3ff"/><circle cx="436.9" cy="36.0" r="3" fill="#4aa3ff"/><circle cx="440.5" cy="36.0" r="3" fill="#4aa3ff"/><circle cx="444.0" cy="36.0" r="3" fill="#4aa3ff"/><circle cx="447.6" cy="36.0" r="3" fill="#4aa3ff"/><circle cx="451.1" cy="36.0" r="3" fill="#4aa3ff"/><circle cx="454.7" cy="36.0" r="3" fill="#4aa3ff"/><circle cx="458.2" cy="36.0" r="3" fill="#4aa3ff"/><circle cx="461.8" cy="36.0" r="3" fill="#4aa3ff"/><circle cx="465.3" cy="36.0" r="3" fill="#4aa3ff"/><circle cx="468.9" cy="36.0" r="3" fill="#4aa3ff"/><circle cx="472.4" cy="36.0" r="3" fill="#4aa3ff"/><circle cx="476.0" cy="36.0" r="3" fill="#4aa3ff"/><circle cx="479.5" cy="36.0" r="3" fill="#4aa3ff"/><circle cx="483.1" cy="36.0" r="3" fill="#4aa3ff"/><circle cx="486.6" cy="36.0" r="3" fill="#4aa3ff"/><circle cx="490.1" cy="36.0" r="3" fill="#4aa3ff"/><circle cx="493.7" cy="36.0" r="3" fill="#4aa3ff"/><circle cx="497.2" cy="36.0" r="3" fill="#4aa3ff"/><circle cx="500.8" cy="36.0" r="3" fill="#4aa3ff"/><circle cx="504.3" cy="36.0" r="3" fill="#4aa3ff"/><circle cx="507.9" cy="36.0" r="3" fill="#4aa3ff"/><circle cx="511.4" cy="36.0" r="3" fill="#4aa3ff"/><circle cx="515.0" cy="36.0" r="3" fill="#4aa3ff"/><circle cx="518.5" cy="36.0" r="3" fill="#4aa3ff"/><circle cx="522.1" cy="36.0" r="3" fill="#4aa3ff"/><circle cx="525.6" cy="36.0" r="3" fill="#4aa3ff"/><circle cx="529.2" cy="36.0" r="3" fill="#4aa3ff"/><circle cx="532.7" cy="36.0" r="3" fill="#4aa3ff"/><circle cx="536.3" cy="36.0" r="3" fill="#4aa3ff"/><circle cx="539.8" cy="36.0" r="3" fill="#4aa3ff"/><circle cx="543.4" cy="36.0" r="3" fill="#4aa3ff"/><circle cx="546.9" cy="36.0" r="3" fill="#4aa3ff"/><circle cx="550.5" cy="36.0" r="3" fill="#4aa3ff"/><circle cx="554.0" cy="36.0" r="3" fill="#4aa3ff"/><circle cx="557.6" cy="36.0" r="3" fill="#4aa3ff"/><circle cx="561.1" cy="36.0" r="3" fill="#4aa3ff"/><circle cx="564.7" cy="36.0" r="3" fill="#4aa3ff"/><circle cx="568.2" cy="36.0" r="3" fill="#4aa3ff"/><circle cx="571.8" cy="36.0" r="3" fill="#4aa3ff"/><circle cx="575.3" cy="36.0" r="3" fill="#4aa3ff"/><circle cx="578.8" cy="36.0" r="3" fill="#4aa3ff"/><circle cx="582.4" cy="36.0" r="3" fill="#4aa3ff"/><circle cx="585.9" cy="36.0" r="3" fill="#4aa3ff"/><circle cx="589.5" cy="36.0" r="3" fill="#4aa3ff"/><circle cx="593.0" cy="36.0" r="3" fill="#4aa3ff"/><circle cx="596.6" cy="36.0" r="3" fill="#4aa3ff"/><circle cx="600.1" cy="36.0" r="3" fill="#4aa3ff"/><circle cx="603.7" cy="36.0" r="3" fill="#4aa3ff"/><circle cx="607.2" cy="36.0" r="3" fill="#4aa3ff"/><circle cx="610.8" cy="36.0" r="3" fill="#4aa3ff"/><circle cx="614.3" cy="36.0" r="3" fill="#4aa3ff"/><circle cx="617.9" cy="36.0" r="3" fill="#4aa3ff"/><circle cx="621.4" cy="36.0" r="3" fill="#4aa3ff"/><circle cx="625.0" cy="36.0" r="3" fill="#4aa3ff"/><circle cx="628.5" cy="36.0" r="3" fill="#4aa3ff"/><circle cx="632.1" cy="36.0" r="3" fill="#4aa3ff"/><circle cx="635.6" cy="36.0" r="3" fill="#4aa3ff"/><circle cx="639.2" cy="36.0" r="3" fill="#4aa3ff"/><circle cx="642.7" cy="36.0" r="3" fill="#4aa3ff"/><circle cx="646.3" cy="36.0" r="3" fill="#4aa3ff"/><circle cx="649.8" cy="36.0" r="3" fill="#4aa3ff"/><circle cx="653.4" cy="36.0" r="3" fill="#4aa3ff"/><circle cx="656.9" cy="36.0" r="3" fill="#4aa3ff"/><circle cx="660.5" cy="36.0" r="3" fill="#4aa3ff"/><circle cx="664.0" cy="36.0" r="3" fill="#4aa3ff"/>
<text x="36" y="225" fill="#6b7280" font-size="11">2026-06-26</text>
<text x="664" y="225" fill="#6b7280" font-size="11" text-anchor="end">2026-07-15</text>
<text x="36" y="212" font-family="system-ui,sans-serif" font-size="11">
<tspan fill="#4aa3ff">&#9679; open FPs</tspan>  <tspan fill="#3fb950">&#9679; closed (Anthropic acting)</tspan>  <tspan fill="#8a5a5a">&#9679; harness withdrawn</tspan></text>
<text x="664" y="22" text-anchor="end" font-family="system-ui,sans-serif" font-size="12">
<tspan fill="#4aa3ff">open 800</tspan>  <tspan fill="#3fb950">closed 0</tspan>  <tspan fill="#8a5a5a">harness 0</tspan></text>
</svg>