<svg xmlns="http://www.w3.org/2000/svg" width="700" height="234" viewBox="0 0 700 234" role="img">
<rect width="700" height="234" rx="12" fill="#16181d"/>
<text x="36" y="22" fill="#e8eaed" font-family="system-ui,sans-serif" font-size="14" font-weight="700">Is Anthropic acting? cyber/aup false positives over time</text>
<line x1="36" y1="198.0" x2="664" y2="198.0" stroke="#2a2e37" stroke-width="1"/><text x="30" y="202.0" fill="#6b7280" font-size="11" text-anchor="end">0</text><line x1="36" y1="117.0" x2="664" y2="117.0" stroke="#2a2e37" stroke-width="1"/><text x="30" y="121.0" fill="#6b7280" font-size="11" text-anchor="end">400</text><line x1="36" y1="36.0" x2="664" y2="36.0" stroke="#2a2e37" stroke-width="1"/><text x="30" y="40.0" fill="#6b7280" font-size="11" text-anchor="end">800</text>

<polyline fill="none" stroke="#8a5a5a" stroke-width="2.5" stroke-linejoin="round" points="36.0,145.1 41.3,145.1 46.6,145.1 51.8,145.1 57.1,145.1 62.4,145.1 67.7,145.1 72.9,145.1 78.2,145.1 83.5,145.1 88.8,145.1 94.1,145.1 99.3,145.1 104.6,145.1 109.9,145.1 115.2,145.1 120.4,145.1 125.7,145.1 131.0,145.1 136.3,145.1 141.5,145.1 146.8,145.1 152.1,145.1 157.4,145.1 162.7,145.1 167.9,145.1 173.2,145.1 178.5,145.1 183.8,145.1 189.0,145.1 194.3,145.1 199.6,145.1 204.9,145.1 210.2,145.1 215.4,145.1 220.7,145.1 226.0,145.1 231.3,145.1 236.5,145.1 241.8,145.1 247.1,145.1 252.4,145.1 257.6,145.1 262.9,145.1 268.2,145.1 273.5,145.1 278.8,145.1 284.0,145.1 289.3,145.1 294.6,145.1 299.9,155.7 305.1,155.7 310.4,155.7 315.7,155.7 321.0,155.7 326.3,155.7 331.5,155.7 336.8,155.7 342.1,155.7 347.4,155.7 352.6,155.7 357.9,155.7 363.2,155.7 368.5,155.7 373.7,155.7 379.0,155.7 384.3,155.7 389.6,155.7 394.9,155.7 400.1,155.7 405.4,155.7 410.7,155.7 416.0,155.7 421.2,155.7 426.5,155.7 431.8,155.7 437.1,155.7 442.4,155.7 447.6,155.7 452.9,155.7 458.2,155.7 463.5,155.7 468.7,155.7 474.0,155.7 479.3,167.6 484.6,167.6 489.8,170.3 495.1,170.3 500.4,170.5 505.7,170.7 511.0,170.7 516.2,170.9 521.5,172.7 526.8,180.6 532.1,181.8 537.3,189.1 542.6,190.5 547.9,195.2 553.2,198.0 558.5,198.0 563.7,198.0 569.0,198.0 574.3,198.0 579.6,198.0 584.8,198.0 590.1,198.0 595.4,198.0 600.7,198.0 605.9,198.0 611.2,198.0 616.5,198.0 621.8,198.0 627.1,198.0 632.3,198.0 637.6,198.0 642.9,198.0 648.2,198.0 653.4,198.0 658.7,198.0 664.0,198.0"/><circle cx="36.0" cy="145.1" r="3" fill="#8a5a5a"/><circle cx="41.3" cy="145.1" r="3" fill="#8a5a5a"/><circle cx="46.6" cy="145.1" r="3" fill="#8a5a5a"/><circle cx="51.8" cy="145.1" r="3" fill="#8a5a5a"/><circle cx="57.1" cy="145.1" r="3" fill="#8a5a5a"/><circle cx="62.4" cy="145.1" r="3" fill="#8a5a5a"/><circle cx="67.7" cy="145.1" r="3" fill="#8a5a5a"/><circle cx="72.9" cy="145.1" r="3" fill="#8a5a5a"/><circle cx="78.2" cy="145.1" r="3" fill="#8a5a5a"/><circle cx="83.5" cy="145.1" r="3" fill="#8a5a5a"/><circle cx="88.8" cy="145.1" r="3" fill="#8a5a5a"/><circle cx="94.1" cy="145.1" r="3" fill="#8a5a5a"/><circle cx="99.3" cy="145.1" r="3" fill="#8a5a5a"/><circle cx="104.6" cy="145.1" r="3" fill="#8a5a5a"/><circle cx="109.9" cy="145.1" r="3" fill="#8a5a5a"/><circle cx="115.2" cy="145.1" r="3" fill="#8a5a5a"/><circle cx="120.4" cy="145.1" r="3" fill="#8a5a5a"/><circle cx="125.7" cy="145.1" r="3" fill="#8a5a5a"/><circle cx="131.0" cy="145.1" r="3" fill="#8a5a5a"/><circle cx="136.3" cy="145.1" r="3" fill="#8a5a5a"/><circle cx="141.5" cy="145.1" r="3" fill="#8a5a5a"/><circle cx="146.8" cy="145.1" r="3" fill="#8a5a5a"/><circle cx="152.1" cy="145.1" r="3" fill="#8a5a5a"/><circle cx="157.4" cy="145.1" r="3" fill="#8a5a5a"/><circle cx="162.7" cy="145.1" r="3" fill="#8a5a5a"/><circle cx="167.9" cy="145.1" r="3" fill="#8a5a5a"/><circle cx="173.2" cy="145.1" r="3" fill="#8a5a5a"/><circle cx="178.5" cy="145.1" r="3" fill="#8a5a5a"/><circle cx="183.8" cy="145.1" r="3" fill="#8a5a5a"/><circle cx="189.0" cy="145.1" r="3" fill="#8a5a5a"/><circle cx="194.3" cy="145.1" r="3" fill="#8a5a5a"/><circle cx="199.6" cy="145.1" r="3" fill="#8a5a5a"/><circle cx="204.9" cy="145.1" r="3" fill="#8a5a5a"/><circle cx="210.2" cy="145.1" r="3" fill="#8a5a5a"/><circle cx="215.4" cy="145.1" r="3" fill="#8a5a5a"/><circle cx="220.7" cy="145.1" r="3" fill="#8a5a5a"/><circle cx="226.0" cy="145.1" r="3" fill="#8a5a5a"/><circle cx="231.3" cy="145.1" r="3" fill="#8a5a5a"/><circle cx="236.5" cy="145.1" r="3" fill="#8a5a5a"/><circle cx="241.8" cy="145.1" r="3" fill="#8a5a5a"/><circle cx="247.1" cy="145.1" r="3" fill="#8a5a5a"/><circle cx="252.4" cy="145.1" r="3" fill="#8a5a5a"/><circle cx="257.6" cy="145.1" r="3" fill="#8a5a5a"/><circle cx="262.9" cy="145.1" r="3" fill="#8a5a5a"/><circle cx="268.2" cy="145.1" r="3" fill="#8a5a5a"/><circle cx="273.5" cy="145.1" r="3" fill="#8a5a5a"/><circle cx="278.8" cy="145.1" r="3" fill="#8a5a5a"/><circle cx="284.0" cy="145.1" r="3" fill="#8a5a5a"/><circle cx="289.3" cy="145.1" r="3" fill="#8a5a5a"/><circle cx="294.6" cy="145.1" r="3" fill="#8a5a5a"/><circle cx="299.9" cy="155.7" r="3" fill="#8a5a5a"/><circle cx="305.1" cy="155.7" r="3" fill="#8a5a5a"/><circle cx="310.4" cy="155.7" r="3" fill="#8a5a5a"/><circle cx="315.7" cy="155.7" r="3" fill="#8a5a5a"/><circle cx="321.0" cy="155.7" r="3" fill="#8a5a5a"/><circle cx="326.3" cy="155.7" r="3" fill="#8a5a5a"/><circle cx="331.5" cy="155.7" r="3" fill="#8a5a5a"/><circle cx="336.8" cy="155.7" r="3" fill="#8a5a5a"/><circle cx="342.1" cy="155.7" r="3" fill="#8a5a5a"/><circle cx="347.4" cy="155.7" r="3" fill="#8a5a5a"/><circle cx="352.6" cy="155.7" r="3" fill="#8a5a5a"/><circle cx="357.9" cy="155.7" r="3" fill="#8a5a5a"/><circle cx="363.2" cy="155.7" r="3" fill="#8a5a5a"/><circle cx="368.5" cy="155.7" r="3" fill="#8a5a5a"/><circle cx="373.7" cy="155.7" r="3" fill="#8a5a5a"/><circle cx="379.0" cy="155.7" r="3" fill="#8a5a5a"/><circle cx="384.3" cy="155.7" r="3" fill="#8a5a5a"/><circle cx="389.6" cy="155.7" r="3" fill="#8a5a5a"/><circle cx="394.9" cy="155.7" r="3" fill="#8a5a5a"/><circle cx="400.1" cy="155.7" r="3" fill="#8a5a5a"/><circle cx="405.4" cy="155.7" r="3" fill="#8a5a5a"/><circle cx="410.7" cy="155.7" r="3" fill="#8a5a5a"/><circle cx="416.0" cy="155.7" r="3" fill="#8a5a5a"/><circle cx="421.2" cy="155.7" r="3" fill="#8a5a5a"/><circle cx="426.5" cy="155.7" r="3" fill="#8a5a5a"/><circle cx="431.8" cy="155.7" r="3" fill="#8a5a5a"/><circle cx="437.1" cy="155.7" r="3" fill="#8a5a5a"/><circle cx="442.4" cy="155.7" r="3" fill="#8a5a5a"/><circle cx="447.6" cy="155.7" r="3" fill="#8a5a5a"/><circle cx="452.9" cy="155.7" r="3" fill="#8a5a5a"/><circle cx="458.2" cy="155.7" r="3" fill="#8a5a5a"/><circle cx="463.5" cy="155.7" r="3" fill="#8a5a5a"/><circle cx="468.7" cy="155.7" r="3" fill="#8a5a5a"/><circle cx="474.0" cy="155.7" r="3" fill="#8a5a5a"/><circle cx="479.3" cy="167.6" r="3" fill="#8a5a5a"/><circle cx="484.6" cy="167.6" r="3" fill="#8a5a5a"/><circle cx="489.8" cy="170.3" r="3" fill="#8a5a5a"/><circle cx="495.1" cy="170.3" r="3" fill="#8a5a5a"/><circle cx="500.4" cy="170.5" r="3" fill="#8a5a5a"/><circle cx="505.7" cy="170.7" r="3" fill="#8a5a5a"/><circle cx="511.0" cy="170.7" r="3" fill="#8a5a5a"/><circle cx="516.2" cy="170.9" r="3" fill="#8a5a5a"/><circle cx="521.5" cy="172.7" r="3" fill="#8a5a5a"/><circle cx="526.8" cy="180.6" r="3" fill="#8a5a5a"/><circle cx="532.1" cy="181.8" r="3" fill="#8a5a5a"/><circle cx="537.3" cy="189.1" r="3" fill="#8a5a5a"/><circle cx="542.6" cy="190.5" r="3" fill="#8a5a5a"/><circle cx="547.9" cy="195.2" r="3" fill="#8a5a5a"/><circle cx="553.2" cy="198.0" r="3" fill="#8a5a5a"/><circle cx="558.5" cy="198.0" r="3" fill="#8a5a5a"/><circle cx="563.7" cy="198.0" r="3" fill="#8a5a5a"/><circle cx="569.0" cy="198.0" r="3" fill="#8a5a5a"/><circle cx="574.3" cy="198.0" r="3" fill="#8a5a5a"/><circle cx="579.6" cy="198.0" r="3" fill="#8a5a5a"/><circle cx="584.8" cy="198.0" r="3" fill="#8a5a5a"/><circle cx="590.1" cy="198.0" r="3" fill="#8a5a5a"/><circle cx="595.4" cy="198.0" r="3" fill="#8a5a5a"/><circle cx="600.7" cy="198.0" r="3" fill="#8a5a5a"/><circle cx="605.9" cy="198.0" r="3" fill="#8a5a5a"/><circle cx="611.2" cy="198.0" r="3" fill="#8a5a5a"/><circle cx="616.5" cy="198.0" r="3" fill="#8a5a5a"/><circle cx="621.8" cy="198.0" r="3" fill="#8a5a5a"/><circle cx="627.1" cy="198.0" r="3" fill="#8a5a5a"/><circle cx="632.3" cy="198.0" r="3" fill="#8a5a5a"/><circle cx="637.6" cy="198.0" r="3" fill="#8a5a5a"/><circle cx="642.9" cy="198.0" r="3" fill="#8a5a5a"/><circle cx="648.2" cy="198.0" r="3" fill="#8a5a5a"/><circle cx="653.4" cy="198.0" r="3" fill="#8a5a5a"/><circle cx="658.7" cy="198.0" r="3" fill="#8a5a5a"/><circle cx="664.0" cy="198.0" r="3" fill="#8a5a5a"/>
<polyline fill="none" stroke="#3fb950" stroke-width="2.5" stroke-linejoin="round" points="36.0,198.0 41.3,198.0 46.6,198.0 51.8,198.0 57.1,198.0 62.4,198.0 67.7,198.0 72.9,198.0 78.2,198.0 83.5,198.0 88.8,198.0 94.1,198.0 99.3,198.0 104.6,198.0 109.9,198.0 115.2,198.0 120.4,198.0 125.7,198.0 131.0,198.0 136.3,198.0 141.5,198.0 146.8,198.0 152.1,198.0 157.4,198.0 162.7,198.0 167.9,198.0 173.2,198.0 178.5,198.0 183.8,198.0 189.0,198.0 194.3,198.0 199.6,198.0 204.9,198.0 210.2,198.0 215.4,198.0 220.7,198.0 226.0,198.0 231.3,198.0 236.5,198.0 241.8,198.0 247.1,198.0 252.4,198.0 257.6,198.0 262.9,191.7 268.2,191.7 273.5,191.7 278.8,191.7 284.0,191.7 289.3,191.7 294.6,191.7 299.9,192.9 305.1,192.9 310.4,190.7 315.7,190.7 321.0,190.7 326.3,190.7 331.5,190.7 336.8,190.5 342.1,190.5 347.4,190.5 352.6,190.3 357.9,190.3 363.2,190.3 368.5,190.3 373.7,190.3 379.0,190.3 384.3,190.3 389.6,190.3 394.9,190.3 400.1,190.3 405.4,190.3 410.7,190.3 416.0,190.3 421.2,190.3 426.5,190.3 431.8,190.3 437.1,190.3 442.4,190.3 447.6,190.3 452.9,190.3 458.2,190.3 463.5,189.3 468.7,189.3 474.0,189.3 479.3,190.7 484.6,190.7 489.8,190.7 495.1,190.7 500.4,190.7 505.7,190.7 511.0,190.7 516.2,190.7 521.5,190.7 526.8,190.9 532.1,190.9 537.3,190.9 542.6,194.2 547.9,196.8 553.2,198.0 558.5,198.0 563.7,198.0 569.0,198.0 574.3,198.0 579.6,198.0 584.8,198.0 590.1,198.0 595.4,198.0 600.7,198.0 605.9,198.0 611.2,198.0 616.5,198.0 621.8,198.0 627.1,198.0 632.3,198.0 637.6,198.0 642.9,198.0 648.2,198.0 653.4,198.0 658.7,198.0 664.0,198.0"/><circle cx="36.0" cy="198.0" r="3" fill="#3fb950"/><circle cx="41.3" cy="198.0" r="3" fill="#3fb950"/><circle cx="46.6" cy="198.0" r="3" fill="#3fb950"/><circle cx="51.8" cy="198.0" r="3" fill="#3fb950"/><circle cx="57.1" cy="198.0" r="3" fill="#3fb950"/><circle cx="62.4" cy="198.0" r="3" fill="#3fb950"/><circle cx="67.7" cy="198.0" r="3" fill="#3fb950"/><circle cx="72.9" cy="198.0" r="3" fill="#3fb950"/><circle cx="78.2" cy="198.0" r="3" fill="#3fb950"/><circle cx="83.5" cy="198.0" r="3" fill="#3fb950"/><circle cx="88.8" cy="198.0" r="3" fill="#3fb950"/><circle cx="94.1" cy="198.0" r="3" fill="#3fb950"/><circle cx="99.3" cy="198.0" r="3" fill="#3fb950"/><circle cx="104.6" cy="198.0" r="3" fill="#3fb950"/><circle cx="109.9" cy="198.0" r="3" fill="#3fb950"/><circle cx="115.2" cy="198.0" r="3" fill="#3fb950"/><circle cx="120.4" cy="198.0" r="3" fill="#3fb950"/><circle cx="125.7" cy="198.0" r="3" fill="#3fb950"/><circle cx="131.0" cy="198.0" r="3" fill="#3fb950"/><circle cx="136.3" cy="198.0" r="3" fill="#3fb950"/><circle cx="141.5" cy="198.0" r="3" fill="#3fb950"/><circle cx="146.8" cy="198.0" r="3" fill="#3fb950"/><circle cx="152.1" cy="198.0" r="3" fill="#3fb950"/><circle cx="157.4" cy="198.0" r="3" fill="#3fb950"/><circle cx="162.7" cy="198.0" r="3" fill="#3fb950"/><circle cx="167.9" cy="198.0" r="3" fill="#3fb950"/><circle cx="173.2" cy="198.0" r="3" fill="#3fb950"/><circle cx="178.5" cy="198.0" r="3" fill="#3fb950"/><circle cx="183.8" cy="198.0" r="3" fill="#3fb950"/><circle cx="189.0" cy="198.0" r="3" fill="#3fb950"/><circle cx="194.3" cy="198.0" r="3" fill="#3fb950"/><circle cx="199.6" cy="198.0" r="3" fill="#3fb950"/><circle cx="204.9" cy="198.0" r="3" fill="#3fb950"/><circle cx="210.2" cy="198.0" r="3" fill="#3fb950"/><circle cx="215.4" cy="198.0" r="3" fill="#3fb950"/><circle cx="220.7" cy="198.0" r="3" fill="#3fb950"/><circle cx="226.0" cy="198.0" r="3" fill="#3fb950"/><circle cx="231.3" cy="198.0" r="3" fill="#3fb950"/><circle cx="236.5" cy="198.0" r="3" fill="#3fb950"/><circle cx="241.8" cy="198.0" r="3" fill="#3fb950"/><circle cx="247.1" cy="198.0" r="3" fill="#3fb950"/><circle cx="252.4" cy="198.0" r="3" fill="#3fb950"/><circle cx="257.6" cy="198.0" r="3" fill="#3fb950"/><circle cx="262.9" cy="191.7" r="3" fill="#3fb950"/><circle cx="268.2" cy="191.7" r="3" fill="#3fb950"/><circle cx="273.5" cy="191.7" r="3" fill="#3fb950"/><circle cx="278.8" cy="191.7" r="3" fill="#3fb950"/><circle cx="284.0" cy="191.7" r="3" fill="#3fb950"/><circle cx="289.3" cy="191.7" r="3" fill="#3fb950"/><circle cx="294.6" cy="191.7" r="3" fill="#3fb950"/><circle cx="299.9" cy="192.9" r="3" fill="#3fb950"/><circle cx="305.1" cy="192.9" r="3" fill="#3fb950"/><circle cx="310.4" cy="190.7" r="3" fill="#3fb950"/><circle cx="315.7" cy="190.7" r="3" fill="#3fb950"/><circle cx="321.0" cy="190.7" r="3" fill="#3fb950"/><circle cx="326.3" cy="190.7" r="3" fill="#3fb950"/><circle cx="331.5" cy="190.7" r="3" fill="#3fb950"/><circle cx="336.8" cy="190.5" r="3" fill="#3fb950"/><circle cx="342.1" cy="190.5" r="3" fill="#3fb950"/><circle cx="347.4" cy="190.5" r="3" fill="#3fb950"/><circle cx="352.6" cy="190.3" r="3" fill="#3fb950"/><circle cx="357.9" cy="190.3" r="3" fill="#3fb950"/><circle cx="363.2" cy="190.3" r="3" fill="#3fb950"/><circle cx="368.5" cy="190.3" r="3" fill="#3fb950"/><circle cx="373.7" cy="190.3" r="3" fill="#3fb950"/><circle cx="379.0" cy="190.3" r="3" fill="#3fb950"/><circle cx="384.3" cy="190.3" r="3" fill="#3fb950"/><circle cx="389.6" cy="190.3" r="3" fill="#3fb950"/><circle cx="394.9" cy="190.3" r="3" fill="#3fb950"/><circle cx="400.1" cy="190.3" r="3" fill="#3fb950"/><circle cx="405.4" cy="190.3" r="3" fill="#3fb950"/><circle cx="410.7" cy="190.3" r="3" fill="#3fb950"/><circle cx="416.0" cy="190.3" r="3" fill="#3fb950"/><circle cx="421.2" cy="190.3" r="3" fill="#3fb950"/><circle cx="426.5" cy="190.3" r="3" fill="#3fb950"/><circle cx="431.8" cy="190.3" r="3" fill="#3fb950"/><circle cx="437.1" cy="190.3" r="3" fill="#3fb950"/><circle cx="442.4" cy="190.3" r="3" fill="#3fb950"/><circle cx="447.6" cy="190.3" r="3" fill="#3fb950"/><circle cx="452.9" cy="190.3" r="3" fill="#3fb950"/><circle cx="458.2" cy="190.3" r="3" fill="#3fb950"/><circle cx="463.5" cy="189.3" r="3" fill="#3fb950"/><circle cx="468.7" cy="189.3" r="3" fill="#3fb950"/><circle cx="474.0" cy="189.3" r="3" fill="#3fb950"/><circle cx="479.3" cy="190.7" r="3" fill="#3fb950"/><circle cx="484.6" cy="190.7" r="3" fill="#3fb950"/><circle cx="489.8" cy="190.7" r="3" fill="#3fb950"/><circle cx="495.1" cy="190.7" r="3" fill="#3fb950"/><circle cx="500.4" cy="190.7" r="3" fill="#3fb950"/><circle cx="505.7" cy="190.7" r="3" fill="#3fb950"/><circle cx="511.0" cy="190.7" r="3" fill="#3fb950"/><circle cx="516.2" cy="190.7" r="3" fill="#3fb950"/><circle cx="521.5" cy="190.7" r="3" fill="#3fb950"/><circle cx="526.8" cy="190.9" r="3" fill="#3fb950"/><circle cx="532.1" cy="190.9" r="3" fill="#3fb950"/><circle cx="537.3" cy="190.9" r="3" fill="#3fb950"/><circle cx="542.6" cy="194.2" r="3" fill="#3fb950"/><circle cx="547.9" cy="196.8" r="3" fill="#3fb950"/><circle cx="553.2" cy="198.0" r="3" fill="#3fb950"/><circle cx="558.5" cy="198.0" r="3" fill="#3fb950"/><circle cx="563.7" cy="198.0" r="3" fill="#3fb950"/><circle cx="569.0" cy="198.0" r="3" fill="#3fb950"/><circle cx="574.3" cy="198.0" r="3" fill="#3fb950"/><circle cx="579.6" cy="198.0" r="3" fill="#3fb950"/><circle cx="584.8" cy="198.0" r="3" fill="#3fb950"/><circle cx="590.1" cy="198.0" r="3" fill="#3fb950"/><circle cx="595.4" cy="198.0" r="3" fill="#3fb950"/><circle cx="600.7" cy="198.0" r="3" fill="#3fb950"/><circle cx="605.9" cy="198.0" r="3" fill="#3fb950"/><circle cx="611.2" cy="198.0" r="3" fill="#3fb950"/><circle cx="616.5" cy="198.0" r="3" fill="#3fb950"/><circle cx="621.8" cy="198.0" r="3" fill="#3fb950"/><circle cx="627.1" cy="198.0" r="3" fill="#3fb950"/><circle cx="632.3" cy="198.0" r="3" fill="#3fb950"/><circle cx="637.6" cy="198.0" r="3" fill="#3fb950"/><circle cx="642.9" cy="198.0" r="3" fill="#3fb950"/><circle cx="648.2" cy="198.0" r="3" fill="#3fb950"/><circle cx="653.4" cy="198.0" r="3" fill="#3fb950"/><circle cx="658.7" cy="198.0" r="3" fill="#3fb950"/><circle cx="664.0" cy="198.0" r="3" fill="#3fb950"/>
<polyline fill="none" stroke="#4aa3ff" stroke-width="2.5" stroke-linejoin="round" points="36.0,144.3 41.3,144.3 46.6,144.3 51.8,144.3 57.1,144.3 62.4,144.3 67.7,144.3 72.9,144.3 78.2,144.3 83.5,144.3 88.8,144.3 94.1,144.3 99.3,144.3 104.6,144.3 109.9,144.3 115.2,136.2 120.4,132.4 125.7,129.6 131.0,129.6 136.3,121.0 141.5,121.0 146.8,121.0 152.1,114.4 157.4,114.4 162.7,114.4 167.9,111.3 173.2,110.9 178.5,110.9 183.8,110.5 189.0,110.5 194.3,109.9 199.6,108.7 204.9,107.3 210.2,106.9 215.4,106.9 220.7,106.9 226.0,106.9 231.3,106.9 236.5,106.9 241.8,106.9 247.1,106.9 252.4,106.9 257.6,106.9 262.9,113.2 268.2,113.2 273.5,113.2 278.8,113.2 284.0,113.2 289.3,110.7 294.6,105.3 299.9,83.4 305.1,83.4 310.4,85.6 315.7,85.6 321.0,85.6 326.3,85.6 331.5,85.6 336.8,85.8 342.1,85.8 347.4,85.8 352.6,86.0 357.9,86.0 363.2,86.0 368.5,86.0 373.7,86.0 379.0,86.0 384.3,86.0 389.6,86.0 394.9,86.0 400.1,86.0 405.4,86.0 410.7,86.0 416.0,86.0 421.2,86.0 426.5,86.0 431.8,86.0 437.1,86.0 442.4,86.0 447.6,86.0 452.9,86.0 458.2,86.0 463.5,87.0 468.7,87.0 474.0,87.0 479.3,73.7 484.6,73.7 489.8,71.0 495.1,71.0 500.4,70.8 505.7,70.6 511.0,70.6 516.2,70.4 521.5,68.6 526.8,60.5 532.1,59.3 537.3,52.0 542.6,47.3 547.9,40.1 553.2,36.0 558.5,36.0 563.7,36.0 569.0,36.0 574.3,36.0 579.6,36.0 584.8,36.0 590.1,36.0 595.4,36.0 600.7,36.0 605.9,36.0 611.2,36.0 616.5,36.0 621.8,36.0 627.1,36.0 632.3,36.0 637.6,36.0 642.9,36.0 648.2,36.0 653.4,36.0 658.7,36.0 664.0,36.0"/><circle cx="36.0" cy="144.3" r="3" fill="#4aa3ff"/><circle cx="41.3" cy="144.3" r="3" fill="#4aa3ff"/><circle cx="46.6" cy="144.3" r="3" fill="#4aa3ff"/><circle cx="51.8" cy="144.3" r="3" fill="#4aa3ff"/><circle cx="57.1" cy="144.3" r="3" fill="#4aa3ff"/><circle cx="62.4" cy="144.3" r="3" fill="#4aa3ff"/><circle cx="67.7" cy="144.3" r="3" fill="#4aa3ff"/><circle cx="72.9" cy="144.3" r="3" fill="#4aa3ff"/><circle cx="78.2" cy="144.3" r="3" fill="#4aa3ff"/><circle cx="83.5" cy="144.3" r="3" fill="#4aa3ff"/><circle cx="88.8" cy="144.3" r="3" fill="#4aa3ff"/><circle cx="94.1" cy="144.3" r="3" fill="#4aa3ff"/><circle cx="99.3" cy="144.3" r="3" fill="#4aa3ff"/><circle cx="104.6" cy="144.3" r="3" fill="#4aa3ff"/><circle cx="109.9" cy="144.3" r="3" fill="#4aa3ff"/><circle cx="115.2" cy="136.2" r="3" fill="#4aa3ff"/><circle cx="120.4" cy="132.4" r="3" fill="#4aa3ff"/><circle cx="125.7" cy="129.6" r="3" fill="#4aa3ff"/><circle cx="131.0" cy="129.6" r="3" fill="#4aa3ff"/><circle cx="136.3" cy="121.0" r="3" fill="#4aa3ff"/><circle cx="141.5" cy="121.0" r="3" fill="#4aa3ff"/><circle cx="146.8" cy="121.0" r="3" fill="#4aa3ff"/><circle cx="152.1" cy="114.4" r="3" fill="#4aa3ff"/><circle cx="157.4" cy="114.4" r="3" fill="#4aa3ff"/><circle cx="162.7" cy="114.4" r="3" fill="#4aa3ff"/><circle cx="167.9" cy="111.3" r="3" fill="#4aa3ff"/><circle cx="173.2" cy="110.9" r="3" fill="#4aa3ff"/><circle cx="178.5" cy="110.9" r="3" fill="#4aa3ff"/><circle cx="183.8" cy="110.5" r="3" fill="#4aa3ff"/><circle cx="189.0" cy="110.5" r="3" fill="#4aa3ff"/><circle cx="194.3" cy="109.9" r="3" fill="#4aa3ff"/><circle cx="199.6" cy="108.7" r="3" fill="#4aa3ff"/><circle cx="204.9" cy="107.3" r="3" fill="#4aa3ff"/><circle cx="210.2" cy="106.9" r="3" fill="#4aa3ff"/><circle cx="215.4" cy="106.9" r="3" fill="#4aa3ff"/><circle cx="220.7" cy="106.9" r="3" fill="#4aa3ff"/><circle cx="226.0" cy="106.9" r="3" fill="#4aa3ff"/><circle cx="231.3" cy="106.9" r="3" fill="#4aa3ff"/><circle cx="236.5" cy="106.9" r="3" fill="#4aa3ff"/><circle cx="241.8" cy="106.9" r="3" fill="#4aa3ff"/><circle cx="247.1" cy="106.9" r="3" fill="#4aa3ff"/><circle cx="252.4" cy="106.9" r="3" fill="#4aa3ff"/><circle cx="257.6" cy="106.9" r="3" fill="#4aa3ff"/><circle cx="262.9" cy="113.2" r="3" fill="#4aa3ff"/><circle cx="268.2" cy="113.2" r="3" fill="#4aa3ff"/><circle cx="273.5" cy="113.2" r="3" fill="#4aa3ff"/><circle cx="278.8" cy="113.2" r="3" fill="#4aa3ff"/><circle cx="284.0" cy="113.2" r="3" fill="#4aa3ff"/><circle cx="289.3" cy="110.7" r="3" fill="#4aa3ff"/><circle cx="294.6" cy="105.3" r="3" fill="#4aa3ff"/><circle cx="299.9" cy="83.4" r="3" fill="#4aa3ff"/><circle cx="305.1" cy="83.4" r="3" fill="#4aa3ff"/><circle cx="310.4" cy="85.6" r="3" fill="#4aa3ff"/><circle cx="315.7" cy="85.6" r="3" fill="#4aa3ff"/><circle cx="321.0" cy="85.6" r="3" fill="#4aa3ff"/><circle cx="326.3" cy="85.6" r="3" fill="#4aa3ff"/><circle cx="331.5" cy="85.6" r="3" fill="#4aa3ff"/><circle cx="336.8" cy="85.8" r="3" fill="#4aa3ff"/><circle cx="342.1" cy="85.8" r="3" fill="#4aa3ff"/><circle cx="347.4" cy="85.8" r="3" fill="#4aa3ff"/><circle cx="352.6" cy="86.0" r="3" fill="#4aa3ff"/><circle cx="357.9" cy="86.0" r="3" fill="#4aa3ff"/><circle cx="363.2" cy="86.0" r="3" fill="#4aa3ff"/><circle cx="368.5" cy="86.0" r="3" fill="#4aa3ff"/><circle cx="373.7" cy="86.0" r="3" fill="#4aa3ff"/><circle cx="379.0" cy="86.0" r="3" fill="#4aa3ff"/><circle cx="384.3" cy="86.0" r="3" fill="#4aa3ff"/><circle cx="389.6" cy="86.0" r="3" fill="#4aa3ff"/><circle cx="394.9" cy="86.0" r="3" fill="#4aa3ff"/><circle cx="400.1" cy="86.0" r="3" fill="#4aa3ff"/><circle cx="405.4" cy="86.0" r="3" fill="#4aa3ff"/><circle cx="410.7" cy="86.0" r="3" fill="#4aa3ff"/><circle cx="416.0" cy="86.0" r="3" fill="#4aa3ff"/><circle cx="421.2" cy="86.0" r="3" fill="#4aa3ff"/><circle cx="426.5" cy="86.0" r="3" fill="#4aa3ff"/><circle cx="431.8" cy="86.0" r="3" fill="#4aa3ff"/><circle cx="437.1" cy="86.0" r="3" fill="#4aa3ff"/><circle cx="442.4" cy="86.0" r="3" fill="#4aa3ff"/><circle cx="447.6" cy="86.0" r="3" fill="#4aa3ff"/><circle cx="452.9" cy="86.0" r="3" fill="#4aa3ff"/><circle cx="458.2" cy="86.0" r="3" fill="#4aa3ff"/><circle cx="463.5" cy="87.0" r="3" fill="#4aa3ff"/><circle cx="468.7" cy="87.0" r="3" fill="#4aa3ff"/><circle cx="474.0" cy="87.0" r="3" fill="#4aa3ff"/><circle cx="479.3" cy="73.7" r="3" fill="#4aa3ff"/><circle cx="484.6" cy="73.7" r="3" fill="#4aa3ff"/><circle cx="489.8" cy="71.0" r="3" fill="#4aa3ff"/><circle cx="495.1" cy="71.0" r="3" fill="#4aa3ff"/><circle cx="500.4" cy="70.8" r="3" fill="#4aa3ff"/><circle cx="505.7" cy="70.6" r="3" fill="#4aa3ff"/><circle cx="511.0" cy="70.6" r="3" fill="#4aa3ff"/><circle cx="516.2" cy="70.4" r="3" fill="#4aa3ff"/><circle cx="521.5" cy="68.6" r="3" fill="#4aa3ff"/><circle cx="526.8" cy="60.5" r="3" fill="#4aa3ff"/><circle cx="532.1" cy="59.3" r="3" fill="#4aa3ff"/><circle cx="537.3" cy="52.0" r="3" fill="#4aa3ff"/><circle cx="542.6" cy="47.3" r="3" fill="#4aa3ff"/><circle cx="547.9" cy="40.1" r="3" fill="#4aa3ff"/><circle cx="553.2" cy="36.0" r="3" fill="#4aa3ff"/><circle cx="558.5" cy="36.0" r="3" fill="#4aa3ff"/><circle cx="563.7" cy="36.0" r="3" fill="#4aa3ff"/><circle cx="569.0" cy="36.0" r="3" fill="#4aa3ff"/><circle cx="574.3" cy="36.0" r="3" fill="#4aa3ff"/><circle cx="579.6" cy="36.0" r="3" fill="#4aa3ff"/><circle cx="584.8" cy="36.0" r="3" fill="#4aa3ff"/><circle cx="590.1" cy="36.0" r="3" fill="#4aa3ff"/><circle cx="595.4" cy="36.0" r="3" fill="#4aa3ff"/><circle cx="600.7" cy="36.0" r="3" fill="#4aa3ff"/><circle cx="605.9" cy="36.0" r="3" fill="#4aa3ff"/><circle cx="611.2" cy="36.0" r="3" fill="#4aa3ff"/><circle cx="616.5" cy="36.0" r="3" fill="#4aa3ff"/><circle cx="621.8" cy="36.0" r="3" fill="#4aa3ff"/><circle cx="627.1" cy="36.0" r="3" fill="#4aa3ff"/><circle cx="632.3" cy="36.0" r="3" fill="#4aa3ff"/><circle cx="637.6" cy="36.0" r="3" fill="#4aa3ff"/><circle cx="642.9" cy="36.0" r="3" fill="#4aa3ff"/><circle cx="648.2" cy="36.0" r="3" fill="#4aa3ff"/><circle cx="653.4" cy="36.0" r="3" fill="#4aa3ff"/><circle cx="658.7" cy="36.0" r="3" fill="#4aa3ff"/><circle cx="664.0" cy="36.0" r="3" fill="#4aa3ff"/>
<text x="36" y="225" fill="#6b7280" font-size="11">2026-06-26</text>
<text x="664" y="225" fill="#6b7280" font-size="11" text-anchor="end">2026-07-09</text>
<text x="36" y="212" font-family="system-ui,sans-serif" font-size="11">
<tspan fill="#4aa3ff">&#9679; open FPs</tspan>  <tspan fill="#3fb950">&#9679; closed (Anthropic acting)</tspan>  <tspan fill="#8a5a5a">&#9679; harness withdrawn</tspan></text>
<text x="664" y="22" text-anchor="end" font-family="system-ui,sans-serif" font-size="12">
<tspan fill="#4aa3ff">open 800</tspan>  <tspan fill="#3fb950">closed 0</tspan>  <tspan fill="#8a5a5a">harness 0</tspan></text>
</svg>