<svg xmlns="http://www.w3.org/2000/svg" width="700" height="234" viewBox="0 0 700 234" role="img">
<rect width="700" height="234" rx="12" fill="#16181d"/>
<text x="36" y="22" fill="#e8eaed" font-family="system-ui,sans-serif" font-size="14" font-weight="700">Is Anthropic acting? cyber/aup false positives over time</text>
<line x1="36" y1="198.0" x2="664" y2="198.0" stroke="#2a2e37" stroke-width="1"/><text x="30" y="202.0" fill="#6b7280" font-size="11" text-anchor="end">0</text><line x1="36" y1="117.0" x2="664" y2="117.0" stroke="#2a2e37" stroke-width="1"/><text x="30" y="121.0" fill="#6b7280" font-size="11" text-anchor="end">400</text><line x1="36" y1="36.0" x2="664" y2="36.0" stroke="#2a2e37" stroke-width="1"/><text x="30" y="40.0" fill="#6b7280" font-size="11" text-anchor="end">800</text>

<polyline fill="none" stroke="#8a5a5a" stroke-width="2.5" stroke-linejoin="round" points="36.0,145.1 39.1,145.1 42.2,145.1 45.3,145.1 48.4,145.1 51.5,145.1 54.6,145.1 57.7,145.1 60.7,145.1 63.8,145.1 66.9,145.1 70.0,145.1 73.1,145.1 76.2,145.1 79.3,145.1 82.4,145.1 85.5,145.1 88.6,145.1 91.7,145.1 94.8,145.1 97.9,145.1 101.0,145.1 104.1,145.1 107.2,145.1 110.2,145.1 113.3,145.1 116.4,145.1 119.5,145.1 122.6,145.1 125.7,145.1 128.8,145.1 131.9,145.1 135.0,145.1 138.1,145.1 141.2,145.1 144.3,145.1 147.4,145.1 150.5,145.1 153.6,145.1 156.7,145.1 159.7,145.1 162.8,145.1 165.9,145.1 169.0,145.1 172.1,145.1 175.2,145.1 178.3,145.1 181.4,145.1 184.5,145.1 187.6,145.1 190.7,155.7 193.8,155.7 196.9,155.7 200.0,155.7 203.1,155.7 206.1,155.7 209.2,155.7 212.3,155.7 215.4,155.7 218.5,155.7 221.6,155.7 224.7,155.7 227.8,155.7 230.9,155.7 234.0,155.7 237.1,155.7 240.2,155.7 243.3,155.7 246.4,155.7 249.5,155.7 252.6,155.7 255.6,155.7 258.7,155.7 261.8,155.7 264.9,155.7 268.0,155.7 271.1,155.7 274.2,155.7 277.3,155.7 280.4,155.7 283.5,155.7 286.6,155.7 289.7,155.7 292.8,155.7 295.9,167.6 299.0,167.6 302.0,170.3 305.1,170.3 308.2,170.5 311.3,170.7 314.4,170.7 317.5,170.9 320.6,172.7 323.7,180.6 326.8,181.8 329.9,189.1 333.0,190.5 336.1,195.2 339.2,198.0 342.3,198.0 345.4,198.0 348.5,198.0 351.5,198.0 354.6,198.0 357.7,198.0 360.8,198.0 363.9,198.0 367.0,198.0 370.1,198.0 373.2,198.0 376.3,198.0 379.4,198.0 382.5,198.0 385.6,198.0 388.7,198.0 391.8,198.0 394.9,198.0 398.0,198.0 401.0,198.0 404.1,198.0 407.2,198.0 410.3,198.0 413.4,198.0 416.5,198.0 419.6,198.0 422.7,198.0 425.8,198.0 428.9,198.0 432.0,198.0 435.1,198.0 438.2,198.0 441.3,198.0 444.4,198.0 447.4,198.0 450.5,198.0 453.6,198.0 456.7,198.0 459.8,198.0 462.9,198.0 466.0,198.0 469.1,198.0 472.2,198.0 475.3,198.0 478.4,198.0 481.5,198.0 484.6,198.0 487.7,198.0 490.8,198.0 493.9,198.0 496.9,198.0 500.0,198.0 503.1,198.0 506.2,198.0 509.3,198.0 512.4,198.0 515.5,198.0 518.6,198.0 521.7,198.0 524.8,198.0 527.9,198.0 531.0,198.0 534.1,198.0 537.2,198.0 540.3,198.0 543.3,198.0 546.4,198.0 549.5,198.0 552.6,198.0 555.7,198.0 558.8,198.0 561.9,198.0 565.0,198.0 568.1,198.0 571.2,198.0 574.3,198.0 577.4,198.0 580.5,198.0 583.6,198.0 586.7,198.0 589.8,198.0 592.8,198.0 595.9,198.0 599.0,198.0 602.1,198.0 605.2,198.0 608.3,198.0 611.4,198.0 614.5,198.0 617.6,198.0 620.7,198.0 623.8,198.0 626.9,198.0 630.0,198.0 633.1,198.0 636.2,198.0 639.3,198.0 642.3,198.0 645.4,198.0 648.5,198.0 651.6,198.0 654.7,198.0 657.8,198.0 660.9,198.0 664.0,198.0"/><circle cx="36.0" cy="145.1" r="3" fill="#8a5a5a"/><circle cx="39.1" cy="145.1" r="3" fill="#8a5a5a"/><circle cx="42.2" cy="145.1" r="3" fill="#8a5a5a"/><circle cx="45.3" cy="145.1" r="3" fill="#8a5a5a"/><circle cx="48.4" cy="145.1" r="3" fill="#8a5a5a"/><circle cx="51.5" cy="145.1" r="3" fill="#8a5a5a"/><circle cx="54.6" cy="145.1" r="3" fill="#8a5a5a"/><circle cx="57.7" cy="145.1" r="3" fill="#8a5a5a"/><circle cx="60.7" cy="145.1" r="3" fill="#8a5a5a"/><circle cx="63.8" cy="145.1" r="3" fill="#8a5a5a"/><circle cx="66.9" cy="145.1" r="3" fill="#8a5a5a"/><circle cx="70.0" cy="145.1" r="3" fill="#8a5a5a"/><circle cx="73.1" cy="145.1" r="3" fill="#8a5a5a"/><circle cx="76.2" cy="145.1" r="3" fill="#8a5a5a"/><circle cx="79.3" cy="145.1" r="3" fill="#8a5a5a"/><circle cx="82.4" cy="145.1" r="3" fill="#8a5a5a"/><circle cx="85.5" cy="145.1" r="3" fill="#8a5a5a"/><circle cx="88.6" cy="145.1" r="3" fill="#8a5a5a"/><circle cx="91.7" cy="145.1" r="3" fill="#8a5a5a"/><circle cx="94.8" cy="145.1" r="3" fill="#8a5a5a"/><circle cx="97.9" cy="145.1" r="3" fill="#8a5a5a"/><circle cx="101.0" cy="145.1" r="3" fill="#8a5a5a"/><circle cx="104.1" cy="145.1" r="3" fill="#8a5a5a"/><circle cx="107.2" cy="145.1" r="3" fill="#8a5a5a"/><circle cx="110.2" cy="145.1" r="3" fill="#8a5a5a"/><circle cx="113.3" cy="145.1" r="3" fill="#8a5a5a"/><circle cx="116.4" cy="145.1" r="3" fill="#8a5a5a"/><circle cx="119.5" cy="145.1" r="3" fill="#8a5a5a"/><circle cx="122.6" cy="145.1" r="3" fill="#8a5a5a"/><circle cx="125.7" cy="145.1" r="3" fill="#8a5a5a"/><circle cx="128.8" cy="145.1" r="3" fill="#8a5a5a"/><circle cx="131.9" cy="145.1" r="3" fill="#8a5a5a"/><circle cx="135.0" cy="145.1" r="3" fill="#8a5a5a"/><circle cx="138.1" cy="145.1" r="3" fill="#8a5a5a"/><circle cx="141.2" cy="145.1" r="3" fill="#8a5a5a"/><circle cx="144.3" cy="145.1" r="3" fill="#8a5a5a"/><circle cx="147.4" cy="145.1" r="3" fill="#8a5a5a"/><circle cx="150.5" cy="145.1" r="3" fill="#8a5a5a"/><circle cx="153.6" cy="145.1" r="3" fill="#8a5a5a"/><circle cx="156.7" cy="145.1" r="3" fill="#8a5a5a"/><circle cx="159.7" cy="145.1" r="3" fill="#8a5a5a"/><circle cx="162.8" cy="145.1" r="3" fill="#8a5a5a"/><circle cx="165.9" cy="145.1" r="3" fill="#8a5a5a"/><circle cx="169.0" cy="145.1" r="3" fill="#8a5a5a"/><circle cx="172.1" cy="145.1" r="3" fill="#8a5a5a"/><circle cx="175.2" cy="145.1" r="3" fill="#8a5a5a"/><circle cx="178.3" cy="145.1" r="3" fill="#8a5a5a"/><circle cx="181.4" cy="145.1" r="3" fill="#8a5a5a"/><circle cx="184.5" cy="145.1" r="3" fill="#8a5a5a"/><circle cx="187.6" cy="145.1" r="3" fill="#8a5a5a"/><circle cx="190.7" cy="155.7" r="3" fill="#8a5a5a"/><circle cx="193.8" cy="155.7" r="3" fill="#8a5a5a"/><circle cx="196.9" cy="155.7" r="3" fill="#8a5a5a"/><circle cx="200.0" cy="155.7" r="3" fill="#8a5a5a"/><circle cx="203.1" cy="155.7" r="3" fill="#8a5a5a"/><circle cx="206.1" cy="155.7" r="3" fill="#8a5a5a"/><circle cx="209.2" cy="155.7" r="3" fill="#8a5a5a"/><circle cx="212.3" cy="155.7" r="3" fill="#8a5a5a"/><circle cx="215.4" cy="155.7" r="3" fill="#8a5a5a"/><circle cx="218.5" cy="155.7" r="3" fill="#8a5a5a"/><circle cx="221.6" cy="155.7" r="3" fill="#8a5a5a"/><circle cx="224.7" cy="155.7" r="3" fill="#8a5a5a"/><circle cx="227.8" cy="155.7" r="3" fill="#8a5a5a"/><circle cx="230.9" cy="155.7" r="3" fill="#8a5a5a"/><circle cx="234.0" cy="155.7" r="3" fill="#8a5a5a"/><circle cx="237.1" cy="155.7" r="3" fill="#8a5a5a"/><circle cx="240.2" cy="155.7" r="3" fill="#8a5a5a"/><circle cx="243.3" cy="155.7" r="3" fill="#8a5a5a"/><circle cx="246.4" cy="155.7" r="3" fill="#8a5a5a"/><circle cx="249.5" cy="155.7" r="3" fill="#8a5a5a"/><circle cx="252.6" cy="155.7" r="3" fill="#8a5a5a"/><circle cx="255.6" cy="155.7" r="3" fill="#8a5a5a"/><circle cx="258.7" cy="155.7" r="3" fill="#8a5a5a"/><circle cx="261.8" cy="155.7" r="3" fill="#8a5a5a"/><circle cx="264.9" cy="155.7" r="3" fill="#8a5a5a"/><circle cx="268.0" cy="155.7" r="3" fill="#8a5a5a"/><circle cx="271.1" cy="155.7" r="3" fill="#8a5a5a"/><circle cx="274.2" cy="155.7" r="3" fill="#8a5a5a"/><circle cx="277.3" cy="155.7" r="3" fill="#8a5a5a"/><circle cx="280.4" cy="155.7" r="3" fill="#8a5a5a"/><circle cx="283.5" cy="155.7" r="3" fill="#8a5a5a"/><circle cx="286.6" cy="155.7" r="3" fill="#8a5a5a"/><circle cx="289.7" cy="155.7" r="3" fill="#8a5a5a"/><circle cx="292.8" cy="155.7" r="3" fill="#8a5a5a"/><circle cx="295.9" cy="167.6" r="3" fill="#8a5a5a"/><circle cx="299.0" cy="167.6" r="3" fill="#8a5a5a"/><circle cx="302.0" cy="170.3" r="3" fill="#8a5a5a"/><circle cx="305.1" cy="170.3" r="3" fill="#8a5a5a"/><circle cx="308.2" cy="170.5" r="3" fill="#8a5a5a"/><circle cx="311.3" cy="170.7" r="3" fill="#8a5a5a"/><circle cx="314.4" cy="170.7" r="3" fill="#8a5a5a"/><circle cx="317.5" cy="170.9" r="3" fill="#8a5a5a"/><circle cx="320.6" cy="172.7" r="3" fill="#8a5a5a"/><circle cx="323.7" cy="180.6" r="3" fill="#8a5a5a"/><circle cx="326.8" cy="181.8" r="3" fill="#8a5a5a"/><circle cx="329.9" cy="189.1" r="3" fill="#8a5a5a"/><circle cx="333.0" cy="190.5" r="3" fill="#8a5a5a"/><circle cx="336.1" cy="195.2" r="3" fill="#8a5a5a"/><circle cx="339.2" cy="198.0" r="3" fill="#8a5a5a"/><circle cx="342.3" cy="198.0" r="3" fill="#8a5a5a"/><circle cx="345.4" cy="198.0" r="3" fill="#8a5a5a"/><circle cx="348.5" cy="198.0" r="3" fill="#8a5a5a"/><circle cx="351.5" cy="198.0" r="3" fill="#8a5a5a"/><circle cx="354.6" cy="198.0" r="3" fill="#8a5a5a"/><circle cx="357.7" cy="198.0" r="3" fill="#8a5a5a"/><circle cx="360.8" cy="198.0" r="3" fill="#8a5a5a"/><circle cx="363.9" cy="198.0" r="3" fill="#8a5a5a"/><circle cx="367.0" cy="198.0" r="3" fill="#8a5a5a"/><circle cx="370.1" cy="198.0" r="3" fill="#8a5a5a"/><circle cx="373.2" cy="198.0" r="3" fill="#8a5a5a"/><circle cx="376.3" cy="198.0" r="3" fill="#8a5a5a"/><circle cx="379.4" cy="198.0" r="3" fill="#8a5a5a"/><circle cx="382.5" cy="198.0" r="3" fill="#8a5a5a"/><circle cx="385.6" cy="198.0" r="3" fill="#8a5a5a"/><circle cx="388.7" cy="198.0" r="3" fill="#8a5a5a"/><circle cx="391.8" cy="198.0" r="3" fill="#8a5a5a"/><circle cx="394.9" cy="198.0" r="3" fill="#8a5a5a"/><circle cx="398.0" cy="198.0" r="3" fill="#8a5a5a"/><circle cx="401.0" cy="198.0" r="3" fill="#8a5a5a"/><circle cx="404.1" cy="198.0" r="3" fill="#8a5a5a"/><circle cx="407.2" cy="198.0" r="3" fill="#8a5a5a"/><circle cx="410.3" cy="198.0" r="3" fill="#8a5a5a"/><circle cx="413.4" cy="198.0" r="3" fill="#8a5a5a"/><circle cx="416.5" cy="198.0" r="3" fill="#8a5a5a"/><circle cx="419.6" cy="198.0" r="3" fill="#8a5a5a"/><circle cx="422.7" cy="198.0" r="3" fill="#8a5a5a"/><circle cx="425.8" cy="198.0" r="3" fill="#8a5a5a"/><circle cx="428.9" cy="198.0" r="3" fill="#8a5a5a"/><circle cx="432.0" cy="198.0" r="3" fill="#8a5a5a"/><circle cx="435.1" cy="198.0" r="3" fill="#8a5a5a"/><circle cx="438.2" cy="198.0" r="3" fill="#8a5a5a"/><circle cx="441.3" cy="198.0" r="3" fill="#8a5a5a"/><circle cx="444.4" cy="198.0" r="3" fill="#8a5a5a"/><circle cx="447.4" cy="198.0" r="3" fill="#8a5a5a"/><circle cx="450.5" cy="198.0" r="3" fill="#8a5a5a"/><circle cx="453.6" cy="198.0" r="3" fill="#8a5a5a"/><circle cx="456.7" cy="198.0" r="3" fill="#8a5a5a"/><circle cx="459.8" cy="198.0" r="3" fill="#8a5a5a"/><circle cx="462.9" cy="198.0" r="3" fill="#8a5a5a"/><circle cx="466.0" cy="198.0" r="3" fill="#8a5a5a"/><circle cx="469.1" cy="198.0" r="3" fill="#8a5a5a"/><circle cx="472.2" cy="198.0" r="3" fill="#8a5a5a"/><circle cx="475.3" cy="198.0" r="3" fill="#8a5a5a"/><circle cx="478.4" cy="198.0" r="3" fill="#8a5a5a"/><circle cx="481.5" cy="198.0" r="3" fill="#8a5a5a"/><circle cx="484.6" cy="198.0" r="3" fill="#8a5a5a"/><circle cx="487.7" cy="198.0" r="3" fill="#8a5a5a"/><circle cx="490.8" cy="198.0" r="3" fill="#8a5a5a"/><circle cx="493.9" cy="198.0" r="3" fill="#8a5a5a"/><circle cx="496.9" cy="198.0" r="3" fill="#8a5a5a"/><circle cx="500.0" cy="198.0" r="3" fill="#8a5a5a"/><circle cx="503.1" cy="198.0" r="3" fill="#8a5a5a"/><circle cx="506.2" cy="198.0" r="3" fill="#8a5a5a"/><circle cx="509.3" cy="198.0" r="3" fill="#8a5a5a"/><circle cx="512.4" cy="198.0" r="3" fill="#8a5a5a"/><circle cx="515.5" cy="198.0" r="3" fill="#8a5a5a"/><circle cx="518.6" cy="198.0" r="3" fill="#8a5a5a"/><circle cx="521.7" cy="198.0" r="3" fill="#8a5a5a"/><circle cx="524.8" cy="198.0" r="3" fill="#8a5a5a"/><circle cx="527.9" cy="198.0" r="3" fill="#8a5a5a"/><circle cx="531.0" cy="198.0" r="3" fill="#8a5a5a"/><circle cx="534.1" cy="198.0" r="3" fill="#8a5a5a"/><circle cx="537.2" cy="198.0" r="3" fill="#8a5a5a"/><circle cx="540.3" cy="198.0" r="3" fill="#8a5a5a"/><circle cx="543.3" cy="198.0" r="3" fill="#8a5a5a"/><circle cx="546.4" cy="198.0" r="3" fill="#8a5a5a"/><circle cx="549.5" cy="198.0" r="3" fill="#8a5a5a"/><circle cx="552.6" cy="198.0" r="3" fill="#8a5a5a"/><circle cx="555.7" cy="198.0" r="3" fill="#8a5a5a"/><circle cx="558.8" cy="198.0" r="3" fill="#8a5a5a"/><circle cx="561.9" cy="198.0" r="3" fill="#8a5a5a"/><circle cx="565.0" cy="198.0" r="3" fill="#8a5a5a"/><circle cx="568.1" cy="198.0" r="3" fill="#8a5a5a"/><circle cx="571.2" cy="198.0" r="3" fill="#8a5a5a"/><circle cx="574.3" cy="198.0" r="3" fill="#8a5a5a"/><circle cx="577.4" cy="198.0" r="3" fill="#8a5a5a"/><circle cx="580.5" cy="198.0" r="3" fill="#8a5a5a"/><circle cx="583.6" cy="198.0" r="3" fill="#8a5a5a"/><circle cx="586.7" cy="198.0" r="3" fill="#8a5a5a"/><circle cx="589.8" cy="198.0" r="3" fill="#8a5a5a"/><circle cx="592.8" cy="198.0" r="3" fill="#8a5a5a"/><circle cx="595.9" cy="198.0" r="3" fill="#8a5a5a"/><circle cx="599.0" cy="198.0" r="3" fill="#8a5a5a"/><circle cx="602.1" cy="198.0" r="3" fill="#8a5a5a"/><circle cx="605.2" cy="198.0" r="3" fill="#8a5a5a"/><circle cx="608.3" cy="198.0" r="3" fill="#8a5a5a"/><circle cx="611.4" cy="198.0" r="3" fill="#8a5a5a"/><circle cx="614.5" cy="198.0" r="3" fill="#8a5a5a"/><circle cx="617.6" cy="198.0" r="3" fill="#8a5a5a"/><circle cx="620.7" cy="198.0" r="3" fill="#8a5a5a"/><circle cx="623.8" cy="198.0" r="3" fill="#8a5a5a"/><circle cx="626.9" cy="198.0" r="3" fill="#8a5a5a"/><circle cx="630.0" cy="198.0" r="3" fill="#8a5a5a"/><circle cx="633.1" cy="198.0" r="3" fill="#8a5a5a"/><circle cx="636.2" cy="198.0" r="3" fill="#8a5a5a"/><circle cx="639.3" cy="198.0" r="3" fill="#8a5a5a"/><circle cx="642.3" cy="198.0" r="3" fill="#8a5a5a"/><circle cx="645.4" cy="198.0" r="3" fill="#8a5a5a"/><circle cx="648.5" cy="198.0" r="3" fill="#8a5a5a"/><circle cx="651.6" cy="198.0" r="3" fill="#8a5a5a"/><circle cx="654.7" cy="198.0" r="3" fill="#8a5a5a"/><circle cx="657.8" cy="198.0" r="3" fill="#8a5a5a"/><circle cx="660.9" cy="198.0" r="3" fill="#8a5a5a"/><circle cx="664.0" cy="198.0" r="3" fill="#8a5a5a"/>
<polyline fill="none" stroke="#3fb950" stroke-width="2.5" stroke-linejoin="round" points="36.0,198.0 39.1,198.0 42.2,198.0 45.3,198.0 48.4,198.0 51.5,198.0 54.6,198.0 57.7,198.0 60.7,198.0 63.8,198.0 66.9,198.0 70.0,198.0 73.1,198.0 76.2,198.0 79.3,198.0 82.4,198.0 85.5,198.0 88.6,198.0 91.7,198.0 94.8,198.0 97.9,198.0 101.0,198.0 104.1,198.0 107.2,198.0 110.2,198.0 113.3,198.0 116.4,198.0 119.5,198.0 122.6,198.0 125.7,198.0 128.8,198.0 131.9,198.0 135.0,198.0 138.1,198.0 141.2,198.0 144.3,198.0 147.4,198.0 150.5,198.0 153.6,198.0 156.7,198.0 159.7,198.0 162.8,198.0 165.9,198.0 169.0,191.7 172.1,191.7 175.2,191.7 178.3,191.7 181.4,191.7 184.5,191.7 187.6,191.7 190.7,192.9 193.8,192.9 196.9,190.7 200.0,190.7 203.1,190.7 206.1,190.7 209.2,190.7 212.3,190.5 215.4,190.5 218.5,190.5 221.6,190.3 224.7,190.3 227.8,190.3 230.9,190.3 234.0,190.3 237.1,190.3 240.2,190.3 243.3,190.3 246.4,190.3 249.5,190.3 252.6,190.3 255.6,190.3 258.7,190.3 261.8,190.3 264.9,190.3 268.0,190.3 271.1,190.3 274.2,190.3 277.3,190.3 280.4,190.3 283.5,190.3 286.6,189.3 289.7,189.3 292.8,189.3 295.9,190.7 299.0,190.7 302.0,190.7 305.1,190.7 308.2,190.7 311.3,190.7 314.4,190.7 317.5,190.7 320.6,190.7 323.7,190.9 326.8,190.9 329.9,190.9 333.0,194.2 336.1,196.8 339.2,198.0 342.3,198.0 345.4,198.0 348.5,198.0 351.5,198.0 354.6,198.0 357.7,198.0 360.8,198.0 363.9,198.0 367.0,198.0 370.1,198.0 373.2,198.0 376.3,198.0 379.4,198.0 382.5,198.0 385.6,198.0 388.7,198.0 391.8,198.0 394.9,198.0 398.0,198.0 401.0,198.0 404.1,198.0 407.2,198.0 410.3,198.0 413.4,198.0 416.5,198.0 419.6,198.0 422.7,198.0 425.8,198.0 428.9,198.0 432.0,198.0 435.1,198.0 438.2,198.0 441.3,198.0 444.4,198.0 447.4,198.0 450.5,198.0 453.6,198.0 456.7,198.0 459.8,198.0 462.9,198.0 466.0,198.0 469.1,198.0 472.2,198.0 475.3,198.0 478.4,198.0 481.5,198.0 484.6,198.0 487.7,198.0 490.8,198.0 493.9,198.0 496.9,198.0 500.0,198.0 503.1,198.0 506.2,198.0 509.3,198.0 512.4,198.0 515.5,198.0 518.6,198.0 521.7,198.0 524.8,198.0 527.9,198.0 531.0,198.0 534.1,198.0 537.2,198.0 540.3,198.0 543.3,198.0 546.4,198.0 549.5,198.0 552.6,198.0 555.7,198.0 558.8,198.0 561.9,198.0 565.0,198.0 568.1,198.0 571.2,198.0 574.3,198.0 577.4,198.0 580.5,198.0 583.6,198.0 586.7,198.0 589.8,198.0 592.8,198.0 595.9,198.0 599.0,198.0 602.1,198.0 605.2,198.0 608.3,198.0 611.4,198.0 614.5,198.0 617.6,198.0 620.7,198.0 623.8,198.0 626.9,198.0 630.0,198.0 633.1,198.0 636.2,198.0 639.3,198.0 642.3,198.0 645.4,198.0 648.5,198.0 651.6,198.0 654.7,198.0 657.8,198.0 660.9,198.0 664.0,198.0"/><circle cx="36.0" cy="198.0" r="3" fill="#3fb950"/><circle cx="39.1" cy="198.0" r="3" fill="#3fb950"/><circle cx="42.2" cy="198.0" r="3" fill="#3fb950"/><circle cx="45.3" cy="198.0" r="3" fill="#3fb950"/><circle cx="48.4" cy="198.0" r="3" fill="#3fb950"/><circle cx="51.5" cy="198.0" r="3" fill="#3fb950"/><circle cx="54.6" cy="198.0" r="3" fill="#3fb950"/><circle cx="57.7" cy="198.0" r="3" fill="#3fb950"/><circle cx="60.7" cy="198.0" r="3" fill="#3fb950"/><circle cx="63.8" cy="198.0" r="3" fill="#3fb950"/><circle cx="66.9" cy="198.0" r="3" fill="#3fb950"/><circle cx="70.0" cy="198.0" r="3" fill="#3fb950"/><circle cx="73.1" cy="198.0" r="3" fill="#3fb950"/><circle cx="76.2" cy="198.0" r="3" fill="#3fb950"/><circle cx="79.3" cy="198.0" r="3" fill="#3fb950"/><circle cx="82.4" cy="198.0" r="3" fill="#3fb950"/><circle cx="85.5" cy="198.0" r="3" fill="#3fb950"/><circle cx="88.6" cy="198.0" r="3" fill="#3fb950"/><circle cx="91.7" cy="198.0" r="3" fill="#3fb950"/><circle cx="94.8" cy="198.0" r="3" fill="#3fb950"/><circle cx="97.9" cy="198.0" r="3" fill="#3fb950"/><circle cx="101.0" cy="198.0" r="3" fill="#3fb950"/><circle cx="104.1" cy="198.0" r="3" fill="#3fb950"/><circle cx="107.2" cy="198.0" r="3" fill="#3fb950"/><circle cx="110.2" cy="198.0" r="3" fill="#3fb950"/><circle cx="113.3" cy="198.0" r="3" fill="#3fb950"/><circle cx="116.4" cy="198.0" r="3" fill="#3fb950"/><circle cx="119.5" cy="198.0" r="3" fill="#3fb950"/><circle cx="122.6" cy="198.0" r="3" fill="#3fb950"/><circle cx="125.7" cy="198.0" r="3" fill="#3fb950"/><circle cx="128.8" cy="198.0" r="3" fill="#3fb950"/><circle cx="131.9" cy="198.0" r="3" fill="#3fb950"/><circle cx="135.0" cy="198.0" r="3" fill="#3fb950"/><circle cx="138.1" cy="198.0" r="3" fill="#3fb950"/><circle cx="141.2" cy="198.0" r="3" fill="#3fb950"/><circle cx="144.3" cy="198.0" r="3" fill="#3fb950"/><circle cx="147.4" cy="198.0" r="3" fill="#3fb950"/><circle cx="150.5" cy="198.0" r="3" fill="#3fb950"/><circle cx="153.6" cy="198.0" r="3" fill="#3fb950"/><circle cx="156.7" cy="198.0" r="3" fill="#3fb950"/><circle cx="159.7" cy="198.0" r="3" fill="#3fb950"/><circle cx="162.8" cy="198.0" r="3" fill="#3fb950"/><circle cx="165.9" cy="198.0" r="3" fill="#3fb950"/><circle cx="169.0" cy="191.7" r="3" fill="#3fb950"/><circle cx="172.1" cy="191.7" r="3" fill="#3fb950"/><circle cx="175.2" cy="191.7" r="3" fill="#3fb950"/><circle cx="178.3" cy="191.7" r="3" fill="#3fb950"/><circle cx="181.4" cy="191.7" r="3" fill="#3fb950"/><circle cx="184.5" cy="191.7" r="3" fill="#3fb950"/><circle cx="187.6" cy="191.7" r="3" fill="#3fb950"/><circle cx="190.7" cy="192.9" r="3" fill="#3fb950"/><circle cx="193.8" cy="192.9" r="3" fill="#3fb950"/><circle cx="196.9" cy="190.7" r="3" fill="#3fb950"/><circle cx="200.0" cy="190.7" r="3" fill="#3fb950"/><circle cx="203.1" cy="190.7" r="3" fill="#3fb950"/><circle cx="206.1" cy="190.7" r="3" fill="#3fb950"/><circle cx="209.2" cy="190.7" r="3" fill="#3fb950"/><circle cx="212.3" cy="190.5" r="3" fill="#3fb950"/><circle cx="215.4" cy="190.5" r="3" fill="#3fb950"/><circle cx="218.5" cy="190.5" r="3" fill="#3fb950"/><circle cx="221.6" cy="190.3" r="3" fill="#3fb950"/><circle cx="224.7" cy="190.3" r="3" fill="#3fb950"/><circle cx="227.8" cy="190.3" r="3" fill="#3fb950"/><circle cx="230.9" cy="190.3" r="3" fill="#3fb950"/><circle cx="234.0" cy="190.3" r="3" fill="#3fb950"/><circle cx="237.1" cy="190.3" r="3" fill="#3fb950"/><circle cx="240.2" cy="190.3" r="3" fill="#3fb950"/><circle cx="243.3" cy="190.3" r="3" fill="#3fb950"/><circle cx="246.4" cy="190.3" r="3" fill="#3fb950"/><circle cx="249.5" cy="190.3" r="3" fill="#3fb950"/><circle cx="252.6" cy="190.3" r="3" fill="#3fb950"/><circle cx="255.6" cy="190.3" r="3" fill="#3fb950"/><circle cx="258.7" cy="190.3" r="3" fill="#3fb950"/><circle cx="261.8" cy="190.3" r="3" fill="#3fb950"/><circle cx="264.9" cy="190.3" r="3" fill="#3fb950"/><circle cx="268.0" cy="190.3" r="3" fill="#3fb950"/><circle cx="271.1" cy="190.3" r="3" fill="#3fb950"/><circle cx="274.2" cy="190.3" r="3" fill="#3fb950"/><circle cx="277.3" cy="190.3" r="3" fill="#3fb950"/><circle cx="280.4" cy="190.3" r="3" fill="#3fb950"/><circle cx="283.5" cy="190.3" r="3" fill="#3fb950"/><circle cx="286.6" cy="189.3" r="3" fill="#3fb950"/><circle cx="289.7" cy="189.3" r="3" fill="#3fb950"/><circle cx="292.8" cy="189.3" r="3" fill="#3fb950"/><circle cx="295.9" cy="190.7" r="3" fill="#3fb950"/><circle cx="299.0" cy="190.7" r="3" fill="#3fb950"/><circle cx="302.0" cy="190.7" r="3" fill="#3fb950"/><circle cx="305.1" cy="190.7" r="3" fill="#3fb950"/><circle cx="308.2" cy="190.7" r="3" fill="#3fb950"/><circle cx="311.3" cy="190.7" r="3" fill="#3fb950"/><circle cx="314.4" cy="190.7" r="3" fill="#3fb950"/><circle cx="317.5" cy="190.7" r="3" fill="#3fb950"/><circle cx="320.6" cy="190.7" r="3" fill="#3fb950"/><circle cx="323.7" cy="190.9" r="3" fill="#3fb950"/><circle cx="326.8" cy="190.9" r="3" fill="#3fb950"/><circle cx="329.9" cy="190.9" r="3" fill="#3fb950"/><circle cx="333.0" cy="194.2" r="3" fill="#3fb950"/><circle cx="336.1" cy="196.8" r="3" fill="#3fb950"/><circle cx="339.2" cy="198.0" r="3" fill="#3fb950"/><circle cx="342.3" cy="198.0" r="3" fill="#3fb950"/><circle cx="345.4" cy="198.0" r="3" fill="#3fb950"/><circle cx="348.5" cy="198.0" r="3" fill="#3fb950"/><circle cx="351.5" cy="198.0" r="3" fill="#3fb950"/><circle cx="354.6" cy="198.0" r="3" fill="#3fb950"/><circle cx="357.7" cy="198.0" r="3" fill="#3fb950"/><circle cx="360.8" cy="198.0" r="3" fill="#3fb950"/><circle cx="363.9" cy="198.0" r="3" fill="#3fb950"/><circle cx="367.0" cy="198.0" r="3" fill="#3fb950"/><circle cx="370.1" cy="198.0" r="3" fill="#3fb950"/><circle cx="373.2" cy="198.0" r="3" fill="#3fb950"/><circle cx="376.3" cy="198.0" r="3" fill="#3fb950"/><circle cx="379.4" cy="198.0" r="3" fill="#3fb950"/><circle cx="382.5" cy="198.0" r="3" fill="#3fb950"/><circle cx="385.6" cy="198.0" r="3" fill="#3fb950"/><circle cx="388.7" cy="198.0" r="3" fill="#3fb950"/><circle cx="391.8" cy="198.0" r="3" fill="#3fb950"/><circle cx="394.9" cy="198.0" r="3" fill="#3fb950"/><circle cx="398.0" cy="198.0" r="3" fill="#3fb950"/><circle cx="401.0" cy="198.0" r="3" fill="#3fb950"/><circle cx="404.1" cy="198.0" r="3" fill="#3fb950"/><circle cx="407.2" cy="198.0" r="3" fill="#3fb950"/><circle cx="410.3" cy="198.0" r="3" fill="#3fb950"/><circle cx="413.4" cy="198.0" r="3" fill="#3fb950"/><circle cx="416.5" cy="198.0" r="3" fill="#3fb950"/><circle cx="419.6" cy="198.0" r="3" fill="#3fb950"/><circle cx="422.7" cy="198.0" r="3" fill="#3fb950"/><circle cx="425.8" cy="198.0" r="3" fill="#3fb950"/><circle cx="428.9" cy="198.0" r="3" fill="#3fb950"/><circle cx="432.0" cy="198.0" r="3" fill="#3fb950"/><circle cx="435.1" cy="198.0" r="3" fill="#3fb950"/><circle cx="438.2" cy="198.0" r="3" fill="#3fb950"/><circle cx="441.3" cy="198.0" r="3" fill="#3fb950"/><circle cx="444.4" cy="198.0" r="3" fill="#3fb950"/><circle cx="447.4" cy="198.0" r="3" fill="#3fb950"/><circle cx="450.5" cy="198.0" r="3" fill="#3fb950"/><circle cx="453.6" cy="198.0" r="3" fill="#3fb950"/><circle cx="456.7" cy="198.0" r="3" fill="#3fb950"/><circle cx="459.8" cy="198.0" r="3" fill="#3fb950"/><circle cx="462.9" cy="198.0" r="3" fill="#3fb950"/><circle cx="466.0" cy="198.0" r="3" fill="#3fb950"/><circle cx="469.1" cy="198.0" r="3" fill="#3fb950"/><circle cx="472.2" cy="198.0" r="3" fill="#3fb950"/><circle cx="475.3" cy="198.0" r="3" fill="#3fb950"/><circle cx="478.4" cy="198.0" r="3" fill="#3fb950"/><circle cx="481.5" cy="198.0" r="3" fill="#3fb950"/><circle cx="484.6" cy="198.0" r="3" fill="#3fb950"/><circle cx="487.7" cy="198.0" r="3" fill="#3fb950"/><circle cx="490.8" cy="198.0" r="3" fill="#3fb950"/><circle cx="493.9" cy="198.0" r="3" fill="#3fb950"/><circle cx="496.9" cy="198.0" r="3" fill="#3fb950"/><circle cx="500.0" cy="198.0" r="3" fill="#3fb950"/><circle cx="503.1" cy="198.0" r="3" fill="#3fb950"/><circle cx="506.2" cy="198.0" r="3" fill="#3fb950"/><circle cx="509.3" cy="198.0" r="3" fill="#3fb950"/><circle cx="512.4" cy="198.0" r="3" fill="#3fb950"/><circle cx="515.5" cy="198.0" r="3" fill="#3fb950"/><circle cx="518.6" cy="198.0" r="3" fill="#3fb950"/><circle cx="521.7" cy="198.0" r="3" fill="#3fb950"/><circle cx="524.8" cy="198.0" r="3" fill="#3fb950"/><circle cx="527.9" cy="198.0" r="3" fill="#3fb950"/><circle cx="531.0" cy="198.0" r="3" fill="#3fb950"/><circle cx="534.1" cy="198.0" r="3" fill="#3fb950"/><circle cx="537.2" cy="198.0" r="3" fill="#3fb950"/><circle cx="540.3" cy="198.0" r="3" fill="#3fb950"/><circle cx="543.3" cy="198.0" r="3" fill="#3fb950"/><circle cx="546.4" cy="198.0" r="3" fill="#3fb950"/><circle cx="549.5" cy="198.0" r="3" fill="#3fb950"/><circle cx="552.6" cy="198.0" r="3" fill="#3fb950"/><circle cx="555.7" cy="198.0" r="3" fill="#3fb950"/><circle cx="558.8" cy="198.0" r="3" fill="#3fb950"/><circle cx="561.9" cy="198.0" r="3" fill="#3fb950"/><circle cx="565.0" cy="198.0" r="3" fill="#3fb950"/><circle cx="568.1" cy="198.0" r="3" fill="#3fb950"/><circle cx="571.2" cy="198.0" r="3" fill="#3fb950"/><circle cx="574.3" cy="198.0" r="3" fill="#3fb950"/><circle cx="577.4" cy="198.0" r="3" fill="#3fb950"/><circle cx="580.5" cy="198.0" r="3" fill="#3fb950"/><circle cx="583.6" cy="198.0" r="3" fill="#3fb950"/><circle cx="586.7" cy="198.0" r="3" fill="#3fb950"/><circle cx="589.8" cy="198.0" r="3" fill="#3fb950"/><circle cx="592.8" cy="198.0" r="3" fill="#3fb950"/><circle cx="595.9" cy="198.0" r="3" fill="#3fb950"/><circle cx="599.0" cy="198.0" r="3" fill="#3fb950"/><circle cx="602.1" cy="198.0" r="3" fill="#3fb950"/><circle cx="605.2" cy="198.0" r="3" fill="#3fb950"/><circle cx="608.3" cy="198.0" r="3" fill="#3fb950"/><circle cx="611.4" cy="198.0" r="3" fill="#3fb950"/><circle cx="614.5" cy="198.0" r="3" fill="#3fb950"/><circle cx="617.6" cy="198.0" r="3" fill="#3fb950"/><circle cx="620.7" cy="198.0" r="3" fill="#3fb950"/><circle cx="623.8" cy="198.0" r="3" fill="#3fb950"/><circle cx="626.9" cy="198.0" r="3" fill="#3fb950"/><circle cx="630.0" cy="198.0" r="3" fill="#3fb950"/><circle cx="633.1" cy="198.0" r="3" fill="#3fb950"/><circle cx="636.2" cy="198.0" r="3" fill="#3fb950"/><circle cx="639.3" cy="198.0" r="3" fill="#3fb950"/><circle cx="642.3" cy="198.0" r="3" fill="#3fb950"/><circle cx="645.4" cy="198.0" r="3" fill="#3fb950"/><circle cx="648.5" cy="198.0" r="3" fill="#3fb950"/><circle cx="651.6" cy="198.0" r="3" fill="#3fb950"/><circle cx="654.7" cy="198.0" r="3" fill="#3fb950"/><circle cx="657.8" cy="198.0" r="3" fill="#3fb950"/><circle cx="660.9" cy="198.0" r="3" fill="#3fb950"/><circle cx="664.0" cy="198.0" r="3" fill="#3fb950"/>
<polyline fill="none" stroke="#4aa3ff" stroke-width="2.5" stroke-linejoin="round" points="36.0,144.3 39.1,144.3 42.2,144.3 45.3,144.3 48.4,144.3 51.5,144.3 54.6,144.3 57.7,144.3 60.7,144.3 63.8,144.3 66.9,144.3 70.0,144.3 73.1,144.3 76.2,144.3 79.3,144.3 82.4,136.2 85.5,132.4 88.6,129.6 91.7,129.6 94.8,121.0 97.9,121.0 101.0,121.0 104.1,114.4 107.2,114.4 110.2,114.4 113.3,111.3 116.4,110.9 119.5,110.9 122.6,110.5 125.7,110.5 128.8,109.9 131.9,108.7 135.0,107.3 138.1,106.9 141.2,106.9 144.3,106.9 147.4,106.9 150.5,106.9 153.6,106.9 156.7,106.9 159.7,106.9 162.8,106.9 165.9,106.9 169.0,113.2 172.1,113.2 175.2,113.2 178.3,113.2 181.4,113.2 184.5,110.7 187.6,105.3 190.7,83.4 193.8,83.4 196.9,85.6 200.0,85.6 203.1,85.6 206.1,85.6 209.2,85.6 212.3,85.8 215.4,85.8 218.5,85.8 221.6,86.0 224.7,86.0 227.8,86.0 230.9,86.0 234.0,86.0 237.1,86.0 240.2,86.0 243.3,86.0 246.4,86.0 249.5,86.0 252.6,86.0 255.6,86.0 258.7,86.0 261.8,86.0 264.9,86.0 268.0,86.0 271.1,86.0 274.2,86.0 277.3,86.0 280.4,86.0 283.5,86.0 286.6,87.0 289.7,87.0 292.8,87.0 295.9,73.7 299.0,73.7 302.0,71.0 305.1,71.0 308.2,70.8 311.3,70.6 314.4,70.6 317.5,70.4 320.6,68.6 323.7,60.5 326.8,59.3 329.9,52.0 333.0,47.3 336.1,40.1 339.2,36.0 342.3,36.0 345.4,36.0 348.5,36.0 351.5,36.0 354.6,36.0 357.7,36.0 360.8,36.0 363.9,36.0 367.0,36.0 370.1,36.0 373.2,36.0 376.3,36.0 379.4,36.0 382.5,36.0 385.6,36.0 388.7,36.0 391.8,36.0 394.9,36.0 398.0,36.0 401.0,36.0 404.1,36.0 407.2,36.0 410.3,36.0 413.4,36.0 416.5,36.0 419.6,36.0 422.7,36.0 425.8,36.0 428.9,36.0 432.0,36.0 435.1,36.0 438.2,36.0 441.3,36.0 444.4,36.0 447.4,36.0 450.5,36.0 453.6,36.0 456.7,36.0 459.8,36.0 462.9,36.0 466.0,36.0 469.1,36.0 472.2,36.0 475.3,36.0 478.4,36.0 481.5,36.0 484.6,36.0 487.7,36.0 490.8,36.0 493.9,36.0 496.9,36.0 500.0,36.0 503.1,36.0 506.2,36.0 509.3,36.0 512.4,36.0 515.5,36.0 518.6,36.0 521.7,36.0 524.8,36.0 527.9,36.0 531.0,36.0 534.1,36.0 537.2,36.0 540.3,36.0 543.3,36.0 546.4,36.0 549.5,36.0 552.6,36.0 555.7,36.0 558.8,36.0 561.9,36.0 565.0,36.0 568.1,36.0 571.2,36.0 574.3,36.0 577.4,36.0 580.5,36.0 583.6,36.0 586.7,36.0 589.8,36.0 592.8,36.0 595.9,36.0 599.0,36.0 602.1,36.0 605.2,36.0 608.3,36.0 611.4,36.0 614.5,36.0 617.6,36.0 620.7,36.0 623.8,36.0 626.9,36.0 630.0,36.0 633.1,36.0 636.2,36.0 639.3,36.0 642.3,36.0 645.4,36.0 648.5,36.0 651.6,36.0 654.7,36.0 657.8,36.0 660.9,36.0 664.0,36.0"/><circle cx="36.0" cy="144.3" r="3" fill="#4aa3ff"/><circle cx="39.1" cy="144.3" r="3" fill="#4aa3ff"/><circle cx="42.2" cy="144.3" r="3" fill="#4aa3ff"/><circle cx="45.3" cy="144.3" r="3" fill="#4aa3ff"/><circle cx="48.4" cy="144.3" r="3" fill="#4aa3ff"/><circle cx="51.5" cy="144.3" r="3" fill="#4aa3ff"/><circle cx="54.6" cy="144.3" r="3" fill="#4aa3ff"/><circle cx="57.7" cy="144.3" r="3" fill="#4aa3ff"/><circle cx="60.7" cy="144.3" r="3" fill="#4aa3ff"/><circle cx="63.8" cy="144.3" r="3" fill="#4aa3ff"/><circle cx="66.9" cy="144.3" r="3" fill="#4aa3ff"/><circle cx="70.0" cy="144.3" r="3" fill="#4aa3ff"/><circle cx="73.1" cy="144.3" r="3" fill="#4aa3ff"/><circle cx="76.2" cy="144.3" r="3" fill="#4aa3ff"/><circle cx="79.3" cy="144.3" r="3" fill="#4aa3ff"/><circle cx="82.4" cy="136.2" r="3" fill="#4aa3ff"/><circle cx="85.5" cy="132.4" r="3" fill="#4aa3ff"/><circle cx="88.6" cy="129.6" r="3" fill="#4aa3ff"/><circle cx="91.7" cy="129.6" r="3" fill="#4aa3ff"/><circle cx="94.8" cy="121.0" r="3" fill="#4aa3ff"/><circle cx="97.9" cy="121.0" r="3" fill="#4aa3ff"/><circle cx="101.0" cy="121.0" r="3" fill="#4aa3ff"/><circle cx="104.1" cy="114.4" r="3" fill="#4aa3ff"/><circle cx="107.2" cy="114.4" r="3" fill="#4aa3ff"/><circle cx="110.2" cy="114.4" r="3" fill="#4aa3ff"/><circle cx="113.3" cy="111.3" r="3" fill="#4aa3ff"/><circle cx="116.4" cy="110.9" r="3" fill="#4aa3ff"/><circle cx="119.5" cy="110.9" r="3" fill="#4aa3ff"/><circle cx="122.6" cy="110.5" r="3" fill="#4aa3ff"/><circle cx="125.7" cy="110.5" r="3" fill="#4aa3ff"/><circle cx="128.8" cy="109.9" r="3" fill="#4aa3ff"/><circle cx="131.9" cy="108.7" r="3" fill="#4aa3ff"/><circle cx="135.0" cy="107.3" r="3" fill="#4aa3ff"/><circle cx="138.1" cy="106.9" r="3" fill="#4aa3ff"/><circle cx="141.2" cy="106.9" r="3" fill="#4aa3ff"/><circle cx="144.3" cy="106.9" r="3" fill="#4aa3ff"/><circle cx="147.4" cy="106.9" r="3" fill="#4aa3ff"/><circle cx="150.5" cy="106.9" r="3" fill="#4aa3ff"/><circle cx="153.6" cy="106.9" r="3" fill="#4aa3ff"/><circle cx="156.7" cy="106.9" r="3" fill="#4aa3ff"/><circle cx="159.7" cy="106.9" r="3" fill="#4aa3ff"/><circle cx="162.8" cy="106.9" r="3" fill="#4aa3ff"/><circle cx="165.9" cy="106.9" r="3" fill="#4aa3ff"/><circle cx="169.0" cy="113.2" r="3" fill="#4aa3ff"/><circle cx="172.1" cy="113.2" r="3" fill="#4aa3ff"/><circle cx="175.2" cy="113.2" r="3" fill="#4aa3ff"/><circle cx="178.3" cy="113.2" r="3" fill="#4aa3ff"/><circle cx="181.4" cy="113.2" r="3" fill="#4aa3ff"/><circle cx="184.5" cy="110.7" r="3" fill="#4aa3ff"/><circle cx="187.6" cy="105.3" r="3" fill="#4aa3ff"/><circle cx="190.7" cy="83.4" r="3" fill="#4aa3ff"/><circle cx="193.8" cy="83.4" r="3" fill="#4aa3ff"/><circle cx="196.9" cy="85.6" r="3" fill="#4aa3ff"/><circle cx="200.0" cy="85.6" r="3" fill="#4aa3ff"/><circle cx="203.1" cy="85.6" r="3" fill="#4aa3ff"/><circle cx="206.1" cy="85.6" r="3" fill="#4aa3ff"/><circle cx="209.2" cy="85.6" r="3" fill="#4aa3ff"/><circle cx="212.3" cy="85.8" r="3" fill="#4aa3ff"/><circle cx="215.4" cy="85.8" r="3" fill="#4aa3ff"/><circle cx="218.5" cy="85.8" r="3" fill="#4aa3ff"/><circle cx="221.6" cy="86.0" r="3" fill="#4aa3ff"/><circle cx="224.7" cy="86.0" r="3" fill="#4aa3ff"/><circle cx="227.8" cy="86.0" r="3" fill="#4aa3ff"/><circle cx="230.9" cy="86.0" r="3" fill="#4aa3ff"/><circle cx="234.0" cy="86.0" r="3" fill="#4aa3ff"/><circle cx="237.1" cy="86.0" r="3" fill="#4aa3ff"/><circle cx="240.2" cy="86.0" r="3" fill="#4aa3ff"/><circle cx="243.3" cy="86.0" r="3" fill="#4aa3ff"/><circle cx="246.4" cy="86.0" r="3" fill="#4aa3ff"/><circle cx="249.5" cy="86.0" r="3" fill="#4aa3ff"/><circle cx="252.6" cy="86.0" r="3" fill="#4aa3ff"/><circle cx="255.6" cy="86.0" r="3" fill="#4aa3ff"/><circle cx="258.7" cy="86.0" r="3" fill="#4aa3ff"/><circle cx="261.8" cy="86.0" r="3" fill="#4aa3ff"/><circle cx="264.9" cy="86.0" r="3" fill="#4aa3ff"/><circle cx="268.0" cy="86.0" r="3" fill="#4aa3ff"/><circle cx="271.1" cy="86.0" r="3" fill="#4aa3ff"/><circle cx="274.2" cy="86.0" r="3" fill="#4aa3ff"/><circle cx="277.3" cy="86.0" r="3" fill="#4aa3ff"/><circle cx="280.4" cy="86.0" r="3" fill="#4aa3ff"/><circle cx="283.5" cy="86.0" r="3" fill="#4aa3ff"/><circle cx="286.6" cy="87.0" r="3" fill="#4aa3ff"/><circle cx="289.7" cy="87.0" r="3" fill="#4aa3ff"/><circle cx="292.8" cy="87.0" r="3" fill="#4aa3ff"/><circle cx="295.9" cy="73.7" r="3" fill="#4aa3ff"/><circle cx="299.0" cy="73.7" r="3" fill="#4aa3ff"/><circle cx="302.0" cy="71.0" r="3" fill="#4aa3ff"/><circle cx="305.1" cy="71.0" r="3" fill="#4aa3ff"/><circle cx="308.2" cy="70.8" r="3" fill="#4aa3ff"/><circle cx="311.3" cy="70.6" r="3" fill="#4aa3ff"/><circle cx="314.4" cy="70.6" r="3" fill="#4aa3ff"/><circle cx="317.5" cy="70.4" r="3" fill="#4aa3ff"/><circle cx="320.6" cy="68.6" r="3" fill="#4aa3ff"/><circle cx="323.7" cy="60.5" r="3" fill="#4aa3ff"/><circle cx="326.8" cy="59.3" r="3" fill="#4aa3ff"/><circle cx="329.9" cy="52.0" r="3" fill="#4aa3ff"/><circle cx="333.0" cy="47.3" r="3" fill="#4aa3ff"/><circle cx="336.1" cy="40.1" r="3" fill="#4aa3ff"/><circle cx="339.2" cy="36.0" r="3" fill="#4aa3ff"/><circle cx="342.3" cy="36.0" r="3" fill="#4aa3ff"/><circle cx="345.4" cy="36.0" r="3" fill="#4aa3ff"/><circle cx="348.5" cy="36.0" r="3" fill="#4aa3ff"/><circle cx="351.5" cy="36.0" r="3" fill="#4aa3ff"/><circle cx="354.6" cy="36.0" r="3" fill="#4aa3ff"/><circle cx="357.7" cy="36.0" r="3" fill="#4aa3ff"/><circle cx="360.8" cy="36.0" r="3" fill="#4aa3ff"/><circle cx="363.9" cy="36.0" r="3" fill="#4aa3ff"/><circle cx="367.0" cy="36.0" r="3" fill="#4aa3ff"/><circle cx="370.1" cy="36.0" r="3" fill="#4aa3ff"/><circle cx="373.2" cy="36.0" r="3" fill="#4aa3ff"/><circle cx="376.3" cy="36.0" r="3" fill="#4aa3ff"/><circle cx="379.4" cy="36.0" r="3" fill="#4aa3ff"/><circle cx="382.5" cy="36.0" r="3" fill="#4aa3ff"/><circle cx="385.6" cy="36.0" r="3" fill="#4aa3ff"/><circle cx="388.7" cy="36.0" r="3" fill="#4aa3ff"/><circle cx="391.8" cy="36.0" r="3" fill="#4aa3ff"/><circle cx="394.9" cy="36.0" r="3" fill="#4aa3ff"/><circle cx="398.0" cy="36.0" r="3" fill="#4aa3ff"/><circle cx="401.0" cy="36.0" r="3" fill="#4aa3ff"/><circle cx="404.1" cy="36.0" r="3" fill="#4aa3ff"/><circle cx="407.2" cy="36.0" r="3" fill="#4aa3ff"/><circle cx="410.3" cy="36.0" r="3" fill="#4aa3ff"/><circle cx="413.4" cy="36.0" r="3" fill="#4aa3ff"/><circle cx="416.5" cy="36.0" r="3" fill="#4aa3ff"/><circle cx="419.6" cy="36.0" r="3" fill="#4aa3ff"/><circle cx="422.7" cy="36.0" r="3" fill="#4aa3ff"/><circle cx="425.8" cy="36.0" r="3" fill="#4aa3ff"/><circle cx="428.9" cy="36.0" r="3" fill="#4aa3ff"/><circle cx="432.0" cy="36.0" r="3" fill="#4aa3ff"/><circle cx="435.1" cy="36.0" r="3" fill="#4aa3ff"/><circle cx="438.2" cy="36.0" r="3" fill="#4aa3ff"/><circle cx="441.3" cy="36.0" r="3" fill="#4aa3ff"/><circle cx="444.4" cy="36.0" r="3" fill="#4aa3ff"/><circle cx="447.4" cy="36.0" r="3" fill="#4aa3ff"/><circle cx="450.5" cy="36.0" r="3" fill="#4aa3ff"/><circle cx="453.6" cy="36.0" r="3" fill="#4aa3ff"/><circle cx="456.7" cy="36.0" r="3" fill="#4aa3ff"/><circle cx="459.8" cy="36.0" r="3" fill="#4aa3ff"/><circle cx="462.9" cy="36.0" r="3" fill="#4aa3ff"/><circle cx="466.0" cy="36.0" r="3" fill="#4aa3ff"/><circle cx="469.1" cy="36.0" r="3" fill="#4aa3ff"/><circle cx="472.2" cy="36.0" r="3" fill="#4aa3ff"/><circle cx="475.3" cy="36.0" r="3" fill="#4aa3ff"/><circle cx="478.4" cy="36.0" r="3" fill="#4aa3ff"/><circle cx="481.5" cy="36.0" r="3" fill="#4aa3ff"/><circle cx="484.6" cy="36.0" r="3" fill="#4aa3ff"/><circle cx="487.7" cy="36.0" r="3" fill="#4aa3ff"/><circle cx="490.8" cy="36.0" r="3" fill="#4aa3ff"/><circle cx="493.9" cy="36.0" r="3" fill="#4aa3ff"/><circle cx="496.9" cy="36.0" r="3" fill="#4aa3ff"/><circle cx="500.0" cy="36.0" r="3" fill="#4aa3ff"/><circle cx="503.1" cy="36.0" r="3" fill="#4aa3ff"/><circle cx="506.2" cy="36.0" r="3" fill="#4aa3ff"/><circle cx="509.3" cy="36.0" r="3" fill="#4aa3ff"/><circle cx="512.4" cy="36.0" r="3" fill="#4aa3ff"/><circle cx="515.5" cy="36.0" r="3" fill="#4aa3ff"/><circle cx="518.6" cy="36.0" r="3" fill="#4aa3ff"/><circle cx="521.7" cy="36.0" r="3" fill="#4aa3ff"/><circle cx="524.8" cy="36.0" r="3" fill="#4aa3ff"/><circle cx="527.9" cy="36.0" r="3" fill="#4aa3ff"/><circle cx="531.0" cy="36.0" r="3" fill="#4aa3ff"/><circle cx="534.1" cy="36.0" r="3" fill="#4aa3ff"/><circle cx="537.2" cy="36.0" r="3" fill="#4aa3ff"/><circle cx="540.3" cy="36.0" r="3" fill="#4aa3ff"/><circle cx="543.3" cy="36.0" r="3" fill="#4aa3ff"/><circle cx="546.4" cy="36.0" r="3" fill="#4aa3ff"/><circle cx="549.5" cy="36.0" r="3" fill="#4aa3ff"/><circle cx="552.6" cy="36.0" r="3" fill="#4aa3ff"/><circle cx="555.7" cy="36.0" r="3" fill="#4aa3ff"/><circle cx="558.8" cy="36.0" r="3" fill="#4aa3ff"/><circle cx="561.9" cy="36.0" r="3" fill="#4aa3ff"/><circle cx="565.0" cy="36.0" r="3" fill="#4aa3ff"/><circle cx="568.1" cy="36.0" r="3" fill="#4aa3ff"/><circle cx="571.2" cy="36.0" r="3" fill="#4aa3ff"/><circle cx="574.3" cy="36.0" r="3" fill="#4aa3ff"/><circle cx="577.4" cy="36.0" r="3" fill="#4aa3ff"/><circle cx="580.5" cy="36.0" r="3" fill="#4aa3ff"/><circle cx="583.6" cy="36.0" r="3" fill="#4aa3ff"/><circle cx="586.7" cy="36.0" r="3" fill="#4aa3ff"/><circle cx="589.8" cy="36.0" r="3" fill="#4aa3ff"/><circle cx="592.8" cy="36.0" r="3" fill="#4aa3ff"/><circle cx="595.9" cy="36.0" r="3" fill="#4aa3ff"/><circle cx="599.0" cy="36.0" r="3" fill="#4aa3ff"/><circle cx="602.1" cy="36.0" r="3" fill="#4aa3ff"/><circle cx="605.2" cy="36.0" r="3" fill="#4aa3ff"/><circle cx="608.3" cy="36.0" r="3" fill="#4aa3ff"/><circle cx="611.4" cy="36.0" r="3" fill="#4aa3ff"/><circle cx="614.5" cy="36.0" r="3" fill="#4aa3ff"/><circle cx="617.6" cy="36.0" r="3" fill="#4aa3ff"/><circle cx="620.7" cy="36.0" r="3" fill="#4aa3ff"/><circle cx="623.8" cy="36.0" r="3" fill="#4aa3ff"/><circle cx="626.9" cy="36.0" r="3" fill="#4aa3ff"/><circle cx="630.0" cy="36.0" r="3" fill="#4aa3ff"/><circle cx="633.1" cy="36.0" r="3" fill="#4aa3ff"/><circle cx="636.2" cy="36.0" r="3" fill="#4aa3ff"/><circle cx="639.3" cy="36.0" r="3" fill="#4aa3ff"/><circle cx="642.3" cy="36.0" r="3" fill="#4aa3ff"/><circle cx="645.4" cy="36.0" r="3" fill="#4aa3ff"/><circle cx="648.5" cy="36.0" r="3" fill="#4aa3ff"/><circle cx="651.6" cy="36.0" r="3" fill="#4aa3ff"/><circle cx="654.7" cy="36.0" r="3" fill="#4aa3ff"/><circle cx="657.8" cy="36.0" r="3" fill="#4aa3ff"/><circle cx="660.9" cy="36.0" r="3" fill="#4aa3ff"/><circle cx="664.0" cy="36.0" r="3" fill="#4aa3ff"/>
<text x="36" y="225" fill="#6b7280" font-size="11">2026-06-26</text>
<text x="664" y="225" fill="#6b7280" font-size="11" text-anchor="end">2026-07-17</text>
<text x="36" y="212" font-family="system-ui,sans-serif" font-size="11">
<tspan fill="#4aa3ff">&#9679; open FPs</tspan>  <tspan fill="#3fb950">&#9679; closed (Anthropic acting)</tspan>  <tspan fill="#8a5a5a">&#9679; harness withdrawn</tspan></text>
<text x="664" y="22" text-anchor="end" font-family="system-ui,sans-serif" font-size="12">
<tspan fill="#4aa3ff">open 800</tspan>  <tspan fill="#3fb950">closed 0</tspan>  <tspan fill="#8a5a5a">harness 0</tspan></text>
</svg>