<svg xmlns="http://www.w3.org/2000/svg" width="700" height="234" viewBox="0 0 700 234" role="img">
<rect width="700" height="234" rx="12" fill="#16181d"/>
<text x="36" y="22" fill="#e8eaed" font-family="system-ui,sans-serif" font-size="14" font-weight="700">Is Anthropic acting? cyber/aup false positives over time</text>
<line x1="36" y1="198.0" x2="664" y2="198.0" stroke="#2a2e37" stroke-width="1"/><text x="30" y="202.0" fill="#6b7280" font-size="11" text-anchor="end">0</text><line x1="36" y1="117.0" x2="664" y2="117.0" stroke="#2a2e37" stroke-width="1"/><text x="30" y="121.0" fill="#6b7280" font-size="11" text-anchor="end">400</text><line x1="36" y1="36.0" x2="664" y2="36.0" stroke="#2a2e37" stroke-width="1"/><text x="30" y="40.0" fill="#6b7280" font-size="11" text-anchor="end">800</text>

<polyline fill="none" stroke="#8a5a5a" stroke-width="2.5" stroke-linejoin="round" points="36.0,145.1 38.5,145.1 41.1,145.1 43.6,145.1 46.2,145.1 48.7,145.1 51.3,145.1 53.8,145.1 56.3,145.1 58.9,145.1 61.4,145.1 64.0,145.1 66.5,145.1 69.1,145.1 71.6,145.1 74.1,145.1 76.7,145.1 79.2,145.1 81.8,145.1 84.3,145.1 86.9,145.1 89.4,145.1 91.9,145.1 94.5,145.1 97.0,145.1 99.6,145.1 102.1,145.1 104.6,145.1 107.2,145.1 109.7,145.1 112.3,145.1 114.8,145.1 117.4,145.1 119.9,145.1 122.4,145.1 125.0,145.1 127.5,145.1 130.1,145.1 132.6,145.1 135.2,145.1 137.7,145.1 140.2,145.1 142.8,145.1 145.3,145.1 147.9,145.1 150.4,145.1 153.0,145.1 155.5,145.1 158.0,145.1 160.6,145.1 163.1,155.7 165.7,155.7 168.2,155.7 170.8,155.7 173.3,155.7 175.8,155.7 178.4,155.7 180.9,155.7 183.5,155.7 186.0,155.7 188.6,155.7 191.1,155.7 193.6,155.7 196.2,155.7 198.7,155.7 201.3,155.7 203.8,155.7 206.3,155.7 208.9,155.7 211.4,155.7 214.0,155.7 216.5,155.7 219.1,155.7 221.6,155.7 224.1,155.7 226.7,155.7 229.2,155.7 231.8,155.7 234.3,155.7 236.9,155.7 239.4,155.7 241.9,155.7 244.5,155.7 247.0,155.7 249.6,167.6 252.1,167.6 254.7,170.3 257.2,170.3 259.7,170.5 262.3,170.7 264.8,170.7 267.4,170.9 269.9,172.7 272.5,180.6 275.0,181.8 277.5,189.1 280.1,190.5 282.6,195.2 285.2,198.0 287.7,198.0 290.3,198.0 292.8,198.0 295.3,198.0 297.9,198.0 300.4,198.0 303.0,198.0 305.5,198.0 308.0,198.0 310.6,198.0 313.1,198.0 315.7,198.0 318.2,198.0 320.8,198.0 323.3,198.0 325.8,198.0 328.4,198.0 330.9,198.0 333.5,198.0 336.0,198.0 338.6,198.0 341.1,198.0 343.6,198.0 346.2,198.0 348.7,198.0 351.3,198.0 353.8,198.0 356.4,198.0 358.9,198.0 361.4,198.0 364.0,198.0 366.5,198.0 369.1,198.0 371.6,198.0 374.2,198.0 376.7,198.0 379.2,198.0 381.8,198.0 384.3,198.0 386.9,198.0 389.4,198.0 392.0,198.0 394.5,198.0 397.0,198.0 399.6,198.0 402.1,198.0 404.7,198.0 407.2,198.0 409.7,198.0 412.3,198.0 414.8,198.0 417.4,198.0 419.9,198.0 422.5,198.0 425.0,198.0 427.5,198.0 430.1,198.0 432.6,198.0 435.2,198.0 437.7,198.0 440.3,198.0 442.8,198.0 445.3,198.0 447.9,198.0 450.4,198.0 453.0,198.0 455.5,198.0 458.1,198.0 460.6,198.0 463.1,198.0 465.7,198.0 468.2,198.0 470.8,198.0 473.3,198.0 475.9,198.0 478.4,198.0 480.9,198.0 483.5,198.0 486.0,198.0 488.6,198.0 491.1,198.0 493.7,198.0 496.2,198.0 498.7,198.0 501.3,198.0 503.8,198.0 506.4,198.0 508.9,198.0 511.4,198.0 514.0,198.0 516.5,198.0 519.1,198.0 521.6,198.0 524.2,198.0 526.7,198.0 529.2,198.0 531.8,198.0 534.3,198.0 536.9,198.0 539.4,198.0 542.0,198.0 544.5,198.0 547.0,198.0 549.6,198.0 552.1,198.0 554.7,198.0 557.2,198.0 559.8,198.0 562.3,198.0 564.8,198.0 567.4,198.0 569.9,198.0 572.5,198.0 575.0,198.0 577.6,198.0 580.1,198.0 582.6,198.0 585.2,198.0 587.7,198.0 590.3,198.0 592.8,198.0 595.4,198.0 597.9,198.0 600.4,198.0 603.0,198.0 605.5,198.0 608.1,198.0 610.6,198.0 613.1,198.0 615.7,198.0 618.2,198.0 620.8,198.0 623.3,198.0 625.9,198.0 628.4,198.0 630.9,198.0 633.5,198.0 636.0,198.0 638.6,198.0 641.1,198.0 643.7,198.0 646.2,198.0 648.7,198.0 651.3,198.0 653.8,198.0 656.4,198.0 658.9,198.0 661.5,198.0 664.0,198.0"/><circle cx="36.0" cy="145.1" r="3" fill="#8a5a5a"/><circle cx="38.5" cy="145.1" r="3" fill="#8a5a5a"/><circle cx="41.1" cy="145.1" r="3" fill="#8a5a5a"/><circle cx="43.6" cy="145.1" r="3" fill="#8a5a5a"/><circle cx="46.2" cy="145.1" r="3" fill="#8a5a5a"/><circle cx="48.7" cy="145.1" r="3" fill="#8a5a5a"/><circle cx="51.3" cy="145.1" r="3" fill="#8a5a5a"/><circle cx="53.8" cy="145.1" r="3" fill="#8a5a5a"/><circle cx="56.3" cy="145.1" r="3" fill="#8a5a5a"/><circle cx="58.9" cy="145.1" r="3" fill="#8a5a5a"/><circle cx="61.4" cy="145.1" r="3" fill="#8a5a5a"/><circle cx="64.0" cy="145.1" r="3" fill="#8a5a5a"/><circle cx="66.5" cy="145.1" r="3" fill="#8a5a5a"/><circle cx="69.1" cy="145.1" r="3" fill="#8a5a5a"/><circle cx="71.6" cy="145.1" r="3" fill="#8a5a5a"/><circle cx="74.1" cy="145.1" r="3" fill="#8a5a5a"/><circle cx="76.7" cy="145.1" r="3" fill="#8a5a5a"/><circle cx="79.2" cy="145.1" r="3" fill="#8a5a5a"/><circle cx="81.8" cy="145.1" r="3" fill="#8a5a5a"/><circle cx="84.3" cy="145.1" r="3" fill="#8a5a5a"/><circle cx="86.9" cy="145.1" r="3" fill="#8a5a5a"/><circle cx="89.4" cy="145.1" r="3" fill="#8a5a5a"/><circle cx="91.9" cy="145.1" r="3" fill="#8a5a5a"/><circle cx="94.5" cy="145.1" r="3" fill="#8a5a5a"/><circle cx="97.0" cy="145.1" r="3" fill="#8a5a5a"/><circle cx="99.6" cy="145.1" r="3" fill="#8a5a5a"/><circle cx="102.1" cy="145.1" r="3" fill="#8a5a5a"/><circle cx="104.6" cy="145.1" r="3" fill="#8a5a5a"/><circle cx="107.2" cy="145.1" r="3" fill="#8a5a5a"/><circle cx="109.7" cy="145.1" r="3" fill="#8a5a5a"/><circle cx="112.3" cy="145.1" r="3" fill="#8a5a5a"/><circle cx="114.8" cy="145.1" r="3" fill="#8a5a5a"/><circle cx="117.4" cy="145.1" r="3" fill="#8a5a5a"/><circle cx="119.9" cy="145.1" r="3" fill="#8a5a5a"/><circle cx="122.4" cy="145.1" r="3" fill="#8a5a5a"/><circle cx="125.0" cy="145.1" r="3" fill="#8a5a5a"/><circle cx="127.5" cy="145.1" r="3" fill="#8a5a5a"/><circle cx="130.1" cy="145.1" r="3" fill="#8a5a5a"/><circle cx="132.6" cy="145.1" r="3" fill="#8a5a5a"/><circle cx="135.2" cy="145.1" r="3" fill="#8a5a5a"/><circle cx="137.7" cy="145.1" r="3" fill="#8a5a5a"/><circle cx="140.2" cy="145.1" r="3" fill="#8a5a5a"/><circle cx="142.8" cy="145.1" r="3" fill="#8a5a5a"/><circle cx="145.3" cy="145.1" r="3" fill="#8a5a5a"/><circle cx="147.9" cy="145.1" r="3" fill="#8a5a5a"/><circle cx="150.4" cy="145.1" r="3" fill="#8a5a5a"/><circle cx="153.0" cy="145.1" r="3" fill="#8a5a5a"/><circle cx="155.5" cy="145.1" r="3" fill="#8a5a5a"/><circle cx="158.0" cy="145.1" r="3" fill="#8a5a5a"/><circle cx="160.6" cy="145.1" r="3" fill="#8a5a5a"/><circle cx="163.1" cy="155.7" r="3" fill="#8a5a5a"/><circle cx="165.7" cy="155.7" r="3" fill="#8a5a5a"/><circle cx="168.2" cy="155.7" r="3" fill="#8a5a5a"/><circle cx="170.8" cy="155.7" r="3" fill="#8a5a5a"/><circle cx="173.3" cy="155.7" r="3" fill="#8a5a5a"/><circle cx="175.8" cy="155.7" r="3" fill="#8a5a5a"/><circle cx="178.4" cy="155.7" r="3" fill="#8a5a5a"/><circle cx="180.9" cy="155.7" r="3" fill="#8a5a5a"/><circle cx="183.5" cy="155.7" r="3" fill="#8a5a5a"/><circle cx="186.0" cy="155.7" r="3" fill="#8a5a5a"/><circle cx="188.6" cy="155.7" r="3" fill="#8a5a5a"/><circle cx="191.1" cy="155.7" r="3" fill="#8a5a5a"/><circle cx="193.6" cy="155.7" r="3" fill="#8a5a5a"/><circle cx="196.2" cy="155.7" r="3" fill="#8a5a5a"/><circle cx="198.7" cy="155.7" r="3" fill="#8a5a5a"/><circle cx="201.3" cy="155.7" r="3" fill="#8a5a5a"/><circle cx="203.8" cy="155.7" r="3" fill="#8a5a5a"/><circle cx="206.3" cy="155.7" r="3" fill="#8a5a5a"/><circle cx="208.9" cy="155.7" r="3" fill="#8a5a5a"/><circle cx="211.4" cy="155.7" r="3" fill="#8a5a5a"/><circle cx="214.0" cy="155.7" r="3" fill="#8a5a5a"/><circle cx="216.5" cy="155.7" r="3" fill="#8a5a5a"/><circle cx="219.1" cy="155.7" r="3" fill="#8a5a5a"/><circle cx="221.6" cy="155.7" r="3" fill="#8a5a5a"/><circle cx="224.1" cy="155.7" r="3" fill="#8a5a5a"/><circle cx="226.7" cy="155.7" r="3" fill="#8a5a5a"/><circle cx="229.2" cy="155.7" r="3" fill="#8a5a5a"/><circle cx="231.8" cy="155.7" r="3" fill="#8a5a5a"/><circle cx="234.3" cy="155.7" r="3" fill="#8a5a5a"/><circle cx="236.9" cy="155.7" r="3" fill="#8a5a5a"/><circle cx="239.4" cy="155.7" r="3" fill="#8a5a5a"/><circle cx="241.9" cy="155.7" r="3" fill="#8a5a5a"/><circle cx="244.5" cy="155.7" r="3" fill="#8a5a5a"/><circle cx="247.0" cy="155.7" r="3" fill="#8a5a5a"/><circle cx="249.6" cy="167.6" r="3" fill="#8a5a5a"/><circle cx="252.1" cy="167.6" r="3" fill="#8a5a5a"/><circle cx="254.7" cy="170.3" r="3" fill="#8a5a5a"/><circle cx="257.2" cy="170.3" r="3" fill="#8a5a5a"/><circle cx="259.7" cy="170.5" r="3" fill="#8a5a5a"/><circle cx="262.3" cy="170.7" r="3" fill="#8a5a5a"/><circle cx="264.8" cy="170.7" r="3" fill="#8a5a5a"/><circle cx="267.4" cy="170.9" r="3" fill="#8a5a5a"/><circle cx="269.9" cy="172.7" r="3" fill="#8a5a5a"/><circle cx="272.5" cy="180.6" r="3" fill="#8a5a5a"/><circle cx="275.0" cy="181.8" r="3" fill="#8a5a5a"/><circle cx="277.5" cy="189.1" r="3" fill="#8a5a5a"/><circle cx="280.1" cy="190.5" r="3" fill="#8a5a5a"/><circle cx="282.6" cy="195.2" r="3" fill="#8a5a5a"/><circle cx="285.2" cy="198.0" r="3" fill="#8a5a5a"/><circle cx="287.7" cy="198.0" r="3" fill="#8a5a5a"/><circle cx="290.3" cy="198.0" r="3" fill="#8a5a5a"/><circle cx="292.8" cy="198.0" r="3" fill="#8a5a5a"/><circle cx="295.3" cy="198.0" r="3" fill="#8a5a5a"/><circle cx="297.9" cy="198.0" r="3" fill="#8a5a5a"/><circle cx="300.4" cy="198.0" r="3" fill="#8a5a5a"/><circle cx="303.0" cy="198.0" r="3" fill="#8a5a5a"/><circle cx="305.5" cy="198.0" r="3" fill="#8a5a5a"/><circle cx="308.0" cy="198.0" r="3" fill="#8a5a5a"/><circle cx="310.6" cy="198.0" r="3" fill="#8a5a5a"/><circle cx="313.1" cy="198.0" r="3" fill="#8a5a5a"/><circle cx="315.7" cy="198.0" r="3" fill="#8a5a5a"/><circle cx="318.2" cy="198.0" r="3" fill="#8a5a5a"/><circle cx="320.8" cy="198.0" r="3" fill="#8a5a5a"/><circle cx="323.3" cy="198.0" r="3" fill="#8a5a5a"/><circle cx="325.8" cy="198.0" r="3" fill="#8a5a5a"/><circle cx="328.4" cy="198.0" r="3" fill="#8a5a5a"/><circle cx="330.9" cy="198.0" r="3" fill="#8a5a5a"/><circle cx="333.5" cy="198.0" r="3" fill="#8a5a5a"/><circle cx="336.0" cy="198.0" r="3" fill="#8a5a5a"/><circle cx="338.6" cy="198.0" r="3" fill="#8a5a5a"/><circle cx="341.1" cy="198.0" r="3" fill="#8a5a5a"/><circle cx="343.6" cy="198.0" r="3" fill="#8a5a5a"/><circle cx="346.2" cy="198.0" r="3" fill="#8a5a5a"/><circle cx="348.7" cy="198.0" r="3" fill="#8a5a5a"/><circle cx="351.3" cy="198.0" r="3" fill="#8a5a5a"/><circle cx="353.8" cy="198.0" r="3" fill="#8a5a5a"/><circle cx="356.4" cy="198.0" r="3" fill="#8a5a5a"/><circle cx="358.9" cy="198.0" r="3" fill="#8a5a5a"/><circle cx="361.4" cy="198.0" r="3" fill="#8a5a5a"/><circle cx="364.0" cy="198.0" r="3" fill="#8a5a5a"/><circle cx="366.5" cy="198.0" r="3" fill="#8a5a5a"/><circle cx="369.1" cy="198.0" r="3" fill="#8a5a5a"/><circle cx="371.6" cy="198.0" r="3" fill="#8a5a5a"/><circle cx="374.2" cy="198.0" r="3" fill="#8a5a5a"/><circle cx="376.7" cy="198.0" r="3" fill="#8a5a5a"/><circle cx="379.2" cy="198.0" r="3" fill="#8a5a5a"/><circle cx="381.8" cy="198.0" r="3" fill="#8a5a5a"/><circle cx="384.3" cy="198.0" r="3" fill="#8a5a5a"/><circle cx="386.9" cy="198.0" r="3" fill="#8a5a5a"/><circle cx="389.4" cy="198.0" r="3" fill="#8a5a5a"/><circle cx="392.0" cy="198.0" r="3" fill="#8a5a5a"/><circle cx="394.5" cy="198.0" r="3" fill="#8a5a5a"/><circle cx="397.0" cy="198.0" r="3" fill="#8a5a5a"/><circle cx="399.6" cy="198.0" r="3" fill="#8a5a5a"/><circle cx="402.1" cy="198.0" r="3" fill="#8a5a5a"/><circle cx="404.7" cy="198.0" r="3" fill="#8a5a5a"/><circle cx="407.2" cy="198.0" r="3" fill="#8a5a5a"/><circle cx="409.7" cy="198.0" r="3" fill="#8a5a5a"/><circle cx="412.3" cy="198.0" r="3" fill="#8a5a5a"/><circle cx="414.8" cy="198.0" r="3" fill="#8a5a5a"/><circle cx="417.4" cy="198.0" r="3" fill="#8a5a5a"/><circle cx="419.9" cy="198.0" r="3" fill="#8a5a5a"/><circle cx="422.5" cy="198.0" r="3" fill="#8a5a5a"/><circle cx="425.0" cy="198.0" r="3" fill="#8a5a5a"/><circle cx="427.5" cy="198.0" r="3" fill="#8a5a5a"/><circle cx="430.1" cy="198.0" r="3" fill="#8a5a5a"/><circle cx="432.6" cy="198.0" r="3" fill="#8a5a5a"/><circle cx="435.2" cy="198.0" r="3" fill="#8a5a5a"/><circle cx="437.7" cy="198.0" r="3" fill="#8a5a5a"/><circle cx="440.3" cy="198.0" r="3" fill="#8a5a5a"/><circle cx="442.8" cy="198.0" r="3" fill="#8a5a5a"/><circle cx="445.3" cy="198.0" r="3" fill="#8a5a5a"/><circle cx="447.9" cy="198.0" r="3" fill="#8a5a5a"/><circle cx="450.4" cy="198.0" r="3" fill="#8a5a5a"/><circle cx="453.0" cy="198.0" r="3" fill="#8a5a5a"/><circle cx="455.5" cy="198.0" r="3" fill="#8a5a5a"/><circle cx="458.1" cy="198.0" r="3" fill="#8a5a5a"/><circle cx="460.6" cy="198.0" r="3" fill="#8a5a5a"/><circle cx="463.1" cy="198.0" r="3" fill="#8a5a5a"/><circle cx="465.7" cy="198.0" r="3" fill="#8a5a5a"/><circle cx="468.2" cy="198.0" r="3" fill="#8a5a5a"/><circle cx="470.8" cy="198.0" r="3" fill="#8a5a5a"/><circle cx="473.3" cy="198.0" r="3" fill="#8a5a5a"/><circle cx="475.9" cy="198.0" r="3" fill="#8a5a5a"/><circle cx="478.4" cy="198.0" r="3" fill="#8a5a5a"/><circle cx="480.9" cy="198.0" r="3" fill="#8a5a5a"/><circle cx="483.5" cy="198.0" r="3" fill="#8a5a5a"/><circle cx="486.0" cy="198.0" r="3" fill="#8a5a5a"/><circle cx="488.6" cy="198.0" r="3" fill="#8a5a5a"/><circle cx="491.1" cy="198.0" r="3" fill="#8a5a5a"/><circle cx="493.7" cy="198.0" r="3" fill="#8a5a5a"/><circle cx="496.2" cy="198.0" r="3" fill="#8a5a5a"/><circle cx="498.7" cy="198.0" r="3" fill="#8a5a5a"/><circle cx="501.3" cy="198.0" r="3" fill="#8a5a5a"/><circle cx="503.8" cy="198.0" r="3" fill="#8a5a5a"/><circle cx="506.4" cy="198.0" r="3" fill="#8a5a5a"/><circle cx="508.9" cy="198.0" r="3" fill="#8a5a5a"/><circle cx="511.4" cy="198.0" r="3" fill="#8a5a5a"/><circle cx="514.0" cy="198.0" r="3" fill="#8a5a5a"/><circle cx="516.5" cy="198.0" r="3" fill="#8a5a5a"/><circle cx="519.1" cy="198.0" r="3" fill="#8a5a5a"/><circle cx="521.6" cy="198.0" r="3" fill="#8a5a5a"/><circle cx="524.2" cy="198.0" r="3" fill="#8a5a5a"/><circle cx="526.7" cy="198.0" r="3" fill="#8a5a5a"/><circle cx="529.2" cy="198.0" r="3" fill="#8a5a5a"/><circle cx="531.8" cy="198.0" r="3" fill="#8a5a5a"/><circle cx="534.3" cy="198.0" r="3" fill="#8a5a5a"/><circle cx="536.9" cy="198.0" r="3" fill="#8a5a5a"/><circle cx="539.4" cy="198.0" r="3" fill="#8a5a5a"/><circle cx="542.0" cy="198.0" r="3" fill="#8a5a5a"/><circle cx="544.5" cy="198.0" r="3" fill="#8a5a5a"/><circle cx="547.0" cy="198.0" r="3" fill="#8a5a5a"/><circle cx="549.6" cy="198.0" r="3" fill="#8a5a5a"/><circle cx="552.1" cy="198.0" r="3" fill="#8a5a5a"/><circle cx="554.7" cy="198.0" r="3" fill="#8a5a5a"/><circle cx="557.2" cy="198.0" r="3" fill="#8a5a5a"/><circle cx="559.8" cy="198.0" r="3" fill="#8a5a5a"/><circle cx="562.3" cy="198.0" r="3" fill="#8a5a5a"/><circle cx="564.8" cy="198.0" r="3" fill="#8a5a5a"/><circle cx="567.4" cy="198.0" r="3" fill="#8a5a5a"/><circle cx="569.9" cy="198.0" r="3" fill="#8a5a5a"/><circle cx="572.5" cy="198.0" r="3" fill="#8a5a5a"/><circle cx="575.0" cy="198.0" r="3" fill="#8a5a5a"/><circle cx="577.6" cy="198.0" r="3" fill="#8a5a5a"/><circle cx="580.1" cy="198.0" r="3" fill="#8a5a5a"/><circle cx="582.6" cy="198.0" r="3" fill="#8a5a5a"/><circle cx="585.2" cy="198.0" r="3" fill="#8a5a5a"/><circle cx="587.7" cy="198.0" r="3" fill="#8a5a5a"/><circle cx="590.3" cy="198.0" r="3" fill="#8a5a5a"/><circle cx="592.8" cy="198.0" r="3" fill="#8a5a5a"/><circle cx="595.4" cy="198.0" r="3" fill="#8a5a5a"/><circle cx="597.9" cy="198.0" r="3" fill="#8a5a5a"/><circle cx="600.4" cy="198.0" r="3" fill="#8a5a5a"/><circle cx="603.0" cy="198.0" r="3" fill="#8a5a5a"/><circle cx="605.5" cy="198.0" r="3" fill="#8a5a5a"/><circle cx="608.1" cy="198.0" r="3" fill="#8a5a5a"/><circle cx="610.6" cy="198.0" r="3" fill="#8a5a5a"/><circle cx="613.1" cy="198.0" r="3" fill="#8a5a5a"/><circle cx="615.7" cy="198.0" r="3" fill="#8a5a5a"/><circle cx="618.2" cy="198.0" r="3" fill="#8a5a5a"/><circle cx="620.8" cy="198.0" r="3" fill="#8a5a5a"/><circle cx="623.3" cy="198.0" r="3" fill="#8a5a5a"/><circle cx="625.9" cy="198.0" r="3" fill="#8a5a5a"/><circle cx="628.4" cy="198.0" r="3" fill="#8a5a5a"/><circle cx="630.9" cy="198.0" r="3" fill="#8a5a5a"/><circle cx="633.5" cy="198.0" r="3" fill="#8a5a5a"/><circle cx="636.0" cy="198.0" r="3" fill="#8a5a5a"/><circle cx="638.6" cy="198.0" r="3" fill="#8a5a5a"/><circle cx="641.1" cy="198.0" r="3" fill="#8a5a5a"/><circle cx="643.7" cy="198.0" r="3" fill="#8a5a5a"/><circle cx="646.2" cy="198.0" r="3" fill="#8a5a5a"/><circle cx="648.7" cy="198.0" r="3" fill="#8a5a5a"/><circle cx="651.3" cy="198.0" r="3" fill="#8a5a5a"/><circle cx="653.8" cy="198.0" r="3" fill="#8a5a5a"/><circle cx="656.4" cy="198.0" r="3" fill="#8a5a5a"/><circle cx="658.9" cy="198.0" r="3" fill="#8a5a5a"/><circle cx="661.5" cy="198.0" r="3" fill="#8a5a5a"/><circle cx="664.0" cy="198.0" r="3" fill="#8a5a5a"/>
<polyline fill="none" stroke="#3fb950" stroke-width="2.5" stroke-linejoin="round" points="36.0,198.0 38.5,198.0 41.1,198.0 43.6,198.0 46.2,198.0 48.7,198.0 51.3,198.0 53.8,198.0 56.3,198.0 58.9,198.0 61.4,198.0 64.0,198.0 66.5,198.0 69.1,198.0 71.6,198.0 74.1,198.0 76.7,198.0 79.2,198.0 81.8,198.0 84.3,198.0 86.9,198.0 89.4,198.0 91.9,198.0 94.5,198.0 97.0,198.0 99.6,198.0 102.1,198.0 104.6,198.0 107.2,198.0 109.7,198.0 112.3,198.0 114.8,198.0 117.4,198.0 119.9,198.0 122.4,198.0 125.0,198.0 127.5,198.0 130.1,198.0 132.6,198.0 135.2,198.0 137.7,198.0 140.2,198.0 142.8,198.0 145.3,191.7 147.9,191.7 150.4,191.7 153.0,191.7 155.5,191.7 158.0,191.7 160.6,191.7 163.1,192.9 165.7,192.9 168.2,190.7 170.8,190.7 173.3,190.7 175.8,190.7 178.4,190.7 180.9,190.5 183.5,190.5 186.0,190.5 188.6,190.3 191.1,190.3 193.6,190.3 196.2,190.3 198.7,190.3 201.3,190.3 203.8,190.3 206.3,190.3 208.9,190.3 211.4,190.3 214.0,190.3 216.5,190.3 219.1,190.3 221.6,190.3 224.1,190.3 226.7,190.3 229.2,190.3 231.8,190.3 234.3,190.3 236.9,190.3 239.4,190.3 241.9,189.3 244.5,189.3 247.0,189.3 249.6,190.7 252.1,190.7 254.7,190.7 257.2,190.7 259.7,190.7 262.3,190.7 264.8,190.7 267.4,190.7 269.9,190.7 272.5,190.9 275.0,190.9 277.5,190.9 280.1,194.2 282.6,196.8 285.2,198.0 287.7,198.0 290.3,198.0 292.8,198.0 295.3,198.0 297.9,198.0 300.4,198.0 303.0,198.0 305.5,198.0 308.0,198.0 310.6,198.0 313.1,198.0 315.7,198.0 318.2,198.0 320.8,198.0 323.3,198.0 325.8,198.0 328.4,198.0 330.9,198.0 333.5,198.0 336.0,198.0 338.6,198.0 341.1,198.0 343.6,198.0 346.2,198.0 348.7,198.0 351.3,198.0 353.8,198.0 356.4,198.0 358.9,198.0 361.4,198.0 364.0,198.0 366.5,198.0 369.1,198.0 371.6,198.0 374.2,198.0 376.7,198.0 379.2,198.0 381.8,198.0 384.3,198.0 386.9,198.0 389.4,198.0 392.0,198.0 394.5,198.0 397.0,198.0 399.6,198.0 402.1,198.0 404.7,198.0 407.2,198.0 409.7,198.0 412.3,198.0 414.8,198.0 417.4,198.0 419.9,198.0 422.5,198.0 425.0,198.0 427.5,198.0 430.1,198.0 432.6,198.0 435.2,198.0 437.7,198.0 440.3,198.0 442.8,198.0 445.3,198.0 447.9,198.0 450.4,198.0 453.0,198.0 455.5,198.0 458.1,198.0 460.6,198.0 463.1,198.0 465.7,198.0 468.2,198.0 470.8,198.0 473.3,198.0 475.9,198.0 478.4,198.0 480.9,198.0 483.5,198.0 486.0,198.0 488.6,198.0 491.1,198.0 493.7,198.0 496.2,198.0 498.7,198.0 501.3,198.0 503.8,198.0 506.4,198.0 508.9,198.0 511.4,198.0 514.0,198.0 516.5,198.0 519.1,198.0 521.6,198.0 524.2,198.0 526.7,198.0 529.2,198.0 531.8,198.0 534.3,198.0 536.9,198.0 539.4,198.0 542.0,198.0 544.5,198.0 547.0,198.0 549.6,198.0 552.1,198.0 554.7,198.0 557.2,198.0 559.8,198.0 562.3,198.0 564.8,198.0 567.4,198.0 569.9,198.0 572.5,198.0 575.0,198.0 577.6,198.0 580.1,198.0 582.6,198.0 585.2,198.0 587.7,198.0 590.3,198.0 592.8,198.0 595.4,198.0 597.9,198.0 600.4,198.0 603.0,198.0 605.5,198.0 608.1,198.0 610.6,198.0 613.1,198.0 615.7,198.0 618.2,198.0 620.8,198.0 623.3,198.0 625.9,198.0 628.4,198.0 630.9,198.0 633.5,198.0 636.0,198.0 638.6,198.0 641.1,198.0 643.7,198.0 646.2,198.0 648.7,198.0 651.3,198.0 653.8,198.0 656.4,198.0 658.9,198.0 661.5,198.0 664.0,198.0"/><circle cx="36.0" cy="198.0" r="3" fill="#3fb950"/><circle cx="38.5" cy="198.0" r="3" fill="#3fb950"/><circle cx="41.1" cy="198.0" r="3" fill="#3fb950"/><circle cx="43.6" cy="198.0" r="3" fill="#3fb950"/><circle cx="46.2" cy="198.0" r="3" fill="#3fb950"/><circle cx="48.7" cy="198.0" r="3" fill="#3fb950"/><circle cx="51.3" cy="198.0" r="3" fill="#3fb950"/><circle cx="53.8" cy="198.0" r="3" fill="#3fb950"/><circle cx="56.3" cy="198.0" r="3" fill="#3fb950"/><circle cx="58.9" cy="198.0" r="3" fill="#3fb950"/><circle cx="61.4" cy="198.0" r="3" fill="#3fb950"/><circle cx="64.0" cy="198.0" r="3" fill="#3fb950"/><circle cx="66.5" cy="198.0" r="3" fill="#3fb950"/><circle cx="69.1" cy="198.0" r="3" fill="#3fb950"/><circle cx="71.6" cy="198.0" r="3" fill="#3fb950"/><circle cx="74.1" cy="198.0" r="3" fill="#3fb950"/><circle cx="76.7" cy="198.0" r="3" fill="#3fb950"/><circle cx="79.2" cy="198.0" r="3" fill="#3fb950"/><circle cx="81.8" cy="198.0" r="3" fill="#3fb950"/><circle cx="84.3" cy="198.0" r="3" fill="#3fb950"/><circle cx="86.9" cy="198.0" r="3" fill="#3fb950"/><circle cx="89.4" cy="198.0" r="3" fill="#3fb950"/><circle cx="91.9" cy="198.0" r="3" fill="#3fb950"/><circle cx="94.5" cy="198.0" r="3" fill="#3fb950"/><circle cx="97.0" cy="198.0" r="3" fill="#3fb950"/><circle cx="99.6" cy="198.0" r="3" fill="#3fb950"/><circle cx="102.1" cy="198.0" r="3" fill="#3fb950"/><circle cx="104.6" cy="198.0" r="3" fill="#3fb950"/><circle cx="107.2" cy="198.0" r="3" fill="#3fb950"/><circle cx="109.7" cy="198.0" r="3" fill="#3fb950"/><circle cx="112.3" cy="198.0" r="3" fill="#3fb950"/><circle cx="114.8" cy="198.0" r="3" fill="#3fb950"/><circle cx="117.4" cy="198.0" r="3" fill="#3fb950"/><circle cx="119.9" cy="198.0" r="3" fill="#3fb950"/><circle cx="122.4" cy="198.0" r="3" fill="#3fb950"/><circle cx="125.0" cy="198.0" r="3" fill="#3fb950"/><circle cx="127.5" cy="198.0" r="3" fill="#3fb950"/><circle cx="130.1" cy="198.0" r="3" fill="#3fb950"/><circle cx="132.6" cy="198.0" r="3" fill="#3fb950"/><circle cx="135.2" cy="198.0" r="3" fill="#3fb950"/><circle cx="137.7" cy="198.0" r="3" fill="#3fb950"/><circle cx="140.2" cy="198.0" r="3" fill="#3fb950"/><circle cx="142.8" cy="198.0" r="3" fill="#3fb950"/><circle cx="145.3" cy="191.7" r="3" fill="#3fb950"/><circle cx="147.9" cy="191.7" r="3" fill="#3fb950"/><circle cx="150.4" cy="191.7" r="3" fill="#3fb950"/><circle cx="153.0" cy="191.7" r="3" fill="#3fb950"/><circle cx="155.5" cy="191.7" r="3" fill="#3fb950"/><circle cx="158.0" cy="191.7" r="3" fill="#3fb950"/><circle cx="160.6" cy="191.7" r="3" fill="#3fb950"/><circle cx="163.1" cy="192.9" r="3" fill="#3fb950"/><circle cx="165.7" cy="192.9" r="3" fill="#3fb950"/><circle cx="168.2" cy="190.7" r="3" fill="#3fb950"/><circle cx="170.8" cy="190.7" r="3" fill="#3fb950"/><circle cx="173.3" cy="190.7" r="3" fill="#3fb950"/><circle cx="175.8" cy="190.7" r="3" fill="#3fb950"/><circle cx="178.4" cy="190.7" r="3" fill="#3fb950"/><circle cx="180.9" cy="190.5" r="3" fill="#3fb950"/><circle cx="183.5" cy="190.5" r="3" fill="#3fb950"/><circle cx="186.0" cy="190.5" r="3" fill="#3fb950"/><circle cx="188.6" cy="190.3" r="3" fill="#3fb950"/><circle cx="191.1" cy="190.3" r="3" fill="#3fb950"/><circle cx="193.6" cy="190.3" r="3" fill="#3fb950"/><circle cx="196.2" cy="190.3" r="3" fill="#3fb950"/><circle cx="198.7" cy="190.3" r="3" fill="#3fb950"/><circle cx="201.3" cy="190.3" r="3" fill="#3fb950"/><circle cx="203.8" cy="190.3" r="3" fill="#3fb950"/><circle cx="206.3" cy="190.3" r="3" fill="#3fb950"/><circle cx="208.9" cy="190.3" r="3" fill="#3fb950"/><circle cx="211.4" cy="190.3" r="3" fill="#3fb950"/><circle cx="214.0" cy="190.3" r="3" fill="#3fb950"/><circle cx="216.5" cy="190.3" r="3" fill="#3fb950"/><circle cx="219.1" cy="190.3" r="3" fill="#3fb950"/><circle cx="221.6" cy="190.3" r="3" fill="#3fb950"/><circle cx="224.1" cy="190.3" r="3" fill="#3fb950"/><circle cx="226.7" cy="190.3" r="3" fill="#3fb950"/><circle cx="229.2" cy="190.3" r="3" fill="#3fb950"/><circle cx="231.8" cy="190.3" r="3" fill="#3fb950"/><circle cx="234.3" cy="190.3" r="3" fill="#3fb950"/><circle cx="236.9" cy="190.3" r="3" fill="#3fb950"/><circle cx="239.4" cy="190.3" r="3" fill="#3fb950"/><circle cx="241.9" cy="189.3" r="3" fill="#3fb950"/><circle cx="244.5" cy="189.3" r="3" fill="#3fb950"/><circle cx="247.0" cy="189.3" r="3" fill="#3fb950"/><circle cx="249.6" cy="190.7" r="3" fill="#3fb950"/><circle cx="252.1" cy="190.7" r="3" fill="#3fb950"/><circle cx="254.7" cy="190.7" r="3" fill="#3fb950"/><circle cx="257.2" cy="190.7" r="3" fill="#3fb950"/><circle cx="259.7" cy="190.7" r="3" fill="#3fb950"/><circle cx="262.3" cy="190.7" r="3" fill="#3fb950"/><circle cx="264.8" cy="190.7" r="3" fill="#3fb950"/><circle cx="267.4" cy="190.7" r="3" fill="#3fb950"/><circle cx="269.9" cy="190.7" r="3" fill="#3fb950"/><circle cx="272.5" cy="190.9" r="3" fill="#3fb950"/><circle cx="275.0" cy="190.9" r="3" fill="#3fb950"/><circle cx="277.5" cy="190.9" r="3" fill="#3fb950"/><circle cx="280.1" cy="194.2" r="3" fill="#3fb950"/><circle cx="282.6" cy="196.8" r="3" fill="#3fb950"/><circle cx="285.2" cy="198.0" r="3" fill="#3fb950"/><circle cx="287.7" cy="198.0" r="3" fill="#3fb950"/><circle cx="290.3" cy="198.0" r="3" fill="#3fb950"/><circle cx="292.8" cy="198.0" r="3" fill="#3fb950"/><circle cx="295.3" cy="198.0" r="3" fill="#3fb950"/><circle cx="297.9" cy="198.0" r="3" fill="#3fb950"/><circle cx="300.4" cy="198.0" r="3" fill="#3fb950"/><circle cx="303.0" cy="198.0" r="3" fill="#3fb950"/><circle cx="305.5" cy="198.0" r="3" fill="#3fb950"/><circle cx="308.0" cy="198.0" r="3" fill="#3fb950"/><circle cx="310.6" cy="198.0" r="3" fill="#3fb950"/><circle cx="313.1" cy="198.0" r="3" fill="#3fb950"/><circle cx="315.7" cy="198.0" r="3" fill="#3fb950"/><circle cx="318.2" cy="198.0" r="3" fill="#3fb950"/><circle cx="320.8" cy="198.0" r="3" fill="#3fb950"/><circle cx="323.3" cy="198.0" r="3" fill="#3fb950"/><circle cx="325.8" cy="198.0" r="3" fill="#3fb950"/><circle cx="328.4" cy="198.0" r="3" fill="#3fb950"/><circle cx="330.9" cy="198.0" r="3" fill="#3fb950"/><circle cx="333.5" cy="198.0" r="3" fill="#3fb950"/><circle cx="336.0" cy="198.0" r="3" fill="#3fb950"/><circle cx="338.6" cy="198.0" r="3" fill="#3fb950"/><circle cx="341.1" cy="198.0" r="3" fill="#3fb950"/><circle cx="343.6" cy="198.0" r="3" fill="#3fb950"/><circle cx="346.2" cy="198.0" r="3" fill="#3fb950"/><circle cx="348.7" cy="198.0" r="3" fill="#3fb950"/><circle cx="351.3" cy="198.0" r="3" fill="#3fb950"/><circle cx="353.8" cy="198.0" r="3" fill="#3fb950"/><circle cx="356.4" cy="198.0" r="3" fill="#3fb950"/><circle cx="358.9" cy="198.0" r="3" fill="#3fb950"/><circle cx="361.4" cy="198.0" r="3" fill="#3fb950"/><circle cx="364.0" cy="198.0" r="3" fill="#3fb950"/><circle cx="366.5" cy="198.0" r="3" fill="#3fb950"/><circle cx="369.1" cy="198.0" r="3" fill="#3fb950"/><circle cx="371.6" cy="198.0" r="3" fill="#3fb950"/><circle cx="374.2" cy="198.0" r="3" fill="#3fb950"/><circle cx="376.7" cy="198.0" r="3" fill="#3fb950"/><circle cx="379.2" cy="198.0" r="3" fill="#3fb950"/><circle cx="381.8" cy="198.0" r="3" fill="#3fb950"/><circle cx="384.3" cy="198.0" r="3" fill="#3fb950"/><circle cx="386.9" cy="198.0" r="3" fill="#3fb950"/><circle cx="389.4" cy="198.0" r="3" fill="#3fb950"/><circle cx="392.0" cy="198.0" r="3" fill="#3fb950"/><circle cx="394.5" cy="198.0" r="3" fill="#3fb950"/><circle cx="397.0" cy="198.0" r="3" fill="#3fb950"/><circle cx="399.6" cy="198.0" r="3" fill="#3fb950"/><circle cx="402.1" cy="198.0" r="3" fill="#3fb950"/><circle cx="404.7" cy="198.0" r="3" fill="#3fb950"/><circle cx="407.2" cy="198.0" r="3" fill="#3fb950"/><circle cx="409.7" cy="198.0" r="3" fill="#3fb950"/><circle cx="412.3" cy="198.0" r="3" fill="#3fb950"/><circle cx="414.8" cy="198.0" r="3" fill="#3fb950"/><circle cx="417.4" cy="198.0" r="3" fill="#3fb950"/><circle cx="419.9" cy="198.0" r="3" fill="#3fb950"/><circle cx="422.5" cy="198.0" r="3" fill="#3fb950"/><circle cx="425.0" cy="198.0" r="3" fill="#3fb950"/><circle cx="427.5" cy="198.0" r="3" fill="#3fb950"/><circle cx="430.1" cy="198.0" r="3" fill="#3fb950"/><circle cx="432.6" cy="198.0" r="3" fill="#3fb950"/><circle cx="435.2" cy="198.0" r="3" fill="#3fb950"/><circle cx="437.7" cy="198.0" r="3" fill="#3fb950"/><circle cx="440.3" cy="198.0" r="3" fill="#3fb950"/><circle cx="442.8" cy="198.0" r="3" fill="#3fb950"/><circle cx="445.3" cy="198.0" r="3" fill="#3fb950"/><circle cx="447.9" cy="198.0" r="3" fill="#3fb950"/><circle cx="450.4" cy="198.0" r="3" fill="#3fb950"/><circle cx="453.0" cy="198.0" r="3" fill="#3fb950"/><circle cx="455.5" cy="198.0" r="3" fill="#3fb950"/><circle cx="458.1" cy="198.0" r="3" fill="#3fb950"/><circle cx="460.6" cy="198.0" r="3" fill="#3fb950"/><circle cx="463.1" cy="198.0" r="3" fill="#3fb950"/><circle cx="465.7" cy="198.0" r="3" fill="#3fb950"/><circle cx="468.2" cy="198.0" r="3" fill="#3fb950"/><circle cx="470.8" cy="198.0" r="3" fill="#3fb950"/><circle cx="473.3" cy="198.0" r="3" fill="#3fb950"/><circle cx="475.9" cy="198.0" r="3" fill="#3fb950"/><circle cx="478.4" cy="198.0" r="3" fill="#3fb950"/><circle cx="480.9" cy="198.0" r="3" fill="#3fb950"/><circle cx="483.5" cy="198.0" r="3" fill="#3fb950"/><circle cx="486.0" cy="198.0" r="3" fill="#3fb950"/><circle cx="488.6" cy="198.0" r="3" fill="#3fb950"/><circle cx="491.1" cy="198.0" r="3" fill="#3fb950"/><circle cx="493.7" cy="198.0" r="3" fill="#3fb950"/><circle cx="496.2" cy="198.0" r="3" fill="#3fb950"/><circle cx="498.7" cy="198.0" r="3" fill="#3fb950"/><circle cx="501.3" cy="198.0" r="3" fill="#3fb950"/><circle cx="503.8" cy="198.0" r="3" fill="#3fb950"/><circle cx="506.4" cy="198.0" r="3" fill="#3fb950"/><circle cx="508.9" cy="198.0" r="3" fill="#3fb950"/><circle cx="511.4" cy="198.0" r="3" fill="#3fb950"/><circle cx="514.0" cy="198.0" r="3" fill="#3fb950"/><circle cx="516.5" cy="198.0" r="3" fill="#3fb950"/><circle cx="519.1" cy="198.0" r="3" fill="#3fb950"/><circle cx="521.6" cy="198.0" r="3" fill="#3fb950"/><circle cx="524.2" cy="198.0" r="3" fill="#3fb950"/><circle cx="526.7" cy="198.0" r="3" fill="#3fb950"/><circle cx="529.2" cy="198.0" r="3" fill="#3fb950"/><circle cx="531.8" cy="198.0" r="3" fill="#3fb950"/><circle cx="534.3" cy="198.0" r="3" fill="#3fb950"/><circle cx="536.9" cy="198.0" r="3" fill="#3fb950"/><circle cx="539.4" cy="198.0" r="3" fill="#3fb950"/><circle cx="542.0" cy="198.0" r="3" fill="#3fb950"/><circle cx="544.5" cy="198.0" r="3" fill="#3fb950"/><circle cx="547.0" cy="198.0" r="3" fill="#3fb950"/><circle cx="549.6" cy="198.0" r="3" fill="#3fb950"/><circle cx="552.1" cy="198.0" r="3" fill="#3fb950"/><circle cx="554.7" cy="198.0" r="3" fill="#3fb950"/><circle cx="557.2" cy="198.0" r="3" fill="#3fb950"/><circle cx="559.8" cy="198.0" r="3" fill="#3fb950"/><circle cx="562.3" cy="198.0" r="3" fill="#3fb950"/><circle cx="564.8" cy="198.0" r="3" fill="#3fb950"/><circle cx="567.4" cy="198.0" r="3" fill="#3fb950"/><circle cx="569.9" cy="198.0" r="3" fill="#3fb950"/><circle cx="572.5" cy="198.0" r="3" fill="#3fb950"/><circle cx="575.0" cy="198.0" r="3" fill="#3fb950"/><circle cx="577.6" cy="198.0" r="3" fill="#3fb950"/><circle cx="580.1" cy="198.0" r="3" fill="#3fb950"/><circle cx="582.6" cy="198.0" r="3" fill="#3fb950"/><circle cx="585.2" cy="198.0" r="3" fill="#3fb950"/><circle cx="587.7" cy="198.0" r="3" fill="#3fb950"/><circle cx="590.3" cy="198.0" r="3" fill="#3fb950"/><circle cx="592.8" cy="198.0" r="3" fill="#3fb950"/><circle cx="595.4" cy="198.0" r="3" fill="#3fb950"/><circle cx="597.9" cy="198.0" r="3" fill="#3fb950"/><circle cx="600.4" cy="198.0" r="3" fill="#3fb950"/><circle cx="603.0" cy="198.0" r="3" fill="#3fb950"/><circle cx="605.5" cy="198.0" r="3" fill="#3fb950"/><circle cx="608.1" cy="198.0" r="3" fill="#3fb950"/><circle cx="610.6" cy="198.0" r="3" fill="#3fb950"/><circle cx="613.1" cy="198.0" r="3" fill="#3fb950"/><circle cx="615.7" cy="198.0" r="3" fill="#3fb950"/><circle cx="618.2" cy="198.0" r="3" fill="#3fb950"/><circle cx="620.8" cy="198.0" r="3" fill="#3fb950"/><circle cx="623.3" cy="198.0" r="3" fill="#3fb950"/><circle cx="625.9" cy="198.0" r="3" fill="#3fb950"/><circle cx="628.4" cy="198.0" r="3" fill="#3fb950"/><circle cx="630.9" cy="198.0" r="3" fill="#3fb950"/><circle cx="633.5" cy="198.0" r="3" fill="#3fb950"/><circle cx="636.0" cy="198.0" r="3" fill="#3fb950"/><circle cx="638.6" cy="198.0" r="3" fill="#3fb950"/><circle cx="641.1" cy="198.0" r="3" fill="#3fb950"/><circle cx="643.7" cy="198.0" r="3" fill="#3fb950"/><circle cx="646.2" cy="198.0" r="3" fill="#3fb950"/><circle cx="648.7" cy="198.0" r="3" fill="#3fb950"/><circle cx="651.3" cy="198.0" r="3" fill="#3fb950"/><circle cx="653.8" cy="198.0" r="3" fill="#3fb950"/><circle cx="656.4" cy="198.0" r="3" fill="#3fb950"/><circle cx="658.9" cy="198.0" r="3" fill="#3fb950"/><circle cx="661.5" cy="198.0" r="3" fill="#3fb950"/><circle cx="664.0" cy="198.0" r="3" fill="#3fb950"/>
<polyline fill="none" stroke="#4aa3ff" stroke-width="2.5" stroke-linejoin="round" points="36.0,144.3 38.5,144.3 41.1,144.3 43.6,144.3 46.2,144.3 48.7,144.3 51.3,144.3 53.8,144.3 56.3,144.3 58.9,144.3 61.4,144.3 64.0,144.3 66.5,144.3 69.1,144.3 71.6,144.3 74.1,136.2 76.7,132.4 79.2,129.6 81.8,129.6 84.3,121.0 86.9,121.0 89.4,121.0 91.9,114.4 94.5,114.4 97.0,114.4 99.6,111.3 102.1,110.9 104.6,110.9 107.2,110.5 109.7,110.5 112.3,109.9 114.8,108.7 117.4,107.3 119.9,106.9 122.4,106.9 125.0,106.9 127.5,106.9 130.1,106.9 132.6,106.9 135.2,106.9 137.7,106.9 140.2,106.9 142.8,106.9 145.3,113.2 147.9,113.2 150.4,113.2 153.0,113.2 155.5,113.2 158.0,110.7 160.6,105.3 163.1,83.4 165.7,83.4 168.2,85.6 170.8,85.6 173.3,85.6 175.8,85.6 178.4,85.6 180.9,85.8 183.5,85.8 186.0,85.8 188.6,86.0 191.1,86.0 193.6,86.0 196.2,86.0 198.7,86.0 201.3,86.0 203.8,86.0 206.3,86.0 208.9,86.0 211.4,86.0 214.0,86.0 216.5,86.0 219.1,86.0 221.6,86.0 224.1,86.0 226.7,86.0 229.2,86.0 231.8,86.0 234.3,86.0 236.9,86.0 239.4,86.0 241.9,87.0 244.5,87.0 247.0,87.0 249.6,73.7 252.1,73.7 254.7,71.0 257.2,71.0 259.7,70.8 262.3,70.6 264.8,70.6 267.4,70.4 269.9,68.6 272.5,60.5 275.0,59.3 277.5,52.0 280.1,47.3 282.6,40.1 285.2,36.0 287.7,36.0 290.3,36.0 292.8,36.0 295.3,36.0 297.9,36.0 300.4,36.0 303.0,36.0 305.5,36.0 308.0,36.0 310.6,36.0 313.1,36.0 315.7,36.0 318.2,36.0 320.8,36.0 323.3,36.0 325.8,36.0 328.4,36.0 330.9,36.0 333.5,36.0 336.0,36.0 338.6,36.0 341.1,36.0 343.6,36.0 346.2,36.0 348.7,36.0 351.3,36.0 353.8,36.0 356.4,36.0 358.9,36.0 361.4,36.0 364.0,36.0 366.5,36.0 369.1,36.0 371.6,36.0 374.2,36.0 376.7,36.0 379.2,36.0 381.8,36.0 384.3,36.0 386.9,36.0 389.4,36.0 392.0,36.0 394.5,36.0 397.0,36.0 399.6,36.0 402.1,36.0 404.7,36.0 407.2,36.0 409.7,36.0 412.3,36.0 414.8,36.0 417.4,36.0 419.9,36.0 422.5,36.0 425.0,36.0 427.5,36.0 430.1,36.0 432.6,36.0 435.2,36.0 437.7,36.0 440.3,36.0 442.8,36.0 445.3,36.0 447.9,36.0 450.4,36.0 453.0,36.0 455.5,36.0 458.1,36.0 460.6,36.0 463.1,36.0 465.7,36.0 468.2,36.0 470.8,36.0 473.3,36.0 475.9,36.0 478.4,36.0 480.9,36.0 483.5,36.0 486.0,36.0 488.6,36.0 491.1,36.0 493.7,36.0 496.2,36.0 498.7,36.0 501.3,36.0 503.8,36.0 506.4,36.0 508.9,36.0 511.4,36.0 514.0,36.0 516.5,36.0 519.1,36.0 521.6,36.0 524.2,36.0 526.7,36.0 529.2,36.0 531.8,36.0 534.3,36.0 536.9,36.0 539.4,36.0 542.0,36.0 544.5,36.0 547.0,36.0 549.6,36.0 552.1,36.0 554.7,36.0 557.2,36.0 559.8,36.0 562.3,36.0 564.8,36.0 567.4,36.0 569.9,36.0 572.5,36.0 575.0,36.0 577.6,36.0 580.1,36.0 582.6,36.0 585.2,36.0 587.7,36.0 590.3,36.0 592.8,36.0 595.4,36.0 597.9,36.0 600.4,36.0 603.0,36.0 605.5,36.0 608.1,36.0 610.6,36.0 613.1,36.0 615.7,36.0 618.2,36.0 620.8,36.0 623.3,36.0 625.9,36.0 628.4,36.0 630.9,36.0 633.5,36.0 636.0,36.0 638.6,36.0 641.1,36.0 643.7,36.0 646.2,36.0 648.7,36.0 651.3,36.0 653.8,36.0 656.4,36.0 658.9,36.0 661.5,36.0 664.0,36.0"/><circle cx="36.0" cy="144.3" r="3" fill="#4aa3ff"/><circle cx="38.5" cy="144.3" r="3" fill="#4aa3ff"/><circle cx="41.1" cy="144.3" r="3" fill="#4aa3ff"/><circle cx="43.6" cy="144.3" r="3" fill="#4aa3ff"/><circle cx="46.2" cy="144.3" r="3" fill="#4aa3ff"/><circle cx="48.7" cy="144.3" r="3" fill="#4aa3ff"/><circle cx="51.3" cy="144.3" r="3" fill="#4aa3ff"/><circle cx="53.8" cy="144.3" r="3" fill="#4aa3ff"/><circle cx="56.3" cy="144.3" r="3" fill="#4aa3ff"/><circle cx="58.9" cy="144.3" r="3" fill="#4aa3ff"/><circle cx="61.4" cy="144.3" r="3" fill="#4aa3ff"/><circle cx="64.0" cy="144.3" r="3" fill="#4aa3ff"/><circle cx="66.5" cy="144.3" r="3" fill="#4aa3ff"/><circle cx="69.1" cy="144.3" r="3" fill="#4aa3ff"/><circle cx="71.6" cy="144.3" r="3" fill="#4aa3ff"/><circle cx="74.1" cy="136.2" r="3" fill="#4aa3ff"/><circle cx="76.7" cy="132.4" r="3" fill="#4aa3ff"/><circle cx="79.2" cy="129.6" r="3" fill="#4aa3ff"/><circle cx="81.8" cy="129.6" r="3" fill="#4aa3ff"/><circle cx="84.3" cy="121.0" r="3" fill="#4aa3ff"/><circle cx="86.9" cy="121.0" r="3" fill="#4aa3ff"/><circle cx="89.4" cy="121.0" r="3" fill="#4aa3ff"/><circle cx="91.9" cy="114.4" r="3" fill="#4aa3ff"/><circle cx="94.5" cy="114.4" r="3" fill="#4aa3ff"/><circle cx="97.0" cy="114.4" r="3" fill="#4aa3ff"/><circle cx="99.6" cy="111.3" r="3" fill="#4aa3ff"/><circle cx="102.1" cy="110.9" r="3" fill="#4aa3ff"/><circle cx="104.6" cy="110.9" r="3" fill="#4aa3ff"/><circle cx="107.2" cy="110.5" r="3" fill="#4aa3ff"/><circle cx="109.7" cy="110.5" r="3" fill="#4aa3ff"/><circle cx="112.3" cy="109.9" r="3" fill="#4aa3ff"/><circle cx="114.8" cy="108.7" r="3" fill="#4aa3ff"/><circle cx="117.4" cy="107.3" r="3" fill="#4aa3ff"/><circle cx="119.9" cy="106.9" r="3" fill="#4aa3ff"/><circle cx="122.4" cy="106.9" r="3" fill="#4aa3ff"/><circle cx="125.0" cy="106.9" r="3" fill="#4aa3ff"/><circle cx="127.5" cy="106.9" r="3" fill="#4aa3ff"/><circle cx="130.1" cy="106.9" r="3" fill="#4aa3ff"/><circle cx="132.6" cy="106.9" r="3" fill="#4aa3ff"/><circle cx="135.2" cy="106.9" r="3" fill="#4aa3ff"/><circle cx="137.7" cy="106.9" r="3" fill="#4aa3ff"/><circle cx="140.2" cy="106.9" r="3" fill="#4aa3ff"/><circle cx="142.8" cy="106.9" r="3" fill="#4aa3ff"/><circle cx="145.3" cy="113.2" r="3" fill="#4aa3ff"/><circle cx="147.9" cy="113.2" r="3" fill="#4aa3ff"/><circle cx="150.4" cy="113.2" r="3" fill="#4aa3ff"/><circle cx="153.0" cy="113.2" r="3" fill="#4aa3ff"/><circle cx="155.5" cy="113.2" r="3" fill="#4aa3ff"/><circle cx="158.0" cy="110.7" r="3" fill="#4aa3ff"/><circle cx="160.6" cy="105.3" r="3" fill="#4aa3ff"/><circle cx="163.1" cy="83.4" r="3" fill="#4aa3ff"/><circle cx="165.7" cy="83.4" r="3" fill="#4aa3ff"/><circle cx="168.2" cy="85.6" r="3" fill="#4aa3ff"/><circle cx="170.8" cy="85.6" r="3" fill="#4aa3ff"/><circle cx="173.3" cy="85.6" r="3" fill="#4aa3ff"/><circle cx="175.8" cy="85.6" r="3" fill="#4aa3ff"/><circle cx="178.4" cy="85.6" r="3" fill="#4aa3ff"/><circle cx="180.9" cy="85.8" r="3" fill="#4aa3ff"/><circle cx="183.5" cy="85.8" r="3" fill="#4aa3ff"/><circle cx="186.0" cy="85.8" r="3" fill="#4aa3ff"/><circle cx="188.6" cy="86.0" r="3" fill="#4aa3ff"/><circle cx="191.1" cy="86.0" r="3" fill="#4aa3ff"/><circle cx="193.6" cy="86.0" r="3" fill="#4aa3ff"/><circle cx="196.2" cy="86.0" r="3" fill="#4aa3ff"/><circle cx="198.7" cy="86.0" r="3" fill="#4aa3ff"/><circle cx="201.3" cy="86.0" r="3" fill="#4aa3ff"/><circle cx="203.8" cy="86.0" r="3" fill="#4aa3ff"/><circle cx="206.3" cy="86.0" r="3" fill="#4aa3ff"/><circle cx="208.9" cy="86.0" r="3" fill="#4aa3ff"/><circle cx="211.4" cy="86.0" r="3" fill="#4aa3ff"/><circle cx="214.0" cy="86.0" r="3" fill="#4aa3ff"/><circle cx="216.5" cy="86.0" r="3" fill="#4aa3ff"/><circle cx="219.1" cy="86.0" r="3" fill="#4aa3ff"/><circle cx="221.6" cy="86.0" r="3" fill="#4aa3ff"/><circle cx="224.1" cy="86.0" r="3" fill="#4aa3ff"/><circle cx="226.7" cy="86.0" r="3" fill="#4aa3ff"/><circle cx="229.2" cy="86.0" r="3" fill="#4aa3ff"/><circle cx="231.8" cy="86.0" r="3" fill="#4aa3ff"/><circle cx="234.3" cy="86.0" r="3" fill="#4aa3ff"/><circle cx="236.9" cy="86.0" r="3" fill="#4aa3ff"/><circle cx="239.4" cy="86.0" r="3" fill="#4aa3ff"/><circle cx="241.9" cy="87.0" r="3" fill="#4aa3ff"/><circle cx="244.5" cy="87.0" r="3" fill="#4aa3ff"/><circle cx="247.0" cy="87.0" r="3" fill="#4aa3ff"/><circle cx="249.6" cy="73.7" r="3" fill="#4aa3ff"/><circle cx="252.1" cy="73.7" r="3" fill="#4aa3ff"/><circle cx="254.7" cy="71.0" r="3" fill="#4aa3ff"/><circle cx="257.2" cy="71.0" r="3" fill="#4aa3ff"/><circle cx="259.7" cy="70.8" r="3" fill="#4aa3ff"/><circle cx="262.3" cy="70.6" r="3" fill="#4aa3ff"/><circle cx="264.8" cy="70.6" r="3" fill="#4aa3ff"/><circle cx="267.4" cy="70.4" r="3" fill="#4aa3ff"/><circle cx="269.9" cy="68.6" r="3" fill="#4aa3ff"/><circle cx="272.5" cy="60.5" r="3" fill="#4aa3ff"/><circle cx="275.0" cy="59.3" r="3" fill="#4aa3ff"/><circle cx="277.5" cy="52.0" r="3" fill="#4aa3ff"/><circle cx="280.1" cy="47.3" r="3" fill="#4aa3ff"/><circle cx="282.6" cy="40.1" r="3" fill="#4aa3ff"/><circle cx="285.2" cy="36.0" r="3" fill="#4aa3ff"/><circle cx="287.7" cy="36.0" r="3" fill="#4aa3ff"/><circle cx="290.3" cy="36.0" r="3" fill="#4aa3ff"/><circle cx="292.8" cy="36.0" r="3" fill="#4aa3ff"/><circle cx="295.3" cy="36.0" r="3" fill="#4aa3ff"/><circle cx="297.9" cy="36.0" r="3" fill="#4aa3ff"/><circle cx="300.4" cy="36.0" r="3" fill="#4aa3ff"/><circle cx="303.0" cy="36.0" r="3" fill="#4aa3ff"/><circle cx="305.5" cy="36.0" r="3" fill="#4aa3ff"/><circle cx="308.0" cy="36.0" r="3" fill="#4aa3ff"/><circle cx="310.6" cy="36.0" r="3" fill="#4aa3ff"/><circle cx="313.1" cy="36.0" r="3" fill="#4aa3ff"/><circle cx="315.7" cy="36.0" r="3" fill="#4aa3ff"/><circle cx="318.2" cy="36.0" r="3" fill="#4aa3ff"/><circle cx="320.8" cy="36.0" r="3" fill="#4aa3ff"/><circle cx="323.3" cy="36.0" r="3" fill="#4aa3ff"/><circle cx="325.8" cy="36.0" r="3" fill="#4aa3ff"/><circle cx="328.4" cy="36.0" r="3" fill="#4aa3ff"/><circle cx="330.9" cy="36.0" r="3" fill="#4aa3ff"/><circle cx="333.5" cy="36.0" r="3" fill="#4aa3ff"/><circle cx="336.0" cy="36.0" r="3" fill="#4aa3ff"/><circle cx="338.6" cy="36.0" r="3" fill="#4aa3ff"/><circle cx="341.1" cy="36.0" r="3" fill="#4aa3ff"/><circle cx="343.6" cy="36.0" r="3" fill="#4aa3ff"/><circle cx="346.2" cy="36.0" r="3" fill="#4aa3ff"/><circle cx="348.7" cy="36.0" r="3" fill="#4aa3ff"/><circle cx="351.3" cy="36.0" r="3" fill="#4aa3ff"/><circle cx="353.8" cy="36.0" r="3" fill="#4aa3ff"/><circle cx="356.4" cy="36.0" r="3" fill="#4aa3ff"/><circle cx="358.9" cy="36.0" r="3" fill="#4aa3ff"/><circle cx="361.4" cy="36.0" r="3" fill="#4aa3ff"/><circle cx="364.0" cy="36.0" r="3" fill="#4aa3ff"/><circle cx="366.5" cy="36.0" r="3" fill="#4aa3ff"/><circle cx="369.1" cy="36.0" r="3" fill="#4aa3ff"/><circle cx="371.6" cy="36.0" r="3" fill="#4aa3ff"/><circle cx="374.2" cy="36.0" r="3" fill="#4aa3ff"/><circle cx="376.7" cy="36.0" r="3" fill="#4aa3ff"/><circle cx="379.2" cy="36.0" r="3" fill="#4aa3ff"/><circle cx="381.8" cy="36.0" r="3" fill="#4aa3ff"/><circle cx="384.3" cy="36.0" r="3" fill="#4aa3ff"/><circle cx="386.9" cy="36.0" r="3" fill="#4aa3ff"/><circle cx="389.4" cy="36.0" r="3" fill="#4aa3ff"/><circle cx="392.0" cy="36.0" r="3" fill="#4aa3ff"/><circle cx="394.5" cy="36.0" r="3" fill="#4aa3ff"/><circle cx="397.0" cy="36.0" r="3" fill="#4aa3ff"/><circle cx="399.6" cy="36.0" r="3" fill="#4aa3ff"/><circle cx="402.1" cy="36.0" r="3" fill="#4aa3ff"/><circle cx="404.7" cy="36.0" r="3" fill="#4aa3ff"/><circle cx="407.2" cy="36.0" r="3" fill="#4aa3ff"/><circle cx="409.7" cy="36.0" r="3" fill="#4aa3ff"/><circle cx="412.3" cy="36.0" r="3" fill="#4aa3ff"/><circle cx="414.8" cy="36.0" r="3" fill="#4aa3ff"/><circle cx="417.4" cy="36.0" r="3" fill="#4aa3ff"/><circle cx="419.9" cy="36.0" r="3" fill="#4aa3ff"/><circle cx="422.5" cy="36.0" r="3" fill="#4aa3ff"/><circle cx="425.0" cy="36.0" r="3" fill="#4aa3ff"/><circle cx="427.5" cy="36.0" r="3" fill="#4aa3ff"/><circle cx="430.1" cy="36.0" r="3" fill="#4aa3ff"/><circle cx="432.6" cy="36.0" r="3" fill="#4aa3ff"/><circle cx="435.2" cy="36.0" r="3" fill="#4aa3ff"/><circle cx="437.7" cy="36.0" r="3" fill="#4aa3ff"/><circle cx="440.3" cy="36.0" r="3" fill="#4aa3ff"/><circle cx="442.8" cy="36.0" r="3" fill="#4aa3ff"/><circle cx="445.3" cy="36.0" r="3" fill="#4aa3ff"/><circle cx="447.9" cy="36.0" r="3" fill="#4aa3ff"/><circle cx="450.4" cy="36.0" r="3" fill="#4aa3ff"/><circle cx="453.0" cy="36.0" r="3" fill="#4aa3ff"/><circle cx="455.5" cy="36.0" r="3" fill="#4aa3ff"/><circle cx="458.1" cy="36.0" r="3" fill="#4aa3ff"/><circle cx="460.6" cy="36.0" r="3" fill="#4aa3ff"/><circle cx="463.1" cy="36.0" r="3" fill="#4aa3ff"/><circle cx="465.7" cy="36.0" r="3" fill="#4aa3ff"/><circle cx="468.2" cy="36.0" r="3" fill="#4aa3ff"/><circle cx="470.8" cy="36.0" r="3" fill="#4aa3ff"/><circle cx="473.3" cy="36.0" r="3" fill="#4aa3ff"/><circle cx="475.9" cy="36.0" r="3" fill="#4aa3ff"/><circle cx="478.4" cy="36.0" r="3" fill="#4aa3ff"/><circle cx="480.9" cy="36.0" r="3" fill="#4aa3ff"/><circle cx="483.5" cy="36.0" r="3" fill="#4aa3ff"/><circle cx="486.0" cy="36.0" r="3" fill="#4aa3ff"/><circle cx="488.6" cy="36.0" r="3" fill="#4aa3ff"/><circle cx="491.1" cy="36.0" r="3" fill="#4aa3ff"/><circle cx="493.7" cy="36.0" r="3" fill="#4aa3ff"/><circle cx="496.2" cy="36.0" r="3" fill="#4aa3ff"/><circle cx="498.7" cy="36.0" r="3" fill="#4aa3ff"/><circle cx="501.3" cy="36.0" r="3" fill="#4aa3ff"/><circle cx="503.8" cy="36.0" r="3" fill="#4aa3ff"/><circle cx="506.4" cy="36.0" r="3" fill="#4aa3ff"/><circle cx="508.9" cy="36.0" r="3" fill="#4aa3ff"/><circle cx="511.4" cy="36.0" r="3" fill="#4aa3ff"/><circle cx="514.0" cy="36.0" r="3" fill="#4aa3ff"/><circle cx="516.5" cy="36.0" r="3" fill="#4aa3ff"/><circle cx="519.1" cy="36.0" r="3" fill="#4aa3ff"/><circle cx="521.6" cy="36.0" r="3" fill="#4aa3ff"/><circle cx="524.2" cy="36.0" r="3" fill="#4aa3ff"/><circle cx="526.7" cy="36.0" r="3" fill="#4aa3ff"/><circle cx="529.2" cy="36.0" r="3" fill="#4aa3ff"/><circle cx="531.8" cy="36.0" r="3" fill="#4aa3ff"/><circle cx="534.3" cy="36.0" r="3" fill="#4aa3ff"/><circle cx="536.9" cy="36.0" r="3" fill="#4aa3ff"/><circle cx="539.4" cy="36.0" r="3" fill="#4aa3ff"/><circle cx="542.0" cy="36.0" r="3" fill="#4aa3ff"/><circle cx="544.5" cy="36.0" r="3" fill="#4aa3ff"/><circle cx="547.0" cy="36.0" r="3" fill="#4aa3ff"/><circle cx="549.6" cy="36.0" r="3" fill="#4aa3ff"/><circle cx="552.1" cy="36.0" r="3" fill="#4aa3ff"/><circle cx="554.7" cy="36.0" r="3" fill="#4aa3ff"/><circle cx="557.2" cy="36.0" r="3" fill="#4aa3ff"/><circle cx="559.8" cy="36.0" r="3" fill="#4aa3ff"/><circle cx="562.3" cy="36.0" r="3" fill="#4aa3ff"/><circle cx="564.8" cy="36.0" r="3" fill="#4aa3ff"/><circle cx="567.4" cy="36.0" r="3" fill="#4aa3ff"/><circle cx="569.9" cy="36.0" r="3" fill="#4aa3ff"/><circle cx="572.5" cy="36.0" r="3" fill="#4aa3ff"/><circle cx="575.0" cy="36.0" r="3" fill="#4aa3ff"/><circle cx="577.6" cy="36.0" r="3" fill="#4aa3ff"/><circle cx="580.1" cy="36.0" r="3" fill="#4aa3ff"/><circle cx="582.6" cy="36.0" r="3" fill="#4aa3ff"/><circle cx="585.2" cy="36.0" r="3" fill="#4aa3ff"/><circle cx="587.7" cy="36.0" r="3" fill="#4aa3ff"/><circle cx="590.3" cy="36.0" r="3" fill="#4aa3ff"/><circle cx="592.8" cy="36.0" r="3" fill="#4aa3ff"/><circle cx="595.4" cy="36.0" r="3" fill="#4aa3ff"/><circle cx="597.9" cy="36.0" r="3" fill="#4aa3ff"/><circle cx="600.4" cy="36.0" r="3" fill="#4aa3ff"/><circle cx="603.0" cy="36.0" r="3" fill="#4aa3ff"/><circle cx="605.5" cy="36.0" r="3" fill="#4aa3ff"/><circle cx="608.1" cy="36.0" r="3" fill="#4aa3ff"/><circle cx="610.6" cy="36.0" r="3" fill="#4aa3ff"/><circle cx="613.1" cy="36.0" r="3" fill="#4aa3ff"/><circle cx="615.7" cy="36.0" r="3" fill="#4aa3ff"/><circle cx="618.2" cy="36.0" r="3" fill="#4aa3ff"/><circle cx="620.8" cy="36.0" r="3" fill="#4aa3ff"/><circle cx="623.3" cy="36.0" r="3" fill="#4aa3ff"/><circle cx="625.9" cy="36.0" r="3" fill="#4aa3ff"/><circle cx="628.4" cy="36.0" r="3" fill="#4aa3ff"/><circle cx="630.9" cy="36.0" r="3" fill="#4aa3ff"/><circle cx="633.5" cy="36.0" r="3" fill="#4aa3ff"/><circle cx="636.0" cy="36.0" r="3" fill="#4aa3ff"/><circle cx="638.6" cy="36.0" r="3" fill="#4aa3ff"/><circle cx="641.1" cy="36.0" r="3" fill="#4aa3ff"/><circle cx="643.7" cy="36.0" r="3" fill="#4aa3ff"/><circle cx="646.2" cy="36.0" r="3" fill="#4aa3ff"/><circle cx="648.7" cy="36.0" r="3" fill="#4aa3ff"/><circle cx="651.3" cy="36.0" r="3" fill="#4aa3ff"/><circle cx="653.8" cy="36.0" r="3" fill="#4aa3ff"/><circle cx="656.4" cy="36.0" r="3" fill="#4aa3ff"/><circle cx="658.9" cy="36.0" r="3" fill="#4aa3ff"/><circle cx="661.5" cy="36.0" r="3" fill="#4aa3ff"/><circle cx="664.0" cy="36.0" r="3" fill="#4aa3ff"/>
<text x="36" y="225" fill="#6b7280" font-size="11">2026-06-26</text>
<text x="664" y="225" fill="#6b7280" font-size="11" text-anchor="end">2026-07-20</text>
<text x="36" y="212" font-family="system-ui,sans-serif" font-size="11">
<tspan fill="#4aa3ff">&#9679; open FPs</tspan>  <tspan fill="#3fb950">&#9679; closed (Anthropic acting)</tspan>  <tspan fill="#8a5a5a">&#9679; harness withdrawn</tspan></text>
<text x="664" y="22" text-anchor="end" font-family="system-ui,sans-serif" font-size="12">
<tspan fill="#4aa3ff">open 800</tspan>  <tspan fill="#3fb950">closed 0</tspan>  <tspan fill="#8a5a5a">harness 0</tspan></text>
</svg>