<svg xmlns="http://www.w3.org/2000/svg" width="700" height="234" viewBox="0 0 700 234" role="img">
<rect width="700" height="234" rx="12" fill="#16181d"/>
<text x="36" y="22" fill="#e8eaed" font-family="system-ui,sans-serif" font-size="14" font-weight="700">Is Anthropic acting? cyber/aup false positives over time</text>
<line x1="36" y1="198.0" x2="664" y2="198.0" stroke="#2a2e37" stroke-width="1"/><text x="30" y="202.0" fill="#6b7280" font-size="11" text-anchor="end">0</text><line x1="36" y1="117.0" x2="664" y2="117.0" stroke="#2a2e37" stroke-width="1"/><text x="30" y="121.0" fill="#6b7280" font-size="11" text-anchor="end">283</text><line x1="36" y1="36.0" x2="664" y2="36.0" stroke="#2a2e37" stroke-width="1"/><text x="30" y="40.0" fill="#6b7280" font-size="11" text-anchor="end">566</text>

<polyline fill="none" stroke="#8a5a5a" stroke-width="2.5" stroke-linejoin="round" points="36.0,123.3 43.7,123.3 51.3,123.3 59.0,123.3 66.6,123.3 74.3,123.3 82.0,123.3 89.6,123.3 97.3,123.3 104.9,123.3 112.6,123.3 120.2,123.3 127.9,123.3 135.6,123.3 143.2,123.3 150.9,123.3 158.5,123.3 166.2,123.3 173.9,123.3 181.5,123.3 189.2,123.3 196.8,123.3 204.5,123.3 212.1,123.3 219.8,123.3 227.5,123.3 235.1,123.3 242.8,123.3 250.4,123.3 258.1,123.3 265.8,123.3 273.4,123.3 281.1,123.3 288.7,123.3 296.4,123.3 304.0,123.3 311.7,123.3 319.4,123.3 327.0,123.3 334.7,123.3 342.3,123.3 350.0,123.3 357.7,123.3 365.3,123.3 373.0,123.3 380.6,123.3 388.3,123.3 396.0,123.3 403.6,123.3 411.3,123.3 418.9,138.2 426.6,138.2 434.2,138.2 441.9,138.2 449.6,138.2 457.2,138.2 464.9,138.2 472.5,138.2 480.2,138.2 487.9,138.2 495.5,138.2 503.2,138.2 510.8,138.2 518.5,138.2 526.1,138.2 533.8,138.2 541.5,138.2 549.1,138.2 556.8,138.2 564.4,138.2 572.1,138.2 579.8,138.2 587.4,138.2 595.1,138.2 602.7,138.2 610.4,138.2 618.0,138.2 625.7,138.2 633.4,138.2 641.0,138.2 648.7,138.2 656.3,138.2 664.0,138.2"/><circle cx="36.0" cy="123.3" r="3" fill="#8a5a5a"/><circle cx="43.7" cy="123.3" r="3" fill="#8a5a5a"/><circle cx="51.3" cy="123.3" r="3" fill="#8a5a5a"/><circle cx="59.0" cy="123.3" r="3" fill="#8a5a5a"/><circle cx="66.6" cy="123.3" r="3" fill="#8a5a5a"/><circle cx="74.3" cy="123.3" r="3" fill="#8a5a5a"/><circle cx="82.0" cy="123.3" r="3" fill="#8a5a5a"/><circle cx="89.6" cy="123.3" r="3" fill="#8a5a5a"/><circle cx="97.3" cy="123.3" r="3" fill="#8a5a5a"/><circle cx="104.9" cy="123.3" r="3" fill="#8a5a5a"/><circle cx="112.6" cy="123.3" r="3" fill="#8a5a5a"/><circle cx="120.2" cy="123.3" r="3" fill="#8a5a5a"/><circle cx="127.9" cy="123.3" r="3" fill="#8a5a5a"/><circle cx="135.6" cy="123.3" r="3" fill="#8a5a5a"/><circle cx="143.2" cy="123.3" r="3" fill="#8a5a5a"/><circle cx="150.9" cy="123.3" r="3" fill="#8a5a5a"/><circle cx="158.5" cy="123.3" r="3" fill="#8a5a5a"/><circle cx="166.2" cy="123.3" r="3" fill="#8a5a5a"/><circle cx="173.9" cy="123.3" r="3" fill="#8a5a5a"/><circle cx="181.5" cy="123.3" r="3" fill="#8a5a5a"/><circle cx="189.2" cy="123.3" r="3" fill="#8a5a5a"/><circle cx="196.8" cy="123.3" r="3" fill="#8a5a5a"/><circle cx="204.5" cy="123.3" r="3" fill="#8a5a5a"/><circle cx="212.1" cy="123.3" r="3" fill="#8a5a5a"/><circle cx="219.8" cy="123.3" r="3" fill="#8a5a5a"/><circle cx="227.5" cy="123.3" r="3" fill="#8a5a5a"/><circle cx="235.1" cy="123.3" r="3" fill="#8a5a5a"/><circle cx="242.8" cy="123.3" r="3" fill="#8a5a5a"/><circle cx="250.4" cy="123.3" r="3" fill="#8a5a5a"/><circle cx="258.1" cy="123.3" r="3" fill="#8a5a5a"/><circle cx="265.8" cy="123.3" r="3" fill="#8a5a5a"/><circle cx="273.4" cy="123.3" r="3" fill="#8a5a5a"/><circle cx="281.1" cy="123.3" r="3" fill="#8a5a5a"/><circle cx="288.7" cy="123.3" r="3" fill="#8a5a5a"/><circle cx="296.4" cy="123.3" r="3" fill="#8a5a5a"/><circle cx="304.0" cy="123.3" r="3" fill="#8a5a5a"/><circle cx="311.7" cy="123.3" r="3" fill="#8a5a5a"/><circle cx="319.4" cy="123.3" r="3" fill="#8a5a5a"/><circle cx="327.0" cy="123.3" r="3" fill="#8a5a5a"/><circle cx="334.7" cy="123.3" r="3" fill="#8a5a5a"/><circle cx="342.3" cy="123.3" r="3" fill="#8a5a5a"/><circle cx="350.0" cy="123.3" r="3" fill="#8a5a5a"/><circle cx="357.7" cy="123.3" r="3" fill="#8a5a5a"/><circle cx="365.3" cy="123.3" r="3" fill="#8a5a5a"/><circle cx="373.0" cy="123.3" r="3" fill="#8a5a5a"/><circle cx="380.6" cy="123.3" r="3" fill="#8a5a5a"/><circle cx="388.3" cy="123.3" r="3" fill="#8a5a5a"/><circle cx="396.0" cy="123.3" r="3" fill="#8a5a5a"/><circle cx="403.6" cy="123.3" r="3" fill="#8a5a5a"/><circle cx="411.3" cy="123.3" r="3" fill="#8a5a5a"/><circle cx="418.9" cy="138.2" r="3" fill="#8a5a5a"/><circle cx="426.6" cy="138.2" r="3" fill="#8a5a5a"/><circle cx="434.2" cy="138.2" r="3" fill="#8a5a5a"/><circle cx="441.9" cy="138.2" r="3" fill="#8a5a5a"/><circle cx="449.6" cy="138.2" r="3" fill="#8a5a5a"/><circle cx="457.2" cy="138.2" r="3" fill="#8a5a5a"/><circle cx="464.9" cy="138.2" r="3" fill="#8a5a5a"/><circle cx="472.5" cy="138.2" r="3" fill="#8a5a5a"/><circle cx="480.2" cy="138.2" r="3" fill="#8a5a5a"/><circle cx="487.9" cy="138.2" r="3" fill="#8a5a5a"/><circle cx="495.5" cy="138.2" r="3" fill="#8a5a5a"/><circle cx="503.2" cy="138.2" r="3" fill="#8a5a5a"/><circle cx="510.8" cy="138.2" r="3" fill="#8a5a5a"/><circle cx="518.5" cy="138.2" r="3" fill="#8a5a5a"/><circle cx="526.1" cy="138.2" r="3" fill="#8a5a5a"/><circle cx="533.8" cy="138.2" r="3" fill="#8a5a5a"/><circle cx="541.5" cy="138.2" r="3" fill="#8a5a5a"/><circle cx="549.1" cy="138.2" r="3" fill="#8a5a5a"/><circle cx="556.8" cy="138.2" r="3" fill="#8a5a5a"/><circle cx="564.4" cy="138.2" r="3" fill="#8a5a5a"/><circle cx="572.1" cy="138.2" r="3" fill="#8a5a5a"/><circle cx="579.8" cy="138.2" r="3" fill="#8a5a5a"/><circle cx="587.4" cy="138.2" r="3" fill="#8a5a5a"/><circle cx="595.1" cy="138.2" r="3" fill="#8a5a5a"/><circle cx="602.7" cy="138.2" r="3" fill="#8a5a5a"/><circle cx="610.4" cy="138.2" r="3" fill="#8a5a5a"/><circle cx="618.0" cy="138.2" r="3" fill="#8a5a5a"/><circle cx="625.7" cy="138.2" r="3" fill="#8a5a5a"/><circle cx="633.4" cy="138.2" r="3" fill="#8a5a5a"/><circle cx="641.0" cy="138.2" r="3" fill="#8a5a5a"/><circle cx="648.7" cy="138.2" r="3" fill="#8a5a5a"/><circle cx="656.3" cy="138.2" r="3" fill="#8a5a5a"/><circle cx="664.0" cy="138.2" r="3" fill="#8a5a5a"/>
<polyline fill="none" stroke="#3fb950" stroke-width="2.5" stroke-linejoin="round" points="36.0,198.0 43.7,198.0 51.3,198.0 59.0,198.0 66.6,198.0 74.3,198.0 82.0,198.0 89.6,198.0 97.3,198.0 104.9,198.0 112.6,198.0 120.2,198.0 127.9,198.0 135.6,198.0 143.2,198.0 150.9,198.0 158.5,198.0 166.2,198.0 173.9,198.0 181.5,198.0 189.2,198.0 196.8,198.0 204.5,198.0 212.1,198.0 219.8,198.0 227.5,198.0 235.1,198.0 242.8,198.0 250.4,198.0 258.1,198.0 265.8,198.0 273.4,198.0 281.1,198.0 288.7,198.0 296.4,198.0 304.0,198.0 311.7,198.0 319.4,198.0 327.0,198.0 334.7,198.0 342.3,198.0 350.0,198.0 357.7,198.0 365.3,189.1 373.0,189.1 380.6,189.1 388.3,189.1 396.0,189.1 403.6,189.1 411.3,189.1 418.9,190.8 426.6,190.8 434.2,187.7 441.9,187.7 449.6,187.7 457.2,187.7 464.9,187.7 472.5,187.4 480.2,187.4 487.9,187.4 495.5,187.1 503.2,187.1 510.8,187.1 518.5,187.1 526.1,187.1 533.8,187.1 541.5,187.1 549.1,187.1 556.8,187.1 564.4,187.1 572.1,187.1 579.8,187.1 587.4,187.1 595.1,187.1 602.7,187.1 610.4,187.1 618.0,187.1 625.7,187.1 633.4,187.1 641.0,187.1 648.7,187.1 656.3,185.7 664.0,185.7"/><circle cx="36.0" cy="198.0" r="3" fill="#3fb950"/><circle cx="43.7" cy="198.0" r="3" fill="#3fb950"/><circle cx="51.3" cy="198.0" r="3" fill="#3fb950"/><circle cx="59.0" cy="198.0" r="3" fill="#3fb950"/><circle cx="66.6" cy="198.0" r="3" fill="#3fb950"/><circle cx="74.3" cy="198.0" r="3" fill="#3fb950"/><circle cx="82.0" cy="198.0" r="3" fill="#3fb950"/><circle cx="89.6" cy="198.0" r="3" fill="#3fb950"/><circle cx="97.3" cy="198.0" r="3" fill="#3fb950"/><circle cx="104.9" cy="198.0" r="3" fill="#3fb950"/><circle cx="112.6" cy="198.0" r="3" fill="#3fb950"/><circle cx="120.2" cy="198.0" r="3" fill="#3fb950"/><circle cx="127.9" cy="198.0" r="3" fill="#3fb950"/><circle cx="135.6" cy="198.0" r="3" fill="#3fb950"/><circle cx="143.2" cy="198.0" r="3" fill="#3fb950"/><circle cx="150.9" cy="198.0" r="3" fill="#3fb950"/><circle cx="158.5" cy="198.0" r="3" fill="#3fb950"/><circle cx="166.2" cy="198.0" r="3" fill="#3fb950"/><circle cx="173.9" cy="198.0" r="3" fill="#3fb950"/><circle cx="181.5" cy="198.0" r="3" fill="#3fb950"/><circle cx="189.2" cy="198.0" r="3" fill="#3fb950"/><circle cx="196.8" cy="198.0" r="3" fill="#3fb950"/><circle cx="204.5" cy="198.0" r="3" fill="#3fb950"/><circle cx="212.1" cy="198.0" r="3" fill="#3fb950"/><circle cx="219.8" cy="198.0" r="3" fill="#3fb950"/><circle cx="227.5" cy="198.0" r="3" fill="#3fb950"/><circle cx="235.1" cy="198.0" r="3" fill="#3fb950"/><circle cx="242.8" cy="198.0" r="3" fill="#3fb950"/><circle cx="250.4" cy="198.0" r="3" fill="#3fb950"/><circle cx="258.1" cy="198.0" r="3" fill="#3fb950"/><circle cx="265.8" cy="198.0" r="3" fill="#3fb950"/><circle cx="273.4" cy="198.0" r="3" fill="#3fb950"/><circle cx="281.1" cy="198.0" r="3" fill="#3fb950"/><circle cx="288.7" cy="198.0" r="3" fill="#3fb950"/><circle cx="296.4" cy="198.0" r="3" fill="#3fb950"/><circle cx="304.0" cy="198.0" r="3" fill="#3fb950"/><circle cx="311.7" cy="198.0" r="3" fill="#3fb950"/><circle cx="319.4" cy="198.0" r="3" fill="#3fb950"/><circle cx="327.0" cy="198.0" r="3" fill="#3fb950"/><circle cx="334.7" cy="198.0" r="3" fill="#3fb950"/><circle cx="342.3" cy="198.0" r="3" fill="#3fb950"/><circle cx="350.0" cy="198.0" r="3" fill="#3fb950"/><circle cx="357.7" cy="198.0" r="3" fill="#3fb950"/><circle cx="365.3" cy="189.1" r="3" fill="#3fb950"/><circle cx="373.0" cy="189.1" r="3" fill="#3fb950"/><circle cx="380.6" cy="189.1" r="3" fill="#3fb950"/><circle cx="388.3" cy="189.1" r="3" fill="#3fb950"/><circle cx="396.0" cy="189.1" r="3" fill="#3fb950"/><circle cx="403.6" cy="189.1" r="3" fill="#3fb950"/><circle cx="411.3" cy="189.1" r="3" fill="#3fb950"/><circle cx="418.9" cy="190.8" r="3" fill="#3fb950"/><circle cx="426.6" cy="190.8" r="3" fill="#3fb950"/><circle cx="434.2" cy="187.7" r="3" fill="#3fb950"/><circle cx="441.9" cy="187.7" r="3" fill="#3fb950"/><circle cx="449.6" cy="187.7" r="3" fill="#3fb950"/><circle cx="457.2" cy="187.7" r="3" fill="#3fb950"/><circle cx="464.9" cy="187.7" r="3" fill="#3fb950"/><circle cx="472.5" cy="187.4" r="3" fill="#3fb950"/><circle cx="480.2" cy="187.4" r="3" fill="#3fb950"/><circle cx="487.9" cy="187.4" r="3" fill="#3fb950"/><circle cx="495.5" cy="187.1" r="3" fill="#3fb950"/><circle cx="503.2" cy="187.1" r="3" fill="#3fb950"/><circle cx="510.8" cy="187.1" r="3" fill="#3fb950"/><circle cx="518.5" cy="187.1" r="3" fill="#3fb950"/><circle cx="526.1" cy="187.1" r="3" fill="#3fb950"/><circle cx="533.8" cy="187.1" r="3" fill="#3fb950"/><circle cx="541.5" cy="187.1" r="3" fill="#3fb950"/><circle cx="549.1" cy="187.1" r="3" fill="#3fb950"/><circle cx="556.8" cy="187.1" r="3" fill="#3fb950"/><circle cx="564.4" cy="187.1" r="3" fill="#3fb950"/><circle cx="572.1" cy="187.1" r="3" fill="#3fb950"/><circle cx="579.8" cy="187.1" r="3" fill="#3fb950"/><circle cx="587.4" cy="187.1" r="3" fill="#3fb950"/><circle cx="595.1" cy="187.1" r="3" fill="#3fb950"/><circle cx="602.7" cy="187.1" r="3" fill="#3fb950"/><circle cx="610.4" cy="187.1" r="3" fill="#3fb950"/><circle cx="618.0" cy="187.1" r="3" fill="#3fb950"/><circle cx="625.7" cy="187.1" r="3" fill="#3fb950"/><circle cx="633.4" cy="187.1" r="3" fill="#3fb950"/><circle cx="641.0" cy="187.1" r="3" fill="#3fb950"/><circle cx="648.7" cy="187.1" r="3" fill="#3fb950"/><circle cx="656.3" cy="185.7" r="3" fill="#3fb950"/><circle cx="664.0" cy="185.7" r="3" fill="#3fb950"/>
<polyline fill="none" stroke="#4aa3ff" stroke-width="2.5" stroke-linejoin="round" points="36.0,122.2 43.7,122.2 51.3,122.2 59.0,122.2 66.6,122.2 74.3,122.2 82.0,122.2 89.6,122.2 97.3,122.2 104.9,122.2 112.6,122.2 120.2,122.2 127.9,122.2 135.6,122.2 143.2,122.2 150.9,110.7 158.5,105.3 166.2,101.3 173.9,101.3 181.5,89.2 189.2,89.2 196.8,89.2 204.5,79.8 212.1,79.8 219.8,79.8 227.5,75.5 235.1,74.9 242.8,74.9 250.4,74.4 258.1,74.4 265.8,73.5 273.4,71.8 281.1,69.8 288.7,69.2 296.4,69.2 304.0,69.2 311.7,69.2 319.4,69.2 327.0,69.2 334.7,69.2 342.3,69.2 350.0,69.2 357.7,69.2 365.3,78.1 373.0,78.1 380.6,78.1 388.3,78.1 396.0,78.1 403.6,74.6 411.3,66.9 418.9,36.0 426.6,36.0 434.2,39.1 441.9,39.1 449.6,39.1 457.2,39.1 464.9,39.1 472.5,39.4 480.2,39.4 487.9,39.4 495.5,39.7 503.2,39.7 510.8,39.7 518.5,39.7 526.1,39.7 533.8,39.7 541.5,39.7 549.1,39.7 556.8,39.7 564.4,39.7 572.1,39.7 579.8,39.7 587.4,39.7 595.1,39.7 602.7,39.7 610.4,39.7 618.0,39.7 625.7,39.7 633.4,39.7 641.0,39.7 648.7,39.7 656.3,41.2 664.0,41.2"/><circle cx="36.0" cy="122.2" r="3" fill="#4aa3ff"/><circle cx="43.7" cy="122.2" r="3" fill="#4aa3ff"/><circle cx="51.3" cy="122.2" r="3" fill="#4aa3ff"/><circle cx="59.0" cy="122.2" r="3" fill="#4aa3ff"/><circle cx="66.6" cy="122.2" r="3" fill="#4aa3ff"/><circle cx="74.3" cy="122.2" r="3" fill="#4aa3ff"/><circle cx="82.0" cy="122.2" r="3" fill="#4aa3ff"/><circle cx="89.6" cy="122.2" r="3" fill="#4aa3ff"/><circle cx="97.3" cy="122.2" r="3" fill="#4aa3ff"/><circle cx="104.9" cy="122.2" r="3" fill="#4aa3ff"/><circle cx="112.6" cy="122.2" r="3" fill="#4aa3ff"/><circle cx="120.2" cy="122.2" r="3" fill="#4aa3ff"/><circle cx="127.9" cy="122.2" r="3" fill="#4aa3ff"/><circle cx="135.6" cy="122.2" r="3" fill="#4aa3ff"/><circle cx="143.2" cy="122.2" r="3" fill="#4aa3ff"/><circle cx="150.9" cy="110.7" r="3" fill="#4aa3ff"/><circle cx="158.5" cy="105.3" r="3" fill="#4aa3ff"/><circle cx="166.2" cy="101.3" r="3" fill="#4aa3ff"/><circle cx="173.9" cy="101.3" r="3" fill="#4aa3ff"/><circle cx="181.5" cy="89.2" r="3" fill="#4aa3ff"/><circle cx="189.2" cy="89.2" r="3" fill="#4aa3ff"/><circle cx="196.8" cy="89.2" r="3" fill="#4aa3ff"/><circle cx="204.5" cy="79.8" r="3" fill="#4aa3ff"/><circle cx="212.1" cy="79.8" r="3" fill="#4aa3ff"/><circle cx="219.8" cy="79.8" r="3" fill="#4aa3ff"/><circle cx="227.5" cy="75.5" r="3" fill="#4aa3ff"/><circle cx="235.1" cy="74.9" r="3" fill="#4aa3ff"/><circle cx="242.8" cy="74.9" r="3" fill="#4aa3ff"/><circle cx="250.4" cy="74.4" r="3" fill="#4aa3ff"/><circle cx="258.1" cy="74.4" r="3" fill="#4aa3ff"/><circle cx="265.8" cy="73.5" r="3" fill="#4aa3ff"/><circle cx="273.4" cy="71.8" r="3" fill="#4aa3ff"/><circle cx="281.1" cy="69.8" r="3" fill="#4aa3ff"/><circle cx="288.7" cy="69.2" r="3" fill="#4aa3ff"/><circle cx="296.4" cy="69.2" r="3" fill="#4aa3ff"/><circle cx="304.0" cy="69.2" r="3" fill="#4aa3ff"/><circle cx="311.7" cy="69.2" r="3" fill="#4aa3ff"/><circle cx="319.4" cy="69.2" r="3" fill="#4aa3ff"/><circle cx="327.0" cy="69.2" r="3" fill="#4aa3ff"/><circle cx="334.7" cy="69.2" r="3" fill="#4aa3ff"/><circle cx="342.3" cy="69.2" r="3" fill="#4aa3ff"/><circle cx="350.0" cy="69.2" r="3" fill="#4aa3ff"/><circle cx="357.7" cy="69.2" r="3" fill="#4aa3ff"/><circle cx="365.3" cy="78.1" r="3" fill="#4aa3ff"/><circle cx="373.0" cy="78.1" r="3" fill="#4aa3ff"/><circle cx="380.6" cy="78.1" r="3" fill="#4aa3ff"/><circle cx="388.3" cy="78.1" r="3" fill="#4aa3ff"/><circle cx="396.0" cy="78.1" r="3" fill="#4aa3ff"/><circle cx="403.6" cy="74.6" r="3" fill="#4aa3ff"/><circle cx="411.3" cy="66.9" r="3" fill="#4aa3ff"/><circle cx="418.9" cy="36.0" r="3" fill="#4aa3ff"/><circle cx="426.6" cy="36.0" r="3" fill="#4aa3ff"/><circle cx="434.2" cy="39.1" r="3" fill="#4aa3ff"/><circle cx="441.9" cy="39.1" r="3" fill="#4aa3ff"/><circle cx="449.6" cy="39.1" r="3" fill="#4aa3ff"/><circle cx="457.2" cy="39.1" r="3" fill="#4aa3ff"/><circle cx="464.9" cy="39.1" r="3" fill="#4aa3ff"/><circle cx="472.5" cy="39.4" r="3" fill="#4aa3ff"/><circle cx="480.2" cy="39.4" r="3" fill="#4aa3ff"/><circle cx="487.9" cy="39.4" r="3" fill="#4aa3ff"/><circle cx="495.5" cy="39.7" r="3" fill="#4aa3ff"/><circle cx="503.2" cy="39.7" r="3" fill="#4aa3ff"/><circle cx="510.8" cy="39.7" r="3" fill="#4aa3ff"/><circle cx="518.5" cy="39.7" r="3" fill="#4aa3ff"/><circle cx="526.1" cy="39.7" r="3" fill="#4aa3ff"/><circle cx="533.8" cy="39.7" r="3" fill="#4aa3ff"/><circle cx="541.5" cy="39.7" r="3" fill="#4aa3ff"/><circle cx="549.1" cy="39.7" r="3" fill="#4aa3ff"/><circle cx="556.8" cy="39.7" r="3" fill="#4aa3ff"/><circle cx="564.4" cy="39.7" r="3" fill="#4aa3ff"/><circle cx="572.1" cy="39.7" r="3" fill="#4aa3ff"/><circle cx="579.8" cy="39.7" r="3" fill="#4aa3ff"/><circle cx="587.4" cy="39.7" r="3" fill="#4aa3ff"/><circle cx="595.1" cy="39.7" r="3" fill="#4aa3ff"/><circle cx="602.7" cy="39.7" r="3" fill="#4aa3ff"/><circle cx="610.4" cy="39.7" r="3" fill="#4aa3ff"/><circle cx="618.0" cy="39.7" r="3" fill="#4aa3ff"/><circle cx="625.7" cy="39.7" r="3" fill="#4aa3ff"/><circle cx="633.4" cy="39.7" r="3" fill="#4aa3ff"/><circle cx="641.0" cy="39.7" r="3" fill="#4aa3ff"/><circle cx="648.7" cy="39.7" r="3" fill="#4aa3ff"/><circle cx="656.3" cy="41.2" r="3" fill="#4aa3ff"/><circle cx="664.0" cy="41.2" r="3" fill="#4aa3ff"/>
<text x="36" y="225" fill="#6b7280" font-size="11">2026-06-26</text>
<text x="664" y="225" fill="#6b7280" font-size="11" text-anchor="end">2026-07-05</text>
<text x="36" y="212" font-family="system-ui,sans-serif" font-size="11">
<tspan fill="#4aa3ff">&#9679; open FPs</tspan>  <tspan fill="#3fb950">&#9679; closed (Anthropic acting)</tspan>  <tspan fill="#8a5a5a">&#9679; harness withdrawn</tspan></text>
<text x="664" y="22" text-anchor="end" font-family="system-ui,sans-serif" font-size="12">
<tspan fill="#4aa3ff">open 548</tspan>  <tspan fill="#3fb950">closed 43</tspan>  <tspan fill="#8a5a5a">harness 209</tspan></text>
</svg>