<svg xmlns="http://www.w3.org/2000/svg" width="700" height="234" viewBox="0 0 700 234" role="img">
<rect width="700" height="234" rx="12" fill="#16181d"/>
<text x="36" y="22" fill="#e8eaed" font-family="system-ui,sans-serif" font-size="14" font-weight="700">Is Anthropic acting? cyber/aup false positives over time</text>
<line x1="36" y1="198.0" x2="664" y2="198.0" stroke="#2a2e37" stroke-width="1"/><text x="30" y="202.0" fill="#6b7280" font-size="11" text-anchor="end">0</text><line x1="36" y1="117.0" x2="664" y2="117.0" stroke="#2a2e37" stroke-width="1"/><text x="30" y="121.0" fill="#6b7280" font-size="11" text-anchor="end">400</text><line x1="36" y1="36.0" x2="664" y2="36.0" stroke="#2a2e37" stroke-width="1"/><text x="30" y="40.0" fill="#6b7280" font-size="11" text-anchor="end">800</text>

<polyline fill="none" stroke="#8a5a5a" stroke-width="2.5" stroke-linejoin="round" points="36.0,145.1 40.5,145.1 44.9,145.1 49.4,145.1 53.8,145.1 58.3,145.1 62.7,145.1 67.2,145.1 71.6,145.1 76.1,145.1 80.5,145.1 85.0,145.1 89.4,145.1 93.9,145.1 98.4,145.1 102.8,145.1 107.3,145.1 111.7,145.1 116.2,145.1 120.6,145.1 125.1,145.1 129.5,145.1 134.0,145.1 138.4,145.1 142.9,145.1 147.3,145.1 151.8,145.1 156.3,145.1 160.7,145.1 165.2,145.1 169.6,145.1 174.1,145.1 178.5,145.1 183.0,145.1 187.4,145.1 191.9,145.1 196.3,145.1 200.8,145.1 205.2,145.1 209.7,145.1 214.2,145.1 218.6,145.1 223.1,145.1 227.5,145.1 232.0,145.1 236.4,145.1 240.9,145.1 245.3,145.1 249.8,145.1 254.2,145.1 258.7,155.7 263.1,155.7 267.6,155.7 272.1,155.7 276.5,155.7 281.0,155.7 285.4,155.7 289.9,155.7 294.3,155.7 298.8,155.7 303.2,155.7 307.7,155.7 312.1,155.7 316.6,155.7 321.0,155.7 325.5,155.7 330.0,155.7 334.4,155.7 338.9,155.7 343.3,155.7 347.8,155.7 352.2,155.7 356.7,155.7 361.1,155.7 365.6,155.7 370.0,155.7 374.5,155.7 379.0,155.7 383.4,155.7 387.9,155.7 392.3,155.7 396.8,155.7 401.2,155.7 405.7,155.7 410.1,167.6 414.6,167.6 419.0,170.3 423.5,170.3 427.9,170.5 432.4,170.7 436.9,170.7 441.3,170.9 445.8,172.7 450.2,180.6 454.7,181.8 459.1,189.1 463.6,190.5 468.0,195.2 472.5,198.0 476.9,198.0 481.4,198.0 485.8,198.0 490.3,198.0 494.8,198.0 499.2,198.0 503.7,198.0 508.1,198.0 512.6,198.0 517.0,198.0 521.5,198.0 525.9,198.0 530.4,198.0 534.8,198.0 539.3,198.0 543.7,198.0 548.2,198.0 552.7,198.0 557.1,198.0 561.6,198.0 566.0,198.0 570.5,198.0 574.9,198.0 579.4,198.0 583.8,198.0 588.3,198.0 592.7,198.0 597.2,198.0 601.6,198.0 606.1,198.0 610.6,198.0 615.0,198.0 619.5,198.0 623.9,198.0 628.4,198.0 632.8,198.0 637.3,198.0 641.7,198.0 646.2,198.0 650.6,198.0 655.1,198.0 659.5,198.0 664.0,198.0"/><circle cx="36.0" cy="145.1" r="3" fill="#8a5a5a"/><circle cx="40.5" cy="145.1" r="3" fill="#8a5a5a"/><circle cx="44.9" cy="145.1" r="3" fill="#8a5a5a"/><circle cx="49.4" cy="145.1" r="3" fill="#8a5a5a"/><circle cx="53.8" cy="145.1" r="3" fill="#8a5a5a"/><circle cx="58.3" cy="145.1" r="3" fill="#8a5a5a"/><circle cx="62.7" cy="145.1" r="3" fill="#8a5a5a"/><circle cx="67.2" cy="145.1" r="3" fill="#8a5a5a"/><circle cx="71.6" cy="145.1" r="3" fill="#8a5a5a"/><circle cx="76.1" cy="145.1" r="3" fill="#8a5a5a"/><circle cx="80.5" cy="145.1" r="3" fill="#8a5a5a"/><circle cx="85.0" cy="145.1" r="3" fill="#8a5a5a"/><circle cx="89.4" cy="145.1" r="3" fill="#8a5a5a"/><circle cx="93.9" cy="145.1" r="3" fill="#8a5a5a"/><circle cx="98.4" cy="145.1" r="3" fill="#8a5a5a"/><circle cx="102.8" cy="145.1" r="3" fill="#8a5a5a"/><circle cx="107.3" cy="145.1" r="3" fill="#8a5a5a"/><circle cx="111.7" cy="145.1" r="3" fill="#8a5a5a"/><circle cx="116.2" cy="145.1" r="3" fill="#8a5a5a"/><circle cx="120.6" cy="145.1" r="3" fill="#8a5a5a"/><circle cx="125.1" cy="145.1" r="3" fill="#8a5a5a"/><circle cx="129.5" cy="145.1" r="3" fill="#8a5a5a"/><circle cx="134.0" cy="145.1" r="3" fill="#8a5a5a"/><circle cx="138.4" cy="145.1" r="3" fill="#8a5a5a"/><circle cx="142.9" cy="145.1" r="3" fill="#8a5a5a"/><circle cx="147.3" cy="145.1" r="3" fill="#8a5a5a"/><circle cx="151.8" cy="145.1" r="3" fill="#8a5a5a"/><circle cx="156.3" cy="145.1" r="3" fill="#8a5a5a"/><circle cx="160.7" cy="145.1" r="3" fill="#8a5a5a"/><circle cx="165.2" cy="145.1" r="3" fill="#8a5a5a"/><circle cx="169.6" cy="145.1" r="3" fill="#8a5a5a"/><circle cx="174.1" cy="145.1" r="3" fill="#8a5a5a"/><circle cx="178.5" cy="145.1" r="3" fill="#8a5a5a"/><circle cx="183.0" cy="145.1" r="3" fill="#8a5a5a"/><circle cx="187.4" cy="145.1" r="3" fill="#8a5a5a"/><circle cx="191.9" cy="145.1" r="3" fill="#8a5a5a"/><circle cx="196.3" cy="145.1" r="3" fill="#8a5a5a"/><circle cx="200.8" cy="145.1" r="3" fill="#8a5a5a"/><circle cx="205.2" cy="145.1" r="3" fill="#8a5a5a"/><circle cx="209.7" cy="145.1" r="3" fill="#8a5a5a"/><circle cx="214.2" cy="145.1" r="3" fill="#8a5a5a"/><circle cx="218.6" cy="145.1" r="3" fill="#8a5a5a"/><circle cx="223.1" cy="145.1" r="3" fill="#8a5a5a"/><circle cx="227.5" cy="145.1" r="3" fill="#8a5a5a"/><circle cx="232.0" cy="145.1" r="3" fill="#8a5a5a"/><circle cx="236.4" cy="145.1" r="3" fill="#8a5a5a"/><circle cx="240.9" cy="145.1" r="3" fill="#8a5a5a"/><circle cx="245.3" cy="145.1" r="3" fill="#8a5a5a"/><circle cx="249.8" cy="145.1" r="3" fill="#8a5a5a"/><circle cx="254.2" cy="145.1" r="3" fill="#8a5a5a"/><circle cx="258.7" cy="155.7" r="3" fill="#8a5a5a"/><circle cx="263.1" cy="155.7" r="3" fill="#8a5a5a"/><circle cx="267.6" cy="155.7" r="3" fill="#8a5a5a"/><circle cx="272.1" cy="155.7" r="3" fill="#8a5a5a"/><circle cx="276.5" cy="155.7" r="3" fill="#8a5a5a"/><circle cx="281.0" cy="155.7" r="3" fill="#8a5a5a"/><circle cx="285.4" cy="155.7" r="3" fill="#8a5a5a"/><circle cx="289.9" cy="155.7" r="3" fill="#8a5a5a"/><circle cx="294.3" cy="155.7" r="3" fill="#8a5a5a"/><circle cx="298.8" cy="155.7" r="3" fill="#8a5a5a"/><circle cx="303.2" cy="155.7" r="3" fill="#8a5a5a"/><circle cx="307.7" cy="155.7" r="3" fill="#8a5a5a"/><circle cx="312.1" cy="155.7" r="3" fill="#8a5a5a"/><circle cx="316.6" cy="155.7" r="3" fill="#8a5a5a"/><circle cx="321.0" cy="155.7" r="3" fill="#8a5a5a"/><circle cx="325.5" cy="155.7" r="3" fill="#8a5a5a"/><circle cx="330.0" cy="155.7" r="3" fill="#8a5a5a"/><circle cx="334.4" cy="155.7" r="3" fill="#8a5a5a"/><circle cx="338.9" cy="155.7" r="3" fill="#8a5a5a"/><circle cx="343.3" cy="155.7" r="3" fill="#8a5a5a"/><circle cx="347.8" cy="155.7" r="3" fill="#8a5a5a"/><circle cx="352.2" cy="155.7" r="3" fill="#8a5a5a"/><circle cx="356.7" cy="155.7" r="3" fill="#8a5a5a"/><circle cx="361.1" cy="155.7" r="3" fill="#8a5a5a"/><circle cx="365.6" cy="155.7" r="3" fill="#8a5a5a"/><circle cx="370.0" cy="155.7" r="3" fill="#8a5a5a"/><circle cx="374.5" cy="155.7" r="3" fill="#8a5a5a"/><circle cx="379.0" cy="155.7" r="3" fill="#8a5a5a"/><circle cx="383.4" cy="155.7" r="3" fill="#8a5a5a"/><circle cx="387.9" cy="155.7" r="3" fill="#8a5a5a"/><circle cx="392.3" cy="155.7" r="3" fill="#8a5a5a"/><circle cx="396.8" cy="155.7" r="3" fill="#8a5a5a"/><circle cx="401.2" cy="155.7" r="3" fill="#8a5a5a"/><circle cx="405.7" cy="155.7" r="3" fill="#8a5a5a"/><circle cx="410.1" cy="167.6" r="3" fill="#8a5a5a"/><circle cx="414.6" cy="167.6" r="3" fill="#8a5a5a"/><circle cx="419.0" cy="170.3" r="3" fill="#8a5a5a"/><circle cx="423.5" cy="170.3" r="3" fill="#8a5a5a"/><circle cx="427.9" cy="170.5" r="3" fill="#8a5a5a"/><circle cx="432.4" cy="170.7" r="3" fill="#8a5a5a"/><circle cx="436.9" cy="170.7" r="3" fill="#8a5a5a"/><circle cx="441.3" cy="170.9" r="3" fill="#8a5a5a"/><circle cx="445.8" cy="172.7" r="3" fill="#8a5a5a"/><circle cx="450.2" cy="180.6" r="3" fill="#8a5a5a"/><circle cx="454.7" cy="181.8" r="3" fill="#8a5a5a"/><circle cx="459.1" cy="189.1" r="3" fill="#8a5a5a"/><circle cx="463.6" cy="190.5" r="3" fill="#8a5a5a"/><circle cx="468.0" cy="195.2" r="3" fill="#8a5a5a"/><circle cx="472.5" cy="198.0" r="3" fill="#8a5a5a"/><circle cx="476.9" cy="198.0" r="3" fill="#8a5a5a"/><circle cx="481.4" cy="198.0" r="3" fill="#8a5a5a"/><circle cx="485.8" cy="198.0" r="3" fill="#8a5a5a"/><circle cx="490.3" cy="198.0" r="3" fill="#8a5a5a"/><circle cx="494.8" cy="198.0" r="3" fill="#8a5a5a"/><circle cx="499.2" cy="198.0" r="3" fill="#8a5a5a"/><circle cx="503.7" cy="198.0" r="3" fill="#8a5a5a"/><circle cx="508.1" cy="198.0" r="3" fill="#8a5a5a"/><circle cx="512.6" cy="198.0" r="3" fill="#8a5a5a"/><circle cx="517.0" cy="198.0" r="3" fill="#8a5a5a"/><circle cx="521.5" cy="198.0" r="3" fill="#8a5a5a"/><circle cx="525.9" cy="198.0" r="3" fill="#8a5a5a"/><circle cx="530.4" cy="198.0" r="3" fill="#8a5a5a"/><circle cx="534.8" cy="198.0" r="3" fill="#8a5a5a"/><circle cx="539.3" cy="198.0" r="3" fill="#8a5a5a"/><circle cx="543.7" cy="198.0" r="3" fill="#8a5a5a"/><circle cx="548.2" cy="198.0" r="3" fill="#8a5a5a"/><circle cx="552.7" cy="198.0" r="3" fill="#8a5a5a"/><circle cx="557.1" cy="198.0" r="3" fill="#8a5a5a"/><circle cx="561.6" cy="198.0" r="3" fill="#8a5a5a"/><circle cx="566.0" cy="198.0" r="3" fill="#8a5a5a"/><circle cx="570.5" cy="198.0" r="3" fill="#8a5a5a"/><circle cx="574.9" cy="198.0" r="3" fill="#8a5a5a"/><circle cx="579.4" cy="198.0" r="3" fill="#8a5a5a"/><circle cx="583.8" cy="198.0" r="3" fill="#8a5a5a"/><circle cx="588.3" cy="198.0" r="3" fill="#8a5a5a"/><circle cx="592.7" cy="198.0" r="3" fill="#8a5a5a"/><circle cx="597.2" cy="198.0" r="3" fill="#8a5a5a"/><circle cx="601.6" cy="198.0" r="3" fill="#8a5a5a"/><circle cx="606.1" cy="198.0" r="3" fill="#8a5a5a"/><circle cx="610.6" cy="198.0" r="3" fill="#8a5a5a"/><circle cx="615.0" cy="198.0" r="3" fill="#8a5a5a"/><circle cx="619.5" cy="198.0" r="3" fill="#8a5a5a"/><circle cx="623.9" cy="198.0" r="3" fill="#8a5a5a"/><circle cx="628.4" cy="198.0" r="3" fill="#8a5a5a"/><circle cx="632.8" cy="198.0" r="3" fill="#8a5a5a"/><circle cx="637.3" cy="198.0" r="3" fill="#8a5a5a"/><circle cx="641.7" cy="198.0" r="3" fill="#8a5a5a"/><circle cx="646.2" cy="198.0" r="3" fill="#8a5a5a"/><circle cx="650.6" cy="198.0" r="3" fill="#8a5a5a"/><circle cx="655.1" cy="198.0" r="3" fill="#8a5a5a"/><circle cx="659.5" cy="198.0" r="3" fill="#8a5a5a"/><circle cx="664.0" cy="198.0" r="3" fill="#8a5a5a"/>
<polyline fill="none" stroke="#3fb950" stroke-width="2.5" stroke-linejoin="round" points="36.0,198.0 40.5,198.0 44.9,198.0 49.4,198.0 53.8,198.0 58.3,198.0 62.7,198.0 67.2,198.0 71.6,198.0 76.1,198.0 80.5,198.0 85.0,198.0 89.4,198.0 93.9,198.0 98.4,198.0 102.8,198.0 107.3,198.0 111.7,198.0 116.2,198.0 120.6,198.0 125.1,198.0 129.5,198.0 134.0,198.0 138.4,198.0 142.9,198.0 147.3,198.0 151.8,198.0 156.3,198.0 160.7,198.0 165.2,198.0 169.6,198.0 174.1,198.0 178.5,198.0 183.0,198.0 187.4,198.0 191.9,198.0 196.3,198.0 200.8,198.0 205.2,198.0 209.7,198.0 214.2,198.0 218.6,198.0 223.1,198.0 227.5,191.7 232.0,191.7 236.4,191.7 240.9,191.7 245.3,191.7 249.8,191.7 254.2,191.7 258.7,192.9 263.1,192.9 267.6,190.7 272.1,190.7 276.5,190.7 281.0,190.7 285.4,190.7 289.9,190.5 294.3,190.5 298.8,190.5 303.2,190.3 307.7,190.3 312.1,190.3 316.6,190.3 321.0,190.3 325.5,190.3 330.0,190.3 334.4,190.3 338.9,190.3 343.3,190.3 347.8,190.3 352.2,190.3 356.7,190.3 361.1,190.3 365.6,190.3 370.0,190.3 374.5,190.3 379.0,190.3 383.4,190.3 387.9,190.3 392.3,190.3 396.8,189.3 401.2,189.3 405.7,189.3 410.1,190.7 414.6,190.7 419.0,190.7 423.5,190.7 427.9,190.7 432.4,190.7 436.9,190.7 441.3,190.7 445.8,190.7 450.2,190.9 454.7,190.9 459.1,190.9 463.6,194.2 468.0,196.8 472.5,198.0 476.9,198.0 481.4,198.0 485.8,198.0 490.3,198.0 494.8,198.0 499.2,198.0 503.7,198.0 508.1,198.0 512.6,198.0 517.0,198.0 521.5,198.0 525.9,198.0 530.4,198.0 534.8,198.0 539.3,198.0 543.7,198.0 548.2,198.0 552.7,198.0 557.1,198.0 561.6,198.0 566.0,198.0 570.5,198.0 574.9,198.0 579.4,198.0 583.8,198.0 588.3,198.0 592.7,198.0 597.2,198.0 601.6,198.0 606.1,198.0 610.6,198.0 615.0,198.0 619.5,198.0 623.9,198.0 628.4,198.0 632.8,198.0 637.3,198.0 641.7,198.0 646.2,198.0 650.6,198.0 655.1,198.0 659.5,198.0 664.0,198.0"/><circle cx="36.0" cy="198.0" r="3" fill="#3fb950"/><circle cx="40.5" cy="198.0" r="3" fill="#3fb950"/><circle cx="44.9" cy="198.0" r="3" fill="#3fb950"/><circle cx="49.4" cy="198.0" r="3" fill="#3fb950"/><circle cx="53.8" cy="198.0" r="3" fill="#3fb950"/><circle cx="58.3" cy="198.0" r="3" fill="#3fb950"/><circle cx="62.7" cy="198.0" r="3" fill="#3fb950"/><circle cx="67.2" cy="198.0" r="3" fill="#3fb950"/><circle cx="71.6" cy="198.0" r="3" fill="#3fb950"/><circle cx="76.1" cy="198.0" r="3" fill="#3fb950"/><circle cx="80.5" cy="198.0" r="3" fill="#3fb950"/><circle cx="85.0" cy="198.0" r="3" fill="#3fb950"/><circle cx="89.4" cy="198.0" r="3" fill="#3fb950"/><circle cx="93.9" cy="198.0" r="3" fill="#3fb950"/><circle cx="98.4" cy="198.0" r="3" fill="#3fb950"/><circle cx="102.8" cy="198.0" r="3" fill="#3fb950"/><circle cx="107.3" cy="198.0" r="3" fill="#3fb950"/><circle cx="111.7" cy="198.0" r="3" fill="#3fb950"/><circle cx="116.2" cy="198.0" r="3" fill="#3fb950"/><circle cx="120.6" cy="198.0" r="3" fill="#3fb950"/><circle cx="125.1" cy="198.0" r="3" fill="#3fb950"/><circle cx="129.5" cy="198.0" r="3" fill="#3fb950"/><circle cx="134.0" cy="198.0" r="3" fill="#3fb950"/><circle cx="138.4" cy="198.0" r="3" fill="#3fb950"/><circle cx="142.9" cy="198.0" r="3" fill="#3fb950"/><circle cx="147.3" cy="198.0" r="3" fill="#3fb950"/><circle cx="151.8" cy="198.0" r="3" fill="#3fb950"/><circle cx="156.3" cy="198.0" r="3" fill="#3fb950"/><circle cx="160.7" cy="198.0" r="3" fill="#3fb950"/><circle cx="165.2" cy="198.0" r="3" fill="#3fb950"/><circle cx="169.6" cy="198.0" r="3" fill="#3fb950"/><circle cx="174.1" cy="198.0" r="3" fill="#3fb950"/><circle cx="178.5" cy="198.0" r="3" fill="#3fb950"/><circle cx="183.0" cy="198.0" r="3" fill="#3fb950"/><circle cx="187.4" cy="198.0" r="3" fill="#3fb950"/><circle cx="191.9" cy="198.0" r="3" fill="#3fb950"/><circle cx="196.3" cy="198.0" r="3" fill="#3fb950"/><circle cx="200.8" cy="198.0" r="3" fill="#3fb950"/><circle cx="205.2" cy="198.0" r="3" fill="#3fb950"/><circle cx="209.7" cy="198.0" r="3" fill="#3fb950"/><circle cx="214.2" cy="198.0" r="3" fill="#3fb950"/><circle cx="218.6" cy="198.0" r="3" fill="#3fb950"/><circle cx="223.1" cy="198.0" r="3" fill="#3fb950"/><circle cx="227.5" cy="191.7" r="3" fill="#3fb950"/><circle cx="232.0" cy="191.7" r="3" fill="#3fb950"/><circle cx="236.4" cy="191.7" r="3" fill="#3fb950"/><circle cx="240.9" cy="191.7" r="3" fill="#3fb950"/><circle cx="245.3" cy="191.7" r="3" fill="#3fb950"/><circle cx="249.8" cy="191.7" r="3" fill="#3fb950"/><circle cx="254.2" cy="191.7" r="3" fill="#3fb950"/><circle cx="258.7" cy="192.9" r="3" fill="#3fb950"/><circle cx="263.1" cy="192.9" r="3" fill="#3fb950"/><circle cx="267.6" cy="190.7" r="3" fill="#3fb950"/><circle cx="272.1" cy="190.7" r="3" fill="#3fb950"/><circle cx="276.5" cy="190.7" r="3" fill="#3fb950"/><circle cx="281.0" cy="190.7" r="3" fill="#3fb950"/><circle cx="285.4" cy="190.7" r="3" fill="#3fb950"/><circle cx="289.9" cy="190.5" r="3" fill="#3fb950"/><circle cx="294.3" cy="190.5" r="3" fill="#3fb950"/><circle cx="298.8" cy="190.5" r="3" fill="#3fb950"/><circle cx="303.2" cy="190.3" r="3" fill="#3fb950"/><circle cx="307.7" cy="190.3" r="3" fill="#3fb950"/><circle cx="312.1" cy="190.3" r="3" fill="#3fb950"/><circle cx="316.6" cy="190.3" r="3" fill="#3fb950"/><circle cx="321.0" cy="190.3" r="3" fill="#3fb950"/><circle cx="325.5" cy="190.3" r="3" fill="#3fb950"/><circle cx="330.0" cy="190.3" r="3" fill="#3fb950"/><circle cx="334.4" cy="190.3" r="3" fill="#3fb950"/><circle cx="338.9" cy="190.3" r="3" fill="#3fb950"/><circle cx="343.3" cy="190.3" r="3" fill="#3fb950"/><circle cx="347.8" cy="190.3" r="3" fill="#3fb950"/><circle cx="352.2" cy="190.3" r="3" fill="#3fb950"/><circle cx="356.7" cy="190.3" r="3" fill="#3fb950"/><circle cx="361.1" cy="190.3" r="3" fill="#3fb950"/><circle cx="365.6" cy="190.3" r="3" fill="#3fb950"/><circle cx="370.0" cy="190.3" r="3" fill="#3fb950"/><circle cx="374.5" cy="190.3" r="3" fill="#3fb950"/><circle cx="379.0" cy="190.3" r="3" fill="#3fb950"/><circle cx="383.4" cy="190.3" r="3" fill="#3fb950"/><circle cx="387.9" cy="190.3" r="3" fill="#3fb950"/><circle cx="392.3" cy="190.3" r="3" fill="#3fb950"/><circle cx="396.8" cy="189.3" r="3" fill="#3fb950"/><circle cx="401.2" cy="189.3" r="3" fill="#3fb950"/><circle cx="405.7" cy="189.3" r="3" fill="#3fb950"/><circle cx="410.1" cy="190.7" r="3" fill="#3fb950"/><circle cx="414.6" cy="190.7" r="3" fill="#3fb950"/><circle cx="419.0" cy="190.7" r="3" fill="#3fb950"/><circle cx="423.5" cy="190.7" r="3" fill="#3fb950"/><circle cx="427.9" cy="190.7" r="3" fill="#3fb950"/><circle cx="432.4" cy="190.7" r="3" fill="#3fb950"/><circle cx="436.9" cy="190.7" r="3" fill="#3fb950"/><circle cx="441.3" cy="190.7" r="3" fill="#3fb950"/><circle cx="445.8" cy="190.7" r="3" fill="#3fb950"/><circle cx="450.2" cy="190.9" r="3" fill="#3fb950"/><circle cx="454.7" cy="190.9" r="3" fill="#3fb950"/><circle cx="459.1" cy="190.9" r="3" fill="#3fb950"/><circle cx="463.6" cy="194.2" r="3" fill="#3fb950"/><circle cx="468.0" cy="196.8" r="3" fill="#3fb950"/><circle cx="472.5" cy="198.0" r="3" fill="#3fb950"/><circle cx="476.9" cy="198.0" r="3" fill="#3fb950"/><circle cx="481.4" cy="198.0" r="3" fill="#3fb950"/><circle cx="485.8" cy="198.0" r="3" fill="#3fb950"/><circle cx="490.3" cy="198.0" r="3" fill="#3fb950"/><circle cx="494.8" cy="198.0" r="3" fill="#3fb950"/><circle cx="499.2" cy="198.0" r="3" fill="#3fb950"/><circle cx="503.7" cy="198.0" r="3" fill="#3fb950"/><circle cx="508.1" cy="198.0" r="3" fill="#3fb950"/><circle cx="512.6" cy="198.0" r="3" fill="#3fb950"/><circle cx="517.0" cy="198.0" r="3" fill="#3fb950"/><circle cx="521.5" cy="198.0" r="3" fill="#3fb950"/><circle cx="525.9" cy="198.0" r="3" fill="#3fb950"/><circle cx="530.4" cy="198.0" r="3" fill="#3fb950"/><circle cx="534.8" cy="198.0" r="3" fill="#3fb950"/><circle cx="539.3" cy="198.0" r="3" fill="#3fb950"/><circle cx="543.7" cy="198.0" r="3" fill="#3fb950"/><circle cx="548.2" cy="198.0" r="3" fill="#3fb950"/><circle cx="552.7" cy="198.0" r="3" fill="#3fb950"/><circle cx="557.1" cy="198.0" r="3" fill="#3fb950"/><circle cx="561.6" cy="198.0" r="3" fill="#3fb950"/><circle cx="566.0" cy="198.0" r="3" fill="#3fb950"/><circle cx="570.5" cy="198.0" r="3" fill="#3fb950"/><circle cx="574.9" cy="198.0" r="3" fill="#3fb950"/><circle cx="579.4" cy="198.0" r="3" fill="#3fb950"/><circle cx="583.8" cy="198.0" r="3" fill="#3fb950"/><circle cx="588.3" cy="198.0" r="3" fill="#3fb950"/><circle cx="592.7" cy="198.0" r="3" fill="#3fb950"/><circle cx="597.2" cy="198.0" r="3" fill="#3fb950"/><circle cx="601.6" cy="198.0" r="3" fill="#3fb950"/><circle cx="606.1" cy="198.0" r="3" fill="#3fb950"/><circle cx="610.6" cy="198.0" r="3" fill="#3fb950"/><circle cx="615.0" cy="198.0" r="3" fill="#3fb950"/><circle cx="619.5" cy="198.0" r="3" fill="#3fb950"/><circle cx="623.9" cy="198.0" r="3" fill="#3fb950"/><circle cx="628.4" cy="198.0" r="3" fill="#3fb950"/><circle cx="632.8" cy="198.0" r="3" fill="#3fb950"/><circle cx="637.3" cy="198.0" r="3" fill="#3fb950"/><circle cx="641.7" cy="198.0" r="3" fill="#3fb950"/><circle cx="646.2" cy="198.0" r="3" fill="#3fb950"/><circle cx="650.6" cy="198.0" r="3" fill="#3fb950"/><circle cx="655.1" cy="198.0" r="3" fill="#3fb950"/><circle cx="659.5" cy="198.0" r="3" fill="#3fb950"/><circle cx="664.0" cy="198.0" r="3" fill="#3fb950"/>
<polyline fill="none" stroke="#4aa3ff" stroke-width="2.5" stroke-linejoin="round" points="36.0,144.3 40.5,144.3 44.9,144.3 49.4,144.3 53.8,144.3 58.3,144.3 62.7,144.3 67.2,144.3 71.6,144.3 76.1,144.3 80.5,144.3 85.0,144.3 89.4,144.3 93.9,144.3 98.4,144.3 102.8,136.2 107.3,132.4 111.7,129.6 116.2,129.6 120.6,121.0 125.1,121.0 129.5,121.0 134.0,114.4 138.4,114.4 142.9,114.4 147.3,111.3 151.8,110.9 156.3,110.9 160.7,110.5 165.2,110.5 169.6,109.9 174.1,108.7 178.5,107.3 183.0,106.9 187.4,106.9 191.9,106.9 196.3,106.9 200.8,106.9 205.2,106.9 209.7,106.9 214.2,106.9 218.6,106.9 223.1,106.9 227.5,113.2 232.0,113.2 236.4,113.2 240.9,113.2 245.3,113.2 249.8,110.7 254.2,105.3 258.7,83.4 263.1,83.4 267.6,85.6 272.1,85.6 276.5,85.6 281.0,85.6 285.4,85.6 289.9,85.8 294.3,85.8 298.8,85.8 303.2,86.0 307.7,86.0 312.1,86.0 316.6,86.0 321.0,86.0 325.5,86.0 330.0,86.0 334.4,86.0 338.9,86.0 343.3,86.0 347.8,86.0 352.2,86.0 356.7,86.0 361.1,86.0 365.6,86.0 370.0,86.0 374.5,86.0 379.0,86.0 383.4,86.0 387.9,86.0 392.3,86.0 396.8,87.0 401.2,87.0 405.7,87.0 410.1,73.7 414.6,73.7 419.0,71.0 423.5,71.0 427.9,70.8 432.4,70.6 436.9,70.6 441.3,70.4 445.8,68.6 450.2,60.5 454.7,59.3 459.1,52.0 463.6,47.3 468.0,40.1 472.5,36.0 476.9,36.0 481.4,36.0 485.8,36.0 490.3,36.0 494.8,36.0 499.2,36.0 503.7,36.0 508.1,36.0 512.6,36.0 517.0,36.0 521.5,36.0 525.9,36.0 530.4,36.0 534.8,36.0 539.3,36.0 543.7,36.0 548.2,36.0 552.7,36.0 557.1,36.0 561.6,36.0 566.0,36.0 570.5,36.0 574.9,36.0 579.4,36.0 583.8,36.0 588.3,36.0 592.7,36.0 597.2,36.0 601.6,36.0 606.1,36.0 610.6,36.0 615.0,36.0 619.5,36.0 623.9,36.0 628.4,36.0 632.8,36.0 637.3,36.0 641.7,36.0 646.2,36.0 650.6,36.0 655.1,36.0 659.5,36.0 664.0,36.0"/><circle cx="36.0" cy="144.3" r="3" fill="#4aa3ff"/><circle cx="40.5" cy="144.3" r="3" fill="#4aa3ff"/><circle cx="44.9" cy="144.3" r="3" fill="#4aa3ff"/><circle cx="49.4" cy="144.3" r="3" fill="#4aa3ff"/><circle cx="53.8" cy="144.3" r="3" fill="#4aa3ff"/><circle cx="58.3" cy="144.3" r="3" fill="#4aa3ff"/><circle cx="62.7" cy="144.3" r="3" fill="#4aa3ff"/><circle cx="67.2" cy="144.3" r="3" fill="#4aa3ff"/><circle cx="71.6" cy="144.3" r="3" fill="#4aa3ff"/><circle cx="76.1" cy="144.3" r="3" fill="#4aa3ff"/><circle cx="80.5" cy="144.3" r="3" fill="#4aa3ff"/><circle cx="85.0" cy="144.3" r="3" fill="#4aa3ff"/><circle cx="89.4" cy="144.3" r="3" fill="#4aa3ff"/><circle cx="93.9" cy="144.3" r="3" fill="#4aa3ff"/><circle cx="98.4" cy="144.3" r="3" fill="#4aa3ff"/><circle cx="102.8" cy="136.2" r="3" fill="#4aa3ff"/><circle cx="107.3" cy="132.4" r="3" fill="#4aa3ff"/><circle cx="111.7" cy="129.6" r="3" fill="#4aa3ff"/><circle cx="116.2" cy="129.6" r="3" fill="#4aa3ff"/><circle cx="120.6" cy="121.0" r="3" fill="#4aa3ff"/><circle cx="125.1" cy="121.0" r="3" fill="#4aa3ff"/><circle cx="129.5" cy="121.0" r="3" fill="#4aa3ff"/><circle cx="134.0" cy="114.4" r="3" fill="#4aa3ff"/><circle cx="138.4" cy="114.4" r="3" fill="#4aa3ff"/><circle cx="142.9" cy="114.4" r="3" fill="#4aa3ff"/><circle cx="147.3" cy="111.3" r="3" fill="#4aa3ff"/><circle cx="151.8" cy="110.9" r="3" fill="#4aa3ff"/><circle cx="156.3" cy="110.9" r="3" fill="#4aa3ff"/><circle cx="160.7" cy="110.5" r="3" fill="#4aa3ff"/><circle cx="165.2" cy="110.5" r="3" fill="#4aa3ff"/><circle cx="169.6" cy="109.9" r="3" fill="#4aa3ff"/><circle cx="174.1" cy="108.7" r="3" fill="#4aa3ff"/><circle cx="178.5" cy="107.3" r="3" fill="#4aa3ff"/><circle cx="183.0" cy="106.9" r="3" fill="#4aa3ff"/><circle cx="187.4" cy="106.9" r="3" fill="#4aa3ff"/><circle cx="191.9" cy="106.9" r="3" fill="#4aa3ff"/><circle cx="196.3" cy="106.9" r="3" fill="#4aa3ff"/><circle cx="200.8" cy="106.9" r="3" fill="#4aa3ff"/><circle cx="205.2" cy="106.9" r="3" fill="#4aa3ff"/><circle cx="209.7" cy="106.9" r="3" fill="#4aa3ff"/><circle cx="214.2" cy="106.9" r="3" fill="#4aa3ff"/><circle cx="218.6" cy="106.9" r="3" fill="#4aa3ff"/><circle cx="223.1" cy="106.9" r="3" fill="#4aa3ff"/><circle cx="227.5" cy="113.2" r="3" fill="#4aa3ff"/><circle cx="232.0" cy="113.2" r="3" fill="#4aa3ff"/><circle cx="236.4" cy="113.2" r="3" fill="#4aa3ff"/><circle cx="240.9" cy="113.2" r="3" fill="#4aa3ff"/><circle cx="245.3" cy="113.2" r="3" fill="#4aa3ff"/><circle cx="249.8" cy="110.7" r="3" fill="#4aa3ff"/><circle cx="254.2" cy="105.3" r="3" fill="#4aa3ff"/><circle cx="258.7" cy="83.4" r="3" fill="#4aa3ff"/><circle cx="263.1" cy="83.4" r="3" fill="#4aa3ff"/><circle cx="267.6" cy="85.6" r="3" fill="#4aa3ff"/><circle cx="272.1" cy="85.6" r="3" fill="#4aa3ff"/><circle cx="276.5" cy="85.6" r="3" fill="#4aa3ff"/><circle cx="281.0" cy="85.6" r="3" fill="#4aa3ff"/><circle cx="285.4" cy="85.6" r="3" fill="#4aa3ff"/><circle cx="289.9" cy="85.8" r="3" fill="#4aa3ff"/><circle cx="294.3" cy="85.8" r="3" fill="#4aa3ff"/><circle cx="298.8" cy="85.8" r="3" fill="#4aa3ff"/><circle cx="303.2" cy="86.0" r="3" fill="#4aa3ff"/><circle cx="307.7" cy="86.0" r="3" fill="#4aa3ff"/><circle cx="312.1" cy="86.0" r="3" fill="#4aa3ff"/><circle cx="316.6" cy="86.0" r="3" fill="#4aa3ff"/><circle cx="321.0" cy="86.0" r="3" fill="#4aa3ff"/><circle cx="325.5" cy="86.0" r="3" fill="#4aa3ff"/><circle cx="330.0" cy="86.0" r="3" fill="#4aa3ff"/><circle cx="334.4" cy="86.0" r="3" fill="#4aa3ff"/><circle cx="338.9" cy="86.0" r="3" fill="#4aa3ff"/><circle cx="343.3" cy="86.0" r="3" fill="#4aa3ff"/><circle cx="347.8" cy="86.0" r="3" fill="#4aa3ff"/><circle cx="352.2" cy="86.0" r="3" fill="#4aa3ff"/><circle cx="356.7" cy="86.0" r="3" fill="#4aa3ff"/><circle cx="361.1" cy="86.0" r="3" fill="#4aa3ff"/><circle cx="365.6" cy="86.0" r="3" fill="#4aa3ff"/><circle cx="370.0" cy="86.0" r="3" fill="#4aa3ff"/><circle cx="374.5" cy="86.0" r="3" fill="#4aa3ff"/><circle cx="379.0" cy="86.0" r="3" fill="#4aa3ff"/><circle cx="383.4" cy="86.0" r="3" fill="#4aa3ff"/><circle cx="387.9" cy="86.0" r="3" fill="#4aa3ff"/><circle cx="392.3" cy="86.0" r="3" fill="#4aa3ff"/><circle cx="396.8" cy="87.0" r="3" fill="#4aa3ff"/><circle cx="401.2" cy="87.0" r="3" fill="#4aa3ff"/><circle cx="405.7" cy="87.0" r="3" fill="#4aa3ff"/><circle cx="410.1" cy="73.7" r="3" fill="#4aa3ff"/><circle cx="414.6" cy="73.7" r="3" fill="#4aa3ff"/><circle cx="419.0" cy="71.0" r="3" fill="#4aa3ff"/><circle cx="423.5" cy="71.0" r="3" fill="#4aa3ff"/><circle cx="427.9" cy="70.8" r="3" fill="#4aa3ff"/><circle cx="432.4" cy="70.6" r="3" fill="#4aa3ff"/><circle cx="436.9" cy="70.6" r="3" fill="#4aa3ff"/><circle cx="441.3" cy="70.4" r="3" fill="#4aa3ff"/><circle cx="445.8" cy="68.6" r="3" fill="#4aa3ff"/><circle cx="450.2" cy="60.5" r="3" fill="#4aa3ff"/><circle cx="454.7" cy="59.3" r="3" fill="#4aa3ff"/><circle cx="459.1" cy="52.0" r="3" fill="#4aa3ff"/><circle cx="463.6" cy="47.3" r="3" fill="#4aa3ff"/><circle cx="468.0" cy="40.1" r="3" fill="#4aa3ff"/><circle cx="472.5" cy="36.0" r="3" fill="#4aa3ff"/><circle cx="476.9" cy="36.0" r="3" fill="#4aa3ff"/><circle cx="481.4" cy="36.0" r="3" fill="#4aa3ff"/><circle cx="485.8" cy="36.0" r="3" fill="#4aa3ff"/><circle cx="490.3" cy="36.0" r="3" fill="#4aa3ff"/><circle cx="494.8" cy="36.0" r="3" fill="#4aa3ff"/><circle cx="499.2" cy="36.0" r="3" fill="#4aa3ff"/><circle cx="503.7" cy="36.0" r="3" fill="#4aa3ff"/><circle cx="508.1" cy="36.0" r="3" fill="#4aa3ff"/><circle cx="512.6" cy="36.0" r="3" fill="#4aa3ff"/><circle cx="517.0" cy="36.0" r="3" fill="#4aa3ff"/><circle cx="521.5" cy="36.0" r="3" fill="#4aa3ff"/><circle cx="525.9" cy="36.0" r="3" fill="#4aa3ff"/><circle cx="530.4" cy="36.0" r="3" fill="#4aa3ff"/><circle cx="534.8" cy="36.0" r="3" fill="#4aa3ff"/><circle cx="539.3" cy="36.0" r="3" fill="#4aa3ff"/><circle cx="543.7" cy="36.0" r="3" fill="#4aa3ff"/><circle cx="548.2" cy="36.0" r="3" fill="#4aa3ff"/><circle cx="552.7" cy="36.0" r="3" fill="#4aa3ff"/><circle cx="557.1" cy="36.0" r="3" fill="#4aa3ff"/><circle cx="561.6" cy="36.0" r="3" fill="#4aa3ff"/><circle cx="566.0" cy="36.0" r="3" fill="#4aa3ff"/><circle cx="570.5" cy="36.0" r="3" fill="#4aa3ff"/><circle cx="574.9" cy="36.0" r="3" fill="#4aa3ff"/><circle cx="579.4" cy="36.0" r="3" fill="#4aa3ff"/><circle cx="583.8" cy="36.0" r="3" fill="#4aa3ff"/><circle cx="588.3" cy="36.0" r="3" fill="#4aa3ff"/><circle cx="592.7" cy="36.0" r="3" fill="#4aa3ff"/><circle cx="597.2" cy="36.0" r="3" fill="#4aa3ff"/><circle cx="601.6" cy="36.0" r="3" fill="#4aa3ff"/><circle cx="606.1" cy="36.0" r="3" fill="#4aa3ff"/><circle cx="610.6" cy="36.0" r="3" fill="#4aa3ff"/><circle cx="615.0" cy="36.0" r="3" fill="#4aa3ff"/><circle cx="619.5" cy="36.0" r="3" fill="#4aa3ff"/><circle cx="623.9" cy="36.0" r="3" fill="#4aa3ff"/><circle cx="628.4" cy="36.0" r="3" fill="#4aa3ff"/><circle cx="632.8" cy="36.0" r="3" fill="#4aa3ff"/><circle cx="637.3" cy="36.0" r="3" fill="#4aa3ff"/><circle cx="641.7" cy="36.0" r="3" fill="#4aa3ff"/><circle cx="646.2" cy="36.0" r="3" fill="#4aa3ff"/><circle cx="650.6" cy="36.0" r="3" fill="#4aa3ff"/><circle cx="655.1" cy="36.0" r="3" fill="#4aa3ff"/><circle cx="659.5" cy="36.0" r="3" fill="#4aa3ff"/><circle cx="664.0" cy="36.0" r="3" fill="#4aa3ff"/>
<text x="36" y="225" fill="#6b7280" font-size="11">2026-06-26</text>
<text x="664" y="225" fill="#6b7280" font-size="11" text-anchor="end">2026-07-11</text>
<text x="36" y="212" font-family="system-ui,sans-serif" font-size="11">
<tspan fill="#4aa3ff">&#9679; open FPs</tspan>  <tspan fill="#3fb950">&#9679; closed (Anthropic acting)</tspan>  <tspan fill="#8a5a5a">&#9679; harness withdrawn</tspan></text>
<text x="664" y="22" text-anchor="end" font-family="system-ui,sans-serif" font-size="12">
<tspan fill="#4aa3ff">open 800</tspan>  <tspan fill="#3fb950">closed 0</tspan>  <tspan fill="#8a5a5a">harness 0</tspan></text>
</svg>