<svg xmlns="http://www.w3.org/2000/svg" width="700" height="234" viewBox="0 0 700 234" role="img">
<rect width="700" height="234" rx="12" fill="#16181d"/>
<text x="36" y="22" fill="#e8eaed" font-family="system-ui,sans-serif" font-size="14" font-weight="700">Is Anthropic acting? cyber/aup false positives over time</text>
<line x1="36" y1="198.0" x2="664" y2="198.0" stroke="#2a2e37" stroke-width="1"/><text x="30" y="202.0" fill="#6b7280" font-size="11" text-anchor="end">0</text><line x1="36" y1="117.0" x2="664" y2="117.0" stroke="#2a2e37" stroke-width="1"/><text x="30" y="121.0" fill="#6b7280" font-size="11" text-anchor="end">190</text><line x1="36" y1="36.0" x2="664" y2="36.0" stroke="#2a2e37" stroke-width="1"/><text x="30" y="40.0" fill="#6b7280" font-size="11" text-anchor="end">380</text>

<polyline fill="none" stroke="#8a5a5a" stroke-width="2.5" stroke-linejoin="round" points="36.0,86.7 69.1,86.7 102.1,86.7 135.2,86.7 168.2,86.7 201.3,86.7 234.3,86.7 267.4,86.7 300.4,86.7 333.5,86.7 366.5,86.7 399.6,86.7 432.6,86.7 465.7,86.7 498.7,86.7 531.8,86.7 564.8,86.7 597.9,86.7 630.9,86.7 664.0,86.7"/><circle cx="36.0" cy="86.7" r="3" fill="#8a5a5a"/><circle cx="69.1" cy="86.7" r="3" fill="#8a5a5a"/><circle cx="102.1" cy="86.7" r="3" fill="#8a5a5a"/><circle cx="135.2" cy="86.7" r="3" fill="#8a5a5a"/><circle cx="168.2" cy="86.7" r="3" fill="#8a5a5a"/><circle cx="201.3" cy="86.7" r="3" fill="#8a5a5a"/><circle cx="234.3" cy="86.7" r="3" fill="#8a5a5a"/><circle cx="267.4" cy="86.7" r="3" fill="#8a5a5a"/><circle cx="300.4" cy="86.7" r="3" fill="#8a5a5a"/><circle cx="333.5" cy="86.7" r="3" fill="#8a5a5a"/><circle cx="366.5" cy="86.7" r="3" fill="#8a5a5a"/><circle cx="399.6" cy="86.7" r="3" fill="#8a5a5a"/><circle cx="432.6" cy="86.7" r="3" fill="#8a5a5a"/><circle cx="465.7" cy="86.7" r="3" fill="#8a5a5a"/><circle cx="498.7" cy="86.7" r="3" fill="#8a5a5a"/><circle cx="531.8" cy="86.7" r="3" fill="#8a5a5a"/><circle cx="564.8" cy="86.7" r="3" fill="#8a5a5a"/><circle cx="597.9" cy="86.7" r="3" fill="#8a5a5a"/><circle cx="630.9" cy="86.7" r="3" fill="#8a5a5a"/><circle cx="664.0" cy="86.7" r="3" fill="#8a5a5a"/>
<polyline fill="none" stroke="#3fb950" stroke-width="2.5" stroke-linejoin="round" points="36.0,198.0 69.1,198.0 102.1,198.0 135.2,198.0 168.2,198.0 201.3,198.0 234.3,198.0 267.4,198.0 300.4,198.0 333.5,198.0 366.5,198.0 399.6,198.0 432.6,198.0 465.7,198.0 498.7,198.0 531.8,198.0 564.8,198.0 597.9,198.0 630.9,198.0 664.0,198.0"/><circle cx="36.0" cy="198.0" r="3" fill="#3fb950"/><circle cx="69.1" cy="198.0" r="3" fill="#3fb950"/><circle cx="102.1" cy="198.0" r="3" fill="#3fb950"/><circle cx="135.2" cy="198.0" r="3" fill="#3fb950"/><circle cx="168.2" cy="198.0" r="3" fill="#3fb950"/><circle cx="201.3" cy="198.0" r="3" fill="#3fb950"/><circle cx="234.3" cy="198.0" r="3" fill="#3fb950"/><circle cx="267.4" cy="198.0" r="3" fill="#3fb950"/><circle cx="300.4" cy="198.0" r="3" fill="#3fb950"/><circle cx="333.5" cy="198.0" r="3" fill="#3fb950"/><circle cx="366.5" cy="198.0" r="3" fill="#3fb950"/><circle cx="399.6" cy="198.0" r="3" fill="#3fb950"/><circle cx="432.6" cy="198.0" r="3" fill="#3fb950"/><circle cx="465.7" cy="198.0" r="3" fill="#3fb950"/><circle cx="498.7" cy="198.0" r="3" fill="#3fb950"/><circle cx="531.8" cy="198.0" r="3" fill="#3fb950"/><circle cx="564.8" cy="198.0" r="3" fill="#3fb950"/><circle cx="597.9" cy="198.0" r="3" fill="#3fb950"/><circle cx="630.9" cy="198.0" r="3" fill="#3fb950"/><circle cx="664.0" cy="198.0" r="3" fill="#3fb950"/>
<polyline fill="none" stroke="#4aa3ff" stroke-width="2.5" stroke-linejoin="round" points="36.0,85.0 69.1,85.0 102.1,85.0 135.2,85.0 168.2,85.0 201.3,85.0 234.3,85.0 267.4,85.0 300.4,85.0 333.5,85.0 366.5,85.0 399.6,85.0 432.6,85.0 465.7,85.0 498.7,85.0 531.8,68.0 564.8,59.9 597.9,53.9 630.9,53.9 664.0,36.0"/><circle cx="36.0" cy="85.0" r="3" fill="#4aa3ff"/><circle cx="69.1" cy="85.0" r="3" fill="#4aa3ff"/><circle cx="102.1" cy="85.0" r="3" fill="#4aa3ff"/><circle cx="135.2" cy="85.0" r="3" fill="#4aa3ff"/><circle cx="168.2" cy="85.0" r="3" fill="#4aa3ff"/><circle cx="201.3" cy="85.0" r="3" fill="#4aa3ff"/><circle cx="234.3" cy="85.0" r="3" fill="#4aa3ff"/><circle cx="267.4" cy="85.0" r="3" fill="#4aa3ff"/><circle cx="300.4" cy="85.0" r="3" fill="#4aa3ff"/><circle cx="333.5" cy="85.0" r="3" fill="#4aa3ff"/><circle cx="366.5" cy="85.0" r="3" fill="#4aa3ff"/><circle cx="399.6" cy="85.0" r="3" fill="#4aa3ff"/><circle cx="432.6" cy="85.0" r="3" fill="#4aa3ff"/><circle cx="465.7" cy="85.0" r="3" fill="#4aa3ff"/><circle cx="498.7" cy="85.0" r="3" fill="#4aa3ff"/><circle cx="531.8" cy="68.0" r="3" fill="#4aa3ff"/><circle cx="564.8" cy="59.9" r="3" fill="#4aa3ff"/><circle cx="597.9" cy="53.9" r="3" fill="#4aa3ff"/><circle cx="630.9" cy="53.9" r="3" fill="#4aa3ff"/><circle cx="664.0" cy="36.0" r="3" fill="#4aa3ff"/>
<text x="36" y="225" fill="#6b7280" font-size="11">2026-06-26</text>
<text x="664" y="225" fill="#6b7280" font-size="11" text-anchor="end">2026-06-28</text>
<text x="36" y="212" font-family="system-ui,sans-serif" font-size="11">
<tspan fill="#4aa3ff">&#9679; open FPs</tspan>  <tspan fill="#3fb950">&#9679; closed (Anthropic acting)</tspan>  <tspan fill="#8a5a5a">&#9679; harness withdrawn</tspan></text>
<text x="664" y="22" text-anchor="end" font-family="system-ui,sans-serif" font-size="12">
<tspan fill="#4aa3ff">open 380</tspan>  <tspan fill="#3fb950">closed 0</tspan>  <tspan fill="#8a5a5a">harness 261</tspan></text>
</svg>