<svg xmlns="http://www.w3.org/2000/svg" width="700" height="234" viewBox="0 0 700 234" role="img">
<rect width="700" height="234" rx="12" fill="#16181d"/>
<text x="36" y="22" fill="#e8eaed" font-family="system-ui,sans-serif" font-size="14" font-weight="700">Is Anthropic acting? cyber/aup false positives over time</text>
<line x1="36" y1="198.0" x2="664" y2="198.0" stroke="#2a2e37" stroke-width="1"/><text x="30" y="202.0" fill="#6b7280" font-size="11" text-anchor="end">0</text><line x1="36" y1="117.0" x2="664" y2="117.0" stroke="#2a2e37" stroke-width="1"/><text x="30" y="121.0" fill="#6b7280" font-size="11" text-anchor="end">400</text><line x1="36" y1="36.0" x2="664" y2="36.0" stroke="#2a2e37" stroke-width="1"/><text x="30" y="40.0" fill="#6b7280" font-size="11" text-anchor="end">800</text>

<polyline fill="none" stroke="#8a5a5a" stroke-width="2.5" stroke-linejoin="round" points="36.0,145.1 41.9,145.1 47.7,145.1 53.6,145.1 59.5,145.1 65.3,145.1 71.2,145.1 77.1,145.1 83.0,145.1 88.8,145.1 94.7,145.1 100.6,145.1 106.4,145.1 112.3,145.1 118.2,145.1 124.0,145.1 129.9,145.1 135.8,145.1 141.6,145.1 147.5,145.1 153.4,145.1 159.3,145.1 165.1,145.1 171.0,145.1 176.9,145.1 182.7,145.1 188.6,145.1 194.5,145.1 200.3,145.1 206.2,145.1 212.1,145.1 217.9,145.1 223.8,145.1 229.7,145.1 235.6,145.1 241.4,145.1 247.3,145.1 253.2,145.1 259.0,145.1 264.9,145.1 270.8,145.1 276.6,145.1 282.5,145.1 288.4,145.1 294.2,145.1 300.1,145.1 306.0,145.1 311.9,145.1 317.7,145.1 323.6,145.1 329.5,155.7 335.3,155.7 341.2,155.7 347.1,155.7 352.9,155.7 358.8,155.7 364.7,155.7 370.5,155.7 376.4,155.7 382.3,155.7 388.1,155.7 394.0,155.7 399.9,155.7 405.8,155.7 411.6,155.7 417.5,155.7 423.4,155.7 429.2,155.7 435.1,155.7 441.0,155.7 446.8,155.7 452.7,155.7 458.6,155.7 464.4,155.7 470.3,155.7 476.2,155.7 482.1,155.7 487.9,155.7 493.8,155.7 499.7,155.7 505.5,155.7 511.4,155.7 517.3,155.7 523.1,155.7 529.0,167.6 534.9,167.6 540.7,170.3 546.6,170.3 552.5,170.5 558.4,170.7 564.2,170.7 570.1,170.9 576.0,172.7 581.8,180.6 587.7,181.8 593.6,189.1 599.4,190.5 605.3,195.2 611.2,198.0 617.0,198.0 622.9,198.0 628.8,198.0 634.7,198.0 640.5,198.0 646.4,198.0 652.3,198.0 658.1,198.0 664.0,198.0"/><circle cx="36.0" cy="145.1" r="3" fill="#8a5a5a"/><circle cx="41.9" cy="145.1" r="3" fill="#8a5a5a"/><circle cx="47.7" cy="145.1" r="3" fill="#8a5a5a"/><circle cx="53.6" cy="145.1" r="3" fill="#8a5a5a"/><circle cx="59.5" cy="145.1" r="3" fill="#8a5a5a"/><circle cx="65.3" cy="145.1" r="3" fill="#8a5a5a"/><circle cx="71.2" cy="145.1" r="3" fill="#8a5a5a"/><circle cx="77.1" cy="145.1" r="3" fill="#8a5a5a"/><circle cx="83.0" cy="145.1" r="3" fill="#8a5a5a"/><circle cx="88.8" cy="145.1" r="3" fill="#8a5a5a"/><circle cx="94.7" cy="145.1" r="3" fill="#8a5a5a"/><circle cx="100.6" cy="145.1" r="3" fill="#8a5a5a"/><circle cx="106.4" cy="145.1" r="3" fill="#8a5a5a"/><circle cx="112.3" cy="145.1" r="3" fill="#8a5a5a"/><circle cx="118.2" cy="145.1" r="3" fill="#8a5a5a"/><circle cx="124.0" cy="145.1" r="3" fill="#8a5a5a"/><circle cx="129.9" cy="145.1" r="3" fill="#8a5a5a"/><circle cx="135.8" cy="145.1" r="3" fill="#8a5a5a"/><circle cx="141.6" cy="145.1" r="3" fill="#8a5a5a"/><circle cx="147.5" cy="145.1" r="3" fill="#8a5a5a"/><circle cx="153.4" cy="145.1" r="3" fill="#8a5a5a"/><circle cx="159.3" cy="145.1" r="3" fill="#8a5a5a"/><circle cx="165.1" cy="145.1" r="3" fill="#8a5a5a"/><circle cx="171.0" cy="145.1" r="3" fill="#8a5a5a"/><circle cx="176.9" cy="145.1" r="3" fill="#8a5a5a"/><circle cx="182.7" cy="145.1" r="3" fill="#8a5a5a"/><circle cx="188.6" cy="145.1" r="3" fill="#8a5a5a"/><circle cx="194.5" cy="145.1" r="3" fill="#8a5a5a"/><circle cx="200.3" cy="145.1" r="3" fill="#8a5a5a"/><circle cx="206.2" cy="145.1" r="3" fill="#8a5a5a"/><circle cx="212.1" cy="145.1" r="3" fill="#8a5a5a"/><circle cx="217.9" cy="145.1" r="3" fill="#8a5a5a"/><circle cx="223.8" cy="145.1" r="3" fill="#8a5a5a"/><circle cx="229.7" cy="145.1" r="3" fill="#8a5a5a"/><circle cx="235.6" cy="145.1" r="3" fill="#8a5a5a"/><circle cx="241.4" cy="145.1" r="3" fill="#8a5a5a"/><circle cx="247.3" cy="145.1" r="3" fill="#8a5a5a"/><circle cx="253.2" cy="145.1" r="3" fill="#8a5a5a"/><circle cx="259.0" cy="145.1" r="3" fill="#8a5a5a"/><circle cx="264.9" cy="145.1" r="3" fill="#8a5a5a"/><circle cx="270.8" cy="145.1" r="3" fill="#8a5a5a"/><circle cx="276.6" cy="145.1" r="3" fill="#8a5a5a"/><circle cx="282.5" cy="145.1" r="3" fill="#8a5a5a"/><circle cx="288.4" cy="145.1" r="3" fill="#8a5a5a"/><circle cx="294.2" cy="145.1" r="3" fill="#8a5a5a"/><circle cx="300.1" cy="145.1" r="3" fill="#8a5a5a"/><circle cx="306.0" cy="145.1" r="3" fill="#8a5a5a"/><circle cx="311.9" cy="145.1" r="3" fill="#8a5a5a"/><circle cx="317.7" cy="145.1" r="3" fill="#8a5a5a"/><circle cx="323.6" cy="145.1" r="3" fill="#8a5a5a"/><circle cx="329.5" cy="155.7" r="3" fill="#8a5a5a"/><circle cx="335.3" cy="155.7" r="3" fill="#8a5a5a"/><circle cx="341.2" cy="155.7" r="3" fill="#8a5a5a"/><circle cx="347.1" cy="155.7" r="3" fill="#8a5a5a"/><circle cx="352.9" cy="155.7" r="3" fill="#8a5a5a"/><circle cx="358.8" cy="155.7" r="3" fill="#8a5a5a"/><circle cx="364.7" cy="155.7" r="3" fill="#8a5a5a"/><circle cx="370.5" cy="155.7" r="3" fill="#8a5a5a"/><circle cx="376.4" cy="155.7" r="3" fill="#8a5a5a"/><circle cx="382.3" cy="155.7" r="3" fill="#8a5a5a"/><circle cx="388.1" cy="155.7" r="3" fill="#8a5a5a"/><circle cx="394.0" cy="155.7" r="3" fill="#8a5a5a"/><circle cx="399.9" cy="155.7" r="3" fill="#8a5a5a"/><circle cx="405.8" cy="155.7" r="3" fill="#8a5a5a"/><circle cx="411.6" cy="155.7" r="3" fill="#8a5a5a"/><circle cx="417.5" cy="155.7" r="3" fill="#8a5a5a"/><circle cx="423.4" cy="155.7" r="3" fill="#8a5a5a"/><circle cx="429.2" cy="155.7" r="3" fill="#8a5a5a"/><circle cx="435.1" cy="155.7" r="3" fill="#8a5a5a"/><circle cx="441.0" cy="155.7" r="3" fill="#8a5a5a"/><circle cx="446.8" cy="155.7" r="3" fill="#8a5a5a"/><circle cx="452.7" cy="155.7" r="3" fill="#8a5a5a"/><circle cx="458.6" cy="155.7" r="3" fill="#8a5a5a"/><circle cx="464.4" cy="155.7" r="3" fill="#8a5a5a"/><circle cx="470.3" cy="155.7" r="3" fill="#8a5a5a"/><circle cx="476.2" cy="155.7" r="3" fill="#8a5a5a"/><circle cx="482.1" cy="155.7" r="3" fill="#8a5a5a"/><circle cx="487.9" cy="155.7" r="3" fill="#8a5a5a"/><circle cx="493.8" cy="155.7" r="3" fill="#8a5a5a"/><circle cx="499.7" cy="155.7" r="3" fill="#8a5a5a"/><circle cx="505.5" cy="155.7" r="3" fill="#8a5a5a"/><circle cx="511.4" cy="155.7" r="3" fill="#8a5a5a"/><circle cx="517.3" cy="155.7" r="3" fill="#8a5a5a"/><circle cx="523.1" cy="155.7" r="3" fill="#8a5a5a"/><circle cx="529.0" cy="167.6" r="3" fill="#8a5a5a"/><circle cx="534.9" cy="167.6" r="3" fill="#8a5a5a"/><circle cx="540.7" cy="170.3" r="3" fill="#8a5a5a"/><circle cx="546.6" cy="170.3" r="3" fill="#8a5a5a"/><circle cx="552.5" cy="170.5" r="3" fill="#8a5a5a"/><circle cx="558.4" cy="170.7" r="3" fill="#8a5a5a"/><circle cx="564.2" cy="170.7" r="3" fill="#8a5a5a"/><circle cx="570.1" cy="170.9" r="3" fill="#8a5a5a"/><circle cx="576.0" cy="172.7" r="3" fill="#8a5a5a"/><circle cx="581.8" cy="180.6" r="3" fill="#8a5a5a"/><circle cx="587.7" cy="181.8" r="3" fill="#8a5a5a"/><circle cx="593.6" cy="189.1" r="3" fill="#8a5a5a"/><circle cx="599.4" cy="190.5" r="3" fill="#8a5a5a"/><circle cx="605.3" cy="195.2" r="3" fill="#8a5a5a"/><circle cx="611.2" cy="198.0" r="3" fill="#8a5a5a"/><circle cx="617.0" cy="198.0" r="3" fill="#8a5a5a"/><circle cx="622.9" cy="198.0" r="3" fill="#8a5a5a"/><circle cx="628.8" cy="198.0" r="3" fill="#8a5a5a"/><circle cx="634.7" cy="198.0" r="3" fill="#8a5a5a"/><circle cx="640.5" cy="198.0" r="3" fill="#8a5a5a"/><circle cx="646.4" cy="198.0" r="3" fill="#8a5a5a"/><circle cx="652.3" cy="198.0" r="3" fill="#8a5a5a"/><circle cx="658.1" cy="198.0" r="3" fill="#8a5a5a"/><circle cx="664.0" cy="198.0" r="3" fill="#8a5a5a"/>
<polyline fill="none" stroke="#3fb950" stroke-width="2.5" stroke-linejoin="round" points="36.0,198.0 41.9,198.0 47.7,198.0 53.6,198.0 59.5,198.0 65.3,198.0 71.2,198.0 77.1,198.0 83.0,198.0 88.8,198.0 94.7,198.0 100.6,198.0 106.4,198.0 112.3,198.0 118.2,198.0 124.0,198.0 129.9,198.0 135.8,198.0 141.6,198.0 147.5,198.0 153.4,198.0 159.3,198.0 165.1,198.0 171.0,198.0 176.9,198.0 182.7,198.0 188.6,198.0 194.5,198.0 200.3,198.0 206.2,198.0 212.1,198.0 217.9,198.0 223.8,198.0 229.7,198.0 235.6,198.0 241.4,198.0 247.3,198.0 253.2,198.0 259.0,198.0 264.9,198.0 270.8,198.0 276.6,198.0 282.5,198.0 288.4,191.7 294.2,191.7 300.1,191.7 306.0,191.7 311.9,191.7 317.7,191.7 323.6,191.7 329.5,192.9 335.3,192.9 341.2,190.7 347.1,190.7 352.9,190.7 358.8,190.7 364.7,190.7 370.5,190.5 376.4,190.5 382.3,190.5 388.1,190.3 394.0,190.3 399.9,190.3 405.8,190.3 411.6,190.3 417.5,190.3 423.4,190.3 429.2,190.3 435.1,190.3 441.0,190.3 446.8,190.3 452.7,190.3 458.6,190.3 464.4,190.3 470.3,190.3 476.2,190.3 482.1,190.3 487.9,190.3 493.8,190.3 499.7,190.3 505.5,190.3 511.4,189.3 517.3,189.3 523.1,189.3 529.0,190.7 534.9,190.7 540.7,190.7 546.6,190.7 552.5,190.7 558.4,190.7 564.2,190.7 570.1,190.7 576.0,190.7 581.8,190.9 587.7,190.9 593.6,190.9 599.4,194.2 605.3,196.8 611.2,198.0 617.0,198.0 622.9,198.0 628.8,198.0 634.7,198.0 640.5,198.0 646.4,198.0 652.3,198.0 658.1,198.0 664.0,198.0"/><circle cx="36.0" cy="198.0" r="3" fill="#3fb950"/><circle cx="41.9" cy="198.0" r="3" fill="#3fb950"/><circle cx="47.7" cy="198.0" r="3" fill="#3fb950"/><circle cx="53.6" cy="198.0" r="3" fill="#3fb950"/><circle cx="59.5" cy="198.0" r="3" fill="#3fb950"/><circle cx="65.3" cy="198.0" r="3" fill="#3fb950"/><circle cx="71.2" cy="198.0" r="3" fill="#3fb950"/><circle cx="77.1" cy="198.0" r="3" fill="#3fb950"/><circle cx="83.0" cy="198.0" r="3" fill="#3fb950"/><circle cx="88.8" cy="198.0" r="3" fill="#3fb950"/><circle cx="94.7" cy="198.0" r="3" fill="#3fb950"/><circle cx="100.6" cy="198.0" r="3" fill="#3fb950"/><circle cx="106.4" cy="198.0" r="3" fill="#3fb950"/><circle cx="112.3" cy="198.0" r="3" fill="#3fb950"/><circle cx="118.2" cy="198.0" r="3" fill="#3fb950"/><circle cx="124.0" cy="198.0" r="3" fill="#3fb950"/><circle cx="129.9" cy="198.0" r="3" fill="#3fb950"/><circle cx="135.8" cy="198.0" r="3" fill="#3fb950"/><circle cx="141.6" cy="198.0" r="3" fill="#3fb950"/><circle cx="147.5" cy="198.0" r="3" fill="#3fb950"/><circle cx="153.4" cy="198.0" r="3" fill="#3fb950"/><circle cx="159.3" cy="198.0" r="3" fill="#3fb950"/><circle cx="165.1" cy="198.0" r="3" fill="#3fb950"/><circle cx="171.0" cy="198.0" r="3" fill="#3fb950"/><circle cx="176.9" cy="198.0" r="3" fill="#3fb950"/><circle cx="182.7" cy="198.0" r="3" fill="#3fb950"/><circle cx="188.6" cy="198.0" r="3" fill="#3fb950"/><circle cx="194.5" cy="198.0" r="3" fill="#3fb950"/><circle cx="200.3" cy="198.0" r="3" fill="#3fb950"/><circle cx="206.2" cy="198.0" r="3" fill="#3fb950"/><circle cx="212.1" cy="198.0" r="3" fill="#3fb950"/><circle cx="217.9" cy="198.0" r="3" fill="#3fb950"/><circle cx="223.8" cy="198.0" r="3" fill="#3fb950"/><circle cx="229.7" cy="198.0" r="3" fill="#3fb950"/><circle cx="235.6" cy="198.0" r="3" fill="#3fb950"/><circle cx="241.4" cy="198.0" r="3" fill="#3fb950"/><circle cx="247.3" cy="198.0" r="3" fill="#3fb950"/><circle cx="253.2" cy="198.0" r="3" fill="#3fb950"/><circle cx="259.0" cy="198.0" r="3" fill="#3fb950"/><circle cx="264.9" cy="198.0" r="3" fill="#3fb950"/><circle cx="270.8" cy="198.0" r="3" fill="#3fb950"/><circle cx="276.6" cy="198.0" r="3" fill="#3fb950"/><circle cx="282.5" cy="198.0" r="3" fill="#3fb950"/><circle cx="288.4" cy="191.7" r="3" fill="#3fb950"/><circle cx="294.2" cy="191.7" r="3" fill="#3fb950"/><circle cx="300.1" cy="191.7" r="3" fill="#3fb950"/><circle cx="306.0" cy="191.7" r="3" fill="#3fb950"/><circle cx="311.9" cy="191.7" r="3" fill="#3fb950"/><circle cx="317.7" cy="191.7" r="3" fill="#3fb950"/><circle cx="323.6" cy="191.7" r="3" fill="#3fb950"/><circle cx="329.5" cy="192.9" r="3" fill="#3fb950"/><circle cx="335.3" cy="192.9" r="3" fill="#3fb950"/><circle cx="341.2" cy="190.7" r="3" fill="#3fb950"/><circle cx="347.1" cy="190.7" r="3" fill="#3fb950"/><circle cx="352.9" cy="190.7" r="3" fill="#3fb950"/><circle cx="358.8" cy="190.7" r="3" fill="#3fb950"/><circle cx="364.7" cy="190.7" r="3" fill="#3fb950"/><circle cx="370.5" cy="190.5" r="3" fill="#3fb950"/><circle cx="376.4" cy="190.5" r="3" fill="#3fb950"/><circle cx="382.3" cy="190.5" r="3" fill="#3fb950"/><circle cx="388.1" cy="190.3" r="3" fill="#3fb950"/><circle cx="394.0" cy="190.3" r="3" fill="#3fb950"/><circle cx="399.9" cy="190.3" r="3" fill="#3fb950"/><circle cx="405.8" cy="190.3" r="3" fill="#3fb950"/><circle cx="411.6" cy="190.3" r="3" fill="#3fb950"/><circle cx="417.5" cy="190.3" r="3" fill="#3fb950"/><circle cx="423.4" cy="190.3" r="3" fill="#3fb950"/><circle cx="429.2" cy="190.3" r="3" fill="#3fb950"/><circle cx="435.1" cy="190.3" r="3" fill="#3fb950"/><circle cx="441.0" cy="190.3" r="3" fill="#3fb950"/><circle cx="446.8" cy="190.3" r="3" fill="#3fb950"/><circle cx="452.7" cy="190.3" r="3" fill="#3fb950"/><circle cx="458.6" cy="190.3" r="3" fill="#3fb950"/><circle cx="464.4" cy="190.3" r="3" fill="#3fb950"/><circle cx="470.3" cy="190.3" r="3" fill="#3fb950"/><circle cx="476.2" cy="190.3" r="3" fill="#3fb950"/><circle cx="482.1" cy="190.3" r="3" fill="#3fb950"/><circle cx="487.9" cy="190.3" r="3" fill="#3fb950"/><circle cx="493.8" cy="190.3" r="3" fill="#3fb950"/><circle cx="499.7" cy="190.3" r="3" fill="#3fb950"/><circle cx="505.5" cy="190.3" r="3" fill="#3fb950"/><circle cx="511.4" cy="189.3" r="3" fill="#3fb950"/><circle cx="517.3" cy="189.3" r="3" fill="#3fb950"/><circle cx="523.1" cy="189.3" r="3" fill="#3fb950"/><circle cx="529.0" cy="190.7" r="3" fill="#3fb950"/><circle cx="534.9" cy="190.7" r="3" fill="#3fb950"/><circle cx="540.7" cy="190.7" r="3" fill="#3fb950"/><circle cx="546.6" cy="190.7" r="3" fill="#3fb950"/><circle cx="552.5" cy="190.7" r="3" fill="#3fb950"/><circle cx="558.4" cy="190.7" r="3" fill="#3fb950"/><circle cx="564.2" cy="190.7" r="3" fill="#3fb950"/><circle cx="570.1" cy="190.7" r="3" fill="#3fb950"/><circle cx="576.0" cy="190.7" r="3" fill="#3fb950"/><circle cx="581.8" cy="190.9" r="3" fill="#3fb950"/><circle cx="587.7" cy="190.9" r="3" fill="#3fb950"/><circle cx="593.6" cy="190.9" r="3" fill="#3fb950"/><circle cx="599.4" cy="194.2" r="3" fill="#3fb950"/><circle cx="605.3" cy="196.8" r="3" fill="#3fb950"/><circle cx="611.2" cy="198.0" r="3" fill="#3fb950"/><circle cx="617.0" cy="198.0" r="3" fill="#3fb950"/><circle cx="622.9" cy="198.0" r="3" fill="#3fb950"/><circle cx="628.8" cy="198.0" r="3" fill="#3fb950"/><circle cx="634.7" cy="198.0" r="3" fill="#3fb950"/><circle cx="640.5" cy="198.0" r="3" fill="#3fb950"/><circle cx="646.4" cy="198.0" r="3" fill="#3fb950"/><circle cx="652.3" cy="198.0" r="3" fill="#3fb950"/><circle cx="658.1" cy="198.0" r="3" fill="#3fb950"/><circle cx="664.0" cy="198.0" r="3" fill="#3fb950"/>
<polyline fill="none" stroke="#4aa3ff" stroke-width="2.5" stroke-linejoin="round" points="36.0,144.3 41.9,144.3 47.7,144.3 53.6,144.3 59.5,144.3 65.3,144.3 71.2,144.3 77.1,144.3 83.0,144.3 88.8,144.3 94.7,144.3 100.6,144.3 106.4,144.3 112.3,144.3 118.2,144.3 124.0,136.2 129.9,132.4 135.8,129.6 141.6,129.6 147.5,121.0 153.4,121.0 159.3,121.0 165.1,114.4 171.0,114.4 176.9,114.4 182.7,111.3 188.6,110.9 194.5,110.9 200.3,110.5 206.2,110.5 212.1,109.9 217.9,108.7 223.8,107.3 229.7,106.9 235.6,106.9 241.4,106.9 247.3,106.9 253.2,106.9 259.0,106.9 264.9,106.9 270.8,106.9 276.6,106.9 282.5,106.9 288.4,113.2 294.2,113.2 300.1,113.2 306.0,113.2 311.9,113.2 317.7,110.7 323.6,105.3 329.5,83.4 335.3,83.4 341.2,85.6 347.1,85.6 352.9,85.6 358.8,85.6 364.7,85.6 370.5,85.8 376.4,85.8 382.3,85.8 388.1,86.0 394.0,86.0 399.9,86.0 405.8,86.0 411.6,86.0 417.5,86.0 423.4,86.0 429.2,86.0 435.1,86.0 441.0,86.0 446.8,86.0 452.7,86.0 458.6,86.0 464.4,86.0 470.3,86.0 476.2,86.0 482.1,86.0 487.9,86.0 493.8,86.0 499.7,86.0 505.5,86.0 511.4,87.0 517.3,87.0 523.1,87.0 529.0,73.7 534.9,73.7 540.7,71.0 546.6,71.0 552.5,70.8 558.4,70.6 564.2,70.6 570.1,70.4 576.0,68.6 581.8,60.5 587.7,59.3 593.6,52.0 599.4,47.3 605.3,40.1 611.2,36.0 617.0,36.0 622.9,36.0 628.8,36.0 634.7,36.0 640.5,36.0 646.4,36.0 652.3,36.0 658.1,36.0 664.0,36.0"/><circle cx="36.0" cy="144.3" r="3" fill="#4aa3ff"/><circle cx="41.9" cy="144.3" r="3" fill="#4aa3ff"/><circle cx="47.7" cy="144.3" r="3" fill="#4aa3ff"/><circle cx="53.6" cy="144.3" r="3" fill="#4aa3ff"/><circle cx="59.5" cy="144.3" r="3" fill="#4aa3ff"/><circle cx="65.3" cy="144.3" r="3" fill="#4aa3ff"/><circle cx="71.2" cy="144.3" r="3" fill="#4aa3ff"/><circle cx="77.1" cy="144.3" r="3" fill="#4aa3ff"/><circle cx="83.0" cy="144.3" r="3" fill="#4aa3ff"/><circle cx="88.8" cy="144.3" r="3" fill="#4aa3ff"/><circle cx="94.7" cy="144.3" r="3" fill="#4aa3ff"/><circle cx="100.6" cy="144.3" r="3" fill="#4aa3ff"/><circle cx="106.4" cy="144.3" r="3" fill="#4aa3ff"/><circle cx="112.3" cy="144.3" r="3" fill="#4aa3ff"/><circle cx="118.2" cy="144.3" r="3" fill="#4aa3ff"/><circle cx="124.0" cy="136.2" r="3" fill="#4aa3ff"/><circle cx="129.9" cy="132.4" r="3" fill="#4aa3ff"/><circle cx="135.8" cy="129.6" r="3" fill="#4aa3ff"/><circle cx="141.6" cy="129.6" r="3" fill="#4aa3ff"/><circle cx="147.5" cy="121.0" r="3" fill="#4aa3ff"/><circle cx="153.4" cy="121.0" r="3" fill="#4aa3ff"/><circle cx="159.3" cy="121.0" r="3" fill="#4aa3ff"/><circle cx="165.1" cy="114.4" r="3" fill="#4aa3ff"/><circle cx="171.0" cy="114.4" r="3" fill="#4aa3ff"/><circle cx="176.9" cy="114.4" r="3" fill="#4aa3ff"/><circle cx="182.7" cy="111.3" r="3" fill="#4aa3ff"/><circle cx="188.6" cy="110.9" r="3" fill="#4aa3ff"/><circle cx="194.5" cy="110.9" r="3" fill="#4aa3ff"/><circle cx="200.3" cy="110.5" r="3" fill="#4aa3ff"/><circle cx="206.2" cy="110.5" r="3" fill="#4aa3ff"/><circle cx="212.1" cy="109.9" r="3" fill="#4aa3ff"/><circle cx="217.9" cy="108.7" r="3" fill="#4aa3ff"/><circle cx="223.8" cy="107.3" r="3" fill="#4aa3ff"/><circle cx="229.7" cy="106.9" r="3" fill="#4aa3ff"/><circle cx="235.6" cy="106.9" r="3" fill="#4aa3ff"/><circle cx="241.4" cy="106.9" r="3" fill="#4aa3ff"/><circle cx="247.3" cy="106.9" r="3" fill="#4aa3ff"/><circle cx="253.2" cy="106.9" r="3" fill="#4aa3ff"/><circle cx="259.0" cy="106.9" r="3" fill="#4aa3ff"/><circle cx="264.9" cy="106.9" r="3" fill="#4aa3ff"/><circle cx="270.8" cy="106.9" r="3" fill="#4aa3ff"/><circle cx="276.6" cy="106.9" r="3" fill="#4aa3ff"/><circle cx="282.5" cy="106.9" r="3" fill="#4aa3ff"/><circle cx="288.4" cy="113.2" r="3" fill="#4aa3ff"/><circle cx="294.2" cy="113.2" r="3" fill="#4aa3ff"/><circle cx="300.1" cy="113.2" r="3" fill="#4aa3ff"/><circle cx="306.0" cy="113.2" r="3" fill="#4aa3ff"/><circle cx="311.9" cy="113.2" r="3" fill="#4aa3ff"/><circle cx="317.7" cy="110.7" r="3" fill="#4aa3ff"/><circle cx="323.6" cy="105.3" r="3" fill="#4aa3ff"/><circle cx="329.5" cy="83.4" r="3" fill="#4aa3ff"/><circle cx="335.3" cy="83.4" r="3" fill="#4aa3ff"/><circle cx="341.2" cy="85.6" r="3" fill="#4aa3ff"/><circle cx="347.1" cy="85.6" r="3" fill="#4aa3ff"/><circle cx="352.9" cy="85.6" r="3" fill="#4aa3ff"/><circle cx="358.8" cy="85.6" r="3" fill="#4aa3ff"/><circle cx="364.7" cy="85.6" r="3" fill="#4aa3ff"/><circle cx="370.5" cy="85.8" r="3" fill="#4aa3ff"/><circle cx="376.4" cy="85.8" r="3" fill="#4aa3ff"/><circle cx="382.3" cy="85.8" r="3" fill="#4aa3ff"/><circle cx="388.1" cy="86.0" r="3" fill="#4aa3ff"/><circle cx="394.0" cy="86.0" r="3" fill="#4aa3ff"/><circle cx="399.9" cy="86.0" r="3" fill="#4aa3ff"/><circle cx="405.8" cy="86.0" r="3" fill="#4aa3ff"/><circle cx="411.6" cy="86.0" r="3" fill="#4aa3ff"/><circle cx="417.5" cy="86.0" r="3" fill="#4aa3ff"/><circle cx="423.4" cy="86.0" r="3" fill="#4aa3ff"/><circle cx="429.2" cy="86.0" r="3" fill="#4aa3ff"/><circle cx="435.1" cy="86.0" r="3" fill="#4aa3ff"/><circle cx="441.0" cy="86.0" r="3" fill="#4aa3ff"/><circle cx="446.8" cy="86.0" r="3" fill="#4aa3ff"/><circle cx="452.7" cy="86.0" r="3" fill="#4aa3ff"/><circle cx="458.6" cy="86.0" r="3" fill="#4aa3ff"/><circle cx="464.4" cy="86.0" r="3" fill="#4aa3ff"/><circle cx="470.3" cy="86.0" r="3" fill="#4aa3ff"/><circle cx="476.2" cy="86.0" r="3" fill="#4aa3ff"/><circle cx="482.1" cy="86.0" r="3" fill="#4aa3ff"/><circle cx="487.9" cy="86.0" r="3" fill="#4aa3ff"/><circle cx="493.8" cy="86.0" r="3" fill="#4aa3ff"/><circle cx="499.7" cy="86.0" r="3" fill="#4aa3ff"/><circle cx="505.5" cy="86.0" r="3" fill="#4aa3ff"/><circle cx="511.4" cy="87.0" r="3" fill="#4aa3ff"/><circle cx="517.3" cy="87.0" r="3" fill="#4aa3ff"/><circle cx="523.1" cy="87.0" r="3" fill="#4aa3ff"/><circle cx="529.0" cy="73.7" r="3" fill="#4aa3ff"/><circle cx="534.9" cy="73.7" r="3" fill="#4aa3ff"/><circle cx="540.7" cy="71.0" r="3" fill="#4aa3ff"/><circle cx="546.6" cy="71.0" r="3" fill="#4aa3ff"/><circle cx="552.5" cy="70.8" r="3" fill="#4aa3ff"/><circle cx="558.4" cy="70.6" r="3" fill="#4aa3ff"/><circle cx="564.2" cy="70.6" r="3" fill="#4aa3ff"/><circle cx="570.1" cy="70.4" r="3" fill="#4aa3ff"/><circle cx="576.0" cy="68.6" r="3" fill="#4aa3ff"/><circle cx="581.8" cy="60.5" r="3" fill="#4aa3ff"/><circle cx="587.7" cy="59.3" r="3" fill="#4aa3ff"/><circle cx="593.6" cy="52.0" r="3" fill="#4aa3ff"/><circle cx="599.4" cy="47.3" r="3" fill="#4aa3ff"/><circle cx="605.3" cy="40.1" r="3" fill="#4aa3ff"/><circle cx="611.2" cy="36.0" r="3" fill="#4aa3ff"/><circle cx="617.0" cy="36.0" r="3" fill="#4aa3ff"/><circle cx="622.9" cy="36.0" r="3" fill="#4aa3ff"/><circle cx="628.8" cy="36.0" r="3" fill="#4aa3ff"/><circle cx="634.7" cy="36.0" r="3" fill="#4aa3ff"/><circle cx="640.5" cy="36.0" r="3" fill="#4aa3ff"/><circle cx="646.4" cy="36.0" r="3" fill="#4aa3ff"/><circle cx="652.3" cy="36.0" r="3" fill="#4aa3ff"/><circle cx="658.1" cy="36.0" r="3" fill="#4aa3ff"/><circle cx="664.0" cy="36.0" r="3" fill="#4aa3ff"/>
<text x="36" y="225" fill="#6b7280" font-size="11">2026-06-26</text>
<text x="664" y="225" fill="#6b7280" font-size="11" text-anchor="end">2026-07-08</text>
<text x="36" y="212" font-family="system-ui,sans-serif" font-size="11">
<tspan fill="#4aa3ff">&#9679; open FPs</tspan>  <tspan fill="#3fb950">&#9679; closed (Anthropic acting)</tspan>  <tspan fill="#8a5a5a">&#9679; harness withdrawn</tspan></text>
<text x="664" y="22" text-anchor="end" font-family="system-ui,sans-serif" font-size="12">
<tspan fill="#4aa3ff">open 800</tspan>  <tspan fill="#3fb950">closed 0</tspan>  <tspan fill="#8a5a5a">harness 0</tspan></text>
</svg>