<svg xmlns="http://www.w3.org/2000/svg" width="700" height="234" viewBox="0 0 700 234" role="img">
<rect width="700" height="234" rx="12" fill="#16181d"/>
<text x="36" y="22" fill="#e8eaed" font-family="system-ui,sans-serif" font-size="14" font-weight="700">Is Anthropic acting? cyber/aup false positives over time</text>
<line x1="36" y1="198.0" x2="664" y2="198.0" stroke="#2a2e37" stroke-width="1"/><text x="30" y="202.0" fill="#6b7280" font-size="11" text-anchor="end">0</text><line x1="36" y1="117.0" x2="664" y2="117.0" stroke="#2a2e37" stroke-width="1"/><text x="30" y="121.0" fill="#6b7280" font-size="11" text-anchor="end">400</text><line x1="36" y1="36.0" x2="664" y2="36.0" stroke="#2a2e37" stroke-width="1"/><text x="30" y="40.0" fill="#6b7280" font-size="11" text-anchor="end">800</text>

<polyline fill="none" stroke="#8a5a5a" stroke-width="2.5" stroke-linejoin="round" points="36.0,145.1 38.9,145.1 41.8,145.1 44.6,145.1 47.5,145.1 50.4,145.1 53.3,145.1 56.2,145.1 59.0,145.1 61.9,145.1 64.8,145.1 67.7,145.1 70.6,145.1 73.4,145.1 76.3,145.1 79.2,145.1 82.1,145.1 85.0,145.1 87.9,145.1 90.7,145.1 93.6,145.1 96.5,145.1 99.4,145.1 102.3,145.1 105.1,145.1 108.0,145.1 110.9,145.1 113.8,145.1 116.7,145.1 119.5,145.1 122.4,145.1 125.3,145.1 128.2,145.1 131.1,145.1 133.9,145.1 136.8,145.1 139.7,145.1 142.6,145.1 145.5,145.1 148.3,145.1 151.2,145.1 154.1,145.1 157.0,145.1 159.9,145.1 162.8,145.1 165.6,145.1 168.5,145.1 171.4,145.1 174.3,145.1 177.2,145.1 180.0,155.7 182.9,155.7 185.8,155.7 188.7,155.7 191.6,155.7 194.4,155.7 197.3,155.7 200.2,155.7 203.1,155.7 206.0,155.7 208.8,155.7 211.7,155.7 214.6,155.7 217.5,155.7 220.4,155.7 223.2,155.7 226.1,155.7 229.0,155.7 231.9,155.7 234.8,155.7 237.7,155.7 240.5,155.7 243.4,155.7 246.3,155.7 249.2,155.7 252.1,155.7 254.9,155.7 257.8,155.7 260.7,155.7 263.6,155.7 266.5,155.7 269.3,155.7 272.2,155.7 275.1,155.7 278.0,167.6 280.9,167.6 283.7,170.3 286.6,170.3 289.5,170.5 292.4,170.7 295.3,170.7 298.1,170.9 301.0,172.7 303.9,180.6 306.8,181.8 309.7,189.1 312.6,190.5 315.4,195.2 318.3,198.0 321.2,198.0 324.1,198.0 327.0,198.0 329.8,198.0 332.7,198.0 335.6,198.0 338.5,198.0 341.4,198.0 344.2,198.0 347.1,198.0 350.0,198.0 352.9,198.0 355.8,198.0 358.6,198.0 361.5,198.0 364.4,198.0 367.3,198.0 370.2,198.0 373.0,198.0 375.9,198.0 378.8,198.0 381.7,198.0 384.6,198.0 387.4,198.0 390.3,198.0 393.2,198.0 396.1,198.0 399.0,198.0 401.9,198.0 404.7,198.0 407.6,198.0 410.5,198.0 413.4,198.0 416.3,198.0 419.1,198.0 422.0,198.0 424.9,198.0 427.8,198.0 430.7,198.0 433.5,198.0 436.4,198.0 439.3,198.0 442.2,198.0 445.1,198.0 447.9,198.0 450.8,198.0 453.7,198.0 456.6,198.0 459.5,198.0 462.3,198.0 465.2,198.0 468.1,198.0 471.0,198.0 473.9,198.0 476.8,198.0 479.6,198.0 482.5,198.0 485.4,198.0 488.3,198.0 491.2,198.0 494.0,198.0 496.9,198.0 499.8,198.0 502.7,198.0 505.6,198.0 508.4,198.0 511.3,198.0 514.2,198.0 517.1,198.0 520.0,198.0 522.8,198.0 525.7,198.0 528.6,198.0 531.5,198.0 534.4,198.0 537.2,198.0 540.1,198.0 543.0,198.0 545.9,198.0 548.8,198.0 551.7,198.0 554.5,198.0 557.4,198.0 560.3,198.0 563.2,198.0 566.1,198.0 568.9,198.0 571.8,198.0 574.7,198.0 577.6,198.0 580.5,198.0 583.3,198.0 586.2,198.0 589.1,198.0 592.0,198.0 594.9,198.0 597.7,198.0 600.6,198.0 603.5,198.0 606.4,198.0 609.3,198.0 612.1,198.0 615.0,198.0 617.9,198.0 620.8,198.0 623.7,198.0 626.6,198.0 629.4,198.0 632.3,198.0 635.2,198.0 638.1,198.0 641.0,198.0 643.8,198.0 646.7,198.0 649.6,198.0 652.5,198.0 655.4,198.0 658.2,198.0 661.1,198.0 664.0,198.0"/><circle cx="36.0" cy="145.1" r="3" fill="#8a5a5a"/><circle cx="38.9" cy="145.1" r="3" fill="#8a5a5a"/><circle cx="41.8" cy="145.1" r="3" fill="#8a5a5a"/><circle cx="44.6" cy="145.1" r="3" fill="#8a5a5a"/><circle cx="47.5" cy="145.1" r="3" fill="#8a5a5a"/><circle cx="50.4" cy="145.1" r="3" fill="#8a5a5a"/><circle cx="53.3" cy="145.1" r="3" fill="#8a5a5a"/><circle cx="56.2" cy="145.1" r="3" fill="#8a5a5a"/><circle cx="59.0" cy="145.1" r="3" fill="#8a5a5a"/><circle cx="61.9" cy="145.1" r="3" fill="#8a5a5a"/><circle cx="64.8" cy="145.1" r="3" fill="#8a5a5a"/><circle cx="67.7" cy="145.1" r="3" fill="#8a5a5a"/><circle cx="70.6" cy="145.1" r="3" fill="#8a5a5a"/><circle cx="73.4" cy="145.1" r="3" fill="#8a5a5a"/><circle cx="76.3" cy="145.1" r="3" fill="#8a5a5a"/><circle cx="79.2" cy="145.1" r="3" fill="#8a5a5a"/><circle cx="82.1" cy="145.1" r="3" fill="#8a5a5a"/><circle cx="85.0" cy="145.1" r="3" fill="#8a5a5a"/><circle cx="87.9" cy="145.1" r="3" fill="#8a5a5a"/><circle cx="90.7" cy="145.1" r="3" fill="#8a5a5a"/><circle cx="93.6" cy="145.1" r="3" fill="#8a5a5a"/><circle cx="96.5" cy="145.1" r="3" fill="#8a5a5a"/><circle cx="99.4" cy="145.1" r="3" fill="#8a5a5a"/><circle cx="102.3" cy="145.1" r="3" fill="#8a5a5a"/><circle cx="105.1" cy="145.1" r="3" fill="#8a5a5a"/><circle cx="108.0" cy="145.1" r="3" fill="#8a5a5a"/><circle cx="110.9" cy="145.1" r="3" fill="#8a5a5a"/><circle cx="113.8" cy="145.1" r="3" fill="#8a5a5a"/><circle cx="116.7" cy="145.1" r="3" fill="#8a5a5a"/><circle cx="119.5" cy="145.1" r="3" fill="#8a5a5a"/><circle cx="122.4" cy="145.1" r="3" fill="#8a5a5a"/><circle cx="125.3" cy="145.1" r="3" fill="#8a5a5a"/><circle cx="128.2" cy="145.1" r="3" fill="#8a5a5a"/><circle cx="131.1" cy="145.1" r="3" fill="#8a5a5a"/><circle cx="133.9" cy="145.1" r="3" fill="#8a5a5a"/><circle cx="136.8" cy="145.1" r="3" fill="#8a5a5a"/><circle cx="139.7" cy="145.1" r="3" fill="#8a5a5a"/><circle cx="142.6" cy="145.1" r="3" fill="#8a5a5a"/><circle cx="145.5" cy="145.1" r="3" fill="#8a5a5a"/><circle cx="148.3" cy="145.1" r="3" fill="#8a5a5a"/><circle cx="151.2" cy="145.1" r="3" fill="#8a5a5a"/><circle cx="154.1" cy="145.1" r="3" fill="#8a5a5a"/><circle cx="157.0" cy="145.1" r="3" fill="#8a5a5a"/><circle cx="159.9" cy="145.1" r="3" fill="#8a5a5a"/><circle cx="162.8" cy="145.1" r="3" fill="#8a5a5a"/><circle cx="165.6" cy="145.1" r="3" fill="#8a5a5a"/><circle cx="168.5" cy="145.1" r="3" fill="#8a5a5a"/><circle cx="171.4" cy="145.1" r="3" fill="#8a5a5a"/><circle cx="174.3" cy="145.1" r="3" fill="#8a5a5a"/><circle cx="177.2" cy="145.1" r="3" fill="#8a5a5a"/><circle cx="180.0" cy="155.7" r="3" fill="#8a5a5a"/><circle cx="182.9" cy="155.7" r="3" fill="#8a5a5a"/><circle cx="185.8" cy="155.7" r="3" fill="#8a5a5a"/><circle cx="188.7" cy="155.7" r="3" fill="#8a5a5a"/><circle cx="191.6" cy="155.7" r="3" fill="#8a5a5a"/><circle cx="194.4" cy="155.7" r="3" fill="#8a5a5a"/><circle cx="197.3" cy="155.7" r="3" fill="#8a5a5a"/><circle cx="200.2" cy="155.7" r="3" fill="#8a5a5a"/><circle cx="203.1" cy="155.7" r="3" fill="#8a5a5a"/><circle cx="206.0" cy="155.7" r="3" fill="#8a5a5a"/><circle cx="208.8" cy="155.7" r="3" fill="#8a5a5a"/><circle cx="211.7" cy="155.7" r="3" fill="#8a5a5a"/><circle cx="214.6" cy="155.7" r="3" fill="#8a5a5a"/><circle cx="217.5" cy="155.7" r="3" fill="#8a5a5a"/><circle cx="220.4" cy="155.7" r="3" fill="#8a5a5a"/><circle cx="223.2" cy="155.7" r="3" fill="#8a5a5a"/><circle cx="226.1" cy="155.7" r="3" fill="#8a5a5a"/><circle cx="229.0" cy="155.7" r="3" fill="#8a5a5a"/><circle cx="231.9" cy="155.7" r="3" fill="#8a5a5a"/><circle cx="234.8" cy="155.7" r="3" fill="#8a5a5a"/><circle cx="237.7" cy="155.7" r="3" fill="#8a5a5a"/><circle cx="240.5" cy="155.7" r="3" fill="#8a5a5a"/><circle cx="243.4" cy="155.7" r="3" fill="#8a5a5a"/><circle cx="246.3" cy="155.7" r="3" fill="#8a5a5a"/><circle cx="249.2" cy="155.7" r="3" fill="#8a5a5a"/><circle cx="252.1" cy="155.7" r="3" fill="#8a5a5a"/><circle cx="254.9" cy="155.7" r="3" fill="#8a5a5a"/><circle cx="257.8" cy="155.7" r="3" fill="#8a5a5a"/><circle cx="260.7" cy="155.7" r="3" fill="#8a5a5a"/><circle cx="263.6" cy="155.7" r="3" fill="#8a5a5a"/><circle cx="266.5" cy="155.7" r="3" fill="#8a5a5a"/><circle cx="269.3" cy="155.7" r="3" fill="#8a5a5a"/><circle cx="272.2" cy="155.7" r="3" fill="#8a5a5a"/><circle cx="275.1" cy="155.7" r="3" fill="#8a5a5a"/><circle cx="278.0" cy="167.6" r="3" fill="#8a5a5a"/><circle cx="280.9" cy="167.6" r="3" fill="#8a5a5a"/><circle cx="283.7" cy="170.3" r="3" fill="#8a5a5a"/><circle cx="286.6" cy="170.3" r="3" fill="#8a5a5a"/><circle cx="289.5" cy="170.5" r="3" fill="#8a5a5a"/><circle cx="292.4" cy="170.7" r="3" fill="#8a5a5a"/><circle cx="295.3" cy="170.7" r="3" fill="#8a5a5a"/><circle cx="298.1" cy="170.9" r="3" fill="#8a5a5a"/><circle cx="301.0" cy="172.7" r="3" fill="#8a5a5a"/><circle cx="303.9" cy="180.6" r="3" fill="#8a5a5a"/><circle cx="306.8" cy="181.8" r="3" fill="#8a5a5a"/><circle cx="309.7" cy="189.1" r="3" fill="#8a5a5a"/><circle cx="312.6" cy="190.5" r="3" fill="#8a5a5a"/><circle cx="315.4" cy="195.2" r="3" fill="#8a5a5a"/><circle cx="318.3" cy="198.0" r="3" fill="#8a5a5a"/><circle cx="321.2" cy="198.0" r="3" fill="#8a5a5a"/><circle cx="324.1" cy="198.0" r="3" fill="#8a5a5a"/><circle cx="327.0" cy="198.0" r="3" fill="#8a5a5a"/><circle cx="329.8" cy="198.0" r="3" fill="#8a5a5a"/><circle cx="332.7" cy="198.0" r="3" fill="#8a5a5a"/><circle cx="335.6" cy="198.0" r="3" fill="#8a5a5a"/><circle cx="338.5" cy="198.0" r="3" fill="#8a5a5a"/><circle cx="341.4" cy="198.0" r="3" fill="#8a5a5a"/><circle cx="344.2" cy="198.0" r="3" fill="#8a5a5a"/><circle cx="347.1" cy="198.0" r="3" fill="#8a5a5a"/><circle cx="350.0" cy="198.0" r="3" fill="#8a5a5a"/><circle cx="352.9" cy="198.0" r="3" fill="#8a5a5a"/><circle cx="355.8" cy="198.0" r="3" fill="#8a5a5a"/><circle cx="358.6" cy="198.0" r="3" fill="#8a5a5a"/><circle cx="361.5" cy="198.0" r="3" fill="#8a5a5a"/><circle cx="364.4" cy="198.0" r="3" fill="#8a5a5a"/><circle cx="367.3" cy="198.0" r="3" fill="#8a5a5a"/><circle cx="370.2" cy="198.0" r="3" fill="#8a5a5a"/><circle cx="373.0" cy="198.0" r="3" fill="#8a5a5a"/><circle cx="375.9" cy="198.0" r="3" fill="#8a5a5a"/><circle cx="378.8" cy="198.0" r="3" fill="#8a5a5a"/><circle cx="381.7" cy="198.0" r="3" fill="#8a5a5a"/><circle cx="384.6" cy="198.0" r="3" fill="#8a5a5a"/><circle cx="387.4" cy="198.0" r="3" fill="#8a5a5a"/><circle cx="390.3" cy="198.0" r="3" fill="#8a5a5a"/><circle cx="393.2" cy="198.0" r="3" fill="#8a5a5a"/><circle cx="396.1" cy="198.0" r="3" fill="#8a5a5a"/><circle cx="399.0" cy="198.0" r="3" fill="#8a5a5a"/><circle cx="401.9" cy="198.0" r="3" fill="#8a5a5a"/><circle cx="404.7" cy="198.0" r="3" fill="#8a5a5a"/><circle cx="407.6" cy="198.0" r="3" fill="#8a5a5a"/><circle cx="410.5" cy="198.0" r="3" fill="#8a5a5a"/><circle cx="413.4" cy="198.0" r="3" fill="#8a5a5a"/><circle cx="416.3" cy="198.0" r="3" fill="#8a5a5a"/><circle cx="419.1" cy="198.0" r="3" fill="#8a5a5a"/><circle cx="422.0" cy="198.0" r="3" fill="#8a5a5a"/><circle cx="424.9" cy="198.0" r="3" fill="#8a5a5a"/><circle cx="427.8" cy="198.0" r="3" fill="#8a5a5a"/><circle cx="430.7" cy="198.0" r="3" fill="#8a5a5a"/><circle cx="433.5" cy="198.0" r="3" fill="#8a5a5a"/><circle cx="436.4" cy="198.0" r="3" fill="#8a5a5a"/><circle cx="439.3" cy="198.0" r="3" fill="#8a5a5a"/><circle cx="442.2" cy="198.0" r="3" fill="#8a5a5a"/><circle cx="445.1" cy="198.0" r="3" fill="#8a5a5a"/><circle cx="447.9" cy="198.0" r="3" fill="#8a5a5a"/><circle cx="450.8" cy="198.0" r="3" fill="#8a5a5a"/><circle cx="453.7" cy="198.0" r="3" fill="#8a5a5a"/><circle cx="456.6" cy="198.0" r="3" fill="#8a5a5a"/><circle cx="459.5" cy="198.0" r="3" fill="#8a5a5a"/><circle cx="462.3" cy="198.0" r="3" fill="#8a5a5a"/><circle cx="465.2" cy="198.0" r="3" fill="#8a5a5a"/><circle cx="468.1" cy="198.0" r="3" fill="#8a5a5a"/><circle cx="471.0" cy="198.0" r="3" fill="#8a5a5a"/><circle cx="473.9" cy="198.0" r="3" fill="#8a5a5a"/><circle cx="476.8" cy="198.0" r="3" fill="#8a5a5a"/><circle cx="479.6" cy="198.0" r="3" fill="#8a5a5a"/><circle cx="482.5" cy="198.0" r="3" fill="#8a5a5a"/><circle cx="485.4" cy="198.0" r="3" fill="#8a5a5a"/><circle cx="488.3" cy="198.0" r="3" fill="#8a5a5a"/><circle cx="491.2" cy="198.0" r="3" fill="#8a5a5a"/><circle cx="494.0" cy="198.0" r="3" fill="#8a5a5a"/><circle cx="496.9" cy="198.0" r="3" fill="#8a5a5a"/><circle cx="499.8" cy="198.0" r="3" fill="#8a5a5a"/><circle cx="502.7" cy="198.0" r="3" fill="#8a5a5a"/><circle cx="505.6" cy="198.0" r="3" fill="#8a5a5a"/><circle cx="508.4" cy="198.0" r="3" fill="#8a5a5a"/><circle cx="511.3" cy="198.0" r="3" fill="#8a5a5a"/><circle cx="514.2" cy="198.0" r="3" fill="#8a5a5a"/><circle cx="517.1" cy="198.0" r="3" fill="#8a5a5a"/><circle cx="520.0" cy="198.0" r="3" fill="#8a5a5a"/><circle cx="522.8" cy="198.0" r="3" fill="#8a5a5a"/><circle cx="525.7" cy="198.0" r="3" fill="#8a5a5a"/><circle cx="528.6" cy="198.0" r="3" fill="#8a5a5a"/><circle cx="531.5" cy="198.0" r="3" fill="#8a5a5a"/><circle cx="534.4" cy="198.0" r="3" fill="#8a5a5a"/><circle cx="537.2" cy="198.0" r="3" fill="#8a5a5a"/><circle cx="540.1" cy="198.0" r="3" fill="#8a5a5a"/><circle cx="543.0" cy="198.0" r="3" fill="#8a5a5a"/><circle cx="545.9" cy="198.0" r="3" fill="#8a5a5a"/><circle cx="548.8" cy="198.0" r="3" fill="#8a5a5a"/><circle cx="551.7" cy="198.0" r="3" fill="#8a5a5a"/><circle cx="554.5" cy="198.0" r="3" fill="#8a5a5a"/><circle cx="557.4" cy="198.0" r="3" fill="#8a5a5a"/><circle cx="560.3" cy="198.0" r="3" fill="#8a5a5a"/><circle cx="563.2" cy="198.0" r="3" fill="#8a5a5a"/><circle cx="566.1" cy="198.0" r="3" fill="#8a5a5a"/><circle cx="568.9" cy="198.0" r="3" fill="#8a5a5a"/><circle cx="571.8" cy="198.0" r="3" fill="#8a5a5a"/><circle cx="574.7" cy="198.0" r="3" fill="#8a5a5a"/><circle cx="577.6" cy="198.0" r="3" fill="#8a5a5a"/><circle cx="580.5" cy="198.0" r="3" fill="#8a5a5a"/><circle cx="583.3" cy="198.0" r="3" fill="#8a5a5a"/><circle cx="586.2" cy="198.0" r="3" fill="#8a5a5a"/><circle cx="589.1" cy="198.0" r="3" fill="#8a5a5a"/><circle cx="592.0" cy="198.0" r="3" fill="#8a5a5a"/><circle cx="594.9" cy="198.0" r="3" fill="#8a5a5a"/><circle cx="597.7" cy="198.0" r="3" fill="#8a5a5a"/><circle cx="600.6" cy="198.0" r="3" fill="#8a5a5a"/><circle cx="603.5" cy="198.0" r="3" fill="#8a5a5a"/><circle cx="606.4" cy="198.0" r="3" fill="#8a5a5a"/><circle cx="609.3" cy="198.0" r="3" fill="#8a5a5a"/><circle cx="612.1" cy="198.0" r="3" fill="#8a5a5a"/><circle cx="615.0" cy="198.0" r="3" fill="#8a5a5a"/><circle cx="617.9" cy="198.0" r="3" fill="#8a5a5a"/><circle cx="620.8" cy="198.0" r="3" fill="#8a5a5a"/><circle cx="623.7" cy="198.0" r="3" fill="#8a5a5a"/><circle cx="626.6" cy="198.0" r="3" fill="#8a5a5a"/><circle cx="629.4" cy="198.0" r="3" fill="#8a5a5a"/><circle cx="632.3" cy="198.0" r="3" fill="#8a5a5a"/><circle cx="635.2" cy="198.0" r="3" fill="#8a5a5a"/><circle cx="638.1" cy="198.0" r="3" fill="#8a5a5a"/><circle cx="641.0" cy="198.0" r="3" fill="#8a5a5a"/><circle cx="643.8" cy="198.0" r="3" fill="#8a5a5a"/><circle cx="646.7" cy="198.0" r="3" fill="#8a5a5a"/><circle cx="649.6" cy="198.0" r="3" fill="#8a5a5a"/><circle cx="652.5" cy="198.0" r="3" fill="#8a5a5a"/><circle cx="655.4" cy="198.0" r="3" fill="#8a5a5a"/><circle cx="658.2" cy="198.0" r="3" fill="#8a5a5a"/><circle cx="661.1" cy="198.0" r="3" fill="#8a5a5a"/><circle cx="664.0" cy="198.0" r="3" fill="#8a5a5a"/>
<polyline fill="none" stroke="#3fb950" stroke-width="2.5" stroke-linejoin="round" points="36.0,198.0 38.9,198.0 41.8,198.0 44.6,198.0 47.5,198.0 50.4,198.0 53.3,198.0 56.2,198.0 59.0,198.0 61.9,198.0 64.8,198.0 67.7,198.0 70.6,198.0 73.4,198.0 76.3,198.0 79.2,198.0 82.1,198.0 85.0,198.0 87.9,198.0 90.7,198.0 93.6,198.0 96.5,198.0 99.4,198.0 102.3,198.0 105.1,198.0 108.0,198.0 110.9,198.0 113.8,198.0 116.7,198.0 119.5,198.0 122.4,198.0 125.3,198.0 128.2,198.0 131.1,198.0 133.9,198.0 136.8,198.0 139.7,198.0 142.6,198.0 145.5,198.0 148.3,198.0 151.2,198.0 154.1,198.0 157.0,198.0 159.9,191.7 162.8,191.7 165.6,191.7 168.5,191.7 171.4,191.7 174.3,191.7 177.2,191.7 180.0,192.9 182.9,192.9 185.8,190.7 188.7,190.7 191.6,190.7 194.4,190.7 197.3,190.7 200.2,190.5 203.1,190.5 206.0,190.5 208.8,190.3 211.7,190.3 214.6,190.3 217.5,190.3 220.4,190.3 223.2,190.3 226.1,190.3 229.0,190.3 231.9,190.3 234.8,190.3 237.7,190.3 240.5,190.3 243.4,190.3 246.3,190.3 249.2,190.3 252.1,190.3 254.9,190.3 257.8,190.3 260.7,190.3 263.6,190.3 266.5,190.3 269.3,189.3 272.2,189.3 275.1,189.3 278.0,190.7 280.9,190.7 283.7,190.7 286.6,190.7 289.5,190.7 292.4,190.7 295.3,190.7 298.1,190.7 301.0,190.7 303.9,190.9 306.8,190.9 309.7,190.9 312.6,194.2 315.4,196.8 318.3,198.0 321.2,198.0 324.1,198.0 327.0,198.0 329.8,198.0 332.7,198.0 335.6,198.0 338.5,198.0 341.4,198.0 344.2,198.0 347.1,198.0 350.0,198.0 352.9,198.0 355.8,198.0 358.6,198.0 361.5,198.0 364.4,198.0 367.3,198.0 370.2,198.0 373.0,198.0 375.9,198.0 378.8,198.0 381.7,198.0 384.6,198.0 387.4,198.0 390.3,198.0 393.2,198.0 396.1,198.0 399.0,198.0 401.9,198.0 404.7,198.0 407.6,198.0 410.5,198.0 413.4,198.0 416.3,198.0 419.1,198.0 422.0,198.0 424.9,198.0 427.8,198.0 430.7,198.0 433.5,198.0 436.4,198.0 439.3,198.0 442.2,198.0 445.1,198.0 447.9,198.0 450.8,198.0 453.7,198.0 456.6,198.0 459.5,198.0 462.3,198.0 465.2,198.0 468.1,198.0 471.0,198.0 473.9,198.0 476.8,198.0 479.6,198.0 482.5,198.0 485.4,198.0 488.3,198.0 491.2,198.0 494.0,198.0 496.9,198.0 499.8,198.0 502.7,198.0 505.6,198.0 508.4,198.0 511.3,198.0 514.2,198.0 517.1,198.0 520.0,198.0 522.8,198.0 525.7,198.0 528.6,198.0 531.5,198.0 534.4,198.0 537.2,198.0 540.1,198.0 543.0,198.0 545.9,198.0 548.8,198.0 551.7,198.0 554.5,198.0 557.4,198.0 560.3,198.0 563.2,198.0 566.1,198.0 568.9,198.0 571.8,198.0 574.7,198.0 577.6,198.0 580.5,198.0 583.3,198.0 586.2,198.0 589.1,198.0 592.0,198.0 594.9,198.0 597.7,198.0 600.6,198.0 603.5,198.0 606.4,198.0 609.3,198.0 612.1,198.0 615.0,198.0 617.9,198.0 620.8,198.0 623.7,198.0 626.6,198.0 629.4,198.0 632.3,198.0 635.2,198.0 638.1,198.0 641.0,198.0 643.8,198.0 646.7,198.0 649.6,198.0 652.5,198.0 655.4,198.0 658.2,198.0 661.1,198.0 664.0,198.0"/><circle cx="36.0" cy="198.0" r="3" fill="#3fb950"/><circle cx="38.9" cy="198.0" r="3" fill="#3fb950"/><circle cx="41.8" cy="198.0" r="3" fill="#3fb950"/><circle cx="44.6" cy="198.0" r="3" fill="#3fb950"/><circle cx="47.5" cy="198.0" r="3" fill="#3fb950"/><circle cx="50.4" cy="198.0" r="3" fill="#3fb950"/><circle cx="53.3" cy="198.0" r="3" fill="#3fb950"/><circle cx="56.2" cy="198.0" r="3" fill="#3fb950"/><circle cx="59.0" cy="198.0" r="3" fill="#3fb950"/><circle cx="61.9" cy="198.0" r="3" fill="#3fb950"/><circle cx="64.8" cy="198.0" r="3" fill="#3fb950"/><circle cx="67.7" cy="198.0" r="3" fill="#3fb950"/><circle cx="70.6" cy="198.0" r="3" fill="#3fb950"/><circle cx="73.4" cy="198.0" r="3" fill="#3fb950"/><circle cx="76.3" cy="198.0" r="3" fill="#3fb950"/><circle cx="79.2" cy="198.0" r="3" fill="#3fb950"/><circle cx="82.1" cy="198.0" r="3" fill="#3fb950"/><circle cx="85.0" cy="198.0" r="3" fill="#3fb950"/><circle cx="87.9" cy="198.0" r="3" fill="#3fb950"/><circle cx="90.7" cy="198.0" r="3" fill="#3fb950"/><circle cx="93.6" cy="198.0" r="3" fill="#3fb950"/><circle cx="96.5" cy="198.0" r="3" fill="#3fb950"/><circle cx="99.4" cy="198.0" r="3" fill="#3fb950"/><circle cx="102.3" cy="198.0" r="3" fill="#3fb950"/><circle cx="105.1" cy="198.0" r="3" fill="#3fb950"/><circle cx="108.0" cy="198.0" r="3" fill="#3fb950"/><circle cx="110.9" cy="198.0" r="3" fill="#3fb950"/><circle cx="113.8" cy="198.0" r="3" fill="#3fb950"/><circle cx="116.7" cy="198.0" r="3" fill="#3fb950"/><circle cx="119.5" cy="198.0" r="3" fill="#3fb950"/><circle cx="122.4" cy="198.0" r="3" fill="#3fb950"/><circle cx="125.3" cy="198.0" r="3" fill="#3fb950"/><circle cx="128.2" cy="198.0" r="3" fill="#3fb950"/><circle cx="131.1" cy="198.0" r="3" fill="#3fb950"/><circle cx="133.9" cy="198.0" r="3" fill="#3fb950"/><circle cx="136.8" cy="198.0" r="3" fill="#3fb950"/><circle cx="139.7" cy="198.0" r="3" fill="#3fb950"/><circle cx="142.6" cy="198.0" r="3" fill="#3fb950"/><circle cx="145.5" cy="198.0" r="3" fill="#3fb950"/><circle cx="148.3" cy="198.0" r="3" fill="#3fb950"/><circle cx="151.2" cy="198.0" r="3" fill="#3fb950"/><circle cx="154.1" cy="198.0" r="3" fill="#3fb950"/><circle cx="157.0" cy="198.0" r="3" fill="#3fb950"/><circle cx="159.9" cy="191.7" r="3" fill="#3fb950"/><circle cx="162.8" cy="191.7" r="3" fill="#3fb950"/><circle cx="165.6" cy="191.7" r="3" fill="#3fb950"/><circle cx="168.5" cy="191.7" r="3" fill="#3fb950"/><circle cx="171.4" cy="191.7" r="3" fill="#3fb950"/><circle cx="174.3" cy="191.7" r="3" fill="#3fb950"/><circle cx="177.2" cy="191.7" r="3" fill="#3fb950"/><circle cx="180.0" cy="192.9" r="3" fill="#3fb950"/><circle cx="182.9" cy="192.9" r="3" fill="#3fb950"/><circle cx="185.8" cy="190.7" r="3" fill="#3fb950"/><circle cx="188.7" cy="190.7" r="3" fill="#3fb950"/><circle cx="191.6" cy="190.7" r="3" fill="#3fb950"/><circle cx="194.4" cy="190.7" r="3" fill="#3fb950"/><circle cx="197.3" cy="190.7" r="3" fill="#3fb950"/><circle cx="200.2" cy="190.5" r="3" fill="#3fb950"/><circle cx="203.1" cy="190.5" r="3" fill="#3fb950"/><circle cx="206.0" cy="190.5" r="3" fill="#3fb950"/><circle cx="208.8" cy="190.3" r="3" fill="#3fb950"/><circle cx="211.7" cy="190.3" r="3" fill="#3fb950"/><circle cx="214.6" cy="190.3" r="3" fill="#3fb950"/><circle cx="217.5" cy="190.3" r="3" fill="#3fb950"/><circle cx="220.4" cy="190.3" r="3" fill="#3fb950"/><circle cx="223.2" cy="190.3" r="3" fill="#3fb950"/><circle cx="226.1" cy="190.3" r="3" fill="#3fb950"/><circle cx="229.0" cy="190.3" r="3" fill="#3fb950"/><circle cx="231.9" cy="190.3" r="3" fill="#3fb950"/><circle cx="234.8" cy="190.3" r="3" fill="#3fb950"/><circle cx="237.7" cy="190.3" r="3" fill="#3fb950"/><circle cx="240.5" cy="190.3" r="3" fill="#3fb950"/><circle cx="243.4" cy="190.3" r="3" fill="#3fb950"/><circle cx="246.3" cy="190.3" r="3" fill="#3fb950"/><circle cx="249.2" cy="190.3" r="3" fill="#3fb950"/><circle cx="252.1" cy="190.3" r="3" fill="#3fb950"/><circle cx="254.9" cy="190.3" r="3" fill="#3fb950"/><circle cx="257.8" cy="190.3" r="3" fill="#3fb950"/><circle cx="260.7" cy="190.3" r="3" fill="#3fb950"/><circle cx="263.6" cy="190.3" r="3" fill="#3fb950"/><circle cx="266.5" cy="190.3" r="3" fill="#3fb950"/><circle cx="269.3" cy="189.3" r="3" fill="#3fb950"/><circle cx="272.2" cy="189.3" r="3" fill="#3fb950"/><circle cx="275.1" cy="189.3" r="3" fill="#3fb950"/><circle cx="278.0" cy="190.7" r="3" fill="#3fb950"/><circle cx="280.9" cy="190.7" r="3" fill="#3fb950"/><circle cx="283.7" cy="190.7" r="3" fill="#3fb950"/><circle cx="286.6" cy="190.7" r="3" fill="#3fb950"/><circle cx="289.5" cy="190.7" r="3" fill="#3fb950"/><circle cx="292.4" cy="190.7" r="3" fill="#3fb950"/><circle cx="295.3" cy="190.7" r="3" fill="#3fb950"/><circle cx="298.1" cy="190.7" r="3" fill="#3fb950"/><circle cx="301.0" cy="190.7" r="3" fill="#3fb950"/><circle cx="303.9" cy="190.9" r="3" fill="#3fb950"/><circle cx="306.8" cy="190.9" r="3" fill="#3fb950"/><circle cx="309.7" cy="190.9" r="3" fill="#3fb950"/><circle cx="312.6" cy="194.2" r="3" fill="#3fb950"/><circle cx="315.4" cy="196.8" r="3" fill="#3fb950"/><circle cx="318.3" cy="198.0" r="3" fill="#3fb950"/><circle cx="321.2" cy="198.0" r="3" fill="#3fb950"/><circle cx="324.1" cy="198.0" r="3" fill="#3fb950"/><circle cx="327.0" cy="198.0" r="3" fill="#3fb950"/><circle cx="329.8" cy="198.0" r="3" fill="#3fb950"/><circle cx="332.7" cy="198.0" r="3" fill="#3fb950"/><circle cx="335.6" cy="198.0" r="3" fill="#3fb950"/><circle cx="338.5" cy="198.0" r="3" fill="#3fb950"/><circle cx="341.4" cy="198.0" r="3" fill="#3fb950"/><circle cx="344.2" cy="198.0" r="3" fill="#3fb950"/><circle cx="347.1" cy="198.0" r="3" fill="#3fb950"/><circle cx="350.0" cy="198.0" r="3" fill="#3fb950"/><circle cx="352.9" cy="198.0" r="3" fill="#3fb950"/><circle cx="355.8" cy="198.0" r="3" fill="#3fb950"/><circle cx="358.6" cy="198.0" r="3" fill="#3fb950"/><circle cx="361.5" cy="198.0" r="3" fill="#3fb950"/><circle cx="364.4" cy="198.0" r="3" fill="#3fb950"/><circle cx="367.3" cy="198.0" r="3" fill="#3fb950"/><circle cx="370.2" cy="198.0" r="3" fill="#3fb950"/><circle cx="373.0" cy="198.0" r="3" fill="#3fb950"/><circle cx="375.9" cy="198.0" r="3" fill="#3fb950"/><circle cx="378.8" cy="198.0" r="3" fill="#3fb950"/><circle cx="381.7" cy="198.0" r="3" fill="#3fb950"/><circle cx="384.6" cy="198.0" r="3" fill="#3fb950"/><circle cx="387.4" cy="198.0" r="3" fill="#3fb950"/><circle cx="390.3" cy="198.0" r="3" fill="#3fb950"/><circle cx="393.2" cy="198.0" r="3" fill="#3fb950"/><circle cx="396.1" cy="198.0" r="3" fill="#3fb950"/><circle cx="399.0" cy="198.0" r="3" fill="#3fb950"/><circle cx="401.9" cy="198.0" r="3" fill="#3fb950"/><circle cx="404.7" cy="198.0" r="3" fill="#3fb950"/><circle cx="407.6" cy="198.0" r="3" fill="#3fb950"/><circle cx="410.5" cy="198.0" r="3" fill="#3fb950"/><circle cx="413.4" cy="198.0" r="3" fill="#3fb950"/><circle cx="416.3" cy="198.0" r="3" fill="#3fb950"/><circle cx="419.1" cy="198.0" r="3" fill="#3fb950"/><circle cx="422.0" cy="198.0" r="3" fill="#3fb950"/><circle cx="424.9" cy="198.0" r="3" fill="#3fb950"/><circle cx="427.8" cy="198.0" r="3" fill="#3fb950"/><circle cx="430.7" cy="198.0" r="3" fill="#3fb950"/><circle cx="433.5" cy="198.0" r="3" fill="#3fb950"/><circle cx="436.4" cy="198.0" r="3" fill="#3fb950"/><circle cx="439.3" cy="198.0" r="3" fill="#3fb950"/><circle cx="442.2" cy="198.0" r="3" fill="#3fb950"/><circle cx="445.1" cy="198.0" r="3" fill="#3fb950"/><circle cx="447.9" cy="198.0" r="3" fill="#3fb950"/><circle cx="450.8" cy="198.0" r="3" fill="#3fb950"/><circle cx="453.7" cy="198.0" r="3" fill="#3fb950"/><circle cx="456.6" cy="198.0" r="3" fill="#3fb950"/><circle cx="459.5" cy="198.0" r="3" fill="#3fb950"/><circle cx="462.3" cy="198.0" r="3" fill="#3fb950"/><circle cx="465.2" cy="198.0" r="3" fill="#3fb950"/><circle cx="468.1" cy="198.0" r="3" fill="#3fb950"/><circle cx="471.0" cy="198.0" r="3" fill="#3fb950"/><circle cx="473.9" cy="198.0" r="3" fill="#3fb950"/><circle cx="476.8" cy="198.0" r="3" fill="#3fb950"/><circle cx="479.6" cy="198.0" r="3" fill="#3fb950"/><circle cx="482.5" cy="198.0" r="3" fill="#3fb950"/><circle cx="485.4" cy="198.0" r="3" fill="#3fb950"/><circle cx="488.3" cy="198.0" r="3" fill="#3fb950"/><circle cx="491.2" cy="198.0" r="3" fill="#3fb950"/><circle cx="494.0" cy="198.0" r="3" fill="#3fb950"/><circle cx="496.9" cy="198.0" r="3" fill="#3fb950"/><circle cx="499.8" cy="198.0" r="3" fill="#3fb950"/><circle cx="502.7" cy="198.0" r="3" fill="#3fb950"/><circle cx="505.6" cy="198.0" r="3" fill="#3fb950"/><circle cx="508.4" cy="198.0" r="3" fill="#3fb950"/><circle cx="511.3" cy="198.0" r="3" fill="#3fb950"/><circle cx="514.2" cy="198.0" r="3" fill="#3fb950"/><circle cx="517.1" cy="198.0" r="3" fill="#3fb950"/><circle cx="520.0" cy="198.0" r="3" fill="#3fb950"/><circle cx="522.8" cy="198.0" r="3" fill="#3fb950"/><circle cx="525.7" cy="198.0" r="3" fill="#3fb950"/><circle cx="528.6" cy="198.0" r="3" fill="#3fb950"/><circle cx="531.5" cy="198.0" r="3" fill="#3fb950"/><circle cx="534.4" cy="198.0" r="3" fill="#3fb950"/><circle cx="537.2" cy="198.0" r="3" fill="#3fb950"/><circle cx="540.1" cy="198.0" r="3" fill="#3fb950"/><circle cx="543.0" cy="198.0" r="3" fill="#3fb950"/><circle cx="545.9" cy="198.0" r="3" fill="#3fb950"/><circle cx="548.8" cy="198.0" r="3" fill="#3fb950"/><circle cx="551.7" cy="198.0" r="3" fill="#3fb950"/><circle cx="554.5" cy="198.0" r="3" fill="#3fb950"/><circle cx="557.4" cy="198.0" r="3" fill="#3fb950"/><circle cx="560.3" cy="198.0" r="3" fill="#3fb950"/><circle cx="563.2" cy="198.0" r="3" fill="#3fb950"/><circle cx="566.1" cy="198.0" r="3" fill="#3fb950"/><circle cx="568.9" cy="198.0" r="3" fill="#3fb950"/><circle cx="571.8" cy="198.0" r="3" fill="#3fb950"/><circle cx="574.7" cy="198.0" r="3" fill="#3fb950"/><circle cx="577.6" cy="198.0" r="3" fill="#3fb950"/><circle cx="580.5" cy="198.0" r="3" fill="#3fb950"/><circle cx="583.3" cy="198.0" r="3" fill="#3fb950"/><circle cx="586.2" cy="198.0" r="3" fill="#3fb950"/><circle cx="589.1" cy="198.0" r="3" fill="#3fb950"/><circle cx="592.0" cy="198.0" r="3" fill="#3fb950"/><circle cx="594.9" cy="198.0" r="3" fill="#3fb950"/><circle cx="597.7" cy="198.0" r="3" fill="#3fb950"/><circle cx="600.6" cy="198.0" r="3" fill="#3fb950"/><circle cx="603.5" cy="198.0" r="3" fill="#3fb950"/><circle cx="606.4" cy="198.0" r="3" fill="#3fb950"/><circle cx="609.3" cy="198.0" r="3" fill="#3fb950"/><circle cx="612.1" cy="198.0" r="3" fill="#3fb950"/><circle cx="615.0" cy="198.0" r="3" fill="#3fb950"/><circle cx="617.9" cy="198.0" r="3" fill="#3fb950"/><circle cx="620.8" cy="198.0" r="3" fill="#3fb950"/><circle cx="623.7" cy="198.0" r="3" fill="#3fb950"/><circle cx="626.6" cy="198.0" r="3" fill="#3fb950"/><circle cx="629.4" cy="198.0" r="3" fill="#3fb950"/><circle cx="632.3" cy="198.0" r="3" fill="#3fb950"/><circle cx="635.2" cy="198.0" r="3" fill="#3fb950"/><circle cx="638.1" cy="198.0" r="3" fill="#3fb950"/><circle cx="641.0" cy="198.0" r="3" fill="#3fb950"/><circle cx="643.8" cy="198.0" r="3" fill="#3fb950"/><circle cx="646.7" cy="198.0" r="3" fill="#3fb950"/><circle cx="649.6" cy="198.0" r="3" fill="#3fb950"/><circle cx="652.5" cy="198.0" r="3" fill="#3fb950"/><circle cx="655.4" cy="198.0" r="3" fill="#3fb950"/><circle cx="658.2" cy="198.0" r="3" fill="#3fb950"/><circle cx="661.1" cy="198.0" r="3" fill="#3fb950"/><circle cx="664.0" cy="198.0" r="3" fill="#3fb950"/>
<polyline fill="none" stroke="#4aa3ff" stroke-width="2.5" stroke-linejoin="round" points="36.0,144.3 38.9,144.3 41.8,144.3 44.6,144.3 47.5,144.3 50.4,144.3 53.3,144.3 56.2,144.3 59.0,144.3 61.9,144.3 64.8,144.3 67.7,144.3 70.6,144.3 73.4,144.3 76.3,144.3 79.2,136.2 82.1,132.4 85.0,129.6 87.9,129.6 90.7,121.0 93.6,121.0 96.5,121.0 99.4,114.4 102.3,114.4 105.1,114.4 108.0,111.3 110.9,110.9 113.8,110.9 116.7,110.5 119.5,110.5 122.4,109.9 125.3,108.7 128.2,107.3 131.1,106.9 133.9,106.9 136.8,106.9 139.7,106.9 142.6,106.9 145.5,106.9 148.3,106.9 151.2,106.9 154.1,106.9 157.0,106.9 159.9,113.2 162.8,113.2 165.6,113.2 168.5,113.2 171.4,113.2 174.3,110.7 177.2,105.3 180.0,83.4 182.9,83.4 185.8,85.6 188.7,85.6 191.6,85.6 194.4,85.6 197.3,85.6 200.2,85.8 203.1,85.8 206.0,85.8 208.8,86.0 211.7,86.0 214.6,86.0 217.5,86.0 220.4,86.0 223.2,86.0 226.1,86.0 229.0,86.0 231.9,86.0 234.8,86.0 237.7,86.0 240.5,86.0 243.4,86.0 246.3,86.0 249.2,86.0 252.1,86.0 254.9,86.0 257.8,86.0 260.7,86.0 263.6,86.0 266.5,86.0 269.3,87.0 272.2,87.0 275.1,87.0 278.0,73.7 280.9,73.7 283.7,71.0 286.6,71.0 289.5,70.8 292.4,70.6 295.3,70.6 298.1,70.4 301.0,68.6 303.9,60.5 306.8,59.3 309.7,52.0 312.6,47.3 315.4,40.1 318.3,36.0 321.2,36.0 324.1,36.0 327.0,36.0 329.8,36.0 332.7,36.0 335.6,36.0 338.5,36.0 341.4,36.0 344.2,36.0 347.1,36.0 350.0,36.0 352.9,36.0 355.8,36.0 358.6,36.0 361.5,36.0 364.4,36.0 367.3,36.0 370.2,36.0 373.0,36.0 375.9,36.0 378.8,36.0 381.7,36.0 384.6,36.0 387.4,36.0 390.3,36.0 393.2,36.0 396.1,36.0 399.0,36.0 401.9,36.0 404.7,36.0 407.6,36.0 410.5,36.0 413.4,36.0 416.3,36.0 419.1,36.0 422.0,36.0 424.9,36.0 427.8,36.0 430.7,36.0 433.5,36.0 436.4,36.0 439.3,36.0 442.2,36.0 445.1,36.0 447.9,36.0 450.8,36.0 453.7,36.0 456.6,36.0 459.5,36.0 462.3,36.0 465.2,36.0 468.1,36.0 471.0,36.0 473.9,36.0 476.8,36.0 479.6,36.0 482.5,36.0 485.4,36.0 488.3,36.0 491.2,36.0 494.0,36.0 496.9,36.0 499.8,36.0 502.7,36.0 505.6,36.0 508.4,36.0 511.3,36.0 514.2,36.0 517.1,36.0 520.0,36.0 522.8,36.0 525.7,36.0 528.6,36.0 531.5,36.0 534.4,36.0 537.2,36.0 540.1,36.0 543.0,36.0 545.9,36.0 548.8,36.0 551.7,36.0 554.5,36.0 557.4,36.0 560.3,36.0 563.2,36.0 566.1,36.0 568.9,36.0 571.8,36.0 574.7,36.0 577.6,36.0 580.5,36.0 583.3,36.0 586.2,36.0 589.1,36.0 592.0,36.0 594.9,36.0 597.7,36.0 600.6,36.0 603.5,36.0 606.4,36.0 609.3,36.0 612.1,36.0 615.0,36.0 617.9,36.0 620.8,36.0 623.7,36.0 626.6,36.0 629.4,36.0 632.3,36.0 635.2,36.0 638.1,36.0 641.0,36.0 643.8,36.0 646.7,36.0 649.6,36.0 652.5,36.0 655.4,36.0 658.2,36.0 661.1,36.0 664.0,36.0"/><circle cx="36.0" cy="144.3" r="3" fill="#4aa3ff"/><circle cx="38.9" cy="144.3" r="3" fill="#4aa3ff"/><circle cx="41.8" cy="144.3" r="3" fill="#4aa3ff"/><circle cx="44.6" cy="144.3" r="3" fill="#4aa3ff"/><circle cx="47.5" cy="144.3" r="3" fill="#4aa3ff"/><circle cx="50.4" cy="144.3" r="3" fill="#4aa3ff"/><circle cx="53.3" cy="144.3" r="3" fill="#4aa3ff"/><circle cx="56.2" cy="144.3" r="3" fill="#4aa3ff"/><circle cx="59.0" cy="144.3" r="3" fill="#4aa3ff"/><circle cx="61.9" cy="144.3" r="3" fill="#4aa3ff"/><circle cx="64.8" cy="144.3" r="3" fill="#4aa3ff"/><circle cx="67.7" cy="144.3" r="3" fill="#4aa3ff"/><circle cx="70.6" cy="144.3" r="3" fill="#4aa3ff"/><circle cx="73.4" cy="144.3" r="3" fill="#4aa3ff"/><circle cx="76.3" cy="144.3" r="3" fill="#4aa3ff"/><circle cx="79.2" cy="136.2" r="3" fill="#4aa3ff"/><circle cx="82.1" cy="132.4" r="3" fill="#4aa3ff"/><circle cx="85.0" cy="129.6" r="3" fill="#4aa3ff"/><circle cx="87.9" cy="129.6" r="3" fill="#4aa3ff"/><circle cx="90.7" cy="121.0" r="3" fill="#4aa3ff"/><circle cx="93.6" cy="121.0" r="3" fill="#4aa3ff"/><circle cx="96.5" cy="121.0" r="3" fill="#4aa3ff"/><circle cx="99.4" cy="114.4" r="3" fill="#4aa3ff"/><circle cx="102.3" cy="114.4" r="3" fill="#4aa3ff"/><circle cx="105.1" cy="114.4" r="3" fill="#4aa3ff"/><circle cx="108.0" cy="111.3" r="3" fill="#4aa3ff"/><circle cx="110.9" cy="110.9" r="3" fill="#4aa3ff"/><circle cx="113.8" cy="110.9" r="3" fill="#4aa3ff"/><circle cx="116.7" cy="110.5" r="3" fill="#4aa3ff"/><circle cx="119.5" cy="110.5" r="3" fill="#4aa3ff"/><circle cx="122.4" cy="109.9" r="3" fill="#4aa3ff"/><circle cx="125.3" cy="108.7" r="3" fill="#4aa3ff"/><circle cx="128.2" cy="107.3" r="3" fill="#4aa3ff"/><circle cx="131.1" cy="106.9" r="3" fill="#4aa3ff"/><circle cx="133.9" cy="106.9" r="3" fill="#4aa3ff"/><circle cx="136.8" cy="106.9" r="3" fill="#4aa3ff"/><circle cx="139.7" cy="106.9" r="3" fill="#4aa3ff"/><circle cx="142.6" cy="106.9" r="3" fill="#4aa3ff"/><circle cx="145.5" cy="106.9" r="3" fill="#4aa3ff"/><circle cx="148.3" cy="106.9" r="3" fill="#4aa3ff"/><circle cx="151.2" cy="106.9" r="3" fill="#4aa3ff"/><circle cx="154.1" cy="106.9" r="3" fill="#4aa3ff"/><circle cx="157.0" cy="106.9" r="3" fill="#4aa3ff"/><circle cx="159.9" cy="113.2" r="3" fill="#4aa3ff"/><circle cx="162.8" cy="113.2" r="3" fill="#4aa3ff"/><circle cx="165.6" cy="113.2" r="3" fill="#4aa3ff"/><circle cx="168.5" cy="113.2" r="3" fill="#4aa3ff"/><circle cx="171.4" cy="113.2" r="3" fill="#4aa3ff"/><circle cx="174.3" cy="110.7" r="3" fill="#4aa3ff"/><circle cx="177.2" cy="105.3" r="3" fill="#4aa3ff"/><circle cx="180.0" cy="83.4" r="3" fill="#4aa3ff"/><circle cx="182.9" cy="83.4" r="3" fill="#4aa3ff"/><circle cx="185.8" cy="85.6" r="3" fill="#4aa3ff"/><circle cx="188.7" cy="85.6" r="3" fill="#4aa3ff"/><circle cx="191.6" cy="85.6" r="3" fill="#4aa3ff"/><circle cx="194.4" cy="85.6" r="3" fill="#4aa3ff"/><circle cx="197.3" cy="85.6" r="3" fill="#4aa3ff"/><circle cx="200.2" cy="85.8" r="3" fill="#4aa3ff"/><circle cx="203.1" cy="85.8" r="3" fill="#4aa3ff"/><circle cx="206.0" cy="85.8" r="3" fill="#4aa3ff"/><circle cx="208.8" cy="86.0" r="3" fill="#4aa3ff"/><circle cx="211.7" cy="86.0" r="3" fill="#4aa3ff"/><circle cx="214.6" cy="86.0" r="3" fill="#4aa3ff"/><circle cx="217.5" cy="86.0" r="3" fill="#4aa3ff"/><circle cx="220.4" cy="86.0" r="3" fill="#4aa3ff"/><circle cx="223.2" cy="86.0" r="3" fill="#4aa3ff"/><circle cx="226.1" cy="86.0" r="3" fill="#4aa3ff"/><circle cx="229.0" cy="86.0" r="3" fill="#4aa3ff"/><circle cx="231.9" cy="86.0" r="3" fill="#4aa3ff"/><circle cx="234.8" cy="86.0" r="3" fill="#4aa3ff"/><circle cx="237.7" cy="86.0" r="3" fill="#4aa3ff"/><circle cx="240.5" cy="86.0" r="3" fill="#4aa3ff"/><circle cx="243.4" cy="86.0" r="3" fill="#4aa3ff"/><circle cx="246.3" cy="86.0" r="3" fill="#4aa3ff"/><circle cx="249.2" cy="86.0" r="3" fill="#4aa3ff"/><circle cx="252.1" cy="86.0" r="3" fill="#4aa3ff"/><circle cx="254.9" cy="86.0" r="3" fill="#4aa3ff"/><circle cx="257.8" cy="86.0" r="3" fill="#4aa3ff"/><circle cx="260.7" cy="86.0" r="3" fill="#4aa3ff"/><circle cx="263.6" cy="86.0" r="3" fill="#4aa3ff"/><circle cx="266.5" cy="86.0" r="3" fill="#4aa3ff"/><circle cx="269.3" cy="87.0" r="3" fill="#4aa3ff"/><circle cx="272.2" cy="87.0" r="3" fill="#4aa3ff"/><circle cx="275.1" cy="87.0" r="3" fill="#4aa3ff"/><circle cx="278.0" cy="73.7" r="3" fill="#4aa3ff"/><circle cx="280.9" cy="73.7" r="3" fill="#4aa3ff"/><circle cx="283.7" cy="71.0" r="3" fill="#4aa3ff"/><circle cx="286.6" cy="71.0" r="3" fill="#4aa3ff"/><circle cx="289.5" cy="70.8" r="3" fill="#4aa3ff"/><circle cx="292.4" cy="70.6" r="3" fill="#4aa3ff"/><circle cx="295.3" cy="70.6" r="3" fill="#4aa3ff"/><circle cx="298.1" cy="70.4" r="3" fill="#4aa3ff"/><circle cx="301.0" cy="68.6" r="3" fill="#4aa3ff"/><circle cx="303.9" cy="60.5" r="3" fill="#4aa3ff"/><circle cx="306.8" cy="59.3" r="3" fill="#4aa3ff"/><circle cx="309.7" cy="52.0" r="3" fill="#4aa3ff"/><circle cx="312.6" cy="47.3" r="3" fill="#4aa3ff"/><circle cx="315.4" cy="40.1" r="3" fill="#4aa3ff"/><circle cx="318.3" cy="36.0" r="3" fill="#4aa3ff"/><circle cx="321.2" cy="36.0" r="3" fill="#4aa3ff"/><circle cx="324.1" cy="36.0" r="3" fill="#4aa3ff"/><circle cx="327.0" cy="36.0" r="3" fill="#4aa3ff"/><circle cx="329.8" cy="36.0" r="3" fill="#4aa3ff"/><circle cx="332.7" cy="36.0" r="3" fill="#4aa3ff"/><circle cx="335.6" cy="36.0" r="3" fill="#4aa3ff"/><circle cx="338.5" cy="36.0" r="3" fill="#4aa3ff"/><circle cx="341.4" cy="36.0" r="3" fill="#4aa3ff"/><circle cx="344.2" cy="36.0" r="3" fill="#4aa3ff"/><circle cx="347.1" cy="36.0" r="3" fill="#4aa3ff"/><circle cx="350.0" cy="36.0" r="3" fill="#4aa3ff"/><circle cx="352.9" cy="36.0" r="3" fill="#4aa3ff"/><circle cx="355.8" cy="36.0" r="3" fill="#4aa3ff"/><circle cx="358.6" cy="36.0" r="3" fill="#4aa3ff"/><circle cx="361.5" cy="36.0" r="3" fill="#4aa3ff"/><circle cx="364.4" cy="36.0" r="3" fill="#4aa3ff"/><circle cx="367.3" cy="36.0" r="3" fill="#4aa3ff"/><circle cx="370.2" cy="36.0" r="3" fill="#4aa3ff"/><circle cx="373.0" cy="36.0" r="3" fill="#4aa3ff"/><circle cx="375.9" cy="36.0" r="3" fill="#4aa3ff"/><circle cx="378.8" cy="36.0" r="3" fill="#4aa3ff"/><circle cx="381.7" cy="36.0" r="3" fill="#4aa3ff"/><circle cx="384.6" cy="36.0" r="3" fill="#4aa3ff"/><circle cx="387.4" cy="36.0" r="3" fill="#4aa3ff"/><circle cx="390.3" cy="36.0" r="3" fill="#4aa3ff"/><circle cx="393.2" cy="36.0" r="3" fill="#4aa3ff"/><circle cx="396.1" cy="36.0" r="3" fill="#4aa3ff"/><circle cx="399.0" cy="36.0" r="3" fill="#4aa3ff"/><circle cx="401.9" cy="36.0" r="3" fill="#4aa3ff"/><circle cx="404.7" cy="36.0" r="3" fill="#4aa3ff"/><circle cx="407.6" cy="36.0" r="3" fill="#4aa3ff"/><circle cx="410.5" cy="36.0" r="3" fill="#4aa3ff"/><circle cx="413.4" cy="36.0" r="3" fill="#4aa3ff"/><circle cx="416.3" cy="36.0" r="3" fill="#4aa3ff"/><circle cx="419.1" cy="36.0" r="3" fill="#4aa3ff"/><circle cx="422.0" cy="36.0" r="3" fill="#4aa3ff"/><circle cx="424.9" cy="36.0" r="3" fill="#4aa3ff"/><circle cx="427.8" cy="36.0" r="3" fill="#4aa3ff"/><circle cx="430.7" cy="36.0" r="3" fill="#4aa3ff"/><circle cx="433.5" cy="36.0" r="3" fill="#4aa3ff"/><circle cx="436.4" cy="36.0" r="3" fill="#4aa3ff"/><circle cx="439.3" cy="36.0" r="3" fill="#4aa3ff"/><circle cx="442.2" cy="36.0" r="3" fill="#4aa3ff"/><circle cx="445.1" cy="36.0" r="3" fill="#4aa3ff"/><circle cx="447.9" cy="36.0" r="3" fill="#4aa3ff"/><circle cx="450.8" cy="36.0" r="3" fill="#4aa3ff"/><circle cx="453.7" cy="36.0" r="3" fill="#4aa3ff"/><circle cx="456.6" cy="36.0" r="3" fill="#4aa3ff"/><circle cx="459.5" cy="36.0" r="3" fill="#4aa3ff"/><circle cx="462.3" cy="36.0" r="3" fill="#4aa3ff"/><circle cx="465.2" cy="36.0" r="3" fill="#4aa3ff"/><circle cx="468.1" cy="36.0" r="3" fill="#4aa3ff"/><circle cx="471.0" cy="36.0" r="3" fill="#4aa3ff"/><circle cx="473.9" cy="36.0" r="3" fill="#4aa3ff"/><circle cx="476.8" cy="36.0" r="3" fill="#4aa3ff"/><circle cx="479.6" cy="36.0" r="3" fill="#4aa3ff"/><circle cx="482.5" cy="36.0" r="3" fill="#4aa3ff"/><circle cx="485.4" cy="36.0" r="3" fill="#4aa3ff"/><circle cx="488.3" cy="36.0" r="3" fill="#4aa3ff"/><circle cx="491.2" cy="36.0" r="3" fill="#4aa3ff"/><circle cx="494.0" cy="36.0" r="3" fill="#4aa3ff"/><circle cx="496.9" cy="36.0" r="3" fill="#4aa3ff"/><circle cx="499.8" cy="36.0" r="3" fill="#4aa3ff"/><circle cx="502.7" cy="36.0" r="3" fill="#4aa3ff"/><circle cx="505.6" cy="36.0" r="3" fill="#4aa3ff"/><circle cx="508.4" cy="36.0" r="3" fill="#4aa3ff"/><circle cx="511.3" cy="36.0" r="3" fill="#4aa3ff"/><circle cx="514.2" cy="36.0" r="3" fill="#4aa3ff"/><circle cx="517.1" cy="36.0" r="3" fill="#4aa3ff"/><circle cx="520.0" cy="36.0" r="3" fill="#4aa3ff"/><circle cx="522.8" cy="36.0" r="3" fill="#4aa3ff"/><circle cx="525.7" cy="36.0" r="3" fill="#4aa3ff"/><circle cx="528.6" cy="36.0" r="3" fill="#4aa3ff"/><circle cx="531.5" cy="36.0" r="3" fill="#4aa3ff"/><circle cx="534.4" cy="36.0" r="3" fill="#4aa3ff"/><circle cx="537.2" cy="36.0" r="3" fill="#4aa3ff"/><circle cx="540.1" cy="36.0" r="3" fill="#4aa3ff"/><circle cx="543.0" cy="36.0" r="3" fill="#4aa3ff"/><circle cx="545.9" cy="36.0" r="3" fill="#4aa3ff"/><circle cx="548.8" cy="36.0" r="3" fill="#4aa3ff"/><circle cx="551.7" cy="36.0" r="3" fill="#4aa3ff"/><circle cx="554.5" cy="36.0" r="3" fill="#4aa3ff"/><circle cx="557.4" cy="36.0" r="3" fill="#4aa3ff"/><circle cx="560.3" cy="36.0" r="3" fill="#4aa3ff"/><circle cx="563.2" cy="36.0" r="3" fill="#4aa3ff"/><circle cx="566.1" cy="36.0" r="3" fill="#4aa3ff"/><circle cx="568.9" cy="36.0" r="3" fill="#4aa3ff"/><circle cx="571.8" cy="36.0" r="3" fill="#4aa3ff"/><circle cx="574.7" cy="36.0" r="3" fill="#4aa3ff"/><circle cx="577.6" cy="36.0" r="3" fill="#4aa3ff"/><circle cx="580.5" cy="36.0" r="3" fill="#4aa3ff"/><circle cx="583.3" cy="36.0" r="3" fill="#4aa3ff"/><circle cx="586.2" cy="36.0" r="3" fill="#4aa3ff"/><circle cx="589.1" cy="36.0" r="3" fill="#4aa3ff"/><circle cx="592.0" cy="36.0" r="3" fill="#4aa3ff"/><circle cx="594.9" cy="36.0" r="3" fill="#4aa3ff"/><circle cx="597.7" cy="36.0" r="3" fill="#4aa3ff"/><circle cx="600.6" cy="36.0" r="3" fill="#4aa3ff"/><circle cx="603.5" cy="36.0" r="3" fill="#4aa3ff"/><circle cx="606.4" cy="36.0" r="3" fill="#4aa3ff"/><circle cx="609.3" cy="36.0" r="3" fill="#4aa3ff"/><circle cx="612.1" cy="36.0" r="3" fill="#4aa3ff"/><circle cx="615.0" cy="36.0" r="3" fill="#4aa3ff"/><circle cx="617.9" cy="36.0" r="3" fill="#4aa3ff"/><circle cx="620.8" cy="36.0" r="3" fill="#4aa3ff"/><circle cx="623.7" cy="36.0" r="3" fill="#4aa3ff"/><circle cx="626.6" cy="36.0" r="3" fill="#4aa3ff"/><circle cx="629.4" cy="36.0" r="3" fill="#4aa3ff"/><circle cx="632.3" cy="36.0" r="3" fill="#4aa3ff"/><circle cx="635.2" cy="36.0" r="3" fill="#4aa3ff"/><circle cx="638.1" cy="36.0" r="3" fill="#4aa3ff"/><circle cx="641.0" cy="36.0" r="3" fill="#4aa3ff"/><circle cx="643.8" cy="36.0" r="3" fill="#4aa3ff"/><circle cx="646.7" cy="36.0" r="3" fill="#4aa3ff"/><circle cx="649.6" cy="36.0" r="3" fill="#4aa3ff"/><circle cx="652.5" cy="36.0" r="3" fill="#4aa3ff"/><circle cx="655.4" cy="36.0" r="3" fill="#4aa3ff"/><circle cx="658.2" cy="36.0" r="3" fill="#4aa3ff"/><circle cx="661.1" cy="36.0" r="3" fill="#4aa3ff"/><circle cx="664.0" cy="36.0" r="3" fill="#4aa3ff"/>
<text x="36" y="225" fill="#6b7280" font-size="11">2026-06-26</text>
<text x="664" y="225" fill="#6b7280" font-size="11" text-anchor="end">2026-07-18</text>
<text x="36" y="212" font-family="system-ui,sans-serif" font-size="11">
<tspan fill="#4aa3ff">&#9679; open FPs</tspan>  <tspan fill="#3fb950">&#9679; closed (Anthropic acting)</tspan>  <tspan fill="#8a5a5a">&#9679; harness withdrawn</tspan></text>
<text x="664" y="22" text-anchor="end" font-family="system-ui,sans-serif" font-size="12">
<tspan fill="#4aa3ff">open 800</tspan>  <tspan fill="#3fb950">closed 0</tspan>  <tspan fill="#8a5a5a">harness 0</tspan></text>
</svg>