<svg xmlns="http://www.w3.org/2000/svg" width="700" height="234" viewBox="0 0 700 234" role="img">
<rect width="700" height="234" rx="12" fill="#16181d"/>
<text x="36" y="22" fill="#e8eaed" font-family="system-ui,sans-serif" font-size="14" font-weight="700">Is Anthropic acting? cyber/aup false positives over time</text>
<line x1="36" y1="198.0" x2="664" y2="198.0" stroke="#2a2e37" stroke-width="1"/><text x="30" y="202.0" fill="#6b7280" font-size="11" text-anchor="end">0</text><line x1="36" y1="117.0" x2="664" y2="117.0" stroke="#2a2e37" stroke-width="1"/><text x="30" y="121.0" fill="#6b7280" font-size="11" text-anchor="end">400</text><line x1="36" y1="36.0" x2="664" y2="36.0" stroke="#2a2e37" stroke-width="1"/><text x="30" y="40.0" fill="#6b7280" font-size="11" text-anchor="end">800</text>

<polyline fill="none" stroke="#8a5a5a" stroke-width="2.5" stroke-linejoin="round" points="36.0,145.1 41.9,145.1 47.8,145.1 53.8,145.1 59.7,145.1 65.6,145.1 71.5,145.1 77.5,145.1 83.4,145.1 89.3,145.1 95.2,145.1 101.2,145.1 107.1,145.1 113.0,145.1 118.9,145.1 124.9,145.1 130.8,145.1 136.7,145.1 142.6,145.1 148.6,145.1 154.5,145.1 160.4,145.1 166.3,145.1 172.3,145.1 178.2,145.1 184.1,145.1 190.0,145.1 196.0,145.1 201.9,145.1 207.8,145.1 213.7,145.1 219.7,145.1 225.6,145.1 231.5,145.1 237.4,145.1 243.4,145.1 249.3,145.1 255.2,145.1 261.1,145.1 267.1,145.1 273.0,145.1 278.9,145.1 284.8,145.1 290.8,145.1 296.7,145.1 302.6,145.1 308.5,145.1 314.5,145.1 320.4,145.1 326.3,145.1 332.2,155.7 338.2,155.7 344.1,155.7 350.0,155.7 355.9,155.7 361.8,155.7 367.8,155.7 373.7,155.7 379.6,155.7 385.5,155.7 391.5,155.7 397.4,155.7 403.3,155.7 409.2,155.7 415.2,155.7 421.1,155.7 427.0,155.7 432.9,155.7 438.9,155.7 444.8,155.7 450.7,155.7 456.6,155.7 462.6,155.7 468.5,155.7 474.4,155.7 480.3,155.7 486.3,155.7 492.2,155.7 498.1,155.7 504.0,155.7 510.0,155.7 515.9,155.7 521.8,155.7 527.7,155.7 533.7,167.6 539.6,167.6 545.5,170.3 551.4,170.3 557.4,170.5 563.3,170.7 569.2,170.7 575.1,170.9 581.1,172.7 587.0,180.6 592.9,181.8 598.8,189.1 604.8,190.5 610.7,195.2 616.6,198.0 622.5,198.0 628.5,198.0 634.4,198.0 640.3,198.0 646.2,198.0 652.2,198.0 658.1,198.0 664.0,198.0"/><circle cx="36.0" cy="145.1" r="3" fill="#8a5a5a"/><circle cx="41.9" cy="145.1" r="3" fill="#8a5a5a"/><circle cx="47.8" cy="145.1" r="3" fill="#8a5a5a"/><circle cx="53.8" cy="145.1" r="3" fill="#8a5a5a"/><circle cx="59.7" cy="145.1" r="3" fill="#8a5a5a"/><circle cx="65.6" cy="145.1" r="3" fill="#8a5a5a"/><circle cx="71.5" cy="145.1" r="3" fill="#8a5a5a"/><circle cx="77.5" cy="145.1" r="3" fill="#8a5a5a"/><circle cx="83.4" cy="145.1" r="3" fill="#8a5a5a"/><circle cx="89.3" cy="145.1" r="3" fill="#8a5a5a"/><circle cx="95.2" cy="145.1" r="3" fill="#8a5a5a"/><circle cx="101.2" cy="145.1" r="3" fill="#8a5a5a"/><circle cx="107.1" cy="145.1" r="3" fill="#8a5a5a"/><circle cx="113.0" cy="145.1" r="3" fill="#8a5a5a"/><circle cx="118.9" cy="145.1" r="3" fill="#8a5a5a"/><circle cx="124.9" cy="145.1" r="3" fill="#8a5a5a"/><circle cx="130.8" cy="145.1" r="3" fill="#8a5a5a"/><circle cx="136.7" cy="145.1" r="3" fill="#8a5a5a"/><circle cx="142.6" cy="145.1" r="3" fill="#8a5a5a"/><circle cx="148.6" cy="145.1" r="3" fill="#8a5a5a"/><circle cx="154.5" cy="145.1" r="3" fill="#8a5a5a"/><circle cx="160.4" cy="145.1" r="3" fill="#8a5a5a"/><circle cx="166.3" cy="145.1" r="3" fill="#8a5a5a"/><circle cx="172.3" cy="145.1" r="3" fill="#8a5a5a"/><circle cx="178.2" cy="145.1" r="3" fill="#8a5a5a"/><circle cx="184.1" cy="145.1" r="3" fill="#8a5a5a"/><circle cx="190.0" cy="145.1" r="3" fill="#8a5a5a"/><circle cx="196.0" cy="145.1" r="3" fill="#8a5a5a"/><circle cx="201.9" cy="145.1" r="3" fill="#8a5a5a"/><circle cx="207.8" cy="145.1" r="3" fill="#8a5a5a"/><circle cx="213.7" cy="145.1" r="3" fill="#8a5a5a"/><circle cx="219.7" cy="145.1" r="3" fill="#8a5a5a"/><circle cx="225.6" cy="145.1" r="3" fill="#8a5a5a"/><circle cx="231.5" cy="145.1" r="3" fill="#8a5a5a"/><circle cx="237.4" cy="145.1" r="3" fill="#8a5a5a"/><circle cx="243.4" cy="145.1" r="3" fill="#8a5a5a"/><circle cx="249.3" cy="145.1" r="3" fill="#8a5a5a"/><circle cx="255.2" cy="145.1" r="3" fill="#8a5a5a"/><circle cx="261.1" cy="145.1" r="3" fill="#8a5a5a"/><circle cx="267.1" cy="145.1" r="3" fill="#8a5a5a"/><circle cx="273.0" cy="145.1" r="3" fill="#8a5a5a"/><circle cx="278.9" cy="145.1" r="3" fill="#8a5a5a"/><circle cx="284.8" cy="145.1" r="3" fill="#8a5a5a"/><circle cx="290.8" cy="145.1" r="3" fill="#8a5a5a"/><circle cx="296.7" cy="145.1" r="3" fill="#8a5a5a"/><circle cx="302.6" cy="145.1" r="3" fill="#8a5a5a"/><circle cx="308.5" cy="145.1" r="3" fill="#8a5a5a"/><circle cx="314.5" cy="145.1" r="3" fill="#8a5a5a"/><circle cx="320.4" cy="145.1" r="3" fill="#8a5a5a"/><circle cx="326.3" cy="145.1" r="3" fill="#8a5a5a"/><circle cx="332.2" cy="155.7" r="3" fill="#8a5a5a"/><circle cx="338.2" cy="155.7" r="3" fill="#8a5a5a"/><circle cx="344.1" cy="155.7" r="3" fill="#8a5a5a"/><circle cx="350.0" cy="155.7" r="3" fill="#8a5a5a"/><circle cx="355.9" cy="155.7" r="3" fill="#8a5a5a"/><circle cx="361.8" cy="155.7" r="3" fill="#8a5a5a"/><circle cx="367.8" cy="155.7" r="3" fill="#8a5a5a"/><circle cx="373.7" cy="155.7" r="3" fill="#8a5a5a"/><circle cx="379.6" cy="155.7" r="3" fill="#8a5a5a"/><circle cx="385.5" cy="155.7" r="3" fill="#8a5a5a"/><circle cx="391.5" cy="155.7" r="3" fill="#8a5a5a"/><circle cx="397.4" cy="155.7" r="3" fill="#8a5a5a"/><circle cx="403.3" cy="155.7" r="3" fill="#8a5a5a"/><circle cx="409.2" cy="155.7" r="3" fill="#8a5a5a"/><circle cx="415.2" cy="155.7" r="3" fill="#8a5a5a"/><circle cx="421.1" cy="155.7" r="3" fill="#8a5a5a"/><circle cx="427.0" cy="155.7" r="3" fill="#8a5a5a"/><circle cx="432.9" cy="155.7" r="3" fill="#8a5a5a"/><circle cx="438.9" cy="155.7" r="3" fill="#8a5a5a"/><circle cx="444.8" cy="155.7" r="3" fill="#8a5a5a"/><circle cx="450.7" cy="155.7" r="3" fill="#8a5a5a"/><circle cx="456.6" cy="155.7" r="3" fill="#8a5a5a"/><circle cx="462.6" cy="155.7" r="3" fill="#8a5a5a"/><circle cx="468.5" cy="155.7" r="3" fill="#8a5a5a"/><circle cx="474.4" cy="155.7" r="3" fill="#8a5a5a"/><circle cx="480.3" cy="155.7" r="3" fill="#8a5a5a"/><circle cx="486.3" cy="155.7" r="3" fill="#8a5a5a"/><circle cx="492.2" cy="155.7" r="3" fill="#8a5a5a"/><circle cx="498.1" cy="155.7" r="3" fill="#8a5a5a"/><circle cx="504.0" cy="155.7" r="3" fill="#8a5a5a"/><circle cx="510.0" cy="155.7" r="3" fill="#8a5a5a"/><circle cx="515.9" cy="155.7" r="3" fill="#8a5a5a"/><circle cx="521.8" cy="155.7" r="3" fill="#8a5a5a"/><circle cx="527.7" cy="155.7" r="3" fill="#8a5a5a"/><circle cx="533.7" cy="167.6" r="3" fill="#8a5a5a"/><circle cx="539.6" cy="167.6" r="3" fill="#8a5a5a"/><circle cx="545.5" cy="170.3" r="3" fill="#8a5a5a"/><circle cx="551.4" cy="170.3" r="3" fill="#8a5a5a"/><circle cx="557.4" cy="170.5" r="3" fill="#8a5a5a"/><circle cx="563.3" cy="170.7" r="3" fill="#8a5a5a"/><circle cx="569.2" cy="170.7" r="3" fill="#8a5a5a"/><circle cx="575.1" cy="170.9" r="3" fill="#8a5a5a"/><circle cx="581.1" cy="172.7" r="3" fill="#8a5a5a"/><circle cx="587.0" cy="180.6" r="3" fill="#8a5a5a"/><circle cx="592.9" cy="181.8" r="3" fill="#8a5a5a"/><circle cx="598.8" cy="189.1" r="3" fill="#8a5a5a"/><circle cx="604.8" cy="190.5" r="3" fill="#8a5a5a"/><circle cx="610.7" cy="195.2" r="3" fill="#8a5a5a"/><circle cx="616.6" cy="198.0" r="3" fill="#8a5a5a"/><circle cx="622.5" cy="198.0" r="3" fill="#8a5a5a"/><circle cx="628.5" cy="198.0" r="3" fill="#8a5a5a"/><circle cx="634.4" cy="198.0" r="3" fill="#8a5a5a"/><circle cx="640.3" cy="198.0" r="3" fill="#8a5a5a"/><circle cx="646.2" cy="198.0" r="3" fill="#8a5a5a"/><circle cx="652.2" cy="198.0" r="3" fill="#8a5a5a"/><circle cx="658.1" cy="198.0" r="3" fill="#8a5a5a"/><circle cx="664.0" cy="198.0" r="3" fill="#8a5a5a"/>
<polyline fill="none" stroke="#3fb950" stroke-width="2.5" stroke-linejoin="round" points="36.0,198.0 41.9,198.0 47.8,198.0 53.8,198.0 59.7,198.0 65.6,198.0 71.5,198.0 77.5,198.0 83.4,198.0 89.3,198.0 95.2,198.0 101.2,198.0 107.1,198.0 113.0,198.0 118.9,198.0 124.9,198.0 130.8,198.0 136.7,198.0 142.6,198.0 148.6,198.0 154.5,198.0 160.4,198.0 166.3,198.0 172.3,198.0 178.2,198.0 184.1,198.0 190.0,198.0 196.0,198.0 201.9,198.0 207.8,198.0 213.7,198.0 219.7,198.0 225.6,198.0 231.5,198.0 237.4,198.0 243.4,198.0 249.3,198.0 255.2,198.0 261.1,198.0 267.1,198.0 273.0,198.0 278.9,198.0 284.8,198.0 290.8,191.7 296.7,191.7 302.6,191.7 308.5,191.7 314.5,191.7 320.4,191.7 326.3,191.7 332.2,192.9 338.2,192.9 344.1,190.7 350.0,190.7 355.9,190.7 361.8,190.7 367.8,190.7 373.7,190.5 379.6,190.5 385.5,190.5 391.5,190.3 397.4,190.3 403.3,190.3 409.2,190.3 415.2,190.3 421.1,190.3 427.0,190.3 432.9,190.3 438.9,190.3 444.8,190.3 450.7,190.3 456.6,190.3 462.6,190.3 468.5,190.3 474.4,190.3 480.3,190.3 486.3,190.3 492.2,190.3 498.1,190.3 504.0,190.3 510.0,190.3 515.9,189.3 521.8,189.3 527.7,189.3 533.7,190.7 539.6,190.7 545.5,190.7 551.4,190.7 557.4,190.7 563.3,190.7 569.2,190.7 575.1,190.7 581.1,190.7 587.0,190.9 592.9,190.9 598.8,190.9 604.8,194.2 610.7,196.8 616.6,198.0 622.5,198.0 628.5,198.0 634.4,198.0 640.3,198.0 646.2,198.0 652.2,198.0 658.1,198.0 664.0,198.0"/><circle cx="36.0" cy="198.0" r="3" fill="#3fb950"/><circle cx="41.9" cy="198.0" r="3" fill="#3fb950"/><circle cx="47.8" cy="198.0" r="3" fill="#3fb950"/><circle cx="53.8" cy="198.0" r="3" fill="#3fb950"/><circle cx="59.7" cy="198.0" r="3" fill="#3fb950"/><circle cx="65.6" cy="198.0" r="3" fill="#3fb950"/><circle cx="71.5" cy="198.0" r="3" fill="#3fb950"/><circle cx="77.5" cy="198.0" r="3" fill="#3fb950"/><circle cx="83.4" cy="198.0" r="3" fill="#3fb950"/><circle cx="89.3" cy="198.0" r="3" fill="#3fb950"/><circle cx="95.2" cy="198.0" r="3" fill="#3fb950"/><circle cx="101.2" cy="198.0" r="3" fill="#3fb950"/><circle cx="107.1" cy="198.0" r="3" fill="#3fb950"/><circle cx="113.0" cy="198.0" r="3" fill="#3fb950"/><circle cx="118.9" cy="198.0" r="3" fill="#3fb950"/><circle cx="124.9" cy="198.0" r="3" fill="#3fb950"/><circle cx="130.8" cy="198.0" r="3" fill="#3fb950"/><circle cx="136.7" cy="198.0" r="3" fill="#3fb950"/><circle cx="142.6" cy="198.0" r="3" fill="#3fb950"/><circle cx="148.6" cy="198.0" r="3" fill="#3fb950"/><circle cx="154.5" cy="198.0" r="3" fill="#3fb950"/><circle cx="160.4" cy="198.0" r="3" fill="#3fb950"/><circle cx="166.3" cy="198.0" r="3" fill="#3fb950"/><circle cx="172.3" cy="198.0" r="3" fill="#3fb950"/><circle cx="178.2" cy="198.0" r="3" fill="#3fb950"/><circle cx="184.1" cy="198.0" r="3" fill="#3fb950"/><circle cx="190.0" cy="198.0" r="3" fill="#3fb950"/><circle cx="196.0" cy="198.0" r="3" fill="#3fb950"/><circle cx="201.9" cy="198.0" r="3" fill="#3fb950"/><circle cx="207.8" cy="198.0" r="3" fill="#3fb950"/><circle cx="213.7" cy="198.0" r="3" fill="#3fb950"/><circle cx="219.7" cy="198.0" r="3" fill="#3fb950"/><circle cx="225.6" cy="198.0" r="3" fill="#3fb950"/><circle cx="231.5" cy="198.0" r="3" fill="#3fb950"/><circle cx="237.4" cy="198.0" r="3" fill="#3fb950"/><circle cx="243.4" cy="198.0" r="3" fill="#3fb950"/><circle cx="249.3" cy="198.0" r="3" fill="#3fb950"/><circle cx="255.2" cy="198.0" r="3" fill="#3fb950"/><circle cx="261.1" cy="198.0" r="3" fill="#3fb950"/><circle cx="267.1" cy="198.0" r="3" fill="#3fb950"/><circle cx="273.0" cy="198.0" r="3" fill="#3fb950"/><circle cx="278.9" cy="198.0" r="3" fill="#3fb950"/><circle cx="284.8" cy="198.0" r="3" fill="#3fb950"/><circle cx="290.8" cy="191.7" r="3" fill="#3fb950"/><circle cx="296.7" cy="191.7" r="3" fill="#3fb950"/><circle cx="302.6" cy="191.7" r="3" fill="#3fb950"/><circle cx="308.5" cy="191.7" r="3" fill="#3fb950"/><circle cx="314.5" cy="191.7" r="3" fill="#3fb950"/><circle cx="320.4" cy="191.7" r="3" fill="#3fb950"/><circle cx="326.3" cy="191.7" r="3" fill="#3fb950"/><circle cx="332.2" cy="192.9" r="3" fill="#3fb950"/><circle cx="338.2" cy="192.9" r="3" fill="#3fb950"/><circle cx="344.1" cy="190.7" r="3" fill="#3fb950"/><circle cx="350.0" cy="190.7" r="3" fill="#3fb950"/><circle cx="355.9" cy="190.7" r="3" fill="#3fb950"/><circle cx="361.8" cy="190.7" r="3" fill="#3fb950"/><circle cx="367.8" cy="190.7" r="3" fill="#3fb950"/><circle cx="373.7" cy="190.5" r="3" fill="#3fb950"/><circle cx="379.6" cy="190.5" r="3" fill="#3fb950"/><circle cx="385.5" cy="190.5" r="3" fill="#3fb950"/><circle cx="391.5" cy="190.3" r="3" fill="#3fb950"/><circle cx="397.4" cy="190.3" r="3" fill="#3fb950"/><circle cx="403.3" cy="190.3" r="3" fill="#3fb950"/><circle cx="409.2" cy="190.3" r="3" fill="#3fb950"/><circle cx="415.2" cy="190.3" r="3" fill="#3fb950"/><circle cx="421.1" cy="190.3" r="3" fill="#3fb950"/><circle cx="427.0" cy="190.3" r="3" fill="#3fb950"/><circle cx="432.9" cy="190.3" r="3" fill="#3fb950"/><circle cx="438.9" cy="190.3" r="3" fill="#3fb950"/><circle cx="444.8" cy="190.3" r="3" fill="#3fb950"/><circle cx="450.7" cy="190.3" r="3" fill="#3fb950"/><circle cx="456.6" cy="190.3" r="3" fill="#3fb950"/><circle cx="462.6" cy="190.3" r="3" fill="#3fb950"/><circle cx="468.5" cy="190.3" r="3" fill="#3fb950"/><circle cx="474.4" cy="190.3" r="3" fill="#3fb950"/><circle cx="480.3" cy="190.3" r="3" fill="#3fb950"/><circle cx="486.3" cy="190.3" r="3" fill="#3fb950"/><circle cx="492.2" cy="190.3" r="3" fill="#3fb950"/><circle cx="498.1" cy="190.3" r="3" fill="#3fb950"/><circle cx="504.0" cy="190.3" r="3" fill="#3fb950"/><circle cx="510.0" cy="190.3" r="3" fill="#3fb950"/><circle cx="515.9" cy="189.3" r="3" fill="#3fb950"/><circle cx="521.8" cy="189.3" r="3" fill="#3fb950"/><circle cx="527.7" cy="189.3" r="3" fill="#3fb950"/><circle cx="533.7" cy="190.7" r="3" fill="#3fb950"/><circle cx="539.6" cy="190.7" r="3" fill="#3fb950"/><circle cx="545.5" cy="190.7" r="3" fill="#3fb950"/><circle cx="551.4" cy="190.7" r="3" fill="#3fb950"/><circle cx="557.4" cy="190.7" r="3" fill="#3fb950"/><circle cx="563.3" cy="190.7" r="3" fill="#3fb950"/><circle cx="569.2" cy="190.7" r="3" fill="#3fb950"/><circle cx="575.1" cy="190.7" r="3" fill="#3fb950"/><circle cx="581.1" cy="190.7" r="3" fill="#3fb950"/><circle cx="587.0" cy="190.9" r="3" fill="#3fb950"/><circle cx="592.9" cy="190.9" r="3" fill="#3fb950"/><circle cx="598.8" cy="190.9" r="3" fill="#3fb950"/><circle cx="604.8" cy="194.2" r="3" fill="#3fb950"/><circle cx="610.7" cy="196.8" r="3" fill="#3fb950"/><circle cx="616.6" cy="198.0" r="3" fill="#3fb950"/><circle cx="622.5" cy="198.0" r="3" fill="#3fb950"/><circle cx="628.5" cy="198.0" r="3" fill="#3fb950"/><circle cx="634.4" cy="198.0" r="3" fill="#3fb950"/><circle cx="640.3" cy="198.0" r="3" fill="#3fb950"/><circle cx="646.2" cy="198.0" r="3" fill="#3fb950"/><circle cx="652.2" cy="198.0" r="3" fill="#3fb950"/><circle cx="658.1" cy="198.0" r="3" fill="#3fb950"/><circle cx="664.0" cy="198.0" r="3" fill="#3fb950"/>
<polyline fill="none" stroke="#4aa3ff" stroke-width="2.5" stroke-linejoin="round" points="36.0,144.3 41.9,144.3 47.8,144.3 53.8,144.3 59.7,144.3 65.6,144.3 71.5,144.3 77.5,144.3 83.4,144.3 89.3,144.3 95.2,144.3 101.2,144.3 107.1,144.3 113.0,144.3 118.9,144.3 124.9,136.2 130.8,132.4 136.7,129.6 142.6,129.6 148.6,121.0 154.5,121.0 160.4,121.0 166.3,114.4 172.3,114.4 178.2,114.4 184.1,111.3 190.0,110.9 196.0,110.9 201.9,110.5 207.8,110.5 213.7,109.9 219.7,108.7 225.6,107.3 231.5,106.9 237.4,106.9 243.4,106.9 249.3,106.9 255.2,106.9 261.1,106.9 267.1,106.9 273.0,106.9 278.9,106.9 284.8,106.9 290.8,113.2 296.7,113.2 302.6,113.2 308.5,113.2 314.5,113.2 320.4,110.7 326.3,105.3 332.2,83.4 338.2,83.4 344.1,85.6 350.0,85.6 355.9,85.6 361.8,85.6 367.8,85.6 373.7,85.8 379.6,85.8 385.5,85.8 391.5,86.0 397.4,86.0 403.3,86.0 409.2,86.0 415.2,86.0 421.1,86.0 427.0,86.0 432.9,86.0 438.9,86.0 444.8,86.0 450.7,86.0 456.6,86.0 462.6,86.0 468.5,86.0 474.4,86.0 480.3,86.0 486.3,86.0 492.2,86.0 498.1,86.0 504.0,86.0 510.0,86.0 515.9,87.0 521.8,87.0 527.7,87.0 533.7,73.7 539.6,73.7 545.5,71.0 551.4,71.0 557.4,70.8 563.3,70.6 569.2,70.6 575.1,70.4 581.1,68.6 587.0,60.5 592.9,59.3 598.8,52.0 604.8,47.3 610.7,40.1 616.6,36.0 622.5,36.0 628.5,36.0 634.4,36.0 640.3,36.0 646.2,36.0 652.2,36.0 658.1,36.0 664.0,36.0"/><circle cx="36.0" cy="144.3" r="3" fill="#4aa3ff"/><circle cx="41.9" cy="144.3" r="3" fill="#4aa3ff"/><circle cx="47.8" cy="144.3" r="3" fill="#4aa3ff"/><circle cx="53.8" cy="144.3" r="3" fill="#4aa3ff"/><circle cx="59.7" cy="144.3" r="3" fill="#4aa3ff"/><circle cx="65.6" cy="144.3" r="3" fill="#4aa3ff"/><circle cx="71.5" cy="144.3" r="3" fill="#4aa3ff"/><circle cx="77.5" cy="144.3" r="3" fill="#4aa3ff"/><circle cx="83.4" cy="144.3" r="3" fill="#4aa3ff"/><circle cx="89.3" cy="144.3" r="3" fill="#4aa3ff"/><circle cx="95.2" cy="144.3" r="3" fill="#4aa3ff"/><circle cx="101.2" cy="144.3" r="3" fill="#4aa3ff"/><circle cx="107.1" cy="144.3" r="3" fill="#4aa3ff"/><circle cx="113.0" cy="144.3" r="3" fill="#4aa3ff"/><circle cx="118.9" cy="144.3" r="3" fill="#4aa3ff"/><circle cx="124.9" cy="136.2" r="3" fill="#4aa3ff"/><circle cx="130.8" cy="132.4" r="3" fill="#4aa3ff"/><circle cx="136.7" cy="129.6" r="3" fill="#4aa3ff"/><circle cx="142.6" cy="129.6" r="3" fill="#4aa3ff"/><circle cx="148.6" cy="121.0" r="3" fill="#4aa3ff"/><circle cx="154.5" cy="121.0" r="3" fill="#4aa3ff"/><circle cx="160.4" cy="121.0" r="3" fill="#4aa3ff"/><circle cx="166.3" cy="114.4" r="3" fill="#4aa3ff"/><circle cx="172.3" cy="114.4" r="3" fill="#4aa3ff"/><circle cx="178.2" cy="114.4" r="3" fill="#4aa3ff"/><circle cx="184.1" cy="111.3" r="3" fill="#4aa3ff"/><circle cx="190.0" cy="110.9" r="3" fill="#4aa3ff"/><circle cx="196.0" cy="110.9" r="3" fill="#4aa3ff"/><circle cx="201.9" cy="110.5" r="3" fill="#4aa3ff"/><circle cx="207.8" cy="110.5" r="3" fill="#4aa3ff"/><circle cx="213.7" cy="109.9" r="3" fill="#4aa3ff"/><circle cx="219.7" cy="108.7" r="3" fill="#4aa3ff"/><circle cx="225.6" cy="107.3" r="3" fill="#4aa3ff"/><circle cx="231.5" cy="106.9" r="3" fill="#4aa3ff"/><circle cx="237.4" cy="106.9" r="3" fill="#4aa3ff"/><circle cx="243.4" cy="106.9" r="3" fill="#4aa3ff"/><circle cx="249.3" cy="106.9" r="3" fill="#4aa3ff"/><circle cx="255.2" cy="106.9" r="3" fill="#4aa3ff"/><circle cx="261.1" cy="106.9" r="3" fill="#4aa3ff"/><circle cx="267.1" cy="106.9" r="3" fill="#4aa3ff"/><circle cx="273.0" cy="106.9" r="3" fill="#4aa3ff"/><circle cx="278.9" cy="106.9" r="3" fill="#4aa3ff"/><circle cx="284.8" cy="106.9" r="3" fill="#4aa3ff"/><circle cx="290.8" cy="113.2" r="3" fill="#4aa3ff"/><circle cx="296.7" cy="113.2" r="3" fill="#4aa3ff"/><circle cx="302.6" cy="113.2" r="3" fill="#4aa3ff"/><circle cx="308.5" cy="113.2" r="3" fill="#4aa3ff"/><circle cx="314.5" cy="113.2" r="3" fill="#4aa3ff"/><circle cx="320.4" cy="110.7" r="3" fill="#4aa3ff"/><circle cx="326.3" cy="105.3" r="3" fill="#4aa3ff"/><circle cx="332.2" cy="83.4" r="3" fill="#4aa3ff"/><circle cx="338.2" cy="83.4" r="3" fill="#4aa3ff"/><circle cx="344.1" cy="85.6" r="3" fill="#4aa3ff"/><circle cx="350.0" cy="85.6" r="3" fill="#4aa3ff"/><circle cx="355.9" cy="85.6" r="3" fill="#4aa3ff"/><circle cx="361.8" cy="85.6" r="3" fill="#4aa3ff"/><circle cx="367.8" cy="85.6" r="3" fill="#4aa3ff"/><circle cx="373.7" cy="85.8" r="3" fill="#4aa3ff"/><circle cx="379.6" cy="85.8" r="3" fill="#4aa3ff"/><circle cx="385.5" cy="85.8" r="3" fill="#4aa3ff"/><circle cx="391.5" cy="86.0" r="3" fill="#4aa3ff"/><circle cx="397.4" cy="86.0" r="3" fill="#4aa3ff"/><circle cx="403.3" cy="86.0" r="3" fill="#4aa3ff"/><circle cx="409.2" cy="86.0" r="3" fill="#4aa3ff"/><circle cx="415.2" cy="86.0" r="3" fill="#4aa3ff"/><circle cx="421.1" cy="86.0" r="3" fill="#4aa3ff"/><circle cx="427.0" cy="86.0" r="3" fill="#4aa3ff"/><circle cx="432.9" cy="86.0" r="3" fill="#4aa3ff"/><circle cx="438.9" cy="86.0" r="3" fill="#4aa3ff"/><circle cx="444.8" cy="86.0" r="3" fill="#4aa3ff"/><circle cx="450.7" cy="86.0" r="3" fill="#4aa3ff"/><circle cx="456.6" cy="86.0" r="3" fill="#4aa3ff"/><circle cx="462.6" cy="86.0" r="3" fill="#4aa3ff"/><circle cx="468.5" cy="86.0" r="3" fill="#4aa3ff"/><circle cx="474.4" cy="86.0" r="3" fill="#4aa3ff"/><circle cx="480.3" cy="86.0" r="3" fill="#4aa3ff"/><circle cx="486.3" cy="86.0" r="3" fill="#4aa3ff"/><circle cx="492.2" cy="86.0" r="3" fill="#4aa3ff"/><circle cx="498.1" cy="86.0" r="3" fill="#4aa3ff"/><circle cx="504.0" cy="86.0" r="3" fill="#4aa3ff"/><circle cx="510.0" cy="86.0" r="3" fill="#4aa3ff"/><circle cx="515.9" cy="87.0" r="3" fill="#4aa3ff"/><circle cx="521.8" cy="87.0" r="3" fill="#4aa3ff"/><circle cx="527.7" cy="87.0" r="3" fill="#4aa3ff"/><circle cx="533.7" cy="73.7" r="3" fill="#4aa3ff"/><circle cx="539.6" cy="73.7" r="3" fill="#4aa3ff"/><circle cx="545.5" cy="71.0" r="3" fill="#4aa3ff"/><circle cx="551.4" cy="71.0" r="3" fill="#4aa3ff"/><circle cx="557.4" cy="70.8" r="3" fill="#4aa3ff"/><circle cx="563.3" cy="70.6" r="3" fill="#4aa3ff"/><circle cx="569.2" cy="70.6" r="3" fill="#4aa3ff"/><circle cx="575.1" cy="70.4" r="3" fill="#4aa3ff"/><circle cx="581.1" cy="68.6" r="3" fill="#4aa3ff"/><circle cx="587.0" cy="60.5" r="3" fill="#4aa3ff"/><circle cx="592.9" cy="59.3" r="3" fill="#4aa3ff"/><circle cx="598.8" cy="52.0" r="3" fill="#4aa3ff"/><circle cx="604.8" cy="47.3" r="3" fill="#4aa3ff"/><circle cx="610.7" cy="40.1" r="3" fill="#4aa3ff"/><circle cx="616.6" cy="36.0" r="3" fill="#4aa3ff"/><circle cx="622.5" cy="36.0" r="3" fill="#4aa3ff"/><circle cx="628.5" cy="36.0" r="3" fill="#4aa3ff"/><circle cx="634.4" cy="36.0" r="3" fill="#4aa3ff"/><circle cx="640.3" cy="36.0" r="3" fill="#4aa3ff"/><circle cx="646.2" cy="36.0" r="3" fill="#4aa3ff"/><circle cx="652.2" cy="36.0" r="3" fill="#4aa3ff"/><circle cx="658.1" cy="36.0" r="3" fill="#4aa3ff"/><circle cx="664.0" cy="36.0" r="3" fill="#4aa3ff"/>
<text x="36" y="225" fill="#6b7280" font-size="11">2026-06-26</text>
<text x="664" y="225" fill="#6b7280" font-size="11" text-anchor="end">2026-07-08</text>
<text x="36" y="212" font-family="system-ui,sans-serif" font-size="11">
<tspan fill="#4aa3ff">&#9679; open FPs</tspan>  <tspan fill="#3fb950">&#9679; closed (Anthropic acting)</tspan>  <tspan fill="#8a5a5a">&#9679; harness withdrawn</tspan></text>
<text x="664" y="22" text-anchor="end" font-family="system-ui,sans-serif" font-size="12">
<tspan fill="#4aa3ff">open 800</tspan>  <tspan fill="#3fb950">closed 0</tspan>  <tspan fill="#8a5a5a">harness 0</tspan></text>
</svg>