<svg xmlns="http://www.w3.org/2000/svg" width="700" height="234" viewBox="0 0 700 234" role="img">
<rect width="700" height="234" rx="12" fill="#16181d"/>
<text x="36" y="22" fill="#e8eaed" font-family="system-ui,sans-serif" font-size="14" font-weight="700">Is Anthropic acting? cyber/aup false positives over time</text>
<line x1="36" y1="198.0" x2="664" y2="198.0" stroke="#2a2e37" stroke-width="1"/><text x="30" y="202.0" fill="#6b7280" font-size="11" text-anchor="end">0</text><line x1="36" y1="117.0" x2="664" y2="117.0" stroke="#2a2e37" stroke-width="1"/><text x="30" y="121.0" fill="#6b7280" font-size="11" text-anchor="end">283</text><line x1="36" y1="36.0" x2="664" y2="36.0" stroke="#2a2e37" stroke-width="1"/><text x="30" y="40.0" fill="#6b7280" font-size="11" text-anchor="end">566</text>

<polyline fill="none" stroke="#8a5a5a" stroke-width="2.5" stroke-linejoin="round" points="36.0,123.3 47.4,123.3 58.8,123.3 70.3,123.3 81.7,123.3 93.1,123.3 104.5,123.3 115.9,123.3 127.3,123.3 138.8,123.3 150.2,123.3 161.6,123.3 173.0,123.3 184.4,123.3 195.9,123.3 207.3,123.3 218.7,123.3 230.1,123.3 241.5,123.3 252.9,123.3 264.4,123.3 275.8,123.3 287.2,123.3 298.6,123.3 310.0,123.3 321.5,123.3 332.9,123.3 344.3,123.3 355.7,123.3 367.1,123.3 378.5,123.3 390.0,123.3 401.4,123.3 412.8,123.3 424.2,123.3 435.6,123.3 447.1,123.3 458.5,123.3 469.9,123.3 481.3,123.3 492.7,123.3 504.1,123.3 515.6,123.3 527.0,123.3 538.4,123.3 549.8,123.3 561.2,123.3 572.7,123.3 584.1,123.3 595.5,123.3 606.9,138.2 618.3,138.2 629.7,138.2 641.2,138.2 652.6,138.2 664.0,138.2"/><circle cx="36.0" cy="123.3" r="3" fill="#8a5a5a"/><circle cx="47.4" cy="123.3" r="3" fill="#8a5a5a"/><circle cx="58.8" cy="123.3" r="3" fill="#8a5a5a"/><circle cx="70.3" cy="123.3" r="3" fill="#8a5a5a"/><circle cx="81.7" cy="123.3" r="3" fill="#8a5a5a"/><circle cx="93.1" cy="123.3" r="3" fill="#8a5a5a"/><circle cx="104.5" cy="123.3" r="3" fill="#8a5a5a"/><circle cx="115.9" cy="123.3" r="3" fill="#8a5a5a"/><circle cx="127.3" cy="123.3" r="3" fill="#8a5a5a"/><circle cx="138.8" cy="123.3" r="3" fill="#8a5a5a"/><circle cx="150.2" cy="123.3" r="3" fill="#8a5a5a"/><circle cx="161.6" cy="123.3" r="3" fill="#8a5a5a"/><circle cx="173.0" cy="123.3" r="3" fill="#8a5a5a"/><circle cx="184.4" cy="123.3" r="3" fill="#8a5a5a"/><circle cx="195.9" cy="123.3" r="3" fill="#8a5a5a"/><circle cx="207.3" cy="123.3" r="3" fill="#8a5a5a"/><circle cx="218.7" cy="123.3" r="3" fill="#8a5a5a"/><circle cx="230.1" cy="123.3" r="3" fill="#8a5a5a"/><circle cx="241.5" cy="123.3" r="3" fill="#8a5a5a"/><circle cx="252.9" cy="123.3" r="3" fill="#8a5a5a"/><circle cx="264.4" cy="123.3" r="3" fill="#8a5a5a"/><circle cx="275.8" cy="123.3" r="3" fill="#8a5a5a"/><circle cx="287.2" cy="123.3" r="3" fill="#8a5a5a"/><circle cx="298.6" cy="123.3" r="3" fill="#8a5a5a"/><circle cx="310.0" cy="123.3" r="3" fill="#8a5a5a"/><circle cx="321.5" cy="123.3" r="3" fill="#8a5a5a"/><circle cx="332.9" cy="123.3" r="3" fill="#8a5a5a"/><circle cx="344.3" cy="123.3" r="3" fill="#8a5a5a"/><circle cx="355.7" cy="123.3" r="3" fill="#8a5a5a"/><circle cx="367.1" cy="123.3" r="3" fill="#8a5a5a"/><circle cx="378.5" cy="123.3" r="3" fill="#8a5a5a"/><circle cx="390.0" cy="123.3" r="3" fill="#8a5a5a"/><circle cx="401.4" cy="123.3" r="3" fill="#8a5a5a"/><circle cx="412.8" cy="123.3" r="3" fill="#8a5a5a"/><circle cx="424.2" cy="123.3" r="3" fill="#8a5a5a"/><circle cx="435.6" cy="123.3" r="3" fill="#8a5a5a"/><circle cx="447.1" cy="123.3" r="3" fill="#8a5a5a"/><circle cx="458.5" cy="123.3" r="3" fill="#8a5a5a"/><circle cx="469.9" cy="123.3" r="3" fill="#8a5a5a"/><circle cx="481.3" cy="123.3" r="3" fill="#8a5a5a"/><circle cx="492.7" cy="123.3" r="3" fill="#8a5a5a"/><circle cx="504.1" cy="123.3" r="3" fill="#8a5a5a"/><circle cx="515.6" cy="123.3" r="3" fill="#8a5a5a"/><circle cx="527.0" cy="123.3" r="3" fill="#8a5a5a"/><circle cx="538.4" cy="123.3" r="3" fill="#8a5a5a"/><circle cx="549.8" cy="123.3" r="3" fill="#8a5a5a"/><circle cx="561.2" cy="123.3" r="3" fill="#8a5a5a"/><circle cx="572.7" cy="123.3" r="3" fill="#8a5a5a"/><circle cx="584.1" cy="123.3" r="3" fill="#8a5a5a"/><circle cx="595.5" cy="123.3" r="3" fill="#8a5a5a"/><circle cx="606.9" cy="138.2" r="3" fill="#8a5a5a"/><circle cx="618.3" cy="138.2" r="3" fill="#8a5a5a"/><circle cx="629.7" cy="138.2" r="3" fill="#8a5a5a"/><circle cx="641.2" cy="138.2" r="3" fill="#8a5a5a"/><circle cx="652.6" cy="138.2" r="3" fill="#8a5a5a"/><circle cx="664.0" cy="138.2" r="3" fill="#8a5a5a"/>
<polyline fill="none" stroke="#3fb950" stroke-width="2.5" stroke-linejoin="round" points="36.0,198.0 47.4,198.0 58.8,198.0 70.3,198.0 81.7,198.0 93.1,198.0 104.5,198.0 115.9,198.0 127.3,198.0 138.8,198.0 150.2,198.0 161.6,198.0 173.0,198.0 184.4,198.0 195.9,198.0 207.3,198.0 218.7,198.0 230.1,198.0 241.5,198.0 252.9,198.0 264.4,198.0 275.8,198.0 287.2,198.0 298.6,198.0 310.0,198.0 321.5,198.0 332.9,198.0 344.3,198.0 355.7,198.0 367.1,198.0 378.5,198.0 390.0,198.0 401.4,198.0 412.8,198.0 424.2,198.0 435.6,198.0 447.1,198.0 458.5,198.0 469.9,198.0 481.3,198.0 492.7,198.0 504.1,198.0 515.6,198.0 527.0,189.1 538.4,189.1 549.8,189.1 561.2,189.1 572.7,189.1 584.1,189.1 595.5,189.1 606.9,190.8 618.3,190.8 629.7,187.7 641.2,187.7 652.6,187.7 664.0,187.7"/><circle cx="36.0" cy="198.0" r="3" fill="#3fb950"/><circle cx="47.4" cy="198.0" r="3" fill="#3fb950"/><circle cx="58.8" cy="198.0" r="3" fill="#3fb950"/><circle cx="70.3" cy="198.0" r="3" fill="#3fb950"/><circle cx="81.7" cy="198.0" r="3" fill="#3fb950"/><circle cx="93.1" cy="198.0" r="3" fill="#3fb950"/><circle cx="104.5" cy="198.0" r="3" fill="#3fb950"/><circle cx="115.9" cy="198.0" r="3" fill="#3fb950"/><circle cx="127.3" cy="198.0" r="3" fill="#3fb950"/><circle cx="138.8" cy="198.0" r="3" fill="#3fb950"/><circle cx="150.2" cy="198.0" r="3" fill="#3fb950"/><circle cx="161.6" cy="198.0" r="3" fill="#3fb950"/><circle cx="173.0" cy="198.0" r="3" fill="#3fb950"/><circle cx="184.4" cy="198.0" r="3" fill="#3fb950"/><circle cx="195.9" cy="198.0" r="3" fill="#3fb950"/><circle cx="207.3" cy="198.0" r="3" fill="#3fb950"/><circle cx="218.7" cy="198.0" r="3" fill="#3fb950"/><circle cx="230.1" cy="198.0" r="3" fill="#3fb950"/><circle cx="241.5" cy="198.0" r="3" fill="#3fb950"/><circle cx="252.9" cy="198.0" r="3" fill="#3fb950"/><circle cx="264.4" cy="198.0" r="3" fill="#3fb950"/><circle cx="275.8" cy="198.0" r="3" fill="#3fb950"/><circle cx="287.2" cy="198.0" r="3" fill="#3fb950"/><circle cx="298.6" cy="198.0" r="3" fill="#3fb950"/><circle cx="310.0" cy="198.0" r="3" fill="#3fb950"/><circle cx="321.5" cy="198.0" r="3" fill="#3fb950"/><circle cx="332.9" cy="198.0" r="3" fill="#3fb950"/><circle cx="344.3" cy="198.0" r="3" fill="#3fb950"/><circle cx="355.7" cy="198.0" r="3" fill="#3fb950"/><circle cx="367.1" cy="198.0" r="3" fill="#3fb950"/><circle cx="378.5" cy="198.0" r="3" fill="#3fb950"/><circle cx="390.0" cy="198.0" r="3" fill="#3fb950"/><circle cx="401.4" cy="198.0" r="3" fill="#3fb950"/><circle cx="412.8" cy="198.0" r="3" fill="#3fb950"/><circle cx="424.2" cy="198.0" r="3" fill="#3fb950"/><circle cx="435.6" cy="198.0" r="3" fill="#3fb950"/><circle cx="447.1" cy="198.0" r="3" fill="#3fb950"/><circle cx="458.5" cy="198.0" r="3" fill="#3fb950"/><circle cx="469.9" cy="198.0" r="3" fill="#3fb950"/><circle cx="481.3" cy="198.0" r="3" fill="#3fb950"/><circle cx="492.7" cy="198.0" r="3" fill="#3fb950"/><circle cx="504.1" cy="198.0" r="3" fill="#3fb950"/><circle cx="515.6" cy="198.0" r="3" fill="#3fb950"/><circle cx="527.0" cy="189.1" r="3" fill="#3fb950"/><circle cx="538.4" cy="189.1" r="3" fill="#3fb950"/><circle cx="549.8" cy="189.1" r="3" fill="#3fb950"/><circle cx="561.2" cy="189.1" r="3" fill="#3fb950"/><circle cx="572.7" cy="189.1" r="3" fill="#3fb950"/><circle cx="584.1" cy="189.1" r="3" fill="#3fb950"/><circle cx="595.5" cy="189.1" r="3" fill="#3fb950"/><circle cx="606.9" cy="190.8" r="3" fill="#3fb950"/><circle cx="618.3" cy="190.8" r="3" fill="#3fb950"/><circle cx="629.7" cy="187.7" r="3" fill="#3fb950"/><circle cx="641.2" cy="187.7" r="3" fill="#3fb950"/><circle cx="652.6" cy="187.7" r="3" fill="#3fb950"/><circle cx="664.0" cy="187.7" r="3" fill="#3fb950"/>
<polyline fill="none" stroke="#4aa3ff" stroke-width="2.5" stroke-linejoin="round" points="36.0,122.2 47.4,122.2 58.8,122.2 70.3,122.2 81.7,122.2 93.1,122.2 104.5,122.2 115.9,122.2 127.3,122.2 138.8,122.2 150.2,122.2 161.6,122.2 173.0,122.2 184.4,122.2 195.9,122.2 207.3,110.7 218.7,105.3 230.1,101.3 241.5,101.3 252.9,89.2 264.4,89.2 275.8,89.2 287.2,79.8 298.6,79.8 310.0,79.8 321.5,75.5 332.9,74.9 344.3,74.9 355.7,74.4 367.1,74.4 378.5,73.5 390.0,71.8 401.4,69.8 412.8,69.2 424.2,69.2 435.6,69.2 447.1,69.2 458.5,69.2 469.9,69.2 481.3,69.2 492.7,69.2 504.1,69.2 515.6,69.2 527.0,78.1 538.4,78.1 549.8,78.1 561.2,78.1 572.7,78.1 584.1,74.6 595.5,66.9 606.9,36.0 618.3,36.0 629.7,39.1 641.2,39.1 652.6,39.1 664.0,39.1"/><circle cx="36.0" cy="122.2" r="3" fill="#4aa3ff"/><circle cx="47.4" cy="122.2" r="3" fill="#4aa3ff"/><circle cx="58.8" cy="122.2" r="3" fill="#4aa3ff"/><circle cx="70.3" cy="122.2" r="3" fill="#4aa3ff"/><circle cx="81.7" cy="122.2" r="3" fill="#4aa3ff"/><circle cx="93.1" cy="122.2" r="3" fill="#4aa3ff"/><circle cx="104.5" cy="122.2" r="3" fill="#4aa3ff"/><circle cx="115.9" cy="122.2" r="3" fill="#4aa3ff"/><circle cx="127.3" cy="122.2" r="3" fill="#4aa3ff"/><circle cx="138.8" cy="122.2" r="3" fill="#4aa3ff"/><circle cx="150.2" cy="122.2" r="3" fill="#4aa3ff"/><circle cx="161.6" cy="122.2" r="3" fill="#4aa3ff"/><circle cx="173.0" cy="122.2" r="3" fill="#4aa3ff"/><circle cx="184.4" cy="122.2" r="3" fill="#4aa3ff"/><circle cx="195.9" cy="122.2" r="3" fill="#4aa3ff"/><circle cx="207.3" cy="110.7" r="3" fill="#4aa3ff"/><circle cx="218.7" cy="105.3" r="3" fill="#4aa3ff"/><circle cx="230.1" cy="101.3" r="3" fill="#4aa3ff"/><circle cx="241.5" cy="101.3" r="3" fill="#4aa3ff"/><circle cx="252.9" cy="89.2" r="3" fill="#4aa3ff"/><circle cx="264.4" cy="89.2" r="3" fill="#4aa3ff"/><circle cx="275.8" cy="89.2" r="3" fill="#4aa3ff"/><circle cx="287.2" cy="79.8" r="3" fill="#4aa3ff"/><circle cx="298.6" cy="79.8" r="3" fill="#4aa3ff"/><circle cx="310.0" cy="79.8" r="3" fill="#4aa3ff"/><circle cx="321.5" cy="75.5" r="3" fill="#4aa3ff"/><circle cx="332.9" cy="74.9" r="3" fill="#4aa3ff"/><circle cx="344.3" cy="74.9" r="3" fill="#4aa3ff"/><circle cx="355.7" cy="74.4" r="3" fill="#4aa3ff"/><circle cx="367.1" cy="74.4" r="3" fill="#4aa3ff"/><circle cx="378.5" cy="73.5" r="3" fill="#4aa3ff"/><circle cx="390.0" cy="71.8" r="3" fill="#4aa3ff"/><circle cx="401.4" cy="69.8" r="3" fill="#4aa3ff"/><circle cx="412.8" cy="69.2" r="3" fill="#4aa3ff"/><circle cx="424.2" cy="69.2" r="3" fill="#4aa3ff"/><circle cx="435.6" cy="69.2" r="3" fill="#4aa3ff"/><circle cx="447.1" cy="69.2" r="3" fill="#4aa3ff"/><circle cx="458.5" cy="69.2" r="3" fill="#4aa3ff"/><circle cx="469.9" cy="69.2" r="3" fill="#4aa3ff"/><circle cx="481.3" cy="69.2" r="3" fill="#4aa3ff"/><circle cx="492.7" cy="69.2" r="3" fill="#4aa3ff"/><circle cx="504.1" cy="69.2" r="3" fill="#4aa3ff"/><circle cx="515.6" cy="69.2" r="3" fill="#4aa3ff"/><circle cx="527.0" cy="78.1" r="3" fill="#4aa3ff"/><circle cx="538.4" cy="78.1" r="3" fill="#4aa3ff"/><circle cx="549.8" cy="78.1" r="3" fill="#4aa3ff"/><circle cx="561.2" cy="78.1" r="3" fill="#4aa3ff"/><circle cx="572.7" cy="78.1" r="3" fill="#4aa3ff"/><circle cx="584.1" cy="74.6" r="3" fill="#4aa3ff"/><circle cx="595.5" cy="66.9" r="3" fill="#4aa3ff"/><circle cx="606.9" cy="36.0" r="3" fill="#4aa3ff"/><circle cx="618.3" cy="36.0" r="3" fill="#4aa3ff"/><circle cx="629.7" cy="39.1" r="3" fill="#4aa3ff"/><circle cx="641.2" cy="39.1" r="3" fill="#4aa3ff"/><circle cx="652.6" cy="39.1" r="3" fill="#4aa3ff"/><circle cx="664.0" cy="39.1" r="3" fill="#4aa3ff"/>
<text x="36" y="225" fill="#6b7280" font-size="11">2026-06-26</text>
<text x="664" y="225" fill="#6b7280" font-size="11" text-anchor="end">2026-07-02</text>
<text x="36" y="212" font-family="system-ui,sans-serif" font-size="11">
<tspan fill="#4aa3ff">&#9679; open FPs</tspan>  <tspan fill="#3fb950">&#9679; closed (Anthropic acting)</tspan>  <tspan fill="#8a5a5a">&#9679; harness withdrawn</tspan></text>
<text x="664" y="22" text-anchor="end" font-family="system-ui,sans-serif" font-size="12">
<tspan fill="#4aa3ff">open 555</tspan>  <tspan fill="#3fb950">closed 36</tspan>  <tspan fill="#8a5a5a">harness 209</tspan></text>
</svg>