<svg xmlns="http://www.w3.org/2000/svg" width="700" height="234" viewBox="0 0 700 234" role="img">
<rect width="700" height="234" rx="12" fill="#16181d"/>
<text x="36" y="22" fill="#e8eaed" font-family="system-ui,sans-serif" font-size="14" font-weight="700">Is Anthropic acting? cyber/aup false positives over time</text>
<line x1="36" y1="198.0" x2="664" y2="198.0" stroke="#2a2e37" stroke-width="1"/><text x="30" y="202.0" fill="#6b7280" font-size="11" text-anchor="end">0</text><line x1="36" y1="117.0" x2="664" y2="117.0" stroke="#2a2e37" stroke-width="1"/><text x="30" y="121.0" fill="#6b7280" font-size="11" text-anchor="end">400</text><line x1="36" y1="36.0" x2="664" y2="36.0" stroke="#2a2e37" stroke-width="1"/><text x="30" y="40.0" fill="#6b7280" font-size="11" text-anchor="end">800</text>

<polyline fill="none" stroke="#8a5a5a" stroke-width="2.5" stroke-linejoin="round" points="36.0,145.1 40.6,145.1 45.1,145.1 49.7,145.1 54.2,145.1 58.8,145.1 63.3,145.1 67.9,145.1 72.4,145.1 77.0,145.1 81.5,145.1 86.1,145.1 90.6,145.1 95.2,145.1 99.7,145.1 104.3,145.1 108.8,145.1 113.4,145.1 117.9,145.1 122.5,145.1 127.0,145.1 131.6,145.1 136.1,145.1 140.7,145.1 145.2,145.1 149.8,145.1 154.3,145.1 158.9,145.1 163.4,145.1 168.0,145.1 172.5,145.1 177.1,145.1 181.6,145.1 186.2,145.1 190.7,145.1 195.3,145.1 199.8,145.1 204.4,145.1 208.9,145.1 213.5,145.1 218.0,145.1 222.6,145.1 227.1,145.1 231.7,145.1 236.2,145.1 240.8,145.1 245.3,145.1 249.9,145.1 254.4,145.1 259.0,145.1 263.5,155.7 268.1,155.7 272.6,155.7 277.2,155.7 281.7,155.7 286.3,155.7 290.8,155.7 295.4,155.7 299.9,155.7 304.5,155.7 309.0,155.7 313.6,155.7 318.1,155.7 322.7,155.7 327.2,155.7 331.8,155.7 336.3,155.7 340.9,155.7 345.4,155.7 350.0,155.7 354.6,155.7 359.1,155.7 363.7,155.7 368.2,155.7 372.8,155.7 377.3,155.7 381.9,155.7 386.4,155.7 391.0,155.7 395.5,155.7 400.1,155.7 404.6,155.7 409.2,155.7 413.7,155.7 418.3,167.6 422.8,167.6 427.4,170.3 431.9,170.3 436.5,170.5 441.0,170.7 445.6,170.7 450.1,170.9 454.7,172.7 459.2,180.6 463.8,181.8 468.3,189.1 472.9,190.5 477.4,195.2 482.0,198.0 486.5,198.0 491.1,198.0 495.6,198.0 500.2,198.0 504.7,198.0 509.3,198.0 513.8,198.0 518.4,198.0 522.9,198.0 527.5,198.0 532.0,198.0 536.6,198.0 541.1,198.0 545.7,198.0 550.2,198.0 554.8,198.0 559.3,198.0 563.9,198.0 568.4,198.0 573.0,198.0 577.5,198.0 582.1,198.0 586.6,198.0 591.2,198.0 595.7,198.0 600.3,198.0 604.8,198.0 609.4,198.0 613.9,198.0 618.5,198.0 623.0,198.0 627.6,198.0 632.1,198.0 636.7,198.0 641.2,198.0 645.8,198.0 650.3,198.0 654.9,198.0 659.4,198.0 664.0,198.0"/><circle cx="36.0" cy="145.1" r="3" fill="#8a5a5a"/><circle cx="40.6" cy="145.1" r="3" fill="#8a5a5a"/><circle cx="45.1" cy="145.1" r="3" fill="#8a5a5a"/><circle cx="49.7" cy="145.1" r="3" fill="#8a5a5a"/><circle cx="54.2" cy="145.1" r="3" fill="#8a5a5a"/><circle cx="58.8" cy="145.1" r="3" fill="#8a5a5a"/><circle cx="63.3" cy="145.1" r="3" fill="#8a5a5a"/><circle cx="67.9" cy="145.1" r="3" fill="#8a5a5a"/><circle cx="72.4" cy="145.1" r="3" fill="#8a5a5a"/><circle cx="77.0" cy="145.1" r="3" fill="#8a5a5a"/><circle cx="81.5" cy="145.1" r="3" fill="#8a5a5a"/><circle cx="86.1" cy="145.1" r="3" fill="#8a5a5a"/><circle cx="90.6" cy="145.1" r="3" fill="#8a5a5a"/><circle cx="95.2" cy="145.1" r="3" fill="#8a5a5a"/><circle cx="99.7" cy="145.1" r="3" fill="#8a5a5a"/><circle cx="104.3" cy="145.1" r="3" fill="#8a5a5a"/><circle cx="108.8" cy="145.1" r="3" fill="#8a5a5a"/><circle cx="113.4" cy="145.1" r="3" fill="#8a5a5a"/><circle cx="117.9" cy="145.1" r="3" fill="#8a5a5a"/><circle cx="122.5" cy="145.1" r="3" fill="#8a5a5a"/><circle cx="127.0" cy="145.1" r="3" fill="#8a5a5a"/><circle cx="131.6" cy="145.1" r="3" fill="#8a5a5a"/><circle cx="136.1" cy="145.1" r="3" fill="#8a5a5a"/><circle cx="140.7" cy="145.1" r="3" fill="#8a5a5a"/><circle cx="145.2" cy="145.1" r="3" fill="#8a5a5a"/><circle cx="149.8" cy="145.1" r="3" fill="#8a5a5a"/><circle cx="154.3" cy="145.1" r="3" fill="#8a5a5a"/><circle cx="158.9" cy="145.1" r="3" fill="#8a5a5a"/><circle cx="163.4" cy="145.1" r="3" fill="#8a5a5a"/><circle cx="168.0" cy="145.1" r="3" fill="#8a5a5a"/><circle cx="172.5" cy="145.1" r="3" fill="#8a5a5a"/><circle cx="177.1" cy="145.1" r="3" fill="#8a5a5a"/><circle cx="181.6" cy="145.1" r="3" fill="#8a5a5a"/><circle cx="186.2" cy="145.1" r="3" fill="#8a5a5a"/><circle cx="190.7" cy="145.1" r="3" fill="#8a5a5a"/><circle cx="195.3" cy="145.1" r="3" fill="#8a5a5a"/><circle cx="199.8" cy="145.1" r="3" fill="#8a5a5a"/><circle cx="204.4" cy="145.1" r="3" fill="#8a5a5a"/><circle cx="208.9" cy="145.1" r="3" fill="#8a5a5a"/><circle cx="213.5" cy="145.1" r="3" fill="#8a5a5a"/><circle cx="218.0" cy="145.1" r="3" fill="#8a5a5a"/><circle cx="222.6" cy="145.1" r="3" fill="#8a5a5a"/><circle cx="227.1" cy="145.1" r="3" fill="#8a5a5a"/><circle cx="231.7" cy="145.1" r="3" fill="#8a5a5a"/><circle cx="236.2" cy="145.1" r="3" fill="#8a5a5a"/><circle cx="240.8" cy="145.1" r="3" fill="#8a5a5a"/><circle cx="245.3" cy="145.1" r="3" fill="#8a5a5a"/><circle cx="249.9" cy="145.1" r="3" fill="#8a5a5a"/><circle cx="254.4" cy="145.1" r="3" fill="#8a5a5a"/><circle cx="259.0" cy="145.1" r="3" fill="#8a5a5a"/><circle cx="263.5" cy="155.7" r="3" fill="#8a5a5a"/><circle cx="268.1" cy="155.7" r="3" fill="#8a5a5a"/><circle cx="272.6" cy="155.7" r="3" fill="#8a5a5a"/><circle cx="277.2" cy="155.7" r="3" fill="#8a5a5a"/><circle cx="281.7" cy="155.7" r="3" fill="#8a5a5a"/><circle cx="286.3" cy="155.7" r="3" fill="#8a5a5a"/><circle cx="290.8" cy="155.7" r="3" fill="#8a5a5a"/><circle cx="295.4" cy="155.7" r="3" fill="#8a5a5a"/><circle cx="299.9" cy="155.7" r="3" fill="#8a5a5a"/><circle cx="304.5" cy="155.7" r="3" fill="#8a5a5a"/><circle cx="309.0" cy="155.7" r="3" fill="#8a5a5a"/><circle cx="313.6" cy="155.7" r="3" fill="#8a5a5a"/><circle cx="318.1" cy="155.7" r="3" fill="#8a5a5a"/><circle cx="322.7" cy="155.7" r="3" fill="#8a5a5a"/><circle cx="327.2" cy="155.7" r="3" fill="#8a5a5a"/><circle cx="331.8" cy="155.7" r="3" fill="#8a5a5a"/><circle cx="336.3" cy="155.7" r="3" fill="#8a5a5a"/><circle cx="340.9" cy="155.7" r="3" fill="#8a5a5a"/><circle cx="345.4" cy="155.7" r="3" fill="#8a5a5a"/><circle cx="350.0" cy="155.7" r="3" fill="#8a5a5a"/><circle cx="354.6" cy="155.7" r="3" fill="#8a5a5a"/><circle cx="359.1" cy="155.7" r="3" fill="#8a5a5a"/><circle cx="363.7" cy="155.7" r="3" fill="#8a5a5a"/><circle cx="368.2" cy="155.7" r="3" fill="#8a5a5a"/><circle cx="372.8" cy="155.7" r="3" fill="#8a5a5a"/><circle cx="377.3" cy="155.7" r="3" fill="#8a5a5a"/><circle cx="381.9" cy="155.7" r="3" fill="#8a5a5a"/><circle cx="386.4" cy="155.7" r="3" fill="#8a5a5a"/><circle cx="391.0" cy="155.7" r="3" fill="#8a5a5a"/><circle cx="395.5" cy="155.7" r="3" fill="#8a5a5a"/><circle cx="400.1" cy="155.7" r="3" fill="#8a5a5a"/><circle cx="404.6" cy="155.7" r="3" fill="#8a5a5a"/><circle cx="409.2" cy="155.7" r="3" fill="#8a5a5a"/><circle cx="413.7" cy="155.7" r="3" fill="#8a5a5a"/><circle cx="418.3" cy="167.6" r="3" fill="#8a5a5a"/><circle cx="422.8" cy="167.6" r="3" fill="#8a5a5a"/><circle cx="427.4" cy="170.3" r="3" fill="#8a5a5a"/><circle cx="431.9" cy="170.3" r="3" fill="#8a5a5a"/><circle cx="436.5" cy="170.5" r="3" fill="#8a5a5a"/><circle cx="441.0" cy="170.7" r="3" fill="#8a5a5a"/><circle cx="445.6" cy="170.7" r="3" fill="#8a5a5a"/><circle cx="450.1" cy="170.9" r="3" fill="#8a5a5a"/><circle cx="454.7" cy="172.7" r="3" fill="#8a5a5a"/><circle cx="459.2" cy="180.6" r="3" fill="#8a5a5a"/><circle cx="463.8" cy="181.8" r="3" fill="#8a5a5a"/><circle cx="468.3" cy="189.1" r="3" fill="#8a5a5a"/><circle cx="472.9" cy="190.5" r="3" fill="#8a5a5a"/><circle cx="477.4" cy="195.2" r="3" fill="#8a5a5a"/><circle cx="482.0" cy="198.0" r="3" fill="#8a5a5a"/><circle cx="486.5" cy="198.0" r="3" fill="#8a5a5a"/><circle cx="491.1" cy="198.0" r="3" fill="#8a5a5a"/><circle cx="495.6" cy="198.0" r="3" fill="#8a5a5a"/><circle cx="500.2" cy="198.0" r="3" fill="#8a5a5a"/><circle cx="504.7" cy="198.0" r="3" fill="#8a5a5a"/><circle cx="509.3" cy="198.0" r="3" fill="#8a5a5a"/><circle cx="513.8" cy="198.0" r="3" fill="#8a5a5a"/><circle cx="518.4" cy="198.0" r="3" fill="#8a5a5a"/><circle cx="522.9" cy="198.0" r="3" fill="#8a5a5a"/><circle cx="527.5" cy="198.0" r="3" fill="#8a5a5a"/><circle cx="532.0" cy="198.0" r="3" fill="#8a5a5a"/><circle cx="536.6" cy="198.0" r="3" fill="#8a5a5a"/><circle cx="541.1" cy="198.0" r="3" fill="#8a5a5a"/><circle cx="545.7" cy="198.0" r="3" fill="#8a5a5a"/><circle cx="550.2" cy="198.0" r="3" fill="#8a5a5a"/><circle cx="554.8" cy="198.0" r="3" fill="#8a5a5a"/><circle cx="559.3" cy="198.0" r="3" fill="#8a5a5a"/><circle cx="563.9" cy="198.0" r="3" fill="#8a5a5a"/><circle cx="568.4" cy="198.0" r="3" fill="#8a5a5a"/><circle cx="573.0" cy="198.0" r="3" fill="#8a5a5a"/><circle cx="577.5" cy="198.0" r="3" fill="#8a5a5a"/><circle cx="582.1" cy="198.0" r="3" fill="#8a5a5a"/><circle cx="586.6" cy="198.0" r="3" fill="#8a5a5a"/><circle cx="591.2" cy="198.0" r="3" fill="#8a5a5a"/><circle cx="595.7" cy="198.0" r="3" fill="#8a5a5a"/><circle cx="600.3" cy="198.0" r="3" fill="#8a5a5a"/><circle cx="604.8" cy="198.0" r="3" fill="#8a5a5a"/><circle cx="609.4" cy="198.0" r="3" fill="#8a5a5a"/><circle cx="613.9" cy="198.0" r="3" fill="#8a5a5a"/><circle cx="618.5" cy="198.0" r="3" fill="#8a5a5a"/><circle cx="623.0" cy="198.0" r="3" fill="#8a5a5a"/><circle cx="627.6" cy="198.0" r="3" fill="#8a5a5a"/><circle cx="632.1" cy="198.0" r="3" fill="#8a5a5a"/><circle cx="636.7" cy="198.0" r="3" fill="#8a5a5a"/><circle cx="641.2" cy="198.0" r="3" fill="#8a5a5a"/><circle cx="645.8" cy="198.0" r="3" fill="#8a5a5a"/><circle cx="650.3" cy="198.0" r="3" fill="#8a5a5a"/><circle cx="654.9" cy="198.0" r="3" fill="#8a5a5a"/><circle cx="659.4" cy="198.0" r="3" fill="#8a5a5a"/><circle cx="664.0" cy="198.0" r="3" fill="#8a5a5a"/>
<polyline fill="none" stroke="#3fb950" stroke-width="2.5" stroke-linejoin="round" points="36.0,198.0 40.6,198.0 45.1,198.0 49.7,198.0 54.2,198.0 58.8,198.0 63.3,198.0 67.9,198.0 72.4,198.0 77.0,198.0 81.5,198.0 86.1,198.0 90.6,198.0 95.2,198.0 99.7,198.0 104.3,198.0 108.8,198.0 113.4,198.0 117.9,198.0 122.5,198.0 127.0,198.0 131.6,198.0 136.1,198.0 140.7,198.0 145.2,198.0 149.8,198.0 154.3,198.0 158.9,198.0 163.4,198.0 168.0,198.0 172.5,198.0 177.1,198.0 181.6,198.0 186.2,198.0 190.7,198.0 195.3,198.0 199.8,198.0 204.4,198.0 208.9,198.0 213.5,198.0 218.0,198.0 222.6,198.0 227.1,198.0 231.7,191.7 236.2,191.7 240.8,191.7 245.3,191.7 249.9,191.7 254.4,191.7 259.0,191.7 263.5,192.9 268.1,192.9 272.6,190.7 277.2,190.7 281.7,190.7 286.3,190.7 290.8,190.7 295.4,190.5 299.9,190.5 304.5,190.5 309.0,190.3 313.6,190.3 318.1,190.3 322.7,190.3 327.2,190.3 331.8,190.3 336.3,190.3 340.9,190.3 345.4,190.3 350.0,190.3 354.6,190.3 359.1,190.3 363.7,190.3 368.2,190.3 372.8,190.3 377.3,190.3 381.9,190.3 386.4,190.3 391.0,190.3 395.5,190.3 400.1,190.3 404.6,189.3 409.2,189.3 413.7,189.3 418.3,190.7 422.8,190.7 427.4,190.7 431.9,190.7 436.5,190.7 441.0,190.7 445.6,190.7 450.1,190.7 454.7,190.7 459.2,190.9 463.8,190.9 468.3,190.9 472.9,194.2 477.4,196.8 482.0,198.0 486.5,198.0 491.1,198.0 495.6,198.0 500.2,198.0 504.7,198.0 509.3,198.0 513.8,198.0 518.4,198.0 522.9,198.0 527.5,198.0 532.0,198.0 536.6,198.0 541.1,198.0 545.7,198.0 550.2,198.0 554.8,198.0 559.3,198.0 563.9,198.0 568.4,198.0 573.0,198.0 577.5,198.0 582.1,198.0 586.6,198.0 591.2,198.0 595.7,198.0 600.3,198.0 604.8,198.0 609.4,198.0 613.9,198.0 618.5,198.0 623.0,198.0 627.6,198.0 632.1,198.0 636.7,198.0 641.2,198.0 645.8,198.0 650.3,198.0 654.9,198.0 659.4,198.0 664.0,198.0"/><circle cx="36.0" cy="198.0" r="3" fill="#3fb950"/><circle cx="40.6" cy="198.0" r="3" fill="#3fb950"/><circle cx="45.1" cy="198.0" r="3" fill="#3fb950"/><circle cx="49.7" cy="198.0" r="3" fill="#3fb950"/><circle cx="54.2" cy="198.0" r="3" fill="#3fb950"/><circle cx="58.8" cy="198.0" r="3" fill="#3fb950"/><circle cx="63.3" cy="198.0" r="3" fill="#3fb950"/><circle cx="67.9" cy="198.0" r="3" fill="#3fb950"/><circle cx="72.4" cy="198.0" r="3" fill="#3fb950"/><circle cx="77.0" cy="198.0" r="3" fill="#3fb950"/><circle cx="81.5" cy="198.0" r="3" fill="#3fb950"/><circle cx="86.1" cy="198.0" r="3" fill="#3fb950"/><circle cx="90.6" cy="198.0" r="3" fill="#3fb950"/><circle cx="95.2" cy="198.0" r="3" fill="#3fb950"/><circle cx="99.7" cy="198.0" r="3" fill="#3fb950"/><circle cx="104.3" cy="198.0" r="3" fill="#3fb950"/><circle cx="108.8" cy="198.0" r="3" fill="#3fb950"/><circle cx="113.4" cy="198.0" r="3" fill="#3fb950"/><circle cx="117.9" cy="198.0" r="3" fill="#3fb950"/><circle cx="122.5" cy="198.0" r="3" fill="#3fb950"/><circle cx="127.0" cy="198.0" r="3" fill="#3fb950"/><circle cx="131.6" cy="198.0" r="3" fill="#3fb950"/><circle cx="136.1" cy="198.0" r="3" fill="#3fb950"/><circle cx="140.7" cy="198.0" r="3" fill="#3fb950"/><circle cx="145.2" cy="198.0" r="3" fill="#3fb950"/><circle cx="149.8" cy="198.0" r="3" fill="#3fb950"/><circle cx="154.3" cy="198.0" r="3" fill="#3fb950"/><circle cx="158.9" cy="198.0" r="3" fill="#3fb950"/><circle cx="163.4" cy="198.0" r="3" fill="#3fb950"/><circle cx="168.0" cy="198.0" r="3" fill="#3fb950"/><circle cx="172.5" cy="198.0" r="3" fill="#3fb950"/><circle cx="177.1" cy="198.0" r="3" fill="#3fb950"/><circle cx="181.6" cy="198.0" r="3" fill="#3fb950"/><circle cx="186.2" cy="198.0" r="3" fill="#3fb950"/><circle cx="190.7" cy="198.0" r="3" fill="#3fb950"/><circle cx="195.3" cy="198.0" r="3" fill="#3fb950"/><circle cx="199.8" cy="198.0" r="3" fill="#3fb950"/><circle cx="204.4" cy="198.0" r="3" fill="#3fb950"/><circle cx="208.9" cy="198.0" r="3" fill="#3fb950"/><circle cx="213.5" cy="198.0" r="3" fill="#3fb950"/><circle cx="218.0" cy="198.0" r="3" fill="#3fb950"/><circle cx="222.6" cy="198.0" r="3" fill="#3fb950"/><circle cx="227.1" cy="198.0" r="3" fill="#3fb950"/><circle cx="231.7" cy="191.7" r="3" fill="#3fb950"/><circle cx="236.2" cy="191.7" r="3" fill="#3fb950"/><circle cx="240.8" cy="191.7" r="3" fill="#3fb950"/><circle cx="245.3" cy="191.7" r="3" fill="#3fb950"/><circle cx="249.9" cy="191.7" r="3" fill="#3fb950"/><circle cx="254.4" cy="191.7" r="3" fill="#3fb950"/><circle cx="259.0" cy="191.7" r="3" fill="#3fb950"/><circle cx="263.5" cy="192.9" r="3" fill="#3fb950"/><circle cx="268.1" cy="192.9" r="3" fill="#3fb950"/><circle cx="272.6" cy="190.7" r="3" fill="#3fb950"/><circle cx="277.2" cy="190.7" r="3" fill="#3fb950"/><circle cx="281.7" cy="190.7" r="3" fill="#3fb950"/><circle cx="286.3" cy="190.7" r="3" fill="#3fb950"/><circle cx="290.8" cy="190.7" r="3" fill="#3fb950"/><circle cx="295.4" cy="190.5" r="3" fill="#3fb950"/><circle cx="299.9" cy="190.5" r="3" fill="#3fb950"/><circle cx="304.5" cy="190.5" r="3" fill="#3fb950"/><circle cx="309.0" cy="190.3" r="3" fill="#3fb950"/><circle cx="313.6" cy="190.3" r="3" fill="#3fb950"/><circle cx="318.1" cy="190.3" r="3" fill="#3fb950"/><circle cx="322.7" cy="190.3" r="3" fill="#3fb950"/><circle cx="327.2" cy="190.3" r="3" fill="#3fb950"/><circle cx="331.8" cy="190.3" r="3" fill="#3fb950"/><circle cx="336.3" cy="190.3" r="3" fill="#3fb950"/><circle cx="340.9" cy="190.3" r="3" fill="#3fb950"/><circle cx="345.4" cy="190.3" r="3" fill="#3fb950"/><circle cx="350.0" cy="190.3" r="3" fill="#3fb950"/><circle cx="354.6" cy="190.3" r="3" fill="#3fb950"/><circle cx="359.1" cy="190.3" r="3" fill="#3fb950"/><circle cx="363.7" cy="190.3" r="3" fill="#3fb950"/><circle cx="368.2" cy="190.3" r="3" fill="#3fb950"/><circle cx="372.8" cy="190.3" r="3" fill="#3fb950"/><circle cx="377.3" cy="190.3" r="3" fill="#3fb950"/><circle cx="381.9" cy="190.3" r="3" fill="#3fb950"/><circle cx="386.4" cy="190.3" r="3" fill="#3fb950"/><circle cx="391.0" cy="190.3" r="3" fill="#3fb950"/><circle cx="395.5" cy="190.3" r="3" fill="#3fb950"/><circle cx="400.1" cy="190.3" r="3" fill="#3fb950"/><circle cx="404.6" cy="189.3" r="3" fill="#3fb950"/><circle cx="409.2" cy="189.3" r="3" fill="#3fb950"/><circle cx="413.7" cy="189.3" r="3" fill="#3fb950"/><circle cx="418.3" cy="190.7" r="3" fill="#3fb950"/><circle cx="422.8" cy="190.7" r="3" fill="#3fb950"/><circle cx="427.4" cy="190.7" r="3" fill="#3fb950"/><circle cx="431.9" cy="190.7" r="3" fill="#3fb950"/><circle cx="436.5" cy="190.7" r="3" fill="#3fb950"/><circle cx="441.0" cy="190.7" r="3" fill="#3fb950"/><circle cx="445.6" cy="190.7" r="3" fill="#3fb950"/><circle cx="450.1" cy="190.7" r="3" fill="#3fb950"/><circle cx="454.7" cy="190.7" r="3" fill="#3fb950"/><circle cx="459.2" cy="190.9" r="3" fill="#3fb950"/><circle cx="463.8" cy="190.9" r="3" fill="#3fb950"/><circle cx="468.3" cy="190.9" r="3" fill="#3fb950"/><circle cx="472.9" cy="194.2" r="3" fill="#3fb950"/><circle cx="477.4" cy="196.8" r="3" fill="#3fb950"/><circle cx="482.0" cy="198.0" r="3" fill="#3fb950"/><circle cx="486.5" cy="198.0" r="3" fill="#3fb950"/><circle cx="491.1" cy="198.0" r="3" fill="#3fb950"/><circle cx="495.6" cy="198.0" r="3" fill="#3fb950"/><circle cx="500.2" cy="198.0" r="3" fill="#3fb950"/><circle cx="504.7" cy="198.0" r="3" fill="#3fb950"/><circle cx="509.3" cy="198.0" r="3" fill="#3fb950"/><circle cx="513.8" cy="198.0" r="3" fill="#3fb950"/><circle cx="518.4" cy="198.0" r="3" fill="#3fb950"/><circle cx="522.9" cy="198.0" r="3" fill="#3fb950"/><circle cx="527.5" cy="198.0" r="3" fill="#3fb950"/><circle cx="532.0" cy="198.0" r="3" fill="#3fb950"/><circle cx="536.6" cy="198.0" r="3" fill="#3fb950"/><circle cx="541.1" cy="198.0" r="3" fill="#3fb950"/><circle cx="545.7" cy="198.0" r="3" fill="#3fb950"/><circle cx="550.2" cy="198.0" r="3" fill="#3fb950"/><circle cx="554.8" cy="198.0" r="3" fill="#3fb950"/><circle cx="559.3" cy="198.0" r="3" fill="#3fb950"/><circle cx="563.9" cy="198.0" r="3" fill="#3fb950"/><circle cx="568.4" cy="198.0" r="3" fill="#3fb950"/><circle cx="573.0" cy="198.0" r="3" fill="#3fb950"/><circle cx="577.5" cy="198.0" r="3" fill="#3fb950"/><circle cx="582.1" cy="198.0" r="3" fill="#3fb950"/><circle cx="586.6" cy="198.0" r="3" fill="#3fb950"/><circle cx="591.2" cy="198.0" r="3" fill="#3fb950"/><circle cx="595.7" cy="198.0" r="3" fill="#3fb950"/><circle cx="600.3" cy="198.0" r="3" fill="#3fb950"/><circle cx="604.8" cy="198.0" r="3" fill="#3fb950"/><circle cx="609.4" cy="198.0" r="3" fill="#3fb950"/><circle cx="613.9" cy="198.0" r="3" fill="#3fb950"/><circle cx="618.5" cy="198.0" r="3" fill="#3fb950"/><circle cx="623.0" cy="198.0" r="3" fill="#3fb950"/><circle cx="627.6" cy="198.0" r="3" fill="#3fb950"/><circle cx="632.1" cy="198.0" r="3" fill="#3fb950"/><circle cx="636.7" cy="198.0" r="3" fill="#3fb950"/><circle cx="641.2" cy="198.0" r="3" fill="#3fb950"/><circle cx="645.8" cy="198.0" r="3" fill="#3fb950"/><circle cx="650.3" cy="198.0" r="3" fill="#3fb950"/><circle cx="654.9" cy="198.0" r="3" fill="#3fb950"/><circle cx="659.4" cy="198.0" r="3" fill="#3fb950"/><circle cx="664.0" cy="198.0" r="3" fill="#3fb950"/>
<polyline fill="none" stroke="#4aa3ff" stroke-width="2.5" stroke-linejoin="round" points="36.0,144.3 40.6,144.3 45.1,144.3 49.7,144.3 54.2,144.3 58.8,144.3 63.3,144.3 67.9,144.3 72.4,144.3 77.0,144.3 81.5,144.3 86.1,144.3 90.6,144.3 95.2,144.3 99.7,144.3 104.3,136.2 108.8,132.4 113.4,129.6 117.9,129.6 122.5,121.0 127.0,121.0 131.6,121.0 136.1,114.4 140.7,114.4 145.2,114.4 149.8,111.3 154.3,110.9 158.9,110.9 163.4,110.5 168.0,110.5 172.5,109.9 177.1,108.7 181.6,107.3 186.2,106.9 190.7,106.9 195.3,106.9 199.8,106.9 204.4,106.9 208.9,106.9 213.5,106.9 218.0,106.9 222.6,106.9 227.1,106.9 231.7,113.2 236.2,113.2 240.8,113.2 245.3,113.2 249.9,113.2 254.4,110.7 259.0,105.3 263.5,83.4 268.1,83.4 272.6,85.6 277.2,85.6 281.7,85.6 286.3,85.6 290.8,85.6 295.4,85.8 299.9,85.8 304.5,85.8 309.0,86.0 313.6,86.0 318.1,86.0 322.7,86.0 327.2,86.0 331.8,86.0 336.3,86.0 340.9,86.0 345.4,86.0 350.0,86.0 354.6,86.0 359.1,86.0 363.7,86.0 368.2,86.0 372.8,86.0 377.3,86.0 381.9,86.0 386.4,86.0 391.0,86.0 395.5,86.0 400.1,86.0 404.6,87.0 409.2,87.0 413.7,87.0 418.3,73.7 422.8,73.7 427.4,71.0 431.9,71.0 436.5,70.8 441.0,70.6 445.6,70.6 450.1,70.4 454.7,68.6 459.2,60.5 463.8,59.3 468.3,52.0 472.9,47.3 477.4,40.1 482.0,36.0 486.5,36.0 491.1,36.0 495.6,36.0 500.2,36.0 504.7,36.0 509.3,36.0 513.8,36.0 518.4,36.0 522.9,36.0 527.5,36.0 532.0,36.0 536.6,36.0 541.1,36.0 545.7,36.0 550.2,36.0 554.8,36.0 559.3,36.0 563.9,36.0 568.4,36.0 573.0,36.0 577.5,36.0 582.1,36.0 586.6,36.0 591.2,36.0 595.7,36.0 600.3,36.0 604.8,36.0 609.4,36.0 613.9,36.0 618.5,36.0 623.0,36.0 627.6,36.0 632.1,36.0 636.7,36.0 641.2,36.0 645.8,36.0 650.3,36.0 654.9,36.0 659.4,36.0 664.0,36.0"/><circle cx="36.0" cy="144.3" r="3" fill="#4aa3ff"/><circle cx="40.6" cy="144.3" r="3" fill="#4aa3ff"/><circle cx="45.1" cy="144.3" r="3" fill="#4aa3ff"/><circle cx="49.7" cy="144.3" r="3" fill="#4aa3ff"/><circle cx="54.2" cy="144.3" r="3" fill="#4aa3ff"/><circle cx="58.8" cy="144.3" r="3" fill="#4aa3ff"/><circle cx="63.3" cy="144.3" r="3" fill="#4aa3ff"/><circle cx="67.9" cy="144.3" r="3" fill="#4aa3ff"/><circle cx="72.4" cy="144.3" r="3" fill="#4aa3ff"/><circle cx="77.0" cy="144.3" r="3" fill="#4aa3ff"/><circle cx="81.5" cy="144.3" r="3" fill="#4aa3ff"/><circle cx="86.1" cy="144.3" r="3" fill="#4aa3ff"/><circle cx="90.6" cy="144.3" r="3" fill="#4aa3ff"/><circle cx="95.2" cy="144.3" r="3" fill="#4aa3ff"/><circle cx="99.7" cy="144.3" r="3" fill="#4aa3ff"/><circle cx="104.3" cy="136.2" r="3" fill="#4aa3ff"/><circle cx="108.8" cy="132.4" r="3" fill="#4aa3ff"/><circle cx="113.4" cy="129.6" r="3" fill="#4aa3ff"/><circle cx="117.9" cy="129.6" r="3" fill="#4aa3ff"/><circle cx="122.5" cy="121.0" r="3" fill="#4aa3ff"/><circle cx="127.0" cy="121.0" r="3" fill="#4aa3ff"/><circle cx="131.6" cy="121.0" r="3" fill="#4aa3ff"/><circle cx="136.1" cy="114.4" r="3" fill="#4aa3ff"/><circle cx="140.7" cy="114.4" r="3" fill="#4aa3ff"/><circle cx="145.2" cy="114.4" r="3" fill="#4aa3ff"/><circle cx="149.8" cy="111.3" r="3" fill="#4aa3ff"/><circle cx="154.3" cy="110.9" r="3" fill="#4aa3ff"/><circle cx="158.9" cy="110.9" r="3" fill="#4aa3ff"/><circle cx="163.4" cy="110.5" r="3" fill="#4aa3ff"/><circle cx="168.0" cy="110.5" r="3" fill="#4aa3ff"/><circle cx="172.5" cy="109.9" r="3" fill="#4aa3ff"/><circle cx="177.1" cy="108.7" r="3" fill="#4aa3ff"/><circle cx="181.6" cy="107.3" r="3" fill="#4aa3ff"/><circle cx="186.2" cy="106.9" r="3" fill="#4aa3ff"/><circle cx="190.7" cy="106.9" r="3" fill="#4aa3ff"/><circle cx="195.3" cy="106.9" r="3" fill="#4aa3ff"/><circle cx="199.8" cy="106.9" r="3" fill="#4aa3ff"/><circle cx="204.4" cy="106.9" r="3" fill="#4aa3ff"/><circle cx="208.9" cy="106.9" r="3" fill="#4aa3ff"/><circle cx="213.5" cy="106.9" r="3" fill="#4aa3ff"/><circle cx="218.0" cy="106.9" r="3" fill="#4aa3ff"/><circle cx="222.6" cy="106.9" r="3" fill="#4aa3ff"/><circle cx="227.1" cy="106.9" r="3" fill="#4aa3ff"/><circle cx="231.7" cy="113.2" r="3" fill="#4aa3ff"/><circle cx="236.2" cy="113.2" r="3" fill="#4aa3ff"/><circle cx="240.8" cy="113.2" r="3" fill="#4aa3ff"/><circle cx="245.3" cy="113.2" r="3" fill="#4aa3ff"/><circle cx="249.9" cy="113.2" r="3" fill="#4aa3ff"/><circle cx="254.4" cy="110.7" r="3" fill="#4aa3ff"/><circle cx="259.0" cy="105.3" r="3" fill="#4aa3ff"/><circle cx="263.5" cy="83.4" r="3" fill="#4aa3ff"/><circle cx="268.1" cy="83.4" r="3" fill="#4aa3ff"/><circle cx="272.6" cy="85.6" r="3" fill="#4aa3ff"/><circle cx="277.2" cy="85.6" r="3" fill="#4aa3ff"/><circle cx="281.7" cy="85.6" r="3" fill="#4aa3ff"/><circle cx="286.3" cy="85.6" r="3" fill="#4aa3ff"/><circle cx="290.8" cy="85.6" r="3" fill="#4aa3ff"/><circle cx="295.4" cy="85.8" r="3" fill="#4aa3ff"/><circle cx="299.9" cy="85.8" r="3" fill="#4aa3ff"/><circle cx="304.5" cy="85.8" r="3" fill="#4aa3ff"/><circle cx="309.0" cy="86.0" r="3" fill="#4aa3ff"/><circle cx="313.6" cy="86.0" r="3" fill="#4aa3ff"/><circle cx="318.1" cy="86.0" r="3" fill="#4aa3ff"/><circle cx="322.7" cy="86.0" r="3" fill="#4aa3ff"/><circle cx="327.2" cy="86.0" r="3" fill="#4aa3ff"/><circle cx="331.8" cy="86.0" r="3" fill="#4aa3ff"/><circle cx="336.3" cy="86.0" r="3" fill="#4aa3ff"/><circle cx="340.9" cy="86.0" r="3" fill="#4aa3ff"/><circle cx="345.4" cy="86.0" r="3" fill="#4aa3ff"/><circle cx="350.0" cy="86.0" r="3" fill="#4aa3ff"/><circle cx="354.6" cy="86.0" r="3" fill="#4aa3ff"/><circle cx="359.1" cy="86.0" r="3" fill="#4aa3ff"/><circle cx="363.7" cy="86.0" r="3" fill="#4aa3ff"/><circle cx="368.2" cy="86.0" r="3" fill="#4aa3ff"/><circle cx="372.8" cy="86.0" r="3" fill="#4aa3ff"/><circle cx="377.3" cy="86.0" r="3" fill="#4aa3ff"/><circle cx="381.9" cy="86.0" r="3" fill="#4aa3ff"/><circle cx="386.4" cy="86.0" r="3" fill="#4aa3ff"/><circle cx="391.0" cy="86.0" r="3" fill="#4aa3ff"/><circle cx="395.5" cy="86.0" r="3" fill="#4aa3ff"/><circle cx="400.1" cy="86.0" r="3" fill="#4aa3ff"/><circle cx="404.6" cy="87.0" r="3" fill="#4aa3ff"/><circle cx="409.2" cy="87.0" r="3" fill="#4aa3ff"/><circle cx="413.7" cy="87.0" r="3" fill="#4aa3ff"/><circle cx="418.3" cy="73.7" r="3" fill="#4aa3ff"/><circle cx="422.8" cy="73.7" r="3" fill="#4aa3ff"/><circle cx="427.4" cy="71.0" r="3" fill="#4aa3ff"/><circle cx="431.9" cy="71.0" r="3" fill="#4aa3ff"/><circle cx="436.5" cy="70.8" r="3" fill="#4aa3ff"/><circle cx="441.0" cy="70.6" r="3" fill="#4aa3ff"/><circle cx="445.6" cy="70.6" r="3" fill="#4aa3ff"/><circle cx="450.1" cy="70.4" r="3" fill="#4aa3ff"/><circle cx="454.7" cy="68.6" r="3" fill="#4aa3ff"/><circle cx="459.2" cy="60.5" r="3" fill="#4aa3ff"/><circle cx="463.8" cy="59.3" r="3" fill="#4aa3ff"/><circle cx="468.3" cy="52.0" r="3" fill="#4aa3ff"/><circle cx="472.9" cy="47.3" r="3" fill="#4aa3ff"/><circle cx="477.4" cy="40.1" r="3" fill="#4aa3ff"/><circle cx="482.0" cy="36.0" r="3" fill="#4aa3ff"/><circle cx="486.5" cy="36.0" r="3" fill="#4aa3ff"/><circle cx="491.1" cy="36.0" r="3" fill="#4aa3ff"/><circle cx="495.6" cy="36.0" r="3" fill="#4aa3ff"/><circle cx="500.2" cy="36.0" r="3" fill="#4aa3ff"/><circle cx="504.7" cy="36.0" r="3" fill="#4aa3ff"/><circle cx="509.3" cy="36.0" r="3" fill="#4aa3ff"/><circle cx="513.8" cy="36.0" r="3" fill="#4aa3ff"/><circle cx="518.4" cy="36.0" r="3" fill="#4aa3ff"/><circle cx="522.9" cy="36.0" r="3" fill="#4aa3ff"/><circle cx="527.5" cy="36.0" r="3" fill="#4aa3ff"/><circle cx="532.0" cy="36.0" r="3" fill="#4aa3ff"/><circle cx="536.6" cy="36.0" r="3" fill="#4aa3ff"/><circle cx="541.1" cy="36.0" r="3" fill="#4aa3ff"/><circle cx="545.7" cy="36.0" r="3" fill="#4aa3ff"/><circle cx="550.2" cy="36.0" r="3" fill="#4aa3ff"/><circle cx="554.8" cy="36.0" r="3" fill="#4aa3ff"/><circle cx="559.3" cy="36.0" r="3" fill="#4aa3ff"/><circle cx="563.9" cy="36.0" r="3" fill="#4aa3ff"/><circle cx="568.4" cy="36.0" r="3" fill="#4aa3ff"/><circle cx="573.0" cy="36.0" r="3" fill="#4aa3ff"/><circle cx="577.5" cy="36.0" r="3" fill="#4aa3ff"/><circle cx="582.1" cy="36.0" r="3" fill="#4aa3ff"/><circle cx="586.6" cy="36.0" r="3" fill="#4aa3ff"/><circle cx="591.2" cy="36.0" r="3" fill="#4aa3ff"/><circle cx="595.7" cy="36.0" r="3" fill="#4aa3ff"/><circle cx="600.3" cy="36.0" r="3" fill="#4aa3ff"/><circle cx="604.8" cy="36.0" r="3" fill="#4aa3ff"/><circle cx="609.4" cy="36.0" r="3" fill="#4aa3ff"/><circle cx="613.9" cy="36.0" r="3" fill="#4aa3ff"/><circle cx="618.5" cy="36.0" r="3" fill="#4aa3ff"/><circle cx="623.0" cy="36.0" r="3" fill="#4aa3ff"/><circle cx="627.6" cy="36.0" r="3" fill="#4aa3ff"/><circle cx="632.1" cy="36.0" r="3" fill="#4aa3ff"/><circle cx="636.7" cy="36.0" r="3" fill="#4aa3ff"/><circle cx="641.2" cy="36.0" r="3" fill="#4aa3ff"/><circle cx="645.8" cy="36.0" r="3" fill="#4aa3ff"/><circle cx="650.3" cy="36.0" r="3" fill="#4aa3ff"/><circle cx="654.9" cy="36.0" r="3" fill="#4aa3ff"/><circle cx="659.4" cy="36.0" r="3" fill="#4aa3ff"/><circle cx="664.0" cy="36.0" r="3" fill="#4aa3ff"/>
<text x="36" y="225" fill="#6b7280" font-size="11">2026-06-26</text>
<text x="664" y="225" fill="#6b7280" font-size="11" text-anchor="end">2026-07-11</text>
<text x="36" y="212" font-family="system-ui,sans-serif" font-size="11">
<tspan fill="#4aa3ff">&#9679; open FPs</tspan>  <tspan fill="#3fb950">&#9679; closed (Anthropic acting)</tspan>  <tspan fill="#8a5a5a">&#9679; harness withdrawn</tspan></text>
<text x="664" y="22" text-anchor="end" font-family="system-ui,sans-serif" font-size="12">
<tspan fill="#4aa3ff">open 800</tspan>  <tspan fill="#3fb950">closed 0</tspan>  <tspan fill="#8a5a5a">harness 0</tspan></text>
</svg>