<svg xmlns="http://www.w3.org/2000/svg" width="700" height="234" viewBox="0 0 700 234" role="img">
<rect width="700" height="234" rx="12" fill="#16181d"/>
<text x="36" y="22" fill="#e8eaed" font-family="system-ui,sans-serif" font-size="14" font-weight="700">Is Anthropic acting? cyber/aup false positives over time</text>
<line x1="36" y1="198.0" x2="664" y2="198.0" stroke="#2a2e37" stroke-width="1"/><text x="30" y="202.0" fill="#6b7280" font-size="11" text-anchor="end">0</text><line x1="36" y1="117.0" x2="664" y2="117.0" stroke="#2a2e37" stroke-width="1"/><text x="30" y="121.0" fill="#6b7280" font-size="11" text-anchor="end">162</text><line x1="36" y1="36.0" x2="664" y2="36.0" stroke="#2a2e37" stroke-width="1"/><text x="30" y="40.0" fill="#6b7280" font-size="11" text-anchor="end">324</text>

<polyline fill="none" stroke="#8a5a5a" stroke-width="2.5" stroke-linejoin="round" points="36.0,67.5 75.2,67.5 114.5,67.5 153.8,67.5 193.0,67.5 232.2,67.5 271.5,67.5 310.8,67.5 350.0,67.5 389.2,67.5 428.5,67.5 467.8,67.5 507.0,67.5 546.2,67.5 585.5,67.5 624.8,67.5 664.0,67.5"/><circle cx="36.0" cy="67.5" r="3" fill="#8a5a5a"/><circle cx="75.2" cy="67.5" r="3" fill="#8a5a5a"/><circle cx="114.5" cy="67.5" r="3" fill="#8a5a5a"/><circle cx="153.8" cy="67.5" r="3" fill="#8a5a5a"/><circle cx="193.0" cy="67.5" r="3" fill="#8a5a5a"/><circle cx="232.2" cy="67.5" r="3" fill="#8a5a5a"/><circle cx="271.5" cy="67.5" r="3" fill="#8a5a5a"/><circle cx="310.8" cy="67.5" r="3" fill="#8a5a5a"/><circle cx="350.0" cy="67.5" r="3" fill="#8a5a5a"/><circle cx="389.2" cy="67.5" r="3" fill="#8a5a5a"/><circle cx="428.5" cy="67.5" r="3" fill="#8a5a5a"/><circle cx="467.8" cy="67.5" r="3" fill="#8a5a5a"/><circle cx="507.0" cy="67.5" r="3" fill="#8a5a5a"/><circle cx="546.2" cy="67.5" r="3" fill="#8a5a5a"/><circle cx="585.5" cy="67.5" r="3" fill="#8a5a5a"/><circle cx="624.8" cy="67.5" r="3" fill="#8a5a5a"/><circle cx="664.0" cy="67.5" r="3" fill="#8a5a5a"/>
<polyline fill="none" stroke="#3fb950" stroke-width="2.5" stroke-linejoin="round" points="36.0,198.0 75.2,198.0 114.5,198.0 153.8,198.0 193.0,198.0 232.2,198.0 271.5,198.0 310.8,198.0 350.0,198.0 389.2,198.0 428.5,198.0 467.8,198.0 507.0,198.0 546.2,198.0 585.5,198.0 624.8,198.0 664.0,198.0"/><circle cx="36.0" cy="198.0" r="3" fill="#3fb950"/><circle cx="75.2" cy="198.0" r="3" fill="#3fb950"/><circle cx="114.5" cy="198.0" r="3" fill="#3fb950"/><circle cx="153.8" cy="198.0" r="3" fill="#3fb950"/><circle cx="193.0" cy="198.0" r="3" fill="#3fb950"/><circle cx="232.2" cy="198.0" r="3" fill="#3fb950"/><circle cx="271.5" cy="198.0" r="3" fill="#3fb950"/><circle cx="310.8" cy="198.0" r="3" fill="#3fb950"/><circle cx="350.0" cy="198.0" r="3" fill="#3fb950"/><circle cx="389.2" cy="198.0" r="3" fill="#3fb950"/><circle cx="428.5" cy="198.0" r="3" fill="#3fb950"/><circle cx="467.8" cy="198.0" r="3" fill="#3fb950"/><circle cx="507.0" cy="198.0" r="3" fill="#3fb950"/><circle cx="546.2" cy="198.0" r="3" fill="#3fb950"/><circle cx="585.5" cy="198.0" r="3" fill="#3fb950"/><circle cx="624.8" cy="198.0" r="3" fill="#3fb950"/><circle cx="664.0" cy="198.0" r="3" fill="#3fb950"/>
<polyline fill="none" stroke="#4aa3ff" stroke-width="2.5" stroke-linejoin="round" points="36.0,65.5 75.2,65.5 114.5,65.5 153.8,65.5 193.0,65.5 232.2,65.5 271.5,65.5 310.8,65.5 350.0,65.5 389.2,65.5 428.5,65.5 467.8,65.5 507.0,65.5 546.2,65.5 585.5,65.5 624.8,45.5 664.0,36.0"/><circle cx="36.0" cy="65.5" r="3" fill="#4aa3ff"/><circle cx="75.2" cy="65.5" r="3" fill="#4aa3ff"/><circle cx="114.5" cy="65.5" r="3" fill="#4aa3ff"/><circle cx="153.8" cy="65.5" r="3" fill="#4aa3ff"/><circle cx="193.0" cy="65.5" r="3" fill="#4aa3ff"/><circle cx="232.2" cy="65.5" r="3" fill="#4aa3ff"/><circle cx="271.5" cy="65.5" r="3" fill="#4aa3ff"/><circle cx="310.8" cy="65.5" r="3" fill="#4aa3ff"/><circle cx="350.0" cy="65.5" r="3" fill="#4aa3ff"/><circle cx="389.2" cy="65.5" r="3" fill="#4aa3ff"/><circle cx="428.5" cy="65.5" r="3" fill="#4aa3ff"/><circle cx="467.8" cy="65.5" r="3" fill="#4aa3ff"/><circle cx="507.0" cy="65.5" r="3" fill="#4aa3ff"/><circle cx="546.2" cy="65.5" r="3" fill="#4aa3ff"/><circle cx="585.5" cy="65.5" r="3" fill="#4aa3ff"/><circle cx="624.8" cy="45.5" r="3" fill="#4aa3ff"/><circle cx="664.0" cy="36.0" r="3" fill="#4aa3ff"/>
<text x="36" y="225" fill="#6b7280" font-size="11">2026-06-26</text>
<text x="664" y="225" fill="#6b7280" font-size="11" text-anchor="end">2026-06-27</text>
<text x="36" y="212" font-family="system-ui,sans-serif" font-size="11">
<tspan fill="#4aa3ff">&#9679; open FPs</tspan>  <tspan fill="#3fb950">&#9679; closed (Anthropic acting)</tspan>  <tspan fill="#8a5a5a">&#9679; harness withdrawn</tspan></text>
<text x="664" y="22" text-anchor="end" font-family="system-ui,sans-serif" font-size="12">
<tspan fill="#4aa3ff">open 324</tspan>  <tspan fill="#3fb950">closed 0</tspan>  <tspan fill="#8a5a5a">harness 261</tspan></text>
</svg>