<svg xmlns="http://www.w3.org/2000/svg" width="700" height="234" viewBox="0 0 700 234" role="img">
<rect width="700" height="234" rx="12" fill="#16181d"/>
<text x="36" y="22" fill="#e8eaed" font-family="system-ui,sans-serif" font-size="14" font-weight="700">Is Anthropic acting? cyber/aup false positives over time</text>
<line x1="36" y1="198.0" x2="664" y2="198.0" stroke="#2a2e37" stroke-width="1"/><text x="30" y="202.0" fill="#6b7280" font-size="11" text-anchor="end">0</text><line x1="36" y1="117.0" x2="664" y2="117.0" stroke="#2a2e37" stroke-width="1"/><text x="30" y="121.0" fill="#6b7280" font-size="11" text-anchor="end">283</text><line x1="36" y1="36.0" x2="664" y2="36.0" stroke="#2a2e37" stroke-width="1"/><text x="30" y="40.0" fill="#6b7280" font-size="11" text-anchor="end">566</text>

<polyline fill="none" stroke="#8a5a5a" stroke-width="2.5" stroke-linejoin="round" points="36.0,123.3 43.6,123.3 51.1,123.3 58.7,123.3 66.3,123.3 73.8,123.3 81.4,123.3 89.0,123.3 96.5,123.3 104.1,123.3 111.7,123.3 119.2,123.3 126.8,123.3 134.4,123.3 141.9,123.3 149.5,123.3 157.1,123.3 164.6,123.3 172.2,123.3 179.8,123.3 187.3,123.3 194.9,123.3 202.5,123.3 210.0,123.3 217.6,123.3 225.2,123.3 232.7,123.3 240.3,123.3 247.9,123.3 255.4,123.3 263.0,123.3 270.6,123.3 278.1,123.3 285.7,123.3 293.3,123.3 300.8,123.3 308.4,123.3 316.0,123.3 323.5,123.3 331.1,123.3 338.7,123.3 346.2,123.3 353.8,123.3 361.3,123.3 368.9,123.3 376.5,123.3 384.0,123.3 391.6,123.3 399.2,123.3 406.7,123.3 414.3,138.2 421.9,138.2 429.4,138.2 437.0,138.2 444.6,138.2 452.1,138.2 459.7,138.2 467.3,138.2 474.8,138.2 482.4,138.2 490.0,138.2 497.5,138.2 505.1,138.2 512.7,138.2 520.2,138.2 527.8,138.2 535.4,138.2 542.9,138.2 550.5,138.2 558.1,138.2 565.6,138.2 573.2,138.2 580.8,138.2 588.3,138.2 595.9,138.2 603.5,138.2 611.0,138.2 618.6,138.2 626.2,138.2 633.7,138.2 641.3,138.2 648.9,138.2 656.4,138.2 664.0,138.2"/><circle cx="36.0" cy="123.3" r="3" fill="#8a5a5a"/><circle cx="43.6" cy="123.3" r="3" fill="#8a5a5a"/><circle cx="51.1" cy="123.3" r="3" fill="#8a5a5a"/><circle cx="58.7" cy="123.3" r="3" fill="#8a5a5a"/><circle cx="66.3" cy="123.3" r="3" fill="#8a5a5a"/><circle cx="73.8" cy="123.3" r="3" fill="#8a5a5a"/><circle cx="81.4" cy="123.3" r="3" fill="#8a5a5a"/><circle cx="89.0" cy="123.3" r="3" fill="#8a5a5a"/><circle cx="96.5" cy="123.3" r="3" fill="#8a5a5a"/><circle cx="104.1" cy="123.3" r="3" fill="#8a5a5a"/><circle cx="111.7" cy="123.3" r="3" fill="#8a5a5a"/><circle cx="119.2" cy="123.3" r="3" fill="#8a5a5a"/><circle cx="126.8" cy="123.3" r="3" fill="#8a5a5a"/><circle cx="134.4" cy="123.3" r="3" fill="#8a5a5a"/><circle cx="141.9" cy="123.3" r="3" fill="#8a5a5a"/><circle cx="149.5" cy="123.3" r="3" fill="#8a5a5a"/><circle cx="157.1" cy="123.3" r="3" fill="#8a5a5a"/><circle cx="164.6" cy="123.3" r="3" fill="#8a5a5a"/><circle cx="172.2" cy="123.3" r="3" fill="#8a5a5a"/><circle cx="179.8" cy="123.3" r="3" fill="#8a5a5a"/><circle cx="187.3" cy="123.3" r="3" fill="#8a5a5a"/><circle cx="194.9" cy="123.3" r="3" fill="#8a5a5a"/><circle cx="202.5" cy="123.3" r="3" fill="#8a5a5a"/><circle cx="210.0" cy="123.3" r="3" fill="#8a5a5a"/><circle cx="217.6" cy="123.3" r="3" fill="#8a5a5a"/><circle cx="225.2" cy="123.3" r="3" fill="#8a5a5a"/><circle cx="232.7" cy="123.3" r="3" fill="#8a5a5a"/><circle cx="240.3" cy="123.3" r="3" fill="#8a5a5a"/><circle cx="247.9" cy="123.3" r="3" fill="#8a5a5a"/><circle cx="255.4" cy="123.3" r="3" fill="#8a5a5a"/><circle cx="263.0" cy="123.3" r="3" fill="#8a5a5a"/><circle cx="270.6" cy="123.3" r="3" fill="#8a5a5a"/><circle cx="278.1" cy="123.3" r="3" fill="#8a5a5a"/><circle cx="285.7" cy="123.3" r="3" fill="#8a5a5a"/><circle cx="293.3" cy="123.3" r="3" fill="#8a5a5a"/><circle cx="300.8" cy="123.3" r="3" fill="#8a5a5a"/><circle cx="308.4" cy="123.3" r="3" fill="#8a5a5a"/><circle cx="316.0" cy="123.3" r="3" fill="#8a5a5a"/><circle cx="323.5" cy="123.3" r="3" fill="#8a5a5a"/><circle cx="331.1" cy="123.3" r="3" fill="#8a5a5a"/><circle cx="338.7" cy="123.3" r="3" fill="#8a5a5a"/><circle cx="346.2" cy="123.3" r="3" fill="#8a5a5a"/><circle cx="353.8" cy="123.3" r="3" fill="#8a5a5a"/><circle cx="361.3" cy="123.3" r="3" fill="#8a5a5a"/><circle cx="368.9" cy="123.3" r="3" fill="#8a5a5a"/><circle cx="376.5" cy="123.3" r="3" fill="#8a5a5a"/><circle cx="384.0" cy="123.3" r="3" fill="#8a5a5a"/><circle cx="391.6" cy="123.3" r="3" fill="#8a5a5a"/><circle cx="399.2" cy="123.3" r="3" fill="#8a5a5a"/><circle cx="406.7" cy="123.3" r="3" fill="#8a5a5a"/><circle cx="414.3" cy="138.2" r="3" fill="#8a5a5a"/><circle cx="421.9" cy="138.2" r="3" fill="#8a5a5a"/><circle cx="429.4" cy="138.2" r="3" fill="#8a5a5a"/><circle cx="437.0" cy="138.2" r="3" fill="#8a5a5a"/><circle cx="444.6" cy="138.2" r="3" fill="#8a5a5a"/><circle cx="452.1" cy="138.2" r="3" fill="#8a5a5a"/><circle cx="459.7" cy="138.2" r="3" fill="#8a5a5a"/><circle cx="467.3" cy="138.2" r="3" fill="#8a5a5a"/><circle cx="474.8" cy="138.2" r="3" fill="#8a5a5a"/><circle cx="482.4" cy="138.2" r="3" fill="#8a5a5a"/><circle cx="490.0" cy="138.2" r="3" fill="#8a5a5a"/><circle cx="497.5" cy="138.2" r="3" fill="#8a5a5a"/><circle cx="505.1" cy="138.2" r="3" fill="#8a5a5a"/><circle cx="512.7" cy="138.2" r="3" fill="#8a5a5a"/><circle cx="520.2" cy="138.2" r="3" fill="#8a5a5a"/><circle cx="527.8" cy="138.2" r="3" fill="#8a5a5a"/><circle cx="535.4" cy="138.2" r="3" fill="#8a5a5a"/><circle cx="542.9" cy="138.2" r="3" fill="#8a5a5a"/><circle cx="550.5" cy="138.2" r="3" fill="#8a5a5a"/><circle cx="558.1" cy="138.2" r="3" fill="#8a5a5a"/><circle cx="565.6" cy="138.2" r="3" fill="#8a5a5a"/><circle cx="573.2" cy="138.2" r="3" fill="#8a5a5a"/><circle cx="580.8" cy="138.2" r="3" fill="#8a5a5a"/><circle cx="588.3" cy="138.2" r="3" fill="#8a5a5a"/><circle cx="595.9" cy="138.2" r="3" fill="#8a5a5a"/><circle cx="603.5" cy="138.2" r="3" fill="#8a5a5a"/><circle cx="611.0" cy="138.2" r="3" fill="#8a5a5a"/><circle cx="618.6" cy="138.2" r="3" fill="#8a5a5a"/><circle cx="626.2" cy="138.2" r="3" fill="#8a5a5a"/><circle cx="633.7" cy="138.2" r="3" fill="#8a5a5a"/><circle cx="641.3" cy="138.2" r="3" fill="#8a5a5a"/><circle cx="648.9" cy="138.2" r="3" fill="#8a5a5a"/><circle cx="656.4" cy="138.2" r="3" fill="#8a5a5a"/><circle cx="664.0" cy="138.2" r="3" fill="#8a5a5a"/>
<polyline fill="none" stroke="#3fb950" stroke-width="2.5" stroke-linejoin="round" points="36.0,198.0 43.6,198.0 51.1,198.0 58.7,198.0 66.3,198.0 73.8,198.0 81.4,198.0 89.0,198.0 96.5,198.0 104.1,198.0 111.7,198.0 119.2,198.0 126.8,198.0 134.4,198.0 141.9,198.0 149.5,198.0 157.1,198.0 164.6,198.0 172.2,198.0 179.8,198.0 187.3,198.0 194.9,198.0 202.5,198.0 210.0,198.0 217.6,198.0 225.2,198.0 232.7,198.0 240.3,198.0 247.9,198.0 255.4,198.0 263.0,198.0 270.6,198.0 278.1,198.0 285.7,198.0 293.3,198.0 300.8,198.0 308.4,198.0 316.0,198.0 323.5,198.0 331.1,198.0 338.7,198.0 346.2,198.0 353.8,198.0 361.3,189.1 368.9,189.1 376.5,189.1 384.0,189.1 391.6,189.1 399.2,189.1 406.7,189.1 414.3,190.8 421.9,190.8 429.4,187.7 437.0,187.7 444.6,187.7 452.1,187.7 459.7,187.7 467.3,187.4 474.8,187.4 482.4,187.4 490.0,187.1 497.5,187.1 505.1,187.1 512.7,187.1 520.2,187.1 527.8,187.1 535.4,187.1 542.9,187.1 550.5,187.1 558.1,187.1 565.6,187.1 573.2,187.1 580.8,187.1 588.3,187.1 595.9,187.1 603.5,187.1 611.0,187.1 618.6,187.1 626.2,187.1 633.7,187.1 641.3,187.1 648.9,185.7 656.4,185.7 664.0,185.7"/><circle cx="36.0" cy="198.0" r="3" fill="#3fb950"/><circle cx="43.6" cy="198.0" r="3" fill="#3fb950"/><circle cx="51.1" cy="198.0" r="3" fill="#3fb950"/><circle cx="58.7" cy="198.0" r="3" fill="#3fb950"/><circle cx="66.3" cy="198.0" r="3" fill="#3fb950"/><circle cx="73.8" cy="198.0" r="3" fill="#3fb950"/><circle cx="81.4" cy="198.0" r="3" fill="#3fb950"/><circle cx="89.0" cy="198.0" r="3" fill="#3fb950"/><circle cx="96.5" cy="198.0" r="3" fill="#3fb950"/><circle cx="104.1" cy="198.0" r="3" fill="#3fb950"/><circle cx="111.7" cy="198.0" r="3" fill="#3fb950"/><circle cx="119.2" cy="198.0" r="3" fill="#3fb950"/><circle cx="126.8" cy="198.0" r="3" fill="#3fb950"/><circle cx="134.4" cy="198.0" r="3" fill="#3fb950"/><circle cx="141.9" cy="198.0" r="3" fill="#3fb950"/><circle cx="149.5" cy="198.0" r="3" fill="#3fb950"/><circle cx="157.1" cy="198.0" r="3" fill="#3fb950"/><circle cx="164.6" cy="198.0" r="3" fill="#3fb950"/><circle cx="172.2" cy="198.0" r="3" fill="#3fb950"/><circle cx="179.8" cy="198.0" r="3" fill="#3fb950"/><circle cx="187.3" cy="198.0" r="3" fill="#3fb950"/><circle cx="194.9" cy="198.0" r="3" fill="#3fb950"/><circle cx="202.5" cy="198.0" r="3" fill="#3fb950"/><circle cx="210.0" cy="198.0" r="3" fill="#3fb950"/><circle cx="217.6" cy="198.0" r="3" fill="#3fb950"/><circle cx="225.2" cy="198.0" r="3" fill="#3fb950"/><circle cx="232.7" cy="198.0" r="3" fill="#3fb950"/><circle cx="240.3" cy="198.0" r="3" fill="#3fb950"/><circle cx="247.9" cy="198.0" r="3" fill="#3fb950"/><circle cx="255.4" cy="198.0" r="3" fill="#3fb950"/><circle cx="263.0" cy="198.0" r="3" fill="#3fb950"/><circle cx="270.6" cy="198.0" r="3" fill="#3fb950"/><circle cx="278.1" cy="198.0" r="3" fill="#3fb950"/><circle cx="285.7" cy="198.0" r="3" fill="#3fb950"/><circle cx="293.3" cy="198.0" r="3" fill="#3fb950"/><circle cx="300.8" cy="198.0" r="3" fill="#3fb950"/><circle cx="308.4" cy="198.0" r="3" fill="#3fb950"/><circle cx="316.0" cy="198.0" r="3" fill="#3fb950"/><circle cx="323.5" cy="198.0" r="3" fill="#3fb950"/><circle cx="331.1" cy="198.0" r="3" fill="#3fb950"/><circle cx="338.7" cy="198.0" r="3" fill="#3fb950"/><circle cx="346.2" cy="198.0" r="3" fill="#3fb950"/><circle cx="353.8" cy="198.0" r="3" fill="#3fb950"/><circle cx="361.3" cy="189.1" r="3" fill="#3fb950"/><circle cx="368.9" cy="189.1" r="3" fill="#3fb950"/><circle cx="376.5" cy="189.1" r="3" fill="#3fb950"/><circle cx="384.0" cy="189.1" r="3" fill="#3fb950"/><circle cx="391.6" cy="189.1" r="3" fill="#3fb950"/><circle cx="399.2" cy="189.1" r="3" fill="#3fb950"/><circle cx="406.7" cy="189.1" r="3" fill="#3fb950"/><circle cx="414.3" cy="190.8" r="3" fill="#3fb950"/><circle cx="421.9" cy="190.8" r="3" fill="#3fb950"/><circle cx="429.4" cy="187.7" r="3" fill="#3fb950"/><circle cx="437.0" cy="187.7" r="3" fill="#3fb950"/><circle cx="444.6" cy="187.7" r="3" fill="#3fb950"/><circle cx="452.1" cy="187.7" r="3" fill="#3fb950"/><circle cx="459.7" cy="187.7" r="3" fill="#3fb950"/><circle cx="467.3" cy="187.4" r="3" fill="#3fb950"/><circle cx="474.8" cy="187.4" r="3" fill="#3fb950"/><circle cx="482.4" cy="187.4" r="3" fill="#3fb950"/><circle cx="490.0" cy="187.1" r="3" fill="#3fb950"/><circle cx="497.5" cy="187.1" r="3" fill="#3fb950"/><circle cx="505.1" cy="187.1" r="3" fill="#3fb950"/><circle cx="512.7" cy="187.1" r="3" fill="#3fb950"/><circle cx="520.2" cy="187.1" r="3" fill="#3fb950"/><circle cx="527.8" cy="187.1" r="3" fill="#3fb950"/><circle cx="535.4" cy="187.1" r="3" fill="#3fb950"/><circle cx="542.9" cy="187.1" r="3" fill="#3fb950"/><circle cx="550.5" cy="187.1" r="3" fill="#3fb950"/><circle cx="558.1" cy="187.1" r="3" fill="#3fb950"/><circle cx="565.6" cy="187.1" r="3" fill="#3fb950"/><circle cx="573.2" cy="187.1" r="3" fill="#3fb950"/><circle cx="580.8" cy="187.1" r="3" fill="#3fb950"/><circle cx="588.3" cy="187.1" r="3" fill="#3fb950"/><circle cx="595.9" cy="187.1" r="3" fill="#3fb950"/><circle cx="603.5" cy="187.1" r="3" fill="#3fb950"/><circle cx="611.0" cy="187.1" r="3" fill="#3fb950"/><circle cx="618.6" cy="187.1" r="3" fill="#3fb950"/><circle cx="626.2" cy="187.1" r="3" fill="#3fb950"/><circle cx="633.7" cy="187.1" r="3" fill="#3fb950"/><circle cx="641.3" cy="187.1" r="3" fill="#3fb950"/><circle cx="648.9" cy="185.7" r="3" fill="#3fb950"/><circle cx="656.4" cy="185.7" r="3" fill="#3fb950"/><circle cx="664.0" cy="185.7" r="3" fill="#3fb950"/>
<polyline fill="none" stroke="#4aa3ff" stroke-width="2.5" stroke-linejoin="round" points="36.0,122.2 43.6,122.2 51.1,122.2 58.7,122.2 66.3,122.2 73.8,122.2 81.4,122.2 89.0,122.2 96.5,122.2 104.1,122.2 111.7,122.2 119.2,122.2 126.8,122.2 134.4,122.2 141.9,122.2 149.5,110.7 157.1,105.3 164.6,101.3 172.2,101.3 179.8,89.2 187.3,89.2 194.9,89.2 202.5,79.8 210.0,79.8 217.6,79.8 225.2,75.5 232.7,74.9 240.3,74.9 247.9,74.4 255.4,74.4 263.0,73.5 270.6,71.8 278.1,69.8 285.7,69.2 293.3,69.2 300.8,69.2 308.4,69.2 316.0,69.2 323.5,69.2 331.1,69.2 338.7,69.2 346.2,69.2 353.8,69.2 361.3,78.1 368.9,78.1 376.5,78.1 384.0,78.1 391.6,78.1 399.2,74.6 406.7,66.9 414.3,36.0 421.9,36.0 429.4,39.1 437.0,39.1 444.6,39.1 452.1,39.1 459.7,39.1 467.3,39.4 474.8,39.4 482.4,39.4 490.0,39.7 497.5,39.7 505.1,39.7 512.7,39.7 520.2,39.7 527.8,39.7 535.4,39.7 542.9,39.7 550.5,39.7 558.1,39.7 565.6,39.7 573.2,39.7 580.8,39.7 588.3,39.7 595.9,39.7 603.5,39.7 611.0,39.7 618.6,39.7 626.2,39.7 633.7,39.7 641.3,39.7 648.9,41.2 656.4,41.2 664.0,41.2"/><circle cx="36.0" cy="122.2" r="3" fill="#4aa3ff"/><circle cx="43.6" cy="122.2" r="3" fill="#4aa3ff"/><circle cx="51.1" cy="122.2" r="3" fill="#4aa3ff"/><circle cx="58.7" cy="122.2" r="3" fill="#4aa3ff"/><circle cx="66.3" cy="122.2" r="3" fill="#4aa3ff"/><circle cx="73.8" cy="122.2" r="3" fill="#4aa3ff"/><circle cx="81.4" cy="122.2" r="3" fill="#4aa3ff"/><circle cx="89.0" cy="122.2" r="3" fill="#4aa3ff"/><circle cx="96.5" cy="122.2" r="3" fill="#4aa3ff"/><circle cx="104.1" cy="122.2" r="3" fill="#4aa3ff"/><circle cx="111.7" cy="122.2" r="3" fill="#4aa3ff"/><circle cx="119.2" cy="122.2" r="3" fill="#4aa3ff"/><circle cx="126.8" cy="122.2" r="3" fill="#4aa3ff"/><circle cx="134.4" cy="122.2" r="3" fill="#4aa3ff"/><circle cx="141.9" cy="122.2" r="3" fill="#4aa3ff"/><circle cx="149.5" cy="110.7" r="3" fill="#4aa3ff"/><circle cx="157.1" cy="105.3" r="3" fill="#4aa3ff"/><circle cx="164.6" cy="101.3" r="3" fill="#4aa3ff"/><circle cx="172.2" cy="101.3" r="3" fill="#4aa3ff"/><circle cx="179.8" cy="89.2" r="3" fill="#4aa3ff"/><circle cx="187.3" cy="89.2" r="3" fill="#4aa3ff"/><circle cx="194.9" cy="89.2" r="3" fill="#4aa3ff"/><circle cx="202.5" cy="79.8" r="3" fill="#4aa3ff"/><circle cx="210.0" cy="79.8" r="3" fill="#4aa3ff"/><circle cx="217.6" cy="79.8" r="3" fill="#4aa3ff"/><circle cx="225.2" cy="75.5" r="3" fill="#4aa3ff"/><circle cx="232.7" cy="74.9" r="3" fill="#4aa3ff"/><circle cx="240.3" cy="74.9" r="3" fill="#4aa3ff"/><circle cx="247.9" cy="74.4" r="3" fill="#4aa3ff"/><circle cx="255.4" cy="74.4" r="3" fill="#4aa3ff"/><circle cx="263.0" cy="73.5" r="3" fill="#4aa3ff"/><circle cx="270.6" cy="71.8" r="3" fill="#4aa3ff"/><circle cx="278.1" cy="69.8" r="3" fill="#4aa3ff"/><circle cx="285.7" cy="69.2" r="3" fill="#4aa3ff"/><circle cx="293.3" cy="69.2" r="3" fill="#4aa3ff"/><circle cx="300.8" cy="69.2" r="3" fill="#4aa3ff"/><circle cx="308.4" cy="69.2" r="3" fill="#4aa3ff"/><circle cx="316.0" cy="69.2" r="3" fill="#4aa3ff"/><circle cx="323.5" cy="69.2" r="3" fill="#4aa3ff"/><circle cx="331.1" cy="69.2" r="3" fill="#4aa3ff"/><circle cx="338.7" cy="69.2" r="3" fill="#4aa3ff"/><circle cx="346.2" cy="69.2" r="3" fill="#4aa3ff"/><circle cx="353.8" cy="69.2" r="3" fill="#4aa3ff"/><circle cx="361.3" cy="78.1" r="3" fill="#4aa3ff"/><circle cx="368.9" cy="78.1" r="3" fill="#4aa3ff"/><circle cx="376.5" cy="78.1" r="3" fill="#4aa3ff"/><circle cx="384.0" cy="78.1" r="3" fill="#4aa3ff"/><circle cx="391.6" cy="78.1" r="3" fill="#4aa3ff"/><circle cx="399.2" cy="74.6" r="3" fill="#4aa3ff"/><circle cx="406.7" cy="66.9" r="3" fill="#4aa3ff"/><circle cx="414.3" cy="36.0" r="3" fill="#4aa3ff"/><circle cx="421.9" cy="36.0" r="3" fill="#4aa3ff"/><circle cx="429.4" cy="39.1" r="3" fill="#4aa3ff"/><circle cx="437.0" cy="39.1" r="3" fill="#4aa3ff"/><circle cx="444.6" cy="39.1" r="3" fill="#4aa3ff"/><circle cx="452.1" cy="39.1" r="3" fill="#4aa3ff"/><circle cx="459.7" cy="39.1" r="3" fill="#4aa3ff"/><circle cx="467.3" cy="39.4" r="3" fill="#4aa3ff"/><circle cx="474.8" cy="39.4" r="3" fill="#4aa3ff"/><circle cx="482.4" cy="39.4" r="3" fill="#4aa3ff"/><circle cx="490.0" cy="39.7" r="3" fill="#4aa3ff"/><circle cx="497.5" cy="39.7" r="3" fill="#4aa3ff"/><circle cx="505.1" cy="39.7" r="3" fill="#4aa3ff"/><circle cx="512.7" cy="39.7" r="3" fill="#4aa3ff"/><circle cx="520.2" cy="39.7" r="3" fill="#4aa3ff"/><circle cx="527.8" cy="39.7" r="3" fill="#4aa3ff"/><circle cx="535.4" cy="39.7" r="3" fill="#4aa3ff"/><circle cx="542.9" cy="39.7" r="3" fill="#4aa3ff"/><circle cx="550.5" cy="39.7" r="3" fill="#4aa3ff"/><circle cx="558.1" cy="39.7" r="3" fill="#4aa3ff"/><circle cx="565.6" cy="39.7" r="3" fill="#4aa3ff"/><circle cx="573.2" cy="39.7" r="3" fill="#4aa3ff"/><circle cx="580.8" cy="39.7" r="3" fill="#4aa3ff"/><circle cx="588.3" cy="39.7" r="3" fill="#4aa3ff"/><circle cx="595.9" cy="39.7" r="3" fill="#4aa3ff"/><circle cx="603.5" cy="39.7" r="3" fill="#4aa3ff"/><circle cx="611.0" cy="39.7" r="3" fill="#4aa3ff"/><circle cx="618.6" cy="39.7" r="3" fill="#4aa3ff"/><circle cx="626.2" cy="39.7" r="3" fill="#4aa3ff"/><circle cx="633.7" cy="39.7" r="3" fill="#4aa3ff"/><circle cx="641.3" cy="39.7" r="3" fill="#4aa3ff"/><circle cx="648.9" cy="41.2" r="3" fill="#4aa3ff"/><circle cx="656.4" cy="41.2" r="3" fill="#4aa3ff"/><circle cx="664.0" cy="41.2" r="3" fill="#4aa3ff"/>
<text x="36" y="225" fill="#6b7280" font-size="11">2026-06-26</text>
<text x="664" y="225" fill="#6b7280" font-size="11" text-anchor="end">2026-07-05</text>
<text x="36" y="212" font-family="system-ui,sans-serif" font-size="11">
<tspan fill="#4aa3ff">&#9679; open FPs</tspan>  <tspan fill="#3fb950">&#9679; closed (Anthropic acting)</tspan>  <tspan fill="#8a5a5a">&#9679; harness withdrawn</tspan></text>
<text x="664" y="22" text-anchor="end" font-family="system-ui,sans-serif" font-size="12">
<tspan fill="#4aa3ff">open 548</tspan>  <tspan fill="#3fb950">closed 43</tspan>  <tspan fill="#8a5a5a">harness 209</tspan></text>
</svg>