<svg xmlns="http://www.w3.org/2000/svg" width="700" height="234" viewBox="0 0 700 234" role="img">
<rect width="700" height="234" rx="12" fill="#16181d"/>
<text x="36" y="22" fill="#e8eaed" font-family="system-ui,sans-serif" font-size="14" font-weight="700">Is Anthropic acting? cyber/aup false positives over time</text>
<line x1="36" y1="198.0" x2="664" y2="198.0" stroke="#2a2e37" stroke-width="1"/><text x="30" y="202.0" fill="#6b7280" font-size="11" text-anchor="end">0</text><line x1="36" y1="117.0" x2="664" y2="117.0" stroke="#2a2e37" stroke-width="1"/><text x="30" y="121.0" fill="#6b7280" font-size="11" text-anchor="end">400</text><line x1="36" y1="36.0" x2="664" y2="36.0" stroke="#2a2e37" stroke-width="1"/><text x="30" y="40.0" fill="#6b7280" font-size="11" text-anchor="end">800</text>

<polyline fill="none" stroke="#8a5a5a" stroke-width="2.5" stroke-linejoin="round" points="36.0,145.1 38.9,145.1 41.9,145.1 44.8,145.1 47.8,145.1 50.7,145.1 53.7,145.1 56.6,145.1 59.6,145.1 62.5,145.1 65.5,145.1 68.4,145.1 71.4,145.1 74.3,145.1 77.3,145.1 80.2,145.1 83.2,145.1 86.1,145.1 89.1,145.1 92.0,145.1 95.0,145.1 97.9,145.1 100.9,145.1 103.8,145.1 106.8,145.1 109.7,145.1 112.7,145.1 115.6,145.1 118.6,145.1 121.5,145.1 124.5,145.1 127.4,145.1 130.3,145.1 133.3,145.1 136.2,145.1 139.2,145.1 142.1,145.1 145.1,145.1 148.0,145.1 151.0,145.1 153.9,145.1 156.9,145.1 159.8,145.1 162.8,145.1 165.7,145.1 168.7,145.1 171.6,145.1 174.6,145.1 177.5,145.1 180.5,145.1 183.4,155.7 186.4,155.7 189.3,155.7 192.3,155.7 195.2,155.7 198.2,155.7 201.1,155.7 204.1,155.7 207.0,155.7 210.0,155.7 212.9,155.7 215.8,155.7 218.8,155.7 221.7,155.7 224.7,155.7 227.6,155.7 230.6,155.7 233.5,155.7 236.5,155.7 239.4,155.7 242.4,155.7 245.3,155.7 248.3,155.7 251.2,155.7 254.2,155.7 257.1,155.7 260.1,155.7 263.0,155.7 266.0,155.7 268.9,155.7 271.9,155.7 274.8,155.7 277.8,155.7 280.7,155.7 283.7,167.6 286.6,167.6 289.6,170.3 292.5,170.3 295.5,170.5 298.4,170.7 301.4,170.7 304.3,170.9 307.2,172.7 310.2,180.6 313.1,181.8 316.1,189.1 319.0,190.5 322.0,195.2 324.9,198.0 327.9,198.0 330.8,198.0 333.8,198.0 336.7,198.0 339.7,198.0 342.6,198.0 345.6,198.0 348.5,198.0 351.5,198.0 354.4,198.0 357.4,198.0 360.3,198.0 363.3,198.0 366.2,198.0 369.2,198.0 372.1,198.0 375.1,198.0 378.0,198.0 381.0,198.0 383.9,198.0 386.9,198.0 389.8,198.0 392.8,198.0 395.7,198.0 398.6,198.0 401.6,198.0 404.5,198.0 407.5,198.0 410.4,198.0 413.4,198.0 416.3,198.0 419.3,198.0 422.2,198.0 425.2,198.0 428.1,198.0 431.1,198.0 434.0,198.0 437.0,198.0 439.9,198.0 442.9,198.0 445.8,198.0 448.8,198.0 451.7,198.0 454.7,198.0 457.6,198.0 460.6,198.0 463.5,198.0 466.5,198.0 469.4,198.0 472.4,198.0 475.3,198.0 478.3,198.0 481.2,198.0 484.2,198.0 487.1,198.0 490.0,198.0 493.0,198.0 495.9,198.0 498.9,198.0 501.8,198.0 504.8,198.0 507.7,198.0 510.7,198.0 513.6,198.0 516.6,198.0 519.5,198.0 522.5,198.0 525.4,198.0 528.4,198.0 531.3,198.0 534.3,198.0 537.2,198.0 540.2,198.0 543.1,198.0 546.1,198.0 549.0,198.0 552.0,198.0 554.9,198.0 557.9,198.0 560.8,198.0 563.8,198.0 566.7,198.0 569.7,198.0 572.6,198.0 575.5,198.0 578.5,198.0 581.4,198.0 584.4,198.0 587.3,198.0 590.3,198.0 593.2,198.0 596.2,198.0 599.1,198.0 602.1,198.0 605.0,198.0 608.0,198.0 610.9,198.0 613.9,198.0 616.8,198.0 619.8,198.0 622.7,198.0 625.7,198.0 628.6,198.0 631.6,198.0 634.5,198.0 637.5,198.0 640.4,198.0 643.4,198.0 646.3,198.0 649.3,198.0 652.2,198.0 655.2,198.0 658.1,198.0 661.1,198.0 664.0,198.0"/><circle cx="36.0" cy="145.1" r="3" fill="#8a5a5a"/><circle cx="38.9" cy="145.1" r="3" fill="#8a5a5a"/><circle cx="41.9" cy="145.1" r="3" fill="#8a5a5a"/><circle cx="44.8" cy="145.1" r="3" fill="#8a5a5a"/><circle cx="47.8" cy="145.1" r="3" fill="#8a5a5a"/><circle cx="50.7" cy="145.1" r="3" fill="#8a5a5a"/><circle cx="53.7" cy="145.1" r="3" fill="#8a5a5a"/><circle cx="56.6" cy="145.1" r="3" fill="#8a5a5a"/><circle cx="59.6" cy="145.1" r="3" fill="#8a5a5a"/><circle cx="62.5" cy="145.1" r="3" fill="#8a5a5a"/><circle cx="65.5" cy="145.1" r="3" fill="#8a5a5a"/><circle cx="68.4" cy="145.1" r="3" fill="#8a5a5a"/><circle cx="71.4" cy="145.1" r="3" fill="#8a5a5a"/><circle cx="74.3" cy="145.1" r="3" fill="#8a5a5a"/><circle cx="77.3" cy="145.1" r="3" fill="#8a5a5a"/><circle cx="80.2" cy="145.1" r="3" fill="#8a5a5a"/><circle cx="83.2" cy="145.1" r="3" fill="#8a5a5a"/><circle cx="86.1" cy="145.1" r="3" fill="#8a5a5a"/><circle cx="89.1" cy="145.1" r="3" fill="#8a5a5a"/><circle cx="92.0" cy="145.1" r="3" fill="#8a5a5a"/><circle cx="95.0" cy="145.1" r="3" fill="#8a5a5a"/><circle cx="97.9" cy="145.1" r="3" fill="#8a5a5a"/><circle cx="100.9" cy="145.1" r="3" fill="#8a5a5a"/><circle cx="103.8" cy="145.1" r="3" fill="#8a5a5a"/><circle cx="106.8" cy="145.1" r="3" fill="#8a5a5a"/><circle cx="109.7" cy="145.1" r="3" fill="#8a5a5a"/><circle cx="112.7" cy="145.1" r="3" fill="#8a5a5a"/><circle cx="115.6" cy="145.1" r="3" fill="#8a5a5a"/><circle cx="118.6" cy="145.1" r="3" fill="#8a5a5a"/><circle cx="121.5" cy="145.1" r="3" fill="#8a5a5a"/><circle cx="124.5" cy="145.1" r="3" fill="#8a5a5a"/><circle cx="127.4" cy="145.1" r="3" fill="#8a5a5a"/><circle cx="130.3" cy="145.1" r="3" fill="#8a5a5a"/><circle cx="133.3" cy="145.1" r="3" fill="#8a5a5a"/><circle cx="136.2" cy="145.1" r="3" fill="#8a5a5a"/><circle cx="139.2" cy="145.1" r="3" fill="#8a5a5a"/><circle cx="142.1" cy="145.1" r="3" fill="#8a5a5a"/><circle cx="145.1" cy="145.1" r="3" fill="#8a5a5a"/><circle cx="148.0" cy="145.1" r="3" fill="#8a5a5a"/><circle cx="151.0" cy="145.1" r="3" fill="#8a5a5a"/><circle cx="153.9" cy="145.1" r="3" fill="#8a5a5a"/><circle cx="156.9" cy="145.1" r="3" fill="#8a5a5a"/><circle cx="159.8" cy="145.1" r="3" fill="#8a5a5a"/><circle cx="162.8" cy="145.1" r="3" fill="#8a5a5a"/><circle cx="165.7" cy="145.1" r="3" fill="#8a5a5a"/><circle cx="168.7" cy="145.1" r="3" fill="#8a5a5a"/><circle cx="171.6" cy="145.1" r="3" fill="#8a5a5a"/><circle cx="174.6" cy="145.1" r="3" fill="#8a5a5a"/><circle cx="177.5" cy="145.1" r="3" fill="#8a5a5a"/><circle cx="180.5" cy="145.1" r="3" fill="#8a5a5a"/><circle cx="183.4" cy="155.7" r="3" fill="#8a5a5a"/><circle cx="186.4" cy="155.7" r="3" fill="#8a5a5a"/><circle cx="189.3" cy="155.7" r="3" fill="#8a5a5a"/><circle cx="192.3" cy="155.7" r="3" fill="#8a5a5a"/><circle cx="195.2" cy="155.7" r="3" fill="#8a5a5a"/><circle cx="198.2" cy="155.7" r="3" fill="#8a5a5a"/><circle cx="201.1" cy="155.7" r="3" fill="#8a5a5a"/><circle cx="204.1" cy="155.7" r="3" fill="#8a5a5a"/><circle cx="207.0" cy="155.7" r="3" fill="#8a5a5a"/><circle cx="210.0" cy="155.7" r="3" fill="#8a5a5a"/><circle cx="212.9" cy="155.7" r="3" fill="#8a5a5a"/><circle cx="215.8" cy="155.7" r="3" fill="#8a5a5a"/><circle cx="218.8" cy="155.7" r="3" fill="#8a5a5a"/><circle cx="221.7" cy="155.7" r="3" fill="#8a5a5a"/><circle cx="224.7" cy="155.7" r="3" fill="#8a5a5a"/><circle cx="227.6" cy="155.7" r="3" fill="#8a5a5a"/><circle cx="230.6" cy="155.7" r="3" fill="#8a5a5a"/><circle cx="233.5" cy="155.7" r="3" fill="#8a5a5a"/><circle cx="236.5" cy="155.7" r="3" fill="#8a5a5a"/><circle cx="239.4" cy="155.7" r="3" fill="#8a5a5a"/><circle cx="242.4" cy="155.7" r="3" fill="#8a5a5a"/><circle cx="245.3" cy="155.7" r="3" fill="#8a5a5a"/><circle cx="248.3" cy="155.7" r="3" fill="#8a5a5a"/><circle cx="251.2" cy="155.7" r="3" fill="#8a5a5a"/><circle cx="254.2" cy="155.7" r="3" fill="#8a5a5a"/><circle cx="257.1" cy="155.7" r="3" fill="#8a5a5a"/><circle cx="260.1" cy="155.7" r="3" fill="#8a5a5a"/><circle cx="263.0" cy="155.7" r="3" fill="#8a5a5a"/><circle cx="266.0" cy="155.7" r="3" fill="#8a5a5a"/><circle cx="268.9" cy="155.7" r="3" fill="#8a5a5a"/><circle cx="271.9" cy="155.7" r="3" fill="#8a5a5a"/><circle cx="274.8" cy="155.7" r="3" fill="#8a5a5a"/><circle cx="277.8" cy="155.7" r="3" fill="#8a5a5a"/><circle cx="280.7" cy="155.7" r="3" fill="#8a5a5a"/><circle cx="283.7" cy="167.6" r="3" fill="#8a5a5a"/><circle cx="286.6" cy="167.6" r="3" fill="#8a5a5a"/><circle cx="289.6" cy="170.3" r="3" fill="#8a5a5a"/><circle cx="292.5" cy="170.3" r="3" fill="#8a5a5a"/><circle cx="295.5" cy="170.5" r="3" fill="#8a5a5a"/><circle cx="298.4" cy="170.7" r="3" fill="#8a5a5a"/><circle cx="301.4" cy="170.7" r="3" fill="#8a5a5a"/><circle cx="304.3" cy="170.9" r="3" fill="#8a5a5a"/><circle cx="307.2" cy="172.7" r="3" fill="#8a5a5a"/><circle cx="310.2" cy="180.6" r="3" fill="#8a5a5a"/><circle cx="313.1" cy="181.8" r="3" fill="#8a5a5a"/><circle cx="316.1" cy="189.1" r="3" fill="#8a5a5a"/><circle cx="319.0" cy="190.5" r="3" fill="#8a5a5a"/><circle cx="322.0" cy="195.2" r="3" fill="#8a5a5a"/><circle cx="324.9" cy="198.0" r="3" fill="#8a5a5a"/><circle cx="327.9" cy="198.0" r="3" fill="#8a5a5a"/><circle cx="330.8" cy="198.0" r="3" fill="#8a5a5a"/><circle cx="333.8" cy="198.0" r="3" fill="#8a5a5a"/><circle cx="336.7" cy="198.0" r="3" fill="#8a5a5a"/><circle cx="339.7" cy="198.0" r="3" fill="#8a5a5a"/><circle cx="342.6" cy="198.0" r="3" fill="#8a5a5a"/><circle cx="345.6" cy="198.0" r="3" fill="#8a5a5a"/><circle cx="348.5" cy="198.0" r="3" fill="#8a5a5a"/><circle cx="351.5" cy="198.0" r="3" fill="#8a5a5a"/><circle cx="354.4" cy="198.0" r="3" fill="#8a5a5a"/><circle cx="357.4" cy="198.0" r="3" fill="#8a5a5a"/><circle cx="360.3" cy="198.0" r="3" fill="#8a5a5a"/><circle cx="363.3" cy="198.0" r="3" fill="#8a5a5a"/><circle cx="366.2" cy="198.0" r="3" fill="#8a5a5a"/><circle cx="369.2" cy="198.0" r="3" fill="#8a5a5a"/><circle cx="372.1" cy="198.0" r="3" fill="#8a5a5a"/><circle cx="375.1" cy="198.0" r="3" fill="#8a5a5a"/><circle cx="378.0" cy="198.0" r="3" fill="#8a5a5a"/><circle cx="381.0" cy="198.0" r="3" fill="#8a5a5a"/><circle cx="383.9" cy="198.0" r="3" fill="#8a5a5a"/><circle cx="386.9" cy="198.0" r="3" fill="#8a5a5a"/><circle cx="389.8" cy="198.0" r="3" fill="#8a5a5a"/><circle cx="392.8" cy="198.0" r="3" fill="#8a5a5a"/><circle cx="395.7" cy="198.0" r="3" fill="#8a5a5a"/><circle cx="398.6" cy="198.0" r="3" fill="#8a5a5a"/><circle cx="401.6" cy="198.0" r="3" fill="#8a5a5a"/><circle cx="404.5" cy="198.0" r="3" fill="#8a5a5a"/><circle cx="407.5" cy="198.0" r="3" fill="#8a5a5a"/><circle cx="410.4" cy="198.0" r="3" fill="#8a5a5a"/><circle cx="413.4" cy="198.0" r="3" fill="#8a5a5a"/><circle cx="416.3" cy="198.0" r="3" fill="#8a5a5a"/><circle cx="419.3" cy="198.0" r="3" fill="#8a5a5a"/><circle cx="422.2" cy="198.0" r="3" fill="#8a5a5a"/><circle cx="425.2" cy="198.0" r="3" fill="#8a5a5a"/><circle cx="428.1" cy="198.0" r="3" fill="#8a5a5a"/><circle cx="431.1" cy="198.0" r="3" fill="#8a5a5a"/><circle cx="434.0" cy="198.0" r="3" fill="#8a5a5a"/><circle cx="437.0" cy="198.0" r="3" fill="#8a5a5a"/><circle cx="439.9" cy="198.0" r="3" fill="#8a5a5a"/><circle cx="442.9" cy="198.0" r="3" fill="#8a5a5a"/><circle cx="445.8" cy="198.0" r="3" fill="#8a5a5a"/><circle cx="448.8" cy="198.0" r="3" fill="#8a5a5a"/><circle cx="451.7" cy="198.0" r="3" fill="#8a5a5a"/><circle cx="454.7" cy="198.0" r="3" fill="#8a5a5a"/><circle cx="457.6" cy="198.0" r="3" fill="#8a5a5a"/><circle cx="460.6" cy="198.0" r="3" fill="#8a5a5a"/><circle cx="463.5" cy="198.0" r="3" fill="#8a5a5a"/><circle cx="466.5" cy="198.0" r="3" fill="#8a5a5a"/><circle cx="469.4" cy="198.0" r="3" fill="#8a5a5a"/><circle cx="472.4" cy="198.0" r="3" fill="#8a5a5a"/><circle cx="475.3" cy="198.0" r="3" fill="#8a5a5a"/><circle cx="478.3" cy="198.0" r="3" fill="#8a5a5a"/><circle cx="481.2" cy="198.0" r="3" fill="#8a5a5a"/><circle cx="484.2" cy="198.0" r="3" fill="#8a5a5a"/><circle cx="487.1" cy="198.0" r="3" fill="#8a5a5a"/><circle cx="490.0" cy="198.0" r="3" fill="#8a5a5a"/><circle cx="493.0" cy="198.0" r="3" fill="#8a5a5a"/><circle cx="495.9" cy="198.0" r="3" fill="#8a5a5a"/><circle cx="498.9" cy="198.0" r="3" fill="#8a5a5a"/><circle cx="501.8" cy="198.0" r="3" fill="#8a5a5a"/><circle cx="504.8" cy="198.0" r="3" fill="#8a5a5a"/><circle cx="507.7" cy="198.0" r="3" fill="#8a5a5a"/><circle cx="510.7" cy="198.0" r="3" fill="#8a5a5a"/><circle cx="513.6" cy="198.0" r="3" fill="#8a5a5a"/><circle cx="516.6" cy="198.0" r="3" fill="#8a5a5a"/><circle cx="519.5" cy="198.0" r="3" fill="#8a5a5a"/><circle cx="522.5" cy="198.0" r="3" fill="#8a5a5a"/><circle cx="525.4" cy="198.0" r="3" fill="#8a5a5a"/><circle cx="528.4" cy="198.0" r="3" fill="#8a5a5a"/><circle cx="531.3" cy="198.0" r="3" fill="#8a5a5a"/><circle cx="534.3" cy="198.0" r="3" fill="#8a5a5a"/><circle cx="537.2" cy="198.0" r="3" fill="#8a5a5a"/><circle cx="540.2" cy="198.0" r="3" fill="#8a5a5a"/><circle cx="543.1" cy="198.0" r="3" fill="#8a5a5a"/><circle cx="546.1" cy="198.0" r="3" fill="#8a5a5a"/><circle cx="549.0" cy="198.0" r="3" fill="#8a5a5a"/><circle cx="552.0" cy="198.0" r="3" fill="#8a5a5a"/><circle cx="554.9" cy="198.0" r="3" fill="#8a5a5a"/><circle cx="557.9" cy="198.0" r="3" fill="#8a5a5a"/><circle cx="560.8" cy="198.0" r="3" fill="#8a5a5a"/><circle cx="563.8" cy="198.0" r="3" fill="#8a5a5a"/><circle cx="566.7" cy="198.0" r="3" fill="#8a5a5a"/><circle cx="569.7" cy="198.0" r="3" fill="#8a5a5a"/><circle cx="572.6" cy="198.0" r="3" fill="#8a5a5a"/><circle cx="575.5" cy="198.0" r="3" fill="#8a5a5a"/><circle cx="578.5" cy="198.0" r="3" fill="#8a5a5a"/><circle cx="581.4" cy="198.0" r="3" fill="#8a5a5a"/><circle cx="584.4" cy="198.0" r="3" fill="#8a5a5a"/><circle cx="587.3" cy="198.0" r="3" fill="#8a5a5a"/><circle cx="590.3" cy="198.0" r="3" fill="#8a5a5a"/><circle cx="593.2" cy="198.0" r="3" fill="#8a5a5a"/><circle cx="596.2" cy="198.0" r="3" fill="#8a5a5a"/><circle cx="599.1" cy="198.0" r="3" fill="#8a5a5a"/><circle cx="602.1" cy="198.0" r="3" fill="#8a5a5a"/><circle cx="605.0" cy="198.0" r="3" fill="#8a5a5a"/><circle cx="608.0" cy="198.0" r="3" fill="#8a5a5a"/><circle cx="610.9" cy="198.0" r="3" fill="#8a5a5a"/><circle cx="613.9" cy="198.0" r="3" fill="#8a5a5a"/><circle cx="616.8" cy="198.0" r="3" fill="#8a5a5a"/><circle cx="619.8" cy="198.0" r="3" fill="#8a5a5a"/><circle cx="622.7" cy="198.0" r="3" fill="#8a5a5a"/><circle cx="625.7" cy="198.0" r="3" fill="#8a5a5a"/><circle cx="628.6" cy="198.0" r="3" fill="#8a5a5a"/><circle cx="631.6" cy="198.0" r="3" fill="#8a5a5a"/><circle cx="634.5" cy="198.0" r="3" fill="#8a5a5a"/><circle cx="637.5" cy="198.0" r="3" fill="#8a5a5a"/><circle cx="640.4" cy="198.0" r="3" fill="#8a5a5a"/><circle cx="643.4" cy="198.0" r="3" fill="#8a5a5a"/><circle cx="646.3" cy="198.0" r="3" fill="#8a5a5a"/><circle cx="649.3" cy="198.0" r="3" fill="#8a5a5a"/><circle cx="652.2" cy="198.0" r="3" fill="#8a5a5a"/><circle cx="655.2" cy="198.0" r="3" fill="#8a5a5a"/><circle cx="658.1" cy="198.0" r="3" fill="#8a5a5a"/><circle cx="661.1" cy="198.0" r="3" fill="#8a5a5a"/><circle cx="664.0" cy="198.0" r="3" fill="#8a5a5a"/>
<polyline fill="none" stroke="#3fb950" stroke-width="2.5" stroke-linejoin="round" points="36.0,198.0 38.9,198.0 41.9,198.0 44.8,198.0 47.8,198.0 50.7,198.0 53.7,198.0 56.6,198.0 59.6,198.0 62.5,198.0 65.5,198.0 68.4,198.0 71.4,198.0 74.3,198.0 77.3,198.0 80.2,198.0 83.2,198.0 86.1,198.0 89.1,198.0 92.0,198.0 95.0,198.0 97.9,198.0 100.9,198.0 103.8,198.0 106.8,198.0 109.7,198.0 112.7,198.0 115.6,198.0 118.6,198.0 121.5,198.0 124.5,198.0 127.4,198.0 130.3,198.0 133.3,198.0 136.2,198.0 139.2,198.0 142.1,198.0 145.1,198.0 148.0,198.0 151.0,198.0 153.9,198.0 156.9,198.0 159.8,198.0 162.8,191.7 165.7,191.7 168.7,191.7 171.6,191.7 174.6,191.7 177.5,191.7 180.5,191.7 183.4,192.9 186.4,192.9 189.3,190.7 192.3,190.7 195.2,190.7 198.2,190.7 201.1,190.7 204.1,190.5 207.0,190.5 210.0,190.5 212.9,190.3 215.8,190.3 218.8,190.3 221.7,190.3 224.7,190.3 227.6,190.3 230.6,190.3 233.5,190.3 236.5,190.3 239.4,190.3 242.4,190.3 245.3,190.3 248.3,190.3 251.2,190.3 254.2,190.3 257.1,190.3 260.1,190.3 263.0,190.3 266.0,190.3 268.9,190.3 271.9,190.3 274.8,189.3 277.8,189.3 280.7,189.3 283.7,190.7 286.6,190.7 289.6,190.7 292.5,190.7 295.5,190.7 298.4,190.7 301.4,190.7 304.3,190.7 307.2,190.7 310.2,190.9 313.1,190.9 316.1,190.9 319.0,194.2 322.0,196.8 324.9,198.0 327.9,198.0 330.8,198.0 333.8,198.0 336.7,198.0 339.7,198.0 342.6,198.0 345.6,198.0 348.5,198.0 351.5,198.0 354.4,198.0 357.4,198.0 360.3,198.0 363.3,198.0 366.2,198.0 369.2,198.0 372.1,198.0 375.1,198.0 378.0,198.0 381.0,198.0 383.9,198.0 386.9,198.0 389.8,198.0 392.8,198.0 395.7,198.0 398.6,198.0 401.6,198.0 404.5,198.0 407.5,198.0 410.4,198.0 413.4,198.0 416.3,198.0 419.3,198.0 422.2,198.0 425.2,198.0 428.1,198.0 431.1,198.0 434.0,198.0 437.0,198.0 439.9,198.0 442.9,198.0 445.8,198.0 448.8,198.0 451.7,198.0 454.7,198.0 457.6,198.0 460.6,198.0 463.5,198.0 466.5,198.0 469.4,198.0 472.4,198.0 475.3,198.0 478.3,198.0 481.2,198.0 484.2,198.0 487.1,198.0 490.0,198.0 493.0,198.0 495.9,198.0 498.9,198.0 501.8,198.0 504.8,198.0 507.7,198.0 510.7,198.0 513.6,198.0 516.6,198.0 519.5,198.0 522.5,198.0 525.4,198.0 528.4,198.0 531.3,198.0 534.3,198.0 537.2,198.0 540.2,198.0 543.1,198.0 546.1,198.0 549.0,198.0 552.0,198.0 554.9,198.0 557.9,198.0 560.8,198.0 563.8,198.0 566.7,198.0 569.7,198.0 572.6,198.0 575.5,198.0 578.5,198.0 581.4,198.0 584.4,198.0 587.3,198.0 590.3,198.0 593.2,198.0 596.2,198.0 599.1,198.0 602.1,198.0 605.0,198.0 608.0,198.0 610.9,198.0 613.9,198.0 616.8,198.0 619.8,198.0 622.7,198.0 625.7,198.0 628.6,198.0 631.6,198.0 634.5,198.0 637.5,198.0 640.4,198.0 643.4,198.0 646.3,198.0 649.3,198.0 652.2,198.0 655.2,198.0 658.1,198.0 661.1,198.0 664.0,198.0"/><circle cx="36.0" cy="198.0" r="3" fill="#3fb950"/><circle cx="38.9" cy="198.0" r="3" fill="#3fb950"/><circle cx="41.9" cy="198.0" r="3" fill="#3fb950"/><circle cx="44.8" cy="198.0" r="3" fill="#3fb950"/><circle cx="47.8" cy="198.0" r="3" fill="#3fb950"/><circle cx="50.7" cy="198.0" r="3" fill="#3fb950"/><circle cx="53.7" cy="198.0" r="3" fill="#3fb950"/><circle cx="56.6" cy="198.0" r="3" fill="#3fb950"/><circle cx="59.6" cy="198.0" r="3" fill="#3fb950"/><circle cx="62.5" cy="198.0" r="3" fill="#3fb950"/><circle cx="65.5" cy="198.0" r="3" fill="#3fb950"/><circle cx="68.4" cy="198.0" r="3" fill="#3fb950"/><circle cx="71.4" cy="198.0" r="3" fill="#3fb950"/><circle cx="74.3" cy="198.0" r="3" fill="#3fb950"/><circle cx="77.3" cy="198.0" r="3" fill="#3fb950"/><circle cx="80.2" cy="198.0" r="3" fill="#3fb950"/><circle cx="83.2" cy="198.0" r="3" fill="#3fb950"/><circle cx="86.1" cy="198.0" r="3" fill="#3fb950"/><circle cx="89.1" cy="198.0" r="3" fill="#3fb950"/><circle cx="92.0" cy="198.0" r="3" fill="#3fb950"/><circle cx="95.0" cy="198.0" r="3" fill="#3fb950"/><circle cx="97.9" cy="198.0" r="3" fill="#3fb950"/><circle cx="100.9" cy="198.0" r="3" fill="#3fb950"/><circle cx="103.8" cy="198.0" r="3" fill="#3fb950"/><circle cx="106.8" cy="198.0" r="3" fill="#3fb950"/><circle cx="109.7" cy="198.0" r="3" fill="#3fb950"/><circle cx="112.7" cy="198.0" r="3" fill="#3fb950"/><circle cx="115.6" cy="198.0" r="3" fill="#3fb950"/><circle cx="118.6" cy="198.0" r="3" fill="#3fb950"/><circle cx="121.5" cy="198.0" r="3" fill="#3fb950"/><circle cx="124.5" cy="198.0" r="3" fill="#3fb950"/><circle cx="127.4" cy="198.0" r="3" fill="#3fb950"/><circle cx="130.3" cy="198.0" r="3" fill="#3fb950"/><circle cx="133.3" cy="198.0" r="3" fill="#3fb950"/><circle cx="136.2" cy="198.0" r="3" fill="#3fb950"/><circle cx="139.2" cy="198.0" r="3" fill="#3fb950"/><circle cx="142.1" cy="198.0" r="3" fill="#3fb950"/><circle cx="145.1" cy="198.0" r="3" fill="#3fb950"/><circle cx="148.0" cy="198.0" r="3" fill="#3fb950"/><circle cx="151.0" cy="198.0" r="3" fill="#3fb950"/><circle cx="153.9" cy="198.0" r="3" fill="#3fb950"/><circle cx="156.9" cy="198.0" r="3" fill="#3fb950"/><circle cx="159.8" cy="198.0" r="3" fill="#3fb950"/><circle cx="162.8" cy="191.7" r="3" fill="#3fb950"/><circle cx="165.7" cy="191.7" r="3" fill="#3fb950"/><circle cx="168.7" cy="191.7" r="3" fill="#3fb950"/><circle cx="171.6" cy="191.7" r="3" fill="#3fb950"/><circle cx="174.6" cy="191.7" r="3" fill="#3fb950"/><circle cx="177.5" cy="191.7" r="3" fill="#3fb950"/><circle cx="180.5" cy="191.7" r="3" fill="#3fb950"/><circle cx="183.4" cy="192.9" r="3" fill="#3fb950"/><circle cx="186.4" cy="192.9" r="3" fill="#3fb950"/><circle cx="189.3" cy="190.7" r="3" fill="#3fb950"/><circle cx="192.3" cy="190.7" r="3" fill="#3fb950"/><circle cx="195.2" cy="190.7" r="3" fill="#3fb950"/><circle cx="198.2" cy="190.7" r="3" fill="#3fb950"/><circle cx="201.1" cy="190.7" r="3" fill="#3fb950"/><circle cx="204.1" cy="190.5" r="3" fill="#3fb950"/><circle cx="207.0" cy="190.5" r="3" fill="#3fb950"/><circle cx="210.0" cy="190.5" r="3" fill="#3fb950"/><circle cx="212.9" cy="190.3" r="3" fill="#3fb950"/><circle cx="215.8" cy="190.3" r="3" fill="#3fb950"/><circle cx="218.8" cy="190.3" r="3" fill="#3fb950"/><circle cx="221.7" cy="190.3" r="3" fill="#3fb950"/><circle cx="224.7" cy="190.3" r="3" fill="#3fb950"/><circle cx="227.6" cy="190.3" r="3" fill="#3fb950"/><circle cx="230.6" cy="190.3" r="3" fill="#3fb950"/><circle cx="233.5" cy="190.3" r="3" fill="#3fb950"/><circle cx="236.5" cy="190.3" r="3" fill="#3fb950"/><circle cx="239.4" cy="190.3" r="3" fill="#3fb950"/><circle cx="242.4" cy="190.3" r="3" fill="#3fb950"/><circle cx="245.3" cy="190.3" r="3" fill="#3fb950"/><circle cx="248.3" cy="190.3" r="3" fill="#3fb950"/><circle cx="251.2" cy="190.3" r="3" fill="#3fb950"/><circle cx="254.2" cy="190.3" r="3" fill="#3fb950"/><circle cx="257.1" cy="190.3" r="3" fill="#3fb950"/><circle cx="260.1" cy="190.3" r="3" fill="#3fb950"/><circle cx="263.0" cy="190.3" r="3" fill="#3fb950"/><circle cx="266.0" cy="190.3" r="3" fill="#3fb950"/><circle cx="268.9" cy="190.3" r="3" fill="#3fb950"/><circle cx="271.9" cy="190.3" r="3" fill="#3fb950"/><circle cx="274.8" cy="189.3" r="3" fill="#3fb950"/><circle cx="277.8" cy="189.3" r="3" fill="#3fb950"/><circle cx="280.7" cy="189.3" r="3" fill="#3fb950"/><circle cx="283.7" cy="190.7" r="3" fill="#3fb950"/><circle cx="286.6" cy="190.7" r="3" fill="#3fb950"/><circle cx="289.6" cy="190.7" r="3" fill="#3fb950"/><circle cx="292.5" cy="190.7" r="3" fill="#3fb950"/><circle cx="295.5" cy="190.7" r="3" fill="#3fb950"/><circle cx="298.4" cy="190.7" r="3" fill="#3fb950"/><circle cx="301.4" cy="190.7" r="3" fill="#3fb950"/><circle cx="304.3" cy="190.7" r="3" fill="#3fb950"/><circle cx="307.2" cy="190.7" r="3" fill="#3fb950"/><circle cx="310.2" cy="190.9" r="3" fill="#3fb950"/><circle cx="313.1" cy="190.9" r="3" fill="#3fb950"/><circle cx="316.1" cy="190.9" r="3" fill="#3fb950"/><circle cx="319.0" cy="194.2" r="3" fill="#3fb950"/><circle cx="322.0" cy="196.8" r="3" fill="#3fb950"/><circle cx="324.9" cy="198.0" r="3" fill="#3fb950"/><circle cx="327.9" cy="198.0" r="3" fill="#3fb950"/><circle cx="330.8" cy="198.0" r="3" fill="#3fb950"/><circle cx="333.8" cy="198.0" r="3" fill="#3fb950"/><circle cx="336.7" cy="198.0" r="3" fill="#3fb950"/><circle cx="339.7" cy="198.0" r="3" fill="#3fb950"/><circle cx="342.6" cy="198.0" r="3" fill="#3fb950"/><circle cx="345.6" cy="198.0" r="3" fill="#3fb950"/><circle cx="348.5" cy="198.0" r="3" fill="#3fb950"/><circle cx="351.5" cy="198.0" r="3" fill="#3fb950"/><circle cx="354.4" cy="198.0" r="3" fill="#3fb950"/><circle cx="357.4" cy="198.0" r="3" fill="#3fb950"/><circle cx="360.3" cy="198.0" r="3" fill="#3fb950"/><circle cx="363.3" cy="198.0" r="3" fill="#3fb950"/><circle cx="366.2" cy="198.0" r="3" fill="#3fb950"/><circle cx="369.2" cy="198.0" r="3" fill="#3fb950"/><circle cx="372.1" cy="198.0" r="3" fill="#3fb950"/><circle cx="375.1" cy="198.0" r="3" fill="#3fb950"/><circle cx="378.0" cy="198.0" r="3" fill="#3fb950"/><circle cx="381.0" cy="198.0" r="3" fill="#3fb950"/><circle cx="383.9" cy="198.0" r="3" fill="#3fb950"/><circle cx="386.9" cy="198.0" r="3" fill="#3fb950"/><circle cx="389.8" cy="198.0" r="3" fill="#3fb950"/><circle cx="392.8" cy="198.0" r="3" fill="#3fb950"/><circle cx="395.7" cy="198.0" r="3" fill="#3fb950"/><circle cx="398.6" cy="198.0" r="3" fill="#3fb950"/><circle cx="401.6" cy="198.0" r="3" fill="#3fb950"/><circle cx="404.5" cy="198.0" r="3" fill="#3fb950"/><circle cx="407.5" cy="198.0" r="3" fill="#3fb950"/><circle cx="410.4" cy="198.0" r="3" fill="#3fb950"/><circle cx="413.4" cy="198.0" r="3" fill="#3fb950"/><circle cx="416.3" cy="198.0" r="3" fill="#3fb950"/><circle cx="419.3" cy="198.0" r="3" fill="#3fb950"/><circle cx="422.2" cy="198.0" r="3" fill="#3fb950"/><circle cx="425.2" cy="198.0" r="3" fill="#3fb950"/><circle cx="428.1" cy="198.0" r="3" fill="#3fb950"/><circle cx="431.1" cy="198.0" r="3" fill="#3fb950"/><circle cx="434.0" cy="198.0" r="3" fill="#3fb950"/><circle cx="437.0" cy="198.0" r="3" fill="#3fb950"/><circle cx="439.9" cy="198.0" r="3" fill="#3fb950"/><circle cx="442.9" cy="198.0" r="3" fill="#3fb950"/><circle cx="445.8" cy="198.0" r="3" fill="#3fb950"/><circle cx="448.8" cy="198.0" r="3" fill="#3fb950"/><circle cx="451.7" cy="198.0" r="3" fill="#3fb950"/><circle cx="454.7" cy="198.0" r="3" fill="#3fb950"/><circle cx="457.6" cy="198.0" r="3" fill="#3fb950"/><circle cx="460.6" cy="198.0" r="3" fill="#3fb950"/><circle cx="463.5" cy="198.0" r="3" fill="#3fb950"/><circle cx="466.5" cy="198.0" r="3" fill="#3fb950"/><circle cx="469.4" cy="198.0" r="3" fill="#3fb950"/><circle cx="472.4" cy="198.0" r="3" fill="#3fb950"/><circle cx="475.3" cy="198.0" r="3" fill="#3fb950"/><circle cx="478.3" cy="198.0" r="3" fill="#3fb950"/><circle cx="481.2" cy="198.0" r="3" fill="#3fb950"/><circle cx="484.2" cy="198.0" r="3" fill="#3fb950"/><circle cx="487.1" cy="198.0" r="3" fill="#3fb950"/><circle cx="490.0" cy="198.0" r="3" fill="#3fb950"/><circle cx="493.0" cy="198.0" r="3" fill="#3fb950"/><circle cx="495.9" cy="198.0" r="3" fill="#3fb950"/><circle cx="498.9" cy="198.0" r="3" fill="#3fb950"/><circle cx="501.8" cy="198.0" r="3" fill="#3fb950"/><circle cx="504.8" cy="198.0" r="3" fill="#3fb950"/><circle cx="507.7" cy="198.0" r="3" fill="#3fb950"/><circle cx="510.7" cy="198.0" r="3" fill="#3fb950"/><circle cx="513.6" cy="198.0" r="3" fill="#3fb950"/><circle cx="516.6" cy="198.0" r="3" fill="#3fb950"/><circle cx="519.5" cy="198.0" r="3" fill="#3fb950"/><circle cx="522.5" cy="198.0" r="3" fill="#3fb950"/><circle cx="525.4" cy="198.0" r="3" fill="#3fb950"/><circle cx="528.4" cy="198.0" r="3" fill="#3fb950"/><circle cx="531.3" cy="198.0" r="3" fill="#3fb950"/><circle cx="534.3" cy="198.0" r="3" fill="#3fb950"/><circle cx="537.2" cy="198.0" r="3" fill="#3fb950"/><circle cx="540.2" cy="198.0" r="3" fill="#3fb950"/><circle cx="543.1" cy="198.0" r="3" fill="#3fb950"/><circle cx="546.1" cy="198.0" r="3" fill="#3fb950"/><circle cx="549.0" cy="198.0" r="3" fill="#3fb950"/><circle cx="552.0" cy="198.0" r="3" fill="#3fb950"/><circle cx="554.9" cy="198.0" r="3" fill="#3fb950"/><circle cx="557.9" cy="198.0" r="3" fill="#3fb950"/><circle cx="560.8" cy="198.0" r="3" fill="#3fb950"/><circle cx="563.8" cy="198.0" r="3" fill="#3fb950"/><circle cx="566.7" cy="198.0" r="3" fill="#3fb950"/><circle cx="569.7" cy="198.0" r="3" fill="#3fb950"/><circle cx="572.6" cy="198.0" r="3" fill="#3fb950"/><circle cx="575.5" cy="198.0" r="3" fill="#3fb950"/><circle cx="578.5" cy="198.0" r="3" fill="#3fb950"/><circle cx="581.4" cy="198.0" r="3" fill="#3fb950"/><circle cx="584.4" cy="198.0" r="3" fill="#3fb950"/><circle cx="587.3" cy="198.0" r="3" fill="#3fb950"/><circle cx="590.3" cy="198.0" r="3" fill="#3fb950"/><circle cx="593.2" cy="198.0" r="3" fill="#3fb950"/><circle cx="596.2" cy="198.0" r="3" fill="#3fb950"/><circle cx="599.1" cy="198.0" r="3" fill="#3fb950"/><circle cx="602.1" cy="198.0" r="3" fill="#3fb950"/><circle cx="605.0" cy="198.0" r="3" fill="#3fb950"/><circle cx="608.0" cy="198.0" r="3" fill="#3fb950"/><circle cx="610.9" cy="198.0" r="3" fill="#3fb950"/><circle cx="613.9" cy="198.0" r="3" fill="#3fb950"/><circle cx="616.8" cy="198.0" r="3" fill="#3fb950"/><circle cx="619.8" cy="198.0" r="3" fill="#3fb950"/><circle cx="622.7" cy="198.0" r="3" fill="#3fb950"/><circle cx="625.7" cy="198.0" r="3" fill="#3fb950"/><circle cx="628.6" cy="198.0" r="3" fill="#3fb950"/><circle cx="631.6" cy="198.0" r="3" fill="#3fb950"/><circle cx="634.5" cy="198.0" r="3" fill="#3fb950"/><circle cx="637.5" cy="198.0" r="3" fill="#3fb950"/><circle cx="640.4" cy="198.0" r="3" fill="#3fb950"/><circle cx="643.4" cy="198.0" r="3" fill="#3fb950"/><circle cx="646.3" cy="198.0" r="3" fill="#3fb950"/><circle cx="649.3" cy="198.0" r="3" fill="#3fb950"/><circle cx="652.2" cy="198.0" r="3" fill="#3fb950"/><circle cx="655.2" cy="198.0" r="3" fill="#3fb950"/><circle cx="658.1" cy="198.0" r="3" fill="#3fb950"/><circle cx="661.1" cy="198.0" r="3" fill="#3fb950"/><circle cx="664.0" cy="198.0" r="3" fill="#3fb950"/>
<polyline fill="none" stroke="#4aa3ff" stroke-width="2.5" stroke-linejoin="round" points="36.0,144.3 38.9,144.3 41.9,144.3 44.8,144.3 47.8,144.3 50.7,144.3 53.7,144.3 56.6,144.3 59.6,144.3 62.5,144.3 65.5,144.3 68.4,144.3 71.4,144.3 74.3,144.3 77.3,144.3 80.2,136.2 83.2,132.4 86.1,129.6 89.1,129.6 92.0,121.0 95.0,121.0 97.9,121.0 100.9,114.4 103.8,114.4 106.8,114.4 109.7,111.3 112.7,110.9 115.6,110.9 118.6,110.5 121.5,110.5 124.5,109.9 127.4,108.7 130.3,107.3 133.3,106.9 136.2,106.9 139.2,106.9 142.1,106.9 145.1,106.9 148.0,106.9 151.0,106.9 153.9,106.9 156.9,106.9 159.8,106.9 162.8,113.2 165.7,113.2 168.7,113.2 171.6,113.2 174.6,113.2 177.5,110.7 180.5,105.3 183.4,83.4 186.4,83.4 189.3,85.6 192.3,85.6 195.2,85.6 198.2,85.6 201.1,85.6 204.1,85.8 207.0,85.8 210.0,85.8 212.9,86.0 215.8,86.0 218.8,86.0 221.7,86.0 224.7,86.0 227.6,86.0 230.6,86.0 233.5,86.0 236.5,86.0 239.4,86.0 242.4,86.0 245.3,86.0 248.3,86.0 251.2,86.0 254.2,86.0 257.1,86.0 260.1,86.0 263.0,86.0 266.0,86.0 268.9,86.0 271.9,86.0 274.8,87.0 277.8,87.0 280.7,87.0 283.7,73.7 286.6,73.7 289.6,71.0 292.5,71.0 295.5,70.8 298.4,70.6 301.4,70.6 304.3,70.4 307.2,68.6 310.2,60.5 313.1,59.3 316.1,52.0 319.0,47.3 322.0,40.1 324.9,36.0 327.9,36.0 330.8,36.0 333.8,36.0 336.7,36.0 339.7,36.0 342.6,36.0 345.6,36.0 348.5,36.0 351.5,36.0 354.4,36.0 357.4,36.0 360.3,36.0 363.3,36.0 366.2,36.0 369.2,36.0 372.1,36.0 375.1,36.0 378.0,36.0 381.0,36.0 383.9,36.0 386.9,36.0 389.8,36.0 392.8,36.0 395.7,36.0 398.6,36.0 401.6,36.0 404.5,36.0 407.5,36.0 410.4,36.0 413.4,36.0 416.3,36.0 419.3,36.0 422.2,36.0 425.2,36.0 428.1,36.0 431.1,36.0 434.0,36.0 437.0,36.0 439.9,36.0 442.9,36.0 445.8,36.0 448.8,36.0 451.7,36.0 454.7,36.0 457.6,36.0 460.6,36.0 463.5,36.0 466.5,36.0 469.4,36.0 472.4,36.0 475.3,36.0 478.3,36.0 481.2,36.0 484.2,36.0 487.1,36.0 490.0,36.0 493.0,36.0 495.9,36.0 498.9,36.0 501.8,36.0 504.8,36.0 507.7,36.0 510.7,36.0 513.6,36.0 516.6,36.0 519.5,36.0 522.5,36.0 525.4,36.0 528.4,36.0 531.3,36.0 534.3,36.0 537.2,36.0 540.2,36.0 543.1,36.0 546.1,36.0 549.0,36.0 552.0,36.0 554.9,36.0 557.9,36.0 560.8,36.0 563.8,36.0 566.7,36.0 569.7,36.0 572.6,36.0 575.5,36.0 578.5,36.0 581.4,36.0 584.4,36.0 587.3,36.0 590.3,36.0 593.2,36.0 596.2,36.0 599.1,36.0 602.1,36.0 605.0,36.0 608.0,36.0 610.9,36.0 613.9,36.0 616.8,36.0 619.8,36.0 622.7,36.0 625.7,36.0 628.6,36.0 631.6,36.0 634.5,36.0 637.5,36.0 640.4,36.0 643.4,36.0 646.3,36.0 649.3,36.0 652.2,36.0 655.2,36.0 658.1,36.0 661.1,36.0 664.0,36.0"/><circle cx="36.0" cy="144.3" r="3" fill="#4aa3ff"/><circle cx="38.9" cy="144.3" r="3" fill="#4aa3ff"/><circle cx="41.9" cy="144.3" r="3" fill="#4aa3ff"/><circle cx="44.8" cy="144.3" r="3" fill="#4aa3ff"/><circle cx="47.8" cy="144.3" r="3" fill="#4aa3ff"/><circle cx="50.7" cy="144.3" r="3" fill="#4aa3ff"/><circle cx="53.7" cy="144.3" r="3" fill="#4aa3ff"/><circle cx="56.6" cy="144.3" r="3" fill="#4aa3ff"/><circle cx="59.6" cy="144.3" r="3" fill="#4aa3ff"/><circle cx="62.5" cy="144.3" r="3" fill="#4aa3ff"/><circle cx="65.5" cy="144.3" r="3" fill="#4aa3ff"/><circle cx="68.4" cy="144.3" r="3" fill="#4aa3ff"/><circle cx="71.4" cy="144.3" r="3" fill="#4aa3ff"/><circle cx="74.3" cy="144.3" r="3" fill="#4aa3ff"/><circle cx="77.3" cy="144.3" r="3" fill="#4aa3ff"/><circle cx="80.2" cy="136.2" r="3" fill="#4aa3ff"/><circle cx="83.2" cy="132.4" r="3" fill="#4aa3ff"/><circle cx="86.1" cy="129.6" r="3" fill="#4aa3ff"/><circle cx="89.1" cy="129.6" r="3" fill="#4aa3ff"/><circle cx="92.0" cy="121.0" r="3" fill="#4aa3ff"/><circle cx="95.0" cy="121.0" r="3" fill="#4aa3ff"/><circle cx="97.9" cy="121.0" r="3" fill="#4aa3ff"/><circle cx="100.9" cy="114.4" r="3" fill="#4aa3ff"/><circle cx="103.8" cy="114.4" r="3" fill="#4aa3ff"/><circle cx="106.8" cy="114.4" r="3" fill="#4aa3ff"/><circle cx="109.7" cy="111.3" r="3" fill="#4aa3ff"/><circle cx="112.7" cy="110.9" r="3" fill="#4aa3ff"/><circle cx="115.6" cy="110.9" r="3" fill="#4aa3ff"/><circle cx="118.6" cy="110.5" r="3" fill="#4aa3ff"/><circle cx="121.5" cy="110.5" r="3" fill="#4aa3ff"/><circle cx="124.5" cy="109.9" r="3" fill="#4aa3ff"/><circle cx="127.4" cy="108.7" r="3" fill="#4aa3ff"/><circle cx="130.3" cy="107.3" r="3" fill="#4aa3ff"/><circle cx="133.3" cy="106.9" r="3" fill="#4aa3ff"/><circle cx="136.2" cy="106.9" r="3" fill="#4aa3ff"/><circle cx="139.2" cy="106.9" r="3" fill="#4aa3ff"/><circle cx="142.1" cy="106.9" r="3" fill="#4aa3ff"/><circle cx="145.1" cy="106.9" r="3" fill="#4aa3ff"/><circle cx="148.0" cy="106.9" r="3" fill="#4aa3ff"/><circle cx="151.0" cy="106.9" r="3" fill="#4aa3ff"/><circle cx="153.9" cy="106.9" r="3" fill="#4aa3ff"/><circle cx="156.9" cy="106.9" r="3" fill="#4aa3ff"/><circle cx="159.8" cy="106.9" r="3" fill="#4aa3ff"/><circle cx="162.8" cy="113.2" r="3" fill="#4aa3ff"/><circle cx="165.7" cy="113.2" r="3" fill="#4aa3ff"/><circle cx="168.7" cy="113.2" r="3" fill="#4aa3ff"/><circle cx="171.6" cy="113.2" r="3" fill="#4aa3ff"/><circle cx="174.6" cy="113.2" r="3" fill="#4aa3ff"/><circle cx="177.5" cy="110.7" r="3" fill="#4aa3ff"/><circle cx="180.5" cy="105.3" r="3" fill="#4aa3ff"/><circle cx="183.4" cy="83.4" r="3" fill="#4aa3ff"/><circle cx="186.4" cy="83.4" r="3" fill="#4aa3ff"/><circle cx="189.3" cy="85.6" r="3" fill="#4aa3ff"/><circle cx="192.3" cy="85.6" r="3" fill="#4aa3ff"/><circle cx="195.2" cy="85.6" r="3" fill="#4aa3ff"/><circle cx="198.2" cy="85.6" r="3" fill="#4aa3ff"/><circle cx="201.1" cy="85.6" r="3" fill="#4aa3ff"/><circle cx="204.1" cy="85.8" r="3" fill="#4aa3ff"/><circle cx="207.0" cy="85.8" r="3" fill="#4aa3ff"/><circle cx="210.0" cy="85.8" r="3" fill="#4aa3ff"/><circle cx="212.9" cy="86.0" r="3" fill="#4aa3ff"/><circle cx="215.8" cy="86.0" r="3" fill="#4aa3ff"/><circle cx="218.8" cy="86.0" r="3" fill="#4aa3ff"/><circle cx="221.7" cy="86.0" r="3" fill="#4aa3ff"/><circle cx="224.7" cy="86.0" r="3" fill="#4aa3ff"/><circle cx="227.6" cy="86.0" r="3" fill="#4aa3ff"/><circle cx="230.6" cy="86.0" r="3" fill="#4aa3ff"/><circle cx="233.5" cy="86.0" r="3" fill="#4aa3ff"/><circle cx="236.5" cy="86.0" r="3" fill="#4aa3ff"/><circle cx="239.4" cy="86.0" r="3" fill="#4aa3ff"/><circle cx="242.4" cy="86.0" r="3" fill="#4aa3ff"/><circle cx="245.3" cy="86.0" r="3" fill="#4aa3ff"/><circle cx="248.3" cy="86.0" r="3" fill="#4aa3ff"/><circle cx="251.2" cy="86.0" r="3" fill="#4aa3ff"/><circle cx="254.2" cy="86.0" r="3" fill="#4aa3ff"/><circle cx="257.1" cy="86.0" r="3" fill="#4aa3ff"/><circle cx="260.1" cy="86.0" r="3" fill="#4aa3ff"/><circle cx="263.0" cy="86.0" r="3" fill="#4aa3ff"/><circle cx="266.0" cy="86.0" r="3" fill="#4aa3ff"/><circle cx="268.9" cy="86.0" r="3" fill="#4aa3ff"/><circle cx="271.9" cy="86.0" r="3" fill="#4aa3ff"/><circle cx="274.8" cy="87.0" r="3" fill="#4aa3ff"/><circle cx="277.8" cy="87.0" r="3" fill="#4aa3ff"/><circle cx="280.7" cy="87.0" r="3" fill="#4aa3ff"/><circle cx="283.7" cy="73.7" r="3" fill="#4aa3ff"/><circle cx="286.6" cy="73.7" r="3" fill="#4aa3ff"/><circle cx="289.6" cy="71.0" r="3" fill="#4aa3ff"/><circle cx="292.5" cy="71.0" r="3" fill="#4aa3ff"/><circle cx="295.5" cy="70.8" r="3" fill="#4aa3ff"/><circle cx="298.4" cy="70.6" r="3" fill="#4aa3ff"/><circle cx="301.4" cy="70.6" r="3" fill="#4aa3ff"/><circle cx="304.3" cy="70.4" r="3" fill="#4aa3ff"/><circle cx="307.2" cy="68.6" r="3" fill="#4aa3ff"/><circle cx="310.2" cy="60.5" r="3" fill="#4aa3ff"/><circle cx="313.1" cy="59.3" r="3" fill="#4aa3ff"/><circle cx="316.1" cy="52.0" r="3" fill="#4aa3ff"/><circle cx="319.0" cy="47.3" r="3" fill="#4aa3ff"/><circle cx="322.0" cy="40.1" r="3" fill="#4aa3ff"/><circle cx="324.9" cy="36.0" r="3" fill="#4aa3ff"/><circle cx="327.9" cy="36.0" r="3" fill="#4aa3ff"/><circle cx="330.8" cy="36.0" r="3" fill="#4aa3ff"/><circle cx="333.8" cy="36.0" r="3" fill="#4aa3ff"/><circle cx="336.7" cy="36.0" r="3" fill="#4aa3ff"/><circle cx="339.7" cy="36.0" r="3" fill="#4aa3ff"/><circle cx="342.6" cy="36.0" r="3" fill="#4aa3ff"/><circle cx="345.6" cy="36.0" r="3" fill="#4aa3ff"/><circle cx="348.5" cy="36.0" r="3" fill="#4aa3ff"/><circle cx="351.5" cy="36.0" r="3" fill="#4aa3ff"/><circle cx="354.4" cy="36.0" r="3" fill="#4aa3ff"/><circle cx="357.4" cy="36.0" r="3" fill="#4aa3ff"/><circle cx="360.3" cy="36.0" r="3" fill="#4aa3ff"/><circle cx="363.3" cy="36.0" r="3" fill="#4aa3ff"/><circle cx="366.2" cy="36.0" r="3" fill="#4aa3ff"/><circle cx="369.2" cy="36.0" r="3" fill="#4aa3ff"/><circle cx="372.1" cy="36.0" r="3" fill="#4aa3ff"/><circle cx="375.1" cy="36.0" r="3" fill="#4aa3ff"/><circle cx="378.0" cy="36.0" r="3" fill="#4aa3ff"/><circle cx="381.0" cy="36.0" r="3" fill="#4aa3ff"/><circle cx="383.9" cy="36.0" r="3" fill="#4aa3ff"/><circle cx="386.9" cy="36.0" r="3" fill="#4aa3ff"/><circle cx="389.8" cy="36.0" r="3" fill="#4aa3ff"/><circle cx="392.8" cy="36.0" r="3" fill="#4aa3ff"/><circle cx="395.7" cy="36.0" r="3" fill="#4aa3ff"/><circle cx="398.6" cy="36.0" r="3" fill="#4aa3ff"/><circle cx="401.6" cy="36.0" r="3" fill="#4aa3ff"/><circle cx="404.5" cy="36.0" r="3" fill="#4aa3ff"/><circle cx="407.5" cy="36.0" r="3" fill="#4aa3ff"/><circle cx="410.4" cy="36.0" r="3" fill="#4aa3ff"/><circle cx="413.4" cy="36.0" r="3" fill="#4aa3ff"/><circle cx="416.3" cy="36.0" r="3" fill="#4aa3ff"/><circle cx="419.3" cy="36.0" r="3" fill="#4aa3ff"/><circle cx="422.2" cy="36.0" r="3" fill="#4aa3ff"/><circle cx="425.2" cy="36.0" r="3" fill="#4aa3ff"/><circle cx="428.1" cy="36.0" r="3" fill="#4aa3ff"/><circle cx="431.1" cy="36.0" r="3" fill="#4aa3ff"/><circle cx="434.0" cy="36.0" r="3" fill="#4aa3ff"/><circle cx="437.0" cy="36.0" r="3" fill="#4aa3ff"/><circle cx="439.9" cy="36.0" r="3" fill="#4aa3ff"/><circle cx="442.9" cy="36.0" r="3" fill="#4aa3ff"/><circle cx="445.8" cy="36.0" r="3" fill="#4aa3ff"/><circle cx="448.8" cy="36.0" r="3" fill="#4aa3ff"/><circle cx="451.7" cy="36.0" r="3" fill="#4aa3ff"/><circle cx="454.7" cy="36.0" r="3" fill="#4aa3ff"/><circle cx="457.6" cy="36.0" r="3" fill="#4aa3ff"/><circle cx="460.6" cy="36.0" r="3" fill="#4aa3ff"/><circle cx="463.5" cy="36.0" r="3" fill="#4aa3ff"/><circle cx="466.5" cy="36.0" r="3" fill="#4aa3ff"/><circle cx="469.4" cy="36.0" r="3" fill="#4aa3ff"/><circle cx="472.4" cy="36.0" r="3" fill="#4aa3ff"/><circle cx="475.3" cy="36.0" r="3" fill="#4aa3ff"/><circle cx="478.3" cy="36.0" r="3" fill="#4aa3ff"/><circle cx="481.2" cy="36.0" r="3" fill="#4aa3ff"/><circle cx="484.2" cy="36.0" r="3" fill="#4aa3ff"/><circle cx="487.1" cy="36.0" r="3" fill="#4aa3ff"/><circle cx="490.0" cy="36.0" r="3" fill="#4aa3ff"/><circle cx="493.0" cy="36.0" r="3" fill="#4aa3ff"/><circle cx="495.9" cy="36.0" r="3" fill="#4aa3ff"/><circle cx="498.9" cy="36.0" r="3" fill="#4aa3ff"/><circle cx="501.8" cy="36.0" r="3" fill="#4aa3ff"/><circle cx="504.8" cy="36.0" r="3" fill="#4aa3ff"/><circle cx="507.7" cy="36.0" r="3" fill="#4aa3ff"/><circle cx="510.7" cy="36.0" r="3" fill="#4aa3ff"/><circle cx="513.6" cy="36.0" r="3" fill="#4aa3ff"/><circle cx="516.6" cy="36.0" r="3" fill="#4aa3ff"/><circle cx="519.5" cy="36.0" r="3" fill="#4aa3ff"/><circle cx="522.5" cy="36.0" r="3" fill="#4aa3ff"/><circle cx="525.4" cy="36.0" r="3" fill="#4aa3ff"/><circle cx="528.4" cy="36.0" r="3" fill="#4aa3ff"/><circle cx="531.3" cy="36.0" r="3" fill="#4aa3ff"/><circle cx="534.3" cy="36.0" r="3" fill="#4aa3ff"/><circle cx="537.2" cy="36.0" r="3" fill="#4aa3ff"/><circle cx="540.2" cy="36.0" r="3" fill="#4aa3ff"/><circle cx="543.1" cy="36.0" r="3" fill="#4aa3ff"/><circle cx="546.1" cy="36.0" r="3" fill="#4aa3ff"/><circle cx="549.0" cy="36.0" r="3" fill="#4aa3ff"/><circle cx="552.0" cy="36.0" r="3" fill="#4aa3ff"/><circle cx="554.9" cy="36.0" r="3" fill="#4aa3ff"/><circle cx="557.9" cy="36.0" r="3" fill="#4aa3ff"/><circle cx="560.8" cy="36.0" r="3" fill="#4aa3ff"/><circle cx="563.8" cy="36.0" r="3" fill="#4aa3ff"/><circle cx="566.7" cy="36.0" r="3" fill="#4aa3ff"/><circle cx="569.7" cy="36.0" r="3" fill="#4aa3ff"/><circle cx="572.6" cy="36.0" r="3" fill="#4aa3ff"/><circle cx="575.5" cy="36.0" r="3" fill="#4aa3ff"/><circle cx="578.5" cy="36.0" r="3" fill="#4aa3ff"/><circle cx="581.4" cy="36.0" r="3" fill="#4aa3ff"/><circle cx="584.4" cy="36.0" r="3" fill="#4aa3ff"/><circle cx="587.3" cy="36.0" r="3" fill="#4aa3ff"/><circle cx="590.3" cy="36.0" r="3" fill="#4aa3ff"/><circle cx="593.2" cy="36.0" r="3" fill="#4aa3ff"/><circle cx="596.2" cy="36.0" r="3" fill="#4aa3ff"/><circle cx="599.1" cy="36.0" r="3" fill="#4aa3ff"/><circle cx="602.1" cy="36.0" r="3" fill="#4aa3ff"/><circle cx="605.0" cy="36.0" r="3" fill="#4aa3ff"/><circle cx="608.0" cy="36.0" r="3" fill="#4aa3ff"/><circle cx="610.9" cy="36.0" r="3" fill="#4aa3ff"/><circle cx="613.9" cy="36.0" r="3" fill="#4aa3ff"/><circle cx="616.8" cy="36.0" r="3" fill="#4aa3ff"/><circle cx="619.8" cy="36.0" r="3" fill="#4aa3ff"/><circle cx="622.7" cy="36.0" r="3" fill="#4aa3ff"/><circle cx="625.7" cy="36.0" r="3" fill="#4aa3ff"/><circle cx="628.6" cy="36.0" r="3" fill="#4aa3ff"/><circle cx="631.6" cy="36.0" r="3" fill="#4aa3ff"/><circle cx="634.5" cy="36.0" r="3" fill="#4aa3ff"/><circle cx="637.5" cy="36.0" r="3" fill="#4aa3ff"/><circle cx="640.4" cy="36.0" r="3" fill="#4aa3ff"/><circle cx="643.4" cy="36.0" r="3" fill="#4aa3ff"/><circle cx="646.3" cy="36.0" r="3" fill="#4aa3ff"/><circle cx="649.3" cy="36.0" r="3" fill="#4aa3ff"/><circle cx="652.2" cy="36.0" r="3" fill="#4aa3ff"/><circle cx="655.2" cy="36.0" r="3" fill="#4aa3ff"/><circle cx="658.1" cy="36.0" r="3" fill="#4aa3ff"/><circle cx="661.1" cy="36.0" r="3" fill="#4aa3ff"/><circle cx="664.0" cy="36.0" r="3" fill="#4aa3ff"/>
<text x="36" y="225" fill="#6b7280" font-size="11">2026-06-26</text>
<text x="664" y="225" fill="#6b7280" font-size="11" text-anchor="end">2026-07-18</text>
<text x="36" y="212" font-family="system-ui,sans-serif" font-size="11">
<tspan fill="#4aa3ff">&#9679; open FPs</tspan>  <tspan fill="#3fb950">&#9679; closed (Anthropic acting)</tspan>  <tspan fill="#8a5a5a">&#9679; harness withdrawn</tspan></text>
<text x="664" y="22" text-anchor="end" font-family="system-ui,sans-serif" font-size="12">
<tspan fill="#4aa3ff">open 800</tspan>  <tspan fill="#3fb950">closed 0</tspan>  <tspan fill="#8a5a5a">harness 0</tspan></text>
</svg>