<svg xmlns="http://www.w3.org/2000/svg" width="700" height="234" viewBox="0 0 700 234" role="img">
<rect width="700" height="234" rx="12" fill="#16181d"/>
<text x="36" y="22" fill="#e8eaed" font-family="system-ui,sans-serif" font-size="14" font-weight="700">Is Anthropic acting? cyber/aup false positives over time</text>
<line x1="36" y1="198.0" x2="664" y2="198.0" stroke="#2a2e37" stroke-width="1"/><text x="30" y="202.0" fill="#6b7280" font-size="11" text-anchor="end">0</text><line x1="36" y1="117.0" x2="664" y2="117.0" stroke="#2a2e37" stroke-width="1"/><text x="30" y="121.0" fill="#6b7280" font-size="11" text-anchor="end">225</text><line x1="36" y1="36.0" x2="664" y2="36.0" stroke="#2a2e37" stroke-width="1"/><text x="30" y="40.0" fill="#6b7280" font-size="11" text-anchor="end">450</text>

<polyline fill="none" stroke="#8a5a5a" stroke-width="2.5" stroke-linejoin="round" points="36.0,104.0 52.5,104.0 69.1,104.0 85.6,104.0 102.1,104.0 118.6,104.0 135.2,104.0 151.7,104.0 168.2,104.0 184.7,104.0 201.3,104.0 217.8,104.0 234.3,104.0 250.8,104.0 267.4,104.0 283.9,104.0 300.4,104.0 316.9,104.0 333.5,104.0 350.0,104.0 366.5,104.0 383.1,104.0 399.6,104.0 416.1,104.0 432.6,104.0 449.2,104.0 465.7,104.0 482.2,104.0 498.7,104.0 515.3,104.0 531.8,104.0 548.3,104.0 564.8,104.0 581.4,104.0 597.9,104.0 614.4,104.0 630.9,104.0 647.5,104.0 664.0,104.0"/><circle cx="36.0" cy="104.0" r="3" fill="#8a5a5a"/><circle cx="52.5" cy="104.0" r="3" fill="#8a5a5a"/><circle cx="69.1" cy="104.0" r="3" fill="#8a5a5a"/><circle cx="85.6" cy="104.0" r="3" fill="#8a5a5a"/><circle cx="102.1" cy="104.0" r="3" fill="#8a5a5a"/><circle cx="118.6" cy="104.0" r="3" fill="#8a5a5a"/><circle cx="135.2" cy="104.0" r="3" fill="#8a5a5a"/><circle cx="151.7" cy="104.0" r="3" fill="#8a5a5a"/><circle cx="168.2" cy="104.0" r="3" fill="#8a5a5a"/><circle cx="184.7" cy="104.0" r="3" fill="#8a5a5a"/><circle cx="201.3" cy="104.0" r="3" fill="#8a5a5a"/><circle cx="217.8" cy="104.0" r="3" fill="#8a5a5a"/><circle cx="234.3" cy="104.0" r="3" fill="#8a5a5a"/><circle cx="250.8" cy="104.0" r="3" fill="#8a5a5a"/><circle cx="267.4" cy="104.0" r="3" fill="#8a5a5a"/><circle cx="283.9" cy="104.0" r="3" fill="#8a5a5a"/><circle cx="300.4" cy="104.0" r="3" fill="#8a5a5a"/><circle cx="316.9" cy="104.0" r="3" fill="#8a5a5a"/><circle cx="333.5" cy="104.0" r="3" fill="#8a5a5a"/><circle cx="350.0" cy="104.0" r="3" fill="#8a5a5a"/><circle cx="366.5" cy="104.0" r="3" fill="#8a5a5a"/><circle cx="383.1" cy="104.0" r="3" fill="#8a5a5a"/><circle cx="399.6" cy="104.0" r="3" fill="#8a5a5a"/><circle cx="416.1" cy="104.0" r="3" fill="#8a5a5a"/><circle cx="432.6" cy="104.0" r="3" fill="#8a5a5a"/><circle cx="449.2" cy="104.0" r="3" fill="#8a5a5a"/><circle cx="465.7" cy="104.0" r="3" fill="#8a5a5a"/><circle cx="482.2" cy="104.0" r="3" fill="#8a5a5a"/><circle cx="498.7" cy="104.0" r="3" fill="#8a5a5a"/><circle cx="515.3" cy="104.0" r="3" fill="#8a5a5a"/><circle cx="531.8" cy="104.0" r="3" fill="#8a5a5a"/><circle cx="548.3" cy="104.0" r="3" fill="#8a5a5a"/><circle cx="564.8" cy="104.0" r="3" fill="#8a5a5a"/><circle cx="581.4" cy="104.0" r="3" fill="#8a5a5a"/><circle cx="597.9" cy="104.0" r="3" fill="#8a5a5a"/><circle cx="614.4" cy="104.0" r="3" fill="#8a5a5a"/><circle cx="630.9" cy="104.0" r="3" fill="#8a5a5a"/><circle cx="647.5" cy="104.0" r="3" fill="#8a5a5a"/><circle cx="664.0" cy="104.0" r="3" fill="#8a5a5a"/>
<polyline fill="none" stroke="#3fb950" stroke-width="2.5" stroke-linejoin="round" points="36.0,198.0 52.5,198.0 69.1,198.0 85.6,198.0 102.1,198.0 118.6,198.0 135.2,198.0 151.7,198.0 168.2,198.0 184.7,198.0 201.3,198.0 217.8,198.0 234.3,198.0 250.8,198.0 267.4,198.0 283.9,198.0 300.4,198.0 316.9,198.0 333.5,198.0 350.0,198.0 366.5,198.0 383.1,198.0 399.6,198.0 416.1,198.0 432.6,198.0 449.2,198.0 465.7,198.0 482.2,198.0 498.7,198.0 515.3,198.0 531.8,198.0 548.3,198.0 564.8,198.0 581.4,198.0 597.9,198.0 614.4,198.0 630.9,198.0 647.5,198.0 664.0,198.0"/><circle cx="36.0" cy="198.0" r="3" fill="#3fb950"/><circle cx="52.5" cy="198.0" r="3" fill="#3fb950"/><circle cx="69.1" cy="198.0" r="3" fill="#3fb950"/><circle cx="85.6" cy="198.0" r="3" fill="#3fb950"/><circle cx="102.1" cy="198.0" r="3" fill="#3fb950"/><circle cx="118.6" cy="198.0" r="3" fill="#3fb950"/><circle cx="135.2" cy="198.0" r="3" fill="#3fb950"/><circle cx="151.7" cy="198.0" r="3" fill="#3fb950"/><circle cx="168.2" cy="198.0" r="3" fill="#3fb950"/><circle cx="184.7" cy="198.0" r="3" fill="#3fb950"/><circle cx="201.3" cy="198.0" r="3" fill="#3fb950"/><circle cx="217.8" cy="198.0" r="3" fill="#3fb950"/><circle cx="234.3" cy="198.0" r="3" fill="#3fb950"/><circle cx="250.8" cy="198.0" r="3" fill="#3fb950"/><circle cx="267.4" cy="198.0" r="3" fill="#3fb950"/><circle cx="283.9" cy="198.0" r="3" fill="#3fb950"/><circle cx="300.4" cy="198.0" r="3" fill="#3fb950"/><circle cx="316.9" cy="198.0" r="3" fill="#3fb950"/><circle cx="333.5" cy="198.0" r="3" fill="#3fb950"/><circle cx="350.0" cy="198.0" r="3" fill="#3fb950"/><circle cx="366.5" cy="198.0" r="3" fill="#3fb950"/><circle cx="383.1" cy="198.0" r="3" fill="#3fb950"/><circle cx="399.6" cy="198.0" r="3" fill="#3fb950"/><circle cx="416.1" cy="198.0" r="3" fill="#3fb950"/><circle cx="432.6" cy="198.0" r="3" fill="#3fb950"/><circle cx="449.2" cy="198.0" r="3" fill="#3fb950"/><circle cx="465.7" cy="198.0" r="3" fill="#3fb950"/><circle cx="482.2" cy="198.0" r="3" fill="#3fb950"/><circle cx="498.7" cy="198.0" r="3" fill="#3fb950"/><circle cx="515.3" cy="198.0" r="3" fill="#3fb950"/><circle cx="531.8" cy="198.0" r="3" fill="#3fb950"/><circle cx="548.3" cy="198.0" r="3" fill="#3fb950"/><circle cx="564.8" cy="198.0" r="3" fill="#3fb950"/><circle cx="581.4" cy="198.0" r="3" fill="#3fb950"/><circle cx="597.9" cy="198.0" r="3" fill="#3fb950"/><circle cx="614.4" cy="198.0" r="3" fill="#3fb950"/><circle cx="630.9" cy="198.0" r="3" fill="#3fb950"/><circle cx="647.5" cy="198.0" r="3" fill="#3fb950"/><circle cx="664.0" cy="198.0" r="3" fill="#3fb950"/>
<polyline fill="none" stroke="#4aa3ff" stroke-width="2.5" stroke-linejoin="round" points="36.0,102.6 52.5,102.6 69.1,102.6 85.6,102.6 102.1,102.6 118.6,102.6 135.2,102.6 151.7,102.6 168.2,102.6 184.7,102.6 201.3,102.6 217.8,102.6 234.3,102.6 250.8,102.6 267.4,102.6 283.9,88.2 300.4,81.4 316.9,76.3 333.5,76.3 350.0,61.2 366.5,61.2 383.1,61.2 399.6,49.3 416.1,49.3 432.6,49.3 449.2,43.9 465.7,43.2 482.2,43.2 498.7,42.5 515.3,42.5 531.8,41.4 548.3,39.2 564.8,36.7 581.4,36.0 597.9,36.0 614.4,36.0 630.9,36.0 647.5,36.0 664.0,36.0"/><circle cx="36.0" cy="102.6" r="3" fill="#4aa3ff"/><circle cx="52.5" cy="102.6" r="3" fill="#4aa3ff"/><circle cx="69.1" cy="102.6" r="3" fill="#4aa3ff"/><circle cx="85.6" cy="102.6" r="3" fill="#4aa3ff"/><circle cx="102.1" cy="102.6" r="3" fill="#4aa3ff"/><circle cx="118.6" cy="102.6" r="3" fill="#4aa3ff"/><circle cx="135.2" cy="102.6" r="3" fill="#4aa3ff"/><circle cx="151.7" cy="102.6" r="3" fill="#4aa3ff"/><circle cx="168.2" cy="102.6" r="3" fill="#4aa3ff"/><circle cx="184.7" cy="102.6" r="3" fill="#4aa3ff"/><circle cx="201.3" cy="102.6" r="3" fill="#4aa3ff"/><circle cx="217.8" cy="102.6" r="3" fill="#4aa3ff"/><circle cx="234.3" cy="102.6" r="3" fill="#4aa3ff"/><circle cx="250.8" cy="102.6" r="3" fill="#4aa3ff"/><circle cx="267.4" cy="102.6" r="3" fill="#4aa3ff"/><circle cx="283.9" cy="88.2" r="3" fill="#4aa3ff"/><circle cx="300.4" cy="81.4" r="3" fill="#4aa3ff"/><circle cx="316.9" cy="76.3" r="3" fill="#4aa3ff"/><circle cx="333.5" cy="76.3" r="3" fill="#4aa3ff"/><circle cx="350.0" cy="61.2" r="3" fill="#4aa3ff"/><circle cx="366.5" cy="61.2" r="3" fill="#4aa3ff"/><circle cx="383.1" cy="61.2" r="3" fill="#4aa3ff"/><circle cx="399.6" cy="49.3" r="3" fill="#4aa3ff"/><circle cx="416.1" cy="49.3" r="3" fill="#4aa3ff"/><circle cx="432.6" cy="49.3" r="3" fill="#4aa3ff"/><circle cx="449.2" cy="43.9" r="3" fill="#4aa3ff"/><circle cx="465.7" cy="43.2" r="3" fill="#4aa3ff"/><circle cx="482.2" cy="43.2" r="3" fill="#4aa3ff"/><circle cx="498.7" cy="42.5" r="3" fill="#4aa3ff"/><circle cx="515.3" cy="42.5" r="3" fill="#4aa3ff"/><circle cx="531.8" cy="41.4" r="3" fill="#4aa3ff"/><circle cx="548.3" cy="39.2" r="3" fill="#4aa3ff"/><circle cx="564.8" cy="36.7" r="3" fill="#4aa3ff"/><circle cx="581.4" cy="36.0" r="3" fill="#4aa3ff"/><circle cx="597.9" cy="36.0" r="3" fill="#4aa3ff"/><circle cx="614.4" cy="36.0" r="3" fill="#4aa3ff"/><circle cx="630.9" cy="36.0" r="3" fill="#4aa3ff"/><circle cx="647.5" cy="36.0" r="3" fill="#4aa3ff"/><circle cx="664.0" cy="36.0" r="3" fill="#4aa3ff"/>
<text x="36" y="225" fill="#6b7280" font-size="11">2026-06-26</text>
<text x="664" y="225" fill="#6b7280" font-size="11" text-anchor="end">2026-06-30</text>
<text x="36" y="212" font-family="system-ui,sans-serif" font-size="11">
<tspan fill="#4aa3ff">&#9679; open FPs</tspan>  <tspan fill="#3fb950">&#9679; closed (Anthropic acting)</tspan>  <tspan fill="#8a5a5a">&#9679; harness withdrawn</tspan></text>
<text x="664" y="22" text-anchor="end" font-family="system-ui,sans-serif" font-size="12">
<tspan fill="#4aa3ff">open 450</tspan>  <tspan fill="#3fb950">closed 0</tspan>  <tspan fill="#8a5a5a">harness 261</tspan></text>
</svg>