<svg xmlns="http://www.w3.org/2000/svg" width="700" height="234" viewBox="0 0 700 234" role="img">
<rect width="700" height="234" rx="12" fill="#16181d"/>
<text x="36" y="22" fill="#e8eaed" font-family="system-ui,sans-serif" font-size="14" font-weight="700">Is Anthropic acting? cyber/aup false positives over time</text>
<line x1="36" y1="198.0" x2="664" y2="198.0" stroke="#2a2e37" stroke-width="1"/><text x="30" y="202.0" fill="#6b7280" font-size="11" text-anchor="end">0</text><line x1="36" y1="117.0" x2="664" y2="117.0" stroke="#2a2e37" stroke-width="1"/><text x="30" y="121.0" fill="#6b7280" font-size="11" text-anchor="end">400</text><line x1="36" y1="36.0" x2="664" y2="36.0" stroke="#2a2e37" stroke-width="1"/><text x="30" y="40.0" fill="#6b7280" font-size="11" text-anchor="end">800</text>

<polyline fill="none" stroke="#8a5a5a" stroke-width="2.5" stroke-linejoin="round" points="36.0,145.1 39.7,145.1 43.4,145.1 47.1,145.1 50.8,145.1 54.5,145.1 58.2,145.1 61.9,145.1 65.6,145.1 69.2,145.1 72.9,145.1 76.6,145.1 80.3,145.1 84.0,145.1 87.7,145.1 91.4,145.1 95.1,145.1 98.8,145.1 102.5,145.1 106.2,145.1 109.9,145.1 113.6,145.1 117.3,145.1 121.0,145.1 124.7,145.1 128.4,145.1 132.0,145.1 135.7,145.1 139.4,145.1 143.1,145.1 146.8,145.1 150.5,145.1 154.2,145.1 157.9,145.1 161.6,145.1 165.3,145.1 169.0,145.1 172.7,145.1 176.4,145.1 180.1,145.1 183.8,145.1 187.5,145.1 191.2,145.1 194.8,145.1 198.5,145.1 202.2,145.1 205.9,145.1 209.6,145.1 213.3,145.1 217.0,145.1 220.7,155.7 224.4,155.7 228.1,155.7 231.8,155.7 235.5,155.7 239.2,155.7 242.9,155.7 246.6,155.7 250.3,155.7 254.0,155.7 257.6,155.7 261.3,155.7 265.0,155.7 268.7,155.7 272.4,155.7 276.1,155.7 279.8,155.7 283.5,155.7 287.2,155.7 290.9,155.7 294.6,155.7 298.3,155.7 302.0,155.7 305.7,155.7 309.4,155.7 313.1,155.7 316.8,155.7 320.4,155.7 324.1,155.7 327.8,155.7 331.5,155.7 335.2,155.7 338.9,155.7 342.6,155.7 346.3,167.6 350.0,167.6 353.7,170.3 357.4,170.3 361.1,170.5 364.8,170.7 368.5,170.7 372.2,170.9 375.9,172.7 379.6,180.6 383.2,181.8 386.9,189.1 390.6,190.5 394.3,195.2 398.0,198.0 401.7,198.0 405.4,198.0 409.1,198.0 412.8,198.0 416.5,198.0 420.2,198.0 423.9,198.0 427.6,198.0 431.3,198.0 435.0,198.0 438.7,198.0 442.4,198.0 446.0,198.0 449.7,198.0 453.4,198.0 457.1,198.0 460.8,198.0 464.5,198.0 468.2,198.0 471.9,198.0 475.6,198.0 479.3,198.0 483.0,198.0 486.7,198.0 490.4,198.0 494.1,198.0 497.8,198.0 501.5,198.0 505.2,198.0 508.8,198.0 512.5,198.0 516.2,198.0 519.9,198.0 523.6,198.0 527.3,198.0 531.0,198.0 534.7,198.0 538.4,198.0 542.1,198.0 545.8,198.0 549.5,198.0 553.2,198.0 556.9,198.0 560.6,198.0 564.3,198.0 568.0,198.0 571.6,198.0 575.3,198.0 579.0,198.0 582.7,198.0 586.4,198.0 590.1,198.0 593.8,198.0 597.5,198.0 601.2,198.0 604.9,198.0 608.6,198.0 612.3,198.0 616.0,198.0 619.7,198.0 623.4,198.0 627.1,198.0 630.8,198.0 634.4,198.0 638.1,198.0 641.8,198.0 645.5,198.0 649.2,198.0 652.9,198.0 656.6,198.0 660.3,198.0 664.0,198.0"/><circle cx="36.0" cy="145.1" r="3" fill="#8a5a5a"/><circle cx="39.7" cy="145.1" r="3" fill="#8a5a5a"/><circle cx="43.4" cy="145.1" r="3" fill="#8a5a5a"/><circle cx="47.1" cy="145.1" r="3" fill="#8a5a5a"/><circle cx="50.8" cy="145.1" r="3" fill="#8a5a5a"/><circle cx="54.5" cy="145.1" r="3" fill="#8a5a5a"/><circle cx="58.2" cy="145.1" r="3" fill="#8a5a5a"/><circle cx="61.9" cy="145.1" r="3" fill="#8a5a5a"/><circle cx="65.6" cy="145.1" r="3" fill="#8a5a5a"/><circle cx="69.2" cy="145.1" r="3" fill="#8a5a5a"/><circle cx="72.9" cy="145.1" r="3" fill="#8a5a5a"/><circle cx="76.6" cy="145.1" r="3" fill="#8a5a5a"/><circle cx="80.3" cy="145.1" r="3" fill="#8a5a5a"/><circle cx="84.0" cy="145.1" r="3" fill="#8a5a5a"/><circle cx="87.7" cy="145.1" r="3" fill="#8a5a5a"/><circle cx="91.4" cy="145.1" r="3" fill="#8a5a5a"/><circle cx="95.1" cy="145.1" r="3" fill="#8a5a5a"/><circle cx="98.8" cy="145.1" r="3" fill="#8a5a5a"/><circle cx="102.5" cy="145.1" r="3" fill="#8a5a5a"/><circle cx="106.2" cy="145.1" r="3" fill="#8a5a5a"/><circle cx="109.9" cy="145.1" r="3" fill="#8a5a5a"/><circle cx="113.6" cy="145.1" r="3" fill="#8a5a5a"/><circle cx="117.3" cy="145.1" r="3" fill="#8a5a5a"/><circle cx="121.0" cy="145.1" r="3" fill="#8a5a5a"/><circle cx="124.7" cy="145.1" r="3" fill="#8a5a5a"/><circle cx="128.4" cy="145.1" r="3" fill="#8a5a5a"/><circle cx="132.0" cy="145.1" r="3" fill="#8a5a5a"/><circle cx="135.7" cy="145.1" r="3" fill="#8a5a5a"/><circle cx="139.4" cy="145.1" r="3" fill="#8a5a5a"/><circle cx="143.1" cy="145.1" r="3" fill="#8a5a5a"/><circle cx="146.8" cy="145.1" r="3" fill="#8a5a5a"/><circle cx="150.5" cy="145.1" r="3" fill="#8a5a5a"/><circle cx="154.2" cy="145.1" r="3" fill="#8a5a5a"/><circle cx="157.9" cy="145.1" r="3" fill="#8a5a5a"/><circle cx="161.6" cy="145.1" r="3" fill="#8a5a5a"/><circle cx="165.3" cy="145.1" r="3" fill="#8a5a5a"/><circle cx="169.0" cy="145.1" r="3" fill="#8a5a5a"/><circle cx="172.7" cy="145.1" r="3" fill="#8a5a5a"/><circle cx="176.4" cy="145.1" r="3" fill="#8a5a5a"/><circle cx="180.1" cy="145.1" r="3" fill="#8a5a5a"/><circle cx="183.8" cy="145.1" r="3" fill="#8a5a5a"/><circle cx="187.5" cy="145.1" r="3" fill="#8a5a5a"/><circle cx="191.2" cy="145.1" r="3" fill="#8a5a5a"/><circle cx="194.8" cy="145.1" r="3" fill="#8a5a5a"/><circle cx="198.5" cy="145.1" r="3" fill="#8a5a5a"/><circle cx="202.2" cy="145.1" r="3" fill="#8a5a5a"/><circle cx="205.9" cy="145.1" r="3" fill="#8a5a5a"/><circle cx="209.6" cy="145.1" r="3" fill="#8a5a5a"/><circle cx="213.3" cy="145.1" r="3" fill="#8a5a5a"/><circle cx="217.0" cy="145.1" r="3" fill="#8a5a5a"/><circle cx="220.7" cy="155.7" r="3" fill="#8a5a5a"/><circle cx="224.4" cy="155.7" r="3" fill="#8a5a5a"/><circle cx="228.1" cy="155.7" r="3" fill="#8a5a5a"/><circle cx="231.8" cy="155.7" r="3" fill="#8a5a5a"/><circle cx="235.5" cy="155.7" r="3" fill="#8a5a5a"/><circle cx="239.2" cy="155.7" r="3" fill="#8a5a5a"/><circle cx="242.9" cy="155.7" r="3" fill="#8a5a5a"/><circle cx="246.6" cy="155.7" r="3" fill="#8a5a5a"/><circle cx="250.3" cy="155.7" r="3" fill="#8a5a5a"/><circle cx="254.0" cy="155.7" r="3" fill="#8a5a5a"/><circle cx="257.6" cy="155.7" r="3" fill="#8a5a5a"/><circle cx="261.3" cy="155.7" r="3" fill="#8a5a5a"/><circle cx="265.0" cy="155.7" r="3" fill="#8a5a5a"/><circle cx="268.7" cy="155.7" r="3" fill="#8a5a5a"/><circle cx="272.4" cy="155.7" r="3" fill="#8a5a5a"/><circle cx="276.1" cy="155.7" r="3" fill="#8a5a5a"/><circle cx="279.8" cy="155.7" r="3" fill="#8a5a5a"/><circle cx="283.5" cy="155.7" r="3" fill="#8a5a5a"/><circle cx="287.2" cy="155.7" r="3" fill="#8a5a5a"/><circle cx="290.9" cy="155.7" r="3" fill="#8a5a5a"/><circle cx="294.6" cy="155.7" r="3" fill="#8a5a5a"/><circle cx="298.3" cy="155.7" r="3" fill="#8a5a5a"/><circle cx="302.0" cy="155.7" r="3" fill="#8a5a5a"/><circle cx="305.7" cy="155.7" r="3" fill="#8a5a5a"/><circle cx="309.4" cy="155.7" r="3" fill="#8a5a5a"/><circle cx="313.1" cy="155.7" r="3" fill="#8a5a5a"/><circle cx="316.8" cy="155.7" r="3" fill="#8a5a5a"/><circle cx="320.4" cy="155.7" r="3" fill="#8a5a5a"/><circle cx="324.1" cy="155.7" r="3" fill="#8a5a5a"/><circle cx="327.8" cy="155.7" r="3" fill="#8a5a5a"/><circle cx="331.5" cy="155.7" r="3" fill="#8a5a5a"/><circle cx="335.2" cy="155.7" r="3" fill="#8a5a5a"/><circle cx="338.9" cy="155.7" r="3" fill="#8a5a5a"/><circle cx="342.6" cy="155.7" r="3" fill="#8a5a5a"/><circle cx="346.3" cy="167.6" r="3" fill="#8a5a5a"/><circle cx="350.0" cy="167.6" r="3" fill="#8a5a5a"/><circle cx="353.7" cy="170.3" r="3" fill="#8a5a5a"/><circle cx="357.4" cy="170.3" r="3" fill="#8a5a5a"/><circle cx="361.1" cy="170.5" r="3" fill="#8a5a5a"/><circle cx="364.8" cy="170.7" r="3" fill="#8a5a5a"/><circle cx="368.5" cy="170.7" r="3" fill="#8a5a5a"/><circle cx="372.2" cy="170.9" r="3" fill="#8a5a5a"/><circle cx="375.9" cy="172.7" r="3" fill="#8a5a5a"/><circle cx="379.6" cy="180.6" r="3" fill="#8a5a5a"/><circle cx="383.2" cy="181.8" r="3" fill="#8a5a5a"/><circle cx="386.9" cy="189.1" r="3" fill="#8a5a5a"/><circle cx="390.6" cy="190.5" r="3" fill="#8a5a5a"/><circle cx="394.3" cy="195.2" r="3" fill="#8a5a5a"/><circle cx="398.0" cy="198.0" r="3" fill="#8a5a5a"/><circle cx="401.7" cy="198.0" r="3" fill="#8a5a5a"/><circle cx="405.4" cy="198.0" r="3" fill="#8a5a5a"/><circle cx="409.1" cy="198.0" r="3" fill="#8a5a5a"/><circle cx="412.8" cy="198.0" r="3" fill="#8a5a5a"/><circle cx="416.5" cy="198.0" r="3" fill="#8a5a5a"/><circle cx="420.2" cy="198.0" r="3" fill="#8a5a5a"/><circle cx="423.9" cy="198.0" r="3" fill="#8a5a5a"/><circle cx="427.6" cy="198.0" r="3" fill="#8a5a5a"/><circle cx="431.3" cy="198.0" r="3" fill="#8a5a5a"/><circle cx="435.0" cy="198.0" r="3" fill="#8a5a5a"/><circle cx="438.7" cy="198.0" r="3" fill="#8a5a5a"/><circle cx="442.4" cy="198.0" r="3" fill="#8a5a5a"/><circle cx="446.0" cy="198.0" r="3" fill="#8a5a5a"/><circle cx="449.7" cy="198.0" r="3" fill="#8a5a5a"/><circle cx="453.4" cy="198.0" r="3" fill="#8a5a5a"/><circle cx="457.1" cy="198.0" r="3" fill="#8a5a5a"/><circle cx="460.8" cy="198.0" r="3" fill="#8a5a5a"/><circle cx="464.5" cy="198.0" r="3" fill="#8a5a5a"/><circle cx="468.2" cy="198.0" r="3" fill="#8a5a5a"/><circle cx="471.9" cy="198.0" r="3" fill="#8a5a5a"/><circle cx="475.6" cy="198.0" r="3" fill="#8a5a5a"/><circle cx="479.3" cy="198.0" r="3" fill="#8a5a5a"/><circle cx="483.0" cy="198.0" r="3" fill="#8a5a5a"/><circle cx="486.7" cy="198.0" r="3" fill="#8a5a5a"/><circle cx="490.4" cy="198.0" r="3" fill="#8a5a5a"/><circle cx="494.1" cy="198.0" r="3" fill="#8a5a5a"/><circle cx="497.8" cy="198.0" r="3" fill="#8a5a5a"/><circle cx="501.5" cy="198.0" r="3" fill="#8a5a5a"/><circle cx="505.2" cy="198.0" r="3" fill="#8a5a5a"/><circle cx="508.8" cy="198.0" r="3" fill="#8a5a5a"/><circle cx="512.5" cy="198.0" r="3" fill="#8a5a5a"/><circle cx="516.2" cy="198.0" r="3" fill="#8a5a5a"/><circle cx="519.9" cy="198.0" r="3" fill="#8a5a5a"/><circle cx="523.6" cy="198.0" r="3" fill="#8a5a5a"/><circle cx="527.3" cy="198.0" r="3" fill="#8a5a5a"/><circle cx="531.0" cy="198.0" r="3" fill="#8a5a5a"/><circle cx="534.7" cy="198.0" r="3" fill="#8a5a5a"/><circle cx="538.4" cy="198.0" r="3" fill="#8a5a5a"/><circle cx="542.1" cy="198.0" r="3" fill="#8a5a5a"/><circle cx="545.8" cy="198.0" r="3" fill="#8a5a5a"/><circle cx="549.5" cy="198.0" r="3" fill="#8a5a5a"/><circle cx="553.2" cy="198.0" r="3" fill="#8a5a5a"/><circle cx="556.9" cy="198.0" r="3" fill="#8a5a5a"/><circle cx="560.6" cy="198.0" r="3" fill="#8a5a5a"/><circle cx="564.3" cy="198.0" r="3" fill="#8a5a5a"/><circle cx="568.0" cy="198.0" r="3" fill="#8a5a5a"/><circle cx="571.6" cy="198.0" r="3" fill="#8a5a5a"/><circle cx="575.3" cy="198.0" r="3" fill="#8a5a5a"/><circle cx="579.0" cy="198.0" r="3" fill="#8a5a5a"/><circle cx="582.7" cy="198.0" r="3" fill="#8a5a5a"/><circle cx="586.4" cy="198.0" r="3" fill="#8a5a5a"/><circle cx="590.1" cy="198.0" r="3" fill="#8a5a5a"/><circle cx="593.8" cy="198.0" r="3" fill="#8a5a5a"/><circle cx="597.5" cy="198.0" r="3" fill="#8a5a5a"/><circle cx="601.2" cy="198.0" r="3" fill="#8a5a5a"/><circle cx="604.9" cy="198.0" r="3" fill="#8a5a5a"/><circle cx="608.6" cy="198.0" r="3" fill="#8a5a5a"/><circle cx="612.3" cy="198.0" r="3" fill="#8a5a5a"/><circle cx="616.0" cy="198.0" r="3" fill="#8a5a5a"/><circle cx="619.7" cy="198.0" r="3" fill="#8a5a5a"/><circle cx="623.4" cy="198.0" r="3" fill="#8a5a5a"/><circle cx="627.1" cy="198.0" r="3" fill="#8a5a5a"/><circle cx="630.8" cy="198.0" r="3" fill="#8a5a5a"/><circle cx="634.4" cy="198.0" r="3" fill="#8a5a5a"/><circle cx="638.1" cy="198.0" r="3" fill="#8a5a5a"/><circle cx="641.8" cy="198.0" r="3" fill="#8a5a5a"/><circle cx="645.5" cy="198.0" r="3" fill="#8a5a5a"/><circle cx="649.2" cy="198.0" r="3" fill="#8a5a5a"/><circle cx="652.9" cy="198.0" r="3" fill="#8a5a5a"/><circle cx="656.6" cy="198.0" r="3" fill="#8a5a5a"/><circle cx="660.3" cy="198.0" r="3" fill="#8a5a5a"/><circle cx="664.0" cy="198.0" r="3" fill="#8a5a5a"/>
<polyline fill="none" stroke="#3fb950" stroke-width="2.5" stroke-linejoin="round" points="36.0,198.0 39.7,198.0 43.4,198.0 47.1,198.0 50.8,198.0 54.5,198.0 58.2,198.0 61.9,198.0 65.6,198.0 69.2,198.0 72.9,198.0 76.6,198.0 80.3,198.0 84.0,198.0 87.7,198.0 91.4,198.0 95.1,198.0 98.8,198.0 102.5,198.0 106.2,198.0 109.9,198.0 113.6,198.0 117.3,198.0 121.0,198.0 124.7,198.0 128.4,198.0 132.0,198.0 135.7,198.0 139.4,198.0 143.1,198.0 146.8,198.0 150.5,198.0 154.2,198.0 157.9,198.0 161.6,198.0 165.3,198.0 169.0,198.0 172.7,198.0 176.4,198.0 180.1,198.0 183.8,198.0 187.5,198.0 191.2,198.0 194.8,191.7 198.5,191.7 202.2,191.7 205.9,191.7 209.6,191.7 213.3,191.7 217.0,191.7 220.7,192.9 224.4,192.9 228.1,190.7 231.8,190.7 235.5,190.7 239.2,190.7 242.9,190.7 246.6,190.5 250.3,190.5 254.0,190.5 257.6,190.3 261.3,190.3 265.0,190.3 268.7,190.3 272.4,190.3 276.1,190.3 279.8,190.3 283.5,190.3 287.2,190.3 290.9,190.3 294.6,190.3 298.3,190.3 302.0,190.3 305.7,190.3 309.4,190.3 313.1,190.3 316.8,190.3 320.4,190.3 324.1,190.3 327.8,190.3 331.5,190.3 335.2,189.3 338.9,189.3 342.6,189.3 346.3,190.7 350.0,190.7 353.7,190.7 357.4,190.7 361.1,190.7 364.8,190.7 368.5,190.7 372.2,190.7 375.9,190.7 379.6,190.9 383.2,190.9 386.9,190.9 390.6,194.2 394.3,196.8 398.0,198.0 401.7,198.0 405.4,198.0 409.1,198.0 412.8,198.0 416.5,198.0 420.2,198.0 423.9,198.0 427.6,198.0 431.3,198.0 435.0,198.0 438.7,198.0 442.4,198.0 446.0,198.0 449.7,198.0 453.4,198.0 457.1,198.0 460.8,198.0 464.5,198.0 468.2,198.0 471.9,198.0 475.6,198.0 479.3,198.0 483.0,198.0 486.7,198.0 490.4,198.0 494.1,198.0 497.8,198.0 501.5,198.0 505.2,198.0 508.8,198.0 512.5,198.0 516.2,198.0 519.9,198.0 523.6,198.0 527.3,198.0 531.0,198.0 534.7,198.0 538.4,198.0 542.1,198.0 545.8,198.0 549.5,198.0 553.2,198.0 556.9,198.0 560.6,198.0 564.3,198.0 568.0,198.0 571.6,198.0 575.3,198.0 579.0,198.0 582.7,198.0 586.4,198.0 590.1,198.0 593.8,198.0 597.5,198.0 601.2,198.0 604.9,198.0 608.6,198.0 612.3,198.0 616.0,198.0 619.7,198.0 623.4,198.0 627.1,198.0 630.8,198.0 634.4,198.0 638.1,198.0 641.8,198.0 645.5,198.0 649.2,198.0 652.9,198.0 656.6,198.0 660.3,198.0 664.0,198.0"/><circle cx="36.0" cy="198.0" r="3" fill="#3fb950"/><circle cx="39.7" cy="198.0" r="3" fill="#3fb950"/><circle cx="43.4" cy="198.0" r="3" fill="#3fb950"/><circle cx="47.1" cy="198.0" r="3" fill="#3fb950"/><circle cx="50.8" cy="198.0" r="3" fill="#3fb950"/><circle cx="54.5" cy="198.0" r="3" fill="#3fb950"/><circle cx="58.2" cy="198.0" r="3" fill="#3fb950"/><circle cx="61.9" cy="198.0" r="3" fill="#3fb950"/><circle cx="65.6" cy="198.0" r="3" fill="#3fb950"/><circle cx="69.2" cy="198.0" r="3" fill="#3fb950"/><circle cx="72.9" cy="198.0" r="3" fill="#3fb950"/><circle cx="76.6" cy="198.0" r="3" fill="#3fb950"/><circle cx="80.3" cy="198.0" r="3" fill="#3fb950"/><circle cx="84.0" cy="198.0" r="3" fill="#3fb950"/><circle cx="87.7" cy="198.0" r="3" fill="#3fb950"/><circle cx="91.4" cy="198.0" r="3" fill="#3fb950"/><circle cx="95.1" cy="198.0" r="3" fill="#3fb950"/><circle cx="98.8" cy="198.0" r="3" fill="#3fb950"/><circle cx="102.5" cy="198.0" r="3" fill="#3fb950"/><circle cx="106.2" cy="198.0" r="3" fill="#3fb950"/><circle cx="109.9" cy="198.0" r="3" fill="#3fb950"/><circle cx="113.6" cy="198.0" r="3" fill="#3fb950"/><circle cx="117.3" cy="198.0" r="3" fill="#3fb950"/><circle cx="121.0" cy="198.0" r="3" fill="#3fb950"/><circle cx="124.7" cy="198.0" r="3" fill="#3fb950"/><circle cx="128.4" cy="198.0" r="3" fill="#3fb950"/><circle cx="132.0" cy="198.0" r="3" fill="#3fb950"/><circle cx="135.7" cy="198.0" r="3" fill="#3fb950"/><circle cx="139.4" cy="198.0" r="3" fill="#3fb950"/><circle cx="143.1" cy="198.0" r="3" fill="#3fb950"/><circle cx="146.8" cy="198.0" r="3" fill="#3fb950"/><circle cx="150.5" cy="198.0" r="3" fill="#3fb950"/><circle cx="154.2" cy="198.0" r="3" fill="#3fb950"/><circle cx="157.9" cy="198.0" r="3" fill="#3fb950"/><circle cx="161.6" cy="198.0" r="3" fill="#3fb950"/><circle cx="165.3" cy="198.0" r="3" fill="#3fb950"/><circle cx="169.0" cy="198.0" r="3" fill="#3fb950"/><circle cx="172.7" cy="198.0" r="3" fill="#3fb950"/><circle cx="176.4" cy="198.0" r="3" fill="#3fb950"/><circle cx="180.1" cy="198.0" r="3" fill="#3fb950"/><circle cx="183.8" cy="198.0" r="3" fill="#3fb950"/><circle cx="187.5" cy="198.0" r="3" fill="#3fb950"/><circle cx="191.2" cy="198.0" r="3" fill="#3fb950"/><circle cx="194.8" cy="191.7" r="3" fill="#3fb950"/><circle cx="198.5" cy="191.7" r="3" fill="#3fb950"/><circle cx="202.2" cy="191.7" r="3" fill="#3fb950"/><circle cx="205.9" cy="191.7" r="3" fill="#3fb950"/><circle cx="209.6" cy="191.7" r="3" fill="#3fb950"/><circle cx="213.3" cy="191.7" r="3" fill="#3fb950"/><circle cx="217.0" cy="191.7" r="3" fill="#3fb950"/><circle cx="220.7" cy="192.9" r="3" fill="#3fb950"/><circle cx="224.4" cy="192.9" r="3" fill="#3fb950"/><circle cx="228.1" cy="190.7" r="3" fill="#3fb950"/><circle cx="231.8" cy="190.7" r="3" fill="#3fb950"/><circle cx="235.5" cy="190.7" r="3" fill="#3fb950"/><circle cx="239.2" cy="190.7" r="3" fill="#3fb950"/><circle cx="242.9" cy="190.7" r="3" fill="#3fb950"/><circle cx="246.6" cy="190.5" r="3" fill="#3fb950"/><circle cx="250.3" cy="190.5" r="3" fill="#3fb950"/><circle cx="254.0" cy="190.5" r="3" fill="#3fb950"/><circle cx="257.6" cy="190.3" r="3" fill="#3fb950"/><circle cx="261.3" cy="190.3" r="3" fill="#3fb950"/><circle cx="265.0" cy="190.3" r="3" fill="#3fb950"/><circle cx="268.7" cy="190.3" r="3" fill="#3fb950"/><circle cx="272.4" cy="190.3" r="3" fill="#3fb950"/><circle cx="276.1" cy="190.3" r="3" fill="#3fb950"/><circle cx="279.8" cy="190.3" r="3" fill="#3fb950"/><circle cx="283.5" cy="190.3" r="3" fill="#3fb950"/><circle cx="287.2" cy="190.3" r="3" fill="#3fb950"/><circle cx="290.9" cy="190.3" r="3" fill="#3fb950"/><circle cx="294.6" cy="190.3" r="3" fill="#3fb950"/><circle cx="298.3" cy="190.3" r="3" fill="#3fb950"/><circle cx="302.0" cy="190.3" r="3" fill="#3fb950"/><circle cx="305.7" cy="190.3" r="3" fill="#3fb950"/><circle cx="309.4" cy="190.3" r="3" fill="#3fb950"/><circle cx="313.1" cy="190.3" r="3" fill="#3fb950"/><circle cx="316.8" cy="190.3" r="3" fill="#3fb950"/><circle cx="320.4" cy="190.3" r="3" fill="#3fb950"/><circle cx="324.1" cy="190.3" r="3" fill="#3fb950"/><circle cx="327.8" cy="190.3" r="3" fill="#3fb950"/><circle cx="331.5" cy="190.3" r="3" fill="#3fb950"/><circle cx="335.2" cy="189.3" r="3" fill="#3fb950"/><circle cx="338.9" cy="189.3" r="3" fill="#3fb950"/><circle cx="342.6" cy="189.3" r="3" fill="#3fb950"/><circle cx="346.3" cy="190.7" r="3" fill="#3fb950"/><circle cx="350.0" cy="190.7" r="3" fill="#3fb950"/><circle cx="353.7" cy="190.7" r="3" fill="#3fb950"/><circle cx="357.4" cy="190.7" r="3" fill="#3fb950"/><circle cx="361.1" cy="190.7" r="3" fill="#3fb950"/><circle cx="364.8" cy="190.7" r="3" fill="#3fb950"/><circle cx="368.5" cy="190.7" r="3" fill="#3fb950"/><circle cx="372.2" cy="190.7" r="3" fill="#3fb950"/><circle cx="375.9" cy="190.7" r="3" fill="#3fb950"/><circle cx="379.6" cy="190.9" r="3" fill="#3fb950"/><circle cx="383.2" cy="190.9" r="3" fill="#3fb950"/><circle cx="386.9" cy="190.9" r="3" fill="#3fb950"/><circle cx="390.6" cy="194.2" r="3" fill="#3fb950"/><circle cx="394.3" cy="196.8" r="3" fill="#3fb950"/><circle cx="398.0" cy="198.0" r="3" fill="#3fb950"/><circle cx="401.7" cy="198.0" r="3" fill="#3fb950"/><circle cx="405.4" cy="198.0" r="3" fill="#3fb950"/><circle cx="409.1" cy="198.0" r="3" fill="#3fb950"/><circle cx="412.8" cy="198.0" r="3" fill="#3fb950"/><circle cx="416.5" cy="198.0" r="3" fill="#3fb950"/><circle cx="420.2" cy="198.0" r="3" fill="#3fb950"/><circle cx="423.9" cy="198.0" r="3" fill="#3fb950"/><circle cx="427.6" cy="198.0" r="3" fill="#3fb950"/><circle cx="431.3" cy="198.0" r="3" fill="#3fb950"/><circle cx="435.0" cy="198.0" r="3" fill="#3fb950"/><circle cx="438.7" cy="198.0" r="3" fill="#3fb950"/><circle cx="442.4" cy="198.0" r="3" fill="#3fb950"/><circle cx="446.0" cy="198.0" r="3" fill="#3fb950"/><circle cx="449.7" cy="198.0" r="3" fill="#3fb950"/><circle cx="453.4" cy="198.0" r="3" fill="#3fb950"/><circle cx="457.1" cy="198.0" r="3" fill="#3fb950"/><circle cx="460.8" cy="198.0" r="3" fill="#3fb950"/><circle cx="464.5" cy="198.0" r="3" fill="#3fb950"/><circle cx="468.2" cy="198.0" r="3" fill="#3fb950"/><circle cx="471.9" cy="198.0" r="3" fill="#3fb950"/><circle cx="475.6" cy="198.0" r="3" fill="#3fb950"/><circle cx="479.3" cy="198.0" r="3" fill="#3fb950"/><circle cx="483.0" cy="198.0" r="3" fill="#3fb950"/><circle cx="486.7" cy="198.0" r="3" fill="#3fb950"/><circle cx="490.4" cy="198.0" r="3" fill="#3fb950"/><circle cx="494.1" cy="198.0" r="3" fill="#3fb950"/><circle cx="497.8" cy="198.0" r="3" fill="#3fb950"/><circle cx="501.5" cy="198.0" r="3" fill="#3fb950"/><circle cx="505.2" cy="198.0" r="3" fill="#3fb950"/><circle cx="508.8" cy="198.0" r="3" fill="#3fb950"/><circle cx="512.5" cy="198.0" r="3" fill="#3fb950"/><circle cx="516.2" cy="198.0" r="3" fill="#3fb950"/><circle cx="519.9" cy="198.0" r="3" fill="#3fb950"/><circle cx="523.6" cy="198.0" r="3" fill="#3fb950"/><circle cx="527.3" cy="198.0" r="3" fill="#3fb950"/><circle cx="531.0" cy="198.0" r="3" fill="#3fb950"/><circle cx="534.7" cy="198.0" r="3" fill="#3fb950"/><circle cx="538.4" cy="198.0" r="3" fill="#3fb950"/><circle cx="542.1" cy="198.0" r="3" fill="#3fb950"/><circle cx="545.8" cy="198.0" r="3" fill="#3fb950"/><circle cx="549.5" cy="198.0" r="3" fill="#3fb950"/><circle cx="553.2" cy="198.0" r="3" fill="#3fb950"/><circle cx="556.9" cy="198.0" r="3" fill="#3fb950"/><circle cx="560.6" cy="198.0" r="3" fill="#3fb950"/><circle cx="564.3" cy="198.0" r="3" fill="#3fb950"/><circle cx="568.0" cy="198.0" r="3" fill="#3fb950"/><circle cx="571.6" cy="198.0" r="3" fill="#3fb950"/><circle cx="575.3" cy="198.0" r="3" fill="#3fb950"/><circle cx="579.0" cy="198.0" r="3" fill="#3fb950"/><circle cx="582.7" cy="198.0" r="3" fill="#3fb950"/><circle cx="586.4" cy="198.0" r="3" fill="#3fb950"/><circle cx="590.1" cy="198.0" r="3" fill="#3fb950"/><circle cx="593.8" cy="198.0" r="3" fill="#3fb950"/><circle cx="597.5" cy="198.0" r="3" fill="#3fb950"/><circle cx="601.2" cy="198.0" r="3" fill="#3fb950"/><circle cx="604.9" cy="198.0" r="3" fill="#3fb950"/><circle cx="608.6" cy="198.0" r="3" fill="#3fb950"/><circle cx="612.3" cy="198.0" r="3" fill="#3fb950"/><circle cx="616.0" cy="198.0" r="3" fill="#3fb950"/><circle cx="619.7" cy="198.0" r="3" fill="#3fb950"/><circle cx="623.4" cy="198.0" r="3" fill="#3fb950"/><circle cx="627.1" cy="198.0" r="3" fill="#3fb950"/><circle cx="630.8" cy="198.0" r="3" fill="#3fb950"/><circle cx="634.4" cy="198.0" r="3" fill="#3fb950"/><circle cx="638.1" cy="198.0" r="3" fill="#3fb950"/><circle cx="641.8" cy="198.0" r="3" fill="#3fb950"/><circle cx="645.5" cy="198.0" r="3" fill="#3fb950"/><circle cx="649.2" cy="198.0" r="3" fill="#3fb950"/><circle cx="652.9" cy="198.0" r="3" fill="#3fb950"/><circle cx="656.6" cy="198.0" r="3" fill="#3fb950"/><circle cx="660.3" cy="198.0" r="3" fill="#3fb950"/><circle cx="664.0" cy="198.0" r="3" fill="#3fb950"/>
<polyline fill="none" stroke="#4aa3ff" stroke-width="2.5" stroke-linejoin="round" points="36.0,144.3 39.7,144.3 43.4,144.3 47.1,144.3 50.8,144.3 54.5,144.3 58.2,144.3 61.9,144.3 65.6,144.3 69.2,144.3 72.9,144.3 76.6,144.3 80.3,144.3 84.0,144.3 87.7,144.3 91.4,136.2 95.1,132.4 98.8,129.6 102.5,129.6 106.2,121.0 109.9,121.0 113.6,121.0 117.3,114.4 121.0,114.4 124.7,114.4 128.4,111.3 132.0,110.9 135.7,110.9 139.4,110.5 143.1,110.5 146.8,109.9 150.5,108.7 154.2,107.3 157.9,106.9 161.6,106.9 165.3,106.9 169.0,106.9 172.7,106.9 176.4,106.9 180.1,106.9 183.8,106.9 187.5,106.9 191.2,106.9 194.8,113.2 198.5,113.2 202.2,113.2 205.9,113.2 209.6,113.2 213.3,110.7 217.0,105.3 220.7,83.4 224.4,83.4 228.1,85.6 231.8,85.6 235.5,85.6 239.2,85.6 242.9,85.6 246.6,85.8 250.3,85.8 254.0,85.8 257.6,86.0 261.3,86.0 265.0,86.0 268.7,86.0 272.4,86.0 276.1,86.0 279.8,86.0 283.5,86.0 287.2,86.0 290.9,86.0 294.6,86.0 298.3,86.0 302.0,86.0 305.7,86.0 309.4,86.0 313.1,86.0 316.8,86.0 320.4,86.0 324.1,86.0 327.8,86.0 331.5,86.0 335.2,87.0 338.9,87.0 342.6,87.0 346.3,73.7 350.0,73.7 353.7,71.0 357.4,71.0 361.1,70.8 364.8,70.6 368.5,70.6 372.2,70.4 375.9,68.6 379.6,60.5 383.2,59.3 386.9,52.0 390.6,47.3 394.3,40.1 398.0,36.0 401.7,36.0 405.4,36.0 409.1,36.0 412.8,36.0 416.5,36.0 420.2,36.0 423.9,36.0 427.6,36.0 431.3,36.0 435.0,36.0 438.7,36.0 442.4,36.0 446.0,36.0 449.7,36.0 453.4,36.0 457.1,36.0 460.8,36.0 464.5,36.0 468.2,36.0 471.9,36.0 475.6,36.0 479.3,36.0 483.0,36.0 486.7,36.0 490.4,36.0 494.1,36.0 497.8,36.0 501.5,36.0 505.2,36.0 508.8,36.0 512.5,36.0 516.2,36.0 519.9,36.0 523.6,36.0 527.3,36.0 531.0,36.0 534.7,36.0 538.4,36.0 542.1,36.0 545.8,36.0 549.5,36.0 553.2,36.0 556.9,36.0 560.6,36.0 564.3,36.0 568.0,36.0 571.6,36.0 575.3,36.0 579.0,36.0 582.7,36.0 586.4,36.0 590.1,36.0 593.8,36.0 597.5,36.0 601.2,36.0 604.9,36.0 608.6,36.0 612.3,36.0 616.0,36.0 619.7,36.0 623.4,36.0 627.1,36.0 630.8,36.0 634.4,36.0 638.1,36.0 641.8,36.0 645.5,36.0 649.2,36.0 652.9,36.0 656.6,36.0 660.3,36.0 664.0,36.0"/><circle cx="36.0" cy="144.3" r="3" fill="#4aa3ff"/><circle cx="39.7" cy="144.3" r="3" fill="#4aa3ff"/><circle cx="43.4" cy="144.3" r="3" fill="#4aa3ff"/><circle cx="47.1" cy="144.3" r="3" fill="#4aa3ff"/><circle cx="50.8" cy="144.3" r="3" fill="#4aa3ff"/><circle cx="54.5" cy="144.3" r="3" fill="#4aa3ff"/><circle cx="58.2" cy="144.3" r="3" fill="#4aa3ff"/><circle cx="61.9" cy="144.3" r="3" fill="#4aa3ff"/><circle cx="65.6" cy="144.3" r="3" fill="#4aa3ff"/><circle cx="69.2" cy="144.3" r="3" fill="#4aa3ff"/><circle cx="72.9" cy="144.3" r="3" fill="#4aa3ff"/><circle cx="76.6" cy="144.3" r="3" fill="#4aa3ff"/><circle cx="80.3" cy="144.3" r="3" fill="#4aa3ff"/><circle cx="84.0" cy="144.3" r="3" fill="#4aa3ff"/><circle cx="87.7" cy="144.3" r="3" fill="#4aa3ff"/><circle cx="91.4" cy="136.2" r="3" fill="#4aa3ff"/><circle cx="95.1" cy="132.4" r="3" fill="#4aa3ff"/><circle cx="98.8" cy="129.6" r="3" fill="#4aa3ff"/><circle cx="102.5" cy="129.6" r="3" fill="#4aa3ff"/><circle cx="106.2" cy="121.0" r="3" fill="#4aa3ff"/><circle cx="109.9" cy="121.0" r="3" fill="#4aa3ff"/><circle cx="113.6" cy="121.0" r="3" fill="#4aa3ff"/><circle cx="117.3" cy="114.4" r="3" fill="#4aa3ff"/><circle cx="121.0" cy="114.4" r="3" fill="#4aa3ff"/><circle cx="124.7" cy="114.4" r="3" fill="#4aa3ff"/><circle cx="128.4" cy="111.3" r="3" fill="#4aa3ff"/><circle cx="132.0" cy="110.9" r="3" fill="#4aa3ff"/><circle cx="135.7" cy="110.9" r="3" fill="#4aa3ff"/><circle cx="139.4" cy="110.5" r="3" fill="#4aa3ff"/><circle cx="143.1" cy="110.5" r="3" fill="#4aa3ff"/><circle cx="146.8" cy="109.9" r="3" fill="#4aa3ff"/><circle cx="150.5" cy="108.7" r="3" fill="#4aa3ff"/><circle cx="154.2" cy="107.3" r="3" fill="#4aa3ff"/><circle cx="157.9" cy="106.9" r="3" fill="#4aa3ff"/><circle cx="161.6" cy="106.9" r="3" fill="#4aa3ff"/><circle cx="165.3" cy="106.9" r="3" fill="#4aa3ff"/><circle cx="169.0" cy="106.9" r="3" fill="#4aa3ff"/><circle cx="172.7" cy="106.9" r="3" fill="#4aa3ff"/><circle cx="176.4" cy="106.9" r="3" fill="#4aa3ff"/><circle cx="180.1" cy="106.9" r="3" fill="#4aa3ff"/><circle cx="183.8" cy="106.9" r="3" fill="#4aa3ff"/><circle cx="187.5" cy="106.9" r="3" fill="#4aa3ff"/><circle cx="191.2" cy="106.9" r="3" fill="#4aa3ff"/><circle cx="194.8" cy="113.2" r="3" fill="#4aa3ff"/><circle cx="198.5" cy="113.2" r="3" fill="#4aa3ff"/><circle cx="202.2" cy="113.2" r="3" fill="#4aa3ff"/><circle cx="205.9" cy="113.2" r="3" fill="#4aa3ff"/><circle cx="209.6" cy="113.2" r="3" fill="#4aa3ff"/><circle cx="213.3" cy="110.7" r="3" fill="#4aa3ff"/><circle cx="217.0" cy="105.3" r="3" fill="#4aa3ff"/><circle cx="220.7" cy="83.4" r="3" fill="#4aa3ff"/><circle cx="224.4" cy="83.4" r="3" fill="#4aa3ff"/><circle cx="228.1" cy="85.6" r="3" fill="#4aa3ff"/><circle cx="231.8" cy="85.6" r="3" fill="#4aa3ff"/><circle cx="235.5" cy="85.6" r="3" fill="#4aa3ff"/><circle cx="239.2" cy="85.6" r="3" fill="#4aa3ff"/><circle cx="242.9" cy="85.6" r="3" fill="#4aa3ff"/><circle cx="246.6" cy="85.8" r="3" fill="#4aa3ff"/><circle cx="250.3" cy="85.8" r="3" fill="#4aa3ff"/><circle cx="254.0" cy="85.8" r="3" fill="#4aa3ff"/><circle cx="257.6" cy="86.0" r="3" fill="#4aa3ff"/><circle cx="261.3" cy="86.0" r="3" fill="#4aa3ff"/><circle cx="265.0" cy="86.0" r="3" fill="#4aa3ff"/><circle cx="268.7" cy="86.0" r="3" fill="#4aa3ff"/><circle cx="272.4" cy="86.0" r="3" fill="#4aa3ff"/><circle cx="276.1" cy="86.0" r="3" fill="#4aa3ff"/><circle cx="279.8" cy="86.0" r="3" fill="#4aa3ff"/><circle cx="283.5" cy="86.0" r="3" fill="#4aa3ff"/><circle cx="287.2" cy="86.0" r="3" fill="#4aa3ff"/><circle cx="290.9" cy="86.0" r="3" fill="#4aa3ff"/><circle cx="294.6" cy="86.0" r="3" fill="#4aa3ff"/><circle cx="298.3" cy="86.0" r="3" fill="#4aa3ff"/><circle cx="302.0" cy="86.0" r="3" fill="#4aa3ff"/><circle cx="305.7" cy="86.0" r="3" fill="#4aa3ff"/><circle cx="309.4" cy="86.0" r="3" fill="#4aa3ff"/><circle cx="313.1" cy="86.0" r="3" fill="#4aa3ff"/><circle cx="316.8" cy="86.0" r="3" fill="#4aa3ff"/><circle cx="320.4" cy="86.0" r="3" fill="#4aa3ff"/><circle cx="324.1" cy="86.0" r="3" fill="#4aa3ff"/><circle cx="327.8" cy="86.0" r="3" fill="#4aa3ff"/><circle cx="331.5" cy="86.0" r="3" fill="#4aa3ff"/><circle cx="335.2" cy="87.0" r="3" fill="#4aa3ff"/><circle cx="338.9" cy="87.0" r="3" fill="#4aa3ff"/><circle cx="342.6" cy="87.0" r="3" fill="#4aa3ff"/><circle cx="346.3" cy="73.7" r="3" fill="#4aa3ff"/><circle cx="350.0" cy="73.7" r="3" fill="#4aa3ff"/><circle cx="353.7" cy="71.0" r="3" fill="#4aa3ff"/><circle cx="357.4" cy="71.0" r="3" fill="#4aa3ff"/><circle cx="361.1" cy="70.8" r="3" fill="#4aa3ff"/><circle cx="364.8" cy="70.6" r="3" fill="#4aa3ff"/><circle cx="368.5" cy="70.6" r="3" fill="#4aa3ff"/><circle cx="372.2" cy="70.4" r="3" fill="#4aa3ff"/><circle cx="375.9" cy="68.6" r="3" fill="#4aa3ff"/><circle cx="379.6" cy="60.5" r="3" fill="#4aa3ff"/><circle cx="383.2" cy="59.3" r="3" fill="#4aa3ff"/><circle cx="386.9" cy="52.0" r="3" fill="#4aa3ff"/><circle cx="390.6" cy="47.3" r="3" fill="#4aa3ff"/><circle cx="394.3" cy="40.1" r="3" fill="#4aa3ff"/><circle cx="398.0" cy="36.0" r="3" fill="#4aa3ff"/><circle cx="401.7" cy="36.0" r="3" fill="#4aa3ff"/><circle cx="405.4" cy="36.0" r="3" fill="#4aa3ff"/><circle cx="409.1" cy="36.0" r="3" fill="#4aa3ff"/><circle cx="412.8" cy="36.0" r="3" fill="#4aa3ff"/><circle cx="416.5" cy="36.0" r="3" fill="#4aa3ff"/><circle cx="420.2" cy="36.0" r="3" fill="#4aa3ff"/><circle cx="423.9" cy="36.0" r="3" fill="#4aa3ff"/><circle cx="427.6" cy="36.0" r="3" fill="#4aa3ff"/><circle cx="431.3" cy="36.0" r="3" fill="#4aa3ff"/><circle cx="435.0" cy="36.0" r="3" fill="#4aa3ff"/><circle cx="438.7" cy="36.0" r="3" fill="#4aa3ff"/><circle cx="442.4" cy="36.0" r="3" fill="#4aa3ff"/><circle cx="446.0" cy="36.0" r="3" fill="#4aa3ff"/><circle cx="449.7" cy="36.0" r="3" fill="#4aa3ff"/><circle cx="453.4" cy="36.0" r="3" fill="#4aa3ff"/><circle cx="457.1" cy="36.0" r="3" fill="#4aa3ff"/><circle cx="460.8" cy="36.0" r="3" fill="#4aa3ff"/><circle cx="464.5" cy="36.0" r="3" fill="#4aa3ff"/><circle cx="468.2" cy="36.0" r="3" fill="#4aa3ff"/><circle cx="471.9" cy="36.0" r="3" fill="#4aa3ff"/><circle cx="475.6" cy="36.0" r="3" fill="#4aa3ff"/><circle cx="479.3" cy="36.0" r="3" fill="#4aa3ff"/><circle cx="483.0" cy="36.0" r="3" fill="#4aa3ff"/><circle cx="486.7" cy="36.0" r="3" fill="#4aa3ff"/><circle cx="490.4" cy="36.0" r="3" fill="#4aa3ff"/><circle cx="494.1" cy="36.0" r="3" fill="#4aa3ff"/><circle cx="497.8" cy="36.0" r="3" fill="#4aa3ff"/><circle cx="501.5" cy="36.0" r="3" fill="#4aa3ff"/><circle cx="505.2" cy="36.0" r="3" fill="#4aa3ff"/><circle cx="508.8" cy="36.0" r="3" fill="#4aa3ff"/><circle cx="512.5" cy="36.0" r="3" fill="#4aa3ff"/><circle cx="516.2" cy="36.0" r="3" fill="#4aa3ff"/><circle cx="519.9" cy="36.0" r="3" fill="#4aa3ff"/><circle cx="523.6" cy="36.0" r="3" fill="#4aa3ff"/><circle cx="527.3" cy="36.0" r="3" fill="#4aa3ff"/><circle cx="531.0" cy="36.0" r="3" fill="#4aa3ff"/><circle cx="534.7" cy="36.0" r="3" fill="#4aa3ff"/><circle cx="538.4" cy="36.0" r="3" fill="#4aa3ff"/><circle cx="542.1" cy="36.0" r="3" fill="#4aa3ff"/><circle cx="545.8" cy="36.0" r="3" fill="#4aa3ff"/><circle cx="549.5" cy="36.0" r="3" fill="#4aa3ff"/><circle cx="553.2" cy="36.0" r="3" fill="#4aa3ff"/><circle cx="556.9" cy="36.0" r="3" fill="#4aa3ff"/><circle cx="560.6" cy="36.0" r="3" fill="#4aa3ff"/><circle cx="564.3" cy="36.0" r="3" fill="#4aa3ff"/><circle cx="568.0" cy="36.0" r="3" fill="#4aa3ff"/><circle cx="571.6" cy="36.0" r="3" fill="#4aa3ff"/><circle cx="575.3" cy="36.0" r="3" fill="#4aa3ff"/><circle cx="579.0" cy="36.0" r="3" fill="#4aa3ff"/><circle cx="582.7" cy="36.0" r="3" fill="#4aa3ff"/><circle cx="586.4" cy="36.0" r="3" fill="#4aa3ff"/><circle cx="590.1" cy="36.0" r="3" fill="#4aa3ff"/><circle cx="593.8" cy="36.0" r="3" fill="#4aa3ff"/><circle cx="597.5" cy="36.0" r="3" fill="#4aa3ff"/><circle cx="601.2" cy="36.0" r="3" fill="#4aa3ff"/><circle cx="604.9" cy="36.0" r="3" fill="#4aa3ff"/><circle cx="608.6" cy="36.0" r="3" fill="#4aa3ff"/><circle cx="612.3" cy="36.0" r="3" fill="#4aa3ff"/><circle cx="616.0" cy="36.0" r="3" fill="#4aa3ff"/><circle cx="619.7" cy="36.0" r="3" fill="#4aa3ff"/><circle cx="623.4" cy="36.0" r="3" fill="#4aa3ff"/><circle cx="627.1" cy="36.0" r="3" fill="#4aa3ff"/><circle cx="630.8" cy="36.0" r="3" fill="#4aa3ff"/><circle cx="634.4" cy="36.0" r="3" fill="#4aa3ff"/><circle cx="638.1" cy="36.0" r="3" fill="#4aa3ff"/><circle cx="641.8" cy="36.0" r="3" fill="#4aa3ff"/><circle cx="645.5" cy="36.0" r="3" fill="#4aa3ff"/><circle cx="649.2" cy="36.0" r="3" fill="#4aa3ff"/><circle cx="652.9" cy="36.0" r="3" fill="#4aa3ff"/><circle cx="656.6" cy="36.0" r="3" fill="#4aa3ff"/><circle cx="660.3" cy="36.0" r="3" fill="#4aa3ff"/><circle cx="664.0" cy="36.0" r="3" fill="#4aa3ff"/>
<text x="36" y="225" fill="#6b7280" font-size="11">2026-06-26</text>
<text x="664" y="225" fill="#6b7280" font-size="11" text-anchor="end">2026-07-14</text>
<text x="36" y="212" font-family="system-ui,sans-serif" font-size="11">
<tspan fill="#4aa3ff">&#9679; open FPs</tspan>  <tspan fill="#3fb950">&#9679; closed (Anthropic acting)</tspan>  <tspan fill="#8a5a5a">&#9679; harness withdrawn</tspan></text>
<text x="664" y="22" text-anchor="end" font-family="system-ui,sans-serif" font-size="12">
<tspan fill="#4aa3ff">open 800</tspan>  <tspan fill="#3fb950">closed 0</tspan>  <tspan fill="#8a5a5a">harness 0</tspan></text>
</svg>