<svg xmlns="http://www.w3.org/2000/svg" width="700" height="234" viewBox="0 0 700 234" role="img">
<rect width="700" height="234" rx="12" fill="#16181d"/>
<text x="36" y="22" fill="#e8eaed" font-family="system-ui,sans-serif" font-size="14" font-weight="700">Is Anthropic acting? cyber/aup false positives over time</text>
<line x1="36" y1="198.0" x2="664" y2="198.0" stroke="#2a2e37" stroke-width="1"/><text x="30" y="202.0" fill="#6b7280" font-size="11" text-anchor="end">0</text><line x1="36" y1="117.0" x2="664" y2="117.0" stroke="#2a2e37" stroke-width="1"/><text x="30" y="121.0" fill="#6b7280" font-size="11" text-anchor="end">400</text><line x1="36" y1="36.0" x2="664" y2="36.0" stroke="#2a2e37" stroke-width="1"/><text x="30" y="40.0" fill="#6b7280" font-size="11" text-anchor="end">800</text>

<polyline fill="none" stroke="#8a5a5a" stroke-width="2.5" stroke-linejoin="round" points="36.0,145.1 39.0,145.1 42.0,145.1 45.1,145.1 48.1,145.1 51.1,145.1 54.1,145.1 57.1,145.1 60.2,145.1 63.2,145.1 66.2,145.1 69.2,145.1 72.2,145.1 75.2,145.1 78.3,145.1 81.3,145.1 84.3,145.1 87.3,145.1 90.3,145.1 93.4,145.1 96.4,145.1 99.4,145.1 102.4,145.1 105.4,145.1 108.5,145.1 111.5,145.1 114.5,145.1 117.5,145.1 120.5,145.1 123.6,145.1 126.6,145.1 129.6,145.1 132.6,145.1 135.6,145.1 138.7,145.1 141.7,145.1 144.7,145.1 147.7,145.1 150.7,145.1 153.8,145.1 156.8,145.1 159.8,145.1 162.8,145.1 165.8,145.1 168.8,145.1 171.9,145.1 174.9,145.1 177.9,145.1 180.9,145.1 183.9,145.1 187.0,155.7 190.0,155.7 193.0,155.7 196.0,155.7 199.0,155.7 202.1,155.7 205.1,155.7 208.1,155.7 211.1,155.7 214.1,155.7 217.2,155.7 220.2,155.7 223.2,155.7 226.2,155.7 229.2,155.7 232.2,155.7 235.3,155.7 238.3,155.7 241.3,155.7 244.3,155.7 247.3,155.7 250.4,155.7 253.4,155.7 256.4,155.7 259.4,155.7 262.4,155.7 265.5,155.7 268.5,155.7 271.5,155.7 274.5,155.7 277.5,155.7 280.6,155.7 283.6,155.7 286.6,155.7 289.6,167.6 292.6,167.6 295.7,170.3 298.7,170.3 301.7,170.5 304.7,170.7 307.7,170.7 310.8,170.9 313.8,172.7 316.8,180.6 319.8,181.8 322.8,189.1 325.8,190.5 328.9,195.2 331.9,198.0 334.9,198.0 337.9,198.0 340.9,198.0 344.0,198.0 347.0,198.0 350.0,198.0 353.0,198.0 356.0,198.0 359.1,198.0 362.1,198.0 365.1,198.0 368.1,198.0 371.1,198.0 374.2,198.0 377.2,198.0 380.2,198.0 383.2,198.0 386.2,198.0 389.2,198.0 392.3,198.0 395.3,198.0 398.3,198.0 401.3,198.0 404.3,198.0 407.4,198.0 410.4,198.0 413.4,198.0 416.4,198.0 419.4,198.0 422.5,198.0 425.5,198.0 428.5,198.0 431.5,198.0 434.5,198.0 437.6,198.0 440.6,198.0 443.6,198.0 446.6,198.0 449.6,198.0 452.7,198.0 455.7,198.0 458.7,198.0 461.7,198.0 464.7,198.0 467.8,198.0 470.8,198.0 473.8,198.0 476.8,198.0 479.8,198.0 482.8,198.0 485.9,198.0 488.9,198.0 491.9,198.0 494.9,198.0 497.9,198.0 501.0,198.0 504.0,198.0 507.0,198.0 510.0,198.0 513.0,198.0 516.1,198.0 519.1,198.0 522.1,198.0 525.1,198.0 528.1,198.0 531.2,198.0 534.2,198.0 537.2,198.0 540.2,198.0 543.2,198.0 546.2,198.0 549.3,198.0 552.3,198.0 555.3,198.0 558.3,198.0 561.3,198.0 564.4,198.0 567.4,198.0 570.4,198.0 573.4,198.0 576.4,198.0 579.5,198.0 582.5,198.0 585.5,198.0 588.5,198.0 591.5,198.0 594.6,198.0 597.6,198.0 600.6,198.0 603.6,198.0 606.6,198.0 609.7,198.0 612.7,198.0 615.7,198.0 618.7,198.0 621.7,198.0 624.8,198.0 627.8,198.0 630.8,198.0 633.8,198.0 636.8,198.0 639.8,198.0 642.9,198.0 645.9,198.0 648.9,198.0 651.9,198.0 654.9,198.0 658.0,198.0 661.0,198.0 664.0,198.0"/><circle cx="36.0" cy="145.1" r="3" fill="#8a5a5a"/><circle cx="39.0" cy="145.1" r="3" fill="#8a5a5a"/><circle cx="42.0" cy="145.1" r="3" fill="#8a5a5a"/><circle cx="45.1" cy="145.1" r="3" fill="#8a5a5a"/><circle cx="48.1" cy="145.1" r="3" fill="#8a5a5a"/><circle cx="51.1" cy="145.1" r="3" fill="#8a5a5a"/><circle cx="54.1" cy="145.1" r="3" fill="#8a5a5a"/><circle cx="57.1" cy="145.1" r="3" fill="#8a5a5a"/><circle cx="60.2" cy="145.1" r="3" fill="#8a5a5a"/><circle cx="63.2" cy="145.1" r="3" fill="#8a5a5a"/><circle cx="66.2" cy="145.1" r="3" fill="#8a5a5a"/><circle cx="69.2" cy="145.1" r="3" fill="#8a5a5a"/><circle cx="72.2" cy="145.1" r="3" fill="#8a5a5a"/><circle cx="75.2" cy="145.1" r="3" fill="#8a5a5a"/><circle cx="78.3" cy="145.1" r="3" fill="#8a5a5a"/><circle cx="81.3" cy="145.1" r="3" fill="#8a5a5a"/><circle cx="84.3" cy="145.1" r="3" fill="#8a5a5a"/><circle cx="87.3" cy="145.1" r="3" fill="#8a5a5a"/><circle cx="90.3" cy="145.1" r="3" fill="#8a5a5a"/><circle cx="93.4" cy="145.1" r="3" fill="#8a5a5a"/><circle cx="96.4" cy="145.1" r="3" fill="#8a5a5a"/><circle cx="99.4" cy="145.1" r="3" fill="#8a5a5a"/><circle cx="102.4" cy="145.1" r="3" fill="#8a5a5a"/><circle cx="105.4" cy="145.1" r="3" fill="#8a5a5a"/><circle cx="108.5" cy="145.1" r="3" fill="#8a5a5a"/><circle cx="111.5" cy="145.1" r="3" fill="#8a5a5a"/><circle cx="114.5" cy="145.1" r="3" fill="#8a5a5a"/><circle cx="117.5" cy="145.1" r="3" fill="#8a5a5a"/><circle cx="120.5" cy="145.1" r="3" fill="#8a5a5a"/><circle cx="123.6" cy="145.1" r="3" fill="#8a5a5a"/><circle cx="126.6" cy="145.1" r="3" fill="#8a5a5a"/><circle cx="129.6" cy="145.1" r="3" fill="#8a5a5a"/><circle cx="132.6" cy="145.1" r="3" fill="#8a5a5a"/><circle cx="135.6" cy="145.1" r="3" fill="#8a5a5a"/><circle cx="138.7" cy="145.1" r="3" fill="#8a5a5a"/><circle cx="141.7" cy="145.1" r="3" fill="#8a5a5a"/><circle cx="144.7" cy="145.1" r="3" fill="#8a5a5a"/><circle cx="147.7" cy="145.1" r="3" fill="#8a5a5a"/><circle cx="150.7" cy="145.1" r="3" fill="#8a5a5a"/><circle cx="153.8" cy="145.1" r="3" fill="#8a5a5a"/><circle cx="156.8" cy="145.1" r="3" fill="#8a5a5a"/><circle cx="159.8" cy="145.1" r="3" fill="#8a5a5a"/><circle cx="162.8" cy="145.1" r="3" fill="#8a5a5a"/><circle cx="165.8" cy="145.1" r="3" fill="#8a5a5a"/><circle cx="168.8" cy="145.1" r="3" fill="#8a5a5a"/><circle cx="171.9" cy="145.1" r="3" fill="#8a5a5a"/><circle cx="174.9" cy="145.1" r="3" fill="#8a5a5a"/><circle cx="177.9" cy="145.1" r="3" fill="#8a5a5a"/><circle cx="180.9" cy="145.1" r="3" fill="#8a5a5a"/><circle cx="183.9" cy="145.1" r="3" fill="#8a5a5a"/><circle cx="187.0" cy="155.7" r="3" fill="#8a5a5a"/><circle cx="190.0" cy="155.7" r="3" fill="#8a5a5a"/><circle cx="193.0" cy="155.7" r="3" fill="#8a5a5a"/><circle cx="196.0" cy="155.7" r="3" fill="#8a5a5a"/><circle cx="199.0" cy="155.7" r="3" fill="#8a5a5a"/><circle cx="202.1" cy="155.7" r="3" fill="#8a5a5a"/><circle cx="205.1" cy="155.7" r="3" fill="#8a5a5a"/><circle cx="208.1" cy="155.7" r="3" fill="#8a5a5a"/><circle cx="211.1" cy="155.7" r="3" fill="#8a5a5a"/><circle cx="214.1" cy="155.7" r="3" fill="#8a5a5a"/><circle cx="217.2" cy="155.7" r="3" fill="#8a5a5a"/><circle cx="220.2" cy="155.7" r="3" fill="#8a5a5a"/><circle cx="223.2" cy="155.7" r="3" fill="#8a5a5a"/><circle cx="226.2" cy="155.7" r="3" fill="#8a5a5a"/><circle cx="229.2" cy="155.7" r="3" fill="#8a5a5a"/><circle cx="232.2" cy="155.7" r="3" fill="#8a5a5a"/><circle cx="235.3" cy="155.7" r="3" fill="#8a5a5a"/><circle cx="238.3" cy="155.7" r="3" fill="#8a5a5a"/><circle cx="241.3" cy="155.7" r="3" fill="#8a5a5a"/><circle cx="244.3" cy="155.7" r="3" fill="#8a5a5a"/><circle cx="247.3" cy="155.7" r="3" fill="#8a5a5a"/><circle cx="250.4" cy="155.7" r="3" fill="#8a5a5a"/><circle cx="253.4" cy="155.7" r="3" fill="#8a5a5a"/><circle cx="256.4" cy="155.7" r="3" fill="#8a5a5a"/><circle cx="259.4" cy="155.7" r="3" fill="#8a5a5a"/><circle cx="262.4" cy="155.7" r="3" fill="#8a5a5a"/><circle cx="265.5" cy="155.7" r="3" fill="#8a5a5a"/><circle cx="268.5" cy="155.7" r="3" fill="#8a5a5a"/><circle cx="271.5" cy="155.7" r="3" fill="#8a5a5a"/><circle cx="274.5" cy="155.7" r="3" fill="#8a5a5a"/><circle cx="277.5" cy="155.7" r="3" fill="#8a5a5a"/><circle cx="280.6" cy="155.7" r="3" fill="#8a5a5a"/><circle cx="283.6" cy="155.7" r="3" fill="#8a5a5a"/><circle cx="286.6" cy="155.7" r="3" fill="#8a5a5a"/><circle cx="289.6" cy="167.6" r="3" fill="#8a5a5a"/><circle cx="292.6" cy="167.6" r="3" fill="#8a5a5a"/><circle cx="295.7" cy="170.3" r="3" fill="#8a5a5a"/><circle cx="298.7" cy="170.3" r="3" fill="#8a5a5a"/><circle cx="301.7" cy="170.5" r="3" fill="#8a5a5a"/><circle cx="304.7" cy="170.7" r="3" fill="#8a5a5a"/><circle cx="307.7" cy="170.7" r="3" fill="#8a5a5a"/><circle cx="310.8" cy="170.9" r="3" fill="#8a5a5a"/><circle cx="313.8" cy="172.7" r="3" fill="#8a5a5a"/><circle cx="316.8" cy="180.6" r="3" fill="#8a5a5a"/><circle cx="319.8" cy="181.8" r="3" fill="#8a5a5a"/><circle cx="322.8" cy="189.1" r="3" fill="#8a5a5a"/><circle cx="325.8" cy="190.5" r="3" fill="#8a5a5a"/><circle cx="328.9" cy="195.2" r="3" fill="#8a5a5a"/><circle cx="331.9" cy="198.0" r="3" fill="#8a5a5a"/><circle cx="334.9" cy="198.0" r="3" fill="#8a5a5a"/><circle cx="337.9" cy="198.0" r="3" fill="#8a5a5a"/><circle cx="340.9" cy="198.0" r="3" fill="#8a5a5a"/><circle cx="344.0" cy="198.0" r="3" fill="#8a5a5a"/><circle cx="347.0" cy="198.0" r="3" fill="#8a5a5a"/><circle cx="350.0" cy="198.0" r="3" fill="#8a5a5a"/><circle cx="353.0" cy="198.0" r="3" fill="#8a5a5a"/><circle cx="356.0" cy="198.0" r="3" fill="#8a5a5a"/><circle cx="359.1" cy="198.0" r="3" fill="#8a5a5a"/><circle cx="362.1" cy="198.0" r="3" fill="#8a5a5a"/><circle cx="365.1" cy="198.0" r="3" fill="#8a5a5a"/><circle cx="368.1" cy="198.0" r="3" fill="#8a5a5a"/><circle cx="371.1" cy="198.0" r="3" fill="#8a5a5a"/><circle cx="374.2" cy="198.0" r="3" fill="#8a5a5a"/><circle cx="377.2" cy="198.0" r="3" fill="#8a5a5a"/><circle cx="380.2" cy="198.0" r="3" fill="#8a5a5a"/><circle cx="383.2" cy="198.0" r="3" fill="#8a5a5a"/><circle cx="386.2" cy="198.0" r="3" fill="#8a5a5a"/><circle cx="389.2" cy="198.0" r="3" fill="#8a5a5a"/><circle cx="392.3" cy="198.0" r="3" fill="#8a5a5a"/><circle cx="395.3" cy="198.0" r="3" fill="#8a5a5a"/><circle cx="398.3" cy="198.0" r="3" fill="#8a5a5a"/><circle cx="401.3" cy="198.0" r="3" fill="#8a5a5a"/><circle cx="404.3" cy="198.0" r="3" fill="#8a5a5a"/><circle cx="407.4" cy="198.0" r="3" fill="#8a5a5a"/><circle cx="410.4" cy="198.0" r="3" fill="#8a5a5a"/><circle cx="413.4" cy="198.0" r="3" fill="#8a5a5a"/><circle cx="416.4" cy="198.0" r="3" fill="#8a5a5a"/><circle cx="419.4" cy="198.0" r="3" fill="#8a5a5a"/><circle cx="422.5" cy="198.0" r="3" fill="#8a5a5a"/><circle cx="425.5" cy="198.0" r="3" fill="#8a5a5a"/><circle cx="428.5" cy="198.0" r="3" fill="#8a5a5a"/><circle cx="431.5" cy="198.0" r="3" fill="#8a5a5a"/><circle cx="434.5" cy="198.0" r="3" fill="#8a5a5a"/><circle cx="437.6" cy="198.0" r="3" fill="#8a5a5a"/><circle cx="440.6" cy="198.0" r="3" fill="#8a5a5a"/><circle cx="443.6" cy="198.0" r="3" fill="#8a5a5a"/><circle cx="446.6" cy="198.0" r="3" fill="#8a5a5a"/><circle cx="449.6" cy="198.0" r="3" fill="#8a5a5a"/><circle cx="452.7" cy="198.0" r="3" fill="#8a5a5a"/><circle cx="455.7" cy="198.0" r="3" fill="#8a5a5a"/><circle cx="458.7" cy="198.0" r="3" fill="#8a5a5a"/><circle cx="461.7" cy="198.0" r="3" fill="#8a5a5a"/><circle cx="464.7" cy="198.0" r="3" fill="#8a5a5a"/><circle cx="467.8" cy="198.0" r="3" fill="#8a5a5a"/><circle cx="470.8" cy="198.0" r="3" fill="#8a5a5a"/><circle cx="473.8" cy="198.0" r="3" fill="#8a5a5a"/><circle cx="476.8" cy="198.0" r="3" fill="#8a5a5a"/><circle cx="479.8" cy="198.0" r="3" fill="#8a5a5a"/><circle cx="482.8" cy="198.0" r="3" fill="#8a5a5a"/><circle cx="485.9" cy="198.0" r="3" fill="#8a5a5a"/><circle cx="488.9" cy="198.0" r="3" fill="#8a5a5a"/><circle cx="491.9" cy="198.0" r="3" fill="#8a5a5a"/><circle cx="494.9" cy="198.0" r="3" fill="#8a5a5a"/><circle cx="497.9" cy="198.0" r="3" fill="#8a5a5a"/><circle cx="501.0" cy="198.0" r="3" fill="#8a5a5a"/><circle cx="504.0" cy="198.0" r="3" fill="#8a5a5a"/><circle cx="507.0" cy="198.0" r="3" fill="#8a5a5a"/><circle cx="510.0" cy="198.0" r="3" fill="#8a5a5a"/><circle cx="513.0" cy="198.0" r="3" fill="#8a5a5a"/><circle cx="516.1" cy="198.0" r="3" fill="#8a5a5a"/><circle cx="519.1" cy="198.0" r="3" fill="#8a5a5a"/><circle cx="522.1" cy="198.0" r="3" fill="#8a5a5a"/><circle cx="525.1" cy="198.0" r="3" fill="#8a5a5a"/><circle cx="528.1" cy="198.0" r="3" fill="#8a5a5a"/><circle cx="531.2" cy="198.0" r="3" fill="#8a5a5a"/><circle cx="534.2" cy="198.0" r="3" fill="#8a5a5a"/><circle cx="537.2" cy="198.0" r="3" fill="#8a5a5a"/><circle cx="540.2" cy="198.0" r="3" fill="#8a5a5a"/><circle cx="543.2" cy="198.0" r="3" fill="#8a5a5a"/><circle cx="546.2" cy="198.0" r="3" fill="#8a5a5a"/><circle cx="549.3" cy="198.0" r="3" fill="#8a5a5a"/><circle cx="552.3" cy="198.0" r="3" fill="#8a5a5a"/><circle cx="555.3" cy="198.0" r="3" fill="#8a5a5a"/><circle cx="558.3" cy="198.0" r="3" fill="#8a5a5a"/><circle cx="561.3" cy="198.0" r="3" fill="#8a5a5a"/><circle cx="564.4" cy="198.0" r="3" fill="#8a5a5a"/><circle cx="567.4" cy="198.0" r="3" fill="#8a5a5a"/><circle cx="570.4" cy="198.0" r="3" fill="#8a5a5a"/><circle cx="573.4" cy="198.0" r="3" fill="#8a5a5a"/><circle cx="576.4" cy="198.0" r="3" fill="#8a5a5a"/><circle cx="579.5" cy="198.0" r="3" fill="#8a5a5a"/><circle cx="582.5" cy="198.0" r="3" fill="#8a5a5a"/><circle cx="585.5" cy="198.0" r="3" fill="#8a5a5a"/><circle cx="588.5" cy="198.0" r="3" fill="#8a5a5a"/><circle cx="591.5" cy="198.0" r="3" fill="#8a5a5a"/><circle cx="594.6" cy="198.0" r="3" fill="#8a5a5a"/><circle cx="597.6" cy="198.0" r="3" fill="#8a5a5a"/><circle cx="600.6" cy="198.0" r="3" fill="#8a5a5a"/><circle cx="603.6" cy="198.0" r="3" fill="#8a5a5a"/><circle cx="606.6" cy="198.0" r="3" fill="#8a5a5a"/><circle cx="609.7" cy="198.0" r="3" fill="#8a5a5a"/><circle cx="612.7" cy="198.0" r="3" fill="#8a5a5a"/><circle cx="615.7" cy="198.0" r="3" fill="#8a5a5a"/><circle cx="618.7" cy="198.0" r="3" fill="#8a5a5a"/><circle cx="621.7" cy="198.0" r="3" fill="#8a5a5a"/><circle cx="624.8" cy="198.0" r="3" fill="#8a5a5a"/><circle cx="627.8" cy="198.0" r="3" fill="#8a5a5a"/><circle cx="630.8" cy="198.0" r="3" fill="#8a5a5a"/><circle cx="633.8" cy="198.0" r="3" fill="#8a5a5a"/><circle cx="636.8" cy="198.0" r="3" fill="#8a5a5a"/><circle cx="639.8" cy="198.0" r="3" fill="#8a5a5a"/><circle cx="642.9" cy="198.0" r="3" fill="#8a5a5a"/><circle cx="645.9" cy="198.0" r="3" fill="#8a5a5a"/><circle cx="648.9" cy="198.0" r="3" fill="#8a5a5a"/><circle cx="651.9" cy="198.0" r="3" fill="#8a5a5a"/><circle cx="654.9" cy="198.0" r="3" fill="#8a5a5a"/><circle cx="658.0" cy="198.0" r="3" fill="#8a5a5a"/><circle cx="661.0" cy="198.0" r="3" fill="#8a5a5a"/><circle cx="664.0" cy="198.0" r="3" fill="#8a5a5a"/>
<polyline fill="none" stroke="#3fb950" stroke-width="2.5" stroke-linejoin="round" points="36.0,198.0 39.0,198.0 42.0,198.0 45.1,198.0 48.1,198.0 51.1,198.0 54.1,198.0 57.1,198.0 60.2,198.0 63.2,198.0 66.2,198.0 69.2,198.0 72.2,198.0 75.2,198.0 78.3,198.0 81.3,198.0 84.3,198.0 87.3,198.0 90.3,198.0 93.4,198.0 96.4,198.0 99.4,198.0 102.4,198.0 105.4,198.0 108.5,198.0 111.5,198.0 114.5,198.0 117.5,198.0 120.5,198.0 123.6,198.0 126.6,198.0 129.6,198.0 132.6,198.0 135.6,198.0 138.7,198.0 141.7,198.0 144.7,198.0 147.7,198.0 150.7,198.0 153.8,198.0 156.8,198.0 159.8,198.0 162.8,198.0 165.8,191.7 168.8,191.7 171.9,191.7 174.9,191.7 177.9,191.7 180.9,191.7 183.9,191.7 187.0,192.9 190.0,192.9 193.0,190.7 196.0,190.7 199.0,190.7 202.1,190.7 205.1,190.7 208.1,190.5 211.1,190.5 214.1,190.5 217.2,190.3 220.2,190.3 223.2,190.3 226.2,190.3 229.2,190.3 232.2,190.3 235.3,190.3 238.3,190.3 241.3,190.3 244.3,190.3 247.3,190.3 250.4,190.3 253.4,190.3 256.4,190.3 259.4,190.3 262.4,190.3 265.5,190.3 268.5,190.3 271.5,190.3 274.5,190.3 277.5,190.3 280.6,189.3 283.6,189.3 286.6,189.3 289.6,190.7 292.6,190.7 295.7,190.7 298.7,190.7 301.7,190.7 304.7,190.7 307.7,190.7 310.8,190.7 313.8,190.7 316.8,190.9 319.8,190.9 322.8,190.9 325.8,194.2 328.9,196.8 331.9,198.0 334.9,198.0 337.9,198.0 340.9,198.0 344.0,198.0 347.0,198.0 350.0,198.0 353.0,198.0 356.0,198.0 359.1,198.0 362.1,198.0 365.1,198.0 368.1,198.0 371.1,198.0 374.2,198.0 377.2,198.0 380.2,198.0 383.2,198.0 386.2,198.0 389.2,198.0 392.3,198.0 395.3,198.0 398.3,198.0 401.3,198.0 404.3,198.0 407.4,198.0 410.4,198.0 413.4,198.0 416.4,198.0 419.4,198.0 422.5,198.0 425.5,198.0 428.5,198.0 431.5,198.0 434.5,198.0 437.6,198.0 440.6,198.0 443.6,198.0 446.6,198.0 449.6,198.0 452.7,198.0 455.7,198.0 458.7,198.0 461.7,198.0 464.7,198.0 467.8,198.0 470.8,198.0 473.8,198.0 476.8,198.0 479.8,198.0 482.8,198.0 485.9,198.0 488.9,198.0 491.9,198.0 494.9,198.0 497.9,198.0 501.0,198.0 504.0,198.0 507.0,198.0 510.0,198.0 513.0,198.0 516.1,198.0 519.1,198.0 522.1,198.0 525.1,198.0 528.1,198.0 531.2,198.0 534.2,198.0 537.2,198.0 540.2,198.0 543.2,198.0 546.2,198.0 549.3,198.0 552.3,198.0 555.3,198.0 558.3,198.0 561.3,198.0 564.4,198.0 567.4,198.0 570.4,198.0 573.4,198.0 576.4,198.0 579.5,198.0 582.5,198.0 585.5,198.0 588.5,198.0 591.5,198.0 594.6,198.0 597.6,198.0 600.6,198.0 603.6,198.0 606.6,198.0 609.7,198.0 612.7,198.0 615.7,198.0 618.7,198.0 621.7,198.0 624.8,198.0 627.8,198.0 630.8,198.0 633.8,198.0 636.8,198.0 639.8,198.0 642.9,198.0 645.9,198.0 648.9,198.0 651.9,198.0 654.9,198.0 658.0,198.0 661.0,198.0 664.0,198.0"/><circle cx="36.0" cy="198.0" r="3" fill="#3fb950"/><circle cx="39.0" cy="198.0" r="3" fill="#3fb950"/><circle cx="42.0" cy="198.0" r="3" fill="#3fb950"/><circle cx="45.1" cy="198.0" r="3" fill="#3fb950"/><circle cx="48.1" cy="198.0" r="3" fill="#3fb950"/><circle cx="51.1" cy="198.0" r="3" fill="#3fb950"/><circle cx="54.1" cy="198.0" r="3" fill="#3fb950"/><circle cx="57.1" cy="198.0" r="3" fill="#3fb950"/><circle cx="60.2" cy="198.0" r="3" fill="#3fb950"/><circle cx="63.2" cy="198.0" r="3" fill="#3fb950"/><circle cx="66.2" cy="198.0" r="3" fill="#3fb950"/><circle cx="69.2" cy="198.0" r="3" fill="#3fb950"/><circle cx="72.2" cy="198.0" r="3" fill="#3fb950"/><circle cx="75.2" cy="198.0" r="3" fill="#3fb950"/><circle cx="78.3" cy="198.0" r="3" fill="#3fb950"/><circle cx="81.3" cy="198.0" r="3" fill="#3fb950"/><circle cx="84.3" cy="198.0" r="3" fill="#3fb950"/><circle cx="87.3" cy="198.0" r="3" fill="#3fb950"/><circle cx="90.3" cy="198.0" r="3" fill="#3fb950"/><circle cx="93.4" cy="198.0" r="3" fill="#3fb950"/><circle cx="96.4" cy="198.0" r="3" fill="#3fb950"/><circle cx="99.4" cy="198.0" r="3" fill="#3fb950"/><circle cx="102.4" cy="198.0" r="3" fill="#3fb950"/><circle cx="105.4" cy="198.0" r="3" fill="#3fb950"/><circle cx="108.5" cy="198.0" r="3" fill="#3fb950"/><circle cx="111.5" cy="198.0" r="3" fill="#3fb950"/><circle cx="114.5" cy="198.0" r="3" fill="#3fb950"/><circle cx="117.5" cy="198.0" r="3" fill="#3fb950"/><circle cx="120.5" cy="198.0" r="3" fill="#3fb950"/><circle cx="123.6" cy="198.0" r="3" fill="#3fb950"/><circle cx="126.6" cy="198.0" r="3" fill="#3fb950"/><circle cx="129.6" cy="198.0" r="3" fill="#3fb950"/><circle cx="132.6" cy="198.0" r="3" fill="#3fb950"/><circle cx="135.6" cy="198.0" r="3" fill="#3fb950"/><circle cx="138.7" cy="198.0" r="3" fill="#3fb950"/><circle cx="141.7" cy="198.0" r="3" fill="#3fb950"/><circle cx="144.7" cy="198.0" r="3" fill="#3fb950"/><circle cx="147.7" cy="198.0" r="3" fill="#3fb950"/><circle cx="150.7" cy="198.0" r="3" fill="#3fb950"/><circle cx="153.8" cy="198.0" r="3" fill="#3fb950"/><circle cx="156.8" cy="198.0" r="3" fill="#3fb950"/><circle cx="159.8" cy="198.0" r="3" fill="#3fb950"/><circle cx="162.8" cy="198.0" r="3" fill="#3fb950"/><circle cx="165.8" cy="191.7" r="3" fill="#3fb950"/><circle cx="168.8" cy="191.7" r="3" fill="#3fb950"/><circle cx="171.9" cy="191.7" r="3" fill="#3fb950"/><circle cx="174.9" cy="191.7" r="3" fill="#3fb950"/><circle cx="177.9" cy="191.7" r="3" fill="#3fb950"/><circle cx="180.9" cy="191.7" r="3" fill="#3fb950"/><circle cx="183.9" cy="191.7" r="3" fill="#3fb950"/><circle cx="187.0" cy="192.9" r="3" fill="#3fb950"/><circle cx="190.0" cy="192.9" r="3" fill="#3fb950"/><circle cx="193.0" cy="190.7" r="3" fill="#3fb950"/><circle cx="196.0" cy="190.7" r="3" fill="#3fb950"/><circle cx="199.0" cy="190.7" r="3" fill="#3fb950"/><circle cx="202.1" cy="190.7" r="3" fill="#3fb950"/><circle cx="205.1" cy="190.7" r="3" fill="#3fb950"/><circle cx="208.1" cy="190.5" r="3" fill="#3fb950"/><circle cx="211.1" cy="190.5" r="3" fill="#3fb950"/><circle cx="214.1" cy="190.5" r="3" fill="#3fb950"/><circle cx="217.2" cy="190.3" r="3" fill="#3fb950"/><circle cx="220.2" cy="190.3" r="3" fill="#3fb950"/><circle cx="223.2" cy="190.3" r="3" fill="#3fb950"/><circle cx="226.2" cy="190.3" r="3" fill="#3fb950"/><circle cx="229.2" cy="190.3" r="3" fill="#3fb950"/><circle cx="232.2" cy="190.3" r="3" fill="#3fb950"/><circle cx="235.3" cy="190.3" r="3" fill="#3fb950"/><circle cx="238.3" cy="190.3" r="3" fill="#3fb950"/><circle cx="241.3" cy="190.3" r="3" fill="#3fb950"/><circle cx="244.3" cy="190.3" r="3" fill="#3fb950"/><circle cx="247.3" cy="190.3" r="3" fill="#3fb950"/><circle cx="250.4" cy="190.3" r="3" fill="#3fb950"/><circle cx="253.4" cy="190.3" r="3" fill="#3fb950"/><circle cx="256.4" cy="190.3" r="3" fill="#3fb950"/><circle cx="259.4" cy="190.3" r="3" fill="#3fb950"/><circle cx="262.4" cy="190.3" r="3" fill="#3fb950"/><circle cx="265.5" cy="190.3" r="3" fill="#3fb950"/><circle cx="268.5" cy="190.3" r="3" fill="#3fb950"/><circle cx="271.5" cy="190.3" r="3" fill="#3fb950"/><circle cx="274.5" cy="190.3" r="3" fill="#3fb950"/><circle cx="277.5" cy="190.3" r="3" fill="#3fb950"/><circle cx="280.6" cy="189.3" r="3" fill="#3fb950"/><circle cx="283.6" cy="189.3" r="3" fill="#3fb950"/><circle cx="286.6" cy="189.3" r="3" fill="#3fb950"/><circle cx="289.6" cy="190.7" r="3" fill="#3fb950"/><circle cx="292.6" cy="190.7" r="3" fill="#3fb950"/><circle cx="295.7" cy="190.7" r="3" fill="#3fb950"/><circle cx="298.7" cy="190.7" r="3" fill="#3fb950"/><circle cx="301.7" cy="190.7" r="3" fill="#3fb950"/><circle cx="304.7" cy="190.7" r="3" fill="#3fb950"/><circle cx="307.7" cy="190.7" r="3" fill="#3fb950"/><circle cx="310.8" cy="190.7" r="3" fill="#3fb950"/><circle cx="313.8" cy="190.7" r="3" fill="#3fb950"/><circle cx="316.8" cy="190.9" r="3" fill="#3fb950"/><circle cx="319.8" cy="190.9" r="3" fill="#3fb950"/><circle cx="322.8" cy="190.9" r="3" fill="#3fb950"/><circle cx="325.8" cy="194.2" r="3" fill="#3fb950"/><circle cx="328.9" cy="196.8" r="3" fill="#3fb950"/><circle cx="331.9" cy="198.0" r="3" fill="#3fb950"/><circle cx="334.9" cy="198.0" r="3" fill="#3fb950"/><circle cx="337.9" cy="198.0" r="3" fill="#3fb950"/><circle cx="340.9" cy="198.0" r="3" fill="#3fb950"/><circle cx="344.0" cy="198.0" r="3" fill="#3fb950"/><circle cx="347.0" cy="198.0" r="3" fill="#3fb950"/><circle cx="350.0" cy="198.0" r="3" fill="#3fb950"/><circle cx="353.0" cy="198.0" r="3" fill="#3fb950"/><circle cx="356.0" cy="198.0" r="3" fill="#3fb950"/><circle cx="359.1" cy="198.0" r="3" fill="#3fb950"/><circle cx="362.1" cy="198.0" r="3" fill="#3fb950"/><circle cx="365.1" cy="198.0" r="3" fill="#3fb950"/><circle cx="368.1" cy="198.0" r="3" fill="#3fb950"/><circle cx="371.1" cy="198.0" r="3" fill="#3fb950"/><circle cx="374.2" cy="198.0" r="3" fill="#3fb950"/><circle cx="377.2" cy="198.0" r="3" fill="#3fb950"/><circle cx="380.2" cy="198.0" r="3" fill="#3fb950"/><circle cx="383.2" cy="198.0" r="3" fill="#3fb950"/><circle cx="386.2" cy="198.0" r="3" fill="#3fb950"/><circle cx="389.2" cy="198.0" r="3" fill="#3fb950"/><circle cx="392.3" cy="198.0" r="3" fill="#3fb950"/><circle cx="395.3" cy="198.0" r="3" fill="#3fb950"/><circle cx="398.3" cy="198.0" r="3" fill="#3fb950"/><circle cx="401.3" cy="198.0" r="3" fill="#3fb950"/><circle cx="404.3" cy="198.0" r="3" fill="#3fb950"/><circle cx="407.4" cy="198.0" r="3" fill="#3fb950"/><circle cx="410.4" cy="198.0" r="3" fill="#3fb950"/><circle cx="413.4" cy="198.0" r="3" fill="#3fb950"/><circle cx="416.4" cy="198.0" r="3" fill="#3fb950"/><circle cx="419.4" cy="198.0" r="3" fill="#3fb950"/><circle cx="422.5" cy="198.0" r="3" fill="#3fb950"/><circle cx="425.5" cy="198.0" r="3" fill="#3fb950"/><circle cx="428.5" cy="198.0" r="3" fill="#3fb950"/><circle cx="431.5" cy="198.0" r="3" fill="#3fb950"/><circle cx="434.5" cy="198.0" r="3" fill="#3fb950"/><circle cx="437.6" cy="198.0" r="3" fill="#3fb950"/><circle cx="440.6" cy="198.0" r="3" fill="#3fb950"/><circle cx="443.6" cy="198.0" r="3" fill="#3fb950"/><circle cx="446.6" cy="198.0" r="3" fill="#3fb950"/><circle cx="449.6" cy="198.0" r="3" fill="#3fb950"/><circle cx="452.7" cy="198.0" r="3" fill="#3fb950"/><circle cx="455.7" cy="198.0" r="3" fill="#3fb950"/><circle cx="458.7" cy="198.0" r="3" fill="#3fb950"/><circle cx="461.7" cy="198.0" r="3" fill="#3fb950"/><circle cx="464.7" cy="198.0" r="3" fill="#3fb950"/><circle cx="467.8" cy="198.0" r="3" fill="#3fb950"/><circle cx="470.8" cy="198.0" r="3" fill="#3fb950"/><circle cx="473.8" cy="198.0" r="3" fill="#3fb950"/><circle cx="476.8" cy="198.0" r="3" fill="#3fb950"/><circle cx="479.8" cy="198.0" r="3" fill="#3fb950"/><circle cx="482.8" cy="198.0" r="3" fill="#3fb950"/><circle cx="485.9" cy="198.0" r="3" fill="#3fb950"/><circle cx="488.9" cy="198.0" r="3" fill="#3fb950"/><circle cx="491.9" cy="198.0" r="3" fill="#3fb950"/><circle cx="494.9" cy="198.0" r="3" fill="#3fb950"/><circle cx="497.9" cy="198.0" r="3" fill="#3fb950"/><circle cx="501.0" cy="198.0" r="3" fill="#3fb950"/><circle cx="504.0" cy="198.0" r="3" fill="#3fb950"/><circle cx="507.0" cy="198.0" r="3" fill="#3fb950"/><circle cx="510.0" cy="198.0" r="3" fill="#3fb950"/><circle cx="513.0" cy="198.0" r="3" fill="#3fb950"/><circle cx="516.1" cy="198.0" r="3" fill="#3fb950"/><circle cx="519.1" cy="198.0" r="3" fill="#3fb950"/><circle cx="522.1" cy="198.0" r="3" fill="#3fb950"/><circle cx="525.1" cy="198.0" r="3" fill="#3fb950"/><circle cx="528.1" cy="198.0" r="3" fill="#3fb950"/><circle cx="531.2" cy="198.0" r="3" fill="#3fb950"/><circle cx="534.2" cy="198.0" r="3" fill="#3fb950"/><circle cx="537.2" cy="198.0" r="3" fill="#3fb950"/><circle cx="540.2" cy="198.0" r="3" fill="#3fb950"/><circle cx="543.2" cy="198.0" r="3" fill="#3fb950"/><circle cx="546.2" cy="198.0" r="3" fill="#3fb950"/><circle cx="549.3" cy="198.0" r="3" fill="#3fb950"/><circle cx="552.3" cy="198.0" r="3" fill="#3fb950"/><circle cx="555.3" cy="198.0" r="3" fill="#3fb950"/><circle cx="558.3" cy="198.0" r="3" fill="#3fb950"/><circle cx="561.3" cy="198.0" r="3" fill="#3fb950"/><circle cx="564.4" cy="198.0" r="3" fill="#3fb950"/><circle cx="567.4" cy="198.0" r="3" fill="#3fb950"/><circle cx="570.4" cy="198.0" r="3" fill="#3fb950"/><circle cx="573.4" cy="198.0" r="3" fill="#3fb950"/><circle cx="576.4" cy="198.0" r="3" fill="#3fb950"/><circle cx="579.5" cy="198.0" r="3" fill="#3fb950"/><circle cx="582.5" cy="198.0" r="3" fill="#3fb950"/><circle cx="585.5" cy="198.0" r="3" fill="#3fb950"/><circle cx="588.5" cy="198.0" r="3" fill="#3fb950"/><circle cx="591.5" cy="198.0" r="3" fill="#3fb950"/><circle cx="594.6" cy="198.0" r="3" fill="#3fb950"/><circle cx="597.6" cy="198.0" r="3" fill="#3fb950"/><circle cx="600.6" cy="198.0" r="3" fill="#3fb950"/><circle cx="603.6" cy="198.0" r="3" fill="#3fb950"/><circle cx="606.6" cy="198.0" r="3" fill="#3fb950"/><circle cx="609.7" cy="198.0" r="3" fill="#3fb950"/><circle cx="612.7" cy="198.0" r="3" fill="#3fb950"/><circle cx="615.7" cy="198.0" r="3" fill="#3fb950"/><circle cx="618.7" cy="198.0" r="3" fill="#3fb950"/><circle cx="621.7" cy="198.0" r="3" fill="#3fb950"/><circle cx="624.8" cy="198.0" r="3" fill="#3fb950"/><circle cx="627.8" cy="198.0" r="3" fill="#3fb950"/><circle cx="630.8" cy="198.0" r="3" fill="#3fb950"/><circle cx="633.8" cy="198.0" r="3" fill="#3fb950"/><circle cx="636.8" cy="198.0" r="3" fill="#3fb950"/><circle cx="639.8" cy="198.0" r="3" fill="#3fb950"/><circle cx="642.9" cy="198.0" r="3" fill="#3fb950"/><circle cx="645.9" cy="198.0" r="3" fill="#3fb950"/><circle cx="648.9" cy="198.0" r="3" fill="#3fb950"/><circle cx="651.9" cy="198.0" r="3" fill="#3fb950"/><circle cx="654.9" cy="198.0" r="3" fill="#3fb950"/><circle cx="658.0" cy="198.0" r="3" fill="#3fb950"/><circle cx="661.0" cy="198.0" r="3" fill="#3fb950"/><circle cx="664.0" cy="198.0" r="3" fill="#3fb950"/>
<polyline fill="none" stroke="#4aa3ff" stroke-width="2.5" stroke-linejoin="round" points="36.0,144.3 39.0,144.3 42.0,144.3 45.1,144.3 48.1,144.3 51.1,144.3 54.1,144.3 57.1,144.3 60.2,144.3 63.2,144.3 66.2,144.3 69.2,144.3 72.2,144.3 75.2,144.3 78.3,144.3 81.3,136.2 84.3,132.4 87.3,129.6 90.3,129.6 93.4,121.0 96.4,121.0 99.4,121.0 102.4,114.4 105.4,114.4 108.5,114.4 111.5,111.3 114.5,110.9 117.5,110.9 120.5,110.5 123.6,110.5 126.6,109.9 129.6,108.7 132.6,107.3 135.6,106.9 138.7,106.9 141.7,106.9 144.7,106.9 147.7,106.9 150.7,106.9 153.8,106.9 156.8,106.9 159.8,106.9 162.8,106.9 165.8,113.2 168.8,113.2 171.9,113.2 174.9,113.2 177.9,113.2 180.9,110.7 183.9,105.3 187.0,83.4 190.0,83.4 193.0,85.6 196.0,85.6 199.0,85.6 202.1,85.6 205.1,85.6 208.1,85.8 211.1,85.8 214.1,85.8 217.2,86.0 220.2,86.0 223.2,86.0 226.2,86.0 229.2,86.0 232.2,86.0 235.3,86.0 238.3,86.0 241.3,86.0 244.3,86.0 247.3,86.0 250.4,86.0 253.4,86.0 256.4,86.0 259.4,86.0 262.4,86.0 265.5,86.0 268.5,86.0 271.5,86.0 274.5,86.0 277.5,86.0 280.6,87.0 283.6,87.0 286.6,87.0 289.6,73.7 292.6,73.7 295.7,71.0 298.7,71.0 301.7,70.8 304.7,70.6 307.7,70.6 310.8,70.4 313.8,68.6 316.8,60.5 319.8,59.3 322.8,52.0 325.8,47.3 328.9,40.1 331.9,36.0 334.9,36.0 337.9,36.0 340.9,36.0 344.0,36.0 347.0,36.0 350.0,36.0 353.0,36.0 356.0,36.0 359.1,36.0 362.1,36.0 365.1,36.0 368.1,36.0 371.1,36.0 374.2,36.0 377.2,36.0 380.2,36.0 383.2,36.0 386.2,36.0 389.2,36.0 392.3,36.0 395.3,36.0 398.3,36.0 401.3,36.0 404.3,36.0 407.4,36.0 410.4,36.0 413.4,36.0 416.4,36.0 419.4,36.0 422.5,36.0 425.5,36.0 428.5,36.0 431.5,36.0 434.5,36.0 437.6,36.0 440.6,36.0 443.6,36.0 446.6,36.0 449.6,36.0 452.7,36.0 455.7,36.0 458.7,36.0 461.7,36.0 464.7,36.0 467.8,36.0 470.8,36.0 473.8,36.0 476.8,36.0 479.8,36.0 482.8,36.0 485.9,36.0 488.9,36.0 491.9,36.0 494.9,36.0 497.9,36.0 501.0,36.0 504.0,36.0 507.0,36.0 510.0,36.0 513.0,36.0 516.1,36.0 519.1,36.0 522.1,36.0 525.1,36.0 528.1,36.0 531.2,36.0 534.2,36.0 537.2,36.0 540.2,36.0 543.2,36.0 546.2,36.0 549.3,36.0 552.3,36.0 555.3,36.0 558.3,36.0 561.3,36.0 564.4,36.0 567.4,36.0 570.4,36.0 573.4,36.0 576.4,36.0 579.5,36.0 582.5,36.0 585.5,36.0 588.5,36.0 591.5,36.0 594.6,36.0 597.6,36.0 600.6,36.0 603.6,36.0 606.6,36.0 609.7,36.0 612.7,36.0 615.7,36.0 618.7,36.0 621.7,36.0 624.8,36.0 627.8,36.0 630.8,36.0 633.8,36.0 636.8,36.0 639.8,36.0 642.9,36.0 645.9,36.0 648.9,36.0 651.9,36.0 654.9,36.0 658.0,36.0 661.0,36.0 664.0,36.0"/><circle cx="36.0" cy="144.3" r="3" fill="#4aa3ff"/><circle cx="39.0" cy="144.3" r="3" fill="#4aa3ff"/><circle cx="42.0" cy="144.3" r="3" fill="#4aa3ff"/><circle cx="45.1" cy="144.3" r="3" fill="#4aa3ff"/><circle cx="48.1" cy="144.3" r="3" fill="#4aa3ff"/><circle cx="51.1" cy="144.3" r="3" fill="#4aa3ff"/><circle cx="54.1" cy="144.3" r="3" fill="#4aa3ff"/><circle cx="57.1" cy="144.3" r="3" fill="#4aa3ff"/><circle cx="60.2" cy="144.3" r="3" fill="#4aa3ff"/><circle cx="63.2" cy="144.3" r="3" fill="#4aa3ff"/><circle cx="66.2" cy="144.3" r="3" fill="#4aa3ff"/><circle cx="69.2" cy="144.3" r="3" fill="#4aa3ff"/><circle cx="72.2" cy="144.3" r="3" fill="#4aa3ff"/><circle cx="75.2" cy="144.3" r="3" fill="#4aa3ff"/><circle cx="78.3" cy="144.3" r="3" fill="#4aa3ff"/><circle cx="81.3" cy="136.2" r="3" fill="#4aa3ff"/><circle cx="84.3" cy="132.4" r="3" fill="#4aa3ff"/><circle cx="87.3" cy="129.6" r="3" fill="#4aa3ff"/><circle cx="90.3" cy="129.6" r="3" fill="#4aa3ff"/><circle cx="93.4" cy="121.0" r="3" fill="#4aa3ff"/><circle cx="96.4" cy="121.0" r="3" fill="#4aa3ff"/><circle cx="99.4" cy="121.0" r="3" fill="#4aa3ff"/><circle cx="102.4" cy="114.4" r="3" fill="#4aa3ff"/><circle cx="105.4" cy="114.4" r="3" fill="#4aa3ff"/><circle cx="108.5" cy="114.4" r="3" fill="#4aa3ff"/><circle cx="111.5" cy="111.3" r="3" fill="#4aa3ff"/><circle cx="114.5" cy="110.9" r="3" fill="#4aa3ff"/><circle cx="117.5" cy="110.9" r="3" fill="#4aa3ff"/><circle cx="120.5" cy="110.5" r="3" fill="#4aa3ff"/><circle cx="123.6" cy="110.5" r="3" fill="#4aa3ff"/><circle cx="126.6" cy="109.9" r="3" fill="#4aa3ff"/><circle cx="129.6" cy="108.7" r="3" fill="#4aa3ff"/><circle cx="132.6" cy="107.3" r="3" fill="#4aa3ff"/><circle cx="135.6" cy="106.9" r="3" fill="#4aa3ff"/><circle cx="138.7" cy="106.9" r="3" fill="#4aa3ff"/><circle cx="141.7" cy="106.9" r="3" fill="#4aa3ff"/><circle cx="144.7" cy="106.9" r="3" fill="#4aa3ff"/><circle cx="147.7" cy="106.9" r="3" fill="#4aa3ff"/><circle cx="150.7" cy="106.9" r="3" fill="#4aa3ff"/><circle cx="153.8" cy="106.9" r="3" fill="#4aa3ff"/><circle cx="156.8" cy="106.9" r="3" fill="#4aa3ff"/><circle cx="159.8" cy="106.9" r="3" fill="#4aa3ff"/><circle cx="162.8" cy="106.9" r="3" fill="#4aa3ff"/><circle cx="165.8" cy="113.2" r="3" fill="#4aa3ff"/><circle cx="168.8" cy="113.2" r="3" fill="#4aa3ff"/><circle cx="171.9" cy="113.2" r="3" fill="#4aa3ff"/><circle cx="174.9" cy="113.2" r="3" fill="#4aa3ff"/><circle cx="177.9" cy="113.2" r="3" fill="#4aa3ff"/><circle cx="180.9" cy="110.7" r="3" fill="#4aa3ff"/><circle cx="183.9" cy="105.3" r="3" fill="#4aa3ff"/><circle cx="187.0" cy="83.4" r="3" fill="#4aa3ff"/><circle cx="190.0" cy="83.4" r="3" fill="#4aa3ff"/><circle cx="193.0" cy="85.6" r="3" fill="#4aa3ff"/><circle cx="196.0" cy="85.6" r="3" fill="#4aa3ff"/><circle cx="199.0" cy="85.6" r="3" fill="#4aa3ff"/><circle cx="202.1" cy="85.6" r="3" fill="#4aa3ff"/><circle cx="205.1" cy="85.6" r="3" fill="#4aa3ff"/><circle cx="208.1" cy="85.8" r="3" fill="#4aa3ff"/><circle cx="211.1" cy="85.8" r="3" fill="#4aa3ff"/><circle cx="214.1" cy="85.8" r="3" fill="#4aa3ff"/><circle cx="217.2" cy="86.0" r="3" fill="#4aa3ff"/><circle cx="220.2" cy="86.0" r="3" fill="#4aa3ff"/><circle cx="223.2" cy="86.0" r="3" fill="#4aa3ff"/><circle cx="226.2" cy="86.0" r="3" fill="#4aa3ff"/><circle cx="229.2" cy="86.0" r="3" fill="#4aa3ff"/><circle cx="232.2" cy="86.0" r="3" fill="#4aa3ff"/><circle cx="235.3" cy="86.0" r="3" fill="#4aa3ff"/><circle cx="238.3" cy="86.0" r="3" fill="#4aa3ff"/><circle cx="241.3" cy="86.0" r="3" fill="#4aa3ff"/><circle cx="244.3" cy="86.0" r="3" fill="#4aa3ff"/><circle cx="247.3" cy="86.0" r="3" fill="#4aa3ff"/><circle cx="250.4" cy="86.0" r="3" fill="#4aa3ff"/><circle cx="253.4" cy="86.0" r="3" fill="#4aa3ff"/><circle cx="256.4" cy="86.0" r="3" fill="#4aa3ff"/><circle cx="259.4" cy="86.0" r="3" fill="#4aa3ff"/><circle cx="262.4" cy="86.0" r="3" fill="#4aa3ff"/><circle cx="265.5" cy="86.0" r="3" fill="#4aa3ff"/><circle cx="268.5" cy="86.0" r="3" fill="#4aa3ff"/><circle cx="271.5" cy="86.0" r="3" fill="#4aa3ff"/><circle cx="274.5" cy="86.0" r="3" fill="#4aa3ff"/><circle cx="277.5" cy="86.0" r="3" fill="#4aa3ff"/><circle cx="280.6" cy="87.0" r="3" fill="#4aa3ff"/><circle cx="283.6" cy="87.0" r="3" fill="#4aa3ff"/><circle cx="286.6" cy="87.0" r="3" fill="#4aa3ff"/><circle cx="289.6" cy="73.7" r="3" fill="#4aa3ff"/><circle cx="292.6" cy="73.7" r="3" fill="#4aa3ff"/><circle cx="295.7" cy="71.0" r="3" fill="#4aa3ff"/><circle cx="298.7" cy="71.0" r="3" fill="#4aa3ff"/><circle cx="301.7" cy="70.8" r="3" fill="#4aa3ff"/><circle cx="304.7" cy="70.6" r="3" fill="#4aa3ff"/><circle cx="307.7" cy="70.6" r="3" fill="#4aa3ff"/><circle cx="310.8" cy="70.4" r="3" fill="#4aa3ff"/><circle cx="313.8" cy="68.6" r="3" fill="#4aa3ff"/><circle cx="316.8" cy="60.5" r="3" fill="#4aa3ff"/><circle cx="319.8" cy="59.3" r="3" fill="#4aa3ff"/><circle cx="322.8" cy="52.0" r="3" fill="#4aa3ff"/><circle cx="325.8" cy="47.3" r="3" fill="#4aa3ff"/><circle cx="328.9" cy="40.1" r="3" fill="#4aa3ff"/><circle cx="331.9" cy="36.0" r="3" fill="#4aa3ff"/><circle cx="334.9" cy="36.0" r="3" fill="#4aa3ff"/><circle cx="337.9" cy="36.0" r="3" fill="#4aa3ff"/><circle cx="340.9" cy="36.0" r="3" fill="#4aa3ff"/><circle cx="344.0" cy="36.0" r="3" fill="#4aa3ff"/><circle cx="347.0" cy="36.0" r="3" fill="#4aa3ff"/><circle cx="350.0" cy="36.0" r="3" fill="#4aa3ff"/><circle cx="353.0" cy="36.0" r="3" fill="#4aa3ff"/><circle cx="356.0" cy="36.0" r="3" fill="#4aa3ff"/><circle cx="359.1" cy="36.0" r="3" fill="#4aa3ff"/><circle cx="362.1" cy="36.0" r="3" fill="#4aa3ff"/><circle cx="365.1" cy="36.0" r="3" fill="#4aa3ff"/><circle cx="368.1" cy="36.0" r="3" fill="#4aa3ff"/><circle cx="371.1" cy="36.0" r="3" fill="#4aa3ff"/><circle cx="374.2" cy="36.0" r="3" fill="#4aa3ff"/><circle cx="377.2" cy="36.0" r="3" fill="#4aa3ff"/><circle cx="380.2" cy="36.0" r="3" fill="#4aa3ff"/><circle cx="383.2" cy="36.0" r="3" fill="#4aa3ff"/><circle cx="386.2" cy="36.0" r="3" fill="#4aa3ff"/><circle cx="389.2" cy="36.0" r="3" fill="#4aa3ff"/><circle cx="392.3" cy="36.0" r="3" fill="#4aa3ff"/><circle cx="395.3" cy="36.0" r="3" fill="#4aa3ff"/><circle cx="398.3" cy="36.0" r="3" fill="#4aa3ff"/><circle cx="401.3" cy="36.0" r="3" fill="#4aa3ff"/><circle cx="404.3" cy="36.0" r="3" fill="#4aa3ff"/><circle cx="407.4" cy="36.0" r="3" fill="#4aa3ff"/><circle cx="410.4" cy="36.0" r="3" fill="#4aa3ff"/><circle cx="413.4" cy="36.0" r="3" fill="#4aa3ff"/><circle cx="416.4" cy="36.0" r="3" fill="#4aa3ff"/><circle cx="419.4" cy="36.0" r="3" fill="#4aa3ff"/><circle cx="422.5" cy="36.0" r="3" fill="#4aa3ff"/><circle cx="425.5" cy="36.0" r="3" fill="#4aa3ff"/><circle cx="428.5" cy="36.0" r="3" fill="#4aa3ff"/><circle cx="431.5" cy="36.0" r="3" fill="#4aa3ff"/><circle cx="434.5" cy="36.0" r="3" fill="#4aa3ff"/><circle cx="437.6" cy="36.0" r="3" fill="#4aa3ff"/><circle cx="440.6" cy="36.0" r="3" fill="#4aa3ff"/><circle cx="443.6" cy="36.0" r="3" fill="#4aa3ff"/><circle cx="446.6" cy="36.0" r="3" fill="#4aa3ff"/><circle cx="449.6" cy="36.0" r="3" fill="#4aa3ff"/><circle cx="452.7" cy="36.0" r="3" fill="#4aa3ff"/><circle cx="455.7" cy="36.0" r="3" fill="#4aa3ff"/><circle cx="458.7" cy="36.0" r="3" fill="#4aa3ff"/><circle cx="461.7" cy="36.0" r="3" fill="#4aa3ff"/><circle cx="464.7" cy="36.0" r="3" fill="#4aa3ff"/><circle cx="467.8" cy="36.0" r="3" fill="#4aa3ff"/><circle cx="470.8" cy="36.0" r="3" fill="#4aa3ff"/><circle cx="473.8" cy="36.0" r="3" fill="#4aa3ff"/><circle cx="476.8" cy="36.0" r="3" fill="#4aa3ff"/><circle cx="479.8" cy="36.0" r="3" fill="#4aa3ff"/><circle cx="482.8" cy="36.0" r="3" fill="#4aa3ff"/><circle cx="485.9" cy="36.0" r="3" fill="#4aa3ff"/><circle cx="488.9" cy="36.0" r="3" fill="#4aa3ff"/><circle cx="491.9" cy="36.0" r="3" fill="#4aa3ff"/><circle cx="494.9" cy="36.0" r="3" fill="#4aa3ff"/><circle cx="497.9" cy="36.0" r="3" fill="#4aa3ff"/><circle cx="501.0" cy="36.0" r="3" fill="#4aa3ff"/><circle cx="504.0" cy="36.0" r="3" fill="#4aa3ff"/><circle cx="507.0" cy="36.0" r="3" fill="#4aa3ff"/><circle cx="510.0" cy="36.0" r="3" fill="#4aa3ff"/><circle cx="513.0" cy="36.0" r="3" fill="#4aa3ff"/><circle cx="516.1" cy="36.0" r="3" fill="#4aa3ff"/><circle cx="519.1" cy="36.0" r="3" fill="#4aa3ff"/><circle cx="522.1" cy="36.0" r="3" fill="#4aa3ff"/><circle cx="525.1" cy="36.0" r="3" fill="#4aa3ff"/><circle cx="528.1" cy="36.0" r="3" fill="#4aa3ff"/><circle cx="531.2" cy="36.0" r="3" fill="#4aa3ff"/><circle cx="534.2" cy="36.0" r="3" fill="#4aa3ff"/><circle cx="537.2" cy="36.0" r="3" fill="#4aa3ff"/><circle cx="540.2" cy="36.0" r="3" fill="#4aa3ff"/><circle cx="543.2" cy="36.0" r="3" fill="#4aa3ff"/><circle cx="546.2" cy="36.0" r="3" fill="#4aa3ff"/><circle cx="549.3" cy="36.0" r="3" fill="#4aa3ff"/><circle cx="552.3" cy="36.0" r="3" fill="#4aa3ff"/><circle cx="555.3" cy="36.0" r="3" fill="#4aa3ff"/><circle cx="558.3" cy="36.0" r="3" fill="#4aa3ff"/><circle cx="561.3" cy="36.0" r="3" fill="#4aa3ff"/><circle cx="564.4" cy="36.0" r="3" fill="#4aa3ff"/><circle cx="567.4" cy="36.0" r="3" fill="#4aa3ff"/><circle cx="570.4" cy="36.0" r="3" fill="#4aa3ff"/><circle cx="573.4" cy="36.0" r="3" fill="#4aa3ff"/><circle cx="576.4" cy="36.0" r="3" fill="#4aa3ff"/><circle cx="579.5" cy="36.0" r="3" fill="#4aa3ff"/><circle cx="582.5" cy="36.0" r="3" fill="#4aa3ff"/><circle cx="585.5" cy="36.0" r="3" fill="#4aa3ff"/><circle cx="588.5" cy="36.0" r="3" fill="#4aa3ff"/><circle cx="591.5" cy="36.0" r="3" fill="#4aa3ff"/><circle cx="594.6" cy="36.0" r="3" fill="#4aa3ff"/><circle cx="597.6" cy="36.0" r="3" fill="#4aa3ff"/><circle cx="600.6" cy="36.0" r="3" fill="#4aa3ff"/><circle cx="603.6" cy="36.0" r="3" fill="#4aa3ff"/><circle cx="606.6" cy="36.0" r="3" fill="#4aa3ff"/><circle cx="609.7" cy="36.0" r="3" fill="#4aa3ff"/><circle cx="612.7" cy="36.0" r="3" fill="#4aa3ff"/><circle cx="615.7" cy="36.0" r="3" fill="#4aa3ff"/><circle cx="618.7" cy="36.0" r="3" fill="#4aa3ff"/><circle cx="621.7" cy="36.0" r="3" fill="#4aa3ff"/><circle cx="624.8" cy="36.0" r="3" fill="#4aa3ff"/><circle cx="627.8" cy="36.0" r="3" fill="#4aa3ff"/><circle cx="630.8" cy="36.0" r="3" fill="#4aa3ff"/><circle cx="633.8" cy="36.0" r="3" fill="#4aa3ff"/><circle cx="636.8" cy="36.0" r="3" fill="#4aa3ff"/><circle cx="639.8" cy="36.0" r="3" fill="#4aa3ff"/><circle cx="642.9" cy="36.0" r="3" fill="#4aa3ff"/><circle cx="645.9" cy="36.0" r="3" fill="#4aa3ff"/><circle cx="648.9" cy="36.0" r="3" fill="#4aa3ff"/><circle cx="651.9" cy="36.0" r="3" fill="#4aa3ff"/><circle cx="654.9" cy="36.0" r="3" fill="#4aa3ff"/><circle cx="658.0" cy="36.0" r="3" fill="#4aa3ff"/><circle cx="661.0" cy="36.0" r="3" fill="#4aa3ff"/><circle cx="664.0" cy="36.0" r="3" fill="#4aa3ff"/>
<text x="36" y="225" fill="#6b7280" font-size="11">2026-06-26</text>
<text x="664" y="225" fill="#6b7280" font-size="11" text-anchor="end">2026-07-17</text>
<text x="36" y="212" font-family="system-ui,sans-serif" font-size="11">
<tspan fill="#4aa3ff">&#9679; open FPs</tspan>  <tspan fill="#3fb950">&#9679; closed (Anthropic acting)</tspan>  <tspan fill="#8a5a5a">&#9679; harness withdrawn</tspan></text>
<text x="664" y="22" text-anchor="end" font-family="system-ui,sans-serif" font-size="12">
<tspan fill="#4aa3ff">open 800</tspan>  <tspan fill="#3fb950">closed 0</tspan>  <tspan fill="#8a5a5a">harness 0</tspan></text>
</svg>