<svg xmlns="http://www.w3.org/2000/svg" width="700" height="234" viewBox="0 0 700 234" role="img">
<rect width="700" height="234" rx="12" fill="#16181d"/>
<text x="36" y="22" fill="#e8eaed" font-family="system-ui,sans-serif" font-size="14" font-weight="700">Is Anthropic acting? cyber/aup false positives over time</text>
<line x1="36" y1="198.0" x2="664" y2="198.0" stroke="#2a2e37" stroke-width="1"/><text x="30" y="202.0" fill="#6b7280" font-size="11" text-anchor="end">0</text><line x1="36" y1="117.0" x2="664" y2="117.0" stroke="#2a2e37" stroke-width="1"/><text x="30" y="121.0" fill="#6b7280" font-size="11" text-anchor="end">400</text><line x1="36" y1="36.0" x2="664" y2="36.0" stroke="#2a2e37" stroke-width="1"/><text x="30" y="40.0" fill="#6b7280" font-size="11" text-anchor="end">800</text>

<polyline fill="none" stroke="#8a5a5a" stroke-width="2.5" stroke-linejoin="round" points="36.0,145.1 41.0,145.1 46.0,145.1 51.1,145.1 56.1,145.1 61.1,145.1 66.1,145.1 71.2,145.1 76.2,145.1 81.2,145.1 86.2,145.1 91.3,145.1 96.3,145.1 101.3,145.1 106.3,145.1 111.4,145.1 116.4,145.1 121.4,145.1 126.4,145.1 131.5,145.1 136.5,145.1 141.5,145.1 146.5,145.1 151.6,145.1 156.6,145.1 161.6,145.1 166.6,145.1 171.6,145.1 176.7,145.1 181.7,145.1 186.7,145.1 191.7,145.1 196.8,145.1 201.8,145.1 206.8,145.1 211.8,145.1 216.9,145.1 221.9,145.1 226.9,145.1 231.9,145.1 237.0,145.1 242.0,145.1 247.0,145.1 252.0,145.1 257.1,145.1 262.1,145.1 267.1,145.1 272.1,145.1 277.2,145.1 282.2,145.1 287.2,155.7 292.2,155.7 297.2,155.7 302.3,155.7 307.3,155.7 312.3,155.7 317.3,155.7 322.4,155.7 327.4,155.7 332.4,155.7 337.4,155.7 342.5,155.7 347.5,155.7 352.5,155.7 357.5,155.7 362.6,155.7 367.6,155.7 372.6,155.7 377.6,155.7 382.7,155.7 387.7,155.7 392.7,155.7 397.7,155.7 402.8,155.7 407.8,155.7 412.8,155.7 417.8,155.7 422.8,155.7 427.9,155.7 432.9,155.7 437.9,155.7 442.9,155.7 448.0,155.7 453.0,155.7 458.0,167.6 463.0,167.6 468.1,170.3 473.1,170.3 478.1,170.5 483.1,170.7 488.2,170.7 493.2,170.9 498.2,172.7 503.2,180.6 508.3,181.8 513.3,189.1 518.3,190.5 523.3,195.2 528.4,198.0 533.4,198.0 538.4,198.0 543.4,198.0 548.4,198.0 553.5,198.0 558.5,198.0 563.5,198.0 568.5,198.0 573.6,198.0 578.6,198.0 583.6,198.0 588.6,198.0 593.7,198.0 598.7,198.0 603.7,198.0 608.7,198.0 613.8,198.0 618.8,198.0 623.8,198.0 628.8,198.0 633.9,198.0 638.9,198.0 643.9,198.0 648.9,198.0 654.0,198.0 659.0,198.0 664.0,198.0"/><circle cx="36.0" cy="145.1" r="3" fill="#8a5a5a"/><circle cx="41.0" cy="145.1" r="3" fill="#8a5a5a"/><circle cx="46.0" cy="145.1" r="3" fill="#8a5a5a"/><circle cx="51.1" cy="145.1" r="3" fill="#8a5a5a"/><circle cx="56.1" cy="145.1" r="3" fill="#8a5a5a"/><circle cx="61.1" cy="145.1" r="3" fill="#8a5a5a"/><circle cx="66.1" cy="145.1" r="3" fill="#8a5a5a"/><circle cx="71.2" cy="145.1" r="3" fill="#8a5a5a"/><circle cx="76.2" cy="145.1" r="3" fill="#8a5a5a"/><circle cx="81.2" cy="145.1" r="3" fill="#8a5a5a"/><circle cx="86.2" cy="145.1" r="3" fill="#8a5a5a"/><circle cx="91.3" cy="145.1" r="3" fill="#8a5a5a"/><circle cx="96.3" cy="145.1" r="3" fill="#8a5a5a"/><circle cx="101.3" cy="145.1" r="3" fill="#8a5a5a"/><circle cx="106.3" cy="145.1" r="3" fill="#8a5a5a"/><circle cx="111.4" cy="145.1" r="3" fill="#8a5a5a"/><circle cx="116.4" cy="145.1" r="3" fill="#8a5a5a"/><circle cx="121.4" cy="145.1" r="3" fill="#8a5a5a"/><circle cx="126.4" cy="145.1" r="3" fill="#8a5a5a"/><circle cx="131.5" cy="145.1" r="3" fill="#8a5a5a"/><circle cx="136.5" cy="145.1" r="3" fill="#8a5a5a"/><circle cx="141.5" cy="145.1" r="3" fill="#8a5a5a"/><circle cx="146.5" cy="145.1" r="3" fill="#8a5a5a"/><circle cx="151.6" cy="145.1" r="3" fill="#8a5a5a"/><circle cx="156.6" cy="145.1" r="3" fill="#8a5a5a"/><circle cx="161.6" cy="145.1" r="3" fill="#8a5a5a"/><circle cx="166.6" cy="145.1" r="3" fill="#8a5a5a"/><circle cx="171.6" cy="145.1" r="3" fill="#8a5a5a"/><circle cx="176.7" cy="145.1" r="3" fill="#8a5a5a"/><circle cx="181.7" cy="145.1" r="3" fill="#8a5a5a"/><circle cx="186.7" cy="145.1" r="3" fill="#8a5a5a"/><circle cx="191.7" cy="145.1" r="3" fill="#8a5a5a"/><circle cx="196.8" cy="145.1" r="3" fill="#8a5a5a"/><circle cx="201.8" cy="145.1" r="3" fill="#8a5a5a"/><circle cx="206.8" cy="145.1" r="3" fill="#8a5a5a"/><circle cx="211.8" cy="145.1" r="3" fill="#8a5a5a"/><circle cx="216.9" cy="145.1" r="3" fill="#8a5a5a"/><circle cx="221.9" cy="145.1" r="3" fill="#8a5a5a"/><circle cx="226.9" cy="145.1" r="3" fill="#8a5a5a"/><circle cx="231.9" cy="145.1" r="3" fill="#8a5a5a"/><circle cx="237.0" cy="145.1" r="3" fill="#8a5a5a"/><circle cx="242.0" cy="145.1" r="3" fill="#8a5a5a"/><circle cx="247.0" cy="145.1" r="3" fill="#8a5a5a"/><circle cx="252.0" cy="145.1" r="3" fill="#8a5a5a"/><circle cx="257.1" cy="145.1" r="3" fill="#8a5a5a"/><circle cx="262.1" cy="145.1" r="3" fill="#8a5a5a"/><circle cx="267.1" cy="145.1" r="3" fill="#8a5a5a"/><circle cx="272.1" cy="145.1" r="3" fill="#8a5a5a"/><circle cx="277.2" cy="145.1" r="3" fill="#8a5a5a"/><circle cx="282.2" cy="145.1" r="3" fill="#8a5a5a"/><circle cx="287.2" cy="155.7" r="3" fill="#8a5a5a"/><circle cx="292.2" cy="155.7" r="3" fill="#8a5a5a"/><circle cx="297.2" cy="155.7" r="3" fill="#8a5a5a"/><circle cx="302.3" cy="155.7" r="3" fill="#8a5a5a"/><circle cx="307.3" cy="155.7" r="3" fill="#8a5a5a"/><circle cx="312.3" cy="155.7" r="3" fill="#8a5a5a"/><circle cx="317.3" cy="155.7" r="3" fill="#8a5a5a"/><circle cx="322.4" cy="155.7" r="3" fill="#8a5a5a"/><circle cx="327.4" cy="155.7" r="3" fill="#8a5a5a"/><circle cx="332.4" cy="155.7" r="3" fill="#8a5a5a"/><circle cx="337.4" cy="155.7" r="3" fill="#8a5a5a"/><circle cx="342.5" cy="155.7" r="3" fill="#8a5a5a"/><circle cx="347.5" cy="155.7" r="3" fill="#8a5a5a"/><circle cx="352.5" cy="155.7" r="3" fill="#8a5a5a"/><circle cx="357.5" cy="155.7" r="3" fill="#8a5a5a"/><circle cx="362.6" cy="155.7" r="3" fill="#8a5a5a"/><circle cx="367.6" cy="155.7" r="3" fill="#8a5a5a"/><circle cx="372.6" cy="155.7" r="3" fill="#8a5a5a"/><circle cx="377.6" cy="155.7" r="3" fill="#8a5a5a"/><circle cx="382.7" cy="155.7" r="3" fill="#8a5a5a"/><circle cx="387.7" cy="155.7" r="3" fill="#8a5a5a"/><circle cx="392.7" cy="155.7" r="3" fill="#8a5a5a"/><circle cx="397.7" cy="155.7" r="3" fill="#8a5a5a"/><circle cx="402.8" cy="155.7" r="3" fill="#8a5a5a"/><circle cx="407.8" cy="155.7" r="3" fill="#8a5a5a"/><circle cx="412.8" cy="155.7" r="3" fill="#8a5a5a"/><circle cx="417.8" cy="155.7" r="3" fill="#8a5a5a"/><circle cx="422.8" cy="155.7" r="3" fill="#8a5a5a"/><circle cx="427.9" cy="155.7" r="3" fill="#8a5a5a"/><circle cx="432.9" cy="155.7" r="3" fill="#8a5a5a"/><circle cx="437.9" cy="155.7" r="3" fill="#8a5a5a"/><circle cx="442.9" cy="155.7" r="3" fill="#8a5a5a"/><circle cx="448.0" cy="155.7" r="3" fill="#8a5a5a"/><circle cx="453.0" cy="155.7" r="3" fill="#8a5a5a"/><circle cx="458.0" cy="167.6" r="3" fill="#8a5a5a"/><circle cx="463.0" cy="167.6" r="3" fill="#8a5a5a"/><circle cx="468.1" cy="170.3" r="3" fill="#8a5a5a"/><circle cx="473.1" cy="170.3" r="3" fill="#8a5a5a"/><circle cx="478.1" cy="170.5" r="3" fill="#8a5a5a"/><circle cx="483.1" cy="170.7" r="3" fill="#8a5a5a"/><circle cx="488.2" cy="170.7" r="3" fill="#8a5a5a"/><circle cx="493.2" cy="170.9" r="3" fill="#8a5a5a"/><circle cx="498.2" cy="172.7" r="3" fill="#8a5a5a"/><circle cx="503.2" cy="180.6" r="3" fill="#8a5a5a"/><circle cx="508.3" cy="181.8" r="3" fill="#8a5a5a"/><circle cx="513.3" cy="189.1" r="3" fill="#8a5a5a"/><circle cx="518.3" cy="190.5" r="3" fill="#8a5a5a"/><circle cx="523.3" cy="195.2" r="3" fill="#8a5a5a"/><circle cx="528.4" cy="198.0" r="3" fill="#8a5a5a"/><circle cx="533.4" cy="198.0" r="3" fill="#8a5a5a"/><circle cx="538.4" cy="198.0" r="3" fill="#8a5a5a"/><circle cx="543.4" cy="198.0" r="3" fill="#8a5a5a"/><circle cx="548.4" cy="198.0" r="3" fill="#8a5a5a"/><circle cx="553.5" cy="198.0" r="3" fill="#8a5a5a"/><circle cx="558.5" cy="198.0" r="3" fill="#8a5a5a"/><circle cx="563.5" cy="198.0" r="3" fill="#8a5a5a"/><circle cx="568.5" cy="198.0" r="3" fill="#8a5a5a"/><circle cx="573.6" cy="198.0" r="3" fill="#8a5a5a"/><circle cx="578.6" cy="198.0" r="3" fill="#8a5a5a"/><circle cx="583.6" cy="198.0" r="3" fill="#8a5a5a"/><circle cx="588.6" cy="198.0" r="3" fill="#8a5a5a"/><circle cx="593.7" cy="198.0" r="3" fill="#8a5a5a"/><circle cx="598.7" cy="198.0" r="3" fill="#8a5a5a"/><circle cx="603.7" cy="198.0" r="3" fill="#8a5a5a"/><circle cx="608.7" cy="198.0" r="3" fill="#8a5a5a"/><circle cx="613.8" cy="198.0" r="3" fill="#8a5a5a"/><circle cx="618.8" cy="198.0" r="3" fill="#8a5a5a"/><circle cx="623.8" cy="198.0" r="3" fill="#8a5a5a"/><circle cx="628.8" cy="198.0" r="3" fill="#8a5a5a"/><circle cx="633.9" cy="198.0" r="3" fill="#8a5a5a"/><circle cx="638.9" cy="198.0" r="3" fill="#8a5a5a"/><circle cx="643.9" cy="198.0" r="3" fill="#8a5a5a"/><circle cx="648.9" cy="198.0" r="3" fill="#8a5a5a"/><circle cx="654.0" cy="198.0" r="3" fill="#8a5a5a"/><circle cx="659.0" cy="198.0" r="3" fill="#8a5a5a"/><circle cx="664.0" cy="198.0" r="3" fill="#8a5a5a"/>
<polyline fill="none" stroke="#3fb950" stroke-width="2.5" stroke-linejoin="round" points="36.0,198.0 41.0,198.0 46.0,198.0 51.1,198.0 56.1,198.0 61.1,198.0 66.1,198.0 71.2,198.0 76.2,198.0 81.2,198.0 86.2,198.0 91.3,198.0 96.3,198.0 101.3,198.0 106.3,198.0 111.4,198.0 116.4,198.0 121.4,198.0 126.4,198.0 131.5,198.0 136.5,198.0 141.5,198.0 146.5,198.0 151.6,198.0 156.6,198.0 161.6,198.0 166.6,198.0 171.6,198.0 176.7,198.0 181.7,198.0 186.7,198.0 191.7,198.0 196.8,198.0 201.8,198.0 206.8,198.0 211.8,198.0 216.9,198.0 221.9,198.0 226.9,198.0 231.9,198.0 237.0,198.0 242.0,198.0 247.0,198.0 252.0,191.7 257.1,191.7 262.1,191.7 267.1,191.7 272.1,191.7 277.2,191.7 282.2,191.7 287.2,192.9 292.2,192.9 297.2,190.7 302.3,190.7 307.3,190.7 312.3,190.7 317.3,190.7 322.4,190.5 327.4,190.5 332.4,190.5 337.4,190.3 342.5,190.3 347.5,190.3 352.5,190.3 357.5,190.3 362.6,190.3 367.6,190.3 372.6,190.3 377.6,190.3 382.7,190.3 387.7,190.3 392.7,190.3 397.7,190.3 402.8,190.3 407.8,190.3 412.8,190.3 417.8,190.3 422.8,190.3 427.9,190.3 432.9,190.3 437.9,190.3 442.9,189.3 448.0,189.3 453.0,189.3 458.0,190.7 463.0,190.7 468.1,190.7 473.1,190.7 478.1,190.7 483.1,190.7 488.2,190.7 493.2,190.7 498.2,190.7 503.2,190.9 508.3,190.9 513.3,190.9 518.3,194.2 523.3,196.8 528.4,198.0 533.4,198.0 538.4,198.0 543.4,198.0 548.4,198.0 553.5,198.0 558.5,198.0 563.5,198.0 568.5,198.0 573.6,198.0 578.6,198.0 583.6,198.0 588.6,198.0 593.7,198.0 598.7,198.0 603.7,198.0 608.7,198.0 613.8,198.0 618.8,198.0 623.8,198.0 628.8,198.0 633.9,198.0 638.9,198.0 643.9,198.0 648.9,198.0 654.0,198.0 659.0,198.0 664.0,198.0"/><circle cx="36.0" cy="198.0" r="3" fill="#3fb950"/><circle cx="41.0" cy="198.0" r="3" fill="#3fb950"/><circle cx="46.0" cy="198.0" r="3" fill="#3fb950"/><circle cx="51.1" cy="198.0" r="3" fill="#3fb950"/><circle cx="56.1" cy="198.0" r="3" fill="#3fb950"/><circle cx="61.1" cy="198.0" r="3" fill="#3fb950"/><circle cx="66.1" cy="198.0" r="3" fill="#3fb950"/><circle cx="71.2" cy="198.0" r="3" fill="#3fb950"/><circle cx="76.2" cy="198.0" r="3" fill="#3fb950"/><circle cx="81.2" cy="198.0" r="3" fill="#3fb950"/><circle cx="86.2" cy="198.0" r="3" fill="#3fb950"/><circle cx="91.3" cy="198.0" r="3" fill="#3fb950"/><circle cx="96.3" cy="198.0" r="3" fill="#3fb950"/><circle cx="101.3" cy="198.0" r="3" fill="#3fb950"/><circle cx="106.3" cy="198.0" r="3" fill="#3fb950"/><circle cx="111.4" cy="198.0" r="3" fill="#3fb950"/><circle cx="116.4" cy="198.0" r="3" fill="#3fb950"/><circle cx="121.4" cy="198.0" r="3" fill="#3fb950"/><circle cx="126.4" cy="198.0" r="3" fill="#3fb950"/><circle cx="131.5" cy="198.0" r="3" fill="#3fb950"/><circle cx="136.5" cy="198.0" r="3" fill="#3fb950"/><circle cx="141.5" cy="198.0" r="3" fill="#3fb950"/><circle cx="146.5" cy="198.0" r="3" fill="#3fb950"/><circle cx="151.6" cy="198.0" r="3" fill="#3fb950"/><circle cx="156.6" cy="198.0" r="3" fill="#3fb950"/><circle cx="161.6" cy="198.0" r="3" fill="#3fb950"/><circle cx="166.6" cy="198.0" r="3" fill="#3fb950"/><circle cx="171.6" cy="198.0" r="3" fill="#3fb950"/><circle cx="176.7" cy="198.0" r="3" fill="#3fb950"/><circle cx="181.7" cy="198.0" r="3" fill="#3fb950"/><circle cx="186.7" cy="198.0" r="3" fill="#3fb950"/><circle cx="191.7" cy="198.0" r="3" fill="#3fb950"/><circle cx="196.8" cy="198.0" r="3" fill="#3fb950"/><circle cx="201.8" cy="198.0" r="3" fill="#3fb950"/><circle cx="206.8" cy="198.0" r="3" fill="#3fb950"/><circle cx="211.8" cy="198.0" r="3" fill="#3fb950"/><circle cx="216.9" cy="198.0" r="3" fill="#3fb950"/><circle cx="221.9" cy="198.0" r="3" fill="#3fb950"/><circle cx="226.9" cy="198.0" r="3" fill="#3fb950"/><circle cx="231.9" cy="198.0" r="3" fill="#3fb950"/><circle cx="237.0" cy="198.0" r="3" fill="#3fb950"/><circle cx="242.0" cy="198.0" r="3" fill="#3fb950"/><circle cx="247.0" cy="198.0" r="3" fill="#3fb950"/><circle cx="252.0" cy="191.7" r="3" fill="#3fb950"/><circle cx="257.1" cy="191.7" r="3" fill="#3fb950"/><circle cx="262.1" cy="191.7" r="3" fill="#3fb950"/><circle cx="267.1" cy="191.7" r="3" fill="#3fb950"/><circle cx="272.1" cy="191.7" r="3" fill="#3fb950"/><circle cx="277.2" cy="191.7" r="3" fill="#3fb950"/><circle cx="282.2" cy="191.7" r="3" fill="#3fb950"/><circle cx="287.2" cy="192.9" r="3" fill="#3fb950"/><circle cx="292.2" cy="192.9" r="3" fill="#3fb950"/><circle cx="297.2" cy="190.7" r="3" fill="#3fb950"/><circle cx="302.3" cy="190.7" r="3" fill="#3fb950"/><circle cx="307.3" cy="190.7" r="3" fill="#3fb950"/><circle cx="312.3" cy="190.7" r="3" fill="#3fb950"/><circle cx="317.3" cy="190.7" r="3" fill="#3fb950"/><circle cx="322.4" cy="190.5" r="3" fill="#3fb950"/><circle cx="327.4" cy="190.5" r="3" fill="#3fb950"/><circle cx="332.4" cy="190.5" r="3" fill="#3fb950"/><circle cx="337.4" cy="190.3" r="3" fill="#3fb950"/><circle cx="342.5" cy="190.3" r="3" fill="#3fb950"/><circle cx="347.5" cy="190.3" r="3" fill="#3fb950"/><circle cx="352.5" cy="190.3" r="3" fill="#3fb950"/><circle cx="357.5" cy="190.3" r="3" fill="#3fb950"/><circle cx="362.6" cy="190.3" r="3" fill="#3fb950"/><circle cx="367.6" cy="190.3" r="3" fill="#3fb950"/><circle cx="372.6" cy="190.3" r="3" fill="#3fb950"/><circle cx="377.6" cy="190.3" r="3" fill="#3fb950"/><circle cx="382.7" cy="190.3" r="3" fill="#3fb950"/><circle cx="387.7" cy="190.3" r="3" fill="#3fb950"/><circle cx="392.7" cy="190.3" r="3" fill="#3fb950"/><circle cx="397.7" cy="190.3" r="3" fill="#3fb950"/><circle cx="402.8" cy="190.3" r="3" fill="#3fb950"/><circle cx="407.8" cy="190.3" r="3" fill="#3fb950"/><circle cx="412.8" cy="190.3" r="3" fill="#3fb950"/><circle cx="417.8" cy="190.3" r="3" fill="#3fb950"/><circle cx="422.8" cy="190.3" r="3" fill="#3fb950"/><circle cx="427.9" cy="190.3" r="3" fill="#3fb950"/><circle cx="432.9" cy="190.3" r="3" fill="#3fb950"/><circle cx="437.9" cy="190.3" r="3" fill="#3fb950"/><circle cx="442.9" cy="189.3" r="3" fill="#3fb950"/><circle cx="448.0" cy="189.3" r="3" fill="#3fb950"/><circle cx="453.0" cy="189.3" r="3" fill="#3fb950"/><circle cx="458.0" cy="190.7" r="3" fill="#3fb950"/><circle cx="463.0" cy="190.7" r="3" fill="#3fb950"/><circle cx="468.1" cy="190.7" r="3" fill="#3fb950"/><circle cx="473.1" cy="190.7" r="3" fill="#3fb950"/><circle cx="478.1" cy="190.7" r="3" fill="#3fb950"/><circle cx="483.1" cy="190.7" r="3" fill="#3fb950"/><circle cx="488.2" cy="190.7" r="3" fill="#3fb950"/><circle cx="493.2" cy="190.7" r="3" fill="#3fb950"/><circle cx="498.2" cy="190.7" r="3" fill="#3fb950"/><circle cx="503.2" cy="190.9" r="3" fill="#3fb950"/><circle cx="508.3" cy="190.9" r="3" fill="#3fb950"/><circle cx="513.3" cy="190.9" r="3" fill="#3fb950"/><circle cx="518.3" cy="194.2" r="3" fill="#3fb950"/><circle cx="523.3" cy="196.8" r="3" fill="#3fb950"/><circle cx="528.4" cy="198.0" r="3" fill="#3fb950"/><circle cx="533.4" cy="198.0" r="3" fill="#3fb950"/><circle cx="538.4" cy="198.0" r="3" fill="#3fb950"/><circle cx="543.4" cy="198.0" r="3" fill="#3fb950"/><circle cx="548.4" cy="198.0" r="3" fill="#3fb950"/><circle cx="553.5" cy="198.0" r="3" fill="#3fb950"/><circle cx="558.5" cy="198.0" r="3" fill="#3fb950"/><circle cx="563.5" cy="198.0" r="3" fill="#3fb950"/><circle cx="568.5" cy="198.0" r="3" fill="#3fb950"/><circle cx="573.6" cy="198.0" r="3" fill="#3fb950"/><circle cx="578.6" cy="198.0" r="3" fill="#3fb950"/><circle cx="583.6" cy="198.0" r="3" fill="#3fb950"/><circle cx="588.6" cy="198.0" r="3" fill="#3fb950"/><circle cx="593.7" cy="198.0" r="3" fill="#3fb950"/><circle cx="598.7" cy="198.0" r="3" fill="#3fb950"/><circle cx="603.7" cy="198.0" r="3" fill="#3fb950"/><circle cx="608.7" cy="198.0" r="3" fill="#3fb950"/><circle cx="613.8" cy="198.0" r="3" fill="#3fb950"/><circle cx="618.8" cy="198.0" r="3" fill="#3fb950"/><circle cx="623.8" cy="198.0" r="3" fill="#3fb950"/><circle cx="628.8" cy="198.0" r="3" fill="#3fb950"/><circle cx="633.9" cy="198.0" r="3" fill="#3fb950"/><circle cx="638.9" cy="198.0" r="3" fill="#3fb950"/><circle cx="643.9" cy="198.0" r="3" fill="#3fb950"/><circle cx="648.9" cy="198.0" r="3" fill="#3fb950"/><circle cx="654.0" cy="198.0" r="3" fill="#3fb950"/><circle cx="659.0" cy="198.0" r="3" fill="#3fb950"/><circle cx="664.0" cy="198.0" r="3" fill="#3fb950"/>
<polyline fill="none" stroke="#4aa3ff" stroke-width="2.5" stroke-linejoin="round" points="36.0,144.3 41.0,144.3 46.0,144.3 51.1,144.3 56.1,144.3 61.1,144.3 66.1,144.3 71.2,144.3 76.2,144.3 81.2,144.3 86.2,144.3 91.3,144.3 96.3,144.3 101.3,144.3 106.3,144.3 111.4,136.2 116.4,132.4 121.4,129.6 126.4,129.6 131.5,121.0 136.5,121.0 141.5,121.0 146.5,114.4 151.6,114.4 156.6,114.4 161.6,111.3 166.6,110.9 171.6,110.9 176.7,110.5 181.7,110.5 186.7,109.9 191.7,108.7 196.8,107.3 201.8,106.9 206.8,106.9 211.8,106.9 216.9,106.9 221.9,106.9 226.9,106.9 231.9,106.9 237.0,106.9 242.0,106.9 247.0,106.9 252.0,113.2 257.1,113.2 262.1,113.2 267.1,113.2 272.1,113.2 277.2,110.7 282.2,105.3 287.2,83.4 292.2,83.4 297.2,85.6 302.3,85.6 307.3,85.6 312.3,85.6 317.3,85.6 322.4,85.8 327.4,85.8 332.4,85.8 337.4,86.0 342.5,86.0 347.5,86.0 352.5,86.0 357.5,86.0 362.6,86.0 367.6,86.0 372.6,86.0 377.6,86.0 382.7,86.0 387.7,86.0 392.7,86.0 397.7,86.0 402.8,86.0 407.8,86.0 412.8,86.0 417.8,86.0 422.8,86.0 427.9,86.0 432.9,86.0 437.9,86.0 442.9,87.0 448.0,87.0 453.0,87.0 458.0,73.7 463.0,73.7 468.1,71.0 473.1,71.0 478.1,70.8 483.1,70.6 488.2,70.6 493.2,70.4 498.2,68.6 503.2,60.5 508.3,59.3 513.3,52.0 518.3,47.3 523.3,40.1 528.4,36.0 533.4,36.0 538.4,36.0 543.4,36.0 548.4,36.0 553.5,36.0 558.5,36.0 563.5,36.0 568.5,36.0 573.6,36.0 578.6,36.0 583.6,36.0 588.6,36.0 593.7,36.0 598.7,36.0 603.7,36.0 608.7,36.0 613.8,36.0 618.8,36.0 623.8,36.0 628.8,36.0 633.9,36.0 638.9,36.0 643.9,36.0 648.9,36.0 654.0,36.0 659.0,36.0 664.0,36.0"/><circle cx="36.0" cy="144.3" r="3" fill="#4aa3ff"/><circle cx="41.0" cy="144.3" r="3" fill="#4aa3ff"/><circle cx="46.0" cy="144.3" r="3" fill="#4aa3ff"/><circle cx="51.1" cy="144.3" r="3" fill="#4aa3ff"/><circle cx="56.1" cy="144.3" r="3" fill="#4aa3ff"/><circle cx="61.1" cy="144.3" r="3" fill="#4aa3ff"/><circle cx="66.1" cy="144.3" r="3" fill="#4aa3ff"/><circle cx="71.2" cy="144.3" r="3" fill="#4aa3ff"/><circle cx="76.2" cy="144.3" r="3" fill="#4aa3ff"/><circle cx="81.2" cy="144.3" r="3" fill="#4aa3ff"/><circle cx="86.2" cy="144.3" r="3" fill="#4aa3ff"/><circle cx="91.3" cy="144.3" r="3" fill="#4aa3ff"/><circle cx="96.3" cy="144.3" r="3" fill="#4aa3ff"/><circle cx="101.3" cy="144.3" r="3" fill="#4aa3ff"/><circle cx="106.3" cy="144.3" r="3" fill="#4aa3ff"/><circle cx="111.4" cy="136.2" r="3" fill="#4aa3ff"/><circle cx="116.4" cy="132.4" r="3" fill="#4aa3ff"/><circle cx="121.4" cy="129.6" r="3" fill="#4aa3ff"/><circle cx="126.4" cy="129.6" r="3" fill="#4aa3ff"/><circle cx="131.5" cy="121.0" r="3" fill="#4aa3ff"/><circle cx="136.5" cy="121.0" r="3" fill="#4aa3ff"/><circle cx="141.5" cy="121.0" r="3" fill="#4aa3ff"/><circle cx="146.5" cy="114.4" r="3" fill="#4aa3ff"/><circle cx="151.6" cy="114.4" r="3" fill="#4aa3ff"/><circle cx="156.6" cy="114.4" r="3" fill="#4aa3ff"/><circle cx="161.6" cy="111.3" r="3" fill="#4aa3ff"/><circle cx="166.6" cy="110.9" r="3" fill="#4aa3ff"/><circle cx="171.6" cy="110.9" r="3" fill="#4aa3ff"/><circle cx="176.7" cy="110.5" r="3" fill="#4aa3ff"/><circle cx="181.7" cy="110.5" r="3" fill="#4aa3ff"/><circle cx="186.7" cy="109.9" r="3" fill="#4aa3ff"/><circle cx="191.7" cy="108.7" r="3" fill="#4aa3ff"/><circle cx="196.8" cy="107.3" r="3" fill="#4aa3ff"/><circle cx="201.8" cy="106.9" r="3" fill="#4aa3ff"/><circle cx="206.8" cy="106.9" r="3" fill="#4aa3ff"/><circle cx="211.8" cy="106.9" r="3" fill="#4aa3ff"/><circle cx="216.9" cy="106.9" r="3" fill="#4aa3ff"/><circle cx="221.9" cy="106.9" r="3" fill="#4aa3ff"/><circle cx="226.9" cy="106.9" r="3" fill="#4aa3ff"/><circle cx="231.9" cy="106.9" r="3" fill="#4aa3ff"/><circle cx="237.0" cy="106.9" r="3" fill="#4aa3ff"/><circle cx="242.0" cy="106.9" r="3" fill="#4aa3ff"/><circle cx="247.0" cy="106.9" r="3" fill="#4aa3ff"/><circle cx="252.0" cy="113.2" r="3" fill="#4aa3ff"/><circle cx="257.1" cy="113.2" r="3" fill="#4aa3ff"/><circle cx="262.1" cy="113.2" r="3" fill="#4aa3ff"/><circle cx="267.1" cy="113.2" r="3" fill="#4aa3ff"/><circle cx="272.1" cy="113.2" r="3" fill="#4aa3ff"/><circle cx="277.2" cy="110.7" r="3" fill="#4aa3ff"/><circle cx="282.2" cy="105.3" r="3" fill="#4aa3ff"/><circle cx="287.2" cy="83.4" r="3" fill="#4aa3ff"/><circle cx="292.2" cy="83.4" r="3" fill="#4aa3ff"/><circle cx="297.2" cy="85.6" r="3" fill="#4aa3ff"/><circle cx="302.3" cy="85.6" r="3" fill="#4aa3ff"/><circle cx="307.3" cy="85.6" r="3" fill="#4aa3ff"/><circle cx="312.3" cy="85.6" r="3" fill="#4aa3ff"/><circle cx="317.3" cy="85.6" r="3" fill="#4aa3ff"/><circle cx="322.4" cy="85.8" r="3" fill="#4aa3ff"/><circle cx="327.4" cy="85.8" r="3" fill="#4aa3ff"/><circle cx="332.4" cy="85.8" r="3" fill="#4aa3ff"/><circle cx="337.4" cy="86.0" r="3" fill="#4aa3ff"/><circle cx="342.5" cy="86.0" r="3" fill="#4aa3ff"/><circle cx="347.5" cy="86.0" r="3" fill="#4aa3ff"/><circle cx="352.5" cy="86.0" r="3" fill="#4aa3ff"/><circle cx="357.5" cy="86.0" r="3" fill="#4aa3ff"/><circle cx="362.6" cy="86.0" r="3" fill="#4aa3ff"/><circle cx="367.6" cy="86.0" r="3" fill="#4aa3ff"/><circle cx="372.6" cy="86.0" r="3" fill="#4aa3ff"/><circle cx="377.6" cy="86.0" r="3" fill="#4aa3ff"/><circle cx="382.7" cy="86.0" r="3" fill="#4aa3ff"/><circle cx="387.7" cy="86.0" r="3" fill="#4aa3ff"/><circle cx="392.7" cy="86.0" r="3" fill="#4aa3ff"/><circle cx="397.7" cy="86.0" r="3" fill="#4aa3ff"/><circle cx="402.8" cy="86.0" r="3" fill="#4aa3ff"/><circle cx="407.8" cy="86.0" r="3" fill="#4aa3ff"/><circle cx="412.8" cy="86.0" r="3" fill="#4aa3ff"/><circle cx="417.8" cy="86.0" r="3" fill="#4aa3ff"/><circle cx="422.8" cy="86.0" r="3" fill="#4aa3ff"/><circle cx="427.9" cy="86.0" r="3" fill="#4aa3ff"/><circle cx="432.9" cy="86.0" r="3" fill="#4aa3ff"/><circle cx="437.9" cy="86.0" r="3" fill="#4aa3ff"/><circle cx="442.9" cy="87.0" r="3" fill="#4aa3ff"/><circle cx="448.0" cy="87.0" r="3" fill="#4aa3ff"/><circle cx="453.0" cy="87.0" r="3" fill="#4aa3ff"/><circle cx="458.0" cy="73.7" r="3" fill="#4aa3ff"/><circle cx="463.0" cy="73.7" r="3" fill="#4aa3ff"/><circle cx="468.1" cy="71.0" r="3" fill="#4aa3ff"/><circle cx="473.1" cy="71.0" r="3" fill="#4aa3ff"/><circle cx="478.1" cy="70.8" r="3" fill="#4aa3ff"/><circle cx="483.1" cy="70.6" r="3" fill="#4aa3ff"/><circle cx="488.2" cy="70.6" r="3" fill="#4aa3ff"/><circle cx="493.2" cy="70.4" r="3" fill="#4aa3ff"/><circle cx="498.2" cy="68.6" r="3" fill="#4aa3ff"/><circle cx="503.2" cy="60.5" r="3" fill="#4aa3ff"/><circle cx="508.3" cy="59.3" r="3" fill="#4aa3ff"/><circle cx="513.3" cy="52.0" r="3" fill="#4aa3ff"/><circle cx="518.3" cy="47.3" r="3" fill="#4aa3ff"/><circle cx="523.3" cy="40.1" r="3" fill="#4aa3ff"/><circle cx="528.4" cy="36.0" r="3" fill="#4aa3ff"/><circle cx="533.4" cy="36.0" r="3" fill="#4aa3ff"/><circle cx="538.4" cy="36.0" r="3" fill="#4aa3ff"/><circle cx="543.4" cy="36.0" r="3" fill="#4aa3ff"/><circle cx="548.4" cy="36.0" r="3" fill="#4aa3ff"/><circle cx="553.5" cy="36.0" r="3" fill="#4aa3ff"/><circle cx="558.5" cy="36.0" r="3" fill="#4aa3ff"/><circle cx="563.5" cy="36.0" r="3" fill="#4aa3ff"/><circle cx="568.5" cy="36.0" r="3" fill="#4aa3ff"/><circle cx="573.6" cy="36.0" r="3" fill="#4aa3ff"/><circle cx="578.6" cy="36.0" r="3" fill="#4aa3ff"/><circle cx="583.6" cy="36.0" r="3" fill="#4aa3ff"/><circle cx="588.6" cy="36.0" r="3" fill="#4aa3ff"/><circle cx="593.7" cy="36.0" r="3" fill="#4aa3ff"/><circle cx="598.7" cy="36.0" r="3" fill="#4aa3ff"/><circle cx="603.7" cy="36.0" r="3" fill="#4aa3ff"/><circle cx="608.7" cy="36.0" r="3" fill="#4aa3ff"/><circle cx="613.8" cy="36.0" r="3" fill="#4aa3ff"/><circle cx="618.8" cy="36.0" r="3" fill="#4aa3ff"/><circle cx="623.8" cy="36.0" r="3" fill="#4aa3ff"/><circle cx="628.8" cy="36.0" r="3" fill="#4aa3ff"/><circle cx="633.9" cy="36.0" r="3" fill="#4aa3ff"/><circle cx="638.9" cy="36.0" r="3" fill="#4aa3ff"/><circle cx="643.9" cy="36.0" r="3" fill="#4aa3ff"/><circle cx="648.9" cy="36.0" r="3" fill="#4aa3ff"/><circle cx="654.0" cy="36.0" r="3" fill="#4aa3ff"/><circle cx="659.0" cy="36.0" r="3" fill="#4aa3ff"/><circle cx="664.0" cy="36.0" r="3" fill="#4aa3ff"/>
<text x="36" y="225" fill="#6b7280" font-size="11">2026-06-26</text>
<text x="664" y="225" fill="#6b7280" font-size="11" text-anchor="end">2026-07-10</text>
<text x="36" y="212" font-family="system-ui,sans-serif" font-size="11">
<tspan fill="#4aa3ff">&#9679; open FPs</tspan>  <tspan fill="#3fb950">&#9679; closed (Anthropic acting)</tspan>  <tspan fill="#8a5a5a">&#9679; harness withdrawn</tspan></text>
<text x="664" y="22" text-anchor="end" font-family="system-ui,sans-serif" font-size="12">
<tspan fill="#4aa3ff">open 800</tspan>  <tspan fill="#3fb950">closed 0</tspan>  <tspan fill="#8a5a5a">harness 0</tspan></text>
</svg>