<svg xmlns="http://www.w3.org/2000/svg" width="700" height="234" viewBox="0 0 700 234" role="img">
<rect width="700" height="234" rx="12" fill="#16181d"/>
<text x="36" y="22" fill="#e8eaed" font-family="system-ui,sans-serif" font-size="14" font-weight="700">Is Anthropic acting? cyber/aup false positives over time</text>
<line x1="36" y1="198.0" x2="664" y2="198.0" stroke="#2a2e37" stroke-width="1"/><text x="30" y="202.0" fill="#6b7280" font-size="11" text-anchor="end">0</text><line x1="36" y1="117.0" x2="664" y2="117.0" stroke="#2a2e37" stroke-width="1"/><text x="30" y="121.0" fill="#6b7280" font-size="11" text-anchor="end">283</text><line x1="36" y1="36.0" x2="664" y2="36.0" stroke="#2a2e37" stroke-width="1"/><text x="30" y="40.0" fill="#6b7280" font-size="11" text-anchor="end">566</text>

<polyline fill="none" stroke="#8a5a5a" stroke-width="2.5" stroke-linejoin="round" points="36.0,123.3 47.2,123.3 58.4,123.3 69.6,123.3 80.9,123.3 92.1,123.3 103.3,123.3 114.5,123.3 125.7,123.3 136.9,123.3 148.1,123.3 159.4,123.3 170.6,123.3 181.8,123.3 193.0,123.3 204.2,123.3 215.4,123.3 226.6,123.3 237.9,123.3 249.1,123.3 260.3,123.3 271.5,123.3 282.7,123.3 293.9,123.3 305.1,123.3 316.4,123.3 327.6,123.3 338.8,123.3 350.0,123.3 361.2,123.3 372.4,123.3 383.6,123.3 394.9,123.3 406.1,123.3 417.3,123.3 428.5,123.3 439.7,123.3 450.9,123.3 462.1,123.3 473.4,123.3 484.6,123.3 495.8,123.3 507.0,123.3 518.2,123.3 529.4,123.3 540.6,123.3 551.9,123.3 563.1,123.3 574.3,123.3 585.5,123.3 596.7,138.2 607.9,138.2 619.1,138.2 630.4,138.2 641.6,138.2 652.8,138.2 664.0,138.2"/><circle cx="36.0" cy="123.3" r="3" fill="#8a5a5a"/><circle cx="47.2" cy="123.3" r="3" fill="#8a5a5a"/><circle cx="58.4" cy="123.3" r="3" fill="#8a5a5a"/><circle cx="69.6" cy="123.3" r="3" fill="#8a5a5a"/><circle cx="80.9" cy="123.3" r="3" fill="#8a5a5a"/><circle cx="92.1" cy="123.3" r="3" fill="#8a5a5a"/><circle cx="103.3" cy="123.3" r="3" fill="#8a5a5a"/><circle cx="114.5" cy="123.3" r="3" fill="#8a5a5a"/><circle cx="125.7" cy="123.3" r="3" fill="#8a5a5a"/><circle cx="136.9" cy="123.3" r="3" fill="#8a5a5a"/><circle cx="148.1" cy="123.3" r="3" fill="#8a5a5a"/><circle cx="159.4" cy="123.3" r="3" fill="#8a5a5a"/><circle cx="170.6" cy="123.3" r="3" fill="#8a5a5a"/><circle cx="181.8" cy="123.3" r="3" fill="#8a5a5a"/><circle cx="193.0" cy="123.3" r="3" fill="#8a5a5a"/><circle cx="204.2" cy="123.3" r="3" fill="#8a5a5a"/><circle cx="215.4" cy="123.3" r="3" fill="#8a5a5a"/><circle cx="226.6" cy="123.3" r="3" fill="#8a5a5a"/><circle cx="237.9" cy="123.3" r="3" fill="#8a5a5a"/><circle cx="249.1" cy="123.3" r="3" fill="#8a5a5a"/><circle cx="260.3" cy="123.3" r="3" fill="#8a5a5a"/><circle cx="271.5" cy="123.3" r="3" fill="#8a5a5a"/><circle cx="282.7" cy="123.3" r="3" fill="#8a5a5a"/><circle cx="293.9" cy="123.3" r="3" fill="#8a5a5a"/><circle cx="305.1" cy="123.3" r="3" fill="#8a5a5a"/><circle cx="316.4" cy="123.3" r="3" fill="#8a5a5a"/><circle cx="327.6" cy="123.3" r="3" fill="#8a5a5a"/><circle cx="338.8" cy="123.3" r="3" fill="#8a5a5a"/><circle cx="350.0" cy="123.3" r="3" fill="#8a5a5a"/><circle cx="361.2" cy="123.3" r="3" fill="#8a5a5a"/><circle cx="372.4" cy="123.3" r="3" fill="#8a5a5a"/><circle cx="383.6" cy="123.3" r="3" fill="#8a5a5a"/><circle cx="394.9" cy="123.3" r="3" fill="#8a5a5a"/><circle cx="406.1" cy="123.3" r="3" fill="#8a5a5a"/><circle cx="417.3" cy="123.3" r="3" fill="#8a5a5a"/><circle cx="428.5" cy="123.3" r="3" fill="#8a5a5a"/><circle cx="439.7" cy="123.3" r="3" fill="#8a5a5a"/><circle cx="450.9" cy="123.3" r="3" fill="#8a5a5a"/><circle cx="462.1" cy="123.3" r="3" fill="#8a5a5a"/><circle cx="473.4" cy="123.3" r="3" fill="#8a5a5a"/><circle cx="484.6" cy="123.3" r="3" fill="#8a5a5a"/><circle cx="495.8" cy="123.3" r="3" fill="#8a5a5a"/><circle cx="507.0" cy="123.3" r="3" fill="#8a5a5a"/><circle cx="518.2" cy="123.3" r="3" fill="#8a5a5a"/><circle cx="529.4" cy="123.3" r="3" fill="#8a5a5a"/><circle cx="540.6" cy="123.3" r="3" fill="#8a5a5a"/><circle cx="551.9" cy="123.3" r="3" fill="#8a5a5a"/><circle cx="563.1" cy="123.3" r="3" fill="#8a5a5a"/><circle cx="574.3" cy="123.3" r="3" fill="#8a5a5a"/><circle cx="585.5" cy="123.3" r="3" fill="#8a5a5a"/><circle cx="596.7" cy="138.2" r="3" fill="#8a5a5a"/><circle cx="607.9" cy="138.2" r="3" fill="#8a5a5a"/><circle cx="619.1" cy="138.2" r="3" fill="#8a5a5a"/><circle cx="630.4" cy="138.2" r="3" fill="#8a5a5a"/><circle cx="641.6" cy="138.2" r="3" fill="#8a5a5a"/><circle cx="652.8" cy="138.2" r="3" fill="#8a5a5a"/><circle cx="664.0" cy="138.2" r="3" fill="#8a5a5a"/>
<polyline fill="none" stroke="#3fb950" stroke-width="2.5" stroke-linejoin="round" points="36.0,198.0 47.2,198.0 58.4,198.0 69.6,198.0 80.9,198.0 92.1,198.0 103.3,198.0 114.5,198.0 125.7,198.0 136.9,198.0 148.1,198.0 159.4,198.0 170.6,198.0 181.8,198.0 193.0,198.0 204.2,198.0 215.4,198.0 226.6,198.0 237.9,198.0 249.1,198.0 260.3,198.0 271.5,198.0 282.7,198.0 293.9,198.0 305.1,198.0 316.4,198.0 327.6,198.0 338.8,198.0 350.0,198.0 361.2,198.0 372.4,198.0 383.6,198.0 394.9,198.0 406.1,198.0 417.3,198.0 428.5,198.0 439.7,198.0 450.9,198.0 462.1,198.0 473.4,198.0 484.6,198.0 495.8,198.0 507.0,198.0 518.2,189.1 529.4,189.1 540.6,189.1 551.9,189.1 563.1,189.1 574.3,189.1 585.5,189.1 596.7,190.8 607.9,190.8 619.1,187.7 630.4,187.7 641.6,187.7 652.8,187.7 664.0,187.7"/><circle cx="36.0" cy="198.0" r="3" fill="#3fb950"/><circle cx="47.2" cy="198.0" r="3" fill="#3fb950"/><circle cx="58.4" cy="198.0" r="3" fill="#3fb950"/><circle cx="69.6" cy="198.0" r="3" fill="#3fb950"/><circle cx="80.9" cy="198.0" r="3" fill="#3fb950"/><circle cx="92.1" cy="198.0" r="3" fill="#3fb950"/><circle cx="103.3" cy="198.0" r="3" fill="#3fb950"/><circle cx="114.5" cy="198.0" r="3" fill="#3fb950"/><circle cx="125.7" cy="198.0" r="3" fill="#3fb950"/><circle cx="136.9" cy="198.0" r="3" fill="#3fb950"/><circle cx="148.1" cy="198.0" r="3" fill="#3fb950"/><circle cx="159.4" cy="198.0" r="3" fill="#3fb950"/><circle cx="170.6" cy="198.0" r="3" fill="#3fb950"/><circle cx="181.8" cy="198.0" r="3" fill="#3fb950"/><circle cx="193.0" cy="198.0" r="3" fill="#3fb950"/><circle cx="204.2" cy="198.0" r="3" fill="#3fb950"/><circle cx="215.4" cy="198.0" r="3" fill="#3fb950"/><circle cx="226.6" cy="198.0" r="3" fill="#3fb950"/><circle cx="237.9" cy="198.0" r="3" fill="#3fb950"/><circle cx="249.1" cy="198.0" r="3" fill="#3fb950"/><circle cx="260.3" cy="198.0" r="3" fill="#3fb950"/><circle cx="271.5" cy="198.0" r="3" fill="#3fb950"/><circle cx="282.7" cy="198.0" r="3" fill="#3fb950"/><circle cx="293.9" cy="198.0" r="3" fill="#3fb950"/><circle cx="305.1" cy="198.0" r="3" fill="#3fb950"/><circle cx="316.4" cy="198.0" r="3" fill="#3fb950"/><circle cx="327.6" cy="198.0" r="3" fill="#3fb950"/><circle cx="338.8" cy="198.0" r="3" fill="#3fb950"/><circle cx="350.0" cy="198.0" r="3" fill="#3fb950"/><circle cx="361.2" cy="198.0" r="3" fill="#3fb950"/><circle cx="372.4" cy="198.0" r="3" fill="#3fb950"/><circle cx="383.6" cy="198.0" r="3" fill="#3fb950"/><circle cx="394.9" cy="198.0" r="3" fill="#3fb950"/><circle cx="406.1" cy="198.0" r="3" fill="#3fb950"/><circle cx="417.3" cy="198.0" r="3" fill="#3fb950"/><circle cx="428.5" cy="198.0" r="3" fill="#3fb950"/><circle cx="439.7" cy="198.0" r="3" fill="#3fb950"/><circle cx="450.9" cy="198.0" r="3" fill="#3fb950"/><circle cx="462.1" cy="198.0" r="3" fill="#3fb950"/><circle cx="473.4" cy="198.0" r="3" fill="#3fb950"/><circle cx="484.6" cy="198.0" r="3" fill="#3fb950"/><circle cx="495.8" cy="198.0" r="3" fill="#3fb950"/><circle cx="507.0" cy="198.0" r="3" fill="#3fb950"/><circle cx="518.2" cy="189.1" r="3" fill="#3fb950"/><circle cx="529.4" cy="189.1" r="3" fill="#3fb950"/><circle cx="540.6" cy="189.1" r="3" fill="#3fb950"/><circle cx="551.9" cy="189.1" r="3" fill="#3fb950"/><circle cx="563.1" cy="189.1" r="3" fill="#3fb950"/><circle cx="574.3" cy="189.1" r="3" fill="#3fb950"/><circle cx="585.5" cy="189.1" r="3" fill="#3fb950"/><circle cx="596.7" cy="190.8" r="3" fill="#3fb950"/><circle cx="607.9" cy="190.8" r="3" fill="#3fb950"/><circle cx="619.1" cy="187.7" r="3" fill="#3fb950"/><circle cx="630.4" cy="187.7" r="3" fill="#3fb950"/><circle cx="641.6" cy="187.7" r="3" fill="#3fb950"/><circle cx="652.8" cy="187.7" r="3" fill="#3fb950"/><circle cx="664.0" cy="187.7" r="3" fill="#3fb950"/>
<polyline fill="none" stroke="#4aa3ff" stroke-width="2.5" stroke-linejoin="round" points="36.0,122.2 47.2,122.2 58.4,122.2 69.6,122.2 80.9,122.2 92.1,122.2 103.3,122.2 114.5,122.2 125.7,122.2 136.9,122.2 148.1,122.2 159.4,122.2 170.6,122.2 181.8,122.2 193.0,122.2 204.2,110.7 215.4,105.3 226.6,101.3 237.9,101.3 249.1,89.2 260.3,89.2 271.5,89.2 282.7,79.8 293.9,79.8 305.1,79.8 316.4,75.5 327.6,74.9 338.8,74.9 350.0,74.4 361.2,74.4 372.4,73.5 383.6,71.8 394.9,69.8 406.1,69.2 417.3,69.2 428.5,69.2 439.7,69.2 450.9,69.2 462.1,69.2 473.4,69.2 484.6,69.2 495.8,69.2 507.0,69.2 518.2,78.1 529.4,78.1 540.6,78.1 551.9,78.1 563.1,78.1 574.3,74.6 585.5,66.9 596.7,36.0 607.9,36.0 619.1,39.1 630.4,39.1 641.6,39.1 652.8,39.1 664.0,39.1"/><circle cx="36.0" cy="122.2" r="3" fill="#4aa3ff"/><circle cx="47.2" cy="122.2" r="3" fill="#4aa3ff"/><circle cx="58.4" cy="122.2" r="3" fill="#4aa3ff"/><circle cx="69.6" cy="122.2" r="3" fill="#4aa3ff"/><circle cx="80.9" cy="122.2" r="3" fill="#4aa3ff"/><circle cx="92.1" cy="122.2" r="3" fill="#4aa3ff"/><circle cx="103.3" cy="122.2" r="3" fill="#4aa3ff"/><circle cx="114.5" cy="122.2" r="3" fill="#4aa3ff"/><circle cx="125.7" cy="122.2" r="3" fill="#4aa3ff"/><circle cx="136.9" cy="122.2" r="3" fill="#4aa3ff"/><circle cx="148.1" cy="122.2" r="3" fill="#4aa3ff"/><circle cx="159.4" cy="122.2" r="3" fill="#4aa3ff"/><circle cx="170.6" cy="122.2" r="3" fill="#4aa3ff"/><circle cx="181.8" cy="122.2" r="3" fill="#4aa3ff"/><circle cx="193.0" cy="122.2" r="3" fill="#4aa3ff"/><circle cx="204.2" cy="110.7" r="3" fill="#4aa3ff"/><circle cx="215.4" cy="105.3" r="3" fill="#4aa3ff"/><circle cx="226.6" cy="101.3" r="3" fill="#4aa3ff"/><circle cx="237.9" cy="101.3" r="3" fill="#4aa3ff"/><circle cx="249.1" cy="89.2" r="3" fill="#4aa3ff"/><circle cx="260.3" cy="89.2" r="3" fill="#4aa3ff"/><circle cx="271.5" cy="89.2" r="3" fill="#4aa3ff"/><circle cx="282.7" cy="79.8" r="3" fill="#4aa3ff"/><circle cx="293.9" cy="79.8" r="3" fill="#4aa3ff"/><circle cx="305.1" cy="79.8" r="3" fill="#4aa3ff"/><circle cx="316.4" cy="75.5" r="3" fill="#4aa3ff"/><circle cx="327.6" cy="74.9" r="3" fill="#4aa3ff"/><circle cx="338.8" cy="74.9" r="3" fill="#4aa3ff"/><circle cx="350.0" cy="74.4" r="3" fill="#4aa3ff"/><circle cx="361.2" cy="74.4" r="3" fill="#4aa3ff"/><circle cx="372.4" cy="73.5" r="3" fill="#4aa3ff"/><circle cx="383.6" cy="71.8" r="3" fill="#4aa3ff"/><circle cx="394.9" cy="69.8" r="3" fill="#4aa3ff"/><circle cx="406.1" cy="69.2" r="3" fill="#4aa3ff"/><circle cx="417.3" cy="69.2" r="3" fill="#4aa3ff"/><circle cx="428.5" cy="69.2" r="3" fill="#4aa3ff"/><circle cx="439.7" cy="69.2" r="3" fill="#4aa3ff"/><circle cx="450.9" cy="69.2" r="3" fill="#4aa3ff"/><circle cx="462.1" cy="69.2" r="3" fill="#4aa3ff"/><circle cx="473.4" cy="69.2" r="3" fill="#4aa3ff"/><circle cx="484.6" cy="69.2" r="3" fill="#4aa3ff"/><circle cx="495.8" cy="69.2" r="3" fill="#4aa3ff"/><circle cx="507.0" cy="69.2" r="3" fill="#4aa3ff"/><circle cx="518.2" cy="78.1" r="3" fill="#4aa3ff"/><circle cx="529.4" cy="78.1" r="3" fill="#4aa3ff"/><circle cx="540.6" cy="78.1" r="3" fill="#4aa3ff"/><circle cx="551.9" cy="78.1" r="3" fill="#4aa3ff"/><circle cx="563.1" cy="78.1" r="3" fill="#4aa3ff"/><circle cx="574.3" cy="74.6" r="3" fill="#4aa3ff"/><circle cx="585.5" cy="66.9" r="3" fill="#4aa3ff"/><circle cx="596.7" cy="36.0" r="3" fill="#4aa3ff"/><circle cx="607.9" cy="36.0" r="3" fill="#4aa3ff"/><circle cx="619.1" cy="39.1" r="3" fill="#4aa3ff"/><circle cx="630.4" cy="39.1" r="3" fill="#4aa3ff"/><circle cx="641.6" cy="39.1" r="3" fill="#4aa3ff"/><circle cx="652.8" cy="39.1" r="3" fill="#4aa3ff"/><circle cx="664.0" cy="39.1" r="3" fill="#4aa3ff"/>
<text x="36" y="225" fill="#6b7280" font-size="11">2026-06-26</text>
<text x="664" y="225" fill="#6b7280" font-size="11" text-anchor="end">2026-07-02</text>
<text x="36" y="212" font-family="system-ui,sans-serif" font-size="11">
<tspan fill="#4aa3ff">&#9679; open FPs</tspan>  <tspan fill="#3fb950">&#9679; closed (Anthropic acting)</tspan>  <tspan fill="#8a5a5a">&#9679; harness withdrawn</tspan></text>
<text x="664" y="22" text-anchor="end" font-family="system-ui,sans-serif" font-size="12">
<tspan fill="#4aa3ff">open 555</tspan>  <tspan fill="#3fb950">closed 36</tspan>  <tspan fill="#8a5a5a">harness 209</tspan></text>
</svg>