<svg xmlns="http://www.w3.org/2000/svg" width="700" height="234" viewBox="0 0 700 234" role="img">
<rect width="700" height="234" rx="12" fill="#16181d"/>
<text x="36" y="22" fill="#e8eaed" font-family="system-ui,sans-serif" font-size="14" font-weight="700">Is Anthropic acting? cyber/aup false positives over time</text>
<line x1="36" y1="198.0" x2="664" y2="198.0" stroke="#2a2e37" stroke-width="1"/><text x="30" y="202.0" fill="#6b7280" font-size="11" text-anchor="end">0</text><line x1="36" y1="117.0" x2="664" y2="117.0" stroke="#2a2e37" stroke-width="1"/><text x="30" y="121.0" fill="#6b7280" font-size="11" text-anchor="end">190</text><line x1="36" y1="36.0" x2="664" y2="36.0" stroke="#2a2e37" stroke-width="1"/><text x="30" y="40.0" fill="#6b7280" font-size="11" text-anchor="end">380</text>

<polyline fill="none" stroke="#8a5a5a" stroke-width="2.5" stroke-linejoin="round" points="36.0,86.7 65.9,86.7 95.8,86.7 125.7,86.7 155.6,86.7 185.5,86.7 215.4,86.7 245.3,86.7 275.2,86.7 305.1,86.7 335.0,86.7 365.0,86.7 394.9,86.7 424.8,86.7 454.7,86.7 484.6,86.7 514.5,86.7 544.4,86.7 574.3,86.7 604.2,86.7 634.1,86.7 664.0,86.7"/><circle cx="36.0" cy="86.7" r="3" fill="#8a5a5a"/><circle cx="65.9" cy="86.7" r="3" fill="#8a5a5a"/><circle cx="95.8" cy="86.7" r="3" fill="#8a5a5a"/><circle cx="125.7" cy="86.7" r="3" fill="#8a5a5a"/><circle cx="155.6" cy="86.7" r="3" fill="#8a5a5a"/><circle cx="185.5" cy="86.7" r="3" fill="#8a5a5a"/><circle cx="215.4" cy="86.7" r="3" fill="#8a5a5a"/><circle cx="245.3" cy="86.7" r="3" fill="#8a5a5a"/><circle cx="275.2" cy="86.7" r="3" fill="#8a5a5a"/><circle cx="305.1" cy="86.7" r="3" fill="#8a5a5a"/><circle cx="335.0" cy="86.7" r="3" fill="#8a5a5a"/><circle cx="365.0" cy="86.7" r="3" fill="#8a5a5a"/><circle cx="394.9" cy="86.7" r="3" fill="#8a5a5a"/><circle cx="424.8" cy="86.7" r="3" fill="#8a5a5a"/><circle cx="454.7" cy="86.7" r="3" fill="#8a5a5a"/><circle cx="484.6" cy="86.7" r="3" fill="#8a5a5a"/><circle cx="514.5" cy="86.7" r="3" fill="#8a5a5a"/><circle cx="544.4" cy="86.7" r="3" fill="#8a5a5a"/><circle cx="574.3" cy="86.7" r="3" fill="#8a5a5a"/><circle cx="604.2" cy="86.7" r="3" fill="#8a5a5a"/><circle cx="634.1" cy="86.7" r="3" fill="#8a5a5a"/><circle cx="664.0" cy="86.7" r="3" fill="#8a5a5a"/>
<polyline fill="none" stroke="#3fb950" stroke-width="2.5" stroke-linejoin="round" points="36.0,198.0 65.9,198.0 95.8,198.0 125.7,198.0 155.6,198.0 185.5,198.0 215.4,198.0 245.3,198.0 275.2,198.0 305.1,198.0 335.0,198.0 365.0,198.0 394.9,198.0 424.8,198.0 454.7,198.0 484.6,198.0 514.5,198.0 544.4,198.0 574.3,198.0 604.2,198.0 634.1,198.0 664.0,198.0"/><circle cx="36.0" cy="198.0" r="3" fill="#3fb950"/><circle cx="65.9" cy="198.0" r="3" fill="#3fb950"/><circle cx="95.8" cy="198.0" r="3" fill="#3fb950"/><circle cx="125.7" cy="198.0" r="3" fill="#3fb950"/><circle cx="155.6" cy="198.0" r="3" fill="#3fb950"/><circle cx="185.5" cy="198.0" r="3" fill="#3fb950"/><circle cx="215.4" cy="198.0" r="3" fill="#3fb950"/><circle cx="245.3" cy="198.0" r="3" fill="#3fb950"/><circle cx="275.2" cy="198.0" r="3" fill="#3fb950"/><circle cx="305.1" cy="198.0" r="3" fill="#3fb950"/><circle cx="335.0" cy="198.0" r="3" fill="#3fb950"/><circle cx="365.0" cy="198.0" r="3" fill="#3fb950"/><circle cx="394.9" cy="198.0" r="3" fill="#3fb950"/><circle cx="424.8" cy="198.0" r="3" fill="#3fb950"/><circle cx="454.7" cy="198.0" r="3" fill="#3fb950"/><circle cx="484.6" cy="198.0" r="3" fill="#3fb950"/><circle cx="514.5" cy="198.0" r="3" fill="#3fb950"/><circle cx="544.4" cy="198.0" r="3" fill="#3fb950"/><circle cx="574.3" cy="198.0" r="3" fill="#3fb950"/><circle cx="604.2" cy="198.0" r="3" fill="#3fb950"/><circle cx="634.1" cy="198.0" r="3" fill="#3fb950"/><circle cx="664.0" cy="198.0" r="3" fill="#3fb950"/>
<polyline fill="none" stroke="#4aa3ff" stroke-width="2.5" stroke-linejoin="round" points="36.0,85.0 65.9,85.0 95.8,85.0 125.7,85.0 155.6,85.0 185.5,85.0 215.4,85.0 245.3,85.0 275.2,85.0 305.1,85.0 335.0,85.0 365.0,85.0 394.9,85.0 424.8,85.0 454.7,85.0 484.6,68.0 514.5,59.9 544.4,53.9 574.3,53.9 604.2,36.0 634.1,36.0 664.0,36.0"/><circle cx="36.0" cy="85.0" r="3" fill="#4aa3ff"/><circle cx="65.9" cy="85.0" r="3" fill="#4aa3ff"/><circle cx="95.8" cy="85.0" r="3" fill="#4aa3ff"/><circle cx="125.7" cy="85.0" r="3" fill="#4aa3ff"/><circle cx="155.6" cy="85.0" r="3" fill="#4aa3ff"/><circle cx="185.5" cy="85.0" r="3" fill="#4aa3ff"/><circle cx="215.4" cy="85.0" r="3" fill="#4aa3ff"/><circle cx="245.3" cy="85.0" r="3" fill="#4aa3ff"/><circle cx="275.2" cy="85.0" r="3" fill="#4aa3ff"/><circle cx="305.1" cy="85.0" r="3" fill="#4aa3ff"/><circle cx="335.0" cy="85.0" r="3" fill="#4aa3ff"/><circle cx="365.0" cy="85.0" r="3" fill="#4aa3ff"/><circle cx="394.9" cy="85.0" r="3" fill="#4aa3ff"/><circle cx="424.8" cy="85.0" r="3" fill="#4aa3ff"/><circle cx="454.7" cy="85.0" r="3" fill="#4aa3ff"/><circle cx="484.6" cy="68.0" r="3" fill="#4aa3ff"/><circle cx="514.5" cy="59.9" r="3" fill="#4aa3ff"/><circle cx="544.4" cy="53.9" r="3" fill="#4aa3ff"/><circle cx="574.3" cy="53.9" r="3" fill="#4aa3ff"/><circle cx="604.2" cy="36.0" r="3" fill="#4aa3ff"/><circle cx="634.1" cy="36.0" r="3" fill="#4aa3ff"/><circle cx="664.0" cy="36.0" r="3" fill="#4aa3ff"/>
<text x="36" y="225" fill="#6b7280" font-size="11">2026-06-26</text>
<text x="664" y="225" fill="#6b7280" font-size="11" text-anchor="end">2026-06-28</text>
<text x="36" y="212" font-family="system-ui,sans-serif" font-size="11">
<tspan fill="#4aa3ff">&#9679; open FPs</tspan>  <tspan fill="#3fb950">&#9679; closed (Anthropic acting)</tspan>  <tspan fill="#8a5a5a">&#9679; harness withdrawn</tspan></text>
<text x="664" y="22" text-anchor="end" font-family="system-ui,sans-serif" font-size="12">
<tspan fill="#4aa3ff">open 380</tspan>  <tspan fill="#3fb950">closed 0</tspan>  <tspan fill="#8a5a5a">harness 261</tspan></text>
</svg>