<svg xmlns="http://www.w3.org/2000/svg" width="700" height="234" viewBox="0 0 700 234" role="img">
<rect width="700" height="234" rx="12" fill="#16181d"/>
<text x="36" y="22" fill="#e8eaed" font-family="system-ui,sans-serif" font-size="14" font-weight="700">Is Anthropic acting? cyber/aup false positives over time</text>
<line x1="36" y1="198.0" x2="664" y2="198.0" stroke="#2a2e37" stroke-width="1"/><text x="30" y="202.0" fill="#6b7280" font-size="11" text-anchor="end">0</text><line x1="36" y1="117.0" x2="664" y2="117.0" stroke="#2a2e37" stroke-width="1"/><text x="30" y="121.0" fill="#6b7280" font-size="11" text-anchor="end">400</text><line x1="36" y1="36.0" x2="664" y2="36.0" stroke="#2a2e37" stroke-width="1"/><text x="30" y="40.0" fill="#6b7280" font-size="11" text-anchor="end">800</text>

<polyline fill="none" stroke="#8a5a5a" stroke-width="2.5" stroke-linejoin="round" points="36.0,145.1 39.6,145.1 43.1,145.1 46.7,145.1 50.3,145.1 53.8,145.1 57.4,145.1 61.0,145.1 64.5,145.1 68.1,145.1 71.7,145.1 75.2,145.1 78.8,145.1 82.4,145.1 86.0,145.1 89.5,145.1 93.1,145.1 96.7,145.1 100.2,145.1 103.8,145.1 107.4,145.1 110.9,145.1 114.5,145.1 118.1,145.1 121.6,145.1 125.2,145.1 128.8,145.1 132.3,145.1 135.9,145.1 139.5,145.1 143.0,145.1 146.6,145.1 150.2,145.1 153.8,145.1 157.3,145.1 160.9,145.1 164.5,145.1 168.0,145.1 171.6,145.1 175.2,145.1 178.7,145.1 182.3,145.1 185.9,145.1 189.4,145.1 193.0,145.1 196.6,145.1 200.1,145.1 203.7,145.1 207.3,145.1 210.8,145.1 214.4,155.7 218.0,155.7 221.5,155.7 225.1,155.7 228.7,155.7 232.2,155.7 235.8,155.7 239.4,155.7 243.0,155.7 246.5,155.7 250.1,155.7 253.7,155.7 257.2,155.7 260.8,155.7 264.4,155.7 267.9,155.7 271.5,155.7 275.1,155.7 278.6,155.7 282.2,155.7 285.8,155.7 289.3,155.7 292.9,155.7 296.5,155.7 300.0,155.7 303.6,155.7 307.2,155.7 310.8,155.7 314.3,155.7 317.9,155.7 321.5,155.7 325.0,155.7 328.6,155.7 332.2,155.7 335.7,167.6 339.3,167.6 342.9,170.3 346.4,170.3 350.0,170.5 353.6,170.7 357.1,170.7 360.7,170.9 364.3,172.7 367.8,180.6 371.4,181.8 375.0,189.1 378.5,190.5 382.1,195.2 385.7,198.0 389.2,198.0 392.8,198.0 396.4,198.0 400.0,198.0 403.5,198.0 407.1,198.0 410.7,198.0 414.2,198.0 417.8,198.0 421.4,198.0 424.9,198.0 428.5,198.0 432.1,198.0 435.6,198.0 439.2,198.0 442.8,198.0 446.3,198.0 449.9,198.0 453.5,198.0 457.0,198.0 460.6,198.0 464.2,198.0 467.8,198.0 471.3,198.0 474.9,198.0 478.5,198.0 482.0,198.0 485.6,198.0 489.2,198.0 492.7,198.0 496.3,198.0 499.9,198.0 503.4,198.0 507.0,198.0 510.6,198.0 514.1,198.0 517.7,198.0 521.3,198.0 524.8,198.0 528.4,198.0 532.0,198.0 535.5,198.0 539.1,198.0 542.7,198.0 546.2,198.0 549.8,198.0 553.4,198.0 557.0,198.0 560.5,198.0 564.1,198.0 567.7,198.0 571.2,198.0 574.8,198.0 578.4,198.0 581.9,198.0 585.5,198.0 589.1,198.0 592.6,198.0 596.2,198.0 599.8,198.0 603.3,198.0 606.9,198.0 610.5,198.0 614.0,198.0 617.6,198.0 621.2,198.0 624.8,198.0 628.3,198.0 631.9,198.0 635.5,198.0 639.0,198.0 642.6,198.0 646.2,198.0 649.7,198.0 653.3,198.0 656.9,198.0 660.4,198.0 664.0,198.0"/><circle cx="36.0" cy="145.1" r="3" fill="#8a5a5a"/><circle cx="39.6" cy="145.1" r="3" fill="#8a5a5a"/><circle cx="43.1" cy="145.1" r="3" fill="#8a5a5a"/><circle cx="46.7" cy="145.1" r="3" fill="#8a5a5a"/><circle cx="50.3" cy="145.1" r="3" fill="#8a5a5a"/><circle cx="53.8" cy="145.1" r="3" fill="#8a5a5a"/><circle cx="57.4" cy="145.1" r="3" fill="#8a5a5a"/><circle cx="61.0" cy="145.1" r="3" fill="#8a5a5a"/><circle cx="64.5" cy="145.1" r="3" fill="#8a5a5a"/><circle cx="68.1" cy="145.1" r="3" fill="#8a5a5a"/><circle cx="71.7" cy="145.1" r="3" fill="#8a5a5a"/><circle cx="75.2" cy="145.1" r="3" fill="#8a5a5a"/><circle cx="78.8" cy="145.1" r="3" fill="#8a5a5a"/><circle cx="82.4" cy="145.1" r="3" fill="#8a5a5a"/><circle cx="86.0" cy="145.1" r="3" fill="#8a5a5a"/><circle cx="89.5" cy="145.1" r="3" fill="#8a5a5a"/><circle cx="93.1" cy="145.1" r="3" fill="#8a5a5a"/><circle cx="96.7" cy="145.1" r="3" fill="#8a5a5a"/><circle cx="100.2" cy="145.1" r="3" fill="#8a5a5a"/><circle cx="103.8" cy="145.1" r="3" fill="#8a5a5a"/><circle cx="107.4" cy="145.1" r="3" fill="#8a5a5a"/><circle cx="110.9" cy="145.1" r="3" fill="#8a5a5a"/><circle cx="114.5" cy="145.1" r="3" fill="#8a5a5a"/><circle cx="118.1" cy="145.1" r="3" fill="#8a5a5a"/><circle cx="121.6" cy="145.1" r="3" fill="#8a5a5a"/><circle cx="125.2" cy="145.1" r="3" fill="#8a5a5a"/><circle cx="128.8" cy="145.1" r="3" fill="#8a5a5a"/><circle cx="132.3" cy="145.1" r="3" fill="#8a5a5a"/><circle cx="135.9" cy="145.1" r="3" fill="#8a5a5a"/><circle cx="139.5" cy="145.1" r="3" fill="#8a5a5a"/><circle cx="143.0" cy="145.1" r="3" fill="#8a5a5a"/><circle cx="146.6" cy="145.1" r="3" fill="#8a5a5a"/><circle cx="150.2" cy="145.1" r="3" fill="#8a5a5a"/><circle cx="153.8" cy="145.1" r="3" fill="#8a5a5a"/><circle cx="157.3" cy="145.1" r="3" fill="#8a5a5a"/><circle cx="160.9" cy="145.1" r="3" fill="#8a5a5a"/><circle cx="164.5" cy="145.1" r="3" fill="#8a5a5a"/><circle cx="168.0" cy="145.1" r="3" fill="#8a5a5a"/><circle cx="171.6" cy="145.1" r="3" fill="#8a5a5a"/><circle cx="175.2" cy="145.1" r="3" fill="#8a5a5a"/><circle cx="178.7" cy="145.1" r="3" fill="#8a5a5a"/><circle cx="182.3" cy="145.1" r="3" fill="#8a5a5a"/><circle cx="185.9" cy="145.1" r="3" fill="#8a5a5a"/><circle cx="189.4" cy="145.1" r="3" fill="#8a5a5a"/><circle cx="193.0" cy="145.1" r="3" fill="#8a5a5a"/><circle cx="196.6" cy="145.1" r="3" fill="#8a5a5a"/><circle cx="200.1" cy="145.1" r="3" fill="#8a5a5a"/><circle cx="203.7" cy="145.1" r="3" fill="#8a5a5a"/><circle cx="207.3" cy="145.1" r="3" fill="#8a5a5a"/><circle cx="210.8" cy="145.1" r="3" fill="#8a5a5a"/><circle cx="214.4" cy="155.7" r="3" fill="#8a5a5a"/><circle cx="218.0" cy="155.7" r="3" fill="#8a5a5a"/><circle cx="221.5" cy="155.7" r="3" fill="#8a5a5a"/><circle cx="225.1" cy="155.7" r="3" fill="#8a5a5a"/><circle cx="228.7" cy="155.7" r="3" fill="#8a5a5a"/><circle cx="232.2" cy="155.7" r="3" fill="#8a5a5a"/><circle cx="235.8" cy="155.7" r="3" fill="#8a5a5a"/><circle cx="239.4" cy="155.7" r="3" fill="#8a5a5a"/><circle cx="243.0" cy="155.7" r="3" fill="#8a5a5a"/><circle cx="246.5" cy="155.7" r="3" fill="#8a5a5a"/><circle cx="250.1" cy="155.7" r="3" fill="#8a5a5a"/><circle cx="253.7" cy="155.7" r="3" fill="#8a5a5a"/><circle cx="257.2" cy="155.7" r="3" fill="#8a5a5a"/><circle cx="260.8" cy="155.7" r="3" fill="#8a5a5a"/><circle cx="264.4" cy="155.7" r="3" fill="#8a5a5a"/><circle cx="267.9" cy="155.7" r="3" fill="#8a5a5a"/><circle cx="271.5" cy="155.7" r="3" fill="#8a5a5a"/><circle cx="275.1" cy="155.7" r="3" fill="#8a5a5a"/><circle cx="278.6" cy="155.7" r="3" fill="#8a5a5a"/><circle cx="282.2" cy="155.7" r="3" fill="#8a5a5a"/><circle cx="285.8" cy="155.7" r="3" fill="#8a5a5a"/><circle cx="289.3" cy="155.7" r="3" fill="#8a5a5a"/><circle cx="292.9" cy="155.7" r="3" fill="#8a5a5a"/><circle cx="296.5" cy="155.7" r="3" fill="#8a5a5a"/><circle cx="300.0" cy="155.7" r="3" fill="#8a5a5a"/><circle cx="303.6" cy="155.7" r="3" fill="#8a5a5a"/><circle cx="307.2" cy="155.7" r="3" fill="#8a5a5a"/><circle cx="310.8" cy="155.7" r="3" fill="#8a5a5a"/><circle cx="314.3" cy="155.7" r="3" fill="#8a5a5a"/><circle cx="317.9" cy="155.7" r="3" fill="#8a5a5a"/><circle cx="321.5" cy="155.7" r="3" fill="#8a5a5a"/><circle cx="325.0" cy="155.7" r="3" fill="#8a5a5a"/><circle cx="328.6" cy="155.7" r="3" fill="#8a5a5a"/><circle cx="332.2" cy="155.7" r="3" fill="#8a5a5a"/><circle cx="335.7" cy="167.6" r="3" fill="#8a5a5a"/><circle cx="339.3" cy="167.6" r="3" fill="#8a5a5a"/><circle cx="342.9" cy="170.3" r="3" fill="#8a5a5a"/><circle cx="346.4" cy="170.3" r="3" fill="#8a5a5a"/><circle cx="350.0" cy="170.5" r="3" fill="#8a5a5a"/><circle cx="353.6" cy="170.7" r="3" fill="#8a5a5a"/><circle cx="357.1" cy="170.7" r="3" fill="#8a5a5a"/><circle cx="360.7" cy="170.9" r="3" fill="#8a5a5a"/><circle cx="364.3" cy="172.7" r="3" fill="#8a5a5a"/><circle cx="367.8" cy="180.6" r="3" fill="#8a5a5a"/><circle cx="371.4" cy="181.8" r="3" fill="#8a5a5a"/><circle cx="375.0" cy="189.1" r="3" fill="#8a5a5a"/><circle cx="378.5" cy="190.5" r="3" fill="#8a5a5a"/><circle cx="382.1" cy="195.2" r="3" fill="#8a5a5a"/><circle cx="385.7" cy="198.0" r="3" fill="#8a5a5a"/><circle cx="389.2" cy="198.0" r="3" fill="#8a5a5a"/><circle cx="392.8" cy="198.0" r="3" fill="#8a5a5a"/><circle cx="396.4" cy="198.0" r="3" fill="#8a5a5a"/><circle cx="400.0" cy="198.0" r="3" fill="#8a5a5a"/><circle cx="403.5" cy="198.0" r="3" fill="#8a5a5a"/><circle cx="407.1" cy="198.0" r="3" fill="#8a5a5a"/><circle cx="410.7" cy="198.0" r="3" fill="#8a5a5a"/><circle cx="414.2" cy="198.0" r="3" fill="#8a5a5a"/><circle cx="417.8" cy="198.0" r="3" fill="#8a5a5a"/><circle cx="421.4" cy="198.0" r="3" fill="#8a5a5a"/><circle cx="424.9" cy="198.0" r="3" fill="#8a5a5a"/><circle cx="428.5" cy="198.0" r="3" fill="#8a5a5a"/><circle cx="432.1" cy="198.0" r="3" fill="#8a5a5a"/><circle cx="435.6" cy="198.0" r="3" fill="#8a5a5a"/><circle cx="439.2" cy="198.0" r="3" fill="#8a5a5a"/><circle cx="442.8" cy="198.0" r="3" fill="#8a5a5a"/><circle cx="446.3" cy="198.0" r="3" fill="#8a5a5a"/><circle cx="449.9" cy="198.0" r="3" fill="#8a5a5a"/><circle cx="453.5" cy="198.0" r="3" fill="#8a5a5a"/><circle cx="457.0" cy="198.0" r="3" fill="#8a5a5a"/><circle cx="460.6" cy="198.0" r="3" fill="#8a5a5a"/><circle cx="464.2" cy="198.0" r="3" fill="#8a5a5a"/><circle cx="467.8" cy="198.0" r="3" fill="#8a5a5a"/><circle cx="471.3" cy="198.0" r="3" fill="#8a5a5a"/><circle cx="474.9" cy="198.0" r="3" fill="#8a5a5a"/><circle cx="478.5" cy="198.0" r="3" fill="#8a5a5a"/><circle cx="482.0" cy="198.0" r="3" fill="#8a5a5a"/><circle cx="485.6" cy="198.0" r="3" fill="#8a5a5a"/><circle cx="489.2" cy="198.0" r="3" fill="#8a5a5a"/><circle cx="492.7" cy="198.0" r="3" fill="#8a5a5a"/><circle cx="496.3" cy="198.0" r="3" fill="#8a5a5a"/><circle cx="499.9" cy="198.0" r="3" fill="#8a5a5a"/><circle cx="503.4" cy="198.0" r="3" fill="#8a5a5a"/><circle cx="507.0" cy="198.0" r="3" fill="#8a5a5a"/><circle cx="510.6" cy="198.0" r="3" fill="#8a5a5a"/><circle cx="514.1" cy="198.0" r="3" fill="#8a5a5a"/><circle cx="517.7" cy="198.0" r="3" fill="#8a5a5a"/><circle cx="521.3" cy="198.0" r="3" fill="#8a5a5a"/><circle cx="524.8" cy="198.0" r="3" fill="#8a5a5a"/><circle cx="528.4" cy="198.0" r="3" fill="#8a5a5a"/><circle cx="532.0" cy="198.0" r="3" fill="#8a5a5a"/><circle cx="535.5" cy="198.0" r="3" fill="#8a5a5a"/><circle cx="539.1" cy="198.0" r="3" fill="#8a5a5a"/><circle cx="542.7" cy="198.0" r="3" fill="#8a5a5a"/><circle cx="546.2" cy="198.0" r="3" fill="#8a5a5a"/><circle cx="549.8" cy="198.0" r="3" fill="#8a5a5a"/><circle cx="553.4" cy="198.0" r="3" fill="#8a5a5a"/><circle cx="557.0" cy="198.0" r="3" fill="#8a5a5a"/><circle cx="560.5" cy="198.0" r="3" fill="#8a5a5a"/><circle cx="564.1" cy="198.0" r="3" fill="#8a5a5a"/><circle cx="567.7" cy="198.0" r="3" fill="#8a5a5a"/><circle cx="571.2" cy="198.0" r="3" fill="#8a5a5a"/><circle cx="574.8" cy="198.0" r="3" fill="#8a5a5a"/><circle cx="578.4" cy="198.0" r="3" fill="#8a5a5a"/><circle cx="581.9" cy="198.0" r="3" fill="#8a5a5a"/><circle cx="585.5" cy="198.0" r="3" fill="#8a5a5a"/><circle cx="589.1" cy="198.0" r="3" fill="#8a5a5a"/><circle cx="592.6" cy="198.0" r="3" fill="#8a5a5a"/><circle cx="596.2" cy="198.0" r="3" fill="#8a5a5a"/><circle cx="599.8" cy="198.0" r="3" fill="#8a5a5a"/><circle cx="603.3" cy="198.0" r="3" fill="#8a5a5a"/><circle cx="606.9" cy="198.0" r="3" fill="#8a5a5a"/><circle cx="610.5" cy="198.0" r="3" fill="#8a5a5a"/><circle cx="614.0" cy="198.0" r="3" fill="#8a5a5a"/><circle cx="617.6" cy="198.0" r="3" fill="#8a5a5a"/><circle cx="621.2" cy="198.0" r="3" fill="#8a5a5a"/><circle cx="624.8" cy="198.0" r="3" fill="#8a5a5a"/><circle cx="628.3" cy="198.0" r="3" fill="#8a5a5a"/><circle cx="631.9" cy="198.0" r="3" fill="#8a5a5a"/><circle cx="635.5" cy="198.0" r="3" fill="#8a5a5a"/><circle cx="639.0" cy="198.0" r="3" fill="#8a5a5a"/><circle cx="642.6" cy="198.0" r="3" fill="#8a5a5a"/><circle cx="646.2" cy="198.0" r="3" fill="#8a5a5a"/><circle cx="649.7" cy="198.0" r="3" fill="#8a5a5a"/><circle cx="653.3" cy="198.0" r="3" fill="#8a5a5a"/><circle cx="656.9" cy="198.0" r="3" fill="#8a5a5a"/><circle cx="660.4" cy="198.0" r="3" fill="#8a5a5a"/><circle cx="664.0" cy="198.0" r="3" fill="#8a5a5a"/>
<polyline fill="none" stroke="#3fb950" stroke-width="2.5" stroke-linejoin="round" points="36.0,198.0 39.6,198.0 43.1,198.0 46.7,198.0 50.3,198.0 53.8,198.0 57.4,198.0 61.0,198.0 64.5,198.0 68.1,198.0 71.7,198.0 75.2,198.0 78.8,198.0 82.4,198.0 86.0,198.0 89.5,198.0 93.1,198.0 96.7,198.0 100.2,198.0 103.8,198.0 107.4,198.0 110.9,198.0 114.5,198.0 118.1,198.0 121.6,198.0 125.2,198.0 128.8,198.0 132.3,198.0 135.9,198.0 139.5,198.0 143.0,198.0 146.6,198.0 150.2,198.0 153.8,198.0 157.3,198.0 160.9,198.0 164.5,198.0 168.0,198.0 171.6,198.0 175.2,198.0 178.7,198.0 182.3,198.0 185.9,198.0 189.4,191.7 193.0,191.7 196.6,191.7 200.1,191.7 203.7,191.7 207.3,191.7 210.8,191.7 214.4,192.9 218.0,192.9 221.5,190.7 225.1,190.7 228.7,190.7 232.2,190.7 235.8,190.7 239.4,190.5 243.0,190.5 246.5,190.5 250.1,190.3 253.7,190.3 257.2,190.3 260.8,190.3 264.4,190.3 267.9,190.3 271.5,190.3 275.1,190.3 278.6,190.3 282.2,190.3 285.8,190.3 289.3,190.3 292.9,190.3 296.5,190.3 300.0,190.3 303.6,190.3 307.2,190.3 310.8,190.3 314.3,190.3 317.9,190.3 321.5,190.3 325.0,189.3 328.6,189.3 332.2,189.3 335.7,190.7 339.3,190.7 342.9,190.7 346.4,190.7 350.0,190.7 353.6,190.7 357.1,190.7 360.7,190.7 364.3,190.7 367.8,190.9 371.4,190.9 375.0,190.9 378.5,194.2 382.1,196.8 385.7,198.0 389.2,198.0 392.8,198.0 396.4,198.0 400.0,198.0 403.5,198.0 407.1,198.0 410.7,198.0 414.2,198.0 417.8,198.0 421.4,198.0 424.9,198.0 428.5,198.0 432.1,198.0 435.6,198.0 439.2,198.0 442.8,198.0 446.3,198.0 449.9,198.0 453.5,198.0 457.0,198.0 460.6,198.0 464.2,198.0 467.8,198.0 471.3,198.0 474.9,198.0 478.5,198.0 482.0,198.0 485.6,198.0 489.2,198.0 492.7,198.0 496.3,198.0 499.9,198.0 503.4,198.0 507.0,198.0 510.6,198.0 514.1,198.0 517.7,198.0 521.3,198.0 524.8,198.0 528.4,198.0 532.0,198.0 535.5,198.0 539.1,198.0 542.7,198.0 546.2,198.0 549.8,198.0 553.4,198.0 557.0,198.0 560.5,198.0 564.1,198.0 567.7,198.0 571.2,198.0 574.8,198.0 578.4,198.0 581.9,198.0 585.5,198.0 589.1,198.0 592.6,198.0 596.2,198.0 599.8,198.0 603.3,198.0 606.9,198.0 610.5,198.0 614.0,198.0 617.6,198.0 621.2,198.0 624.8,198.0 628.3,198.0 631.9,198.0 635.5,198.0 639.0,198.0 642.6,198.0 646.2,198.0 649.7,198.0 653.3,198.0 656.9,198.0 660.4,198.0 664.0,198.0"/><circle cx="36.0" cy="198.0" r="3" fill="#3fb950"/><circle cx="39.6" cy="198.0" r="3" fill="#3fb950"/><circle cx="43.1" cy="198.0" r="3" fill="#3fb950"/><circle cx="46.7" cy="198.0" r="3" fill="#3fb950"/><circle cx="50.3" cy="198.0" r="3" fill="#3fb950"/><circle cx="53.8" cy="198.0" r="3" fill="#3fb950"/><circle cx="57.4" cy="198.0" r="3" fill="#3fb950"/><circle cx="61.0" cy="198.0" r="3" fill="#3fb950"/><circle cx="64.5" cy="198.0" r="3" fill="#3fb950"/><circle cx="68.1" cy="198.0" r="3" fill="#3fb950"/><circle cx="71.7" cy="198.0" r="3" fill="#3fb950"/><circle cx="75.2" cy="198.0" r="3" fill="#3fb950"/><circle cx="78.8" cy="198.0" r="3" fill="#3fb950"/><circle cx="82.4" cy="198.0" r="3" fill="#3fb950"/><circle cx="86.0" cy="198.0" r="3" fill="#3fb950"/><circle cx="89.5" cy="198.0" r="3" fill="#3fb950"/><circle cx="93.1" cy="198.0" r="3" fill="#3fb950"/><circle cx="96.7" cy="198.0" r="3" fill="#3fb950"/><circle cx="100.2" cy="198.0" r="3" fill="#3fb950"/><circle cx="103.8" cy="198.0" r="3" fill="#3fb950"/><circle cx="107.4" cy="198.0" r="3" fill="#3fb950"/><circle cx="110.9" cy="198.0" r="3" fill="#3fb950"/><circle cx="114.5" cy="198.0" r="3" fill="#3fb950"/><circle cx="118.1" cy="198.0" r="3" fill="#3fb950"/><circle cx="121.6" cy="198.0" r="3" fill="#3fb950"/><circle cx="125.2" cy="198.0" r="3" fill="#3fb950"/><circle cx="128.8" cy="198.0" r="3" fill="#3fb950"/><circle cx="132.3" cy="198.0" r="3" fill="#3fb950"/><circle cx="135.9" cy="198.0" r="3" fill="#3fb950"/><circle cx="139.5" cy="198.0" r="3" fill="#3fb950"/><circle cx="143.0" cy="198.0" r="3" fill="#3fb950"/><circle cx="146.6" cy="198.0" r="3" fill="#3fb950"/><circle cx="150.2" cy="198.0" r="3" fill="#3fb950"/><circle cx="153.8" cy="198.0" r="3" fill="#3fb950"/><circle cx="157.3" cy="198.0" r="3" fill="#3fb950"/><circle cx="160.9" cy="198.0" r="3" fill="#3fb950"/><circle cx="164.5" cy="198.0" r="3" fill="#3fb950"/><circle cx="168.0" cy="198.0" r="3" fill="#3fb950"/><circle cx="171.6" cy="198.0" r="3" fill="#3fb950"/><circle cx="175.2" cy="198.0" r="3" fill="#3fb950"/><circle cx="178.7" cy="198.0" r="3" fill="#3fb950"/><circle cx="182.3" cy="198.0" r="3" fill="#3fb950"/><circle cx="185.9" cy="198.0" r="3" fill="#3fb950"/><circle cx="189.4" cy="191.7" r="3" fill="#3fb950"/><circle cx="193.0" cy="191.7" r="3" fill="#3fb950"/><circle cx="196.6" cy="191.7" r="3" fill="#3fb950"/><circle cx="200.1" cy="191.7" r="3" fill="#3fb950"/><circle cx="203.7" cy="191.7" r="3" fill="#3fb950"/><circle cx="207.3" cy="191.7" r="3" fill="#3fb950"/><circle cx="210.8" cy="191.7" r="3" fill="#3fb950"/><circle cx="214.4" cy="192.9" r="3" fill="#3fb950"/><circle cx="218.0" cy="192.9" r="3" fill="#3fb950"/><circle cx="221.5" cy="190.7" r="3" fill="#3fb950"/><circle cx="225.1" cy="190.7" r="3" fill="#3fb950"/><circle cx="228.7" cy="190.7" r="3" fill="#3fb950"/><circle cx="232.2" cy="190.7" r="3" fill="#3fb950"/><circle cx="235.8" cy="190.7" r="3" fill="#3fb950"/><circle cx="239.4" cy="190.5" r="3" fill="#3fb950"/><circle cx="243.0" cy="190.5" r="3" fill="#3fb950"/><circle cx="246.5" cy="190.5" r="3" fill="#3fb950"/><circle cx="250.1" cy="190.3" r="3" fill="#3fb950"/><circle cx="253.7" cy="190.3" r="3" fill="#3fb950"/><circle cx="257.2" cy="190.3" r="3" fill="#3fb950"/><circle cx="260.8" cy="190.3" r="3" fill="#3fb950"/><circle cx="264.4" cy="190.3" r="3" fill="#3fb950"/><circle cx="267.9" cy="190.3" r="3" fill="#3fb950"/><circle cx="271.5" cy="190.3" r="3" fill="#3fb950"/><circle cx="275.1" cy="190.3" r="3" fill="#3fb950"/><circle cx="278.6" cy="190.3" r="3" fill="#3fb950"/><circle cx="282.2" cy="190.3" r="3" fill="#3fb950"/><circle cx="285.8" cy="190.3" r="3" fill="#3fb950"/><circle cx="289.3" cy="190.3" r="3" fill="#3fb950"/><circle cx="292.9" cy="190.3" r="3" fill="#3fb950"/><circle cx="296.5" cy="190.3" r="3" fill="#3fb950"/><circle cx="300.0" cy="190.3" r="3" fill="#3fb950"/><circle cx="303.6" cy="190.3" r="3" fill="#3fb950"/><circle cx="307.2" cy="190.3" r="3" fill="#3fb950"/><circle cx="310.8" cy="190.3" r="3" fill="#3fb950"/><circle cx="314.3" cy="190.3" r="3" fill="#3fb950"/><circle cx="317.9" cy="190.3" r="3" fill="#3fb950"/><circle cx="321.5" cy="190.3" r="3" fill="#3fb950"/><circle cx="325.0" cy="189.3" r="3" fill="#3fb950"/><circle cx="328.6" cy="189.3" r="3" fill="#3fb950"/><circle cx="332.2" cy="189.3" r="3" fill="#3fb950"/><circle cx="335.7" cy="190.7" r="3" fill="#3fb950"/><circle cx="339.3" cy="190.7" r="3" fill="#3fb950"/><circle cx="342.9" cy="190.7" r="3" fill="#3fb950"/><circle cx="346.4" cy="190.7" r="3" fill="#3fb950"/><circle cx="350.0" cy="190.7" r="3" fill="#3fb950"/><circle cx="353.6" cy="190.7" r="3" fill="#3fb950"/><circle cx="357.1" cy="190.7" r="3" fill="#3fb950"/><circle cx="360.7" cy="190.7" r="3" fill="#3fb950"/><circle cx="364.3" cy="190.7" r="3" fill="#3fb950"/><circle cx="367.8" cy="190.9" r="3" fill="#3fb950"/><circle cx="371.4" cy="190.9" r="3" fill="#3fb950"/><circle cx="375.0" cy="190.9" r="3" fill="#3fb950"/><circle cx="378.5" cy="194.2" r="3" fill="#3fb950"/><circle cx="382.1" cy="196.8" r="3" fill="#3fb950"/><circle cx="385.7" cy="198.0" r="3" fill="#3fb950"/><circle cx="389.2" cy="198.0" r="3" fill="#3fb950"/><circle cx="392.8" cy="198.0" r="3" fill="#3fb950"/><circle cx="396.4" cy="198.0" r="3" fill="#3fb950"/><circle cx="400.0" cy="198.0" r="3" fill="#3fb950"/><circle cx="403.5" cy="198.0" r="3" fill="#3fb950"/><circle cx="407.1" cy="198.0" r="3" fill="#3fb950"/><circle cx="410.7" cy="198.0" r="3" fill="#3fb950"/><circle cx="414.2" cy="198.0" r="3" fill="#3fb950"/><circle cx="417.8" cy="198.0" r="3" fill="#3fb950"/><circle cx="421.4" cy="198.0" r="3" fill="#3fb950"/><circle cx="424.9" cy="198.0" r="3" fill="#3fb950"/><circle cx="428.5" cy="198.0" r="3" fill="#3fb950"/><circle cx="432.1" cy="198.0" r="3" fill="#3fb950"/><circle cx="435.6" cy="198.0" r="3" fill="#3fb950"/><circle cx="439.2" cy="198.0" r="3" fill="#3fb950"/><circle cx="442.8" cy="198.0" r="3" fill="#3fb950"/><circle cx="446.3" cy="198.0" r="3" fill="#3fb950"/><circle cx="449.9" cy="198.0" r="3" fill="#3fb950"/><circle cx="453.5" cy="198.0" r="3" fill="#3fb950"/><circle cx="457.0" cy="198.0" r="3" fill="#3fb950"/><circle cx="460.6" cy="198.0" r="3" fill="#3fb950"/><circle cx="464.2" cy="198.0" r="3" fill="#3fb950"/><circle cx="467.8" cy="198.0" r="3" fill="#3fb950"/><circle cx="471.3" cy="198.0" r="3" fill="#3fb950"/><circle cx="474.9" cy="198.0" r="3" fill="#3fb950"/><circle cx="478.5" cy="198.0" r="3" fill="#3fb950"/><circle cx="482.0" cy="198.0" r="3" fill="#3fb950"/><circle cx="485.6" cy="198.0" r="3" fill="#3fb950"/><circle cx="489.2" cy="198.0" r="3" fill="#3fb950"/><circle cx="492.7" cy="198.0" r="3" fill="#3fb950"/><circle cx="496.3" cy="198.0" r="3" fill="#3fb950"/><circle cx="499.9" cy="198.0" r="3" fill="#3fb950"/><circle cx="503.4" cy="198.0" r="3" fill="#3fb950"/><circle cx="507.0" cy="198.0" r="3" fill="#3fb950"/><circle cx="510.6" cy="198.0" r="3" fill="#3fb950"/><circle cx="514.1" cy="198.0" r="3" fill="#3fb950"/><circle cx="517.7" cy="198.0" r="3" fill="#3fb950"/><circle cx="521.3" cy="198.0" r="3" fill="#3fb950"/><circle cx="524.8" cy="198.0" r="3" fill="#3fb950"/><circle cx="528.4" cy="198.0" r="3" fill="#3fb950"/><circle cx="532.0" cy="198.0" r="3" fill="#3fb950"/><circle cx="535.5" cy="198.0" r="3" fill="#3fb950"/><circle cx="539.1" cy="198.0" r="3" fill="#3fb950"/><circle cx="542.7" cy="198.0" r="3" fill="#3fb950"/><circle cx="546.2" cy="198.0" r="3" fill="#3fb950"/><circle cx="549.8" cy="198.0" r="3" fill="#3fb950"/><circle cx="553.4" cy="198.0" r="3" fill="#3fb950"/><circle cx="557.0" cy="198.0" r="3" fill="#3fb950"/><circle cx="560.5" cy="198.0" r="3" fill="#3fb950"/><circle cx="564.1" cy="198.0" r="3" fill="#3fb950"/><circle cx="567.7" cy="198.0" r="3" fill="#3fb950"/><circle cx="571.2" cy="198.0" r="3" fill="#3fb950"/><circle cx="574.8" cy="198.0" r="3" fill="#3fb950"/><circle cx="578.4" cy="198.0" r="3" fill="#3fb950"/><circle cx="581.9" cy="198.0" r="3" fill="#3fb950"/><circle cx="585.5" cy="198.0" r="3" fill="#3fb950"/><circle cx="589.1" cy="198.0" r="3" fill="#3fb950"/><circle cx="592.6" cy="198.0" r="3" fill="#3fb950"/><circle cx="596.2" cy="198.0" r="3" fill="#3fb950"/><circle cx="599.8" cy="198.0" r="3" fill="#3fb950"/><circle cx="603.3" cy="198.0" r="3" fill="#3fb950"/><circle cx="606.9" cy="198.0" r="3" fill="#3fb950"/><circle cx="610.5" cy="198.0" r="3" fill="#3fb950"/><circle cx="614.0" cy="198.0" r="3" fill="#3fb950"/><circle cx="617.6" cy="198.0" r="3" fill="#3fb950"/><circle cx="621.2" cy="198.0" r="3" fill="#3fb950"/><circle cx="624.8" cy="198.0" r="3" fill="#3fb950"/><circle cx="628.3" cy="198.0" r="3" fill="#3fb950"/><circle cx="631.9" cy="198.0" r="3" fill="#3fb950"/><circle cx="635.5" cy="198.0" r="3" fill="#3fb950"/><circle cx="639.0" cy="198.0" r="3" fill="#3fb950"/><circle cx="642.6" cy="198.0" r="3" fill="#3fb950"/><circle cx="646.2" cy="198.0" r="3" fill="#3fb950"/><circle cx="649.7" cy="198.0" r="3" fill="#3fb950"/><circle cx="653.3" cy="198.0" r="3" fill="#3fb950"/><circle cx="656.9" cy="198.0" r="3" fill="#3fb950"/><circle cx="660.4" cy="198.0" r="3" fill="#3fb950"/><circle cx="664.0" cy="198.0" r="3" fill="#3fb950"/>
<polyline fill="none" stroke="#4aa3ff" stroke-width="2.5" stroke-linejoin="round" points="36.0,144.3 39.6,144.3 43.1,144.3 46.7,144.3 50.3,144.3 53.8,144.3 57.4,144.3 61.0,144.3 64.5,144.3 68.1,144.3 71.7,144.3 75.2,144.3 78.8,144.3 82.4,144.3 86.0,144.3 89.5,136.2 93.1,132.4 96.7,129.6 100.2,129.6 103.8,121.0 107.4,121.0 110.9,121.0 114.5,114.4 118.1,114.4 121.6,114.4 125.2,111.3 128.8,110.9 132.3,110.9 135.9,110.5 139.5,110.5 143.0,109.9 146.6,108.7 150.2,107.3 153.8,106.9 157.3,106.9 160.9,106.9 164.5,106.9 168.0,106.9 171.6,106.9 175.2,106.9 178.7,106.9 182.3,106.9 185.9,106.9 189.4,113.2 193.0,113.2 196.6,113.2 200.1,113.2 203.7,113.2 207.3,110.7 210.8,105.3 214.4,83.4 218.0,83.4 221.5,85.6 225.1,85.6 228.7,85.6 232.2,85.6 235.8,85.6 239.4,85.8 243.0,85.8 246.5,85.8 250.1,86.0 253.7,86.0 257.2,86.0 260.8,86.0 264.4,86.0 267.9,86.0 271.5,86.0 275.1,86.0 278.6,86.0 282.2,86.0 285.8,86.0 289.3,86.0 292.9,86.0 296.5,86.0 300.0,86.0 303.6,86.0 307.2,86.0 310.8,86.0 314.3,86.0 317.9,86.0 321.5,86.0 325.0,87.0 328.6,87.0 332.2,87.0 335.7,73.7 339.3,73.7 342.9,71.0 346.4,71.0 350.0,70.8 353.6,70.6 357.1,70.6 360.7,70.4 364.3,68.6 367.8,60.5 371.4,59.3 375.0,52.0 378.5,47.3 382.1,40.1 385.7,36.0 389.2,36.0 392.8,36.0 396.4,36.0 400.0,36.0 403.5,36.0 407.1,36.0 410.7,36.0 414.2,36.0 417.8,36.0 421.4,36.0 424.9,36.0 428.5,36.0 432.1,36.0 435.6,36.0 439.2,36.0 442.8,36.0 446.3,36.0 449.9,36.0 453.5,36.0 457.0,36.0 460.6,36.0 464.2,36.0 467.8,36.0 471.3,36.0 474.9,36.0 478.5,36.0 482.0,36.0 485.6,36.0 489.2,36.0 492.7,36.0 496.3,36.0 499.9,36.0 503.4,36.0 507.0,36.0 510.6,36.0 514.1,36.0 517.7,36.0 521.3,36.0 524.8,36.0 528.4,36.0 532.0,36.0 535.5,36.0 539.1,36.0 542.7,36.0 546.2,36.0 549.8,36.0 553.4,36.0 557.0,36.0 560.5,36.0 564.1,36.0 567.7,36.0 571.2,36.0 574.8,36.0 578.4,36.0 581.9,36.0 585.5,36.0 589.1,36.0 592.6,36.0 596.2,36.0 599.8,36.0 603.3,36.0 606.9,36.0 610.5,36.0 614.0,36.0 617.6,36.0 621.2,36.0 624.8,36.0 628.3,36.0 631.9,36.0 635.5,36.0 639.0,36.0 642.6,36.0 646.2,36.0 649.7,36.0 653.3,36.0 656.9,36.0 660.4,36.0 664.0,36.0"/><circle cx="36.0" cy="144.3" r="3" fill="#4aa3ff"/><circle cx="39.6" cy="144.3" r="3" fill="#4aa3ff"/><circle cx="43.1" cy="144.3" r="3" fill="#4aa3ff"/><circle cx="46.7" cy="144.3" r="3" fill="#4aa3ff"/><circle cx="50.3" cy="144.3" r="3" fill="#4aa3ff"/><circle cx="53.8" cy="144.3" r="3" fill="#4aa3ff"/><circle cx="57.4" cy="144.3" r="3" fill="#4aa3ff"/><circle cx="61.0" cy="144.3" r="3" fill="#4aa3ff"/><circle cx="64.5" cy="144.3" r="3" fill="#4aa3ff"/><circle cx="68.1" cy="144.3" r="3" fill="#4aa3ff"/><circle cx="71.7" cy="144.3" r="3" fill="#4aa3ff"/><circle cx="75.2" cy="144.3" r="3" fill="#4aa3ff"/><circle cx="78.8" cy="144.3" r="3" fill="#4aa3ff"/><circle cx="82.4" cy="144.3" r="3" fill="#4aa3ff"/><circle cx="86.0" cy="144.3" r="3" fill="#4aa3ff"/><circle cx="89.5" cy="136.2" r="3" fill="#4aa3ff"/><circle cx="93.1" cy="132.4" r="3" fill="#4aa3ff"/><circle cx="96.7" cy="129.6" r="3" fill="#4aa3ff"/><circle cx="100.2" cy="129.6" r="3" fill="#4aa3ff"/><circle cx="103.8" cy="121.0" r="3" fill="#4aa3ff"/><circle cx="107.4" cy="121.0" r="3" fill="#4aa3ff"/><circle cx="110.9" cy="121.0" r="3" fill="#4aa3ff"/><circle cx="114.5" cy="114.4" r="3" fill="#4aa3ff"/><circle cx="118.1" cy="114.4" r="3" fill="#4aa3ff"/><circle cx="121.6" cy="114.4" r="3" fill="#4aa3ff"/><circle cx="125.2" cy="111.3" r="3" fill="#4aa3ff"/><circle cx="128.8" cy="110.9" r="3" fill="#4aa3ff"/><circle cx="132.3" cy="110.9" r="3" fill="#4aa3ff"/><circle cx="135.9" cy="110.5" r="3" fill="#4aa3ff"/><circle cx="139.5" cy="110.5" r="3" fill="#4aa3ff"/><circle cx="143.0" cy="109.9" r="3" fill="#4aa3ff"/><circle cx="146.6" cy="108.7" r="3" fill="#4aa3ff"/><circle cx="150.2" cy="107.3" r="3" fill="#4aa3ff"/><circle cx="153.8" cy="106.9" r="3" fill="#4aa3ff"/><circle cx="157.3" cy="106.9" r="3" fill="#4aa3ff"/><circle cx="160.9" cy="106.9" r="3" fill="#4aa3ff"/><circle cx="164.5" cy="106.9" r="3" fill="#4aa3ff"/><circle cx="168.0" cy="106.9" r="3" fill="#4aa3ff"/><circle cx="171.6" cy="106.9" r="3" fill="#4aa3ff"/><circle cx="175.2" cy="106.9" r="3" fill="#4aa3ff"/><circle cx="178.7" cy="106.9" r="3" fill="#4aa3ff"/><circle cx="182.3" cy="106.9" r="3" fill="#4aa3ff"/><circle cx="185.9" cy="106.9" r="3" fill="#4aa3ff"/><circle cx="189.4" cy="113.2" r="3" fill="#4aa3ff"/><circle cx="193.0" cy="113.2" r="3" fill="#4aa3ff"/><circle cx="196.6" cy="113.2" r="3" fill="#4aa3ff"/><circle cx="200.1" cy="113.2" r="3" fill="#4aa3ff"/><circle cx="203.7" cy="113.2" r="3" fill="#4aa3ff"/><circle cx="207.3" cy="110.7" r="3" fill="#4aa3ff"/><circle cx="210.8" cy="105.3" r="3" fill="#4aa3ff"/><circle cx="214.4" cy="83.4" r="3" fill="#4aa3ff"/><circle cx="218.0" cy="83.4" r="3" fill="#4aa3ff"/><circle cx="221.5" cy="85.6" r="3" fill="#4aa3ff"/><circle cx="225.1" cy="85.6" r="3" fill="#4aa3ff"/><circle cx="228.7" cy="85.6" r="3" fill="#4aa3ff"/><circle cx="232.2" cy="85.6" r="3" fill="#4aa3ff"/><circle cx="235.8" cy="85.6" r="3" fill="#4aa3ff"/><circle cx="239.4" cy="85.8" r="3" fill="#4aa3ff"/><circle cx="243.0" cy="85.8" r="3" fill="#4aa3ff"/><circle cx="246.5" cy="85.8" r="3" fill="#4aa3ff"/><circle cx="250.1" cy="86.0" r="3" fill="#4aa3ff"/><circle cx="253.7" cy="86.0" r="3" fill="#4aa3ff"/><circle cx="257.2" cy="86.0" r="3" fill="#4aa3ff"/><circle cx="260.8" cy="86.0" r="3" fill="#4aa3ff"/><circle cx="264.4" cy="86.0" r="3" fill="#4aa3ff"/><circle cx="267.9" cy="86.0" r="3" fill="#4aa3ff"/><circle cx="271.5" cy="86.0" r="3" fill="#4aa3ff"/><circle cx="275.1" cy="86.0" r="3" fill="#4aa3ff"/><circle cx="278.6" cy="86.0" r="3" fill="#4aa3ff"/><circle cx="282.2" cy="86.0" r="3" fill="#4aa3ff"/><circle cx="285.8" cy="86.0" r="3" fill="#4aa3ff"/><circle cx="289.3" cy="86.0" r="3" fill="#4aa3ff"/><circle cx="292.9" cy="86.0" r="3" fill="#4aa3ff"/><circle cx="296.5" cy="86.0" r="3" fill="#4aa3ff"/><circle cx="300.0" cy="86.0" r="3" fill="#4aa3ff"/><circle cx="303.6" cy="86.0" r="3" fill="#4aa3ff"/><circle cx="307.2" cy="86.0" r="3" fill="#4aa3ff"/><circle cx="310.8" cy="86.0" r="3" fill="#4aa3ff"/><circle cx="314.3" cy="86.0" r="3" fill="#4aa3ff"/><circle cx="317.9" cy="86.0" r="3" fill="#4aa3ff"/><circle cx="321.5" cy="86.0" r="3" fill="#4aa3ff"/><circle cx="325.0" cy="87.0" r="3" fill="#4aa3ff"/><circle cx="328.6" cy="87.0" r="3" fill="#4aa3ff"/><circle cx="332.2" cy="87.0" r="3" fill="#4aa3ff"/><circle cx="335.7" cy="73.7" r="3" fill="#4aa3ff"/><circle cx="339.3" cy="73.7" r="3" fill="#4aa3ff"/><circle cx="342.9" cy="71.0" r="3" fill="#4aa3ff"/><circle cx="346.4" cy="71.0" r="3" fill="#4aa3ff"/><circle cx="350.0" cy="70.8" r="3" fill="#4aa3ff"/><circle cx="353.6" cy="70.6" r="3" fill="#4aa3ff"/><circle cx="357.1" cy="70.6" r="3" fill="#4aa3ff"/><circle cx="360.7" cy="70.4" r="3" fill="#4aa3ff"/><circle cx="364.3" cy="68.6" r="3" fill="#4aa3ff"/><circle cx="367.8" cy="60.5" r="3" fill="#4aa3ff"/><circle cx="371.4" cy="59.3" r="3" fill="#4aa3ff"/><circle cx="375.0" cy="52.0" r="3" fill="#4aa3ff"/><circle cx="378.5" cy="47.3" r="3" fill="#4aa3ff"/><circle cx="382.1" cy="40.1" r="3" fill="#4aa3ff"/><circle cx="385.7" cy="36.0" r="3" fill="#4aa3ff"/><circle cx="389.2" cy="36.0" r="3" fill="#4aa3ff"/><circle cx="392.8" cy="36.0" r="3" fill="#4aa3ff"/><circle cx="396.4" cy="36.0" r="3" fill="#4aa3ff"/><circle cx="400.0" cy="36.0" r="3" fill="#4aa3ff"/><circle cx="403.5" cy="36.0" r="3" fill="#4aa3ff"/><circle cx="407.1" cy="36.0" r="3" fill="#4aa3ff"/><circle cx="410.7" cy="36.0" r="3" fill="#4aa3ff"/><circle cx="414.2" cy="36.0" r="3" fill="#4aa3ff"/><circle cx="417.8" cy="36.0" r="3" fill="#4aa3ff"/><circle cx="421.4" cy="36.0" r="3" fill="#4aa3ff"/><circle cx="424.9" cy="36.0" r="3" fill="#4aa3ff"/><circle cx="428.5" cy="36.0" r="3" fill="#4aa3ff"/><circle cx="432.1" cy="36.0" r="3" fill="#4aa3ff"/><circle cx="435.6" cy="36.0" r="3" fill="#4aa3ff"/><circle cx="439.2" cy="36.0" r="3" fill="#4aa3ff"/><circle cx="442.8" cy="36.0" r="3" fill="#4aa3ff"/><circle cx="446.3" cy="36.0" r="3" fill="#4aa3ff"/><circle cx="449.9" cy="36.0" r="3" fill="#4aa3ff"/><circle cx="453.5" cy="36.0" r="3" fill="#4aa3ff"/><circle cx="457.0" cy="36.0" r="3" fill="#4aa3ff"/><circle cx="460.6" cy="36.0" r="3" fill="#4aa3ff"/><circle cx="464.2" cy="36.0" r="3" fill="#4aa3ff"/><circle cx="467.8" cy="36.0" r="3" fill="#4aa3ff"/><circle cx="471.3" cy="36.0" r="3" fill="#4aa3ff"/><circle cx="474.9" cy="36.0" r="3" fill="#4aa3ff"/><circle cx="478.5" cy="36.0" r="3" fill="#4aa3ff"/><circle cx="482.0" cy="36.0" r="3" fill="#4aa3ff"/><circle cx="485.6" cy="36.0" r="3" fill="#4aa3ff"/><circle cx="489.2" cy="36.0" r="3" fill="#4aa3ff"/><circle cx="492.7" cy="36.0" r="3" fill="#4aa3ff"/><circle cx="496.3" cy="36.0" r="3" fill="#4aa3ff"/><circle cx="499.9" cy="36.0" r="3" fill="#4aa3ff"/><circle cx="503.4" cy="36.0" r="3" fill="#4aa3ff"/><circle cx="507.0" cy="36.0" r="3" fill="#4aa3ff"/><circle cx="510.6" cy="36.0" r="3" fill="#4aa3ff"/><circle cx="514.1" cy="36.0" r="3" fill="#4aa3ff"/><circle cx="517.7" cy="36.0" r="3" fill="#4aa3ff"/><circle cx="521.3" cy="36.0" r="3" fill="#4aa3ff"/><circle cx="524.8" cy="36.0" r="3" fill="#4aa3ff"/><circle cx="528.4" cy="36.0" r="3" fill="#4aa3ff"/><circle cx="532.0" cy="36.0" r="3" fill="#4aa3ff"/><circle cx="535.5" cy="36.0" r="3" fill="#4aa3ff"/><circle cx="539.1" cy="36.0" r="3" fill="#4aa3ff"/><circle cx="542.7" cy="36.0" r="3" fill="#4aa3ff"/><circle cx="546.2" cy="36.0" r="3" fill="#4aa3ff"/><circle cx="549.8" cy="36.0" r="3" fill="#4aa3ff"/><circle cx="553.4" cy="36.0" r="3" fill="#4aa3ff"/><circle cx="557.0" cy="36.0" r="3" fill="#4aa3ff"/><circle cx="560.5" cy="36.0" r="3" fill="#4aa3ff"/><circle cx="564.1" cy="36.0" r="3" fill="#4aa3ff"/><circle cx="567.7" cy="36.0" r="3" fill="#4aa3ff"/><circle cx="571.2" cy="36.0" r="3" fill="#4aa3ff"/><circle cx="574.8" cy="36.0" r="3" fill="#4aa3ff"/><circle cx="578.4" cy="36.0" r="3" fill="#4aa3ff"/><circle cx="581.9" cy="36.0" r="3" fill="#4aa3ff"/><circle cx="585.5" cy="36.0" r="3" fill="#4aa3ff"/><circle cx="589.1" cy="36.0" r="3" fill="#4aa3ff"/><circle cx="592.6" cy="36.0" r="3" fill="#4aa3ff"/><circle cx="596.2" cy="36.0" r="3" fill="#4aa3ff"/><circle cx="599.8" cy="36.0" r="3" fill="#4aa3ff"/><circle cx="603.3" cy="36.0" r="3" fill="#4aa3ff"/><circle cx="606.9" cy="36.0" r="3" fill="#4aa3ff"/><circle cx="610.5" cy="36.0" r="3" fill="#4aa3ff"/><circle cx="614.0" cy="36.0" r="3" fill="#4aa3ff"/><circle cx="617.6" cy="36.0" r="3" fill="#4aa3ff"/><circle cx="621.2" cy="36.0" r="3" fill="#4aa3ff"/><circle cx="624.8" cy="36.0" r="3" fill="#4aa3ff"/><circle cx="628.3" cy="36.0" r="3" fill="#4aa3ff"/><circle cx="631.9" cy="36.0" r="3" fill="#4aa3ff"/><circle cx="635.5" cy="36.0" r="3" fill="#4aa3ff"/><circle cx="639.0" cy="36.0" r="3" fill="#4aa3ff"/><circle cx="642.6" cy="36.0" r="3" fill="#4aa3ff"/><circle cx="646.2" cy="36.0" r="3" fill="#4aa3ff"/><circle cx="649.7" cy="36.0" r="3" fill="#4aa3ff"/><circle cx="653.3" cy="36.0" r="3" fill="#4aa3ff"/><circle cx="656.9" cy="36.0" r="3" fill="#4aa3ff"/><circle cx="660.4" cy="36.0" r="3" fill="#4aa3ff"/><circle cx="664.0" cy="36.0" r="3" fill="#4aa3ff"/>
<text x="36" y="225" fill="#6b7280" font-size="11">2026-06-26</text>
<text x="664" y="225" fill="#6b7280" font-size="11" text-anchor="end">2026-07-14</text>
<text x="36" y="212" font-family="system-ui,sans-serif" font-size="11">
<tspan fill="#4aa3ff">&#9679; open FPs</tspan>  <tspan fill="#3fb950">&#9679; closed (Anthropic acting)</tspan>  <tspan fill="#8a5a5a">&#9679; harness withdrawn</tspan></text>
<text x="664" y="22" text-anchor="end" font-family="system-ui,sans-serif" font-size="12">
<tspan fill="#4aa3ff">open 800</tspan>  <tspan fill="#3fb950">closed 0</tspan>  <tspan fill="#8a5a5a">harness 0</tspan></text>
</svg>