<svg xmlns="http://www.w3.org/2000/svg" width="700" height="234" viewBox="0 0 700 234" role="img">
<rect width="700" height="234" rx="12" fill="#16181d"/>
<text x="36" y="22" fill="#e8eaed" font-family="system-ui,sans-serif" font-size="14" font-weight="700">Is Anthropic acting? cyber/aup false positives over time</text>
<line x1="36" y1="198.0" x2="664" y2="198.0" stroke="#2a2e37" stroke-width="1"/><text x="30" y="202.0" fill="#6b7280" font-size="11" text-anchor="end">0</text><line x1="36" y1="117.0" x2="664" y2="117.0" stroke="#2a2e37" stroke-width="1"/><text x="30" y="121.0" fill="#6b7280" font-size="11" text-anchor="end">400</text><line x1="36" y1="36.0" x2="664" y2="36.0" stroke="#2a2e37" stroke-width="1"/><text x="30" y="40.0" fill="#6b7280" font-size="11" text-anchor="end">800</text>

<polyline fill="none" stroke="#8a5a5a" stroke-width="2.5" stroke-linejoin="round" points="36.0,145.1 38.6,145.1 41.3,145.1 43.9,145.1 46.6,145.1 49.2,145.1 51.8,145.1 54.5,145.1 57.1,145.1 59.7,145.1 62.4,145.1 65.0,145.1 67.7,145.1 70.3,145.1 72.9,145.1 75.6,145.1 78.2,145.1 80.9,145.1 83.5,145.1 86.1,145.1 88.8,145.1 91.4,145.1 94.1,145.1 96.7,145.1 99.3,145.1 102.0,145.1 104.6,145.1 107.2,145.1 109.9,145.1 112.5,145.1 115.2,145.1 117.8,145.1 120.4,145.1 123.1,145.1 125.7,145.1 128.4,145.1 131.0,145.1 133.6,145.1 136.3,145.1 138.9,145.1 141.5,145.1 144.2,145.1 146.8,145.1 149.5,145.1 152.1,145.1 154.7,145.1 157.4,145.1 160.0,145.1 162.7,145.1 165.3,145.1 167.9,155.7 170.6,155.7 173.2,155.7 175.8,155.7 178.5,155.7 181.1,155.7 183.8,155.7 186.4,155.7 189.0,155.7 191.7,155.7 194.3,155.7 197.0,155.7 199.6,155.7 202.2,155.7 204.9,155.7 207.5,155.7 210.2,155.7 212.8,155.7 215.4,155.7 218.1,155.7 220.7,155.7 223.3,155.7 226.0,155.7 228.6,155.7 231.3,155.7 233.9,155.7 236.5,155.7 239.2,155.7 241.8,155.7 244.5,155.7 247.1,155.7 249.7,155.7 252.4,155.7 255.0,155.7 257.6,167.6 260.3,167.6 262.9,170.3 265.6,170.3 268.2,170.5 270.8,170.7 273.5,170.7 276.1,170.9 278.8,172.7 281.4,180.6 284.0,181.8 286.7,189.1 289.3,190.5 291.9,195.2 294.6,198.0 297.2,198.0 299.9,198.0 302.5,198.0 305.1,198.0 307.8,198.0 310.4,198.0 313.1,198.0 315.7,198.0 318.3,198.0 321.0,198.0 323.6,198.0 326.3,198.0 328.9,198.0 331.5,198.0 334.2,198.0 336.8,198.0 339.4,198.0 342.1,198.0 344.7,198.0 347.4,198.0 350.0,198.0 352.6,198.0 355.3,198.0 357.9,198.0 360.6,198.0 363.2,198.0 365.8,198.0 368.5,198.0 371.1,198.0 373.7,198.0 376.4,198.0 379.0,198.0 381.7,198.0 384.3,198.0 386.9,198.0 389.6,198.0 392.2,198.0 394.9,198.0 397.5,198.0 400.1,198.0 402.8,198.0 405.4,198.0 408.1,198.0 410.7,198.0 413.3,198.0 416.0,198.0 418.6,198.0 421.2,198.0 423.9,198.0 426.5,198.0 429.2,198.0 431.8,198.0 434.4,198.0 437.1,198.0 439.7,198.0 442.4,198.0 445.0,198.0 447.6,198.0 450.3,198.0 452.9,198.0 455.5,198.0 458.2,198.0 460.8,198.0 463.5,198.0 466.1,198.0 468.7,198.0 471.4,198.0 474.0,198.0 476.7,198.0 479.3,198.0 481.9,198.0 484.6,198.0 487.2,198.0 489.8,198.0 492.5,198.0 495.1,198.0 497.8,198.0 500.4,198.0 503.0,198.0 505.7,198.0 508.3,198.0 511.0,198.0 513.6,198.0 516.2,198.0 518.9,198.0 521.5,198.0 524.2,198.0 526.8,198.0 529.4,198.0 532.1,198.0 534.7,198.0 537.3,198.0 540.0,198.0 542.6,198.0 545.3,198.0 547.9,198.0 550.5,198.0 553.2,198.0 555.8,198.0 558.5,198.0 561.1,198.0 563.7,198.0 566.4,198.0 569.0,198.0 571.6,198.0 574.3,198.0 576.9,198.0 579.6,198.0 582.2,198.0 584.8,198.0 587.5,198.0 590.1,198.0 592.8,198.0 595.4,198.0 598.0,198.0 600.7,198.0 603.3,198.0 605.9,198.0 608.6,198.0 611.2,198.0 613.9,198.0 616.5,198.0 619.1,198.0 621.8,198.0 624.4,198.0 627.1,198.0 629.7,198.0 632.3,198.0 635.0,198.0 637.6,198.0 640.3,198.0 642.9,198.0 645.5,198.0 648.2,198.0 650.8,198.0 653.4,198.0 656.1,198.0 658.7,198.0 661.4,198.0 664.0,198.0"/><circle cx="36.0" cy="145.1" r="3" fill="#8a5a5a"/><circle cx="38.6" cy="145.1" r="3" fill="#8a5a5a"/><circle cx="41.3" cy="145.1" r="3" fill="#8a5a5a"/><circle cx="43.9" cy="145.1" r="3" fill="#8a5a5a"/><circle cx="46.6" cy="145.1" r="3" fill="#8a5a5a"/><circle cx="49.2" cy="145.1" r="3" fill="#8a5a5a"/><circle cx="51.8" cy="145.1" r="3" fill="#8a5a5a"/><circle cx="54.5" cy="145.1" r="3" fill="#8a5a5a"/><circle cx="57.1" cy="145.1" r="3" fill="#8a5a5a"/><circle cx="59.7" cy="145.1" r="3" fill="#8a5a5a"/><circle cx="62.4" cy="145.1" r="3" fill="#8a5a5a"/><circle cx="65.0" cy="145.1" r="3" fill="#8a5a5a"/><circle cx="67.7" cy="145.1" r="3" fill="#8a5a5a"/><circle cx="70.3" cy="145.1" r="3" fill="#8a5a5a"/><circle cx="72.9" cy="145.1" r="3" fill="#8a5a5a"/><circle cx="75.6" cy="145.1" r="3" fill="#8a5a5a"/><circle cx="78.2" cy="145.1" r="3" fill="#8a5a5a"/><circle cx="80.9" cy="145.1" r="3" fill="#8a5a5a"/><circle cx="83.5" cy="145.1" r="3" fill="#8a5a5a"/><circle cx="86.1" cy="145.1" r="3" fill="#8a5a5a"/><circle cx="88.8" cy="145.1" r="3" fill="#8a5a5a"/><circle cx="91.4" cy="145.1" r="3" fill="#8a5a5a"/><circle cx="94.1" cy="145.1" r="3" fill="#8a5a5a"/><circle cx="96.7" cy="145.1" r="3" fill="#8a5a5a"/><circle cx="99.3" cy="145.1" r="3" fill="#8a5a5a"/><circle cx="102.0" cy="145.1" r="3" fill="#8a5a5a"/><circle cx="104.6" cy="145.1" r="3" fill="#8a5a5a"/><circle cx="107.2" cy="145.1" r="3" fill="#8a5a5a"/><circle cx="109.9" cy="145.1" r="3" fill="#8a5a5a"/><circle cx="112.5" cy="145.1" r="3" fill="#8a5a5a"/><circle cx="115.2" cy="145.1" r="3" fill="#8a5a5a"/><circle cx="117.8" cy="145.1" r="3" fill="#8a5a5a"/><circle cx="120.4" cy="145.1" r="3" fill="#8a5a5a"/><circle cx="123.1" cy="145.1" r="3" fill="#8a5a5a"/><circle cx="125.7" cy="145.1" r="3" fill="#8a5a5a"/><circle cx="128.4" cy="145.1" r="3" fill="#8a5a5a"/><circle cx="131.0" cy="145.1" r="3" fill="#8a5a5a"/><circle cx="133.6" cy="145.1" r="3" fill="#8a5a5a"/><circle cx="136.3" cy="145.1" r="3" fill="#8a5a5a"/><circle cx="138.9" cy="145.1" r="3" fill="#8a5a5a"/><circle cx="141.5" cy="145.1" r="3" fill="#8a5a5a"/><circle cx="144.2" cy="145.1" r="3" fill="#8a5a5a"/><circle cx="146.8" cy="145.1" r="3" fill="#8a5a5a"/><circle cx="149.5" cy="145.1" r="3" fill="#8a5a5a"/><circle cx="152.1" cy="145.1" r="3" fill="#8a5a5a"/><circle cx="154.7" cy="145.1" r="3" fill="#8a5a5a"/><circle cx="157.4" cy="145.1" r="3" fill="#8a5a5a"/><circle cx="160.0" cy="145.1" r="3" fill="#8a5a5a"/><circle cx="162.7" cy="145.1" r="3" fill="#8a5a5a"/><circle cx="165.3" cy="145.1" r="3" fill="#8a5a5a"/><circle cx="167.9" cy="155.7" r="3" fill="#8a5a5a"/><circle cx="170.6" cy="155.7" r="3" fill="#8a5a5a"/><circle cx="173.2" cy="155.7" r="3" fill="#8a5a5a"/><circle cx="175.8" cy="155.7" r="3" fill="#8a5a5a"/><circle cx="178.5" cy="155.7" r="3" fill="#8a5a5a"/><circle cx="181.1" cy="155.7" r="3" fill="#8a5a5a"/><circle cx="183.8" cy="155.7" r="3" fill="#8a5a5a"/><circle cx="186.4" cy="155.7" r="3" fill="#8a5a5a"/><circle cx="189.0" cy="155.7" r="3" fill="#8a5a5a"/><circle cx="191.7" cy="155.7" r="3" fill="#8a5a5a"/><circle cx="194.3" cy="155.7" r="3" fill="#8a5a5a"/><circle cx="197.0" cy="155.7" r="3" fill="#8a5a5a"/><circle cx="199.6" cy="155.7" r="3" fill="#8a5a5a"/><circle cx="202.2" cy="155.7" r="3" fill="#8a5a5a"/><circle cx="204.9" cy="155.7" r="3" fill="#8a5a5a"/><circle cx="207.5" cy="155.7" r="3" fill="#8a5a5a"/><circle cx="210.2" cy="155.7" r="3" fill="#8a5a5a"/><circle cx="212.8" cy="155.7" r="3" fill="#8a5a5a"/><circle cx="215.4" cy="155.7" r="3" fill="#8a5a5a"/><circle cx="218.1" cy="155.7" r="3" fill="#8a5a5a"/><circle cx="220.7" cy="155.7" r="3" fill="#8a5a5a"/><circle cx="223.3" cy="155.7" r="3" fill="#8a5a5a"/><circle cx="226.0" cy="155.7" r="3" fill="#8a5a5a"/><circle cx="228.6" cy="155.7" r="3" fill="#8a5a5a"/><circle cx="231.3" cy="155.7" r="3" fill="#8a5a5a"/><circle cx="233.9" cy="155.7" r="3" fill="#8a5a5a"/><circle cx="236.5" cy="155.7" r="3" fill="#8a5a5a"/><circle cx="239.2" cy="155.7" r="3" fill="#8a5a5a"/><circle cx="241.8" cy="155.7" r="3" fill="#8a5a5a"/><circle cx="244.5" cy="155.7" r="3" fill="#8a5a5a"/><circle cx="247.1" cy="155.7" r="3" fill="#8a5a5a"/><circle cx="249.7" cy="155.7" r="3" fill="#8a5a5a"/><circle cx="252.4" cy="155.7" r="3" fill="#8a5a5a"/><circle cx="255.0" cy="155.7" r="3" fill="#8a5a5a"/><circle cx="257.6" cy="167.6" r="3" fill="#8a5a5a"/><circle cx="260.3" cy="167.6" r="3" fill="#8a5a5a"/><circle cx="262.9" cy="170.3" r="3" fill="#8a5a5a"/><circle cx="265.6" cy="170.3" r="3" fill="#8a5a5a"/><circle cx="268.2" cy="170.5" r="3" fill="#8a5a5a"/><circle cx="270.8" cy="170.7" r="3" fill="#8a5a5a"/><circle cx="273.5" cy="170.7" r="3" fill="#8a5a5a"/><circle cx="276.1" cy="170.9" r="3" fill="#8a5a5a"/><circle cx="278.8" cy="172.7" r="3" fill="#8a5a5a"/><circle cx="281.4" cy="180.6" r="3" fill="#8a5a5a"/><circle cx="284.0" cy="181.8" r="3" fill="#8a5a5a"/><circle cx="286.7" cy="189.1" r="3" fill="#8a5a5a"/><circle cx="289.3" cy="190.5" r="3" fill="#8a5a5a"/><circle cx="291.9" cy="195.2" r="3" fill="#8a5a5a"/><circle cx="294.6" cy="198.0" r="3" fill="#8a5a5a"/><circle cx="297.2" cy="198.0" r="3" fill="#8a5a5a"/><circle cx="299.9" cy="198.0" r="3" fill="#8a5a5a"/><circle cx="302.5" cy="198.0" r="3" fill="#8a5a5a"/><circle cx="305.1" cy="198.0" r="3" fill="#8a5a5a"/><circle cx="307.8" cy="198.0" r="3" fill="#8a5a5a"/><circle cx="310.4" cy="198.0" r="3" fill="#8a5a5a"/><circle cx="313.1" cy="198.0" r="3" fill="#8a5a5a"/><circle cx="315.7" cy="198.0" r="3" fill="#8a5a5a"/><circle cx="318.3" cy="198.0" r="3" fill="#8a5a5a"/><circle cx="321.0" cy="198.0" r="3" fill="#8a5a5a"/><circle cx="323.6" cy="198.0" r="3" fill="#8a5a5a"/><circle cx="326.3" cy="198.0" r="3" fill="#8a5a5a"/><circle cx="328.9" cy="198.0" r="3" fill="#8a5a5a"/><circle cx="331.5" cy="198.0" r="3" fill="#8a5a5a"/><circle cx="334.2" cy="198.0" r="3" fill="#8a5a5a"/><circle cx="336.8" cy="198.0" r="3" fill="#8a5a5a"/><circle cx="339.4" cy="198.0" r="3" fill="#8a5a5a"/><circle cx="342.1" cy="198.0" r="3" fill="#8a5a5a"/><circle cx="344.7" cy="198.0" r="3" fill="#8a5a5a"/><circle cx="347.4" cy="198.0" r="3" fill="#8a5a5a"/><circle cx="350.0" cy="198.0" r="3" fill="#8a5a5a"/><circle cx="352.6" cy="198.0" r="3" fill="#8a5a5a"/><circle cx="355.3" cy="198.0" r="3" fill="#8a5a5a"/><circle cx="357.9" cy="198.0" r="3" fill="#8a5a5a"/><circle cx="360.6" cy="198.0" r="3" fill="#8a5a5a"/><circle cx="363.2" cy="198.0" r="3" fill="#8a5a5a"/><circle cx="365.8" cy="198.0" r="3" fill="#8a5a5a"/><circle cx="368.5" cy="198.0" r="3" fill="#8a5a5a"/><circle cx="371.1" cy="198.0" r="3" fill="#8a5a5a"/><circle cx="373.7" cy="198.0" r="3" fill="#8a5a5a"/><circle cx="376.4" cy="198.0" r="3" fill="#8a5a5a"/><circle cx="379.0" cy="198.0" r="3" fill="#8a5a5a"/><circle cx="381.7" cy="198.0" r="3" fill="#8a5a5a"/><circle cx="384.3" cy="198.0" r="3" fill="#8a5a5a"/><circle cx="386.9" cy="198.0" r="3" fill="#8a5a5a"/><circle cx="389.6" cy="198.0" r="3" fill="#8a5a5a"/><circle cx="392.2" cy="198.0" r="3" fill="#8a5a5a"/><circle cx="394.9" cy="198.0" r="3" fill="#8a5a5a"/><circle cx="397.5" cy="198.0" r="3" fill="#8a5a5a"/><circle cx="400.1" cy="198.0" r="3" fill="#8a5a5a"/><circle cx="402.8" cy="198.0" r="3" fill="#8a5a5a"/><circle cx="405.4" cy="198.0" r="3" fill="#8a5a5a"/><circle cx="408.1" cy="198.0" r="3" fill="#8a5a5a"/><circle cx="410.7" cy="198.0" r="3" fill="#8a5a5a"/><circle cx="413.3" cy="198.0" r="3" fill="#8a5a5a"/><circle cx="416.0" cy="198.0" r="3" fill="#8a5a5a"/><circle cx="418.6" cy="198.0" r="3" fill="#8a5a5a"/><circle cx="421.2" cy="198.0" r="3" fill="#8a5a5a"/><circle cx="423.9" cy="198.0" r="3" fill="#8a5a5a"/><circle cx="426.5" cy="198.0" r="3" fill="#8a5a5a"/><circle cx="429.2" cy="198.0" r="3" fill="#8a5a5a"/><circle cx="431.8" cy="198.0" r="3" fill="#8a5a5a"/><circle cx="434.4" cy="198.0" r="3" fill="#8a5a5a"/><circle cx="437.1" cy="198.0" r="3" fill="#8a5a5a"/><circle cx="439.7" cy="198.0" r="3" fill="#8a5a5a"/><circle cx="442.4" cy="198.0" r="3" fill="#8a5a5a"/><circle cx="445.0" cy="198.0" r="3" fill="#8a5a5a"/><circle cx="447.6" cy="198.0" r="3" fill="#8a5a5a"/><circle cx="450.3" cy="198.0" r="3" fill="#8a5a5a"/><circle cx="452.9" cy="198.0" r="3" fill="#8a5a5a"/><circle cx="455.5" cy="198.0" r="3" fill="#8a5a5a"/><circle cx="458.2" cy="198.0" r="3" fill="#8a5a5a"/><circle cx="460.8" cy="198.0" r="3" fill="#8a5a5a"/><circle cx="463.5" cy="198.0" r="3" fill="#8a5a5a"/><circle cx="466.1" cy="198.0" r="3" fill="#8a5a5a"/><circle cx="468.7" cy="198.0" r="3" fill="#8a5a5a"/><circle cx="471.4" cy="198.0" r="3" fill="#8a5a5a"/><circle cx="474.0" cy="198.0" r="3" fill="#8a5a5a"/><circle cx="476.7" cy="198.0" r="3" fill="#8a5a5a"/><circle cx="479.3" cy="198.0" r="3" fill="#8a5a5a"/><circle cx="481.9" cy="198.0" r="3" fill="#8a5a5a"/><circle cx="484.6" cy="198.0" r="3" fill="#8a5a5a"/><circle cx="487.2" cy="198.0" r="3" fill="#8a5a5a"/><circle cx="489.8" cy="198.0" r="3" fill="#8a5a5a"/><circle cx="492.5" cy="198.0" r="3" fill="#8a5a5a"/><circle cx="495.1" cy="198.0" r="3" fill="#8a5a5a"/><circle cx="497.8" cy="198.0" r="3" fill="#8a5a5a"/><circle cx="500.4" cy="198.0" r="3" fill="#8a5a5a"/><circle cx="503.0" cy="198.0" r="3" fill="#8a5a5a"/><circle cx="505.7" cy="198.0" r="3" fill="#8a5a5a"/><circle cx="508.3" cy="198.0" r="3" fill="#8a5a5a"/><circle cx="511.0" cy="198.0" r="3" fill="#8a5a5a"/><circle cx="513.6" cy="198.0" r="3" fill="#8a5a5a"/><circle cx="516.2" cy="198.0" r="3" fill="#8a5a5a"/><circle cx="518.9" cy="198.0" r="3" fill="#8a5a5a"/><circle cx="521.5" cy="198.0" r="3" fill="#8a5a5a"/><circle cx="524.2" cy="198.0" r="3" fill="#8a5a5a"/><circle cx="526.8" cy="198.0" r="3" fill="#8a5a5a"/><circle cx="529.4" cy="198.0" r="3" fill="#8a5a5a"/><circle cx="532.1" cy="198.0" r="3" fill="#8a5a5a"/><circle cx="534.7" cy="198.0" r="3" fill="#8a5a5a"/><circle cx="537.3" cy="198.0" r="3" fill="#8a5a5a"/><circle cx="540.0" cy="198.0" r="3" fill="#8a5a5a"/><circle cx="542.6" cy="198.0" r="3" fill="#8a5a5a"/><circle cx="545.3" cy="198.0" r="3" fill="#8a5a5a"/><circle cx="547.9" cy="198.0" r="3" fill="#8a5a5a"/><circle cx="550.5" cy="198.0" r="3" fill="#8a5a5a"/><circle cx="553.2" cy="198.0" r="3" fill="#8a5a5a"/><circle cx="555.8" cy="198.0" r="3" fill="#8a5a5a"/><circle cx="558.5" cy="198.0" r="3" fill="#8a5a5a"/><circle cx="561.1" cy="198.0" r="3" fill="#8a5a5a"/><circle cx="563.7" cy="198.0" r="3" fill="#8a5a5a"/><circle cx="566.4" cy="198.0" r="3" fill="#8a5a5a"/><circle cx="569.0" cy="198.0" r="3" fill="#8a5a5a"/><circle cx="571.6" cy="198.0" r="3" fill="#8a5a5a"/><circle cx="574.3" cy="198.0" r="3" fill="#8a5a5a"/><circle cx="576.9" cy="198.0" r="3" fill="#8a5a5a"/><circle cx="579.6" cy="198.0" r="3" fill="#8a5a5a"/><circle cx="582.2" cy="198.0" r="3" fill="#8a5a5a"/><circle cx="584.8" cy="198.0" r="3" fill="#8a5a5a"/><circle cx="587.5" cy="198.0" r="3" fill="#8a5a5a"/><circle cx="590.1" cy="198.0" r="3" fill="#8a5a5a"/><circle cx="592.8" cy="198.0" r="3" fill="#8a5a5a"/><circle cx="595.4" cy="198.0" r="3" fill="#8a5a5a"/><circle cx="598.0" cy="198.0" r="3" fill="#8a5a5a"/><circle cx="600.7" cy="198.0" r="3" fill="#8a5a5a"/><circle cx="603.3" cy="198.0" r="3" fill="#8a5a5a"/><circle cx="605.9" cy="198.0" r="3" fill="#8a5a5a"/><circle cx="608.6" cy="198.0" r="3" fill="#8a5a5a"/><circle cx="611.2" cy="198.0" r="3" fill="#8a5a5a"/><circle cx="613.9" cy="198.0" r="3" fill="#8a5a5a"/><circle cx="616.5" cy="198.0" r="3" fill="#8a5a5a"/><circle cx="619.1" cy="198.0" r="3" fill="#8a5a5a"/><circle cx="621.8" cy="198.0" r="3" fill="#8a5a5a"/><circle cx="624.4" cy="198.0" r="3" fill="#8a5a5a"/><circle cx="627.1" cy="198.0" r="3" fill="#8a5a5a"/><circle cx="629.7" cy="198.0" r="3" fill="#8a5a5a"/><circle cx="632.3" cy="198.0" r="3" fill="#8a5a5a"/><circle cx="635.0" cy="198.0" r="3" fill="#8a5a5a"/><circle cx="637.6" cy="198.0" r="3" fill="#8a5a5a"/><circle cx="640.3" cy="198.0" r="3" fill="#8a5a5a"/><circle cx="642.9" cy="198.0" r="3" fill="#8a5a5a"/><circle cx="645.5" cy="198.0" r="3" fill="#8a5a5a"/><circle cx="648.2" cy="198.0" r="3" fill="#8a5a5a"/><circle cx="650.8" cy="198.0" r="3" fill="#8a5a5a"/><circle cx="653.4" cy="198.0" r="3" fill="#8a5a5a"/><circle cx="656.1" cy="198.0" r="3" fill="#8a5a5a"/><circle cx="658.7" cy="198.0" r="3" fill="#8a5a5a"/><circle cx="661.4" cy="198.0" r="3" fill="#8a5a5a"/><circle cx="664.0" cy="198.0" r="3" fill="#8a5a5a"/>
<polyline fill="none" stroke="#3fb950" stroke-width="2.5" stroke-linejoin="round" points="36.0,198.0 38.6,198.0 41.3,198.0 43.9,198.0 46.6,198.0 49.2,198.0 51.8,198.0 54.5,198.0 57.1,198.0 59.7,198.0 62.4,198.0 65.0,198.0 67.7,198.0 70.3,198.0 72.9,198.0 75.6,198.0 78.2,198.0 80.9,198.0 83.5,198.0 86.1,198.0 88.8,198.0 91.4,198.0 94.1,198.0 96.7,198.0 99.3,198.0 102.0,198.0 104.6,198.0 107.2,198.0 109.9,198.0 112.5,198.0 115.2,198.0 117.8,198.0 120.4,198.0 123.1,198.0 125.7,198.0 128.4,198.0 131.0,198.0 133.6,198.0 136.3,198.0 138.9,198.0 141.5,198.0 144.2,198.0 146.8,198.0 149.5,191.7 152.1,191.7 154.7,191.7 157.4,191.7 160.0,191.7 162.7,191.7 165.3,191.7 167.9,192.9 170.6,192.9 173.2,190.7 175.8,190.7 178.5,190.7 181.1,190.7 183.8,190.7 186.4,190.5 189.0,190.5 191.7,190.5 194.3,190.3 197.0,190.3 199.6,190.3 202.2,190.3 204.9,190.3 207.5,190.3 210.2,190.3 212.8,190.3 215.4,190.3 218.1,190.3 220.7,190.3 223.3,190.3 226.0,190.3 228.6,190.3 231.3,190.3 233.9,190.3 236.5,190.3 239.2,190.3 241.8,190.3 244.5,190.3 247.1,190.3 249.7,189.3 252.4,189.3 255.0,189.3 257.6,190.7 260.3,190.7 262.9,190.7 265.6,190.7 268.2,190.7 270.8,190.7 273.5,190.7 276.1,190.7 278.8,190.7 281.4,190.9 284.0,190.9 286.7,190.9 289.3,194.2 291.9,196.8 294.6,198.0 297.2,198.0 299.9,198.0 302.5,198.0 305.1,198.0 307.8,198.0 310.4,198.0 313.1,198.0 315.7,198.0 318.3,198.0 321.0,198.0 323.6,198.0 326.3,198.0 328.9,198.0 331.5,198.0 334.2,198.0 336.8,198.0 339.4,198.0 342.1,198.0 344.7,198.0 347.4,198.0 350.0,198.0 352.6,198.0 355.3,198.0 357.9,198.0 360.6,198.0 363.2,198.0 365.8,198.0 368.5,198.0 371.1,198.0 373.7,198.0 376.4,198.0 379.0,198.0 381.7,198.0 384.3,198.0 386.9,198.0 389.6,198.0 392.2,198.0 394.9,198.0 397.5,198.0 400.1,198.0 402.8,198.0 405.4,198.0 408.1,198.0 410.7,198.0 413.3,198.0 416.0,198.0 418.6,198.0 421.2,198.0 423.9,198.0 426.5,198.0 429.2,198.0 431.8,198.0 434.4,198.0 437.1,198.0 439.7,198.0 442.4,198.0 445.0,198.0 447.6,198.0 450.3,198.0 452.9,198.0 455.5,198.0 458.2,198.0 460.8,198.0 463.5,198.0 466.1,198.0 468.7,198.0 471.4,198.0 474.0,198.0 476.7,198.0 479.3,198.0 481.9,198.0 484.6,198.0 487.2,198.0 489.8,198.0 492.5,198.0 495.1,198.0 497.8,198.0 500.4,198.0 503.0,198.0 505.7,198.0 508.3,198.0 511.0,198.0 513.6,198.0 516.2,198.0 518.9,198.0 521.5,198.0 524.2,198.0 526.8,198.0 529.4,198.0 532.1,198.0 534.7,198.0 537.3,198.0 540.0,198.0 542.6,198.0 545.3,198.0 547.9,198.0 550.5,198.0 553.2,198.0 555.8,198.0 558.5,198.0 561.1,198.0 563.7,198.0 566.4,198.0 569.0,198.0 571.6,198.0 574.3,198.0 576.9,198.0 579.6,198.0 582.2,198.0 584.8,198.0 587.5,198.0 590.1,198.0 592.8,198.0 595.4,198.0 598.0,198.0 600.7,198.0 603.3,198.0 605.9,198.0 608.6,198.0 611.2,198.0 613.9,198.0 616.5,198.0 619.1,198.0 621.8,198.0 624.4,198.0 627.1,198.0 629.7,198.0 632.3,198.0 635.0,198.0 637.6,198.0 640.3,198.0 642.9,198.0 645.5,198.0 648.2,198.0 650.8,198.0 653.4,198.0 656.1,198.0 658.7,198.0 661.4,198.0 664.0,198.0"/><circle cx="36.0" cy="198.0" r="3" fill="#3fb950"/><circle cx="38.6" cy="198.0" r="3" fill="#3fb950"/><circle cx="41.3" cy="198.0" r="3" fill="#3fb950"/><circle cx="43.9" cy="198.0" r="3" fill="#3fb950"/><circle cx="46.6" cy="198.0" r="3" fill="#3fb950"/><circle cx="49.2" cy="198.0" r="3" fill="#3fb950"/><circle cx="51.8" cy="198.0" r="3" fill="#3fb950"/><circle cx="54.5" cy="198.0" r="3" fill="#3fb950"/><circle cx="57.1" cy="198.0" r="3" fill="#3fb950"/><circle cx="59.7" cy="198.0" r="3" fill="#3fb950"/><circle cx="62.4" cy="198.0" r="3" fill="#3fb950"/><circle cx="65.0" cy="198.0" r="3" fill="#3fb950"/><circle cx="67.7" cy="198.0" r="3" fill="#3fb950"/><circle cx="70.3" cy="198.0" r="3" fill="#3fb950"/><circle cx="72.9" cy="198.0" r="3" fill="#3fb950"/><circle cx="75.6" cy="198.0" r="3" fill="#3fb950"/><circle cx="78.2" cy="198.0" r="3" fill="#3fb950"/><circle cx="80.9" cy="198.0" r="3" fill="#3fb950"/><circle cx="83.5" cy="198.0" r="3" fill="#3fb950"/><circle cx="86.1" cy="198.0" r="3" fill="#3fb950"/><circle cx="88.8" cy="198.0" r="3" fill="#3fb950"/><circle cx="91.4" cy="198.0" r="3" fill="#3fb950"/><circle cx="94.1" cy="198.0" r="3" fill="#3fb950"/><circle cx="96.7" cy="198.0" r="3" fill="#3fb950"/><circle cx="99.3" cy="198.0" r="3" fill="#3fb950"/><circle cx="102.0" cy="198.0" r="3" fill="#3fb950"/><circle cx="104.6" cy="198.0" r="3" fill="#3fb950"/><circle cx="107.2" cy="198.0" r="3" fill="#3fb950"/><circle cx="109.9" cy="198.0" r="3" fill="#3fb950"/><circle cx="112.5" cy="198.0" r="3" fill="#3fb950"/><circle cx="115.2" cy="198.0" r="3" fill="#3fb950"/><circle cx="117.8" cy="198.0" r="3" fill="#3fb950"/><circle cx="120.4" cy="198.0" r="3" fill="#3fb950"/><circle cx="123.1" cy="198.0" r="3" fill="#3fb950"/><circle cx="125.7" cy="198.0" r="3" fill="#3fb950"/><circle cx="128.4" cy="198.0" r="3" fill="#3fb950"/><circle cx="131.0" cy="198.0" r="3" fill="#3fb950"/><circle cx="133.6" cy="198.0" r="3" fill="#3fb950"/><circle cx="136.3" cy="198.0" r="3" fill="#3fb950"/><circle cx="138.9" cy="198.0" r="3" fill="#3fb950"/><circle cx="141.5" cy="198.0" r="3" fill="#3fb950"/><circle cx="144.2" cy="198.0" r="3" fill="#3fb950"/><circle cx="146.8" cy="198.0" r="3" fill="#3fb950"/><circle cx="149.5" cy="191.7" r="3" fill="#3fb950"/><circle cx="152.1" cy="191.7" r="3" fill="#3fb950"/><circle cx="154.7" cy="191.7" r="3" fill="#3fb950"/><circle cx="157.4" cy="191.7" r="3" fill="#3fb950"/><circle cx="160.0" cy="191.7" r="3" fill="#3fb950"/><circle cx="162.7" cy="191.7" r="3" fill="#3fb950"/><circle cx="165.3" cy="191.7" r="3" fill="#3fb950"/><circle cx="167.9" cy="192.9" r="3" fill="#3fb950"/><circle cx="170.6" cy="192.9" r="3" fill="#3fb950"/><circle cx="173.2" cy="190.7" r="3" fill="#3fb950"/><circle cx="175.8" cy="190.7" r="3" fill="#3fb950"/><circle cx="178.5" cy="190.7" r="3" fill="#3fb950"/><circle cx="181.1" cy="190.7" r="3" fill="#3fb950"/><circle cx="183.8" cy="190.7" r="3" fill="#3fb950"/><circle cx="186.4" cy="190.5" r="3" fill="#3fb950"/><circle cx="189.0" cy="190.5" r="3" fill="#3fb950"/><circle cx="191.7" cy="190.5" r="3" fill="#3fb950"/><circle cx="194.3" cy="190.3" r="3" fill="#3fb950"/><circle cx="197.0" cy="190.3" r="3" fill="#3fb950"/><circle cx="199.6" cy="190.3" r="3" fill="#3fb950"/><circle cx="202.2" cy="190.3" r="3" fill="#3fb950"/><circle cx="204.9" cy="190.3" r="3" fill="#3fb950"/><circle cx="207.5" cy="190.3" r="3" fill="#3fb950"/><circle cx="210.2" cy="190.3" r="3" fill="#3fb950"/><circle cx="212.8" cy="190.3" r="3" fill="#3fb950"/><circle cx="215.4" cy="190.3" r="3" fill="#3fb950"/><circle cx="218.1" cy="190.3" r="3" fill="#3fb950"/><circle cx="220.7" cy="190.3" r="3" fill="#3fb950"/><circle cx="223.3" cy="190.3" r="3" fill="#3fb950"/><circle cx="226.0" cy="190.3" r="3" fill="#3fb950"/><circle cx="228.6" cy="190.3" r="3" fill="#3fb950"/><circle cx="231.3" cy="190.3" r="3" fill="#3fb950"/><circle cx="233.9" cy="190.3" r="3" fill="#3fb950"/><circle cx="236.5" cy="190.3" r="3" fill="#3fb950"/><circle cx="239.2" cy="190.3" r="3" fill="#3fb950"/><circle cx="241.8" cy="190.3" r="3" fill="#3fb950"/><circle cx="244.5" cy="190.3" r="3" fill="#3fb950"/><circle cx="247.1" cy="190.3" r="3" fill="#3fb950"/><circle cx="249.7" cy="189.3" r="3" fill="#3fb950"/><circle cx="252.4" cy="189.3" r="3" fill="#3fb950"/><circle cx="255.0" cy="189.3" r="3" fill="#3fb950"/><circle cx="257.6" cy="190.7" r="3" fill="#3fb950"/><circle cx="260.3" cy="190.7" r="3" fill="#3fb950"/><circle cx="262.9" cy="190.7" r="3" fill="#3fb950"/><circle cx="265.6" cy="190.7" r="3" fill="#3fb950"/><circle cx="268.2" cy="190.7" r="3" fill="#3fb950"/><circle cx="270.8" cy="190.7" r="3" fill="#3fb950"/><circle cx="273.5" cy="190.7" r="3" fill="#3fb950"/><circle cx="276.1" cy="190.7" r="3" fill="#3fb950"/><circle cx="278.8" cy="190.7" r="3" fill="#3fb950"/><circle cx="281.4" cy="190.9" r="3" fill="#3fb950"/><circle cx="284.0" cy="190.9" r="3" fill="#3fb950"/><circle cx="286.7" cy="190.9" r="3" fill="#3fb950"/><circle cx="289.3" cy="194.2" r="3" fill="#3fb950"/><circle cx="291.9" cy="196.8" r="3" fill="#3fb950"/><circle cx="294.6" cy="198.0" r="3" fill="#3fb950"/><circle cx="297.2" cy="198.0" r="3" fill="#3fb950"/><circle cx="299.9" cy="198.0" r="3" fill="#3fb950"/><circle cx="302.5" cy="198.0" r="3" fill="#3fb950"/><circle cx="305.1" cy="198.0" r="3" fill="#3fb950"/><circle cx="307.8" cy="198.0" r="3" fill="#3fb950"/><circle cx="310.4" cy="198.0" r="3" fill="#3fb950"/><circle cx="313.1" cy="198.0" r="3" fill="#3fb950"/><circle cx="315.7" cy="198.0" r="3" fill="#3fb950"/><circle cx="318.3" cy="198.0" r="3" fill="#3fb950"/><circle cx="321.0" cy="198.0" r="3" fill="#3fb950"/><circle cx="323.6" cy="198.0" r="3" fill="#3fb950"/><circle cx="326.3" cy="198.0" r="3" fill="#3fb950"/><circle cx="328.9" cy="198.0" r="3" fill="#3fb950"/><circle cx="331.5" cy="198.0" r="3" fill="#3fb950"/><circle cx="334.2" cy="198.0" r="3" fill="#3fb950"/><circle cx="336.8" cy="198.0" r="3" fill="#3fb950"/><circle cx="339.4" cy="198.0" r="3" fill="#3fb950"/><circle cx="342.1" cy="198.0" r="3" fill="#3fb950"/><circle cx="344.7" cy="198.0" r="3" fill="#3fb950"/><circle cx="347.4" cy="198.0" r="3" fill="#3fb950"/><circle cx="350.0" cy="198.0" r="3" fill="#3fb950"/><circle cx="352.6" cy="198.0" r="3" fill="#3fb950"/><circle cx="355.3" cy="198.0" r="3" fill="#3fb950"/><circle cx="357.9" cy="198.0" r="3" fill="#3fb950"/><circle cx="360.6" cy="198.0" r="3" fill="#3fb950"/><circle cx="363.2" cy="198.0" r="3" fill="#3fb950"/><circle cx="365.8" cy="198.0" r="3" fill="#3fb950"/><circle cx="368.5" cy="198.0" r="3" fill="#3fb950"/><circle cx="371.1" cy="198.0" r="3" fill="#3fb950"/><circle cx="373.7" cy="198.0" r="3" fill="#3fb950"/><circle cx="376.4" cy="198.0" r="3" fill="#3fb950"/><circle cx="379.0" cy="198.0" r="3" fill="#3fb950"/><circle cx="381.7" cy="198.0" r="3" fill="#3fb950"/><circle cx="384.3" cy="198.0" r="3" fill="#3fb950"/><circle cx="386.9" cy="198.0" r="3" fill="#3fb950"/><circle cx="389.6" cy="198.0" r="3" fill="#3fb950"/><circle cx="392.2" cy="198.0" r="3" fill="#3fb950"/><circle cx="394.9" cy="198.0" r="3" fill="#3fb950"/><circle cx="397.5" cy="198.0" r="3" fill="#3fb950"/><circle cx="400.1" cy="198.0" r="3" fill="#3fb950"/><circle cx="402.8" cy="198.0" r="3" fill="#3fb950"/><circle cx="405.4" cy="198.0" r="3" fill="#3fb950"/><circle cx="408.1" cy="198.0" r="3" fill="#3fb950"/><circle cx="410.7" cy="198.0" r="3" fill="#3fb950"/><circle cx="413.3" cy="198.0" r="3" fill="#3fb950"/><circle cx="416.0" cy="198.0" r="3" fill="#3fb950"/><circle cx="418.6" cy="198.0" r="3" fill="#3fb950"/><circle cx="421.2" cy="198.0" r="3" fill="#3fb950"/><circle cx="423.9" cy="198.0" r="3" fill="#3fb950"/><circle cx="426.5" cy="198.0" r="3" fill="#3fb950"/><circle cx="429.2" cy="198.0" r="3" fill="#3fb950"/><circle cx="431.8" cy="198.0" r="3" fill="#3fb950"/><circle cx="434.4" cy="198.0" r="3" fill="#3fb950"/><circle cx="437.1" cy="198.0" r="3" fill="#3fb950"/><circle cx="439.7" cy="198.0" r="3" fill="#3fb950"/><circle cx="442.4" cy="198.0" r="3" fill="#3fb950"/><circle cx="445.0" cy="198.0" r="3" fill="#3fb950"/><circle cx="447.6" cy="198.0" r="3" fill="#3fb950"/><circle cx="450.3" cy="198.0" r="3" fill="#3fb950"/><circle cx="452.9" cy="198.0" r="3" fill="#3fb950"/><circle cx="455.5" cy="198.0" r="3" fill="#3fb950"/><circle cx="458.2" cy="198.0" r="3" fill="#3fb950"/><circle cx="460.8" cy="198.0" r="3" fill="#3fb950"/><circle cx="463.5" cy="198.0" r="3" fill="#3fb950"/><circle cx="466.1" cy="198.0" r="3" fill="#3fb950"/><circle cx="468.7" cy="198.0" r="3" fill="#3fb950"/><circle cx="471.4" cy="198.0" r="3" fill="#3fb950"/><circle cx="474.0" cy="198.0" r="3" fill="#3fb950"/><circle cx="476.7" cy="198.0" r="3" fill="#3fb950"/><circle cx="479.3" cy="198.0" r="3" fill="#3fb950"/><circle cx="481.9" cy="198.0" r="3" fill="#3fb950"/><circle cx="484.6" cy="198.0" r="3" fill="#3fb950"/><circle cx="487.2" cy="198.0" r="3" fill="#3fb950"/><circle cx="489.8" cy="198.0" r="3" fill="#3fb950"/><circle cx="492.5" cy="198.0" r="3" fill="#3fb950"/><circle cx="495.1" cy="198.0" r="3" fill="#3fb950"/><circle cx="497.8" cy="198.0" r="3" fill="#3fb950"/><circle cx="500.4" cy="198.0" r="3" fill="#3fb950"/><circle cx="503.0" cy="198.0" r="3" fill="#3fb950"/><circle cx="505.7" cy="198.0" r="3" fill="#3fb950"/><circle cx="508.3" cy="198.0" r="3" fill="#3fb950"/><circle cx="511.0" cy="198.0" r="3" fill="#3fb950"/><circle cx="513.6" cy="198.0" r="3" fill="#3fb950"/><circle cx="516.2" cy="198.0" r="3" fill="#3fb950"/><circle cx="518.9" cy="198.0" r="3" fill="#3fb950"/><circle cx="521.5" cy="198.0" r="3" fill="#3fb950"/><circle cx="524.2" cy="198.0" r="3" fill="#3fb950"/><circle cx="526.8" cy="198.0" r="3" fill="#3fb950"/><circle cx="529.4" cy="198.0" r="3" fill="#3fb950"/><circle cx="532.1" cy="198.0" r="3" fill="#3fb950"/><circle cx="534.7" cy="198.0" r="3" fill="#3fb950"/><circle cx="537.3" cy="198.0" r="3" fill="#3fb950"/><circle cx="540.0" cy="198.0" r="3" fill="#3fb950"/><circle cx="542.6" cy="198.0" r="3" fill="#3fb950"/><circle cx="545.3" cy="198.0" r="3" fill="#3fb950"/><circle cx="547.9" cy="198.0" r="3" fill="#3fb950"/><circle cx="550.5" cy="198.0" r="3" fill="#3fb950"/><circle cx="553.2" cy="198.0" r="3" fill="#3fb950"/><circle cx="555.8" cy="198.0" r="3" fill="#3fb950"/><circle cx="558.5" cy="198.0" r="3" fill="#3fb950"/><circle cx="561.1" cy="198.0" r="3" fill="#3fb950"/><circle cx="563.7" cy="198.0" r="3" fill="#3fb950"/><circle cx="566.4" cy="198.0" r="3" fill="#3fb950"/><circle cx="569.0" cy="198.0" r="3" fill="#3fb950"/><circle cx="571.6" cy="198.0" r="3" fill="#3fb950"/><circle cx="574.3" cy="198.0" r="3" fill="#3fb950"/><circle cx="576.9" cy="198.0" r="3" fill="#3fb950"/><circle cx="579.6" cy="198.0" r="3" fill="#3fb950"/><circle cx="582.2" cy="198.0" r="3" fill="#3fb950"/><circle cx="584.8" cy="198.0" r="3" fill="#3fb950"/><circle cx="587.5" cy="198.0" r="3" fill="#3fb950"/><circle cx="590.1" cy="198.0" r="3" fill="#3fb950"/><circle cx="592.8" cy="198.0" r="3" fill="#3fb950"/><circle cx="595.4" cy="198.0" r="3" fill="#3fb950"/><circle cx="598.0" cy="198.0" r="3" fill="#3fb950"/><circle cx="600.7" cy="198.0" r="3" fill="#3fb950"/><circle cx="603.3" cy="198.0" r="3" fill="#3fb950"/><circle cx="605.9" cy="198.0" r="3" fill="#3fb950"/><circle cx="608.6" cy="198.0" r="3" fill="#3fb950"/><circle cx="611.2" cy="198.0" r="3" fill="#3fb950"/><circle cx="613.9" cy="198.0" r="3" fill="#3fb950"/><circle cx="616.5" cy="198.0" r="3" fill="#3fb950"/><circle cx="619.1" cy="198.0" r="3" fill="#3fb950"/><circle cx="621.8" cy="198.0" r="3" fill="#3fb950"/><circle cx="624.4" cy="198.0" r="3" fill="#3fb950"/><circle cx="627.1" cy="198.0" r="3" fill="#3fb950"/><circle cx="629.7" cy="198.0" r="3" fill="#3fb950"/><circle cx="632.3" cy="198.0" r="3" fill="#3fb950"/><circle cx="635.0" cy="198.0" r="3" fill="#3fb950"/><circle cx="637.6" cy="198.0" r="3" fill="#3fb950"/><circle cx="640.3" cy="198.0" r="3" fill="#3fb950"/><circle cx="642.9" cy="198.0" r="3" fill="#3fb950"/><circle cx="645.5" cy="198.0" r="3" fill="#3fb950"/><circle cx="648.2" cy="198.0" r="3" fill="#3fb950"/><circle cx="650.8" cy="198.0" r="3" fill="#3fb950"/><circle cx="653.4" cy="198.0" r="3" fill="#3fb950"/><circle cx="656.1" cy="198.0" r="3" fill="#3fb950"/><circle cx="658.7" cy="198.0" r="3" fill="#3fb950"/><circle cx="661.4" cy="198.0" r="3" fill="#3fb950"/><circle cx="664.0" cy="198.0" r="3" fill="#3fb950"/>
<polyline fill="none" stroke="#4aa3ff" stroke-width="2.5" stroke-linejoin="round" points="36.0,144.3 38.6,144.3 41.3,144.3 43.9,144.3 46.6,144.3 49.2,144.3 51.8,144.3 54.5,144.3 57.1,144.3 59.7,144.3 62.4,144.3 65.0,144.3 67.7,144.3 70.3,144.3 72.9,144.3 75.6,136.2 78.2,132.4 80.9,129.6 83.5,129.6 86.1,121.0 88.8,121.0 91.4,121.0 94.1,114.4 96.7,114.4 99.3,114.4 102.0,111.3 104.6,110.9 107.2,110.9 109.9,110.5 112.5,110.5 115.2,109.9 117.8,108.7 120.4,107.3 123.1,106.9 125.7,106.9 128.4,106.9 131.0,106.9 133.6,106.9 136.3,106.9 138.9,106.9 141.5,106.9 144.2,106.9 146.8,106.9 149.5,113.2 152.1,113.2 154.7,113.2 157.4,113.2 160.0,113.2 162.7,110.7 165.3,105.3 167.9,83.4 170.6,83.4 173.2,85.6 175.8,85.6 178.5,85.6 181.1,85.6 183.8,85.6 186.4,85.8 189.0,85.8 191.7,85.8 194.3,86.0 197.0,86.0 199.6,86.0 202.2,86.0 204.9,86.0 207.5,86.0 210.2,86.0 212.8,86.0 215.4,86.0 218.1,86.0 220.7,86.0 223.3,86.0 226.0,86.0 228.6,86.0 231.3,86.0 233.9,86.0 236.5,86.0 239.2,86.0 241.8,86.0 244.5,86.0 247.1,86.0 249.7,87.0 252.4,87.0 255.0,87.0 257.6,73.7 260.3,73.7 262.9,71.0 265.6,71.0 268.2,70.8 270.8,70.6 273.5,70.6 276.1,70.4 278.8,68.6 281.4,60.5 284.0,59.3 286.7,52.0 289.3,47.3 291.9,40.1 294.6,36.0 297.2,36.0 299.9,36.0 302.5,36.0 305.1,36.0 307.8,36.0 310.4,36.0 313.1,36.0 315.7,36.0 318.3,36.0 321.0,36.0 323.6,36.0 326.3,36.0 328.9,36.0 331.5,36.0 334.2,36.0 336.8,36.0 339.4,36.0 342.1,36.0 344.7,36.0 347.4,36.0 350.0,36.0 352.6,36.0 355.3,36.0 357.9,36.0 360.6,36.0 363.2,36.0 365.8,36.0 368.5,36.0 371.1,36.0 373.7,36.0 376.4,36.0 379.0,36.0 381.7,36.0 384.3,36.0 386.9,36.0 389.6,36.0 392.2,36.0 394.9,36.0 397.5,36.0 400.1,36.0 402.8,36.0 405.4,36.0 408.1,36.0 410.7,36.0 413.3,36.0 416.0,36.0 418.6,36.0 421.2,36.0 423.9,36.0 426.5,36.0 429.2,36.0 431.8,36.0 434.4,36.0 437.1,36.0 439.7,36.0 442.4,36.0 445.0,36.0 447.6,36.0 450.3,36.0 452.9,36.0 455.5,36.0 458.2,36.0 460.8,36.0 463.5,36.0 466.1,36.0 468.7,36.0 471.4,36.0 474.0,36.0 476.7,36.0 479.3,36.0 481.9,36.0 484.6,36.0 487.2,36.0 489.8,36.0 492.5,36.0 495.1,36.0 497.8,36.0 500.4,36.0 503.0,36.0 505.7,36.0 508.3,36.0 511.0,36.0 513.6,36.0 516.2,36.0 518.9,36.0 521.5,36.0 524.2,36.0 526.8,36.0 529.4,36.0 532.1,36.0 534.7,36.0 537.3,36.0 540.0,36.0 542.6,36.0 545.3,36.0 547.9,36.0 550.5,36.0 553.2,36.0 555.8,36.0 558.5,36.0 561.1,36.0 563.7,36.0 566.4,36.0 569.0,36.0 571.6,36.0 574.3,36.0 576.9,36.0 579.6,36.0 582.2,36.0 584.8,36.0 587.5,36.0 590.1,36.0 592.8,36.0 595.4,36.0 598.0,36.0 600.7,36.0 603.3,36.0 605.9,36.0 608.6,36.0 611.2,36.0 613.9,36.0 616.5,36.0 619.1,36.0 621.8,36.0 624.4,36.0 627.1,36.0 629.7,36.0 632.3,36.0 635.0,36.0 637.6,36.0 640.3,36.0 642.9,36.0 645.5,36.0 648.2,36.0 650.8,36.0 653.4,36.0 656.1,36.0 658.7,36.0 661.4,36.0 664.0,36.0"/><circle cx="36.0" cy="144.3" r="3" fill="#4aa3ff"/><circle cx="38.6" cy="144.3" r="3" fill="#4aa3ff"/><circle cx="41.3" cy="144.3" r="3" fill="#4aa3ff"/><circle cx="43.9" cy="144.3" r="3" fill="#4aa3ff"/><circle cx="46.6" cy="144.3" r="3" fill="#4aa3ff"/><circle cx="49.2" cy="144.3" r="3" fill="#4aa3ff"/><circle cx="51.8" cy="144.3" r="3" fill="#4aa3ff"/><circle cx="54.5" cy="144.3" r="3" fill="#4aa3ff"/><circle cx="57.1" cy="144.3" r="3" fill="#4aa3ff"/><circle cx="59.7" cy="144.3" r="3" fill="#4aa3ff"/><circle cx="62.4" cy="144.3" r="3" fill="#4aa3ff"/><circle cx="65.0" cy="144.3" r="3" fill="#4aa3ff"/><circle cx="67.7" cy="144.3" r="3" fill="#4aa3ff"/><circle cx="70.3" cy="144.3" r="3" fill="#4aa3ff"/><circle cx="72.9" cy="144.3" r="3" fill="#4aa3ff"/><circle cx="75.6" cy="136.2" r="3" fill="#4aa3ff"/><circle cx="78.2" cy="132.4" r="3" fill="#4aa3ff"/><circle cx="80.9" cy="129.6" r="3" fill="#4aa3ff"/><circle cx="83.5" cy="129.6" r="3" fill="#4aa3ff"/><circle cx="86.1" cy="121.0" r="3" fill="#4aa3ff"/><circle cx="88.8" cy="121.0" r="3" fill="#4aa3ff"/><circle cx="91.4" cy="121.0" r="3" fill="#4aa3ff"/><circle cx="94.1" cy="114.4" r="3" fill="#4aa3ff"/><circle cx="96.7" cy="114.4" r="3" fill="#4aa3ff"/><circle cx="99.3" cy="114.4" r="3" fill="#4aa3ff"/><circle cx="102.0" cy="111.3" r="3" fill="#4aa3ff"/><circle cx="104.6" cy="110.9" r="3" fill="#4aa3ff"/><circle cx="107.2" cy="110.9" r="3" fill="#4aa3ff"/><circle cx="109.9" cy="110.5" r="3" fill="#4aa3ff"/><circle cx="112.5" cy="110.5" r="3" fill="#4aa3ff"/><circle cx="115.2" cy="109.9" r="3" fill="#4aa3ff"/><circle cx="117.8" cy="108.7" r="3" fill="#4aa3ff"/><circle cx="120.4" cy="107.3" r="3" fill="#4aa3ff"/><circle cx="123.1" cy="106.9" r="3" fill="#4aa3ff"/><circle cx="125.7" cy="106.9" r="3" fill="#4aa3ff"/><circle cx="128.4" cy="106.9" r="3" fill="#4aa3ff"/><circle cx="131.0" cy="106.9" r="3" fill="#4aa3ff"/><circle cx="133.6" cy="106.9" r="3" fill="#4aa3ff"/><circle cx="136.3" cy="106.9" r="3" fill="#4aa3ff"/><circle cx="138.9" cy="106.9" r="3" fill="#4aa3ff"/><circle cx="141.5" cy="106.9" r="3" fill="#4aa3ff"/><circle cx="144.2" cy="106.9" r="3" fill="#4aa3ff"/><circle cx="146.8" cy="106.9" r="3" fill="#4aa3ff"/><circle cx="149.5" cy="113.2" r="3" fill="#4aa3ff"/><circle cx="152.1" cy="113.2" r="3" fill="#4aa3ff"/><circle cx="154.7" cy="113.2" r="3" fill="#4aa3ff"/><circle cx="157.4" cy="113.2" r="3" fill="#4aa3ff"/><circle cx="160.0" cy="113.2" r="3" fill="#4aa3ff"/><circle cx="162.7" cy="110.7" r="3" fill="#4aa3ff"/><circle cx="165.3" cy="105.3" r="3" fill="#4aa3ff"/><circle cx="167.9" cy="83.4" r="3" fill="#4aa3ff"/><circle cx="170.6" cy="83.4" r="3" fill="#4aa3ff"/><circle cx="173.2" cy="85.6" r="3" fill="#4aa3ff"/><circle cx="175.8" cy="85.6" r="3" fill="#4aa3ff"/><circle cx="178.5" cy="85.6" r="3" fill="#4aa3ff"/><circle cx="181.1" cy="85.6" r="3" fill="#4aa3ff"/><circle cx="183.8" cy="85.6" r="3" fill="#4aa3ff"/><circle cx="186.4" cy="85.8" r="3" fill="#4aa3ff"/><circle cx="189.0" cy="85.8" r="3" fill="#4aa3ff"/><circle cx="191.7" cy="85.8" r="3" fill="#4aa3ff"/><circle cx="194.3" cy="86.0" r="3" fill="#4aa3ff"/><circle cx="197.0" cy="86.0" r="3" fill="#4aa3ff"/><circle cx="199.6" cy="86.0" r="3" fill="#4aa3ff"/><circle cx="202.2" cy="86.0" r="3" fill="#4aa3ff"/><circle cx="204.9" cy="86.0" r="3" fill="#4aa3ff"/><circle cx="207.5" cy="86.0" r="3" fill="#4aa3ff"/><circle cx="210.2" cy="86.0" r="3" fill="#4aa3ff"/><circle cx="212.8" cy="86.0" r="3" fill="#4aa3ff"/><circle cx="215.4" cy="86.0" r="3" fill="#4aa3ff"/><circle cx="218.1" cy="86.0" r="3" fill="#4aa3ff"/><circle cx="220.7" cy="86.0" r="3" fill="#4aa3ff"/><circle cx="223.3" cy="86.0" r="3" fill="#4aa3ff"/><circle cx="226.0" cy="86.0" r="3" fill="#4aa3ff"/><circle cx="228.6" cy="86.0" r="3" fill="#4aa3ff"/><circle cx="231.3" cy="86.0" r="3" fill="#4aa3ff"/><circle cx="233.9" cy="86.0" r="3" fill="#4aa3ff"/><circle cx="236.5" cy="86.0" r="3" fill="#4aa3ff"/><circle cx="239.2" cy="86.0" r="3" fill="#4aa3ff"/><circle cx="241.8" cy="86.0" r="3" fill="#4aa3ff"/><circle cx="244.5" cy="86.0" r="3" fill="#4aa3ff"/><circle cx="247.1" cy="86.0" r="3" fill="#4aa3ff"/><circle cx="249.7" cy="87.0" r="3" fill="#4aa3ff"/><circle cx="252.4" cy="87.0" r="3" fill="#4aa3ff"/><circle cx="255.0" cy="87.0" r="3" fill="#4aa3ff"/><circle cx="257.6" cy="73.7" r="3" fill="#4aa3ff"/><circle cx="260.3" cy="73.7" r="3" fill="#4aa3ff"/><circle cx="262.9" cy="71.0" r="3" fill="#4aa3ff"/><circle cx="265.6" cy="71.0" r="3" fill="#4aa3ff"/><circle cx="268.2" cy="70.8" r="3" fill="#4aa3ff"/><circle cx="270.8" cy="70.6" r="3" fill="#4aa3ff"/><circle cx="273.5" cy="70.6" r="3" fill="#4aa3ff"/><circle cx="276.1" cy="70.4" r="3" fill="#4aa3ff"/><circle cx="278.8" cy="68.6" r="3" fill="#4aa3ff"/><circle cx="281.4" cy="60.5" r="3" fill="#4aa3ff"/><circle cx="284.0" cy="59.3" r="3" fill="#4aa3ff"/><circle cx="286.7" cy="52.0" r="3" fill="#4aa3ff"/><circle cx="289.3" cy="47.3" r="3" fill="#4aa3ff"/><circle cx="291.9" cy="40.1" r="3" fill="#4aa3ff"/><circle cx="294.6" cy="36.0" r="3" fill="#4aa3ff"/><circle cx="297.2" cy="36.0" r="3" fill="#4aa3ff"/><circle cx="299.9" cy="36.0" r="3" fill="#4aa3ff"/><circle cx="302.5" cy="36.0" r="3" fill="#4aa3ff"/><circle cx="305.1" cy="36.0" r="3" fill="#4aa3ff"/><circle cx="307.8" cy="36.0" r="3" fill="#4aa3ff"/><circle cx="310.4" cy="36.0" r="3" fill="#4aa3ff"/><circle cx="313.1" cy="36.0" r="3" fill="#4aa3ff"/><circle cx="315.7" cy="36.0" r="3" fill="#4aa3ff"/><circle cx="318.3" cy="36.0" r="3" fill="#4aa3ff"/><circle cx="321.0" cy="36.0" r="3" fill="#4aa3ff"/><circle cx="323.6" cy="36.0" r="3" fill="#4aa3ff"/><circle cx="326.3" cy="36.0" r="3" fill="#4aa3ff"/><circle cx="328.9" cy="36.0" r="3" fill="#4aa3ff"/><circle cx="331.5" cy="36.0" r="3" fill="#4aa3ff"/><circle cx="334.2" cy="36.0" r="3" fill="#4aa3ff"/><circle cx="336.8" cy="36.0" r="3" fill="#4aa3ff"/><circle cx="339.4" cy="36.0" r="3" fill="#4aa3ff"/><circle cx="342.1" cy="36.0" r="3" fill="#4aa3ff"/><circle cx="344.7" cy="36.0" r="3" fill="#4aa3ff"/><circle cx="347.4" cy="36.0" r="3" fill="#4aa3ff"/><circle cx="350.0" cy="36.0" r="3" fill="#4aa3ff"/><circle cx="352.6" cy="36.0" r="3" fill="#4aa3ff"/><circle cx="355.3" cy="36.0" r="3" fill="#4aa3ff"/><circle cx="357.9" cy="36.0" r="3" fill="#4aa3ff"/><circle cx="360.6" cy="36.0" r="3" fill="#4aa3ff"/><circle cx="363.2" cy="36.0" r="3" fill="#4aa3ff"/><circle cx="365.8" cy="36.0" r="3" fill="#4aa3ff"/><circle cx="368.5" cy="36.0" r="3" fill="#4aa3ff"/><circle cx="371.1" cy="36.0" r="3" fill="#4aa3ff"/><circle cx="373.7" cy="36.0" r="3" fill="#4aa3ff"/><circle cx="376.4" cy="36.0" r="3" fill="#4aa3ff"/><circle cx="379.0" cy="36.0" r="3" fill="#4aa3ff"/><circle cx="381.7" cy="36.0" r="3" fill="#4aa3ff"/><circle cx="384.3" cy="36.0" r="3" fill="#4aa3ff"/><circle cx="386.9" cy="36.0" r="3" fill="#4aa3ff"/><circle cx="389.6" cy="36.0" r="3" fill="#4aa3ff"/><circle cx="392.2" cy="36.0" r="3" fill="#4aa3ff"/><circle cx="394.9" cy="36.0" r="3" fill="#4aa3ff"/><circle cx="397.5" cy="36.0" r="3" fill="#4aa3ff"/><circle cx="400.1" cy="36.0" r="3" fill="#4aa3ff"/><circle cx="402.8" cy="36.0" r="3" fill="#4aa3ff"/><circle cx="405.4" cy="36.0" r="3" fill="#4aa3ff"/><circle cx="408.1" cy="36.0" r="3" fill="#4aa3ff"/><circle cx="410.7" cy="36.0" r="3" fill="#4aa3ff"/><circle cx="413.3" cy="36.0" r="3" fill="#4aa3ff"/><circle cx="416.0" cy="36.0" r="3" fill="#4aa3ff"/><circle cx="418.6" cy="36.0" r="3" fill="#4aa3ff"/><circle cx="421.2" cy="36.0" r="3" fill="#4aa3ff"/><circle cx="423.9" cy="36.0" r="3" fill="#4aa3ff"/><circle cx="426.5" cy="36.0" r="3" fill="#4aa3ff"/><circle cx="429.2" cy="36.0" r="3" fill="#4aa3ff"/><circle cx="431.8" cy="36.0" r="3" fill="#4aa3ff"/><circle cx="434.4" cy="36.0" r="3" fill="#4aa3ff"/><circle cx="437.1" cy="36.0" r="3" fill="#4aa3ff"/><circle cx="439.7" cy="36.0" r="3" fill="#4aa3ff"/><circle cx="442.4" cy="36.0" r="3" fill="#4aa3ff"/><circle cx="445.0" cy="36.0" r="3" fill="#4aa3ff"/><circle cx="447.6" cy="36.0" r="3" fill="#4aa3ff"/><circle cx="450.3" cy="36.0" r="3" fill="#4aa3ff"/><circle cx="452.9" cy="36.0" r="3" fill="#4aa3ff"/><circle cx="455.5" cy="36.0" r="3" fill="#4aa3ff"/><circle cx="458.2" cy="36.0" r="3" fill="#4aa3ff"/><circle cx="460.8" cy="36.0" r="3" fill="#4aa3ff"/><circle cx="463.5" cy="36.0" r="3" fill="#4aa3ff"/><circle cx="466.1" cy="36.0" r="3" fill="#4aa3ff"/><circle cx="468.7" cy="36.0" r="3" fill="#4aa3ff"/><circle cx="471.4" cy="36.0" r="3" fill="#4aa3ff"/><circle cx="474.0" cy="36.0" r="3" fill="#4aa3ff"/><circle cx="476.7" cy="36.0" r="3" fill="#4aa3ff"/><circle cx="479.3" cy="36.0" r="3" fill="#4aa3ff"/><circle cx="481.9" cy="36.0" r="3" fill="#4aa3ff"/><circle cx="484.6" cy="36.0" r="3" fill="#4aa3ff"/><circle cx="487.2" cy="36.0" r="3" fill="#4aa3ff"/><circle cx="489.8" cy="36.0" r="3" fill="#4aa3ff"/><circle cx="492.5" cy="36.0" r="3" fill="#4aa3ff"/><circle cx="495.1" cy="36.0" r="3" fill="#4aa3ff"/><circle cx="497.8" cy="36.0" r="3" fill="#4aa3ff"/><circle cx="500.4" cy="36.0" r="3" fill="#4aa3ff"/><circle cx="503.0" cy="36.0" r="3" fill="#4aa3ff"/><circle cx="505.7" cy="36.0" r="3" fill="#4aa3ff"/><circle cx="508.3" cy="36.0" r="3" fill="#4aa3ff"/><circle cx="511.0" cy="36.0" r="3" fill="#4aa3ff"/><circle cx="513.6" cy="36.0" r="3" fill="#4aa3ff"/><circle cx="516.2" cy="36.0" r="3" fill="#4aa3ff"/><circle cx="518.9" cy="36.0" r="3" fill="#4aa3ff"/><circle cx="521.5" cy="36.0" r="3" fill="#4aa3ff"/><circle cx="524.2" cy="36.0" r="3" fill="#4aa3ff"/><circle cx="526.8" cy="36.0" r="3" fill="#4aa3ff"/><circle cx="529.4" cy="36.0" r="3" fill="#4aa3ff"/><circle cx="532.1" cy="36.0" r="3" fill="#4aa3ff"/><circle cx="534.7" cy="36.0" r="3" fill="#4aa3ff"/><circle cx="537.3" cy="36.0" r="3" fill="#4aa3ff"/><circle cx="540.0" cy="36.0" r="3" fill="#4aa3ff"/><circle cx="542.6" cy="36.0" r="3" fill="#4aa3ff"/><circle cx="545.3" cy="36.0" r="3" fill="#4aa3ff"/><circle cx="547.9" cy="36.0" r="3" fill="#4aa3ff"/><circle cx="550.5" cy="36.0" r="3" fill="#4aa3ff"/><circle cx="553.2" cy="36.0" r="3" fill="#4aa3ff"/><circle cx="555.8" cy="36.0" r="3" fill="#4aa3ff"/><circle cx="558.5" cy="36.0" r="3" fill="#4aa3ff"/><circle cx="561.1" cy="36.0" r="3" fill="#4aa3ff"/><circle cx="563.7" cy="36.0" r="3" fill="#4aa3ff"/><circle cx="566.4" cy="36.0" r="3" fill="#4aa3ff"/><circle cx="569.0" cy="36.0" r="3" fill="#4aa3ff"/><circle cx="571.6" cy="36.0" r="3" fill="#4aa3ff"/><circle cx="574.3" cy="36.0" r="3" fill="#4aa3ff"/><circle cx="576.9" cy="36.0" r="3" fill="#4aa3ff"/><circle cx="579.6" cy="36.0" r="3" fill="#4aa3ff"/><circle cx="582.2" cy="36.0" r="3" fill="#4aa3ff"/><circle cx="584.8" cy="36.0" r="3" fill="#4aa3ff"/><circle cx="587.5" cy="36.0" r="3" fill="#4aa3ff"/><circle cx="590.1" cy="36.0" r="3" fill="#4aa3ff"/><circle cx="592.8" cy="36.0" r="3" fill="#4aa3ff"/><circle cx="595.4" cy="36.0" r="3" fill="#4aa3ff"/><circle cx="598.0" cy="36.0" r="3" fill="#4aa3ff"/><circle cx="600.7" cy="36.0" r="3" fill="#4aa3ff"/><circle cx="603.3" cy="36.0" r="3" fill="#4aa3ff"/><circle cx="605.9" cy="36.0" r="3" fill="#4aa3ff"/><circle cx="608.6" cy="36.0" r="3" fill="#4aa3ff"/><circle cx="611.2" cy="36.0" r="3" fill="#4aa3ff"/><circle cx="613.9" cy="36.0" r="3" fill="#4aa3ff"/><circle cx="616.5" cy="36.0" r="3" fill="#4aa3ff"/><circle cx="619.1" cy="36.0" r="3" fill="#4aa3ff"/><circle cx="621.8" cy="36.0" r="3" fill="#4aa3ff"/><circle cx="624.4" cy="36.0" r="3" fill="#4aa3ff"/><circle cx="627.1" cy="36.0" r="3" fill="#4aa3ff"/><circle cx="629.7" cy="36.0" r="3" fill="#4aa3ff"/><circle cx="632.3" cy="36.0" r="3" fill="#4aa3ff"/><circle cx="635.0" cy="36.0" r="3" fill="#4aa3ff"/><circle cx="637.6" cy="36.0" r="3" fill="#4aa3ff"/><circle cx="640.3" cy="36.0" r="3" fill="#4aa3ff"/><circle cx="642.9" cy="36.0" r="3" fill="#4aa3ff"/><circle cx="645.5" cy="36.0" r="3" fill="#4aa3ff"/><circle cx="648.2" cy="36.0" r="3" fill="#4aa3ff"/><circle cx="650.8" cy="36.0" r="3" fill="#4aa3ff"/><circle cx="653.4" cy="36.0" r="3" fill="#4aa3ff"/><circle cx="656.1" cy="36.0" r="3" fill="#4aa3ff"/><circle cx="658.7" cy="36.0" r="3" fill="#4aa3ff"/><circle cx="661.4" cy="36.0" r="3" fill="#4aa3ff"/><circle cx="664.0" cy="36.0" r="3" fill="#4aa3ff"/>
<text x="36" y="225" fill="#6b7280" font-size="11">2026-06-26</text>
<text x="664" y="225" fill="#6b7280" font-size="11" text-anchor="end">2026-07-20</text>
<text x="36" y="212" font-family="system-ui,sans-serif" font-size="11">
<tspan fill="#4aa3ff">&#9679; open FPs</tspan>  <tspan fill="#3fb950">&#9679; closed (Anthropic acting)</tspan>  <tspan fill="#8a5a5a">&#9679; harness withdrawn</tspan></text>
<text x="664" y="22" text-anchor="end" font-family="system-ui,sans-serif" font-size="12">
<tspan fill="#4aa3ff">open 800</tspan>  <tspan fill="#3fb950">closed 0</tspan>  <tspan fill="#8a5a5a">harness 0</tspan></text>
</svg>