<svg xmlns="http://www.w3.org/2000/svg" width="700" height="234" viewBox="0 0 700 234" role="img">
<rect width="700" height="234" rx="12" fill="#16181d"/>
<text x="36" y="22" fill="#e8eaed" font-family="system-ui,sans-serif" font-size="14" font-weight="700">Is Anthropic acting? cyber/aup false positives over time</text>
<line x1="36" y1="198.0" x2="664" y2="198.0" stroke="#2a2e37" stroke-width="1"/><text x="30" y="202.0" fill="#6b7280" font-size="11" text-anchor="end">0</text><line x1="36" y1="117.0" x2="664" y2="117.0" stroke="#2a2e37" stroke-width="1"/><text x="30" y="121.0" fill="#6b7280" font-size="11" text-anchor="end">283</text><line x1="36" y1="36.0" x2="664" y2="36.0" stroke="#2a2e37" stroke-width="1"/><text x="30" y="40.0" fill="#6b7280" font-size="11" text-anchor="end">566</text>

<polyline fill="none" stroke="#8a5a5a" stroke-width="2.5" stroke-linejoin="round" points="36.0,123.3 44.1,123.3 52.1,123.3 60.2,123.3 68.2,123.3 76.3,123.3 84.3,123.3 92.4,123.3 100.4,123.3 108.5,123.3 116.5,123.3 124.6,123.3 132.6,123.3 140.7,123.3 148.7,123.3 156.8,123.3 164.8,123.3 172.9,123.3 180.9,123.3 189.0,123.3 197.0,123.3 205.1,123.3 213.1,123.3 221.2,123.3 229.2,123.3 237.3,123.3 245.3,123.3 253.4,123.3 261.4,123.3 269.5,123.3 277.5,123.3 285.6,123.3 293.6,123.3 301.7,123.3 309.7,123.3 317.8,123.3 325.8,123.3 333.9,123.3 341.9,123.3 350.0,123.3 358.1,123.3 366.1,123.3 374.2,123.3 382.2,123.3 390.3,123.3 398.3,123.3 406.4,123.3 414.4,123.3 422.5,123.3 430.5,123.3 438.6,138.2 446.6,138.2 454.7,138.2 462.7,138.2 470.8,138.2 478.8,138.2 486.9,138.2 494.9,138.2 503.0,138.2 511.0,138.2 519.1,138.2 527.1,138.2 535.2,138.2 543.2,138.2 551.3,138.2 559.3,138.2 567.4,138.2 575.4,138.2 583.5,138.2 591.5,138.2 599.6,138.2 607.6,138.2 615.7,138.2 623.7,138.2 631.8,138.2 639.8,138.2 647.9,138.2 655.9,138.2 664.0,138.2"/><circle cx="36.0" cy="123.3" r="3" fill="#8a5a5a"/><circle cx="44.1" cy="123.3" r="3" fill="#8a5a5a"/><circle cx="52.1" cy="123.3" r="3" fill="#8a5a5a"/><circle cx="60.2" cy="123.3" r="3" fill="#8a5a5a"/><circle cx="68.2" cy="123.3" r="3" fill="#8a5a5a"/><circle cx="76.3" cy="123.3" r="3" fill="#8a5a5a"/><circle cx="84.3" cy="123.3" r="3" fill="#8a5a5a"/><circle cx="92.4" cy="123.3" r="3" fill="#8a5a5a"/><circle cx="100.4" cy="123.3" r="3" fill="#8a5a5a"/><circle cx="108.5" cy="123.3" r="3" fill="#8a5a5a"/><circle cx="116.5" cy="123.3" r="3" fill="#8a5a5a"/><circle cx="124.6" cy="123.3" r="3" fill="#8a5a5a"/><circle cx="132.6" cy="123.3" r="3" fill="#8a5a5a"/><circle cx="140.7" cy="123.3" r="3" fill="#8a5a5a"/><circle cx="148.7" cy="123.3" r="3" fill="#8a5a5a"/><circle cx="156.8" cy="123.3" r="3" fill="#8a5a5a"/><circle cx="164.8" cy="123.3" r="3" fill="#8a5a5a"/><circle cx="172.9" cy="123.3" r="3" fill="#8a5a5a"/><circle cx="180.9" cy="123.3" r="3" fill="#8a5a5a"/><circle cx="189.0" cy="123.3" r="3" fill="#8a5a5a"/><circle cx="197.0" cy="123.3" r="3" fill="#8a5a5a"/><circle cx="205.1" cy="123.3" r="3" fill="#8a5a5a"/><circle cx="213.1" cy="123.3" r="3" fill="#8a5a5a"/><circle cx="221.2" cy="123.3" r="3" fill="#8a5a5a"/><circle cx="229.2" cy="123.3" r="3" fill="#8a5a5a"/><circle cx="237.3" cy="123.3" r="3" fill="#8a5a5a"/><circle cx="245.3" cy="123.3" r="3" fill="#8a5a5a"/><circle cx="253.4" cy="123.3" r="3" fill="#8a5a5a"/><circle cx="261.4" cy="123.3" r="3" fill="#8a5a5a"/><circle cx="269.5" cy="123.3" r="3" fill="#8a5a5a"/><circle cx="277.5" cy="123.3" r="3" fill="#8a5a5a"/><circle cx="285.6" cy="123.3" r="3" fill="#8a5a5a"/><circle cx="293.6" cy="123.3" r="3" fill="#8a5a5a"/><circle cx="301.7" cy="123.3" r="3" fill="#8a5a5a"/><circle cx="309.7" cy="123.3" r="3" fill="#8a5a5a"/><circle cx="317.8" cy="123.3" r="3" fill="#8a5a5a"/><circle cx="325.8" cy="123.3" r="3" fill="#8a5a5a"/><circle cx="333.9" cy="123.3" r="3" fill="#8a5a5a"/><circle cx="341.9" cy="123.3" r="3" fill="#8a5a5a"/><circle cx="350.0" cy="123.3" r="3" fill="#8a5a5a"/><circle cx="358.1" cy="123.3" r="3" fill="#8a5a5a"/><circle cx="366.1" cy="123.3" r="3" fill="#8a5a5a"/><circle cx="374.2" cy="123.3" r="3" fill="#8a5a5a"/><circle cx="382.2" cy="123.3" r="3" fill="#8a5a5a"/><circle cx="390.3" cy="123.3" r="3" fill="#8a5a5a"/><circle cx="398.3" cy="123.3" r="3" fill="#8a5a5a"/><circle cx="406.4" cy="123.3" r="3" fill="#8a5a5a"/><circle cx="414.4" cy="123.3" r="3" fill="#8a5a5a"/><circle cx="422.5" cy="123.3" r="3" fill="#8a5a5a"/><circle cx="430.5" cy="123.3" r="3" fill="#8a5a5a"/><circle cx="438.6" cy="138.2" r="3" fill="#8a5a5a"/><circle cx="446.6" cy="138.2" r="3" fill="#8a5a5a"/><circle cx="454.7" cy="138.2" r="3" fill="#8a5a5a"/><circle cx="462.7" cy="138.2" r="3" fill="#8a5a5a"/><circle cx="470.8" cy="138.2" r="3" fill="#8a5a5a"/><circle cx="478.8" cy="138.2" r="3" fill="#8a5a5a"/><circle cx="486.9" cy="138.2" r="3" fill="#8a5a5a"/><circle cx="494.9" cy="138.2" r="3" fill="#8a5a5a"/><circle cx="503.0" cy="138.2" r="3" fill="#8a5a5a"/><circle cx="511.0" cy="138.2" r="3" fill="#8a5a5a"/><circle cx="519.1" cy="138.2" r="3" fill="#8a5a5a"/><circle cx="527.1" cy="138.2" r="3" fill="#8a5a5a"/><circle cx="535.2" cy="138.2" r="3" fill="#8a5a5a"/><circle cx="543.2" cy="138.2" r="3" fill="#8a5a5a"/><circle cx="551.3" cy="138.2" r="3" fill="#8a5a5a"/><circle cx="559.3" cy="138.2" r="3" fill="#8a5a5a"/><circle cx="567.4" cy="138.2" r="3" fill="#8a5a5a"/><circle cx="575.4" cy="138.2" r="3" fill="#8a5a5a"/><circle cx="583.5" cy="138.2" r="3" fill="#8a5a5a"/><circle cx="591.5" cy="138.2" r="3" fill="#8a5a5a"/><circle cx="599.6" cy="138.2" r="3" fill="#8a5a5a"/><circle cx="607.6" cy="138.2" r="3" fill="#8a5a5a"/><circle cx="615.7" cy="138.2" r="3" fill="#8a5a5a"/><circle cx="623.7" cy="138.2" r="3" fill="#8a5a5a"/><circle cx="631.8" cy="138.2" r="3" fill="#8a5a5a"/><circle cx="639.8" cy="138.2" r="3" fill="#8a5a5a"/><circle cx="647.9" cy="138.2" r="3" fill="#8a5a5a"/><circle cx="655.9" cy="138.2" r="3" fill="#8a5a5a"/><circle cx="664.0" cy="138.2" r="3" fill="#8a5a5a"/>
<polyline fill="none" stroke="#3fb950" stroke-width="2.5" stroke-linejoin="round" points="36.0,198.0 44.1,198.0 52.1,198.0 60.2,198.0 68.2,198.0 76.3,198.0 84.3,198.0 92.4,198.0 100.4,198.0 108.5,198.0 116.5,198.0 124.6,198.0 132.6,198.0 140.7,198.0 148.7,198.0 156.8,198.0 164.8,198.0 172.9,198.0 180.9,198.0 189.0,198.0 197.0,198.0 205.1,198.0 213.1,198.0 221.2,198.0 229.2,198.0 237.3,198.0 245.3,198.0 253.4,198.0 261.4,198.0 269.5,198.0 277.5,198.0 285.6,198.0 293.6,198.0 301.7,198.0 309.7,198.0 317.8,198.0 325.8,198.0 333.9,198.0 341.9,198.0 350.0,198.0 358.1,198.0 366.1,198.0 374.2,198.0 382.2,189.1 390.3,189.1 398.3,189.1 406.4,189.1 414.4,189.1 422.5,189.1 430.5,189.1 438.6,190.8 446.6,190.8 454.7,187.7 462.7,187.7 470.8,187.7 478.8,187.7 486.9,187.7 494.9,187.4 503.0,187.4 511.0,187.4 519.1,187.1 527.1,187.1 535.2,187.1 543.2,187.1 551.3,187.1 559.3,187.1 567.4,187.1 575.4,187.1 583.5,187.1 591.5,187.1 599.6,187.1 607.6,187.1 615.7,187.1 623.7,187.1 631.8,187.1 639.8,187.1 647.9,187.1 655.9,187.1 664.0,187.1"/><circle cx="36.0" cy="198.0" r="3" fill="#3fb950"/><circle cx="44.1" cy="198.0" r="3" fill="#3fb950"/><circle cx="52.1" cy="198.0" r="3" fill="#3fb950"/><circle cx="60.2" cy="198.0" r="3" fill="#3fb950"/><circle cx="68.2" cy="198.0" r="3" fill="#3fb950"/><circle cx="76.3" cy="198.0" r="3" fill="#3fb950"/><circle cx="84.3" cy="198.0" r="3" fill="#3fb950"/><circle cx="92.4" cy="198.0" r="3" fill="#3fb950"/><circle cx="100.4" cy="198.0" r="3" fill="#3fb950"/><circle cx="108.5" cy="198.0" r="3" fill="#3fb950"/><circle cx="116.5" cy="198.0" r="3" fill="#3fb950"/><circle cx="124.6" cy="198.0" r="3" fill="#3fb950"/><circle cx="132.6" cy="198.0" r="3" fill="#3fb950"/><circle cx="140.7" cy="198.0" r="3" fill="#3fb950"/><circle cx="148.7" cy="198.0" r="3" fill="#3fb950"/><circle cx="156.8" cy="198.0" r="3" fill="#3fb950"/><circle cx="164.8" cy="198.0" r="3" fill="#3fb950"/><circle cx="172.9" cy="198.0" r="3" fill="#3fb950"/><circle cx="180.9" cy="198.0" r="3" fill="#3fb950"/><circle cx="189.0" cy="198.0" r="3" fill="#3fb950"/><circle cx="197.0" cy="198.0" r="3" fill="#3fb950"/><circle cx="205.1" cy="198.0" r="3" fill="#3fb950"/><circle cx="213.1" cy="198.0" r="3" fill="#3fb950"/><circle cx="221.2" cy="198.0" r="3" fill="#3fb950"/><circle cx="229.2" cy="198.0" r="3" fill="#3fb950"/><circle cx="237.3" cy="198.0" r="3" fill="#3fb950"/><circle cx="245.3" cy="198.0" r="3" fill="#3fb950"/><circle cx="253.4" cy="198.0" r="3" fill="#3fb950"/><circle cx="261.4" cy="198.0" r="3" fill="#3fb950"/><circle cx="269.5" cy="198.0" r="3" fill="#3fb950"/><circle cx="277.5" cy="198.0" r="3" fill="#3fb950"/><circle cx="285.6" cy="198.0" r="3" fill="#3fb950"/><circle cx="293.6" cy="198.0" r="3" fill="#3fb950"/><circle cx="301.7" cy="198.0" r="3" fill="#3fb950"/><circle cx="309.7" cy="198.0" r="3" fill="#3fb950"/><circle cx="317.8" cy="198.0" r="3" fill="#3fb950"/><circle cx="325.8" cy="198.0" r="3" fill="#3fb950"/><circle cx="333.9" cy="198.0" r="3" fill="#3fb950"/><circle cx="341.9" cy="198.0" r="3" fill="#3fb950"/><circle cx="350.0" cy="198.0" r="3" fill="#3fb950"/><circle cx="358.1" cy="198.0" r="3" fill="#3fb950"/><circle cx="366.1" cy="198.0" r="3" fill="#3fb950"/><circle cx="374.2" cy="198.0" r="3" fill="#3fb950"/><circle cx="382.2" cy="189.1" r="3" fill="#3fb950"/><circle cx="390.3" cy="189.1" r="3" fill="#3fb950"/><circle cx="398.3" cy="189.1" r="3" fill="#3fb950"/><circle cx="406.4" cy="189.1" r="3" fill="#3fb950"/><circle cx="414.4" cy="189.1" r="3" fill="#3fb950"/><circle cx="422.5" cy="189.1" r="3" fill="#3fb950"/><circle cx="430.5" cy="189.1" r="3" fill="#3fb950"/><circle cx="438.6" cy="190.8" r="3" fill="#3fb950"/><circle cx="446.6" cy="190.8" r="3" fill="#3fb950"/><circle cx="454.7" cy="187.7" r="3" fill="#3fb950"/><circle cx="462.7" cy="187.7" r="3" fill="#3fb950"/><circle cx="470.8" cy="187.7" r="3" fill="#3fb950"/><circle cx="478.8" cy="187.7" r="3" fill="#3fb950"/><circle cx="486.9" cy="187.7" r="3" fill="#3fb950"/><circle cx="494.9" cy="187.4" r="3" fill="#3fb950"/><circle cx="503.0" cy="187.4" r="3" fill="#3fb950"/><circle cx="511.0" cy="187.4" r="3" fill="#3fb950"/><circle cx="519.1" cy="187.1" r="3" fill="#3fb950"/><circle cx="527.1" cy="187.1" r="3" fill="#3fb950"/><circle cx="535.2" cy="187.1" r="3" fill="#3fb950"/><circle cx="543.2" cy="187.1" r="3" fill="#3fb950"/><circle cx="551.3" cy="187.1" r="3" fill="#3fb950"/><circle cx="559.3" cy="187.1" r="3" fill="#3fb950"/><circle cx="567.4" cy="187.1" r="3" fill="#3fb950"/><circle cx="575.4" cy="187.1" r="3" fill="#3fb950"/><circle cx="583.5" cy="187.1" r="3" fill="#3fb950"/><circle cx="591.5" cy="187.1" r="3" fill="#3fb950"/><circle cx="599.6" cy="187.1" r="3" fill="#3fb950"/><circle cx="607.6" cy="187.1" r="3" fill="#3fb950"/><circle cx="615.7" cy="187.1" r="3" fill="#3fb950"/><circle cx="623.7" cy="187.1" r="3" fill="#3fb950"/><circle cx="631.8" cy="187.1" r="3" fill="#3fb950"/><circle cx="639.8" cy="187.1" r="3" fill="#3fb950"/><circle cx="647.9" cy="187.1" r="3" fill="#3fb950"/><circle cx="655.9" cy="187.1" r="3" fill="#3fb950"/><circle cx="664.0" cy="187.1" r="3" fill="#3fb950"/>
<polyline fill="none" stroke="#4aa3ff" stroke-width="2.5" stroke-linejoin="round" points="36.0,122.2 44.1,122.2 52.1,122.2 60.2,122.2 68.2,122.2 76.3,122.2 84.3,122.2 92.4,122.2 100.4,122.2 108.5,122.2 116.5,122.2 124.6,122.2 132.6,122.2 140.7,122.2 148.7,122.2 156.8,110.7 164.8,105.3 172.9,101.3 180.9,101.3 189.0,89.2 197.0,89.2 205.1,89.2 213.1,79.8 221.2,79.8 229.2,79.8 237.3,75.5 245.3,74.9 253.4,74.9 261.4,74.4 269.5,74.4 277.5,73.5 285.6,71.8 293.6,69.8 301.7,69.2 309.7,69.2 317.8,69.2 325.8,69.2 333.9,69.2 341.9,69.2 350.0,69.2 358.1,69.2 366.1,69.2 374.2,69.2 382.2,78.1 390.3,78.1 398.3,78.1 406.4,78.1 414.4,78.1 422.5,74.6 430.5,66.9 438.6,36.0 446.6,36.0 454.7,39.1 462.7,39.1 470.8,39.1 478.8,39.1 486.9,39.1 494.9,39.4 503.0,39.4 511.0,39.4 519.1,39.7 527.1,39.7 535.2,39.7 543.2,39.7 551.3,39.7 559.3,39.7 567.4,39.7 575.4,39.7 583.5,39.7 591.5,39.7 599.6,39.7 607.6,39.7 615.7,39.7 623.7,39.7 631.8,39.7 639.8,39.7 647.9,39.7 655.9,39.7 664.0,39.7"/><circle cx="36.0" cy="122.2" r="3" fill="#4aa3ff"/><circle cx="44.1" cy="122.2" r="3" fill="#4aa3ff"/><circle cx="52.1" cy="122.2" r="3" fill="#4aa3ff"/><circle cx="60.2" cy="122.2" r="3" fill="#4aa3ff"/><circle cx="68.2" cy="122.2" r="3" fill="#4aa3ff"/><circle cx="76.3" cy="122.2" r="3" fill="#4aa3ff"/><circle cx="84.3" cy="122.2" r="3" fill="#4aa3ff"/><circle cx="92.4" cy="122.2" r="3" fill="#4aa3ff"/><circle cx="100.4" cy="122.2" r="3" fill="#4aa3ff"/><circle cx="108.5" cy="122.2" r="3" fill="#4aa3ff"/><circle cx="116.5" cy="122.2" r="3" fill="#4aa3ff"/><circle cx="124.6" cy="122.2" r="3" fill="#4aa3ff"/><circle cx="132.6" cy="122.2" r="3" fill="#4aa3ff"/><circle cx="140.7" cy="122.2" r="3" fill="#4aa3ff"/><circle cx="148.7" cy="122.2" r="3" fill="#4aa3ff"/><circle cx="156.8" cy="110.7" r="3" fill="#4aa3ff"/><circle cx="164.8" cy="105.3" r="3" fill="#4aa3ff"/><circle cx="172.9" cy="101.3" r="3" fill="#4aa3ff"/><circle cx="180.9" cy="101.3" r="3" fill="#4aa3ff"/><circle cx="189.0" cy="89.2" r="3" fill="#4aa3ff"/><circle cx="197.0" cy="89.2" r="3" fill="#4aa3ff"/><circle cx="205.1" cy="89.2" r="3" fill="#4aa3ff"/><circle cx="213.1" cy="79.8" r="3" fill="#4aa3ff"/><circle cx="221.2" cy="79.8" r="3" fill="#4aa3ff"/><circle cx="229.2" cy="79.8" r="3" fill="#4aa3ff"/><circle cx="237.3" cy="75.5" r="3" fill="#4aa3ff"/><circle cx="245.3" cy="74.9" r="3" fill="#4aa3ff"/><circle cx="253.4" cy="74.9" r="3" fill="#4aa3ff"/><circle cx="261.4" cy="74.4" r="3" fill="#4aa3ff"/><circle cx="269.5" cy="74.4" r="3" fill="#4aa3ff"/><circle cx="277.5" cy="73.5" r="3" fill="#4aa3ff"/><circle cx="285.6" cy="71.8" r="3" fill="#4aa3ff"/><circle cx="293.6" cy="69.8" r="3" fill="#4aa3ff"/><circle cx="301.7" cy="69.2" r="3" fill="#4aa3ff"/><circle cx="309.7" cy="69.2" r="3" fill="#4aa3ff"/><circle cx="317.8" cy="69.2" r="3" fill="#4aa3ff"/><circle cx="325.8" cy="69.2" r="3" fill="#4aa3ff"/><circle cx="333.9" cy="69.2" r="3" fill="#4aa3ff"/><circle cx="341.9" cy="69.2" r="3" fill="#4aa3ff"/><circle cx="350.0" cy="69.2" r="3" fill="#4aa3ff"/><circle cx="358.1" cy="69.2" r="3" fill="#4aa3ff"/><circle cx="366.1" cy="69.2" r="3" fill="#4aa3ff"/><circle cx="374.2" cy="69.2" r="3" fill="#4aa3ff"/><circle cx="382.2" cy="78.1" r="3" fill="#4aa3ff"/><circle cx="390.3" cy="78.1" r="3" fill="#4aa3ff"/><circle cx="398.3" cy="78.1" r="3" fill="#4aa3ff"/><circle cx="406.4" cy="78.1" r="3" fill="#4aa3ff"/><circle cx="414.4" cy="78.1" r="3" fill="#4aa3ff"/><circle cx="422.5" cy="74.6" r="3" fill="#4aa3ff"/><circle cx="430.5" cy="66.9" r="3" fill="#4aa3ff"/><circle cx="438.6" cy="36.0" r="3" fill="#4aa3ff"/><circle cx="446.6" cy="36.0" r="3" fill="#4aa3ff"/><circle cx="454.7" cy="39.1" r="3" fill="#4aa3ff"/><circle cx="462.7" cy="39.1" r="3" fill="#4aa3ff"/><circle cx="470.8" cy="39.1" r="3" fill="#4aa3ff"/><circle cx="478.8" cy="39.1" r="3" fill="#4aa3ff"/><circle cx="486.9" cy="39.1" r="3" fill="#4aa3ff"/><circle cx="494.9" cy="39.4" r="3" fill="#4aa3ff"/><circle cx="503.0" cy="39.4" r="3" fill="#4aa3ff"/><circle cx="511.0" cy="39.4" r="3" fill="#4aa3ff"/><circle cx="519.1" cy="39.7" r="3" fill="#4aa3ff"/><circle cx="527.1" cy="39.7" r="3" fill="#4aa3ff"/><circle cx="535.2" cy="39.7" r="3" fill="#4aa3ff"/><circle cx="543.2" cy="39.7" r="3" fill="#4aa3ff"/><circle cx="551.3" cy="39.7" r="3" fill="#4aa3ff"/><circle cx="559.3" cy="39.7" r="3" fill="#4aa3ff"/><circle cx="567.4" cy="39.7" r="3" fill="#4aa3ff"/><circle cx="575.4" cy="39.7" r="3" fill="#4aa3ff"/><circle cx="583.5" cy="39.7" r="3" fill="#4aa3ff"/><circle cx="591.5" cy="39.7" r="3" fill="#4aa3ff"/><circle cx="599.6" cy="39.7" r="3" fill="#4aa3ff"/><circle cx="607.6" cy="39.7" r="3" fill="#4aa3ff"/><circle cx="615.7" cy="39.7" r="3" fill="#4aa3ff"/><circle cx="623.7" cy="39.7" r="3" fill="#4aa3ff"/><circle cx="631.8" cy="39.7" r="3" fill="#4aa3ff"/><circle cx="639.8" cy="39.7" r="3" fill="#4aa3ff"/><circle cx="647.9" cy="39.7" r="3" fill="#4aa3ff"/><circle cx="655.9" cy="39.7" r="3" fill="#4aa3ff"/><circle cx="664.0" cy="39.7" r="3" fill="#4aa3ff"/>
<text x="36" y="225" fill="#6b7280" font-size="11">2026-06-26</text>
<text x="664" y="225" fill="#6b7280" font-size="11" text-anchor="end">2026-07-05</text>
<text x="36" y="212" font-family="system-ui,sans-serif" font-size="11">
<tspan fill="#4aa3ff">&#9679; open FPs</tspan>  <tspan fill="#3fb950">&#9679; closed (Anthropic acting)</tspan>  <tspan fill="#8a5a5a">&#9679; harness withdrawn</tspan></text>
<text x="664" y="22" text-anchor="end" font-family="system-ui,sans-serif" font-size="12">
<tspan fill="#4aa3ff">open 553</tspan>  <tspan fill="#3fb950">closed 38</tspan>  <tspan fill="#8a5a5a">harness 209</tspan></text>
</svg>