<svg xmlns="http://www.w3.org/2000/svg" width="700" height="234" viewBox="0 0 700 234" role="img">
<rect width="700" height="234" rx="12" fill="#16181d"/>
<text x="36" y="22" fill="#e8eaed" font-family="system-ui,sans-serif" font-size="14" font-weight="700">Is Anthropic acting? cyber/aup false positives over time</text>
<line x1="36" y1="198.0" x2="664" y2="198.0" stroke="#2a2e37" stroke-width="1"/><text x="30" y="202.0" fill="#6b7280" font-size="11" text-anchor="end">0</text><line x1="36" y1="117.0" x2="664" y2="117.0" stroke="#2a2e37" stroke-width="1"/><text x="30" y="121.0" fill="#6b7280" font-size="11" text-anchor="end">314</text><line x1="36" y1="36.0" x2="664" y2="36.0" stroke="#2a2e37" stroke-width="1"/><text x="30" y="40.0" fill="#6b7280" font-size="11" text-anchor="end">629</text>

<polyline fill="none" stroke="#8a5a5a" stroke-width="2.5" stroke-linejoin="round" points="36.0,130.8 43.0,130.8 50.0,130.8 56.9,130.8 63.9,130.8 70.9,130.8 77.9,130.8 84.8,130.8 91.8,130.8 98.8,130.8 105.8,130.8 112.8,130.8 119.7,130.8 126.7,130.8 133.7,130.8 140.7,130.8 147.6,130.8 154.6,130.8 161.6,130.8 168.6,130.8 175.6,130.8 182.5,130.8 189.5,130.8 196.5,130.8 203.5,130.8 210.4,130.8 217.4,130.8 224.4,130.8 231.4,130.8 238.4,130.8 245.3,130.8 252.3,130.8 259.3,130.8 266.3,130.8 273.2,130.8 280.2,130.8 287.2,130.8 294.2,130.8 301.2,130.8 308.1,130.8 315.1,130.8 322.1,130.8 329.1,130.8 336.0,130.8 343.0,130.8 350.0,130.8 357.0,130.8 364.0,130.8 370.9,130.8 377.9,130.8 384.9,144.2 391.9,144.2 398.8,144.2 405.8,144.2 412.8,144.2 419.8,144.2 426.8,144.2 433.7,144.2 440.7,144.2 447.7,144.2 454.7,144.2 461.6,144.2 468.6,144.2 475.6,144.2 482.6,144.2 489.6,144.2 496.5,144.2 503.5,144.2 510.5,144.2 517.5,144.2 524.4,144.2 531.4,144.2 538.4,144.2 545.4,144.2 552.4,144.2 559.3,144.2 566.3,144.2 573.3,144.2 580.3,144.2 587.2,144.2 594.2,144.2 601.2,144.2 608.2,144.2 615.2,144.2 622.1,159.4 629.1,159.4 636.1,162.7 643.1,162.7 650.0,163.0 657.0,163.2 664.0,163.2"/><circle cx="36.0" cy="130.8" r="3" fill="#8a5a5a"/><circle cx="43.0" cy="130.8" r="3" fill="#8a5a5a"/><circle cx="50.0" cy="130.8" r="3" fill="#8a5a5a"/><circle cx="56.9" cy="130.8" r="3" fill="#8a5a5a"/><circle cx="63.9" cy="130.8" r="3" fill="#8a5a5a"/><circle cx="70.9" cy="130.8" r="3" fill="#8a5a5a"/><circle cx="77.9" cy="130.8" r="3" fill="#8a5a5a"/><circle cx="84.8" cy="130.8" r="3" fill="#8a5a5a"/><circle cx="91.8" cy="130.8" r="3" fill="#8a5a5a"/><circle cx="98.8" cy="130.8" r="3" fill="#8a5a5a"/><circle cx="105.8" cy="130.8" r="3" fill="#8a5a5a"/><circle cx="112.8" cy="130.8" r="3" fill="#8a5a5a"/><circle cx="119.7" cy="130.8" r="3" fill="#8a5a5a"/><circle cx="126.7" cy="130.8" r="3" fill="#8a5a5a"/><circle cx="133.7" cy="130.8" r="3" fill="#8a5a5a"/><circle cx="140.7" cy="130.8" r="3" fill="#8a5a5a"/><circle cx="147.6" cy="130.8" r="3" fill="#8a5a5a"/><circle cx="154.6" cy="130.8" r="3" fill="#8a5a5a"/><circle cx="161.6" cy="130.8" r="3" fill="#8a5a5a"/><circle cx="168.6" cy="130.8" r="3" fill="#8a5a5a"/><circle cx="175.6" cy="130.8" r="3" fill="#8a5a5a"/><circle cx="182.5" cy="130.8" r="3" fill="#8a5a5a"/><circle cx="189.5" cy="130.8" r="3" fill="#8a5a5a"/><circle cx="196.5" cy="130.8" r="3" fill="#8a5a5a"/><circle cx="203.5" cy="130.8" r="3" fill="#8a5a5a"/><circle cx="210.4" cy="130.8" r="3" fill="#8a5a5a"/><circle cx="217.4" cy="130.8" r="3" fill="#8a5a5a"/><circle cx="224.4" cy="130.8" r="3" fill="#8a5a5a"/><circle cx="231.4" cy="130.8" r="3" fill="#8a5a5a"/><circle cx="238.4" cy="130.8" r="3" fill="#8a5a5a"/><circle cx="245.3" cy="130.8" r="3" fill="#8a5a5a"/><circle cx="252.3" cy="130.8" r="3" fill="#8a5a5a"/><circle cx="259.3" cy="130.8" r="3" fill="#8a5a5a"/><circle cx="266.3" cy="130.8" r="3" fill="#8a5a5a"/><circle cx="273.2" cy="130.8" r="3" fill="#8a5a5a"/><circle cx="280.2" cy="130.8" r="3" fill="#8a5a5a"/><circle cx="287.2" cy="130.8" r="3" fill="#8a5a5a"/><circle cx="294.2" cy="130.8" r="3" fill="#8a5a5a"/><circle cx="301.2" cy="130.8" r="3" fill="#8a5a5a"/><circle cx="308.1" cy="130.8" r="3" fill="#8a5a5a"/><circle cx="315.1" cy="130.8" r="3" fill="#8a5a5a"/><circle cx="322.1" cy="130.8" r="3" fill="#8a5a5a"/><circle cx="329.1" cy="130.8" r="3" fill="#8a5a5a"/><circle cx="336.0" cy="130.8" r="3" fill="#8a5a5a"/><circle cx="343.0" cy="130.8" r="3" fill="#8a5a5a"/><circle cx="350.0" cy="130.8" r="3" fill="#8a5a5a"/><circle cx="357.0" cy="130.8" r="3" fill="#8a5a5a"/><circle cx="364.0" cy="130.8" r="3" fill="#8a5a5a"/><circle cx="370.9" cy="130.8" r="3" fill="#8a5a5a"/><circle cx="377.9" cy="130.8" r="3" fill="#8a5a5a"/><circle cx="384.9" cy="144.2" r="3" fill="#8a5a5a"/><circle cx="391.9" cy="144.2" r="3" fill="#8a5a5a"/><circle cx="398.8" cy="144.2" r="3" fill="#8a5a5a"/><circle cx="405.8" cy="144.2" r="3" fill="#8a5a5a"/><circle cx="412.8" cy="144.2" r="3" fill="#8a5a5a"/><circle cx="419.8" cy="144.2" r="3" fill="#8a5a5a"/><circle cx="426.8" cy="144.2" r="3" fill="#8a5a5a"/><circle cx="433.7" cy="144.2" r="3" fill="#8a5a5a"/><circle cx="440.7" cy="144.2" r="3" fill="#8a5a5a"/><circle cx="447.7" cy="144.2" r="3" fill="#8a5a5a"/><circle cx="454.7" cy="144.2" r="3" fill="#8a5a5a"/><circle cx="461.6" cy="144.2" r="3" fill="#8a5a5a"/><circle cx="468.6" cy="144.2" r="3" fill="#8a5a5a"/><circle cx="475.6" cy="144.2" r="3" fill="#8a5a5a"/><circle cx="482.6" cy="144.2" r="3" fill="#8a5a5a"/><circle cx="489.6" cy="144.2" r="3" fill="#8a5a5a"/><circle cx="496.5" cy="144.2" r="3" fill="#8a5a5a"/><circle cx="503.5" cy="144.2" r="3" fill="#8a5a5a"/><circle cx="510.5" cy="144.2" r="3" fill="#8a5a5a"/><circle cx="517.5" cy="144.2" r="3" fill="#8a5a5a"/><circle cx="524.4" cy="144.2" r="3" fill="#8a5a5a"/><circle cx="531.4" cy="144.2" r="3" fill="#8a5a5a"/><circle cx="538.4" cy="144.2" r="3" fill="#8a5a5a"/><circle cx="545.4" cy="144.2" r="3" fill="#8a5a5a"/><circle cx="552.4" cy="144.2" r="3" fill="#8a5a5a"/><circle cx="559.3" cy="144.2" r="3" fill="#8a5a5a"/><circle cx="566.3" cy="144.2" r="3" fill="#8a5a5a"/><circle cx="573.3" cy="144.2" r="3" fill="#8a5a5a"/><circle cx="580.3" cy="144.2" r="3" fill="#8a5a5a"/><circle cx="587.2" cy="144.2" r="3" fill="#8a5a5a"/><circle cx="594.2" cy="144.2" r="3" fill="#8a5a5a"/><circle cx="601.2" cy="144.2" r="3" fill="#8a5a5a"/><circle cx="608.2" cy="144.2" r="3" fill="#8a5a5a"/><circle cx="615.2" cy="144.2" r="3" fill="#8a5a5a"/><circle cx="622.1" cy="159.4" r="3" fill="#8a5a5a"/><circle cx="629.1" cy="159.4" r="3" fill="#8a5a5a"/><circle cx="636.1" cy="162.7" r="3" fill="#8a5a5a"/><circle cx="643.1" cy="162.7" r="3" fill="#8a5a5a"/><circle cx="650.0" cy="163.0" r="3" fill="#8a5a5a"/><circle cx="657.0" cy="163.2" r="3" fill="#8a5a5a"/><circle cx="664.0" cy="163.2" r="3" fill="#8a5a5a"/>
<polyline fill="none" stroke="#3fb950" stroke-width="2.5" stroke-linejoin="round" points="36.0,198.0 43.0,198.0 50.0,198.0 56.9,198.0 63.9,198.0 70.9,198.0 77.9,198.0 84.8,198.0 91.8,198.0 98.8,198.0 105.8,198.0 112.8,198.0 119.7,198.0 126.7,198.0 133.7,198.0 140.7,198.0 147.6,198.0 154.6,198.0 161.6,198.0 168.6,198.0 175.6,198.0 182.5,198.0 189.5,198.0 196.5,198.0 203.5,198.0 210.4,198.0 217.4,198.0 224.4,198.0 231.4,198.0 238.4,198.0 245.3,198.0 252.3,198.0 259.3,198.0 266.3,198.0 273.2,198.0 280.2,198.0 287.2,198.0 294.2,198.0 301.2,198.0 308.1,198.0 315.1,198.0 322.1,198.0 329.1,198.0 336.0,190.0 343.0,190.0 350.0,190.0 357.0,190.0 364.0,190.0 370.9,190.0 377.9,190.0 384.9,191.6 391.9,191.6 398.8,188.7 405.8,188.7 412.8,188.7 419.8,188.7 426.8,188.7 433.7,188.5 440.7,188.5 447.7,188.5 454.7,188.2 461.6,188.2 468.6,188.2 475.6,188.2 482.6,188.2 489.6,188.2 496.5,188.2 503.5,188.2 510.5,188.2 517.5,188.2 524.4,188.2 531.4,188.2 538.4,188.2 545.4,188.2 552.4,188.2 559.3,188.2 566.3,188.2 573.3,188.2 580.3,188.2 587.2,188.2 594.2,188.2 601.2,186.9 608.2,186.9 615.2,186.9 622.1,188.7 629.1,188.7 636.1,188.7 643.1,188.7 650.0,188.7 657.0,188.7 664.0,188.7"/><circle cx="36.0" cy="198.0" r="3" fill="#3fb950"/><circle cx="43.0" cy="198.0" r="3" fill="#3fb950"/><circle cx="50.0" cy="198.0" r="3" fill="#3fb950"/><circle cx="56.9" cy="198.0" r="3" fill="#3fb950"/><circle cx="63.9" cy="198.0" r="3" fill="#3fb950"/><circle cx="70.9" cy="198.0" r="3" fill="#3fb950"/><circle cx="77.9" cy="198.0" r="3" fill="#3fb950"/><circle cx="84.8" cy="198.0" r="3" fill="#3fb950"/><circle cx="91.8" cy="198.0" r="3" fill="#3fb950"/><circle cx="98.8" cy="198.0" r="3" fill="#3fb950"/><circle cx="105.8" cy="198.0" r="3" fill="#3fb950"/><circle cx="112.8" cy="198.0" r="3" fill="#3fb950"/><circle cx="119.7" cy="198.0" r="3" fill="#3fb950"/><circle cx="126.7" cy="198.0" r="3" fill="#3fb950"/><circle cx="133.7" cy="198.0" r="3" fill="#3fb950"/><circle cx="140.7" cy="198.0" r="3" fill="#3fb950"/><circle cx="147.6" cy="198.0" r="3" fill="#3fb950"/><circle cx="154.6" cy="198.0" r="3" fill="#3fb950"/><circle cx="161.6" cy="198.0" r="3" fill="#3fb950"/><circle cx="168.6" cy="198.0" r="3" fill="#3fb950"/><circle cx="175.6" cy="198.0" r="3" fill="#3fb950"/><circle cx="182.5" cy="198.0" r="3" fill="#3fb950"/><circle cx="189.5" cy="198.0" r="3" fill="#3fb950"/><circle cx="196.5" cy="198.0" r="3" fill="#3fb950"/><circle cx="203.5" cy="198.0" r="3" fill="#3fb950"/><circle cx="210.4" cy="198.0" r="3" fill="#3fb950"/><circle cx="217.4" cy="198.0" r="3" fill="#3fb950"/><circle cx="224.4" cy="198.0" r="3" fill="#3fb950"/><circle cx="231.4" cy="198.0" r="3" fill="#3fb950"/><circle cx="238.4" cy="198.0" r="3" fill="#3fb950"/><circle cx="245.3" cy="198.0" r="3" fill="#3fb950"/><circle cx="252.3" cy="198.0" r="3" fill="#3fb950"/><circle cx="259.3" cy="198.0" r="3" fill="#3fb950"/><circle cx="266.3" cy="198.0" r="3" fill="#3fb950"/><circle cx="273.2" cy="198.0" r="3" fill="#3fb950"/><circle cx="280.2" cy="198.0" r="3" fill="#3fb950"/><circle cx="287.2" cy="198.0" r="3" fill="#3fb950"/><circle cx="294.2" cy="198.0" r="3" fill="#3fb950"/><circle cx="301.2" cy="198.0" r="3" fill="#3fb950"/><circle cx="308.1" cy="198.0" r="3" fill="#3fb950"/><circle cx="315.1" cy="198.0" r="3" fill="#3fb950"/><circle cx="322.1" cy="198.0" r="3" fill="#3fb950"/><circle cx="329.1" cy="198.0" r="3" fill="#3fb950"/><circle cx="336.0" cy="190.0" r="3" fill="#3fb950"/><circle cx="343.0" cy="190.0" r="3" fill="#3fb950"/><circle cx="350.0" cy="190.0" r="3" fill="#3fb950"/><circle cx="357.0" cy="190.0" r="3" fill="#3fb950"/><circle cx="364.0" cy="190.0" r="3" fill="#3fb950"/><circle cx="370.9" cy="190.0" r="3" fill="#3fb950"/><circle cx="377.9" cy="190.0" r="3" fill="#3fb950"/><circle cx="384.9" cy="191.6" r="3" fill="#3fb950"/><circle cx="391.9" cy="191.6" r="3" fill="#3fb950"/><circle cx="398.8" cy="188.7" r="3" fill="#3fb950"/><circle cx="405.8" cy="188.7" r="3" fill="#3fb950"/><circle cx="412.8" cy="188.7" r="3" fill="#3fb950"/><circle cx="419.8" cy="188.7" r="3" fill="#3fb950"/><circle cx="426.8" cy="188.7" r="3" fill="#3fb950"/><circle cx="433.7" cy="188.5" r="3" fill="#3fb950"/><circle cx="440.7" cy="188.5" r="3" fill="#3fb950"/><circle cx="447.7" cy="188.5" r="3" fill="#3fb950"/><circle cx="454.7" cy="188.2" r="3" fill="#3fb950"/><circle cx="461.6" cy="188.2" r="3" fill="#3fb950"/><circle cx="468.6" cy="188.2" r="3" fill="#3fb950"/><circle cx="475.6" cy="188.2" r="3" fill="#3fb950"/><circle cx="482.6" cy="188.2" r="3" fill="#3fb950"/><circle cx="489.6" cy="188.2" r="3" fill="#3fb950"/><circle cx="496.5" cy="188.2" r="3" fill="#3fb950"/><circle cx="503.5" cy="188.2" r="3" fill="#3fb950"/><circle cx="510.5" cy="188.2" r="3" fill="#3fb950"/><circle cx="517.5" cy="188.2" r="3" fill="#3fb950"/><circle cx="524.4" cy="188.2" r="3" fill="#3fb950"/><circle cx="531.4" cy="188.2" r="3" fill="#3fb950"/><circle cx="538.4" cy="188.2" r="3" fill="#3fb950"/><circle cx="545.4" cy="188.2" r="3" fill="#3fb950"/><circle cx="552.4" cy="188.2" r="3" fill="#3fb950"/><circle cx="559.3" cy="188.2" r="3" fill="#3fb950"/><circle cx="566.3" cy="188.2" r="3" fill="#3fb950"/><circle cx="573.3" cy="188.2" r="3" fill="#3fb950"/><circle cx="580.3" cy="188.2" r="3" fill="#3fb950"/><circle cx="587.2" cy="188.2" r="3" fill="#3fb950"/><circle cx="594.2" cy="188.2" r="3" fill="#3fb950"/><circle cx="601.2" cy="186.9" r="3" fill="#3fb950"/><circle cx="608.2" cy="186.9" r="3" fill="#3fb950"/><circle cx="615.2" cy="186.9" r="3" fill="#3fb950"/><circle cx="622.1" cy="188.7" r="3" fill="#3fb950"/><circle cx="629.1" cy="188.7" r="3" fill="#3fb950"/><circle cx="636.1" cy="188.7" r="3" fill="#3fb950"/><circle cx="643.1" cy="188.7" r="3" fill="#3fb950"/><circle cx="650.0" cy="188.7" r="3" fill="#3fb950"/><circle cx="657.0" cy="188.7" r="3" fill="#3fb950"/><circle cx="664.0" cy="188.7" r="3" fill="#3fb950"/>
<polyline fill="none" stroke="#4aa3ff" stroke-width="2.5" stroke-linejoin="round" points="36.0,129.7 43.0,129.7 50.0,129.7 56.9,129.7 63.9,129.7 70.9,129.7 77.9,129.7 84.8,129.7 91.8,129.7 98.8,129.7 105.8,129.7 112.8,129.7 119.7,129.7 126.7,129.7 133.7,129.7 140.7,119.4 147.6,114.6 154.6,110.9 161.6,110.9 168.6,100.1 175.6,100.1 182.5,100.1 189.5,91.6 196.5,91.6 203.5,91.6 210.4,87.8 217.4,87.3 224.4,87.3 231.4,86.7 238.4,86.7 245.3,86.0 252.3,84.4 259.3,82.6 266.3,82.1 273.2,82.1 280.2,82.1 287.2,82.1 294.2,82.1 301.2,82.1 308.1,82.1 315.1,82.1 322.1,82.1 329.1,82.1 336.0,90.1 343.0,90.1 350.0,90.1 357.0,90.1 364.0,90.1 370.9,87.0 377.9,80.0 384.9,52.2 391.9,52.2 398.8,55.1 405.8,55.1 412.8,55.1 419.8,55.1 426.8,55.1 433.7,55.3 440.7,55.3 447.7,55.3 454.7,55.6 461.6,55.6 468.6,55.6 475.6,55.6 482.6,55.6 489.6,55.6 496.5,55.6 503.5,55.6 510.5,55.6 517.5,55.6 524.4,55.6 531.4,55.6 538.4,55.6 545.4,55.6 552.4,55.6 559.3,55.6 566.3,55.6 573.3,55.6 580.3,55.6 587.2,55.6 594.2,55.6 601.2,56.9 608.2,56.9 615.2,56.9 622.1,39.9 629.1,39.9 636.1,36.5 643.1,36.5 650.0,36.3 657.0,36.0 664.0,36.0"/><circle cx="36.0" cy="129.7" r="3" fill="#4aa3ff"/><circle cx="43.0" cy="129.7" r="3" fill="#4aa3ff"/><circle cx="50.0" cy="129.7" r="3" fill="#4aa3ff"/><circle cx="56.9" cy="129.7" r="3" fill="#4aa3ff"/><circle cx="63.9" cy="129.7" r="3" fill="#4aa3ff"/><circle cx="70.9" cy="129.7" r="3" fill="#4aa3ff"/><circle cx="77.9" cy="129.7" r="3" fill="#4aa3ff"/><circle cx="84.8" cy="129.7" r="3" fill="#4aa3ff"/><circle cx="91.8" cy="129.7" r="3" fill="#4aa3ff"/><circle cx="98.8" cy="129.7" r="3" fill="#4aa3ff"/><circle cx="105.8" cy="129.7" r="3" fill="#4aa3ff"/><circle cx="112.8" cy="129.7" r="3" fill="#4aa3ff"/><circle cx="119.7" cy="129.7" r="3" fill="#4aa3ff"/><circle cx="126.7" cy="129.7" r="3" fill="#4aa3ff"/><circle cx="133.7" cy="129.7" r="3" fill="#4aa3ff"/><circle cx="140.7" cy="119.4" r="3" fill="#4aa3ff"/><circle cx="147.6" cy="114.6" r="3" fill="#4aa3ff"/><circle cx="154.6" cy="110.9" r="3" fill="#4aa3ff"/><circle cx="161.6" cy="110.9" r="3" fill="#4aa3ff"/><circle cx="168.6" cy="100.1" r="3" fill="#4aa3ff"/><circle cx="175.6" cy="100.1" r="3" fill="#4aa3ff"/><circle cx="182.5" cy="100.1" r="3" fill="#4aa3ff"/><circle cx="189.5" cy="91.6" r="3" fill="#4aa3ff"/><circle cx="196.5" cy="91.6" r="3" fill="#4aa3ff"/><circle cx="203.5" cy="91.6" r="3" fill="#4aa3ff"/><circle cx="210.4" cy="87.8" r="3" fill="#4aa3ff"/><circle cx="217.4" cy="87.3" r="3" fill="#4aa3ff"/><circle cx="224.4" cy="87.3" r="3" fill="#4aa3ff"/><circle cx="231.4" cy="86.7" r="3" fill="#4aa3ff"/><circle cx="238.4" cy="86.7" r="3" fill="#4aa3ff"/><circle cx="245.3" cy="86.0" r="3" fill="#4aa3ff"/><circle cx="252.3" cy="84.4" r="3" fill="#4aa3ff"/><circle cx="259.3" cy="82.6" r="3" fill="#4aa3ff"/><circle cx="266.3" cy="82.1" r="3" fill="#4aa3ff"/><circle cx="273.2" cy="82.1" r="3" fill="#4aa3ff"/><circle cx="280.2" cy="82.1" r="3" fill="#4aa3ff"/><circle cx="287.2" cy="82.1" r="3" fill="#4aa3ff"/><circle cx="294.2" cy="82.1" r="3" fill="#4aa3ff"/><circle cx="301.2" cy="82.1" r="3" fill="#4aa3ff"/><circle cx="308.1" cy="82.1" r="3" fill="#4aa3ff"/><circle cx="315.1" cy="82.1" r="3" fill="#4aa3ff"/><circle cx="322.1" cy="82.1" r="3" fill="#4aa3ff"/><circle cx="329.1" cy="82.1" r="3" fill="#4aa3ff"/><circle cx="336.0" cy="90.1" r="3" fill="#4aa3ff"/><circle cx="343.0" cy="90.1" r="3" fill="#4aa3ff"/><circle cx="350.0" cy="90.1" r="3" fill="#4aa3ff"/><circle cx="357.0" cy="90.1" r="3" fill="#4aa3ff"/><circle cx="364.0" cy="90.1" r="3" fill="#4aa3ff"/><circle cx="370.9" cy="87.0" r="3" fill="#4aa3ff"/><circle cx="377.9" cy="80.0" r="3" fill="#4aa3ff"/><circle cx="384.9" cy="52.2" r="3" fill="#4aa3ff"/><circle cx="391.9" cy="52.2" r="3" fill="#4aa3ff"/><circle cx="398.8" cy="55.1" r="3" fill="#4aa3ff"/><circle cx="405.8" cy="55.1" r="3" fill="#4aa3ff"/><circle cx="412.8" cy="55.1" r="3" fill="#4aa3ff"/><circle cx="419.8" cy="55.1" r="3" fill="#4aa3ff"/><circle cx="426.8" cy="55.1" r="3" fill="#4aa3ff"/><circle cx="433.7" cy="55.3" r="3" fill="#4aa3ff"/><circle cx="440.7" cy="55.3" r="3" fill="#4aa3ff"/><circle cx="447.7" cy="55.3" r="3" fill="#4aa3ff"/><circle cx="454.7" cy="55.6" r="3" fill="#4aa3ff"/><circle cx="461.6" cy="55.6" r="3" fill="#4aa3ff"/><circle cx="468.6" cy="55.6" r="3" fill="#4aa3ff"/><circle cx="475.6" cy="55.6" r="3" fill="#4aa3ff"/><circle cx="482.6" cy="55.6" r="3" fill="#4aa3ff"/><circle cx="489.6" cy="55.6" r="3" fill="#4aa3ff"/><circle cx="496.5" cy="55.6" r="3" fill="#4aa3ff"/><circle cx="503.5" cy="55.6" r="3" fill="#4aa3ff"/><circle cx="510.5" cy="55.6" r="3" fill="#4aa3ff"/><circle cx="517.5" cy="55.6" r="3" fill="#4aa3ff"/><circle cx="524.4" cy="55.6" r="3" fill="#4aa3ff"/><circle cx="531.4" cy="55.6" r="3" fill="#4aa3ff"/><circle cx="538.4" cy="55.6" r="3" fill="#4aa3ff"/><circle cx="545.4" cy="55.6" r="3" fill="#4aa3ff"/><circle cx="552.4" cy="55.6" r="3" fill="#4aa3ff"/><circle cx="559.3" cy="55.6" r="3" fill="#4aa3ff"/><circle cx="566.3" cy="55.6" r="3" fill="#4aa3ff"/><circle cx="573.3" cy="55.6" r="3" fill="#4aa3ff"/><circle cx="580.3" cy="55.6" r="3" fill="#4aa3ff"/><circle cx="587.2" cy="55.6" r="3" fill="#4aa3ff"/><circle cx="594.2" cy="55.6" r="3" fill="#4aa3ff"/><circle cx="601.2" cy="56.9" r="3" fill="#4aa3ff"/><circle cx="608.2" cy="56.9" r="3" fill="#4aa3ff"/><circle cx="615.2" cy="56.9" r="3" fill="#4aa3ff"/><circle cx="622.1" cy="39.9" r="3" fill="#4aa3ff"/><circle cx="629.1" cy="39.9" r="3" fill="#4aa3ff"/><circle cx="636.1" cy="36.5" r="3" fill="#4aa3ff"/><circle cx="643.1" cy="36.5" r="3" fill="#4aa3ff"/><circle cx="650.0" cy="36.3" r="3" fill="#4aa3ff"/><circle cx="657.0" cy="36.0" r="3" fill="#4aa3ff"/><circle cx="664.0" cy="36.0" r="3" fill="#4aa3ff"/>
<text x="36" y="225" fill="#6b7280" font-size="11">2026-06-26</text>
<text x="664" y="225" fill="#6b7280" font-size="11" text-anchor="end">2026-07-06</text>
<text x="36" y="212" font-family="system-ui,sans-serif" font-size="11">
<tspan fill="#4aa3ff">&#9679; open FPs</tspan>  <tspan fill="#3fb950">&#9679; closed (Anthropic acting)</tspan>  <tspan fill="#8a5a5a">&#9679; harness withdrawn</tspan></text>
<text x="664" y="22" text-anchor="end" font-family="system-ui,sans-serif" font-size="12">
<tspan fill="#4aa3ff">open 629</tspan>  <tspan fill="#3fb950">closed 36</tspan>  <tspan fill="#8a5a5a">harness 135</tspan></text>
</svg>