<svg xmlns="http://www.w3.org/2000/svg" width="700" height="234" viewBox="0 0 700 234" role="img">
<rect width="700" height="234" rx="12" fill="#16181d"/>
<text x="36" y="22" fill="#e8eaed" font-family="system-ui,sans-serif" font-size="14" font-weight="700">Is Anthropic acting? cyber/aup false positives over time</text>
<line x1="36" y1="198.0" x2="664" y2="198.0" stroke="#2a2e37" stroke-width="1"/><text x="30" y="202.0" fill="#6b7280" font-size="11" text-anchor="end">0</text><line x1="36" y1="117.0" x2="664" y2="117.0" stroke="#2a2e37" stroke-width="1"/><text x="30" y="121.0" fill="#6b7280" font-size="11" text-anchor="end">400</text><line x1="36" y1="36.0" x2="664" y2="36.0" stroke="#2a2e37" stroke-width="1"/><text x="30" y="40.0" fill="#6b7280" font-size="11" text-anchor="end">800</text>

<polyline fill="none" stroke="#8a5a5a" stroke-width="2.5" stroke-linejoin="round" points="36.0,145.1 39.9,145.1 43.9,145.1 47.8,145.1 51.8,145.1 55.7,145.1 59.7,145.1 63.6,145.1 67.6,145.1 71.5,145.1 75.5,145.1 79.4,145.1 83.4,145.1 87.3,145.1 91.3,145.1 95.2,145.1 99.2,145.1 103.1,145.1 107.1,145.1 111.0,145.1 115.0,145.1 118.9,145.1 122.9,145.1 126.8,145.1 130.8,145.1 134.7,145.1 138.7,145.1 142.6,145.1 146.6,145.1 150.5,145.1 154.5,145.1 158.4,145.1 162.4,145.1 166.3,145.1 170.3,145.1 174.2,145.1 178.2,145.1 182.1,145.1 186.1,145.1 190.0,145.1 194.0,145.1 197.9,145.1 201.9,145.1 205.8,145.1 209.8,145.1 213.7,145.1 217.7,145.1 221.6,145.1 225.6,145.1 229.5,145.1 233.5,155.7 237.4,155.7 241.4,155.7 245.3,155.7 249.3,155.7 253.2,155.7 257.2,155.7 261.1,155.7 265.1,155.7 269.0,155.7 273.0,155.7 276.9,155.7 280.9,155.7 284.8,155.7 288.8,155.7 292.7,155.7 296.7,155.7 300.6,155.7 304.6,155.7 308.5,155.7 312.5,155.7 316.4,155.7 320.4,155.7 324.3,155.7 328.3,155.7 332.2,155.7 336.2,155.7 340.1,155.7 344.1,155.7 348.0,155.7 352.0,155.7 355.9,155.7 359.9,155.7 363.8,155.7 367.8,167.6 371.7,167.6 375.7,170.3 379.6,170.3 383.6,170.5 387.5,170.7 391.5,170.7 395.4,170.9 399.4,172.7 403.3,180.6 407.3,181.8 411.2,189.1 415.2,190.5 419.1,195.2 423.1,198.0 427.0,198.0 431.0,198.0 434.9,198.0 438.9,198.0 442.8,198.0 446.8,198.0 450.7,198.0 454.7,198.0 458.6,198.0 462.6,198.0 466.5,198.0 470.5,198.0 474.4,198.0 478.4,198.0 482.3,198.0 486.3,198.0 490.2,198.0 494.2,198.0 498.1,198.0 502.1,198.0 506.0,198.0 510.0,198.0 513.9,198.0 517.9,198.0 521.8,198.0 525.8,198.0 529.7,198.0 533.7,198.0 537.6,198.0 541.6,198.0 545.5,198.0 549.5,198.0 553.4,198.0 557.4,198.0 561.3,198.0 565.3,198.0 569.2,198.0 573.2,198.0 577.1,198.0 581.1,198.0 585.0,198.0 589.0,198.0 592.9,198.0 596.9,198.0 600.8,198.0 604.8,198.0 608.7,198.0 612.7,198.0 616.6,198.0 620.6,198.0 624.5,198.0 628.5,198.0 632.4,198.0 636.4,198.0 640.3,198.0 644.3,198.0 648.2,198.0 652.2,198.0 656.1,198.0 660.1,198.0 664.0,198.0"/><circle cx="36.0" cy="145.1" r="3" fill="#8a5a5a"/><circle cx="39.9" cy="145.1" r="3" fill="#8a5a5a"/><circle cx="43.9" cy="145.1" r="3" fill="#8a5a5a"/><circle cx="47.8" cy="145.1" r="3" fill="#8a5a5a"/><circle cx="51.8" cy="145.1" r="3" fill="#8a5a5a"/><circle cx="55.7" cy="145.1" r="3" fill="#8a5a5a"/><circle cx="59.7" cy="145.1" r="3" fill="#8a5a5a"/><circle cx="63.6" cy="145.1" r="3" fill="#8a5a5a"/><circle cx="67.6" cy="145.1" r="3" fill="#8a5a5a"/><circle cx="71.5" cy="145.1" r="3" fill="#8a5a5a"/><circle cx="75.5" cy="145.1" r="3" fill="#8a5a5a"/><circle cx="79.4" cy="145.1" r="3" fill="#8a5a5a"/><circle cx="83.4" cy="145.1" r="3" fill="#8a5a5a"/><circle cx="87.3" cy="145.1" r="3" fill="#8a5a5a"/><circle cx="91.3" cy="145.1" r="3" fill="#8a5a5a"/><circle cx="95.2" cy="145.1" r="3" fill="#8a5a5a"/><circle cx="99.2" cy="145.1" r="3" fill="#8a5a5a"/><circle cx="103.1" cy="145.1" r="3" fill="#8a5a5a"/><circle cx="107.1" cy="145.1" r="3" fill="#8a5a5a"/><circle cx="111.0" cy="145.1" r="3" fill="#8a5a5a"/><circle cx="115.0" cy="145.1" r="3" fill="#8a5a5a"/><circle cx="118.9" cy="145.1" r="3" fill="#8a5a5a"/><circle cx="122.9" cy="145.1" r="3" fill="#8a5a5a"/><circle cx="126.8" cy="145.1" r="3" fill="#8a5a5a"/><circle cx="130.8" cy="145.1" r="3" fill="#8a5a5a"/><circle cx="134.7" cy="145.1" r="3" fill="#8a5a5a"/><circle cx="138.7" cy="145.1" r="3" fill="#8a5a5a"/><circle cx="142.6" cy="145.1" r="3" fill="#8a5a5a"/><circle cx="146.6" cy="145.1" r="3" fill="#8a5a5a"/><circle cx="150.5" cy="145.1" r="3" fill="#8a5a5a"/><circle cx="154.5" cy="145.1" r="3" fill="#8a5a5a"/><circle cx="158.4" cy="145.1" r="3" fill="#8a5a5a"/><circle cx="162.4" cy="145.1" r="3" fill="#8a5a5a"/><circle cx="166.3" cy="145.1" r="3" fill="#8a5a5a"/><circle cx="170.3" cy="145.1" r="3" fill="#8a5a5a"/><circle cx="174.2" cy="145.1" r="3" fill="#8a5a5a"/><circle cx="178.2" cy="145.1" r="3" fill="#8a5a5a"/><circle cx="182.1" cy="145.1" r="3" fill="#8a5a5a"/><circle cx="186.1" cy="145.1" r="3" fill="#8a5a5a"/><circle cx="190.0" cy="145.1" r="3" fill="#8a5a5a"/><circle cx="194.0" cy="145.1" r="3" fill="#8a5a5a"/><circle cx="197.9" cy="145.1" r="3" fill="#8a5a5a"/><circle cx="201.9" cy="145.1" r="3" fill="#8a5a5a"/><circle cx="205.8" cy="145.1" r="3" fill="#8a5a5a"/><circle cx="209.8" cy="145.1" r="3" fill="#8a5a5a"/><circle cx="213.7" cy="145.1" r="3" fill="#8a5a5a"/><circle cx="217.7" cy="145.1" r="3" fill="#8a5a5a"/><circle cx="221.6" cy="145.1" r="3" fill="#8a5a5a"/><circle cx="225.6" cy="145.1" r="3" fill="#8a5a5a"/><circle cx="229.5" cy="145.1" r="3" fill="#8a5a5a"/><circle cx="233.5" cy="155.7" r="3" fill="#8a5a5a"/><circle cx="237.4" cy="155.7" r="3" fill="#8a5a5a"/><circle cx="241.4" cy="155.7" r="3" fill="#8a5a5a"/><circle cx="245.3" cy="155.7" r="3" fill="#8a5a5a"/><circle cx="249.3" cy="155.7" r="3" fill="#8a5a5a"/><circle cx="253.2" cy="155.7" r="3" fill="#8a5a5a"/><circle cx="257.2" cy="155.7" r="3" fill="#8a5a5a"/><circle cx="261.1" cy="155.7" r="3" fill="#8a5a5a"/><circle cx="265.1" cy="155.7" r="3" fill="#8a5a5a"/><circle cx="269.0" cy="155.7" r="3" fill="#8a5a5a"/><circle cx="273.0" cy="155.7" r="3" fill="#8a5a5a"/><circle cx="276.9" cy="155.7" r="3" fill="#8a5a5a"/><circle cx="280.9" cy="155.7" r="3" fill="#8a5a5a"/><circle cx="284.8" cy="155.7" r="3" fill="#8a5a5a"/><circle cx="288.8" cy="155.7" r="3" fill="#8a5a5a"/><circle cx="292.7" cy="155.7" r="3" fill="#8a5a5a"/><circle cx="296.7" cy="155.7" r="3" fill="#8a5a5a"/><circle cx="300.6" cy="155.7" r="3" fill="#8a5a5a"/><circle cx="304.6" cy="155.7" r="3" fill="#8a5a5a"/><circle cx="308.5" cy="155.7" r="3" fill="#8a5a5a"/><circle cx="312.5" cy="155.7" r="3" fill="#8a5a5a"/><circle cx="316.4" cy="155.7" r="3" fill="#8a5a5a"/><circle cx="320.4" cy="155.7" r="3" fill="#8a5a5a"/><circle cx="324.3" cy="155.7" r="3" fill="#8a5a5a"/><circle cx="328.3" cy="155.7" r="3" fill="#8a5a5a"/><circle cx="332.2" cy="155.7" r="3" fill="#8a5a5a"/><circle cx="336.2" cy="155.7" r="3" fill="#8a5a5a"/><circle cx="340.1" cy="155.7" r="3" fill="#8a5a5a"/><circle cx="344.1" cy="155.7" r="3" fill="#8a5a5a"/><circle cx="348.0" cy="155.7" r="3" fill="#8a5a5a"/><circle cx="352.0" cy="155.7" r="3" fill="#8a5a5a"/><circle cx="355.9" cy="155.7" r="3" fill="#8a5a5a"/><circle cx="359.9" cy="155.7" r="3" fill="#8a5a5a"/><circle cx="363.8" cy="155.7" r="3" fill="#8a5a5a"/><circle cx="367.8" cy="167.6" r="3" fill="#8a5a5a"/><circle cx="371.7" cy="167.6" r="3" fill="#8a5a5a"/><circle cx="375.7" cy="170.3" r="3" fill="#8a5a5a"/><circle cx="379.6" cy="170.3" r="3" fill="#8a5a5a"/><circle cx="383.6" cy="170.5" r="3" fill="#8a5a5a"/><circle cx="387.5" cy="170.7" r="3" fill="#8a5a5a"/><circle cx="391.5" cy="170.7" r="3" fill="#8a5a5a"/><circle cx="395.4" cy="170.9" r="3" fill="#8a5a5a"/><circle cx="399.4" cy="172.7" r="3" fill="#8a5a5a"/><circle cx="403.3" cy="180.6" r="3" fill="#8a5a5a"/><circle cx="407.3" cy="181.8" r="3" fill="#8a5a5a"/><circle cx="411.2" cy="189.1" r="3" fill="#8a5a5a"/><circle cx="415.2" cy="190.5" r="3" fill="#8a5a5a"/><circle cx="419.1" cy="195.2" r="3" fill="#8a5a5a"/><circle cx="423.1" cy="198.0" r="3" fill="#8a5a5a"/><circle cx="427.0" cy="198.0" r="3" fill="#8a5a5a"/><circle cx="431.0" cy="198.0" r="3" fill="#8a5a5a"/><circle cx="434.9" cy="198.0" r="3" fill="#8a5a5a"/><circle cx="438.9" cy="198.0" r="3" fill="#8a5a5a"/><circle cx="442.8" cy="198.0" r="3" fill="#8a5a5a"/><circle cx="446.8" cy="198.0" r="3" fill="#8a5a5a"/><circle cx="450.7" cy="198.0" r="3" fill="#8a5a5a"/><circle cx="454.7" cy="198.0" r="3" fill="#8a5a5a"/><circle cx="458.6" cy="198.0" r="3" fill="#8a5a5a"/><circle cx="462.6" cy="198.0" r="3" fill="#8a5a5a"/><circle cx="466.5" cy="198.0" r="3" fill="#8a5a5a"/><circle cx="470.5" cy="198.0" r="3" fill="#8a5a5a"/><circle cx="474.4" cy="198.0" r="3" fill="#8a5a5a"/><circle cx="478.4" cy="198.0" r="3" fill="#8a5a5a"/><circle cx="482.3" cy="198.0" r="3" fill="#8a5a5a"/><circle cx="486.3" cy="198.0" r="3" fill="#8a5a5a"/><circle cx="490.2" cy="198.0" r="3" fill="#8a5a5a"/><circle cx="494.2" cy="198.0" r="3" fill="#8a5a5a"/><circle cx="498.1" cy="198.0" r="3" fill="#8a5a5a"/><circle cx="502.1" cy="198.0" r="3" fill="#8a5a5a"/><circle cx="506.0" cy="198.0" r="3" fill="#8a5a5a"/><circle cx="510.0" cy="198.0" r="3" fill="#8a5a5a"/><circle cx="513.9" cy="198.0" r="3" fill="#8a5a5a"/><circle cx="517.9" cy="198.0" r="3" fill="#8a5a5a"/><circle cx="521.8" cy="198.0" r="3" fill="#8a5a5a"/><circle cx="525.8" cy="198.0" r="3" fill="#8a5a5a"/><circle cx="529.7" cy="198.0" r="3" fill="#8a5a5a"/><circle cx="533.7" cy="198.0" r="3" fill="#8a5a5a"/><circle cx="537.6" cy="198.0" r="3" fill="#8a5a5a"/><circle cx="541.6" cy="198.0" r="3" fill="#8a5a5a"/><circle cx="545.5" cy="198.0" r="3" fill="#8a5a5a"/><circle cx="549.5" cy="198.0" r="3" fill="#8a5a5a"/><circle cx="553.4" cy="198.0" r="3" fill="#8a5a5a"/><circle cx="557.4" cy="198.0" r="3" fill="#8a5a5a"/><circle cx="561.3" cy="198.0" r="3" fill="#8a5a5a"/><circle cx="565.3" cy="198.0" r="3" fill="#8a5a5a"/><circle cx="569.2" cy="198.0" r="3" fill="#8a5a5a"/><circle cx="573.2" cy="198.0" r="3" fill="#8a5a5a"/><circle cx="577.1" cy="198.0" r="3" fill="#8a5a5a"/><circle cx="581.1" cy="198.0" r="3" fill="#8a5a5a"/><circle cx="585.0" cy="198.0" r="3" fill="#8a5a5a"/><circle cx="589.0" cy="198.0" r="3" fill="#8a5a5a"/><circle cx="592.9" cy="198.0" r="3" fill="#8a5a5a"/><circle cx="596.9" cy="198.0" r="3" fill="#8a5a5a"/><circle cx="600.8" cy="198.0" r="3" fill="#8a5a5a"/><circle cx="604.8" cy="198.0" r="3" fill="#8a5a5a"/><circle cx="608.7" cy="198.0" r="3" fill="#8a5a5a"/><circle cx="612.7" cy="198.0" r="3" fill="#8a5a5a"/><circle cx="616.6" cy="198.0" r="3" fill="#8a5a5a"/><circle cx="620.6" cy="198.0" r="3" fill="#8a5a5a"/><circle cx="624.5" cy="198.0" r="3" fill="#8a5a5a"/><circle cx="628.5" cy="198.0" r="3" fill="#8a5a5a"/><circle cx="632.4" cy="198.0" r="3" fill="#8a5a5a"/><circle cx="636.4" cy="198.0" r="3" fill="#8a5a5a"/><circle cx="640.3" cy="198.0" r="3" fill="#8a5a5a"/><circle cx="644.3" cy="198.0" r="3" fill="#8a5a5a"/><circle cx="648.2" cy="198.0" r="3" fill="#8a5a5a"/><circle cx="652.2" cy="198.0" r="3" fill="#8a5a5a"/><circle cx="656.1" cy="198.0" r="3" fill="#8a5a5a"/><circle cx="660.1" cy="198.0" r="3" fill="#8a5a5a"/><circle cx="664.0" cy="198.0" r="3" fill="#8a5a5a"/>
<polyline fill="none" stroke="#3fb950" stroke-width="2.5" stroke-linejoin="round" points="36.0,198.0 39.9,198.0 43.9,198.0 47.8,198.0 51.8,198.0 55.7,198.0 59.7,198.0 63.6,198.0 67.6,198.0 71.5,198.0 75.5,198.0 79.4,198.0 83.4,198.0 87.3,198.0 91.3,198.0 95.2,198.0 99.2,198.0 103.1,198.0 107.1,198.0 111.0,198.0 115.0,198.0 118.9,198.0 122.9,198.0 126.8,198.0 130.8,198.0 134.7,198.0 138.7,198.0 142.6,198.0 146.6,198.0 150.5,198.0 154.5,198.0 158.4,198.0 162.4,198.0 166.3,198.0 170.3,198.0 174.2,198.0 178.2,198.0 182.1,198.0 186.1,198.0 190.0,198.0 194.0,198.0 197.9,198.0 201.9,198.0 205.8,191.7 209.8,191.7 213.7,191.7 217.7,191.7 221.6,191.7 225.6,191.7 229.5,191.7 233.5,192.9 237.4,192.9 241.4,190.7 245.3,190.7 249.3,190.7 253.2,190.7 257.2,190.7 261.1,190.5 265.1,190.5 269.0,190.5 273.0,190.3 276.9,190.3 280.9,190.3 284.8,190.3 288.8,190.3 292.7,190.3 296.7,190.3 300.6,190.3 304.6,190.3 308.5,190.3 312.5,190.3 316.4,190.3 320.4,190.3 324.3,190.3 328.3,190.3 332.2,190.3 336.2,190.3 340.1,190.3 344.1,190.3 348.0,190.3 352.0,190.3 355.9,189.3 359.9,189.3 363.8,189.3 367.8,190.7 371.7,190.7 375.7,190.7 379.6,190.7 383.6,190.7 387.5,190.7 391.5,190.7 395.4,190.7 399.4,190.7 403.3,190.9 407.3,190.9 411.2,190.9 415.2,194.2 419.1,196.8 423.1,198.0 427.0,198.0 431.0,198.0 434.9,198.0 438.9,198.0 442.8,198.0 446.8,198.0 450.7,198.0 454.7,198.0 458.6,198.0 462.6,198.0 466.5,198.0 470.5,198.0 474.4,198.0 478.4,198.0 482.3,198.0 486.3,198.0 490.2,198.0 494.2,198.0 498.1,198.0 502.1,198.0 506.0,198.0 510.0,198.0 513.9,198.0 517.9,198.0 521.8,198.0 525.8,198.0 529.7,198.0 533.7,198.0 537.6,198.0 541.6,198.0 545.5,198.0 549.5,198.0 553.4,198.0 557.4,198.0 561.3,198.0 565.3,198.0 569.2,198.0 573.2,198.0 577.1,198.0 581.1,198.0 585.0,198.0 589.0,198.0 592.9,198.0 596.9,198.0 600.8,198.0 604.8,198.0 608.7,198.0 612.7,198.0 616.6,198.0 620.6,198.0 624.5,198.0 628.5,198.0 632.4,198.0 636.4,198.0 640.3,198.0 644.3,198.0 648.2,198.0 652.2,198.0 656.1,198.0 660.1,198.0 664.0,198.0"/><circle cx="36.0" cy="198.0" r="3" fill="#3fb950"/><circle cx="39.9" cy="198.0" r="3" fill="#3fb950"/><circle cx="43.9" cy="198.0" r="3" fill="#3fb950"/><circle cx="47.8" cy="198.0" r="3" fill="#3fb950"/><circle cx="51.8" cy="198.0" r="3" fill="#3fb950"/><circle cx="55.7" cy="198.0" r="3" fill="#3fb950"/><circle cx="59.7" cy="198.0" r="3" fill="#3fb950"/><circle cx="63.6" cy="198.0" r="3" fill="#3fb950"/><circle cx="67.6" cy="198.0" r="3" fill="#3fb950"/><circle cx="71.5" cy="198.0" r="3" fill="#3fb950"/><circle cx="75.5" cy="198.0" r="3" fill="#3fb950"/><circle cx="79.4" cy="198.0" r="3" fill="#3fb950"/><circle cx="83.4" cy="198.0" r="3" fill="#3fb950"/><circle cx="87.3" cy="198.0" r="3" fill="#3fb950"/><circle cx="91.3" cy="198.0" r="3" fill="#3fb950"/><circle cx="95.2" cy="198.0" r="3" fill="#3fb950"/><circle cx="99.2" cy="198.0" r="3" fill="#3fb950"/><circle cx="103.1" cy="198.0" r="3" fill="#3fb950"/><circle cx="107.1" cy="198.0" r="3" fill="#3fb950"/><circle cx="111.0" cy="198.0" r="3" fill="#3fb950"/><circle cx="115.0" cy="198.0" r="3" fill="#3fb950"/><circle cx="118.9" cy="198.0" r="3" fill="#3fb950"/><circle cx="122.9" cy="198.0" r="3" fill="#3fb950"/><circle cx="126.8" cy="198.0" r="3" fill="#3fb950"/><circle cx="130.8" cy="198.0" r="3" fill="#3fb950"/><circle cx="134.7" cy="198.0" r="3" fill="#3fb950"/><circle cx="138.7" cy="198.0" r="3" fill="#3fb950"/><circle cx="142.6" cy="198.0" r="3" fill="#3fb950"/><circle cx="146.6" cy="198.0" r="3" fill="#3fb950"/><circle cx="150.5" cy="198.0" r="3" fill="#3fb950"/><circle cx="154.5" cy="198.0" r="3" fill="#3fb950"/><circle cx="158.4" cy="198.0" r="3" fill="#3fb950"/><circle cx="162.4" cy="198.0" r="3" fill="#3fb950"/><circle cx="166.3" cy="198.0" r="3" fill="#3fb950"/><circle cx="170.3" cy="198.0" r="3" fill="#3fb950"/><circle cx="174.2" cy="198.0" r="3" fill="#3fb950"/><circle cx="178.2" cy="198.0" r="3" fill="#3fb950"/><circle cx="182.1" cy="198.0" r="3" fill="#3fb950"/><circle cx="186.1" cy="198.0" r="3" fill="#3fb950"/><circle cx="190.0" cy="198.0" r="3" fill="#3fb950"/><circle cx="194.0" cy="198.0" r="3" fill="#3fb950"/><circle cx="197.9" cy="198.0" r="3" fill="#3fb950"/><circle cx="201.9" cy="198.0" r="3" fill="#3fb950"/><circle cx="205.8" cy="191.7" r="3" fill="#3fb950"/><circle cx="209.8" cy="191.7" r="3" fill="#3fb950"/><circle cx="213.7" cy="191.7" r="3" fill="#3fb950"/><circle cx="217.7" cy="191.7" r="3" fill="#3fb950"/><circle cx="221.6" cy="191.7" r="3" fill="#3fb950"/><circle cx="225.6" cy="191.7" r="3" fill="#3fb950"/><circle cx="229.5" cy="191.7" r="3" fill="#3fb950"/><circle cx="233.5" cy="192.9" r="3" fill="#3fb950"/><circle cx="237.4" cy="192.9" r="3" fill="#3fb950"/><circle cx="241.4" cy="190.7" r="3" fill="#3fb950"/><circle cx="245.3" cy="190.7" r="3" fill="#3fb950"/><circle cx="249.3" cy="190.7" r="3" fill="#3fb950"/><circle cx="253.2" cy="190.7" r="3" fill="#3fb950"/><circle cx="257.2" cy="190.7" r="3" fill="#3fb950"/><circle cx="261.1" cy="190.5" r="3" fill="#3fb950"/><circle cx="265.1" cy="190.5" r="3" fill="#3fb950"/><circle cx="269.0" cy="190.5" r="3" fill="#3fb950"/><circle cx="273.0" cy="190.3" r="3" fill="#3fb950"/><circle cx="276.9" cy="190.3" r="3" fill="#3fb950"/><circle cx="280.9" cy="190.3" r="3" fill="#3fb950"/><circle cx="284.8" cy="190.3" r="3" fill="#3fb950"/><circle cx="288.8" cy="190.3" r="3" fill="#3fb950"/><circle cx="292.7" cy="190.3" r="3" fill="#3fb950"/><circle cx="296.7" cy="190.3" r="3" fill="#3fb950"/><circle cx="300.6" cy="190.3" r="3" fill="#3fb950"/><circle cx="304.6" cy="190.3" r="3" fill="#3fb950"/><circle cx="308.5" cy="190.3" r="3" fill="#3fb950"/><circle cx="312.5" cy="190.3" r="3" fill="#3fb950"/><circle cx="316.4" cy="190.3" r="3" fill="#3fb950"/><circle cx="320.4" cy="190.3" r="3" fill="#3fb950"/><circle cx="324.3" cy="190.3" r="3" fill="#3fb950"/><circle cx="328.3" cy="190.3" r="3" fill="#3fb950"/><circle cx="332.2" cy="190.3" r="3" fill="#3fb950"/><circle cx="336.2" cy="190.3" r="3" fill="#3fb950"/><circle cx="340.1" cy="190.3" r="3" fill="#3fb950"/><circle cx="344.1" cy="190.3" r="3" fill="#3fb950"/><circle cx="348.0" cy="190.3" r="3" fill="#3fb950"/><circle cx="352.0" cy="190.3" r="3" fill="#3fb950"/><circle cx="355.9" cy="189.3" r="3" fill="#3fb950"/><circle cx="359.9" cy="189.3" r="3" fill="#3fb950"/><circle cx="363.8" cy="189.3" r="3" fill="#3fb950"/><circle cx="367.8" cy="190.7" r="3" fill="#3fb950"/><circle cx="371.7" cy="190.7" r="3" fill="#3fb950"/><circle cx="375.7" cy="190.7" r="3" fill="#3fb950"/><circle cx="379.6" cy="190.7" r="3" fill="#3fb950"/><circle cx="383.6" cy="190.7" r="3" fill="#3fb950"/><circle cx="387.5" cy="190.7" r="3" fill="#3fb950"/><circle cx="391.5" cy="190.7" r="3" fill="#3fb950"/><circle cx="395.4" cy="190.7" r="3" fill="#3fb950"/><circle cx="399.4" cy="190.7" r="3" fill="#3fb950"/><circle cx="403.3" cy="190.9" r="3" fill="#3fb950"/><circle cx="407.3" cy="190.9" r="3" fill="#3fb950"/><circle cx="411.2" cy="190.9" r="3" fill="#3fb950"/><circle cx="415.2" cy="194.2" r="3" fill="#3fb950"/><circle cx="419.1" cy="196.8" r="3" fill="#3fb950"/><circle cx="423.1" cy="198.0" r="3" fill="#3fb950"/><circle cx="427.0" cy="198.0" r="3" fill="#3fb950"/><circle cx="431.0" cy="198.0" r="3" fill="#3fb950"/><circle cx="434.9" cy="198.0" r="3" fill="#3fb950"/><circle cx="438.9" cy="198.0" r="3" fill="#3fb950"/><circle cx="442.8" cy="198.0" r="3" fill="#3fb950"/><circle cx="446.8" cy="198.0" r="3" fill="#3fb950"/><circle cx="450.7" cy="198.0" r="3" fill="#3fb950"/><circle cx="454.7" cy="198.0" r="3" fill="#3fb950"/><circle cx="458.6" cy="198.0" r="3" fill="#3fb950"/><circle cx="462.6" cy="198.0" r="3" fill="#3fb950"/><circle cx="466.5" cy="198.0" r="3" fill="#3fb950"/><circle cx="470.5" cy="198.0" r="3" fill="#3fb950"/><circle cx="474.4" cy="198.0" r="3" fill="#3fb950"/><circle cx="478.4" cy="198.0" r="3" fill="#3fb950"/><circle cx="482.3" cy="198.0" r="3" fill="#3fb950"/><circle cx="486.3" cy="198.0" r="3" fill="#3fb950"/><circle cx="490.2" cy="198.0" r="3" fill="#3fb950"/><circle cx="494.2" cy="198.0" r="3" fill="#3fb950"/><circle cx="498.1" cy="198.0" r="3" fill="#3fb950"/><circle cx="502.1" cy="198.0" r="3" fill="#3fb950"/><circle cx="506.0" cy="198.0" r="3" fill="#3fb950"/><circle cx="510.0" cy="198.0" r="3" fill="#3fb950"/><circle cx="513.9" cy="198.0" r="3" fill="#3fb950"/><circle cx="517.9" cy="198.0" r="3" fill="#3fb950"/><circle cx="521.8" cy="198.0" r="3" fill="#3fb950"/><circle cx="525.8" cy="198.0" r="3" fill="#3fb950"/><circle cx="529.7" cy="198.0" r="3" fill="#3fb950"/><circle cx="533.7" cy="198.0" r="3" fill="#3fb950"/><circle cx="537.6" cy="198.0" r="3" fill="#3fb950"/><circle cx="541.6" cy="198.0" r="3" fill="#3fb950"/><circle cx="545.5" cy="198.0" r="3" fill="#3fb950"/><circle cx="549.5" cy="198.0" r="3" fill="#3fb950"/><circle cx="553.4" cy="198.0" r="3" fill="#3fb950"/><circle cx="557.4" cy="198.0" r="3" fill="#3fb950"/><circle cx="561.3" cy="198.0" r="3" fill="#3fb950"/><circle cx="565.3" cy="198.0" r="3" fill="#3fb950"/><circle cx="569.2" cy="198.0" r="3" fill="#3fb950"/><circle cx="573.2" cy="198.0" r="3" fill="#3fb950"/><circle cx="577.1" cy="198.0" r="3" fill="#3fb950"/><circle cx="581.1" cy="198.0" r="3" fill="#3fb950"/><circle cx="585.0" cy="198.0" r="3" fill="#3fb950"/><circle cx="589.0" cy="198.0" r="3" fill="#3fb950"/><circle cx="592.9" cy="198.0" r="3" fill="#3fb950"/><circle cx="596.9" cy="198.0" r="3" fill="#3fb950"/><circle cx="600.8" cy="198.0" r="3" fill="#3fb950"/><circle cx="604.8" cy="198.0" r="3" fill="#3fb950"/><circle cx="608.7" cy="198.0" r="3" fill="#3fb950"/><circle cx="612.7" cy="198.0" r="3" fill="#3fb950"/><circle cx="616.6" cy="198.0" r="3" fill="#3fb950"/><circle cx="620.6" cy="198.0" r="3" fill="#3fb950"/><circle cx="624.5" cy="198.0" r="3" fill="#3fb950"/><circle cx="628.5" cy="198.0" r="3" fill="#3fb950"/><circle cx="632.4" cy="198.0" r="3" fill="#3fb950"/><circle cx="636.4" cy="198.0" r="3" fill="#3fb950"/><circle cx="640.3" cy="198.0" r="3" fill="#3fb950"/><circle cx="644.3" cy="198.0" r="3" fill="#3fb950"/><circle cx="648.2" cy="198.0" r="3" fill="#3fb950"/><circle cx="652.2" cy="198.0" r="3" fill="#3fb950"/><circle cx="656.1" cy="198.0" r="3" fill="#3fb950"/><circle cx="660.1" cy="198.0" r="3" fill="#3fb950"/><circle cx="664.0" cy="198.0" r="3" fill="#3fb950"/>
<polyline fill="none" stroke="#4aa3ff" stroke-width="2.5" stroke-linejoin="round" points="36.0,144.3 39.9,144.3 43.9,144.3 47.8,144.3 51.8,144.3 55.7,144.3 59.7,144.3 63.6,144.3 67.6,144.3 71.5,144.3 75.5,144.3 79.4,144.3 83.4,144.3 87.3,144.3 91.3,144.3 95.2,136.2 99.2,132.4 103.1,129.6 107.1,129.6 111.0,121.0 115.0,121.0 118.9,121.0 122.9,114.4 126.8,114.4 130.8,114.4 134.7,111.3 138.7,110.9 142.6,110.9 146.6,110.5 150.5,110.5 154.5,109.9 158.4,108.7 162.4,107.3 166.3,106.9 170.3,106.9 174.2,106.9 178.2,106.9 182.1,106.9 186.1,106.9 190.0,106.9 194.0,106.9 197.9,106.9 201.9,106.9 205.8,113.2 209.8,113.2 213.7,113.2 217.7,113.2 221.6,113.2 225.6,110.7 229.5,105.3 233.5,83.4 237.4,83.4 241.4,85.6 245.3,85.6 249.3,85.6 253.2,85.6 257.2,85.6 261.1,85.8 265.1,85.8 269.0,85.8 273.0,86.0 276.9,86.0 280.9,86.0 284.8,86.0 288.8,86.0 292.7,86.0 296.7,86.0 300.6,86.0 304.6,86.0 308.5,86.0 312.5,86.0 316.4,86.0 320.4,86.0 324.3,86.0 328.3,86.0 332.2,86.0 336.2,86.0 340.1,86.0 344.1,86.0 348.0,86.0 352.0,86.0 355.9,87.0 359.9,87.0 363.8,87.0 367.8,73.7 371.7,73.7 375.7,71.0 379.6,71.0 383.6,70.8 387.5,70.6 391.5,70.6 395.4,70.4 399.4,68.6 403.3,60.5 407.3,59.3 411.2,52.0 415.2,47.3 419.1,40.1 423.1,36.0 427.0,36.0 431.0,36.0 434.9,36.0 438.9,36.0 442.8,36.0 446.8,36.0 450.7,36.0 454.7,36.0 458.6,36.0 462.6,36.0 466.5,36.0 470.5,36.0 474.4,36.0 478.4,36.0 482.3,36.0 486.3,36.0 490.2,36.0 494.2,36.0 498.1,36.0 502.1,36.0 506.0,36.0 510.0,36.0 513.9,36.0 517.9,36.0 521.8,36.0 525.8,36.0 529.7,36.0 533.7,36.0 537.6,36.0 541.6,36.0 545.5,36.0 549.5,36.0 553.4,36.0 557.4,36.0 561.3,36.0 565.3,36.0 569.2,36.0 573.2,36.0 577.1,36.0 581.1,36.0 585.0,36.0 589.0,36.0 592.9,36.0 596.9,36.0 600.8,36.0 604.8,36.0 608.7,36.0 612.7,36.0 616.6,36.0 620.6,36.0 624.5,36.0 628.5,36.0 632.4,36.0 636.4,36.0 640.3,36.0 644.3,36.0 648.2,36.0 652.2,36.0 656.1,36.0 660.1,36.0 664.0,36.0"/><circle cx="36.0" cy="144.3" r="3" fill="#4aa3ff"/><circle cx="39.9" cy="144.3" r="3" fill="#4aa3ff"/><circle cx="43.9" cy="144.3" r="3" fill="#4aa3ff"/><circle cx="47.8" cy="144.3" r="3" fill="#4aa3ff"/><circle cx="51.8" cy="144.3" r="3" fill="#4aa3ff"/><circle cx="55.7" cy="144.3" r="3" fill="#4aa3ff"/><circle cx="59.7" cy="144.3" r="3" fill="#4aa3ff"/><circle cx="63.6" cy="144.3" r="3" fill="#4aa3ff"/><circle cx="67.6" cy="144.3" r="3" fill="#4aa3ff"/><circle cx="71.5" cy="144.3" r="3" fill="#4aa3ff"/><circle cx="75.5" cy="144.3" r="3" fill="#4aa3ff"/><circle cx="79.4" cy="144.3" r="3" fill="#4aa3ff"/><circle cx="83.4" cy="144.3" r="3" fill="#4aa3ff"/><circle cx="87.3" cy="144.3" r="3" fill="#4aa3ff"/><circle cx="91.3" cy="144.3" r="3" fill="#4aa3ff"/><circle cx="95.2" cy="136.2" r="3" fill="#4aa3ff"/><circle cx="99.2" cy="132.4" r="3" fill="#4aa3ff"/><circle cx="103.1" cy="129.6" r="3" fill="#4aa3ff"/><circle cx="107.1" cy="129.6" r="3" fill="#4aa3ff"/><circle cx="111.0" cy="121.0" r="3" fill="#4aa3ff"/><circle cx="115.0" cy="121.0" r="3" fill="#4aa3ff"/><circle cx="118.9" cy="121.0" r="3" fill="#4aa3ff"/><circle cx="122.9" cy="114.4" r="3" fill="#4aa3ff"/><circle cx="126.8" cy="114.4" r="3" fill="#4aa3ff"/><circle cx="130.8" cy="114.4" r="3" fill="#4aa3ff"/><circle cx="134.7" cy="111.3" r="3" fill="#4aa3ff"/><circle cx="138.7" cy="110.9" r="3" fill="#4aa3ff"/><circle cx="142.6" cy="110.9" r="3" fill="#4aa3ff"/><circle cx="146.6" cy="110.5" r="3" fill="#4aa3ff"/><circle cx="150.5" cy="110.5" r="3" fill="#4aa3ff"/><circle cx="154.5" cy="109.9" r="3" fill="#4aa3ff"/><circle cx="158.4" cy="108.7" r="3" fill="#4aa3ff"/><circle cx="162.4" cy="107.3" r="3" fill="#4aa3ff"/><circle cx="166.3" cy="106.9" r="3" fill="#4aa3ff"/><circle cx="170.3" cy="106.9" r="3" fill="#4aa3ff"/><circle cx="174.2" cy="106.9" r="3" fill="#4aa3ff"/><circle cx="178.2" cy="106.9" r="3" fill="#4aa3ff"/><circle cx="182.1" cy="106.9" r="3" fill="#4aa3ff"/><circle cx="186.1" cy="106.9" r="3" fill="#4aa3ff"/><circle cx="190.0" cy="106.9" r="3" fill="#4aa3ff"/><circle cx="194.0" cy="106.9" r="3" fill="#4aa3ff"/><circle cx="197.9" cy="106.9" r="3" fill="#4aa3ff"/><circle cx="201.9" cy="106.9" r="3" fill="#4aa3ff"/><circle cx="205.8" cy="113.2" r="3" fill="#4aa3ff"/><circle cx="209.8" cy="113.2" r="3" fill="#4aa3ff"/><circle cx="213.7" cy="113.2" r="3" fill="#4aa3ff"/><circle cx="217.7" cy="113.2" r="3" fill="#4aa3ff"/><circle cx="221.6" cy="113.2" r="3" fill="#4aa3ff"/><circle cx="225.6" cy="110.7" r="3" fill="#4aa3ff"/><circle cx="229.5" cy="105.3" r="3" fill="#4aa3ff"/><circle cx="233.5" cy="83.4" r="3" fill="#4aa3ff"/><circle cx="237.4" cy="83.4" r="3" fill="#4aa3ff"/><circle cx="241.4" cy="85.6" r="3" fill="#4aa3ff"/><circle cx="245.3" cy="85.6" r="3" fill="#4aa3ff"/><circle cx="249.3" cy="85.6" r="3" fill="#4aa3ff"/><circle cx="253.2" cy="85.6" r="3" fill="#4aa3ff"/><circle cx="257.2" cy="85.6" r="3" fill="#4aa3ff"/><circle cx="261.1" cy="85.8" r="3" fill="#4aa3ff"/><circle cx="265.1" cy="85.8" r="3" fill="#4aa3ff"/><circle cx="269.0" cy="85.8" r="3" fill="#4aa3ff"/><circle cx="273.0" cy="86.0" r="3" fill="#4aa3ff"/><circle cx="276.9" cy="86.0" r="3" fill="#4aa3ff"/><circle cx="280.9" cy="86.0" r="3" fill="#4aa3ff"/><circle cx="284.8" cy="86.0" r="3" fill="#4aa3ff"/><circle cx="288.8" cy="86.0" r="3" fill="#4aa3ff"/><circle cx="292.7" cy="86.0" r="3" fill="#4aa3ff"/><circle cx="296.7" cy="86.0" r="3" fill="#4aa3ff"/><circle cx="300.6" cy="86.0" r="3" fill="#4aa3ff"/><circle cx="304.6" cy="86.0" r="3" fill="#4aa3ff"/><circle cx="308.5" cy="86.0" r="3" fill="#4aa3ff"/><circle cx="312.5" cy="86.0" r="3" fill="#4aa3ff"/><circle cx="316.4" cy="86.0" r="3" fill="#4aa3ff"/><circle cx="320.4" cy="86.0" r="3" fill="#4aa3ff"/><circle cx="324.3" cy="86.0" r="3" fill="#4aa3ff"/><circle cx="328.3" cy="86.0" r="3" fill="#4aa3ff"/><circle cx="332.2" cy="86.0" r="3" fill="#4aa3ff"/><circle cx="336.2" cy="86.0" r="3" fill="#4aa3ff"/><circle cx="340.1" cy="86.0" r="3" fill="#4aa3ff"/><circle cx="344.1" cy="86.0" r="3" fill="#4aa3ff"/><circle cx="348.0" cy="86.0" r="3" fill="#4aa3ff"/><circle cx="352.0" cy="86.0" r="3" fill="#4aa3ff"/><circle cx="355.9" cy="87.0" r="3" fill="#4aa3ff"/><circle cx="359.9" cy="87.0" r="3" fill="#4aa3ff"/><circle cx="363.8" cy="87.0" r="3" fill="#4aa3ff"/><circle cx="367.8" cy="73.7" r="3" fill="#4aa3ff"/><circle cx="371.7" cy="73.7" r="3" fill="#4aa3ff"/><circle cx="375.7" cy="71.0" r="3" fill="#4aa3ff"/><circle cx="379.6" cy="71.0" r="3" fill="#4aa3ff"/><circle cx="383.6" cy="70.8" r="3" fill="#4aa3ff"/><circle cx="387.5" cy="70.6" r="3" fill="#4aa3ff"/><circle cx="391.5" cy="70.6" r="3" fill="#4aa3ff"/><circle cx="395.4" cy="70.4" r="3" fill="#4aa3ff"/><circle cx="399.4" cy="68.6" r="3" fill="#4aa3ff"/><circle cx="403.3" cy="60.5" r="3" fill="#4aa3ff"/><circle cx="407.3" cy="59.3" r="3" fill="#4aa3ff"/><circle cx="411.2" cy="52.0" r="3" fill="#4aa3ff"/><circle cx="415.2" cy="47.3" r="3" fill="#4aa3ff"/><circle cx="419.1" cy="40.1" r="3" fill="#4aa3ff"/><circle cx="423.1" cy="36.0" r="3" fill="#4aa3ff"/><circle cx="427.0" cy="36.0" r="3" fill="#4aa3ff"/><circle cx="431.0" cy="36.0" r="3" fill="#4aa3ff"/><circle cx="434.9" cy="36.0" r="3" fill="#4aa3ff"/><circle cx="438.9" cy="36.0" r="3" fill="#4aa3ff"/><circle cx="442.8" cy="36.0" r="3" fill="#4aa3ff"/><circle cx="446.8" cy="36.0" r="3" fill="#4aa3ff"/><circle cx="450.7" cy="36.0" r="3" fill="#4aa3ff"/><circle cx="454.7" cy="36.0" r="3" fill="#4aa3ff"/><circle cx="458.6" cy="36.0" r="3" fill="#4aa3ff"/><circle cx="462.6" cy="36.0" r="3" fill="#4aa3ff"/><circle cx="466.5" cy="36.0" r="3" fill="#4aa3ff"/><circle cx="470.5" cy="36.0" r="3" fill="#4aa3ff"/><circle cx="474.4" cy="36.0" r="3" fill="#4aa3ff"/><circle cx="478.4" cy="36.0" r="3" fill="#4aa3ff"/><circle cx="482.3" cy="36.0" r="3" fill="#4aa3ff"/><circle cx="486.3" cy="36.0" r="3" fill="#4aa3ff"/><circle cx="490.2" cy="36.0" r="3" fill="#4aa3ff"/><circle cx="494.2" cy="36.0" r="3" fill="#4aa3ff"/><circle cx="498.1" cy="36.0" r="3" fill="#4aa3ff"/><circle cx="502.1" cy="36.0" r="3" fill="#4aa3ff"/><circle cx="506.0" cy="36.0" r="3" fill="#4aa3ff"/><circle cx="510.0" cy="36.0" r="3" fill="#4aa3ff"/><circle cx="513.9" cy="36.0" r="3" fill="#4aa3ff"/><circle cx="517.9" cy="36.0" r="3" fill="#4aa3ff"/><circle cx="521.8" cy="36.0" r="3" fill="#4aa3ff"/><circle cx="525.8" cy="36.0" r="3" fill="#4aa3ff"/><circle cx="529.7" cy="36.0" r="3" fill="#4aa3ff"/><circle cx="533.7" cy="36.0" r="3" fill="#4aa3ff"/><circle cx="537.6" cy="36.0" r="3" fill="#4aa3ff"/><circle cx="541.6" cy="36.0" r="3" fill="#4aa3ff"/><circle cx="545.5" cy="36.0" r="3" fill="#4aa3ff"/><circle cx="549.5" cy="36.0" r="3" fill="#4aa3ff"/><circle cx="553.4" cy="36.0" r="3" fill="#4aa3ff"/><circle cx="557.4" cy="36.0" r="3" fill="#4aa3ff"/><circle cx="561.3" cy="36.0" r="3" fill="#4aa3ff"/><circle cx="565.3" cy="36.0" r="3" fill="#4aa3ff"/><circle cx="569.2" cy="36.0" r="3" fill="#4aa3ff"/><circle cx="573.2" cy="36.0" r="3" fill="#4aa3ff"/><circle cx="577.1" cy="36.0" r="3" fill="#4aa3ff"/><circle cx="581.1" cy="36.0" r="3" fill="#4aa3ff"/><circle cx="585.0" cy="36.0" r="3" fill="#4aa3ff"/><circle cx="589.0" cy="36.0" r="3" fill="#4aa3ff"/><circle cx="592.9" cy="36.0" r="3" fill="#4aa3ff"/><circle cx="596.9" cy="36.0" r="3" fill="#4aa3ff"/><circle cx="600.8" cy="36.0" r="3" fill="#4aa3ff"/><circle cx="604.8" cy="36.0" r="3" fill="#4aa3ff"/><circle cx="608.7" cy="36.0" r="3" fill="#4aa3ff"/><circle cx="612.7" cy="36.0" r="3" fill="#4aa3ff"/><circle cx="616.6" cy="36.0" r="3" fill="#4aa3ff"/><circle cx="620.6" cy="36.0" r="3" fill="#4aa3ff"/><circle cx="624.5" cy="36.0" r="3" fill="#4aa3ff"/><circle cx="628.5" cy="36.0" r="3" fill="#4aa3ff"/><circle cx="632.4" cy="36.0" r="3" fill="#4aa3ff"/><circle cx="636.4" cy="36.0" r="3" fill="#4aa3ff"/><circle cx="640.3" cy="36.0" r="3" fill="#4aa3ff"/><circle cx="644.3" cy="36.0" r="3" fill="#4aa3ff"/><circle cx="648.2" cy="36.0" r="3" fill="#4aa3ff"/><circle cx="652.2" cy="36.0" r="3" fill="#4aa3ff"/><circle cx="656.1" cy="36.0" r="3" fill="#4aa3ff"/><circle cx="660.1" cy="36.0" r="3" fill="#4aa3ff"/><circle cx="664.0" cy="36.0" r="3" fill="#4aa3ff"/>
<text x="36" y="225" fill="#6b7280" font-size="11">2026-06-26</text>
<text x="664" y="225" fill="#6b7280" font-size="11" text-anchor="end">2026-07-13</text>
<text x="36" y="212" font-family="system-ui,sans-serif" font-size="11">
<tspan fill="#4aa3ff">&#9679; open FPs</tspan>  <tspan fill="#3fb950">&#9679; closed (Anthropic acting)</tspan>  <tspan fill="#8a5a5a">&#9679; harness withdrawn</tspan></text>
<text x="664" y="22" text-anchor="end" font-family="system-ui,sans-serif" font-size="12">
<tspan fill="#4aa3ff">open 800</tspan>  <tspan fill="#3fb950">closed 0</tspan>  <tspan fill="#8a5a5a">harness 0</tspan></text>
</svg>