<svg xmlns="http://www.w3.org/2000/svg" width="700" height="234" viewBox="0 0 700 234" role="img">
<rect width="700" height="234" rx="12" fill="#16181d"/>
<text x="36" y="22" fill="#e8eaed" font-family="system-ui,sans-serif" font-size="14" font-weight="700">Is Anthropic acting? cyber/aup false positives over time</text>
<line x1="36" y1="198.0" x2="664" y2="198.0" stroke="#2a2e37" stroke-width="1"/><text x="30" y="202.0" fill="#6b7280" font-size="11" text-anchor="end">0</text><line x1="36" y1="117.0" x2="664" y2="117.0" stroke="#2a2e37" stroke-width="1"/><text x="30" y="121.0" fill="#6b7280" font-size="11" text-anchor="end">314</text><line x1="36" y1="36.0" x2="664" y2="36.0" stroke="#2a2e37" stroke-width="1"/><text x="30" y="40.0" fill="#6b7280" font-size="11" text-anchor="end">629</text>

<polyline fill="none" stroke="#8a5a5a" stroke-width="2.5" stroke-linejoin="round" points="36.0,130.8 43.1,130.8 50.1,130.8 57.2,130.8 64.2,130.8 71.3,130.8 78.3,130.8 85.4,130.8 92.4,130.8 99.5,130.8 106.6,130.8 113.6,130.8 120.7,130.8 127.7,130.8 134.8,130.8 141.8,130.8 148.9,130.8 156.0,130.8 163.0,130.8 170.1,130.8 177.1,130.8 184.2,130.8 191.2,130.8 198.3,130.8 205.3,130.8 212.4,130.8 219.5,130.8 226.5,130.8 233.6,130.8 240.6,130.8 247.7,130.8 254.7,130.8 261.8,130.8 268.9,130.8 275.9,130.8 283.0,130.8 290.0,130.8 297.1,130.8 304.1,130.8 311.2,130.8 318.2,130.8 325.3,130.8 332.4,130.8 339.4,130.8 346.5,130.8 353.5,130.8 360.6,130.8 367.6,130.8 374.7,130.8 381.8,130.8 388.8,144.2 395.9,144.2 402.9,144.2 410.0,144.2 417.0,144.2 424.1,144.2 431.1,144.2 438.2,144.2 445.3,144.2 452.3,144.2 459.4,144.2 466.4,144.2 473.5,144.2 480.5,144.2 487.6,144.2 494.7,144.2 501.7,144.2 508.8,144.2 515.8,144.2 522.9,144.2 529.9,144.2 537.0,144.2 544.0,144.2 551.1,144.2 558.2,144.2 565.2,144.2 572.3,144.2 579.3,144.2 586.4,144.2 593.4,144.2 600.5,144.2 607.6,144.2 614.6,144.2 621.7,144.2 628.7,159.4 635.8,159.4 642.8,162.7 649.9,162.7 656.9,163.0 664.0,163.2"/><circle cx="36.0" cy="130.8" r="3" fill="#8a5a5a"/><circle cx="43.1" cy="130.8" r="3" fill="#8a5a5a"/><circle cx="50.1" cy="130.8" r="3" fill="#8a5a5a"/><circle cx="57.2" cy="130.8" r="3" fill="#8a5a5a"/><circle cx="64.2" cy="130.8" r="3" fill="#8a5a5a"/><circle cx="71.3" cy="130.8" r="3" fill="#8a5a5a"/><circle cx="78.3" cy="130.8" r="3" fill="#8a5a5a"/><circle cx="85.4" cy="130.8" r="3" fill="#8a5a5a"/><circle cx="92.4" cy="130.8" r="3" fill="#8a5a5a"/><circle cx="99.5" cy="130.8" r="3" fill="#8a5a5a"/><circle cx="106.6" cy="130.8" r="3" fill="#8a5a5a"/><circle cx="113.6" cy="130.8" r="3" fill="#8a5a5a"/><circle cx="120.7" cy="130.8" r="3" fill="#8a5a5a"/><circle cx="127.7" cy="130.8" r="3" fill="#8a5a5a"/><circle cx="134.8" cy="130.8" r="3" fill="#8a5a5a"/><circle cx="141.8" cy="130.8" r="3" fill="#8a5a5a"/><circle cx="148.9" cy="130.8" r="3" fill="#8a5a5a"/><circle cx="156.0" cy="130.8" r="3" fill="#8a5a5a"/><circle cx="163.0" cy="130.8" r="3" fill="#8a5a5a"/><circle cx="170.1" cy="130.8" r="3" fill="#8a5a5a"/><circle cx="177.1" cy="130.8" r="3" fill="#8a5a5a"/><circle cx="184.2" cy="130.8" r="3" fill="#8a5a5a"/><circle cx="191.2" cy="130.8" r="3" fill="#8a5a5a"/><circle cx="198.3" cy="130.8" r="3" fill="#8a5a5a"/><circle cx="205.3" cy="130.8" r="3" fill="#8a5a5a"/><circle cx="212.4" cy="130.8" r="3" fill="#8a5a5a"/><circle cx="219.5" cy="130.8" r="3" fill="#8a5a5a"/><circle cx="226.5" cy="130.8" r="3" fill="#8a5a5a"/><circle cx="233.6" cy="130.8" r="3" fill="#8a5a5a"/><circle cx="240.6" cy="130.8" r="3" fill="#8a5a5a"/><circle cx="247.7" cy="130.8" r="3" fill="#8a5a5a"/><circle cx="254.7" cy="130.8" r="3" fill="#8a5a5a"/><circle cx="261.8" cy="130.8" r="3" fill="#8a5a5a"/><circle cx="268.9" cy="130.8" r="3" fill="#8a5a5a"/><circle cx="275.9" cy="130.8" r="3" fill="#8a5a5a"/><circle cx="283.0" cy="130.8" r="3" fill="#8a5a5a"/><circle cx="290.0" cy="130.8" r="3" fill="#8a5a5a"/><circle cx="297.1" cy="130.8" r="3" fill="#8a5a5a"/><circle cx="304.1" cy="130.8" r="3" fill="#8a5a5a"/><circle cx="311.2" cy="130.8" r="3" fill="#8a5a5a"/><circle cx="318.2" cy="130.8" r="3" fill="#8a5a5a"/><circle cx="325.3" cy="130.8" r="3" fill="#8a5a5a"/><circle cx="332.4" cy="130.8" r="3" fill="#8a5a5a"/><circle cx="339.4" cy="130.8" r="3" fill="#8a5a5a"/><circle cx="346.5" cy="130.8" r="3" fill="#8a5a5a"/><circle cx="353.5" cy="130.8" r="3" fill="#8a5a5a"/><circle cx="360.6" cy="130.8" r="3" fill="#8a5a5a"/><circle cx="367.6" cy="130.8" r="3" fill="#8a5a5a"/><circle cx="374.7" cy="130.8" r="3" fill="#8a5a5a"/><circle cx="381.8" cy="130.8" r="3" fill="#8a5a5a"/><circle cx="388.8" cy="144.2" r="3" fill="#8a5a5a"/><circle cx="395.9" cy="144.2" r="3" fill="#8a5a5a"/><circle cx="402.9" cy="144.2" r="3" fill="#8a5a5a"/><circle cx="410.0" cy="144.2" r="3" fill="#8a5a5a"/><circle cx="417.0" cy="144.2" r="3" fill="#8a5a5a"/><circle cx="424.1" cy="144.2" r="3" fill="#8a5a5a"/><circle cx="431.1" cy="144.2" r="3" fill="#8a5a5a"/><circle cx="438.2" cy="144.2" r="3" fill="#8a5a5a"/><circle cx="445.3" cy="144.2" r="3" fill="#8a5a5a"/><circle cx="452.3" cy="144.2" r="3" fill="#8a5a5a"/><circle cx="459.4" cy="144.2" r="3" fill="#8a5a5a"/><circle cx="466.4" cy="144.2" r="3" fill="#8a5a5a"/><circle cx="473.5" cy="144.2" r="3" fill="#8a5a5a"/><circle cx="480.5" cy="144.2" r="3" fill="#8a5a5a"/><circle cx="487.6" cy="144.2" r="3" fill="#8a5a5a"/><circle cx="494.7" cy="144.2" r="3" fill="#8a5a5a"/><circle cx="501.7" cy="144.2" r="3" fill="#8a5a5a"/><circle cx="508.8" cy="144.2" r="3" fill="#8a5a5a"/><circle cx="515.8" cy="144.2" r="3" fill="#8a5a5a"/><circle cx="522.9" cy="144.2" r="3" fill="#8a5a5a"/><circle cx="529.9" cy="144.2" r="3" fill="#8a5a5a"/><circle cx="537.0" cy="144.2" r="3" fill="#8a5a5a"/><circle cx="544.0" cy="144.2" r="3" fill="#8a5a5a"/><circle cx="551.1" cy="144.2" r="3" fill="#8a5a5a"/><circle cx="558.2" cy="144.2" r="3" fill="#8a5a5a"/><circle cx="565.2" cy="144.2" r="3" fill="#8a5a5a"/><circle cx="572.3" cy="144.2" r="3" fill="#8a5a5a"/><circle cx="579.3" cy="144.2" r="3" fill="#8a5a5a"/><circle cx="586.4" cy="144.2" r="3" fill="#8a5a5a"/><circle cx="593.4" cy="144.2" r="3" fill="#8a5a5a"/><circle cx="600.5" cy="144.2" r="3" fill="#8a5a5a"/><circle cx="607.6" cy="144.2" r="3" fill="#8a5a5a"/><circle cx="614.6" cy="144.2" r="3" fill="#8a5a5a"/><circle cx="621.7" cy="144.2" r="3" fill="#8a5a5a"/><circle cx="628.7" cy="159.4" r="3" fill="#8a5a5a"/><circle cx="635.8" cy="159.4" r="3" fill="#8a5a5a"/><circle cx="642.8" cy="162.7" r="3" fill="#8a5a5a"/><circle cx="649.9" cy="162.7" r="3" fill="#8a5a5a"/><circle cx="656.9" cy="163.0" r="3" fill="#8a5a5a"/><circle cx="664.0" cy="163.2" r="3" fill="#8a5a5a"/>
<polyline fill="none" stroke="#3fb950" stroke-width="2.5" stroke-linejoin="round" points="36.0,198.0 43.1,198.0 50.1,198.0 57.2,198.0 64.2,198.0 71.3,198.0 78.3,198.0 85.4,198.0 92.4,198.0 99.5,198.0 106.6,198.0 113.6,198.0 120.7,198.0 127.7,198.0 134.8,198.0 141.8,198.0 148.9,198.0 156.0,198.0 163.0,198.0 170.1,198.0 177.1,198.0 184.2,198.0 191.2,198.0 198.3,198.0 205.3,198.0 212.4,198.0 219.5,198.0 226.5,198.0 233.6,198.0 240.6,198.0 247.7,198.0 254.7,198.0 261.8,198.0 268.9,198.0 275.9,198.0 283.0,198.0 290.0,198.0 297.1,198.0 304.1,198.0 311.2,198.0 318.2,198.0 325.3,198.0 332.4,198.0 339.4,190.0 346.5,190.0 353.5,190.0 360.6,190.0 367.6,190.0 374.7,190.0 381.8,190.0 388.8,191.6 395.9,191.6 402.9,188.7 410.0,188.7 417.0,188.7 424.1,188.7 431.1,188.7 438.2,188.5 445.3,188.5 452.3,188.5 459.4,188.2 466.4,188.2 473.5,188.2 480.5,188.2 487.6,188.2 494.7,188.2 501.7,188.2 508.8,188.2 515.8,188.2 522.9,188.2 529.9,188.2 537.0,188.2 544.0,188.2 551.1,188.2 558.2,188.2 565.2,188.2 572.3,188.2 579.3,188.2 586.4,188.2 593.4,188.2 600.5,188.2 607.6,186.9 614.6,186.9 621.7,186.9 628.7,188.7 635.8,188.7 642.8,188.7 649.9,188.7 656.9,188.7 664.0,188.7"/><circle cx="36.0" cy="198.0" r="3" fill="#3fb950"/><circle cx="43.1" cy="198.0" r="3" fill="#3fb950"/><circle cx="50.1" cy="198.0" r="3" fill="#3fb950"/><circle cx="57.2" cy="198.0" r="3" fill="#3fb950"/><circle cx="64.2" cy="198.0" r="3" fill="#3fb950"/><circle cx="71.3" cy="198.0" r="3" fill="#3fb950"/><circle cx="78.3" cy="198.0" r="3" fill="#3fb950"/><circle cx="85.4" cy="198.0" r="3" fill="#3fb950"/><circle cx="92.4" cy="198.0" r="3" fill="#3fb950"/><circle cx="99.5" cy="198.0" r="3" fill="#3fb950"/><circle cx="106.6" cy="198.0" r="3" fill="#3fb950"/><circle cx="113.6" cy="198.0" r="3" fill="#3fb950"/><circle cx="120.7" cy="198.0" r="3" fill="#3fb950"/><circle cx="127.7" cy="198.0" r="3" fill="#3fb950"/><circle cx="134.8" cy="198.0" r="3" fill="#3fb950"/><circle cx="141.8" cy="198.0" r="3" fill="#3fb950"/><circle cx="148.9" cy="198.0" r="3" fill="#3fb950"/><circle cx="156.0" cy="198.0" r="3" fill="#3fb950"/><circle cx="163.0" cy="198.0" r="3" fill="#3fb950"/><circle cx="170.1" cy="198.0" r="3" fill="#3fb950"/><circle cx="177.1" cy="198.0" r="3" fill="#3fb950"/><circle cx="184.2" cy="198.0" r="3" fill="#3fb950"/><circle cx="191.2" cy="198.0" r="3" fill="#3fb950"/><circle cx="198.3" cy="198.0" r="3" fill="#3fb950"/><circle cx="205.3" cy="198.0" r="3" fill="#3fb950"/><circle cx="212.4" cy="198.0" r="3" fill="#3fb950"/><circle cx="219.5" cy="198.0" r="3" fill="#3fb950"/><circle cx="226.5" cy="198.0" r="3" fill="#3fb950"/><circle cx="233.6" cy="198.0" r="3" fill="#3fb950"/><circle cx="240.6" cy="198.0" r="3" fill="#3fb950"/><circle cx="247.7" cy="198.0" r="3" fill="#3fb950"/><circle cx="254.7" cy="198.0" r="3" fill="#3fb950"/><circle cx="261.8" cy="198.0" r="3" fill="#3fb950"/><circle cx="268.9" cy="198.0" r="3" fill="#3fb950"/><circle cx="275.9" cy="198.0" r="3" fill="#3fb950"/><circle cx="283.0" cy="198.0" r="3" fill="#3fb950"/><circle cx="290.0" cy="198.0" r="3" fill="#3fb950"/><circle cx="297.1" cy="198.0" r="3" fill="#3fb950"/><circle cx="304.1" cy="198.0" r="3" fill="#3fb950"/><circle cx="311.2" cy="198.0" r="3" fill="#3fb950"/><circle cx="318.2" cy="198.0" r="3" fill="#3fb950"/><circle cx="325.3" cy="198.0" r="3" fill="#3fb950"/><circle cx="332.4" cy="198.0" r="3" fill="#3fb950"/><circle cx="339.4" cy="190.0" r="3" fill="#3fb950"/><circle cx="346.5" cy="190.0" r="3" fill="#3fb950"/><circle cx="353.5" cy="190.0" r="3" fill="#3fb950"/><circle cx="360.6" cy="190.0" r="3" fill="#3fb950"/><circle cx="367.6" cy="190.0" r="3" fill="#3fb950"/><circle cx="374.7" cy="190.0" r="3" fill="#3fb950"/><circle cx="381.8" cy="190.0" r="3" fill="#3fb950"/><circle cx="388.8" cy="191.6" r="3" fill="#3fb950"/><circle cx="395.9" cy="191.6" r="3" fill="#3fb950"/><circle cx="402.9" cy="188.7" r="3" fill="#3fb950"/><circle cx="410.0" cy="188.7" r="3" fill="#3fb950"/><circle cx="417.0" cy="188.7" r="3" fill="#3fb950"/><circle cx="424.1" cy="188.7" r="3" fill="#3fb950"/><circle cx="431.1" cy="188.7" r="3" fill="#3fb950"/><circle cx="438.2" cy="188.5" r="3" fill="#3fb950"/><circle cx="445.3" cy="188.5" r="3" fill="#3fb950"/><circle cx="452.3" cy="188.5" r="3" fill="#3fb950"/><circle cx="459.4" cy="188.2" r="3" fill="#3fb950"/><circle cx="466.4" cy="188.2" r="3" fill="#3fb950"/><circle cx="473.5" cy="188.2" r="3" fill="#3fb950"/><circle cx="480.5" cy="188.2" r="3" fill="#3fb950"/><circle cx="487.6" cy="188.2" r="3" fill="#3fb950"/><circle cx="494.7" cy="188.2" r="3" fill="#3fb950"/><circle cx="501.7" cy="188.2" r="3" fill="#3fb950"/><circle cx="508.8" cy="188.2" r="3" fill="#3fb950"/><circle cx="515.8" cy="188.2" r="3" fill="#3fb950"/><circle cx="522.9" cy="188.2" r="3" fill="#3fb950"/><circle cx="529.9" cy="188.2" r="3" fill="#3fb950"/><circle cx="537.0" cy="188.2" r="3" fill="#3fb950"/><circle cx="544.0" cy="188.2" r="3" fill="#3fb950"/><circle cx="551.1" cy="188.2" r="3" fill="#3fb950"/><circle cx="558.2" cy="188.2" r="3" fill="#3fb950"/><circle cx="565.2" cy="188.2" r="3" fill="#3fb950"/><circle cx="572.3" cy="188.2" r="3" fill="#3fb950"/><circle cx="579.3" cy="188.2" r="3" fill="#3fb950"/><circle cx="586.4" cy="188.2" r="3" fill="#3fb950"/><circle cx="593.4" cy="188.2" r="3" fill="#3fb950"/><circle cx="600.5" cy="188.2" r="3" fill="#3fb950"/><circle cx="607.6" cy="186.9" r="3" fill="#3fb950"/><circle cx="614.6" cy="186.9" r="3" fill="#3fb950"/><circle cx="621.7" cy="186.9" r="3" fill="#3fb950"/><circle cx="628.7" cy="188.7" r="3" fill="#3fb950"/><circle cx="635.8" cy="188.7" r="3" fill="#3fb950"/><circle cx="642.8" cy="188.7" r="3" fill="#3fb950"/><circle cx="649.9" cy="188.7" r="3" fill="#3fb950"/><circle cx="656.9" cy="188.7" r="3" fill="#3fb950"/><circle cx="664.0" cy="188.7" r="3" fill="#3fb950"/>
<polyline fill="none" stroke="#4aa3ff" stroke-width="2.5" stroke-linejoin="round" points="36.0,129.7 43.1,129.7 50.1,129.7 57.2,129.7 64.2,129.7 71.3,129.7 78.3,129.7 85.4,129.7 92.4,129.7 99.5,129.7 106.6,129.7 113.6,129.7 120.7,129.7 127.7,129.7 134.8,129.7 141.8,119.4 148.9,114.6 156.0,110.9 163.0,110.9 170.1,100.1 177.1,100.1 184.2,100.1 191.2,91.6 198.3,91.6 205.3,91.6 212.4,87.8 219.5,87.3 226.5,87.3 233.6,86.7 240.6,86.7 247.7,86.0 254.7,84.4 261.8,82.6 268.9,82.1 275.9,82.1 283.0,82.1 290.0,82.1 297.1,82.1 304.1,82.1 311.2,82.1 318.2,82.1 325.3,82.1 332.4,82.1 339.4,90.1 346.5,90.1 353.5,90.1 360.6,90.1 367.6,90.1 374.7,87.0 381.8,80.0 388.8,52.2 395.9,52.2 402.9,55.1 410.0,55.1 417.0,55.1 424.1,55.1 431.1,55.1 438.2,55.3 445.3,55.3 452.3,55.3 459.4,55.6 466.4,55.6 473.5,55.6 480.5,55.6 487.6,55.6 494.7,55.6 501.7,55.6 508.8,55.6 515.8,55.6 522.9,55.6 529.9,55.6 537.0,55.6 544.0,55.6 551.1,55.6 558.2,55.6 565.2,55.6 572.3,55.6 579.3,55.6 586.4,55.6 593.4,55.6 600.5,55.6 607.6,56.9 614.6,56.9 621.7,56.9 628.7,39.9 635.8,39.9 642.8,36.5 649.9,36.5 656.9,36.3 664.0,36.0"/><circle cx="36.0" cy="129.7" r="3" fill="#4aa3ff"/><circle cx="43.1" cy="129.7" r="3" fill="#4aa3ff"/><circle cx="50.1" cy="129.7" r="3" fill="#4aa3ff"/><circle cx="57.2" cy="129.7" r="3" fill="#4aa3ff"/><circle cx="64.2" cy="129.7" r="3" fill="#4aa3ff"/><circle cx="71.3" cy="129.7" r="3" fill="#4aa3ff"/><circle cx="78.3" cy="129.7" r="3" fill="#4aa3ff"/><circle cx="85.4" cy="129.7" r="3" fill="#4aa3ff"/><circle cx="92.4" cy="129.7" r="3" fill="#4aa3ff"/><circle cx="99.5" cy="129.7" r="3" fill="#4aa3ff"/><circle cx="106.6" cy="129.7" r="3" fill="#4aa3ff"/><circle cx="113.6" cy="129.7" r="3" fill="#4aa3ff"/><circle cx="120.7" cy="129.7" r="3" fill="#4aa3ff"/><circle cx="127.7" cy="129.7" r="3" fill="#4aa3ff"/><circle cx="134.8" cy="129.7" r="3" fill="#4aa3ff"/><circle cx="141.8" cy="119.4" r="3" fill="#4aa3ff"/><circle cx="148.9" cy="114.6" r="3" fill="#4aa3ff"/><circle cx="156.0" cy="110.9" r="3" fill="#4aa3ff"/><circle cx="163.0" cy="110.9" r="3" fill="#4aa3ff"/><circle cx="170.1" cy="100.1" r="3" fill="#4aa3ff"/><circle cx="177.1" cy="100.1" r="3" fill="#4aa3ff"/><circle cx="184.2" cy="100.1" r="3" fill="#4aa3ff"/><circle cx="191.2" cy="91.6" r="3" fill="#4aa3ff"/><circle cx="198.3" cy="91.6" r="3" fill="#4aa3ff"/><circle cx="205.3" cy="91.6" r="3" fill="#4aa3ff"/><circle cx="212.4" cy="87.8" r="3" fill="#4aa3ff"/><circle cx="219.5" cy="87.3" r="3" fill="#4aa3ff"/><circle cx="226.5" cy="87.3" r="3" fill="#4aa3ff"/><circle cx="233.6" cy="86.7" r="3" fill="#4aa3ff"/><circle cx="240.6" cy="86.7" r="3" fill="#4aa3ff"/><circle cx="247.7" cy="86.0" r="3" fill="#4aa3ff"/><circle cx="254.7" cy="84.4" r="3" fill="#4aa3ff"/><circle cx="261.8" cy="82.6" r="3" fill="#4aa3ff"/><circle cx="268.9" cy="82.1" r="3" fill="#4aa3ff"/><circle cx="275.9" cy="82.1" r="3" fill="#4aa3ff"/><circle cx="283.0" cy="82.1" r="3" fill="#4aa3ff"/><circle cx="290.0" cy="82.1" r="3" fill="#4aa3ff"/><circle cx="297.1" cy="82.1" r="3" fill="#4aa3ff"/><circle cx="304.1" cy="82.1" r="3" fill="#4aa3ff"/><circle cx="311.2" cy="82.1" r="3" fill="#4aa3ff"/><circle cx="318.2" cy="82.1" r="3" fill="#4aa3ff"/><circle cx="325.3" cy="82.1" r="3" fill="#4aa3ff"/><circle cx="332.4" cy="82.1" r="3" fill="#4aa3ff"/><circle cx="339.4" cy="90.1" r="3" fill="#4aa3ff"/><circle cx="346.5" cy="90.1" r="3" fill="#4aa3ff"/><circle cx="353.5" cy="90.1" r="3" fill="#4aa3ff"/><circle cx="360.6" cy="90.1" r="3" fill="#4aa3ff"/><circle cx="367.6" cy="90.1" r="3" fill="#4aa3ff"/><circle cx="374.7" cy="87.0" r="3" fill="#4aa3ff"/><circle cx="381.8" cy="80.0" r="3" fill="#4aa3ff"/><circle cx="388.8" cy="52.2" r="3" fill="#4aa3ff"/><circle cx="395.9" cy="52.2" r="3" fill="#4aa3ff"/><circle cx="402.9" cy="55.1" r="3" fill="#4aa3ff"/><circle cx="410.0" cy="55.1" r="3" fill="#4aa3ff"/><circle cx="417.0" cy="55.1" r="3" fill="#4aa3ff"/><circle cx="424.1" cy="55.1" r="3" fill="#4aa3ff"/><circle cx="431.1" cy="55.1" r="3" fill="#4aa3ff"/><circle cx="438.2" cy="55.3" r="3" fill="#4aa3ff"/><circle cx="445.3" cy="55.3" r="3" fill="#4aa3ff"/><circle cx="452.3" cy="55.3" r="3" fill="#4aa3ff"/><circle cx="459.4" cy="55.6" r="3" fill="#4aa3ff"/><circle cx="466.4" cy="55.6" r="3" fill="#4aa3ff"/><circle cx="473.5" cy="55.6" r="3" fill="#4aa3ff"/><circle cx="480.5" cy="55.6" r="3" fill="#4aa3ff"/><circle cx="487.6" cy="55.6" r="3" fill="#4aa3ff"/><circle cx="494.7" cy="55.6" r="3" fill="#4aa3ff"/><circle cx="501.7" cy="55.6" r="3" fill="#4aa3ff"/><circle cx="508.8" cy="55.6" r="3" fill="#4aa3ff"/><circle cx="515.8" cy="55.6" r="3" fill="#4aa3ff"/><circle cx="522.9" cy="55.6" r="3" fill="#4aa3ff"/><circle cx="529.9" cy="55.6" r="3" fill="#4aa3ff"/><circle cx="537.0" cy="55.6" r="3" fill="#4aa3ff"/><circle cx="544.0" cy="55.6" r="3" fill="#4aa3ff"/><circle cx="551.1" cy="55.6" r="3" fill="#4aa3ff"/><circle cx="558.2" cy="55.6" r="3" fill="#4aa3ff"/><circle cx="565.2" cy="55.6" r="3" fill="#4aa3ff"/><circle cx="572.3" cy="55.6" r="3" fill="#4aa3ff"/><circle cx="579.3" cy="55.6" r="3" fill="#4aa3ff"/><circle cx="586.4" cy="55.6" r="3" fill="#4aa3ff"/><circle cx="593.4" cy="55.6" r="3" fill="#4aa3ff"/><circle cx="600.5" cy="55.6" r="3" fill="#4aa3ff"/><circle cx="607.6" cy="56.9" r="3" fill="#4aa3ff"/><circle cx="614.6" cy="56.9" r="3" fill="#4aa3ff"/><circle cx="621.7" cy="56.9" r="3" fill="#4aa3ff"/><circle cx="628.7" cy="39.9" r="3" fill="#4aa3ff"/><circle cx="635.8" cy="39.9" r="3" fill="#4aa3ff"/><circle cx="642.8" cy="36.5" r="3" fill="#4aa3ff"/><circle cx="649.9" cy="36.5" r="3" fill="#4aa3ff"/><circle cx="656.9" cy="36.3" r="3" fill="#4aa3ff"/><circle cx="664.0" cy="36.0" r="3" fill="#4aa3ff"/>
<text x="36" y="225" fill="#6b7280" font-size="11">2026-06-26</text>
<text x="664" y="225" fill="#6b7280" font-size="11" text-anchor="end">2026-07-06</text>
<text x="36" y="212" font-family="system-ui,sans-serif" font-size="11">
<tspan fill="#4aa3ff">&#9679; open FPs</tspan>  <tspan fill="#3fb950">&#9679; closed (Anthropic acting)</tspan>  <tspan fill="#8a5a5a">&#9679; harness withdrawn</tspan></text>
<text x="664" y="22" text-anchor="end" font-family="system-ui,sans-serif" font-size="12">
<tspan fill="#4aa3ff">open 629</tspan>  <tspan fill="#3fb950">closed 36</tspan>  <tspan fill="#8a5a5a">harness 135</tspan></text>
</svg>