<svg xmlns="http://www.w3.org/2000/svg" width="700" height="234" viewBox="0 0 700 234" role="img">
<rect width="700" height="234" rx="12" fill="#16181d"/>
<text x="36" y="22" fill="#e8eaed" font-family="system-ui,sans-serif" font-size="14" font-weight="700">Is Anthropic acting? cyber/aup false positives over time</text>
<line x1="36" y1="198.0" x2="664" y2="198.0" stroke="#2a2e37" stroke-width="1"/><text x="30" y="202.0" fill="#6b7280" font-size="11" text-anchor="end">0</text><line x1="36" y1="117.0" x2="664" y2="117.0" stroke="#2a2e37" stroke-width="1"/><text x="30" y="121.0" fill="#6b7280" font-size="11" text-anchor="end">400</text><line x1="36" y1="36.0" x2="664" y2="36.0" stroke="#2a2e37" stroke-width="1"/><text x="30" y="40.0" fill="#6b7280" font-size="11" text-anchor="end">800</text>

<polyline fill="none" stroke="#8a5a5a" stroke-width="2.5" stroke-linejoin="round" points="36.0,145.1 39.6,145.1 43.2,145.1 46.8,145.1 50.4,145.1 54.0,145.1 57.7,145.1 61.3,145.1 64.9,145.1 68.5,145.1 72.1,145.1 75.7,145.1 79.3,145.1 82.9,145.1 86.5,145.1 90.1,145.1 93.7,145.1 97.4,145.1 101.0,145.1 104.6,145.1 108.2,145.1 111.8,145.1 115.4,145.1 119.0,145.1 122.6,145.1 126.2,145.1 129.8,145.1 133.4,145.1 137.1,145.1 140.7,145.1 144.3,145.1 147.9,145.1 151.5,145.1 155.1,145.1 158.7,145.1 162.3,145.1 165.9,145.1 169.5,145.1 173.1,145.1 176.8,145.1 180.4,145.1 184.0,145.1 187.6,145.1 191.2,145.1 194.8,145.1 198.4,145.1 202.0,145.1 205.6,145.1 209.2,145.1 212.9,145.1 216.5,155.7 220.1,155.7 223.7,155.7 227.3,155.7 230.9,155.7 234.5,155.7 238.1,155.7 241.7,155.7 245.3,155.7 248.9,155.7 252.6,155.7 256.2,155.7 259.8,155.7 263.4,155.7 267.0,155.7 270.6,155.7 274.2,155.7 277.8,155.7 281.4,155.7 285.0,155.7 288.6,155.7 292.3,155.7 295.9,155.7 299.5,155.7 303.1,155.7 306.7,155.7 310.3,155.7 313.9,155.7 317.5,155.7 321.1,155.7 324.7,155.7 328.3,155.7 332.0,155.7 335.6,155.7 339.2,167.6 342.8,167.6 346.4,170.3 350.0,170.3 353.6,170.5 357.2,170.7 360.8,170.7 364.4,170.9 368.0,172.7 371.7,180.6 375.3,181.8 378.9,189.1 382.5,190.5 386.1,195.2 389.7,198.0 393.3,198.0 396.9,198.0 400.5,198.0 404.1,198.0 407.7,198.0 411.4,198.0 415.0,198.0 418.6,198.0 422.2,198.0 425.8,198.0 429.4,198.0 433.0,198.0 436.6,198.0 440.2,198.0 443.8,198.0 447.4,198.0 451.1,198.0 454.7,198.0 458.3,198.0 461.9,198.0 465.5,198.0 469.1,198.0 472.7,198.0 476.3,198.0 479.9,198.0 483.5,198.0 487.1,198.0 490.8,198.0 494.4,198.0 498.0,198.0 501.6,198.0 505.2,198.0 508.8,198.0 512.4,198.0 516.0,198.0 519.6,198.0 523.2,198.0 526.9,198.0 530.5,198.0 534.1,198.0 537.7,198.0 541.3,198.0 544.9,198.0 548.5,198.0 552.1,198.0 555.7,198.0 559.3,198.0 562.9,198.0 566.6,198.0 570.2,198.0 573.8,198.0 577.4,198.0 581.0,198.0 584.6,198.0 588.2,198.0 591.8,198.0 595.4,198.0 599.0,198.0 602.6,198.0 606.3,198.0 609.9,198.0 613.5,198.0 617.1,198.0 620.7,198.0 624.3,198.0 627.9,198.0 631.5,198.0 635.1,198.0 638.7,198.0 642.3,198.0 646.0,198.0 649.6,198.0 653.2,198.0 656.8,198.0 660.4,198.0 664.0,198.0"/><circle cx="36.0" cy="145.1" r="3" fill="#8a5a5a"/><circle cx="39.6" cy="145.1" r="3" fill="#8a5a5a"/><circle cx="43.2" cy="145.1" r="3" fill="#8a5a5a"/><circle cx="46.8" cy="145.1" r="3" fill="#8a5a5a"/><circle cx="50.4" cy="145.1" r="3" fill="#8a5a5a"/><circle cx="54.0" cy="145.1" r="3" fill="#8a5a5a"/><circle cx="57.7" cy="145.1" r="3" fill="#8a5a5a"/><circle cx="61.3" cy="145.1" r="3" fill="#8a5a5a"/><circle cx="64.9" cy="145.1" r="3" fill="#8a5a5a"/><circle cx="68.5" cy="145.1" r="3" fill="#8a5a5a"/><circle cx="72.1" cy="145.1" r="3" fill="#8a5a5a"/><circle cx="75.7" cy="145.1" r="3" fill="#8a5a5a"/><circle cx="79.3" cy="145.1" r="3" fill="#8a5a5a"/><circle cx="82.9" cy="145.1" r="3" fill="#8a5a5a"/><circle cx="86.5" cy="145.1" r="3" fill="#8a5a5a"/><circle cx="90.1" cy="145.1" r="3" fill="#8a5a5a"/><circle cx="93.7" cy="145.1" r="3" fill="#8a5a5a"/><circle cx="97.4" cy="145.1" r="3" fill="#8a5a5a"/><circle cx="101.0" cy="145.1" r="3" fill="#8a5a5a"/><circle cx="104.6" cy="145.1" r="3" fill="#8a5a5a"/><circle cx="108.2" cy="145.1" r="3" fill="#8a5a5a"/><circle cx="111.8" cy="145.1" r="3" fill="#8a5a5a"/><circle cx="115.4" cy="145.1" r="3" fill="#8a5a5a"/><circle cx="119.0" cy="145.1" r="3" fill="#8a5a5a"/><circle cx="122.6" cy="145.1" r="3" fill="#8a5a5a"/><circle cx="126.2" cy="145.1" r="3" fill="#8a5a5a"/><circle cx="129.8" cy="145.1" r="3" fill="#8a5a5a"/><circle cx="133.4" cy="145.1" r="3" fill="#8a5a5a"/><circle cx="137.1" cy="145.1" r="3" fill="#8a5a5a"/><circle cx="140.7" cy="145.1" r="3" fill="#8a5a5a"/><circle cx="144.3" cy="145.1" r="3" fill="#8a5a5a"/><circle cx="147.9" cy="145.1" r="3" fill="#8a5a5a"/><circle cx="151.5" cy="145.1" r="3" fill="#8a5a5a"/><circle cx="155.1" cy="145.1" r="3" fill="#8a5a5a"/><circle cx="158.7" cy="145.1" r="3" fill="#8a5a5a"/><circle cx="162.3" cy="145.1" r="3" fill="#8a5a5a"/><circle cx="165.9" cy="145.1" r="3" fill="#8a5a5a"/><circle cx="169.5" cy="145.1" r="3" fill="#8a5a5a"/><circle cx="173.1" cy="145.1" r="3" fill="#8a5a5a"/><circle cx="176.8" cy="145.1" r="3" fill="#8a5a5a"/><circle cx="180.4" cy="145.1" r="3" fill="#8a5a5a"/><circle cx="184.0" cy="145.1" r="3" fill="#8a5a5a"/><circle cx="187.6" cy="145.1" r="3" fill="#8a5a5a"/><circle cx="191.2" cy="145.1" r="3" fill="#8a5a5a"/><circle cx="194.8" cy="145.1" r="3" fill="#8a5a5a"/><circle cx="198.4" cy="145.1" r="3" fill="#8a5a5a"/><circle cx="202.0" cy="145.1" r="3" fill="#8a5a5a"/><circle cx="205.6" cy="145.1" r="3" fill="#8a5a5a"/><circle cx="209.2" cy="145.1" r="3" fill="#8a5a5a"/><circle cx="212.9" cy="145.1" r="3" fill="#8a5a5a"/><circle cx="216.5" cy="155.7" r="3" fill="#8a5a5a"/><circle cx="220.1" cy="155.7" r="3" fill="#8a5a5a"/><circle cx="223.7" cy="155.7" r="3" fill="#8a5a5a"/><circle cx="227.3" cy="155.7" r="3" fill="#8a5a5a"/><circle cx="230.9" cy="155.7" r="3" fill="#8a5a5a"/><circle cx="234.5" cy="155.7" r="3" fill="#8a5a5a"/><circle cx="238.1" cy="155.7" r="3" fill="#8a5a5a"/><circle cx="241.7" cy="155.7" r="3" fill="#8a5a5a"/><circle cx="245.3" cy="155.7" r="3" fill="#8a5a5a"/><circle cx="248.9" cy="155.7" r="3" fill="#8a5a5a"/><circle cx="252.6" cy="155.7" r="3" fill="#8a5a5a"/><circle cx="256.2" cy="155.7" r="3" fill="#8a5a5a"/><circle cx="259.8" cy="155.7" r="3" fill="#8a5a5a"/><circle cx="263.4" cy="155.7" r="3" fill="#8a5a5a"/><circle cx="267.0" cy="155.7" r="3" fill="#8a5a5a"/><circle cx="270.6" cy="155.7" r="3" fill="#8a5a5a"/><circle cx="274.2" cy="155.7" r="3" fill="#8a5a5a"/><circle cx="277.8" cy="155.7" r="3" fill="#8a5a5a"/><circle cx="281.4" cy="155.7" r="3" fill="#8a5a5a"/><circle cx="285.0" cy="155.7" r="3" fill="#8a5a5a"/><circle cx="288.6" cy="155.7" r="3" fill="#8a5a5a"/><circle cx="292.3" cy="155.7" r="3" fill="#8a5a5a"/><circle cx="295.9" cy="155.7" r="3" fill="#8a5a5a"/><circle cx="299.5" cy="155.7" r="3" fill="#8a5a5a"/><circle cx="303.1" cy="155.7" r="3" fill="#8a5a5a"/><circle cx="306.7" cy="155.7" r="3" fill="#8a5a5a"/><circle cx="310.3" cy="155.7" r="3" fill="#8a5a5a"/><circle cx="313.9" cy="155.7" r="3" fill="#8a5a5a"/><circle cx="317.5" cy="155.7" r="3" fill="#8a5a5a"/><circle cx="321.1" cy="155.7" r="3" fill="#8a5a5a"/><circle cx="324.7" cy="155.7" r="3" fill="#8a5a5a"/><circle cx="328.3" cy="155.7" r="3" fill="#8a5a5a"/><circle cx="332.0" cy="155.7" r="3" fill="#8a5a5a"/><circle cx="335.6" cy="155.7" r="3" fill="#8a5a5a"/><circle cx="339.2" cy="167.6" r="3" fill="#8a5a5a"/><circle cx="342.8" cy="167.6" r="3" fill="#8a5a5a"/><circle cx="346.4" cy="170.3" r="3" fill="#8a5a5a"/><circle cx="350.0" cy="170.3" r="3" fill="#8a5a5a"/><circle cx="353.6" cy="170.5" r="3" fill="#8a5a5a"/><circle cx="357.2" cy="170.7" r="3" fill="#8a5a5a"/><circle cx="360.8" cy="170.7" r="3" fill="#8a5a5a"/><circle cx="364.4" cy="170.9" r="3" fill="#8a5a5a"/><circle cx="368.0" cy="172.7" r="3" fill="#8a5a5a"/><circle cx="371.7" cy="180.6" r="3" fill="#8a5a5a"/><circle cx="375.3" cy="181.8" r="3" fill="#8a5a5a"/><circle cx="378.9" cy="189.1" r="3" fill="#8a5a5a"/><circle cx="382.5" cy="190.5" r="3" fill="#8a5a5a"/><circle cx="386.1" cy="195.2" r="3" fill="#8a5a5a"/><circle cx="389.7" cy="198.0" r="3" fill="#8a5a5a"/><circle cx="393.3" cy="198.0" r="3" fill="#8a5a5a"/><circle cx="396.9" cy="198.0" r="3" fill="#8a5a5a"/><circle cx="400.5" cy="198.0" r="3" fill="#8a5a5a"/><circle cx="404.1" cy="198.0" r="3" fill="#8a5a5a"/><circle cx="407.7" cy="198.0" r="3" fill="#8a5a5a"/><circle cx="411.4" cy="198.0" r="3" fill="#8a5a5a"/><circle cx="415.0" cy="198.0" r="3" fill="#8a5a5a"/><circle cx="418.6" cy="198.0" r="3" fill="#8a5a5a"/><circle cx="422.2" cy="198.0" r="3" fill="#8a5a5a"/><circle cx="425.8" cy="198.0" r="3" fill="#8a5a5a"/><circle cx="429.4" cy="198.0" r="3" fill="#8a5a5a"/><circle cx="433.0" cy="198.0" r="3" fill="#8a5a5a"/><circle cx="436.6" cy="198.0" r="3" fill="#8a5a5a"/><circle cx="440.2" cy="198.0" r="3" fill="#8a5a5a"/><circle cx="443.8" cy="198.0" r="3" fill="#8a5a5a"/><circle cx="447.4" cy="198.0" r="3" fill="#8a5a5a"/><circle cx="451.1" cy="198.0" r="3" fill="#8a5a5a"/><circle cx="454.7" cy="198.0" r="3" fill="#8a5a5a"/><circle cx="458.3" cy="198.0" r="3" fill="#8a5a5a"/><circle cx="461.9" cy="198.0" r="3" fill="#8a5a5a"/><circle cx="465.5" cy="198.0" r="3" fill="#8a5a5a"/><circle cx="469.1" cy="198.0" r="3" fill="#8a5a5a"/><circle cx="472.7" cy="198.0" r="3" fill="#8a5a5a"/><circle cx="476.3" cy="198.0" r="3" fill="#8a5a5a"/><circle cx="479.9" cy="198.0" r="3" fill="#8a5a5a"/><circle cx="483.5" cy="198.0" r="3" fill="#8a5a5a"/><circle cx="487.1" cy="198.0" r="3" fill="#8a5a5a"/><circle cx="490.8" cy="198.0" r="3" fill="#8a5a5a"/><circle cx="494.4" cy="198.0" r="3" fill="#8a5a5a"/><circle cx="498.0" cy="198.0" r="3" fill="#8a5a5a"/><circle cx="501.6" cy="198.0" r="3" fill="#8a5a5a"/><circle cx="505.2" cy="198.0" r="3" fill="#8a5a5a"/><circle cx="508.8" cy="198.0" r="3" fill="#8a5a5a"/><circle cx="512.4" cy="198.0" r="3" fill="#8a5a5a"/><circle cx="516.0" cy="198.0" r="3" fill="#8a5a5a"/><circle cx="519.6" cy="198.0" r="3" fill="#8a5a5a"/><circle cx="523.2" cy="198.0" r="3" fill="#8a5a5a"/><circle cx="526.9" cy="198.0" r="3" fill="#8a5a5a"/><circle cx="530.5" cy="198.0" r="3" fill="#8a5a5a"/><circle cx="534.1" cy="198.0" r="3" fill="#8a5a5a"/><circle cx="537.7" cy="198.0" r="3" fill="#8a5a5a"/><circle cx="541.3" cy="198.0" r="3" fill="#8a5a5a"/><circle cx="544.9" cy="198.0" r="3" fill="#8a5a5a"/><circle cx="548.5" cy="198.0" r="3" fill="#8a5a5a"/><circle cx="552.1" cy="198.0" r="3" fill="#8a5a5a"/><circle cx="555.7" cy="198.0" r="3" fill="#8a5a5a"/><circle cx="559.3" cy="198.0" r="3" fill="#8a5a5a"/><circle cx="562.9" cy="198.0" r="3" fill="#8a5a5a"/><circle cx="566.6" cy="198.0" r="3" fill="#8a5a5a"/><circle cx="570.2" cy="198.0" r="3" fill="#8a5a5a"/><circle cx="573.8" cy="198.0" r="3" fill="#8a5a5a"/><circle cx="577.4" cy="198.0" r="3" fill="#8a5a5a"/><circle cx="581.0" cy="198.0" r="3" fill="#8a5a5a"/><circle cx="584.6" cy="198.0" r="3" fill="#8a5a5a"/><circle cx="588.2" cy="198.0" r="3" fill="#8a5a5a"/><circle cx="591.8" cy="198.0" r="3" fill="#8a5a5a"/><circle cx="595.4" cy="198.0" r="3" fill="#8a5a5a"/><circle cx="599.0" cy="198.0" r="3" fill="#8a5a5a"/><circle cx="602.6" cy="198.0" r="3" fill="#8a5a5a"/><circle cx="606.3" cy="198.0" r="3" fill="#8a5a5a"/><circle cx="609.9" cy="198.0" r="3" fill="#8a5a5a"/><circle cx="613.5" cy="198.0" r="3" fill="#8a5a5a"/><circle cx="617.1" cy="198.0" r="3" fill="#8a5a5a"/><circle cx="620.7" cy="198.0" r="3" fill="#8a5a5a"/><circle cx="624.3" cy="198.0" r="3" fill="#8a5a5a"/><circle cx="627.9" cy="198.0" r="3" fill="#8a5a5a"/><circle cx="631.5" cy="198.0" r="3" fill="#8a5a5a"/><circle cx="635.1" cy="198.0" r="3" fill="#8a5a5a"/><circle cx="638.7" cy="198.0" r="3" fill="#8a5a5a"/><circle cx="642.3" cy="198.0" r="3" fill="#8a5a5a"/><circle cx="646.0" cy="198.0" r="3" fill="#8a5a5a"/><circle cx="649.6" cy="198.0" r="3" fill="#8a5a5a"/><circle cx="653.2" cy="198.0" r="3" fill="#8a5a5a"/><circle cx="656.8" cy="198.0" r="3" fill="#8a5a5a"/><circle cx="660.4" cy="198.0" r="3" fill="#8a5a5a"/><circle cx="664.0" cy="198.0" r="3" fill="#8a5a5a"/>
<polyline fill="none" stroke="#3fb950" stroke-width="2.5" stroke-linejoin="round" points="36.0,198.0 39.6,198.0 43.2,198.0 46.8,198.0 50.4,198.0 54.0,198.0 57.7,198.0 61.3,198.0 64.9,198.0 68.5,198.0 72.1,198.0 75.7,198.0 79.3,198.0 82.9,198.0 86.5,198.0 90.1,198.0 93.7,198.0 97.4,198.0 101.0,198.0 104.6,198.0 108.2,198.0 111.8,198.0 115.4,198.0 119.0,198.0 122.6,198.0 126.2,198.0 129.8,198.0 133.4,198.0 137.1,198.0 140.7,198.0 144.3,198.0 147.9,198.0 151.5,198.0 155.1,198.0 158.7,198.0 162.3,198.0 165.9,198.0 169.5,198.0 173.1,198.0 176.8,198.0 180.4,198.0 184.0,198.0 187.6,198.0 191.2,191.7 194.8,191.7 198.4,191.7 202.0,191.7 205.6,191.7 209.2,191.7 212.9,191.7 216.5,192.9 220.1,192.9 223.7,190.7 227.3,190.7 230.9,190.7 234.5,190.7 238.1,190.7 241.7,190.5 245.3,190.5 248.9,190.5 252.6,190.3 256.2,190.3 259.8,190.3 263.4,190.3 267.0,190.3 270.6,190.3 274.2,190.3 277.8,190.3 281.4,190.3 285.0,190.3 288.6,190.3 292.3,190.3 295.9,190.3 299.5,190.3 303.1,190.3 306.7,190.3 310.3,190.3 313.9,190.3 317.5,190.3 321.1,190.3 324.7,190.3 328.3,189.3 332.0,189.3 335.6,189.3 339.2,190.7 342.8,190.7 346.4,190.7 350.0,190.7 353.6,190.7 357.2,190.7 360.8,190.7 364.4,190.7 368.0,190.7 371.7,190.9 375.3,190.9 378.9,190.9 382.5,194.2 386.1,196.8 389.7,198.0 393.3,198.0 396.9,198.0 400.5,198.0 404.1,198.0 407.7,198.0 411.4,198.0 415.0,198.0 418.6,198.0 422.2,198.0 425.8,198.0 429.4,198.0 433.0,198.0 436.6,198.0 440.2,198.0 443.8,198.0 447.4,198.0 451.1,198.0 454.7,198.0 458.3,198.0 461.9,198.0 465.5,198.0 469.1,198.0 472.7,198.0 476.3,198.0 479.9,198.0 483.5,198.0 487.1,198.0 490.8,198.0 494.4,198.0 498.0,198.0 501.6,198.0 505.2,198.0 508.8,198.0 512.4,198.0 516.0,198.0 519.6,198.0 523.2,198.0 526.9,198.0 530.5,198.0 534.1,198.0 537.7,198.0 541.3,198.0 544.9,198.0 548.5,198.0 552.1,198.0 555.7,198.0 559.3,198.0 562.9,198.0 566.6,198.0 570.2,198.0 573.8,198.0 577.4,198.0 581.0,198.0 584.6,198.0 588.2,198.0 591.8,198.0 595.4,198.0 599.0,198.0 602.6,198.0 606.3,198.0 609.9,198.0 613.5,198.0 617.1,198.0 620.7,198.0 624.3,198.0 627.9,198.0 631.5,198.0 635.1,198.0 638.7,198.0 642.3,198.0 646.0,198.0 649.6,198.0 653.2,198.0 656.8,198.0 660.4,198.0 664.0,198.0"/><circle cx="36.0" cy="198.0" r="3" fill="#3fb950"/><circle cx="39.6" cy="198.0" r="3" fill="#3fb950"/><circle cx="43.2" cy="198.0" r="3" fill="#3fb950"/><circle cx="46.8" cy="198.0" r="3" fill="#3fb950"/><circle cx="50.4" cy="198.0" r="3" fill="#3fb950"/><circle cx="54.0" cy="198.0" r="3" fill="#3fb950"/><circle cx="57.7" cy="198.0" r="3" fill="#3fb950"/><circle cx="61.3" cy="198.0" r="3" fill="#3fb950"/><circle cx="64.9" cy="198.0" r="3" fill="#3fb950"/><circle cx="68.5" cy="198.0" r="3" fill="#3fb950"/><circle cx="72.1" cy="198.0" r="3" fill="#3fb950"/><circle cx="75.7" cy="198.0" r="3" fill="#3fb950"/><circle cx="79.3" cy="198.0" r="3" fill="#3fb950"/><circle cx="82.9" cy="198.0" r="3" fill="#3fb950"/><circle cx="86.5" cy="198.0" r="3" fill="#3fb950"/><circle cx="90.1" cy="198.0" r="3" fill="#3fb950"/><circle cx="93.7" cy="198.0" r="3" fill="#3fb950"/><circle cx="97.4" cy="198.0" r="3" fill="#3fb950"/><circle cx="101.0" cy="198.0" r="3" fill="#3fb950"/><circle cx="104.6" cy="198.0" r="3" fill="#3fb950"/><circle cx="108.2" cy="198.0" r="3" fill="#3fb950"/><circle cx="111.8" cy="198.0" r="3" fill="#3fb950"/><circle cx="115.4" cy="198.0" r="3" fill="#3fb950"/><circle cx="119.0" cy="198.0" r="3" fill="#3fb950"/><circle cx="122.6" cy="198.0" r="3" fill="#3fb950"/><circle cx="126.2" cy="198.0" r="3" fill="#3fb950"/><circle cx="129.8" cy="198.0" r="3" fill="#3fb950"/><circle cx="133.4" cy="198.0" r="3" fill="#3fb950"/><circle cx="137.1" cy="198.0" r="3" fill="#3fb950"/><circle cx="140.7" cy="198.0" r="3" fill="#3fb950"/><circle cx="144.3" cy="198.0" r="3" fill="#3fb950"/><circle cx="147.9" cy="198.0" r="3" fill="#3fb950"/><circle cx="151.5" cy="198.0" r="3" fill="#3fb950"/><circle cx="155.1" cy="198.0" r="3" fill="#3fb950"/><circle cx="158.7" cy="198.0" r="3" fill="#3fb950"/><circle cx="162.3" cy="198.0" r="3" fill="#3fb950"/><circle cx="165.9" cy="198.0" r="3" fill="#3fb950"/><circle cx="169.5" cy="198.0" r="3" fill="#3fb950"/><circle cx="173.1" cy="198.0" r="3" fill="#3fb950"/><circle cx="176.8" cy="198.0" r="3" fill="#3fb950"/><circle cx="180.4" cy="198.0" r="3" fill="#3fb950"/><circle cx="184.0" cy="198.0" r="3" fill="#3fb950"/><circle cx="187.6" cy="198.0" r="3" fill="#3fb950"/><circle cx="191.2" cy="191.7" r="3" fill="#3fb950"/><circle cx="194.8" cy="191.7" r="3" fill="#3fb950"/><circle cx="198.4" cy="191.7" r="3" fill="#3fb950"/><circle cx="202.0" cy="191.7" r="3" fill="#3fb950"/><circle cx="205.6" cy="191.7" r="3" fill="#3fb950"/><circle cx="209.2" cy="191.7" r="3" fill="#3fb950"/><circle cx="212.9" cy="191.7" r="3" fill="#3fb950"/><circle cx="216.5" cy="192.9" r="3" fill="#3fb950"/><circle cx="220.1" cy="192.9" r="3" fill="#3fb950"/><circle cx="223.7" cy="190.7" r="3" fill="#3fb950"/><circle cx="227.3" cy="190.7" r="3" fill="#3fb950"/><circle cx="230.9" cy="190.7" r="3" fill="#3fb950"/><circle cx="234.5" cy="190.7" r="3" fill="#3fb950"/><circle cx="238.1" cy="190.7" r="3" fill="#3fb950"/><circle cx="241.7" cy="190.5" r="3" fill="#3fb950"/><circle cx="245.3" cy="190.5" r="3" fill="#3fb950"/><circle cx="248.9" cy="190.5" r="3" fill="#3fb950"/><circle cx="252.6" cy="190.3" r="3" fill="#3fb950"/><circle cx="256.2" cy="190.3" r="3" fill="#3fb950"/><circle cx="259.8" cy="190.3" r="3" fill="#3fb950"/><circle cx="263.4" cy="190.3" r="3" fill="#3fb950"/><circle cx="267.0" cy="190.3" r="3" fill="#3fb950"/><circle cx="270.6" cy="190.3" r="3" fill="#3fb950"/><circle cx="274.2" cy="190.3" r="3" fill="#3fb950"/><circle cx="277.8" cy="190.3" r="3" fill="#3fb950"/><circle cx="281.4" cy="190.3" r="3" fill="#3fb950"/><circle cx="285.0" cy="190.3" r="3" fill="#3fb950"/><circle cx="288.6" cy="190.3" r="3" fill="#3fb950"/><circle cx="292.3" cy="190.3" r="3" fill="#3fb950"/><circle cx="295.9" cy="190.3" r="3" fill="#3fb950"/><circle cx="299.5" cy="190.3" r="3" fill="#3fb950"/><circle cx="303.1" cy="190.3" r="3" fill="#3fb950"/><circle cx="306.7" cy="190.3" r="3" fill="#3fb950"/><circle cx="310.3" cy="190.3" r="3" fill="#3fb950"/><circle cx="313.9" cy="190.3" r="3" fill="#3fb950"/><circle cx="317.5" cy="190.3" r="3" fill="#3fb950"/><circle cx="321.1" cy="190.3" r="3" fill="#3fb950"/><circle cx="324.7" cy="190.3" r="3" fill="#3fb950"/><circle cx="328.3" cy="189.3" r="3" fill="#3fb950"/><circle cx="332.0" cy="189.3" r="3" fill="#3fb950"/><circle cx="335.6" cy="189.3" r="3" fill="#3fb950"/><circle cx="339.2" cy="190.7" r="3" fill="#3fb950"/><circle cx="342.8" cy="190.7" r="3" fill="#3fb950"/><circle cx="346.4" cy="190.7" r="3" fill="#3fb950"/><circle cx="350.0" cy="190.7" r="3" fill="#3fb950"/><circle cx="353.6" cy="190.7" r="3" fill="#3fb950"/><circle cx="357.2" cy="190.7" r="3" fill="#3fb950"/><circle cx="360.8" cy="190.7" r="3" fill="#3fb950"/><circle cx="364.4" cy="190.7" r="3" fill="#3fb950"/><circle cx="368.0" cy="190.7" r="3" fill="#3fb950"/><circle cx="371.7" cy="190.9" r="3" fill="#3fb950"/><circle cx="375.3" cy="190.9" r="3" fill="#3fb950"/><circle cx="378.9" cy="190.9" r="3" fill="#3fb950"/><circle cx="382.5" cy="194.2" r="3" fill="#3fb950"/><circle cx="386.1" cy="196.8" r="3" fill="#3fb950"/><circle cx="389.7" cy="198.0" r="3" fill="#3fb950"/><circle cx="393.3" cy="198.0" r="3" fill="#3fb950"/><circle cx="396.9" cy="198.0" r="3" fill="#3fb950"/><circle cx="400.5" cy="198.0" r="3" fill="#3fb950"/><circle cx="404.1" cy="198.0" r="3" fill="#3fb950"/><circle cx="407.7" cy="198.0" r="3" fill="#3fb950"/><circle cx="411.4" cy="198.0" r="3" fill="#3fb950"/><circle cx="415.0" cy="198.0" r="3" fill="#3fb950"/><circle cx="418.6" cy="198.0" r="3" fill="#3fb950"/><circle cx="422.2" cy="198.0" r="3" fill="#3fb950"/><circle cx="425.8" cy="198.0" r="3" fill="#3fb950"/><circle cx="429.4" cy="198.0" r="3" fill="#3fb950"/><circle cx="433.0" cy="198.0" r="3" fill="#3fb950"/><circle cx="436.6" cy="198.0" r="3" fill="#3fb950"/><circle cx="440.2" cy="198.0" r="3" fill="#3fb950"/><circle cx="443.8" cy="198.0" r="3" fill="#3fb950"/><circle cx="447.4" cy="198.0" r="3" fill="#3fb950"/><circle cx="451.1" cy="198.0" r="3" fill="#3fb950"/><circle cx="454.7" cy="198.0" r="3" fill="#3fb950"/><circle cx="458.3" cy="198.0" r="3" fill="#3fb950"/><circle cx="461.9" cy="198.0" r="3" fill="#3fb950"/><circle cx="465.5" cy="198.0" r="3" fill="#3fb950"/><circle cx="469.1" cy="198.0" r="3" fill="#3fb950"/><circle cx="472.7" cy="198.0" r="3" fill="#3fb950"/><circle cx="476.3" cy="198.0" r="3" fill="#3fb950"/><circle cx="479.9" cy="198.0" r="3" fill="#3fb950"/><circle cx="483.5" cy="198.0" r="3" fill="#3fb950"/><circle cx="487.1" cy="198.0" r="3" fill="#3fb950"/><circle cx="490.8" cy="198.0" r="3" fill="#3fb950"/><circle cx="494.4" cy="198.0" r="3" fill="#3fb950"/><circle cx="498.0" cy="198.0" r="3" fill="#3fb950"/><circle cx="501.6" cy="198.0" r="3" fill="#3fb950"/><circle cx="505.2" cy="198.0" r="3" fill="#3fb950"/><circle cx="508.8" cy="198.0" r="3" fill="#3fb950"/><circle cx="512.4" cy="198.0" r="3" fill="#3fb950"/><circle cx="516.0" cy="198.0" r="3" fill="#3fb950"/><circle cx="519.6" cy="198.0" r="3" fill="#3fb950"/><circle cx="523.2" cy="198.0" r="3" fill="#3fb950"/><circle cx="526.9" cy="198.0" r="3" fill="#3fb950"/><circle cx="530.5" cy="198.0" r="3" fill="#3fb950"/><circle cx="534.1" cy="198.0" r="3" fill="#3fb950"/><circle cx="537.7" cy="198.0" r="3" fill="#3fb950"/><circle cx="541.3" cy="198.0" r="3" fill="#3fb950"/><circle cx="544.9" cy="198.0" r="3" fill="#3fb950"/><circle cx="548.5" cy="198.0" r="3" fill="#3fb950"/><circle cx="552.1" cy="198.0" r="3" fill="#3fb950"/><circle cx="555.7" cy="198.0" r="3" fill="#3fb950"/><circle cx="559.3" cy="198.0" r="3" fill="#3fb950"/><circle cx="562.9" cy="198.0" r="3" fill="#3fb950"/><circle cx="566.6" cy="198.0" r="3" fill="#3fb950"/><circle cx="570.2" cy="198.0" r="3" fill="#3fb950"/><circle cx="573.8" cy="198.0" r="3" fill="#3fb950"/><circle cx="577.4" cy="198.0" r="3" fill="#3fb950"/><circle cx="581.0" cy="198.0" r="3" fill="#3fb950"/><circle cx="584.6" cy="198.0" r="3" fill="#3fb950"/><circle cx="588.2" cy="198.0" r="3" fill="#3fb950"/><circle cx="591.8" cy="198.0" r="3" fill="#3fb950"/><circle cx="595.4" cy="198.0" r="3" fill="#3fb950"/><circle cx="599.0" cy="198.0" r="3" fill="#3fb950"/><circle cx="602.6" cy="198.0" r="3" fill="#3fb950"/><circle cx="606.3" cy="198.0" r="3" fill="#3fb950"/><circle cx="609.9" cy="198.0" r="3" fill="#3fb950"/><circle cx="613.5" cy="198.0" r="3" fill="#3fb950"/><circle cx="617.1" cy="198.0" r="3" fill="#3fb950"/><circle cx="620.7" cy="198.0" r="3" fill="#3fb950"/><circle cx="624.3" cy="198.0" r="3" fill="#3fb950"/><circle cx="627.9" cy="198.0" r="3" fill="#3fb950"/><circle cx="631.5" cy="198.0" r="3" fill="#3fb950"/><circle cx="635.1" cy="198.0" r="3" fill="#3fb950"/><circle cx="638.7" cy="198.0" r="3" fill="#3fb950"/><circle cx="642.3" cy="198.0" r="3" fill="#3fb950"/><circle cx="646.0" cy="198.0" r="3" fill="#3fb950"/><circle cx="649.6" cy="198.0" r="3" fill="#3fb950"/><circle cx="653.2" cy="198.0" r="3" fill="#3fb950"/><circle cx="656.8" cy="198.0" r="3" fill="#3fb950"/><circle cx="660.4" cy="198.0" r="3" fill="#3fb950"/><circle cx="664.0" cy="198.0" r="3" fill="#3fb950"/>
<polyline fill="none" stroke="#4aa3ff" stroke-width="2.5" stroke-linejoin="round" points="36.0,144.3 39.6,144.3 43.2,144.3 46.8,144.3 50.4,144.3 54.0,144.3 57.7,144.3 61.3,144.3 64.9,144.3 68.5,144.3 72.1,144.3 75.7,144.3 79.3,144.3 82.9,144.3 86.5,144.3 90.1,136.2 93.7,132.4 97.4,129.6 101.0,129.6 104.6,121.0 108.2,121.0 111.8,121.0 115.4,114.4 119.0,114.4 122.6,114.4 126.2,111.3 129.8,110.9 133.4,110.9 137.1,110.5 140.7,110.5 144.3,109.9 147.9,108.7 151.5,107.3 155.1,106.9 158.7,106.9 162.3,106.9 165.9,106.9 169.5,106.9 173.1,106.9 176.8,106.9 180.4,106.9 184.0,106.9 187.6,106.9 191.2,113.2 194.8,113.2 198.4,113.2 202.0,113.2 205.6,113.2 209.2,110.7 212.9,105.3 216.5,83.4 220.1,83.4 223.7,85.6 227.3,85.6 230.9,85.6 234.5,85.6 238.1,85.6 241.7,85.8 245.3,85.8 248.9,85.8 252.6,86.0 256.2,86.0 259.8,86.0 263.4,86.0 267.0,86.0 270.6,86.0 274.2,86.0 277.8,86.0 281.4,86.0 285.0,86.0 288.6,86.0 292.3,86.0 295.9,86.0 299.5,86.0 303.1,86.0 306.7,86.0 310.3,86.0 313.9,86.0 317.5,86.0 321.1,86.0 324.7,86.0 328.3,87.0 332.0,87.0 335.6,87.0 339.2,73.7 342.8,73.7 346.4,71.0 350.0,71.0 353.6,70.8 357.2,70.6 360.8,70.6 364.4,70.4 368.0,68.6 371.7,60.5 375.3,59.3 378.9,52.0 382.5,47.3 386.1,40.1 389.7,36.0 393.3,36.0 396.9,36.0 400.5,36.0 404.1,36.0 407.7,36.0 411.4,36.0 415.0,36.0 418.6,36.0 422.2,36.0 425.8,36.0 429.4,36.0 433.0,36.0 436.6,36.0 440.2,36.0 443.8,36.0 447.4,36.0 451.1,36.0 454.7,36.0 458.3,36.0 461.9,36.0 465.5,36.0 469.1,36.0 472.7,36.0 476.3,36.0 479.9,36.0 483.5,36.0 487.1,36.0 490.8,36.0 494.4,36.0 498.0,36.0 501.6,36.0 505.2,36.0 508.8,36.0 512.4,36.0 516.0,36.0 519.6,36.0 523.2,36.0 526.9,36.0 530.5,36.0 534.1,36.0 537.7,36.0 541.3,36.0 544.9,36.0 548.5,36.0 552.1,36.0 555.7,36.0 559.3,36.0 562.9,36.0 566.6,36.0 570.2,36.0 573.8,36.0 577.4,36.0 581.0,36.0 584.6,36.0 588.2,36.0 591.8,36.0 595.4,36.0 599.0,36.0 602.6,36.0 606.3,36.0 609.9,36.0 613.5,36.0 617.1,36.0 620.7,36.0 624.3,36.0 627.9,36.0 631.5,36.0 635.1,36.0 638.7,36.0 642.3,36.0 646.0,36.0 649.6,36.0 653.2,36.0 656.8,36.0 660.4,36.0 664.0,36.0"/><circle cx="36.0" cy="144.3" r="3" fill="#4aa3ff"/><circle cx="39.6" cy="144.3" r="3" fill="#4aa3ff"/><circle cx="43.2" cy="144.3" r="3" fill="#4aa3ff"/><circle cx="46.8" cy="144.3" r="3" fill="#4aa3ff"/><circle cx="50.4" cy="144.3" r="3" fill="#4aa3ff"/><circle cx="54.0" cy="144.3" r="3" fill="#4aa3ff"/><circle cx="57.7" cy="144.3" r="3" fill="#4aa3ff"/><circle cx="61.3" cy="144.3" r="3" fill="#4aa3ff"/><circle cx="64.9" cy="144.3" r="3" fill="#4aa3ff"/><circle cx="68.5" cy="144.3" r="3" fill="#4aa3ff"/><circle cx="72.1" cy="144.3" r="3" fill="#4aa3ff"/><circle cx="75.7" cy="144.3" r="3" fill="#4aa3ff"/><circle cx="79.3" cy="144.3" r="3" fill="#4aa3ff"/><circle cx="82.9" cy="144.3" r="3" fill="#4aa3ff"/><circle cx="86.5" cy="144.3" r="3" fill="#4aa3ff"/><circle cx="90.1" cy="136.2" r="3" fill="#4aa3ff"/><circle cx="93.7" cy="132.4" r="3" fill="#4aa3ff"/><circle cx="97.4" cy="129.6" r="3" fill="#4aa3ff"/><circle cx="101.0" cy="129.6" r="3" fill="#4aa3ff"/><circle cx="104.6" cy="121.0" r="3" fill="#4aa3ff"/><circle cx="108.2" cy="121.0" r="3" fill="#4aa3ff"/><circle cx="111.8" cy="121.0" r="3" fill="#4aa3ff"/><circle cx="115.4" cy="114.4" r="3" fill="#4aa3ff"/><circle cx="119.0" cy="114.4" r="3" fill="#4aa3ff"/><circle cx="122.6" cy="114.4" r="3" fill="#4aa3ff"/><circle cx="126.2" cy="111.3" r="3" fill="#4aa3ff"/><circle cx="129.8" cy="110.9" r="3" fill="#4aa3ff"/><circle cx="133.4" cy="110.9" r="3" fill="#4aa3ff"/><circle cx="137.1" cy="110.5" r="3" fill="#4aa3ff"/><circle cx="140.7" cy="110.5" r="3" fill="#4aa3ff"/><circle cx="144.3" cy="109.9" r="3" fill="#4aa3ff"/><circle cx="147.9" cy="108.7" r="3" fill="#4aa3ff"/><circle cx="151.5" cy="107.3" r="3" fill="#4aa3ff"/><circle cx="155.1" cy="106.9" r="3" fill="#4aa3ff"/><circle cx="158.7" cy="106.9" r="3" fill="#4aa3ff"/><circle cx="162.3" cy="106.9" r="3" fill="#4aa3ff"/><circle cx="165.9" cy="106.9" r="3" fill="#4aa3ff"/><circle cx="169.5" cy="106.9" r="3" fill="#4aa3ff"/><circle cx="173.1" cy="106.9" r="3" fill="#4aa3ff"/><circle cx="176.8" cy="106.9" r="3" fill="#4aa3ff"/><circle cx="180.4" cy="106.9" r="3" fill="#4aa3ff"/><circle cx="184.0" cy="106.9" r="3" fill="#4aa3ff"/><circle cx="187.6" cy="106.9" r="3" fill="#4aa3ff"/><circle cx="191.2" cy="113.2" r="3" fill="#4aa3ff"/><circle cx="194.8" cy="113.2" r="3" fill="#4aa3ff"/><circle cx="198.4" cy="113.2" r="3" fill="#4aa3ff"/><circle cx="202.0" cy="113.2" r="3" fill="#4aa3ff"/><circle cx="205.6" cy="113.2" r="3" fill="#4aa3ff"/><circle cx="209.2" cy="110.7" r="3" fill="#4aa3ff"/><circle cx="212.9" cy="105.3" r="3" fill="#4aa3ff"/><circle cx="216.5" cy="83.4" r="3" fill="#4aa3ff"/><circle cx="220.1" cy="83.4" r="3" fill="#4aa3ff"/><circle cx="223.7" cy="85.6" r="3" fill="#4aa3ff"/><circle cx="227.3" cy="85.6" r="3" fill="#4aa3ff"/><circle cx="230.9" cy="85.6" r="3" fill="#4aa3ff"/><circle cx="234.5" cy="85.6" r="3" fill="#4aa3ff"/><circle cx="238.1" cy="85.6" r="3" fill="#4aa3ff"/><circle cx="241.7" cy="85.8" r="3" fill="#4aa3ff"/><circle cx="245.3" cy="85.8" r="3" fill="#4aa3ff"/><circle cx="248.9" cy="85.8" r="3" fill="#4aa3ff"/><circle cx="252.6" cy="86.0" r="3" fill="#4aa3ff"/><circle cx="256.2" cy="86.0" r="3" fill="#4aa3ff"/><circle cx="259.8" cy="86.0" r="3" fill="#4aa3ff"/><circle cx="263.4" cy="86.0" r="3" fill="#4aa3ff"/><circle cx="267.0" cy="86.0" r="3" fill="#4aa3ff"/><circle cx="270.6" cy="86.0" r="3" fill="#4aa3ff"/><circle cx="274.2" cy="86.0" r="3" fill="#4aa3ff"/><circle cx="277.8" cy="86.0" r="3" fill="#4aa3ff"/><circle cx="281.4" cy="86.0" r="3" fill="#4aa3ff"/><circle cx="285.0" cy="86.0" r="3" fill="#4aa3ff"/><circle cx="288.6" cy="86.0" r="3" fill="#4aa3ff"/><circle cx="292.3" cy="86.0" r="3" fill="#4aa3ff"/><circle cx="295.9" cy="86.0" r="3" fill="#4aa3ff"/><circle cx="299.5" cy="86.0" r="3" fill="#4aa3ff"/><circle cx="303.1" cy="86.0" r="3" fill="#4aa3ff"/><circle cx="306.7" cy="86.0" r="3" fill="#4aa3ff"/><circle cx="310.3" cy="86.0" r="3" fill="#4aa3ff"/><circle cx="313.9" cy="86.0" r="3" fill="#4aa3ff"/><circle cx="317.5" cy="86.0" r="3" fill="#4aa3ff"/><circle cx="321.1" cy="86.0" r="3" fill="#4aa3ff"/><circle cx="324.7" cy="86.0" r="3" fill="#4aa3ff"/><circle cx="328.3" cy="87.0" r="3" fill="#4aa3ff"/><circle cx="332.0" cy="87.0" r="3" fill="#4aa3ff"/><circle cx="335.6" cy="87.0" r="3" fill="#4aa3ff"/><circle cx="339.2" cy="73.7" r="3" fill="#4aa3ff"/><circle cx="342.8" cy="73.7" r="3" fill="#4aa3ff"/><circle cx="346.4" cy="71.0" r="3" fill="#4aa3ff"/><circle cx="350.0" cy="71.0" r="3" fill="#4aa3ff"/><circle cx="353.6" cy="70.8" r="3" fill="#4aa3ff"/><circle cx="357.2" cy="70.6" r="3" fill="#4aa3ff"/><circle cx="360.8" cy="70.6" r="3" fill="#4aa3ff"/><circle cx="364.4" cy="70.4" r="3" fill="#4aa3ff"/><circle cx="368.0" cy="68.6" r="3" fill="#4aa3ff"/><circle cx="371.7" cy="60.5" r="3" fill="#4aa3ff"/><circle cx="375.3" cy="59.3" r="3" fill="#4aa3ff"/><circle cx="378.9" cy="52.0" r="3" fill="#4aa3ff"/><circle cx="382.5" cy="47.3" r="3" fill="#4aa3ff"/><circle cx="386.1" cy="40.1" r="3" fill="#4aa3ff"/><circle cx="389.7" cy="36.0" r="3" fill="#4aa3ff"/><circle cx="393.3" cy="36.0" r="3" fill="#4aa3ff"/><circle cx="396.9" cy="36.0" r="3" fill="#4aa3ff"/><circle cx="400.5" cy="36.0" r="3" fill="#4aa3ff"/><circle cx="404.1" cy="36.0" r="3" fill="#4aa3ff"/><circle cx="407.7" cy="36.0" r="3" fill="#4aa3ff"/><circle cx="411.4" cy="36.0" r="3" fill="#4aa3ff"/><circle cx="415.0" cy="36.0" r="3" fill="#4aa3ff"/><circle cx="418.6" cy="36.0" r="3" fill="#4aa3ff"/><circle cx="422.2" cy="36.0" r="3" fill="#4aa3ff"/><circle cx="425.8" cy="36.0" r="3" fill="#4aa3ff"/><circle cx="429.4" cy="36.0" r="3" fill="#4aa3ff"/><circle cx="433.0" cy="36.0" r="3" fill="#4aa3ff"/><circle cx="436.6" cy="36.0" r="3" fill="#4aa3ff"/><circle cx="440.2" cy="36.0" r="3" fill="#4aa3ff"/><circle cx="443.8" cy="36.0" r="3" fill="#4aa3ff"/><circle cx="447.4" cy="36.0" r="3" fill="#4aa3ff"/><circle cx="451.1" cy="36.0" r="3" fill="#4aa3ff"/><circle cx="454.7" cy="36.0" r="3" fill="#4aa3ff"/><circle cx="458.3" cy="36.0" r="3" fill="#4aa3ff"/><circle cx="461.9" cy="36.0" r="3" fill="#4aa3ff"/><circle cx="465.5" cy="36.0" r="3" fill="#4aa3ff"/><circle cx="469.1" cy="36.0" r="3" fill="#4aa3ff"/><circle cx="472.7" cy="36.0" r="3" fill="#4aa3ff"/><circle cx="476.3" cy="36.0" r="3" fill="#4aa3ff"/><circle cx="479.9" cy="36.0" r="3" fill="#4aa3ff"/><circle cx="483.5" cy="36.0" r="3" fill="#4aa3ff"/><circle cx="487.1" cy="36.0" r="3" fill="#4aa3ff"/><circle cx="490.8" cy="36.0" r="3" fill="#4aa3ff"/><circle cx="494.4" cy="36.0" r="3" fill="#4aa3ff"/><circle cx="498.0" cy="36.0" r="3" fill="#4aa3ff"/><circle cx="501.6" cy="36.0" r="3" fill="#4aa3ff"/><circle cx="505.2" cy="36.0" r="3" fill="#4aa3ff"/><circle cx="508.8" cy="36.0" r="3" fill="#4aa3ff"/><circle cx="512.4" cy="36.0" r="3" fill="#4aa3ff"/><circle cx="516.0" cy="36.0" r="3" fill="#4aa3ff"/><circle cx="519.6" cy="36.0" r="3" fill="#4aa3ff"/><circle cx="523.2" cy="36.0" r="3" fill="#4aa3ff"/><circle cx="526.9" cy="36.0" r="3" fill="#4aa3ff"/><circle cx="530.5" cy="36.0" r="3" fill="#4aa3ff"/><circle cx="534.1" cy="36.0" r="3" fill="#4aa3ff"/><circle cx="537.7" cy="36.0" r="3" fill="#4aa3ff"/><circle cx="541.3" cy="36.0" r="3" fill="#4aa3ff"/><circle cx="544.9" cy="36.0" r="3" fill="#4aa3ff"/><circle cx="548.5" cy="36.0" r="3" fill="#4aa3ff"/><circle cx="552.1" cy="36.0" r="3" fill="#4aa3ff"/><circle cx="555.7" cy="36.0" r="3" fill="#4aa3ff"/><circle cx="559.3" cy="36.0" r="3" fill="#4aa3ff"/><circle cx="562.9" cy="36.0" r="3" fill="#4aa3ff"/><circle cx="566.6" cy="36.0" r="3" fill="#4aa3ff"/><circle cx="570.2" cy="36.0" r="3" fill="#4aa3ff"/><circle cx="573.8" cy="36.0" r="3" fill="#4aa3ff"/><circle cx="577.4" cy="36.0" r="3" fill="#4aa3ff"/><circle cx="581.0" cy="36.0" r="3" fill="#4aa3ff"/><circle cx="584.6" cy="36.0" r="3" fill="#4aa3ff"/><circle cx="588.2" cy="36.0" r="3" fill="#4aa3ff"/><circle cx="591.8" cy="36.0" r="3" fill="#4aa3ff"/><circle cx="595.4" cy="36.0" r="3" fill="#4aa3ff"/><circle cx="599.0" cy="36.0" r="3" fill="#4aa3ff"/><circle cx="602.6" cy="36.0" r="3" fill="#4aa3ff"/><circle cx="606.3" cy="36.0" r="3" fill="#4aa3ff"/><circle cx="609.9" cy="36.0" r="3" fill="#4aa3ff"/><circle cx="613.5" cy="36.0" r="3" fill="#4aa3ff"/><circle cx="617.1" cy="36.0" r="3" fill="#4aa3ff"/><circle cx="620.7" cy="36.0" r="3" fill="#4aa3ff"/><circle cx="624.3" cy="36.0" r="3" fill="#4aa3ff"/><circle cx="627.9" cy="36.0" r="3" fill="#4aa3ff"/><circle cx="631.5" cy="36.0" r="3" fill="#4aa3ff"/><circle cx="635.1" cy="36.0" r="3" fill="#4aa3ff"/><circle cx="638.7" cy="36.0" r="3" fill="#4aa3ff"/><circle cx="642.3" cy="36.0" r="3" fill="#4aa3ff"/><circle cx="646.0" cy="36.0" r="3" fill="#4aa3ff"/><circle cx="649.6" cy="36.0" r="3" fill="#4aa3ff"/><circle cx="653.2" cy="36.0" r="3" fill="#4aa3ff"/><circle cx="656.8" cy="36.0" r="3" fill="#4aa3ff"/><circle cx="660.4" cy="36.0" r="3" fill="#4aa3ff"/><circle cx="664.0" cy="36.0" r="3" fill="#4aa3ff"/>
<text x="36" y="225" fill="#6b7280" font-size="11">2026-06-26</text>
<text x="664" y="225" fill="#6b7280" font-size="11" text-anchor="end">2026-07-14</text>
<text x="36" y="212" font-family="system-ui,sans-serif" font-size="11">
<tspan fill="#4aa3ff">&#9679; open FPs</tspan>  <tspan fill="#3fb950">&#9679; closed (Anthropic acting)</tspan>  <tspan fill="#8a5a5a">&#9679; harness withdrawn</tspan></text>
<text x="664" y="22" text-anchor="end" font-family="system-ui,sans-serif" font-size="12">
<tspan fill="#4aa3ff">open 800</tspan>  <tspan fill="#3fb950">closed 0</tspan>  <tspan fill="#8a5a5a">harness 0</tspan></text>
</svg>