<svg xmlns="http://www.w3.org/2000/svg" width="700" height="234" viewBox="0 0 700 234" role="img">
<rect width="700" height="234" rx="12" fill="#16181d"/>
<text x="36" y="22" fill="#e8eaed" font-family="system-ui,sans-serif" font-size="14" font-weight="700">Is Anthropic acting? cyber/aup false positives over time</text>
<line x1="36" y1="198.0" x2="664" y2="198.0" stroke="#2a2e37" stroke-width="1"/><text x="30" y="202.0" fill="#6b7280" font-size="11" text-anchor="end">0</text><line x1="36" y1="117.0" x2="664" y2="117.0" stroke="#2a2e37" stroke-width="1"/><text x="30" y="121.0" fill="#6b7280" font-size="11" text-anchor="end">224</text><line x1="36" y1="36.0" x2="664" y2="36.0" stroke="#2a2e37" stroke-width="1"/><text x="30" y="40.0" fill="#6b7280" font-size="11" text-anchor="end">448</text>

<polyline fill="none" stroke="#8a5a5a" stroke-width="2.5" stroke-linejoin="round" points="36.0,103.6 55.6,103.6 75.2,103.6 94.9,103.6 114.5,103.6 134.1,103.6 153.8,103.6 173.4,103.6 193.0,103.6 212.6,103.6 232.2,103.6 251.9,103.6 271.5,103.6 291.1,103.6 310.8,103.6 330.4,103.6 350.0,103.6 369.6,103.6 389.2,103.6 408.9,103.6 428.5,103.6 448.1,103.6 467.8,103.6 487.4,103.6 507.0,103.6 526.6,103.6 546.2,103.6 565.9,103.6 585.5,103.6 605.1,103.6 624.8,103.6 644.4,103.6 664.0,103.6"/><circle cx="36.0" cy="103.6" r="3" fill="#8a5a5a"/><circle cx="55.6" cy="103.6" r="3" fill="#8a5a5a"/><circle cx="75.2" cy="103.6" r="3" fill="#8a5a5a"/><circle cx="94.9" cy="103.6" r="3" fill="#8a5a5a"/><circle cx="114.5" cy="103.6" r="3" fill="#8a5a5a"/><circle cx="134.1" cy="103.6" r="3" fill="#8a5a5a"/><circle cx="153.8" cy="103.6" r="3" fill="#8a5a5a"/><circle cx="173.4" cy="103.6" r="3" fill="#8a5a5a"/><circle cx="193.0" cy="103.6" r="3" fill="#8a5a5a"/><circle cx="212.6" cy="103.6" r="3" fill="#8a5a5a"/><circle cx="232.2" cy="103.6" r="3" fill="#8a5a5a"/><circle cx="251.9" cy="103.6" r="3" fill="#8a5a5a"/><circle cx="271.5" cy="103.6" r="3" fill="#8a5a5a"/><circle cx="291.1" cy="103.6" r="3" fill="#8a5a5a"/><circle cx="310.8" cy="103.6" r="3" fill="#8a5a5a"/><circle cx="330.4" cy="103.6" r="3" fill="#8a5a5a"/><circle cx="350.0" cy="103.6" r="3" fill="#8a5a5a"/><circle cx="369.6" cy="103.6" r="3" fill="#8a5a5a"/><circle cx="389.2" cy="103.6" r="3" fill="#8a5a5a"/><circle cx="408.9" cy="103.6" r="3" fill="#8a5a5a"/><circle cx="428.5" cy="103.6" r="3" fill="#8a5a5a"/><circle cx="448.1" cy="103.6" r="3" fill="#8a5a5a"/><circle cx="467.8" cy="103.6" r="3" fill="#8a5a5a"/><circle cx="487.4" cy="103.6" r="3" fill="#8a5a5a"/><circle cx="507.0" cy="103.6" r="3" fill="#8a5a5a"/><circle cx="526.6" cy="103.6" r="3" fill="#8a5a5a"/><circle cx="546.2" cy="103.6" r="3" fill="#8a5a5a"/><circle cx="565.9" cy="103.6" r="3" fill="#8a5a5a"/><circle cx="585.5" cy="103.6" r="3" fill="#8a5a5a"/><circle cx="605.1" cy="103.6" r="3" fill="#8a5a5a"/><circle cx="624.8" cy="103.6" r="3" fill="#8a5a5a"/><circle cx="644.4" cy="103.6" r="3" fill="#8a5a5a"/><circle cx="664.0" cy="103.6" r="3" fill="#8a5a5a"/>
<polyline fill="none" stroke="#3fb950" stroke-width="2.5" stroke-linejoin="round" points="36.0,198.0 55.6,198.0 75.2,198.0 94.9,198.0 114.5,198.0 134.1,198.0 153.8,198.0 173.4,198.0 193.0,198.0 212.6,198.0 232.2,198.0 251.9,198.0 271.5,198.0 291.1,198.0 310.8,198.0 330.4,198.0 350.0,198.0 369.6,198.0 389.2,198.0 408.9,198.0 428.5,198.0 448.1,198.0 467.8,198.0 487.4,198.0 507.0,198.0 526.6,198.0 546.2,198.0 565.9,198.0 585.5,198.0 605.1,198.0 624.8,198.0 644.4,198.0 664.0,198.0"/><circle cx="36.0" cy="198.0" r="3" fill="#3fb950"/><circle cx="55.6" cy="198.0" r="3" fill="#3fb950"/><circle cx="75.2" cy="198.0" r="3" fill="#3fb950"/><circle cx="94.9" cy="198.0" r="3" fill="#3fb950"/><circle cx="114.5" cy="198.0" r="3" fill="#3fb950"/><circle cx="134.1" cy="198.0" r="3" fill="#3fb950"/><circle cx="153.8" cy="198.0" r="3" fill="#3fb950"/><circle cx="173.4" cy="198.0" r="3" fill="#3fb950"/><circle cx="193.0" cy="198.0" r="3" fill="#3fb950"/><circle cx="212.6" cy="198.0" r="3" fill="#3fb950"/><circle cx="232.2" cy="198.0" r="3" fill="#3fb950"/><circle cx="251.9" cy="198.0" r="3" fill="#3fb950"/><circle cx="271.5" cy="198.0" r="3" fill="#3fb950"/><circle cx="291.1" cy="198.0" r="3" fill="#3fb950"/><circle cx="310.8" cy="198.0" r="3" fill="#3fb950"/><circle cx="330.4" cy="198.0" r="3" fill="#3fb950"/><circle cx="350.0" cy="198.0" r="3" fill="#3fb950"/><circle cx="369.6" cy="198.0" r="3" fill="#3fb950"/><circle cx="389.2" cy="198.0" r="3" fill="#3fb950"/><circle cx="408.9" cy="198.0" r="3" fill="#3fb950"/><circle cx="428.5" cy="198.0" r="3" fill="#3fb950"/><circle cx="448.1" cy="198.0" r="3" fill="#3fb950"/><circle cx="467.8" cy="198.0" r="3" fill="#3fb950"/><circle cx="487.4" cy="198.0" r="3" fill="#3fb950"/><circle cx="507.0" cy="198.0" r="3" fill="#3fb950"/><circle cx="526.6" cy="198.0" r="3" fill="#3fb950"/><circle cx="546.2" cy="198.0" r="3" fill="#3fb950"/><circle cx="565.9" cy="198.0" r="3" fill="#3fb950"/><circle cx="585.5" cy="198.0" r="3" fill="#3fb950"/><circle cx="605.1" cy="198.0" r="3" fill="#3fb950"/><circle cx="624.8" cy="198.0" r="3" fill="#3fb950"/><circle cx="644.4" cy="198.0" r="3" fill="#3fb950"/><circle cx="664.0" cy="198.0" r="3" fill="#3fb950"/>
<polyline fill="none" stroke="#4aa3ff" stroke-width="2.5" stroke-linejoin="round" points="36.0,102.2 55.6,102.2 75.2,102.2 94.9,102.2 114.5,102.2 134.1,102.2 153.8,102.2 173.4,102.2 193.0,102.2 212.6,102.2 232.2,102.2 251.9,102.2 271.5,102.2 291.1,102.2 310.8,102.2 330.4,87.7 350.0,80.8 369.6,75.8 389.2,75.8 408.9,60.6 428.5,60.6 448.1,60.6 467.8,48.7 487.4,48.7 507.0,48.7 526.6,43.2 546.2,42.5 565.9,42.5 585.5,41.8 605.1,41.8 624.8,40.7 644.4,38.5 664.0,36.0"/><circle cx="36.0" cy="102.2" r="3" fill="#4aa3ff"/><circle cx="55.6" cy="102.2" r="3" fill="#4aa3ff"/><circle cx="75.2" cy="102.2" r="3" fill="#4aa3ff"/><circle cx="94.9" cy="102.2" r="3" fill="#4aa3ff"/><circle cx="114.5" cy="102.2" r="3" fill="#4aa3ff"/><circle cx="134.1" cy="102.2" r="3" fill="#4aa3ff"/><circle cx="153.8" cy="102.2" r="3" fill="#4aa3ff"/><circle cx="173.4" cy="102.2" r="3" fill="#4aa3ff"/><circle cx="193.0" cy="102.2" r="3" fill="#4aa3ff"/><circle cx="212.6" cy="102.2" r="3" fill="#4aa3ff"/><circle cx="232.2" cy="102.2" r="3" fill="#4aa3ff"/><circle cx="251.9" cy="102.2" r="3" fill="#4aa3ff"/><circle cx="271.5" cy="102.2" r="3" fill="#4aa3ff"/><circle cx="291.1" cy="102.2" r="3" fill="#4aa3ff"/><circle cx="310.8" cy="102.2" r="3" fill="#4aa3ff"/><circle cx="330.4" cy="87.7" r="3" fill="#4aa3ff"/><circle cx="350.0" cy="80.8" r="3" fill="#4aa3ff"/><circle cx="369.6" cy="75.8" r="3" fill="#4aa3ff"/><circle cx="389.2" cy="75.8" r="3" fill="#4aa3ff"/><circle cx="408.9" cy="60.6" r="3" fill="#4aa3ff"/><circle cx="428.5" cy="60.6" r="3" fill="#4aa3ff"/><circle cx="448.1" cy="60.6" r="3" fill="#4aa3ff"/><circle cx="467.8" cy="48.7" r="3" fill="#4aa3ff"/><circle cx="487.4" cy="48.7" r="3" fill="#4aa3ff"/><circle cx="507.0" cy="48.7" r="3" fill="#4aa3ff"/><circle cx="526.6" cy="43.2" r="3" fill="#4aa3ff"/><circle cx="546.2" cy="42.5" r="3" fill="#4aa3ff"/><circle cx="565.9" cy="42.5" r="3" fill="#4aa3ff"/><circle cx="585.5" cy="41.8" r="3" fill="#4aa3ff"/><circle cx="605.1" cy="41.8" r="3" fill="#4aa3ff"/><circle cx="624.8" cy="40.7" r="3" fill="#4aa3ff"/><circle cx="644.4" cy="38.5" r="3" fill="#4aa3ff"/><circle cx="664.0" cy="36.0" r="3" fill="#4aa3ff"/>
<text x="36" y="225" fill="#6b7280" font-size="11">2026-06-26</text>
<text x="664" y="225" fill="#6b7280" font-size="11" text-anchor="end">2026-06-29</text>
<text x="36" y="212" font-family="system-ui,sans-serif" font-size="11">
<tspan fill="#4aa3ff">&#9679; open FPs</tspan>  <tspan fill="#3fb950">&#9679; closed (Anthropic acting)</tspan>  <tspan fill="#8a5a5a">&#9679; harness withdrawn</tspan></text>
<text x="664" y="22" text-anchor="end" font-family="system-ui,sans-serif" font-size="12">
<tspan fill="#4aa3ff">open 448</tspan>  <tspan fill="#3fb950">closed 0</tspan>  <tspan fill="#8a5a5a">harness 261</tspan></text>
</svg>