<svg xmlns="http://www.w3.org/2000/svg" width="700" height="234" viewBox="0 0 700 234" role="img">
<rect width="700" height="234" rx="12" fill="#16181d"/>
<text x="36" y="22" fill="#e8eaed" font-family="system-ui,sans-serif" font-size="14" font-weight="700">Is Anthropic acting? cyber/aup false positives over time</text>
<line x1="36" y1="198.0" x2="664" y2="198.0" stroke="#2a2e37" stroke-width="1"/><text x="30" y="202.0" fill="#6b7280" font-size="11" text-anchor="end">0</text><line x1="36" y1="117.0" x2="664" y2="117.0" stroke="#2a2e37" stroke-width="1"/><text x="30" y="121.0" fill="#6b7280" font-size="11" text-anchor="end">400</text><line x1="36" y1="36.0" x2="664" y2="36.0" stroke="#2a2e37" stroke-width="1"/><text x="30" y="40.0" fill="#6b7280" font-size="11" text-anchor="end">800</text>

<polyline fill="none" stroke="#8a5a5a" stroke-width="2.5" stroke-linejoin="round" points="36.0,145.1 40.9,145.1 45.9,145.1 50.8,145.1 55.8,145.1 60.7,145.1 65.7,145.1 70.6,145.1 75.6,145.1 80.5,145.1 85.4,145.1 90.4,145.1 95.3,145.1 100.3,145.1 105.2,145.1 110.2,145.1 115.1,145.1 120.1,145.1 125.0,145.1 130.0,145.1 134.9,145.1 139.8,145.1 144.8,145.1 149.7,145.1 154.7,145.1 159.6,145.1 164.6,145.1 169.5,145.1 174.5,145.1 179.4,145.1 184.3,145.1 189.3,145.1 194.2,145.1 199.2,145.1 204.1,145.1 209.1,145.1 214.0,145.1 219.0,145.1 223.9,145.1 228.9,145.1 233.8,145.1 238.7,145.1 243.7,145.1 248.6,145.1 253.6,145.1 258.5,145.1 263.5,145.1 268.4,145.1 273.4,145.1 278.3,145.1 283.2,155.7 288.2,155.7 293.1,155.7 298.1,155.7 303.0,155.7 308.0,155.7 312.9,155.7 317.9,155.7 322.8,155.7 327.7,155.7 332.7,155.7 337.6,155.7 342.6,155.7 347.5,155.7 352.5,155.7 357.4,155.7 362.4,155.7 367.3,155.7 372.3,155.7 377.2,155.7 382.1,155.7 387.1,155.7 392.0,155.7 397.0,155.7 401.9,155.7 406.9,155.7 411.8,155.7 416.8,155.7 421.7,155.7 426.6,155.7 431.6,155.7 436.5,155.7 441.5,155.7 446.4,155.7 451.4,167.6 456.3,167.6 461.3,170.3 466.2,170.3 471.1,170.5 476.1,170.7 481.0,170.7 486.0,170.9 490.9,172.7 495.9,180.6 500.8,181.8 505.8,189.1 510.7,190.5 515.7,195.2 520.6,198.0 525.5,198.0 530.5,198.0 535.4,198.0 540.4,198.0 545.3,198.0 550.3,198.0 555.2,198.0 560.2,198.0 565.1,198.0 570.0,198.0 575.0,198.0 579.9,198.0 584.9,198.0 589.8,198.0 594.8,198.0 599.7,198.0 604.7,198.0 609.6,198.0 614.6,198.0 619.5,198.0 624.4,198.0 629.4,198.0 634.3,198.0 639.3,198.0 644.2,198.0 649.2,198.0 654.1,198.0 659.1,198.0 664.0,198.0"/><circle cx="36.0" cy="145.1" r="3" fill="#8a5a5a"/><circle cx="40.9" cy="145.1" r="3" fill="#8a5a5a"/><circle cx="45.9" cy="145.1" r="3" fill="#8a5a5a"/><circle cx="50.8" cy="145.1" r="3" fill="#8a5a5a"/><circle cx="55.8" cy="145.1" r="3" fill="#8a5a5a"/><circle cx="60.7" cy="145.1" r="3" fill="#8a5a5a"/><circle cx="65.7" cy="145.1" r="3" fill="#8a5a5a"/><circle cx="70.6" cy="145.1" r="3" fill="#8a5a5a"/><circle cx="75.6" cy="145.1" r="3" fill="#8a5a5a"/><circle cx="80.5" cy="145.1" r="3" fill="#8a5a5a"/><circle cx="85.4" cy="145.1" r="3" fill="#8a5a5a"/><circle cx="90.4" cy="145.1" r="3" fill="#8a5a5a"/><circle cx="95.3" cy="145.1" r="3" fill="#8a5a5a"/><circle cx="100.3" cy="145.1" r="3" fill="#8a5a5a"/><circle cx="105.2" cy="145.1" r="3" fill="#8a5a5a"/><circle cx="110.2" cy="145.1" r="3" fill="#8a5a5a"/><circle cx="115.1" cy="145.1" r="3" fill="#8a5a5a"/><circle cx="120.1" cy="145.1" r="3" fill="#8a5a5a"/><circle cx="125.0" cy="145.1" r="3" fill="#8a5a5a"/><circle cx="130.0" cy="145.1" r="3" fill="#8a5a5a"/><circle cx="134.9" cy="145.1" r="3" fill="#8a5a5a"/><circle cx="139.8" cy="145.1" r="3" fill="#8a5a5a"/><circle cx="144.8" cy="145.1" r="3" fill="#8a5a5a"/><circle cx="149.7" cy="145.1" r="3" fill="#8a5a5a"/><circle cx="154.7" cy="145.1" r="3" fill="#8a5a5a"/><circle cx="159.6" cy="145.1" r="3" fill="#8a5a5a"/><circle cx="164.6" cy="145.1" r="3" fill="#8a5a5a"/><circle cx="169.5" cy="145.1" r="3" fill="#8a5a5a"/><circle cx="174.5" cy="145.1" r="3" fill="#8a5a5a"/><circle cx="179.4" cy="145.1" r="3" fill="#8a5a5a"/><circle cx="184.3" cy="145.1" r="3" fill="#8a5a5a"/><circle cx="189.3" cy="145.1" r="3" fill="#8a5a5a"/><circle cx="194.2" cy="145.1" r="3" fill="#8a5a5a"/><circle cx="199.2" cy="145.1" r="3" fill="#8a5a5a"/><circle cx="204.1" cy="145.1" r="3" fill="#8a5a5a"/><circle cx="209.1" cy="145.1" r="3" fill="#8a5a5a"/><circle cx="214.0" cy="145.1" r="3" fill="#8a5a5a"/><circle cx="219.0" cy="145.1" r="3" fill="#8a5a5a"/><circle cx="223.9" cy="145.1" r="3" fill="#8a5a5a"/><circle cx="228.9" cy="145.1" r="3" fill="#8a5a5a"/><circle cx="233.8" cy="145.1" r="3" fill="#8a5a5a"/><circle cx="238.7" cy="145.1" r="3" fill="#8a5a5a"/><circle cx="243.7" cy="145.1" r="3" fill="#8a5a5a"/><circle cx="248.6" cy="145.1" r="3" fill="#8a5a5a"/><circle cx="253.6" cy="145.1" r="3" fill="#8a5a5a"/><circle cx="258.5" cy="145.1" r="3" fill="#8a5a5a"/><circle cx="263.5" cy="145.1" r="3" fill="#8a5a5a"/><circle cx="268.4" cy="145.1" r="3" fill="#8a5a5a"/><circle cx="273.4" cy="145.1" r="3" fill="#8a5a5a"/><circle cx="278.3" cy="145.1" r="3" fill="#8a5a5a"/><circle cx="283.2" cy="155.7" r="3" fill="#8a5a5a"/><circle cx="288.2" cy="155.7" r="3" fill="#8a5a5a"/><circle cx="293.1" cy="155.7" r="3" fill="#8a5a5a"/><circle cx="298.1" cy="155.7" r="3" fill="#8a5a5a"/><circle cx="303.0" cy="155.7" r="3" fill="#8a5a5a"/><circle cx="308.0" cy="155.7" r="3" fill="#8a5a5a"/><circle cx="312.9" cy="155.7" r="3" fill="#8a5a5a"/><circle cx="317.9" cy="155.7" r="3" fill="#8a5a5a"/><circle cx="322.8" cy="155.7" r="3" fill="#8a5a5a"/><circle cx="327.7" cy="155.7" r="3" fill="#8a5a5a"/><circle cx="332.7" cy="155.7" r="3" fill="#8a5a5a"/><circle cx="337.6" cy="155.7" r="3" fill="#8a5a5a"/><circle cx="342.6" cy="155.7" r="3" fill="#8a5a5a"/><circle cx="347.5" cy="155.7" r="3" fill="#8a5a5a"/><circle cx="352.5" cy="155.7" r="3" fill="#8a5a5a"/><circle cx="357.4" cy="155.7" r="3" fill="#8a5a5a"/><circle cx="362.4" cy="155.7" r="3" fill="#8a5a5a"/><circle cx="367.3" cy="155.7" r="3" fill="#8a5a5a"/><circle cx="372.3" cy="155.7" r="3" fill="#8a5a5a"/><circle cx="377.2" cy="155.7" r="3" fill="#8a5a5a"/><circle cx="382.1" cy="155.7" r="3" fill="#8a5a5a"/><circle cx="387.1" cy="155.7" r="3" fill="#8a5a5a"/><circle cx="392.0" cy="155.7" r="3" fill="#8a5a5a"/><circle cx="397.0" cy="155.7" r="3" fill="#8a5a5a"/><circle cx="401.9" cy="155.7" r="3" fill="#8a5a5a"/><circle cx="406.9" cy="155.7" r="3" fill="#8a5a5a"/><circle cx="411.8" cy="155.7" r="3" fill="#8a5a5a"/><circle cx="416.8" cy="155.7" r="3" fill="#8a5a5a"/><circle cx="421.7" cy="155.7" r="3" fill="#8a5a5a"/><circle cx="426.6" cy="155.7" r="3" fill="#8a5a5a"/><circle cx="431.6" cy="155.7" r="3" fill="#8a5a5a"/><circle cx="436.5" cy="155.7" r="3" fill="#8a5a5a"/><circle cx="441.5" cy="155.7" r="3" fill="#8a5a5a"/><circle cx="446.4" cy="155.7" r="3" fill="#8a5a5a"/><circle cx="451.4" cy="167.6" r="3" fill="#8a5a5a"/><circle cx="456.3" cy="167.6" r="3" fill="#8a5a5a"/><circle cx="461.3" cy="170.3" r="3" fill="#8a5a5a"/><circle cx="466.2" cy="170.3" r="3" fill="#8a5a5a"/><circle cx="471.1" cy="170.5" r="3" fill="#8a5a5a"/><circle cx="476.1" cy="170.7" r="3" fill="#8a5a5a"/><circle cx="481.0" cy="170.7" r="3" fill="#8a5a5a"/><circle cx="486.0" cy="170.9" r="3" fill="#8a5a5a"/><circle cx="490.9" cy="172.7" r="3" fill="#8a5a5a"/><circle cx="495.9" cy="180.6" r="3" fill="#8a5a5a"/><circle cx="500.8" cy="181.8" r="3" fill="#8a5a5a"/><circle cx="505.8" cy="189.1" r="3" fill="#8a5a5a"/><circle cx="510.7" cy="190.5" r="3" fill="#8a5a5a"/><circle cx="515.7" cy="195.2" r="3" fill="#8a5a5a"/><circle cx="520.6" cy="198.0" r="3" fill="#8a5a5a"/><circle cx="525.5" cy="198.0" r="3" fill="#8a5a5a"/><circle cx="530.5" cy="198.0" r="3" fill="#8a5a5a"/><circle cx="535.4" cy="198.0" r="3" fill="#8a5a5a"/><circle cx="540.4" cy="198.0" r="3" fill="#8a5a5a"/><circle cx="545.3" cy="198.0" r="3" fill="#8a5a5a"/><circle cx="550.3" cy="198.0" r="3" fill="#8a5a5a"/><circle cx="555.2" cy="198.0" r="3" fill="#8a5a5a"/><circle cx="560.2" cy="198.0" r="3" fill="#8a5a5a"/><circle cx="565.1" cy="198.0" r="3" fill="#8a5a5a"/><circle cx="570.0" cy="198.0" r="3" fill="#8a5a5a"/><circle cx="575.0" cy="198.0" r="3" fill="#8a5a5a"/><circle cx="579.9" cy="198.0" r="3" fill="#8a5a5a"/><circle cx="584.9" cy="198.0" r="3" fill="#8a5a5a"/><circle cx="589.8" cy="198.0" r="3" fill="#8a5a5a"/><circle cx="594.8" cy="198.0" r="3" fill="#8a5a5a"/><circle cx="599.7" cy="198.0" r="3" fill="#8a5a5a"/><circle cx="604.7" cy="198.0" r="3" fill="#8a5a5a"/><circle cx="609.6" cy="198.0" r="3" fill="#8a5a5a"/><circle cx="614.6" cy="198.0" r="3" fill="#8a5a5a"/><circle cx="619.5" cy="198.0" r="3" fill="#8a5a5a"/><circle cx="624.4" cy="198.0" r="3" fill="#8a5a5a"/><circle cx="629.4" cy="198.0" r="3" fill="#8a5a5a"/><circle cx="634.3" cy="198.0" r="3" fill="#8a5a5a"/><circle cx="639.3" cy="198.0" r="3" fill="#8a5a5a"/><circle cx="644.2" cy="198.0" r="3" fill="#8a5a5a"/><circle cx="649.2" cy="198.0" r="3" fill="#8a5a5a"/><circle cx="654.1" cy="198.0" r="3" fill="#8a5a5a"/><circle cx="659.1" cy="198.0" r="3" fill="#8a5a5a"/><circle cx="664.0" cy="198.0" r="3" fill="#8a5a5a"/>
<polyline fill="none" stroke="#3fb950" stroke-width="2.5" stroke-linejoin="round" points="36.0,198.0 40.9,198.0 45.9,198.0 50.8,198.0 55.8,198.0 60.7,198.0 65.7,198.0 70.6,198.0 75.6,198.0 80.5,198.0 85.4,198.0 90.4,198.0 95.3,198.0 100.3,198.0 105.2,198.0 110.2,198.0 115.1,198.0 120.1,198.0 125.0,198.0 130.0,198.0 134.9,198.0 139.8,198.0 144.8,198.0 149.7,198.0 154.7,198.0 159.6,198.0 164.6,198.0 169.5,198.0 174.5,198.0 179.4,198.0 184.3,198.0 189.3,198.0 194.2,198.0 199.2,198.0 204.1,198.0 209.1,198.0 214.0,198.0 219.0,198.0 223.9,198.0 228.9,198.0 233.8,198.0 238.7,198.0 243.7,198.0 248.6,191.7 253.6,191.7 258.5,191.7 263.5,191.7 268.4,191.7 273.4,191.7 278.3,191.7 283.2,192.9 288.2,192.9 293.1,190.7 298.1,190.7 303.0,190.7 308.0,190.7 312.9,190.7 317.9,190.5 322.8,190.5 327.7,190.5 332.7,190.3 337.6,190.3 342.6,190.3 347.5,190.3 352.5,190.3 357.4,190.3 362.4,190.3 367.3,190.3 372.3,190.3 377.2,190.3 382.1,190.3 387.1,190.3 392.0,190.3 397.0,190.3 401.9,190.3 406.9,190.3 411.8,190.3 416.8,190.3 421.7,190.3 426.6,190.3 431.6,190.3 436.5,189.3 441.5,189.3 446.4,189.3 451.4,190.7 456.3,190.7 461.3,190.7 466.2,190.7 471.1,190.7 476.1,190.7 481.0,190.7 486.0,190.7 490.9,190.7 495.9,190.9 500.8,190.9 505.8,190.9 510.7,194.2 515.7,196.8 520.6,198.0 525.5,198.0 530.5,198.0 535.4,198.0 540.4,198.0 545.3,198.0 550.3,198.0 555.2,198.0 560.2,198.0 565.1,198.0 570.0,198.0 575.0,198.0 579.9,198.0 584.9,198.0 589.8,198.0 594.8,198.0 599.7,198.0 604.7,198.0 609.6,198.0 614.6,198.0 619.5,198.0 624.4,198.0 629.4,198.0 634.3,198.0 639.3,198.0 644.2,198.0 649.2,198.0 654.1,198.0 659.1,198.0 664.0,198.0"/><circle cx="36.0" cy="198.0" r="3" fill="#3fb950"/><circle cx="40.9" cy="198.0" r="3" fill="#3fb950"/><circle cx="45.9" cy="198.0" r="3" fill="#3fb950"/><circle cx="50.8" cy="198.0" r="3" fill="#3fb950"/><circle cx="55.8" cy="198.0" r="3" fill="#3fb950"/><circle cx="60.7" cy="198.0" r="3" fill="#3fb950"/><circle cx="65.7" cy="198.0" r="3" fill="#3fb950"/><circle cx="70.6" cy="198.0" r="3" fill="#3fb950"/><circle cx="75.6" cy="198.0" r="3" fill="#3fb950"/><circle cx="80.5" cy="198.0" r="3" fill="#3fb950"/><circle cx="85.4" cy="198.0" r="3" fill="#3fb950"/><circle cx="90.4" cy="198.0" r="3" fill="#3fb950"/><circle cx="95.3" cy="198.0" r="3" fill="#3fb950"/><circle cx="100.3" cy="198.0" r="3" fill="#3fb950"/><circle cx="105.2" cy="198.0" r="3" fill="#3fb950"/><circle cx="110.2" cy="198.0" r="3" fill="#3fb950"/><circle cx="115.1" cy="198.0" r="3" fill="#3fb950"/><circle cx="120.1" cy="198.0" r="3" fill="#3fb950"/><circle cx="125.0" cy="198.0" r="3" fill="#3fb950"/><circle cx="130.0" cy="198.0" r="3" fill="#3fb950"/><circle cx="134.9" cy="198.0" r="3" fill="#3fb950"/><circle cx="139.8" cy="198.0" r="3" fill="#3fb950"/><circle cx="144.8" cy="198.0" r="3" fill="#3fb950"/><circle cx="149.7" cy="198.0" r="3" fill="#3fb950"/><circle cx="154.7" cy="198.0" r="3" fill="#3fb950"/><circle cx="159.6" cy="198.0" r="3" fill="#3fb950"/><circle cx="164.6" cy="198.0" r="3" fill="#3fb950"/><circle cx="169.5" cy="198.0" r="3" fill="#3fb950"/><circle cx="174.5" cy="198.0" r="3" fill="#3fb950"/><circle cx="179.4" cy="198.0" r="3" fill="#3fb950"/><circle cx="184.3" cy="198.0" r="3" fill="#3fb950"/><circle cx="189.3" cy="198.0" r="3" fill="#3fb950"/><circle cx="194.2" cy="198.0" r="3" fill="#3fb950"/><circle cx="199.2" cy="198.0" r="3" fill="#3fb950"/><circle cx="204.1" cy="198.0" r="3" fill="#3fb950"/><circle cx="209.1" cy="198.0" r="3" fill="#3fb950"/><circle cx="214.0" cy="198.0" r="3" fill="#3fb950"/><circle cx="219.0" cy="198.0" r="3" fill="#3fb950"/><circle cx="223.9" cy="198.0" r="3" fill="#3fb950"/><circle cx="228.9" cy="198.0" r="3" fill="#3fb950"/><circle cx="233.8" cy="198.0" r="3" fill="#3fb950"/><circle cx="238.7" cy="198.0" r="3" fill="#3fb950"/><circle cx="243.7" cy="198.0" r="3" fill="#3fb950"/><circle cx="248.6" cy="191.7" r="3" fill="#3fb950"/><circle cx="253.6" cy="191.7" r="3" fill="#3fb950"/><circle cx="258.5" cy="191.7" r="3" fill="#3fb950"/><circle cx="263.5" cy="191.7" r="3" fill="#3fb950"/><circle cx="268.4" cy="191.7" r="3" fill="#3fb950"/><circle cx="273.4" cy="191.7" r="3" fill="#3fb950"/><circle cx="278.3" cy="191.7" r="3" fill="#3fb950"/><circle cx="283.2" cy="192.9" r="3" fill="#3fb950"/><circle cx="288.2" cy="192.9" r="3" fill="#3fb950"/><circle cx="293.1" cy="190.7" r="3" fill="#3fb950"/><circle cx="298.1" cy="190.7" r="3" fill="#3fb950"/><circle cx="303.0" cy="190.7" r="3" fill="#3fb950"/><circle cx="308.0" cy="190.7" r="3" fill="#3fb950"/><circle cx="312.9" cy="190.7" r="3" fill="#3fb950"/><circle cx="317.9" cy="190.5" r="3" fill="#3fb950"/><circle cx="322.8" cy="190.5" r="3" fill="#3fb950"/><circle cx="327.7" cy="190.5" r="3" fill="#3fb950"/><circle cx="332.7" cy="190.3" r="3" fill="#3fb950"/><circle cx="337.6" cy="190.3" r="3" fill="#3fb950"/><circle cx="342.6" cy="190.3" r="3" fill="#3fb950"/><circle cx="347.5" cy="190.3" r="3" fill="#3fb950"/><circle cx="352.5" cy="190.3" r="3" fill="#3fb950"/><circle cx="357.4" cy="190.3" r="3" fill="#3fb950"/><circle cx="362.4" cy="190.3" r="3" fill="#3fb950"/><circle cx="367.3" cy="190.3" r="3" fill="#3fb950"/><circle cx="372.3" cy="190.3" r="3" fill="#3fb950"/><circle cx="377.2" cy="190.3" r="3" fill="#3fb950"/><circle cx="382.1" cy="190.3" r="3" fill="#3fb950"/><circle cx="387.1" cy="190.3" r="3" fill="#3fb950"/><circle cx="392.0" cy="190.3" r="3" fill="#3fb950"/><circle cx="397.0" cy="190.3" r="3" fill="#3fb950"/><circle cx="401.9" cy="190.3" r="3" fill="#3fb950"/><circle cx="406.9" cy="190.3" r="3" fill="#3fb950"/><circle cx="411.8" cy="190.3" r="3" fill="#3fb950"/><circle cx="416.8" cy="190.3" r="3" fill="#3fb950"/><circle cx="421.7" cy="190.3" r="3" fill="#3fb950"/><circle cx="426.6" cy="190.3" r="3" fill="#3fb950"/><circle cx="431.6" cy="190.3" r="3" fill="#3fb950"/><circle cx="436.5" cy="189.3" r="3" fill="#3fb950"/><circle cx="441.5" cy="189.3" r="3" fill="#3fb950"/><circle cx="446.4" cy="189.3" r="3" fill="#3fb950"/><circle cx="451.4" cy="190.7" r="3" fill="#3fb950"/><circle cx="456.3" cy="190.7" r="3" fill="#3fb950"/><circle cx="461.3" cy="190.7" r="3" fill="#3fb950"/><circle cx="466.2" cy="190.7" r="3" fill="#3fb950"/><circle cx="471.1" cy="190.7" r="3" fill="#3fb950"/><circle cx="476.1" cy="190.7" r="3" fill="#3fb950"/><circle cx="481.0" cy="190.7" r="3" fill="#3fb950"/><circle cx="486.0" cy="190.7" r="3" fill="#3fb950"/><circle cx="490.9" cy="190.7" r="3" fill="#3fb950"/><circle cx="495.9" cy="190.9" r="3" fill="#3fb950"/><circle cx="500.8" cy="190.9" r="3" fill="#3fb950"/><circle cx="505.8" cy="190.9" r="3" fill="#3fb950"/><circle cx="510.7" cy="194.2" r="3" fill="#3fb950"/><circle cx="515.7" cy="196.8" r="3" fill="#3fb950"/><circle cx="520.6" cy="198.0" r="3" fill="#3fb950"/><circle cx="525.5" cy="198.0" r="3" fill="#3fb950"/><circle cx="530.5" cy="198.0" r="3" fill="#3fb950"/><circle cx="535.4" cy="198.0" r="3" fill="#3fb950"/><circle cx="540.4" cy="198.0" r="3" fill="#3fb950"/><circle cx="545.3" cy="198.0" r="3" fill="#3fb950"/><circle cx="550.3" cy="198.0" r="3" fill="#3fb950"/><circle cx="555.2" cy="198.0" r="3" fill="#3fb950"/><circle cx="560.2" cy="198.0" r="3" fill="#3fb950"/><circle cx="565.1" cy="198.0" r="3" fill="#3fb950"/><circle cx="570.0" cy="198.0" r="3" fill="#3fb950"/><circle cx="575.0" cy="198.0" r="3" fill="#3fb950"/><circle cx="579.9" cy="198.0" r="3" fill="#3fb950"/><circle cx="584.9" cy="198.0" r="3" fill="#3fb950"/><circle cx="589.8" cy="198.0" r="3" fill="#3fb950"/><circle cx="594.8" cy="198.0" r="3" fill="#3fb950"/><circle cx="599.7" cy="198.0" r="3" fill="#3fb950"/><circle cx="604.7" cy="198.0" r="3" fill="#3fb950"/><circle cx="609.6" cy="198.0" r="3" fill="#3fb950"/><circle cx="614.6" cy="198.0" r="3" fill="#3fb950"/><circle cx="619.5" cy="198.0" r="3" fill="#3fb950"/><circle cx="624.4" cy="198.0" r="3" fill="#3fb950"/><circle cx="629.4" cy="198.0" r="3" fill="#3fb950"/><circle cx="634.3" cy="198.0" r="3" fill="#3fb950"/><circle cx="639.3" cy="198.0" r="3" fill="#3fb950"/><circle cx="644.2" cy="198.0" r="3" fill="#3fb950"/><circle cx="649.2" cy="198.0" r="3" fill="#3fb950"/><circle cx="654.1" cy="198.0" r="3" fill="#3fb950"/><circle cx="659.1" cy="198.0" r="3" fill="#3fb950"/><circle cx="664.0" cy="198.0" r="3" fill="#3fb950"/>
<polyline fill="none" stroke="#4aa3ff" stroke-width="2.5" stroke-linejoin="round" points="36.0,144.3 40.9,144.3 45.9,144.3 50.8,144.3 55.8,144.3 60.7,144.3 65.7,144.3 70.6,144.3 75.6,144.3 80.5,144.3 85.4,144.3 90.4,144.3 95.3,144.3 100.3,144.3 105.2,144.3 110.2,136.2 115.1,132.4 120.1,129.6 125.0,129.6 130.0,121.0 134.9,121.0 139.8,121.0 144.8,114.4 149.7,114.4 154.7,114.4 159.6,111.3 164.6,110.9 169.5,110.9 174.5,110.5 179.4,110.5 184.3,109.9 189.3,108.7 194.2,107.3 199.2,106.9 204.1,106.9 209.1,106.9 214.0,106.9 219.0,106.9 223.9,106.9 228.9,106.9 233.8,106.9 238.7,106.9 243.7,106.9 248.6,113.2 253.6,113.2 258.5,113.2 263.5,113.2 268.4,113.2 273.4,110.7 278.3,105.3 283.2,83.4 288.2,83.4 293.1,85.6 298.1,85.6 303.0,85.6 308.0,85.6 312.9,85.6 317.9,85.8 322.8,85.8 327.7,85.8 332.7,86.0 337.6,86.0 342.6,86.0 347.5,86.0 352.5,86.0 357.4,86.0 362.4,86.0 367.3,86.0 372.3,86.0 377.2,86.0 382.1,86.0 387.1,86.0 392.0,86.0 397.0,86.0 401.9,86.0 406.9,86.0 411.8,86.0 416.8,86.0 421.7,86.0 426.6,86.0 431.6,86.0 436.5,87.0 441.5,87.0 446.4,87.0 451.4,73.7 456.3,73.7 461.3,71.0 466.2,71.0 471.1,70.8 476.1,70.6 481.0,70.6 486.0,70.4 490.9,68.6 495.9,60.5 500.8,59.3 505.8,52.0 510.7,47.3 515.7,40.1 520.6,36.0 525.5,36.0 530.5,36.0 535.4,36.0 540.4,36.0 545.3,36.0 550.3,36.0 555.2,36.0 560.2,36.0 565.1,36.0 570.0,36.0 575.0,36.0 579.9,36.0 584.9,36.0 589.8,36.0 594.8,36.0 599.7,36.0 604.7,36.0 609.6,36.0 614.6,36.0 619.5,36.0 624.4,36.0 629.4,36.0 634.3,36.0 639.3,36.0 644.2,36.0 649.2,36.0 654.1,36.0 659.1,36.0 664.0,36.0"/><circle cx="36.0" cy="144.3" r="3" fill="#4aa3ff"/><circle cx="40.9" cy="144.3" r="3" fill="#4aa3ff"/><circle cx="45.9" cy="144.3" r="3" fill="#4aa3ff"/><circle cx="50.8" cy="144.3" r="3" fill="#4aa3ff"/><circle cx="55.8" cy="144.3" r="3" fill="#4aa3ff"/><circle cx="60.7" cy="144.3" r="3" fill="#4aa3ff"/><circle cx="65.7" cy="144.3" r="3" fill="#4aa3ff"/><circle cx="70.6" cy="144.3" r="3" fill="#4aa3ff"/><circle cx="75.6" cy="144.3" r="3" fill="#4aa3ff"/><circle cx="80.5" cy="144.3" r="3" fill="#4aa3ff"/><circle cx="85.4" cy="144.3" r="3" fill="#4aa3ff"/><circle cx="90.4" cy="144.3" r="3" fill="#4aa3ff"/><circle cx="95.3" cy="144.3" r="3" fill="#4aa3ff"/><circle cx="100.3" cy="144.3" r="3" fill="#4aa3ff"/><circle cx="105.2" cy="144.3" r="3" fill="#4aa3ff"/><circle cx="110.2" cy="136.2" r="3" fill="#4aa3ff"/><circle cx="115.1" cy="132.4" r="3" fill="#4aa3ff"/><circle cx="120.1" cy="129.6" r="3" fill="#4aa3ff"/><circle cx="125.0" cy="129.6" r="3" fill="#4aa3ff"/><circle cx="130.0" cy="121.0" r="3" fill="#4aa3ff"/><circle cx="134.9" cy="121.0" r="3" fill="#4aa3ff"/><circle cx="139.8" cy="121.0" r="3" fill="#4aa3ff"/><circle cx="144.8" cy="114.4" r="3" fill="#4aa3ff"/><circle cx="149.7" cy="114.4" r="3" fill="#4aa3ff"/><circle cx="154.7" cy="114.4" r="3" fill="#4aa3ff"/><circle cx="159.6" cy="111.3" r="3" fill="#4aa3ff"/><circle cx="164.6" cy="110.9" r="3" fill="#4aa3ff"/><circle cx="169.5" cy="110.9" r="3" fill="#4aa3ff"/><circle cx="174.5" cy="110.5" r="3" fill="#4aa3ff"/><circle cx="179.4" cy="110.5" r="3" fill="#4aa3ff"/><circle cx="184.3" cy="109.9" r="3" fill="#4aa3ff"/><circle cx="189.3" cy="108.7" r="3" fill="#4aa3ff"/><circle cx="194.2" cy="107.3" r="3" fill="#4aa3ff"/><circle cx="199.2" cy="106.9" r="3" fill="#4aa3ff"/><circle cx="204.1" cy="106.9" r="3" fill="#4aa3ff"/><circle cx="209.1" cy="106.9" r="3" fill="#4aa3ff"/><circle cx="214.0" cy="106.9" r="3" fill="#4aa3ff"/><circle cx="219.0" cy="106.9" r="3" fill="#4aa3ff"/><circle cx="223.9" cy="106.9" r="3" fill="#4aa3ff"/><circle cx="228.9" cy="106.9" r="3" fill="#4aa3ff"/><circle cx="233.8" cy="106.9" r="3" fill="#4aa3ff"/><circle cx="238.7" cy="106.9" r="3" fill="#4aa3ff"/><circle cx="243.7" cy="106.9" r="3" fill="#4aa3ff"/><circle cx="248.6" cy="113.2" r="3" fill="#4aa3ff"/><circle cx="253.6" cy="113.2" r="3" fill="#4aa3ff"/><circle cx="258.5" cy="113.2" r="3" fill="#4aa3ff"/><circle cx="263.5" cy="113.2" r="3" fill="#4aa3ff"/><circle cx="268.4" cy="113.2" r="3" fill="#4aa3ff"/><circle cx="273.4" cy="110.7" r="3" fill="#4aa3ff"/><circle cx="278.3" cy="105.3" r="3" fill="#4aa3ff"/><circle cx="283.2" cy="83.4" r="3" fill="#4aa3ff"/><circle cx="288.2" cy="83.4" r="3" fill="#4aa3ff"/><circle cx="293.1" cy="85.6" r="3" fill="#4aa3ff"/><circle cx="298.1" cy="85.6" r="3" fill="#4aa3ff"/><circle cx="303.0" cy="85.6" r="3" fill="#4aa3ff"/><circle cx="308.0" cy="85.6" r="3" fill="#4aa3ff"/><circle cx="312.9" cy="85.6" r="3" fill="#4aa3ff"/><circle cx="317.9" cy="85.8" r="3" fill="#4aa3ff"/><circle cx="322.8" cy="85.8" r="3" fill="#4aa3ff"/><circle cx="327.7" cy="85.8" r="3" fill="#4aa3ff"/><circle cx="332.7" cy="86.0" r="3" fill="#4aa3ff"/><circle cx="337.6" cy="86.0" r="3" fill="#4aa3ff"/><circle cx="342.6" cy="86.0" r="3" fill="#4aa3ff"/><circle cx="347.5" cy="86.0" r="3" fill="#4aa3ff"/><circle cx="352.5" cy="86.0" r="3" fill="#4aa3ff"/><circle cx="357.4" cy="86.0" r="3" fill="#4aa3ff"/><circle cx="362.4" cy="86.0" r="3" fill="#4aa3ff"/><circle cx="367.3" cy="86.0" r="3" fill="#4aa3ff"/><circle cx="372.3" cy="86.0" r="3" fill="#4aa3ff"/><circle cx="377.2" cy="86.0" r="3" fill="#4aa3ff"/><circle cx="382.1" cy="86.0" r="3" fill="#4aa3ff"/><circle cx="387.1" cy="86.0" r="3" fill="#4aa3ff"/><circle cx="392.0" cy="86.0" r="3" fill="#4aa3ff"/><circle cx="397.0" cy="86.0" r="3" fill="#4aa3ff"/><circle cx="401.9" cy="86.0" r="3" fill="#4aa3ff"/><circle cx="406.9" cy="86.0" r="3" fill="#4aa3ff"/><circle cx="411.8" cy="86.0" r="3" fill="#4aa3ff"/><circle cx="416.8" cy="86.0" r="3" fill="#4aa3ff"/><circle cx="421.7" cy="86.0" r="3" fill="#4aa3ff"/><circle cx="426.6" cy="86.0" r="3" fill="#4aa3ff"/><circle cx="431.6" cy="86.0" r="3" fill="#4aa3ff"/><circle cx="436.5" cy="87.0" r="3" fill="#4aa3ff"/><circle cx="441.5" cy="87.0" r="3" fill="#4aa3ff"/><circle cx="446.4" cy="87.0" r="3" fill="#4aa3ff"/><circle cx="451.4" cy="73.7" r="3" fill="#4aa3ff"/><circle cx="456.3" cy="73.7" r="3" fill="#4aa3ff"/><circle cx="461.3" cy="71.0" r="3" fill="#4aa3ff"/><circle cx="466.2" cy="71.0" r="3" fill="#4aa3ff"/><circle cx="471.1" cy="70.8" r="3" fill="#4aa3ff"/><circle cx="476.1" cy="70.6" r="3" fill="#4aa3ff"/><circle cx="481.0" cy="70.6" r="3" fill="#4aa3ff"/><circle cx="486.0" cy="70.4" r="3" fill="#4aa3ff"/><circle cx="490.9" cy="68.6" r="3" fill="#4aa3ff"/><circle cx="495.9" cy="60.5" r="3" fill="#4aa3ff"/><circle cx="500.8" cy="59.3" r="3" fill="#4aa3ff"/><circle cx="505.8" cy="52.0" r="3" fill="#4aa3ff"/><circle cx="510.7" cy="47.3" r="3" fill="#4aa3ff"/><circle cx="515.7" cy="40.1" r="3" fill="#4aa3ff"/><circle cx="520.6" cy="36.0" r="3" fill="#4aa3ff"/><circle cx="525.5" cy="36.0" r="3" fill="#4aa3ff"/><circle cx="530.5" cy="36.0" r="3" fill="#4aa3ff"/><circle cx="535.4" cy="36.0" r="3" fill="#4aa3ff"/><circle cx="540.4" cy="36.0" r="3" fill="#4aa3ff"/><circle cx="545.3" cy="36.0" r="3" fill="#4aa3ff"/><circle cx="550.3" cy="36.0" r="3" fill="#4aa3ff"/><circle cx="555.2" cy="36.0" r="3" fill="#4aa3ff"/><circle cx="560.2" cy="36.0" r="3" fill="#4aa3ff"/><circle cx="565.1" cy="36.0" r="3" fill="#4aa3ff"/><circle cx="570.0" cy="36.0" r="3" fill="#4aa3ff"/><circle cx="575.0" cy="36.0" r="3" fill="#4aa3ff"/><circle cx="579.9" cy="36.0" r="3" fill="#4aa3ff"/><circle cx="584.9" cy="36.0" r="3" fill="#4aa3ff"/><circle cx="589.8" cy="36.0" r="3" fill="#4aa3ff"/><circle cx="594.8" cy="36.0" r="3" fill="#4aa3ff"/><circle cx="599.7" cy="36.0" r="3" fill="#4aa3ff"/><circle cx="604.7" cy="36.0" r="3" fill="#4aa3ff"/><circle cx="609.6" cy="36.0" r="3" fill="#4aa3ff"/><circle cx="614.6" cy="36.0" r="3" fill="#4aa3ff"/><circle cx="619.5" cy="36.0" r="3" fill="#4aa3ff"/><circle cx="624.4" cy="36.0" r="3" fill="#4aa3ff"/><circle cx="629.4" cy="36.0" r="3" fill="#4aa3ff"/><circle cx="634.3" cy="36.0" r="3" fill="#4aa3ff"/><circle cx="639.3" cy="36.0" r="3" fill="#4aa3ff"/><circle cx="644.2" cy="36.0" r="3" fill="#4aa3ff"/><circle cx="649.2" cy="36.0" r="3" fill="#4aa3ff"/><circle cx="654.1" cy="36.0" r="3" fill="#4aa3ff"/><circle cx="659.1" cy="36.0" r="3" fill="#4aa3ff"/><circle cx="664.0" cy="36.0" r="3" fill="#4aa3ff"/>
<text x="36" y="225" fill="#6b7280" font-size="11">2026-06-26</text>
<text x="664" y="225" fill="#6b7280" font-size="11" text-anchor="end">2026-07-10</text>
<text x="36" y="212" font-family="system-ui,sans-serif" font-size="11">
<tspan fill="#4aa3ff">&#9679; open FPs</tspan>  <tspan fill="#3fb950">&#9679; closed (Anthropic acting)</tspan>  <tspan fill="#8a5a5a">&#9679; harness withdrawn</tspan></text>
<text x="664" y="22" text-anchor="end" font-family="system-ui,sans-serif" font-size="12">
<tspan fill="#4aa3ff">open 800</tspan>  <tspan fill="#3fb950">closed 0</tspan>  <tspan fill="#8a5a5a">harness 0</tspan></text>
</svg>