<svg xmlns="http://www.w3.org/2000/svg" width="700" height="234" viewBox="0 0 700 234" role="img">
<rect width="700" height="234" rx="12" fill="#16181d"/>
<text x="36" y="22" fill="#e8eaed" font-family="system-ui,sans-serif" font-size="14" font-weight="700">Is Anthropic acting? ClAudit reports over time</text>
<line x1="36" y1="198.0" x2="664" y2="198.0" stroke="#2a2e37" stroke-width="1"/><text x="30" y="202.0" fill="#6b7280" font-size="11" text-anchor="end">0</text><line x1="36" y1="117.0" x2="664" y2="117.0" stroke="#2a2e37" stroke-width="1"/><text x="30" y="121.0" fill="#6b7280" font-size="11" text-anchor="end">263</text><line x1="36" y1="36.0" x2="664" y2="36.0" stroke="#2a2e37" stroke-width="1"/><text x="30" y="40.0" fill="#6b7280" font-size="11" text-anchor="end">526</text>

<line x1="574.3" y1="36" x2="574.3" y2="198" stroke="#d29922" stroke-width="1.5" stroke-dasharray="4 3"/><text x="579.3" y="48" fill="#d29922" font-family="system-ui,sans-serif" font-size="10">harness withdrawn</text>
<polyline fill="none" stroke="#6b7280" stroke-width="2.5" stroke-linejoin="round" points="36.0,165.4 125.7,129.3 215.4,76.0 305.1,48.0 394.9,37.5 484.6,36.3 574.3,36.0 664.0,36.0"/><circle cx="36.0" cy="165.4" r="3" fill="#6b7280"/><circle cx="125.7" cy="129.3" r="3" fill="#6b7280"/><circle cx="215.4" cy="76.0" r="3" fill="#6b7280"/><circle cx="305.1" cy="48.0" r="3" fill="#6b7280"/><circle cx="394.9" cy="37.5" r="3" fill="#6b7280"/><circle cx="484.6" cy="36.3" r="3" fill="#6b7280"/><circle cx="574.3" cy="36.0" r="3" fill="#6b7280"/><circle cx="664.0" cy="36.0" r="3" fill="#6b7280"/>
<polyline fill="none" stroke="#3fb950" stroke-width="2.5" stroke-linejoin="round" points="36.0,198.0 125.7,198.0 215.4,198.0 305.1,198.0 394.9,198.0 484.6,198.0 574.3,198.0 664.0,177.4"/><circle cx="36.0" cy="198.0" r="3" fill="#3fb950"/><circle cx="125.7" cy="198.0" r="3" fill="#3fb950"/><circle cx="215.4" cy="198.0" r="3" fill="#3fb950"/><circle cx="305.1" cy="198.0" r="3" fill="#3fb950"/><circle cx="394.9" cy="198.0" r="3" fill="#3fb950"/><circle cx="484.6" cy="198.0" r="3" fill="#3fb950"/><circle cx="574.3" cy="198.0" r="3" fill="#3fb950"/><circle cx="664.0" cy="177.4" r="3" fill="#3fb950"/>
<polyline fill="none" stroke="#8a5a5a" stroke-width="2.5" stroke-linejoin="round" points="36.0,165.4 125.7,129.3 215.4,76.0 305.1,48.0 394.9,37.5 484.6,36.3 574.3,36.0"/><circle cx="36.0" cy="165.4" r="3" fill="#8a5a5a"/><circle cx="125.7" cy="129.3" r="3" fill="#8a5a5a"/><circle cx="215.4" cy="76.0" r="3" fill="#8a5a5a"/><circle cx="305.1" cy="48.0" r="3" fill="#8a5a5a"/><circle cx="394.9" cy="37.5" r="3" fill="#8a5a5a"/><circle cx="484.6" cy="36.3" r="3" fill="#8a5a5a"/><circle cx="574.3" cy="36.0" r="3" fill="#8a5a5a"/><polyline fill="none" stroke="#4aa3ff" stroke-width="2.5" stroke-linejoin="round" points="574.3,36.0 664.0,56.6"/><circle cx="574.3" cy="36.0" r="3" fill="#4aa3ff"/><circle cx="664.0" cy="56.6" r="3" fill="#4aa3ff"/>
<text x="36" y="225" fill="#6b7280" font-size="11">2026-06-25</text>
<text x="664" y="225" fill="#6b7280" font-size="11" text-anchor="end">2026-06-26</text>
<text x="36" y="212" font-family="system-ui,sans-serif" font-size="11">
<tspan fill="#4aa3ff">&#9679; open cyber/aup FPs</tspan>  <tspan fill="#8a5a5a">&#9679; (was incl. harness)</tspan>  <tspan fill="#3fb950">&#9679; closed</tspan></text>
<text x="664" y="22" text-anchor="end" font-family="system-ui,sans-serif" font-size="12">
<tspan fill="#6b7280">filed 526</tspan>  <tspan fill="#4aa3ff">open 459</tspan>  <tspan fill="#3fb950">closed 67</tspan></text>
</svg>