<svg xmlns="http://www.w3.org/2000/svg" width="700" height="234" viewBox="0 0 700 234" role="img">
<rect width="700" height="234" rx="12" fill="#16181d"/>
<text x="36" y="22" fill="#e8eaed" font-family="system-ui,sans-serif" font-size="14" font-weight="700">Is Anthropic acting? cyber/aup false positives over time</text>
<line x1="36" y1="198.0" x2="664" y2="198.0" stroke="#2a2e37" stroke-width="1"/><text x="30" y="202.0" fill="#6b7280" font-size="11" text-anchor="end">0</text><line x1="36" y1="117.0" x2="664" y2="117.0" stroke="#2a2e37" stroke-width="1"/><text x="30" y="121.0" fill="#6b7280" font-size="11" text-anchor="end">400</text><line x1="36" y1="36.0" x2="664" y2="36.0" stroke="#2a2e37" stroke-width="1"/><text x="30" y="40.0" fill="#6b7280" font-size="11" text-anchor="end">800</text>

<polyline fill="none" stroke="#8a5a5a" stroke-width="2.5" stroke-linejoin="round" points="36.0,145.1 39.7,145.1 43.5,145.1 47.2,145.1 51.0,145.1 54.7,145.1 58.4,145.1 62.2,145.1 65.9,145.1 69.6,145.1 73.4,145.1 77.1,145.1 80.9,145.1 84.6,145.1 88.3,145.1 92.1,145.1 95.8,145.1 99.5,145.1 103.3,145.1 107.0,145.1 110.8,145.1 114.5,145.1 118.2,145.1 122.0,145.1 125.7,145.1 129.5,145.1 133.2,145.1 136.9,145.1 140.7,145.1 144.4,145.1 148.1,145.1 151.9,145.1 155.6,145.1 159.4,145.1 163.1,145.1 166.8,145.1 170.6,145.1 174.3,145.1 178.0,145.1 181.8,145.1 185.5,145.1 189.3,145.1 193.0,145.1 196.7,145.1 200.5,145.1 204.2,145.1 208.0,145.1 211.7,145.1 215.4,145.1 219.2,145.1 222.9,155.7 226.6,155.7 230.4,155.7 234.1,155.7 237.9,155.7 241.6,155.7 245.3,155.7 249.1,155.7 252.8,155.7 256.5,155.7 260.3,155.7 264.0,155.7 267.8,155.7 271.5,155.7 275.2,155.7 279.0,155.7 282.7,155.7 286.5,155.7 290.2,155.7 293.9,155.7 297.7,155.7 301.4,155.7 305.1,155.7 308.9,155.7 312.6,155.7 316.4,155.7 320.1,155.7 323.8,155.7 327.6,155.7 331.3,155.7 335.0,155.7 338.8,155.7 342.5,155.7 346.3,155.7 350.0,167.6 353.7,167.6 357.5,170.3 361.2,170.3 365.0,170.5 368.7,170.7 372.4,170.7 376.2,170.9 379.9,172.7 383.6,180.6 387.4,181.8 391.1,189.1 394.9,190.5 398.6,195.2 402.3,198.0 406.1,198.0 409.8,198.0 413.5,198.0 417.3,198.0 421.0,198.0 424.8,198.0 428.5,198.0 432.2,198.0 436.0,198.0 439.7,198.0 443.5,198.0 447.2,198.0 450.9,198.0 454.7,198.0 458.4,198.0 462.1,198.0 465.9,198.0 469.6,198.0 473.4,198.0 477.1,198.0 480.8,198.0 484.6,198.0 488.3,198.0 492.0,198.0 495.8,198.0 499.5,198.0 503.3,198.0 507.0,198.0 510.7,198.0 514.5,198.0 518.2,198.0 522.0,198.0 525.7,198.0 529.4,198.0 533.2,198.0 536.9,198.0 540.6,198.0 544.4,198.0 548.1,198.0 551.9,198.0 555.6,198.0 559.3,198.0 563.1,198.0 566.8,198.0 570.5,198.0 574.3,198.0 578.0,198.0 581.8,198.0 585.5,198.0 589.2,198.0 593.0,198.0 596.7,198.0 600.5,198.0 604.2,198.0 607.9,198.0 611.7,198.0 615.4,198.0 619.1,198.0 622.9,198.0 626.6,198.0 630.4,198.0 634.1,198.0 637.8,198.0 641.6,198.0 645.3,198.0 649.0,198.0 652.8,198.0 656.5,198.0 660.3,198.0 664.0,198.0"/><circle cx="36.0" cy="145.1" r="3" fill="#8a5a5a"/><circle cx="39.7" cy="145.1" r="3" fill="#8a5a5a"/><circle cx="43.5" cy="145.1" r="3" fill="#8a5a5a"/><circle cx="47.2" cy="145.1" r="3" fill="#8a5a5a"/><circle cx="51.0" cy="145.1" r="3" fill="#8a5a5a"/><circle cx="54.7" cy="145.1" r="3" fill="#8a5a5a"/><circle cx="58.4" cy="145.1" r="3" fill="#8a5a5a"/><circle cx="62.2" cy="145.1" r="3" fill="#8a5a5a"/><circle cx="65.9" cy="145.1" r="3" fill="#8a5a5a"/><circle cx="69.6" cy="145.1" r="3" fill="#8a5a5a"/><circle cx="73.4" cy="145.1" r="3" fill="#8a5a5a"/><circle cx="77.1" cy="145.1" r="3" fill="#8a5a5a"/><circle cx="80.9" cy="145.1" r="3" fill="#8a5a5a"/><circle cx="84.6" cy="145.1" r="3" fill="#8a5a5a"/><circle cx="88.3" cy="145.1" r="3" fill="#8a5a5a"/><circle cx="92.1" cy="145.1" r="3" fill="#8a5a5a"/><circle cx="95.8" cy="145.1" r="3" fill="#8a5a5a"/><circle cx="99.5" cy="145.1" r="3" fill="#8a5a5a"/><circle cx="103.3" cy="145.1" r="3" fill="#8a5a5a"/><circle cx="107.0" cy="145.1" r="3" fill="#8a5a5a"/><circle cx="110.8" cy="145.1" r="3" fill="#8a5a5a"/><circle cx="114.5" cy="145.1" r="3" fill="#8a5a5a"/><circle cx="118.2" cy="145.1" r="3" fill="#8a5a5a"/><circle cx="122.0" cy="145.1" r="3" fill="#8a5a5a"/><circle cx="125.7" cy="145.1" r="3" fill="#8a5a5a"/><circle cx="129.5" cy="145.1" r="3" fill="#8a5a5a"/><circle cx="133.2" cy="145.1" r="3" fill="#8a5a5a"/><circle cx="136.9" cy="145.1" r="3" fill="#8a5a5a"/><circle cx="140.7" cy="145.1" r="3" fill="#8a5a5a"/><circle cx="144.4" cy="145.1" r="3" fill="#8a5a5a"/><circle cx="148.1" cy="145.1" r="3" fill="#8a5a5a"/><circle cx="151.9" cy="145.1" r="3" fill="#8a5a5a"/><circle cx="155.6" cy="145.1" r="3" fill="#8a5a5a"/><circle cx="159.4" cy="145.1" r="3" fill="#8a5a5a"/><circle cx="163.1" cy="145.1" r="3" fill="#8a5a5a"/><circle cx="166.8" cy="145.1" r="3" fill="#8a5a5a"/><circle cx="170.6" cy="145.1" r="3" fill="#8a5a5a"/><circle cx="174.3" cy="145.1" r="3" fill="#8a5a5a"/><circle cx="178.0" cy="145.1" r="3" fill="#8a5a5a"/><circle cx="181.8" cy="145.1" r="3" fill="#8a5a5a"/><circle cx="185.5" cy="145.1" r="3" fill="#8a5a5a"/><circle cx="189.3" cy="145.1" r="3" fill="#8a5a5a"/><circle cx="193.0" cy="145.1" r="3" fill="#8a5a5a"/><circle cx="196.7" cy="145.1" r="3" fill="#8a5a5a"/><circle cx="200.5" cy="145.1" r="3" fill="#8a5a5a"/><circle cx="204.2" cy="145.1" r="3" fill="#8a5a5a"/><circle cx="208.0" cy="145.1" r="3" fill="#8a5a5a"/><circle cx="211.7" cy="145.1" r="3" fill="#8a5a5a"/><circle cx="215.4" cy="145.1" r="3" fill="#8a5a5a"/><circle cx="219.2" cy="145.1" r="3" fill="#8a5a5a"/><circle cx="222.9" cy="155.7" r="3" fill="#8a5a5a"/><circle cx="226.6" cy="155.7" r="3" fill="#8a5a5a"/><circle cx="230.4" cy="155.7" r="3" fill="#8a5a5a"/><circle cx="234.1" cy="155.7" r="3" fill="#8a5a5a"/><circle cx="237.9" cy="155.7" r="3" fill="#8a5a5a"/><circle cx="241.6" cy="155.7" r="3" fill="#8a5a5a"/><circle cx="245.3" cy="155.7" r="3" fill="#8a5a5a"/><circle cx="249.1" cy="155.7" r="3" fill="#8a5a5a"/><circle cx="252.8" cy="155.7" r="3" fill="#8a5a5a"/><circle cx="256.5" cy="155.7" r="3" fill="#8a5a5a"/><circle cx="260.3" cy="155.7" r="3" fill="#8a5a5a"/><circle cx="264.0" cy="155.7" r="3" fill="#8a5a5a"/><circle cx="267.8" cy="155.7" r="3" fill="#8a5a5a"/><circle cx="271.5" cy="155.7" r="3" fill="#8a5a5a"/><circle cx="275.2" cy="155.7" r="3" fill="#8a5a5a"/><circle cx="279.0" cy="155.7" r="3" fill="#8a5a5a"/><circle cx="282.7" cy="155.7" r="3" fill="#8a5a5a"/><circle cx="286.5" cy="155.7" r="3" fill="#8a5a5a"/><circle cx="290.2" cy="155.7" r="3" fill="#8a5a5a"/><circle cx="293.9" cy="155.7" r="3" fill="#8a5a5a"/><circle cx="297.7" cy="155.7" r="3" fill="#8a5a5a"/><circle cx="301.4" cy="155.7" r="3" fill="#8a5a5a"/><circle cx="305.1" cy="155.7" r="3" fill="#8a5a5a"/><circle cx="308.9" cy="155.7" r="3" fill="#8a5a5a"/><circle cx="312.6" cy="155.7" r="3" fill="#8a5a5a"/><circle cx="316.4" cy="155.7" r="3" fill="#8a5a5a"/><circle cx="320.1" cy="155.7" r="3" fill="#8a5a5a"/><circle cx="323.8" cy="155.7" r="3" fill="#8a5a5a"/><circle cx="327.6" cy="155.7" r="3" fill="#8a5a5a"/><circle cx="331.3" cy="155.7" r="3" fill="#8a5a5a"/><circle cx="335.0" cy="155.7" r="3" fill="#8a5a5a"/><circle cx="338.8" cy="155.7" r="3" fill="#8a5a5a"/><circle cx="342.5" cy="155.7" r="3" fill="#8a5a5a"/><circle cx="346.3" cy="155.7" r="3" fill="#8a5a5a"/><circle cx="350.0" cy="167.6" r="3" fill="#8a5a5a"/><circle cx="353.7" cy="167.6" r="3" fill="#8a5a5a"/><circle cx="357.5" cy="170.3" r="3" fill="#8a5a5a"/><circle cx="361.2" cy="170.3" r="3" fill="#8a5a5a"/><circle cx="365.0" cy="170.5" r="3" fill="#8a5a5a"/><circle cx="368.7" cy="170.7" r="3" fill="#8a5a5a"/><circle cx="372.4" cy="170.7" r="3" fill="#8a5a5a"/><circle cx="376.2" cy="170.9" r="3" fill="#8a5a5a"/><circle cx="379.9" cy="172.7" r="3" fill="#8a5a5a"/><circle cx="383.6" cy="180.6" r="3" fill="#8a5a5a"/><circle cx="387.4" cy="181.8" r="3" fill="#8a5a5a"/><circle cx="391.1" cy="189.1" r="3" fill="#8a5a5a"/><circle cx="394.9" cy="190.5" r="3" fill="#8a5a5a"/><circle cx="398.6" cy="195.2" r="3" fill="#8a5a5a"/><circle cx="402.3" cy="198.0" r="3" fill="#8a5a5a"/><circle cx="406.1" cy="198.0" r="3" fill="#8a5a5a"/><circle cx="409.8" cy="198.0" r="3" fill="#8a5a5a"/><circle cx="413.5" cy="198.0" r="3" fill="#8a5a5a"/><circle cx="417.3" cy="198.0" r="3" fill="#8a5a5a"/><circle cx="421.0" cy="198.0" r="3" fill="#8a5a5a"/><circle cx="424.8" cy="198.0" r="3" fill="#8a5a5a"/><circle cx="428.5" cy="198.0" r="3" fill="#8a5a5a"/><circle cx="432.2" cy="198.0" r="3" fill="#8a5a5a"/><circle cx="436.0" cy="198.0" r="3" fill="#8a5a5a"/><circle cx="439.7" cy="198.0" r="3" fill="#8a5a5a"/><circle cx="443.5" cy="198.0" r="3" fill="#8a5a5a"/><circle cx="447.2" cy="198.0" r="3" fill="#8a5a5a"/><circle cx="450.9" cy="198.0" r="3" fill="#8a5a5a"/><circle cx="454.7" cy="198.0" r="3" fill="#8a5a5a"/><circle cx="458.4" cy="198.0" r="3" fill="#8a5a5a"/><circle cx="462.1" cy="198.0" r="3" fill="#8a5a5a"/><circle cx="465.9" cy="198.0" r="3" fill="#8a5a5a"/><circle cx="469.6" cy="198.0" r="3" fill="#8a5a5a"/><circle cx="473.4" cy="198.0" r="3" fill="#8a5a5a"/><circle cx="477.1" cy="198.0" r="3" fill="#8a5a5a"/><circle cx="480.8" cy="198.0" r="3" fill="#8a5a5a"/><circle cx="484.6" cy="198.0" r="3" fill="#8a5a5a"/><circle cx="488.3" cy="198.0" r="3" fill="#8a5a5a"/><circle cx="492.0" cy="198.0" r="3" fill="#8a5a5a"/><circle cx="495.8" cy="198.0" r="3" fill="#8a5a5a"/><circle cx="499.5" cy="198.0" r="3" fill="#8a5a5a"/><circle cx="503.3" cy="198.0" r="3" fill="#8a5a5a"/><circle cx="507.0" cy="198.0" r="3" fill="#8a5a5a"/><circle cx="510.7" cy="198.0" r="3" fill="#8a5a5a"/><circle cx="514.5" cy="198.0" r="3" fill="#8a5a5a"/><circle cx="518.2" cy="198.0" r="3" fill="#8a5a5a"/><circle cx="522.0" cy="198.0" r="3" fill="#8a5a5a"/><circle cx="525.7" cy="198.0" r="3" fill="#8a5a5a"/><circle cx="529.4" cy="198.0" r="3" fill="#8a5a5a"/><circle cx="533.2" cy="198.0" r="3" fill="#8a5a5a"/><circle cx="536.9" cy="198.0" r="3" fill="#8a5a5a"/><circle cx="540.6" cy="198.0" r="3" fill="#8a5a5a"/><circle cx="544.4" cy="198.0" r="3" fill="#8a5a5a"/><circle cx="548.1" cy="198.0" r="3" fill="#8a5a5a"/><circle cx="551.9" cy="198.0" r="3" fill="#8a5a5a"/><circle cx="555.6" cy="198.0" r="3" fill="#8a5a5a"/><circle cx="559.3" cy="198.0" r="3" fill="#8a5a5a"/><circle cx="563.1" cy="198.0" r="3" fill="#8a5a5a"/><circle cx="566.8" cy="198.0" r="3" fill="#8a5a5a"/><circle cx="570.5" cy="198.0" r="3" fill="#8a5a5a"/><circle cx="574.3" cy="198.0" r="3" fill="#8a5a5a"/><circle cx="578.0" cy="198.0" r="3" fill="#8a5a5a"/><circle cx="581.8" cy="198.0" r="3" fill="#8a5a5a"/><circle cx="585.5" cy="198.0" r="3" fill="#8a5a5a"/><circle cx="589.2" cy="198.0" r="3" fill="#8a5a5a"/><circle cx="593.0" cy="198.0" r="3" fill="#8a5a5a"/><circle cx="596.7" cy="198.0" r="3" fill="#8a5a5a"/><circle cx="600.5" cy="198.0" r="3" fill="#8a5a5a"/><circle cx="604.2" cy="198.0" r="3" fill="#8a5a5a"/><circle cx="607.9" cy="198.0" r="3" fill="#8a5a5a"/><circle cx="611.7" cy="198.0" r="3" fill="#8a5a5a"/><circle cx="615.4" cy="198.0" r="3" fill="#8a5a5a"/><circle cx="619.1" cy="198.0" r="3" fill="#8a5a5a"/><circle cx="622.9" cy="198.0" r="3" fill="#8a5a5a"/><circle cx="626.6" cy="198.0" r="3" fill="#8a5a5a"/><circle cx="630.4" cy="198.0" r="3" fill="#8a5a5a"/><circle cx="634.1" cy="198.0" r="3" fill="#8a5a5a"/><circle cx="637.8" cy="198.0" r="3" fill="#8a5a5a"/><circle cx="641.6" cy="198.0" r="3" fill="#8a5a5a"/><circle cx="645.3" cy="198.0" r="3" fill="#8a5a5a"/><circle cx="649.0" cy="198.0" r="3" fill="#8a5a5a"/><circle cx="652.8" cy="198.0" r="3" fill="#8a5a5a"/><circle cx="656.5" cy="198.0" r="3" fill="#8a5a5a"/><circle cx="660.3" cy="198.0" r="3" fill="#8a5a5a"/><circle cx="664.0" cy="198.0" r="3" fill="#8a5a5a"/>
<polyline fill="none" stroke="#3fb950" stroke-width="2.5" stroke-linejoin="round" points="36.0,198.0 39.7,198.0 43.5,198.0 47.2,198.0 51.0,198.0 54.7,198.0 58.4,198.0 62.2,198.0 65.9,198.0 69.6,198.0 73.4,198.0 77.1,198.0 80.9,198.0 84.6,198.0 88.3,198.0 92.1,198.0 95.8,198.0 99.5,198.0 103.3,198.0 107.0,198.0 110.8,198.0 114.5,198.0 118.2,198.0 122.0,198.0 125.7,198.0 129.5,198.0 133.2,198.0 136.9,198.0 140.7,198.0 144.4,198.0 148.1,198.0 151.9,198.0 155.6,198.0 159.4,198.0 163.1,198.0 166.8,198.0 170.6,198.0 174.3,198.0 178.0,198.0 181.8,198.0 185.5,198.0 189.3,198.0 193.0,198.0 196.7,191.7 200.5,191.7 204.2,191.7 208.0,191.7 211.7,191.7 215.4,191.7 219.2,191.7 222.9,192.9 226.6,192.9 230.4,190.7 234.1,190.7 237.9,190.7 241.6,190.7 245.3,190.7 249.1,190.5 252.8,190.5 256.5,190.5 260.3,190.3 264.0,190.3 267.8,190.3 271.5,190.3 275.2,190.3 279.0,190.3 282.7,190.3 286.5,190.3 290.2,190.3 293.9,190.3 297.7,190.3 301.4,190.3 305.1,190.3 308.9,190.3 312.6,190.3 316.4,190.3 320.1,190.3 323.8,190.3 327.6,190.3 331.3,190.3 335.0,190.3 338.8,189.3 342.5,189.3 346.3,189.3 350.0,190.7 353.7,190.7 357.5,190.7 361.2,190.7 365.0,190.7 368.7,190.7 372.4,190.7 376.2,190.7 379.9,190.7 383.6,190.9 387.4,190.9 391.1,190.9 394.9,194.2 398.6,196.8 402.3,198.0 406.1,198.0 409.8,198.0 413.5,198.0 417.3,198.0 421.0,198.0 424.8,198.0 428.5,198.0 432.2,198.0 436.0,198.0 439.7,198.0 443.5,198.0 447.2,198.0 450.9,198.0 454.7,198.0 458.4,198.0 462.1,198.0 465.9,198.0 469.6,198.0 473.4,198.0 477.1,198.0 480.8,198.0 484.6,198.0 488.3,198.0 492.0,198.0 495.8,198.0 499.5,198.0 503.3,198.0 507.0,198.0 510.7,198.0 514.5,198.0 518.2,198.0 522.0,198.0 525.7,198.0 529.4,198.0 533.2,198.0 536.9,198.0 540.6,198.0 544.4,198.0 548.1,198.0 551.9,198.0 555.6,198.0 559.3,198.0 563.1,198.0 566.8,198.0 570.5,198.0 574.3,198.0 578.0,198.0 581.8,198.0 585.5,198.0 589.2,198.0 593.0,198.0 596.7,198.0 600.5,198.0 604.2,198.0 607.9,198.0 611.7,198.0 615.4,198.0 619.1,198.0 622.9,198.0 626.6,198.0 630.4,198.0 634.1,198.0 637.8,198.0 641.6,198.0 645.3,198.0 649.0,198.0 652.8,198.0 656.5,198.0 660.3,198.0 664.0,198.0"/><circle cx="36.0" cy="198.0" r="3" fill="#3fb950"/><circle cx="39.7" cy="198.0" r="3" fill="#3fb950"/><circle cx="43.5" cy="198.0" r="3" fill="#3fb950"/><circle cx="47.2" cy="198.0" r="3" fill="#3fb950"/><circle cx="51.0" cy="198.0" r="3" fill="#3fb950"/><circle cx="54.7" cy="198.0" r="3" fill="#3fb950"/><circle cx="58.4" cy="198.0" r="3" fill="#3fb950"/><circle cx="62.2" cy="198.0" r="3" fill="#3fb950"/><circle cx="65.9" cy="198.0" r="3" fill="#3fb950"/><circle cx="69.6" cy="198.0" r="3" fill="#3fb950"/><circle cx="73.4" cy="198.0" r="3" fill="#3fb950"/><circle cx="77.1" cy="198.0" r="3" fill="#3fb950"/><circle cx="80.9" cy="198.0" r="3" fill="#3fb950"/><circle cx="84.6" cy="198.0" r="3" fill="#3fb950"/><circle cx="88.3" cy="198.0" r="3" fill="#3fb950"/><circle cx="92.1" cy="198.0" r="3" fill="#3fb950"/><circle cx="95.8" cy="198.0" r="3" fill="#3fb950"/><circle cx="99.5" cy="198.0" r="3" fill="#3fb950"/><circle cx="103.3" cy="198.0" r="3" fill="#3fb950"/><circle cx="107.0" cy="198.0" r="3" fill="#3fb950"/><circle cx="110.8" cy="198.0" r="3" fill="#3fb950"/><circle cx="114.5" cy="198.0" r="3" fill="#3fb950"/><circle cx="118.2" cy="198.0" r="3" fill="#3fb950"/><circle cx="122.0" cy="198.0" r="3" fill="#3fb950"/><circle cx="125.7" cy="198.0" r="3" fill="#3fb950"/><circle cx="129.5" cy="198.0" r="3" fill="#3fb950"/><circle cx="133.2" cy="198.0" r="3" fill="#3fb950"/><circle cx="136.9" cy="198.0" r="3" fill="#3fb950"/><circle cx="140.7" cy="198.0" r="3" fill="#3fb950"/><circle cx="144.4" cy="198.0" r="3" fill="#3fb950"/><circle cx="148.1" cy="198.0" r="3" fill="#3fb950"/><circle cx="151.9" cy="198.0" r="3" fill="#3fb950"/><circle cx="155.6" cy="198.0" r="3" fill="#3fb950"/><circle cx="159.4" cy="198.0" r="3" fill="#3fb950"/><circle cx="163.1" cy="198.0" r="3" fill="#3fb950"/><circle cx="166.8" cy="198.0" r="3" fill="#3fb950"/><circle cx="170.6" cy="198.0" r="3" fill="#3fb950"/><circle cx="174.3" cy="198.0" r="3" fill="#3fb950"/><circle cx="178.0" cy="198.0" r="3" fill="#3fb950"/><circle cx="181.8" cy="198.0" r="3" fill="#3fb950"/><circle cx="185.5" cy="198.0" r="3" fill="#3fb950"/><circle cx="189.3" cy="198.0" r="3" fill="#3fb950"/><circle cx="193.0" cy="198.0" r="3" fill="#3fb950"/><circle cx="196.7" cy="191.7" r="3" fill="#3fb950"/><circle cx="200.5" cy="191.7" r="3" fill="#3fb950"/><circle cx="204.2" cy="191.7" r="3" fill="#3fb950"/><circle cx="208.0" cy="191.7" r="3" fill="#3fb950"/><circle cx="211.7" cy="191.7" r="3" fill="#3fb950"/><circle cx="215.4" cy="191.7" r="3" fill="#3fb950"/><circle cx="219.2" cy="191.7" r="3" fill="#3fb950"/><circle cx="222.9" cy="192.9" r="3" fill="#3fb950"/><circle cx="226.6" cy="192.9" r="3" fill="#3fb950"/><circle cx="230.4" cy="190.7" r="3" fill="#3fb950"/><circle cx="234.1" cy="190.7" r="3" fill="#3fb950"/><circle cx="237.9" cy="190.7" r="3" fill="#3fb950"/><circle cx="241.6" cy="190.7" r="3" fill="#3fb950"/><circle cx="245.3" cy="190.7" r="3" fill="#3fb950"/><circle cx="249.1" cy="190.5" r="3" fill="#3fb950"/><circle cx="252.8" cy="190.5" r="3" fill="#3fb950"/><circle cx="256.5" cy="190.5" r="3" fill="#3fb950"/><circle cx="260.3" cy="190.3" r="3" fill="#3fb950"/><circle cx="264.0" cy="190.3" r="3" fill="#3fb950"/><circle cx="267.8" cy="190.3" r="3" fill="#3fb950"/><circle cx="271.5" cy="190.3" r="3" fill="#3fb950"/><circle cx="275.2" cy="190.3" r="3" fill="#3fb950"/><circle cx="279.0" cy="190.3" r="3" fill="#3fb950"/><circle cx="282.7" cy="190.3" r="3" fill="#3fb950"/><circle cx="286.5" cy="190.3" r="3" fill="#3fb950"/><circle cx="290.2" cy="190.3" r="3" fill="#3fb950"/><circle cx="293.9" cy="190.3" r="3" fill="#3fb950"/><circle cx="297.7" cy="190.3" r="3" fill="#3fb950"/><circle cx="301.4" cy="190.3" r="3" fill="#3fb950"/><circle cx="305.1" cy="190.3" r="3" fill="#3fb950"/><circle cx="308.9" cy="190.3" r="3" fill="#3fb950"/><circle cx="312.6" cy="190.3" r="3" fill="#3fb950"/><circle cx="316.4" cy="190.3" r="3" fill="#3fb950"/><circle cx="320.1" cy="190.3" r="3" fill="#3fb950"/><circle cx="323.8" cy="190.3" r="3" fill="#3fb950"/><circle cx="327.6" cy="190.3" r="3" fill="#3fb950"/><circle cx="331.3" cy="190.3" r="3" fill="#3fb950"/><circle cx="335.0" cy="190.3" r="3" fill="#3fb950"/><circle cx="338.8" cy="189.3" r="3" fill="#3fb950"/><circle cx="342.5" cy="189.3" r="3" fill="#3fb950"/><circle cx="346.3" cy="189.3" r="3" fill="#3fb950"/><circle cx="350.0" cy="190.7" r="3" fill="#3fb950"/><circle cx="353.7" cy="190.7" r="3" fill="#3fb950"/><circle cx="357.5" cy="190.7" r="3" fill="#3fb950"/><circle cx="361.2" cy="190.7" r="3" fill="#3fb950"/><circle cx="365.0" cy="190.7" r="3" fill="#3fb950"/><circle cx="368.7" cy="190.7" r="3" fill="#3fb950"/><circle cx="372.4" cy="190.7" r="3" fill="#3fb950"/><circle cx="376.2" cy="190.7" r="3" fill="#3fb950"/><circle cx="379.9" cy="190.7" r="3" fill="#3fb950"/><circle cx="383.6" cy="190.9" r="3" fill="#3fb950"/><circle cx="387.4" cy="190.9" r="3" fill="#3fb950"/><circle cx="391.1" cy="190.9" r="3" fill="#3fb950"/><circle cx="394.9" cy="194.2" r="3" fill="#3fb950"/><circle cx="398.6" cy="196.8" r="3" fill="#3fb950"/><circle cx="402.3" cy="198.0" r="3" fill="#3fb950"/><circle cx="406.1" cy="198.0" r="3" fill="#3fb950"/><circle cx="409.8" cy="198.0" r="3" fill="#3fb950"/><circle cx="413.5" cy="198.0" r="3" fill="#3fb950"/><circle cx="417.3" cy="198.0" r="3" fill="#3fb950"/><circle cx="421.0" cy="198.0" r="3" fill="#3fb950"/><circle cx="424.8" cy="198.0" r="3" fill="#3fb950"/><circle cx="428.5" cy="198.0" r="3" fill="#3fb950"/><circle cx="432.2" cy="198.0" r="3" fill="#3fb950"/><circle cx="436.0" cy="198.0" r="3" fill="#3fb950"/><circle cx="439.7" cy="198.0" r="3" fill="#3fb950"/><circle cx="443.5" cy="198.0" r="3" fill="#3fb950"/><circle cx="447.2" cy="198.0" r="3" fill="#3fb950"/><circle cx="450.9" cy="198.0" r="3" fill="#3fb950"/><circle cx="454.7" cy="198.0" r="3" fill="#3fb950"/><circle cx="458.4" cy="198.0" r="3" fill="#3fb950"/><circle cx="462.1" cy="198.0" r="3" fill="#3fb950"/><circle cx="465.9" cy="198.0" r="3" fill="#3fb950"/><circle cx="469.6" cy="198.0" r="3" fill="#3fb950"/><circle cx="473.4" cy="198.0" r="3" fill="#3fb950"/><circle cx="477.1" cy="198.0" r="3" fill="#3fb950"/><circle cx="480.8" cy="198.0" r="3" fill="#3fb950"/><circle cx="484.6" cy="198.0" r="3" fill="#3fb950"/><circle cx="488.3" cy="198.0" r="3" fill="#3fb950"/><circle cx="492.0" cy="198.0" r="3" fill="#3fb950"/><circle cx="495.8" cy="198.0" r="3" fill="#3fb950"/><circle cx="499.5" cy="198.0" r="3" fill="#3fb950"/><circle cx="503.3" cy="198.0" r="3" fill="#3fb950"/><circle cx="507.0" cy="198.0" r="3" fill="#3fb950"/><circle cx="510.7" cy="198.0" r="3" fill="#3fb950"/><circle cx="514.5" cy="198.0" r="3" fill="#3fb950"/><circle cx="518.2" cy="198.0" r="3" fill="#3fb950"/><circle cx="522.0" cy="198.0" r="3" fill="#3fb950"/><circle cx="525.7" cy="198.0" r="3" fill="#3fb950"/><circle cx="529.4" cy="198.0" r="3" fill="#3fb950"/><circle cx="533.2" cy="198.0" r="3" fill="#3fb950"/><circle cx="536.9" cy="198.0" r="3" fill="#3fb950"/><circle cx="540.6" cy="198.0" r="3" fill="#3fb950"/><circle cx="544.4" cy="198.0" r="3" fill="#3fb950"/><circle cx="548.1" cy="198.0" r="3" fill="#3fb950"/><circle cx="551.9" cy="198.0" r="3" fill="#3fb950"/><circle cx="555.6" cy="198.0" r="3" fill="#3fb950"/><circle cx="559.3" cy="198.0" r="3" fill="#3fb950"/><circle cx="563.1" cy="198.0" r="3" fill="#3fb950"/><circle cx="566.8" cy="198.0" r="3" fill="#3fb950"/><circle cx="570.5" cy="198.0" r="3" fill="#3fb950"/><circle cx="574.3" cy="198.0" r="3" fill="#3fb950"/><circle cx="578.0" cy="198.0" r="3" fill="#3fb950"/><circle cx="581.8" cy="198.0" r="3" fill="#3fb950"/><circle cx="585.5" cy="198.0" r="3" fill="#3fb950"/><circle cx="589.2" cy="198.0" r="3" fill="#3fb950"/><circle cx="593.0" cy="198.0" r="3" fill="#3fb950"/><circle cx="596.7" cy="198.0" r="3" fill="#3fb950"/><circle cx="600.5" cy="198.0" r="3" fill="#3fb950"/><circle cx="604.2" cy="198.0" r="3" fill="#3fb950"/><circle cx="607.9" cy="198.0" r="3" fill="#3fb950"/><circle cx="611.7" cy="198.0" r="3" fill="#3fb950"/><circle cx="615.4" cy="198.0" r="3" fill="#3fb950"/><circle cx="619.1" cy="198.0" r="3" fill="#3fb950"/><circle cx="622.9" cy="198.0" r="3" fill="#3fb950"/><circle cx="626.6" cy="198.0" r="3" fill="#3fb950"/><circle cx="630.4" cy="198.0" r="3" fill="#3fb950"/><circle cx="634.1" cy="198.0" r="3" fill="#3fb950"/><circle cx="637.8" cy="198.0" r="3" fill="#3fb950"/><circle cx="641.6" cy="198.0" r="3" fill="#3fb950"/><circle cx="645.3" cy="198.0" r="3" fill="#3fb950"/><circle cx="649.0" cy="198.0" r="3" fill="#3fb950"/><circle cx="652.8" cy="198.0" r="3" fill="#3fb950"/><circle cx="656.5" cy="198.0" r="3" fill="#3fb950"/><circle cx="660.3" cy="198.0" r="3" fill="#3fb950"/><circle cx="664.0" cy="198.0" r="3" fill="#3fb950"/>
<polyline fill="none" stroke="#4aa3ff" stroke-width="2.5" stroke-linejoin="round" points="36.0,144.3 39.7,144.3 43.5,144.3 47.2,144.3 51.0,144.3 54.7,144.3 58.4,144.3 62.2,144.3 65.9,144.3 69.6,144.3 73.4,144.3 77.1,144.3 80.9,144.3 84.6,144.3 88.3,144.3 92.1,136.2 95.8,132.4 99.5,129.6 103.3,129.6 107.0,121.0 110.8,121.0 114.5,121.0 118.2,114.4 122.0,114.4 125.7,114.4 129.5,111.3 133.2,110.9 136.9,110.9 140.7,110.5 144.4,110.5 148.1,109.9 151.9,108.7 155.6,107.3 159.4,106.9 163.1,106.9 166.8,106.9 170.6,106.9 174.3,106.9 178.0,106.9 181.8,106.9 185.5,106.9 189.3,106.9 193.0,106.9 196.7,113.2 200.5,113.2 204.2,113.2 208.0,113.2 211.7,113.2 215.4,110.7 219.2,105.3 222.9,83.4 226.6,83.4 230.4,85.6 234.1,85.6 237.9,85.6 241.6,85.6 245.3,85.6 249.1,85.8 252.8,85.8 256.5,85.8 260.3,86.0 264.0,86.0 267.8,86.0 271.5,86.0 275.2,86.0 279.0,86.0 282.7,86.0 286.5,86.0 290.2,86.0 293.9,86.0 297.7,86.0 301.4,86.0 305.1,86.0 308.9,86.0 312.6,86.0 316.4,86.0 320.1,86.0 323.8,86.0 327.6,86.0 331.3,86.0 335.0,86.0 338.8,87.0 342.5,87.0 346.3,87.0 350.0,73.7 353.7,73.7 357.5,71.0 361.2,71.0 365.0,70.8 368.7,70.6 372.4,70.6 376.2,70.4 379.9,68.6 383.6,60.5 387.4,59.3 391.1,52.0 394.9,47.3 398.6,40.1 402.3,36.0 406.1,36.0 409.8,36.0 413.5,36.0 417.3,36.0 421.0,36.0 424.8,36.0 428.5,36.0 432.2,36.0 436.0,36.0 439.7,36.0 443.5,36.0 447.2,36.0 450.9,36.0 454.7,36.0 458.4,36.0 462.1,36.0 465.9,36.0 469.6,36.0 473.4,36.0 477.1,36.0 480.8,36.0 484.6,36.0 488.3,36.0 492.0,36.0 495.8,36.0 499.5,36.0 503.3,36.0 507.0,36.0 510.7,36.0 514.5,36.0 518.2,36.0 522.0,36.0 525.7,36.0 529.4,36.0 533.2,36.0 536.9,36.0 540.6,36.0 544.4,36.0 548.1,36.0 551.9,36.0 555.6,36.0 559.3,36.0 563.1,36.0 566.8,36.0 570.5,36.0 574.3,36.0 578.0,36.0 581.8,36.0 585.5,36.0 589.2,36.0 593.0,36.0 596.7,36.0 600.5,36.0 604.2,36.0 607.9,36.0 611.7,36.0 615.4,36.0 619.1,36.0 622.9,36.0 626.6,36.0 630.4,36.0 634.1,36.0 637.8,36.0 641.6,36.0 645.3,36.0 649.0,36.0 652.8,36.0 656.5,36.0 660.3,36.0 664.0,36.0"/><circle cx="36.0" cy="144.3" r="3" fill="#4aa3ff"/><circle cx="39.7" cy="144.3" r="3" fill="#4aa3ff"/><circle cx="43.5" cy="144.3" r="3" fill="#4aa3ff"/><circle cx="47.2" cy="144.3" r="3" fill="#4aa3ff"/><circle cx="51.0" cy="144.3" r="3" fill="#4aa3ff"/><circle cx="54.7" cy="144.3" r="3" fill="#4aa3ff"/><circle cx="58.4" cy="144.3" r="3" fill="#4aa3ff"/><circle cx="62.2" cy="144.3" r="3" fill="#4aa3ff"/><circle cx="65.9" cy="144.3" r="3" fill="#4aa3ff"/><circle cx="69.6" cy="144.3" r="3" fill="#4aa3ff"/><circle cx="73.4" cy="144.3" r="3" fill="#4aa3ff"/><circle cx="77.1" cy="144.3" r="3" fill="#4aa3ff"/><circle cx="80.9" cy="144.3" r="3" fill="#4aa3ff"/><circle cx="84.6" cy="144.3" r="3" fill="#4aa3ff"/><circle cx="88.3" cy="144.3" r="3" fill="#4aa3ff"/><circle cx="92.1" cy="136.2" r="3" fill="#4aa3ff"/><circle cx="95.8" cy="132.4" r="3" fill="#4aa3ff"/><circle cx="99.5" cy="129.6" r="3" fill="#4aa3ff"/><circle cx="103.3" cy="129.6" r="3" fill="#4aa3ff"/><circle cx="107.0" cy="121.0" r="3" fill="#4aa3ff"/><circle cx="110.8" cy="121.0" r="3" fill="#4aa3ff"/><circle cx="114.5" cy="121.0" r="3" fill="#4aa3ff"/><circle cx="118.2" cy="114.4" r="3" fill="#4aa3ff"/><circle cx="122.0" cy="114.4" r="3" fill="#4aa3ff"/><circle cx="125.7" cy="114.4" r="3" fill="#4aa3ff"/><circle cx="129.5" cy="111.3" r="3" fill="#4aa3ff"/><circle cx="133.2" cy="110.9" r="3" fill="#4aa3ff"/><circle cx="136.9" cy="110.9" r="3" fill="#4aa3ff"/><circle cx="140.7" cy="110.5" r="3" fill="#4aa3ff"/><circle cx="144.4" cy="110.5" r="3" fill="#4aa3ff"/><circle cx="148.1" cy="109.9" r="3" fill="#4aa3ff"/><circle cx="151.9" cy="108.7" r="3" fill="#4aa3ff"/><circle cx="155.6" cy="107.3" r="3" fill="#4aa3ff"/><circle cx="159.4" cy="106.9" r="3" fill="#4aa3ff"/><circle cx="163.1" cy="106.9" r="3" fill="#4aa3ff"/><circle cx="166.8" cy="106.9" r="3" fill="#4aa3ff"/><circle cx="170.6" cy="106.9" r="3" fill="#4aa3ff"/><circle cx="174.3" cy="106.9" r="3" fill="#4aa3ff"/><circle cx="178.0" cy="106.9" r="3" fill="#4aa3ff"/><circle cx="181.8" cy="106.9" r="3" fill="#4aa3ff"/><circle cx="185.5" cy="106.9" r="3" fill="#4aa3ff"/><circle cx="189.3" cy="106.9" r="3" fill="#4aa3ff"/><circle cx="193.0" cy="106.9" r="3" fill="#4aa3ff"/><circle cx="196.7" cy="113.2" r="3" fill="#4aa3ff"/><circle cx="200.5" cy="113.2" r="3" fill="#4aa3ff"/><circle cx="204.2" cy="113.2" r="3" fill="#4aa3ff"/><circle cx="208.0" cy="113.2" r="3" fill="#4aa3ff"/><circle cx="211.7" cy="113.2" r="3" fill="#4aa3ff"/><circle cx="215.4" cy="110.7" r="3" fill="#4aa3ff"/><circle cx="219.2" cy="105.3" r="3" fill="#4aa3ff"/><circle cx="222.9" cy="83.4" r="3" fill="#4aa3ff"/><circle cx="226.6" cy="83.4" r="3" fill="#4aa3ff"/><circle cx="230.4" cy="85.6" r="3" fill="#4aa3ff"/><circle cx="234.1" cy="85.6" r="3" fill="#4aa3ff"/><circle cx="237.9" cy="85.6" r="3" fill="#4aa3ff"/><circle cx="241.6" cy="85.6" r="3" fill="#4aa3ff"/><circle cx="245.3" cy="85.6" r="3" fill="#4aa3ff"/><circle cx="249.1" cy="85.8" r="3" fill="#4aa3ff"/><circle cx="252.8" cy="85.8" r="3" fill="#4aa3ff"/><circle cx="256.5" cy="85.8" r="3" fill="#4aa3ff"/><circle cx="260.3" cy="86.0" r="3" fill="#4aa3ff"/><circle cx="264.0" cy="86.0" r="3" fill="#4aa3ff"/><circle cx="267.8" cy="86.0" r="3" fill="#4aa3ff"/><circle cx="271.5" cy="86.0" r="3" fill="#4aa3ff"/><circle cx="275.2" cy="86.0" r="3" fill="#4aa3ff"/><circle cx="279.0" cy="86.0" r="3" fill="#4aa3ff"/><circle cx="282.7" cy="86.0" r="3" fill="#4aa3ff"/><circle cx="286.5" cy="86.0" r="3" fill="#4aa3ff"/><circle cx="290.2" cy="86.0" r="3" fill="#4aa3ff"/><circle cx="293.9" cy="86.0" r="3" fill="#4aa3ff"/><circle cx="297.7" cy="86.0" r="3" fill="#4aa3ff"/><circle cx="301.4" cy="86.0" r="3" fill="#4aa3ff"/><circle cx="305.1" cy="86.0" r="3" fill="#4aa3ff"/><circle cx="308.9" cy="86.0" r="3" fill="#4aa3ff"/><circle cx="312.6" cy="86.0" r="3" fill="#4aa3ff"/><circle cx="316.4" cy="86.0" r="3" fill="#4aa3ff"/><circle cx="320.1" cy="86.0" r="3" fill="#4aa3ff"/><circle cx="323.8" cy="86.0" r="3" fill="#4aa3ff"/><circle cx="327.6" cy="86.0" r="3" fill="#4aa3ff"/><circle cx="331.3" cy="86.0" r="3" fill="#4aa3ff"/><circle cx="335.0" cy="86.0" r="3" fill="#4aa3ff"/><circle cx="338.8" cy="87.0" r="3" fill="#4aa3ff"/><circle cx="342.5" cy="87.0" r="3" fill="#4aa3ff"/><circle cx="346.3" cy="87.0" r="3" fill="#4aa3ff"/><circle cx="350.0" cy="73.7" r="3" fill="#4aa3ff"/><circle cx="353.7" cy="73.7" r="3" fill="#4aa3ff"/><circle cx="357.5" cy="71.0" r="3" fill="#4aa3ff"/><circle cx="361.2" cy="71.0" r="3" fill="#4aa3ff"/><circle cx="365.0" cy="70.8" r="3" fill="#4aa3ff"/><circle cx="368.7" cy="70.6" r="3" fill="#4aa3ff"/><circle cx="372.4" cy="70.6" r="3" fill="#4aa3ff"/><circle cx="376.2" cy="70.4" r="3" fill="#4aa3ff"/><circle cx="379.9" cy="68.6" r="3" fill="#4aa3ff"/><circle cx="383.6" cy="60.5" r="3" fill="#4aa3ff"/><circle cx="387.4" cy="59.3" r="3" fill="#4aa3ff"/><circle cx="391.1" cy="52.0" r="3" fill="#4aa3ff"/><circle cx="394.9" cy="47.3" r="3" fill="#4aa3ff"/><circle cx="398.6" cy="40.1" r="3" fill="#4aa3ff"/><circle cx="402.3" cy="36.0" r="3" fill="#4aa3ff"/><circle cx="406.1" cy="36.0" r="3" fill="#4aa3ff"/><circle cx="409.8" cy="36.0" r="3" fill="#4aa3ff"/><circle cx="413.5" cy="36.0" r="3" fill="#4aa3ff"/><circle cx="417.3" cy="36.0" r="3" fill="#4aa3ff"/><circle cx="421.0" cy="36.0" r="3" fill="#4aa3ff"/><circle cx="424.8" cy="36.0" r="3" fill="#4aa3ff"/><circle cx="428.5" cy="36.0" r="3" fill="#4aa3ff"/><circle cx="432.2" cy="36.0" r="3" fill="#4aa3ff"/><circle cx="436.0" cy="36.0" r="3" fill="#4aa3ff"/><circle cx="439.7" cy="36.0" r="3" fill="#4aa3ff"/><circle cx="443.5" cy="36.0" r="3" fill="#4aa3ff"/><circle cx="447.2" cy="36.0" r="3" fill="#4aa3ff"/><circle cx="450.9" cy="36.0" r="3" fill="#4aa3ff"/><circle cx="454.7" cy="36.0" r="3" fill="#4aa3ff"/><circle cx="458.4" cy="36.0" r="3" fill="#4aa3ff"/><circle cx="462.1" cy="36.0" r="3" fill="#4aa3ff"/><circle cx="465.9" cy="36.0" r="3" fill="#4aa3ff"/><circle cx="469.6" cy="36.0" r="3" fill="#4aa3ff"/><circle cx="473.4" cy="36.0" r="3" fill="#4aa3ff"/><circle cx="477.1" cy="36.0" r="3" fill="#4aa3ff"/><circle cx="480.8" cy="36.0" r="3" fill="#4aa3ff"/><circle cx="484.6" cy="36.0" r="3" fill="#4aa3ff"/><circle cx="488.3" cy="36.0" r="3" fill="#4aa3ff"/><circle cx="492.0" cy="36.0" r="3" fill="#4aa3ff"/><circle cx="495.8" cy="36.0" r="3" fill="#4aa3ff"/><circle cx="499.5" cy="36.0" r="3" fill="#4aa3ff"/><circle cx="503.3" cy="36.0" r="3" fill="#4aa3ff"/><circle cx="507.0" cy="36.0" r="3" fill="#4aa3ff"/><circle cx="510.7" cy="36.0" r="3" fill="#4aa3ff"/><circle cx="514.5" cy="36.0" r="3" fill="#4aa3ff"/><circle cx="518.2" cy="36.0" r="3" fill="#4aa3ff"/><circle cx="522.0" cy="36.0" r="3" fill="#4aa3ff"/><circle cx="525.7" cy="36.0" r="3" fill="#4aa3ff"/><circle cx="529.4" cy="36.0" r="3" fill="#4aa3ff"/><circle cx="533.2" cy="36.0" r="3" fill="#4aa3ff"/><circle cx="536.9" cy="36.0" r="3" fill="#4aa3ff"/><circle cx="540.6" cy="36.0" r="3" fill="#4aa3ff"/><circle cx="544.4" cy="36.0" r="3" fill="#4aa3ff"/><circle cx="548.1" cy="36.0" r="3" fill="#4aa3ff"/><circle cx="551.9" cy="36.0" r="3" fill="#4aa3ff"/><circle cx="555.6" cy="36.0" r="3" fill="#4aa3ff"/><circle cx="559.3" cy="36.0" r="3" fill="#4aa3ff"/><circle cx="563.1" cy="36.0" r="3" fill="#4aa3ff"/><circle cx="566.8" cy="36.0" r="3" fill="#4aa3ff"/><circle cx="570.5" cy="36.0" r="3" fill="#4aa3ff"/><circle cx="574.3" cy="36.0" r="3" fill="#4aa3ff"/><circle cx="578.0" cy="36.0" r="3" fill="#4aa3ff"/><circle cx="581.8" cy="36.0" r="3" fill="#4aa3ff"/><circle cx="585.5" cy="36.0" r="3" fill="#4aa3ff"/><circle cx="589.2" cy="36.0" r="3" fill="#4aa3ff"/><circle cx="593.0" cy="36.0" r="3" fill="#4aa3ff"/><circle cx="596.7" cy="36.0" r="3" fill="#4aa3ff"/><circle cx="600.5" cy="36.0" r="3" fill="#4aa3ff"/><circle cx="604.2" cy="36.0" r="3" fill="#4aa3ff"/><circle cx="607.9" cy="36.0" r="3" fill="#4aa3ff"/><circle cx="611.7" cy="36.0" r="3" fill="#4aa3ff"/><circle cx="615.4" cy="36.0" r="3" fill="#4aa3ff"/><circle cx="619.1" cy="36.0" r="3" fill="#4aa3ff"/><circle cx="622.9" cy="36.0" r="3" fill="#4aa3ff"/><circle cx="626.6" cy="36.0" r="3" fill="#4aa3ff"/><circle cx="630.4" cy="36.0" r="3" fill="#4aa3ff"/><circle cx="634.1" cy="36.0" r="3" fill="#4aa3ff"/><circle cx="637.8" cy="36.0" r="3" fill="#4aa3ff"/><circle cx="641.6" cy="36.0" r="3" fill="#4aa3ff"/><circle cx="645.3" cy="36.0" r="3" fill="#4aa3ff"/><circle cx="649.0" cy="36.0" r="3" fill="#4aa3ff"/><circle cx="652.8" cy="36.0" r="3" fill="#4aa3ff"/><circle cx="656.5" cy="36.0" r="3" fill="#4aa3ff"/><circle cx="660.3" cy="36.0" r="3" fill="#4aa3ff"/><circle cx="664.0" cy="36.0" r="3" fill="#4aa3ff"/>
<text x="36" y="225" fill="#6b7280" font-size="11">2026-06-26</text>
<text x="664" y="225" fill="#6b7280" font-size="11" text-anchor="end">2026-07-14</text>
<text x="36" y="212" font-family="system-ui,sans-serif" font-size="11">
<tspan fill="#4aa3ff">&#9679; open FPs</tspan>  <tspan fill="#3fb950">&#9679; closed (Anthropic acting)</tspan>  <tspan fill="#8a5a5a">&#9679; harness withdrawn</tspan></text>
<text x="664" y="22" text-anchor="end" font-family="system-ui,sans-serif" font-size="12">
<tspan fill="#4aa3ff">open 800</tspan>  <tspan fill="#3fb950">closed 0</tspan>  <tspan fill="#8a5a5a">harness 0</tspan></text>
</svg>