<svg xmlns="http://www.w3.org/2000/svg" width="700" height="234" viewBox="0 0 700 234" role="img">
<rect width="700" height="234" rx="12" fill="#16181d"/>
<text x="36" y="22" fill="#e8eaed" font-family="system-ui,sans-serif" font-size="14" font-weight="700">Is Anthropic acting? cyber/aup false positives over time</text>
<line x1="36" y1="198.0" x2="664" y2="198.0" stroke="#2a2e37" stroke-width="1"/><text x="30" y="202.0" fill="#6b7280" font-size="11" text-anchor="end">0</text><line x1="36" y1="117.0" x2="664" y2="117.0" stroke="#2a2e37" stroke-width="1"/><text x="30" y="121.0" fill="#6b7280" font-size="11" text-anchor="end">400</text><line x1="36" y1="36.0" x2="664" y2="36.0" stroke="#2a2e37" stroke-width="1"/><text x="30" y="40.0" fill="#6b7280" font-size="11" text-anchor="end">800</text>

<polyline fill="none" stroke="#8a5a5a" stroke-width="2.5" stroke-linejoin="round" points="36.0,145.1 38.8,145.1 41.5,145.1 44.3,145.1 47.0,145.1 49.8,145.1 52.5,145.1 55.3,145.1 58.0,145.1 60.8,145.1 63.5,145.1 66.3,145.1 69.1,145.1 71.8,145.1 74.6,145.1 77.3,145.1 80.1,145.1 82.8,145.1 85.6,145.1 88.3,145.1 91.1,145.1 93.8,145.1 96.6,145.1 99.4,145.1 102.1,145.1 104.9,145.1 107.6,145.1 110.4,145.1 113.1,145.1 115.9,145.1 118.6,145.1 121.4,145.1 124.1,145.1 126.9,145.1 129.6,145.1 132.4,145.1 135.2,145.1 137.9,145.1 140.7,145.1 143.4,145.1 146.2,145.1 148.9,145.1 151.7,145.1 154.4,145.1 157.2,145.1 159.9,145.1 162.7,145.1 165.5,145.1 168.2,145.1 171.0,145.1 173.7,155.7 176.5,155.7 179.2,155.7 182.0,155.7 184.7,155.7 187.5,155.7 190.2,155.7 193.0,155.7 195.8,155.7 198.5,155.7 201.3,155.7 204.0,155.7 206.8,155.7 209.5,155.7 212.3,155.7 215.0,155.7 217.8,155.7 220.5,155.7 223.3,155.7 226.1,155.7 228.8,155.7 231.6,155.7 234.3,155.7 237.1,155.7 239.8,155.7 242.6,155.7 245.3,155.7 248.1,155.7 250.8,155.7 253.6,155.7 256.4,155.7 259.1,155.7 261.9,155.7 264.6,155.7 267.4,167.6 270.1,167.6 272.9,170.3 275.6,170.3 278.4,170.5 281.1,170.7 283.9,170.7 286.6,170.9 289.4,172.7 292.2,180.6 294.9,181.8 297.7,189.1 300.4,190.5 303.2,195.2 305.9,198.0 308.7,198.0 311.4,198.0 314.2,198.0 316.9,198.0 319.7,198.0 322.5,198.0 325.2,198.0 328.0,198.0 330.7,198.0 333.5,198.0 336.2,198.0 339.0,198.0 341.7,198.0 344.5,198.0 347.2,198.0 350.0,198.0 352.8,198.0 355.5,198.0 358.3,198.0 361.0,198.0 363.8,198.0 366.5,198.0 369.3,198.0 372.0,198.0 374.8,198.0 377.5,198.0 380.3,198.0 383.1,198.0 385.8,198.0 388.6,198.0 391.3,198.0 394.1,198.0 396.8,198.0 399.6,198.0 402.3,198.0 405.1,198.0 407.8,198.0 410.6,198.0 413.4,198.0 416.1,198.0 418.9,198.0 421.6,198.0 424.4,198.0 427.1,198.0 429.9,198.0 432.6,198.0 435.4,198.0 438.1,198.0 440.9,198.0 443.6,198.0 446.4,198.0 449.2,198.0 451.9,198.0 454.7,198.0 457.4,198.0 460.2,198.0 462.9,198.0 465.7,198.0 468.4,198.0 471.2,198.0 473.9,198.0 476.7,198.0 479.5,198.0 482.2,198.0 485.0,198.0 487.7,198.0 490.5,198.0 493.2,198.0 496.0,198.0 498.7,198.0 501.5,198.0 504.2,198.0 507.0,198.0 509.8,198.0 512.5,198.0 515.3,198.0 518.0,198.0 520.8,198.0 523.5,198.0 526.3,198.0 529.0,198.0 531.8,198.0 534.5,198.0 537.3,198.0 540.1,198.0 542.8,198.0 545.6,198.0 548.3,198.0 551.1,198.0 553.8,198.0 556.6,198.0 559.3,198.0 562.1,198.0 564.8,198.0 567.6,198.0 570.4,198.0 573.1,198.0 575.9,198.0 578.6,198.0 581.4,198.0 584.1,198.0 586.9,198.0 589.6,198.0 592.4,198.0 595.1,198.0 597.9,198.0 600.6,198.0 603.4,198.0 606.2,198.0 608.9,198.0 611.7,198.0 614.4,198.0 617.2,198.0 619.9,198.0 622.7,198.0 625.4,198.0 628.2,198.0 630.9,198.0 633.7,198.0 636.5,198.0 639.2,198.0 642.0,198.0 644.7,198.0 647.5,198.0 650.2,198.0 653.0,198.0 655.7,198.0 658.5,198.0 661.2,198.0 664.0,198.0"/><circle cx="36.0" cy="145.1" r="3" fill="#8a5a5a"/><circle cx="38.8" cy="145.1" r="3" fill="#8a5a5a"/><circle cx="41.5" cy="145.1" r="3" fill="#8a5a5a"/><circle cx="44.3" cy="145.1" r="3" fill="#8a5a5a"/><circle cx="47.0" cy="145.1" r="3" fill="#8a5a5a"/><circle cx="49.8" cy="145.1" r="3" fill="#8a5a5a"/><circle cx="52.5" cy="145.1" r="3" fill="#8a5a5a"/><circle cx="55.3" cy="145.1" r="3" fill="#8a5a5a"/><circle cx="58.0" cy="145.1" r="3" fill="#8a5a5a"/><circle cx="60.8" cy="145.1" r="3" fill="#8a5a5a"/><circle cx="63.5" cy="145.1" r="3" fill="#8a5a5a"/><circle cx="66.3" cy="145.1" r="3" fill="#8a5a5a"/><circle cx="69.1" cy="145.1" r="3" fill="#8a5a5a"/><circle cx="71.8" cy="145.1" r="3" fill="#8a5a5a"/><circle cx="74.6" cy="145.1" r="3" fill="#8a5a5a"/><circle cx="77.3" cy="145.1" r="3" fill="#8a5a5a"/><circle cx="80.1" cy="145.1" r="3" fill="#8a5a5a"/><circle cx="82.8" cy="145.1" r="3" fill="#8a5a5a"/><circle cx="85.6" cy="145.1" r="3" fill="#8a5a5a"/><circle cx="88.3" cy="145.1" r="3" fill="#8a5a5a"/><circle cx="91.1" cy="145.1" r="3" fill="#8a5a5a"/><circle cx="93.8" cy="145.1" r="3" fill="#8a5a5a"/><circle cx="96.6" cy="145.1" r="3" fill="#8a5a5a"/><circle cx="99.4" cy="145.1" r="3" fill="#8a5a5a"/><circle cx="102.1" cy="145.1" r="3" fill="#8a5a5a"/><circle cx="104.9" cy="145.1" r="3" fill="#8a5a5a"/><circle cx="107.6" cy="145.1" r="3" fill="#8a5a5a"/><circle cx="110.4" cy="145.1" r="3" fill="#8a5a5a"/><circle cx="113.1" cy="145.1" r="3" fill="#8a5a5a"/><circle cx="115.9" cy="145.1" r="3" fill="#8a5a5a"/><circle cx="118.6" cy="145.1" r="3" fill="#8a5a5a"/><circle cx="121.4" cy="145.1" r="3" fill="#8a5a5a"/><circle cx="124.1" cy="145.1" r="3" fill="#8a5a5a"/><circle cx="126.9" cy="145.1" r="3" fill="#8a5a5a"/><circle cx="129.6" cy="145.1" r="3" fill="#8a5a5a"/><circle cx="132.4" cy="145.1" r="3" fill="#8a5a5a"/><circle cx="135.2" cy="145.1" r="3" fill="#8a5a5a"/><circle cx="137.9" cy="145.1" r="3" fill="#8a5a5a"/><circle cx="140.7" cy="145.1" r="3" fill="#8a5a5a"/><circle cx="143.4" cy="145.1" r="3" fill="#8a5a5a"/><circle cx="146.2" cy="145.1" r="3" fill="#8a5a5a"/><circle cx="148.9" cy="145.1" r="3" fill="#8a5a5a"/><circle cx="151.7" cy="145.1" r="3" fill="#8a5a5a"/><circle cx="154.4" cy="145.1" r="3" fill="#8a5a5a"/><circle cx="157.2" cy="145.1" r="3" fill="#8a5a5a"/><circle cx="159.9" cy="145.1" r="3" fill="#8a5a5a"/><circle cx="162.7" cy="145.1" r="3" fill="#8a5a5a"/><circle cx="165.5" cy="145.1" r="3" fill="#8a5a5a"/><circle cx="168.2" cy="145.1" r="3" fill="#8a5a5a"/><circle cx="171.0" cy="145.1" r="3" fill="#8a5a5a"/><circle cx="173.7" cy="155.7" r="3" fill="#8a5a5a"/><circle cx="176.5" cy="155.7" r="3" fill="#8a5a5a"/><circle cx="179.2" cy="155.7" r="3" fill="#8a5a5a"/><circle cx="182.0" cy="155.7" r="3" fill="#8a5a5a"/><circle cx="184.7" cy="155.7" r="3" fill="#8a5a5a"/><circle cx="187.5" cy="155.7" r="3" fill="#8a5a5a"/><circle cx="190.2" cy="155.7" r="3" fill="#8a5a5a"/><circle cx="193.0" cy="155.7" r="3" fill="#8a5a5a"/><circle cx="195.8" cy="155.7" r="3" fill="#8a5a5a"/><circle cx="198.5" cy="155.7" r="3" fill="#8a5a5a"/><circle cx="201.3" cy="155.7" r="3" fill="#8a5a5a"/><circle cx="204.0" cy="155.7" r="3" fill="#8a5a5a"/><circle cx="206.8" cy="155.7" r="3" fill="#8a5a5a"/><circle cx="209.5" cy="155.7" r="3" fill="#8a5a5a"/><circle cx="212.3" cy="155.7" r="3" fill="#8a5a5a"/><circle cx="215.0" cy="155.7" r="3" fill="#8a5a5a"/><circle cx="217.8" cy="155.7" r="3" fill="#8a5a5a"/><circle cx="220.5" cy="155.7" r="3" fill="#8a5a5a"/><circle cx="223.3" cy="155.7" r="3" fill="#8a5a5a"/><circle cx="226.1" cy="155.7" r="3" fill="#8a5a5a"/><circle cx="228.8" cy="155.7" r="3" fill="#8a5a5a"/><circle cx="231.6" cy="155.7" r="3" fill="#8a5a5a"/><circle cx="234.3" cy="155.7" r="3" fill="#8a5a5a"/><circle cx="237.1" cy="155.7" r="3" fill="#8a5a5a"/><circle cx="239.8" cy="155.7" r="3" fill="#8a5a5a"/><circle cx="242.6" cy="155.7" r="3" fill="#8a5a5a"/><circle cx="245.3" cy="155.7" r="3" fill="#8a5a5a"/><circle cx="248.1" cy="155.7" r="3" fill="#8a5a5a"/><circle cx="250.8" cy="155.7" r="3" fill="#8a5a5a"/><circle cx="253.6" cy="155.7" r="3" fill="#8a5a5a"/><circle cx="256.4" cy="155.7" r="3" fill="#8a5a5a"/><circle cx="259.1" cy="155.7" r="3" fill="#8a5a5a"/><circle cx="261.9" cy="155.7" r="3" fill="#8a5a5a"/><circle cx="264.6" cy="155.7" r="3" fill="#8a5a5a"/><circle cx="267.4" cy="167.6" r="3" fill="#8a5a5a"/><circle cx="270.1" cy="167.6" r="3" fill="#8a5a5a"/><circle cx="272.9" cy="170.3" r="3" fill="#8a5a5a"/><circle cx="275.6" cy="170.3" r="3" fill="#8a5a5a"/><circle cx="278.4" cy="170.5" r="3" fill="#8a5a5a"/><circle cx="281.1" cy="170.7" r="3" fill="#8a5a5a"/><circle cx="283.9" cy="170.7" r="3" fill="#8a5a5a"/><circle cx="286.6" cy="170.9" r="3" fill="#8a5a5a"/><circle cx="289.4" cy="172.7" r="3" fill="#8a5a5a"/><circle cx="292.2" cy="180.6" r="3" fill="#8a5a5a"/><circle cx="294.9" cy="181.8" r="3" fill="#8a5a5a"/><circle cx="297.7" cy="189.1" r="3" fill="#8a5a5a"/><circle cx="300.4" cy="190.5" r="3" fill="#8a5a5a"/><circle cx="303.2" cy="195.2" r="3" fill="#8a5a5a"/><circle cx="305.9" cy="198.0" r="3" fill="#8a5a5a"/><circle cx="308.7" cy="198.0" r="3" fill="#8a5a5a"/><circle cx="311.4" cy="198.0" r="3" fill="#8a5a5a"/><circle cx="314.2" cy="198.0" r="3" fill="#8a5a5a"/><circle cx="316.9" cy="198.0" r="3" fill="#8a5a5a"/><circle cx="319.7" cy="198.0" r="3" fill="#8a5a5a"/><circle cx="322.5" cy="198.0" r="3" fill="#8a5a5a"/><circle cx="325.2" cy="198.0" r="3" fill="#8a5a5a"/><circle cx="328.0" cy="198.0" r="3" fill="#8a5a5a"/><circle cx="330.7" cy="198.0" r="3" fill="#8a5a5a"/><circle cx="333.5" cy="198.0" r="3" fill="#8a5a5a"/><circle cx="336.2" cy="198.0" r="3" fill="#8a5a5a"/><circle cx="339.0" cy="198.0" r="3" fill="#8a5a5a"/><circle cx="341.7" cy="198.0" r="3" fill="#8a5a5a"/><circle cx="344.5" cy="198.0" r="3" fill="#8a5a5a"/><circle cx="347.2" cy="198.0" r="3" fill="#8a5a5a"/><circle cx="350.0" cy="198.0" r="3" fill="#8a5a5a"/><circle cx="352.8" cy="198.0" r="3" fill="#8a5a5a"/><circle cx="355.5" cy="198.0" r="3" fill="#8a5a5a"/><circle cx="358.3" cy="198.0" r="3" fill="#8a5a5a"/><circle cx="361.0" cy="198.0" r="3" fill="#8a5a5a"/><circle cx="363.8" cy="198.0" r="3" fill="#8a5a5a"/><circle cx="366.5" cy="198.0" r="3" fill="#8a5a5a"/><circle cx="369.3" cy="198.0" r="3" fill="#8a5a5a"/><circle cx="372.0" cy="198.0" r="3" fill="#8a5a5a"/><circle cx="374.8" cy="198.0" r="3" fill="#8a5a5a"/><circle cx="377.5" cy="198.0" r="3" fill="#8a5a5a"/><circle cx="380.3" cy="198.0" r="3" fill="#8a5a5a"/><circle cx="383.1" cy="198.0" r="3" fill="#8a5a5a"/><circle cx="385.8" cy="198.0" r="3" fill="#8a5a5a"/><circle cx="388.6" cy="198.0" r="3" fill="#8a5a5a"/><circle cx="391.3" cy="198.0" r="3" fill="#8a5a5a"/><circle cx="394.1" cy="198.0" r="3" fill="#8a5a5a"/><circle cx="396.8" cy="198.0" r="3" fill="#8a5a5a"/><circle cx="399.6" cy="198.0" r="3" fill="#8a5a5a"/><circle cx="402.3" cy="198.0" r="3" fill="#8a5a5a"/><circle cx="405.1" cy="198.0" r="3" fill="#8a5a5a"/><circle cx="407.8" cy="198.0" r="3" fill="#8a5a5a"/><circle cx="410.6" cy="198.0" r="3" fill="#8a5a5a"/><circle cx="413.4" cy="198.0" r="3" fill="#8a5a5a"/><circle cx="416.1" cy="198.0" r="3" fill="#8a5a5a"/><circle cx="418.9" cy="198.0" r="3" fill="#8a5a5a"/><circle cx="421.6" cy="198.0" r="3" fill="#8a5a5a"/><circle cx="424.4" cy="198.0" r="3" fill="#8a5a5a"/><circle cx="427.1" cy="198.0" r="3" fill="#8a5a5a"/><circle cx="429.9" cy="198.0" r="3" fill="#8a5a5a"/><circle cx="432.6" cy="198.0" r="3" fill="#8a5a5a"/><circle cx="435.4" cy="198.0" r="3" fill="#8a5a5a"/><circle cx="438.1" cy="198.0" r="3" fill="#8a5a5a"/><circle cx="440.9" cy="198.0" r="3" fill="#8a5a5a"/><circle cx="443.6" cy="198.0" r="3" fill="#8a5a5a"/><circle cx="446.4" cy="198.0" r="3" fill="#8a5a5a"/><circle cx="449.2" cy="198.0" r="3" fill="#8a5a5a"/><circle cx="451.9" cy="198.0" r="3" fill="#8a5a5a"/><circle cx="454.7" cy="198.0" r="3" fill="#8a5a5a"/><circle cx="457.4" cy="198.0" r="3" fill="#8a5a5a"/><circle cx="460.2" cy="198.0" r="3" fill="#8a5a5a"/><circle cx="462.9" cy="198.0" r="3" fill="#8a5a5a"/><circle cx="465.7" cy="198.0" r="3" fill="#8a5a5a"/><circle cx="468.4" cy="198.0" r="3" fill="#8a5a5a"/><circle cx="471.2" cy="198.0" r="3" fill="#8a5a5a"/><circle cx="473.9" cy="198.0" r="3" fill="#8a5a5a"/><circle cx="476.7" cy="198.0" r="3" fill="#8a5a5a"/><circle cx="479.5" cy="198.0" r="3" fill="#8a5a5a"/><circle cx="482.2" cy="198.0" r="3" fill="#8a5a5a"/><circle cx="485.0" cy="198.0" r="3" fill="#8a5a5a"/><circle cx="487.7" cy="198.0" r="3" fill="#8a5a5a"/><circle cx="490.5" cy="198.0" r="3" fill="#8a5a5a"/><circle cx="493.2" cy="198.0" r="3" fill="#8a5a5a"/><circle cx="496.0" cy="198.0" r="3" fill="#8a5a5a"/><circle cx="498.7" cy="198.0" r="3" fill="#8a5a5a"/><circle cx="501.5" cy="198.0" r="3" fill="#8a5a5a"/><circle cx="504.2" cy="198.0" r="3" fill="#8a5a5a"/><circle cx="507.0" cy="198.0" r="3" fill="#8a5a5a"/><circle cx="509.8" cy="198.0" r="3" fill="#8a5a5a"/><circle cx="512.5" cy="198.0" r="3" fill="#8a5a5a"/><circle cx="515.3" cy="198.0" r="3" fill="#8a5a5a"/><circle cx="518.0" cy="198.0" r="3" fill="#8a5a5a"/><circle cx="520.8" cy="198.0" r="3" fill="#8a5a5a"/><circle cx="523.5" cy="198.0" r="3" fill="#8a5a5a"/><circle cx="526.3" cy="198.0" r="3" fill="#8a5a5a"/><circle cx="529.0" cy="198.0" r="3" fill="#8a5a5a"/><circle cx="531.8" cy="198.0" r="3" fill="#8a5a5a"/><circle cx="534.5" cy="198.0" r="3" fill="#8a5a5a"/><circle cx="537.3" cy="198.0" r="3" fill="#8a5a5a"/><circle cx="540.1" cy="198.0" r="3" fill="#8a5a5a"/><circle cx="542.8" cy="198.0" r="3" fill="#8a5a5a"/><circle cx="545.6" cy="198.0" r="3" fill="#8a5a5a"/><circle cx="548.3" cy="198.0" r="3" fill="#8a5a5a"/><circle cx="551.1" cy="198.0" r="3" fill="#8a5a5a"/><circle cx="553.8" cy="198.0" r="3" fill="#8a5a5a"/><circle cx="556.6" cy="198.0" r="3" fill="#8a5a5a"/><circle cx="559.3" cy="198.0" r="3" fill="#8a5a5a"/><circle cx="562.1" cy="198.0" r="3" fill="#8a5a5a"/><circle cx="564.8" cy="198.0" r="3" fill="#8a5a5a"/><circle cx="567.6" cy="198.0" r="3" fill="#8a5a5a"/><circle cx="570.4" cy="198.0" r="3" fill="#8a5a5a"/><circle cx="573.1" cy="198.0" r="3" fill="#8a5a5a"/><circle cx="575.9" cy="198.0" r="3" fill="#8a5a5a"/><circle cx="578.6" cy="198.0" r="3" fill="#8a5a5a"/><circle cx="581.4" cy="198.0" r="3" fill="#8a5a5a"/><circle cx="584.1" cy="198.0" r="3" fill="#8a5a5a"/><circle cx="586.9" cy="198.0" r="3" fill="#8a5a5a"/><circle cx="589.6" cy="198.0" r="3" fill="#8a5a5a"/><circle cx="592.4" cy="198.0" r="3" fill="#8a5a5a"/><circle cx="595.1" cy="198.0" r="3" fill="#8a5a5a"/><circle cx="597.9" cy="198.0" r="3" fill="#8a5a5a"/><circle cx="600.6" cy="198.0" r="3" fill="#8a5a5a"/><circle cx="603.4" cy="198.0" r="3" fill="#8a5a5a"/><circle cx="606.2" cy="198.0" r="3" fill="#8a5a5a"/><circle cx="608.9" cy="198.0" r="3" fill="#8a5a5a"/><circle cx="611.7" cy="198.0" r="3" fill="#8a5a5a"/><circle cx="614.4" cy="198.0" r="3" fill="#8a5a5a"/><circle cx="617.2" cy="198.0" r="3" fill="#8a5a5a"/><circle cx="619.9" cy="198.0" r="3" fill="#8a5a5a"/><circle cx="622.7" cy="198.0" r="3" fill="#8a5a5a"/><circle cx="625.4" cy="198.0" r="3" fill="#8a5a5a"/><circle cx="628.2" cy="198.0" r="3" fill="#8a5a5a"/><circle cx="630.9" cy="198.0" r="3" fill="#8a5a5a"/><circle cx="633.7" cy="198.0" r="3" fill="#8a5a5a"/><circle cx="636.5" cy="198.0" r="3" fill="#8a5a5a"/><circle cx="639.2" cy="198.0" r="3" fill="#8a5a5a"/><circle cx="642.0" cy="198.0" r="3" fill="#8a5a5a"/><circle cx="644.7" cy="198.0" r="3" fill="#8a5a5a"/><circle cx="647.5" cy="198.0" r="3" fill="#8a5a5a"/><circle cx="650.2" cy="198.0" r="3" fill="#8a5a5a"/><circle cx="653.0" cy="198.0" r="3" fill="#8a5a5a"/><circle cx="655.7" cy="198.0" r="3" fill="#8a5a5a"/><circle cx="658.5" cy="198.0" r="3" fill="#8a5a5a"/><circle cx="661.2" cy="198.0" r="3" fill="#8a5a5a"/><circle cx="664.0" cy="198.0" r="3" fill="#8a5a5a"/>
<polyline fill="none" stroke="#3fb950" stroke-width="2.5" stroke-linejoin="round" points="36.0,198.0 38.8,198.0 41.5,198.0 44.3,198.0 47.0,198.0 49.8,198.0 52.5,198.0 55.3,198.0 58.0,198.0 60.8,198.0 63.5,198.0 66.3,198.0 69.1,198.0 71.8,198.0 74.6,198.0 77.3,198.0 80.1,198.0 82.8,198.0 85.6,198.0 88.3,198.0 91.1,198.0 93.8,198.0 96.6,198.0 99.4,198.0 102.1,198.0 104.9,198.0 107.6,198.0 110.4,198.0 113.1,198.0 115.9,198.0 118.6,198.0 121.4,198.0 124.1,198.0 126.9,198.0 129.6,198.0 132.4,198.0 135.2,198.0 137.9,198.0 140.7,198.0 143.4,198.0 146.2,198.0 148.9,198.0 151.7,198.0 154.4,191.7 157.2,191.7 159.9,191.7 162.7,191.7 165.5,191.7 168.2,191.7 171.0,191.7 173.7,192.9 176.5,192.9 179.2,190.7 182.0,190.7 184.7,190.7 187.5,190.7 190.2,190.7 193.0,190.5 195.8,190.5 198.5,190.5 201.3,190.3 204.0,190.3 206.8,190.3 209.5,190.3 212.3,190.3 215.0,190.3 217.8,190.3 220.5,190.3 223.3,190.3 226.1,190.3 228.8,190.3 231.6,190.3 234.3,190.3 237.1,190.3 239.8,190.3 242.6,190.3 245.3,190.3 248.1,190.3 250.8,190.3 253.6,190.3 256.4,190.3 259.1,189.3 261.9,189.3 264.6,189.3 267.4,190.7 270.1,190.7 272.9,190.7 275.6,190.7 278.4,190.7 281.1,190.7 283.9,190.7 286.6,190.7 289.4,190.7 292.2,190.9 294.9,190.9 297.7,190.9 300.4,194.2 303.2,196.8 305.9,198.0 308.7,198.0 311.4,198.0 314.2,198.0 316.9,198.0 319.7,198.0 322.5,198.0 325.2,198.0 328.0,198.0 330.7,198.0 333.5,198.0 336.2,198.0 339.0,198.0 341.7,198.0 344.5,198.0 347.2,198.0 350.0,198.0 352.8,198.0 355.5,198.0 358.3,198.0 361.0,198.0 363.8,198.0 366.5,198.0 369.3,198.0 372.0,198.0 374.8,198.0 377.5,198.0 380.3,198.0 383.1,198.0 385.8,198.0 388.6,198.0 391.3,198.0 394.1,198.0 396.8,198.0 399.6,198.0 402.3,198.0 405.1,198.0 407.8,198.0 410.6,198.0 413.4,198.0 416.1,198.0 418.9,198.0 421.6,198.0 424.4,198.0 427.1,198.0 429.9,198.0 432.6,198.0 435.4,198.0 438.1,198.0 440.9,198.0 443.6,198.0 446.4,198.0 449.2,198.0 451.9,198.0 454.7,198.0 457.4,198.0 460.2,198.0 462.9,198.0 465.7,198.0 468.4,198.0 471.2,198.0 473.9,198.0 476.7,198.0 479.5,198.0 482.2,198.0 485.0,198.0 487.7,198.0 490.5,198.0 493.2,198.0 496.0,198.0 498.7,198.0 501.5,198.0 504.2,198.0 507.0,198.0 509.8,198.0 512.5,198.0 515.3,198.0 518.0,198.0 520.8,198.0 523.5,198.0 526.3,198.0 529.0,198.0 531.8,198.0 534.5,198.0 537.3,198.0 540.1,198.0 542.8,198.0 545.6,198.0 548.3,198.0 551.1,198.0 553.8,198.0 556.6,198.0 559.3,198.0 562.1,198.0 564.8,198.0 567.6,198.0 570.4,198.0 573.1,198.0 575.9,198.0 578.6,198.0 581.4,198.0 584.1,198.0 586.9,198.0 589.6,198.0 592.4,198.0 595.1,198.0 597.9,198.0 600.6,198.0 603.4,198.0 606.2,198.0 608.9,198.0 611.7,198.0 614.4,198.0 617.2,198.0 619.9,198.0 622.7,198.0 625.4,198.0 628.2,198.0 630.9,198.0 633.7,198.0 636.5,198.0 639.2,198.0 642.0,198.0 644.7,198.0 647.5,198.0 650.2,198.0 653.0,198.0 655.7,198.0 658.5,198.0 661.2,198.0 664.0,198.0"/><circle cx="36.0" cy="198.0" r="3" fill="#3fb950"/><circle cx="38.8" cy="198.0" r="3" fill="#3fb950"/><circle cx="41.5" cy="198.0" r="3" fill="#3fb950"/><circle cx="44.3" cy="198.0" r="3" fill="#3fb950"/><circle cx="47.0" cy="198.0" r="3" fill="#3fb950"/><circle cx="49.8" cy="198.0" r="3" fill="#3fb950"/><circle cx="52.5" cy="198.0" r="3" fill="#3fb950"/><circle cx="55.3" cy="198.0" r="3" fill="#3fb950"/><circle cx="58.0" cy="198.0" r="3" fill="#3fb950"/><circle cx="60.8" cy="198.0" r="3" fill="#3fb950"/><circle cx="63.5" cy="198.0" r="3" fill="#3fb950"/><circle cx="66.3" cy="198.0" r="3" fill="#3fb950"/><circle cx="69.1" cy="198.0" r="3" fill="#3fb950"/><circle cx="71.8" cy="198.0" r="3" fill="#3fb950"/><circle cx="74.6" cy="198.0" r="3" fill="#3fb950"/><circle cx="77.3" cy="198.0" r="3" fill="#3fb950"/><circle cx="80.1" cy="198.0" r="3" fill="#3fb950"/><circle cx="82.8" cy="198.0" r="3" fill="#3fb950"/><circle cx="85.6" cy="198.0" r="3" fill="#3fb950"/><circle cx="88.3" cy="198.0" r="3" fill="#3fb950"/><circle cx="91.1" cy="198.0" r="3" fill="#3fb950"/><circle cx="93.8" cy="198.0" r="3" fill="#3fb950"/><circle cx="96.6" cy="198.0" r="3" fill="#3fb950"/><circle cx="99.4" cy="198.0" r="3" fill="#3fb950"/><circle cx="102.1" cy="198.0" r="3" fill="#3fb950"/><circle cx="104.9" cy="198.0" r="3" fill="#3fb950"/><circle cx="107.6" cy="198.0" r="3" fill="#3fb950"/><circle cx="110.4" cy="198.0" r="3" fill="#3fb950"/><circle cx="113.1" cy="198.0" r="3" fill="#3fb950"/><circle cx="115.9" cy="198.0" r="3" fill="#3fb950"/><circle cx="118.6" cy="198.0" r="3" fill="#3fb950"/><circle cx="121.4" cy="198.0" r="3" fill="#3fb950"/><circle cx="124.1" cy="198.0" r="3" fill="#3fb950"/><circle cx="126.9" cy="198.0" r="3" fill="#3fb950"/><circle cx="129.6" cy="198.0" r="3" fill="#3fb950"/><circle cx="132.4" cy="198.0" r="3" fill="#3fb950"/><circle cx="135.2" cy="198.0" r="3" fill="#3fb950"/><circle cx="137.9" cy="198.0" r="3" fill="#3fb950"/><circle cx="140.7" cy="198.0" r="3" fill="#3fb950"/><circle cx="143.4" cy="198.0" r="3" fill="#3fb950"/><circle cx="146.2" cy="198.0" r="3" fill="#3fb950"/><circle cx="148.9" cy="198.0" r="3" fill="#3fb950"/><circle cx="151.7" cy="198.0" r="3" fill="#3fb950"/><circle cx="154.4" cy="191.7" r="3" fill="#3fb950"/><circle cx="157.2" cy="191.7" r="3" fill="#3fb950"/><circle cx="159.9" cy="191.7" r="3" fill="#3fb950"/><circle cx="162.7" cy="191.7" r="3" fill="#3fb950"/><circle cx="165.5" cy="191.7" r="3" fill="#3fb950"/><circle cx="168.2" cy="191.7" r="3" fill="#3fb950"/><circle cx="171.0" cy="191.7" r="3" fill="#3fb950"/><circle cx="173.7" cy="192.9" r="3" fill="#3fb950"/><circle cx="176.5" cy="192.9" r="3" fill="#3fb950"/><circle cx="179.2" cy="190.7" r="3" fill="#3fb950"/><circle cx="182.0" cy="190.7" r="3" fill="#3fb950"/><circle cx="184.7" cy="190.7" r="3" fill="#3fb950"/><circle cx="187.5" cy="190.7" r="3" fill="#3fb950"/><circle cx="190.2" cy="190.7" r="3" fill="#3fb950"/><circle cx="193.0" cy="190.5" r="3" fill="#3fb950"/><circle cx="195.8" cy="190.5" r="3" fill="#3fb950"/><circle cx="198.5" cy="190.5" r="3" fill="#3fb950"/><circle cx="201.3" cy="190.3" r="3" fill="#3fb950"/><circle cx="204.0" cy="190.3" r="3" fill="#3fb950"/><circle cx="206.8" cy="190.3" r="3" fill="#3fb950"/><circle cx="209.5" cy="190.3" r="3" fill="#3fb950"/><circle cx="212.3" cy="190.3" r="3" fill="#3fb950"/><circle cx="215.0" cy="190.3" r="3" fill="#3fb950"/><circle cx="217.8" cy="190.3" r="3" fill="#3fb950"/><circle cx="220.5" cy="190.3" r="3" fill="#3fb950"/><circle cx="223.3" cy="190.3" r="3" fill="#3fb950"/><circle cx="226.1" cy="190.3" r="3" fill="#3fb950"/><circle cx="228.8" cy="190.3" r="3" fill="#3fb950"/><circle cx="231.6" cy="190.3" r="3" fill="#3fb950"/><circle cx="234.3" cy="190.3" r="3" fill="#3fb950"/><circle cx="237.1" cy="190.3" r="3" fill="#3fb950"/><circle cx="239.8" cy="190.3" r="3" fill="#3fb950"/><circle cx="242.6" cy="190.3" r="3" fill="#3fb950"/><circle cx="245.3" cy="190.3" r="3" fill="#3fb950"/><circle cx="248.1" cy="190.3" r="3" fill="#3fb950"/><circle cx="250.8" cy="190.3" r="3" fill="#3fb950"/><circle cx="253.6" cy="190.3" r="3" fill="#3fb950"/><circle cx="256.4" cy="190.3" r="3" fill="#3fb950"/><circle cx="259.1" cy="189.3" r="3" fill="#3fb950"/><circle cx="261.9" cy="189.3" r="3" fill="#3fb950"/><circle cx="264.6" cy="189.3" r="3" fill="#3fb950"/><circle cx="267.4" cy="190.7" r="3" fill="#3fb950"/><circle cx="270.1" cy="190.7" r="3" fill="#3fb950"/><circle cx="272.9" cy="190.7" r="3" fill="#3fb950"/><circle cx="275.6" cy="190.7" r="3" fill="#3fb950"/><circle cx="278.4" cy="190.7" r="3" fill="#3fb950"/><circle cx="281.1" cy="190.7" r="3" fill="#3fb950"/><circle cx="283.9" cy="190.7" r="3" fill="#3fb950"/><circle cx="286.6" cy="190.7" r="3" fill="#3fb950"/><circle cx="289.4" cy="190.7" r="3" fill="#3fb950"/><circle cx="292.2" cy="190.9" r="3" fill="#3fb950"/><circle cx="294.9" cy="190.9" r="3" fill="#3fb950"/><circle cx="297.7" cy="190.9" r="3" fill="#3fb950"/><circle cx="300.4" cy="194.2" r="3" fill="#3fb950"/><circle cx="303.2" cy="196.8" r="3" fill="#3fb950"/><circle cx="305.9" cy="198.0" r="3" fill="#3fb950"/><circle cx="308.7" cy="198.0" r="3" fill="#3fb950"/><circle cx="311.4" cy="198.0" r="3" fill="#3fb950"/><circle cx="314.2" cy="198.0" r="3" fill="#3fb950"/><circle cx="316.9" cy="198.0" r="3" fill="#3fb950"/><circle cx="319.7" cy="198.0" r="3" fill="#3fb950"/><circle cx="322.5" cy="198.0" r="3" fill="#3fb950"/><circle cx="325.2" cy="198.0" r="3" fill="#3fb950"/><circle cx="328.0" cy="198.0" r="3" fill="#3fb950"/><circle cx="330.7" cy="198.0" r="3" fill="#3fb950"/><circle cx="333.5" cy="198.0" r="3" fill="#3fb950"/><circle cx="336.2" cy="198.0" r="3" fill="#3fb950"/><circle cx="339.0" cy="198.0" r="3" fill="#3fb950"/><circle cx="341.7" cy="198.0" r="3" fill="#3fb950"/><circle cx="344.5" cy="198.0" r="3" fill="#3fb950"/><circle cx="347.2" cy="198.0" r="3" fill="#3fb950"/><circle cx="350.0" cy="198.0" r="3" fill="#3fb950"/><circle cx="352.8" cy="198.0" r="3" fill="#3fb950"/><circle cx="355.5" cy="198.0" r="3" fill="#3fb950"/><circle cx="358.3" cy="198.0" r="3" fill="#3fb950"/><circle cx="361.0" cy="198.0" r="3" fill="#3fb950"/><circle cx="363.8" cy="198.0" r="3" fill="#3fb950"/><circle cx="366.5" cy="198.0" r="3" fill="#3fb950"/><circle cx="369.3" cy="198.0" r="3" fill="#3fb950"/><circle cx="372.0" cy="198.0" r="3" fill="#3fb950"/><circle cx="374.8" cy="198.0" r="3" fill="#3fb950"/><circle cx="377.5" cy="198.0" r="3" fill="#3fb950"/><circle cx="380.3" cy="198.0" r="3" fill="#3fb950"/><circle cx="383.1" cy="198.0" r="3" fill="#3fb950"/><circle cx="385.8" cy="198.0" r="3" fill="#3fb950"/><circle cx="388.6" cy="198.0" r="3" fill="#3fb950"/><circle cx="391.3" cy="198.0" r="3" fill="#3fb950"/><circle cx="394.1" cy="198.0" r="3" fill="#3fb950"/><circle cx="396.8" cy="198.0" r="3" fill="#3fb950"/><circle cx="399.6" cy="198.0" r="3" fill="#3fb950"/><circle cx="402.3" cy="198.0" r="3" fill="#3fb950"/><circle cx="405.1" cy="198.0" r="3" fill="#3fb950"/><circle cx="407.8" cy="198.0" r="3" fill="#3fb950"/><circle cx="410.6" cy="198.0" r="3" fill="#3fb950"/><circle cx="413.4" cy="198.0" r="3" fill="#3fb950"/><circle cx="416.1" cy="198.0" r="3" fill="#3fb950"/><circle cx="418.9" cy="198.0" r="3" fill="#3fb950"/><circle cx="421.6" cy="198.0" r="3" fill="#3fb950"/><circle cx="424.4" cy="198.0" r="3" fill="#3fb950"/><circle cx="427.1" cy="198.0" r="3" fill="#3fb950"/><circle cx="429.9" cy="198.0" r="3" fill="#3fb950"/><circle cx="432.6" cy="198.0" r="3" fill="#3fb950"/><circle cx="435.4" cy="198.0" r="3" fill="#3fb950"/><circle cx="438.1" cy="198.0" r="3" fill="#3fb950"/><circle cx="440.9" cy="198.0" r="3" fill="#3fb950"/><circle cx="443.6" cy="198.0" r="3" fill="#3fb950"/><circle cx="446.4" cy="198.0" r="3" fill="#3fb950"/><circle cx="449.2" cy="198.0" r="3" fill="#3fb950"/><circle cx="451.9" cy="198.0" r="3" fill="#3fb950"/><circle cx="454.7" cy="198.0" r="3" fill="#3fb950"/><circle cx="457.4" cy="198.0" r="3" fill="#3fb950"/><circle cx="460.2" cy="198.0" r="3" fill="#3fb950"/><circle cx="462.9" cy="198.0" r="3" fill="#3fb950"/><circle cx="465.7" cy="198.0" r="3" fill="#3fb950"/><circle cx="468.4" cy="198.0" r="3" fill="#3fb950"/><circle cx="471.2" cy="198.0" r="3" fill="#3fb950"/><circle cx="473.9" cy="198.0" r="3" fill="#3fb950"/><circle cx="476.7" cy="198.0" r="3" fill="#3fb950"/><circle cx="479.5" cy="198.0" r="3" fill="#3fb950"/><circle cx="482.2" cy="198.0" r="3" fill="#3fb950"/><circle cx="485.0" cy="198.0" r="3" fill="#3fb950"/><circle cx="487.7" cy="198.0" r="3" fill="#3fb950"/><circle cx="490.5" cy="198.0" r="3" fill="#3fb950"/><circle cx="493.2" cy="198.0" r="3" fill="#3fb950"/><circle cx="496.0" cy="198.0" r="3" fill="#3fb950"/><circle cx="498.7" cy="198.0" r="3" fill="#3fb950"/><circle cx="501.5" cy="198.0" r="3" fill="#3fb950"/><circle cx="504.2" cy="198.0" r="3" fill="#3fb950"/><circle cx="507.0" cy="198.0" r="3" fill="#3fb950"/><circle cx="509.8" cy="198.0" r="3" fill="#3fb950"/><circle cx="512.5" cy="198.0" r="3" fill="#3fb950"/><circle cx="515.3" cy="198.0" r="3" fill="#3fb950"/><circle cx="518.0" cy="198.0" r="3" fill="#3fb950"/><circle cx="520.8" cy="198.0" r="3" fill="#3fb950"/><circle cx="523.5" cy="198.0" r="3" fill="#3fb950"/><circle cx="526.3" cy="198.0" r="3" fill="#3fb950"/><circle cx="529.0" cy="198.0" r="3" fill="#3fb950"/><circle cx="531.8" cy="198.0" r="3" fill="#3fb950"/><circle cx="534.5" cy="198.0" r="3" fill="#3fb950"/><circle cx="537.3" cy="198.0" r="3" fill="#3fb950"/><circle cx="540.1" cy="198.0" r="3" fill="#3fb950"/><circle cx="542.8" cy="198.0" r="3" fill="#3fb950"/><circle cx="545.6" cy="198.0" r="3" fill="#3fb950"/><circle cx="548.3" cy="198.0" r="3" fill="#3fb950"/><circle cx="551.1" cy="198.0" r="3" fill="#3fb950"/><circle cx="553.8" cy="198.0" r="3" fill="#3fb950"/><circle cx="556.6" cy="198.0" r="3" fill="#3fb950"/><circle cx="559.3" cy="198.0" r="3" fill="#3fb950"/><circle cx="562.1" cy="198.0" r="3" fill="#3fb950"/><circle cx="564.8" cy="198.0" r="3" fill="#3fb950"/><circle cx="567.6" cy="198.0" r="3" fill="#3fb950"/><circle cx="570.4" cy="198.0" r="3" fill="#3fb950"/><circle cx="573.1" cy="198.0" r="3" fill="#3fb950"/><circle cx="575.9" cy="198.0" r="3" fill="#3fb950"/><circle cx="578.6" cy="198.0" r="3" fill="#3fb950"/><circle cx="581.4" cy="198.0" r="3" fill="#3fb950"/><circle cx="584.1" cy="198.0" r="3" fill="#3fb950"/><circle cx="586.9" cy="198.0" r="3" fill="#3fb950"/><circle cx="589.6" cy="198.0" r="3" fill="#3fb950"/><circle cx="592.4" cy="198.0" r="3" fill="#3fb950"/><circle cx="595.1" cy="198.0" r="3" fill="#3fb950"/><circle cx="597.9" cy="198.0" r="3" fill="#3fb950"/><circle cx="600.6" cy="198.0" r="3" fill="#3fb950"/><circle cx="603.4" cy="198.0" r="3" fill="#3fb950"/><circle cx="606.2" cy="198.0" r="3" fill="#3fb950"/><circle cx="608.9" cy="198.0" r="3" fill="#3fb950"/><circle cx="611.7" cy="198.0" r="3" fill="#3fb950"/><circle cx="614.4" cy="198.0" r="3" fill="#3fb950"/><circle cx="617.2" cy="198.0" r="3" fill="#3fb950"/><circle cx="619.9" cy="198.0" r="3" fill="#3fb950"/><circle cx="622.7" cy="198.0" r="3" fill="#3fb950"/><circle cx="625.4" cy="198.0" r="3" fill="#3fb950"/><circle cx="628.2" cy="198.0" r="3" fill="#3fb950"/><circle cx="630.9" cy="198.0" r="3" fill="#3fb950"/><circle cx="633.7" cy="198.0" r="3" fill="#3fb950"/><circle cx="636.5" cy="198.0" r="3" fill="#3fb950"/><circle cx="639.2" cy="198.0" r="3" fill="#3fb950"/><circle cx="642.0" cy="198.0" r="3" fill="#3fb950"/><circle cx="644.7" cy="198.0" r="3" fill="#3fb950"/><circle cx="647.5" cy="198.0" r="3" fill="#3fb950"/><circle cx="650.2" cy="198.0" r="3" fill="#3fb950"/><circle cx="653.0" cy="198.0" r="3" fill="#3fb950"/><circle cx="655.7" cy="198.0" r="3" fill="#3fb950"/><circle cx="658.5" cy="198.0" r="3" fill="#3fb950"/><circle cx="661.2" cy="198.0" r="3" fill="#3fb950"/><circle cx="664.0" cy="198.0" r="3" fill="#3fb950"/>
<polyline fill="none" stroke="#4aa3ff" stroke-width="2.5" stroke-linejoin="round" points="36.0,144.3 38.8,144.3 41.5,144.3 44.3,144.3 47.0,144.3 49.8,144.3 52.5,144.3 55.3,144.3 58.0,144.3 60.8,144.3 63.5,144.3 66.3,144.3 69.1,144.3 71.8,144.3 74.6,144.3 77.3,136.2 80.1,132.4 82.8,129.6 85.6,129.6 88.3,121.0 91.1,121.0 93.8,121.0 96.6,114.4 99.4,114.4 102.1,114.4 104.9,111.3 107.6,110.9 110.4,110.9 113.1,110.5 115.9,110.5 118.6,109.9 121.4,108.7 124.1,107.3 126.9,106.9 129.6,106.9 132.4,106.9 135.2,106.9 137.9,106.9 140.7,106.9 143.4,106.9 146.2,106.9 148.9,106.9 151.7,106.9 154.4,113.2 157.2,113.2 159.9,113.2 162.7,113.2 165.5,113.2 168.2,110.7 171.0,105.3 173.7,83.4 176.5,83.4 179.2,85.6 182.0,85.6 184.7,85.6 187.5,85.6 190.2,85.6 193.0,85.8 195.8,85.8 198.5,85.8 201.3,86.0 204.0,86.0 206.8,86.0 209.5,86.0 212.3,86.0 215.0,86.0 217.8,86.0 220.5,86.0 223.3,86.0 226.1,86.0 228.8,86.0 231.6,86.0 234.3,86.0 237.1,86.0 239.8,86.0 242.6,86.0 245.3,86.0 248.1,86.0 250.8,86.0 253.6,86.0 256.4,86.0 259.1,87.0 261.9,87.0 264.6,87.0 267.4,73.7 270.1,73.7 272.9,71.0 275.6,71.0 278.4,70.8 281.1,70.6 283.9,70.6 286.6,70.4 289.4,68.6 292.2,60.5 294.9,59.3 297.7,52.0 300.4,47.3 303.2,40.1 305.9,36.0 308.7,36.0 311.4,36.0 314.2,36.0 316.9,36.0 319.7,36.0 322.5,36.0 325.2,36.0 328.0,36.0 330.7,36.0 333.5,36.0 336.2,36.0 339.0,36.0 341.7,36.0 344.5,36.0 347.2,36.0 350.0,36.0 352.8,36.0 355.5,36.0 358.3,36.0 361.0,36.0 363.8,36.0 366.5,36.0 369.3,36.0 372.0,36.0 374.8,36.0 377.5,36.0 380.3,36.0 383.1,36.0 385.8,36.0 388.6,36.0 391.3,36.0 394.1,36.0 396.8,36.0 399.6,36.0 402.3,36.0 405.1,36.0 407.8,36.0 410.6,36.0 413.4,36.0 416.1,36.0 418.9,36.0 421.6,36.0 424.4,36.0 427.1,36.0 429.9,36.0 432.6,36.0 435.4,36.0 438.1,36.0 440.9,36.0 443.6,36.0 446.4,36.0 449.2,36.0 451.9,36.0 454.7,36.0 457.4,36.0 460.2,36.0 462.9,36.0 465.7,36.0 468.4,36.0 471.2,36.0 473.9,36.0 476.7,36.0 479.5,36.0 482.2,36.0 485.0,36.0 487.7,36.0 490.5,36.0 493.2,36.0 496.0,36.0 498.7,36.0 501.5,36.0 504.2,36.0 507.0,36.0 509.8,36.0 512.5,36.0 515.3,36.0 518.0,36.0 520.8,36.0 523.5,36.0 526.3,36.0 529.0,36.0 531.8,36.0 534.5,36.0 537.3,36.0 540.1,36.0 542.8,36.0 545.6,36.0 548.3,36.0 551.1,36.0 553.8,36.0 556.6,36.0 559.3,36.0 562.1,36.0 564.8,36.0 567.6,36.0 570.4,36.0 573.1,36.0 575.9,36.0 578.6,36.0 581.4,36.0 584.1,36.0 586.9,36.0 589.6,36.0 592.4,36.0 595.1,36.0 597.9,36.0 600.6,36.0 603.4,36.0 606.2,36.0 608.9,36.0 611.7,36.0 614.4,36.0 617.2,36.0 619.9,36.0 622.7,36.0 625.4,36.0 628.2,36.0 630.9,36.0 633.7,36.0 636.5,36.0 639.2,36.0 642.0,36.0 644.7,36.0 647.5,36.0 650.2,36.0 653.0,36.0 655.7,36.0 658.5,36.0 661.2,36.0 664.0,36.0"/><circle cx="36.0" cy="144.3" r="3" fill="#4aa3ff"/><circle cx="38.8" cy="144.3" r="3" fill="#4aa3ff"/><circle cx="41.5" cy="144.3" r="3" fill="#4aa3ff"/><circle cx="44.3" cy="144.3" r="3" fill="#4aa3ff"/><circle cx="47.0" cy="144.3" r="3" fill="#4aa3ff"/><circle cx="49.8" cy="144.3" r="3" fill="#4aa3ff"/><circle cx="52.5" cy="144.3" r="3" fill="#4aa3ff"/><circle cx="55.3" cy="144.3" r="3" fill="#4aa3ff"/><circle cx="58.0" cy="144.3" r="3" fill="#4aa3ff"/><circle cx="60.8" cy="144.3" r="3" fill="#4aa3ff"/><circle cx="63.5" cy="144.3" r="3" fill="#4aa3ff"/><circle cx="66.3" cy="144.3" r="3" fill="#4aa3ff"/><circle cx="69.1" cy="144.3" r="3" fill="#4aa3ff"/><circle cx="71.8" cy="144.3" r="3" fill="#4aa3ff"/><circle cx="74.6" cy="144.3" r="3" fill="#4aa3ff"/><circle cx="77.3" cy="136.2" r="3" fill="#4aa3ff"/><circle cx="80.1" cy="132.4" r="3" fill="#4aa3ff"/><circle cx="82.8" cy="129.6" r="3" fill="#4aa3ff"/><circle cx="85.6" cy="129.6" r="3" fill="#4aa3ff"/><circle cx="88.3" cy="121.0" r="3" fill="#4aa3ff"/><circle cx="91.1" cy="121.0" r="3" fill="#4aa3ff"/><circle cx="93.8" cy="121.0" r="3" fill="#4aa3ff"/><circle cx="96.6" cy="114.4" r="3" fill="#4aa3ff"/><circle cx="99.4" cy="114.4" r="3" fill="#4aa3ff"/><circle cx="102.1" cy="114.4" r="3" fill="#4aa3ff"/><circle cx="104.9" cy="111.3" r="3" fill="#4aa3ff"/><circle cx="107.6" cy="110.9" r="3" fill="#4aa3ff"/><circle cx="110.4" cy="110.9" r="3" fill="#4aa3ff"/><circle cx="113.1" cy="110.5" r="3" fill="#4aa3ff"/><circle cx="115.9" cy="110.5" r="3" fill="#4aa3ff"/><circle cx="118.6" cy="109.9" r="3" fill="#4aa3ff"/><circle cx="121.4" cy="108.7" r="3" fill="#4aa3ff"/><circle cx="124.1" cy="107.3" r="3" fill="#4aa3ff"/><circle cx="126.9" cy="106.9" r="3" fill="#4aa3ff"/><circle cx="129.6" cy="106.9" r="3" fill="#4aa3ff"/><circle cx="132.4" cy="106.9" r="3" fill="#4aa3ff"/><circle cx="135.2" cy="106.9" r="3" fill="#4aa3ff"/><circle cx="137.9" cy="106.9" r="3" fill="#4aa3ff"/><circle cx="140.7" cy="106.9" r="3" fill="#4aa3ff"/><circle cx="143.4" cy="106.9" r="3" fill="#4aa3ff"/><circle cx="146.2" cy="106.9" r="3" fill="#4aa3ff"/><circle cx="148.9" cy="106.9" r="3" fill="#4aa3ff"/><circle cx="151.7" cy="106.9" r="3" fill="#4aa3ff"/><circle cx="154.4" cy="113.2" r="3" fill="#4aa3ff"/><circle cx="157.2" cy="113.2" r="3" fill="#4aa3ff"/><circle cx="159.9" cy="113.2" r="3" fill="#4aa3ff"/><circle cx="162.7" cy="113.2" r="3" fill="#4aa3ff"/><circle cx="165.5" cy="113.2" r="3" fill="#4aa3ff"/><circle cx="168.2" cy="110.7" r="3" fill="#4aa3ff"/><circle cx="171.0" cy="105.3" r="3" fill="#4aa3ff"/><circle cx="173.7" cy="83.4" r="3" fill="#4aa3ff"/><circle cx="176.5" cy="83.4" r="3" fill="#4aa3ff"/><circle cx="179.2" cy="85.6" r="3" fill="#4aa3ff"/><circle cx="182.0" cy="85.6" r="3" fill="#4aa3ff"/><circle cx="184.7" cy="85.6" r="3" fill="#4aa3ff"/><circle cx="187.5" cy="85.6" r="3" fill="#4aa3ff"/><circle cx="190.2" cy="85.6" r="3" fill="#4aa3ff"/><circle cx="193.0" cy="85.8" r="3" fill="#4aa3ff"/><circle cx="195.8" cy="85.8" r="3" fill="#4aa3ff"/><circle cx="198.5" cy="85.8" r="3" fill="#4aa3ff"/><circle cx="201.3" cy="86.0" r="3" fill="#4aa3ff"/><circle cx="204.0" cy="86.0" r="3" fill="#4aa3ff"/><circle cx="206.8" cy="86.0" r="3" fill="#4aa3ff"/><circle cx="209.5" cy="86.0" r="3" fill="#4aa3ff"/><circle cx="212.3" cy="86.0" r="3" fill="#4aa3ff"/><circle cx="215.0" cy="86.0" r="3" fill="#4aa3ff"/><circle cx="217.8" cy="86.0" r="3" fill="#4aa3ff"/><circle cx="220.5" cy="86.0" r="3" fill="#4aa3ff"/><circle cx="223.3" cy="86.0" r="3" fill="#4aa3ff"/><circle cx="226.1" cy="86.0" r="3" fill="#4aa3ff"/><circle cx="228.8" cy="86.0" r="3" fill="#4aa3ff"/><circle cx="231.6" cy="86.0" r="3" fill="#4aa3ff"/><circle cx="234.3" cy="86.0" r="3" fill="#4aa3ff"/><circle cx="237.1" cy="86.0" r="3" fill="#4aa3ff"/><circle cx="239.8" cy="86.0" r="3" fill="#4aa3ff"/><circle cx="242.6" cy="86.0" r="3" fill="#4aa3ff"/><circle cx="245.3" cy="86.0" r="3" fill="#4aa3ff"/><circle cx="248.1" cy="86.0" r="3" fill="#4aa3ff"/><circle cx="250.8" cy="86.0" r="3" fill="#4aa3ff"/><circle cx="253.6" cy="86.0" r="3" fill="#4aa3ff"/><circle cx="256.4" cy="86.0" r="3" fill="#4aa3ff"/><circle cx="259.1" cy="87.0" r="3" fill="#4aa3ff"/><circle cx="261.9" cy="87.0" r="3" fill="#4aa3ff"/><circle cx="264.6" cy="87.0" r="3" fill="#4aa3ff"/><circle cx="267.4" cy="73.7" r="3" fill="#4aa3ff"/><circle cx="270.1" cy="73.7" r="3" fill="#4aa3ff"/><circle cx="272.9" cy="71.0" r="3" fill="#4aa3ff"/><circle cx="275.6" cy="71.0" r="3" fill="#4aa3ff"/><circle cx="278.4" cy="70.8" r="3" fill="#4aa3ff"/><circle cx="281.1" cy="70.6" r="3" fill="#4aa3ff"/><circle cx="283.9" cy="70.6" r="3" fill="#4aa3ff"/><circle cx="286.6" cy="70.4" r="3" fill="#4aa3ff"/><circle cx="289.4" cy="68.6" r="3" fill="#4aa3ff"/><circle cx="292.2" cy="60.5" r="3" fill="#4aa3ff"/><circle cx="294.9" cy="59.3" r="3" fill="#4aa3ff"/><circle cx="297.7" cy="52.0" r="3" fill="#4aa3ff"/><circle cx="300.4" cy="47.3" r="3" fill="#4aa3ff"/><circle cx="303.2" cy="40.1" r="3" fill="#4aa3ff"/><circle cx="305.9" cy="36.0" r="3" fill="#4aa3ff"/><circle cx="308.7" cy="36.0" r="3" fill="#4aa3ff"/><circle cx="311.4" cy="36.0" r="3" fill="#4aa3ff"/><circle cx="314.2" cy="36.0" r="3" fill="#4aa3ff"/><circle cx="316.9" cy="36.0" r="3" fill="#4aa3ff"/><circle cx="319.7" cy="36.0" r="3" fill="#4aa3ff"/><circle cx="322.5" cy="36.0" r="3" fill="#4aa3ff"/><circle cx="325.2" cy="36.0" r="3" fill="#4aa3ff"/><circle cx="328.0" cy="36.0" r="3" fill="#4aa3ff"/><circle cx="330.7" cy="36.0" r="3" fill="#4aa3ff"/><circle cx="333.5" cy="36.0" r="3" fill="#4aa3ff"/><circle cx="336.2" cy="36.0" r="3" fill="#4aa3ff"/><circle cx="339.0" cy="36.0" r="3" fill="#4aa3ff"/><circle cx="341.7" cy="36.0" r="3" fill="#4aa3ff"/><circle cx="344.5" cy="36.0" r="3" fill="#4aa3ff"/><circle cx="347.2" cy="36.0" r="3" fill="#4aa3ff"/><circle cx="350.0" cy="36.0" r="3" fill="#4aa3ff"/><circle cx="352.8" cy="36.0" r="3" fill="#4aa3ff"/><circle cx="355.5" cy="36.0" r="3" fill="#4aa3ff"/><circle cx="358.3" cy="36.0" r="3" fill="#4aa3ff"/><circle cx="361.0" cy="36.0" r="3" fill="#4aa3ff"/><circle cx="363.8" cy="36.0" r="3" fill="#4aa3ff"/><circle cx="366.5" cy="36.0" r="3" fill="#4aa3ff"/><circle cx="369.3" cy="36.0" r="3" fill="#4aa3ff"/><circle cx="372.0" cy="36.0" r="3" fill="#4aa3ff"/><circle cx="374.8" cy="36.0" r="3" fill="#4aa3ff"/><circle cx="377.5" cy="36.0" r="3" fill="#4aa3ff"/><circle cx="380.3" cy="36.0" r="3" fill="#4aa3ff"/><circle cx="383.1" cy="36.0" r="3" fill="#4aa3ff"/><circle cx="385.8" cy="36.0" r="3" fill="#4aa3ff"/><circle cx="388.6" cy="36.0" r="3" fill="#4aa3ff"/><circle cx="391.3" cy="36.0" r="3" fill="#4aa3ff"/><circle cx="394.1" cy="36.0" r="3" fill="#4aa3ff"/><circle cx="396.8" cy="36.0" r="3" fill="#4aa3ff"/><circle cx="399.6" cy="36.0" r="3" fill="#4aa3ff"/><circle cx="402.3" cy="36.0" r="3" fill="#4aa3ff"/><circle cx="405.1" cy="36.0" r="3" fill="#4aa3ff"/><circle cx="407.8" cy="36.0" r="3" fill="#4aa3ff"/><circle cx="410.6" cy="36.0" r="3" fill="#4aa3ff"/><circle cx="413.4" cy="36.0" r="3" fill="#4aa3ff"/><circle cx="416.1" cy="36.0" r="3" fill="#4aa3ff"/><circle cx="418.9" cy="36.0" r="3" fill="#4aa3ff"/><circle cx="421.6" cy="36.0" r="3" fill="#4aa3ff"/><circle cx="424.4" cy="36.0" r="3" fill="#4aa3ff"/><circle cx="427.1" cy="36.0" r="3" fill="#4aa3ff"/><circle cx="429.9" cy="36.0" r="3" fill="#4aa3ff"/><circle cx="432.6" cy="36.0" r="3" fill="#4aa3ff"/><circle cx="435.4" cy="36.0" r="3" fill="#4aa3ff"/><circle cx="438.1" cy="36.0" r="3" fill="#4aa3ff"/><circle cx="440.9" cy="36.0" r="3" fill="#4aa3ff"/><circle cx="443.6" cy="36.0" r="3" fill="#4aa3ff"/><circle cx="446.4" cy="36.0" r="3" fill="#4aa3ff"/><circle cx="449.2" cy="36.0" r="3" fill="#4aa3ff"/><circle cx="451.9" cy="36.0" r="3" fill="#4aa3ff"/><circle cx="454.7" cy="36.0" r="3" fill="#4aa3ff"/><circle cx="457.4" cy="36.0" r="3" fill="#4aa3ff"/><circle cx="460.2" cy="36.0" r="3" fill="#4aa3ff"/><circle cx="462.9" cy="36.0" r="3" fill="#4aa3ff"/><circle cx="465.7" cy="36.0" r="3" fill="#4aa3ff"/><circle cx="468.4" cy="36.0" r="3" fill="#4aa3ff"/><circle cx="471.2" cy="36.0" r="3" fill="#4aa3ff"/><circle cx="473.9" cy="36.0" r="3" fill="#4aa3ff"/><circle cx="476.7" cy="36.0" r="3" fill="#4aa3ff"/><circle cx="479.5" cy="36.0" r="3" fill="#4aa3ff"/><circle cx="482.2" cy="36.0" r="3" fill="#4aa3ff"/><circle cx="485.0" cy="36.0" r="3" fill="#4aa3ff"/><circle cx="487.7" cy="36.0" r="3" fill="#4aa3ff"/><circle cx="490.5" cy="36.0" r="3" fill="#4aa3ff"/><circle cx="493.2" cy="36.0" r="3" fill="#4aa3ff"/><circle cx="496.0" cy="36.0" r="3" fill="#4aa3ff"/><circle cx="498.7" cy="36.0" r="3" fill="#4aa3ff"/><circle cx="501.5" cy="36.0" r="3" fill="#4aa3ff"/><circle cx="504.2" cy="36.0" r="3" fill="#4aa3ff"/><circle cx="507.0" cy="36.0" r="3" fill="#4aa3ff"/><circle cx="509.8" cy="36.0" r="3" fill="#4aa3ff"/><circle cx="512.5" cy="36.0" r="3" fill="#4aa3ff"/><circle cx="515.3" cy="36.0" r="3" fill="#4aa3ff"/><circle cx="518.0" cy="36.0" r="3" fill="#4aa3ff"/><circle cx="520.8" cy="36.0" r="3" fill="#4aa3ff"/><circle cx="523.5" cy="36.0" r="3" fill="#4aa3ff"/><circle cx="526.3" cy="36.0" r="3" fill="#4aa3ff"/><circle cx="529.0" cy="36.0" r="3" fill="#4aa3ff"/><circle cx="531.8" cy="36.0" r="3" fill="#4aa3ff"/><circle cx="534.5" cy="36.0" r="3" fill="#4aa3ff"/><circle cx="537.3" cy="36.0" r="3" fill="#4aa3ff"/><circle cx="540.1" cy="36.0" r="3" fill="#4aa3ff"/><circle cx="542.8" cy="36.0" r="3" fill="#4aa3ff"/><circle cx="545.6" cy="36.0" r="3" fill="#4aa3ff"/><circle cx="548.3" cy="36.0" r="3" fill="#4aa3ff"/><circle cx="551.1" cy="36.0" r="3" fill="#4aa3ff"/><circle cx="553.8" cy="36.0" r="3" fill="#4aa3ff"/><circle cx="556.6" cy="36.0" r="3" fill="#4aa3ff"/><circle cx="559.3" cy="36.0" r="3" fill="#4aa3ff"/><circle cx="562.1" cy="36.0" r="3" fill="#4aa3ff"/><circle cx="564.8" cy="36.0" r="3" fill="#4aa3ff"/><circle cx="567.6" cy="36.0" r="3" fill="#4aa3ff"/><circle cx="570.4" cy="36.0" r="3" fill="#4aa3ff"/><circle cx="573.1" cy="36.0" r="3" fill="#4aa3ff"/><circle cx="575.9" cy="36.0" r="3" fill="#4aa3ff"/><circle cx="578.6" cy="36.0" r="3" fill="#4aa3ff"/><circle cx="581.4" cy="36.0" r="3" fill="#4aa3ff"/><circle cx="584.1" cy="36.0" r="3" fill="#4aa3ff"/><circle cx="586.9" cy="36.0" r="3" fill="#4aa3ff"/><circle cx="589.6" cy="36.0" r="3" fill="#4aa3ff"/><circle cx="592.4" cy="36.0" r="3" fill="#4aa3ff"/><circle cx="595.1" cy="36.0" r="3" fill="#4aa3ff"/><circle cx="597.9" cy="36.0" r="3" fill="#4aa3ff"/><circle cx="600.6" cy="36.0" r="3" fill="#4aa3ff"/><circle cx="603.4" cy="36.0" r="3" fill="#4aa3ff"/><circle cx="606.2" cy="36.0" r="3" fill="#4aa3ff"/><circle cx="608.9" cy="36.0" r="3" fill="#4aa3ff"/><circle cx="611.7" cy="36.0" r="3" fill="#4aa3ff"/><circle cx="614.4" cy="36.0" r="3" fill="#4aa3ff"/><circle cx="617.2" cy="36.0" r="3" fill="#4aa3ff"/><circle cx="619.9" cy="36.0" r="3" fill="#4aa3ff"/><circle cx="622.7" cy="36.0" r="3" fill="#4aa3ff"/><circle cx="625.4" cy="36.0" r="3" fill="#4aa3ff"/><circle cx="628.2" cy="36.0" r="3" fill="#4aa3ff"/><circle cx="630.9" cy="36.0" r="3" fill="#4aa3ff"/><circle cx="633.7" cy="36.0" r="3" fill="#4aa3ff"/><circle cx="636.5" cy="36.0" r="3" fill="#4aa3ff"/><circle cx="639.2" cy="36.0" r="3" fill="#4aa3ff"/><circle cx="642.0" cy="36.0" r="3" fill="#4aa3ff"/><circle cx="644.7" cy="36.0" r="3" fill="#4aa3ff"/><circle cx="647.5" cy="36.0" r="3" fill="#4aa3ff"/><circle cx="650.2" cy="36.0" r="3" fill="#4aa3ff"/><circle cx="653.0" cy="36.0" r="3" fill="#4aa3ff"/><circle cx="655.7" cy="36.0" r="3" fill="#4aa3ff"/><circle cx="658.5" cy="36.0" r="3" fill="#4aa3ff"/><circle cx="661.2" cy="36.0" r="3" fill="#4aa3ff"/><circle cx="664.0" cy="36.0" r="3" fill="#4aa3ff"/>
<text x="36" y="225" fill="#6b7280" font-size="11">2026-06-26</text>
<text x="664" y="225" fill="#6b7280" font-size="11" text-anchor="end">2026-07-19</text>
<text x="36" y="212" font-family="system-ui,sans-serif" font-size="11">
<tspan fill="#4aa3ff">&#9679; open FPs</tspan>  <tspan fill="#3fb950">&#9679; closed (Anthropic acting)</tspan>  <tspan fill="#8a5a5a">&#9679; harness withdrawn</tspan></text>
<text x="664" y="22" text-anchor="end" font-family="system-ui,sans-serif" font-size="12">
<tspan fill="#4aa3ff">open 800</tspan>  <tspan fill="#3fb950">closed 0</tspan>  <tspan fill="#8a5a5a">harness 0</tspan></text>
</svg>