<svg xmlns="http://www.w3.org/2000/svg" width="700" height="234" viewBox="0 0 700 234" role="img">
<rect width="700" height="234" rx="12" fill="#16181d"/>
<text x="36" y="22" fill="#e8eaed" font-family="system-ui,sans-serif" font-size="14" font-weight="700">Is Anthropic acting? cyber/aup false positives over time</text>
<line x1="36" y1="198.0" x2="664" y2="198.0" stroke="#2a2e37" stroke-width="1"/><text x="30" y="202.0" fill="#6b7280" font-size="11" text-anchor="end">0</text><line x1="36" y1="117.0" x2="664" y2="117.0" stroke="#2a2e37" stroke-width="1"/><text x="30" y="121.0" fill="#6b7280" font-size="11" text-anchor="end">225</text><line x1="36" y1="36.0" x2="664" y2="36.0" stroke="#2a2e37" stroke-width="1"/><text x="30" y="40.0" fill="#6b7280" font-size="11" text-anchor="end">450</text>

<polyline fill="none" stroke="#8a5a5a" stroke-width="2.5" stroke-linejoin="round" points="36.0,104.0 51.3,104.0 66.6,104.0 82.0,104.0 97.3,104.0 112.6,104.0 127.9,104.0 143.2,104.0 158.5,104.0 173.9,104.0 189.2,104.0 204.5,104.0 219.8,104.0 235.1,104.0 250.4,104.0 265.8,104.0 281.1,104.0 296.4,104.0 311.7,104.0 327.0,104.0 342.3,104.0 357.7,104.0 373.0,104.0 388.3,104.0 403.6,104.0 418.9,104.0 434.2,104.0 449.6,104.0 464.9,104.0 480.2,104.0 495.5,104.0 510.8,104.0 526.1,104.0 541.5,104.0 556.8,104.0 572.1,104.0 587.4,104.0 602.7,104.0 618.0,104.0 633.4,104.0 648.7,104.0 664.0,104.0"/><circle cx="36.0" cy="104.0" r="3" fill="#8a5a5a"/><circle cx="51.3" cy="104.0" r="3" fill="#8a5a5a"/><circle cx="66.6" cy="104.0" r="3" fill="#8a5a5a"/><circle cx="82.0" cy="104.0" r="3" fill="#8a5a5a"/><circle cx="97.3" cy="104.0" r="3" fill="#8a5a5a"/><circle cx="112.6" cy="104.0" r="3" fill="#8a5a5a"/><circle cx="127.9" cy="104.0" r="3" fill="#8a5a5a"/><circle cx="143.2" cy="104.0" r="3" fill="#8a5a5a"/><circle cx="158.5" cy="104.0" r="3" fill="#8a5a5a"/><circle cx="173.9" cy="104.0" r="3" fill="#8a5a5a"/><circle cx="189.2" cy="104.0" r="3" fill="#8a5a5a"/><circle cx="204.5" cy="104.0" r="3" fill="#8a5a5a"/><circle cx="219.8" cy="104.0" r="3" fill="#8a5a5a"/><circle cx="235.1" cy="104.0" r="3" fill="#8a5a5a"/><circle cx="250.4" cy="104.0" r="3" fill="#8a5a5a"/><circle cx="265.8" cy="104.0" r="3" fill="#8a5a5a"/><circle cx="281.1" cy="104.0" r="3" fill="#8a5a5a"/><circle cx="296.4" cy="104.0" r="3" fill="#8a5a5a"/><circle cx="311.7" cy="104.0" r="3" fill="#8a5a5a"/><circle cx="327.0" cy="104.0" r="3" fill="#8a5a5a"/><circle cx="342.3" cy="104.0" r="3" fill="#8a5a5a"/><circle cx="357.7" cy="104.0" r="3" fill="#8a5a5a"/><circle cx="373.0" cy="104.0" r="3" fill="#8a5a5a"/><circle cx="388.3" cy="104.0" r="3" fill="#8a5a5a"/><circle cx="403.6" cy="104.0" r="3" fill="#8a5a5a"/><circle cx="418.9" cy="104.0" r="3" fill="#8a5a5a"/><circle cx="434.2" cy="104.0" r="3" fill="#8a5a5a"/><circle cx="449.6" cy="104.0" r="3" fill="#8a5a5a"/><circle cx="464.9" cy="104.0" r="3" fill="#8a5a5a"/><circle cx="480.2" cy="104.0" r="3" fill="#8a5a5a"/><circle cx="495.5" cy="104.0" r="3" fill="#8a5a5a"/><circle cx="510.8" cy="104.0" r="3" fill="#8a5a5a"/><circle cx="526.1" cy="104.0" r="3" fill="#8a5a5a"/><circle cx="541.5" cy="104.0" r="3" fill="#8a5a5a"/><circle cx="556.8" cy="104.0" r="3" fill="#8a5a5a"/><circle cx="572.1" cy="104.0" r="3" fill="#8a5a5a"/><circle cx="587.4" cy="104.0" r="3" fill="#8a5a5a"/><circle cx="602.7" cy="104.0" r="3" fill="#8a5a5a"/><circle cx="618.0" cy="104.0" r="3" fill="#8a5a5a"/><circle cx="633.4" cy="104.0" r="3" fill="#8a5a5a"/><circle cx="648.7" cy="104.0" r="3" fill="#8a5a5a"/><circle cx="664.0" cy="104.0" r="3" fill="#8a5a5a"/>
<polyline fill="none" stroke="#3fb950" stroke-width="2.5" stroke-linejoin="round" points="36.0,198.0 51.3,198.0 66.6,198.0 82.0,198.0 97.3,198.0 112.6,198.0 127.9,198.0 143.2,198.0 158.5,198.0 173.9,198.0 189.2,198.0 204.5,198.0 219.8,198.0 235.1,198.0 250.4,198.0 265.8,198.0 281.1,198.0 296.4,198.0 311.7,198.0 327.0,198.0 342.3,198.0 357.7,198.0 373.0,198.0 388.3,198.0 403.6,198.0 418.9,198.0 434.2,198.0 449.6,198.0 464.9,198.0 480.2,198.0 495.5,198.0 510.8,198.0 526.1,198.0 541.5,198.0 556.8,198.0 572.1,198.0 587.4,198.0 602.7,198.0 618.0,198.0 633.4,198.0 648.7,198.0 664.0,198.0"/><circle cx="36.0" cy="198.0" r="3" fill="#3fb950"/><circle cx="51.3" cy="198.0" r="3" fill="#3fb950"/><circle cx="66.6" cy="198.0" r="3" fill="#3fb950"/><circle cx="82.0" cy="198.0" r="3" fill="#3fb950"/><circle cx="97.3" cy="198.0" r="3" fill="#3fb950"/><circle cx="112.6" cy="198.0" r="3" fill="#3fb950"/><circle cx="127.9" cy="198.0" r="3" fill="#3fb950"/><circle cx="143.2" cy="198.0" r="3" fill="#3fb950"/><circle cx="158.5" cy="198.0" r="3" fill="#3fb950"/><circle cx="173.9" cy="198.0" r="3" fill="#3fb950"/><circle cx="189.2" cy="198.0" r="3" fill="#3fb950"/><circle cx="204.5" cy="198.0" r="3" fill="#3fb950"/><circle cx="219.8" cy="198.0" r="3" fill="#3fb950"/><circle cx="235.1" cy="198.0" r="3" fill="#3fb950"/><circle cx="250.4" cy="198.0" r="3" fill="#3fb950"/><circle cx="265.8" cy="198.0" r="3" fill="#3fb950"/><circle cx="281.1" cy="198.0" r="3" fill="#3fb950"/><circle cx="296.4" cy="198.0" r="3" fill="#3fb950"/><circle cx="311.7" cy="198.0" r="3" fill="#3fb950"/><circle cx="327.0" cy="198.0" r="3" fill="#3fb950"/><circle cx="342.3" cy="198.0" r="3" fill="#3fb950"/><circle cx="357.7" cy="198.0" r="3" fill="#3fb950"/><circle cx="373.0" cy="198.0" r="3" fill="#3fb950"/><circle cx="388.3" cy="198.0" r="3" fill="#3fb950"/><circle cx="403.6" cy="198.0" r="3" fill="#3fb950"/><circle cx="418.9" cy="198.0" r="3" fill="#3fb950"/><circle cx="434.2" cy="198.0" r="3" fill="#3fb950"/><circle cx="449.6" cy="198.0" r="3" fill="#3fb950"/><circle cx="464.9" cy="198.0" r="3" fill="#3fb950"/><circle cx="480.2" cy="198.0" r="3" fill="#3fb950"/><circle cx="495.5" cy="198.0" r="3" fill="#3fb950"/><circle cx="510.8" cy="198.0" r="3" fill="#3fb950"/><circle cx="526.1" cy="198.0" r="3" fill="#3fb950"/><circle cx="541.5" cy="198.0" r="3" fill="#3fb950"/><circle cx="556.8" cy="198.0" r="3" fill="#3fb950"/><circle cx="572.1" cy="198.0" r="3" fill="#3fb950"/><circle cx="587.4" cy="198.0" r="3" fill="#3fb950"/><circle cx="602.7" cy="198.0" r="3" fill="#3fb950"/><circle cx="618.0" cy="198.0" r="3" fill="#3fb950"/><circle cx="633.4" cy="198.0" r="3" fill="#3fb950"/><circle cx="648.7" cy="198.0" r="3" fill="#3fb950"/><circle cx="664.0" cy="198.0" r="3" fill="#3fb950"/>
<polyline fill="none" stroke="#4aa3ff" stroke-width="2.5" stroke-linejoin="round" points="36.0,102.6 51.3,102.6 66.6,102.6 82.0,102.6 97.3,102.6 112.6,102.6 127.9,102.6 143.2,102.6 158.5,102.6 173.9,102.6 189.2,102.6 204.5,102.6 219.8,102.6 235.1,102.6 250.4,102.6 265.8,88.2 281.1,81.4 296.4,76.3 311.7,76.3 327.0,61.2 342.3,61.2 357.7,61.2 373.0,49.3 388.3,49.3 403.6,49.3 418.9,43.9 434.2,43.2 449.6,43.2 464.9,42.5 480.2,42.5 495.5,41.4 510.8,39.2 526.1,36.7 541.5,36.0 556.8,36.0 572.1,36.0 587.4,36.0 602.7,36.0 618.0,36.0 633.4,36.0 648.7,36.0 664.0,36.0"/><circle cx="36.0" cy="102.6" r="3" fill="#4aa3ff"/><circle cx="51.3" cy="102.6" r="3" fill="#4aa3ff"/><circle cx="66.6" cy="102.6" r="3" fill="#4aa3ff"/><circle cx="82.0" cy="102.6" r="3" fill="#4aa3ff"/><circle cx="97.3" cy="102.6" r="3" fill="#4aa3ff"/><circle cx="112.6" cy="102.6" r="3" fill="#4aa3ff"/><circle cx="127.9" cy="102.6" r="3" fill="#4aa3ff"/><circle cx="143.2" cy="102.6" r="3" fill="#4aa3ff"/><circle cx="158.5" cy="102.6" r="3" fill="#4aa3ff"/><circle cx="173.9" cy="102.6" r="3" fill="#4aa3ff"/><circle cx="189.2" cy="102.6" r="3" fill="#4aa3ff"/><circle cx="204.5" cy="102.6" r="3" fill="#4aa3ff"/><circle cx="219.8" cy="102.6" r="3" fill="#4aa3ff"/><circle cx="235.1" cy="102.6" r="3" fill="#4aa3ff"/><circle cx="250.4" cy="102.6" r="3" fill="#4aa3ff"/><circle cx="265.8" cy="88.2" r="3" fill="#4aa3ff"/><circle cx="281.1" cy="81.4" r="3" fill="#4aa3ff"/><circle cx="296.4" cy="76.3" r="3" fill="#4aa3ff"/><circle cx="311.7" cy="76.3" r="3" fill="#4aa3ff"/><circle cx="327.0" cy="61.2" r="3" fill="#4aa3ff"/><circle cx="342.3" cy="61.2" r="3" fill="#4aa3ff"/><circle cx="357.7" cy="61.2" r="3" fill="#4aa3ff"/><circle cx="373.0" cy="49.3" r="3" fill="#4aa3ff"/><circle cx="388.3" cy="49.3" r="3" fill="#4aa3ff"/><circle cx="403.6" cy="49.3" r="3" fill="#4aa3ff"/><circle cx="418.9" cy="43.9" r="3" fill="#4aa3ff"/><circle cx="434.2" cy="43.2" r="3" fill="#4aa3ff"/><circle cx="449.6" cy="43.2" r="3" fill="#4aa3ff"/><circle cx="464.9" cy="42.5" r="3" fill="#4aa3ff"/><circle cx="480.2" cy="42.5" r="3" fill="#4aa3ff"/><circle cx="495.5" cy="41.4" r="3" fill="#4aa3ff"/><circle cx="510.8" cy="39.2" r="3" fill="#4aa3ff"/><circle cx="526.1" cy="36.7" r="3" fill="#4aa3ff"/><circle cx="541.5" cy="36.0" r="3" fill="#4aa3ff"/><circle cx="556.8" cy="36.0" r="3" fill="#4aa3ff"/><circle cx="572.1" cy="36.0" r="3" fill="#4aa3ff"/><circle cx="587.4" cy="36.0" r="3" fill="#4aa3ff"/><circle cx="602.7" cy="36.0" r="3" fill="#4aa3ff"/><circle cx="618.0" cy="36.0" r="3" fill="#4aa3ff"/><circle cx="633.4" cy="36.0" r="3" fill="#4aa3ff"/><circle cx="648.7" cy="36.0" r="3" fill="#4aa3ff"/><circle cx="664.0" cy="36.0" r="3" fill="#4aa3ff"/>
<text x="36" y="225" fill="#6b7280" font-size="11">2026-06-26</text>
<text x="664" y="225" fill="#6b7280" font-size="11" text-anchor="end">2026-07-01</text>
<text x="36" y="212" font-family="system-ui,sans-serif" font-size="11">
<tspan fill="#4aa3ff">&#9679; open FPs</tspan>  <tspan fill="#3fb950">&#9679; closed (Anthropic acting)</tspan>  <tspan fill="#8a5a5a">&#9679; harness withdrawn</tspan></text>
<text x="664" y="22" text-anchor="end" font-family="system-ui,sans-serif" font-size="12">
<tspan fill="#4aa3ff">open 450</tspan>  <tspan fill="#3fb950">closed 0</tspan>  <tspan fill="#8a5a5a">harness 261</tspan></text>
</svg>