<svg xmlns="http://www.w3.org/2000/svg" width="700" height="234" viewBox="0 0 700 234" role="img">
<rect width="700" height="234" rx="12" fill="#16181d"/>
<text x="36" y="22" fill="#e8eaed" font-family="system-ui,sans-serif" font-size="14" font-weight="700">Is Anthropic acting? cyber/aup false positives over time</text>
<line x1="36" y1="198.0" x2="664" y2="198.0" stroke="#2a2e37" stroke-width="1"/><text x="30" y="202.0" fill="#6b7280" font-size="11" text-anchor="end">0</text><line x1="36" y1="117.0" x2="664" y2="117.0" stroke="#2a2e37" stroke-width="1"/><text x="30" y="121.0" fill="#6b7280" font-size="11" text-anchor="end">400</text><line x1="36" y1="36.0" x2="664" y2="36.0" stroke="#2a2e37" stroke-width="1"/><text x="30" y="40.0" fill="#6b7280" font-size="11" text-anchor="end">800</text>

<polyline fill="none" stroke="#8a5a5a" stroke-width="2.5" stroke-linejoin="round" points="36.0,145.1 40.4,145.1 44.8,145.1 49.3,145.1 53.7,145.1 58.1,145.1 62.5,145.1 67.0,145.1 71.4,145.1 75.8,145.1 80.2,145.1 84.6,145.1 89.1,145.1 93.5,145.1 97.9,145.1 102.3,145.1 106.8,145.1 111.2,145.1 115.6,145.1 120.0,145.1 124.5,145.1 128.9,145.1 133.3,145.1 137.7,145.1 142.1,145.1 146.6,145.1 151.0,145.1 155.4,145.1 159.8,145.1 164.3,145.1 168.7,145.1 173.1,145.1 177.5,145.1 181.9,145.1 186.4,145.1 190.8,145.1 195.2,145.1 199.6,145.1 204.1,145.1 208.5,145.1 212.9,145.1 217.3,145.1 221.7,145.1 226.2,145.1 230.6,145.1 235.0,145.1 239.4,145.1 243.9,145.1 248.3,145.1 252.7,145.1 257.1,155.7 261.5,155.7 266.0,155.7 270.4,155.7 274.8,155.7 279.2,155.7 283.7,155.7 288.1,155.7 292.5,155.7 296.9,155.7 301.4,155.7 305.8,155.7 310.2,155.7 314.6,155.7 319.0,155.7 323.5,155.7 327.9,155.7 332.3,155.7 336.7,155.7 341.2,155.7 345.6,155.7 350.0,155.7 354.4,155.7 358.8,155.7 363.3,155.7 367.7,155.7 372.1,155.7 376.5,155.7 381.0,155.7 385.4,155.7 389.8,155.7 394.2,155.7 398.6,155.7 403.1,155.7 407.5,167.6 411.9,167.6 416.3,170.3 420.8,170.3 425.2,170.5 429.6,170.7 434.0,170.7 438.5,170.9 442.9,172.7 447.3,180.6 451.7,181.8 456.1,189.1 460.6,190.5 465.0,195.2 469.4,198.0 473.8,198.0 478.3,198.0 482.7,198.0 487.1,198.0 491.5,198.0 495.9,198.0 500.4,198.0 504.8,198.0 509.2,198.0 513.6,198.0 518.1,198.0 522.5,198.0 526.9,198.0 531.3,198.0 535.7,198.0 540.2,198.0 544.6,198.0 549.0,198.0 553.4,198.0 557.9,198.0 562.3,198.0 566.7,198.0 571.1,198.0 575.5,198.0 580.0,198.0 584.4,198.0 588.8,198.0 593.2,198.0 597.7,198.0 602.1,198.0 606.5,198.0 610.9,198.0 615.4,198.0 619.8,198.0 624.2,198.0 628.6,198.0 633.0,198.0 637.5,198.0 641.9,198.0 646.3,198.0 650.7,198.0 655.2,198.0 659.6,198.0 664.0,198.0"/><circle cx="36.0" cy="145.1" r="3" fill="#8a5a5a"/><circle cx="40.4" cy="145.1" r="3" fill="#8a5a5a"/><circle cx="44.8" cy="145.1" r="3" fill="#8a5a5a"/><circle cx="49.3" cy="145.1" r="3" fill="#8a5a5a"/><circle cx="53.7" cy="145.1" r="3" fill="#8a5a5a"/><circle cx="58.1" cy="145.1" r="3" fill="#8a5a5a"/><circle cx="62.5" cy="145.1" r="3" fill="#8a5a5a"/><circle cx="67.0" cy="145.1" r="3" fill="#8a5a5a"/><circle cx="71.4" cy="145.1" r="3" fill="#8a5a5a"/><circle cx="75.8" cy="145.1" r="3" fill="#8a5a5a"/><circle cx="80.2" cy="145.1" r="3" fill="#8a5a5a"/><circle cx="84.6" cy="145.1" r="3" fill="#8a5a5a"/><circle cx="89.1" cy="145.1" r="3" fill="#8a5a5a"/><circle cx="93.5" cy="145.1" r="3" fill="#8a5a5a"/><circle cx="97.9" cy="145.1" r="3" fill="#8a5a5a"/><circle cx="102.3" cy="145.1" r="3" fill="#8a5a5a"/><circle cx="106.8" cy="145.1" r="3" fill="#8a5a5a"/><circle cx="111.2" cy="145.1" r="3" fill="#8a5a5a"/><circle cx="115.6" cy="145.1" r="3" fill="#8a5a5a"/><circle cx="120.0" cy="145.1" r="3" fill="#8a5a5a"/><circle cx="124.5" cy="145.1" r="3" fill="#8a5a5a"/><circle cx="128.9" cy="145.1" r="3" fill="#8a5a5a"/><circle cx="133.3" cy="145.1" r="3" fill="#8a5a5a"/><circle cx="137.7" cy="145.1" r="3" fill="#8a5a5a"/><circle cx="142.1" cy="145.1" r="3" fill="#8a5a5a"/><circle cx="146.6" cy="145.1" r="3" fill="#8a5a5a"/><circle cx="151.0" cy="145.1" r="3" fill="#8a5a5a"/><circle cx="155.4" cy="145.1" r="3" fill="#8a5a5a"/><circle cx="159.8" cy="145.1" r="3" fill="#8a5a5a"/><circle cx="164.3" cy="145.1" r="3" fill="#8a5a5a"/><circle cx="168.7" cy="145.1" r="3" fill="#8a5a5a"/><circle cx="173.1" cy="145.1" r="3" fill="#8a5a5a"/><circle cx="177.5" cy="145.1" r="3" fill="#8a5a5a"/><circle cx="181.9" cy="145.1" r="3" fill="#8a5a5a"/><circle cx="186.4" cy="145.1" r="3" fill="#8a5a5a"/><circle cx="190.8" cy="145.1" r="3" fill="#8a5a5a"/><circle cx="195.2" cy="145.1" r="3" fill="#8a5a5a"/><circle cx="199.6" cy="145.1" r="3" fill="#8a5a5a"/><circle cx="204.1" cy="145.1" r="3" fill="#8a5a5a"/><circle cx="208.5" cy="145.1" r="3" fill="#8a5a5a"/><circle cx="212.9" cy="145.1" r="3" fill="#8a5a5a"/><circle cx="217.3" cy="145.1" r="3" fill="#8a5a5a"/><circle cx="221.7" cy="145.1" r="3" fill="#8a5a5a"/><circle cx="226.2" cy="145.1" r="3" fill="#8a5a5a"/><circle cx="230.6" cy="145.1" r="3" fill="#8a5a5a"/><circle cx="235.0" cy="145.1" r="3" fill="#8a5a5a"/><circle cx="239.4" cy="145.1" r="3" fill="#8a5a5a"/><circle cx="243.9" cy="145.1" r="3" fill="#8a5a5a"/><circle cx="248.3" cy="145.1" r="3" fill="#8a5a5a"/><circle cx="252.7" cy="145.1" r="3" fill="#8a5a5a"/><circle cx="257.1" cy="155.7" r="3" fill="#8a5a5a"/><circle cx="261.5" cy="155.7" r="3" fill="#8a5a5a"/><circle cx="266.0" cy="155.7" r="3" fill="#8a5a5a"/><circle cx="270.4" cy="155.7" r="3" fill="#8a5a5a"/><circle cx="274.8" cy="155.7" r="3" fill="#8a5a5a"/><circle cx="279.2" cy="155.7" r="3" fill="#8a5a5a"/><circle cx="283.7" cy="155.7" r="3" fill="#8a5a5a"/><circle cx="288.1" cy="155.7" r="3" fill="#8a5a5a"/><circle cx="292.5" cy="155.7" r="3" fill="#8a5a5a"/><circle cx="296.9" cy="155.7" r="3" fill="#8a5a5a"/><circle cx="301.4" cy="155.7" r="3" fill="#8a5a5a"/><circle cx="305.8" cy="155.7" r="3" fill="#8a5a5a"/><circle cx="310.2" cy="155.7" r="3" fill="#8a5a5a"/><circle cx="314.6" cy="155.7" r="3" fill="#8a5a5a"/><circle cx="319.0" cy="155.7" r="3" fill="#8a5a5a"/><circle cx="323.5" cy="155.7" r="3" fill="#8a5a5a"/><circle cx="327.9" cy="155.7" r="3" fill="#8a5a5a"/><circle cx="332.3" cy="155.7" r="3" fill="#8a5a5a"/><circle cx="336.7" cy="155.7" r="3" fill="#8a5a5a"/><circle cx="341.2" cy="155.7" r="3" fill="#8a5a5a"/><circle cx="345.6" cy="155.7" r="3" fill="#8a5a5a"/><circle cx="350.0" cy="155.7" r="3" fill="#8a5a5a"/><circle cx="354.4" cy="155.7" r="3" fill="#8a5a5a"/><circle cx="358.8" cy="155.7" r="3" fill="#8a5a5a"/><circle cx="363.3" cy="155.7" r="3" fill="#8a5a5a"/><circle cx="367.7" cy="155.7" r="3" fill="#8a5a5a"/><circle cx="372.1" cy="155.7" r="3" fill="#8a5a5a"/><circle cx="376.5" cy="155.7" r="3" fill="#8a5a5a"/><circle cx="381.0" cy="155.7" r="3" fill="#8a5a5a"/><circle cx="385.4" cy="155.7" r="3" fill="#8a5a5a"/><circle cx="389.8" cy="155.7" r="3" fill="#8a5a5a"/><circle cx="394.2" cy="155.7" r="3" fill="#8a5a5a"/><circle cx="398.6" cy="155.7" r="3" fill="#8a5a5a"/><circle cx="403.1" cy="155.7" r="3" fill="#8a5a5a"/><circle cx="407.5" cy="167.6" r="3" fill="#8a5a5a"/><circle cx="411.9" cy="167.6" r="3" fill="#8a5a5a"/><circle cx="416.3" cy="170.3" r="3" fill="#8a5a5a"/><circle cx="420.8" cy="170.3" r="3" fill="#8a5a5a"/><circle cx="425.2" cy="170.5" r="3" fill="#8a5a5a"/><circle cx="429.6" cy="170.7" r="3" fill="#8a5a5a"/><circle cx="434.0" cy="170.7" r="3" fill="#8a5a5a"/><circle cx="438.5" cy="170.9" r="3" fill="#8a5a5a"/><circle cx="442.9" cy="172.7" r="3" fill="#8a5a5a"/><circle cx="447.3" cy="180.6" r="3" fill="#8a5a5a"/><circle cx="451.7" cy="181.8" r="3" fill="#8a5a5a"/><circle cx="456.1" cy="189.1" r="3" fill="#8a5a5a"/><circle cx="460.6" cy="190.5" r="3" fill="#8a5a5a"/><circle cx="465.0" cy="195.2" r="3" fill="#8a5a5a"/><circle cx="469.4" cy="198.0" r="3" fill="#8a5a5a"/><circle cx="473.8" cy="198.0" r="3" fill="#8a5a5a"/><circle cx="478.3" cy="198.0" r="3" fill="#8a5a5a"/><circle cx="482.7" cy="198.0" r="3" fill="#8a5a5a"/><circle cx="487.1" cy="198.0" r="3" fill="#8a5a5a"/><circle cx="491.5" cy="198.0" r="3" fill="#8a5a5a"/><circle cx="495.9" cy="198.0" r="3" fill="#8a5a5a"/><circle cx="500.4" cy="198.0" r="3" fill="#8a5a5a"/><circle cx="504.8" cy="198.0" r="3" fill="#8a5a5a"/><circle cx="509.2" cy="198.0" r="3" fill="#8a5a5a"/><circle cx="513.6" cy="198.0" r="3" fill="#8a5a5a"/><circle cx="518.1" cy="198.0" r="3" fill="#8a5a5a"/><circle cx="522.5" cy="198.0" r="3" fill="#8a5a5a"/><circle cx="526.9" cy="198.0" r="3" fill="#8a5a5a"/><circle cx="531.3" cy="198.0" r="3" fill="#8a5a5a"/><circle cx="535.7" cy="198.0" r="3" fill="#8a5a5a"/><circle cx="540.2" cy="198.0" r="3" fill="#8a5a5a"/><circle cx="544.6" cy="198.0" r="3" fill="#8a5a5a"/><circle cx="549.0" cy="198.0" r="3" fill="#8a5a5a"/><circle cx="553.4" cy="198.0" r="3" fill="#8a5a5a"/><circle cx="557.9" cy="198.0" r="3" fill="#8a5a5a"/><circle cx="562.3" cy="198.0" r="3" fill="#8a5a5a"/><circle cx="566.7" cy="198.0" r="3" fill="#8a5a5a"/><circle cx="571.1" cy="198.0" r="3" fill="#8a5a5a"/><circle cx="575.5" cy="198.0" r="3" fill="#8a5a5a"/><circle cx="580.0" cy="198.0" r="3" fill="#8a5a5a"/><circle cx="584.4" cy="198.0" r="3" fill="#8a5a5a"/><circle cx="588.8" cy="198.0" r="3" fill="#8a5a5a"/><circle cx="593.2" cy="198.0" r="3" fill="#8a5a5a"/><circle cx="597.7" cy="198.0" r="3" fill="#8a5a5a"/><circle cx="602.1" cy="198.0" r="3" fill="#8a5a5a"/><circle cx="606.5" cy="198.0" r="3" fill="#8a5a5a"/><circle cx="610.9" cy="198.0" r="3" fill="#8a5a5a"/><circle cx="615.4" cy="198.0" r="3" fill="#8a5a5a"/><circle cx="619.8" cy="198.0" r="3" fill="#8a5a5a"/><circle cx="624.2" cy="198.0" r="3" fill="#8a5a5a"/><circle cx="628.6" cy="198.0" r="3" fill="#8a5a5a"/><circle cx="633.0" cy="198.0" r="3" fill="#8a5a5a"/><circle cx="637.5" cy="198.0" r="3" fill="#8a5a5a"/><circle cx="641.9" cy="198.0" r="3" fill="#8a5a5a"/><circle cx="646.3" cy="198.0" r="3" fill="#8a5a5a"/><circle cx="650.7" cy="198.0" r="3" fill="#8a5a5a"/><circle cx="655.2" cy="198.0" r="3" fill="#8a5a5a"/><circle cx="659.6" cy="198.0" r="3" fill="#8a5a5a"/><circle cx="664.0" cy="198.0" r="3" fill="#8a5a5a"/>
<polyline fill="none" stroke="#3fb950" stroke-width="2.5" stroke-linejoin="round" points="36.0,198.0 40.4,198.0 44.8,198.0 49.3,198.0 53.7,198.0 58.1,198.0 62.5,198.0 67.0,198.0 71.4,198.0 75.8,198.0 80.2,198.0 84.6,198.0 89.1,198.0 93.5,198.0 97.9,198.0 102.3,198.0 106.8,198.0 111.2,198.0 115.6,198.0 120.0,198.0 124.5,198.0 128.9,198.0 133.3,198.0 137.7,198.0 142.1,198.0 146.6,198.0 151.0,198.0 155.4,198.0 159.8,198.0 164.3,198.0 168.7,198.0 173.1,198.0 177.5,198.0 181.9,198.0 186.4,198.0 190.8,198.0 195.2,198.0 199.6,198.0 204.1,198.0 208.5,198.0 212.9,198.0 217.3,198.0 221.7,198.0 226.2,191.7 230.6,191.7 235.0,191.7 239.4,191.7 243.9,191.7 248.3,191.7 252.7,191.7 257.1,192.9 261.5,192.9 266.0,190.7 270.4,190.7 274.8,190.7 279.2,190.7 283.7,190.7 288.1,190.5 292.5,190.5 296.9,190.5 301.4,190.3 305.8,190.3 310.2,190.3 314.6,190.3 319.0,190.3 323.5,190.3 327.9,190.3 332.3,190.3 336.7,190.3 341.2,190.3 345.6,190.3 350.0,190.3 354.4,190.3 358.8,190.3 363.3,190.3 367.7,190.3 372.1,190.3 376.5,190.3 381.0,190.3 385.4,190.3 389.8,190.3 394.2,189.3 398.6,189.3 403.1,189.3 407.5,190.7 411.9,190.7 416.3,190.7 420.8,190.7 425.2,190.7 429.6,190.7 434.0,190.7 438.5,190.7 442.9,190.7 447.3,190.9 451.7,190.9 456.1,190.9 460.6,194.2 465.0,196.8 469.4,198.0 473.8,198.0 478.3,198.0 482.7,198.0 487.1,198.0 491.5,198.0 495.9,198.0 500.4,198.0 504.8,198.0 509.2,198.0 513.6,198.0 518.1,198.0 522.5,198.0 526.9,198.0 531.3,198.0 535.7,198.0 540.2,198.0 544.6,198.0 549.0,198.0 553.4,198.0 557.9,198.0 562.3,198.0 566.7,198.0 571.1,198.0 575.5,198.0 580.0,198.0 584.4,198.0 588.8,198.0 593.2,198.0 597.7,198.0 602.1,198.0 606.5,198.0 610.9,198.0 615.4,198.0 619.8,198.0 624.2,198.0 628.6,198.0 633.0,198.0 637.5,198.0 641.9,198.0 646.3,198.0 650.7,198.0 655.2,198.0 659.6,198.0 664.0,198.0"/><circle cx="36.0" cy="198.0" r="3" fill="#3fb950"/><circle cx="40.4" cy="198.0" r="3" fill="#3fb950"/><circle cx="44.8" cy="198.0" r="3" fill="#3fb950"/><circle cx="49.3" cy="198.0" r="3" fill="#3fb950"/><circle cx="53.7" cy="198.0" r="3" fill="#3fb950"/><circle cx="58.1" cy="198.0" r="3" fill="#3fb950"/><circle cx="62.5" cy="198.0" r="3" fill="#3fb950"/><circle cx="67.0" cy="198.0" r="3" fill="#3fb950"/><circle cx="71.4" cy="198.0" r="3" fill="#3fb950"/><circle cx="75.8" cy="198.0" r="3" fill="#3fb950"/><circle cx="80.2" cy="198.0" r="3" fill="#3fb950"/><circle cx="84.6" cy="198.0" r="3" fill="#3fb950"/><circle cx="89.1" cy="198.0" r="3" fill="#3fb950"/><circle cx="93.5" cy="198.0" r="3" fill="#3fb950"/><circle cx="97.9" cy="198.0" r="3" fill="#3fb950"/><circle cx="102.3" cy="198.0" r="3" fill="#3fb950"/><circle cx="106.8" cy="198.0" r="3" fill="#3fb950"/><circle cx="111.2" cy="198.0" r="3" fill="#3fb950"/><circle cx="115.6" cy="198.0" r="3" fill="#3fb950"/><circle cx="120.0" cy="198.0" r="3" fill="#3fb950"/><circle cx="124.5" cy="198.0" r="3" fill="#3fb950"/><circle cx="128.9" cy="198.0" r="3" fill="#3fb950"/><circle cx="133.3" cy="198.0" r="3" fill="#3fb950"/><circle cx="137.7" cy="198.0" r="3" fill="#3fb950"/><circle cx="142.1" cy="198.0" r="3" fill="#3fb950"/><circle cx="146.6" cy="198.0" r="3" fill="#3fb950"/><circle cx="151.0" cy="198.0" r="3" fill="#3fb950"/><circle cx="155.4" cy="198.0" r="3" fill="#3fb950"/><circle cx="159.8" cy="198.0" r="3" fill="#3fb950"/><circle cx="164.3" cy="198.0" r="3" fill="#3fb950"/><circle cx="168.7" cy="198.0" r="3" fill="#3fb950"/><circle cx="173.1" cy="198.0" r="3" fill="#3fb950"/><circle cx="177.5" cy="198.0" r="3" fill="#3fb950"/><circle cx="181.9" cy="198.0" r="3" fill="#3fb950"/><circle cx="186.4" cy="198.0" r="3" fill="#3fb950"/><circle cx="190.8" cy="198.0" r="3" fill="#3fb950"/><circle cx="195.2" cy="198.0" r="3" fill="#3fb950"/><circle cx="199.6" cy="198.0" r="3" fill="#3fb950"/><circle cx="204.1" cy="198.0" r="3" fill="#3fb950"/><circle cx="208.5" cy="198.0" r="3" fill="#3fb950"/><circle cx="212.9" cy="198.0" r="3" fill="#3fb950"/><circle cx="217.3" cy="198.0" r="3" fill="#3fb950"/><circle cx="221.7" cy="198.0" r="3" fill="#3fb950"/><circle cx="226.2" cy="191.7" r="3" fill="#3fb950"/><circle cx="230.6" cy="191.7" r="3" fill="#3fb950"/><circle cx="235.0" cy="191.7" r="3" fill="#3fb950"/><circle cx="239.4" cy="191.7" r="3" fill="#3fb950"/><circle cx="243.9" cy="191.7" r="3" fill="#3fb950"/><circle cx="248.3" cy="191.7" r="3" fill="#3fb950"/><circle cx="252.7" cy="191.7" r="3" fill="#3fb950"/><circle cx="257.1" cy="192.9" r="3" fill="#3fb950"/><circle cx="261.5" cy="192.9" r="3" fill="#3fb950"/><circle cx="266.0" cy="190.7" r="3" fill="#3fb950"/><circle cx="270.4" cy="190.7" r="3" fill="#3fb950"/><circle cx="274.8" cy="190.7" r="3" fill="#3fb950"/><circle cx="279.2" cy="190.7" r="3" fill="#3fb950"/><circle cx="283.7" cy="190.7" r="3" fill="#3fb950"/><circle cx="288.1" cy="190.5" r="3" fill="#3fb950"/><circle cx="292.5" cy="190.5" r="3" fill="#3fb950"/><circle cx="296.9" cy="190.5" r="3" fill="#3fb950"/><circle cx="301.4" cy="190.3" r="3" fill="#3fb950"/><circle cx="305.8" cy="190.3" r="3" fill="#3fb950"/><circle cx="310.2" cy="190.3" r="3" fill="#3fb950"/><circle cx="314.6" cy="190.3" r="3" fill="#3fb950"/><circle cx="319.0" cy="190.3" r="3" fill="#3fb950"/><circle cx="323.5" cy="190.3" r="3" fill="#3fb950"/><circle cx="327.9" cy="190.3" r="3" fill="#3fb950"/><circle cx="332.3" cy="190.3" r="3" fill="#3fb950"/><circle cx="336.7" cy="190.3" r="3" fill="#3fb950"/><circle cx="341.2" cy="190.3" r="3" fill="#3fb950"/><circle cx="345.6" cy="190.3" r="3" fill="#3fb950"/><circle cx="350.0" cy="190.3" r="3" fill="#3fb950"/><circle cx="354.4" cy="190.3" r="3" fill="#3fb950"/><circle cx="358.8" cy="190.3" r="3" fill="#3fb950"/><circle cx="363.3" cy="190.3" r="3" fill="#3fb950"/><circle cx="367.7" cy="190.3" r="3" fill="#3fb950"/><circle cx="372.1" cy="190.3" r="3" fill="#3fb950"/><circle cx="376.5" cy="190.3" r="3" fill="#3fb950"/><circle cx="381.0" cy="190.3" r="3" fill="#3fb950"/><circle cx="385.4" cy="190.3" r="3" fill="#3fb950"/><circle cx="389.8" cy="190.3" r="3" fill="#3fb950"/><circle cx="394.2" cy="189.3" r="3" fill="#3fb950"/><circle cx="398.6" cy="189.3" r="3" fill="#3fb950"/><circle cx="403.1" cy="189.3" r="3" fill="#3fb950"/><circle cx="407.5" cy="190.7" r="3" fill="#3fb950"/><circle cx="411.9" cy="190.7" r="3" fill="#3fb950"/><circle cx="416.3" cy="190.7" r="3" fill="#3fb950"/><circle cx="420.8" cy="190.7" r="3" fill="#3fb950"/><circle cx="425.2" cy="190.7" r="3" fill="#3fb950"/><circle cx="429.6" cy="190.7" r="3" fill="#3fb950"/><circle cx="434.0" cy="190.7" r="3" fill="#3fb950"/><circle cx="438.5" cy="190.7" r="3" fill="#3fb950"/><circle cx="442.9" cy="190.7" r="3" fill="#3fb950"/><circle cx="447.3" cy="190.9" r="3" fill="#3fb950"/><circle cx="451.7" cy="190.9" r="3" fill="#3fb950"/><circle cx="456.1" cy="190.9" r="3" fill="#3fb950"/><circle cx="460.6" cy="194.2" r="3" fill="#3fb950"/><circle cx="465.0" cy="196.8" r="3" fill="#3fb950"/><circle cx="469.4" cy="198.0" r="3" fill="#3fb950"/><circle cx="473.8" cy="198.0" r="3" fill="#3fb950"/><circle cx="478.3" cy="198.0" r="3" fill="#3fb950"/><circle cx="482.7" cy="198.0" r="3" fill="#3fb950"/><circle cx="487.1" cy="198.0" r="3" fill="#3fb950"/><circle cx="491.5" cy="198.0" r="3" fill="#3fb950"/><circle cx="495.9" cy="198.0" r="3" fill="#3fb950"/><circle cx="500.4" cy="198.0" r="3" fill="#3fb950"/><circle cx="504.8" cy="198.0" r="3" fill="#3fb950"/><circle cx="509.2" cy="198.0" r="3" fill="#3fb950"/><circle cx="513.6" cy="198.0" r="3" fill="#3fb950"/><circle cx="518.1" cy="198.0" r="3" fill="#3fb950"/><circle cx="522.5" cy="198.0" r="3" fill="#3fb950"/><circle cx="526.9" cy="198.0" r="3" fill="#3fb950"/><circle cx="531.3" cy="198.0" r="3" fill="#3fb950"/><circle cx="535.7" cy="198.0" r="3" fill="#3fb950"/><circle cx="540.2" cy="198.0" r="3" fill="#3fb950"/><circle cx="544.6" cy="198.0" r="3" fill="#3fb950"/><circle cx="549.0" cy="198.0" r="3" fill="#3fb950"/><circle cx="553.4" cy="198.0" r="3" fill="#3fb950"/><circle cx="557.9" cy="198.0" r="3" fill="#3fb950"/><circle cx="562.3" cy="198.0" r="3" fill="#3fb950"/><circle cx="566.7" cy="198.0" r="3" fill="#3fb950"/><circle cx="571.1" cy="198.0" r="3" fill="#3fb950"/><circle cx="575.5" cy="198.0" r="3" fill="#3fb950"/><circle cx="580.0" cy="198.0" r="3" fill="#3fb950"/><circle cx="584.4" cy="198.0" r="3" fill="#3fb950"/><circle cx="588.8" cy="198.0" r="3" fill="#3fb950"/><circle cx="593.2" cy="198.0" r="3" fill="#3fb950"/><circle cx="597.7" cy="198.0" r="3" fill="#3fb950"/><circle cx="602.1" cy="198.0" r="3" fill="#3fb950"/><circle cx="606.5" cy="198.0" r="3" fill="#3fb950"/><circle cx="610.9" cy="198.0" r="3" fill="#3fb950"/><circle cx="615.4" cy="198.0" r="3" fill="#3fb950"/><circle cx="619.8" cy="198.0" r="3" fill="#3fb950"/><circle cx="624.2" cy="198.0" r="3" fill="#3fb950"/><circle cx="628.6" cy="198.0" r="3" fill="#3fb950"/><circle cx="633.0" cy="198.0" r="3" fill="#3fb950"/><circle cx="637.5" cy="198.0" r="3" fill="#3fb950"/><circle cx="641.9" cy="198.0" r="3" fill="#3fb950"/><circle cx="646.3" cy="198.0" r="3" fill="#3fb950"/><circle cx="650.7" cy="198.0" r="3" fill="#3fb950"/><circle cx="655.2" cy="198.0" r="3" fill="#3fb950"/><circle cx="659.6" cy="198.0" r="3" fill="#3fb950"/><circle cx="664.0" cy="198.0" r="3" fill="#3fb950"/>
<polyline fill="none" stroke="#4aa3ff" stroke-width="2.5" stroke-linejoin="round" points="36.0,144.3 40.4,144.3 44.8,144.3 49.3,144.3 53.7,144.3 58.1,144.3 62.5,144.3 67.0,144.3 71.4,144.3 75.8,144.3 80.2,144.3 84.6,144.3 89.1,144.3 93.5,144.3 97.9,144.3 102.3,136.2 106.8,132.4 111.2,129.6 115.6,129.6 120.0,121.0 124.5,121.0 128.9,121.0 133.3,114.4 137.7,114.4 142.1,114.4 146.6,111.3 151.0,110.9 155.4,110.9 159.8,110.5 164.3,110.5 168.7,109.9 173.1,108.7 177.5,107.3 181.9,106.9 186.4,106.9 190.8,106.9 195.2,106.9 199.6,106.9 204.1,106.9 208.5,106.9 212.9,106.9 217.3,106.9 221.7,106.9 226.2,113.2 230.6,113.2 235.0,113.2 239.4,113.2 243.9,113.2 248.3,110.7 252.7,105.3 257.1,83.4 261.5,83.4 266.0,85.6 270.4,85.6 274.8,85.6 279.2,85.6 283.7,85.6 288.1,85.8 292.5,85.8 296.9,85.8 301.4,86.0 305.8,86.0 310.2,86.0 314.6,86.0 319.0,86.0 323.5,86.0 327.9,86.0 332.3,86.0 336.7,86.0 341.2,86.0 345.6,86.0 350.0,86.0 354.4,86.0 358.8,86.0 363.3,86.0 367.7,86.0 372.1,86.0 376.5,86.0 381.0,86.0 385.4,86.0 389.8,86.0 394.2,87.0 398.6,87.0 403.1,87.0 407.5,73.7 411.9,73.7 416.3,71.0 420.8,71.0 425.2,70.8 429.6,70.6 434.0,70.6 438.5,70.4 442.9,68.6 447.3,60.5 451.7,59.3 456.1,52.0 460.6,47.3 465.0,40.1 469.4,36.0 473.8,36.0 478.3,36.0 482.7,36.0 487.1,36.0 491.5,36.0 495.9,36.0 500.4,36.0 504.8,36.0 509.2,36.0 513.6,36.0 518.1,36.0 522.5,36.0 526.9,36.0 531.3,36.0 535.7,36.0 540.2,36.0 544.6,36.0 549.0,36.0 553.4,36.0 557.9,36.0 562.3,36.0 566.7,36.0 571.1,36.0 575.5,36.0 580.0,36.0 584.4,36.0 588.8,36.0 593.2,36.0 597.7,36.0 602.1,36.0 606.5,36.0 610.9,36.0 615.4,36.0 619.8,36.0 624.2,36.0 628.6,36.0 633.0,36.0 637.5,36.0 641.9,36.0 646.3,36.0 650.7,36.0 655.2,36.0 659.6,36.0 664.0,36.0"/><circle cx="36.0" cy="144.3" r="3" fill="#4aa3ff"/><circle cx="40.4" cy="144.3" r="3" fill="#4aa3ff"/><circle cx="44.8" cy="144.3" r="3" fill="#4aa3ff"/><circle cx="49.3" cy="144.3" r="3" fill="#4aa3ff"/><circle cx="53.7" cy="144.3" r="3" fill="#4aa3ff"/><circle cx="58.1" cy="144.3" r="3" fill="#4aa3ff"/><circle cx="62.5" cy="144.3" r="3" fill="#4aa3ff"/><circle cx="67.0" cy="144.3" r="3" fill="#4aa3ff"/><circle cx="71.4" cy="144.3" r="3" fill="#4aa3ff"/><circle cx="75.8" cy="144.3" r="3" fill="#4aa3ff"/><circle cx="80.2" cy="144.3" r="3" fill="#4aa3ff"/><circle cx="84.6" cy="144.3" r="3" fill="#4aa3ff"/><circle cx="89.1" cy="144.3" r="3" fill="#4aa3ff"/><circle cx="93.5" cy="144.3" r="3" fill="#4aa3ff"/><circle cx="97.9" cy="144.3" r="3" fill="#4aa3ff"/><circle cx="102.3" cy="136.2" r="3" fill="#4aa3ff"/><circle cx="106.8" cy="132.4" r="3" fill="#4aa3ff"/><circle cx="111.2" cy="129.6" r="3" fill="#4aa3ff"/><circle cx="115.6" cy="129.6" r="3" fill="#4aa3ff"/><circle cx="120.0" cy="121.0" r="3" fill="#4aa3ff"/><circle cx="124.5" cy="121.0" r="3" fill="#4aa3ff"/><circle cx="128.9" cy="121.0" r="3" fill="#4aa3ff"/><circle cx="133.3" cy="114.4" r="3" fill="#4aa3ff"/><circle cx="137.7" cy="114.4" r="3" fill="#4aa3ff"/><circle cx="142.1" cy="114.4" r="3" fill="#4aa3ff"/><circle cx="146.6" cy="111.3" r="3" fill="#4aa3ff"/><circle cx="151.0" cy="110.9" r="3" fill="#4aa3ff"/><circle cx="155.4" cy="110.9" r="3" fill="#4aa3ff"/><circle cx="159.8" cy="110.5" r="3" fill="#4aa3ff"/><circle cx="164.3" cy="110.5" r="3" fill="#4aa3ff"/><circle cx="168.7" cy="109.9" r="3" fill="#4aa3ff"/><circle cx="173.1" cy="108.7" r="3" fill="#4aa3ff"/><circle cx="177.5" cy="107.3" r="3" fill="#4aa3ff"/><circle cx="181.9" cy="106.9" r="3" fill="#4aa3ff"/><circle cx="186.4" cy="106.9" r="3" fill="#4aa3ff"/><circle cx="190.8" cy="106.9" r="3" fill="#4aa3ff"/><circle cx="195.2" cy="106.9" r="3" fill="#4aa3ff"/><circle cx="199.6" cy="106.9" r="3" fill="#4aa3ff"/><circle cx="204.1" cy="106.9" r="3" fill="#4aa3ff"/><circle cx="208.5" cy="106.9" r="3" fill="#4aa3ff"/><circle cx="212.9" cy="106.9" r="3" fill="#4aa3ff"/><circle cx="217.3" cy="106.9" r="3" fill="#4aa3ff"/><circle cx="221.7" cy="106.9" r="3" fill="#4aa3ff"/><circle cx="226.2" cy="113.2" r="3" fill="#4aa3ff"/><circle cx="230.6" cy="113.2" r="3" fill="#4aa3ff"/><circle cx="235.0" cy="113.2" r="3" fill="#4aa3ff"/><circle cx="239.4" cy="113.2" r="3" fill="#4aa3ff"/><circle cx="243.9" cy="113.2" r="3" fill="#4aa3ff"/><circle cx="248.3" cy="110.7" r="3" fill="#4aa3ff"/><circle cx="252.7" cy="105.3" r="3" fill="#4aa3ff"/><circle cx="257.1" cy="83.4" r="3" fill="#4aa3ff"/><circle cx="261.5" cy="83.4" r="3" fill="#4aa3ff"/><circle cx="266.0" cy="85.6" r="3" fill="#4aa3ff"/><circle cx="270.4" cy="85.6" r="3" fill="#4aa3ff"/><circle cx="274.8" cy="85.6" r="3" fill="#4aa3ff"/><circle cx="279.2" cy="85.6" r="3" fill="#4aa3ff"/><circle cx="283.7" cy="85.6" r="3" fill="#4aa3ff"/><circle cx="288.1" cy="85.8" r="3" fill="#4aa3ff"/><circle cx="292.5" cy="85.8" r="3" fill="#4aa3ff"/><circle cx="296.9" cy="85.8" r="3" fill="#4aa3ff"/><circle cx="301.4" cy="86.0" r="3" fill="#4aa3ff"/><circle cx="305.8" cy="86.0" r="3" fill="#4aa3ff"/><circle cx="310.2" cy="86.0" r="3" fill="#4aa3ff"/><circle cx="314.6" cy="86.0" r="3" fill="#4aa3ff"/><circle cx="319.0" cy="86.0" r="3" fill="#4aa3ff"/><circle cx="323.5" cy="86.0" r="3" fill="#4aa3ff"/><circle cx="327.9" cy="86.0" r="3" fill="#4aa3ff"/><circle cx="332.3" cy="86.0" r="3" fill="#4aa3ff"/><circle cx="336.7" cy="86.0" r="3" fill="#4aa3ff"/><circle cx="341.2" cy="86.0" r="3" fill="#4aa3ff"/><circle cx="345.6" cy="86.0" r="3" fill="#4aa3ff"/><circle cx="350.0" cy="86.0" r="3" fill="#4aa3ff"/><circle cx="354.4" cy="86.0" r="3" fill="#4aa3ff"/><circle cx="358.8" cy="86.0" r="3" fill="#4aa3ff"/><circle cx="363.3" cy="86.0" r="3" fill="#4aa3ff"/><circle cx="367.7" cy="86.0" r="3" fill="#4aa3ff"/><circle cx="372.1" cy="86.0" r="3" fill="#4aa3ff"/><circle cx="376.5" cy="86.0" r="3" fill="#4aa3ff"/><circle cx="381.0" cy="86.0" r="3" fill="#4aa3ff"/><circle cx="385.4" cy="86.0" r="3" fill="#4aa3ff"/><circle cx="389.8" cy="86.0" r="3" fill="#4aa3ff"/><circle cx="394.2" cy="87.0" r="3" fill="#4aa3ff"/><circle cx="398.6" cy="87.0" r="3" fill="#4aa3ff"/><circle cx="403.1" cy="87.0" r="3" fill="#4aa3ff"/><circle cx="407.5" cy="73.7" r="3" fill="#4aa3ff"/><circle cx="411.9" cy="73.7" r="3" fill="#4aa3ff"/><circle cx="416.3" cy="71.0" r="3" fill="#4aa3ff"/><circle cx="420.8" cy="71.0" r="3" fill="#4aa3ff"/><circle cx="425.2" cy="70.8" r="3" fill="#4aa3ff"/><circle cx="429.6" cy="70.6" r="3" fill="#4aa3ff"/><circle cx="434.0" cy="70.6" r="3" fill="#4aa3ff"/><circle cx="438.5" cy="70.4" r="3" fill="#4aa3ff"/><circle cx="442.9" cy="68.6" r="3" fill="#4aa3ff"/><circle cx="447.3" cy="60.5" r="3" fill="#4aa3ff"/><circle cx="451.7" cy="59.3" r="3" fill="#4aa3ff"/><circle cx="456.1" cy="52.0" r="3" fill="#4aa3ff"/><circle cx="460.6" cy="47.3" r="3" fill="#4aa3ff"/><circle cx="465.0" cy="40.1" r="3" fill="#4aa3ff"/><circle cx="469.4" cy="36.0" r="3" fill="#4aa3ff"/><circle cx="473.8" cy="36.0" r="3" fill="#4aa3ff"/><circle cx="478.3" cy="36.0" r="3" fill="#4aa3ff"/><circle cx="482.7" cy="36.0" r="3" fill="#4aa3ff"/><circle cx="487.1" cy="36.0" r="3" fill="#4aa3ff"/><circle cx="491.5" cy="36.0" r="3" fill="#4aa3ff"/><circle cx="495.9" cy="36.0" r="3" fill="#4aa3ff"/><circle cx="500.4" cy="36.0" r="3" fill="#4aa3ff"/><circle cx="504.8" cy="36.0" r="3" fill="#4aa3ff"/><circle cx="509.2" cy="36.0" r="3" fill="#4aa3ff"/><circle cx="513.6" cy="36.0" r="3" fill="#4aa3ff"/><circle cx="518.1" cy="36.0" r="3" fill="#4aa3ff"/><circle cx="522.5" cy="36.0" r="3" fill="#4aa3ff"/><circle cx="526.9" cy="36.0" r="3" fill="#4aa3ff"/><circle cx="531.3" cy="36.0" r="3" fill="#4aa3ff"/><circle cx="535.7" cy="36.0" r="3" fill="#4aa3ff"/><circle cx="540.2" cy="36.0" r="3" fill="#4aa3ff"/><circle cx="544.6" cy="36.0" r="3" fill="#4aa3ff"/><circle cx="549.0" cy="36.0" r="3" fill="#4aa3ff"/><circle cx="553.4" cy="36.0" r="3" fill="#4aa3ff"/><circle cx="557.9" cy="36.0" r="3" fill="#4aa3ff"/><circle cx="562.3" cy="36.0" r="3" fill="#4aa3ff"/><circle cx="566.7" cy="36.0" r="3" fill="#4aa3ff"/><circle cx="571.1" cy="36.0" r="3" fill="#4aa3ff"/><circle cx="575.5" cy="36.0" r="3" fill="#4aa3ff"/><circle cx="580.0" cy="36.0" r="3" fill="#4aa3ff"/><circle cx="584.4" cy="36.0" r="3" fill="#4aa3ff"/><circle cx="588.8" cy="36.0" r="3" fill="#4aa3ff"/><circle cx="593.2" cy="36.0" r="3" fill="#4aa3ff"/><circle cx="597.7" cy="36.0" r="3" fill="#4aa3ff"/><circle cx="602.1" cy="36.0" r="3" fill="#4aa3ff"/><circle cx="606.5" cy="36.0" r="3" fill="#4aa3ff"/><circle cx="610.9" cy="36.0" r="3" fill="#4aa3ff"/><circle cx="615.4" cy="36.0" r="3" fill="#4aa3ff"/><circle cx="619.8" cy="36.0" r="3" fill="#4aa3ff"/><circle cx="624.2" cy="36.0" r="3" fill="#4aa3ff"/><circle cx="628.6" cy="36.0" r="3" fill="#4aa3ff"/><circle cx="633.0" cy="36.0" r="3" fill="#4aa3ff"/><circle cx="637.5" cy="36.0" r="3" fill="#4aa3ff"/><circle cx="641.9" cy="36.0" r="3" fill="#4aa3ff"/><circle cx="646.3" cy="36.0" r="3" fill="#4aa3ff"/><circle cx="650.7" cy="36.0" r="3" fill="#4aa3ff"/><circle cx="655.2" cy="36.0" r="3" fill="#4aa3ff"/><circle cx="659.6" cy="36.0" r="3" fill="#4aa3ff"/><circle cx="664.0" cy="36.0" r="3" fill="#4aa3ff"/>
<text x="36" y="225" fill="#6b7280" font-size="11">2026-06-26</text>
<text x="664" y="225" fill="#6b7280" font-size="11" text-anchor="end">2026-07-11</text>
<text x="36" y="212" font-family="system-ui,sans-serif" font-size="11">
<tspan fill="#4aa3ff">&#9679; open FPs</tspan>  <tspan fill="#3fb950">&#9679; closed (Anthropic acting)</tspan>  <tspan fill="#8a5a5a">&#9679; harness withdrawn</tspan></text>
<text x="664" y="22" text-anchor="end" font-family="system-ui,sans-serif" font-size="12">
<tspan fill="#4aa3ff">open 800</tspan>  <tspan fill="#3fb950">closed 0</tspan>  <tspan fill="#8a5a5a">harness 0</tspan></text>
</svg>