<svg xmlns="http://www.w3.org/2000/svg" width="700" height="234" viewBox="0 0 700 234" role="img">
<rect width="700" height="234" rx="12" fill="#16181d"/>
<text x="36" y="22" fill="#e8eaed" font-family="system-ui,sans-serif" font-size="14" font-weight="700">Is Anthropic acting? cyber/aup false positives over time</text>
<line x1="36" y1="198.0" x2="664" y2="198.0" stroke="#2a2e37" stroke-width="1"/><text x="30" y="202.0" fill="#6b7280" font-size="11" text-anchor="end">0</text><line x1="36" y1="117.0" x2="664" y2="117.0" stroke="#2a2e37" stroke-width="1"/><text x="30" y="121.0" fill="#6b7280" font-size="11" text-anchor="end">220</text><line x1="36" y1="36.0" x2="664" y2="36.0" stroke="#2a2e37" stroke-width="1"/><text x="30" y="40.0" fill="#6b7280" font-size="11" text-anchor="end">441</text>

<polyline fill="none" stroke="#8a5a5a" stroke-width="2.5" stroke-linejoin="round" points="36.0,102.1 56.3,102.1 76.5,102.1 96.8,102.1 117.0,102.1 137.3,102.1 157.5,102.1 177.8,102.1 198.1,102.1 218.3,102.1 238.6,102.1 258.8,102.1 279.1,102.1 299.4,102.1 319.6,102.1 339.9,102.1 360.1,102.1 380.4,102.1 400.6,102.1 420.9,102.1 441.2,102.1 461.4,102.1 481.7,102.1 501.9,102.1 522.2,102.1 542.5,102.1 562.7,102.1 583.0,102.1 603.2,102.1 623.5,102.1 643.7,102.1 664.0,102.1"/><circle cx="36.0" cy="102.1" r="3" fill="#8a5a5a"/><circle cx="56.3" cy="102.1" r="3" fill="#8a5a5a"/><circle cx="76.5" cy="102.1" r="3" fill="#8a5a5a"/><circle cx="96.8" cy="102.1" r="3" fill="#8a5a5a"/><circle cx="117.0" cy="102.1" r="3" fill="#8a5a5a"/><circle cx="137.3" cy="102.1" r="3" fill="#8a5a5a"/><circle cx="157.5" cy="102.1" r="3" fill="#8a5a5a"/><circle cx="177.8" cy="102.1" r="3" fill="#8a5a5a"/><circle cx="198.1" cy="102.1" r="3" fill="#8a5a5a"/><circle cx="218.3" cy="102.1" r="3" fill="#8a5a5a"/><circle cx="238.6" cy="102.1" r="3" fill="#8a5a5a"/><circle cx="258.8" cy="102.1" r="3" fill="#8a5a5a"/><circle cx="279.1" cy="102.1" r="3" fill="#8a5a5a"/><circle cx="299.4" cy="102.1" r="3" fill="#8a5a5a"/><circle cx="319.6" cy="102.1" r="3" fill="#8a5a5a"/><circle cx="339.9" cy="102.1" r="3" fill="#8a5a5a"/><circle cx="360.1" cy="102.1" r="3" fill="#8a5a5a"/><circle cx="380.4" cy="102.1" r="3" fill="#8a5a5a"/><circle cx="400.6" cy="102.1" r="3" fill="#8a5a5a"/><circle cx="420.9" cy="102.1" r="3" fill="#8a5a5a"/><circle cx="441.2" cy="102.1" r="3" fill="#8a5a5a"/><circle cx="461.4" cy="102.1" r="3" fill="#8a5a5a"/><circle cx="481.7" cy="102.1" r="3" fill="#8a5a5a"/><circle cx="501.9" cy="102.1" r="3" fill="#8a5a5a"/><circle cx="522.2" cy="102.1" r="3" fill="#8a5a5a"/><circle cx="542.5" cy="102.1" r="3" fill="#8a5a5a"/><circle cx="562.7" cy="102.1" r="3" fill="#8a5a5a"/><circle cx="583.0" cy="102.1" r="3" fill="#8a5a5a"/><circle cx="603.2" cy="102.1" r="3" fill="#8a5a5a"/><circle cx="623.5" cy="102.1" r="3" fill="#8a5a5a"/><circle cx="643.7" cy="102.1" r="3" fill="#8a5a5a"/><circle cx="664.0" cy="102.1" r="3" fill="#8a5a5a"/>
<polyline fill="none" stroke="#3fb950" stroke-width="2.5" stroke-linejoin="round" points="36.0,198.0 56.3,198.0 76.5,198.0 96.8,198.0 117.0,198.0 137.3,198.0 157.5,198.0 177.8,198.0 198.1,198.0 218.3,198.0 238.6,198.0 258.8,198.0 279.1,198.0 299.4,198.0 319.6,198.0 339.9,198.0 360.1,198.0 380.4,198.0 400.6,198.0 420.9,198.0 441.2,198.0 461.4,198.0 481.7,198.0 501.9,198.0 522.2,198.0 542.5,198.0 562.7,198.0 583.0,198.0 603.2,198.0 623.5,198.0 643.7,198.0 664.0,198.0"/><circle cx="36.0" cy="198.0" r="3" fill="#3fb950"/><circle cx="56.3" cy="198.0" r="3" fill="#3fb950"/><circle cx="76.5" cy="198.0" r="3" fill="#3fb950"/><circle cx="96.8" cy="198.0" r="3" fill="#3fb950"/><circle cx="117.0" cy="198.0" r="3" fill="#3fb950"/><circle cx="137.3" cy="198.0" r="3" fill="#3fb950"/><circle cx="157.5" cy="198.0" r="3" fill="#3fb950"/><circle cx="177.8" cy="198.0" r="3" fill="#3fb950"/><circle cx="198.1" cy="198.0" r="3" fill="#3fb950"/><circle cx="218.3" cy="198.0" r="3" fill="#3fb950"/><circle cx="238.6" cy="198.0" r="3" fill="#3fb950"/><circle cx="258.8" cy="198.0" r="3" fill="#3fb950"/><circle cx="279.1" cy="198.0" r="3" fill="#3fb950"/><circle cx="299.4" cy="198.0" r="3" fill="#3fb950"/><circle cx="319.6" cy="198.0" r="3" fill="#3fb950"/><circle cx="339.9" cy="198.0" r="3" fill="#3fb950"/><circle cx="360.1" cy="198.0" r="3" fill="#3fb950"/><circle cx="380.4" cy="198.0" r="3" fill="#3fb950"/><circle cx="400.6" cy="198.0" r="3" fill="#3fb950"/><circle cx="420.9" cy="198.0" r="3" fill="#3fb950"/><circle cx="441.2" cy="198.0" r="3" fill="#3fb950"/><circle cx="461.4" cy="198.0" r="3" fill="#3fb950"/><circle cx="481.7" cy="198.0" r="3" fill="#3fb950"/><circle cx="501.9" cy="198.0" r="3" fill="#3fb950"/><circle cx="522.2" cy="198.0" r="3" fill="#3fb950"/><circle cx="542.5" cy="198.0" r="3" fill="#3fb950"/><circle cx="562.7" cy="198.0" r="3" fill="#3fb950"/><circle cx="583.0" cy="198.0" r="3" fill="#3fb950"/><circle cx="603.2" cy="198.0" r="3" fill="#3fb950"/><circle cx="623.5" cy="198.0" r="3" fill="#3fb950"/><circle cx="643.7" cy="198.0" r="3" fill="#3fb950"/><circle cx="664.0" cy="198.0" r="3" fill="#3fb950"/>
<polyline fill="none" stroke="#4aa3ff" stroke-width="2.5" stroke-linejoin="round" points="36.0,100.7 56.3,100.7 76.5,100.7 96.8,100.7 117.0,100.7 137.3,100.7 157.5,100.7 177.8,100.7 198.1,100.7 218.3,100.7 238.6,100.7 258.8,100.7 279.1,100.7 299.4,100.7 319.6,100.7 339.9,86.0 360.1,79.0 380.4,73.8 400.6,73.8 420.9,58.4 441.2,58.4 461.4,58.4 481.7,46.3 501.9,46.3 522.2,46.3 542.5,40.8 562.7,40.0 583.0,40.0 603.2,39.3 623.5,39.3 643.7,38.2 664.0,36.0"/><circle cx="36.0" cy="100.7" r="3" fill="#4aa3ff"/><circle cx="56.3" cy="100.7" r="3" fill="#4aa3ff"/><circle cx="76.5" cy="100.7" r="3" fill="#4aa3ff"/><circle cx="96.8" cy="100.7" r="3" fill="#4aa3ff"/><circle cx="117.0" cy="100.7" r="3" fill="#4aa3ff"/><circle cx="137.3" cy="100.7" r="3" fill="#4aa3ff"/><circle cx="157.5" cy="100.7" r="3" fill="#4aa3ff"/><circle cx="177.8" cy="100.7" r="3" fill="#4aa3ff"/><circle cx="198.1" cy="100.7" r="3" fill="#4aa3ff"/><circle cx="218.3" cy="100.7" r="3" fill="#4aa3ff"/><circle cx="238.6" cy="100.7" r="3" fill="#4aa3ff"/><circle cx="258.8" cy="100.7" r="3" fill="#4aa3ff"/><circle cx="279.1" cy="100.7" r="3" fill="#4aa3ff"/><circle cx="299.4" cy="100.7" r="3" fill="#4aa3ff"/><circle cx="319.6" cy="100.7" r="3" fill="#4aa3ff"/><circle cx="339.9" cy="86.0" r="3" fill="#4aa3ff"/><circle cx="360.1" cy="79.0" r="3" fill="#4aa3ff"/><circle cx="380.4" cy="73.8" r="3" fill="#4aa3ff"/><circle cx="400.6" cy="73.8" r="3" fill="#4aa3ff"/><circle cx="420.9" cy="58.4" r="3" fill="#4aa3ff"/><circle cx="441.2" cy="58.4" r="3" fill="#4aa3ff"/><circle cx="461.4" cy="58.4" r="3" fill="#4aa3ff"/><circle cx="481.7" cy="46.3" r="3" fill="#4aa3ff"/><circle cx="501.9" cy="46.3" r="3" fill="#4aa3ff"/><circle cx="522.2" cy="46.3" r="3" fill="#4aa3ff"/><circle cx="542.5" cy="40.8" r="3" fill="#4aa3ff"/><circle cx="562.7" cy="40.0" r="3" fill="#4aa3ff"/><circle cx="583.0" cy="40.0" r="3" fill="#4aa3ff"/><circle cx="603.2" cy="39.3" r="3" fill="#4aa3ff"/><circle cx="623.5" cy="39.3" r="3" fill="#4aa3ff"/><circle cx="643.7" cy="38.2" r="3" fill="#4aa3ff"/><circle cx="664.0" cy="36.0" r="3" fill="#4aa3ff"/>
<text x="36" y="225" fill="#6b7280" font-size="11">2026-06-26</text>
<text x="664" y="225" fill="#6b7280" font-size="11" text-anchor="end">2026-06-29</text>
<text x="36" y="212" font-family="system-ui,sans-serif" font-size="11">
<tspan fill="#4aa3ff">&#9679; open FPs</tspan>  <tspan fill="#3fb950">&#9679; closed (Anthropic acting)</tspan>  <tspan fill="#8a5a5a">&#9679; harness withdrawn</tspan></text>
<text x="664" y="22" text-anchor="end" font-family="system-ui,sans-serif" font-size="12">
<tspan fill="#4aa3ff">open 441</tspan>  <tspan fill="#3fb950">closed 0</tspan>  <tspan fill="#8a5a5a">harness 261</tspan></text>
</svg>