<svg xmlns="http://www.w3.org/2000/svg" width="700" height="234" viewBox="0 0 700 234" role="img">
<rect width="700" height="234" rx="12" fill="#16181d"/>
<text x="36" y="22" fill="#e8eaed" font-family="system-ui,sans-serif" font-size="14" font-weight="700">Is Anthropic acting? cyber/aup false positives over time</text>
<line x1="36" y1="198.0" x2="664" y2="198.0" stroke="#2a2e37" stroke-width="1"/><text x="30" y="202.0" fill="#6b7280" font-size="11" text-anchor="end">0</text><line x1="36" y1="117.0" x2="664" y2="117.0" stroke="#2a2e37" stroke-width="1"/><text x="30" y="121.0" fill="#6b7280" font-size="11" text-anchor="end">400</text><line x1="36" y1="36.0" x2="664" y2="36.0" stroke="#2a2e37" stroke-width="1"/><text x="30" y="40.0" fill="#6b7280" font-size="11" text-anchor="end">800</text>

<polyline fill="none" stroke="#8a5a5a" stroke-width="2.5" stroke-linejoin="round" points="36.0,145.1 41.1,145.1 46.1,145.1 51.2,145.1 56.3,145.1 61.3,145.1 66.4,145.1 71.5,145.1 76.5,145.1 81.6,145.1 86.6,145.1 91.7,145.1 96.8,145.1 101.8,145.1 106.9,145.1 112.0,145.1 117.0,145.1 122.1,145.1 127.2,145.1 132.2,145.1 137.3,145.1 142.4,145.1 147.4,145.1 152.5,145.1 157.5,145.1 162.6,145.1 167.7,145.1 172.7,145.1 177.8,145.1 182.9,145.1 187.9,145.1 193.0,145.1 198.1,145.1 203.1,145.1 208.2,145.1 213.3,145.1 218.3,145.1 223.4,145.1 228.5,145.1 233.5,145.1 238.6,145.1 243.6,145.1 248.7,145.1 253.8,145.1 258.8,145.1 263.9,145.1 269.0,145.1 274.0,145.1 279.1,145.1 284.2,145.1 289.2,155.7 294.3,155.7 299.4,155.7 304.4,155.7 309.5,155.7 314.5,155.7 319.6,155.7 324.7,155.7 329.7,155.7 334.8,155.7 339.9,155.7 344.9,155.7 350.0,155.7 355.1,155.7 360.1,155.7 365.2,155.7 370.3,155.7 375.3,155.7 380.4,155.7 385.5,155.7 390.5,155.7 395.6,155.7 400.6,155.7 405.7,155.7 410.8,155.7 415.8,155.7 420.9,155.7 426.0,155.7 431.0,155.7 436.1,155.7 441.2,155.7 446.2,155.7 451.3,155.7 456.4,155.7 461.4,167.6 466.5,167.6 471.5,170.3 476.6,170.3 481.7,170.5 486.7,170.7 491.8,170.7 496.9,170.9 501.9,172.7 507.0,180.6 512.1,181.8 517.1,189.1 522.2,190.5 527.3,195.2 532.3,198.0 537.4,198.0 542.5,198.0 547.5,198.0 552.6,198.0 557.6,198.0 562.7,198.0 567.8,198.0 572.8,198.0 577.9,198.0 583.0,198.0 588.0,198.0 593.1,198.0 598.2,198.0 603.2,198.0 608.3,198.0 613.4,198.0 618.4,198.0 623.5,198.0 628.5,198.0 633.6,198.0 638.7,198.0 643.7,198.0 648.8,198.0 653.9,198.0 658.9,198.0 664.0,198.0"/><circle cx="36.0" cy="145.1" r="3" fill="#8a5a5a"/><circle cx="41.1" cy="145.1" r="3" fill="#8a5a5a"/><circle cx="46.1" cy="145.1" r="3" fill="#8a5a5a"/><circle cx="51.2" cy="145.1" r="3" fill="#8a5a5a"/><circle cx="56.3" cy="145.1" r="3" fill="#8a5a5a"/><circle cx="61.3" cy="145.1" r="3" fill="#8a5a5a"/><circle cx="66.4" cy="145.1" r="3" fill="#8a5a5a"/><circle cx="71.5" cy="145.1" r="3" fill="#8a5a5a"/><circle cx="76.5" cy="145.1" r="3" fill="#8a5a5a"/><circle cx="81.6" cy="145.1" r="3" fill="#8a5a5a"/><circle cx="86.6" cy="145.1" r="3" fill="#8a5a5a"/><circle cx="91.7" cy="145.1" r="3" fill="#8a5a5a"/><circle cx="96.8" cy="145.1" r="3" fill="#8a5a5a"/><circle cx="101.8" cy="145.1" r="3" fill="#8a5a5a"/><circle cx="106.9" cy="145.1" r="3" fill="#8a5a5a"/><circle cx="112.0" cy="145.1" r="3" fill="#8a5a5a"/><circle cx="117.0" cy="145.1" r="3" fill="#8a5a5a"/><circle cx="122.1" cy="145.1" r="3" fill="#8a5a5a"/><circle cx="127.2" cy="145.1" r="3" fill="#8a5a5a"/><circle cx="132.2" cy="145.1" r="3" fill="#8a5a5a"/><circle cx="137.3" cy="145.1" r="3" fill="#8a5a5a"/><circle cx="142.4" cy="145.1" r="3" fill="#8a5a5a"/><circle cx="147.4" cy="145.1" r="3" fill="#8a5a5a"/><circle cx="152.5" cy="145.1" r="3" fill="#8a5a5a"/><circle cx="157.5" cy="145.1" r="3" fill="#8a5a5a"/><circle cx="162.6" cy="145.1" r="3" fill="#8a5a5a"/><circle cx="167.7" cy="145.1" r="3" fill="#8a5a5a"/><circle cx="172.7" cy="145.1" r="3" fill="#8a5a5a"/><circle cx="177.8" cy="145.1" r="3" fill="#8a5a5a"/><circle cx="182.9" cy="145.1" r="3" fill="#8a5a5a"/><circle cx="187.9" cy="145.1" r="3" fill="#8a5a5a"/><circle cx="193.0" cy="145.1" r="3" fill="#8a5a5a"/><circle cx="198.1" cy="145.1" r="3" fill="#8a5a5a"/><circle cx="203.1" cy="145.1" r="3" fill="#8a5a5a"/><circle cx="208.2" cy="145.1" r="3" fill="#8a5a5a"/><circle cx="213.3" cy="145.1" r="3" fill="#8a5a5a"/><circle cx="218.3" cy="145.1" r="3" fill="#8a5a5a"/><circle cx="223.4" cy="145.1" r="3" fill="#8a5a5a"/><circle cx="228.5" cy="145.1" r="3" fill="#8a5a5a"/><circle cx="233.5" cy="145.1" r="3" fill="#8a5a5a"/><circle cx="238.6" cy="145.1" r="3" fill="#8a5a5a"/><circle cx="243.6" cy="145.1" r="3" fill="#8a5a5a"/><circle cx="248.7" cy="145.1" r="3" fill="#8a5a5a"/><circle cx="253.8" cy="145.1" r="3" fill="#8a5a5a"/><circle cx="258.8" cy="145.1" r="3" fill="#8a5a5a"/><circle cx="263.9" cy="145.1" r="3" fill="#8a5a5a"/><circle cx="269.0" cy="145.1" r="3" fill="#8a5a5a"/><circle cx="274.0" cy="145.1" r="3" fill="#8a5a5a"/><circle cx="279.1" cy="145.1" r="3" fill="#8a5a5a"/><circle cx="284.2" cy="145.1" r="3" fill="#8a5a5a"/><circle cx="289.2" cy="155.7" r="3" fill="#8a5a5a"/><circle cx="294.3" cy="155.7" r="3" fill="#8a5a5a"/><circle cx="299.4" cy="155.7" r="3" fill="#8a5a5a"/><circle cx="304.4" cy="155.7" r="3" fill="#8a5a5a"/><circle cx="309.5" cy="155.7" r="3" fill="#8a5a5a"/><circle cx="314.5" cy="155.7" r="3" fill="#8a5a5a"/><circle cx="319.6" cy="155.7" r="3" fill="#8a5a5a"/><circle cx="324.7" cy="155.7" r="3" fill="#8a5a5a"/><circle cx="329.7" cy="155.7" r="3" fill="#8a5a5a"/><circle cx="334.8" cy="155.7" r="3" fill="#8a5a5a"/><circle cx="339.9" cy="155.7" r="3" fill="#8a5a5a"/><circle cx="344.9" cy="155.7" r="3" fill="#8a5a5a"/><circle cx="350.0" cy="155.7" r="3" fill="#8a5a5a"/><circle cx="355.1" cy="155.7" r="3" fill="#8a5a5a"/><circle cx="360.1" cy="155.7" r="3" fill="#8a5a5a"/><circle cx="365.2" cy="155.7" r="3" fill="#8a5a5a"/><circle cx="370.3" cy="155.7" r="3" fill="#8a5a5a"/><circle cx="375.3" cy="155.7" r="3" fill="#8a5a5a"/><circle cx="380.4" cy="155.7" r="3" fill="#8a5a5a"/><circle cx="385.5" cy="155.7" r="3" fill="#8a5a5a"/><circle cx="390.5" cy="155.7" r="3" fill="#8a5a5a"/><circle cx="395.6" cy="155.7" r="3" fill="#8a5a5a"/><circle cx="400.6" cy="155.7" r="3" fill="#8a5a5a"/><circle cx="405.7" cy="155.7" r="3" fill="#8a5a5a"/><circle cx="410.8" cy="155.7" r="3" fill="#8a5a5a"/><circle cx="415.8" cy="155.7" r="3" fill="#8a5a5a"/><circle cx="420.9" cy="155.7" r="3" fill="#8a5a5a"/><circle cx="426.0" cy="155.7" r="3" fill="#8a5a5a"/><circle cx="431.0" cy="155.7" r="3" fill="#8a5a5a"/><circle cx="436.1" cy="155.7" r="3" fill="#8a5a5a"/><circle cx="441.2" cy="155.7" r="3" fill="#8a5a5a"/><circle cx="446.2" cy="155.7" r="3" fill="#8a5a5a"/><circle cx="451.3" cy="155.7" r="3" fill="#8a5a5a"/><circle cx="456.4" cy="155.7" r="3" fill="#8a5a5a"/><circle cx="461.4" cy="167.6" r="3" fill="#8a5a5a"/><circle cx="466.5" cy="167.6" r="3" fill="#8a5a5a"/><circle cx="471.5" cy="170.3" r="3" fill="#8a5a5a"/><circle cx="476.6" cy="170.3" r="3" fill="#8a5a5a"/><circle cx="481.7" cy="170.5" r="3" fill="#8a5a5a"/><circle cx="486.7" cy="170.7" r="3" fill="#8a5a5a"/><circle cx="491.8" cy="170.7" r="3" fill="#8a5a5a"/><circle cx="496.9" cy="170.9" r="3" fill="#8a5a5a"/><circle cx="501.9" cy="172.7" r="3" fill="#8a5a5a"/><circle cx="507.0" cy="180.6" r="3" fill="#8a5a5a"/><circle cx="512.1" cy="181.8" r="3" fill="#8a5a5a"/><circle cx="517.1" cy="189.1" r="3" fill="#8a5a5a"/><circle cx="522.2" cy="190.5" r="3" fill="#8a5a5a"/><circle cx="527.3" cy="195.2" r="3" fill="#8a5a5a"/><circle cx="532.3" cy="198.0" r="3" fill="#8a5a5a"/><circle cx="537.4" cy="198.0" r="3" fill="#8a5a5a"/><circle cx="542.5" cy="198.0" r="3" fill="#8a5a5a"/><circle cx="547.5" cy="198.0" r="3" fill="#8a5a5a"/><circle cx="552.6" cy="198.0" r="3" fill="#8a5a5a"/><circle cx="557.6" cy="198.0" r="3" fill="#8a5a5a"/><circle cx="562.7" cy="198.0" r="3" fill="#8a5a5a"/><circle cx="567.8" cy="198.0" r="3" fill="#8a5a5a"/><circle cx="572.8" cy="198.0" r="3" fill="#8a5a5a"/><circle cx="577.9" cy="198.0" r="3" fill="#8a5a5a"/><circle cx="583.0" cy="198.0" r="3" fill="#8a5a5a"/><circle cx="588.0" cy="198.0" r="3" fill="#8a5a5a"/><circle cx="593.1" cy="198.0" r="3" fill="#8a5a5a"/><circle cx="598.2" cy="198.0" r="3" fill="#8a5a5a"/><circle cx="603.2" cy="198.0" r="3" fill="#8a5a5a"/><circle cx="608.3" cy="198.0" r="3" fill="#8a5a5a"/><circle cx="613.4" cy="198.0" r="3" fill="#8a5a5a"/><circle cx="618.4" cy="198.0" r="3" fill="#8a5a5a"/><circle cx="623.5" cy="198.0" r="3" fill="#8a5a5a"/><circle cx="628.5" cy="198.0" r="3" fill="#8a5a5a"/><circle cx="633.6" cy="198.0" r="3" fill="#8a5a5a"/><circle cx="638.7" cy="198.0" r="3" fill="#8a5a5a"/><circle cx="643.7" cy="198.0" r="3" fill="#8a5a5a"/><circle cx="648.8" cy="198.0" r="3" fill="#8a5a5a"/><circle cx="653.9" cy="198.0" r="3" fill="#8a5a5a"/><circle cx="658.9" cy="198.0" r="3" fill="#8a5a5a"/><circle cx="664.0" cy="198.0" r="3" fill="#8a5a5a"/>
<polyline fill="none" stroke="#3fb950" stroke-width="2.5" stroke-linejoin="round" points="36.0,198.0 41.1,198.0 46.1,198.0 51.2,198.0 56.3,198.0 61.3,198.0 66.4,198.0 71.5,198.0 76.5,198.0 81.6,198.0 86.6,198.0 91.7,198.0 96.8,198.0 101.8,198.0 106.9,198.0 112.0,198.0 117.0,198.0 122.1,198.0 127.2,198.0 132.2,198.0 137.3,198.0 142.4,198.0 147.4,198.0 152.5,198.0 157.5,198.0 162.6,198.0 167.7,198.0 172.7,198.0 177.8,198.0 182.9,198.0 187.9,198.0 193.0,198.0 198.1,198.0 203.1,198.0 208.2,198.0 213.3,198.0 218.3,198.0 223.4,198.0 228.5,198.0 233.5,198.0 238.6,198.0 243.6,198.0 248.7,198.0 253.8,191.7 258.8,191.7 263.9,191.7 269.0,191.7 274.0,191.7 279.1,191.7 284.2,191.7 289.2,192.9 294.3,192.9 299.4,190.7 304.4,190.7 309.5,190.7 314.5,190.7 319.6,190.7 324.7,190.5 329.7,190.5 334.8,190.5 339.9,190.3 344.9,190.3 350.0,190.3 355.1,190.3 360.1,190.3 365.2,190.3 370.3,190.3 375.3,190.3 380.4,190.3 385.5,190.3 390.5,190.3 395.6,190.3 400.6,190.3 405.7,190.3 410.8,190.3 415.8,190.3 420.9,190.3 426.0,190.3 431.0,190.3 436.1,190.3 441.2,190.3 446.2,189.3 451.3,189.3 456.4,189.3 461.4,190.7 466.5,190.7 471.5,190.7 476.6,190.7 481.7,190.7 486.7,190.7 491.8,190.7 496.9,190.7 501.9,190.7 507.0,190.9 512.1,190.9 517.1,190.9 522.2,194.2 527.3,196.8 532.3,198.0 537.4,198.0 542.5,198.0 547.5,198.0 552.6,198.0 557.6,198.0 562.7,198.0 567.8,198.0 572.8,198.0 577.9,198.0 583.0,198.0 588.0,198.0 593.1,198.0 598.2,198.0 603.2,198.0 608.3,198.0 613.4,198.0 618.4,198.0 623.5,198.0 628.5,198.0 633.6,198.0 638.7,198.0 643.7,198.0 648.8,198.0 653.9,198.0 658.9,198.0 664.0,198.0"/><circle cx="36.0" cy="198.0" r="3" fill="#3fb950"/><circle cx="41.1" cy="198.0" r="3" fill="#3fb950"/><circle cx="46.1" cy="198.0" r="3" fill="#3fb950"/><circle cx="51.2" cy="198.0" r="3" fill="#3fb950"/><circle cx="56.3" cy="198.0" r="3" fill="#3fb950"/><circle cx="61.3" cy="198.0" r="3" fill="#3fb950"/><circle cx="66.4" cy="198.0" r="3" fill="#3fb950"/><circle cx="71.5" cy="198.0" r="3" fill="#3fb950"/><circle cx="76.5" cy="198.0" r="3" fill="#3fb950"/><circle cx="81.6" cy="198.0" r="3" fill="#3fb950"/><circle cx="86.6" cy="198.0" r="3" fill="#3fb950"/><circle cx="91.7" cy="198.0" r="3" fill="#3fb950"/><circle cx="96.8" cy="198.0" r="3" fill="#3fb950"/><circle cx="101.8" cy="198.0" r="3" fill="#3fb950"/><circle cx="106.9" cy="198.0" r="3" fill="#3fb950"/><circle cx="112.0" cy="198.0" r="3" fill="#3fb950"/><circle cx="117.0" cy="198.0" r="3" fill="#3fb950"/><circle cx="122.1" cy="198.0" r="3" fill="#3fb950"/><circle cx="127.2" cy="198.0" r="3" fill="#3fb950"/><circle cx="132.2" cy="198.0" r="3" fill="#3fb950"/><circle cx="137.3" cy="198.0" r="3" fill="#3fb950"/><circle cx="142.4" cy="198.0" r="3" fill="#3fb950"/><circle cx="147.4" cy="198.0" r="3" fill="#3fb950"/><circle cx="152.5" cy="198.0" r="3" fill="#3fb950"/><circle cx="157.5" cy="198.0" r="3" fill="#3fb950"/><circle cx="162.6" cy="198.0" r="3" fill="#3fb950"/><circle cx="167.7" cy="198.0" r="3" fill="#3fb950"/><circle cx="172.7" cy="198.0" r="3" fill="#3fb950"/><circle cx="177.8" cy="198.0" r="3" fill="#3fb950"/><circle cx="182.9" cy="198.0" r="3" fill="#3fb950"/><circle cx="187.9" cy="198.0" r="3" fill="#3fb950"/><circle cx="193.0" cy="198.0" r="3" fill="#3fb950"/><circle cx="198.1" cy="198.0" r="3" fill="#3fb950"/><circle cx="203.1" cy="198.0" r="3" fill="#3fb950"/><circle cx="208.2" cy="198.0" r="3" fill="#3fb950"/><circle cx="213.3" cy="198.0" r="3" fill="#3fb950"/><circle cx="218.3" cy="198.0" r="3" fill="#3fb950"/><circle cx="223.4" cy="198.0" r="3" fill="#3fb950"/><circle cx="228.5" cy="198.0" r="3" fill="#3fb950"/><circle cx="233.5" cy="198.0" r="3" fill="#3fb950"/><circle cx="238.6" cy="198.0" r="3" fill="#3fb950"/><circle cx="243.6" cy="198.0" r="3" fill="#3fb950"/><circle cx="248.7" cy="198.0" r="3" fill="#3fb950"/><circle cx="253.8" cy="191.7" r="3" fill="#3fb950"/><circle cx="258.8" cy="191.7" r="3" fill="#3fb950"/><circle cx="263.9" cy="191.7" r="3" fill="#3fb950"/><circle cx="269.0" cy="191.7" r="3" fill="#3fb950"/><circle cx="274.0" cy="191.7" r="3" fill="#3fb950"/><circle cx="279.1" cy="191.7" r="3" fill="#3fb950"/><circle cx="284.2" cy="191.7" r="3" fill="#3fb950"/><circle cx="289.2" cy="192.9" r="3" fill="#3fb950"/><circle cx="294.3" cy="192.9" r="3" fill="#3fb950"/><circle cx="299.4" cy="190.7" r="3" fill="#3fb950"/><circle cx="304.4" cy="190.7" r="3" fill="#3fb950"/><circle cx="309.5" cy="190.7" r="3" fill="#3fb950"/><circle cx="314.5" cy="190.7" r="3" fill="#3fb950"/><circle cx="319.6" cy="190.7" r="3" fill="#3fb950"/><circle cx="324.7" cy="190.5" r="3" fill="#3fb950"/><circle cx="329.7" cy="190.5" r="3" fill="#3fb950"/><circle cx="334.8" cy="190.5" r="3" fill="#3fb950"/><circle cx="339.9" cy="190.3" r="3" fill="#3fb950"/><circle cx="344.9" cy="190.3" r="3" fill="#3fb950"/><circle cx="350.0" cy="190.3" r="3" fill="#3fb950"/><circle cx="355.1" cy="190.3" r="3" fill="#3fb950"/><circle cx="360.1" cy="190.3" r="3" fill="#3fb950"/><circle cx="365.2" cy="190.3" r="3" fill="#3fb950"/><circle cx="370.3" cy="190.3" r="3" fill="#3fb950"/><circle cx="375.3" cy="190.3" r="3" fill="#3fb950"/><circle cx="380.4" cy="190.3" r="3" fill="#3fb950"/><circle cx="385.5" cy="190.3" r="3" fill="#3fb950"/><circle cx="390.5" cy="190.3" r="3" fill="#3fb950"/><circle cx="395.6" cy="190.3" r="3" fill="#3fb950"/><circle cx="400.6" cy="190.3" r="3" fill="#3fb950"/><circle cx="405.7" cy="190.3" r="3" fill="#3fb950"/><circle cx="410.8" cy="190.3" r="3" fill="#3fb950"/><circle cx="415.8" cy="190.3" r="3" fill="#3fb950"/><circle cx="420.9" cy="190.3" r="3" fill="#3fb950"/><circle cx="426.0" cy="190.3" r="3" fill="#3fb950"/><circle cx="431.0" cy="190.3" r="3" fill="#3fb950"/><circle cx="436.1" cy="190.3" r="3" fill="#3fb950"/><circle cx="441.2" cy="190.3" r="3" fill="#3fb950"/><circle cx="446.2" cy="189.3" r="3" fill="#3fb950"/><circle cx="451.3" cy="189.3" r="3" fill="#3fb950"/><circle cx="456.4" cy="189.3" r="3" fill="#3fb950"/><circle cx="461.4" cy="190.7" r="3" fill="#3fb950"/><circle cx="466.5" cy="190.7" r="3" fill="#3fb950"/><circle cx="471.5" cy="190.7" r="3" fill="#3fb950"/><circle cx="476.6" cy="190.7" r="3" fill="#3fb950"/><circle cx="481.7" cy="190.7" r="3" fill="#3fb950"/><circle cx="486.7" cy="190.7" r="3" fill="#3fb950"/><circle cx="491.8" cy="190.7" r="3" fill="#3fb950"/><circle cx="496.9" cy="190.7" r="3" fill="#3fb950"/><circle cx="501.9" cy="190.7" r="3" fill="#3fb950"/><circle cx="507.0" cy="190.9" r="3" fill="#3fb950"/><circle cx="512.1" cy="190.9" r="3" fill="#3fb950"/><circle cx="517.1" cy="190.9" r="3" fill="#3fb950"/><circle cx="522.2" cy="194.2" r="3" fill="#3fb950"/><circle cx="527.3" cy="196.8" r="3" fill="#3fb950"/><circle cx="532.3" cy="198.0" r="3" fill="#3fb950"/><circle cx="537.4" cy="198.0" r="3" fill="#3fb950"/><circle cx="542.5" cy="198.0" r="3" fill="#3fb950"/><circle cx="547.5" cy="198.0" r="3" fill="#3fb950"/><circle cx="552.6" cy="198.0" r="3" fill="#3fb950"/><circle cx="557.6" cy="198.0" r="3" fill="#3fb950"/><circle cx="562.7" cy="198.0" r="3" fill="#3fb950"/><circle cx="567.8" cy="198.0" r="3" fill="#3fb950"/><circle cx="572.8" cy="198.0" r="3" fill="#3fb950"/><circle cx="577.9" cy="198.0" r="3" fill="#3fb950"/><circle cx="583.0" cy="198.0" r="3" fill="#3fb950"/><circle cx="588.0" cy="198.0" r="3" fill="#3fb950"/><circle cx="593.1" cy="198.0" r="3" fill="#3fb950"/><circle cx="598.2" cy="198.0" r="3" fill="#3fb950"/><circle cx="603.2" cy="198.0" r="3" fill="#3fb950"/><circle cx="608.3" cy="198.0" r="3" fill="#3fb950"/><circle cx="613.4" cy="198.0" r="3" fill="#3fb950"/><circle cx="618.4" cy="198.0" r="3" fill="#3fb950"/><circle cx="623.5" cy="198.0" r="3" fill="#3fb950"/><circle cx="628.5" cy="198.0" r="3" fill="#3fb950"/><circle cx="633.6" cy="198.0" r="3" fill="#3fb950"/><circle cx="638.7" cy="198.0" r="3" fill="#3fb950"/><circle cx="643.7" cy="198.0" r="3" fill="#3fb950"/><circle cx="648.8" cy="198.0" r="3" fill="#3fb950"/><circle cx="653.9" cy="198.0" r="3" fill="#3fb950"/><circle cx="658.9" cy="198.0" r="3" fill="#3fb950"/><circle cx="664.0" cy="198.0" r="3" fill="#3fb950"/>
<polyline fill="none" stroke="#4aa3ff" stroke-width="2.5" stroke-linejoin="round" points="36.0,144.3 41.1,144.3 46.1,144.3 51.2,144.3 56.3,144.3 61.3,144.3 66.4,144.3 71.5,144.3 76.5,144.3 81.6,144.3 86.6,144.3 91.7,144.3 96.8,144.3 101.8,144.3 106.9,144.3 112.0,136.2 117.0,132.4 122.1,129.6 127.2,129.6 132.2,121.0 137.3,121.0 142.4,121.0 147.4,114.4 152.5,114.4 157.5,114.4 162.6,111.3 167.7,110.9 172.7,110.9 177.8,110.5 182.9,110.5 187.9,109.9 193.0,108.7 198.1,107.3 203.1,106.9 208.2,106.9 213.3,106.9 218.3,106.9 223.4,106.9 228.5,106.9 233.5,106.9 238.6,106.9 243.6,106.9 248.7,106.9 253.8,113.2 258.8,113.2 263.9,113.2 269.0,113.2 274.0,113.2 279.1,110.7 284.2,105.3 289.2,83.4 294.3,83.4 299.4,85.6 304.4,85.6 309.5,85.6 314.5,85.6 319.6,85.6 324.7,85.8 329.7,85.8 334.8,85.8 339.9,86.0 344.9,86.0 350.0,86.0 355.1,86.0 360.1,86.0 365.2,86.0 370.3,86.0 375.3,86.0 380.4,86.0 385.5,86.0 390.5,86.0 395.6,86.0 400.6,86.0 405.7,86.0 410.8,86.0 415.8,86.0 420.9,86.0 426.0,86.0 431.0,86.0 436.1,86.0 441.2,86.0 446.2,87.0 451.3,87.0 456.4,87.0 461.4,73.7 466.5,73.7 471.5,71.0 476.6,71.0 481.7,70.8 486.7,70.6 491.8,70.6 496.9,70.4 501.9,68.6 507.0,60.5 512.1,59.3 517.1,52.0 522.2,47.3 527.3,40.1 532.3,36.0 537.4,36.0 542.5,36.0 547.5,36.0 552.6,36.0 557.6,36.0 562.7,36.0 567.8,36.0 572.8,36.0 577.9,36.0 583.0,36.0 588.0,36.0 593.1,36.0 598.2,36.0 603.2,36.0 608.3,36.0 613.4,36.0 618.4,36.0 623.5,36.0 628.5,36.0 633.6,36.0 638.7,36.0 643.7,36.0 648.8,36.0 653.9,36.0 658.9,36.0 664.0,36.0"/><circle cx="36.0" cy="144.3" r="3" fill="#4aa3ff"/><circle cx="41.1" cy="144.3" r="3" fill="#4aa3ff"/><circle cx="46.1" cy="144.3" r="3" fill="#4aa3ff"/><circle cx="51.2" cy="144.3" r="3" fill="#4aa3ff"/><circle cx="56.3" cy="144.3" r="3" fill="#4aa3ff"/><circle cx="61.3" cy="144.3" r="3" fill="#4aa3ff"/><circle cx="66.4" cy="144.3" r="3" fill="#4aa3ff"/><circle cx="71.5" cy="144.3" r="3" fill="#4aa3ff"/><circle cx="76.5" cy="144.3" r="3" fill="#4aa3ff"/><circle cx="81.6" cy="144.3" r="3" fill="#4aa3ff"/><circle cx="86.6" cy="144.3" r="3" fill="#4aa3ff"/><circle cx="91.7" cy="144.3" r="3" fill="#4aa3ff"/><circle cx="96.8" cy="144.3" r="3" fill="#4aa3ff"/><circle cx="101.8" cy="144.3" r="3" fill="#4aa3ff"/><circle cx="106.9" cy="144.3" r="3" fill="#4aa3ff"/><circle cx="112.0" cy="136.2" r="3" fill="#4aa3ff"/><circle cx="117.0" cy="132.4" r="3" fill="#4aa3ff"/><circle cx="122.1" cy="129.6" r="3" fill="#4aa3ff"/><circle cx="127.2" cy="129.6" r="3" fill="#4aa3ff"/><circle cx="132.2" cy="121.0" r="3" fill="#4aa3ff"/><circle cx="137.3" cy="121.0" r="3" fill="#4aa3ff"/><circle cx="142.4" cy="121.0" r="3" fill="#4aa3ff"/><circle cx="147.4" cy="114.4" r="3" fill="#4aa3ff"/><circle cx="152.5" cy="114.4" r="3" fill="#4aa3ff"/><circle cx="157.5" cy="114.4" r="3" fill="#4aa3ff"/><circle cx="162.6" cy="111.3" r="3" fill="#4aa3ff"/><circle cx="167.7" cy="110.9" r="3" fill="#4aa3ff"/><circle cx="172.7" cy="110.9" r="3" fill="#4aa3ff"/><circle cx="177.8" cy="110.5" r="3" fill="#4aa3ff"/><circle cx="182.9" cy="110.5" r="3" fill="#4aa3ff"/><circle cx="187.9" cy="109.9" r="3" fill="#4aa3ff"/><circle cx="193.0" cy="108.7" r="3" fill="#4aa3ff"/><circle cx="198.1" cy="107.3" r="3" fill="#4aa3ff"/><circle cx="203.1" cy="106.9" r="3" fill="#4aa3ff"/><circle cx="208.2" cy="106.9" r="3" fill="#4aa3ff"/><circle cx="213.3" cy="106.9" r="3" fill="#4aa3ff"/><circle cx="218.3" cy="106.9" r="3" fill="#4aa3ff"/><circle cx="223.4" cy="106.9" r="3" fill="#4aa3ff"/><circle cx="228.5" cy="106.9" r="3" fill="#4aa3ff"/><circle cx="233.5" cy="106.9" r="3" fill="#4aa3ff"/><circle cx="238.6" cy="106.9" r="3" fill="#4aa3ff"/><circle cx="243.6" cy="106.9" r="3" fill="#4aa3ff"/><circle cx="248.7" cy="106.9" r="3" fill="#4aa3ff"/><circle cx="253.8" cy="113.2" r="3" fill="#4aa3ff"/><circle cx="258.8" cy="113.2" r="3" fill="#4aa3ff"/><circle cx="263.9" cy="113.2" r="3" fill="#4aa3ff"/><circle cx="269.0" cy="113.2" r="3" fill="#4aa3ff"/><circle cx="274.0" cy="113.2" r="3" fill="#4aa3ff"/><circle cx="279.1" cy="110.7" r="3" fill="#4aa3ff"/><circle cx="284.2" cy="105.3" r="3" fill="#4aa3ff"/><circle cx="289.2" cy="83.4" r="3" fill="#4aa3ff"/><circle cx="294.3" cy="83.4" r="3" fill="#4aa3ff"/><circle cx="299.4" cy="85.6" r="3" fill="#4aa3ff"/><circle cx="304.4" cy="85.6" r="3" fill="#4aa3ff"/><circle cx="309.5" cy="85.6" r="3" fill="#4aa3ff"/><circle cx="314.5" cy="85.6" r="3" fill="#4aa3ff"/><circle cx="319.6" cy="85.6" r="3" fill="#4aa3ff"/><circle cx="324.7" cy="85.8" r="3" fill="#4aa3ff"/><circle cx="329.7" cy="85.8" r="3" fill="#4aa3ff"/><circle cx="334.8" cy="85.8" r="3" fill="#4aa3ff"/><circle cx="339.9" cy="86.0" r="3" fill="#4aa3ff"/><circle cx="344.9" cy="86.0" r="3" fill="#4aa3ff"/><circle cx="350.0" cy="86.0" r="3" fill="#4aa3ff"/><circle cx="355.1" cy="86.0" r="3" fill="#4aa3ff"/><circle cx="360.1" cy="86.0" r="3" fill="#4aa3ff"/><circle cx="365.2" cy="86.0" r="3" fill="#4aa3ff"/><circle cx="370.3" cy="86.0" r="3" fill="#4aa3ff"/><circle cx="375.3" cy="86.0" r="3" fill="#4aa3ff"/><circle cx="380.4" cy="86.0" r="3" fill="#4aa3ff"/><circle cx="385.5" cy="86.0" r="3" fill="#4aa3ff"/><circle cx="390.5" cy="86.0" r="3" fill="#4aa3ff"/><circle cx="395.6" cy="86.0" r="3" fill="#4aa3ff"/><circle cx="400.6" cy="86.0" r="3" fill="#4aa3ff"/><circle cx="405.7" cy="86.0" r="3" fill="#4aa3ff"/><circle cx="410.8" cy="86.0" r="3" fill="#4aa3ff"/><circle cx="415.8" cy="86.0" r="3" fill="#4aa3ff"/><circle cx="420.9" cy="86.0" r="3" fill="#4aa3ff"/><circle cx="426.0" cy="86.0" r="3" fill="#4aa3ff"/><circle cx="431.0" cy="86.0" r="3" fill="#4aa3ff"/><circle cx="436.1" cy="86.0" r="3" fill="#4aa3ff"/><circle cx="441.2" cy="86.0" r="3" fill="#4aa3ff"/><circle cx="446.2" cy="87.0" r="3" fill="#4aa3ff"/><circle cx="451.3" cy="87.0" r="3" fill="#4aa3ff"/><circle cx="456.4" cy="87.0" r="3" fill="#4aa3ff"/><circle cx="461.4" cy="73.7" r="3" fill="#4aa3ff"/><circle cx="466.5" cy="73.7" r="3" fill="#4aa3ff"/><circle cx="471.5" cy="71.0" r="3" fill="#4aa3ff"/><circle cx="476.6" cy="71.0" r="3" fill="#4aa3ff"/><circle cx="481.7" cy="70.8" r="3" fill="#4aa3ff"/><circle cx="486.7" cy="70.6" r="3" fill="#4aa3ff"/><circle cx="491.8" cy="70.6" r="3" fill="#4aa3ff"/><circle cx="496.9" cy="70.4" r="3" fill="#4aa3ff"/><circle cx="501.9" cy="68.6" r="3" fill="#4aa3ff"/><circle cx="507.0" cy="60.5" r="3" fill="#4aa3ff"/><circle cx="512.1" cy="59.3" r="3" fill="#4aa3ff"/><circle cx="517.1" cy="52.0" r="3" fill="#4aa3ff"/><circle cx="522.2" cy="47.3" r="3" fill="#4aa3ff"/><circle cx="527.3" cy="40.1" r="3" fill="#4aa3ff"/><circle cx="532.3" cy="36.0" r="3" fill="#4aa3ff"/><circle cx="537.4" cy="36.0" r="3" fill="#4aa3ff"/><circle cx="542.5" cy="36.0" r="3" fill="#4aa3ff"/><circle cx="547.5" cy="36.0" r="3" fill="#4aa3ff"/><circle cx="552.6" cy="36.0" r="3" fill="#4aa3ff"/><circle cx="557.6" cy="36.0" r="3" fill="#4aa3ff"/><circle cx="562.7" cy="36.0" r="3" fill="#4aa3ff"/><circle cx="567.8" cy="36.0" r="3" fill="#4aa3ff"/><circle cx="572.8" cy="36.0" r="3" fill="#4aa3ff"/><circle cx="577.9" cy="36.0" r="3" fill="#4aa3ff"/><circle cx="583.0" cy="36.0" r="3" fill="#4aa3ff"/><circle cx="588.0" cy="36.0" r="3" fill="#4aa3ff"/><circle cx="593.1" cy="36.0" r="3" fill="#4aa3ff"/><circle cx="598.2" cy="36.0" r="3" fill="#4aa3ff"/><circle cx="603.2" cy="36.0" r="3" fill="#4aa3ff"/><circle cx="608.3" cy="36.0" r="3" fill="#4aa3ff"/><circle cx="613.4" cy="36.0" r="3" fill="#4aa3ff"/><circle cx="618.4" cy="36.0" r="3" fill="#4aa3ff"/><circle cx="623.5" cy="36.0" r="3" fill="#4aa3ff"/><circle cx="628.5" cy="36.0" r="3" fill="#4aa3ff"/><circle cx="633.6" cy="36.0" r="3" fill="#4aa3ff"/><circle cx="638.7" cy="36.0" r="3" fill="#4aa3ff"/><circle cx="643.7" cy="36.0" r="3" fill="#4aa3ff"/><circle cx="648.8" cy="36.0" r="3" fill="#4aa3ff"/><circle cx="653.9" cy="36.0" r="3" fill="#4aa3ff"/><circle cx="658.9" cy="36.0" r="3" fill="#4aa3ff"/><circle cx="664.0" cy="36.0" r="3" fill="#4aa3ff"/>
<text x="36" y="225" fill="#6b7280" font-size="11">2026-06-26</text>
<text x="664" y="225" fill="#6b7280" font-size="11" text-anchor="end">2026-07-10</text>
<text x="36" y="212" font-family="system-ui,sans-serif" font-size="11">
<tspan fill="#4aa3ff">&#9679; open FPs</tspan>  <tspan fill="#3fb950">&#9679; closed (Anthropic acting)</tspan>  <tspan fill="#8a5a5a">&#9679; harness withdrawn</tspan></text>
<text x="664" y="22" text-anchor="end" font-family="system-ui,sans-serif" font-size="12">
<tspan fill="#4aa3ff">open 800</tspan>  <tspan fill="#3fb950">closed 0</tspan>  <tspan fill="#8a5a5a">harness 0</tspan></text>
</svg>