<svg xmlns="http://www.w3.org/2000/svg" width="700" height="234" viewBox="0 0 700 234" role="img">
<rect width="700" height="234" rx="12" fill="#16181d"/>
<text x="36" y="22" fill="#e8eaed" font-family="system-ui,sans-serif" font-size="14" font-weight="700">Is Anthropic acting? cyber/aup false positives over time</text>
<line x1="36" y1="198.0" x2="664" y2="198.0" stroke="#2a2e37" stroke-width="1"/><text x="30" y="202.0" fill="#6b7280" font-size="11" text-anchor="end">0</text><line x1="36" y1="117.0" x2="664" y2="117.0" stroke="#2a2e37" stroke-width="1"/><text x="30" y="121.0" fill="#6b7280" font-size="11" text-anchor="end">400</text><line x1="36" y1="36.0" x2="664" y2="36.0" stroke="#2a2e37" stroke-width="1"/><text x="30" y="40.0" fill="#6b7280" font-size="11" text-anchor="end">800</text>

<polyline fill="none" stroke="#8a5a5a" stroke-width="2.5" stroke-linejoin="round" points="36.0,145.1 38.9,145.1 41.8,145.1 44.7,145.1 47.6,145.1 50.5,145.1 53.4,145.1 56.3,145.1 59.2,145.1 62.0,145.1 64.9,145.1 67.8,145.1 70.7,145.1 73.6,145.1 76.5,145.1 79.4,145.1 82.3,145.1 85.2,145.1 88.1,145.1 91.0,145.1 93.9,145.1 96.8,145.1 99.7,145.1 102.6,145.1 105.5,145.1 108.4,145.1 111.2,145.1 114.1,145.1 117.0,145.1 119.9,145.1 122.8,145.1 125.7,145.1 128.6,145.1 131.5,145.1 134.4,145.1 137.3,145.1 140.2,145.1 143.1,145.1 146.0,145.1 148.9,145.1 151.8,145.1 154.7,145.1 157.5,145.1 160.4,145.1 163.3,145.1 166.2,145.1 169.1,145.1 172.0,145.1 174.9,145.1 177.8,145.1 180.7,155.7 183.6,155.7 186.5,155.7 189.4,155.7 192.3,155.7 195.2,155.7 198.1,155.7 201.0,155.7 203.9,155.7 206.7,155.7 209.6,155.7 212.5,155.7 215.4,155.7 218.3,155.7 221.2,155.7 224.1,155.7 227.0,155.7 229.9,155.7 232.8,155.7 235.7,155.7 238.6,155.7 241.5,155.7 244.4,155.7 247.3,155.7 250.2,155.7 253.1,155.7 255.9,155.7 258.8,155.7 261.7,155.7 264.6,155.7 267.5,155.7 270.4,155.7 273.3,155.7 276.2,155.7 279.1,167.6 282.0,167.6 284.9,170.3 287.8,170.3 290.7,170.5 293.6,170.7 296.5,170.7 299.4,170.9 302.2,172.7 305.1,180.6 308.0,181.8 310.9,189.1 313.8,190.5 316.7,195.2 319.6,198.0 322.5,198.0 325.4,198.0 328.3,198.0 331.2,198.0 334.1,198.0 337.0,198.0 339.9,198.0 342.8,198.0 345.7,198.0 348.6,198.0 351.4,198.0 354.3,198.0 357.2,198.0 360.1,198.0 363.0,198.0 365.9,198.0 368.8,198.0 371.7,198.0 374.6,198.0 377.5,198.0 380.4,198.0 383.3,198.0 386.2,198.0 389.1,198.0 392.0,198.0 394.9,198.0 397.8,198.0 400.6,198.0 403.5,198.0 406.4,198.0 409.3,198.0 412.2,198.0 415.1,198.0 418.0,198.0 420.9,198.0 423.8,198.0 426.7,198.0 429.6,198.0 432.5,198.0 435.4,198.0 438.3,198.0 441.2,198.0 444.1,198.0 446.9,198.0 449.8,198.0 452.7,198.0 455.6,198.0 458.5,198.0 461.4,198.0 464.3,198.0 467.2,198.0 470.1,198.0 473.0,198.0 475.9,198.0 478.8,198.0 481.7,198.0 484.6,198.0 487.5,198.0 490.4,198.0 493.3,198.0 496.1,198.0 499.0,198.0 501.9,198.0 504.8,198.0 507.7,198.0 510.6,198.0 513.5,198.0 516.4,198.0 519.3,198.0 522.2,198.0 525.1,198.0 528.0,198.0 530.9,198.0 533.8,198.0 536.7,198.0 539.6,198.0 542.5,198.0 545.3,198.0 548.2,198.0 551.1,198.0 554.0,198.0 556.9,198.0 559.8,198.0 562.7,198.0 565.6,198.0 568.5,198.0 571.4,198.0 574.3,198.0 577.2,198.0 580.1,198.0 583.0,198.0 585.9,198.0 588.8,198.0 591.6,198.0 594.5,198.0 597.4,198.0 600.3,198.0 603.2,198.0 606.1,198.0 609.0,198.0 611.9,198.0 614.8,198.0 617.7,198.0 620.6,198.0 623.5,198.0 626.4,198.0 629.3,198.0 632.2,198.0 635.1,198.0 638.0,198.0 640.8,198.0 643.7,198.0 646.6,198.0 649.5,198.0 652.4,198.0 655.3,198.0 658.2,198.0 661.1,198.0 664.0,198.0"/><circle cx="36.0" cy="145.1" r="3" fill="#8a5a5a"/><circle cx="38.9" cy="145.1" r="3" fill="#8a5a5a"/><circle cx="41.8" cy="145.1" r="3" fill="#8a5a5a"/><circle cx="44.7" cy="145.1" r="3" fill="#8a5a5a"/><circle cx="47.6" cy="145.1" r="3" fill="#8a5a5a"/><circle cx="50.5" cy="145.1" r="3" fill="#8a5a5a"/><circle cx="53.4" cy="145.1" r="3" fill="#8a5a5a"/><circle cx="56.3" cy="145.1" r="3" fill="#8a5a5a"/><circle cx="59.2" cy="145.1" r="3" fill="#8a5a5a"/><circle cx="62.0" cy="145.1" r="3" fill="#8a5a5a"/><circle cx="64.9" cy="145.1" r="3" fill="#8a5a5a"/><circle cx="67.8" cy="145.1" r="3" fill="#8a5a5a"/><circle cx="70.7" cy="145.1" r="3" fill="#8a5a5a"/><circle cx="73.6" cy="145.1" r="3" fill="#8a5a5a"/><circle cx="76.5" cy="145.1" r="3" fill="#8a5a5a"/><circle cx="79.4" cy="145.1" r="3" fill="#8a5a5a"/><circle cx="82.3" cy="145.1" r="3" fill="#8a5a5a"/><circle cx="85.2" cy="145.1" r="3" fill="#8a5a5a"/><circle cx="88.1" cy="145.1" r="3" fill="#8a5a5a"/><circle cx="91.0" cy="145.1" r="3" fill="#8a5a5a"/><circle cx="93.9" cy="145.1" r="3" fill="#8a5a5a"/><circle cx="96.8" cy="145.1" r="3" fill="#8a5a5a"/><circle cx="99.7" cy="145.1" r="3" fill="#8a5a5a"/><circle cx="102.6" cy="145.1" r="3" fill="#8a5a5a"/><circle cx="105.5" cy="145.1" r="3" fill="#8a5a5a"/><circle cx="108.4" cy="145.1" r="3" fill="#8a5a5a"/><circle cx="111.2" cy="145.1" r="3" fill="#8a5a5a"/><circle cx="114.1" cy="145.1" r="3" fill="#8a5a5a"/><circle cx="117.0" cy="145.1" r="3" fill="#8a5a5a"/><circle cx="119.9" cy="145.1" r="3" fill="#8a5a5a"/><circle cx="122.8" cy="145.1" r="3" fill="#8a5a5a"/><circle cx="125.7" cy="145.1" r="3" fill="#8a5a5a"/><circle cx="128.6" cy="145.1" r="3" fill="#8a5a5a"/><circle cx="131.5" cy="145.1" r="3" fill="#8a5a5a"/><circle cx="134.4" cy="145.1" r="3" fill="#8a5a5a"/><circle cx="137.3" cy="145.1" r="3" fill="#8a5a5a"/><circle cx="140.2" cy="145.1" r="3" fill="#8a5a5a"/><circle cx="143.1" cy="145.1" r="3" fill="#8a5a5a"/><circle cx="146.0" cy="145.1" r="3" fill="#8a5a5a"/><circle cx="148.9" cy="145.1" r="3" fill="#8a5a5a"/><circle cx="151.8" cy="145.1" r="3" fill="#8a5a5a"/><circle cx="154.7" cy="145.1" r="3" fill="#8a5a5a"/><circle cx="157.5" cy="145.1" r="3" fill="#8a5a5a"/><circle cx="160.4" cy="145.1" r="3" fill="#8a5a5a"/><circle cx="163.3" cy="145.1" r="3" fill="#8a5a5a"/><circle cx="166.2" cy="145.1" r="3" fill="#8a5a5a"/><circle cx="169.1" cy="145.1" r="3" fill="#8a5a5a"/><circle cx="172.0" cy="145.1" r="3" fill="#8a5a5a"/><circle cx="174.9" cy="145.1" r="3" fill="#8a5a5a"/><circle cx="177.8" cy="145.1" r="3" fill="#8a5a5a"/><circle cx="180.7" cy="155.7" r="3" fill="#8a5a5a"/><circle cx="183.6" cy="155.7" r="3" fill="#8a5a5a"/><circle cx="186.5" cy="155.7" r="3" fill="#8a5a5a"/><circle cx="189.4" cy="155.7" r="3" fill="#8a5a5a"/><circle cx="192.3" cy="155.7" r="3" fill="#8a5a5a"/><circle cx="195.2" cy="155.7" r="3" fill="#8a5a5a"/><circle cx="198.1" cy="155.7" r="3" fill="#8a5a5a"/><circle cx="201.0" cy="155.7" r="3" fill="#8a5a5a"/><circle cx="203.9" cy="155.7" r="3" fill="#8a5a5a"/><circle cx="206.7" cy="155.7" r="3" fill="#8a5a5a"/><circle cx="209.6" cy="155.7" r="3" fill="#8a5a5a"/><circle cx="212.5" cy="155.7" r="3" fill="#8a5a5a"/><circle cx="215.4" cy="155.7" r="3" fill="#8a5a5a"/><circle cx="218.3" cy="155.7" r="3" fill="#8a5a5a"/><circle cx="221.2" cy="155.7" r="3" fill="#8a5a5a"/><circle cx="224.1" cy="155.7" r="3" fill="#8a5a5a"/><circle cx="227.0" cy="155.7" r="3" fill="#8a5a5a"/><circle cx="229.9" cy="155.7" r="3" fill="#8a5a5a"/><circle cx="232.8" cy="155.7" r="3" fill="#8a5a5a"/><circle cx="235.7" cy="155.7" r="3" fill="#8a5a5a"/><circle cx="238.6" cy="155.7" r="3" fill="#8a5a5a"/><circle cx="241.5" cy="155.7" r="3" fill="#8a5a5a"/><circle cx="244.4" cy="155.7" r="3" fill="#8a5a5a"/><circle cx="247.3" cy="155.7" r="3" fill="#8a5a5a"/><circle cx="250.2" cy="155.7" r="3" fill="#8a5a5a"/><circle cx="253.1" cy="155.7" r="3" fill="#8a5a5a"/><circle cx="255.9" cy="155.7" r="3" fill="#8a5a5a"/><circle cx="258.8" cy="155.7" r="3" fill="#8a5a5a"/><circle cx="261.7" cy="155.7" r="3" fill="#8a5a5a"/><circle cx="264.6" cy="155.7" r="3" fill="#8a5a5a"/><circle cx="267.5" cy="155.7" r="3" fill="#8a5a5a"/><circle cx="270.4" cy="155.7" r="3" fill="#8a5a5a"/><circle cx="273.3" cy="155.7" r="3" fill="#8a5a5a"/><circle cx="276.2" cy="155.7" r="3" fill="#8a5a5a"/><circle cx="279.1" cy="167.6" r="3" fill="#8a5a5a"/><circle cx="282.0" cy="167.6" r="3" fill="#8a5a5a"/><circle cx="284.9" cy="170.3" r="3" fill="#8a5a5a"/><circle cx="287.8" cy="170.3" r="3" fill="#8a5a5a"/><circle cx="290.7" cy="170.5" r="3" fill="#8a5a5a"/><circle cx="293.6" cy="170.7" r="3" fill="#8a5a5a"/><circle cx="296.5" cy="170.7" r="3" fill="#8a5a5a"/><circle cx="299.4" cy="170.9" r="3" fill="#8a5a5a"/><circle cx="302.2" cy="172.7" r="3" fill="#8a5a5a"/><circle cx="305.1" cy="180.6" r="3" fill="#8a5a5a"/><circle cx="308.0" cy="181.8" r="3" fill="#8a5a5a"/><circle cx="310.9" cy="189.1" r="3" fill="#8a5a5a"/><circle cx="313.8" cy="190.5" r="3" fill="#8a5a5a"/><circle cx="316.7" cy="195.2" r="3" fill="#8a5a5a"/><circle cx="319.6" cy="198.0" r="3" fill="#8a5a5a"/><circle cx="322.5" cy="198.0" r="3" fill="#8a5a5a"/><circle cx="325.4" cy="198.0" r="3" fill="#8a5a5a"/><circle cx="328.3" cy="198.0" r="3" fill="#8a5a5a"/><circle cx="331.2" cy="198.0" r="3" fill="#8a5a5a"/><circle cx="334.1" cy="198.0" r="3" fill="#8a5a5a"/><circle cx="337.0" cy="198.0" r="3" fill="#8a5a5a"/><circle cx="339.9" cy="198.0" r="3" fill="#8a5a5a"/><circle cx="342.8" cy="198.0" r="3" fill="#8a5a5a"/><circle cx="345.7" cy="198.0" r="3" fill="#8a5a5a"/><circle cx="348.6" cy="198.0" r="3" fill="#8a5a5a"/><circle cx="351.4" cy="198.0" r="3" fill="#8a5a5a"/><circle cx="354.3" cy="198.0" r="3" fill="#8a5a5a"/><circle cx="357.2" cy="198.0" r="3" fill="#8a5a5a"/><circle cx="360.1" cy="198.0" r="3" fill="#8a5a5a"/><circle cx="363.0" cy="198.0" r="3" fill="#8a5a5a"/><circle cx="365.9" cy="198.0" r="3" fill="#8a5a5a"/><circle cx="368.8" cy="198.0" r="3" fill="#8a5a5a"/><circle cx="371.7" cy="198.0" r="3" fill="#8a5a5a"/><circle cx="374.6" cy="198.0" r="3" fill="#8a5a5a"/><circle cx="377.5" cy="198.0" r="3" fill="#8a5a5a"/><circle cx="380.4" cy="198.0" r="3" fill="#8a5a5a"/><circle cx="383.3" cy="198.0" r="3" fill="#8a5a5a"/><circle cx="386.2" cy="198.0" r="3" fill="#8a5a5a"/><circle cx="389.1" cy="198.0" r="3" fill="#8a5a5a"/><circle cx="392.0" cy="198.0" r="3" fill="#8a5a5a"/><circle cx="394.9" cy="198.0" r="3" fill="#8a5a5a"/><circle cx="397.8" cy="198.0" r="3" fill="#8a5a5a"/><circle cx="400.6" cy="198.0" r="3" fill="#8a5a5a"/><circle cx="403.5" cy="198.0" r="3" fill="#8a5a5a"/><circle cx="406.4" cy="198.0" r="3" fill="#8a5a5a"/><circle cx="409.3" cy="198.0" r="3" fill="#8a5a5a"/><circle cx="412.2" cy="198.0" r="3" fill="#8a5a5a"/><circle cx="415.1" cy="198.0" r="3" fill="#8a5a5a"/><circle cx="418.0" cy="198.0" r="3" fill="#8a5a5a"/><circle cx="420.9" cy="198.0" r="3" fill="#8a5a5a"/><circle cx="423.8" cy="198.0" r="3" fill="#8a5a5a"/><circle cx="426.7" cy="198.0" r="3" fill="#8a5a5a"/><circle cx="429.6" cy="198.0" r="3" fill="#8a5a5a"/><circle cx="432.5" cy="198.0" r="3" fill="#8a5a5a"/><circle cx="435.4" cy="198.0" r="3" fill="#8a5a5a"/><circle cx="438.3" cy="198.0" r="3" fill="#8a5a5a"/><circle cx="441.2" cy="198.0" r="3" fill="#8a5a5a"/><circle cx="444.1" cy="198.0" r="3" fill="#8a5a5a"/><circle cx="446.9" cy="198.0" r="3" fill="#8a5a5a"/><circle cx="449.8" cy="198.0" r="3" fill="#8a5a5a"/><circle cx="452.7" cy="198.0" r="3" fill="#8a5a5a"/><circle cx="455.6" cy="198.0" r="3" fill="#8a5a5a"/><circle cx="458.5" cy="198.0" r="3" fill="#8a5a5a"/><circle cx="461.4" cy="198.0" r="3" fill="#8a5a5a"/><circle cx="464.3" cy="198.0" r="3" fill="#8a5a5a"/><circle cx="467.2" cy="198.0" r="3" fill="#8a5a5a"/><circle cx="470.1" cy="198.0" r="3" fill="#8a5a5a"/><circle cx="473.0" cy="198.0" r="3" fill="#8a5a5a"/><circle cx="475.9" cy="198.0" r="3" fill="#8a5a5a"/><circle cx="478.8" cy="198.0" r="3" fill="#8a5a5a"/><circle cx="481.7" cy="198.0" r="3" fill="#8a5a5a"/><circle cx="484.6" cy="198.0" r="3" fill="#8a5a5a"/><circle cx="487.5" cy="198.0" r="3" fill="#8a5a5a"/><circle cx="490.4" cy="198.0" r="3" fill="#8a5a5a"/><circle cx="493.3" cy="198.0" r="3" fill="#8a5a5a"/><circle cx="496.1" cy="198.0" r="3" fill="#8a5a5a"/><circle cx="499.0" cy="198.0" r="3" fill="#8a5a5a"/><circle cx="501.9" cy="198.0" r="3" fill="#8a5a5a"/><circle cx="504.8" cy="198.0" r="3" fill="#8a5a5a"/><circle cx="507.7" cy="198.0" r="3" fill="#8a5a5a"/><circle cx="510.6" cy="198.0" r="3" fill="#8a5a5a"/><circle cx="513.5" cy="198.0" r="3" fill="#8a5a5a"/><circle cx="516.4" cy="198.0" r="3" fill="#8a5a5a"/><circle cx="519.3" cy="198.0" r="3" fill="#8a5a5a"/><circle cx="522.2" cy="198.0" r="3" fill="#8a5a5a"/><circle cx="525.1" cy="198.0" r="3" fill="#8a5a5a"/><circle cx="528.0" cy="198.0" r="3" fill="#8a5a5a"/><circle cx="530.9" cy="198.0" r="3" fill="#8a5a5a"/><circle cx="533.8" cy="198.0" r="3" fill="#8a5a5a"/><circle cx="536.7" cy="198.0" r="3" fill="#8a5a5a"/><circle cx="539.6" cy="198.0" r="3" fill="#8a5a5a"/><circle cx="542.5" cy="198.0" r="3" fill="#8a5a5a"/><circle cx="545.3" cy="198.0" r="3" fill="#8a5a5a"/><circle cx="548.2" cy="198.0" r="3" fill="#8a5a5a"/><circle cx="551.1" cy="198.0" r="3" fill="#8a5a5a"/><circle cx="554.0" cy="198.0" r="3" fill="#8a5a5a"/><circle cx="556.9" cy="198.0" r="3" fill="#8a5a5a"/><circle cx="559.8" cy="198.0" r="3" fill="#8a5a5a"/><circle cx="562.7" cy="198.0" r="3" fill="#8a5a5a"/><circle cx="565.6" cy="198.0" r="3" fill="#8a5a5a"/><circle cx="568.5" cy="198.0" r="3" fill="#8a5a5a"/><circle cx="571.4" cy="198.0" r="3" fill="#8a5a5a"/><circle cx="574.3" cy="198.0" r="3" fill="#8a5a5a"/><circle cx="577.2" cy="198.0" r="3" fill="#8a5a5a"/><circle cx="580.1" cy="198.0" r="3" fill="#8a5a5a"/><circle cx="583.0" cy="198.0" r="3" fill="#8a5a5a"/><circle cx="585.9" cy="198.0" r="3" fill="#8a5a5a"/><circle cx="588.8" cy="198.0" r="3" fill="#8a5a5a"/><circle cx="591.6" cy="198.0" r="3" fill="#8a5a5a"/><circle cx="594.5" cy="198.0" r="3" fill="#8a5a5a"/><circle cx="597.4" cy="198.0" r="3" fill="#8a5a5a"/><circle cx="600.3" cy="198.0" r="3" fill="#8a5a5a"/><circle cx="603.2" cy="198.0" r="3" fill="#8a5a5a"/><circle cx="606.1" cy="198.0" r="3" fill="#8a5a5a"/><circle cx="609.0" cy="198.0" r="3" fill="#8a5a5a"/><circle cx="611.9" cy="198.0" r="3" fill="#8a5a5a"/><circle cx="614.8" cy="198.0" r="3" fill="#8a5a5a"/><circle cx="617.7" cy="198.0" r="3" fill="#8a5a5a"/><circle cx="620.6" cy="198.0" r="3" fill="#8a5a5a"/><circle cx="623.5" cy="198.0" r="3" fill="#8a5a5a"/><circle cx="626.4" cy="198.0" r="3" fill="#8a5a5a"/><circle cx="629.3" cy="198.0" r="3" fill="#8a5a5a"/><circle cx="632.2" cy="198.0" r="3" fill="#8a5a5a"/><circle cx="635.1" cy="198.0" r="3" fill="#8a5a5a"/><circle cx="638.0" cy="198.0" r="3" fill="#8a5a5a"/><circle cx="640.8" cy="198.0" r="3" fill="#8a5a5a"/><circle cx="643.7" cy="198.0" r="3" fill="#8a5a5a"/><circle cx="646.6" cy="198.0" r="3" fill="#8a5a5a"/><circle cx="649.5" cy="198.0" r="3" fill="#8a5a5a"/><circle cx="652.4" cy="198.0" r="3" fill="#8a5a5a"/><circle cx="655.3" cy="198.0" r="3" fill="#8a5a5a"/><circle cx="658.2" cy="198.0" r="3" fill="#8a5a5a"/><circle cx="661.1" cy="198.0" r="3" fill="#8a5a5a"/><circle cx="664.0" cy="198.0" r="3" fill="#8a5a5a"/>
<polyline fill="none" stroke="#3fb950" stroke-width="2.5" stroke-linejoin="round" points="36.0,198.0 38.9,198.0 41.8,198.0 44.7,198.0 47.6,198.0 50.5,198.0 53.4,198.0 56.3,198.0 59.2,198.0 62.0,198.0 64.9,198.0 67.8,198.0 70.7,198.0 73.6,198.0 76.5,198.0 79.4,198.0 82.3,198.0 85.2,198.0 88.1,198.0 91.0,198.0 93.9,198.0 96.8,198.0 99.7,198.0 102.6,198.0 105.5,198.0 108.4,198.0 111.2,198.0 114.1,198.0 117.0,198.0 119.9,198.0 122.8,198.0 125.7,198.0 128.6,198.0 131.5,198.0 134.4,198.0 137.3,198.0 140.2,198.0 143.1,198.0 146.0,198.0 148.9,198.0 151.8,198.0 154.7,198.0 157.5,198.0 160.4,191.7 163.3,191.7 166.2,191.7 169.1,191.7 172.0,191.7 174.9,191.7 177.8,191.7 180.7,192.9 183.6,192.9 186.5,190.7 189.4,190.7 192.3,190.7 195.2,190.7 198.1,190.7 201.0,190.5 203.9,190.5 206.7,190.5 209.6,190.3 212.5,190.3 215.4,190.3 218.3,190.3 221.2,190.3 224.1,190.3 227.0,190.3 229.9,190.3 232.8,190.3 235.7,190.3 238.6,190.3 241.5,190.3 244.4,190.3 247.3,190.3 250.2,190.3 253.1,190.3 255.9,190.3 258.8,190.3 261.7,190.3 264.6,190.3 267.5,190.3 270.4,189.3 273.3,189.3 276.2,189.3 279.1,190.7 282.0,190.7 284.9,190.7 287.8,190.7 290.7,190.7 293.6,190.7 296.5,190.7 299.4,190.7 302.2,190.7 305.1,190.9 308.0,190.9 310.9,190.9 313.8,194.2 316.7,196.8 319.6,198.0 322.5,198.0 325.4,198.0 328.3,198.0 331.2,198.0 334.1,198.0 337.0,198.0 339.9,198.0 342.8,198.0 345.7,198.0 348.6,198.0 351.4,198.0 354.3,198.0 357.2,198.0 360.1,198.0 363.0,198.0 365.9,198.0 368.8,198.0 371.7,198.0 374.6,198.0 377.5,198.0 380.4,198.0 383.3,198.0 386.2,198.0 389.1,198.0 392.0,198.0 394.9,198.0 397.8,198.0 400.6,198.0 403.5,198.0 406.4,198.0 409.3,198.0 412.2,198.0 415.1,198.0 418.0,198.0 420.9,198.0 423.8,198.0 426.7,198.0 429.6,198.0 432.5,198.0 435.4,198.0 438.3,198.0 441.2,198.0 444.1,198.0 446.9,198.0 449.8,198.0 452.7,198.0 455.6,198.0 458.5,198.0 461.4,198.0 464.3,198.0 467.2,198.0 470.1,198.0 473.0,198.0 475.9,198.0 478.8,198.0 481.7,198.0 484.6,198.0 487.5,198.0 490.4,198.0 493.3,198.0 496.1,198.0 499.0,198.0 501.9,198.0 504.8,198.0 507.7,198.0 510.6,198.0 513.5,198.0 516.4,198.0 519.3,198.0 522.2,198.0 525.1,198.0 528.0,198.0 530.9,198.0 533.8,198.0 536.7,198.0 539.6,198.0 542.5,198.0 545.3,198.0 548.2,198.0 551.1,198.0 554.0,198.0 556.9,198.0 559.8,198.0 562.7,198.0 565.6,198.0 568.5,198.0 571.4,198.0 574.3,198.0 577.2,198.0 580.1,198.0 583.0,198.0 585.9,198.0 588.8,198.0 591.6,198.0 594.5,198.0 597.4,198.0 600.3,198.0 603.2,198.0 606.1,198.0 609.0,198.0 611.9,198.0 614.8,198.0 617.7,198.0 620.6,198.0 623.5,198.0 626.4,198.0 629.3,198.0 632.2,198.0 635.1,198.0 638.0,198.0 640.8,198.0 643.7,198.0 646.6,198.0 649.5,198.0 652.4,198.0 655.3,198.0 658.2,198.0 661.1,198.0 664.0,198.0"/><circle cx="36.0" cy="198.0" r="3" fill="#3fb950"/><circle cx="38.9" cy="198.0" r="3" fill="#3fb950"/><circle cx="41.8" cy="198.0" r="3" fill="#3fb950"/><circle cx="44.7" cy="198.0" r="3" fill="#3fb950"/><circle cx="47.6" cy="198.0" r="3" fill="#3fb950"/><circle cx="50.5" cy="198.0" r="3" fill="#3fb950"/><circle cx="53.4" cy="198.0" r="3" fill="#3fb950"/><circle cx="56.3" cy="198.0" r="3" fill="#3fb950"/><circle cx="59.2" cy="198.0" r="3" fill="#3fb950"/><circle cx="62.0" cy="198.0" r="3" fill="#3fb950"/><circle cx="64.9" cy="198.0" r="3" fill="#3fb950"/><circle cx="67.8" cy="198.0" r="3" fill="#3fb950"/><circle cx="70.7" cy="198.0" r="3" fill="#3fb950"/><circle cx="73.6" cy="198.0" r="3" fill="#3fb950"/><circle cx="76.5" cy="198.0" r="3" fill="#3fb950"/><circle cx="79.4" cy="198.0" r="3" fill="#3fb950"/><circle cx="82.3" cy="198.0" r="3" fill="#3fb950"/><circle cx="85.2" cy="198.0" r="3" fill="#3fb950"/><circle cx="88.1" cy="198.0" r="3" fill="#3fb950"/><circle cx="91.0" cy="198.0" r="3" fill="#3fb950"/><circle cx="93.9" cy="198.0" r="3" fill="#3fb950"/><circle cx="96.8" cy="198.0" r="3" fill="#3fb950"/><circle cx="99.7" cy="198.0" r="3" fill="#3fb950"/><circle cx="102.6" cy="198.0" r="3" fill="#3fb950"/><circle cx="105.5" cy="198.0" r="3" fill="#3fb950"/><circle cx="108.4" cy="198.0" r="3" fill="#3fb950"/><circle cx="111.2" cy="198.0" r="3" fill="#3fb950"/><circle cx="114.1" cy="198.0" r="3" fill="#3fb950"/><circle cx="117.0" cy="198.0" r="3" fill="#3fb950"/><circle cx="119.9" cy="198.0" r="3" fill="#3fb950"/><circle cx="122.8" cy="198.0" r="3" fill="#3fb950"/><circle cx="125.7" cy="198.0" r="3" fill="#3fb950"/><circle cx="128.6" cy="198.0" r="3" fill="#3fb950"/><circle cx="131.5" cy="198.0" r="3" fill="#3fb950"/><circle cx="134.4" cy="198.0" r="3" fill="#3fb950"/><circle cx="137.3" cy="198.0" r="3" fill="#3fb950"/><circle cx="140.2" cy="198.0" r="3" fill="#3fb950"/><circle cx="143.1" cy="198.0" r="3" fill="#3fb950"/><circle cx="146.0" cy="198.0" r="3" fill="#3fb950"/><circle cx="148.9" cy="198.0" r="3" fill="#3fb950"/><circle cx="151.8" cy="198.0" r="3" fill="#3fb950"/><circle cx="154.7" cy="198.0" r="3" fill="#3fb950"/><circle cx="157.5" cy="198.0" r="3" fill="#3fb950"/><circle cx="160.4" cy="191.7" r="3" fill="#3fb950"/><circle cx="163.3" cy="191.7" r="3" fill="#3fb950"/><circle cx="166.2" cy="191.7" r="3" fill="#3fb950"/><circle cx="169.1" cy="191.7" r="3" fill="#3fb950"/><circle cx="172.0" cy="191.7" r="3" fill="#3fb950"/><circle cx="174.9" cy="191.7" r="3" fill="#3fb950"/><circle cx="177.8" cy="191.7" r="3" fill="#3fb950"/><circle cx="180.7" cy="192.9" r="3" fill="#3fb950"/><circle cx="183.6" cy="192.9" r="3" fill="#3fb950"/><circle cx="186.5" cy="190.7" r="3" fill="#3fb950"/><circle cx="189.4" cy="190.7" r="3" fill="#3fb950"/><circle cx="192.3" cy="190.7" r="3" fill="#3fb950"/><circle cx="195.2" cy="190.7" r="3" fill="#3fb950"/><circle cx="198.1" cy="190.7" r="3" fill="#3fb950"/><circle cx="201.0" cy="190.5" r="3" fill="#3fb950"/><circle cx="203.9" cy="190.5" r="3" fill="#3fb950"/><circle cx="206.7" cy="190.5" r="3" fill="#3fb950"/><circle cx="209.6" cy="190.3" r="3" fill="#3fb950"/><circle cx="212.5" cy="190.3" r="3" fill="#3fb950"/><circle cx="215.4" cy="190.3" r="3" fill="#3fb950"/><circle cx="218.3" cy="190.3" r="3" fill="#3fb950"/><circle cx="221.2" cy="190.3" r="3" fill="#3fb950"/><circle cx="224.1" cy="190.3" r="3" fill="#3fb950"/><circle cx="227.0" cy="190.3" r="3" fill="#3fb950"/><circle cx="229.9" cy="190.3" r="3" fill="#3fb950"/><circle cx="232.8" cy="190.3" r="3" fill="#3fb950"/><circle cx="235.7" cy="190.3" r="3" fill="#3fb950"/><circle cx="238.6" cy="190.3" r="3" fill="#3fb950"/><circle cx="241.5" cy="190.3" r="3" fill="#3fb950"/><circle cx="244.4" cy="190.3" r="3" fill="#3fb950"/><circle cx="247.3" cy="190.3" r="3" fill="#3fb950"/><circle cx="250.2" cy="190.3" r="3" fill="#3fb950"/><circle cx="253.1" cy="190.3" r="3" fill="#3fb950"/><circle cx="255.9" cy="190.3" r="3" fill="#3fb950"/><circle cx="258.8" cy="190.3" r="3" fill="#3fb950"/><circle cx="261.7" cy="190.3" r="3" fill="#3fb950"/><circle cx="264.6" cy="190.3" r="3" fill="#3fb950"/><circle cx="267.5" cy="190.3" r="3" fill="#3fb950"/><circle cx="270.4" cy="189.3" r="3" fill="#3fb950"/><circle cx="273.3" cy="189.3" r="3" fill="#3fb950"/><circle cx="276.2" cy="189.3" r="3" fill="#3fb950"/><circle cx="279.1" cy="190.7" r="3" fill="#3fb950"/><circle cx="282.0" cy="190.7" r="3" fill="#3fb950"/><circle cx="284.9" cy="190.7" r="3" fill="#3fb950"/><circle cx="287.8" cy="190.7" r="3" fill="#3fb950"/><circle cx="290.7" cy="190.7" r="3" fill="#3fb950"/><circle cx="293.6" cy="190.7" r="3" fill="#3fb950"/><circle cx="296.5" cy="190.7" r="3" fill="#3fb950"/><circle cx="299.4" cy="190.7" r="3" fill="#3fb950"/><circle cx="302.2" cy="190.7" r="3" fill="#3fb950"/><circle cx="305.1" cy="190.9" r="3" fill="#3fb950"/><circle cx="308.0" cy="190.9" r="3" fill="#3fb950"/><circle cx="310.9" cy="190.9" r="3" fill="#3fb950"/><circle cx="313.8" cy="194.2" r="3" fill="#3fb950"/><circle cx="316.7" cy="196.8" r="3" fill="#3fb950"/><circle cx="319.6" cy="198.0" r="3" fill="#3fb950"/><circle cx="322.5" cy="198.0" r="3" fill="#3fb950"/><circle cx="325.4" cy="198.0" r="3" fill="#3fb950"/><circle cx="328.3" cy="198.0" r="3" fill="#3fb950"/><circle cx="331.2" cy="198.0" r="3" fill="#3fb950"/><circle cx="334.1" cy="198.0" r="3" fill="#3fb950"/><circle cx="337.0" cy="198.0" r="3" fill="#3fb950"/><circle cx="339.9" cy="198.0" r="3" fill="#3fb950"/><circle cx="342.8" cy="198.0" r="3" fill="#3fb950"/><circle cx="345.7" cy="198.0" r="3" fill="#3fb950"/><circle cx="348.6" cy="198.0" r="3" fill="#3fb950"/><circle cx="351.4" cy="198.0" r="3" fill="#3fb950"/><circle cx="354.3" cy="198.0" r="3" fill="#3fb950"/><circle cx="357.2" cy="198.0" r="3" fill="#3fb950"/><circle cx="360.1" cy="198.0" r="3" fill="#3fb950"/><circle cx="363.0" cy="198.0" r="3" fill="#3fb950"/><circle cx="365.9" cy="198.0" r="3" fill="#3fb950"/><circle cx="368.8" cy="198.0" r="3" fill="#3fb950"/><circle cx="371.7" cy="198.0" r="3" fill="#3fb950"/><circle cx="374.6" cy="198.0" r="3" fill="#3fb950"/><circle cx="377.5" cy="198.0" r="3" fill="#3fb950"/><circle cx="380.4" cy="198.0" r="3" fill="#3fb950"/><circle cx="383.3" cy="198.0" r="3" fill="#3fb950"/><circle cx="386.2" cy="198.0" r="3" fill="#3fb950"/><circle cx="389.1" cy="198.0" r="3" fill="#3fb950"/><circle cx="392.0" cy="198.0" r="3" fill="#3fb950"/><circle cx="394.9" cy="198.0" r="3" fill="#3fb950"/><circle cx="397.8" cy="198.0" r="3" fill="#3fb950"/><circle cx="400.6" cy="198.0" r="3" fill="#3fb950"/><circle cx="403.5" cy="198.0" r="3" fill="#3fb950"/><circle cx="406.4" cy="198.0" r="3" fill="#3fb950"/><circle cx="409.3" cy="198.0" r="3" fill="#3fb950"/><circle cx="412.2" cy="198.0" r="3" fill="#3fb950"/><circle cx="415.1" cy="198.0" r="3" fill="#3fb950"/><circle cx="418.0" cy="198.0" r="3" fill="#3fb950"/><circle cx="420.9" cy="198.0" r="3" fill="#3fb950"/><circle cx="423.8" cy="198.0" r="3" fill="#3fb950"/><circle cx="426.7" cy="198.0" r="3" fill="#3fb950"/><circle cx="429.6" cy="198.0" r="3" fill="#3fb950"/><circle cx="432.5" cy="198.0" r="3" fill="#3fb950"/><circle cx="435.4" cy="198.0" r="3" fill="#3fb950"/><circle cx="438.3" cy="198.0" r="3" fill="#3fb950"/><circle cx="441.2" cy="198.0" r="3" fill="#3fb950"/><circle cx="444.1" cy="198.0" r="3" fill="#3fb950"/><circle cx="446.9" cy="198.0" r="3" fill="#3fb950"/><circle cx="449.8" cy="198.0" r="3" fill="#3fb950"/><circle cx="452.7" cy="198.0" r="3" fill="#3fb950"/><circle cx="455.6" cy="198.0" r="3" fill="#3fb950"/><circle cx="458.5" cy="198.0" r="3" fill="#3fb950"/><circle cx="461.4" cy="198.0" r="3" fill="#3fb950"/><circle cx="464.3" cy="198.0" r="3" fill="#3fb950"/><circle cx="467.2" cy="198.0" r="3" fill="#3fb950"/><circle cx="470.1" cy="198.0" r="3" fill="#3fb950"/><circle cx="473.0" cy="198.0" r="3" fill="#3fb950"/><circle cx="475.9" cy="198.0" r="3" fill="#3fb950"/><circle cx="478.8" cy="198.0" r="3" fill="#3fb950"/><circle cx="481.7" cy="198.0" r="3" fill="#3fb950"/><circle cx="484.6" cy="198.0" r="3" fill="#3fb950"/><circle cx="487.5" cy="198.0" r="3" fill="#3fb950"/><circle cx="490.4" cy="198.0" r="3" fill="#3fb950"/><circle cx="493.3" cy="198.0" r="3" fill="#3fb950"/><circle cx="496.1" cy="198.0" r="3" fill="#3fb950"/><circle cx="499.0" cy="198.0" r="3" fill="#3fb950"/><circle cx="501.9" cy="198.0" r="3" fill="#3fb950"/><circle cx="504.8" cy="198.0" r="3" fill="#3fb950"/><circle cx="507.7" cy="198.0" r="3" fill="#3fb950"/><circle cx="510.6" cy="198.0" r="3" fill="#3fb950"/><circle cx="513.5" cy="198.0" r="3" fill="#3fb950"/><circle cx="516.4" cy="198.0" r="3" fill="#3fb950"/><circle cx="519.3" cy="198.0" r="3" fill="#3fb950"/><circle cx="522.2" cy="198.0" r="3" fill="#3fb950"/><circle cx="525.1" cy="198.0" r="3" fill="#3fb950"/><circle cx="528.0" cy="198.0" r="3" fill="#3fb950"/><circle cx="530.9" cy="198.0" r="3" fill="#3fb950"/><circle cx="533.8" cy="198.0" r="3" fill="#3fb950"/><circle cx="536.7" cy="198.0" r="3" fill="#3fb950"/><circle cx="539.6" cy="198.0" r="3" fill="#3fb950"/><circle cx="542.5" cy="198.0" r="3" fill="#3fb950"/><circle cx="545.3" cy="198.0" r="3" fill="#3fb950"/><circle cx="548.2" cy="198.0" r="3" fill="#3fb950"/><circle cx="551.1" cy="198.0" r="3" fill="#3fb950"/><circle cx="554.0" cy="198.0" r="3" fill="#3fb950"/><circle cx="556.9" cy="198.0" r="3" fill="#3fb950"/><circle cx="559.8" cy="198.0" r="3" fill="#3fb950"/><circle cx="562.7" cy="198.0" r="3" fill="#3fb950"/><circle cx="565.6" cy="198.0" r="3" fill="#3fb950"/><circle cx="568.5" cy="198.0" r="3" fill="#3fb950"/><circle cx="571.4" cy="198.0" r="3" fill="#3fb950"/><circle cx="574.3" cy="198.0" r="3" fill="#3fb950"/><circle cx="577.2" cy="198.0" r="3" fill="#3fb950"/><circle cx="580.1" cy="198.0" r="3" fill="#3fb950"/><circle cx="583.0" cy="198.0" r="3" fill="#3fb950"/><circle cx="585.9" cy="198.0" r="3" fill="#3fb950"/><circle cx="588.8" cy="198.0" r="3" fill="#3fb950"/><circle cx="591.6" cy="198.0" r="3" fill="#3fb950"/><circle cx="594.5" cy="198.0" r="3" fill="#3fb950"/><circle cx="597.4" cy="198.0" r="3" fill="#3fb950"/><circle cx="600.3" cy="198.0" r="3" fill="#3fb950"/><circle cx="603.2" cy="198.0" r="3" fill="#3fb950"/><circle cx="606.1" cy="198.0" r="3" fill="#3fb950"/><circle cx="609.0" cy="198.0" r="3" fill="#3fb950"/><circle cx="611.9" cy="198.0" r="3" fill="#3fb950"/><circle cx="614.8" cy="198.0" r="3" fill="#3fb950"/><circle cx="617.7" cy="198.0" r="3" fill="#3fb950"/><circle cx="620.6" cy="198.0" r="3" fill="#3fb950"/><circle cx="623.5" cy="198.0" r="3" fill="#3fb950"/><circle cx="626.4" cy="198.0" r="3" fill="#3fb950"/><circle cx="629.3" cy="198.0" r="3" fill="#3fb950"/><circle cx="632.2" cy="198.0" r="3" fill="#3fb950"/><circle cx="635.1" cy="198.0" r="3" fill="#3fb950"/><circle cx="638.0" cy="198.0" r="3" fill="#3fb950"/><circle cx="640.8" cy="198.0" r="3" fill="#3fb950"/><circle cx="643.7" cy="198.0" r="3" fill="#3fb950"/><circle cx="646.6" cy="198.0" r="3" fill="#3fb950"/><circle cx="649.5" cy="198.0" r="3" fill="#3fb950"/><circle cx="652.4" cy="198.0" r="3" fill="#3fb950"/><circle cx="655.3" cy="198.0" r="3" fill="#3fb950"/><circle cx="658.2" cy="198.0" r="3" fill="#3fb950"/><circle cx="661.1" cy="198.0" r="3" fill="#3fb950"/><circle cx="664.0" cy="198.0" r="3" fill="#3fb950"/>
<polyline fill="none" stroke="#4aa3ff" stroke-width="2.5" stroke-linejoin="round" points="36.0,144.3 38.9,144.3 41.8,144.3 44.7,144.3 47.6,144.3 50.5,144.3 53.4,144.3 56.3,144.3 59.2,144.3 62.0,144.3 64.9,144.3 67.8,144.3 70.7,144.3 73.6,144.3 76.5,144.3 79.4,136.2 82.3,132.4 85.2,129.6 88.1,129.6 91.0,121.0 93.9,121.0 96.8,121.0 99.7,114.4 102.6,114.4 105.5,114.4 108.4,111.3 111.2,110.9 114.1,110.9 117.0,110.5 119.9,110.5 122.8,109.9 125.7,108.7 128.6,107.3 131.5,106.9 134.4,106.9 137.3,106.9 140.2,106.9 143.1,106.9 146.0,106.9 148.9,106.9 151.8,106.9 154.7,106.9 157.5,106.9 160.4,113.2 163.3,113.2 166.2,113.2 169.1,113.2 172.0,113.2 174.9,110.7 177.8,105.3 180.7,83.4 183.6,83.4 186.5,85.6 189.4,85.6 192.3,85.6 195.2,85.6 198.1,85.6 201.0,85.8 203.9,85.8 206.7,85.8 209.6,86.0 212.5,86.0 215.4,86.0 218.3,86.0 221.2,86.0 224.1,86.0 227.0,86.0 229.9,86.0 232.8,86.0 235.7,86.0 238.6,86.0 241.5,86.0 244.4,86.0 247.3,86.0 250.2,86.0 253.1,86.0 255.9,86.0 258.8,86.0 261.7,86.0 264.6,86.0 267.5,86.0 270.4,87.0 273.3,87.0 276.2,87.0 279.1,73.7 282.0,73.7 284.9,71.0 287.8,71.0 290.7,70.8 293.6,70.6 296.5,70.6 299.4,70.4 302.2,68.6 305.1,60.5 308.0,59.3 310.9,52.0 313.8,47.3 316.7,40.1 319.6,36.0 322.5,36.0 325.4,36.0 328.3,36.0 331.2,36.0 334.1,36.0 337.0,36.0 339.9,36.0 342.8,36.0 345.7,36.0 348.6,36.0 351.4,36.0 354.3,36.0 357.2,36.0 360.1,36.0 363.0,36.0 365.9,36.0 368.8,36.0 371.7,36.0 374.6,36.0 377.5,36.0 380.4,36.0 383.3,36.0 386.2,36.0 389.1,36.0 392.0,36.0 394.9,36.0 397.8,36.0 400.6,36.0 403.5,36.0 406.4,36.0 409.3,36.0 412.2,36.0 415.1,36.0 418.0,36.0 420.9,36.0 423.8,36.0 426.7,36.0 429.6,36.0 432.5,36.0 435.4,36.0 438.3,36.0 441.2,36.0 444.1,36.0 446.9,36.0 449.8,36.0 452.7,36.0 455.6,36.0 458.5,36.0 461.4,36.0 464.3,36.0 467.2,36.0 470.1,36.0 473.0,36.0 475.9,36.0 478.8,36.0 481.7,36.0 484.6,36.0 487.5,36.0 490.4,36.0 493.3,36.0 496.1,36.0 499.0,36.0 501.9,36.0 504.8,36.0 507.7,36.0 510.6,36.0 513.5,36.0 516.4,36.0 519.3,36.0 522.2,36.0 525.1,36.0 528.0,36.0 530.9,36.0 533.8,36.0 536.7,36.0 539.6,36.0 542.5,36.0 545.3,36.0 548.2,36.0 551.1,36.0 554.0,36.0 556.9,36.0 559.8,36.0 562.7,36.0 565.6,36.0 568.5,36.0 571.4,36.0 574.3,36.0 577.2,36.0 580.1,36.0 583.0,36.0 585.9,36.0 588.8,36.0 591.6,36.0 594.5,36.0 597.4,36.0 600.3,36.0 603.2,36.0 606.1,36.0 609.0,36.0 611.9,36.0 614.8,36.0 617.7,36.0 620.6,36.0 623.5,36.0 626.4,36.0 629.3,36.0 632.2,36.0 635.1,36.0 638.0,36.0 640.8,36.0 643.7,36.0 646.6,36.0 649.5,36.0 652.4,36.0 655.3,36.0 658.2,36.0 661.1,36.0 664.0,36.0"/><circle cx="36.0" cy="144.3" r="3" fill="#4aa3ff"/><circle cx="38.9" cy="144.3" r="3" fill="#4aa3ff"/><circle cx="41.8" cy="144.3" r="3" fill="#4aa3ff"/><circle cx="44.7" cy="144.3" r="3" fill="#4aa3ff"/><circle cx="47.6" cy="144.3" r="3" fill="#4aa3ff"/><circle cx="50.5" cy="144.3" r="3" fill="#4aa3ff"/><circle cx="53.4" cy="144.3" r="3" fill="#4aa3ff"/><circle cx="56.3" cy="144.3" r="3" fill="#4aa3ff"/><circle cx="59.2" cy="144.3" r="3" fill="#4aa3ff"/><circle cx="62.0" cy="144.3" r="3" fill="#4aa3ff"/><circle cx="64.9" cy="144.3" r="3" fill="#4aa3ff"/><circle cx="67.8" cy="144.3" r="3" fill="#4aa3ff"/><circle cx="70.7" cy="144.3" r="3" fill="#4aa3ff"/><circle cx="73.6" cy="144.3" r="3" fill="#4aa3ff"/><circle cx="76.5" cy="144.3" r="3" fill="#4aa3ff"/><circle cx="79.4" cy="136.2" r="3" fill="#4aa3ff"/><circle cx="82.3" cy="132.4" r="3" fill="#4aa3ff"/><circle cx="85.2" cy="129.6" r="3" fill="#4aa3ff"/><circle cx="88.1" cy="129.6" r="3" fill="#4aa3ff"/><circle cx="91.0" cy="121.0" r="3" fill="#4aa3ff"/><circle cx="93.9" cy="121.0" r="3" fill="#4aa3ff"/><circle cx="96.8" cy="121.0" r="3" fill="#4aa3ff"/><circle cx="99.7" cy="114.4" r="3" fill="#4aa3ff"/><circle cx="102.6" cy="114.4" r="3" fill="#4aa3ff"/><circle cx="105.5" cy="114.4" r="3" fill="#4aa3ff"/><circle cx="108.4" cy="111.3" r="3" fill="#4aa3ff"/><circle cx="111.2" cy="110.9" r="3" fill="#4aa3ff"/><circle cx="114.1" cy="110.9" r="3" fill="#4aa3ff"/><circle cx="117.0" cy="110.5" r="3" fill="#4aa3ff"/><circle cx="119.9" cy="110.5" r="3" fill="#4aa3ff"/><circle cx="122.8" cy="109.9" r="3" fill="#4aa3ff"/><circle cx="125.7" cy="108.7" r="3" fill="#4aa3ff"/><circle cx="128.6" cy="107.3" r="3" fill="#4aa3ff"/><circle cx="131.5" cy="106.9" r="3" fill="#4aa3ff"/><circle cx="134.4" cy="106.9" r="3" fill="#4aa3ff"/><circle cx="137.3" cy="106.9" r="3" fill="#4aa3ff"/><circle cx="140.2" cy="106.9" r="3" fill="#4aa3ff"/><circle cx="143.1" cy="106.9" r="3" fill="#4aa3ff"/><circle cx="146.0" cy="106.9" r="3" fill="#4aa3ff"/><circle cx="148.9" cy="106.9" r="3" fill="#4aa3ff"/><circle cx="151.8" cy="106.9" r="3" fill="#4aa3ff"/><circle cx="154.7" cy="106.9" r="3" fill="#4aa3ff"/><circle cx="157.5" cy="106.9" r="3" fill="#4aa3ff"/><circle cx="160.4" cy="113.2" r="3" fill="#4aa3ff"/><circle cx="163.3" cy="113.2" r="3" fill="#4aa3ff"/><circle cx="166.2" cy="113.2" r="3" fill="#4aa3ff"/><circle cx="169.1" cy="113.2" r="3" fill="#4aa3ff"/><circle cx="172.0" cy="113.2" r="3" fill="#4aa3ff"/><circle cx="174.9" cy="110.7" r="3" fill="#4aa3ff"/><circle cx="177.8" cy="105.3" r="3" fill="#4aa3ff"/><circle cx="180.7" cy="83.4" r="3" fill="#4aa3ff"/><circle cx="183.6" cy="83.4" r="3" fill="#4aa3ff"/><circle cx="186.5" cy="85.6" r="3" fill="#4aa3ff"/><circle cx="189.4" cy="85.6" r="3" fill="#4aa3ff"/><circle cx="192.3" cy="85.6" r="3" fill="#4aa3ff"/><circle cx="195.2" cy="85.6" r="3" fill="#4aa3ff"/><circle cx="198.1" cy="85.6" r="3" fill="#4aa3ff"/><circle cx="201.0" cy="85.8" r="3" fill="#4aa3ff"/><circle cx="203.9" cy="85.8" r="3" fill="#4aa3ff"/><circle cx="206.7" cy="85.8" r="3" fill="#4aa3ff"/><circle cx="209.6" cy="86.0" r="3" fill="#4aa3ff"/><circle cx="212.5" cy="86.0" r="3" fill="#4aa3ff"/><circle cx="215.4" cy="86.0" r="3" fill="#4aa3ff"/><circle cx="218.3" cy="86.0" r="3" fill="#4aa3ff"/><circle cx="221.2" cy="86.0" r="3" fill="#4aa3ff"/><circle cx="224.1" cy="86.0" r="3" fill="#4aa3ff"/><circle cx="227.0" cy="86.0" r="3" fill="#4aa3ff"/><circle cx="229.9" cy="86.0" r="3" fill="#4aa3ff"/><circle cx="232.8" cy="86.0" r="3" fill="#4aa3ff"/><circle cx="235.7" cy="86.0" r="3" fill="#4aa3ff"/><circle cx="238.6" cy="86.0" r="3" fill="#4aa3ff"/><circle cx="241.5" cy="86.0" r="3" fill="#4aa3ff"/><circle cx="244.4" cy="86.0" r="3" fill="#4aa3ff"/><circle cx="247.3" cy="86.0" r="3" fill="#4aa3ff"/><circle cx="250.2" cy="86.0" r="3" fill="#4aa3ff"/><circle cx="253.1" cy="86.0" r="3" fill="#4aa3ff"/><circle cx="255.9" cy="86.0" r="3" fill="#4aa3ff"/><circle cx="258.8" cy="86.0" r="3" fill="#4aa3ff"/><circle cx="261.7" cy="86.0" r="3" fill="#4aa3ff"/><circle cx="264.6" cy="86.0" r="3" fill="#4aa3ff"/><circle cx="267.5" cy="86.0" r="3" fill="#4aa3ff"/><circle cx="270.4" cy="87.0" r="3" fill="#4aa3ff"/><circle cx="273.3" cy="87.0" r="3" fill="#4aa3ff"/><circle cx="276.2" cy="87.0" r="3" fill="#4aa3ff"/><circle cx="279.1" cy="73.7" r="3" fill="#4aa3ff"/><circle cx="282.0" cy="73.7" r="3" fill="#4aa3ff"/><circle cx="284.9" cy="71.0" r="3" fill="#4aa3ff"/><circle cx="287.8" cy="71.0" r="3" fill="#4aa3ff"/><circle cx="290.7" cy="70.8" r="3" fill="#4aa3ff"/><circle cx="293.6" cy="70.6" r="3" fill="#4aa3ff"/><circle cx="296.5" cy="70.6" r="3" fill="#4aa3ff"/><circle cx="299.4" cy="70.4" r="3" fill="#4aa3ff"/><circle cx="302.2" cy="68.6" r="3" fill="#4aa3ff"/><circle cx="305.1" cy="60.5" r="3" fill="#4aa3ff"/><circle cx="308.0" cy="59.3" r="3" fill="#4aa3ff"/><circle cx="310.9" cy="52.0" r="3" fill="#4aa3ff"/><circle cx="313.8" cy="47.3" r="3" fill="#4aa3ff"/><circle cx="316.7" cy="40.1" r="3" fill="#4aa3ff"/><circle cx="319.6" cy="36.0" r="3" fill="#4aa3ff"/><circle cx="322.5" cy="36.0" r="3" fill="#4aa3ff"/><circle cx="325.4" cy="36.0" r="3" fill="#4aa3ff"/><circle cx="328.3" cy="36.0" r="3" fill="#4aa3ff"/><circle cx="331.2" cy="36.0" r="3" fill="#4aa3ff"/><circle cx="334.1" cy="36.0" r="3" fill="#4aa3ff"/><circle cx="337.0" cy="36.0" r="3" fill="#4aa3ff"/><circle cx="339.9" cy="36.0" r="3" fill="#4aa3ff"/><circle cx="342.8" cy="36.0" r="3" fill="#4aa3ff"/><circle cx="345.7" cy="36.0" r="3" fill="#4aa3ff"/><circle cx="348.6" cy="36.0" r="3" fill="#4aa3ff"/><circle cx="351.4" cy="36.0" r="3" fill="#4aa3ff"/><circle cx="354.3" cy="36.0" r="3" fill="#4aa3ff"/><circle cx="357.2" cy="36.0" r="3" fill="#4aa3ff"/><circle cx="360.1" cy="36.0" r="3" fill="#4aa3ff"/><circle cx="363.0" cy="36.0" r="3" fill="#4aa3ff"/><circle cx="365.9" cy="36.0" r="3" fill="#4aa3ff"/><circle cx="368.8" cy="36.0" r="3" fill="#4aa3ff"/><circle cx="371.7" cy="36.0" r="3" fill="#4aa3ff"/><circle cx="374.6" cy="36.0" r="3" fill="#4aa3ff"/><circle cx="377.5" cy="36.0" r="3" fill="#4aa3ff"/><circle cx="380.4" cy="36.0" r="3" fill="#4aa3ff"/><circle cx="383.3" cy="36.0" r="3" fill="#4aa3ff"/><circle cx="386.2" cy="36.0" r="3" fill="#4aa3ff"/><circle cx="389.1" cy="36.0" r="3" fill="#4aa3ff"/><circle cx="392.0" cy="36.0" r="3" fill="#4aa3ff"/><circle cx="394.9" cy="36.0" r="3" fill="#4aa3ff"/><circle cx="397.8" cy="36.0" r="3" fill="#4aa3ff"/><circle cx="400.6" cy="36.0" r="3" fill="#4aa3ff"/><circle cx="403.5" cy="36.0" r="3" fill="#4aa3ff"/><circle cx="406.4" cy="36.0" r="3" fill="#4aa3ff"/><circle cx="409.3" cy="36.0" r="3" fill="#4aa3ff"/><circle cx="412.2" cy="36.0" r="3" fill="#4aa3ff"/><circle cx="415.1" cy="36.0" r="3" fill="#4aa3ff"/><circle cx="418.0" cy="36.0" r="3" fill="#4aa3ff"/><circle cx="420.9" cy="36.0" r="3" fill="#4aa3ff"/><circle cx="423.8" cy="36.0" r="3" fill="#4aa3ff"/><circle cx="426.7" cy="36.0" r="3" fill="#4aa3ff"/><circle cx="429.6" cy="36.0" r="3" fill="#4aa3ff"/><circle cx="432.5" cy="36.0" r="3" fill="#4aa3ff"/><circle cx="435.4" cy="36.0" r="3" fill="#4aa3ff"/><circle cx="438.3" cy="36.0" r="3" fill="#4aa3ff"/><circle cx="441.2" cy="36.0" r="3" fill="#4aa3ff"/><circle cx="444.1" cy="36.0" r="3" fill="#4aa3ff"/><circle cx="446.9" cy="36.0" r="3" fill="#4aa3ff"/><circle cx="449.8" cy="36.0" r="3" fill="#4aa3ff"/><circle cx="452.7" cy="36.0" r="3" fill="#4aa3ff"/><circle cx="455.6" cy="36.0" r="3" fill="#4aa3ff"/><circle cx="458.5" cy="36.0" r="3" fill="#4aa3ff"/><circle cx="461.4" cy="36.0" r="3" fill="#4aa3ff"/><circle cx="464.3" cy="36.0" r="3" fill="#4aa3ff"/><circle cx="467.2" cy="36.0" r="3" fill="#4aa3ff"/><circle cx="470.1" cy="36.0" r="3" fill="#4aa3ff"/><circle cx="473.0" cy="36.0" r="3" fill="#4aa3ff"/><circle cx="475.9" cy="36.0" r="3" fill="#4aa3ff"/><circle cx="478.8" cy="36.0" r="3" fill="#4aa3ff"/><circle cx="481.7" cy="36.0" r="3" fill="#4aa3ff"/><circle cx="484.6" cy="36.0" r="3" fill="#4aa3ff"/><circle cx="487.5" cy="36.0" r="3" fill="#4aa3ff"/><circle cx="490.4" cy="36.0" r="3" fill="#4aa3ff"/><circle cx="493.3" cy="36.0" r="3" fill="#4aa3ff"/><circle cx="496.1" cy="36.0" r="3" fill="#4aa3ff"/><circle cx="499.0" cy="36.0" r="3" fill="#4aa3ff"/><circle cx="501.9" cy="36.0" r="3" fill="#4aa3ff"/><circle cx="504.8" cy="36.0" r="3" fill="#4aa3ff"/><circle cx="507.7" cy="36.0" r="3" fill="#4aa3ff"/><circle cx="510.6" cy="36.0" r="3" fill="#4aa3ff"/><circle cx="513.5" cy="36.0" r="3" fill="#4aa3ff"/><circle cx="516.4" cy="36.0" r="3" fill="#4aa3ff"/><circle cx="519.3" cy="36.0" r="3" fill="#4aa3ff"/><circle cx="522.2" cy="36.0" r="3" fill="#4aa3ff"/><circle cx="525.1" cy="36.0" r="3" fill="#4aa3ff"/><circle cx="528.0" cy="36.0" r="3" fill="#4aa3ff"/><circle cx="530.9" cy="36.0" r="3" fill="#4aa3ff"/><circle cx="533.8" cy="36.0" r="3" fill="#4aa3ff"/><circle cx="536.7" cy="36.0" r="3" fill="#4aa3ff"/><circle cx="539.6" cy="36.0" r="3" fill="#4aa3ff"/><circle cx="542.5" cy="36.0" r="3" fill="#4aa3ff"/><circle cx="545.3" cy="36.0" r="3" fill="#4aa3ff"/><circle cx="548.2" cy="36.0" r="3" fill="#4aa3ff"/><circle cx="551.1" cy="36.0" r="3" fill="#4aa3ff"/><circle cx="554.0" cy="36.0" r="3" fill="#4aa3ff"/><circle cx="556.9" cy="36.0" r="3" fill="#4aa3ff"/><circle cx="559.8" cy="36.0" r="3" fill="#4aa3ff"/><circle cx="562.7" cy="36.0" r="3" fill="#4aa3ff"/><circle cx="565.6" cy="36.0" r="3" fill="#4aa3ff"/><circle cx="568.5" cy="36.0" r="3" fill="#4aa3ff"/><circle cx="571.4" cy="36.0" r="3" fill="#4aa3ff"/><circle cx="574.3" cy="36.0" r="3" fill="#4aa3ff"/><circle cx="577.2" cy="36.0" r="3" fill="#4aa3ff"/><circle cx="580.1" cy="36.0" r="3" fill="#4aa3ff"/><circle cx="583.0" cy="36.0" r="3" fill="#4aa3ff"/><circle cx="585.9" cy="36.0" r="3" fill="#4aa3ff"/><circle cx="588.8" cy="36.0" r="3" fill="#4aa3ff"/><circle cx="591.6" cy="36.0" r="3" fill="#4aa3ff"/><circle cx="594.5" cy="36.0" r="3" fill="#4aa3ff"/><circle cx="597.4" cy="36.0" r="3" fill="#4aa3ff"/><circle cx="600.3" cy="36.0" r="3" fill="#4aa3ff"/><circle cx="603.2" cy="36.0" r="3" fill="#4aa3ff"/><circle cx="606.1" cy="36.0" r="3" fill="#4aa3ff"/><circle cx="609.0" cy="36.0" r="3" fill="#4aa3ff"/><circle cx="611.9" cy="36.0" r="3" fill="#4aa3ff"/><circle cx="614.8" cy="36.0" r="3" fill="#4aa3ff"/><circle cx="617.7" cy="36.0" r="3" fill="#4aa3ff"/><circle cx="620.6" cy="36.0" r="3" fill="#4aa3ff"/><circle cx="623.5" cy="36.0" r="3" fill="#4aa3ff"/><circle cx="626.4" cy="36.0" r="3" fill="#4aa3ff"/><circle cx="629.3" cy="36.0" r="3" fill="#4aa3ff"/><circle cx="632.2" cy="36.0" r="3" fill="#4aa3ff"/><circle cx="635.1" cy="36.0" r="3" fill="#4aa3ff"/><circle cx="638.0" cy="36.0" r="3" fill="#4aa3ff"/><circle cx="640.8" cy="36.0" r="3" fill="#4aa3ff"/><circle cx="643.7" cy="36.0" r="3" fill="#4aa3ff"/><circle cx="646.6" cy="36.0" r="3" fill="#4aa3ff"/><circle cx="649.5" cy="36.0" r="3" fill="#4aa3ff"/><circle cx="652.4" cy="36.0" r="3" fill="#4aa3ff"/><circle cx="655.3" cy="36.0" r="3" fill="#4aa3ff"/><circle cx="658.2" cy="36.0" r="3" fill="#4aa3ff"/><circle cx="661.1" cy="36.0" r="3" fill="#4aa3ff"/><circle cx="664.0" cy="36.0" r="3" fill="#4aa3ff"/>
<text x="36" y="225" fill="#6b7280" font-size="11">2026-06-26</text>
<text x="664" y="225" fill="#6b7280" font-size="11" text-anchor="end">2026-07-18</text>
<text x="36" y="212" font-family="system-ui,sans-serif" font-size="11">
<tspan fill="#4aa3ff">&#9679; open FPs</tspan>  <tspan fill="#3fb950">&#9679; closed (Anthropic acting)</tspan>  <tspan fill="#8a5a5a">&#9679; harness withdrawn</tspan></text>
<text x="664" y="22" text-anchor="end" font-family="system-ui,sans-serif" font-size="12">
<tspan fill="#4aa3ff">open 800</tspan>  <tspan fill="#3fb950">closed 0</tspan>  <tspan fill="#8a5a5a">harness 0</tspan></text>
</svg>