<svg xmlns="http://www.w3.org/2000/svg" width="700" height="234" viewBox="0 0 700 234" role="img">
<rect width="700" height="234" rx="12" fill="#16181d"/>
<text x="36" y="22" fill="#e8eaed" font-family="system-ui,sans-serif" font-size="14" font-weight="700">Is Anthropic acting? cyber/aup false positives over time</text>
<line x1="36" y1="198.0" x2="664" y2="198.0" stroke="#2a2e37" stroke-width="1"/><text x="30" y="202.0" fill="#6b7280" font-size="11" text-anchor="end">0</text><line x1="36" y1="117.0" x2="664" y2="117.0" stroke="#2a2e37" stroke-width="1"/><text x="30" y="121.0" fill="#6b7280" font-size="11" text-anchor="end">400</text><line x1="36" y1="36.0" x2="664" y2="36.0" stroke="#2a2e37" stroke-width="1"/><text x="30" y="40.0" fill="#6b7280" font-size="11" text-anchor="end">800</text>

<polyline fill="none" stroke="#8a5a5a" stroke-width="2.5" stroke-linejoin="round" points="36.0,145.1 38.6,145.1 41.1,145.1 43.7,145.1 46.3,145.1 48.8,145.1 51.4,145.1 53.9,145.1 56.5,145.1 59.1,145.1 61.6,145.1 64.2,145.1 66.8,145.1 69.3,145.1 71.9,145.1 74.4,145.1 77.0,145.1 79.6,145.1 82.1,145.1 84.7,145.1 87.3,145.1 89.8,145.1 92.4,145.1 95.0,145.1 97.5,145.1 100.1,145.1 102.6,145.1 105.2,145.1 107.8,145.1 110.3,145.1 112.9,145.1 115.5,145.1 118.0,145.1 120.6,145.1 123.2,145.1 125.7,145.1 128.3,145.1 130.8,145.1 133.4,145.1 136.0,145.1 138.5,145.1 141.1,145.1 143.7,145.1 146.2,145.1 148.8,145.1 151.3,145.1 153.9,145.1 156.5,145.1 159.0,145.1 161.6,145.1 164.2,155.7 166.7,155.7 169.3,155.7 171.9,155.7 174.4,155.7 177.0,155.7 179.5,155.7 182.1,155.7 184.7,155.7 187.2,155.7 189.8,155.7 192.4,155.7 194.9,155.7 197.5,155.7 200.0,155.7 202.6,155.7 205.2,155.7 207.7,155.7 210.3,155.7 212.9,155.7 215.4,155.7 218.0,155.7 220.6,155.7 223.1,155.7 225.7,155.7 228.2,155.7 230.8,155.7 233.4,155.7 235.9,155.7 238.5,155.7 241.1,155.7 243.6,155.7 246.2,155.7 248.8,155.7 251.3,167.6 253.9,167.6 256.4,170.3 259.0,170.3 261.6,170.5 264.1,170.7 266.7,170.7 269.3,170.9 271.8,172.7 274.4,180.6 276.9,181.8 279.5,189.1 282.1,190.5 284.6,195.2 287.2,198.0 289.8,198.0 292.3,198.0 294.9,198.0 297.5,198.0 300.0,198.0 302.6,198.0 305.1,198.0 307.7,198.0 310.3,198.0 312.8,198.0 315.4,198.0 318.0,198.0 320.5,198.0 323.1,198.0 325.6,198.0 328.2,198.0 330.8,198.0 333.3,198.0 335.9,198.0 338.5,198.0 341.0,198.0 343.6,198.0 346.2,198.0 348.7,198.0 351.3,198.0 353.8,198.0 356.4,198.0 359.0,198.0 361.5,198.0 364.1,198.0 366.7,198.0 369.2,198.0 371.8,198.0 374.4,198.0 376.9,198.0 379.5,198.0 382.0,198.0 384.6,198.0 387.2,198.0 389.7,198.0 392.3,198.0 394.9,198.0 397.4,198.0 400.0,198.0 402.5,198.0 405.1,198.0 407.7,198.0 410.2,198.0 412.8,198.0 415.4,198.0 417.9,198.0 420.5,198.0 423.1,198.0 425.6,198.0 428.2,198.0 430.7,198.0 433.3,198.0 435.9,198.0 438.4,198.0 441.0,198.0 443.6,198.0 446.1,198.0 448.7,198.0 451.2,198.0 453.8,198.0 456.4,198.0 458.9,198.0 461.5,198.0 464.1,198.0 466.6,198.0 469.2,198.0 471.8,198.0 474.3,198.0 476.9,198.0 479.4,198.0 482.0,198.0 484.6,198.0 487.1,198.0 489.7,198.0 492.3,198.0 494.8,198.0 497.4,198.0 500.0,198.0 502.5,198.0 505.1,198.0 507.6,198.0 510.2,198.0 512.8,198.0 515.3,198.0 517.9,198.0 520.5,198.0 523.0,198.0 525.6,198.0 528.1,198.0 530.7,198.0 533.3,198.0 535.8,198.0 538.4,198.0 541.0,198.0 543.5,198.0 546.1,198.0 548.7,198.0 551.2,198.0 553.8,198.0 556.3,198.0 558.9,198.0 561.5,198.0 564.0,198.0 566.6,198.0 569.2,198.0 571.7,198.0 574.3,198.0 576.8,198.0 579.4,198.0 582.0,198.0 584.5,198.0 587.1,198.0 589.7,198.0 592.2,198.0 594.8,198.0 597.4,198.0 599.9,198.0 602.5,198.0 605.0,198.0 607.6,198.0 610.2,198.0 612.7,198.0 615.3,198.0 617.9,198.0 620.4,198.0 623.0,198.0 625.6,198.0 628.1,198.0 630.7,198.0 633.2,198.0 635.8,198.0 638.4,198.0 640.9,198.0 643.5,198.0 646.1,198.0 648.6,198.0 651.2,198.0 653.7,198.0 656.3,198.0 658.9,198.0 661.4,198.0 664.0,198.0"/><circle cx="36.0" cy="145.1" r="3" fill="#8a5a5a"/><circle cx="38.6" cy="145.1" r="3" fill="#8a5a5a"/><circle cx="41.1" cy="145.1" r="3" fill="#8a5a5a"/><circle cx="43.7" cy="145.1" r="3" fill="#8a5a5a"/><circle cx="46.3" cy="145.1" r="3" fill="#8a5a5a"/><circle cx="48.8" cy="145.1" r="3" fill="#8a5a5a"/><circle cx="51.4" cy="145.1" r="3" fill="#8a5a5a"/><circle cx="53.9" cy="145.1" r="3" fill="#8a5a5a"/><circle cx="56.5" cy="145.1" r="3" fill="#8a5a5a"/><circle cx="59.1" cy="145.1" r="3" fill="#8a5a5a"/><circle cx="61.6" cy="145.1" r="3" fill="#8a5a5a"/><circle cx="64.2" cy="145.1" r="3" fill="#8a5a5a"/><circle cx="66.8" cy="145.1" r="3" fill="#8a5a5a"/><circle cx="69.3" cy="145.1" r="3" fill="#8a5a5a"/><circle cx="71.9" cy="145.1" r="3" fill="#8a5a5a"/><circle cx="74.4" cy="145.1" r="3" fill="#8a5a5a"/><circle cx="77.0" cy="145.1" r="3" fill="#8a5a5a"/><circle cx="79.6" cy="145.1" r="3" fill="#8a5a5a"/><circle cx="82.1" cy="145.1" r="3" fill="#8a5a5a"/><circle cx="84.7" cy="145.1" r="3" fill="#8a5a5a"/><circle cx="87.3" cy="145.1" r="3" fill="#8a5a5a"/><circle cx="89.8" cy="145.1" r="3" fill="#8a5a5a"/><circle cx="92.4" cy="145.1" r="3" fill="#8a5a5a"/><circle cx="95.0" cy="145.1" r="3" fill="#8a5a5a"/><circle cx="97.5" cy="145.1" r="3" fill="#8a5a5a"/><circle cx="100.1" cy="145.1" r="3" fill="#8a5a5a"/><circle cx="102.6" cy="145.1" r="3" fill="#8a5a5a"/><circle cx="105.2" cy="145.1" r="3" fill="#8a5a5a"/><circle cx="107.8" cy="145.1" r="3" fill="#8a5a5a"/><circle cx="110.3" cy="145.1" r="3" fill="#8a5a5a"/><circle cx="112.9" cy="145.1" r="3" fill="#8a5a5a"/><circle cx="115.5" cy="145.1" r="3" fill="#8a5a5a"/><circle cx="118.0" cy="145.1" r="3" fill="#8a5a5a"/><circle cx="120.6" cy="145.1" r="3" fill="#8a5a5a"/><circle cx="123.2" cy="145.1" r="3" fill="#8a5a5a"/><circle cx="125.7" cy="145.1" r="3" fill="#8a5a5a"/><circle cx="128.3" cy="145.1" r="3" fill="#8a5a5a"/><circle cx="130.8" cy="145.1" r="3" fill="#8a5a5a"/><circle cx="133.4" cy="145.1" r="3" fill="#8a5a5a"/><circle cx="136.0" cy="145.1" r="3" fill="#8a5a5a"/><circle cx="138.5" cy="145.1" r="3" fill="#8a5a5a"/><circle cx="141.1" cy="145.1" r="3" fill="#8a5a5a"/><circle cx="143.7" cy="145.1" r="3" fill="#8a5a5a"/><circle cx="146.2" cy="145.1" r="3" fill="#8a5a5a"/><circle cx="148.8" cy="145.1" r="3" fill="#8a5a5a"/><circle cx="151.3" cy="145.1" r="3" fill="#8a5a5a"/><circle cx="153.9" cy="145.1" r="3" fill="#8a5a5a"/><circle cx="156.5" cy="145.1" r="3" fill="#8a5a5a"/><circle cx="159.0" cy="145.1" r="3" fill="#8a5a5a"/><circle cx="161.6" cy="145.1" r="3" fill="#8a5a5a"/><circle cx="164.2" cy="155.7" r="3" fill="#8a5a5a"/><circle cx="166.7" cy="155.7" r="3" fill="#8a5a5a"/><circle cx="169.3" cy="155.7" r="3" fill="#8a5a5a"/><circle cx="171.9" cy="155.7" r="3" fill="#8a5a5a"/><circle cx="174.4" cy="155.7" r="3" fill="#8a5a5a"/><circle cx="177.0" cy="155.7" r="3" fill="#8a5a5a"/><circle cx="179.5" cy="155.7" r="3" fill="#8a5a5a"/><circle cx="182.1" cy="155.7" r="3" fill="#8a5a5a"/><circle cx="184.7" cy="155.7" r="3" fill="#8a5a5a"/><circle cx="187.2" cy="155.7" r="3" fill="#8a5a5a"/><circle cx="189.8" cy="155.7" r="3" fill="#8a5a5a"/><circle cx="192.4" cy="155.7" r="3" fill="#8a5a5a"/><circle cx="194.9" cy="155.7" r="3" fill="#8a5a5a"/><circle cx="197.5" cy="155.7" r="3" fill="#8a5a5a"/><circle cx="200.0" cy="155.7" r="3" fill="#8a5a5a"/><circle cx="202.6" cy="155.7" r="3" fill="#8a5a5a"/><circle cx="205.2" cy="155.7" r="3" fill="#8a5a5a"/><circle cx="207.7" cy="155.7" r="3" fill="#8a5a5a"/><circle cx="210.3" cy="155.7" r="3" fill="#8a5a5a"/><circle cx="212.9" cy="155.7" r="3" fill="#8a5a5a"/><circle cx="215.4" cy="155.7" r="3" fill="#8a5a5a"/><circle cx="218.0" cy="155.7" r="3" fill="#8a5a5a"/><circle cx="220.6" cy="155.7" r="3" fill="#8a5a5a"/><circle cx="223.1" cy="155.7" r="3" fill="#8a5a5a"/><circle cx="225.7" cy="155.7" r="3" fill="#8a5a5a"/><circle cx="228.2" cy="155.7" r="3" fill="#8a5a5a"/><circle cx="230.8" cy="155.7" r="3" fill="#8a5a5a"/><circle cx="233.4" cy="155.7" r="3" fill="#8a5a5a"/><circle cx="235.9" cy="155.7" r="3" fill="#8a5a5a"/><circle cx="238.5" cy="155.7" r="3" fill="#8a5a5a"/><circle cx="241.1" cy="155.7" r="3" fill="#8a5a5a"/><circle cx="243.6" cy="155.7" r="3" fill="#8a5a5a"/><circle cx="246.2" cy="155.7" r="3" fill="#8a5a5a"/><circle cx="248.8" cy="155.7" r="3" fill="#8a5a5a"/><circle cx="251.3" cy="167.6" r="3" fill="#8a5a5a"/><circle cx="253.9" cy="167.6" r="3" fill="#8a5a5a"/><circle cx="256.4" cy="170.3" r="3" fill="#8a5a5a"/><circle cx="259.0" cy="170.3" r="3" fill="#8a5a5a"/><circle cx="261.6" cy="170.5" r="3" fill="#8a5a5a"/><circle cx="264.1" cy="170.7" r="3" fill="#8a5a5a"/><circle cx="266.7" cy="170.7" r="3" fill="#8a5a5a"/><circle cx="269.3" cy="170.9" r="3" fill="#8a5a5a"/><circle cx="271.8" cy="172.7" r="3" fill="#8a5a5a"/><circle cx="274.4" cy="180.6" r="3" fill="#8a5a5a"/><circle cx="276.9" cy="181.8" r="3" fill="#8a5a5a"/><circle cx="279.5" cy="189.1" r="3" fill="#8a5a5a"/><circle cx="282.1" cy="190.5" r="3" fill="#8a5a5a"/><circle cx="284.6" cy="195.2" r="3" fill="#8a5a5a"/><circle cx="287.2" cy="198.0" r="3" fill="#8a5a5a"/><circle cx="289.8" cy="198.0" r="3" fill="#8a5a5a"/><circle cx="292.3" cy="198.0" r="3" fill="#8a5a5a"/><circle cx="294.9" cy="198.0" r="3" fill="#8a5a5a"/><circle cx="297.5" cy="198.0" r="3" fill="#8a5a5a"/><circle cx="300.0" cy="198.0" r="3" fill="#8a5a5a"/><circle cx="302.6" cy="198.0" r="3" fill="#8a5a5a"/><circle cx="305.1" cy="198.0" r="3" fill="#8a5a5a"/><circle cx="307.7" cy="198.0" r="3" fill="#8a5a5a"/><circle cx="310.3" cy="198.0" r="3" fill="#8a5a5a"/><circle cx="312.8" cy="198.0" r="3" fill="#8a5a5a"/><circle cx="315.4" cy="198.0" r="3" fill="#8a5a5a"/><circle cx="318.0" cy="198.0" r="3" fill="#8a5a5a"/><circle cx="320.5" cy="198.0" r="3" fill="#8a5a5a"/><circle cx="323.1" cy="198.0" r="3" fill="#8a5a5a"/><circle cx="325.6" cy="198.0" r="3" fill="#8a5a5a"/><circle cx="328.2" cy="198.0" r="3" fill="#8a5a5a"/><circle cx="330.8" cy="198.0" r="3" fill="#8a5a5a"/><circle cx="333.3" cy="198.0" r="3" fill="#8a5a5a"/><circle cx="335.9" cy="198.0" r="3" fill="#8a5a5a"/><circle cx="338.5" cy="198.0" r="3" fill="#8a5a5a"/><circle cx="341.0" cy="198.0" r="3" fill="#8a5a5a"/><circle cx="343.6" cy="198.0" r="3" fill="#8a5a5a"/><circle cx="346.2" cy="198.0" r="3" fill="#8a5a5a"/><circle cx="348.7" cy="198.0" r="3" fill="#8a5a5a"/><circle cx="351.3" cy="198.0" r="3" fill="#8a5a5a"/><circle cx="353.8" cy="198.0" r="3" fill="#8a5a5a"/><circle cx="356.4" cy="198.0" r="3" fill="#8a5a5a"/><circle cx="359.0" cy="198.0" r="3" fill="#8a5a5a"/><circle cx="361.5" cy="198.0" r="3" fill="#8a5a5a"/><circle cx="364.1" cy="198.0" r="3" fill="#8a5a5a"/><circle cx="366.7" cy="198.0" r="3" fill="#8a5a5a"/><circle cx="369.2" cy="198.0" r="3" fill="#8a5a5a"/><circle cx="371.8" cy="198.0" r="3" fill="#8a5a5a"/><circle cx="374.4" cy="198.0" r="3" fill="#8a5a5a"/><circle cx="376.9" cy="198.0" r="3" fill="#8a5a5a"/><circle cx="379.5" cy="198.0" r="3" fill="#8a5a5a"/><circle cx="382.0" cy="198.0" r="3" fill="#8a5a5a"/><circle cx="384.6" cy="198.0" r="3" fill="#8a5a5a"/><circle cx="387.2" cy="198.0" r="3" fill="#8a5a5a"/><circle cx="389.7" cy="198.0" r="3" fill="#8a5a5a"/><circle cx="392.3" cy="198.0" r="3" fill="#8a5a5a"/><circle cx="394.9" cy="198.0" r="3" fill="#8a5a5a"/><circle cx="397.4" cy="198.0" r="3" fill="#8a5a5a"/><circle cx="400.0" cy="198.0" r="3" fill="#8a5a5a"/><circle cx="402.5" cy="198.0" r="3" fill="#8a5a5a"/><circle cx="405.1" cy="198.0" r="3" fill="#8a5a5a"/><circle cx="407.7" cy="198.0" r="3" fill="#8a5a5a"/><circle cx="410.2" cy="198.0" r="3" fill="#8a5a5a"/><circle cx="412.8" cy="198.0" r="3" fill="#8a5a5a"/><circle cx="415.4" cy="198.0" r="3" fill="#8a5a5a"/><circle cx="417.9" cy="198.0" r="3" fill="#8a5a5a"/><circle cx="420.5" cy="198.0" r="3" fill="#8a5a5a"/><circle cx="423.1" cy="198.0" r="3" fill="#8a5a5a"/><circle cx="425.6" cy="198.0" r="3" fill="#8a5a5a"/><circle cx="428.2" cy="198.0" r="3" fill="#8a5a5a"/><circle cx="430.7" cy="198.0" r="3" fill="#8a5a5a"/><circle cx="433.3" cy="198.0" r="3" fill="#8a5a5a"/><circle cx="435.9" cy="198.0" r="3" fill="#8a5a5a"/><circle cx="438.4" cy="198.0" r="3" fill="#8a5a5a"/><circle cx="441.0" cy="198.0" r="3" fill="#8a5a5a"/><circle cx="443.6" cy="198.0" r="3" fill="#8a5a5a"/><circle cx="446.1" cy="198.0" r="3" fill="#8a5a5a"/><circle cx="448.7" cy="198.0" r="3" fill="#8a5a5a"/><circle cx="451.2" cy="198.0" r="3" fill="#8a5a5a"/><circle cx="453.8" cy="198.0" r="3" fill="#8a5a5a"/><circle cx="456.4" cy="198.0" r="3" fill="#8a5a5a"/><circle cx="458.9" cy="198.0" r="3" fill="#8a5a5a"/><circle cx="461.5" cy="198.0" r="3" fill="#8a5a5a"/><circle cx="464.1" cy="198.0" r="3" fill="#8a5a5a"/><circle cx="466.6" cy="198.0" r="3" fill="#8a5a5a"/><circle cx="469.2" cy="198.0" r="3" fill="#8a5a5a"/><circle cx="471.8" cy="198.0" r="3" fill="#8a5a5a"/><circle cx="474.3" cy="198.0" r="3" fill="#8a5a5a"/><circle cx="476.9" cy="198.0" r="3" fill="#8a5a5a"/><circle cx="479.4" cy="198.0" r="3" fill="#8a5a5a"/><circle cx="482.0" cy="198.0" r="3" fill="#8a5a5a"/><circle cx="484.6" cy="198.0" r="3" fill="#8a5a5a"/><circle cx="487.1" cy="198.0" r="3" fill="#8a5a5a"/><circle cx="489.7" cy="198.0" r="3" fill="#8a5a5a"/><circle cx="492.3" cy="198.0" r="3" fill="#8a5a5a"/><circle cx="494.8" cy="198.0" r="3" fill="#8a5a5a"/><circle cx="497.4" cy="198.0" r="3" fill="#8a5a5a"/><circle cx="500.0" cy="198.0" r="3" fill="#8a5a5a"/><circle cx="502.5" cy="198.0" r="3" fill="#8a5a5a"/><circle cx="505.1" cy="198.0" r="3" fill="#8a5a5a"/><circle cx="507.6" cy="198.0" r="3" fill="#8a5a5a"/><circle cx="510.2" cy="198.0" r="3" fill="#8a5a5a"/><circle cx="512.8" cy="198.0" r="3" fill="#8a5a5a"/><circle cx="515.3" cy="198.0" r="3" fill="#8a5a5a"/><circle cx="517.9" cy="198.0" r="3" fill="#8a5a5a"/><circle cx="520.5" cy="198.0" r="3" fill="#8a5a5a"/><circle cx="523.0" cy="198.0" r="3" fill="#8a5a5a"/><circle cx="525.6" cy="198.0" r="3" fill="#8a5a5a"/><circle cx="528.1" cy="198.0" r="3" fill="#8a5a5a"/><circle cx="530.7" cy="198.0" r="3" fill="#8a5a5a"/><circle cx="533.3" cy="198.0" r="3" fill="#8a5a5a"/><circle cx="535.8" cy="198.0" r="3" fill="#8a5a5a"/><circle cx="538.4" cy="198.0" r="3" fill="#8a5a5a"/><circle cx="541.0" cy="198.0" r="3" fill="#8a5a5a"/><circle cx="543.5" cy="198.0" r="3" fill="#8a5a5a"/><circle cx="546.1" cy="198.0" r="3" fill="#8a5a5a"/><circle cx="548.7" cy="198.0" r="3" fill="#8a5a5a"/><circle cx="551.2" cy="198.0" r="3" fill="#8a5a5a"/><circle cx="553.8" cy="198.0" r="3" fill="#8a5a5a"/><circle cx="556.3" cy="198.0" r="3" fill="#8a5a5a"/><circle cx="558.9" cy="198.0" r="3" fill="#8a5a5a"/><circle cx="561.5" cy="198.0" r="3" fill="#8a5a5a"/><circle cx="564.0" cy="198.0" r="3" fill="#8a5a5a"/><circle cx="566.6" cy="198.0" r="3" fill="#8a5a5a"/><circle cx="569.2" cy="198.0" r="3" fill="#8a5a5a"/><circle cx="571.7" cy="198.0" r="3" fill="#8a5a5a"/><circle cx="574.3" cy="198.0" r="3" fill="#8a5a5a"/><circle cx="576.8" cy="198.0" r="3" fill="#8a5a5a"/><circle cx="579.4" cy="198.0" r="3" fill="#8a5a5a"/><circle cx="582.0" cy="198.0" r="3" fill="#8a5a5a"/><circle cx="584.5" cy="198.0" r="3" fill="#8a5a5a"/><circle cx="587.1" cy="198.0" r="3" fill="#8a5a5a"/><circle cx="589.7" cy="198.0" r="3" fill="#8a5a5a"/><circle cx="592.2" cy="198.0" r="3" fill="#8a5a5a"/><circle cx="594.8" cy="198.0" r="3" fill="#8a5a5a"/><circle cx="597.4" cy="198.0" r="3" fill="#8a5a5a"/><circle cx="599.9" cy="198.0" r="3" fill="#8a5a5a"/><circle cx="602.5" cy="198.0" r="3" fill="#8a5a5a"/><circle cx="605.0" cy="198.0" r="3" fill="#8a5a5a"/><circle cx="607.6" cy="198.0" r="3" fill="#8a5a5a"/><circle cx="610.2" cy="198.0" r="3" fill="#8a5a5a"/><circle cx="612.7" cy="198.0" r="3" fill="#8a5a5a"/><circle cx="615.3" cy="198.0" r="3" fill="#8a5a5a"/><circle cx="617.9" cy="198.0" r="3" fill="#8a5a5a"/><circle cx="620.4" cy="198.0" r="3" fill="#8a5a5a"/><circle cx="623.0" cy="198.0" r="3" fill="#8a5a5a"/><circle cx="625.6" cy="198.0" r="3" fill="#8a5a5a"/><circle cx="628.1" cy="198.0" r="3" fill="#8a5a5a"/><circle cx="630.7" cy="198.0" r="3" fill="#8a5a5a"/><circle cx="633.2" cy="198.0" r="3" fill="#8a5a5a"/><circle cx="635.8" cy="198.0" r="3" fill="#8a5a5a"/><circle cx="638.4" cy="198.0" r="3" fill="#8a5a5a"/><circle cx="640.9" cy="198.0" r="3" fill="#8a5a5a"/><circle cx="643.5" cy="198.0" r="3" fill="#8a5a5a"/><circle cx="646.1" cy="198.0" r="3" fill="#8a5a5a"/><circle cx="648.6" cy="198.0" r="3" fill="#8a5a5a"/><circle cx="651.2" cy="198.0" r="3" fill="#8a5a5a"/><circle cx="653.7" cy="198.0" r="3" fill="#8a5a5a"/><circle cx="656.3" cy="198.0" r="3" fill="#8a5a5a"/><circle cx="658.9" cy="198.0" r="3" fill="#8a5a5a"/><circle cx="661.4" cy="198.0" r="3" fill="#8a5a5a"/><circle cx="664.0" cy="198.0" r="3" fill="#8a5a5a"/>
<polyline fill="none" stroke="#3fb950" stroke-width="2.5" stroke-linejoin="round" points="36.0,198.0 38.6,198.0 41.1,198.0 43.7,198.0 46.3,198.0 48.8,198.0 51.4,198.0 53.9,198.0 56.5,198.0 59.1,198.0 61.6,198.0 64.2,198.0 66.8,198.0 69.3,198.0 71.9,198.0 74.4,198.0 77.0,198.0 79.6,198.0 82.1,198.0 84.7,198.0 87.3,198.0 89.8,198.0 92.4,198.0 95.0,198.0 97.5,198.0 100.1,198.0 102.6,198.0 105.2,198.0 107.8,198.0 110.3,198.0 112.9,198.0 115.5,198.0 118.0,198.0 120.6,198.0 123.2,198.0 125.7,198.0 128.3,198.0 130.8,198.0 133.4,198.0 136.0,198.0 138.5,198.0 141.1,198.0 143.7,198.0 146.2,191.7 148.8,191.7 151.3,191.7 153.9,191.7 156.5,191.7 159.0,191.7 161.6,191.7 164.2,192.9 166.7,192.9 169.3,190.7 171.9,190.7 174.4,190.7 177.0,190.7 179.5,190.7 182.1,190.5 184.7,190.5 187.2,190.5 189.8,190.3 192.4,190.3 194.9,190.3 197.5,190.3 200.0,190.3 202.6,190.3 205.2,190.3 207.7,190.3 210.3,190.3 212.9,190.3 215.4,190.3 218.0,190.3 220.6,190.3 223.1,190.3 225.7,190.3 228.2,190.3 230.8,190.3 233.4,190.3 235.9,190.3 238.5,190.3 241.1,190.3 243.6,189.3 246.2,189.3 248.8,189.3 251.3,190.7 253.9,190.7 256.4,190.7 259.0,190.7 261.6,190.7 264.1,190.7 266.7,190.7 269.3,190.7 271.8,190.7 274.4,190.9 276.9,190.9 279.5,190.9 282.1,194.2 284.6,196.8 287.2,198.0 289.8,198.0 292.3,198.0 294.9,198.0 297.5,198.0 300.0,198.0 302.6,198.0 305.1,198.0 307.7,198.0 310.3,198.0 312.8,198.0 315.4,198.0 318.0,198.0 320.5,198.0 323.1,198.0 325.6,198.0 328.2,198.0 330.8,198.0 333.3,198.0 335.9,198.0 338.5,198.0 341.0,198.0 343.6,198.0 346.2,198.0 348.7,198.0 351.3,198.0 353.8,198.0 356.4,198.0 359.0,198.0 361.5,198.0 364.1,198.0 366.7,198.0 369.2,198.0 371.8,198.0 374.4,198.0 376.9,198.0 379.5,198.0 382.0,198.0 384.6,198.0 387.2,198.0 389.7,198.0 392.3,198.0 394.9,198.0 397.4,198.0 400.0,198.0 402.5,198.0 405.1,198.0 407.7,198.0 410.2,198.0 412.8,198.0 415.4,198.0 417.9,198.0 420.5,198.0 423.1,198.0 425.6,198.0 428.2,198.0 430.7,198.0 433.3,198.0 435.9,198.0 438.4,198.0 441.0,198.0 443.6,198.0 446.1,198.0 448.7,198.0 451.2,198.0 453.8,198.0 456.4,198.0 458.9,198.0 461.5,198.0 464.1,198.0 466.6,198.0 469.2,198.0 471.8,198.0 474.3,198.0 476.9,198.0 479.4,198.0 482.0,198.0 484.6,198.0 487.1,198.0 489.7,198.0 492.3,198.0 494.8,198.0 497.4,198.0 500.0,198.0 502.5,198.0 505.1,198.0 507.6,198.0 510.2,198.0 512.8,198.0 515.3,198.0 517.9,198.0 520.5,198.0 523.0,198.0 525.6,198.0 528.1,198.0 530.7,198.0 533.3,198.0 535.8,198.0 538.4,198.0 541.0,198.0 543.5,198.0 546.1,198.0 548.7,198.0 551.2,198.0 553.8,198.0 556.3,198.0 558.9,198.0 561.5,198.0 564.0,198.0 566.6,198.0 569.2,198.0 571.7,198.0 574.3,198.0 576.8,198.0 579.4,198.0 582.0,198.0 584.5,198.0 587.1,198.0 589.7,198.0 592.2,198.0 594.8,198.0 597.4,198.0 599.9,198.0 602.5,198.0 605.0,198.0 607.6,198.0 610.2,198.0 612.7,198.0 615.3,198.0 617.9,198.0 620.4,198.0 623.0,198.0 625.6,198.0 628.1,198.0 630.7,198.0 633.2,198.0 635.8,198.0 638.4,198.0 640.9,198.0 643.5,198.0 646.1,198.0 648.6,198.0 651.2,198.0 653.7,198.0 656.3,198.0 658.9,198.0 661.4,198.0 664.0,198.0"/><circle cx="36.0" cy="198.0" r="3" fill="#3fb950"/><circle cx="38.6" cy="198.0" r="3" fill="#3fb950"/><circle cx="41.1" cy="198.0" r="3" fill="#3fb950"/><circle cx="43.7" cy="198.0" r="3" fill="#3fb950"/><circle cx="46.3" cy="198.0" r="3" fill="#3fb950"/><circle cx="48.8" cy="198.0" r="3" fill="#3fb950"/><circle cx="51.4" cy="198.0" r="3" fill="#3fb950"/><circle cx="53.9" cy="198.0" r="3" fill="#3fb950"/><circle cx="56.5" cy="198.0" r="3" fill="#3fb950"/><circle cx="59.1" cy="198.0" r="3" fill="#3fb950"/><circle cx="61.6" cy="198.0" r="3" fill="#3fb950"/><circle cx="64.2" cy="198.0" r="3" fill="#3fb950"/><circle cx="66.8" cy="198.0" r="3" fill="#3fb950"/><circle cx="69.3" cy="198.0" r="3" fill="#3fb950"/><circle cx="71.9" cy="198.0" r="3" fill="#3fb950"/><circle cx="74.4" cy="198.0" r="3" fill="#3fb950"/><circle cx="77.0" cy="198.0" r="3" fill="#3fb950"/><circle cx="79.6" cy="198.0" r="3" fill="#3fb950"/><circle cx="82.1" cy="198.0" r="3" fill="#3fb950"/><circle cx="84.7" cy="198.0" r="3" fill="#3fb950"/><circle cx="87.3" cy="198.0" r="3" fill="#3fb950"/><circle cx="89.8" cy="198.0" r="3" fill="#3fb950"/><circle cx="92.4" cy="198.0" r="3" fill="#3fb950"/><circle cx="95.0" cy="198.0" r="3" fill="#3fb950"/><circle cx="97.5" cy="198.0" r="3" fill="#3fb950"/><circle cx="100.1" cy="198.0" r="3" fill="#3fb950"/><circle cx="102.6" cy="198.0" r="3" fill="#3fb950"/><circle cx="105.2" cy="198.0" r="3" fill="#3fb950"/><circle cx="107.8" cy="198.0" r="3" fill="#3fb950"/><circle cx="110.3" cy="198.0" r="3" fill="#3fb950"/><circle cx="112.9" cy="198.0" r="3" fill="#3fb950"/><circle cx="115.5" cy="198.0" r="3" fill="#3fb950"/><circle cx="118.0" cy="198.0" r="3" fill="#3fb950"/><circle cx="120.6" cy="198.0" r="3" fill="#3fb950"/><circle cx="123.2" cy="198.0" r="3" fill="#3fb950"/><circle cx="125.7" cy="198.0" r="3" fill="#3fb950"/><circle cx="128.3" cy="198.0" r="3" fill="#3fb950"/><circle cx="130.8" cy="198.0" r="3" fill="#3fb950"/><circle cx="133.4" cy="198.0" r="3" fill="#3fb950"/><circle cx="136.0" cy="198.0" r="3" fill="#3fb950"/><circle cx="138.5" cy="198.0" r="3" fill="#3fb950"/><circle cx="141.1" cy="198.0" r="3" fill="#3fb950"/><circle cx="143.7" cy="198.0" r="3" fill="#3fb950"/><circle cx="146.2" cy="191.7" r="3" fill="#3fb950"/><circle cx="148.8" cy="191.7" r="3" fill="#3fb950"/><circle cx="151.3" cy="191.7" r="3" fill="#3fb950"/><circle cx="153.9" cy="191.7" r="3" fill="#3fb950"/><circle cx="156.5" cy="191.7" r="3" fill="#3fb950"/><circle cx="159.0" cy="191.7" r="3" fill="#3fb950"/><circle cx="161.6" cy="191.7" r="3" fill="#3fb950"/><circle cx="164.2" cy="192.9" r="3" fill="#3fb950"/><circle cx="166.7" cy="192.9" r="3" fill="#3fb950"/><circle cx="169.3" cy="190.7" r="3" fill="#3fb950"/><circle cx="171.9" cy="190.7" r="3" fill="#3fb950"/><circle cx="174.4" cy="190.7" r="3" fill="#3fb950"/><circle cx="177.0" cy="190.7" r="3" fill="#3fb950"/><circle cx="179.5" cy="190.7" r="3" fill="#3fb950"/><circle cx="182.1" cy="190.5" r="3" fill="#3fb950"/><circle cx="184.7" cy="190.5" r="3" fill="#3fb950"/><circle cx="187.2" cy="190.5" r="3" fill="#3fb950"/><circle cx="189.8" cy="190.3" r="3" fill="#3fb950"/><circle cx="192.4" cy="190.3" r="3" fill="#3fb950"/><circle cx="194.9" cy="190.3" r="3" fill="#3fb950"/><circle cx="197.5" cy="190.3" r="3" fill="#3fb950"/><circle cx="200.0" cy="190.3" r="3" fill="#3fb950"/><circle cx="202.6" cy="190.3" r="3" fill="#3fb950"/><circle cx="205.2" cy="190.3" r="3" fill="#3fb950"/><circle cx="207.7" cy="190.3" r="3" fill="#3fb950"/><circle cx="210.3" cy="190.3" r="3" fill="#3fb950"/><circle cx="212.9" cy="190.3" r="3" fill="#3fb950"/><circle cx="215.4" cy="190.3" r="3" fill="#3fb950"/><circle cx="218.0" cy="190.3" r="3" fill="#3fb950"/><circle cx="220.6" cy="190.3" r="3" fill="#3fb950"/><circle cx="223.1" cy="190.3" r="3" fill="#3fb950"/><circle cx="225.7" cy="190.3" r="3" fill="#3fb950"/><circle cx="228.2" cy="190.3" r="3" fill="#3fb950"/><circle cx="230.8" cy="190.3" r="3" fill="#3fb950"/><circle cx="233.4" cy="190.3" r="3" fill="#3fb950"/><circle cx="235.9" cy="190.3" r="3" fill="#3fb950"/><circle cx="238.5" cy="190.3" r="3" fill="#3fb950"/><circle cx="241.1" cy="190.3" r="3" fill="#3fb950"/><circle cx="243.6" cy="189.3" r="3" fill="#3fb950"/><circle cx="246.2" cy="189.3" r="3" fill="#3fb950"/><circle cx="248.8" cy="189.3" r="3" fill="#3fb950"/><circle cx="251.3" cy="190.7" r="3" fill="#3fb950"/><circle cx="253.9" cy="190.7" r="3" fill="#3fb950"/><circle cx="256.4" cy="190.7" r="3" fill="#3fb950"/><circle cx="259.0" cy="190.7" r="3" fill="#3fb950"/><circle cx="261.6" cy="190.7" r="3" fill="#3fb950"/><circle cx="264.1" cy="190.7" r="3" fill="#3fb950"/><circle cx="266.7" cy="190.7" r="3" fill="#3fb950"/><circle cx="269.3" cy="190.7" r="3" fill="#3fb950"/><circle cx="271.8" cy="190.7" r="3" fill="#3fb950"/><circle cx="274.4" cy="190.9" r="3" fill="#3fb950"/><circle cx="276.9" cy="190.9" r="3" fill="#3fb950"/><circle cx="279.5" cy="190.9" r="3" fill="#3fb950"/><circle cx="282.1" cy="194.2" r="3" fill="#3fb950"/><circle cx="284.6" cy="196.8" r="3" fill="#3fb950"/><circle cx="287.2" cy="198.0" r="3" fill="#3fb950"/><circle cx="289.8" cy="198.0" r="3" fill="#3fb950"/><circle cx="292.3" cy="198.0" r="3" fill="#3fb950"/><circle cx="294.9" cy="198.0" r="3" fill="#3fb950"/><circle cx="297.5" cy="198.0" r="3" fill="#3fb950"/><circle cx="300.0" cy="198.0" r="3" fill="#3fb950"/><circle cx="302.6" cy="198.0" r="3" fill="#3fb950"/><circle cx="305.1" cy="198.0" r="3" fill="#3fb950"/><circle cx="307.7" cy="198.0" r="3" fill="#3fb950"/><circle cx="310.3" cy="198.0" r="3" fill="#3fb950"/><circle cx="312.8" cy="198.0" r="3" fill="#3fb950"/><circle cx="315.4" cy="198.0" r="3" fill="#3fb950"/><circle cx="318.0" cy="198.0" r="3" fill="#3fb950"/><circle cx="320.5" cy="198.0" r="3" fill="#3fb950"/><circle cx="323.1" cy="198.0" r="3" fill="#3fb950"/><circle cx="325.6" cy="198.0" r="3" fill="#3fb950"/><circle cx="328.2" cy="198.0" r="3" fill="#3fb950"/><circle cx="330.8" cy="198.0" r="3" fill="#3fb950"/><circle cx="333.3" cy="198.0" r="3" fill="#3fb950"/><circle cx="335.9" cy="198.0" r="3" fill="#3fb950"/><circle cx="338.5" cy="198.0" r="3" fill="#3fb950"/><circle cx="341.0" cy="198.0" r="3" fill="#3fb950"/><circle cx="343.6" cy="198.0" r="3" fill="#3fb950"/><circle cx="346.2" cy="198.0" r="3" fill="#3fb950"/><circle cx="348.7" cy="198.0" r="3" fill="#3fb950"/><circle cx="351.3" cy="198.0" r="3" fill="#3fb950"/><circle cx="353.8" cy="198.0" r="3" fill="#3fb950"/><circle cx="356.4" cy="198.0" r="3" fill="#3fb950"/><circle cx="359.0" cy="198.0" r="3" fill="#3fb950"/><circle cx="361.5" cy="198.0" r="3" fill="#3fb950"/><circle cx="364.1" cy="198.0" r="3" fill="#3fb950"/><circle cx="366.7" cy="198.0" r="3" fill="#3fb950"/><circle cx="369.2" cy="198.0" r="3" fill="#3fb950"/><circle cx="371.8" cy="198.0" r="3" fill="#3fb950"/><circle cx="374.4" cy="198.0" r="3" fill="#3fb950"/><circle cx="376.9" cy="198.0" r="3" fill="#3fb950"/><circle cx="379.5" cy="198.0" r="3" fill="#3fb950"/><circle cx="382.0" cy="198.0" r="3" fill="#3fb950"/><circle cx="384.6" cy="198.0" r="3" fill="#3fb950"/><circle cx="387.2" cy="198.0" r="3" fill="#3fb950"/><circle cx="389.7" cy="198.0" r="3" fill="#3fb950"/><circle cx="392.3" cy="198.0" r="3" fill="#3fb950"/><circle cx="394.9" cy="198.0" r="3" fill="#3fb950"/><circle cx="397.4" cy="198.0" r="3" fill="#3fb950"/><circle cx="400.0" cy="198.0" r="3" fill="#3fb950"/><circle cx="402.5" cy="198.0" r="3" fill="#3fb950"/><circle cx="405.1" cy="198.0" r="3" fill="#3fb950"/><circle cx="407.7" cy="198.0" r="3" fill="#3fb950"/><circle cx="410.2" cy="198.0" r="3" fill="#3fb950"/><circle cx="412.8" cy="198.0" r="3" fill="#3fb950"/><circle cx="415.4" cy="198.0" r="3" fill="#3fb950"/><circle cx="417.9" cy="198.0" r="3" fill="#3fb950"/><circle cx="420.5" cy="198.0" r="3" fill="#3fb950"/><circle cx="423.1" cy="198.0" r="3" fill="#3fb950"/><circle cx="425.6" cy="198.0" r="3" fill="#3fb950"/><circle cx="428.2" cy="198.0" r="3" fill="#3fb950"/><circle cx="430.7" cy="198.0" r="3" fill="#3fb950"/><circle cx="433.3" cy="198.0" r="3" fill="#3fb950"/><circle cx="435.9" cy="198.0" r="3" fill="#3fb950"/><circle cx="438.4" cy="198.0" r="3" fill="#3fb950"/><circle cx="441.0" cy="198.0" r="3" fill="#3fb950"/><circle cx="443.6" cy="198.0" r="3" fill="#3fb950"/><circle cx="446.1" cy="198.0" r="3" fill="#3fb950"/><circle cx="448.7" cy="198.0" r="3" fill="#3fb950"/><circle cx="451.2" cy="198.0" r="3" fill="#3fb950"/><circle cx="453.8" cy="198.0" r="3" fill="#3fb950"/><circle cx="456.4" cy="198.0" r="3" fill="#3fb950"/><circle cx="458.9" cy="198.0" r="3" fill="#3fb950"/><circle cx="461.5" cy="198.0" r="3" fill="#3fb950"/><circle cx="464.1" cy="198.0" r="3" fill="#3fb950"/><circle cx="466.6" cy="198.0" r="3" fill="#3fb950"/><circle cx="469.2" cy="198.0" r="3" fill="#3fb950"/><circle cx="471.8" cy="198.0" r="3" fill="#3fb950"/><circle cx="474.3" cy="198.0" r="3" fill="#3fb950"/><circle cx="476.9" cy="198.0" r="3" fill="#3fb950"/><circle cx="479.4" cy="198.0" r="3" fill="#3fb950"/><circle cx="482.0" cy="198.0" r="3" fill="#3fb950"/><circle cx="484.6" cy="198.0" r="3" fill="#3fb950"/><circle cx="487.1" cy="198.0" r="3" fill="#3fb950"/><circle cx="489.7" cy="198.0" r="3" fill="#3fb950"/><circle cx="492.3" cy="198.0" r="3" fill="#3fb950"/><circle cx="494.8" cy="198.0" r="3" fill="#3fb950"/><circle cx="497.4" cy="198.0" r="3" fill="#3fb950"/><circle cx="500.0" cy="198.0" r="3" fill="#3fb950"/><circle cx="502.5" cy="198.0" r="3" fill="#3fb950"/><circle cx="505.1" cy="198.0" r="3" fill="#3fb950"/><circle cx="507.6" cy="198.0" r="3" fill="#3fb950"/><circle cx="510.2" cy="198.0" r="3" fill="#3fb950"/><circle cx="512.8" cy="198.0" r="3" fill="#3fb950"/><circle cx="515.3" cy="198.0" r="3" fill="#3fb950"/><circle cx="517.9" cy="198.0" r="3" fill="#3fb950"/><circle cx="520.5" cy="198.0" r="3" fill="#3fb950"/><circle cx="523.0" cy="198.0" r="3" fill="#3fb950"/><circle cx="525.6" cy="198.0" r="3" fill="#3fb950"/><circle cx="528.1" cy="198.0" r="3" fill="#3fb950"/><circle cx="530.7" cy="198.0" r="3" fill="#3fb950"/><circle cx="533.3" cy="198.0" r="3" fill="#3fb950"/><circle cx="535.8" cy="198.0" r="3" fill="#3fb950"/><circle cx="538.4" cy="198.0" r="3" fill="#3fb950"/><circle cx="541.0" cy="198.0" r="3" fill="#3fb950"/><circle cx="543.5" cy="198.0" r="3" fill="#3fb950"/><circle cx="546.1" cy="198.0" r="3" fill="#3fb950"/><circle cx="548.7" cy="198.0" r="3" fill="#3fb950"/><circle cx="551.2" cy="198.0" r="3" fill="#3fb950"/><circle cx="553.8" cy="198.0" r="3" fill="#3fb950"/><circle cx="556.3" cy="198.0" r="3" fill="#3fb950"/><circle cx="558.9" cy="198.0" r="3" fill="#3fb950"/><circle cx="561.5" cy="198.0" r="3" fill="#3fb950"/><circle cx="564.0" cy="198.0" r="3" fill="#3fb950"/><circle cx="566.6" cy="198.0" r="3" fill="#3fb950"/><circle cx="569.2" cy="198.0" r="3" fill="#3fb950"/><circle cx="571.7" cy="198.0" r="3" fill="#3fb950"/><circle cx="574.3" cy="198.0" r="3" fill="#3fb950"/><circle cx="576.8" cy="198.0" r="3" fill="#3fb950"/><circle cx="579.4" cy="198.0" r="3" fill="#3fb950"/><circle cx="582.0" cy="198.0" r="3" fill="#3fb950"/><circle cx="584.5" cy="198.0" r="3" fill="#3fb950"/><circle cx="587.1" cy="198.0" r="3" fill="#3fb950"/><circle cx="589.7" cy="198.0" r="3" fill="#3fb950"/><circle cx="592.2" cy="198.0" r="3" fill="#3fb950"/><circle cx="594.8" cy="198.0" r="3" fill="#3fb950"/><circle cx="597.4" cy="198.0" r="3" fill="#3fb950"/><circle cx="599.9" cy="198.0" r="3" fill="#3fb950"/><circle cx="602.5" cy="198.0" r="3" fill="#3fb950"/><circle cx="605.0" cy="198.0" r="3" fill="#3fb950"/><circle cx="607.6" cy="198.0" r="3" fill="#3fb950"/><circle cx="610.2" cy="198.0" r="3" fill="#3fb950"/><circle cx="612.7" cy="198.0" r="3" fill="#3fb950"/><circle cx="615.3" cy="198.0" r="3" fill="#3fb950"/><circle cx="617.9" cy="198.0" r="3" fill="#3fb950"/><circle cx="620.4" cy="198.0" r="3" fill="#3fb950"/><circle cx="623.0" cy="198.0" r="3" fill="#3fb950"/><circle cx="625.6" cy="198.0" r="3" fill="#3fb950"/><circle cx="628.1" cy="198.0" r="3" fill="#3fb950"/><circle cx="630.7" cy="198.0" r="3" fill="#3fb950"/><circle cx="633.2" cy="198.0" r="3" fill="#3fb950"/><circle cx="635.8" cy="198.0" r="3" fill="#3fb950"/><circle cx="638.4" cy="198.0" r="3" fill="#3fb950"/><circle cx="640.9" cy="198.0" r="3" fill="#3fb950"/><circle cx="643.5" cy="198.0" r="3" fill="#3fb950"/><circle cx="646.1" cy="198.0" r="3" fill="#3fb950"/><circle cx="648.6" cy="198.0" r="3" fill="#3fb950"/><circle cx="651.2" cy="198.0" r="3" fill="#3fb950"/><circle cx="653.7" cy="198.0" r="3" fill="#3fb950"/><circle cx="656.3" cy="198.0" r="3" fill="#3fb950"/><circle cx="658.9" cy="198.0" r="3" fill="#3fb950"/><circle cx="661.4" cy="198.0" r="3" fill="#3fb950"/><circle cx="664.0" cy="198.0" r="3" fill="#3fb950"/>
<polyline fill="none" stroke="#4aa3ff" stroke-width="2.5" stroke-linejoin="round" points="36.0,144.3 38.6,144.3 41.1,144.3 43.7,144.3 46.3,144.3 48.8,144.3 51.4,144.3 53.9,144.3 56.5,144.3 59.1,144.3 61.6,144.3 64.2,144.3 66.8,144.3 69.3,144.3 71.9,144.3 74.4,136.2 77.0,132.4 79.6,129.6 82.1,129.6 84.7,121.0 87.3,121.0 89.8,121.0 92.4,114.4 95.0,114.4 97.5,114.4 100.1,111.3 102.6,110.9 105.2,110.9 107.8,110.5 110.3,110.5 112.9,109.9 115.5,108.7 118.0,107.3 120.6,106.9 123.2,106.9 125.7,106.9 128.3,106.9 130.8,106.9 133.4,106.9 136.0,106.9 138.5,106.9 141.1,106.9 143.7,106.9 146.2,113.2 148.8,113.2 151.3,113.2 153.9,113.2 156.5,113.2 159.0,110.7 161.6,105.3 164.2,83.4 166.7,83.4 169.3,85.6 171.9,85.6 174.4,85.6 177.0,85.6 179.5,85.6 182.1,85.8 184.7,85.8 187.2,85.8 189.8,86.0 192.4,86.0 194.9,86.0 197.5,86.0 200.0,86.0 202.6,86.0 205.2,86.0 207.7,86.0 210.3,86.0 212.9,86.0 215.4,86.0 218.0,86.0 220.6,86.0 223.1,86.0 225.7,86.0 228.2,86.0 230.8,86.0 233.4,86.0 235.9,86.0 238.5,86.0 241.1,86.0 243.6,87.0 246.2,87.0 248.8,87.0 251.3,73.7 253.9,73.7 256.4,71.0 259.0,71.0 261.6,70.8 264.1,70.6 266.7,70.6 269.3,70.4 271.8,68.6 274.4,60.5 276.9,59.3 279.5,52.0 282.1,47.3 284.6,40.1 287.2,36.0 289.8,36.0 292.3,36.0 294.9,36.0 297.5,36.0 300.0,36.0 302.6,36.0 305.1,36.0 307.7,36.0 310.3,36.0 312.8,36.0 315.4,36.0 318.0,36.0 320.5,36.0 323.1,36.0 325.6,36.0 328.2,36.0 330.8,36.0 333.3,36.0 335.9,36.0 338.5,36.0 341.0,36.0 343.6,36.0 346.2,36.0 348.7,36.0 351.3,36.0 353.8,36.0 356.4,36.0 359.0,36.0 361.5,36.0 364.1,36.0 366.7,36.0 369.2,36.0 371.8,36.0 374.4,36.0 376.9,36.0 379.5,36.0 382.0,36.0 384.6,36.0 387.2,36.0 389.7,36.0 392.3,36.0 394.9,36.0 397.4,36.0 400.0,36.0 402.5,36.0 405.1,36.0 407.7,36.0 410.2,36.0 412.8,36.0 415.4,36.0 417.9,36.0 420.5,36.0 423.1,36.0 425.6,36.0 428.2,36.0 430.7,36.0 433.3,36.0 435.9,36.0 438.4,36.0 441.0,36.0 443.6,36.0 446.1,36.0 448.7,36.0 451.2,36.0 453.8,36.0 456.4,36.0 458.9,36.0 461.5,36.0 464.1,36.0 466.6,36.0 469.2,36.0 471.8,36.0 474.3,36.0 476.9,36.0 479.4,36.0 482.0,36.0 484.6,36.0 487.1,36.0 489.7,36.0 492.3,36.0 494.8,36.0 497.4,36.0 500.0,36.0 502.5,36.0 505.1,36.0 507.6,36.0 510.2,36.0 512.8,36.0 515.3,36.0 517.9,36.0 520.5,36.0 523.0,36.0 525.6,36.0 528.1,36.0 530.7,36.0 533.3,36.0 535.8,36.0 538.4,36.0 541.0,36.0 543.5,36.0 546.1,36.0 548.7,36.0 551.2,36.0 553.8,36.0 556.3,36.0 558.9,36.0 561.5,36.0 564.0,36.0 566.6,36.0 569.2,36.0 571.7,36.0 574.3,36.0 576.8,36.0 579.4,36.0 582.0,36.0 584.5,36.0 587.1,36.0 589.7,36.0 592.2,36.0 594.8,36.0 597.4,36.0 599.9,36.0 602.5,36.0 605.0,36.0 607.6,36.0 610.2,36.0 612.7,36.0 615.3,36.0 617.9,36.0 620.4,36.0 623.0,36.0 625.6,36.0 628.1,36.0 630.7,36.0 633.2,36.0 635.8,36.0 638.4,36.0 640.9,36.0 643.5,36.0 646.1,36.0 648.6,36.0 651.2,36.0 653.7,36.0 656.3,36.0 658.9,36.0 661.4,36.0 664.0,36.0"/><circle cx="36.0" cy="144.3" r="3" fill="#4aa3ff"/><circle cx="38.6" cy="144.3" r="3" fill="#4aa3ff"/><circle cx="41.1" cy="144.3" r="3" fill="#4aa3ff"/><circle cx="43.7" cy="144.3" r="3" fill="#4aa3ff"/><circle cx="46.3" cy="144.3" r="3" fill="#4aa3ff"/><circle cx="48.8" cy="144.3" r="3" fill="#4aa3ff"/><circle cx="51.4" cy="144.3" r="3" fill="#4aa3ff"/><circle cx="53.9" cy="144.3" r="3" fill="#4aa3ff"/><circle cx="56.5" cy="144.3" r="3" fill="#4aa3ff"/><circle cx="59.1" cy="144.3" r="3" fill="#4aa3ff"/><circle cx="61.6" cy="144.3" r="3" fill="#4aa3ff"/><circle cx="64.2" cy="144.3" r="3" fill="#4aa3ff"/><circle cx="66.8" cy="144.3" r="3" fill="#4aa3ff"/><circle cx="69.3" cy="144.3" r="3" fill="#4aa3ff"/><circle cx="71.9" cy="144.3" r="3" fill="#4aa3ff"/><circle cx="74.4" cy="136.2" r="3" fill="#4aa3ff"/><circle cx="77.0" cy="132.4" r="3" fill="#4aa3ff"/><circle cx="79.6" cy="129.6" r="3" fill="#4aa3ff"/><circle cx="82.1" cy="129.6" r="3" fill="#4aa3ff"/><circle cx="84.7" cy="121.0" r="3" fill="#4aa3ff"/><circle cx="87.3" cy="121.0" r="3" fill="#4aa3ff"/><circle cx="89.8" cy="121.0" r="3" fill="#4aa3ff"/><circle cx="92.4" cy="114.4" r="3" fill="#4aa3ff"/><circle cx="95.0" cy="114.4" r="3" fill="#4aa3ff"/><circle cx="97.5" cy="114.4" r="3" fill="#4aa3ff"/><circle cx="100.1" cy="111.3" r="3" fill="#4aa3ff"/><circle cx="102.6" cy="110.9" r="3" fill="#4aa3ff"/><circle cx="105.2" cy="110.9" r="3" fill="#4aa3ff"/><circle cx="107.8" cy="110.5" r="3" fill="#4aa3ff"/><circle cx="110.3" cy="110.5" r="3" fill="#4aa3ff"/><circle cx="112.9" cy="109.9" r="3" fill="#4aa3ff"/><circle cx="115.5" cy="108.7" r="3" fill="#4aa3ff"/><circle cx="118.0" cy="107.3" r="3" fill="#4aa3ff"/><circle cx="120.6" cy="106.9" r="3" fill="#4aa3ff"/><circle cx="123.2" cy="106.9" r="3" fill="#4aa3ff"/><circle cx="125.7" cy="106.9" r="3" fill="#4aa3ff"/><circle cx="128.3" cy="106.9" r="3" fill="#4aa3ff"/><circle cx="130.8" cy="106.9" r="3" fill="#4aa3ff"/><circle cx="133.4" cy="106.9" r="3" fill="#4aa3ff"/><circle cx="136.0" cy="106.9" r="3" fill="#4aa3ff"/><circle cx="138.5" cy="106.9" r="3" fill="#4aa3ff"/><circle cx="141.1" cy="106.9" r="3" fill="#4aa3ff"/><circle cx="143.7" cy="106.9" r="3" fill="#4aa3ff"/><circle cx="146.2" cy="113.2" r="3" fill="#4aa3ff"/><circle cx="148.8" cy="113.2" r="3" fill="#4aa3ff"/><circle cx="151.3" cy="113.2" r="3" fill="#4aa3ff"/><circle cx="153.9" cy="113.2" r="3" fill="#4aa3ff"/><circle cx="156.5" cy="113.2" r="3" fill="#4aa3ff"/><circle cx="159.0" cy="110.7" r="3" fill="#4aa3ff"/><circle cx="161.6" cy="105.3" r="3" fill="#4aa3ff"/><circle cx="164.2" cy="83.4" r="3" fill="#4aa3ff"/><circle cx="166.7" cy="83.4" r="3" fill="#4aa3ff"/><circle cx="169.3" cy="85.6" r="3" fill="#4aa3ff"/><circle cx="171.9" cy="85.6" r="3" fill="#4aa3ff"/><circle cx="174.4" cy="85.6" r="3" fill="#4aa3ff"/><circle cx="177.0" cy="85.6" r="3" fill="#4aa3ff"/><circle cx="179.5" cy="85.6" r="3" fill="#4aa3ff"/><circle cx="182.1" cy="85.8" r="3" fill="#4aa3ff"/><circle cx="184.7" cy="85.8" r="3" fill="#4aa3ff"/><circle cx="187.2" cy="85.8" r="3" fill="#4aa3ff"/><circle cx="189.8" cy="86.0" r="3" fill="#4aa3ff"/><circle cx="192.4" cy="86.0" r="3" fill="#4aa3ff"/><circle cx="194.9" cy="86.0" r="3" fill="#4aa3ff"/><circle cx="197.5" cy="86.0" r="3" fill="#4aa3ff"/><circle cx="200.0" cy="86.0" r="3" fill="#4aa3ff"/><circle cx="202.6" cy="86.0" r="3" fill="#4aa3ff"/><circle cx="205.2" cy="86.0" r="3" fill="#4aa3ff"/><circle cx="207.7" cy="86.0" r="3" fill="#4aa3ff"/><circle cx="210.3" cy="86.0" r="3" fill="#4aa3ff"/><circle cx="212.9" cy="86.0" r="3" fill="#4aa3ff"/><circle cx="215.4" cy="86.0" r="3" fill="#4aa3ff"/><circle cx="218.0" cy="86.0" r="3" fill="#4aa3ff"/><circle cx="220.6" cy="86.0" r="3" fill="#4aa3ff"/><circle cx="223.1" cy="86.0" r="3" fill="#4aa3ff"/><circle cx="225.7" cy="86.0" r="3" fill="#4aa3ff"/><circle cx="228.2" cy="86.0" r="3" fill="#4aa3ff"/><circle cx="230.8" cy="86.0" r="3" fill="#4aa3ff"/><circle cx="233.4" cy="86.0" r="3" fill="#4aa3ff"/><circle cx="235.9" cy="86.0" r="3" fill="#4aa3ff"/><circle cx="238.5" cy="86.0" r="3" fill="#4aa3ff"/><circle cx="241.1" cy="86.0" r="3" fill="#4aa3ff"/><circle cx="243.6" cy="87.0" r="3" fill="#4aa3ff"/><circle cx="246.2" cy="87.0" r="3" fill="#4aa3ff"/><circle cx="248.8" cy="87.0" r="3" fill="#4aa3ff"/><circle cx="251.3" cy="73.7" r="3" fill="#4aa3ff"/><circle cx="253.9" cy="73.7" r="3" fill="#4aa3ff"/><circle cx="256.4" cy="71.0" r="3" fill="#4aa3ff"/><circle cx="259.0" cy="71.0" r="3" fill="#4aa3ff"/><circle cx="261.6" cy="70.8" r="3" fill="#4aa3ff"/><circle cx="264.1" cy="70.6" r="3" fill="#4aa3ff"/><circle cx="266.7" cy="70.6" r="3" fill="#4aa3ff"/><circle cx="269.3" cy="70.4" r="3" fill="#4aa3ff"/><circle cx="271.8" cy="68.6" r="3" fill="#4aa3ff"/><circle cx="274.4" cy="60.5" r="3" fill="#4aa3ff"/><circle cx="276.9" cy="59.3" r="3" fill="#4aa3ff"/><circle cx="279.5" cy="52.0" r="3" fill="#4aa3ff"/><circle cx="282.1" cy="47.3" r="3" fill="#4aa3ff"/><circle cx="284.6" cy="40.1" r="3" fill="#4aa3ff"/><circle cx="287.2" cy="36.0" r="3" fill="#4aa3ff"/><circle cx="289.8" cy="36.0" r="3" fill="#4aa3ff"/><circle cx="292.3" cy="36.0" r="3" fill="#4aa3ff"/><circle cx="294.9" cy="36.0" r="3" fill="#4aa3ff"/><circle cx="297.5" cy="36.0" r="3" fill="#4aa3ff"/><circle cx="300.0" cy="36.0" r="3" fill="#4aa3ff"/><circle cx="302.6" cy="36.0" r="3" fill="#4aa3ff"/><circle cx="305.1" cy="36.0" r="3" fill="#4aa3ff"/><circle cx="307.7" cy="36.0" r="3" fill="#4aa3ff"/><circle cx="310.3" cy="36.0" r="3" fill="#4aa3ff"/><circle cx="312.8" cy="36.0" r="3" fill="#4aa3ff"/><circle cx="315.4" cy="36.0" r="3" fill="#4aa3ff"/><circle cx="318.0" cy="36.0" r="3" fill="#4aa3ff"/><circle cx="320.5" cy="36.0" r="3" fill="#4aa3ff"/><circle cx="323.1" cy="36.0" r="3" fill="#4aa3ff"/><circle cx="325.6" cy="36.0" r="3" fill="#4aa3ff"/><circle cx="328.2" cy="36.0" r="3" fill="#4aa3ff"/><circle cx="330.8" cy="36.0" r="3" fill="#4aa3ff"/><circle cx="333.3" cy="36.0" r="3" fill="#4aa3ff"/><circle cx="335.9" cy="36.0" r="3" fill="#4aa3ff"/><circle cx="338.5" cy="36.0" r="3" fill="#4aa3ff"/><circle cx="341.0" cy="36.0" r="3" fill="#4aa3ff"/><circle cx="343.6" cy="36.0" r="3" fill="#4aa3ff"/><circle cx="346.2" cy="36.0" r="3" fill="#4aa3ff"/><circle cx="348.7" cy="36.0" r="3" fill="#4aa3ff"/><circle cx="351.3" cy="36.0" r="3" fill="#4aa3ff"/><circle cx="353.8" cy="36.0" r="3" fill="#4aa3ff"/><circle cx="356.4" cy="36.0" r="3" fill="#4aa3ff"/><circle cx="359.0" cy="36.0" r="3" fill="#4aa3ff"/><circle cx="361.5" cy="36.0" r="3" fill="#4aa3ff"/><circle cx="364.1" cy="36.0" r="3" fill="#4aa3ff"/><circle cx="366.7" cy="36.0" r="3" fill="#4aa3ff"/><circle cx="369.2" cy="36.0" r="3" fill="#4aa3ff"/><circle cx="371.8" cy="36.0" r="3" fill="#4aa3ff"/><circle cx="374.4" cy="36.0" r="3" fill="#4aa3ff"/><circle cx="376.9" cy="36.0" r="3" fill="#4aa3ff"/><circle cx="379.5" cy="36.0" r="3" fill="#4aa3ff"/><circle cx="382.0" cy="36.0" r="3" fill="#4aa3ff"/><circle cx="384.6" cy="36.0" r="3" fill="#4aa3ff"/><circle cx="387.2" cy="36.0" r="3" fill="#4aa3ff"/><circle cx="389.7" cy="36.0" r="3" fill="#4aa3ff"/><circle cx="392.3" cy="36.0" r="3" fill="#4aa3ff"/><circle cx="394.9" cy="36.0" r="3" fill="#4aa3ff"/><circle cx="397.4" cy="36.0" r="3" fill="#4aa3ff"/><circle cx="400.0" cy="36.0" r="3" fill="#4aa3ff"/><circle cx="402.5" cy="36.0" r="3" fill="#4aa3ff"/><circle cx="405.1" cy="36.0" r="3" fill="#4aa3ff"/><circle cx="407.7" cy="36.0" r="3" fill="#4aa3ff"/><circle cx="410.2" cy="36.0" r="3" fill="#4aa3ff"/><circle cx="412.8" cy="36.0" r="3" fill="#4aa3ff"/><circle cx="415.4" cy="36.0" r="3" fill="#4aa3ff"/><circle cx="417.9" cy="36.0" r="3" fill="#4aa3ff"/><circle cx="420.5" cy="36.0" r="3" fill="#4aa3ff"/><circle cx="423.1" cy="36.0" r="3" fill="#4aa3ff"/><circle cx="425.6" cy="36.0" r="3" fill="#4aa3ff"/><circle cx="428.2" cy="36.0" r="3" fill="#4aa3ff"/><circle cx="430.7" cy="36.0" r="3" fill="#4aa3ff"/><circle cx="433.3" cy="36.0" r="3" fill="#4aa3ff"/><circle cx="435.9" cy="36.0" r="3" fill="#4aa3ff"/><circle cx="438.4" cy="36.0" r="3" fill="#4aa3ff"/><circle cx="441.0" cy="36.0" r="3" fill="#4aa3ff"/><circle cx="443.6" cy="36.0" r="3" fill="#4aa3ff"/><circle cx="446.1" cy="36.0" r="3" fill="#4aa3ff"/><circle cx="448.7" cy="36.0" r="3" fill="#4aa3ff"/><circle cx="451.2" cy="36.0" r="3" fill="#4aa3ff"/><circle cx="453.8" cy="36.0" r="3" fill="#4aa3ff"/><circle cx="456.4" cy="36.0" r="3" fill="#4aa3ff"/><circle cx="458.9" cy="36.0" r="3" fill="#4aa3ff"/><circle cx="461.5" cy="36.0" r="3" fill="#4aa3ff"/><circle cx="464.1" cy="36.0" r="3" fill="#4aa3ff"/><circle cx="466.6" cy="36.0" r="3" fill="#4aa3ff"/><circle cx="469.2" cy="36.0" r="3" fill="#4aa3ff"/><circle cx="471.8" cy="36.0" r="3" fill="#4aa3ff"/><circle cx="474.3" cy="36.0" r="3" fill="#4aa3ff"/><circle cx="476.9" cy="36.0" r="3" fill="#4aa3ff"/><circle cx="479.4" cy="36.0" r="3" fill="#4aa3ff"/><circle cx="482.0" cy="36.0" r="3" fill="#4aa3ff"/><circle cx="484.6" cy="36.0" r="3" fill="#4aa3ff"/><circle cx="487.1" cy="36.0" r="3" fill="#4aa3ff"/><circle cx="489.7" cy="36.0" r="3" fill="#4aa3ff"/><circle cx="492.3" cy="36.0" r="3" fill="#4aa3ff"/><circle cx="494.8" cy="36.0" r="3" fill="#4aa3ff"/><circle cx="497.4" cy="36.0" r="3" fill="#4aa3ff"/><circle cx="500.0" cy="36.0" r="3" fill="#4aa3ff"/><circle cx="502.5" cy="36.0" r="3" fill="#4aa3ff"/><circle cx="505.1" cy="36.0" r="3" fill="#4aa3ff"/><circle cx="507.6" cy="36.0" r="3" fill="#4aa3ff"/><circle cx="510.2" cy="36.0" r="3" fill="#4aa3ff"/><circle cx="512.8" cy="36.0" r="3" fill="#4aa3ff"/><circle cx="515.3" cy="36.0" r="3" fill="#4aa3ff"/><circle cx="517.9" cy="36.0" r="3" fill="#4aa3ff"/><circle cx="520.5" cy="36.0" r="3" fill="#4aa3ff"/><circle cx="523.0" cy="36.0" r="3" fill="#4aa3ff"/><circle cx="525.6" cy="36.0" r="3" fill="#4aa3ff"/><circle cx="528.1" cy="36.0" r="3" fill="#4aa3ff"/><circle cx="530.7" cy="36.0" r="3" fill="#4aa3ff"/><circle cx="533.3" cy="36.0" r="3" fill="#4aa3ff"/><circle cx="535.8" cy="36.0" r="3" fill="#4aa3ff"/><circle cx="538.4" cy="36.0" r="3" fill="#4aa3ff"/><circle cx="541.0" cy="36.0" r="3" fill="#4aa3ff"/><circle cx="543.5" cy="36.0" r="3" fill="#4aa3ff"/><circle cx="546.1" cy="36.0" r="3" fill="#4aa3ff"/><circle cx="548.7" cy="36.0" r="3" fill="#4aa3ff"/><circle cx="551.2" cy="36.0" r="3" fill="#4aa3ff"/><circle cx="553.8" cy="36.0" r="3" fill="#4aa3ff"/><circle cx="556.3" cy="36.0" r="3" fill="#4aa3ff"/><circle cx="558.9" cy="36.0" r="3" fill="#4aa3ff"/><circle cx="561.5" cy="36.0" r="3" fill="#4aa3ff"/><circle cx="564.0" cy="36.0" r="3" fill="#4aa3ff"/><circle cx="566.6" cy="36.0" r="3" fill="#4aa3ff"/><circle cx="569.2" cy="36.0" r="3" fill="#4aa3ff"/><circle cx="571.7" cy="36.0" r="3" fill="#4aa3ff"/><circle cx="574.3" cy="36.0" r="3" fill="#4aa3ff"/><circle cx="576.8" cy="36.0" r="3" fill="#4aa3ff"/><circle cx="579.4" cy="36.0" r="3" fill="#4aa3ff"/><circle cx="582.0" cy="36.0" r="3" fill="#4aa3ff"/><circle cx="584.5" cy="36.0" r="3" fill="#4aa3ff"/><circle cx="587.1" cy="36.0" r="3" fill="#4aa3ff"/><circle cx="589.7" cy="36.0" r="3" fill="#4aa3ff"/><circle cx="592.2" cy="36.0" r="3" fill="#4aa3ff"/><circle cx="594.8" cy="36.0" r="3" fill="#4aa3ff"/><circle cx="597.4" cy="36.0" r="3" fill="#4aa3ff"/><circle cx="599.9" cy="36.0" r="3" fill="#4aa3ff"/><circle cx="602.5" cy="36.0" r="3" fill="#4aa3ff"/><circle cx="605.0" cy="36.0" r="3" fill="#4aa3ff"/><circle cx="607.6" cy="36.0" r="3" fill="#4aa3ff"/><circle cx="610.2" cy="36.0" r="3" fill="#4aa3ff"/><circle cx="612.7" cy="36.0" r="3" fill="#4aa3ff"/><circle cx="615.3" cy="36.0" r="3" fill="#4aa3ff"/><circle cx="617.9" cy="36.0" r="3" fill="#4aa3ff"/><circle cx="620.4" cy="36.0" r="3" fill="#4aa3ff"/><circle cx="623.0" cy="36.0" r="3" fill="#4aa3ff"/><circle cx="625.6" cy="36.0" r="3" fill="#4aa3ff"/><circle cx="628.1" cy="36.0" r="3" fill="#4aa3ff"/><circle cx="630.7" cy="36.0" r="3" fill="#4aa3ff"/><circle cx="633.2" cy="36.0" r="3" fill="#4aa3ff"/><circle cx="635.8" cy="36.0" r="3" fill="#4aa3ff"/><circle cx="638.4" cy="36.0" r="3" fill="#4aa3ff"/><circle cx="640.9" cy="36.0" r="3" fill="#4aa3ff"/><circle cx="643.5" cy="36.0" r="3" fill="#4aa3ff"/><circle cx="646.1" cy="36.0" r="3" fill="#4aa3ff"/><circle cx="648.6" cy="36.0" r="3" fill="#4aa3ff"/><circle cx="651.2" cy="36.0" r="3" fill="#4aa3ff"/><circle cx="653.7" cy="36.0" r="3" fill="#4aa3ff"/><circle cx="656.3" cy="36.0" r="3" fill="#4aa3ff"/><circle cx="658.9" cy="36.0" r="3" fill="#4aa3ff"/><circle cx="661.4" cy="36.0" r="3" fill="#4aa3ff"/><circle cx="664.0" cy="36.0" r="3" fill="#4aa3ff"/>
<text x="36" y="225" fill="#6b7280" font-size="11">2026-06-26</text>
<text x="664" y="225" fill="#6b7280" font-size="11" text-anchor="end">2026-07-20</text>
<text x="36" y="212" font-family="system-ui,sans-serif" font-size="11">
<tspan fill="#4aa3ff">&#9679; open FPs</tspan>  <tspan fill="#3fb950">&#9679; closed (Anthropic acting)</tspan>  <tspan fill="#8a5a5a">&#9679; harness withdrawn</tspan></text>
<text x="664" y="22" text-anchor="end" font-family="system-ui,sans-serif" font-size="12">
<tspan fill="#4aa3ff">open 800</tspan>  <tspan fill="#3fb950">closed 0</tspan>  <tspan fill="#8a5a5a">harness 0</tspan></text>
</svg>