<svg xmlns="http://www.w3.org/2000/svg" width="700" height="234" viewBox="0 0 700 234" role="img">
<rect width="700" height="234" rx="12" fill="#16181d"/>
<text x="36" y="22" fill="#e8eaed" font-family="system-ui,sans-serif" font-size="14" font-weight="700">Is Anthropic acting? cyber/aup false positives over time</text>
<line x1="36" y1="198.0" x2="664" y2="198.0" stroke="#2a2e37" stroke-width="1"/><text x="30" y="202.0" fill="#6b7280" font-size="11" text-anchor="end">0</text><line x1="36" y1="117.0" x2="664" y2="117.0" stroke="#2a2e37" stroke-width="1"/><text x="30" y="121.0" fill="#6b7280" font-size="11" text-anchor="end">400</text><line x1="36" y1="36.0" x2="664" y2="36.0" stroke="#2a2e37" stroke-width="1"/><text x="30" y="40.0" fill="#6b7280" font-size="11" text-anchor="end">800</text>

<polyline fill="none" stroke="#8a5a5a" stroke-width="2.5" stroke-linejoin="round" points="36.0,145.1 39.2,145.1 42.4,145.1 45.6,145.1 48.8,145.1 52.0,145.1 55.2,145.1 58.4,145.1 61.6,145.1 64.8,145.1 68.0,145.1 71.2,145.1 74.4,145.1 77.7,145.1 80.9,145.1 84.1,145.1 87.3,145.1 90.5,145.1 93.7,145.1 96.9,145.1 100.1,145.1 103.3,145.1 106.5,145.1 109.7,145.1 112.9,145.1 116.1,145.1 119.3,145.1 122.5,145.1 125.7,145.1 128.9,145.1 132.1,145.1 135.3,145.1 138.5,145.1 141.7,145.1 144.9,145.1 148.1,145.1 151.3,145.1 154.6,145.1 157.8,145.1 161.0,145.1 164.2,145.1 167.4,145.1 170.6,145.1 173.8,145.1 177.0,145.1 180.2,145.1 183.4,145.1 186.6,145.1 189.8,145.1 193.0,145.1 196.2,155.7 199.4,155.7 202.6,155.7 205.8,155.7 209.0,155.7 212.2,155.7 215.4,155.7 218.6,155.7 221.8,155.7 225.0,155.7 228.2,155.7 231.4,155.7 234.7,155.7 237.9,155.7 241.1,155.7 244.3,155.7 247.5,155.7 250.7,155.7 253.9,155.7 257.1,155.7 260.3,155.7 263.5,155.7 266.7,155.7 269.9,155.7 273.1,155.7 276.3,155.7 279.5,155.7 282.7,155.7 285.9,155.7 289.1,155.7 292.3,155.7 295.5,155.7 298.7,155.7 301.9,155.7 305.1,167.6 308.3,167.6 311.6,170.3 314.8,170.3 318.0,170.5 321.2,170.7 324.4,170.7 327.6,170.9 330.8,172.7 334.0,180.6 337.2,181.8 340.4,189.1 343.6,190.5 346.8,195.2 350.0,198.0 353.2,198.0 356.4,198.0 359.6,198.0 362.8,198.0 366.0,198.0 369.2,198.0 372.4,198.0 375.6,198.0 378.8,198.0 382.0,198.0 385.2,198.0 388.4,198.0 391.7,198.0 394.9,198.0 398.1,198.0 401.3,198.0 404.5,198.0 407.7,198.0 410.9,198.0 414.1,198.0 417.3,198.0 420.5,198.0 423.7,198.0 426.9,198.0 430.1,198.0 433.3,198.0 436.5,198.0 439.7,198.0 442.9,198.0 446.1,198.0 449.3,198.0 452.5,198.0 455.7,198.0 458.9,198.0 462.1,198.0 465.3,198.0 468.6,198.0 471.8,198.0 475.0,198.0 478.2,198.0 481.4,198.0 484.6,198.0 487.8,198.0 491.0,198.0 494.2,198.0 497.4,198.0 500.6,198.0 503.8,198.0 507.0,198.0 510.2,198.0 513.4,198.0 516.6,198.0 519.8,198.0 523.0,198.0 526.2,198.0 529.4,198.0 532.6,198.0 535.8,198.0 539.0,198.0 542.2,198.0 545.4,198.0 548.7,198.0 551.9,198.0 555.1,198.0 558.3,198.0 561.5,198.0 564.7,198.0 567.9,198.0 571.1,198.0 574.3,198.0 577.5,198.0 580.7,198.0 583.9,198.0 587.1,198.0 590.3,198.0 593.5,198.0 596.7,198.0 599.9,198.0 603.1,198.0 606.3,198.0 609.5,198.0 612.7,198.0 615.9,198.0 619.1,198.0 622.3,198.0 625.6,198.0 628.8,198.0 632.0,198.0 635.2,198.0 638.4,198.0 641.6,198.0 644.8,198.0 648.0,198.0 651.2,198.0 654.4,198.0 657.6,198.0 660.8,198.0 664.0,198.0"/><circle cx="36.0" cy="145.1" r="3" fill="#8a5a5a"/><circle cx="39.2" cy="145.1" r="3" fill="#8a5a5a"/><circle cx="42.4" cy="145.1" r="3" fill="#8a5a5a"/><circle cx="45.6" cy="145.1" r="3" fill="#8a5a5a"/><circle cx="48.8" cy="145.1" r="3" fill="#8a5a5a"/><circle cx="52.0" cy="145.1" r="3" fill="#8a5a5a"/><circle cx="55.2" cy="145.1" r="3" fill="#8a5a5a"/><circle cx="58.4" cy="145.1" r="3" fill="#8a5a5a"/><circle cx="61.6" cy="145.1" r="3" fill="#8a5a5a"/><circle cx="64.8" cy="145.1" r="3" fill="#8a5a5a"/><circle cx="68.0" cy="145.1" r="3" fill="#8a5a5a"/><circle cx="71.2" cy="145.1" r="3" fill="#8a5a5a"/><circle cx="74.4" cy="145.1" r="3" fill="#8a5a5a"/><circle cx="77.7" cy="145.1" r="3" fill="#8a5a5a"/><circle cx="80.9" cy="145.1" r="3" fill="#8a5a5a"/><circle cx="84.1" cy="145.1" r="3" fill="#8a5a5a"/><circle cx="87.3" cy="145.1" r="3" fill="#8a5a5a"/><circle cx="90.5" cy="145.1" r="3" fill="#8a5a5a"/><circle cx="93.7" cy="145.1" r="3" fill="#8a5a5a"/><circle cx="96.9" cy="145.1" r="3" fill="#8a5a5a"/><circle cx="100.1" cy="145.1" r="3" fill="#8a5a5a"/><circle cx="103.3" cy="145.1" r="3" fill="#8a5a5a"/><circle cx="106.5" cy="145.1" r="3" fill="#8a5a5a"/><circle cx="109.7" cy="145.1" r="3" fill="#8a5a5a"/><circle cx="112.9" cy="145.1" r="3" fill="#8a5a5a"/><circle cx="116.1" cy="145.1" r="3" fill="#8a5a5a"/><circle cx="119.3" cy="145.1" r="3" fill="#8a5a5a"/><circle cx="122.5" cy="145.1" r="3" fill="#8a5a5a"/><circle cx="125.7" cy="145.1" r="3" fill="#8a5a5a"/><circle cx="128.9" cy="145.1" r="3" fill="#8a5a5a"/><circle cx="132.1" cy="145.1" r="3" fill="#8a5a5a"/><circle cx="135.3" cy="145.1" r="3" fill="#8a5a5a"/><circle cx="138.5" cy="145.1" r="3" fill="#8a5a5a"/><circle cx="141.7" cy="145.1" r="3" fill="#8a5a5a"/><circle cx="144.9" cy="145.1" r="3" fill="#8a5a5a"/><circle cx="148.1" cy="145.1" r="3" fill="#8a5a5a"/><circle cx="151.3" cy="145.1" r="3" fill="#8a5a5a"/><circle cx="154.6" cy="145.1" r="3" fill="#8a5a5a"/><circle cx="157.8" cy="145.1" r="3" fill="#8a5a5a"/><circle cx="161.0" cy="145.1" r="3" fill="#8a5a5a"/><circle cx="164.2" cy="145.1" r="3" fill="#8a5a5a"/><circle cx="167.4" cy="145.1" r="3" fill="#8a5a5a"/><circle cx="170.6" cy="145.1" r="3" fill="#8a5a5a"/><circle cx="173.8" cy="145.1" r="3" fill="#8a5a5a"/><circle cx="177.0" cy="145.1" r="3" fill="#8a5a5a"/><circle cx="180.2" cy="145.1" r="3" fill="#8a5a5a"/><circle cx="183.4" cy="145.1" r="3" fill="#8a5a5a"/><circle cx="186.6" cy="145.1" r="3" fill="#8a5a5a"/><circle cx="189.8" cy="145.1" r="3" fill="#8a5a5a"/><circle cx="193.0" cy="145.1" r="3" fill="#8a5a5a"/><circle cx="196.2" cy="155.7" r="3" fill="#8a5a5a"/><circle cx="199.4" cy="155.7" r="3" fill="#8a5a5a"/><circle cx="202.6" cy="155.7" r="3" fill="#8a5a5a"/><circle cx="205.8" cy="155.7" r="3" fill="#8a5a5a"/><circle cx="209.0" cy="155.7" r="3" fill="#8a5a5a"/><circle cx="212.2" cy="155.7" r="3" fill="#8a5a5a"/><circle cx="215.4" cy="155.7" r="3" fill="#8a5a5a"/><circle cx="218.6" cy="155.7" r="3" fill="#8a5a5a"/><circle cx="221.8" cy="155.7" r="3" fill="#8a5a5a"/><circle cx="225.0" cy="155.7" r="3" fill="#8a5a5a"/><circle cx="228.2" cy="155.7" r="3" fill="#8a5a5a"/><circle cx="231.4" cy="155.7" r="3" fill="#8a5a5a"/><circle cx="234.7" cy="155.7" r="3" fill="#8a5a5a"/><circle cx="237.9" cy="155.7" r="3" fill="#8a5a5a"/><circle cx="241.1" cy="155.7" r="3" fill="#8a5a5a"/><circle cx="244.3" cy="155.7" r="3" fill="#8a5a5a"/><circle cx="247.5" cy="155.7" r="3" fill="#8a5a5a"/><circle cx="250.7" cy="155.7" r="3" fill="#8a5a5a"/><circle cx="253.9" cy="155.7" r="3" fill="#8a5a5a"/><circle cx="257.1" cy="155.7" r="3" fill="#8a5a5a"/><circle cx="260.3" cy="155.7" r="3" fill="#8a5a5a"/><circle cx="263.5" cy="155.7" r="3" fill="#8a5a5a"/><circle cx="266.7" cy="155.7" r="3" fill="#8a5a5a"/><circle cx="269.9" cy="155.7" r="3" fill="#8a5a5a"/><circle cx="273.1" cy="155.7" r="3" fill="#8a5a5a"/><circle cx="276.3" cy="155.7" r="3" fill="#8a5a5a"/><circle cx="279.5" cy="155.7" r="3" fill="#8a5a5a"/><circle cx="282.7" cy="155.7" r="3" fill="#8a5a5a"/><circle cx="285.9" cy="155.7" r="3" fill="#8a5a5a"/><circle cx="289.1" cy="155.7" r="3" fill="#8a5a5a"/><circle cx="292.3" cy="155.7" r="3" fill="#8a5a5a"/><circle cx="295.5" cy="155.7" r="3" fill="#8a5a5a"/><circle cx="298.7" cy="155.7" r="3" fill="#8a5a5a"/><circle cx="301.9" cy="155.7" r="3" fill="#8a5a5a"/><circle cx="305.1" cy="167.6" r="3" fill="#8a5a5a"/><circle cx="308.3" cy="167.6" r="3" fill="#8a5a5a"/><circle cx="311.6" cy="170.3" r="3" fill="#8a5a5a"/><circle cx="314.8" cy="170.3" r="3" fill="#8a5a5a"/><circle cx="318.0" cy="170.5" r="3" fill="#8a5a5a"/><circle cx="321.2" cy="170.7" r="3" fill="#8a5a5a"/><circle cx="324.4" cy="170.7" r="3" fill="#8a5a5a"/><circle cx="327.6" cy="170.9" r="3" fill="#8a5a5a"/><circle cx="330.8" cy="172.7" r="3" fill="#8a5a5a"/><circle cx="334.0" cy="180.6" r="3" fill="#8a5a5a"/><circle cx="337.2" cy="181.8" r="3" fill="#8a5a5a"/><circle cx="340.4" cy="189.1" r="3" fill="#8a5a5a"/><circle cx="343.6" cy="190.5" r="3" fill="#8a5a5a"/><circle cx="346.8" cy="195.2" r="3" fill="#8a5a5a"/><circle cx="350.0" cy="198.0" r="3" fill="#8a5a5a"/><circle cx="353.2" cy="198.0" r="3" fill="#8a5a5a"/><circle cx="356.4" cy="198.0" r="3" fill="#8a5a5a"/><circle cx="359.6" cy="198.0" r="3" fill="#8a5a5a"/><circle cx="362.8" cy="198.0" r="3" fill="#8a5a5a"/><circle cx="366.0" cy="198.0" r="3" fill="#8a5a5a"/><circle cx="369.2" cy="198.0" r="3" fill="#8a5a5a"/><circle cx="372.4" cy="198.0" r="3" fill="#8a5a5a"/><circle cx="375.6" cy="198.0" r="3" fill="#8a5a5a"/><circle cx="378.8" cy="198.0" r="3" fill="#8a5a5a"/><circle cx="382.0" cy="198.0" r="3" fill="#8a5a5a"/><circle cx="385.2" cy="198.0" r="3" fill="#8a5a5a"/><circle cx="388.4" cy="198.0" r="3" fill="#8a5a5a"/><circle cx="391.7" cy="198.0" r="3" fill="#8a5a5a"/><circle cx="394.9" cy="198.0" r="3" fill="#8a5a5a"/><circle cx="398.1" cy="198.0" r="3" fill="#8a5a5a"/><circle cx="401.3" cy="198.0" r="3" fill="#8a5a5a"/><circle cx="404.5" cy="198.0" r="3" fill="#8a5a5a"/><circle cx="407.7" cy="198.0" r="3" fill="#8a5a5a"/><circle cx="410.9" cy="198.0" r="3" fill="#8a5a5a"/><circle cx="414.1" cy="198.0" r="3" fill="#8a5a5a"/><circle cx="417.3" cy="198.0" r="3" fill="#8a5a5a"/><circle cx="420.5" cy="198.0" r="3" fill="#8a5a5a"/><circle cx="423.7" cy="198.0" r="3" fill="#8a5a5a"/><circle cx="426.9" cy="198.0" r="3" fill="#8a5a5a"/><circle cx="430.1" cy="198.0" r="3" fill="#8a5a5a"/><circle cx="433.3" cy="198.0" r="3" fill="#8a5a5a"/><circle cx="436.5" cy="198.0" r="3" fill="#8a5a5a"/><circle cx="439.7" cy="198.0" r="3" fill="#8a5a5a"/><circle cx="442.9" cy="198.0" r="3" fill="#8a5a5a"/><circle cx="446.1" cy="198.0" r="3" fill="#8a5a5a"/><circle cx="449.3" cy="198.0" r="3" fill="#8a5a5a"/><circle cx="452.5" cy="198.0" r="3" fill="#8a5a5a"/><circle cx="455.7" cy="198.0" r="3" fill="#8a5a5a"/><circle cx="458.9" cy="198.0" r="3" fill="#8a5a5a"/><circle cx="462.1" cy="198.0" r="3" fill="#8a5a5a"/><circle cx="465.3" cy="198.0" r="3" fill="#8a5a5a"/><circle cx="468.6" cy="198.0" r="3" fill="#8a5a5a"/><circle cx="471.8" cy="198.0" r="3" fill="#8a5a5a"/><circle cx="475.0" cy="198.0" r="3" fill="#8a5a5a"/><circle cx="478.2" cy="198.0" r="3" fill="#8a5a5a"/><circle cx="481.4" cy="198.0" r="3" fill="#8a5a5a"/><circle cx="484.6" cy="198.0" r="3" fill="#8a5a5a"/><circle cx="487.8" cy="198.0" r="3" fill="#8a5a5a"/><circle cx="491.0" cy="198.0" r="3" fill="#8a5a5a"/><circle cx="494.2" cy="198.0" r="3" fill="#8a5a5a"/><circle cx="497.4" cy="198.0" r="3" fill="#8a5a5a"/><circle cx="500.6" cy="198.0" r="3" fill="#8a5a5a"/><circle cx="503.8" cy="198.0" r="3" fill="#8a5a5a"/><circle cx="507.0" cy="198.0" r="3" fill="#8a5a5a"/><circle cx="510.2" cy="198.0" r="3" fill="#8a5a5a"/><circle cx="513.4" cy="198.0" r="3" fill="#8a5a5a"/><circle cx="516.6" cy="198.0" r="3" fill="#8a5a5a"/><circle cx="519.8" cy="198.0" r="3" fill="#8a5a5a"/><circle cx="523.0" cy="198.0" r="3" fill="#8a5a5a"/><circle cx="526.2" cy="198.0" r="3" fill="#8a5a5a"/><circle cx="529.4" cy="198.0" r="3" fill="#8a5a5a"/><circle cx="532.6" cy="198.0" r="3" fill="#8a5a5a"/><circle cx="535.8" cy="198.0" r="3" fill="#8a5a5a"/><circle cx="539.0" cy="198.0" r="3" fill="#8a5a5a"/><circle cx="542.2" cy="198.0" r="3" fill="#8a5a5a"/><circle cx="545.4" cy="198.0" r="3" fill="#8a5a5a"/><circle cx="548.7" cy="198.0" r="3" fill="#8a5a5a"/><circle cx="551.9" cy="198.0" r="3" fill="#8a5a5a"/><circle cx="555.1" cy="198.0" r="3" fill="#8a5a5a"/><circle cx="558.3" cy="198.0" r="3" fill="#8a5a5a"/><circle cx="561.5" cy="198.0" r="3" fill="#8a5a5a"/><circle cx="564.7" cy="198.0" r="3" fill="#8a5a5a"/><circle cx="567.9" cy="198.0" r="3" fill="#8a5a5a"/><circle cx="571.1" cy="198.0" r="3" fill="#8a5a5a"/><circle cx="574.3" cy="198.0" r="3" fill="#8a5a5a"/><circle cx="577.5" cy="198.0" r="3" fill="#8a5a5a"/><circle cx="580.7" cy="198.0" r="3" fill="#8a5a5a"/><circle cx="583.9" cy="198.0" r="3" fill="#8a5a5a"/><circle cx="587.1" cy="198.0" r="3" fill="#8a5a5a"/><circle cx="590.3" cy="198.0" r="3" fill="#8a5a5a"/><circle cx="593.5" cy="198.0" r="3" fill="#8a5a5a"/><circle cx="596.7" cy="198.0" r="3" fill="#8a5a5a"/><circle cx="599.9" cy="198.0" r="3" fill="#8a5a5a"/><circle cx="603.1" cy="198.0" r="3" fill="#8a5a5a"/><circle cx="606.3" cy="198.0" r="3" fill="#8a5a5a"/><circle cx="609.5" cy="198.0" r="3" fill="#8a5a5a"/><circle cx="612.7" cy="198.0" r="3" fill="#8a5a5a"/><circle cx="615.9" cy="198.0" r="3" fill="#8a5a5a"/><circle cx="619.1" cy="198.0" r="3" fill="#8a5a5a"/><circle cx="622.3" cy="198.0" r="3" fill="#8a5a5a"/><circle cx="625.6" cy="198.0" r="3" fill="#8a5a5a"/><circle cx="628.8" cy="198.0" r="3" fill="#8a5a5a"/><circle cx="632.0" cy="198.0" r="3" fill="#8a5a5a"/><circle cx="635.2" cy="198.0" r="3" fill="#8a5a5a"/><circle cx="638.4" cy="198.0" r="3" fill="#8a5a5a"/><circle cx="641.6" cy="198.0" r="3" fill="#8a5a5a"/><circle cx="644.8" cy="198.0" r="3" fill="#8a5a5a"/><circle cx="648.0" cy="198.0" r="3" fill="#8a5a5a"/><circle cx="651.2" cy="198.0" r="3" fill="#8a5a5a"/><circle cx="654.4" cy="198.0" r="3" fill="#8a5a5a"/><circle cx="657.6" cy="198.0" r="3" fill="#8a5a5a"/><circle cx="660.8" cy="198.0" r="3" fill="#8a5a5a"/><circle cx="664.0" cy="198.0" r="3" fill="#8a5a5a"/>
<polyline fill="none" stroke="#3fb950" stroke-width="2.5" stroke-linejoin="round" points="36.0,198.0 39.2,198.0 42.4,198.0 45.6,198.0 48.8,198.0 52.0,198.0 55.2,198.0 58.4,198.0 61.6,198.0 64.8,198.0 68.0,198.0 71.2,198.0 74.4,198.0 77.7,198.0 80.9,198.0 84.1,198.0 87.3,198.0 90.5,198.0 93.7,198.0 96.9,198.0 100.1,198.0 103.3,198.0 106.5,198.0 109.7,198.0 112.9,198.0 116.1,198.0 119.3,198.0 122.5,198.0 125.7,198.0 128.9,198.0 132.1,198.0 135.3,198.0 138.5,198.0 141.7,198.0 144.9,198.0 148.1,198.0 151.3,198.0 154.6,198.0 157.8,198.0 161.0,198.0 164.2,198.0 167.4,198.0 170.6,198.0 173.8,191.7 177.0,191.7 180.2,191.7 183.4,191.7 186.6,191.7 189.8,191.7 193.0,191.7 196.2,192.9 199.4,192.9 202.6,190.7 205.8,190.7 209.0,190.7 212.2,190.7 215.4,190.7 218.6,190.5 221.8,190.5 225.0,190.5 228.2,190.3 231.4,190.3 234.7,190.3 237.9,190.3 241.1,190.3 244.3,190.3 247.5,190.3 250.7,190.3 253.9,190.3 257.1,190.3 260.3,190.3 263.5,190.3 266.7,190.3 269.9,190.3 273.1,190.3 276.3,190.3 279.5,190.3 282.7,190.3 285.9,190.3 289.1,190.3 292.3,190.3 295.5,189.3 298.7,189.3 301.9,189.3 305.1,190.7 308.3,190.7 311.6,190.7 314.8,190.7 318.0,190.7 321.2,190.7 324.4,190.7 327.6,190.7 330.8,190.7 334.0,190.9 337.2,190.9 340.4,190.9 343.6,194.2 346.8,196.8 350.0,198.0 353.2,198.0 356.4,198.0 359.6,198.0 362.8,198.0 366.0,198.0 369.2,198.0 372.4,198.0 375.6,198.0 378.8,198.0 382.0,198.0 385.2,198.0 388.4,198.0 391.7,198.0 394.9,198.0 398.1,198.0 401.3,198.0 404.5,198.0 407.7,198.0 410.9,198.0 414.1,198.0 417.3,198.0 420.5,198.0 423.7,198.0 426.9,198.0 430.1,198.0 433.3,198.0 436.5,198.0 439.7,198.0 442.9,198.0 446.1,198.0 449.3,198.0 452.5,198.0 455.7,198.0 458.9,198.0 462.1,198.0 465.3,198.0 468.6,198.0 471.8,198.0 475.0,198.0 478.2,198.0 481.4,198.0 484.6,198.0 487.8,198.0 491.0,198.0 494.2,198.0 497.4,198.0 500.6,198.0 503.8,198.0 507.0,198.0 510.2,198.0 513.4,198.0 516.6,198.0 519.8,198.0 523.0,198.0 526.2,198.0 529.4,198.0 532.6,198.0 535.8,198.0 539.0,198.0 542.2,198.0 545.4,198.0 548.7,198.0 551.9,198.0 555.1,198.0 558.3,198.0 561.5,198.0 564.7,198.0 567.9,198.0 571.1,198.0 574.3,198.0 577.5,198.0 580.7,198.0 583.9,198.0 587.1,198.0 590.3,198.0 593.5,198.0 596.7,198.0 599.9,198.0 603.1,198.0 606.3,198.0 609.5,198.0 612.7,198.0 615.9,198.0 619.1,198.0 622.3,198.0 625.6,198.0 628.8,198.0 632.0,198.0 635.2,198.0 638.4,198.0 641.6,198.0 644.8,198.0 648.0,198.0 651.2,198.0 654.4,198.0 657.6,198.0 660.8,198.0 664.0,198.0"/><circle cx="36.0" cy="198.0" r="3" fill="#3fb950"/><circle cx="39.2" cy="198.0" r="3" fill="#3fb950"/><circle cx="42.4" cy="198.0" r="3" fill="#3fb950"/><circle cx="45.6" cy="198.0" r="3" fill="#3fb950"/><circle cx="48.8" cy="198.0" r="3" fill="#3fb950"/><circle cx="52.0" cy="198.0" r="3" fill="#3fb950"/><circle cx="55.2" cy="198.0" r="3" fill="#3fb950"/><circle cx="58.4" cy="198.0" r="3" fill="#3fb950"/><circle cx="61.6" cy="198.0" r="3" fill="#3fb950"/><circle cx="64.8" cy="198.0" r="3" fill="#3fb950"/><circle cx="68.0" cy="198.0" r="3" fill="#3fb950"/><circle cx="71.2" cy="198.0" r="3" fill="#3fb950"/><circle cx="74.4" cy="198.0" r="3" fill="#3fb950"/><circle cx="77.7" cy="198.0" r="3" fill="#3fb950"/><circle cx="80.9" cy="198.0" r="3" fill="#3fb950"/><circle cx="84.1" cy="198.0" r="3" fill="#3fb950"/><circle cx="87.3" cy="198.0" r="3" fill="#3fb950"/><circle cx="90.5" cy="198.0" r="3" fill="#3fb950"/><circle cx="93.7" cy="198.0" r="3" fill="#3fb950"/><circle cx="96.9" cy="198.0" r="3" fill="#3fb950"/><circle cx="100.1" cy="198.0" r="3" fill="#3fb950"/><circle cx="103.3" cy="198.0" r="3" fill="#3fb950"/><circle cx="106.5" cy="198.0" r="3" fill="#3fb950"/><circle cx="109.7" cy="198.0" r="3" fill="#3fb950"/><circle cx="112.9" cy="198.0" r="3" fill="#3fb950"/><circle cx="116.1" cy="198.0" r="3" fill="#3fb950"/><circle cx="119.3" cy="198.0" r="3" fill="#3fb950"/><circle cx="122.5" cy="198.0" r="3" fill="#3fb950"/><circle cx="125.7" cy="198.0" r="3" fill="#3fb950"/><circle cx="128.9" cy="198.0" r="3" fill="#3fb950"/><circle cx="132.1" cy="198.0" r="3" fill="#3fb950"/><circle cx="135.3" cy="198.0" r="3" fill="#3fb950"/><circle cx="138.5" cy="198.0" r="3" fill="#3fb950"/><circle cx="141.7" cy="198.0" r="3" fill="#3fb950"/><circle cx="144.9" cy="198.0" r="3" fill="#3fb950"/><circle cx="148.1" cy="198.0" r="3" fill="#3fb950"/><circle cx="151.3" cy="198.0" r="3" fill="#3fb950"/><circle cx="154.6" cy="198.0" r="3" fill="#3fb950"/><circle cx="157.8" cy="198.0" r="3" fill="#3fb950"/><circle cx="161.0" cy="198.0" r="3" fill="#3fb950"/><circle cx="164.2" cy="198.0" r="3" fill="#3fb950"/><circle cx="167.4" cy="198.0" r="3" fill="#3fb950"/><circle cx="170.6" cy="198.0" r="3" fill="#3fb950"/><circle cx="173.8" cy="191.7" r="3" fill="#3fb950"/><circle cx="177.0" cy="191.7" r="3" fill="#3fb950"/><circle cx="180.2" cy="191.7" r="3" fill="#3fb950"/><circle cx="183.4" cy="191.7" r="3" fill="#3fb950"/><circle cx="186.6" cy="191.7" r="3" fill="#3fb950"/><circle cx="189.8" cy="191.7" r="3" fill="#3fb950"/><circle cx="193.0" cy="191.7" r="3" fill="#3fb950"/><circle cx="196.2" cy="192.9" r="3" fill="#3fb950"/><circle cx="199.4" cy="192.9" r="3" fill="#3fb950"/><circle cx="202.6" cy="190.7" r="3" fill="#3fb950"/><circle cx="205.8" cy="190.7" r="3" fill="#3fb950"/><circle cx="209.0" cy="190.7" r="3" fill="#3fb950"/><circle cx="212.2" cy="190.7" r="3" fill="#3fb950"/><circle cx="215.4" cy="190.7" r="3" fill="#3fb950"/><circle cx="218.6" cy="190.5" r="3" fill="#3fb950"/><circle cx="221.8" cy="190.5" r="3" fill="#3fb950"/><circle cx="225.0" cy="190.5" r="3" fill="#3fb950"/><circle cx="228.2" cy="190.3" r="3" fill="#3fb950"/><circle cx="231.4" cy="190.3" r="3" fill="#3fb950"/><circle cx="234.7" cy="190.3" r="3" fill="#3fb950"/><circle cx="237.9" cy="190.3" r="3" fill="#3fb950"/><circle cx="241.1" cy="190.3" r="3" fill="#3fb950"/><circle cx="244.3" cy="190.3" r="3" fill="#3fb950"/><circle cx="247.5" cy="190.3" r="3" fill="#3fb950"/><circle cx="250.7" cy="190.3" r="3" fill="#3fb950"/><circle cx="253.9" cy="190.3" r="3" fill="#3fb950"/><circle cx="257.1" cy="190.3" r="3" fill="#3fb950"/><circle cx="260.3" cy="190.3" r="3" fill="#3fb950"/><circle cx="263.5" cy="190.3" r="3" fill="#3fb950"/><circle cx="266.7" cy="190.3" r="3" fill="#3fb950"/><circle cx="269.9" cy="190.3" r="3" fill="#3fb950"/><circle cx="273.1" cy="190.3" r="3" fill="#3fb950"/><circle cx="276.3" cy="190.3" r="3" fill="#3fb950"/><circle cx="279.5" cy="190.3" r="3" fill="#3fb950"/><circle cx="282.7" cy="190.3" r="3" fill="#3fb950"/><circle cx="285.9" cy="190.3" r="3" fill="#3fb950"/><circle cx="289.1" cy="190.3" r="3" fill="#3fb950"/><circle cx="292.3" cy="190.3" r="3" fill="#3fb950"/><circle cx="295.5" cy="189.3" r="3" fill="#3fb950"/><circle cx="298.7" cy="189.3" r="3" fill="#3fb950"/><circle cx="301.9" cy="189.3" r="3" fill="#3fb950"/><circle cx="305.1" cy="190.7" r="3" fill="#3fb950"/><circle cx="308.3" cy="190.7" r="3" fill="#3fb950"/><circle cx="311.6" cy="190.7" r="3" fill="#3fb950"/><circle cx="314.8" cy="190.7" r="3" fill="#3fb950"/><circle cx="318.0" cy="190.7" r="3" fill="#3fb950"/><circle cx="321.2" cy="190.7" r="3" fill="#3fb950"/><circle cx="324.4" cy="190.7" r="3" fill="#3fb950"/><circle cx="327.6" cy="190.7" r="3" fill="#3fb950"/><circle cx="330.8" cy="190.7" r="3" fill="#3fb950"/><circle cx="334.0" cy="190.9" r="3" fill="#3fb950"/><circle cx="337.2" cy="190.9" r="3" fill="#3fb950"/><circle cx="340.4" cy="190.9" r="3" fill="#3fb950"/><circle cx="343.6" cy="194.2" r="3" fill="#3fb950"/><circle cx="346.8" cy="196.8" r="3" fill="#3fb950"/><circle cx="350.0" cy="198.0" r="3" fill="#3fb950"/><circle cx="353.2" cy="198.0" r="3" fill="#3fb950"/><circle cx="356.4" cy="198.0" r="3" fill="#3fb950"/><circle cx="359.6" cy="198.0" r="3" fill="#3fb950"/><circle cx="362.8" cy="198.0" r="3" fill="#3fb950"/><circle cx="366.0" cy="198.0" r="3" fill="#3fb950"/><circle cx="369.2" cy="198.0" r="3" fill="#3fb950"/><circle cx="372.4" cy="198.0" r="3" fill="#3fb950"/><circle cx="375.6" cy="198.0" r="3" fill="#3fb950"/><circle cx="378.8" cy="198.0" r="3" fill="#3fb950"/><circle cx="382.0" cy="198.0" r="3" fill="#3fb950"/><circle cx="385.2" cy="198.0" r="3" fill="#3fb950"/><circle cx="388.4" cy="198.0" r="3" fill="#3fb950"/><circle cx="391.7" cy="198.0" r="3" fill="#3fb950"/><circle cx="394.9" cy="198.0" r="3" fill="#3fb950"/><circle cx="398.1" cy="198.0" r="3" fill="#3fb950"/><circle cx="401.3" cy="198.0" r="3" fill="#3fb950"/><circle cx="404.5" cy="198.0" r="3" fill="#3fb950"/><circle cx="407.7" cy="198.0" r="3" fill="#3fb950"/><circle cx="410.9" cy="198.0" r="3" fill="#3fb950"/><circle cx="414.1" cy="198.0" r="3" fill="#3fb950"/><circle cx="417.3" cy="198.0" r="3" fill="#3fb950"/><circle cx="420.5" cy="198.0" r="3" fill="#3fb950"/><circle cx="423.7" cy="198.0" r="3" fill="#3fb950"/><circle cx="426.9" cy="198.0" r="3" fill="#3fb950"/><circle cx="430.1" cy="198.0" r="3" fill="#3fb950"/><circle cx="433.3" cy="198.0" r="3" fill="#3fb950"/><circle cx="436.5" cy="198.0" r="3" fill="#3fb950"/><circle cx="439.7" cy="198.0" r="3" fill="#3fb950"/><circle cx="442.9" cy="198.0" r="3" fill="#3fb950"/><circle cx="446.1" cy="198.0" r="3" fill="#3fb950"/><circle cx="449.3" cy="198.0" r="3" fill="#3fb950"/><circle cx="452.5" cy="198.0" r="3" fill="#3fb950"/><circle cx="455.7" cy="198.0" r="3" fill="#3fb950"/><circle cx="458.9" cy="198.0" r="3" fill="#3fb950"/><circle cx="462.1" cy="198.0" r="3" fill="#3fb950"/><circle cx="465.3" cy="198.0" r="3" fill="#3fb950"/><circle cx="468.6" cy="198.0" r="3" fill="#3fb950"/><circle cx="471.8" cy="198.0" r="3" fill="#3fb950"/><circle cx="475.0" cy="198.0" r="3" fill="#3fb950"/><circle cx="478.2" cy="198.0" r="3" fill="#3fb950"/><circle cx="481.4" cy="198.0" r="3" fill="#3fb950"/><circle cx="484.6" cy="198.0" r="3" fill="#3fb950"/><circle cx="487.8" cy="198.0" r="3" fill="#3fb950"/><circle cx="491.0" cy="198.0" r="3" fill="#3fb950"/><circle cx="494.2" cy="198.0" r="3" fill="#3fb950"/><circle cx="497.4" cy="198.0" r="3" fill="#3fb950"/><circle cx="500.6" cy="198.0" r="3" fill="#3fb950"/><circle cx="503.8" cy="198.0" r="3" fill="#3fb950"/><circle cx="507.0" cy="198.0" r="3" fill="#3fb950"/><circle cx="510.2" cy="198.0" r="3" fill="#3fb950"/><circle cx="513.4" cy="198.0" r="3" fill="#3fb950"/><circle cx="516.6" cy="198.0" r="3" fill="#3fb950"/><circle cx="519.8" cy="198.0" r="3" fill="#3fb950"/><circle cx="523.0" cy="198.0" r="3" fill="#3fb950"/><circle cx="526.2" cy="198.0" r="3" fill="#3fb950"/><circle cx="529.4" cy="198.0" r="3" fill="#3fb950"/><circle cx="532.6" cy="198.0" r="3" fill="#3fb950"/><circle cx="535.8" cy="198.0" r="3" fill="#3fb950"/><circle cx="539.0" cy="198.0" r="3" fill="#3fb950"/><circle cx="542.2" cy="198.0" r="3" fill="#3fb950"/><circle cx="545.4" cy="198.0" r="3" fill="#3fb950"/><circle cx="548.7" cy="198.0" r="3" fill="#3fb950"/><circle cx="551.9" cy="198.0" r="3" fill="#3fb950"/><circle cx="555.1" cy="198.0" r="3" fill="#3fb950"/><circle cx="558.3" cy="198.0" r="3" fill="#3fb950"/><circle cx="561.5" cy="198.0" r="3" fill="#3fb950"/><circle cx="564.7" cy="198.0" r="3" fill="#3fb950"/><circle cx="567.9" cy="198.0" r="3" fill="#3fb950"/><circle cx="571.1" cy="198.0" r="3" fill="#3fb950"/><circle cx="574.3" cy="198.0" r="3" fill="#3fb950"/><circle cx="577.5" cy="198.0" r="3" fill="#3fb950"/><circle cx="580.7" cy="198.0" r="3" fill="#3fb950"/><circle cx="583.9" cy="198.0" r="3" fill="#3fb950"/><circle cx="587.1" cy="198.0" r="3" fill="#3fb950"/><circle cx="590.3" cy="198.0" r="3" fill="#3fb950"/><circle cx="593.5" cy="198.0" r="3" fill="#3fb950"/><circle cx="596.7" cy="198.0" r="3" fill="#3fb950"/><circle cx="599.9" cy="198.0" r="3" fill="#3fb950"/><circle cx="603.1" cy="198.0" r="3" fill="#3fb950"/><circle cx="606.3" cy="198.0" r="3" fill="#3fb950"/><circle cx="609.5" cy="198.0" r="3" fill="#3fb950"/><circle cx="612.7" cy="198.0" r="3" fill="#3fb950"/><circle cx="615.9" cy="198.0" r="3" fill="#3fb950"/><circle cx="619.1" cy="198.0" r="3" fill="#3fb950"/><circle cx="622.3" cy="198.0" r="3" fill="#3fb950"/><circle cx="625.6" cy="198.0" r="3" fill="#3fb950"/><circle cx="628.8" cy="198.0" r="3" fill="#3fb950"/><circle cx="632.0" cy="198.0" r="3" fill="#3fb950"/><circle cx="635.2" cy="198.0" r="3" fill="#3fb950"/><circle cx="638.4" cy="198.0" r="3" fill="#3fb950"/><circle cx="641.6" cy="198.0" r="3" fill="#3fb950"/><circle cx="644.8" cy="198.0" r="3" fill="#3fb950"/><circle cx="648.0" cy="198.0" r="3" fill="#3fb950"/><circle cx="651.2" cy="198.0" r="3" fill="#3fb950"/><circle cx="654.4" cy="198.0" r="3" fill="#3fb950"/><circle cx="657.6" cy="198.0" r="3" fill="#3fb950"/><circle cx="660.8" cy="198.0" r="3" fill="#3fb950"/><circle cx="664.0" cy="198.0" r="3" fill="#3fb950"/>
<polyline fill="none" stroke="#4aa3ff" stroke-width="2.5" stroke-linejoin="round" points="36.0,144.3 39.2,144.3 42.4,144.3 45.6,144.3 48.8,144.3 52.0,144.3 55.2,144.3 58.4,144.3 61.6,144.3 64.8,144.3 68.0,144.3 71.2,144.3 74.4,144.3 77.7,144.3 80.9,144.3 84.1,136.2 87.3,132.4 90.5,129.6 93.7,129.6 96.9,121.0 100.1,121.0 103.3,121.0 106.5,114.4 109.7,114.4 112.9,114.4 116.1,111.3 119.3,110.9 122.5,110.9 125.7,110.5 128.9,110.5 132.1,109.9 135.3,108.7 138.5,107.3 141.7,106.9 144.9,106.9 148.1,106.9 151.3,106.9 154.6,106.9 157.8,106.9 161.0,106.9 164.2,106.9 167.4,106.9 170.6,106.9 173.8,113.2 177.0,113.2 180.2,113.2 183.4,113.2 186.6,113.2 189.8,110.7 193.0,105.3 196.2,83.4 199.4,83.4 202.6,85.6 205.8,85.6 209.0,85.6 212.2,85.6 215.4,85.6 218.6,85.8 221.8,85.8 225.0,85.8 228.2,86.0 231.4,86.0 234.7,86.0 237.9,86.0 241.1,86.0 244.3,86.0 247.5,86.0 250.7,86.0 253.9,86.0 257.1,86.0 260.3,86.0 263.5,86.0 266.7,86.0 269.9,86.0 273.1,86.0 276.3,86.0 279.5,86.0 282.7,86.0 285.9,86.0 289.1,86.0 292.3,86.0 295.5,87.0 298.7,87.0 301.9,87.0 305.1,73.7 308.3,73.7 311.6,71.0 314.8,71.0 318.0,70.8 321.2,70.6 324.4,70.6 327.6,70.4 330.8,68.6 334.0,60.5 337.2,59.3 340.4,52.0 343.6,47.3 346.8,40.1 350.0,36.0 353.2,36.0 356.4,36.0 359.6,36.0 362.8,36.0 366.0,36.0 369.2,36.0 372.4,36.0 375.6,36.0 378.8,36.0 382.0,36.0 385.2,36.0 388.4,36.0 391.7,36.0 394.9,36.0 398.1,36.0 401.3,36.0 404.5,36.0 407.7,36.0 410.9,36.0 414.1,36.0 417.3,36.0 420.5,36.0 423.7,36.0 426.9,36.0 430.1,36.0 433.3,36.0 436.5,36.0 439.7,36.0 442.9,36.0 446.1,36.0 449.3,36.0 452.5,36.0 455.7,36.0 458.9,36.0 462.1,36.0 465.3,36.0 468.6,36.0 471.8,36.0 475.0,36.0 478.2,36.0 481.4,36.0 484.6,36.0 487.8,36.0 491.0,36.0 494.2,36.0 497.4,36.0 500.6,36.0 503.8,36.0 507.0,36.0 510.2,36.0 513.4,36.0 516.6,36.0 519.8,36.0 523.0,36.0 526.2,36.0 529.4,36.0 532.6,36.0 535.8,36.0 539.0,36.0 542.2,36.0 545.4,36.0 548.7,36.0 551.9,36.0 555.1,36.0 558.3,36.0 561.5,36.0 564.7,36.0 567.9,36.0 571.1,36.0 574.3,36.0 577.5,36.0 580.7,36.0 583.9,36.0 587.1,36.0 590.3,36.0 593.5,36.0 596.7,36.0 599.9,36.0 603.1,36.0 606.3,36.0 609.5,36.0 612.7,36.0 615.9,36.0 619.1,36.0 622.3,36.0 625.6,36.0 628.8,36.0 632.0,36.0 635.2,36.0 638.4,36.0 641.6,36.0 644.8,36.0 648.0,36.0 651.2,36.0 654.4,36.0 657.6,36.0 660.8,36.0 664.0,36.0"/><circle cx="36.0" cy="144.3" r="3" fill="#4aa3ff"/><circle cx="39.2" cy="144.3" r="3" fill="#4aa3ff"/><circle cx="42.4" cy="144.3" r="3" fill="#4aa3ff"/><circle cx="45.6" cy="144.3" r="3" fill="#4aa3ff"/><circle cx="48.8" cy="144.3" r="3" fill="#4aa3ff"/><circle cx="52.0" cy="144.3" r="3" fill="#4aa3ff"/><circle cx="55.2" cy="144.3" r="3" fill="#4aa3ff"/><circle cx="58.4" cy="144.3" r="3" fill="#4aa3ff"/><circle cx="61.6" cy="144.3" r="3" fill="#4aa3ff"/><circle cx="64.8" cy="144.3" r="3" fill="#4aa3ff"/><circle cx="68.0" cy="144.3" r="3" fill="#4aa3ff"/><circle cx="71.2" cy="144.3" r="3" fill="#4aa3ff"/><circle cx="74.4" cy="144.3" r="3" fill="#4aa3ff"/><circle cx="77.7" cy="144.3" r="3" fill="#4aa3ff"/><circle cx="80.9" cy="144.3" r="3" fill="#4aa3ff"/><circle cx="84.1" cy="136.2" r="3" fill="#4aa3ff"/><circle cx="87.3" cy="132.4" r="3" fill="#4aa3ff"/><circle cx="90.5" cy="129.6" r="3" fill="#4aa3ff"/><circle cx="93.7" cy="129.6" r="3" fill="#4aa3ff"/><circle cx="96.9" cy="121.0" r="3" fill="#4aa3ff"/><circle cx="100.1" cy="121.0" r="3" fill="#4aa3ff"/><circle cx="103.3" cy="121.0" r="3" fill="#4aa3ff"/><circle cx="106.5" cy="114.4" r="3" fill="#4aa3ff"/><circle cx="109.7" cy="114.4" r="3" fill="#4aa3ff"/><circle cx="112.9" cy="114.4" r="3" fill="#4aa3ff"/><circle cx="116.1" cy="111.3" r="3" fill="#4aa3ff"/><circle cx="119.3" cy="110.9" r="3" fill="#4aa3ff"/><circle cx="122.5" cy="110.9" r="3" fill="#4aa3ff"/><circle cx="125.7" cy="110.5" r="3" fill="#4aa3ff"/><circle cx="128.9" cy="110.5" r="3" fill="#4aa3ff"/><circle cx="132.1" cy="109.9" r="3" fill="#4aa3ff"/><circle cx="135.3" cy="108.7" r="3" fill="#4aa3ff"/><circle cx="138.5" cy="107.3" r="3" fill="#4aa3ff"/><circle cx="141.7" cy="106.9" r="3" fill="#4aa3ff"/><circle cx="144.9" cy="106.9" r="3" fill="#4aa3ff"/><circle cx="148.1" cy="106.9" r="3" fill="#4aa3ff"/><circle cx="151.3" cy="106.9" r="3" fill="#4aa3ff"/><circle cx="154.6" cy="106.9" r="3" fill="#4aa3ff"/><circle cx="157.8" cy="106.9" r="3" fill="#4aa3ff"/><circle cx="161.0" cy="106.9" r="3" fill="#4aa3ff"/><circle cx="164.2" cy="106.9" r="3" fill="#4aa3ff"/><circle cx="167.4" cy="106.9" r="3" fill="#4aa3ff"/><circle cx="170.6" cy="106.9" r="3" fill="#4aa3ff"/><circle cx="173.8" cy="113.2" r="3" fill="#4aa3ff"/><circle cx="177.0" cy="113.2" r="3" fill="#4aa3ff"/><circle cx="180.2" cy="113.2" r="3" fill="#4aa3ff"/><circle cx="183.4" cy="113.2" r="3" fill="#4aa3ff"/><circle cx="186.6" cy="113.2" r="3" fill="#4aa3ff"/><circle cx="189.8" cy="110.7" r="3" fill="#4aa3ff"/><circle cx="193.0" cy="105.3" r="3" fill="#4aa3ff"/><circle cx="196.2" cy="83.4" r="3" fill="#4aa3ff"/><circle cx="199.4" cy="83.4" r="3" fill="#4aa3ff"/><circle cx="202.6" cy="85.6" r="3" fill="#4aa3ff"/><circle cx="205.8" cy="85.6" r="3" fill="#4aa3ff"/><circle cx="209.0" cy="85.6" r="3" fill="#4aa3ff"/><circle cx="212.2" cy="85.6" r="3" fill="#4aa3ff"/><circle cx="215.4" cy="85.6" r="3" fill="#4aa3ff"/><circle cx="218.6" cy="85.8" r="3" fill="#4aa3ff"/><circle cx="221.8" cy="85.8" r="3" fill="#4aa3ff"/><circle cx="225.0" cy="85.8" r="3" fill="#4aa3ff"/><circle cx="228.2" cy="86.0" r="3" fill="#4aa3ff"/><circle cx="231.4" cy="86.0" r="3" fill="#4aa3ff"/><circle cx="234.7" cy="86.0" r="3" fill="#4aa3ff"/><circle cx="237.9" cy="86.0" r="3" fill="#4aa3ff"/><circle cx="241.1" cy="86.0" r="3" fill="#4aa3ff"/><circle cx="244.3" cy="86.0" r="3" fill="#4aa3ff"/><circle cx="247.5" cy="86.0" r="3" fill="#4aa3ff"/><circle cx="250.7" cy="86.0" r="3" fill="#4aa3ff"/><circle cx="253.9" cy="86.0" r="3" fill="#4aa3ff"/><circle cx="257.1" cy="86.0" r="3" fill="#4aa3ff"/><circle cx="260.3" cy="86.0" r="3" fill="#4aa3ff"/><circle cx="263.5" cy="86.0" r="3" fill="#4aa3ff"/><circle cx="266.7" cy="86.0" r="3" fill="#4aa3ff"/><circle cx="269.9" cy="86.0" r="3" fill="#4aa3ff"/><circle cx="273.1" cy="86.0" r="3" fill="#4aa3ff"/><circle cx="276.3" cy="86.0" r="3" fill="#4aa3ff"/><circle cx="279.5" cy="86.0" r="3" fill="#4aa3ff"/><circle cx="282.7" cy="86.0" r="3" fill="#4aa3ff"/><circle cx="285.9" cy="86.0" r="3" fill="#4aa3ff"/><circle cx="289.1" cy="86.0" r="3" fill="#4aa3ff"/><circle cx="292.3" cy="86.0" r="3" fill="#4aa3ff"/><circle cx="295.5" cy="87.0" r="3" fill="#4aa3ff"/><circle cx="298.7" cy="87.0" r="3" fill="#4aa3ff"/><circle cx="301.9" cy="87.0" r="3" fill="#4aa3ff"/><circle cx="305.1" cy="73.7" r="3" fill="#4aa3ff"/><circle cx="308.3" cy="73.7" r="3" fill="#4aa3ff"/><circle cx="311.6" cy="71.0" r="3" fill="#4aa3ff"/><circle cx="314.8" cy="71.0" r="3" fill="#4aa3ff"/><circle cx="318.0" cy="70.8" r="3" fill="#4aa3ff"/><circle cx="321.2" cy="70.6" r="3" fill="#4aa3ff"/><circle cx="324.4" cy="70.6" r="3" fill="#4aa3ff"/><circle cx="327.6" cy="70.4" r="3" fill="#4aa3ff"/><circle cx="330.8" cy="68.6" r="3" fill="#4aa3ff"/><circle cx="334.0" cy="60.5" r="3" fill="#4aa3ff"/><circle cx="337.2" cy="59.3" r="3" fill="#4aa3ff"/><circle cx="340.4" cy="52.0" r="3" fill="#4aa3ff"/><circle cx="343.6" cy="47.3" r="3" fill="#4aa3ff"/><circle cx="346.8" cy="40.1" r="3" fill="#4aa3ff"/><circle cx="350.0" cy="36.0" r="3" fill="#4aa3ff"/><circle cx="353.2" cy="36.0" r="3" fill="#4aa3ff"/><circle cx="356.4" cy="36.0" r="3" fill="#4aa3ff"/><circle cx="359.6" cy="36.0" r="3" fill="#4aa3ff"/><circle cx="362.8" cy="36.0" r="3" fill="#4aa3ff"/><circle cx="366.0" cy="36.0" r="3" fill="#4aa3ff"/><circle cx="369.2" cy="36.0" r="3" fill="#4aa3ff"/><circle cx="372.4" cy="36.0" r="3" fill="#4aa3ff"/><circle cx="375.6" cy="36.0" r="3" fill="#4aa3ff"/><circle cx="378.8" cy="36.0" r="3" fill="#4aa3ff"/><circle cx="382.0" cy="36.0" r="3" fill="#4aa3ff"/><circle cx="385.2" cy="36.0" r="3" fill="#4aa3ff"/><circle cx="388.4" cy="36.0" r="3" fill="#4aa3ff"/><circle cx="391.7" cy="36.0" r="3" fill="#4aa3ff"/><circle cx="394.9" cy="36.0" r="3" fill="#4aa3ff"/><circle cx="398.1" cy="36.0" r="3" fill="#4aa3ff"/><circle cx="401.3" cy="36.0" r="3" fill="#4aa3ff"/><circle cx="404.5" cy="36.0" r="3" fill="#4aa3ff"/><circle cx="407.7" cy="36.0" r="3" fill="#4aa3ff"/><circle cx="410.9" cy="36.0" r="3" fill="#4aa3ff"/><circle cx="414.1" cy="36.0" r="3" fill="#4aa3ff"/><circle cx="417.3" cy="36.0" r="3" fill="#4aa3ff"/><circle cx="420.5" cy="36.0" r="3" fill="#4aa3ff"/><circle cx="423.7" cy="36.0" r="3" fill="#4aa3ff"/><circle cx="426.9" cy="36.0" r="3" fill="#4aa3ff"/><circle cx="430.1" cy="36.0" r="3" fill="#4aa3ff"/><circle cx="433.3" cy="36.0" r="3" fill="#4aa3ff"/><circle cx="436.5" cy="36.0" r="3" fill="#4aa3ff"/><circle cx="439.7" cy="36.0" r="3" fill="#4aa3ff"/><circle cx="442.9" cy="36.0" r="3" fill="#4aa3ff"/><circle cx="446.1" cy="36.0" r="3" fill="#4aa3ff"/><circle cx="449.3" cy="36.0" r="3" fill="#4aa3ff"/><circle cx="452.5" cy="36.0" r="3" fill="#4aa3ff"/><circle cx="455.7" cy="36.0" r="3" fill="#4aa3ff"/><circle cx="458.9" cy="36.0" r="3" fill="#4aa3ff"/><circle cx="462.1" cy="36.0" r="3" fill="#4aa3ff"/><circle cx="465.3" cy="36.0" r="3" fill="#4aa3ff"/><circle cx="468.6" cy="36.0" r="3" fill="#4aa3ff"/><circle cx="471.8" cy="36.0" r="3" fill="#4aa3ff"/><circle cx="475.0" cy="36.0" r="3" fill="#4aa3ff"/><circle cx="478.2" cy="36.0" r="3" fill="#4aa3ff"/><circle cx="481.4" cy="36.0" r="3" fill="#4aa3ff"/><circle cx="484.6" cy="36.0" r="3" fill="#4aa3ff"/><circle cx="487.8" cy="36.0" r="3" fill="#4aa3ff"/><circle cx="491.0" cy="36.0" r="3" fill="#4aa3ff"/><circle cx="494.2" cy="36.0" r="3" fill="#4aa3ff"/><circle cx="497.4" cy="36.0" r="3" fill="#4aa3ff"/><circle cx="500.6" cy="36.0" r="3" fill="#4aa3ff"/><circle cx="503.8" cy="36.0" r="3" fill="#4aa3ff"/><circle cx="507.0" cy="36.0" r="3" fill="#4aa3ff"/><circle cx="510.2" cy="36.0" r="3" fill="#4aa3ff"/><circle cx="513.4" cy="36.0" r="3" fill="#4aa3ff"/><circle cx="516.6" cy="36.0" r="3" fill="#4aa3ff"/><circle cx="519.8" cy="36.0" r="3" fill="#4aa3ff"/><circle cx="523.0" cy="36.0" r="3" fill="#4aa3ff"/><circle cx="526.2" cy="36.0" r="3" fill="#4aa3ff"/><circle cx="529.4" cy="36.0" r="3" fill="#4aa3ff"/><circle cx="532.6" cy="36.0" r="3" fill="#4aa3ff"/><circle cx="535.8" cy="36.0" r="3" fill="#4aa3ff"/><circle cx="539.0" cy="36.0" r="3" fill="#4aa3ff"/><circle cx="542.2" cy="36.0" r="3" fill="#4aa3ff"/><circle cx="545.4" cy="36.0" r="3" fill="#4aa3ff"/><circle cx="548.7" cy="36.0" r="3" fill="#4aa3ff"/><circle cx="551.9" cy="36.0" r="3" fill="#4aa3ff"/><circle cx="555.1" cy="36.0" r="3" fill="#4aa3ff"/><circle cx="558.3" cy="36.0" r="3" fill="#4aa3ff"/><circle cx="561.5" cy="36.0" r="3" fill="#4aa3ff"/><circle cx="564.7" cy="36.0" r="3" fill="#4aa3ff"/><circle cx="567.9" cy="36.0" r="3" fill="#4aa3ff"/><circle cx="571.1" cy="36.0" r="3" fill="#4aa3ff"/><circle cx="574.3" cy="36.0" r="3" fill="#4aa3ff"/><circle cx="577.5" cy="36.0" r="3" fill="#4aa3ff"/><circle cx="580.7" cy="36.0" r="3" fill="#4aa3ff"/><circle cx="583.9" cy="36.0" r="3" fill="#4aa3ff"/><circle cx="587.1" cy="36.0" r="3" fill="#4aa3ff"/><circle cx="590.3" cy="36.0" r="3" fill="#4aa3ff"/><circle cx="593.5" cy="36.0" r="3" fill="#4aa3ff"/><circle cx="596.7" cy="36.0" r="3" fill="#4aa3ff"/><circle cx="599.9" cy="36.0" r="3" fill="#4aa3ff"/><circle cx="603.1" cy="36.0" r="3" fill="#4aa3ff"/><circle cx="606.3" cy="36.0" r="3" fill="#4aa3ff"/><circle cx="609.5" cy="36.0" r="3" fill="#4aa3ff"/><circle cx="612.7" cy="36.0" r="3" fill="#4aa3ff"/><circle cx="615.9" cy="36.0" r="3" fill="#4aa3ff"/><circle cx="619.1" cy="36.0" r="3" fill="#4aa3ff"/><circle cx="622.3" cy="36.0" r="3" fill="#4aa3ff"/><circle cx="625.6" cy="36.0" r="3" fill="#4aa3ff"/><circle cx="628.8" cy="36.0" r="3" fill="#4aa3ff"/><circle cx="632.0" cy="36.0" r="3" fill="#4aa3ff"/><circle cx="635.2" cy="36.0" r="3" fill="#4aa3ff"/><circle cx="638.4" cy="36.0" r="3" fill="#4aa3ff"/><circle cx="641.6" cy="36.0" r="3" fill="#4aa3ff"/><circle cx="644.8" cy="36.0" r="3" fill="#4aa3ff"/><circle cx="648.0" cy="36.0" r="3" fill="#4aa3ff"/><circle cx="651.2" cy="36.0" r="3" fill="#4aa3ff"/><circle cx="654.4" cy="36.0" r="3" fill="#4aa3ff"/><circle cx="657.6" cy="36.0" r="3" fill="#4aa3ff"/><circle cx="660.8" cy="36.0" r="3" fill="#4aa3ff"/><circle cx="664.0" cy="36.0" r="3" fill="#4aa3ff"/>
<text x="36" y="225" fill="#6b7280" font-size="11">2026-06-26</text>
<text x="664" y="225" fill="#6b7280" font-size="11" text-anchor="end">2026-07-16</text>
<text x="36" y="212" font-family="system-ui,sans-serif" font-size="11">
<tspan fill="#4aa3ff">&#9679; open FPs</tspan>  <tspan fill="#3fb950">&#9679; closed (Anthropic acting)</tspan>  <tspan fill="#8a5a5a">&#9679; harness withdrawn</tspan></text>
<text x="664" y="22" text-anchor="end" font-family="system-ui,sans-serif" font-size="12">
<tspan fill="#4aa3ff">open 800</tspan>  <tspan fill="#3fb950">closed 0</tspan>  <tspan fill="#8a5a5a">harness 0</tspan></text>
</svg>