<svg xmlns="http://www.w3.org/2000/svg" width="700" height="234" viewBox="0 0 700 234" role="img">
<rect width="700" height="234" rx="12" fill="#16181d"/>
<text x="36" y="22" fill="#e8eaed" font-family="system-ui,sans-serif" font-size="14" font-weight="700">Is Anthropic acting? cyber/aup false positives over time</text>
<line x1="36" y1="198.0" x2="664" y2="198.0" stroke="#2a2e37" stroke-width="1"/><text x="30" y="202.0" fill="#6b7280" font-size="11" text-anchor="end">0</text><line x1="36" y1="117.0" x2="664" y2="117.0" stroke="#2a2e37" stroke-width="1"/><text x="30" y="121.0" fill="#6b7280" font-size="11" text-anchor="end">225</text><line x1="36" y1="36.0" x2="664" y2="36.0" stroke="#2a2e37" stroke-width="1"/><text x="30" y="40.0" fill="#6b7280" font-size="11" text-anchor="end">450</text>

<polyline fill="none" stroke="#8a5a5a" stroke-width="2.5" stroke-linejoin="round" points="36.0,104.0 54.5,104.0 72.9,104.0 91.4,104.0 109.9,104.0 128.4,104.0 146.8,104.0 165.3,104.0 183.8,104.0 202.2,104.0 220.7,104.0 239.2,104.0 257.6,104.0 276.1,104.0 294.6,104.0 313.1,104.0 331.5,104.0 350.0,104.0 368.5,104.0 386.9,104.0 405.4,104.0 423.9,104.0 442.4,104.0 460.8,104.0 479.3,104.0 497.8,104.0 516.2,104.0 534.7,104.0 553.2,104.0 571.6,104.0 590.1,104.0 608.6,104.0 627.1,104.0 645.5,104.0 664.0,104.0"/><circle cx="36.0" cy="104.0" r="3" fill="#8a5a5a"/><circle cx="54.5" cy="104.0" r="3" fill="#8a5a5a"/><circle cx="72.9" cy="104.0" r="3" fill="#8a5a5a"/><circle cx="91.4" cy="104.0" r="3" fill="#8a5a5a"/><circle cx="109.9" cy="104.0" r="3" fill="#8a5a5a"/><circle cx="128.4" cy="104.0" r="3" fill="#8a5a5a"/><circle cx="146.8" cy="104.0" r="3" fill="#8a5a5a"/><circle cx="165.3" cy="104.0" r="3" fill="#8a5a5a"/><circle cx="183.8" cy="104.0" r="3" fill="#8a5a5a"/><circle cx="202.2" cy="104.0" r="3" fill="#8a5a5a"/><circle cx="220.7" cy="104.0" r="3" fill="#8a5a5a"/><circle cx="239.2" cy="104.0" r="3" fill="#8a5a5a"/><circle cx="257.6" cy="104.0" r="3" fill="#8a5a5a"/><circle cx="276.1" cy="104.0" r="3" fill="#8a5a5a"/><circle cx="294.6" cy="104.0" r="3" fill="#8a5a5a"/><circle cx="313.1" cy="104.0" r="3" fill="#8a5a5a"/><circle cx="331.5" cy="104.0" r="3" fill="#8a5a5a"/><circle cx="350.0" cy="104.0" r="3" fill="#8a5a5a"/><circle cx="368.5" cy="104.0" r="3" fill="#8a5a5a"/><circle cx="386.9" cy="104.0" r="3" fill="#8a5a5a"/><circle cx="405.4" cy="104.0" r="3" fill="#8a5a5a"/><circle cx="423.9" cy="104.0" r="3" fill="#8a5a5a"/><circle cx="442.4" cy="104.0" r="3" fill="#8a5a5a"/><circle cx="460.8" cy="104.0" r="3" fill="#8a5a5a"/><circle cx="479.3" cy="104.0" r="3" fill="#8a5a5a"/><circle cx="497.8" cy="104.0" r="3" fill="#8a5a5a"/><circle cx="516.2" cy="104.0" r="3" fill="#8a5a5a"/><circle cx="534.7" cy="104.0" r="3" fill="#8a5a5a"/><circle cx="553.2" cy="104.0" r="3" fill="#8a5a5a"/><circle cx="571.6" cy="104.0" r="3" fill="#8a5a5a"/><circle cx="590.1" cy="104.0" r="3" fill="#8a5a5a"/><circle cx="608.6" cy="104.0" r="3" fill="#8a5a5a"/><circle cx="627.1" cy="104.0" r="3" fill="#8a5a5a"/><circle cx="645.5" cy="104.0" r="3" fill="#8a5a5a"/><circle cx="664.0" cy="104.0" r="3" fill="#8a5a5a"/>
<polyline fill="none" stroke="#3fb950" stroke-width="2.5" stroke-linejoin="round" points="36.0,198.0 54.5,198.0 72.9,198.0 91.4,198.0 109.9,198.0 128.4,198.0 146.8,198.0 165.3,198.0 183.8,198.0 202.2,198.0 220.7,198.0 239.2,198.0 257.6,198.0 276.1,198.0 294.6,198.0 313.1,198.0 331.5,198.0 350.0,198.0 368.5,198.0 386.9,198.0 405.4,198.0 423.9,198.0 442.4,198.0 460.8,198.0 479.3,198.0 497.8,198.0 516.2,198.0 534.7,198.0 553.2,198.0 571.6,198.0 590.1,198.0 608.6,198.0 627.1,198.0 645.5,198.0 664.0,198.0"/><circle cx="36.0" cy="198.0" r="3" fill="#3fb950"/><circle cx="54.5" cy="198.0" r="3" fill="#3fb950"/><circle cx="72.9" cy="198.0" r="3" fill="#3fb950"/><circle cx="91.4" cy="198.0" r="3" fill="#3fb950"/><circle cx="109.9" cy="198.0" r="3" fill="#3fb950"/><circle cx="128.4" cy="198.0" r="3" fill="#3fb950"/><circle cx="146.8" cy="198.0" r="3" fill="#3fb950"/><circle cx="165.3" cy="198.0" r="3" fill="#3fb950"/><circle cx="183.8" cy="198.0" r="3" fill="#3fb950"/><circle cx="202.2" cy="198.0" r="3" fill="#3fb950"/><circle cx="220.7" cy="198.0" r="3" fill="#3fb950"/><circle cx="239.2" cy="198.0" r="3" fill="#3fb950"/><circle cx="257.6" cy="198.0" r="3" fill="#3fb950"/><circle cx="276.1" cy="198.0" r="3" fill="#3fb950"/><circle cx="294.6" cy="198.0" r="3" fill="#3fb950"/><circle cx="313.1" cy="198.0" r="3" fill="#3fb950"/><circle cx="331.5" cy="198.0" r="3" fill="#3fb950"/><circle cx="350.0" cy="198.0" r="3" fill="#3fb950"/><circle cx="368.5" cy="198.0" r="3" fill="#3fb950"/><circle cx="386.9" cy="198.0" r="3" fill="#3fb950"/><circle cx="405.4" cy="198.0" r="3" fill="#3fb950"/><circle cx="423.9" cy="198.0" r="3" fill="#3fb950"/><circle cx="442.4" cy="198.0" r="3" fill="#3fb950"/><circle cx="460.8" cy="198.0" r="3" fill="#3fb950"/><circle cx="479.3" cy="198.0" r="3" fill="#3fb950"/><circle cx="497.8" cy="198.0" r="3" fill="#3fb950"/><circle cx="516.2" cy="198.0" r="3" fill="#3fb950"/><circle cx="534.7" cy="198.0" r="3" fill="#3fb950"/><circle cx="553.2" cy="198.0" r="3" fill="#3fb950"/><circle cx="571.6" cy="198.0" r="3" fill="#3fb950"/><circle cx="590.1" cy="198.0" r="3" fill="#3fb950"/><circle cx="608.6" cy="198.0" r="3" fill="#3fb950"/><circle cx="627.1" cy="198.0" r="3" fill="#3fb950"/><circle cx="645.5" cy="198.0" r="3" fill="#3fb950"/><circle cx="664.0" cy="198.0" r="3" fill="#3fb950"/>
<polyline fill="none" stroke="#4aa3ff" stroke-width="2.5" stroke-linejoin="round" points="36.0,102.6 54.5,102.6 72.9,102.6 91.4,102.6 109.9,102.6 128.4,102.6 146.8,102.6 165.3,102.6 183.8,102.6 202.2,102.6 220.7,102.6 239.2,102.6 257.6,102.6 276.1,102.6 294.6,102.6 313.1,88.2 331.5,81.4 350.0,76.3 368.5,76.3 386.9,61.2 405.4,61.2 423.9,61.2 442.4,49.3 460.8,49.3 479.3,49.3 497.8,43.9 516.2,43.2 534.7,43.2 553.2,42.5 571.6,42.5 590.1,41.4 608.6,39.2 627.1,36.7 645.5,36.0 664.0,36.0"/><circle cx="36.0" cy="102.6" r="3" fill="#4aa3ff"/><circle cx="54.5" cy="102.6" r="3" fill="#4aa3ff"/><circle cx="72.9" cy="102.6" r="3" fill="#4aa3ff"/><circle cx="91.4" cy="102.6" r="3" fill="#4aa3ff"/><circle cx="109.9" cy="102.6" r="3" fill="#4aa3ff"/><circle cx="128.4" cy="102.6" r="3" fill="#4aa3ff"/><circle cx="146.8" cy="102.6" r="3" fill="#4aa3ff"/><circle cx="165.3" cy="102.6" r="3" fill="#4aa3ff"/><circle cx="183.8" cy="102.6" r="3" fill="#4aa3ff"/><circle cx="202.2" cy="102.6" r="3" fill="#4aa3ff"/><circle cx="220.7" cy="102.6" r="3" fill="#4aa3ff"/><circle cx="239.2" cy="102.6" r="3" fill="#4aa3ff"/><circle cx="257.6" cy="102.6" r="3" fill="#4aa3ff"/><circle cx="276.1" cy="102.6" r="3" fill="#4aa3ff"/><circle cx="294.6" cy="102.6" r="3" fill="#4aa3ff"/><circle cx="313.1" cy="88.2" r="3" fill="#4aa3ff"/><circle cx="331.5" cy="81.4" r="3" fill="#4aa3ff"/><circle cx="350.0" cy="76.3" r="3" fill="#4aa3ff"/><circle cx="368.5" cy="76.3" r="3" fill="#4aa3ff"/><circle cx="386.9" cy="61.2" r="3" fill="#4aa3ff"/><circle cx="405.4" cy="61.2" r="3" fill="#4aa3ff"/><circle cx="423.9" cy="61.2" r="3" fill="#4aa3ff"/><circle cx="442.4" cy="49.3" r="3" fill="#4aa3ff"/><circle cx="460.8" cy="49.3" r="3" fill="#4aa3ff"/><circle cx="479.3" cy="49.3" r="3" fill="#4aa3ff"/><circle cx="497.8" cy="43.9" r="3" fill="#4aa3ff"/><circle cx="516.2" cy="43.2" r="3" fill="#4aa3ff"/><circle cx="534.7" cy="43.2" r="3" fill="#4aa3ff"/><circle cx="553.2" cy="42.5" r="3" fill="#4aa3ff"/><circle cx="571.6" cy="42.5" r="3" fill="#4aa3ff"/><circle cx="590.1" cy="41.4" r="3" fill="#4aa3ff"/><circle cx="608.6" cy="39.2" r="3" fill="#4aa3ff"/><circle cx="627.1" cy="36.7" r="3" fill="#4aa3ff"/><circle cx="645.5" cy="36.0" r="3" fill="#4aa3ff"/><circle cx="664.0" cy="36.0" r="3" fill="#4aa3ff"/>
<text x="36" y="225" fill="#6b7280" font-size="11">2026-06-26</text>
<text x="664" y="225" fill="#6b7280" font-size="11" text-anchor="end">2026-06-30</text>
<text x="36" y="212" font-family="system-ui,sans-serif" font-size="11">
<tspan fill="#4aa3ff">&#9679; open FPs</tspan>  <tspan fill="#3fb950">&#9679; closed (Anthropic acting)</tspan>  <tspan fill="#8a5a5a">&#9679; harness withdrawn</tspan></text>
<text x="664" y="22" text-anchor="end" font-family="system-ui,sans-serif" font-size="12">
<tspan fill="#4aa3ff">open 450</tspan>  <tspan fill="#3fb950">closed 0</tspan>  <tspan fill="#8a5a5a">harness 261</tspan></text>
</svg>