<svg xmlns="http://www.w3.org/2000/svg" width="700" height="234" viewBox="0 0 700 234" role="img">
<rect width="700" height="234" rx="12" fill="#16181d"/>
<text x="36" y="22" fill="#e8eaed" font-family="system-ui,sans-serif" font-size="14" font-weight="700">Is Anthropic acting? cyber/aup false positives over time</text>
<line x1="36" y1="198.0" x2="664" y2="198.0" stroke="#2a2e37" stroke-width="1"/><text x="30" y="202.0" fill="#6b7280" font-size="11" text-anchor="end">0</text><line x1="36" y1="117.0" x2="664" y2="117.0" stroke="#2a2e37" stroke-width="1"/><text x="30" y="121.0" fill="#6b7280" font-size="11" text-anchor="end">400</text><line x1="36" y1="36.0" x2="664" y2="36.0" stroke="#2a2e37" stroke-width="1"/><text x="30" y="40.0" fill="#6b7280" font-size="11" text-anchor="end">800</text>

<polyline fill="none" stroke="#8a5a5a" stroke-width="2.5" stroke-linejoin="round" points="36.0,145.1 38.7,145.1 41.4,145.1 44.2,145.1 46.9,145.1 49.6,145.1 52.3,145.1 55.0,145.1 57.7,145.1 60.5,145.1 63.2,145.1 65.9,145.1 68.6,145.1 71.3,145.1 74.1,145.1 76.8,145.1 79.5,145.1 82.2,145.1 84.9,145.1 87.7,145.1 90.4,145.1 93.1,145.1 95.8,145.1 98.5,145.1 101.2,145.1 104.0,145.1 106.7,145.1 109.4,145.1 112.1,145.1 114.8,145.1 117.6,145.1 120.3,145.1 123.0,145.1 125.7,145.1 128.4,145.1 131.2,145.1 133.9,145.1 136.6,145.1 139.3,145.1 142.0,145.1 144.7,145.1 147.5,145.1 150.2,145.1 152.9,145.1 155.6,145.1 158.3,145.1 161.1,145.1 163.8,145.1 166.5,145.1 169.2,145.1 171.9,155.7 174.6,155.7 177.4,155.7 180.1,155.7 182.8,155.7 185.5,155.7 188.2,155.7 191.0,155.7 193.7,155.7 196.4,155.7 199.1,155.7 201.8,155.7 204.6,155.7 207.3,155.7 210.0,155.7 212.7,155.7 215.4,155.7 218.1,155.7 220.9,155.7 223.6,155.7 226.3,155.7 229.0,155.7 231.7,155.7 234.5,155.7 237.2,155.7 239.9,155.7 242.6,155.7 245.3,155.7 248.1,155.7 250.8,155.7 253.5,155.7 256.2,155.7 258.9,155.7 261.6,155.7 264.4,167.6 267.1,167.6 269.8,170.3 272.5,170.3 275.2,170.5 278.0,170.7 280.7,170.7 283.4,170.9 286.1,172.7 288.8,180.6 291.5,181.8 294.3,189.1 297.0,190.5 299.7,195.2 302.4,198.0 305.1,198.0 307.9,198.0 310.6,198.0 313.3,198.0 316.0,198.0 318.7,198.0 321.5,198.0 324.2,198.0 326.9,198.0 329.6,198.0 332.3,198.0 335.0,198.0 337.8,198.0 340.5,198.0 343.2,198.0 345.9,198.0 348.6,198.0 351.4,198.0 354.1,198.0 356.8,198.0 359.5,198.0 362.2,198.0 365.0,198.0 367.7,198.0 370.4,198.0 373.1,198.0 375.8,198.0 378.5,198.0 381.3,198.0 384.0,198.0 386.7,198.0 389.4,198.0 392.1,198.0 394.9,198.0 397.6,198.0 400.3,198.0 403.0,198.0 405.7,198.0 408.5,198.0 411.2,198.0 413.9,198.0 416.6,198.0 419.3,198.0 422.0,198.0 424.8,198.0 427.5,198.0 430.2,198.0 432.9,198.0 435.6,198.0 438.4,198.0 441.1,198.0 443.8,198.0 446.5,198.0 449.2,198.0 451.9,198.0 454.7,198.0 457.4,198.0 460.1,198.0 462.8,198.0 465.5,198.0 468.3,198.0 471.0,198.0 473.7,198.0 476.4,198.0 479.1,198.0 481.9,198.0 484.6,198.0 487.3,198.0 490.0,198.0 492.7,198.0 495.4,198.0 498.2,198.0 500.9,198.0 503.6,198.0 506.3,198.0 509.0,198.0 511.8,198.0 514.5,198.0 517.2,198.0 519.9,198.0 522.6,198.0 525.4,198.0 528.1,198.0 530.8,198.0 533.5,198.0 536.2,198.0 538.9,198.0 541.7,198.0 544.4,198.0 547.1,198.0 549.8,198.0 552.5,198.0 555.3,198.0 558.0,198.0 560.7,198.0 563.4,198.0 566.1,198.0 568.8,198.0 571.6,198.0 574.3,198.0 577.0,198.0 579.7,198.0 582.4,198.0 585.2,198.0 587.9,198.0 590.6,198.0 593.3,198.0 596.0,198.0 598.8,198.0 601.5,198.0 604.2,198.0 606.9,198.0 609.6,198.0 612.3,198.0 615.1,198.0 617.8,198.0 620.5,198.0 623.2,198.0 625.9,198.0 628.7,198.0 631.4,198.0 634.1,198.0 636.8,198.0 639.5,198.0 642.3,198.0 645.0,198.0 647.7,198.0 650.4,198.0 653.1,198.0 655.8,198.0 658.6,198.0 661.3,198.0 664.0,198.0"/><circle cx="36.0" cy="145.1" r="3" fill="#8a5a5a"/><circle cx="38.7" cy="145.1" r="3" fill="#8a5a5a"/><circle cx="41.4" cy="145.1" r="3" fill="#8a5a5a"/><circle cx="44.2" cy="145.1" r="3" fill="#8a5a5a"/><circle cx="46.9" cy="145.1" r="3" fill="#8a5a5a"/><circle cx="49.6" cy="145.1" r="3" fill="#8a5a5a"/><circle cx="52.3" cy="145.1" r="3" fill="#8a5a5a"/><circle cx="55.0" cy="145.1" r="3" fill="#8a5a5a"/><circle cx="57.7" cy="145.1" r="3" fill="#8a5a5a"/><circle cx="60.5" cy="145.1" r="3" fill="#8a5a5a"/><circle cx="63.2" cy="145.1" r="3" fill="#8a5a5a"/><circle cx="65.9" cy="145.1" r="3" fill="#8a5a5a"/><circle cx="68.6" cy="145.1" r="3" fill="#8a5a5a"/><circle cx="71.3" cy="145.1" r="3" fill="#8a5a5a"/><circle cx="74.1" cy="145.1" r="3" fill="#8a5a5a"/><circle cx="76.8" cy="145.1" r="3" fill="#8a5a5a"/><circle cx="79.5" cy="145.1" r="3" fill="#8a5a5a"/><circle cx="82.2" cy="145.1" r="3" fill="#8a5a5a"/><circle cx="84.9" cy="145.1" r="3" fill="#8a5a5a"/><circle cx="87.7" cy="145.1" r="3" fill="#8a5a5a"/><circle cx="90.4" cy="145.1" r="3" fill="#8a5a5a"/><circle cx="93.1" cy="145.1" r="3" fill="#8a5a5a"/><circle cx="95.8" cy="145.1" r="3" fill="#8a5a5a"/><circle cx="98.5" cy="145.1" r="3" fill="#8a5a5a"/><circle cx="101.2" cy="145.1" r="3" fill="#8a5a5a"/><circle cx="104.0" cy="145.1" r="3" fill="#8a5a5a"/><circle cx="106.7" cy="145.1" r="3" fill="#8a5a5a"/><circle cx="109.4" cy="145.1" r="3" fill="#8a5a5a"/><circle cx="112.1" cy="145.1" r="3" fill="#8a5a5a"/><circle cx="114.8" cy="145.1" r="3" fill="#8a5a5a"/><circle cx="117.6" cy="145.1" r="3" fill="#8a5a5a"/><circle cx="120.3" cy="145.1" r="3" fill="#8a5a5a"/><circle cx="123.0" cy="145.1" r="3" fill="#8a5a5a"/><circle cx="125.7" cy="145.1" r="3" fill="#8a5a5a"/><circle cx="128.4" cy="145.1" r="3" fill="#8a5a5a"/><circle cx="131.2" cy="145.1" r="3" fill="#8a5a5a"/><circle cx="133.9" cy="145.1" r="3" fill="#8a5a5a"/><circle cx="136.6" cy="145.1" r="3" fill="#8a5a5a"/><circle cx="139.3" cy="145.1" r="3" fill="#8a5a5a"/><circle cx="142.0" cy="145.1" r="3" fill="#8a5a5a"/><circle cx="144.7" cy="145.1" r="3" fill="#8a5a5a"/><circle cx="147.5" cy="145.1" r="3" fill="#8a5a5a"/><circle cx="150.2" cy="145.1" r="3" fill="#8a5a5a"/><circle cx="152.9" cy="145.1" r="3" fill="#8a5a5a"/><circle cx="155.6" cy="145.1" r="3" fill="#8a5a5a"/><circle cx="158.3" cy="145.1" r="3" fill="#8a5a5a"/><circle cx="161.1" cy="145.1" r="3" fill="#8a5a5a"/><circle cx="163.8" cy="145.1" r="3" fill="#8a5a5a"/><circle cx="166.5" cy="145.1" r="3" fill="#8a5a5a"/><circle cx="169.2" cy="145.1" r="3" fill="#8a5a5a"/><circle cx="171.9" cy="155.7" r="3" fill="#8a5a5a"/><circle cx="174.6" cy="155.7" r="3" fill="#8a5a5a"/><circle cx="177.4" cy="155.7" r="3" fill="#8a5a5a"/><circle cx="180.1" cy="155.7" r="3" fill="#8a5a5a"/><circle cx="182.8" cy="155.7" r="3" fill="#8a5a5a"/><circle cx="185.5" cy="155.7" r="3" fill="#8a5a5a"/><circle cx="188.2" cy="155.7" r="3" fill="#8a5a5a"/><circle cx="191.0" cy="155.7" r="3" fill="#8a5a5a"/><circle cx="193.7" cy="155.7" r="3" fill="#8a5a5a"/><circle cx="196.4" cy="155.7" r="3" fill="#8a5a5a"/><circle cx="199.1" cy="155.7" r="3" fill="#8a5a5a"/><circle cx="201.8" cy="155.7" r="3" fill="#8a5a5a"/><circle cx="204.6" cy="155.7" r="3" fill="#8a5a5a"/><circle cx="207.3" cy="155.7" r="3" fill="#8a5a5a"/><circle cx="210.0" cy="155.7" r="3" fill="#8a5a5a"/><circle cx="212.7" cy="155.7" r="3" fill="#8a5a5a"/><circle cx="215.4" cy="155.7" r="3" fill="#8a5a5a"/><circle cx="218.1" cy="155.7" r="3" fill="#8a5a5a"/><circle cx="220.9" cy="155.7" r="3" fill="#8a5a5a"/><circle cx="223.6" cy="155.7" r="3" fill="#8a5a5a"/><circle cx="226.3" cy="155.7" r="3" fill="#8a5a5a"/><circle cx="229.0" cy="155.7" r="3" fill="#8a5a5a"/><circle cx="231.7" cy="155.7" r="3" fill="#8a5a5a"/><circle cx="234.5" cy="155.7" r="3" fill="#8a5a5a"/><circle cx="237.2" cy="155.7" r="3" fill="#8a5a5a"/><circle cx="239.9" cy="155.7" r="3" fill="#8a5a5a"/><circle cx="242.6" cy="155.7" r="3" fill="#8a5a5a"/><circle cx="245.3" cy="155.7" r="3" fill="#8a5a5a"/><circle cx="248.1" cy="155.7" r="3" fill="#8a5a5a"/><circle cx="250.8" cy="155.7" r="3" fill="#8a5a5a"/><circle cx="253.5" cy="155.7" r="3" fill="#8a5a5a"/><circle cx="256.2" cy="155.7" r="3" fill="#8a5a5a"/><circle cx="258.9" cy="155.7" r="3" fill="#8a5a5a"/><circle cx="261.6" cy="155.7" r="3" fill="#8a5a5a"/><circle cx="264.4" cy="167.6" r="3" fill="#8a5a5a"/><circle cx="267.1" cy="167.6" r="3" fill="#8a5a5a"/><circle cx="269.8" cy="170.3" r="3" fill="#8a5a5a"/><circle cx="272.5" cy="170.3" r="3" fill="#8a5a5a"/><circle cx="275.2" cy="170.5" r="3" fill="#8a5a5a"/><circle cx="278.0" cy="170.7" r="3" fill="#8a5a5a"/><circle cx="280.7" cy="170.7" r="3" fill="#8a5a5a"/><circle cx="283.4" cy="170.9" r="3" fill="#8a5a5a"/><circle cx="286.1" cy="172.7" r="3" fill="#8a5a5a"/><circle cx="288.8" cy="180.6" r="3" fill="#8a5a5a"/><circle cx="291.5" cy="181.8" r="3" fill="#8a5a5a"/><circle cx="294.3" cy="189.1" r="3" fill="#8a5a5a"/><circle cx="297.0" cy="190.5" r="3" fill="#8a5a5a"/><circle cx="299.7" cy="195.2" r="3" fill="#8a5a5a"/><circle cx="302.4" cy="198.0" r="3" fill="#8a5a5a"/><circle cx="305.1" cy="198.0" r="3" fill="#8a5a5a"/><circle cx="307.9" cy="198.0" r="3" fill="#8a5a5a"/><circle cx="310.6" cy="198.0" r="3" fill="#8a5a5a"/><circle cx="313.3" cy="198.0" r="3" fill="#8a5a5a"/><circle cx="316.0" cy="198.0" r="3" fill="#8a5a5a"/><circle cx="318.7" cy="198.0" r="3" fill="#8a5a5a"/><circle cx="321.5" cy="198.0" r="3" fill="#8a5a5a"/><circle cx="324.2" cy="198.0" r="3" fill="#8a5a5a"/><circle cx="326.9" cy="198.0" r="3" fill="#8a5a5a"/><circle cx="329.6" cy="198.0" r="3" fill="#8a5a5a"/><circle cx="332.3" cy="198.0" r="3" fill="#8a5a5a"/><circle cx="335.0" cy="198.0" r="3" fill="#8a5a5a"/><circle cx="337.8" cy="198.0" r="3" fill="#8a5a5a"/><circle cx="340.5" cy="198.0" r="3" fill="#8a5a5a"/><circle cx="343.2" cy="198.0" r="3" fill="#8a5a5a"/><circle cx="345.9" cy="198.0" r="3" fill="#8a5a5a"/><circle cx="348.6" cy="198.0" r="3" fill="#8a5a5a"/><circle cx="351.4" cy="198.0" r="3" fill="#8a5a5a"/><circle cx="354.1" cy="198.0" r="3" fill="#8a5a5a"/><circle cx="356.8" cy="198.0" r="3" fill="#8a5a5a"/><circle cx="359.5" cy="198.0" r="3" fill="#8a5a5a"/><circle cx="362.2" cy="198.0" r="3" fill="#8a5a5a"/><circle cx="365.0" cy="198.0" r="3" fill="#8a5a5a"/><circle cx="367.7" cy="198.0" r="3" fill="#8a5a5a"/><circle cx="370.4" cy="198.0" r="3" fill="#8a5a5a"/><circle cx="373.1" cy="198.0" r="3" fill="#8a5a5a"/><circle cx="375.8" cy="198.0" r="3" fill="#8a5a5a"/><circle cx="378.5" cy="198.0" r="3" fill="#8a5a5a"/><circle cx="381.3" cy="198.0" r="3" fill="#8a5a5a"/><circle cx="384.0" cy="198.0" r="3" fill="#8a5a5a"/><circle cx="386.7" cy="198.0" r="3" fill="#8a5a5a"/><circle cx="389.4" cy="198.0" r="3" fill="#8a5a5a"/><circle cx="392.1" cy="198.0" r="3" fill="#8a5a5a"/><circle cx="394.9" cy="198.0" r="3" fill="#8a5a5a"/><circle cx="397.6" cy="198.0" r="3" fill="#8a5a5a"/><circle cx="400.3" cy="198.0" r="3" fill="#8a5a5a"/><circle cx="403.0" cy="198.0" r="3" fill="#8a5a5a"/><circle cx="405.7" cy="198.0" r="3" fill="#8a5a5a"/><circle cx="408.5" cy="198.0" r="3" fill="#8a5a5a"/><circle cx="411.2" cy="198.0" r="3" fill="#8a5a5a"/><circle cx="413.9" cy="198.0" r="3" fill="#8a5a5a"/><circle cx="416.6" cy="198.0" r="3" fill="#8a5a5a"/><circle cx="419.3" cy="198.0" r="3" fill="#8a5a5a"/><circle cx="422.0" cy="198.0" r="3" fill="#8a5a5a"/><circle cx="424.8" cy="198.0" r="3" fill="#8a5a5a"/><circle cx="427.5" cy="198.0" r="3" fill="#8a5a5a"/><circle cx="430.2" cy="198.0" r="3" fill="#8a5a5a"/><circle cx="432.9" cy="198.0" r="3" fill="#8a5a5a"/><circle cx="435.6" cy="198.0" r="3" fill="#8a5a5a"/><circle cx="438.4" cy="198.0" r="3" fill="#8a5a5a"/><circle cx="441.1" cy="198.0" r="3" fill="#8a5a5a"/><circle cx="443.8" cy="198.0" r="3" fill="#8a5a5a"/><circle cx="446.5" cy="198.0" r="3" fill="#8a5a5a"/><circle cx="449.2" cy="198.0" r="3" fill="#8a5a5a"/><circle cx="451.9" cy="198.0" r="3" fill="#8a5a5a"/><circle cx="454.7" cy="198.0" r="3" fill="#8a5a5a"/><circle cx="457.4" cy="198.0" r="3" fill="#8a5a5a"/><circle cx="460.1" cy="198.0" r="3" fill="#8a5a5a"/><circle cx="462.8" cy="198.0" r="3" fill="#8a5a5a"/><circle cx="465.5" cy="198.0" r="3" fill="#8a5a5a"/><circle cx="468.3" cy="198.0" r="3" fill="#8a5a5a"/><circle cx="471.0" cy="198.0" r="3" fill="#8a5a5a"/><circle cx="473.7" cy="198.0" r="3" fill="#8a5a5a"/><circle cx="476.4" cy="198.0" r="3" fill="#8a5a5a"/><circle cx="479.1" cy="198.0" r="3" fill="#8a5a5a"/><circle cx="481.9" cy="198.0" r="3" fill="#8a5a5a"/><circle cx="484.6" cy="198.0" r="3" fill="#8a5a5a"/><circle cx="487.3" cy="198.0" r="3" fill="#8a5a5a"/><circle cx="490.0" cy="198.0" r="3" fill="#8a5a5a"/><circle cx="492.7" cy="198.0" r="3" fill="#8a5a5a"/><circle cx="495.4" cy="198.0" r="3" fill="#8a5a5a"/><circle cx="498.2" cy="198.0" r="3" fill="#8a5a5a"/><circle cx="500.9" cy="198.0" r="3" fill="#8a5a5a"/><circle cx="503.6" cy="198.0" r="3" fill="#8a5a5a"/><circle cx="506.3" cy="198.0" r="3" fill="#8a5a5a"/><circle cx="509.0" cy="198.0" r="3" fill="#8a5a5a"/><circle cx="511.8" cy="198.0" r="3" fill="#8a5a5a"/><circle cx="514.5" cy="198.0" r="3" fill="#8a5a5a"/><circle cx="517.2" cy="198.0" r="3" fill="#8a5a5a"/><circle cx="519.9" cy="198.0" r="3" fill="#8a5a5a"/><circle cx="522.6" cy="198.0" r="3" fill="#8a5a5a"/><circle cx="525.4" cy="198.0" r="3" fill="#8a5a5a"/><circle cx="528.1" cy="198.0" r="3" fill="#8a5a5a"/><circle cx="530.8" cy="198.0" r="3" fill="#8a5a5a"/><circle cx="533.5" cy="198.0" r="3" fill="#8a5a5a"/><circle cx="536.2" cy="198.0" r="3" fill="#8a5a5a"/><circle cx="538.9" cy="198.0" r="3" fill="#8a5a5a"/><circle cx="541.7" cy="198.0" r="3" fill="#8a5a5a"/><circle cx="544.4" cy="198.0" r="3" fill="#8a5a5a"/><circle cx="547.1" cy="198.0" r="3" fill="#8a5a5a"/><circle cx="549.8" cy="198.0" r="3" fill="#8a5a5a"/><circle cx="552.5" cy="198.0" r="3" fill="#8a5a5a"/><circle cx="555.3" cy="198.0" r="3" fill="#8a5a5a"/><circle cx="558.0" cy="198.0" r="3" fill="#8a5a5a"/><circle cx="560.7" cy="198.0" r="3" fill="#8a5a5a"/><circle cx="563.4" cy="198.0" r="3" fill="#8a5a5a"/><circle cx="566.1" cy="198.0" r="3" fill="#8a5a5a"/><circle cx="568.8" cy="198.0" r="3" fill="#8a5a5a"/><circle cx="571.6" cy="198.0" r="3" fill="#8a5a5a"/><circle cx="574.3" cy="198.0" r="3" fill="#8a5a5a"/><circle cx="577.0" cy="198.0" r="3" fill="#8a5a5a"/><circle cx="579.7" cy="198.0" r="3" fill="#8a5a5a"/><circle cx="582.4" cy="198.0" r="3" fill="#8a5a5a"/><circle cx="585.2" cy="198.0" r="3" fill="#8a5a5a"/><circle cx="587.9" cy="198.0" r="3" fill="#8a5a5a"/><circle cx="590.6" cy="198.0" r="3" fill="#8a5a5a"/><circle cx="593.3" cy="198.0" r="3" fill="#8a5a5a"/><circle cx="596.0" cy="198.0" r="3" fill="#8a5a5a"/><circle cx="598.8" cy="198.0" r="3" fill="#8a5a5a"/><circle cx="601.5" cy="198.0" r="3" fill="#8a5a5a"/><circle cx="604.2" cy="198.0" r="3" fill="#8a5a5a"/><circle cx="606.9" cy="198.0" r="3" fill="#8a5a5a"/><circle cx="609.6" cy="198.0" r="3" fill="#8a5a5a"/><circle cx="612.3" cy="198.0" r="3" fill="#8a5a5a"/><circle cx="615.1" cy="198.0" r="3" fill="#8a5a5a"/><circle cx="617.8" cy="198.0" r="3" fill="#8a5a5a"/><circle cx="620.5" cy="198.0" r="3" fill="#8a5a5a"/><circle cx="623.2" cy="198.0" r="3" fill="#8a5a5a"/><circle cx="625.9" cy="198.0" r="3" fill="#8a5a5a"/><circle cx="628.7" cy="198.0" r="3" fill="#8a5a5a"/><circle cx="631.4" cy="198.0" r="3" fill="#8a5a5a"/><circle cx="634.1" cy="198.0" r="3" fill="#8a5a5a"/><circle cx="636.8" cy="198.0" r="3" fill="#8a5a5a"/><circle cx="639.5" cy="198.0" r="3" fill="#8a5a5a"/><circle cx="642.3" cy="198.0" r="3" fill="#8a5a5a"/><circle cx="645.0" cy="198.0" r="3" fill="#8a5a5a"/><circle cx="647.7" cy="198.0" r="3" fill="#8a5a5a"/><circle cx="650.4" cy="198.0" r="3" fill="#8a5a5a"/><circle cx="653.1" cy="198.0" r="3" fill="#8a5a5a"/><circle cx="655.8" cy="198.0" r="3" fill="#8a5a5a"/><circle cx="658.6" cy="198.0" r="3" fill="#8a5a5a"/><circle cx="661.3" cy="198.0" r="3" fill="#8a5a5a"/><circle cx="664.0" cy="198.0" r="3" fill="#8a5a5a"/>
<polyline fill="none" stroke="#3fb950" stroke-width="2.5" stroke-linejoin="round" points="36.0,198.0 38.7,198.0 41.4,198.0 44.2,198.0 46.9,198.0 49.6,198.0 52.3,198.0 55.0,198.0 57.7,198.0 60.5,198.0 63.2,198.0 65.9,198.0 68.6,198.0 71.3,198.0 74.1,198.0 76.8,198.0 79.5,198.0 82.2,198.0 84.9,198.0 87.7,198.0 90.4,198.0 93.1,198.0 95.8,198.0 98.5,198.0 101.2,198.0 104.0,198.0 106.7,198.0 109.4,198.0 112.1,198.0 114.8,198.0 117.6,198.0 120.3,198.0 123.0,198.0 125.7,198.0 128.4,198.0 131.2,198.0 133.9,198.0 136.6,198.0 139.3,198.0 142.0,198.0 144.7,198.0 147.5,198.0 150.2,198.0 152.9,191.7 155.6,191.7 158.3,191.7 161.1,191.7 163.8,191.7 166.5,191.7 169.2,191.7 171.9,192.9 174.6,192.9 177.4,190.7 180.1,190.7 182.8,190.7 185.5,190.7 188.2,190.7 191.0,190.5 193.7,190.5 196.4,190.5 199.1,190.3 201.8,190.3 204.6,190.3 207.3,190.3 210.0,190.3 212.7,190.3 215.4,190.3 218.1,190.3 220.9,190.3 223.6,190.3 226.3,190.3 229.0,190.3 231.7,190.3 234.5,190.3 237.2,190.3 239.9,190.3 242.6,190.3 245.3,190.3 248.1,190.3 250.8,190.3 253.5,190.3 256.2,189.3 258.9,189.3 261.6,189.3 264.4,190.7 267.1,190.7 269.8,190.7 272.5,190.7 275.2,190.7 278.0,190.7 280.7,190.7 283.4,190.7 286.1,190.7 288.8,190.9 291.5,190.9 294.3,190.9 297.0,194.2 299.7,196.8 302.4,198.0 305.1,198.0 307.9,198.0 310.6,198.0 313.3,198.0 316.0,198.0 318.7,198.0 321.5,198.0 324.2,198.0 326.9,198.0 329.6,198.0 332.3,198.0 335.0,198.0 337.8,198.0 340.5,198.0 343.2,198.0 345.9,198.0 348.6,198.0 351.4,198.0 354.1,198.0 356.8,198.0 359.5,198.0 362.2,198.0 365.0,198.0 367.7,198.0 370.4,198.0 373.1,198.0 375.8,198.0 378.5,198.0 381.3,198.0 384.0,198.0 386.7,198.0 389.4,198.0 392.1,198.0 394.9,198.0 397.6,198.0 400.3,198.0 403.0,198.0 405.7,198.0 408.5,198.0 411.2,198.0 413.9,198.0 416.6,198.0 419.3,198.0 422.0,198.0 424.8,198.0 427.5,198.0 430.2,198.0 432.9,198.0 435.6,198.0 438.4,198.0 441.1,198.0 443.8,198.0 446.5,198.0 449.2,198.0 451.9,198.0 454.7,198.0 457.4,198.0 460.1,198.0 462.8,198.0 465.5,198.0 468.3,198.0 471.0,198.0 473.7,198.0 476.4,198.0 479.1,198.0 481.9,198.0 484.6,198.0 487.3,198.0 490.0,198.0 492.7,198.0 495.4,198.0 498.2,198.0 500.9,198.0 503.6,198.0 506.3,198.0 509.0,198.0 511.8,198.0 514.5,198.0 517.2,198.0 519.9,198.0 522.6,198.0 525.4,198.0 528.1,198.0 530.8,198.0 533.5,198.0 536.2,198.0 538.9,198.0 541.7,198.0 544.4,198.0 547.1,198.0 549.8,198.0 552.5,198.0 555.3,198.0 558.0,198.0 560.7,198.0 563.4,198.0 566.1,198.0 568.8,198.0 571.6,198.0 574.3,198.0 577.0,198.0 579.7,198.0 582.4,198.0 585.2,198.0 587.9,198.0 590.6,198.0 593.3,198.0 596.0,198.0 598.8,198.0 601.5,198.0 604.2,198.0 606.9,198.0 609.6,198.0 612.3,198.0 615.1,198.0 617.8,198.0 620.5,198.0 623.2,198.0 625.9,198.0 628.7,198.0 631.4,198.0 634.1,198.0 636.8,198.0 639.5,198.0 642.3,198.0 645.0,198.0 647.7,198.0 650.4,198.0 653.1,198.0 655.8,198.0 658.6,198.0 661.3,198.0 664.0,198.0"/><circle cx="36.0" cy="198.0" r="3" fill="#3fb950"/><circle cx="38.7" cy="198.0" r="3" fill="#3fb950"/><circle cx="41.4" cy="198.0" r="3" fill="#3fb950"/><circle cx="44.2" cy="198.0" r="3" fill="#3fb950"/><circle cx="46.9" cy="198.0" r="3" fill="#3fb950"/><circle cx="49.6" cy="198.0" r="3" fill="#3fb950"/><circle cx="52.3" cy="198.0" r="3" fill="#3fb950"/><circle cx="55.0" cy="198.0" r="3" fill="#3fb950"/><circle cx="57.7" cy="198.0" r="3" fill="#3fb950"/><circle cx="60.5" cy="198.0" r="3" fill="#3fb950"/><circle cx="63.2" cy="198.0" r="3" fill="#3fb950"/><circle cx="65.9" cy="198.0" r="3" fill="#3fb950"/><circle cx="68.6" cy="198.0" r="3" fill="#3fb950"/><circle cx="71.3" cy="198.0" r="3" fill="#3fb950"/><circle cx="74.1" cy="198.0" r="3" fill="#3fb950"/><circle cx="76.8" cy="198.0" r="3" fill="#3fb950"/><circle cx="79.5" cy="198.0" r="3" fill="#3fb950"/><circle cx="82.2" cy="198.0" r="3" fill="#3fb950"/><circle cx="84.9" cy="198.0" r="3" fill="#3fb950"/><circle cx="87.7" cy="198.0" r="3" fill="#3fb950"/><circle cx="90.4" cy="198.0" r="3" fill="#3fb950"/><circle cx="93.1" cy="198.0" r="3" fill="#3fb950"/><circle cx="95.8" cy="198.0" r="3" fill="#3fb950"/><circle cx="98.5" cy="198.0" r="3" fill="#3fb950"/><circle cx="101.2" cy="198.0" r="3" fill="#3fb950"/><circle cx="104.0" cy="198.0" r="3" fill="#3fb950"/><circle cx="106.7" cy="198.0" r="3" fill="#3fb950"/><circle cx="109.4" cy="198.0" r="3" fill="#3fb950"/><circle cx="112.1" cy="198.0" r="3" fill="#3fb950"/><circle cx="114.8" cy="198.0" r="3" fill="#3fb950"/><circle cx="117.6" cy="198.0" r="3" fill="#3fb950"/><circle cx="120.3" cy="198.0" r="3" fill="#3fb950"/><circle cx="123.0" cy="198.0" r="3" fill="#3fb950"/><circle cx="125.7" cy="198.0" r="3" fill="#3fb950"/><circle cx="128.4" cy="198.0" r="3" fill="#3fb950"/><circle cx="131.2" cy="198.0" r="3" fill="#3fb950"/><circle cx="133.9" cy="198.0" r="3" fill="#3fb950"/><circle cx="136.6" cy="198.0" r="3" fill="#3fb950"/><circle cx="139.3" cy="198.0" r="3" fill="#3fb950"/><circle cx="142.0" cy="198.0" r="3" fill="#3fb950"/><circle cx="144.7" cy="198.0" r="3" fill="#3fb950"/><circle cx="147.5" cy="198.0" r="3" fill="#3fb950"/><circle cx="150.2" cy="198.0" r="3" fill="#3fb950"/><circle cx="152.9" cy="191.7" r="3" fill="#3fb950"/><circle cx="155.6" cy="191.7" r="3" fill="#3fb950"/><circle cx="158.3" cy="191.7" r="3" fill="#3fb950"/><circle cx="161.1" cy="191.7" r="3" fill="#3fb950"/><circle cx="163.8" cy="191.7" r="3" fill="#3fb950"/><circle cx="166.5" cy="191.7" r="3" fill="#3fb950"/><circle cx="169.2" cy="191.7" r="3" fill="#3fb950"/><circle cx="171.9" cy="192.9" r="3" fill="#3fb950"/><circle cx="174.6" cy="192.9" r="3" fill="#3fb950"/><circle cx="177.4" cy="190.7" r="3" fill="#3fb950"/><circle cx="180.1" cy="190.7" r="3" fill="#3fb950"/><circle cx="182.8" cy="190.7" r="3" fill="#3fb950"/><circle cx="185.5" cy="190.7" r="3" fill="#3fb950"/><circle cx="188.2" cy="190.7" r="3" fill="#3fb950"/><circle cx="191.0" cy="190.5" r="3" fill="#3fb950"/><circle cx="193.7" cy="190.5" r="3" fill="#3fb950"/><circle cx="196.4" cy="190.5" r="3" fill="#3fb950"/><circle cx="199.1" cy="190.3" r="3" fill="#3fb950"/><circle cx="201.8" cy="190.3" r="3" fill="#3fb950"/><circle cx="204.6" cy="190.3" r="3" fill="#3fb950"/><circle cx="207.3" cy="190.3" r="3" fill="#3fb950"/><circle cx="210.0" cy="190.3" r="3" fill="#3fb950"/><circle cx="212.7" cy="190.3" r="3" fill="#3fb950"/><circle cx="215.4" cy="190.3" r="3" fill="#3fb950"/><circle cx="218.1" cy="190.3" r="3" fill="#3fb950"/><circle cx="220.9" cy="190.3" r="3" fill="#3fb950"/><circle cx="223.6" cy="190.3" r="3" fill="#3fb950"/><circle cx="226.3" cy="190.3" r="3" fill="#3fb950"/><circle cx="229.0" cy="190.3" r="3" fill="#3fb950"/><circle cx="231.7" cy="190.3" r="3" fill="#3fb950"/><circle cx="234.5" cy="190.3" r="3" fill="#3fb950"/><circle cx="237.2" cy="190.3" r="3" fill="#3fb950"/><circle cx="239.9" cy="190.3" r="3" fill="#3fb950"/><circle cx="242.6" cy="190.3" r="3" fill="#3fb950"/><circle cx="245.3" cy="190.3" r="3" fill="#3fb950"/><circle cx="248.1" cy="190.3" r="3" fill="#3fb950"/><circle cx="250.8" cy="190.3" r="3" fill="#3fb950"/><circle cx="253.5" cy="190.3" r="3" fill="#3fb950"/><circle cx="256.2" cy="189.3" r="3" fill="#3fb950"/><circle cx="258.9" cy="189.3" r="3" fill="#3fb950"/><circle cx="261.6" cy="189.3" r="3" fill="#3fb950"/><circle cx="264.4" cy="190.7" r="3" fill="#3fb950"/><circle cx="267.1" cy="190.7" r="3" fill="#3fb950"/><circle cx="269.8" cy="190.7" r="3" fill="#3fb950"/><circle cx="272.5" cy="190.7" r="3" fill="#3fb950"/><circle cx="275.2" cy="190.7" r="3" fill="#3fb950"/><circle cx="278.0" cy="190.7" r="3" fill="#3fb950"/><circle cx="280.7" cy="190.7" r="3" fill="#3fb950"/><circle cx="283.4" cy="190.7" r="3" fill="#3fb950"/><circle cx="286.1" cy="190.7" r="3" fill="#3fb950"/><circle cx="288.8" cy="190.9" r="3" fill="#3fb950"/><circle cx="291.5" cy="190.9" r="3" fill="#3fb950"/><circle cx="294.3" cy="190.9" r="3" fill="#3fb950"/><circle cx="297.0" cy="194.2" r="3" fill="#3fb950"/><circle cx="299.7" cy="196.8" r="3" fill="#3fb950"/><circle cx="302.4" cy="198.0" r="3" fill="#3fb950"/><circle cx="305.1" cy="198.0" r="3" fill="#3fb950"/><circle cx="307.9" cy="198.0" r="3" fill="#3fb950"/><circle cx="310.6" cy="198.0" r="3" fill="#3fb950"/><circle cx="313.3" cy="198.0" r="3" fill="#3fb950"/><circle cx="316.0" cy="198.0" r="3" fill="#3fb950"/><circle cx="318.7" cy="198.0" r="3" fill="#3fb950"/><circle cx="321.5" cy="198.0" r="3" fill="#3fb950"/><circle cx="324.2" cy="198.0" r="3" fill="#3fb950"/><circle cx="326.9" cy="198.0" r="3" fill="#3fb950"/><circle cx="329.6" cy="198.0" r="3" fill="#3fb950"/><circle cx="332.3" cy="198.0" r="3" fill="#3fb950"/><circle cx="335.0" cy="198.0" r="3" fill="#3fb950"/><circle cx="337.8" cy="198.0" r="3" fill="#3fb950"/><circle cx="340.5" cy="198.0" r="3" fill="#3fb950"/><circle cx="343.2" cy="198.0" r="3" fill="#3fb950"/><circle cx="345.9" cy="198.0" r="3" fill="#3fb950"/><circle cx="348.6" cy="198.0" r="3" fill="#3fb950"/><circle cx="351.4" cy="198.0" r="3" fill="#3fb950"/><circle cx="354.1" cy="198.0" r="3" fill="#3fb950"/><circle cx="356.8" cy="198.0" r="3" fill="#3fb950"/><circle cx="359.5" cy="198.0" r="3" fill="#3fb950"/><circle cx="362.2" cy="198.0" r="3" fill="#3fb950"/><circle cx="365.0" cy="198.0" r="3" fill="#3fb950"/><circle cx="367.7" cy="198.0" r="3" fill="#3fb950"/><circle cx="370.4" cy="198.0" r="3" fill="#3fb950"/><circle cx="373.1" cy="198.0" r="3" fill="#3fb950"/><circle cx="375.8" cy="198.0" r="3" fill="#3fb950"/><circle cx="378.5" cy="198.0" r="3" fill="#3fb950"/><circle cx="381.3" cy="198.0" r="3" fill="#3fb950"/><circle cx="384.0" cy="198.0" r="3" fill="#3fb950"/><circle cx="386.7" cy="198.0" r="3" fill="#3fb950"/><circle cx="389.4" cy="198.0" r="3" fill="#3fb950"/><circle cx="392.1" cy="198.0" r="3" fill="#3fb950"/><circle cx="394.9" cy="198.0" r="3" fill="#3fb950"/><circle cx="397.6" cy="198.0" r="3" fill="#3fb950"/><circle cx="400.3" cy="198.0" r="3" fill="#3fb950"/><circle cx="403.0" cy="198.0" r="3" fill="#3fb950"/><circle cx="405.7" cy="198.0" r="3" fill="#3fb950"/><circle cx="408.5" cy="198.0" r="3" fill="#3fb950"/><circle cx="411.2" cy="198.0" r="3" fill="#3fb950"/><circle cx="413.9" cy="198.0" r="3" fill="#3fb950"/><circle cx="416.6" cy="198.0" r="3" fill="#3fb950"/><circle cx="419.3" cy="198.0" r="3" fill="#3fb950"/><circle cx="422.0" cy="198.0" r="3" fill="#3fb950"/><circle cx="424.8" cy="198.0" r="3" fill="#3fb950"/><circle cx="427.5" cy="198.0" r="3" fill="#3fb950"/><circle cx="430.2" cy="198.0" r="3" fill="#3fb950"/><circle cx="432.9" cy="198.0" r="3" fill="#3fb950"/><circle cx="435.6" cy="198.0" r="3" fill="#3fb950"/><circle cx="438.4" cy="198.0" r="3" fill="#3fb950"/><circle cx="441.1" cy="198.0" r="3" fill="#3fb950"/><circle cx="443.8" cy="198.0" r="3" fill="#3fb950"/><circle cx="446.5" cy="198.0" r="3" fill="#3fb950"/><circle cx="449.2" cy="198.0" r="3" fill="#3fb950"/><circle cx="451.9" cy="198.0" r="3" fill="#3fb950"/><circle cx="454.7" cy="198.0" r="3" fill="#3fb950"/><circle cx="457.4" cy="198.0" r="3" fill="#3fb950"/><circle cx="460.1" cy="198.0" r="3" fill="#3fb950"/><circle cx="462.8" cy="198.0" r="3" fill="#3fb950"/><circle cx="465.5" cy="198.0" r="3" fill="#3fb950"/><circle cx="468.3" cy="198.0" r="3" fill="#3fb950"/><circle cx="471.0" cy="198.0" r="3" fill="#3fb950"/><circle cx="473.7" cy="198.0" r="3" fill="#3fb950"/><circle cx="476.4" cy="198.0" r="3" fill="#3fb950"/><circle cx="479.1" cy="198.0" r="3" fill="#3fb950"/><circle cx="481.9" cy="198.0" r="3" fill="#3fb950"/><circle cx="484.6" cy="198.0" r="3" fill="#3fb950"/><circle cx="487.3" cy="198.0" r="3" fill="#3fb950"/><circle cx="490.0" cy="198.0" r="3" fill="#3fb950"/><circle cx="492.7" cy="198.0" r="3" fill="#3fb950"/><circle cx="495.4" cy="198.0" r="3" fill="#3fb950"/><circle cx="498.2" cy="198.0" r="3" fill="#3fb950"/><circle cx="500.9" cy="198.0" r="3" fill="#3fb950"/><circle cx="503.6" cy="198.0" r="3" fill="#3fb950"/><circle cx="506.3" cy="198.0" r="3" fill="#3fb950"/><circle cx="509.0" cy="198.0" r="3" fill="#3fb950"/><circle cx="511.8" cy="198.0" r="3" fill="#3fb950"/><circle cx="514.5" cy="198.0" r="3" fill="#3fb950"/><circle cx="517.2" cy="198.0" r="3" fill="#3fb950"/><circle cx="519.9" cy="198.0" r="3" fill="#3fb950"/><circle cx="522.6" cy="198.0" r="3" fill="#3fb950"/><circle cx="525.4" cy="198.0" r="3" fill="#3fb950"/><circle cx="528.1" cy="198.0" r="3" fill="#3fb950"/><circle cx="530.8" cy="198.0" r="3" fill="#3fb950"/><circle cx="533.5" cy="198.0" r="3" fill="#3fb950"/><circle cx="536.2" cy="198.0" r="3" fill="#3fb950"/><circle cx="538.9" cy="198.0" r="3" fill="#3fb950"/><circle cx="541.7" cy="198.0" r="3" fill="#3fb950"/><circle cx="544.4" cy="198.0" r="3" fill="#3fb950"/><circle cx="547.1" cy="198.0" r="3" fill="#3fb950"/><circle cx="549.8" cy="198.0" r="3" fill="#3fb950"/><circle cx="552.5" cy="198.0" r="3" fill="#3fb950"/><circle cx="555.3" cy="198.0" r="3" fill="#3fb950"/><circle cx="558.0" cy="198.0" r="3" fill="#3fb950"/><circle cx="560.7" cy="198.0" r="3" fill="#3fb950"/><circle cx="563.4" cy="198.0" r="3" fill="#3fb950"/><circle cx="566.1" cy="198.0" r="3" fill="#3fb950"/><circle cx="568.8" cy="198.0" r="3" fill="#3fb950"/><circle cx="571.6" cy="198.0" r="3" fill="#3fb950"/><circle cx="574.3" cy="198.0" r="3" fill="#3fb950"/><circle cx="577.0" cy="198.0" r="3" fill="#3fb950"/><circle cx="579.7" cy="198.0" r="3" fill="#3fb950"/><circle cx="582.4" cy="198.0" r="3" fill="#3fb950"/><circle cx="585.2" cy="198.0" r="3" fill="#3fb950"/><circle cx="587.9" cy="198.0" r="3" fill="#3fb950"/><circle cx="590.6" cy="198.0" r="3" fill="#3fb950"/><circle cx="593.3" cy="198.0" r="3" fill="#3fb950"/><circle cx="596.0" cy="198.0" r="3" fill="#3fb950"/><circle cx="598.8" cy="198.0" r="3" fill="#3fb950"/><circle cx="601.5" cy="198.0" r="3" fill="#3fb950"/><circle cx="604.2" cy="198.0" r="3" fill="#3fb950"/><circle cx="606.9" cy="198.0" r="3" fill="#3fb950"/><circle cx="609.6" cy="198.0" r="3" fill="#3fb950"/><circle cx="612.3" cy="198.0" r="3" fill="#3fb950"/><circle cx="615.1" cy="198.0" r="3" fill="#3fb950"/><circle cx="617.8" cy="198.0" r="3" fill="#3fb950"/><circle cx="620.5" cy="198.0" r="3" fill="#3fb950"/><circle cx="623.2" cy="198.0" r="3" fill="#3fb950"/><circle cx="625.9" cy="198.0" r="3" fill="#3fb950"/><circle cx="628.7" cy="198.0" r="3" fill="#3fb950"/><circle cx="631.4" cy="198.0" r="3" fill="#3fb950"/><circle cx="634.1" cy="198.0" r="3" fill="#3fb950"/><circle cx="636.8" cy="198.0" r="3" fill="#3fb950"/><circle cx="639.5" cy="198.0" r="3" fill="#3fb950"/><circle cx="642.3" cy="198.0" r="3" fill="#3fb950"/><circle cx="645.0" cy="198.0" r="3" fill="#3fb950"/><circle cx="647.7" cy="198.0" r="3" fill="#3fb950"/><circle cx="650.4" cy="198.0" r="3" fill="#3fb950"/><circle cx="653.1" cy="198.0" r="3" fill="#3fb950"/><circle cx="655.8" cy="198.0" r="3" fill="#3fb950"/><circle cx="658.6" cy="198.0" r="3" fill="#3fb950"/><circle cx="661.3" cy="198.0" r="3" fill="#3fb950"/><circle cx="664.0" cy="198.0" r="3" fill="#3fb950"/>
<polyline fill="none" stroke="#4aa3ff" stroke-width="2.5" stroke-linejoin="round" points="36.0,144.3 38.7,144.3 41.4,144.3 44.2,144.3 46.9,144.3 49.6,144.3 52.3,144.3 55.0,144.3 57.7,144.3 60.5,144.3 63.2,144.3 65.9,144.3 68.6,144.3 71.3,144.3 74.1,144.3 76.8,136.2 79.5,132.4 82.2,129.6 84.9,129.6 87.7,121.0 90.4,121.0 93.1,121.0 95.8,114.4 98.5,114.4 101.2,114.4 104.0,111.3 106.7,110.9 109.4,110.9 112.1,110.5 114.8,110.5 117.6,109.9 120.3,108.7 123.0,107.3 125.7,106.9 128.4,106.9 131.2,106.9 133.9,106.9 136.6,106.9 139.3,106.9 142.0,106.9 144.7,106.9 147.5,106.9 150.2,106.9 152.9,113.2 155.6,113.2 158.3,113.2 161.1,113.2 163.8,113.2 166.5,110.7 169.2,105.3 171.9,83.4 174.6,83.4 177.4,85.6 180.1,85.6 182.8,85.6 185.5,85.6 188.2,85.6 191.0,85.8 193.7,85.8 196.4,85.8 199.1,86.0 201.8,86.0 204.6,86.0 207.3,86.0 210.0,86.0 212.7,86.0 215.4,86.0 218.1,86.0 220.9,86.0 223.6,86.0 226.3,86.0 229.0,86.0 231.7,86.0 234.5,86.0 237.2,86.0 239.9,86.0 242.6,86.0 245.3,86.0 248.1,86.0 250.8,86.0 253.5,86.0 256.2,87.0 258.9,87.0 261.6,87.0 264.4,73.7 267.1,73.7 269.8,71.0 272.5,71.0 275.2,70.8 278.0,70.6 280.7,70.6 283.4,70.4 286.1,68.6 288.8,60.5 291.5,59.3 294.3,52.0 297.0,47.3 299.7,40.1 302.4,36.0 305.1,36.0 307.9,36.0 310.6,36.0 313.3,36.0 316.0,36.0 318.7,36.0 321.5,36.0 324.2,36.0 326.9,36.0 329.6,36.0 332.3,36.0 335.0,36.0 337.8,36.0 340.5,36.0 343.2,36.0 345.9,36.0 348.6,36.0 351.4,36.0 354.1,36.0 356.8,36.0 359.5,36.0 362.2,36.0 365.0,36.0 367.7,36.0 370.4,36.0 373.1,36.0 375.8,36.0 378.5,36.0 381.3,36.0 384.0,36.0 386.7,36.0 389.4,36.0 392.1,36.0 394.9,36.0 397.6,36.0 400.3,36.0 403.0,36.0 405.7,36.0 408.5,36.0 411.2,36.0 413.9,36.0 416.6,36.0 419.3,36.0 422.0,36.0 424.8,36.0 427.5,36.0 430.2,36.0 432.9,36.0 435.6,36.0 438.4,36.0 441.1,36.0 443.8,36.0 446.5,36.0 449.2,36.0 451.9,36.0 454.7,36.0 457.4,36.0 460.1,36.0 462.8,36.0 465.5,36.0 468.3,36.0 471.0,36.0 473.7,36.0 476.4,36.0 479.1,36.0 481.9,36.0 484.6,36.0 487.3,36.0 490.0,36.0 492.7,36.0 495.4,36.0 498.2,36.0 500.9,36.0 503.6,36.0 506.3,36.0 509.0,36.0 511.8,36.0 514.5,36.0 517.2,36.0 519.9,36.0 522.6,36.0 525.4,36.0 528.1,36.0 530.8,36.0 533.5,36.0 536.2,36.0 538.9,36.0 541.7,36.0 544.4,36.0 547.1,36.0 549.8,36.0 552.5,36.0 555.3,36.0 558.0,36.0 560.7,36.0 563.4,36.0 566.1,36.0 568.8,36.0 571.6,36.0 574.3,36.0 577.0,36.0 579.7,36.0 582.4,36.0 585.2,36.0 587.9,36.0 590.6,36.0 593.3,36.0 596.0,36.0 598.8,36.0 601.5,36.0 604.2,36.0 606.9,36.0 609.6,36.0 612.3,36.0 615.1,36.0 617.8,36.0 620.5,36.0 623.2,36.0 625.9,36.0 628.7,36.0 631.4,36.0 634.1,36.0 636.8,36.0 639.5,36.0 642.3,36.0 645.0,36.0 647.7,36.0 650.4,36.0 653.1,36.0 655.8,36.0 658.6,36.0 661.3,36.0 664.0,36.0"/><circle cx="36.0" cy="144.3" r="3" fill="#4aa3ff"/><circle cx="38.7" cy="144.3" r="3" fill="#4aa3ff"/><circle cx="41.4" cy="144.3" r="3" fill="#4aa3ff"/><circle cx="44.2" cy="144.3" r="3" fill="#4aa3ff"/><circle cx="46.9" cy="144.3" r="3" fill="#4aa3ff"/><circle cx="49.6" cy="144.3" r="3" fill="#4aa3ff"/><circle cx="52.3" cy="144.3" r="3" fill="#4aa3ff"/><circle cx="55.0" cy="144.3" r="3" fill="#4aa3ff"/><circle cx="57.7" cy="144.3" r="3" fill="#4aa3ff"/><circle cx="60.5" cy="144.3" r="3" fill="#4aa3ff"/><circle cx="63.2" cy="144.3" r="3" fill="#4aa3ff"/><circle cx="65.9" cy="144.3" r="3" fill="#4aa3ff"/><circle cx="68.6" cy="144.3" r="3" fill="#4aa3ff"/><circle cx="71.3" cy="144.3" r="3" fill="#4aa3ff"/><circle cx="74.1" cy="144.3" r="3" fill="#4aa3ff"/><circle cx="76.8" cy="136.2" r="3" fill="#4aa3ff"/><circle cx="79.5" cy="132.4" r="3" fill="#4aa3ff"/><circle cx="82.2" cy="129.6" r="3" fill="#4aa3ff"/><circle cx="84.9" cy="129.6" r="3" fill="#4aa3ff"/><circle cx="87.7" cy="121.0" r="3" fill="#4aa3ff"/><circle cx="90.4" cy="121.0" r="3" fill="#4aa3ff"/><circle cx="93.1" cy="121.0" r="3" fill="#4aa3ff"/><circle cx="95.8" cy="114.4" r="3" fill="#4aa3ff"/><circle cx="98.5" cy="114.4" r="3" fill="#4aa3ff"/><circle cx="101.2" cy="114.4" r="3" fill="#4aa3ff"/><circle cx="104.0" cy="111.3" r="3" fill="#4aa3ff"/><circle cx="106.7" cy="110.9" r="3" fill="#4aa3ff"/><circle cx="109.4" cy="110.9" r="3" fill="#4aa3ff"/><circle cx="112.1" cy="110.5" r="3" fill="#4aa3ff"/><circle cx="114.8" cy="110.5" r="3" fill="#4aa3ff"/><circle cx="117.6" cy="109.9" r="3" fill="#4aa3ff"/><circle cx="120.3" cy="108.7" r="3" fill="#4aa3ff"/><circle cx="123.0" cy="107.3" r="3" fill="#4aa3ff"/><circle cx="125.7" cy="106.9" r="3" fill="#4aa3ff"/><circle cx="128.4" cy="106.9" r="3" fill="#4aa3ff"/><circle cx="131.2" cy="106.9" r="3" fill="#4aa3ff"/><circle cx="133.9" cy="106.9" r="3" fill="#4aa3ff"/><circle cx="136.6" cy="106.9" r="3" fill="#4aa3ff"/><circle cx="139.3" cy="106.9" r="3" fill="#4aa3ff"/><circle cx="142.0" cy="106.9" r="3" fill="#4aa3ff"/><circle cx="144.7" cy="106.9" r="3" fill="#4aa3ff"/><circle cx="147.5" cy="106.9" r="3" fill="#4aa3ff"/><circle cx="150.2" cy="106.9" r="3" fill="#4aa3ff"/><circle cx="152.9" cy="113.2" r="3" fill="#4aa3ff"/><circle cx="155.6" cy="113.2" r="3" fill="#4aa3ff"/><circle cx="158.3" cy="113.2" r="3" fill="#4aa3ff"/><circle cx="161.1" cy="113.2" r="3" fill="#4aa3ff"/><circle cx="163.8" cy="113.2" r="3" fill="#4aa3ff"/><circle cx="166.5" cy="110.7" r="3" fill="#4aa3ff"/><circle cx="169.2" cy="105.3" r="3" fill="#4aa3ff"/><circle cx="171.9" cy="83.4" r="3" fill="#4aa3ff"/><circle cx="174.6" cy="83.4" r="3" fill="#4aa3ff"/><circle cx="177.4" cy="85.6" r="3" fill="#4aa3ff"/><circle cx="180.1" cy="85.6" r="3" fill="#4aa3ff"/><circle cx="182.8" cy="85.6" r="3" fill="#4aa3ff"/><circle cx="185.5" cy="85.6" r="3" fill="#4aa3ff"/><circle cx="188.2" cy="85.6" r="3" fill="#4aa3ff"/><circle cx="191.0" cy="85.8" r="3" fill="#4aa3ff"/><circle cx="193.7" cy="85.8" r="3" fill="#4aa3ff"/><circle cx="196.4" cy="85.8" r="3" fill="#4aa3ff"/><circle cx="199.1" cy="86.0" r="3" fill="#4aa3ff"/><circle cx="201.8" cy="86.0" r="3" fill="#4aa3ff"/><circle cx="204.6" cy="86.0" r="3" fill="#4aa3ff"/><circle cx="207.3" cy="86.0" r="3" fill="#4aa3ff"/><circle cx="210.0" cy="86.0" r="3" fill="#4aa3ff"/><circle cx="212.7" cy="86.0" r="3" fill="#4aa3ff"/><circle cx="215.4" cy="86.0" r="3" fill="#4aa3ff"/><circle cx="218.1" cy="86.0" r="3" fill="#4aa3ff"/><circle cx="220.9" cy="86.0" r="3" fill="#4aa3ff"/><circle cx="223.6" cy="86.0" r="3" fill="#4aa3ff"/><circle cx="226.3" cy="86.0" r="3" fill="#4aa3ff"/><circle cx="229.0" cy="86.0" r="3" fill="#4aa3ff"/><circle cx="231.7" cy="86.0" r="3" fill="#4aa3ff"/><circle cx="234.5" cy="86.0" r="3" fill="#4aa3ff"/><circle cx="237.2" cy="86.0" r="3" fill="#4aa3ff"/><circle cx="239.9" cy="86.0" r="3" fill="#4aa3ff"/><circle cx="242.6" cy="86.0" r="3" fill="#4aa3ff"/><circle cx="245.3" cy="86.0" r="3" fill="#4aa3ff"/><circle cx="248.1" cy="86.0" r="3" fill="#4aa3ff"/><circle cx="250.8" cy="86.0" r="3" fill="#4aa3ff"/><circle cx="253.5" cy="86.0" r="3" fill="#4aa3ff"/><circle cx="256.2" cy="87.0" r="3" fill="#4aa3ff"/><circle cx="258.9" cy="87.0" r="3" fill="#4aa3ff"/><circle cx="261.6" cy="87.0" r="3" fill="#4aa3ff"/><circle cx="264.4" cy="73.7" r="3" fill="#4aa3ff"/><circle cx="267.1" cy="73.7" r="3" fill="#4aa3ff"/><circle cx="269.8" cy="71.0" r="3" fill="#4aa3ff"/><circle cx="272.5" cy="71.0" r="3" fill="#4aa3ff"/><circle cx="275.2" cy="70.8" r="3" fill="#4aa3ff"/><circle cx="278.0" cy="70.6" r="3" fill="#4aa3ff"/><circle cx="280.7" cy="70.6" r="3" fill="#4aa3ff"/><circle cx="283.4" cy="70.4" r="3" fill="#4aa3ff"/><circle cx="286.1" cy="68.6" r="3" fill="#4aa3ff"/><circle cx="288.8" cy="60.5" r="3" fill="#4aa3ff"/><circle cx="291.5" cy="59.3" r="3" fill="#4aa3ff"/><circle cx="294.3" cy="52.0" r="3" fill="#4aa3ff"/><circle cx="297.0" cy="47.3" r="3" fill="#4aa3ff"/><circle cx="299.7" cy="40.1" r="3" fill="#4aa3ff"/><circle cx="302.4" cy="36.0" r="3" fill="#4aa3ff"/><circle cx="305.1" cy="36.0" r="3" fill="#4aa3ff"/><circle cx="307.9" cy="36.0" r="3" fill="#4aa3ff"/><circle cx="310.6" cy="36.0" r="3" fill="#4aa3ff"/><circle cx="313.3" cy="36.0" r="3" fill="#4aa3ff"/><circle cx="316.0" cy="36.0" r="3" fill="#4aa3ff"/><circle cx="318.7" cy="36.0" r="3" fill="#4aa3ff"/><circle cx="321.5" cy="36.0" r="3" fill="#4aa3ff"/><circle cx="324.2" cy="36.0" r="3" fill="#4aa3ff"/><circle cx="326.9" cy="36.0" r="3" fill="#4aa3ff"/><circle cx="329.6" cy="36.0" r="3" fill="#4aa3ff"/><circle cx="332.3" cy="36.0" r="3" fill="#4aa3ff"/><circle cx="335.0" cy="36.0" r="3" fill="#4aa3ff"/><circle cx="337.8" cy="36.0" r="3" fill="#4aa3ff"/><circle cx="340.5" cy="36.0" r="3" fill="#4aa3ff"/><circle cx="343.2" cy="36.0" r="3" fill="#4aa3ff"/><circle cx="345.9" cy="36.0" r="3" fill="#4aa3ff"/><circle cx="348.6" cy="36.0" r="3" fill="#4aa3ff"/><circle cx="351.4" cy="36.0" r="3" fill="#4aa3ff"/><circle cx="354.1" cy="36.0" r="3" fill="#4aa3ff"/><circle cx="356.8" cy="36.0" r="3" fill="#4aa3ff"/><circle cx="359.5" cy="36.0" r="3" fill="#4aa3ff"/><circle cx="362.2" cy="36.0" r="3" fill="#4aa3ff"/><circle cx="365.0" cy="36.0" r="3" fill="#4aa3ff"/><circle cx="367.7" cy="36.0" r="3" fill="#4aa3ff"/><circle cx="370.4" cy="36.0" r="3" fill="#4aa3ff"/><circle cx="373.1" cy="36.0" r="3" fill="#4aa3ff"/><circle cx="375.8" cy="36.0" r="3" fill="#4aa3ff"/><circle cx="378.5" cy="36.0" r="3" fill="#4aa3ff"/><circle cx="381.3" cy="36.0" r="3" fill="#4aa3ff"/><circle cx="384.0" cy="36.0" r="3" fill="#4aa3ff"/><circle cx="386.7" cy="36.0" r="3" fill="#4aa3ff"/><circle cx="389.4" cy="36.0" r="3" fill="#4aa3ff"/><circle cx="392.1" cy="36.0" r="3" fill="#4aa3ff"/><circle cx="394.9" cy="36.0" r="3" fill="#4aa3ff"/><circle cx="397.6" cy="36.0" r="3" fill="#4aa3ff"/><circle cx="400.3" cy="36.0" r="3" fill="#4aa3ff"/><circle cx="403.0" cy="36.0" r="3" fill="#4aa3ff"/><circle cx="405.7" cy="36.0" r="3" fill="#4aa3ff"/><circle cx="408.5" cy="36.0" r="3" fill="#4aa3ff"/><circle cx="411.2" cy="36.0" r="3" fill="#4aa3ff"/><circle cx="413.9" cy="36.0" r="3" fill="#4aa3ff"/><circle cx="416.6" cy="36.0" r="3" fill="#4aa3ff"/><circle cx="419.3" cy="36.0" r="3" fill="#4aa3ff"/><circle cx="422.0" cy="36.0" r="3" fill="#4aa3ff"/><circle cx="424.8" cy="36.0" r="3" fill="#4aa3ff"/><circle cx="427.5" cy="36.0" r="3" fill="#4aa3ff"/><circle cx="430.2" cy="36.0" r="3" fill="#4aa3ff"/><circle cx="432.9" cy="36.0" r="3" fill="#4aa3ff"/><circle cx="435.6" cy="36.0" r="3" fill="#4aa3ff"/><circle cx="438.4" cy="36.0" r="3" fill="#4aa3ff"/><circle cx="441.1" cy="36.0" r="3" fill="#4aa3ff"/><circle cx="443.8" cy="36.0" r="3" fill="#4aa3ff"/><circle cx="446.5" cy="36.0" r="3" fill="#4aa3ff"/><circle cx="449.2" cy="36.0" r="3" fill="#4aa3ff"/><circle cx="451.9" cy="36.0" r="3" fill="#4aa3ff"/><circle cx="454.7" cy="36.0" r="3" fill="#4aa3ff"/><circle cx="457.4" cy="36.0" r="3" fill="#4aa3ff"/><circle cx="460.1" cy="36.0" r="3" fill="#4aa3ff"/><circle cx="462.8" cy="36.0" r="3" fill="#4aa3ff"/><circle cx="465.5" cy="36.0" r="3" fill="#4aa3ff"/><circle cx="468.3" cy="36.0" r="3" fill="#4aa3ff"/><circle cx="471.0" cy="36.0" r="3" fill="#4aa3ff"/><circle cx="473.7" cy="36.0" r="3" fill="#4aa3ff"/><circle cx="476.4" cy="36.0" r="3" fill="#4aa3ff"/><circle cx="479.1" cy="36.0" r="3" fill="#4aa3ff"/><circle cx="481.9" cy="36.0" r="3" fill="#4aa3ff"/><circle cx="484.6" cy="36.0" r="3" fill="#4aa3ff"/><circle cx="487.3" cy="36.0" r="3" fill="#4aa3ff"/><circle cx="490.0" cy="36.0" r="3" fill="#4aa3ff"/><circle cx="492.7" cy="36.0" r="3" fill="#4aa3ff"/><circle cx="495.4" cy="36.0" r="3" fill="#4aa3ff"/><circle cx="498.2" cy="36.0" r="3" fill="#4aa3ff"/><circle cx="500.9" cy="36.0" r="3" fill="#4aa3ff"/><circle cx="503.6" cy="36.0" r="3" fill="#4aa3ff"/><circle cx="506.3" cy="36.0" r="3" fill="#4aa3ff"/><circle cx="509.0" cy="36.0" r="3" fill="#4aa3ff"/><circle cx="511.8" cy="36.0" r="3" fill="#4aa3ff"/><circle cx="514.5" cy="36.0" r="3" fill="#4aa3ff"/><circle cx="517.2" cy="36.0" r="3" fill="#4aa3ff"/><circle cx="519.9" cy="36.0" r="3" fill="#4aa3ff"/><circle cx="522.6" cy="36.0" r="3" fill="#4aa3ff"/><circle cx="525.4" cy="36.0" r="3" fill="#4aa3ff"/><circle cx="528.1" cy="36.0" r="3" fill="#4aa3ff"/><circle cx="530.8" cy="36.0" r="3" fill="#4aa3ff"/><circle cx="533.5" cy="36.0" r="3" fill="#4aa3ff"/><circle cx="536.2" cy="36.0" r="3" fill="#4aa3ff"/><circle cx="538.9" cy="36.0" r="3" fill="#4aa3ff"/><circle cx="541.7" cy="36.0" r="3" fill="#4aa3ff"/><circle cx="544.4" cy="36.0" r="3" fill="#4aa3ff"/><circle cx="547.1" cy="36.0" r="3" fill="#4aa3ff"/><circle cx="549.8" cy="36.0" r="3" fill="#4aa3ff"/><circle cx="552.5" cy="36.0" r="3" fill="#4aa3ff"/><circle cx="555.3" cy="36.0" r="3" fill="#4aa3ff"/><circle cx="558.0" cy="36.0" r="3" fill="#4aa3ff"/><circle cx="560.7" cy="36.0" r="3" fill="#4aa3ff"/><circle cx="563.4" cy="36.0" r="3" fill="#4aa3ff"/><circle cx="566.1" cy="36.0" r="3" fill="#4aa3ff"/><circle cx="568.8" cy="36.0" r="3" fill="#4aa3ff"/><circle cx="571.6" cy="36.0" r="3" fill="#4aa3ff"/><circle cx="574.3" cy="36.0" r="3" fill="#4aa3ff"/><circle cx="577.0" cy="36.0" r="3" fill="#4aa3ff"/><circle cx="579.7" cy="36.0" r="3" fill="#4aa3ff"/><circle cx="582.4" cy="36.0" r="3" fill="#4aa3ff"/><circle cx="585.2" cy="36.0" r="3" fill="#4aa3ff"/><circle cx="587.9" cy="36.0" r="3" fill="#4aa3ff"/><circle cx="590.6" cy="36.0" r="3" fill="#4aa3ff"/><circle cx="593.3" cy="36.0" r="3" fill="#4aa3ff"/><circle cx="596.0" cy="36.0" r="3" fill="#4aa3ff"/><circle cx="598.8" cy="36.0" r="3" fill="#4aa3ff"/><circle cx="601.5" cy="36.0" r="3" fill="#4aa3ff"/><circle cx="604.2" cy="36.0" r="3" fill="#4aa3ff"/><circle cx="606.9" cy="36.0" r="3" fill="#4aa3ff"/><circle cx="609.6" cy="36.0" r="3" fill="#4aa3ff"/><circle cx="612.3" cy="36.0" r="3" fill="#4aa3ff"/><circle cx="615.1" cy="36.0" r="3" fill="#4aa3ff"/><circle cx="617.8" cy="36.0" r="3" fill="#4aa3ff"/><circle cx="620.5" cy="36.0" r="3" fill="#4aa3ff"/><circle cx="623.2" cy="36.0" r="3" fill="#4aa3ff"/><circle cx="625.9" cy="36.0" r="3" fill="#4aa3ff"/><circle cx="628.7" cy="36.0" r="3" fill="#4aa3ff"/><circle cx="631.4" cy="36.0" r="3" fill="#4aa3ff"/><circle cx="634.1" cy="36.0" r="3" fill="#4aa3ff"/><circle cx="636.8" cy="36.0" r="3" fill="#4aa3ff"/><circle cx="639.5" cy="36.0" r="3" fill="#4aa3ff"/><circle cx="642.3" cy="36.0" r="3" fill="#4aa3ff"/><circle cx="645.0" cy="36.0" r="3" fill="#4aa3ff"/><circle cx="647.7" cy="36.0" r="3" fill="#4aa3ff"/><circle cx="650.4" cy="36.0" r="3" fill="#4aa3ff"/><circle cx="653.1" cy="36.0" r="3" fill="#4aa3ff"/><circle cx="655.8" cy="36.0" r="3" fill="#4aa3ff"/><circle cx="658.6" cy="36.0" r="3" fill="#4aa3ff"/><circle cx="661.3" cy="36.0" r="3" fill="#4aa3ff"/><circle cx="664.0" cy="36.0" r="3" fill="#4aa3ff"/>
<text x="36" y="225" fill="#6b7280" font-size="11">2026-06-26</text>
<text x="664" y="225" fill="#6b7280" font-size="11" text-anchor="end">2026-07-19</text>
<text x="36" y="212" font-family="system-ui,sans-serif" font-size="11">
<tspan fill="#4aa3ff">&#9679; open FPs</tspan>  <tspan fill="#3fb950">&#9679; closed (Anthropic acting)</tspan>  <tspan fill="#8a5a5a">&#9679; harness withdrawn</tspan></text>
<text x="664" y="22" text-anchor="end" font-family="system-ui,sans-serif" font-size="12">
<tspan fill="#4aa3ff">open 800</tspan>  <tspan fill="#3fb950">closed 0</tspan>  <tspan fill="#8a5a5a">harness 0</tspan></text>
</svg>