<svg xmlns="http://www.w3.org/2000/svg" width="700" height="234" viewBox="0 0 700 234" role="img">
<rect width="700" height="234" rx="12" fill="#16181d"/>
<text x="36" y="22" fill="#e8eaed" font-family="system-ui,sans-serif" font-size="14" font-weight="700">Is Anthropic acting? cyber/aup false positives over time</text>
<line x1="36" y1="198.0" x2="664" y2="198.0" stroke="#2a2e37" stroke-width="1"/><text x="30" y="202.0" fill="#6b7280" font-size="11" text-anchor="end">0</text><line x1="36" y1="117.0" x2="664" y2="117.0" stroke="#2a2e37" stroke-width="1"/><text x="30" y="121.0" fill="#6b7280" font-size="11" text-anchor="end">400</text><line x1="36" y1="36.0" x2="664" y2="36.0" stroke="#2a2e37" stroke-width="1"/><text x="30" y="40.0" fill="#6b7280" font-size="11" text-anchor="end">800</text>

<polyline fill="none" stroke="#8a5a5a" stroke-width="2.5" stroke-linejoin="round" points="36.0,145.1 40.1,145.1 44.2,145.1 48.2,145.1 52.3,145.1 56.4,145.1 60.5,145.1 64.5,145.1 68.6,145.1 72.7,145.1 76.8,145.1 80.9,145.1 84.9,145.1 89.0,145.1 93.1,145.1 97.2,145.1 101.2,145.1 105.3,145.1 109.4,145.1 113.5,145.1 117.6,145.1 121.6,145.1 125.7,145.1 129.8,145.1 133.9,145.1 137.9,145.1 142.0,145.1 146.1,145.1 150.2,145.1 154.3,145.1 158.3,145.1 162.4,145.1 166.5,145.1 170.6,145.1 174.6,145.1 178.7,145.1 182.8,145.1 186.9,145.1 191.0,145.1 195.0,145.1 199.1,145.1 203.2,145.1 207.3,145.1 211.4,145.1 215.4,145.1 219.5,145.1 223.6,145.1 227.7,145.1 231.7,145.1 235.8,145.1 239.9,155.7 244.0,155.7 248.1,155.7 252.1,155.7 256.2,155.7 260.3,155.7 264.4,155.7 268.4,155.7 272.5,155.7 276.6,155.7 280.7,155.7 284.8,155.7 288.8,155.7 292.9,155.7 297.0,155.7 301.1,155.7 305.1,155.7 309.2,155.7 313.3,155.7 317.4,155.7 321.5,155.7 325.5,155.7 329.6,155.7 333.7,155.7 337.8,155.7 341.8,155.7 345.9,155.7 350.0,155.7 354.1,155.7 358.2,155.7 362.2,155.7 366.3,155.7 370.4,155.7 374.5,155.7 378.5,167.6 382.6,167.6 386.7,170.3 390.8,170.3 394.9,170.5 398.9,170.7 403.0,170.7 407.1,170.9 411.2,172.7 415.2,180.6 419.3,181.8 423.4,189.1 427.5,190.5 431.6,195.2 435.6,198.0 439.7,198.0 443.8,198.0 447.9,198.0 451.9,198.0 456.0,198.0 460.1,198.0 464.2,198.0 468.3,198.0 472.3,198.0 476.4,198.0 480.5,198.0 484.6,198.0 488.6,198.0 492.7,198.0 496.8,198.0 500.9,198.0 505.0,198.0 509.0,198.0 513.1,198.0 517.2,198.0 521.3,198.0 525.4,198.0 529.4,198.0 533.5,198.0 537.6,198.0 541.7,198.0 545.7,198.0 549.8,198.0 553.9,198.0 558.0,198.0 562.1,198.0 566.1,198.0 570.2,198.0 574.3,198.0 578.4,198.0 582.4,198.0 586.5,198.0 590.6,198.0 594.7,198.0 598.8,198.0 602.8,198.0 606.9,198.0 611.0,198.0 615.1,198.0 619.1,198.0 623.2,198.0 627.3,198.0 631.4,198.0 635.5,198.0 639.5,198.0 643.6,198.0 647.7,198.0 651.8,198.0 655.8,198.0 659.9,198.0 664.0,198.0"/><circle cx="36.0" cy="145.1" r="3" fill="#8a5a5a"/><circle cx="40.1" cy="145.1" r="3" fill="#8a5a5a"/><circle cx="44.2" cy="145.1" r="3" fill="#8a5a5a"/><circle cx="48.2" cy="145.1" r="3" fill="#8a5a5a"/><circle cx="52.3" cy="145.1" r="3" fill="#8a5a5a"/><circle cx="56.4" cy="145.1" r="3" fill="#8a5a5a"/><circle cx="60.5" cy="145.1" r="3" fill="#8a5a5a"/><circle cx="64.5" cy="145.1" r="3" fill="#8a5a5a"/><circle cx="68.6" cy="145.1" r="3" fill="#8a5a5a"/><circle cx="72.7" cy="145.1" r="3" fill="#8a5a5a"/><circle cx="76.8" cy="145.1" r="3" fill="#8a5a5a"/><circle cx="80.9" cy="145.1" r="3" fill="#8a5a5a"/><circle cx="84.9" cy="145.1" r="3" fill="#8a5a5a"/><circle cx="89.0" cy="145.1" r="3" fill="#8a5a5a"/><circle cx="93.1" cy="145.1" r="3" fill="#8a5a5a"/><circle cx="97.2" cy="145.1" r="3" fill="#8a5a5a"/><circle cx="101.2" cy="145.1" r="3" fill="#8a5a5a"/><circle cx="105.3" cy="145.1" r="3" fill="#8a5a5a"/><circle cx="109.4" cy="145.1" r="3" fill="#8a5a5a"/><circle cx="113.5" cy="145.1" r="3" fill="#8a5a5a"/><circle cx="117.6" cy="145.1" r="3" fill="#8a5a5a"/><circle cx="121.6" cy="145.1" r="3" fill="#8a5a5a"/><circle cx="125.7" cy="145.1" r="3" fill="#8a5a5a"/><circle cx="129.8" cy="145.1" r="3" fill="#8a5a5a"/><circle cx="133.9" cy="145.1" r="3" fill="#8a5a5a"/><circle cx="137.9" cy="145.1" r="3" fill="#8a5a5a"/><circle cx="142.0" cy="145.1" r="3" fill="#8a5a5a"/><circle cx="146.1" cy="145.1" r="3" fill="#8a5a5a"/><circle cx="150.2" cy="145.1" r="3" fill="#8a5a5a"/><circle cx="154.3" cy="145.1" r="3" fill="#8a5a5a"/><circle cx="158.3" cy="145.1" r="3" fill="#8a5a5a"/><circle cx="162.4" cy="145.1" r="3" fill="#8a5a5a"/><circle cx="166.5" cy="145.1" r="3" fill="#8a5a5a"/><circle cx="170.6" cy="145.1" r="3" fill="#8a5a5a"/><circle cx="174.6" cy="145.1" r="3" fill="#8a5a5a"/><circle cx="178.7" cy="145.1" r="3" fill="#8a5a5a"/><circle cx="182.8" cy="145.1" r="3" fill="#8a5a5a"/><circle cx="186.9" cy="145.1" r="3" fill="#8a5a5a"/><circle cx="191.0" cy="145.1" r="3" fill="#8a5a5a"/><circle cx="195.0" cy="145.1" r="3" fill="#8a5a5a"/><circle cx="199.1" cy="145.1" r="3" fill="#8a5a5a"/><circle cx="203.2" cy="145.1" r="3" fill="#8a5a5a"/><circle cx="207.3" cy="145.1" r="3" fill="#8a5a5a"/><circle cx="211.4" cy="145.1" r="3" fill="#8a5a5a"/><circle cx="215.4" cy="145.1" r="3" fill="#8a5a5a"/><circle cx="219.5" cy="145.1" r="3" fill="#8a5a5a"/><circle cx="223.6" cy="145.1" r="3" fill="#8a5a5a"/><circle cx="227.7" cy="145.1" r="3" fill="#8a5a5a"/><circle cx="231.7" cy="145.1" r="3" fill="#8a5a5a"/><circle cx="235.8" cy="145.1" r="3" fill="#8a5a5a"/><circle cx="239.9" cy="155.7" r="3" fill="#8a5a5a"/><circle cx="244.0" cy="155.7" r="3" fill="#8a5a5a"/><circle cx="248.1" cy="155.7" r="3" fill="#8a5a5a"/><circle cx="252.1" cy="155.7" r="3" fill="#8a5a5a"/><circle cx="256.2" cy="155.7" r="3" fill="#8a5a5a"/><circle cx="260.3" cy="155.7" r="3" fill="#8a5a5a"/><circle cx="264.4" cy="155.7" r="3" fill="#8a5a5a"/><circle cx="268.4" cy="155.7" r="3" fill="#8a5a5a"/><circle cx="272.5" cy="155.7" r="3" fill="#8a5a5a"/><circle cx="276.6" cy="155.7" r="3" fill="#8a5a5a"/><circle cx="280.7" cy="155.7" r="3" fill="#8a5a5a"/><circle cx="284.8" cy="155.7" r="3" fill="#8a5a5a"/><circle cx="288.8" cy="155.7" r="3" fill="#8a5a5a"/><circle cx="292.9" cy="155.7" r="3" fill="#8a5a5a"/><circle cx="297.0" cy="155.7" r="3" fill="#8a5a5a"/><circle cx="301.1" cy="155.7" r="3" fill="#8a5a5a"/><circle cx="305.1" cy="155.7" r="3" fill="#8a5a5a"/><circle cx="309.2" cy="155.7" r="3" fill="#8a5a5a"/><circle cx="313.3" cy="155.7" r="3" fill="#8a5a5a"/><circle cx="317.4" cy="155.7" r="3" fill="#8a5a5a"/><circle cx="321.5" cy="155.7" r="3" fill="#8a5a5a"/><circle cx="325.5" cy="155.7" r="3" fill="#8a5a5a"/><circle cx="329.6" cy="155.7" r="3" fill="#8a5a5a"/><circle cx="333.7" cy="155.7" r="3" fill="#8a5a5a"/><circle cx="337.8" cy="155.7" r="3" fill="#8a5a5a"/><circle cx="341.8" cy="155.7" r="3" fill="#8a5a5a"/><circle cx="345.9" cy="155.7" r="3" fill="#8a5a5a"/><circle cx="350.0" cy="155.7" r="3" fill="#8a5a5a"/><circle cx="354.1" cy="155.7" r="3" fill="#8a5a5a"/><circle cx="358.2" cy="155.7" r="3" fill="#8a5a5a"/><circle cx="362.2" cy="155.7" r="3" fill="#8a5a5a"/><circle cx="366.3" cy="155.7" r="3" fill="#8a5a5a"/><circle cx="370.4" cy="155.7" r="3" fill="#8a5a5a"/><circle cx="374.5" cy="155.7" r="3" fill="#8a5a5a"/><circle cx="378.5" cy="167.6" r="3" fill="#8a5a5a"/><circle cx="382.6" cy="167.6" r="3" fill="#8a5a5a"/><circle cx="386.7" cy="170.3" r="3" fill="#8a5a5a"/><circle cx="390.8" cy="170.3" r="3" fill="#8a5a5a"/><circle cx="394.9" cy="170.5" r="3" fill="#8a5a5a"/><circle cx="398.9" cy="170.7" r="3" fill="#8a5a5a"/><circle cx="403.0" cy="170.7" r="3" fill="#8a5a5a"/><circle cx="407.1" cy="170.9" r="3" fill="#8a5a5a"/><circle cx="411.2" cy="172.7" r="3" fill="#8a5a5a"/><circle cx="415.2" cy="180.6" r="3" fill="#8a5a5a"/><circle cx="419.3" cy="181.8" r="3" fill="#8a5a5a"/><circle cx="423.4" cy="189.1" r="3" fill="#8a5a5a"/><circle cx="427.5" cy="190.5" r="3" fill="#8a5a5a"/><circle cx="431.6" cy="195.2" r="3" fill="#8a5a5a"/><circle cx="435.6" cy="198.0" r="3" fill="#8a5a5a"/><circle cx="439.7" cy="198.0" r="3" fill="#8a5a5a"/><circle cx="443.8" cy="198.0" r="3" fill="#8a5a5a"/><circle cx="447.9" cy="198.0" r="3" fill="#8a5a5a"/><circle cx="451.9" cy="198.0" r="3" fill="#8a5a5a"/><circle cx="456.0" cy="198.0" r="3" fill="#8a5a5a"/><circle cx="460.1" cy="198.0" r="3" fill="#8a5a5a"/><circle cx="464.2" cy="198.0" r="3" fill="#8a5a5a"/><circle cx="468.3" cy="198.0" r="3" fill="#8a5a5a"/><circle cx="472.3" cy="198.0" r="3" fill="#8a5a5a"/><circle cx="476.4" cy="198.0" r="3" fill="#8a5a5a"/><circle cx="480.5" cy="198.0" r="3" fill="#8a5a5a"/><circle cx="484.6" cy="198.0" r="3" fill="#8a5a5a"/><circle cx="488.6" cy="198.0" r="3" fill="#8a5a5a"/><circle cx="492.7" cy="198.0" r="3" fill="#8a5a5a"/><circle cx="496.8" cy="198.0" r="3" fill="#8a5a5a"/><circle cx="500.9" cy="198.0" r="3" fill="#8a5a5a"/><circle cx="505.0" cy="198.0" r="3" fill="#8a5a5a"/><circle cx="509.0" cy="198.0" r="3" fill="#8a5a5a"/><circle cx="513.1" cy="198.0" r="3" fill="#8a5a5a"/><circle cx="517.2" cy="198.0" r="3" fill="#8a5a5a"/><circle cx="521.3" cy="198.0" r="3" fill="#8a5a5a"/><circle cx="525.4" cy="198.0" r="3" fill="#8a5a5a"/><circle cx="529.4" cy="198.0" r="3" fill="#8a5a5a"/><circle cx="533.5" cy="198.0" r="3" fill="#8a5a5a"/><circle cx="537.6" cy="198.0" r="3" fill="#8a5a5a"/><circle cx="541.7" cy="198.0" r="3" fill="#8a5a5a"/><circle cx="545.7" cy="198.0" r="3" fill="#8a5a5a"/><circle cx="549.8" cy="198.0" r="3" fill="#8a5a5a"/><circle cx="553.9" cy="198.0" r="3" fill="#8a5a5a"/><circle cx="558.0" cy="198.0" r="3" fill="#8a5a5a"/><circle cx="562.1" cy="198.0" r="3" fill="#8a5a5a"/><circle cx="566.1" cy="198.0" r="3" fill="#8a5a5a"/><circle cx="570.2" cy="198.0" r="3" fill="#8a5a5a"/><circle cx="574.3" cy="198.0" r="3" fill="#8a5a5a"/><circle cx="578.4" cy="198.0" r="3" fill="#8a5a5a"/><circle cx="582.4" cy="198.0" r="3" fill="#8a5a5a"/><circle cx="586.5" cy="198.0" r="3" fill="#8a5a5a"/><circle cx="590.6" cy="198.0" r="3" fill="#8a5a5a"/><circle cx="594.7" cy="198.0" r="3" fill="#8a5a5a"/><circle cx="598.8" cy="198.0" r="3" fill="#8a5a5a"/><circle cx="602.8" cy="198.0" r="3" fill="#8a5a5a"/><circle cx="606.9" cy="198.0" r="3" fill="#8a5a5a"/><circle cx="611.0" cy="198.0" r="3" fill="#8a5a5a"/><circle cx="615.1" cy="198.0" r="3" fill="#8a5a5a"/><circle cx="619.1" cy="198.0" r="3" fill="#8a5a5a"/><circle cx="623.2" cy="198.0" r="3" fill="#8a5a5a"/><circle cx="627.3" cy="198.0" r="3" fill="#8a5a5a"/><circle cx="631.4" cy="198.0" r="3" fill="#8a5a5a"/><circle cx="635.5" cy="198.0" r="3" fill="#8a5a5a"/><circle cx="639.5" cy="198.0" r="3" fill="#8a5a5a"/><circle cx="643.6" cy="198.0" r="3" fill="#8a5a5a"/><circle cx="647.7" cy="198.0" r="3" fill="#8a5a5a"/><circle cx="651.8" cy="198.0" r="3" fill="#8a5a5a"/><circle cx="655.8" cy="198.0" r="3" fill="#8a5a5a"/><circle cx="659.9" cy="198.0" r="3" fill="#8a5a5a"/><circle cx="664.0" cy="198.0" r="3" fill="#8a5a5a"/>
<polyline fill="none" stroke="#3fb950" stroke-width="2.5" stroke-linejoin="round" points="36.0,198.0 40.1,198.0 44.2,198.0 48.2,198.0 52.3,198.0 56.4,198.0 60.5,198.0 64.5,198.0 68.6,198.0 72.7,198.0 76.8,198.0 80.9,198.0 84.9,198.0 89.0,198.0 93.1,198.0 97.2,198.0 101.2,198.0 105.3,198.0 109.4,198.0 113.5,198.0 117.6,198.0 121.6,198.0 125.7,198.0 129.8,198.0 133.9,198.0 137.9,198.0 142.0,198.0 146.1,198.0 150.2,198.0 154.3,198.0 158.3,198.0 162.4,198.0 166.5,198.0 170.6,198.0 174.6,198.0 178.7,198.0 182.8,198.0 186.9,198.0 191.0,198.0 195.0,198.0 199.1,198.0 203.2,198.0 207.3,198.0 211.4,191.7 215.4,191.7 219.5,191.7 223.6,191.7 227.7,191.7 231.7,191.7 235.8,191.7 239.9,192.9 244.0,192.9 248.1,190.7 252.1,190.7 256.2,190.7 260.3,190.7 264.4,190.7 268.4,190.5 272.5,190.5 276.6,190.5 280.7,190.3 284.8,190.3 288.8,190.3 292.9,190.3 297.0,190.3 301.1,190.3 305.1,190.3 309.2,190.3 313.3,190.3 317.4,190.3 321.5,190.3 325.5,190.3 329.6,190.3 333.7,190.3 337.8,190.3 341.8,190.3 345.9,190.3 350.0,190.3 354.1,190.3 358.2,190.3 362.2,190.3 366.3,189.3 370.4,189.3 374.5,189.3 378.5,190.7 382.6,190.7 386.7,190.7 390.8,190.7 394.9,190.7 398.9,190.7 403.0,190.7 407.1,190.7 411.2,190.7 415.2,190.9 419.3,190.9 423.4,190.9 427.5,194.2 431.6,196.8 435.6,198.0 439.7,198.0 443.8,198.0 447.9,198.0 451.9,198.0 456.0,198.0 460.1,198.0 464.2,198.0 468.3,198.0 472.3,198.0 476.4,198.0 480.5,198.0 484.6,198.0 488.6,198.0 492.7,198.0 496.8,198.0 500.9,198.0 505.0,198.0 509.0,198.0 513.1,198.0 517.2,198.0 521.3,198.0 525.4,198.0 529.4,198.0 533.5,198.0 537.6,198.0 541.7,198.0 545.7,198.0 549.8,198.0 553.9,198.0 558.0,198.0 562.1,198.0 566.1,198.0 570.2,198.0 574.3,198.0 578.4,198.0 582.4,198.0 586.5,198.0 590.6,198.0 594.7,198.0 598.8,198.0 602.8,198.0 606.9,198.0 611.0,198.0 615.1,198.0 619.1,198.0 623.2,198.0 627.3,198.0 631.4,198.0 635.5,198.0 639.5,198.0 643.6,198.0 647.7,198.0 651.8,198.0 655.8,198.0 659.9,198.0 664.0,198.0"/><circle cx="36.0" cy="198.0" r="3" fill="#3fb950"/><circle cx="40.1" cy="198.0" r="3" fill="#3fb950"/><circle cx="44.2" cy="198.0" r="3" fill="#3fb950"/><circle cx="48.2" cy="198.0" r="3" fill="#3fb950"/><circle cx="52.3" cy="198.0" r="3" fill="#3fb950"/><circle cx="56.4" cy="198.0" r="3" fill="#3fb950"/><circle cx="60.5" cy="198.0" r="3" fill="#3fb950"/><circle cx="64.5" cy="198.0" r="3" fill="#3fb950"/><circle cx="68.6" cy="198.0" r="3" fill="#3fb950"/><circle cx="72.7" cy="198.0" r="3" fill="#3fb950"/><circle cx="76.8" cy="198.0" r="3" fill="#3fb950"/><circle cx="80.9" cy="198.0" r="3" fill="#3fb950"/><circle cx="84.9" cy="198.0" r="3" fill="#3fb950"/><circle cx="89.0" cy="198.0" r="3" fill="#3fb950"/><circle cx="93.1" cy="198.0" r="3" fill="#3fb950"/><circle cx="97.2" cy="198.0" r="3" fill="#3fb950"/><circle cx="101.2" cy="198.0" r="3" fill="#3fb950"/><circle cx="105.3" cy="198.0" r="3" fill="#3fb950"/><circle cx="109.4" cy="198.0" r="3" fill="#3fb950"/><circle cx="113.5" cy="198.0" r="3" fill="#3fb950"/><circle cx="117.6" cy="198.0" r="3" fill="#3fb950"/><circle cx="121.6" cy="198.0" r="3" fill="#3fb950"/><circle cx="125.7" cy="198.0" r="3" fill="#3fb950"/><circle cx="129.8" cy="198.0" r="3" fill="#3fb950"/><circle cx="133.9" cy="198.0" r="3" fill="#3fb950"/><circle cx="137.9" cy="198.0" r="3" fill="#3fb950"/><circle cx="142.0" cy="198.0" r="3" fill="#3fb950"/><circle cx="146.1" cy="198.0" r="3" fill="#3fb950"/><circle cx="150.2" cy="198.0" r="3" fill="#3fb950"/><circle cx="154.3" cy="198.0" r="3" fill="#3fb950"/><circle cx="158.3" cy="198.0" r="3" fill="#3fb950"/><circle cx="162.4" cy="198.0" r="3" fill="#3fb950"/><circle cx="166.5" cy="198.0" r="3" fill="#3fb950"/><circle cx="170.6" cy="198.0" r="3" fill="#3fb950"/><circle cx="174.6" cy="198.0" r="3" fill="#3fb950"/><circle cx="178.7" cy="198.0" r="3" fill="#3fb950"/><circle cx="182.8" cy="198.0" r="3" fill="#3fb950"/><circle cx="186.9" cy="198.0" r="3" fill="#3fb950"/><circle cx="191.0" cy="198.0" r="3" fill="#3fb950"/><circle cx="195.0" cy="198.0" r="3" fill="#3fb950"/><circle cx="199.1" cy="198.0" r="3" fill="#3fb950"/><circle cx="203.2" cy="198.0" r="3" fill="#3fb950"/><circle cx="207.3" cy="198.0" r="3" fill="#3fb950"/><circle cx="211.4" cy="191.7" r="3" fill="#3fb950"/><circle cx="215.4" cy="191.7" r="3" fill="#3fb950"/><circle cx="219.5" cy="191.7" r="3" fill="#3fb950"/><circle cx="223.6" cy="191.7" r="3" fill="#3fb950"/><circle cx="227.7" cy="191.7" r="3" fill="#3fb950"/><circle cx="231.7" cy="191.7" r="3" fill="#3fb950"/><circle cx="235.8" cy="191.7" r="3" fill="#3fb950"/><circle cx="239.9" cy="192.9" r="3" fill="#3fb950"/><circle cx="244.0" cy="192.9" r="3" fill="#3fb950"/><circle cx="248.1" cy="190.7" r="3" fill="#3fb950"/><circle cx="252.1" cy="190.7" r="3" fill="#3fb950"/><circle cx="256.2" cy="190.7" r="3" fill="#3fb950"/><circle cx="260.3" cy="190.7" r="3" fill="#3fb950"/><circle cx="264.4" cy="190.7" r="3" fill="#3fb950"/><circle cx="268.4" cy="190.5" r="3" fill="#3fb950"/><circle cx="272.5" cy="190.5" r="3" fill="#3fb950"/><circle cx="276.6" cy="190.5" r="3" fill="#3fb950"/><circle cx="280.7" cy="190.3" r="3" fill="#3fb950"/><circle cx="284.8" cy="190.3" r="3" fill="#3fb950"/><circle cx="288.8" cy="190.3" r="3" fill="#3fb950"/><circle cx="292.9" cy="190.3" r="3" fill="#3fb950"/><circle cx="297.0" cy="190.3" r="3" fill="#3fb950"/><circle cx="301.1" cy="190.3" r="3" fill="#3fb950"/><circle cx="305.1" cy="190.3" r="3" fill="#3fb950"/><circle cx="309.2" cy="190.3" r="3" fill="#3fb950"/><circle cx="313.3" cy="190.3" r="3" fill="#3fb950"/><circle cx="317.4" cy="190.3" r="3" fill="#3fb950"/><circle cx="321.5" cy="190.3" r="3" fill="#3fb950"/><circle cx="325.5" cy="190.3" r="3" fill="#3fb950"/><circle cx="329.6" cy="190.3" r="3" fill="#3fb950"/><circle cx="333.7" cy="190.3" r="3" fill="#3fb950"/><circle cx="337.8" cy="190.3" r="3" fill="#3fb950"/><circle cx="341.8" cy="190.3" r="3" fill="#3fb950"/><circle cx="345.9" cy="190.3" r="3" fill="#3fb950"/><circle cx="350.0" cy="190.3" r="3" fill="#3fb950"/><circle cx="354.1" cy="190.3" r="3" fill="#3fb950"/><circle cx="358.2" cy="190.3" r="3" fill="#3fb950"/><circle cx="362.2" cy="190.3" r="3" fill="#3fb950"/><circle cx="366.3" cy="189.3" r="3" fill="#3fb950"/><circle cx="370.4" cy="189.3" r="3" fill="#3fb950"/><circle cx="374.5" cy="189.3" r="3" fill="#3fb950"/><circle cx="378.5" cy="190.7" r="3" fill="#3fb950"/><circle cx="382.6" cy="190.7" r="3" fill="#3fb950"/><circle cx="386.7" cy="190.7" r="3" fill="#3fb950"/><circle cx="390.8" cy="190.7" r="3" fill="#3fb950"/><circle cx="394.9" cy="190.7" r="3" fill="#3fb950"/><circle cx="398.9" cy="190.7" r="3" fill="#3fb950"/><circle cx="403.0" cy="190.7" r="3" fill="#3fb950"/><circle cx="407.1" cy="190.7" r="3" fill="#3fb950"/><circle cx="411.2" cy="190.7" r="3" fill="#3fb950"/><circle cx="415.2" cy="190.9" r="3" fill="#3fb950"/><circle cx="419.3" cy="190.9" r="3" fill="#3fb950"/><circle cx="423.4" cy="190.9" r="3" fill="#3fb950"/><circle cx="427.5" cy="194.2" r="3" fill="#3fb950"/><circle cx="431.6" cy="196.8" r="3" fill="#3fb950"/><circle cx="435.6" cy="198.0" r="3" fill="#3fb950"/><circle cx="439.7" cy="198.0" r="3" fill="#3fb950"/><circle cx="443.8" cy="198.0" r="3" fill="#3fb950"/><circle cx="447.9" cy="198.0" r="3" fill="#3fb950"/><circle cx="451.9" cy="198.0" r="3" fill="#3fb950"/><circle cx="456.0" cy="198.0" r="3" fill="#3fb950"/><circle cx="460.1" cy="198.0" r="3" fill="#3fb950"/><circle cx="464.2" cy="198.0" r="3" fill="#3fb950"/><circle cx="468.3" cy="198.0" r="3" fill="#3fb950"/><circle cx="472.3" cy="198.0" r="3" fill="#3fb950"/><circle cx="476.4" cy="198.0" r="3" fill="#3fb950"/><circle cx="480.5" cy="198.0" r="3" fill="#3fb950"/><circle cx="484.6" cy="198.0" r="3" fill="#3fb950"/><circle cx="488.6" cy="198.0" r="3" fill="#3fb950"/><circle cx="492.7" cy="198.0" r="3" fill="#3fb950"/><circle cx="496.8" cy="198.0" r="3" fill="#3fb950"/><circle cx="500.9" cy="198.0" r="3" fill="#3fb950"/><circle cx="505.0" cy="198.0" r="3" fill="#3fb950"/><circle cx="509.0" cy="198.0" r="3" fill="#3fb950"/><circle cx="513.1" cy="198.0" r="3" fill="#3fb950"/><circle cx="517.2" cy="198.0" r="3" fill="#3fb950"/><circle cx="521.3" cy="198.0" r="3" fill="#3fb950"/><circle cx="525.4" cy="198.0" r="3" fill="#3fb950"/><circle cx="529.4" cy="198.0" r="3" fill="#3fb950"/><circle cx="533.5" cy="198.0" r="3" fill="#3fb950"/><circle cx="537.6" cy="198.0" r="3" fill="#3fb950"/><circle cx="541.7" cy="198.0" r="3" fill="#3fb950"/><circle cx="545.7" cy="198.0" r="3" fill="#3fb950"/><circle cx="549.8" cy="198.0" r="3" fill="#3fb950"/><circle cx="553.9" cy="198.0" r="3" fill="#3fb950"/><circle cx="558.0" cy="198.0" r="3" fill="#3fb950"/><circle cx="562.1" cy="198.0" r="3" fill="#3fb950"/><circle cx="566.1" cy="198.0" r="3" fill="#3fb950"/><circle cx="570.2" cy="198.0" r="3" fill="#3fb950"/><circle cx="574.3" cy="198.0" r="3" fill="#3fb950"/><circle cx="578.4" cy="198.0" r="3" fill="#3fb950"/><circle cx="582.4" cy="198.0" r="3" fill="#3fb950"/><circle cx="586.5" cy="198.0" r="3" fill="#3fb950"/><circle cx="590.6" cy="198.0" r="3" fill="#3fb950"/><circle cx="594.7" cy="198.0" r="3" fill="#3fb950"/><circle cx="598.8" cy="198.0" r="3" fill="#3fb950"/><circle cx="602.8" cy="198.0" r="3" fill="#3fb950"/><circle cx="606.9" cy="198.0" r="3" fill="#3fb950"/><circle cx="611.0" cy="198.0" r="3" fill="#3fb950"/><circle cx="615.1" cy="198.0" r="3" fill="#3fb950"/><circle cx="619.1" cy="198.0" r="3" fill="#3fb950"/><circle cx="623.2" cy="198.0" r="3" fill="#3fb950"/><circle cx="627.3" cy="198.0" r="3" fill="#3fb950"/><circle cx="631.4" cy="198.0" r="3" fill="#3fb950"/><circle cx="635.5" cy="198.0" r="3" fill="#3fb950"/><circle cx="639.5" cy="198.0" r="3" fill="#3fb950"/><circle cx="643.6" cy="198.0" r="3" fill="#3fb950"/><circle cx="647.7" cy="198.0" r="3" fill="#3fb950"/><circle cx="651.8" cy="198.0" r="3" fill="#3fb950"/><circle cx="655.8" cy="198.0" r="3" fill="#3fb950"/><circle cx="659.9" cy="198.0" r="3" fill="#3fb950"/><circle cx="664.0" cy="198.0" r="3" fill="#3fb950"/>
<polyline fill="none" stroke="#4aa3ff" stroke-width="2.5" stroke-linejoin="round" points="36.0,144.3 40.1,144.3 44.2,144.3 48.2,144.3 52.3,144.3 56.4,144.3 60.5,144.3 64.5,144.3 68.6,144.3 72.7,144.3 76.8,144.3 80.9,144.3 84.9,144.3 89.0,144.3 93.1,144.3 97.2,136.2 101.2,132.4 105.3,129.6 109.4,129.6 113.5,121.0 117.6,121.0 121.6,121.0 125.7,114.4 129.8,114.4 133.9,114.4 137.9,111.3 142.0,110.9 146.1,110.9 150.2,110.5 154.3,110.5 158.3,109.9 162.4,108.7 166.5,107.3 170.6,106.9 174.6,106.9 178.7,106.9 182.8,106.9 186.9,106.9 191.0,106.9 195.0,106.9 199.1,106.9 203.2,106.9 207.3,106.9 211.4,113.2 215.4,113.2 219.5,113.2 223.6,113.2 227.7,113.2 231.7,110.7 235.8,105.3 239.9,83.4 244.0,83.4 248.1,85.6 252.1,85.6 256.2,85.6 260.3,85.6 264.4,85.6 268.4,85.8 272.5,85.8 276.6,85.8 280.7,86.0 284.8,86.0 288.8,86.0 292.9,86.0 297.0,86.0 301.1,86.0 305.1,86.0 309.2,86.0 313.3,86.0 317.4,86.0 321.5,86.0 325.5,86.0 329.6,86.0 333.7,86.0 337.8,86.0 341.8,86.0 345.9,86.0 350.0,86.0 354.1,86.0 358.2,86.0 362.2,86.0 366.3,87.0 370.4,87.0 374.5,87.0 378.5,73.7 382.6,73.7 386.7,71.0 390.8,71.0 394.9,70.8 398.9,70.6 403.0,70.6 407.1,70.4 411.2,68.6 415.2,60.5 419.3,59.3 423.4,52.0 427.5,47.3 431.6,40.1 435.6,36.0 439.7,36.0 443.8,36.0 447.9,36.0 451.9,36.0 456.0,36.0 460.1,36.0 464.2,36.0 468.3,36.0 472.3,36.0 476.4,36.0 480.5,36.0 484.6,36.0 488.6,36.0 492.7,36.0 496.8,36.0 500.9,36.0 505.0,36.0 509.0,36.0 513.1,36.0 517.2,36.0 521.3,36.0 525.4,36.0 529.4,36.0 533.5,36.0 537.6,36.0 541.7,36.0 545.7,36.0 549.8,36.0 553.9,36.0 558.0,36.0 562.1,36.0 566.1,36.0 570.2,36.0 574.3,36.0 578.4,36.0 582.4,36.0 586.5,36.0 590.6,36.0 594.7,36.0 598.8,36.0 602.8,36.0 606.9,36.0 611.0,36.0 615.1,36.0 619.1,36.0 623.2,36.0 627.3,36.0 631.4,36.0 635.5,36.0 639.5,36.0 643.6,36.0 647.7,36.0 651.8,36.0 655.8,36.0 659.9,36.0 664.0,36.0"/><circle cx="36.0" cy="144.3" r="3" fill="#4aa3ff"/><circle cx="40.1" cy="144.3" r="3" fill="#4aa3ff"/><circle cx="44.2" cy="144.3" r="3" fill="#4aa3ff"/><circle cx="48.2" cy="144.3" r="3" fill="#4aa3ff"/><circle cx="52.3" cy="144.3" r="3" fill="#4aa3ff"/><circle cx="56.4" cy="144.3" r="3" fill="#4aa3ff"/><circle cx="60.5" cy="144.3" r="3" fill="#4aa3ff"/><circle cx="64.5" cy="144.3" r="3" fill="#4aa3ff"/><circle cx="68.6" cy="144.3" r="3" fill="#4aa3ff"/><circle cx="72.7" cy="144.3" r="3" fill="#4aa3ff"/><circle cx="76.8" cy="144.3" r="3" fill="#4aa3ff"/><circle cx="80.9" cy="144.3" r="3" fill="#4aa3ff"/><circle cx="84.9" cy="144.3" r="3" fill="#4aa3ff"/><circle cx="89.0" cy="144.3" r="3" fill="#4aa3ff"/><circle cx="93.1" cy="144.3" r="3" fill="#4aa3ff"/><circle cx="97.2" cy="136.2" r="3" fill="#4aa3ff"/><circle cx="101.2" cy="132.4" r="3" fill="#4aa3ff"/><circle cx="105.3" cy="129.6" r="3" fill="#4aa3ff"/><circle cx="109.4" cy="129.6" r="3" fill="#4aa3ff"/><circle cx="113.5" cy="121.0" r="3" fill="#4aa3ff"/><circle cx="117.6" cy="121.0" r="3" fill="#4aa3ff"/><circle cx="121.6" cy="121.0" r="3" fill="#4aa3ff"/><circle cx="125.7" cy="114.4" r="3" fill="#4aa3ff"/><circle cx="129.8" cy="114.4" r="3" fill="#4aa3ff"/><circle cx="133.9" cy="114.4" r="3" fill="#4aa3ff"/><circle cx="137.9" cy="111.3" r="3" fill="#4aa3ff"/><circle cx="142.0" cy="110.9" r="3" fill="#4aa3ff"/><circle cx="146.1" cy="110.9" r="3" fill="#4aa3ff"/><circle cx="150.2" cy="110.5" r="3" fill="#4aa3ff"/><circle cx="154.3" cy="110.5" r="3" fill="#4aa3ff"/><circle cx="158.3" cy="109.9" r="3" fill="#4aa3ff"/><circle cx="162.4" cy="108.7" r="3" fill="#4aa3ff"/><circle cx="166.5" cy="107.3" r="3" fill="#4aa3ff"/><circle cx="170.6" cy="106.9" r="3" fill="#4aa3ff"/><circle cx="174.6" cy="106.9" r="3" fill="#4aa3ff"/><circle cx="178.7" cy="106.9" r="3" fill="#4aa3ff"/><circle cx="182.8" cy="106.9" r="3" fill="#4aa3ff"/><circle cx="186.9" cy="106.9" r="3" fill="#4aa3ff"/><circle cx="191.0" cy="106.9" r="3" fill="#4aa3ff"/><circle cx="195.0" cy="106.9" r="3" fill="#4aa3ff"/><circle cx="199.1" cy="106.9" r="3" fill="#4aa3ff"/><circle cx="203.2" cy="106.9" r="3" fill="#4aa3ff"/><circle cx="207.3" cy="106.9" r="3" fill="#4aa3ff"/><circle cx="211.4" cy="113.2" r="3" fill="#4aa3ff"/><circle cx="215.4" cy="113.2" r="3" fill="#4aa3ff"/><circle cx="219.5" cy="113.2" r="3" fill="#4aa3ff"/><circle cx="223.6" cy="113.2" r="3" fill="#4aa3ff"/><circle cx="227.7" cy="113.2" r="3" fill="#4aa3ff"/><circle cx="231.7" cy="110.7" r="3" fill="#4aa3ff"/><circle cx="235.8" cy="105.3" r="3" fill="#4aa3ff"/><circle cx="239.9" cy="83.4" r="3" fill="#4aa3ff"/><circle cx="244.0" cy="83.4" r="3" fill="#4aa3ff"/><circle cx="248.1" cy="85.6" r="3" fill="#4aa3ff"/><circle cx="252.1" cy="85.6" r="3" fill="#4aa3ff"/><circle cx="256.2" cy="85.6" r="3" fill="#4aa3ff"/><circle cx="260.3" cy="85.6" r="3" fill="#4aa3ff"/><circle cx="264.4" cy="85.6" r="3" fill="#4aa3ff"/><circle cx="268.4" cy="85.8" r="3" fill="#4aa3ff"/><circle cx="272.5" cy="85.8" r="3" fill="#4aa3ff"/><circle cx="276.6" cy="85.8" r="3" fill="#4aa3ff"/><circle cx="280.7" cy="86.0" r="3" fill="#4aa3ff"/><circle cx="284.8" cy="86.0" r="3" fill="#4aa3ff"/><circle cx="288.8" cy="86.0" r="3" fill="#4aa3ff"/><circle cx="292.9" cy="86.0" r="3" fill="#4aa3ff"/><circle cx="297.0" cy="86.0" r="3" fill="#4aa3ff"/><circle cx="301.1" cy="86.0" r="3" fill="#4aa3ff"/><circle cx="305.1" cy="86.0" r="3" fill="#4aa3ff"/><circle cx="309.2" cy="86.0" r="3" fill="#4aa3ff"/><circle cx="313.3" cy="86.0" r="3" fill="#4aa3ff"/><circle cx="317.4" cy="86.0" r="3" fill="#4aa3ff"/><circle cx="321.5" cy="86.0" r="3" fill="#4aa3ff"/><circle cx="325.5" cy="86.0" r="3" fill="#4aa3ff"/><circle cx="329.6" cy="86.0" r="3" fill="#4aa3ff"/><circle cx="333.7" cy="86.0" r="3" fill="#4aa3ff"/><circle cx="337.8" cy="86.0" r="3" fill="#4aa3ff"/><circle cx="341.8" cy="86.0" r="3" fill="#4aa3ff"/><circle cx="345.9" cy="86.0" r="3" fill="#4aa3ff"/><circle cx="350.0" cy="86.0" r="3" fill="#4aa3ff"/><circle cx="354.1" cy="86.0" r="3" fill="#4aa3ff"/><circle cx="358.2" cy="86.0" r="3" fill="#4aa3ff"/><circle cx="362.2" cy="86.0" r="3" fill="#4aa3ff"/><circle cx="366.3" cy="87.0" r="3" fill="#4aa3ff"/><circle cx="370.4" cy="87.0" r="3" fill="#4aa3ff"/><circle cx="374.5" cy="87.0" r="3" fill="#4aa3ff"/><circle cx="378.5" cy="73.7" r="3" fill="#4aa3ff"/><circle cx="382.6" cy="73.7" r="3" fill="#4aa3ff"/><circle cx="386.7" cy="71.0" r="3" fill="#4aa3ff"/><circle cx="390.8" cy="71.0" r="3" fill="#4aa3ff"/><circle cx="394.9" cy="70.8" r="3" fill="#4aa3ff"/><circle cx="398.9" cy="70.6" r="3" fill="#4aa3ff"/><circle cx="403.0" cy="70.6" r="3" fill="#4aa3ff"/><circle cx="407.1" cy="70.4" r="3" fill="#4aa3ff"/><circle cx="411.2" cy="68.6" r="3" fill="#4aa3ff"/><circle cx="415.2" cy="60.5" r="3" fill="#4aa3ff"/><circle cx="419.3" cy="59.3" r="3" fill="#4aa3ff"/><circle cx="423.4" cy="52.0" r="3" fill="#4aa3ff"/><circle cx="427.5" cy="47.3" r="3" fill="#4aa3ff"/><circle cx="431.6" cy="40.1" r="3" fill="#4aa3ff"/><circle cx="435.6" cy="36.0" r="3" fill="#4aa3ff"/><circle cx="439.7" cy="36.0" r="3" fill="#4aa3ff"/><circle cx="443.8" cy="36.0" r="3" fill="#4aa3ff"/><circle cx="447.9" cy="36.0" r="3" fill="#4aa3ff"/><circle cx="451.9" cy="36.0" r="3" fill="#4aa3ff"/><circle cx="456.0" cy="36.0" r="3" fill="#4aa3ff"/><circle cx="460.1" cy="36.0" r="3" fill="#4aa3ff"/><circle cx="464.2" cy="36.0" r="3" fill="#4aa3ff"/><circle cx="468.3" cy="36.0" r="3" fill="#4aa3ff"/><circle cx="472.3" cy="36.0" r="3" fill="#4aa3ff"/><circle cx="476.4" cy="36.0" r="3" fill="#4aa3ff"/><circle cx="480.5" cy="36.0" r="3" fill="#4aa3ff"/><circle cx="484.6" cy="36.0" r="3" fill="#4aa3ff"/><circle cx="488.6" cy="36.0" r="3" fill="#4aa3ff"/><circle cx="492.7" cy="36.0" r="3" fill="#4aa3ff"/><circle cx="496.8" cy="36.0" r="3" fill="#4aa3ff"/><circle cx="500.9" cy="36.0" r="3" fill="#4aa3ff"/><circle cx="505.0" cy="36.0" r="3" fill="#4aa3ff"/><circle cx="509.0" cy="36.0" r="3" fill="#4aa3ff"/><circle cx="513.1" cy="36.0" r="3" fill="#4aa3ff"/><circle cx="517.2" cy="36.0" r="3" fill="#4aa3ff"/><circle cx="521.3" cy="36.0" r="3" fill="#4aa3ff"/><circle cx="525.4" cy="36.0" r="3" fill="#4aa3ff"/><circle cx="529.4" cy="36.0" r="3" fill="#4aa3ff"/><circle cx="533.5" cy="36.0" r="3" fill="#4aa3ff"/><circle cx="537.6" cy="36.0" r="3" fill="#4aa3ff"/><circle cx="541.7" cy="36.0" r="3" fill="#4aa3ff"/><circle cx="545.7" cy="36.0" r="3" fill="#4aa3ff"/><circle cx="549.8" cy="36.0" r="3" fill="#4aa3ff"/><circle cx="553.9" cy="36.0" r="3" fill="#4aa3ff"/><circle cx="558.0" cy="36.0" r="3" fill="#4aa3ff"/><circle cx="562.1" cy="36.0" r="3" fill="#4aa3ff"/><circle cx="566.1" cy="36.0" r="3" fill="#4aa3ff"/><circle cx="570.2" cy="36.0" r="3" fill="#4aa3ff"/><circle cx="574.3" cy="36.0" r="3" fill="#4aa3ff"/><circle cx="578.4" cy="36.0" r="3" fill="#4aa3ff"/><circle cx="582.4" cy="36.0" r="3" fill="#4aa3ff"/><circle cx="586.5" cy="36.0" r="3" fill="#4aa3ff"/><circle cx="590.6" cy="36.0" r="3" fill="#4aa3ff"/><circle cx="594.7" cy="36.0" r="3" fill="#4aa3ff"/><circle cx="598.8" cy="36.0" r="3" fill="#4aa3ff"/><circle cx="602.8" cy="36.0" r="3" fill="#4aa3ff"/><circle cx="606.9" cy="36.0" r="3" fill="#4aa3ff"/><circle cx="611.0" cy="36.0" r="3" fill="#4aa3ff"/><circle cx="615.1" cy="36.0" r="3" fill="#4aa3ff"/><circle cx="619.1" cy="36.0" r="3" fill="#4aa3ff"/><circle cx="623.2" cy="36.0" r="3" fill="#4aa3ff"/><circle cx="627.3" cy="36.0" r="3" fill="#4aa3ff"/><circle cx="631.4" cy="36.0" r="3" fill="#4aa3ff"/><circle cx="635.5" cy="36.0" r="3" fill="#4aa3ff"/><circle cx="639.5" cy="36.0" r="3" fill="#4aa3ff"/><circle cx="643.6" cy="36.0" r="3" fill="#4aa3ff"/><circle cx="647.7" cy="36.0" r="3" fill="#4aa3ff"/><circle cx="651.8" cy="36.0" r="3" fill="#4aa3ff"/><circle cx="655.8" cy="36.0" r="3" fill="#4aa3ff"/><circle cx="659.9" cy="36.0" r="3" fill="#4aa3ff"/><circle cx="664.0" cy="36.0" r="3" fill="#4aa3ff"/>
<text x="36" y="225" fill="#6b7280" font-size="11">2026-06-26</text>
<text x="664" y="225" fill="#6b7280" font-size="11" text-anchor="end">2026-07-12</text>
<text x="36" y="212" font-family="system-ui,sans-serif" font-size="11">
<tspan fill="#4aa3ff">&#9679; open FPs</tspan>  <tspan fill="#3fb950">&#9679; closed (Anthropic acting)</tspan>  <tspan fill="#8a5a5a">&#9679; harness withdrawn</tspan></text>
<text x="664" y="22" text-anchor="end" font-family="system-ui,sans-serif" font-size="12">
<tspan fill="#4aa3ff">open 800</tspan>  <tspan fill="#3fb950">closed 0</tspan>  <tspan fill="#8a5a5a">harness 0</tspan></text>
</svg>