<svg xmlns="http://www.w3.org/2000/svg" width="700" height="234" viewBox="0 0 700 234" role="img">
<rect width="700" height="234" rx="12" fill="#16181d"/>
<text x="36" y="22" fill="#e8eaed" font-family="system-ui,sans-serif" font-size="14" font-weight="700">Is Anthropic acting? cyber/aup false positives over time</text>
<line x1="36" y1="198.0" x2="664" y2="198.0" stroke="#2a2e37" stroke-width="1"/><text x="30" y="202.0" fill="#6b7280" font-size="11" text-anchor="end">0</text><line x1="36" y1="117.0" x2="664" y2="117.0" stroke="#2a2e37" stroke-width="1"/><text x="30" y="121.0" fill="#6b7280" font-size="11" text-anchor="end">400</text><line x1="36" y1="36.0" x2="664" y2="36.0" stroke="#2a2e37" stroke-width="1"/><text x="30" y="40.0" fill="#6b7280" font-size="11" text-anchor="end">800</text>

<polyline fill="none" stroke="#8a5a5a" stroke-width="2.5" stroke-linejoin="round" points="36.0,145.1 41.6,145.1 47.1,145.1 52.7,145.1 58.2,145.1 63.8,145.1 69.3,145.1 74.9,145.1 80.5,145.1 86.0,145.1 91.6,145.1 97.1,145.1 102.7,145.1 108.2,145.1 113.8,145.1 119.4,145.1 124.9,145.1 130.5,145.1 136.0,145.1 141.6,145.1 147.2,145.1 152.7,145.1 158.3,145.1 163.8,145.1 169.4,145.1 174.9,145.1 180.5,145.1 186.1,145.1 191.6,145.1 197.2,145.1 202.7,145.1 208.3,145.1 213.8,145.1 219.4,145.1 225.0,145.1 230.5,145.1 236.1,145.1 241.6,145.1 247.2,145.1 252.7,145.1 258.3,145.1 263.9,145.1 269.4,145.1 275.0,145.1 280.5,145.1 286.1,145.1 291.6,145.1 297.2,145.1 302.8,145.1 308.3,145.1 313.9,155.7 319.4,155.7 325.0,155.7 330.5,155.7 336.1,155.7 341.7,155.7 347.2,155.7 352.8,155.7 358.3,155.7 363.9,155.7 369.5,155.7 375.0,155.7 380.6,155.7 386.1,155.7 391.7,155.7 397.2,155.7 402.8,155.7 408.4,155.7 413.9,155.7 419.5,155.7 425.0,155.7 430.6,155.7 436.1,155.7 441.7,155.7 447.3,155.7 452.8,155.7 458.4,155.7 463.9,155.7 469.5,155.7 475.0,155.7 480.6,155.7 486.2,155.7 491.7,155.7 497.3,155.7 502.8,167.6 508.4,167.6 513.9,170.3 519.5,170.3 525.1,170.5 530.6,170.7 536.2,170.7 541.7,170.9 547.3,172.7 552.8,180.6 558.4,181.8 564.0,189.1 569.5,190.5 575.1,195.2 580.6,198.0 586.2,198.0 591.8,198.0 597.3,198.0 602.9,198.0 608.4,198.0 614.0,198.0 619.5,198.0 625.1,198.0 630.7,198.0 636.2,198.0 641.8,198.0 647.3,198.0 652.9,198.0 658.4,198.0 664.0,198.0"/><circle cx="36.0" cy="145.1" r="3" fill="#8a5a5a"/><circle cx="41.6" cy="145.1" r="3" fill="#8a5a5a"/><circle cx="47.1" cy="145.1" r="3" fill="#8a5a5a"/><circle cx="52.7" cy="145.1" r="3" fill="#8a5a5a"/><circle cx="58.2" cy="145.1" r="3" fill="#8a5a5a"/><circle cx="63.8" cy="145.1" r="3" fill="#8a5a5a"/><circle cx="69.3" cy="145.1" r="3" fill="#8a5a5a"/><circle cx="74.9" cy="145.1" r="3" fill="#8a5a5a"/><circle cx="80.5" cy="145.1" r="3" fill="#8a5a5a"/><circle cx="86.0" cy="145.1" r="3" fill="#8a5a5a"/><circle cx="91.6" cy="145.1" r="3" fill="#8a5a5a"/><circle cx="97.1" cy="145.1" r="3" fill="#8a5a5a"/><circle cx="102.7" cy="145.1" r="3" fill="#8a5a5a"/><circle cx="108.2" cy="145.1" r="3" fill="#8a5a5a"/><circle cx="113.8" cy="145.1" r="3" fill="#8a5a5a"/><circle cx="119.4" cy="145.1" r="3" fill="#8a5a5a"/><circle cx="124.9" cy="145.1" r="3" fill="#8a5a5a"/><circle cx="130.5" cy="145.1" r="3" fill="#8a5a5a"/><circle cx="136.0" cy="145.1" r="3" fill="#8a5a5a"/><circle cx="141.6" cy="145.1" r="3" fill="#8a5a5a"/><circle cx="147.2" cy="145.1" r="3" fill="#8a5a5a"/><circle cx="152.7" cy="145.1" r="3" fill="#8a5a5a"/><circle cx="158.3" cy="145.1" r="3" fill="#8a5a5a"/><circle cx="163.8" cy="145.1" r="3" fill="#8a5a5a"/><circle cx="169.4" cy="145.1" r="3" fill="#8a5a5a"/><circle cx="174.9" cy="145.1" r="3" fill="#8a5a5a"/><circle cx="180.5" cy="145.1" r="3" fill="#8a5a5a"/><circle cx="186.1" cy="145.1" r="3" fill="#8a5a5a"/><circle cx="191.6" cy="145.1" r="3" fill="#8a5a5a"/><circle cx="197.2" cy="145.1" r="3" fill="#8a5a5a"/><circle cx="202.7" cy="145.1" r="3" fill="#8a5a5a"/><circle cx="208.3" cy="145.1" r="3" fill="#8a5a5a"/><circle cx="213.8" cy="145.1" r="3" fill="#8a5a5a"/><circle cx="219.4" cy="145.1" r="3" fill="#8a5a5a"/><circle cx="225.0" cy="145.1" r="3" fill="#8a5a5a"/><circle cx="230.5" cy="145.1" r="3" fill="#8a5a5a"/><circle cx="236.1" cy="145.1" r="3" fill="#8a5a5a"/><circle cx="241.6" cy="145.1" r="3" fill="#8a5a5a"/><circle cx="247.2" cy="145.1" r="3" fill="#8a5a5a"/><circle cx="252.7" cy="145.1" r="3" fill="#8a5a5a"/><circle cx="258.3" cy="145.1" r="3" fill="#8a5a5a"/><circle cx="263.9" cy="145.1" r="3" fill="#8a5a5a"/><circle cx="269.4" cy="145.1" r="3" fill="#8a5a5a"/><circle cx="275.0" cy="145.1" r="3" fill="#8a5a5a"/><circle cx="280.5" cy="145.1" r="3" fill="#8a5a5a"/><circle cx="286.1" cy="145.1" r="3" fill="#8a5a5a"/><circle cx="291.6" cy="145.1" r="3" fill="#8a5a5a"/><circle cx="297.2" cy="145.1" r="3" fill="#8a5a5a"/><circle cx="302.8" cy="145.1" r="3" fill="#8a5a5a"/><circle cx="308.3" cy="145.1" r="3" fill="#8a5a5a"/><circle cx="313.9" cy="155.7" r="3" fill="#8a5a5a"/><circle cx="319.4" cy="155.7" r="3" fill="#8a5a5a"/><circle cx="325.0" cy="155.7" r="3" fill="#8a5a5a"/><circle cx="330.5" cy="155.7" r="3" fill="#8a5a5a"/><circle cx="336.1" cy="155.7" r="3" fill="#8a5a5a"/><circle cx="341.7" cy="155.7" r="3" fill="#8a5a5a"/><circle cx="347.2" cy="155.7" r="3" fill="#8a5a5a"/><circle cx="352.8" cy="155.7" r="3" fill="#8a5a5a"/><circle cx="358.3" cy="155.7" r="3" fill="#8a5a5a"/><circle cx="363.9" cy="155.7" r="3" fill="#8a5a5a"/><circle cx="369.5" cy="155.7" r="3" fill="#8a5a5a"/><circle cx="375.0" cy="155.7" r="3" fill="#8a5a5a"/><circle cx="380.6" cy="155.7" r="3" fill="#8a5a5a"/><circle cx="386.1" cy="155.7" r="3" fill="#8a5a5a"/><circle cx="391.7" cy="155.7" r="3" fill="#8a5a5a"/><circle cx="397.2" cy="155.7" r="3" fill="#8a5a5a"/><circle cx="402.8" cy="155.7" r="3" fill="#8a5a5a"/><circle cx="408.4" cy="155.7" r="3" fill="#8a5a5a"/><circle cx="413.9" cy="155.7" r="3" fill="#8a5a5a"/><circle cx="419.5" cy="155.7" r="3" fill="#8a5a5a"/><circle cx="425.0" cy="155.7" r="3" fill="#8a5a5a"/><circle cx="430.6" cy="155.7" r="3" fill="#8a5a5a"/><circle cx="436.1" cy="155.7" r="3" fill="#8a5a5a"/><circle cx="441.7" cy="155.7" r="3" fill="#8a5a5a"/><circle cx="447.3" cy="155.7" r="3" fill="#8a5a5a"/><circle cx="452.8" cy="155.7" r="3" fill="#8a5a5a"/><circle cx="458.4" cy="155.7" r="3" fill="#8a5a5a"/><circle cx="463.9" cy="155.7" r="3" fill="#8a5a5a"/><circle cx="469.5" cy="155.7" r="3" fill="#8a5a5a"/><circle cx="475.0" cy="155.7" r="3" fill="#8a5a5a"/><circle cx="480.6" cy="155.7" r="3" fill="#8a5a5a"/><circle cx="486.2" cy="155.7" r="3" fill="#8a5a5a"/><circle cx="491.7" cy="155.7" r="3" fill="#8a5a5a"/><circle cx="497.3" cy="155.7" r="3" fill="#8a5a5a"/><circle cx="502.8" cy="167.6" r="3" fill="#8a5a5a"/><circle cx="508.4" cy="167.6" r="3" fill="#8a5a5a"/><circle cx="513.9" cy="170.3" r="3" fill="#8a5a5a"/><circle cx="519.5" cy="170.3" r="3" fill="#8a5a5a"/><circle cx="525.1" cy="170.5" r="3" fill="#8a5a5a"/><circle cx="530.6" cy="170.7" r="3" fill="#8a5a5a"/><circle cx="536.2" cy="170.7" r="3" fill="#8a5a5a"/><circle cx="541.7" cy="170.9" r="3" fill="#8a5a5a"/><circle cx="547.3" cy="172.7" r="3" fill="#8a5a5a"/><circle cx="552.8" cy="180.6" r="3" fill="#8a5a5a"/><circle cx="558.4" cy="181.8" r="3" fill="#8a5a5a"/><circle cx="564.0" cy="189.1" r="3" fill="#8a5a5a"/><circle cx="569.5" cy="190.5" r="3" fill="#8a5a5a"/><circle cx="575.1" cy="195.2" r="3" fill="#8a5a5a"/><circle cx="580.6" cy="198.0" r="3" fill="#8a5a5a"/><circle cx="586.2" cy="198.0" r="3" fill="#8a5a5a"/><circle cx="591.8" cy="198.0" r="3" fill="#8a5a5a"/><circle cx="597.3" cy="198.0" r="3" fill="#8a5a5a"/><circle cx="602.9" cy="198.0" r="3" fill="#8a5a5a"/><circle cx="608.4" cy="198.0" r="3" fill="#8a5a5a"/><circle cx="614.0" cy="198.0" r="3" fill="#8a5a5a"/><circle cx="619.5" cy="198.0" r="3" fill="#8a5a5a"/><circle cx="625.1" cy="198.0" r="3" fill="#8a5a5a"/><circle cx="630.7" cy="198.0" r="3" fill="#8a5a5a"/><circle cx="636.2" cy="198.0" r="3" fill="#8a5a5a"/><circle cx="641.8" cy="198.0" r="3" fill="#8a5a5a"/><circle cx="647.3" cy="198.0" r="3" fill="#8a5a5a"/><circle cx="652.9" cy="198.0" r="3" fill="#8a5a5a"/><circle cx="658.4" cy="198.0" r="3" fill="#8a5a5a"/><circle cx="664.0" cy="198.0" r="3" fill="#8a5a5a"/>
<polyline fill="none" stroke="#3fb950" stroke-width="2.5" stroke-linejoin="round" points="36.0,198.0 41.6,198.0 47.1,198.0 52.7,198.0 58.2,198.0 63.8,198.0 69.3,198.0 74.9,198.0 80.5,198.0 86.0,198.0 91.6,198.0 97.1,198.0 102.7,198.0 108.2,198.0 113.8,198.0 119.4,198.0 124.9,198.0 130.5,198.0 136.0,198.0 141.6,198.0 147.2,198.0 152.7,198.0 158.3,198.0 163.8,198.0 169.4,198.0 174.9,198.0 180.5,198.0 186.1,198.0 191.6,198.0 197.2,198.0 202.7,198.0 208.3,198.0 213.8,198.0 219.4,198.0 225.0,198.0 230.5,198.0 236.1,198.0 241.6,198.0 247.2,198.0 252.7,198.0 258.3,198.0 263.9,198.0 269.4,198.0 275.0,191.7 280.5,191.7 286.1,191.7 291.6,191.7 297.2,191.7 302.8,191.7 308.3,191.7 313.9,192.9 319.4,192.9 325.0,190.7 330.5,190.7 336.1,190.7 341.7,190.7 347.2,190.7 352.8,190.5 358.3,190.5 363.9,190.5 369.5,190.3 375.0,190.3 380.6,190.3 386.1,190.3 391.7,190.3 397.2,190.3 402.8,190.3 408.4,190.3 413.9,190.3 419.5,190.3 425.0,190.3 430.6,190.3 436.1,190.3 441.7,190.3 447.3,190.3 452.8,190.3 458.4,190.3 463.9,190.3 469.5,190.3 475.0,190.3 480.6,190.3 486.2,189.3 491.7,189.3 497.3,189.3 502.8,190.7 508.4,190.7 513.9,190.7 519.5,190.7 525.1,190.7 530.6,190.7 536.2,190.7 541.7,190.7 547.3,190.7 552.8,190.9 558.4,190.9 564.0,190.9 569.5,194.2 575.1,196.8 580.6,198.0 586.2,198.0 591.8,198.0 597.3,198.0 602.9,198.0 608.4,198.0 614.0,198.0 619.5,198.0 625.1,198.0 630.7,198.0 636.2,198.0 641.8,198.0 647.3,198.0 652.9,198.0 658.4,198.0 664.0,198.0"/><circle cx="36.0" cy="198.0" r="3" fill="#3fb950"/><circle cx="41.6" cy="198.0" r="3" fill="#3fb950"/><circle cx="47.1" cy="198.0" r="3" fill="#3fb950"/><circle cx="52.7" cy="198.0" r="3" fill="#3fb950"/><circle cx="58.2" cy="198.0" r="3" fill="#3fb950"/><circle cx="63.8" cy="198.0" r="3" fill="#3fb950"/><circle cx="69.3" cy="198.0" r="3" fill="#3fb950"/><circle cx="74.9" cy="198.0" r="3" fill="#3fb950"/><circle cx="80.5" cy="198.0" r="3" fill="#3fb950"/><circle cx="86.0" cy="198.0" r="3" fill="#3fb950"/><circle cx="91.6" cy="198.0" r="3" fill="#3fb950"/><circle cx="97.1" cy="198.0" r="3" fill="#3fb950"/><circle cx="102.7" cy="198.0" r="3" fill="#3fb950"/><circle cx="108.2" cy="198.0" r="3" fill="#3fb950"/><circle cx="113.8" cy="198.0" r="3" fill="#3fb950"/><circle cx="119.4" cy="198.0" r="3" fill="#3fb950"/><circle cx="124.9" cy="198.0" r="3" fill="#3fb950"/><circle cx="130.5" cy="198.0" r="3" fill="#3fb950"/><circle cx="136.0" cy="198.0" r="3" fill="#3fb950"/><circle cx="141.6" cy="198.0" r="3" fill="#3fb950"/><circle cx="147.2" cy="198.0" r="3" fill="#3fb950"/><circle cx="152.7" cy="198.0" r="3" fill="#3fb950"/><circle cx="158.3" cy="198.0" r="3" fill="#3fb950"/><circle cx="163.8" cy="198.0" r="3" fill="#3fb950"/><circle cx="169.4" cy="198.0" r="3" fill="#3fb950"/><circle cx="174.9" cy="198.0" r="3" fill="#3fb950"/><circle cx="180.5" cy="198.0" r="3" fill="#3fb950"/><circle cx="186.1" cy="198.0" r="3" fill="#3fb950"/><circle cx="191.6" cy="198.0" r="3" fill="#3fb950"/><circle cx="197.2" cy="198.0" r="3" fill="#3fb950"/><circle cx="202.7" cy="198.0" r="3" fill="#3fb950"/><circle cx="208.3" cy="198.0" r="3" fill="#3fb950"/><circle cx="213.8" cy="198.0" r="3" fill="#3fb950"/><circle cx="219.4" cy="198.0" r="3" fill="#3fb950"/><circle cx="225.0" cy="198.0" r="3" fill="#3fb950"/><circle cx="230.5" cy="198.0" r="3" fill="#3fb950"/><circle cx="236.1" cy="198.0" r="3" fill="#3fb950"/><circle cx="241.6" cy="198.0" r="3" fill="#3fb950"/><circle cx="247.2" cy="198.0" r="3" fill="#3fb950"/><circle cx="252.7" cy="198.0" r="3" fill="#3fb950"/><circle cx="258.3" cy="198.0" r="3" fill="#3fb950"/><circle cx="263.9" cy="198.0" r="3" fill="#3fb950"/><circle cx="269.4" cy="198.0" r="3" fill="#3fb950"/><circle cx="275.0" cy="191.7" r="3" fill="#3fb950"/><circle cx="280.5" cy="191.7" r="3" fill="#3fb950"/><circle cx="286.1" cy="191.7" r="3" fill="#3fb950"/><circle cx="291.6" cy="191.7" r="3" fill="#3fb950"/><circle cx="297.2" cy="191.7" r="3" fill="#3fb950"/><circle cx="302.8" cy="191.7" r="3" fill="#3fb950"/><circle cx="308.3" cy="191.7" r="3" fill="#3fb950"/><circle cx="313.9" cy="192.9" r="3" fill="#3fb950"/><circle cx="319.4" cy="192.9" r="3" fill="#3fb950"/><circle cx="325.0" cy="190.7" r="3" fill="#3fb950"/><circle cx="330.5" cy="190.7" r="3" fill="#3fb950"/><circle cx="336.1" cy="190.7" r="3" fill="#3fb950"/><circle cx="341.7" cy="190.7" r="3" fill="#3fb950"/><circle cx="347.2" cy="190.7" r="3" fill="#3fb950"/><circle cx="352.8" cy="190.5" r="3" fill="#3fb950"/><circle cx="358.3" cy="190.5" r="3" fill="#3fb950"/><circle cx="363.9" cy="190.5" r="3" fill="#3fb950"/><circle cx="369.5" cy="190.3" r="3" fill="#3fb950"/><circle cx="375.0" cy="190.3" r="3" fill="#3fb950"/><circle cx="380.6" cy="190.3" r="3" fill="#3fb950"/><circle cx="386.1" cy="190.3" r="3" fill="#3fb950"/><circle cx="391.7" cy="190.3" r="3" fill="#3fb950"/><circle cx="397.2" cy="190.3" r="3" fill="#3fb950"/><circle cx="402.8" cy="190.3" r="3" fill="#3fb950"/><circle cx="408.4" cy="190.3" r="3" fill="#3fb950"/><circle cx="413.9" cy="190.3" r="3" fill="#3fb950"/><circle cx="419.5" cy="190.3" r="3" fill="#3fb950"/><circle cx="425.0" cy="190.3" r="3" fill="#3fb950"/><circle cx="430.6" cy="190.3" r="3" fill="#3fb950"/><circle cx="436.1" cy="190.3" r="3" fill="#3fb950"/><circle cx="441.7" cy="190.3" r="3" fill="#3fb950"/><circle cx="447.3" cy="190.3" r="3" fill="#3fb950"/><circle cx="452.8" cy="190.3" r="3" fill="#3fb950"/><circle cx="458.4" cy="190.3" r="3" fill="#3fb950"/><circle cx="463.9" cy="190.3" r="3" fill="#3fb950"/><circle cx="469.5" cy="190.3" r="3" fill="#3fb950"/><circle cx="475.0" cy="190.3" r="3" fill="#3fb950"/><circle cx="480.6" cy="190.3" r="3" fill="#3fb950"/><circle cx="486.2" cy="189.3" r="3" fill="#3fb950"/><circle cx="491.7" cy="189.3" r="3" fill="#3fb950"/><circle cx="497.3" cy="189.3" r="3" fill="#3fb950"/><circle cx="502.8" cy="190.7" r="3" fill="#3fb950"/><circle cx="508.4" cy="190.7" r="3" fill="#3fb950"/><circle cx="513.9" cy="190.7" r="3" fill="#3fb950"/><circle cx="519.5" cy="190.7" r="3" fill="#3fb950"/><circle cx="525.1" cy="190.7" r="3" fill="#3fb950"/><circle cx="530.6" cy="190.7" r="3" fill="#3fb950"/><circle cx="536.2" cy="190.7" r="3" fill="#3fb950"/><circle cx="541.7" cy="190.7" r="3" fill="#3fb950"/><circle cx="547.3" cy="190.7" r="3" fill="#3fb950"/><circle cx="552.8" cy="190.9" r="3" fill="#3fb950"/><circle cx="558.4" cy="190.9" r="3" fill="#3fb950"/><circle cx="564.0" cy="190.9" r="3" fill="#3fb950"/><circle cx="569.5" cy="194.2" r="3" fill="#3fb950"/><circle cx="575.1" cy="196.8" r="3" fill="#3fb950"/><circle cx="580.6" cy="198.0" r="3" fill="#3fb950"/><circle cx="586.2" cy="198.0" r="3" fill="#3fb950"/><circle cx="591.8" cy="198.0" r="3" fill="#3fb950"/><circle cx="597.3" cy="198.0" r="3" fill="#3fb950"/><circle cx="602.9" cy="198.0" r="3" fill="#3fb950"/><circle cx="608.4" cy="198.0" r="3" fill="#3fb950"/><circle cx="614.0" cy="198.0" r="3" fill="#3fb950"/><circle cx="619.5" cy="198.0" r="3" fill="#3fb950"/><circle cx="625.1" cy="198.0" r="3" fill="#3fb950"/><circle cx="630.7" cy="198.0" r="3" fill="#3fb950"/><circle cx="636.2" cy="198.0" r="3" fill="#3fb950"/><circle cx="641.8" cy="198.0" r="3" fill="#3fb950"/><circle cx="647.3" cy="198.0" r="3" fill="#3fb950"/><circle cx="652.9" cy="198.0" r="3" fill="#3fb950"/><circle cx="658.4" cy="198.0" r="3" fill="#3fb950"/><circle cx="664.0" cy="198.0" r="3" fill="#3fb950"/>
<polyline fill="none" stroke="#4aa3ff" stroke-width="2.5" stroke-linejoin="round" points="36.0,144.3 41.6,144.3 47.1,144.3 52.7,144.3 58.2,144.3 63.8,144.3 69.3,144.3 74.9,144.3 80.5,144.3 86.0,144.3 91.6,144.3 97.1,144.3 102.7,144.3 108.2,144.3 113.8,144.3 119.4,136.2 124.9,132.4 130.5,129.6 136.0,129.6 141.6,121.0 147.2,121.0 152.7,121.0 158.3,114.4 163.8,114.4 169.4,114.4 174.9,111.3 180.5,110.9 186.1,110.9 191.6,110.5 197.2,110.5 202.7,109.9 208.3,108.7 213.8,107.3 219.4,106.9 225.0,106.9 230.5,106.9 236.1,106.9 241.6,106.9 247.2,106.9 252.7,106.9 258.3,106.9 263.9,106.9 269.4,106.9 275.0,113.2 280.5,113.2 286.1,113.2 291.6,113.2 297.2,113.2 302.8,110.7 308.3,105.3 313.9,83.4 319.4,83.4 325.0,85.6 330.5,85.6 336.1,85.6 341.7,85.6 347.2,85.6 352.8,85.8 358.3,85.8 363.9,85.8 369.5,86.0 375.0,86.0 380.6,86.0 386.1,86.0 391.7,86.0 397.2,86.0 402.8,86.0 408.4,86.0 413.9,86.0 419.5,86.0 425.0,86.0 430.6,86.0 436.1,86.0 441.7,86.0 447.3,86.0 452.8,86.0 458.4,86.0 463.9,86.0 469.5,86.0 475.0,86.0 480.6,86.0 486.2,87.0 491.7,87.0 497.3,87.0 502.8,73.7 508.4,73.7 513.9,71.0 519.5,71.0 525.1,70.8 530.6,70.6 536.2,70.6 541.7,70.4 547.3,68.6 552.8,60.5 558.4,59.3 564.0,52.0 569.5,47.3 575.1,40.1 580.6,36.0 586.2,36.0 591.8,36.0 597.3,36.0 602.9,36.0 608.4,36.0 614.0,36.0 619.5,36.0 625.1,36.0 630.7,36.0 636.2,36.0 641.8,36.0 647.3,36.0 652.9,36.0 658.4,36.0 664.0,36.0"/><circle cx="36.0" cy="144.3" r="3" fill="#4aa3ff"/><circle cx="41.6" cy="144.3" r="3" fill="#4aa3ff"/><circle cx="47.1" cy="144.3" r="3" fill="#4aa3ff"/><circle cx="52.7" cy="144.3" r="3" fill="#4aa3ff"/><circle cx="58.2" cy="144.3" r="3" fill="#4aa3ff"/><circle cx="63.8" cy="144.3" r="3" fill="#4aa3ff"/><circle cx="69.3" cy="144.3" r="3" fill="#4aa3ff"/><circle cx="74.9" cy="144.3" r="3" fill="#4aa3ff"/><circle cx="80.5" cy="144.3" r="3" fill="#4aa3ff"/><circle cx="86.0" cy="144.3" r="3" fill="#4aa3ff"/><circle cx="91.6" cy="144.3" r="3" fill="#4aa3ff"/><circle cx="97.1" cy="144.3" r="3" fill="#4aa3ff"/><circle cx="102.7" cy="144.3" r="3" fill="#4aa3ff"/><circle cx="108.2" cy="144.3" r="3" fill="#4aa3ff"/><circle cx="113.8" cy="144.3" r="3" fill="#4aa3ff"/><circle cx="119.4" cy="136.2" r="3" fill="#4aa3ff"/><circle cx="124.9" cy="132.4" r="3" fill="#4aa3ff"/><circle cx="130.5" cy="129.6" r="3" fill="#4aa3ff"/><circle cx="136.0" cy="129.6" r="3" fill="#4aa3ff"/><circle cx="141.6" cy="121.0" r="3" fill="#4aa3ff"/><circle cx="147.2" cy="121.0" r="3" fill="#4aa3ff"/><circle cx="152.7" cy="121.0" r="3" fill="#4aa3ff"/><circle cx="158.3" cy="114.4" r="3" fill="#4aa3ff"/><circle cx="163.8" cy="114.4" r="3" fill="#4aa3ff"/><circle cx="169.4" cy="114.4" r="3" fill="#4aa3ff"/><circle cx="174.9" cy="111.3" r="3" fill="#4aa3ff"/><circle cx="180.5" cy="110.9" r="3" fill="#4aa3ff"/><circle cx="186.1" cy="110.9" r="3" fill="#4aa3ff"/><circle cx="191.6" cy="110.5" r="3" fill="#4aa3ff"/><circle cx="197.2" cy="110.5" r="3" fill="#4aa3ff"/><circle cx="202.7" cy="109.9" r="3" fill="#4aa3ff"/><circle cx="208.3" cy="108.7" r="3" fill="#4aa3ff"/><circle cx="213.8" cy="107.3" r="3" fill="#4aa3ff"/><circle cx="219.4" cy="106.9" r="3" fill="#4aa3ff"/><circle cx="225.0" cy="106.9" r="3" fill="#4aa3ff"/><circle cx="230.5" cy="106.9" r="3" fill="#4aa3ff"/><circle cx="236.1" cy="106.9" r="3" fill="#4aa3ff"/><circle cx="241.6" cy="106.9" r="3" fill="#4aa3ff"/><circle cx="247.2" cy="106.9" r="3" fill="#4aa3ff"/><circle cx="252.7" cy="106.9" r="3" fill="#4aa3ff"/><circle cx="258.3" cy="106.9" r="3" fill="#4aa3ff"/><circle cx="263.9" cy="106.9" r="3" fill="#4aa3ff"/><circle cx="269.4" cy="106.9" r="3" fill="#4aa3ff"/><circle cx="275.0" cy="113.2" r="3" fill="#4aa3ff"/><circle cx="280.5" cy="113.2" r="3" fill="#4aa3ff"/><circle cx="286.1" cy="113.2" r="3" fill="#4aa3ff"/><circle cx="291.6" cy="113.2" r="3" fill="#4aa3ff"/><circle cx="297.2" cy="113.2" r="3" fill="#4aa3ff"/><circle cx="302.8" cy="110.7" r="3" fill="#4aa3ff"/><circle cx="308.3" cy="105.3" r="3" fill="#4aa3ff"/><circle cx="313.9" cy="83.4" r="3" fill="#4aa3ff"/><circle cx="319.4" cy="83.4" r="3" fill="#4aa3ff"/><circle cx="325.0" cy="85.6" r="3" fill="#4aa3ff"/><circle cx="330.5" cy="85.6" r="3" fill="#4aa3ff"/><circle cx="336.1" cy="85.6" r="3" fill="#4aa3ff"/><circle cx="341.7" cy="85.6" r="3" fill="#4aa3ff"/><circle cx="347.2" cy="85.6" r="3" fill="#4aa3ff"/><circle cx="352.8" cy="85.8" r="3" fill="#4aa3ff"/><circle cx="358.3" cy="85.8" r="3" fill="#4aa3ff"/><circle cx="363.9" cy="85.8" r="3" fill="#4aa3ff"/><circle cx="369.5" cy="86.0" r="3" fill="#4aa3ff"/><circle cx="375.0" cy="86.0" r="3" fill="#4aa3ff"/><circle cx="380.6" cy="86.0" r="3" fill="#4aa3ff"/><circle cx="386.1" cy="86.0" r="3" fill="#4aa3ff"/><circle cx="391.7" cy="86.0" r="3" fill="#4aa3ff"/><circle cx="397.2" cy="86.0" r="3" fill="#4aa3ff"/><circle cx="402.8" cy="86.0" r="3" fill="#4aa3ff"/><circle cx="408.4" cy="86.0" r="3" fill="#4aa3ff"/><circle cx="413.9" cy="86.0" r="3" fill="#4aa3ff"/><circle cx="419.5" cy="86.0" r="3" fill="#4aa3ff"/><circle cx="425.0" cy="86.0" r="3" fill="#4aa3ff"/><circle cx="430.6" cy="86.0" r="3" fill="#4aa3ff"/><circle cx="436.1" cy="86.0" r="3" fill="#4aa3ff"/><circle cx="441.7" cy="86.0" r="3" fill="#4aa3ff"/><circle cx="447.3" cy="86.0" r="3" fill="#4aa3ff"/><circle cx="452.8" cy="86.0" r="3" fill="#4aa3ff"/><circle cx="458.4" cy="86.0" r="3" fill="#4aa3ff"/><circle cx="463.9" cy="86.0" r="3" fill="#4aa3ff"/><circle cx="469.5" cy="86.0" r="3" fill="#4aa3ff"/><circle cx="475.0" cy="86.0" r="3" fill="#4aa3ff"/><circle cx="480.6" cy="86.0" r="3" fill="#4aa3ff"/><circle cx="486.2" cy="87.0" r="3" fill="#4aa3ff"/><circle cx="491.7" cy="87.0" r="3" fill="#4aa3ff"/><circle cx="497.3" cy="87.0" r="3" fill="#4aa3ff"/><circle cx="502.8" cy="73.7" r="3" fill="#4aa3ff"/><circle cx="508.4" cy="73.7" r="3" fill="#4aa3ff"/><circle cx="513.9" cy="71.0" r="3" fill="#4aa3ff"/><circle cx="519.5" cy="71.0" r="3" fill="#4aa3ff"/><circle cx="525.1" cy="70.8" r="3" fill="#4aa3ff"/><circle cx="530.6" cy="70.6" r="3" fill="#4aa3ff"/><circle cx="536.2" cy="70.6" r="3" fill="#4aa3ff"/><circle cx="541.7" cy="70.4" r="3" fill="#4aa3ff"/><circle cx="547.3" cy="68.6" r="3" fill="#4aa3ff"/><circle cx="552.8" cy="60.5" r="3" fill="#4aa3ff"/><circle cx="558.4" cy="59.3" r="3" fill="#4aa3ff"/><circle cx="564.0" cy="52.0" r="3" fill="#4aa3ff"/><circle cx="569.5" cy="47.3" r="3" fill="#4aa3ff"/><circle cx="575.1" cy="40.1" r="3" fill="#4aa3ff"/><circle cx="580.6" cy="36.0" r="3" fill="#4aa3ff"/><circle cx="586.2" cy="36.0" r="3" fill="#4aa3ff"/><circle cx="591.8" cy="36.0" r="3" fill="#4aa3ff"/><circle cx="597.3" cy="36.0" r="3" fill="#4aa3ff"/><circle cx="602.9" cy="36.0" r="3" fill="#4aa3ff"/><circle cx="608.4" cy="36.0" r="3" fill="#4aa3ff"/><circle cx="614.0" cy="36.0" r="3" fill="#4aa3ff"/><circle cx="619.5" cy="36.0" r="3" fill="#4aa3ff"/><circle cx="625.1" cy="36.0" r="3" fill="#4aa3ff"/><circle cx="630.7" cy="36.0" r="3" fill="#4aa3ff"/><circle cx="636.2" cy="36.0" r="3" fill="#4aa3ff"/><circle cx="641.8" cy="36.0" r="3" fill="#4aa3ff"/><circle cx="647.3" cy="36.0" r="3" fill="#4aa3ff"/><circle cx="652.9" cy="36.0" r="3" fill="#4aa3ff"/><circle cx="658.4" cy="36.0" r="3" fill="#4aa3ff"/><circle cx="664.0" cy="36.0" r="3" fill="#4aa3ff"/>
<text x="36" y="225" fill="#6b7280" font-size="11">2026-06-26</text>
<text x="664" y="225" fill="#6b7280" font-size="11" text-anchor="end">2026-07-08</text>
<text x="36" y="212" font-family="system-ui,sans-serif" font-size="11">
<tspan fill="#4aa3ff">&#9679; open FPs</tspan>  <tspan fill="#3fb950">&#9679; closed (Anthropic acting)</tspan>  <tspan fill="#8a5a5a">&#9679; harness withdrawn</tspan></text>
<text x="664" y="22" text-anchor="end" font-family="system-ui,sans-serif" font-size="12">
<tspan fill="#4aa3ff">open 800</tspan>  <tspan fill="#3fb950">closed 0</tspan>  <tspan fill="#8a5a5a">harness 0</tspan></text>
</svg>