<svg xmlns="http://www.w3.org/2000/svg" width="700" height="234" viewBox="0 0 700 234" role="img">
<rect width="700" height="234" rx="12" fill="#16181d"/>
<text x="36" y="22" fill="#e8eaed" font-family="system-ui,sans-serif" font-size="14" font-weight="700">Is Anthropic acting? cyber/aup false positives over time</text>
<line x1="36" y1="198.0" x2="664" y2="198.0" stroke="#2a2e37" stroke-width="1"/><text x="30" y="202.0" fill="#6b7280" font-size="11" text-anchor="end">0</text><line x1="36" y1="117.0" x2="664" y2="117.0" stroke="#2a2e37" stroke-width="1"/><text x="30" y="121.0" fill="#6b7280" font-size="11" text-anchor="end">307</text><line x1="36" y1="36.0" x2="664" y2="36.0" stroke="#2a2e37" stroke-width="1"/><text x="30" y="40.0" fill="#6b7280" font-size="11" text-anchor="end">614</text>

<polyline fill="none" stroke="#8a5a5a" stroke-width="2.5" stroke-linejoin="round" points="36.0,129.1 43.5,129.1 51.0,129.1 58.4,129.1 65.9,129.1 73.4,129.1 80.9,129.1 88.3,129.1 95.8,129.1 103.3,129.1 110.8,129.1 118.2,129.1 125.7,129.1 133.2,129.1 140.7,129.1 148.1,129.1 155.6,129.1 163.1,129.1 170.6,129.1 178.0,129.1 185.5,129.1 193.0,129.1 200.5,129.1 208.0,129.1 215.4,129.1 222.9,129.1 230.4,129.1 237.9,129.1 245.3,129.1 252.8,129.1 260.3,129.1 267.8,129.1 275.2,129.1 282.7,129.1 290.2,129.1 297.7,129.1 305.1,129.1 312.6,129.1 320.1,129.1 327.6,129.1 335.0,129.1 342.5,129.1 350.0,129.1 357.5,129.1 365.0,129.1 372.4,129.1 379.9,129.1 387.4,129.1 394.9,129.1 402.3,129.1 409.8,142.9 417.3,142.9 424.8,142.9 432.2,142.9 439.7,142.9 447.2,142.9 454.7,142.9 462.1,142.9 469.6,142.9 477.1,142.9 484.6,142.9 492.0,142.9 499.5,142.9 507.0,142.9 514.5,142.9 522.0,142.9 529.4,142.9 536.9,142.9 544.4,142.9 551.9,142.9 559.3,142.9 566.8,142.9 574.3,142.9 581.8,142.9 589.2,142.9 596.7,142.9 604.2,142.9 611.7,142.9 619.1,142.9 626.6,142.9 634.1,142.9 641.6,142.9 649.0,142.9 656.5,142.9 664.0,158.4"/><circle cx="36.0" cy="129.1" r="3" fill="#8a5a5a"/><circle cx="43.5" cy="129.1" r="3" fill="#8a5a5a"/><circle cx="51.0" cy="129.1" r="3" fill="#8a5a5a"/><circle cx="58.4" cy="129.1" r="3" fill="#8a5a5a"/><circle cx="65.9" cy="129.1" r="3" fill="#8a5a5a"/><circle cx="73.4" cy="129.1" r="3" fill="#8a5a5a"/><circle cx="80.9" cy="129.1" r="3" fill="#8a5a5a"/><circle cx="88.3" cy="129.1" r="3" fill="#8a5a5a"/><circle cx="95.8" cy="129.1" r="3" fill="#8a5a5a"/><circle cx="103.3" cy="129.1" r="3" fill="#8a5a5a"/><circle cx="110.8" cy="129.1" r="3" fill="#8a5a5a"/><circle cx="118.2" cy="129.1" r="3" fill="#8a5a5a"/><circle cx="125.7" cy="129.1" r="3" fill="#8a5a5a"/><circle cx="133.2" cy="129.1" r="3" fill="#8a5a5a"/><circle cx="140.7" cy="129.1" r="3" fill="#8a5a5a"/><circle cx="148.1" cy="129.1" r="3" fill="#8a5a5a"/><circle cx="155.6" cy="129.1" r="3" fill="#8a5a5a"/><circle cx="163.1" cy="129.1" r="3" fill="#8a5a5a"/><circle cx="170.6" cy="129.1" r="3" fill="#8a5a5a"/><circle cx="178.0" cy="129.1" r="3" fill="#8a5a5a"/><circle cx="185.5" cy="129.1" r="3" fill="#8a5a5a"/><circle cx="193.0" cy="129.1" r="3" fill="#8a5a5a"/><circle cx="200.5" cy="129.1" r="3" fill="#8a5a5a"/><circle cx="208.0" cy="129.1" r="3" fill="#8a5a5a"/><circle cx="215.4" cy="129.1" r="3" fill="#8a5a5a"/><circle cx="222.9" cy="129.1" r="3" fill="#8a5a5a"/><circle cx="230.4" cy="129.1" r="3" fill="#8a5a5a"/><circle cx="237.9" cy="129.1" r="3" fill="#8a5a5a"/><circle cx="245.3" cy="129.1" r="3" fill="#8a5a5a"/><circle cx="252.8" cy="129.1" r="3" fill="#8a5a5a"/><circle cx="260.3" cy="129.1" r="3" fill="#8a5a5a"/><circle cx="267.8" cy="129.1" r="3" fill="#8a5a5a"/><circle cx="275.2" cy="129.1" r="3" fill="#8a5a5a"/><circle cx="282.7" cy="129.1" r="3" fill="#8a5a5a"/><circle cx="290.2" cy="129.1" r="3" fill="#8a5a5a"/><circle cx="297.7" cy="129.1" r="3" fill="#8a5a5a"/><circle cx="305.1" cy="129.1" r="3" fill="#8a5a5a"/><circle cx="312.6" cy="129.1" r="3" fill="#8a5a5a"/><circle cx="320.1" cy="129.1" r="3" fill="#8a5a5a"/><circle cx="327.6" cy="129.1" r="3" fill="#8a5a5a"/><circle cx="335.0" cy="129.1" r="3" fill="#8a5a5a"/><circle cx="342.5" cy="129.1" r="3" fill="#8a5a5a"/><circle cx="350.0" cy="129.1" r="3" fill="#8a5a5a"/><circle cx="357.5" cy="129.1" r="3" fill="#8a5a5a"/><circle cx="365.0" cy="129.1" r="3" fill="#8a5a5a"/><circle cx="372.4" cy="129.1" r="3" fill="#8a5a5a"/><circle cx="379.9" cy="129.1" r="3" fill="#8a5a5a"/><circle cx="387.4" cy="129.1" r="3" fill="#8a5a5a"/><circle cx="394.9" cy="129.1" r="3" fill="#8a5a5a"/><circle cx="402.3" cy="129.1" r="3" fill="#8a5a5a"/><circle cx="409.8" cy="142.9" r="3" fill="#8a5a5a"/><circle cx="417.3" cy="142.9" r="3" fill="#8a5a5a"/><circle cx="424.8" cy="142.9" r="3" fill="#8a5a5a"/><circle cx="432.2" cy="142.9" r="3" fill="#8a5a5a"/><circle cx="439.7" cy="142.9" r="3" fill="#8a5a5a"/><circle cx="447.2" cy="142.9" r="3" fill="#8a5a5a"/><circle cx="454.7" cy="142.9" r="3" fill="#8a5a5a"/><circle cx="462.1" cy="142.9" r="3" fill="#8a5a5a"/><circle cx="469.6" cy="142.9" r="3" fill="#8a5a5a"/><circle cx="477.1" cy="142.9" r="3" fill="#8a5a5a"/><circle cx="484.6" cy="142.9" r="3" fill="#8a5a5a"/><circle cx="492.0" cy="142.9" r="3" fill="#8a5a5a"/><circle cx="499.5" cy="142.9" r="3" fill="#8a5a5a"/><circle cx="507.0" cy="142.9" r="3" fill="#8a5a5a"/><circle cx="514.5" cy="142.9" r="3" fill="#8a5a5a"/><circle cx="522.0" cy="142.9" r="3" fill="#8a5a5a"/><circle cx="529.4" cy="142.9" r="3" fill="#8a5a5a"/><circle cx="536.9" cy="142.9" r="3" fill="#8a5a5a"/><circle cx="544.4" cy="142.9" r="3" fill="#8a5a5a"/><circle cx="551.9" cy="142.9" r="3" fill="#8a5a5a"/><circle cx="559.3" cy="142.9" r="3" fill="#8a5a5a"/><circle cx="566.8" cy="142.9" r="3" fill="#8a5a5a"/><circle cx="574.3" cy="142.9" r="3" fill="#8a5a5a"/><circle cx="581.8" cy="142.9" r="3" fill="#8a5a5a"/><circle cx="589.2" cy="142.9" r="3" fill="#8a5a5a"/><circle cx="596.7" cy="142.9" r="3" fill="#8a5a5a"/><circle cx="604.2" cy="142.9" r="3" fill="#8a5a5a"/><circle cx="611.7" cy="142.9" r="3" fill="#8a5a5a"/><circle cx="619.1" cy="142.9" r="3" fill="#8a5a5a"/><circle cx="626.6" cy="142.9" r="3" fill="#8a5a5a"/><circle cx="634.1" cy="142.9" r="3" fill="#8a5a5a"/><circle cx="641.6" cy="142.9" r="3" fill="#8a5a5a"/><circle cx="649.0" cy="142.9" r="3" fill="#8a5a5a"/><circle cx="656.5" cy="142.9" r="3" fill="#8a5a5a"/><circle cx="664.0" cy="158.4" r="3" fill="#8a5a5a"/>
<polyline fill="none" stroke="#3fb950" stroke-width="2.5" stroke-linejoin="round" points="36.0,198.0 43.5,198.0 51.0,198.0 58.4,198.0 65.9,198.0 73.4,198.0 80.9,198.0 88.3,198.0 95.8,198.0 103.3,198.0 110.8,198.0 118.2,198.0 125.7,198.0 133.2,198.0 140.7,198.0 148.1,198.0 155.6,198.0 163.1,198.0 170.6,198.0 178.0,198.0 185.5,198.0 193.0,198.0 200.5,198.0 208.0,198.0 215.4,198.0 222.9,198.0 230.4,198.0 237.9,198.0 245.3,198.0 252.8,198.0 260.3,198.0 267.8,198.0 275.2,198.0 282.7,198.0 290.2,198.0 297.7,198.0 305.1,198.0 312.6,198.0 320.1,198.0 327.6,198.0 335.0,198.0 342.5,198.0 350.0,198.0 357.5,189.8 365.0,189.8 372.4,189.8 379.9,189.8 387.4,189.8 394.9,189.8 402.3,189.8 409.8,191.4 417.3,191.4 424.8,188.5 432.2,188.5 439.7,188.5 447.2,188.5 454.7,188.5 462.1,188.2 469.6,188.2 477.1,188.2 484.6,188.0 492.0,188.0 499.5,188.0 507.0,188.0 514.5,188.0 522.0,188.0 529.4,188.0 536.9,188.0 544.4,188.0 551.9,188.0 559.3,188.0 566.8,188.0 574.3,188.0 581.8,188.0 589.2,188.0 596.7,188.0 604.2,188.0 611.7,188.0 619.1,188.0 626.6,188.0 634.1,188.0 641.6,186.7 649.0,186.7 656.5,186.7 664.0,188.5"/><circle cx="36.0" cy="198.0" r="3" fill="#3fb950"/><circle cx="43.5" cy="198.0" r="3" fill="#3fb950"/><circle cx="51.0" cy="198.0" r="3" fill="#3fb950"/><circle cx="58.4" cy="198.0" r="3" fill="#3fb950"/><circle cx="65.9" cy="198.0" r="3" fill="#3fb950"/><circle cx="73.4" cy="198.0" r="3" fill="#3fb950"/><circle cx="80.9" cy="198.0" r="3" fill="#3fb950"/><circle cx="88.3" cy="198.0" r="3" fill="#3fb950"/><circle cx="95.8" cy="198.0" r="3" fill="#3fb950"/><circle cx="103.3" cy="198.0" r="3" fill="#3fb950"/><circle cx="110.8" cy="198.0" r="3" fill="#3fb950"/><circle cx="118.2" cy="198.0" r="3" fill="#3fb950"/><circle cx="125.7" cy="198.0" r="3" fill="#3fb950"/><circle cx="133.2" cy="198.0" r="3" fill="#3fb950"/><circle cx="140.7" cy="198.0" r="3" fill="#3fb950"/><circle cx="148.1" cy="198.0" r="3" fill="#3fb950"/><circle cx="155.6" cy="198.0" r="3" fill="#3fb950"/><circle cx="163.1" cy="198.0" r="3" fill="#3fb950"/><circle cx="170.6" cy="198.0" r="3" fill="#3fb950"/><circle cx="178.0" cy="198.0" r="3" fill="#3fb950"/><circle cx="185.5" cy="198.0" r="3" fill="#3fb950"/><circle cx="193.0" cy="198.0" r="3" fill="#3fb950"/><circle cx="200.5" cy="198.0" r="3" fill="#3fb950"/><circle cx="208.0" cy="198.0" r="3" fill="#3fb950"/><circle cx="215.4" cy="198.0" r="3" fill="#3fb950"/><circle cx="222.9" cy="198.0" r="3" fill="#3fb950"/><circle cx="230.4" cy="198.0" r="3" fill="#3fb950"/><circle cx="237.9" cy="198.0" r="3" fill="#3fb950"/><circle cx="245.3" cy="198.0" r="3" fill="#3fb950"/><circle cx="252.8" cy="198.0" r="3" fill="#3fb950"/><circle cx="260.3" cy="198.0" r="3" fill="#3fb950"/><circle cx="267.8" cy="198.0" r="3" fill="#3fb950"/><circle cx="275.2" cy="198.0" r="3" fill="#3fb950"/><circle cx="282.7" cy="198.0" r="3" fill="#3fb950"/><circle cx="290.2" cy="198.0" r="3" fill="#3fb950"/><circle cx="297.7" cy="198.0" r="3" fill="#3fb950"/><circle cx="305.1" cy="198.0" r="3" fill="#3fb950"/><circle cx="312.6" cy="198.0" r="3" fill="#3fb950"/><circle cx="320.1" cy="198.0" r="3" fill="#3fb950"/><circle cx="327.6" cy="198.0" r="3" fill="#3fb950"/><circle cx="335.0" cy="198.0" r="3" fill="#3fb950"/><circle cx="342.5" cy="198.0" r="3" fill="#3fb950"/><circle cx="350.0" cy="198.0" r="3" fill="#3fb950"/><circle cx="357.5" cy="189.8" r="3" fill="#3fb950"/><circle cx="365.0" cy="189.8" r="3" fill="#3fb950"/><circle cx="372.4" cy="189.8" r="3" fill="#3fb950"/><circle cx="379.9" cy="189.8" r="3" fill="#3fb950"/><circle cx="387.4" cy="189.8" r="3" fill="#3fb950"/><circle cx="394.9" cy="189.8" r="3" fill="#3fb950"/><circle cx="402.3" cy="189.8" r="3" fill="#3fb950"/><circle cx="409.8" cy="191.4" r="3" fill="#3fb950"/><circle cx="417.3" cy="191.4" r="3" fill="#3fb950"/><circle cx="424.8" cy="188.5" r="3" fill="#3fb950"/><circle cx="432.2" cy="188.5" r="3" fill="#3fb950"/><circle cx="439.7" cy="188.5" r="3" fill="#3fb950"/><circle cx="447.2" cy="188.5" r="3" fill="#3fb950"/><circle cx="454.7" cy="188.5" r="3" fill="#3fb950"/><circle cx="462.1" cy="188.2" r="3" fill="#3fb950"/><circle cx="469.6" cy="188.2" r="3" fill="#3fb950"/><circle cx="477.1" cy="188.2" r="3" fill="#3fb950"/><circle cx="484.6" cy="188.0" r="3" fill="#3fb950"/><circle cx="492.0" cy="188.0" r="3" fill="#3fb950"/><circle cx="499.5" cy="188.0" r="3" fill="#3fb950"/><circle cx="507.0" cy="188.0" r="3" fill="#3fb950"/><circle cx="514.5" cy="188.0" r="3" fill="#3fb950"/><circle cx="522.0" cy="188.0" r="3" fill="#3fb950"/><circle cx="529.4" cy="188.0" r="3" fill="#3fb950"/><circle cx="536.9" cy="188.0" r="3" fill="#3fb950"/><circle cx="544.4" cy="188.0" r="3" fill="#3fb950"/><circle cx="551.9" cy="188.0" r="3" fill="#3fb950"/><circle cx="559.3" cy="188.0" r="3" fill="#3fb950"/><circle cx="566.8" cy="188.0" r="3" fill="#3fb950"/><circle cx="574.3" cy="188.0" r="3" fill="#3fb950"/><circle cx="581.8" cy="188.0" r="3" fill="#3fb950"/><circle cx="589.2" cy="188.0" r="3" fill="#3fb950"/><circle cx="596.7" cy="188.0" r="3" fill="#3fb950"/><circle cx="604.2" cy="188.0" r="3" fill="#3fb950"/><circle cx="611.7" cy="188.0" r="3" fill="#3fb950"/><circle cx="619.1" cy="188.0" r="3" fill="#3fb950"/><circle cx="626.6" cy="188.0" r="3" fill="#3fb950"/><circle cx="634.1" cy="188.0" r="3" fill="#3fb950"/><circle cx="641.6" cy="186.7" r="3" fill="#3fb950"/><circle cx="649.0" cy="186.7" r="3" fill="#3fb950"/><circle cx="656.5" cy="186.7" r="3" fill="#3fb950"/><circle cx="664.0" cy="188.5" r="3" fill="#3fb950"/>
<polyline fill="none" stroke="#4aa3ff" stroke-width="2.5" stroke-linejoin="round" points="36.0,128.1 43.5,128.1 51.0,128.1 58.4,128.1 65.9,128.1 73.4,128.1 80.9,128.1 88.3,128.1 95.8,128.1 103.3,128.1 110.8,128.1 118.2,128.1 125.7,128.1 133.2,128.1 140.7,128.1 148.1,117.5 155.6,112.5 163.1,108.8 170.6,108.8 178.0,97.7 185.5,97.7 193.0,97.7 200.5,89.0 208.0,89.0 215.4,89.0 222.9,85.1 230.4,84.5 237.9,84.5 245.3,84.0 252.8,84.0 260.3,83.2 267.8,81.6 275.2,79.8 282.7,79.3 290.2,79.3 297.7,79.3 305.1,79.3 312.6,79.3 320.1,79.3 327.6,79.3 335.0,79.3 342.5,79.3 350.0,79.3 357.5,87.4 365.0,87.4 372.4,87.4 379.9,87.4 387.4,87.4 394.9,84.3 402.3,77.2 409.8,48.7 417.3,48.7 424.8,51.6 432.2,51.6 439.7,51.6 447.2,51.6 454.7,51.6 462.1,51.8 469.6,51.8 477.1,51.8 484.6,52.1 492.0,52.1 499.5,52.1 507.0,52.1 514.5,52.1 522.0,52.1 529.4,52.1 536.9,52.1 544.4,52.1 551.9,52.1 559.3,52.1 566.8,52.1 574.3,52.1 581.8,52.1 589.2,52.1 596.7,52.1 604.2,52.1 611.7,52.1 619.1,52.1 626.6,52.1 634.1,52.1 641.6,53.4 649.0,53.4 656.5,53.4 664.0,36.0"/><circle cx="36.0" cy="128.1" r="3" fill="#4aa3ff"/><circle cx="43.5" cy="128.1" r="3" fill="#4aa3ff"/><circle cx="51.0" cy="128.1" r="3" fill="#4aa3ff"/><circle cx="58.4" cy="128.1" r="3" fill="#4aa3ff"/><circle cx="65.9" cy="128.1" r="3" fill="#4aa3ff"/><circle cx="73.4" cy="128.1" r="3" fill="#4aa3ff"/><circle cx="80.9" cy="128.1" r="3" fill="#4aa3ff"/><circle cx="88.3" cy="128.1" r="3" fill="#4aa3ff"/><circle cx="95.8" cy="128.1" r="3" fill="#4aa3ff"/><circle cx="103.3" cy="128.1" r="3" fill="#4aa3ff"/><circle cx="110.8" cy="128.1" r="3" fill="#4aa3ff"/><circle cx="118.2" cy="128.1" r="3" fill="#4aa3ff"/><circle cx="125.7" cy="128.1" r="3" fill="#4aa3ff"/><circle cx="133.2" cy="128.1" r="3" fill="#4aa3ff"/><circle cx="140.7" cy="128.1" r="3" fill="#4aa3ff"/><circle cx="148.1" cy="117.5" r="3" fill="#4aa3ff"/><circle cx="155.6" cy="112.5" r="3" fill="#4aa3ff"/><circle cx="163.1" cy="108.8" r="3" fill="#4aa3ff"/><circle cx="170.6" cy="108.8" r="3" fill="#4aa3ff"/><circle cx="178.0" cy="97.7" r="3" fill="#4aa3ff"/><circle cx="185.5" cy="97.7" r="3" fill="#4aa3ff"/><circle cx="193.0" cy="97.7" r="3" fill="#4aa3ff"/><circle cx="200.5" cy="89.0" r="3" fill="#4aa3ff"/><circle cx="208.0" cy="89.0" r="3" fill="#4aa3ff"/><circle cx="215.4" cy="89.0" r="3" fill="#4aa3ff"/><circle cx="222.9" cy="85.1" r="3" fill="#4aa3ff"/><circle cx="230.4" cy="84.5" r="3" fill="#4aa3ff"/><circle cx="237.9" cy="84.5" r="3" fill="#4aa3ff"/><circle cx="245.3" cy="84.0" r="3" fill="#4aa3ff"/><circle cx="252.8" cy="84.0" r="3" fill="#4aa3ff"/><circle cx="260.3" cy="83.2" r="3" fill="#4aa3ff"/><circle cx="267.8" cy="81.6" r="3" fill="#4aa3ff"/><circle cx="275.2" cy="79.8" r="3" fill="#4aa3ff"/><circle cx="282.7" cy="79.3" r="3" fill="#4aa3ff"/><circle cx="290.2" cy="79.3" r="3" fill="#4aa3ff"/><circle cx="297.7" cy="79.3" r="3" fill="#4aa3ff"/><circle cx="305.1" cy="79.3" r="3" fill="#4aa3ff"/><circle cx="312.6" cy="79.3" r="3" fill="#4aa3ff"/><circle cx="320.1" cy="79.3" r="3" fill="#4aa3ff"/><circle cx="327.6" cy="79.3" r="3" fill="#4aa3ff"/><circle cx="335.0" cy="79.3" r="3" fill="#4aa3ff"/><circle cx="342.5" cy="79.3" r="3" fill="#4aa3ff"/><circle cx="350.0" cy="79.3" r="3" fill="#4aa3ff"/><circle cx="357.5" cy="87.4" r="3" fill="#4aa3ff"/><circle cx="365.0" cy="87.4" r="3" fill="#4aa3ff"/><circle cx="372.4" cy="87.4" r="3" fill="#4aa3ff"/><circle cx="379.9" cy="87.4" r="3" fill="#4aa3ff"/><circle cx="387.4" cy="87.4" r="3" fill="#4aa3ff"/><circle cx="394.9" cy="84.3" r="3" fill="#4aa3ff"/><circle cx="402.3" cy="77.2" r="3" fill="#4aa3ff"/><circle cx="409.8" cy="48.7" r="3" fill="#4aa3ff"/><circle cx="417.3" cy="48.7" r="3" fill="#4aa3ff"/><circle cx="424.8" cy="51.6" r="3" fill="#4aa3ff"/><circle cx="432.2" cy="51.6" r="3" fill="#4aa3ff"/><circle cx="439.7" cy="51.6" r="3" fill="#4aa3ff"/><circle cx="447.2" cy="51.6" r="3" fill="#4aa3ff"/><circle cx="454.7" cy="51.6" r="3" fill="#4aa3ff"/><circle cx="462.1" cy="51.8" r="3" fill="#4aa3ff"/><circle cx="469.6" cy="51.8" r="3" fill="#4aa3ff"/><circle cx="477.1" cy="51.8" r="3" fill="#4aa3ff"/><circle cx="484.6" cy="52.1" r="3" fill="#4aa3ff"/><circle cx="492.0" cy="52.1" r="3" fill="#4aa3ff"/><circle cx="499.5" cy="52.1" r="3" fill="#4aa3ff"/><circle cx="507.0" cy="52.1" r="3" fill="#4aa3ff"/><circle cx="514.5" cy="52.1" r="3" fill="#4aa3ff"/><circle cx="522.0" cy="52.1" r="3" fill="#4aa3ff"/><circle cx="529.4" cy="52.1" r="3" fill="#4aa3ff"/><circle cx="536.9" cy="52.1" r="3" fill="#4aa3ff"/><circle cx="544.4" cy="52.1" r="3" fill="#4aa3ff"/><circle cx="551.9" cy="52.1" r="3" fill="#4aa3ff"/><circle cx="559.3" cy="52.1" r="3" fill="#4aa3ff"/><circle cx="566.8" cy="52.1" r="3" fill="#4aa3ff"/><circle cx="574.3" cy="52.1" r="3" fill="#4aa3ff"/><circle cx="581.8" cy="52.1" r="3" fill="#4aa3ff"/><circle cx="589.2" cy="52.1" r="3" fill="#4aa3ff"/><circle cx="596.7" cy="52.1" r="3" fill="#4aa3ff"/><circle cx="604.2" cy="52.1" r="3" fill="#4aa3ff"/><circle cx="611.7" cy="52.1" r="3" fill="#4aa3ff"/><circle cx="619.1" cy="52.1" r="3" fill="#4aa3ff"/><circle cx="626.6" cy="52.1" r="3" fill="#4aa3ff"/><circle cx="634.1" cy="52.1" r="3" fill="#4aa3ff"/><circle cx="641.6" cy="53.4" r="3" fill="#4aa3ff"/><circle cx="649.0" cy="53.4" r="3" fill="#4aa3ff"/><circle cx="656.5" cy="53.4" r="3" fill="#4aa3ff"/><circle cx="664.0" cy="36.0" r="3" fill="#4aa3ff"/>
<text x="36" y="225" fill="#6b7280" font-size="11">2026-06-26</text>
<text x="664" y="225" fill="#6b7280" font-size="11" text-anchor="end">2026-07-05</text>
<text x="36" y="212" font-family="system-ui,sans-serif" font-size="11">
<tspan fill="#4aa3ff">&#9679; open FPs</tspan>  <tspan fill="#3fb950">&#9679; closed (Anthropic acting)</tspan>  <tspan fill="#8a5a5a">&#9679; harness withdrawn</tspan></text>
<text x="664" y="22" text-anchor="end" font-family="system-ui,sans-serif" font-size="12">
<tspan fill="#4aa3ff">open 614</tspan>  <tspan fill="#3fb950">closed 36</tspan>  <tspan fill="#8a5a5a">harness 150</tspan></text>
</svg>