<svg xmlns="http://www.w3.org/2000/svg" width="700" height="234" viewBox="0 0 700 234" role="img">
<rect width="700" height="234" rx="12" fill="#16181d"/>
<text x="36" y="22" fill="#e8eaed" font-family="system-ui,sans-serif" font-size="14" font-weight="700">Is Anthropic acting? cyber/aup false positives over time</text>
<line x1="36" y1="198.0" x2="664" y2="198.0" stroke="#2a2e37" stroke-width="1"/><text x="30" y="202.0" fill="#6b7280" font-size="11" text-anchor="end">0</text><line x1="36" y1="117.0" x2="664" y2="117.0" stroke="#2a2e37" stroke-width="1"/><text x="30" y="121.0" fill="#6b7280" font-size="11" text-anchor="end">283</text><line x1="36" y1="36.0" x2="664" y2="36.0" stroke="#2a2e37" stroke-width="1"/><text x="30" y="40.0" fill="#6b7280" font-size="11" text-anchor="end">566</text>

<polyline fill="none" stroke="#8a5a5a" stroke-width="2.5" stroke-linejoin="round" points="36.0,123.3 47.0,123.3 58.0,123.3 69.1,123.3 80.1,123.3 91.1,123.3 102.1,123.3 113.1,123.3 124.1,123.3 135.2,123.3 146.2,123.3 157.2,123.3 168.2,123.3 179.2,123.3 190.2,123.3 201.3,123.3 212.3,123.3 223.3,123.3 234.3,123.3 245.3,123.3 256.4,123.3 267.4,123.3 278.4,123.3 289.4,123.3 300.4,123.3 311.4,123.3 322.5,123.3 333.5,123.3 344.5,123.3 355.5,123.3 366.5,123.3 377.5,123.3 388.6,123.3 399.6,123.3 410.6,123.3 421.6,123.3 432.6,123.3 443.6,123.3 454.7,123.3 465.7,123.3 476.7,123.3 487.7,123.3 498.7,123.3 509.8,123.3 520.8,123.3 531.8,123.3 542.8,123.3 553.8,123.3 564.8,123.3 575.9,123.3 586.9,138.2 597.9,138.2 608.9,138.2 619.9,138.2 630.9,138.2 642.0,138.2 653.0,138.2 664.0,138.2"/><circle cx="36.0" cy="123.3" r="3" fill="#8a5a5a"/><circle cx="47.0" cy="123.3" r="3" fill="#8a5a5a"/><circle cx="58.0" cy="123.3" r="3" fill="#8a5a5a"/><circle cx="69.1" cy="123.3" r="3" fill="#8a5a5a"/><circle cx="80.1" cy="123.3" r="3" fill="#8a5a5a"/><circle cx="91.1" cy="123.3" r="3" fill="#8a5a5a"/><circle cx="102.1" cy="123.3" r="3" fill="#8a5a5a"/><circle cx="113.1" cy="123.3" r="3" fill="#8a5a5a"/><circle cx="124.1" cy="123.3" r="3" fill="#8a5a5a"/><circle cx="135.2" cy="123.3" r="3" fill="#8a5a5a"/><circle cx="146.2" cy="123.3" r="3" fill="#8a5a5a"/><circle cx="157.2" cy="123.3" r="3" fill="#8a5a5a"/><circle cx="168.2" cy="123.3" r="3" fill="#8a5a5a"/><circle cx="179.2" cy="123.3" r="3" fill="#8a5a5a"/><circle cx="190.2" cy="123.3" r="3" fill="#8a5a5a"/><circle cx="201.3" cy="123.3" r="3" fill="#8a5a5a"/><circle cx="212.3" cy="123.3" r="3" fill="#8a5a5a"/><circle cx="223.3" cy="123.3" r="3" fill="#8a5a5a"/><circle cx="234.3" cy="123.3" r="3" fill="#8a5a5a"/><circle cx="245.3" cy="123.3" r="3" fill="#8a5a5a"/><circle cx="256.4" cy="123.3" r="3" fill="#8a5a5a"/><circle cx="267.4" cy="123.3" r="3" fill="#8a5a5a"/><circle cx="278.4" cy="123.3" r="3" fill="#8a5a5a"/><circle cx="289.4" cy="123.3" r="3" fill="#8a5a5a"/><circle cx="300.4" cy="123.3" r="3" fill="#8a5a5a"/><circle cx="311.4" cy="123.3" r="3" fill="#8a5a5a"/><circle cx="322.5" cy="123.3" r="3" fill="#8a5a5a"/><circle cx="333.5" cy="123.3" r="3" fill="#8a5a5a"/><circle cx="344.5" cy="123.3" r="3" fill="#8a5a5a"/><circle cx="355.5" cy="123.3" r="3" fill="#8a5a5a"/><circle cx="366.5" cy="123.3" r="3" fill="#8a5a5a"/><circle cx="377.5" cy="123.3" r="3" fill="#8a5a5a"/><circle cx="388.6" cy="123.3" r="3" fill="#8a5a5a"/><circle cx="399.6" cy="123.3" r="3" fill="#8a5a5a"/><circle cx="410.6" cy="123.3" r="3" fill="#8a5a5a"/><circle cx="421.6" cy="123.3" r="3" fill="#8a5a5a"/><circle cx="432.6" cy="123.3" r="3" fill="#8a5a5a"/><circle cx="443.6" cy="123.3" r="3" fill="#8a5a5a"/><circle cx="454.7" cy="123.3" r="3" fill="#8a5a5a"/><circle cx="465.7" cy="123.3" r="3" fill="#8a5a5a"/><circle cx="476.7" cy="123.3" r="3" fill="#8a5a5a"/><circle cx="487.7" cy="123.3" r="3" fill="#8a5a5a"/><circle cx="498.7" cy="123.3" r="3" fill="#8a5a5a"/><circle cx="509.8" cy="123.3" r="3" fill="#8a5a5a"/><circle cx="520.8" cy="123.3" r="3" fill="#8a5a5a"/><circle cx="531.8" cy="123.3" r="3" fill="#8a5a5a"/><circle cx="542.8" cy="123.3" r="3" fill="#8a5a5a"/><circle cx="553.8" cy="123.3" r="3" fill="#8a5a5a"/><circle cx="564.8" cy="123.3" r="3" fill="#8a5a5a"/><circle cx="575.9" cy="123.3" r="3" fill="#8a5a5a"/><circle cx="586.9" cy="138.2" r="3" fill="#8a5a5a"/><circle cx="597.9" cy="138.2" r="3" fill="#8a5a5a"/><circle cx="608.9" cy="138.2" r="3" fill="#8a5a5a"/><circle cx="619.9" cy="138.2" r="3" fill="#8a5a5a"/><circle cx="630.9" cy="138.2" r="3" fill="#8a5a5a"/><circle cx="642.0" cy="138.2" r="3" fill="#8a5a5a"/><circle cx="653.0" cy="138.2" r="3" fill="#8a5a5a"/><circle cx="664.0" cy="138.2" r="3" fill="#8a5a5a"/>
<polyline fill="none" stroke="#3fb950" stroke-width="2.5" stroke-linejoin="round" points="36.0,198.0 47.0,198.0 58.0,198.0 69.1,198.0 80.1,198.0 91.1,198.0 102.1,198.0 113.1,198.0 124.1,198.0 135.2,198.0 146.2,198.0 157.2,198.0 168.2,198.0 179.2,198.0 190.2,198.0 201.3,198.0 212.3,198.0 223.3,198.0 234.3,198.0 245.3,198.0 256.4,198.0 267.4,198.0 278.4,198.0 289.4,198.0 300.4,198.0 311.4,198.0 322.5,198.0 333.5,198.0 344.5,198.0 355.5,198.0 366.5,198.0 377.5,198.0 388.6,198.0 399.6,198.0 410.6,198.0 421.6,198.0 432.6,198.0 443.6,198.0 454.7,198.0 465.7,198.0 476.7,198.0 487.7,198.0 498.7,198.0 509.8,189.1 520.8,189.1 531.8,189.1 542.8,189.1 553.8,189.1 564.8,189.1 575.9,189.1 586.9,190.8 597.9,190.8 608.9,187.7 619.9,187.7 630.9,187.7 642.0,187.7 653.0,187.7 664.0,187.4"/><circle cx="36.0" cy="198.0" r="3" fill="#3fb950"/><circle cx="47.0" cy="198.0" r="3" fill="#3fb950"/><circle cx="58.0" cy="198.0" r="3" fill="#3fb950"/><circle cx="69.1" cy="198.0" r="3" fill="#3fb950"/><circle cx="80.1" cy="198.0" r="3" fill="#3fb950"/><circle cx="91.1" cy="198.0" r="3" fill="#3fb950"/><circle cx="102.1" cy="198.0" r="3" fill="#3fb950"/><circle cx="113.1" cy="198.0" r="3" fill="#3fb950"/><circle cx="124.1" cy="198.0" r="3" fill="#3fb950"/><circle cx="135.2" cy="198.0" r="3" fill="#3fb950"/><circle cx="146.2" cy="198.0" r="3" fill="#3fb950"/><circle cx="157.2" cy="198.0" r="3" fill="#3fb950"/><circle cx="168.2" cy="198.0" r="3" fill="#3fb950"/><circle cx="179.2" cy="198.0" r="3" fill="#3fb950"/><circle cx="190.2" cy="198.0" r="3" fill="#3fb950"/><circle cx="201.3" cy="198.0" r="3" fill="#3fb950"/><circle cx="212.3" cy="198.0" r="3" fill="#3fb950"/><circle cx="223.3" cy="198.0" r="3" fill="#3fb950"/><circle cx="234.3" cy="198.0" r="3" fill="#3fb950"/><circle cx="245.3" cy="198.0" r="3" fill="#3fb950"/><circle cx="256.4" cy="198.0" r="3" fill="#3fb950"/><circle cx="267.4" cy="198.0" r="3" fill="#3fb950"/><circle cx="278.4" cy="198.0" r="3" fill="#3fb950"/><circle cx="289.4" cy="198.0" r="3" fill="#3fb950"/><circle cx="300.4" cy="198.0" r="3" fill="#3fb950"/><circle cx="311.4" cy="198.0" r="3" fill="#3fb950"/><circle cx="322.5" cy="198.0" r="3" fill="#3fb950"/><circle cx="333.5" cy="198.0" r="3" fill="#3fb950"/><circle cx="344.5" cy="198.0" r="3" fill="#3fb950"/><circle cx="355.5" cy="198.0" r="3" fill="#3fb950"/><circle cx="366.5" cy="198.0" r="3" fill="#3fb950"/><circle cx="377.5" cy="198.0" r="3" fill="#3fb950"/><circle cx="388.6" cy="198.0" r="3" fill="#3fb950"/><circle cx="399.6" cy="198.0" r="3" fill="#3fb950"/><circle cx="410.6" cy="198.0" r="3" fill="#3fb950"/><circle cx="421.6" cy="198.0" r="3" fill="#3fb950"/><circle cx="432.6" cy="198.0" r="3" fill="#3fb950"/><circle cx="443.6" cy="198.0" r="3" fill="#3fb950"/><circle cx="454.7" cy="198.0" r="3" fill="#3fb950"/><circle cx="465.7" cy="198.0" r="3" fill="#3fb950"/><circle cx="476.7" cy="198.0" r="3" fill="#3fb950"/><circle cx="487.7" cy="198.0" r="3" fill="#3fb950"/><circle cx="498.7" cy="198.0" r="3" fill="#3fb950"/><circle cx="509.8" cy="189.1" r="3" fill="#3fb950"/><circle cx="520.8" cy="189.1" r="3" fill="#3fb950"/><circle cx="531.8" cy="189.1" r="3" fill="#3fb950"/><circle cx="542.8" cy="189.1" r="3" fill="#3fb950"/><circle cx="553.8" cy="189.1" r="3" fill="#3fb950"/><circle cx="564.8" cy="189.1" r="3" fill="#3fb950"/><circle cx="575.9" cy="189.1" r="3" fill="#3fb950"/><circle cx="586.9" cy="190.8" r="3" fill="#3fb950"/><circle cx="597.9" cy="190.8" r="3" fill="#3fb950"/><circle cx="608.9" cy="187.7" r="3" fill="#3fb950"/><circle cx="619.9" cy="187.7" r="3" fill="#3fb950"/><circle cx="630.9" cy="187.7" r="3" fill="#3fb950"/><circle cx="642.0" cy="187.7" r="3" fill="#3fb950"/><circle cx="653.0" cy="187.7" r="3" fill="#3fb950"/><circle cx="664.0" cy="187.4" r="3" fill="#3fb950"/>
<polyline fill="none" stroke="#4aa3ff" stroke-width="2.5" stroke-linejoin="round" points="36.0,122.2 47.0,122.2 58.0,122.2 69.1,122.2 80.1,122.2 91.1,122.2 102.1,122.2 113.1,122.2 124.1,122.2 135.2,122.2 146.2,122.2 157.2,122.2 168.2,122.2 179.2,122.2 190.2,122.2 201.3,110.7 212.3,105.3 223.3,101.3 234.3,101.3 245.3,89.2 256.4,89.2 267.4,89.2 278.4,79.8 289.4,79.8 300.4,79.8 311.4,75.5 322.5,74.9 333.5,74.9 344.5,74.4 355.5,74.4 366.5,73.5 377.5,71.8 388.6,69.8 399.6,69.2 410.6,69.2 421.6,69.2 432.6,69.2 443.6,69.2 454.7,69.2 465.7,69.2 476.7,69.2 487.7,69.2 498.7,69.2 509.8,78.1 520.8,78.1 531.8,78.1 542.8,78.1 553.8,78.1 564.8,74.6 575.9,66.9 586.9,36.0 597.9,36.0 608.9,39.1 619.9,39.1 630.9,39.1 642.0,39.1 653.0,39.1 664.0,39.4"/><circle cx="36.0" cy="122.2" r="3" fill="#4aa3ff"/><circle cx="47.0" cy="122.2" r="3" fill="#4aa3ff"/><circle cx="58.0" cy="122.2" r="3" fill="#4aa3ff"/><circle cx="69.1" cy="122.2" r="3" fill="#4aa3ff"/><circle cx="80.1" cy="122.2" r="3" fill="#4aa3ff"/><circle cx="91.1" cy="122.2" r="3" fill="#4aa3ff"/><circle cx="102.1" cy="122.2" r="3" fill="#4aa3ff"/><circle cx="113.1" cy="122.2" r="3" fill="#4aa3ff"/><circle cx="124.1" cy="122.2" r="3" fill="#4aa3ff"/><circle cx="135.2" cy="122.2" r="3" fill="#4aa3ff"/><circle cx="146.2" cy="122.2" r="3" fill="#4aa3ff"/><circle cx="157.2" cy="122.2" r="3" fill="#4aa3ff"/><circle cx="168.2" cy="122.2" r="3" fill="#4aa3ff"/><circle cx="179.2" cy="122.2" r="3" fill="#4aa3ff"/><circle cx="190.2" cy="122.2" r="3" fill="#4aa3ff"/><circle cx="201.3" cy="110.7" r="3" fill="#4aa3ff"/><circle cx="212.3" cy="105.3" r="3" fill="#4aa3ff"/><circle cx="223.3" cy="101.3" r="3" fill="#4aa3ff"/><circle cx="234.3" cy="101.3" r="3" fill="#4aa3ff"/><circle cx="245.3" cy="89.2" r="3" fill="#4aa3ff"/><circle cx="256.4" cy="89.2" r="3" fill="#4aa3ff"/><circle cx="267.4" cy="89.2" r="3" fill="#4aa3ff"/><circle cx="278.4" cy="79.8" r="3" fill="#4aa3ff"/><circle cx="289.4" cy="79.8" r="3" fill="#4aa3ff"/><circle cx="300.4" cy="79.8" r="3" fill="#4aa3ff"/><circle cx="311.4" cy="75.5" r="3" fill="#4aa3ff"/><circle cx="322.5" cy="74.9" r="3" fill="#4aa3ff"/><circle cx="333.5" cy="74.9" r="3" fill="#4aa3ff"/><circle cx="344.5" cy="74.4" r="3" fill="#4aa3ff"/><circle cx="355.5" cy="74.4" r="3" fill="#4aa3ff"/><circle cx="366.5" cy="73.5" r="3" fill="#4aa3ff"/><circle cx="377.5" cy="71.8" r="3" fill="#4aa3ff"/><circle cx="388.6" cy="69.8" r="3" fill="#4aa3ff"/><circle cx="399.6" cy="69.2" r="3" fill="#4aa3ff"/><circle cx="410.6" cy="69.2" r="3" fill="#4aa3ff"/><circle cx="421.6" cy="69.2" r="3" fill="#4aa3ff"/><circle cx="432.6" cy="69.2" r="3" fill="#4aa3ff"/><circle cx="443.6" cy="69.2" r="3" fill="#4aa3ff"/><circle cx="454.7" cy="69.2" r="3" fill="#4aa3ff"/><circle cx="465.7" cy="69.2" r="3" fill="#4aa3ff"/><circle cx="476.7" cy="69.2" r="3" fill="#4aa3ff"/><circle cx="487.7" cy="69.2" r="3" fill="#4aa3ff"/><circle cx="498.7" cy="69.2" r="3" fill="#4aa3ff"/><circle cx="509.8" cy="78.1" r="3" fill="#4aa3ff"/><circle cx="520.8" cy="78.1" r="3" fill="#4aa3ff"/><circle cx="531.8" cy="78.1" r="3" fill="#4aa3ff"/><circle cx="542.8" cy="78.1" r="3" fill="#4aa3ff"/><circle cx="553.8" cy="78.1" r="3" fill="#4aa3ff"/><circle cx="564.8" cy="74.6" r="3" fill="#4aa3ff"/><circle cx="575.9" cy="66.9" r="3" fill="#4aa3ff"/><circle cx="586.9" cy="36.0" r="3" fill="#4aa3ff"/><circle cx="597.9" cy="36.0" r="3" fill="#4aa3ff"/><circle cx="608.9" cy="39.1" r="3" fill="#4aa3ff"/><circle cx="619.9" cy="39.1" r="3" fill="#4aa3ff"/><circle cx="630.9" cy="39.1" r="3" fill="#4aa3ff"/><circle cx="642.0" cy="39.1" r="3" fill="#4aa3ff"/><circle cx="653.0" cy="39.1" r="3" fill="#4aa3ff"/><circle cx="664.0" cy="39.4" r="3" fill="#4aa3ff"/>
<text x="36" y="225" fill="#6b7280" font-size="11">2026-06-26</text>
<text x="664" y="225" fill="#6b7280" font-size="11" text-anchor="end">2026-07-02</text>
<text x="36" y="212" font-family="system-ui,sans-serif" font-size="11">
<tspan fill="#4aa3ff">&#9679; open FPs</tspan>  <tspan fill="#3fb950">&#9679; closed (Anthropic acting)</tspan>  <tspan fill="#8a5a5a">&#9679; harness withdrawn</tspan></text>
<text x="664" y="22" text-anchor="end" font-family="system-ui,sans-serif" font-size="12">
<tspan fill="#4aa3ff">open 554</tspan>  <tspan fill="#3fb950">closed 37</tspan>  <tspan fill="#8a5a5a">harness 209</tspan></text>
</svg>