<svg xmlns="http://www.w3.org/2000/svg" width="700" height="234" viewBox="0 0 700 234" role="img">
<rect width="700" height="234" rx="12" fill="#16181d"/>
<text x="36" y="22" fill="#e8eaed" font-family="system-ui,sans-serif" font-size="14" font-weight="700">Is Anthropic acting? cyber/aup false positives over time</text>
<line x1="36" y1="198.0" x2="664" y2="198.0" stroke="#2a2e37" stroke-width="1"/><text x="30" y="202.0" fill="#6b7280" font-size="11" text-anchor="end">0</text><line x1="36" y1="117.0" x2="664" y2="117.0" stroke="#2a2e37" stroke-width="1"/><text x="30" y="121.0" fill="#6b7280" font-size="11" text-anchor="end">400</text><line x1="36" y1="36.0" x2="664" y2="36.0" stroke="#2a2e37" stroke-width="1"/><text x="30" y="40.0" fill="#6b7280" font-size="11" text-anchor="end">800</text>

<polyline fill="none" stroke="#8a5a5a" stroke-width="2.5" stroke-linejoin="round" points="36.0,145.1 41.5,145.1 47.0,145.1 52.5,145.1 58.0,145.1 63.5,145.1 69.1,145.1 74.6,145.1 80.1,145.1 85.6,145.1 91.1,145.1 96.6,145.1 102.1,145.1 107.6,145.1 113.1,145.1 118.6,145.1 124.1,145.1 129.6,145.1 135.2,145.1 140.7,145.1 146.2,145.1 151.7,145.1 157.2,145.1 162.7,145.1 168.2,145.1 173.7,145.1 179.2,145.1 184.7,145.1 190.2,145.1 195.8,145.1 201.3,145.1 206.8,145.1 212.3,145.1 217.8,145.1 223.3,145.1 228.8,145.1 234.3,145.1 239.8,145.1 245.3,145.1 250.8,145.1 256.4,145.1 261.9,145.1 267.4,145.1 272.9,145.1 278.4,145.1 283.9,145.1 289.4,145.1 294.9,145.1 300.4,145.1 305.9,145.1 311.4,155.7 316.9,155.7 322.5,155.7 328.0,155.7 333.5,155.7 339.0,155.7 344.5,155.7 350.0,155.7 355.5,155.7 361.0,155.7 366.5,155.7 372.0,155.7 377.5,155.7 383.1,155.7 388.6,155.7 394.1,155.7 399.6,155.7 405.1,155.7 410.6,155.7 416.1,155.7 421.6,155.7 427.1,155.7 432.6,155.7 438.1,155.7 443.6,155.7 449.2,155.7 454.7,155.7 460.2,155.7 465.7,155.7 471.2,155.7 476.7,155.7 482.2,155.7 487.7,155.7 493.2,155.7 498.7,167.6 504.2,167.6 509.8,170.3 515.3,170.3 520.8,170.5 526.3,170.7 531.8,170.7 537.3,170.9 542.8,172.7 548.3,180.6 553.8,181.8 559.3,189.1 564.8,190.5 570.4,195.2 575.9,198.0 581.4,198.0 586.9,198.0 592.4,198.0 597.9,198.0 603.4,198.0 608.9,198.0 614.4,198.0 619.9,198.0 625.4,198.0 630.9,198.0 636.5,198.0 642.0,198.0 647.5,198.0 653.0,198.0 658.5,198.0 664.0,198.0"/><circle cx="36.0" cy="145.1" r="3" fill="#8a5a5a"/><circle cx="41.5" cy="145.1" r="3" fill="#8a5a5a"/><circle cx="47.0" cy="145.1" r="3" fill="#8a5a5a"/><circle cx="52.5" cy="145.1" r="3" fill="#8a5a5a"/><circle cx="58.0" cy="145.1" r="3" fill="#8a5a5a"/><circle cx="63.5" cy="145.1" r="3" fill="#8a5a5a"/><circle cx="69.1" cy="145.1" r="3" fill="#8a5a5a"/><circle cx="74.6" cy="145.1" r="3" fill="#8a5a5a"/><circle cx="80.1" cy="145.1" r="3" fill="#8a5a5a"/><circle cx="85.6" cy="145.1" r="3" fill="#8a5a5a"/><circle cx="91.1" cy="145.1" r="3" fill="#8a5a5a"/><circle cx="96.6" cy="145.1" r="3" fill="#8a5a5a"/><circle cx="102.1" cy="145.1" r="3" fill="#8a5a5a"/><circle cx="107.6" cy="145.1" r="3" fill="#8a5a5a"/><circle cx="113.1" cy="145.1" r="3" fill="#8a5a5a"/><circle cx="118.6" cy="145.1" r="3" fill="#8a5a5a"/><circle cx="124.1" cy="145.1" r="3" fill="#8a5a5a"/><circle cx="129.6" cy="145.1" r="3" fill="#8a5a5a"/><circle cx="135.2" cy="145.1" r="3" fill="#8a5a5a"/><circle cx="140.7" cy="145.1" r="3" fill="#8a5a5a"/><circle cx="146.2" cy="145.1" r="3" fill="#8a5a5a"/><circle cx="151.7" cy="145.1" r="3" fill="#8a5a5a"/><circle cx="157.2" cy="145.1" r="3" fill="#8a5a5a"/><circle cx="162.7" cy="145.1" r="3" fill="#8a5a5a"/><circle cx="168.2" cy="145.1" r="3" fill="#8a5a5a"/><circle cx="173.7" cy="145.1" r="3" fill="#8a5a5a"/><circle cx="179.2" cy="145.1" r="3" fill="#8a5a5a"/><circle cx="184.7" cy="145.1" r="3" fill="#8a5a5a"/><circle cx="190.2" cy="145.1" r="3" fill="#8a5a5a"/><circle cx="195.8" cy="145.1" r="3" fill="#8a5a5a"/><circle cx="201.3" cy="145.1" r="3" fill="#8a5a5a"/><circle cx="206.8" cy="145.1" r="3" fill="#8a5a5a"/><circle cx="212.3" cy="145.1" r="3" fill="#8a5a5a"/><circle cx="217.8" cy="145.1" r="3" fill="#8a5a5a"/><circle cx="223.3" cy="145.1" r="3" fill="#8a5a5a"/><circle cx="228.8" cy="145.1" r="3" fill="#8a5a5a"/><circle cx="234.3" cy="145.1" r="3" fill="#8a5a5a"/><circle cx="239.8" cy="145.1" r="3" fill="#8a5a5a"/><circle cx="245.3" cy="145.1" r="3" fill="#8a5a5a"/><circle cx="250.8" cy="145.1" r="3" fill="#8a5a5a"/><circle cx="256.4" cy="145.1" r="3" fill="#8a5a5a"/><circle cx="261.9" cy="145.1" r="3" fill="#8a5a5a"/><circle cx="267.4" cy="145.1" r="3" fill="#8a5a5a"/><circle cx="272.9" cy="145.1" r="3" fill="#8a5a5a"/><circle cx="278.4" cy="145.1" r="3" fill="#8a5a5a"/><circle cx="283.9" cy="145.1" r="3" fill="#8a5a5a"/><circle cx="289.4" cy="145.1" r="3" fill="#8a5a5a"/><circle cx="294.9" cy="145.1" r="3" fill="#8a5a5a"/><circle cx="300.4" cy="145.1" r="3" fill="#8a5a5a"/><circle cx="305.9" cy="145.1" r="3" fill="#8a5a5a"/><circle cx="311.4" cy="155.7" r="3" fill="#8a5a5a"/><circle cx="316.9" cy="155.7" r="3" fill="#8a5a5a"/><circle cx="322.5" cy="155.7" r="3" fill="#8a5a5a"/><circle cx="328.0" cy="155.7" r="3" fill="#8a5a5a"/><circle cx="333.5" cy="155.7" r="3" fill="#8a5a5a"/><circle cx="339.0" cy="155.7" r="3" fill="#8a5a5a"/><circle cx="344.5" cy="155.7" r="3" fill="#8a5a5a"/><circle cx="350.0" cy="155.7" r="3" fill="#8a5a5a"/><circle cx="355.5" cy="155.7" r="3" fill="#8a5a5a"/><circle cx="361.0" cy="155.7" r="3" fill="#8a5a5a"/><circle cx="366.5" cy="155.7" r="3" fill="#8a5a5a"/><circle cx="372.0" cy="155.7" r="3" fill="#8a5a5a"/><circle cx="377.5" cy="155.7" r="3" fill="#8a5a5a"/><circle cx="383.1" cy="155.7" r="3" fill="#8a5a5a"/><circle cx="388.6" cy="155.7" r="3" fill="#8a5a5a"/><circle cx="394.1" cy="155.7" r="3" fill="#8a5a5a"/><circle cx="399.6" cy="155.7" r="3" fill="#8a5a5a"/><circle cx="405.1" cy="155.7" r="3" fill="#8a5a5a"/><circle cx="410.6" cy="155.7" r="3" fill="#8a5a5a"/><circle cx="416.1" cy="155.7" r="3" fill="#8a5a5a"/><circle cx="421.6" cy="155.7" r="3" fill="#8a5a5a"/><circle cx="427.1" cy="155.7" r="3" fill="#8a5a5a"/><circle cx="432.6" cy="155.7" r="3" fill="#8a5a5a"/><circle cx="438.1" cy="155.7" r="3" fill="#8a5a5a"/><circle cx="443.6" cy="155.7" r="3" fill="#8a5a5a"/><circle cx="449.2" cy="155.7" r="3" fill="#8a5a5a"/><circle cx="454.7" cy="155.7" r="3" fill="#8a5a5a"/><circle cx="460.2" cy="155.7" r="3" fill="#8a5a5a"/><circle cx="465.7" cy="155.7" r="3" fill="#8a5a5a"/><circle cx="471.2" cy="155.7" r="3" fill="#8a5a5a"/><circle cx="476.7" cy="155.7" r="3" fill="#8a5a5a"/><circle cx="482.2" cy="155.7" r="3" fill="#8a5a5a"/><circle cx="487.7" cy="155.7" r="3" fill="#8a5a5a"/><circle cx="493.2" cy="155.7" r="3" fill="#8a5a5a"/><circle cx="498.7" cy="167.6" r="3" fill="#8a5a5a"/><circle cx="504.2" cy="167.6" r="3" fill="#8a5a5a"/><circle cx="509.8" cy="170.3" r="3" fill="#8a5a5a"/><circle cx="515.3" cy="170.3" r="3" fill="#8a5a5a"/><circle cx="520.8" cy="170.5" r="3" fill="#8a5a5a"/><circle cx="526.3" cy="170.7" r="3" fill="#8a5a5a"/><circle cx="531.8" cy="170.7" r="3" fill="#8a5a5a"/><circle cx="537.3" cy="170.9" r="3" fill="#8a5a5a"/><circle cx="542.8" cy="172.7" r="3" fill="#8a5a5a"/><circle cx="548.3" cy="180.6" r="3" fill="#8a5a5a"/><circle cx="553.8" cy="181.8" r="3" fill="#8a5a5a"/><circle cx="559.3" cy="189.1" r="3" fill="#8a5a5a"/><circle cx="564.8" cy="190.5" r="3" fill="#8a5a5a"/><circle cx="570.4" cy="195.2" r="3" fill="#8a5a5a"/><circle cx="575.9" cy="198.0" r="3" fill="#8a5a5a"/><circle cx="581.4" cy="198.0" r="3" fill="#8a5a5a"/><circle cx="586.9" cy="198.0" r="3" fill="#8a5a5a"/><circle cx="592.4" cy="198.0" r="3" fill="#8a5a5a"/><circle cx="597.9" cy="198.0" r="3" fill="#8a5a5a"/><circle cx="603.4" cy="198.0" r="3" fill="#8a5a5a"/><circle cx="608.9" cy="198.0" r="3" fill="#8a5a5a"/><circle cx="614.4" cy="198.0" r="3" fill="#8a5a5a"/><circle cx="619.9" cy="198.0" r="3" fill="#8a5a5a"/><circle cx="625.4" cy="198.0" r="3" fill="#8a5a5a"/><circle cx="630.9" cy="198.0" r="3" fill="#8a5a5a"/><circle cx="636.5" cy="198.0" r="3" fill="#8a5a5a"/><circle cx="642.0" cy="198.0" r="3" fill="#8a5a5a"/><circle cx="647.5" cy="198.0" r="3" fill="#8a5a5a"/><circle cx="653.0" cy="198.0" r="3" fill="#8a5a5a"/><circle cx="658.5" cy="198.0" r="3" fill="#8a5a5a"/><circle cx="664.0" cy="198.0" r="3" fill="#8a5a5a"/>
<polyline fill="none" stroke="#3fb950" stroke-width="2.5" stroke-linejoin="round" points="36.0,198.0 41.5,198.0 47.0,198.0 52.5,198.0 58.0,198.0 63.5,198.0 69.1,198.0 74.6,198.0 80.1,198.0 85.6,198.0 91.1,198.0 96.6,198.0 102.1,198.0 107.6,198.0 113.1,198.0 118.6,198.0 124.1,198.0 129.6,198.0 135.2,198.0 140.7,198.0 146.2,198.0 151.7,198.0 157.2,198.0 162.7,198.0 168.2,198.0 173.7,198.0 179.2,198.0 184.7,198.0 190.2,198.0 195.8,198.0 201.3,198.0 206.8,198.0 212.3,198.0 217.8,198.0 223.3,198.0 228.8,198.0 234.3,198.0 239.8,198.0 245.3,198.0 250.8,198.0 256.4,198.0 261.9,198.0 267.4,198.0 272.9,191.7 278.4,191.7 283.9,191.7 289.4,191.7 294.9,191.7 300.4,191.7 305.9,191.7 311.4,192.9 316.9,192.9 322.5,190.7 328.0,190.7 333.5,190.7 339.0,190.7 344.5,190.7 350.0,190.5 355.5,190.5 361.0,190.5 366.5,190.3 372.0,190.3 377.5,190.3 383.1,190.3 388.6,190.3 394.1,190.3 399.6,190.3 405.1,190.3 410.6,190.3 416.1,190.3 421.6,190.3 427.1,190.3 432.6,190.3 438.1,190.3 443.6,190.3 449.2,190.3 454.7,190.3 460.2,190.3 465.7,190.3 471.2,190.3 476.7,190.3 482.2,189.3 487.7,189.3 493.2,189.3 498.7,190.7 504.2,190.7 509.8,190.7 515.3,190.7 520.8,190.7 526.3,190.7 531.8,190.7 537.3,190.7 542.8,190.7 548.3,190.9 553.8,190.9 559.3,190.9 564.8,194.2 570.4,196.8 575.9,198.0 581.4,198.0 586.9,198.0 592.4,198.0 597.9,198.0 603.4,198.0 608.9,198.0 614.4,198.0 619.9,198.0 625.4,198.0 630.9,198.0 636.5,198.0 642.0,198.0 647.5,198.0 653.0,198.0 658.5,198.0 664.0,198.0"/><circle cx="36.0" cy="198.0" r="3" fill="#3fb950"/><circle cx="41.5" cy="198.0" r="3" fill="#3fb950"/><circle cx="47.0" cy="198.0" r="3" fill="#3fb950"/><circle cx="52.5" cy="198.0" r="3" fill="#3fb950"/><circle cx="58.0" cy="198.0" r="3" fill="#3fb950"/><circle cx="63.5" cy="198.0" r="3" fill="#3fb950"/><circle cx="69.1" cy="198.0" r="3" fill="#3fb950"/><circle cx="74.6" cy="198.0" r="3" fill="#3fb950"/><circle cx="80.1" cy="198.0" r="3" fill="#3fb950"/><circle cx="85.6" cy="198.0" r="3" fill="#3fb950"/><circle cx="91.1" cy="198.0" r="3" fill="#3fb950"/><circle cx="96.6" cy="198.0" r="3" fill="#3fb950"/><circle cx="102.1" cy="198.0" r="3" fill="#3fb950"/><circle cx="107.6" cy="198.0" r="3" fill="#3fb950"/><circle cx="113.1" cy="198.0" r="3" fill="#3fb950"/><circle cx="118.6" cy="198.0" r="3" fill="#3fb950"/><circle cx="124.1" cy="198.0" r="3" fill="#3fb950"/><circle cx="129.6" cy="198.0" r="3" fill="#3fb950"/><circle cx="135.2" cy="198.0" r="3" fill="#3fb950"/><circle cx="140.7" cy="198.0" r="3" fill="#3fb950"/><circle cx="146.2" cy="198.0" r="3" fill="#3fb950"/><circle cx="151.7" cy="198.0" r="3" fill="#3fb950"/><circle cx="157.2" cy="198.0" r="3" fill="#3fb950"/><circle cx="162.7" cy="198.0" r="3" fill="#3fb950"/><circle cx="168.2" cy="198.0" r="3" fill="#3fb950"/><circle cx="173.7" cy="198.0" r="3" fill="#3fb950"/><circle cx="179.2" cy="198.0" r="3" fill="#3fb950"/><circle cx="184.7" cy="198.0" r="3" fill="#3fb950"/><circle cx="190.2" cy="198.0" r="3" fill="#3fb950"/><circle cx="195.8" cy="198.0" r="3" fill="#3fb950"/><circle cx="201.3" cy="198.0" r="3" fill="#3fb950"/><circle cx="206.8" cy="198.0" r="3" fill="#3fb950"/><circle cx="212.3" cy="198.0" r="3" fill="#3fb950"/><circle cx="217.8" cy="198.0" r="3" fill="#3fb950"/><circle cx="223.3" cy="198.0" r="3" fill="#3fb950"/><circle cx="228.8" cy="198.0" r="3" fill="#3fb950"/><circle cx="234.3" cy="198.0" r="3" fill="#3fb950"/><circle cx="239.8" cy="198.0" r="3" fill="#3fb950"/><circle cx="245.3" cy="198.0" r="3" fill="#3fb950"/><circle cx="250.8" cy="198.0" r="3" fill="#3fb950"/><circle cx="256.4" cy="198.0" r="3" fill="#3fb950"/><circle cx="261.9" cy="198.0" r="3" fill="#3fb950"/><circle cx="267.4" cy="198.0" r="3" fill="#3fb950"/><circle cx="272.9" cy="191.7" r="3" fill="#3fb950"/><circle cx="278.4" cy="191.7" r="3" fill="#3fb950"/><circle cx="283.9" cy="191.7" r="3" fill="#3fb950"/><circle cx="289.4" cy="191.7" r="3" fill="#3fb950"/><circle cx="294.9" cy="191.7" r="3" fill="#3fb950"/><circle cx="300.4" cy="191.7" r="3" fill="#3fb950"/><circle cx="305.9" cy="191.7" r="3" fill="#3fb950"/><circle cx="311.4" cy="192.9" r="3" fill="#3fb950"/><circle cx="316.9" cy="192.9" r="3" fill="#3fb950"/><circle cx="322.5" cy="190.7" r="3" fill="#3fb950"/><circle cx="328.0" cy="190.7" r="3" fill="#3fb950"/><circle cx="333.5" cy="190.7" r="3" fill="#3fb950"/><circle cx="339.0" cy="190.7" r="3" fill="#3fb950"/><circle cx="344.5" cy="190.7" r="3" fill="#3fb950"/><circle cx="350.0" cy="190.5" r="3" fill="#3fb950"/><circle cx="355.5" cy="190.5" r="3" fill="#3fb950"/><circle cx="361.0" cy="190.5" r="3" fill="#3fb950"/><circle cx="366.5" cy="190.3" r="3" fill="#3fb950"/><circle cx="372.0" cy="190.3" r="3" fill="#3fb950"/><circle cx="377.5" cy="190.3" r="3" fill="#3fb950"/><circle cx="383.1" cy="190.3" r="3" fill="#3fb950"/><circle cx="388.6" cy="190.3" r="3" fill="#3fb950"/><circle cx="394.1" cy="190.3" r="3" fill="#3fb950"/><circle cx="399.6" cy="190.3" r="3" fill="#3fb950"/><circle cx="405.1" cy="190.3" r="3" fill="#3fb950"/><circle cx="410.6" cy="190.3" r="3" fill="#3fb950"/><circle cx="416.1" cy="190.3" r="3" fill="#3fb950"/><circle cx="421.6" cy="190.3" r="3" fill="#3fb950"/><circle cx="427.1" cy="190.3" r="3" fill="#3fb950"/><circle cx="432.6" cy="190.3" r="3" fill="#3fb950"/><circle cx="438.1" cy="190.3" r="3" fill="#3fb950"/><circle cx="443.6" cy="190.3" r="3" fill="#3fb950"/><circle cx="449.2" cy="190.3" r="3" fill="#3fb950"/><circle cx="454.7" cy="190.3" r="3" fill="#3fb950"/><circle cx="460.2" cy="190.3" r="3" fill="#3fb950"/><circle cx="465.7" cy="190.3" r="3" fill="#3fb950"/><circle cx="471.2" cy="190.3" r="3" fill="#3fb950"/><circle cx="476.7" cy="190.3" r="3" fill="#3fb950"/><circle cx="482.2" cy="189.3" r="3" fill="#3fb950"/><circle cx="487.7" cy="189.3" r="3" fill="#3fb950"/><circle cx="493.2" cy="189.3" r="3" fill="#3fb950"/><circle cx="498.7" cy="190.7" r="3" fill="#3fb950"/><circle cx="504.2" cy="190.7" r="3" fill="#3fb950"/><circle cx="509.8" cy="190.7" r="3" fill="#3fb950"/><circle cx="515.3" cy="190.7" r="3" fill="#3fb950"/><circle cx="520.8" cy="190.7" r="3" fill="#3fb950"/><circle cx="526.3" cy="190.7" r="3" fill="#3fb950"/><circle cx="531.8" cy="190.7" r="3" fill="#3fb950"/><circle cx="537.3" cy="190.7" r="3" fill="#3fb950"/><circle cx="542.8" cy="190.7" r="3" fill="#3fb950"/><circle cx="548.3" cy="190.9" r="3" fill="#3fb950"/><circle cx="553.8" cy="190.9" r="3" fill="#3fb950"/><circle cx="559.3" cy="190.9" r="3" fill="#3fb950"/><circle cx="564.8" cy="194.2" r="3" fill="#3fb950"/><circle cx="570.4" cy="196.8" r="3" fill="#3fb950"/><circle cx="575.9" cy="198.0" r="3" fill="#3fb950"/><circle cx="581.4" cy="198.0" r="3" fill="#3fb950"/><circle cx="586.9" cy="198.0" r="3" fill="#3fb950"/><circle cx="592.4" cy="198.0" r="3" fill="#3fb950"/><circle cx="597.9" cy="198.0" r="3" fill="#3fb950"/><circle cx="603.4" cy="198.0" r="3" fill="#3fb950"/><circle cx="608.9" cy="198.0" r="3" fill="#3fb950"/><circle cx="614.4" cy="198.0" r="3" fill="#3fb950"/><circle cx="619.9" cy="198.0" r="3" fill="#3fb950"/><circle cx="625.4" cy="198.0" r="3" fill="#3fb950"/><circle cx="630.9" cy="198.0" r="3" fill="#3fb950"/><circle cx="636.5" cy="198.0" r="3" fill="#3fb950"/><circle cx="642.0" cy="198.0" r="3" fill="#3fb950"/><circle cx="647.5" cy="198.0" r="3" fill="#3fb950"/><circle cx="653.0" cy="198.0" r="3" fill="#3fb950"/><circle cx="658.5" cy="198.0" r="3" fill="#3fb950"/><circle cx="664.0" cy="198.0" r="3" fill="#3fb950"/>
<polyline fill="none" stroke="#4aa3ff" stroke-width="2.5" stroke-linejoin="round" points="36.0,144.3 41.5,144.3 47.0,144.3 52.5,144.3 58.0,144.3 63.5,144.3 69.1,144.3 74.6,144.3 80.1,144.3 85.6,144.3 91.1,144.3 96.6,144.3 102.1,144.3 107.6,144.3 113.1,144.3 118.6,136.2 124.1,132.4 129.6,129.6 135.2,129.6 140.7,121.0 146.2,121.0 151.7,121.0 157.2,114.4 162.7,114.4 168.2,114.4 173.7,111.3 179.2,110.9 184.7,110.9 190.2,110.5 195.8,110.5 201.3,109.9 206.8,108.7 212.3,107.3 217.8,106.9 223.3,106.9 228.8,106.9 234.3,106.9 239.8,106.9 245.3,106.9 250.8,106.9 256.4,106.9 261.9,106.9 267.4,106.9 272.9,113.2 278.4,113.2 283.9,113.2 289.4,113.2 294.9,113.2 300.4,110.7 305.9,105.3 311.4,83.4 316.9,83.4 322.5,85.6 328.0,85.6 333.5,85.6 339.0,85.6 344.5,85.6 350.0,85.8 355.5,85.8 361.0,85.8 366.5,86.0 372.0,86.0 377.5,86.0 383.1,86.0 388.6,86.0 394.1,86.0 399.6,86.0 405.1,86.0 410.6,86.0 416.1,86.0 421.6,86.0 427.1,86.0 432.6,86.0 438.1,86.0 443.6,86.0 449.2,86.0 454.7,86.0 460.2,86.0 465.7,86.0 471.2,86.0 476.7,86.0 482.2,87.0 487.7,87.0 493.2,87.0 498.7,73.7 504.2,73.7 509.8,71.0 515.3,71.0 520.8,70.8 526.3,70.6 531.8,70.6 537.3,70.4 542.8,68.6 548.3,60.5 553.8,59.3 559.3,52.0 564.8,47.3 570.4,40.1 575.9,36.0 581.4,36.0 586.9,36.0 592.4,36.0 597.9,36.0 603.4,36.0 608.9,36.0 614.4,36.0 619.9,36.0 625.4,36.0 630.9,36.0 636.5,36.0 642.0,36.0 647.5,36.0 653.0,36.0 658.5,36.0 664.0,36.0"/><circle cx="36.0" cy="144.3" r="3" fill="#4aa3ff"/><circle cx="41.5" cy="144.3" r="3" fill="#4aa3ff"/><circle cx="47.0" cy="144.3" r="3" fill="#4aa3ff"/><circle cx="52.5" cy="144.3" r="3" fill="#4aa3ff"/><circle cx="58.0" cy="144.3" r="3" fill="#4aa3ff"/><circle cx="63.5" cy="144.3" r="3" fill="#4aa3ff"/><circle cx="69.1" cy="144.3" r="3" fill="#4aa3ff"/><circle cx="74.6" cy="144.3" r="3" fill="#4aa3ff"/><circle cx="80.1" cy="144.3" r="3" fill="#4aa3ff"/><circle cx="85.6" cy="144.3" r="3" fill="#4aa3ff"/><circle cx="91.1" cy="144.3" r="3" fill="#4aa3ff"/><circle cx="96.6" cy="144.3" r="3" fill="#4aa3ff"/><circle cx="102.1" cy="144.3" r="3" fill="#4aa3ff"/><circle cx="107.6" cy="144.3" r="3" fill="#4aa3ff"/><circle cx="113.1" cy="144.3" r="3" fill="#4aa3ff"/><circle cx="118.6" cy="136.2" r="3" fill="#4aa3ff"/><circle cx="124.1" cy="132.4" r="3" fill="#4aa3ff"/><circle cx="129.6" cy="129.6" r="3" fill="#4aa3ff"/><circle cx="135.2" cy="129.6" r="3" fill="#4aa3ff"/><circle cx="140.7" cy="121.0" r="3" fill="#4aa3ff"/><circle cx="146.2" cy="121.0" r="3" fill="#4aa3ff"/><circle cx="151.7" cy="121.0" r="3" fill="#4aa3ff"/><circle cx="157.2" cy="114.4" r="3" fill="#4aa3ff"/><circle cx="162.7" cy="114.4" r="3" fill="#4aa3ff"/><circle cx="168.2" cy="114.4" r="3" fill="#4aa3ff"/><circle cx="173.7" cy="111.3" r="3" fill="#4aa3ff"/><circle cx="179.2" cy="110.9" r="3" fill="#4aa3ff"/><circle cx="184.7" cy="110.9" r="3" fill="#4aa3ff"/><circle cx="190.2" cy="110.5" r="3" fill="#4aa3ff"/><circle cx="195.8" cy="110.5" r="3" fill="#4aa3ff"/><circle cx="201.3" cy="109.9" r="3" fill="#4aa3ff"/><circle cx="206.8" cy="108.7" r="3" fill="#4aa3ff"/><circle cx="212.3" cy="107.3" r="3" fill="#4aa3ff"/><circle cx="217.8" cy="106.9" r="3" fill="#4aa3ff"/><circle cx="223.3" cy="106.9" r="3" fill="#4aa3ff"/><circle cx="228.8" cy="106.9" r="3" fill="#4aa3ff"/><circle cx="234.3" cy="106.9" r="3" fill="#4aa3ff"/><circle cx="239.8" cy="106.9" r="3" fill="#4aa3ff"/><circle cx="245.3" cy="106.9" r="3" fill="#4aa3ff"/><circle cx="250.8" cy="106.9" r="3" fill="#4aa3ff"/><circle cx="256.4" cy="106.9" r="3" fill="#4aa3ff"/><circle cx="261.9" cy="106.9" r="3" fill="#4aa3ff"/><circle cx="267.4" cy="106.9" r="3" fill="#4aa3ff"/><circle cx="272.9" cy="113.2" r="3" fill="#4aa3ff"/><circle cx="278.4" cy="113.2" r="3" fill="#4aa3ff"/><circle cx="283.9" cy="113.2" r="3" fill="#4aa3ff"/><circle cx="289.4" cy="113.2" r="3" fill="#4aa3ff"/><circle cx="294.9" cy="113.2" r="3" fill="#4aa3ff"/><circle cx="300.4" cy="110.7" r="3" fill="#4aa3ff"/><circle cx="305.9" cy="105.3" r="3" fill="#4aa3ff"/><circle cx="311.4" cy="83.4" r="3" fill="#4aa3ff"/><circle cx="316.9" cy="83.4" r="3" fill="#4aa3ff"/><circle cx="322.5" cy="85.6" r="3" fill="#4aa3ff"/><circle cx="328.0" cy="85.6" r="3" fill="#4aa3ff"/><circle cx="333.5" cy="85.6" r="3" fill="#4aa3ff"/><circle cx="339.0" cy="85.6" r="3" fill="#4aa3ff"/><circle cx="344.5" cy="85.6" r="3" fill="#4aa3ff"/><circle cx="350.0" cy="85.8" r="3" fill="#4aa3ff"/><circle cx="355.5" cy="85.8" r="3" fill="#4aa3ff"/><circle cx="361.0" cy="85.8" r="3" fill="#4aa3ff"/><circle cx="366.5" cy="86.0" r="3" fill="#4aa3ff"/><circle cx="372.0" cy="86.0" r="3" fill="#4aa3ff"/><circle cx="377.5" cy="86.0" r="3" fill="#4aa3ff"/><circle cx="383.1" cy="86.0" r="3" fill="#4aa3ff"/><circle cx="388.6" cy="86.0" r="3" fill="#4aa3ff"/><circle cx="394.1" cy="86.0" r="3" fill="#4aa3ff"/><circle cx="399.6" cy="86.0" r="3" fill="#4aa3ff"/><circle cx="405.1" cy="86.0" r="3" fill="#4aa3ff"/><circle cx="410.6" cy="86.0" r="3" fill="#4aa3ff"/><circle cx="416.1" cy="86.0" r="3" fill="#4aa3ff"/><circle cx="421.6" cy="86.0" r="3" fill="#4aa3ff"/><circle cx="427.1" cy="86.0" r="3" fill="#4aa3ff"/><circle cx="432.6" cy="86.0" r="3" fill="#4aa3ff"/><circle cx="438.1" cy="86.0" r="3" fill="#4aa3ff"/><circle cx="443.6" cy="86.0" r="3" fill="#4aa3ff"/><circle cx="449.2" cy="86.0" r="3" fill="#4aa3ff"/><circle cx="454.7" cy="86.0" r="3" fill="#4aa3ff"/><circle cx="460.2" cy="86.0" r="3" fill="#4aa3ff"/><circle cx="465.7" cy="86.0" r="3" fill="#4aa3ff"/><circle cx="471.2" cy="86.0" r="3" fill="#4aa3ff"/><circle cx="476.7" cy="86.0" r="3" fill="#4aa3ff"/><circle cx="482.2" cy="87.0" r="3" fill="#4aa3ff"/><circle cx="487.7" cy="87.0" r="3" fill="#4aa3ff"/><circle cx="493.2" cy="87.0" r="3" fill="#4aa3ff"/><circle cx="498.7" cy="73.7" r="3" fill="#4aa3ff"/><circle cx="504.2" cy="73.7" r="3" fill="#4aa3ff"/><circle cx="509.8" cy="71.0" r="3" fill="#4aa3ff"/><circle cx="515.3" cy="71.0" r="3" fill="#4aa3ff"/><circle cx="520.8" cy="70.8" r="3" fill="#4aa3ff"/><circle cx="526.3" cy="70.6" r="3" fill="#4aa3ff"/><circle cx="531.8" cy="70.6" r="3" fill="#4aa3ff"/><circle cx="537.3" cy="70.4" r="3" fill="#4aa3ff"/><circle cx="542.8" cy="68.6" r="3" fill="#4aa3ff"/><circle cx="548.3" cy="60.5" r="3" fill="#4aa3ff"/><circle cx="553.8" cy="59.3" r="3" fill="#4aa3ff"/><circle cx="559.3" cy="52.0" r="3" fill="#4aa3ff"/><circle cx="564.8" cy="47.3" r="3" fill="#4aa3ff"/><circle cx="570.4" cy="40.1" r="3" fill="#4aa3ff"/><circle cx="575.9" cy="36.0" r="3" fill="#4aa3ff"/><circle cx="581.4" cy="36.0" r="3" fill="#4aa3ff"/><circle cx="586.9" cy="36.0" r="3" fill="#4aa3ff"/><circle cx="592.4" cy="36.0" r="3" fill="#4aa3ff"/><circle cx="597.9" cy="36.0" r="3" fill="#4aa3ff"/><circle cx="603.4" cy="36.0" r="3" fill="#4aa3ff"/><circle cx="608.9" cy="36.0" r="3" fill="#4aa3ff"/><circle cx="614.4" cy="36.0" r="3" fill="#4aa3ff"/><circle cx="619.9" cy="36.0" r="3" fill="#4aa3ff"/><circle cx="625.4" cy="36.0" r="3" fill="#4aa3ff"/><circle cx="630.9" cy="36.0" r="3" fill="#4aa3ff"/><circle cx="636.5" cy="36.0" r="3" fill="#4aa3ff"/><circle cx="642.0" cy="36.0" r="3" fill="#4aa3ff"/><circle cx="647.5" cy="36.0" r="3" fill="#4aa3ff"/><circle cx="653.0" cy="36.0" r="3" fill="#4aa3ff"/><circle cx="658.5" cy="36.0" r="3" fill="#4aa3ff"/><circle cx="664.0" cy="36.0" r="3" fill="#4aa3ff"/>
<text x="36" y="225" fill="#6b7280" font-size="11">2026-06-26</text>
<text x="664" y="225" fill="#6b7280" font-size="11" text-anchor="end">2026-07-09</text>
<text x="36" y="212" font-family="system-ui,sans-serif" font-size="11">
<tspan fill="#4aa3ff">&#9679; open FPs</tspan>  <tspan fill="#3fb950">&#9679; closed (Anthropic acting)</tspan>  <tspan fill="#8a5a5a">&#9679; harness withdrawn</tspan></text>
<text x="664" y="22" text-anchor="end" font-family="system-ui,sans-serif" font-size="12">
<tspan fill="#4aa3ff">open 800</tspan>  <tspan fill="#3fb950">closed 0</tspan>  <tspan fill="#8a5a5a">harness 0</tspan></text>
</svg>