<svg xmlns="http://www.w3.org/2000/svg" width="700" height="234" viewBox="0 0 700 234" role="img">
<rect width="700" height="234" rx="12" fill="#16181d"/>
<text x="36" y="22" fill="#e8eaed" font-family="system-ui,sans-serif" font-size="14" font-weight="700">Is Anthropic acting? cyber/aup false positives over time</text>
<line x1="36" y1="198.0" x2="664" y2="198.0" stroke="#2a2e37" stroke-width="1"/><text x="30" y="202.0" fill="#6b7280" font-size="11" text-anchor="end">0</text><line x1="36" y1="117.0" x2="664" y2="117.0" stroke="#2a2e37" stroke-width="1"/><text x="30" y="121.0" fill="#6b7280" font-size="11" text-anchor="end">400</text><line x1="36" y1="36.0" x2="664" y2="36.0" stroke="#2a2e37" stroke-width="1"/><text x="30" y="40.0" fill="#6b7280" font-size="11" text-anchor="end">800</text>

<polyline fill="none" stroke="#8a5a5a" stroke-width="2.5" stroke-linejoin="round" points="36.0,145.1 40.1,145.1 44.1,145.1 48.2,145.1 52.2,145.1 56.3,145.1 60.3,145.1 64.4,145.1 68.4,145.1 72.5,145.1 76.5,145.1 80.6,145.1 84.6,145.1 88.7,145.1 92.7,145.1 96.8,145.1 100.8,145.1 104.9,145.1 108.9,145.1 113.0,145.1 117.0,145.1 121.1,145.1 125.1,145.1 129.2,145.1 133.2,145.1 137.3,145.1 141.3,145.1 145.4,145.1 149.4,145.1 153.5,145.1 157.5,145.1 161.6,145.1 165.7,145.1 169.7,145.1 173.8,145.1 177.8,145.1 181.9,145.1 185.9,145.1 190.0,145.1 194.0,145.1 198.1,145.1 202.1,145.1 206.2,145.1 210.2,145.1 214.3,145.1 218.3,145.1 222.4,145.1 226.4,145.1 230.5,145.1 234.5,145.1 238.6,155.7 242.6,155.7 246.7,155.7 250.7,155.7 254.8,155.7 258.8,155.7 262.9,155.7 266.9,155.7 271.0,155.7 275.0,155.7 279.1,155.7 283.1,155.7 287.2,155.7 291.3,155.7 295.3,155.7 299.4,155.7 303.4,155.7 307.5,155.7 311.5,155.7 315.6,155.7 319.6,155.7 323.7,155.7 327.7,155.7 331.8,155.7 335.8,155.7 339.9,155.7 343.9,155.7 348.0,155.7 352.0,155.7 356.1,155.7 360.1,155.7 364.2,155.7 368.2,155.7 372.3,155.7 376.3,167.6 380.4,167.6 384.4,170.3 388.5,170.3 392.5,170.5 396.6,170.7 400.6,170.7 404.7,170.9 408.7,172.7 412.8,180.6 416.9,181.8 420.9,189.1 425.0,190.5 429.0,195.2 433.1,198.0 437.1,198.0 441.2,198.0 445.2,198.0 449.3,198.0 453.3,198.0 457.4,198.0 461.4,198.0 465.5,198.0 469.5,198.0 473.6,198.0 477.6,198.0 481.7,198.0 485.7,198.0 489.8,198.0 493.8,198.0 497.9,198.0 501.9,198.0 506.0,198.0 510.0,198.0 514.1,198.0 518.1,198.0 522.2,198.0 526.2,198.0 530.3,198.0 534.3,198.0 538.4,198.0 542.5,198.0 546.5,198.0 550.6,198.0 554.6,198.0 558.7,198.0 562.7,198.0 566.8,198.0 570.8,198.0 574.9,198.0 578.9,198.0 583.0,198.0 587.0,198.0 591.1,198.0 595.1,198.0 599.2,198.0 603.2,198.0 607.3,198.0 611.3,198.0 615.4,198.0 619.4,198.0 623.5,198.0 627.5,198.0 631.6,198.0 635.6,198.0 639.7,198.0 643.7,198.0 647.8,198.0 651.8,198.0 655.9,198.0 659.9,198.0 664.0,198.0"/><circle cx="36.0" cy="145.1" r="3" fill="#8a5a5a"/><circle cx="40.1" cy="145.1" r="3" fill="#8a5a5a"/><circle cx="44.1" cy="145.1" r="3" fill="#8a5a5a"/><circle cx="48.2" cy="145.1" r="3" fill="#8a5a5a"/><circle cx="52.2" cy="145.1" r="3" fill="#8a5a5a"/><circle cx="56.3" cy="145.1" r="3" fill="#8a5a5a"/><circle cx="60.3" cy="145.1" r="3" fill="#8a5a5a"/><circle cx="64.4" cy="145.1" r="3" fill="#8a5a5a"/><circle cx="68.4" cy="145.1" r="3" fill="#8a5a5a"/><circle cx="72.5" cy="145.1" r="3" fill="#8a5a5a"/><circle cx="76.5" cy="145.1" r="3" fill="#8a5a5a"/><circle cx="80.6" cy="145.1" r="3" fill="#8a5a5a"/><circle cx="84.6" cy="145.1" r="3" fill="#8a5a5a"/><circle cx="88.7" cy="145.1" r="3" fill="#8a5a5a"/><circle cx="92.7" cy="145.1" r="3" fill="#8a5a5a"/><circle cx="96.8" cy="145.1" r="3" fill="#8a5a5a"/><circle cx="100.8" cy="145.1" r="3" fill="#8a5a5a"/><circle cx="104.9" cy="145.1" r="3" fill="#8a5a5a"/><circle cx="108.9" cy="145.1" r="3" fill="#8a5a5a"/><circle cx="113.0" cy="145.1" r="3" fill="#8a5a5a"/><circle cx="117.0" cy="145.1" r="3" fill="#8a5a5a"/><circle cx="121.1" cy="145.1" r="3" fill="#8a5a5a"/><circle cx="125.1" cy="145.1" r="3" fill="#8a5a5a"/><circle cx="129.2" cy="145.1" r="3" fill="#8a5a5a"/><circle cx="133.2" cy="145.1" r="3" fill="#8a5a5a"/><circle cx="137.3" cy="145.1" r="3" fill="#8a5a5a"/><circle cx="141.3" cy="145.1" r="3" fill="#8a5a5a"/><circle cx="145.4" cy="145.1" r="3" fill="#8a5a5a"/><circle cx="149.4" cy="145.1" r="3" fill="#8a5a5a"/><circle cx="153.5" cy="145.1" r="3" fill="#8a5a5a"/><circle cx="157.5" cy="145.1" r="3" fill="#8a5a5a"/><circle cx="161.6" cy="145.1" r="3" fill="#8a5a5a"/><circle cx="165.7" cy="145.1" r="3" fill="#8a5a5a"/><circle cx="169.7" cy="145.1" r="3" fill="#8a5a5a"/><circle cx="173.8" cy="145.1" r="3" fill="#8a5a5a"/><circle cx="177.8" cy="145.1" r="3" fill="#8a5a5a"/><circle cx="181.9" cy="145.1" r="3" fill="#8a5a5a"/><circle cx="185.9" cy="145.1" r="3" fill="#8a5a5a"/><circle cx="190.0" cy="145.1" r="3" fill="#8a5a5a"/><circle cx="194.0" cy="145.1" r="3" fill="#8a5a5a"/><circle cx="198.1" cy="145.1" r="3" fill="#8a5a5a"/><circle cx="202.1" cy="145.1" r="3" fill="#8a5a5a"/><circle cx="206.2" cy="145.1" r="3" fill="#8a5a5a"/><circle cx="210.2" cy="145.1" r="3" fill="#8a5a5a"/><circle cx="214.3" cy="145.1" r="3" fill="#8a5a5a"/><circle cx="218.3" cy="145.1" r="3" fill="#8a5a5a"/><circle cx="222.4" cy="145.1" r="3" fill="#8a5a5a"/><circle cx="226.4" cy="145.1" r="3" fill="#8a5a5a"/><circle cx="230.5" cy="145.1" r="3" fill="#8a5a5a"/><circle cx="234.5" cy="145.1" r="3" fill="#8a5a5a"/><circle cx="238.6" cy="155.7" r="3" fill="#8a5a5a"/><circle cx="242.6" cy="155.7" r="3" fill="#8a5a5a"/><circle cx="246.7" cy="155.7" r="3" fill="#8a5a5a"/><circle cx="250.7" cy="155.7" r="3" fill="#8a5a5a"/><circle cx="254.8" cy="155.7" r="3" fill="#8a5a5a"/><circle cx="258.8" cy="155.7" r="3" fill="#8a5a5a"/><circle cx="262.9" cy="155.7" r="3" fill="#8a5a5a"/><circle cx="266.9" cy="155.7" r="3" fill="#8a5a5a"/><circle cx="271.0" cy="155.7" r="3" fill="#8a5a5a"/><circle cx="275.0" cy="155.7" r="3" fill="#8a5a5a"/><circle cx="279.1" cy="155.7" r="3" fill="#8a5a5a"/><circle cx="283.1" cy="155.7" r="3" fill="#8a5a5a"/><circle cx="287.2" cy="155.7" r="3" fill="#8a5a5a"/><circle cx="291.3" cy="155.7" r="3" fill="#8a5a5a"/><circle cx="295.3" cy="155.7" r="3" fill="#8a5a5a"/><circle cx="299.4" cy="155.7" r="3" fill="#8a5a5a"/><circle cx="303.4" cy="155.7" r="3" fill="#8a5a5a"/><circle cx="307.5" cy="155.7" r="3" fill="#8a5a5a"/><circle cx="311.5" cy="155.7" r="3" fill="#8a5a5a"/><circle cx="315.6" cy="155.7" r="3" fill="#8a5a5a"/><circle cx="319.6" cy="155.7" r="3" fill="#8a5a5a"/><circle cx="323.7" cy="155.7" r="3" fill="#8a5a5a"/><circle cx="327.7" cy="155.7" r="3" fill="#8a5a5a"/><circle cx="331.8" cy="155.7" r="3" fill="#8a5a5a"/><circle cx="335.8" cy="155.7" r="3" fill="#8a5a5a"/><circle cx="339.9" cy="155.7" r="3" fill="#8a5a5a"/><circle cx="343.9" cy="155.7" r="3" fill="#8a5a5a"/><circle cx="348.0" cy="155.7" r="3" fill="#8a5a5a"/><circle cx="352.0" cy="155.7" r="3" fill="#8a5a5a"/><circle cx="356.1" cy="155.7" r="3" fill="#8a5a5a"/><circle cx="360.1" cy="155.7" r="3" fill="#8a5a5a"/><circle cx="364.2" cy="155.7" r="3" fill="#8a5a5a"/><circle cx="368.2" cy="155.7" r="3" fill="#8a5a5a"/><circle cx="372.3" cy="155.7" r="3" fill="#8a5a5a"/><circle cx="376.3" cy="167.6" r="3" fill="#8a5a5a"/><circle cx="380.4" cy="167.6" r="3" fill="#8a5a5a"/><circle cx="384.4" cy="170.3" r="3" fill="#8a5a5a"/><circle cx="388.5" cy="170.3" r="3" fill="#8a5a5a"/><circle cx="392.5" cy="170.5" r="3" fill="#8a5a5a"/><circle cx="396.6" cy="170.7" r="3" fill="#8a5a5a"/><circle cx="400.6" cy="170.7" r="3" fill="#8a5a5a"/><circle cx="404.7" cy="170.9" r="3" fill="#8a5a5a"/><circle cx="408.7" cy="172.7" r="3" fill="#8a5a5a"/><circle cx="412.8" cy="180.6" r="3" fill="#8a5a5a"/><circle cx="416.9" cy="181.8" r="3" fill="#8a5a5a"/><circle cx="420.9" cy="189.1" r="3" fill="#8a5a5a"/><circle cx="425.0" cy="190.5" r="3" fill="#8a5a5a"/><circle cx="429.0" cy="195.2" r="3" fill="#8a5a5a"/><circle cx="433.1" cy="198.0" r="3" fill="#8a5a5a"/><circle cx="437.1" cy="198.0" r="3" fill="#8a5a5a"/><circle cx="441.2" cy="198.0" r="3" fill="#8a5a5a"/><circle cx="445.2" cy="198.0" r="3" fill="#8a5a5a"/><circle cx="449.3" cy="198.0" r="3" fill="#8a5a5a"/><circle cx="453.3" cy="198.0" r="3" fill="#8a5a5a"/><circle cx="457.4" cy="198.0" r="3" fill="#8a5a5a"/><circle cx="461.4" cy="198.0" r="3" fill="#8a5a5a"/><circle cx="465.5" cy="198.0" r="3" fill="#8a5a5a"/><circle cx="469.5" cy="198.0" r="3" fill="#8a5a5a"/><circle cx="473.6" cy="198.0" r="3" fill="#8a5a5a"/><circle cx="477.6" cy="198.0" r="3" fill="#8a5a5a"/><circle cx="481.7" cy="198.0" r="3" fill="#8a5a5a"/><circle cx="485.7" cy="198.0" r="3" fill="#8a5a5a"/><circle cx="489.8" cy="198.0" r="3" fill="#8a5a5a"/><circle cx="493.8" cy="198.0" r="3" fill="#8a5a5a"/><circle cx="497.9" cy="198.0" r="3" fill="#8a5a5a"/><circle cx="501.9" cy="198.0" r="3" fill="#8a5a5a"/><circle cx="506.0" cy="198.0" r="3" fill="#8a5a5a"/><circle cx="510.0" cy="198.0" r="3" fill="#8a5a5a"/><circle cx="514.1" cy="198.0" r="3" fill="#8a5a5a"/><circle cx="518.1" cy="198.0" r="3" fill="#8a5a5a"/><circle cx="522.2" cy="198.0" r="3" fill="#8a5a5a"/><circle cx="526.2" cy="198.0" r="3" fill="#8a5a5a"/><circle cx="530.3" cy="198.0" r="3" fill="#8a5a5a"/><circle cx="534.3" cy="198.0" r="3" fill="#8a5a5a"/><circle cx="538.4" cy="198.0" r="3" fill="#8a5a5a"/><circle cx="542.5" cy="198.0" r="3" fill="#8a5a5a"/><circle cx="546.5" cy="198.0" r="3" fill="#8a5a5a"/><circle cx="550.6" cy="198.0" r="3" fill="#8a5a5a"/><circle cx="554.6" cy="198.0" r="3" fill="#8a5a5a"/><circle cx="558.7" cy="198.0" r="3" fill="#8a5a5a"/><circle cx="562.7" cy="198.0" r="3" fill="#8a5a5a"/><circle cx="566.8" cy="198.0" r="3" fill="#8a5a5a"/><circle cx="570.8" cy="198.0" r="3" fill="#8a5a5a"/><circle cx="574.9" cy="198.0" r="3" fill="#8a5a5a"/><circle cx="578.9" cy="198.0" r="3" fill="#8a5a5a"/><circle cx="583.0" cy="198.0" r="3" fill="#8a5a5a"/><circle cx="587.0" cy="198.0" r="3" fill="#8a5a5a"/><circle cx="591.1" cy="198.0" r="3" fill="#8a5a5a"/><circle cx="595.1" cy="198.0" r="3" fill="#8a5a5a"/><circle cx="599.2" cy="198.0" r="3" fill="#8a5a5a"/><circle cx="603.2" cy="198.0" r="3" fill="#8a5a5a"/><circle cx="607.3" cy="198.0" r="3" fill="#8a5a5a"/><circle cx="611.3" cy="198.0" r="3" fill="#8a5a5a"/><circle cx="615.4" cy="198.0" r="3" fill="#8a5a5a"/><circle cx="619.4" cy="198.0" r="3" fill="#8a5a5a"/><circle cx="623.5" cy="198.0" r="3" fill="#8a5a5a"/><circle cx="627.5" cy="198.0" r="3" fill="#8a5a5a"/><circle cx="631.6" cy="198.0" r="3" fill="#8a5a5a"/><circle cx="635.6" cy="198.0" r="3" fill="#8a5a5a"/><circle cx="639.7" cy="198.0" r="3" fill="#8a5a5a"/><circle cx="643.7" cy="198.0" r="3" fill="#8a5a5a"/><circle cx="647.8" cy="198.0" r="3" fill="#8a5a5a"/><circle cx="651.8" cy="198.0" r="3" fill="#8a5a5a"/><circle cx="655.9" cy="198.0" r="3" fill="#8a5a5a"/><circle cx="659.9" cy="198.0" r="3" fill="#8a5a5a"/><circle cx="664.0" cy="198.0" r="3" fill="#8a5a5a"/>
<polyline fill="none" stroke="#3fb950" stroke-width="2.5" stroke-linejoin="round" points="36.0,198.0 40.1,198.0 44.1,198.0 48.2,198.0 52.2,198.0 56.3,198.0 60.3,198.0 64.4,198.0 68.4,198.0 72.5,198.0 76.5,198.0 80.6,198.0 84.6,198.0 88.7,198.0 92.7,198.0 96.8,198.0 100.8,198.0 104.9,198.0 108.9,198.0 113.0,198.0 117.0,198.0 121.1,198.0 125.1,198.0 129.2,198.0 133.2,198.0 137.3,198.0 141.3,198.0 145.4,198.0 149.4,198.0 153.5,198.0 157.5,198.0 161.6,198.0 165.7,198.0 169.7,198.0 173.8,198.0 177.8,198.0 181.9,198.0 185.9,198.0 190.0,198.0 194.0,198.0 198.1,198.0 202.1,198.0 206.2,198.0 210.2,191.7 214.3,191.7 218.3,191.7 222.4,191.7 226.4,191.7 230.5,191.7 234.5,191.7 238.6,192.9 242.6,192.9 246.7,190.7 250.7,190.7 254.8,190.7 258.8,190.7 262.9,190.7 266.9,190.5 271.0,190.5 275.0,190.5 279.1,190.3 283.1,190.3 287.2,190.3 291.3,190.3 295.3,190.3 299.4,190.3 303.4,190.3 307.5,190.3 311.5,190.3 315.6,190.3 319.6,190.3 323.7,190.3 327.7,190.3 331.8,190.3 335.8,190.3 339.9,190.3 343.9,190.3 348.0,190.3 352.0,190.3 356.1,190.3 360.1,190.3 364.2,189.3 368.2,189.3 372.3,189.3 376.3,190.7 380.4,190.7 384.4,190.7 388.5,190.7 392.5,190.7 396.6,190.7 400.6,190.7 404.7,190.7 408.7,190.7 412.8,190.9 416.9,190.9 420.9,190.9 425.0,194.2 429.0,196.8 433.1,198.0 437.1,198.0 441.2,198.0 445.2,198.0 449.3,198.0 453.3,198.0 457.4,198.0 461.4,198.0 465.5,198.0 469.5,198.0 473.6,198.0 477.6,198.0 481.7,198.0 485.7,198.0 489.8,198.0 493.8,198.0 497.9,198.0 501.9,198.0 506.0,198.0 510.0,198.0 514.1,198.0 518.1,198.0 522.2,198.0 526.2,198.0 530.3,198.0 534.3,198.0 538.4,198.0 542.5,198.0 546.5,198.0 550.6,198.0 554.6,198.0 558.7,198.0 562.7,198.0 566.8,198.0 570.8,198.0 574.9,198.0 578.9,198.0 583.0,198.0 587.0,198.0 591.1,198.0 595.1,198.0 599.2,198.0 603.2,198.0 607.3,198.0 611.3,198.0 615.4,198.0 619.4,198.0 623.5,198.0 627.5,198.0 631.6,198.0 635.6,198.0 639.7,198.0 643.7,198.0 647.8,198.0 651.8,198.0 655.9,198.0 659.9,198.0 664.0,198.0"/><circle cx="36.0" cy="198.0" r="3" fill="#3fb950"/><circle cx="40.1" cy="198.0" r="3" fill="#3fb950"/><circle cx="44.1" cy="198.0" r="3" fill="#3fb950"/><circle cx="48.2" cy="198.0" r="3" fill="#3fb950"/><circle cx="52.2" cy="198.0" r="3" fill="#3fb950"/><circle cx="56.3" cy="198.0" r="3" fill="#3fb950"/><circle cx="60.3" cy="198.0" r="3" fill="#3fb950"/><circle cx="64.4" cy="198.0" r="3" fill="#3fb950"/><circle cx="68.4" cy="198.0" r="3" fill="#3fb950"/><circle cx="72.5" cy="198.0" r="3" fill="#3fb950"/><circle cx="76.5" cy="198.0" r="3" fill="#3fb950"/><circle cx="80.6" cy="198.0" r="3" fill="#3fb950"/><circle cx="84.6" cy="198.0" r="3" fill="#3fb950"/><circle cx="88.7" cy="198.0" r="3" fill="#3fb950"/><circle cx="92.7" cy="198.0" r="3" fill="#3fb950"/><circle cx="96.8" cy="198.0" r="3" fill="#3fb950"/><circle cx="100.8" cy="198.0" r="3" fill="#3fb950"/><circle cx="104.9" cy="198.0" r="3" fill="#3fb950"/><circle cx="108.9" cy="198.0" r="3" fill="#3fb950"/><circle cx="113.0" cy="198.0" r="3" fill="#3fb950"/><circle cx="117.0" cy="198.0" r="3" fill="#3fb950"/><circle cx="121.1" cy="198.0" r="3" fill="#3fb950"/><circle cx="125.1" cy="198.0" r="3" fill="#3fb950"/><circle cx="129.2" cy="198.0" r="3" fill="#3fb950"/><circle cx="133.2" cy="198.0" r="3" fill="#3fb950"/><circle cx="137.3" cy="198.0" r="3" fill="#3fb950"/><circle cx="141.3" cy="198.0" r="3" fill="#3fb950"/><circle cx="145.4" cy="198.0" r="3" fill="#3fb950"/><circle cx="149.4" cy="198.0" r="3" fill="#3fb950"/><circle cx="153.5" cy="198.0" r="3" fill="#3fb950"/><circle cx="157.5" cy="198.0" r="3" fill="#3fb950"/><circle cx="161.6" cy="198.0" r="3" fill="#3fb950"/><circle cx="165.7" cy="198.0" r="3" fill="#3fb950"/><circle cx="169.7" cy="198.0" r="3" fill="#3fb950"/><circle cx="173.8" cy="198.0" r="3" fill="#3fb950"/><circle cx="177.8" cy="198.0" r="3" fill="#3fb950"/><circle cx="181.9" cy="198.0" r="3" fill="#3fb950"/><circle cx="185.9" cy="198.0" r="3" fill="#3fb950"/><circle cx="190.0" cy="198.0" r="3" fill="#3fb950"/><circle cx="194.0" cy="198.0" r="3" fill="#3fb950"/><circle cx="198.1" cy="198.0" r="3" fill="#3fb950"/><circle cx="202.1" cy="198.0" r="3" fill="#3fb950"/><circle cx="206.2" cy="198.0" r="3" fill="#3fb950"/><circle cx="210.2" cy="191.7" r="3" fill="#3fb950"/><circle cx="214.3" cy="191.7" r="3" fill="#3fb950"/><circle cx="218.3" cy="191.7" r="3" fill="#3fb950"/><circle cx="222.4" cy="191.7" r="3" fill="#3fb950"/><circle cx="226.4" cy="191.7" r="3" fill="#3fb950"/><circle cx="230.5" cy="191.7" r="3" fill="#3fb950"/><circle cx="234.5" cy="191.7" r="3" fill="#3fb950"/><circle cx="238.6" cy="192.9" r="3" fill="#3fb950"/><circle cx="242.6" cy="192.9" r="3" fill="#3fb950"/><circle cx="246.7" cy="190.7" r="3" fill="#3fb950"/><circle cx="250.7" cy="190.7" r="3" fill="#3fb950"/><circle cx="254.8" cy="190.7" r="3" fill="#3fb950"/><circle cx="258.8" cy="190.7" r="3" fill="#3fb950"/><circle cx="262.9" cy="190.7" r="3" fill="#3fb950"/><circle cx="266.9" cy="190.5" r="3" fill="#3fb950"/><circle cx="271.0" cy="190.5" r="3" fill="#3fb950"/><circle cx="275.0" cy="190.5" r="3" fill="#3fb950"/><circle cx="279.1" cy="190.3" r="3" fill="#3fb950"/><circle cx="283.1" cy="190.3" r="3" fill="#3fb950"/><circle cx="287.2" cy="190.3" r="3" fill="#3fb950"/><circle cx="291.3" cy="190.3" r="3" fill="#3fb950"/><circle cx="295.3" cy="190.3" r="3" fill="#3fb950"/><circle cx="299.4" cy="190.3" r="3" fill="#3fb950"/><circle cx="303.4" cy="190.3" r="3" fill="#3fb950"/><circle cx="307.5" cy="190.3" r="3" fill="#3fb950"/><circle cx="311.5" cy="190.3" r="3" fill="#3fb950"/><circle cx="315.6" cy="190.3" r="3" fill="#3fb950"/><circle cx="319.6" cy="190.3" r="3" fill="#3fb950"/><circle cx="323.7" cy="190.3" r="3" fill="#3fb950"/><circle cx="327.7" cy="190.3" r="3" fill="#3fb950"/><circle cx="331.8" cy="190.3" r="3" fill="#3fb950"/><circle cx="335.8" cy="190.3" r="3" fill="#3fb950"/><circle cx="339.9" cy="190.3" r="3" fill="#3fb950"/><circle cx="343.9" cy="190.3" r="3" fill="#3fb950"/><circle cx="348.0" cy="190.3" r="3" fill="#3fb950"/><circle cx="352.0" cy="190.3" r="3" fill="#3fb950"/><circle cx="356.1" cy="190.3" r="3" fill="#3fb950"/><circle cx="360.1" cy="190.3" r="3" fill="#3fb950"/><circle cx="364.2" cy="189.3" r="3" fill="#3fb950"/><circle cx="368.2" cy="189.3" r="3" fill="#3fb950"/><circle cx="372.3" cy="189.3" r="3" fill="#3fb950"/><circle cx="376.3" cy="190.7" r="3" fill="#3fb950"/><circle cx="380.4" cy="190.7" r="3" fill="#3fb950"/><circle cx="384.4" cy="190.7" r="3" fill="#3fb950"/><circle cx="388.5" cy="190.7" r="3" fill="#3fb950"/><circle cx="392.5" cy="190.7" r="3" fill="#3fb950"/><circle cx="396.6" cy="190.7" r="3" fill="#3fb950"/><circle cx="400.6" cy="190.7" r="3" fill="#3fb950"/><circle cx="404.7" cy="190.7" r="3" fill="#3fb950"/><circle cx="408.7" cy="190.7" r="3" fill="#3fb950"/><circle cx="412.8" cy="190.9" r="3" fill="#3fb950"/><circle cx="416.9" cy="190.9" r="3" fill="#3fb950"/><circle cx="420.9" cy="190.9" r="3" fill="#3fb950"/><circle cx="425.0" cy="194.2" r="3" fill="#3fb950"/><circle cx="429.0" cy="196.8" r="3" fill="#3fb950"/><circle cx="433.1" cy="198.0" r="3" fill="#3fb950"/><circle cx="437.1" cy="198.0" r="3" fill="#3fb950"/><circle cx="441.2" cy="198.0" r="3" fill="#3fb950"/><circle cx="445.2" cy="198.0" r="3" fill="#3fb950"/><circle cx="449.3" cy="198.0" r="3" fill="#3fb950"/><circle cx="453.3" cy="198.0" r="3" fill="#3fb950"/><circle cx="457.4" cy="198.0" r="3" fill="#3fb950"/><circle cx="461.4" cy="198.0" r="3" fill="#3fb950"/><circle cx="465.5" cy="198.0" r="3" fill="#3fb950"/><circle cx="469.5" cy="198.0" r="3" fill="#3fb950"/><circle cx="473.6" cy="198.0" r="3" fill="#3fb950"/><circle cx="477.6" cy="198.0" r="3" fill="#3fb950"/><circle cx="481.7" cy="198.0" r="3" fill="#3fb950"/><circle cx="485.7" cy="198.0" r="3" fill="#3fb950"/><circle cx="489.8" cy="198.0" r="3" fill="#3fb950"/><circle cx="493.8" cy="198.0" r="3" fill="#3fb950"/><circle cx="497.9" cy="198.0" r="3" fill="#3fb950"/><circle cx="501.9" cy="198.0" r="3" fill="#3fb950"/><circle cx="506.0" cy="198.0" r="3" fill="#3fb950"/><circle cx="510.0" cy="198.0" r="3" fill="#3fb950"/><circle cx="514.1" cy="198.0" r="3" fill="#3fb950"/><circle cx="518.1" cy="198.0" r="3" fill="#3fb950"/><circle cx="522.2" cy="198.0" r="3" fill="#3fb950"/><circle cx="526.2" cy="198.0" r="3" fill="#3fb950"/><circle cx="530.3" cy="198.0" r="3" fill="#3fb950"/><circle cx="534.3" cy="198.0" r="3" fill="#3fb950"/><circle cx="538.4" cy="198.0" r="3" fill="#3fb950"/><circle cx="542.5" cy="198.0" r="3" fill="#3fb950"/><circle cx="546.5" cy="198.0" r="3" fill="#3fb950"/><circle cx="550.6" cy="198.0" r="3" fill="#3fb950"/><circle cx="554.6" cy="198.0" r="3" fill="#3fb950"/><circle cx="558.7" cy="198.0" r="3" fill="#3fb950"/><circle cx="562.7" cy="198.0" r="3" fill="#3fb950"/><circle cx="566.8" cy="198.0" r="3" fill="#3fb950"/><circle cx="570.8" cy="198.0" r="3" fill="#3fb950"/><circle cx="574.9" cy="198.0" r="3" fill="#3fb950"/><circle cx="578.9" cy="198.0" r="3" fill="#3fb950"/><circle cx="583.0" cy="198.0" r="3" fill="#3fb950"/><circle cx="587.0" cy="198.0" r="3" fill="#3fb950"/><circle cx="591.1" cy="198.0" r="3" fill="#3fb950"/><circle cx="595.1" cy="198.0" r="3" fill="#3fb950"/><circle cx="599.2" cy="198.0" r="3" fill="#3fb950"/><circle cx="603.2" cy="198.0" r="3" fill="#3fb950"/><circle cx="607.3" cy="198.0" r="3" fill="#3fb950"/><circle cx="611.3" cy="198.0" r="3" fill="#3fb950"/><circle cx="615.4" cy="198.0" r="3" fill="#3fb950"/><circle cx="619.4" cy="198.0" r="3" fill="#3fb950"/><circle cx="623.5" cy="198.0" r="3" fill="#3fb950"/><circle cx="627.5" cy="198.0" r="3" fill="#3fb950"/><circle cx="631.6" cy="198.0" r="3" fill="#3fb950"/><circle cx="635.6" cy="198.0" r="3" fill="#3fb950"/><circle cx="639.7" cy="198.0" r="3" fill="#3fb950"/><circle cx="643.7" cy="198.0" r="3" fill="#3fb950"/><circle cx="647.8" cy="198.0" r="3" fill="#3fb950"/><circle cx="651.8" cy="198.0" r="3" fill="#3fb950"/><circle cx="655.9" cy="198.0" r="3" fill="#3fb950"/><circle cx="659.9" cy="198.0" r="3" fill="#3fb950"/><circle cx="664.0" cy="198.0" r="3" fill="#3fb950"/>
<polyline fill="none" stroke="#4aa3ff" stroke-width="2.5" stroke-linejoin="round" points="36.0,144.3 40.1,144.3 44.1,144.3 48.2,144.3 52.2,144.3 56.3,144.3 60.3,144.3 64.4,144.3 68.4,144.3 72.5,144.3 76.5,144.3 80.6,144.3 84.6,144.3 88.7,144.3 92.7,144.3 96.8,136.2 100.8,132.4 104.9,129.6 108.9,129.6 113.0,121.0 117.0,121.0 121.1,121.0 125.1,114.4 129.2,114.4 133.2,114.4 137.3,111.3 141.3,110.9 145.4,110.9 149.4,110.5 153.5,110.5 157.5,109.9 161.6,108.7 165.7,107.3 169.7,106.9 173.8,106.9 177.8,106.9 181.9,106.9 185.9,106.9 190.0,106.9 194.0,106.9 198.1,106.9 202.1,106.9 206.2,106.9 210.2,113.2 214.3,113.2 218.3,113.2 222.4,113.2 226.4,113.2 230.5,110.7 234.5,105.3 238.6,83.4 242.6,83.4 246.7,85.6 250.7,85.6 254.8,85.6 258.8,85.6 262.9,85.6 266.9,85.8 271.0,85.8 275.0,85.8 279.1,86.0 283.1,86.0 287.2,86.0 291.3,86.0 295.3,86.0 299.4,86.0 303.4,86.0 307.5,86.0 311.5,86.0 315.6,86.0 319.6,86.0 323.7,86.0 327.7,86.0 331.8,86.0 335.8,86.0 339.9,86.0 343.9,86.0 348.0,86.0 352.0,86.0 356.1,86.0 360.1,86.0 364.2,87.0 368.2,87.0 372.3,87.0 376.3,73.7 380.4,73.7 384.4,71.0 388.5,71.0 392.5,70.8 396.6,70.6 400.6,70.6 404.7,70.4 408.7,68.6 412.8,60.5 416.9,59.3 420.9,52.0 425.0,47.3 429.0,40.1 433.1,36.0 437.1,36.0 441.2,36.0 445.2,36.0 449.3,36.0 453.3,36.0 457.4,36.0 461.4,36.0 465.5,36.0 469.5,36.0 473.6,36.0 477.6,36.0 481.7,36.0 485.7,36.0 489.8,36.0 493.8,36.0 497.9,36.0 501.9,36.0 506.0,36.0 510.0,36.0 514.1,36.0 518.1,36.0 522.2,36.0 526.2,36.0 530.3,36.0 534.3,36.0 538.4,36.0 542.5,36.0 546.5,36.0 550.6,36.0 554.6,36.0 558.7,36.0 562.7,36.0 566.8,36.0 570.8,36.0 574.9,36.0 578.9,36.0 583.0,36.0 587.0,36.0 591.1,36.0 595.1,36.0 599.2,36.0 603.2,36.0 607.3,36.0 611.3,36.0 615.4,36.0 619.4,36.0 623.5,36.0 627.5,36.0 631.6,36.0 635.6,36.0 639.7,36.0 643.7,36.0 647.8,36.0 651.8,36.0 655.9,36.0 659.9,36.0 664.0,36.0"/><circle cx="36.0" cy="144.3" r="3" fill="#4aa3ff"/><circle cx="40.1" cy="144.3" r="3" fill="#4aa3ff"/><circle cx="44.1" cy="144.3" r="3" fill="#4aa3ff"/><circle cx="48.2" cy="144.3" r="3" fill="#4aa3ff"/><circle cx="52.2" cy="144.3" r="3" fill="#4aa3ff"/><circle cx="56.3" cy="144.3" r="3" fill="#4aa3ff"/><circle cx="60.3" cy="144.3" r="3" fill="#4aa3ff"/><circle cx="64.4" cy="144.3" r="3" fill="#4aa3ff"/><circle cx="68.4" cy="144.3" r="3" fill="#4aa3ff"/><circle cx="72.5" cy="144.3" r="3" fill="#4aa3ff"/><circle cx="76.5" cy="144.3" r="3" fill="#4aa3ff"/><circle cx="80.6" cy="144.3" r="3" fill="#4aa3ff"/><circle cx="84.6" cy="144.3" r="3" fill="#4aa3ff"/><circle cx="88.7" cy="144.3" r="3" fill="#4aa3ff"/><circle cx="92.7" cy="144.3" r="3" fill="#4aa3ff"/><circle cx="96.8" cy="136.2" r="3" fill="#4aa3ff"/><circle cx="100.8" cy="132.4" r="3" fill="#4aa3ff"/><circle cx="104.9" cy="129.6" r="3" fill="#4aa3ff"/><circle cx="108.9" cy="129.6" r="3" fill="#4aa3ff"/><circle cx="113.0" cy="121.0" r="3" fill="#4aa3ff"/><circle cx="117.0" cy="121.0" r="3" fill="#4aa3ff"/><circle cx="121.1" cy="121.0" r="3" fill="#4aa3ff"/><circle cx="125.1" cy="114.4" r="3" fill="#4aa3ff"/><circle cx="129.2" cy="114.4" r="3" fill="#4aa3ff"/><circle cx="133.2" cy="114.4" r="3" fill="#4aa3ff"/><circle cx="137.3" cy="111.3" r="3" fill="#4aa3ff"/><circle cx="141.3" cy="110.9" r="3" fill="#4aa3ff"/><circle cx="145.4" cy="110.9" r="3" fill="#4aa3ff"/><circle cx="149.4" cy="110.5" r="3" fill="#4aa3ff"/><circle cx="153.5" cy="110.5" r="3" fill="#4aa3ff"/><circle cx="157.5" cy="109.9" r="3" fill="#4aa3ff"/><circle cx="161.6" cy="108.7" r="3" fill="#4aa3ff"/><circle cx="165.7" cy="107.3" r="3" fill="#4aa3ff"/><circle cx="169.7" cy="106.9" r="3" fill="#4aa3ff"/><circle cx="173.8" cy="106.9" r="3" fill="#4aa3ff"/><circle cx="177.8" cy="106.9" r="3" fill="#4aa3ff"/><circle cx="181.9" cy="106.9" r="3" fill="#4aa3ff"/><circle cx="185.9" cy="106.9" r="3" fill="#4aa3ff"/><circle cx="190.0" cy="106.9" r="3" fill="#4aa3ff"/><circle cx="194.0" cy="106.9" r="3" fill="#4aa3ff"/><circle cx="198.1" cy="106.9" r="3" fill="#4aa3ff"/><circle cx="202.1" cy="106.9" r="3" fill="#4aa3ff"/><circle cx="206.2" cy="106.9" r="3" fill="#4aa3ff"/><circle cx="210.2" cy="113.2" r="3" fill="#4aa3ff"/><circle cx="214.3" cy="113.2" r="3" fill="#4aa3ff"/><circle cx="218.3" cy="113.2" r="3" fill="#4aa3ff"/><circle cx="222.4" cy="113.2" r="3" fill="#4aa3ff"/><circle cx="226.4" cy="113.2" r="3" fill="#4aa3ff"/><circle cx="230.5" cy="110.7" r="3" fill="#4aa3ff"/><circle cx="234.5" cy="105.3" r="3" fill="#4aa3ff"/><circle cx="238.6" cy="83.4" r="3" fill="#4aa3ff"/><circle cx="242.6" cy="83.4" r="3" fill="#4aa3ff"/><circle cx="246.7" cy="85.6" r="3" fill="#4aa3ff"/><circle cx="250.7" cy="85.6" r="3" fill="#4aa3ff"/><circle cx="254.8" cy="85.6" r="3" fill="#4aa3ff"/><circle cx="258.8" cy="85.6" r="3" fill="#4aa3ff"/><circle cx="262.9" cy="85.6" r="3" fill="#4aa3ff"/><circle cx="266.9" cy="85.8" r="3" fill="#4aa3ff"/><circle cx="271.0" cy="85.8" r="3" fill="#4aa3ff"/><circle cx="275.0" cy="85.8" r="3" fill="#4aa3ff"/><circle cx="279.1" cy="86.0" r="3" fill="#4aa3ff"/><circle cx="283.1" cy="86.0" r="3" fill="#4aa3ff"/><circle cx="287.2" cy="86.0" r="3" fill="#4aa3ff"/><circle cx="291.3" cy="86.0" r="3" fill="#4aa3ff"/><circle cx="295.3" cy="86.0" r="3" fill="#4aa3ff"/><circle cx="299.4" cy="86.0" r="3" fill="#4aa3ff"/><circle cx="303.4" cy="86.0" r="3" fill="#4aa3ff"/><circle cx="307.5" cy="86.0" r="3" fill="#4aa3ff"/><circle cx="311.5" cy="86.0" r="3" fill="#4aa3ff"/><circle cx="315.6" cy="86.0" r="3" fill="#4aa3ff"/><circle cx="319.6" cy="86.0" r="3" fill="#4aa3ff"/><circle cx="323.7" cy="86.0" r="3" fill="#4aa3ff"/><circle cx="327.7" cy="86.0" r="3" fill="#4aa3ff"/><circle cx="331.8" cy="86.0" r="3" fill="#4aa3ff"/><circle cx="335.8" cy="86.0" r="3" fill="#4aa3ff"/><circle cx="339.9" cy="86.0" r="3" fill="#4aa3ff"/><circle cx="343.9" cy="86.0" r="3" fill="#4aa3ff"/><circle cx="348.0" cy="86.0" r="3" fill="#4aa3ff"/><circle cx="352.0" cy="86.0" r="3" fill="#4aa3ff"/><circle cx="356.1" cy="86.0" r="3" fill="#4aa3ff"/><circle cx="360.1" cy="86.0" r="3" fill="#4aa3ff"/><circle cx="364.2" cy="87.0" r="3" fill="#4aa3ff"/><circle cx="368.2" cy="87.0" r="3" fill="#4aa3ff"/><circle cx="372.3" cy="87.0" r="3" fill="#4aa3ff"/><circle cx="376.3" cy="73.7" r="3" fill="#4aa3ff"/><circle cx="380.4" cy="73.7" r="3" fill="#4aa3ff"/><circle cx="384.4" cy="71.0" r="3" fill="#4aa3ff"/><circle cx="388.5" cy="71.0" r="3" fill="#4aa3ff"/><circle cx="392.5" cy="70.8" r="3" fill="#4aa3ff"/><circle cx="396.6" cy="70.6" r="3" fill="#4aa3ff"/><circle cx="400.6" cy="70.6" r="3" fill="#4aa3ff"/><circle cx="404.7" cy="70.4" r="3" fill="#4aa3ff"/><circle cx="408.7" cy="68.6" r="3" fill="#4aa3ff"/><circle cx="412.8" cy="60.5" r="3" fill="#4aa3ff"/><circle cx="416.9" cy="59.3" r="3" fill="#4aa3ff"/><circle cx="420.9" cy="52.0" r="3" fill="#4aa3ff"/><circle cx="425.0" cy="47.3" r="3" fill="#4aa3ff"/><circle cx="429.0" cy="40.1" r="3" fill="#4aa3ff"/><circle cx="433.1" cy="36.0" r="3" fill="#4aa3ff"/><circle cx="437.1" cy="36.0" r="3" fill="#4aa3ff"/><circle cx="441.2" cy="36.0" r="3" fill="#4aa3ff"/><circle cx="445.2" cy="36.0" r="3" fill="#4aa3ff"/><circle cx="449.3" cy="36.0" r="3" fill="#4aa3ff"/><circle cx="453.3" cy="36.0" r="3" fill="#4aa3ff"/><circle cx="457.4" cy="36.0" r="3" fill="#4aa3ff"/><circle cx="461.4" cy="36.0" r="3" fill="#4aa3ff"/><circle cx="465.5" cy="36.0" r="3" fill="#4aa3ff"/><circle cx="469.5" cy="36.0" r="3" fill="#4aa3ff"/><circle cx="473.6" cy="36.0" r="3" fill="#4aa3ff"/><circle cx="477.6" cy="36.0" r="3" fill="#4aa3ff"/><circle cx="481.7" cy="36.0" r="3" fill="#4aa3ff"/><circle cx="485.7" cy="36.0" r="3" fill="#4aa3ff"/><circle cx="489.8" cy="36.0" r="3" fill="#4aa3ff"/><circle cx="493.8" cy="36.0" r="3" fill="#4aa3ff"/><circle cx="497.9" cy="36.0" r="3" fill="#4aa3ff"/><circle cx="501.9" cy="36.0" r="3" fill="#4aa3ff"/><circle cx="506.0" cy="36.0" r="3" fill="#4aa3ff"/><circle cx="510.0" cy="36.0" r="3" fill="#4aa3ff"/><circle cx="514.1" cy="36.0" r="3" fill="#4aa3ff"/><circle cx="518.1" cy="36.0" r="3" fill="#4aa3ff"/><circle cx="522.2" cy="36.0" r="3" fill="#4aa3ff"/><circle cx="526.2" cy="36.0" r="3" fill="#4aa3ff"/><circle cx="530.3" cy="36.0" r="3" fill="#4aa3ff"/><circle cx="534.3" cy="36.0" r="3" fill="#4aa3ff"/><circle cx="538.4" cy="36.0" r="3" fill="#4aa3ff"/><circle cx="542.5" cy="36.0" r="3" fill="#4aa3ff"/><circle cx="546.5" cy="36.0" r="3" fill="#4aa3ff"/><circle cx="550.6" cy="36.0" r="3" fill="#4aa3ff"/><circle cx="554.6" cy="36.0" r="3" fill="#4aa3ff"/><circle cx="558.7" cy="36.0" r="3" fill="#4aa3ff"/><circle cx="562.7" cy="36.0" r="3" fill="#4aa3ff"/><circle cx="566.8" cy="36.0" r="3" fill="#4aa3ff"/><circle cx="570.8" cy="36.0" r="3" fill="#4aa3ff"/><circle cx="574.9" cy="36.0" r="3" fill="#4aa3ff"/><circle cx="578.9" cy="36.0" r="3" fill="#4aa3ff"/><circle cx="583.0" cy="36.0" r="3" fill="#4aa3ff"/><circle cx="587.0" cy="36.0" r="3" fill="#4aa3ff"/><circle cx="591.1" cy="36.0" r="3" fill="#4aa3ff"/><circle cx="595.1" cy="36.0" r="3" fill="#4aa3ff"/><circle cx="599.2" cy="36.0" r="3" fill="#4aa3ff"/><circle cx="603.2" cy="36.0" r="3" fill="#4aa3ff"/><circle cx="607.3" cy="36.0" r="3" fill="#4aa3ff"/><circle cx="611.3" cy="36.0" r="3" fill="#4aa3ff"/><circle cx="615.4" cy="36.0" r="3" fill="#4aa3ff"/><circle cx="619.4" cy="36.0" r="3" fill="#4aa3ff"/><circle cx="623.5" cy="36.0" r="3" fill="#4aa3ff"/><circle cx="627.5" cy="36.0" r="3" fill="#4aa3ff"/><circle cx="631.6" cy="36.0" r="3" fill="#4aa3ff"/><circle cx="635.6" cy="36.0" r="3" fill="#4aa3ff"/><circle cx="639.7" cy="36.0" r="3" fill="#4aa3ff"/><circle cx="643.7" cy="36.0" r="3" fill="#4aa3ff"/><circle cx="647.8" cy="36.0" r="3" fill="#4aa3ff"/><circle cx="651.8" cy="36.0" r="3" fill="#4aa3ff"/><circle cx="655.9" cy="36.0" r="3" fill="#4aa3ff"/><circle cx="659.9" cy="36.0" r="3" fill="#4aa3ff"/><circle cx="664.0" cy="36.0" r="3" fill="#4aa3ff"/>
<text x="36" y="225" fill="#6b7280" font-size="11">2026-06-26</text>
<text x="664" y="225" fill="#6b7280" font-size="11" text-anchor="end">2026-07-12</text>
<text x="36" y="212" font-family="system-ui,sans-serif" font-size="11">
<tspan fill="#4aa3ff">&#9679; open FPs</tspan>  <tspan fill="#3fb950">&#9679; closed (Anthropic acting)</tspan>  <tspan fill="#8a5a5a">&#9679; harness withdrawn</tspan></text>
<text x="664" y="22" text-anchor="end" font-family="system-ui,sans-serif" font-size="12">
<tspan fill="#4aa3ff">open 800</tspan>  <tspan fill="#3fb950">closed 0</tspan>  <tspan fill="#8a5a5a">harness 0</tspan></text>
</svg>