<svg xmlns="http://www.w3.org/2000/svg" width="700" height="234" viewBox="0 0 700 234" role="img">
<rect width="700" height="234" rx="12" fill="#16181d"/>
<text x="36" y="22" fill="#e8eaed" font-family="system-ui,sans-serif" font-size="14" font-weight="700">Is Anthropic acting? cyber/aup false positives over time</text>
<line x1="36" y1="198.0" x2="664" y2="198.0" stroke="#2a2e37" stroke-width="1"/><text x="30" y="202.0" fill="#6b7280" font-size="11" text-anchor="end">0</text><line x1="36" y1="117.0" x2="664" y2="117.0" stroke="#2a2e37" stroke-width="1"/><text x="30" y="121.0" fill="#6b7280" font-size="11" text-anchor="end">400</text><line x1="36" y1="36.0" x2="664" y2="36.0" stroke="#2a2e37" stroke-width="1"/><text x="30" y="40.0" fill="#6b7280" font-size="11" text-anchor="end">800</text>

<polyline fill="none" stroke="#8a5a5a" stroke-width="2.5" stroke-linejoin="round" points="36.0,145.1 39.2,145.1 42.4,145.1 45.7,145.1 48.9,145.1 52.1,145.1 55.3,145.1 58.5,145.1 61.8,145.1 65.0,145.1 68.2,145.1 71.4,145.1 74.6,145.1 77.9,145.1 81.1,145.1 84.3,145.1 87.5,145.1 90.7,145.1 94.0,145.1 97.2,145.1 100.4,145.1 103.6,145.1 106.9,145.1 110.1,145.1 113.3,145.1 116.5,145.1 119.7,145.1 123.0,145.1 126.2,145.1 129.4,145.1 132.6,145.1 135.8,145.1 139.1,145.1 142.3,145.1 145.5,145.1 148.7,145.1 151.9,145.1 155.2,145.1 158.4,145.1 161.6,145.1 164.8,145.1 168.0,145.1 171.3,145.1 174.5,145.1 177.7,145.1 180.9,145.1 184.1,145.1 187.4,145.1 190.6,145.1 193.8,145.1 197.0,155.7 200.2,155.7 203.5,155.7 206.7,155.7 209.9,155.7 213.1,155.7 216.3,155.7 219.6,155.7 222.8,155.7 226.0,155.7 229.2,155.7 232.5,155.7 235.7,155.7 238.9,155.7 242.1,155.7 245.3,155.7 248.6,155.7 251.8,155.7 255.0,155.7 258.2,155.7 261.4,155.7 264.7,155.7 267.9,155.7 271.1,155.7 274.3,155.7 277.5,155.7 280.8,155.7 284.0,155.7 287.2,155.7 290.4,155.7 293.6,155.7 296.9,155.7 300.1,155.7 303.3,155.7 306.5,167.6 309.7,167.6 313.0,170.3 316.2,170.3 319.4,170.5 322.6,170.7 325.8,170.7 329.1,170.9 332.3,172.7 335.5,180.6 338.7,181.8 341.9,189.1 345.2,190.5 348.4,195.2 351.6,198.0 354.8,198.0 358.1,198.0 361.3,198.0 364.5,198.0 367.7,198.0 370.9,198.0 374.2,198.0 377.4,198.0 380.6,198.0 383.8,198.0 387.0,198.0 390.3,198.0 393.5,198.0 396.7,198.0 399.9,198.0 403.1,198.0 406.4,198.0 409.6,198.0 412.8,198.0 416.0,198.0 419.2,198.0 422.5,198.0 425.7,198.0 428.9,198.0 432.1,198.0 435.3,198.0 438.6,198.0 441.8,198.0 445.0,198.0 448.2,198.0 451.4,198.0 454.7,198.0 457.9,198.0 461.1,198.0 464.3,198.0 467.5,198.0 470.8,198.0 474.0,198.0 477.2,198.0 480.4,198.0 483.7,198.0 486.9,198.0 490.1,198.0 493.3,198.0 496.5,198.0 499.8,198.0 503.0,198.0 506.2,198.0 509.4,198.0 512.6,198.0 515.9,198.0 519.1,198.0 522.3,198.0 525.5,198.0 528.7,198.0 532.0,198.0 535.2,198.0 538.4,198.0 541.6,198.0 544.8,198.0 548.1,198.0 551.3,198.0 554.5,198.0 557.7,198.0 560.9,198.0 564.2,198.0 567.4,198.0 570.6,198.0 573.8,198.0 577.0,198.0 580.3,198.0 583.5,198.0 586.7,198.0 589.9,198.0 593.1,198.0 596.4,198.0 599.6,198.0 602.8,198.0 606.0,198.0 609.3,198.0 612.5,198.0 615.7,198.0 618.9,198.0 622.1,198.0 625.4,198.0 628.6,198.0 631.8,198.0 635.0,198.0 638.2,198.0 641.5,198.0 644.7,198.0 647.9,198.0 651.1,198.0 654.3,198.0 657.6,198.0 660.8,198.0 664.0,198.0"/><circle cx="36.0" cy="145.1" r="3" fill="#8a5a5a"/><circle cx="39.2" cy="145.1" r="3" fill="#8a5a5a"/><circle cx="42.4" cy="145.1" r="3" fill="#8a5a5a"/><circle cx="45.7" cy="145.1" r="3" fill="#8a5a5a"/><circle cx="48.9" cy="145.1" r="3" fill="#8a5a5a"/><circle cx="52.1" cy="145.1" r="3" fill="#8a5a5a"/><circle cx="55.3" cy="145.1" r="3" fill="#8a5a5a"/><circle cx="58.5" cy="145.1" r="3" fill="#8a5a5a"/><circle cx="61.8" cy="145.1" r="3" fill="#8a5a5a"/><circle cx="65.0" cy="145.1" r="3" fill="#8a5a5a"/><circle cx="68.2" cy="145.1" r="3" fill="#8a5a5a"/><circle cx="71.4" cy="145.1" r="3" fill="#8a5a5a"/><circle cx="74.6" cy="145.1" r="3" fill="#8a5a5a"/><circle cx="77.9" cy="145.1" r="3" fill="#8a5a5a"/><circle cx="81.1" cy="145.1" r="3" fill="#8a5a5a"/><circle cx="84.3" cy="145.1" r="3" fill="#8a5a5a"/><circle cx="87.5" cy="145.1" r="3" fill="#8a5a5a"/><circle cx="90.7" cy="145.1" r="3" fill="#8a5a5a"/><circle cx="94.0" cy="145.1" r="3" fill="#8a5a5a"/><circle cx="97.2" cy="145.1" r="3" fill="#8a5a5a"/><circle cx="100.4" cy="145.1" r="3" fill="#8a5a5a"/><circle cx="103.6" cy="145.1" r="3" fill="#8a5a5a"/><circle cx="106.9" cy="145.1" r="3" fill="#8a5a5a"/><circle cx="110.1" cy="145.1" r="3" fill="#8a5a5a"/><circle cx="113.3" cy="145.1" r="3" fill="#8a5a5a"/><circle cx="116.5" cy="145.1" r="3" fill="#8a5a5a"/><circle cx="119.7" cy="145.1" r="3" fill="#8a5a5a"/><circle cx="123.0" cy="145.1" r="3" fill="#8a5a5a"/><circle cx="126.2" cy="145.1" r="3" fill="#8a5a5a"/><circle cx="129.4" cy="145.1" r="3" fill="#8a5a5a"/><circle cx="132.6" cy="145.1" r="3" fill="#8a5a5a"/><circle cx="135.8" cy="145.1" r="3" fill="#8a5a5a"/><circle cx="139.1" cy="145.1" r="3" fill="#8a5a5a"/><circle cx="142.3" cy="145.1" r="3" fill="#8a5a5a"/><circle cx="145.5" cy="145.1" r="3" fill="#8a5a5a"/><circle cx="148.7" cy="145.1" r="3" fill="#8a5a5a"/><circle cx="151.9" cy="145.1" r="3" fill="#8a5a5a"/><circle cx="155.2" cy="145.1" r="3" fill="#8a5a5a"/><circle cx="158.4" cy="145.1" r="3" fill="#8a5a5a"/><circle cx="161.6" cy="145.1" r="3" fill="#8a5a5a"/><circle cx="164.8" cy="145.1" r="3" fill="#8a5a5a"/><circle cx="168.0" cy="145.1" r="3" fill="#8a5a5a"/><circle cx="171.3" cy="145.1" r="3" fill="#8a5a5a"/><circle cx="174.5" cy="145.1" r="3" fill="#8a5a5a"/><circle cx="177.7" cy="145.1" r="3" fill="#8a5a5a"/><circle cx="180.9" cy="145.1" r="3" fill="#8a5a5a"/><circle cx="184.1" cy="145.1" r="3" fill="#8a5a5a"/><circle cx="187.4" cy="145.1" r="3" fill="#8a5a5a"/><circle cx="190.6" cy="145.1" r="3" fill="#8a5a5a"/><circle cx="193.8" cy="145.1" r="3" fill="#8a5a5a"/><circle cx="197.0" cy="155.7" r="3" fill="#8a5a5a"/><circle cx="200.2" cy="155.7" r="3" fill="#8a5a5a"/><circle cx="203.5" cy="155.7" r="3" fill="#8a5a5a"/><circle cx="206.7" cy="155.7" r="3" fill="#8a5a5a"/><circle cx="209.9" cy="155.7" r="3" fill="#8a5a5a"/><circle cx="213.1" cy="155.7" r="3" fill="#8a5a5a"/><circle cx="216.3" cy="155.7" r="3" fill="#8a5a5a"/><circle cx="219.6" cy="155.7" r="3" fill="#8a5a5a"/><circle cx="222.8" cy="155.7" r="3" fill="#8a5a5a"/><circle cx="226.0" cy="155.7" r="3" fill="#8a5a5a"/><circle cx="229.2" cy="155.7" r="3" fill="#8a5a5a"/><circle cx="232.5" cy="155.7" r="3" fill="#8a5a5a"/><circle cx="235.7" cy="155.7" r="3" fill="#8a5a5a"/><circle cx="238.9" cy="155.7" r="3" fill="#8a5a5a"/><circle cx="242.1" cy="155.7" r="3" fill="#8a5a5a"/><circle cx="245.3" cy="155.7" r="3" fill="#8a5a5a"/><circle cx="248.6" cy="155.7" r="3" fill="#8a5a5a"/><circle cx="251.8" cy="155.7" r="3" fill="#8a5a5a"/><circle cx="255.0" cy="155.7" r="3" fill="#8a5a5a"/><circle cx="258.2" cy="155.7" r="3" fill="#8a5a5a"/><circle cx="261.4" cy="155.7" r="3" fill="#8a5a5a"/><circle cx="264.7" cy="155.7" r="3" fill="#8a5a5a"/><circle cx="267.9" cy="155.7" r="3" fill="#8a5a5a"/><circle cx="271.1" cy="155.7" r="3" fill="#8a5a5a"/><circle cx="274.3" cy="155.7" r="3" fill="#8a5a5a"/><circle cx="277.5" cy="155.7" r="3" fill="#8a5a5a"/><circle cx="280.8" cy="155.7" r="3" fill="#8a5a5a"/><circle cx="284.0" cy="155.7" r="3" fill="#8a5a5a"/><circle cx="287.2" cy="155.7" r="3" fill="#8a5a5a"/><circle cx="290.4" cy="155.7" r="3" fill="#8a5a5a"/><circle cx="293.6" cy="155.7" r="3" fill="#8a5a5a"/><circle cx="296.9" cy="155.7" r="3" fill="#8a5a5a"/><circle cx="300.1" cy="155.7" r="3" fill="#8a5a5a"/><circle cx="303.3" cy="155.7" r="3" fill="#8a5a5a"/><circle cx="306.5" cy="167.6" r="3" fill="#8a5a5a"/><circle cx="309.7" cy="167.6" r="3" fill="#8a5a5a"/><circle cx="313.0" cy="170.3" r="3" fill="#8a5a5a"/><circle cx="316.2" cy="170.3" r="3" fill="#8a5a5a"/><circle cx="319.4" cy="170.5" r="3" fill="#8a5a5a"/><circle cx="322.6" cy="170.7" r="3" fill="#8a5a5a"/><circle cx="325.8" cy="170.7" r="3" fill="#8a5a5a"/><circle cx="329.1" cy="170.9" r="3" fill="#8a5a5a"/><circle cx="332.3" cy="172.7" r="3" fill="#8a5a5a"/><circle cx="335.5" cy="180.6" r="3" fill="#8a5a5a"/><circle cx="338.7" cy="181.8" r="3" fill="#8a5a5a"/><circle cx="341.9" cy="189.1" r="3" fill="#8a5a5a"/><circle cx="345.2" cy="190.5" r="3" fill="#8a5a5a"/><circle cx="348.4" cy="195.2" r="3" fill="#8a5a5a"/><circle cx="351.6" cy="198.0" r="3" fill="#8a5a5a"/><circle cx="354.8" cy="198.0" r="3" fill="#8a5a5a"/><circle cx="358.1" cy="198.0" r="3" fill="#8a5a5a"/><circle cx="361.3" cy="198.0" r="3" fill="#8a5a5a"/><circle cx="364.5" cy="198.0" r="3" fill="#8a5a5a"/><circle cx="367.7" cy="198.0" r="3" fill="#8a5a5a"/><circle cx="370.9" cy="198.0" r="3" fill="#8a5a5a"/><circle cx="374.2" cy="198.0" r="3" fill="#8a5a5a"/><circle cx="377.4" cy="198.0" r="3" fill="#8a5a5a"/><circle cx="380.6" cy="198.0" r="3" fill="#8a5a5a"/><circle cx="383.8" cy="198.0" r="3" fill="#8a5a5a"/><circle cx="387.0" cy="198.0" r="3" fill="#8a5a5a"/><circle cx="390.3" cy="198.0" r="3" fill="#8a5a5a"/><circle cx="393.5" cy="198.0" r="3" fill="#8a5a5a"/><circle cx="396.7" cy="198.0" r="3" fill="#8a5a5a"/><circle cx="399.9" cy="198.0" r="3" fill="#8a5a5a"/><circle cx="403.1" cy="198.0" r="3" fill="#8a5a5a"/><circle cx="406.4" cy="198.0" r="3" fill="#8a5a5a"/><circle cx="409.6" cy="198.0" r="3" fill="#8a5a5a"/><circle cx="412.8" cy="198.0" r="3" fill="#8a5a5a"/><circle cx="416.0" cy="198.0" r="3" fill="#8a5a5a"/><circle cx="419.2" cy="198.0" r="3" fill="#8a5a5a"/><circle cx="422.5" cy="198.0" r="3" fill="#8a5a5a"/><circle cx="425.7" cy="198.0" r="3" fill="#8a5a5a"/><circle cx="428.9" cy="198.0" r="3" fill="#8a5a5a"/><circle cx="432.1" cy="198.0" r="3" fill="#8a5a5a"/><circle cx="435.3" cy="198.0" r="3" fill="#8a5a5a"/><circle cx="438.6" cy="198.0" r="3" fill="#8a5a5a"/><circle cx="441.8" cy="198.0" r="3" fill="#8a5a5a"/><circle cx="445.0" cy="198.0" r="3" fill="#8a5a5a"/><circle cx="448.2" cy="198.0" r="3" fill="#8a5a5a"/><circle cx="451.4" cy="198.0" r="3" fill="#8a5a5a"/><circle cx="454.7" cy="198.0" r="3" fill="#8a5a5a"/><circle cx="457.9" cy="198.0" r="3" fill="#8a5a5a"/><circle cx="461.1" cy="198.0" r="3" fill="#8a5a5a"/><circle cx="464.3" cy="198.0" r="3" fill="#8a5a5a"/><circle cx="467.5" cy="198.0" r="3" fill="#8a5a5a"/><circle cx="470.8" cy="198.0" r="3" fill="#8a5a5a"/><circle cx="474.0" cy="198.0" r="3" fill="#8a5a5a"/><circle cx="477.2" cy="198.0" r="3" fill="#8a5a5a"/><circle cx="480.4" cy="198.0" r="3" fill="#8a5a5a"/><circle cx="483.7" cy="198.0" r="3" fill="#8a5a5a"/><circle cx="486.9" cy="198.0" r="3" fill="#8a5a5a"/><circle cx="490.1" cy="198.0" r="3" fill="#8a5a5a"/><circle cx="493.3" cy="198.0" r="3" fill="#8a5a5a"/><circle cx="496.5" cy="198.0" r="3" fill="#8a5a5a"/><circle cx="499.8" cy="198.0" r="3" fill="#8a5a5a"/><circle cx="503.0" cy="198.0" r="3" fill="#8a5a5a"/><circle cx="506.2" cy="198.0" r="3" fill="#8a5a5a"/><circle cx="509.4" cy="198.0" r="3" fill="#8a5a5a"/><circle cx="512.6" cy="198.0" r="3" fill="#8a5a5a"/><circle cx="515.9" cy="198.0" r="3" fill="#8a5a5a"/><circle cx="519.1" cy="198.0" r="3" fill="#8a5a5a"/><circle cx="522.3" cy="198.0" r="3" fill="#8a5a5a"/><circle cx="525.5" cy="198.0" r="3" fill="#8a5a5a"/><circle cx="528.7" cy="198.0" r="3" fill="#8a5a5a"/><circle cx="532.0" cy="198.0" r="3" fill="#8a5a5a"/><circle cx="535.2" cy="198.0" r="3" fill="#8a5a5a"/><circle cx="538.4" cy="198.0" r="3" fill="#8a5a5a"/><circle cx="541.6" cy="198.0" r="3" fill="#8a5a5a"/><circle cx="544.8" cy="198.0" r="3" fill="#8a5a5a"/><circle cx="548.1" cy="198.0" r="3" fill="#8a5a5a"/><circle cx="551.3" cy="198.0" r="3" fill="#8a5a5a"/><circle cx="554.5" cy="198.0" r="3" fill="#8a5a5a"/><circle cx="557.7" cy="198.0" r="3" fill="#8a5a5a"/><circle cx="560.9" cy="198.0" r="3" fill="#8a5a5a"/><circle cx="564.2" cy="198.0" r="3" fill="#8a5a5a"/><circle cx="567.4" cy="198.0" r="3" fill="#8a5a5a"/><circle cx="570.6" cy="198.0" r="3" fill="#8a5a5a"/><circle cx="573.8" cy="198.0" r="3" fill="#8a5a5a"/><circle cx="577.0" cy="198.0" r="3" fill="#8a5a5a"/><circle cx="580.3" cy="198.0" r="3" fill="#8a5a5a"/><circle cx="583.5" cy="198.0" r="3" fill="#8a5a5a"/><circle cx="586.7" cy="198.0" r="3" fill="#8a5a5a"/><circle cx="589.9" cy="198.0" r="3" fill="#8a5a5a"/><circle cx="593.1" cy="198.0" r="3" fill="#8a5a5a"/><circle cx="596.4" cy="198.0" r="3" fill="#8a5a5a"/><circle cx="599.6" cy="198.0" r="3" fill="#8a5a5a"/><circle cx="602.8" cy="198.0" r="3" fill="#8a5a5a"/><circle cx="606.0" cy="198.0" r="3" fill="#8a5a5a"/><circle cx="609.3" cy="198.0" r="3" fill="#8a5a5a"/><circle cx="612.5" cy="198.0" r="3" fill="#8a5a5a"/><circle cx="615.7" cy="198.0" r="3" fill="#8a5a5a"/><circle cx="618.9" cy="198.0" r="3" fill="#8a5a5a"/><circle cx="622.1" cy="198.0" r="3" fill="#8a5a5a"/><circle cx="625.4" cy="198.0" r="3" fill="#8a5a5a"/><circle cx="628.6" cy="198.0" r="3" fill="#8a5a5a"/><circle cx="631.8" cy="198.0" r="3" fill="#8a5a5a"/><circle cx="635.0" cy="198.0" r="3" fill="#8a5a5a"/><circle cx="638.2" cy="198.0" r="3" fill="#8a5a5a"/><circle cx="641.5" cy="198.0" r="3" fill="#8a5a5a"/><circle cx="644.7" cy="198.0" r="3" fill="#8a5a5a"/><circle cx="647.9" cy="198.0" r="3" fill="#8a5a5a"/><circle cx="651.1" cy="198.0" r="3" fill="#8a5a5a"/><circle cx="654.3" cy="198.0" r="3" fill="#8a5a5a"/><circle cx="657.6" cy="198.0" r="3" fill="#8a5a5a"/><circle cx="660.8" cy="198.0" r="3" fill="#8a5a5a"/><circle cx="664.0" cy="198.0" r="3" fill="#8a5a5a"/>
<polyline fill="none" stroke="#3fb950" stroke-width="2.5" stroke-linejoin="round" points="36.0,198.0 39.2,198.0 42.4,198.0 45.7,198.0 48.9,198.0 52.1,198.0 55.3,198.0 58.5,198.0 61.8,198.0 65.0,198.0 68.2,198.0 71.4,198.0 74.6,198.0 77.9,198.0 81.1,198.0 84.3,198.0 87.5,198.0 90.7,198.0 94.0,198.0 97.2,198.0 100.4,198.0 103.6,198.0 106.9,198.0 110.1,198.0 113.3,198.0 116.5,198.0 119.7,198.0 123.0,198.0 126.2,198.0 129.4,198.0 132.6,198.0 135.8,198.0 139.1,198.0 142.3,198.0 145.5,198.0 148.7,198.0 151.9,198.0 155.2,198.0 158.4,198.0 161.6,198.0 164.8,198.0 168.0,198.0 171.3,198.0 174.5,191.7 177.7,191.7 180.9,191.7 184.1,191.7 187.4,191.7 190.6,191.7 193.8,191.7 197.0,192.9 200.2,192.9 203.5,190.7 206.7,190.7 209.9,190.7 213.1,190.7 216.3,190.7 219.6,190.5 222.8,190.5 226.0,190.5 229.2,190.3 232.5,190.3 235.7,190.3 238.9,190.3 242.1,190.3 245.3,190.3 248.6,190.3 251.8,190.3 255.0,190.3 258.2,190.3 261.4,190.3 264.7,190.3 267.9,190.3 271.1,190.3 274.3,190.3 277.5,190.3 280.8,190.3 284.0,190.3 287.2,190.3 290.4,190.3 293.6,190.3 296.9,189.3 300.1,189.3 303.3,189.3 306.5,190.7 309.7,190.7 313.0,190.7 316.2,190.7 319.4,190.7 322.6,190.7 325.8,190.7 329.1,190.7 332.3,190.7 335.5,190.9 338.7,190.9 341.9,190.9 345.2,194.2 348.4,196.8 351.6,198.0 354.8,198.0 358.1,198.0 361.3,198.0 364.5,198.0 367.7,198.0 370.9,198.0 374.2,198.0 377.4,198.0 380.6,198.0 383.8,198.0 387.0,198.0 390.3,198.0 393.5,198.0 396.7,198.0 399.9,198.0 403.1,198.0 406.4,198.0 409.6,198.0 412.8,198.0 416.0,198.0 419.2,198.0 422.5,198.0 425.7,198.0 428.9,198.0 432.1,198.0 435.3,198.0 438.6,198.0 441.8,198.0 445.0,198.0 448.2,198.0 451.4,198.0 454.7,198.0 457.9,198.0 461.1,198.0 464.3,198.0 467.5,198.0 470.8,198.0 474.0,198.0 477.2,198.0 480.4,198.0 483.7,198.0 486.9,198.0 490.1,198.0 493.3,198.0 496.5,198.0 499.8,198.0 503.0,198.0 506.2,198.0 509.4,198.0 512.6,198.0 515.9,198.0 519.1,198.0 522.3,198.0 525.5,198.0 528.7,198.0 532.0,198.0 535.2,198.0 538.4,198.0 541.6,198.0 544.8,198.0 548.1,198.0 551.3,198.0 554.5,198.0 557.7,198.0 560.9,198.0 564.2,198.0 567.4,198.0 570.6,198.0 573.8,198.0 577.0,198.0 580.3,198.0 583.5,198.0 586.7,198.0 589.9,198.0 593.1,198.0 596.4,198.0 599.6,198.0 602.8,198.0 606.0,198.0 609.3,198.0 612.5,198.0 615.7,198.0 618.9,198.0 622.1,198.0 625.4,198.0 628.6,198.0 631.8,198.0 635.0,198.0 638.2,198.0 641.5,198.0 644.7,198.0 647.9,198.0 651.1,198.0 654.3,198.0 657.6,198.0 660.8,198.0 664.0,198.0"/><circle cx="36.0" cy="198.0" r="3" fill="#3fb950"/><circle cx="39.2" cy="198.0" r="3" fill="#3fb950"/><circle cx="42.4" cy="198.0" r="3" fill="#3fb950"/><circle cx="45.7" cy="198.0" r="3" fill="#3fb950"/><circle cx="48.9" cy="198.0" r="3" fill="#3fb950"/><circle cx="52.1" cy="198.0" r="3" fill="#3fb950"/><circle cx="55.3" cy="198.0" r="3" fill="#3fb950"/><circle cx="58.5" cy="198.0" r="3" fill="#3fb950"/><circle cx="61.8" cy="198.0" r="3" fill="#3fb950"/><circle cx="65.0" cy="198.0" r="3" fill="#3fb950"/><circle cx="68.2" cy="198.0" r="3" fill="#3fb950"/><circle cx="71.4" cy="198.0" r="3" fill="#3fb950"/><circle cx="74.6" cy="198.0" r="3" fill="#3fb950"/><circle cx="77.9" cy="198.0" r="3" fill="#3fb950"/><circle cx="81.1" cy="198.0" r="3" fill="#3fb950"/><circle cx="84.3" cy="198.0" r="3" fill="#3fb950"/><circle cx="87.5" cy="198.0" r="3" fill="#3fb950"/><circle cx="90.7" cy="198.0" r="3" fill="#3fb950"/><circle cx="94.0" cy="198.0" r="3" fill="#3fb950"/><circle cx="97.2" cy="198.0" r="3" fill="#3fb950"/><circle cx="100.4" cy="198.0" r="3" fill="#3fb950"/><circle cx="103.6" cy="198.0" r="3" fill="#3fb950"/><circle cx="106.9" cy="198.0" r="3" fill="#3fb950"/><circle cx="110.1" cy="198.0" r="3" fill="#3fb950"/><circle cx="113.3" cy="198.0" r="3" fill="#3fb950"/><circle cx="116.5" cy="198.0" r="3" fill="#3fb950"/><circle cx="119.7" cy="198.0" r="3" fill="#3fb950"/><circle cx="123.0" cy="198.0" r="3" fill="#3fb950"/><circle cx="126.2" cy="198.0" r="3" fill="#3fb950"/><circle cx="129.4" cy="198.0" r="3" fill="#3fb950"/><circle cx="132.6" cy="198.0" r="3" fill="#3fb950"/><circle cx="135.8" cy="198.0" r="3" fill="#3fb950"/><circle cx="139.1" cy="198.0" r="3" fill="#3fb950"/><circle cx="142.3" cy="198.0" r="3" fill="#3fb950"/><circle cx="145.5" cy="198.0" r="3" fill="#3fb950"/><circle cx="148.7" cy="198.0" r="3" fill="#3fb950"/><circle cx="151.9" cy="198.0" r="3" fill="#3fb950"/><circle cx="155.2" cy="198.0" r="3" fill="#3fb950"/><circle cx="158.4" cy="198.0" r="3" fill="#3fb950"/><circle cx="161.6" cy="198.0" r="3" fill="#3fb950"/><circle cx="164.8" cy="198.0" r="3" fill="#3fb950"/><circle cx="168.0" cy="198.0" r="3" fill="#3fb950"/><circle cx="171.3" cy="198.0" r="3" fill="#3fb950"/><circle cx="174.5" cy="191.7" r="3" fill="#3fb950"/><circle cx="177.7" cy="191.7" r="3" fill="#3fb950"/><circle cx="180.9" cy="191.7" r="3" fill="#3fb950"/><circle cx="184.1" cy="191.7" r="3" fill="#3fb950"/><circle cx="187.4" cy="191.7" r="3" fill="#3fb950"/><circle cx="190.6" cy="191.7" r="3" fill="#3fb950"/><circle cx="193.8" cy="191.7" r="3" fill="#3fb950"/><circle cx="197.0" cy="192.9" r="3" fill="#3fb950"/><circle cx="200.2" cy="192.9" r="3" fill="#3fb950"/><circle cx="203.5" cy="190.7" r="3" fill="#3fb950"/><circle cx="206.7" cy="190.7" r="3" fill="#3fb950"/><circle cx="209.9" cy="190.7" r="3" fill="#3fb950"/><circle cx="213.1" cy="190.7" r="3" fill="#3fb950"/><circle cx="216.3" cy="190.7" r="3" fill="#3fb950"/><circle cx="219.6" cy="190.5" r="3" fill="#3fb950"/><circle cx="222.8" cy="190.5" r="3" fill="#3fb950"/><circle cx="226.0" cy="190.5" r="3" fill="#3fb950"/><circle cx="229.2" cy="190.3" r="3" fill="#3fb950"/><circle cx="232.5" cy="190.3" r="3" fill="#3fb950"/><circle cx="235.7" cy="190.3" r="3" fill="#3fb950"/><circle cx="238.9" cy="190.3" r="3" fill="#3fb950"/><circle cx="242.1" cy="190.3" r="3" fill="#3fb950"/><circle cx="245.3" cy="190.3" r="3" fill="#3fb950"/><circle cx="248.6" cy="190.3" r="3" fill="#3fb950"/><circle cx="251.8" cy="190.3" r="3" fill="#3fb950"/><circle cx="255.0" cy="190.3" r="3" fill="#3fb950"/><circle cx="258.2" cy="190.3" r="3" fill="#3fb950"/><circle cx="261.4" cy="190.3" r="3" fill="#3fb950"/><circle cx="264.7" cy="190.3" r="3" fill="#3fb950"/><circle cx="267.9" cy="190.3" r="3" fill="#3fb950"/><circle cx="271.1" cy="190.3" r="3" fill="#3fb950"/><circle cx="274.3" cy="190.3" r="3" fill="#3fb950"/><circle cx="277.5" cy="190.3" r="3" fill="#3fb950"/><circle cx="280.8" cy="190.3" r="3" fill="#3fb950"/><circle cx="284.0" cy="190.3" r="3" fill="#3fb950"/><circle cx="287.2" cy="190.3" r="3" fill="#3fb950"/><circle cx="290.4" cy="190.3" r="3" fill="#3fb950"/><circle cx="293.6" cy="190.3" r="3" fill="#3fb950"/><circle cx="296.9" cy="189.3" r="3" fill="#3fb950"/><circle cx="300.1" cy="189.3" r="3" fill="#3fb950"/><circle cx="303.3" cy="189.3" r="3" fill="#3fb950"/><circle cx="306.5" cy="190.7" r="3" fill="#3fb950"/><circle cx="309.7" cy="190.7" r="3" fill="#3fb950"/><circle cx="313.0" cy="190.7" r="3" fill="#3fb950"/><circle cx="316.2" cy="190.7" r="3" fill="#3fb950"/><circle cx="319.4" cy="190.7" r="3" fill="#3fb950"/><circle cx="322.6" cy="190.7" r="3" fill="#3fb950"/><circle cx="325.8" cy="190.7" r="3" fill="#3fb950"/><circle cx="329.1" cy="190.7" r="3" fill="#3fb950"/><circle cx="332.3" cy="190.7" r="3" fill="#3fb950"/><circle cx="335.5" cy="190.9" r="3" fill="#3fb950"/><circle cx="338.7" cy="190.9" r="3" fill="#3fb950"/><circle cx="341.9" cy="190.9" r="3" fill="#3fb950"/><circle cx="345.2" cy="194.2" r="3" fill="#3fb950"/><circle cx="348.4" cy="196.8" r="3" fill="#3fb950"/><circle cx="351.6" cy="198.0" r="3" fill="#3fb950"/><circle cx="354.8" cy="198.0" r="3" fill="#3fb950"/><circle cx="358.1" cy="198.0" r="3" fill="#3fb950"/><circle cx="361.3" cy="198.0" r="3" fill="#3fb950"/><circle cx="364.5" cy="198.0" r="3" fill="#3fb950"/><circle cx="367.7" cy="198.0" r="3" fill="#3fb950"/><circle cx="370.9" cy="198.0" r="3" fill="#3fb950"/><circle cx="374.2" cy="198.0" r="3" fill="#3fb950"/><circle cx="377.4" cy="198.0" r="3" fill="#3fb950"/><circle cx="380.6" cy="198.0" r="3" fill="#3fb950"/><circle cx="383.8" cy="198.0" r="3" fill="#3fb950"/><circle cx="387.0" cy="198.0" r="3" fill="#3fb950"/><circle cx="390.3" cy="198.0" r="3" fill="#3fb950"/><circle cx="393.5" cy="198.0" r="3" fill="#3fb950"/><circle cx="396.7" cy="198.0" r="3" fill="#3fb950"/><circle cx="399.9" cy="198.0" r="3" fill="#3fb950"/><circle cx="403.1" cy="198.0" r="3" fill="#3fb950"/><circle cx="406.4" cy="198.0" r="3" fill="#3fb950"/><circle cx="409.6" cy="198.0" r="3" fill="#3fb950"/><circle cx="412.8" cy="198.0" r="3" fill="#3fb950"/><circle cx="416.0" cy="198.0" r="3" fill="#3fb950"/><circle cx="419.2" cy="198.0" r="3" fill="#3fb950"/><circle cx="422.5" cy="198.0" r="3" fill="#3fb950"/><circle cx="425.7" cy="198.0" r="3" fill="#3fb950"/><circle cx="428.9" cy="198.0" r="3" fill="#3fb950"/><circle cx="432.1" cy="198.0" r="3" fill="#3fb950"/><circle cx="435.3" cy="198.0" r="3" fill="#3fb950"/><circle cx="438.6" cy="198.0" r="3" fill="#3fb950"/><circle cx="441.8" cy="198.0" r="3" fill="#3fb950"/><circle cx="445.0" cy="198.0" r="3" fill="#3fb950"/><circle cx="448.2" cy="198.0" r="3" fill="#3fb950"/><circle cx="451.4" cy="198.0" r="3" fill="#3fb950"/><circle cx="454.7" cy="198.0" r="3" fill="#3fb950"/><circle cx="457.9" cy="198.0" r="3" fill="#3fb950"/><circle cx="461.1" cy="198.0" r="3" fill="#3fb950"/><circle cx="464.3" cy="198.0" r="3" fill="#3fb950"/><circle cx="467.5" cy="198.0" r="3" fill="#3fb950"/><circle cx="470.8" cy="198.0" r="3" fill="#3fb950"/><circle cx="474.0" cy="198.0" r="3" fill="#3fb950"/><circle cx="477.2" cy="198.0" r="3" fill="#3fb950"/><circle cx="480.4" cy="198.0" r="3" fill="#3fb950"/><circle cx="483.7" cy="198.0" r="3" fill="#3fb950"/><circle cx="486.9" cy="198.0" r="3" fill="#3fb950"/><circle cx="490.1" cy="198.0" r="3" fill="#3fb950"/><circle cx="493.3" cy="198.0" r="3" fill="#3fb950"/><circle cx="496.5" cy="198.0" r="3" fill="#3fb950"/><circle cx="499.8" cy="198.0" r="3" fill="#3fb950"/><circle cx="503.0" cy="198.0" r="3" fill="#3fb950"/><circle cx="506.2" cy="198.0" r="3" fill="#3fb950"/><circle cx="509.4" cy="198.0" r="3" fill="#3fb950"/><circle cx="512.6" cy="198.0" r="3" fill="#3fb950"/><circle cx="515.9" cy="198.0" r="3" fill="#3fb950"/><circle cx="519.1" cy="198.0" r="3" fill="#3fb950"/><circle cx="522.3" cy="198.0" r="3" fill="#3fb950"/><circle cx="525.5" cy="198.0" r="3" fill="#3fb950"/><circle cx="528.7" cy="198.0" r="3" fill="#3fb950"/><circle cx="532.0" cy="198.0" r="3" fill="#3fb950"/><circle cx="535.2" cy="198.0" r="3" fill="#3fb950"/><circle cx="538.4" cy="198.0" r="3" fill="#3fb950"/><circle cx="541.6" cy="198.0" r="3" fill="#3fb950"/><circle cx="544.8" cy="198.0" r="3" fill="#3fb950"/><circle cx="548.1" cy="198.0" r="3" fill="#3fb950"/><circle cx="551.3" cy="198.0" r="3" fill="#3fb950"/><circle cx="554.5" cy="198.0" r="3" fill="#3fb950"/><circle cx="557.7" cy="198.0" r="3" fill="#3fb950"/><circle cx="560.9" cy="198.0" r="3" fill="#3fb950"/><circle cx="564.2" cy="198.0" r="3" fill="#3fb950"/><circle cx="567.4" cy="198.0" r="3" fill="#3fb950"/><circle cx="570.6" cy="198.0" r="3" fill="#3fb950"/><circle cx="573.8" cy="198.0" r="3" fill="#3fb950"/><circle cx="577.0" cy="198.0" r="3" fill="#3fb950"/><circle cx="580.3" cy="198.0" r="3" fill="#3fb950"/><circle cx="583.5" cy="198.0" r="3" fill="#3fb950"/><circle cx="586.7" cy="198.0" r="3" fill="#3fb950"/><circle cx="589.9" cy="198.0" r="3" fill="#3fb950"/><circle cx="593.1" cy="198.0" r="3" fill="#3fb950"/><circle cx="596.4" cy="198.0" r="3" fill="#3fb950"/><circle cx="599.6" cy="198.0" r="3" fill="#3fb950"/><circle cx="602.8" cy="198.0" r="3" fill="#3fb950"/><circle cx="606.0" cy="198.0" r="3" fill="#3fb950"/><circle cx="609.3" cy="198.0" r="3" fill="#3fb950"/><circle cx="612.5" cy="198.0" r="3" fill="#3fb950"/><circle cx="615.7" cy="198.0" r="3" fill="#3fb950"/><circle cx="618.9" cy="198.0" r="3" fill="#3fb950"/><circle cx="622.1" cy="198.0" r="3" fill="#3fb950"/><circle cx="625.4" cy="198.0" r="3" fill="#3fb950"/><circle cx="628.6" cy="198.0" r="3" fill="#3fb950"/><circle cx="631.8" cy="198.0" r="3" fill="#3fb950"/><circle cx="635.0" cy="198.0" r="3" fill="#3fb950"/><circle cx="638.2" cy="198.0" r="3" fill="#3fb950"/><circle cx="641.5" cy="198.0" r="3" fill="#3fb950"/><circle cx="644.7" cy="198.0" r="3" fill="#3fb950"/><circle cx="647.9" cy="198.0" r="3" fill="#3fb950"/><circle cx="651.1" cy="198.0" r="3" fill="#3fb950"/><circle cx="654.3" cy="198.0" r="3" fill="#3fb950"/><circle cx="657.6" cy="198.0" r="3" fill="#3fb950"/><circle cx="660.8" cy="198.0" r="3" fill="#3fb950"/><circle cx="664.0" cy="198.0" r="3" fill="#3fb950"/>
<polyline fill="none" stroke="#4aa3ff" stroke-width="2.5" stroke-linejoin="round" points="36.0,144.3 39.2,144.3 42.4,144.3 45.7,144.3 48.9,144.3 52.1,144.3 55.3,144.3 58.5,144.3 61.8,144.3 65.0,144.3 68.2,144.3 71.4,144.3 74.6,144.3 77.9,144.3 81.1,144.3 84.3,136.2 87.5,132.4 90.7,129.6 94.0,129.6 97.2,121.0 100.4,121.0 103.6,121.0 106.9,114.4 110.1,114.4 113.3,114.4 116.5,111.3 119.7,110.9 123.0,110.9 126.2,110.5 129.4,110.5 132.6,109.9 135.8,108.7 139.1,107.3 142.3,106.9 145.5,106.9 148.7,106.9 151.9,106.9 155.2,106.9 158.4,106.9 161.6,106.9 164.8,106.9 168.0,106.9 171.3,106.9 174.5,113.2 177.7,113.2 180.9,113.2 184.1,113.2 187.4,113.2 190.6,110.7 193.8,105.3 197.0,83.4 200.2,83.4 203.5,85.6 206.7,85.6 209.9,85.6 213.1,85.6 216.3,85.6 219.6,85.8 222.8,85.8 226.0,85.8 229.2,86.0 232.5,86.0 235.7,86.0 238.9,86.0 242.1,86.0 245.3,86.0 248.6,86.0 251.8,86.0 255.0,86.0 258.2,86.0 261.4,86.0 264.7,86.0 267.9,86.0 271.1,86.0 274.3,86.0 277.5,86.0 280.8,86.0 284.0,86.0 287.2,86.0 290.4,86.0 293.6,86.0 296.9,87.0 300.1,87.0 303.3,87.0 306.5,73.7 309.7,73.7 313.0,71.0 316.2,71.0 319.4,70.8 322.6,70.6 325.8,70.6 329.1,70.4 332.3,68.6 335.5,60.5 338.7,59.3 341.9,52.0 345.2,47.3 348.4,40.1 351.6,36.0 354.8,36.0 358.1,36.0 361.3,36.0 364.5,36.0 367.7,36.0 370.9,36.0 374.2,36.0 377.4,36.0 380.6,36.0 383.8,36.0 387.0,36.0 390.3,36.0 393.5,36.0 396.7,36.0 399.9,36.0 403.1,36.0 406.4,36.0 409.6,36.0 412.8,36.0 416.0,36.0 419.2,36.0 422.5,36.0 425.7,36.0 428.9,36.0 432.1,36.0 435.3,36.0 438.6,36.0 441.8,36.0 445.0,36.0 448.2,36.0 451.4,36.0 454.7,36.0 457.9,36.0 461.1,36.0 464.3,36.0 467.5,36.0 470.8,36.0 474.0,36.0 477.2,36.0 480.4,36.0 483.7,36.0 486.9,36.0 490.1,36.0 493.3,36.0 496.5,36.0 499.8,36.0 503.0,36.0 506.2,36.0 509.4,36.0 512.6,36.0 515.9,36.0 519.1,36.0 522.3,36.0 525.5,36.0 528.7,36.0 532.0,36.0 535.2,36.0 538.4,36.0 541.6,36.0 544.8,36.0 548.1,36.0 551.3,36.0 554.5,36.0 557.7,36.0 560.9,36.0 564.2,36.0 567.4,36.0 570.6,36.0 573.8,36.0 577.0,36.0 580.3,36.0 583.5,36.0 586.7,36.0 589.9,36.0 593.1,36.0 596.4,36.0 599.6,36.0 602.8,36.0 606.0,36.0 609.3,36.0 612.5,36.0 615.7,36.0 618.9,36.0 622.1,36.0 625.4,36.0 628.6,36.0 631.8,36.0 635.0,36.0 638.2,36.0 641.5,36.0 644.7,36.0 647.9,36.0 651.1,36.0 654.3,36.0 657.6,36.0 660.8,36.0 664.0,36.0"/><circle cx="36.0" cy="144.3" r="3" fill="#4aa3ff"/><circle cx="39.2" cy="144.3" r="3" fill="#4aa3ff"/><circle cx="42.4" cy="144.3" r="3" fill="#4aa3ff"/><circle cx="45.7" cy="144.3" r="3" fill="#4aa3ff"/><circle cx="48.9" cy="144.3" r="3" fill="#4aa3ff"/><circle cx="52.1" cy="144.3" r="3" fill="#4aa3ff"/><circle cx="55.3" cy="144.3" r="3" fill="#4aa3ff"/><circle cx="58.5" cy="144.3" r="3" fill="#4aa3ff"/><circle cx="61.8" cy="144.3" r="3" fill="#4aa3ff"/><circle cx="65.0" cy="144.3" r="3" fill="#4aa3ff"/><circle cx="68.2" cy="144.3" r="3" fill="#4aa3ff"/><circle cx="71.4" cy="144.3" r="3" fill="#4aa3ff"/><circle cx="74.6" cy="144.3" r="3" fill="#4aa3ff"/><circle cx="77.9" cy="144.3" r="3" fill="#4aa3ff"/><circle cx="81.1" cy="144.3" r="3" fill="#4aa3ff"/><circle cx="84.3" cy="136.2" r="3" fill="#4aa3ff"/><circle cx="87.5" cy="132.4" r="3" fill="#4aa3ff"/><circle cx="90.7" cy="129.6" r="3" fill="#4aa3ff"/><circle cx="94.0" cy="129.6" r="3" fill="#4aa3ff"/><circle cx="97.2" cy="121.0" r="3" fill="#4aa3ff"/><circle cx="100.4" cy="121.0" r="3" fill="#4aa3ff"/><circle cx="103.6" cy="121.0" r="3" fill="#4aa3ff"/><circle cx="106.9" cy="114.4" r="3" fill="#4aa3ff"/><circle cx="110.1" cy="114.4" r="3" fill="#4aa3ff"/><circle cx="113.3" cy="114.4" r="3" fill="#4aa3ff"/><circle cx="116.5" cy="111.3" r="3" fill="#4aa3ff"/><circle cx="119.7" cy="110.9" r="3" fill="#4aa3ff"/><circle cx="123.0" cy="110.9" r="3" fill="#4aa3ff"/><circle cx="126.2" cy="110.5" r="3" fill="#4aa3ff"/><circle cx="129.4" cy="110.5" r="3" fill="#4aa3ff"/><circle cx="132.6" cy="109.9" r="3" fill="#4aa3ff"/><circle cx="135.8" cy="108.7" r="3" fill="#4aa3ff"/><circle cx="139.1" cy="107.3" r="3" fill="#4aa3ff"/><circle cx="142.3" cy="106.9" r="3" fill="#4aa3ff"/><circle cx="145.5" cy="106.9" r="3" fill="#4aa3ff"/><circle cx="148.7" cy="106.9" r="3" fill="#4aa3ff"/><circle cx="151.9" cy="106.9" r="3" fill="#4aa3ff"/><circle cx="155.2" cy="106.9" r="3" fill="#4aa3ff"/><circle cx="158.4" cy="106.9" r="3" fill="#4aa3ff"/><circle cx="161.6" cy="106.9" r="3" fill="#4aa3ff"/><circle cx="164.8" cy="106.9" r="3" fill="#4aa3ff"/><circle cx="168.0" cy="106.9" r="3" fill="#4aa3ff"/><circle cx="171.3" cy="106.9" r="3" fill="#4aa3ff"/><circle cx="174.5" cy="113.2" r="3" fill="#4aa3ff"/><circle cx="177.7" cy="113.2" r="3" fill="#4aa3ff"/><circle cx="180.9" cy="113.2" r="3" fill="#4aa3ff"/><circle cx="184.1" cy="113.2" r="3" fill="#4aa3ff"/><circle cx="187.4" cy="113.2" r="3" fill="#4aa3ff"/><circle cx="190.6" cy="110.7" r="3" fill="#4aa3ff"/><circle cx="193.8" cy="105.3" r="3" fill="#4aa3ff"/><circle cx="197.0" cy="83.4" r="3" fill="#4aa3ff"/><circle cx="200.2" cy="83.4" r="3" fill="#4aa3ff"/><circle cx="203.5" cy="85.6" r="3" fill="#4aa3ff"/><circle cx="206.7" cy="85.6" r="3" fill="#4aa3ff"/><circle cx="209.9" cy="85.6" r="3" fill="#4aa3ff"/><circle cx="213.1" cy="85.6" r="3" fill="#4aa3ff"/><circle cx="216.3" cy="85.6" r="3" fill="#4aa3ff"/><circle cx="219.6" cy="85.8" r="3" fill="#4aa3ff"/><circle cx="222.8" cy="85.8" r="3" fill="#4aa3ff"/><circle cx="226.0" cy="85.8" r="3" fill="#4aa3ff"/><circle cx="229.2" cy="86.0" r="3" fill="#4aa3ff"/><circle cx="232.5" cy="86.0" r="3" fill="#4aa3ff"/><circle cx="235.7" cy="86.0" r="3" fill="#4aa3ff"/><circle cx="238.9" cy="86.0" r="3" fill="#4aa3ff"/><circle cx="242.1" cy="86.0" r="3" fill="#4aa3ff"/><circle cx="245.3" cy="86.0" r="3" fill="#4aa3ff"/><circle cx="248.6" cy="86.0" r="3" fill="#4aa3ff"/><circle cx="251.8" cy="86.0" r="3" fill="#4aa3ff"/><circle cx="255.0" cy="86.0" r="3" fill="#4aa3ff"/><circle cx="258.2" cy="86.0" r="3" fill="#4aa3ff"/><circle cx="261.4" cy="86.0" r="3" fill="#4aa3ff"/><circle cx="264.7" cy="86.0" r="3" fill="#4aa3ff"/><circle cx="267.9" cy="86.0" r="3" fill="#4aa3ff"/><circle cx="271.1" cy="86.0" r="3" fill="#4aa3ff"/><circle cx="274.3" cy="86.0" r="3" fill="#4aa3ff"/><circle cx="277.5" cy="86.0" r="3" fill="#4aa3ff"/><circle cx="280.8" cy="86.0" r="3" fill="#4aa3ff"/><circle cx="284.0" cy="86.0" r="3" fill="#4aa3ff"/><circle cx="287.2" cy="86.0" r="3" fill="#4aa3ff"/><circle cx="290.4" cy="86.0" r="3" fill="#4aa3ff"/><circle cx="293.6" cy="86.0" r="3" fill="#4aa3ff"/><circle cx="296.9" cy="87.0" r="3" fill="#4aa3ff"/><circle cx="300.1" cy="87.0" r="3" fill="#4aa3ff"/><circle cx="303.3" cy="87.0" r="3" fill="#4aa3ff"/><circle cx="306.5" cy="73.7" r="3" fill="#4aa3ff"/><circle cx="309.7" cy="73.7" r="3" fill="#4aa3ff"/><circle cx="313.0" cy="71.0" r="3" fill="#4aa3ff"/><circle cx="316.2" cy="71.0" r="3" fill="#4aa3ff"/><circle cx="319.4" cy="70.8" r="3" fill="#4aa3ff"/><circle cx="322.6" cy="70.6" r="3" fill="#4aa3ff"/><circle cx="325.8" cy="70.6" r="3" fill="#4aa3ff"/><circle cx="329.1" cy="70.4" r="3" fill="#4aa3ff"/><circle cx="332.3" cy="68.6" r="3" fill="#4aa3ff"/><circle cx="335.5" cy="60.5" r="3" fill="#4aa3ff"/><circle cx="338.7" cy="59.3" r="3" fill="#4aa3ff"/><circle cx="341.9" cy="52.0" r="3" fill="#4aa3ff"/><circle cx="345.2" cy="47.3" r="3" fill="#4aa3ff"/><circle cx="348.4" cy="40.1" r="3" fill="#4aa3ff"/><circle cx="351.6" cy="36.0" r="3" fill="#4aa3ff"/><circle cx="354.8" cy="36.0" r="3" fill="#4aa3ff"/><circle cx="358.1" cy="36.0" r="3" fill="#4aa3ff"/><circle cx="361.3" cy="36.0" r="3" fill="#4aa3ff"/><circle cx="364.5" cy="36.0" r="3" fill="#4aa3ff"/><circle cx="367.7" cy="36.0" r="3" fill="#4aa3ff"/><circle cx="370.9" cy="36.0" r="3" fill="#4aa3ff"/><circle cx="374.2" cy="36.0" r="3" fill="#4aa3ff"/><circle cx="377.4" cy="36.0" r="3" fill="#4aa3ff"/><circle cx="380.6" cy="36.0" r="3" fill="#4aa3ff"/><circle cx="383.8" cy="36.0" r="3" fill="#4aa3ff"/><circle cx="387.0" cy="36.0" r="3" fill="#4aa3ff"/><circle cx="390.3" cy="36.0" r="3" fill="#4aa3ff"/><circle cx="393.5" cy="36.0" r="3" fill="#4aa3ff"/><circle cx="396.7" cy="36.0" r="3" fill="#4aa3ff"/><circle cx="399.9" cy="36.0" r="3" fill="#4aa3ff"/><circle cx="403.1" cy="36.0" r="3" fill="#4aa3ff"/><circle cx="406.4" cy="36.0" r="3" fill="#4aa3ff"/><circle cx="409.6" cy="36.0" r="3" fill="#4aa3ff"/><circle cx="412.8" cy="36.0" r="3" fill="#4aa3ff"/><circle cx="416.0" cy="36.0" r="3" fill="#4aa3ff"/><circle cx="419.2" cy="36.0" r="3" fill="#4aa3ff"/><circle cx="422.5" cy="36.0" r="3" fill="#4aa3ff"/><circle cx="425.7" cy="36.0" r="3" fill="#4aa3ff"/><circle cx="428.9" cy="36.0" r="3" fill="#4aa3ff"/><circle cx="432.1" cy="36.0" r="3" fill="#4aa3ff"/><circle cx="435.3" cy="36.0" r="3" fill="#4aa3ff"/><circle cx="438.6" cy="36.0" r="3" fill="#4aa3ff"/><circle cx="441.8" cy="36.0" r="3" fill="#4aa3ff"/><circle cx="445.0" cy="36.0" r="3" fill="#4aa3ff"/><circle cx="448.2" cy="36.0" r="3" fill="#4aa3ff"/><circle cx="451.4" cy="36.0" r="3" fill="#4aa3ff"/><circle cx="454.7" cy="36.0" r="3" fill="#4aa3ff"/><circle cx="457.9" cy="36.0" r="3" fill="#4aa3ff"/><circle cx="461.1" cy="36.0" r="3" fill="#4aa3ff"/><circle cx="464.3" cy="36.0" r="3" fill="#4aa3ff"/><circle cx="467.5" cy="36.0" r="3" fill="#4aa3ff"/><circle cx="470.8" cy="36.0" r="3" fill="#4aa3ff"/><circle cx="474.0" cy="36.0" r="3" fill="#4aa3ff"/><circle cx="477.2" cy="36.0" r="3" fill="#4aa3ff"/><circle cx="480.4" cy="36.0" r="3" fill="#4aa3ff"/><circle cx="483.7" cy="36.0" r="3" fill="#4aa3ff"/><circle cx="486.9" cy="36.0" r="3" fill="#4aa3ff"/><circle cx="490.1" cy="36.0" r="3" fill="#4aa3ff"/><circle cx="493.3" cy="36.0" r="3" fill="#4aa3ff"/><circle cx="496.5" cy="36.0" r="3" fill="#4aa3ff"/><circle cx="499.8" cy="36.0" r="3" fill="#4aa3ff"/><circle cx="503.0" cy="36.0" r="3" fill="#4aa3ff"/><circle cx="506.2" cy="36.0" r="3" fill="#4aa3ff"/><circle cx="509.4" cy="36.0" r="3" fill="#4aa3ff"/><circle cx="512.6" cy="36.0" r="3" fill="#4aa3ff"/><circle cx="515.9" cy="36.0" r="3" fill="#4aa3ff"/><circle cx="519.1" cy="36.0" r="3" fill="#4aa3ff"/><circle cx="522.3" cy="36.0" r="3" fill="#4aa3ff"/><circle cx="525.5" cy="36.0" r="3" fill="#4aa3ff"/><circle cx="528.7" cy="36.0" r="3" fill="#4aa3ff"/><circle cx="532.0" cy="36.0" r="3" fill="#4aa3ff"/><circle cx="535.2" cy="36.0" r="3" fill="#4aa3ff"/><circle cx="538.4" cy="36.0" r="3" fill="#4aa3ff"/><circle cx="541.6" cy="36.0" r="3" fill="#4aa3ff"/><circle cx="544.8" cy="36.0" r="3" fill="#4aa3ff"/><circle cx="548.1" cy="36.0" r="3" fill="#4aa3ff"/><circle cx="551.3" cy="36.0" r="3" fill="#4aa3ff"/><circle cx="554.5" cy="36.0" r="3" fill="#4aa3ff"/><circle cx="557.7" cy="36.0" r="3" fill="#4aa3ff"/><circle cx="560.9" cy="36.0" r="3" fill="#4aa3ff"/><circle cx="564.2" cy="36.0" r="3" fill="#4aa3ff"/><circle cx="567.4" cy="36.0" r="3" fill="#4aa3ff"/><circle cx="570.6" cy="36.0" r="3" fill="#4aa3ff"/><circle cx="573.8" cy="36.0" r="3" fill="#4aa3ff"/><circle cx="577.0" cy="36.0" r="3" fill="#4aa3ff"/><circle cx="580.3" cy="36.0" r="3" fill="#4aa3ff"/><circle cx="583.5" cy="36.0" r="3" fill="#4aa3ff"/><circle cx="586.7" cy="36.0" r="3" fill="#4aa3ff"/><circle cx="589.9" cy="36.0" r="3" fill="#4aa3ff"/><circle cx="593.1" cy="36.0" r="3" fill="#4aa3ff"/><circle cx="596.4" cy="36.0" r="3" fill="#4aa3ff"/><circle cx="599.6" cy="36.0" r="3" fill="#4aa3ff"/><circle cx="602.8" cy="36.0" r="3" fill="#4aa3ff"/><circle cx="606.0" cy="36.0" r="3" fill="#4aa3ff"/><circle cx="609.3" cy="36.0" r="3" fill="#4aa3ff"/><circle cx="612.5" cy="36.0" r="3" fill="#4aa3ff"/><circle cx="615.7" cy="36.0" r="3" fill="#4aa3ff"/><circle cx="618.9" cy="36.0" r="3" fill="#4aa3ff"/><circle cx="622.1" cy="36.0" r="3" fill="#4aa3ff"/><circle cx="625.4" cy="36.0" r="3" fill="#4aa3ff"/><circle cx="628.6" cy="36.0" r="3" fill="#4aa3ff"/><circle cx="631.8" cy="36.0" r="3" fill="#4aa3ff"/><circle cx="635.0" cy="36.0" r="3" fill="#4aa3ff"/><circle cx="638.2" cy="36.0" r="3" fill="#4aa3ff"/><circle cx="641.5" cy="36.0" r="3" fill="#4aa3ff"/><circle cx="644.7" cy="36.0" r="3" fill="#4aa3ff"/><circle cx="647.9" cy="36.0" r="3" fill="#4aa3ff"/><circle cx="651.1" cy="36.0" r="3" fill="#4aa3ff"/><circle cx="654.3" cy="36.0" r="3" fill="#4aa3ff"/><circle cx="657.6" cy="36.0" r="3" fill="#4aa3ff"/><circle cx="660.8" cy="36.0" r="3" fill="#4aa3ff"/><circle cx="664.0" cy="36.0" r="3" fill="#4aa3ff"/>
<text x="36" y="225" fill="#6b7280" font-size="11">2026-06-26</text>
<text x="664" y="225" fill="#6b7280" font-size="11" text-anchor="end">2026-07-16</text>
<text x="36" y="212" font-family="system-ui,sans-serif" font-size="11">
<tspan fill="#4aa3ff">&#9679; open FPs</tspan>  <tspan fill="#3fb950">&#9679; closed (Anthropic acting)</tspan>  <tspan fill="#8a5a5a">&#9679; harness withdrawn</tspan></text>
<text x="664" y="22" text-anchor="end" font-family="system-ui,sans-serif" font-size="12">
<tspan fill="#4aa3ff">open 800</tspan>  <tspan fill="#3fb950">closed 0</tspan>  <tspan fill="#8a5a5a">harness 0</tspan></text>
</svg>