<svg xmlns="http://www.w3.org/2000/svg" width="700" height="234" viewBox="0 0 700 234" role="img">
<rect width="700" height="234" rx="12" fill="#16181d"/>
<text x="36" y="22" fill="#e8eaed" font-family="system-ui,sans-serif" font-size="14" font-weight="700">Is Anthropic acting? cyber/aup false positives over time</text>
<line x1="36" y1="198.0" x2="664" y2="198.0" stroke="#2a2e37" stroke-width="1"/><text x="30" y="202.0" fill="#6b7280" font-size="11" text-anchor="end">0</text><line x1="36" y1="117.0" x2="664" y2="117.0" stroke="#2a2e37" stroke-width="1"/><text x="30" y="121.0" fill="#6b7280" font-size="11" text-anchor="end">283</text><line x1="36" y1="36.0" x2="664" y2="36.0" stroke="#2a2e37" stroke-width="1"/><text x="30" y="40.0" fill="#6b7280" font-size="11" text-anchor="end">566</text>

<polyline fill="none" stroke="#8a5a5a" stroke-width="2.5" stroke-linejoin="round" points="36.0,123.3 45.7,123.3 55.3,123.3 65.0,123.3 74.6,123.3 84.3,123.3 94.0,123.3 103.6,123.3 113.3,123.3 123.0,123.3 132.6,123.3 142.3,123.3 151.9,123.3 161.6,123.3 171.3,123.3 180.9,123.3 190.6,123.3 200.2,123.3 209.9,123.3 219.6,123.3 229.2,123.3 238.9,123.3 248.6,123.3 258.2,123.3 267.9,123.3 277.5,123.3 287.2,123.3 296.9,123.3 306.5,123.3 316.2,123.3 325.8,123.3 335.5,123.3 345.2,123.3 354.8,123.3 364.5,123.3 374.2,123.3 383.8,123.3 393.5,123.3 403.1,123.3 412.8,123.3 422.5,123.3 432.1,123.3 441.8,123.3 451.4,123.3 461.1,123.3 470.8,123.3 480.4,123.3 490.1,123.3 499.8,123.3 509.4,123.3 519.1,138.2 528.7,138.2 538.4,138.2 548.1,138.2 557.7,138.2 567.4,138.2 577.0,138.2 586.7,138.2 596.4,138.2 606.0,138.2 615.7,138.2 625.4,138.2 635.0,138.2 644.7,138.2 654.3,138.2 664.0,138.2"/><circle cx="36.0" cy="123.3" r="3" fill="#8a5a5a"/><circle cx="45.7" cy="123.3" r="3" fill="#8a5a5a"/><circle cx="55.3" cy="123.3" r="3" fill="#8a5a5a"/><circle cx="65.0" cy="123.3" r="3" fill="#8a5a5a"/><circle cx="74.6" cy="123.3" r="3" fill="#8a5a5a"/><circle cx="84.3" cy="123.3" r="3" fill="#8a5a5a"/><circle cx="94.0" cy="123.3" r="3" fill="#8a5a5a"/><circle cx="103.6" cy="123.3" r="3" fill="#8a5a5a"/><circle cx="113.3" cy="123.3" r="3" fill="#8a5a5a"/><circle cx="123.0" cy="123.3" r="3" fill="#8a5a5a"/><circle cx="132.6" cy="123.3" r="3" fill="#8a5a5a"/><circle cx="142.3" cy="123.3" r="3" fill="#8a5a5a"/><circle cx="151.9" cy="123.3" r="3" fill="#8a5a5a"/><circle cx="161.6" cy="123.3" r="3" fill="#8a5a5a"/><circle cx="171.3" cy="123.3" r="3" fill="#8a5a5a"/><circle cx="180.9" cy="123.3" r="3" fill="#8a5a5a"/><circle cx="190.6" cy="123.3" r="3" fill="#8a5a5a"/><circle cx="200.2" cy="123.3" r="3" fill="#8a5a5a"/><circle cx="209.9" cy="123.3" r="3" fill="#8a5a5a"/><circle cx="219.6" cy="123.3" r="3" fill="#8a5a5a"/><circle cx="229.2" cy="123.3" r="3" fill="#8a5a5a"/><circle cx="238.9" cy="123.3" r="3" fill="#8a5a5a"/><circle cx="248.6" cy="123.3" r="3" fill="#8a5a5a"/><circle cx="258.2" cy="123.3" r="3" fill="#8a5a5a"/><circle cx="267.9" cy="123.3" r="3" fill="#8a5a5a"/><circle cx="277.5" cy="123.3" r="3" fill="#8a5a5a"/><circle cx="287.2" cy="123.3" r="3" fill="#8a5a5a"/><circle cx="296.9" cy="123.3" r="3" fill="#8a5a5a"/><circle cx="306.5" cy="123.3" r="3" fill="#8a5a5a"/><circle cx="316.2" cy="123.3" r="3" fill="#8a5a5a"/><circle cx="325.8" cy="123.3" r="3" fill="#8a5a5a"/><circle cx="335.5" cy="123.3" r="3" fill="#8a5a5a"/><circle cx="345.2" cy="123.3" r="3" fill="#8a5a5a"/><circle cx="354.8" cy="123.3" r="3" fill="#8a5a5a"/><circle cx="364.5" cy="123.3" r="3" fill="#8a5a5a"/><circle cx="374.2" cy="123.3" r="3" fill="#8a5a5a"/><circle cx="383.8" cy="123.3" r="3" fill="#8a5a5a"/><circle cx="393.5" cy="123.3" r="3" fill="#8a5a5a"/><circle cx="403.1" cy="123.3" r="3" fill="#8a5a5a"/><circle cx="412.8" cy="123.3" r="3" fill="#8a5a5a"/><circle cx="422.5" cy="123.3" r="3" fill="#8a5a5a"/><circle cx="432.1" cy="123.3" r="3" fill="#8a5a5a"/><circle cx="441.8" cy="123.3" r="3" fill="#8a5a5a"/><circle cx="451.4" cy="123.3" r="3" fill="#8a5a5a"/><circle cx="461.1" cy="123.3" r="3" fill="#8a5a5a"/><circle cx="470.8" cy="123.3" r="3" fill="#8a5a5a"/><circle cx="480.4" cy="123.3" r="3" fill="#8a5a5a"/><circle cx="490.1" cy="123.3" r="3" fill="#8a5a5a"/><circle cx="499.8" cy="123.3" r="3" fill="#8a5a5a"/><circle cx="509.4" cy="123.3" r="3" fill="#8a5a5a"/><circle cx="519.1" cy="138.2" r="3" fill="#8a5a5a"/><circle cx="528.7" cy="138.2" r="3" fill="#8a5a5a"/><circle cx="538.4" cy="138.2" r="3" fill="#8a5a5a"/><circle cx="548.1" cy="138.2" r="3" fill="#8a5a5a"/><circle cx="557.7" cy="138.2" r="3" fill="#8a5a5a"/><circle cx="567.4" cy="138.2" r="3" fill="#8a5a5a"/><circle cx="577.0" cy="138.2" r="3" fill="#8a5a5a"/><circle cx="586.7" cy="138.2" r="3" fill="#8a5a5a"/><circle cx="596.4" cy="138.2" r="3" fill="#8a5a5a"/><circle cx="606.0" cy="138.2" r="3" fill="#8a5a5a"/><circle cx="615.7" cy="138.2" r="3" fill="#8a5a5a"/><circle cx="625.4" cy="138.2" r="3" fill="#8a5a5a"/><circle cx="635.0" cy="138.2" r="3" fill="#8a5a5a"/><circle cx="644.7" cy="138.2" r="3" fill="#8a5a5a"/><circle cx="654.3" cy="138.2" r="3" fill="#8a5a5a"/><circle cx="664.0" cy="138.2" r="3" fill="#8a5a5a"/>
<polyline fill="none" stroke="#3fb950" stroke-width="2.5" stroke-linejoin="round" points="36.0,198.0 45.7,198.0 55.3,198.0 65.0,198.0 74.6,198.0 84.3,198.0 94.0,198.0 103.6,198.0 113.3,198.0 123.0,198.0 132.6,198.0 142.3,198.0 151.9,198.0 161.6,198.0 171.3,198.0 180.9,198.0 190.6,198.0 200.2,198.0 209.9,198.0 219.6,198.0 229.2,198.0 238.9,198.0 248.6,198.0 258.2,198.0 267.9,198.0 277.5,198.0 287.2,198.0 296.9,198.0 306.5,198.0 316.2,198.0 325.8,198.0 335.5,198.0 345.2,198.0 354.8,198.0 364.5,198.0 374.2,198.0 383.8,198.0 393.5,198.0 403.1,198.0 412.8,198.0 422.5,198.0 432.1,198.0 441.8,198.0 451.4,189.1 461.1,189.1 470.8,189.1 480.4,189.1 490.1,189.1 499.8,189.1 509.4,189.1 519.1,190.8 528.7,190.8 538.4,187.7 548.1,187.7 557.7,187.7 567.4,187.7 577.0,187.7 586.7,187.4 596.4,187.4 606.0,187.4 615.7,187.1 625.4,187.1 635.0,187.1 644.7,187.1 654.3,187.1 664.0,187.1"/><circle cx="36.0" cy="198.0" r="3" fill="#3fb950"/><circle cx="45.7" cy="198.0" r="3" fill="#3fb950"/><circle cx="55.3" cy="198.0" r="3" fill="#3fb950"/><circle cx="65.0" cy="198.0" r="3" fill="#3fb950"/><circle cx="74.6" cy="198.0" r="3" fill="#3fb950"/><circle cx="84.3" cy="198.0" r="3" fill="#3fb950"/><circle cx="94.0" cy="198.0" r="3" fill="#3fb950"/><circle cx="103.6" cy="198.0" r="3" fill="#3fb950"/><circle cx="113.3" cy="198.0" r="3" fill="#3fb950"/><circle cx="123.0" cy="198.0" r="3" fill="#3fb950"/><circle cx="132.6" cy="198.0" r="3" fill="#3fb950"/><circle cx="142.3" cy="198.0" r="3" fill="#3fb950"/><circle cx="151.9" cy="198.0" r="3" fill="#3fb950"/><circle cx="161.6" cy="198.0" r="3" fill="#3fb950"/><circle cx="171.3" cy="198.0" r="3" fill="#3fb950"/><circle cx="180.9" cy="198.0" r="3" fill="#3fb950"/><circle cx="190.6" cy="198.0" r="3" fill="#3fb950"/><circle cx="200.2" cy="198.0" r="3" fill="#3fb950"/><circle cx="209.9" cy="198.0" r="3" fill="#3fb950"/><circle cx="219.6" cy="198.0" r="3" fill="#3fb950"/><circle cx="229.2" cy="198.0" r="3" fill="#3fb950"/><circle cx="238.9" cy="198.0" r="3" fill="#3fb950"/><circle cx="248.6" cy="198.0" r="3" fill="#3fb950"/><circle cx="258.2" cy="198.0" r="3" fill="#3fb950"/><circle cx="267.9" cy="198.0" r="3" fill="#3fb950"/><circle cx="277.5" cy="198.0" r="3" fill="#3fb950"/><circle cx="287.2" cy="198.0" r="3" fill="#3fb950"/><circle cx="296.9" cy="198.0" r="3" fill="#3fb950"/><circle cx="306.5" cy="198.0" r="3" fill="#3fb950"/><circle cx="316.2" cy="198.0" r="3" fill="#3fb950"/><circle cx="325.8" cy="198.0" r="3" fill="#3fb950"/><circle cx="335.5" cy="198.0" r="3" fill="#3fb950"/><circle cx="345.2" cy="198.0" r="3" fill="#3fb950"/><circle cx="354.8" cy="198.0" r="3" fill="#3fb950"/><circle cx="364.5" cy="198.0" r="3" fill="#3fb950"/><circle cx="374.2" cy="198.0" r="3" fill="#3fb950"/><circle cx="383.8" cy="198.0" r="3" fill="#3fb950"/><circle cx="393.5" cy="198.0" r="3" fill="#3fb950"/><circle cx="403.1" cy="198.0" r="3" fill="#3fb950"/><circle cx="412.8" cy="198.0" r="3" fill="#3fb950"/><circle cx="422.5" cy="198.0" r="3" fill="#3fb950"/><circle cx="432.1" cy="198.0" r="3" fill="#3fb950"/><circle cx="441.8" cy="198.0" r="3" fill="#3fb950"/><circle cx="451.4" cy="189.1" r="3" fill="#3fb950"/><circle cx="461.1" cy="189.1" r="3" fill="#3fb950"/><circle cx="470.8" cy="189.1" r="3" fill="#3fb950"/><circle cx="480.4" cy="189.1" r="3" fill="#3fb950"/><circle cx="490.1" cy="189.1" r="3" fill="#3fb950"/><circle cx="499.8" cy="189.1" r="3" fill="#3fb950"/><circle cx="509.4" cy="189.1" r="3" fill="#3fb950"/><circle cx="519.1" cy="190.8" r="3" fill="#3fb950"/><circle cx="528.7" cy="190.8" r="3" fill="#3fb950"/><circle cx="538.4" cy="187.7" r="3" fill="#3fb950"/><circle cx="548.1" cy="187.7" r="3" fill="#3fb950"/><circle cx="557.7" cy="187.7" r="3" fill="#3fb950"/><circle cx="567.4" cy="187.7" r="3" fill="#3fb950"/><circle cx="577.0" cy="187.7" r="3" fill="#3fb950"/><circle cx="586.7" cy="187.4" r="3" fill="#3fb950"/><circle cx="596.4" cy="187.4" r="3" fill="#3fb950"/><circle cx="606.0" cy="187.4" r="3" fill="#3fb950"/><circle cx="615.7" cy="187.1" r="3" fill="#3fb950"/><circle cx="625.4" cy="187.1" r="3" fill="#3fb950"/><circle cx="635.0" cy="187.1" r="3" fill="#3fb950"/><circle cx="644.7" cy="187.1" r="3" fill="#3fb950"/><circle cx="654.3" cy="187.1" r="3" fill="#3fb950"/><circle cx="664.0" cy="187.1" r="3" fill="#3fb950"/>
<polyline fill="none" stroke="#4aa3ff" stroke-width="2.5" stroke-linejoin="round" points="36.0,122.2 45.7,122.2 55.3,122.2 65.0,122.2 74.6,122.2 84.3,122.2 94.0,122.2 103.6,122.2 113.3,122.2 123.0,122.2 132.6,122.2 142.3,122.2 151.9,122.2 161.6,122.2 171.3,122.2 180.9,110.7 190.6,105.3 200.2,101.3 209.9,101.3 219.6,89.2 229.2,89.2 238.9,89.2 248.6,79.8 258.2,79.8 267.9,79.8 277.5,75.5 287.2,74.9 296.9,74.9 306.5,74.4 316.2,74.4 325.8,73.5 335.5,71.8 345.2,69.8 354.8,69.2 364.5,69.2 374.2,69.2 383.8,69.2 393.5,69.2 403.1,69.2 412.8,69.2 422.5,69.2 432.1,69.2 441.8,69.2 451.4,78.1 461.1,78.1 470.8,78.1 480.4,78.1 490.1,78.1 499.8,74.6 509.4,66.9 519.1,36.0 528.7,36.0 538.4,39.1 548.1,39.1 557.7,39.1 567.4,39.1 577.0,39.1 586.7,39.4 596.4,39.4 606.0,39.4 615.7,39.7 625.4,39.7 635.0,39.7 644.7,39.7 654.3,39.7 664.0,39.7"/><circle cx="36.0" cy="122.2" r="3" fill="#4aa3ff"/><circle cx="45.7" cy="122.2" r="3" fill="#4aa3ff"/><circle cx="55.3" cy="122.2" r="3" fill="#4aa3ff"/><circle cx="65.0" cy="122.2" r="3" fill="#4aa3ff"/><circle cx="74.6" cy="122.2" r="3" fill="#4aa3ff"/><circle cx="84.3" cy="122.2" r="3" fill="#4aa3ff"/><circle cx="94.0" cy="122.2" r="3" fill="#4aa3ff"/><circle cx="103.6" cy="122.2" r="3" fill="#4aa3ff"/><circle cx="113.3" cy="122.2" r="3" fill="#4aa3ff"/><circle cx="123.0" cy="122.2" r="3" fill="#4aa3ff"/><circle cx="132.6" cy="122.2" r="3" fill="#4aa3ff"/><circle cx="142.3" cy="122.2" r="3" fill="#4aa3ff"/><circle cx="151.9" cy="122.2" r="3" fill="#4aa3ff"/><circle cx="161.6" cy="122.2" r="3" fill="#4aa3ff"/><circle cx="171.3" cy="122.2" r="3" fill="#4aa3ff"/><circle cx="180.9" cy="110.7" r="3" fill="#4aa3ff"/><circle cx="190.6" cy="105.3" r="3" fill="#4aa3ff"/><circle cx="200.2" cy="101.3" r="3" fill="#4aa3ff"/><circle cx="209.9" cy="101.3" r="3" fill="#4aa3ff"/><circle cx="219.6" cy="89.2" r="3" fill="#4aa3ff"/><circle cx="229.2" cy="89.2" r="3" fill="#4aa3ff"/><circle cx="238.9" cy="89.2" r="3" fill="#4aa3ff"/><circle cx="248.6" cy="79.8" r="3" fill="#4aa3ff"/><circle cx="258.2" cy="79.8" r="3" fill="#4aa3ff"/><circle cx="267.9" cy="79.8" r="3" fill="#4aa3ff"/><circle cx="277.5" cy="75.5" r="3" fill="#4aa3ff"/><circle cx="287.2" cy="74.9" r="3" fill="#4aa3ff"/><circle cx="296.9" cy="74.9" r="3" fill="#4aa3ff"/><circle cx="306.5" cy="74.4" r="3" fill="#4aa3ff"/><circle cx="316.2" cy="74.4" r="3" fill="#4aa3ff"/><circle cx="325.8" cy="73.5" r="3" fill="#4aa3ff"/><circle cx="335.5" cy="71.8" r="3" fill="#4aa3ff"/><circle cx="345.2" cy="69.8" r="3" fill="#4aa3ff"/><circle cx="354.8" cy="69.2" r="3" fill="#4aa3ff"/><circle cx="364.5" cy="69.2" r="3" fill="#4aa3ff"/><circle cx="374.2" cy="69.2" r="3" fill="#4aa3ff"/><circle cx="383.8" cy="69.2" r="3" fill="#4aa3ff"/><circle cx="393.5" cy="69.2" r="3" fill="#4aa3ff"/><circle cx="403.1" cy="69.2" r="3" fill="#4aa3ff"/><circle cx="412.8" cy="69.2" r="3" fill="#4aa3ff"/><circle cx="422.5" cy="69.2" r="3" fill="#4aa3ff"/><circle cx="432.1" cy="69.2" r="3" fill="#4aa3ff"/><circle cx="441.8" cy="69.2" r="3" fill="#4aa3ff"/><circle cx="451.4" cy="78.1" r="3" fill="#4aa3ff"/><circle cx="461.1" cy="78.1" r="3" fill="#4aa3ff"/><circle cx="470.8" cy="78.1" r="3" fill="#4aa3ff"/><circle cx="480.4" cy="78.1" r="3" fill="#4aa3ff"/><circle cx="490.1" cy="78.1" r="3" fill="#4aa3ff"/><circle cx="499.8" cy="74.6" r="3" fill="#4aa3ff"/><circle cx="509.4" cy="66.9" r="3" fill="#4aa3ff"/><circle cx="519.1" cy="36.0" r="3" fill="#4aa3ff"/><circle cx="528.7" cy="36.0" r="3" fill="#4aa3ff"/><circle cx="538.4" cy="39.1" r="3" fill="#4aa3ff"/><circle cx="548.1" cy="39.1" r="3" fill="#4aa3ff"/><circle cx="557.7" cy="39.1" r="3" fill="#4aa3ff"/><circle cx="567.4" cy="39.1" r="3" fill="#4aa3ff"/><circle cx="577.0" cy="39.1" r="3" fill="#4aa3ff"/><circle cx="586.7" cy="39.4" r="3" fill="#4aa3ff"/><circle cx="596.4" cy="39.4" r="3" fill="#4aa3ff"/><circle cx="606.0" cy="39.4" r="3" fill="#4aa3ff"/><circle cx="615.7" cy="39.7" r="3" fill="#4aa3ff"/><circle cx="625.4" cy="39.7" r="3" fill="#4aa3ff"/><circle cx="635.0" cy="39.7" r="3" fill="#4aa3ff"/><circle cx="644.7" cy="39.7" r="3" fill="#4aa3ff"/><circle cx="654.3" cy="39.7" r="3" fill="#4aa3ff"/><circle cx="664.0" cy="39.7" r="3" fill="#4aa3ff"/>
<text x="36" y="225" fill="#6b7280" font-size="11">2026-06-26</text>
<text x="664" y="225" fill="#6b7280" font-size="11" text-anchor="end">2026-07-03</text>
<text x="36" y="212" font-family="system-ui,sans-serif" font-size="11">
<tspan fill="#4aa3ff">&#9679; open FPs</tspan>  <tspan fill="#3fb950">&#9679; closed (Anthropic acting)</tspan>  <tspan fill="#8a5a5a">&#9679; harness withdrawn</tspan></text>
<text x="664" y="22" text-anchor="end" font-family="system-ui,sans-serif" font-size="12">
<tspan fill="#4aa3ff">open 553</tspan>  <tspan fill="#3fb950">closed 38</tspan>  <tspan fill="#8a5a5a">harness 209</tspan></text>
</svg>