<svg xmlns="http://www.w3.org/2000/svg" width="700" height="234" viewBox="0 0 700 234" role="img">
<rect width="700" height="234" rx="12" fill="#16181d"/>
<text x="36" y="22" fill="#e8eaed" font-family="system-ui,sans-serif" font-size="14" font-weight="700">Is Anthropic acting? cyber/aup false positives over time</text>
<line x1="36" y1="198.0" x2="664" y2="198.0" stroke="#2a2e37" stroke-width="1"/><text x="30" y="202.0" fill="#6b7280" font-size="11" text-anchor="end">0</text><line x1="36" y1="117.0" x2="664" y2="117.0" stroke="#2a2e37" stroke-width="1"/><text x="30" y="121.0" fill="#6b7280" font-size="11" text-anchor="end">400</text><line x1="36" y1="36.0" x2="664" y2="36.0" stroke="#2a2e37" stroke-width="1"/><text x="30" y="40.0" fill="#6b7280" font-size="11" text-anchor="end">800</text>

<polyline fill="none" stroke="#8a5a5a" stroke-width="2.5" stroke-linejoin="round" points="36.0,145.1 40.0,145.1 44.0,145.1 48.0,145.1 52.0,145.1 56.0,145.1 60.0,145.1 64.0,145.1 68.0,145.1 72.0,145.1 76.0,145.1 80.0,145.1 84.0,145.1 88.0,145.1 92.0,145.1 96.0,145.1 100.0,145.1 104.0,145.1 108.0,145.1 112.0,145.1 116.0,145.1 120.0,145.1 124.0,145.1 128.0,145.1 132.0,145.1 136.0,145.1 140.0,145.1 144.0,145.1 148.0,145.1 152.0,145.1 156.0,145.1 160.0,145.1 164.0,145.1 168.0,145.1 172.0,145.1 176.0,145.1 180.0,145.1 184.0,145.1 188.0,145.1 192.0,145.1 196.0,145.1 200.0,145.1 204.0,145.1 208.0,145.1 212.0,145.1 216.0,145.1 220.0,145.1 224.0,145.1 228.0,145.1 232.0,145.1 236.0,155.7 240.0,155.7 244.0,155.7 248.0,155.7 252.0,155.7 256.0,155.7 260.0,155.7 264.0,155.7 268.0,155.7 272.0,155.7 276.0,155.7 280.0,155.7 284.0,155.7 288.0,155.7 292.0,155.7 296.0,155.7 300.0,155.7 304.0,155.7 308.0,155.7 312.0,155.7 316.0,155.7 320.0,155.7 324.0,155.7 328.0,155.7 332.0,155.7 336.0,155.7 340.0,155.7 344.0,155.7 348.0,155.7 352.0,155.7 356.0,155.7 360.0,155.7 364.0,155.7 368.0,155.7 372.0,167.6 376.0,167.6 380.0,170.3 384.0,170.3 388.0,170.5 392.0,170.7 396.0,170.7 400.0,170.9 404.0,172.7 408.0,180.6 412.0,181.8 416.0,189.1 420.0,190.5 424.0,195.2 428.0,198.0 432.0,198.0 436.0,198.0 440.0,198.0 444.0,198.0 448.0,198.0 452.0,198.0 456.0,198.0 460.0,198.0 464.0,198.0 468.0,198.0 472.0,198.0 476.0,198.0 480.0,198.0 484.0,198.0 488.0,198.0 492.0,198.0 496.0,198.0 500.0,198.0 504.0,198.0 508.0,198.0 512.0,198.0 516.0,198.0 520.0,198.0 524.0,198.0 528.0,198.0 532.0,198.0 536.0,198.0 540.0,198.0 544.0,198.0 548.0,198.0 552.0,198.0 556.0,198.0 560.0,198.0 564.0,198.0 568.0,198.0 572.0,198.0 576.0,198.0 580.0,198.0 584.0,198.0 588.0,198.0 592.0,198.0 596.0,198.0 600.0,198.0 604.0,198.0 608.0,198.0 612.0,198.0 616.0,198.0 620.0,198.0 624.0,198.0 628.0,198.0 632.0,198.0 636.0,198.0 640.0,198.0 644.0,198.0 648.0,198.0 652.0,198.0 656.0,198.0 660.0,198.0 664.0,198.0"/><circle cx="36.0" cy="145.1" r="3" fill="#8a5a5a"/><circle cx="40.0" cy="145.1" r="3" fill="#8a5a5a"/><circle cx="44.0" cy="145.1" r="3" fill="#8a5a5a"/><circle cx="48.0" cy="145.1" r="3" fill="#8a5a5a"/><circle cx="52.0" cy="145.1" r="3" fill="#8a5a5a"/><circle cx="56.0" cy="145.1" r="3" fill="#8a5a5a"/><circle cx="60.0" cy="145.1" r="3" fill="#8a5a5a"/><circle cx="64.0" cy="145.1" r="3" fill="#8a5a5a"/><circle cx="68.0" cy="145.1" r="3" fill="#8a5a5a"/><circle cx="72.0" cy="145.1" r="3" fill="#8a5a5a"/><circle cx="76.0" cy="145.1" r="3" fill="#8a5a5a"/><circle cx="80.0" cy="145.1" r="3" fill="#8a5a5a"/><circle cx="84.0" cy="145.1" r="3" fill="#8a5a5a"/><circle cx="88.0" cy="145.1" r="3" fill="#8a5a5a"/><circle cx="92.0" cy="145.1" r="3" fill="#8a5a5a"/><circle cx="96.0" cy="145.1" r="3" fill="#8a5a5a"/><circle cx="100.0" cy="145.1" r="3" fill="#8a5a5a"/><circle cx="104.0" cy="145.1" r="3" fill="#8a5a5a"/><circle cx="108.0" cy="145.1" r="3" fill="#8a5a5a"/><circle cx="112.0" cy="145.1" r="3" fill="#8a5a5a"/><circle cx="116.0" cy="145.1" r="3" fill="#8a5a5a"/><circle cx="120.0" cy="145.1" r="3" fill="#8a5a5a"/><circle cx="124.0" cy="145.1" r="3" fill="#8a5a5a"/><circle cx="128.0" cy="145.1" r="3" fill="#8a5a5a"/><circle cx="132.0" cy="145.1" r="3" fill="#8a5a5a"/><circle cx="136.0" cy="145.1" r="3" fill="#8a5a5a"/><circle cx="140.0" cy="145.1" r="3" fill="#8a5a5a"/><circle cx="144.0" cy="145.1" r="3" fill="#8a5a5a"/><circle cx="148.0" cy="145.1" r="3" fill="#8a5a5a"/><circle cx="152.0" cy="145.1" r="3" fill="#8a5a5a"/><circle cx="156.0" cy="145.1" r="3" fill="#8a5a5a"/><circle cx="160.0" cy="145.1" r="3" fill="#8a5a5a"/><circle cx="164.0" cy="145.1" r="3" fill="#8a5a5a"/><circle cx="168.0" cy="145.1" r="3" fill="#8a5a5a"/><circle cx="172.0" cy="145.1" r="3" fill="#8a5a5a"/><circle cx="176.0" cy="145.1" r="3" fill="#8a5a5a"/><circle cx="180.0" cy="145.1" r="3" fill="#8a5a5a"/><circle cx="184.0" cy="145.1" r="3" fill="#8a5a5a"/><circle cx="188.0" cy="145.1" r="3" fill="#8a5a5a"/><circle cx="192.0" cy="145.1" r="3" fill="#8a5a5a"/><circle cx="196.0" cy="145.1" r="3" fill="#8a5a5a"/><circle cx="200.0" cy="145.1" r="3" fill="#8a5a5a"/><circle cx="204.0" cy="145.1" r="3" fill="#8a5a5a"/><circle cx="208.0" cy="145.1" r="3" fill="#8a5a5a"/><circle cx="212.0" cy="145.1" r="3" fill="#8a5a5a"/><circle cx="216.0" cy="145.1" r="3" fill="#8a5a5a"/><circle cx="220.0" cy="145.1" r="3" fill="#8a5a5a"/><circle cx="224.0" cy="145.1" r="3" fill="#8a5a5a"/><circle cx="228.0" cy="145.1" r="3" fill="#8a5a5a"/><circle cx="232.0" cy="145.1" r="3" fill="#8a5a5a"/><circle cx="236.0" cy="155.7" r="3" fill="#8a5a5a"/><circle cx="240.0" cy="155.7" r="3" fill="#8a5a5a"/><circle cx="244.0" cy="155.7" r="3" fill="#8a5a5a"/><circle cx="248.0" cy="155.7" r="3" fill="#8a5a5a"/><circle cx="252.0" cy="155.7" r="3" fill="#8a5a5a"/><circle cx="256.0" cy="155.7" r="3" fill="#8a5a5a"/><circle cx="260.0" cy="155.7" r="3" fill="#8a5a5a"/><circle cx="264.0" cy="155.7" r="3" fill="#8a5a5a"/><circle cx="268.0" cy="155.7" r="3" fill="#8a5a5a"/><circle cx="272.0" cy="155.7" r="3" fill="#8a5a5a"/><circle cx="276.0" cy="155.7" r="3" fill="#8a5a5a"/><circle cx="280.0" cy="155.7" r="3" fill="#8a5a5a"/><circle cx="284.0" cy="155.7" r="3" fill="#8a5a5a"/><circle cx="288.0" cy="155.7" r="3" fill="#8a5a5a"/><circle cx="292.0" cy="155.7" r="3" fill="#8a5a5a"/><circle cx="296.0" cy="155.7" r="3" fill="#8a5a5a"/><circle cx="300.0" cy="155.7" r="3" fill="#8a5a5a"/><circle cx="304.0" cy="155.7" r="3" fill="#8a5a5a"/><circle cx="308.0" cy="155.7" r="3" fill="#8a5a5a"/><circle cx="312.0" cy="155.7" r="3" fill="#8a5a5a"/><circle cx="316.0" cy="155.7" r="3" fill="#8a5a5a"/><circle cx="320.0" cy="155.7" r="3" fill="#8a5a5a"/><circle cx="324.0" cy="155.7" r="3" fill="#8a5a5a"/><circle cx="328.0" cy="155.7" r="3" fill="#8a5a5a"/><circle cx="332.0" cy="155.7" r="3" fill="#8a5a5a"/><circle cx="336.0" cy="155.7" r="3" fill="#8a5a5a"/><circle cx="340.0" cy="155.7" r="3" fill="#8a5a5a"/><circle cx="344.0" cy="155.7" r="3" fill="#8a5a5a"/><circle cx="348.0" cy="155.7" r="3" fill="#8a5a5a"/><circle cx="352.0" cy="155.7" r="3" fill="#8a5a5a"/><circle cx="356.0" cy="155.7" r="3" fill="#8a5a5a"/><circle cx="360.0" cy="155.7" r="3" fill="#8a5a5a"/><circle cx="364.0" cy="155.7" r="3" fill="#8a5a5a"/><circle cx="368.0" cy="155.7" r="3" fill="#8a5a5a"/><circle cx="372.0" cy="167.6" r="3" fill="#8a5a5a"/><circle cx="376.0" cy="167.6" r="3" fill="#8a5a5a"/><circle cx="380.0" cy="170.3" r="3" fill="#8a5a5a"/><circle cx="384.0" cy="170.3" r="3" fill="#8a5a5a"/><circle cx="388.0" cy="170.5" r="3" fill="#8a5a5a"/><circle cx="392.0" cy="170.7" r="3" fill="#8a5a5a"/><circle cx="396.0" cy="170.7" r="3" fill="#8a5a5a"/><circle cx="400.0" cy="170.9" r="3" fill="#8a5a5a"/><circle cx="404.0" cy="172.7" r="3" fill="#8a5a5a"/><circle cx="408.0" cy="180.6" r="3" fill="#8a5a5a"/><circle cx="412.0" cy="181.8" r="3" fill="#8a5a5a"/><circle cx="416.0" cy="189.1" r="3" fill="#8a5a5a"/><circle cx="420.0" cy="190.5" r="3" fill="#8a5a5a"/><circle cx="424.0" cy="195.2" r="3" fill="#8a5a5a"/><circle cx="428.0" cy="198.0" r="3" fill="#8a5a5a"/><circle cx="432.0" cy="198.0" r="3" fill="#8a5a5a"/><circle cx="436.0" cy="198.0" r="3" fill="#8a5a5a"/><circle cx="440.0" cy="198.0" r="3" fill="#8a5a5a"/><circle cx="444.0" cy="198.0" r="3" fill="#8a5a5a"/><circle cx="448.0" cy="198.0" r="3" fill="#8a5a5a"/><circle cx="452.0" cy="198.0" r="3" fill="#8a5a5a"/><circle cx="456.0" cy="198.0" r="3" fill="#8a5a5a"/><circle cx="460.0" cy="198.0" r="3" fill="#8a5a5a"/><circle cx="464.0" cy="198.0" r="3" fill="#8a5a5a"/><circle cx="468.0" cy="198.0" r="3" fill="#8a5a5a"/><circle cx="472.0" cy="198.0" r="3" fill="#8a5a5a"/><circle cx="476.0" cy="198.0" r="3" fill="#8a5a5a"/><circle cx="480.0" cy="198.0" r="3" fill="#8a5a5a"/><circle cx="484.0" cy="198.0" r="3" fill="#8a5a5a"/><circle cx="488.0" cy="198.0" r="3" fill="#8a5a5a"/><circle cx="492.0" cy="198.0" r="3" fill="#8a5a5a"/><circle cx="496.0" cy="198.0" r="3" fill="#8a5a5a"/><circle cx="500.0" cy="198.0" r="3" fill="#8a5a5a"/><circle cx="504.0" cy="198.0" r="3" fill="#8a5a5a"/><circle cx="508.0" cy="198.0" r="3" fill="#8a5a5a"/><circle cx="512.0" cy="198.0" r="3" fill="#8a5a5a"/><circle cx="516.0" cy="198.0" r="3" fill="#8a5a5a"/><circle cx="520.0" cy="198.0" r="3" fill="#8a5a5a"/><circle cx="524.0" cy="198.0" r="3" fill="#8a5a5a"/><circle cx="528.0" cy="198.0" r="3" fill="#8a5a5a"/><circle cx="532.0" cy="198.0" r="3" fill="#8a5a5a"/><circle cx="536.0" cy="198.0" r="3" fill="#8a5a5a"/><circle cx="540.0" cy="198.0" r="3" fill="#8a5a5a"/><circle cx="544.0" cy="198.0" r="3" fill="#8a5a5a"/><circle cx="548.0" cy="198.0" r="3" fill="#8a5a5a"/><circle cx="552.0" cy="198.0" r="3" fill="#8a5a5a"/><circle cx="556.0" cy="198.0" r="3" fill="#8a5a5a"/><circle cx="560.0" cy="198.0" r="3" fill="#8a5a5a"/><circle cx="564.0" cy="198.0" r="3" fill="#8a5a5a"/><circle cx="568.0" cy="198.0" r="3" fill="#8a5a5a"/><circle cx="572.0" cy="198.0" r="3" fill="#8a5a5a"/><circle cx="576.0" cy="198.0" r="3" fill="#8a5a5a"/><circle cx="580.0" cy="198.0" r="3" fill="#8a5a5a"/><circle cx="584.0" cy="198.0" r="3" fill="#8a5a5a"/><circle cx="588.0" cy="198.0" r="3" fill="#8a5a5a"/><circle cx="592.0" cy="198.0" r="3" fill="#8a5a5a"/><circle cx="596.0" cy="198.0" r="3" fill="#8a5a5a"/><circle cx="600.0" cy="198.0" r="3" fill="#8a5a5a"/><circle cx="604.0" cy="198.0" r="3" fill="#8a5a5a"/><circle cx="608.0" cy="198.0" r="3" fill="#8a5a5a"/><circle cx="612.0" cy="198.0" r="3" fill="#8a5a5a"/><circle cx="616.0" cy="198.0" r="3" fill="#8a5a5a"/><circle cx="620.0" cy="198.0" r="3" fill="#8a5a5a"/><circle cx="624.0" cy="198.0" r="3" fill="#8a5a5a"/><circle cx="628.0" cy="198.0" r="3" fill="#8a5a5a"/><circle cx="632.0" cy="198.0" r="3" fill="#8a5a5a"/><circle cx="636.0" cy="198.0" r="3" fill="#8a5a5a"/><circle cx="640.0" cy="198.0" r="3" fill="#8a5a5a"/><circle cx="644.0" cy="198.0" r="3" fill="#8a5a5a"/><circle cx="648.0" cy="198.0" r="3" fill="#8a5a5a"/><circle cx="652.0" cy="198.0" r="3" fill="#8a5a5a"/><circle cx="656.0" cy="198.0" r="3" fill="#8a5a5a"/><circle cx="660.0" cy="198.0" r="3" fill="#8a5a5a"/><circle cx="664.0" cy="198.0" r="3" fill="#8a5a5a"/>
<polyline fill="none" stroke="#3fb950" stroke-width="2.5" stroke-linejoin="round" points="36.0,198.0 40.0,198.0 44.0,198.0 48.0,198.0 52.0,198.0 56.0,198.0 60.0,198.0 64.0,198.0 68.0,198.0 72.0,198.0 76.0,198.0 80.0,198.0 84.0,198.0 88.0,198.0 92.0,198.0 96.0,198.0 100.0,198.0 104.0,198.0 108.0,198.0 112.0,198.0 116.0,198.0 120.0,198.0 124.0,198.0 128.0,198.0 132.0,198.0 136.0,198.0 140.0,198.0 144.0,198.0 148.0,198.0 152.0,198.0 156.0,198.0 160.0,198.0 164.0,198.0 168.0,198.0 172.0,198.0 176.0,198.0 180.0,198.0 184.0,198.0 188.0,198.0 192.0,198.0 196.0,198.0 200.0,198.0 204.0,198.0 208.0,191.7 212.0,191.7 216.0,191.7 220.0,191.7 224.0,191.7 228.0,191.7 232.0,191.7 236.0,192.9 240.0,192.9 244.0,190.7 248.0,190.7 252.0,190.7 256.0,190.7 260.0,190.7 264.0,190.5 268.0,190.5 272.0,190.5 276.0,190.3 280.0,190.3 284.0,190.3 288.0,190.3 292.0,190.3 296.0,190.3 300.0,190.3 304.0,190.3 308.0,190.3 312.0,190.3 316.0,190.3 320.0,190.3 324.0,190.3 328.0,190.3 332.0,190.3 336.0,190.3 340.0,190.3 344.0,190.3 348.0,190.3 352.0,190.3 356.0,190.3 360.0,189.3 364.0,189.3 368.0,189.3 372.0,190.7 376.0,190.7 380.0,190.7 384.0,190.7 388.0,190.7 392.0,190.7 396.0,190.7 400.0,190.7 404.0,190.7 408.0,190.9 412.0,190.9 416.0,190.9 420.0,194.2 424.0,196.8 428.0,198.0 432.0,198.0 436.0,198.0 440.0,198.0 444.0,198.0 448.0,198.0 452.0,198.0 456.0,198.0 460.0,198.0 464.0,198.0 468.0,198.0 472.0,198.0 476.0,198.0 480.0,198.0 484.0,198.0 488.0,198.0 492.0,198.0 496.0,198.0 500.0,198.0 504.0,198.0 508.0,198.0 512.0,198.0 516.0,198.0 520.0,198.0 524.0,198.0 528.0,198.0 532.0,198.0 536.0,198.0 540.0,198.0 544.0,198.0 548.0,198.0 552.0,198.0 556.0,198.0 560.0,198.0 564.0,198.0 568.0,198.0 572.0,198.0 576.0,198.0 580.0,198.0 584.0,198.0 588.0,198.0 592.0,198.0 596.0,198.0 600.0,198.0 604.0,198.0 608.0,198.0 612.0,198.0 616.0,198.0 620.0,198.0 624.0,198.0 628.0,198.0 632.0,198.0 636.0,198.0 640.0,198.0 644.0,198.0 648.0,198.0 652.0,198.0 656.0,198.0 660.0,198.0 664.0,198.0"/><circle cx="36.0" cy="198.0" r="3" fill="#3fb950"/><circle cx="40.0" cy="198.0" r="3" fill="#3fb950"/><circle cx="44.0" cy="198.0" r="3" fill="#3fb950"/><circle cx="48.0" cy="198.0" r="3" fill="#3fb950"/><circle cx="52.0" cy="198.0" r="3" fill="#3fb950"/><circle cx="56.0" cy="198.0" r="3" fill="#3fb950"/><circle cx="60.0" cy="198.0" r="3" fill="#3fb950"/><circle cx="64.0" cy="198.0" r="3" fill="#3fb950"/><circle cx="68.0" cy="198.0" r="3" fill="#3fb950"/><circle cx="72.0" cy="198.0" r="3" fill="#3fb950"/><circle cx="76.0" cy="198.0" r="3" fill="#3fb950"/><circle cx="80.0" cy="198.0" r="3" fill="#3fb950"/><circle cx="84.0" cy="198.0" r="3" fill="#3fb950"/><circle cx="88.0" cy="198.0" r="3" fill="#3fb950"/><circle cx="92.0" cy="198.0" r="3" fill="#3fb950"/><circle cx="96.0" cy="198.0" r="3" fill="#3fb950"/><circle cx="100.0" cy="198.0" r="3" fill="#3fb950"/><circle cx="104.0" cy="198.0" r="3" fill="#3fb950"/><circle cx="108.0" cy="198.0" r="3" fill="#3fb950"/><circle cx="112.0" cy="198.0" r="3" fill="#3fb950"/><circle cx="116.0" cy="198.0" r="3" fill="#3fb950"/><circle cx="120.0" cy="198.0" r="3" fill="#3fb950"/><circle cx="124.0" cy="198.0" r="3" fill="#3fb950"/><circle cx="128.0" cy="198.0" r="3" fill="#3fb950"/><circle cx="132.0" cy="198.0" r="3" fill="#3fb950"/><circle cx="136.0" cy="198.0" r="3" fill="#3fb950"/><circle cx="140.0" cy="198.0" r="3" fill="#3fb950"/><circle cx="144.0" cy="198.0" r="3" fill="#3fb950"/><circle cx="148.0" cy="198.0" r="3" fill="#3fb950"/><circle cx="152.0" cy="198.0" r="3" fill="#3fb950"/><circle cx="156.0" cy="198.0" r="3" fill="#3fb950"/><circle cx="160.0" cy="198.0" r="3" fill="#3fb950"/><circle cx="164.0" cy="198.0" r="3" fill="#3fb950"/><circle cx="168.0" cy="198.0" r="3" fill="#3fb950"/><circle cx="172.0" cy="198.0" r="3" fill="#3fb950"/><circle cx="176.0" cy="198.0" r="3" fill="#3fb950"/><circle cx="180.0" cy="198.0" r="3" fill="#3fb950"/><circle cx="184.0" cy="198.0" r="3" fill="#3fb950"/><circle cx="188.0" cy="198.0" r="3" fill="#3fb950"/><circle cx="192.0" cy="198.0" r="3" fill="#3fb950"/><circle cx="196.0" cy="198.0" r="3" fill="#3fb950"/><circle cx="200.0" cy="198.0" r="3" fill="#3fb950"/><circle cx="204.0" cy="198.0" r="3" fill="#3fb950"/><circle cx="208.0" cy="191.7" r="3" fill="#3fb950"/><circle cx="212.0" cy="191.7" r="3" fill="#3fb950"/><circle cx="216.0" cy="191.7" r="3" fill="#3fb950"/><circle cx="220.0" cy="191.7" r="3" fill="#3fb950"/><circle cx="224.0" cy="191.7" r="3" fill="#3fb950"/><circle cx="228.0" cy="191.7" r="3" fill="#3fb950"/><circle cx="232.0" cy="191.7" r="3" fill="#3fb950"/><circle cx="236.0" cy="192.9" r="3" fill="#3fb950"/><circle cx="240.0" cy="192.9" r="3" fill="#3fb950"/><circle cx="244.0" cy="190.7" r="3" fill="#3fb950"/><circle cx="248.0" cy="190.7" r="3" fill="#3fb950"/><circle cx="252.0" cy="190.7" r="3" fill="#3fb950"/><circle cx="256.0" cy="190.7" r="3" fill="#3fb950"/><circle cx="260.0" cy="190.7" r="3" fill="#3fb950"/><circle cx="264.0" cy="190.5" r="3" fill="#3fb950"/><circle cx="268.0" cy="190.5" r="3" fill="#3fb950"/><circle cx="272.0" cy="190.5" r="3" fill="#3fb950"/><circle cx="276.0" cy="190.3" r="3" fill="#3fb950"/><circle cx="280.0" cy="190.3" r="3" fill="#3fb950"/><circle cx="284.0" cy="190.3" r="3" fill="#3fb950"/><circle cx="288.0" cy="190.3" r="3" fill="#3fb950"/><circle cx="292.0" cy="190.3" r="3" fill="#3fb950"/><circle cx="296.0" cy="190.3" r="3" fill="#3fb950"/><circle cx="300.0" cy="190.3" r="3" fill="#3fb950"/><circle cx="304.0" cy="190.3" r="3" fill="#3fb950"/><circle cx="308.0" cy="190.3" r="3" fill="#3fb950"/><circle cx="312.0" cy="190.3" r="3" fill="#3fb950"/><circle cx="316.0" cy="190.3" r="3" fill="#3fb950"/><circle cx="320.0" cy="190.3" r="3" fill="#3fb950"/><circle cx="324.0" cy="190.3" r="3" fill="#3fb950"/><circle cx="328.0" cy="190.3" r="3" fill="#3fb950"/><circle cx="332.0" cy="190.3" r="3" fill="#3fb950"/><circle cx="336.0" cy="190.3" r="3" fill="#3fb950"/><circle cx="340.0" cy="190.3" r="3" fill="#3fb950"/><circle cx="344.0" cy="190.3" r="3" fill="#3fb950"/><circle cx="348.0" cy="190.3" r="3" fill="#3fb950"/><circle cx="352.0" cy="190.3" r="3" fill="#3fb950"/><circle cx="356.0" cy="190.3" r="3" fill="#3fb950"/><circle cx="360.0" cy="189.3" r="3" fill="#3fb950"/><circle cx="364.0" cy="189.3" r="3" fill="#3fb950"/><circle cx="368.0" cy="189.3" r="3" fill="#3fb950"/><circle cx="372.0" cy="190.7" r="3" fill="#3fb950"/><circle cx="376.0" cy="190.7" r="3" fill="#3fb950"/><circle cx="380.0" cy="190.7" r="3" fill="#3fb950"/><circle cx="384.0" cy="190.7" r="3" fill="#3fb950"/><circle cx="388.0" cy="190.7" r="3" fill="#3fb950"/><circle cx="392.0" cy="190.7" r="3" fill="#3fb950"/><circle cx="396.0" cy="190.7" r="3" fill="#3fb950"/><circle cx="400.0" cy="190.7" r="3" fill="#3fb950"/><circle cx="404.0" cy="190.7" r="3" fill="#3fb950"/><circle cx="408.0" cy="190.9" r="3" fill="#3fb950"/><circle cx="412.0" cy="190.9" r="3" fill="#3fb950"/><circle cx="416.0" cy="190.9" r="3" fill="#3fb950"/><circle cx="420.0" cy="194.2" r="3" fill="#3fb950"/><circle cx="424.0" cy="196.8" r="3" fill="#3fb950"/><circle cx="428.0" cy="198.0" r="3" fill="#3fb950"/><circle cx="432.0" cy="198.0" r="3" fill="#3fb950"/><circle cx="436.0" cy="198.0" r="3" fill="#3fb950"/><circle cx="440.0" cy="198.0" r="3" fill="#3fb950"/><circle cx="444.0" cy="198.0" r="3" fill="#3fb950"/><circle cx="448.0" cy="198.0" r="3" fill="#3fb950"/><circle cx="452.0" cy="198.0" r="3" fill="#3fb950"/><circle cx="456.0" cy="198.0" r="3" fill="#3fb950"/><circle cx="460.0" cy="198.0" r="3" fill="#3fb950"/><circle cx="464.0" cy="198.0" r="3" fill="#3fb950"/><circle cx="468.0" cy="198.0" r="3" fill="#3fb950"/><circle cx="472.0" cy="198.0" r="3" fill="#3fb950"/><circle cx="476.0" cy="198.0" r="3" fill="#3fb950"/><circle cx="480.0" cy="198.0" r="3" fill="#3fb950"/><circle cx="484.0" cy="198.0" r="3" fill="#3fb950"/><circle cx="488.0" cy="198.0" r="3" fill="#3fb950"/><circle cx="492.0" cy="198.0" r="3" fill="#3fb950"/><circle cx="496.0" cy="198.0" r="3" fill="#3fb950"/><circle cx="500.0" cy="198.0" r="3" fill="#3fb950"/><circle cx="504.0" cy="198.0" r="3" fill="#3fb950"/><circle cx="508.0" cy="198.0" r="3" fill="#3fb950"/><circle cx="512.0" cy="198.0" r="3" fill="#3fb950"/><circle cx="516.0" cy="198.0" r="3" fill="#3fb950"/><circle cx="520.0" cy="198.0" r="3" fill="#3fb950"/><circle cx="524.0" cy="198.0" r="3" fill="#3fb950"/><circle cx="528.0" cy="198.0" r="3" fill="#3fb950"/><circle cx="532.0" cy="198.0" r="3" fill="#3fb950"/><circle cx="536.0" cy="198.0" r="3" fill="#3fb950"/><circle cx="540.0" cy="198.0" r="3" fill="#3fb950"/><circle cx="544.0" cy="198.0" r="3" fill="#3fb950"/><circle cx="548.0" cy="198.0" r="3" fill="#3fb950"/><circle cx="552.0" cy="198.0" r="3" fill="#3fb950"/><circle cx="556.0" cy="198.0" r="3" fill="#3fb950"/><circle cx="560.0" cy="198.0" r="3" fill="#3fb950"/><circle cx="564.0" cy="198.0" r="3" fill="#3fb950"/><circle cx="568.0" cy="198.0" r="3" fill="#3fb950"/><circle cx="572.0" cy="198.0" r="3" fill="#3fb950"/><circle cx="576.0" cy="198.0" r="3" fill="#3fb950"/><circle cx="580.0" cy="198.0" r="3" fill="#3fb950"/><circle cx="584.0" cy="198.0" r="3" fill="#3fb950"/><circle cx="588.0" cy="198.0" r="3" fill="#3fb950"/><circle cx="592.0" cy="198.0" r="3" fill="#3fb950"/><circle cx="596.0" cy="198.0" r="3" fill="#3fb950"/><circle cx="600.0" cy="198.0" r="3" fill="#3fb950"/><circle cx="604.0" cy="198.0" r="3" fill="#3fb950"/><circle cx="608.0" cy="198.0" r="3" fill="#3fb950"/><circle cx="612.0" cy="198.0" r="3" fill="#3fb950"/><circle cx="616.0" cy="198.0" r="3" fill="#3fb950"/><circle cx="620.0" cy="198.0" r="3" fill="#3fb950"/><circle cx="624.0" cy="198.0" r="3" fill="#3fb950"/><circle cx="628.0" cy="198.0" r="3" fill="#3fb950"/><circle cx="632.0" cy="198.0" r="3" fill="#3fb950"/><circle cx="636.0" cy="198.0" r="3" fill="#3fb950"/><circle cx="640.0" cy="198.0" r="3" fill="#3fb950"/><circle cx="644.0" cy="198.0" r="3" fill="#3fb950"/><circle cx="648.0" cy="198.0" r="3" fill="#3fb950"/><circle cx="652.0" cy="198.0" r="3" fill="#3fb950"/><circle cx="656.0" cy="198.0" r="3" fill="#3fb950"/><circle cx="660.0" cy="198.0" r="3" fill="#3fb950"/><circle cx="664.0" cy="198.0" r="3" fill="#3fb950"/>
<polyline fill="none" stroke="#4aa3ff" stroke-width="2.5" stroke-linejoin="round" points="36.0,144.3 40.0,144.3 44.0,144.3 48.0,144.3 52.0,144.3 56.0,144.3 60.0,144.3 64.0,144.3 68.0,144.3 72.0,144.3 76.0,144.3 80.0,144.3 84.0,144.3 88.0,144.3 92.0,144.3 96.0,136.2 100.0,132.4 104.0,129.6 108.0,129.6 112.0,121.0 116.0,121.0 120.0,121.0 124.0,114.4 128.0,114.4 132.0,114.4 136.0,111.3 140.0,110.9 144.0,110.9 148.0,110.5 152.0,110.5 156.0,109.9 160.0,108.7 164.0,107.3 168.0,106.9 172.0,106.9 176.0,106.9 180.0,106.9 184.0,106.9 188.0,106.9 192.0,106.9 196.0,106.9 200.0,106.9 204.0,106.9 208.0,113.2 212.0,113.2 216.0,113.2 220.0,113.2 224.0,113.2 228.0,110.7 232.0,105.3 236.0,83.4 240.0,83.4 244.0,85.6 248.0,85.6 252.0,85.6 256.0,85.6 260.0,85.6 264.0,85.8 268.0,85.8 272.0,85.8 276.0,86.0 280.0,86.0 284.0,86.0 288.0,86.0 292.0,86.0 296.0,86.0 300.0,86.0 304.0,86.0 308.0,86.0 312.0,86.0 316.0,86.0 320.0,86.0 324.0,86.0 328.0,86.0 332.0,86.0 336.0,86.0 340.0,86.0 344.0,86.0 348.0,86.0 352.0,86.0 356.0,86.0 360.0,87.0 364.0,87.0 368.0,87.0 372.0,73.7 376.0,73.7 380.0,71.0 384.0,71.0 388.0,70.8 392.0,70.6 396.0,70.6 400.0,70.4 404.0,68.6 408.0,60.5 412.0,59.3 416.0,52.0 420.0,47.3 424.0,40.1 428.0,36.0 432.0,36.0 436.0,36.0 440.0,36.0 444.0,36.0 448.0,36.0 452.0,36.0 456.0,36.0 460.0,36.0 464.0,36.0 468.0,36.0 472.0,36.0 476.0,36.0 480.0,36.0 484.0,36.0 488.0,36.0 492.0,36.0 496.0,36.0 500.0,36.0 504.0,36.0 508.0,36.0 512.0,36.0 516.0,36.0 520.0,36.0 524.0,36.0 528.0,36.0 532.0,36.0 536.0,36.0 540.0,36.0 544.0,36.0 548.0,36.0 552.0,36.0 556.0,36.0 560.0,36.0 564.0,36.0 568.0,36.0 572.0,36.0 576.0,36.0 580.0,36.0 584.0,36.0 588.0,36.0 592.0,36.0 596.0,36.0 600.0,36.0 604.0,36.0 608.0,36.0 612.0,36.0 616.0,36.0 620.0,36.0 624.0,36.0 628.0,36.0 632.0,36.0 636.0,36.0 640.0,36.0 644.0,36.0 648.0,36.0 652.0,36.0 656.0,36.0 660.0,36.0 664.0,36.0"/><circle cx="36.0" cy="144.3" r="3" fill="#4aa3ff"/><circle cx="40.0" cy="144.3" r="3" fill="#4aa3ff"/><circle cx="44.0" cy="144.3" r="3" fill="#4aa3ff"/><circle cx="48.0" cy="144.3" r="3" fill="#4aa3ff"/><circle cx="52.0" cy="144.3" r="3" fill="#4aa3ff"/><circle cx="56.0" cy="144.3" r="3" fill="#4aa3ff"/><circle cx="60.0" cy="144.3" r="3" fill="#4aa3ff"/><circle cx="64.0" cy="144.3" r="3" fill="#4aa3ff"/><circle cx="68.0" cy="144.3" r="3" fill="#4aa3ff"/><circle cx="72.0" cy="144.3" r="3" fill="#4aa3ff"/><circle cx="76.0" cy="144.3" r="3" fill="#4aa3ff"/><circle cx="80.0" cy="144.3" r="3" fill="#4aa3ff"/><circle cx="84.0" cy="144.3" r="3" fill="#4aa3ff"/><circle cx="88.0" cy="144.3" r="3" fill="#4aa3ff"/><circle cx="92.0" cy="144.3" r="3" fill="#4aa3ff"/><circle cx="96.0" cy="136.2" r="3" fill="#4aa3ff"/><circle cx="100.0" cy="132.4" r="3" fill="#4aa3ff"/><circle cx="104.0" cy="129.6" r="3" fill="#4aa3ff"/><circle cx="108.0" cy="129.6" r="3" fill="#4aa3ff"/><circle cx="112.0" cy="121.0" r="3" fill="#4aa3ff"/><circle cx="116.0" cy="121.0" r="3" fill="#4aa3ff"/><circle cx="120.0" cy="121.0" r="3" fill="#4aa3ff"/><circle cx="124.0" cy="114.4" r="3" fill="#4aa3ff"/><circle cx="128.0" cy="114.4" r="3" fill="#4aa3ff"/><circle cx="132.0" cy="114.4" r="3" fill="#4aa3ff"/><circle cx="136.0" cy="111.3" r="3" fill="#4aa3ff"/><circle cx="140.0" cy="110.9" r="3" fill="#4aa3ff"/><circle cx="144.0" cy="110.9" r="3" fill="#4aa3ff"/><circle cx="148.0" cy="110.5" r="3" fill="#4aa3ff"/><circle cx="152.0" cy="110.5" r="3" fill="#4aa3ff"/><circle cx="156.0" cy="109.9" r="3" fill="#4aa3ff"/><circle cx="160.0" cy="108.7" r="3" fill="#4aa3ff"/><circle cx="164.0" cy="107.3" r="3" fill="#4aa3ff"/><circle cx="168.0" cy="106.9" r="3" fill="#4aa3ff"/><circle cx="172.0" cy="106.9" r="3" fill="#4aa3ff"/><circle cx="176.0" cy="106.9" r="3" fill="#4aa3ff"/><circle cx="180.0" cy="106.9" r="3" fill="#4aa3ff"/><circle cx="184.0" cy="106.9" r="3" fill="#4aa3ff"/><circle cx="188.0" cy="106.9" r="3" fill="#4aa3ff"/><circle cx="192.0" cy="106.9" r="3" fill="#4aa3ff"/><circle cx="196.0" cy="106.9" r="3" fill="#4aa3ff"/><circle cx="200.0" cy="106.9" r="3" fill="#4aa3ff"/><circle cx="204.0" cy="106.9" r="3" fill="#4aa3ff"/><circle cx="208.0" cy="113.2" r="3" fill="#4aa3ff"/><circle cx="212.0" cy="113.2" r="3" fill="#4aa3ff"/><circle cx="216.0" cy="113.2" r="3" fill="#4aa3ff"/><circle cx="220.0" cy="113.2" r="3" fill="#4aa3ff"/><circle cx="224.0" cy="113.2" r="3" fill="#4aa3ff"/><circle cx="228.0" cy="110.7" r="3" fill="#4aa3ff"/><circle cx="232.0" cy="105.3" r="3" fill="#4aa3ff"/><circle cx="236.0" cy="83.4" r="3" fill="#4aa3ff"/><circle cx="240.0" cy="83.4" r="3" fill="#4aa3ff"/><circle cx="244.0" cy="85.6" r="3" fill="#4aa3ff"/><circle cx="248.0" cy="85.6" r="3" fill="#4aa3ff"/><circle cx="252.0" cy="85.6" r="3" fill="#4aa3ff"/><circle cx="256.0" cy="85.6" r="3" fill="#4aa3ff"/><circle cx="260.0" cy="85.6" r="3" fill="#4aa3ff"/><circle cx="264.0" cy="85.8" r="3" fill="#4aa3ff"/><circle cx="268.0" cy="85.8" r="3" fill="#4aa3ff"/><circle cx="272.0" cy="85.8" r="3" fill="#4aa3ff"/><circle cx="276.0" cy="86.0" r="3" fill="#4aa3ff"/><circle cx="280.0" cy="86.0" r="3" fill="#4aa3ff"/><circle cx="284.0" cy="86.0" r="3" fill="#4aa3ff"/><circle cx="288.0" cy="86.0" r="3" fill="#4aa3ff"/><circle cx="292.0" cy="86.0" r="3" fill="#4aa3ff"/><circle cx="296.0" cy="86.0" r="3" fill="#4aa3ff"/><circle cx="300.0" cy="86.0" r="3" fill="#4aa3ff"/><circle cx="304.0" cy="86.0" r="3" fill="#4aa3ff"/><circle cx="308.0" cy="86.0" r="3" fill="#4aa3ff"/><circle cx="312.0" cy="86.0" r="3" fill="#4aa3ff"/><circle cx="316.0" cy="86.0" r="3" fill="#4aa3ff"/><circle cx="320.0" cy="86.0" r="3" fill="#4aa3ff"/><circle cx="324.0" cy="86.0" r="3" fill="#4aa3ff"/><circle cx="328.0" cy="86.0" r="3" fill="#4aa3ff"/><circle cx="332.0" cy="86.0" r="3" fill="#4aa3ff"/><circle cx="336.0" cy="86.0" r="3" fill="#4aa3ff"/><circle cx="340.0" cy="86.0" r="3" fill="#4aa3ff"/><circle cx="344.0" cy="86.0" r="3" fill="#4aa3ff"/><circle cx="348.0" cy="86.0" r="3" fill="#4aa3ff"/><circle cx="352.0" cy="86.0" r="3" fill="#4aa3ff"/><circle cx="356.0" cy="86.0" r="3" fill="#4aa3ff"/><circle cx="360.0" cy="87.0" r="3" fill="#4aa3ff"/><circle cx="364.0" cy="87.0" r="3" fill="#4aa3ff"/><circle cx="368.0" cy="87.0" r="3" fill="#4aa3ff"/><circle cx="372.0" cy="73.7" r="3" fill="#4aa3ff"/><circle cx="376.0" cy="73.7" r="3" fill="#4aa3ff"/><circle cx="380.0" cy="71.0" r="3" fill="#4aa3ff"/><circle cx="384.0" cy="71.0" r="3" fill="#4aa3ff"/><circle cx="388.0" cy="70.8" r="3" fill="#4aa3ff"/><circle cx="392.0" cy="70.6" r="3" fill="#4aa3ff"/><circle cx="396.0" cy="70.6" r="3" fill="#4aa3ff"/><circle cx="400.0" cy="70.4" r="3" fill="#4aa3ff"/><circle cx="404.0" cy="68.6" r="3" fill="#4aa3ff"/><circle cx="408.0" cy="60.5" r="3" fill="#4aa3ff"/><circle cx="412.0" cy="59.3" r="3" fill="#4aa3ff"/><circle cx="416.0" cy="52.0" r="3" fill="#4aa3ff"/><circle cx="420.0" cy="47.3" r="3" fill="#4aa3ff"/><circle cx="424.0" cy="40.1" r="3" fill="#4aa3ff"/><circle cx="428.0" cy="36.0" r="3" fill="#4aa3ff"/><circle cx="432.0" cy="36.0" r="3" fill="#4aa3ff"/><circle cx="436.0" cy="36.0" r="3" fill="#4aa3ff"/><circle cx="440.0" cy="36.0" r="3" fill="#4aa3ff"/><circle cx="444.0" cy="36.0" r="3" fill="#4aa3ff"/><circle cx="448.0" cy="36.0" r="3" fill="#4aa3ff"/><circle cx="452.0" cy="36.0" r="3" fill="#4aa3ff"/><circle cx="456.0" cy="36.0" r="3" fill="#4aa3ff"/><circle cx="460.0" cy="36.0" r="3" fill="#4aa3ff"/><circle cx="464.0" cy="36.0" r="3" fill="#4aa3ff"/><circle cx="468.0" cy="36.0" r="3" fill="#4aa3ff"/><circle cx="472.0" cy="36.0" r="3" fill="#4aa3ff"/><circle cx="476.0" cy="36.0" r="3" fill="#4aa3ff"/><circle cx="480.0" cy="36.0" r="3" fill="#4aa3ff"/><circle cx="484.0" cy="36.0" r="3" fill="#4aa3ff"/><circle cx="488.0" cy="36.0" r="3" fill="#4aa3ff"/><circle cx="492.0" cy="36.0" r="3" fill="#4aa3ff"/><circle cx="496.0" cy="36.0" r="3" fill="#4aa3ff"/><circle cx="500.0" cy="36.0" r="3" fill="#4aa3ff"/><circle cx="504.0" cy="36.0" r="3" fill="#4aa3ff"/><circle cx="508.0" cy="36.0" r="3" fill="#4aa3ff"/><circle cx="512.0" cy="36.0" r="3" fill="#4aa3ff"/><circle cx="516.0" cy="36.0" r="3" fill="#4aa3ff"/><circle cx="520.0" cy="36.0" r="3" fill="#4aa3ff"/><circle cx="524.0" cy="36.0" r="3" fill="#4aa3ff"/><circle cx="528.0" cy="36.0" r="3" fill="#4aa3ff"/><circle cx="532.0" cy="36.0" r="3" fill="#4aa3ff"/><circle cx="536.0" cy="36.0" r="3" fill="#4aa3ff"/><circle cx="540.0" cy="36.0" r="3" fill="#4aa3ff"/><circle cx="544.0" cy="36.0" r="3" fill="#4aa3ff"/><circle cx="548.0" cy="36.0" r="3" fill="#4aa3ff"/><circle cx="552.0" cy="36.0" r="3" fill="#4aa3ff"/><circle cx="556.0" cy="36.0" r="3" fill="#4aa3ff"/><circle cx="560.0" cy="36.0" r="3" fill="#4aa3ff"/><circle cx="564.0" cy="36.0" r="3" fill="#4aa3ff"/><circle cx="568.0" cy="36.0" r="3" fill="#4aa3ff"/><circle cx="572.0" cy="36.0" r="3" fill="#4aa3ff"/><circle cx="576.0" cy="36.0" r="3" fill="#4aa3ff"/><circle cx="580.0" cy="36.0" r="3" fill="#4aa3ff"/><circle cx="584.0" cy="36.0" r="3" fill="#4aa3ff"/><circle cx="588.0" cy="36.0" r="3" fill="#4aa3ff"/><circle cx="592.0" cy="36.0" r="3" fill="#4aa3ff"/><circle cx="596.0" cy="36.0" r="3" fill="#4aa3ff"/><circle cx="600.0" cy="36.0" r="3" fill="#4aa3ff"/><circle cx="604.0" cy="36.0" r="3" fill="#4aa3ff"/><circle cx="608.0" cy="36.0" r="3" fill="#4aa3ff"/><circle cx="612.0" cy="36.0" r="3" fill="#4aa3ff"/><circle cx="616.0" cy="36.0" r="3" fill="#4aa3ff"/><circle cx="620.0" cy="36.0" r="3" fill="#4aa3ff"/><circle cx="624.0" cy="36.0" r="3" fill="#4aa3ff"/><circle cx="628.0" cy="36.0" r="3" fill="#4aa3ff"/><circle cx="632.0" cy="36.0" r="3" fill="#4aa3ff"/><circle cx="636.0" cy="36.0" r="3" fill="#4aa3ff"/><circle cx="640.0" cy="36.0" r="3" fill="#4aa3ff"/><circle cx="644.0" cy="36.0" r="3" fill="#4aa3ff"/><circle cx="648.0" cy="36.0" r="3" fill="#4aa3ff"/><circle cx="652.0" cy="36.0" r="3" fill="#4aa3ff"/><circle cx="656.0" cy="36.0" r="3" fill="#4aa3ff"/><circle cx="660.0" cy="36.0" r="3" fill="#4aa3ff"/><circle cx="664.0" cy="36.0" r="3" fill="#4aa3ff"/>
<text x="36" y="225" fill="#6b7280" font-size="11">2026-06-26</text>
<text x="664" y="225" fill="#6b7280" font-size="11" text-anchor="end">2026-07-13</text>
<text x="36" y="212" font-family="system-ui,sans-serif" font-size="11">
<tspan fill="#4aa3ff">&#9679; open FPs</tspan>  <tspan fill="#3fb950">&#9679; closed (Anthropic acting)</tspan>  <tspan fill="#8a5a5a">&#9679; harness withdrawn</tspan></text>
<text x="664" y="22" text-anchor="end" font-family="system-ui,sans-serif" font-size="12">
<tspan fill="#4aa3ff">open 800</tspan>  <tspan fill="#3fb950">closed 0</tspan>  <tspan fill="#8a5a5a">harness 0</tspan></text>
</svg>