<svg xmlns="http://www.w3.org/2000/svg" width="700" height="234" viewBox="0 0 700 234" role="img">
<rect width="700" height="234" rx="12" fill="#16181d"/>
<text x="36" y="22" fill="#e8eaed" font-family="system-ui,sans-serif" font-size="14" font-weight="700">Is Anthropic acting? cyber/aup false positives over time</text>
<line x1="36" y1="198.0" x2="664" y2="198.0" stroke="#2a2e37" stroke-width="1"/><text x="30" y="202.0" fill="#6b7280" font-size="11" text-anchor="end">0</text><line x1="36" y1="117.0" x2="664" y2="117.0" stroke="#2a2e37" stroke-width="1"/><text x="30" y="121.0" fill="#6b7280" font-size="11" text-anchor="end">400</text><line x1="36" y1="36.0" x2="664" y2="36.0" stroke="#2a2e37" stroke-width="1"/><text x="30" y="40.0" fill="#6b7280" font-size="11" text-anchor="end">800</text>

<polyline fill="none" stroke="#8a5a5a" stroke-width="2.5" stroke-linejoin="round" points="36.0,145.1 42.0,145.1 48.0,145.1 53.9,145.1 59.9,145.1 65.9,145.1 71.9,145.1 77.9,145.1 83.8,145.1 89.8,145.1 95.8,145.1 101.8,145.1 107.8,145.1 113.8,145.1 119.7,145.1 125.7,145.1 131.7,145.1 137.7,145.1 143.7,145.1 149.6,145.1 155.6,145.1 161.6,145.1 167.6,145.1 173.6,145.1 179.5,145.1 185.5,145.1 191.5,145.1 197.5,145.1 203.5,145.1 209.4,145.1 215.4,145.1 221.4,145.1 227.4,145.1 233.4,145.1 239.4,145.1 245.3,145.1 251.3,145.1 257.3,145.1 263.3,145.1 269.3,145.1 275.2,145.1 281.2,145.1 287.2,145.1 293.2,145.1 299.2,145.1 305.1,145.1 311.1,145.1 317.1,145.1 323.1,145.1 329.1,145.1 335.0,155.7 341.0,155.7 347.0,155.7 353.0,155.7 359.0,155.7 365.0,155.7 370.9,155.7 376.9,155.7 382.9,155.7 388.9,155.7 394.9,155.7 400.8,155.7 406.8,155.7 412.8,155.7 418.8,155.7 424.8,155.7 430.7,155.7 436.7,155.7 442.7,155.7 448.7,155.7 454.7,155.7 460.6,155.7 466.6,155.7 472.6,155.7 478.6,155.7 484.6,155.7 490.6,155.7 496.5,155.7 502.5,155.7 508.5,155.7 514.5,155.7 520.5,155.7 526.4,155.7 532.4,155.7 538.4,167.6 544.4,167.6 550.4,170.3 556.3,170.3 562.3,170.5 568.3,170.7 574.3,170.7 580.3,170.9 586.2,172.7 592.2,180.6 598.2,181.8 604.2,189.1 610.2,190.5 616.2,195.2 622.1,198.0 628.1,198.0 634.1,198.0 640.1,198.0 646.1,198.0 652.0,198.0 658.0,198.0 664.0,198.0"/><circle cx="36.0" cy="145.1" r="3" fill="#8a5a5a"/><circle cx="42.0" cy="145.1" r="3" fill="#8a5a5a"/><circle cx="48.0" cy="145.1" r="3" fill="#8a5a5a"/><circle cx="53.9" cy="145.1" r="3" fill="#8a5a5a"/><circle cx="59.9" cy="145.1" r="3" fill="#8a5a5a"/><circle cx="65.9" cy="145.1" r="3" fill="#8a5a5a"/><circle cx="71.9" cy="145.1" r="3" fill="#8a5a5a"/><circle cx="77.9" cy="145.1" r="3" fill="#8a5a5a"/><circle cx="83.8" cy="145.1" r="3" fill="#8a5a5a"/><circle cx="89.8" cy="145.1" r="3" fill="#8a5a5a"/><circle cx="95.8" cy="145.1" r="3" fill="#8a5a5a"/><circle cx="101.8" cy="145.1" r="3" fill="#8a5a5a"/><circle cx="107.8" cy="145.1" r="3" fill="#8a5a5a"/><circle cx="113.8" cy="145.1" r="3" fill="#8a5a5a"/><circle cx="119.7" cy="145.1" r="3" fill="#8a5a5a"/><circle cx="125.7" cy="145.1" r="3" fill="#8a5a5a"/><circle cx="131.7" cy="145.1" r="3" fill="#8a5a5a"/><circle cx="137.7" cy="145.1" r="3" fill="#8a5a5a"/><circle cx="143.7" cy="145.1" r="3" fill="#8a5a5a"/><circle cx="149.6" cy="145.1" r="3" fill="#8a5a5a"/><circle cx="155.6" cy="145.1" r="3" fill="#8a5a5a"/><circle cx="161.6" cy="145.1" r="3" fill="#8a5a5a"/><circle cx="167.6" cy="145.1" r="3" fill="#8a5a5a"/><circle cx="173.6" cy="145.1" r="3" fill="#8a5a5a"/><circle cx="179.5" cy="145.1" r="3" fill="#8a5a5a"/><circle cx="185.5" cy="145.1" r="3" fill="#8a5a5a"/><circle cx="191.5" cy="145.1" r="3" fill="#8a5a5a"/><circle cx="197.5" cy="145.1" r="3" fill="#8a5a5a"/><circle cx="203.5" cy="145.1" r="3" fill="#8a5a5a"/><circle cx="209.4" cy="145.1" r="3" fill="#8a5a5a"/><circle cx="215.4" cy="145.1" r="3" fill="#8a5a5a"/><circle cx="221.4" cy="145.1" r="3" fill="#8a5a5a"/><circle cx="227.4" cy="145.1" r="3" fill="#8a5a5a"/><circle cx="233.4" cy="145.1" r="3" fill="#8a5a5a"/><circle cx="239.4" cy="145.1" r="3" fill="#8a5a5a"/><circle cx="245.3" cy="145.1" r="3" fill="#8a5a5a"/><circle cx="251.3" cy="145.1" r="3" fill="#8a5a5a"/><circle cx="257.3" cy="145.1" r="3" fill="#8a5a5a"/><circle cx="263.3" cy="145.1" r="3" fill="#8a5a5a"/><circle cx="269.3" cy="145.1" r="3" fill="#8a5a5a"/><circle cx="275.2" cy="145.1" r="3" fill="#8a5a5a"/><circle cx="281.2" cy="145.1" r="3" fill="#8a5a5a"/><circle cx="287.2" cy="145.1" r="3" fill="#8a5a5a"/><circle cx="293.2" cy="145.1" r="3" fill="#8a5a5a"/><circle cx="299.2" cy="145.1" r="3" fill="#8a5a5a"/><circle cx="305.1" cy="145.1" r="3" fill="#8a5a5a"/><circle cx="311.1" cy="145.1" r="3" fill="#8a5a5a"/><circle cx="317.1" cy="145.1" r="3" fill="#8a5a5a"/><circle cx="323.1" cy="145.1" r="3" fill="#8a5a5a"/><circle cx="329.1" cy="145.1" r="3" fill="#8a5a5a"/><circle cx="335.0" cy="155.7" r="3" fill="#8a5a5a"/><circle cx="341.0" cy="155.7" r="3" fill="#8a5a5a"/><circle cx="347.0" cy="155.7" r="3" fill="#8a5a5a"/><circle cx="353.0" cy="155.7" r="3" fill="#8a5a5a"/><circle cx="359.0" cy="155.7" r="3" fill="#8a5a5a"/><circle cx="365.0" cy="155.7" r="3" fill="#8a5a5a"/><circle cx="370.9" cy="155.7" r="3" fill="#8a5a5a"/><circle cx="376.9" cy="155.7" r="3" fill="#8a5a5a"/><circle cx="382.9" cy="155.7" r="3" fill="#8a5a5a"/><circle cx="388.9" cy="155.7" r="3" fill="#8a5a5a"/><circle cx="394.9" cy="155.7" r="3" fill="#8a5a5a"/><circle cx="400.8" cy="155.7" r="3" fill="#8a5a5a"/><circle cx="406.8" cy="155.7" r="3" fill="#8a5a5a"/><circle cx="412.8" cy="155.7" r="3" fill="#8a5a5a"/><circle cx="418.8" cy="155.7" r="3" fill="#8a5a5a"/><circle cx="424.8" cy="155.7" r="3" fill="#8a5a5a"/><circle cx="430.7" cy="155.7" r="3" fill="#8a5a5a"/><circle cx="436.7" cy="155.7" r="3" fill="#8a5a5a"/><circle cx="442.7" cy="155.7" r="3" fill="#8a5a5a"/><circle cx="448.7" cy="155.7" r="3" fill="#8a5a5a"/><circle cx="454.7" cy="155.7" r="3" fill="#8a5a5a"/><circle cx="460.6" cy="155.7" r="3" fill="#8a5a5a"/><circle cx="466.6" cy="155.7" r="3" fill="#8a5a5a"/><circle cx="472.6" cy="155.7" r="3" fill="#8a5a5a"/><circle cx="478.6" cy="155.7" r="3" fill="#8a5a5a"/><circle cx="484.6" cy="155.7" r="3" fill="#8a5a5a"/><circle cx="490.6" cy="155.7" r="3" fill="#8a5a5a"/><circle cx="496.5" cy="155.7" r="3" fill="#8a5a5a"/><circle cx="502.5" cy="155.7" r="3" fill="#8a5a5a"/><circle cx="508.5" cy="155.7" r="3" fill="#8a5a5a"/><circle cx="514.5" cy="155.7" r="3" fill="#8a5a5a"/><circle cx="520.5" cy="155.7" r="3" fill="#8a5a5a"/><circle cx="526.4" cy="155.7" r="3" fill="#8a5a5a"/><circle cx="532.4" cy="155.7" r="3" fill="#8a5a5a"/><circle cx="538.4" cy="167.6" r="3" fill="#8a5a5a"/><circle cx="544.4" cy="167.6" r="3" fill="#8a5a5a"/><circle cx="550.4" cy="170.3" r="3" fill="#8a5a5a"/><circle cx="556.3" cy="170.3" r="3" fill="#8a5a5a"/><circle cx="562.3" cy="170.5" r="3" fill="#8a5a5a"/><circle cx="568.3" cy="170.7" r="3" fill="#8a5a5a"/><circle cx="574.3" cy="170.7" r="3" fill="#8a5a5a"/><circle cx="580.3" cy="170.9" r="3" fill="#8a5a5a"/><circle cx="586.2" cy="172.7" r="3" fill="#8a5a5a"/><circle cx="592.2" cy="180.6" r="3" fill="#8a5a5a"/><circle cx="598.2" cy="181.8" r="3" fill="#8a5a5a"/><circle cx="604.2" cy="189.1" r="3" fill="#8a5a5a"/><circle cx="610.2" cy="190.5" r="3" fill="#8a5a5a"/><circle cx="616.2" cy="195.2" r="3" fill="#8a5a5a"/><circle cx="622.1" cy="198.0" r="3" fill="#8a5a5a"/><circle cx="628.1" cy="198.0" r="3" fill="#8a5a5a"/><circle cx="634.1" cy="198.0" r="3" fill="#8a5a5a"/><circle cx="640.1" cy="198.0" r="3" fill="#8a5a5a"/><circle cx="646.1" cy="198.0" r="3" fill="#8a5a5a"/><circle cx="652.0" cy="198.0" r="3" fill="#8a5a5a"/><circle cx="658.0" cy="198.0" r="3" fill="#8a5a5a"/><circle cx="664.0" cy="198.0" r="3" fill="#8a5a5a"/>
<polyline fill="none" stroke="#3fb950" stroke-width="2.5" stroke-linejoin="round" points="36.0,198.0 42.0,198.0 48.0,198.0 53.9,198.0 59.9,198.0 65.9,198.0 71.9,198.0 77.9,198.0 83.8,198.0 89.8,198.0 95.8,198.0 101.8,198.0 107.8,198.0 113.8,198.0 119.7,198.0 125.7,198.0 131.7,198.0 137.7,198.0 143.7,198.0 149.6,198.0 155.6,198.0 161.6,198.0 167.6,198.0 173.6,198.0 179.5,198.0 185.5,198.0 191.5,198.0 197.5,198.0 203.5,198.0 209.4,198.0 215.4,198.0 221.4,198.0 227.4,198.0 233.4,198.0 239.4,198.0 245.3,198.0 251.3,198.0 257.3,198.0 263.3,198.0 269.3,198.0 275.2,198.0 281.2,198.0 287.2,198.0 293.2,191.7 299.2,191.7 305.1,191.7 311.1,191.7 317.1,191.7 323.1,191.7 329.1,191.7 335.0,192.9 341.0,192.9 347.0,190.7 353.0,190.7 359.0,190.7 365.0,190.7 370.9,190.7 376.9,190.5 382.9,190.5 388.9,190.5 394.9,190.3 400.8,190.3 406.8,190.3 412.8,190.3 418.8,190.3 424.8,190.3 430.7,190.3 436.7,190.3 442.7,190.3 448.7,190.3 454.7,190.3 460.6,190.3 466.6,190.3 472.6,190.3 478.6,190.3 484.6,190.3 490.6,190.3 496.5,190.3 502.5,190.3 508.5,190.3 514.5,190.3 520.5,189.3 526.4,189.3 532.4,189.3 538.4,190.7 544.4,190.7 550.4,190.7 556.3,190.7 562.3,190.7 568.3,190.7 574.3,190.7 580.3,190.7 586.2,190.7 592.2,190.9 598.2,190.9 604.2,190.9 610.2,194.2 616.2,196.8 622.1,198.0 628.1,198.0 634.1,198.0 640.1,198.0 646.1,198.0 652.0,198.0 658.0,198.0 664.0,198.0"/><circle cx="36.0" cy="198.0" r="3" fill="#3fb950"/><circle cx="42.0" cy="198.0" r="3" fill="#3fb950"/><circle cx="48.0" cy="198.0" r="3" fill="#3fb950"/><circle cx="53.9" cy="198.0" r="3" fill="#3fb950"/><circle cx="59.9" cy="198.0" r="3" fill="#3fb950"/><circle cx="65.9" cy="198.0" r="3" fill="#3fb950"/><circle cx="71.9" cy="198.0" r="3" fill="#3fb950"/><circle cx="77.9" cy="198.0" r="3" fill="#3fb950"/><circle cx="83.8" cy="198.0" r="3" fill="#3fb950"/><circle cx="89.8" cy="198.0" r="3" fill="#3fb950"/><circle cx="95.8" cy="198.0" r="3" fill="#3fb950"/><circle cx="101.8" cy="198.0" r="3" fill="#3fb950"/><circle cx="107.8" cy="198.0" r="3" fill="#3fb950"/><circle cx="113.8" cy="198.0" r="3" fill="#3fb950"/><circle cx="119.7" cy="198.0" r="3" fill="#3fb950"/><circle cx="125.7" cy="198.0" r="3" fill="#3fb950"/><circle cx="131.7" cy="198.0" r="3" fill="#3fb950"/><circle cx="137.7" cy="198.0" r="3" fill="#3fb950"/><circle cx="143.7" cy="198.0" r="3" fill="#3fb950"/><circle cx="149.6" cy="198.0" r="3" fill="#3fb950"/><circle cx="155.6" cy="198.0" r="3" fill="#3fb950"/><circle cx="161.6" cy="198.0" r="3" fill="#3fb950"/><circle cx="167.6" cy="198.0" r="3" fill="#3fb950"/><circle cx="173.6" cy="198.0" r="3" fill="#3fb950"/><circle cx="179.5" cy="198.0" r="3" fill="#3fb950"/><circle cx="185.5" cy="198.0" r="3" fill="#3fb950"/><circle cx="191.5" cy="198.0" r="3" fill="#3fb950"/><circle cx="197.5" cy="198.0" r="3" fill="#3fb950"/><circle cx="203.5" cy="198.0" r="3" fill="#3fb950"/><circle cx="209.4" cy="198.0" r="3" fill="#3fb950"/><circle cx="215.4" cy="198.0" r="3" fill="#3fb950"/><circle cx="221.4" cy="198.0" r="3" fill="#3fb950"/><circle cx="227.4" cy="198.0" r="3" fill="#3fb950"/><circle cx="233.4" cy="198.0" r="3" fill="#3fb950"/><circle cx="239.4" cy="198.0" r="3" fill="#3fb950"/><circle cx="245.3" cy="198.0" r="3" fill="#3fb950"/><circle cx="251.3" cy="198.0" r="3" fill="#3fb950"/><circle cx="257.3" cy="198.0" r="3" fill="#3fb950"/><circle cx="263.3" cy="198.0" r="3" fill="#3fb950"/><circle cx="269.3" cy="198.0" r="3" fill="#3fb950"/><circle cx="275.2" cy="198.0" r="3" fill="#3fb950"/><circle cx="281.2" cy="198.0" r="3" fill="#3fb950"/><circle cx="287.2" cy="198.0" r="3" fill="#3fb950"/><circle cx="293.2" cy="191.7" r="3" fill="#3fb950"/><circle cx="299.2" cy="191.7" r="3" fill="#3fb950"/><circle cx="305.1" cy="191.7" r="3" fill="#3fb950"/><circle cx="311.1" cy="191.7" r="3" fill="#3fb950"/><circle cx="317.1" cy="191.7" r="3" fill="#3fb950"/><circle cx="323.1" cy="191.7" r="3" fill="#3fb950"/><circle cx="329.1" cy="191.7" r="3" fill="#3fb950"/><circle cx="335.0" cy="192.9" r="3" fill="#3fb950"/><circle cx="341.0" cy="192.9" r="3" fill="#3fb950"/><circle cx="347.0" cy="190.7" r="3" fill="#3fb950"/><circle cx="353.0" cy="190.7" r="3" fill="#3fb950"/><circle cx="359.0" cy="190.7" r="3" fill="#3fb950"/><circle cx="365.0" cy="190.7" r="3" fill="#3fb950"/><circle cx="370.9" cy="190.7" r="3" fill="#3fb950"/><circle cx="376.9" cy="190.5" r="3" fill="#3fb950"/><circle cx="382.9" cy="190.5" r="3" fill="#3fb950"/><circle cx="388.9" cy="190.5" r="3" fill="#3fb950"/><circle cx="394.9" cy="190.3" r="3" fill="#3fb950"/><circle cx="400.8" cy="190.3" r="3" fill="#3fb950"/><circle cx="406.8" cy="190.3" r="3" fill="#3fb950"/><circle cx="412.8" cy="190.3" r="3" fill="#3fb950"/><circle cx="418.8" cy="190.3" r="3" fill="#3fb950"/><circle cx="424.8" cy="190.3" r="3" fill="#3fb950"/><circle cx="430.7" cy="190.3" r="3" fill="#3fb950"/><circle cx="436.7" cy="190.3" r="3" fill="#3fb950"/><circle cx="442.7" cy="190.3" r="3" fill="#3fb950"/><circle cx="448.7" cy="190.3" r="3" fill="#3fb950"/><circle cx="454.7" cy="190.3" r="3" fill="#3fb950"/><circle cx="460.6" cy="190.3" r="3" fill="#3fb950"/><circle cx="466.6" cy="190.3" r="3" fill="#3fb950"/><circle cx="472.6" cy="190.3" r="3" fill="#3fb950"/><circle cx="478.6" cy="190.3" r="3" fill="#3fb950"/><circle cx="484.6" cy="190.3" r="3" fill="#3fb950"/><circle cx="490.6" cy="190.3" r="3" fill="#3fb950"/><circle cx="496.5" cy="190.3" r="3" fill="#3fb950"/><circle cx="502.5" cy="190.3" r="3" fill="#3fb950"/><circle cx="508.5" cy="190.3" r="3" fill="#3fb950"/><circle cx="514.5" cy="190.3" r="3" fill="#3fb950"/><circle cx="520.5" cy="189.3" r="3" fill="#3fb950"/><circle cx="526.4" cy="189.3" r="3" fill="#3fb950"/><circle cx="532.4" cy="189.3" r="3" fill="#3fb950"/><circle cx="538.4" cy="190.7" r="3" fill="#3fb950"/><circle cx="544.4" cy="190.7" r="3" fill="#3fb950"/><circle cx="550.4" cy="190.7" r="3" fill="#3fb950"/><circle cx="556.3" cy="190.7" r="3" fill="#3fb950"/><circle cx="562.3" cy="190.7" r="3" fill="#3fb950"/><circle cx="568.3" cy="190.7" r="3" fill="#3fb950"/><circle cx="574.3" cy="190.7" r="3" fill="#3fb950"/><circle cx="580.3" cy="190.7" r="3" fill="#3fb950"/><circle cx="586.2" cy="190.7" r="3" fill="#3fb950"/><circle cx="592.2" cy="190.9" r="3" fill="#3fb950"/><circle cx="598.2" cy="190.9" r="3" fill="#3fb950"/><circle cx="604.2" cy="190.9" r="3" fill="#3fb950"/><circle cx="610.2" cy="194.2" r="3" fill="#3fb950"/><circle cx="616.2" cy="196.8" r="3" fill="#3fb950"/><circle cx="622.1" cy="198.0" r="3" fill="#3fb950"/><circle cx="628.1" cy="198.0" r="3" fill="#3fb950"/><circle cx="634.1" cy="198.0" r="3" fill="#3fb950"/><circle cx="640.1" cy="198.0" r="3" fill="#3fb950"/><circle cx="646.1" cy="198.0" r="3" fill="#3fb950"/><circle cx="652.0" cy="198.0" r="3" fill="#3fb950"/><circle cx="658.0" cy="198.0" r="3" fill="#3fb950"/><circle cx="664.0" cy="198.0" r="3" fill="#3fb950"/>
<polyline fill="none" stroke="#4aa3ff" stroke-width="2.5" stroke-linejoin="round" points="36.0,144.3 42.0,144.3 48.0,144.3 53.9,144.3 59.9,144.3 65.9,144.3 71.9,144.3 77.9,144.3 83.8,144.3 89.8,144.3 95.8,144.3 101.8,144.3 107.8,144.3 113.8,144.3 119.7,144.3 125.7,136.2 131.7,132.4 137.7,129.6 143.7,129.6 149.6,121.0 155.6,121.0 161.6,121.0 167.6,114.4 173.6,114.4 179.5,114.4 185.5,111.3 191.5,110.9 197.5,110.9 203.5,110.5 209.4,110.5 215.4,109.9 221.4,108.7 227.4,107.3 233.4,106.9 239.4,106.9 245.3,106.9 251.3,106.9 257.3,106.9 263.3,106.9 269.3,106.9 275.2,106.9 281.2,106.9 287.2,106.9 293.2,113.2 299.2,113.2 305.1,113.2 311.1,113.2 317.1,113.2 323.1,110.7 329.1,105.3 335.0,83.4 341.0,83.4 347.0,85.6 353.0,85.6 359.0,85.6 365.0,85.6 370.9,85.6 376.9,85.8 382.9,85.8 388.9,85.8 394.9,86.0 400.8,86.0 406.8,86.0 412.8,86.0 418.8,86.0 424.8,86.0 430.7,86.0 436.7,86.0 442.7,86.0 448.7,86.0 454.7,86.0 460.6,86.0 466.6,86.0 472.6,86.0 478.6,86.0 484.6,86.0 490.6,86.0 496.5,86.0 502.5,86.0 508.5,86.0 514.5,86.0 520.5,87.0 526.4,87.0 532.4,87.0 538.4,73.7 544.4,73.7 550.4,71.0 556.3,71.0 562.3,70.8 568.3,70.6 574.3,70.6 580.3,70.4 586.2,68.6 592.2,60.5 598.2,59.3 604.2,52.0 610.2,47.3 616.2,40.1 622.1,36.0 628.1,36.0 634.1,36.0 640.1,36.0 646.1,36.0 652.0,36.0 658.0,36.0 664.0,36.0"/><circle cx="36.0" cy="144.3" r="3" fill="#4aa3ff"/><circle cx="42.0" cy="144.3" r="3" fill="#4aa3ff"/><circle cx="48.0" cy="144.3" r="3" fill="#4aa3ff"/><circle cx="53.9" cy="144.3" r="3" fill="#4aa3ff"/><circle cx="59.9" cy="144.3" r="3" fill="#4aa3ff"/><circle cx="65.9" cy="144.3" r="3" fill="#4aa3ff"/><circle cx="71.9" cy="144.3" r="3" fill="#4aa3ff"/><circle cx="77.9" cy="144.3" r="3" fill="#4aa3ff"/><circle cx="83.8" cy="144.3" r="3" fill="#4aa3ff"/><circle cx="89.8" cy="144.3" r="3" fill="#4aa3ff"/><circle cx="95.8" cy="144.3" r="3" fill="#4aa3ff"/><circle cx="101.8" cy="144.3" r="3" fill="#4aa3ff"/><circle cx="107.8" cy="144.3" r="3" fill="#4aa3ff"/><circle cx="113.8" cy="144.3" r="3" fill="#4aa3ff"/><circle cx="119.7" cy="144.3" r="3" fill="#4aa3ff"/><circle cx="125.7" cy="136.2" r="3" fill="#4aa3ff"/><circle cx="131.7" cy="132.4" r="3" fill="#4aa3ff"/><circle cx="137.7" cy="129.6" r="3" fill="#4aa3ff"/><circle cx="143.7" cy="129.6" r="3" fill="#4aa3ff"/><circle cx="149.6" cy="121.0" r="3" fill="#4aa3ff"/><circle cx="155.6" cy="121.0" r="3" fill="#4aa3ff"/><circle cx="161.6" cy="121.0" r="3" fill="#4aa3ff"/><circle cx="167.6" cy="114.4" r="3" fill="#4aa3ff"/><circle cx="173.6" cy="114.4" r="3" fill="#4aa3ff"/><circle cx="179.5" cy="114.4" r="3" fill="#4aa3ff"/><circle cx="185.5" cy="111.3" r="3" fill="#4aa3ff"/><circle cx="191.5" cy="110.9" r="3" fill="#4aa3ff"/><circle cx="197.5" cy="110.9" r="3" fill="#4aa3ff"/><circle cx="203.5" cy="110.5" r="3" fill="#4aa3ff"/><circle cx="209.4" cy="110.5" r="3" fill="#4aa3ff"/><circle cx="215.4" cy="109.9" r="3" fill="#4aa3ff"/><circle cx="221.4" cy="108.7" r="3" fill="#4aa3ff"/><circle cx="227.4" cy="107.3" r="3" fill="#4aa3ff"/><circle cx="233.4" cy="106.9" r="3" fill="#4aa3ff"/><circle cx="239.4" cy="106.9" r="3" fill="#4aa3ff"/><circle cx="245.3" cy="106.9" r="3" fill="#4aa3ff"/><circle cx="251.3" cy="106.9" r="3" fill="#4aa3ff"/><circle cx="257.3" cy="106.9" r="3" fill="#4aa3ff"/><circle cx="263.3" cy="106.9" r="3" fill="#4aa3ff"/><circle cx="269.3" cy="106.9" r="3" fill="#4aa3ff"/><circle cx="275.2" cy="106.9" r="3" fill="#4aa3ff"/><circle cx="281.2" cy="106.9" r="3" fill="#4aa3ff"/><circle cx="287.2" cy="106.9" r="3" fill="#4aa3ff"/><circle cx="293.2" cy="113.2" r="3" fill="#4aa3ff"/><circle cx="299.2" cy="113.2" r="3" fill="#4aa3ff"/><circle cx="305.1" cy="113.2" r="3" fill="#4aa3ff"/><circle cx="311.1" cy="113.2" r="3" fill="#4aa3ff"/><circle cx="317.1" cy="113.2" r="3" fill="#4aa3ff"/><circle cx="323.1" cy="110.7" r="3" fill="#4aa3ff"/><circle cx="329.1" cy="105.3" r="3" fill="#4aa3ff"/><circle cx="335.0" cy="83.4" r="3" fill="#4aa3ff"/><circle cx="341.0" cy="83.4" r="3" fill="#4aa3ff"/><circle cx="347.0" cy="85.6" r="3" fill="#4aa3ff"/><circle cx="353.0" cy="85.6" r="3" fill="#4aa3ff"/><circle cx="359.0" cy="85.6" r="3" fill="#4aa3ff"/><circle cx="365.0" cy="85.6" r="3" fill="#4aa3ff"/><circle cx="370.9" cy="85.6" r="3" fill="#4aa3ff"/><circle cx="376.9" cy="85.8" r="3" fill="#4aa3ff"/><circle cx="382.9" cy="85.8" r="3" fill="#4aa3ff"/><circle cx="388.9" cy="85.8" r="3" fill="#4aa3ff"/><circle cx="394.9" cy="86.0" r="3" fill="#4aa3ff"/><circle cx="400.8" cy="86.0" r="3" fill="#4aa3ff"/><circle cx="406.8" cy="86.0" r="3" fill="#4aa3ff"/><circle cx="412.8" cy="86.0" r="3" fill="#4aa3ff"/><circle cx="418.8" cy="86.0" r="3" fill="#4aa3ff"/><circle cx="424.8" cy="86.0" r="3" fill="#4aa3ff"/><circle cx="430.7" cy="86.0" r="3" fill="#4aa3ff"/><circle cx="436.7" cy="86.0" r="3" fill="#4aa3ff"/><circle cx="442.7" cy="86.0" r="3" fill="#4aa3ff"/><circle cx="448.7" cy="86.0" r="3" fill="#4aa3ff"/><circle cx="454.7" cy="86.0" r="3" fill="#4aa3ff"/><circle cx="460.6" cy="86.0" r="3" fill="#4aa3ff"/><circle cx="466.6" cy="86.0" r="3" fill="#4aa3ff"/><circle cx="472.6" cy="86.0" r="3" fill="#4aa3ff"/><circle cx="478.6" cy="86.0" r="3" fill="#4aa3ff"/><circle cx="484.6" cy="86.0" r="3" fill="#4aa3ff"/><circle cx="490.6" cy="86.0" r="3" fill="#4aa3ff"/><circle cx="496.5" cy="86.0" r="3" fill="#4aa3ff"/><circle cx="502.5" cy="86.0" r="3" fill="#4aa3ff"/><circle cx="508.5" cy="86.0" r="3" fill="#4aa3ff"/><circle cx="514.5" cy="86.0" r="3" fill="#4aa3ff"/><circle cx="520.5" cy="87.0" r="3" fill="#4aa3ff"/><circle cx="526.4" cy="87.0" r="3" fill="#4aa3ff"/><circle cx="532.4" cy="87.0" r="3" fill="#4aa3ff"/><circle cx="538.4" cy="73.7" r="3" fill="#4aa3ff"/><circle cx="544.4" cy="73.7" r="3" fill="#4aa3ff"/><circle cx="550.4" cy="71.0" r="3" fill="#4aa3ff"/><circle cx="556.3" cy="71.0" r="3" fill="#4aa3ff"/><circle cx="562.3" cy="70.8" r="3" fill="#4aa3ff"/><circle cx="568.3" cy="70.6" r="3" fill="#4aa3ff"/><circle cx="574.3" cy="70.6" r="3" fill="#4aa3ff"/><circle cx="580.3" cy="70.4" r="3" fill="#4aa3ff"/><circle cx="586.2" cy="68.6" r="3" fill="#4aa3ff"/><circle cx="592.2" cy="60.5" r="3" fill="#4aa3ff"/><circle cx="598.2" cy="59.3" r="3" fill="#4aa3ff"/><circle cx="604.2" cy="52.0" r="3" fill="#4aa3ff"/><circle cx="610.2" cy="47.3" r="3" fill="#4aa3ff"/><circle cx="616.2" cy="40.1" r="3" fill="#4aa3ff"/><circle cx="622.1" cy="36.0" r="3" fill="#4aa3ff"/><circle cx="628.1" cy="36.0" r="3" fill="#4aa3ff"/><circle cx="634.1" cy="36.0" r="3" fill="#4aa3ff"/><circle cx="640.1" cy="36.0" r="3" fill="#4aa3ff"/><circle cx="646.1" cy="36.0" r="3" fill="#4aa3ff"/><circle cx="652.0" cy="36.0" r="3" fill="#4aa3ff"/><circle cx="658.0" cy="36.0" r="3" fill="#4aa3ff"/><circle cx="664.0" cy="36.0" r="3" fill="#4aa3ff"/>
<text x="36" y="225" fill="#6b7280" font-size="11">2026-06-26</text>
<text x="664" y="225" fill="#6b7280" font-size="11" text-anchor="end">2026-07-08</text>
<text x="36" y="212" font-family="system-ui,sans-serif" font-size="11">
<tspan fill="#4aa3ff">&#9679; open FPs</tspan>  <tspan fill="#3fb950">&#9679; closed (Anthropic acting)</tspan>  <tspan fill="#8a5a5a">&#9679; harness withdrawn</tspan></text>
<text x="664" y="22" text-anchor="end" font-family="system-ui,sans-serif" font-size="12">
<tspan fill="#4aa3ff">open 800</tspan>  <tspan fill="#3fb950">closed 0</tspan>  <tspan fill="#8a5a5a">harness 0</tspan></text>
</svg>