<svg xmlns="http://www.w3.org/2000/svg" width="700" height="234" viewBox="0 0 700 234" role="img">
<rect width="700" height="234" rx="12" fill="#16181d"/>
<text x="36" y="22" fill="#e8eaed" font-family="system-ui,sans-serif" font-size="14" font-weight="700">Is Anthropic acting? cyber/aup false positives over time</text>
<line x1="36" y1="198.0" x2="664" y2="198.0" stroke="#2a2e37" stroke-width="1"/><text x="30" y="202.0" fill="#6b7280" font-size="11" text-anchor="end">0</text><line x1="36" y1="117.0" x2="664" y2="117.0" stroke="#2a2e37" stroke-width="1"/><text x="30" y="121.0" fill="#6b7280" font-size="11" text-anchor="end">400</text><line x1="36" y1="36.0" x2="664" y2="36.0" stroke="#2a2e37" stroke-width="1"/><text x="30" y="40.0" fill="#6b7280" font-size="11" text-anchor="end">800</text>

<polyline fill="none" stroke="#8a5a5a" stroke-width="2.5" stroke-linejoin="round" points="36.0,145.1 38.5,145.1 41.1,145.1 43.6,145.1 46.1,145.1 48.7,145.1 51.2,145.1 53.7,145.1 56.3,145.1 58.8,145.1 61.3,145.1 63.9,145.1 66.4,145.1 68.9,145.1 71.5,145.1 74.0,145.1 76.5,145.1 79.0,145.1 81.6,145.1 84.1,145.1 86.6,145.1 89.2,145.1 91.7,145.1 94.2,145.1 96.8,145.1 99.3,145.1 101.8,145.1 104.4,145.1 106.9,145.1 109.4,145.1 112.0,145.1 114.5,145.1 117.0,145.1 119.6,145.1 122.1,145.1 124.6,145.1 127.2,145.1 129.7,145.1 132.2,145.1 134.8,145.1 137.3,145.1 139.8,145.1 142.4,145.1 144.9,145.1 147.4,145.1 150.0,145.1 152.5,145.1 155.0,145.1 157.5,145.1 160.1,145.1 162.6,155.7 165.1,155.7 167.7,155.7 170.2,155.7 172.7,155.7 175.3,155.7 177.8,155.7 180.3,155.7 182.9,155.7 185.4,155.7 187.9,155.7 190.5,155.7 193.0,155.7 195.5,155.7 198.1,155.7 200.6,155.7 203.1,155.7 205.7,155.7 208.2,155.7 210.7,155.7 213.3,155.7 215.8,155.7 218.3,155.7 220.9,155.7 223.4,155.7 225.9,155.7 228.5,155.7 231.0,155.7 233.5,155.7 236.0,155.7 238.6,155.7 241.1,155.7 243.6,155.7 246.2,155.7 248.7,167.6 251.2,167.6 253.8,170.3 256.3,170.3 258.8,170.5 261.4,170.7 263.9,170.7 266.4,170.9 269.0,172.7 271.5,180.6 274.0,181.8 276.6,189.1 279.1,190.5 281.6,195.2 284.2,198.0 286.7,198.0 289.2,198.0 291.8,198.0 294.3,198.0 296.8,198.0 299.4,198.0 301.9,198.0 304.4,198.0 307.0,198.0 309.5,198.0 312.0,198.0 314.5,198.0 317.1,198.0 319.6,198.0 322.1,198.0 324.7,198.0 327.2,198.0 329.7,198.0 332.3,198.0 334.8,198.0 337.3,198.0 339.9,198.0 342.4,198.0 344.9,198.0 347.5,198.0 350.0,198.0 352.5,198.0 355.1,198.0 357.6,198.0 360.1,198.0 362.7,198.0 365.2,198.0 367.7,198.0 370.3,198.0 372.8,198.0 375.3,198.0 377.9,198.0 380.4,198.0 382.9,198.0 385.5,198.0 388.0,198.0 390.5,198.0 393.0,198.0 395.6,198.0 398.1,198.0 400.6,198.0 403.2,198.0 405.7,198.0 408.2,198.0 410.8,198.0 413.3,198.0 415.8,198.0 418.4,198.0 420.9,198.0 423.4,198.0 426.0,198.0 428.5,198.0 431.0,198.0 433.6,198.0 436.1,198.0 438.6,198.0 441.2,198.0 443.7,198.0 446.2,198.0 448.8,198.0 451.3,198.0 453.8,198.0 456.4,198.0 458.9,198.0 461.4,198.0 464.0,198.0 466.5,198.0 469.0,198.0 471.5,198.0 474.1,198.0 476.6,198.0 479.1,198.0 481.7,198.0 484.2,198.0 486.7,198.0 489.3,198.0 491.8,198.0 494.3,198.0 496.9,198.0 499.4,198.0 501.9,198.0 504.5,198.0 507.0,198.0 509.5,198.0 512.1,198.0 514.6,198.0 517.1,198.0 519.7,198.0 522.2,198.0 524.7,198.0 527.3,198.0 529.8,198.0 532.3,198.0 534.9,198.0 537.4,198.0 539.9,198.0 542.5,198.0 545.0,198.0 547.5,198.0 550.0,198.0 552.6,198.0 555.1,198.0 557.6,198.0 560.2,198.0 562.7,198.0 565.2,198.0 567.8,198.0 570.3,198.0 572.8,198.0 575.4,198.0 577.9,198.0 580.4,198.0 583.0,198.0 585.5,198.0 588.0,198.0 590.6,198.0 593.1,198.0 595.6,198.0 598.2,198.0 600.7,198.0 603.2,198.0 605.8,198.0 608.3,198.0 610.8,198.0 613.4,198.0 615.9,198.0 618.4,198.0 621.0,198.0 623.5,198.0 626.0,198.0 628.5,198.0 631.1,198.0 633.6,198.0 636.1,198.0 638.7,198.0 641.2,198.0 643.7,198.0 646.3,198.0 648.8,198.0 651.3,198.0 653.9,198.0 656.4,198.0 658.9,198.0 661.5,198.0 664.0,198.0"/><circle cx="36.0" cy="145.1" r="3" fill="#8a5a5a"/><circle cx="38.5" cy="145.1" r="3" fill="#8a5a5a"/><circle cx="41.1" cy="145.1" r="3" fill="#8a5a5a"/><circle cx="43.6" cy="145.1" r="3" fill="#8a5a5a"/><circle cx="46.1" cy="145.1" r="3" fill="#8a5a5a"/><circle cx="48.7" cy="145.1" r="3" fill="#8a5a5a"/><circle cx="51.2" cy="145.1" r="3" fill="#8a5a5a"/><circle cx="53.7" cy="145.1" r="3" fill="#8a5a5a"/><circle cx="56.3" cy="145.1" r="3" fill="#8a5a5a"/><circle cx="58.8" cy="145.1" r="3" fill="#8a5a5a"/><circle cx="61.3" cy="145.1" r="3" fill="#8a5a5a"/><circle cx="63.9" cy="145.1" r="3" fill="#8a5a5a"/><circle cx="66.4" cy="145.1" r="3" fill="#8a5a5a"/><circle cx="68.9" cy="145.1" r="3" fill="#8a5a5a"/><circle cx="71.5" cy="145.1" r="3" fill="#8a5a5a"/><circle cx="74.0" cy="145.1" r="3" fill="#8a5a5a"/><circle cx="76.5" cy="145.1" r="3" fill="#8a5a5a"/><circle cx="79.0" cy="145.1" r="3" fill="#8a5a5a"/><circle cx="81.6" cy="145.1" r="3" fill="#8a5a5a"/><circle cx="84.1" cy="145.1" r="3" fill="#8a5a5a"/><circle cx="86.6" cy="145.1" r="3" fill="#8a5a5a"/><circle cx="89.2" cy="145.1" r="3" fill="#8a5a5a"/><circle cx="91.7" cy="145.1" r="3" fill="#8a5a5a"/><circle cx="94.2" cy="145.1" r="3" fill="#8a5a5a"/><circle cx="96.8" cy="145.1" r="3" fill="#8a5a5a"/><circle cx="99.3" cy="145.1" r="3" fill="#8a5a5a"/><circle cx="101.8" cy="145.1" r="3" fill="#8a5a5a"/><circle cx="104.4" cy="145.1" r="3" fill="#8a5a5a"/><circle cx="106.9" cy="145.1" r="3" fill="#8a5a5a"/><circle cx="109.4" cy="145.1" r="3" fill="#8a5a5a"/><circle cx="112.0" cy="145.1" r="3" fill="#8a5a5a"/><circle cx="114.5" cy="145.1" r="3" fill="#8a5a5a"/><circle cx="117.0" cy="145.1" r="3" fill="#8a5a5a"/><circle cx="119.6" cy="145.1" r="3" fill="#8a5a5a"/><circle cx="122.1" cy="145.1" r="3" fill="#8a5a5a"/><circle cx="124.6" cy="145.1" r="3" fill="#8a5a5a"/><circle cx="127.2" cy="145.1" r="3" fill="#8a5a5a"/><circle cx="129.7" cy="145.1" r="3" fill="#8a5a5a"/><circle cx="132.2" cy="145.1" r="3" fill="#8a5a5a"/><circle cx="134.8" cy="145.1" r="3" fill="#8a5a5a"/><circle cx="137.3" cy="145.1" r="3" fill="#8a5a5a"/><circle cx="139.8" cy="145.1" r="3" fill="#8a5a5a"/><circle cx="142.4" cy="145.1" r="3" fill="#8a5a5a"/><circle cx="144.9" cy="145.1" r="3" fill="#8a5a5a"/><circle cx="147.4" cy="145.1" r="3" fill="#8a5a5a"/><circle cx="150.0" cy="145.1" r="3" fill="#8a5a5a"/><circle cx="152.5" cy="145.1" r="3" fill="#8a5a5a"/><circle cx="155.0" cy="145.1" r="3" fill="#8a5a5a"/><circle cx="157.5" cy="145.1" r="3" fill="#8a5a5a"/><circle cx="160.1" cy="145.1" r="3" fill="#8a5a5a"/><circle cx="162.6" cy="155.7" r="3" fill="#8a5a5a"/><circle cx="165.1" cy="155.7" r="3" fill="#8a5a5a"/><circle cx="167.7" cy="155.7" r="3" fill="#8a5a5a"/><circle cx="170.2" cy="155.7" r="3" fill="#8a5a5a"/><circle cx="172.7" cy="155.7" r="3" fill="#8a5a5a"/><circle cx="175.3" cy="155.7" r="3" fill="#8a5a5a"/><circle cx="177.8" cy="155.7" r="3" fill="#8a5a5a"/><circle cx="180.3" cy="155.7" r="3" fill="#8a5a5a"/><circle cx="182.9" cy="155.7" r="3" fill="#8a5a5a"/><circle cx="185.4" cy="155.7" r="3" fill="#8a5a5a"/><circle cx="187.9" cy="155.7" r="3" fill="#8a5a5a"/><circle cx="190.5" cy="155.7" r="3" fill="#8a5a5a"/><circle cx="193.0" cy="155.7" r="3" fill="#8a5a5a"/><circle cx="195.5" cy="155.7" r="3" fill="#8a5a5a"/><circle cx="198.1" cy="155.7" r="3" fill="#8a5a5a"/><circle cx="200.6" cy="155.7" r="3" fill="#8a5a5a"/><circle cx="203.1" cy="155.7" r="3" fill="#8a5a5a"/><circle cx="205.7" cy="155.7" r="3" fill="#8a5a5a"/><circle cx="208.2" cy="155.7" r="3" fill="#8a5a5a"/><circle cx="210.7" cy="155.7" r="3" fill="#8a5a5a"/><circle cx="213.3" cy="155.7" r="3" fill="#8a5a5a"/><circle cx="215.8" cy="155.7" r="3" fill="#8a5a5a"/><circle cx="218.3" cy="155.7" r="3" fill="#8a5a5a"/><circle cx="220.9" cy="155.7" r="3" fill="#8a5a5a"/><circle cx="223.4" cy="155.7" r="3" fill="#8a5a5a"/><circle cx="225.9" cy="155.7" r="3" fill="#8a5a5a"/><circle cx="228.5" cy="155.7" r="3" fill="#8a5a5a"/><circle cx="231.0" cy="155.7" r="3" fill="#8a5a5a"/><circle cx="233.5" cy="155.7" r="3" fill="#8a5a5a"/><circle cx="236.0" cy="155.7" r="3" fill="#8a5a5a"/><circle cx="238.6" cy="155.7" r="3" fill="#8a5a5a"/><circle cx="241.1" cy="155.7" r="3" fill="#8a5a5a"/><circle cx="243.6" cy="155.7" r="3" fill="#8a5a5a"/><circle cx="246.2" cy="155.7" r="3" fill="#8a5a5a"/><circle cx="248.7" cy="167.6" r="3" fill="#8a5a5a"/><circle cx="251.2" cy="167.6" r="3" fill="#8a5a5a"/><circle cx="253.8" cy="170.3" r="3" fill="#8a5a5a"/><circle cx="256.3" cy="170.3" r="3" fill="#8a5a5a"/><circle cx="258.8" cy="170.5" r="3" fill="#8a5a5a"/><circle cx="261.4" cy="170.7" r="3" fill="#8a5a5a"/><circle cx="263.9" cy="170.7" r="3" fill="#8a5a5a"/><circle cx="266.4" cy="170.9" r="3" fill="#8a5a5a"/><circle cx="269.0" cy="172.7" r="3" fill="#8a5a5a"/><circle cx="271.5" cy="180.6" r="3" fill="#8a5a5a"/><circle cx="274.0" cy="181.8" r="3" fill="#8a5a5a"/><circle cx="276.6" cy="189.1" r="3" fill="#8a5a5a"/><circle cx="279.1" cy="190.5" r="3" fill="#8a5a5a"/><circle cx="281.6" cy="195.2" r="3" fill="#8a5a5a"/><circle cx="284.2" cy="198.0" r="3" fill="#8a5a5a"/><circle cx="286.7" cy="198.0" r="3" fill="#8a5a5a"/><circle cx="289.2" cy="198.0" r="3" fill="#8a5a5a"/><circle cx="291.8" cy="198.0" r="3" fill="#8a5a5a"/><circle cx="294.3" cy="198.0" r="3" fill="#8a5a5a"/><circle cx="296.8" cy="198.0" r="3" fill="#8a5a5a"/><circle cx="299.4" cy="198.0" r="3" fill="#8a5a5a"/><circle cx="301.9" cy="198.0" r="3" fill="#8a5a5a"/><circle cx="304.4" cy="198.0" r="3" fill="#8a5a5a"/><circle cx="307.0" cy="198.0" r="3" fill="#8a5a5a"/><circle cx="309.5" cy="198.0" r="3" fill="#8a5a5a"/><circle cx="312.0" cy="198.0" r="3" fill="#8a5a5a"/><circle cx="314.5" cy="198.0" r="3" fill="#8a5a5a"/><circle cx="317.1" cy="198.0" r="3" fill="#8a5a5a"/><circle cx="319.6" cy="198.0" r="3" fill="#8a5a5a"/><circle cx="322.1" cy="198.0" r="3" fill="#8a5a5a"/><circle cx="324.7" cy="198.0" r="3" fill="#8a5a5a"/><circle cx="327.2" cy="198.0" r="3" fill="#8a5a5a"/><circle cx="329.7" cy="198.0" r="3" fill="#8a5a5a"/><circle cx="332.3" cy="198.0" r="3" fill="#8a5a5a"/><circle cx="334.8" cy="198.0" r="3" fill="#8a5a5a"/><circle cx="337.3" cy="198.0" r="3" fill="#8a5a5a"/><circle cx="339.9" cy="198.0" r="3" fill="#8a5a5a"/><circle cx="342.4" cy="198.0" r="3" fill="#8a5a5a"/><circle cx="344.9" cy="198.0" r="3" fill="#8a5a5a"/><circle cx="347.5" cy="198.0" r="3" fill="#8a5a5a"/><circle cx="350.0" cy="198.0" r="3" fill="#8a5a5a"/><circle cx="352.5" cy="198.0" r="3" fill="#8a5a5a"/><circle cx="355.1" cy="198.0" r="3" fill="#8a5a5a"/><circle cx="357.6" cy="198.0" r="3" fill="#8a5a5a"/><circle cx="360.1" cy="198.0" r="3" fill="#8a5a5a"/><circle cx="362.7" cy="198.0" r="3" fill="#8a5a5a"/><circle cx="365.2" cy="198.0" r="3" fill="#8a5a5a"/><circle cx="367.7" cy="198.0" r="3" fill="#8a5a5a"/><circle cx="370.3" cy="198.0" r="3" fill="#8a5a5a"/><circle cx="372.8" cy="198.0" r="3" fill="#8a5a5a"/><circle cx="375.3" cy="198.0" r="3" fill="#8a5a5a"/><circle cx="377.9" cy="198.0" r="3" fill="#8a5a5a"/><circle cx="380.4" cy="198.0" r="3" fill="#8a5a5a"/><circle cx="382.9" cy="198.0" r="3" fill="#8a5a5a"/><circle cx="385.5" cy="198.0" r="3" fill="#8a5a5a"/><circle cx="388.0" cy="198.0" r="3" fill="#8a5a5a"/><circle cx="390.5" cy="198.0" r="3" fill="#8a5a5a"/><circle cx="393.0" cy="198.0" r="3" fill="#8a5a5a"/><circle cx="395.6" cy="198.0" r="3" fill="#8a5a5a"/><circle cx="398.1" cy="198.0" r="3" fill="#8a5a5a"/><circle cx="400.6" cy="198.0" r="3" fill="#8a5a5a"/><circle cx="403.2" cy="198.0" r="3" fill="#8a5a5a"/><circle cx="405.7" cy="198.0" r="3" fill="#8a5a5a"/><circle cx="408.2" cy="198.0" r="3" fill="#8a5a5a"/><circle cx="410.8" cy="198.0" r="3" fill="#8a5a5a"/><circle cx="413.3" cy="198.0" r="3" fill="#8a5a5a"/><circle cx="415.8" cy="198.0" r="3" fill="#8a5a5a"/><circle cx="418.4" cy="198.0" r="3" fill="#8a5a5a"/><circle cx="420.9" cy="198.0" r="3" fill="#8a5a5a"/><circle cx="423.4" cy="198.0" r="3" fill="#8a5a5a"/><circle cx="426.0" cy="198.0" r="3" fill="#8a5a5a"/><circle cx="428.5" cy="198.0" r="3" fill="#8a5a5a"/><circle cx="431.0" cy="198.0" r="3" fill="#8a5a5a"/><circle cx="433.6" cy="198.0" r="3" fill="#8a5a5a"/><circle cx="436.1" cy="198.0" r="3" fill="#8a5a5a"/><circle cx="438.6" cy="198.0" r="3" fill="#8a5a5a"/><circle cx="441.2" cy="198.0" r="3" fill="#8a5a5a"/><circle cx="443.7" cy="198.0" r="3" fill="#8a5a5a"/><circle cx="446.2" cy="198.0" r="3" fill="#8a5a5a"/><circle cx="448.8" cy="198.0" r="3" fill="#8a5a5a"/><circle cx="451.3" cy="198.0" r="3" fill="#8a5a5a"/><circle cx="453.8" cy="198.0" r="3" fill="#8a5a5a"/><circle cx="456.4" cy="198.0" r="3" fill="#8a5a5a"/><circle cx="458.9" cy="198.0" r="3" fill="#8a5a5a"/><circle cx="461.4" cy="198.0" r="3" fill="#8a5a5a"/><circle cx="464.0" cy="198.0" r="3" fill="#8a5a5a"/><circle cx="466.5" cy="198.0" r="3" fill="#8a5a5a"/><circle cx="469.0" cy="198.0" r="3" fill="#8a5a5a"/><circle cx="471.5" cy="198.0" r="3" fill="#8a5a5a"/><circle cx="474.1" cy="198.0" r="3" fill="#8a5a5a"/><circle cx="476.6" cy="198.0" r="3" fill="#8a5a5a"/><circle cx="479.1" cy="198.0" r="3" fill="#8a5a5a"/><circle cx="481.7" cy="198.0" r="3" fill="#8a5a5a"/><circle cx="484.2" cy="198.0" r="3" fill="#8a5a5a"/><circle cx="486.7" cy="198.0" r="3" fill="#8a5a5a"/><circle cx="489.3" cy="198.0" r="3" fill="#8a5a5a"/><circle cx="491.8" cy="198.0" r="3" fill="#8a5a5a"/><circle cx="494.3" cy="198.0" r="3" fill="#8a5a5a"/><circle cx="496.9" cy="198.0" r="3" fill="#8a5a5a"/><circle cx="499.4" cy="198.0" r="3" fill="#8a5a5a"/><circle cx="501.9" cy="198.0" r="3" fill="#8a5a5a"/><circle cx="504.5" cy="198.0" r="3" fill="#8a5a5a"/><circle cx="507.0" cy="198.0" r="3" fill="#8a5a5a"/><circle cx="509.5" cy="198.0" r="3" fill="#8a5a5a"/><circle cx="512.1" cy="198.0" r="3" fill="#8a5a5a"/><circle cx="514.6" cy="198.0" r="3" fill="#8a5a5a"/><circle cx="517.1" cy="198.0" r="3" fill="#8a5a5a"/><circle cx="519.7" cy="198.0" r="3" fill="#8a5a5a"/><circle cx="522.2" cy="198.0" r="3" fill="#8a5a5a"/><circle cx="524.7" cy="198.0" r="3" fill="#8a5a5a"/><circle cx="527.3" cy="198.0" r="3" fill="#8a5a5a"/><circle cx="529.8" cy="198.0" r="3" fill="#8a5a5a"/><circle cx="532.3" cy="198.0" r="3" fill="#8a5a5a"/><circle cx="534.9" cy="198.0" r="3" fill="#8a5a5a"/><circle cx="537.4" cy="198.0" r="3" fill="#8a5a5a"/><circle cx="539.9" cy="198.0" r="3" fill="#8a5a5a"/><circle cx="542.5" cy="198.0" r="3" fill="#8a5a5a"/><circle cx="545.0" cy="198.0" r="3" fill="#8a5a5a"/><circle cx="547.5" cy="198.0" r="3" fill="#8a5a5a"/><circle cx="550.0" cy="198.0" r="3" fill="#8a5a5a"/><circle cx="552.6" cy="198.0" r="3" fill="#8a5a5a"/><circle cx="555.1" cy="198.0" r="3" fill="#8a5a5a"/><circle cx="557.6" cy="198.0" r="3" fill="#8a5a5a"/><circle cx="560.2" cy="198.0" r="3" fill="#8a5a5a"/><circle cx="562.7" cy="198.0" r="3" fill="#8a5a5a"/><circle cx="565.2" cy="198.0" r="3" fill="#8a5a5a"/><circle cx="567.8" cy="198.0" r="3" fill="#8a5a5a"/><circle cx="570.3" cy="198.0" r="3" fill="#8a5a5a"/><circle cx="572.8" cy="198.0" r="3" fill="#8a5a5a"/><circle cx="575.4" cy="198.0" r="3" fill="#8a5a5a"/><circle cx="577.9" cy="198.0" r="3" fill="#8a5a5a"/><circle cx="580.4" cy="198.0" r="3" fill="#8a5a5a"/><circle cx="583.0" cy="198.0" r="3" fill="#8a5a5a"/><circle cx="585.5" cy="198.0" r="3" fill="#8a5a5a"/><circle cx="588.0" cy="198.0" r="3" fill="#8a5a5a"/><circle cx="590.6" cy="198.0" r="3" fill="#8a5a5a"/><circle cx="593.1" cy="198.0" r="3" fill="#8a5a5a"/><circle cx="595.6" cy="198.0" r="3" fill="#8a5a5a"/><circle cx="598.2" cy="198.0" r="3" fill="#8a5a5a"/><circle cx="600.7" cy="198.0" r="3" fill="#8a5a5a"/><circle cx="603.2" cy="198.0" r="3" fill="#8a5a5a"/><circle cx="605.8" cy="198.0" r="3" fill="#8a5a5a"/><circle cx="608.3" cy="198.0" r="3" fill="#8a5a5a"/><circle cx="610.8" cy="198.0" r="3" fill="#8a5a5a"/><circle cx="613.4" cy="198.0" r="3" fill="#8a5a5a"/><circle cx="615.9" cy="198.0" r="3" fill="#8a5a5a"/><circle cx="618.4" cy="198.0" r="3" fill="#8a5a5a"/><circle cx="621.0" cy="198.0" r="3" fill="#8a5a5a"/><circle cx="623.5" cy="198.0" r="3" fill="#8a5a5a"/><circle cx="626.0" cy="198.0" r="3" fill="#8a5a5a"/><circle cx="628.5" cy="198.0" r="3" fill="#8a5a5a"/><circle cx="631.1" cy="198.0" r="3" fill="#8a5a5a"/><circle cx="633.6" cy="198.0" r="3" fill="#8a5a5a"/><circle cx="636.1" cy="198.0" r="3" fill="#8a5a5a"/><circle cx="638.7" cy="198.0" r="3" fill="#8a5a5a"/><circle cx="641.2" cy="198.0" r="3" fill="#8a5a5a"/><circle cx="643.7" cy="198.0" r="3" fill="#8a5a5a"/><circle cx="646.3" cy="198.0" r="3" fill="#8a5a5a"/><circle cx="648.8" cy="198.0" r="3" fill="#8a5a5a"/><circle cx="651.3" cy="198.0" r="3" fill="#8a5a5a"/><circle cx="653.9" cy="198.0" r="3" fill="#8a5a5a"/><circle cx="656.4" cy="198.0" r="3" fill="#8a5a5a"/><circle cx="658.9" cy="198.0" r="3" fill="#8a5a5a"/><circle cx="661.5" cy="198.0" r="3" fill="#8a5a5a"/><circle cx="664.0" cy="198.0" r="3" fill="#8a5a5a"/>
<polyline fill="none" stroke="#3fb950" stroke-width="2.5" stroke-linejoin="round" points="36.0,198.0 38.5,198.0 41.1,198.0 43.6,198.0 46.1,198.0 48.7,198.0 51.2,198.0 53.7,198.0 56.3,198.0 58.8,198.0 61.3,198.0 63.9,198.0 66.4,198.0 68.9,198.0 71.5,198.0 74.0,198.0 76.5,198.0 79.0,198.0 81.6,198.0 84.1,198.0 86.6,198.0 89.2,198.0 91.7,198.0 94.2,198.0 96.8,198.0 99.3,198.0 101.8,198.0 104.4,198.0 106.9,198.0 109.4,198.0 112.0,198.0 114.5,198.0 117.0,198.0 119.6,198.0 122.1,198.0 124.6,198.0 127.2,198.0 129.7,198.0 132.2,198.0 134.8,198.0 137.3,198.0 139.8,198.0 142.4,198.0 144.9,191.7 147.4,191.7 150.0,191.7 152.5,191.7 155.0,191.7 157.5,191.7 160.1,191.7 162.6,192.9 165.1,192.9 167.7,190.7 170.2,190.7 172.7,190.7 175.3,190.7 177.8,190.7 180.3,190.5 182.9,190.5 185.4,190.5 187.9,190.3 190.5,190.3 193.0,190.3 195.5,190.3 198.1,190.3 200.6,190.3 203.1,190.3 205.7,190.3 208.2,190.3 210.7,190.3 213.3,190.3 215.8,190.3 218.3,190.3 220.9,190.3 223.4,190.3 225.9,190.3 228.5,190.3 231.0,190.3 233.5,190.3 236.0,190.3 238.6,190.3 241.1,189.3 243.6,189.3 246.2,189.3 248.7,190.7 251.2,190.7 253.8,190.7 256.3,190.7 258.8,190.7 261.4,190.7 263.9,190.7 266.4,190.7 269.0,190.7 271.5,190.9 274.0,190.9 276.6,190.9 279.1,194.2 281.6,196.8 284.2,198.0 286.7,198.0 289.2,198.0 291.8,198.0 294.3,198.0 296.8,198.0 299.4,198.0 301.9,198.0 304.4,198.0 307.0,198.0 309.5,198.0 312.0,198.0 314.5,198.0 317.1,198.0 319.6,198.0 322.1,198.0 324.7,198.0 327.2,198.0 329.7,198.0 332.3,198.0 334.8,198.0 337.3,198.0 339.9,198.0 342.4,198.0 344.9,198.0 347.5,198.0 350.0,198.0 352.5,198.0 355.1,198.0 357.6,198.0 360.1,198.0 362.7,198.0 365.2,198.0 367.7,198.0 370.3,198.0 372.8,198.0 375.3,198.0 377.9,198.0 380.4,198.0 382.9,198.0 385.5,198.0 388.0,198.0 390.5,198.0 393.0,198.0 395.6,198.0 398.1,198.0 400.6,198.0 403.2,198.0 405.7,198.0 408.2,198.0 410.8,198.0 413.3,198.0 415.8,198.0 418.4,198.0 420.9,198.0 423.4,198.0 426.0,198.0 428.5,198.0 431.0,198.0 433.6,198.0 436.1,198.0 438.6,198.0 441.2,198.0 443.7,198.0 446.2,198.0 448.8,198.0 451.3,198.0 453.8,198.0 456.4,198.0 458.9,198.0 461.4,198.0 464.0,198.0 466.5,198.0 469.0,198.0 471.5,198.0 474.1,198.0 476.6,198.0 479.1,198.0 481.7,198.0 484.2,198.0 486.7,198.0 489.3,198.0 491.8,198.0 494.3,198.0 496.9,198.0 499.4,198.0 501.9,198.0 504.5,198.0 507.0,198.0 509.5,198.0 512.1,198.0 514.6,198.0 517.1,198.0 519.7,198.0 522.2,198.0 524.7,198.0 527.3,198.0 529.8,198.0 532.3,198.0 534.9,198.0 537.4,198.0 539.9,198.0 542.5,198.0 545.0,198.0 547.5,198.0 550.0,198.0 552.6,198.0 555.1,198.0 557.6,198.0 560.2,198.0 562.7,198.0 565.2,198.0 567.8,198.0 570.3,198.0 572.8,198.0 575.4,198.0 577.9,198.0 580.4,198.0 583.0,198.0 585.5,198.0 588.0,198.0 590.6,198.0 593.1,198.0 595.6,198.0 598.2,198.0 600.7,198.0 603.2,198.0 605.8,198.0 608.3,198.0 610.8,198.0 613.4,198.0 615.9,198.0 618.4,198.0 621.0,198.0 623.5,198.0 626.0,198.0 628.5,198.0 631.1,198.0 633.6,198.0 636.1,198.0 638.7,198.0 641.2,198.0 643.7,198.0 646.3,198.0 648.8,198.0 651.3,198.0 653.9,198.0 656.4,198.0 658.9,198.0 661.5,198.0 664.0,198.0"/><circle cx="36.0" cy="198.0" r="3" fill="#3fb950"/><circle cx="38.5" cy="198.0" r="3" fill="#3fb950"/><circle cx="41.1" cy="198.0" r="3" fill="#3fb950"/><circle cx="43.6" cy="198.0" r="3" fill="#3fb950"/><circle cx="46.1" cy="198.0" r="3" fill="#3fb950"/><circle cx="48.7" cy="198.0" r="3" fill="#3fb950"/><circle cx="51.2" cy="198.0" r="3" fill="#3fb950"/><circle cx="53.7" cy="198.0" r="3" fill="#3fb950"/><circle cx="56.3" cy="198.0" r="3" fill="#3fb950"/><circle cx="58.8" cy="198.0" r="3" fill="#3fb950"/><circle cx="61.3" cy="198.0" r="3" fill="#3fb950"/><circle cx="63.9" cy="198.0" r="3" fill="#3fb950"/><circle cx="66.4" cy="198.0" r="3" fill="#3fb950"/><circle cx="68.9" cy="198.0" r="3" fill="#3fb950"/><circle cx="71.5" cy="198.0" r="3" fill="#3fb950"/><circle cx="74.0" cy="198.0" r="3" fill="#3fb950"/><circle cx="76.5" cy="198.0" r="3" fill="#3fb950"/><circle cx="79.0" cy="198.0" r="3" fill="#3fb950"/><circle cx="81.6" cy="198.0" r="3" fill="#3fb950"/><circle cx="84.1" cy="198.0" r="3" fill="#3fb950"/><circle cx="86.6" cy="198.0" r="3" fill="#3fb950"/><circle cx="89.2" cy="198.0" r="3" fill="#3fb950"/><circle cx="91.7" cy="198.0" r="3" fill="#3fb950"/><circle cx="94.2" cy="198.0" r="3" fill="#3fb950"/><circle cx="96.8" cy="198.0" r="3" fill="#3fb950"/><circle cx="99.3" cy="198.0" r="3" fill="#3fb950"/><circle cx="101.8" cy="198.0" r="3" fill="#3fb950"/><circle cx="104.4" cy="198.0" r="3" fill="#3fb950"/><circle cx="106.9" cy="198.0" r="3" fill="#3fb950"/><circle cx="109.4" cy="198.0" r="3" fill="#3fb950"/><circle cx="112.0" cy="198.0" r="3" fill="#3fb950"/><circle cx="114.5" cy="198.0" r="3" fill="#3fb950"/><circle cx="117.0" cy="198.0" r="3" fill="#3fb950"/><circle cx="119.6" cy="198.0" r="3" fill="#3fb950"/><circle cx="122.1" cy="198.0" r="3" fill="#3fb950"/><circle cx="124.6" cy="198.0" r="3" fill="#3fb950"/><circle cx="127.2" cy="198.0" r="3" fill="#3fb950"/><circle cx="129.7" cy="198.0" r="3" fill="#3fb950"/><circle cx="132.2" cy="198.0" r="3" fill="#3fb950"/><circle cx="134.8" cy="198.0" r="3" fill="#3fb950"/><circle cx="137.3" cy="198.0" r="3" fill="#3fb950"/><circle cx="139.8" cy="198.0" r="3" fill="#3fb950"/><circle cx="142.4" cy="198.0" r="3" fill="#3fb950"/><circle cx="144.9" cy="191.7" r="3" fill="#3fb950"/><circle cx="147.4" cy="191.7" r="3" fill="#3fb950"/><circle cx="150.0" cy="191.7" r="3" fill="#3fb950"/><circle cx="152.5" cy="191.7" r="3" fill="#3fb950"/><circle cx="155.0" cy="191.7" r="3" fill="#3fb950"/><circle cx="157.5" cy="191.7" r="3" fill="#3fb950"/><circle cx="160.1" cy="191.7" r="3" fill="#3fb950"/><circle cx="162.6" cy="192.9" r="3" fill="#3fb950"/><circle cx="165.1" cy="192.9" r="3" fill="#3fb950"/><circle cx="167.7" cy="190.7" r="3" fill="#3fb950"/><circle cx="170.2" cy="190.7" r="3" fill="#3fb950"/><circle cx="172.7" cy="190.7" r="3" fill="#3fb950"/><circle cx="175.3" cy="190.7" r="3" fill="#3fb950"/><circle cx="177.8" cy="190.7" r="3" fill="#3fb950"/><circle cx="180.3" cy="190.5" r="3" fill="#3fb950"/><circle cx="182.9" cy="190.5" r="3" fill="#3fb950"/><circle cx="185.4" cy="190.5" r="3" fill="#3fb950"/><circle cx="187.9" cy="190.3" r="3" fill="#3fb950"/><circle cx="190.5" cy="190.3" r="3" fill="#3fb950"/><circle cx="193.0" cy="190.3" r="3" fill="#3fb950"/><circle cx="195.5" cy="190.3" r="3" fill="#3fb950"/><circle cx="198.1" cy="190.3" r="3" fill="#3fb950"/><circle cx="200.6" cy="190.3" r="3" fill="#3fb950"/><circle cx="203.1" cy="190.3" r="3" fill="#3fb950"/><circle cx="205.7" cy="190.3" r="3" fill="#3fb950"/><circle cx="208.2" cy="190.3" r="3" fill="#3fb950"/><circle cx="210.7" cy="190.3" r="3" fill="#3fb950"/><circle cx="213.3" cy="190.3" r="3" fill="#3fb950"/><circle cx="215.8" cy="190.3" r="3" fill="#3fb950"/><circle cx="218.3" cy="190.3" r="3" fill="#3fb950"/><circle cx="220.9" cy="190.3" r="3" fill="#3fb950"/><circle cx="223.4" cy="190.3" r="3" fill="#3fb950"/><circle cx="225.9" cy="190.3" r="3" fill="#3fb950"/><circle cx="228.5" cy="190.3" r="3" fill="#3fb950"/><circle cx="231.0" cy="190.3" r="3" fill="#3fb950"/><circle cx="233.5" cy="190.3" r="3" fill="#3fb950"/><circle cx="236.0" cy="190.3" r="3" fill="#3fb950"/><circle cx="238.6" cy="190.3" r="3" fill="#3fb950"/><circle cx="241.1" cy="189.3" r="3" fill="#3fb950"/><circle cx="243.6" cy="189.3" r="3" fill="#3fb950"/><circle cx="246.2" cy="189.3" r="3" fill="#3fb950"/><circle cx="248.7" cy="190.7" r="3" fill="#3fb950"/><circle cx="251.2" cy="190.7" r="3" fill="#3fb950"/><circle cx="253.8" cy="190.7" r="3" fill="#3fb950"/><circle cx="256.3" cy="190.7" r="3" fill="#3fb950"/><circle cx="258.8" cy="190.7" r="3" fill="#3fb950"/><circle cx="261.4" cy="190.7" r="3" fill="#3fb950"/><circle cx="263.9" cy="190.7" r="3" fill="#3fb950"/><circle cx="266.4" cy="190.7" r="3" fill="#3fb950"/><circle cx="269.0" cy="190.7" r="3" fill="#3fb950"/><circle cx="271.5" cy="190.9" r="3" fill="#3fb950"/><circle cx="274.0" cy="190.9" r="3" fill="#3fb950"/><circle cx="276.6" cy="190.9" r="3" fill="#3fb950"/><circle cx="279.1" cy="194.2" r="3" fill="#3fb950"/><circle cx="281.6" cy="196.8" r="3" fill="#3fb950"/><circle cx="284.2" cy="198.0" r="3" fill="#3fb950"/><circle cx="286.7" cy="198.0" r="3" fill="#3fb950"/><circle cx="289.2" cy="198.0" r="3" fill="#3fb950"/><circle cx="291.8" cy="198.0" r="3" fill="#3fb950"/><circle cx="294.3" cy="198.0" r="3" fill="#3fb950"/><circle cx="296.8" cy="198.0" r="3" fill="#3fb950"/><circle cx="299.4" cy="198.0" r="3" fill="#3fb950"/><circle cx="301.9" cy="198.0" r="3" fill="#3fb950"/><circle cx="304.4" cy="198.0" r="3" fill="#3fb950"/><circle cx="307.0" cy="198.0" r="3" fill="#3fb950"/><circle cx="309.5" cy="198.0" r="3" fill="#3fb950"/><circle cx="312.0" cy="198.0" r="3" fill="#3fb950"/><circle cx="314.5" cy="198.0" r="3" fill="#3fb950"/><circle cx="317.1" cy="198.0" r="3" fill="#3fb950"/><circle cx="319.6" cy="198.0" r="3" fill="#3fb950"/><circle cx="322.1" cy="198.0" r="3" fill="#3fb950"/><circle cx="324.7" cy="198.0" r="3" fill="#3fb950"/><circle cx="327.2" cy="198.0" r="3" fill="#3fb950"/><circle cx="329.7" cy="198.0" r="3" fill="#3fb950"/><circle cx="332.3" cy="198.0" r="3" fill="#3fb950"/><circle cx="334.8" cy="198.0" r="3" fill="#3fb950"/><circle cx="337.3" cy="198.0" r="3" fill="#3fb950"/><circle cx="339.9" cy="198.0" r="3" fill="#3fb950"/><circle cx="342.4" cy="198.0" r="3" fill="#3fb950"/><circle cx="344.9" cy="198.0" r="3" fill="#3fb950"/><circle cx="347.5" cy="198.0" r="3" fill="#3fb950"/><circle cx="350.0" cy="198.0" r="3" fill="#3fb950"/><circle cx="352.5" cy="198.0" r="3" fill="#3fb950"/><circle cx="355.1" cy="198.0" r="3" fill="#3fb950"/><circle cx="357.6" cy="198.0" r="3" fill="#3fb950"/><circle cx="360.1" cy="198.0" r="3" fill="#3fb950"/><circle cx="362.7" cy="198.0" r="3" fill="#3fb950"/><circle cx="365.2" cy="198.0" r="3" fill="#3fb950"/><circle cx="367.7" cy="198.0" r="3" fill="#3fb950"/><circle cx="370.3" cy="198.0" r="3" fill="#3fb950"/><circle cx="372.8" cy="198.0" r="3" fill="#3fb950"/><circle cx="375.3" cy="198.0" r="3" fill="#3fb950"/><circle cx="377.9" cy="198.0" r="3" fill="#3fb950"/><circle cx="380.4" cy="198.0" r="3" fill="#3fb950"/><circle cx="382.9" cy="198.0" r="3" fill="#3fb950"/><circle cx="385.5" cy="198.0" r="3" fill="#3fb950"/><circle cx="388.0" cy="198.0" r="3" fill="#3fb950"/><circle cx="390.5" cy="198.0" r="3" fill="#3fb950"/><circle cx="393.0" cy="198.0" r="3" fill="#3fb950"/><circle cx="395.6" cy="198.0" r="3" fill="#3fb950"/><circle cx="398.1" cy="198.0" r="3" fill="#3fb950"/><circle cx="400.6" cy="198.0" r="3" fill="#3fb950"/><circle cx="403.2" cy="198.0" r="3" fill="#3fb950"/><circle cx="405.7" cy="198.0" r="3" fill="#3fb950"/><circle cx="408.2" cy="198.0" r="3" fill="#3fb950"/><circle cx="410.8" cy="198.0" r="3" fill="#3fb950"/><circle cx="413.3" cy="198.0" r="3" fill="#3fb950"/><circle cx="415.8" cy="198.0" r="3" fill="#3fb950"/><circle cx="418.4" cy="198.0" r="3" fill="#3fb950"/><circle cx="420.9" cy="198.0" r="3" fill="#3fb950"/><circle cx="423.4" cy="198.0" r="3" fill="#3fb950"/><circle cx="426.0" cy="198.0" r="3" fill="#3fb950"/><circle cx="428.5" cy="198.0" r="3" fill="#3fb950"/><circle cx="431.0" cy="198.0" r="3" fill="#3fb950"/><circle cx="433.6" cy="198.0" r="3" fill="#3fb950"/><circle cx="436.1" cy="198.0" r="3" fill="#3fb950"/><circle cx="438.6" cy="198.0" r="3" fill="#3fb950"/><circle cx="441.2" cy="198.0" r="3" fill="#3fb950"/><circle cx="443.7" cy="198.0" r="3" fill="#3fb950"/><circle cx="446.2" cy="198.0" r="3" fill="#3fb950"/><circle cx="448.8" cy="198.0" r="3" fill="#3fb950"/><circle cx="451.3" cy="198.0" r="3" fill="#3fb950"/><circle cx="453.8" cy="198.0" r="3" fill="#3fb950"/><circle cx="456.4" cy="198.0" r="3" fill="#3fb950"/><circle cx="458.9" cy="198.0" r="3" fill="#3fb950"/><circle cx="461.4" cy="198.0" r="3" fill="#3fb950"/><circle cx="464.0" cy="198.0" r="3" fill="#3fb950"/><circle cx="466.5" cy="198.0" r="3" fill="#3fb950"/><circle cx="469.0" cy="198.0" r="3" fill="#3fb950"/><circle cx="471.5" cy="198.0" r="3" fill="#3fb950"/><circle cx="474.1" cy="198.0" r="3" fill="#3fb950"/><circle cx="476.6" cy="198.0" r="3" fill="#3fb950"/><circle cx="479.1" cy="198.0" r="3" fill="#3fb950"/><circle cx="481.7" cy="198.0" r="3" fill="#3fb950"/><circle cx="484.2" cy="198.0" r="3" fill="#3fb950"/><circle cx="486.7" cy="198.0" r="3" fill="#3fb950"/><circle cx="489.3" cy="198.0" r="3" fill="#3fb950"/><circle cx="491.8" cy="198.0" r="3" fill="#3fb950"/><circle cx="494.3" cy="198.0" r="3" fill="#3fb950"/><circle cx="496.9" cy="198.0" r="3" fill="#3fb950"/><circle cx="499.4" cy="198.0" r="3" fill="#3fb950"/><circle cx="501.9" cy="198.0" r="3" fill="#3fb950"/><circle cx="504.5" cy="198.0" r="3" fill="#3fb950"/><circle cx="507.0" cy="198.0" r="3" fill="#3fb950"/><circle cx="509.5" cy="198.0" r="3" fill="#3fb950"/><circle cx="512.1" cy="198.0" r="3" fill="#3fb950"/><circle cx="514.6" cy="198.0" r="3" fill="#3fb950"/><circle cx="517.1" cy="198.0" r="3" fill="#3fb950"/><circle cx="519.7" cy="198.0" r="3" fill="#3fb950"/><circle cx="522.2" cy="198.0" r="3" fill="#3fb950"/><circle cx="524.7" cy="198.0" r="3" fill="#3fb950"/><circle cx="527.3" cy="198.0" r="3" fill="#3fb950"/><circle cx="529.8" cy="198.0" r="3" fill="#3fb950"/><circle cx="532.3" cy="198.0" r="3" fill="#3fb950"/><circle cx="534.9" cy="198.0" r="3" fill="#3fb950"/><circle cx="537.4" cy="198.0" r="3" fill="#3fb950"/><circle cx="539.9" cy="198.0" r="3" fill="#3fb950"/><circle cx="542.5" cy="198.0" r="3" fill="#3fb950"/><circle cx="545.0" cy="198.0" r="3" fill="#3fb950"/><circle cx="547.5" cy="198.0" r="3" fill="#3fb950"/><circle cx="550.0" cy="198.0" r="3" fill="#3fb950"/><circle cx="552.6" cy="198.0" r="3" fill="#3fb950"/><circle cx="555.1" cy="198.0" r="3" fill="#3fb950"/><circle cx="557.6" cy="198.0" r="3" fill="#3fb950"/><circle cx="560.2" cy="198.0" r="3" fill="#3fb950"/><circle cx="562.7" cy="198.0" r="3" fill="#3fb950"/><circle cx="565.2" cy="198.0" r="3" fill="#3fb950"/><circle cx="567.8" cy="198.0" r="3" fill="#3fb950"/><circle cx="570.3" cy="198.0" r="3" fill="#3fb950"/><circle cx="572.8" cy="198.0" r="3" fill="#3fb950"/><circle cx="575.4" cy="198.0" r="3" fill="#3fb950"/><circle cx="577.9" cy="198.0" r="3" fill="#3fb950"/><circle cx="580.4" cy="198.0" r="3" fill="#3fb950"/><circle cx="583.0" cy="198.0" r="3" fill="#3fb950"/><circle cx="585.5" cy="198.0" r="3" fill="#3fb950"/><circle cx="588.0" cy="198.0" r="3" fill="#3fb950"/><circle cx="590.6" cy="198.0" r="3" fill="#3fb950"/><circle cx="593.1" cy="198.0" r="3" fill="#3fb950"/><circle cx="595.6" cy="198.0" r="3" fill="#3fb950"/><circle cx="598.2" cy="198.0" r="3" fill="#3fb950"/><circle cx="600.7" cy="198.0" r="3" fill="#3fb950"/><circle cx="603.2" cy="198.0" r="3" fill="#3fb950"/><circle cx="605.8" cy="198.0" r="3" fill="#3fb950"/><circle cx="608.3" cy="198.0" r="3" fill="#3fb950"/><circle cx="610.8" cy="198.0" r="3" fill="#3fb950"/><circle cx="613.4" cy="198.0" r="3" fill="#3fb950"/><circle cx="615.9" cy="198.0" r="3" fill="#3fb950"/><circle cx="618.4" cy="198.0" r="3" fill="#3fb950"/><circle cx="621.0" cy="198.0" r="3" fill="#3fb950"/><circle cx="623.5" cy="198.0" r="3" fill="#3fb950"/><circle cx="626.0" cy="198.0" r="3" fill="#3fb950"/><circle cx="628.5" cy="198.0" r="3" fill="#3fb950"/><circle cx="631.1" cy="198.0" r="3" fill="#3fb950"/><circle cx="633.6" cy="198.0" r="3" fill="#3fb950"/><circle cx="636.1" cy="198.0" r="3" fill="#3fb950"/><circle cx="638.7" cy="198.0" r="3" fill="#3fb950"/><circle cx="641.2" cy="198.0" r="3" fill="#3fb950"/><circle cx="643.7" cy="198.0" r="3" fill="#3fb950"/><circle cx="646.3" cy="198.0" r="3" fill="#3fb950"/><circle cx="648.8" cy="198.0" r="3" fill="#3fb950"/><circle cx="651.3" cy="198.0" r="3" fill="#3fb950"/><circle cx="653.9" cy="198.0" r="3" fill="#3fb950"/><circle cx="656.4" cy="198.0" r="3" fill="#3fb950"/><circle cx="658.9" cy="198.0" r="3" fill="#3fb950"/><circle cx="661.5" cy="198.0" r="3" fill="#3fb950"/><circle cx="664.0" cy="198.0" r="3" fill="#3fb950"/>
<polyline fill="none" stroke="#4aa3ff" stroke-width="2.5" stroke-linejoin="round" points="36.0,144.3 38.5,144.3 41.1,144.3 43.6,144.3 46.1,144.3 48.7,144.3 51.2,144.3 53.7,144.3 56.3,144.3 58.8,144.3 61.3,144.3 63.9,144.3 66.4,144.3 68.9,144.3 71.5,144.3 74.0,136.2 76.5,132.4 79.0,129.6 81.6,129.6 84.1,121.0 86.6,121.0 89.2,121.0 91.7,114.4 94.2,114.4 96.8,114.4 99.3,111.3 101.8,110.9 104.4,110.9 106.9,110.5 109.4,110.5 112.0,109.9 114.5,108.7 117.0,107.3 119.6,106.9 122.1,106.9 124.6,106.9 127.2,106.9 129.7,106.9 132.2,106.9 134.8,106.9 137.3,106.9 139.8,106.9 142.4,106.9 144.9,113.2 147.4,113.2 150.0,113.2 152.5,113.2 155.0,113.2 157.5,110.7 160.1,105.3 162.6,83.4 165.1,83.4 167.7,85.6 170.2,85.6 172.7,85.6 175.3,85.6 177.8,85.6 180.3,85.8 182.9,85.8 185.4,85.8 187.9,86.0 190.5,86.0 193.0,86.0 195.5,86.0 198.1,86.0 200.6,86.0 203.1,86.0 205.7,86.0 208.2,86.0 210.7,86.0 213.3,86.0 215.8,86.0 218.3,86.0 220.9,86.0 223.4,86.0 225.9,86.0 228.5,86.0 231.0,86.0 233.5,86.0 236.0,86.0 238.6,86.0 241.1,87.0 243.6,87.0 246.2,87.0 248.7,73.7 251.2,73.7 253.8,71.0 256.3,71.0 258.8,70.8 261.4,70.6 263.9,70.6 266.4,70.4 269.0,68.6 271.5,60.5 274.0,59.3 276.6,52.0 279.1,47.3 281.6,40.1 284.2,36.0 286.7,36.0 289.2,36.0 291.8,36.0 294.3,36.0 296.8,36.0 299.4,36.0 301.9,36.0 304.4,36.0 307.0,36.0 309.5,36.0 312.0,36.0 314.5,36.0 317.1,36.0 319.6,36.0 322.1,36.0 324.7,36.0 327.2,36.0 329.7,36.0 332.3,36.0 334.8,36.0 337.3,36.0 339.9,36.0 342.4,36.0 344.9,36.0 347.5,36.0 350.0,36.0 352.5,36.0 355.1,36.0 357.6,36.0 360.1,36.0 362.7,36.0 365.2,36.0 367.7,36.0 370.3,36.0 372.8,36.0 375.3,36.0 377.9,36.0 380.4,36.0 382.9,36.0 385.5,36.0 388.0,36.0 390.5,36.0 393.0,36.0 395.6,36.0 398.1,36.0 400.6,36.0 403.2,36.0 405.7,36.0 408.2,36.0 410.8,36.0 413.3,36.0 415.8,36.0 418.4,36.0 420.9,36.0 423.4,36.0 426.0,36.0 428.5,36.0 431.0,36.0 433.6,36.0 436.1,36.0 438.6,36.0 441.2,36.0 443.7,36.0 446.2,36.0 448.8,36.0 451.3,36.0 453.8,36.0 456.4,36.0 458.9,36.0 461.4,36.0 464.0,36.0 466.5,36.0 469.0,36.0 471.5,36.0 474.1,36.0 476.6,36.0 479.1,36.0 481.7,36.0 484.2,36.0 486.7,36.0 489.3,36.0 491.8,36.0 494.3,36.0 496.9,36.0 499.4,36.0 501.9,36.0 504.5,36.0 507.0,36.0 509.5,36.0 512.1,36.0 514.6,36.0 517.1,36.0 519.7,36.0 522.2,36.0 524.7,36.0 527.3,36.0 529.8,36.0 532.3,36.0 534.9,36.0 537.4,36.0 539.9,36.0 542.5,36.0 545.0,36.0 547.5,36.0 550.0,36.0 552.6,36.0 555.1,36.0 557.6,36.0 560.2,36.0 562.7,36.0 565.2,36.0 567.8,36.0 570.3,36.0 572.8,36.0 575.4,36.0 577.9,36.0 580.4,36.0 583.0,36.0 585.5,36.0 588.0,36.0 590.6,36.0 593.1,36.0 595.6,36.0 598.2,36.0 600.7,36.0 603.2,36.0 605.8,36.0 608.3,36.0 610.8,36.0 613.4,36.0 615.9,36.0 618.4,36.0 621.0,36.0 623.5,36.0 626.0,36.0 628.5,36.0 631.1,36.0 633.6,36.0 636.1,36.0 638.7,36.0 641.2,36.0 643.7,36.0 646.3,36.0 648.8,36.0 651.3,36.0 653.9,36.0 656.4,36.0 658.9,36.0 661.5,36.0 664.0,36.0"/><circle cx="36.0" cy="144.3" r="3" fill="#4aa3ff"/><circle cx="38.5" cy="144.3" r="3" fill="#4aa3ff"/><circle cx="41.1" cy="144.3" r="3" fill="#4aa3ff"/><circle cx="43.6" cy="144.3" r="3" fill="#4aa3ff"/><circle cx="46.1" cy="144.3" r="3" fill="#4aa3ff"/><circle cx="48.7" cy="144.3" r="3" fill="#4aa3ff"/><circle cx="51.2" cy="144.3" r="3" fill="#4aa3ff"/><circle cx="53.7" cy="144.3" r="3" fill="#4aa3ff"/><circle cx="56.3" cy="144.3" r="3" fill="#4aa3ff"/><circle cx="58.8" cy="144.3" r="3" fill="#4aa3ff"/><circle cx="61.3" cy="144.3" r="3" fill="#4aa3ff"/><circle cx="63.9" cy="144.3" r="3" fill="#4aa3ff"/><circle cx="66.4" cy="144.3" r="3" fill="#4aa3ff"/><circle cx="68.9" cy="144.3" r="3" fill="#4aa3ff"/><circle cx="71.5" cy="144.3" r="3" fill="#4aa3ff"/><circle cx="74.0" cy="136.2" r="3" fill="#4aa3ff"/><circle cx="76.5" cy="132.4" r="3" fill="#4aa3ff"/><circle cx="79.0" cy="129.6" r="3" fill="#4aa3ff"/><circle cx="81.6" cy="129.6" r="3" fill="#4aa3ff"/><circle cx="84.1" cy="121.0" r="3" fill="#4aa3ff"/><circle cx="86.6" cy="121.0" r="3" fill="#4aa3ff"/><circle cx="89.2" cy="121.0" r="3" fill="#4aa3ff"/><circle cx="91.7" cy="114.4" r="3" fill="#4aa3ff"/><circle cx="94.2" cy="114.4" r="3" fill="#4aa3ff"/><circle cx="96.8" cy="114.4" r="3" fill="#4aa3ff"/><circle cx="99.3" cy="111.3" r="3" fill="#4aa3ff"/><circle cx="101.8" cy="110.9" r="3" fill="#4aa3ff"/><circle cx="104.4" cy="110.9" r="3" fill="#4aa3ff"/><circle cx="106.9" cy="110.5" r="3" fill="#4aa3ff"/><circle cx="109.4" cy="110.5" r="3" fill="#4aa3ff"/><circle cx="112.0" cy="109.9" r="3" fill="#4aa3ff"/><circle cx="114.5" cy="108.7" r="3" fill="#4aa3ff"/><circle cx="117.0" cy="107.3" r="3" fill="#4aa3ff"/><circle cx="119.6" cy="106.9" r="3" fill="#4aa3ff"/><circle cx="122.1" cy="106.9" r="3" fill="#4aa3ff"/><circle cx="124.6" cy="106.9" r="3" fill="#4aa3ff"/><circle cx="127.2" cy="106.9" r="3" fill="#4aa3ff"/><circle cx="129.7" cy="106.9" r="3" fill="#4aa3ff"/><circle cx="132.2" cy="106.9" r="3" fill="#4aa3ff"/><circle cx="134.8" cy="106.9" r="3" fill="#4aa3ff"/><circle cx="137.3" cy="106.9" r="3" fill="#4aa3ff"/><circle cx="139.8" cy="106.9" r="3" fill="#4aa3ff"/><circle cx="142.4" cy="106.9" r="3" fill="#4aa3ff"/><circle cx="144.9" cy="113.2" r="3" fill="#4aa3ff"/><circle cx="147.4" cy="113.2" r="3" fill="#4aa3ff"/><circle cx="150.0" cy="113.2" r="3" fill="#4aa3ff"/><circle cx="152.5" cy="113.2" r="3" fill="#4aa3ff"/><circle cx="155.0" cy="113.2" r="3" fill="#4aa3ff"/><circle cx="157.5" cy="110.7" r="3" fill="#4aa3ff"/><circle cx="160.1" cy="105.3" r="3" fill="#4aa3ff"/><circle cx="162.6" cy="83.4" r="3" fill="#4aa3ff"/><circle cx="165.1" cy="83.4" r="3" fill="#4aa3ff"/><circle cx="167.7" cy="85.6" r="3" fill="#4aa3ff"/><circle cx="170.2" cy="85.6" r="3" fill="#4aa3ff"/><circle cx="172.7" cy="85.6" r="3" fill="#4aa3ff"/><circle cx="175.3" cy="85.6" r="3" fill="#4aa3ff"/><circle cx="177.8" cy="85.6" r="3" fill="#4aa3ff"/><circle cx="180.3" cy="85.8" r="3" fill="#4aa3ff"/><circle cx="182.9" cy="85.8" r="3" fill="#4aa3ff"/><circle cx="185.4" cy="85.8" r="3" fill="#4aa3ff"/><circle cx="187.9" cy="86.0" r="3" fill="#4aa3ff"/><circle cx="190.5" cy="86.0" r="3" fill="#4aa3ff"/><circle cx="193.0" cy="86.0" r="3" fill="#4aa3ff"/><circle cx="195.5" cy="86.0" r="3" fill="#4aa3ff"/><circle cx="198.1" cy="86.0" r="3" fill="#4aa3ff"/><circle cx="200.6" cy="86.0" r="3" fill="#4aa3ff"/><circle cx="203.1" cy="86.0" r="3" fill="#4aa3ff"/><circle cx="205.7" cy="86.0" r="3" fill="#4aa3ff"/><circle cx="208.2" cy="86.0" r="3" fill="#4aa3ff"/><circle cx="210.7" cy="86.0" r="3" fill="#4aa3ff"/><circle cx="213.3" cy="86.0" r="3" fill="#4aa3ff"/><circle cx="215.8" cy="86.0" r="3" fill="#4aa3ff"/><circle cx="218.3" cy="86.0" r="3" fill="#4aa3ff"/><circle cx="220.9" cy="86.0" r="3" fill="#4aa3ff"/><circle cx="223.4" cy="86.0" r="3" fill="#4aa3ff"/><circle cx="225.9" cy="86.0" r="3" fill="#4aa3ff"/><circle cx="228.5" cy="86.0" r="3" fill="#4aa3ff"/><circle cx="231.0" cy="86.0" r="3" fill="#4aa3ff"/><circle cx="233.5" cy="86.0" r="3" fill="#4aa3ff"/><circle cx="236.0" cy="86.0" r="3" fill="#4aa3ff"/><circle cx="238.6" cy="86.0" r="3" fill="#4aa3ff"/><circle cx="241.1" cy="87.0" r="3" fill="#4aa3ff"/><circle cx="243.6" cy="87.0" r="3" fill="#4aa3ff"/><circle cx="246.2" cy="87.0" r="3" fill="#4aa3ff"/><circle cx="248.7" cy="73.7" r="3" fill="#4aa3ff"/><circle cx="251.2" cy="73.7" r="3" fill="#4aa3ff"/><circle cx="253.8" cy="71.0" r="3" fill="#4aa3ff"/><circle cx="256.3" cy="71.0" r="3" fill="#4aa3ff"/><circle cx="258.8" cy="70.8" r="3" fill="#4aa3ff"/><circle cx="261.4" cy="70.6" r="3" fill="#4aa3ff"/><circle cx="263.9" cy="70.6" r="3" fill="#4aa3ff"/><circle cx="266.4" cy="70.4" r="3" fill="#4aa3ff"/><circle cx="269.0" cy="68.6" r="3" fill="#4aa3ff"/><circle cx="271.5" cy="60.5" r="3" fill="#4aa3ff"/><circle cx="274.0" cy="59.3" r="3" fill="#4aa3ff"/><circle cx="276.6" cy="52.0" r="3" fill="#4aa3ff"/><circle cx="279.1" cy="47.3" r="3" fill="#4aa3ff"/><circle cx="281.6" cy="40.1" r="3" fill="#4aa3ff"/><circle cx="284.2" cy="36.0" r="3" fill="#4aa3ff"/><circle cx="286.7" cy="36.0" r="3" fill="#4aa3ff"/><circle cx="289.2" cy="36.0" r="3" fill="#4aa3ff"/><circle cx="291.8" cy="36.0" r="3" fill="#4aa3ff"/><circle cx="294.3" cy="36.0" r="3" fill="#4aa3ff"/><circle cx="296.8" cy="36.0" r="3" fill="#4aa3ff"/><circle cx="299.4" cy="36.0" r="3" fill="#4aa3ff"/><circle cx="301.9" cy="36.0" r="3" fill="#4aa3ff"/><circle cx="304.4" cy="36.0" r="3" fill="#4aa3ff"/><circle cx="307.0" cy="36.0" r="3" fill="#4aa3ff"/><circle cx="309.5" cy="36.0" r="3" fill="#4aa3ff"/><circle cx="312.0" cy="36.0" r="3" fill="#4aa3ff"/><circle cx="314.5" cy="36.0" r="3" fill="#4aa3ff"/><circle cx="317.1" cy="36.0" r="3" fill="#4aa3ff"/><circle cx="319.6" cy="36.0" r="3" fill="#4aa3ff"/><circle cx="322.1" cy="36.0" r="3" fill="#4aa3ff"/><circle cx="324.7" cy="36.0" r="3" fill="#4aa3ff"/><circle cx="327.2" cy="36.0" r="3" fill="#4aa3ff"/><circle cx="329.7" cy="36.0" r="3" fill="#4aa3ff"/><circle cx="332.3" cy="36.0" r="3" fill="#4aa3ff"/><circle cx="334.8" cy="36.0" r="3" fill="#4aa3ff"/><circle cx="337.3" cy="36.0" r="3" fill="#4aa3ff"/><circle cx="339.9" cy="36.0" r="3" fill="#4aa3ff"/><circle cx="342.4" cy="36.0" r="3" fill="#4aa3ff"/><circle cx="344.9" cy="36.0" r="3" fill="#4aa3ff"/><circle cx="347.5" cy="36.0" r="3" fill="#4aa3ff"/><circle cx="350.0" cy="36.0" r="3" fill="#4aa3ff"/><circle cx="352.5" cy="36.0" r="3" fill="#4aa3ff"/><circle cx="355.1" cy="36.0" r="3" fill="#4aa3ff"/><circle cx="357.6" cy="36.0" r="3" fill="#4aa3ff"/><circle cx="360.1" cy="36.0" r="3" fill="#4aa3ff"/><circle cx="362.7" cy="36.0" r="3" fill="#4aa3ff"/><circle cx="365.2" cy="36.0" r="3" fill="#4aa3ff"/><circle cx="367.7" cy="36.0" r="3" fill="#4aa3ff"/><circle cx="370.3" cy="36.0" r="3" fill="#4aa3ff"/><circle cx="372.8" cy="36.0" r="3" fill="#4aa3ff"/><circle cx="375.3" cy="36.0" r="3" fill="#4aa3ff"/><circle cx="377.9" cy="36.0" r="3" fill="#4aa3ff"/><circle cx="380.4" cy="36.0" r="3" fill="#4aa3ff"/><circle cx="382.9" cy="36.0" r="3" fill="#4aa3ff"/><circle cx="385.5" cy="36.0" r="3" fill="#4aa3ff"/><circle cx="388.0" cy="36.0" r="3" fill="#4aa3ff"/><circle cx="390.5" cy="36.0" r="3" fill="#4aa3ff"/><circle cx="393.0" cy="36.0" r="3" fill="#4aa3ff"/><circle cx="395.6" cy="36.0" r="3" fill="#4aa3ff"/><circle cx="398.1" cy="36.0" r="3" fill="#4aa3ff"/><circle cx="400.6" cy="36.0" r="3" fill="#4aa3ff"/><circle cx="403.2" cy="36.0" r="3" fill="#4aa3ff"/><circle cx="405.7" cy="36.0" r="3" fill="#4aa3ff"/><circle cx="408.2" cy="36.0" r="3" fill="#4aa3ff"/><circle cx="410.8" cy="36.0" r="3" fill="#4aa3ff"/><circle cx="413.3" cy="36.0" r="3" fill="#4aa3ff"/><circle cx="415.8" cy="36.0" r="3" fill="#4aa3ff"/><circle cx="418.4" cy="36.0" r="3" fill="#4aa3ff"/><circle cx="420.9" cy="36.0" r="3" fill="#4aa3ff"/><circle cx="423.4" cy="36.0" r="3" fill="#4aa3ff"/><circle cx="426.0" cy="36.0" r="3" fill="#4aa3ff"/><circle cx="428.5" cy="36.0" r="3" fill="#4aa3ff"/><circle cx="431.0" cy="36.0" r="3" fill="#4aa3ff"/><circle cx="433.6" cy="36.0" r="3" fill="#4aa3ff"/><circle cx="436.1" cy="36.0" r="3" fill="#4aa3ff"/><circle cx="438.6" cy="36.0" r="3" fill="#4aa3ff"/><circle cx="441.2" cy="36.0" r="3" fill="#4aa3ff"/><circle cx="443.7" cy="36.0" r="3" fill="#4aa3ff"/><circle cx="446.2" cy="36.0" r="3" fill="#4aa3ff"/><circle cx="448.8" cy="36.0" r="3" fill="#4aa3ff"/><circle cx="451.3" cy="36.0" r="3" fill="#4aa3ff"/><circle cx="453.8" cy="36.0" r="3" fill="#4aa3ff"/><circle cx="456.4" cy="36.0" r="3" fill="#4aa3ff"/><circle cx="458.9" cy="36.0" r="3" fill="#4aa3ff"/><circle cx="461.4" cy="36.0" r="3" fill="#4aa3ff"/><circle cx="464.0" cy="36.0" r="3" fill="#4aa3ff"/><circle cx="466.5" cy="36.0" r="3" fill="#4aa3ff"/><circle cx="469.0" cy="36.0" r="3" fill="#4aa3ff"/><circle cx="471.5" cy="36.0" r="3" fill="#4aa3ff"/><circle cx="474.1" cy="36.0" r="3" fill="#4aa3ff"/><circle cx="476.6" cy="36.0" r="3" fill="#4aa3ff"/><circle cx="479.1" cy="36.0" r="3" fill="#4aa3ff"/><circle cx="481.7" cy="36.0" r="3" fill="#4aa3ff"/><circle cx="484.2" cy="36.0" r="3" fill="#4aa3ff"/><circle cx="486.7" cy="36.0" r="3" fill="#4aa3ff"/><circle cx="489.3" cy="36.0" r="3" fill="#4aa3ff"/><circle cx="491.8" cy="36.0" r="3" fill="#4aa3ff"/><circle cx="494.3" cy="36.0" r="3" fill="#4aa3ff"/><circle cx="496.9" cy="36.0" r="3" fill="#4aa3ff"/><circle cx="499.4" cy="36.0" r="3" fill="#4aa3ff"/><circle cx="501.9" cy="36.0" r="3" fill="#4aa3ff"/><circle cx="504.5" cy="36.0" r="3" fill="#4aa3ff"/><circle cx="507.0" cy="36.0" r="3" fill="#4aa3ff"/><circle cx="509.5" cy="36.0" r="3" fill="#4aa3ff"/><circle cx="512.1" cy="36.0" r="3" fill="#4aa3ff"/><circle cx="514.6" cy="36.0" r="3" fill="#4aa3ff"/><circle cx="517.1" cy="36.0" r="3" fill="#4aa3ff"/><circle cx="519.7" cy="36.0" r="3" fill="#4aa3ff"/><circle cx="522.2" cy="36.0" r="3" fill="#4aa3ff"/><circle cx="524.7" cy="36.0" r="3" fill="#4aa3ff"/><circle cx="527.3" cy="36.0" r="3" fill="#4aa3ff"/><circle cx="529.8" cy="36.0" r="3" fill="#4aa3ff"/><circle cx="532.3" cy="36.0" r="3" fill="#4aa3ff"/><circle cx="534.9" cy="36.0" r="3" fill="#4aa3ff"/><circle cx="537.4" cy="36.0" r="3" fill="#4aa3ff"/><circle cx="539.9" cy="36.0" r="3" fill="#4aa3ff"/><circle cx="542.5" cy="36.0" r="3" fill="#4aa3ff"/><circle cx="545.0" cy="36.0" r="3" fill="#4aa3ff"/><circle cx="547.5" cy="36.0" r="3" fill="#4aa3ff"/><circle cx="550.0" cy="36.0" r="3" fill="#4aa3ff"/><circle cx="552.6" cy="36.0" r="3" fill="#4aa3ff"/><circle cx="555.1" cy="36.0" r="3" fill="#4aa3ff"/><circle cx="557.6" cy="36.0" r="3" fill="#4aa3ff"/><circle cx="560.2" cy="36.0" r="3" fill="#4aa3ff"/><circle cx="562.7" cy="36.0" r="3" fill="#4aa3ff"/><circle cx="565.2" cy="36.0" r="3" fill="#4aa3ff"/><circle cx="567.8" cy="36.0" r="3" fill="#4aa3ff"/><circle cx="570.3" cy="36.0" r="3" fill="#4aa3ff"/><circle cx="572.8" cy="36.0" r="3" fill="#4aa3ff"/><circle cx="575.4" cy="36.0" r="3" fill="#4aa3ff"/><circle cx="577.9" cy="36.0" r="3" fill="#4aa3ff"/><circle cx="580.4" cy="36.0" r="3" fill="#4aa3ff"/><circle cx="583.0" cy="36.0" r="3" fill="#4aa3ff"/><circle cx="585.5" cy="36.0" r="3" fill="#4aa3ff"/><circle cx="588.0" cy="36.0" r="3" fill="#4aa3ff"/><circle cx="590.6" cy="36.0" r="3" fill="#4aa3ff"/><circle cx="593.1" cy="36.0" r="3" fill="#4aa3ff"/><circle cx="595.6" cy="36.0" r="3" fill="#4aa3ff"/><circle cx="598.2" cy="36.0" r="3" fill="#4aa3ff"/><circle cx="600.7" cy="36.0" r="3" fill="#4aa3ff"/><circle cx="603.2" cy="36.0" r="3" fill="#4aa3ff"/><circle cx="605.8" cy="36.0" r="3" fill="#4aa3ff"/><circle cx="608.3" cy="36.0" r="3" fill="#4aa3ff"/><circle cx="610.8" cy="36.0" r="3" fill="#4aa3ff"/><circle cx="613.4" cy="36.0" r="3" fill="#4aa3ff"/><circle cx="615.9" cy="36.0" r="3" fill="#4aa3ff"/><circle cx="618.4" cy="36.0" r="3" fill="#4aa3ff"/><circle cx="621.0" cy="36.0" r="3" fill="#4aa3ff"/><circle cx="623.5" cy="36.0" r="3" fill="#4aa3ff"/><circle cx="626.0" cy="36.0" r="3" fill="#4aa3ff"/><circle cx="628.5" cy="36.0" r="3" fill="#4aa3ff"/><circle cx="631.1" cy="36.0" r="3" fill="#4aa3ff"/><circle cx="633.6" cy="36.0" r="3" fill="#4aa3ff"/><circle cx="636.1" cy="36.0" r="3" fill="#4aa3ff"/><circle cx="638.7" cy="36.0" r="3" fill="#4aa3ff"/><circle cx="641.2" cy="36.0" r="3" fill="#4aa3ff"/><circle cx="643.7" cy="36.0" r="3" fill="#4aa3ff"/><circle cx="646.3" cy="36.0" r="3" fill="#4aa3ff"/><circle cx="648.8" cy="36.0" r="3" fill="#4aa3ff"/><circle cx="651.3" cy="36.0" r="3" fill="#4aa3ff"/><circle cx="653.9" cy="36.0" r="3" fill="#4aa3ff"/><circle cx="656.4" cy="36.0" r="3" fill="#4aa3ff"/><circle cx="658.9" cy="36.0" r="3" fill="#4aa3ff"/><circle cx="661.5" cy="36.0" r="3" fill="#4aa3ff"/><circle cx="664.0" cy="36.0" r="3" fill="#4aa3ff"/>
<text x="36" y="225" fill="#6b7280" font-size="11">2026-06-26</text>
<text x="664" y="225" fill="#6b7280" font-size="11" text-anchor="end">2026-07-21</text>
<text x="36" y="212" font-family="system-ui,sans-serif" font-size="11">
<tspan fill="#4aa3ff">&#9679; open FPs</tspan>  <tspan fill="#3fb950">&#9679; closed (Anthropic acting)</tspan>  <tspan fill="#8a5a5a">&#9679; harness withdrawn</tspan></text>
<text x="664" y="22" text-anchor="end" font-family="system-ui,sans-serif" font-size="12">
<tspan fill="#4aa3ff">open 800</tspan>  <tspan fill="#3fb950">closed 0</tspan>  <tspan fill="#8a5a5a">harness 0</tspan></text>
</svg>