<svg xmlns="http://www.w3.org/2000/svg" width="700" height="234" viewBox="0 0 700 234" role="img">
<rect width="700" height="234" rx="12" fill="#16181d"/>
<text x="36" y="22" fill="#e8eaed" font-family="system-ui,sans-serif" font-size="14" font-weight="700">Is Anthropic acting? cyber/aup false positives over time</text>
<line x1="36" y1="198.0" x2="664" y2="198.0" stroke="#2a2e37" stroke-width="1"/><text x="30" y="202.0" fill="#6b7280" font-size="11" text-anchor="end">0</text><line x1="36" y1="117.0" x2="664" y2="117.0" stroke="#2a2e37" stroke-width="1"/><text x="30" y="121.0" fill="#6b7280" font-size="11" text-anchor="end">190</text><line x1="36" y1="36.0" x2="664" y2="36.0" stroke="#2a2e37" stroke-width="1"/><text x="30" y="40.0" fill="#6b7280" font-size="11" text-anchor="end">380</text>

<polyline fill="none" stroke="#8a5a5a" stroke-width="2.5" stroke-linejoin="round" points="36.0,86.7 67.4,86.7 98.8,86.7 130.2,86.7 161.6,86.7 193.0,86.7 224.4,86.7 255.8,86.7 287.2,86.7 318.6,86.7 350.0,86.7 381.4,86.7 412.8,86.7 444.2,86.7 475.6,86.7 507.0,86.7 538.4,86.7 569.8,86.7 601.2,86.7 632.6,86.7 664.0,86.7"/><circle cx="36.0" cy="86.7" r="3" fill="#8a5a5a"/><circle cx="67.4" cy="86.7" r="3" fill="#8a5a5a"/><circle cx="98.8" cy="86.7" r="3" fill="#8a5a5a"/><circle cx="130.2" cy="86.7" r="3" fill="#8a5a5a"/><circle cx="161.6" cy="86.7" r="3" fill="#8a5a5a"/><circle cx="193.0" cy="86.7" r="3" fill="#8a5a5a"/><circle cx="224.4" cy="86.7" r="3" fill="#8a5a5a"/><circle cx="255.8" cy="86.7" r="3" fill="#8a5a5a"/><circle cx="287.2" cy="86.7" r="3" fill="#8a5a5a"/><circle cx="318.6" cy="86.7" r="3" fill="#8a5a5a"/><circle cx="350.0" cy="86.7" r="3" fill="#8a5a5a"/><circle cx="381.4" cy="86.7" r="3" fill="#8a5a5a"/><circle cx="412.8" cy="86.7" r="3" fill="#8a5a5a"/><circle cx="444.2" cy="86.7" r="3" fill="#8a5a5a"/><circle cx="475.6" cy="86.7" r="3" fill="#8a5a5a"/><circle cx="507.0" cy="86.7" r="3" fill="#8a5a5a"/><circle cx="538.4" cy="86.7" r="3" fill="#8a5a5a"/><circle cx="569.8" cy="86.7" r="3" fill="#8a5a5a"/><circle cx="601.2" cy="86.7" r="3" fill="#8a5a5a"/><circle cx="632.6" cy="86.7" r="3" fill="#8a5a5a"/><circle cx="664.0" cy="86.7" r="3" fill="#8a5a5a"/>
<polyline fill="none" stroke="#3fb950" stroke-width="2.5" stroke-linejoin="round" points="36.0,198.0 67.4,198.0 98.8,198.0 130.2,198.0 161.6,198.0 193.0,198.0 224.4,198.0 255.8,198.0 287.2,198.0 318.6,198.0 350.0,198.0 381.4,198.0 412.8,198.0 444.2,198.0 475.6,198.0 507.0,198.0 538.4,198.0 569.8,198.0 601.2,198.0 632.6,198.0 664.0,198.0"/><circle cx="36.0" cy="198.0" r="3" fill="#3fb950"/><circle cx="67.4" cy="198.0" r="3" fill="#3fb950"/><circle cx="98.8" cy="198.0" r="3" fill="#3fb950"/><circle cx="130.2" cy="198.0" r="3" fill="#3fb950"/><circle cx="161.6" cy="198.0" r="3" fill="#3fb950"/><circle cx="193.0" cy="198.0" r="3" fill="#3fb950"/><circle cx="224.4" cy="198.0" r="3" fill="#3fb950"/><circle cx="255.8" cy="198.0" r="3" fill="#3fb950"/><circle cx="287.2" cy="198.0" r="3" fill="#3fb950"/><circle cx="318.6" cy="198.0" r="3" fill="#3fb950"/><circle cx="350.0" cy="198.0" r="3" fill="#3fb950"/><circle cx="381.4" cy="198.0" r="3" fill="#3fb950"/><circle cx="412.8" cy="198.0" r="3" fill="#3fb950"/><circle cx="444.2" cy="198.0" r="3" fill="#3fb950"/><circle cx="475.6" cy="198.0" r="3" fill="#3fb950"/><circle cx="507.0" cy="198.0" r="3" fill="#3fb950"/><circle cx="538.4" cy="198.0" r="3" fill="#3fb950"/><circle cx="569.8" cy="198.0" r="3" fill="#3fb950"/><circle cx="601.2" cy="198.0" r="3" fill="#3fb950"/><circle cx="632.6" cy="198.0" r="3" fill="#3fb950"/><circle cx="664.0" cy="198.0" r="3" fill="#3fb950"/>
<polyline fill="none" stroke="#4aa3ff" stroke-width="2.5" stroke-linejoin="round" points="36.0,85.0 67.4,85.0 98.8,85.0 130.2,85.0 161.6,85.0 193.0,85.0 224.4,85.0 255.8,85.0 287.2,85.0 318.6,85.0 350.0,85.0 381.4,85.0 412.8,85.0 444.2,85.0 475.6,85.0 507.0,68.0 538.4,59.9 569.8,53.9 601.2,53.9 632.6,36.0 664.0,36.0"/><circle cx="36.0" cy="85.0" r="3" fill="#4aa3ff"/><circle cx="67.4" cy="85.0" r="3" fill="#4aa3ff"/><circle cx="98.8" cy="85.0" r="3" fill="#4aa3ff"/><circle cx="130.2" cy="85.0" r="3" fill="#4aa3ff"/><circle cx="161.6" cy="85.0" r="3" fill="#4aa3ff"/><circle cx="193.0" cy="85.0" r="3" fill="#4aa3ff"/><circle cx="224.4" cy="85.0" r="3" fill="#4aa3ff"/><circle cx="255.8" cy="85.0" r="3" fill="#4aa3ff"/><circle cx="287.2" cy="85.0" r="3" fill="#4aa3ff"/><circle cx="318.6" cy="85.0" r="3" fill="#4aa3ff"/><circle cx="350.0" cy="85.0" r="3" fill="#4aa3ff"/><circle cx="381.4" cy="85.0" r="3" fill="#4aa3ff"/><circle cx="412.8" cy="85.0" r="3" fill="#4aa3ff"/><circle cx="444.2" cy="85.0" r="3" fill="#4aa3ff"/><circle cx="475.6" cy="85.0" r="3" fill="#4aa3ff"/><circle cx="507.0" cy="68.0" r="3" fill="#4aa3ff"/><circle cx="538.4" cy="59.9" r="3" fill="#4aa3ff"/><circle cx="569.8" cy="53.9" r="3" fill="#4aa3ff"/><circle cx="601.2" cy="53.9" r="3" fill="#4aa3ff"/><circle cx="632.6" cy="36.0" r="3" fill="#4aa3ff"/><circle cx="664.0" cy="36.0" r="3" fill="#4aa3ff"/>
<text x="36" y="225" fill="#6b7280" font-size="11">2026-06-26</text>
<text x="664" y="225" fill="#6b7280" font-size="11" text-anchor="end">2026-06-28</text>
<text x="36" y="212" font-family="system-ui,sans-serif" font-size="11">
<tspan fill="#4aa3ff">&#9679; open FPs</tspan>  <tspan fill="#3fb950">&#9679; closed (Anthropic acting)</tspan>  <tspan fill="#8a5a5a">&#9679; harness withdrawn</tspan></text>
<text x="664" y="22" text-anchor="end" font-family="system-ui,sans-serif" font-size="12">
<tspan fill="#4aa3ff">open 380</tspan>  <tspan fill="#3fb950">closed 0</tspan>  <tspan fill="#8a5a5a">harness 261</tspan></text>
</svg>