<svg xmlns="http://www.w3.org/2000/svg" width="700" height="234" viewBox="0 0 700 234" role="img">
<rect width="700" height="234" rx="12" fill="#16181d"/>
<text x="36" y="22" fill="#e8eaed" font-family="system-ui,sans-serif" font-size="14" font-weight="700">Is Anthropic acting? cyber/aup false positives over time</text>
<line x1="36" y1="198.0" x2="664" y2="198.0" stroke="#2a2e37" stroke-width="1"/><text x="30" y="202.0" fill="#6b7280" font-size="11" text-anchor="end">0</text><line x1="36" y1="117.0" x2="664" y2="117.0" stroke="#2a2e37" stroke-width="1"/><text x="30" y="121.0" fill="#6b7280" font-size="11" text-anchor="end">225</text><line x1="36" y1="36.0" x2="664" y2="36.0" stroke="#2a2e37" stroke-width="1"/><text x="30" y="40.0" fill="#6b7280" font-size="11" text-anchor="end">450</text>

<polyline fill="none" stroke="#8a5a5a" stroke-width="2.5" stroke-linejoin="round" points="36.0,104.0 49.4,104.0 62.7,104.0 76.1,104.0 89.4,104.0 102.8,104.0 116.2,104.0 129.5,104.0 142.9,104.0 156.3,104.0 169.6,104.0 183.0,104.0 196.3,104.0 209.7,104.0 223.1,104.0 236.4,104.0 249.8,104.0 263.1,104.0 276.5,104.0 289.9,104.0 303.2,104.0 316.6,104.0 330.0,104.0 343.3,104.0 356.7,104.0 370.0,104.0 383.4,104.0 396.8,104.0 410.1,104.0 423.5,104.0 436.9,104.0 450.2,104.0 463.6,104.0 476.9,104.0 490.3,104.0 503.7,104.0 517.0,104.0 530.4,104.0 543.7,104.0 557.1,104.0 570.5,104.0 583.8,104.0 597.2,104.0 610.6,104.0 623.9,104.0 637.3,104.0 650.6,104.0 664.0,104.0"/><circle cx="36.0" cy="104.0" r="3" fill="#8a5a5a"/><circle cx="49.4" cy="104.0" r="3" fill="#8a5a5a"/><circle cx="62.7" cy="104.0" r="3" fill="#8a5a5a"/><circle cx="76.1" cy="104.0" r="3" fill="#8a5a5a"/><circle cx="89.4" cy="104.0" r="3" fill="#8a5a5a"/><circle cx="102.8" cy="104.0" r="3" fill="#8a5a5a"/><circle cx="116.2" cy="104.0" r="3" fill="#8a5a5a"/><circle cx="129.5" cy="104.0" r="3" fill="#8a5a5a"/><circle cx="142.9" cy="104.0" r="3" fill="#8a5a5a"/><circle cx="156.3" cy="104.0" r="3" fill="#8a5a5a"/><circle cx="169.6" cy="104.0" r="3" fill="#8a5a5a"/><circle cx="183.0" cy="104.0" r="3" fill="#8a5a5a"/><circle cx="196.3" cy="104.0" r="3" fill="#8a5a5a"/><circle cx="209.7" cy="104.0" r="3" fill="#8a5a5a"/><circle cx="223.1" cy="104.0" r="3" fill="#8a5a5a"/><circle cx="236.4" cy="104.0" r="3" fill="#8a5a5a"/><circle cx="249.8" cy="104.0" r="3" fill="#8a5a5a"/><circle cx="263.1" cy="104.0" r="3" fill="#8a5a5a"/><circle cx="276.5" cy="104.0" r="3" fill="#8a5a5a"/><circle cx="289.9" cy="104.0" r="3" fill="#8a5a5a"/><circle cx="303.2" cy="104.0" r="3" fill="#8a5a5a"/><circle cx="316.6" cy="104.0" r="3" fill="#8a5a5a"/><circle cx="330.0" cy="104.0" r="3" fill="#8a5a5a"/><circle cx="343.3" cy="104.0" r="3" fill="#8a5a5a"/><circle cx="356.7" cy="104.0" r="3" fill="#8a5a5a"/><circle cx="370.0" cy="104.0" r="3" fill="#8a5a5a"/><circle cx="383.4" cy="104.0" r="3" fill="#8a5a5a"/><circle cx="396.8" cy="104.0" r="3" fill="#8a5a5a"/><circle cx="410.1" cy="104.0" r="3" fill="#8a5a5a"/><circle cx="423.5" cy="104.0" r="3" fill="#8a5a5a"/><circle cx="436.9" cy="104.0" r="3" fill="#8a5a5a"/><circle cx="450.2" cy="104.0" r="3" fill="#8a5a5a"/><circle cx="463.6" cy="104.0" r="3" fill="#8a5a5a"/><circle cx="476.9" cy="104.0" r="3" fill="#8a5a5a"/><circle cx="490.3" cy="104.0" r="3" fill="#8a5a5a"/><circle cx="503.7" cy="104.0" r="3" fill="#8a5a5a"/><circle cx="517.0" cy="104.0" r="3" fill="#8a5a5a"/><circle cx="530.4" cy="104.0" r="3" fill="#8a5a5a"/><circle cx="543.7" cy="104.0" r="3" fill="#8a5a5a"/><circle cx="557.1" cy="104.0" r="3" fill="#8a5a5a"/><circle cx="570.5" cy="104.0" r="3" fill="#8a5a5a"/><circle cx="583.8" cy="104.0" r="3" fill="#8a5a5a"/><circle cx="597.2" cy="104.0" r="3" fill="#8a5a5a"/><circle cx="610.6" cy="104.0" r="3" fill="#8a5a5a"/><circle cx="623.9" cy="104.0" r="3" fill="#8a5a5a"/><circle cx="637.3" cy="104.0" r="3" fill="#8a5a5a"/><circle cx="650.6" cy="104.0" r="3" fill="#8a5a5a"/><circle cx="664.0" cy="104.0" r="3" fill="#8a5a5a"/>
<polyline fill="none" stroke="#3fb950" stroke-width="2.5" stroke-linejoin="round" points="36.0,198.0 49.4,198.0 62.7,198.0 76.1,198.0 89.4,198.0 102.8,198.0 116.2,198.0 129.5,198.0 142.9,198.0 156.3,198.0 169.6,198.0 183.0,198.0 196.3,198.0 209.7,198.0 223.1,198.0 236.4,198.0 249.8,198.0 263.1,198.0 276.5,198.0 289.9,198.0 303.2,198.0 316.6,198.0 330.0,198.0 343.3,198.0 356.7,198.0 370.0,198.0 383.4,198.0 396.8,198.0 410.1,198.0 423.5,198.0 436.9,198.0 450.2,198.0 463.6,198.0 476.9,198.0 490.3,198.0 503.7,198.0 517.0,198.0 530.4,198.0 543.7,198.0 557.1,198.0 570.5,198.0 583.8,198.0 597.2,198.0 610.6,186.8 623.9,186.8 637.3,186.8 650.6,186.8 664.0,186.8"/><circle cx="36.0" cy="198.0" r="3" fill="#3fb950"/><circle cx="49.4" cy="198.0" r="3" fill="#3fb950"/><circle cx="62.7" cy="198.0" r="3" fill="#3fb950"/><circle cx="76.1" cy="198.0" r="3" fill="#3fb950"/><circle cx="89.4" cy="198.0" r="3" fill="#3fb950"/><circle cx="102.8" cy="198.0" r="3" fill="#3fb950"/><circle cx="116.2" cy="198.0" r="3" fill="#3fb950"/><circle cx="129.5" cy="198.0" r="3" fill="#3fb950"/><circle cx="142.9" cy="198.0" r="3" fill="#3fb950"/><circle cx="156.3" cy="198.0" r="3" fill="#3fb950"/><circle cx="169.6" cy="198.0" r="3" fill="#3fb950"/><circle cx="183.0" cy="198.0" r="3" fill="#3fb950"/><circle cx="196.3" cy="198.0" r="3" fill="#3fb950"/><circle cx="209.7" cy="198.0" r="3" fill="#3fb950"/><circle cx="223.1" cy="198.0" r="3" fill="#3fb950"/><circle cx="236.4" cy="198.0" r="3" fill="#3fb950"/><circle cx="249.8" cy="198.0" r="3" fill="#3fb950"/><circle cx="263.1" cy="198.0" r="3" fill="#3fb950"/><circle cx="276.5" cy="198.0" r="3" fill="#3fb950"/><circle cx="289.9" cy="198.0" r="3" fill="#3fb950"/><circle cx="303.2" cy="198.0" r="3" fill="#3fb950"/><circle cx="316.6" cy="198.0" r="3" fill="#3fb950"/><circle cx="330.0" cy="198.0" r="3" fill="#3fb950"/><circle cx="343.3" cy="198.0" r="3" fill="#3fb950"/><circle cx="356.7" cy="198.0" r="3" fill="#3fb950"/><circle cx="370.0" cy="198.0" r="3" fill="#3fb950"/><circle cx="383.4" cy="198.0" r="3" fill="#3fb950"/><circle cx="396.8" cy="198.0" r="3" fill="#3fb950"/><circle cx="410.1" cy="198.0" r="3" fill="#3fb950"/><circle cx="423.5" cy="198.0" r="3" fill="#3fb950"/><circle cx="436.9" cy="198.0" r="3" fill="#3fb950"/><circle cx="450.2" cy="198.0" r="3" fill="#3fb950"/><circle cx="463.6" cy="198.0" r="3" fill="#3fb950"/><circle cx="476.9" cy="198.0" r="3" fill="#3fb950"/><circle cx="490.3" cy="198.0" r="3" fill="#3fb950"/><circle cx="503.7" cy="198.0" r="3" fill="#3fb950"/><circle cx="517.0" cy="198.0" r="3" fill="#3fb950"/><circle cx="530.4" cy="198.0" r="3" fill="#3fb950"/><circle cx="543.7" cy="198.0" r="3" fill="#3fb950"/><circle cx="557.1" cy="198.0" r="3" fill="#3fb950"/><circle cx="570.5" cy="198.0" r="3" fill="#3fb950"/><circle cx="583.8" cy="198.0" r="3" fill="#3fb950"/><circle cx="597.2" cy="198.0" r="3" fill="#3fb950"/><circle cx="610.6" cy="186.8" r="3" fill="#3fb950"/><circle cx="623.9" cy="186.8" r="3" fill="#3fb950"/><circle cx="637.3" cy="186.8" r="3" fill="#3fb950"/><circle cx="650.6" cy="186.8" r="3" fill="#3fb950"/><circle cx="664.0" cy="186.8" r="3" fill="#3fb950"/>
<polyline fill="none" stroke="#4aa3ff" stroke-width="2.5" stroke-linejoin="round" points="36.0,102.6 49.4,102.6 62.7,102.6 76.1,102.6 89.4,102.6 102.8,102.6 116.2,102.6 129.5,102.6 142.9,102.6 156.3,102.6 169.6,102.6 183.0,102.6 196.3,102.6 209.7,102.6 223.1,102.6 236.4,88.2 249.8,81.4 263.1,76.3 276.5,76.3 289.9,61.2 303.2,61.2 316.6,61.2 330.0,49.3 343.3,49.3 356.7,49.3 370.0,43.9 383.4,43.2 396.8,43.2 410.1,42.5 423.5,42.5 436.9,41.4 450.2,39.2 463.6,36.7 476.9,36.0 490.3,36.0 503.7,36.0 517.0,36.0 530.4,36.0 543.7,36.0 557.1,36.0 570.5,36.0 583.8,36.0 597.2,36.0 610.6,47.2 623.9,47.2 637.3,47.2 650.6,47.2 664.0,47.2"/><circle cx="36.0" cy="102.6" r="3" fill="#4aa3ff"/><circle cx="49.4" cy="102.6" r="3" fill="#4aa3ff"/><circle cx="62.7" cy="102.6" r="3" fill="#4aa3ff"/><circle cx="76.1" cy="102.6" r="3" fill="#4aa3ff"/><circle cx="89.4" cy="102.6" r="3" fill="#4aa3ff"/><circle cx="102.8" cy="102.6" r="3" fill="#4aa3ff"/><circle cx="116.2" cy="102.6" r="3" fill="#4aa3ff"/><circle cx="129.5" cy="102.6" r="3" fill="#4aa3ff"/><circle cx="142.9" cy="102.6" r="3" fill="#4aa3ff"/><circle cx="156.3" cy="102.6" r="3" fill="#4aa3ff"/><circle cx="169.6" cy="102.6" r="3" fill="#4aa3ff"/><circle cx="183.0" cy="102.6" r="3" fill="#4aa3ff"/><circle cx="196.3" cy="102.6" r="3" fill="#4aa3ff"/><circle cx="209.7" cy="102.6" r="3" fill="#4aa3ff"/><circle cx="223.1" cy="102.6" r="3" fill="#4aa3ff"/><circle cx="236.4" cy="88.2" r="3" fill="#4aa3ff"/><circle cx="249.8" cy="81.4" r="3" fill="#4aa3ff"/><circle cx="263.1" cy="76.3" r="3" fill="#4aa3ff"/><circle cx="276.5" cy="76.3" r="3" fill="#4aa3ff"/><circle cx="289.9" cy="61.2" r="3" fill="#4aa3ff"/><circle cx="303.2" cy="61.2" r="3" fill="#4aa3ff"/><circle cx="316.6" cy="61.2" r="3" fill="#4aa3ff"/><circle cx="330.0" cy="49.3" r="3" fill="#4aa3ff"/><circle cx="343.3" cy="49.3" r="3" fill="#4aa3ff"/><circle cx="356.7" cy="49.3" r="3" fill="#4aa3ff"/><circle cx="370.0" cy="43.9" r="3" fill="#4aa3ff"/><circle cx="383.4" cy="43.2" r="3" fill="#4aa3ff"/><circle cx="396.8" cy="43.2" r="3" fill="#4aa3ff"/><circle cx="410.1" cy="42.5" r="3" fill="#4aa3ff"/><circle cx="423.5" cy="42.5" r="3" fill="#4aa3ff"/><circle cx="436.9" cy="41.4" r="3" fill="#4aa3ff"/><circle cx="450.2" cy="39.2" r="3" fill="#4aa3ff"/><circle cx="463.6" cy="36.7" r="3" fill="#4aa3ff"/><circle cx="476.9" cy="36.0" r="3" fill="#4aa3ff"/><circle cx="490.3" cy="36.0" r="3" fill="#4aa3ff"/><circle cx="503.7" cy="36.0" r="3" fill="#4aa3ff"/><circle cx="517.0" cy="36.0" r="3" fill="#4aa3ff"/><circle cx="530.4" cy="36.0" r="3" fill="#4aa3ff"/><circle cx="543.7" cy="36.0" r="3" fill="#4aa3ff"/><circle cx="557.1" cy="36.0" r="3" fill="#4aa3ff"/><circle cx="570.5" cy="36.0" r="3" fill="#4aa3ff"/><circle cx="583.8" cy="36.0" r="3" fill="#4aa3ff"/><circle cx="597.2" cy="36.0" r="3" fill="#4aa3ff"/><circle cx="610.6" cy="47.2" r="3" fill="#4aa3ff"/><circle cx="623.9" cy="47.2" r="3" fill="#4aa3ff"/><circle cx="637.3" cy="47.2" r="3" fill="#4aa3ff"/><circle cx="650.6" cy="47.2" r="3" fill="#4aa3ff"/><circle cx="664.0" cy="47.2" r="3" fill="#4aa3ff"/>
<text x="36" y="225" fill="#6b7280" font-size="11">2026-06-26</text>
<text x="664" y="225" fill="#6b7280" font-size="11" text-anchor="end">2026-07-01</text>
<text x="36" y="212" font-family="system-ui,sans-serif" font-size="11">
<tspan fill="#4aa3ff">&#9679; open FPs</tspan>  <tspan fill="#3fb950">&#9679; closed (Anthropic acting)</tspan>  <tspan fill="#8a5a5a">&#9679; harness withdrawn</tspan></text>
<text x="664" y="22" text-anchor="end" font-family="system-ui,sans-serif" font-size="12">
<tspan fill="#4aa3ff">open 419</tspan>  <tspan fill="#3fb950">closed 31</tspan>  <tspan fill="#8a5a5a">harness 261</tspan></text>
</svg>