<svg xmlns="http://www.w3.org/2000/svg" width="700" height="234" viewBox="0 0 700 234" role="img">
<rect width="700" height="234" rx="12" fill="#16181d"/>
<text x="36" y="22" fill="#e8eaed" font-family="system-ui,sans-serif" font-size="14" font-weight="700">Is Anthropic acting? cyber/aup false positives over time</text>
<line x1="36" y1="198.0" x2="664" y2="198.0" stroke="#2a2e37" stroke-width="1"/><text x="30" y="202.0" fill="#6b7280" font-size="11" text-anchor="end">0</text><line x1="36" y1="117.0" x2="664" y2="117.0" stroke="#2a2e37" stroke-width="1"/><text x="30" y="121.0" fill="#6b7280" font-size="11" text-anchor="end">400</text><line x1="36" y1="36.0" x2="664" y2="36.0" stroke="#2a2e37" stroke-width="1"/><text x="30" y="40.0" fill="#6b7280" font-size="11" text-anchor="end">800</text>

<polyline fill="none" stroke="#8a5a5a" stroke-width="2.5" stroke-linejoin="round" points="36.0,145.1 39.0,145.1 42.1,145.1 45.1,145.1 48.2,145.1 51.2,145.1 54.3,145.1 57.3,145.1 60.4,145.1 63.4,145.1 66.5,145.1 69.5,145.1 72.6,145.1 75.6,145.1 78.7,145.1 81.7,145.1 84.8,145.1 87.8,145.1 90.9,145.1 93.9,145.1 97.0,145.1 100.0,145.1 103.1,145.1 106.1,145.1 109.2,145.1 112.2,145.1 115.3,145.1 118.3,145.1 121.4,145.1 124.4,145.1 127.5,145.1 130.5,145.1 133.6,145.1 136.6,145.1 139.7,145.1 142.7,145.1 145.7,145.1 148.8,145.1 151.8,145.1 154.9,145.1 157.9,145.1 161.0,145.1 164.0,145.1 167.1,145.1 170.1,145.1 173.2,145.1 176.2,145.1 179.3,145.1 182.3,145.1 185.4,145.1 188.4,155.7 191.5,155.7 194.5,155.7 197.6,155.7 200.6,155.7 203.7,155.7 206.7,155.7 209.8,155.7 212.8,155.7 215.9,155.7 218.9,155.7 222.0,155.7 225.0,155.7 228.1,155.7 231.1,155.7 234.2,155.7 237.2,155.7 240.3,155.7 243.3,155.7 246.3,155.7 249.4,155.7 252.4,155.7 255.5,155.7 258.5,155.7 261.6,155.7 264.6,155.7 267.7,155.7 270.7,155.7 273.8,155.7 276.8,155.7 279.9,155.7 282.9,155.7 286.0,155.7 289.0,155.7 292.1,167.6 295.1,167.6 298.2,170.3 301.2,170.3 304.3,170.5 307.3,170.7 310.4,170.7 313.4,170.9 316.5,172.7 319.5,180.6 322.6,181.8 325.6,189.1 328.7,190.5 331.7,195.2 334.8,198.0 337.8,198.0 340.9,198.0 343.9,198.0 347.0,198.0 350.0,198.0 353.0,198.0 356.1,198.0 359.1,198.0 362.2,198.0 365.2,198.0 368.3,198.0 371.3,198.0 374.4,198.0 377.4,198.0 380.5,198.0 383.5,198.0 386.6,198.0 389.6,198.0 392.7,198.0 395.7,198.0 398.8,198.0 401.8,198.0 404.9,198.0 407.9,198.0 411.0,198.0 414.0,198.0 417.1,198.0 420.1,198.0 423.2,198.0 426.2,198.0 429.3,198.0 432.3,198.0 435.4,198.0 438.4,198.0 441.5,198.0 444.5,198.0 447.6,198.0 450.6,198.0 453.7,198.0 456.7,198.0 459.7,198.0 462.8,198.0 465.8,198.0 468.9,198.0 471.9,198.0 475.0,198.0 478.0,198.0 481.1,198.0 484.1,198.0 487.2,198.0 490.2,198.0 493.3,198.0 496.3,198.0 499.4,198.0 502.4,198.0 505.5,198.0 508.5,198.0 511.6,198.0 514.6,198.0 517.7,198.0 520.7,198.0 523.8,198.0 526.8,198.0 529.9,198.0 532.9,198.0 536.0,198.0 539.0,198.0 542.1,198.0 545.1,198.0 548.2,198.0 551.2,198.0 554.3,198.0 557.3,198.0 560.3,198.0 563.4,198.0 566.4,198.0 569.5,198.0 572.5,198.0 575.6,198.0 578.6,198.0 581.7,198.0 584.7,198.0 587.8,198.0 590.8,198.0 593.9,198.0 596.9,198.0 600.0,198.0 603.0,198.0 606.1,198.0 609.1,198.0 612.2,198.0 615.2,198.0 618.3,198.0 621.3,198.0 624.4,198.0 627.4,198.0 630.5,198.0 633.5,198.0 636.6,198.0 639.6,198.0 642.7,198.0 645.7,198.0 648.8,198.0 651.8,198.0 654.9,198.0 657.9,198.0 661.0,198.0 664.0,198.0"/><circle cx="36.0" cy="145.1" r="3" fill="#8a5a5a"/><circle cx="39.0" cy="145.1" r="3" fill="#8a5a5a"/><circle cx="42.1" cy="145.1" r="3" fill="#8a5a5a"/><circle cx="45.1" cy="145.1" r="3" fill="#8a5a5a"/><circle cx="48.2" cy="145.1" r="3" fill="#8a5a5a"/><circle cx="51.2" cy="145.1" r="3" fill="#8a5a5a"/><circle cx="54.3" cy="145.1" r="3" fill="#8a5a5a"/><circle cx="57.3" cy="145.1" r="3" fill="#8a5a5a"/><circle cx="60.4" cy="145.1" r="3" fill="#8a5a5a"/><circle cx="63.4" cy="145.1" r="3" fill="#8a5a5a"/><circle cx="66.5" cy="145.1" r="3" fill="#8a5a5a"/><circle cx="69.5" cy="145.1" r="3" fill="#8a5a5a"/><circle cx="72.6" cy="145.1" r="3" fill="#8a5a5a"/><circle cx="75.6" cy="145.1" r="3" fill="#8a5a5a"/><circle cx="78.7" cy="145.1" r="3" fill="#8a5a5a"/><circle cx="81.7" cy="145.1" r="3" fill="#8a5a5a"/><circle cx="84.8" cy="145.1" r="3" fill="#8a5a5a"/><circle cx="87.8" cy="145.1" r="3" fill="#8a5a5a"/><circle cx="90.9" cy="145.1" r="3" fill="#8a5a5a"/><circle cx="93.9" cy="145.1" r="3" fill="#8a5a5a"/><circle cx="97.0" cy="145.1" r="3" fill="#8a5a5a"/><circle cx="100.0" cy="145.1" r="3" fill="#8a5a5a"/><circle cx="103.1" cy="145.1" r="3" fill="#8a5a5a"/><circle cx="106.1" cy="145.1" r="3" fill="#8a5a5a"/><circle cx="109.2" cy="145.1" r="3" fill="#8a5a5a"/><circle cx="112.2" cy="145.1" r="3" fill="#8a5a5a"/><circle cx="115.3" cy="145.1" r="3" fill="#8a5a5a"/><circle cx="118.3" cy="145.1" r="3" fill="#8a5a5a"/><circle cx="121.4" cy="145.1" r="3" fill="#8a5a5a"/><circle cx="124.4" cy="145.1" r="3" fill="#8a5a5a"/><circle cx="127.5" cy="145.1" r="3" fill="#8a5a5a"/><circle cx="130.5" cy="145.1" r="3" fill="#8a5a5a"/><circle cx="133.6" cy="145.1" r="3" fill="#8a5a5a"/><circle cx="136.6" cy="145.1" r="3" fill="#8a5a5a"/><circle cx="139.7" cy="145.1" r="3" fill="#8a5a5a"/><circle cx="142.7" cy="145.1" r="3" fill="#8a5a5a"/><circle cx="145.7" cy="145.1" r="3" fill="#8a5a5a"/><circle cx="148.8" cy="145.1" r="3" fill="#8a5a5a"/><circle cx="151.8" cy="145.1" r="3" fill="#8a5a5a"/><circle cx="154.9" cy="145.1" r="3" fill="#8a5a5a"/><circle cx="157.9" cy="145.1" r="3" fill="#8a5a5a"/><circle cx="161.0" cy="145.1" r="3" fill="#8a5a5a"/><circle cx="164.0" cy="145.1" r="3" fill="#8a5a5a"/><circle cx="167.1" cy="145.1" r="3" fill="#8a5a5a"/><circle cx="170.1" cy="145.1" r="3" fill="#8a5a5a"/><circle cx="173.2" cy="145.1" r="3" fill="#8a5a5a"/><circle cx="176.2" cy="145.1" r="3" fill="#8a5a5a"/><circle cx="179.3" cy="145.1" r="3" fill="#8a5a5a"/><circle cx="182.3" cy="145.1" r="3" fill="#8a5a5a"/><circle cx="185.4" cy="145.1" r="3" fill="#8a5a5a"/><circle cx="188.4" cy="155.7" r="3" fill="#8a5a5a"/><circle cx="191.5" cy="155.7" r="3" fill="#8a5a5a"/><circle cx="194.5" cy="155.7" r="3" fill="#8a5a5a"/><circle cx="197.6" cy="155.7" r="3" fill="#8a5a5a"/><circle cx="200.6" cy="155.7" r="3" fill="#8a5a5a"/><circle cx="203.7" cy="155.7" r="3" fill="#8a5a5a"/><circle cx="206.7" cy="155.7" r="3" fill="#8a5a5a"/><circle cx="209.8" cy="155.7" r="3" fill="#8a5a5a"/><circle cx="212.8" cy="155.7" r="3" fill="#8a5a5a"/><circle cx="215.9" cy="155.7" r="3" fill="#8a5a5a"/><circle cx="218.9" cy="155.7" r="3" fill="#8a5a5a"/><circle cx="222.0" cy="155.7" r="3" fill="#8a5a5a"/><circle cx="225.0" cy="155.7" r="3" fill="#8a5a5a"/><circle cx="228.1" cy="155.7" r="3" fill="#8a5a5a"/><circle cx="231.1" cy="155.7" r="3" fill="#8a5a5a"/><circle cx="234.2" cy="155.7" r="3" fill="#8a5a5a"/><circle cx="237.2" cy="155.7" r="3" fill="#8a5a5a"/><circle cx="240.3" cy="155.7" r="3" fill="#8a5a5a"/><circle cx="243.3" cy="155.7" r="3" fill="#8a5a5a"/><circle cx="246.3" cy="155.7" r="3" fill="#8a5a5a"/><circle cx="249.4" cy="155.7" r="3" fill="#8a5a5a"/><circle cx="252.4" cy="155.7" r="3" fill="#8a5a5a"/><circle cx="255.5" cy="155.7" r="3" fill="#8a5a5a"/><circle cx="258.5" cy="155.7" r="3" fill="#8a5a5a"/><circle cx="261.6" cy="155.7" r="3" fill="#8a5a5a"/><circle cx="264.6" cy="155.7" r="3" fill="#8a5a5a"/><circle cx="267.7" cy="155.7" r="3" fill="#8a5a5a"/><circle cx="270.7" cy="155.7" r="3" fill="#8a5a5a"/><circle cx="273.8" cy="155.7" r="3" fill="#8a5a5a"/><circle cx="276.8" cy="155.7" r="3" fill="#8a5a5a"/><circle cx="279.9" cy="155.7" r="3" fill="#8a5a5a"/><circle cx="282.9" cy="155.7" r="3" fill="#8a5a5a"/><circle cx="286.0" cy="155.7" r="3" fill="#8a5a5a"/><circle cx="289.0" cy="155.7" r="3" fill="#8a5a5a"/><circle cx="292.1" cy="167.6" r="3" fill="#8a5a5a"/><circle cx="295.1" cy="167.6" r="3" fill="#8a5a5a"/><circle cx="298.2" cy="170.3" r="3" fill="#8a5a5a"/><circle cx="301.2" cy="170.3" r="3" fill="#8a5a5a"/><circle cx="304.3" cy="170.5" r="3" fill="#8a5a5a"/><circle cx="307.3" cy="170.7" r="3" fill="#8a5a5a"/><circle cx="310.4" cy="170.7" r="3" fill="#8a5a5a"/><circle cx="313.4" cy="170.9" r="3" fill="#8a5a5a"/><circle cx="316.5" cy="172.7" r="3" fill="#8a5a5a"/><circle cx="319.5" cy="180.6" r="3" fill="#8a5a5a"/><circle cx="322.6" cy="181.8" r="3" fill="#8a5a5a"/><circle cx="325.6" cy="189.1" r="3" fill="#8a5a5a"/><circle cx="328.7" cy="190.5" r="3" fill="#8a5a5a"/><circle cx="331.7" cy="195.2" r="3" fill="#8a5a5a"/><circle cx="334.8" cy="198.0" r="3" fill="#8a5a5a"/><circle cx="337.8" cy="198.0" r="3" fill="#8a5a5a"/><circle cx="340.9" cy="198.0" r="3" fill="#8a5a5a"/><circle cx="343.9" cy="198.0" r="3" fill="#8a5a5a"/><circle cx="347.0" cy="198.0" r="3" fill="#8a5a5a"/><circle cx="350.0" cy="198.0" r="3" fill="#8a5a5a"/><circle cx="353.0" cy="198.0" r="3" fill="#8a5a5a"/><circle cx="356.1" cy="198.0" r="3" fill="#8a5a5a"/><circle cx="359.1" cy="198.0" r="3" fill="#8a5a5a"/><circle cx="362.2" cy="198.0" r="3" fill="#8a5a5a"/><circle cx="365.2" cy="198.0" r="3" fill="#8a5a5a"/><circle cx="368.3" cy="198.0" r="3" fill="#8a5a5a"/><circle cx="371.3" cy="198.0" r="3" fill="#8a5a5a"/><circle cx="374.4" cy="198.0" r="3" fill="#8a5a5a"/><circle cx="377.4" cy="198.0" r="3" fill="#8a5a5a"/><circle cx="380.5" cy="198.0" r="3" fill="#8a5a5a"/><circle cx="383.5" cy="198.0" r="3" fill="#8a5a5a"/><circle cx="386.6" cy="198.0" r="3" fill="#8a5a5a"/><circle cx="389.6" cy="198.0" r="3" fill="#8a5a5a"/><circle cx="392.7" cy="198.0" r="3" fill="#8a5a5a"/><circle cx="395.7" cy="198.0" r="3" fill="#8a5a5a"/><circle cx="398.8" cy="198.0" r="3" fill="#8a5a5a"/><circle cx="401.8" cy="198.0" r="3" fill="#8a5a5a"/><circle cx="404.9" cy="198.0" r="3" fill="#8a5a5a"/><circle cx="407.9" cy="198.0" r="3" fill="#8a5a5a"/><circle cx="411.0" cy="198.0" r="3" fill="#8a5a5a"/><circle cx="414.0" cy="198.0" r="3" fill="#8a5a5a"/><circle cx="417.1" cy="198.0" r="3" fill="#8a5a5a"/><circle cx="420.1" cy="198.0" r="3" fill="#8a5a5a"/><circle cx="423.2" cy="198.0" r="3" fill="#8a5a5a"/><circle cx="426.2" cy="198.0" r="3" fill="#8a5a5a"/><circle cx="429.3" cy="198.0" r="3" fill="#8a5a5a"/><circle cx="432.3" cy="198.0" r="3" fill="#8a5a5a"/><circle cx="435.4" cy="198.0" r="3" fill="#8a5a5a"/><circle cx="438.4" cy="198.0" r="3" fill="#8a5a5a"/><circle cx="441.5" cy="198.0" r="3" fill="#8a5a5a"/><circle cx="444.5" cy="198.0" r="3" fill="#8a5a5a"/><circle cx="447.6" cy="198.0" r="3" fill="#8a5a5a"/><circle cx="450.6" cy="198.0" r="3" fill="#8a5a5a"/><circle cx="453.7" cy="198.0" r="3" fill="#8a5a5a"/><circle cx="456.7" cy="198.0" r="3" fill="#8a5a5a"/><circle cx="459.7" cy="198.0" r="3" fill="#8a5a5a"/><circle cx="462.8" cy="198.0" r="3" fill="#8a5a5a"/><circle cx="465.8" cy="198.0" r="3" fill="#8a5a5a"/><circle cx="468.9" cy="198.0" r="3" fill="#8a5a5a"/><circle cx="471.9" cy="198.0" r="3" fill="#8a5a5a"/><circle cx="475.0" cy="198.0" r="3" fill="#8a5a5a"/><circle cx="478.0" cy="198.0" r="3" fill="#8a5a5a"/><circle cx="481.1" cy="198.0" r="3" fill="#8a5a5a"/><circle cx="484.1" cy="198.0" r="3" fill="#8a5a5a"/><circle cx="487.2" cy="198.0" r="3" fill="#8a5a5a"/><circle cx="490.2" cy="198.0" r="3" fill="#8a5a5a"/><circle cx="493.3" cy="198.0" r="3" fill="#8a5a5a"/><circle cx="496.3" cy="198.0" r="3" fill="#8a5a5a"/><circle cx="499.4" cy="198.0" r="3" fill="#8a5a5a"/><circle cx="502.4" cy="198.0" r="3" fill="#8a5a5a"/><circle cx="505.5" cy="198.0" r="3" fill="#8a5a5a"/><circle cx="508.5" cy="198.0" r="3" fill="#8a5a5a"/><circle cx="511.6" cy="198.0" r="3" fill="#8a5a5a"/><circle cx="514.6" cy="198.0" r="3" fill="#8a5a5a"/><circle cx="517.7" cy="198.0" r="3" fill="#8a5a5a"/><circle cx="520.7" cy="198.0" r="3" fill="#8a5a5a"/><circle cx="523.8" cy="198.0" r="3" fill="#8a5a5a"/><circle cx="526.8" cy="198.0" r="3" fill="#8a5a5a"/><circle cx="529.9" cy="198.0" r="3" fill="#8a5a5a"/><circle cx="532.9" cy="198.0" r="3" fill="#8a5a5a"/><circle cx="536.0" cy="198.0" r="3" fill="#8a5a5a"/><circle cx="539.0" cy="198.0" r="3" fill="#8a5a5a"/><circle cx="542.1" cy="198.0" r="3" fill="#8a5a5a"/><circle cx="545.1" cy="198.0" r="3" fill="#8a5a5a"/><circle cx="548.2" cy="198.0" r="3" fill="#8a5a5a"/><circle cx="551.2" cy="198.0" r="3" fill="#8a5a5a"/><circle cx="554.3" cy="198.0" r="3" fill="#8a5a5a"/><circle cx="557.3" cy="198.0" r="3" fill="#8a5a5a"/><circle cx="560.3" cy="198.0" r="3" fill="#8a5a5a"/><circle cx="563.4" cy="198.0" r="3" fill="#8a5a5a"/><circle cx="566.4" cy="198.0" r="3" fill="#8a5a5a"/><circle cx="569.5" cy="198.0" r="3" fill="#8a5a5a"/><circle cx="572.5" cy="198.0" r="3" fill="#8a5a5a"/><circle cx="575.6" cy="198.0" r="3" fill="#8a5a5a"/><circle cx="578.6" cy="198.0" r="3" fill="#8a5a5a"/><circle cx="581.7" cy="198.0" r="3" fill="#8a5a5a"/><circle cx="584.7" cy="198.0" r="3" fill="#8a5a5a"/><circle cx="587.8" cy="198.0" r="3" fill="#8a5a5a"/><circle cx="590.8" cy="198.0" r="3" fill="#8a5a5a"/><circle cx="593.9" cy="198.0" r="3" fill="#8a5a5a"/><circle cx="596.9" cy="198.0" r="3" fill="#8a5a5a"/><circle cx="600.0" cy="198.0" r="3" fill="#8a5a5a"/><circle cx="603.0" cy="198.0" r="3" fill="#8a5a5a"/><circle cx="606.1" cy="198.0" r="3" fill="#8a5a5a"/><circle cx="609.1" cy="198.0" r="3" fill="#8a5a5a"/><circle cx="612.2" cy="198.0" r="3" fill="#8a5a5a"/><circle cx="615.2" cy="198.0" r="3" fill="#8a5a5a"/><circle cx="618.3" cy="198.0" r="3" fill="#8a5a5a"/><circle cx="621.3" cy="198.0" r="3" fill="#8a5a5a"/><circle cx="624.4" cy="198.0" r="3" fill="#8a5a5a"/><circle cx="627.4" cy="198.0" r="3" fill="#8a5a5a"/><circle cx="630.5" cy="198.0" r="3" fill="#8a5a5a"/><circle cx="633.5" cy="198.0" r="3" fill="#8a5a5a"/><circle cx="636.6" cy="198.0" r="3" fill="#8a5a5a"/><circle cx="639.6" cy="198.0" r="3" fill="#8a5a5a"/><circle cx="642.7" cy="198.0" r="3" fill="#8a5a5a"/><circle cx="645.7" cy="198.0" r="3" fill="#8a5a5a"/><circle cx="648.8" cy="198.0" r="3" fill="#8a5a5a"/><circle cx="651.8" cy="198.0" r="3" fill="#8a5a5a"/><circle cx="654.9" cy="198.0" r="3" fill="#8a5a5a"/><circle cx="657.9" cy="198.0" r="3" fill="#8a5a5a"/><circle cx="661.0" cy="198.0" r="3" fill="#8a5a5a"/><circle cx="664.0" cy="198.0" r="3" fill="#8a5a5a"/>
<polyline fill="none" stroke="#3fb950" stroke-width="2.5" stroke-linejoin="round" points="36.0,198.0 39.0,198.0 42.1,198.0 45.1,198.0 48.2,198.0 51.2,198.0 54.3,198.0 57.3,198.0 60.4,198.0 63.4,198.0 66.5,198.0 69.5,198.0 72.6,198.0 75.6,198.0 78.7,198.0 81.7,198.0 84.8,198.0 87.8,198.0 90.9,198.0 93.9,198.0 97.0,198.0 100.0,198.0 103.1,198.0 106.1,198.0 109.2,198.0 112.2,198.0 115.3,198.0 118.3,198.0 121.4,198.0 124.4,198.0 127.5,198.0 130.5,198.0 133.6,198.0 136.6,198.0 139.7,198.0 142.7,198.0 145.7,198.0 148.8,198.0 151.8,198.0 154.9,198.0 157.9,198.0 161.0,198.0 164.0,198.0 167.1,191.7 170.1,191.7 173.2,191.7 176.2,191.7 179.3,191.7 182.3,191.7 185.4,191.7 188.4,192.9 191.5,192.9 194.5,190.7 197.6,190.7 200.6,190.7 203.7,190.7 206.7,190.7 209.8,190.5 212.8,190.5 215.9,190.5 218.9,190.3 222.0,190.3 225.0,190.3 228.1,190.3 231.1,190.3 234.2,190.3 237.2,190.3 240.3,190.3 243.3,190.3 246.3,190.3 249.4,190.3 252.4,190.3 255.5,190.3 258.5,190.3 261.6,190.3 264.6,190.3 267.7,190.3 270.7,190.3 273.8,190.3 276.8,190.3 279.9,190.3 282.9,189.3 286.0,189.3 289.0,189.3 292.1,190.7 295.1,190.7 298.2,190.7 301.2,190.7 304.3,190.7 307.3,190.7 310.4,190.7 313.4,190.7 316.5,190.7 319.5,190.9 322.6,190.9 325.6,190.9 328.7,194.2 331.7,196.8 334.8,198.0 337.8,198.0 340.9,198.0 343.9,198.0 347.0,198.0 350.0,198.0 353.0,198.0 356.1,198.0 359.1,198.0 362.2,198.0 365.2,198.0 368.3,198.0 371.3,198.0 374.4,198.0 377.4,198.0 380.5,198.0 383.5,198.0 386.6,198.0 389.6,198.0 392.7,198.0 395.7,198.0 398.8,198.0 401.8,198.0 404.9,198.0 407.9,198.0 411.0,198.0 414.0,198.0 417.1,198.0 420.1,198.0 423.2,198.0 426.2,198.0 429.3,198.0 432.3,198.0 435.4,198.0 438.4,198.0 441.5,198.0 444.5,198.0 447.6,198.0 450.6,198.0 453.7,198.0 456.7,198.0 459.7,198.0 462.8,198.0 465.8,198.0 468.9,198.0 471.9,198.0 475.0,198.0 478.0,198.0 481.1,198.0 484.1,198.0 487.2,198.0 490.2,198.0 493.3,198.0 496.3,198.0 499.4,198.0 502.4,198.0 505.5,198.0 508.5,198.0 511.6,198.0 514.6,198.0 517.7,198.0 520.7,198.0 523.8,198.0 526.8,198.0 529.9,198.0 532.9,198.0 536.0,198.0 539.0,198.0 542.1,198.0 545.1,198.0 548.2,198.0 551.2,198.0 554.3,198.0 557.3,198.0 560.3,198.0 563.4,198.0 566.4,198.0 569.5,198.0 572.5,198.0 575.6,198.0 578.6,198.0 581.7,198.0 584.7,198.0 587.8,198.0 590.8,198.0 593.9,198.0 596.9,198.0 600.0,198.0 603.0,198.0 606.1,198.0 609.1,198.0 612.2,198.0 615.2,198.0 618.3,198.0 621.3,198.0 624.4,198.0 627.4,198.0 630.5,198.0 633.5,198.0 636.6,198.0 639.6,198.0 642.7,198.0 645.7,198.0 648.8,198.0 651.8,198.0 654.9,198.0 657.9,198.0 661.0,198.0 664.0,198.0"/><circle cx="36.0" cy="198.0" r="3" fill="#3fb950"/><circle cx="39.0" cy="198.0" r="3" fill="#3fb950"/><circle cx="42.1" cy="198.0" r="3" fill="#3fb950"/><circle cx="45.1" cy="198.0" r="3" fill="#3fb950"/><circle cx="48.2" cy="198.0" r="3" fill="#3fb950"/><circle cx="51.2" cy="198.0" r="3" fill="#3fb950"/><circle cx="54.3" cy="198.0" r="3" fill="#3fb950"/><circle cx="57.3" cy="198.0" r="3" fill="#3fb950"/><circle cx="60.4" cy="198.0" r="3" fill="#3fb950"/><circle cx="63.4" cy="198.0" r="3" fill="#3fb950"/><circle cx="66.5" cy="198.0" r="3" fill="#3fb950"/><circle cx="69.5" cy="198.0" r="3" fill="#3fb950"/><circle cx="72.6" cy="198.0" r="3" fill="#3fb950"/><circle cx="75.6" cy="198.0" r="3" fill="#3fb950"/><circle cx="78.7" cy="198.0" r="3" fill="#3fb950"/><circle cx="81.7" cy="198.0" r="3" fill="#3fb950"/><circle cx="84.8" cy="198.0" r="3" fill="#3fb950"/><circle cx="87.8" cy="198.0" r="3" fill="#3fb950"/><circle cx="90.9" cy="198.0" r="3" fill="#3fb950"/><circle cx="93.9" cy="198.0" r="3" fill="#3fb950"/><circle cx="97.0" cy="198.0" r="3" fill="#3fb950"/><circle cx="100.0" cy="198.0" r="3" fill="#3fb950"/><circle cx="103.1" cy="198.0" r="3" fill="#3fb950"/><circle cx="106.1" cy="198.0" r="3" fill="#3fb950"/><circle cx="109.2" cy="198.0" r="3" fill="#3fb950"/><circle cx="112.2" cy="198.0" r="3" fill="#3fb950"/><circle cx="115.3" cy="198.0" r="3" fill="#3fb950"/><circle cx="118.3" cy="198.0" r="3" fill="#3fb950"/><circle cx="121.4" cy="198.0" r="3" fill="#3fb950"/><circle cx="124.4" cy="198.0" r="3" fill="#3fb950"/><circle cx="127.5" cy="198.0" r="3" fill="#3fb950"/><circle cx="130.5" cy="198.0" r="3" fill="#3fb950"/><circle cx="133.6" cy="198.0" r="3" fill="#3fb950"/><circle cx="136.6" cy="198.0" r="3" fill="#3fb950"/><circle cx="139.7" cy="198.0" r="3" fill="#3fb950"/><circle cx="142.7" cy="198.0" r="3" fill="#3fb950"/><circle cx="145.7" cy="198.0" r="3" fill="#3fb950"/><circle cx="148.8" cy="198.0" r="3" fill="#3fb950"/><circle cx="151.8" cy="198.0" r="3" fill="#3fb950"/><circle cx="154.9" cy="198.0" r="3" fill="#3fb950"/><circle cx="157.9" cy="198.0" r="3" fill="#3fb950"/><circle cx="161.0" cy="198.0" r="3" fill="#3fb950"/><circle cx="164.0" cy="198.0" r="3" fill="#3fb950"/><circle cx="167.1" cy="191.7" r="3" fill="#3fb950"/><circle cx="170.1" cy="191.7" r="3" fill="#3fb950"/><circle cx="173.2" cy="191.7" r="3" fill="#3fb950"/><circle cx="176.2" cy="191.7" r="3" fill="#3fb950"/><circle cx="179.3" cy="191.7" r="3" fill="#3fb950"/><circle cx="182.3" cy="191.7" r="3" fill="#3fb950"/><circle cx="185.4" cy="191.7" r="3" fill="#3fb950"/><circle cx="188.4" cy="192.9" r="3" fill="#3fb950"/><circle cx="191.5" cy="192.9" r="3" fill="#3fb950"/><circle cx="194.5" cy="190.7" r="3" fill="#3fb950"/><circle cx="197.6" cy="190.7" r="3" fill="#3fb950"/><circle cx="200.6" cy="190.7" r="3" fill="#3fb950"/><circle cx="203.7" cy="190.7" r="3" fill="#3fb950"/><circle cx="206.7" cy="190.7" r="3" fill="#3fb950"/><circle cx="209.8" cy="190.5" r="3" fill="#3fb950"/><circle cx="212.8" cy="190.5" r="3" fill="#3fb950"/><circle cx="215.9" cy="190.5" r="3" fill="#3fb950"/><circle cx="218.9" cy="190.3" r="3" fill="#3fb950"/><circle cx="222.0" cy="190.3" r="3" fill="#3fb950"/><circle cx="225.0" cy="190.3" r="3" fill="#3fb950"/><circle cx="228.1" cy="190.3" r="3" fill="#3fb950"/><circle cx="231.1" cy="190.3" r="3" fill="#3fb950"/><circle cx="234.2" cy="190.3" r="3" fill="#3fb950"/><circle cx="237.2" cy="190.3" r="3" fill="#3fb950"/><circle cx="240.3" cy="190.3" r="3" fill="#3fb950"/><circle cx="243.3" cy="190.3" r="3" fill="#3fb950"/><circle cx="246.3" cy="190.3" r="3" fill="#3fb950"/><circle cx="249.4" cy="190.3" r="3" fill="#3fb950"/><circle cx="252.4" cy="190.3" r="3" fill="#3fb950"/><circle cx="255.5" cy="190.3" r="3" fill="#3fb950"/><circle cx="258.5" cy="190.3" r="3" fill="#3fb950"/><circle cx="261.6" cy="190.3" r="3" fill="#3fb950"/><circle cx="264.6" cy="190.3" r="3" fill="#3fb950"/><circle cx="267.7" cy="190.3" r="3" fill="#3fb950"/><circle cx="270.7" cy="190.3" r="3" fill="#3fb950"/><circle cx="273.8" cy="190.3" r="3" fill="#3fb950"/><circle cx="276.8" cy="190.3" r="3" fill="#3fb950"/><circle cx="279.9" cy="190.3" r="3" fill="#3fb950"/><circle cx="282.9" cy="189.3" r="3" fill="#3fb950"/><circle cx="286.0" cy="189.3" r="3" fill="#3fb950"/><circle cx="289.0" cy="189.3" r="3" fill="#3fb950"/><circle cx="292.1" cy="190.7" r="3" fill="#3fb950"/><circle cx="295.1" cy="190.7" r="3" fill="#3fb950"/><circle cx="298.2" cy="190.7" r="3" fill="#3fb950"/><circle cx="301.2" cy="190.7" r="3" fill="#3fb950"/><circle cx="304.3" cy="190.7" r="3" fill="#3fb950"/><circle cx="307.3" cy="190.7" r="3" fill="#3fb950"/><circle cx="310.4" cy="190.7" r="3" fill="#3fb950"/><circle cx="313.4" cy="190.7" r="3" fill="#3fb950"/><circle cx="316.5" cy="190.7" r="3" fill="#3fb950"/><circle cx="319.5" cy="190.9" r="3" fill="#3fb950"/><circle cx="322.6" cy="190.9" r="3" fill="#3fb950"/><circle cx="325.6" cy="190.9" r="3" fill="#3fb950"/><circle cx="328.7" cy="194.2" r="3" fill="#3fb950"/><circle cx="331.7" cy="196.8" r="3" fill="#3fb950"/><circle cx="334.8" cy="198.0" r="3" fill="#3fb950"/><circle cx="337.8" cy="198.0" r="3" fill="#3fb950"/><circle cx="340.9" cy="198.0" r="3" fill="#3fb950"/><circle cx="343.9" cy="198.0" r="3" fill="#3fb950"/><circle cx="347.0" cy="198.0" r="3" fill="#3fb950"/><circle cx="350.0" cy="198.0" r="3" fill="#3fb950"/><circle cx="353.0" cy="198.0" r="3" fill="#3fb950"/><circle cx="356.1" cy="198.0" r="3" fill="#3fb950"/><circle cx="359.1" cy="198.0" r="3" fill="#3fb950"/><circle cx="362.2" cy="198.0" r="3" fill="#3fb950"/><circle cx="365.2" cy="198.0" r="3" fill="#3fb950"/><circle cx="368.3" cy="198.0" r="3" fill="#3fb950"/><circle cx="371.3" cy="198.0" r="3" fill="#3fb950"/><circle cx="374.4" cy="198.0" r="3" fill="#3fb950"/><circle cx="377.4" cy="198.0" r="3" fill="#3fb950"/><circle cx="380.5" cy="198.0" r="3" fill="#3fb950"/><circle cx="383.5" cy="198.0" r="3" fill="#3fb950"/><circle cx="386.6" cy="198.0" r="3" fill="#3fb950"/><circle cx="389.6" cy="198.0" r="3" fill="#3fb950"/><circle cx="392.7" cy="198.0" r="3" fill="#3fb950"/><circle cx="395.7" cy="198.0" r="3" fill="#3fb950"/><circle cx="398.8" cy="198.0" r="3" fill="#3fb950"/><circle cx="401.8" cy="198.0" r="3" fill="#3fb950"/><circle cx="404.9" cy="198.0" r="3" fill="#3fb950"/><circle cx="407.9" cy="198.0" r="3" fill="#3fb950"/><circle cx="411.0" cy="198.0" r="3" fill="#3fb950"/><circle cx="414.0" cy="198.0" r="3" fill="#3fb950"/><circle cx="417.1" cy="198.0" r="3" fill="#3fb950"/><circle cx="420.1" cy="198.0" r="3" fill="#3fb950"/><circle cx="423.2" cy="198.0" r="3" fill="#3fb950"/><circle cx="426.2" cy="198.0" r="3" fill="#3fb950"/><circle cx="429.3" cy="198.0" r="3" fill="#3fb950"/><circle cx="432.3" cy="198.0" r="3" fill="#3fb950"/><circle cx="435.4" cy="198.0" r="3" fill="#3fb950"/><circle cx="438.4" cy="198.0" r="3" fill="#3fb950"/><circle cx="441.5" cy="198.0" r="3" fill="#3fb950"/><circle cx="444.5" cy="198.0" r="3" fill="#3fb950"/><circle cx="447.6" cy="198.0" r="3" fill="#3fb950"/><circle cx="450.6" cy="198.0" r="3" fill="#3fb950"/><circle cx="453.7" cy="198.0" r="3" fill="#3fb950"/><circle cx="456.7" cy="198.0" r="3" fill="#3fb950"/><circle cx="459.7" cy="198.0" r="3" fill="#3fb950"/><circle cx="462.8" cy="198.0" r="3" fill="#3fb950"/><circle cx="465.8" cy="198.0" r="3" fill="#3fb950"/><circle cx="468.9" cy="198.0" r="3" fill="#3fb950"/><circle cx="471.9" cy="198.0" r="3" fill="#3fb950"/><circle cx="475.0" cy="198.0" r="3" fill="#3fb950"/><circle cx="478.0" cy="198.0" r="3" fill="#3fb950"/><circle cx="481.1" cy="198.0" r="3" fill="#3fb950"/><circle cx="484.1" cy="198.0" r="3" fill="#3fb950"/><circle cx="487.2" cy="198.0" r="3" fill="#3fb950"/><circle cx="490.2" cy="198.0" r="3" fill="#3fb950"/><circle cx="493.3" cy="198.0" r="3" fill="#3fb950"/><circle cx="496.3" cy="198.0" r="3" fill="#3fb950"/><circle cx="499.4" cy="198.0" r="3" fill="#3fb950"/><circle cx="502.4" cy="198.0" r="3" fill="#3fb950"/><circle cx="505.5" cy="198.0" r="3" fill="#3fb950"/><circle cx="508.5" cy="198.0" r="3" fill="#3fb950"/><circle cx="511.6" cy="198.0" r="3" fill="#3fb950"/><circle cx="514.6" cy="198.0" r="3" fill="#3fb950"/><circle cx="517.7" cy="198.0" r="3" fill="#3fb950"/><circle cx="520.7" cy="198.0" r="3" fill="#3fb950"/><circle cx="523.8" cy="198.0" r="3" fill="#3fb950"/><circle cx="526.8" cy="198.0" r="3" fill="#3fb950"/><circle cx="529.9" cy="198.0" r="3" fill="#3fb950"/><circle cx="532.9" cy="198.0" r="3" fill="#3fb950"/><circle cx="536.0" cy="198.0" r="3" fill="#3fb950"/><circle cx="539.0" cy="198.0" r="3" fill="#3fb950"/><circle cx="542.1" cy="198.0" r="3" fill="#3fb950"/><circle cx="545.1" cy="198.0" r="3" fill="#3fb950"/><circle cx="548.2" cy="198.0" r="3" fill="#3fb950"/><circle cx="551.2" cy="198.0" r="3" fill="#3fb950"/><circle cx="554.3" cy="198.0" r="3" fill="#3fb950"/><circle cx="557.3" cy="198.0" r="3" fill="#3fb950"/><circle cx="560.3" cy="198.0" r="3" fill="#3fb950"/><circle cx="563.4" cy="198.0" r="3" fill="#3fb950"/><circle cx="566.4" cy="198.0" r="3" fill="#3fb950"/><circle cx="569.5" cy="198.0" r="3" fill="#3fb950"/><circle cx="572.5" cy="198.0" r="3" fill="#3fb950"/><circle cx="575.6" cy="198.0" r="3" fill="#3fb950"/><circle cx="578.6" cy="198.0" r="3" fill="#3fb950"/><circle cx="581.7" cy="198.0" r="3" fill="#3fb950"/><circle cx="584.7" cy="198.0" r="3" fill="#3fb950"/><circle cx="587.8" cy="198.0" r="3" fill="#3fb950"/><circle cx="590.8" cy="198.0" r="3" fill="#3fb950"/><circle cx="593.9" cy="198.0" r="3" fill="#3fb950"/><circle cx="596.9" cy="198.0" r="3" fill="#3fb950"/><circle cx="600.0" cy="198.0" r="3" fill="#3fb950"/><circle cx="603.0" cy="198.0" r="3" fill="#3fb950"/><circle cx="606.1" cy="198.0" r="3" fill="#3fb950"/><circle cx="609.1" cy="198.0" r="3" fill="#3fb950"/><circle cx="612.2" cy="198.0" r="3" fill="#3fb950"/><circle cx="615.2" cy="198.0" r="3" fill="#3fb950"/><circle cx="618.3" cy="198.0" r="3" fill="#3fb950"/><circle cx="621.3" cy="198.0" r="3" fill="#3fb950"/><circle cx="624.4" cy="198.0" r="3" fill="#3fb950"/><circle cx="627.4" cy="198.0" r="3" fill="#3fb950"/><circle cx="630.5" cy="198.0" r="3" fill="#3fb950"/><circle cx="633.5" cy="198.0" r="3" fill="#3fb950"/><circle cx="636.6" cy="198.0" r="3" fill="#3fb950"/><circle cx="639.6" cy="198.0" r="3" fill="#3fb950"/><circle cx="642.7" cy="198.0" r="3" fill="#3fb950"/><circle cx="645.7" cy="198.0" r="3" fill="#3fb950"/><circle cx="648.8" cy="198.0" r="3" fill="#3fb950"/><circle cx="651.8" cy="198.0" r="3" fill="#3fb950"/><circle cx="654.9" cy="198.0" r="3" fill="#3fb950"/><circle cx="657.9" cy="198.0" r="3" fill="#3fb950"/><circle cx="661.0" cy="198.0" r="3" fill="#3fb950"/><circle cx="664.0" cy="198.0" r="3" fill="#3fb950"/>
<polyline fill="none" stroke="#4aa3ff" stroke-width="2.5" stroke-linejoin="round" points="36.0,144.3 39.0,144.3 42.1,144.3 45.1,144.3 48.2,144.3 51.2,144.3 54.3,144.3 57.3,144.3 60.4,144.3 63.4,144.3 66.5,144.3 69.5,144.3 72.6,144.3 75.6,144.3 78.7,144.3 81.7,136.2 84.8,132.4 87.8,129.6 90.9,129.6 93.9,121.0 97.0,121.0 100.0,121.0 103.1,114.4 106.1,114.4 109.2,114.4 112.2,111.3 115.3,110.9 118.3,110.9 121.4,110.5 124.4,110.5 127.5,109.9 130.5,108.7 133.6,107.3 136.6,106.9 139.7,106.9 142.7,106.9 145.7,106.9 148.8,106.9 151.8,106.9 154.9,106.9 157.9,106.9 161.0,106.9 164.0,106.9 167.1,113.2 170.1,113.2 173.2,113.2 176.2,113.2 179.3,113.2 182.3,110.7 185.4,105.3 188.4,83.4 191.5,83.4 194.5,85.6 197.6,85.6 200.6,85.6 203.7,85.6 206.7,85.6 209.8,85.8 212.8,85.8 215.9,85.8 218.9,86.0 222.0,86.0 225.0,86.0 228.1,86.0 231.1,86.0 234.2,86.0 237.2,86.0 240.3,86.0 243.3,86.0 246.3,86.0 249.4,86.0 252.4,86.0 255.5,86.0 258.5,86.0 261.6,86.0 264.6,86.0 267.7,86.0 270.7,86.0 273.8,86.0 276.8,86.0 279.9,86.0 282.9,87.0 286.0,87.0 289.0,87.0 292.1,73.7 295.1,73.7 298.2,71.0 301.2,71.0 304.3,70.8 307.3,70.6 310.4,70.6 313.4,70.4 316.5,68.6 319.5,60.5 322.6,59.3 325.6,52.0 328.7,47.3 331.7,40.1 334.8,36.0 337.8,36.0 340.9,36.0 343.9,36.0 347.0,36.0 350.0,36.0 353.0,36.0 356.1,36.0 359.1,36.0 362.2,36.0 365.2,36.0 368.3,36.0 371.3,36.0 374.4,36.0 377.4,36.0 380.5,36.0 383.5,36.0 386.6,36.0 389.6,36.0 392.7,36.0 395.7,36.0 398.8,36.0 401.8,36.0 404.9,36.0 407.9,36.0 411.0,36.0 414.0,36.0 417.1,36.0 420.1,36.0 423.2,36.0 426.2,36.0 429.3,36.0 432.3,36.0 435.4,36.0 438.4,36.0 441.5,36.0 444.5,36.0 447.6,36.0 450.6,36.0 453.7,36.0 456.7,36.0 459.7,36.0 462.8,36.0 465.8,36.0 468.9,36.0 471.9,36.0 475.0,36.0 478.0,36.0 481.1,36.0 484.1,36.0 487.2,36.0 490.2,36.0 493.3,36.0 496.3,36.0 499.4,36.0 502.4,36.0 505.5,36.0 508.5,36.0 511.6,36.0 514.6,36.0 517.7,36.0 520.7,36.0 523.8,36.0 526.8,36.0 529.9,36.0 532.9,36.0 536.0,36.0 539.0,36.0 542.1,36.0 545.1,36.0 548.2,36.0 551.2,36.0 554.3,36.0 557.3,36.0 560.3,36.0 563.4,36.0 566.4,36.0 569.5,36.0 572.5,36.0 575.6,36.0 578.6,36.0 581.7,36.0 584.7,36.0 587.8,36.0 590.8,36.0 593.9,36.0 596.9,36.0 600.0,36.0 603.0,36.0 606.1,36.0 609.1,36.0 612.2,36.0 615.2,36.0 618.3,36.0 621.3,36.0 624.4,36.0 627.4,36.0 630.5,36.0 633.5,36.0 636.6,36.0 639.6,36.0 642.7,36.0 645.7,36.0 648.8,36.0 651.8,36.0 654.9,36.0 657.9,36.0 661.0,36.0 664.0,36.0"/><circle cx="36.0" cy="144.3" r="3" fill="#4aa3ff"/><circle cx="39.0" cy="144.3" r="3" fill="#4aa3ff"/><circle cx="42.1" cy="144.3" r="3" fill="#4aa3ff"/><circle cx="45.1" cy="144.3" r="3" fill="#4aa3ff"/><circle cx="48.2" cy="144.3" r="3" fill="#4aa3ff"/><circle cx="51.2" cy="144.3" r="3" fill="#4aa3ff"/><circle cx="54.3" cy="144.3" r="3" fill="#4aa3ff"/><circle cx="57.3" cy="144.3" r="3" fill="#4aa3ff"/><circle cx="60.4" cy="144.3" r="3" fill="#4aa3ff"/><circle cx="63.4" cy="144.3" r="3" fill="#4aa3ff"/><circle cx="66.5" cy="144.3" r="3" fill="#4aa3ff"/><circle cx="69.5" cy="144.3" r="3" fill="#4aa3ff"/><circle cx="72.6" cy="144.3" r="3" fill="#4aa3ff"/><circle cx="75.6" cy="144.3" r="3" fill="#4aa3ff"/><circle cx="78.7" cy="144.3" r="3" fill="#4aa3ff"/><circle cx="81.7" cy="136.2" r="3" fill="#4aa3ff"/><circle cx="84.8" cy="132.4" r="3" fill="#4aa3ff"/><circle cx="87.8" cy="129.6" r="3" fill="#4aa3ff"/><circle cx="90.9" cy="129.6" r="3" fill="#4aa3ff"/><circle cx="93.9" cy="121.0" r="3" fill="#4aa3ff"/><circle cx="97.0" cy="121.0" r="3" fill="#4aa3ff"/><circle cx="100.0" cy="121.0" r="3" fill="#4aa3ff"/><circle cx="103.1" cy="114.4" r="3" fill="#4aa3ff"/><circle cx="106.1" cy="114.4" r="3" fill="#4aa3ff"/><circle cx="109.2" cy="114.4" r="3" fill="#4aa3ff"/><circle cx="112.2" cy="111.3" r="3" fill="#4aa3ff"/><circle cx="115.3" cy="110.9" r="3" fill="#4aa3ff"/><circle cx="118.3" cy="110.9" r="3" fill="#4aa3ff"/><circle cx="121.4" cy="110.5" r="3" fill="#4aa3ff"/><circle cx="124.4" cy="110.5" r="3" fill="#4aa3ff"/><circle cx="127.5" cy="109.9" r="3" fill="#4aa3ff"/><circle cx="130.5" cy="108.7" r="3" fill="#4aa3ff"/><circle cx="133.6" cy="107.3" r="3" fill="#4aa3ff"/><circle cx="136.6" cy="106.9" r="3" fill="#4aa3ff"/><circle cx="139.7" cy="106.9" r="3" fill="#4aa3ff"/><circle cx="142.7" cy="106.9" r="3" fill="#4aa3ff"/><circle cx="145.7" cy="106.9" r="3" fill="#4aa3ff"/><circle cx="148.8" cy="106.9" r="3" fill="#4aa3ff"/><circle cx="151.8" cy="106.9" r="3" fill="#4aa3ff"/><circle cx="154.9" cy="106.9" r="3" fill="#4aa3ff"/><circle cx="157.9" cy="106.9" r="3" fill="#4aa3ff"/><circle cx="161.0" cy="106.9" r="3" fill="#4aa3ff"/><circle cx="164.0" cy="106.9" r="3" fill="#4aa3ff"/><circle cx="167.1" cy="113.2" r="3" fill="#4aa3ff"/><circle cx="170.1" cy="113.2" r="3" fill="#4aa3ff"/><circle cx="173.2" cy="113.2" r="3" fill="#4aa3ff"/><circle cx="176.2" cy="113.2" r="3" fill="#4aa3ff"/><circle cx="179.3" cy="113.2" r="3" fill="#4aa3ff"/><circle cx="182.3" cy="110.7" r="3" fill="#4aa3ff"/><circle cx="185.4" cy="105.3" r="3" fill="#4aa3ff"/><circle cx="188.4" cy="83.4" r="3" fill="#4aa3ff"/><circle cx="191.5" cy="83.4" r="3" fill="#4aa3ff"/><circle cx="194.5" cy="85.6" r="3" fill="#4aa3ff"/><circle cx="197.6" cy="85.6" r="3" fill="#4aa3ff"/><circle cx="200.6" cy="85.6" r="3" fill="#4aa3ff"/><circle cx="203.7" cy="85.6" r="3" fill="#4aa3ff"/><circle cx="206.7" cy="85.6" r="3" fill="#4aa3ff"/><circle cx="209.8" cy="85.8" r="3" fill="#4aa3ff"/><circle cx="212.8" cy="85.8" r="3" fill="#4aa3ff"/><circle cx="215.9" cy="85.8" r="3" fill="#4aa3ff"/><circle cx="218.9" cy="86.0" r="3" fill="#4aa3ff"/><circle cx="222.0" cy="86.0" r="3" fill="#4aa3ff"/><circle cx="225.0" cy="86.0" r="3" fill="#4aa3ff"/><circle cx="228.1" cy="86.0" r="3" fill="#4aa3ff"/><circle cx="231.1" cy="86.0" r="3" fill="#4aa3ff"/><circle cx="234.2" cy="86.0" r="3" fill="#4aa3ff"/><circle cx="237.2" cy="86.0" r="3" fill="#4aa3ff"/><circle cx="240.3" cy="86.0" r="3" fill="#4aa3ff"/><circle cx="243.3" cy="86.0" r="3" fill="#4aa3ff"/><circle cx="246.3" cy="86.0" r="3" fill="#4aa3ff"/><circle cx="249.4" cy="86.0" r="3" fill="#4aa3ff"/><circle cx="252.4" cy="86.0" r="3" fill="#4aa3ff"/><circle cx="255.5" cy="86.0" r="3" fill="#4aa3ff"/><circle cx="258.5" cy="86.0" r="3" fill="#4aa3ff"/><circle cx="261.6" cy="86.0" r="3" fill="#4aa3ff"/><circle cx="264.6" cy="86.0" r="3" fill="#4aa3ff"/><circle cx="267.7" cy="86.0" r="3" fill="#4aa3ff"/><circle cx="270.7" cy="86.0" r="3" fill="#4aa3ff"/><circle cx="273.8" cy="86.0" r="3" fill="#4aa3ff"/><circle cx="276.8" cy="86.0" r="3" fill="#4aa3ff"/><circle cx="279.9" cy="86.0" r="3" fill="#4aa3ff"/><circle cx="282.9" cy="87.0" r="3" fill="#4aa3ff"/><circle cx="286.0" cy="87.0" r="3" fill="#4aa3ff"/><circle cx="289.0" cy="87.0" r="3" fill="#4aa3ff"/><circle cx="292.1" cy="73.7" r="3" fill="#4aa3ff"/><circle cx="295.1" cy="73.7" r="3" fill="#4aa3ff"/><circle cx="298.2" cy="71.0" r="3" fill="#4aa3ff"/><circle cx="301.2" cy="71.0" r="3" fill="#4aa3ff"/><circle cx="304.3" cy="70.8" r="3" fill="#4aa3ff"/><circle cx="307.3" cy="70.6" r="3" fill="#4aa3ff"/><circle cx="310.4" cy="70.6" r="3" fill="#4aa3ff"/><circle cx="313.4" cy="70.4" r="3" fill="#4aa3ff"/><circle cx="316.5" cy="68.6" r="3" fill="#4aa3ff"/><circle cx="319.5" cy="60.5" r="3" fill="#4aa3ff"/><circle cx="322.6" cy="59.3" r="3" fill="#4aa3ff"/><circle cx="325.6" cy="52.0" r="3" fill="#4aa3ff"/><circle cx="328.7" cy="47.3" r="3" fill="#4aa3ff"/><circle cx="331.7" cy="40.1" r="3" fill="#4aa3ff"/><circle cx="334.8" cy="36.0" r="3" fill="#4aa3ff"/><circle cx="337.8" cy="36.0" r="3" fill="#4aa3ff"/><circle cx="340.9" cy="36.0" r="3" fill="#4aa3ff"/><circle cx="343.9" cy="36.0" r="3" fill="#4aa3ff"/><circle cx="347.0" cy="36.0" r="3" fill="#4aa3ff"/><circle cx="350.0" cy="36.0" r="3" fill="#4aa3ff"/><circle cx="353.0" cy="36.0" r="3" fill="#4aa3ff"/><circle cx="356.1" cy="36.0" r="3" fill="#4aa3ff"/><circle cx="359.1" cy="36.0" r="3" fill="#4aa3ff"/><circle cx="362.2" cy="36.0" r="3" fill="#4aa3ff"/><circle cx="365.2" cy="36.0" r="3" fill="#4aa3ff"/><circle cx="368.3" cy="36.0" r="3" fill="#4aa3ff"/><circle cx="371.3" cy="36.0" r="3" fill="#4aa3ff"/><circle cx="374.4" cy="36.0" r="3" fill="#4aa3ff"/><circle cx="377.4" cy="36.0" r="3" fill="#4aa3ff"/><circle cx="380.5" cy="36.0" r="3" fill="#4aa3ff"/><circle cx="383.5" cy="36.0" r="3" fill="#4aa3ff"/><circle cx="386.6" cy="36.0" r="3" fill="#4aa3ff"/><circle cx="389.6" cy="36.0" r="3" fill="#4aa3ff"/><circle cx="392.7" cy="36.0" r="3" fill="#4aa3ff"/><circle cx="395.7" cy="36.0" r="3" fill="#4aa3ff"/><circle cx="398.8" cy="36.0" r="3" fill="#4aa3ff"/><circle cx="401.8" cy="36.0" r="3" fill="#4aa3ff"/><circle cx="404.9" cy="36.0" r="3" fill="#4aa3ff"/><circle cx="407.9" cy="36.0" r="3" fill="#4aa3ff"/><circle cx="411.0" cy="36.0" r="3" fill="#4aa3ff"/><circle cx="414.0" cy="36.0" r="3" fill="#4aa3ff"/><circle cx="417.1" cy="36.0" r="3" fill="#4aa3ff"/><circle cx="420.1" cy="36.0" r="3" fill="#4aa3ff"/><circle cx="423.2" cy="36.0" r="3" fill="#4aa3ff"/><circle cx="426.2" cy="36.0" r="3" fill="#4aa3ff"/><circle cx="429.3" cy="36.0" r="3" fill="#4aa3ff"/><circle cx="432.3" cy="36.0" r="3" fill="#4aa3ff"/><circle cx="435.4" cy="36.0" r="3" fill="#4aa3ff"/><circle cx="438.4" cy="36.0" r="3" fill="#4aa3ff"/><circle cx="441.5" cy="36.0" r="3" fill="#4aa3ff"/><circle cx="444.5" cy="36.0" r="3" fill="#4aa3ff"/><circle cx="447.6" cy="36.0" r="3" fill="#4aa3ff"/><circle cx="450.6" cy="36.0" r="3" fill="#4aa3ff"/><circle cx="453.7" cy="36.0" r="3" fill="#4aa3ff"/><circle cx="456.7" cy="36.0" r="3" fill="#4aa3ff"/><circle cx="459.7" cy="36.0" r="3" fill="#4aa3ff"/><circle cx="462.8" cy="36.0" r="3" fill="#4aa3ff"/><circle cx="465.8" cy="36.0" r="3" fill="#4aa3ff"/><circle cx="468.9" cy="36.0" r="3" fill="#4aa3ff"/><circle cx="471.9" cy="36.0" r="3" fill="#4aa3ff"/><circle cx="475.0" cy="36.0" r="3" fill="#4aa3ff"/><circle cx="478.0" cy="36.0" r="3" fill="#4aa3ff"/><circle cx="481.1" cy="36.0" r="3" fill="#4aa3ff"/><circle cx="484.1" cy="36.0" r="3" fill="#4aa3ff"/><circle cx="487.2" cy="36.0" r="3" fill="#4aa3ff"/><circle cx="490.2" cy="36.0" r="3" fill="#4aa3ff"/><circle cx="493.3" cy="36.0" r="3" fill="#4aa3ff"/><circle cx="496.3" cy="36.0" r="3" fill="#4aa3ff"/><circle cx="499.4" cy="36.0" r="3" fill="#4aa3ff"/><circle cx="502.4" cy="36.0" r="3" fill="#4aa3ff"/><circle cx="505.5" cy="36.0" r="3" fill="#4aa3ff"/><circle cx="508.5" cy="36.0" r="3" fill="#4aa3ff"/><circle cx="511.6" cy="36.0" r="3" fill="#4aa3ff"/><circle cx="514.6" cy="36.0" r="3" fill="#4aa3ff"/><circle cx="517.7" cy="36.0" r="3" fill="#4aa3ff"/><circle cx="520.7" cy="36.0" r="3" fill="#4aa3ff"/><circle cx="523.8" cy="36.0" r="3" fill="#4aa3ff"/><circle cx="526.8" cy="36.0" r="3" fill="#4aa3ff"/><circle cx="529.9" cy="36.0" r="3" fill="#4aa3ff"/><circle cx="532.9" cy="36.0" r="3" fill="#4aa3ff"/><circle cx="536.0" cy="36.0" r="3" fill="#4aa3ff"/><circle cx="539.0" cy="36.0" r="3" fill="#4aa3ff"/><circle cx="542.1" cy="36.0" r="3" fill="#4aa3ff"/><circle cx="545.1" cy="36.0" r="3" fill="#4aa3ff"/><circle cx="548.2" cy="36.0" r="3" fill="#4aa3ff"/><circle cx="551.2" cy="36.0" r="3" fill="#4aa3ff"/><circle cx="554.3" cy="36.0" r="3" fill="#4aa3ff"/><circle cx="557.3" cy="36.0" r="3" fill="#4aa3ff"/><circle cx="560.3" cy="36.0" r="3" fill="#4aa3ff"/><circle cx="563.4" cy="36.0" r="3" fill="#4aa3ff"/><circle cx="566.4" cy="36.0" r="3" fill="#4aa3ff"/><circle cx="569.5" cy="36.0" r="3" fill="#4aa3ff"/><circle cx="572.5" cy="36.0" r="3" fill="#4aa3ff"/><circle cx="575.6" cy="36.0" r="3" fill="#4aa3ff"/><circle cx="578.6" cy="36.0" r="3" fill="#4aa3ff"/><circle cx="581.7" cy="36.0" r="3" fill="#4aa3ff"/><circle cx="584.7" cy="36.0" r="3" fill="#4aa3ff"/><circle cx="587.8" cy="36.0" r="3" fill="#4aa3ff"/><circle cx="590.8" cy="36.0" r="3" fill="#4aa3ff"/><circle cx="593.9" cy="36.0" r="3" fill="#4aa3ff"/><circle cx="596.9" cy="36.0" r="3" fill="#4aa3ff"/><circle cx="600.0" cy="36.0" r="3" fill="#4aa3ff"/><circle cx="603.0" cy="36.0" r="3" fill="#4aa3ff"/><circle cx="606.1" cy="36.0" r="3" fill="#4aa3ff"/><circle cx="609.1" cy="36.0" r="3" fill="#4aa3ff"/><circle cx="612.2" cy="36.0" r="3" fill="#4aa3ff"/><circle cx="615.2" cy="36.0" r="3" fill="#4aa3ff"/><circle cx="618.3" cy="36.0" r="3" fill="#4aa3ff"/><circle cx="621.3" cy="36.0" r="3" fill="#4aa3ff"/><circle cx="624.4" cy="36.0" r="3" fill="#4aa3ff"/><circle cx="627.4" cy="36.0" r="3" fill="#4aa3ff"/><circle cx="630.5" cy="36.0" r="3" fill="#4aa3ff"/><circle cx="633.5" cy="36.0" r="3" fill="#4aa3ff"/><circle cx="636.6" cy="36.0" r="3" fill="#4aa3ff"/><circle cx="639.6" cy="36.0" r="3" fill="#4aa3ff"/><circle cx="642.7" cy="36.0" r="3" fill="#4aa3ff"/><circle cx="645.7" cy="36.0" r="3" fill="#4aa3ff"/><circle cx="648.8" cy="36.0" r="3" fill="#4aa3ff"/><circle cx="651.8" cy="36.0" r="3" fill="#4aa3ff"/><circle cx="654.9" cy="36.0" r="3" fill="#4aa3ff"/><circle cx="657.9" cy="36.0" r="3" fill="#4aa3ff"/><circle cx="661.0" cy="36.0" r="3" fill="#4aa3ff"/><circle cx="664.0" cy="36.0" r="3" fill="#4aa3ff"/>
<text x="36" y="225" fill="#6b7280" font-size="11">2026-06-26</text>
<text x="664" y="225" fill="#6b7280" font-size="11" text-anchor="end">2026-07-17</text>
<text x="36" y="212" font-family="system-ui,sans-serif" font-size="11">
<tspan fill="#4aa3ff">&#9679; open FPs</tspan>  <tspan fill="#3fb950">&#9679; closed (Anthropic acting)</tspan>  <tspan fill="#8a5a5a">&#9679; harness withdrawn</tspan></text>
<text x="664" y="22" text-anchor="end" font-family="system-ui,sans-serif" font-size="12">
<tspan fill="#4aa3ff">open 800</tspan>  <tspan fill="#3fb950">closed 0</tspan>  <tspan fill="#8a5a5a">harness 0</tspan></text>
</svg>