<svg xmlns="http://www.w3.org/2000/svg" width="700" height="234" viewBox="0 0 700 234" role="img">
<rect width="700" height="234" rx="12" fill="#16181d"/>
<text x="36" y="22" fill="#e8eaed" font-family="system-ui,sans-serif" font-size="14" font-weight="700">Is Anthropic acting? cyber/aup false positives over time</text>
<line x1="36" y1="198.0" x2="664" y2="198.0" stroke="#2a2e37" stroke-width="1"/><text x="30" y="202.0" fill="#6b7280" font-size="11" text-anchor="end">0</text><line x1="36" y1="117.0" x2="664" y2="117.0" stroke="#2a2e37" stroke-width="1"/><text x="30" y="121.0" fill="#6b7280" font-size="11" text-anchor="end">400</text><line x1="36" y1="36.0" x2="664" y2="36.0" stroke="#2a2e37" stroke-width="1"/><text x="30" y="40.0" fill="#6b7280" font-size="11" text-anchor="end">800</text>

<polyline fill="none" stroke="#8a5a5a" stroke-width="2.5" stroke-linejoin="round" points="36.0,145.1 39.8,145.1 43.5,145.1 47.3,145.1 51.0,145.1 54.8,145.1 58.6,145.1 62.3,145.1 66.1,145.1 69.8,145.1 73.6,145.1 77.4,145.1 81.1,145.1 84.9,145.1 88.6,145.1 92.4,145.1 96.2,145.1 99.9,145.1 103.7,145.1 107.4,145.1 111.2,145.1 115.0,145.1 118.7,145.1 122.5,145.1 126.3,145.1 130.0,145.1 133.8,145.1 137.5,145.1 141.3,145.1 145.1,145.1 148.8,145.1 152.6,145.1 156.3,145.1 160.1,145.1 163.9,145.1 167.6,145.1 171.4,145.1 175.1,145.1 178.9,145.1 182.7,145.1 186.4,145.1 190.2,145.1 193.9,145.1 197.7,145.1 201.5,145.1 205.2,145.1 209.0,145.1 212.7,145.1 216.5,145.1 220.3,145.1 224.0,155.7 227.8,155.7 231.5,155.7 235.3,155.7 239.1,155.7 242.8,155.7 246.6,155.7 250.3,155.7 254.1,155.7 257.9,155.7 261.6,155.7 265.4,155.7 269.1,155.7 272.9,155.7 276.7,155.7 280.4,155.7 284.2,155.7 288.0,155.7 291.7,155.7 295.5,155.7 299.2,155.7 303.0,155.7 306.8,155.7 310.5,155.7 314.3,155.7 318.0,155.7 321.8,155.7 325.6,155.7 329.3,155.7 333.1,155.7 336.8,155.7 340.6,155.7 344.4,155.7 348.1,155.7 351.9,167.6 355.6,167.6 359.4,170.3 363.2,170.3 366.9,170.5 370.7,170.7 374.4,170.7 378.2,170.9 382.0,172.7 385.7,180.6 389.5,181.8 393.2,189.1 397.0,190.5 400.8,195.2 404.5,198.0 408.3,198.0 412.0,198.0 415.8,198.0 419.6,198.0 423.3,198.0 427.1,198.0 430.9,198.0 434.6,198.0 438.4,198.0 442.1,198.0 445.9,198.0 449.7,198.0 453.4,198.0 457.2,198.0 460.9,198.0 464.7,198.0 468.5,198.0 472.2,198.0 476.0,198.0 479.7,198.0 483.5,198.0 487.3,198.0 491.0,198.0 494.8,198.0 498.5,198.0 502.3,198.0 506.1,198.0 509.8,198.0 513.6,198.0 517.3,198.0 521.1,198.0 524.9,198.0 528.6,198.0 532.4,198.0 536.1,198.0 539.9,198.0 543.7,198.0 547.4,198.0 551.2,198.0 554.9,198.0 558.7,198.0 562.5,198.0 566.2,198.0 570.0,198.0 573.7,198.0 577.5,198.0 581.3,198.0 585.0,198.0 588.8,198.0 592.6,198.0 596.3,198.0 600.1,198.0 603.8,198.0 607.6,198.0 611.4,198.0 615.1,198.0 618.9,198.0 622.6,198.0 626.4,198.0 630.2,198.0 633.9,198.0 637.7,198.0 641.4,198.0 645.2,198.0 649.0,198.0 652.7,198.0 656.5,198.0 660.2,198.0 664.0,198.0"/><circle cx="36.0" cy="145.1" r="3" fill="#8a5a5a"/><circle cx="39.8" cy="145.1" r="3" fill="#8a5a5a"/><circle cx="43.5" cy="145.1" r="3" fill="#8a5a5a"/><circle cx="47.3" cy="145.1" r="3" fill="#8a5a5a"/><circle cx="51.0" cy="145.1" r="3" fill="#8a5a5a"/><circle cx="54.8" cy="145.1" r="3" fill="#8a5a5a"/><circle cx="58.6" cy="145.1" r="3" fill="#8a5a5a"/><circle cx="62.3" cy="145.1" r="3" fill="#8a5a5a"/><circle cx="66.1" cy="145.1" r="3" fill="#8a5a5a"/><circle cx="69.8" cy="145.1" r="3" fill="#8a5a5a"/><circle cx="73.6" cy="145.1" r="3" fill="#8a5a5a"/><circle cx="77.4" cy="145.1" r="3" fill="#8a5a5a"/><circle cx="81.1" cy="145.1" r="3" fill="#8a5a5a"/><circle cx="84.9" cy="145.1" r="3" fill="#8a5a5a"/><circle cx="88.6" cy="145.1" r="3" fill="#8a5a5a"/><circle cx="92.4" cy="145.1" r="3" fill="#8a5a5a"/><circle cx="96.2" cy="145.1" r="3" fill="#8a5a5a"/><circle cx="99.9" cy="145.1" r="3" fill="#8a5a5a"/><circle cx="103.7" cy="145.1" r="3" fill="#8a5a5a"/><circle cx="107.4" cy="145.1" r="3" fill="#8a5a5a"/><circle cx="111.2" cy="145.1" r="3" fill="#8a5a5a"/><circle cx="115.0" cy="145.1" r="3" fill="#8a5a5a"/><circle cx="118.7" cy="145.1" r="3" fill="#8a5a5a"/><circle cx="122.5" cy="145.1" r="3" fill="#8a5a5a"/><circle cx="126.3" cy="145.1" r="3" fill="#8a5a5a"/><circle cx="130.0" cy="145.1" r="3" fill="#8a5a5a"/><circle cx="133.8" cy="145.1" r="3" fill="#8a5a5a"/><circle cx="137.5" cy="145.1" r="3" fill="#8a5a5a"/><circle cx="141.3" cy="145.1" r="3" fill="#8a5a5a"/><circle cx="145.1" cy="145.1" r="3" fill="#8a5a5a"/><circle cx="148.8" cy="145.1" r="3" fill="#8a5a5a"/><circle cx="152.6" cy="145.1" r="3" fill="#8a5a5a"/><circle cx="156.3" cy="145.1" r="3" fill="#8a5a5a"/><circle cx="160.1" cy="145.1" r="3" fill="#8a5a5a"/><circle cx="163.9" cy="145.1" r="3" fill="#8a5a5a"/><circle cx="167.6" cy="145.1" r="3" fill="#8a5a5a"/><circle cx="171.4" cy="145.1" r="3" fill="#8a5a5a"/><circle cx="175.1" cy="145.1" r="3" fill="#8a5a5a"/><circle cx="178.9" cy="145.1" r="3" fill="#8a5a5a"/><circle cx="182.7" cy="145.1" r="3" fill="#8a5a5a"/><circle cx="186.4" cy="145.1" r="3" fill="#8a5a5a"/><circle cx="190.2" cy="145.1" r="3" fill="#8a5a5a"/><circle cx="193.9" cy="145.1" r="3" fill="#8a5a5a"/><circle cx="197.7" cy="145.1" r="3" fill="#8a5a5a"/><circle cx="201.5" cy="145.1" r="3" fill="#8a5a5a"/><circle cx="205.2" cy="145.1" r="3" fill="#8a5a5a"/><circle cx="209.0" cy="145.1" r="3" fill="#8a5a5a"/><circle cx="212.7" cy="145.1" r="3" fill="#8a5a5a"/><circle cx="216.5" cy="145.1" r="3" fill="#8a5a5a"/><circle cx="220.3" cy="145.1" r="3" fill="#8a5a5a"/><circle cx="224.0" cy="155.7" r="3" fill="#8a5a5a"/><circle cx="227.8" cy="155.7" r="3" fill="#8a5a5a"/><circle cx="231.5" cy="155.7" r="3" fill="#8a5a5a"/><circle cx="235.3" cy="155.7" r="3" fill="#8a5a5a"/><circle cx="239.1" cy="155.7" r="3" fill="#8a5a5a"/><circle cx="242.8" cy="155.7" r="3" fill="#8a5a5a"/><circle cx="246.6" cy="155.7" r="3" fill="#8a5a5a"/><circle cx="250.3" cy="155.7" r="3" fill="#8a5a5a"/><circle cx="254.1" cy="155.7" r="3" fill="#8a5a5a"/><circle cx="257.9" cy="155.7" r="3" fill="#8a5a5a"/><circle cx="261.6" cy="155.7" r="3" fill="#8a5a5a"/><circle cx="265.4" cy="155.7" r="3" fill="#8a5a5a"/><circle cx="269.1" cy="155.7" r="3" fill="#8a5a5a"/><circle cx="272.9" cy="155.7" r="3" fill="#8a5a5a"/><circle cx="276.7" cy="155.7" r="3" fill="#8a5a5a"/><circle cx="280.4" cy="155.7" r="3" fill="#8a5a5a"/><circle cx="284.2" cy="155.7" r="3" fill="#8a5a5a"/><circle cx="288.0" cy="155.7" r="3" fill="#8a5a5a"/><circle cx="291.7" cy="155.7" r="3" fill="#8a5a5a"/><circle cx="295.5" cy="155.7" r="3" fill="#8a5a5a"/><circle cx="299.2" cy="155.7" r="3" fill="#8a5a5a"/><circle cx="303.0" cy="155.7" r="3" fill="#8a5a5a"/><circle cx="306.8" cy="155.7" r="3" fill="#8a5a5a"/><circle cx="310.5" cy="155.7" r="3" fill="#8a5a5a"/><circle cx="314.3" cy="155.7" r="3" fill="#8a5a5a"/><circle cx="318.0" cy="155.7" r="3" fill="#8a5a5a"/><circle cx="321.8" cy="155.7" r="3" fill="#8a5a5a"/><circle cx="325.6" cy="155.7" r="3" fill="#8a5a5a"/><circle cx="329.3" cy="155.7" r="3" fill="#8a5a5a"/><circle cx="333.1" cy="155.7" r="3" fill="#8a5a5a"/><circle cx="336.8" cy="155.7" r="3" fill="#8a5a5a"/><circle cx="340.6" cy="155.7" r="3" fill="#8a5a5a"/><circle cx="344.4" cy="155.7" r="3" fill="#8a5a5a"/><circle cx="348.1" cy="155.7" r="3" fill="#8a5a5a"/><circle cx="351.9" cy="167.6" r="3" fill="#8a5a5a"/><circle cx="355.6" cy="167.6" r="3" fill="#8a5a5a"/><circle cx="359.4" cy="170.3" r="3" fill="#8a5a5a"/><circle cx="363.2" cy="170.3" r="3" fill="#8a5a5a"/><circle cx="366.9" cy="170.5" r="3" fill="#8a5a5a"/><circle cx="370.7" cy="170.7" r="3" fill="#8a5a5a"/><circle cx="374.4" cy="170.7" r="3" fill="#8a5a5a"/><circle cx="378.2" cy="170.9" r="3" fill="#8a5a5a"/><circle cx="382.0" cy="172.7" r="3" fill="#8a5a5a"/><circle cx="385.7" cy="180.6" r="3" fill="#8a5a5a"/><circle cx="389.5" cy="181.8" r="3" fill="#8a5a5a"/><circle cx="393.2" cy="189.1" r="3" fill="#8a5a5a"/><circle cx="397.0" cy="190.5" r="3" fill="#8a5a5a"/><circle cx="400.8" cy="195.2" r="3" fill="#8a5a5a"/><circle cx="404.5" cy="198.0" r="3" fill="#8a5a5a"/><circle cx="408.3" cy="198.0" r="3" fill="#8a5a5a"/><circle cx="412.0" cy="198.0" r="3" fill="#8a5a5a"/><circle cx="415.8" cy="198.0" r="3" fill="#8a5a5a"/><circle cx="419.6" cy="198.0" r="3" fill="#8a5a5a"/><circle cx="423.3" cy="198.0" r="3" fill="#8a5a5a"/><circle cx="427.1" cy="198.0" r="3" fill="#8a5a5a"/><circle cx="430.9" cy="198.0" r="3" fill="#8a5a5a"/><circle cx="434.6" cy="198.0" r="3" fill="#8a5a5a"/><circle cx="438.4" cy="198.0" r="3" fill="#8a5a5a"/><circle cx="442.1" cy="198.0" r="3" fill="#8a5a5a"/><circle cx="445.9" cy="198.0" r="3" fill="#8a5a5a"/><circle cx="449.7" cy="198.0" r="3" fill="#8a5a5a"/><circle cx="453.4" cy="198.0" r="3" fill="#8a5a5a"/><circle cx="457.2" cy="198.0" r="3" fill="#8a5a5a"/><circle cx="460.9" cy="198.0" r="3" fill="#8a5a5a"/><circle cx="464.7" cy="198.0" r="3" fill="#8a5a5a"/><circle cx="468.5" cy="198.0" r="3" fill="#8a5a5a"/><circle cx="472.2" cy="198.0" r="3" fill="#8a5a5a"/><circle cx="476.0" cy="198.0" r="3" fill="#8a5a5a"/><circle cx="479.7" cy="198.0" r="3" fill="#8a5a5a"/><circle cx="483.5" cy="198.0" r="3" fill="#8a5a5a"/><circle cx="487.3" cy="198.0" r="3" fill="#8a5a5a"/><circle cx="491.0" cy="198.0" r="3" fill="#8a5a5a"/><circle cx="494.8" cy="198.0" r="3" fill="#8a5a5a"/><circle cx="498.5" cy="198.0" r="3" fill="#8a5a5a"/><circle cx="502.3" cy="198.0" r="3" fill="#8a5a5a"/><circle cx="506.1" cy="198.0" r="3" fill="#8a5a5a"/><circle cx="509.8" cy="198.0" r="3" fill="#8a5a5a"/><circle cx="513.6" cy="198.0" r="3" fill="#8a5a5a"/><circle cx="517.3" cy="198.0" r="3" fill="#8a5a5a"/><circle cx="521.1" cy="198.0" r="3" fill="#8a5a5a"/><circle cx="524.9" cy="198.0" r="3" fill="#8a5a5a"/><circle cx="528.6" cy="198.0" r="3" fill="#8a5a5a"/><circle cx="532.4" cy="198.0" r="3" fill="#8a5a5a"/><circle cx="536.1" cy="198.0" r="3" fill="#8a5a5a"/><circle cx="539.9" cy="198.0" r="3" fill="#8a5a5a"/><circle cx="543.7" cy="198.0" r="3" fill="#8a5a5a"/><circle cx="547.4" cy="198.0" r="3" fill="#8a5a5a"/><circle cx="551.2" cy="198.0" r="3" fill="#8a5a5a"/><circle cx="554.9" cy="198.0" r="3" fill="#8a5a5a"/><circle cx="558.7" cy="198.0" r="3" fill="#8a5a5a"/><circle cx="562.5" cy="198.0" r="3" fill="#8a5a5a"/><circle cx="566.2" cy="198.0" r="3" fill="#8a5a5a"/><circle cx="570.0" cy="198.0" r="3" fill="#8a5a5a"/><circle cx="573.7" cy="198.0" r="3" fill="#8a5a5a"/><circle cx="577.5" cy="198.0" r="3" fill="#8a5a5a"/><circle cx="581.3" cy="198.0" r="3" fill="#8a5a5a"/><circle cx="585.0" cy="198.0" r="3" fill="#8a5a5a"/><circle cx="588.8" cy="198.0" r="3" fill="#8a5a5a"/><circle cx="592.6" cy="198.0" r="3" fill="#8a5a5a"/><circle cx="596.3" cy="198.0" r="3" fill="#8a5a5a"/><circle cx="600.1" cy="198.0" r="3" fill="#8a5a5a"/><circle cx="603.8" cy="198.0" r="3" fill="#8a5a5a"/><circle cx="607.6" cy="198.0" r="3" fill="#8a5a5a"/><circle cx="611.4" cy="198.0" r="3" fill="#8a5a5a"/><circle cx="615.1" cy="198.0" r="3" fill="#8a5a5a"/><circle cx="618.9" cy="198.0" r="3" fill="#8a5a5a"/><circle cx="622.6" cy="198.0" r="3" fill="#8a5a5a"/><circle cx="626.4" cy="198.0" r="3" fill="#8a5a5a"/><circle cx="630.2" cy="198.0" r="3" fill="#8a5a5a"/><circle cx="633.9" cy="198.0" r="3" fill="#8a5a5a"/><circle cx="637.7" cy="198.0" r="3" fill="#8a5a5a"/><circle cx="641.4" cy="198.0" r="3" fill="#8a5a5a"/><circle cx="645.2" cy="198.0" r="3" fill="#8a5a5a"/><circle cx="649.0" cy="198.0" r="3" fill="#8a5a5a"/><circle cx="652.7" cy="198.0" r="3" fill="#8a5a5a"/><circle cx="656.5" cy="198.0" r="3" fill="#8a5a5a"/><circle cx="660.2" cy="198.0" r="3" fill="#8a5a5a"/><circle cx="664.0" cy="198.0" r="3" fill="#8a5a5a"/>
<polyline fill="none" stroke="#3fb950" stroke-width="2.5" stroke-linejoin="round" points="36.0,198.0 39.8,198.0 43.5,198.0 47.3,198.0 51.0,198.0 54.8,198.0 58.6,198.0 62.3,198.0 66.1,198.0 69.8,198.0 73.6,198.0 77.4,198.0 81.1,198.0 84.9,198.0 88.6,198.0 92.4,198.0 96.2,198.0 99.9,198.0 103.7,198.0 107.4,198.0 111.2,198.0 115.0,198.0 118.7,198.0 122.5,198.0 126.3,198.0 130.0,198.0 133.8,198.0 137.5,198.0 141.3,198.0 145.1,198.0 148.8,198.0 152.6,198.0 156.3,198.0 160.1,198.0 163.9,198.0 167.6,198.0 171.4,198.0 175.1,198.0 178.9,198.0 182.7,198.0 186.4,198.0 190.2,198.0 193.9,198.0 197.7,191.7 201.5,191.7 205.2,191.7 209.0,191.7 212.7,191.7 216.5,191.7 220.3,191.7 224.0,192.9 227.8,192.9 231.5,190.7 235.3,190.7 239.1,190.7 242.8,190.7 246.6,190.7 250.3,190.5 254.1,190.5 257.9,190.5 261.6,190.3 265.4,190.3 269.1,190.3 272.9,190.3 276.7,190.3 280.4,190.3 284.2,190.3 288.0,190.3 291.7,190.3 295.5,190.3 299.2,190.3 303.0,190.3 306.8,190.3 310.5,190.3 314.3,190.3 318.0,190.3 321.8,190.3 325.6,190.3 329.3,190.3 333.1,190.3 336.8,190.3 340.6,189.3 344.4,189.3 348.1,189.3 351.9,190.7 355.6,190.7 359.4,190.7 363.2,190.7 366.9,190.7 370.7,190.7 374.4,190.7 378.2,190.7 382.0,190.7 385.7,190.9 389.5,190.9 393.2,190.9 397.0,194.2 400.8,196.8 404.5,198.0 408.3,198.0 412.0,198.0 415.8,198.0 419.6,198.0 423.3,198.0 427.1,198.0 430.9,198.0 434.6,198.0 438.4,198.0 442.1,198.0 445.9,198.0 449.7,198.0 453.4,198.0 457.2,198.0 460.9,198.0 464.7,198.0 468.5,198.0 472.2,198.0 476.0,198.0 479.7,198.0 483.5,198.0 487.3,198.0 491.0,198.0 494.8,198.0 498.5,198.0 502.3,198.0 506.1,198.0 509.8,198.0 513.6,198.0 517.3,198.0 521.1,198.0 524.9,198.0 528.6,198.0 532.4,198.0 536.1,198.0 539.9,198.0 543.7,198.0 547.4,198.0 551.2,198.0 554.9,198.0 558.7,198.0 562.5,198.0 566.2,198.0 570.0,198.0 573.7,198.0 577.5,198.0 581.3,198.0 585.0,198.0 588.8,198.0 592.6,198.0 596.3,198.0 600.1,198.0 603.8,198.0 607.6,198.0 611.4,198.0 615.1,198.0 618.9,198.0 622.6,198.0 626.4,198.0 630.2,198.0 633.9,198.0 637.7,198.0 641.4,198.0 645.2,198.0 649.0,198.0 652.7,198.0 656.5,198.0 660.2,198.0 664.0,198.0"/><circle cx="36.0" cy="198.0" r="3" fill="#3fb950"/><circle cx="39.8" cy="198.0" r="3" fill="#3fb950"/><circle cx="43.5" cy="198.0" r="3" fill="#3fb950"/><circle cx="47.3" cy="198.0" r="3" fill="#3fb950"/><circle cx="51.0" cy="198.0" r="3" fill="#3fb950"/><circle cx="54.8" cy="198.0" r="3" fill="#3fb950"/><circle cx="58.6" cy="198.0" r="3" fill="#3fb950"/><circle cx="62.3" cy="198.0" r="3" fill="#3fb950"/><circle cx="66.1" cy="198.0" r="3" fill="#3fb950"/><circle cx="69.8" cy="198.0" r="3" fill="#3fb950"/><circle cx="73.6" cy="198.0" r="3" fill="#3fb950"/><circle cx="77.4" cy="198.0" r="3" fill="#3fb950"/><circle cx="81.1" cy="198.0" r="3" fill="#3fb950"/><circle cx="84.9" cy="198.0" r="3" fill="#3fb950"/><circle cx="88.6" cy="198.0" r="3" fill="#3fb950"/><circle cx="92.4" cy="198.0" r="3" fill="#3fb950"/><circle cx="96.2" cy="198.0" r="3" fill="#3fb950"/><circle cx="99.9" cy="198.0" r="3" fill="#3fb950"/><circle cx="103.7" cy="198.0" r="3" fill="#3fb950"/><circle cx="107.4" cy="198.0" r="3" fill="#3fb950"/><circle cx="111.2" cy="198.0" r="3" fill="#3fb950"/><circle cx="115.0" cy="198.0" r="3" fill="#3fb950"/><circle cx="118.7" cy="198.0" r="3" fill="#3fb950"/><circle cx="122.5" cy="198.0" r="3" fill="#3fb950"/><circle cx="126.3" cy="198.0" r="3" fill="#3fb950"/><circle cx="130.0" cy="198.0" r="3" fill="#3fb950"/><circle cx="133.8" cy="198.0" r="3" fill="#3fb950"/><circle cx="137.5" cy="198.0" r="3" fill="#3fb950"/><circle cx="141.3" cy="198.0" r="3" fill="#3fb950"/><circle cx="145.1" cy="198.0" r="3" fill="#3fb950"/><circle cx="148.8" cy="198.0" r="3" fill="#3fb950"/><circle cx="152.6" cy="198.0" r="3" fill="#3fb950"/><circle cx="156.3" cy="198.0" r="3" fill="#3fb950"/><circle cx="160.1" cy="198.0" r="3" fill="#3fb950"/><circle cx="163.9" cy="198.0" r="3" fill="#3fb950"/><circle cx="167.6" cy="198.0" r="3" fill="#3fb950"/><circle cx="171.4" cy="198.0" r="3" fill="#3fb950"/><circle cx="175.1" cy="198.0" r="3" fill="#3fb950"/><circle cx="178.9" cy="198.0" r="3" fill="#3fb950"/><circle cx="182.7" cy="198.0" r="3" fill="#3fb950"/><circle cx="186.4" cy="198.0" r="3" fill="#3fb950"/><circle cx="190.2" cy="198.0" r="3" fill="#3fb950"/><circle cx="193.9" cy="198.0" r="3" fill="#3fb950"/><circle cx="197.7" cy="191.7" r="3" fill="#3fb950"/><circle cx="201.5" cy="191.7" r="3" fill="#3fb950"/><circle cx="205.2" cy="191.7" r="3" fill="#3fb950"/><circle cx="209.0" cy="191.7" r="3" fill="#3fb950"/><circle cx="212.7" cy="191.7" r="3" fill="#3fb950"/><circle cx="216.5" cy="191.7" r="3" fill="#3fb950"/><circle cx="220.3" cy="191.7" r="3" fill="#3fb950"/><circle cx="224.0" cy="192.9" r="3" fill="#3fb950"/><circle cx="227.8" cy="192.9" r="3" fill="#3fb950"/><circle cx="231.5" cy="190.7" r="3" fill="#3fb950"/><circle cx="235.3" cy="190.7" r="3" fill="#3fb950"/><circle cx="239.1" cy="190.7" r="3" fill="#3fb950"/><circle cx="242.8" cy="190.7" r="3" fill="#3fb950"/><circle cx="246.6" cy="190.7" r="3" fill="#3fb950"/><circle cx="250.3" cy="190.5" r="3" fill="#3fb950"/><circle cx="254.1" cy="190.5" r="3" fill="#3fb950"/><circle cx="257.9" cy="190.5" r="3" fill="#3fb950"/><circle cx="261.6" cy="190.3" r="3" fill="#3fb950"/><circle cx="265.4" cy="190.3" r="3" fill="#3fb950"/><circle cx="269.1" cy="190.3" r="3" fill="#3fb950"/><circle cx="272.9" cy="190.3" r="3" fill="#3fb950"/><circle cx="276.7" cy="190.3" r="3" fill="#3fb950"/><circle cx="280.4" cy="190.3" r="3" fill="#3fb950"/><circle cx="284.2" cy="190.3" r="3" fill="#3fb950"/><circle cx="288.0" cy="190.3" r="3" fill="#3fb950"/><circle cx="291.7" cy="190.3" r="3" fill="#3fb950"/><circle cx="295.5" cy="190.3" r="3" fill="#3fb950"/><circle cx="299.2" cy="190.3" r="3" fill="#3fb950"/><circle cx="303.0" cy="190.3" r="3" fill="#3fb950"/><circle cx="306.8" cy="190.3" r="3" fill="#3fb950"/><circle cx="310.5" cy="190.3" r="3" fill="#3fb950"/><circle cx="314.3" cy="190.3" r="3" fill="#3fb950"/><circle cx="318.0" cy="190.3" r="3" fill="#3fb950"/><circle cx="321.8" cy="190.3" r="3" fill="#3fb950"/><circle cx="325.6" cy="190.3" r="3" fill="#3fb950"/><circle cx="329.3" cy="190.3" r="3" fill="#3fb950"/><circle cx="333.1" cy="190.3" r="3" fill="#3fb950"/><circle cx="336.8" cy="190.3" r="3" fill="#3fb950"/><circle cx="340.6" cy="189.3" r="3" fill="#3fb950"/><circle cx="344.4" cy="189.3" r="3" fill="#3fb950"/><circle cx="348.1" cy="189.3" r="3" fill="#3fb950"/><circle cx="351.9" cy="190.7" r="3" fill="#3fb950"/><circle cx="355.6" cy="190.7" r="3" fill="#3fb950"/><circle cx="359.4" cy="190.7" r="3" fill="#3fb950"/><circle cx="363.2" cy="190.7" r="3" fill="#3fb950"/><circle cx="366.9" cy="190.7" r="3" fill="#3fb950"/><circle cx="370.7" cy="190.7" r="3" fill="#3fb950"/><circle cx="374.4" cy="190.7" r="3" fill="#3fb950"/><circle cx="378.2" cy="190.7" r="3" fill="#3fb950"/><circle cx="382.0" cy="190.7" r="3" fill="#3fb950"/><circle cx="385.7" cy="190.9" r="3" fill="#3fb950"/><circle cx="389.5" cy="190.9" r="3" fill="#3fb950"/><circle cx="393.2" cy="190.9" r="3" fill="#3fb950"/><circle cx="397.0" cy="194.2" r="3" fill="#3fb950"/><circle cx="400.8" cy="196.8" r="3" fill="#3fb950"/><circle cx="404.5" cy="198.0" r="3" fill="#3fb950"/><circle cx="408.3" cy="198.0" r="3" fill="#3fb950"/><circle cx="412.0" cy="198.0" r="3" fill="#3fb950"/><circle cx="415.8" cy="198.0" r="3" fill="#3fb950"/><circle cx="419.6" cy="198.0" r="3" fill="#3fb950"/><circle cx="423.3" cy="198.0" r="3" fill="#3fb950"/><circle cx="427.1" cy="198.0" r="3" fill="#3fb950"/><circle cx="430.9" cy="198.0" r="3" fill="#3fb950"/><circle cx="434.6" cy="198.0" r="3" fill="#3fb950"/><circle cx="438.4" cy="198.0" r="3" fill="#3fb950"/><circle cx="442.1" cy="198.0" r="3" fill="#3fb950"/><circle cx="445.9" cy="198.0" r="3" fill="#3fb950"/><circle cx="449.7" cy="198.0" r="3" fill="#3fb950"/><circle cx="453.4" cy="198.0" r="3" fill="#3fb950"/><circle cx="457.2" cy="198.0" r="3" fill="#3fb950"/><circle cx="460.9" cy="198.0" r="3" fill="#3fb950"/><circle cx="464.7" cy="198.0" r="3" fill="#3fb950"/><circle cx="468.5" cy="198.0" r="3" fill="#3fb950"/><circle cx="472.2" cy="198.0" r="3" fill="#3fb950"/><circle cx="476.0" cy="198.0" r="3" fill="#3fb950"/><circle cx="479.7" cy="198.0" r="3" fill="#3fb950"/><circle cx="483.5" cy="198.0" r="3" fill="#3fb950"/><circle cx="487.3" cy="198.0" r="3" fill="#3fb950"/><circle cx="491.0" cy="198.0" r="3" fill="#3fb950"/><circle cx="494.8" cy="198.0" r="3" fill="#3fb950"/><circle cx="498.5" cy="198.0" r="3" fill="#3fb950"/><circle cx="502.3" cy="198.0" r="3" fill="#3fb950"/><circle cx="506.1" cy="198.0" r="3" fill="#3fb950"/><circle cx="509.8" cy="198.0" r="3" fill="#3fb950"/><circle cx="513.6" cy="198.0" r="3" fill="#3fb950"/><circle cx="517.3" cy="198.0" r="3" fill="#3fb950"/><circle cx="521.1" cy="198.0" r="3" fill="#3fb950"/><circle cx="524.9" cy="198.0" r="3" fill="#3fb950"/><circle cx="528.6" cy="198.0" r="3" fill="#3fb950"/><circle cx="532.4" cy="198.0" r="3" fill="#3fb950"/><circle cx="536.1" cy="198.0" r="3" fill="#3fb950"/><circle cx="539.9" cy="198.0" r="3" fill="#3fb950"/><circle cx="543.7" cy="198.0" r="3" fill="#3fb950"/><circle cx="547.4" cy="198.0" r="3" fill="#3fb950"/><circle cx="551.2" cy="198.0" r="3" fill="#3fb950"/><circle cx="554.9" cy="198.0" r="3" fill="#3fb950"/><circle cx="558.7" cy="198.0" r="3" fill="#3fb950"/><circle cx="562.5" cy="198.0" r="3" fill="#3fb950"/><circle cx="566.2" cy="198.0" r="3" fill="#3fb950"/><circle cx="570.0" cy="198.0" r="3" fill="#3fb950"/><circle cx="573.7" cy="198.0" r="3" fill="#3fb950"/><circle cx="577.5" cy="198.0" r="3" fill="#3fb950"/><circle cx="581.3" cy="198.0" r="3" fill="#3fb950"/><circle cx="585.0" cy="198.0" r="3" fill="#3fb950"/><circle cx="588.8" cy="198.0" r="3" fill="#3fb950"/><circle cx="592.6" cy="198.0" r="3" fill="#3fb950"/><circle cx="596.3" cy="198.0" r="3" fill="#3fb950"/><circle cx="600.1" cy="198.0" r="3" fill="#3fb950"/><circle cx="603.8" cy="198.0" r="3" fill="#3fb950"/><circle cx="607.6" cy="198.0" r="3" fill="#3fb950"/><circle cx="611.4" cy="198.0" r="3" fill="#3fb950"/><circle cx="615.1" cy="198.0" r="3" fill="#3fb950"/><circle cx="618.9" cy="198.0" r="3" fill="#3fb950"/><circle cx="622.6" cy="198.0" r="3" fill="#3fb950"/><circle cx="626.4" cy="198.0" r="3" fill="#3fb950"/><circle cx="630.2" cy="198.0" r="3" fill="#3fb950"/><circle cx="633.9" cy="198.0" r="3" fill="#3fb950"/><circle cx="637.7" cy="198.0" r="3" fill="#3fb950"/><circle cx="641.4" cy="198.0" r="3" fill="#3fb950"/><circle cx="645.2" cy="198.0" r="3" fill="#3fb950"/><circle cx="649.0" cy="198.0" r="3" fill="#3fb950"/><circle cx="652.7" cy="198.0" r="3" fill="#3fb950"/><circle cx="656.5" cy="198.0" r="3" fill="#3fb950"/><circle cx="660.2" cy="198.0" r="3" fill="#3fb950"/><circle cx="664.0" cy="198.0" r="3" fill="#3fb950"/>
<polyline fill="none" stroke="#4aa3ff" stroke-width="2.5" stroke-linejoin="round" points="36.0,144.3 39.8,144.3 43.5,144.3 47.3,144.3 51.0,144.3 54.8,144.3 58.6,144.3 62.3,144.3 66.1,144.3 69.8,144.3 73.6,144.3 77.4,144.3 81.1,144.3 84.9,144.3 88.6,144.3 92.4,136.2 96.2,132.4 99.9,129.6 103.7,129.6 107.4,121.0 111.2,121.0 115.0,121.0 118.7,114.4 122.5,114.4 126.3,114.4 130.0,111.3 133.8,110.9 137.5,110.9 141.3,110.5 145.1,110.5 148.8,109.9 152.6,108.7 156.3,107.3 160.1,106.9 163.9,106.9 167.6,106.9 171.4,106.9 175.1,106.9 178.9,106.9 182.7,106.9 186.4,106.9 190.2,106.9 193.9,106.9 197.7,113.2 201.5,113.2 205.2,113.2 209.0,113.2 212.7,113.2 216.5,110.7 220.3,105.3 224.0,83.4 227.8,83.4 231.5,85.6 235.3,85.6 239.1,85.6 242.8,85.6 246.6,85.6 250.3,85.8 254.1,85.8 257.9,85.8 261.6,86.0 265.4,86.0 269.1,86.0 272.9,86.0 276.7,86.0 280.4,86.0 284.2,86.0 288.0,86.0 291.7,86.0 295.5,86.0 299.2,86.0 303.0,86.0 306.8,86.0 310.5,86.0 314.3,86.0 318.0,86.0 321.8,86.0 325.6,86.0 329.3,86.0 333.1,86.0 336.8,86.0 340.6,87.0 344.4,87.0 348.1,87.0 351.9,73.7 355.6,73.7 359.4,71.0 363.2,71.0 366.9,70.8 370.7,70.6 374.4,70.6 378.2,70.4 382.0,68.6 385.7,60.5 389.5,59.3 393.2,52.0 397.0,47.3 400.8,40.1 404.5,36.0 408.3,36.0 412.0,36.0 415.8,36.0 419.6,36.0 423.3,36.0 427.1,36.0 430.9,36.0 434.6,36.0 438.4,36.0 442.1,36.0 445.9,36.0 449.7,36.0 453.4,36.0 457.2,36.0 460.9,36.0 464.7,36.0 468.5,36.0 472.2,36.0 476.0,36.0 479.7,36.0 483.5,36.0 487.3,36.0 491.0,36.0 494.8,36.0 498.5,36.0 502.3,36.0 506.1,36.0 509.8,36.0 513.6,36.0 517.3,36.0 521.1,36.0 524.9,36.0 528.6,36.0 532.4,36.0 536.1,36.0 539.9,36.0 543.7,36.0 547.4,36.0 551.2,36.0 554.9,36.0 558.7,36.0 562.5,36.0 566.2,36.0 570.0,36.0 573.7,36.0 577.5,36.0 581.3,36.0 585.0,36.0 588.8,36.0 592.6,36.0 596.3,36.0 600.1,36.0 603.8,36.0 607.6,36.0 611.4,36.0 615.1,36.0 618.9,36.0 622.6,36.0 626.4,36.0 630.2,36.0 633.9,36.0 637.7,36.0 641.4,36.0 645.2,36.0 649.0,36.0 652.7,36.0 656.5,36.0 660.2,36.0 664.0,36.0"/><circle cx="36.0" cy="144.3" r="3" fill="#4aa3ff"/><circle cx="39.8" cy="144.3" r="3" fill="#4aa3ff"/><circle cx="43.5" cy="144.3" r="3" fill="#4aa3ff"/><circle cx="47.3" cy="144.3" r="3" fill="#4aa3ff"/><circle cx="51.0" cy="144.3" r="3" fill="#4aa3ff"/><circle cx="54.8" cy="144.3" r="3" fill="#4aa3ff"/><circle cx="58.6" cy="144.3" r="3" fill="#4aa3ff"/><circle cx="62.3" cy="144.3" r="3" fill="#4aa3ff"/><circle cx="66.1" cy="144.3" r="3" fill="#4aa3ff"/><circle cx="69.8" cy="144.3" r="3" fill="#4aa3ff"/><circle cx="73.6" cy="144.3" r="3" fill="#4aa3ff"/><circle cx="77.4" cy="144.3" r="3" fill="#4aa3ff"/><circle cx="81.1" cy="144.3" r="3" fill="#4aa3ff"/><circle cx="84.9" cy="144.3" r="3" fill="#4aa3ff"/><circle cx="88.6" cy="144.3" r="3" fill="#4aa3ff"/><circle cx="92.4" cy="136.2" r="3" fill="#4aa3ff"/><circle cx="96.2" cy="132.4" r="3" fill="#4aa3ff"/><circle cx="99.9" cy="129.6" r="3" fill="#4aa3ff"/><circle cx="103.7" cy="129.6" r="3" fill="#4aa3ff"/><circle cx="107.4" cy="121.0" r="3" fill="#4aa3ff"/><circle cx="111.2" cy="121.0" r="3" fill="#4aa3ff"/><circle cx="115.0" cy="121.0" r="3" fill="#4aa3ff"/><circle cx="118.7" cy="114.4" r="3" fill="#4aa3ff"/><circle cx="122.5" cy="114.4" r="3" fill="#4aa3ff"/><circle cx="126.3" cy="114.4" r="3" fill="#4aa3ff"/><circle cx="130.0" cy="111.3" r="3" fill="#4aa3ff"/><circle cx="133.8" cy="110.9" r="3" fill="#4aa3ff"/><circle cx="137.5" cy="110.9" r="3" fill="#4aa3ff"/><circle cx="141.3" cy="110.5" r="3" fill="#4aa3ff"/><circle cx="145.1" cy="110.5" r="3" fill="#4aa3ff"/><circle cx="148.8" cy="109.9" r="3" fill="#4aa3ff"/><circle cx="152.6" cy="108.7" r="3" fill="#4aa3ff"/><circle cx="156.3" cy="107.3" r="3" fill="#4aa3ff"/><circle cx="160.1" cy="106.9" r="3" fill="#4aa3ff"/><circle cx="163.9" cy="106.9" r="3" fill="#4aa3ff"/><circle cx="167.6" cy="106.9" r="3" fill="#4aa3ff"/><circle cx="171.4" cy="106.9" r="3" fill="#4aa3ff"/><circle cx="175.1" cy="106.9" r="3" fill="#4aa3ff"/><circle cx="178.9" cy="106.9" r="3" fill="#4aa3ff"/><circle cx="182.7" cy="106.9" r="3" fill="#4aa3ff"/><circle cx="186.4" cy="106.9" r="3" fill="#4aa3ff"/><circle cx="190.2" cy="106.9" r="3" fill="#4aa3ff"/><circle cx="193.9" cy="106.9" r="3" fill="#4aa3ff"/><circle cx="197.7" cy="113.2" r="3" fill="#4aa3ff"/><circle cx="201.5" cy="113.2" r="3" fill="#4aa3ff"/><circle cx="205.2" cy="113.2" r="3" fill="#4aa3ff"/><circle cx="209.0" cy="113.2" r="3" fill="#4aa3ff"/><circle cx="212.7" cy="113.2" r="3" fill="#4aa3ff"/><circle cx="216.5" cy="110.7" r="3" fill="#4aa3ff"/><circle cx="220.3" cy="105.3" r="3" fill="#4aa3ff"/><circle cx="224.0" cy="83.4" r="3" fill="#4aa3ff"/><circle cx="227.8" cy="83.4" r="3" fill="#4aa3ff"/><circle cx="231.5" cy="85.6" r="3" fill="#4aa3ff"/><circle cx="235.3" cy="85.6" r="3" fill="#4aa3ff"/><circle cx="239.1" cy="85.6" r="3" fill="#4aa3ff"/><circle cx="242.8" cy="85.6" r="3" fill="#4aa3ff"/><circle cx="246.6" cy="85.6" r="3" fill="#4aa3ff"/><circle cx="250.3" cy="85.8" r="3" fill="#4aa3ff"/><circle cx="254.1" cy="85.8" r="3" fill="#4aa3ff"/><circle cx="257.9" cy="85.8" r="3" fill="#4aa3ff"/><circle cx="261.6" cy="86.0" r="3" fill="#4aa3ff"/><circle cx="265.4" cy="86.0" r="3" fill="#4aa3ff"/><circle cx="269.1" cy="86.0" r="3" fill="#4aa3ff"/><circle cx="272.9" cy="86.0" r="3" fill="#4aa3ff"/><circle cx="276.7" cy="86.0" r="3" fill="#4aa3ff"/><circle cx="280.4" cy="86.0" r="3" fill="#4aa3ff"/><circle cx="284.2" cy="86.0" r="3" fill="#4aa3ff"/><circle cx="288.0" cy="86.0" r="3" fill="#4aa3ff"/><circle cx="291.7" cy="86.0" r="3" fill="#4aa3ff"/><circle cx="295.5" cy="86.0" r="3" fill="#4aa3ff"/><circle cx="299.2" cy="86.0" r="3" fill="#4aa3ff"/><circle cx="303.0" cy="86.0" r="3" fill="#4aa3ff"/><circle cx="306.8" cy="86.0" r="3" fill="#4aa3ff"/><circle cx="310.5" cy="86.0" r="3" fill="#4aa3ff"/><circle cx="314.3" cy="86.0" r="3" fill="#4aa3ff"/><circle cx="318.0" cy="86.0" r="3" fill="#4aa3ff"/><circle cx="321.8" cy="86.0" r="3" fill="#4aa3ff"/><circle cx="325.6" cy="86.0" r="3" fill="#4aa3ff"/><circle cx="329.3" cy="86.0" r="3" fill="#4aa3ff"/><circle cx="333.1" cy="86.0" r="3" fill="#4aa3ff"/><circle cx="336.8" cy="86.0" r="3" fill="#4aa3ff"/><circle cx="340.6" cy="87.0" r="3" fill="#4aa3ff"/><circle cx="344.4" cy="87.0" r="3" fill="#4aa3ff"/><circle cx="348.1" cy="87.0" r="3" fill="#4aa3ff"/><circle cx="351.9" cy="73.7" r="3" fill="#4aa3ff"/><circle cx="355.6" cy="73.7" r="3" fill="#4aa3ff"/><circle cx="359.4" cy="71.0" r="3" fill="#4aa3ff"/><circle cx="363.2" cy="71.0" r="3" fill="#4aa3ff"/><circle cx="366.9" cy="70.8" r="3" fill="#4aa3ff"/><circle cx="370.7" cy="70.6" r="3" fill="#4aa3ff"/><circle cx="374.4" cy="70.6" r="3" fill="#4aa3ff"/><circle cx="378.2" cy="70.4" r="3" fill="#4aa3ff"/><circle cx="382.0" cy="68.6" r="3" fill="#4aa3ff"/><circle cx="385.7" cy="60.5" r="3" fill="#4aa3ff"/><circle cx="389.5" cy="59.3" r="3" fill="#4aa3ff"/><circle cx="393.2" cy="52.0" r="3" fill="#4aa3ff"/><circle cx="397.0" cy="47.3" r="3" fill="#4aa3ff"/><circle cx="400.8" cy="40.1" r="3" fill="#4aa3ff"/><circle cx="404.5" cy="36.0" r="3" fill="#4aa3ff"/><circle cx="408.3" cy="36.0" r="3" fill="#4aa3ff"/><circle cx="412.0" cy="36.0" r="3" fill="#4aa3ff"/><circle cx="415.8" cy="36.0" r="3" fill="#4aa3ff"/><circle cx="419.6" cy="36.0" r="3" fill="#4aa3ff"/><circle cx="423.3" cy="36.0" r="3" fill="#4aa3ff"/><circle cx="427.1" cy="36.0" r="3" fill="#4aa3ff"/><circle cx="430.9" cy="36.0" r="3" fill="#4aa3ff"/><circle cx="434.6" cy="36.0" r="3" fill="#4aa3ff"/><circle cx="438.4" cy="36.0" r="3" fill="#4aa3ff"/><circle cx="442.1" cy="36.0" r="3" fill="#4aa3ff"/><circle cx="445.9" cy="36.0" r="3" fill="#4aa3ff"/><circle cx="449.7" cy="36.0" r="3" fill="#4aa3ff"/><circle cx="453.4" cy="36.0" r="3" fill="#4aa3ff"/><circle cx="457.2" cy="36.0" r="3" fill="#4aa3ff"/><circle cx="460.9" cy="36.0" r="3" fill="#4aa3ff"/><circle cx="464.7" cy="36.0" r="3" fill="#4aa3ff"/><circle cx="468.5" cy="36.0" r="3" fill="#4aa3ff"/><circle cx="472.2" cy="36.0" r="3" fill="#4aa3ff"/><circle cx="476.0" cy="36.0" r="3" fill="#4aa3ff"/><circle cx="479.7" cy="36.0" r="3" fill="#4aa3ff"/><circle cx="483.5" cy="36.0" r="3" fill="#4aa3ff"/><circle cx="487.3" cy="36.0" r="3" fill="#4aa3ff"/><circle cx="491.0" cy="36.0" r="3" fill="#4aa3ff"/><circle cx="494.8" cy="36.0" r="3" fill="#4aa3ff"/><circle cx="498.5" cy="36.0" r="3" fill="#4aa3ff"/><circle cx="502.3" cy="36.0" r="3" fill="#4aa3ff"/><circle cx="506.1" cy="36.0" r="3" fill="#4aa3ff"/><circle cx="509.8" cy="36.0" r="3" fill="#4aa3ff"/><circle cx="513.6" cy="36.0" r="3" fill="#4aa3ff"/><circle cx="517.3" cy="36.0" r="3" fill="#4aa3ff"/><circle cx="521.1" cy="36.0" r="3" fill="#4aa3ff"/><circle cx="524.9" cy="36.0" r="3" fill="#4aa3ff"/><circle cx="528.6" cy="36.0" r="3" fill="#4aa3ff"/><circle cx="532.4" cy="36.0" r="3" fill="#4aa3ff"/><circle cx="536.1" cy="36.0" r="3" fill="#4aa3ff"/><circle cx="539.9" cy="36.0" r="3" fill="#4aa3ff"/><circle cx="543.7" cy="36.0" r="3" fill="#4aa3ff"/><circle cx="547.4" cy="36.0" r="3" fill="#4aa3ff"/><circle cx="551.2" cy="36.0" r="3" fill="#4aa3ff"/><circle cx="554.9" cy="36.0" r="3" fill="#4aa3ff"/><circle cx="558.7" cy="36.0" r="3" fill="#4aa3ff"/><circle cx="562.5" cy="36.0" r="3" fill="#4aa3ff"/><circle cx="566.2" cy="36.0" r="3" fill="#4aa3ff"/><circle cx="570.0" cy="36.0" r="3" fill="#4aa3ff"/><circle cx="573.7" cy="36.0" r="3" fill="#4aa3ff"/><circle cx="577.5" cy="36.0" r="3" fill="#4aa3ff"/><circle cx="581.3" cy="36.0" r="3" fill="#4aa3ff"/><circle cx="585.0" cy="36.0" r="3" fill="#4aa3ff"/><circle cx="588.8" cy="36.0" r="3" fill="#4aa3ff"/><circle cx="592.6" cy="36.0" r="3" fill="#4aa3ff"/><circle cx="596.3" cy="36.0" r="3" fill="#4aa3ff"/><circle cx="600.1" cy="36.0" r="3" fill="#4aa3ff"/><circle cx="603.8" cy="36.0" r="3" fill="#4aa3ff"/><circle cx="607.6" cy="36.0" r="3" fill="#4aa3ff"/><circle cx="611.4" cy="36.0" r="3" fill="#4aa3ff"/><circle cx="615.1" cy="36.0" r="3" fill="#4aa3ff"/><circle cx="618.9" cy="36.0" r="3" fill="#4aa3ff"/><circle cx="622.6" cy="36.0" r="3" fill="#4aa3ff"/><circle cx="626.4" cy="36.0" r="3" fill="#4aa3ff"/><circle cx="630.2" cy="36.0" r="3" fill="#4aa3ff"/><circle cx="633.9" cy="36.0" r="3" fill="#4aa3ff"/><circle cx="637.7" cy="36.0" r="3" fill="#4aa3ff"/><circle cx="641.4" cy="36.0" r="3" fill="#4aa3ff"/><circle cx="645.2" cy="36.0" r="3" fill="#4aa3ff"/><circle cx="649.0" cy="36.0" r="3" fill="#4aa3ff"/><circle cx="652.7" cy="36.0" r="3" fill="#4aa3ff"/><circle cx="656.5" cy="36.0" r="3" fill="#4aa3ff"/><circle cx="660.2" cy="36.0" r="3" fill="#4aa3ff"/><circle cx="664.0" cy="36.0" r="3" fill="#4aa3ff"/>
<text x="36" y="225" fill="#6b7280" font-size="11">2026-06-26</text>
<text x="664" y="225" fill="#6b7280" font-size="11" text-anchor="end">2026-07-14</text>
<text x="36" y="212" font-family="system-ui,sans-serif" font-size="11">
<tspan fill="#4aa3ff">&#9679; open FPs</tspan>  <tspan fill="#3fb950">&#9679; closed (Anthropic acting)</tspan>  <tspan fill="#8a5a5a">&#9679; harness withdrawn</tspan></text>
<text x="664" y="22" text-anchor="end" font-family="system-ui,sans-serif" font-size="12">
<tspan fill="#4aa3ff">open 800</tspan>  <tspan fill="#3fb950">closed 0</tspan>  <tspan fill="#8a5a5a">harness 0</tspan></text>
</svg>