<svg xmlns="http://www.w3.org/2000/svg" width="700" height="234" viewBox="0 0 700 234" role="img">
<rect width="700" height="234" rx="12" fill="#16181d"/>
<text x="36" y="22" fill="#e8eaed" font-family="system-ui,sans-serif" font-size="14" font-weight="700">Is Anthropic acting? cyber/aup false positives over time</text>
<line x1="36" y1="198.0" x2="664" y2="198.0" stroke="#2a2e37" stroke-width="1"/><text x="30" y="202.0" fill="#6b7280" font-size="11" text-anchor="end">0</text><line x1="36" y1="117.0" x2="664" y2="117.0" stroke="#2a2e37" stroke-width="1"/><text x="30" y="121.0" fill="#6b7280" font-size="11" text-anchor="end">400</text><line x1="36" y1="36.0" x2="664" y2="36.0" stroke="#2a2e37" stroke-width="1"/><text x="30" y="40.0" fill="#6b7280" font-size="11" text-anchor="end">800</text>

<polyline fill="none" stroke="#8a5a5a" stroke-width="2.5" stroke-linejoin="round" points="36.0,145.1 38.6,145.1 41.2,145.1 43.8,145.1 46.3,145.1 48.9,145.1 51.5,145.1 54.1,145.1 56.7,145.1 59.3,145.1 61.8,145.1 64.4,145.1 67.0,145.1 69.6,145.1 72.2,145.1 74.8,145.1 77.3,145.1 79.9,145.1 82.5,145.1 85.1,145.1 87.7,145.1 90.3,145.1 92.9,145.1 95.4,145.1 98.0,145.1 100.6,145.1 103.2,145.1 105.8,145.1 108.4,145.1 110.9,145.1 113.5,145.1 116.1,145.1 118.7,145.1 121.3,145.1 123.9,145.1 126.5,145.1 129.0,145.1 131.6,145.1 134.2,145.1 136.8,145.1 139.4,145.1 142.0,145.1 144.5,145.1 147.1,145.1 149.7,145.1 152.3,145.1 154.9,145.1 157.5,145.1 160.0,145.1 162.6,145.1 165.2,155.7 167.8,155.7 170.4,155.7 173.0,155.7 175.6,155.7 178.1,155.7 180.7,155.7 183.3,155.7 185.9,155.7 188.5,155.7 191.1,155.7 193.6,155.7 196.2,155.7 198.8,155.7 201.4,155.7 204.0,155.7 206.6,155.7 209.2,155.7 211.7,155.7 214.3,155.7 216.9,155.7 219.5,155.7 222.1,155.7 224.7,155.7 227.2,155.7 229.8,155.7 232.4,155.7 235.0,155.7 237.6,155.7 240.2,155.7 242.7,155.7 245.3,155.7 247.9,155.7 250.5,155.7 253.1,167.6 255.7,167.6 258.3,170.3 260.8,170.3 263.4,170.5 266.0,170.7 268.6,170.7 271.2,170.9 273.8,172.7 276.3,180.6 278.9,181.8 281.5,189.1 284.1,190.5 286.7,195.2 289.3,198.0 291.9,198.0 294.4,198.0 297.0,198.0 299.6,198.0 302.2,198.0 304.8,198.0 307.4,198.0 309.9,198.0 312.5,198.0 315.1,198.0 317.7,198.0 320.3,198.0 322.9,198.0 325.4,198.0 328.0,198.0 330.6,198.0 333.2,198.0 335.8,198.0 338.4,198.0 341.0,198.0 343.5,198.0 346.1,198.0 348.7,198.0 351.3,198.0 353.9,198.0 356.5,198.0 359.0,198.0 361.6,198.0 364.2,198.0 366.8,198.0 369.4,198.0 372.0,198.0 374.6,198.0 377.1,198.0 379.7,198.0 382.3,198.0 384.9,198.0 387.5,198.0 390.1,198.0 392.6,198.0 395.2,198.0 397.8,198.0 400.4,198.0 403.0,198.0 405.6,198.0 408.1,198.0 410.7,198.0 413.3,198.0 415.9,198.0 418.5,198.0 421.1,198.0 423.7,198.0 426.2,198.0 428.8,198.0 431.4,198.0 434.0,198.0 436.6,198.0 439.2,198.0 441.7,198.0 444.3,198.0 446.9,198.0 449.5,198.0 452.1,198.0 454.7,198.0 457.3,198.0 459.8,198.0 462.4,198.0 465.0,198.0 467.6,198.0 470.2,198.0 472.8,198.0 475.3,198.0 477.9,198.0 480.5,198.0 483.1,198.0 485.7,198.0 488.3,198.0 490.8,198.0 493.4,198.0 496.0,198.0 498.6,198.0 501.2,198.0 503.8,198.0 506.4,198.0 508.9,198.0 511.5,198.0 514.1,198.0 516.7,198.0 519.3,198.0 521.9,198.0 524.4,198.0 527.0,198.0 529.6,198.0 532.2,198.0 534.8,198.0 537.4,198.0 540.0,198.0 542.5,198.0 545.1,198.0 547.7,198.0 550.3,198.0 552.9,198.0 555.5,198.0 558.0,198.0 560.6,198.0 563.2,198.0 565.8,198.0 568.4,198.0 571.0,198.0 573.5,198.0 576.1,198.0 578.7,198.0 581.3,198.0 583.9,198.0 586.5,198.0 589.1,198.0 591.6,198.0 594.2,198.0 596.8,198.0 599.4,198.0 602.0,198.0 604.6,198.0 607.1,198.0 609.7,198.0 612.3,198.0 614.9,198.0 617.5,198.0 620.1,198.0 622.7,198.0 625.2,198.0 627.8,198.0 630.4,198.0 633.0,198.0 635.6,198.0 638.2,198.0 640.7,198.0 643.3,198.0 645.9,198.0 648.5,198.0 651.1,198.0 653.7,198.0 656.2,198.0 658.8,198.0 661.4,198.0 664.0,198.0"/><circle cx="36.0" cy="145.1" r="3" fill="#8a5a5a"/><circle cx="38.6" cy="145.1" r="3" fill="#8a5a5a"/><circle cx="41.2" cy="145.1" r="3" fill="#8a5a5a"/><circle cx="43.8" cy="145.1" r="3" fill="#8a5a5a"/><circle cx="46.3" cy="145.1" r="3" fill="#8a5a5a"/><circle cx="48.9" cy="145.1" r="3" fill="#8a5a5a"/><circle cx="51.5" cy="145.1" r="3" fill="#8a5a5a"/><circle cx="54.1" cy="145.1" r="3" fill="#8a5a5a"/><circle cx="56.7" cy="145.1" r="3" fill="#8a5a5a"/><circle cx="59.3" cy="145.1" r="3" fill="#8a5a5a"/><circle cx="61.8" cy="145.1" r="3" fill="#8a5a5a"/><circle cx="64.4" cy="145.1" r="3" fill="#8a5a5a"/><circle cx="67.0" cy="145.1" r="3" fill="#8a5a5a"/><circle cx="69.6" cy="145.1" r="3" fill="#8a5a5a"/><circle cx="72.2" cy="145.1" r="3" fill="#8a5a5a"/><circle cx="74.8" cy="145.1" r="3" fill="#8a5a5a"/><circle cx="77.3" cy="145.1" r="3" fill="#8a5a5a"/><circle cx="79.9" cy="145.1" r="3" fill="#8a5a5a"/><circle cx="82.5" cy="145.1" r="3" fill="#8a5a5a"/><circle cx="85.1" cy="145.1" r="3" fill="#8a5a5a"/><circle cx="87.7" cy="145.1" r="3" fill="#8a5a5a"/><circle cx="90.3" cy="145.1" r="3" fill="#8a5a5a"/><circle cx="92.9" cy="145.1" r="3" fill="#8a5a5a"/><circle cx="95.4" cy="145.1" r="3" fill="#8a5a5a"/><circle cx="98.0" cy="145.1" r="3" fill="#8a5a5a"/><circle cx="100.6" cy="145.1" r="3" fill="#8a5a5a"/><circle cx="103.2" cy="145.1" r="3" fill="#8a5a5a"/><circle cx="105.8" cy="145.1" r="3" fill="#8a5a5a"/><circle cx="108.4" cy="145.1" r="3" fill="#8a5a5a"/><circle cx="110.9" cy="145.1" r="3" fill="#8a5a5a"/><circle cx="113.5" cy="145.1" r="3" fill="#8a5a5a"/><circle cx="116.1" cy="145.1" r="3" fill="#8a5a5a"/><circle cx="118.7" cy="145.1" r="3" fill="#8a5a5a"/><circle cx="121.3" cy="145.1" r="3" fill="#8a5a5a"/><circle cx="123.9" cy="145.1" r="3" fill="#8a5a5a"/><circle cx="126.5" cy="145.1" r="3" fill="#8a5a5a"/><circle cx="129.0" cy="145.1" r="3" fill="#8a5a5a"/><circle cx="131.6" cy="145.1" r="3" fill="#8a5a5a"/><circle cx="134.2" cy="145.1" r="3" fill="#8a5a5a"/><circle cx="136.8" cy="145.1" r="3" fill="#8a5a5a"/><circle cx="139.4" cy="145.1" r="3" fill="#8a5a5a"/><circle cx="142.0" cy="145.1" r="3" fill="#8a5a5a"/><circle cx="144.5" cy="145.1" r="3" fill="#8a5a5a"/><circle cx="147.1" cy="145.1" r="3" fill="#8a5a5a"/><circle cx="149.7" cy="145.1" r="3" fill="#8a5a5a"/><circle cx="152.3" cy="145.1" r="3" fill="#8a5a5a"/><circle cx="154.9" cy="145.1" r="3" fill="#8a5a5a"/><circle cx="157.5" cy="145.1" r="3" fill="#8a5a5a"/><circle cx="160.0" cy="145.1" r="3" fill="#8a5a5a"/><circle cx="162.6" cy="145.1" r="3" fill="#8a5a5a"/><circle cx="165.2" cy="155.7" r="3" fill="#8a5a5a"/><circle cx="167.8" cy="155.7" r="3" fill="#8a5a5a"/><circle cx="170.4" cy="155.7" r="3" fill="#8a5a5a"/><circle cx="173.0" cy="155.7" r="3" fill="#8a5a5a"/><circle cx="175.6" cy="155.7" r="3" fill="#8a5a5a"/><circle cx="178.1" cy="155.7" r="3" fill="#8a5a5a"/><circle cx="180.7" cy="155.7" r="3" fill="#8a5a5a"/><circle cx="183.3" cy="155.7" r="3" fill="#8a5a5a"/><circle cx="185.9" cy="155.7" r="3" fill="#8a5a5a"/><circle cx="188.5" cy="155.7" r="3" fill="#8a5a5a"/><circle cx="191.1" cy="155.7" r="3" fill="#8a5a5a"/><circle cx="193.6" cy="155.7" r="3" fill="#8a5a5a"/><circle cx="196.2" cy="155.7" r="3" fill="#8a5a5a"/><circle cx="198.8" cy="155.7" r="3" fill="#8a5a5a"/><circle cx="201.4" cy="155.7" r="3" fill="#8a5a5a"/><circle cx="204.0" cy="155.7" r="3" fill="#8a5a5a"/><circle cx="206.6" cy="155.7" r="3" fill="#8a5a5a"/><circle cx="209.2" cy="155.7" r="3" fill="#8a5a5a"/><circle cx="211.7" cy="155.7" r="3" fill="#8a5a5a"/><circle cx="214.3" cy="155.7" r="3" fill="#8a5a5a"/><circle cx="216.9" cy="155.7" r="3" fill="#8a5a5a"/><circle cx="219.5" cy="155.7" r="3" fill="#8a5a5a"/><circle cx="222.1" cy="155.7" r="3" fill="#8a5a5a"/><circle cx="224.7" cy="155.7" r="3" fill="#8a5a5a"/><circle cx="227.2" cy="155.7" r="3" fill="#8a5a5a"/><circle cx="229.8" cy="155.7" r="3" fill="#8a5a5a"/><circle cx="232.4" cy="155.7" r="3" fill="#8a5a5a"/><circle cx="235.0" cy="155.7" r="3" fill="#8a5a5a"/><circle cx="237.6" cy="155.7" r="3" fill="#8a5a5a"/><circle cx="240.2" cy="155.7" r="3" fill="#8a5a5a"/><circle cx="242.7" cy="155.7" r="3" fill="#8a5a5a"/><circle cx="245.3" cy="155.7" r="3" fill="#8a5a5a"/><circle cx="247.9" cy="155.7" r="3" fill="#8a5a5a"/><circle cx="250.5" cy="155.7" r="3" fill="#8a5a5a"/><circle cx="253.1" cy="167.6" r="3" fill="#8a5a5a"/><circle cx="255.7" cy="167.6" r="3" fill="#8a5a5a"/><circle cx="258.3" cy="170.3" r="3" fill="#8a5a5a"/><circle cx="260.8" cy="170.3" r="3" fill="#8a5a5a"/><circle cx="263.4" cy="170.5" r="3" fill="#8a5a5a"/><circle cx="266.0" cy="170.7" r="3" fill="#8a5a5a"/><circle cx="268.6" cy="170.7" r="3" fill="#8a5a5a"/><circle cx="271.2" cy="170.9" r="3" fill="#8a5a5a"/><circle cx="273.8" cy="172.7" r="3" fill="#8a5a5a"/><circle cx="276.3" cy="180.6" r="3" fill="#8a5a5a"/><circle cx="278.9" cy="181.8" r="3" fill="#8a5a5a"/><circle cx="281.5" cy="189.1" r="3" fill="#8a5a5a"/><circle cx="284.1" cy="190.5" r="3" fill="#8a5a5a"/><circle cx="286.7" cy="195.2" r="3" fill="#8a5a5a"/><circle cx="289.3" cy="198.0" r="3" fill="#8a5a5a"/><circle cx="291.9" cy="198.0" r="3" fill="#8a5a5a"/><circle cx="294.4" cy="198.0" r="3" fill="#8a5a5a"/><circle cx="297.0" cy="198.0" r="3" fill="#8a5a5a"/><circle cx="299.6" cy="198.0" r="3" fill="#8a5a5a"/><circle cx="302.2" cy="198.0" r="3" fill="#8a5a5a"/><circle cx="304.8" cy="198.0" r="3" fill="#8a5a5a"/><circle cx="307.4" cy="198.0" r="3" fill="#8a5a5a"/><circle cx="309.9" cy="198.0" r="3" fill="#8a5a5a"/><circle cx="312.5" cy="198.0" r="3" fill="#8a5a5a"/><circle cx="315.1" cy="198.0" r="3" fill="#8a5a5a"/><circle cx="317.7" cy="198.0" r="3" fill="#8a5a5a"/><circle cx="320.3" cy="198.0" r="3" fill="#8a5a5a"/><circle cx="322.9" cy="198.0" r="3" fill="#8a5a5a"/><circle cx="325.4" cy="198.0" r="3" fill="#8a5a5a"/><circle cx="328.0" cy="198.0" r="3" fill="#8a5a5a"/><circle cx="330.6" cy="198.0" r="3" fill="#8a5a5a"/><circle cx="333.2" cy="198.0" r="3" fill="#8a5a5a"/><circle cx="335.8" cy="198.0" r="3" fill="#8a5a5a"/><circle cx="338.4" cy="198.0" r="3" fill="#8a5a5a"/><circle cx="341.0" cy="198.0" r="3" fill="#8a5a5a"/><circle cx="343.5" cy="198.0" r="3" fill="#8a5a5a"/><circle cx="346.1" cy="198.0" r="3" fill="#8a5a5a"/><circle cx="348.7" cy="198.0" r="3" fill="#8a5a5a"/><circle cx="351.3" cy="198.0" r="3" fill="#8a5a5a"/><circle cx="353.9" cy="198.0" r="3" fill="#8a5a5a"/><circle cx="356.5" cy="198.0" r="3" fill="#8a5a5a"/><circle cx="359.0" cy="198.0" r="3" fill="#8a5a5a"/><circle cx="361.6" cy="198.0" r="3" fill="#8a5a5a"/><circle cx="364.2" cy="198.0" r="3" fill="#8a5a5a"/><circle cx="366.8" cy="198.0" r="3" fill="#8a5a5a"/><circle cx="369.4" cy="198.0" r="3" fill="#8a5a5a"/><circle cx="372.0" cy="198.0" r="3" fill="#8a5a5a"/><circle cx="374.6" cy="198.0" r="3" fill="#8a5a5a"/><circle cx="377.1" cy="198.0" r="3" fill="#8a5a5a"/><circle cx="379.7" cy="198.0" r="3" fill="#8a5a5a"/><circle cx="382.3" cy="198.0" r="3" fill="#8a5a5a"/><circle cx="384.9" cy="198.0" r="3" fill="#8a5a5a"/><circle cx="387.5" cy="198.0" r="3" fill="#8a5a5a"/><circle cx="390.1" cy="198.0" r="3" fill="#8a5a5a"/><circle cx="392.6" cy="198.0" r="3" fill="#8a5a5a"/><circle cx="395.2" cy="198.0" r="3" fill="#8a5a5a"/><circle cx="397.8" cy="198.0" r="3" fill="#8a5a5a"/><circle cx="400.4" cy="198.0" r="3" fill="#8a5a5a"/><circle cx="403.0" cy="198.0" r="3" fill="#8a5a5a"/><circle cx="405.6" cy="198.0" r="3" fill="#8a5a5a"/><circle cx="408.1" cy="198.0" r="3" fill="#8a5a5a"/><circle cx="410.7" cy="198.0" r="3" fill="#8a5a5a"/><circle cx="413.3" cy="198.0" r="3" fill="#8a5a5a"/><circle cx="415.9" cy="198.0" r="3" fill="#8a5a5a"/><circle cx="418.5" cy="198.0" r="3" fill="#8a5a5a"/><circle cx="421.1" cy="198.0" r="3" fill="#8a5a5a"/><circle cx="423.7" cy="198.0" r="3" fill="#8a5a5a"/><circle cx="426.2" cy="198.0" r="3" fill="#8a5a5a"/><circle cx="428.8" cy="198.0" r="3" fill="#8a5a5a"/><circle cx="431.4" cy="198.0" r="3" fill="#8a5a5a"/><circle cx="434.0" cy="198.0" r="3" fill="#8a5a5a"/><circle cx="436.6" cy="198.0" r="3" fill="#8a5a5a"/><circle cx="439.2" cy="198.0" r="3" fill="#8a5a5a"/><circle cx="441.7" cy="198.0" r="3" fill="#8a5a5a"/><circle cx="444.3" cy="198.0" r="3" fill="#8a5a5a"/><circle cx="446.9" cy="198.0" r="3" fill="#8a5a5a"/><circle cx="449.5" cy="198.0" r="3" fill="#8a5a5a"/><circle cx="452.1" cy="198.0" r="3" fill="#8a5a5a"/><circle cx="454.7" cy="198.0" r="3" fill="#8a5a5a"/><circle cx="457.3" cy="198.0" r="3" fill="#8a5a5a"/><circle cx="459.8" cy="198.0" r="3" fill="#8a5a5a"/><circle cx="462.4" cy="198.0" r="3" fill="#8a5a5a"/><circle cx="465.0" cy="198.0" r="3" fill="#8a5a5a"/><circle cx="467.6" cy="198.0" r="3" fill="#8a5a5a"/><circle cx="470.2" cy="198.0" r="3" fill="#8a5a5a"/><circle cx="472.8" cy="198.0" r="3" fill="#8a5a5a"/><circle cx="475.3" cy="198.0" r="3" fill="#8a5a5a"/><circle cx="477.9" cy="198.0" r="3" fill="#8a5a5a"/><circle cx="480.5" cy="198.0" r="3" fill="#8a5a5a"/><circle cx="483.1" cy="198.0" r="3" fill="#8a5a5a"/><circle cx="485.7" cy="198.0" r="3" fill="#8a5a5a"/><circle cx="488.3" cy="198.0" r="3" fill="#8a5a5a"/><circle cx="490.8" cy="198.0" r="3" fill="#8a5a5a"/><circle cx="493.4" cy="198.0" r="3" fill="#8a5a5a"/><circle cx="496.0" cy="198.0" r="3" fill="#8a5a5a"/><circle cx="498.6" cy="198.0" r="3" fill="#8a5a5a"/><circle cx="501.2" cy="198.0" r="3" fill="#8a5a5a"/><circle cx="503.8" cy="198.0" r="3" fill="#8a5a5a"/><circle cx="506.4" cy="198.0" r="3" fill="#8a5a5a"/><circle cx="508.9" cy="198.0" r="3" fill="#8a5a5a"/><circle cx="511.5" cy="198.0" r="3" fill="#8a5a5a"/><circle cx="514.1" cy="198.0" r="3" fill="#8a5a5a"/><circle cx="516.7" cy="198.0" r="3" fill="#8a5a5a"/><circle cx="519.3" cy="198.0" r="3" fill="#8a5a5a"/><circle cx="521.9" cy="198.0" r="3" fill="#8a5a5a"/><circle cx="524.4" cy="198.0" r="3" fill="#8a5a5a"/><circle cx="527.0" cy="198.0" r="3" fill="#8a5a5a"/><circle cx="529.6" cy="198.0" r="3" fill="#8a5a5a"/><circle cx="532.2" cy="198.0" r="3" fill="#8a5a5a"/><circle cx="534.8" cy="198.0" r="3" fill="#8a5a5a"/><circle cx="537.4" cy="198.0" r="3" fill="#8a5a5a"/><circle cx="540.0" cy="198.0" r="3" fill="#8a5a5a"/><circle cx="542.5" cy="198.0" r="3" fill="#8a5a5a"/><circle cx="545.1" cy="198.0" r="3" fill="#8a5a5a"/><circle cx="547.7" cy="198.0" r="3" fill="#8a5a5a"/><circle cx="550.3" cy="198.0" r="3" fill="#8a5a5a"/><circle cx="552.9" cy="198.0" r="3" fill="#8a5a5a"/><circle cx="555.5" cy="198.0" r="3" fill="#8a5a5a"/><circle cx="558.0" cy="198.0" r="3" fill="#8a5a5a"/><circle cx="560.6" cy="198.0" r="3" fill="#8a5a5a"/><circle cx="563.2" cy="198.0" r="3" fill="#8a5a5a"/><circle cx="565.8" cy="198.0" r="3" fill="#8a5a5a"/><circle cx="568.4" cy="198.0" r="3" fill="#8a5a5a"/><circle cx="571.0" cy="198.0" r="3" fill="#8a5a5a"/><circle cx="573.5" cy="198.0" r="3" fill="#8a5a5a"/><circle cx="576.1" cy="198.0" r="3" fill="#8a5a5a"/><circle cx="578.7" cy="198.0" r="3" fill="#8a5a5a"/><circle cx="581.3" cy="198.0" r="3" fill="#8a5a5a"/><circle cx="583.9" cy="198.0" r="3" fill="#8a5a5a"/><circle cx="586.5" cy="198.0" r="3" fill="#8a5a5a"/><circle cx="589.1" cy="198.0" r="3" fill="#8a5a5a"/><circle cx="591.6" cy="198.0" r="3" fill="#8a5a5a"/><circle cx="594.2" cy="198.0" r="3" fill="#8a5a5a"/><circle cx="596.8" cy="198.0" r="3" fill="#8a5a5a"/><circle cx="599.4" cy="198.0" r="3" fill="#8a5a5a"/><circle cx="602.0" cy="198.0" r="3" fill="#8a5a5a"/><circle cx="604.6" cy="198.0" r="3" fill="#8a5a5a"/><circle cx="607.1" cy="198.0" r="3" fill="#8a5a5a"/><circle cx="609.7" cy="198.0" r="3" fill="#8a5a5a"/><circle cx="612.3" cy="198.0" r="3" fill="#8a5a5a"/><circle cx="614.9" cy="198.0" r="3" fill="#8a5a5a"/><circle cx="617.5" cy="198.0" r="3" fill="#8a5a5a"/><circle cx="620.1" cy="198.0" r="3" fill="#8a5a5a"/><circle cx="622.7" cy="198.0" r="3" fill="#8a5a5a"/><circle cx="625.2" cy="198.0" r="3" fill="#8a5a5a"/><circle cx="627.8" cy="198.0" r="3" fill="#8a5a5a"/><circle cx="630.4" cy="198.0" r="3" fill="#8a5a5a"/><circle cx="633.0" cy="198.0" r="3" fill="#8a5a5a"/><circle cx="635.6" cy="198.0" r="3" fill="#8a5a5a"/><circle cx="638.2" cy="198.0" r="3" fill="#8a5a5a"/><circle cx="640.7" cy="198.0" r="3" fill="#8a5a5a"/><circle cx="643.3" cy="198.0" r="3" fill="#8a5a5a"/><circle cx="645.9" cy="198.0" r="3" fill="#8a5a5a"/><circle cx="648.5" cy="198.0" r="3" fill="#8a5a5a"/><circle cx="651.1" cy="198.0" r="3" fill="#8a5a5a"/><circle cx="653.7" cy="198.0" r="3" fill="#8a5a5a"/><circle cx="656.2" cy="198.0" r="3" fill="#8a5a5a"/><circle cx="658.8" cy="198.0" r="3" fill="#8a5a5a"/><circle cx="661.4" cy="198.0" r="3" fill="#8a5a5a"/><circle cx="664.0" cy="198.0" r="3" fill="#8a5a5a"/>
<polyline fill="none" stroke="#3fb950" stroke-width="2.5" stroke-linejoin="round" points="36.0,198.0 38.6,198.0 41.2,198.0 43.8,198.0 46.3,198.0 48.9,198.0 51.5,198.0 54.1,198.0 56.7,198.0 59.3,198.0 61.8,198.0 64.4,198.0 67.0,198.0 69.6,198.0 72.2,198.0 74.8,198.0 77.3,198.0 79.9,198.0 82.5,198.0 85.1,198.0 87.7,198.0 90.3,198.0 92.9,198.0 95.4,198.0 98.0,198.0 100.6,198.0 103.2,198.0 105.8,198.0 108.4,198.0 110.9,198.0 113.5,198.0 116.1,198.0 118.7,198.0 121.3,198.0 123.9,198.0 126.5,198.0 129.0,198.0 131.6,198.0 134.2,198.0 136.8,198.0 139.4,198.0 142.0,198.0 144.5,198.0 147.1,191.7 149.7,191.7 152.3,191.7 154.9,191.7 157.5,191.7 160.0,191.7 162.6,191.7 165.2,192.9 167.8,192.9 170.4,190.7 173.0,190.7 175.6,190.7 178.1,190.7 180.7,190.7 183.3,190.5 185.9,190.5 188.5,190.5 191.1,190.3 193.6,190.3 196.2,190.3 198.8,190.3 201.4,190.3 204.0,190.3 206.6,190.3 209.2,190.3 211.7,190.3 214.3,190.3 216.9,190.3 219.5,190.3 222.1,190.3 224.7,190.3 227.2,190.3 229.8,190.3 232.4,190.3 235.0,190.3 237.6,190.3 240.2,190.3 242.7,190.3 245.3,189.3 247.9,189.3 250.5,189.3 253.1,190.7 255.7,190.7 258.3,190.7 260.8,190.7 263.4,190.7 266.0,190.7 268.6,190.7 271.2,190.7 273.8,190.7 276.3,190.9 278.9,190.9 281.5,190.9 284.1,194.2 286.7,196.8 289.3,198.0 291.9,198.0 294.4,198.0 297.0,198.0 299.6,198.0 302.2,198.0 304.8,198.0 307.4,198.0 309.9,198.0 312.5,198.0 315.1,198.0 317.7,198.0 320.3,198.0 322.9,198.0 325.4,198.0 328.0,198.0 330.6,198.0 333.2,198.0 335.8,198.0 338.4,198.0 341.0,198.0 343.5,198.0 346.1,198.0 348.7,198.0 351.3,198.0 353.9,198.0 356.5,198.0 359.0,198.0 361.6,198.0 364.2,198.0 366.8,198.0 369.4,198.0 372.0,198.0 374.6,198.0 377.1,198.0 379.7,198.0 382.3,198.0 384.9,198.0 387.5,198.0 390.1,198.0 392.6,198.0 395.2,198.0 397.8,198.0 400.4,198.0 403.0,198.0 405.6,198.0 408.1,198.0 410.7,198.0 413.3,198.0 415.9,198.0 418.5,198.0 421.1,198.0 423.7,198.0 426.2,198.0 428.8,198.0 431.4,198.0 434.0,198.0 436.6,198.0 439.2,198.0 441.7,198.0 444.3,198.0 446.9,198.0 449.5,198.0 452.1,198.0 454.7,198.0 457.3,198.0 459.8,198.0 462.4,198.0 465.0,198.0 467.6,198.0 470.2,198.0 472.8,198.0 475.3,198.0 477.9,198.0 480.5,198.0 483.1,198.0 485.7,198.0 488.3,198.0 490.8,198.0 493.4,198.0 496.0,198.0 498.6,198.0 501.2,198.0 503.8,198.0 506.4,198.0 508.9,198.0 511.5,198.0 514.1,198.0 516.7,198.0 519.3,198.0 521.9,198.0 524.4,198.0 527.0,198.0 529.6,198.0 532.2,198.0 534.8,198.0 537.4,198.0 540.0,198.0 542.5,198.0 545.1,198.0 547.7,198.0 550.3,198.0 552.9,198.0 555.5,198.0 558.0,198.0 560.6,198.0 563.2,198.0 565.8,198.0 568.4,198.0 571.0,198.0 573.5,198.0 576.1,198.0 578.7,198.0 581.3,198.0 583.9,198.0 586.5,198.0 589.1,198.0 591.6,198.0 594.2,198.0 596.8,198.0 599.4,198.0 602.0,198.0 604.6,198.0 607.1,198.0 609.7,198.0 612.3,198.0 614.9,198.0 617.5,198.0 620.1,198.0 622.7,198.0 625.2,198.0 627.8,198.0 630.4,198.0 633.0,198.0 635.6,198.0 638.2,198.0 640.7,198.0 643.3,198.0 645.9,198.0 648.5,198.0 651.1,198.0 653.7,198.0 656.2,198.0 658.8,198.0 661.4,198.0 664.0,198.0"/><circle cx="36.0" cy="198.0" r="3" fill="#3fb950"/><circle cx="38.6" cy="198.0" r="3" fill="#3fb950"/><circle cx="41.2" cy="198.0" r="3" fill="#3fb950"/><circle cx="43.8" cy="198.0" r="3" fill="#3fb950"/><circle cx="46.3" cy="198.0" r="3" fill="#3fb950"/><circle cx="48.9" cy="198.0" r="3" fill="#3fb950"/><circle cx="51.5" cy="198.0" r="3" fill="#3fb950"/><circle cx="54.1" cy="198.0" r="3" fill="#3fb950"/><circle cx="56.7" cy="198.0" r="3" fill="#3fb950"/><circle cx="59.3" cy="198.0" r="3" fill="#3fb950"/><circle cx="61.8" cy="198.0" r="3" fill="#3fb950"/><circle cx="64.4" cy="198.0" r="3" fill="#3fb950"/><circle cx="67.0" cy="198.0" r="3" fill="#3fb950"/><circle cx="69.6" cy="198.0" r="3" fill="#3fb950"/><circle cx="72.2" cy="198.0" r="3" fill="#3fb950"/><circle cx="74.8" cy="198.0" r="3" fill="#3fb950"/><circle cx="77.3" cy="198.0" r="3" fill="#3fb950"/><circle cx="79.9" cy="198.0" r="3" fill="#3fb950"/><circle cx="82.5" cy="198.0" r="3" fill="#3fb950"/><circle cx="85.1" cy="198.0" r="3" fill="#3fb950"/><circle cx="87.7" cy="198.0" r="3" fill="#3fb950"/><circle cx="90.3" cy="198.0" r="3" fill="#3fb950"/><circle cx="92.9" cy="198.0" r="3" fill="#3fb950"/><circle cx="95.4" cy="198.0" r="3" fill="#3fb950"/><circle cx="98.0" cy="198.0" r="3" fill="#3fb950"/><circle cx="100.6" cy="198.0" r="3" fill="#3fb950"/><circle cx="103.2" cy="198.0" r="3" fill="#3fb950"/><circle cx="105.8" cy="198.0" r="3" fill="#3fb950"/><circle cx="108.4" cy="198.0" r="3" fill="#3fb950"/><circle cx="110.9" cy="198.0" r="3" fill="#3fb950"/><circle cx="113.5" cy="198.0" r="3" fill="#3fb950"/><circle cx="116.1" cy="198.0" r="3" fill="#3fb950"/><circle cx="118.7" cy="198.0" r="3" fill="#3fb950"/><circle cx="121.3" cy="198.0" r="3" fill="#3fb950"/><circle cx="123.9" cy="198.0" r="3" fill="#3fb950"/><circle cx="126.5" cy="198.0" r="3" fill="#3fb950"/><circle cx="129.0" cy="198.0" r="3" fill="#3fb950"/><circle cx="131.6" cy="198.0" r="3" fill="#3fb950"/><circle cx="134.2" cy="198.0" r="3" fill="#3fb950"/><circle cx="136.8" cy="198.0" r="3" fill="#3fb950"/><circle cx="139.4" cy="198.0" r="3" fill="#3fb950"/><circle cx="142.0" cy="198.0" r="3" fill="#3fb950"/><circle cx="144.5" cy="198.0" r="3" fill="#3fb950"/><circle cx="147.1" cy="191.7" r="3" fill="#3fb950"/><circle cx="149.7" cy="191.7" r="3" fill="#3fb950"/><circle cx="152.3" cy="191.7" r="3" fill="#3fb950"/><circle cx="154.9" cy="191.7" r="3" fill="#3fb950"/><circle cx="157.5" cy="191.7" r="3" fill="#3fb950"/><circle cx="160.0" cy="191.7" r="3" fill="#3fb950"/><circle cx="162.6" cy="191.7" r="3" fill="#3fb950"/><circle cx="165.2" cy="192.9" r="3" fill="#3fb950"/><circle cx="167.8" cy="192.9" r="3" fill="#3fb950"/><circle cx="170.4" cy="190.7" r="3" fill="#3fb950"/><circle cx="173.0" cy="190.7" r="3" fill="#3fb950"/><circle cx="175.6" cy="190.7" r="3" fill="#3fb950"/><circle cx="178.1" cy="190.7" r="3" fill="#3fb950"/><circle cx="180.7" cy="190.7" r="3" fill="#3fb950"/><circle cx="183.3" cy="190.5" r="3" fill="#3fb950"/><circle cx="185.9" cy="190.5" r="3" fill="#3fb950"/><circle cx="188.5" cy="190.5" r="3" fill="#3fb950"/><circle cx="191.1" cy="190.3" r="3" fill="#3fb950"/><circle cx="193.6" cy="190.3" r="3" fill="#3fb950"/><circle cx="196.2" cy="190.3" r="3" fill="#3fb950"/><circle cx="198.8" cy="190.3" r="3" fill="#3fb950"/><circle cx="201.4" cy="190.3" r="3" fill="#3fb950"/><circle cx="204.0" cy="190.3" r="3" fill="#3fb950"/><circle cx="206.6" cy="190.3" r="3" fill="#3fb950"/><circle cx="209.2" cy="190.3" r="3" fill="#3fb950"/><circle cx="211.7" cy="190.3" r="3" fill="#3fb950"/><circle cx="214.3" cy="190.3" r="3" fill="#3fb950"/><circle cx="216.9" cy="190.3" r="3" fill="#3fb950"/><circle cx="219.5" cy="190.3" r="3" fill="#3fb950"/><circle cx="222.1" cy="190.3" r="3" fill="#3fb950"/><circle cx="224.7" cy="190.3" r="3" fill="#3fb950"/><circle cx="227.2" cy="190.3" r="3" fill="#3fb950"/><circle cx="229.8" cy="190.3" r="3" fill="#3fb950"/><circle cx="232.4" cy="190.3" r="3" fill="#3fb950"/><circle cx="235.0" cy="190.3" r="3" fill="#3fb950"/><circle cx="237.6" cy="190.3" r="3" fill="#3fb950"/><circle cx="240.2" cy="190.3" r="3" fill="#3fb950"/><circle cx="242.7" cy="190.3" r="3" fill="#3fb950"/><circle cx="245.3" cy="189.3" r="3" fill="#3fb950"/><circle cx="247.9" cy="189.3" r="3" fill="#3fb950"/><circle cx="250.5" cy="189.3" r="3" fill="#3fb950"/><circle cx="253.1" cy="190.7" r="3" fill="#3fb950"/><circle cx="255.7" cy="190.7" r="3" fill="#3fb950"/><circle cx="258.3" cy="190.7" r="3" fill="#3fb950"/><circle cx="260.8" cy="190.7" r="3" fill="#3fb950"/><circle cx="263.4" cy="190.7" r="3" fill="#3fb950"/><circle cx="266.0" cy="190.7" r="3" fill="#3fb950"/><circle cx="268.6" cy="190.7" r="3" fill="#3fb950"/><circle cx="271.2" cy="190.7" r="3" fill="#3fb950"/><circle cx="273.8" cy="190.7" r="3" fill="#3fb950"/><circle cx="276.3" cy="190.9" r="3" fill="#3fb950"/><circle cx="278.9" cy="190.9" r="3" fill="#3fb950"/><circle cx="281.5" cy="190.9" r="3" fill="#3fb950"/><circle cx="284.1" cy="194.2" r="3" fill="#3fb950"/><circle cx="286.7" cy="196.8" r="3" fill="#3fb950"/><circle cx="289.3" cy="198.0" r="3" fill="#3fb950"/><circle cx="291.9" cy="198.0" r="3" fill="#3fb950"/><circle cx="294.4" cy="198.0" r="3" fill="#3fb950"/><circle cx="297.0" cy="198.0" r="3" fill="#3fb950"/><circle cx="299.6" cy="198.0" r="3" fill="#3fb950"/><circle cx="302.2" cy="198.0" r="3" fill="#3fb950"/><circle cx="304.8" cy="198.0" r="3" fill="#3fb950"/><circle cx="307.4" cy="198.0" r="3" fill="#3fb950"/><circle cx="309.9" cy="198.0" r="3" fill="#3fb950"/><circle cx="312.5" cy="198.0" r="3" fill="#3fb950"/><circle cx="315.1" cy="198.0" r="3" fill="#3fb950"/><circle cx="317.7" cy="198.0" r="3" fill="#3fb950"/><circle cx="320.3" cy="198.0" r="3" fill="#3fb950"/><circle cx="322.9" cy="198.0" r="3" fill="#3fb950"/><circle cx="325.4" cy="198.0" r="3" fill="#3fb950"/><circle cx="328.0" cy="198.0" r="3" fill="#3fb950"/><circle cx="330.6" cy="198.0" r="3" fill="#3fb950"/><circle cx="333.2" cy="198.0" r="3" fill="#3fb950"/><circle cx="335.8" cy="198.0" r="3" fill="#3fb950"/><circle cx="338.4" cy="198.0" r="3" fill="#3fb950"/><circle cx="341.0" cy="198.0" r="3" fill="#3fb950"/><circle cx="343.5" cy="198.0" r="3" fill="#3fb950"/><circle cx="346.1" cy="198.0" r="3" fill="#3fb950"/><circle cx="348.7" cy="198.0" r="3" fill="#3fb950"/><circle cx="351.3" cy="198.0" r="3" fill="#3fb950"/><circle cx="353.9" cy="198.0" r="3" fill="#3fb950"/><circle cx="356.5" cy="198.0" r="3" fill="#3fb950"/><circle cx="359.0" cy="198.0" r="3" fill="#3fb950"/><circle cx="361.6" cy="198.0" r="3" fill="#3fb950"/><circle cx="364.2" cy="198.0" r="3" fill="#3fb950"/><circle cx="366.8" cy="198.0" r="3" fill="#3fb950"/><circle cx="369.4" cy="198.0" r="3" fill="#3fb950"/><circle cx="372.0" cy="198.0" r="3" fill="#3fb950"/><circle cx="374.6" cy="198.0" r="3" fill="#3fb950"/><circle cx="377.1" cy="198.0" r="3" fill="#3fb950"/><circle cx="379.7" cy="198.0" r="3" fill="#3fb950"/><circle cx="382.3" cy="198.0" r="3" fill="#3fb950"/><circle cx="384.9" cy="198.0" r="3" fill="#3fb950"/><circle cx="387.5" cy="198.0" r="3" fill="#3fb950"/><circle cx="390.1" cy="198.0" r="3" fill="#3fb950"/><circle cx="392.6" cy="198.0" r="3" fill="#3fb950"/><circle cx="395.2" cy="198.0" r="3" fill="#3fb950"/><circle cx="397.8" cy="198.0" r="3" fill="#3fb950"/><circle cx="400.4" cy="198.0" r="3" fill="#3fb950"/><circle cx="403.0" cy="198.0" r="3" fill="#3fb950"/><circle cx="405.6" cy="198.0" r="3" fill="#3fb950"/><circle cx="408.1" cy="198.0" r="3" fill="#3fb950"/><circle cx="410.7" cy="198.0" r="3" fill="#3fb950"/><circle cx="413.3" cy="198.0" r="3" fill="#3fb950"/><circle cx="415.9" cy="198.0" r="3" fill="#3fb950"/><circle cx="418.5" cy="198.0" r="3" fill="#3fb950"/><circle cx="421.1" cy="198.0" r="3" fill="#3fb950"/><circle cx="423.7" cy="198.0" r="3" fill="#3fb950"/><circle cx="426.2" cy="198.0" r="3" fill="#3fb950"/><circle cx="428.8" cy="198.0" r="3" fill="#3fb950"/><circle cx="431.4" cy="198.0" r="3" fill="#3fb950"/><circle cx="434.0" cy="198.0" r="3" fill="#3fb950"/><circle cx="436.6" cy="198.0" r="3" fill="#3fb950"/><circle cx="439.2" cy="198.0" r="3" fill="#3fb950"/><circle cx="441.7" cy="198.0" r="3" fill="#3fb950"/><circle cx="444.3" cy="198.0" r="3" fill="#3fb950"/><circle cx="446.9" cy="198.0" r="3" fill="#3fb950"/><circle cx="449.5" cy="198.0" r="3" fill="#3fb950"/><circle cx="452.1" cy="198.0" r="3" fill="#3fb950"/><circle cx="454.7" cy="198.0" r="3" fill="#3fb950"/><circle cx="457.3" cy="198.0" r="3" fill="#3fb950"/><circle cx="459.8" cy="198.0" r="3" fill="#3fb950"/><circle cx="462.4" cy="198.0" r="3" fill="#3fb950"/><circle cx="465.0" cy="198.0" r="3" fill="#3fb950"/><circle cx="467.6" cy="198.0" r="3" fill="#3fb950"/><circle cx="470.2" cy="198.0" r="3" fill="#3fb950"/><circle cx="472.8" cy="198.0" r="3" fill="#3fb950"/><circle cx="475.3" cy="198.0" r="3" fill="#3fb950"/><circle cx="477.9" cy="198.0" r="3" fill="#3fb950"/><circle cx="480.5" cy="198.0" r="3" fill="#3fb950"/><circle cx="483.1" cy="198.0" r="3" fill="#3fb950"/><circle cx="485.7" cy="198.0" r="3" fill="#3fb950"/><circle cx="488.3" cy="198.0" r="3" fill="#3fb950"/><circle cx="490.8" cy="198.0" r="3" fill="#3fb950"/><circle cx="493.4" cy="198.0" r="3" fill="#3fb950"/><circle cx="496.0" cy="198.0" r="3" fill="#3fb950"/><circle cx="498.6" cy="198.0" r="3" fill="#3fb950"/><circle cx="501.2" cy="198.0" r="3" fill="#3fb950"/><circle cx="503.8" cy="198.0" r="3" fill="#3fb950"/><circle cx="506.4" cy="198.0" r="3" fill="#3fb950"/><circle cx="508.9" cy="198.0" r="3" fill="#3fb950"/><circle cx="511.5" cy="198.0" r="3" fill="#3fb950"/><circle cx="514.1" cy="198.0" r="3" fill="#3fb950"/><circle cx="516.7" cy="198.0" r="3" fill="#3fb950"/><circle cx="519.3" cy="198.0" r="3" fill="#3fb950"/><circle cx="521.9" cy="198.0" r="3" fill="#3fb950"/><circle cx="524.4" cy="198.0" r="3" fill="#3fb950"/><circle cx="527.0" cy="198.0" r="3" fill="#3fb950"/><circle cx="529.6" cy="198.0" r="3" fill="#3fb950"/><circle cx="532.2" cy="198.0" r="3" fill="#3fb950"/><circle cx="534.8" cy="198.0" r="3" fill="#3fb950"/><circle cx="537.4" cy="198.0" r="3" fill="#3fb950"/><circle cx="540.0" cy="198.0" r="3" fill="#3fb950"/><circle cx="542.5" cy="198.0" r="3" fill="#3fb950"/><circle cx="545.1" cy="198.0" r="3" fill="#3fb950"/><circle cx="547.7" cy="198.0" r="3" fill="#3fb950"/><circle cx="550.3" cy="198.0" r="3" fill="#3fb950"/><circle cx="552.9" cy="198.0" r="3" fill="#3fb950"/><circle cx="555.5" cy="198.0" r="3" fill="#3fb950"/><circle cx="558.0" cy="198.0" r="3" fill="#3fb950"/><circle cx="560.6" cy="198.0" r="3" fill="#3fb950"/><circle cx="563.2" cy="198.0" r="3" fill="#3fb950"/><circle cx="565.8" cy="198.0" r="3" fill="#3fb950"/><circle cx="568.4" cy="198.0" r="3" fill="#3fb950"/><circle cx="571.0" cy="198.0" r="3" fill="#3fb950"/><circle cx="573.5" cy="198.0" r="3" fill="#3fb950"/><circle cx="576.1" cy="198.0" r="3" fill="#3fb950"/><circle cx="578.7" cy="198.0" r="3" fill="#3fb950"/><circle cx="581.3" cy="198.0" r="3" fill="#3fb950"/><circle cx="583.9" cy="198.0" r="3" fill="#3fb950"/><circle cx="586.5" cy="198.0" r="3" fill="#3fb950"/><circle cx="589.1" cy="198.0" r="3" fill="#3fb950"/><circle cx="591.6" cy="198.0" r="3" fill="#3fb950"/><circle cx="594.2" cy="198.0" r="3" fill="#3fb950"/><circle cx="596.8" cy="198.0" r="3" fill="#3fb950"/><circle cx="599.4" cy="198.0" r="3" fill="#3fb950"/><circle cx="602.0" cy="198.0" r="3" fill="#3fb950"/><circle cx="604.6" cy="198.0" r="3" fill="#3fb950"/><circle cx="607.1" cy="198.0" r="3" fill="#3fb950"/><circle cx="609.7" cy="198.0" r="3" fill="#3fb950"/><circle cx="612.3" cy="198.0" r="3" fill="#3fb950"/><circle cx="614.9" cy="198.0" r="3" fill="#3fb950"/><circle cx="617.5" cy="198.0" r="3" fill="#3fb950"/><circle cx="620.1" cy="198.0" r="3" fill="#3fb950"/><circle cx="622.7" cy="198.0" r="3" fill="#3fb950"/><circle cx="625.2" cy="198.0" r="3" fill="#3fb950"/><circle cx="627.8" cy="198.0" r="3" fill="#3fb950"/><circle cx="630.4" cy="198.0" r="3" fill="#3fb950"/><circle cx="633.0" cy="198.0" r="3" fill="#3fb950"/><circle cx="635.6" cy="198.0" r="3" fill="#3fb950"/><circle cx="638.2" cy="198.0" r="3" fill="#3fb950"/><circle cx="640.7" cy="198.0" r="3" fill="#3fb950"/><circle cx="643.3" cy="198.0" r="3" fill="#3fb950"/><circle cx="645.9" cy="198.0" r="3" fill="#3fb950"/><circle cx="648.5" cy="198.0" r="3" fill="#3fb950"/><circle cx="651.1" cy="198.0" r="3" fill="#3fb950"/><circle cx="653.7" cy="198.0" r="3" fill="#3fb950"/><circle cx="656.2" cy="198.0" r="3" fill="#3fb950"/><circle cx="658.8" cy="198.0" r="3" fill="#3fb950"/><circle cx="661.4" cy="198.0" r="3" fill="#3fb950"/><circle cx="664.0" cy="198.0" r="3" fill="#3fb950"/>
<polyline fill="none" stroke="#4aa3ff" stroke-width="2.5" stroke-linejoin="round" points="36.0,144.3 38.6,144.3 41.2,144.3 43.8,144.3 46.3,144.3 48.9,144.3 51.5,144.3 54.1,144.3 56.7,144.3 59.3,144.3 61.8,144.3 64.4,144.3 67.0,144.3 69.6,144.3 72.2,144.3 74.8,136.2 77.3,132.4 79.9,129.6 82.5,129.6 85.1,121.0 87.7,121.0 90.3,121.0 92.9,114.4 95.4,114.4 98.0,114.4 100.6,111.3 103.2,110.9 105.8,110.9 108.4,110.5 110.9,110.5 113.5,109.9 116.1,108.7 118.7,107.3 121.3,106.9 123.9,106.9 126.5,106.9 129.0,106.9 131.6,106.9 134.2,106.9 136.8,106.9 139.4,106.9 142.0,106.9 144.5,106.9 147.1,113.2 149.7,113.2 152.3,113.2 154.9,113.2 157.5,113.2 160.0,110.7 162.6,105.3 165.2,83.4 167.8,83.4 170.4,85.6 173.0,85.6 175.6,85.6 178.1,85.6 180.7,85.6 183.3,85.8 185.9,85.8 188.5,85.8 191.1,86.0 193.6,86.0 196.2,86.0 198.8,86.0 201.4,86.0 204.0,86.0 206.6,86.0 209.2,86.0 211.7,86.0 214.3,86.0 216.9,86.0 219.5,86.0 222.1,86.0 224.7,86.0 227.2,86.0 229.8,86.0 232.4,86.0 235.0,86.0 237.6,86.0 240.2,86.0 242.7,86.0 245.3,87.0 247.9,87.0 250.5,87.0 253.1,73.7 255.7,73.7 258.3,71.0 260.8,71.0 263.4,70.8 266.0,70.6 268.6,70.6 271.2,70.4 273.8,68.6 276.3,60.5 278.9,59.3 281.5,52.0 284.1,47.3 286.7,40.1 289.3,36.0 291.9,36.0 294.4,36.0 297.0,36.0 299.6,36.0 302.2,36.0 304.8,36.0 307.4,36.0 309.9,36.0 312.5,36.0 315.1,36.0 317.7,36.0 320.3,36.0 322.9,36.0 325.4,36.0 328.0,36.0 330.6,36.0 333.2,36.0 335.8,36.0 338.4,36.0 341.0,36.0 343.5,36.0 346.1,36.0 348.7,36.0 351.3,36.0 353.9,36.0 356.5,36.0 359.0,36.0 361.6,36.0 364.2,36.0 366.8,36.0 369.4,36.0 372.0,36.0 374.6,36.0 377.1,36.0 379.7,36.0 382.3,36.0 384.9,36.0 387.5,36.0 390.1,36.0 392.6,36.0 395.2,36.0 397.8,36.0 400.4,36.0 403.0,36.0 405.6,36.0 408.1,36.0 410.7,36.0 413.3,36.0 415.9,36.0 418.5,36.0 421.1,36.0 423.7,36.0 426.2,36.0 428.8,36.0 431.4,36.0 434.0,36.0 436.6,36.0 439.2,36.0 441.7,36.0 444.3,36.0 446.9,36.0 449.5,36.0 452.1,36.0 454.7,36.0 457.3,36.0 459.8,36.0 462.4,36.0 465.0,36.0 467.6,36.0 470.2,36.0 472.8,36.0 475.3,36.0 477.9,36.0 480.5,36.0 483.1,36.0 485.7,36.0 488.3,36.0 490.8,36.0 493.4,36.0 496.0,36.0 498.6,36.0 501.2,36.0 503.8,36.0 506.4,36.0 508.9,36.0 511.5,36.0 514.1,36.0 516.7,36.0 519.3,36.0 521.9,36.0 524.4,36.0 527.0,36.0 529.6,36.0 532.2,36.0 534.8,36.0 537.4,36.0 540.0,36.0 542.5,36.0 545.1,36.0 547.7,36.0 550.3,36.0 552.9,36.0 555.5,36.0 558.0,36.0 560.6,36.0 563.2,36.0 565.8,36.0 568.4,36.0 571.0,36.0 573.5,36.0 576.1,36.0 578.7,36.0 581.3,36.0 583.9,36.0 586.5,36.0 589.1,36.0 591.6,36.0 594.2,36.0 596.8,36.0 599.4,36.0 602.0,36.0 604.6,36.0 607.1,36.0 609.7,36.0 612.3,36.0 614.9,36.0 617.5,36.0 620.1,36.0 622.7,36.0 625.2,36.0 627.8,36.0 630.4,36.0 633.0,36.0 635.6,36.0 638.2,36.0 640.7,36.0 643.3,36.0 645.9,36.0 648.5,36.0 651.1,36.0 653.7,36.0 656.2,36.0 658.8,36.0 661.4,36.0 664.0,36.0"/><circle cx="36.0" cy="144.3" r="3" fill="#4aa3ff"/><circle cx="38.6" cy="144.3" r="3" fill="#4aa3ff"/><circle cx="41.2" cy="144.3" r="3" fill="#4aa3ff"/><circle cx="43.8" cy="144.3" r="3" fill="#4aa3ff"/><circle cx="46.3" cy="144.3" r="3" fill="#4aa3ff"/><circle cx="48.9" cy="144.3" r="3" fill="#4aa3ff"/><circle cx="51.5" cy="144.3" r="3" fill="#4aa3ff"/><circle cx="54.1" cy="144.3" r="3" fill="#4aa3ff"/><circle cx="56.7" cy="144.3" r="3" fill="#4aa3ff"/><circle cx="59.3" cy="144.3" r="3" fill="#4aa3ff"/><circle cx="61.8" cy="144.3" r="3" fill="#4aa3ff"/><circle cx="64.4" cy="144.3" r="3" fill="#4aa3ff"/><circle cx="67.0" cy="144.3" r="3" fill="#4aa3ff"/><circle cx="69.6" cy="144.3" r="3" fill="#4aa3ff"/><circle cx="72.2" cy="144.3" r="3" fill="#4aa3ff"/><circle cx="74.8" cy="136.2" r="3" fill="#4aa3ff"/><circle cx="77.3" cy="132.4" r="3" fill="#4aa3ff"/><circle cx="79.9" cy="129.6" r="3" fill="#4aa3ff"/><circle cx="82.5" cy="129.6" r="3" fill="#4aa3ff"/><circle cx="85.1" cy="121.0" r="3" fill="#4aa3ff"/><circle cx="87.7" cy="121.0" r="3" fill="#4aa3ff"/><circle cx="90.3" cy="121.0" r="3" fill="#4aa3ff"/><circle cx="92.9" cy="114.4" r="3" fill="#4aa3ff"/><circle cx="95.4" cy="114.4" r="3" fill="#4aa3ff"/><circle cx="98.0" cy="114.4" r="3" fill="#4aa3ff"/><circle cx="100.6" cy="111.3" r="3" fill="#4aa3ff"/><circle cx="103.2" cy="110.9" r="3" fill="#4aa3ff"/><circle cx="105.8" cy="110.9" r="3" fill="#4aa3ff"/><circle cx="108.4" cy="110.5" r="3" fill="#4aa3ff"/><circle cx="110.9" cy="110.5" r="3" fill="#4aa3ff"/><circle cx="113.5" cy="109.9" r="3" fill="#4aa3ff"/><circle cx="116.1" cy="108.7" r="3" fill="#4aa3ff"/><circle cx="118.7" cy="107.3" r="3" fill="#4aa3ff"/><circle cx="121.3" cy="106.9" r="3" fill="#4aa3ff"/><circle cx="123.9" cy="106.9" r="3" fill="#4aa3ff"/><circle cx="126.5" cy="106.9" r="3" fill="#4aa3ff"/><circle cx="129.0" cy="106.9" r="3" fill="#4aa3ff"/><circle cx="131.6" cy="106.9" r="3" fill="#4aa3ff"/><circle cx="134.2" cy="106.9" r="3" fill="#4aa3ff"/><circle cx="136.8" cy="106.9" r="3" fill="#4aa3ff"/><circle cx="139.4" cy="106.9" r="3" fill="#4aa3ff"/><circle cx="142.0" cy="106.9" r="3" fill="#4aa3ff"/><circle cx="144.5" cy="106.9" r="3" fill="#4aa3ff"/><circle cx="147.1" cy="113.2" r="3" fill="#4aa3ff"/><circle cx="149.7" cy="113.2" r="3" fill="#4aa3ff"/><circle cx="152.3" cy="113.2" r="3" fill="#4aa3ff"/><circle cx="154.9" cy="113.2" r="3" fill="#4aa3ff"/><circle cx="157.5" cy="113.2" r="3" fill="#4aa3ff"/><circle cx="160.0" cy="110.7" r="3" fill="#4aa3ff"/><circle cx="162.6" cy="105.3" r="3" fill="#4aa3ff"/><circle cx="165.2" cy="83.4" r="3" fill="#4aa3ff"/><circle cx="167.8" cy="83.4" r="3" fill="#4aa3ff"/><circle cx="170.4" cy="85.6" r="3" fill="#4aa3ff"/><circle cx="173.0" cy="85.6" r="3" fill="#4aa3ff"/><circle cx="175.6" cy="85.6" r="3" fill="#4aa3ff"/><circle cx="178.1" cy="85.6" r="3" fill="#4aa3ff"/><circle cx="180.7" cy="85.6" r="3" fill="#4aa3ff"/><circle cx="183.3" cy="85.8" r="3" fill="#4aa3ff"/><circle cx="185.9" cy="85.8" r="3" fill="#4aa3ff"/><circle cx="188.5" cy="85.8" r="3" fill="#4aa3ff"/><circle cx="191.1" cy="86.0" r="3" fill="#4aa3ff"/><circle cx="193.6" cy="86.0" r="3" fill="#4aa3ff"/><circle cx="196.2" cy="86.0" r="3" fill="#4aa3ff"/><circle cx="198.8" cy="86.0" r="3" fill="#4aa3ff"/><circle cx="201.4" cy="86.0" r="3" fill="#4aa3ff"/><circle cx="204.0" cy="86.0" r="3" fill="#4aa3ff"/><circle cx="206.6" cy="86.0" r="3" fill="#4aa3ff"/><circle cx="209.2" cy="86.0" r="3" fill="#4aa3ff"/><circle cx="211.7" cy="86.0" r="3" fill="#4aa3ff"/><circle cx="214.3" cy="86.0" r="3" fill="#4aa3ff"/><circle cx="216.9" cy="86.0" r="3" fill="#4aa3ff"/><circle cx="219.5" cy="86.0" r="3" fill="#4aa3ff"/><circle cx="222.1" cy="86.0" r="3" fill="#4aa3ff"/><circle cx="224.7" cy="86.0" r="3" fill="#4aa3ff"/><circle cx="227.2" cy="86.0" r="3" fill="#4aa3ff"/><circle cx="229.8" cy="86.0" r="3" fill="#4aa3ff"/><circle cx="232.4" cy="86.0" r="3" fill="#4aa3ff"/><circle cx="235.0" cy="86.0" r="3" fill="#4aa3ff"/><circle cx="237.6" cy="86.0" r="3" fill="#4aa3ff"/><circle cx="240.2" cy="86.0" r="3" fill="#4aa3ff"/><circle cx="242.7" cy="86.0" r="3" fill="#4aa3ff"/><circle cx="245.3" cy="87.0" r="3" fill="#4aa3ff"/><circle cx="247.9" cy="87.0" r="3" fill="#4aa3ff"/><circle cx="250.5" cy="87.0" r="3" fill="#4aa3ff"/><circle cx="253.1" cy="73.7" r="3" fill="#4aa3ff"/><circle cx="255.7" cy="73.7" r="3" fill="#4aa3ff"/><circle cx="258.3" cy="71.0" r="3" fill="#4aa3ff"/><circle cx="260.8" cy="71.0" r="3" fill="#4aa3ff"/><circle cx="263.4" cy="70.8" r="3" fill="#4aa3ff"/><circle cx="266.0" cy="70.6" r="3" fill="#4aa3ff"/><circle cx="268.6" cy="70.6" r="3" fill="#4aa3ff"/><circle cx="271.2" cy="70.4" r="3" fill="#4aa3ff"/><circle cx="273.8" cy="68.6" r="3" fill="#4aa3ff"/><circle cx="276.3" cy="60.5" r="3" fill="#4aa3ff"/><circle cx="278.9" cy="59.3" r="3" fill="#4aa3ff"/><circle cx="281.5" cy="52.0" r="3" fill="#4aa3ff"/><circle cx="284.1" cy="47.3" r="3" fill="#4aa3ff"/><circle cx="286.7" cy="40.1" r="3" fill="#4aa3ff"/><circle cx="289.3" cy="36.0" r="3" fill="#4aa3ff"/><circle cx="291.9" cy="36.0" r="3" fill="#4aa3ff"/><circle cx="294.4" cy="36.0" r="3" fill="#4aa3ff"/><circle cx="297.0" cy="36.0" r="3" fill="#4aa3ff"/><circle cx="299.6" cy="36.0" r="3" fill="#4aa3ff"/><circle cx="302.2" cy="36.0" r="3" fill="#4aa3ff"/><circle cx="304.8" cy="36.0" r="3" fill="#4aa3ff"/><circle cx="307.4" cy="36.0" r="3" fill="#4aa3ff"/><circle cx="309.9" cy="36.0" r="3" fill="#4aa3ff"/><circle cx="312.5" cy="36.0" r="3" fill="#4aa3ff"/><circle cx="315.1" cy="36.0" r="3" fill="#4aa3ff"/><circle cx="317.7" cy="36.0" r="3" fill="#4aa3ff"/><circle cx="320.3" cy="36.0" r="3" fill="#4aa3ff"/><circle cx="322.9" cy="36.0" r="3" fill="#4aa3ff"/><circle cx="325.4" cy="36.0" r="3" fill="#4aa3ff"/><circle cx="328.0" cy="36.0" r="3" fill="#4aa3ff"/><circle cx="330.6" cy="36.0" r="3" fill="#4aa3ff"/><circle cx="333.2" cy="36.0" r="3" fill="#4aa3ff"/><circle cx="335.8" cy="36.0" r="3" fill="#4aa3ff"/><circle cx="338.4" cy="36.0" r="3" fill="#4aa3ff"/><circle cx="341.0" cy="36.0" r="3" fill="#4aa3ff"/><circle cx="343.5" cy="36.0" r="3" fill="#4aa3ff"/><circle cx="346.1" cy="36.0" r="3" fill="#4aa3ff"/><circle cx="348.7" cy="36.0" r="3" fill="#4aa3ff"/><circle cx="351.3" cy="36.0" r="3" fill="#4aa3ff"/><circle cx="353.9" cy="36.0" r="3" fill="#4aa3ff"/><circle cx="356.5" cy="36.0" r="3" fill="#4aa3ff"/><circle cx="359.0" cy="36.0" r="3" fill="#4aa3ff"/><circle cx="361.6" cy="36.0" r="3" fill="#4aa3ff"/><circle cx="364.2" cy="36.0" r="3" fill="#4aa3ff"/><circle cx="366.8" cy="36.0" r="3" fill="#4aa3ff"/><circle cx="369.4" cy="36.0" r="3" fill="#4aa3ff"/><circle cx="372.0" cy="36.0" r="3" fill="#4aa3ff"/><circle cx="374.6" cy="36.0" r="3" fill="#4aa3ff"/><circle cx="377.1" cy="36.0" r="3" fill="#4aa3ff"/><circle cx="379.7" cy="36.0" r="3" fill="#4aa3ff"/><circle cx="382.3" cy="36.0" r="3" fill="#4aa3ff"/><circle cx="384.9" cy="36.0" r="3" fill="#4aa3ff"/><circle cx="387.5" cy="36.0" r="3" fill="#4aa3ff"/><circle cx="390.1" cy="36.0" r="3" fill="#4aa3ff"/><circle cx="392.6" cy="36.0" r="3" fill="#4aa3ff"/><circle cx="395.2" cy="36.0" r="3" fill="#4aa3ff"/><circle cx="397.8" cy="36.0" r="3" fill="#4aa3ff"/><circle cx="400.4" cy="36.0" r="3" fill="#4aa3ff"/><circle cx="403.0" cy="36.0" r="3" fill="#4aa3ff"/><circle cx="405.6" cy="36.0" r="3" fill="#4aa3ff"/><circle cx="408.1" cy="36.0" r="3" fill="#4aa3ff"/><circle cx="410.7" cy="36.0" r="3" fill="#4aa3ff"/><circle cx="413.3" cy="36.0" r="3" fill="#4aa3ff"/><circle cx="415.9" cy="36.0" r="3" fill="#4aa3ff"/><circle cx="418.5" cy="36.0" r="3" fill="#4aa3ff"/><circle cx="421.1" cy="36.0" r="3" fill="#4aa3ff"/><circle cx="423.7" cy="36.0" r="3" fill="#4aa3ff"/><circle cx="426.2" cy="36.0" r="3" fill="#4aa3ff"/><circle cx="428.8" cy="36.0" r="3" fill="#4aa3ff"/><circle cx="431.4" cy="36.0" r="3" fill="#4aa3ff"/><circle cx="434.0" cy="36.0" r="3" fill="#4aa3ff"/><circle cx="436.6" cy="36.0" r="3" fill="#4aa3ff"/><circle cx="439.2" cy="36.0" r="3" fill="#4aa3ff"/><circle cx="441.7" cy="36.0" r="3" fill="#4aa3ff"/><circle cx="444.3" cy="36.0" r="3" fill="#4aa3ff"/><circle cx="446.9" cy="36.0" r="3" fill="#4aa3ff"/><circle cx="449.5" cy="36.0" r="3" fill="#4aa3ff"/><circle cx="452.1" cy="36.0" r="3" fill="#4aa3ff"/><circle cx="454.7" cy="36.0" r="3" fill="#4aa3ff"/><circle cx="457.3" cy="36.0" r="3" fill="#4aa3ff"/><circle cx="459.8" cy="36.0" r="3" fill="#4aa3ff"/><circle cx="462.4" cy="36.0" r="3" fill="#4aa3ff"/><circle cx="465.0" cy="36.0" r="3" fill="#4aa3ff"/><circle cx="467.6" cy="36.0" r="3" fill="#4aa3ff"/><circle cx="470.2" cy="36.0" r="3" fill="#4aa3ff"/><circle cx="472.8" cy="36.0" r="3" fill="#4aa3ff"/><circle cx="475.3" cy="36.0" r="3" fill="#4aa3ff"/><circle cx="477.9" cy="36.0" r="3" fill="#4aa3ff"/><circle cx="480.5" cy="36.0" r="3" fill="#4aa3ff"/><circle cx="483.1" cy="36.0" r="3" fill="#4aa3ff"/><circle cx="485.7" cy="36.0" r="3" fill="#4aa3ff"/><circle cx="488.3" cy="36.0" r="3" fill="#4aa3ff"/><circle cx="490.8" cy="36.0" r="3" fill="#4aa3ff"/><circle cx="493.4" cy="36.0" r="3" fill="#4aa3ff"/><circle cx="496.0" cy="36.0" r="3" fill="#4aa3ff"/><circle cx="498.6" cy="36.0" r="3" fill="#4aa3ff"/><circle cx="501.2" cy="36.0" r="3" fill="#4aa3ff"/><circle cx="503.8" cy="36.0" r="3" fill="#4aa3ff"/><circle cx="506.4" cy="36.0" r="3" fill="#4aa3ff"/><circle cx="508.9" cy="36.0" r="3" fill="#4aa3ff"/><circle cx="511.5" cy="36.0" r="3" fill="#4aa3ff"/><circle cx="514.1" cy="36.0" r="3" fill="#4aa3ff"/><circle cx="516.7" cy="36.0" r="3" fill="#4aa3ff"/><circle cx="519.3" cy="36.0" r="3" fill="#4aa3ff"/><circle cx="521.9" cy="36.0" r="3" fill="#4aa3ff"/><circle cx="524.4" cy="36.0" r="3" fill="#4aa3ff"/><circle cx="527.0" cy="36.0" r="3" fill="#4aa3ff"/><circle cx="529.6" cy="36.0" r="3" fill="#4aa3ff"/><circle cx="532.2" cy="36.0" r="3" fill="#4aa3ff"/><circle cx="534.8" cy="36.0" r="3" fill="#4aa3ff"/><circle cx="537.4" cy="36.0" r="3" fill="#4aa3ff"/><circle cx="540.0" cy="36.0" r="3" fill="#4aa3ff"/><circle cx="542.5" cy="36.0" r="3" fill="#4aa3ff"/><circle cx="545.1" cy="36.0" r="3" fill="#4aa3ff"/><circle cx="547.7" cy="36.0" r="3" fill="#4aa3ff"/><circle cx="550.3" cy="36.0" r="3" fill="#4aa3ff"/><circle cx="552.9" cy="36.0" r="3" fill="#4aa3ff"/><circle cx="555.5" cy="36.0" r="3" fill="#4aa3ff"/><circle cx="558.0" cy="36.0" r="3" fill="#4aa3ff"/><circle cx="560.6" cy="36.0" r="3" fill="#4aa3ff"/><circle cx="563.2" cy="36.0" r="3" fill="#4aa3ff"/><circle cx="565.8" cy="36.0" r="3" fill="#4aa3ff"/><circle cx="568.4" cy="36.0" r="3" fill="#4aa3ff"/><circle cx="571.0" cy="36.0" r="3" fill="#4aa3ff"/><circle cx="573.5" cy="36.0" r="3" fill="#4aa3ff"/><circle cx="576.1" cy="36.0" r="3" fill="#4aa3ff"/><circle cx="578.7" cy="36.0" r="3" fill="#4aa3ff"/><circle cx="581.3" cy="36.0" r="3" fill="#4aa3ff"/><circle cx="583.9" cy="36.0" r="3" fill="#4aa3ff"/><circle cx="586.5" cy="36.0" r="3" fill="#4aa3ff"/><circle cx="589.1" cy="36.0" r="3" fill="#4aa3ff"/><circle cx="591.6" cy="36.0" r="3" fill="#4aa3ff"/><circle cx="594.2" cy="36.0" r="3" fill="#4aa3ff"/><circle cx="596.8" cy="36.0" r="3" fill="#4aa3ff"/><circle cx="599.4" cy="36.0" r="3" fill="#4aa3ff"/><circle cx="602.0" cy="36.0" r="3" fill="#4aa3ff"/><circle cx="604.6" cy="36.0" r="3" fill="#4aa3ff"/><circle cx="607.1" cy="36.0" r="3" fill="#4aa3ff"/><circle cx="609.7" cy="36.0" r="3" fill="#4aa3ff"/><circle cx="612.3" cy="36.0" r="3" fill="#4aa3ff"/><circle cx="614.9" cy="36.0" r="3" fill="#4aa3ff"/><circle cx="617.5" cy="36.0" r="3" fill="#4aa3ff"/><circle cx="620.1" cy="36.0" r="3" fill="#4aa3ff"/><circle cx="622.7" cy="36.0" r="3" fill="#4aa3ff"/><circle cx="625.2" cy="36.0" r="3" fill="#4aa3ff"/><circle cx="627.8" cy="36.0" r="3" fill="#4aa3ff"/><circle cx="630.4" cy="36.0" r="3" fill="#4aa3ff"/><circle cx="633.0" cy="36.0" r="3" fill="#4aa3ff"/><circle cx="635.6" cy="36.0" r="3" fill="#4aa3ff"/><circle cx="638.2" cy="36.0" r="3" fill="#4aa3ff"/><circle cx="640.7" cy="36.0" r="3" fill="#4aa3ff"/><circle cx="643.3" cy="36.0" r="3" fill="#4aa3ff"/><circle cx="645.9" cy="36.0" r="3" fill="#4aa3ff"/><circle cx="648.5" cy="36.0" r="3" fill="#4aa3ff"/><circle cx="651.1" cy="36.0" r="3" fill="#4aa3ff"/><circle cx="653.7" cy="36.0" r="3" fill="#4aa3ff"/><circle cx="656.2" cy="36.0" r="3" fill="#4aa3ff"/><circle cx="658.8" cy="36.0" r="3" fill="#4aa3ff"/><circle cx="661.4" cy="36.0" r="3" fill="#4aa3ff"/><circle cx="664.0" cy="36.0" r="3" fill="#4aa3ff"/>
<text x="36" y="225" fill="#6b7280" font-size="11">2026-06-26</text>
<text x="664" y="225" fill="#6b7280" font-size="11" text-anchor="end">2026-07-20</text>
<text x="36" y="212" font-family="system-ui,sans-serif" font-size="11">
<tspan fill="#4aa3ff">&#9679; open FPs</tspan>  <tspan fill="#3fb950">&#9679; closed (Anthropic acting)</tspan>  <tspan fill="#8a5a5a">&#9679; harness withdrawn</tspan></text>
<text x="664" y="22" text-anchor="end" font-family="system-ui,sans-serif" font-size="12">
<tspan fill="#4aa3ff">open 800</tspan>  <tspan fill="#3fb950">closed 0</tspan>  <tspan fill="#8a5a5a">harness 0</tspan></text>
</svg>