<svg xmlns="http://www.w3.org/2000/svg" width="680" height="220" viewBox="0 0 680 220" role="img">
<rect width="680" height="220" rx="12" fill="#16181d"/>
<text x="34" y="22" fill="#e8eaed" font-family="system-ui,sans-serif" font-size="14" font-weight="700">Is Anthropic acting? — ClAudit reports over time</text>
<line x1="34" y1="186.0" x2="646" y2="186.0" stroke="#2a2e37" stroke-width="1"/><text x="28" y="190.0" fill="#6b7280" font-size="11" text-anchor="end">0</text><line x1="34" y1="110.0" x2="646" y2="110.0" stroke="#2a2e37" stroke-width="1"/><text x="28" y="114.0" fill="#6b7280" font-size="11" text-anchor="end">260</text><line x1="34" y1="34.0" x2="646" y2="34.0" stroke="#2a2e37" stroke-width="1"/><text x="28" y="38.0" fill="#6b7280" font-size="11" text-anchor="end">521</text>

<polyline fill="none" stroke="#6b7280" stroke-width="2.5" stroke-linejoin="round" points="34.0,155.1 187.0,120.9 340.0,70.5 493.0,43.9 646.0,34.0"/><circle cx="34.0" cy="155.1" r="3.5" fill="#6b7280"/><circle cx="187.0" cy="120.9" r="3.5" fill="#6b7280"/><circle cx="340.0" cy="70.5" r="3.5" fill="#6b7280"/><circle cx="493.0" cy="43.9" r="3.5" fill="#6b7280"/><circle cx="646.0" cy="34.0" r="3.5" fill="#6b7280"/>
<polyline fill="none" stroke="#3fb950" stroke-width="2.5" stroke-linejoin="round" points="34.0,186.0 187.0,186.0 340.0,186.0 493.0,186.0 646.0,186.0"/><circle cx="34.0" cy="186.0" r="3.5" fill="#3fb950"/><circle cx="187.0" cy="186.0" r="3.5" fill="#3fb950"/><circle cx="340.0" cy="186.0" r="3.5" fill="#3fb950"/><circle cx="493.0" cy="186.0" r="3.5" fill="#3fb950"/><circle cx="646.0" cy="186.0" r="3.5" fill="#3fb950"/>
<polyline fill="none" stroke="#f85149" stroke-width="2.5" stroke-linejoin="round" points="34.0,155.1 187.0,120.9 340.0,70.5 493.0,43.9 646.0,34.0"/><circle cx="34.0" cy="155.1" r="3.5" fill="#f85149"/><circle cx="187.0" cy="120.9" r="3.5" fill="#f85149"/><circle cx="340.0" cy="70.5" r="3.5" fill="#f85149"/><circle cx="493.0" cy="43.9" r="3.5" fill="#f85149"/><circle cx="646.0" cy="34.0" r="3.5" fill="#f85149"/>
<text x="34" y="212" fill="#6b7280" font-size="11">2026-06-25</text>
<text x="646" y="212" fill="#6b7280" font-size="11" text-anchor="end">2026-06-25</text>
<text x="646" y="22" text-anchor="end" font-family="system-ui,sans-serif" font-size="12">
<tspan fill="#6b7280">filed 521</tspan>  <tspan fill="#f85149">open 521</tspan>  <tspan fill="#3fb950">closed 0</tspan></text>
</svg>