<svg xmlns="http://www.w3.org/2000/svg" width="700" height="234" viewBox="0 0 700 234" role="img">
<rect width="700" height="234" rx="12" fill="#16181d"/>
<text x="36" y="22" fill="#e8eaed" font-family="system-ui,sans-serif" font-size="14" font-weight="700">Is Anthropic acting? cyber/aup false positives over time</text>
<line x1="36" y1="198.0" x2="664" y2="198.0" stroke="#2a2e37" stroke-width="1"/><text x="30" y="202.0" fill="#6b7280" font-size="11" text-anchor="end">0</text><line x1="36" y1="117.0" x2="664" y2="117.0" stroke="#2a2e37" stroke-width="1"/><text x="30" y="121.0" fill="#6b7280" font-size="11" text-anchor="end">400</text><line x1="36" y1="36.0" x2="664" y2="36.0" stroke="#2a2e37" stroke-width="1"/><text x="30" y="40.0" fill="#6b7280" font-size="11" text-anchor="end">800</text>

<polyline fill="none" stroke="#8a5a5a" stroke-width="2.5" stroke-linejoin="round" points="36.0,145.1 40.1,145.1 44.3,145.1 48.4,145.1 52.5,145.1 56.7,145.1 60.8,145.1 64.9,145.1 69.1,145.1 73.2,145.1 77.3,145.1 81.4,145.1 85.6,145.1 89.7,145.1 93.8,145.1 98.0,145.1 102.1,145.1 106.2,145.1 110.4,145.1 114.5,145.1 118.6,145.1 122.8,145.1 126.9,145.1 131.0,145.1 135.2,145.1 139.3,145.1 143.4,145.1 147.6,145.1 151.7,145.1 155.8,145.1 159.9,145.1 164.1,145.1 168.2,145.1 172.3,145.1 176.5,145.1 180.6,145.1 184.7,145.1 188.9,145.1 193.0,145.1 197.1,145.1 201.3,145.1 205.4,145.1 209.5,145.1 213.7,145.1 217.8,145.1 221.9,145.1 226.1,145.1 230.2,145.1 234.3,145.1 238.4,145.1 242.6,155.7 246.7,155.7 250.8,155.7 255.0,155.7 259.1,155.7 263.2,155.7 267.4,155.7 271.5,155.7 275.6,155.7 279.8,155.7 283.9,155.7 288.0,155.7 292.2,155.7 296.3,155.7 300.4,155.7 304.6,155.7 308.7,155.7 312.8,155.7 316.9,155.7 321.1,155.7 325.2,155.7 329.3,155.7 333.5,155.7 337.6,155.7 341.7,155.7 345.9,155.7 350.0,155.7 354.1,155.7 358.3,155.7 362.4,155.7 366.5,155.7 370.7,155.7 374.8,155.7 378.9,155.7 383.1,167.6 387.2,167.6 391.3,170.3 395.4,170.3 399.6,170.5 403.7,170.7 407.8,170.7 412.0,170.9 416.1,172.7 420.2,180.6 424.4,181.8 428.5,189.1 432.6,190.5 436.8,195.2 440.9,198.0 445.0,198.0 449.2,198.0 453.3,198.0 457.4,198.0 461.6,198.0 465.7,198.0 469.8,198.0 473.9,198.0 478.1,198.0 482.2,198.0 486.3,198.0 490.5,198.0 494.6,198.0 498.7,198.0 502.9,198.0 507.0,198.0 511.1,198.0 515.3,198.0 519.4,198.0 523.5,198.0 527.7,198.0 531.8,198.0 535.9,198.0 540.1,198.0 544.2,198.0 548.3,198.0 552.4,198.0 556.6,198.0 560.7,198.0 564.8,198.0 569.0,198.0 573.1,198.0 577.2,198.0 581.4,198.0 585.5,198.0 589.6,198.0 593.8,198.0 597.9,198.0 602.0,198.0 606.2,198.0 610.3,198.0 614.4,198.0 618.6,198.0 622.7,198.0 626.8,198.0 630.9,198.0 635.1,198.0 639.2,198.0 643.3,198.0 647.5,198.0 651.6,198.0 655.7,198.0 659.9,198.0 664.0,198.0"/><circle cx="36.0" cy="145.1" r="3" fill="#8a5a5a"/><circle cx="40.1" cy="145.1" r="3" fill="#8a5a5a"/><circle cx="44.3" cy="145.1" r="3" fill="#8a5a5a"/><circle cx="48.4" cy="145.1" r="3" fill="#8a5a5a"/><circle cx="52.5" cy="145.1" r="3" fill="#8a5a5a"/><circle cx="56.7" cy="145.1" r="3" fill="#8a5a5a"/><circle cx="60.8" cy="145.1" r="3" fill="#8a5a5a"/><circle cx="64.9" cy="145.1" r="3" fill="#8a5a5a"/><circle cx="69.1" cy="145.1" r="3" fill="#8a5a5a"/><circle cx="73.2" cy="145.1" r="3" fill="#8a5a5a"/><circle cx="77.3" cy="145.1" r="3" fill="#8a5a5a"/><circle cx="81.4" cy="145.1" r="3" fill="#8a5a5a"/><circle cx="85.6" cy="145.1" r="3" fill="#8a5a5a"/><circle cx="89.7" cy="145.1" r="3" fill="#8a5a5a"/><circle cx="93.8" cy="145.1" r="3" fill="#8a5a5a"/><circle cx="98.0" cy="145.1" r="3" fill="#8a5a5a"/><circle cx="102.1" cy="145.1" r="3" fill="#8a5a5a"/><circle cx="106.2" cy="145.1" r="3" fill="#8a5a5a"/><circle cx="110.4" cy="145.1" r="3" fill="#8a5a5a"/><circle cx="114.5" cy="145.1" r="3" fill="#8a5a5a"/><circle cx="118.6" cy="145.1" r="3" fill="#8a5a5a"/><circle cx="122.8" cy="145.1" r="3" fill="#8a5a5a"/><circle cx="126.9" cy="145.1" r="3" fill="#8a5a5a"/><circle cx="131.0" cy="145.1" r="3" fill="#8a5a5a"/><circle cx="135.2" cy="145.1" r="3" fill="#8a5a5a"/><circle cx="139.3" cy="145.1" r="3" fill="#8a5a5a"/><circle cx="143.4" cy="145.1" r="3" fill="#8a5a5a"/><circle cx="147.6" cy="145.1" r="3" fill="#8a5a5a"/><circle cx="151.7" cy="145.1" r="3" fill="#8a5a5a"/><circle cx="155.8" cy="145.1" r="3" fill="#8a5a5a"/><circle cx="159.9" cy="145.1" r="3" fill="#8a5a5a"/><circle cx="164.1" cy="145.1" r="3" fill="#8a5a5a"/><circle cx="168.2" cy="145.1" r="3" fill="#8a5a5a"/><circle cx="172.3" cy="145.1" r="3" fill="#8a5a5a"/><circle cx="176.5" cy="145.1" r="3" fill="#8a5a5a"/><circle cx="180.6" cy="145.1" r="3" fill="#8a5a5a"/><circle cx="184.7" cy="145.1" r="3" fill="#8a5a5a"/><circle cx="188.9" cy="145.1" r="3" fill="#8a5a5a"/><circle cx="193.0" cy="145.1" r="3" fill="#8a5a5a"/><circle cx="197.1" cy="145.1" r="3" fill="#8a5a5a"/><circle cx="201.3" cy="145.1" r="3" fill="#8a5a5a"/><circle cx="205.4" cy="145.1" r="3" fill="#8a5a5a"/><circle cx="209.5" cy="145.1" r="3" fill="#8a5a5a"/><circle cx="213.7" cy="145.1" r="3" fill="#8a5a5a"/><circle cx="217.8" cy="145.1" r="3" fill="#8a5a5a"/><circle cx="221.9" cy="145.1" r="3" fill="#8a5a5a"/><circle cx="226.1" cy="145.1" r="3" fill="#8a5a5a"/><circle cx="230.2" cy="145.1" r="3" fill="#8a5a5a"/><circle cx="234.3" cy="145.1" r="3" fill="#8a5a5a"/><circle cx="238.4" cy="145.1" r="3" fill="#8a5a5a"/><circle cx="242.6" cy="155.7" r="3" fill="#8a5a5a"/><circle cx="246.7" cy="155.7" r="3" fill="#8a5a5a"/><circle cx="250.8" cy="155.7" r="3" fill="#8a5a5a"/><circle cx="255.0" cy="155.7" r="3" fill="#8a5a5a"/><circle cx="259.1" cy="155.7" r="3" fill="#8a5a5a"/><circle cx="263.2" cy="155.7" r="3" fill="#8a5a5a"/><circle cx="267.4" cy="155.7" r="3" fill="#8a5a5a"/><circle cx="271.5" cy="155.7" r="3" fill="#8a5a5a"/><circle cx="275.6" cy="155.7" r="3" fill="#8a5a5a"/><circle cx="279.8" cy="155.7" r="3" fill="#8a5a5a"/><circle cx="283.9" cy="155.7" r="3" fill="#8a5a5a"/><circle cx="288.0" cy="155.7" r="3" fill="#8a5a5a"/><circle cx="292.2" cy="155.7" r="3" fill="#8a5a5a"/><circle cx="296.3" cy="155.7" r="3" fill="#8a5a5a"/><circle cx="300.4" cy="155.7" r="3" fill="#8a5a5a"/><circle cx="304.6" cy="155.7" r="3" fill="#8a5a5a"/><circle cx="308.7" cy="155.7" r="3" fill="#8a5a5a"/><circle cx="312.8" cy="155.7" r="3" fill="#8a5a5a"/><circle cx="316.9" cy="155.7" r="3" fill="#8a5a5a"/><circle cx="321.1" cy="155.7" r="3" fill="#8a5a5a"/><circle cx="325.2" cy="155.7" r="3" fill="#8a5a5a"/><circle cx="329.3" cy="155.7" r="3" fill="#8a5a5a"/><circle cx="333.5" cy="155.7" r="3" fill="#8a5a5a"/><circle cx="337.6" cy="155.7" r="3" fill="#8a5a5a"/><circle cx="341.7" cy="155.7" r="3" fill="#8a5a5a"/><circle cx="345.9" cy="155.7" r="3" fill="#8a5a5a"/><circle cx="350.0" cy="155.7" r="3" fill="#8a5a5a"/><circle cx="354.1" cy="155.7" r="3" fill="#8a5a5a"/><circle cx="358.3" cy="155.7" r="3" fill="#8a5a5a"/><circle cx="362.4" cy="155.7" r="3" fill="#8a5a5a"/><circle cx="366.5" cy="155.7" r="3" fill="#8a5a5a"/><circle cx="370.7" cy="155.7" r="3" fill="#8a5a5a"/><circle cx="374.8" cy="155.7" r="3" fill="#8a5a5a"/><circle cx="378.9" cy="155.7" r="3" fill="#8a5a5a"/><circle cx="383.1" cy="167.6" r="3" fill="#8a5a5a"/><circle cx="387.2" cy="167.6" r="3" fill="#8a5a5a"/><circle cx="391.3" cy="170.3" r="3" fill="#8a5a5a"/><circle cx="395.4" cy="170.3" r="3" fill="#8a5a5a"/><circle cx="399.6" cy="170.5" r="3" fill="#8a5a5a"/><circle cx="403.7" cy="170.7" r="3" fill="#8a5a5a"/><circle cx="407.8" cy="170.7" r="3" fill="#8a5a5a"/><circle cx="412.0" cy="170.9" r="3" fill="#8a5a5a"/><circle cx="416.1" cy="172.7" r="3" fill="#8a5a5a"/><circle cx="420.2" cy="180.6" r="3" fill="#8a5a5a"/><circle cx="424.4" cy="181.8" r="3" fill="#8a5a5a"/><circle cx="428.5" cy="189.1" r="3" fill="#8a5a5a"/><circle cx="432.6" cy="190.5" r="3" fill="#8a5a5a"/><circle cx="436.8" cy="195.2" r="3" fill="#8a5a5a"/><circle cx="440.9" cy="198.0" r="3" fill="#8a5a5a"/><circle cx="445.0" cy="198.0" r="3" fill="#8a5a5a"/><circle cx="449.2" cy="198.0" r="3" fill="#8a5a5a"/><circle cx="453.3" cy="198.0" r="3" fill="#8a5a5a"/><circle cx="457.4" cy="198.0" r="3" fill="#8a5a5a"/><circle cx="461.6" cy="198.0" r="3" fill="#8a5a5a"/><circle cx="465.7" cy="198.0" r="3" fill="#8a5a5a"/><circle cx="469.8" cy="198.0" r="3" fill="#8a5a5a"/><circle cx="473.9" cy="198.0" r="3" fill="#8a5a5a"/><circle cx="478.1" cy="198.0" r="3" fill="#8a5a5a"/><circle cx="482.2" cy="198.0" r="3" fill="#8a5a5a"/><circle cx="486.3" cy="198.0" r="3" fill="#8a5a5a"/><circle cx="490.5" cy="198.0" r="3" fill="#8a5a5a"/><circle cx="494.6" cy="198.0" r="3" fill="#8a5a5a"/><circle cx="498.7" cy="198.0" r="3" fill="#8a5a5a"/><circle cx="502.9" cy="198.0" r="3" fill="#8a5a5a"/><circle cx="507.0" cy="198.0" r="3" fill="#8a5a5a"/><circle cx="511.1" cy="198.0" r="3" fill="#8a5a5a"/><circle cx="515.3" cy="198.0" r="3" fill="#8a5a5a"/><circle cx="519.4" cy="198.0" r="3" fill="#8a5a5a"/><circle cx="523.5" cy="198.0" r="3" fill="#8a5a5a"/><circle cx="527.7" cy="198.0" r="3" fill="#8a5a5a"/><circle cx="531.8" cy="198.0" r="3" fill="#8a5a5a"/><circle cx="535.9" cy="198.0" r="3" fill="#8a5a5a"/><circle cx="540.1" cy="198.0" r="3" fill="#8a5a5a"/><circle cx="544.2" cy="198.0" r="3" fill="#8a5a5a"/><circle cx="548.3" cy="198.0" r="3" fill="#8a5a5a"/><circle cx="552.4" cy="198.0" r="3" fill="#8a5a5a"/><circle cx="556.6" cy="198.0" r="3" fill="#8a5a5a"/><circle cx="560.7" cy="198.0" r="3" fill="#8a5a5a"/><circle cx="564.8" cy="198.0" r="3" fill="#8a5a5a"/><circle cx="569.0" cy="198.0" r="3" fill="#8a5a5a"/><circle cx="573.1" cy="198.0" r="3" fill="#8a5a5a"/><circle cx="577.2" cy="198.0" r="3" fill="#8a5a5a"/><circle cx="581.4" cy="198.0" r="3" fill="#8a5a5a"/><circle cx="585.5" cy="198.0" r="3" fill="#8a5a5a"/><circle cx="589.6" cy="198.0" r="3" fill="#8a5a5a"/><circle cx="593.8" cy="198.0" r="3" fill="#8a5a5a"/><circle cx="597.9" cy="198.0" r="3" fill="#8a5a5a"/><circle cx="602.0" cy="198.0" r="3" fill="#8a5a5a"/><circle cx="606.2" cy="198.0" r="3" fill="#8a5a5a"/><circle cx="610.3" cy="198.0" r="3" fill="#8a5a5a"/><circle cx="614.4" cy="198.0" r="3" fill="#8a5a5a"/><circle cx="618.6" cy="198.0" r="3" fill="#8a5a5a"/><circle cx="622.7" cy="198.0" r="3" fill="#8a5a5a"/><circle cx="626.8" cy="198.0" r="3" fill="#8a5a5a"/><circle cx="630.9" cy="198.0" r="3" fill="#8a5a5a"/><circle cx="635.1" cy="198.0" r="3" fill="#8a5a5a"/><circle cx="639.2" cy="198.0" r="3" fill="#8a5a5a"/><circle cx="643.3" cy="198.0" r="3" fill="#8a5a5a"/><circle cx="647.5" cy="198.0" r="3" fill="#8a5a5a"/><circle cx="651.6" cy="198.0" r="3" fill="#8a5a5a"/><circle cx="655.7" cy="198.0" r="3" fill="#8a5a5a"/><circle cx="659.9" cy="198.0" r="3" fill="#8a5a5a"/><circle cx="664.0" cy="198.0" r="3" fill="#8a5a5a"/>
<polyline fill="none" stroke="#3fb950" stroke-width="2.5" stroke-linejoin="round" points="36.0,198.0 40.1,198.0 44.3,198.0 48.4,198.0 52.5,198.0 56.7,198.0 60.8,198.0 64.9,198.0 69.1,198.0 73.2,198.0 77.3,198.0 81.4,198.0 85.6,198.0 89.7,198.0 93.8,198.0 98.0,198.0 102.1,198.0 106.2,198.0 110.4,198.0 114.5,198.0 118.6,198.0 122.8,198.0 126.9,198.0 131.0,198.0 135.2,198.0 139.3,198.0 143.4,198.0 147.6,198.0 151.7,198.0 155.8,198.0 159.9,198.0 164.1,198.0 168.2,198.0 172.3,198.0 176.5,198.0 180.6,198.0 184.7,198.0 188.9,198.0 193.0,198.0 197.1,198.0 201.3,198.0 205.4,198.0 209.5,198.0 213.7,191.7 217.8,191.7 221.9,191.7 226.1,191.7 230.2,191.7 234.3,191.7 238.4,191.7 242.6,192.9 246.7,192.9 250.8,190.7 255.0,190.7 259.1,190.7 263.2,190.7 267.4,190.7 271.5,190.5 275.6,190.5 279.8,190.5 283.9,190.3 288.0,190.3 292.2,190.3 296.3,190.3 300.4,190.3 304.6,190.3 308.7,190.3 312.8,190.3 316.9,190.3 321.1,190.3 325.2,190.3 329.3,190.3 333.5,190.3 337.6,190.3 341.7,190.3 345.9,190.3 350.0,190.3 354.1,190.3 358.3,190.3 362.4,190.3 366.5,190.3 370.7,189.3 374.8,189.3 378.9,189.3 383.1,190.7 387.2,190.7 391.3,190.7 395.4,190.7 399.6,190.7 403.7,190.7 407.8,190.7 412.0,190.7 416.1,190.7 420.2,190.9 424.4,190.9 428.5,190.9 432.6,194.2 436.8,196.8 440.9,198.0 445.0,198.0 449.2,198.0 453.3,198.0 457.4,198.0 461.6,198.0 465.7,198.0 469.8,198.0 473.9,198.0 478.1,198.0 482.2,198.0 486.3,198.0 490.5,198.0 494.6,198.0 498.7,198.0 502.9,198.0 507.0,198.0 511.1,198.0 515.3,198.0 519.4,198.0 523.5,198.0 527.7,198.0 531.8,198.0 535.9,198.0 540.1,198.0 544.2,198.0 548.3,198.0 552.4,198.0 556.6,198.0 560.7,198.0 564.8,198.0 569.0,198.0 573.1,198.0 577.2,198.0 581.4,198.0 585.5,198.0 589.6,198.0 593.8,198.0 597.9,198.0 602.0,198.0 606.2,198.0 610.3,198.0 614.4,198.0 618.6,198.0 622.7,198.0 626.8,198.0 630.9,198.0 635.1,198.0 639.2,198.0 643.3,198.0 647.5,198.0 651.6,198.0 655.7,198.0 659.9,198.0 664.0,198.0"/><circle cx="36.0" cy="198.0" r="3" fill="#3fb950"/><circle cx="40.1" cy="198.0" r="3" fill="#3fb950"/><circle cx="44.3" cy="198.0" r="3" fill="#3fb950"/><circle cx="48.4" cy="198.0" r="3" fill="#3fb950"/><circle cx="52.5" cy="198.0" r="3" fill="#3fb950"/><circle cx="56.7" cy="198.0" r="3" fill="#3fb950"/><circle cx="60.8" cy="198.0" r="3" fill="#3fb950"/><circle cx="64.9" cy="198.0" r="3" fill="#3fb950"/><circle cx="69.1" cy="198.0" r="3" fill="#3fb950"/><circle cx="73.2" cy="198.0" r="3" fill="#3fb950"/><circle cx="77.3" cy="198.0" r="3" fill="#3fb950"/><circle cx="81.4" cy="198.0" r="3" fill="#3fb950"/><circle cx="85.6" cy="198.0" r="3" fill="#3fb950"/><circle cx="89.7" cy="198.0" r="3" fill="#3fb950"/><circle cx="93.8" cy="198.0" r="3" fill="#3fb950"/><circle cx="98.0" cy="198.0" r="3" fill="#3fb950"/><circle cx="102.1" cy="198.0" r="3" fill="#3fb950"/><circle cx="106.2" cy="198.0" r="3" fill="#3fb950"/><circle cx="110.4" cy="198.0" r="3" fill="#3fb950"/><circle cx="114.5" cy="198.0" r="3" fill="#3fb950"/><circle cx="118.6" cy="198.0" r="3" fill="#3fb950"/><circle cx="122.8" cy="198.0" r="3" fill="#3fb950"/><circle cx="126.9" cy="198.0" r="3" fill="#3fb950"/><circle cx="131.0" cy="198.0" r="3" fill="#3fb950"/><circle cx="135.2" cy="198.0" r="3" fill="#3fb950"/><circle cx="139.3" cy="198.0" r="3" fill="#3fb950"/><circle cx="143.4" cy="198.0" r="3" fill="#3fb950"/><circle cx="147.6" cy="198.0" r="3" fill="#3fb950"/><circle cx="151.7" cy="198.0" r="3" fill="#3fb950"/><circle cx="155.8" cy="198.0" r="3" fill="#3fb950"/><circle cx="159.9" cy="198.0" r="3" fill="#3fb950"/><circle cx="164.1" cy="198.0" r="3" fill="#3fb950"/><circle cx="168.2" cy="198.0" r="3" fill="#3fb950"/><circle cx="172.3" cy="198.0" r="3" fill="#3fb950"/><circle cx="176.5" cy="198.0" r="3" fill="#3fb950"/><circle cx="180.6" cy="198.0" r="3" fill="#3fb950"/><circle cx="184.7" cy="198.0" r="3" fill="#3fb950"/><circle cx="188.9" cy="198.0" r="3" fill="#3fb950"/><circle cx="193.0" cy="198.0" r="3" fill="#3fb950"/><circle cx="197.1" cy="198.0" r="3" fill="#3fb950"/><circle cx="201.3" cy="198.0" r="3" fill="#3fb950"/><circle cx="205.4" cy="198.0" r="3" fill="#3fb950"/><circle cx="209.5" cy="198.0" r="3" fill="#3fb950"/><circle cx="213.7" cy="191.7" r="3" fill="#3fb950"/><circle cx="217.8" cy="191.7" r="3" fill="#3fb950"/><circle cx="221.9" cy="191.7" r="3" fill="#3fb950"/><circle cx="226.1" cy="191.7" r="3" fill="#3fb950"/><circle cx="230.2" cy="191.7" r="3" fill="#3fb950"/><circle cx="234.3" cy="191.7" r="3" fill="#3fb950"/><circle cx="238.4" cy="191.7" r="3" fill="#3fb950"/><circle cx="242.6" cy="192.9" r="3" fill="#3fb950"/><circle cx="246.7" cy="192.9" r="3" fill="#3fb950"/><circle cx="250.8" cy="190.7" r="3" fill="#3fb950"/><circle cx="255.0" cy="190.7" r="3" fill="#3fb950"/><circle cx="259.1" cy="190.7" r="3" fill="#3fb950"/><circle cx="263.2" cy="190.7" r="3" fill="#3fb950"/><circle cx="267.4" cy="190.7" r="3" fill="#3fb950"/><circle cx="271.5" cy="190.5" r="3" fill="#3fb950"/><circle cx="275.6" cy="190.5" r="3" fill="#3fb950"/><circle cx="279.8" cy="190.5" r="3" fill="#3fb950"/><circle cx="283.9" cy="190.3" r="3" fill="#3fb950"/><circle cx="288.0" cy="190.3" r="3" fill="#3fb950"/><circle cx="292.2" cy="190.3" r="3" fill="#3fb950"/><circle cx="296.3" cy="190.3" r="3" fill="#3fb950"/><circle cx="300.4" cy="190.3" r="3" fill="#3fb950"/><circle cx="304.6" cy="190.3" r="3" fill="#3fb950"/><circle cx="308.7" cy="190.3" r="3" fill="#3fb950"/><circle cx="312.8" cy="190.3" r="3" fill="#3fb950"/><circle cx="316.9" cy="190.3" r="3" fill="#3fb950"/><circle cx="321.1" cy="190.3" r="3" fill="#3fb950"/><circle cx="325.2" cy="190.3" r="3" fill="#3fb950"/><circle cx="329.3" cy="190.3" r="3" fill="#3fb950"/><circle cx="333.5" cy="190.3" r="3" fill="#3fb950"/><circle cx="337.6" cy="190.3" r="3" fill="#3fb950"/><circle cx="341.7" cy="190.3" r="3" fill="#3fb950"/><circle cx="345.9" cy="190.3" r="3" fill="#3fb950"/><circle cx="350.0" cy="190.3" r="3" fill="#3fb950"/><circle cx="354.1" cy="190.3" r="3" fill="#3fb950"/><circle cx="358.3" cy="190.3" r="3" fill="#3fb950"/><circle cx="362.4" cy="190.3" r="3" fill="#3fb950"/><circle cx="366.5" cy="190.3" r="3" fill="#3fb950"/><circle cx="370.7" cy="189.3" r="3" fill="#3fb950"/><circle cx="374.8" cy="189.3" r="3" fill="#3fb950"/><circle cx="378.9" cy="189.3" r="3" fill="#3fb950"/><circle cx="383.1" cy="190.7" r="3" fill="#3fb950"/><circle cx="387.2" cy="190.7" r="3" fill="#3fb950"/><circle cx="391.3" cy="190.7" r="3" fill="#3fb950"/><circle cx="395.4" cy="190.7" r="3" fill="#3fb950"/><circle cx="399.6" cy="190.7" r="3" fill="#3fb950"/><circle cx="403.7" cy="190.7" r="3" fill="#3fb950"/><circle cx="407.8" cy="190.7" r="3" fill="#3fb950"/><circle cx="412.0" cy="190.7" r="3" fill="#3fb950"/><circle cx="416.1" cy="190.7" r="3" fill="#3fb950"/><circle cx="420.2" cy="190.9" r="3" fill="#3fb950"/><circle cx="424.4" cy="190.9" r="3" fill="#3fb950"/><circle cx="428.5" cy="190.9" r="3" fill="#3fb950"/><circle cx="432.6" cy="194.2" r="3" fill="#3fb950"/><circle cx="436.8" cy="196.8" r="3" fill="#3fb950"/><circle cx="440.9" cy="198.0" r="3" fill="#3fb950"/><circle cx="445.0" cy="198.0" r="3" fill="#3fb950"/><circle cx="449.2" cy="198.0" r="3" fill="#3fb950"/><circle cx="453.3" cy="198.0" r="3" fill="#3fb950"/><circle cx="457.4" cy="198.0" r="3" fill="#3fb950"/><circle cx="461.6" cy="198.0" r="3" fill="#3fb950"/><circle cx="465.7" cy="198.0" r="3" fill="#3fb950"/><circle cx="469.8" cy="198.0" r="3" fill="#3fb950"/><circle cx="473.9" cy="198.0" r="3" fill="#3fb950"/><circle cx="478.1" cy="198.0" r="3" fill="#3fb950"/><circle cx="482.2" cy="198.0" r="3" fill="#3fb950"/><circle cx="486.3" cy="198.0" r="3" fill="#3fb950"/><circle cx="490.5" cy="198.0" r="3" fill="#3fb950"/><circle cx="494.6" cy="198.0" r="3" fill="#3fb950"/><circle cx="498.7" cy="198.0" r="3" fill="#3fb950"/><circle cx="502.9" cy="198.0" r="3" fill="#3fb950"/><circle cx="507.0" cy="198.0" r="3" fill="#3fb950"/><circle cx="511.1" cy="198.0" r="3" fill="#3fb950"/><circle cx="515.3" cy="198.0" r="3" fill="#3fb950"/><circle cx="519.4" cy="198.0" r="3" fill="#3fb950"/><circle cx="523.5" cy="198.0" r="3" fill="#3fb950"/><circle cx="527.7" cy="198.0" r="3" fill="#3fb950"/><circle cx="531.8" cy="198.0" r="3" fill="#3fb950"/><circle cx="535.9" cy="198.0" r="3" fill="#3fb950"/><circle cx="540.1" cy="198.0" r="3" fill="#3fb950"/><circle cx="544.2" cy="198.0" r="3" fill="#3fb950"/><circle cx="548.3" cy="198.0" r="3" fill="#3fb950"/><circle cx="552.4" cy="198.0" r="3" fill="#3fb950"/><circle cx="556.6" cy="198.0" r="3" fill="#3fb950"/><circle cx="560.7" cy="198.0" r="3" fill="#3fb950"/><circle cx="564.8" cy="198.0" r="3" fill="#3fb950"/><circle cx="569.0" cy="198.0" r="3" fill="#3fb950"/><circle cx="573.1" cy="198.0" r="3" fill="#3fb950"/><circle cx="577.2" cy="198.0" r="3" fill="#3fb950"/><circle cx="581.4" cy="198.0" r="3" fill="#3fb950"/><circle cx="585.5" cy="198.0" r="3" fill="#3fb950"/><circle cx="589.6" cy="198.0" r="3" fill="#3fb950"/><circle cx="593.8" cy="198.0" r="3" fill="#3fb950"/><circle cx="597.9" cy="198.0" r="3" fill="#3fb950"/><circle cx="602.0" cy="198.0" r="3" fill="#3fb950"/><circle cx="606.2" cy="198.0" r="3" fill="#3fb950"/><circle cx="610.3" cy="198.0" r="3" fill="#3fb950"/><circle cx="614.4" cy="198.0" r="3" fill="#3fb950"/><circle cx="618.6" cy="198.0" r="3" fill="#3fb950"/><circle cx="622.7" cy="198.0" r="3" fill="#3fb950"/><circle cx="626.8" cy="198.0" r="3" fill="#3fb950"/><circle cx="630.9" cy="198.0" r="3" fill="#3fb950"/><circle cx="635.1" cy="198.0" r="3" fill="#3fb950"/><circle cx="639.2" cy="198.0" r="3" fill="#3fb950"/><circle cx="643.3" cy="198.0" r="3" fill="#3fb950"/><circle cx="647.5" cy="198.0" r="3" fill="#3fb950"/><circle cx="651.6" cy="198.0" r="3" fill="#3fb950"/><circle cx="655.7" cy="198.0" r="3" fill="#3fb950"/><circle cx="659.9" cy="198.0" r="3" fill="#3fb950"/><circle cx="664.0" cy="198.0" r="3" fill="#3fb950"/>
<polyline fill="none" stroke="#4aa3ff" stroke-width="2.5" stroke-linejoin="round" points="36.0,144.3 40.1,144.3 44.3,144.3 48.4,144.3 52.5,144.3 56.7,144.3 60.8,144.3 64.9,144.3 69.1,144.3 73.2,144.3 77.3,144.3 81.4,144.3 85.6,144.3 89.7,144.3 93.8,144.3 98.0,136.2 102.1,132.4 106.2,129.6 110.4,129.6 114.5,121.0 118.6,121.0 122.8,121.0 126.9,114.4 131.0,114.4 135.2,114.4 139.3,111.3 143.4,110.9 147.6,110.9 151.7,110.5 155.8,110.5 159.9,109.9 164.1,108.7 168.2,107.3 172.3,106.9 176.5,106.9 180.6,106.9 184.7,106.9 188.9,106.9 193.0,106.9 197.1,106.9 201.3,106.9 205.4,106.9 209.5,106.9 213.7,113.2 217.8,113.2 221.9,113.2 226.1,113.2 230.2,113.2 234.3,110.7 238.4,105.3 242.6,83.4 246.7,83.4 250.8,85.6 255.0,85.6 259.1,85.6 263.2,85.6 267.4,85.6 271.5,85.8 275.6,85.8 279.8,85.8 283.9,86.0 288.0,86.0 292.2,86.0 296.3,86.0 300.4,86.0 304.6,86.0 308.7,86.0 312.8,86.0 316.9,86.0 321.1,86.0 325.2,86.0 329.3,86.0 333.5,86.0 337.6,86.0 341.7,86.0 345.9,86.0 350.0,86.0 354.1,86.0 358.3,86.0 362.4,86.0 366.5,86.0 370.7,87.0 374.8,87.0 378.9,87.0 383.1,73.7 387.2,73.7 391.3,71.0 395.4,71.0 399.6,70.8 403.7,70.6 407.8,70.6 412.0,70.4 416.1,68.6 420.2,60.5 424.4,59.3 428.5,52.0 432.6,47.3 436.8,40.1 440.9,36.0 445.0,36.0 449.2,36.0 453.3,36.0 457.4,36.0 461.6,36.0 465.7,36.0 469.8,36.0 473.9,36.0 478.1,36.0 482.2,36.0 486.3,36.0 490.5,36.0 494.6,36.0 498.7,36.0 502.9,36.0 507.0,36.0 511.1,36.0 515.3,36.0 519.4,36.0 523.5,36.0 527.7,36.0 531.8,36.0 535.9,36.0 540.1,36.0 544.2,36.0 548.3,36.0 552.4,36.0 556.6,36.0 560.7,36.0 564.8,36.0 569.0,36.0 573.1,36.0 577.2,36.0 581.4,36.0 585.5,36.0 589.6,36.0 593.8,36.0 597.9,36.0 602.0,36.0 606.2,36.0 610.3,36.0 614.4,36.0 618.6,36.0 622.7,36.0 626.8,36.0 630.9,36.0 635.1,36.0 639.2,36.0 643.3,36.0 647.5,36.0 651.6,36.0 655.7,36.0 659.9,36.0 664.0,36.0"/><circle cx="36.0" cy="144.3" r="3" fill="#4aa3ff"/><circle cx="40.1" cy="144.3" r="3" fill="#4aa3ff"/><circle cx="44.3" cy="144.3" r="3" fill="#4aa3ff"/><circle cx="48.4" cy="144.3" r="3" fill="#4aa3ff"/><circle cx="52.5" cy="144.3" r="3" fill="#4aa3ff"/><circle cx="56.7" cy="144.3" r="3" fill="#4aa3ff"/><circle cx="60.8" cy="144.3" r="3" fill="#4aa3ff"/><circle cx="64.9" cy="144.3" r="3" fill="#4aa3ff"/><circle cx="69.1" cy="144.3" r="3" fill="#4aa3ff"/><circle cx="73.2" cy="144.3" r="3" fill="#4aa3ff"/><circle cx="77.3" cy="144.3" r="3" fill="#4aa3ff"/><circle cx="81.4" cy="144.3" r="3" fill="#4aa3ff"/><circle cx="85.6" cy="144.3" r="3" fill="#4aa3ff"/><circle cx="89.7" cy="144.3" r="3" fill="#4aa3ff"/><circle cx="93.8" cy="144.3" r="3" fill="#4aa3ff"/><circle cx="98.0" cy="136.2" r="3" fill="#4aa3ff"/><circle cx="102.1" cy="132.4" r="3" fill="#4aa3ff"/><circle cx="106.2" cy="129.6" r="3" fill="#4aa3ff"/><circle cx="110.4" cy="129.6" r="3" fill="#4aa3ff"/><circle cx="114.5" cy="121.0" r="3" fill="#4aa3ff"/><circle cx="118.6" cy="121.0" r="3" fill="#4aa3ff"/><circle cx="122.8" cy="121.0" r="3" fill="#4aa3ff"/><circle cx="126.9" cy="114.4" r="3" fill="#4aa3ff"/><circle cx="131.0" cy="114.4" r="3" fill="#4aa3ff"/><circle cx="135.2" cy="114.4" r="3" fill="#4aa3ff"/><circle cx="139.3" cy="111.3" r="3" fill="#4aa3ff"/><circle cx="143.4" cy="110.9" r="3" fill="#4aa3ff"/><circle cx="147.6" cy="110.9" r="3" fill="#4aa3ff"/><circle cx="151.7" cy="110.5" r="3" fill="#4aa3ff"/><circle cx="155.8" cy="110.5" r="3" fill="#4aa3ff"/><circle cx="159.9" cy="109.9" r="3" fill="#4aa3ff"/><circle cx="164.1" cy="108.7" r="3" fill="#4aa3ff"/><circle cx="168.2" cy="107.3" r="3" fill="#4aa3ff"/><circle cx="172.3" cy="106.9" r="3" fill="#4aa3ff"/><circle cx="176.5" cy="106.9" r="3" fill="#4aa3ff"/><circle cx="180.6" cy="106.9" r="3" fill="#4aa3ff"/><circle cx="184.7" cy="106.9" r="3" fill="#4aa3ff"/><circle cx="188.9" cy="106.9" r="3" fill="#4aa3ff"/><circle cx="193.0" cy="106.9" r="3" fill="#4aa3ff"/><circle cx="197.1" cy="106.9" r="3" fill="#4aa3ff"/><circle cx="201.3" cy="106.9" r="3" fill="#4aa3ff"/><circle cx="205.4" cy="106.9" r="3" fill="#4aa3ff"/><circle cx="209.5" cy="106.9" r="3" fill="#4aa3ff"/><circle cx="213.7" cy="113.2" r="3" fill="#4aa3ff"/><circle cx="217.8" cy="113.2" r="3" fill="#4aa3ff"/><circle cx="221.9" cy="113.2" r="3" fill="#4aa3ff"/><circle cx="226.1" cy="113.2" r="3" fill="#4aa3ff"/><circle cx="230.2" cy="113.2" r="3" fill="#4aa3ff"/><circle cx="234.3" cy="110.7" r="3" fill="#4aa3ff"/><circle cx="238.4" cy="105.3" r="3" fill="#4aa3ff"/><circle cx="242.6" cy="83.4" r="3" fill="#4aa3ff"/><circle cx="246.7" cy="83.4" r="3" fill="#4aa3ff"/><circle cx="250.8" cy="85.6" r="3" fill="#4aa3ff"/><circle cx="255.0" cy="85.6" r="3" fill="#4aa3ff"/><circle cx="259.1" cy="85.6" r="3" fill="#4aa3ff"/><circle cx="263.2" cy="85.6" r="3" fill="#4aa3ff"/><circle cx="267.4" cy="85.6" r="3" fill="#4aa3ff"/><circle cx="271.5" cy="85.8" r="3" fill="#4aa3ff"/><circle cx="275.6" cy="85.8" r="3" fill="#4aa3ff"/><circle cx="279.8" cy="85.8" r="3" fill="#4aa3ff"/><circle cx="283.9" cy="86.0" r="3" fill="#4aa3ff"/><circle cx="288.0" cy="86.0" r="3" fill="#4aa3ff"/><circle cx="292.2" cy="86.0" r="3" fill="#4aa3ff"/><circle cx="296.3" cy="86.0" r="3" fill="#4aa3ff"/><circle cx="300.4" cy="86.0" r="3" fill="#4aa3ff"/><circle cx="304.6" cy="86.0" r="3" fill="#4aa3ff"/><circle cx="308.7" cy="86.0" r="3" fill="#4aa3ff"/><circle cx="312.8" cy="86.0" r="3" fill="#4aa3ff"/><circle cx="316.9" cy="86.0" r="3" fill="#4aa3ff"/><circle cx="321.1" cy="86.0" r="3" fill="#4aa3ff"/><circle cx="325.2" cy="86.0" r="3" fill="#4aa3ff"/><circle cx="329.3" cy="86.0" r="3" fill="#4aa3ff"/><circle cx="333.5" cy="86.0" r="3" fill="#4aa3ff"/><circle cx="337.6" cy="86.0" r="3" fill="#4aa3ff"/><circle cx="341.7" cy="86.0" r="3" fill="#4aa3ff"/><circle cx="345.9" cy="86.0" r="3" fill="#4aa3ff"/><circle cx="350.0" cy="86.0" r="3" fill="#4aa3ff"/><circle cx="354.1" cy="86.0" r="3" fill="#4aa3ff"/><circle cx="358.3" cy="86.0" r="3" fill="#4aa3ff"/><circle cx="362.4" cy="86.0" r="3" fill="#4aa3ff"/><circle cx="366.5" cy="86.0" r="3" fill="#4aa3ff"/><circle cx="370.7" cy="87.0" r="3" fill="#4aa3ff"/><circle cx="374.8" cy="87.0" r="3" fill="#4aa3ff"/><circle cx="378.9" cy="87.0" r="3" fill="#4aa3ff"/><circle cx="383.1" cy="73.7" r="3" fill="#4aa3ff"/><circle cx="387.2" cy="73.7" r="3" fill="#4aa3ff"/><circle cx="391.3" cy="71.0" r="3" fill="#4aa3ff"/><circle cx="395.4" cy="71.0" r="3" fill="#4aa3ff"/><circle cx="399.6" cy="70.8" r="3" fill="#4aa3ff"/><circle cx="403.7" cy="70.6" r="3" fill="#4aa3ff"/><circle cx="407.8" cy="70.6" r="3" fill="#4aa3ff"/><circle cx="412.0" cy="70.4" r="3" fill="#4aa3ff"/><circle cx="416.1" cy="68.6" r="3" fill="#4aa3ff"/><circle cx="420.2" cy="60.5" r="3" fill="#4aa3ff"/><circle cx="424.4" cy="59.3" r="3" fill="#4aa3ff"/><circle cx="428.5" cy="52.0" r="3" fill="#4aa3ff"/><circle cx="432.6" cy="47.3" r="3" fill="#4aa3ff"/><circle cx="436.8" cy="40.1" r="3" fill="#4aa3ff"/><circle cx="440.9" cy="36.0" r="3" fill="#4aa3ff"/><circle cx="445.0" cy="36.0" r="3" fill="#4aa3ff"/><circle cx="449.2" cy="36.0" r="3" fill="#4aa3ff"/><circle cx="453.3" cy="36.0" r="3" fill="#4aa3ff"/><circle cx="457.4" cy="36.0" r="3" fill="#4aa3ff"/><circle cx="461.6" cy="36.0" r="3" fill="#4aa3ff"/><circle cx="465.7" cy="36.0" r="3" fill="#4aa3ff"/><circle cx="469.8" cy="36.0" r="3" fill="#4aa3ff"/><circle cx="473.9" cy="36.0" r="3" fill="#4aa3ff"/><circle cx="478.1" cy="36.0" r="3" fill="#4aa3ff"/><circle cx="482.2" cy="36.0" r="3" fill="#4aa3ff"/><circle cx="486.3" cy="36.0" r="3" fill="#4aa3ff"/><circle cx="490.5" cy="36.0" r="3" fill="#4aa3ff"/><circle cx="494.6" cy="36.0" r="3" fill="#4aa3ff"/><circle cx="498.7" cy="36.0" r="3" fill="#4aa3ff"/><circle cx="502.9" cy="36.0" r="3" fill="#4aa3ff"/><circle cx="507.0" cy="36.0" r="3" fill="#4aa3ff"/><circle cx="511.1" cy="36.0" r="3" fill="#4aa3ff"/><circle cx="515.3" cy="36.0" r="3" fill="#4aa3ff"/><circle cx="519.4" cy="36.0" r="3" fill="#4aa3ff"/><circle cx="523.5" cy="36.0" r="3" fill="#4aa3ff"/><circle cx="527.7" cy="36.0" r="3" fill="#4aa3ff"/><circle cx="531.8" cy="36.0" r="3" fill="#4aa3ff"/><circle cx="535.9" cy="36.0" r="3" fill="#4aa3ff"/><circle cx="540.1" cy="36.0" r="3" fill="#4aa3ff"/><circle cx="544.2" cy="36.0" r="3" fill="#4aa3ff"/><circle cx="548.3" cy="36.0" r="3" fill="#4aa3ff"/><circle cx="552.4" cy="36.0" r="3" fill="#4aa3ff"/><circle cx="556.6" cy="36.0" r="3" fill="#4aa3ff"/><circle cx="560.7" cy="36.0" r="3" fill="#4aa3ff"/><circle cx="564.8" cy="36.0" r="3" fill="#4aa3ff"/><circle cx="569.0" cy="36.0" r="3" fill="#4aa3ff"/><circle cx="573.1" cy="36.0" r="3" fill="#4aa3ff"/><circle cx="577.2" cy="36.0" r="3" fill="#4aa3ff"/><circle cx="581.4" cy="36.0" r="3" fill="#4aa3ff"/><circle cx="585.5" cy="36.0" r="3" fill="#4aa3ff"/><circle cx="589.6" cy="36.0" r="3" fill="#4aa3ff"/><circle cx="593.8" cy="36.0" r="3" fill="#4aa3ff"/><circle cx="597.9" cy="36.0" r="3" fill="#4aa3ff"/><circle cx="602.0" cy="36.0" r="3" fill="#4aa3ff"/><circle cx="606.2" cy="36.0" r="3" fill="#4aa3ff"/><circle cx="610.3" cy="36.0" r="3" fill="#4aa3ff"/><circle cx="614.4" cy="36.0" r="3" fill="#4aa3ff"/><circle cx="618.6" cy="36.0" r="3" fill="#4aa3ff"/><circle cx="622.7" cy="36.0" r="3" fill="#4aa3ff"/><circle cx="626.8" cy="36.0" r="3" fill="#4aa3ff"/><circle cx="630.9" cy="36.0" r="3" fill="#4aa3ff"/><circle cx="635.1" cy="36.0" r="3" fill="#4aa3ff"/><circle cx="639.2" cy="36.0" r="3" fill="#4aa3ff"/><circle cx="643.3" cy="36.0" r="3" fill="#4aa3ff"/><circle cx="647.5" cy="36.0" r="3" fill="#4aa3ff"/><circle cx="651.6" cy="36.0" r="3" fill="#4aa3ff"/><circle cx="655.7" cy="36.0" r="3" fill="#4aa3ff"/><circle cx="659.9" cy="36.0" r="3" fill="#4aa3ff"/><circle cx="664.0" cy="36.0" r="3" fill="#4aa3ff"/>
<text x="36" y="225" fill="#6b7280" font-size="11">2026-06-26</text>
<text x="664" y="225" fill="#6b7280" font-size="11" text-anchor="end">2026-07-12</text>
<text x="36" y="212" font-family="system-ui,sans-serif" font-size="11">
<tspan fill="#4aa3ff">&#9679; open FPs</tspan>  <tspan fill="#3fb950">&#9679; closed (Anthropic acting)</tspan>  <tspan fill="#8a5a5a">&#9679; harness withdrawn</tspan></text>
<text x="664" y="22" text-anchor="end" font-family="system-ui,sans-serif" font-size="12">
<tspan fill="#4aa3ff">open 800</tspan>  <tspan fill="#3fb950">closed 0</tspan>  <tspan fill="#8a5a5a">harness 0</tspan></text>
</svg>