<svg xmlns="http://www.w3.org/2000/svg" width="700" height="234" viewBox="0 0 700 234" role="img">
<rect width="700" height="234" rx="12" fill="#16181d"/>
<text x="36" y="22" fill="#e8eaed" font-family="system-ui,sans-serif" font-size="14" font-weight="700">Is Anthropic acting? cyber/aup false positives over time</text>
<line x1="36" y1="198.0" x2="664" y2="198.0" stroke="#2a2e37" stroke-width="1"/><text x="30" y="202.0" fill="#6b7280" font-size="11" text-anchor="end">0</text><line x1="36" y1="117.0" x2="664" y2="117.0" stroke="#2a2e37" stroke-width="1"/><text x="30" y="121.0" fill="#6b7280" font-size="11" text-anchor="end">400</text><line x1="36" y1="36.0" x2="664" y2="36.0" stroke="#2a2e37" stroke-width="1"/><text x="30" y="40.0" fill="#6b7280" font-size="11" text-anchor="end">800</text>

<polyline fill="none" stroke="#8a5a5a" stroke-width="2.5" stroke-linejoin="round" points="36.0,145.1 39.0,145.1 42.0,145.1 45.0,145.1 48.0,145.1 51.0,145.1 54.0,145.1 57.0,145.1 60.0,145.1 63.0,145.1 66.0,145.1 69.1,145.1 72.1,145.1 75.1,145.1 78.1,145.1 81.1,145.1 84.1,145.1 87.1,145.1 90.1,145.1 93.1,145.1 96.1,145.1 99.1,145.1 102.1,145.1 105.1,145.1 108.1,145.1 111.1,145.1 114.1,145.1 117.1,145.1 120.1,145.1 123.1,145.1 126.1,145.1 129.1,145.1 132.2,145.1 135.2,145.1 138.2,145.1 141.2,145.1 144.2,145.1 147.2,145.1 150.2,145.1 153.2,145.1 156.2,145.1 159.2,145.1 162.2,145.1 165.2,145.1 168.2,145.1 171.2,145.1 174.2,145.1 177.2,145.1 180.2,145.1 183.2,145.1 186.2,155.7 189.2,155.7 192.2,155.7 195.3,155.7 198.3,155.7 201.3,155.7 204.3,155.7 207.3,155.7 210.3,155.7 213.3,155.7 216.3,155.7 219.3,155.7 222.3,155.7 225.3,155.7 228.3,155.7 231.3,155.7 234.3,155.7 237.3,155.7 240.3,155.7 243.3,155.7 246.3,155.7 249.3,155.7 252.3,155.7 255.3,155.7 258.4,155.7 261.4,155.7 264.4,155.7 267.4,155.7 270.4,155.7 273.4,155.7 276.4,155.7 279.4,155.7 282.4,155.7 285.4,155.7 288.4,167.6 291.4,167.6 294.4,170.3 297.4,170.3 300.4,170.5 303.4,170.7 306.4,170.7 309.4,170.9 312.4,172.7 315.4,180.6 318.4,181.8 321.5,189.1 324.5,190.5 327.5,195.2 330.5,198.0 333.5,198.0 336.5,198.0 339.5,198.0 342.5,198.0 345.5,198.0 348.5,198.0 351.5,198.0 354.5,198.0 357.5,198.0 360.5,198.0 363.5,198.0 366.5,198.0 369.5,198.0 372.5,198.0 375.5,198.0 378.5,198.0 381.6,198.0 384.6,198.0 387.6,198.0 390.6,198.0 393.6,198.0 396.6,198.0 399.6,198.0 402.6,198.0 405.6,198.0 408.6,198.0 411.6,198.0 414.6,198.0 417.6,198.0 420.6,198.0 423.6,198.0 426.6,198.0 429.6,198.0 432.6,198.0 435.6,198.0 438.6,198.0 441.6,198.0 444.7,198.0 447.7,198.0 450.7,198.0 453.7,198.0 456.7,198.0 459.7,198.0 462.7,198.0 465.7,198.0 468.7,198.0 471.7,198.0 474.7,198.0 477.7,198.0 480.7,198.0 483.7,198.0 486.7,198.0 489.7,198.0 492.7,198.0 495.7,198.0 498.7,198.0 501.7,198.0 504.7,198.0 507.8,198.0 510.8,198.0 513.8,198.0 516.8,198.0 519.8,198.0 522.8,198.0 525.8,198.0 528.8,198.0 531.8,198.0 534.8,198.0 537.8,198.0 540.8,198.0 543.8,198.0 546.8,198.0 549.8,198.0 552.8,198.0 555.8,198.0 558.8,198.0 561.8,198.0 564.8,198.0 567.8,198.0 570.9,198.0 573.9,198.0 576.9,198.0 579.9,198.0 582.9,198.0 585.9,198.0 588.9,198.0 591.9,198.0 594.9,198.0 597.9,198.0 600.9,198.0 603.9,198.0 606.9,198.0 609.9,198.0 612.9,198.0 615.9,198.0 618.9,198.0 621.9,198.0 624.9,198.0 627.9,198.0 630.9,198.0 634.0,198.0 637.0,198.0 640.0,198.0 643.0,198.0 646.0,198.0 649.0,198.0 652.0,198.0 655.0,198.0 658.0,198.0 661.0,198.0 664.0,198.0"/><circle cx="36.0" cy="145.1" r="3" fill="#8a5a5a"/><circle cx="39.0" cy="145.1" r="3" fill="#8a5a5a"/><circle cx="42.0" cy="145.1" r="3" fill="#8a5a5a"/><circle cx="45.0" cy="145.1" r="3" fill="#8a5a5a"/><circle cx="48.0" cy="145.1" r="3" fill="#8a5a5a"/><circle cx="51.0" cy="145.1" r="3" fill="#8a5a5a"/><circle cx="54.0" cy="145.1" r="3" fill="#8a5a5a"/><circle cx="57.0" cy="145.1" r="3" fill="#8a5a5a"/><circle cx="60.0" cy="145.1" r="3" fill="#8a5a5a"/><circle cx="63.0" cy="145.1" r="3" fill="#8a5a5a"/><circle cx="66.0" cy="145.1" r="3" fill="#8a5a5a"/><circle cx="69.1" cy="145.1" r="3" fill="#8a5a5a"/><circle cx="72.1" cy="145.1" r="3" fill="#8a5a5a"/><circle cx="75.1" cy="145.1" r="3" fill="#8a5a5a"/><circle cx="78.1" cy="145.1" r="3" fill="#8a5a5a"/><circle cx="81.1" cy="145.1" r="3" fill="#8a5a5a"/><circle cx="84.1" cy="145.1" r="3" fill="#8a5a5a"/><circle cx="87.1" cy="145.1" r="3" fill="#8a5a5a"/><circle cx="90.1" cy="145.1" r="3" fill="#8a5a5a"/><circle cx="93.1" cy="145.1" r="3" fill="#8a5a5a"/><circle cx="96.1" cy="145.1" r="3" fill="#8a5a5a"/><circle cx="99.1" cy="145.1" r="3" fill="#8a5a5a"/><circle cx="102.1" cy="145.1" r="3" fill="#8a5a5a"/><circle cx="105.1" cy="145.1" r="3" fill="#8a5a5a"/><circle cx="108.1" cy="145.1" r="3" fill="#8a5a5a"/><circle cx="111.1" cy="145.1" r="3" fill="#8a5a5a"/><circle cx="114.1" cy="145.1" r="3" fill="#8a5a5a"/><circle cx="117.1" cy="145.1" r="3" fill="#8a5a5a"/><circle cx="120.1" cy="145.1" r="3" fill="#8a5a5a"/><circle cx="123.1" cy="145.1" r="3" fill="#8a5a5a"/><circle cx="126.1" cy="145.1" r="3" fill="#8a5a5a"/><circle cx="129.1" cy="145.1" r="3" fill="#8a5a5a"/><circle cx="132.2" cy="145.1" r="3" fill="#8a5a5a"/><circle cx="135.2" cy="145.1" r="3" fill="#8a5a5a"/><circle cx="138.2" cy="145.1" r="3" fill="#8a5a5a"/><circle cx="141.2" cy="145.1" r="3" fill="#8a5a5a"/><circle cx="144.2" cy="145.1" r="3" fill="#8a5a5a"/><circle cx="147.2" cy="145.1" r="3" fill="#8a5a5a"/><circle cx="150.2" cy="145.1" r="3" fill="#8a5a5a"/><circle cx="153.2" cy="145.1" r="3" fill="#8a5a5a"/><circle cx="156.2" cy="145.1" r="3" fill="#8a5a5a"/><circle cx="159.2" cy="145.1" r="3" fill="#8a5a5a"/><circle cx="162.2" cy="145.1" r="3" fill="#8a5a5a"/><circle cx="165.2" cy="145.1" r="3" fill="#8a5a5a"/><circle cx="168.2" cy="145.1" r="3" fill="#8a5a5a"/><circle cx="171.2" cy="145.1" r="3" fill="#8a5a5a"/><circle cx="174.2" cy="145.1" r="3" fill="#8a5a5a"/><circle cx="177.2" cy="145.1" r="3" fill="#8a5a5a"/><circle cx="180.2" cy="145.1" r="3" fill="#8a5a5a"/><circle cx="183.2" cy="145.1" r="3" fill="#8a5a5a"/><circle cx="186.2" cy="155.7" r="3" fill="#8a5a5a"/><circle cx="189.2" cy="155.7" r="3" fill="#8a5a5a"/><circle cx="192.2" cy="155.7" r="3" fill="#8a5a5a"/><circle cx="195.3" cy="155.7" r="3" fill="#8a5a5a"/><circle cx="198.3" cy="155.7" r="3" fill="#8a5a5a"/><circle cx="201.3" cy="155.7" r="3" fill="#8a5a5a"/><circle cx="204.3" cy="155.7" r="3" fill="#8a5a5a"/><circle cx="207.3" cy="155.7" r="3" fill="#8a5a5a"/><circle cx="210.3" cy="155.7" r="3" fill="#8a5a5a"/><circle cx="213.3" cy="155.7" r="3" fill="#8a5a5a"/><circle cx="216.3" cy="155.7" r="3" fill="#8a5a5a"/><circle cx="219.3" cy="155.7" r="3" fill="#8a5a5a"/><circle cx="222.3" cy="155.7" r="3" fill="#8a5a5a"/><circle cx="225.3" cy="155.7" r="3" fill="#8a5a5a"/><circle cx="228.3" cy="155.7" r="3" fill="#8a5a5a"/><circle cx="231.3" cy="155.7" r="3" fill="#8a5a5a"/><circle cx="234.3" cy="155.7" r="3" fill="#8a5a5a"/><circle cx="237.3" cy="155.7" r="3" fill="#8a5a5a"/><circle cx="240.3" cy="155.7" r="3" fill="#8a5a5a"/><circle cx="243.3" cy="155.7" r="3" fill="#8a5a5a"/><circle cx="246.3" cy="155.7" r="3" fill="#8a5a5a"/><circle cx="249.3" cy="155.7" r="3" fill="#8a5a5a"/><circle cx="252.3" cy="155.7" r="3" fill="#8a5a5a"/><circle cx="255.3" cy="155.7" r="3" fill="#8a5a5a"/><circle cx="258.4" cy="155.7" r="3" fill="#8a5a5a"/><circle cx="261.4" cy="155.7" r="3" fill="#8a5a5a"/><circle cx="264.4" cy="155.7" r="3" fill="#8a5a5a"/><circle cx="267.4" cy="155.7" r="3" fill="#8a5a5a"/><circle cx="270.4" cy="155.7" r="3" fill="#8a5a5a"/><circle cx="273.4" cy="155.7" r="3" fill="#8a5a5a"/><circle cx="276.4" cy="155.7" r="3" fill="#8a5a5a"/><circle cx="279.4" cy="155.7" r="3" fill="#8a5a5a"/><circle cx="282.4" cy="155.7" r="3" fill="#8a5a5a"/><circle cx="285.4" cy="155.7" r="3" fill="#8a5a5a"/><circle cx="288.4" cy="167.6" r="3" fill="#8a5a5a"/><circle cx="291.4" cy="167.6" r="3" fill="#8a5a5a"/><circle cx="294.4" cy="170.3" r="3" fill="#8a5a5a"/><circle cx="297.4" cy="170.3" r="3" fill="#8a5a5a"/><circle cx="300.4" cy="170.5" r="3" fill="#8a5a5a"/><circle cx="303.4" cy="170.7" r="3" fill="#8a5a5a"/><circle cx="306.4" cy="170.7" r="3" fill="#8a5a5a"/><circle cx="309.4" cy="170.9" r="3" fill="#8a5a5a"/><circle cx="312.4" cy="172.7" r="3" fill="#8a5a5a"/><circle cx="315.4" cy="180.6" r="3" fill="#8a5a5a"/><circle cx="318.4" cy="181.8" r="3" fill="#8a5a5a"/><circle cx="321.5" cy="189.1" r="3" fill="#8a5a5a"/><circle cx="324.5" cy="190.5" r="3" fill="#8a5a5a"/><circle cx="327.5" cy="195.2" r="3" fill="#8a5a5a"/><circle cx="330.5" cy="198.0" r="3" fill="#8a5a5a"/><circle cx="333.5" cy="198.0" r="3" fill="#8a5a5a"/><circle cx="336.5" cy="198.0" r="3" fill="#8a5a5a"/><circle cx="339.5" cy="198.0" r="3" fill="#8a5a5a"/><circle cx="342.5" cy="198.0" r="3" fill="#8a5a5a"/><circle cx="345.5" cy="198.0" r="3" fill="#8a5a5a"/><circle cx="348.5" cy="198.0" r="3" fill="#8a5a5a"/><circle cx="351.5" cy="198.0" r="3" fill="#8a5a5a"/><circle cx="354.5" cy="198.0" r="3" fill="#8a5a5a"/><circle cx="357.5" cy="198.0" r="3" fill="#8a5a5a"/><circle cx="360.5" cy="198.0" r="3" fill="#8a5a5a"/><circle cx="363.5" cy="198.0" r="3" fill="#8a5a5a"/><circle cx="366.5" cy="198.0" r="3" fill="#8a5a5a"/><circle cx="369.5" cy="198.0" r="3" fill="#8a5a5a"/><circle cx="372.5" cy="198.0" r="3" fill="#8a5a5a"/><circle cx="375.5" cy="198.0" r="3" fill="#8a5a5a"/><circle cx="378.5" cy="198.0" r="3" fill="#8a5a5a"/><circle cx="381.6" cy="198.0" r="3" fill="#8a5a5a"/><circle cx="384.6" cy="198.0" r="3" fill="#8a5a5a"/><circle cx="387.6" cy="198.0" r="3" fill="#8a5a5a"/><circle cx="390.6" cy="198.0" r="3" fill="#8a5a5a"/><circle cx="393.6" cy="198.0" r="3" fill="#8a5a5a"/><circle cx="396.6" cy="198.0" r="3" fill="#8a5a5a"/><circle cx="399.6" cy="198.0" r="3" fill="#8a5a5a"/><circle cx="402.6" cy="198.0" r="3" fill="#8a5a5a"/><circle cx="405.6" cy="198.0" r="3" fill="#8a5a5a"/><circle cx="408.6" cy="198.0" r="3" fill="#8a5a5a"/><circle cx="411.6" cy="198.0" r="3" fill="#8a5a5a"/><circle cx="414.6" cy="198.0" r="3" fill="#8a5a5a"/><circle cx="417.6" cy="198.0" r="3" fill="#8a5a5a"/><circle cx="420.6" cy="198.0" r="3" fill="#8a5a5a"/><circle cx="423.6" cy="198.0" r="3" fill="#8a5a5a"/><circle cx="426.6" cy="198.0" r="3" fill="#8a5a5a"/><circle cx="429.6" cy="198.0" r="3" fill="#8a5a5a"/><circle cx="432.6" cy="198.0" r="3" fill="#8a5a5a"/><circle cx="435.6" cy="198.0" r="3" fill="#8a5a5a"/><circle cx="438.6" cy="198.0" r="3" fill="#8a5a5a"/><circle cx="441.6" cy="198.0" r="3" fill="#8a5a5a"/><circle cx="444.7" cy="198.0" r="3" fill="#8a5a5a"/><circle cx="447.7" cy="198.0" r="3" fill="#8a5a5a"/><circle cx="450.7" cy="198.0" r="3" fill="#8a5a5a"/><circle cx="453.7" cy="198.0" r="3" fill="#8a5a5a"/><circle cx="456.7" cy="198.0" r="3" fill="#8a5a5a"/><circle cx="459.7" cy="198.0" r="3" fill="#8a5a5a"/><circle cx="462.7" cy="198.0" r="3" fill="#8a5a5a"/><circle cx="465.7" cy="198.0" r="3" fill="#8a5a5a"/><circle cx="468.7" cy="198.0" r="3" fill="#8a5a5a"/><circle cx="471.7" cy="198.0" r="3" fill="#8a5a5a"/><circle cx="474.7" cy="198.0" r="3" fill="#8a5a5a"/><circle cx="477.7" cy="198.0" r="3" fill="#8a5a5a"/><circle cx="480.7" cy="198.0" r="3" fill="#8a5a5a"/><circle cx="483.7" cy="198.0" r="3" fill="#8a5a5a"/><circle cx="486.7" cy="198.0" r="3" fill="#8a5a5a"/><circle cx="489.7" cy="198.0" r="3" fill="#8a5a5a"/><circle cx="492.7" cy="198.0" r="3" fill="#8a5a5a"/><circle cx="495.7" cy="198.0" r="3" fill="#8a5a5a"/><circle cx="498.7" cy="198.0" r="3" fill="#8a5a5a"/><circle cx="501.7" cy="198.0" r="3" fill="#8a5a5a"/><circle cx="504.7" cy="198.0" r="3" fill="#8a5a5a"/><circle cx="507.8" cy="198.0" r="3" fill="#8a5a5a"/><circle cx="510.8" cy="198.0" r="3" fill="#8a5a5a"/><circle cx="513.8" cy="198.0" r="3" fill="#8a5a5a"/><circle cx="516.8" cy="198.0" r="3" fill="#8a5a5a"/><circle cx="519.8" cy="198.0" r="3" fill="#8a5a5a"/><circle cx="522.8" cy="198.0" r="3" fill="#8a5a5a"/><circle cx="525.8" cy="198.0" r="3" fill="#8a5a5a"/><circle cx="528.8" cy="198.0" r="3" fill="#8a5a5a"/><circle cx="531.8" cy="198.0" r="3" fill="#8a5a5a"/><circle cx="534.8" cy="198.0" r="3" fill="#8a5a5a"/><circle cx="537.8" cy="198.0" r="3" fill="#8a5a5a"/><circle cx="540.8" cy="198.0" r="3" fill="#8a5a5a"/><circle cx="543.8" cy="198.0" r="3" fill="#8a5a5a"/><circle cx="546.8" cy="198.0" r="3" fill="#8a5a5a"/><circle cx="549.8" cy="198.0" r="3" fill="#8a5a5a"/><circle cx="552.8" cy="198.0" r="3" fill="#8a5a5a"/><circle cx="555.8" cy="198.0" r="3" fill="#8a5a5a"/><circle cx="558.8" cy="198.0" r="3" fill="#8a5a5a"/><circle cx="561.8" cy="198.0" r="3" fill="#8a5a5a"/><circle cx="564.8" cy="198.0" r="3" fill="#8a5a5a"/><circle cx="567.8" cy="198.0" r="3" fill="#8a5a5a"/><circle cx="570.9" cy="198.0" r="3" fill="#8a5a5a"/><circle cx="573.9" cy="198.0" r="3" fill="#8a5a5a"/><circle cx="576.9" cy="198.0" r="3" fill="#8a5a5a"/><circle cx="579.9" cy="198.0" r="3" fill="#8a5a5a"/><circle cx="582.9" cy="198.0" r="3" fill="#8a5a5a"/><circle cx="585.9" cy="198.0" r="3" fill="#8a5a5a"/><circle cx="588.9" cy="198.0" r="3" fill="#8a5a5a"/><circle cx="591.9" cy="198.0" r="3" fill="#8a5a5a"/><circle cx="594.9" cy="198.0" r="3" fill="#8a5a5a"/><circle cx="597.9" cy="198.0" r="3" fill="#8a5a5a"/><circle cx="600.9" cy="198.0" r="3" fill="#8a5a5a"/><circle cx="603.9" cy="198.0" r="3" fill="#8a5a5a"/><circle cx="606.9" cy="198.0" r="3" fill="#8a5a5a"/><circle cx="609.9" cy="198.0" r="3" fill="#8a5a5a"/><circle cx="612.9" cy="198.0" r="3" fill="#8a5a5a"/><circle cx="615.9" cy="198.0" r="3" fill="#8a5a5a"/><circle cx="618.9" cy="198.0" r="3" fill="#8a5a5a"/><circle cx="621.9" cy="198.0" r="3" fill="#8a5a5a"/><circle cx="624.9" cy="198.0" r="3" fill="#8a5a5a"/><circle cx="627.9" cy="198.0" r="3" fill="#8a5a5a"/><circle cx="630.9" cy="198.0" r="3" fill="#8a5a5a"/><circle cx="634.0" cy="198.0" r="3" fill="#8a5a5a"/><circle cx="637.0" cy="198.0" r="3" fill="#8a5a5a"/><circle cx="640.0" cy="198.0" r="3" fill="#8a5a5a"/><circle cx="643.0" cy="198.0" r="3" fill="#8a5a5a"/><circle cx="646.0" cy="198.0" r="3" fill="#8a5a5a"/><circle cx="649.0" cy="198.0" r="3" fill="#8a5a5a"/><circle cx="652.0" cy="198.0" r="3" fill="#8a5a5a"/><circle cx="655.0" cy="198.0" r="3" fill="#8a5a5a"/><circle cx="658.0" cy="198.0" r="3" fill="#8a5a5a"/><circle cx="661.0" cy="198.0" r="3" fill="#8a5a5a"/><circle cx="664.0" cy="198.0" r="3" fill="#8a5a5a"/>
<polyline fill="none" stroke="#3fb950" stroke-width="2.5" stroke-linejoin="round" points="36.0,198.0 39.0,198.0 42.0,198.0 45.0,198.0 48.0,198.0 51.0,198.0 54.0,198.0 57.0,198.0 60.0,198.0 63.0,198.0 66.0,198.0 69.1,198.0 72.1,198.0 75.1,198.0 78.1,198.0 81.1,198.0 84.1,198.0 87.1,198.0 90.1,198.0 93.1,198.0 96.1,198.0 99.1,198.0 102.1,198.0 105.1,198.0 108.1,198.0 111.1,198.0 114.1,198.0 117.1,198.0 120.1,198.0 123.1,198.0 126.1,198.0 129.1,198.0 132.2,198.0 135.2,198.0 138.2,198.0 141.2,198.0 144.2,198.0 147.2,198.0 150.2,198.0 153.2,198.0 156.2,198.0 159.2,198.0 162.2,198.0 165.2,191.7 168.2,191.7 171.2,191.7 174.2,191.7 177.2,191.7 180.2,191.7 183.2,191.7 186.2,192.9 189.2,192.9 192.2,190.7 195.3,190.7 198.3,190.7 201.3,190.7 204.3,190.7 207.3,190.5 210.3,190.5 213.3,190.5 216.3,190.3 219.3,190.3 222.3,190.3 225.3,190.3 228.3,190.3 231.3,190.3 234.3,190.3 237.3,190.3 240.3,190.3 243.3,190.3 246.3,190.3 249.3,190.3 252.3,190.3 255.3,190.3 258.4,190.3 261.4,190.3 264.4,190.3 267.4,190.3 270.4,190.3 273.4,190.3 276.4,190.3 279.4,189.3 282.4,189.3 285.4,189.3 288.4,190.7 291.4,190.7 294.4,190.7 297.4,190.7 300.4,190.7 303.4,190.7 306.4,190.7 309.4,190.7 312.4,190.7 315.4,190.9 318.4,190.9 321.5,190.9 324.5,194.2 327.5,196.8 330.5,198.0 333.5,198.0 336.5,198.0 339.5,198.0 342.5,198.0 345.5,198.0 348.5,198.0 351.5,198.0 354.5,198.0 357.5,198.0 360.5,198.0 363.5,198.0 366.5,198.0 369.5,198.0 372.5,198.0 375.5,198.0 378.5,198.0 381.6,198.0 384.6,198.0 387.6,198.0 390.6,198.0 393.6,198.0 396.6,198.0 399.6,198.0 402.6,198.0 405.6,198.0 408.6,198.0 411.6,198.0 414.6,198.0 417.6,198.0 420.6,198.0 423.6,198.0 426.6,198.0 429.6,198.0 432.6,198.0 435.6,198.0 438.6,198.0 441.6,198.0 444.7,198.0 447.7,198.0 450.7,198.0 453.7,198.0 456.7,198.0 459.7,198.0 462.7,198.0 465.7,198.0 468.7,198.0 471.7,198.0 474.7,198.0 477.7,198.0 480.7,198.0 483.7,198.0 486.7,198.0 489.7,198.0 492.7,198.0 495.7,198.0 498.7,198.0 501.7,198.0 504.7,198.0 507.8,198.0 510.8,198.0 513.8,198.0 516.8,198.0 519.8,198.0 522.8,198.0 525.8,198.0 528.8,198.0 531.8,198.0 534.8,198.0 537.8,198.0 540.8,198.0 543.8,198.0 546.8,198.0 549.8,198.0 552.8,198.0 555.8,198.0 558.8,198.0 561.8,198.0 564.8,198.0 567.8,198.0 570.9,198.0 573.9,198.0 576.9,198.0 579.9,198.0 582.9,198.0 585.9,198.0 588.9,198.0 591.9,198.0 594.9,198.0 597.9,198.0 600.9,198.0 603.9,198.0 606.9,198.0 609.9,198.0 612.9,198.0 615.9,198.0 618.9,198.0 621.9,198.0 624.9,198.0 627.9,198.0 630.9,198.0 634.0,198.0 637.0,198.0 640.0,198.0 643.0,198.0 646.0,198.0 649.0,198.0 652.0,198.0 655.0,198.0 658.0,198.0 661.0,198.0 664.0,198.0"/><circle cx="36.0" cy="198.0" r="3" fill="#3fb950"/><circle cx="39.0" cy="198.0" r="3" fill="#3fb950"/><circle cx="42.0" cy="198.0" r="3" fill="#3fb950"/><circle cx="45.0" cy="198.0" r="3" fill="#3fb950"/><circle cx="48.0" cy="198.0" r="3" fill="#3fb950"/><circle cx="51.0" cy="198.0" r="3" fill="#3fb950"/><circle cx="54.0" cy="198.0" r="3" fill="#3fb950"/><circle cx="57.0" cy="198.0" r="3" fill="#3fb950"/><circle cx="60.0" cy="198.0" r="3" fill="#3fb950"/><circle cx="63.0" cy="198.0" r="3" fill="#3fb950"/><circle cx="66.0" cy="198.0" r="3" fill="#3fb950"/><circle cx="69.1" cy="198.0" r="3" fill="#3fb950"/><circle cx="72.1" cy="198.0" r="3" fill="#3fb950"/><circle cx="75.1" cy="198.0" r="3" fill="#3fb950"/><circle cx="78.1" cy="198.0" r="3" fill="#3fb950"/><circle cx="81.1" cy="198.0" r="3" fill="#3fb950"/><circle cx="84.1" cy="198.0" r="3" fill="#3fb950"/><circle cx="87.1" cy="198.0" r="3" fill="#3fb950"/><circle cx="90.1" cy="198.0" r="3" fill="#3fb950"/><circle cx="93.1" cy="198.0" r="3" fill="#3fb950"/><circle cx="96.1" cy="198.0" r="3" fill="#3fb950"/><circle cx="99.1" cy="198.0" r="3" fill="#3fb950"/><circle cx="102.1" cy="198.0" r="3" fill="#3fb950"/><circle cx="105.1" cy="198.0" r="3" fill="#3fb950"/><circle cx="108.1" cy="198.0" r="3" fill="#3fb950"/><circle cx="111.1" cy="198.0" r="3" fill="#3fb950"/><circle cx="114.1" cy="198.0" r="3" fill="#3fb950"/><circle cx="117.1" cy="198.0" r="3" fill="#3fb950"/><circle cx="120.1" cy="198.0" r="3" fill="#3fb950"/><circle cx="123.1" cy="198.0" r="3" fill="#3fb950"/><circle cx="126.1" cy="198.0" r="3" fill="#3fb950"/><circle cx="129.1" cy="198.0" r="3" fill="#3fb950"/><circle cx="132.2" cy="198.0" r="3" fill="#3fb950"/><circle cx="135.2" cy="198.0" r="3" fill="#3fb950"/><circle cx="138.2" cy="198.0" r="3" fill="#3fb950"/><circle cx="141.2" cy="198.0" r="3" fill="#3fb950"/><circle cx="144.2" cy="198.0" r="3" fill="#3fb950"/><circle cx="147.2" cy="198.0" r="3" fill="#3fb950"/><circle cx="150.2" cy="198.0" r="3" fill="#3fb950"/><circle cx="153.2" cy="198.0" r="3" fill="#3fb950"/><circle cx="156.2" cy="198.0" r="3" fill="#3fb950"/><circle cx="159.2" cy="198.0" r="3" fill="#3fb950"/><circle cx="162.2" cy="198.0" r="3" fill="#3fb950"/><circle cx="165.2" cy="191.7" r="3" fill="#3fb950"/><circle cx="168.2" cy="191.7" r="3" fill="#3fb950"/><circle cx="171.2" cy="191.7" r="3" fill="#3fb950"/><circle cx="174.2" cy="191.7" r="3" fill="#3fb950"/><circle cx="177.2" cy="191.7" r="3" fill="#3fb950"/><circle cx="180.2" cy="191.7" r="3" fill="#3fb950"/><circle cx="183.2" cy="191.7" r="3" fill="#3fb950"/><circle cx="186.2" cy="192.9" r="3" fill="#3fb950"/><circle cx="189.2" cy="192.9" r="3" fill="#3fb950"/><circle cx="192.2" cy="190.7" r="3" fill="#3fb950"/><circle cx="195.3" cy="190.7" r="3" fill="#3fb950"/><circle cx="198.3" cy="190.7" r="3" fill="#3fb950"/><circle cx="201.3" cy="190.7" r="3" fill="#3fb950"/><circle cx="204.3" cy="190.7" r="3" fill="#3fb950"/><circle cx="207.3" cy="190.5" r="3" fill="#3fb950"/><circle cx="210.3" cy="190.5" r="3" fill="#3fb950"/><circle cx="213.3" cy="190.5" r="3" fill="#3fb950"/><circle cx="216.3" cy="190.3" r="3" fill="#3fb950"/><circle cx="219.3" cy="190.3" r="3" fill="#3fb950"/><circle cx="222.3" cy="190.3" r="3" fill="#3fb950"/><circle cx="225.3" cy="190.3" r="3" fill="#3fb950"/><circle cx="228.3" cy="190.3" r="3" fill="#3fb950"/><circle cx="231.3" cy="190.3" r="3" fill="#3fb950"/><circle cx="234.3" cy="190.3" r="3" fill="#3fb950"/><circle cx="237.3" cy="190.3" r="3" fill="#3fb950"/><circle cx="240.3" cy="190.3" r="3" fill="#3fb950"/><circle cx="243.3" cy="190.3" r="3" fill="#3fb950"/><circle cx="246.3" cy="190.3" r="3" fill="#3fb950"/><circle cx="249.3" cy="190.3" r="3" fill="#3fb950"/><circle cx="252.3" cy="190.3" r="3" fill="#3fb950"/><circle cx="255.3" cy="190.3" r="3" fill="#3fb950"/><circle cx="258.4" cy="190.3" r="3" fill="#3fb950"/><circle cx="261.4" cy="190.3" r="3" fill="#3fb950"/><circle cx="264.4" cy="190.3" r="3" fill="#3fb950"/><circle cx="267.4" cy="190.3" r="3" fill="#3fb950"/><circle cx="270.4" cy="190.3" r="3" fill="#3fb950"/><circle cx="273.4" cy="190.3" r="3" fill="#3fb950"/><circle cx="276.4" cy="190.3" r="3" fill="#3fb950"/><circle cx="279.4" cy="189.3" r="3" fill="#3fb950"/><circle cx="282.4" cy="189.3" r="3" fill="#3fb950"/><circle cx="285.4" cy="189.3" r="3" fill="#3fb950"/><circle cx="288.4" cy="190.7" r="3" fill="#3fb950"/><circle cx="291.4" cy="190.7" r="3" fill="#3fb950"/><circle cx="294.4" cy="190.7" r="3" fill="#3fb950"/><circle cx="297.4" cy="190.7" r="3" fill="#3fb950"/><circle cx="300.4" cy="190.7" r="3" fill="#3fb950"/><circle cx="303.4" cy="190.7" r="3" fill="#3fb950"/><circle cx="306.4" cy="190.7" r="3" fill="#3fb950"/><circle cx="309.4" cy="190.7" r="3" fill="#3fb950"/><circle cx="312.4" cy="190.7" r="3" fill="#3fb950"/><circle cx="315.4" cy="190.9" r="3" fill="#3fb950"/><circle cx="318.4" cy="190.9" r="3" fill="#3fb950"/><circle cx="321.5" cy="190.9" r="3" fill="#3fb950"/><circle cx="324.5" cy="194.2" r="3" fill="#3fb950"/><circle cx="327.5" cy="196.8" r="3" fill="#3fb950"/><circle cx="330.5" cy="198.0" r="3" fill="#3fb950"/><circle cx="333.5" cy="198.0" r="3" fill="#3fb950"/><circle cx="336.5" cy="198.0" r="3" fill="#3fb950"/><circle cx="339.5" cy="198.0" r="3" fill="#3fb950"/><circle cx="342.5" cy="198.0" r="3" fill="#3fb950"/><circle cx="345.5" cy="198.0" r="3" fill="#3fb950"/><circle cx="348.5" cy="198.0" r="3" fill="#3fb950"/><circle cx="351.5" cy="198.0" r="3" fill="#3fb950"/><circle cx="354.5" cy="198.0" r="3" fill="#3fb950"/><circle cx="357.5" cy="198.0" r="3" fill="#3fb950"/><circle cx="360.5" cy="198.0" r="3" fill="#3fb950"/><circle cx="363.5" cy="198.0" r="3" fill="#3fb950"/><circle cx="366.5" cy="198.0" r="3" fill="#3fb950"/><circle cx="369.5" cy="198.0" r="3" fill="#3fb950"/><circle cx="372.5" cy="198.0" r="3" fill="#3fb950"/><circle cx="375.5" cy="198.0" r="3" fill="#3fb950"/><circle cx="378.5" cy="198.0" r="3" fill="#3fb950"/><circle cx="381.6" cy="198.0" r="3" fill="#3fb950"/><circle cx="384.6" cy="198.0" r="3" fill="#3fb950"/><circle cx="387.6" cy="198.0" r="3" fill="#3fb950"/><circle cx="390.6" cy="198.0" r="3" fill="#3fb950"/><circle cx="393.6" cy="198.0" r="3" fill="#3fb950"/><circle cx="396.6" cy="198.0" r="3" fill="#3fb950"/><circle cx="399.6" cy="198.0" r="3" fill="#3fb950"/><circle cx="402.6" cy="198.0" r="3" fill="#3fb950"/><circle cx="405.6" cy="198.0" r="3" fill="#3fb950"/><circle cx="408.6" cy="198.0" r="3" fill="#3fb950"/><circle cx="411.6" cy="198.0" r="3" fill="#3fb950"/><circle cx="414.6" cy="198.0" r="3" fill="#3fb950"/><circle cx="417.6" cy="198.0" r="3" fill="#3fb950"/><circle cx="420.6" cy="198.0" r="3" fill="#3fb950"/><circle cx="423.6" cy="198.0" r="3" fill="#3fb950"/><circle cx="426.6" cy="198.0" r="3" fill="#3fb950"/><circle cx="429.6" cy="198.0" r="3" fill="#3fb950"/><circle cx="432.6" cy="198.0" r="3" fill="#3fb950"/><circle cx="435.6" cy="198.0" r="3" fill="#3fb950"/><circle cx="438.6" cy="198.0" r="3" fill="#3fb950"/><circle cx="441.6" cy="198.0" r="3" fill="#3fb950"/><circle cx="444.7" cy="198.0" r="3" fill="#3fb950"/><circle cx="447.7" cy="198.0" r="3" fill="#3fb950"/><circle cx="450.7" cy="198.0" r="3" fill="#3fb950"/><circle cx="453.7" cy="198.0" r="3" fill="#3fb950"/><circle cx="456.7" cy="198.0" r="3" fill="#3fb950"/><circle cx="459.7" cy="198.0" r="3" fill="#3fb950"/><circle cx="462.7" cy="198.0" r="3" fill="#3fb950"/><circle cx="465.7" cy="198.0" r="3" fill="#3fb950"/><circle cx="468.7" cy="198.0" r="3" fill="#3fb950"/><circle cx="471.7" cy="198.0" r="3" fill="#3fb950"/><circle cx="474.7" cy="198.0" r="3" fill="#3fb950"/><circle cx="477.7" cy="198.0" r="3" fill="#3fb950"/><circle cx="480.7" cy="198.0" r="3" fill="#3fb950"/><circle cx="483.7" cy="198.0" r="3" fill="#3fb950"/><circle cx="486.7" cy="198.0" r="3" fill="#3fb950"/><circle cx="489.7" cy="198.0" r="3" fill="#3fb950"/><circle cx="492.7" cy="198.0" r="3" fill="#3fb950"/><circle cx="495.7" cy="198.0" r="3" fill="#3fb950"/><circle cx="498.7" cy="198.0" r="3" fill="#3fb950"/><circle cx="501.7" cy="198.0" r="3" fill="#3fb950"/><circle cx="504.7" cy="198.0" r="3" fill="#3fb950"/><circle cx="507.8" cy="198.0" r="3" fill="#3fb950"/><circle cx="510.8" cy="198.0" r="3" fill="#3fb950"/><circle cx="513.8" cy="198.0" r="3" fill="#3fb950"/><circle cx="516.8" cy="198.0" r="3" fill="#3fb950"/><circle cx="519.8" cy="198.0" r="3" fill="#3fb950"/><circle cx="522.8" cy="198.0" r="3" fill="#3fb950"/><circle cx="525.8" cy="198.0" r="3" fill="#3fb950"/><circle cx="528.8" cy="198.0" r="3" fill="#3fb950"/><circle cx="531.8" cy="198.0" r="3" fill="#3fb950"/><circle cx="534.8" cy="198.0" r="3" fill="#3fb950"/><circle cx="537.8" cy="198.0" r="3" fill="#3fb950"/><circle cx="540.8" cy="198.0" r="3" fill="#3fb950"/><circle cx="543.8" cy="198.0" r="3" fill="#3fb950"/><circle cx="546.8" cy="198.0" r="3" fill="#3fb950"/><circle cx="549.8" cy="198.0" r="3" fill="#3fb950"/><circle cx="552.8" cy="198.0" r="3" fill="#3fb950"/><circle cx="555.8" cy="198.0" r="3" fill="#3fb950"/><circle cx="558.8" cy="198.0" r="3" fill="#3fb950"/><circle cx="561.8" cy="198.0" r="3" fill="#3fb950"/><circle cx="564.8" cy="198.0" r="3" fill="#3fb950"/><circle cx="567.8" cy="198.0" r="3" fill="#3fb950"/><circle cx="570.9" cy="198.0" r="3" fill="#3fb950"/><circle cx="573.9" cy="198.0" r="3" fill="#3fb950"/><circle cx="576.9" cy="198.0" r="3" fill="#3fb950"/><circle cx="579.9" cy="198.0" r="3" fill="#3fb950"/><circle cx="582.9" cy="198.0" r="3" fill="#3fb950"/><circle cx="585.9" cy="198.0" r="3" fill="#3fb950"/><circle cx="588.9" cy="198.0" r="3" fill="#3fb950"/><circle cx="591.9" cy="198.0" r="3" fill="#3fb950"/><circle cx="594.9" cy="198.0" r="3" fill="#3fb950"/><circle cx="597.9" cy="198.0" r="3" fill="#3fb950"/><circle cx="600.9" cy="198.0" r="3" fill="#3fb950"/><circle cx="603.9" cy="198.0" r="3" fill="#3fb950"/><circle cx="606.9" cy="198.0" r="3" fill="#3fb950"/><circle cx="609.9" cy="198.0" r="3" fill="#3fb950"/><circle cx="612.9" cy="198.0" r="3" fill="#3fb950"/><circle cx="615.9" cy="198.0" r="3" fill="#3fb950"/><circle cx="618.9" cy="198.0" r="3" fill="#3fb950"/><circle cx="621.9" cy="198.0" r="3" fill="#3fb950"/><circle cx="624.9" cy="198.0" r="3" fill="#3fb950"/><circle cx="627.9" cy="198.0" r="3" fill="#3fb950"/><circle cx="630.9" cy="198.0" r="3" fill="#3fb950"/><circle cx="634.0" cy="198.0" r="3" fill="#3fb950"/><circle cx="637.0" cy="198.0" r="3" fill="#3fb950"/><circle cx="640.0" cy="198.0" r="3" fill="#3fb950"/><circle cx="643.0" cy="198.0" r="3" fill="#3fb950"/><circle cx="646.0" cy="198.0" r="3" fill="#3fb950"/><circle cx="649.0" cy="198.0" r="3" fill="#3fb950"/><circle cx="652.0" cy="198.0" r="3" fill="#3fb950"/><circle cx="655.0" cy="198.0" r="3" fill="#3fb950"/><circle cx="658.0" cy="198.0" r="3" fill="#3fb950"/><circle cx="661.0" cy="198.0" r="3" fill="#3fb950"/><circle cx="664.0" cy="198.0" r="3" fill="#3fb950"/>
<polyline fill="none" stroke="#4aa3ff" stroke-width="2.5" stroke-linejoin="round" points="36.0,144.3 39.0,144.3 42.0,144.3 45.0,144.3 48.0,144.3 51.0,144.3 54.0,144.3 57.0,144.3 60.0,144.3 63.0,144.3 66.0,144.3 69.1,144.3 72.1,144.3 75.1,144.3 78.1,144.3 81.1,136.2 84.1,132.4 87.1,129.6 90.1,129.6 93.1,121.0 96.1,121.0 99.1,121.0 102.1,114.4 105.1,114.4 108.1,114.4 111.1,111.3 114.1,110.9 117.1,110.9 120.1,110.5 123.1,110.5 126.1,109.9 129.1,108.7 132.2,107.3 135.2,106.9 138.2,106.9 141.2,106.9 144.2,106.9 147.2,106.9 150.2,106.9 153.2,106.9 156.2,106.9 159.2,106.9 162.2,106.9 165.2,113.2 168.2,113.2 171.2,113.2 174.2,113.2 177.2,113.2 180.2,110.7 183.2,105.3 186.2,83.4 189.2,83.4 192.2,85.6 195.3,85.6 198.3,85.6 201.3,85.6 204.3,85.6 207.3,85.8 210.3,85.8 213.3,85.8 216.3,86.0 219.3,86.0 222.3,86.0 225.3,86.0 228.3,86.0 231.3,86.0 234.3,86.0 237.3,86.0 240.3,86.0 243.3,86.0 246.3,86.0 249.3,86.0 252.3,86.0 255.3,86.0 258.4,86.0 261.4,86.0 264.4,86.0 267.4,86.0 270.4,86.0 273.4,86.0 276.4,86.0 279.4,87.0 282.4,87.0 285.4,87.0 288.4,73.7 291.4,73.7 294.4,71.0 297.4,71.0 300.4,70.8 303.4,70.6 306.4,70.6 309.4,70.4 312.4,68.6 315.4,60.5 318.4,59.3 321.5,52.0 324.5,47.3 327.5,40.1 330.5,36.0 333.5,36.0 336.5,36.0 339.5,36.0 342.5,36.0 345.5,36.0 348.5,36.0 351.5,36.0 354.5,36.0 357.5,36.0 360.5,36.0 363.5,36.0 366.5,36.0 369.5,36.0 372.5,36.0 375.5,36.0 378.5,36.0 381.6,36.0 384.6,36.0 387.6,36.0 390.6,36.0 393.6,36.0 396.6,36.0 399.6,36.0 402.6,36.0 405.6,36.0 408.6,36.0 411.6,36.0 414.6,36.0 417.6,36.0 420.6,36.0 423.6,36.0 426.6,36.0 429.6,36.0 432.6,36.0 435.6,36.0 438.6,36.0 441.6,36.0 444.7,36.0 447.7,36.0 450.7,36.0 453.7,36.0 456.7,36.0 459.7,36.0 462.7,36.0 465.7,36.0 468.7,36.0 471.7,36.0 474.7,36.0 477.7,36.0 480.7,36.0 483.7,36.0 486.7,36.0 489.7,36.0 492.7,36.0 495.7,36.0 498.7,36.0 501.7,36.0 504.7,36.0 507.8,36.0 510.8,36.0 513.8,36.0 516.8,36.0 519.8,36.0 522.8,36.0 525.8,36.0 528.8,36.0 531.8,36.0 534.8,36.0 537.8,36.0 540.8,36.0 543.8,36.0 546.8,36.0 549.8,36.0 552.8,36.0 555.8,36.0 558.8,36.0 561.8,36.0 564.8,36.0 567.8,36.0 570.9,36.0 573.9,36.0 576.9,36.0 579.9,36.0 582.9,36.0 585.9,36.0 588.9,36.0 591.9,36.0 594.9,36.0 597.9,36.0 600.9,36.0 603.9,36.0 606.9,36.0 609.9,36.0 612.9,36.0 615.9,36.0 618.9,36.0 621.9,36.0 624.9,36.0 627.9,36.0 630.9,36.0 634.0,36.0 637.0,36.0 640.0,36.0 643.0,36.0 646.0,36.0 649.0,36.0 652.0,36.0 655.0,36.0 658.0,36.0 661.0,36.0 664.0,36.0"/><circle cx="36.0" cy="144.3" r="3" fill="#4aa3ff"/><circle cx="39.0" cy="144.3" r="3" fill="#4aa3ff"/><circle cx="42.0" cy="144.3" r="3" fill="#4aa3ff"/><circle cx="45.0" cy="144.3" r="3" fill="#4aa3ff"/><circle cx="48.0" cy="144.3" r="3" fill="#4aa3ff"/><circle cx="51.0" cy="144.3" r="3" fill="#4aa3ff"/><circle cx="54.0" cy="144.3" r="3" fill="#4aa3ff"/><circle cx="57.0" cy="144.3" r="3" fill="#4aa3ff"/><circle cx="60.0" cy="144.3" r="3" fill="#4aa3ff"/><circle cx="63.0" cy="144.3" r="3" fill="#4aa3ff"/><circle cx="66.0" cy="144.3" r="3" fill="#4aa3ff"/><circle cx="69.1" cy="144.3" r="3" fill="#4aa3ff"/><circle cx="72.1" cy="144.3" r="3" fill="#4aa3ff"/><circle cx="75.1" cy="144.3" r="3" fill="#4aa3ff"/><circle cx="78.1" cy="144.3" r="3" fill="#4aa3ff"/><circle cx="81.1" cy="136.2" r="3" fill="#4aa3ff"/><circle cx="84.1" cy="132.4" r="3" fill="#4aa3ff"/><circle cx="87.1" cy="129.6" r="3" fill="#4aa3ff"/><circle cx="90.1" cy="129.6" r="3" fill="#4aa3ff"/><circle cx="93.1" cy="121.0" r="3" fill="#4aa3ff"/><circle cx="96.1" cy="121.0" r="3" fill="#4aa3ff"/><circle cx="99.1" cy="121.0" r="3" fill="#4aa3ff"/><circle cx="102.1" cy="114.4" r="3" fill="#4aa3ff"/><circle cx="105.1" cy="114.4" r="3" fill="#4aa3ff"/><circle cx="108.1" cy="114.4" r="3" fill="#4aa3ff"/><circle cx="111.1" cy="111.3" r="3" fill="#4aa3ff"/><circle cx="114.1" cy="110.9" r="3" fill="#4aa3ff"/><circle cx="117.1" cy="110.9" r="3" fill="#4aa3ff"/><circle cx="120.1" cy="110.5" r="3" fill="#4aa3ff"/><circle cx="123.1" cy="110.5" r="3" fill="#4aa3ff"/><circle cx="126.1" cy="109.9" r="3" fill="#4aa3ff"/><circle cx="129.1" cy="108.7" r="3" fill="#4aa3ff"/><circle cx="132.2" cy="107.3" r="3" fill="#4aa3ff"/><circle cx="135.2" cy="106.9" r="3" fill="#4aa3ff"/><circle cx="138.2" cy="106.9" r="3" fill="#4aa3ff"/><circle cx="141.2" cy="106.9" r="3" fill="#4aa3ff"/><circle cx="144.2" cy="106.9" r="3" fill="#4aa3ff"/><circle cx="147.2" cy="106.9" r="3" fill="#4aa3ff"/><circle cx="150.2" cy="106.9" r="3" fill="#4aa3ff"/><circle cx="153.2" cy="106.9" r="3" fill="#4aa3ff"/><circle cx="156.2" cy="106.9" r="3" fill="#4aa3ff"/><circle cx="159.2" cy="106.9" r="3" fill="#4aa3ff"/><circle cx="162.2" cy="106.9" r="3" fill="#4aa3ff"/><circle cx="165.2" cy="113.2" r="3" fill="#4aa3ff"/><circle cx="168.2" cy="113.2" r="3" fill="#4aa3ff"/><circle cx="171.2" cy="113.2" r="3" fill="#4aa3ff"/><circle cx="174.2" cy="113.2" r="3" fill="#4aa3ff"/><circle cx="177.2" cy="113.2" r="3" fill="#4aa3ff"/><circle cx="180.2" cy="110.7" r="3" fill="#4aa3ff"/><circle cx="183.2" cy="105.3" r="3" fill="#4aa3ff"/><circle cx="186.2" cy="83.4" r="3" fill="#4aa3ff"/><circle cx="189.2" cy="83.4" r="3" fill="#4aa3ff"/><circle cx="192.2" cy="85.6" r="3" fill="#4aa3ff"/><circle cx="195.3" cy="85.6" r="3" fill="#4aa3ff"/><circle cx="198.3" cy="85.6" r="3" fill="#4aa3ff"/><circle cx="201.3" cy="85.6" r="3" fill="#4aa3ff"/><circle cx="204.3" cy="85.6" r="3" fill="#4aa3ff"/><circle cx="207.3" cy="85.8" r="3" fill="#4aa3ff"/><circle cx="210.3" cy="85.8" r="3" fill="#4aa3ff"/><circle cx="213.3" cy="85.8" r="3" fill="#4aa3ff"/><circle cx="216.3" cy="86.0" r="3" fill="#4aa3ff"/><circle cx="219.3" cy="86.0" r="3" fill="#4aa3ff"/><circle cx="222.3" cy="86.0" r="3" fill="#4aa3ff"/><circle cx="225.3" cy="86.0" r="3" fill="#4aa3ff"/><circle cx="228.3" cy="86.0" r="3" fill="#4aa3ff"/><circle cx="231.3" cy="86.0" r="3" fill="#4aa3ff"/><circle cx="234.3" cy="86.0" r="3" fill="#4aa3ff"/><circle cx="237.3" cy="86.0" r="3" fill="#4aa3ff"/><circle cx="240.3" cy="86.0" r="3" fill="#4aa3ff"/><circle cx="243.3" cy="86.0" r="3" fill="#4aa3ff"/><circle cx="246.3" cy="86.0" r="3" fill="#4aa3ff"/><circle cx="249.3" cy="86.0" r="3" fill="#4aa3ff"/><circle cx="252.3" cy="86.0" r="3" fill="#4aa3ff"/><circle cx="255.3" cy="86.0" r="3" fill="#4aa3ff"/><circle cx="258.4" cy="86.0" r="3" fill="#4aa3ff"/><circle cx="261.4" cy="86.0" r="3" fill="#4aa3ff"/><circle cx="264.4" cy="86.0" r="3" fill="#4aa3ff"/><circle cx="267.4" cy="86.0" r="3" fill="#4aa3ff"/><circle cx="270.4" cy="86.0" r="3" fill="#4aa3ff"/><circle cx="273.4" cy="86.0" r="3" fill="#4aa3ff"/><circle cx="276.4" cy="86.0" r="3" fill="#4aa3ff"/><circle cx="279.4" cy="87.0" r="3" fill="#4aa3ff"/><circle cx="282.4" cy="87.0" r="3" fill="#4aa3ff"/><circle cx="285.4" cy="87.0" r="3" fill="#4aa3ff"/><circle cx="288.4" cy="73.7" r="3" fill="#4aa3ff"/><circle cx="291.4" cy="73.7" r="3" fill="#4aa3ff"/><circle cx="294.4" cy="71.0" r="3" fill="#4aa3ff"/><circle cx="297.4" cy="71.0" r="3" fill="#4aa3ff"/><circle cx="300.4" cy="70.8" r="3" fill="#4aa3ff"/><circle cx="303.4" cy="70.6" r="3" fill="#4aa3ff"/><circle cx="306.4" cy="70.6" r="3" fill="#4aa3ff"/><circle cx="309.4" cy="70.4" r="3" fill="#4aa3ff"/><circle cx="312.4" cy="68.6" r="3" fill="#4aa3ff"/><circle cx="315.4" cy="60.5" r="3" fill="#4aa3ff"/><circle cx="318.4" cy="59.3" r="3" fill="#4aa3ff"/><circle cx="321.5" cy="52.0" r="3" fill="#4aa3ff"/><circle cx="324.5" cy="47.3" r="3" fill="#4aa3ff"/><circle cx="327.5" cy="40.1" r="3" fill="#4aa3ff"/><circle cx="330.5" cy="36.0" r="3" fill="#4aa3ff"/><circle cx="333.5" cy="36.0" r="3" fill="#4aa3ff"/><circle cx="336.5" cy="36.0" r="3" fill="#4aa3ff"/><circle cx="339.5" cy="36.0" r="3" fill="#4aa3ff"/><circle cx="342.5" cy="36.0" r="3" fill="#4aa3ff"/><circle cx="345.5" cy="36.0" r="3" fill="#4aa3ff"/><circle cx="348.5" cy="36.0" r="3" fill="#4aa3ff"/><circle cx="351.5" cy="36.0" r="3" fill="#4aa3ff"/><circle cx="354.5" cy="36.0" r="3" fill="#4aa3ff"/><circle cx="357.5" cy="36.0" r="3" fill="#4aa3ff"/><circle cx="360.5" cy="36.0" r="3" fill="#4aa3ff"/><circle cx="363.5" cy="36.0" r="3" fill="#4aa3ff"/><circle cx="366.5" cy="36.0" r="3" fill="#4aa3ff"/><circle cx="369.5" cy="36.0" r="3" fill="#4aa3ff"/><circle cx="372.5" cy="36.0" r="3" fill="#4aa3ff"/><circle cx="375.5" cy="36.0" r="3" fill="#4aa3ff"/><circle cx="378.5" cy="36.0" r="3" fill="#4aa3ff"/><circle cx="381.6" cy="36.0" r="3" fill="#4aa3ff"/><circle cx="384.6" cy="36.0" r="3" fill="#4aa3ff"/><circle cx="387.6" cy="36.0" r="3" fill="#4aa3ff"/><circle cx="390.6" cy="36.0" r="3" fill="#4aa3ff"/><circle cx="393.6" cy="36.0" r="3" fill="#4aa3ff"/><circle cx="396.6" cy="36.0" r="3" fill="#4aa3ff"/><circle cx="399.6" cy="36.0" r="3" fill="#4aa3ff"/><circle cx="402.6" cy="36.0" r="3" fill="#4aa3ff"/><circle cx="405.6" cy="36.0" r="3" fill="#4aa3ff"/><circle cx="408.6" cy="36.0" r="3" fill="#4aa3ff"/><circle cx="411.6" cy="36.0" r="3" fill="#4aa3ff"/><circle cx="414.6" cy="36.0" r="3" fill="#4aa3ff"/><circle cx="417.6" cy="36.0" r="3" fill="#4aa3ff"/><circle cx="420.6" cy="36.0" r="3" fill="#4aa3ff"/><circle cx="423.6" cy="36.0" r="3" fill="#4aa3ff"/><circle cx="426.6" cy="36.0" r="3" fill="#4aa3ff"/><circle cx="429.6" cy="36.0" r="3" fill="#4aa3ff"/><circle cx="432.6" cy="36.0" r="3" fill="#4aa3ff"/><circle cx="435.6" cy="36.0" r="3" fill="#4aa3ff"/><circle cx="438.6" cy="36.0" r="3" fill="#4aa3ff"/><circle cx="441.6" cy="36.0" r="3" fill="#4aa3ff"/><circle cx="444.7" cy="36.0" r="3" fill="#4aa3ff"/><circle cx="447.7" cy="36.0" r="3" fill="#4aa3ff"/><circle cx="450.7" cy="36.0" r="3" fill="#4aa3ff"/><circle cx="453.7" cy="36.0" r="3" fill="#4aa3ff"/><circle cx="456.7" cy="36.0" r="3" fill="#4aa3ff"/><circle cx="459.7" cy="36.0" r="3" fill="#4aa3ff"/><circle cx="462.7" cy="36.0" r="3" fill="#4aa3ff"/><circle cx="465.7" cy="36.0" r="3" fill="#4aa3ff"/><circle cx="468.7" cy="36.0" r="3" fill="#4aa3ff"/><circle cx="471.7" cy="36.0" r="3" fill="#4aa3ff"/><circle cx="474.7" cy="36.0" r="3" fill="#4aa3ff"/><circle cx="477.7" cy="36.0" r="3" fill="#4aa3ff"/><circle cx="480.7" cy="36.0" r="3" fill="#4aa3ff"/><circle cx="483.7" cy="36.0" r="3" fill="#4aa3ff"/><circle cx="486.7" cy="36.0" r="3" fill="#4aa3ff"/><circle cx="489.7" cy="36.0" r="3" fill="#4aa3ff"/><circle cx="492.7" cy="36.0" r="3" fill="#4aa3ff"/><circle cx="495.7" cy="36.0" r="3" fill="#4aa3ff"/><circle cx="498.7" cy="36.0" r="3" fill="#4aa3ff"/><circle cx="501.7" cy="36.0" r="3" fill="#4aa3ff"/><circle cx="504.7" cy="36.0" r="3" fill="#4aa3ff"/><circle cx="507.8" cy="36.0" r="3" fill="#4aa3ff"/><circle cx="510.8" cy="36.0" r="3" fill="#4aa3ff"/><circle cx="513.8" cy="36.0" r="3" fill="#4aa3ff"/><circle cx="516.8" cy="36.0" r="3" fill="#4aa3ff"/><circle cx="519.8" cy="36.0" r="3" fill="#4aa3ff"/><circle cx="522.8" cy="36.0" r="3" fill="#4aa3ff"/><circle cx="525.8" cy="36.0" r="3" fill="#4aa3ff"/><circle cx="528.8" cy="36.0" r="3" fill="#4aa3ff"/><circle cx="531.8" cy="36.0" r="3" fill="#4aa3ff"/><circle cx="534.8" cy="36.0" r="3" fill="#4aa3ff"/><circle cx="537.8" cy="36.0" r="3" fill="#4aa3ff"/><circle cx="540.8" cy="36.0" r="3" fill="#4aa3ff"/><circle cx="543.8" cy="36.0" r="3" fill="#4aa3ff"/><circle cx="546.8" cy="36.0" r="3" fill="#4aa3ff"/><circle cx="549.8" cy="36.0" r="3" fill="#4aa3ff"/><circle cx="552.8" cy="36.0" r="3" fill="#4aa3ff"/><circle cx="555.8" cy="36.0" r="3" fill="#4aa3ff"/><circle cx="558.8" cy="36.0" r="3" fill="#4aa3ff"/><circle cx="561.8" cy="36.0" r="3" fill="#4aa3ff"/><circle cx="564.8" cy="36.0" r="3" fill="#4aa3ff"/><circle cx="567.8" cy="36.0" r="3" fill="#4aa3ff"/><circle cx="570.9" cy="36.0" r="3" fill="#4aa3ff"/><circle cx="573.9" cy="36.0" r="3" fill="#4aa3ff"/><circle cx="576.9" cy="36.0" r="3" fill="#4aa3ff"/><circle cx="579.9" cy="36.0" r="3" fill="#4aa3ff"/><circle cx="582.9" cy="36.0" r="3" fill="#4aa3ff"/><circle cx="585.9" cy="36.0" r="3" fill="#4aa3ff"/><circle cx="588.9" cy="36.0" r="3" fill="#4aa3ff"/><circle cx="591.9" cy="36.0" r="3" fill="#4aa3ff"/><circle cx="594.9" cy="36.0" r="3" fill="#4aa3ff"/><circle cx="597.9" cy="36.0" r="3" fill="#4aa3ff"/><circle cx="600.9" cy="36.0" r="3" fill="#4aa3ff"/><circle cx="603.9" cy="36.0" r="3" fill="#4aa3ff"/><circle cx="606.9" cy="36.0" r="3" fill="#4aa3ff"/><circle cx="609.9" cy="36.0" r="3" fill="#4aa3ff"/><circle cx="612.9" cy="36.0" r="3" fill="#4aa3ff"/><circle cx="615.9" cy="36.0" r="3" fill="#4aa3ff"/><circle cx="618.9" cy="36.0" r="3" fill="#4aa3ff"/><circle cx="621.9" cy="36.0" r="3" fill="#4aa3ff"/><circle cx="624.9" cy="36.0" r="3" fill="#4aa3ff"/><circle cx="627.9" cy="36.0" r="3" fill="#4aa3ff"/><circle cx="630.9" cy="36.0" r="3" fill="#4aa3ff"/><circle cx="634.0" cy="36.0" r="3" fill="#4aa3ff"/><circle cx="637.0" cy="36.0" r="3" fill="#4aa3ff"/><circle cx="640.0" cy="36.0" r="3" fill="#4aa3ff"/><circle cx="643.0" cy="36.0" r="3" fill="#4aa3ff"/><circle cx="646.0" cy="36.0" r="3" fill="#4aa3ff"/><circle cx="649.0" cy="36.0" r="3" fill="#4aa3ff"/><circle cx="652.0" cy="36.0" r="3" fill="#4aa3ff"/><circle cx="655.0" cy="36.0" r="3" fill="#4aa3ff"/><circle cx="658.0" cy="36.0" r="3" fill="#4aa3ff"/><circle cx="661.0" cy="36.0" r="3" fill="#4aa3ff"/><circle cx="664.0" cy="36.0" r="3" fill="#4aa3ff"/>
<text x="36" y="225" fill="#6b7280" font-size="11">2026-06-26</text>
<text x="664" y="225" fill="#6b7280" font-size="11" text-anchor="end">2026-07-17</text>
<text x="36" y="212" font-family="system-ui,sans-serif" font-size="11">
<tspan fill="#4aa3ff">&#9679; open FPs</tspan>  <tspan fill="#3fb950">&#9679; closed (Anthropic acting)</tspan>  <tspan fill="#8a5a5a">&#9679; harness withdrawn</tspan></text>
<text x="664" y="22" text-anchor="end" font-family="system-ui,sans-serif" font-size="12">
<tspan fill="#4aa3ff">open 800</tspan>  <tspan fill="#3fb950">closed 0</tspan>  <tspan fill="#8a5a5a">harness 0</tspan></text>
</svg>