<svg xmlns="http://www.w3.org/2000/svg" width="700" height="234" viewBox="0 0 700 234" role="img">
<rect width="700" height="234" rx="12" fill="#16181d"/>
<text x="36" y="22" fill="#e8eaed" font-family="system-ui,sans-serif" font-size="14" font-weight="700">Is Anthropic acting? cyber/aup false positives over time</text>
<line x1="36" y1="198.0" x2="664" y2="198.0" stroke="#2a2e37" stroke-width="1"/><text x="30" y="202.0" fill="#6b7280" font-size="11" text-anchor="end">0</text><line x1="36" y1="117.0" x2="664" y2="117.0" stroke="#2a2e37" stroke-width="1"/><text x="30" y="121.0" fill="#6b7280" font-size="11" text-anchor="end">283</text><line x1="36" y1="36.0" x2="664" y2="36.0" stroke="#2a2e37" stroke-width="1"/><text x="30" y="40.0" fill="#6b7280" font-size="11" text-anchor="end">566</text>

<polyline fill="none" stroke="#8a5a5a" stroke-width="2.5" stroke-linejoin="round" points="36.0,123.3 45.0,123.3 53.9,123.3 62.9,123.3 71.9,123.3 80.9,123.3 89.8,123.3 98.8,123.3 107.8,123.3 116.7,123.3 125.7,123.3 134.7,123.3 143.7,123.3 152.6,123.3 161.6,123.3 170.6,123.3 179.5,123.3 188.5,123.3 197.5,123.3 206.5,123.3 215.4,123.3 224.4,123.3 233.4,123.3 242.3,123.3 251.3,123.3 260.3,123.3 269.3,123.3 278.2,123.3 287.2,123.3 296.2,123.3 305.1,123.3 314.1,123.3 323.1,123.3 332.1,123.3 341.0,123.3 350.0,123.3 359.0,123.3 367.9,123.3 376.9,123.3 385.9,123.3 394.9,123.3 403.8,123.3 412.8,123.3 421.8,123.3 430.7,123.3 439.7,123.3 448.7,123.3 457.7,123.3 466.6,123.3 475.6,123.3 484.6,138.2 493.5,138.2 502.5,138.2 511.5,138.2 520.5,138.2 529.4,138.2 538.4,138.2 547.4,138.2 556.3,138.2 565.3,138.2 574.3,138.2 583.3,138.2 592.2,138.2 601.2,138.2 610.2,138.2 619.1,138.2 628.1,138.2 637.1,138.2 646.1,138.2 655.0,138.2 664.0,138.2"/><circle cx="36.0" cy="123.3" r="3" fill="#8a5a5a"/><circle cx="45.0" cy="123.3" r="3" fill="#8a5a5a"/><circle cx="53.9" cy="123.3" r="3" fill="#8a5a5a"/><circle cx="62.9" cy="123.3" r="3" fill="#8a5a5a"/><circle cx="71.9" cy="123.3" r="3" fill="#8a5a5a"/><circle cx="80.9" cy="123.3" r="3" fill="#8a5a5a"/><circle cx="89.8" cy="123.3" r="3" fill="#8a5a5a"/><circle cx="98.8" cy="123.3" r="3" fill="#8a5a5a"/><circle cx="107.8" cy="123.3" r="3" fill="#8a5a5a"/><circle cx="116.7" cy="123.3" r="3" fill="#8a5a5a"/><circle cx="125.7" cy="123.3" r="3" fill="#8a5a5a"/><circle cx="134.7" cy="123.3" r="3" fill="#8a5a5a"/><circle cx="143.7" cy="123.3" r="3" fill="#8a5a5a"/><circle cx="152.6" cy="123.3" r="3" fill="#8a5a5a"/><circle cx="161.6" cy="123.3" r="3" fill="#8a5a5a"/><circle cx="170.6" cy="123.3" r="3" fill="#8a5a5a"/><circle cx="179.5" cy="123.3" r="3" fill="#8a5a5a"/><circle cx="188.5" cy="123.3" r="3" fill="#8a5a5a"/><circle cx="197.5" cy="123.3" r="3" fill="#8a5a5a"/><circle cx="206.5" cy="123.3" r="3" fill="#8a5a5a"/><circle cx="215.4" cy="123.3" r="3" fill="#8a5a5a"/><circle cx="224.4" cy="123.3" r="3" fill="#8a5a5a"/><circle cx="233.4" cy="123.3" r="3" fill="#8a5a5a"/><circle cx="242.3" cy="123.3" r="3" fill="#8a5a5a"/><circle cx="251.3" cy="123.3" r="3" fill="#8a5a5a"/><circle cx="260.3" cy="123.3" r="3" fill="#8a5a5a"/><circle cx="269.3" cy="123.3" r="3" fill="#8a5a5a"/><circle cx="278.2" cy="123.3" r="3" fill="#8a5a5a"/><circle cx="287.2" cy="123.3" r="3" fill="#8a5a5a"/><circle cx="296.2" cy="123.3" r="3" fill="#8a5a5a"/><circle cx="305.1" cy="123.3" r="3" fill="#8a5a5a"/><circle cx="314.1" cy="123.3" r="3" fill="#8a5a5a"/><circle cx="323.1" cy="123.3" r="3" fill="#8a5a5a"/><circle cx="332.1" cy="123.3" r="3" fill="#8a5a5a"/><circle cx="341.0" cy="123.3" r="3" fill="#8a5a5a"/><circle cx="350.0" cy="123.3" r="3" fill="#8a5a5a"/><circle cx="359.0" cy="123.3" r="3" fill="#8a5a5a"/><circle cx="367.9" cy="123.3" r="3" fill="#8a5a5a"/><circle cx="376.9" cy="123.3" r="3" fill="#8a5a5a"/><circle cx="385.9" cy="123.3" r="3" fill="#8a5a5a"/><circle cx="394.9" cy="123.3" r="3" fill="#8a5a5a"/><circle cx="403.8" cy="123.3" r="3" fill="#8a5a5a"/><circle cx="412.8" cy="123.3" r="3" fill="#8a5a5a"/><circle cx="421.8" cy="123.3" r="3" fill="#8a5a5a"/><circle cx="430.7" cy="123.3" r="3" fill="#8a5a5a"/><circle cx="439.7" cy="123.3" r="3" fill="#8a5a5a"/><circle cx="448.7" cy="123.3" r="3" fill="#8a5a5a"/><circle cx="457.7" cy="123.3" r="3" fill="#8a5a5a"/><circle cx="466.6" cy="123.3" r="3" fill="#8a5a5a"/><circle cx="475.6" cy="123.3" r="3" fill="#8a5a5a"/><circle cx="484.6" cy="138.2" r="3" fill="#8a5a5a"/><circle cx="493.5" cy="138.2" r="3" fill="#8a5a5a"/><circle cx="502.5" cy="138.2" r="3" fill="#8a5a5a"/><circle cx="511.5" cy="138.2" r="3" fill="#8a5a5a"/><circle cx="520.5" cy="138.2" r="3" fill="#8a5a5a"/><circle cx="529.4" cy="138.2" r="3" fill="#8a5a5a"/><circle cx="538.4" cy="138.2" r="3" fill="#8a5a5a"/><circle cx="547.4" cy="138.2" r="3" fill="#8a5a5a"/><circle cx="556.3" cy="138.2" r="3" fill="#8a5a5a"/><circle cx="565.3" cy="138.2" r="3" fill="#8a5a5a"/><circle cx="574.3" cy="138.2" r="3" fill="#8a5a5a"/><circle cx="583.3" cy="138.2" r="3" fill="#8a5a5a"/><circle cx="592.2" cy="138.2" r="3" fill="#8a5a5a"/><circle cx="601.2" cy="138.2" r="3" fill="#8a5a5a"/><circle cx="610.2" cy="138.2" r="3" fill="#8a5a5a"/><circle cx="619.1" cy="138.2" r="3" fill="#8a5a5a"/><circle cx="628.1" cy="138.2" r="3" fill="#8a5a5a"/><circle cx="637.1" cy="138.2" r="3" fill="#8a5a5a"/><circle cx="646.1" cy="138.2" r="3" fill="#8a5a5a"/><circle cx="655.0" cy="138.2" r="3" fill="#8a5a5a"/><circle cx="664.0" cy="138.2" r="3" fill="#8a5a5a"/>
<polyline fill="none" stroke="#3fb950" stroke-width="2.5" stroke-linejoin="round" points="36.0,198.0 45.0,198.0 53.9,198.0 62.9,198.0 71.9,198.0 80.9,198.0 89.8,198.0 98.8,198.0 107.8,198.0 116.7,198.0 125.7,198.0 134.7,198.0 143.7,198.0 152.6,198.0 161.6,198.0 170.6,198.0 179.5,198.0 188.5,198.0 197.5,198.0 206.5,198.0 215.4,198.0 224.4,198.0 233.4,198.0 242.3,198.0 251.3,198.0 260.3,198.0 269.3,198.0 278.2,198.0 287.2,198.0 296.2,198.0 305.1,198.0 314.1,198.0 323.1,198.0 332.1,198.0 341.0,198.0 350.0,198.0 359.0,198.0 367.9,198.0 376.9,198.0 385.9,198.0 394.9,198.0 403.8,198.0 412.8,198.0 421.8,189.1 430.7,189.1 439.7,189.1 448.7,189.1 457.7,189.1 466.6,189.1 475.6,189.1 484.6,190.8 493.5,190.8 502.5,187.7 511.5,187.7 520.5,187.7 529.4,187.7 538.4,187.7 547.4,187.4 556.3,187.4 565.3,187.4 574.3,187.1 583.3,187.1 592.2,187.1 601.2,187.1 610.2,187.1 619.1,187.1 628.1,187.1 637.1,187.1 646.1,187.1 655.0,187.1 664.0,187.1"/><circle cx="36.0" cy="198.0" r="3" fill="#3fb950"/><circle cx="45.0" cy="198.0" r="3" fill="#3fb950"/><circle cx="53.9" cy="198.0" r="3" fill="#3fb950"/><circle cx="62.9" cy="198.0" r="3" fill="#3fb950"/><circle cx="71.9" cy="198.0" r="3" fill="#3fb950"/><circle cx="80.9" cy="198.0" r="3" fill="#3fb950"/><circle cx="89.8" cy="198.0" r="3" fill="#3fb950"/><circle cx="98.8" cy="198.0" r="3" fill="#3fb950"/><circle cx="107.8" cy="198.0" r="3" fill="#3fb950"/><circle cx="116.7" cy="198.0" r="3" fill="#3fb950"/><circle cx="125.7" cy="198.0" r="3" fill="#3fb950"/><circle cx="134.7" cy="198.0" r="3" fill="#3fb950"/><circle cx="143.7" cy="198.0" r="3" fill="#3fb950"/><circle cx="152.6" cy="198.0" r="3" fill="#3fb950"/><circle cx="161.6" cy="198.0" r="3" fill="#3fb950"/><circle cx="170.6" cy="198.0" r="3" fill="#3fb950"/><circle cx="179.5" cy="198.0" r="3" fill="#3fb950"/><circle cx="188.5" cy="198.0" r="3" fill="#3fb950"/><circle cx="197.5" cy="198.0" r="3" fill="#3fb950"/><circle cx="206.5" cy="198.0" r="3" fill="#3fb950"/><circle cx="215.4" cy="198.0" r="3" fill="#3fb950"/><circle cx="224.4" cy="198.0" r="3" fill="#3fb950"/><circle cx="233.4" cy="198.0" r="3" fill="#3fb950"/><circle cx="242.3" cy="198.0" r="3" fill="#3fb950"/><circle cx="251.3" cy="198.0" r="3" fill="#3fb950"/><circle cx="260.3" cy="198.0" r="3" fill="#3fb950"/><circle cx="269.3" cy="198.0" r="3" fill="#3fb950"/><circle cx="278.2" cy="198.0" r="3" fill="#3fb950"/><circle cx="287.2" cy="198.0" r="3" fill="#3fb950"/><circle cx="296.2" cy="198.0" r="3" fill="#3fb950"/><circle cx="305.1" cy="198.0" r="3" fill="#3fb950"/><circle cx="314.1" cy="198.0" r="3" fill="#3fb950"/><circle cx="323.1" cy="198.0" r="3" fill="#3fb950"/><circle cx="332.1" cy="198.0" r="3" fill="#3fb950"/><circle cx="341.0" cy="198.0" r="3" fill="#3fb950"/><circle cx="350.0" cy="198.0" r="3" fill="#3fb950"/><circle cx="359.0" cy="198.0" r="3" fill="#3fb950"/><circle cx="367.9" cy="198.0" r="3" fill="#3fb950"/><circle cx="376.9" cy="198.0" r="3" fill="#3fb950"/><circle cx="385.9" cy="198.0" r="3" fill="#3fb950"/><circle cx="394.9" cy="198.0" r="3" fill="#3fb950"/><circle cx="403.8" cy="198.0" r="3" fill="#3fb950"/><circle cx="412.8" cy="198.0" r="3" fill="#3fb950"/><circle cx="421.8" cy="189.1" r="3" fill="#3fb950"/><circle cx="430.7" cy="189.1" r="3" fill="#3fb950"/><circle cx="439.7" cy="189.1" r="3" fill="#3fb950"/><circle cx="448.7" cy="189.1" r="3" fill="#3fb950"/><circle cx="457.7" cy="189.1" r="3" fill="#3fb950"/><circle cx="466.6" cy="189.1" r="3" fill="#3fb950"/><circle cx="475.6" cy="189.1" r="3" fill="#3fb950"/><circle cx="484.6" cy="190.8" r="3" fill="#3fb950"/><circle cx="493.5" cy="190.8" r="3" fill="#3fb950"/><circle cx="502.5" cy="187.7" r="3" fill="#3fb950"/><circle cx="511.5" cy="187.7" r="3" fill="#3fb950"/><circle cx="520.5" cy="187.7" r="3" fill="#3fb950"/><circle cx="529.4" cy="187.7" r="3" fill="#3fb950"/><circle cx="538.4" cy="187.7" r="3" fill="#3fb950"/><circle cx="547.4" cy="187.4" r="3" fill="#3fb950"/><circle cx="556.3" cy="187.4" r="3" fill="#3fb950"/><circle cx="565.3" cy="187.4" r="3" fill="#3fb950"/><circle cx="574.3" cy="187.1" r="3" fill="#3fb950"/><circle cx="583.3" cy="187.1" r="3" fill="#3fb950"/><circle cx="592.2" cy="187.1" r="3" fill="#3fb950"/><circle cx="601.2" cy="187.1" r="3" fill="#3fb950"/><circle cx="610.2" cy="187.1" r="3" fill="#3fb950"/><circle cx="619.1" cy="187.1" r="3" fill="#3fb950"/><circle cx="628.1" cy="187.1" r="3" fill="#3fb950"/><circle cx="637.1" cy="187.1" r="3" fill="#3fb950"/><circle cx="646.1" cy="187.1" r="3" fill="#3fb950"/><circle cx="655.0" cy="187.1" r="3" fill="#3fb950"/><circle cx="664.0" cy="187.1" r="3" fill="#3fb950"/>
<polyline fill="none" stroke="#4aa3ff" stroke-width="2.5" stroke-linejoin="round" points="36.0,122.2 45.0,122.2 53.9,122.2 62.9,122.2 71.9,122.2 80.9,122.2 89.8,122.2 98.8,122.2 107.8,122.2 116.7,122.2 125.7,122.2 134.7,122.2 143.7,122.2 152.6,122.2 161.6,122.2 170.6,110.7 179.5,105.3 188.5,101.3 197.5,101.3 206.5,89.2 215.4,89.2 224.4,89.2 233.4,79.8 242.3,79.8 251.3,79.8 260.3,75.5 269.3,74.9 278.2,74.9 287.2,74.4 296.2,74.4 305.1,73.5 314.1,71.8 323.1,69.8 332.1,69.2 341.0,69.2 350.0,69.2 359.0,69.2 367.9,69.2 376.9,69.2 385.9,69.2 394.9,69.2 403.8,69.2 412.8,69.2 421.8,78.1 430.7,78.1 439.7,78.1 448.7,78.1 457.7,78.1 466.6,74.6 475.6,66.9 484.6,36.0 493.5,36.0 502.5,39.1 511.5,39.1 520.5,39.1 529.4,39.1 538.4,39.1 547.4,39.4 556.3,39.4 565.3,39.4 574.3,39.7 583.3,39.7 592.2,39.7 601.2,39.7 610.2,39.7 619.1,39.7 628.1,39.7 637.1,39.7 646.1,39.7 655.0,39.7 664.0,39.7"/><circle cx="36.0" cy="122.2" r="3" fill="#4aa3ff"/><circle cx="45.0" cy="122.2" r="3" fill="#4aa3ff"/><circle cx="53.9" cy="122.2" r="3" fill="#4aa3ff"/><circle cx="62.9" cy="122.2" r="3" fill="#4aa3ff"/><circle cx="71.9" cy="122.2" r="3" fill="#4aa3ff"/><circle cx="80.9" cy="122.2" r="3" fill="#4aa3ff"/><circle cx="89.8" cy="122.2" r="3" fill="#4aa3ff"/><circle cx="98.8" cy="122.2" r="3" fill="#4aa3ff"/><circle cx="107.8" cy="122.2" r="3" fill="#4aa3ff"/><circle cx="116.7" cy="122.2" r="3" fill="#4aa3ff"/><circle cx="125.7" cy="122.2" r="3" fill="#4aa3ff"/><circle cx="134.7" cy="122.2" r="3" fill="#4aa3ff"/><circle cx="143.7" cy="122.2" r="3" fill="#4aa3ff"/><circle cx="152.6" cy="122.2" r="3" fill="#4aa3ff"/><circle cx="161.6" cy="122.2" r="3" fill="#4aa3ff"/><circle cx="170.6" cy="110.7" r="3" fill="#4aa3ff"/><circle cx="179.5" cy="105.3" r="3" fill="#4aa3ff"/><circle cx="188.5" cy="101.3" r="3" fill="#4aa3ff"/><circle cx="197.5" cy="101.3" r="3" fill="#4aa3ff"/><circle cx="206.5" cy="89.2" r="3" fill="#4aa3ff"/><circle cx="215.4" cy="89.2" r="3" fill="#4aa3ff"/><circle cx="224.4" cy="89.2" r="3" fill="#4aa3ff"/><circle cx="233.4" cy="79.8" r="3" fill="#4aa3ff"/><circle cx="242.3" cy="79.8" r="3" fill="#4aa3ff"/><circle cx="251.3" cy="79.8" r="3" fill="#4aa3ff"/><circle cx="260.3" cy="75.5" r="3" fill="#4aa3ff"/><circle cx="269.3" cy="74.9" r="3" fill="#4aa3ff"/><circle cx="278.2" cy="74.9" r="3" fill="#4aa3ff"/><circle cx="287.2" cy="74.4" r="3" fill="#4aa3ff"/><circle cx="296.2" cy="74.4" r="3" fill="#4aa3ff"/><circle cx="305.1" cy="73.5" r="3" fill="#4aa3ff"/><circle cx="314.1" cy="71.8" r="3" fill="#4aa3ff"/><circle cx="323.1" cy="69.8" r="3" fill="#4aa3ff"/><circle cx="332.1" cy="69.2" r="3" fill="#4aa3ff"/><circle cx="341.0" cy="69.2" r="3" fill="#4aa3ff"/><circle cx="350.0" cy="69.2" r="3" fill="#4aa3ff"/><circle cx="359.0" cy="69.2" r="3" fill="#4aa3ff"/><circle cx="367.9" cy="69.2" r="3" fill="#4aa3ff"/><circle cx="376.9" cy="69.2" r="3" fill="#4aa3ff"/><circle cx="385.9" cy="69.2" r="3" fill="#4aa3ff"/><circle cx="394.9" cy="69.2" r="3" fill="#4aa3ff"/><circle cx="403.8" cy="69.2" r="3" fill="#4aa3ff"/><circle cx="412.8" cy="69.2" r="3" fill="#4aa3ff"/><circle cx="421.8" cy="78.1" r="3" fill="#4aa3ff"/><circle cx="430.7" cy="78.1" r="3" fill="#4aa3ff"/><circle cx="439.7" cy="78.1" r="3" fill="#4aa3ff"/><circle cx="448.7" cy="78.1" r="3" fill="#4aa3ff"/><circle cx="457.7" cy="78.1" r="3" fill="#4aa3ff"/><circle cx="466.6" cy="74.6" r="3" fill="#4aa3ff"/><circle cx="475.6" cy="66.9" r="3" fill="#4aa3ff"/><circle cx="484.6" cy="36.0" r="3" fill="#4aa3ff"/><circle cx="493.5" cy="36.0" r="3" fill="#4aa3ff"/><circle cx="502.5" cy="39.1" r="3" fill="#4aa3ff"/><circle cx="511.5" cy="39.1" r="3" fill="#4aa3ff"/><circle cx="520.5" cy="39.1" r="3" fill="#4aa3ff"/><circle cx="529.4" cy="39.1" r="3" fill="#4aa3ff"/><circle cx="538.4" cy="39.1" r="3" fill="#4aa3ff"/><circle cx="547.4" cy="39.4" r="3" fill="#4aa3ff"/><circle cx="556.3" cy="39.4" r="3" fill="#4aa3ff"/><circle cx="565.3" cy="39.4" r="3" fill="#4aa3ff"/><circle cx="574.3" cy="39.7" r="3" fill="#4aa3ff"/><circle cx="583.3" cy="39.7" r="3" fill="#4aa3ff"/><circle cx="592.2" cy="39.7" r="3" fill="#4aa3ff"/><circle cx="601.2" cy="39.7" r="3" fill="#4aa3ff"/><circle cx="610.2" cy="39.7" r="3" fill="#4aa3ff"/><circle cx="619.1" cy="39.7" r="3" fill="#4aa3ff"/><circle cx="628.1" cy="39.7" r="3" fill="#4aa3ff"/><circle cx="637.1" cy="39.7" r="3" fill="#4aa3ff"/><circle cx="646.1" cy="39.7" r="3" fill="#4aa3ff"/><circle cx="655.0" cy="39.7" r="3" fill="#4aa3ff"/><circle cx="664.0" cy="39.7" r="3" fill="#4aa3ff"/>
<text x="36" y="225" fill="#6b7280" font-size="11">2026-06-26</text>
<text x="664" y="225" fill="#6b7280" font-size="11" text-anchor="end">2026-07-04</text>
<text x="36" y="212" font-family="system-ui,sans-serif" font-size="11">
<tspan fill="#4aa3ff">&#9679; open FPs</tspan>  <tspan fill="#3fb950">&#9679; closed (Anthropic acting)</tspan>  <tspan fill="#8a5a5a">&#9679; harness withdrawn</tspan></text>
<text x="664" y="22" text-anchor="end" font-family="system-ui,sans-serif" font-size="12">
<tspan fill="#4aa3ff">open 553</tspan>  <tspan fill="#3fb950">closed 38</tspan>  <tspan fill="#8a5a5a">harness 209</tspan></text>
</svg>