<svg xmlns="http://www.w3.org/2000/svg" width="700" height="234" viewBox="0 0 700 234" role="img">
<rect width="700" height="234" rx="12" fill="#16181d"/>
<text x="36" y="22" fill="#e8eaed" font-family="system-ui,sans-serif" font-size="14" font-weight="700">Is Anthropic acting? cyber/aup false positives over time</text>
<line x1="36" y1="198.0" x2="664" y2="198.0" stroke="#2a2e37" stroke-width="1"/><text x="30" y="202.0" fill="#6b7280" font-size="11" text-anchor="end">0</text><line x1="36" y1="117.0" x2="664" y2="117.0" stroke="#2a2e37" stroke-width="1"/><text x="30" y="121.0" fill="#6b7280" font-size="11" text-anchor="end">400</text><line x1="36" y1="36.0" x2="664" y2="36.0" stroke="#2a2e37" stroke-width="1"/><text x="30" y="40.0" fill="#6b7280" font-size="11" text-anchor="end">800</text>

<polyline fill="none" stroke="#8a5a5a" stroke-width="2.5" stroke-linejoin="round" points="36.0,145.1 38.7,145.1 41.5,145.1 44.2,145.1 47.0,145.1 49.7,145.1 52.5,145.1 55.2,145.1 57.9,145.1 60.7,145.1 63.4,145.1 66.2,145.1 68.9,145.1 71.7,145.1 74.4,145.1 77.1,145.1 79.9,145.1 82.6,145.1 85.4,145.1 88.1,145.1 90.8,145.1 93.6,145.1 96.3,145.1 99.1,145.1 101.8,145.1 104.6,145.1 107.3,145.1 110.0,145.1 112.8,145.1 115.5,145.1 118.3,145.1 121.0,145.1 123.8,145.1 126.5,145.1 129.2,145.1 132.0,145.1 134.7,145.1 137.5,145.1 140.2,145.1 143.0,145.1 145.7,145.1 148.4,145.1 151.2,145.1 153.9,145.1 156.7,145.1 159.4,145.1 162.1,145.1 164.9,145.1 167.6,145.1 170.4,145.1 173.1,155.7 175.9,155.7 178.6,155.7 181.3,155.7 184.1,155.7 186.8,155.7 189.6,155.7 192.3,155.7 195.1,155.7 197.8,155.7 200.5,155.7 203.3,155.7 206.0,155.7 208.8,155.7 211.5,155.7 214.3,155.7 217.0,155.7 219.7,155.7 222.5,155.7 225.2,155.7 228.0,155.7 230.7,155.7 233.4,155.7 236.2,155.7 238.9,155.7 241.7,155.7 244.4,155.7 247.2,155.7 249.9,155.7 252.6,155.7 255.4,155.7 258.1,155.7 260.9,155.7 263.6,155.7 266.4,167.6 269.1,167.6 271.8,170.3 274.6,170.3 277.3,170.5 280.1,170.7 282.8,170.7 285.6,170.9 288.3,172.7 291.0,180.6 293.8,181.8 296.5,189.1 299.3,190.5 302.0,195.2 304.8,198.0 307.5,198.0 310.2,198.0 313.0,198.0 315.7,198.0 318.5,198.0 321.2,198.0 323.9,198.0 326.7,198.0 329.4,198.0 332.2,198.0 334.9,198.0 337.7,198.0 340.4,198.0 343.1,198.0 345.9,198.0 348.6,198.0 351.4,198.0 354.1,198.0 356.9,198.0 359.6,198.0 362.3,198.0 365.1,198.0 367.8,198.0 370.6,198.0 373.3,198.0 376.1,198.0 378.8,198.0 381.5,198.0 384.3,198.0 387.0,198.0 389.8,198.0 392.5,198.0 395.2,198.0 398.0,198.0 400.7,198.0 403.5,198.0 406.2,198.0 409.0,198.0 411.7,198.0 414.4,198.0 417.2,198.0 419.9,198.0 422.7,198.0 425.4,198.0 428.2,198.0 430.9,198.0 433.6,198.0 436.4,198.0 439.1,198.0 441.9,198.0 444.6,198.0 447.4,198.0 450.1,198.0 452.8,198.0 455.6,198.0 458.3,198.0 461.1,198.0 463.8,198.0 466.6,198.0 469.3,198.0 472.0,198.0 474.8,198.0 477.5,198.0 480.3,198.0 483.0,198.0 485.7,198.0 488.5,198.0 491.2,198.0 494.0,198.0 496.7,198.0 499.5,198.0 502.2,198.0 504.9,198.0 507.7,198.0 510.4,198.0 513.2,198.0 515.9,198.0 518.7,198.0 521.4,198.0 524.1,198.0 526.9,198.0 529.6,198.0 532.4,198.0 535.1,198.0 537.9,198.0 540.6,198.0 543.3,198.0 546.1,198.0 548.8,198.0 551.6,198.0 554.3,198.0 557.0,198.0 559.8,198.0 562.5,198.0 565.3,198.0 568.0,198.0 570.8,198.0 573.5,198.0 576.2,198.0 579.0,198.0 581.7,198.0 584.5,198.0 587.2,198.0 590.0,198.0 592.7,198.0 595.4,198.0 598.2,198.0 600.9,198.0 603.7,198.0 606.4,198.0 609.2,198.0 611.9,198.0 614.6,198.0 617.4,198.0 620.1,198.0 622.9,198.0 625.6,198.0 628.3,198.0 631.1,198.0 633.8,198.0 636.6,198.0 639.3,198.0 642.1,198.0 644.8,198.0 647.5,198.0 650.3,198.0 653.0,198.0 655.8,198.0 658.5,198.0 661.3,198.0 664.0,198.0"/><circle cx="36.0" cy="145.1" r="3" fill="#8a5a5a"/><circle cx="38.7" cy="145.1" r="3" fill="#8a5a5a"/><circle cx="41.5" cy="145.1" r="3" fill="#8a5a5a"/><circle cx="44.2" cy="145.1" r="3" fill="#8a5a5a"/><circle cx="47.0" cy="145.1" r="3" fill="#8a5a5a"/><circle cx="49.7" cy="145.1" r="3" fill="#8a5a5a"/><circle cx="52.5" cy="145.1" r="3" fill="#8a5a5a"/><circle cx="55.2" cy="145.1" r="3" fill="#8a5a5a"/><circle cx="57.9" cy="145.1" r="3" fill="#8a5a5a"/><circle cx="60.7" cy="145.1" r="3" fill="#8a5a5a"/><circle cx="63.4" cy="145.1" r="3" fill="#8a5a5a"/><circle cx="66.2" cy="145.1" r="3" fill="#8a5a5a"/><circle cx="68.9" cy="145.1" r="3" fill="#8a5a5a"/><circle cx="71.7" cy="145.1" r="3" fill="#8a5a5a"/><circle cx="74.4" cy="145.1" r="3" fill="#8a5a5a"/><circle cx="77.1" cy="145.1" r="3" fill="#8a5a5a"/><circle cx="79.9" cy="145.1" r="3" fill="#8a5a5a"/><circle cx="82.6" cy="145.1" r="3" fill="#8a5a5a"/><circle cx="85.4" cy="145.1" r="3" fill="#8a5a5a"/><circle cx="88.1" cy="145.1" r="3" fill="#8a5a5a"/><circle cx="90.8" cy="145.1" r="3" fill="#8a5a5a"/><circle cx="93.6" cy="145.1" r="3" fill="#8a5a5a"/><circle cx="96.3" cy="145.1" r="3" fill="#8a5a5a"/><circle cx="99.1" cy="145.1" r="3" fill="#8a5a5a"/><circle cx="101.8" cy="145.1" r="3" fill="#8a5a5a"/><circle cx="104.6" cy="145.1" r="3" fill="#8a5a5a"/><circle cx="107.3" cy="145.1" r="3" fill="#8a5a5a"/><circle cx="110.0" cy="145.1" r="3" fill="#8a5a5a"/><circle cx="112.8" cy="145.1" r="3" fill="#8a5a5a"/><circle cx="115.5" cy="145.1" r="3" fill="#8a5a5a"/><circle cx="118.3" cy="145.1" r="3" fill="#8a5a5a"/><circle cx="121.0" cy="145.1" r="3" fill="#8a5a5a"/><circle cx="123.8" cy="145.1" r="3" fill="#8a5a5a"/><circle cx="126.5" cy="145.1" r="3" fill="#8a5a5a"/><circle cx="129.2" cy="145.1" r="3" fill="#8a5a5a"/><circle cx="132.0" cy="145.1" r="3" fill="#8a5a5a"/><circle cx="134.7" cy="145.1" r="3" fill="#8a5a5a"/><circle cx="137.5" cy="145.1" r="3" fill="#8a5a5a"/><circle cx="140.2" cy="145.1" r="3" fill="#8a5a5a"/><circle cx="143.0" cy="145.1" r="3" fill="#8a5a5a"/><circle cx="145.7" cy="145.1" r="3" fill="#8a5a5a"/><circle cx="148.4" cy="145.1" r="3" fill="#8a5a5a"/><circle cx="151.2" cy="145.1" r="3" fill="#8a5a5a"/><circle cx="153.9" cy="145.1" r="3" fill="#8a5a5a"/><circle cx="156.7" cy="145.1" r="3" fill="#8a5a5a"/><circle cx="159.4" cy="145.1" r="3" fill="#8a5a5a"/><circle cx="162.1" cy="145.1" r="3" fill="#8a5a5a"/><circle cx="164.9" cy="145.1" r="3" fill="#8a5a5a"/><circle cx="167.6" cy="145.1" r="3" fill="#8a5a5a"/><circle cx="170.4" cy="145.1" r="3" fill="#8a5a5a"/><circle cx="173.1" cy="155.7" r="3" fill="#8a5a5a"/><circle cx="175.9" cy="155.7" r="3" fill="#8a5a5a"/><circle cx="178.6" cy="155.7" r="3" fill="#8a5a5a"/><circle cx="181.3" cy="155.7" r="3" fill="#8a5a5a"/><circle cx="184.1" cy="155.7" r="3" fill="#8a5a5a"/><circle cx="186.8" cy="155.7" r="3" fill="#8a5a5a"/><circle cx="189.6" cy="155.7" r="3" fill="#8a5a5a"/><circle cx="192.3" cy="155.7" r="3" fill="#8a5a5a"/><circle cx="195.1" cy="155.7" r="3" fill="#8a5a5a"/><circle cx="197.8" cy="155.7" r="3" fill="#8a5a5a"/><circle cx="200.5" cy="155.7" r="3" fill="#8a5a5a"/><circle cx="203.3" cy="155.7" r="3" fill="#8a5a5a"/><circle cx="206.0" cy="155.7" r="3" fill="#8a5a5a"/><circle cx="208.8" cy="155.7" r="3" fill="#8a5a5a"/><circle cx="211.5" cy="155.7" r="3" fill="#8a5a5a"/><circle cx="214.3" cy="155.7" r="3" fill="#8a5a5a"/><circle cx="217.0" cy="155.7" r="3" fill="#8a5a5a"/><circle cx="219.7" cy="155.7" r="3" fill="#8a5a5a"/><circle cx="222.5" cy="155.7" r="3" fill="#8a5a5a"/><circle cx="225.2" cy="155.7" r="3" fill="#8a5a5a"/><circle cx="228.0" cy="155.7" r="3" fill="#8a5a5a"/><circle cx="230.7" cy="155.7" r="3" fill="#8a5a5a"/><circle cx="233.4" cy="155.7" r="3" fill="#8a5a5a"/><circle cx="236.2" cy="155.7" r="3" fill="#8a5a5a"/><circle cx="238.9" cy="155.7" r="3" fill="#8a5a5a"/><circle cx="241.7" cy="155.7" r="3" fill="#8a5a5a"/><circle cx="244.4" cy="155.7" r="3" fill="#8a5a5a"/><circle cx="247.2" cy="155.7" r="3" fill="#8a5a5a"/><circle cx="249.9" cy="155.7" r="3" fill="#8a5a5a"/><circle cx="252.6" cy="155.7" r="3" fill="#8a5a5a"/><circle cx="255.4" cy="155.7" r="3" fill="#8a5a5a"/><circle cx="258.1" cy="155.7" r="3" fill="#8a5a5a"/><circle cx="260.9" cy="155.7" r="3" fill="#8a5a5a"/><circle cx="263.6" cy="155.7" r="3" fill="#8a5a5a"/><circle cx="266.4" cy="167.6" r="3" fill="#8a5a5a"/><circle cx="269.1" cy="167.6" r="3" fill="#8a5a5a"/><circle cx="271.8" cy="170.3" r="3" fill="#8a5a5a"/><circle cx="274.6" cy="170.3" r="3" fill="#8a5a5a"/><circle cx="277.3" cy="170.5" r="3" fill="#8a5a5a"/><circle cx="280.1" cy="170.7" r="3" fill="#8a5a5a"/><circle cx="282.8" cy="170.7" r="3" fill="#8a5a5a"/><circle cx="285.6" cy="170.9" r="3" fill="#8a5a5a"/><circle cx="288.3" cy="172.7" r="3" fill="#8a5a5a"/><circle cx="291.0" cy="180.6" r="3" fill="#8a5a5a"/><circle cx="293.8" cy="181.8" r="3" fill="#8a5a5a"/><circle cx="296.5" cy="189.1" r="3" fill="#8a5a5a"/><circle cx="299.3" cy="190.5" r="3" fill="#8a5a5a"/><circle cx="302.0" cy="195.2" r="3" fill="#8a5a5a"/><circle cx="304.8" cy="198.0" r="3" fill="#8a5a5a"/><circle cx="307.5" cy="198.0" r="3" fill="#8a5a5a"/><circle cx="310.2" cy="198.0" r="3" fill="#8a5a5a"/><circle cx="313.0" cy="198.0" r="3" fill="#8a5a5a"/><circle cx="315.7" cy="198.0" r="3" fill="#8a5a5a"/><circle cx="318.5" cy="198.0" r="3" fill="#8a5a5a"/><circle cx="321.2" cy="198.0" r="3" fill="#8a5a5a"/><circle cx="323.9" cy="198.0" r="3" fill="#8a5a5a"/><circle cx="326.7" cy="198.0" r="3" fill="#8a5a5a"/><circle cx="329.4" cy="198.0" r="3" fill="#8a5a5a"/><circle cx="332.2" cy="198.0" r="3" fill="#8a5a5a"/><circle cx="334.9" cy="198.0" r="3" fill="#8a5a5a"/><circle cx="337.7" cy="198.0" r="3" fill="#8a5a5a"/><circle cx="340.4" cy="198.0" r="3" fill="#8a5a5a"/><circle cx="343.1" cy="198.0" r="3" fill="#8a5a5a"/><circle cx="345.9" cy="198.0" r="3" fill="#8a5a5a"/><circle cx="348.6" cy="198.0" r="3" fill="#8a5a5a"/><circle cx="351.4" cy="198.0" r="3" fill="#8a5a5a"/><circle cx="354.1" cy="198.0" r="3" fill="#8a5a5a"/><circle cx="356.9" cy="198.0" r="3" fill="#8a5a5a"/><circle cx="359.6" cy="198.0" r="3" fill="#8a5a5a"/><circle cx="362.3" cy="198.0" r="3" fill="#8a5a5a"/><circle cx="365.1" cy="198.0" r="3" fill="#8a5a5a"/><circle cx="367.8" cy="198.0" r="3" fill="#8a5a5a"/><circle cx="370.6" cy="198.0" r="3" fill="#8a5a5a"/><circle cx="373.3" cy="198.0" r="3" fill="#8a5a5a"/><circle cx="376.1" cy="198.0" r="3" fill="#8a5a5a"/><circle cx="378.8" cy="198.0" r="3" fill="#8a5a5a"/><circle cx="381.5" cy="198.0" r="3" fill="#8a5a5a"/><circle cx="384.3" cy="198.0" r="3" fill="#8a5a5a"/><circle cx="387.0" cy="198.0" r="3" fill="#8a5a5a"/><circle cx="389.8" cy="198.0" r="3" fill="#8a5a5a"/><circle cx="392.5" cy="198.0" r="3" fill="#8a5a5a"/><circle cx="395.2" cy="198.0" r="3" fill="#8a5a5a"/><circle cx="398.0" cy="198.0" r="3" fill="#8a5a5a"/><circle cx="400.7" cy="198.0" r="3" fill="#8a5a5a"/><circle cx="403.5" cy="198.0" r="3" fill="#8a5a5a"/><circle cx="406.2" cy="198.0" r="3" fill="#8a5a5a"/><circle cx="409.0" cy="198.0" r="3" fill="#8a5a5a"/><circle cx="411.7" cy="198.0" r="3" fill="#8a5a5a"/><circle cx="414.4" cy="198.0" r="3" fill="#8a5a5a"/><circle cx="417.2" cy="198.0" r="3" fill="#8a5a5a"/><circle cx="419.9" cy="198.0" r="3" fill="#8a5a5a"/><circle cx="422.7" cy="198.0" r="3" fill="#8a5a5a"/><circle cx="425.4" cy="198.0" r="3" fill="#8a5a5a"/><circle cx="428.2" cy="198.0" r="3" fill="#8a5a5a"/><circle cx="430.9" cy="198.0" r="3" fill="#8a5a5a"/><circle cx="433.6" cy="198.0" r="3" fill="#8a5a5a"/><circle cx="436.4" cy="198.0" r="3" fill="#8a5a5a"/><circle cx="439.1" cy="198.0" r="3" fill="#8a5a5a"/><circle cx="441.9" cy="198.0" r="3" fill="#8a5a5a"/><circle cx="444.6" cy="198.0" r="3" fill="#8a5a5a"/><circle cx="447.4" cy="198.0" r="3" fill="#8a5a5a"/><circle cx="450.1" cy="198.0" r="3" fill="#8a5a5a"/><circle cx="452.8" cy="198.0" r="3" fill="#8a5a5a"/><circle cx="455.6" cy="198.0" r="3" fill="#8a5a5a"/><circle cx="458.3" cy="198.0" r="3" fill="#8a5a5a"/><circle cx="461.1" cy="198.0" r="3" fill="#8a5a5a"/><circle cx="463.8" cy="198.0" r="3" fill="#8a5a5a"/><circle cx="466.6" cy="198.0" r="3" fill="#8a5a5a"/><circle cx="469.3" cy="198.0" r="3" fill="#8a5a5a"/><circle cx="472.0" cy="198.0" r="3" fill="#8a5a5a"/><circle cx="474.8" cy="198.0" r="3" fill="#8a5a5a"/><circle cx="477.5" cy="198.0" r="3" fill="#8a5a5a"/><circle cx="480.3" cy="198.0" r="3" fill="#8a5a5a"/><circle cx="483.0" cy="198.0" r="3" fill="#8a5a5a"/><circle cx="485.7" cy="198.0" r="3" fill="#8a5a5a"/><circle cx="488.5" cy="198.0" r="3" fill="#8a5a5a"/><circle cx="491.2" cy="198.0" r="3" fill="#8a5a5a"/><circle cx="494.0" cy="198.0" r="3" fill="#8a5a5a"/><circle cx="496.7" cy="198.0" r="3" fill="#8a5a5a"/><circle cx="499.5" cy="198.0" r="3" fill="#8a5a5a"/><circle cx="502.2" cy="198.0" r="3" fill="#8a5a5a"/><circle cx="504.9" cy="198.0" r="3" fill="#8a5a5a"/><circle cx="507.7" cy="198.0" r="3" fill="#8a5a5a"/><circle cx="510.4" cy="198.0" r="3" fill="#8a5a5a"/><circle cx="513.2" cy="198.0" r="3" fill="#8a5a5a"/><circle cx="515.9" cy="198.0" r="3" fill="#8a5a5a"/><circle cx="518.7" cy="198.0" r="3" fill="#8a5a5a"/><circle cx="521.4" cy="198.0" r="3" fill="#8a5a5a"/><circle cx="524.1" cy="198.0" r="3" fill="#8a5a5a"/><circle cx="526.9" cy="198.0" r="3" fill="#8a5a5a"/><circle cx="529.6" cy="198.0" r="3" fill="#8a5a5a"/><circle cx="532.4" cy="198.0" r="3" fill="#8a5a5a"/><circle cx="535.1" cy="198.0" r="3" fill="#8a5a5a"/><circle cx="537.9" cy="198.0" r="3" fill="#8a5a5a"/><circle cx="540.6" cy="198.0" r="3" fill="#8a5a5a"/><circle cx="543.3" cy="198.0" r="3" fill="#8a5a5a"/><circle cx="546.1" cy="198.0" r="3" fill="#8a5a5a"/><circle cx="548.8" cy="198.0" r="3" fill="#8a5a5a"/><circle cx="551.6" cy="198.0" r="3" fill="#8a5a5a"/><circle cx="554.3" cy="198.0" r="3" fill="#8a5a5a"/><circle cx="557.0" cy="198.0" r="3" fill="#8a5a5a"/><circle cx="559.8" cy="198.0" r="3" fill="#8a5a5a"/><circle cx="562.5" cy="198.0" r="3" fill="#8a5a5a"/><circle cx="565.3" cy="198.0" r="3" fill="#8a5a5a"/><circle cx="568.0" cy="198.0" r="3" fill="#8a5a5a"/><circle cx="570.8" cy="198.0" r="3" fill="#8a5a5a"/><circle cx="573.5" cy="198.0" r="3" fill="#8a5a5a"/><circle cx="576.2" cy="198.0" r="3" fill="#8a5a5a"/><circle cx="579.0" cy="198.0" r="3" fill="#8a5a5a"/><circle cx="581.7" cy="198.0" r="3" fill="#8a5a5a"/><circle cx="584.5" cy="198.0" r="3" fill="#8a5a5a"/><circle cx="587.2" cy="198.0" r="3" fill="#8a5a5a"/><circle cx="590.0" cy="198.0" r="3" fill="#8a5a5a"/><circle cx="592.7" cy="198.0" r="3" fill="#8a5a5a"/><circle cx="595.4" cy="198.0" r="3" fill="#8a5a5a"/><circle cx="598.2" cy="198.0" r="3" fill="#8a5a5a"/><circle cx="600.9" cy="198.0" r="3" fill="#8a5a5a"/><circle cx="603.7" cy="198.0" r="3" fill="#8a5a5a"/><circle cx="606.4" cy="198.0" r="3" fill="#8a5a5a"/><circle cx="609.2" cy="198.0" r="3" fill="#8a5a5a"/><circle cx="611.9" cy="198.0" r="3" fill="#8a5a5a"/><circle cx="614.6" cy="198.0" r="3" fill="#8a5a5a"/><circle cx="617.4" cy="198.0" r="3" fill="#8a5a5a"/><circle cx="620.1" cy="198.0" r="3" fill="#8a5a5a"/><circle cx="622.9" cy="198.0" r="3" fill="#8a5a5a"/><circle cx="625.6" cy="198.0" r="3" fill="#8a5a5a"/><circle cx="628.3" cy="198.0" r="3" fill="#8a5a5a"/><circle cx="631.1" cy="198.0" r="3" fill="#8a5a5a"/><circle cx="633.8" cy="198.0" r="3" fill="#8a5a5a"/><circle cx="636.6" cy="198.0" r="3" fill="#8a5a5a"/><circle cx="639.3" cy="198.0" r="3" fill="#8a5a5a"/><circle cx="642.1" cy="198.0" r="3" fill="#8a5a5a"/><circle cx="644.8" cy="198.0" r="3" fill="#8a5a5a"/><circle cx="647.5" cy="198.0" r="3" fill="#8a5a5a"/><circle cx="650.3" cy="198.0" r="3" fill="#8a5a5a"/><circle cx="653.0" cy="198.0" r="3" fill="#8a5a5a"/><circle cx="655.8" cy="198.0" r="3" fill="#8a5a5a"/><circle cx="658.5" cy="198.0" r="3" fill="#8a5a5a"/><circle cx="661.3" cy="198.0" r="3" fill="#8a5a5a"/><circle cx="664.0" cy="198.0" r="3" fill="#8a5a5a"/>
<polyline fill="none" stroke="#3fb950" stroke-width="2.5" stroke-linejoin="round" points="36.0,198.0 38.7,198.0 41.5,198.0 44.2,198.0 47.0,198.0 49.7,198.0 52.5,198.0 55.2,198.0 57.9,198.0 60.7,198.0 63.4,198.0 66.2,198.0 68.9,198.0 71.7,198.0 74.4,198.0 77.1,198.0 79.9,198.0 82.6,198.0 85.4,198.0 88.1,198.0 90.8,198.0 93.6,198.0 96.3,198.0 99.1,198.0 101.8,198.0 104.6,198.0 107.3,198.0 110.0,198.0 112.8,198.0 115.5,198.0 118.3,198.0 121.0,198.0 123.8,198.0 126.5,198.0 129.2,198.0 132.0,198.0 134.7,198.0 137.5,198.0 140.2,198.0 143.0,198.0 145.7,198.0 148.4,198.0 151.2,198.0 153.9,191.7 156.7,191.7 159.4,191.7 162.1,191.7 164.9,191.7 167.6,191.7 170.4,191.7 173.1,192.9 175.9,192.9 178.6,190.7 181.3,190.7 184.1,190.7 186.8,190.7 189.6,190.7 192.3,190.5 195.1,190.5 197.8,190.5 200.5,190.3 203.3,190.3 206.0,190.3 208.8,190.3 211.5,190.3 214.3,190.3 217.0,190.3 219.7,190.3 222.5,190.3 225.2,190.3 228.0,190.3 230.7,190.3 233.4,190.3 236.2,190.3 238.9,190.3 241.7,190.3 244.4,190.3 247.2,190.3 249.9,190.3 252.6,190.3 255.4,190.3 258.1,189.3 260.9,189.3 263.6,189.3 266.4,190.7 269.1,190.7 271.8,190.7 274.6,190.7 277.3,190.7 280.1,190.7 282.8,190.7 285.6,190.7 288.3,190.7 291.0,190.9 293.8,190.9 296.5,190.9 299.3,194.2 302.0,196.8 304.8,198.0 307.5,198.0 310.2,198.0 313.0,198.0 315.7,198.0 318.5,198.0 321.2,198.0 323.9,198.0 326.7,198.0 329.4,198.0 332.2,198.0 334.9,198.0 337.7,198.0 340.4,198.0 343.1,198.0 345.9,198.0 348.6,198.0 351.4,198.0 354.1,198.0 356.9,198.0 359.6,198.0 362.3,198.0 365.1,198.0 367.8,198.0 370.6,198.0 373.3,198.0 376.1,198.0 378.8,198.0 381.5,198.0 384.3,198.0 387.0,198.0 389.8,198.0 392.5,198.0 395.2,198.0 398.0,198.0 400.7,198.0 403.5,198.0 406.2,198.0 409.0,198.0 411.7,198.0 414.4,198.0 417.2,198.0 419.9,198.0 422.7,198.0 425.4,198.0 428.2,198.0 430.9,198.0 433.6,198.0 436.4,198.0 439.1,198.0 441.9,198.0 444.6,198.0 447.4,198.0 450.1,198.0 452.8,198.0 455.6,198.0 458.3,198.0 461.1,198.0 463.8,198.0 466.6,198.0 469.3,198.0 472.0,198.0 474.8,198.0 477.5,198.0 480.3,198.0 483.0,198.0 485.7,198.0 488.5,198.0 491.2,198.0 494.0,198.0 496.7,198.0 499.5,198.0 502.2,198.0 504.9,198.0 507.7,198.0 510.4,198.0 513.2,198.0 515.9,198.0 518.7,198.0 521.4,198.0 524.1,198.0 526.9,198.0 529.6,198.0 532.4,198.0 535.1,198.0 537.9,198.0 540.6,198.0 543.3,198.0 546.1,198.0 548.8,198.0 551.6,198.0 554.3,198.0 557.0,198.0 559.8,198.0 562.5,198.0 565.3,198.0 568.0,198.0 570.8,198.0 573.5,198.0 576.2,198.0 579.0,198.0 581.7,198.0 584.5,198.0 587.2,198.0 590.0,198.0 592.7,198.0 595.4,198.0 598.2,198.0 600.9,198.0 603.7,198.0 606.4,198.0 609.2,198.0 611.9,198.0 614.6,198.0 617.4,198.0 620.1,198.0 622.9,198.0 625.6,198.0 628.3,198.0 631.1,198.0 633.8,198.0 636.6,198.0 639.3,198.0 642.1,198.0 644.8,198.0 647.5,198.0 650.3,198.0 653.0,198.0 655.8,198.0 658.5,198.0 661.3,198.0 664.0,198.0"/><circle cx="36.0" cy="198.0" r="3" fill="#3fb950"/><circle cx="38.7" cy="198.0" r="3" fill="#3fb950"/><circle cx="41.5" cy="198.0" r="3" fill="#3fb950"/><circle cx="44.2" cy="198.0" r="3" fill="#3fb950"/><circle cx="47.0" cy="198.0" r="3" fill="#3fb950"/><circle cx="49.7" cy="198.0" r="3" fill="#3fb950"/><circle cx="52.5" cy="198.0" r="3" fill="#3fb950"/><circle cx="55.2" cy="198.0" r="3" fill="#3fb950"/><circle cx="57.9" cy="198.0" r="3" fill="#3fb950"/><circle cx="60.7" cy="198.0" r="3" fill="#3fb950"/><circle cx="63.4" cy="198.0" r="3" fill="#3fb950"/><circle cx="66.2" cy="198.0" r="3" fill="#3fb950"/><circle cx="68.9" cy="198.0" r="3" fill="#3fb950"/><circle cx="71.7" cy="198.0" r="3" fill="#3fb950"/><circle cx="74.4" cy="198.0" r="3" fill="#3fb950"/><circle cx="77.1" cy="198.0" r="3" fill="#3fb950"/><circle cx="79.9" cy="198.0" r="3" fill="#3fb950"/><circle cx="82.6" cy="198.0" r="3" fill="#3fb950"/><circle cx="85.4" cy="198.0" r="3" fill="#3fb950"/><circle cx="88.1" cy="198.0" r="3" fill="#3fb950"/><circle cx="90.8" cy="198.0" r="3" fill="#3fb950"/><circle cx="93.6" cy="198.0" r="3" fill="#3fb950"/><circle cx="96.3" cy="198.0" r="3" fill="#3fb950"/><circle cx="99.1" cy="198.0" r="3" fill="#3fb950"/><circle cx="101.8" cy="198.0" r="3" fill="#3fb950"/><circle cx="104.6" cy="198.0" r="3" fill="#3fb950"/><circle cx="107.3" cy="198.0" r="3" fill="#3fb950"/><circle cx="110.0" cy="198.0" r="3" fill="#3fb950"/><circle cx="112.8" cy="198.0" r="3" fill="#3fb950"/><circle cx="115.5" cy="198.0" r="3" fill="#3fb950"/><circle cx="118.3" cy="198.0" r="3" fill="#3fb950"/><circle cx="121.0" cy="198.0" r="3" fill="#3fb950"/><circle cx="123.8" cy="198.0" r="3" fill="#3fb950"/><circle cx="126.5" cy="198.0" r="3" fill="#3fb950"/><circle cx="129.2" cy="198.0" r="3" fill="#3fb950"/><circle cx="132.0" cy="198.0" r="3" fill="#3fb950"/><circle cx="134.7" cy="198.0" r="3" fill="#3fb950"/><circle cx="137.5" cy="198.0" r="3" fill="#3fb950"/><circle cx="140.2" cy="198.0" r="3" fill="#3fb950"/><circle cx="143.0" cy="198.0" r="3" fill="#3fb950"/><circle cx="145.7" cy="198.0" r="3" fill="#3fb950"/><circle cx="148.4" cy="198.0" r="3" fill="#3fb950"/><circle cx="151.2" cy="198.0" r="3" fill="#3fb950"/><circle cx="153.9" cy="191.7" r="3" fill="#3fb950"/><circle cx="156.7" cy="191.7" r="3" fill="#3fb950"/><circle cx="159.4" cy="191.7" r="3" fill="#3fb950"/><circle cx="162.1" cy="191.7" r="3" fill="#3fb950"/><circle cx="164.9" cy="191.7" r="3" fill="#3fb950"/><circle cx="167.6" cy="191.7" r="3" fill="#3fb950"/><circle cx="170.4" cy="191.7" r="3" fill="#3fb950"/><circle cx="173.1" cy="192.9" r="3" fill="#3fb950"/><circle cx="175.9" cy="192.9" r="3" fill="#3fb950"/><circle cx="178.6" cy="190.7" r="3" fill="#3fb950"/><circle cx="181.3" cy="190.7" r="3" fill="#3fb950"/><circle cx="184.1" cy="190.7" r="3" fill="#3fb950"/><circle cx="186.8" cy="190.7" r="3" fill="#3fb950"/><circle cx="189.6" cy="190.7" r="3" fill="#3fb950"/><circle cx="192.3" cy="190.5" r="3" fill="#3fb950"/><circle cx="195.1" cy="190.5" r="3" fill="#3fb950"/><circle cx="197.8" cy="190.5" r="3" fill="#3fb950"/><circle cx="200.5" cy="190.3" r="3" fill="#3fb950"/><circle cx="203.3" cy="190.3" r="3" fill="#3fb950"/><circle cx="206.0" cy="190.3" r="3" fill="#3fb950"/><circle cx="208.8" cy="190.3" r="3" fill="#3fb950"/><circle cx="211.5" cy="190.3" r="3" fill="#3fb950"/><circle cx="214.3" cy="190.3" r="3" fill="#3fb950"/><circle cx="217.0" cy="190.3" r="3" fill="#3fb950"/><circle cx="219.7" cy="190.3" r="3" fill="#3fb950"/><circle cx="222.5" cy="190.3" r="3" fill="#3fb950"/><circle cx="225.2" cy="190.3" r="3" fill="#3fb950"/><circle cx="228.0" cy="190.3" r="3" fill="#3fb950"/><circle cx="230.7" cy="190.3" r="3" fill="#3fb950"/><circle cx="233.4" cy="190.3" r="3" fill="#3fb950"/><circle cx="236.2" cy="190.3" r="3" fill="#3fb950"/><circle cx="238.9" cy="190.3" r="3" fill="#3fb950"/><circle cx="241.7" cy="190.3" r="3" fill="#3fb950"/><circle cx="244.4" cy="190.3" r="3" fill="#3fb950"/><circle cx="247.2" cy="190.3" r="3" fill="#3fb950"/><circle cx="249.9" cy="190.3" r="3" fill="#3fb950"/><circle cx="252.6" cy="190.3" r="3" fill="#3fb950"/><circle cx="255.4" cy="190.3" r="3" fill="#3fb950"/><circle cx="258.1" cy="189.3" r="3" fill="#3fb950"/><circle cx="260.9" cy="189.3" r="3" fill="#3fb950"/><circle cx="263.6" cy="189.3" r="3" fill="#3fb950"/><circle cx="266.4" cy="190.7" r="3" fill="#3fb950"/><circle cx="269.1" cy="190.7" r="3" fill="#3fb950"/><circle cx="271.8" cy="190.7" r="3" fill="#3fb950"/><circle cx="274.6" cy="190.7" r="3" fill="#3fb950"/><circle cx="277.3" cy="190.7" r="3" fill="#3fb950"/><circle cx="280.1" cy="190.7" r="3" fill="#3fb950"/><circle cx="282.8" cy="190.7" r="3" fill="#3fb950"/><circle cx="285.6" cy="190.7" r="3" fill="#3fb950"/><circle cx="288.3" cy="190.7" r="3" fill="#3fb950"/><circle cx="291.0" cy="190.9" r="3" fill="#3fb950"/><circle cx="293.8" cy="190.9" r="3" fill="#3fb950"/><circle cx="296.5" cy="190.9" r="3" fill="#3fb950"/><circle cx="299.3" cy="194.2" r="3" fill="#3fb950"/><circle cx="302.0" cy="196.8" r="3" fill="#3fb950"/><circle cx="304.8" cy="198.0" r="3" fill="#3fb950"/><circle cx="307.5" cy="198.0" r="3" fill="#3fb950"/><circle cx="310.2" cy="198.0" r="3" fill="#3fb950"/><circle cx="313.0" cy="198.0" r="3" fill="#3fb950"/><circle cx="315.7" cy="198.0" r="3" fill="#3fb950"/><circle cx="318.5" cy="198.0" r="3" fill="#3fb950"/><circle cx="321.2" cy="198.0" r="3" fill="#3fb950"/><circle cx="323.9" cy="198.0" r="3" fill="#3fb950"/><circle cx="326.7" cy="198.0" r="3" fill="#3fb950"/><circle cx="329.4" cy="198.0" r="3" fill="#3fb950"/><circle cx="332.2" cy="198.0" r="3" fill="#3fb950"/><circle cx="334.9" cy="198.0" r="3" fill="#3fb950"/><circle cx="337.7" cy="198.0" r="3" fill="#3fb950"/><circle cx="340.4" cy="198.0" r="3" fill="#3fb950"/><circle cx="343.1" cy="198.0" r="3" fill="#3fb950"/><circle cx="345.9" cy="198.0" r="3" fill="#3fb950"/><circle cx="348.6" cy="198.0" r="3" fill="#3fb950"/><circle cx="351.4" cy="198.0" r="3" fill="#3fb950"/><circle cx="354.1" cy="198.0" r="3" fill="#3fb950"/><circle cx="356.9" cy="198.0" r="3" fill="#3fb950"/><circle cx="359.6" cy="198.0" r="3" fill="#3fb950"/><circle cx="362.3" cy="198.0" r="3" fill="#3fb950"/><circle cx="365.1" cy="198.0" r="3" fill="#3fb950"/><circle cx="367.8" cy="198.0" r="3" fill="#3fb950"/><circle cx="370.6" cy="198.0" r="3" fill="#3fb950"/><circle cx="373.3" cy="198.0" r="3" fill="#3fb950"/><circle cx="376.1" cy="198.0" r="3" fill="#3fb950"/><circle cx="378.8" cy="198.0" r="3" fill="#3fb950"/><circle cx="381.5" cy="198.0" r="3" fill="#3fb950"/><circle cx="384.3" cy="198.0" r="3" fill="#3fb950"/><circle cx="387.0" cy="198.0" r="3" fill="#3fb950"/><circle cx="389.8" cy="198.0" r="3" fill="#3fb950"/><circle cx="392.5" cy="198.0" r="3" fill="#3fb950"/><circle cx="395.2" cy="198.0" r="3" fill="#3fb950"/><circle cx="398.0" cy="198.0" r="3" fill="#3fb950"/><circle cx="400.7" cy="198.0" r="3" fill="#3fb950"/><circle cx="403.5" cy="198.0" r="3" fill="#3fb950"/><circle cx="406.2" cy="198.0" r="3" fill="#3fb950"/><circle cx="409.0" cy="198.0" r="3" fill="#3fb950"/><circle cx="411.7" cy="198.0" r="3" fill="#3fb950"/><circle cx="414.4" cy="198.0" r="3" fill="#3fb950"/><circle cx="417.2" cy="198.0" r="3" fill="#3fb950"/><circle cx="419.9" cy="198.0" r="3" fill="#3fb950"/><circle cx="422.7" cy="198.0" r="3" fill="#3fb950"/><circle cx="425.4" cy="198.0" r="3" fill="#3fb950"/><circle cx="428.2" cy="198.0" r="3" fill="#3fb950"/><circle cx="430.9" cy="198.0" r="3" fill="#3fb950"/><circle cx="433.6" cy="198.0" r="3" fill="#3fb950"/><circle cx="436.4" cy="198.0" r="3" fill="#3fb950"/><circle cx="439.1" cy="198.0" r="3" fill="#3fb950"/><circle cx="441.9" cy="198.0" r="3" fill="#3fb950"/><circle cx="444.6" cy="198.0" r="3" fill="#3fb950"/><circle cx="447.4" cy="198.0" r="3" fill="#3fb950"/><circle cx="450.1" cy="198.0" r="3" fill="#3fb950"/><circle cx="452.8" cy="198.0" r="3" fill="#3fb950"/><circle cx="455.6" cy="198.0" r="3" fill="#3fb950"/><circle cx="458.3" cy="198.0" r="3" fill="#3fb950"/><circle cx="461.1" cy="198.0" r="3" fill="#3fb950"/><circle cx="463.8" cy="198.0" r="3" fill="#3fb950"/><circle cx="466.6" cy="198.0" r="3" fill="#3fb950"/><circle cx="469.3" cy="198.0" r="3" fill="#3fb950"/><circle cx="472.0" cy="198.0" r="3" fill="#3fb950"/><circle cx="474.8" cy="198.0" r="3" fill="#3fb950"/><circle cx="477.5" cy="198.0" r="3" fill="#3fb950"/><circle cx="480.3" cy="198.0" r="3" fill="#3fb950"/><circle cx="483.0" cy="198.0" r="3" fill="#3fb950"/><circle cx="485.7" cy="198.0" r="3" fill="#3fb950"/><circle cx="488.5" cy="198.0" r="3" fill="#3fb950"/><circle cx="491.2" cy="198.0" r="3" fill="#3fb950"/><circle cx="494.0" cy="198.0" r="3" fill="#3fb950"/><circle cx="496.7" cy="198.0" r="3" fill="#3fb950"/><circle cx="499.5" cy="198.0" r="3" fill="#3fb950"/><circle cx="502.2" cy="198.0" r="3" fill="#3fb950"/><circle cx="504.9" cy="198.0" r="3" fill="#3fb950"/><circle cx="507.7" cy="198.0" r="3" fill="#3fb950"/><circle cx="510.4" cy="198.0" r="3" fill="#3fb950"/><circle cx="513.2" cy="198.0" r="3" fill="#3fb950"/><circle cx="515.9" cy="198.0" r="3" fill="#3fb950"/><circle cx="518.7" cy="198.0" r="3" fill="#3fb950"/><circle cx="521.4" cy="198.0" r="3" fill="#3fb950"/><circle cx="524.1" cy="198.0" r="3" fill="#3fb950"/><circle cx="526.9" cy="198.0" r="3" fill="#3fb950"/><circle cx="529.6" cy="198.0" r="3" fill="#3fb950"/><circle cx="532.4" cy="198.0" r="3" fill="#3fb950"/><circle cx="535.1" cy="198.0" r="3" fill="#3fb950"/><circle cx="537.9" cy="198.0" r="3" fill="#3fb950"/><circle cx="540.6" cy="198.0" r="3" fill="#3fb950"/><circle cx="543.3" cy="198.0" r="3" fill="#3fb950"/><circle cx="546.1" cy="198.0" r="3" fill="#3fb950"/><circle cx="548.8" cy="198.0" r="3" fill="#3fb950"/><circle cx="551.6" cy="198.0" r="3" fill="#3fb950"/><circle cx="554.3" cy="198.0" r="3" fill="#3fb950"/><circle cx="557.0" cy="198.0" r="3" fill="#3fb950"/><circle cx="559.8" cy="198.0" r="3" fill="#3fb950"/><circle cx="562.5" cy="198.0" r="3" fill="#3fb950"/><circle cx="565.3" cy="198.0" r="3" fill="#3fb950"/><circle cx="568.0" cy="198.0" r="3" fill="#3fb950"/><circle cx="570.8" cy="198.0" r="3" fill="#3fb950"/><circle cx="573.5" cy="198.0" r="3" fill="#3fb950"/><circle cx="576.2" cy="198.0" r="3" fill="#3fb950"/><circle cx="579.0" cy="198.0" r="3" fill="#3fb950"/><circle cx="581.7" cy="198.0" r="3" fill="#3fb950"/><circle cx="584.5" cy="198.0" r="3" fill="#3fb950"/><circle cx="587.2" cy="198.0" r="3" fill="#3fb950"/><circle cx="590.0" cy="198.0" r="3" fill="#3fb950"/><circle cx="592.7" cy="198.0" r="3" fill="#3fb950"/><circle cx="595.4" cy="198.0" r="3" fill="#3fb950"/><circle cx="598.2" cy="198.0" r="3" fill="#3fb950"/><circle cx="600.9" cy="198.0" r="3" fill="#3fb950"/><circle cx="603.7" cy="198.0" r="3" fill="#3fb950"/><circle cx="606.4" cy="198.0" r="3" fill="#3fb950"/><circle cx="609.2" cy="198.0" r="3" fill="#3fb950"/><circle cx="611.9" cy="198.0" r="3" fill="#3fb950"/><circle cx="614.6" cy="198.0" r="3" fill="#3fb950"/><circle cx="617.4" cy="198.0" r="3" fill="#3fb950"/><circle cx="620.1" cy="198.0" r="3" fill="#3fb950"/><circle cx="622.9" cy="198.0" r="3" fill="#3fb950"/><circle cx="625.6" cy="198.0" r="3" fill="#3fb950"/><circle cx="628.3" cy="198.0" r="3" fill="#3fb950"/><circle cx="631.1" cy="198.0" r="3" fill="#3fb950"/><circle cx="633.8" cy="198.0" r="3" fill="#3fb950"/><circle cx="636.6" cy="198.0" r="3" fill="#3fb950"/><circle cx="639.3" cy="198.0" r="3" fill="#3fb950"/><circle cx="642.1" cy="198.0" r="3" fill="#3fb950"/><circle cx="644.8" cy="198.0" r="3" fill="#3fb950"/><circle cx="647.5" cy="198.0" r="3" fill="#3fb950"/><circle cx="650.3" cy="198.0" r="3" fill="#3fb950"/><circle cx="653.0" cy="198.0" r="3" fill="#3fb950"/><circle cx="655.8" cy="198.0" r="3" fill="#3fb950"/><circle cx="658.5" cy="198.0" r="3" fill="#3fb950"/><circle cx="661.3" cy="198.0" r="3" fill="#3fb950"/><circle cx="664.0" cy="198.0" r="3" fill="#3fb950"/>
<polyline fill="none" stroke="#4aa3ff" stroke-width="2.5" stroke-linejoin="round" points="36.0,144.3 38.7,144.3 41.5,144.3 44.2,144.3 47.0,144.3 49.7,144.3 52.5,144.3 55.2,144.3 57.9,144.3 60.7,144.3 63.4,144.3 66.2,144.3 68.9,144.3 71.7,144.3 74.4,144.3 77.1,136.2 79.9,132.4 82.6,129.6 85.4,129.6 88.1,121.0 90.8,121.0 93.6,121.0 96.3,114.4 99.1,114.4 101.8,114.4 104.6,111.3 107.3,110.9 110.0,110.9 112.8,110.5 115.5,110.5 118.3,109.9 121.0,108.7 123.8,107.3 126.5,106.9 129.2,106.9 132.0,106.9 134.7,106.9 137.5,106.9 140.2,106.9 143.0,106.9 145.7,106.9 148.4,106.9 151.2,106.9 153.9,113.2 156.7,113.2 159.4,113.2 162.1,113.2 164.9,113.2 167.6,110.7 170.4,105.3 173.1,83.4 175.9,83.4 178.6,85.6 181.3,85.6 184.1,85.6 186.8,85.6 189.6,85.6 192.3,85.8 195.1,85.8 197.8,85.8 200.5,86.0 203.3,86.0 206.0,86.0 208.8,86.0 211.5,86.0 214.3,86.0 217.0,86.0 219.7,86.0 222.5,86.0 225.2,86.0 228.0,86.0 230.7,86.0 233.4,86.0 236.2,86.0 238.9,86.0 241.7,86.0 244.4,86.0 247.2,86.0 249.9,86.0 252.6,86.0 255.4,86.0 258.1,87.0 260.9,87.0 263.6,87.0 266.4,73.7 269.1,73.7 271.8,71.0 274.6,71.0 277.3,70.8 280.1,70.6 282.8,70.6 285.6,70.4 288.3,68.6 291.0,60.5 293.8,59.3 296.5,52.0 299.3,47.3 302.0,40.1 304.8,36.0 307.5,36.0 310.2,36.0 313.0,36.0 315.7,36.0 318.5,36.0 321.2,36.0 323.9,36.0 326.7,36.0 329.4,36.0 332.2,36.0 334.9,36.0 337.7,36.0 340.4,36.0 343.1,36.0 345.9,36.0 348.6,36.0 351.4,36.0 354.1,36.0 356.9,36.0 359.6,36.0 362.3,36.0 365.1,36.0 367.8,36.0 370.6,36.0 373.3,36.0 376.1,36.0 378.8,36.0 381.5,36.0 384.3,36.0 387.0,36.0 389.8,36.0 392.5,36.0 395.2,36.0 398.0,36.0 400.7,36.0 403.5,36.0 406.2,36.0 409.0,36.0 411.7,36.0 414.4,36.0 417.2,36.0 419.9,36.0 422.7,36.0 425.4,36.0 428.2,36.0 430.9,36.0 433.6,36.0 436.4,36.0 439.1,36.0 441.9,36.0 444.6,36.0 447.4,36.0 450.1,36.0 452.8,36.0 455.6,36.0 458.3,36.0 461.1,36.0 463.8,36.0 466.6,36.0 469.3,36.0 472.0,36.0 474.8,36.0 477.5,36.0 480.3,36.0 483.0,36.0 485.7,36.0 488.5,36.0 491.2,36.0 494.0,36.0 496.7,36.0 499.5,36.0 502.2,36.0 504.9,36.0 507.7,36.0 510.4,36.0 513.2,36.0 515.9,36.0 518.7,36.0 521.4,36.0 524.1,36.0 526.9,36.0 529.6,36.0 532.4,36.0 535.1,36.0 537.9,36.0 540.6,36.0 543.3,36.0 546.1,36.0 548.8,36.0 551.6,36.0 554.3,36.0 557.0,36.0 559.8,36.0 562.5,36.0 565.3,36.0 568.0,36.0 570.8,36.0 573.5,36.0 576.2,36.0 579.0,36.0 581.7,36.0 584.5,36.0 587.2,36.0 590.0,36.0 592.7,36.0 595.4,36.0 598.2,36.0 600.9,36.0 603.7,36.0 606.4,36.0 609.2,36.0 611.9,36.0 614.6,36.0 617.4,36.0 620.1,36.0 622.9,36.0 625.6,36.0 628.3,36.0 631.1,36.0 633.8,36.0 636.6,36.0 639.3,36.0 642.1,36.0 644.8,36.0 647.5,36.0 650.3,36.0 653.0,36.0 655.8,36.0 658.5,36.0 661.3,36.0 664.0,36.0"/><circle cx="36.0" cy="144.3" r="3" fill="#4aa3ff"/><circle cx="38.7" cy="144.3" r="3" fill="#4aa3ff"/><circle cx="41.5" cy="144.3" r="3" fill="#4aa3ff"/><circle cx="44.2" cy="144.3" r="3" fill="#4aa3ff"/><circle cx="47.0" cy="144.3" r="3" fill="#4aa3ff"/><circle cx="49.7" cy="144.3" r="3" fill="#4aa3ff"/><circle cx="52.5" cy="144.3" r="3" fill="#4aa3ff"/><circle cx="55.2" cy="144.3" r="3" fill="#4aa3ff"/><circle cx="57.9" cy="144.3" r="3" fill="#4aa3ff"/><circle cx="60.7" cy="144.3" r="3" fill="#4aa3ff"/><circle cx="63.4" cy="144.3" r="3" fill="#4aa3ff"/><circle cx="66.2" cy="144.3" r="3" fill="#4aa3ff"/><circle cx="68.9" cy="144.3" r="3" fill="#4aa3ff"/><circle cx="71.7" cy="144.3" r="3" fill="#4aa3ff"/><circle cx="74.4" cy="144.3" r="3" fill="#4aa3ff"/><circle cx="77.1" cy="136.2" r="3" fill="#4aa3ff"/><circle cx="79.9" cy="132.4" r="3" fill="#4aa3ff"/><circle cx="82.6" cy="129.6" r="3" fill="#4aa3ff"/><circle cx="85.4" cy="129.6" r="3" fill="#4aa3ff"/><circle cx="88.1" cy="121.0" r="3" fill="#4aa3ff"/><circle cx="90.8" cy="121.0" r="3" fill="#4aa3ff"/><circle cx="93.6" cy="121.0" r="3" fill="#4aa3ff"/><circle cx="96.3" cy="114.4" r="3" fill="#4aa3ff"/><circle cx="99.1" cy="114.4" r="3" fill="#4aa3ff"/><circle cx="101.8" cy="114.4" r="3" fill="#4aa3ff"/><circle cx="104.6" cy="111.3" r="3" fill="#4aa3ff"/><circle cx="107.3" cy="110.9" r="3" fill="#4aa3ff"/><circle cx="110.0" cy="110.9" r="3" fill="#4aa3ff"/><circle cx="112.8" cy="110.5" r="3" fill="#4aa3ff"/><circle cx="115.5" cy="110.5" r="3" fill="#4aa3ff"/><circle cx="118.3" cy="109.9" r="3" fill="#4aa3ff"/><circle cx="121.0" cy="108.7" r="3" fill="#4aa3ff"/><circle cx="123.8" cy="107.3" r="3" fill="#4aa3ff"/><circle cx="126.5" cy="106.9" r="3" fill="#4aa3ff"/><circle cx="129.2" cy="106.9" r="3" fill="#4aa3ff"/><circle cx="132.0" cy="106.9" r="3" fill="#4aa3ff"/><circle cx="134.7" cy="106.9" r="3" fill="#4aa3ff"/><circle cx="137.5" cy="106.9" r="3" fill="#4aa3ff"/><circle cx="140.2" cy="106.9" r="3" fill="#4aa3ff"/><circle cx="143.0" cy="106.9" r="3" fill="#4aa3ff"/><circle cx="145.7" cy="106.9" r="3" fill="#4aa3ff"/><circle cx="148.4" cy="106.9" r="3" fill="#4aa3ff"/><circle cx="151.2" cy="106.9" r="3" fill="#4aa3ff"/><circle cx="153.9" cy="113.2" r="3" fill="#4aa3ff"/><circle cx="156.7" cy="113.2" r="3" fill="#4aa3ff"/><circle cx="159.4" cy="113.2" r="3" fill="#4aa3ff"/><circle cx="162.1" cy="113.2" r="3" fill="#4aa3ff"/><circle cx="164.9" cy="113.2" r="3" fill="#4aa3ff"/><circle cx="167.6" cy="110.7" r="3" fill="#4aa3ff"/><circle cx="170.4" cy="105.3" r="3" fill="#4aa3ff"/><circle cx="173.1" cy="83.4" r="3" fill="#4aa3ff"/><circle cx="175.9" cy="83.4" r="3" fill="#4aa3ff"/><circle cx="178.6" cy="85.6" r="3" fill="#4aa3ff"/><circle cx="181.3" cy="85.6" r="3" fill="#4aa3ff"/><circle cx="184.1" cy="85.6" r="3" fill="#4aa3ff"/><circle cx="186.8" cy="85.6" r="3" fill="#4aa3ff"/><circle cx="189.6" cy="85.6" r="3" fill="#4aa3ff"/><circle cx="192.3" cy="85.8" r="3" fill="#4aa3ff"/><circle cx="195.1" cy="85.8" r="3" fill="#4aa3ff"/><circle cx="197.8" cy="85.8" r="3" fill="#4aa3ff"/><circle cx="200.5" cy="86.0" r="3" fill="#4aa3ff"/><circle cx="203.3" cy="86.0" r="3" fill="#4aa3ff"/><circle cx="206.0" cy="86.0" r="3" fill="#4aa3ff"/><circle cx="208.8" cy="86.0" r="3" fill="#4aa3ff"/><circle cx="211.5" cy="86.0" r="3" fill="#4aa3ff"/><circle cx="214.3" cy="86.0" r="3" fill="#4aa3ff"/><circle cx="217.0" cy="86.0" r="3" fill="#4aa3ff"/><circle cx="219.7" cy="86.0" r="3" fill="#4aa3ff"/><circle cx="222.5" cy="86.0" r="3" fill="#4aa3ff"/><circle cx="225.2" cy="86.0" r="3" fill="#4aa3ff"/><circle cx="228.0" cy="86.0" r="3" fill="#4aa3ff"/><circle cx="230.7" cy="86.0" r="3" fill="#4aa3ff"/><circle cx="233.4" cy="86.0" r="3" fill="#4aa3ff"/><circle cx="236.2" cy="86.0" r="3" fill="#4aa3ff"/><circle cx="238.9" cy="86.0" r="3" fill="#4aa3ff"/><circle cx="241.7" cy="86.0" r="3" fill="#4aa3ff"/><circle cx="244.4" cy="86.0" r="3" fill="#4aa3ff"/><circle cx="247.2" cy="86.0" r="3" fill="#4aa3ff"/><circle cx="249.9" cy="86.0" r="3" fill="#4aa3ff"/><circle cx="252.6" cy="86.0" r="3" fill="#4aa3ff"/><circle cx="255.4" cy="86.0" r="3" fill="#4aa3ff"/><circle cx="258.1" cy="87.0" r="3" fill="#4aa3ff"/><circle cx="260.9" cy="87.0" r="3" fill="#4aa3ff"/><circle cx="263.6" cy="87.0" r="3" fill="#4aa3ff"/><circle cx="266.4" cy="73.7" r="3" fill="#4aa3ff"/><circle cx="269.1" cy="73.7" r="3" fill="#4aa3ff"/><circle cx="271.8" cy="71.0" r="3" fill="#4aa3ff"/><circle cx="274.6" cy="71.0" r="3" fill="#4aa3ff"/><circle cx="277.3" cy="70.8" r="3" fill="#4aa3ff"/><circle cx="280.1" cy="70.6" r="3" fill="#4aa3ff"/><circle cx="282.8" cy="70.6" r="3" fill="#4aa3ff"/><circle cx="285.6" cy="70.4" r="3" fill="#4aa3ff"/><circle cx="288.3" cy="68.6" r="3" fill="#4aa3ff"/><circle cx="291.0" cy="60.5" r="3" fill="#4aa3ff"/><circle cx="293.8" cy="59.3" r="3" fill="#4aa3ff"/><circle cx="296.5" cy="52.0" r="3" fill="#4aa3ff"/><circle cx="299.3" cy="47.3" r="3" fill="#4aa3ff"/><circle cx="302.0" cy="40.1" r="3" fill="#4aa3ff"/><circle cx="304.8" cy="36.0" r="3" fill="#4aa3ff"/><circle cx="307.5" cy="36.0" r="3" fill="#4aa3ff"/><circle cx="310.2" cy="36.0" r="3" fill="#4aa3ff"/><circle cx="313.0" cy="36.0" r="3" fill="#4aa3ff"/><circle cx="315.7" cy="36.0" r="3" fill="#4aa3ff"/><circle cx="318.5" cy="36.0" r="3" fill="#4aa3ff"/><circle cx="321.2" cy="36.0" r="3" fill="#4aa3ff"/><circle cx="323.9" cy="36.0" r="3" fill="#4aa3ff"/><circle cx="326.7" cy="36.0" r="3" fill="#4aa3ff"/><circle cx="329.4" cy="36.0" r="3" fill="#4aa3ff"/><circle cx="332.2" cy="36.0" r="3" fill="#4aa3ff"/><circle cx="334.9" cy="36.0" r="3" fill="#4aa3ff"/><circle cx="337.7" cy="36.0" r="3" fill="#4aa3ff"/><circle cx="340.4" cy="36.0" r="3" fill="#4aa3ff"/><circle cx="343.1" cy="36.0" r="3" fill="#4aa3ff"/><circle cx="345.9" cy="36.0" r="3" fill="#4aa3ff"/><circle cx="348.6" cy="36.0" r="3" fill="#4aa3ff"/><circle cx="351.4" cy="36.0" r="3" fill="#4aa3ff"/><circle cx="354.1" cy="36.0" r="3" fill="#4aa3ff"/><circle cx="356.9" cy="36.0" r="3" fill="#4aa3ff"/><circle cx="359.6" cy="36.0" r="3" fill="#4aa3ff"/><circle cx="362.3" cy="36.0" r="3" fill="#4aa3ff"/><circle cx="365.1" cy="36.0" r="3" fill="#4aa3ff"/><circle cx="367.8" cy="36.0" r="3" fill="#4aa3ff"/><circle cx="370.6" cy="36.0" r="3" fill="#4aa3ff"/><circle cx="373.3" cy="36.0" r="3" fill="#4aa3ff"/><circle cx="376.1" cy="36.0" r="3" fill="#4aa3ff"/><circle cx="378.8" cy="36.0" r="3" fill="#4aa3ff"/><circle cx="381.5" cy="36.0" r="3" fill="#4aa3ff"/><circle cx="384.3" cy="36.0" r="3" fill="#4aa3ff"/><circle cx="387.0" cy="36.0" r="3" fill="#4aa3ff"/><circle cx="389.8" cy="36.0" r="3" fill="#4aa3ff"/><circle cx="392.5" cy="36.0" r="3" fill="#4aa3ff"/><circle cx="395.2" cy="36.0" r="3" fill="#4aa3ff"/><circle cx="398.0" cy="36.0" r="3" fill="#4aa3ff"/><circle cx="400.7" cy="36.0" r="3" fill="#4aa3ff"/><circle cx="403.5" cy="36.0" r="3" fill="#4aa3ff"/><circle cx="406.2" cy="36.0" r="3" fill="#4aa3ff"/><circle cx="409.0" cy="36.0" r="3" fill="#4aa3ff"/><circle cx="411.7" cy="36.0" r="3" fill="#4aa3ff"/><circle cx="414.4" cy="36.0" r="3" fill="#4aa3ff"/><circle cx="417.2" cy="36.0" r="3" fill="#4aa3ff"/><circle cx="419.9" cy="36.0" r="3" fill="#4aa3ff"/><circle cx="422.7" cy="36.0" r="3" fill="#4aa3ff"/><circle cx="425.4" cy="36.0" r="3" fill="#4aa3ff"/><circle cx="428.2" cy="36.0" r="3" fill="#4aa3ff"/><circle cx="430.9" cy="36.0" r="3" fill="#4aa3ff"/><circle cx="433.6" cy="36.0" r="3" fill="#4aa3ff"/><circle cx="436.4" cy="36.0" r="3" fill="#4aa3ff"/><circle cx="439.1" cy="36.0" r="3" fill="#4aa3ff"/><circle cx="441.9" cy="36.0" r="3" fill="#4aa3ff"/><circle cx="444.6" cy="36.0" r="3" fill="#4aa3ff"/><circle cx="447.4" cy="36.0" r="3" fill="#4aa3ff"/><circle cx="450.1" cy="36.0" r="3" fill="#4aa3ff"/><circle cx="452.8" cy="36.0" r="3" fill="#4aa3ff"/><circle cx="455.6" cy="36.0" r="3" fill="#4aa3ff"/><circle cx="458.3" cy="36.0" r="3" fill="#4aa3ff"/><circle cx="461.1" cy="36.0" r="3" fill="#4aa3ff"/><circle cx="463.8" cy="36.0" r="3" fill="#4aa3ff"/><circle cx="466.6" cy="36.0" r="3" fill="#4aa3ff"/><circle cx="469.3" cy="36.0" r="3" fill="#4aa3ff"/><circle cx="472.0" cy="36.0" r="3" fill="#4aa3ff"/><circle cx="474.8" cy="36.0" r="3" fill="#4aa3ff"/><circle cx="477.5" cy="36.0" r="3" fill="#4aa3ff"/><circle cx="480.3" cy="36.0" r="3" fill="#4aa3ff"/><circle cx="483.0" cy="36.0" r="3" fill="#4aa3ff"/><circle cx="485.7" cy="36.0" r="3" fill="#4aa3ff"/><circle cx="488.5" cy="36.0" r="3" fill="#4aa3ff"/><circle cx="491.2" cy="36.0" r="3" fill="#4aa3ff"/><circle cx="494.0" cy="36.0" r="3" fill="#4aa3ff"/><circle cx="496.7" cy="36.0" r="3" fill="#4aa3ff"/><circle cx="499.5" cy="36.0" r="3" fill="#4aa3ff"/><circle cx="502.2" cy="36.0" r="3" fill="#4aa3ff"/><circle cx="504.9" cy="36.0" r="3" fill="#4aa3ff"/><circle cx="507.7" cy="36.0" r="3" fill="#4aa3ff"/><circle cx="510.4" cy="36.0" r="3" fill="#4aa3ff"/><circle cx="513.2" cy="36.0" r="3" fill="#4aa3ff"/><circle cx="515.9" cy="36.0" r="3" fill="#4aa3ff"/><circle cx="518.7" cy="36.0" r="3" fill="#4aa3ff"/><circle cx="521.4" cy="36.0" r="3" fill="#4aa3ff"/><circle cx="524.1" cy="36.0" r="3" fill="#4aa3ff"/><circle cx="526.9" cy="36.0" r="3" fill="#4aa3ff"/><circle cx="529.6" cy="36.0" r="3" fill="#4aa3ff"/><circle cx="532.4" cy="36.0" r="3" fill="#4aa3ff"/><circle cx="535.1" cy="36.0" r="3" fill="#4aa3ff"/><circle cx="537.9" cy="36.0" r="3" fill="#4aa3ff"/><circle cx="540.6" cy="36.0" r="3" fill="#4aa3ff"/><circle cx="543.3" cy="36.0" r="3" fill="#4aa3ff"/><circle cx="546.1" cy="36.0" r="3" fill="#4aa3ff"/><circle cx="548.8" cy="36.0" r="3" fill="#4aa3ff"/><circle cx="551.6" cy="36.0" r="3" fill="#4aa3ff"/><circle cx="554.3" cy="36.0" r="3" fill="#4aa3ff"/><circle cx="557.0" cy="36.0" r="3" fill="#4aa3ff"/><circle cx="559.8" cy="36.0" r="3" fill="#4aa3ff"/><circle cx="562.5" cy="36.0" r="3" fill="#4aa3ff"/><circle cx="565.3" cy="36.0" r="3" fill="#4aa3ff"/><circle cx="568.0" cy="36.0" r="3" fill="#4aa3ff"/><circle cx="570.8" cy="36.0" r="3" fill="#4aa3ff"/><circle cx="573.5" cy="36.0" r="3" fill="#4aa3ff"/><circle cx="576.2" cy="36.0" r="3" fill="#4aa3ff"/><circle cx="579.0" cy="36.0" r="3" fill="#4aa3ff"/><circle cx="581.7" cy="36.0" r="3" fill="#4aa3ff"/><circle cx="584.5" cy="36.0" r="3" fill="#4aa3ff"/><circle cx="587.2" cy="36.0" r="3" fill="#4aa3ff"/><circle cx="590.0" cy="36.0" r="3" fill="#4aa3ff"/><circle cx="592.7" cy="36.0" r="3" fill="#4aa3ff"/><circle cx="595.4" cy="36.0" r="3" fill="#4aa3ff"/><circle cx="598.2" cy="36.0" r="3" fill="#4aa3ff"/><circle cx="600.9" cy="36.0" r="3" fill="#4aa3ff"/><circle cx="603.7" cy="36.0" r="3" fill="#4aa3ff"/><circle cx="606.4" cy="36.0" r="3" fill="#4aa3ff"/><circle cx="609.2" cy="36.0" r="3" fill="#4aa3ff"/><circle cx="611.9" cy="36.0" r="3" fill="#4aa3ff"/><circle cx="614.6" cy="36.0" r="3" fill="#4aa3ff"/><circle cx="617.4" cy="36.0" r="3" fill="#4aa3ff"/><circle cx="620.1" cy="36.0" r="3" fill="#4aa3ff"/><circle cx="622.9" cy="36.0" r="3" fill="#4aa3ff"/><circle cx="625.6" cy="36.0" r="3" fill="#4aa3ff"/><circle cx="628.3" cy="36.0" r="3" fill="#4aa3ff"/><circle cx="631.1" cy="36.0" r="3" fill="#4aa3ff"/><circle cx="633.8" cy="36.0" r="3" fill="#4aa3ff"/><circle cx="636.6" cy="36.0" r="3" fill="#4aa3ff"/><circle cx="639.3" cy="36.0" r="3" fill="#4aa3ff"/><circle cx="642.1" cy="36.0" r="3" fill="#4aa3ff"/><circle cx="644.8" cy="36.0" r="3" fill="#4aa3ff"/><circle cx="647.5" cy="36.0" r="3" fill="#4aa3ff"/><circle cx="650.3" cy="36.0" r="3" fill="#4aa3ff"/><circle cx="653.0" cy="36.0" r="3" fill="#4aa3ff"/><circle cx="655.8" cy="36.0" r="3" fill="#4aa3ff"/><circle cx="658.5" cy="36.0" r="3" fill="#4aa3ff"/><circle cx="661.3" cy="36.0" r="3" fill="#4aa3ff"/><circle cx="664.0" cy="36.0" r="3" fill="#4aa3ff"/>
<text x="36" y="225" fill="#6b7280" font-size="11">2026-06-26</text>
<text x="664" y="225" fill="#6b7280" font-size="11" text-anchor="end">2026-07-19</text>
<text x="36" y="212" font-family="system-ui,sans-serif" font-size="11">
<tspan fill="#4aa3ff">&#9679; open FPs</tspan>  <tspan fill="#3fb950">&#9679; closed (Anthropic acting)</tspan>  <tspan fill="#8a5a5a">&#9679; harness withdrawn</tspan></text>
<text x="664" y="22" text-anchor="end" font-family="system-ui,sans-serif" font-size="12">
<tspan fill="#4aa3ff">open 800</tspan>  <tspan fill="#3fb950">closed 0</tspan>  <tspan fill="#8a5a5a">harness 0</tspan></text>
</svg>