<svg xmlns="http://www.w3.org/2000/svg" width="700" height="234" viewBox="0 0 700 234" role="img">
<rect width="700" height="234" rx="12" fill="#16181d"/>
<text x="36" y="22" fill="#e8eaed" font-family="system-ui,sans-serif" font-size="14" font-weight="700">Is Anthropic acting? cyber/aup false positives over time</text>
<line x1="36" y1="198.0" x2="664" y2="198.0" stroke="#2a2e37" stroke-width="1"/><text x="30" y="202.0" fill="#6b7280" font-size="11" text-anchor="end">0</text><line x1="36" y1="117.0" x2="664" y2="117.0" stroke="#2a2e37" stroke-width="1"/><text x="30" y="121.0" fill="#6b7280" font-size="11" text-anchor="end">400</text><line x1="36" y1="36.0" x2="664" y2="36.0" stroke="#2a2e37" stroke-width="1"/><text x="30" y="40.0" fill="#6b7280" font-size="11" text-anchor="end">800</text>

<polyline fill="none" stroke="#8a5a5a" stroke-width="2.5" stroke-linejoin="round" points="36.0,145.1 40.1,145.1 44.2,145.1 48.3,145.1 52.4,145.1 56.5,145.1 60.6,145.1 64.7,145.1 68.8,145.1 72.9,145.1 77.0,145.1 81.2,145.1 85.3,145.1 89.4,145.1 93.5,145.1 97.6,145.1 101.7,145.1 105.8,145.1 109.9,145.1 114.0,145.1 118.1,145.1 122.2,145.1 126.3,145.1 130.4,145.1 134.5,145.1 138.6,145.1 142.7,145.1 146.8,145.1 150.9,145.1 155.0,145.1 159.1,145.1 163.2,145.1 167.3,145.1 171.5,145.1 175.6,145.1 179.7,145.1 183.8,145.1 187.9,145.1 192.0,145.1 196.1,145.1 200.2,145.1 204.3,145.1 208.4,145.1 212.5,145.1 216.6,145.1 220.7,145.1 224.8,145.1 228.9,145.1 233.0,145.1 237.1,145.1 241.2,155.7 245.3,155.7 249.4,155.7 253.5,155.7 257.6,155.7 261.8,155.7 265.9,155.7 270.0,155.7 274.1,155.7 278.2,155.7 282.3,155.7 286.4,155.7 290.5,155.7 294.6,155.7 298.7,155.7 302.8,155.7 306.9,155.7 311.0,155.7 315.1,155.7 319.2,155.7 323.3,155.7 327.4,155.7 331.5,155.7 335.6,155.7 339.7,155.7 343.8,155.7 347.9,155.7 352.1,155.7 356.2,155.7 360.3,155.7 364.4,155.7 368.5,155.7 372.6,155.7 376.7,155.7 380.8,167.6 384.9,167.6 389.0,170.3 393.1,170.3 397.2,170.5 401.3,170.7 405.4,170.7 409.5,170.9 413.6,172.7 417.7,180.6 421.8,181.8 425.9,189.1 430.0,190.5 434.1,195.2 438.2,198.0 442.4,198.0 446.5,198.0 450.6,198.0 454.7,198.0 458.8,198.0 462.9,198.0 467.0,198.0 471.1,198.0 475.2,198.0 479.3,198.0 483.4,198.0 487.5,198.0 491.6,198.0 495.7,198.0 499.8,198.0 503.9,198.0 508.0,198.0 512.1,198.0 516.2,198.0 520.3,198.0 524.4,198.0 528.5,198.0 532.7,198.0 536.8,198.0 540.9,198.0 545.0,198.0 549.1,198.0 553.2,198.0 557.3,198.0 561.4,198.0 565.5,198.0 569.6,198.0 573.7,198.0 577.8,198.0 581.9,198.0 586.0,198.0 590.1,198.0 594.2,198.0 598.3,198.0 602.4,198.0 606.5,198.0 610.6,198.0 614.7,198.0 618.8,198.0 623.0,198.0 627.1,198.0 631.2,198.0 635.3,198.0 639.4,198.0 643.5,198.0 647.6,198.0 651.7,198.0 655.8,198.0 659.9,198.0 664.0,198.0"/><circle cx="36.0" cy="145.1" r="3" fill="#8a5a5a"/><circle cx="40.1" cy="145.1" r="3" fill="#8a5a5a"/><circle cx="44.2" cy="145.1" r="3" fill="#8a5a5a"/><circle cx="48.3" cy="145.1" r="3" fill="#8a5a5a"/><circle cx="52.4" cy="145.1" r="3" fill="#8a5a5a"/><circle cx="56.5" cy="145.1" r="3" fill="#8a5a5a"/><circle cx="60.6" cy="145.1" r="3" fill="#8a5a5a"/><circle cx="64.7" cy="145.1" r="3" fill="#8a5a5a"/><circle cx="68.8" cy="145.1" r="3" fill="#8a5a5a"/><circle cx="72.9" cy="145.1" r="3" fill="#8a5a5a"/><circle cx="77.0" cy="145.1" r="3" fill="#8a5a5a"/><circle cx="81.2" cy="145.1" r="3" fill="#8a5a5a"/><circle cx="85.3" cy="145.1" r="3" fill="#8a5a5a"/><circle cx="89.4" cy="145.1" r="3" fill="#8a5a5a"/><circle cx="93.5" cy="145.1" r="3" fill="#8a5a5a"/><circle cx="97.6" cy="145.1" r="3" fill="#8a5a5a"/><circle cx="101.7" cy="145.1" r="3" fill="#8a5a5a"/><circle cx="105.8" cy="145.1" r="3" fill="#8a5a5a"/><circle cx="109.9" cy="145.1" r="3" fill="#8a5a5a"/><circle cx="114.0" cy="145.1" r="3" fill="#8a5a5a"/><circle cx="118.1" cy="145.1" r="3" fill="#8a5a5a"/><circle cx="122.2" cy="145.1" r="3" fill="#8a5a5a"/><circle cx="126.3" cy="145.1" r="3" fill="#8a5a5a"/><circle cx="130.4" cy="145.1" r="3" fill="#8a5a5a"/><circle cx="134.5" cy="145.1" r="3" fill="#8a5a5a"/><circle cx="138.6" cy="145.1" r="3" fill="#8a5a5a"/><circle cx="142.7" cy="145.1" r="3" fill="#8a5a5a"/><circle cx="146.8" cy="145.1" r="3" fill="#8a5a5a"/><circle cx="150.9" cy="145.1" r="3" fill="#8a5a5a"/><circle cx="155.0" cy="145.1" r="3" fill="#8a5a5a"/><circle cx="159.1" cy="145.1" r="3" fill="#8a5a5a"/><circle cx="163.2" cy="145.1" r="3" fill="#8a5a5a"/><circle cx="167.3" cy="145.1" r="3" fill="#8a5a5a"/><circle cx="171.5" cy="145.1" r="3" fill="#8a5a5a"/><circle cx="175.6" cy="145.1" r="3" fill="#8a5a5a"/><circle cx="179.7" cy="145.1" r="3" fill="#8a5a5a"/><circle cx="183.8" cy="145.1" r="3" fill="#8a5a5a"/><circle cx="187.9" cy="145.1" r="3" fill="#8a5a5a"/><circle cx="192.0" cy="145.1" r="3" fill="#8a5a5a"/><circle cx="196.1" cy="145.1" r="3" fill="#8a5a5a"/><circle cx="200.2" cy="145.1" r="3" fill="#8a5a5a"/><circle cx="204.3" cy="145.1" r="3" fill="#8a5a5a"/><circle cx="208.4" cy="145.1" r="3" fill="#8a5a5a"/><circle cx="212.5" cy="145.1" r="3" fill="#8a5a5a"/><circle cx="216.6" cy="145.1" r="3" fill="#8a5a5a"/><circle cx="220.7" cy="145.1" r="3" fill="#8a5a5a"/><circle cx="224.8" cy="145.1" r="3" fill="#8a5a5a"/><circle cx="228.9" cy="145.1" r="3" fill="#8a5a5a"/><circle cx="233.0" cy="145.1" r="3" fill="#8a5a5a"/><circle cx="237.1" cy="145.1" r="3" fill="#8a5a5a"/><circle cx="241.2" cy="155.7" r="3" fill="#8a5a5a"/><circle cx="245.3" cy="155.7" r="3" fill="#8a5a5a"/><circle cx="249.4" cy="155.7" r="3" fill="#8a5a5a"/><circle cx="253.5" cy="155.7" r="3" fill="#8a5a5a"/><circle cx="257.6" cy="155.7" r="3" fill="#8a5a5a"/><circle cx="261.8" cy="155.7" r="3" fill="#8a5a5a"/><circle cx="265.9" cy="155.7" r="3" fill="#8a5a5a"/><circle cx="270.0" cy="155.7" r="3" fill="#8a5a5a"/><circle cx="274.1" cy="155.7" r="3" fill="#8a5a5a"/><circle cx="278.2" cy="155.7" r="3" fill="#8a5a5a"/><circle cx="282.3" cy="155.7" r="3" fill="#8a5a5a"/><circle cx="286.4" cy="155.7" r="3" fill="#8a5a5a"/><circle cx="290.5" cy="155.7" r="3" fill="#8a5a5a"/><circle cx="294.6" cy="155.7" r="3" fill="#8a5a5a"/><circle cx="298.7" cy="155.7" r="3" fill="#8a5a5a"/><circle cx="302.8" cy="155.7" r="3" fill="#8a5a5a"/><circle cx="306.9" cy="155.7" r="3" fill="#8a5a5a"/><circle cx="311.0" cy="155.7" r="3" fill="#8a5a5a"/><circle cx="315.1" cy="155.7" r="3" fill="#8a5a5a"/><circle cx="319.2" cy="155.7" r="3" fill="#8a5a5a"/><circle cx="323.3" cy="155.7" r="3" fill="#8a5a5a"/><circle cx="327.4" cy="155.7" r="3" fill="#8a5a5a"/><circle cx="331.5" cy="155.7" r="3" fill="#8a5a5a"/><circle cx="335.6" cy="155.7" r="3" fill="#8a5a5a"/><circle cx="339.7" cy="155.7" r="3" fill="#8a5a5a"/><circle cx="343.8" cy="155.7" r="3" fill="#8a5a5a"/><circle cx="347.9" cy="155.7" r="3" fill="#8a5a5a"/><circle cx="352.1" cy="155.7" r="3" fill="#8a5a5a"/><circle cx="356.2" cy="155.7" r="3" fill="#8a5a5a"/><circle cx="360.3" cy="155.7" r="3" fill="#8a5a5a"/><circle cx="364.4" cy="155.7" r="3" fill="#8a5a5a"/><circle cx="368.5" cy="155.7" r="3" fill="#8a5a5a"/><circle cx="372.6" cy="155.7" r="3" fill="#8a5a5a"/><circle cx="376.7" cy="155.7" r="3" fill="#8a5a5a"/><circle cx="380.8" cy="167.6" r="3" fill="#8a5a5a"/><circle cx="384.9" cy="167.6" r="3" fill="#8a5a5a"/><circle cx="389.0" cy="170.3" r="3" fill="#8a5a5a"/><circle cx="393.1" cy="170.3" r="3" fill="#8a5a5a"/><circle cx="397.2" cy="170.5" r="3" fill="#8a5a5a"/><circle cx="401.3" cy="170.7" r="3" fill="#8a5a5a"/><circle cx="405.4" cy="170.7" r="3" fill="#8a5a5a"/><circle cx="409.5" cy="170.9" r="3" fill="#8a5a5a"/><circle cx="413.6" cy="172.7" r="3" fill="#8a5a5a"/><circle cx="417.7" cy="180.6" r="3" fill="#8a5a5a"/><circle cx="421.8" cy="181.8" r="3" fill="#8a5a5a"/><circle cx="425.9" cy="189.1" r="3" fill="#8a5a5a"/><circle cx="430.0" cy="190.5" r="3" fill="#8a5a5a"/><circle cx="434.1" cy="195.2" r="3" fill="#8a5a5a"/><circle cx="438.2" cy="198.0" r="3" fill="#8a5a5a"/><circle cx="442.4" cy="198.0" r="3" fill="#8a5a5a"/><circle cx="446.5" cy="198.0" r="3" fill="#8a5a5a"/><circle cx="450.6" cy="198.0" r="3" fill="#8a5a5a"/><circle cx="454.7" cy="198.0" r="3" fill="#8a5a5a"/><circle cx="458.8" cy="198.0" r="3" fill="#8a5a5a"/><circle cx="462.9" cy="198.0" r="3" fill="#8a5a5a"/><circle cx="467.0" cy="198.0" r="3" fill="#8a5a5a"/><circle cx="471.1" cy="198.0" r="3" fill="#8a5a5a"/><circle cx="475.2" cy="198.0" r="3" fill="#8a5a5a"/><circle cx="479.3" cy="198.0" r="3" fill="#8a5a5a"/><circle cx="483.4" cy="198.0" r="3" fill="#8a5a5a"/><circle cx="487.5" cy="198.0" r="3" fill="#8a5a5a"/><circle cx="491.6" cy="198.0" r="3" fill="#8a5a5a"/><circle cx="495.7" cy="198.0" r="3" fill="#8a5a5a"/><circle cx="499.8" cy="198.0" r="3" fill="#8a5a5a"/><circle cx="503.9" cy="198.0" r="3" fill="#8a5a5a"/><circle cx="508.0" cy="198.0" r="3" fill="#8a5a5a"/><circle cx="512.1" cy="198.0" r="3" fill="#8a5a5a"/><circle cx="516.2" cy="198.0" r="3" fill="#8a5a5a"/><circle cx="520.3" cy="198.0" r="3" fill="#8a5a5a"/><circle cx="524.4" cy="198.0" r="3" fill="#8a5a5a"/><circle cx="528.5" cy="198.0" r="3" fill="#8a5a5a"/><circle cx="532.7" cy="198.0" r="3" fill="#8a5a5a"/><circle cx="536.8" cy="198.0" r="3" fill="#8a5a5a"/><circle cx="540.9" cy="198.0" r="3" fill="#8a5a5a"/><circle cx="545.0" cy="198.0" r="3" fill="#8a5a5a"/><circle cx="549.1" cy="198.0" r="3" fill="#8a5a5a"/><circle cx="553.2" cy="198.0" r="3" fill="#8a5a5a"/><circle cx="557.3" cy="198.0" r="3" fill="#8a5a5a"/><circle cx="561.4" cy="198.0" r="3" fill="#8a5a5a"/><circle cx="565.5" cy="198.0" r="3" fill="#8a5a5a"/><circle cx="569.6" cy="198.0" r="3" fill="#8a5a5a"/><circle cx="573.7" cy="198.0" r="3" fill="#8a5a5a"/><circle cx="577.8" cy="198.0" r="3" fill="#8a5a5a"/><circle cx="581.9" cy="198.0" r="3" fill="#8a5a5a"/><circle cx="586.0" cy="198.0" r="3" fill="#8a5a5a"/><circle cx="590.1" cy="198.0" r="3" fill="#8a5a5a"/><circle cx="594.2" cy="198.0" r="3" fill="#8a5a5a"/><circle cx="598.3" cy="198.0" r="3" fill="#8a5a5a"/><circle cx="602.4" cy="198.0" r="3" fill="#8a5a5a"/><circle cx="606.5" cy="198.0" r="3" fill="#8a5a5a"/><circle cx="610.6" cy="198.0" r="3" fill="#8a5a5a"/><circle cx="614.7" cy="198.0" r="3" fill="#8a5a5a"/><circle cx="618.8" cy="198.0" r="3" fill="#8a5a5a"/><circle cx="623.0" cy="198.0" r="3" fill="#8a5a5a"/><circle cx="627.1" cy="198.0" r="3" fill="#8a5a5a"/><circle cx="631.2" cy="198.0" r="3" fill="#8a5a5a"/><circle cx="635.3" cy="198.0" r="3" fill="#8a5a5a"/><circle cx="639.4" cy="198.0" r="3" fill="#8a5a5a"/><circle cx="643.5" cy="198.0" r="3" fill="#8a5a5a"/><circle cx="647.6" cy="198.0" r="3" fill="#8a5a5a"/><circle cx="651.7" cy="198.0" r="3" fill="#8a5a5a"/><circle cx="655.8" cy="198.0" r="3" fill="#8a5a5a"/><circle cx="659.9" cy="198.0" r="3" fill="#8a5a5a"/><circle cx="664.0" cy="198.0" r="3" fill="#8a5a5a"/>
<polyline fill="none" stroke="#3fb950" stroke-width="2.5" stroke-linejoin="round" points="36.0,198.0 40.1,198.0 44.2,198.0 48.3,198.0 52.4,198.0 56.5,198.0 60.6,198.0 64.7,198.0 68.8,198.0 72.9,198.0 77.0,198.0 81.2,198.0 85.3,198.0 89.4,198.0 93.5,198.0 97.6,198.0 101.7,198.0 105.8,198.0 109.9,198.0 114.0,198.0 118.1,198.0 122.2,198.0 126.3,198.0 130.4,198.0 134.5,198.0 138.6,198.0 142.7,198.0 146.8,198.0 150.9,198.0 155.0,198.0 159.1,198.0 163.2,198.0 167.3,198.0 171.5,198.0 175.6,198.0 179.7,198.0 183.8,198.0 187.9,198.0 192.0,198.0 196.1,198.0 200.2,198.0 204.3,198.0 208.4,198.0 212.5,191.7 216.6,191.7 220.7,191.7 224.8,191.7 228.9,191.7 233.0,191.7 237.1,191.7 241.2,192.9 245.3,192.9 249.4,190.7 253.5,190.7 257.6,190.7 261.8,190.7 265.9,190.7 270.0,190.5 274.1,190.5 278.2,190.5 282.3,190.3 286.4,190.3 290.5,190.3 294.6,190.3 298.7,190.3 302.8,190.3 306.9,190.3 311.0,190.3 315.1,190.3 319.2,190.3 323.3,190.3 327.4,190.3 331.5,190.3 335.6,190.3 339.7,190.3 343.8,190.3 347.9,190.3 352.1,190.3 356.2,190.3 360.3,190.3 364.4,190.3 368.5,189.3 372.6,189.3 376.7,189.3 380.8,190.7 384.9,190.7 389.0,190.7 393.1,190.7 397.2,190.7 401.3,190.7 405.4,190.7 409.5,190.7 413.6,190.7 417.7,190.9 421.8,190.9 425.9,190.9 430.0,194.2 434.1,196.8 438.2,198.0 442.4,198.0 446.5,198.0 450.6,198.0 454.7,198.0 458.8,198.0 462.9,198.0 467.0,198.0 471.1,198.0 475.2,198.0 479.3,198.0 483.4,198.0 487.5,198.0 491.6,198.0 495.7,198.0 499.8,198.0 503.9,198.0 508.0,198.0 512.1,198.0 516.2,198.0 520.3,198.0 524.4,198.0 528.5,198.0 532.7,198.0 536.8,198.0 540.9,198.0 545.0,198.0 549.1,198.0 553.2,198.0 557.3,198.0 561.4,198.0 565.5,198.0 569.6,198.0 573.7,198.0 577.8,198.0 581.9,198.0 586.0,198.0 590.1,198.0 594.2,198.0 598.3,198.0 602.4,198.0 606.5,198.0 610.6,198.0 614.7,198.0 618.8,198.0 623.0,198.0 627.1,198.0 631.2,198.0 635.3,198.0 639.4,198.0 643.5,198.0 647.6,198.0 651.7,198.0 655.8,198.0 659.9,198.0 664.0,198.0"/><circle cx="36.0" cy="198.0" r="3" fill="#3fb950"/><circle cx="40.1" cy="198.0" r="3" fill="#3fb950"/><circle cx="44.2" cy="198.0" r="3" fill="#3fb950"/><circle cx="48.3" cy="198.0" r="3" fill="#3fb950"/><circle cx="52.4" cy="198.0" r="3" fill="#3fb950"/><circle cx="56.5" cy="198.0" r="3" fill="#3fb950"/><circle cx="60.6" cy="198.0" r="3" fill="#3fb950"/><circle cx="64.7" cy="198.0" r="3" fill="#3fb950"/><circle cx="68.8" cy="198.0" r="3" fill="#3fb950"/><circle cx="72.9" cy="198.0" r="3" fill="#3fb950"/><circle cx="77.0" cy="198.0" r="3" fill="#3fb950"/><circle cx="81.2" cy="198.0" r="3" fill="#3fb950"/><circle cx="85.3" cy="198.0" r="3" fill="#3fb950"/><circle cx="89.4" cy="198.0" r="3" fill="#3fb950"/><circle cx="93.5" cy="198.0" r="3" fill="#3fb950"/><circle cx="97.6" cy="198.0" r="3" fill="#3fb950"/><circle cx="101.7" cy="198.0" r="3" fill="#3fb950"/><circle cx="105.8" cy="198.0" r="3" fill="#3fb950"/><circle cx="109.9" cy="198.0" r="3" fill="#3fb950"/><circle cx="114.0" cy="198.0" r="3" fill="#3fb950"/><circle cx="118.1" cy="198.0" r="3" fill="#3fb950"/><circle cx="122.2" cy="198.0" r="3" fill="#3fb950"/><circle cx="126.3" cy="198.0" r="3" fill="#3fb950"/><circle cx="130.4" cy="198.0" r="3" fill="#3fb950"/><circle cx="134.5" cy="198.0" r="3" fill="#3fb950"/><circle cx="138.6" cy="198.0" r="3" fill="#3fb950"/><circle cx="142.7" cy="198.0" r="3" fill="#3fb950"/><circle cx="146.8" cy="198.0" r="3" fill="#3fb950"/><circle cx="150.9" cy="198.0" r="3" fill="#3fb950"/><circle cx="155.0" cy="198.0" r="3" fill="#3fb950"/><circle cx="159.1" cy="198.0" r="3" fill="#3fb950"/><circle cx="163.2" cy="198.0" r="3" fill="#3fb950"/><circle cx="167.3" cy="198.0" r="3" fill="#3fb950"/><circle cx="171.5" cy="198.0" r="3" fill="#3fb950"/><circle cx="175.6" cy="198.0" r="3" fill="#3fb950"/><circle cx="179.7" cy="198.0" r="3" fill="#3fb950"/><circle cx="183.8" cy="198.0" r="3" fill="#3fb950"/><circle cx="187.9" cy="198.0" r="3" fill="#3fb950"/><circle cx="192.0" cy="198.0" r="3" fill="#3fb950"/><circle cx="196.1" cy="198.0" r="3" fill="#3fb950"/><circle cx="200.2" cy="198.0" r="3" fill="#3fb950"/><circle cx="204.3" cy="198.0" r="3" fill="#3fb950"/><circle cx="208.4" cy="198.0" r="3" fill="#3fb950"/><circle cx="212.5" cy="191.7" r="3" fill="#3fb950"/><circle cx="216.6" cy="191.7" r="3" fill="#3fb950"/><circle cx="220.7" cy="191.7" r="3" fill="#3fb950"/><circle cx="224.8" cy="191.7" r="3" fill="#3fb950"/><circle cx="228.9" cy="191.7" r="3" fill="#3fb950"/><circle cx="233.0" cy="191.7" r="3" fill="#3fb950"/><circle cx="237.1" cy="191.7" r="3" fill="#3fb950"/><circle cx="241.2" cy="192.9" r="3" fill="#3fb950"/><circle cx="245.3" cy="192.9" r="3" fill="#3fb950"/><circle cx="249.4" cy="190.7" r="3" fill="#3fb950"/><circle cx="253.5" cy="190.7" r="3" fill="#3fb950"/><circle cx="257.6" cy="190.7" r="3" fill="#3fb950"/><circle cx="261.8" cy="190.7" r="3" fill="#3fb950"/><circle cx="265.9" cy="190.7" r="3" fill="#3fb950"/><circle cx="270.0" cy="190.5" r="3" fill="#3fb950"/><circle cx="274.1" cy="190.5" r="3" fill="#3fb950"/><circle cx="278.2" cy="190.5" r="3" fill="#3fb950"/><circle cx="282.3" cy="190.3" r="3" fill="#3fb950"/><circle cx="286.4" cy="190.3" r="3" fill="#3fb950"/><circle cx="290.5" cy="190.3" r="3" fill="#3fb950"/><circle cx="294.6" cy="190.3" r="3" fill="#3fb950"/><circle cx="298.7" cy="190.3" r="3" fill="#3fb950"/><circle cx="302.8" cy="190.3" r="3" fill="#3fb950"/><circle cx="306.9" cy="190.3" r="3" fill="#3fb950"/><circle cx="311.0" cy="190.3" r="3" fill="#3fb950"/><circle cx="315.1" cy="190.3" r="3" fill="#3fb950"/><circle cx="319.2" cy="190.3" r="3" fill="#3fb950"/><circle cx="323.3" cy="190.3" r="3" fill="#3fb950"/><circle cx="327.4" cy="190.3" r="3" fill="#3fb950"/><circle cx="331.5" cy="190.3" r="3" fill="#3fb950"/><circle cx="335.6" cy="190.3" r="3" fill="#3fb950"/><circle cx="339.7" cy="190.3" r="3" fill="#3fb950"/><circle cx="343.8" cy="190.3" r="3" fill="#3fb950"/><circle cx="347.9" cy="190.3" r="3" fill="#3fb950"/><circle cx="352.1" cy="190.3" r="3" fill="#3fb950"/><circle cx="356.2" cy="190.3" r="3" fill="#3fb950"/><circle cx="360.3" cy="190.3" r="3" fill="#3fb950"/><circle cx="364.4" cy="190.3" r="3" fill="#3fb950"/><circle cx="368.5" cy="189.3" r="3" fill="#3fb950"/><circle cx="372.6" cy="189.3" r="3" fill="#3fb950"/><circle cx="376.7" cy="189.3" r="3" fill="#3fb950"/><circle cx="380.8" cy="190.7" r="3" fill="#3fb950"/><circle cx="384.9" cy="190.7" r="3" fill="#3fb950"/><circle cx="389.0" cy="190.7" r="3" fill="#3fb950"/><circle cx="393.1" cy="190.7" r="3" fill="#3fb950"/><circle cx="397.2" cy="190.7" r="3" fill="#3fb950"/><circle cx="401.3" cy="190.7" r="3" fill="#3fb950"/><circle cx="405.4" cy="190.7" r="3" fill="#3fb950"/><circle cx="409.5" cy="190.7" r="3" fill="#3fb950"/><circle cx="413.6" cy="190.7" r="3" fill="#3fb950"/><circle cx="417.7" cy="190.9" r="3" fill="#3fb950"/><circle cx="421.8" cy="190.9" r="3" fill="#3fb950"/><circle cx="425.9" cy="190.9" r="3" fill="#3fb950"/><circle cx="430.0" cy="194.2" r="3" fill="#3fb950"/><circle cx="434.1" cy="196.8" r="3" fill="#3fb950"/><circle cx="438.2" cy="198.0" r="3" fill="#3fb950"/><circle cx="442.4" cy="198.0" r="3" fill="#3fb950"/><circle cx="446.5" cy="198.0" r="3" fill="#3fb950"/><circle cx="450.6" cy="198.0" r="3" fill="#3fb950"/><circle cx="454.7" cy="198.0" r="3" fill="#3fb950"/><circle cx="458.8" cy="198.0" r="3" fill="#3fb950"/><circle cx="462.9" cy="198.0" r="3" fill="#3fb950"/><circle cx="467.0" cy="198.0" r="3" fill="#3fb950"/><circle cx="471.1" cy="198.0" r="3" fill="#3fb950"/><circle cx="475.2" cy="198.0" r="3" fill="#3fb950"/><circle cx="479.3" cy="198.0" r="3" fill="#3fb950"/><circle cx="483.4" cy="198.0" r="3" fill="#3fb950"/><circle cx="487.5" cy="198.0" r="3" fill="#3fb950"/><circle cx="491.6" cy="198.0" r="3" fill="#3fb950"/><circle cx="495.7" cy="198.0" r="3" fill="#3fb950"/><circle cx="499.8" cy="198.0" r="3" fill="#3fb950"/><circle cx="503.9" cy="198.0" r="3" fill="#3fb950"/><circle cx="508.0" cy="198.0" r="3" fill="#3fb950"/><circle cx="512.1" cy="198.0" r="3" fill="#3fb950"/><circle cx="516.2" cy="198.0" r="3" fill="#3fb950"/><circle cx="520.3" cy="198.0" r="3" fill="#3fb950"/><circle cx="524.4" cy="198.0" r="3" fill="#3fb950"/><circle cx="528.5" cy="198.0" r="3" fill="#3fb950"/><circle cx="532.7" cy="198.0" r="3" fill="#3fb950"/><circle cx="536.8" cy="198.0" r="3" fill="#3fb950"/><circle cx="540.9" cy="198.0" r="3" fill="#3fb950"/><circle cx="545.0" cy="198.0" r="3" fill="#3fb950"/><circle cx="549.1" cy="198.0" r="3" fill="#3fb950"/><circle cx="553.2" cy="198.0" r="3" fill="#3fb950"/><circle cx="557.3" cy="198.0" r="3" fill="#3fb950"/><circle cx="561.4" cy="198.0" r="3" fill="#3fb950"/><circle cx="565.5" cy="198.0" r="3" fill="#3fb950"/><circle cx="569.6" cy="198.0" r="3" fill="#3fb950"/><circle cx="573.7" cy="198.0" r="3" fill="#3fb950"/><circle cx="577.8" cy="198.0" r="3" fill="#3fb950"/><circle cx="581.9" cy="198.0" r="3" fill="#3fb950"/><circle cx="586.0" cy="198.0" r="3" fill="#3fb950"/><circle cx="590.1" cy="198.0" r="3" fill="#3fb950"/><circle cx="594.2" cy="198.0" r="3" fill="#3fb950"/><circle cx="598.3" cy="198.0" r="3" fill="#3fb950"/><circle cx="602.4" cy="198.0" r="3" fill="#3fb950"/><circle cx="606.5" cy="198.0" r="3" fill="#3fb950"/><circle cx="610.6" cy="198.0" r="3" fill="#3fb950"/><circle cx="614.7" cy="198.0" r="3" fill="#3fb950"/><circle cx="618.8" cy="198.0" r="3" fill="#3fb950"/><circle cx="623.0" cy="198.0" r="3" fill="#3fb950"/><circle cx="627.1" cy="198.0" r="3" fill="#3fb950"/><circle cx="631.2" cy="198.0" r="3" fill="#3fb950"/><circle cx="635.3" cy="198.0" r="3" fill="#3fb950"/><circle cx="639.4" cy="198.0" r="3" fill="#3fb950"/><circle cx="643.5" cy="198.0" r="3" fill="#3fb950"/><circle cx="647.6" cy="198.0" r="3" fill="#3fb950"/><circle cx="651.7" cy="198.0" r="3" fill="#3fb950"/><circle cx="655.8" cy="198.0" r="3" fill="#3fb950"/><circle cx="659.9" cy="198.0" r="3" fill="#3fb950"/><circle cx="664.0" cy="198.0" r="3" fill="#3fb950"/>
<polyline fill="none" stroke="#4aa3ff" stroke-width="2.5" stroke-linejoin="round" points="36.0,144.3 40.1,144.3 44.2,144.3 48.3,144.3 52.4,144.3 56.5,144.3 60.6,144.3 64.7,144.3 68.8,144.3 72.9,144.3 77.0,144.3 81.2,144.3 85.3,144.3 89.4,144.3 93.5,144.3 97.6,136.2 101.7,132.4 105.8,129.6 109.9,129.6 114.0,121.0 118.1,121.0 122.2,121.0 126.3,114.4 130.4,114.4 134.5,114.4 138.6,111.3 142.7,110.9 146.8,110.9 150.9,110.5 155.0,110.5 159.1,109.9 163.2,108.7 167.3,107.3 171.5,106.9 175.6,106.9 179.7,106.9 183.8,106.9 187.9,106.9 192.0,106.9 196.1,106.9 200.2,106.9 204.3,106.9 208.4,106.9 212.5,113.2 216.6,113.2 220.7,113.2 224.8,113.2 228.9,113.2 233.0,110.7 237.1,105.3 241.2,83.4 245.3,83.4 249.4,85.6 253.5,85.6 257.6,85.6 261.8,85.6 265.9,85.6 270.0,85.8 274.1,85.8 278.2,85.8 282.3,86.0 286.4,86.0 290.5,86.0 294.6,86.0 298.7,86.0 302.8,86.0 306.9,86.0 311.0,86.0 315.1,86.0 319.2,86.0 323.3,86.0 327.4,86.0 331.5,86.0 335.6,86.0 339.7,86.0 343.8,86.0 347.9,86.0 352.1,86.0 356.2,86.0 360.3,86.0 364.4,86.0 368.5,87.0 372.6,87.0 376.7,87.0 380.8,73.7 384.9,73.7 389.0,71.0 393.1,71.0 397.2,70.8 401.3,70.6 405.4,70.6 409.5,70.4 413.6,68.6 417.7,60.5 421.8,59.3 425.9,52.0 430.0,47.3 434.1,40.1 438.2,36.0 442.4,36.0 446.5,36.0 450.6,36.0 454.7,36.0 458.8,36.0 462.9,36.0 467.0,36.0 471.1,36.0 475.2,36.0 479.3,36.0 483.4,36.0 487.5,36.0 491.6,36.0 495.7,36.0 499.8,36.0 503.9,36.0 508.0,36.0 512.1,36.0 516.2,36.0 520.3,36.0 524.4,36.0 528.5,36.0 532.7,36.0 536.8,36.0 540.9,36.0 545.0,36.0 549.1,36.0 553.2,36.0 557.3,36.0 561.4,36.0 565.5,36.0 569.6,36.0 573.7,36.0 577.8,36.0 581.9,36.0 586.0,36.0 590.1,36.0 594.2,36.0 598.3,36.0 602.4,36.0 606.5,36.0 610.6,36.0 614.7,36.0 618.8,36.0 623.0,36.0 627.1,36.0 631.2,36.0 635.3,36.0 639.4,36.0 643.5,36.0 647.6,36.0 651.7,36.0 655.8,36.0 659.9,36.0 664.0,36.0"/><circle cx="36.0" cy="144.3" r="3" fill="#4aa3ff"/><circle cx="40.1" cy="144.3" r="3" fill="#4aa3ff"/><circle cx="44.2" cy="144.3" r="3" fill="#4aa3ff"/><circle cx="48.3" cy="144.3" r="3" fill="#4aa3ff"/><circle cx="52.4" cy="144.3" r="3" fill="#4aa3ff"/><circle cx="56.5" cy="144.3" r="3" fill="#4aa3ff"/><circle cx="60.6" cy="144.3" r="3" fill="#4aa3ff"/><circle cx="64.7" cy="144.3" r="3" fill="#4aa3ff"/><circle cx="68.8" cy="144.3" r="3" fill="#4aa3ff"/><circle cx="72.9" cy="144.3" r="3" fill="#4aa3ff"/><circle cx="77.0" cy="144.3" r="3" fill="#4aa3ff"/><circle cx="81.2" cy="144.3" r="3" fill="#4aa3ff"/><circle cx="85.3" cy="144.3" r="3" fill="#4aa3ff"/><circle cx="89.4" cy="144.3" r="3" fill="#4aa3ff"/><circle cx="93.5" cy="144.3" r="3" fill="#4aa3ff"/><circle cx="97.6" cy="136.2" r="3" fill="#4aa3ff"/><circle cx="101.7" cy="132.4" r="3" fill="#4aa3ff"/><circle cx="105.8" cy="129.6" r="3" fill="#4aa3ff"/><circle cx="109.9" cy="129.6" r="3" fill="#4aa3ff"/><circle cx="114.0" cy="121.0" r="3" fill="#4aa3ff"/><circle cx="118.1" cy="121.0" r="3" fill="#4aa3ff"/><circle cx="122.2" cy="121.0" r="3" fill="#4aa3ff"/><circle cx="126.3" cy="114.4" r="3" fill="#4aa3ff"/><circle cx="130.4" cy="114.4" r="3" fill="#4aa3ff"/><circle cx="134.5" cy="114.4" r="3" fill="#4aa3ff"/><circle cx="138.6" cy="111.3" r="3" fill="#4aa3ff"/><circle cx="142.7" cy="110.9" r="3" fill="#4aa3ff"/><circle cx="146.8" cy="110.9" r="3" fill="#4aa3ff"/><circle cx="150.9" cy="110.5" r="3" fill="#4aa3ff"/><circle cx="155.0" cy="110.5" r="3" fill="#4aa3ff"/><circle cx="159.1" cy="109.9" r="3" fill="#4aa3ff"/><circle cx="163.2" cy="108.7" r="3" fill="#4aa3ff"/><circle cx="167.3" cy="107.3" r="3" fill="#4aa3ff"/><circle cx="171.5" cy="106.9" r="3" fill="#4aa3ff"/><circle cx="175.6" cy="106.9" r="3" fill="#4aa3ff"/><circle cx="179.7" cy="106.9" r="3" fill="#4aa3ff"/><circle cx="183.8" cy="106.9" r="3" fill="#4aa3ff"/><circle cx="187.9" cy="106.9" r="3" fill="#4aa3ff"/><circle cx="192.0" cy="106.9" r="3" fill="#4aa3ff"/><circle cx="196.1" cy="106.9" r="3" fill="#4aa3ff"/><circle cx="200.2" cy="106.9" r="3" fill="#4aa3ff"/><circle cx="204.3" cy="106.9" r="3" fill="#4aa3ff"/><circle cx="208.4" cy="106.9" r="3" fill="#4aa3ff"/><circle cx="212.5" cy="113.2" r="3" fill="#4aa3ff"/><circle cx="216.6" cy="113.2" r="3" fill="#4aa3ff"/><circle cx="220.7" cy="113.2" r="3" fill="#4aa3ff"/><circle cx="224.8" cy="113.2" r="3" fill="#4aa3ff"/><circle cx="228.9" cy="113.2" r="3" fill="#4aa3ff"/><circle cx="233.0" cy="110.7" r="3" fill="#4aa3ff"/><circle cx="237.1" cy="105.3" r="3" fill="#4aa3ff"/><circle cx="241.2" cy="83.4" r="3" fill="#4aa3ff"/><circle cx="245.3" cy="83.4" r="3" fill="#4aa3ff"/><circle cx="249.4" cy="85.6" r="3" fill="#4aa3ff"/><circle cx="253.5" cy="85.6" r="3" fill="#4aa3ff"/><circle cx="257.6" cy="85.6" r="3" fill="#4aa3ff"/><circle cx="261.8" cy="85.6" r="3" fill="#4aa3ff"/><circle cx="265.9" cy="85.6" r="3" fill="#4aa3ff"/><circle cx="270.0" cy="85.8" r="3" fill="#4aa3ff"/><circle cx="274.1" cy="85.8" r="3" fill="#4aa3ff"/><circle cx="278.2" cy="85.8" r="3" fill="#4aa3ff"/><circle cx="282.3" cy="86.0" r="3" fill="#4aa3ff"/><circle cx="286.4" cy="86.0" r="3" fill="#4aa3ff"/><circle cx="290.5" cy="86.0" r="3" fill="#4aa3ff"/><circle cx="294.6" cy="86.0" r="3" fill="#4aa3ff"/><circle cx="298.7" cy="86.0" r="3" fill="#4aa3ff"/><circle cx="302.8" cy="86.0" r="3" fill="#4aa3ff"/><circle cx="306.9" cy="86.0" r="3" fill="#4aa3ff"/><circle cx="311.0" cy="86.0" r="3" fill="#4aa3ff"/><circle cx="315.1" cy="86.0" r="3" fill="#4aa3ff"/><circle cx="319.2" cy="86.0" r="3" fill="#4aa3ff"/><circle cx="323.3" cy="86.0" r="3" fill="#4aa3ff"/><circle cx="327.4" cy="86.0" r="3" fill="#4aa3ff"/><circle cx="331.5" cy="86.0" r="3" fill="#4aa3ff"/><circle cx="335.6" cy="86.0" r="3" fill="#4aa3ff"/><circle cx="339.7" cy="86.0" r="3" fill="#4aa3ff"/><circle cx="343.8" cy="86.0" r="3" fill="#4aa3ff"/><circle cx="347.9" cy="86.0" r="3" fill="#4aa3ff"/><circle cx="352.1" cy="86.0" r="3" fill="#4aa3ff"/><circle cx="356.2" cy="86.0" r="3" fill="#4aa3ff"/><circle cx="360.3" cy="86.0" r="3" fill="#4aa3ff"/><circle cx="364.4" cy="86.0" r="3" fill="#4aa3ff"/><circle cx="368.5" cy="87.0" r="3" fill="#4aa3ff"/><circle cx="372.6" cy="87.0" r="3" fill="#4aa3ff"/><circle cx="376.7" cy="87.0" r="3" fill="#4aa3ff"/><circle cx="380.8" cy="73.7" r="3" fill="#4aa3ff"/><circle cx="384.9" cy="73.7" r="3" fill="#4aa3ff"/><circle cx="389.0" cy="71.0" r="3" fill="#4aa3ff"/><circle cx="393.1" cy="71.0" r="3" fill="#4aa3ff"/><circle cx="397.2" cy="70.8" r="3" fill="#4aa3ff"/><circle cx="401.3" cy="70.6" r="3" fill="#4aa3ff"/><circle cx="405.4" cy="70.6" r="3" fill="#4aa3ff"/><circle cx="409.5" cy="70.4" r="3" fill="#4aa3ff"/><circle cx="413.6" cy="68.6" r="3" fill="#4aa3ff"/><circle cx="417.7" cy="60.5" r="3" fill="#4aa3ff"/><circle cx="421.8" cy="59.3" r="3" fill="#4aa3ff"/><circle cx="425.9" cy="52.0" r="3" fill="#4aa3ff"/><circle cx="430.0" cy="47.3" r="3" fill="#4aa3ff"/><circle cx="434.1" cy="40.1" r="3" fill="#4aa3ff"/><circle cx="438.2" cy="36.0" r="3" fill="#4aa3ff"/><circle cx="442.4" cy="36.0" r="3" fill="#4aa3ff"/><circle cx="446.5" cy="36.0" r="3" fill="#4aa3ff"/><circle cx="450.6" cy="36.0" r="3" fill="#4aa3ff"/><circle cx="454.7" cy="36.0" r="3" fill="#4aa3ff"/><circle cx="458.8" cy="36.0" r="3" fill="#4aa3ff"/><circle cx="462.9" cy="36.0" r="3" fill="#4aa3ff"/><circle cx="467.0" cy="36.0" r="3" fill="#4aa3ff"/><circle cx="471.1" cy="36.0" r="3" fill="#4aa3ff"/><circle cx="475.2" cy="36.0" r="3" fill="#4aa3ff"/><circle cx="479.3" cy="36.0" r="3" fill="#4aa3ff"/><circle cx="483.4" cy="36.0" r="3" fill="#4aa3ff"/><circle cx="487.5" cy="36.0" r="3" fill="#4aa3ff"/><circle cx="491.6" cy="36.0" r="3" fill="#4aa3ff"/><circle cx="495.7" cy="36.0" r="3" fill="#4aa3ff"/><circle cx="499.8" cy="36.0" r="3" fill="#4aa3ff"/><circle cx="503.9" cy="36.0" r="3" fill="#4aa3ff"/><circle cx="508.0" cy="36.0" r="3" fill="#4aa3ff"/><circle cx="512.1" cy="36.0" r="3" fill="#4aa3ff"/><circle cx="516.2" cy="36.0" r="3" fill="#4aa3ff"/><circle cx="520.3" cy="36.0" r="3" fill="#4aa3ff"/><circle cx="524.4" cy="36.0" r="3" fill="#4aa3ff"/><circle cx="528.5" cy="36.0" r="3" fill="#4aa3ff"/><circle cx="532.7" cy="36.0" r="3" fill="#4aa3ff"/><circle cx="536.8" cy="36.0" r="3" fill="#4aa3ff"/><circle cx="540.9" cy="36.0" r="3" fill="#4aa3ff"/><circle cx="545.0" cy="36.0" r="3" fill="#4aa3ff"/><circle cx="549.1" cy="36.0" r="3" fill="#4aa3ff"/><circle cx="553.2" cy="36.0" r="3" fill="#4aa3ff"/><circle cx="557.3" cy="36.0" r="3" fill="#4aa3ff"/><circle cx="561.4" cy="36.0" r="3" fill="#4aa3ff"/><circle cx="565.5" cy="36.0" r="3" fill="#4aa3ff"/><circle cx="569.6" cy="36.0" r="3" fill="#4aa3ff"/><circle cx="573.7" cy="36.0" r="3" fill="#4aa3ff"/><circle cx="577.8" cy="36.0" r="3" fill="#4aa3ff"/><circle cx="581.9" cy="36.0" r="3" fill="#4aa3ff"/><circle cx="586.0" cy="36.0" r="3" fill="#4aa3ff"/><circle cx="590.1" cy="36.0" r="3" fill="#4aa3ff"/><circle cx="594.2" cy="36.0" r="3" fill="#4aa3ff"/><circle cx="598.3" cy="36.0" r="3" fill="#4aa3ff"/><circle cx="602.4" cy="36.0" r="3" fill="#4aa3ff"/><circle cx="606.5" cy="36.0" r="3" fill="#4aa3ff"/><circle cx="610.6" cy="36.0" r="3" fill="#4aa3ff"/><circle cx="614.7" cy="36.0" r="3" fill="#4aa3ff"/><circle cx="618.8" cy="36.0" r="3" fill="#4aa3ff"/><circle cx="623.0" cy="36.0" r="3" fill="#4aa3ff"/><circle cx="627.1" cy="36.0" r="3" fill="#4aa3ff"/><circle cx="631.2" cy="36.0" r="3" fill="#4aa3ff"/><circle cx="635.3" cy="36.0" r="3" fill="#4aa3ff"/><circle cx="639.4" cy="36.0" r="3" fill="#4aa3ff"/><circle cx="643.5" cy="36.0" r="3" fill="#4aa3ff"/><circle cx="647.6" cy="36.0" r="3" fill="#4aa3ff"/><circle cx="651.7" cy="36.0" r="3" fill="#4aa3ff"/><circle cx="655.8" cy="36.0" r="3" fill="#4aa3ff"/><circle cx="659.9" cy="36.0" r="3" fill="#4aa3ff"/><circle cx="664.0" cy="36.0" r="3" fill="#4aa3ff"/>
<text x="36" y="225" fill="#6b7280" font-size="11">2026-06-26</text>
<text x="664" y="225" fill="#6b7280" font-size="11" text-anchor="end">2026-07-12</text>
<text x="36" y="212" font-family="system-ui,sans-serif" font-size="11">
<tspan fill="#4aa3ff">&#9679; open FPs</tspan>  <tspan fill="#3fb950">&#9679; closed (Anthropic acting)</tspan>  <tspan fill="#8a5a5a">&#9679; harness withdrawn</tspan></text>
<text x="664" y="22" text-anchor="end" font-family="system-ui,sans-serif" font-size="12">
<tspan fill="#4aa3ff">open 800</tspan>  <tspan fill="#3fb950">closed 0</tspan>  <tspan fill="#8a5a5a">harness 0</tspan></text>
</svg>