<svg xmlns="http://www.w3.org/2000/svg" width="700" height="234" viewBox="0 0 700 234" role="img">
<rect width="700" height="234" rx="12" fill="#16181d"/>
<text x="36" y="22" fill="#e8eaed" font-family="system-ui,sans-serif" font-size="14" font-weight="700">Is Anthropic acting? cyber/aup false positives over time</text>
<line x1="36" y1="198.0" x2="664" y2="198.0" stroke="#2a2e37" stroke-width="1"/><text x="30" y="202.0" fill="#6b7280" font-size="11" text-anchor="end">0</text><line x1="36" y1="117.0" x2="664" y2="117.0" stroke="#2a2e37" stroke-width="1"/><text x="30" y="121.0" fill="#6b7280" font-size="11" text-anchor="end">342</text><line x1="36" y1="36.0" x2="664" y2="36.0" stroke="#2a2e37" stroke-width="1"/><text x="30" y="40.0" fill="#6b7280" font-size="11" text-anchor="end">685</text>

<polyline fill="none" stroke="#8a5a5a" stroke-width="2.5" stroke-linejoin="round" points="36.0,136.3 42.7,136.3 49.4,136.3 56.0,136.3 62.7,136.3 69.4,136.3 76.1,136.3 82.8,136.3 89.4,136.3 96.1,136.3 102.8,136.3 109.5,136.3 116.2,136.3 122.9,136.3 129.5,136.3 136.2,136.3 142.9,136.3 149.6,136.3 156.3,136.3 162.9,136.3 169.6,136.3 176.3,136.3 183.0,136.3 189.7,136.3 196.3,136.3 203.0,136.3 209.7,136.3 216.4,136.3 223.1,136.3 229.7,136.3 236.4,136.3 243.1,136.3 249.8,136.3 256.5,136.3 263.1,136.3 269.8,136.3 276.5,136.3 283.2,136.3 289.9,136.3 296.6,136.3 303.2,136.3 309.9,136.3 316.6,136.3 323.3,136.3 330.0,136.3 336.6,136.3 343.3,136.3 350.0,136.3 356.7,136.3 363.4,136.3 370.0,148.6 376.7,148.6 383.4,148.6 390.1,148.6 396.8,148.6 403.4,148.6 410.1,148.6 416.8,148.6 423.5,148.6 430.2,148.6 436.9,148.6 443.5,148.6 450.2,148.6 456.9,148.6 463.6,148.6 470.3,148.6 476.9,148.6 483.6,148.6 490.3,148.6 497.0,148.6 503.7,148.6 510.3,148.6 517.0,148.6 523.7,148.6 530.4,148.6 537.1,148.6 543.7,148.6 550.4,148.6 557.1,148.6 563.8,148.6 570.5,148.6 577.1,148.6 583.8,148.6 590.5,148.6 597.2,162.5 603.9,162.5 610.6,165.6 617.2,165.6 623.9,165.8 630.6,166.1 637.3,166.1 644.0,166.3 650.6,168.4 657.3,177.7 664.0,179.1"/><circle cx="36.0" cy="136.3" r="3" fill="#8a5a5a"/><circle cx="42.7" cy="136.3" r="3" fill="#8a5a5a"/><circle cx="49.4" cy="136.3" r="3" fill="#8a5a5a"/><circle cx="56.0" cy="136.3" r="3" fill="#8a5a5a"/><circle cx="62.7" cy="136.3" r="3" fill="#8a5a5a"/><circle cx="69.4" cy="136.3" r="3" fill="#8a5a5a"/><circle cx="76.1" cy="136.3" r="3" fill="#8a5a5a"/><circle cx="82.8" cy="136.3" r="3" fill="#8a5a5a"/><circle cx="89.4" cy="136.3" r="3" fill="#8a5a5a"/><circle cx="96.1" cy="136.3" r="3" fill="#8a5a5a"/><circle cx="102.8" cy="136.3" r="3" fill="#8a5a5a"/><circle cx="109.5" cy="136.3" r="3" fill="#8a5a5a"/><circle cx="116.2" cy="136.3" r="3" fill="#8a5a5a"/><circle cx="122.9" cy="136.3" r="3" fill="#8a5a5a"/><circle cx="129.5" cy="136.3" r="3" fill="#8a5a5a"/><circle cx="136.2" cy="136.3" r="3" fill="#8a5a5a"/><circle cx="142.9" cy="136.3" r="3" fill="#8a5a5a"/><circle cx="149.6" cy="136.3" r="3" fill="#8a5a5a"/><circle cx="156.3" cy="136.3" r="3" fill="#8a5a5a"/><circle cx="162.9" cy="136.3" r="3" fill="#8a5a5a"/><circle cx="169.6" cy="136.3" r="3" fill="#8a5a5a"/><circle cx="176.3" cy="136.3" r="3" fill="#8a5a5a"/><circle cx="183.0" cy="136.3" r="3" fill="#8a5a5a"/><circle cx="189.7" cy="136.3" r="3" fill="#8a5a5a"/><circle cx="196.3" cy="136.3" r="3" fill="#8a5a5a"/><circle cx="203.0" cy="136.3" r="3" fill="#8a5a5a"/><circle cx="209.7" cy="136.3" r="3" fill="#8a5a5a"/><circle cx="216.4" cy="136.3" r="3" fill="#8a5a5a"/><circle cx="223.1" cy="136.3" r="3" fill="#8a5a5a"/><circle cx="229.7" cy="136.3" r="3" fill="#8a5a5a"/><circle cx="236.4" cy="136.3" r="3" fill="#8a5a5a"/><circle cx="243.1" cy="136.3" r="3" fill="#8a5a5a"/><circle cx="249.8" cy="136.3" r="3" fill="#8a5a5a"/><circle cx="256.5" cy="136.3" r="3" fill="#8a5a5a"/><circle cx="263.1" cy="136.3" r="3" fill="#8a5a5a"/><circle cx="269.8" cy="136.3" r="3" fill="#8a5a5a"/><circle cx="276.5" cy="136.3" r="3" fill="#8a5a5a"/><circle cx="283.2" cy="136.3" r="3" fill="#8a5a5a"/><circle cx="289.9" cy="136.3" r="3" fill="#8a5a5a"/><circle cx="296.6" cy="136.3" r="3" fill="#8a5a5a"/><circle cx="303.2" cy="136.3" r="3" fill="#8a5a5a"/><circle cx="309.9" cy="136.3" r="3" fill="#8a5a5a"/><circle cx="316.6" cy="136.3" r="3" fill="#8a5a5a"/><circle cx="323.3" cy="136.3" r="3" fill="#8a5a5a"/><circle cx="330.0" cy="136.3" r="3" fill="#8a5a5a"/><circle cx="336.6" cy="136.3" r="3" fill="#8a5a5a"/><circle cx="343.3" cy="136.3" r="3" fill="#8a5a5a"/><circle cx="350.0" cy="136.3" r="3" fill="#8a5a5a"/><circle cx="356.7" cy="136.3" r="3" fill="#8a5a5a"/><circle cx="363.4" cy="136.3" r="3" fill="#8a5a5a"/><circle cx="370.0" cy="148.6" r="3" fill="#8a5a5a"/><circle cx="376.7" cy="148.6" r="3" fill="#8a5a5a"/><circle cx="383.4" cy="148.6" r="3" fill="#8a5a5a"/><circle cx="390.1" cy="148.6" r="3" fill="#8a5a5a"/><circle cx="396.8" cy="148.6" r="3" fill="#8a5a5a"/><circle cx="403.4" cy="148.6" r="3" fill="#8a5a5a"/><circle cx="410.1" cy="148.6" r="3" fill="#8a5a5a"/><circle cx="416.8" cy="148.6" r="3" fill="#8a5a5a"/><circle cx="423.5" cy="148.6" r="3" fill="#8a5a5a"/><circle cx="430.2" cy="148.6" r="3" fill="#8a5a5a"/><circle cx="436.9" cy="148.6" r="3" fill="#8a5a5a"/><circle cx="443.5" cy="148.6" r="3" fill="#8a5a5a"/><circle cx="450.2" cy="148.6" r="3" fill="#8a5a5a"/><circle cx="456.9" cy="148.6" r="3" fill="#8a5a5a"/><circle cx="463.6" cy="148.6" r="3" fill="#8a5a5a"/><circle cx="470.3" cy="148.6" r="3" fill="#8a5a5a"/><circle cx="476.9" cy="148.6" r="3" fill="#8a5a5a"/><circle cx="483.6" cy="148.6" r="3" fill="#8a5a5a"/><circle cx="490.3" cy="148.6" r="3" fill="#8a5a5a"/><circle cx="497.0" cy="148.6" r="3" fill="#8a5a5a"/><circle cx="503.7" cy="148.6" r="3" fill="#8a5a5a"/><circle cx="510.3" cy="148.6" r="3" fill="#8a5a5a"/><circle cx="517.0" cy="148.6" r="3" fill="#8a5a5a"/><circle cx="523.7" cy="148.6" r="3" fill="#8a5a5a"/><circle cx="530.4" cy="148.6" r="3" fill="#8a5a5a"/><circle cx="537.1" cy="148.6" r="3" fill="#8a5a5a"/><circle cx="543.7" cy="148.6" r="3" fill="#8a5a5a"/><circle cx="550.4" cy="148.6" r="3" fill="#8a5a5a"/><circle cx="557.1" cy="148.6" r="3" fill="#8a5a5a"/><circle cx="563.8" cy="148.6" r="3" fill="#8a5a5a"/><circle cx="570.5" cy="148.6" r="3" fill="#8a5a5a"/><circle cx="577.1" cy="148.6" r="3" fill="#8a5a5a"/><circle cx="583.8" cy="148.6" r="3" fill="#8a5a5a"/><circle cx="590.5" cy="148.6" r="3" fill="#8a5a5a"/><circle cx="597.2" cy="162.5" r="3" fill="#8a5a5a"/><circle cx="603.9" cy="162.5" r="3" fill="#8a5a5a"/><circle cx="610.6" cy="165.6" r="3" fill="#8a5a5a"/><circle cx="617.2" cy="165.6" r="3" fill="#8a5a5a"/><circle cx="623.9" cy="165.8" r="3" fill="#8a5a5a"/><circle cx="630.6" cy="166.1" r="3" fill="#8a5a5a"/><circle cx="637.3" cy="166.1" r="3" fill="#8a5a5a"/><circle cx="644.0" cy="166.3" r="3" fill="#8a5a5a"/><circle cx="650.6" cy="168.4" r="3" fill="#8a5a5a"/><circle cx="657.3" cy="177.7" r="3" fill="#8a5a5a"/><circle cx="664.0" cy="179.1" r="3" fill="#8a5a5a"/>
<polyline fill="none" stroke="#3fb950" stroke-width="2.5" stroke-linejoin="round" points="36.0,198.0 42.7,198.0 49.4,198.0 56.0,198.0 62.7,198.0 69.4,198.0 76.1,198.0 82.8,198.0 89.4,198.0 96.1,198.0 102.8,198.0 109.5,198.0 116.2,198.0 122.9,198.0 129.5,198.0 136.2,198.0 142.9,198.0 149.6,198.0 156.3,198.0 162.9,198.0 169.6,198.0 176.3,198.0 183.0,198.0 189.7,198.0 196.3,198.0 203.0,198.0 209.7,198.0 216.4,198.0 223.1,198.0 229.7,198.0 236.4,198.0 243.1,198.0 249.8,198.0 256.5,198.0 263.1,198.0 269.8,198.0 276.5,198.0 283.2,198.0 289.9,198.0 296.6,198.0 303.2,198.0 309.9,198.0 316.6,198.0 323.3,190.7 330.0,190.7 336.6,190.7 343.3,190.7 350.0,190.7 356.7,190.7 363.4,190.7 370.0,192.1 376.7,192.1 383.4,189.5 390.1,189.5 396.8,189.5 403.4,189.5 410.1,189.5 416.8,189.2 423.5,189.2 430.2,189.2 436.9,189.0 443.5,189.0 450.2,189.0 456.9,189.0 463.6,189.0 470.3,189.0 476.9,189.0 483.6,189.0 490.3,189.0 497.0,189.0 503.7,189.0 510.3,189.0 517.0,189.0 523.7,189.0 530.4,189.0 537.1,189.0 543.7,189.0 550.4,189.0 557.1,189.0 563.8,189.0 570.5,189.0 577.1,187.8 583.8,187.8 590.5,187.8 597.2,189.5 603.9,189.5 610.6,189.5 617.2,189.5 623.9,189.5 630.6,189.5 637.3,189.5 644.0,189.5 650.6,189.5 657.3,189.7 664.0,189.7"/><circle cx="36.0" cy="198.0" r="3" fill="#3fb950"/><circle cx="42.7" cy="198.0" r="3" fill="#3fb950"/><circle cx="49.4" cy="198.0" r="3" fill="#3fb950"/><circle cx="56.0" cy="198.0" r="3" fill="#3fb950"/><circle cx="62.7" cy="198.0" r="3" fill="#3fb950"/><circle cx="69.4" cy="198.0" r="3" fill="#3fb950"/><circle cx="76.1" cy="198.0" r="3" fill="#3fb950"/><circle cx="82.8" cy="198.0" r="3" fill="#3fb950"/><circle cx="89.4" cy="198.0" r="3" fill="#3fb950"/><circle cx="96.1" cy="198.0" r="3" fill="#3fb950"/><circle cx="102.8" cy="198.0" r="3" fill="#3fb950"/><circle cx="109.5" cy="198.0" r="3" fill="#3fb950"/><circle cx="116.2" cy="198.0" r="3" fill="#3fb950"/><circle cx="122.9" cy="198.0" r="3" fill="#3fb950"/><circle cx="129.5" cy="198.0" r="3" fill="#3fb950"/><circle cx="136.2" cy="198.0" r="3" fill="#3fb950"/><circle cx="142.9" cy="198.0" r="3" fill="#3fb950"/><circle cx="149.6" cy="198.0" r="3" fill="#3fb950"/><circle cx="156.3" cy="198.0" r="3" fill="#3fb950"/><circle cx="162.9" cy="198.0" r="3" fill="#3fb950"/><circle cx="169.6" cy="198.0" r="3" fill="#3fb950"/><circle cx="176.3" cy="198.0" r="3" fill="#3fb950"/><circle cx="183.0" cy="198.0" r="3" fill="#3fb950"/><circle cx="189.7" cy="198.0" r="3" fill="#3fb950"/><circle cx="196.3" cy="198.0" r="3" fill="#3fb950"/><circle cx="203.0" cy="198.0" r="3" fill="#3fb950"/><circle cx="209.7" cy="198.0" r="3" fill="#3fb950"/><circle cx="216.4" cy="198.0" r="3" fill="#3fb950"/><circle cx="223.1" cy="198.0" r="3" fill="#3fb950"/><circle cx="229.7" cy="198.0" r="3" fill="#3fb950"/><circle cx="236.4" cy="198.0" r="3" fill="#3fb950"/><circle cx="243.1" cy="198.0" r="3" fill="#3fb950"/><circle cx="249.8" cy="198.0" r="3" fill="#3fb950"/><circle cx="256.5" cy="198.0" r="3" fill="#3fb950"/><circle cx="263.1" cy="198.0" r="3" fill="#3fb950"/><circle cx="269.8" cy="198.0" r="3" fill="#3fb950"/><circle cx="276.5" cy="198.0" r="3" fill="#3fb950"/><circle cx="283.2" cy="198.0" r="3" fill="#3fb950"/><circle cx="289.9" cy="198.0" r="3" fill="#3fb950"/><circle cx="296.6" cy="198.0" r="3" fill="#3fb950"/><circle cx="303.2" cy="198.0" r="3" fill="#3fb950"/><circle cx="309.9" cy="198.0" r="3" fill="#3fb950"/><circle cx="316.6" cy="198.0" r="3" fill="#3fb950"/><circle cx="323.3" cy="190.7" r="3" fill="#3fb950"/><circle cx="330.0" cy="190.7" r="3" fill="#3fb950"/><circle cx="336.6" cy="190.7" r="3" fill="#3fb950"/><circle cx="343.3" cy="190.7" r="3" fill="#3fb950"/><circle cx="350.0" cy="190.7" r="3" fill="#3fb950"/><circle cx="356.7" cy="190.7" r="3" fill="#3fb950"/><circle cx="363.4" cy="190.7" r="3" fill="#3fb950"/><circle cx="370.0" cy="192.1" r="3" fill="#3fb950"/><circle cx="376.7" cy="192.1" r="3" fill="#3fb950"/><circle cx="383.4" cy="189.5" r="3" fill="#3fb950"/><circle cx="390.1" cy="189.5" r="3" fill="#3fb950"/><circle cx="396.8" cy="189.5" r="3" fill="#3fb950"/><circle cx="403.4" cy="189.5" r="3" fill="#3fb950"/><circle cx="410.1" cy="189.5" r="3" fill="#3fb950"/><circle cx="416.8" cy="189.2" r="3" fill="#3fb950"/><circle cx="423.5" cy="189.2" r="3" fill="#3fb950"/><circle cx="430.2" cy="189.2" r="3" fill="#3fb950"/><circle cx="436.9" cy="189.0" r="3" fill="#3fb950"/><circle cx="443.5" cy="189.0" r="3" fill="#3fb950"/><circle cx="450.2" cy="189.0" r="3" fill="#3fb950"/><circle cx="456.9" cy="189.0" r="3" fill="#3fb950"/><circle cx="463.6" cy="189.0" r="3" fill="#3fb950"/><circle cx="470.3" cy="189.0" r="3" fill="#3fb950"/><circle cx="476.9" cy="189.0" r="3" fill="#3fb950"/><circle cx="483.6" cy="189.0" r="3" fill="#3fb950"/><circle cx="490.3" cy="189.0" r="3" fill="#3fb950"/><circle cx="497.0" cy="189.0" r="3" fill="#3fb950"/><circle cx="503.7" cy="189.0" r="3" fill="#3fb950"/><circle cx="510.3" cy="189.0" r="3" fill="#3fb950"/><circle cx="517.0" cy="189.0" r="3" fill="#3fb950"/><circle cx="523.7" cy="189.0" r="3" fill="#3fb950"/><circle cx="530.4" cy="189.0" r="3" fill="#3fb950"/><circle cx="537.1" cy="189.0" r="3" fill="#3fb950"/><circle cx="543.7" cy="189.0" r="3" fill="#3fb950"/><circle cx="550.4" cy="189.0" r="3" fill="#3fb950"/><circle cx="557.1" cy="189.0" r="3" fill="#3fb950"/><circle cx="563.8" cy="189.0" r="3" fill="#3fb950"/><circle cx="570.5" cy="189.0" r="3" fill="#3fb950"/><circle cx="577.1" cy="187.8" r="3" fill="#3fb950"/><circle cx="583.8" cy="187.8" r="3" fill="#3fb950"/><circle cx="590.5" cy="187.8" r="3" fill="#3fb950"/><circle cx="597.2" cy="189.5" r="3" fill="#3fb950"/><circle cx="603.9" cy="189.5" r="3" fill="#3fb950"/><circle cx="610.6" cy="189.5" r="3" fill="#3fb950"/><circle cx="617.2" cy="189.5" r="3" fill="#3fb950"/><circle cx="623.9" cy="189.5" r="3" fill="#3fb950"/><circle cx="630.6" cy="189.5" r="3" fill="#3fb950"/><circle cx="637.3" cy="189.5" r="3" fill="#3fb950"/><circle cx="644.0" cy="189.5" r="3" fill="#3fb950"/><circle cx="650.6" cy="189.5" r="3" fill="#3fb950"/><circle cx="657.3" cy="189.7" r="3" fill="#3fb950"/><circle cx="664.0" cy="189.7" r="3" fill="#3fb950"/>
<polyline fill="none" stroke="#4aa3ff" stroke-width="2.5" stroke-linejoin="round" points="36.0,135.3 42.7,135.3 49.4,135.3 56.0,135.3 62.7,135.3 69.4,135.3 76.1,135.3 82.8,135.3 89.4,135.3 96.1,135.3 102.8,135.3 109.5,135.3 116.2,135.3 122.9,135.3 129.5,135.3 136.2,125.9 142.9,121.4 149.6,118.1 156.3,118.1 162.9,108.1 169.6,108.1 176.3,108.1 183.0,100.3 189.7,100.3 196.3,100.3 203.0,96.8 209.7,96.3 216.4,96.3 223.1,95.8 229.7,95.8 236.4,95.1 243.1,93.7 249.8,92.0 256.5,91.6 263.1,91.6 269.8,91.6 276.5,91.6 283.2,91.6 289.9,91.6 296.6,91.6 303.2,91.6 309.9,91.6 316.6,91.6 323.3,98.9 330.0,98.9 336.6,98.9 343.3,98.9 350.0,98.9 356.7,96.1 363.4,89.7 370.0,64.1 376.7,64.1 383.4,66.7 390.1,66.7 396.8,66.7 403.4,66.7 410.1,66.7 416.8,67.0 423.5,67.0 430.2,67.0 436.9,67.2 443.5,67.2 450.2,67.2 456.9,67.2 463.6,67.2 470.3,67.2 476.9,67.2 483.6,67.2 490.3,67.2 497.0,67.2 503.7,67.2 510.3,67.2 517.0,67.2 523.7,67.2 530.4,67.2 537.1,67.2 543.7,67.2 550.4,67.2 557.1,67.2 563.8,67.2 570.5,67.2 577.1,68.4 583.8,68.4 590.5,68.4 597.2,52.8 603.9,52.8 610.6,49.7 617.2,49.7 623.9,49.5 630.6,49.2 637.3,49.2 644.0,49.0 650.6,46.9 657.3,37.4 664.0,36.0"/><circle cx="36.0" cy="135.3" r="3" fill="#4aa3ff"/><circle cx="42.7" cy="135.3" r="3" fill="#4aa3ff"/><circle cx="49.4" cy="135.3" r="3" fill="#4aa3ff"/><circle cx="56.0" cy="135.3" r="3" fill="#4aa3ff"/><circle cx="62.7" cy="135.3" r="3" fill="#4aa3ff"/><circle cx="69.4" cy="135.3" r="3" fill="#4aa3ff"/><circle cx="76.1" cy="135.3" r="3" fill="#4aa3ff"/><circle cx="82.8" cy="135.3" r="3" fill="#4aa3ff"/><circle cx="89.4" cy="135.3" r="3" fill="#4aa3ff"/><circle cx="96.1" cy="135.3" r="3" fill="#4aa3ff"/><circle cx="102.8" cy="135.3" r="3" fill="#4aa3ff"/><circle cx="109.5" cy="135.3" r="3" fill="#4aa3ff"/><circle cx="116.2" cy="135.3" r="3" fill="#4aa3ff"/><circle cx="122.9" cy="135.3" r="3" fill="#4aa3ff"/><circle cx="129.5" cy="135.3" r="3" fill="#4aa3ff"/><circle cx="136.2" cy="125.9" r="3" fill="#4aa3ff"/><circle cx="142.9" cy="121.4" r="3" fill="#4aa3ff"/><circle cx="149.6" cy="118.1" r="3" fill="#4aa3ff"/><circle cx="156.3" cy="118.1" r="3" fill="#4aa3ff"/><circle cx="162.9" cy="108.1" r="3" fill="#4aa3ff"/><circle cx="169.6" cy="108.1" r="3" fill="#4aa3ff"/><circle cx="176.3" cy="108.1" r="3" fill="#4aa3ff"/><circle cx="183.0" cy="100.3" r="3" fill="#4aa3ff"/><circle cx="189.7" cy="100.3" r="3" fill="#4aa3ff"/><circle cx="196.3" cy="100.3" r="3" fill="#4aa3ff"/><circle cx="203.0" cy="96.8" r="3" fill="#4aa3ff"/><circle cx="209.7" cy="96.3" r="3" fill="#4aa3ff"/><circle cx="216.4" cy="96.3" r="3" fill="#4aa3ff"/><circle cx="223.1" cy="95.8" r="3" fill="#4aa3ff"/><circle cx="229.7" cy="95.8" r="3" fill="#4aa3ff"/><circle cx="236.4" cy="95.1" r="3" fill="#4aa3ff"/><circle cx="243.1" cy="93.7" r="3" fill="#4aa3ff"/><circle cx="249.8" cy="92.0" r="3" fill="#4aa3ff"/><circle cx="256.5" cy="91.6" r="3" fill="#4aa3ff"/><circle cx="263.1" cy="91.6" r="3" fill="#4aa3ff"/><circle cx="269.8" cy="91.6" r="3" fill="#4aa3ff"/><circle cx="276.5" cy="91.6" r="3" fill="#4aa3ff"/><circle cx="283.2" cy="91.6" r="3" fill="#4aa3ff"/><circle cx="289.9" cy="91.6" r="3" fill="#4aa3ff"/><circle cx="296.6" cy="91.6" r="3" fill="#4aa3ff"/><circle cx="303.2" cy="91.6" r="3" fill="#4aa3ff"/><circle cx="309.9" cy="91.6" r="3" fill="#4aa3ff"/><circle cx="316.6" cy="91.6" r="3" fill="#4aa3ff"/><circle cx="323.3" cy="98.9" r="3" fill="#4aa3ff"/><circle cx="330.0" cy="98.9" r="3" fill="#4aa3ff"/><circle cx="336.6" cy="98.9" r="3" fill="#4aa3ff"/><circle cx="343.3" cy="98.9" r="3" fill="#4aa3ff"/><circle cx="350.0" cy="98.9" r="3" fill="#4aa3ff"/><circle cx="356.7" cy="96.1" r="3" fill="#4aa3ff"/><circle cx="363.4" cy="89.7" r="3" fill="#4aa3ff"/><circle cx="370.0" cy="64.1" r="3" fill="#4aa3ff"/><circle cx="376.7" cy="64.1" r="3" fill="#4aa3ff"/><circle cx="383.4" cy="66.7" r="3" fill="#4aa3ff"/><circle cx="390.1" cy="66.7" r="3" fill="#4aa3ff"/><circle cx="396.8" cy="66.7" r="3" fill="#4aa3ff"/><circle cx="403.4" cy="66.7" r="3" fill="#4aa3ff"/><circle cx="410.1" cy="66.7" r="3" fill="#4aa3ff"/><circle cx="416.8" cy="67.0" r="3" fill="#4aa3ff"/><circle cx="423.5" cy="67.0" r="3" fill="#4aa3ff"/><circle cx="430.2" cy="67.0" r="3" fill="#4aa3ff"/><circle cx="436.9" cy="67.2" r="3" fill="#4aa3ff"/><circle cx="443.5" cy="67.2" r="3" fill="#4aa3ff"/><circle cx="450.2" cy="67.2" r="3" fill="#4aa3ff"/><circle cx="456.9" cy="67.2" r="3" fill="#4aa3ff"/><circle cx="463.6" cy="67.2" r="3" fill="#4aa3ff"/><circle cx="470.3" cy="67.2" r="3" fill="#4aa3ff"/><circle cx="476.9" cy="67.2" r="3" fill="#4aa3ff"/><circle cx="483.6" cy="67.2" r="3" fill="#4aa3ff"/><circle cx="490.3" cy="67.2" r="3" fill="#4aa3ff"/><circle cx="497.0" cy="67.2" r="3" fill="#4aa3ff"/><circle cx="503.7" cy="67.2" r="3" fill="#4aa3ff"/><circle cx="510.3" cy="67.2" r="3" fill="#4aa3ff"/><circle cx="517.0" cy="67.2" r="3" fill="#4aa3ff"/><circle cx="523.7" cy="67.2" r="3" fill="#4aa3ff"/><circle cx="530.4" cy="67.2" r="3" fill="#4aa3ff"/><circle cx="537.1" cy="67.2" r="3" fill="#4aa3ff"/><circle cx="543.7" cy="67.2" r="3" fill="#4aa3ff"/><circle cx="550.4" cy="67.2" r="3" fill="#4aa3ff"/><circle cx="557.1" cy="67.2" r="3" fill="#4aa3ff"/><circle cx="563.8" cy="67.2" r="3" fill="#4aa3ff"/><circle cx="570.5" cy="67.2" r="3" fill="#4aa3ff"/><circle cx="577.1" cy="68.4" r="3" fill="#4aa3ff"/><circle cx="583.8" cy="68.4" r="3" fill="#4aa3ff"/><circle cx="590.5" cy="68.4" r="3" fill="#4aa3ff"/><circle cx="597.2" cy="52.8" r="3" fill="#4aa3ff"/><circle cx="603.9" cy="52.8" r="3" fill="#4aa3ff"/><circle cx="610.6" cy="49.7" r="3" fill="#4aa3ff"/><circle cx="617.2" cy="49.7" r="3" fill="#4aa3ff"/><circle cx="623.9" cy="49.5" r="3" fill="#4aa3ff"/><circle cx="630.6" cy="49.2" r="3" fill="#4aa3ff"/><circle cx="637.3" cy="49.2" r="3" fill="#4aa3ff"/><circle cx="644.0" cy="49.0" r="3" fill="#4aa3ff"/><circle cx="650.6" cy="46.9" r="3" fill="#4aa3ff"/><circle cx="657.3" cy="37.4" r="3" fill="#4aa3ff"/><circle cx="664.0" cy="36.0" r="3" fill="#4aa3ff"/>
<text x="36" y="225" fill="#6b7280" font-size="11">2026-06-26</text>
<text x="664" y="225" fill="#6b7280" font-size="11" text-anchor="end">2026-07-06</text>
<text x="36" y="212" font-family="system-ui,sans-serif" font-size="11">
<tspan fill="#4aa3ff">&#9679; open FPs</tspan>  <tspan fill="#3fb950">&#9679; closed (Anthropic acting)</tspan>  <tspan fill="#8a5a5a">&#9679; harness withdrawn</tspan></text>
<text x="664" y="22" text-anchor="end" font-family="system-ui,sans-serif" font-size="12">
<tspan fill="#4aa3ff">open 685</tspan>  <tspan fill="#3fb950">closed 35</tspan>  <tspan fill="#8a5a5a">harness 80</tspan></text>
</svg>