<svg xmlns="http://www.w3.org/2000/svg" width="700" height="234" viewBox="0 0 700 234" role="img">
<rect width="700" height="234" rx="12" fill="#16181d"/>
<text x="36" y="22" fill="#e8eaed" font-family="system-ui,sans-serif" font-size="14" font-weight="700">Is Anthropic acting? cyber/aup false positives over time</text>
<line x1="36" y1="198.0" x2="664" y2="198.0" stroke="#2a2e37" stroke-width="1"/><text x="30" y="202.0" fill="#6b7280" font-size="11" text-anchor="end">0</text><line x1="36" y1="117.0" x2="664" y2="117.0" stroke="#2a2e37" stroke-width="1"/><text x="30" y="121.0" fill="#6b7280" font-size="11" text-anchor="end">400</text><line x1="36" y1="36.0" x2="664" y2="36.0" stroke="#2a2e37" stroke-width="1"/><text x="30" y="40.0" fill="#6b7280" font-size="11" text-anchor="end">800</text>

<polyline fill="none" stroke="#8a5a5a" stroke-width="2.5" stroke-linejoin="round" points="36.0,145.1 38.6,145.1 41.2,145.1 43.9,145.1 46.5,145.1 49.1,145.1 51.7,145.1 54.3,145.1 56.9,145.1 59.5,145.1 62.2,145.1 64.8,145.1 67.4,145.1 70.0,145.1 72.6,145.1 75.2,145.1 77.9,145.1 80.5,145.1 83.1,145.1 85.7,145.1 88.3,145.1 90.9,145.1 93.6,145.1 96.2,145.1 98.8,145.1 101.4,145.1 104.0,145.1 106.7,145.1 109.3,145.1 111.9,145.1 114.5,145.1 117.1,145.1 119.7,145.1 122.4,145.1 125.0,145.1 127.6,145.1 130.2,145.1 132.8,145.1 135.4,145.1 138.1,145.1 140.7,145.1 143.3,145.1 145.9,145.1 148.5,145.1 151.1,145.1 153.8,145.1 156.4,145.1 159.0,145.1 161.6,145.1 164.2,145.1 166.8,155.7 169.4,155.7 172.1,155.7 174.7,155.7 177.3,155.7 179.9,155.7 182.5,155.7 185.2,155.7 187.8,155.7 190.4,155.7 193.0,155.7 195.6,155.7 198.2,155.7 200.8,155.7 203.5,155.7 206.1,155.7 208.7,155.7 211.3,155.7 213.9,155.7 216.5,155.7 219.2,155.7 221.8,155.7 224.4,155.7 227.0,155.7 229.6,155.7 232.2,155.7 234.9,155.7 237.5,155.7 240.1,155.7 242.7,155.7 245.3,155.7 248.0,155.7 250.6,155.7 253.2,155.7 255.8,167.6 258.4,167.6 261.0,170.3 263.6,170.3 266.3,170.5 268.9,170.7 271.5,170.7 274.1,170.9 276.7,172.7 279.4,180.6 282.0,181.8 284.6,189.1 287.2,190.5 289.8,195.2 292.4,198.0 295.1,198.0 297.7,198.0 300.3,198.0 302.9,198.0 305.5,198.0 308.1,198.0 310.8,198.0 313.4,198.0 316.0,198.0 318.6,198.0 321.2,198.0 323.8,198.0 326.4,198.0 329.1,198.0 331.7,198.0 334.3,198.0 336.9,198.0 339.5,198.0 342.1,198.0 344.8,198.0 347.4,198.0 350.0,198.0 352.6,198.0 355.2,198.0 357.8,198.0 360.5,198.0 363.1,198.0 365.7,198.0 368.3,198.0 370.9,198.0 373.6,198.0 376.2,198.0 378.8,198.0 381.4,198.0 384.0,198.0 386.6,198.0 389.2,198.0 391.9,198.0 394.5,198.0 397.1,198.0 399.7,198.0 402.3,198.0 404.9,198.0 407.6,198.0 410.2,198.0 412.8,198.0 415.4,198.0 418.0,198.0 420.7,198.0 423.3,198.0 425.9,198.0 428.5,198.0 431.1,198.0 433.7,198.0 436.3,198.0 439.0,198.0 441.6,198.0 444.2,198.0 446.8,198.0 449.4,198.0 452.1,198.0 454.7,198.0 457.3,198.0 459.9,198.0 462.5,198.0 465.1,198.0 467.8,198.0 470.4,198.0 473.0,198.0 475.6,198.0 478.2,198.0 480.8,198.0 483.4,198.0 486.1,198.0 488.7,198.0 491.3,198.0 493.9,198.0 496.5,198.0 499.2,198.0 501.8,198.0 504.4,198.0 507.0,198.0 509.6,198.0 512.2,198.0 514.8,198.0 517.5,198.0 520.1,198.0 522.7,198.0 525.3,198.0 527.9,198.0 530.5,198.0 533.2,198.0 535.8,198.0 538.4,198.0 541.0,198.0 543.6,198.0 546.2,198.0 548.9,198.0 551.5,198.0 554.1,198.0 556.7,198.0 559.3,198.0 562.0,198.0 564.6,198.0 567.2,198.0 569.8,198.0 572.4,198.0 575.0,198.0 577.6,198.0 580.3,198.0 582.9,198.0 585.5,198.0 588.1,198.0 590.7,198.0 593.4,198.0 596.0,198.0 598.6,198.0 601.2,198.0 603.8,198.0 606.4,198.0 609.0,198.0 611.7,198.0 614.3,198.0 616.9,198.0 619.5,198.0 622.1,198.0 624.8,198.0 627.4,198.0 630.0,198.0 632.6,198.0 635.2,198.0 637.8,198.0 640.5,198.0 643.1,198.0 645.7,198.0 648.3,198.0 650.9,198.0 653.5,198.0 656.1,198.0 658.8,198.0 661.4,198.0 664.0,198.0"/><circle cx="36.0" cy="145.1" r="3" fill="#8a5a5a"/><circle cx="38.6" cy="145.1" r="3" fill="#8a5a5a"/><circle cx="41.2" cy="145.1" r="3" fill="#8a5a5a"/><circle cx="43.9" cy="145.1" r="3" fill="#8a5a5a"/><circle cx="46.5" cy="145.1" r="3" fill="#8a5a5a"/><circle cx="49.1" cy="145.1" r="3" fill="#8a5a5a"/><circle cx="51.7" cy="145.1" r="3" fill="#8a5a5a"/><circle cx="54.3" cy="145.1" r="3" fill="#8a5a5a"/><circle cx="56.9" cy="145.1" r="3" fill="#8a5a5a"/><circle cx="59.5" cy="145.1" r="3" fill="#8a5a5a"/><circle cx="62.2" cy="145.1" r="3" fill="#8a5a5a"/><circle cx="64.8" cy="145.1" r="3" fill="#8a5a5a"/><circle cx="67.4" cy="145.1" r="3" fill="#8a5a5a"/><circle cx="70.0" cy="145.1" r="3" fill="#8a5a5a"/><circle cx="72.6" cy="145.1" r="3" fill="#8a5a5a"/><circle cx="75.2" cy="145.1" r="3" fill="#8a5a5a"/><circle cx="77.9" cy="145.1" r="3" fill="#8a5a5a"/><circle cx="80.5" cy="145.1" r="3" fill="#8a5a5a"/><circle cx="83.1" cy="145.1" r="3" fill="#8a5a5a"/><circle cx="85.7" cy="145.1" r="3" fill="#8a5a5a"/><circle cx="88.3" cy="145.1" r="3" fill="#8a5a5a"/><circle cx="90.9" cy="145.1" r="3" fill="#8a5a5a"/><circle cx="93.6" cy="145.1" r="3" fill="#8a5a5a"/><circle cx="96.2" cy="145.1" r="3" fill="#8a5a5a"/><circle cx="98.8" cy="145.1" r="3" fill="#8a5a5a"/><circle cx="101.4" cy="145.1" r="3" fill="#8a5a5a"/><circle cx="104.0" cy="145.1" r="3" fill="#8a5a5a"/><circle cx="106.7" cy="145.1" r="3" fill="#8a5a5a"/><circle cx="109.3" cy="145.1" r="3" fill="#8a5a5a"/><circle cx="111.9" cy="145.1" r="3" fill="#8a5a5a"/><circle cx="114.5" cy="145.1" r="3" fill="#8a5a5a"/><circle cx="117.1" cy="145.1" r="3" fill="#8a5a5a"/><circle cx="119.7" cy="145.1" r="3" fill="#8a5a5a"/><circle cx="122.4" cy="145.1" r="3" fill="#8a5a5a"/><circle cx="125.0" cy="145.1" r="3" fill="#8a5a5a"/><circle cx="127.6" cy="145.1" r="3" fill="#8a5a5a"/><circle cx="130.2" cy="145.1" r="3" fill="#8a5a5a"/><circle cx="132.8" cy="145.1" r="3" fill="#8a5a5a"/><circle cx="135.4" cy="145.1" r="3" fill="#8a5a5a"/><circle cx="138.1" cy="145.1" r="3" fill="#8a5a5a"/><circle cx="140.7" cy="145.1" r="3" fill="#8a5a5a"/><circle cx="143.3" cy="145.1" r="3" fill="#8a5a5a"/><circle cx="145.9" cy="145.1" r="3" fill="#8a5a5a"/><circle cx="148.5" cy="145.1" r="3" fill="#8a5a5a"/><circle cx="151.1" cy="145.1" r="3" fill="#8a5a5a"/><circle cx="153.8" cy="145.1" r="3" fill="#8a5a5a"/><circle cx="156.4" cy="145.1" r="3" fill="#8a5a5a"/><circle cx="159.0" cy="145.1" r="3" fill="#8a5a5a"/><circle cx="161.6" cy="145.1" r="3" fill="#8a5a5a"/><circle cx="164.2" cy="145.1" r="3" fill="#8a5a5a"/><circle cx="166.8" cy="155.7" r="3" fill="#8a5a5a"/><circle cx="169.4" cy="155.7" r="3" fill="#8a5a5a"/><circle cx="172.1" cy="155.7" r="3" fill="#8a5a5a"/><circle cx="174.7" cy="155.7" r="3" fill="#8a5a5a"/><circle cx="177.3" cy="155.7" r="3" fill="#8a5a5a"/><circle cx="179.9" cy="155.7" r="3" fill="#8a5a5a"/><circle cx="182.5" cy="155.7" r="3" fill="#8a5a5a"/><circle cx="185.2" cy="155.7" r="3" fill="#8a5a5a"/><circle cx="187.8" cy="155.7" r="3" fill="#8a5a5a"/><circle cx="190.4" cy="155.7" r="3" fill="#8a5a5a"/><circle cx="193.0" cy="155.7" r="3" fill="#8a5a5a"/><circle cx="195.6" cy="155.7" r="3" fill="#8a5a5a"/><circle cx="198.2" cy="155.7" r="3" fill="#8a5a5a"/><circle cx="200.8" cy="155.7" r="3" fill="#8a5a5a"/><circle cx="203.5" cy="155.7" r="3" fill="#8a5a5a"/><circle cx="206.1" cy="155.7" r="3" fill="#8a5a5a"/><circle cx="208.7" cy="155.7" r="3" fill="#8a5a5a"/><circle cx="211.3" cy="155.7" r="3" fill="#8a5a5a"/><circle cx="213.9" cy="155.7" r="3" fill="#8a5a5a"/><circle cx="216.5" cy="155.7" r="3" fill="#8a5a5a"/><circle cx="219.2" cy="155.7" r="3" fill="#8a5a5a"/><circle cx="221.8" cy="155.7" r="3" fill="#8a5a5a"/><circle cx="224.4" cy="155.7" r="3" fill="#8a5a5a"/><circle cx="227.0" cy="155.7" r="3" fill="#8a5a5a"/><circle cx="229.6" cy="155.7" r="3" fill="#8a5a5a"/><circle cx="232.2" cy="155.7" r="3" fill="#8a5a5a"/><circle cx="234.9" cy="155.7" r="3" fill="#8a5a5a"/><circle cx="237.5" cy="155.7" r="3" fill="#8a5a5a"/><circle cx="240.1" cy="155.7" r="3" fill="#8a5a5a"/><circle cx="242.7" cy="155.7" r="3" fill="#8a5a5a"/><circle cx="245.3" cy="155.7" r="3" fill="#8a5a5a"/><circle cx="248.0" cy="155.7" r="3" fill="#8a5a5a"/><circle cx="250.6" cy="155.7" r="3" fill="#8a5a5a"/><circle cx="253.2" cy="155.7" r="3" fill="#8a5a5a"/><circle cx="255.8" cy="167.6" r="3" fill="#8a5a5a"/><circle cx="258.4" cy="167.6" r="3" fill="#8a5a5a"/><circle cx="261.0" cy="170.3" r="3" fill="#8a5a5a"/><circle cx="263.6" cy="170.3" r="3" fill="#8a5a5a"/><circle cx="266.3" cy="170.5" r="3" fill="#8a5a5a"/><circle cx="268.9" cy="170.7" r="3" fill="#8a5a5a"/><circle cx="271.5" cy="170.7" r="3" fill="#8a5a5a"/><circle cx="274.1" cy="170.9" r="3" fill="#8a5a5a"/><circle cx="276.7" cy="172.7" r="3" fill="#8a5a5a"/><circle cx="279.4" cy="180.6" r="3" fill="#8a5a5a"/><circle cx="282.0" cy="181.8" r="3" fill="#8a5a5a"/><circle cx="284.6" cy="189.1" r="3" fill="#8a5a5a"/><circle cx="287.2" cy="190.5" r="3" fill="#8a5a5a"/><circle cx="289.8" cy="195.2" r="3" fill="#8a5a5a"/><circle cx="292.4" cy="198.0" r="3" fill="#8a5a5a"/><circle cx="295.1" cy="198.0" r="3" fill="#8a5a5a"/><circle cx="297.7" cy="198.0" r="3" fill="#8a5a5a"/><circle cx="300.3" cy="198.0" r="3" fill="#8a5a5a"/><circle cx="302.9" cy="198.0" r="3" fill="#8a5a5a"/><circle cx="305.5" cy="198.0" r="3" fill="#8a5a5a"/><circle cx="308.1" cy="198.0" r="3" fill="#8a5a5a"/><circle cx="310.8" cy="198.0" r="3" fill="#8a5a5a"/><circle cx="313.4" cy="198.0" r="3" fill="#8a5a5a"/><circle cx="316.0" cy="198.0" r="3" fill="#8a5a5a"/><circle cx="318.6" cy="198.0" r="3" fill="#8a5a5a"/><circle cx="321.2" cy="198.0" r="3" fill="#8a5a5a"/><circle cx="323.8" cy="198.0" r="3" fill="#8a5a5a"/><circle cx="326.4" cy="198.0" r="3" fill="#8a5a5a"/><circle cx="329.1" cy="198.0" r="3" fill="#8a5a5a"/><circle cx="331.7" cy="198.0" r="3" fill="#8a5a5a"/><circle cx="334.3" cy="198.0" r="3" fill="#8a5a5a"/><circle cx="336.9" cy="198.0" r="3" fill="#8a5a5a"/><circle cx="339.5" cy="198.0" r="3" fill="#8a5a5a"/><circle cx="342.1" cy="198.0" r="3" fill="#8a5a5a"/><circle cx="344.8" cy="198.0" r="3" fill="#8a5a5a"/><circle cx="347.4" cy="198.0" r="3" fill="#8a5a5a"/><circle cx="350.0" cy="198.0" r="3" fill="#8a5a5a"/><circle cx="352.6" cy="198.0" r="3" fill="#8a5a5a"/><circle cx="355.2" cy="198.0" r="3" fill="#8a5a5a"/><circle cx="357.8" cy="198.0" r="3" fill="#8a5a5a"/><circle cx="360.5" cy="198.0" r="3" fill="#8a5a5a"/><circle cx="363.1" cy="198.0" r="3" fill="#8a5a5a"/><circle cx="365.7" cy="198.0" r="3" fill="#8a5a5a"/><circle cx="368.3" cy="198.0" r="3" fill="#8a5a5a"/><circle cx="370.9" cy="198.0" r="3" fill="#8a5a5a"/><circle cx="373.6" cy="198.0" r="3" fill="#8a5a5a"/><circle cx="376.2" cy="198.0" r="3" fill="#8a5a5a"/><circle cx="378.8" cy="198.0" r="3" fill="#8a5a5a"/><circle cx="381.4" cy="198.0" r="3" fill="#8a5a5a"/><circle cx="384.0" cy="198.0" r="3" fill="#8a5a5a"/><circle cx="386.6" cy="198.0" r="3" fill="#8a5a5a"/><circle cx="389.2" cy="198.0" r="3" fill="#8a5a5a"/><circle cx="391.9" cy="198.0" r="3" fill="#8a5a5a"/><circle cx="394.5" cy="198.0" r="3" fill="#8a5a5a"/><circle cx="397.1" cy="198.0" r="3" fill="#8a5a5a"/><circle cx="399.7" cy="198.0" r="3" fill="#8a5a5a"/><circle cx="402.3" cy="198.0" r="3" fill="#8a5a5a"/><circle cx="404.9" cy="198.0" r="3" fill="#8a5a5a"/><circle cx="407.6" cy="198.0" r="3" fill="#8a5a5a"/><circle cx="410.2" cy="198.0" r="3" fill="#8a5a5a"/><circle cx="412.8" cy="198.0" r="3" fill="#8a5a5a"/><circle cx="415.4" cy="198.0" r="3" fill="#8a5a5a"/><circle cx="418.0" cy="198.0" r="3" fill="#8a5a5a"/><circle cx="420.7" cy="198.0" r="3" fill="#8a5a5a"/><circle cx="423.3" cy="198.0" r="3" fill="#8a5a5a"/><circle cx="425.9" cy="198.0" r="3" fill="#8a5a5a"/><circle cx="428.5" cy="198.0" r="3" fill="#8a5a5a"/><circle cx="431.1" cy="198.0" r="3" fill="#8a5a5a"/><circle cx="433.7" cy="198.0" r="3" fill="#8a5a5a"/><circle cx="436.3" cy="198.0" r="3" fill="#8a5a5a"/><circle cx="439.0" cy="198.0" r="3" fill="#8a5a5a"/><circle cx="441.6" cy="198.0" r="3" fill="#8a5a5a"/><circle cx="444.2" cy="198.0" r="3" fill="#8a5a5a"/><circle cx="446.8" cy="198.0" r="3" fill="#8a5a5a"/><circle cx="449.4" cy="198.0" r="3" fill="#8a5a5a"/><circle cx="452.1" cy="198.0" r="3" fill="#8a5a5a"/><circle cx="454.7" cy="198.0" r="3" fill="#8a5a5a"/><circle cx="457.3" cy="198.0" r="3" fill="#8a5a5a"/><circle cx="459.9" cy="198.0" r="3" fill="#8a5a5a"/><circle cx="462.5" cy="198.0" r="3" fill="#8a5a5a"/><circle cx="465.1" cy="198.0" r="3" fill="#8a5a5a"/><circle cx="467.8" cy="198.0" r="3" fill="#8a5a5a"/><circle cx="470.4" cy="198.0" r="3" fill="#8a5a5a"/><circle cx="473.0" cy="198.0" r="3" fill="#8a5a5a"/><circle cx="475.6" cy="198.0" r="3" fill="#8a5a5a"/><circle cx="478.2" cy="198.0" r="3" fill="#8a5a5a"/><circle cx="480.8" cy="198.0" r="3" fill="#8a5a5a"/><circle cx="483.4" cy="198.0" r="3" fill="#8a5a5a"/><circle cx="486.1" cy="198.0" r="3" fill="#8a5a5a"/><circle cx="488.7" cy="198.0" r="3" fill="#8a5a5a"/><circle cx="491.3" cy="198.0" r="3" fill="#8a5a5a"/><circle cx="493.9" cy="198.0" r="3" fill="#8a5a5a"/><circle cx="496.5" cy="198.0" r="3" fill="#8a5a5a"/><circle cx="499.2" cy="198.0" r="3" fill="#8a5a5a"/><circle cx="501.8" cy="198.0" r="3" fill="#8a5a5a"/><circle cx="504.4" cy="198.0" r="3" fill="#8a5a5a"/><circle cx="507.0" cy="198.0" r="3" fill="#8a5a5a"/><circle cx="509.6" cy="198.0" r="3" fill="#8a5a5a"/><circle cx="512.2" cy="198.0" r="3" fill="#8a5a5a"/><circle cx="514.8" cy="198.0" r="3" fill="#8a5a5a"/><circle cx="517.5" cy="198.0" r="3" fill="#8a5a5a"/><circle cx="520.1" cy="198.0" r="3" fill="#8a5a5a"/><circle cx="522.7" cy="198.0" r="3" fill="#8a5a5a"/><circle cx="525.3" cy="198.0" r="3" fill="#8a5a5a"/><circle cx="527.9" cy="198.0" r="3" fill="#8a5a5a"/><circle cx="530.5" cy="198.0" r="3" fill="#8a5a5a"/><circle cx="533.2" cy="198.0" r="3" fill="#8a5a5a"/><circle cx="535.8" cy="198.0" r="3" fill="#8a5a5a"/><circle cx="538.4" cy="198.0" r="3" fill="#8a5a5a"/><circle cx="541.0" cy="198.0" r="3" fill="#8a5a5a"/><circle cx="543.6" cy="198.0" r="3" fill="#8a5a5a"/><circle cx="546.2" cy="198.0" r="3" fill="#8a5a5a"/><circle cx="548.9" cy="198.0" r="3" fill="#8a5a5a"/><circle cx="551.5" cy="198.0" r="3" fill="#8a5a5a"/><circle cx="554.1" cy="198.0" r="3" fill="#8a5a5a"/><circle cx="556.7" cy="198.0" r="3" fill="#8a5a5a"/><circle cx="559.3" cy="198.0" r="3" fill="#8a5a5a"/><circle cx="562.0" cy="198.0" r="3" fill="#8a5a5a"/><circle cx="564.6" cy="198.0" r="3" fill="#8a5a5a"/><circle cx="567.2" cy="198.0" r="3" fill="#8a5a5a"/><circle cx="569.8" cy="198.0" r="3" fill="#8a5a5a"/><circle cx="572.4" cy="198.0" r="3" fill="#8a5a5a"/><circle cx="575.0" cy="198.0" r="3" fill="#8a5a5a"/><circle cx="577.6" cy="198.0" r="3" fill="#8a5a5a"/><circle cx="580.3" cy="198.0" r="3" fill="#8a5a5a"/><circle cx="582.9" cy="198.0" r="3" fill="#8a5a5a"/><circle cx="585.5" cy="198.0" r="3" fill="#8a5a5a"/><circle cx="588.1" cy="198.0" r="3" fill="#8a5a5a"/><circle cx="590.7" cy="198.0" r="3" fill="#8a5a5a"/><circle cx="593.4" cy="198.0" r="3" fill="#8a5a5a"/><circle cx="596.0" cy="198.0" r="3" fill="#8a5a5a"/><circle cx="598.6" cy="198.0" r="3" fill="#8a5a5a"/><circle cx="601.2" cy="198.0" r="3" fill="#8a5a5a"/><circle cx="603.8" cy="198.0" r="3" fill="#8a5a5a"/><circle cx="606.4" cy="198.0" r="3" fill="#8a5a5a"/><circle cx="609.0" cy="198.0" r="3" fill="#8a5a5a"/><circle cx="611.7" cy="198.0" r="3" fill="#8a5a5a"/><circle cx="614.3" cy="198.0" r="3" fill="#8a5a5a"/><circle cx="616.9" cy="198.0" r="3" fill="#8a5a5a"/><circle cx="619.5" cy="198.0" r="3" fill="#8a5a5a"/><circle cx="622.1" cy="198.0" r="3" fill="#8a5a5a"/><circle cx="624.8" cy="198.0" r="3" fill="#8a5a5a"/><circle cx="627.4" cy="198.0" r="3" fill="#8a5a5a"/><circle cx="630.0" cy="198.0" r="3" fill="#8a5a5a"/><circle cx="632.6" cy="198.0" r="3" fill="#8a5a5a"/><circle cx="635.2" cy="198.0" r="3" fill="#8a5a5a"/><circle cx="637.8" cy="198.0" r="3" fill="#8a5a5a"/><circle cx="640.5" cy="198.0" r="3" fill="#8a5a5a"/><circle cx="643.1" cy="198.0" r="3" fill="#8a5a5a"/><circle cx="645.7" cy="198.0" r="3" fill="#8a5a5a"/><circle cx="648.3" cy="198.0" r="3" fill="#8a5a5a"/><circle cx="650.9" cy="198.0" r="3" fill="#8a5a5a"/><circle cx="653.5" cy="198.0" r="3" fill="#8a5a5a"/><circle cx="656.1" cy="198.0" r="3" fill="#8a5a5a"/><circle cx="658.8" cy="198.0" r="3" fill="#8a5a5a"/><circle cx="661.4" cy="198.0" r="3" fill="#8a5a5a"/><circle cx="664.0" cy="198.0" r="3" fill="#8a5a5a"/>
<polyline fill="none" stroke="#3fb950" stroke-width="2.5" stroke-linejoin="round" points="36.0,198.0 38.6,198.0 41.2,198.0 43.9,198.0 46.5,198.0 49.1,198.0 51.7,198.0 54.3,198.0 56.9,198.0 59.5,198.0 62.2,198.0 64.8,198.0 67.4,198.0 70.0,198.0 72.6,198.0 75.2,198.0 77.9,198.0 80.5,198.0 83.1,198.0 85.7,198.0 88.3,198.0 90.9,198.0 93.6,198.0 96.2,198.0 98.8,198.0 101.4,198.0 104.0,198.0 106.7,198.0 109.3,198.0 111.9,198.0 114.5,198.0 117.1,198.0 119.7,198.0 122.4,198.0 125.0,198.0 127.6,198.0 130.2,198.0 132.8,198.0 135.4,198.0 138.1,198.0 140.7,198.0 143.3,198.0 145.9,198.0 148.5,191.7 151.1,191.7 153.8,191.7 156.4,191.7 159.0,191.7 161.6,191.7 164.2,191.7 166.8,192.9 169.4,192.9 172.1,190.7 174.7,190.7 177.3,190.7 179.9,190.7 182.5,190.7 185.2,190.5 187.8,190.5 190.4,190.5 193.0,190.3 195.6,190.3 198.2,190.3 200.8,190.3 203.5,190.3 206.1,190.3 208.7,190.3 211.3,190.3 213.9,190.3 216.5,190.3 219.2,190.3 221.8,190.3 224.4,190.3 227.0,190.3 229.6,190.3 232.2,190.3 234.9,190.3 237.5,190.3 240.1,190.3 242.7,190.3 245.3,190.3 248.0,189.3 250.6,189.3 253.2,189.3 255.8,190.7 258.4,190.7 261.0,190.7 263.6,190.7 266.3,190.7 268.9,190.7 271.5,190.7 274.1,190.7 276.7,190.7 279.4,190.9 282.0,190.9 284.6,190.9 287.2,194.2 289.8,196.8 292.4,198.0 295.1,198.0 297.7,198.0 300.3,198.0 302.9,198.0 305.5,198.0 308.1,198.0 310.8,198.0 313.4,198.0 316.0,198.0 318.6,198.0 321.2,198.0 323.8,198.0 326.4,198.0 329.1,198.0 331.7,198.0 334.3,198.0 336.9,198.0 339.5,198.0 342.1,198.0 344.8,198.0 347.4,198.0 350.0,198.0 352.6,198.0 355.2,198.0 357.8,198.0 360.5,198.0 363.1,198.0 365.7,198.0 368.3,198.0 370.9,198.0 373.6,198.0 376.2,198.0 378.8,198.0 381.4,198.0 384.0,198.0 386.6,198.0 389.2,198.0 391.9,198.0 394.5,198.0 397.1,198.0 399.7,198.0 402.3,198.0 404.9,198.0 407.6,198.0 410.2,198.0 412.8,198.0 415.4,198.0 418.0,198.0 420.7,198.0 423.3,198.0 425.9,198.0 428.5,198.0 431.1,198.0 433.7,198.0 436.3,198.0 439.0,198.0 441.6,198.0 444.2,198.0 446.8,198.0 449.4,198.0 452.1,198.0 454.7,198.0 457.3,198.0 459.9,198.0 462.5,198.0 465.1,198.0 467.8,198.0 470.4,198.0 473.0,198.0 475.6,198.0 478.2,198.0 480.8,198.0 483.4,198.0 486.1,198.0 488.7,198.0 491.3,198.0 493.9,198.0 496.5,198.0 499.2,198.0 501.8,198.0 504.4,198.0 507.0,198.0 509.6,198.0 512.2,198.0 514.8,198.0 517.5,198.0 520.1,198.0 522.7,198.0 525.3,198.0 527.9,198.0 530.5,198.0 533.2,198.0 535.8,198.0 538.4,198.0 541.0,198.0 543.6,198.0 546.2,198.0 548.9,198.0 551.5,198.0 554.1,198.0 556.7,198.0 559.3,198.0 562.0,198.0 564.6,198.0 567.2,198.0 569.8,198.0 572.4,198.0 575.0,198.0 577.6,198.0 580.3,198.0 582.9,198.0 585.5,198.0 588.1,198.0 590.7,198.0 593.4,198.0 596.0,198.0 598.6,198.0 601.2,198.0 603.8,198.0 606.4,198.0 609.0,198.0 611.7,198.0 614.3,198.0 616.9,198.0 619.5,198.0 622.1,198.0 624.8,198.0 627.4,198.0 630.0,198.0 632.6,198.0 635.2,198.0 637.8,198.0 640.5,198.0 643.1,198.0 645.7,198.0 648.3,198.0 650.9,198.0 653.5,198.0 656.1,198.0 658.8,198.0 661.4,198.0 664.0,198.0"/><circle cx="36.0" cy="198.0" r="3" fill="#3fb950"/><circle cx="38.6" cy="198.0" r="3" fill="#3fb950"/><circle cx="41.2" cy="198.0" r="3" fill="#3fb950"/><circle cx="43.9" cy="198.0" r="3" fill="#3fb950"/><circle cx="46.5" cy="198.0" r="3" fill="#3fb950"/><circle cx="49.1" cy="198.0" r="3" fill="#3fb950"/><circle cx="51.7" cy="198.0" r="3" fill="#3fb950"/><circle cx="54.3" cy="198.0" r="3" fill="#3fb950"/><circle cx="56.9" cy="198.0" r="3" fill="#3fb950"/><circle cx="59.5" cy="198.0" r="3" fill="#3fb950"/><circle cx="62.2" cy="198.0" r="3" fill="#3fb950"/><circle cx="64.8" cy="198.0" r="3" fill="#3fb950"/><circle cx="67.4" cy="198.0" r="3" fill="#3fb950"/><circle cx="70.0" cy="198.0" r="3" fill="#3fb950"/><circle cx="72.6" cy="198.0" r="3" fill="#3fb950"/><circle cx="75.2" cy="198.0" r="3" fill="#3fb950"/><circle cx="77.9" cy="198.0" r="3" fill="#3fb950"/><circle cx="80.5" cy="198.0" r="3" fill="#3fb950"/><circle cx="83.1" cy="198.0" r="3" fill="#3fb950"/><circle cx="85.7" cy="198.0" r="3" fill="#3fb950"/><circle cx="88.3" cy="198.0" r="3" fill="#3fb950"/><circle cx="90.9" cy="198.0" r="3" fill="#3fb950"/><circle cx="93.6" cy="198.0" r="3" fill="#3fb950"/><circle cx="96.2" cy="198.0" r="3" fill="#3fb950"/><circle cx="98.8" cy="198.0" r="3" fill="#3fb950"/><circle cx="101.4" cy="198.0" r="3" fill="#3fb950"/><circle cx="104.0" cy="198.0" r="3" fill="#3fb950"/><circle cx="106.7" cy="198.0" r="3" fill="#3fb950"/><circle cx="109.3" cy="198.0" r="3" fill="#3fb950"/><circle cx="111.9" cy="198.0" r="3" fill="#3fb950"/><circle cx="114.5" cy="198.0" r="3" fill="#3fb950"/><circle cx="117.1" cy="198.0" r="3" fill="#3fb950"/><circle cx="119.7" cy="198.0" r="3" fill="#3fb950"/><circle cx="122.4" cy="198.0" r="3" fill="#3fb950"/><circle cx="125.0" cy="198.0" r="3" fill="#3fb950"/><circle cx="127.6" cy="198.0" r="3" fill="#3fb950"/><circle cx="130.2" cy="198.0" r="3" fill="#3fb950"/><circle cx="132.8" cy="198.0" r="3" fill="#3fb950"/><circle cx="135.4" cy="198.0" r="3" fill="#3fb950"/><circle cx="138.1" cy="198.0" r="3" fill="#3fb950"/><circle cx="140.7" cy="198.0" r="3" fill="#3fb950"/><circle cx="143.3" cy="198.0" r="3" fill="#3fb950"/><circle cx="145.9" cy="198.0" r="3" fill="#3fb950"/><circle cx="148.5" cy="191.7" r="3" fill="#3fb950"/><circle cx="151.1" cy="191.7" r="3" fill="#3fb950"/><circle cx="153.8" cy="191.7" r="3" fill="#3fb950"/><circle cx="156.4" cy="191.7" r="3" fill="#3fb950"/><circle cx="159.0" cy="191.7" r="3" fill="#3fb950"/><circle cx="161.6" cy="191.7" r="3" fill="#3fb950"/><circle cx="164.2" cy="191.7" r="3" fill="#3fb950"/><circle cx="166.8" cy="192.9" r="3" fill="#3fb950"/><circle cx="169.4" cy="192.9" r="3" fill="#3fb950"/><circle cx="172.1" cy="190.7" r="3" fill="#3fb950"/><circle cx="174.7" cy="190.7" r="3" fill="#3fb950"/><circle cx="177.3" cy="190.7" r="3" fill="#3fb950"/><circle cx="179.9" cy="190.7" r="3" fill="#3fb950"/><circle cx="182.5" cy="190.7" r="3" fill="#3fb950"/><circle cx="185.2" cy="190.5" r="3" fill="#3fb950"/><circle cx="187.8" cy="190.5" r="3" fill="#3fb950"/><circle cx="190.4" cy="190.5" r="3" fill="#3fb950"/><circle cx="193.0" cy="190.3" r="3" fill="#3fb950"/><circle cx="195.6" cy="190.3" r="3" fill="#3fb950"/><circle cx="198.2" cy="190.3" r="3" fill="#3fb950"/><circle cx="200.8" cy="190.3" r="3" fill="#3fb950"/><circle cx="203.5" cy="190.3" r="3" fill="#3fb950"/><circle cx="206.1" cy="190.3" r="3" fill="#3fb950"/><circle cx="208.7" cy="190.3" r="3" fill="#3fb950"/><circle cx="211.3" cy="190.3" r="3" fill="#3fb950"/><circle cx="213.9" cy="190.3" r="3" fill="#3fb950"/><circle cx="216.5" cy="190.3" r="3" fill="#3fb950"/><circle cx="219.2" cy="190.3" r="3" fill="#3fb950"/><circle cx="221.8" cy="190.3" r="3" fill="#3fb950"/><circle cx="224.4" cy="190.3" r="3" fill="#3fb950"/><circle cx="227.0" cy="190.3" r="3" fill="#3fb950"/><circle cx="229.6" cy="190.3" r="3" fill="#3fb950"/><circle cx="232.2" cy="190.3" r="3" fill="#3fb950"/><circle cx="234.9" cy="190.3" r="3" fill="#3fb950"/><circle cx="237.5" cy="190.3" r="3" fill="#3fb950"/><circle cx="240.1" cy="190.3" r="3" fill="#3fb950"/><circle cx="242.7" cy="190.3" r="3" fill="#3fb950"/><circle cx="245.3" cy="190.3" r="3" fill="#3fb950"/><circle cx="248.0" cy="189.3" r="3" fill="#3fb950"/><circle cx="250.6" cy="189.3" r="3" fill="#3fb950"/><circle cx="253.2" cy="189.3" r="3" fill="#3fb950"/><circle cx="255.8" cy="190.7" r="3" fill="#3fb950"/><circle cx="258.4" cy="190.7" r="3" fill="#3fb950"/><circle cx="261.0" cy="190.7" r="3" fill="#3fb950"/><circle cx="263.6" cy="190.7" r="3" fill="#3fb950"/><circle cx="266.3" cy="190.7" r="3" fill="#3fb950"/><circle cx="268.9" cy="190.7" r="3" fill="#3fb950"/><circle cx="271.5" cy="190.7" r="3" fill="#3fb950"/><circle cx="274.1" cy="190.7" r="3" fill="#3fb950"/><circle cx="276.7" cy="190.7" r="3" fill="#3fb950"/><circle cx="279.4" cy="190.9" r="3" fill="#3fb950"/><circle cx="282.0" cy="190.9" r="3" fill="#3fb950"/><circle cx="284.6" cy="190.9" r="3" fill="#3fb950"/><circle cx="287.2" cy="194.2" r="3" fill="#3fb950"/><circle cx="289.8" cy="196.8" r="3" fill="#3fb950"/><circle cx="292.4" cy="198.0" r="3" fill="#3fb950"/><circle cx="295.1" cy="198.0" r="3" fill="#3fb950"/><circle cx="297.7" cy="198.0" r="3" fill="#3fb950"/><circle cx="300.3" cy="198.0" r="3" fill="#3fb950"/><circle cx="302.9" cy="198.0" r="3" fill="#3fb950"/><circle cx="305.5" cy="198.0" r="3" fill="#3fb950"/><circle cx="308.1" cy="198.0" r="3" fill="#3fb950"/><circle cx="310.8" cy="198.0" r="3" fill="#3fb950"/><circle cx="313.4" cy="198.0" r="3" fill="#3fb950"/><circle cx="316.0" cy="198.0" r="3" fill="#3fb950"/><circle cx="318.6" cy="198.0" r="3" fill="#3fb950"/><circle cx="321.2" cy="198.0" r="3" fill="#3fb950"/><circle cx="323.8" cy="198.0" r="3" fill="#3fb950"/><circle cx="326.4" cy="198.0" r="3" fill="#3fb950"/><circle cx="329.1" cy="198.0" r="3" fill="#3fb950"/><circle cx="331.7" cy="198.0" r="3" fill="#3fb950"/><circle cx="334.3" cy="198.0" r="3" fill="#3fb950"/><circle cx="336.9" cy="198.0" r="3" fill="#3fb950"/><circle cx="339.5" cy="198.0" r="3" fill="#3fb950"/><circle cx="342.1" cy="198.0" r="3" fill="#3fb950"/><circle cx="344.8" cy="198.0" r="3" fill="#3fb950"/><circle cx="347.4" cy="198.0" r="3" fill="#3fb950"/><circle cx="350.0" cy="198.0" r="3" fill="#3fb950"/><circle cx="352.6" cy="198.0" r="3" fill="#3fb950"/><circle cx="355.2" cy="198.0" r="3" fill="#3fb950"/><circle cx="357.8" cy="198.0" r="3" fill="#3fb950"/><circle cx="360.5" cy="198.0" r="3" fill="#3fb950"/><circle cx="363.1" cy="198.0" r="3" fill="#3fb950"/><circle cx="365.7" cy="198.0" r="3" fill="#3fb950"/><circle cx="368.3" cy="198.0" r="3" fill="#3fb950"/><circle cx="370.9" cy="198.0" r="3" fill="#3fb950"/><circle cx="373.6" cy="198.0" r="3" fill="#3fb950"/><circle cx="376.2" cy="198.0" r="3" fill="#3fb950"/><circle cx="378.8" cy="198.0" r="3" fill="#3fb950"/><circle cx="381.4" cy="198.0" r="3" fill="#3fb950"/><circle cx="384.0" cy="198.0" r="3" fill="#3fb950"/><circle cx="386.6" cy="198.0" r="3" fill="#3fb950"/><circle cx="389.2" cy="198.0" r="3" fill="#3fb950"/><circle cx="391.9" cy="198.0" r="3" fill="#3fb950"/><circle cx="394.5" cy="198.0" r="3" fill="#3fb950"/><circle cx="397.1" cy="198.0" r="3" fill="#3fb950"/><circle cx="399.7" cy="198.0" r="3" fill="#3fb950"/><circle cx="402.3" cy="198.0" r="3" fill="#3fb950"/><circle cx="404.9" cy="198.0" r="3" fill="#3fb950"/><circle cx="407.6" cy="198.0" r="3" fill="#3fb950"/><circle cx="410.2" cy="198.0" r="3" fill="#3fb950"/><circle cx="412.8" cy="198.0" r="3" fill="#3fb950"/><circle cx="415.4" cy="198.0" r="3" fill="#3fb950"/><circle cx="418.0" cy="198.0" r="3" fill="#3fb950"/><circle cx="420.7" cy="198.0" r="3" fill="#3fb950"/><circle cx="423.3" cy="198.0" r="3" fill="#3fb950"/><circle cx="425.9" cy="198.0" r="3" fill="#3fb950"/><circle cx="428.5" cy="198.0" r="3" fill="#3fb950"/><circle cx="431.1" cy="198.0" r="3" fill="#3fb950"/><circle cx="433.7" cy="198.0" r="3" fill="#3fb950"/><circle cx="436.3" cy="198.0" r="3" fill="#3fb950"/><circle cx="439.0" cy="198.0" r="3" fill="#3fb950"/><circle cx="441.6" cy="198.0" r="3" fill="#3fb950"/><circle cx="444.2" cy="198.0" r="3" fill="#3fb950"/><circle cx="446.8" cy="198.0" r="3" fill="#3fb950"/><circle cx="449.4" cy="198.0" r="3" fill="#3fb950"/><circle cx="452.1" cy="198.0" r="3" fill="#3fb950"/><circle cx="454.7" cy="198.0" r="3" fill="#3fb950"/><circle cx="457.3" cy="198.0" r="3" fill="#3fb950"/><circle cx="459.9" cy="198.0" r="3" fill="#3fb950"/><circle cx="462.5" cy="198.0" r="3" fill="#3fb950"/><circle cx="465.1" cy="198.0" r="3" fill="#3fb950"/><circle cx="467.8" cy="198.0" r="3" fill="#3fb950"/><circle cx="470.4" cy="198.0" r="3" fill="#3fb950"/><circle cx="473.0" cy="198.0" r="3" fill="#3fb950"/><circle cx="475.6" cy="198.0" r="3" fill="#3fb950"/><circle cx="478.2" cy="198.0" r="3" fill="#3fb950"/><circle cx="480.8" cy="198.0" r="3" fill="#3fb950"/><circle cx="483.4" cy="198.0" r="3" fill="#3fb950"/><circle cx="486.1" cy="198.0" r="3" fill="#3fb950"/><circle cx="488.7" cy="198.0" r="3" fill="#3fb950"/><circle cx="491.3" cy="198.0" r="3" fill="#3fb950"/><circle cx="493.9" cy="198.0" r="3" fill="#3fb950"/><circle cx="496.5" cy="198.0" r="3" fill="#3fb950"/><circle cx="499.2" cy="198.0" r="3" fill="#3fb950"/><circle cx="501.8" cy="198.0" r="3" fill="#3fb950"/><circle cx="504.4" cy="198.0" r="3" fill="#3fb950"/><circle cx="507.0" cy="198.0" r="3" fill="#3fb950"/><circle cx="509.6" cy="198.0" r="3" fill="#3fb950"/><circle cx="512.2" cy="198.0" r="3" fill="#3fb950"/><circle cx="514.8" cy="198.0" r="3" fill="#3fb950"/><circle cx="517.5" cy="198.0" r="3" fill="#3fb950"/><circle cx="520.1" cy="198.0" r="3" fill="#3fb950"/><circle cx="522.7" cy="198.0" r="3" fill="#3fb950"/><circle cx="525.3" cy="198.0" r="3" fill="#3fb950"/><circle cx="527.9" cy="198.0" r="3" fill="#3fb950"/><circle cx="530.5" cy="198.0" r="3" fill="#3fb950"/><circle cx="533.2" cy="198.0" r="3" fill="#3fb950"/><circle cx="535.8" cy="198.0" r="3" fill="#3fb950"/><circle cx="538.4" cy="198.0" r="3" fill="#3fb950"/><circle cx="541.0" cy="198.0" r="3" fill="#3fb950"/><circle cx="543.6" cy="198.0" r="3" fill="#3fb950"/><circle cx="546.2" cy="198.0" r="3" fill="#3fb950"/><circle cx="548.9" cy="198.0" r="3" fill="#3fb950"/><circle cx="551.5" cy="198.0" r="3" fill="#3fb950"/><circle cx="554.1" cy="198.0" r="3" fill="#3fb950"/><circle cx="556.7" cy="198.0" r="3" fill="#3fb950"/><circle cx="559.3" cy="198.0" r="3" fill="#3fb950"/><circle cx="562.0" cy="198.0" r="3" fill="#3fb950"/><circle cx="564.6" cy="198.0" r="3" fill="#3fb950"/><circle cx="567.2" cy="198.0" r="3" fill="#3fb950"/><circle cx="569.8" cy="198.0" r="3" fill="#3fb950"/><circle cx="572.4" cy="198.0" r="3" fill="#3fb950"/><circle cx="575.0" cy="198.0" r="3" fill="#3fb950"/><circle cx="577.6" cy="198.0" r="3" fill="#3fb950"/><circle cx="580.3" cy="198.0" r="3" fill="#3fb950"/><circle cx="582.9" cy="198.0" r="3" fill="#3fb950"/><circle cx="585.5" cy="198.0" r="3" fill="#3fb950"/><circle cx="588.1" cy="198.0" r="3" fill="#3fb950"/><circle cx="590.7" cy="198.0" r="3" fill="#3fb950"/><circle cx="593.4" cy="198.0" r="3" fill="#3fb950"/><circle cx="596.0" cy="198.0" r="3" fill="#3fb950"/><circle cx="598.6" cy="198.0" r="3" fill="#3fb950"/><circle cx="601.2" cy="198.0" r="3" fill="#3fb950"/><circle cx="603.8" cy="198.0" r="3" fill="#3fb950"/><circle cx="606.4" cy="198.0" r="3" fill="#3fb950"/><circle cx="609.0" cy="198.0" r="3" fill="#3fb950"/><circle cx="611.7" cy="198.0" r="3" fill="#3fb950"/><circle cx="614.3" cy="198.0" r="3" fill="#3fb950"/><circle cx="616.9" cy="198.0" r="3" fill="#3fb950"/><circle cx="619.5" cy="198.0" r="3" fill="#3fb950"/><circle cx="622.1" cy="198.0" r="3" fill="#3fb950"/><circle cx="624.8" cy="198.0" r="3" fill="#3fb950"/><circle cx="627.4" cy="198.0" r="3" fill="#3fb950"/><circle cx="630.0" cy="198.0" r="3" fill="#3fb950"/><circle cx="632.6" cy="198.0" r="3" fill="#3fb950"/><circle cx="635.2" cy="198.0" r="3" fill="#3fb950"/><circle cx="637.8" cy="198.0" r="3" fill="#3fb950"/><circle cx="640.5" cy="198.0" r="3" fill="#3fb950"/><circle cx="643.1" cy="198.0" r="3" fill="#3fb950"/><circle cx="645.7" cy="198.0" r="3" fill="#3fb950"/><circle cx="648.3" cy="198.0" r="3" fill="#3fb950"/><circle cx="650.9" cy="198.0" r="3" fill="#3fb950"/><circle cx="653.5" cy="198.0" r="3" fill="#3fb950"/><circle cx="656.1" cy="198.0" r="3" fill="#3fb950"/><circle cx="658.8" cy="198.0" r="3" fill="#3fb950"/><circle cx="661.4" cy="198.0" r="3" fill="#3fb950"/><circle cx="664.0" cy="198.0" r="3" fill="#3fb950"/>
<polyline fill="none" stroke="#4aa3ff" stroke-width="2.5" stroke-linejoin="round" points="36.0,144.3 38.6,144.3 41.2,144.3 43.9,144.3 46.5,144.3 49.1,144.3 51.7,144.3 54.3,144.3 56.9,144.3 59.5,144.3 62.2,144.3 64.8,144.3 67.4,144.3 70.0,144.3 72.6,144.3 75.2,136.2 77.9,132.4 80.5,129.6 83.1,129.6 85.7,121.0 88.3,121.0 90.9,121.0 93.6,114.4 96.2,114.4 98.8,114.4 101.4,111.3 104.0,110.9 106.7,110.9 109.3,110.5 111.9,110.5 114.5,109.9 117.1,108.7 119.7,107.3 122.4,106.9 125.0,106.9 127.6,106.9 130.2,106.9 132.8,106.9 135.4,106.9 138.1,106.9 140.7,106.9 143.3,106.9 145.9,106.9 148.5,113.2 151.1,113.2 153.8,113.2 156.4,113.2 159.0,113.2 161.6,110.7 164.2,105.3 166.8,83.4 169.4,83.4 172.1,85.6 174.7,85.6 177.3,85.6 179.9,85.6 182.5,85.6 185.2,85.8 187.8,85.8 190.4,85.8 193.0,86.0 195.6,86.0 198.2,86.0 200.8,86.0 203.5,86.0 206.1,86.0 208.7,86.0 211.3,86.0 213.9,86.0 216.5,86.0 219.2,86.0 221.8,86.0 224.4,86.0 227.0,86.0 229.6,86.0 232.2,86.0 234.9,86.0 237.5,86.0 240.1,86.0 242.7,86.0 245.3,86.0 248.0,87.0 250.6,87.0 253.2,87.0 255.8,73.7 258.4,73.7 261.0,71.0 263.6,71.0 266.3,70.8 268.9,70.6 271.5,70.6 274.1,70.4 276.7,68.6 279.4,60.5 282.0,59.3 284.6,52.0 287.2,47.3 289.8,40.1 292.4,36.0 295.1,36.0 297.7,36.0 300.3,36.0 302.9,36.0 305.5,36.0 308.1,36.0 310.8,36.0 313.4,36.0 316.0,36.0 318.6,36.0 321.2,36.0 323.8,36.0 326.4,36.0 329.1,36.0 331.7,36.0 334.3,36.0 336.9,36.0 339.5,36.0 342.1,36.0 344.8,36.0 347.4,36.0 350.0,36.0 352.6,36.0 355.2,36.0 357.8,36.0 360.5,36.0 363.1,36.0 365.7,36.0 368.3,36.0 370.9,36.0 373.6,36.0 376.2,36.0 378.8,36.0 381.4,36.0 384.0,36.0 386.6,36.0 389.2,36.0 391.9,36.0 394.5,36.0 397.1,36.0 399.7,36.0 402.3,36.0 404.9,36.0 407.6,36.0 410.2,36.0 412.8,36.0 415.4,36.0 418.0,36.0 420.7,36.0 423.3,36.0 425.9,36.0 428.5,36.0 431.1,36.0 433.7,36.0 436.3,36.0 439.0,36.0 441.6,36.0 444.2,36.0 446.8,36.0 449.4,36.0 452.1,36.0 454.7,36.0 457.3,36.0 459.9,36.0 462.5,36.0 465.1,36.0 467.8,36.0 470.4,36.0 473.0,36.0 475.6,36.0 478.2,36.0 480.8,36.0 483.4,36.0 486.1,36.0 488.7,36.0 491.3,36.0 493.9,36.0 496.5,36.0 499.2,36.0 501.8,36.0 504.4,36.0 507.0,36.0 509.6,36.0 512.2,36.0 514.8,36.0 517.5,36.0 520.1,36.0 522.7,36.0 525.3,36.0 527.9,36.0 530.5,36.0 533.2,36.0 535.8,36.0 538.4,36.0 541.0,36.0 543.6,36.0 546.2,36.0 548.9,36.0 551.5,36.0 554.1,36.0 556.7,36.0 559.3,36.0 562.0,36.0 564.6,36.0 567.2,36.0 569.8,36.0 572.4,36.0 575.0,36.0 577.6,36.0 580.3,36.0 582.9,36.0 585.5,36.0 588.1,36.0 590.7,36.0 593.4,36.0 596.0,36.0 598.6,36.0 601.2,36.0 603.8,36.0 606.4,36.0 609.0,36.0 611.7,36.0 614.3,36.0 616.9,36.0 619.5,36.0 622.1,36.0 624.8,36.0 627.4,36.0 630.0,36.0 632.6,36.0 635.2,36.0 637.8,36.0 640.5,36.0 643.1,36.0 645.7,36.0 648.3,36.0 650.9,36.0 653.5,36.0 656.1,36.0 658.8,36.0 661.4,36.0 664.0,36.0"/><circle cx="36.0" cy="144.3" r="3" fill="#4aa3ff"/><circle cx="38.6" cy="144.3" r="3" fill="#4aa3ff"/><circle cx="41.2" cy="144.3" r="3" fill="#4aa3ff"/><circle cx="43.9" cy="144.3" r="3" fill="#4aa3ff"/><circle cx="46.5" cy="144.3" r="3" fill="#4aa3ff"/><circle cx="49.1" cy="144.3" r="3" fill="#4aa3ff"/><circle cx="51.7" cy="144.3" r="3" fill="#4aa3ff"/><circle cx="54.3" cy="144.3" r="3" fill="#4aa3ff"/><circle cx="56.9" cy="144.3" r="3" fill="#4aa3ff"/><circle cx="59.5" cy="144.3" r="3" fill="#4aa3ff"/><circle cx="62.2" cy="144.3" r="3" fill="#4aa3ff"/><circle cx="64.8" cy="144.3" r="3" fill="#4aa3ff"/><circle cx="67.4" cy="144.3" r="3" fill="#4aa3ff"/><circle cx="70.0" cy="144.3" r="3" fill="#4aa3ff"/><circle cx="72.6" cy="144.3" r="3" fill="#4aa3ff"/><circle cx="75.2" cy="136.2" r="3" fill="#4aa3ff"/><circle cx="77.9" cy="132.4" r="3" fill="#4aa3ff"/><circle cx="80.5" cy="129.6" r="3" fill="#4aa3ff"/><circle cx="83.1" cy="129.6" r="3" fill="#4aa3ff"/><circle cx="85.7" cy="121.0" r="3" fill="#4aa3ff"/><circle cx="88.3" cy="121.0" r="3" fill="#4aa3ff"/><circle cx="90.9" cy="121.0" r="3" fill="#4aa3ff"/><circle cx="93.6" cy="114.4" r="3" fill="#4aa3ff"/><circle cx="96.2" cy="114.4" r="3" fill="#4aa3ff"/><circle cx="98.8" cy="114.4" r="3" fill="#4aa3ff"/><circle cx="101.4" cy="111.3" r="3" fill="#4aa3ff"/><circle cx="104.0" cy="110.9" r="3" fill="#4aa3ff"/><circle cx="106.7" cy="110.9" r="3" fill="#4aa3ff"/><circle cx="109.3" cy="110.5" r="3" fill="#4aa3ff"/><circle cx="111.9" cy="110.5" r="3" fill="#4aa3ff"/><circle cx="114.5" cy="109.9" r="3" fill="#4aa3ff"/><circle cx="117.1" cy="108.7" r="3" fill="#4aa3ff"/><circle cx="119.7" cy="107.3" r="3" fill="#4aa3ff"/><circle cx="122.4" cy="106.9" r="3" fill="#4aa3ff"/><circle cx="125.0" cy="106.9" r="3" fill="#4aa3ff"/><circle cx="127.6" cy="106.9" r="3" fill="#4aa3ff"/><circle cx="130.2" cy="106.9" r="3" fill="#4aa3ff"/><circle cx="132.8" cy="106.9" r="3" fill="#4aa3ff"/><circle cx="135.4" cy="106.9" r="3" fill="#4aa3ff"/><circle cx="138.1" cy="106.9" r="3" fill="#4aa3ff"/><circle cx="140.7" cy="106.9" r="3" fill="#4aa3ff"/><circle cx="143.3" cy="106.9" r="3" fill="#4aa3ff"/><circle cx="145.9" cy="106.9" r="3" fill="#4aa3ff"/><circle cx="148.5" cy="113.2" r="3" fill="#4aa3ff"/><circle cx="151.1" cy="113.2" r="3" fill="#4aa3ff"/><circle cx="153.8" cy="113.2" r="3" fill="#4aa3ff"/><circle cx="156.4" cy="113.2" r="3" fill="#4aa3ff"/><circle cx="159.0" cy="113.2" r="3" fill="#4aa3ff"/><circle cx="161.6" cy="110.7" r="3" fill="#4aa3ff"/><circle cx="164.2" cy="105.3" r="3" fill="#4aa3ff"/><circle cx="166.8" cy="83.4" r="3" fill="#4aa3ff"/><circle cx="169.4" cy="83.4" r="3" fill="#4aa3ff"/><circle cx="172.1" cy="85.6" r="3" fill="#4aa3ff"/><circle cx="174.7" cy="85.6" r="3" fill="#4aa3ff"/><circle cx="177.3" cy="85.6" r="3" fill="#4aa3ff"/><circle cx="179.9" cy="85.6" r="3" fill="#4aa3ff"/><circle cx="182.5" cy="85.6" r="3" fill="#4aa3ff"/><circle cx="185.2" cy="85.8" r="3" fill="#4aa3ff"/><circle cx="187.8" cy="85.8" r="3" fill="#4aa3ff"/><circle cx="190.4" cy="85.8" r="3" fill="#4aa3ff"/><circle cx="193.0" cy="86.0" r="3" fill="#4aa3ff"/><circle cx="195.6" cy="86.0" r="3" fill="#4aa3ff"/><circle cx="198.2" cy="86.0" r="3" fill="#4aa3ff"/><circle cx="200.8" cy="86.0" r="3" fill="#4aa3ff"/><circle cx="203.5" cy="86.0" r="3" fill="#4aa3ff"/><circle cx="206.1" cy="86.0" r="3" fill="#4aa3ff"/><circle cx="208.7" cy="86.0" r="3" fill="#4aa3ff"/><circle cx="211.3" cy="86.0" r="3" fill="#4aa3ff"/><circle cx="213.9" cy="86.0" r="3" fill="#4aa3ff"/><circle cx="216.5" cy="86.0" r="3" fill="#4aa3ff"/><circle cx="219.2" cy="86.0" r="3" fill="#4aa3ff"/><circle cx="221.8" cy="86.0" r="3" fill="#4aa3ff"/><circle cx="224.4" cy="86.0" r="3" fill="#4aa3ff"/><circle cx="227.0" cy="86.0" r="3" fill="#4aa3ff"/><circle cx="229.6" cy="86.0" r="3" fill="#4aa3ff"/><circle cx="232.2" cy="86.0" r="3" fill="#4aa3ff"/><circle cx="234.9" cy="86.0" r="3" fill="#4aa3ff"/><circle cx="237.5" cy="86.0" r="3" fill="#4aa3ff"/><circle cx="240.1" cy="86.0" r="3" fill="#4aa3ff"/><circle cx="242.7" cy="86.0" r="3" fill="#4aa3ff"/><circle cx="245.3" cy="86.0" r="3" fill="#4aa3ff"/><circle cx="248.0" cy="87.0" r="3" fill="#4aa3ff"/><circle cx="250.6" cy="87.0" r="3" fill="#4aa3ff"/><circle cx="253.2" cy="87.0" r="3" fill="#4aa3ff"/><circle cx="255.8" cy="73.7" r="3" fill="#4aa3ff"/><circle cx="258.4" cy="73.7" r="3" fill="#4aa3ff"/><circle cx="261.0" cy="71.0" r="3" fill="#4aa3ff"/><circle cx="263.6" cy="71.0" r="3" fill="#4aa3ff"/><circle cx="266.3" cy="70.8" r="3" fill="#4aa3ff"/><circle cx="268.9" cy="70.6" r="3" fill="#4aa3ff"/><circle cx="271.5" cy="70.6" r="3" fill="#4aa3ff"/><circle cx="274.1" cy="70.4" r="3" fill="#4aa3ff"/><circle cx="276.7" cy="68.6" r="3" fill="#4aa3ff"/><circle cx="279.4" cy="60.5" r="3" fill="#4aa3ff"/><circle cx="282.0" cy="59.3" r="3" fill="#4aa3ff"/><circle cx="284.6" cy="52.0" r="3" fill="#4aa3ff"/><circle cx="287.2" cy="47.3" r="3" fill="#4aa3ff"/><circle cx="289.8" cy="40.1" r="3" fill="#4aa3ff"/><circle cx="292.4" cy="36.0" r="3" fill="#4aa3ff"/><circle cx="295.1" cy="36.0" r="3" fill="#4aa3ff"/><circle cx="297.7" cy="36.0" r="3" fill="#4aa3ff"/><circle cx="300.3" cy="36.0" r="3" fill="#4aa3ff"/><circle cx="302.9" cy="36.0" r="3" fill="#4aa3ff"/><circle cx="305.5" cy="36.0" r="3" fill="#4aa3ff"/><circle cx="308.1" cy="36.0" r="3" fill="#4aa3ff"/><circle cx="310.8" cy="36.0" r="3" fill="#4aa3ff"/><circle cx="313.4" cy="36.0" r="3" fill="#4aa3ff"/><circle cx="316.0" cy="36.0" r="3" fill="#4aa3ff"/><circle cx="318.6" cy="36.0" r="3" fill="#4aa3ff"/><circle cx="321.2" cy="36.0" r="3" fill="#4aa3ff"/><circle cx="323.8" cy="36.0" r="3" fill="#4aa3ff"/><circle cx="326.4" cy="36.0" r="3" fill="#4aa3ff"/><circle cx="329.1" cy="36.0" r="3" fill="#4aa3ff"/><circle cx="331.7" cy="36.0" r="3" fill="#4aa3ff"/><circle cx="334.3" cy="36.0" r="3" fill="#4aa3ff"/><circle cx="336.9" cy="36.0" r="3" fill="#4aa3ff"/><circle cx="339.5" cy="36.0" r="3" fill="#4aa3ff"/><circle cx="342.1" cy="36.0" r="3" fill="#4aa3ff"/><circle cx="344.8" cy="36.0" r="3" fill="#4aa3ff"/><circle cx="347.4" cy="36.0" r="3" fill="#4aa3ff"/><circle cx="350.0" cy="36.0" r="3" fill="#4aa3ff"/><circle cx="352.6" cy="36.0" r="3" fill="#4aa3ff"/><circle cx="355.2" cy="36.0" r="3" fill="#4aa3ff"/><circle cx="357.8" cy="36.0" r="3" fill="#4aa3ff"/><circle cx="360.5" cy="36.0" r="3" fill="#4aa3ff"/><circle cx="363.1" cy="36.0" r="3" fill="#4aa3ff"/><circle cx="365.7" cy="36.0" r="3" fill="#4aa3ff"/><circle cx="368.3" cy="36.0" r="3" fill="#4aa3ff"/><circle cx="370.9" cy="36.0" r="3" fill="#4aa3ff"/><circle cx="373.6" cy="36.0" r="3" fill="#4aa3ff"/><circle cx="376.2" cy="36.0" r="3" fill="#4aa3ff"/><circle cx="378.8" cy="36.0" r="3" fill="#4aa3ff"/><circle cx="381.4" cy="36.0" r="3" fill="#4aa3ff"/><circle cx="384.0" cy="36.0" r="3" fill="#4aa3ff"/><circle cx="386.6" cy="36.0" r="3" fill="#4aa3ff"/><circle cx="389.2" cy="36.0" r="3" fill="#4aa3ff"/><circle cx="391.9" cy="36.0" r="3" fill="#4aa3ff"/><circle cx="394.5" cy="36.0" r="3" fill="#4aa3ff"/><circle cx="397.1" cy="36.0" r="3" fill="#4aa3ff"/><circle cx="399.7" cy="36.0" r="3" fill="#4aa3ff"/><circle cx="402.3" cy="36.0" r="3" fill="#4aa3ff"/><circle cx="404.9" cy="36.0" r="3" fill="#4aa3ff"/><circle cx="407.6" cy="36.0" r="3" fill="#4aa3ff"/><circle cx="410.2" cy="36.0" r="3" fill="#4aa3ff"/><circle cx="412.8" cy="36.0" r="3" fill="#4aa3ff"/><circle cx="415.4" cy="36.0" r="3" fill="#4aa3ff"/><circle cx="418.0" cy="36.0" r="3" fill="#4aa3ff"/><circle cx="420.7" cy="36.0" r="3" fill="#4aa3ff"/><circle cx="423.3" cy="36.0" r="3" fill="#4aa3ff"/><circle cx="425.9" cy="36.0" r="3" fill="#4aa3ff"/><circle cx="428.5" cy="36.0" r="3" fill="#4aa3ff"/><circle cx="431.1" cy="36.0" r="3" fill="#4aa3ff"/><circle cx="433.7" cy="36.0" r="3" fill="#4aa3ff"/><circle cx="436.3" cy="36.0" r="3" fill="#4aa3ff"/><circle cx="439.0" cy="36.0" r="3" fill="#4aa3ff"/><circle cx="441.6" cy="36.0" r="3" fill="#4aa3ff"/><circle cx="444.2" cy="36.0" r="3" fill="#4aa3ff"/><circle cx="446.8" cy="36.0" r="3" fill="#4aa3ff"/><circle cx="449.4" cy="36.0" r="3" fill="#4aa3ff"/><circle cx="452.1" cy="36.0" r="3" fill="#4aa3ff"/><circle cx="454.7" cy="36.0" r="3" fill="#4aa3ff"/><circle cx="457.3" cy="36.0" r="3" fill="#4aa3ff"/><circle cx="459.9" cy="36.0" r="3" fill="#4aa3ff"/><circle cx="462.5" cy="36.0" r="3" fill="#4aa3ff"/><circle cx="465.1" cy="36.0" r="3" fill="#4aa3ff"/><circle cx="467.8" cy="36.0" r="3" fill="#4aa3ff"/><circle cx="470.4" cy="36.0" r="3" fill="#4aa3ff"/><circle cx="473.0" cy="36.0" r="3" fill="#4aa3ff"/><circle cx="475.6" cy="36.0" r="3" fill="#4aa3ff"/><circle cx="478.2" cy="36.0" r="3" fill="#4aa3ff"/><circle cx="480.8" cy="36.0" r="3" fill="#4aa3ff"/><circle cx="483.4" cy="36.0" r="3" fill="#4aa3ff"/><circle cx="486.1" cy="36.0" r="3" fill="#4aa3ff"/><circle cx="488.7" cy="36.0" r="3" fill="#4aa3ff"/><circle cx="491.3" cy="36.0" r="3" fill="#4aa3ff"/><circle cx="493.9" cy="36.0" r="3" fill="#4aa3ff"/><circle cx="496.5" cy="36.0" r="3" fill="#4aa3ff"/><circle cx="499.2" cy="36.0" r="3" fill="#4aa3ff"/><circle cx="501.8" cy="36.0" r="3" fill="#4aa3ff"/><circle cx="504.4" cy="36.0" r="3" fill="#4aa3ff"/><circle cx="507.0" cy="36.0" r="3" fill="#4aa3ff"/><circle cx="509.6" cy="36.0" r="3" fill="#4aa3ff"/><circle cx="512.2" cy="36.0" r="3" fill="#4aa3ff"/><circle cx="514.8" cy="36.0" r="3" fill="#4aa3ff"/><circle cx="517.5" cy="36.0" r="3" fill="#4aa3ff"/><circle cx="520.1" cy="36.0" r="3" fill="#4aa3ff"/><circle cx="522.7" cy="36.0" r="3" fill="#4aa3ff"/><circle cx="525.3" cy="36.0" r="3" fill="#4aa3ff"/><circle cx="527.9" cy="36.0" r="3" fill="#4aa3ff"/><circle cx="530.5" cy="36.0" r="3" fill="#4aa3ff"/><circle cx="533.2" cy="36.0" r="3" fill="#4aa3ff"/><circle cx="535.8" cy="36.0" r="3" fill="#4aa3ff"/><circle cx="538.4" cy="36.0" r="3" fill="#4aa3ff"/><circle cx="541.0" cy="36.0" r="3" fill="#4aa3ff"/><circle cx="543.6" cy="36.0" r="3" fill="#4aa3ff"/><circle cx="546.2" cy="36.0" r="3" fill="#4aa3ff"/><circle cx="548.9" cy="36.0" r="3" fill="#4aa3ff"/><circle cx="551.5" cy="36.0" r="3" fill="#4aa3ff"/><circle cx="554.1" cy="36.0" r="3" fill="#4aa3ff"/><circle cx="556.7" cy="36.0" r="3" fill="#4aa3ff"/><circle cx="559.3" cy="36.0" r="3" fill="#4aa3ff"/><circle cx="562.0" cy="36.0" r="3" fill="#4aa3ff"/><circle cx="564.6" cy="36.0" r="3" fill="#4aa3ff"/><circle cx="567.2" cy="36.0" r="3" fill="#4aa3ff"/><circle cx="569.8" cy="36.0" r="3" fill="#4aa3ff"/><circle cx="572.4" cy="36.0" r="3" fill="#4aa3ff"/><circle cx="575.0" cy="36.0" r="3" fill="#4aa3ff"/><circle cx="577.6" cy="36.0" r="3" fill="#4aa3ff"/><circle cx="580.3" cy="36.0" r="3" fill="#4aa3ff"/><circle cx="582.9" cy="36.0" r="3" fill="#4aa3ff"/><circle cx="585.5" cy="36.0" r="3" fill="#4aa3ff"/><circle cx="588.1" cy="36.0" r="3" fill="#4aa3ff"/><circle cx="590.7" cy="36.0" r="3" fill="#4aa3ff"/><circle cx="593.4" cy="36.0" r="3" fill="#4aa3ff"/><circle cx="596.0" cy="36.0" r="3" fill="#4aa3ff"/><circle cx="598.6" cy="36.0" r="3" fill="#4aa3ff"/><circle cx="601.2" cy="36.0" r="3" fill="#4aa3ff"/><circle cx="603.8" cy="36.0" r="3" fill="#4aa3ff"/><circle cx="606.4" cy="36.0" r="3" fill="#4aa3ff"/><circle cx="609.0" cy="36.0" r="3" fill="#4aa3ff"/><circle cx="611.7" cy="36.0" r="3" fill="#4aa3ff"/><circle cx="614.3" cy="36.0" r="3" fill="#4aa3ff"/><circle cx="616.9" cy="36.0" r="3" fill="#4aa3ff"/><circle cx="619.5" cy="36.0" r="3" fill="#4aa3ff"/><circle cx="622.1" cy="36.0" r="3" fill="#4aa3ff"/><circle cx="624.8" cy="36.0" r="3" fill="#4aa3ff"/><circle cx="627.4" cy="36.0" r="3" fill="#4aa3ff"/><circle cx="630.0" cy="36.0" r="3" fill="#4aa3ff"/><circle cx="632.6" cy="36.0" r="3" fill="#4aa3ff"/><circle cx="635.2" cy="36.0" r="3" fill="#4aa3ff"/><circle cx="637.8" cy="36.0" r="3" fill="#4aa3ff"/><circle cx="640.5" cy="36.0" r="3" fill="#4aa3ff"/><circle cx="643.1" cy="36.0" r="3" fill="#4aa3ff"/><circle cx="645.7" cy="36.0" r="3" fill="#4aa3ff"/><circle cx="648.3" cy="36.0" r="3" fill="#4aa3ff"/><circle cx="650.9" cy="36.0" r="3" fill="#4aa3ff"/><circle cx="653.5" cy="36.0" r="3" fill="#4aa3ff"/><circle cx="656.1" cy="36.0" r="3" fill="#4aa3ff"/><circle cx="658.8" cy="36.0" r="3" fill="#4aa3ff"/><circle cx="661.4" cy="36.0" r="3" fill="#4aa3ff"/><circle cx="664.0" cy="36.0" r="3" fill="#4aa3ff"/>
<text x="36" y="225" fill="#6b7280" font-size="11">2026-06-26</text>
<text x="664" y="225" fill="#6b7280" font-size="11" text-anchor="end">2026-07-20</text>
<text x="36" y="212" font-family="system-ui,sans-serif" font-size="11">
<tspan fill="#4aa3ff">&#9679; open FPs</tspan>  <tspan fill="#3fb950">&#9679; closed (Anthropic acting)</tspan>  <tspan fill="#8a5a5a">&#9679; harness withdrawn</tspan></text>
<text x="664" y="22" text-anchor="end" font-family="system-ui,sans-serif" font-size="12">
<tspan fill="#4aa3ff">open 800</tspan>  <tspan fill="#3fb950">closed 0</tspan>  <tspan fill="#8a5a5a">harness 0</tspan></text>
</svg>