<svg xmlns="http://www.w3.org/2000/svg" width="700" height="234" viewBox="0 0 700 234" role="img">
<rect width="700" height="234" rx="12" fill="#16181d"/>
<text x="36" y="22" fill="#e8eaed" font-family="system-ui,sans-serif" font-size="14" font-weight="700">Is Anthropic acting? cyber/aup false positives over time</text>
<line x1="36" y1="198.0" x2="664" y2="198.0" stroke="#2a2e37" stroke-width="1"/><text x="30" y="202.0" fill="#6b7280" font-size="11" text-anchor="end">0</text><line x1="36" y1="117.0" x2="664" y2="117.0" stroke="#2a2e37" stroke-width="1"/><text x="30" y="121.0" fill="#6b7280" font-size="11" text-anchor="end">400</text><line x1="36" y1="36.0" x2="664" y2="36.0" stroke="#2a2e37" stroke-width="1"/><text x="30" y="40.0" fill="#6b7280" font-size="11" text-anchor="end">800</text>

<polyline fill="none" stroke="#8a5a5a" stroke-width="2.5" stroke-linejoin="round" points="36.0,145.1 38.8,145.1 41.5,145.1 44.3,145.1 47.1,145.1 49.8,145.1 52.6,145.1 55.4,145.1 58.1,145.1 60.9,145.1 63.7,145.1 66.4,145.1 69.2,145.1 72.0,145.1 74.7,145.1 77.5,145.1 80.3,145.1 83.0,145.1 85.8,145.1 88.6,145.1 91.3,145.1 94.1,145.1 96.9,145.1 99.6,145.1 102.4,145.1 105.2,145.1 107.9,145.1 110.7,145.1 113.5,145.1 116.2,145.1 119.0,145.1 121.8,145.1 124.5,145.1 127.3,145.1 130.1,145.1 132.8,145.1 135.6,145.1 138.4,145.1 141.1,145.1 143.9,145.1 146.7,145.1 149.4,145.1 152.2,145.1 155.0,145.1 157.7,145.1 160.5,145.1 163.3,145.1 166.0,145.1 168.8,145.1 171.6,145.1 174.3,155.7 177.1,155.7 179.9,155.7 182.6,155.7 185.4,155.7 188.2,155.7 190.9,155.7 193.7,155.7 196.5,155.7 199.2,155.7 202.0,155.7 204.8,155.7 207.5,155.7 210.3,155.7 213.1,155.7 215.8,155.7 218.6,155.7 221.4,155.7 224.1,155.7 226.9,155.7 229.7,155.7 232.4,155.7 235.2,155.7 238.0,155.7 240.7,155.7 243.5,155.7 246.3,155.7 249.0,155.7 251.8,155.7 254.6,155.7 257.3,155.7 260.1,155.7 262.9,155.7 265.6,155.7 268.4,167.6 271.2,167.6 273.9,170.3 276.7,170.3 279.5,170.5 282.2,170.7 285.0,170.7 287.8,170.9 290.5,172.7 293.3,180.6 296.1,181.8 298.8,189.1 301.6,190.5 304.4,195.2 307.1,198.0 309.9,198.0 312.7,198.0 315.4,198.0 318.2,198.0 321.0,198.0 323.7,198.0 326.5,198.0 329.3,198.0 332.0,198.0 334.8,198.0 337.6,198.0 340.3,198.0 343.1,198.0 345.9,198.0 348.6,198.0 351.4,198.0 354.1,198.0 356.9,198.0 359.7,198.0 362.4,198.0 365.2,198.0 368.0,198.0 370.7,198.0 373.5,198.0 376.3,198.0 379.0,198.0 381.8,198.0 384.6,198.0 387.3,198.0 390.1,198.0 392.9,198.0 395.6,198.0 398.4,198.0 401.2,198.0 403.9,198.0 406.7,198.0 409.5,198.0 412.2,198.0 415.0,198.0 417.8,198.0 420.5,198.0 423.3,198.0 426.1,198.0 428.8,198.0 431.6,198.0 434.4,198.0 437.1,198.0 439.9,198.0 442.7,198.0 445.4,198.0 448.2,198.0 451.0,198.0 453.7,198.0 456.5,198.0 459.3,198.0 462.0,198.0 464.8,198.0 467.6,198.0 470.3,198.0 473.1,198.0 475.9,198.0 478.6,198.0 481.4,198.0 484.2,198.0 486.9,198.0 489.7,198.0 492.5,198.0 495.2,198.0 498.0,198.0 500.8,198.0 503.5,198.0 506.3,198.0 509.1,198.0 511.8,198.0 514.6,198.0 517.4,198.0 520.1,198.0 522.9,198.0 525.7,198.0 528.4,198.0 531.2,198.0 534.0,198.0 536.7,198.0 539.5,198.0 542.3,198.0 545.0,198.0 547.8,198.0 550.6,198.0 553.3,198.0 556.1,198.0 558.9,198.0 561.6,198.0 564.4,198.0 567.2,198.0 569.9,198.0 572.7,198.0 575.5,198.0 578.2,198.0 581.0,198.0 583.8,198.0 586.5,198.0 589.3,198.0 592.1,198.0 594.8,198.0 597.6,198.0 600.4,198.0 603.1,198.0 605.9,198.0 608.7,198.0 611.4,198.0 614.2,198.0 617.0,198.0 619.7,198.0 622.5,198.0 625.3,198.0 628.0,198.0 630.8,198.0 633.6,198.0 636.3,198.0 639.1,198.0 641.9,198.0 644.6,198.0 647.4,198.0 650.2,198.0 652.9,198.0 655.7,198.0 658.5,198.0 661.2,198.0 664.0,198.0"/><circle cx="36.0" cy="145.1" r="3" fill="#8a5a5a"/><circle cx="38.8" cy="145.1" r="3" fill="#8a5a5a"/><circle cx="41.5" cy="145.1" r="3" fill="#8a5a5a"/><circle cx="44.3" cy="145.1" r="3" fill="#8a5a5a"/><circle cx="47.1" cy="145.1" r="3" fill="#8a5a5a"/><circle cx="49.8" cy="145.1" r="3" fill="#8a5a5a"/><circle cx="52.6" cy="145.1" r="3" fill="#8a5a5a"/><circle cx="55.4" cy="145.1" r="3" fill="#8a5a5a"/><circle cx="58.1" cy="145.1" r="3" fill="#8a5a5a"/><circle cx="60.9" cy="145.1" r="3" fill="#8a5a5a"/><circle cx="63.7" cy="145.1" r="3" fill="#8a5a5a"/><circle cx="66.4" cy="145.1" r="3" fill="#8a5a5a"/><circle cx="69.2" cy="145.1" r="3" fill="#8a5a5a"/><circle cx="72.0" cy="145.1" r="3" fill="#8a5a5a"/><circle cx="74.7" cy="145.1" r="3" fill="#8a5a5a"/><circle cx="77.5" cy="145.1" r="3" fill="#8a5a5a"/><circle cx="80.3" cy="145.1" r="3" fill="#8a5a5a"/><circle cx="83.0" cy="145.1" r="3" fill="#8a5a5a"/><circle cx="85.8" cy="145.1" r="3" fill="#8a5a5a"/><circle cx="88.6" cy="145.1" r="3" fill="#8a5a5a"/><circle cx="91.3" cy="145.1" r="3" fill="#8a5a5a"/><circle cx="94.1" cy="145.1" r="3" fill="#8a5a5a"/><circle cx="96.9" cy="145.1" r="3" fill="#8a5a5a"/><circle cx="99.6" cy="145.1" r="3" fill="#8a5a5a"/><circle cx="102.4" cy="145.1" r="3" fill="#8a5a5a"/><circle cx="105.2" cy="145.1" r="3" fill="#8a5a5a"/><circle cx="107.9" cy="145.1" r="3" fill="#8a5a5a"/><circle cx="110.7" cy="145.1" r="3" fill="#8a5a5a"/><circle cx="113.5" cy="145.1" r="3" fill="#8a5a5a"/><circle cx="116.2" cy="145.1" r="3" fill="#8a5a5a"/><circle cx="119.0" cy="145.1" r="3" fill="#8a5a5a"/><circle cx="121.8" cy="145.1" r="3" fill="#8a5a5a"/><circle cx="124.5" cy="145.1" r="3" fill="#8a5a5a"/><circle cx="127.3" cy="145.1" r="3" fill="#8a5a5a"/><circle cx="130.1" cy="145.1" r="3" fill="#8a5a5a"/><circle cx="132.8" cy="145.1" r="3" fill="#8a5a5a"/><circle cx="135.6" cy="145.1" r="3" fill="#8a5a5a"/><circle cx="138.4" cy="145.1" r="3" fill="#8a5a5a"/><circle cx="141.1" cy="145.1" r="3" fill="#8a5a5a"/><circle cx="143.9" cy="145.1" r="3" fill="#8a5a5a"/><circle cx="146.7" cy="145.1" r="3" fill="#8a5a5a"/><circle cx="149.4" cy="145.1" r="3" fill="#8a5a5a"/><circle cx="152.2" cy="145.1" r="3" fill="#8a5a5a"/><circle cx="155.0" cy="145.1" r="3" fill="#8a5a5a"/><circle cx="157.7" cy="145.1" r="3" fill="#8a5a5a"/><circle cx="160.5" cy="145.1" r="3" fill="#8a5a5a"/><circle cx="163.3" cy="145.1" r="3" fill="#8a5a5a"/><circle cx="166.0" cy="145.1" r="3" fill="#8a5a5a"/><circle cx="168.8" cy="145.1" r="3" fill="#8a5a5a"/><circle cx="171.6" cy="145.1" r="3" fill="#8a5a5a"/><circle cx="174.3" cy="155.7" r="3" fill="#8a5a5a"/><circle cx="177.1" cy="155.7" r="3" fill="#8a5a5a"/><circle cx="179.9" cy="155.7" r="3" fill="#8a5a5a"/><circle cx="182.6" cy="155.7" r="3" fill="#8a5a5a"/><circle cx="185.4" cy="155.7" r="3" fill="#8a5a5a"/><circle cx="188.2" cy="155.7" r="3" fill="#8a5a5a"/><circle cx="190.9" cy="155.7" r="3" fill="#8a5a5a"/><circle cx="193.7" cy="155.7" r="3" fill="#8a5a5a"/><circle cx="196.5" cy="155.7" r="3" fill="#8a5a5a"/><circle cx="199.2" cy="155.7" r="3" fill="#8a5a5a"/><circle cx="202.0" cy="155.7" r="3" fill="#8a5a5a"/><circle cx="204.8" cy="155.7" r="3" fill="#8a5a5a"/><circle cx="207.5" cy="155.7" r="3" fill="#8a5a5a"/><circle cx="210.3" cy="155.7" r="3" fill="#8a5a5a"/><circle cx="213.1" cy="155.7" r="3" fill="#8a5a5a"/><circle cx="215.8" cy="155.7" r="3" fill="#8a5a5a"/><circle cx="218.6" cy="155.7" r="3" fill="#8a5a5a"/><circle cx="221.4" cy="155.7" r="3" fill="#8a5a5a"/><circle cx="224.1" cy="155.7" r="3" fill="#8a5a5a"/><circle cx="226.9" cy="155.7" r="3" fill="#8a5a5a"/><circle cx="229.7" cy="155.7" r="3" fill="#8a5a5a"/><circle cx="232.4" cy="155.7" r="3" fill="#8a5a5a"/><circle cx="235.2" cy="155.7" r="3" fill="#8a5a5a"/><circle cx="238.0" cy="155.7" r="3" fill="#8a5a5a"/><circle cx="240.7" cy="155.7" r="3" fill="#8a5a5a"/><circle cx="243.5" cy="155.7" r="3" fill="#8a5a5a"/><circle cx="246.3" cy="155.7" r="3" fill="#8a5a5a"/><circle cx="249.0" cy="155.7" r="3" fill="#8a5a5a"/><circle cx="251.8" cy="155.7" r="3" fill="#8a5a5a"/><circle cx="254.6" cy="155.7" r="3" fill="#8a5a5a"/><circle cx="257.3" cy="155.7" r="3" fill="#8a5a5a"/><circle cx="260.1" cy="155.7" r="3" fill="#8a5a5a"/><circle cx="262.9" cy="155.7" r="3" fill="#8a5a5a"/><circle cx="265.6" cy="155.7" r="3" fill="#8a5a5a"/><circle cx="268.4" cy="167.6" r="3" fill="#8a5a5a"/><circle cx="271.2" cy="167.6" r="3" fill="#8a5a5a"/><circle cx="273.9" cy="170.3" r="3" fill="#8a5a5a"/><circle cx="276.7" cy="170.3" r="3" fill="#8a5a5a"/><circle cx="279.5" cy="170.5" r="3" fill="#8a5a5a"/><circle cx="282.2" cy="170.7" r="3" fill="#8a5a5a"/><circle cx="285.0" cy="170.7" r="3" fill="#8a5a5a"/><circle cx="287.8" cy="170.9" r="3" fill="#8a5a5a"/><circle cx="290.5" cy="172.7" r="3" fill="#8a5a5a"/><circle cx="293.3" cy="180.6" r="3" fill="#8a5a5a"/><circle cx="296.1" cy="181.8" r="3" fill="#8a5a5a"/><circle cx="298.8" cy="189.1" r="3" fill="#8a5a5a"/><circle cx="301.6" cy="190.5" r="3" fill="#8a5a5a"/><circle cx="304.4" cy="195.2" r="3" fill="#8a5a5a"/><circle cx="307.1" cy="198.0" r="3" fill="#8a5a5a"/><circle cx="309.9" cy="198.0" r="3" fill="#8a5a5a"/><circle cx="312.7" cy="198.0" r="3" fill="#8a5a5a"/><circle cx="315.4" cy="198.0" r="3" fill="#8a5a5a"/><circle cx="318.2" cy="198.0" r="3" fill="#8a5a5a"/><circle cx="321.0" cy="198.0" r="3" fill="#8a5a5a"/><circle cx="323.7" cy="198.0" r="3" fill="#8a5a5a"/><circle cx="326.5" cy="198.0" r="3" fill="#8a5a5a"/><circle cx="329.3" cy="198.0" r="3" fill="#8a5a5a"/><circle cx="332.0" cy="198.0" r="3" fill="#8a5a5a"/><circle cx="334.8" cy="198.0" r="3" fill="#8a5a5a"/><circle cx="337.6" cy="198.0" r="3" fill="#8a5a5a"/><circle cx="340.3" cy="198.0" r="3" fill="#8a5a5a"/><circle cx="343.1" cy="198.0" r="3" fill="#8a5a5a"/><circle cx="345.9" cy="198.0" r="3" fill="#8a5a5a"/><circle cx="348.6" cy="198.0" r="3" fill="#8a5a5a"/><circle cx="351.4" cy="198.0" r="3" fill="#8a5a5a"/><circle cx="354.1" cy="198.0" r="3" fill="#8a5a5a"/><circle cx="356.9" cy="198.0" r="3" fill="#8a5a5a"/><circle cx="359.7" cy="198.0" r="3" fill="#8a5a5a"/><circle cx="362.4" cy="198.0" r="3" fill="#8a5a5a"/><circle cx="365.2" cy="198.0" r="3" fill="#8a5a5a"/><circle cx="368.0" cy="198.0" r="3" fill="#8a5a5a"/><circle cx="370.7" cy="198.0" r="3" fill="#8a5a5a"/><circle cx="373.5" cy="198.0" r="3" fill="#8a5a5a"/><circle cx="376.3" cy="198.0" r="3" fill="#8a5a5a"/><circle cx="379.0" cy="198.0" r="3" fill="#8a5a5a"/><circle cx="381.8" cy="198.0" r="3" fill="#8a5a5a"/><circle cx="384.6" cy="198.0" r="3" fill="#8a5a5a"/><circle cx="387.3" cy="198.0" r="3" fill="#8a5a5a"/><circle cx="390.1" cy="198.0" r="3" fill="#8a5a5a"/><circle cx="392.9" cy="198.0" r="3" fill="#8a5a5a"/><circle cx="395.6" cy="198.0" r="3" fill="#8a5a5a"/><circle cx="398.4" cy="198.0" r="3" fill="#8a5a5a"/><circle cx="401.2" cy="198.0" r="3" fill="#8a5a5a"/><circle cx="403.9" cy="198.0" r="3" fill="#8a5a5a"/><circle cx="406.7" cy="198.0" r="3" fill="#8a5a5a"/><circle cx="409.5" cy="198.0" r="3" fill="#8a5a5a"/><circle cx="412.2" cy="198.0" r="3" fill="#8a5a5a"/><circle cx="415.0" cy="198.0" r="3" fill="#8a5a5a"/><circle cx="417.8" cy="198.0" r="3" fill="#8a5a5a"/><circle cx="420.5" cy="198.0" r="3" fill="#8a5a5a"/><circle cx="423.3" cy="198.0" r="3" fill="#8a5a5a"/><circle cx="426.1" cy="198.0" r="3" fill="#8a5a5a"/><circle cx="428.8" cy="198.0" r="3" fill="#8a5a5a"/><circle cx="431.6" cy="198.0" r="3" fill="#8a5a5a"/><circle cx="434.4" cy="198.0" r="3" fill="#8a5a5a"/><circle cx="437.1" cy="198.0" r="3" fill="#8a5a5a"/><circle cx="439.9" cy="198.0" r="3" fill="#8a5a5a"/><circle cx="442.7" cy="198.0" r="3" fill="#8a5a5a"/><circle cx="445.4" cy="198.0" r="3" fill="#8a5a5a"/><circle cx="448.2" cy="198.0" r="3" fill="#8a5a5a"/><circle cx="451.0" cy="198.0" r="3" fill="#8a5a5a"/><circle cx="453.7" cy="198.0" r="3" fill="#8a5a5a"/><circle cx="456.5" cy="198.0" r="3" fill="#8a5a5a"/><circle cx="459.3" cy="198.0" r="3" fill="#8a5a5a"/><circle cx="462.0" cy="198.0" r="3" fill="#8a5a5a"/><circle cx="464.8" cy="198.0" r="3" fill="#8a5a5a"/><circle cx="467.6" cy="198.0" r="3" fill="#8a5a5a"/><circle cx="470.3" cy="198.0" r="3" fill="#8a5a5a"/><circle cx="473.1" cy="198.0" r="3" fill="#8a5a5a"/><circle cx="475.9" cy="198.0" r="3" fill="#8a5a5a"/><circle cx="478.6" cy="198.0" r="3" fill="#8a5a5a"/><circle cx="481.4" cy="198.0" r="3" fill="#8a5a5a"/><circle cx="484.2" cy="198.0" r="3" fill="#8a5a5a"/><circle cx="486.9" cy="198.0" r="3" fill="#8a5a5a"/><circle cx="489.7" cy="198.0" r="3" fill="#8a5a5a"/><circle cx="492.5" cy="198.0" r="3" fill="#8a5a5a"/><circle cx="495.2" cy="198.0" r="3" fill="#8a5a5a"/><circle cx="498.0" cy="198.0" r="3" fill="#8a5a5a"/><circle cx="500.8" cy="198.0" r="3" fill="#8a5a5a"/><circle cx="503.5" cy="198.0" r="3" fill="#8a5a5a"/><circle cx="506.3" cy="198.0" r="3" fill="#8a5a5a"/><circle cx="509.1" cy="198.0" r="3" fill="#8a5a5a"/><circle cx="511.8" cy="198.0" r="3" fill="#8a5a5a"/><circle cx="514.6" cy="198.0" r="3" fill="#8a5a5a"/><circle cx="517.4" cy="198.0" r="3" fill="#8a5a5a"/><circle cx="520.1" cy="198.0" r="3" fill="#8a5a5a"/><circle cx="522.9" cy="198.0" r="3" fill="#8a5a5a"/><circle cx="525.7" cy="198.0" r="3" fill="#8a5a5a"/><circle cx="528.4" cy="198.0" r="3" fill="#8a5a5a"/><circle cx="531.2" cy="198.0" r="3" fill="#8a5a5a"/><circle cx="534.0" cy="198.0" r="3" fill="#8a5a5a"/><circle cx="536.7" cy="198.0" r="3" fill="#8a5a5a"/><circle cx="539.5" cy="198.0" r="3" fill="#8a5a5a"/><circle cx="542.3" cy="198.0" r="3" fill="#8a5a5a"/><circle cx="545.0" cy="198.0" r="3" fill="#8a5a5a"/><circle cx="547.8" cy="198.0" r="3" fill="#8a5a5a"/><circle cx="550.6" cy="198.0" r="3" fill="#8a5a5a"/><circle cx="553.3" cy="198.0" r="3" fill="#8a5a5a"/><circle cx="556.1" cy="198.0" r="3" fill="#8a5a5a"/><circle cx="558.9" cy="198.0" r="3" fill="#8a5a5a"/><circle cx="561.6" cy="198.0" r="3" fill="#8a5a5a"/><circle cx="564.4" cy="198.0" r="3" fill="#8a5a5a"/><circle cx="567.2" cy="198.0" r="3" fill="#8a5a5a"/><circle cx="569.9" cy="198.0" r="3" fill="#8a5a5a"/><circle cx="572.7" cy="198.0" r="3" fill="#8a5a5a"/><circle cx="575.5" cy="198.0" r="3" fill="#8a5a5a"/><circle cx="578.2" cy="198.0" r="3" fill="#8a5a5a"/><circle cx="581.0" cy="198.0" r="3" fill="#8a5a5a"/><circle cx="583.8" cy="198.0" r="3" fill="#8a5a5a"/><circle cx="586.5" cy="198.0" r="3" fill="#8a5a5a"/><circle cx="589.3" cy="198.0" r="3" fill="#8a5a5a"/><circle cx="592.1" cy="198.0" r="3" fill="#8a5a5a"/><circle cx="594.8" cy="198.0" r="3" fill="#8a5a5a"/><circle cx="597.6" cy="198.0" r="3" fill="#8a5a5a"/><circle cx="600.4" cy="198.0" r="3" fill="#8a5a5a"/><circle cx="603.1" cy="198.0" r="3" fill="#8a5a5a"/><circle cx="605.9" cy="198.0" r="3" fill="#8a5a5a"/><circle cx="608.7" cy="198.0" r="3" fill="#8a5a5a"/><circle cx="611.4" cy="198.0" r="3" fill="#8a5a5a"/><circle cx="614.2" cy="198.0" r="3" fill="#8a5a5a"/><circle cx="617.0" cy="198.0" r="3" fill="#8a5a5a"/><circle cx="619.7" cy="198.0" r="3" fill="#8a5a5a"/><circle cx="622.5" cy="198.0" r="3" fill="#8a5a5a"/><circle cx="625.3" cy="198.0" r="3" fill="#8a5a5a"/><circle cx="628.0" cy="198.0" r="3" fill="#8a5a5a"/><circle cx="630.8" cy="198.0" r="3" fill="#8a5a5a"/><circle cx="633.6" cy="198.0" r="3" fill="#8a5a5a"/><circle cx="636.3" cy="198.0" r="3" fill="#8a5a5a"/><circle cx="639.1" cy="198.0" r="3" fill="#8a5a5a"/><circle cx="641.9" cy="198.0" r="3" fill="#8a5a5a"/><circle cx="644.6" cy="198.0" r="3" fill="#8a5a5a"/><circle cx="647.4" cy="198.0" r="3" fill="#8a5a5a"/><circle cx="650.2" cy="198.0" r="3" fill="#8a5a5a"/><circle cx="652.9" cy="198.0" r="3" fill="#8a5a5a"/><circle cx="655.7" cy="198.0" r="3" fill="#8a5a5a"/><circle cx="658.5" cy="198.0" r="3" fill="#8a5a5a"/><circle cx="661.2" cy="198.0" r="3" fill="#8a5a5a"/><circle cx="664.0" cy="198.0" r="3" fill="#8a5a5a"/>
<polyline fill="none" stroke="#3fb950" stroke-width="2.5" stroke-linejoin="round" points="36.0,198.0 38.8,198.0 41.5,198.0 44.3,198.0 47.1,198.0 49.8,198.0 52.6,198.0 55.4,198.0 58.1,198.0 60.9,198.0 63.7,198.0 66.4,198.0 69.2,198.0 72.0,198.0 74.7,198.0 77.5,198.0 80.3,198.0 83.0,198.0 85.8,198.0 88.6,198.0 91.3,198.0 94.1,198.0 96.9,198.0 99.6,198.0 102.4,198.0 105.2,198.0 107.9,198.0 110.7,198.0 113.5,198.0 116.2,198.0 119.0,198.0 121.8,198.0 124.5,198.0 127.3,198.0 130.1,198.0 132.8,198.0 135.6,198.0 138.4,198.0 141.1,198.0 143.9,198.0 146.7,198.0 149.4,198.0 152.2,198.0 155.0,191.7 157.7,191.7 160.5,191.7 163.3,191.7 166.0,191.7 168.8,191.7 171.6,191.7 174.3,192.9 177.1,192.9 179.9,190.7 182.6,190.7 185.4,190.7 188.2,190.7 190.9,190.7 193.7,190.5 196.5,190.5 199.2,190.5 202.0,190.3 204.8,190.3 207.5,190.3 210.3,190.3 213.1,190.3 215.8,190.3 218.6,190.3 221.4,190.3 224.1,190.3 226.9,190.3 229.7,190.3 232.4,190.3 235.2,190.3 238.0,190.3 240.7,190.3 243.5,190.3 246.3,190.3 249.0,190.3 251.8,190.3 254.6,190.3 257.3,190.3 260.1,189.3 262.9,189.3 265.6,189.3 268.4,190.7 271.2,190.7 273.9,190.7 276.7,190.7 279.5,190.7 282.2,190.7 285.0,190.7 287.8,190.7 290.5,190.7 293.3,190.9 296.1,190.9 298.8,190.9 301.6,194.2 304.4,196.8 307.1,198.0 309.9,198.0 312.7,198.0 315.4,198.0 318.2,198.0 321.0,198.0 323.7,198.0 326.5,198.0 329.3,198.0 332.0,198.0 334.8,198.0 337.6,198.0 340.3,198.0 343.1,198.0 345.9,198.0 348.6,198.0 351.4,198.0 354.1,198.0 356.9,198.0 359.7,198.0 362.4,198.0 365.2,198.0 368.0,198.0 370.7,198.0 373.5,198.0 376.3,198.0 379.0,198.0 381.8,198.0 384.6,198.0 387.3,198.0 390.1,198.0 392.9,198.0 395.6,198.0 398.4,198.0 401.2,198.0 403.9,198.0 406.7,198.0 409.5,198.0 412.2,198.0 415.0,198.0 417.8,198.0 420.5,198.0 423.3,198.0 426.1,198.0 428.8,198.0 431.6,198.0 434.4,198.0 437.1,198.0 439.9,198.0 442.7,198.0 445.4,198.0 448.2,198.0 451.0,198.0 453.7,198.0 456.5,198.0 459.3,198.0 462.0,198.0 464.8,198.0 467.6,198.0 470.3,198.0 473.1,198.0 475.9,198.0 478.6,198.0 481.4,198.0 484.2,198.0 486.9,198.0 489.7,198.0 492.5,198.0 495.2,198.0 498.0,198.0 500.8,198.0 503.5,198.0 506.3,198.0 509.1,198.0 511.8,198.0 514.6,198.0 517.4,198.0 520.1,198.0 522.9,198.0 525.7,198.0 528.4,198.0 531.2,198.0 534.0,198.0 536.7,198.0 539.5,198.0 542.3,198.0 545.0,198.0 547.8,198.0 550.6,198.0 553.3,198.0 556.1,198.0 558.9,198.0 561.6,198.0 564.4,198.0 567.2,198.0 569.9,198.0 572.7,198.0 575.5,198.0 578.2,198.0 581.0,198.0 583.8,198.0 586.5,198.0 589.3,198.0 592.1,198.0 594.8,198.0 597.6,198.0 600.4,198.0 603.1,198.0 605.9,198.0 608.7,198.0 611.4,198.0 614.2,198.0 617.0,198.0 619.7,198.0 622.5,198.0 625.3,198.0 628.0,198.0 630.8,198.0 633.6,198.0 636.3,198.0 639.1,198.0 641.9,198.0 644.6,198.0 647.4,198.0 650.2,198.0 652.9,198.0 655.7,198.0 658.5,198.0 661.2,198.0 664.0,198.0"/><circle cx="36.0" cy="198.0" r="3" fill="#3fb950"/><circle cx="38.8" cy="198.0" r="3" fill="#3fb950"/><circle cx="41.5" cy="198.0" r="3" fill="#3fb950"/><circle cx="44.3" cy="198.0" r="3" fill="#3fb950"/><circle cx="47.1" cy="198.0" r="3" fill="#3fb950"/><circle cx="49.8" cy="198.0" r="3" fill="#3fb950"/><circle cx="52.6" cy="198.0" r="3" fill="#3fb950"/><circle cx="55.4" cy="198.0" r="3" fill="#3fb950"/><circle cx="58.1" cy="198.0" r="3" fill="#3fb950"/><circle cx="60.9" cy="198.0" r="3" fill="#3fb950"/><circle cx="63.7" cy="198.0" r="3" fill="#3fb950"/><circle cx="66.4" cy="198.0" r="3" fill="#3fb950"/><circle cx="69.2" cy="198.0" r="3" fill="#3fb950"/><circle cx="72.0" cy="198.0" r="3" fill="#3fb950"/><circle cx="74.7" cy="198.0" r="3" fill="#3fb950"/><circle cx="77.5" cy="198.0" r="3" fill="#3fb950"/><circle cx="80.3" cy="198.0" r="3" fill="#3fb950"/><circle cx="83.0" cy="198.0" r="3" fill="#3fb950"/><circle cx="85.8" cy="198.0" r="3" fill="#3fb950"/><circle cx="88.6" cy="198.0" r="3" fill="#3fb950"/><circle cx="91.3" cy="198.0" r="3" fill="#3fb950"/><circle cx="94.1" cy="198.0" r="3" fill="#3fb950"/><circle cx="96.9" cy="198.0" r="3" fill="#3fb950"/><circle cx="99.6" cy="198.0" r="3" fill="#3fb950"/><circle cx="102.4" cy="198.0" r="3" fill="#3fb950"/><circle cx="105.2" cy="198.0" r="3" fill="#3fb950"/><circle cx="107.9" cy="198.0" r="3" fill="#3fb950"/><circle cx="110.7" cy="198.0" r="3" fill="#3fb950"/><circle cx="113.5" cy="198.0" r="3" fill="#3fb950"/><circle cx="116.2" cy="198.0" r="3" fill="#3fb950"/><circle cx="119.0" cy="198.0" r="3" fill="#3fb950"/><circle cx="121.8" cy="198.0" r="3" fill="#3fb950"/><circle cx="124.5" cy="198.0" r="3" fill="#3fb950"/><circle cx="127.3" cy="198.0" r="3" fill="#3fb950"/><circle cx="130.1" cy="198.0" r="3" fill="#3fb950"/><circle cx="132.8" cy="198.0" r="3" fill="#3fb950"/><circle cx="135.6" cy="198.0" r="3" fill="#3fb950"/><circle cx="138.4" cy="198.0" r="3" fill="#3fb950"/><circle cx="141.1" cy="198.0" r="3" fill="#3fb950"/><circle cx="143.9" cy="198.0" r="3" fill="#3fb950"/><circle cx="146.7" cy="198.0" r="3" fill="#3fb950"/><circle cx="149.4" cy="198.0" r="3" fill="#3fb950"/><circle cx="152.2" cy="198.0" r="3" fill="#3fb950"/><circle cx="155.0" cy="191.7" r="3" fill="#3fb950"/><circle cx="157.7" cy="191.7" r="3" fill="#3fb950"/><circle cx="160.5" cy="191.7" r="3" fill="#3fb950"/><circle cx="163.3" cy="191.7" r="3" fill="#3fb950"/><circle cx="166.0" cy="191.7" r="3" fill="#3fb950"/><circle cx="168.8" cy="191.7" r="3" fill="#3fb950"/><circle cx="171.6" cy="191.7" r="3" fill="#3fb950"/><circle cx="174.3" cy="192.9" r="3" fill="#3fb950"/><circle cx="177.1" cy="192.9" r="3" fill="#3fb950"/><circle cx="179.9" cy="190.7" r="3" fill="#3fb950"/><circle cx="182.6" cy="190.7" r="3" fill="#3fb950"/><circle cx="185.4" cy="190.7" r="3" fill="#3fb950"/><circle cx="188.2" cy="190.7" r="3" fill="#3fb950"/><circle cx="190.9" cy="190.7" r="3" fill="#3fb950"/><circle cx="193.7" cy="190.5" r="3" fill="#3fb950"/><circle cx="196.5" cy="190.5" r="3" fill="#3fb950"/><circle cx="199.2" cy="190.5" r="3" fill="#3fb950"/><circle cx="202.0" cy="190.3" r="3" fill="#3fb950"/><circle cx="204.8" cy="190.3" r="3" fill="#3fb950"/><circle cx="207.5" cy="190.3" r="3" fill="#3fb950"/><circle cx="210.3" cy="190.3" r="3" fill="#3fb950"/><circle cx="213.1" cy="190.3" r="3" fill="#3fb950"/><circle cx="215.8" cy="190.3" r="3" fill="#3fb950"/><circle cx="218.6" cy="190.3" r="3" fill="#3fb950"/><circle cx="221.4" cy="190.3" r="3" fill="#3fb950"/><circle cx="224.1" cy="190.3" r="3" fill="#3fb950"/><circle cx="226.9" cy="190.3" r="3" fill="#3fb950"/><circle cx="229.7" cy="190.3" r="3" fill="#3fb950"/><circle cx="232.4" cy="190.3" r="3" fill="#3fb950"/><circle cx="235.2" cy="190.3" r="3" fill="#3fb950"/><circle cx="238.0" cy="190.3" r="3" fill="#3fb950"/><circle cx="240.7" cy="190.3" r="3" fill="#3fb950"/><circle cx="243.5" cy="190.3" r="3" fill="#3fb950"/><circle cx="246.3" cy="190.3" r="3" fill="#3fb950"/><circle cx="249.0" cy="190.3" r="3" fill="#3fb950"/><circle cx="251.8" cy="190.3" r="3" fill="#3fb950"/><circle cx="254.6" cy="190.3" r="3" fill="#3fb950"/><circle cx="257.3" cy="190.3" r="3" fill="#3fb950"/><circle cx="260.1" cy="189.3" r="3" fill="#3fb950"/><circle cx="262.9" cy="189.3" r="3" fill="#3fb950"/><circle cx="265.6" cy="189.3" r="3" fill="#3fb950"/><circle cx="268.4" cy="190.7" r="3" fill="#3fb950"/><circle cx="271.2" cy="190.7" r="3" fill="#3fb950"/><circle cx="273.9" cy="190.7" r="3" fill="#3fb950"/><circle cx="276.7" cy="190.7" r="3" fill="#3fb950"/><circle cx="279.5" cy="190.7" r="3" fill="#3fb950"/><circle cx="282.2" cy="190.7" r="3" fill="#3fb950"/><circle cx="285.0" cy="190.7" r="3" fill="#3fb950"/><circle cx="287.8" cy="190.7" r="3" fill="#3fb950"/><circle cx="290.5" cy="190.7" r="3" fill="#3fb950"/><circle cx="293.3" cy="190.9" r="3" fill="#3fb950"/><circle cx="296.1" cy="190.9" r="3" fill="#3fb950"/><circle cx="298.8" cy="190.9" r="3" fill="#3fb950"/><circle cx="301.6" cy="194.2" r="3" fill="#3fb950"/><circle cx="304.4" cy="196.8" r="3" fill="#3fb950"/><circle cx="307.1" cy="198.0" r="3" fill="#3fb950"/><circle cx="309.9" cy="198.0" r="3" fill="#3fb950"/><circle cx="312.7" cy="198.0" r="3" fill="#3fb950"/><circle cx="315.4" cy="198.0" r="3" fill="#3fb950"/><circle cx="318.2" cy="198.0" r="3" fill="#3fb950"/><circle cx="321.0" cy="198.0" r="3" fill="#3fb950"/><circle cx="323.7" cy="198.0" r="3" fill="#3fb950"/><circle cx="326.5" cy="198.0" r="3" fill="#3fb950"/><circle cx="329.3" cy="198.0" r="3" fill="#3fb950"/><circle cx="332.0" cy="198.0" r="3" fill="#3fb950"/><circle cx="334.8" cy="198.0" r="3" fill="#3fb950"/><circle cx="337.6" cy="198.0" r="3" fill="#3fb950"/><circle cx="340.3" cy="198.0" r="3" fill="#3fb950"/><circle cx="343.1" cy="198.0" r="3" fill="#3fb950"/><circle cx="345.9" cy="198.0" r="3" fill="#3fb950"/><circle cx="348.6" cy="198.0" r="3" fill="#3fb950"/><circle cx="351.4" cy="198.0" r="3" fill="#3fb950"/><circle cx="354.1" cy="198.0" r="3" fill="#3fb950"/><circle cx="356.9" cy="198.0" r="3" fill="#3fb950"/><circle cx="359.7" cy="198.0" r="3" fill="#3fb950"/><circle cx="362.4" cy="198.0" r="3" fill="#3fb950"/><circle cx="365.2" cy="198.0" r="3" fill="#3fb950"/><circle cx="368.0" cy="198.0" r="3" fill="#3fb950"/><circle cx="370.7" cy="198.0" r="3" fill="#3fb950"/><circle cx="373.5" cy="198.0" r="3" fill="#3fb950"/><circle cx="376.3" cy="198.0" r="3" fill="#3fb950"/><circle cx="379.0" cy="198.0" r="3" fill="#3fb950"/><circle cx="381.8" cy="198.0" r="3" fill="#3fb950"/><circle cx="384.6" cy="198.0" r="3" fill="#3fb950"/><circle cx="387.3" cy="198.0" r="3" fill="#3fb950"/><circle cx="390.1" cy="198.0" r="3" fill="#3fb950"/><circle cx="392.9" cy="198.0" r="3" fill="#3fb950"/><circle cx="395.6" cy="198.0" r="3" fill="#3fb950"/><circle cx="398.4" cy="198.0" r="3" fill="#3fb950"/><circle cx="401.2" cy="198.0" r="3" fill="#3fb950"/><circle cx="403.9" cy="198.0" r="3" fill="#3fb950"/><circle cx="406.7" cy="198.0" r="3" fill="#3fb950"/><circle cx="409.5" cy="198.0" r="3" fill="#3fb950"/><circle cx="412.2" cy="198.0" r="3" fill="#3fb950"/><circle cx="415.0" cy="198.0" r="3" fill="#3fb950"/><circle cx="417.8" cy="198.0" r="3" fill="#3fb950"/><circle cx="420.5" cy="198.0" r="3" fill="#3fb950"/><circle cx="423.3" cy="198.0" r="3" fill="#3fb950"/><circle cx="426.1" cy="198.0" r="3" fill="#3fb950"/><circle cx="428.8" cy="198.0" r="3" fill="#3fb950"/><circle cx="431.6" cy="198.0" r="3" fill="#3fb950"/><circle cx="434.4" cy="198.0" r="3" fill="#3fb950"/><circle cx="437.1" cy="198.0" r="3" fill="#3fb950"/><circle cx="439.9" cy="198.0" r="3" fill="#3fb950"/><circle cx="442.7" cy="198.0" r="3" fill="#3fb950"/><circle cx="445.4" cy="198.0" r="3" fill="#3fb950"/><circle cx="448.2" cy="198.0" r="3" fill="#3fb950"/><circle cx="451.0" cy="198.0" r="3" fill="#3fb950"/><circle cx="453.7" cy="198.0" r="3" fill="#3fb950"/><circle cx="456.5" cy="198.0" r="3" fill="#3fb950"/><circle cx="459.3" cy="198.0" r="3" fill="#3fb950"/><circle cx="462.0" cy="198.0" r="3" fill="#3fb950"/><circle cx="464.8" cy="198.0" r="3" fill="#3fb950"/><circle cx="467.6" cy="198.0" r="3" fill="#3fb950"/><circle cx="470.3" cy="198.0" r="3" fill="#3fb950"/><circle cx="473.1" cy="198.0" r="3" fill="#3fb950"/><circle cx="475.9" cy="198.0" r="3" fill="#3fb950"/><circle cx="478.6" cy="198.0" r="3" fill="#3fb950"/><circle cx="481.4" cy="198.0" r="3" fill="#3fb950"/><circle cx="484.2" cy="198.0" r="3" fill="#3fb950"/><circle cx="486.9" cy="198.0" r="3" fill="#3fb950"/><circle cx="489.7" cy="198.0" r="3" fill="#3fb950"/><circle cx="492.5" cy="198.0" r="3" fill="#3fb950"/><circle cx="495.2" cy="198.0" r="3" fill="#3fb950"/><circle cx="498.0" cy="198.0" r="3" fill="#3fb950"/><circle cx="500.8" cy="198.0" r="3" fill="#3fb950"/><circle cx="503.5" cy="198.0" r="3" fill="#3fb950"/><circle cx="506.3" cy="198.0" r="3" fill="#3fb950"/><circle cx="509.1" cy="198.0" r="3" fill="#3fb950"/><circle cx="511.8" cy="198.0" r="3" fill="#3fb950"/><circle cx="514.6" cy="198.0" r="3" fill="#3fb950"/><circle cx="517.4" cy="198.0" r="3" fill="#3fb950"/><circle cx="520.1" cy="198.0" r="3" fill="#3fb950"/><circle cx="522.9" cy="198.0" r="3" fill="#3fb950"/><circle cx="525.7" cy="198.0" r="3" fill="#3fb950"/><circle cx="528.4" cy="198.0" r="3" fill="#3fb950"/><circle cx="531.2" cy="198.0" r="3" fill="#3fb950"/><circle cx="534.0" cy="198.0" r="3" fill="#3fb950"/><circle cx="536.7" cy="198.0" r="3" fill="#3fb950"/><circle cx="539.5" cy="198.0" r="3" fill="#3fb950"/><circle cx="542.3" cy="198.0" r="3" fill="#3fb950"/><circle cx="545.0" cy="198.0" r="3" fill="#3fb950"/><circle cx="547.8" cy="198.0" r="3" fill="#3fb950"/><circle cx="550.6" cy="198.0" r="3" fill="#3fb950"/><circle cx="553.3" cy="198.0" r="3" fill="#3fb950"/><circle cx="556.1" cy="198.0" r="3" fill="#3fb950"/><circle cx="558.9" cy="198.0" r="3" fill="#3fb950"/><circle cx="561.6" cy="198.0" r="3" fill="#3fb950"/><circle cx="564.4" cy="198.0" r="3" fill="#3fb950"/><circle cx="567.2" cy="198.0" r="3" fill="#3fb950"/><circle cx="569.9" cy="198.0" r="3" fill="#3fb950"/><circle cx="572.7" cy="198.0" r="3" fill="#3fb950"/><circle cx="575.5" cy="198.0" r="3" fill="#3fb950"/><circle cx="578.2" cy="198.0" r="3" fill="#3fb950"/><circle cx="581.0" cy="198.0" r="3" fill="#3fb950"/><circle cx="583.8" cy="198.0" r="3" fill="#3fb950"/><circle cx="586.5" cy="198.0" r="3" fill="#3fb950"/><circle cx="589.3" cy="198.0" r="3" fill="#3fb950"/><circle cx="592.1" cy="198.0" r="3" fill="#3fb950"/><circle cx="594.8" cy="198.0" r="3" fill="#3fb950"/><circle cx="597.6" cy="198.0" r="3" fill="#3fb950"/><circle cx="600.4" cy="198.0" r="3" fill="#3fb950"/><circle cx="603.1" cy="198.0" r="3" fill="#3fb950"/><circle cx="605.9" cy="198.0" r="3" fill="#3fb950"/><circle cx="608.7" cy="198.0" r="3" fill="#3fb950"/><circle cx="611.4" cy="198.0" r="3" fill="#3fb950"/><circle cx="614.2" cy="198.0" r="3" fill="#3fb950"/><circle cx="617.0" cy="198.0" r="3" fill="#3fb950"/><circle cx="619.7" cy="198.0" r="3" fill="#3fb950"/><circle cx="622.5" cy="198.0" r="3" fill="#3fb950"/><circle cx="625.3" cy="198.0" r="3" fill="#3fb950"/><circle cx="628.0" cy="198.0" r="3" fill="#3fb950"/><circle cx="630.8" cy="198.0" r="3" fill="#3fb950"/><circle cx="633.6" cy="198.0" r="3" fill="#3fb950"/><circle cx="636.3" cy="198.0" r="3" fill="#3fb950"/><circle cx="639.1" cy="198.0" r="3" fill="#3fb950"/><circle cx="641.9" cy="198.0" r="3" fill="#3fb950"/><circle cx="644.6" cy="198.0" r="3" fill="#3fb950"/><circle cx="647.4" cy="198.0" r="3" fill="#3fb950"/><circle cx="650.2" cy="198.0" r="3" fill="#3fb950"/><circle cx="652.9" cy="198.0" r="3" fill="#3fb950"/><circle cx="655.7" cy="198.0" r="3" fill="#3fb950"/><circle cx="658.5" cy="198.0" r="3" fill="#3fb950"/><circle cx="661.2" cy="198.0" r="3" fill="#3fb950"/><circle cx="664.0" cy="198.0" r="3" fill="#3fb950"/>
<polyline fill="none" stroke="#4aa3ff" stroke-width="2.5" stroke-linejoin="round" points="36.0,144.3 38.8,144.3 41.5,144.3 44.3,144.3 47.1,144.3 49.8,144.3 52.6,144.3 55.4,144.3 58.1,144.3 60.9,144.3 63.7,144.3 66.4,144.3 69.2,144.3 72.0,144.3 74.7,144.3 77.5,136.2 80.3,132.4 83.0,129.6 85.8,129.6 88.6,121.0 91.3,121.0 94.1,121.0 96.9,114.4 99.6,114.4 102.4,114.4 105.2,111.3 107.9,110.9 110.7,110.9 113.5,110.5 116.2,110.5 119.0,109.9 121.8,108.7 124.5,107.3 127.3,106.9 130.1,106.9 132.8,106.9 135.6,106.9 138.4,106.9 141.1,106.9 143.9,106.9 146.7,106.9 149.4,106.9 152.2,106.9 155.0,113.2 157.7,113.2 160.5,113.2 163.3,113.2 166.0,113.2 168.8,110.7 171.6,105.3 174.3,83.4 177.1,83.4 179.9,85.6 182.6,85.6 185.4,85.6 188.2,85.6 190.9,85.6 193.7,85.8 196.5,85.8 199.2,85.8 202.0,86.0 204.8,86.0 207.5,86.0 210.3,86.0 213.1,86.0 215.8,86.0 218.6,86.0 221.4,86.0 224.1,86.0 226.9,86.0 229.7,86.0 232.4,86.0 235.2,86.0 238.0,86.0 240.7,86.0 243.5,86.0 246.3,86.0 249.0,86.0 251.8,86.0 254.6,86.0 257.3,86.0 260.1,87.0 262.9,87.0 265.6,87.0 268.4,73.7 271.2,73.7 273.9,71.0 276.7,71.0 279.5,70.8 282.2,70.6 285.0,70.6 287.8,70.4 290.5,68.6 293.3,60.5 296.1,59.3 298.8,52.0 301.6,47.3 304.4,40.1 307.1,36.0 309.9,36.0 312.7,36.0 315.4,36.0 318.2,36.0 321.0,36.0 323.7,36.0 326.5,36.0 329.3,36.0 332.0,36.0 334.8,36.0 337.6,36.0 340.3,36.0 343.1,36.0 345.9,36.0 348.6,36.0 351.4,36.0 354.1,36.0 356.9,36.0 359.7,36.0 362.4,36.0 365.2,36.0 368.0,36.0 370.7,36.0 373.5,36.0 376.3,36.0 379.0,36.0 381.8,36.0 384.6,36.0 387.3,36.0 390.1,36.0 392.9,36.0 395.6,36.0 398.4,36.0 401.2,36.0 403.9,36.0 406.7,36.0 409.5,36.0 412.2,36.0 415.0,36.0 417.8,36.0 420.5,36.0 423.3,36.0 426.1,36.0 428.8,36.0 431.6,36.0 434.4,36.0 437.1,36.0 439.9,36.0 442.7,36.0 445.4,36.0 448.2,36.0 451.0,36.0 453.7,36.0 456.5,36.0 459.3,36.0 462.0,36.0 464.8,36.0 467.6,36.0 470.3,36.0 473.1,36.0 475.9,36.0 478.6,36.0 481.4,36.0 484.2,36.0 486.9,36.0 489.7,36.0 492.5,36.0 495.2,36.0 498.0,36.0 500.8,36.0 503.5,36.0 506.3,36.0 509.1,36.0 511.8,36.0 514.6,36.0 517.4,36.0 520.1,36.0 522.9,36.0 525.7,36.0 528.4,36.0 531.2,36.0 534.0,36.0 536.7,36.0 539.5,36.0 542.3,36.0 545.0,36.0 547.8,36.0 550.6,36.0 553.3,36.0 556.1,36.0 558.9,36.0 561.6,36.0 564.4,36.0 567.2,36.0 569.9,36.0 572.7,36.0 575.5,36.0 578.2,36.0 581.0,36.0 583.8,36.0 586.5,36.0 589.3,36.0 592.1,36.0 594.8,36.0 597.6,36.0 600.4,36.0 603.1,36.0 605.9,36.0 608.7,36.0 611.4,36.0 614.2,36.0 617.0,36.0 619.7,36.0 622.5,36.0 625.3,36.0 628.0,36.0 630.8,36.0 633.6,36.0 636.3,36.0 639.1,36.0 641.9,36.0 644.6,36.0 647.4,36.0 650.2,36.0 652.9,36.0 655.7,36.0 658.5,36.0 661.2,36.0 664.0,36.0"/><circle cx="36.0" cy="144.3" r="3" fill="#4aa3ff"/><circle cx="38.8" cy="144.3" r="3" fill="#4aa3ff"/><circle cx="41.5" cy="144.3" r="3" fill="#4aa3ff"/><circle cx="44.3" cy="144.3" r="3" fill="#4aa3ff"/><circle cx="47.1" cy="144.3" r="3" fill="#4aa3ff"/><circle cx="49.8" cy="144.3" r="3" fill="#4aa3ff"/><circle cx="52.6" cy="144.3" r="3" fill="#4aa3ff"/><circle cx="55.4" cy="144.3" r="3" fill="#4aa3ff"/><circle cx="58.1" cy="144.3" r="3" fill="#4aa3ff"/><circle cx="60.9" cy="144.3" r="3" fill="#4aa3ff"/><circle cx="63.7" cy="144.3" r="3" fill="#4aa3ff"/><circle cx="66.4" cy="144.3" r="3" fill="#4aa3ff"/><circle cx="69.2" cy="144.3" r="3" fill="#4aa3ff"/><circle cx="72.0" cy="144.3" r="3" fill="#4aa3ff"/><circle cx="74.7" cy="144.3" r="3" fill="#4aa3ff"/><circle cx="77.5" cy="136.2" r="3" fill="#4aa3ff"/><circle cx="80.3" cy="132.4" r="3" fill="#4aa3ff"/><circle cx="83.0" cy="129.6" r="3" fill="#4aa3ff"/><circle cx="85.8" cy="129.6" r="3" fill="#4aa3ff"/><circle cx="88.6" cy="121.0" r="3" fill="#4aa3ff"/><circle cx="91.3" cy="121.0" r="3" fill="#4aa3ff"/><circle cx="94.1" cy="121.0" r="3" fill="#4aa3ff"/><circle cx="96.9" cy="114.4" r="3" fill="#4aa3ff"/><circle cx="99.6" cy="114.4" r="3" fill="#4aa3ff"/><circle cx="102.4" cy="114.4" r="3" fill="#4aa3ff"/><circle cx="105.2" cy="111.3" r="3" fill="#4aa3ff"/><circle cx="107.9" cy="110.9" r="3" fill="#4aa3ff"/><circle cx="110.7" cy="110.9" r="3" fill="#4aa3ff"/><circle cx="113.5" cy="110.5" r="3" fill="#4aa3ff"/><circle cx="116.2" cy="110.5" r="3" fill="#4aa3ff"/><circle cx="119.0" cy="109.9" r="3" fill="#4aa3ff"/><circle cx="121.8" cy="108.7" r="3" fill="#4aa3ff"/><circle cx="124.5" cy="107.3" r="3" fill="#4aa3ff"/><circle cx="127.3" cy="106.9" r="3" fill="#4aa3ff"/><circle cx="130.1" cy="106.9" r="3" fill="#4aa3ff"/><circle cx="132.8" cy="106.9" r="3" fill="#4aa3ff"/><circle cx="135.6" cy="106.9" r="3" fill="#4aa3ff"/><circle cx="138.4" cy="106.9" r="3" fill="#4aa3ff"/><circle cx="141.1" cy="106.9" r="3" fill="#4aa3ff"/><circle cx="143.9" cy="106.9" r="3" fill="#4aa3ff"/><circle cx="146.7" cy="106.9" r="3" fill="#4aa3ff"/><circle cx="149.4" cy="106.9" r="3" fill="#4aa3ff"/><circle cx="152.2" cy="106.9" r="3" fill="#4aa3ff"/><circle cx="155.0" cy="113.2" r="3" fill="#4aa3ff"/><circle cx="157.7" cy="113.2" r="3" fill="#4aa3ff"/><circle cx="160.5" cy="113.2" r="3" fill="#4aa3ff"/><circle cx="163.3" cy="113.2" r="3" fill="#4aa3ff"/><circle cx="166.0" cy="113.2" r="3" fill="#4aa3ff"/><circle cx="168.8" cy="110.7" r="3" fill="#4aa3ff"/><circle cx="171.6" cy="105.3" r="3" fill="#4aa3ff"/><circle cx="174.3" cy="83.4" r="3" fill="#4aa3ff"/><circle cx="177.1" cy="83.4" r="3" fill="#4aa3ff"/><circle cx="179.9" cy="85.6" r="3" fill="#4aa3ff"/><circle cx="182.6" cy="85.6" r="3" fill="#4aa3ff"/><circle cx="185.4" cy="85.6" r="3" fill="#4aa3ff"/><circle cx="188.2" cy="85.6" r="3" fill="#4aa3ff"/><circle cx="190.9" cy="85.6" r="3" fill="#4aa3ff"/><circle cx="193.7" cy="85.8" r="3" fill="#4aa3ff"/><circle cx="196.5" cy="85.8" r="3" fill="#4aa3ff"/><circle cx="199.2" cy="85.8" r="3" fill="#4aa3ff"/><circle cx="202.0" cy="86.0" r="3" fill="#4aa3ff"/><circle cx="204.8" cy="86.0" r="3" fill="#4aa3ff"/><circle cx="207.5" cy="86.0" r="3" fill="#4aa3ff"/><circle cx="210.3" cy="86.0" r="3" fill="#4aa3ff"/><circle cx="213.1" cy="86.0" r="3" fill="#4aa3ff"/><circle cx="215.8" cy="86.0" r="3" fill="#4aa3ff"/><circle cx="218.6" cy="86.0" r="3" fill="#4aa3ff"/><circle cx="221.4" cy="86.0" r="3" fill="#4aa3ff"/><circle cx="224.1" cy="86.0" r="3" fill="#4aa3ff"/><circle cx="226.9" cy="86.0" r="3" fill="#4aa3ff"/><circle cx="229.7" cy="86.0" r="3" fill="#4aa3ff"/><circle cx="232.4" cy="86.0" r="3" fill="#4aa3ff"/><circle cx="235.2" cy="86.0" r="3" fill="#4aa3ff"/><circle cx="238.0" cy="86.0" r="3" fill="#4aa3ff"/><circle cx="240.7" cy="86.0" r="3" fill="#4aa3ff"/><circle cx="243.5" cy="86.0" r="3" fill="#4aa3ff"/><circle cx="246.3" cy="86.0" r="3" fill="#4aa3ff"/><circle cx="249.0" cy="86.0" r="3" fill="#4aa3ff"/><circle cx="251.8" cy="86.0" r="3" fill="#4aa3ff"/><circle cx="254.6" cy="86.0" r="3" fill="#4aa3ff"/><circle cx="257.3" cy="86.0" r="3" fill="#4aa3ff"/><circle cx="260.1" cy="87.0" r="3" fill="#4aa3ff"/><circle cx="262.9" cy="87.0" r="3" fill="#4aa3ff"/><circle cx="265.6" cy="87.0" r="3" fill="#4aa3ff"/><circle cx="268.4" cy="73.7" r="3" fill="#4aa3ff"/><circle cx="271.2" cy="73.7" r="3" fill="#4aa3ff"/><circle cx="273.9" cy="71.0" r="3" fill="#4aa3ff"/><circle cx="276.7" cy="71.0" r="3" fill="#4aa3ff"/><circle cx="279.5" cy="70.8" r="3" fill="#4aa3ff"/><circle cx="282.2" cy="70.6" r="3" fill="#4aa3ff"/><circle cx="285.0" cy="70.6" r="3" fill="#4aa3ff"/><circle cx="287.8" cy="70.4" r="3" fill="#4aa3ff"/><circle cx="290.5" cy="68.6" r="3" fill="#4aa3ff"/><circle cx="293.3" cy="60.5" r="3" fill="#4aa3ff"/><circle cx="296.1" cy="59.3" r="3" fill="#4aa3ff"/><circle cx="298.8" cy="52.0" r="3" fill="#4aa3ff"/><circle cx="301.6" cy="47.3" r="3" fill="#4aa3ff"/><circle cx="304.4" cy="40.1" r="3" fill="#4aa3ff"/><circle cx="307.1" cy="36.0" r="3" fill="#4aa3ff"/><circle cx="309.9" cy="36.0" r="3" fill="#4aa3ff"/><circle cx="312.7" cy="36.0" r="3" fill="#4aa3ff"/><circle cx="315.4" cy="36.0" r="3" fill="#4aa3ff"/><circle cx="318.2" cy="36.0" r="3" fill="#4aa3ff"/><circle cx="321.0" cy="36.0" r="3" fill="#4aa3ff"/><circle cx="323.7" cy="36.0" r="3" fill="#4aa3ff"/><circle cx="326.5" cy="36.0" r="3" fill="#4aa3ff"/><circle cx="329.3" cy="36.0" r="3" fill="#4aa3ff"/><circle cx="332.0" cy="36.0" r="3" fill="#4aa3ff"/><circle cx="334.8" cy="36.0" r="3" fill="#4aa3ff"/><circle cx="337.6" cy="36.0" r="3" fill="#4aa3ff"/><circle cx="340.3" cy="36.0" r="3" fill="#4aa3ff"/><circle cx="343.1" cy="36.0" r="3" fill="#4aa3ff"/><circle cx="345.9" cy="36.0" r="3" fill="#4aa3ff"/><circle cx="348.6" cy="36.0" r="3" fill="#4aa3ff"/><circle cx="351.4" cy="36.0" r="3" fill="#4aa3ff"/><circle cx="354.1" cy="36.0" r="3" fill="#4aa3ff"/><circle cx="356.9" cy="36.0" r="3" fill="#4aa3ff"/><circle cx="359.7" cy="36.0" r="3" fill="#4aa3ff"/><circle cx="362.4" cy="36.0" r="3" fill="#4aa3ff"/><circle cx="365.2" cy="36.0" r="3" fill="#4aa3ff"/><circle cx="368.0" cy="36.0" r="3" fill="#4aa3ff"/><circle cx="370.7" cy="36.0" r="3" fill="#4aa3ff"/><circle cx="373.5" cy="36.0" r="3" fill="#4aa3ff"/><circle cx="376.3" cy="36.0" r="3" fill="#4aa3ff"/><circle cx="379.0" cy="36.0" r="3" fill="#4aa3ff"/><circle cx="381.8" cy="36.0" r="3" fill="#4aa3ff"/><circle cx="384.6" cy="36.0" r="3" fill="#4aa3ff"/><circle cx="387.3" cy="36.0" r="3" fill="#4aa3ff"/><circle cx="390.1" cy="36.0" r="3" fill="#4aa3ff"/><circle cx="392.9" cy="36.0" r="3" fill="#4aa3ff"/><circle cx="395.6" cy="36.0" r="3" fill="#4aa3ff"/><circle cx="398.4" cy="36.0" r="3" fill="#4aa3ff"/><circle cx="401.2" cy="36.0" r="3" fill="#4aa3ff"/><circle cx="403.9" cy="36.0" r="3" fill="#4aa3ff"/><circle cx="406.7" cy="36.0" r="3" fill="#4aa3ff"/><circle cx="409.5" cy="36.0" r="3" fill="#4aa3ff"/><circle cx="412.2" cy="36.0" r="3" fill="#4aa3ff"/><circle cx="415.0" cy="36.0" r="3" fill="#4aa3ff"/><circle cx="417.8" cy="36.0" r="3" fill="#4aa3ff"/><circle cx="420.5" cy="36.0" r="3" fill="#4aa3ff"/><circle cx="423.3" cy="36.0" r="3" fill="#4aa3ff"/><circle cx="426.1" cy="36.0" r="3" fill="#4aa3ff"/><circle cx="428.8" cy="36.0" r="3" fill="#4aa3ff"/><circle cx="431.6" cy="36.0" r="3" fill="#4aa3ff"/><circle cx="434.4" cy="36.0" r="3" fill="#4aa3ff"/><circle cx="437.1" cy="36.0" r="3" fill="#4aa3ff"/><circle cx="439.9" cy="36.0" r="3" fill="#4aa3ff"/><circle cx="442.7" cy="36.0" r="3" fill="#4aa3ff"/><circle cx="445.4" cy="36.0" r="3" fill="#4aa3ff"/><circle cx="448.2" cy="36.0" r="3" fill="#4aa3ff"/><circle cx="451.0" cy="36.0" r="3" fill="#4aa3ff"/><circle cx="453.7" cy="36.0" r="3" fill="#4aa3ff"/><circle cx="456.5" cy="36.0" r="3" fill="#4aa3ff"/><circle cx="459.3" cy="36.0" r="3" fill="#4aa3ff"/><circle cx="462.0" cy="36.0" r="3" fill="#4aa3ff"/><circle cx="464.8" cy="36.0" r="3" fill="#4aa3ff"/><circle cx="467.6" cy="36.0" r="3" fill="#4aa3ff"/><circle cx="470.3" cy="36.0" r="3" fill="#4aa3ff"/><circle cx="473.1" cy="36.0" r="3" fill="#4aa3ff"/><circle cx="475.9" cy="36.0" r="3" fill="#4aa3ff"/><circle cx="478.6" cy="36.0" r="3" fill="#4aa3ff"/><circle cx="481.4" cy="36.0" r="3" fill="#4aa3ff"/><circle cx="484.2" cy="36.0" r="3" fill="#4aa3ff"/><circle cx="486.9" cy="36.0" r="3" fill="#4aa3ff"/><circle cx="489.7" cy="36.0" r="3" fill="#4aa3ff"/><circle cx="492.5" cy="36.0" r="3" fill="#4aa3ff"/><circle cx="495.2" cy="36.0" r="3" fill="#4aa3ff"/><circle cx="498.0" cy="36.0" r="3" fill="#4aa3ff"/><circle cx="500.8" cy="36.0" r="3" fill="#4aa3ff"/><circle cx="503.5" cy="36.0" r="3" fill="#4aa3ff"/><circle cx="506.3" cy="36.0" r="3" fill="#4aa3ff"/><circle cx="509.1" cy="36.0" r="3" fill="#4aa3ff"/><circle cx="511.8" cy="36.0" r="3" fill="#4aa3ff"/><circle cx="514.6" cy="36.0" r="3" fill="#4aa3ff"/><circle cx="517.4" cy="36.0" r="3" fill="#4aa3ff"/><circle cx="520.1" cy="36.0" r="3" fill="#4aa3ff"/><circle cx="522.9" cy="36.0" r="3" fill="#4aa3ff"/><circle cx="525.7" cy="36.0" r="3" fill="#4aa3ff"/><circle cx="528.4" cy="36.0" r="3" fill="#4aa3ff"/><circle cx="531.2" cy="36.0" r="3" fill="#4aa3ff"/><circle cx="534.0" cy="36.0" r="3" fill="#4aa3ff"/><circle cx="536.7" cy="36.0" r="3" fill="#4aa3ff"/><circle cx="539.5" cy="36.0" r="3" fill="#4aa3ff"/><circle cx="542.3" cy="36.0" r="3" fill="#4aa3ff"/><circle cx="545.0" cy="36.0" r="3" fill="#4aa3ff"/><circle cx="547.8" cy="36.0" r="3" fill="#4aa3ff"/><circle cx="550.6" cy="36.0" r="3" fill="#4aa3ff"/><circle cx="553.3" cy="36.0" r="3" fill="#4aa3ff"/><circle cx="556.1" cy="36.0" r="3" fill="#4aa3ff"/><circle cx="558.9" cy="36.0" r="3" fill="#4aa3ff"/><circle cx="561.6" cy="36.0" r="3" fill="#4aa3ff"/><circle cx="564.4" cy="36.0" r="3" fill="#4aa3ff"/><circle cx="567.2" cy="36.0" r="3" fill="#4aa3ff"/><circle cx="569.9" cy="36.0" r="3" fill="#4aa3ff"/><circle cx="572.7" cy="36.0" r="3" fill="#4aa3ff"/><circle cx="575.5" cy="36.0" r="3" fill="#4aa3ff"/><circle cx="578.2" cy="36.0" r="3" fill="#4aa3ff"/><circle cx="581.0" cy="36.0" r="3" fill="#4aa3ff"/><circle cx="583.8" cy="36.0" r="3" fill="#4aa3ff"/><circle cx="586.5" cy="36.0" r="3" fill="#4aa3ff"/><circle cx="589.3" cy="36.0" r="3" fill="#4aa3ff"/><circle cx="592.1" cy="36.0" r="3" fill="#4aa3ff"/><circle cx="594.8" cy="36.0" r="3" fill="#4aa3ff"/><circle cx="597.6" cy="36.0" r="3" fill="#4aa3ff"/><circle cx="600.4" cy="36.0" r="3" fill="#4aa3ff"/><circle cx="603.1" cy="36.0" r="3" fill="#4aa3ff"/><circle cx="605.9" cy="36.0" r="3" fill="#4aa3ff"/><circle cx="608.7" cy="36.0" r="3" fill="#4aa3ff"/><circle cx="611.4" cy="36.0" r="3" fill="#4aa3ff"/><circle cx="614.2" cy="36.0" r="3" fill="#4aa3ff"/><circle cx="617.0" cy="36.0" r="3" fill="#4aa3ff"/><circle cx="619.7" cy="36.0" r="3" fill="#4aa3ff"/><circle cx="622.5" cy="36.0" r="3" fill="#4aa3ff"/><circle cx="625.3" cy="36.0" r="3" fill="#4aa3ff"/><circle cx="628.0" cy="36.0" r="3" fill="#4aa3ff"/><circle cx="630.8" cy="36.0" r="3" fill="#4aa3ff"/><circle cx="633.6" cy="36.0" r="3" fill="#4aa3ff"/><circle cx="636.3" cy="36.0" r="3" fill="#4aa3ff"/><circle cx="639.1" cy="36.0" r="3" fill="#4aa3ff"/><circle cx="641.9" cy="36.0" r="3" fill="#4aa3ff"/><circle cx="644.6" cy="36.0" r="3" fill="#4aa3ff"/><circle cx="647.4" cy="36.0" r="3" fill="#4aa3ff"/><circle cx="650.2" cy="36.0" r="3" fill="#4aa3ff"/><circle cx="652.9" cy="36.0" r="3" fill="#4aa3ff"/><circle cx="655.7" cy="36.0" r="3" fill="#4aa3ff"/><circle cx="658.5" cy="36.0" r="3" fill="#4aa3ff"/><circle cx="661.2" cy="36.0" r="3" fill="#4aa3ff"/><circle cx="664.0" cy="36.0" r="3" fill="#4aa3ff"/>
<text x="36" y="225" fill="#6b7280" font-size="11">2026-06-26</text>
<text x="664" y="225" fill="#6b7280" font-size="11" text-anchor="end">2026-07-19</text>
<text x="36" y="212" font-family="system-ui,sans-serif" font-size="11">
<tspan fill="#4aa3ff">&#9679; open FPs</tspan>  <tspan fill="#3fb950">&#9679; closed (Anthropic acting)</tspan>  <tspan fill="#8a5a5a">&#9679; harness withdrawn</tspan></text>
<text x="664" y="22" text-anchor="end" font-family="system-ui,sans-serif" font-size="12">
<tspan fill="#4aa3ff">open 800</tspan>  <tspan fill="#3fb950">closed 0</tspan>  <tspan fill="#8a5a5a">harness 0</tspan></text>
</svg>