<svg xmlns="http://www.w3.org/2000/svg" width="700" height="234" viewBox="0 0 700 234" role="img">
<rect width="700" height="234" rx="12" fill="#16181d"/>
<text x="36" y="22" fill="#e8eaed" font-family="system-ui,sans-serif" font-size="14" font-weight="700">Is Anthropic acting? cyber/aup false positives over time</text>
<line x1="36" y1="198.0" x2="664" y2="198.0" stroke="#2a2e37" stroke-width="1"/><text x="30" y="202.0" fill="#6b7280" font-size="11" text-anchor="end">0</text><line x1="36" y1="117.0" x2="664" y2="117.0" stroke="#2a2e37" stroke-width="1"/><text x="30" y="121.0" fill="#6b7280" font-size="11" text-anchor="end">400</text><line x1="36" y1="36.0" x2="664" y2="36.0" stroke="#2a2e37" stroke-width="1"/><text x="30" y="40.0" fill="#6b7280" font-size="11" text-anchor="end">800</text>

<polyline fill="none" stroke="#8a5a5a" stroke-width="2.5" stroke-linejoin="round" points="36.0,145.1 38.7,145.1 41.4,145.1 44.1,145.1 46.7,145.1 49.4,145.1 52.1,145.1 54.8,145.1 57.5,145.1 60.2,145.1 62.8,145.1 65.5,145.1 68.2,145.1 70.9,145.1 73.6,145.1 76.3,145.1 78.9,145.1 81.6,145.1 84.3,145.1 87.0,145.1 89.7,145.1 92.4,145.1 95.0,145.1 97.7,145.1 100.4,145.1 103.1,145.1 105.8,145.1 108.5,145.1 111.1,145.1 113.8,145.1 116.5,145.1 119.2,145.1 121.9,145.1 124.6,145.1 127.2,145.1 129.9,145.1 132.6,145.1 135.3,145.1 138.0,145.1 140.7,145.1 143.4,145.1 146.0,145.1 148.7,145.1 151.4,145.1 154.1,145.1 156.8,145.1 159.5,145.1 162.1,145.1 164.8,145.1 167.5,145.1 170.2,155.7 172.9,155.7 175.6,155.7 178.2,155.7 180.9,155.7 183.6,155.7 186.3,155.7 189.0,155.7 191.7,155.7 194.3,155.7 197.0,155.7 199.7,155.7 202.4,155.7 205.1,155.7 207.8,155.7 210.4,155.7 213.1,155.7 215.8,155.7 218.5,155.7 221.2,155.7 223.9,155.7 226.5,155.7 229.2,155.7 231.9,155.7 234.6,155.7 237.3,155.7 240.0,155.7 242.6,155.7 245.3,155.7 248.0,155.7 250.7,155.7 253.4,155.7 256.1,155.7 258.8,155.7 261.4,167.6 264.1,167.6 266.8,170.3 269.5,170.3 272.2,170.5 274.9,170.7 277.5,170.7 280.2,170.9 282.9,172.7 285.6,180.6 288.3,181.8 291.0,189.1 293.6,190.5 296.3,195.2 299.0,198.0 301.7,198.0 304.4,198.0 307.1,198.0 309.7,198.0 312.4,198.0 315.1,198.0 317.8,198.0 320.5,198.0 323.2,198.0 325.8,198.0 328.5,198.0 331.2,198.0 333.9,198.0 336.6,198.0 339.3,198.0 341.9,198.0 344.6,198.0 347.3,198.0 350.0,198.0 352.7,198.0 355.4,198.0 358.1,198.0 360.7,198.0 363.4,198.0 366.1,198.0 368.8,198.0 371.5,198.0 374.2,198.0 376.8,198.0 379.5,198.0 382.2,198.0 384.9,198.0 387.6,198.0 390.3,198.0 392.9,198.0 395.6,198.0 398.3,198.0 401.0,198.0 403.7,198.0 406.4,198.0 409.0,198.0 411.7,198.0 414.4,198.0 417.1,198.0 419.8,198.0 422.5,198.0 425.1,198.0 427.8,198.0 430.5,198.0 433.2,198.0 435.9,198.0 438.6,198.0 441.2,198.0 443.9,198.0 446.6,198.0 449.3,198.0 452.0,198.0 454.7,198.0 457.4,198.0 460.0,198.0 462.7,198.0 465.4,198.0 468.1,198.0 470.8,198.0 473.5,198.0 476.1,198.0 478.8,198.0 481.5,198.0 484.2,198.0 486.9,198.0 489.6,198.0 492.2,198.0 494.9,198.0 497.6,198.0 500.3,198.0 503.0,198.0 505.7,198.0 508.3,198.0 511.0,198.0 513.7,198.0 516.4,198.0 519.1,198.0 521.8,198.0 524.4,198.0 527.1,198.0 529.8,198.0 532.5,198.0 535.2,198.0 537.9,198.0 540.5,198.0 543.2,198.0 545.9,198.0 548.6,198.0 551.3,198.0 554.0,198.0 556.6,198.0 559.3,198.0 562.0,198.0 564.7,198.0 567.4,198.0 570.1,198.0 572.8,198.0 575.4,198.0 578.1,198.0 580.8,198.0 583.5,198.0 586.2,198.0 588.9,198.0 591.5,198.0 594.2,198.0 596.9,198.0 599.6,198.0 602.3,198.0 605.0,198.0 607.6,198.0 610.3,198.0 613.0,198.0 615.7,198.0 618.4,198.0 621.1,198.0 623.7,198.0 626.4,198.0 629.1,198.0 631.8,198.0 634.5,198.0 637.2,198.0 639.8,198.0 642.5,198.0 645.2,198.0 647.9,198.0 650.6,198.0 653.3,198.0 655.9,198.0 658.6,198.0 661.3,198.0 664.0,198.0"/><circle cx="36.0" cy="145.1" r="3" fill="#8a5a5a"/><circle cx="38.7" cy="145.1" r="3" fill="#8a5a5a"/><circle cx="41.4" cy="145.1" r="3" fill="#8a5a5a"/><circle cx="44.1" cy="145.1" r="3" fill="#8a5a5a"/><circle cx="46.7" cy="145.1" r="3" fill="#8a5a5a"/><circle cx="49.4" cy="145.1" r="3" fill="#8a5a5a"/><circle cx="52.1" cy="145.1" r="3" fill="#8a5a5a"/><circle cx="54.8" cy="145.1" r="3" fill="#8a5a5a"/><circle cx="57.5" cy="145.1" r="3" fill="#8a5a5a"/><circle cx="60.2" cy="145.1" r="3" fill="#8a5a5a"/><circle cx="62.8" cy="145.1" r="3" fill="#8a5a5a"/><circle cx="65.5" cy="145.1" r="3" fill="#8a5a5a"/><circle cx="68.2" cy="145.1" r="3" fill="#8a5a5a"/><circle cx="70.9" cy="145.1" r="3" fill="#8a5a5a"/><circle cx="73.6" cy="145.1" r="3" fill="#8a5a5a"/><circle cx="76.3" cy="145.1" r="3" fill="#8a5a5a"/><circle cx="78.9" cy="145.1" r="3" fill="#8a5a5a"/><circle cx="81.6" cy="145.1" r="3" fill="#8a5a5a"/><circle cx="84.3" cy="145.1" r="3" fill="#8a5a5a"/><circle cx="87.0" cy="145.1" r="3" fill="#8a5a5a"/><circle cx="89.7" cy="145.1" r="3" fill="#8a5a5a"/><circle cx="92.4" cy="145.1" r="3" fill="#8a5a5a"/><circle cx="95.0" cy="145.1" r="3" fill="#8a5a5a"/><circle cx="97.7" cy="145.1" r="3" fill="#8a5a5a"/><circle cx="100.4" cy="145.1" r="3" fill="#8a5a5a"/><circle cx="103.1" cy="145.1" r="3" fill="#8a5a5a"/><circle cx="105.8" cy="145.1" r="3" fill="#8a5a5a"/><circle cx="108.5" cy="145.1" r="3" fill="#8a5a5a"/><circle cx="111.1" cy="145.1" r="3" fill="#8a5a5a"/><circle cx="113.8" cy="145.1" r="3" fill="#8a5a5a"/><circle cx="116.5" cy="145.1" r="3" fill="#8a5a5a"/><circle cx="119.2" cy="145.1" r="3" fill="#8a5a5a"/><circle cx="121.9" cy="145.1" r="3" fill="#8a5a5a"/><circle cx="124.6" cy="145.1" r="3" fill="#8a5a5a"/><circle cx="127.2" cy="145.1" r="3" fill="#8a5a5a"/><circle cx="129.9" cy="145.1" r="3" fill="#8a5a5a"/><circle cx="132.6" cy="145.1" r="3" fill="#8a5a5a"/><circle cx="135.3" cy="145.1" r="3" fill="#8a5a5a"/><circle cx="138.0" cy="145.1" r="3" fill="#8a5a5a"/><circle cx="140.7" cy="145.1" r="3" fill="#8a5a5a"/><circle cx="143.4" cy="145.1" r="3" fill="#8a5a5a"/><circle cx="146.0" cy="145.1" r="3" fill="#8a5a5a"/><circle cx="148.7" cy="145.1" r="3" fill="#8a5a5a"/><circle cx="151.4" cy="145.1" r="3" fill="#8a5a5a"/><circle cx="154.1" cy="145.1" r="3" fill="#8a5a5a"/><circle cx="156.8" cy="145.1" r="3" fill="#8a5a5a"/><circle cx="159.5" cy="145.1" r="3" fill="#8a5a5a"/><circle cx="162.1" cy="145.1" r="3" fill="#8a5a5a"/><circle cx="164.8" cy="145.1" r="3" fill="#8a5a5a"/><circle cx="167.5" cy="145.1" r="3" fill="#8a5a5a"/><circle cx="170.2" cy="155.7" r="3" fill="#8a5a5a"/><circle cx="172.9" cy="155.7" r="3" fill="#8a5a5a"/><circle cx="175.6" cy="155.7" r="3" fill="#8a5a5a"/><circle cx="178.2" cy="155.7" r="3" fill="#8a5a5a"/><circle cx="180.9" cy="155.7" r="3" fill="#8a5a5a"/><circle cx="183.6" cy="155.7" r="3" fill="#8a5a5a"/><circle cx="186.3" cy="155.7" r="3" fill="#8a5a5a"/><circle cx="189.0" cy="155.7" r="3" fill="#8a5a5a"/><circle cx="191.7" cy="155.7" r="3" fill="#8a5a5a"/><circle cx="194.3" cy="155.7" r="3" fill="#8a5a5a"/><circle cx="197.0" cy="155.7" r="3" fill="#8a5a5a"/><circle cx="199.7" cy="155.7" r="3" fill="#8a5a5a"/><circle cx="202.4" cy="155.7" r="3" fill="#8a5a5a"/><circle cx="205.1" cy="155.7" r="3" fill="#8a5a5a"/><circle cx="207.8" cy="155.7" r="3" fill="#8a5a5a"/><circle cx="210.4" cy="155.7" r="3" fill="#8a5a5a"/><circle cx="213.1" cy="155.7" r="3" fill="#8a5a5a"/><circle cx="215.8" cy="155.7" r="3" fill="#8a5a5a"/><circle cx="218.5" cy="155.7" r="3" fill="#8a5a5a"/><circle cx="221.2" cy="155.7" r="3" fill="#8a5a5a"/><circle cx="223.9" cy="155.7" r="3" fill="#8a5a5a"/><circle cx="226.5" cy="155.7" r="3" fill="#8a5a5a"/><circle cx="229.2" cy="155.7" r="3" fill="#8a5a5a"/><circle cx="231.9" cy="155.7" r="3" fill="#8a5a5a"/><circle cx="234.6" cy="155.7" r="3" fill="#8a5a5a"/><circle cx="237.3" cy="155.7" r="3" fill="#8a5a5a"/><circle cx="240.0" cy="155.7" r="3" fill="#8a5a5a"/><circle cx="242.6" cy="155.7" r="3" fill="#8a5a5a"/><circle cx="245.3" cy="155.7" r="3" fill="#8a5a5a"/><circle cx="248.0" cy="155.7" r="3" fill="#8a5a5a"/><circle cx="250.7" cy="155.7" r="3" fill="#8a5a5a"/><circle cx="253.4" cy="155.7" r="3" fill="#8a5a5a"/><circle cx="256.1" cy="155.7" r="3" fill="#8a5a5a"/><circle cx="258.8" cy="155.7" r="3" fill="#8a5a5a"/><circle cx="261.4" cy="167.6" r="3" fill="#8a5a5a"/><circle cx="264.1" cy="167.6" r="3" fill="#8a5a5a"/><circle cx="266.8" cy="170.3" r="3" fill="#8a5a5a"/><circle cx="269.5" cy="170.3" r="3" fill="#8a5a5a"/><circle cx="272.2" cy="170.5" r="3" fill="#8a5a5a"/><circle cx="274.9" cy="170.7" r="3" fill="#8a5a5a"/><circle cx="277.5" cy="170.7" r="3" fill="#8a5a5a"/><circle cx="280.2" cy="170.9" r="3" fill="#8a5a5a"/><circle cx="282.9" cy="172.7" r="3" fill="#8a5a5a"/><circle cx="285.6" cy="180.6" r="3" fill="#8a5a5a"/><circle cx="288.3" cy="181.8" r="3" fill="#8a5a5a"/><circle cx="291.0" cy="189.1" r="3" fill="#8a5a5a"/><circle cx="293.6" cy="190.5" r="3" fill="#8a5a5a"/><circle cx="296.3" cy="195.2" r="3" fill="#8a5a5a"/><circle cx="299.0" cy="198.0" r="3" fill="#8a5a5a"/><circle cx="301.7" cy="198.0" r="3" fill="#8a5a5a"/><circle cx="304.4" cy="198.0" r="3" fill="#8a5a5a"/><circle cx="307.1" cy="198.0" r="3" fill="#8a5a5a"/><circle cx="309.7" cy="198.0" r="3" fill="#8a5a5a"/><circle cx="312.4" cy="198.0" r="3" fill="#8a5a5a"/><circle cx="315.1" cy="198.0" r="3" fill="#8a5a5a"/><circle cx="317.8" cy="198.0" r="3" fill="#8a5a5a"/><circle cx="320.5" cy="198.0" r="3" fill="#8a5a5a"/><circle cx="323.2" cy="198.0" r="3" fill="#8a5a5a"/><circle cx="325.8" cy="198.0" r="3" fill="#8a5a5a"/><circle cx="328.5" cy="198.0" r="3" fill="#8a5a5a"/><circle cx="331.2" cy="198.0" r="3" fill="#8a5a5a"/><circle cx="333.9" cy="198.0" r="3" fill="#8a5a5a"/><circle cx="336.6" cy="198.0" r="3" fill="#8a5a5a"/><circle cx="339.3" cy="198.0" r="3" fill="#8a5a5a"/><circle cx="341.9" cy="198.0" r="3" fill="#8a5a5a"/><circle cx="344.6" cy="198.0" r="3" fill="#8a5a5a"/><circle cx="347.3" cy="198.0" r="3" fill="#8a5a5a"/><circle cx="350.0" cy="198.0" r="3" fill="#8a5a5a"/><circle cx="352.7" cy="198.0" r="3" fill="#8a5a5a"/><circle cx="355.4" cy="198.0" r="3" fill="#8a5a5a"/><circle cx="358.1" cy="198.0" r="3" fill="#8a5a5a"/><circle cx="360.7" cy="198.0" r="3" fill="#8a5a5a"/><circle cx="363.4" cy="198.0" r="3" fill="#8a5a5a"/><circle cx="366.1" cy="198.0" r="3" fill="#8a5a5a"/><circle cx="368.8" cy="198.0" r="3" fill="#8a5a5a"/><circle cx="371.5" cy="198.0" r="3" fill="#8a5a5a"/><circle cx="374.2" cy="198.0" r="3" fill="#8a5a5a"/><circle cx="376.8" cy="198.0" r="3" fill="#8a5a5a"/><circle cx="379.5" cy="198.0" r="3" fill="#8a5a5a"/><circle cx="382.2" cy="198.0" r="3" fill="#8a5a5a"/><circle cx="384.9" cy="198.0" r="3" fill="#8a5a5a"/><circle cx="387.6" cy="198.0" r="3" fill="#8a5a5a"/><circle cx="390.3" cy="198.0" r="3" fill="#8a5a5a"/><circle cx="392.9" cy="198.0" r="3" fill="#8a5a5a"/><circle cx="395.6" cy="198.0" r="3" fill="#8a5a5a"/><circle cx="398.3" cy="198.0" r="3" fill="#8a5a5a"/><circle cx="401.0" cy="198.0" r="3" fill="#8a5a5a"/><circle cx="403.7" cy="198.0" r="3" fill="#8a5a5a"/><circle cx="406.4" cy="198.0" r="3" fill="#8a5a5a"/><circle cx="409.0" cy="198.0" r="3" fill="#8a5a5a"/><circle cx="411.7" cy="198.0" r="3" fill="#8a5a5a"/><circle cx="414.4" cy="198.0" r="3" fill="#8a5a5a"/><circle cx="417.1" cy="198.0" r="3" fill="#8a5a5a"/><circle cx="419.8" cy="198.0" r="3" fill="#8a5a5a"/><circle cx="422.5" cy="198.0" r="3" fill="#8a5a5a"/><circle cx="425.1" cy="198.0" r="3" fill="#8a5a5a"/><circle cx="427.8" cy="198.0" r="3" fill="#8a5a5a"/><circle cx="430.5" cy="198.0" r="3" fill="#8a5a5a"/><circle cx="433.2" cy="198.0" r="3" fill="#8a5a5a"/><circle cx="435.9" cy="198.0" r="3" fill="#8a5a5a"/><circle cx="438.6" cy="198.0" r="3" fill="#8a5a5a"/><circle cx="441.2" cy="198.0" r="3" fill="#8a5a5a"/><circle cx="443.9" cy="198.0" r="3" fill="#8a5a5a"/><circle cx="446.6" cy="198.0" r="3" fill="#8a5a5a"/><circle cx="449.3" cy="198.0" r="3" fill="#8a5a5a"/><circle cx="452.0" cy="198.0" r="3" fill="#8a5a5a"/><circle cx="454.7" cy="198.0" r="3" fill="#8a5a5a"/><circle cx="457.4" cy="198.0" r="3" fill="#8a5a5a"/><circle cx="460.0" cy="198.0" r="3" fill="#8a5a5a"/><circle cx="462.7" cy="198.0" r="3" fill="#8a5a5a"/><circle cx="465.4" cy="198.0" r="3" fill="#8a5a5a"/><circle cx="468.1" cy="198.0" r="3" fill="#8a5a5a"/><circle cx="470.8" cy="198.0" r="3" fill="#8a5a5a"/><circle cx="473.5" cy="198.0" r="3" fill="#8a5a5a"/><circle cx="476.1" cy="198.0" r="3" fill="#8a5a5a"/><circle cx="478.8" cy="198.0" r="3" fill="#8a5a5a"/><circle cx="481.5" cy="198.0" r="3" fill="#8a5a5a"/><circle cx="484.2" cy="198.0" r="3" fill="#8a5a5a"/><circle cx="486.9" cy="198.0" r="3" fill="#8a5a5a"/><circle cx="489.6" cy="198.0" r="3" fill="#8a5a5a"/><circle cx="492.2" cy="198.0" r="3" fill="#8a5a5a"/><circle cx="494.9" cy="198.0" r="3" fill="#8a5a5a"/><circle cx="497.6" cy="198.0" r="3" fill="#8a5a5a"/><circle cx="500.3" cy="198.0" r="3" fill="#8a5a5a"/><circle cx="503.0" cy="198.0" r="3" fill="#8a5a5a"/><circle cx="505.7" cy="198.0" r="3" fill="#8a5a5a"/><circle cx="508.3" cy="198.0" r="3" fill="#8a5a5a"/><circle cx="511.0" cy="198.0" r="3" fill="#8a5a5a"/><circle cx="513.7" cy="198.0" r="3" fill="#8a5a5a"/><circle cx="516.4" cy="198.0" r="3" fill="#8a5a5a"/><circle cx="519.1" cy="198.0" r="3" fill="#8a5a5a"/><circle cx="521.8" cy="198.0" r="3" fill="#8a5a5a"/><circle cx="524.4" cy="198.0" r="3" fill="#8a5a5a"/><circle cx="527.1" cy="198.0" r="3" fill="#8a5a5a"/><circle cx="529.8" cy="198.0" r="3" fill="#8a5a5a"/><circle cx="532.5" cy="198.0" r="3" fill="#8a5a5a"/><circle cx="535.2" cy="198.0" r="3" fill="#8a5a5a"/><circle cx="537.9" cy="198.0" r="3" fill="#8a5a5a"/><circle cx="540.5" cy="198.0" r="3" fill="#8a5a5a"/><circle cx="543.2" cy="198.0" r="3" fill="#8a5a5a"/><circle cx="545.9" cy="198.0" r="3" fill="#8a5a5a"/><circle cx="548.6" cy="198.0" r="3" fill="#8a5a5a"/><circle cx="551.3" cy="198.0" r="3" fill="#8a5a5a"/><circle cx="554.0" cy="198.0" r="3" fill="#8a5a5a"/><circle cx="556.6" cy="198.0" r="3" fill="#8a5a5a"/><circle cx="559.3" cy="198.0" r="3" fill="#8a5a5a"/><circle cx="562.0" cy="198.0" r="3" fill="#8a5a5a"/><circle cx="564.7" cy="198.0" r="3" fill="#8a5a5a"/><circle cx="567.4" cy="198.0" r="3" fill="#8a5a5a"/><circle cx="570.1" cy="198.0" r="3" fill="#8a5a5a"/><circle cx="572.8" cy="198.0" r="3" fill="#8a5a5a"/><circle cx="575.4" cy="198.0" r="3" fill="#8a5a5a"/><circle cx="578.1" cy="198.0" r="3" fill="#8a5a5a"/><circle cx="580.8" cy="198.0" r="3" fill="#8a5a5a"/><circle cx="583.5" cy="198.0" r="3" fill="#8a5a5a"/><circle cx="586.2" cy="198.0" r="3" fill="#8a5a5a"/><circle cx="588.9" cy="198.0" r="3" fill="#8a5a5a"/><circle cx="591.5" cy="198.0" r="3" fill="#8a5a5a"/><circle cx="594.2" cy="198.0" r="3" fill="#8a5a5a"/><circle cx="596.9" cy="198.0" r="3" fill="#8a5a5a"/><circle cx="599.6" cy="198.0" r="3" fill="#8a5a5a"/><circle cx="602.3" cy="198.0" r="3" fill="#8a5a5a"/><circle cx="605.0" cy="198.0" r="3" fill="#8a5a5a"/><circle cx="607.6" cy="198.0" r="3" fill="#8a5a5a"/><circle cx="610.3" cy="198.0" r="3" fill="#8a5a5a"/><circle cx="613.0" cy="198.0" r="3" fill="#8a5a5a"/><circle cx="615.7" cy="198.0" r="3" fill="#8a5a5a"/><circle cx="618.4" cy="198.0" r="3" fill="#8a5a5a"/><circle cx="621.1" cy="198.0" r="3" fill="#8a5a5a"/><circle cx="623.7" cy="198.0" r="3" fill="#8a5a5a"/><circle cx="626.4" cy="198.0" r="3" fill="#8a5a5a"/><circle cx="629.1" cy="198.0" r="3" fill="#8a5a5a"/><circle cx="631.8" cy="198.0" r="3" fill="#8a5a5a"/><circle cx="634.5" cy="198.0" r="3" fill="#8a5a5a"/><circle cx="637.2" cy="198.0" r="3" fill="#8a5a5a"/><circle cx="639.8" cy="198.0" r="3" fill="#8a5a5a"/><circle cx="642.5" cy="198.0" r="3" fill="#8a5a5a"/><circle cx="645.2" cy="198.0" r="3" fill="#8a5a5a"/><circle cx="647.9" cy="198.0" r="3" fill="#8a5a5a"/><circle cx="650.6" cy="198.0" r="3" fill="#8a5a5a"/><circle cx="653.3" cy="198.0" r="3" fill="#8a5a5a"/><circle cx="655.9" cy="198.0" r="3" fill="#8a5a5a"/><circle cx="658.6" cy="198.0" r="3" fill="#8a5a5a"/><circle cx="661.3" cy="198.0" r="3" fill="#8a5a5a"/><circle cx="664.0" cy="198.0" r="3" fill="#8a5a5a"/>
<polyline fill="none" stroke="#3fb950" stroke-width="2.5" stroke-linejoin="round" points="36.0,198.0 38.7,198.0 41.4,198.0 44.1,198.0 46.7,198.0 49.4,198.0 52.1,198.0 54.8,198.0 57.5,198.0 60.2,198.0 62.8,198.0 65.5,198.0 68.2,198.0 70.9,198.0 73.6,198.0 76.3,198.0 78.9,198.0 81.6,198.0 84.3,198.0 87.0,198.0 89.7,198.0 92.4,198.0 95.0,198.0 97.7,198.0 100.4,198.0 103.1,198.0 105.8,198.0 108.5,198.0 111.1,198.0 113.8,198.0 116.5,198.0 119.2,198.0 121.9,198.0 124.6,198.0 127.2,198.0 129.9,198.0 132.6,198.0 135.3,198.0 138.0,198.0 140.7,198.0 143.4,198.0 146.0,198.0 148.7,198.0 151.4,191.7 154.1,191.7 156.8,191.7 159.5,191.7 162.1,191.7 164.8,191.7 167.5,191.7 170.2,192.9 172.9,192.9 175.6,190.7 178.2,190.7 180.9,190.7 183.6,190.7 186.3,190.7 189.0,190.5 191.7,190.5 194.3,190.5 197.0,190.3 199.7,190.3 202.4,190.3 205.1,190.3 207.8,190.3 210.4,190.3 213.1,190.3 215.8,190.3 218.5,190.3 221.2,190.3 223.9,190.3 226.5,190.3 229.2,190.3 231.9,190.3 234.6,190.3 237.3,190.3 240.0,190.3 242.6,190.3 245.3,190.3 248.0,190.3 250.7,190.3 253.4,189.3 256.1,189.3 258.8,189.3 261.4,190.7 264.1,190.7 266.8,190.7 269.5,190.7 272.2,190.7 274.9,190.7 277.5,190.7 280.2,190.7 282.9,190.7 285.6,190.9 288.3,190.9 291.0,190.9 293.6,194.2 296.3,196.8 299.0,198.0 301.7,198.0 304.4,198.0 307.1,198.0 309.7,198.0 312.4,198.0 315.1,198.0 317.8,198.0 320.5,198.0 323.2,198.0 325.8,198.0 328.5,198.0 331.2,198.0 333.9,198.0 336.6,198.0 339.3,198.0 341.9,198.0 344.6,198.0 347.3,198.0 350.0,198.0 352.7,198.0 355.4,198.0 358.1,198.0 360.7,198.0 363.4,198.0 366.1,198.0 368.8,198.0 371.5,198.0 374.2,198.0 376.8,198.0 379.5,198.0 382.2,198.0 384.9,198.0 387.6,198.0 390.3,198.0 392.9,198.0 395.6,198.0 398.3,198.0 401.0,198.0 403.7,198.0 406.4,198.0 409.0,198.0 411.7,198.0 414.4,198.0 417.1,198.0 419.8,198.0 422.5,198.0 425.1,198.0 427.8,198.0 430.5,198.0 433.2,198.0 435.9,198.0 438.6,198.0 441.2,198.0 443.9,198.0 446.6,198.0 449.3,198.0 452.0,198.0 454.7,198.0 457.4,198.0 460.0,198.0 462.7,198.0 465.4,198.0 468.1,198.0 470.8,198.0 473.5,198.0 476.1,198.0 478.8,198.0 481.5,198.0 484.2,198.0 486.9,198.0 489.6,198.0 492.2,198.0 494.9,198.0 497.6,198.0 500.3,198.0 503.0,198.0 505.7,198.0 508.3,198.0 511.0,198.0 513.7,198.0 516.4,198.0 519.1,198.0 521.8,198.0 524.4,198.0 527.1,198.0 529.8,198.0 532.5,198.0 535.2,198.0 537.9,198.0 540.5,198.0 543.2,198.0 545.9,198.0 548.6,198.0 551.3,198.0 554.0,198.0 556.6,198.0 559.3,198.0 562.0,198.0 564.7,198.0 567.4,198.0 570.1,198.0 572.8,198.0 575.4,198.0 578.1,198.0 580.8,198.0 583.5,198.0 586.2,198.0 588.9,198.0 591.5,198.0 594.2,198.0 596.9,198.0 599.6,198.0 602.3,198.0 605.0,198.0 607.6,198.0 610.3,198.0 613.0,198.0 615.7,198.0 618.4,198.0 621.1,198.0 623.7,198.0 626.4,198.0 629.1,198.0 631.8,198.0 634.5,198.0 637.2,198.0 639.8,198.0 642.5,198.0 645.2,198.0 647.9,198.0 650.6,198.0 653.3,198.0 655.9,198.0 658.6,198.0 661.3,198.0 664.0,198.0"/><circle cx="36.0" cy="198.0" r="3" fill="#3fb950"/><circle cx="38.7" cy="198.0" r="3" fill="#3fb950"/><circle cx="41.4" cy="198.0" r="3" fill="#3fb950"/><circle cx="44.1" cy="198.0" r="3" fill="#3fb950"/><circle cx="46.7" cy="198.0" r="3" fill="#3fb950"/><circle cx="49.4" cy="198.0" r="3" fill="#3fb950"/><circle cx="52.1" cy="198.0" r="3" fill="#3fb950"/><circle cx="54.8" cy="198.0" r="3" fill="#3fb950"/><circle cx="57.5" cy="198.0" r="3" fill="#3fb950"/><circle cx="60.2" cy="198.0" r="3" fill="#3fb950"/><circle cx="62.8" cy="198.0" r="3" fill="#3fb950"/><circle cx="65.5" cy="198.0" r="3" fill="#3fb950"/><circle cx="68.2" cy="198.0" r="3" fill="#3fb950"/><circle cx="70.9" cy="198.0" r="3" fill="#3fb950"/><circle cx="73.6" cy="198.0" r="3" fill="#3fb950"/><circle cx="76.3" cy="198.0" r="3" fill="#3fb950"/><circle cx="78.9" cy="198.0" r="3" fill="#3fb950"/><circle cx="81.6" cy="198.0" r="3" fill="#3fb950"/><circle cx="84.3" cy="198.0" r="3" fill="#3fb950"/><circle cx="87.0" cy="198.0" r="3" fill="#3fb950"/><circle cx="89.7" cy="198.0" r="3" fill="#3fb950"/><circle cx="92.4" cy="198.0" r="3" fill="#3fb950"/><circle cx="95.0" cy="198.0" r="3" fill="#3fb950"/><circle cx="97.7" cy="198.0" r="3" fill="#3fb950"/><circle cx="100.4" cy="198.0" r="3" fill="#3fb950"/><circle cx="103.1" cy="198.0" r="3" fill="#3fb950"/><circle cx="105.8" cy="198.0" r="3" fill="#3fb950"/><circle cx="108.5" cy="198.0" r="3" fill="#3fb950"/><circle cx="111.1" cy="198.0" r="3" fill="#3fb950"/><circle cx="113.8" cy="198.0" r="3" fill="#3fb950"/><circle cx="116.5" cy="198.0" r="3" fill="#3fb950"/><circle cx="119.2" cy="198.0" r="3" fill="#3fb950"/><circle cx="121.9" cy="198.0" r="3" fill="#3fb950"/><circle cx="124.6" cy="198.0" r="3" fill="#3fb950"/><circle cx="127.2" cy="198.0" r="3" fill="#3fb950"/><circle cx="129.9" cy="198.0" r="3" fill="#3fb950"/><circle cx="132.6" cy="198.0" r="3" fill="#3fb950"/><circle cx="135.3" cy="198.0" r="3" fill="#3fb950"/><circle cx="138.0" cy="198.0" r="3" fill="#3fb950"/><circle cx="140.7" cy="198.0" r="3" fill="#3fb950"/><circle cx="143.4" cy="198.0" r="3" fill="#3fb950"/><circle cx="146.0" cy="198.0" r="3" fill="#3fb950"/><circle cx="148.7" cy="198.0" r="3" fill="#3fb950"/><circle cx="151.4" cy="191.7" r="3" fill="#3fb950"/><circle cx="154.1" cy="191.7" r="3" fill="#3fb950"/><circle cx="156.8" cy="191.7" r="3" fill="#3fb950"/><circle cx="159.5" cy="191.7" r="3" fill="#3fb950"/><circle cx="162.1" cy="191.7" r="3" fill="#3fb950"/><circle cx="164.8" cy="191.7" r="3" fill="#3fb950"/><circle cx="167.5" cy="191.7" r="3" fill="#3fb950"/><circle cx="170.2" cy="192.9" r="3" fill="#3fb950"/><circle cx="172.9" cy="192.9" r="3" fill="#3fb950"/><circle cx="175.6" cy="190.7" r="3" fill="#3fb950"/><circle cx="178.2" cy="190.7" r="3" fill="#3fb950"/><circle cx="180.9" cy="190.7" r="3" fill="#3fb950"/><circle cx="183.6" cy="190.7" r="3" fill="#3fb950"/><circle cx="186.3" cy="190.7" r="3" fill="#3fb950"/><circle cx="189.0" cy="190.5" r="3" fill="#3fb950"/><circle cx="191.7" cy="190.5" r="3" fill="#3fb950"/><circle cx="194.3" cy="190.5" r="3" fill="#3fb950"/><circle cx="197.0" cy="190.3" r="3" fill="#3fb950"/><circle cx="199.7" cy="190.3" r="3" fill="#3fb950"/><circle cx="202.4" cy="190.3" r="3" fill="#3fb950"/><circle cx="205.1" cy="190.3" r="3" fill="#3fb950"/><circle cx="207.8" cy="190.3" r="3" fill="#3fb950"/><circle cx="210.4" cy="190.3" r="3" fill="#3fb950"/><circle cx="213.1" cy="190.3" r="3" fill="#3fb950"/><circle cx="215.8" cy="190.3" r="3" fill="#3fb950"/><circle cx="218.5" cy="190.3" r="3" fill="#3fb950"/><circle cx="221.2" cy="190.3" r="3" fill="#3fb950"/><circle cx="223.9" cy="190.3" r="3" fill="#3fb950"/><circle cx="226.5" cy="190.3" r="3" fill="#3fb950"/><circle cx="229.2" cy="190.3" r="3" fill="#3fb950"/><circle cx="231.9" cy="190.3" r="3" fill="#3fb950"/><circle cx="234.6" cy="190.3" r="3" fill="#3fb950"/><circle cx="237.3" cy="190.3" r="3" fill="#3fb950"/><circle cx="240.0" cy="190.3" r="3" fill="#3fb950"/><circle cx="242.6" cy="190.3" r="3" fill="#3fb950"/><circle cx="245.3" cy="190.3" r="3" fill="#3fb950"/><circle cx="248.0" cy="190.3" r="3" fill="#3fb950"/><circle cx="250.7" cy="190.3" r="3" fill="#3fb950"/><circle cx="253.4" cy="189.3" r="3" fill="#3fb950"/><circle cx="256.1" cy="189.3" r="3" fill="#3fb950"/><circle cx="258.8" cy="189.3" r="3" fill="#3fb950"/><circle cx="261.4" cy="190.7" r="3" fill="#3fb950"/><circle cx="264.1" cy="190.7" r="3" fill="#3fb950"/><circle cx="266.8" cy="190.7" r="3" fill="#3fb950"/><circle cx="269.5" cy="190.7" r="3" fill="#3fb950"/><circle cx="272.2" cy="190.7" r="3" fill="#3fb950"/><circle cx="274.9" cy="190.7" r="3" fill="#3fb950"/><circle cx="277.5" cy="190.7" r="3" fill="#3fb950"/><circle cx="280.2" cy="190.7" r="3" fill="#3fb950"/><circle cx="282.9" cy="190.7" r="3" fill="#3fb950"/><circle cx="285.6" cy="190.9" r="3" fill="#3fb950"/><circle cx="288.3" cy="190.9" r="3" fill="#3fb950"/><circle cx="291.0" cy="190.9" r="3" fill="#3fb950"/><circle cx="293.6" cy="194.2" r="3" fill="#3fb950"/><circle cx="296.3" cy="196.8" r="3" fill="#3fb950"/><circle cx="299.0" cy="198.0" r="3" fill="#3fb950"/><circle cx="301.7" cy="198.0" r="3" fill="#3fb950"/><circle cx="304.4" cy="198.0" r="3" fill="#3fb950"/><circle cx="307.1" cy="198.0" r="3" fill="#3fb950"/><circle cx="309.7" cy="198.0" r="3" fill="#3fb950"/><circle cx="312.4" cy="198.0" r="3" fill="#3fb950"/><circle cx="315.1" cy="198.0" r="3" fill="#3fb950"/><circle cx="317.8" cy="198.0" r="3" fill="#3fb950"/><circle cx="320.5" cy="198.0" r="3" fill="#3fb950"/><circle cx="323.2" cy="198.0" r="3" fill="#3fb950"/><circle cx="325.8" cy="198.0" r="3" fill="#3fb950"/><circle cx="328.5" cy="198.0" r="3" fill="#3fb950"/><circle cx="331.2" cy="198.0" r="3" fill="#3fb950"/><circle cx="333.9" cy="198.0" r="3" fill="#3fb950"/><circle cx="336.6" cy="198.0" r="3" fill="#3fb950"/><circle cx="339.3" cy="198.0" r="3" fill="#3fb950"/><circle cx="341.9" cy="198.0" r="3" fill="#3fb950"/><circle cx="344.6" cy="198.0" r="3" fill="#3fb950"/><circle cx="347.3" cy="198.0" r="3" fill="#3fb950"/><circle cx="350.0" cy="198.0" r="3" fill="#3fb950"/><circle cx="352.7" cy="198.0" r="3" fill="#3fb950"/><circle cx="355.4" cy="198.0" r="3" fill="#3fb950"/><circle cx="358.1" cy="198.0" r="3" fill="#3fb950"/><circle cx="360.7" cy="198.0" r="3" fill="#3fb950"/><circle cx="363.4" cy="198.0" r="3" fill="#3fb950"/><circle cx="366.1" cy="198.0" r="3" fill="#3fb950"/><circle cx="368.8" cy="198.0" r="3" fill="#3fb950"/><circle cx="371.5" cy="198.0" r="3" fill="#3fb950"/><circle cx="374.2" cy="198.0" r="3" fill="#3fb950"/><circle cx="376.8" cy="198.0" r="3" fill="#3fb950"/><circle cx="379.5" cy="198.0" r="3" fill="#3fb950"/><circle cx="382.2" cy="198.0" r="3" fill="#3fb950"/><circle cx="384.9" cy="198.0" r="3" fill="#3fb950"/><circle cx="387.6" cy="198.0" r="3" fill="#3fb950"/><circle cx="390.3" cy="198.0" r="3" fill="#3fb950"/><circle cx="392.9" cy="198.0" r="3" fill="#3fb950"/><circle cx="395.6" cy="198.0" r="3" fill="#3fb950"/><circle cx="398.3" cy="198.0" r="3" fill="#3fb950"/><circle cx="401.0" cy="198.0" r="3" fill="#3fb950"/><circle cx="403.7" cy="198.0" r="3" fill="#3fb950"/><circle cx="406.4" cy="198.0" r="3" fill="#3fb950"/><circle cx="409.0" cy="198.0" r="3" fill="#3fb950"/><circle cx="411.7" cy="198.0" r="3" fill="#3fb950"/><circle cx="414.4" cy="198.0" r="3" fill="#3fb950"/><circle cx="417.1" cy="198.0" r="3" fill="#3fb950"/><circle cx="419.8" cy="198.0" r="3" fill="#3fb950"/><circle cx="422.5" cy="198.0" r="3" fill="#3fb950"/><circle cx="425.1" cy="198.0" r="3" fill="#3fb950"/><circle cx="427.8" cy="198.0" r="3" fill="#3fb950"/><circle cx="430.5" cy="198.0" r="3" fill="#3fb950"/><circle cx="433.2" cy="198.0" r="3" fill="#3fb950"/><circle cx="435.9" cy="198.0" r="3" fill="#3fb950"/><circle cx="438.6" cy="198.0" r="3" fill="#3fb950"/><circle cx="441.2" cy="198.0" r="3" fill="#3fb950"/><circle cx="443.9" cy="198.0" r="3" fill="#3fb950"/><circle cx="446.6" cy="198.0" r="3" fill="#3fb950"/><circle cx="449.3" cy="198.0" r="3" fill="#3fb950"/><circle cx="452.0" cy="198.0" r="3" fill="#3fb950"/><circle cx="454.7" cy="198.0" r="3" fill="#3fb950"/><circle cx="457.4" cy="198.0" r="3" fill="#3fb950"/><circle cx="460.0" cy="198.0" r="3" fill="#3fb950"/><circle cx="462.7" cy="198.0" r="3" fill="#3fb950"/><circle cx="465.4" cy="198.0" r="3" fill="#3fb950"/><circle cx="468.1" cy="198.0" r="3" fill="#3fb950"/><circle cx="470.8" cy="198.0" r="3" fill="#3fb950"/><circle cx="473.5" cy="198.0" r="3" fill="#3fb950"/><circle cx="476.1" cy="198.0" r="3" fill="#3fb950"/><circle cx="478.8" cy="198.0" r="3" fill="#3fb950"/><circle cx="481.5" cy="198.0" r="3" fill="#3fb950"/><circle cx="484.2" cy="198.0" r="3" fill="#3fb950"/><circle cx="486.9" cy="198.0" r="3" fill="#3fb950"/><circle cx="489.6" cy="198.0" r="3" fill="#3fb950"/><circle cx="492.2" cy="198.0" r="3" fill="#3fb950"/><circle cx="494.9" cy="198.0" r="3" fill="#3fb950"/><circle cx="497.6" cy="198.0" r="3" fill="#3fb950"/><circle cx="500.3" cy="198.0" r="3" fill="#3fb950"/><circle cx="503.0" cy="198.0" r="3" fill="#3fb950"/><circle cx="505.7" cy="198.0" r="3" fill="#3fb950"/><circle cx="508.3" cy="198.0" r="3" fill="#3fb950"/><circle cx="511.0" cy="198.0" r="3" fill="#3fb950"/><circle cx="513.7" cy="198.0" r="3" fill="#3fb950"/><circle cx="516.4" cy="198.0" r="3" fill="#3fb950"/><circle cx="519.1" cy="198.0" r="3" fill="#3fb950"/><circle cx="521.8" cy="198.0" r="3" fill="#3fb950"/><circle cx="524.4" cy="198.0" r="3" fill="#3fb950"/><circle cx="527.1" cy="198.0" r="3" fill="#3fb950"/><circle cx="529.8" cy="198.0" r="3" fill="#3fb950"/><circle cx="532.5" cy="198.0" r="3" fill="#3fb950"/><circle cx="535.2" cy="198.0" r="3" fill="#3fb950"/><circle cx="537.9" cy="198.0" r="3" fill="#3fb950"/><circle cx="540.5" cy="198.0" r="3" fill="#3fb950"/><circle cx="543.2" cy="198.0" r="3" fill="#3fb950"/><circle cx="545.9" cy="198.0" r="3" fill="#3fb950"/><circle cx="548.6" cy="198.0" r="3" fill="#3fb950"/><circle cx="551.3" cy="198.0" r="3" fill="#3fb950"/><circle cx="554.0" cy="198.0" r="3" fill="#3fb950"/><circle cx="556.6" cy="198.0" r="3" fill="#3fb950"/><circle cx="559.3" cy="198.0" r="3" fill="#3fb950"/><circle cx="562.0" cy="198.0" r="3" fill="#3fb950"/><circle cx="564.7" cy="198.0" r="3" fill="#3fb950"/><circle cx="567.4" cy="198.0" r="3" fill="#3fb950"/><circle cx="570.1" cy="198.0" r="3" fill="#3fb950"/><circle cx="572.8" cy="198.0" r="3" fill="#3fb950"/><circle cx="575.4" cy="198.0" r="3" fill="#3fb950"/><circle cx="578.1" cy="198.0" r="3" fill="#3fb950"/><circle cx="580.8" cy="198.0" r="3" fill="#3fb950"/><circle cx="583.5" cy="198.0" r="3" fill="#3fb950"/><circle cx="586.2" cy="198.0" r="3" fill="#3fb950"/><circle cx="588.9" cy="198.0" r="3" fill="#3fb950"/><circle cx="591.5" cy="198.0" r="3" fill="#3fb950"/><circle cx="594.2" cy="198.0" r="3" fill="#3fb950"/><circle cx="596.9" cy="198.0" r="3" fill="#3fb950"/><circle cx="599.6" cy="198.0" r="3" fill="#3fb950"/><circle cx="602.3" cy="198.0" r="3" fill="#3fb950"/><circle cx="605.0" cy="198.0" r="3" fill="#3fb950"/><circle cx="607.6" cy="198.0" r="3" fill="#3fb950"/><circle cx="610.3" cy="198.0" r="3" fill="#3fb950"/><circle cx="613.0" cy="198.0" r="3" fill="#3fb950"/><circle cx="615.7" cy="198.0" r="3" fill="#3fb950"/><circle cx="618.4" cy="198.0" r="3" fill="#3fb950"/><circle cx="621.1" cy="198.0" r="3" fill="#3fb950"/><circle cx="623.7" cy="198.0" r="3" fill="#3fb950"/><circle cx="626.4" cy="198.0" r="3" fill="#3fb950"/><circle cx="629.1" cy="198.0" r="3" fill="#3fb950"/><circle cx="631.8" cy="198.0" r="3" fill="#3fb950"/><circle cx="634.5" cy="198.0" r="3" fill="#3fb950"/><circle cx="637.2" cy="198.0" r="3" fill="#3fb950"/><circle cx="639.8" cy="198.0" r="3" fill="#3fb950"/><circle cx="642.5" cy="198.0" r="3" fill="#3fb950"/><circle cx="645.2" cy="198.0" r="3" fill="#3fb950"/><circle cx="647.9" cy="198.0" r="3" fill="#3fb950"/><circle cx="650.6" cy="198.0" r="3" fill="#3fb950"/><circle cx="653.3" cy="198.0" r="3" fill="#3fb950"/><circle cx="655.9" cy="198.0" r="3" fill="#3fb950"/><circle cx="658.6" cy="198.0" r="3" fill="#3fb950"/><circle cx="661.3" cy="198.0" r="3" fill="#3fb950"/><circle cx="664.0" cy="198.0" r="3" fill="#3fb950"/>
<polyline fill="none" stroke="#4aa3ff" stroke-width="2.5" stroke-linejoin="round" points="36.0,144.3 38.7,144.3 41.4,144.3 44.1,144.3 46.7,144.3 49.4,144.3 52.1,144.3 54.8,144.3 57.5,144.3 60.2,144.3 62.8,144.3 65.5,144.3 68.2,144.3 70.9,144.3 73.6,144.3 76.3,136.2 78.9,132.4 81.6,129.6 84.3,129.6 87.0,121.0 89.7,121.0 92.4,121.0 95.0,114.4 97.7,114.4 100.4,114.4 103.1,111.3 105.8,110.9 108.5,110.9 111.1,110.5 113.8,110.5 116.5,109.9 119.2,108.7 121.9,107.3 124.6,106.9 127.2,106.9 129.9,106.9 132.6,106.9 135.3,106.9 138.0,106.9 140.7,106.9 143.4,106.9 146.0,106.9 148.7,106.9 151.4,113.2 154.1,113.2 156.8,113.2 159.5,113.2 162.1,113.2 164.8,110.7 167.5,105.3 170.2,83.4 172.9,83.4 175.6,85.6 178.2,85.6 180.9,85.6 183.6,85.6 186.3,85.6 189.0,85.8 191.7,85.8 194.3,85.8 197.0,86.0 199.7,86.0 202.4,86.0 205.1,86.0 207.8,86.0 210.4,86.0 213.1,86.0 215.8,86.0 218.5,86.0 221.2,86.0 223.9,86.0 226.5,86.0 229.2,86.0 231.9,86.0 234.6,86.0 237.3,86.0 240.0,86.0 242.6,86.0 245.3,86.0 248.0,86.0 250.7,86.0 253.4,87.0 256.1,87.0 258.8,87.0 261.4,73.7 264.1,73.7 266.8,71.0 269.5,71.0 272.2,70.8 274.9,70.6 277.5,70.6 280.2,70.4 282.9,68.6 285.6,60.5 288.3,59.3 291.0,52.0 293.6,47.3 296.3,40.1 299.0,36.0 301.7,36.0 304.4,36.0 307.1,36.0 309.7,36.0 312.4,36.0 315.1,36.0 317.8,36.0 320.5,36.0 323.2,36.0 325.8,36.0 328.5,36.0 331.2,36.0 333.9,36.0 336.6,36.0 339.3,36.0 341.9,36.0 344.6,36.0 347.3,36.0 350.0,36.0 352.7,36.0 355.4,36.0 358.1,36.0 360.7,36.0 363.4,36.0 366.1,36.0 368.8,36.0 371.5,36.0 374.2,36.0 376.8,36.0 379.5,36.0 382.2,36.0 384.9,36.0 387.6,36.0 390.3,36.0 392.9,36.0 395.6,36.0 398.3,36.0 401.0,36.0 403.7,36.0 406.4,36.0 409.0,36.0 411.7,36.0 414.4,36.0 417.1,36.0 419.8,36.0 422.5,36.0 425.1,36.0 427.8,36.0 430.5,36.0 433.2,36.0 435.9,36.0 438.6,36.0 441.2,36.0 443.9,36.0 446.6,36.0 449.3,36.0 452.0,36.0 454.7,36.0 457.4,36.0 460.0,36.0 462.7,36.0 465.4,36.0 468.1,36.0 470.8,36.0 473.5,36.0 476.1,36.0 478.8,36.0 481.5,36.0 484.2,36.0 486.9,36.0 489.6,36.0 492.2,36.0 494.9,36.0 497.6,36.0 500.3,36.0 503.0,36.0 505.7,36.0 508.3,36.0 511.0,36.0 513.7,36.0 516.4,36.0 519.1,36.0 521.8,36.0 524.4,36.0 527.1,36.0 529.8,36.0 532.5,36.0 535.2,36.0 537.9,36.0 540.5,36.0 543.2,36.0 545.9,36.0 548.6,36.0 551.3,36.0 554.0,36.0 556.6,36.0 559.3,36.0 562.0,36.0 564.7,36.0 567.4,36.0 570.1,36.0 572.8,36.0 575.4,36.0 578.1,36.0 580.8,36.0 583.5,36.0 586.2,36.0 588.9,36.0 591.5,36.0 594.2,36.0 596.9,36.0 599.6,36.0 602.3,36.0 605.0,36.0 607.6,36.0 610.3,36.0 613.0,36.0 615.7,36.0 618.4,36.0 621.1,36.0 623.7,36.0 626.4,36.0 629.1,36.0 631.8,36.0 634.5,36.0 637.2,36.0 639.8,36.0 642.5,36.0 645.2,36.0 647.9,36.0 650.6,36.0 653.3,36.0 655.9,36.0 658.6,36.0 661.3,36.0 664.0,36.0"/><circle cx="36.0" cy="144.3" r="3" fill="#4aa3ff"/><circle cx="38.7" cy="144.3" r="3" fill="#4aa3ff"/><circle cx="41.4" cy="144.3" r="3" fill="#4aa3ff"/><circle cx="44.1" cy="144.3" r="3" fill="#4aa3ff"/><circle cx="46.7" cy="144.3" r="3" fill="#4aa3ff"/><circle cx="49.4" cy="144.3" r="3" fill="#4aa3ff"/><circle cx="52.1" cy="144.3" r="3" fill="#4aa3ff"/><circle cx="54.8" cy="144.3" r="3" fill="#4aa3ff"/><circle cx="57.5" cy="144.3" r="3" fill="#4aa3ff"/><circle cx="60.2" cy="144.3" r="3" fill="#4aa3ff"/><circle cx="62.8" cy="144.3" r="3" fill="#4aa3ff"/><circle cx="65.5" cy="144.3" r="3" fill="#4aa3ff"/><circle cx="68.2" cy="144.3" r="3" fill="#4aa3ff"/><circle cx="70.9" cy="144.3" r="3" fill="#4aa3ff"/><circle cx="73.6" cy="144.3" r="3" fill="#4aa3ff"/><circle cx="76.3" cy="136.2" r="3" fill="#4aa3ff"/><circle cx="78.9" cy="132.4" r="3" fill="#4aa3ff"/><circle cx="81.6" cy="129.6" r="3" fill="#4aa3ff"/><circle cx="84.3" cy="129.6" r="3" fill="#4aa3ff"/><circle cx="87.0" cy="121.0" r="3" fill="#4aa3ff"/><circle cx="89.7" cy="121.0" r="3" fill="#4aa3ff"/><circle cx="92.4" cy="121.0" r="3" fill="#4aa3ff"/><circle cx="95.0" cy="114.4" r="3" fill="#4aa3ff"/><circle cx="97.7" cy="114.4" r="3" fill="#4aa3ff"/><circle cx="100.4" cy="114.4" r="3" fill="#4aa3ff"/><circle cx="103.1" cy="111.3" r="3" fill="#4aa3ff"/><circle cx="105.8" cy="110.9" r="3" fill="#4aa3ff"/><circle cx="108.5" cy="110.9" r="3" fill="#4aa3ff"/><circle cx="111.1" cy="110.5" r="3" fill="#4aa3ff"/><circle cx="113.8" cy="110.5" r="3" fill="#4aa3ff"/><circle cx="116.5" cy="109.9" r="3" fill="#4aa3ff"/><circle cx="119.2" cy="108.7" r="3" fill="#4aa3ff"/><circle cx="121.9" cy="107.3" r="3" fill="#4aa3ff"/><circle cx="124.6" cy="106.9" r="3" fill="#4aa3ff"/><circle cx="127.2" cy="106.9" r="3" fill="#4aa3ff"/><circle cx="129.9" cy="106.9" r="3" fill="#4aa3ff"/><circle cx="132.6" cy="106.9" r="3" fill="#4aa3ff"/><circle cx="135.3" cy="106.9" r="3" fill="#4aa3ff"/><circle cx="138.0" cy="106.9" r="3" fill="#4aa3ff"/><circle cx="140.7" cy="106.9" r="3" fill="#4aa3ff"/><circle cx="143.4" cy="106.9" r="3" fill="#4aa3ff"/><circle cx="146.0" cy="106.9" r="3" fill="#4aa3ff"/><circle cx="148.7" cy="106.9" r="3" fill="#4aa3ff"/><circle cx="151.4" cy="113.2" r="3" fill="#4aa3ff"/><circle cx="154.1" cy="113.2" r="3" fill="#4aa3ff"/><circle cx="156.8" cy="113.2" r="3" fill="#4aa3ff"/><circle cx="159.5" cy="113.2" r="3" fill="#4aa3ff"/><circle cx="162.1" cy="113.2" r="3" fill="#4aa3ff"/><circle cx="164.8" cy="110.7" r="3" fill="#4aa3ff"/><circle cx="167.5" cy="105.3" r="3" fill="#4aa3ff"/><circle cx="170.2" cy="83.4" r="3" fill="#4aa3ff"/><circle cx="172.9" cy="83.4" r="3" fill="#4aa3ff"/><circle cx="175.6" cy="85.6" r="3" fill="#4aa3ff"/><circle cx="178.2" cy="85.6" r="3" fill="#4aa3ff"/><circle cx="180.9" cy="85.6" r="3" fill="#4aa3ff"/><circle cx="183.6" cy="85.6" r="3" fill="#4aa3ff"/><circle cx="186.3" cy="85.6" r="3" fill="#4aa3ff"/><circle cx="189.0" cy="85.8" r="3" fill="#4aa3ff"/><circle cx="191.7" cy="85.8" r="3" fill="#4aa3ff"/><circle cx="194.3" cy="85.8" r="3" fill="#4aa3ff"/><circle cx="197.0" cy="86.0" r="3" fill="#4aa3ff"/><circle cx="199.7" cy="86.0" r="3" fill="#4aa3ff"/><circle cx="202.4" cy="86.0" r="3" fill="#4aa3ff"/><circle cx="205.1" cy="86.0" r="3" fill="#4aa3ff"/><circle cx="207.8" cy="86.0" r="3" fill="#4aa3ff"/><circle cx="210.4" cy="86.0" r="3" fill="#4aa3ff"/><circle cx="213.1" cy="86.0" r="3" fill="#4aa3ff"/><circle cx="215.8" cy="86.0" r="3" fill="#4aa3ff"/><circle cx="218.5" cy="86.0" r="3" fill="#4aa3ff"/><circle cx="221.2" cy="86.0" r="3" fill="#4aa3ff"/><circle cx="223.9" cy="86.0" r="3" fill="#4aa3ff"/><circle cx="226.5" cy="86.0" r="3" fill="#4aa3ff"/><circle cx="229.2" cy="86.0" r="3" fill="#4aa3ff"/><circle cx="231.9" cy="86.0" r="3" fill="#4aa3ff"/><circle cx="234.6" cy="86.0" r="3" fill="#4aa3ff"/><circle cx="237.3" cy="86.0" r="3" fill="#4aa3ff"/><circle cx="240.0" cy="86.0" r="3" fill="#4aa3ff"/><circle cx="242.6" cy="86.0" r="3" fill="#4aa3ff"/><circle cx="245.3" cy="86.0" r="3" fill="#4aa3ff"/><circle cx="248.0" cy="86.0" r="3" fill="#4aa3ff"/><circle cx="250.7" cy="86.0" r="3" fill="#4aa3ff"/><circle cx="253.4" cy="87.0" r="3" fill="#4aa3ff"/><circle cx="256.1" cy="87.0" r="3" fill="#4aa3ff"/><circle cx="258.8" cy="87.0" r="3" fill="#4aa3ff"/><circle cx="261.4" cy="73.7" r="3" fill="#4aa3ff"/><circle cx="264.1" cy="73.7" r="3" fill="#4aa3ff"/><circle cx="266.8" cy="71.0" r="3" fill="#4aa3ff"/><circle cx="269.5" cy="71.0" r="3" fill="#4aa3ff"/><circle cx="272.2" cy="70.8" r="3" fill="#4aa3ff"/><circle cx="274.9" cy="70.6" r="3" fill="#4aa3ff"/><circle cx="277.5" cy="70.6" r="3" fill="#4aa3ff"/><circle cx="280.2" cy="70.4" r="3" fill="#4aa3ff"/><circle cx="282.9" cy="68.6" r="3" fill="#4aa3ff"/><circle cx="285.6" cy="60.5" r="3" fill="#4aa3ff"/><circle cx="288.3" cy="59.3" r="3" fill="#4aa3ff"/><circle cx="291.0" cy="52.0" r="3" fill="#4aa3ff"/><circle cx="293.6" cy="47.3" r="3" fill="#4aa3ff"/><circle cx="296.3" cy="40.1" r="3" fill="#4aa3ff"/><circle cx="299.0" cy="36.0" r="3" fill="#4aa3ff"/><circle cx="301.7" cy="36.0" r="3" fill="#4aa3ff"/><circle cx="304.4" cy="36.0" r="3" fill="#4aa3ff"/><circle cx="307.1" cy="36.0" r="3" fill="#4aa3ff"/><circle cx="309.7" cy="36.0" r="3" fill="#4aa3ff"/><circle cx="312.4" cy="36.0" r="3" fill="#4aa3ff"/><circle cx="315.1" cy="36.0" r="3" fill="#4aa3ff"/><circle cx="317.8" cy="36.0" r="3" fill="#4aa3ff"/><circle cx="320.5" cy="36.0" r="3" fill="#4aa3ff"/><circle cx="323.2" cy="36.0" r="3" fill="#4aa3ff"/><circle cx="325.8" cy="36.0" r="3" fill="#4aa3ff"/><circle cx="328.5" cy="36.0" r="3" fill="#4aa3ff"/><circle cx="331.2" cy="36.0" r="3" fill="#4aa3ff"/><circle cx="333.9" cy="36.0" r="3" fill="#4aa3ff"/><circle cx="336.6" cy="36.0" r="3" fill="#4aa3ff"/><circle cx="339.3" cy="36.0" r="3" fill="#4aa3ff"/><circle cx="341.9" cy="36.0" r="3" fill="#4aa3ff"/><circle cx="344.6" cy="36.0" r="3" fill="#4aa3ff"/><circle cx="347.3" cy="36.0" r="3" fill="#4aa3ff"/><circle cx="350.0" cy="36.0" r="3" fill="#4aa3ff"/><circle cx="352.7" cy="36.0" r="3" fill="#4aa3ff"/><circle cx="355.4" cy="36.0" r="3" fill="#4aa3ff"/><circle cx="358.1" cy="36.0" r="3" fill="#4aa3ff"/><circle cx="360.7" cy="36.0" r="3" fill="#4aa3ff"/><circle cx="363.4" cy="36.0" r="3" fill="#4aa3ff"/><circle cx="366.1" cy="36.0" r="3" fill="#4aa3ff"/><circle cx="368.8" cy="36.0" r="3" fill="#4aa3ff"/><circle cx="371.5" cy="36.0" r="3" fill="#4aa3ff"/><circle cx="374.2" cy="36.0" r="3" fill="#4aa3ff"/><circle cx="376.8" cy="36.0" r="3" fill="#4aa3ff"/><circle cx="379.5" cy="36.0" r="3" fill="#4aa3ff"/><circle cx="382.2" cy="36.0" r="3" fill="#4aa3ff"/><circle cx="384.9" cy="36.0" r="3" fill="#4aa3ff"/><circle cx="387.6" cy="36.0" r="3" fill="#4aa3ff"/><circle cx="390.3" cy="36.0" r="3" fill="#4aa3ff"/><circle cx="392.9" cy="36.0" r="3" fill="#4aa3ff"/><circle cx="395.6" cy="36.0" r="3" fill="#4aa3ff"/><circle cx="398.3" cy="36.0" r="3" fill="#4aa3ff"/><circle cx="401.0" cy="36.0" r="3" fill="#4aa3ff"/><circle cx="403.7" cy="36.0" r="3" fill="#4aa3ff"/><circle cx="406.4" cy="36.0" r="3" fill="#4aa3ff"/><circle cx="409.0" cy="36.0" r="3" fill="#4aa3ff"/><circle cx="411.7" cy="36.0" r="3" fill="#4aa3ff"/><circle cx="414.4" cy="36.0" r="3" fill="#4aa3ff"/><circle cx="417.1" cy="36.0" r="3" fill="#4aa3ff"/><circle cx="419.8" cy="36.0" r="3" fill="#4aa3ff"/><circle cx="422.5" cy="36.0" r="3" fill="#4aa3ff"/><circle cx="425.1" cy="36.0" r="3" fill="#4aa3ff"/><circle cx="427.8" cy="36.0" r="3" fill="#4aa3ff"/><circle cx="430.5" cy="36.0" r="3" fill="#4aa3ff"/><circle cx="433.2" cy="36.0" r="3" fill="#4aa3ff"/><circle cx="435.9" cy="36.0" r="3" fill="#4aa3ff"/><circle cx="438.6" cy="36.0" r="3" fill="#4aa3ff"/><circle cx="441.2" cy="36.0" r="3" fill="#4aa3ff"/><circle cx="443.9" cy="36.0" r="3" fill="#4aa3ff"/><circle cx="446.6" cy="36.0" r="3" fill="#4aa3ff"/><circle cx="449.3" cy="36.0" r="3" fill="#4aa3ff"/><circle cx="452.0" cy="36.0" r="3" fill="#4aa3ff"/><circle cx="454.7" cy="36.0" r="3" fill="#4aa3ff"/><circle cx="457.4" cy="36.0" r="3" fill="#4aa3ff"/><circle cx="460.0" cy="36.0" r="3" fill="#4aa3ff"/><circle cx="462.7" cy="36.0" r="3" fill="#4aa3ff"/><circle cx="465.4" cy="36.0" r="3" fill="#4aa3ff"/><circle cx="468.1" cy="36.0" r="3" fill="#4aa3ff"/><circle cx="470.8" cy="36.0" r="3" fill="#4aa3ff"/><circle cx="473.5" cy="36.0" r="3" fill="#4aa3ff"/><circle cx="476.1" cy="36.0" r="3" fill="#4aa3ff"/><circle cx="478.8" cy="36.0" r="3" fill="#4aa3ff"/><circle cx="481.5" cy="36.0" r="3" fill="#4aa3ff"/><circle cx="484.2" cy="36.0" r="3" fill="#4aa3ff"/><circle cx="486.9" cy="36.0" r="3" fill="#4aa3ff"/><circle cx="489.6" cy="36.0" r="3" fill="#4aa3ff"/><circle cx="492.2" cy="36.0" r="3" fill="#4aa3ff"/><circle cx="494.9" cy="36.0" r="3" fill="#4aa3ff"/><circle cx="497.6" cy="36.0" r="3" fill="#4aa3ff"/><circle cx="500.3" cy="36.0" r="3" fill="#4aa3ff"/><circle cx="503.0" cy="36.0" r="3" fill="#4aa3ff"/><circle cx="505.7" cy="36.0" r="3" fill="#4aa3ff"/><circle cx="508.3" cy="36.0" r="3" fill="#4aa3ff"/><circle cx="511.0" cy="36.0" r="3" fill="#4aa3ff"/><circle cx="513.7" cy="36.0" r="3" fill="#4aa3ff"/><circle cx="516.4" cy="36.0" r="3" fill="#4aa3ff"/><circle cx="519.1" cy="36.0" r="3" fill="#4aa3ff"/><circle cx="521.8" cy="36.0" r="3" fill="#4aa3ff"/><circle cx="524.4" cy="36.0" r="3" fill="#4aa3ff"/><circle cx="527.1" cy="36.0" r="3" fill="#4aa3ff"/><circle cx="529.8" cy="36.0" r="3" fill="#4aa3ff"/><circle cx="532.5" cy="36.0" r="3" fill="#4aa3ff"/><circle cx="535.2" cy="36.0" r="3" fill="#4aa3ff"/><circle cx="537.9" cy="36.0" r="3" fill="#4aa3ff"/><circle cx="540.5" cy="36.0" r="3" fill="#4aa3ff"/><circle cx="543.2" cy="36.0" r="3" fill="#4aa3ff"/><circle cx="545.9" cy="36.0" r="3" fill="#4aa3ff"/><circle cx="548.6" cy="36.0" r="3" fill="#4aa3ff"/><circle cx="551.3" cy="36.0" r="3" fill="#4aa3ff"/><circle cx="554.0" cy="36.0" r="3" fill="#4aa3ff"/><circle cx="556.6" cy="36.0" r="3" fill="#4aa3ff"/><circle cx="559.3" cy="36.0" r="3" fill="#4aa3ff"/><circle cx="562.0" cy="36.0" r="3" fill="#4aa3ff"/><circle cx="564.7" cy="36.0" r="3" fill="#4aa3ff"/><circle cx="567.4" cy="36.0" r="3" fill="#4aa3ff"/><circle cx="570.1" cy="36.0" r="3" fill="#4aa3ff"/><circle cx="572.8" cy="36.0" r="3" fill="#4aa3ff"/><circle cx="575.4" cy="36.0" r="3" fill="#4aa3ff"/><circle cx="578.1" cy="36.0" r="3" fill="#4aa3ff"/><circle cx="580.8" cy="36.0" r="3" fill="#4aa3ff"/><circle cx="583.5" cy="36.0" r="3" fill="#4aa3ff"/><circle cx="586.2" cy="36.0" r="3" fill="#4aa3ff"/><circle cx="588.9" cy="36.0" r="3" fill="#4aa3ff"/><circle cx="591.5" cy="36.0" r="3" fill="#4aa3ff"/><circle cx="594.2" cy="36.0" r="3" fill="#4aa3ff"/><circle cx="596.9" cy="36.0" r="3" fill="#4aa3ff"/><circle cx="599.6" cy="36.0" r="3" fill="#4aa3ff"/><circle cx="602.3" cy="36.0" r="3" fill="#4aa3ff"/><circle cx="605.0" cy="36.0" r="3" fill="#4aa3ff"/><circle cx="607.6" cy="36.0" r="3" fill="#4aa3ff"/><circle cx="610.3" cy="36.0" r="3" fill="#4aa3ff"/><circle cx="613.0" cy="36.0" r="3" fill="#4aa3ff"/><circle cx="615.7" cy="36.0" r="3" fill="#4aa3ff"/><circle cx="618.4" cy="36.0" r="3" fill="#4aa3ff"/><circle cx="621.1" cy="36.0" r="3" fill="#4aa3ff"/><circle cx="623.7" cy="36.0" r="3" fill="#4aa3ff"/><circle cx="626.4" cy="36.0" r="3" fill="#4aa3ff"/><circle cx="629.1" cy="36.0" r="3" fill="#4aa3ff"/><circle cx="631.8" cy="36.0" r="3" fill="#4aa3ff"/><circle cx="634.5" cy="36.0" r="3" fill="#4aa3ff"/><circle cx="637.2" cy="36.0" r="3" fill="#4aa3ff"/><circle cx="639.8" cy="36.0" r="3" fill="#4aa3ff"/><circle cx="642.5" cy="36.0" r="3" fill="#4aa3ff"/><circle cx="645.2" cy="36.0" r="3" fill="#4aa3ff"/><circle cx="647.9" cy="36.0" r="3" fill="#4aa3ff"/><circle cx="650.6" cy="36.0" r="3" fill="#4aa3ff"/><circle cx="653.3" cy="36.0" r="3" fill="#4aa3ff"/><circle cx="655.9" cy="36.0" r="3" fill="#4aa3ff"/><circle cx="658.6" cy="36.0" r="3" fill="#4aa3ff"/><circle cx="661.3" cy="36.0" r="3" fill="#4aa3ff"/><circle cx="664.0" cy="36.0" r="3" fill="#4aa3ff"/>
<text x="36" y="225" fill="#6b7280" font-size="11">2026-06-26</text>
<text x="664" y="225" fill="#6b7280" font-size="11" text-anchor="end">2026-07-19</text>
<text x="36" y="212" font-family="system-ui,sans-serif" font-size="11">
<tspan fill="#4aa3ff">&#9679; open FPs</tspan>  <tspan fill="#3fb950">&#9679; closed (Anthropic acting)</tspan>  <tspan fill="#8a5a5a">&#9679; harness withdrawn</tspan></text>
<text x="664" y="22" text-anchor="end" font-family="system-ui,sans-serif" font-size="12">
<tspan fill="#4aa3ff">open 800</tspan>  <tspan fill="#3fb950">closed 0</tspan>  <tspan fill="#8a5a5a">harness 0</tspan></text>
</svg>