<svg xmlns="http://www.w3.org/2000/svg" width="700" height="234" viewBox="0 0 700 234" role="img">
<rect width="700" height="234" rx="12" fill="#16181d"/>
<text x="36" y="22" fill="#e8eaed" font-family="system-ui,sans-serif" font-size="14" font-weight="700">Is Anthropic acting? cyber/aup false positives over time</text>
<line x1="36" y1="198.0" x2="664" y2="198.0" stroke="#2a2e37" stroke-width="1"/><text x="30" y="202.0" fill="#6b7280" font-size="11" text-anchor="end">0</text><line x1="36" y1="117.0" x2="664" y2="117.0" stroke="#2a2e37" stroke-width="1"/><text x="30" y="121.0" fill="#6b7280" font-size="11" text-anchor="end">400</text><line x1="36" y1="36.0" x2="664" y2="36.0" stroke="#2a2e37" stroke-width="1"/><text x="30" y="40.0" fill="#6b7280" font-size="11" text-anchor="end">800</text>

<polyline fill="none" stroke="#8a5a5a" stroke-width="2.5" stroke-linejoin="round" points="36.0,145.1 41.8,145.1 47.5,145.1 53.3,145.1 59.0,145.1 64.8,145.1 70.6,145.1 76.3,145.1 82.1,145.1 87.9,145.1 93.6,145.1 99.4,145.1 105.1,145.1 110.9,145.1 116.7,145.1 122.4,145.1 128.2,145.1 133.9,145.1 139.7,145.1 145.5,145.1 151.2,145.1 157.0,145.1 162.8,145.1 168.5,145.1 174.3,145.1 180.0,145.1 185.8,145.1 191.6,145.1 197.3,145.1 203.1,145.1 208.8,145.1 214.6,145.1 220.4,145.1 226.1,145.1 231.9,145.1 237.7,145.1 243.4,145.1 249.2,145.1 254.9,145.1 260.7,145.1 266.5,145.1 272.2,145.1 278.0,145.1 283.7,145.1 289.5,145.1 295.3,145.1 301.0,145.1 306.8,145.1 312.6,145.1 318.3,145.1 324.1,155.7 329.8,155.7 335.6,155.7 341.4,155.7 347.1,155.7 352.9,155.7 358.6,155.7 364.4,155.7 370.2,155.7 375.9,155.7 381.7,155.7 387.4,155.7 393.2,155.7 399.0,155.7 404.7,155.7 410.5,155.7 416.3,155.7 422.0,155.7 427.8,155.7 433.5,155.7 439.3,155.7 445.1,155.7 450.8,155.7 456.6,155.7 462.3,155.7 468.1,155.7 473.9,155.7 479.6,155.7 485.4,155.7 491.2,155.7 496.9,155.7 502.7,155.7 508.4,155.7 514.2,155.7 520.0,167.6 525.7,167.6 531.5,170.3 537.2,170.3 543.0,170.5 548.8,170.7 554.5,170.7 560.3,170.9 566.1,172.7 571.8,180.6 577.6,181.8 583.3,189.1 589.1,190.5 594.9,195.2 600.6,198.0 606.4,198.0 612.1,198.0 617.9,198.0 623.7,198.0 629.4,198.0 635.2,198.0 641.0,198.0 646.7,198.0 652.5,198.0 658.2,198.0 664.0,198.0"/><circle cx="36.0" cy="145.1" r="3" fill="#8a5a5a"/><circle cx="41.8" cy="145.1" r="3" fill="#8a5a5a"/><circle cx="47.5" cy="145.1" r="3" fill="#8a5a5a"/><circle cx="53.3" cy="145.1" r="3" fill="#8a5a5a"/><circle cx="59.0" cy="145.1" r="3" fill="#8a5a5a"/><circle cx="64.8" cy="145.1" r="3" fill="#8a5a5a"/><circle cx="70.6" cy="145.1" r="3" fill="#8a5a5a"/><circle cx="76.3" cy="145.1" r="3" fill="#8a5a5a"/><circle cx="82.1" cy="145.1" r="3" fill="#8a5a5a"/><circle cx="87.9" cy="145.1" r="3" fill="#8a5a5a"/><circle cx="93.6" cy="145.1" r="3" fill="#8a5a5a"/><circle cx="99.4" cy="145.1" r="3" fill="#8a5a5a"/><circle cx="105.1" cy="145.1" r="3" fill="#8a5a5a"/><circle cx="110.9" cy="145.1" r="3" fill="#8a5a5a"/><circle cx="116.7" cy="145.1" r="3" fill="#8a5a5a"/><circle cx="122.4" cy="145.1" r="3" fill="#8a5a5a"/><circle cx="128.2" cy="145.1" r="3" fill="#8a5a5a"/><circle cx="133.9" cy="145.1" r="3" fill="#8a5a5a"/><circle cx="139.7" cy="145.1" r="3" fill="#8a5a5a"/><circle cx="145.5" cy="145.1" r="3" fill="#8a5a5a"/><circle cx="151.2" cy="145.1" r="3" fill="#8a5a5a"/><circle cx="157.0" cy="145.1" r="3" fill="#8a5a5a"/><circle cx="162.8" cy="145.1" r="3" fill="#8a5a5a"/><circle cx="168.5" cy="145.1" r="3" fill="#8a5a5a"/><circle cx="174.3" cy="145.1" r="3" fill="#8a5a5a"/><circle cx="180.0" cy="145.1" r="3" fill="#8a5a5a"/><circle cx="185.8" cy="145.1" r="3" fill="#8a5a5a"/><circle cx="191.6" cy="145.1" r="3" fill="#8a5a5a"/><circle cx="197.3" cy="145.1" r="3" fill="#8a5a5a"/><circle cx="203.1" cy="145.1" r="3" fill="#8a5a5a"/><circle cx="208.8" cy="145.1" r="3" fill="#8a5a5a"/><circle cx="214.6" cy="145.1" r="3" fill="#8a5a5a"/><circle cx="220.4" cy="145.1" r="3" fill="#8a5a5a"/><circle cx="226.1" cy="145.1" r="3" fill="#8a5a5a"/><circle cx="231.9" cy="145.1" r="3" fill="#8a5a5a"/><circle cx="237.7" cy="145.1" r="3" fill="#8a5a5a"/><circle cx="243.4" cy="145.1" r="3" fill="#8a5a5a"/><circle cx="249.2" cy="145.1" r="3" fill="#8a5a5a"/><circle cx="254.9" cy="145.1" r="3" fill="#8a5a5a"/><circle cx="260.7" cy="145.1" r="3" fill="#8a5a5a"/><circle cx="266.5" cy="145.1" r="3" fill="#8a5a5a"/><circle cx="272.2" cy="145.1" r="3" fill="#8a5a5a"/><circle cx="278.0" cy="145.1" r="3" fill="#8a5a5a"/><circle cx="283.7" cy="145.1" r="3" fill="#8a5a5a"/><circle cx="289.5" cy="145.1" r="3" fill="#8a5a5a"/><circle cx="295.3" cy="145.1" r="3" fill="#8a5a5a"/><circle cx="301.0" cy="145.1" r="3" fill="#8a5a5a"/><circle cx="306.8" cy="145.1" r="3" fill="#8a5a5a"/><circle cx="312.6" cy="145.1" r="3" fill="#8a5a5a"/><circle cx="318.3" cy="145.1" r="3" fill="#8a5a5a"/><circle cx="324.1" cy="155.7" r="3" fill="#8a5a5a"/><circle cx="329.8" cy="155.7" r="3" fill="#8a5a5a"/><circle cx="335.6" cy="155.7" r="3" fill="#8a5a5a"/><circle cx="341.4" cy="155.7" r="3" fill="#8a5a5a"/><circle cx="347.1" cy="155.7" r="3" fill="#8a5a5a"/><circle cx="352.9" cy="155.7" r="3" fill="#8a5a5a"/><circle cx="358.6" cy="155.7" r="3" fill="#8a5a5a"/><circle cx="364.4" cy="155.7" r="3" fill="#8a5a5a"/><circle cx="370.2" cy="155.7" r="3" fill="#8a5a5a"/><circle cx="375.9" cy="155.7" r="3" fill="#8a5a5a"/><circle cx="381.7" cy="155.7" r="3" fill="#8a5a5a"/><circle cx="387.4" cy="155.7" r="3" fill="#8a5a5a"/><circle cx="393.2" cy="155.7" r="3" fill="#8a5a5a"/><circle cx="399.0" cy="155.7" r="3" fill="#8a5a5a"/><circle cx="404.7" cy="155.7" r="3" fill="#8a5a5a"/><circle cx="410.5" cy="155.7" r="3" fill="#8a5a5a"/><circle cx="416.3" cy="155.7" r="3" fill="#8a5a5a"/><circle cx="422.0" cy="155.7" r="3" fill="#8a5a5a"/><circle cx="427.8" cy="155.7" r="3" fill="#8a5a5a"/><circle cx="433.5" cy="155.7" r="3" fill="#8a5a5a"/><circle cx="439.3" cy="155.7" r="3" fill="#8a5a5a"/><circle cx="445.1" cy="155.7" r="3" fill="#8a5a5a"/><circle cx="450.8" cy="155.7" r="3" fill="#8a5a5a"/><circle cx="456.6" cy="155.7" r="3" fill="#8a5a5a"/><circle cx="462.3" cy="155.7" r="3" fill="#8a5a5a"/><circle cx="468.1" cy="155.7" r="3" fill="#8a5a5a"/><circle cx="473.9" cy="155.7" r="3" fill="#8a5a5a"/><circle cx="479.6" cy="155.7" r="3" fill="#8a5a5a"/><circle cx="485.4" cy="155.7" r="3" fill="#8a5a5a"/><circle cx="491.2" cy="155.7" r="3" fill="#8a5a5a"/><circle cx="496.9" cy="155.7" r="3" fill="#8a5a5a"/><circle cx="502.7" cy="155.7" r="3" fill="#8a5a5a"/><circle cx="508.4" cy="155.7" r="3" fill="#8a5a5a"/><circle cx="514.2" cy="155.7" r="3" fill="#8a5a5a"/><circle cx="520.0" cy="167.6" r="3" fill="#8a5a5a"/><circle cx="525.7" cy="167.6" r="3" fill="#8a5a5a"/><circle cx="531.5" cy="170.3" r="3" fill="#8a5a5a"/><circle cx="537.2" cy="170.3" r="3" fill="#8a5a5a"/><circle cx="543.0" cy="170.5" r="3" fill="#8a5a5a"/><circle cx="548.8" cy="170.7" r="3" fill="#8a5a5a"/><circle cx="554.5" cy="170.7" r="3" fill="#8a5a5a"/><circle cx="560.3" cy="170.9" r="3" fill="#8a5a5a"/><circle cx="566.1" cy="172.7" r="3" fill="#8a5a5a"/><circle cx="571.8" cy="180.6" r="3" fill="#8a5a5a"/><circle cx="577.6" cy="181.8" r="3" fill="#8a5a5a"/><circle cx="583.3" cy="189.1" r="3" fill="#8a5a5a"/><circle cx="589.1" cy="190.5" r="3" fill="#8a5a5a"/><circle cx="594.9" cy="195.2" r="3" fill="#8a5a5a"/><circle cx="600.6" cy="198.0" r="3" fill="#8a5a5a"/><circle cx="606.4" cy="198.0" r="3" fill="#8a5a5a"/><circle cx="612.1" cy="198.0" r="3" fill="#8a5a5a"/><circle cx="617.9" cy="198.0" r="3" fill="#8a5a5a"/><circle cx="623.7" cy="198.0" r="3" fill="#8a5a5a"/><circle cx="629.4" cy="198.0" r="3" fill="#8a5a5a"/><circle cx="635.2" cy="198.0" r="3" fill="#8a5a5a"/><circle cx="641.0" cy="198.0" r="3" fill="#8a5a5a"/><circle cx="646.7" cy="198.0" r="3" fill="#8a5a5a"/><circle cx="652.5" cy="198.0" r="3" fill="#8a5a5a"/><circle cx="658.2" cy="198.0" r="3" fill="#8a5a5a"/><circle cx="664.0" cy="198.0" r="3" fill="#8a5a5a"/>
<polyline fill="none" stroke="#3fb950" stroke-width="2.5" stroke-linejoin="round" points="36.0,198.0 41.8,198.0 47.5,198.0 53.3,198.0 59.0,198.0 64.8,198.0 70.6,198.0 76.3,198.0 82.1,198.0 87.9,198.0 93.6,198.0 99.4,198.0 105.1,198.0 110.9,198.0 116.7,198.0 122.4,198.0 128.2,198.0 133.9,198.0 139.7,198.0 145.5,198.0 151.2,198.0 157.0,198.0 162.8,198.0 168.5,198.0 174.3,198.0 180.0,198.0 185.8,198.0 191.6,198.0 197.3,198.0 203.1,198.0 208.8,198.0 214.6,198.0 220.4,198.0 226.1,198.0 231.9,198.0 237.7,198.0 243.4,198.0 249.2,198.0 254.9,198.0 260.7,198.0 266.5,198.0 272.2,198.0 278.0,198.0 283.7,191.7 289.5,191.7 295.3,191.7 301.0,191.7 306.8,191.7 312.6,191.7 318.3,191.7 324.1,192.9 329.8,192.9 335.6,190.7 341.4,190.7 347.1,190.7 352.9,190.7 358.6,190.7 364.4,190.5 370.2,190.5 375.9,190.5 381.7,190.3 387.4,190.3 393.2,190.3 399.0,190.3 404.7,190.3 410.5,190.3 416.3,190.3 422.0,190.3 427.8,190.3 433.5,190.3 439.3,190.3 445.1,190.3 450.8,190.3 456.6,190.3 462.3,190.3 468.1,190.3 473.9,190.3 479.6,190.3 485.4,190.3 491.2,190.3 496.9,190.3 502.7,189.3 508.4,189.3 514.2,189.3 520.0,190.7 525.7,190.7 531.5,190.7 537.2,190.7 543.0,190.7 548.8,190.7 554.5,190.7 560.3,190.7 566.1,190.7 571.8,190.9 577.6,190.9 583.3,190.9 589.1,194.2 594.9,196.8 600.6,198.0 606.4,198.0 612.1,198.0 617.9,198.0 623.7,198.0 629.4,198.0 635.2,198.0 641.0,198.0 646.7,198.0 652.5,198.0 658.2,198.0 664.0,198.0"/><circle cx="36.0" cy="198.0" r="3" fill="#3fb950"/><circle cx="41.8" cy="198.0" r="3" fill="#3fb950"/><circle cx="47.5" cy="198.0" r="3" fill="#3fb950"/><circle cx="53.3" cy="198.0" r="3" fill="#3fb950"/><circle cx="59.0" cy="198.0" r="3" fill="#3fb950"/><circle cx="64.8" cy="198.0" r="3" fill="#3fb950"/><circle cx="70.6" cy="198.0" r="3" fill="#3fb950"/><circle cx="76.3" cy="198.0" r="3" fill="#3fb950"/><circle cx="82.1" cy="198.0" r="3" fill="#3fb950"/><circle cx="87.9" cy="198.0" r="3" fill="#3fb950"/><circle cx="93.6" cy="198.0" r="3" fill="#3fb950"/><circle cx="99.4" cy="198.0" r="3" fill="#3fb950"/><circle cx="105.1" cy="198.0" r="3" fill="#3fb950"/><circle cx="110.9" cy="198.0" r="3" fill="#3fb950"/><circle cx="116.7" cy="198.0" r="3" fill="#3fb950"/><circle cx="122.4" cy="198.0" r="3" fill="#3fb950"/><circle cx="128.2" cy="198.0" r="3" fill="#3fb950"/><circle cx="133.9" cy="198.0" r="3" fill="#3fb950"/><circle cx="139.7" cy="198.0" r="3" fill="#3fb950"/><circle cx="145.5" cy="198.0" r="3" fill="#3fb950"/><circle cx="151.2" cy="198.0" r="3" fill="#3fb950"/><circle cx="157.0" cy="198.0" r="3" fill="#3fb950"/><circle cx="162.8" cy="198.0" r="3" fill="#3fb950"/><circle cx="168.5" cy="198.0" r="3" fill="#3fb950"/><circle cx="174.3" cy="198.0" r="3" fill="#3fb950"/><circle cx="180.0" cy="198.0" r="3" fill="#3fb950"/><circle cx="185.8" cy="198.0" r="3" fill="#3fb950"/><circle cx="191.6" cy="198.0" r="3" fill="#3fb950"/><circle cx="197.3" cy="198.0" r="3" fill="#3fb950"/><circle cx="203.1" cy="198.0" r="3" fill="#3fb950"/><circle cx="208.8" cy="198.0" r="3" fill="#3fb950"/><circle cx="214.6" cy="198.0" r="3" fill="#3fb950"/><circle cx="220.4" cy="198.0" r="3" fill="#3fb950"/><circle cx="226.1" cy="198.0" r="3" fill="#3fb950"/><circle cx="231.9" cy="198.0" r="3" fill="#3fb950"/><circle cx="237.7" cy="198.0" r="3" fill="#3fb950"/><circle cx="243.4" cy="198.0" r="3" fill="#3fb950"/><circle cx="249.2" cy="198.0" r="3" fill="#3fb950"/><circle cx="254.9" cy="198.0" r="3" fill="#3fb950"/><circle cx="260.7" cy="198.0" r="3" fill="#3fb950"/><circle cx="266.5" cy="198.0" r="3" fill="#3fb950"/><circle cx="272.2" cy="198.0" r="3" fill="#3fb950"/><circle cx="278.0" cy="198.0" r="3" fill="#3fb950"/><circle cx="283.7" cy="191.7" r="3" fill="#3fb950"/><circle cx="289.5" cy="191.7" r="3" fill="#3fb950"/><circle cx="295.3" cy="191.7" r="3" fill="#3fb950"/><circle cx="301.0" cy="191.7" r="3" fill="#3fb950"/><circle cx="306.8" cy="191.7" r="3" fill="#3fb950"/><circle cx="312.6" cy="191.7" r="3" fill="#3fb950"/><circle cx="318.3" cy="191.7" r="3" fill="#3fb950"/><circle cx="324.1" cy="192.9" r="3" fill="#3fb950"/><circle cx="329.8" cy="192.9" r="3" fill="#3fb950"/><circle cx="335.6" cy="190.7" r="3" fill="#3fb950"/><circle cx="341.4" cy="190.7" r="3" fill="#3fb950"/><circle cx="347.1" cy="190.7" r="3" fill="#3fb950"/><circle cx="352.9" cy="190.7" r="3" fill="#3fb950"/><circle cx="358.6" cy="190.7" r="3" fill="#3fb950"/><circle cx="364.4" cy="190.5" r="3" fill="#3fb950"/><circle cx="370.2" cy="190.5" r="3" fill="#3fb950"/><circle cx="375.9" cy="190.5" r="3" fill="#3fb950"/><circle cx="381.7" cy="190.3" r="3" fill="#3fb950"/><circle cx="387.4" cy="190.3" r="3" fill="#3fb950"/><circle cx="393.2" cy="190.3" r="3" fill="#3fb950"/><circle cx="399.0" cy="190.3" r="3" fill="#3fb950"/><circle cx="404.7" cy="190.3" r="3" fill="#3fb950"/><circle cx="410.5" cy="190.3" r="3" fill="#3fb950"/><circle cx="416.3" cy="190.3" r="3" fill="#3fb950"/><circle cx="422.0" cy="190.3" r="3" fill="#3fb950"/><circle cx="427.8" cy="190.3" r="3" fill="#3fb950"/><circle cx="433.5" cy="190.3" r="3" fill="#3fb950"/><circle cx="439.3" cy="190.3" r="3" fill="#3fb950"/><circle cx="445.1" cy="190.3" r="3" fill="#3fb950"/><circle cx="450.8" cy="190.3" r="3" fill="#3fb950"/><circle cx="456.6" cy="190.3" r="3" fill="#3fb950"/><circle cx="462.3" cy="190.3" r="3" fill="#3fb950"/><circle cx="468.1" cy="190.3" r="3" fill="#3fb950"/><circle cx="473.9" cy="190.3" r="3" fill="#3fb950"/><circle cx="479.6" cy="190.3" r="3" fill="#3fb950"/><circle cx="485.4" cy="190.3" r="3" fill="#3fb950"/><circle cx="491.2" cy="190.3" r="3" fill="#3fb950"/><circle cx="496.9" cy="190.3" r="3" fill="#3fb950"/><circle cx="502.7" cy="189.3" r="3" fill="#3fb950"/><circle cx="508.4" cy="189.3" r="3" fill="#3fb950"/><circle cx="514.2" cy="189.3" r="3" fill="#3fb950"/><circle cx="520.0" cy="190.7" r="3" fill="#3fb950"/><circle cx="525.7" cy="190.7" r="3" fill="#3fb950"/><circle cx="531.5" cy="190.7" r="3" fill="#3fb950"/><circle cx="537.2" cy="190.7" r="3" fill="#3fb950"/><circle cx="543.0" cy="190.7" r="3" fill="#3fb950"/><circle cx="548.8" cy="190.7" r="3" fill="#3fb950"/><circle cx="554.5" cy="190.7" r="3" fill="#3fb950"/><circle cx="560.3" cy="190.7" r="3" fill="#3fb950"/><circle cx="566.1" cy="190.7" r="3" fill="#3fb950"/><circle cx="571.8" cy="190.9" r="3" fill="#3fb950"/><circle cx="577.6" cy="190.9" r="3" fill="#3fb950"/><circle cx="583.3" cy="190.9" r="3" fill="#3fb950"/><circle cx="589.1" cy="194.2" r="3" fill="#3fb950"/><circle cx="594.9" cy="196.8" r="3" fill="#3fb950"/><circle cx="600.6" cy="198.0" r="3" fill="#3fb950"/><circle cx="606.4" cy="198.0" r="3" fill="#3fb950"/><circle cx="612.1" cy="198.0" r="3" fill="#3fb950"/><circle cx="617.9" cy="198.0" r="3" fill="#3fb950"/><circle cx="623.7" cy="198.0" r="3" fill="#3fb950"/><circle cx="629.4" cy="198.0" r="3" fill="#3fb950"/><circle cx="635.2" cy="198.0" r="3" fill="#3fb950"/><circle cx="641.0" cy="198.0" r="3" fill="#3fb950"/><circle cx="646.7" cy="198.0" r="3" fill="#3fb950"/><circle cx="652.5" cy="198.0" r="3" fill="#3fb950"/><circle cx="658.2" cy="198.0" r="3" fill="#3fb950"/><circle cx="664.0" cy="198.0" r="3" fill="#3fb950"/>
<polyline fill="none" stroke="#4aa3ff" stroke-width="2.5" stroke-linejoin="round" points="36.0,144.3 41.8,144.3 47.5,144.3 53.3,144.3 59.0,144.3 64.8,144.3 70.6,144.3 76.3,144.3 82.1,144.3 87.9,144.3 93.6,144.3 99.4,144.3 105.1,144.3 110.9,144.3 116.7,144.3 122.4,136.2 128.2,132.4 133.9,129.6 139.7,129.6 145.5,121.0 151.2,121.0 157.0,121.0 162.8,114.4 168.5,114.4 174.3,114.4 180.0,111.3 185.8,110.9 191.6,110.9 197.3,110.5 203.1,110.5 208.8,109.9 214.6,108.7 220.4,107.3 226.1,106.9 231.9,106.9 237.7,106.9 243.4,106.9 249.2,106.9 254.9,106.9 260.7,106.9 266.5,106.9 272.2,106.9 278.0,106.9 283.7,113.2 289.5,113.2 295.3,113.2 301.0,113.2 306.8,113.2 312.6,110.7 318.3,105.3 324.1,83.4 329.8,83.4 335.6,85.6 341.4,85.6 347.1,85.6 352.9,85.6 358.6,85.6 364.4,85.8 370.2,85.8 375.9,85.8 381.7,86.0 387.4,86.0 393.2,86.0 399.0,86.0 404.7,86.0 410.5,86.0 416.3,86.0 422.0,86.0 427.8,86.0 433.5,86.0 439.3,86.0 445.1,86.0 450.8,86.0 456.6,86.0 462.3,86.0 468.1,86.0 473.9,86.0 479.6,86.0 485.4,86.0 491.2,86.0 496.9,86.0 502.7,87.0 508.4,87.0 514.2,87.0 520.0,73.7 525.7,73.7 531.5,71.0 537.2,71.0 543.0,70.8 548.8,70.6 554.5,70.6 560.3,70.4 566.1,68.6 571.8,60.5 577.6,59.3 583.3,52.0 589.1,47.3 594.9,40.1 600.6,36.0 606.4,36.0 612.1,36.0 617.9,36.0 623.7,36.0 629.4,36.0 635.2,36.0 641.0,36.0 646.7,36.0 652.5,36.0 658.2,36.0 664.0,36.0"/><circle cx="36.0" cy="144.3" r="3" fill="#4aa3ff"/><circle cx="41.8" cy="144.3" r="3" fill="#4aa3ff"/><circle cx="47.5" cy="144.3" r="3" fill="#4aa3ff"/><circle cx="53.3" cy="144.3" r="3" fill="#4aa3ff"/><circle cx="59.0" cy="144.3" r="3" fill="#4aa3ff"/><circle cx="64.8" cy="144.3" r="3" fill="#4aa3ff"/><circle cx="70.6" cy="144.3" r="3" fill="#4aa3ff"/><circle cx="76.3" cy="144.3" r="3" fill="#4aa3ff"/><circle cx="82.1" cy="144.3" r="3" fill="#4aa3ff"/><circle cx="87.9" cy="144.3" r="3" fill="#4aa3ff"/><circle cx="93.6" cy="144.3" r="3" fill="#4aa3ff"/><circle cx="99.4" cy="144.3" r="3" fill="#4aa3ff"/><circle cx="105.1" cy="144.3" r="3" fill="#4aa3ff"/><circle cx="110.9" cy="144.3" r="3" fill="#4aa3ff"/><circle cx="116.7" cy="144.3" r="3" fill="#4aa3ff"/><circle cx="122.4" cy="136.2" r="3" fill="#4aa3ff"/><circle cx="128.2" cy="132.4" r="3" fill="#4aa3ff"/><circle cx="133.9" cy="129.6" r="3" fill="#4aa3ff"/><circle cx="139.7" cy="129.6" r="3" fill="#4aa3ff"/><circle cx="145.5" cy="121.0" r="3" fill="#4aa3ff"/><circle cx="151.2" cy="121.0" r="3" fill="#4aa3ff"/><circle cx="157.0" cy="121.0" r="3" fill="#4aa3ff"/><circle cx="162.8" cy="114.4" r="3" fill="#4aa3ff"/><circle cx="168.5" cy="114.4" r="3" fill="#4aa3ff"/><circle cx="174.3" cy="114.4" r="3" fill="#4aa3ff"/><circle cx="180.0" cy="111.3" r="3" fill="#4aa3ff"/><circle cx="185.8" cy="110.9" r="3" fill="#4aa3ff"/><circle cx="191.6" cy="110.9" r="3" fill="#4aa3ff"/><circle cx="197.3" cy="110.5" r="3" fill="#4aa3ff"/><circle cx="203.1" cy="110.5" r="3" fill="#4aa3ff"/><circle cx="208.8" cy="109.9" r="3" fill="#4aa3ff"/><circle cx="214.6" cy="108.7" r="3" fill="#4aa3ff"/><circle cx="220.4" cy="107.3" r="3" fill="#4aa3ff"/><circle cx="226.1" cy="106.9" r="3" fill="#4aa3ff"/><circle cx="231.9" cy="106.9" r="3" fill="#4aa3ff"/><circle cx="237.7" cy="106.9" r="3" fill="#4aa3ff"/><circle cx="243.4" cy="106.9" r="3" fill="#4aa3ff"/><circle cx="249.2" cy="106.9" r="3" fill="#4aa3ff"/><circle cx="254.9" cy="106.9" r="3" fill="#4aa3ff"/><circle cx="260.7" cy="106.9" r="3" fill="#4aa3ff"/><circle cx="266.5" cy="106.9" r="3" fill="#4aa3ff"/><circle cx="272.2" cy="106.9" r="3" fill="#4aa3ff"/><circle cx="278.0" cy="106.9" r="3" fill="#4aa3ff"/><circle cx="283.7" cy="113.2" r="3" fill="#4aa3ff"/><circle cx="289.5" cy="113.2" r="3" fill="#4aa3ff"/><circle cx="295.3" cy="113.2" r="3" fill="#4aa3ff"/><circle cx="301.0" cy="113.2" r="3" fill="#4aa3ff"/><circle cx="306.8" cy="113.2" r="3" fill="#4aa3ff"/><circle cx="312.6" cy="110.7" r="3" fill="#4aa3ff"/><circle cx="318.3" cy="105.3" r="3" fill="#4aa3ff"/><circle cx="324.1" cy="83.4" r="3" fill="#4aa3ff"/><circle cx="329.8" cy="83.4" r="3" fill="#4aa3ff"/><circle cx="335.6" cy="85.6" r="3" fill="#4aa3ff"/><circle cx="341.4" cy="85.6" r="3" fill="#4aa3ff"/><circle cx="347.1" cy="85.6" r="3" fill="#4aa3ff"/><circle cx="352.9" cy="85.6" r="3" fill="#4aa3ff"/><circle cx="358.6" cy="85.6" r="3" fill="#4aa3ff"/><circle cx="364.4" cy="85.8" r="3" fill="#4aa3ff"/><circle cx="370.2" cy="85.8" r="3" fill="#4aa3ff"/><circle cx="375.9" cy="85.8" r="3" fill="#4aa3ff"/><circle cx="381.7" cy="86.0" r="3" fill="#4aa3ff"/><circle cx="387.4" cy="86.0" r="3" fill="#4aa3ff"/><circle cx="393.2" cy="86.0" r="3" fill="#4aa3ff"/><circle cx="399.0" cy="86.0" r="3" fill="#4aa3ff"/><circle cx="404.7" cy="86.0" r="3" fill="#4aa3ff"/><circle cx="410.5" cy="86.0" r="3" fill="#4aa3ff"/><circle cx="416.3" cy="86.0" r="3" fill="#4aa3ff"/><circle cx="422.0" cy="86.0" r="3" fill="#4aa3ff"/><circle cx="427.8" cy="86.0" r="3" fill="#4aa3ff"/><circle cx="433.5" cy="86.0" r="3" fill="#4aa3ff"/><circle cx="439.3" cy="86.0" r="3" fill="#4aa3ff"/><circle cx="445.1" cy="86.0" r="3" fill="#4aa3ff"/><circle cx="450.8" cy="86.0" r="3" fill="#4aa3ff"/><circle cx="456.6" cy="86.0" r="3" fill="#4aa3ff"/><circle cx="462.3" cy="86.0" r="3" fill="#4aa3ff"/><circle cx="468.1" cy="86.0" r="3" fill="#4aa3ff"/><circle cx="473.9" cy="86.0" r="3" fill="#4aa3ff"/><circle cx="479.6" cy="86.0" r="3" fill="#4aa3ff"/><circle cx="485.4" cy="86.0" r="3" fill="#4aa3ff"/><circle cx="491.2" cy="86.0" r="3" fill="#4aa3ff"/><circle cx="496.9" cy="86.0" r="3" fill="#4aa3ff"/><circle cx="502.7" cy="87.0" r="3" fill="#4aa3ff"/><circle cx="508.4" cy="87.0" r="3" fill="#4aa3ff"/><circle cx="514.2" cy="87.0" r="3" fill="#4aa3ff"/><circle cx="520.0" cy="73.7" r="3" fill="#4aa3ff"/><circle cx="525.7" cy="73.7" r="3" fill="#4aa3ff"/><circle cx="531.5" cy="71.0" r="3" fill="#4aa3ff"/><circle cx="537.2" cy="71.0" r="3" fill="#4aa3ff"/><circle cx="543.0" cy="70.8" r="3" fill="#4aa3ff"/><circle cx="548.8" cy="70.6" r="3" fill="#4aa3ff"/><circle cx="554.5" cy="70.6" r="3" fill="#4aa3ff"/><circle cx="560.3" cy="70.4" r="3" fill="#4aa3ff"/><circle cx="566.1" cy="68.6" r="3" fill="#4aa3ff"/><circle cx="571.8" cy="60.5" r="3" fill="#4aa3ff"/><circle cx="577.6" cy="59.3" r="3" fill="#4aa3ff"/><circle cx="583.3" cy="52.0" r="3" fill="#4aa3ff"/><circle cx="589.1" cy="47.3" r="3" fill="#4aa3ff"/><circle cx="594.9" cy="40.1" r="3" fill="#4aa3ff"/><circle cx="600.6" cy="36.0" r="3" fill="#4aa3ff"/><circle cx="606.4" cy="36.0" r="3" fill="#4aa3ff"/><circle cx="612.1" cy="36.0" r="3" fill="#4aa3ff"/><circle cx="617.9" cy="36.0" r="3" fill="#4aa3ff"/><circle cx="623.7" cy="36.0" r="3" fill="#4aa3ff"/><circle cx="629.4" cy="36.0" r="3" fill="#4aa3ff"/><circle cx="635.2" cy="36.0" r="3" fill="#4aa3ff"/><circle cx="641.0" cy="36.0" r="3" fill="#4aa3ff"/><circle cx="646.7" cy="36.0" r="3" fill="#4aa3ff"/><circle cx="652.5" cy="36.0" r="3" fill="#4aa3ff"/><circle cx="658.2" cy="36.0" r="3" fill="#4aa3ff"/><circle cx="664.0" cy="36.0" r="3" fill="#4aa3ff"/>
<text x="36" y="225" fill="#6b7280" font-size="11">2026-06-26</text>
<text x="664" y="225" fill="#6b7280" font-size="11" text-anchor="end">2026-07-08</text>
<text x="36" y="212" font-family="system-ui,sans-serif" font-size="11">
<tspan fill="#4aa3ff">&#9679; open FPs</tspan>  <tspan fill="#3fb950">&#9679; closed (Anthropic acting)</tspan>  <tspan fill="#8a5a5a">&#9679; harness withdrawn</tspan></text>
<text x="664" y="22" text-anchor="end" font-family="system-ui,sans-serif" font-size="12">
<tspan fill="#4aa3ff">open 800</tspan>  <tspan fill="#3fb950">closed 0</tspan>  <tspan fill="#8a5a5a">harness 0</tspan></text>
</svg>