<svg xmlns="http://www.w3.org/2000/svg" width="700" height="234" viewBox="0 0 700 234" role="img">
<rect width="700" height="234" rx="12" fill="#16181d"/>
<text x="36" y="22" fill="#e8eaed" font-family="system-ui,sans-serif" font-size="14" font-weight="700">Is Anthropic acting? cyber/aup false positives over time</text>
<line x1="36" y1="198.0" x2="664" y2="198.0" stroke="#2a2e37" stroke-width="1"/><text x="30" y="202.0" fill="#6b7280" font-size="11" text-anchor="end">0</text><line x1="36" y1="117.0" x2="664" y2="117.0" stroke="#2a2e37" stroke-width="1"/><text x="30" y="121.0" fill="#6b7280" font-size="11" text-anchor="end">283</text><line x1="36" y1="36.0" x2="664" y2="36.0" stroke="#2a2e37" stroke-width="1"/><text x="30" y="40.0" fill="#6b7280" font-size="11" text-anchor="end">566</text>

<polyline fill="none" stroke="#8a5a5a" stroke-width="2.5" stroke-linejoin="round" points="36.0,123.3 45.4,123.3 54.7,123.3 64.1,123.3 73.5,123.3 82.9,123.3 92.2,123.3 101.6,123.3 111.0,123.3 120.4,123.3 129.7,123.3 139.1,123.3 148.5,123.3 157.9,123.3 167.2,123.3 176.6,123.3 186.0,123.3 195.3,123.3 204.7,123.3 214.1,123.3 223.5,123.3 232.8,123.3 242.2,123.3 251.6,123.3 261.0,123.3 270.3,123.3 279.7,123.3 289.1,123.3 298.4,123.3 307.8,123.3 317.2,123.3 326.6,123.3 335.9,123.3 345.3,123.3 354.7,123.3 364.1,123.3 373.4,123.3 382.8,123.3 392.2,123.3 401.6,123.3 410.9,123.3 420.3,123.3 429.7,123.3 439.0,123.3 448.4,123.3 457.8,123.3 467.2,123.3 476.5,123.3 485.9,123.3 495.3,123.3 504.7,138.2 514.0,138.2 523.4,138.2 532.8,138.2 542.1,138.2 551.5,138.2 560.9,138.2 570.3,138.2 579.6,138.2 589.0,138.2 598.4,138.2 607.8,138.2 617.1,138.2 626.5,138.2 635.9,138.2 645.3,138.2 654.6,138.2 664.0,138.2"/><circle cx="36.0" cy="123.3" r="3" fill="#8a5a5a"/><circle cx="45.4" cy="123.3" r="3" fill="#8a5a5a"/><circle cx="54.7" cy="123.3" r="3" fill="#8a5a5a"/><circle cx="64.1" cy="123.3" r="3" fill="#8a5a5a"/><circle cx="73.5" cy="123.3" r="3" fill="#8a5a5a"/><circle cx="82.9" cy="123.3" r="3" fill="#8a5a5a"/><circle cx="92.2" cy="123.3" r="3" fill="#8a5a5a"/><circle cx="101.6" cy="123.3" r="3" fill="#8a5a5a"/><circle cx="111.0" cy="123.3" r="3" fill="#8a5a5a"/><circle cx="120.4" cy="123.3" r="3" fill="#8a5a5a"/><circle cx="129.7" cy="123.3" r="3" fill="#8a5a5a"/><circle cx="139.1" cy="123.3" r="3" fill="#8a5a5a"/><circle cx="148.5" cy="123.3" r="3" fill="#8a5a5a"/><circle cx="157.9" cy="123.3" r="3" fill="#8a5a5a"/><circle cx="167.2" cy="123.3" r="3" fill="#8a5a5a"/><circle cx="176.6" cy="123.3" r="3" fill="#8a5a5a"/><circle cx="186.0" cy="123.3" r="3" fill="#8a5a5a"/><circle cx="195.3" cy="123.3" r="3" fill="#8a5a5a"/><circle cx="204.7" cy="123.3" r="3" fill="#8a5a5a"/><circle cx="214.1" cy="123.3" r="3" fill="#8a5a5a"/><circle cx="223.5" cy="123.3" r="3" fill="#8a5a5a"/><circle cx="232.8" cy="123.3" r="3" fill="#8a5a5a"/><circle cx="242.2" cy="123.3" r="3" fill="#8a5a5a"/><circle cx="251.6" cy="123.3" r="3" fill="#8a5a5a"/><circle cx="261.0" cy="123.3" r="3" fill="#8a5a5a"/><circle cx="270.3" cy="123.3" r="3" fill="#8a5a5a"/><circle cx="279.7" cy="123.3" r="3" fill="#8a5a5a"/><circle cx="289.1" cy="123.3" r="3" fill="#8a5a5a"/><circle cx="298.4" cy="123.3" r="3" fill="#8a5a5a"/><circle cx="307.8" cy="123.3" r="3" fill="#8a5a5a"/><circle cx="317.2" cy="123.3" r="3" fill="#8a5a5a"/><circle cx="326.6" cy="123.3" r="3" fill="#8a5a5a"/><circle cx="335.9" cy="123.3" r="3" fill="#8a5a5a"/><circle cx="345.3" cy="123.3" r="3" fill="#8a5a5a"/><circle cx="354.7" cy="123.3" r="3" fill="#8a5a5a"/><circle cx="364.1" cy="123.3" r="3" fill="#8a5a5a"/><circle cx="373.4" cy="123.3" r="3" fill="#8a5a5a"/><circle cx="382.8" cy="123.3" r="3" fill="#8a5a5a"/><circle cx="392.2" cy="123.3" r="3" fill="#8a5a5a"/><circle cx="401.6" cy="123.3" r="3" fill="#8a5a5a"/><circle cx="410.9" cy="123.3" r="3" fill="#8a5a5a"/><circle cx="420.3" cy="123.3" r="3" fill="#8a5a5a"/><circle cx="429.7" cy="123.3" r="3" fill="#8a5a5a"/><circle cx="439.0" cy="123.3" r="3" fill="#8a5a5a"/><circle cx="448.4" cy="123.3" r="3" fill="#8a5a5a"/><circle cx="457.8" cy="123.3" r="3" fill="#8a5a5a"/><circle cx="467.2" cy="123.3" r="3" fill="#8a5a5a"/><circle cx="476.5" cy="123.3" r="3" fill="#8a5a5a"/><circle cx="485.9" cy="123.3" r="3" fill="#8a5a5a"/><circle cx="495.3" cy="123.3" r="3" fill="#8a5a5a"/><circle cx="504.7" cy="138.2" r="3" fill="#8a5a5a"/><circle cx="514.0" cy="138.2" r="3" fill="#8a5a5a"/><circle cx="523.4" cy="138.2" r="3" fill="#8a5a5a"/><circle cx="532.8" cy="138.2" r="3" fill="#8a5a5a"/><circle cx="542.1" cy="138.2" r="3" fill="#8a5a5a"/><circle cx="551.5" cy="138.2" r="3" fill="#8a5a5a"/><circle cx="560.9" cy="138.2" r="3" fill="#8a5a5a"/><circle cx="570.3" cy="138.2" r="3" fill="#8a5a5a"/><circle cx="579.6" cy="138.2" r="3" fill="#8a5a5a"/><circle cx="589.0" cy="138.2" r="3" fill="#8a5a5a"/><circle cx="598.4" cy="138.2" r="3" fill="#8a5a5a"/><circle cx="607.8" cy="138.2" r="3" fill="#8a5a5a"/><circle cx="617.1" cy="138.2" r="3" fill="#8a5a5a"/><circle cx="626.5" cy="138.2" r="3" fill="#8a5a5a"/><circle cx="635.9" cy="138.2" r="3" fill="#8a5a5a"/><circle cx="645.3" cy="138.2" r="3" fill="#8a5a5a"/><circle cx="654.6" cy="138.2" r="3" fill="#8a5a5a"/><circle cx="664.0" cy="138.2" r="3" fill="#8a5a5a"/>
<polyline fill="none" stroke="#3fb950" stroke-width="2.5" stroke-linejoin="round" points="36.0,198.0 45.4,198.0 54.7,198.0 64.1,198.0 73.5,198.0 82.9,198.0 92.2,198.0 101.6,198.0 111.0,198.0 120.4,198.0 129.7,198.0 139.1,198.0 148.5,198.0 157.9,198.0 167.2,198.0 176.6,198.0 186.0,198.0 195.3,198.0 204.7,198.0 214.1,198.0 223.5,198.0 232.8,198.0 242.2,198.0 251.6,198.0 261.0,198.0 270.3,198.0 279.7,198.0 289.1,198.0 298.4,198.0 307.8,198.0 317.2,198.0 326.6,198.0 335.9,198.0 345.3,198.0 354.7,198.0 364.1,198.0 373.4,198.0 382.8,198.0 392.2,198.0 401.6,198.0 410.9,198.0 420.3,198.0 429.7,198.0 439.0,189.1 448.4,189.1 457.8,189.1 467.2,189.1 476.5,189.1 485.9,189.1 495.3,189.1 504.7,190.8 514.0,190.8 523.4,187.7 532.8,187.7 542.1,187.7 551.5,187.7 560.9,187.7 570.3,187.4 579.6,187.4 589.0,187.4 598.4,187.1 607.8,187.1 617.1,187.1 626.5,187.1 635.9,187.1 645.3,187.1 654.6,187.1 664.0,187.1"/><circle cx="36.0" cy="198.0" r="3" fill="#3fb950"/><circle cx="45.4" cy="198.0" r="3" fill="#3fb950"/><circle cx="54.7" cy="198.0" r="3" fill="#3fb950"/><circle cx="64.1" cy="198.0" r="3" fill="#3fb950"/><circle cx="73.5" cy="198.0" r="3" fill="#3fb950"/><circle cx="82.9" cy="198.0" r="3" fill="#3fb950"/><circle cx="92.2" cy="198.0" r="3" fill="#3fb950"/><circle cx="101.6" cy="198.0" r="3" fill="#3fb950"/><circle cx="111.0" cy="198.0" r="3" fill="#3fb950"/><circle cx="120.4" cy="198.0" r="3" fill="#3fb950"/><circle cx="129.7" cy="198.0" r="3" fill="#3fb950"/><circle cx="139.1" cy="198.0" r="3" fill="#3fb950"/><circle cx="148.5" cy="198.0" r="3" fill="#3fb950"/><circle cx="157.9" cy="198.0" r="3" fill="#3fb950"/><circle cx="167.2" cy="198.0" r="3" fill="#3fb950"/><circle cx="176.6" cy="198.0" r="3" fill="#3fb950"/><circle cx="186.0" cy="198.0" r="3" fill="#3fb950"/><circle cx="195.3" cy="198.0" r="3" fill="#3fb950"/><circle cx="204.7" cy="198.0" r="3" fill="#3fb950"/><circle cx="214.1" cy="198.0" r="3" fill="#3fb950"/><circle cx="223.5" cy="198.0" r="3" fill="#3fb950"/><circle cx="232.8" cy="198.0" r="3" fill="#3fb950"/><circle cx="242.2" cy="198.0" r="3" fill="#3fb950"/><circle cx="251.6" cy="198.0" r="3" fill="#3fb950"/><circle cx="261.0" cy="198.0" r="3" fill="#3fb950"/><circle cx="270.3" cy="198.0" r="3" fill="#3fb950"/><circle cx="279.7" cy="198.0" r="3" fill="#3fb950"/><circle cx="289.1" cy="198.0" r="3" fill="#3fb950"/><circle cx="298.4" cy="198.0" r="3" fill="#3fb950"/><circle cx="307.8" cy="198.0" r="3" fill="#3fb950"/><circle cx="317.2" cy="198.0" r="3" fill="#3fb950"/><circle cx="326.6" cy="198.0" r="3" fill="#3fb950"/><circle cx="335.9" cy="198.0" r="3" fill="#3fb950"/><circle cx="345.3" cy="198.0" r="3" fill="#3fb950"/><circle cx="354.7" cy="198.0" r="3" fill="#3fb950"/><circle cx="364.1" cy="198.0" r="3" fill="#3fb950"/><circle cx="373.4" cy="198.0" r="3" fill="#3fb950"/><circle cx="382.8" cy="198.0" r="3" fill="#3fb950"/><circle cx="392.2" cy="198.0" r="3" fill="#3fb950"/><circle cx="401.6" cy="198.0" r="3" fill="#3fb950"/><circle cx="410.9" cy="198.0" r="3" fill="#3fb950"/><circle cx="420.3" cy="198.0" r="3" fill="#3fb950"/><circle cx="429.7" cy="198.0" r="3" fill="#3fb950"/><circle cx="439.0" cy="189.1" r="3" fill="#3fb950"/><circle cx="448.4" cy="189.1" r="3" fill="#3fb950"/><circle cx="457.8" cy="189.1" r="3" fill="#3fb950"/><circle cx="467.2" cy="189.1" r="3" fill="#3fb950"/><circle cx="476.5" cy="189.1" r="3" fill="#3fb950"/><circle cx="485.9" cy="189.1" r="3" fill="#3fb950"/><circle cx="495.3" cy="189.1" r="3" fill="#3fb950"/><circle cx="504.7" cy="190.8" r="3" fill="#3fb950"/><circle cx="514.0" cy="190.8" r="3" fill="#3fb950"/><circle cx="523.4" cy="187.7" r="3" fill="#3fb950"/><circle cx="532.8" cy="187.7" r="3" fill="#3fb950"/><circle cx="542.1" cy="187.7" r="3" fill="#3fb950"/><circle cx="551.5" cy="187.7" r="3" fill="#3fb950"/><circle cx="560.9" cy="187.7" r="3" fill="#3fb950"/><circle cx="570.3" cy="187.4" r="3" fill="#3fb950"/><circle cx="579.6" cy="187.4" r="3" fill="#3fb950"/><circle cx="589.0" cy="187.4" r="3" fill="#3fb950"/><circle cx="598.4" cy="187.1" r="3" fill="#3fb950"/><circle cx="607.8" cy="187.1" r="3" fill="#3fb950"/><circle cx="617.1" cy="187.1" r="3" fill="#3fb950"/><circle cx="626.5" cy="187.1" r="3" fill="#3fb950"/><circle cx="635.9" cy="187.1" r="3" fill="#3fb950"/><circle cx="645.3" cy="187.1" r="3" fill="#3fb950"/><circle cx="654.6" cy="187.1" r="3" fill="#3fb950"/><circle cx="664.0" cy="187.1" r="3" fill="#3fb950"/>
<polyline fill="none" stroke="#4aa3ff" stroke-width="2.5" stroke-linejoin="round" points="36.0,122.2 45.4,122.2 54.7,122.2 64.1,122.2 73.5,122.2 82.9,122.2 92.2,122.2 101.6,122.2 111.0,122.2 120.4,122.2 129.7,122.2 139.1,122.2 148.5,122.2 157.9,122.2 167.2,122.2 176.6,110.7 186.0,105.3 195.3,101.3 204.7,101.3 214.1,89.2 223.5,89.2 232.8,89.2 242.2,79.8 251.6,79.8 261.0,79.8 270.3,75.5 279.7,74.9 289.1,74.9 298.4,74.4 307.8,74.4 317.2,73.5 326.6,71.8 335.9,69.8 345.3,69.2 354.7,69.2 364.1,69.2 373.4,69.2 382.8,69.2 392.2,69.2 401.6,69.2 410.9,69.2 420.3,69.2 429.7,69.2 439.0,78.1 448.4,78.1 457.8,78.1 467.2,78.1 476.5,78.1 485.9,74.6 495.3,66.9 504.7,36.0 514.0,36.0 523.4,39.1 532.8,39.1 542.1,39.1 551.5,39.1 560.9,39.1 570.3,39.4 579.6,39.4 589.0,39.4 598.4,39.7 607.8,39.7 617.1,39.7 626.5,39.7 635.9,39.7 645.3,39.7 654.6,39.7 664.0,39.7"/><circle cx="36.0" cy="122.2" r="3" fill="#4aa3ff"/><circle cx="45.4" cy="122.2" r="3" fill="#4aa3ff"/><circle cx="54.7" cy="122.2" r="3" fill="#4aa3ff"/><circle cx="64.1" cy="122.2" r="3" fill="#4aa3ff"/><circle cx="73.5" cy="122.2" r="3" fill="#4aa3ff"/><circle cx="82.9" cy="122.2" r="3" fill="#4aa3ff"/><circle cx="92.2" cy="122.2" r="3" fill="#4aa3ff"/><circle cx="101.6" cy="122.2" r="3" fill="#4aa3ff"/><circle cx="111.0" cy="122.2" r="3" fill="#4aa3ff"/><circle cx="120.4" cy="122.2" r="3" fill="#4aa3ff"/><circle cx="129.7" cy="122.2" r="3" fill="#4aa3ff"/><circle cx="139.1" cy="122.2" r="3" fill="#4aa3ff"/><circle cx="148.5" cy="122.2" r="3" fill="#4aa3ff"/><circle cx="157.9" cy="122.2" r="3" fill="#4aa3ff"/><circle cx="167.2" cy="122.2" r="3" fill="#4aa3ff"/><circle cx="176.6" cy="110.7" r="3" fill="#4aa3ff"/><circle cx="186.0" cy="105.3" r="3" fill="#4aa3ff"/><circle cx="195.3" cy="101.3" r="3" fill="#4aa3ff"/><circle cx="204.7" cy="101.3" r="3" fill="#4aa3ff"/><circle cx="214.1" cy="89.2" r="3" fill="#4aa3ff"/><circle cx="223.5" cy="89.2" r="3" fill="#4aa3ff"/><circle cx="232.8" cy="89.2" r="3" fill="#4aa3ff"/><circle cx="242.2" cy="79.8" r="3" fill="#4aa3ff"/><circle cx="251.6" cy="79.8" r="3" fill="#4aa3ff"/><circle cx="261.0" cy="79.8" r="3" fill="#4aa3ff"/><circle cx="270.3" cy="75.5" r="3" fill="#4aa3ff"/><circle cx="279.7" cy="74.9" r="3" fill="#4aa3ff"/><circle cx="289.1" cy="74.9" r="3" fill="#4aa3ff"/><circle cx="298.4" cy="74.4" r="3" fill="#4aa3ff"/><circle cx="307.8" cy="74.4" r="3" fill="#4aa3ff"/><circle cx="317.2" cy="73.5" r="3" fill="#4aa3ff"/><circle cx="326.6" cy="71.8" r="3" fill="#4aa3ff"/><circle cx="335.9" cy="69.8" r="3" fill="#4aa3ff"/><circle cx="345.3" cy="69.2" r="3" fill="#4aa3ff"/><circle cx="354.7" cy="69.2" r="3" fill="#4aa3ff"/><circle cx="364.1" cy="69.2" r="3" fill="#4aa3ff"/><circle cx="373.4" cy="69.2" r="3" fill="#4aa3ff"/><circle cx="382.8" cy="69.2" r="3" fill="#4aa3ff"/><circle cx="392.2" cy="69.2" r="3" fill="#4aa3ff"/><circle cx="401.6" cy="69.2" r="3" fill="#4aa3ff"/><circle cx="410.9" cy="69.2" r="3" fill="#4aa3ff"/><circle cx="420.3" cy="69.2" r="3" fill="#4aa3ff"/><circle cx="429.7" cy="69.2" r="3" fill="#4aa3ff"/><circle cx="439.0" cy="78.1" r="3" fill="#4aa3ff"/><circle cx="448.4" cy="78.1" r="3" fill="#4aa3ff"/><circle cx="457.8" cy="78.1" r="3" fill="#4aa3ff"/><circle cx="467.2" cy="78.1" r="3" fill="#4aa3ff"/><circle cx="476.5" cy="78.1" r="3" fill="#4aa3ff"/><circle cx="485.9" cy="74.6" r="3" fill="#4aa3ff"/><circle cx="495.3" cy="66.9" r="3" fill="#4aa3ff"/><circle cx="504.7" cy="36.0" r="3" fill="#4aa3ff"/><circle cx="514.0" cy="36.0" r="3" fill="#4aa3ff"/><circle cx="523.4" cy="39.1" r="3" fill="#4aa3ff"/><circle cx="532.8" cy="39.1" r="3" fill="#4aa3ff"/><circle cx="542.1" cy="39.1" r="3" fill="#4aa3ff"/><circle cx="551.5" cy="39.1" r="3" fill="#4aa3ff"/><circle cx="560.9" cy="39.1" r="3" fill="#4aa3ff"/><circle cx="570.3" cy="39.4" r="3" fill="#4aa3ff"/><circle cx="579.6" cy="39.4" r="3" fill="#4aa3ff"/><circle cx="589.0" cy="39.4" r="3" fill="#4aa3ff"/><circle cx="598.4" cy="39.7" r="3" fill="#4aa3ff"/><circle cx="607.8" cy="39.7" r="3" fill="#4aa3ff"/><circle cx="617.1" cy="39.7" r="3" fill="#4aa3ff"/><circle cx="626.5" cy="39.7" r="3" fill="#4aa3ff"/><circle cx="635.9" cy="39.7" r="3" fill="#4aa3ff"/><circle cx="645.3" cy="39.7" r="3" fill="#4aa3ff"/><circle cx="654.6" cy="39.7" r="3" fill="#4aa3ff"/><circle cx="664.0" cy="39.7" r="3" fill="#4aa3ff"/>
<text x="36" y="225" fill="#6b7280" font-size="11">2026-06-26</text>
<text x="664" y="225" fill="#6b7280" font-size="11" text-anchor="end">2026-07-04</text>
<text x="36" y="212" font-family="system-ui,sans-serif" font-size="11">
<tspan fill="#4aa3ff">&#9679; open FPs</tspan>  <tspan fill="#3fb950">&#9679; closed (Anthropic acting)</tspan>  <tspan fill="#8a5a5a">&#9679; harness withdrawn</tspan></text>
<text x="664" y="22" text-anchor="end" font-family="system-ui,sans-serif" font-size="12">
<tspan fill="#4aa3ff">open 553</tspan>  <tspan fill="#3fb950">closed 38</tspan>  <tspan fill="#8a5a5a">harness 209</tspan></text>
</svg>