<svg xmlns="http://www.w3.org/2000/svg" width="700" height="234" viewBox="0 0 700 234" role="img">
<rect width="700" height="234" rx="12" fill="#16181d"/>
<text x="36" y="22" fill="#e8eaed" font-family="system-ui,sans-serif" font-size="14" font-weight="700">Is Anthropic acting? cyber/aup false positives over time</text>
<line x1="36" y1="198.0" x2="664" y2="198.0" stroke="#2a2e37" stroke-width="1"/><text x="30" y="202.0" fill="#6b7280" font-size="11" text-anchor="end">0</text><line x1="36" y1="117.0" x2="664" y2="117.0" stroke="#2a2e37" stroke-width="1"/><text x="30" y="121.0" fill="#6b7280" font-size="11" text-anchor="end">400</text><line x1="36" y1="36.0" x2="664" y2="36.0" stroke="#2a2e37" stroke-width="1"/><text x="30" y="40.0" fill="#6b7280" font-size="11" text-anchor="end">800</text>

<polyline fill="none" stroke="#8a5a5a" stroke-width="2.5" stroke-linejoin="round" points="36.0,145.1 40.2,145.1 44.4,145.1 48.6,145.1 52.7,145.1 56.9,145.1 61.1,145.1 65.3,145.1 69.5,145.1 73.7,145.1 77.9,145.1 82.1,145.1 86.2,145.1 90.4,145.1 94.6,145.1 98.8,145.1 103.0,145.1 107.2,145.1 111.4,145.1 115.5,145.1 119.7,145.1 123.9,145.1 128.1,145.1 132.3,145.1 136.5,145.1 140.7,145.1 144.9,145.1 149.0,145.1 153.2,145.1 157.4,145.1 161.6,145.1 165.8,145.1 170.0,145.1 174.2,145.1 178.3,145.1 182.5,145.1 186.7,145.1 190.9,145.1 195.1,145.1 199.3,145.1 203.5,145.1 207.7,145.1 211.8,145.1 216.0,145.1 220.2,145.1 224.4,145.1 228.6,145.1 232.8,145.1 237.0,145.1 241.1,145.1 245.3,155.7 249.5,155.7 253.7,155.7 257.9,155.7 262.1,155.7 266.3,155.7 270.5,155.7 274.6,155.7 278.8,155.7 283.0,155.7 287.2,155.7 291.4,155.7 295.6,155.7 299.8,155.7 303.9,155.7 308.1,155.7 312.3,155.7 316.5,155.7 320.7,155.7 324.9,155.7 329.1,155.7 333.3,155.7 337.4,155.7 341.6,155.7 345.8,155.7 350.0,155.7 354.2,155.7 358.4,155.7 362.6,155.7 366.7,155.7 370.9,155.7 375.1,155.7 379.3,155.7 383.5,155.7 387.7,167.6 391.9,167.6 396.1,170.3 400.2,170.3 404.4,170.5 408.6,170.7 412.8,170.7 417.0,170.9 421.2,172.7 425.4,180.6 429.5,181.8 433.7,189.1 437.9,190.5 442.1,195.2 446.3,198.0 450.5,198.0 454.7,198.0 458.9,198.0 463.0,198.0 467.2,198.0 471.4,198.0 475.6,198.0 479.8,198.0 484.0,198.0 488.2,198.0 492.3,198.0 496.5,198.0 500.7,198.0 504.9,198.0 509.1,198.0 513.3,198.0 517.5,198.0 521.7,198.0 525.8,198.0 530.0,198.0 534.2,198.0 538.4,198.0 542.6,198.0 546.8,198.0 551.0,198.0 555.1,198.0 559.3,198.0 563.5,198.0 567.7,198.0 571.9,198.0 576.1,198.0 580.3,198.0 584.5,198.0 588.6,198.0 592.8,198.0 597.0,198.0 601.2,198.0 605.4,198.0 609.6,198.0 613.8,198.0 617.9,198.0 622.1,198.0 626.3,198.0 630.5,198.0 634.7,198.0 638.9,198.0 643.1,198.0 647.3,198.0 651.4,198.0 655.6,198.0 659.8,198.0 664.0,198.0"/><circle cx="36.0" cy="145.1" r="3" fill="#8a5a5a"/><circle cx="40.2" cy="145.1" r="3" fill="#8a5a5a"/><circle cx="44.4" cy="145.1" r="3" fill="#8a5a5a"/><circle cx="48.6" cy="145.1" r="3" fill="#8a5a5a"/><circle cx="52.7" cy="145.1" r="3" fill="#8a5a5a"/><circle cx="56.9" cy="145.1" r="3" fill="#8a5a5a"/><circle cx="61.1" cy="145.1" r="3" fill="#8a5a5a"/><circle cx="65.3" cy="145.1" r="3" fill="#8a5a5a"/><circle cx="69.5" cy="145.1" r="3" fill="#8a5a5a"/><circle cx="73.7" cy="145.1" r="3" fill="#8a5a5a"/><circle cx="77.9" cy="145.1" r="3" fill="#8a5a5a"/><circle cx="82.1" cy="145.1" r="3" fill="#8a5a5a"/><circle cx="86.2" cy="145.1" r="3" fill="#8a5a5a"/><circle cx="90.4" cy="145.1" r="3" fill="#8a5a5a"/><circle cx="94.6" cy="145.1" r="3" fill="#8a5a5a"/><circle cx="98.8" cy="145.1" r="3" fill="#8a5a5a"/><circle cx="103.0" cy="145.1" r="3" fill="#8a5a5a"/><circle cx="107.2" cy="145.1" r="3" fill="#8a5a5a"/><circle cx="111.4" cy="145.1" r="3" fill="#8a5a5a"/><circle cx="115.5" cy="145.1" r="3" fill="#8a5a5a"/><circle cx="119.7" cy="145.1" r="3" fill="#8a5a5a"/><circle cx="123.9" cy="145.1" r="3" fill="#8a5a5a"/><circle cx="128.1" cy="145.1" r="3" fill="#8a5a5a"/><circle cx="132.3" cy="145.1" r="3" fill="#8a5a5a"/><circle cx="136.5" cy="145.1" r="3" fill="#8a5a5a"/><circle cx="140.7" cy="145.1" r="3" fill="#8a5a5a"/><circle cx="144.9" cy="145.1" r="3" fill="#8a5a5a"/><circle cx="149.0" cy="145.1" r="3" fill="#8a5a5a"/><circle cx="153.2" cy="145.1" r="3" fill="#8a5a5a"/><circle cx="157.4" cy="145.1" r="3" fill="#8a5a5a"/><circle cx="161.6" cy="145.1" r="3" fill="#8a5a5a"/><circle cx="165.8" cy="145.1" r="3" fill="#8a5a5a"/><circle cx="170.0" cy="145.1" r="3" fill="#8a5a5a"/><circle cx="174.2" cy="145.1" r="3" fill="#8a5a5a"/><circle cx="178.3" cy="145.1" r="3" fill="#8a5a5a"/><circle cx="182.5" cy="145.1" r="3" fill="#8a5a5a"/><circle cx="186.7" cy="145.1" r="3" fill="#8a5a5a"/><circle cx="190.9" cy="145.1" r="3" fill="#8a5a5a"/><circle cx="195.1" cy="145.1" r="3" fill="#8a5a5a"/><circle cx="199.3" cy="145.1" r="3" fill="#8a5a5a"/><circle cx="203.5" cy="145.1" r="3" fill="#8a5a5a"/><circle cx="207.7" cy="145.1" r="3" fill="#8a5a5a"/><circle cx="211.8" cy="145.1" r="3" fill="#8a5a5a"/><circle cx="216.0" cy="145.1" r="3" fill="#8a5a5a"/><circle cx="220.2" cy="145.1" r="3" fill="#8a5a5a"/><circle cx="224.4" cy="145.1" r="3" fill="#8a5a5a"/><circle cx="228.6" cy="145.1" r="3" fill="#8a5a5a"/><circle cx="232.8" cy="145.1" r="3" fill="#8a5a5a"/><circle cx="237.0" cy="145.1" r="3" fill="#8a5a5a"/><circle cx="241.1" cy="145.1" r="3" fill="#8a5a5a"/><circle cx="245.3" cy="155.7" r="3" fill="#8a5a5a"/><circle cx="249.5" cy="155.7" r="3" fill="#8a5a5a"/><circle cx="253.7" cy="155.7" r="3" fill="#8a5a5a"/><circle cx="257.9" cy="155.7" r="3" fill="#8a5a5a"/><circle cx="262.1" cy="155.7" r="3" fill="#8a5a5a"/><circle cx="266.3" cy="155.7" r="3" fill="#8a5a5a"/><circle cx="270.5" cy="155.7" r="3" fill="#8a5a5a"/><circle cx="274.6" cy="155.7" r="3" fill="#8a5a5a"/><circle cx="278.8" cy="155.7" r="3" fill="#8a5a5a"/><circle cx="283.0" cy="155.7" r="3" fill="#8a5a5a"/><circle cx="287.2" cy="155.7" r="3" fill="#8a5a5a"/><circle cx="291.4" cy="155.7" r="3" fill="#8a5a5a"/><circle cx="295.6" cy="155.7" r="3" fill="#8a5a5a"/><circle cx="299.8" cy="155.7" r="3" fill="#8a5a5a"/><circle cx="303.9" cy="155.7" r="3" fill="#8a5a5a"/><circle cx="308.1" cy="155.7" r="3" fill="#8a5a5a"/><circle cx="312.3" cy="155.7" r="3" fill="#8a5a5a"/><circle cx="316.5" cy="155.7" r="3" fill="#8a5a5a"/><circle cx="320.7" cy="155.7" r="3" fill="#8a5a5a"/><circle cx="324.9" cy="155.7" r="3" fill="#8a5a5a"/><circle cx="329.1" cy="155.7" r="3" fill="#8a5a5a"/><circle cx="333.3" cy="155.7" r="3" fill="#8a5a5a"/><circle cx="337.4" cy="155.7" r="3" fill="#8a5a5a"/><circle cx="341.6" cy="155.7" r="3" fill="#8a5a5a"/><circle cx="345.8" cy="155.7" r="3" fill="#8a5a5a"/><circle cx="350.0" cy="155.7" r="3" fill="#8a5a5a"/><circle cx="354.2" cy="155.7" r="3" fill="#8a5a5a"/><circle cx="358.4" cy="155.7" r="3" fill="#8a5a5a"/><circle cx="362.6" cy="155.7" r="3" fill="#8a5a5a"/><circle cx="366.7" cy="155.7" r="3" fill="#8a5a5a"/><circle cx="370.9" cy="155.7" r="3" fill="#8a5a5a"/><circle cx="375.1" cy="155.7" r="3" fill="#8a5a5a"/><circle cx="379.3" cy="155.7" r="3" fill="#8a5a5a"/><circle cx="383.5" cy="155.7" r="3" fill="#8a5a5a"/><circle cx="387.7" cy="167.6" r="3" fill="#8a5a5a"/><circle cx="391.9" cy="167.6" r="3" fill="#8a5a5a"/><circle cx="396.1" cy="170.3" r="3" fill="#8a5a5a"/><circle cx="400.2" cy="170.3" r="3" fill="#8a5a5a"/><circle cx="404.4" cy="170.5" r="3" fill="#8a5a5a"/><circle cx="408.6" cy="170.7" r="3" fill="#8a5a5a"/><circle cx="412.8" cy="170.7" r="3" fill="#8a5a5a"/><circle cx="417.0" cy="170.9" r="3" fill="#8a5a5a"/><circle cx="421.2" cy="172.7" r="3" fill="#8a5a5a"/><circle cx="425.4" cy="180.6" r="3" fill="#8a5a5a"/><circle cx="429.5" cy="181.8" r="3" fill="#8a5a5a"/><circle cx="433.7" cy="189.1" r="3" fill="#8a5a5a"/><circle cx="437.9" cy="190.5" r="3" fill="#8a5a5a"/><circle cx="442.1" cy="195.2" r="3" fill="#8a5a5a"/><circle cx="446.3" cy="198.0" r="3" fill="#8a5a5a"/><circle cx="450.5" cy="198.0" r="3" fill="#8a5a5a"/><circle cx="454.7" cy="198.0" r="3" fill="#8a5a5a"/><circle cx="458.9" cy="198.0" r="3" fill="#8a5a5a"/><circle cx="463.0" cy="198.0" r="3" fill="#8a5a5a"/><circle cx="467.2" cy="198.0" r="3" fill="#8a5a5a"/><circle cx="471.4" cy="198.0" r="3" fill="#8a5a5a"/><circle cx="475.6" cy="198.0" r="3" fill="#8a5a5a"/><circle cx="479.8" cy="198.0" r="3" fill="#8a5a5a"/><circle cx="484.0" cy="198.0" r="3" fill="#8a5a5a"/><circle cx="488.2" cy="198.0" r="3" fill="#8a5a5a"/><circle cx="492.3" cy="198.0" r="3" fill="#8a5a5a"/><circle cx="496.5" cy="198.0" r="3" fill="#8a5a5a"/><circle cx="500.7" cy="198.0" r="3" fill="#8a5a5a"/><circle cx="504.9" cy="198.0" r="3" fill="#8a5a5a"/><circle cx="509.1" cy="198.0" r="3" fill="#8a5a5a"/><circle cx="513.3" cy="198.0" r="3" fill="#8a5a5a"/><circle cx="517.5" cy="198.0" r="3" fill="#8a5a5a"/><circle cx="521.7" cy="198.0" r="3" fill="#8a5a5a"/><circle cx="525.8" cy="198.0" r="3" fill="#8a5a5a"/><circle cx="530.0" cy="198.0" r="3" fill="#8a5a5a"/><circle cx="534.2" cy="198.0" r="3" fill="#8a5a5a"/><circle cx="538.4" cy="198.0" r="3" fill="#8a5a5a"/><circle cx="542.6" cy="198.0" r="3" fill="#8a5a5a"/><circle cx="546.8" cy="198.0" r="3" fill="#8a5a5a"/><circle cx="551.0" cy="198.0" r="3" fill="#8a5a5a"/><circle cx="555.1" cy="198.0" r="3" fill="#8a5a5a"/><circle cx="559.3" cy="198.0" r="3" fill="#8a5a5a"/><circle cx="563.5" cy="198.0" r="3" fill="#8a5a5a"/><circle cx="567.7" cy="198.0" r="3" fill="#8a5a5a"/><circle cx="571.9" cy="198.0" r="3" fill="#8a5a5a"/><circle cx="576.1" cy="198.0" r="3" fill="#8a5a5a"/><circle cx="580.3" cy="198.0" r="3" fill="#8a5a5a"/><circle cx="584.5" cy="198.0" r="3" fill="#8a5a5a"/><circle cx="588.6" cy="198.0" r="3" fill="#8a5a5a"/><circle cx="592.8" cy="198.0" r="3" fill="#8a5a5a"/><circle cx="597.0" cy="198.0" r="3" fill="#8a5a5a"/><circle cx="601.2" cy="198.0" r="3" fill="#8a5a5a"/><circle cx="605.4" cy="198.0" r="3" fill="#8a5a5a"/><circle cx="609.6" cy="198.0" r="3" fill="#8a5a5a"/><circle cx="613.8" cy="198.0" r="3" fill="#8a5a5a"/><circle cx="617.9" cy="198.0" r="3" fill="#8a5a5a"/><circle cx="622.1" cy="198.0" r="3" fill="#8a5a5a"/><circle cx="626.3" cy="198.0" r="3" fill="#8a5a5a"/><circle cx="630.5" cy="198.0" r="3" fill="#8a5a5a"/><circle cx="634.7" cy="198.0" r="3" fill="#8a5a5a"/><circle cx="638.9" cy="198.0" r="3" fill="#8a5a5a"/><circle cx="643.1" cy="198.0" r="3" fill="#8a5a5a"/><circle cx="647.3" cy="198.0" r="3" fill="#8a5a5a"/><circle cx="651.4" cy="198.0" r="3" fill="#8a5a5a"/><circle cx="655.6" cy="198.0" r="3" fill="#8a5a5a"/><circle cx="659.8" cy="198.0" r="3" fill="#8a5a5a"/><circle cx="664.0" cy="198.0" r="3" fill="#8a5a5a"/>
<polyline fill="none" stroke="#3fb950" stroke-width="2.5" stroke-linejoin="round" points="36.0,198.0 40.2,198.0 44.4,198.0 48.6,198.0 52.7,198.0 56.9,198.0 61.1,198.0 65.3,198.0 69.5,198.0 73.7,198.0 77.9,198.0 82.1,198.0 86.2,198.0 90.4,198.0 94.6,198.0 98.8,198.0 103.0,198.0 107.2,198.0 111.4,198.0 115.5,198.0 119.7,198.0 123.9,198.0 128.1,198.0 132.3,198.0 136.5,198.0 140.7,198.0 144.9,198.0 149.0,198.0 153.2,198.0 157.4,198.0 161.6,198.0 165.8,198.0 170.0,198.0 174.2,198.0 178.3,198.0 182.5,198.0 186.7,198.0 190.9,198.0 195.1,198.0 199.3,198.0 203.5,198.0 207.7,198.0 211.8,198.0 216.0,191.7 220.2,191.7 224.4,191.7 228.6,191.7 232.8,191.7 237.0,191.7 241.1,191.7 245.3,192.9 249.5,192.9 253.7,190.7 257.9,190.7 262.1,190.7 266.3,190.7 270.5,190.7 274.6,190.5 278.8,190.5 283.0,190.5 287.2,190.3 291.4,190.3 295.6,190.3 299.8,190.3 303.9,190.3 308.1,190.3 312.3,190.3 316.5,190.3 320.7,190.3 324.9,190.3 329.1,190.3 333.3,190.3 337.4,190.3 341.6,190.3 345.8,190.3 350.0,190.3 354.2,190.3 358.4,190.3 362.6,190.3 366.7,190.3 370.9,190.3 375.1,189.3 379.3,189.3 383.5,189.3 387.7,190.7 391.9,190.7 396.1,190.7 400.2,190.7 404.4,190.7 408.6,190.7 412.8,190.7 417.0,190.7 421.2,190.7 425.4,190.9 429.5,190.9 433.7,190.9 437.9,194.2 442.1,196.8 446.3,198.0 450.5,198.0 454.7,198.0 458.9,198.0 463.0,198.0 467.2,198.0 471.4,198.0 475.6,198.0 479.8,198.0 484.0,198.0 488.2,198.0 492.3,198.0 496.5,198.0 500.7,198.0 504.9,198.0 509.1,198.0 513.3,198.0 517.5,198.0 521.7,198.0 525.8,198.0 530.0,198.0 534.2,198.0 538.4,198.0 542.6,198.0 546.8,198.0 551.0,198.0 555.1,198.0 559.3,198.0 563.5,198.0 567.7,198.0 571.9,198.0 576.1,198.0 580.3,198.0 584.5,198.0 588.6,198.0 592.8,198.0 597.0,198.0 601.2,198.0 605.4,198.0 609.6,198.0 613.8,198.0 617.9,198.0 622.1,198.0 626.3,198.0 630.5,198.0 634.7,198.0 638.9,198.0 643.1,198.0 647.3,198.0 651.4,198.0 655.6,198.0 659.8,198.0 664.0,198.0"/><circle cx="36.0" cy="198.0" r="3" fill="#3fb950"/><circle cx="40.2" cy="198.0" r="3" fill="#3fb950"/><circle cx="44.4" cy="198.0" r="3" fill="#3fb950"/><circle cx="48.6" cy="198.0" r="3" fill="#3fb950"/><circle cx="52.7" cy="198.0" r="3" fill="#3fb950"/><circle cx="56.9" cy="198.0" r="3" fill="#3fb950"/><circle cx="61.1" cy="198.0" r="3" fill="#3fb950"/><circle cx="65.3" cy="198.0" r="3" fill="#3fb950"/><circle cx="69.5" cy="198.0" r="3" fill="#3fb950"/><circle cx="73.7" cy="198.0" r="3" fill="#3fb950"/><circle cx="77.9" cy="198.0" r="3" fill="#3fb950"/><circle cx="82.1" cy="198.0" r="3" fill="#3fb950"/><circle cx="86.2" cy="198.0" r="3" fill="#3fb950"/><circle cx="90.4" cy="198.0" r="3" fill="#3fb950"/><circle cx="94.6" cy="198.0" r="3" fill="#3fb950"/><circle cx="98.8" cy="198.0" r="3" fill="#3fb950"/><circle cx="103.0" cy="198.0" r="3" fill="#3fb950"/><circle cx="107.2" cy="198.0" r="3" fill="#3fb950"/><circle cx="111.4" cy="198.0" r="3" fill="#3fb950"/><circle cx="115.5" cy="198.0" r="3" fill="#3fb950"/><circle cx="119.7" cy="198.0" r="3" fill="#3fb950"/><circle cx="123.9" cy="198.0" r="3" fill="#3fb950"/><circle cx="128.1" cy="198.0" r="3" fill="#3fb950"/><circle cx="132.3" cy="198.0" r="3" fill="#3fb950"/><circle cx="136.5" cy="198.0" r="3" fill="#3fb950"/><circle cx="140.7" cy="198.0" r="3" fill="#3fb950"/><circle cx="144.9" cy="198.0" r="3" fill="#3fb950"/><circle cx="149.0" cy="198.0" r="3" fill="#3fb950"/><circle cx="153.2" cy="198.0" r="3" fill="#3fb950"/><circle cx="157.4" cy="198.0" r="3" fill="#3fb950"/><circle cx="161.6" cy="198.0" r="3" fill="#3fb950"/><circle cx="165.8" cy="198.0" r="3" fill="#3fb950"/><circle cx="170.0" cy="198.0" r="3" fill="#3fb950"/><circle cx="174.2" cy="198.0" r="3" fill="#3fb950"/><circle cx="178.3" cy="198.0" r="3" fill="#3fb950"/><circle cx="182.5" cy="198.0" r="3" fill="#3fb950"/><circle cx="186.7" cy="198.0" r="3" fill="#3fb950"/><circle cx="190.9" cy="198.0" r="3" fill="#3fb950"/><circle cx="195.1" cy="198.0" r="3" fill="#3fb950"/><circle cx="199.3" cy="198.0" r="3" fill="#3fb950"/><circle cx="203.5" cy="198.0" r="3" fill="#3fb950"/><circle cx="207.7" cy="198.0" r="3" fill="#3fb950"/><circle cx="211.8" cy="198.0" r="3" fill="#3fb950"/><circle cx="216.0" cy="191.7" r="3" fill="#3fb950"/><circle cx="220.2" cy="191.7" r="3" fill="#3fb950"/><circle cx="224.4" cy="191.7" r="3" fill="#3fb950"/><circle cx="228.6" cy="191.7" r="3" fill="#3fb950"/><circle cx="232.8" cy="191.7" r="3" fill="#3fb950"/><circle cx="237.0" cy="191.7" r="3" fill="#3fb950"/><circle cx="241.1" cy="191.7" r="3" fill="#3fb950"/><circle cx="245.3" cy="192.9" r="3" fill="#3fb950"/><circle cx="249.5" cy="192.9" r="3" fill="#3fb950"/><circle cx="253.7" cy="190.7" r="3" fill="#3fb950"/><circle cx="257.9" cy="190.7" r="3" fill="#3fb950"/><circle cx="262.1" cy="190.7" r="3" fill="#3fb950"/><circle cx="266.3" cy="190.7" r="3" fill="#3fb950"/><circle cx="270.5" cy="190.7" r="3" fill="#3fb950"/><circle cx="274.6" cy="190.5" r="3" fill="#3fb950"/><circle cx="278.8" cy="190.5" r="3" fill="#3fb950"/><circle cx="283.0" cy="190.5" r="3" fill="#3fb950"/><circle cx="287.2" cy="190.3" r="3" fill="#3fb950"/><circle cx="291.4" cy="190.3" r="3" fill="#3fb950"/><circle cx="295.6" cy="190.3" r="3" fill="#3fb950"/><circle cx="299.8" cy="190.3" r="3" fill="#3fb950"/><circle cx="303.9" cy="190.3" r="3" fill="#3fb950"/><circle cx="308.1" cy="190.3" r="3" fill="#3fb950"/><circle cx="312.3" cy="190.3" r="3" fill="#3fb950"/><circle cx="316.5" cy="190.3" r="3" fill="#3fb950"/><circle cx="320.7" cy="190.3" r="3" fill="#3fb950"/><circle cx="324.9" cy="190.3" r="3" fill="#3fb950"/><circle cx="329.1" cy="190.3" r="3" fill="#3fb950"/><circle cx="333.3" cy="190.3" r="3" fill="#3fb950"/><circle cx="337.4" cy="190.3" r="3" fill="#3fb950"/><circle cx="341.6" cy="190.3" r="3" fill="#3fb950"/><circle cx="345.8" cy="190.3" r="3" fill="#3fb950"/><circle cx="350.0" cy="190.3" r="3" fill="#3fb950"/><circle cx="354.2" cy="190.3" r="3" fill="#3fb950"/><circle cx="358.4" cy="190.3" r="3" fill="#3fb950"/><circle cx="362.6" cy="190.3" r="3" fill="#3fb950"/><circle cx="366.7" cy="190.3" r="3" fill="#3fb950"/><circle cx="370.9" cy="190.3" r="3" fill="#3fb950"/><circle cx="375.1" cy="189.3" r="3" fill="#3fb950"/><circle cx="379.3" cy="189.3" r="3" fill="#3fb950"/><circle cx="383.5" cy="189.3" r="3" fill="#3fb950"/><circle cx="387.7" cy="190.7" r="3" fill="#3fb950"/><circle cx="391.9" cy="190.7" r="3" fill="#3fb950"/><circle cx="396.1" cy="190.7" r="3" fill="#3fb950"/><circle cx="400.2" cy="190.7" r="3" fill="#3fb950"/><circle cx="404.4" cy="190.7" r="3" fill="#3fb950"/><circle cx="408.6" cy="190.7" r="3" fill="#3fb950"/><circle cx="412.8" cy="190.7" r="3" fill="#3fb950"/><circle cx="417.0" cy="190.7" r="3" fill="#3fb950"/><circle cx="421.2" cy="190.7" r="3" fill="#3fb950"/><circle cx="425.4" cy="190.9" r="3" fill="#3fb950"/><circle cx="429.5" cy="190.9" r="3" fill="#3fb950"/><circle cx="433.7" cy="190.9" r="3" fill="#3fb950"/><circle cx="437.9" cy="194.2" r="3" fill="#3fb950"/><circle cx="442.1" cy="196.8" r="3" fill="#3fb950"/><circle cx="446.3" cy="198.0" r="3" fill="#3fb950"/><circle cx="450.5" cy="198.0" r="3" fill="#3fb950"/><circle cx="454.7" cy="198.0" r="3" fill="#3fb950"/><circle cx="458.9" cy="198.0" r="3" fill="#3fb950"/><circle cx="463.0" cy="198.0" r="3" fill="#3fb950"/><circle cx="467.2" cy="198.0" r="3" fill="#3fb950"/><circle cx="471.4" cy="198.0" r="3" fill="#3fb950"/><circle cx="475.6" cy="198.0" r="3" fill="#3fb950"/><circle cx="479.8" cy="198.0" r="3" fill="#3fb950"/><circle cx="484.0" cy="198.0" r="3" fill="#3fb950"/><circle cx="488.2" cy="198.0" r="3" fill="#3fb950"/><circle cx="492.3" cy="198.0" r="3" fill="#3fb950"/><circle cx="496.5" cy="198.0" r="3" fill="#3fb950"/><circle cx="500.7" cy="198.0" r="3" fill="#3fb950"/><circle cx="504.9" cy="198.0" r="3" fill="#3fb950"/><circle cx="509.1" cy="198.0" r="3" fill="#3fb950"/><circle cx="513.3" cy="198.0" r="3" fill="#3fb950"/><circle cx="517.5" cy="198.0" r="3" fill="#3fb950"/><circle cx="521.7" cy="198.0" r="3" fill="#3fb950"/><circle cx="525.8" cy="198.0" r="3" fill="#3fb950"/><circle cx="530.0" cy="198.0" r="3" fill="#3fb950"/><circle cx="534.2" cy="198.0" r="3" fill="#3fb950"/><circle cx="538.4" cy="198.0" r="3" fill="#3fb950"/><circle cx="542.6" cy="198.0" r="3" fill="#3fb950"/><circle cx="546.8" cy="198.0" r="3" fill="#3fb950"/><circle cx="551.0" cy="198.0" r="3" fill="#3fb950"/><circle cx="555.1" cy="198.0" r="3" fill="#3fb950"/><circle cx="559.3" cy="198.0" r="3" fill="#3fb950"/><circle cx="563.5" cy="198.0" r="3" fill="#3fb950"/><circle cx="567.7" cy="198.0" r="3" fill="#3fb950"/><circle cx="571.9" cy="198.0" r="3" fill="#3fb950"/><circle cx="576.1" cy="198.0" r="3" fill="#3fb950"/><circle cx="580.3" cy="198.0" r="3" fill="#3fb950"/><circle cx="584.5" cy="198.0" r="3" fill="#3fb950"/><circle cx="588.6" cy="198.0" r="3" fill="#3fb950"/><circle cx="592.8" cy="198.0" r="3" fill="#3fb950"/><circle cx="597.0" cy="198.0" r="3" fill="#3fb950"/><circle cx="601.2" cy="198.0" r="3" fill="#3fb950"/><circle cx="605.4" cy="198.0" r="3" fill="#3fb950"/><circle cx="609.6" cy="198.0" r="3" fill="#3fb950"/><circle cx="613.8" cy="198.0" r="3" fill="#3fb950"/><circle cx="617.9" cy="198.0" r="3" fill="#3fb950"/><circle cx="622.1" cy="198.0" r="3" fill="#3fb950"/><circle cx="626.3" cy="198.0" r="3" fill="#3fb950"/><circle cx="630.5" cy="198.0" r="3" fill="#3fb950"/><circle cx="634.7" cy="198.0" r="3" fill="#3fb950"/><circle cx="638.9" cy="198.0" r="3" fill="#3fb950"/><circle cx="643.1" cy="198.0" r="3" fill="#3fb950"/><circle cx="647.3" cy="198.0" r="3" fill="#3fb950"/><circle cx="651.4" cy="198.0" r="3" fill="#3fb950"/><circle cx="655.6" cy="198.0" r="3" fill="#3fb950"/><circle cx="659.8" cy="198.0" r="3" fill="#3fb950"/><circle cx="664.0" cy="198.0" r="3" fill="#3fb950"/>
<polyline fill="none" stroke="#4aa3ff" stroke-width="2.5" stroke-linejoin="round" points="36.0,144.3 40.2,144.3 44.4,144.3 48.6,144.3 52.7,144.3 56.9,144.3 61.1,144.3 65.3,144.3 69.5,144.3 73.7,144.3 77.9,144.3 82.1,144.3 86.2,144.3 90.4,144.3 94.6,144.3 98.8,136.2 103.0,132.4 107.2,129.6 111.4,129.6 115.5,121.0 119.7,121.0 123.9,121.0 128.1,114.4 132.3,114.4 136.5,114.4 140.7,111.3 144.9,110.9 149.0,110.9 153.2,110.5 157.4,110.5 161.6,109.9 165.8,108.7 170.0,107.3 174.2,106.9 178.3,106.9 182.5,106.9 186.7,106.9 190.9,106.9 195.1,106.9 199.3,106.9 203.5,106.9 207.7,106.9 211.8,106.9 216.0,113.2 220.2,113.2 224.4,113.2 228.6,113.2 232.8,113.2 237.0,110.7 241.1,105.3 245.3,83.4 249.5,83.4 253.7,85.6 257.9,85.6 262.1,85.6 266.3,85.6 270.5,85.6 274.6,85.8 278.8,85.8 283.0,85.8 287.2,86.0 291.4,86.0 295.6,86.0 299.8,86.0 303.9,86.0 308.1,86.0 312.3,86.0 316.5,86.0 320.7,86.0 324.9,86.0 329.1,86.0 333.3,86.0 337.4,86.0 341.6,86.0 345.8,86.0 350.0,86.0 354.2,86.0 358.4,86.0 362.6,86.0 366.7,86.0 370.9,86.0 375.1,87.0 379.3,87.0 383.5,87.0 387.7,73.7 391.9,73.7 396.1,71.0 400.2,71.0 404.4,70.8 408.6,70.6 412.8,70.6 417.0,70.4 421.2,68.6 425.4,60.5 429.5,59.3 433.7,52.0 437.9,47.3 442.1,40.1 446.3,36.0 450.5,36.0 454.7,36.0 458.9,36.0 463.0,36.0 467.2,36.0 471.4,36.0 475.6,36.0 479.8,36.0 484.0,36.0 488.2,36.0 492.3,36.0 496.5,36.0 500.7,36.0 504.9,36.0 509.1,36.0 513.3,36.0 517.5,36.0 521.7,36.0 525.8,36.0 530.0,36.0 534.2,36.0 538.4,36.0 542.6,36.0 546.8,36.0 551.0,36.0 555.1,36.0 559.3,36.0 563.5,36.0 567.7,36.0 571.9,36.0 576.1,36.0 580.3,36.0 584.5,36.0 588.6,36.0 592.8,36.0 597.0,36.0 601.2,36.0 605.4,36.0 609.6,36.0 613.8,36.0 617.9,36.0 622.1,36.0 626.3,36.0 630.5,36.0 634.7,36.0 638.9,36.0 643.1,36.0 647.3,36.0 651.4,36.0 655.6,36.0 659.8,36.0 664.0,36.0"/><circle cx="36.0" cy="144.3" r="3" fill="#4aa3ff"/><circle cx="40.2" cy="144.3" r="3" fill="#4aa3ff"/><circle cx="44.4" cy="144.3" r="3" fill="#4aa3ff"/><circle cx="48.6" cy="144.3" r="3" fill="#4aa3ff"/><circle cx="52.7" cy="144.3" r="3" fill="#4aa3ff"/><circle cx="56.9" cy="144.3" r="3" fill="#4aa3ff"/><circle cx="61.1" cy="144.3" r="3" fill="#4aa3ff"/><circle cx="65.3" cy="144.3" r="3" fill="#4aa3ff"/><circle cx="69.5" cy="144.3" r="3" fill="#4aa3ff"/><circle cx="73.7" cy="144.3" r="3" fill="#4aa3ff"/><circle cx="77.9" cy="144.3" r="3" fill="#4aa3ff"/><circle cx="82.1" cy="144.3" r="3" fill="#4aa3ff"/><circle cx="86.2" cy="144.3" r="3" fill="#4aa3ff"/><circle cx="90.4" cy="144.3" r="3" fill="#4aa3ff"/><circle cx="94.6" cy="144.3" r="3" fill="#4aa3ff"/><circle cx="98.8" cy="136.2" r="3" fill="#4aa3ff"/><circle cx="103.0" cy="132.4" r="3" fill="#4aa3ff"/><circle cx="107.2" cy="129.6" r="3" fill="#4aa3ff"/><circle cx="111.4" cy="129.6" r="3" fill="#4aa3ff"/><circle cx="115.5" cy="121.0" r="3" fill="#4aa3ff"/><circle cx="119.7" cy="121.0" r="3" fill="#4aa3ff"/><circle cx="123.9" cy="121.0" r="3" fill="#4aa3ff"/><circle cx="128.1" cy="114.4" r="3" fill="#4aa3ff"/><circle cx="132.3" cy="114.4" r="3" fill="#4aa3ff"/><circle cx="136.5" cy="114.4" r="3" fill="#4aa3ff"/><circle cx="140.7" cy="111.3" r="3" fill="#4aa3ff"/><circle cx="144.9" cy="110.9" r="3" fill="#4aa3ff"/><circle cx="149.0" cy="110.9" r="3" fill="#4aa3ff"/><circle cx="153.2" cy="110.5" r="3" fill="#4aa3ff"/><circle cx="157.4" cy="110.5" r="3" fill="#4aa3ff"/><circle cx="161.6" cy="109.9" r="3" fill="#4aa3ff"/><circle cx="165.8" cy="108.7" r="3" fill="#4aa3ff"/><circle cx="170.0" cy="107.3" r="3" fill="#4aa3ff"/><circle cx="174.2" cy="106.9" r="3" fill="#4aa3ff"/><circle cx="178.3" cy="106.9" r="3" fill="#4aa3ff"/><circle cx="182.5" cy="106.9" r="3" fill="#4aa3ff"/><circle cx="186.7" cy="106.9" r="3" fill="#4aa3ff"/><circle cx="190.9" cy="106.9" r="3" fill="#4aa3ff"/><circle cx="195.1" cy="106.9" r="3" fill="#4aa3ff"/><circle cx="199.3" cy="106.9" r="3" fill="#4aa3ff"/><circle cx="203.5" cy="106.9" r="3" fill="#4aa3ff"/><circle cx="207.7" cy="106.9" r="3" fill="#4aa3ff"/><circle cx="211.8" cy="106.9" r="3" fill="#4aa3ff"/><circle cx="216.0" cy="113.2" r="3" fill="#4aa3ff"/><circle cx="220.2" cy="113.2" r="3" fill="#4aa3ff"/><circle cx="224.4" cy="113.2" r="3" fill="#4aa3ff"/><circle cx="228.6" cy="113.2" r="3" fill="#4aa3ff"/><circle cx="232.8" cy="113.2" r="3" fill="#4aa3ff"/><circle cx="237.0" cy="110.7" r="3" fill="#4aa3ff"/><circle cx="241.1" cy="105.3" r="3" fill="#4aa3ff"/><circle cx="245.3" cy="83.4" r="3" fill="#4aa3ff"/><circle cx="249.5" cy="83.4" r="3" fill="#4aa3ff"/><circle cx="253.7" cy="85.6" r="3" fill="#4aa3ff"/><circle cx="257.9" cy="85.6" r="3" fill="#4aa3ff"/><circle cx="262.1" cy="85.6" r="3" fill="#4aa3ff"/><circle cx="266.3" cy="85.6" r="3" fill="#4aa3ff"/><circle cx="270.5" cy="85.6" r="3" fill="#4aa3ff"/><circle cx="274.6" cy="85.8" r="3" fill="#4aa3ff"/><circle cx="278.8" cy="85.8" r="3" fill="#4aa3ff"/><circle cx="283.0" cy="85.8" r="3" fill="#4aa3ff"/><circle cx="287.2" cy="86.0" r="3" fill="#4aa3ff"/><circle cx="291.4" cy="86.0" r="3" fill="#4aa3ff"/><circle cx="295.6" cy="86.0" r="3" fill="#4aa3ff"/><circle cx="299.8" cy="86.0" r="3" fill="#4aa3ff"/><circle cx="303.9" cy="86.0" r="3" fill="#4aa3ff"/><circle cx="308.1" cy="86.0" r="3" fill="#4aa3ff"/><circle cx="312.3" cy="86.0" r="3" fill="#4aa3ff"/><circle cx="316.5" cy="86.0" r="3" fill="#4aa3ff"/><circle cx="320.7" cy="86.0" r="3" fill="#4aa3ff"/><circle cx="324.9" cy="86.0" r="3" fill="#4aa3ff"/><circle cx="329.1" cy="86.0" r="3" fill="#4aa3ff"/><circle cx="333.3" cy="86.0" r="3" fill="#4aa3ff"/><circle cx="337.4" cy="86.0" r="3" fill="#4aa3ff"/><circle cx="341.6" cy="86.0" r="3" fill="#4aa3ff"/><circle cx="345.8" cy="86.0" r="3" fill="#4aa3ff"/><circle cx="350.0" cy="86.0" r="3" fill="#4aa3ff"/><circle cx="354.2" cy="86.0" r="3" fill="#4aa3ff"/><circle cx="358.4" cy="86.0" r="3" fill="#4aa3ff"/><circle cx="362.6" cy="86.0" r="3" fill="#4aa3ff"/><circle cx="366.7" cy="86.0" r="3" fill="#4aa3ff"/><circle cx="370.9" cy="86.0" r="3" fill="#4aa3ff"/><circle cx="375.1" cy="87.0" r="3" fill="#4aa3ff"/><circle cx="379.3" cy="87.0" r="3" fill="#4aa3ff"/><circle cx="383.5" cy="87.0" r="3" fill="#4aa3ff"/><circle cx="387.7" cy="73.7" r="3" fill="#4aa3ff"/><circle cx="391.9" cy="73.7" r="3" fill="#4aa3ff"/><circle cx="396.1" cy="71.0" r="3" fill="#4aa3ff"/><circle cx="400.2" cy="71.0" r="3" fill="#4aa3ff"/><circle cx="404.4" cy="70.8" r="3" fill="#4aa3ff"/><circle cx="408.6" cy="70.6" r="3" fill="#4aa3ff"/><circle cx="412.8" cy="70.6" r="3" fill="#4aa3ff"/><circle cx="417.0" cy="70.4" r="3" fill="#4aa3ff"/><circle cx="421.2" cy="68.6" r="3" fill="#4aa3ff"/><circle cx="425.4" cy="60.5" r="3" fill="#4aa3ff"/><circle cx="429.5" cy="59.3" r="3" fill="#4aa3ff"/><circle cx="433.7" cy="52.0" r="3" fill="#4aa3ff"/><circle cx="437.9" cy="47.3" r="3" fill="#4aa3ff"/><circle cx="442.1" cy="40.1" r="3" fill="#4aa3ff"/><circle cx="446.3" cy="36.0" r="3" fill="#4aa3ff"/><circle cx="450.5" cy="36.0" r="3" fill="#4aa3ff"/><circle cx="454.7" cy="36.0" r="3" fill="#4aa3ff"/><circle cx="458.9" cy="36.0" r="3" fill="#4aa3ff"/><circle cx="463.0" cy="36.0" r="3" fill="#4aa3ff"/><circle cx="467.2" cy="36.0" r="3" fill="#4aa3ff"/><circle cx="471.4" cy="36.0" r="3" fill="#4aa3ff"/><circle cx="475.6" cy="36.0" r="3" fill="#4aa3ff"/><circle cx="479.8" cy="36.0" r="3" fill="#4aa3ff"/><circle cx="484.0" cy="36.0" r="3" fill="#4aa3ff"/><circle cx="488.2" cy="36.0" r="3" fill="#4aa3ff"/><circle cx="492.3" cy="36.0" r="3" fill="#4aa3ff"/><circle cx="496.5" cy="36.0" r="3" fill="#4aa3ff"/><circle cx="500.7" cy="36.0" r="3" fill="#4aa3ff"/><circle cx="504.9" cy="36.0" r="3" fill="#4aa3ff"/><circle cx="509.1" cy="36.0" r="3" fill="#4aa3ff"/><circle cx="513.3" cy="36.0" r="3" fill="#4aa3ff"/><circle cx="517.5" cy="36.0" r="3" fill="#4aa3ff"/><circle cx="521.7" cy="36.0" r="3" fill="#4aa3ff"/><circle cx="525.8" cy="36.0" r="3" fill="#4aa3ff"/><circle cx="530.0" cy="36.0" r="3" fill="#4aa3ff"/><circle cx="534.2" cy="36.0" r="3" fill="#4aa3ff"/><circle cx="538.4" cy="36.0" r="3" fill="#4aa3ff"/><circle cx="542.6" cy="36.0" r="3" fill="#4aa3ff"/><circle cx="546.8" cy="36.0" r="3" fill="#4aa3ff"/><circle cx="551.0" cy="36.0" r="3" fill="#4aa3ff"/><circle cx="555.1" cy="36.0" r="3" fill="#4aa3ff"/><circle cx="559.3" cy="36.0" r="3" fill="#4aa3ff"/><circle cx="563.5" cy="36.0" r="3" fill="#4aa3ff"/><circle cx="567.7" cy="36.0" r="3" fill="#4aa3ff"/><circle cx="571.9" cy="36.0" r="3" fill="#4aa3ff"/><circle cx="576.1" cy="36.0" r="3" fill="#4aa3ff"/><circle cx="580.3" cy="36.0" r="3" fill="#4aa3ff"/><circle cx="584.5" cy="36.0" r="3" fill="#4aa3ff"/><circle cx="588.6" cy="36.0" r="3" fill="#4aa3ff"/><circle cx="592.8" cy="36.0" r="3" fill="#4aa3ff"/><circle cx="597.0" cy="36.0" r="3" fill="#4aa3ff"/><circle cx="601.2" cy="36.0" r="3" fill="#4aa3ff"/><circle cx="605.4" cy="36.0" r="3" fill="#4aa3ff"/><circle cx="609.6" cy="36.0" r="3" fill="#4aa3ff"/><circle cx="613.8" cy="36.0" r="3" fill="#4aa3ff"/><circle cx="617.9" cy="36.0" r="3" fill="#4aa3ff"/><circle cx="622.1" cy="36.0" r="3" fill="#4aa3ff"/><circle cx="626.3" cy="36.0" r="3" fill="#4aa3ff"/><circle cx="630.5" cy="36.0" r="3" fill="#4aa3ff"/><circle cx="634.7" cy="36.0" r="3" fill="#4aa3ff"/><circle cx="638.9" cy="36.0" r="3" fill="#4aa3ff"/><circle cx="643.1" cy="36.0" r="3" fill="#4aa3ff"/><circle cx="647.3" cy="36.0" r="3" fill="#4aa3ff"/><circle cx="651.4" cy="36.0" r="3" fill="#4aa3ff"/><circle cx="655.6" cy="36.0" r="3" fill="#4aa3ff"/><circle cx="659.8" cy="36.0" r="3" fill="#4aa3ff"/><circle cx="664.0" cy="36.0" r="3" fill="#4aa3ff"/>
<text x="36" y="225" fill="#6b7280" font-size="11">2026-06-26</text>
<text x="664" y="225" fill="#6b7280" font-size="11" text-anchor="end">2026-07-12</text>
<text x="36" y="212" font-family="system-ui,sans-serif" font-size="11">
<tspan fill="#4aa3ff">&#9679; open FPs</tspan>  <tspan fill="#3fb950">&#9679; closed (Anthropic acting)</tspan>  <tspan fill="#8a5a5a">&#9679; harness withdrawn</tspan></text>
<text x="664" y="22" text-anchor="end" font-family="system-ui,sans-serif" font-size="12">
<tspan fill="#4aa3ff">open 800</tspan>  <tspan fill="#3fb950">closed 0</tspan>  <tspan fill="#8a5a5a">harness 0</tspan></text>
</svg>