<svg xmlns="http://www.w3.org/2000/svg" width="700" height="234" viewBox="0 0 700 234" role="img">
<rect width="700" height="234" rx="12" fill="#16181d"/>
<text x="36" y="22" fill="#e8eaed" font-family="system-ui,sans-serif" font-size="14" font-weight="700">Is Anthropic acting? cyber/aup false positives over time</text>
<line x1="36" y1="198.0" x2="664" y2="198.0" stroke="#2a2e37" stroke-width="1"/><text x="30" y="202.0" fill="#6b7280" font-size="11" text-anchor="end">0</text><line x1="36" y1="117.0" x2="664" y2="117.0" stroke="#2a2e37" stroke-width="1"/><text x="30" y="121.0" fill="#6b7280" font-size="11" text-anchor="end">400</text><line x1="36" y1="36.0" x2="664" y2="36.0" stroke="#2a2e37" stroke-width="1"/><text x="30" y="40.0" fill="#6b7280" font-size="11" text-anchor="end">800</text>

<polyline fill="none" stroke="#8a5a5a" stroke-width="2.5" stroke-linejoin="round" points="36.0,145.1 39.4,145.1 42.8,145.1 46.1,145.1 49.5,145.1 52.9,145.1 56.3,145.1 59.6,145.1 63.0,145.1 66.4,145.1 69.8,145.1 73.1,145.1 76.5,145.1 79.9,145.1 83.3,145.1 86.6,145.1 90.0,145.1 93.4,145.1 96.8,145.1 100.2,145.1 103.5,145.1 106.9,145.1 110.3,145.1 113.7,145.1 117.0,145.1 120.4,145.1 123.8,145.1 127.2,145.1 130.5,145.1 133.9,145.1 137.3,145.1 140.7,145.1 144.0,145.1 147.4,145.1 150.8,145.1 154.2,145.1 157.5,145.1 160.9,145.1 164.3,145.1 167.7,145.1 171.1,145.1 174.4,145.1 177.8,145.1 181.2,145.1 184.6,145.1 187.9,145.1 191.3,145.1 194.7,145.1 198.1,145.1 201.4,145.1 204.8,155.7 208.2,155.7 211.6,155.7 214.9,155.7 218.3,155.7 221.7,155.7 225.1,155.7 228.5,155.7 231.8,155.7 235.2,155.7 238.6,155.7 242.0,155.7 245.3,155.7 248.7,155.7 252.1,155.7 255.5,155.7 258.8,155.7 262.2,155.7 265.6,155.7 269.0,155.7 272.3,155.7 275.7,155.7 279.1,155.7 282.5,155.7 285.8,155.7 289.2,155.7 292.6,155.7 296.0,155.7 299.4,155.7 302.7,155.7 306.1,155.7 309.5,155.7 312.9,155.7 316.2,155.7 319.6,167.6 323.0,167.6 326.4,170.3 329.7,170.3 333.1,170.5 336.5,170.7 339.9,170.7 343.2,170.9 346.6,172.7 350.0,180.6 353.4,181.8 356.8,189.1 360.1,190.5 363.5,195.2 366.9,198.0 370.3,198.0 373.6,198.0 377.0,198.0 380.4,198.0 383.8,198.0 387.1,198.0 390.5,198.0 393.9,198.0 397.3,198.0 400.6,198.0 404.0,198.0 407.4,198.0 410.8,198.0 414.2,198.0 417.5,198.0 420.9,198.0 424.3,198.0 427.7,198.0 431.0,198.0 434.4,198.0 437.8,198.0 441.2,198.0 444.5,198.0 447.9,198.0 451.3,198.0 454.7,198.0 458.0,198.0 461.4,198.0 464.8,198.0 468.2,198.0 471.5,198.0 474.9,198.0 478.3,198.0 481.7,198.0 485.1,198.0 488.4,198.0 491.8,198.0 495.2,198.0 498.6,198.0 501.9,198.0 505.3,198.0 508.7,198.0 512.1,198.0 515.4,198.0 518.8,198.0 522.2,198.0 525.6,198.0 528.9,198.0 532.3,198.0 535.7,198.0 539.1,198.0 542.5,198.0 545.8,198.0 549.2,198.0 552.6,198.0 556.0,198.0 559.3,198.0 562.7,198.0 566.1,198.0 569.5,198.0 572.8,198.0 576.2,198.0 579.6,198.0 583.0,198.0 586.3,198.0 589.7,198.0 593.1,198.0 596.5,198.0 599.8,198.0 603.2,198.0 606.6,198.0 610.0,198.0 613.4,198.0 616.7,198.0 620.1,198.0 623.5,198.0 626.9,198.0 630.2,198.0 633.6,198.0 637.0,198.0 640.4,198.0 643.7,198.0 647.1,198.0 650.5,198.0 653.9,198.0 657.2,198.0 660.6,198.0 664.0,198.0"/><circle cx="36.0" cy="145.1" r="3" fill="#8a5a5a"/><circle cx="39.4" cy="145.1" r="3" fill="#8a5a5a"/><circle cx="42.8" cy="145.1" r="3" fill="#8a5a5a"/><circle cx="46.1" cy="145.1" r="3" fill="#8a5a5a"/><circle cx="49.5" cy="145.1" r="3" fill="#8a5a5a"/><circle cx="52.9" cy="145.1" r="3" fill="#8a5a5a"/><circle cx="56.3" cy="145.1" r="3" fill="#8a5a5a"/><circle cx="59.6" cy="145.1" r="3" fill="#8a5a5a"/><circle cx="63.0" cy="145.1" r="3" fill="#8a5a5a"/><circle cx="66.4" cy="145.1" r="3" fill="#8a5a5a"/><circle cx="69.8" cy="145.1" r="3" fill="#8a5a5a"/><circle cx="73.1" cy="145.1" r="3" fill="#8a5a5a"/><circle cx="76.5" cy="145.1" r="3" fill="#8a5a5a"/><circle cx="79.9" cy="145.1" r="3" fill="#8a5a5a"/><circle cx="83.3" cy="145.1" r="3" fill="#8a5a5a"/><circle cx="86.6" cy="145.1" r="3" fill="#8a5a5a"/><circle cx="90.0" cy="145.1" r="3" fill="#8a5a5a"/><circle cx="93.4" cy="145.1" r="3" fill="#8a5a5a"/><circle cx="96.8" cy="145.1" r="3" fill="#8a5a5a"/><circle cx="100.2" cy="145.1" r="3" fill="#8a5a5a"/><circle cx="103.5" cy="145.1" r="3" fill="#8a5a5a"/><circle cx="106.9" cy="145.1" r="3" fill="#8a5a5a"/><circle cx="110.3" cy="145.1" r="3" fill="#8a5a5a"/><circle cx="113.7" cy="145.1" r="3" fill="#8a5a5a"/><circle cx="117.0" cy="145.1" r="3" fill="#8a5a5a"/><circle cx="120.4" cy="145.1" r="3" fill="#8a5a5a"/><circle cx="123.8" cy="145.1" r="3" fill="#8a5a5a"/><circle cx="127.2" cy="145.1" r="3" fill="#8a5a5a"/><circle cx="130.5" cy="145.1" r="3" fill="#8a5a5a"/><circle cx="133.9" cy="145.1" r="3" fill="#8a5a5a"/><circle cx="137.3" cy="145.1" r="3" fill="#8a5a5a"/><circle cx="140.7" cy="145.1" r="3" fill="#8a5a5a"/><circle cx="144.0" cy="145.1" r="3" fill="#8a5a5a"/><circle cx="147.4" cy="145.1" r="3" fill="#8a5a5a"/><circle cx="150.8" cy="145.1" r="3" fill="#8a5a5a"/><circle cx="154.2" cy="145.1" r="3" fill="#8a5a5a"/><circle cx="157.5" cy="145.1" r="3" fill="#8a5a5a"/><circle cx="160.9" cy="145.1" r="3" fill="#8a5a5a"/><circle cx="164.3" cy="145.1" r="3" fill="#8a5a5a"/><circle cx="167.7" cy="145.1" r="3" fill="#8a5a5a"/><circle cx="171.1" cy="145.1" r="3" fill="#8a5a5a"/><circle cx="174.4" cy="145.1" r="3" fill="#8a5a5a"/><circle cx="177.8" cy="145.1" r="3" fill="#8a5a5a"/><circle cx="181.2" cy="145.1" r="3" fill="#8a5a5a"/><circle cx="184.6" cy="145.1" r="3" fill="#8a5a5a"/><circle cx="187.9" cy="145.1" r="3" fill="#8a5a5a"/><circle cx="191.3" cy="145.1" r="3" fill="#8a5a5a"/><circle cx="194.7" cy="145.1" r="3" fill="#8a5a5a"/><circle cx="198.1" cy="145.1" r="3" fill="#8a5a5a"/><circle cx="201.4" cy="145.1" r="3" fill="#8a5a5a"/><circle cx="204.8" cy="155.7" r="3" fill="#8a5a5a"/><circle cx="208.2" cy="155.7" r="3" fill="#8a5a5a"/><circle cx="211.6" cy="155.7" r="3" fill="#8a5a5a"/><circle cx="214.9" cy="155.7" r="3" fill="#8a5a5a"/><circle cx="218.3" cy="155.7" r="3" fill="#8a5a5a"/><circle cx="221.7" cy="155.7" r="3" fill="#8a5a5a"/><circle cx="225.1" cy="155.7" r="3" fill="#8a5a5a"/><circle cx="228.5" cy="155.7" r="3" fill="#8a5a5a"/><circle cx="231.8" cy="155.7" r="3" fill="#8a5a5a"/><circle cx="235.2" cy="155.7" r="3" fill="#8a5a5a"/><circle cx="238.6" cy="155.7" r="3" fill="#8a5a5a"/><circle cx="242.0" cy="155.7" r="3" fill="#8a5a5a"/><circle cx="245.3" cy="155.7" r="3" fill="#8a5a5a"/><circle cx="248.7" cy="155.7" r="3" fill="#8a5a5a"/><circle cx="252.1" cy="155.7" r="3" fill="#8a5a5a"/><circle cx="255.5" cy="155.7" r="3" fill="#8a5a5a"/><circle cx="258.8" cy="155.7" r="3" fill="#8a5a5a"/><circle cx="262.2" cy="155.7" r="3" fill="#8a5a5a"/><circle cx="265.6" cy="155.7" r="3" fill="#8a5a5a"/><circle cx="269.0" cy="155.7" r="3" fill="#8a5a5a"/><circle cx="272.3" cy="155.7" r="3" fill="#8a5a5a"/><circle cx="275.7" cy="155.7" r="3" fill="#8a5a5a"/><circle cx="279.1" cy="155.7" r="3" fill="#8a5a5a"/><circle cx="282.5" cy="155.7" r="3" fill="#8a5a5a"/><circle cx="285.8" cy="155.7" r="3" fill="#8a5a5a"/><circle cx="289.2" cy="155.7" r="3" fill="#8a5a5a"/><circle cx="292.6" cy="155.7" r="3" fill="#8a5a5a"/><circle cx="296.0" cy="155.7" r="3" fill="#8a5a5a"/><circle cx="299.4" cy="155.7" r="3" fill="#8a5a5a"/><circle cx="302.7" cy="155.7" r="3" fill="#8a5a5a"/><circle cx="306.1" cy="155.7" r="3" fill="#8a5a5a"/><circle cx="309.5" cy="155.7" r="3" fill="#8a5a5a"/><circle cx="312.9" cy="155.7" r="3" fill="#8a5a5a"/><circle cx="316.2" cy="155.7" r="3" fill="#8a5a5a"/><circle cx="319.6" cy="167.6" r="3" fill="#8a5a5a"/><circle cx="323.0" cy="167.6" r="3" fill="#8a5a5a"/><circle cx="326.4" cy="170.3" r="3" fill="#8a5a5a"/><circle cx="329.7" cy="170.3" r="3" fill="#8a5a5a"/><circle cx="333.1" cy="170.5" r="3" fill="#8a5a5a"/><circle cx="336.5" cy="170.7" r="3" fill="#8a5a5a"/><circle cx="339.9" cy="170.7" r="3" fill="#8a5a5a"/><circle cx="343.2" cy="170.9" r="3" fill="#8a5a5a"/><circle cx="346.6" cy="172.7" r="3" fill="#8a5a5a"/><circle cx="350.0" cy="180.6" r="3" fill="#8a5a5a"/><circle cx="353.4" cy="181.8" r="3" fill="#8a5a5a"/><circle cx="356.8" cy="189.1" r="3" fill="#8a5a5a"/><circle cx="360.1" cy="190.5" r="3" fill="#8a5a5a"/><circle cx="363.5" cy="195.2" r="3" fill="#8a5a5a"/><circle cx="366.9" cy="198.0" r="3" fill="#8a5a5a"/><circle cx="370.3" cy="198.0" r="3" fill="#8a5a5a"/><circle cx="373.6" cy="198.0" r="3" fill="#8a5a5a"/><circle cx="377.0" cy="198.0" r="3" fill="#8a5a5a"/><circle cx="380.4" cy="198.0" r="3" fill="#8a5a5a"/><circle cx="383.8" cy="198.0" r="3" fill="#8a5a5a"/><circle cx="387.1" cy="198.0" r="3" fill="#8a5a5a"/><circle cx="390.5" cy="198.0" r="3" fill="#8a5a5a"/><circle cx="393.9" cy="198.0" r="3" fill="#8a5a5a"/><circle cx="397.3" cy="198.0" r="3" fill="#8a5a5a"/><circle cx="400.6" cy="198.0" r="3" fill="#8a5a5a"/><circle cx="404.0" cy="198.0" r="3" fill="#8a5a5a"/><circle cx="407.4" cy="198.0" r="3" fill="#8a5a5a"/><circle cx="410.8" cy="198.0" r="3" fill="#8a5a5a"/><circle cx="414.2" cy="198.0" r="3" fill="#8a5a5a"/><circle cx="417.5" cy="198.0" r="3" fill="#8a5a5a"/><circle cx="420.9" cy="198.0" r="3" fill="#8a5a5a"/><circle cx="424.3" cy="198.0" r="3" fill="#8a5a5a"/><circle cx="427.7" cy="198.0" r="3" fill="#8a5a5a"/><circle cx="431.0" cy="198.0" r="3" fill="#8a5a5a"/><circle cx="434.4" cy="198.0" r="3" fill="#8a5a5a"/><circle cx="437.8" cy="198.0" r="3" fill="#8a5a5a"/><circle cx="441.2" cy="198.0" r="3" fill="#8a5a5a"/><circle cx="444.5" cy="198.0" r="3" fill="#8a5a5a"/><circle cx="447.9" cy="198.0" r="3" fill="#8a5a5a"/><circle cx="451.3" cy="198.0" r="3" fill="#8a5a5a"/><circle cx="454.7" cy="198.0" r="3" fill="#8a5a5a"/><circle cx="458.0" cy="198.0" r="3" fill="#8a5a5a"/><circle cx="461.4" cy="198.0" r="3" fill="#8a5a5a"/><circle cx="464.8" cy="198.0" r="3" fill="#8a5a5a"/><circle cx="468.2" cy="198.0" r="3" fill="#8a5a5a"/><circle cx="471.5" cy="198.0" r="3" fill="#8a5a5a"/><circle cx="474.9" cy="198.0" r="3" fill="#8a5a5a"/><circle cx="478.3" cy="198.0" r="3" fill="#8a5a5a"/><circle cx="481.7" cy="198.0" r="3" fill="#8a5a5a"/><circle cx="485.1" cy="198.0" r="3" fill="#8a5a5a"/><circle cx="488.4" cy="198.0" r="3" fill="#8a5a5a"/><circle cx="491.8" cy="198.0" r="3" fill="#8a5a5a"/><circle cx="495.2" cy="198.0" r="3" fill="#8a5a5a"/><circle cx="498.6" cy="198.0" r="3" fill="#8a5a5a"/><circle cx="501.9" cy="198.0" r="3" fill="#8a5a5a"/><circle cx="505.3" cy="198.0" r="3" fill="#8a5a5a"/><circle cx="508.7" cy="198.0" r="3" fill="#8a5a5a"/><circle cx="512.1" cy="198.0" r="3" fill="#8a5a5a"/><circle cx="515.4" cy="198.0" r="3" fill="#8a5a5a"/><circle cx="518.8" cy="198.0" r="3" fill="#8a5a5a"/><circle cx="522.2" cy="198.0" r="3" fill="#8a5a5a"/><circle cx="525.6" cy="198.0" r="3" fill="#8a5a5a"/><circle cx="528.9" cy="198.0" r="3" fill="#8a5a5a"/><circle cx="532.3" cy="198.0" r="3" fill="#8a5a5a"/><circle cx="535.7" cy="198.0" r="3" fill="#8a5a5a"/><circle cx="539.1" cy="198.0" r="3" fill="#8a5a5a"/><circle cx="542.5" cy="198.0" r="3" fill="#8a5a5a"/><circle cx="545.8" cy="198.0" r="3" fill="#8a5a5a"/><circle cx="549.2" cy="198.0" r="3" fill="#8a5a5a"/><circle cx="552.6" cy="198.0" r="3" fill="#8a5a5a"/><circle cx="556.0" cy="198.0" r="3" fill="#8a5a5a"/><circle cx="559.3" cy="198.0" r="3" fill="#8a5a5a"/><circle cx="562.7" cy="198.0" r="3" fill="#8a5a5a"/><circle cx="566.1" cy="198.0" r="3" fill="#8a5a5a"/><circle cx="569.5" cy="198.0" r="3" fill="#8a5a5a"/><circle cx="572.8" cy="198.0" r="3" fill="#8a5a5a"/><circle cx="576.2" cy="198.0" r="3" fill="#8a5a5a"/><circle cx="579.6" cy="198.0" r="3" fill="#8a5a5a"/><circle cx="583.0" cy="198.0" r="3" fill="#8a5a5a"/><circle cx="586.3" cy="198.0" r="3" fill="#8a5a5a"/><circle cx="589.7" cy="198.0" r="3" fill="#8a5a5a"/><circle cx="593.1" cy="198.0" r="3" fill="#8a5a5a"/><circle cx="596.5" cy="198.0" r="3" fill="#8a5a5a"/><circle cx="599.8" cy="198.0" r="3" fill="#8a5a5a"/><circle cx="603.2" cy="198.0" r="3" fill="#8a5a5a"/><circle cx="606.6" cy="198.0" r="3" fill="#8a5a5a"/><circle cx="610.0" cy="198.0" r="3" fill="#8a5a5a"/><circle cx="613.4" cy="198.0" r="3" fill="#8a5a5a"/><circle cx="616.7" cy="198.0" r="3" fill="#8a5a5a"/><circle cx="620.1" cy="198.0" r="3" fill="#8a5a5a"/><circle cx="623.5" cy="198.0" r="3" fill="#8a5a5a"/><circle cx="626.9" cy="198.0" r="3" fill="#8a5a5a"/><circle cx="630.2" cy="198.0" r="3" fill="#8a5a5a"/><circle cx="633.6" cy="198.0" r="3" fill="#8a5a5a"/><circle cx="637.0" cy="198.0" r="3" fill="#8a5a5a"/><circle cx="640.4" cy="198.0" r="3" fill="#8a5a5a"/><circle cx="643.7" cy="198.0" r="3" fill="#8a5a5a"/><circle cx="647.1" cy="198.0" r="3" fill="#8a5a5a"/><circle cx="650.5" cy="198.0" r="3" fill="#8a5a5a"/><circle cx="653.9" cy="198.0" r="3" fill="#8a5a5a"/><circle cx="657.2" cy="198.0" r="3" fill="#8a5a5a"/><circle cx="660.6" cy="198.0" r="3" fill="#8a5a5a"/><circle cx="664.0" cy="198.0" r="3" fill="#8a5a5a"/>
<polyline fill="none" stroke="#3fb950" stroke-width="2.5" stroke-linejoin="round" points="36.0,198.0 39.4,198.0 42.8,198.0 46.1,198.0 49.5,198.0 52.9,198.0 56.3,198.0 59.6,198.0 63.0,198.0 66.4,198.0 69.8,198.0 73.1,198.0 76.5,198.0 79.9,198.0 83.3,198.0 86.6,198.0 90.0,198.0 93.4,198.0 96.8,198.0 100.2,198.0 103.5,198.0 106.9,198.0 110.3,198.0 113.7,198.0 117.0,198.0 120.4,198.0 123.8,198.0 127.2,198.0 130.5,198.0 133.9,198.0 137.3,198.0 140.7,198.0 144.0,198.0 147.4,198.0 150.8,198.0 154.2,198.0 157.5,198.0 160.9,198.0 164.3,198.0 167.7,198.0 171.1,198.0 174.4,198.0 177.8,198.0 181.2,191.7 184.6,191.7 187.9,191.7 191.3,191.7 194.7,191.7 198.1,191.7 201.4,191.7 204.8,192.9 208.2,192.9 211.6,190.7 214.9,190.7 218.3,190.7 221.7,190.7 225.1,190.7 228.5,190.5 231.8,190.5 235.2,190.5 238.6,190.3 242.0,190.3 245.3,190.3 248.7,190.3 252.1,190.3 255.5,190.3 258.8,190.3 262.2,190.3 265.6,190.3 269.0,190.3 272.3,190.3 275.7,190.3 279.1,190.3 282.5,190.3 285.8,190.3 289.2,190.3 292.6,190.3 296.0,190.3 299.4,190.3 302.7,190.3 306.1,190.3 309.5,189.3 312.9,189.3 316.2,189.3 319.6,190.7 323.0,190.7 326.4,190.7 329.7,190.7 333.1,190.7 336.5,190.7 339.9,190.7 343.2,190.7 346.6,190.7 350.0,190.9 353.4,190.9 356.8,190.9 360.1,194.2 363.5,196.8 366.9,198.0 370.3,198.0 373.6,198.0 377.0,198.0 380.4,198.0 383.8,198.0 387.1,198.0 390.5,198.0 393.9,198.0 397.3,198.0 400.6,198.0 404.0,198.0 407.4,198.0 410.8,198.0 414.2,198.0 417.5,198.0 420.9,198.0 424.3,198.0 427.7,198.0 431.0,198.0 434.4,198.0 437.8,198.0 441.2,198.0 444.5,198.0 447.9,198.0 451.3,198.0 454.7,198.0 458.0,198.0 461.4,198.0 464.8,198.0 468.2,198.0 471.5,198.0 474.9,198.0 478.3,198.0 481.7,198.0 485.1,198.0 488.4,198.0 491.8,198.0 495.2,198.0 498.6,198.0 501.9,198.0 505.3,198.0 508.7,198.0 512.1,198.0 515.4,198.0 518.8,198.0 522.2,198.0 525.6,198.0 528.9,198.0 532.3,198.0 535.7,198.0 539.1,198.0 542.5,198.0 545.8,198.0 549.2,198.0 552.6,198.0 556.0,198.0 559.3,198.0 562.7,198.0 566.1,198.0 569.5,198.0 572.8,198.0 576.2,198.0 579.6,198.0 583.0,198.0 586.3,198.0 589.7,198.0 593.1,198.0 596.5,198.0 599.8,198.0 603.2,198.0 606.6,198.0 610.0,198.0 613.4,198.0 616.7,198.0 620.1,198.0 623.5,198.0 626.9,198.0 630.2,198.0 633.6,198.0 637.0,198.0 640.4,198.0 643.7,198.0 647.1,198.0 650.5,198.0 653.9,198.0 657.2,198.0 660.6,198.0 664.0,198.0"/><circle cx="36.0" cy="198.0" r="3" fill="#3fb950"/><circle cx="39.4" cy="198.0" r="3" fill="#3fb950"/><circle cx="42.8" cy="198.0" r="3" fill="#3fb950"/><circle cx="46.1" cy="198.0" r="3" fill="#3fb950"/><circle cx="49.5" cy="198.0" r="3" fill="#3fb950"/><circle cx="52.9" cy="198.0" r="3" fill="#3fb950"/><circle cx="56.3" cy="198.0" r="3" fill="#3fb950"/><circle cx="59.6" cy="198.0" r="3" fill="#3fb950"/><circle cx="63.0" cy="198.0" r="3" fill="#3fb950"/><circle cx="66.4" cy="198.0" r="3" fill="#3fb950"/><circle cx="69.8" cy="198.0" r="3" fill="#3fb950"/><circle cx="73.1" cy="198.0" r="3" fill="#3fb950"/><circle cx="76.5" cy="198.0" r="3" fill="#3fb950"/><circle cx="79.9" cy="198.0" r="3" fill="#3fb950"/><circle cx="83.3" cy="198.0" r="3" fill="#3fb950"/><circle cx="86.6" cy="198.0" r="3" fill="#3fb950"/><circle cx="90.0" cy="198.0" r="3" fill="#3fb950"/><circle cx="93.4" cy="198.0" r="3" fill="#3fb950"/><circle cx="96.8" cy="198.0" r="3" fill="#3fb950"/><circle cx="100.2" cy="198.0" r="3" fill="#3fb950"/><circle cx="103.5" cy="198.0" r="3" fill="#3fb950"/><circle cx="106.9" cy="198.0" r="3" fill="#3fb950"/><circle cx="110.3" cy="198.0" r="3" fill="#3fb950"/><circle cx="113.7" cy="198.0" r="3" fill="#3fb950"/><circle cx="117.0" cy="198.0" r="3" fill="#3fb950"/><circle cx="120.4" cy="198.0" r="3" fill="#3fb950"/><circle cx="123.8" cy="198.0" r="3" fill="#3fb950"/><circle cx="127.2" cy="198.0" r="3" fill="#3fb950"/><circle cx="130.5" cy="198.0" r="3" fill="#3fb950"/><circle cx="133.9" cy="198.0" r="3" fill="#3fb950"/><circle cx="137.3" cy="198.0" r="3" fill="#3fb950"/><circle cx="140.7" cy="198.0" r="3" fill="#3fb950"/><circle cx="144.0" cy="198.0" r="3" fill="#3fb950"/><circle cx="147.4" cy="198.0" r="3" fill="#3fb950"/><circle cx="150.8" cy="198.0" r="3" fill="#3fb950"/><circle cx="154.2" cy="198.0" r="3" fill="#3fb950"/><circle cx="157.5" cy="198.0" r="3" fill="#3fb950"/><circle cx="160.9" cy="198.0" r="3" fill="#3fb950"/><circle cx="164.3" cy="198.0" r="3" fill="#3fb950"/><circle cx="167.7" cy="198.0" r="3" fill="#3fb950"/><circle cx="171.1" cy="198.0" r="3" fill="#3fb950"/><circle cx="174.4" cy="198.0" r="3" fill="#3fb950"/><circle cx="177.8" cy="198.0" r="3" fill="#3fb950"/><circle cx="181.2" cy="191.7" r="3" fill="#3fb950"/><circle cx="184.6" cy="191.7" r="3" fill="#3fb950"/><circle cx="187.9" cy="191.7" r="3" fill="#3fb950"/><circle cx="191.3" cy="191.7" r="3" fill="#3fb950"/><circle cx="194.7" cy="191.7" r="3" fill="#3fb950"/><circle cx="198.1" cy="191.7" r="3" fill="#3fb950"/><circle cx="201.4" cy="191.7" r="3" fill="#3fb950"/><circle cx="204.8" cy="192.9" r="3" fill="#3fb950"/><circle cx="208.2" cy="192.9" r="3" fill="#3fb950"/><circle cx="211.6" cy="190.7" r="3" fill="#3fb950"/><circle cx="214.9" cy="190.7" r="3" fill="#3fb950"/><circle cx="218.3" cy="190.7" r="3" fill="#3fb950"/><circle cx="221.7" cy="190.7" r="3" fill="#3fb950"/><circle cx="225.1" cy="190.7" r="3" fill="#3fb950"/><circle cx="228.5" cy="190.5" r="3" fill="#3fb950"/><circle cx="231.8" cy="190.5" r="3" fill="#3fb950"/><circle cx="235.2" cy="190.5" r="3" fill="#3fb950"/><circle cx="238.6" cy="190.3" r="3" fill="#3fb950"/><circle cx="242.0" cy="190.3" r="3" fill="#3fb950"/><circle cx="245.3" cy="190.3" r="3" fill="#3fb950"/><circle cx="248.7" cy="190.3" r="3" fill="#3fb950"/><circle cx="252.1" cy="190.3" r="3" fill="#3fb950"/><circle cx="255.5" cy="190.3" r="3" fill="#3fb950"/><circle cx="258.8" cy="190.3" r="3" fill="#3fb950"/><circle cx="262.2" cy="190.3" r="3" fill="#3fb950"/><circle cx="265.6" cy="190.3" r="3" fill="#3fb950"/><circle cx="269.0" cy="190.3" r="3" fill="#3fb950"/><circle cx="272.3" cy="190.3" r="3" fill="#3fb950"/><circle cx="275.7" cy="190.3" r="3" fill="#3fb950"/><circle cx="279.1" cy="190.3" r="3" fill="#3fb950"/><circle cx="282.5" cy="190.3" r="3" fill="#3fb950"/><circle cx="285.8" cy="190.3" r="3" fill="#3fb950"/><circle cx="289.2" cy="190.3" r="3" fill="#3fb950"/><circle cx="292.6" cy="190.3" r="3" fill="#3fb950"/><circle cx="296.0" cy="190.3" r="3" fill="#3fb950"/><circle cx="299.4" cy="190.3" r="3" fill="#3fb950"/><circle cx="302.7" cy="190.3" r="3" fill="#3fb950"/><circle cx="306.1" cy="190.3" r="3" fill="#3fb950"/><circle cx="309.5" cy="189.3" r="3" fill="#3fb950"/><circle cx="312.9" cy="189.3" r="3" fill="#3fb950"/><circle cx="316.2" cy="189.3" r="3" fill="#3fb950"/><circle cx="319.6" cy="190.7" r="3" fill="#3fb950"/><circle cx="323.0" cy="190.7" r="3" fill="#3fb950"/><circle cx="326.4" cy="190.7" r="3" fill="#3fb950"/><circle cx="329.7" cy="190.7" r="3" fill="#3fb950"/><circle cx="333.1" cy="190.7" r="3" fill="#3fb950"/><circle cx="336.5" cy="190.7" r="3" fill="#3fb950"/><circle cx="339.9" cy="190.7" r="3" fill="#3fb950"/><circle cx="343.2" cy="190.7" r="3" fill="#3fb950"/><circle cx="346.6" cy="190.7" r="3" fill="#3fb950"/><circle cx="350.0" cy="190.9" r="3" fill="#3fb950"/><circle cx="353.4" cy="190.9" r="3" fill="#3fb950"/><circle cx="356.8" cy="190.9" r="3" fill="#3fb950"/><circle cx="360.1" cy="194.2" r="3" fill="#3fb950"/><circle cx="363.5" cy="196.8" r="3" fill="#3fb950"/><circle cx="366.9" cy="198.0" r="3" fill="#3fb950"/><circle cx="370.3" cy="198.0" r="3" fill="#3fb950"/><circle cx="373.6" cy="198.0" r="3" fill="#3fb950"/><circle cx="377.0" cy="198.0" r="3" fill="#3fb950"/><circle cx="380.4" cy="198.0" r="3" fill="#3fb950"/><circle cx="383.8" cy="198.0" r="3" fill="#3fb950"/><circle cx="387.1" cy="198.0" r="3" fill="#3fb950"/><circle cx="390.5" cy="198.0" r="3" fill="#3fb950"/><circle cx="393.9" cy="198.0" r="3" fill="#3fb950"/><circle cx="397.3" cy="198.0" r="3" fill="#3fb950"/><circle cx="400.6" cy="198.0" r="3" fill="#3fb950"/><circle cx="404.0" cy="198.0" r="3" fill="#3fb950"/><circle cx="407.4" cy="198.0" r="3" fill="#3fb950"/><circle cx="410.8" cy="198.0" r="3" fill="#3fb950"/><circle cx="414.2" cy="198.0" r="3" fill="#3fb950"/><circle cx="417.5" cy="198.0" r="3" fill="#3fb950"/><circle cx="420.9" cy="198.0" r="3" fill="#3fb950"/><circle cx="424.3" cy="198.0" r="3" fill="#3fb950"/><circle cx="427.7" cy="198.0" r="3" fill="#3fb950"/><circle cx="431.0" cy="198.0" r="3" fill="#3fb950"/><circle cx="434.4" cy="198.0" r="3" fill="#3fb950"/><circle cx="437.8" cy="198.0" r="3" fill="#3fb950"/><circle cx="441.2" cy="198.0" r="3" fill="#3fb950"/><circle cx="444.5" cy="198.0" r="3" fill="#3fb950"/><circle cx="447.9" cy="198.0" r="3" fill="#3fb950"/><circle cx="451.3" cy="198.0" r="3" fill="#3fb950"/><circle cx="454.7" cy="198.0" r="3" fill="#3fb950"/><circle cx="458.0" cy="198.0" r="3" fill="#3fb950"/><circle cx="461.4" cy="198.0" r="3" fill="#3fb950"/><circle cx="464.8" cy="198.0" r="3" fill="#3fb950"/><circle cx="468.2" cy="198.0" r="3" fill="#3fb950"/><circle cx="471.5" cy="198.0" r="3" fill="#3fb950"/><circle cx="474.9" cy="198.0" r="3" fill="#3fb950"/><circle cx="478.3" cy="198.0" r="3" fill="#3fb950"/><circle cx="481.7" cy="198.0" r="3" fill="#3fb950"/><circle cx="485.1" cy="198.0" r="3" fill="#3fb950"/><circle cx="488.4" cy="198.0" r="3" fill="#3fb950"/><circle cx="491.8" cy="198.0" r="3" fill="#3fb950"/><circle cx="495.2" cy="198.0" r="3" fill="#3fb950"/><circle cx="498.6" cy="198.0" r="3" fill="#3fb950"/><circle cx="501.9" cy="198.0" r="3" fill="#3fb950"/><circle cx="505.3" cy="198.0" r="3" fill="#3fb950"/><circle cx="508.7" cy="198.0" r="3" fill="#3fb950"/><circle cx="512.1" cy="198.0" r="3" fill="#3fb950"/><circle cx="515.4" cy="198.0" r="3" fill="#3fb950"/><circle cx="518.8" cy="198.0" r="3" fill="#3fb950"/><circle cx="522.2" cy="198.0" r="3" fill="#3fb950"/><circle cx="525.6" cy="198.0" r="3" fill="#3fb950"/><circle cx="528.9" cy="198.0" r="3" fill="#3fb950"/><circle cx="532.3" cy="198.0" r="3" fill="#3fb950"/><circle cx="535.7" cy="198.0" r="3" fill="#3fb950"/><circle cx="539.1" cy="198.0" r="3" fill="#3fb950"/><circle cx="542.5" cy="198.0" r="3" fill="#3fb950"/><circle cx="545.8" cy="198.0" r="3" fill="#3fb950"/><circle cx="549.2" cy="198.0" r="3" fill="#3fb950"/><circle cx="552.6" cy="198.0" r="3" fill="#3fb950"/><circle cx="556.0" cy="198.0" r="3" fill="#3fb950"/><circle cx="559.3" cy="198.0" r="3" fill="#3fb950"/><circle cx="562.7" cy="198.0" r="3" fill="#3fb950"/><circle cx="566.1" cy="198.0" r="3" fill="#3fb950"/><circle cx="569.5" cy="198.0" r="3" fill="#3fb950"/><circle cx="572.8" cy="198.0" r="3" fill="#3fb950"/><circle cx="576.2" cy="198.0" r="3" fill="#3fb950"/><circle cx="579.6" cy="198.0" r="3" fill="#3fb950"/><circle cx="583.0" cy="198.0" r="3" fill="#3fb950"/><circle cx="586.3" cy="198.0" r="3" fill="#3fb950"/><circle cx="589.7" cy="198.0" r="3" fill="#3fb950"/><circle cx="593.1" cy="198.0" r="3" fill="#3fb950"/><circle cx="596.5" cy="198.0" r="3" fill="#3fb950"/><circle cx="599.8" cy="198.0" r="3" fill="#3fb950"/><circle cx="603.2" cy="198.0" r="3" fill="#3fb950"/><circle cx="606.6" cy="198.0" r="3" fill="#3fb950"/><circle cx="610.0" cy="198.0" r="3" fill="#3fb950"/><circle cx="613.4" cy="198.0" r="3" fill="#3fb950"/><circle cx="616.7" cy="198.0" r="3" fill="#3fb950"/><circle cx="620.1" cy="198.0" r="3" fill="#3fb950"/><circle cx="623.5" cy="198.0" r="3" fill="#3fb950"/><circle cx="626.9" cy="198.0" r="3" fill="#3fb950"/><circle cx="630.2" cy="198.0" r="3" fill="#3fb950"/><circle cx="633.6" cy="198.0" r="3" fill="#3fb950"/><circle cx="637.0" cy="198.0" r="3" fill="#3fb950"/><circle cx="640.4" cy="198.0" r="3" fill="#3fb950"/><circle cx="643.7" cy="198.0" r="3" fill="#3fb950"/><circle cx="647.1" cy="198.0" r="3" fill="#3fb950"/><circle cx="650.5" cy="198.0" r="3" fill="#3fb950"/><circle cx="653.9" cy="198.0" r="3" fill="#3fb950"/><circle cx="657.2" cy="198.0" r="3" fill="#3fb950"/><circle cx="660.6" cy="198.0" r="3" fill="#3fb950"/><circle cx="664.0" cy="198.0" r="3" fill="#3fb950"/>
<polyline fill="none" stroke="#4aa3ff" stroke-width="2.5" stroke-linejoin="round" points="36.0,144.3 39.4,144.3 42.8,144.3 46.1,144.3 49.5,144.3 52.9,144.3 56.3,144.3 59.6,144.3 63.0,144.3 66.4,144.3 69.8,144.3 73.1,144.3 76.5,144.3 79.9,144.3 83.3,144.3 86.6,136.2 90.0,132.4 93.4,129.6 96.8,129.6 100.2,121.0 103.5,121.0 106.9,121.0 110.3,114.4 113.7,114.4 117.0,114.4 120.4,111.3 123.8,110.9 127.2,110.9 130.5,110.5 133.9,110.5 137.3,109.9 140.7,108.7 144.0,107.3 147.4,106.9 150.8,106.9 154.2,106.9 157.5,106.9 160.9,106.9 164.3,106.9 167.7,106.9 171.1,106.9 174.4,106.9 177.8,106.9 181.2,113.2 184.6,113.2 187.9,113.2 191.3,113.2 194.7,113.2 198.1,110.7 201.4,105.3 204.8,83.4 208.2,83.4 211.6,85.6 214.9,85.6 218.3,85.6 221.7,85.6 225.1,85.6 228.5,85.8 231.8,85.8 235.2,85.8 238.6,86.0 242.0,86.0 245.3,86.0 248.7,86.0 252.1,86.0 255.5,86.0 258.8,86.0 262.2,86.0 265.6,86.0 269.0,86.0 272.3,86.0 275.7,86.0 279.1,86.0 282.5,86.0 285.8,86.0 289.2,86.0 292.6,86.0 296.0,86.0 299.4,86.0 302.7,86.0 306.1,86.0 309.5,87.0 312.9,87.0 316.2,87.0 319.6,73.7 323.0,73.7 326.4,71.0 329.7,71.0 333.1,70.8 336.5,70.6 339.9,70.6 343.2,70.4 346.6,68.6 350.0,60.5 353.4,59.3 356.8,52.0 360.1,47.3 363.5,40.1 366.9,36.0 370.3,36.0 373.6,36.0 377.0,36.0 380.4,36.0 383.8,36.0 387.1,36.0 390.5,36.0 393.9,36.0 397.3,36.0 400.6,36.0 404.0,36.0 407.4,36.0 410.8,36.0 414.2,36.0 417.5,36.0 420.9,36.0 424.3,36.0 427.7,36.0 431.0,36.0 434.4,36.0 437.8,36.0 441.2,36.0 444.5,36.0 447.9,36.0 451.3,36.0 454.7,36.0 458.0,36.0 461.4,36.0 464.8,36.0 468.2,36.0 471.5,36.0 474.9,36.0 478.3,36.0 481.7,36.0 485.1,36.0 488.4,36.0 491.8,36.0 495.2,36.0 498.6,36.0 501.9,36.0 505.3,36.0 508.7,36.0 512.1,36.0 515.4,36.0 518.8,36.0 522.2,36.0 525.6,36.0 528.9,36.0 532.3,36.0 535.7,36.0 539.1,36.0 542.5,36.0 545.8,36.0 549.2,36.0 552.6,36.0 556.0,36.0 559.3,36.0 562.7,36.0 566.1,36.0 569.5,36.0 572.8,36.0 576.2,36.0 579.6,36.0 583.0,36.0 586.3,36.0 589.7,36.0 593.1,36.0 596.5,36.0 599.8,36.0 603.2,36.0 606.6,36.0 610.0,36.0 613.4,36.0 616.7,36.0 620.1,36.0 623.5,36.0 626.9,36.0 630.2,36.0 633.6,36.0 637.0,36.0 640.4,36.0 643.7,36.0 647.1,36.0 650.5,36.0 653.9,36.0 657.2,36.0 660.6,36.0 664.0,36.0"/><circle cx="36.0" cy="144.3" r="3" fill="#4aa3ff"/><circle cx="39.4" cy="144.3" r="3" fill="#4aa3ff"/><circle cx="42.8" cy="144.3" r="3" fill="#4aa3ff"/><circle cx="46.1" cy="144.3" r="3" fill="#4aa3ff"/><circle cx="49.5" cy="144.3" r="3" fill="#4aa3ff"/><circle cx="52.9" cy="144.3" r="3" fill="#4aa3ff"/><circle cx="56.3" cy="144.3" r="3" fill="#4aa3ff"/><circle cx="59.6" cy="144.3" r="3" fill="#4aa3ff"/><circle cx="63.0" cy="144.3" r="3" fill="#4aa3ff"/><circle cx="66.4" cy="144.3" r="3" fill="#4aa3ff"/><circle cx="69.8" cy="144.3" r="3" fill="#4aa3ff"/><circle cx="73.1" cy="144.3" r="3" fill="#4aa3ff"/><circle cx="76.5" cy="144.3" r="3" fill="#4aa3ff"/><circle cx="79.9" cy="144.3" r="3" fill="#4aa3ff"/><circle cx="83.3" cy="144.3" r="3" fill="#4aa3ff"/><circle cx="86.6" cy="136.2" r="3" fill="#4aa3ff"/><circle cx="90.0" cy="132.4" r="3" fill="#4aa3ff"/><circle cx="93.4" cy="129.6" r="3" fill="#4aa3ff"/><circle cx="96.8" cy="129.6" r="3" fill="#4aa3ff"/><circle cx="100.2" cy="121.0" r="3" fill="#4aa3ff"/><circle cx="103.5" cy="121.0" r="3" fill="#4aa3ff"/><circle cx="106.9" cy="121.0" r="3" fill="#4aa3ff"/><circle cx="110.3" cy="114.4" r="3" fill="#4aa3ff"/><circle cx="113.7" cy="114.4" r="3" fill="#4aa3ff"/><circle cx="117.0" cy="114.4" r="3" fill="#4aa3ff"/><circle cx="120.4" cy="111.3" r="3" fill="#4aa3ff"/><circle cx="123.8" cy="110.9" r="3" fill="#4aa3ff"/><circle cx="127.2" cy="110.9" r="3" fill="#4aa3ff"/><circle cx="130.5" cy="110.5" r="3" fill="#4aa3ff"/><circle cx="133.9" cy="110.5" r="3" fill="#4aa3ff"/><circle cx="137.3" cy="109.9" r="3" fill="#4aa3ff"/><circle cx="140.7" cy="108.7" r="3" fill="#4aa3ff"/><circle cx="144.0" cy="107.3" r="3" fill="#4aa3ff"/><circle cx="147.4" cy="106.9" r="3" fill="#4aa3ff"/><circle cx="150.8" cy="106.9" r="3" fill="#4aa3ff"/><circle cx="154.2" cy="106.9" r="3" fill="#4aa3ff"/><circle cx="157.5" cy="106.9" r="3" fill="#4aa3ff"/><circle cx="160.9" cy="106.9" r="3" fill="#4aa3ff"/><circle cx="164.3" cy="106.9" r="3" fill="#4aa3ff"/><circle cx="167.7" cy="106.9" r="3" fill="#4aa3ff"/><circle cx="171.1" cy="106.9" r="3" fill="#4aa3ff"/><circle cx="174.4" cy="106.9" r="3" fill="#4aa3ff"/><circle cx="177.8" cy="106.9" r="3" fill="#4aa3ff"/><circle cx="181.2" cy="113.2" r="3" fill="#4aa3ff"/><circle cx="184.6" cy="113.2" r="3" fill="#4aa3ff"/><circle cx="187.9" cy="113.2" r="3" fill="#4aa3ff"/><circle cx="191.3" cy="113.2" r="3" fill="#4aa3ff"/><circle cx="194.7" cy="113.2" r="3" fill="#4aa3ff"/><circle cx="198.1" cy="110.7" r="3" fill="#4aa3ff"/><circle cx="201.4" cy="105.3" r="3" fill="#4aa3ff"/><circle cx="204.8" cy="83.4" r="3" fill="#4aa3ff"/><circle cx="208.2" cy="83.4" r="3" fill="#4aa3ff"/><circle cx="211.6" cy="85.6" r="3" fill="#4aa3ff"/><circle cx="214.9" cy="85.6" r="3" fill="#4aa3ff"/><circle cx="218.3" cy="85.6" r="3" fill="#4aa3ff"/><circle cx="221.7" cy="85.6" r="3" fill="#4aa3ff"/><circle cx="225.1" cy="85.6" r="3" fill="#4aa3ff"/><circle cx="228.5" cy="85.8" r="3" fill="#4aa3ff"/><circle cx="231.8" cy="85.8" r="3" fill="#4aa3ff"/><circle cx="235.2" cy="85.8" r="3" fill="#4aa3ff"/><circle cx="238.6" cy="86.0" r="3" fill="#4aa3ff"/><circle cx="242.0" cy="86.0" r="3" fill="#4aa3ff"/><circle cx="245.3" cy="86.0" r="3" fill="#4aa3ff"/><circle cx="248.7" cy="86.0" r="3" fill="#4aa3ff"/><circle cx="252.1" cy="86.0" r="3" fill="#4aa3ff"/><circle cx="255.5" cy="86.0" r="3" fill="#4aa3ff"/><circle cx="258.8" cy="86.0" r="3" fill="#4aa3ff"/><circle cx="262.2" cy="86.0" r="3" fill="#4aa3ff"/><circle cx="265.6" cy="86.0" r="3" fill="#4aa3ff"/><circle cx="269.0" cy="86.0" r="3" fill="#4aa3ff"/><circle cx="272.3" cy="86.0" r="3" fill="#4aa3ff"/><circle cx="275.7" cy="86.0" r="3" fill="#4aa3ff"/><circle cx="279.1" cy="86.0" r="3" fill="#4aa3ff"/><circle cx="282.5" cy="86.0" r="3" fill="#4aa3ff"/><circle cx="285.8" cy="86.0" r="3" fill="#4aa3ff"/><circle cx="289.2" cy="86.0" r="3" fill="#4aa3ff"/><circle cx="292.6" cy="86.0" r="3" fill="#4aa3ff"/><circle cx="296.0" cy="86.0" r="3" fill="#4aa3ff"/><circle cx="299.4" cy="86.0" r="3" fill="#4aa3ff"/><circle cx="302.7" cy="86.0" r="3" fill="#4aa3ff"/><circle cx="306.1" cy="86.0" r="3" fill="#4aa3ff"/><circle cx="309.5" cy="87.0" r="3" fill="#4aa3ff"/><circle cx="312.9" cy="87.0" r="3" fill="#4aa3ff"/><circle cx="316.2" cy="87.0" r="3" fill="#4aa3ff"/><circle cx="319.6" cy="73.7" r="3" fill="#4aa3ff"/><circle cx="323.0" cy="73.7" r="3" fill="#4aa3ff"/><circle cx="326.4" cy="71.0" r="3" fill="#4aa3ff"/><circle cx="329.7" cy="71.0" r="3" fill="#4aa3ff"/><circle cx="333.1" cy="70.8" r="3" fill="#4aa3ff"/><circle cx="336.5" cy="70.6" r="3" fill="#4aa3ff"/><circle cx="339.9" cy="70.6" r="3" fill="#4aa3ff"/><circle cx="343.2" cy="70.4" r="3" fill="#4aa3ff"/><circle cx="346.6" cy="68.6" r="3" fill="#4aa3ff"/><circle cx="350.0" cy="60.5" r="3" fill="#4aa3ff"/><circle cx="353.4" cy="59.3" r="3" fill="#4aa3ff"/><circle cx="356.8" cy="52.0" r="3" fill="#4aa3ff"/><circle cx="360.1" cy="47.3" r="3" fill="#4aa3ff"/><circle cx="363.5" cy="40.1" r="3" fill="#4aa3ff"/><circle cx="366.9" cy="36.0" r="3" fill="#4aa3ff"/><circle cx="370.3" cy="36.0" r="3" fill="#4aa3ff"/><circle cx="373.6" cy="36.0" r="3" fill="#4aa3ff"/><circle cx="377.0" cy="36.0" r="3" fill="#4aa3ff"/><circle cx="380.4" cy="36.0" r="3" fill="#4aa3ff"/><circle cx="383.8" cy="36.0" r="3" fill="#4aa3ff"/><circle cx="387.1" cy="36.0" r="3" fill="#4aa3ff"/><circle cx="390.5" cy="36.0" r="3" fill="#4aa3ff"/><circle cx="393.9" cy="36.0" r="3" fill="#4aa3ff"/><circle cx="397.3" cy="36.0" r="3" fill="#4aa3ff"/><circle cx="400.6" cy="36.0" r="3" fill="#4aa3ff"/><circle cx="404.0" cy="36.0" r="3" fill="#4aa3ff"/><circle cx="407.4" cy="36.0" r="3" fill="#4aa3ff"/><circle cx="410.8" cy="36.0" r="3" fill="#4aa3ff"/><circle cx="414.2" cy="36.0" r="3" fill="#4aa3ff"/><circle cx="417.5" cy="36.0" r="3" fill="#4aa3ff"/><circle cx="420.9" cy="36.0" r="3" fill="#4aa3ff"/><circle cx="424.3" cy="36.0" r="3" fill="#4aa3ff"/><circle cx="427.7" cy="36.0" r="3" fill="#4aa3ff"/><circle cx="431.0" cy="36.0" r="3" fill="#4aa3ff"/><circle cx="434.4" cy="36.0" r="3" fill="#4aa3ff"/><circle cx="437.8" cy="36.0" r="3" fill="#4aa3ff"/><circle cx="441.2" cy="36.0" r="3" fill="#4aa3ff"/><circle cx="444.5" cy="36.0" r="3" fill="#4aa3ff"/><circle cx="447.9" cy="36.0" r="3" fill="#4aa3ff"/><circle cx="451.3" cy="36.0" r="3" fill="#4aa3ff"/><circle cx="454.7" cy="36.0" r="3" fill="#4aa3ff"/><circle cx="458.0" cy="36.0" r="3" fill="#4aa3ff"/><circle cx="461.4" cy="36.0" r="3" fill="#4aa3ff"/><circle cx="464.8" cy="36.0" r="3" fill="#4aa3ff"/><circle cx="468.2" cy="36.0" r="3" fill="#4aa3ff"/><circle cx="471.5" cy="36.0" r="3" fill="#4aa3ff"/><circle cx="474.9" cy="36.0" r="3" fill="#4aa3ff"/><circle cx="478.3" cy="36.0" r="3" fill="#4aa3ff"/><circle cx="481.7" cy="36.0" r="3" fill="#4aa3ff"/><circle cx="485.1" cy="36.0" r="3" fill="#4aa3ff"/><circle cx="488.4" cy="36.0" r="3" fill="#4aa3ff"/><circle cx="491.8" cy="36.0" r="3" fill="#4aa3ff"/><circle cx="495.2" cy="36.0" r="3" fill="#4aa3ff"/><circle cx="498.6" cy="36.0" r="3" fill="#4aa3ff"/><circle cx="501.9" cy="36.0" r="3" fill="#4aa3ff"/><circle cx="505.3" cy="36.0" r="3" fill="#4aa3ff"/><circle cx="508.7" cy="36.0" r="3" fill="#4aa3ff"/><circle cx="512.1" cy="36.0" r="3" fill="#4aa3ff"/><circle cx="515.4" cy="36.0" r="3" fill="#4aa3ff"/><circle cx="518.8" cy="36.0" r="3" fill="#4aa3ff"/><circle cx="522.2" cy="36.0" r="3" fill="#4aa3ff"/><circle cx="525.6" cy="36.0" r="3" fill="#4aa3ff"/><circle cx="528.9" cy="36.0" r="3" fill="#4aa3ff"/><circle cx="532.3" cy="36.0" r="3" fill="#4aa3ff"/><circle cx="535.7" cy="36.0" r="3" fill="#4aa3ff"/><circle cx="539.1" cy="36.0" r="3" fill="#4aa3ff"/><circle cx="542.5" cy="36.0" r="3" fill="#4aa3ff"/><circle cx="545.8" cy="36.0" r="3" fill="#4aa3ff"/><circle cx="549.2" cy="36.0" r="3" fill="#4aa3ff"/><circle cx="552.6" cy="36.0" r="3" fill="#4aa3ff"/><circle cx="556.0" cy="36.0" r="3" fill="#4aa3ff"/><circle cx="559.3" cy="36.0" r="3" fill="#4aa3ff"/><circle cx="562.7" cy="36.0" r="3" fill="#4aa3ff"/><circle cx="566.1" cy="36.0" r="3" fill="#4aa3ff"/><circle cx="569.5" cy="36.0" r="3" fill="#4aa3ff"/><circle cx="572.8" cy="36.0" r="3" fill="#4aa3ff"/><circle cx="576.2" cy="36.0" r="3" fill="#4aa3ff"/><circle cx="579.6" cy="36.0" r="3" fill="#4aa3ff"/><circle cx="583.0" cy="36.0" r="3" fill="#4aa3ff"/><circle cx="586.3" cy="36.0" r="3" fill="#4aa3ff"/><circle cx="589.7" cy="36.0" r="3" fill="#4aa3ff"/><circle cx="593.1" cy="36.0" r="3" fill="#4aa3ff"/><circle cx="596.5" cy="36.0" r="3" fill="#4aa3ff"/><circle cx="599.8" cy="36.0" r="3" fill="#4aa3ff"/><circle cx="603.2" cy="36.0" r="3" fill="#4aa3ff"/><circle cx="606.6" cy="36.0" r="3" fill="#4aa3ff"/><circle cx="610.0" cy="36.0" r="3" fill="#4aa3ff"/><circle cx="613.4" cy="36.0" r="3" fill="#4aa3ff"/><circle cx="616.7" cy="36.0" r="3" fill="#4aa3ff"/><circle cx="620.1" cy="36.0" r="3" fill="#4aa3ff"/><circle cx="623.5" cy="36.0" r="3" fill="#4aa3ff"/><circle cx="626.9" cy="36.0" r="3" fill="#4aa3ff"/><circle cx="630.2" cy="36.0" r="3" fill="#4aa3ff"/><circle cx="633.6" cy="36.0" r="3" fill="#4aa3ff"/><circle cx="637.0" cy="36.0" r="3" fill="#4aa3ff"/><circle cx="640.4" cy="36.0" r="3" fill="#4aa3ff"/><circle cx="643.7" cy="36.0" r="3" fill="#4aa3ff"/><circle cx="647.1" cy="36.0" r="3" fill="#4aa3ff"/><circle cx="650.5" cy="36.0" r="3" fill="#4aa3ff"/><circle cx="653.9" cy="36.0" r="3" fill="#4aa3ff"/><circle cx="657.2" cy="36.0" r="3" fill="#4aa3ff"/><circle cx="660.6" cy="36.0" r="3" fill="#4aa3ff"/><circle cx="664.0" cy="36.0" r="3" fill="#4aa3ff"/>
<text x="36" y="225" fill="#6b7280" font-size="11">2026-06-26</text>
<text x="664" y="225" fill="#6b7280" font-size="11" text-anchor="end">2026-07-15</text>
<text x="36" y="212" font-family="system-ui,sans-serif" font-size="11">
<tspan fill="#4aa3ff">&#9679; open FPs</tspan>  <tspan fill="#3fb950">&#9679; closed (Anthropic acting)</tspan>  <tspan fill="#8a5a5a">&#9679; harness withdrawn</tspan></text>
<text x="664" y="22" text-anchor="end" font-family="system-ui,sans-serif" font-size="12">
<tspan fill="#4aa3ff">open 800</tspan>  <tspan fill="#3fb950">closed 0</tspan>  <tspan fill="#8a5a5a">harness 0</tspan></text>
</svg>