<svg xmlns="http://www.w3.org/2000/svg" width="700" height="234" viewBox="0 0 700 234" role="img">
<rect width="700" height="234" rx="12" fill="#16181d"/>
<text x="36" y="22" fill="#e8eaed" font-family="system-ui,sans-serif" font-size="14" font-weight="700">Is Anthropic acting? cyber/aup false positives over time</text>
<line x1="36" y1="198.0" x2="664" y2="198.0" stroke="#2a2e37" stroke-width="1"/><text x="30" y="202.0" fill="#6b7280" font-size="11" text-anchor="end">0</text><line x1="36" y1="117.0" x2="664" y2="117.0" stroke="#2a2e37" stroke-width="1"/><text x="30" y="121.0" fill="#6b7280" font-size="11" text-anchor="end">152</text><line x1="36" y1="36.0" x2="664" y2="36.0" stroke="#2a2e37" stroke-width="1"/><text x="30" y="40.0" fill="#6b7280" font-size="11" text-anchor="end">305</text>

<polyline fill="none" stroke="#8a5a5a" stroke-width="2.5" stroke-linejoin="round" points="36.0,59.4 77.9,59.4 119.7,59.4 161.6,59.4 203.5,59.4 245.3,59.4 287.2,59.4 329.1,59.4 370.9,59.4 412.8,59.4 454.7,59.4 496.5,59.4 538.4,59.4 580.3,59.4 622.1,59.4 664.0,59.4"/><circle cx="36.0" cy="59.4" r="3" fill="#8a5a5a"/><circle cx="77.9" cy="59.4" r="3" fill="#8a5a5a"/><circle cx="119.7" cy="59.4" r="3" fill="#8a5a5a"/><circle cx="161.6" cy="59.4" r="3" fill="#8a5a5a"/><circle cx="203.5" cy="59.4" r="3" fill="#8a5a5a"/><circle cx="245.3" cy="59.4" r="3" fill="#8a5a5a"/><circle cx="287.2" cy="59.4" r="3" fill="#8a5a5a"/><circle cx="329.1" cy="59.4" r="3" fill="#8a5a5a"/><circle cx="370.9" cy="59.4" r="3" fill="#8a5a5a"/><circle cx="412.8" cy="59.4" r="3" fill="#8a5a5a"/><circle cx="454.7" cy="59.4" r="3" fill="#8a5a5a"/><circle cx="496.5" cy="59.4" r="3" fill="#8a5a5a"/><circle cx="538.4" cy="59.4" r="3" fill="#8a5a5a"/><circle cx="580.3" cy="59.4" r="3" fill="#8a5a5a"/><circle cx="622.1" cy="59.4" r="3" fill="#8a5a5a"/><circle cx="664.0" cy="59.4" r="3" fill="#8a5a5a"/>
<polyline fill="none" stroke="#3fb950" stroke-width="2.5" stroke-linejoin="round" points="36.0,198.0 77.9,198.0 119.7,198.0 161.6,198.0 203.5,198.0 245.3,198.0 287.2,198.0 329.1,198.0 370.9,198.0 412.8,198.0 454.7,198.0 496.5,198.0 538.4,198.0 580.3,198.0 622.1,198.0 664.0,198.0"/><circle cx="36.0" cy="198.0" r="3" fill="#3fb950"/><circle cx="77.9" cy="198.0" r="3" fill="#3fb950"/><circle cx="119.7" cy="198.0" r="3" fill="#3fb950"/><circle cx="161.6" cy="198.0" r="3" fill="#3fb950"/><circle cx="203.5" cy="198.0" r="3" fill="#3fb950"/><circle cx="245.3" cy="198.0" r="3" fill="#3fb950"/><circle cx="287.2" cy="198.0" r="3" fill="#3fb950"/><circle cx="329.1" cy="198.0" r="3" fill="#3fb950"/><circle cx="370.9" cy="198.0" r="3" fill="#3fb950"/><circle cx="412.8" cy="198.0" r="3" fill="#3fb950"/><circle cx="454.7" cy="198.0" r="3" fill="#3fb950"/><circle cx="496.5" cy="198.0" r="3" fill="#3fb950"/><circle cx="538.4" cy="198.0" r="3" fill="#3fb950"/><circle cx="580.3" cy="198.0" r="3" fill="#3fb950"/><circle cx="622.1" cy="198.0" r="3" fill="#3fb950"/><circle cx="664.0" cy="198.0" r="3" fill="#3fb950"/>
<polyline fill="none" stroke="#4aa3ff" stroke-width="2.5" stroke-linejoin="round" points="36.0,57.2 77.9,57.2 119.7,57.2 161.6,57.2 203.5,57.2 245.3,57.2 287.2,57.2 329.1,57.2 370.9,57.2 412.8,57.2 454.7,57.2 496.5,57.2 538.4,57.2 580.3,57.2 622.1,57.2 664.0,36.0"/><circle cx="36.0" cy="57.2" r="3" fill="#4aa3ff"/><circle cx="77.9" cy="57.2" r="3" fill="#4aa3ff"/><circle cx="119.7" cy="57.2" r="3" fill="#4aa3ff"/><circle cx="161.6" cy="57.2" r="3" fill="#4aa3ff"/><circle cx="203.5" cy="57.2" r="3" fill="#4aa3ff"/><circle cx="245.3" cy="57.2" r="3" fill="#4aa3ff"/><circle cx="287.2" cy="57.2" r="3" fill="#4aa3ff"/><circle cx="329.1" cy="57.2" r="3" fill="#4aa3ff"/><circle cx="370.9" cy="57.2" r="3" fill="#4aa3ff"/><circle cx="412.8" cy="57.2" r="3" fill="#4aa3ff"/><circle cx="454.7" cy="57.2" r="3" fill="#4aa3ff"/><circle cx="496.5" cy="57.2" r="3" fill="#4aa3ff"/><circle cx="538.4" cy="57.2" r="3" fill="#4aa3ff"/><circle cx="580.3" cy="57.2" r="3" fill="#4aa3ff"/><circle cx="622.1" cy="57.2" r="3" fill="#4aa3ff"/><circle cx="664.0" cy="36.0" r="3" fill="#4aa3ff"/>
<text x="36" y="225" fill="#6b7280" font-size="11">2026-06-26</text>
<text x="664" y="225" fill="#6b7280" font-size="11" text-anchor="end">2026-06-27</text>
<text x="36" y="212" font-family="system-ui,sans-serif" font-size="11">
<tspan fill="#4aa3ff">&#9679; open FPs</tspan>  <tspan fill="#3fb950">&#9679; closed (Anthropic acting)</tspan>  <tspan fill="#8a5a5a">&#9679; harness withdrawn</tspan></text>
<text x="664" y="22" text-anchor="end" font-family="system-ui,sans-serif" font-size="12">
<tspan fill="#4aa3ff">open 305</tspan>  <tspan fill="#3fb950">closed 0</tspan>  <tspan fill="#8a5a5a">harness 261</tspan></text>
</svg>