<svg xmlns="http://www.w3.org/2000/svg" width="700" height="234" viewBox="0 0 700 234" role="img">
<rect width="700" height="234" rx="12" fill="#16181d"/>
<text x="36" y="22" fill="#e8eaed" font-family="system-ui,sans-serif" font-size="14" font-weight="700">Is Anthropic acting? cyber/aup false positives over time</text>
<line x1="36" y1="198.0" x2="664" y2="198.0" stroke="#2a2e37" stroke-width="1"/><text x="30" y="202.0" fill="#6b7280" font-size="11" text-anchor="end">0</text><line x1="36" y1="117.0" x2="664" y2="117.0" stroke="#2a2e37" stroke-width="1"/><text x="30" y="121.0" fill="#6b7280" font-size="11" text-anchor="end">400</text><line x1="36" y1="36.0" x2="664" y2="36.0" stroke="#2a2e37" stroke-width="1"/><text x="30" y="40.0" fill="#6b7280" font-size="11" text-anchor="end">800</text>

<polyline fill="none" stroke="#8a5a5a" stroke-width="2.5" stroke-linejoin="round" points="36.0,145.1 41.2,145.1 46.4,145.1 51.6,145.1 56.8,145.1 62.0,145.1 67.1,145.1 72.3,145.1 77.5,145.1 82.7,145.1 87.9,145.1 93.1,145.1 98.3,145.1 103.5,145.1 108.7,145.1 113.9,145.1 119.0,145.1 124.2,145.1 129.4,145.1 134.6,145.1 139.8,145.1 145.0,145.1 150.2,145.1 155.4,145.1 160.6,145.1 165.8,145.1 170.9,145.1 176.1,145.1 181.3,145.1 186.5,145.1 191.7,145.1 196.9,145.1 202.1,145.1 207.3,145.1 212.5,145.1 217.7,145.1 222.8,145.1 228.0,145.1 233.2,145.1 238.4,145.1 243.6,145.1 248.8,145.1 254.0,145.1 259.2,145.1 264.4,145.1 269.6,145.1 274.7,145.1 279.9,145.1 285.1,145.1 290.3,145.1 295.5,155.7 300.7,155.7 305.9,155.7 311.1,155.7 316.3,155.7 321.5,155.7 326.6,155.7 331.8,155.7 337.0,155.7 342.2,155.7 347.4,155.7 352.6,155.7 357.8,155.7 363.0,155.7 368.2,155.7 373.4,155.7 378.5,155.7 383.7,155.7 388.9,155.7 394.1,155.7 399.3,155.7 404.5,155.7 409.7,155.7 414.9,155.7 420.1,155.7 425.3,155.7 430.4,155.7 435.6,155.7 440.8,155.7 446.0,155.7 451.2,155.7 456.4,155.7 461.6,155.7 466.8,155.7 472.0,167.6 477.2,167.6 482.3,170.3 487.5,170.3 492.7,170.5 497.9,170.7 503.1,170.7 508.3,170.9 513.5,172.7 518.7,180.6 523.9,181.8 529.1,189.1 534.2,190.5 539.4,195.2 544.6,198.0 549.8,198.0 555.0,198.0 560.2,198.0 565.4,198.0 570.6,198.0 575.8,198.0 581.0,198.0 586.1,198.0 591.3,198.0 596.5,198.0 601.7,198.0 606.9,198.0 612.1,198.0 617.3,198.0 622.5,198.0 627.7,198.0 632.9,198.0 638.0,198.0 643.2,198.0 648.4,198.0 653.6,198.0 658.8,198.0 664.0,198.0"/><circle cx="36.0" cy="145.1" r="3" fill="#8a5a5a"/><circle cx="41.2" cy="145.1" r="3" fill="#8a5a5a"/><circle cx="46.4" cy="145.1" r="3" fill="#8a5a5a"/><circle cx="51.6" cy="145.1" r="3" fill="#8a5a5a"/><circle cx="56.8" cy="145.1" r="3" fill="#8a5a5a"/><circle cx="62.0" cy="145.1" r="3" fill="#8a5a5a"/><circle cx="67.1" cy="145.1" r="3" fill="#8a5a5a"/><circle cx="72.3" cy="145.1" r="3" fill="#8a5a5a"/><circle cx="77.5" cy="145.1" r="3" fill="#8a5a5a"/><circle cx="82.7" cy="145.1" r="3" fill="#8a5a5a"/><circle cx="87.9" cy="145.1" r="3" fill="#8a5a5a"/><circle cx="93.1" cy="145.1" r="3" fill="#8a5a5a"/><circle cx="98.3" cy="145.1" r="3" fill="#8a5a5a"/><circle cx="103.5" cy="145.1" r="3" fill="#8a5a5a"/><circle cx="108.7" cy="145.1" r="3" fill="#8a5a5a"/><circle cx="113.9" cy="145.1" r="3" fill="#8a5a5a"/><circle cx="119.0" cy="145.1" r="3" fill="#8a5a5a"/><circle cx="124.2" cy="145.1" r="3" fill="#8a5a5a"/><circle cx="129.4" cy="145.1" r="3" fill="#8a5a5a"/><circle cx="134.6" cy="145.1" r="3" fill="#8a5a5a"/><circle cx="139.8" cy="145.1" r="3" fill="#8a5a5a"/><circle cx="145.0" cy="145.1" r="3" fill="#8a5a5a"/><circle cx="150.2" cy="145.1" r="3" fill="#8a5a5a"/><circle cx="155.4" cy="145.1" r="3" fill="#8a5a5a"/><circle cx="160.6" cy="145.1" r="3" fill="#8a5a5a"/><circle cx="165.8" cy="145.1" r="3" fill="#8a5a5a"/><circle cx="170.9" cy="145.1" r="3" fill="#8a5a5a"/><circle cx="176.1" cy="145.1" r="3" fill="#8a5a5a"/><circle cx="181.3" cy="145.1" r="3" fill="#8a5a5a"/><circle cx="186.5" cy="145.1" r="3" fill="#8a5a5a"/><circle cx="191.7" cy="145.1" r="3" fill="#8a5a5a"/><circle cx="196.9" cy="145.1" r="3" fill="#8a5a5a"/><circle cx="202.1" cy="145.1" r="3" fill="#8a5a5a"/><circle cx="207.3" cy="145.1" r="3" fill="#8a5a5a"/><circle cx="212.5" cy="145.1" r="3" fill="#8a5a5a"/><circle cx="217.7" cy="145.1" r="3" fill="#8a5a5a"/><circle cx="222.8" cy="145.1" r="3" fill="#8a5a5a"/><circle cx="228.0" cy="145.1" r="3" fill="#8a5a5a"/><circle cx="233.2" cy="145.1" r="3" fill="#8a5a5a"/><circle cx="238.4" cy="145.1" r="3" fill="#8a5a5a"/><circle cx="243.6" cy="145.1" r="3" fill="#8a5a5a"/><circle cx="248.8" cy="145.1" r="3" fill="#8a5a5a"/><circle cx="254.0" cy="145.1" r="3" fill="#8a5a5a"/><circle cx="259.2" cy="145.1" r="3" fill="#8a5a5a"/><circle cx="264.4" cy="145.1" r="3" fill="#8a5a5a"/><circle cx="269.6" cy="145.1" r="3" fill="#8a5a5a"/><circle cx="274.7" cy="145.1" r="3" fill="#8a5a5a"/><circle cx="279.9" cy="145.1" r="3" fill="#8a5a5a"/><circle cx="285.1" cy="145.1" r="3" fill="#8a5a5a"/><circle cx="290.3" cy="145.1" r="3" fill="#8a5a5a"/><circle cx="295.5" cy="155.7" r="3" fill="#8a5a5a"/><circle cx="300.7" cy="155.7" r="3" fill="#8a5a5a"/><circle cx="305.9" cy="155.7" r="3" fill="#8a5a5a"/><circle cx="311.1" cy="155.7" r="3" fill="#8a5a5a"/><circle cx="316.3" cy="155.7" r="3" fill="#8a5a5a"/><circle cx="321.5" cy="155.7" r="3" fill="#8a5a5a"/><circle cx="326.6" cy="155.7" r="3" fill="#8a5a5a"/><circle cx="331.8" cy="155.7" r="3" fill="#8a5a5a"/><circle cx="337.0" cy="155.7" r="3" fill="#8a5a5a"/><circle cx="342.2" cy="155.7" r="3" fill="#8a5a5a"/><circle cx="347.4" cy="155.7" r="3" fill="#8a5a5a"/><circle cx="352.6" cy="155.7" r="3" fill="#8a5a5a"/><circle cx="357.8" cy="155.7" r="3" fill="#8a5a5a"/><circle cx="363.0" cy="155.7" r="3" fill="#8a5a5a"/><circle cx="368.2" cy="155.7" r="3" fill="#8a5a5a"/><circle cx="373.4" cy="155.7" r="3" fill="#8a5a5a"/><circle cx="378.5" cy="155.7" r="3" fill="#8a5a5a"/><circle cx="383.7" cy="155.7" r="3" fill="#8a5a5a"/><circle cx="388.9" cy="155.7" r="3" fill="#8a5a5a"/><circle cx="394.1" cy="155.7" r="3" fill="#8a5a5a"/><circle cx="399.3" cy="155.7" r="3" fill="#8a5a5a"/><circle cx="404.5" cy="155.7" r="3" fill="#8a5a5a"/><circle cx="409.7" cy="155.7" r="3" fill="#8a5a5a"/><circle cx="414.9" cy="155.7" r="3" fill="#8a5a5a"/><circle cx="420.1" cy="155.7" r="3" fill="#8a5a5a"/><circle cx="425.3" cy="155.7" r="3" fill="#8a5a5a"/><circle cx="430.4" cy="155.7" r="3" fill="#8a5a5a"/><circle cx="435.6" cy="155.7" r="3" fill="#8a5a5a"/><circle cx="440.8" cy="155.7" r="3" fill="#8a5a5a"/><circle cx="446.0" cy="155.7" r="3" fill="#8a5a5a"/><circle cx="451.2" cy="155.7" r="3" fill="#8a5a5a"/><circle cx="456.4" cy="155.7" r="3" fill="#8a5a5a"/><circle cx="461.6" cy="155.7" r="3" fill="#8a5a5a"/><circle cx="466.8" cy="155.7" r="3" fill="#8a5a5a"/><circle cx="472.0" cy="167.6" r="3" fill="#8a5a5a"/><circle cx="477.2" cy="167.6" r="3" fill="#8a5a5a"/><circle cx="482.3" cy="170.3" r="3" fill="#8a5a5a"/><circle cx="487.5" cy="170.3" r="3" fill="#8a5a5a"/><circle cx="492.7" cy="170.5" r="3" fill="#8a5a5a"/><circle cx="497.9" cy="170.7" r="3" fill="#8a5a5a"/><circle cx="503.1" cy="170.7" r="3" fill="#8a5a5a"/><circle cx="508.3" cy="170.9" r="3" fill="#8a5a5a"/><circle cx="513.5" cy="172.7" r="3" fill="#8a5a5a"/><circle cx="518.7" cy="180.6" r="3" fill="#8a5a5a"/><circle cx="523.9" cy="181.8" r="3" fill="#8a5a5a"/><circle cx="529.1" cy="189.1" r="3" fill="#8a5a5a"/><circle cx="534.2" cy="190.5" r="3" fill="#8a5a5a"/><circle cx="539.4" cy="195.2" r="3" fill="#8a5a5a"/><circle cx="544.6" cy="198.0" r="3" fill="#8a5a5a"/><circle cx="549.8" cy="198.0" r="3" fill="#8a5a5a"/><circle cx="555.0" cy="198.0" r="3" fill="#8a5a5a"/><circle cx="560.2" cy="198.0" r="3" fill="#8a5a5a"/><circle cx="565.4" cy="198.0" r="3" fill="#8a5a5a"/><circle cx="570.6" cy="198.0" r="3" fill="#8a5a5a"/><circle cx="575.8" cy="198.0" r="3" fill="#8a5a5a"/><circle cx="581.0" cy="198.0" r="3" fill="#8a5a5a"/><circle cx="586.1" cy="198.0" r="3" fill="#8a5a5a"/><circle cx="591.3" cy="198.0" r="3" fill="#8a5a5a"/><circle cx="596.5" cy="198.0" r="3" fill="#8a5a5a"/><circle cx="601.7" cy="198.0" r="3" fill="#8a5a5a"/><circle cx="606.9" cy="198.0" r="3" fill="#8a5a5a"/><circle cx="612.1" cy="198.0" r="3" fill="#8a5a5a"/><circle cx="617.3" cy="198.0" r="3" fill="#8a5a5a"/><circle cx="622.5" cy="198.0" r="3" fill="#8a5a5a"/><circle cx="627.7" cy="198.0" r="3" fill="#8a5a5a"/><circle cx="632.9" cy="198.0" r="3" fill="#8a5a5a"/><circle cx="638.0" cy="198.0" r="3" fill="#8a5a5a"/><circle cx="643.2" cy="198.0" r="3" fill="#8a5a5a"/><circle cx="648.4" cy="198.0" r="3" fill="#8a5a5a"/><circle cx="653.6" cy="198.0" r="3" fill="#8a5a5a"/><circle cx="658.8" cy="198.0" r="3" fill="#8a5a5a"/><circle cx="664.0" cy="198.0" r="3" fill="#8a5a5a"/>
<polyline fill="none" stroke="#3fb950" stroke-width="2.5" stroke-linejoin="round" points="36.0,198.0 41.2,198.0 46.4,198.0 51.6,198.0 56.8,198.0 62.0,198.0 67.1,198.0 72.3,198.0 77.5,198.0 82.7,198.0 87.9,198.0 93.1,198.0 98.3,198.0 103.5,198.0 108.7,198.0 113.9,198.0 119.0,198.0 124.2,198.0 129.4,198.0 134.6,198.0 139.8,198.0 145.0,198.0 150.2,198.0 155.4,198.0 160.6,198.0 165.8,198.0 170.9,198.0 176.1,198.0 181.3,198.0 186.5,198.0 191.7,198.0 196.9,198.0 202.1,198.0 207.3,198.0 212.5,198.0 217.7,198.0 222.8,198.0 228.0,198.0 233.2,198.0 238.4,198.0 243.6,198.0 248.8,198.0 254.0,198.0 259.2,191.7 264.4,191.7 269.6,191.7 274.7,191.7 279.9,191.7 285.1,191.7 290.3,191.7 295.5,192.9 300.7,192.9 305.9,190.7 311.1,190.7 316.3,190.7 321.5,190.7 326.6,190.7 331.8,190.5 337.0,190.5 342.2,190.5 347.4,190.3 352.6,190.3 357.8,190.3 363.0,190.3 368.2,190.3 373.4,190.3 378.5,190.3 383.7,190.3 388.9,190.3 394.1,190.3 399.3,190.3 404.5,190.3 409.7,190.3 414.9,190.3 420.1,190.3 425.3,190.3 430.4,190.3 435.6,190.3 440.8,190.3 446.0,190.3 451.2,190.3 456.4,189.3 461.6,189.3 466.8,189.3 472.0,190.7 477.2,190.7 482.3,190.7 487.5,190.7 492.7,190.7 497.9,190.7 503.1,190.7 508.3,190.7 513.5,190.7 518.7,190.9 523.9,190.9 529.1,190.9 534.2,194.2 539.4,196.8 544.6,198.0 549.8,198.0 555.0,198.0 560.2,198.0 565.4,198.0 570.6,198.0 575.8,198.0 581.0,198.0 586.1,198.0 591.3,198.0 596.5,198.0 601.7,198.0 606.9,198.0 612.1,198.0 617.3,198.0 622.5,198.0 627.7,198.0 632.9,198.0 638.0,198.0 643.2,198.0 648.4,198.0 653.6,198.0 658.8,198.0 664.0,198.0"/><circle cx="36.0" cy="198.0" r="3" fill="#3fb950"/><circle cx="41.2" cy="198.0" r="3" fill="#3fb950"/><circle cx="46.4" cy="198.0" r="3" fill="#3fb950"/><circle cx="51.6" cy="198.0" r="3" fill="#3fb950"/><circle cx="56.8" cy="198.0" r="3" fill="#3fb950"/><circle cx="62.0" cy="198.0" r="3" fill="#3fb950"/><circle cx="67.1" cy="198.0" r="3" fill="#3fb950"/><circle cx="72.3" cy="198.0" r="3" fill="#3fb950"/><circle cx="77.5" cy="198.0" r="3" fill="#3fb950"/><circle cx="82.7" cy="198.0" r="3" fill="#3fb950"/><circle cx="87.9" cy="198.0" r="3" fill="#3fb950"/><circle cx="93.1" cy="198.0" r="3" fill="#3fb950"/><circle cx="98.3" cy="198.0" r="3" fill="#3fb950"/><circle cx="103.5" cy="198.0" r="3" fill="#3fb950"/><circle cx="108.7" cy="198.0" r="3" fill="#3fb950"/><circle cx="113.9" cy="198.0" r="3" fill="#3fb950"/><circle cx="119.0" cy="198.0" r="3" fill="#3fb950"/><circle cx="124.2" cy="198.0" r="3" fill="#3fb950"/><circle cx="129.4" cy="198.0" r="3" fill="#3fb950"/><circle cx="134.6" cy="198.0" r="3" fill="#3fb950"/><circle cx="139.8" cy="198.0" r="3" fill="#3fb950"/><circle cx="145.0" cy="198.0" r="3" fill="#3fb950"/><circle cx="150.2" cy="198.0" r="3" fill="#3fb950"/><circle cx="155.4" cy="198.0" r="3" fill="#3fb950"/><circle cx="160.6" cy="198.0" r="3" fill="#3fb950"/><circle cx="165.8" cy="198.0" r="3" fill="#3fb950"/><circle cx="170.9" cy="198.0" r="3" fill="#3fb950"/><circle cx="176.1" cy="198.0" r="3" fill="#3fb950"/><circle cx="181.3" cy="198.0" r="3" fill="#3fb950"/><circle cx="186.5" cy="198.0" r="3" fill="#3fb950"/><circle cx="191.7" cy="198.0" r="3" fill="#3fb950"/><circle cx="196.9" cy="198.0" r="3" fill="#3fb950"/><circle cx="202.1" cy="198.0" r="3" fill="#3fb950"/><circle cx="207.3" cy="198.0" r="3" fill="#3fb950"/><circle cx="212.5" cy="198.0" r="3" fill="#3fb950"/><circle cx="217.7" cy="198.0" r="3" fill="#3fb950"/><circle cx="222.8" cy="198.0" r="3" fill="#3fb950"/><circle cx="228.0" cy="198.0" r="3" fill="#3fb950"/><circle cx="233.2" cy="198.0" r="3" fill="#3fb950"/><circle cx="238.4" cy="198.0" r="3" fill="#3fb950"/><circle cx="243.6" cy="198.0" r="3" fill="#3fb950"/><circle cx="248.8" cy="198.0" r="3" fill="#3fb950"/><circle cx="254.0" cy="198.0" r="3" fill="#3fb950"/><circle cx="259.2" cy="191.7" r="3" fill="#3fb950"/><circle cx="264.4" cy="191.7" r="3" fill="#3fb950"/><circle cx="269.6" cy="191.7" r="3" fill="#3fb950"/><circle cx="274.7" cy="191.7" r="3" fill="#3fb950"/><circle cx="279.9" cy="191.7" r="3" fill="#3fb950"/><circle cx="285.1" cy="191.7" r="3" fill="#3fb950"/><circle cx="290.3" cy="191.7" r="3" fill="#3fb950"/><circle cx="295.5" cy="192.9" r="3" fill="#3fb950"/><circle cx="300.7" cy="192.9" r="3" fill="#3fb950"/><circle cx="305.9" cy="190.7" r="3" fill="#3fb950"/><circle cx="311.1" cy="190.7" r="3" fill="#3fb950"/><circle cx="316.3" cy="190.7" r="3" fill="#3fb950"/><circle cx="321.5" cy="190.7" r="3" fill="#3fb950"/><circle cx="326.6" cy="190.7" r="3" fill="#3fb950"/><circle cx="331.8" cy="190.5" r="3" fill="#3fb950"/><circle cx="337.0" cy="190.5" r="3" fill="#3fb950"/><circle cx="342.2" cy="190.5" r="3" fill="#3fb950"/><circle cx="347.4" cy="190.3" r="3" fill="#3fb950"/><circle cx="352.6" cy="190.3" r="3" fill="#3fb950"/><circle cx="357.8" cy="190.3" r="3" fill="#3fb950"/><circle cx="363.0" cy="190.3" r="3" fill="#3fb950"/><circle cx="368.2" cy="190.3" r="3" fill="#3fb950"/><circle cx="373.4" cy="190.3" r="3" fill="#3fb950"/><circle cx="378.5" cy="190.3" r="3" fill="#3fb950"/><circle cx="383.7" cy="190.3" r="3" fill="#3fb950"/><circle cx="388.9" cy="190.3" r="3" fill="#3fb950"/><circle cx="394.1" cy="190.3" r="3" fill="#3fb950"/><circle cx="399.3" cy="190.3" r="3" fill="#3fb950"/><circle cx="404.5" cy="190.3" r="3" fill="#3fb950"/><circle cx="409.7" cy="190.3" r="3" fill="#3fb950"/><circle cx="414.9" cy="190.3" r="3" fill="#3fb950"/><circle cx="420.1" cy="190.3" r="3" fill="#3fb950"/><circle cx="425.3" cy="190.3" r="3" fill="#3fb950"/><circle cx="430.4" cy="190.3" r="3" fill="#3fb950"/><circle cx="435.6" cy="190.3" r="3" fill="#3fb950"/><circle cx="440.8" cy="190.3" r="3" fill="#3fb950"/><circle cx="446.0" cy="190.3" r="3" fill="#3fb950"/><circle cx="451.2" cy="190.3" r="3" fill="#3fb950"/><circle cx="456.4" cy="189.3" r="3" fill="#3fb950"/><circle cx="461.6" cy="189.3" r="3" fill="#3fb950"/><circle cx="466.8" cy="189.3" r="3" fill="#3fb950"/><circle cx="472.0" cy="190.7" r="3" fill="#3fb950"/><circle cx="477.2" cy="190.7" r="3" fill="#3fb950"/><circle cx="482.3" cy="190.7" r="3" fill="#3fb950"/><circle cx="487.5" cy="190.7" r="3" fill="#3fb950"/><circle cx="492.7" cy="190.7" r="3" fill="#3fb950"/><circle cx="497.9" cy="190.7" r="3" fill="#3fb950"/><circle cx="503.1" cy="190.7" r="3" fill="#3fb950"/><circle cx="508.3" cy="190.7" r="3" fill="#3fb950"/><circle cx="513.5" cy="190.7" r="3" fill="#3fb950"/><circle cx="518.7" cy="190.9" r="3" fill="#3fb950"/><circle cx="523.9" cy="190.9" r="3" fill="#3fb950"/><circle cx="529.1" cy="190.9" r="3" fill="#3fb950"/><circle cx="534.2" cy="194.2" r="3" fill="#3fb950"/><circle cx="539.4" cy="196.8" r="3" fill="#3fb950"/><circle cx="544.6" cy="198.0" r="3" fill="#3fb950"/><circle cx="549.8" cy="198.0" r="3" fill="#3fb950"/><circle cx="555.0" cy="198.0" r="3" fill="#3fb950"/><circle cx="560.2" cy="198.0" r="3" fill="#3fb950"/><circle cx="565.4" cy="198.0" r="3" fill="#3fb950"/><circle cx="570.6" cy="198.0" r="3" fill="#3fb950"/><circle cx="575.8" cy="198.0" r="3" fill="#3fb950"/><circle cx="581.0" cy="198.0" r="3" fill="#3fb950"/><circle cx="586.1" cy="198.0" r="3" fill="#3fb950"/><circle cx="591.3" cy="198.0" r="3" fill="#3fb950"/><circle cx="596.5" cy="198.0" r="3" fill="#3fb950"/><circle cx="601.7" cy="198.0" r="3" fill="#3fb950"/><circle cx="606.9" cy="198.0" r="3" fill="#3fb950"/><circle cx="612.1" cy="198.0" r="3" fill="#3fb950"/><circle cx="617.3" cy="198.0" r="3" fill="#3fb950"/><circle cx="622.5" cy="198.0" r="3" fill="#3fb950"/><circle cx="627.7" cy="198.0" r="3" fill="#3fb950"/><circle cx="632.9" cy="198.0" r="3" fill="#3fb950"/><circle cx="638.0" cy="198.0" r="3" fill="#3fb950"/><circle cx="643.2" cy="198.0" r="3" fill="#3fb950"/><circle cx="648.4" cy="198.0" r="3" fill="#3fb950"/><circle cx="653.6" cy="198.0" r="3" fill="#3fb950"/><circle cx="658.8" cy="198.0" r="3" fill="#3fb950"/><circle cx="664.0" cy="198.0" r="3" fill="#3fb950"/>
<polyline fill="none" stroke="#4aa3ff" stroke-width="2.5" stroke-linejoin="round" points="36.0,144.3 41.2,144.3 46.4,144.3 51.6,144.3 56.8,144.3 62.0,144.3 67.1,144.3 72.3,144.3 77.5,144.3 82.7,144.3 87.9,144.3 93.1,144.3 98.3,144.3 103.5,144.3 108.7,144.3 113.9,136.2 119.0,132.4 124.2,129.6 129.4,129.6 134.6,121.0 139.8,121.0 145.0,121.0 150.2,114.4 155.4,114.4 160.6,114.4 165.8,111.3 170.9,110.9 176.1,110.9 181.3,110.5 186.5,110.5 191.7,109.9 196.9,108.7 202.1,107.3 207.3,106.9 212.5,106.9 217.7,106.9 222.8,106.9 228.0,106.9 233.2,106.9 238.4,106.9 243.6,106.9 248.8,106.9 254.0,106.9 259.2,113.2 264.4,113.2 269.6,113.2 274.7,113.2 279.9,113.2 285.1,110.7 290.3,105.3 295.5,83.4 300.7,83.4 305.9,85.6 311.1,85.6 316.3,85.6 321.5,85.6 326.6,85.6 331.8,85.8 337.0,85.8 342.2,85.8 347.4,86.0 352.6,86.0 357.8,86.0 363.0,86.0 368.2,86.0 373.4,86.0 378.5,86.0 383.7,86.0 388.9,86.0 394.1,86.0 399.3,86.0 404.5,86.0 409.7,86.0 414.9,86.0 420.1,86.0 425.3,86.0 430.4,86.0 435.6,86.0 440.8,86.0 446.0,86.0 451.2,86.0 456.4,87.0 461.6,87.0 466.8,87.0 472.0,73.7 477.2,73.7 482.3,71.0 487.5,71.0 492.7,70.8 497.9,70.6 503.1,70.6 508.3,70.4 513.5,68.6 518.7,60.5 523.9,59.3 529.1,52.0 534.2,47.3 539.4,40.1 544.6,36.0 549.8,36.0 555.0,36.0 560.2,36.0 565.4,36.0 570.6,36.0 575.8,36.0 581.0,36.0 586.1,36.0 591.3,36.0 596.5,36.0 601.7,36.0 606.9,36.0 612.1,36.0 617.3,36.0 622.5,36.0 627.7,36.0 632.9,36.0 638.0,36.0 643.2,36.0 648.4,36.0 653.6,36.0 658.8,36.0 664.0,36.0"/><circle cx="36.0" cy="144.3" r="3" fill="#4aa3ff"/><circle cx="41.2" cy="144.3" r="3" fill="#4aa3ff"/><circle cx="46.4" cy="144.3" r="3" fill="#4aa3ff"/><circle cx="51.6" cy="144.3" r="3" fill="#4aa3ff"/><circle cx="56.8" cy="144.3" r="3" fill="#4aa3ff"/><circle cx="62.0" cy="144.3" r="3" fill="#4aa3ff"/><circle cx="67.1" cy="144.3" r="3" fill="#4aa3ff"/><circle cx="72.3" cy="144.3" r="3" fill="#4aa3ff"/><circle cx="77.5" cy="144.3" r="3" fill="#4aa3ff"/><circle cx="82.7" cy="144.3" r="3" fill="#4aa3ff"/><circle cx="87.9" cy="144.3" r="3" fill="#4aa3ff"/><circle cx="93.1" cy="144.3" r="3" fill="#4aa3ff"/><circle cx="98.3" cy="144.3" r="3" fill="#4aa3ff"/><circle cx="103.5" cy="144.3" r="3" fill="#4aa3ff"/><circle cx="108.7" cy="144.3" r="3" fill="#4aa3ff"/><circle cx="113.9" cy="136.2" r="3" fill="#4aa3ff"/><circle cx="119.0" cy="132.4" r="3" fill="#4aa3ff"/><circle cx="124.2" cy="129.6" r="3" fill="#4aa3ff"/><circle cx="129.4" cy="129.6" r="3" fill="#4aa3ff"/><circle cx="134.6" cy="121.0" r="3" fill="#4aa3ff"/><circle cx="139.8" cy="121.0" r="3" fill="#4aa3ff"/><circle cx="145.0" cy="121.0" r="3" fill="#4aa3ff"/><circle cx="150.2" cy="114.4" r="3" fill="#4aa3ff"/><circle cx="155.4" cy="114.4" r="3" fill="#4aa3ff"/><circle cx="160.6" cy="114.4" r="3" fill="#4aa3ff"/><circle cx="165.8" cy="111.3" r="3" fill="#4aa3ff"/><circle cx="170.9" cy="110.9" r="3" fill="#4aa3ff"/><circle cx="176.1" cy="110.9" r="3" fill="#4aa3ff"/><circle cx="181.3" cy="110.5" r="3" fill="#4aa3ff"/><circle cx="186.5" cy="110.5" r="3" fill="#4aa3ff"/><circle cx="191.7" cy="109.9" r="3" fill="#4aa3ff"/><circle cx="196.9" cy="108.7" r="3" fill="#4aa3ff"/><circle cx="202.1" cy="107.3" r="3" fill="#4aa3ff"/><circle cx="207.3" cy="106.9" r="3" fill="#4aa3ff"/><circle cx="212.5" cy="106.9" r="3" fill="#4aa3ff"/><circle cx="217.7" cy="106.9" r="3" fill="#4aa3ff"/><circle cx="222.8" cy="106.9" r="3" fill="#4aa3ff"/><circle cx="228.0" cy="106.9" r="3" fill="#4aa3ff"/><circle cx="233.2" cy="106.9" r="3" fill="#4aa3ff"/><circle cx="238.4" cy="106.9" r="3" fill="#4aa3ff"/><circle cx="243.6" cy="106.9" r="3" fill="#4aa3ff"/><circle cx="248.8" cy="106.9" r="3" fill="#4aa3ff"/><circle cx="254.0" cy="106.9" r="3" fill="#4aa3ff"/><circle cx="259.2" cy="113.2" r="3" fill="#4aa3ff"/><circle cx="264.4" cy="113.2" r="3" fill="#4aa3ff"/><circle cx="269.6" cy="113.2" r="3" fill="#4aa3ff"/><circle cx="274.7" cy="113.2" r="3" fill="#4aa3ff"/><circle cx="279.9" cy="113.2" r="3" fill="#4aa3ff"/><circle cx="285.1" cy="110.7" r="3" fill="#4aa3ff"/><circle cx="290.3" cy="105.3" r="3" fill="#4aa3ff"/><circle cx="295.5" cy="83.4" r="3" fill="#4aa3ff"/><circle cx="300.7" cy="83.4" r="3" fill="#4aa3ff"/><circle cx="305.9" cy="85.6" r="3" fill="#4aa3ff"/><circle cx="311.1" cy="85.6" r="3" fill="#4aa3ff"/><circle cx="316.3" cy="85.6" r="3" fill="#4aa3ff"/><circle cx="321.5" cy="85.6" r="3" fill="#4aa3ff"/><circle cx="326.6" cy="85.6" r="3" fill="#4aa3ff"/><circle cx="331.8" cy="85.8" r="3" fill="#4aa3ff"/><circle cx="337.0" cy="85.8" r="3" fill="#4aa3ff"/><circle cx="342.2" cy="85.8" r="3" fill="#4aa3ff"/><circle cx="347.4" cy="86.0" r="3" fill="#4aa3ff"/><circle cx="352.6" cy="86.0" r="3" fill="#4aa3ff"/><circle cx="357.8" cy="86.0" r="3" fill="#4aa3ff"/><circle cx="363.0" cy="86.0" r="3" fill="#4aa3ff"/><circle cx="368.2" cy="86.0" r="3" fill="#4aa3ff"/><circle cx="373.4" cy="86.0" r="3" fill="#4aa3ff"/><circle cx="378.5" cy="86.0" r="3" fill="#4aa3ff"/><circle cx="383.7" cy="86.0" r="3" fill="#4aa3ff"/><circle cx="388.9" cy="86.0" r="3" fill="#4aa3ff"/><circle cx="394.1" cy="86.0" r="3" fill="#4aa3ff"/><circle cx="399.3" cy="86.0" r="3" fill="#4aa3ff"/><circle cx="404.5" cy="86.0" r="3" fill="#4aa3ff"/><circle cx="409.7" cy="86.0" r="3" fill="#4aa3ff"/><circle cx="414.9" cy="86.0" r="3" fill="#4aa3ff"/><circle cx="420.1" cy="86.0" r="3" fill="#4aa3ff"/><circle cx="425.3" cy="86.0" r="3" fill="#4aa3ff"/><circle cx="430.4" cy="86.0" r="3" fill="#4aa3ff"/><circle cx="435.6" cy="86.0" r="3" fill="#4aa3ff"/><circle cx="440.8" cy="86.0" r="3" fill="#4aa3ff"/><circle cx="446.0" cy="86.0" r="3" fill="#4aa3ff"/><circle cx="451.2" cy="86.0" r="3" fill="#4aa3ff"/><circle cx="456.4" cy="87.0" r="3" fill="#4aa3ff"/><circle cx="461.6" cy="87.0" r="3" fill="#4aa3ff"/><circle cx="466.8" cy="87.0" r="3" fill="#4aa3ff"/><circle cx="472.0" cy="73.7" r="3" fill="#4aa3ff"/><circle cx="477.2" cy="73.7" r="3" fill="#4aa3ff"/><circle cx="482.3" cy="71.0" r="3" fill="#4aa3ff"/><circle cx="487.5" cy="71.0" r="3" fill="#4aa3ff"/><circle cx="492.7" cy="70.8" r="3" fill="#4aa3ff"/><circle cx="497.9" cy="70.6" r="3" fill="#4aa3ff"/><circle cx="503.1" cy="70.6" r="3" fill="#4aa3ff"/><circle cx="508.3" cy="70.4" r="3" fill="#4aa3ff"/><circle cx="513.5" cy="68.6" r="3" fill="#4aa3ff"/><circle cx="518.7" cy="60.5" r="3" fill="#4aa3ff"/><circle cx="523.9" cy="59.3" r="3" fill="#4aa3ff"/><circle cx="529.1" cy="52.0" r="3" fill="#4aa3ff"/><circle cx="534.2" cy="47.3" r="3" fill="#4aa3ff"/><circle cx="539.4" cy="40.1" r="3" fill="#4aa3ff"/><circle cx="544.6" cy="36.0" r="3" fill="#4aa3ff"/><circle cx="549.8" cy="36.0" r="3" fill="#4aa3ff"/><circle cx="555.0" cy="36.0" r="3" fill="#4aa3ff"/><circle cx="560.2" cy="36.0" r="3" fill="#4aa3ff"/><circle cx="565.4" cy="36.0" r="3" fill="#4aa3ff"/><circle cx="570.6" cy="36.0" r="3" fill="#4aa3ff"/><circle cx="575.8" cy="36.0" r="3" fill="#4aa3ff"/><circle cx="581.0" cy="36.0" r="3" fill="#4aa3ff"/><circle cx="586.1" cy="36.0" r="3" fill="#4aa3ff"/><circle cx="591.3" cy="36.0" r="3" fill="#4aa3ff"/><circle cx="596.5" cy="36.0" r="3" fill="#4aa3ff"/><circle cx="601.7" cy="36.0" r="3" fill="#4aa3ff"/><circle cx="606.9" cy="36.0" r="3" fill="#4aa3ff"/><circle cx="612.1" cy="36.0" r="3" fill="#4aa3ff"/><circle cx="617.3" cy="36.0" r="3" fill="#4aa3ff"/><circle cx="622.5" cy="36.0" r="3" fill="#4aa3ff"/><circle cx="627.7" cy="36.0" r="3" fill="#4aa3ff"/><circle cx="632.9" cy="36.0" r="3" fill="#4aa3ff"/><circle cx="638.0" cy="36.0" r="3" fill="#4aa3ff"/><circle cx="643.2" cy="36.0" r="3" fill="#4aa3ff"/><circle cx="648.4" cy="36.0" r="3" fill="#4aa3ff"/><circle cx="653.6" cy="36.0" r="3" fill="#4aa3ff"/><circle cx="658.8" cy="36.0" r="3" fill="#4aa3ff"/><circle cx="664.0" cy="36.0" r="3" fill="#4aa3ff"/>
<text x="36" y="225" fill="#6b7280" font-size="11">2026-06-26</text>
<text x="664" y="225" fill="#6b7280" font-size="11" text-anchor="end">2026-07-09</text>
<text x="36" y="212" font-family="system-ui,sans-serif" font-size="11">
<tspan fill="#4aa3ff">&#9679; open FPs</tspan>  <tspan fill="#3fb950">&#9679; closed (Anthropic acting)</tspan>  <tspan fill="#8a5a5a">&#9679; harness withdrawn</tspan></text>
<text x="664" y="22" text-anchor="end" font-family="system-ui,sans-serif" font-size="12">
<tspan fill="#4aa3ff">open 800</tspan>  <tspan fill="#3fb950">closed 0</tspan>  <tspan fill="#8a5a5a">harness 0</tspan></text>
</svg>