<svg xmlns="http://www.w3.org/2000/svg" width="700" height="234" viewBox="0 0 700 234" role="img">
<rect width="700" height="234" rx="12" fill="#16181d"/>
<text x="36" y="22" fill="#e8eaed" font-family="system-ui,sans-serif" font-size="14" font-weight="700">Is Anthropic acting? cyber/aup false positives over time</text>
<line x1="36" y1="198.0" x2="664" y2="198.0" stroke="#2a2e37" stroke-width="1"/><text x="30" y="202.0" fill="#6b7280" font-size="11" text-anchor="end">0</text><line x1="36" y1="117.0" x2="664" y2="117.0" stroke="#2a2e37" stroke-width="1"/><text x="30" y="121.0" fill="#6b7280" font-size="11" text-anchor="end">400</text><line x1="36" y1="36.0" x2="664" y2="36.0" stroke="#2a2e37" stroke-width="1"/><text x="30" y="40.0" fill="#6b7280" font-size="11" text-anchor="end">800</text>

<polyline fill="none" stroke="#8a5a5a" stroke-width="2.5" stroke-linejoin="round" points="36.0,145.1 39.5,145.1 43.1,145.1 46.6,145.1 50.1,145.1 53.6,145.1 57.2,145.1 60.7,145.1 64.2,145.1 67.8,145.1 71.3,145.1 74.8,145.1 78.3,145.1 81.9,145.1 85.4,145.1 88.9,145.1 92.4,145.1 96.0,145.1 99.5,145.1 103.0,145.1 106.6,145.1 110.1,145.1 113.6,145.1 117.1,145.1 120.7,145.1 124.2,145.1 127.7,145.1 131.3,145.1 134.8,145.1 138.3,145.1 141.8,145.1 145.4,145.1 148.9,145.1 152.4,145.1 156.0,145.1 159.5,145.1 163.0,145.1 166.5,145.1 170.1,145.1 173.6,145.1 177.1,145.1 180.7,145.1 184.2,145.1 187.7,145.1 191.2,145.1 194.8,145.1 198.3,145.1 201.8,145.1 205.3,145.1 208.9,145.1 212.4,155.7 215.9,155.7 219.5,155.7 223.0,155.7 226.5,155.7 230.0,155.7 233.6,155.7 237.1,155.7 240.6,155.7 244.2,155.7 247.7,155.7 251.2,155.7 254.7,155.7 258.3,155.7 261.8,155.7 265.3,155.7 268.9,155.7 272.4,155.7 275.9,155.7 279.4,155.7 283.0,155.7 286.5,155.7 290.0,155.7 293.6,155.7 297.1,155.7 300.6,155.7 304.1,155.7 307.7,155.7 311.2,155.7 314.7,155.7 318.2,155.7 321.8,155.7 325.3,155.7 328.8,155.7 332.4,167.6 335.9,167.6 339.4,170.3 342.9,170.3 346.5,170.5 350.0,170.7 353.5,170.7 357.1,170.9 360.6,172.7 364.1,180.6 367.6,181.8 371.2,189.1 374.7,190.5 378.2,195.2 381.8,198.0 385.3,198.0 388.8,198.0 392.3,198.0 395.9,198.0 399.4,198.0 402.9,198.0 406.4,198.0 410.0,198.0 413.5,198.0 417.0,198.0 420.6,198.0 424.1,198.0 427.6,198.0 431.1,198.0 434.7,198.0 438.2,198.0 441.7,198.0 445.3,198.0 448.8,198.0 452.3,198.0 455.8,198.0 459.4,198.0 462.9,198.0 466.4,198.0 470.0,198.0 473.5,198.0 477.0,198.0 480.5,198.0 484.1,198.0 487.6,198.0 491.1,198.0 494.7,198.0 498.2,198.0 501.7,198.0 505.2,198.0 508.8,198.0 512.3,198.0 515.8,198.0 519.3,198.0 522.9,198.0 526.4,198.0 529.9,198.0 533.5,198.0 537.0,198.0 540.5,198.0 544.0,198.0 547.6,198.0 551.1,198.0 554.6,198.0 558.2,198.0 561.7,198.0 565.2,198.0 568.7,198.0 572.3,198.0 575.8,198.0 579.3,198.0 582.9,198.0 586.4,198.0 589.9,198.0 593.4,198.0 597.0,198.0 600.5,198.0 604.0,198.0 607.6,198.0 611.1,198.0 614.6,198.0 618.1,198.0 621.7,198.0 625.2,198.0 628.7,198.0 632.2,198.0 635.8,198.0 639.3,198.0 642.8,198.0 646.4,198.0 649.9,198.0 653.4,198.0 656.9,198.0 660.5,198.0 664.0,198.0"/><circle cx="36.0" cy="145.1" r="3" fill="#8a5a5a"/><circle cx="39.5" cy="145.1" r="3" fill="#8a5a5a"/><circle cx="43.1" cy="145.1" r="3" fill="#8a5a5a"/><circle cx="46.6" cy="145.1" r="3" fill="#8a5a5a"/><circle cx="50.1" cy="145.1" r="3" fill="#8a5a5a"/><circle cx="53.6" cy="145.1" r="3" fill="#8a5a5a"/><circle cx="57.2" cy="145.1" r="3" fill="#8a5a5a"/><circle cx="60.7" cy="145.1" r="3" fill="#8a5a5a"/><circle cx="64.2" cy="145.1" r="3" fill="#8a5a5a"/><circle cx="67.8" cy="145.1" r="3" fill="#8a5a5a"/><circle cx="71.3" cy="145.1" r="3" fill="#8a5a5a"/><circle cx="74.8" cy="145.1" r="3" fill="#8a5a5a"/><circle cx="78.3" cy="145.1" r="3" fill="#8a5a5a"/><circle cx="81.9" cy="145.1" r="3" fill="#8a5a5a"/><circle cx="85.4" cy="145.1" r="3" fill="#8a5a5a"/><circle cx="88.9" cy="145.1" r="3" fill="#8a5a5a"/><circle cx="92.4" cy="145.1" r="3" fill="#8a5a5a"/><circle cx="96.0" cy="145.1" r="3" fill="#8a5a5a"/><circle cx="99.5" cy="145.1" r="3" fill="#8a5a5a"/><circle cx="103.0" cy="145.1" r="3" fill="#8a5a5a"/><circle cx="106.6" cy="145.1" r="3" fill="#8a5a5a"/><circle cx="110.1" cy="145.1" r="3" fill="#8a5a5a"/><circle cx="113.6" cy="145.1" r="3" fill="#8a5a5a"/><circle cx="117.1" cy="145.1" r="3" fill="#8a5a5a"/><circle cx="120.7" cy="145.1" r="3" fill="#8a5a5a"/><circle cx="124.2" cy="145.1" r="3" fill="#8a5a5a"/><circle cx="127.7" cy="145.1" r="3" fill="#8a5a5a"/><circle cx="131.3" cy="145.1" r="3" fill="#8a5a5a"/><circle cx="134.8" cy="145.1" r="3" fill="#8a5a5a"/><circle cx="138.3" cy="145.1" r="3" fill="#8a5a5a"/><circle cx="141.8" cy="145.1" r="3" fill="#8a5a5a"/><circle cx="145.4" cy="145.1" r="3" fill="#8a5a5a"/><circle cx="148.9" cy="145.1" r="3" fill="#8a5a5a"/><circle cx="152.4" cy="145.1" r="3" fill="#8a5a5a"/><circle cx="156.0" cy="145.1" r="3" fill="#8a5a5a"/><circle cx="159.5" cy="145.1" r="3" fill="#8a5a5a"/><circle cx="163.0" cy="145.1" r="3" fill="#8a5a5a"/><circle cx="166.5" cy="145.1" r="3" fill="#8a5a5a"/><circle cx="170.1" cy="145.1" r="3" fill="#8a5a5a"/><circle cx="173.6" cy="145.1" r="3" fill="#8a5a5a"/><circle cx="177.1" cy="145.1" r="3" fill="#8a5a5a"/><circle cx="180.7" cy="145.1" r="3" fill="#8a5a5a"/><circle cx="184.2" cy="145.1" r="3" fill="#8a5a5a"/><circle cx="187.7" cy="145.1" r="3" fill="#8a5a5a"/><circle cx="191.2" cy="145.1" r="3" fill="#8a5a5a"/><circle cx="194.8" cy="145.1" r="3" fill="#8a5a5a"/><circle cx="198.3" cy="145.1" r="3" fill="#8a5a5a"/><circle cx="201.8" cy="145.1" r="3" fill="#8a5a5a"/><circle cx="205.3" cy="145.1" r="3" fill="#8a5a5a"/><circle cx="208.9" cy="145.1" r="3" fill="#8a5a5a"/><circle cx="212.4" cy="155.7" r="3" fill="#8a5a5a"/><circle cx="215.9" cy="155.7" r="3" fill="#8a5a5a"/><circle cx="219.5" cy="155.7" r="3" fill="#8a5a5a"/><circle cx="223.0" cy="155.7" r="3" fill="#8a5a5a"/><circle cx="226.5" cy="155.7" r="3" fill="#8a5a5a"/><circle cx="230.0" cy="155.7" r="3" fill="#8a5a5a"/><circle cx="233.6" cy="155.7" r="3" fill="#8a5a5a"/><circle cx="237.1" cy="155.7" r="3" fill="#8a5a5a"/><circle cx="240.6" cy="155.7" r="3" fill="#8a5a5a"/><circle cx="244.2" cy="155.7" r="3" fill="#8a5a5a"/><circle cx="247.7" cy="155.7" r="3" fill="#8a5a5a"/><circle cx="251.2" cy="155.7" r="3" fill="#8a5a5a"/><circle cx="254.7" cy="155.7" r="3" fill="#8a5a5a"/><circle cx="258.3" cy="155.7" r="3" fill="#8a5a5a"/><circle cx="261.8" cy="155.7" r="3" fill="#8a5a5a"/><circle cx="265.3" cy="155.7" r="3" fill="#8a5a5a"/><circle cx="268.9" cy="155.7" r="3" fill="#8a5a5a"/><circle cx="272.4" cy="155.7" r="3" fill="#8a5a5a"/><circle cx="275.9" cy="155.7" r="3" fill="#8a5a5a"/><circle cx="279.4" cy="155.7" r="3" fill="#8a5a5a"/><circle cx="283.0" cy="155.7" r="3" fill="#8a5a5a"/><circle cx="286.5" cy="155.7" r="3" fill="#8a5a5a"/><circle cx="290.0" cy="155.7" r="3" fill="#8a5a5a"/><circle cx="293.6" cy="155.7" r="3" fill="#8a5a5a"/><circle cx="297.1" cy="155.7" r="3" fill="#8a5a5a"/><circle cx="300.6" cy="155.7" r="3" fill="#8a5a5a"/><circle cx="304.1" cy="155.7" r="3" fill="#8a5a5a"/><circle cx="307.7" cy="155.7" r="3" fill="#8a5a5a"/><circle cx="311.2" cy="155.7" r="3" fill="#8a5a5a"/><circle cx="314.7" cy="155.7" r="3" fill="#8a5a5a"/><circle cx="318.2" cy="155.7" r="3" fill="#8a5a5a"/><circle cx="321.8" cy="155.7" r="3" fill="#8a5a5a"/><circle cx="325.3" cy="155.7" r="3" fill="#8a5a5a"/><circle cx="328.8" cy="155.7" r="3" fill="#8a5a5a"/><circle cx="332.4" cy="167.6" r="3" fill="#8a5a5a"/><circle cx="335.9" cy="167.6" r="3" fill="#8a5a5a"/><circle cx="339.4" cy="170.3" r="3" fill="#8a5a5a"/><circle cx="342.9" cy="170.3" r="3" fill="#8a5a5a"/><circle cx="346.5" cy="170.5" r="3" fill="#8a5a5a"/><circle cx="350.0" cy="170.7" r="3" fill="#8a5a5a"/><circle cx="353.5" cy="170.7" r="3" fill="#8a5a5a"/><circle cx="357.1" cy="170.9" r="3" fill="#8a5a5a"/><circle cx="360.6" cy="172.7" r="3" fill="#8a5a5a"/><circle cx="364.1" cy="180.6" r="3" fill="#8a5a5a"/><circle cx="367.6" cy="181.8" r="3" fill="#8a5a5a"/><circle cx="371.2" cy="189.1" r="3" fill="#8a5a5a"/><circle cx="374.7" cy="190.5" r="3" fill="#8a5a5a"/><circle cx="378.2" cy="195.2" r="3" fill="#8a5a5a"/><circle cx="381.8" cy="198.0" r="3" fill="#8a5a5a"/><circle cx="385.3" cy="198.0" r="3" fill="#8a5a5a"/><circle cx="388.8" cy="198.0" r="3" fill="#8a5a5a"/><circle cx="392.3" cy="198.0" r="3" fill="#8a5a5a"/><circle cx="395.9" cy="198.0" r="3" fill="#8a5a5a"/><circle cx="399.4" cy="198.0" r="3" fill="#8a5a5a"/><circle cx="402.9" cy="198.0" r="3" fill="#8a5a5a"/><circle cx="406.4" cy="198.0" r="3" fill="#8a5a5a"/><circle cx="410.0" cy="198.0" r="3" fill="#8a5a5a"/><circle cx="413.5" cy="198.0" r="3" fill="#8a5a5a"/><circle cx="417.0" cy="198.0" r="3" fill="#8a5a5a"/><circle cx="420.6" cy="198.0" r="3" fill="#8a5a5a"/><circle cx="424.1" cy="198.0" r="3" fill="#8a5a5a"/><circle cx="427.6" cy="198.0" r="3" fill="#8a5a5a"/><circle cx="431.1" cy="198.0" r="3" fill="#8a5a5a"/><circle cx="434.7" cy="198.0" r="3" fill="#8a5a5a"/><circle cx="438.2" cy="198.0" r="3" fill="#8a5a5a"/><circle cx="441.7" cy="198.0" r="3" fill="#8a5a5a"/><circle cx="445.3" cy="198.0" r="3" fill="#8a5a5a"/><circle cx="448.8" cy="198.0" r="3" fill="#8a5a5a"/><circle cx="452.3" cy="198.0" r="3" fill="#8a5a5a"/><circle cx="455.8" cy="198.0" r="3" fill="#8a5a5a"/><circle cx="459.4" cy="198.0" r="3" fill="#8a5a5a"/><circle cx="462.9" cy="198.0" r="3" fill="#8a5a5a"/><circle cx="466.4" cy="198.0" r="3" fill="#8a5a5a"/><circle cx="470.0" cy="198.0" r="3" fill="#8a5a5a"/><circle cx="473.5" cy="198.0" r="3" fill="#8a5a5a"/><circle cx="477.0" cy="198.0" r="3" fill="#8a5a5a"/><circle cx="480.5" cy="198.0" r="3" fill="#8a5a5a"/><circle cx="484.1" cy="198.0" r="3" fill="#8a5a5a"/><circle cx="487.6" cy="198.0" r="3" fill="#8a5a5a"/><circle cx="491.1" cy="198.0" r="3" fill="#8a5a5a"/><circle cx="494.7" cy="198.0" r="3" fill="#8a5a5a"/><circle cx="498.2" cy="198.0" r="3" fill="#8a5a5a"/><circle cx="501.7" cy="198.0" r="3" fill="#8a5a5a"/><circle cx="505.2" cy="198.0" r="3" fill="#8a5a5a"/><circle cx="508.8" cy="198.0" r="3" fill="#8a5a5a"/><circle cx="512.3" cy="198.0" r="3" fill="#8a5a5a"/><circle cx="515.8" cy="198.0" r="3" fill="#8a5a5a"/><circle cx="519.3" cy="198.0" r="3" fill="#8a5a5a"/><circle cx="522.9" cy="198.0" r="3" fill="#8a5a5a"/><circle cx="526.4" cy="198.0" r="3" fill="#8a5a5a"/><circle cx="529.9" cy="198.0" r="3" fill="#8a5a5a"/><circle cx="533.5" cy="198.0" r="3" fill="#8a5a5a"/><circle cx="537.0" cy="198.0" r="3" fill="#8a5a5a"/><circle cx="540.5" cy="198.0" r="3" fill="#8a5a5a"/><circle cx="544.0" cy="198.0" r="3" fill="#8a5a5a"/><circle cx="547.6" cy="198.0" r="3" fill="#8a5a5a"/><circle cx="551.1" cy="198.0" r="3" fill="#8a5a5a"/><circle cx="554.6" cy="198.0" r="3" fill="#8a5a5a"/><circle cx="558.2" cy="198.0" r="3" fill="#8a5a5a"/><circle cx="561.7" cy="198.0" r="3" fill="#8a5a5a"/><circle cx="565.2" cy="198.0" r="3" fill="#8a5a5a"/><circle cx="568.7" cy="198.0" r="3" fill="#8a5a5a"/><circle cx="572.3" cy="198.0" r="3" fill="#8a5a5a"/><circle cx="575.8" cy="198.0" r="3" fill="#8a5a5a"/><circle cx="579.3" cy="198.0" r="3" fill="#8a5a5a"/><circle cx="582.9" cy="198.0" r="3" fill="#8a5a5a"/><circle cx="586.4" cy="198.0" r="3" fill="#8a5a5a"/><circle cx="589.9" cy="198.0" r="3" fill="#8a5a5a"/><circle cx="593.4" cy="198.0" r="3" fill="#8a5a5a"/><circle cx="597.0" cy="198.0" r="3" fill="#8a5a5a"/><circle cx="600.5" cy="198.0" r="3" fill="#8a5a5a"/><circle cx="604.0" cy="198.0" r="3" fill="#8a5a5a"/><circle cx="607.6" cy="198.0" r="3" fill="#8a5a5a"/><circle cx="611.1" cy="198.0" r="3" fill="#8a5a5a"/><circle cx="614.6" cy="198.0" r="3" fill="#8a5a5a"/><circle cx="618.1" cy="198.0" r="3" fill="#8a5a5a"/><circle cx="621.7" cy="198.0" r="3" fill="#8a5a5a"/><circle cx="625.2" cy="198.0" r="3" fill="#8a5a5a"/><circle cx="628.7" cy="198.0" r="3" fill="#8a5a5a"/><circle cx="632.2" cy="198.0" r="3" fill="#8a5a5a"/><circle cx="635.8" cy="198.0" r="3" fill="#8a5a5a"/><circle cx="639.3" cy="198.0" r="3" fill="#8a5a5a"/><circle cx="642.8" cy="198.0" r="3" fill="#8a5a5a"/><circle cx="646.4" cy="198.0" r="3" fill="#8a5a5a"/><circle cx="649.9" cy="198.0" r="3" fill="#8a5a5a"/><circle cx="653.4" cy="198.0" r="3" fill="#8a5a5a"/><circle cx="656.9" cy="198.0" r="3" fill="#8a5a5a"/><circle cx="660.5" cy="198.0" r="3" fill="#8a5a5a"/><circle cx="664.0" cy="198.0" r="3" fill="#8a5a5a"/>
<polyline fill="none" stroke="#3fb950" stroke-width="2.5" stroke-linejoin="round" points="36.0,198.0 39.5,198.0 43.1,198.0 46.6,198.0 50.1,198.0 53.6,198.0 57.2,198.0 60.7,198.0 64.2,198.0 67.8,198.0 71.3,198.0 74.8,198.0 78.3,198.0 81.9,198.0 85.4,198.0 88.9,198.0 92.4,198.0 96.0,198.0 99.5,198.0 103.0,198.0 106.6,198.0 110.1,198.0 113.6,198.0 117.1,198.0 120.7,198.0 124.2,198.0 127.7,198.0 131.3,198.0 134.8,198.0 138.3,198.0 141.8,198.0 145.4,198.0 148.9,198.0 152.4,198.0 156.0,198.0 159.5,198.0 163.0,198.0 166.5,198.0 170.1,198.0 173.6,198.0 177.1,198.0 180.7,198.0 184.2,198.0 187.7,191.7 191.2,191.7 194.8,191.7 198.3,191.7 201.8,191.7 205.3,191.7 208.9,191.7 212.4,192.9 215.9,192.9 219.5,190.7 223.0,190.7 226.5,190.7 230.0,190.7 233.6,190.7 237.1,190.5 240.6,190.5 244.2,190.5 247.7,190.3 251.2,190.3 254.7,190.3 258.3,190.3 261.8,190.3 265.3,190.3 268.9,190.3 272.4,190.3 275.9,190.3 279.4,190.3 283.0,190.3 286.5,190.3 290.0,190.3 293.6,190.3 297.1,190.3 300.6,190.3 304.1,190.3 307.7,190.3 311.2,190.3 314.7,190.3 318.2,190.3 321.8,189.3 325.3,189.3 328.8,189.3 332.4,190.7 335.9,190.7 339.4,190.7 342.9,190.7 346.5,190.7 350.0,190.7 353.5,190.7 357.1,190.7 360.6,190.7 364.1,190.9 367.6,190.9 371.2,190.9 374.7,194.2 378.2,196.8 381.8,198.0 385.3,198.0 388.8,198.0 392.3,198.0 395.9,198.0 399.4,198.0 402.9,198.0 406.4,198.0 410.0,198.0 413.5,198.0 417.0,198.0 420.6,198.0 424.1,198.0 427.6,198.0 431.1,198.0 434.7,198.0 438.2,198.0 441.7,198.0 445.3,198.0 448.8,198.0 452.3,198.0 455.8,198.0 459.4,198.0 462.9,198.0 466.4,198.0 470.0,198.0 473.5,198.0 477.0,198.0 480.5,198.0 484.1,198.0 487.6,198.0 491.1,198.0 494.7,198.0 498.2,198.0 501.7,198.0 505.2,198.0 508.8,198.0 512.3,198.0 515.8,198.0 519.3,198.0 522.9,198.0 526.4,198.0 529.9,198.0 533.5,198.0 537.0,198.0 540.5,198.0 544.0,198.0 547.6,198.0 551.1,198.0 554.6,198.0 558.2,198.0 561.7,198.0 565.2,198.0 568.7,198.0 572.3,198.0 575.8,198.0 579.3,198.0 582.9,198.0 586.4,198.0 589.9,198.0 593.4,198.0 597.0,198.0 600.5,198.0 604.0,198.0 607.6,198.0 611.1,198.0 614.6,198.0 618.1,198.0 621.7,198.0 625.2,198.0 628.7,198.0 632.2,198.0 635.8,198.0 639.3,198.0 642.8,198.0 646.4,198.0 649.9,198.0 653.4,198.0 656.9,198.0 660.5,198.0 664.0,198.0"/><circle cx="36.0" cy="198.0" r="3" fill="#3fb950"/><circle cx="39.5" cy="198.0" r="3" fill="#3fb950"/><circle cx="43.1" cy="198.0" r="3" fill="#3fb950"/><circle cx="46.6" cy="198.0" r="3" fill="#3fb950"/><circle cx="50.1" cy="198.0" r="3" fill="#3fb950"/><circle cx="53.6" cy="198.0" r="3" fill="#3fb950"/><circle cx="57.2" cy="198.0" r="3" fill="#3fb950"/><circle cx="60.7" cy="198.0" r="3" fill="#3fb950"/><circle cx="64.2" cy="198.0" r="3" fill="#3fb950"/><circle cx="67.8" cy="198.0" r="3" fill="#3fb950"/><circle cx="71.3" cy="198.0" r="3" fill="#3fb950"/><circle cx="74.8" cy="198.0" r="3" fill="#3fb950"/><circle cx="78.3" cy="198.0" r="3" fill="#3fb950"/><circle cx="81.9" cy="198.0" r="3" fill="#3fb950"/><circle cx="85.4" cy="198.0" r="3" fill="#3fb950"/><circle cx="88.9" cy="198.0" r="3" fill="#3fb950"/><circle cx="92.4" cy="198.0" r="3" fill="#3fb950"/><circle cx="96.0" cy="198.0" r="3" fill="#3fb950"/><circle cx="99.5" cy="198.0" r="3" fill="#3fb950"/><circle cx="103.0" cy="198.0" r="3" fill="#3fb950"/><circle cx="106.6" cy="198.0" r="3" fill="#3fb950"/><circle cx="110.1" cy="198.0" r="3" fill="#3fb950"/><circle cx="113.6" cy="198.0" r="3" fill="#3fb950"/><circle cx="117.1" cy="198.0" r="3" fill="#3fb950"/><circle cx="120.7" cy="198.0" r="3" fill="#3fb950"/><circle cx="124.2" cy="198.0" r="3" fill="#3fb950"/><circle cx="127.7" cy="198.0" r="3" fill="#3fb950"/><circle cx="131.3" cy="198.0" r="3" fill="#3fb950"/><circle cx="134.8" cy="198.0" r="3" fill="#3fb950"/><circle cx="138.3" cy="198.0" r="3" fill="#3fb950"/><circle cx="141.8" cy="198.0" r="3" fill="#3fb950"/><circle cx="145.4" cy="198.0" r="3" fill="#3fb950"/><circle cx="148.9" cy="198.0" r="3" fill="#3fb950"/><circle cx="152.4" cy="198.0" r="3" fill="#3fb950"/><circle cx="156.0" cy="198.0" r="3" fill="#3fb950"/><circle cx="159.5" cy="198.0" r="3" fill="#3fb950"/><circle cx="163.0" cy="198.0" r="3" fill="#3fb950"/><circle cx="166.5" cy="198.0" r="3" fill="#3fb950"/><circle cx="170.1" cy="198.0" r="3" fill="#3fb950"/><circle cx="173.6" cy="198.0" r="3" fill="#3fb950"/><circle cx="177.1" cy="198.0" r="3" fill="#3fb950"/><circle cx="180.7" cy="198.0" r="3" fill="#3fb950"/><circle cx="184.2" cy="198.0" r="3" fill="#3fb950"/><circle cx="187.7" cy="191.7" r="3" fill="#3fb950"/><circle cx="191.2" cy="191.7" r="3" fill="#3fb950"/><circle cx="194.8" cy="191.7" r="3" fill="#3fb950"/><circle cx="198.3" cy="191.7" r="3" fill="#3fb950"/><circle cx="201.8" cy="191.7" r="3" fill="#3fb950"/><circle cx="205.3" cy="191.7" r="3" fill="#3fb950"/><circle cx="208.9" cy="191.7" r="3" fill="#3fb950"/><circle cx="212.4" cy="192.9" r="3" fill="#3fb950"/><circle cx="215.9" cy="192.9" r="3" fill="#3fb950"/><circle cx="219.5" cy="190.7" r="3" fill="#3fb950"/><circle cx="223.0" cy="190.7" r="3" fill="#3fb950"/><circle cx="226.5" cy="190.7" r="3" fill="#3fb950"/><circle cx="230.0" cy="190.7" r="3" fill="#3fb950"/><circle cx="233.6" cy="190.7" r="3" fill="#3fb950"/><circle cx="237.1" cy="190.5" r="3" fill="#3fb950"/><circle cx="240.6" cy="190.5" r="3" fill="#3fb950"/><circle cx="244.2" cy="190.5" r="3" fill="#3fb950"/><circle cx="247.7" cy="190.3" r="3" fill="#3fb950"/><circle cx="251.2" cy="190.3" r="3" fill="#3fb950"/><circle cx="254.7" cy="190.3" r="3" fill="#3fb950"/><circle cx="258.3" cy="190.3" r="3" fill="#3fb950"/><circle cx="261.8" cy="190.3" r="3" fill="#3fb950"/><circle cx="265.3" cy="190.3" r="3" fill="#3fb950"/><circle cx="268.9" cy="190.3" r="3" fill="#3fb950"/><circle cx="272.4" cy="190.3" r="3" fill="#3fb950"/><circle cx="275.9" cy="190.3" r="3" fill="#3fb950"/><circle cx="279.4" cy="190.3" r="3" fill="#3fb950"/><circle cx="283.0" cy="190.3" r="3" fill="#3fb950"/><circle cx="286.5" cy="190.3" r="3" fill="#3fb950"/><circle cx="290.0" cy="190.3" r="3" fill="#3fb950"/><circle cx="293.6" cy="190.3" r="3" fill="#3fb950"/><circle cx="297.1" cy="190.3" r="3" fill="#3fb950"/><circle cx="300.6" cy="190.3" r="3" fill="#3fb950"/><circle cx="304.1" cy="190.3" r="3" fill="#3fb950"/><circle cx="307.7" cy="190.3" r="3" fill="#3fb950"/><circle cx="311.2" cy="190.3" r="3" fill="#3fb950"/><circle cx="314.7" cy="190.3" r="3" fill="#3fb950"/><circle cx="318.2" cy="190.3" r="3" fill="#3fb950"/><circle cx="321.8" cy="189.3" r="3" fill="#3fb950"/><circle cx="325.3" cy="189.3" r="3" fill="#3fb950"/><circle cx="328.8" cy="189.3" r="3" fill="#3fb950"/><circle cx="332.4" cy="190.7" r="3" fill="#3fb950"/><circle cx="335.9" cy="190.7" r="3" fill="#3fb950"/><circle cx="339.4" cy="190.7" r="3" fill="#3fb950"/><circle cx="342.9" cy="190.7" r="3" fill="#3fb950"/><circle cx="346.5" cy="190.7" r="3" fill="#3fb950"/><circle cx="350.0" cy="190.7" r="3" fill="#3fb950"/><circle cx="353.5" cy="190.7" r="3" fill="#3fb950"/><circle cx="357.1" cy="190.7" r="3" fill="#3fb950"/><circle cx="360.6" cy="190.7" r="3" fill="#3fb950"/><circle cx="364.1" cy="190.9" r="3" fill="#3fb950"/><circle cx="367.6" cy="190.9" r="3" fill="#3fb950"/><circle cx="371.2" cy="190.9" r="3" fill="#3fb950"/><circle cx="374.7" cy="194.2" r="3" fill="#3fb950"/><circle cx="378.2" cy="196.8" r="3" fill="#3fb950"/><circle cx="381.8" cy="198.0" r="3" fill="#3fb950"/><circle cx="385.3" cy="198.0" r="3" fill="#3fb950"/><circle cx="388.8" cy="198.0" r="3" fill="#3fb950"/><circle cx="392.3" cy="198.0" r="3" fill="#3fb950"/><circle cx="395.9" cy="198.0" r="3" fill="#3fb950"/><circle cx="399.4" cy="198.0" r="3" fill="#3fb950"/><circle cx="402.9" cy="198.0" r="3" fill="#3fb950"/><circle cx="406.4" cy="198.0" r="3" fill="#3fb950"/><circle cx="410.0" cy="198.0" r="3" fill="#3fb950"/><circle cx="413.5" cy="198.0" r="3" fill="#3fb950"/><circle cx="417.0" cy="198.0" r="3" fill="#3fb950"/><circle cx="420.6" cy="198.0" r="3" fill="#3fb950"/><circle cx="424.1" cy="198.0" r="3" fill="#3fb950"/><circle cx="427.6" cy="198.0" r="3" fill="#3fb950"/><circle cx="431.1" cy="198.0" r="3" fill="#3fb950"/><circle cx="434.7" cy="198.0" r="3" fill="#3fb950"/><circle cx="438.2" cy="198.0" r="3" fill="#3fb950"/><circle cx="441.7" cy="198.0" r="3" fill="#3fb950"/><circle cx="445.3" cy="198.0" r="3" fill="#3fb950"/><circle cx="448.8" cy="198.0" r="3" fill="#3fb950"/><circle cx="452.3" cy="198.0" r="3" fill="#3fb950"/><circle cx="455.8" cy="198.0" r="3" fill="#3fb950"/><circle cx="459.4" cy="198.0" r="3" fill="#3fb950"/><circle cx="462.9" cy="198.0" r="3" fill="#3fb950"/><circle cx="466.4" cy="198.0" r="3" fill="#3fb950"/><circle cx="470.0" cy="198.0" r="3" fill="#3fb950"/><circle cx="473.5" cy="198.0" r="3" fill="#3fb950"/><circle cx="477.0" cy="198.0" r="3" fill="#3fb950"/><circle cx="480.5" cy="198.0" r="3" fill="#3fb950"/><circle cx="484.1" cy="198.0" r="3" fill="#3fb950"/><circle cx="487.6" cy="198.0" r="3" fill="#3fb950"/><circle cx="491.1" cy="198.0" r="3" fill="#3fb950"/><circle cx="494.7" cy="198.0" r="3" fill="#3fb950"/><circle cx="498.2" cy="198.0" r="3" fill="#3fb950"/><circle cx="501.7" cy="198.0" r="3" fill="#3fb950"/><circle cx="505.2" cy="198.0" r="3" fill="#3fb950"/><circle cx="508.8" cy="198.0" r="3" fill="#3fb950"/><circle cx="512.3" cy="198.0" r="3" fill="#3fb950"/><circle cx="515.8" cy="198.0" r="3" fill="#3fb950"/><circle cx="519.3" cy="198.0" r="3" fill="#3fb950"/><circle cx="522.9" cy="198.0" r="3" fill="#3fb950"/><circle cx="526.4" cy="198.0" r="3" fill="#3fb950"/><circle cx="529.9" cy="198.0" r="3" fill="#3fb950"/><circle cx="533.5" cy="198.0" r="3" fill="#3fb950"/><circle cx="537.0" cy="198.0" r="3" fill="#3fb950"/><circle cx="540.5" cy="198.0" r="3" fill="#3fb950"/><circle cx="544.0" cy="198.0" r="3" fill="#3fb950"/><circle cx="547.6" cy="198.0" r="3" fill="#3fb950"/><circle cx="551.1" cy="198.0" r="3" fill="#3fb950"/><circle cx="554.6" cy="198.0" r="3" fill="#3fb950"/><circle cx="558.2" cy="198.0" r="3" fill="#3fb950"/><circle cx="561.7" cy="198.0" r="3" fill="#3fb950"/><circle cx="565.2" cy="198.0" r="3" fill="#3fb950"/><circle cx="568.7" cy="198.0" r="3" fill="#3fb950"/><circle cx="572.3" cy="198.0" r="3" fill="#3fb950"/><circle cx="575.8" cy="198.0" r="3" fill="#3fb950"/><circle cx="579.3" cy="198.0" r="3" fill="#3fb950"/><circle cx="582.9" cy="198.0" r="3" fill="#3fb950"/><circle cx="586.4" cy="198.0" r="3" fill="#3fb950"/><circle cx="589.9" cy="198.0" r="3" fill="#3fb950"/><circle cx="593.4" cy="198.0" r="3" fill="#3fb950"/><circle cx="597.0" cy="198.0" r="3" fill="#3fb950"/><circle cx="600.5" cy="198.0" r="3" fill="#3fb950"/><circle cx="604.0" cy="198.0" r="3" fill="#3fb950"/><circle cx="607.6" cy="198.0" r="3" fill="#3fb950"/><circle cx="611.1" cy="198.0" r="3" fill="#3fb950"/><circle cx="614.6" cy="198.0" r="3" fill="#3fb950"/><circle cx="618.1" cy="198.0" r="3" fill="#3fb950"/><circle cx="621.7" cy="198.0" r="3" fill="#3fb950"/><circle cx="625.2" cy="198.0" r="3" fill="#3fb950"/><circle cx="628.7" cy="198.0" r="3" fill="#3fb950"/><circle cx="632.2" cy="198.0" r="3" fill="#3fb950"/><circle cx="635.8" cy="198.0" r="3" fill="#3fb950"/><circle cx="639.3" cy="198.0" r="3" fill="#3fb950"/><circle cx="642.8" cy="198.0" r="3" fill="#3fb950"/><circle cx="646.4" cy="198.0" r="3" fill="#3fb950"/><circle cx="649.9" cy="198.0" r="3" fill="#3fb950"/><circle cx="653.4" cy="198.0" r="3" fill="#3fb950"/><circle cx="656.9" cy="198.0" r="3" fill="#3fb950"/><circle cx="660.5" cy="198.0" r="3" fill="#3fb950"/><circle cx="664.0" cy="198.0" r="3" fill="#3fb950"/>
<polyline fill="none" stroke="#4aa3ff" stroke-width="2.5" stroke-linejoin="round" points="36.0,144.3 39.5,144.3 43.1,144.3 46.6,144.3 50.1,144.3 53.6,144.3 57.2,144.3 60.7,144.3 64.2,144.3 67.8,144.3 71.3,144.3 74.8,144.3 78.3,144.3 81.9,144.3 85.4,144.3 88.9,136.2 92.4,132.4 96.0,129.6 99.5,129.6 103.0,121.0 106.6,121.0 110.1,121.0 113.6,114.4 117.1,114.4 120.7,114.4 124.2,111.3 127.7,110.9 131.3,110.9 134.8,110.5 138.3,110.5 141.8,109.9 145.4,108.7 148.9,107.3 152.4,106.9 156.0,106.9 159.5,106.9 163.0,106.9 166.5,106.9 170.1,106.9 173.6,106.9 177.1,106.9 180.7,106.9 184.2,106.9 187.7,113.2 191.2,113.2 194.8,113.2 198.3,113.2 201.8,113.2 205.3,110.7 208.9,105.3 212.4,83.4 215.9,83.4 219.5,85.6 223.0,85.6 226.5,85.6 230.0,85.6 233.6,85.6 237.1,85.8 240.6,85.8 244.2,85.8 247.7,86.0 251.2,86.0 254.7,86.0 258.3,86.0 261.8,86.0 265.3,86.0 268.9,86.0 272.4,86.0 275.9,86.0 279.4,86.0 283.0,86.0 286.5,86.0 290.0,86.0 293.6,86.0 297.1,86.0 300.6,86.0 304.1,86.0 307.7,86.0 311.2,86.0 314.7,86.0 318.2,86.0 321.8,87.0 325.3,87.0 328.8,87.0 332.4,73.7 335.9,73.7 339.4,71.0 342.9,71.0 346.5,70.8 350.0,70.6 353.5,70.6 357.1,70.4 360.6,68.6 364.1,60.5 367.6,59.3 371.2,52.0 374.7,47.3 378.2,40.1 381.8,36.0 385.3,36.0 388.8,36.0 392.3,36.0 395.9,36.0 399.4,36.0 402.9,36.0 406.4,36.0 410.0,36.0 413.5,36.0 417.0,36.0 420.6,36.0 424.1,36.0 427.6,36.0 431.1,36.0 434.7,36.0 438.2,36.0 441.7,36.0 445.3,36.0 448.8,36.0 452.3,36.0 455.8,36.0 459.4,36.0 462.9,36.0 466.4,36.0 470.0,36.0 473.5,36.0 477.0,36.0 480.5,36.0 484.1,36.0 487.6,36.0 491.1,36.0 494.7,36.0 498.2,36.0 501.7,36.0 505.2,36.0 508.8,36.0 512.3,36.0 515.8,36.0 519.3,36.0 522.9,36.0 526.4,36.0 529.9,36.0 533.5,36.0 537.0,36.0 540.5,36.0 544.0,36.0 547.6,36.0 551.1,36.0 554.6,36.0 558.2,36.0 561.7,36.0 565.2,36.0 568.7,36.0 572.3,36.0 575.8,36.0 579.3,36.0 582.9,36.0 586.4,36.0 589.9,36.0 593.4,36.0 597.0,36.0 600.5,36.0 604.0,36.0 607.6,36.0 611.1,36.0 614.6,36.0 618.1,36.0 621.7,36.0 625.2,36.0 628.7,36.0 632.2,36.0 635.8,36.0 639.3,36.0 642.8,36.0 646.4,36.0 649.9,36.0 653.4,36.0 656.9,36.0 660.5,36.0 664.0,36.0"/><circle cx="36.0" cy="144.3" r="3" fill="#4aa3ff"/><circle cx="39.5" cy="144.3" r="3" fill="#4aa3ff"/><circle cx="43.1" cy="144.3" r="3" fill="#4aa3ff"/><circle cx="46.6" cy="144.3" r="3" fill="#4aa3ff"/><circle cx="50.1" cy="144.3" r="3" fill="#4aa3ff"/><circle cx="53.6" cy="144.3" r="3" fill="#4aa3ff"/><circle cx="57.2" cy="144.3" r="3" fill="#4aa3ff"/><circle cx="60.7" cy="144.3" r="3" fill="#4aa3ff"/><circle cx="64.2" cy="144.3" r="3" fill="#4aa3ff"/><circle cx="67.8" cy="144.3" r="3" fill="#4aa3ff"/><circle cx="71.3" cy="144.3" r="3" fill="#4aa3ff"/><circle cx="74.8" cy="144.3" r="3" fill="#4aa3ff"/><circle cx="78.3" cy="144.3" r="3" fill="#4aa3ff"/><circle cx="81.9" cy="144.3" r="3" fill="#4aa3ff"/><circle cx="85.4" cy="144.3" r="3" fill="#4aa3ff"/><circle cx="88.9" cy="136.2" r="3" fill="#4aa3ff"/><circle cx="92.4" cy="132.4" r="3" fill="#4aa3ff"/><circle cx="96.0" cy="129.6" r="3" fill="#4aa3ff"/><circle cx="99.5" cy="129.6" r="3" fill="#4aa3ff"/><circle cx="103.0" cy="121.0" r="3" fill="#4aa3ff"/><circle cx="106.6" cy="121.0" r="3" fill="#4aa3ff"/><circle cx="110.1" cy="121.0" r="3" fill="#4aa3ff"/><circle cx="113.6" cy="114.4" r="3" fill="#4aa3ff"/><circle cx="117.1" cy="114.4" r="3" fill="#4aa3ff"/><circle cx="120.7" cy="114.4" r="3" fill="#4aa3ff"/><circle cx="124.2" cy="111.3" r="3" fill="#4aa3ff"/><circle cx="127.7" cy="110.9" r="3" fill="#4aa3ff"/><circle cx="131.3" cy="110.9" r="3" fill="#4aa3ff"/><circle cx="134.8" cy="110.5" r="3" fill="#4aa3ff"/><circle cx="138.3" cy="110.5" r="3" fill="#4aa3ff"/><circle cx="141.8" cy="109.9" r="3" fill="#4aa3ff"/><circle cx="145.4" cy="108.7" r="3" fill="#4aa3ff"/><circle cx="148.9" cy="107.3" r="3" fill="#4aa3ff"/><circle cx="152.4" cy="106.9" r="3" fill="#4aa3ff"/><circle cx="156.0" cy="106.9" r="3" fill="#4aa3ff"/><circle cx="159.5" cy="106.9" r="3" fill="#4aa3ff"/><circle cx="163.0" cy="106.9" r="3" fill="#4aa3ff"/><circle cx="166.5" cy="106.9" r="3" fill="#4aa3ff"/><circle cx="170.1" cy="106.9" r="3" fill="#4aa3ff"/><circle cx="173.6" cy="106.9" r="3" fill="#4aa3ff"/><circle cx="177.1" cy="106.9" r="3" fill="#4aa3ff"/><circle cx="180.7" cy="106.9" r="3" fill="#4aa3ff"/><circle cx="184.2" cy="106.9" r="3" fill="#4aa3ff"/><circle cx="187.7" cy="113.2" r="3" fill="#4aa3ff"/><circle cx="191.2" cy="113.2" r="3" fill="#4aa3ff"/><circle cx="194.8" cy="113.2" r="3" fill="#4aa3ff"/><circle cx="198.3" cy="113.2" r="3" fill="#4aa3ff"/><circle cx="201.8" cy="113.2" r="3" fill="#4aa3ff"/><circle cx="205.3" cy="110.7" r="3" fill="#4aa3ff"/><circle cx="208.9" cy="105.3" r="3" fill="#4aa3ff"/><circle cx="212.4" cy="83.4" r="3" fill="#4aa3ff"/><circle cx="215.9" cy="83.4" r="3" fill="#4aa3ff"/><circle cx="219.5" cy="85.6" r="3" fill="#4aa3ff"/><circle cx="223.0" cy="85.6" r="3" fill="#4aa3ff"/><circle cx="226.5" cy="85.6" r="3" fill="#4aa3ff"/><circle cx="230.0" cy="85.6" r="3" fill="#4aa3ff"/><circle cx="233.6" cy="85.6" r="3" fill="#4aa3ff"/><circle cx="237.1" cy="85.8" r="3" fill="#4aa3ff"/><circle cx="240.6" cy="85.8" r="3" fill="#4aa3ff"/><circle cx="244.2" cy="85.8" r="3" fill="#4aa3ff"/><circle cx="247.7" cy="86.0" r="3" fill="#4aa3ff"/><circle cx="251.2" cy="86.0" r="3" fill="#4aa3ff"/><circle cx="254.7" cy="86.0" r="3" fill="#4aa3ff"/><circle cx="258.3" cy="86.0" r="3" fill="#4aa3ff"/><circle cx="261.8" cy="86.0" r="3" fill="#4aa3ff"/><circle cx="265.3" cy="86.0" r="3" fill="#4aa3ff"/><circle cx="268.9" cy="86.0" r="3" fill="#4aa3ff"/><circle cx="272.4" cy="86.0" r="3" fill="#4aa3ff"/><circle cx="275.9" cy="86.0" r="3" fill="#4aa3ff"/><circle cx="279.4" cy="86.0" r="3" fill="#4aa3ff"/><circle cx="283.0" cy="86.0" r="3" fill="#4aa3ff"/><circle cx="286.5" cy="86.0" r="3" fill="#4aa3ff"/><circle cx="290.0" cy="86.0" r="3" fill="#4aa3ff"/><circle cx="293.6" cy="86.0" r="3" fill="#4aa3ff"/><circle cx="297.1" cy="86.0" r="3" fill="#4aa3ff"/><circle cx="300.6" cy="86.0" r="3" fill="#4aa3ff"/><circle cx="304.1" cy="86.0" r="3" fill="#4aa3ff"/><circle cx="307.7" cy="86.0" r="3" fill="#4aa3ff"/><circle cx="311.2" cy="86.0" r="3" fill="#4aa3ff"/><circle cx="314.7" cy="86.0" r="3" fill="#4aa3ff"/><circle cx="318.2" cy="86.0" r="3" fill="#4aa3ff"/><circle cx="321.8" cy="87.0" r="3" fill="#4aa3ff"/><circle cx="325.3" cy="87.0" r="3" fill="#4aa3ff"/><circle cx="328.8" cy="87.0" r="3" fill="#4aa3ff"/><circle cx="332.4" cy="73.7" r="3" fill="#4aa3ff"/><circle cx="335.9" cy="73.7" r="3" fill="#4aa3ff"/><circle cx="339.4" cy="71.0" r="3" fill="#4aa3ff"/><circle cx="342.9" cy="71.0" r="3" fill="#4aa3ff"/><circle cx="346.5" cy="70.8" r="3" fill="#4aa3ff"/><circle cx="350.0" cy="70.6" r="3" fill="#4aa3ff"/><circle cx="353.5" cy="70.6" r="3" fill="#4aa3ff"/><circle cx="357.1" cy="70.4" r="3" fill="#4aa3ff"/><circle cx="360.6" cy="68.6" r="3" fill="#4aa3ff"/><circle cx="364.1" cy="60.5" r="3" fill="#4aa3ff"/><circle cx="367.6" cy="59.3" r="3" fill="#4aa3ff"/><circle cx="371.2" cy="52.0" r="3" fill="#4aa3ff"/><circle cx="374.7" cy="47.3" r="3" fill="#4aa3ff"/><circle cx="378.2" cy="40.1" r="3" fill="#4aa3ff"/><circle cx="381.8" cy="36.0" r="3" fill="#4aa3ff"/><circle cx="385.3" cy="36.0" r="3" fill="#4aa3ff"/><circle cx="388.8" cy="36.0" r="3" fill="#4aa3ff"/><circle cx="392.3" cy="36.0" r="3" fill="#4aa3ff"/><circle cx="395.9" cy="36.0" r="3" fill="#4aa3ff"/><circle cx="399.4" cy="36.0" r="3" fill="#4aa3ff"/><circle cx="402.9" cy="36.0" r="3" fill="#4aa3ff"/><circle cx="406.4" cy="36.0" r="3" fill="#4aa3ff"/><circle cx="410.0" cy="36.0" r="3" fill="#4aa3ff"/><circle cx="413.5" cy="36.0" r="3" fill="#4aa3ff"/><circle cx="417.0" cy="36.0" r="3" fill="#4aa3ff"/><circle cx="420.6" cy="36.0" r="3" fill="#4aa3ff"/><circle cx="424.1" cy="36.0" r="3" fill="#4aa3ff"/><circle cx="427.6" cy="36.0" r="3" fill="#4aa3ff"/><circle cx="431.1" cy="36.0" r="3" fill="#4aa3ff"/><circle cx="434.7" cy="36.0" r="3" fill="#4aa3ff"/><circle cx="438.2" cy="36.0" r="3" fill="#4aa3ff"/><circle cx="441.7" cy="36.0" r="3" fill="#4aa3ff"/><circle cx="445.3" cy="36.0" r="3" fill="#4aa3ff"/><circle cx="448.8" cy="36.0" r="3" fill="#4aa3ff"/><circle cx="452.3" cy="36.0" r="3" fill="#4aa3ff"/><circle cx="455.8" cy="36.0" r="3" fill="#4aa3ff"/><circle cx="459.4" cy="36.0" r="3" fill="#4aa3ff"/><circle cx="462.9" cy="36.0" r="3" fill="#4aa3ff"/><circle cx="466.4" cy="36.0" r="3" fill="#4aa3ff"/><circle cx="470.0" cy="36.0" r="3" fill="#4aa3ff"/><circle cx="473.5" cy="36.0" r="3" fill="#4aa3ff"/><circle cx="477.0" cy="36.0" r="3" fill="#4aa3ff"/><circle cx="480.5" cy="36.0" r="3" fill="#4aa3ff"/><circle cx="484.1" cy="36.0" r="3" fill="#4aa3ff"/><circle cx="487.6" cy="36.0" r="3" fill="#4aa3ff"/><circle cx="491.1" cy="36.0" r="3" fill="#4aa3ff"/><circle cx="494.7" cy="36.0" r="3" fill="#4aa3ff"/><circle cx="498.2" cy="36.0" r="3" fill="#4aa3ff"/><circle cx="501.7" cy="36.0" r="3" fill="#4aa3ff"/><circle cx="505.2" cy="36.0" r="3" fill="#4aa3ff"/><circle cx="508.8" cy="36.0" r="3" fill="#4aa3ff"/><circle cx="512.3" cy="36.0" r="3" fill="#4aa3ff"/><circle cx="515.8" cy="36.0" r="3" fill="#4aa3ff"/><circle cx="519.3" cy="36.0" r="3" fill="#4aa3ff"/><circle cx="522.9" cy="36.0" r="3" fill="#4aa3ff"/><circle cx="526.4" cy="36.0" r="3" fill="#4aa3ff"/><circle cx="529.9" cy="36.0" r="3" fill="#4aa3ff"/><circle cx="533.5" cy="36.0" r="3" fill="#4aa3ff"/><circle cx="537.0" cy="36.0" r="3" fill="#4aa3ff"/><circle cx="540.5" cy="36.0" r="3" fill="#4aa3ff"/><circle cx="544.0" cy="36.0" r="3" fill="#4aa3ff"/><circle cx="547.6" cy="36.0" r="3" fill="#4aa3ff"/><circle cx="551.1" cy="36.0" r="3" fill="#4aa3ff"/><circle cx="554.6" cy="36.0" r="3" fill="#4aa3ff"/><circle cx="558.2" cy="36.0" r="3" fill="#4aa3ff"/><circle cx="561.7" cy="36.0" r="3" fill="#4aa3ff"/><circle cx="565.2" cy="36.0" r="3" fill="#4aa3ff"/><circle cx="568.7" cy="36.0" r="3" fill="#4aa3ff"/><circle cx="572.3" cy="36.0" r="3" fill="#4aa3ff"/><circle cx="575.8" cy="36.0" r="3" fill="#4aa3ff"/><circle cx="579.3" cy="36.0" r="3" fill="#4aa3ff"/><circle cx="582.9" cy="36.0" r="3" fill="#4aa3ff"/><circle cx="586.4" cy="36.0" r="3" fill="#4aa3ff"/><circle cx="589.9" cy="36.0" r="3" fill="#4aa3ff"/><circle cx="593.4" cy="36.0" r="3" fill="#4aa3ff"/><circle cx="597.0" cy="36.0" r="3" fill="#4aa3ff"/><circle cx="600.5" cy="36.0" r="3" fill="#4aa3ff"/><circle cx="604.0" cy="36.0" r="3" fill="#4aa3ff"/><circle cx="607.6" cy="36.0" r="3" fill="#4aa3ff"/><circle cx="611.1" cy="36.0" r="3" fill="#4aa3ff"/><circle cx="614.6" cy="36.0" r="3" fill="#4aa3ff"/><circle cx="618.1" cy="36.0" r="3" fill="#4aa3ff"/><circle cx="621.7" cy="36.0" r="3" fill="#4aa3ff"/><circle cx="625.2" cy="36.0" r="3" fill="#4aa3ff"/><circle cx="628.7" cy="36.0" r="3" fill="#4aa3ff"/><circle cx="632.2" cy="36.0" r="3" fill="#4aa3ff"/><circle cx="635.8" cy="36.0" r="3" fill="#4aa3ff"/><circle cx="639.3" cy="36.0" r="3" fill="#4aa3ff"/><circle cx="642.8" cy="36.0" r="3" fill="#4aa3ff"/><circle cx="646.4" cy="36.0" r="3" fill="#4aa3ff"/><circle cx="649.9" cy="36.0" r="3" fill="#4aa3ff"/><circle cx="653.4" cy="36.0" r="3" fill="#4aa3ff"/><circle cx="656.9" cy="36.0" r="3" fill="#4aa3ff"/><circle cx="660.5" cy="36.0" r="3" fill="#4aa3ff"/><circle cx="664.0" cy="36.0" r="3" fill="#4aa3ff"/>
<text x="36" y="225" fill="#6b7280" font-size="11">2026-06-26</text>
<text x="664" y="225" fill="#6b7280" font-size="11" text-anchor="end">2026-07-15</text>
<text x="36" y="212" font-family="system-ui,sans-serif" font-size="11">
<tspan fill="#4aa3ff">&#9679; open FPs</tspan>  <tspan fill="#3fb950">&#9679; closed (Anthropic acting)</tspan>  <tspan fill="#8a5a5a">&#9679; harness withdrawn</tspan></text>
<text x="664" y="22" text-anchor="end" font-family="system-ui,sans-serif" font-size="12">
<tspan fill="#4aa3ff">open 800</tspan>  <tspan fill="#3fb950">closed 0</tspan>  <tspan fill="#8a5a5a">harness 0</tspan></text>
</svg>