<svg xmlns="http://www.w3.org/2000/svg" width="700" height="234" viewBox="0 0 700 234" role="img">
<rect width="700" height="234" rx="12" fill="#16181d"/>
<text x="36" y="22" fill="#e8eaed" font-family="system-ui,sans-serif" font-size="14" font-weight="700">Is Anthropic acting? cyber/aup false positives over time</text>
<line x1="36" y1="198.0" x2="664" y2="198.0" stroke="#2a2e37" stroke-width="1"/><text x="30" y="202.0" fill="#6b7280" font-size="11" text-anchor="end">0</text><line x1="36" y1="117.0" x2="664" y2="117.0" stroke="#2a2e37" stroke-width="1"/><text x="30" y="121.0" fill="#6b7280" font-size="11" text-anchor="end">400</text><line x1="36" y1="36.0" x2="664" y2="36.0" stroke="#2a2e37" stroke-width="1"/><text x="30" y="40.0" fill="#6b7280" font-size="11" text-anchor="end">800</text>

<polyline fill="none" stroke="#8a5a5a" stroke-width="2.5" stroke-linejoin="round" points="36.0,145.1 38.6,145.1 41.2,145.1 43.8,145.1 46.4,145.1 49.0,145.1 51.6,145.1 54.2,145.1 56.8,145.1 59.5,145.1 62.1,145.1 64.7,145.1 67.3,145.1 69.9,145.1 72.5,145.1 75.1,145.1 77.7,145.1 80.3,145.1 82.9,145.1 85.5,145.1 88.1,145.1 90.7,145.1 93.3,145.1 95.9,145.1 98.5,145.1 101.1,145.1 103.8,145.1 106.4,145.1 109.0,145.1 111.6,145.1 114.2,145.1 116.8,145.1 119.4,145.1 122.0,145.1 124.6,145.1 127.2,145.1 129.8,145.1 132.4,145.1 135.0,145.1 137.6,145.1 140.2,145.1 142.8,145.1 145.4,145.1 148.0,145.1 150.7,145.1 153.3,145.1 155.9,145.1 158.5,145.1 161.1,145.1 163.7,145.1 166.3,155.7 168.9,155.7 171.5,155.7 174.1,155.7 176.7,155.7 179.3,155.7 181.9,155.7 184.5,155.7 187.1,155.7 189.7,155.7 192.3,155.7 195.0,155.7 197.6,155.7 200.2,155.7 202.8,155.7 205.4,155.7 208.0,155.7 210.6,155.7 213.2,155.7 215.8,155.7 218.4,155.7 221.0,155.7 223.6,155.7 226.2,155.7 228.8,155.7 231.4,155.7 234.0,155.7 236.6,155.7 239.3,155.7 241.9,155.7 244.5,155.7 247.1,155.7 249.7,155.7 252.3,155.7 254.9,167.6 257.5,167.6 260.1,170.3 262.7,170.3 265.3,170.5 267.9,170.7 270.5,170.7 273.1,170.9 275.7,172.7 278.3,180.6 280.9,181.8 283.6,189.1 286.2,190.5 288.8,195.2 291.4,198.0 294.0,198.0 296.6,198.0 299.2,198.0 301.8,198.0 304.4,198.0 307.0,198.0 309.6,198.0 312.2,198.0 314.8,198.0 317.4,198.0 320.0,198.0 322.6,198.0 325.2,198.0 327.9,198.0 330.5,198.0 333.1,198.0 335.7,198.0 338.3,198.0 340.9,198.0 343.5,198.0 346.1,198.0 348.7,198.0 351.3,198.0 353.9,198.0 356.5,198.0 359.1,198.0 361.7,198.0 364.3,198.0 366.9,198.0 369.5,198.0 372.1,198.0 374.8,198.0 377.4,198.0 380.0,198.0 382.6,198.0 385.2,198.0 387.8,198.0 390.4,198.0 393.0,198.0 395.6,198.0 398.2,198.0 400.8,198.0 403.4,198.0 406.0,198.0 408.6,198.0 411.2,198.0 413.8,198.0 416.4,198.0 419.1,198.0 421.7,198.0 424.3,198.0 426.9,198.0 429.5,198.0 432.1,198.0 434.7,198.0 437.3,198.0 439.9,198.0 442.5,198.0 445.1,198.0 447.7,198.0 450.3,198.0 452.9,198.0 455.5,198.0 458.1,198.0 460.7,198.0 463.4,198.0 466.0,198.0 468.6,198.0 471.2,198.0 473.8,198.0 476.4,198.0 479.0,198.0 481.6,198.0 484.2,198.0 486.8,198.0 489.4,198.0 492.0,198.0 494.6,198.0 497.2,198.0 499.8,198.0 502.4,198.0 505.0,198.0 507.7,198.0 510.3,198.0 512.9,198.0 515.5,198.0 518.1,198.0 520.7,198.0 523.3,198.0 525.9,198.0 528.5,198.0 531.1,198.0 533.7,198.0 536.3,198.0 538.9,198.0 541.5,198.0 544.1,198.0 546.7,198.0 549.3,198.0 552.0,198.0 554.6,198.0 557.2,198.0 559.8,198.0 562.4,198.0 565.0,198.0 567.6,198.0 570.2,198.0 572.8,198.0 575.4,198.0 578.0,198.0 580.6,198.0 583.2,198.0 585.8,198.0 588.4,198.0 591.0,198.0 593.6,198.0 596.2,198.0 598.9,198.0 601.5,198.0 604.1,198.0 606.7,198.0 609.3,198.0 611.9,198.0 614.5,198.0 617.1,198.0 619.7,198.0 622.3,198.0 624.9,198.0 627.5,198.0 630.1,198.0 632.7,198.0 635.3,198.0 637.9,198.0 640.5,198.0 643.2,198.0 645.8,198.0 648.4,198.0 651.0,198.0 653.6,198.0 656.2,198.0 658.8,198.0 661.4,198.0 664.0,198.0"/><circle cx="36.0" cy="145.1" r="3" fill="#8a5a5a"/><circle cx="38.6" cy="145.1" r="3" fill="#8a5a5a"/><circle cx="41.2" cy="145.1" r="3" fill="#8a5a5a"/><circle cx="43.8" cy="145.1" r="3" fill="#8a5a5a"/><circle cx="46.4" cy="145.1" r="3" fill="#8a5a5a"/><circle cx="49.0" cy="145.1" r="3" fill="#8a5a5a"/><circle cx="51.6" cy="145.1" r="3" fill="#8a5a5a"/><circle cx="54.2" cy="145.1" r="3" fill="#8a5a5a"/><circle cx="56.8" cy="145.1" r="3" fill="#8a5a5a"/><circle cx="59.5" cy="145.1" r="3" fill="#8a5a5a"/><circle cx="62.1" cy="145.1" r="3" fill="#8a5a5a"/><circle cx="64.7" cy="145.1" r="3" fill="#8a5a5a"/><circle cx="67.3" cy="145.1" r="3" fill="#8a5a5a"/><circle cx="69.9" cy="145.1" r="3" fill="#8a5a5a"/><circle cx="72.5" cy="145.1" r="3" fill="#8a5a5a"/><circle cx="75.1" cy="145.1" r="3" fill="#8a5a5a"/><circle cx="77.7" cy="145.1" r="3" fill="#8a5a5a"/><circle cx="80.3" cy="145.1" r="3" fill="#8a5a5a"/><circle cx="82.9" cy="145.1" r="3" fill="#8a5a5a"/><circle cx="85.5" cy="145.1" r="3" fill="#8a5a5a"/><circle cx="88.1" cy="145.1" r="3" fill="#8a5a5a"/><circle cx="90.7" cy="145.1" r="3" fill="#8a5a5a"/><circle cx="93.3" cy="145.1" r="3" fill="#8a5a5a"/><circle cx="95.9" cy="145.1" r="3" fill="#8a5a5a"/><circle cx="98.5" cy="145.1" r="3" fill="#8a5a5a"/><circle cx="101.1" cy="145.1" r="3" fill="#8a5a5a"/><circle cx="103.8" cy="145.1" r="3" fill="#8a5a5a"/><circle cx="106.4" cy="145.1" r="3" fill="#8a5a5a"/><circle cx="109.0" cy="145.1" r="3" fill="#8a5a5a"/><circle cx="111.6" cy="145.1" r="3" fill="#8a5a5a"/><circle cx="114.2" cy="145.1" r="3" fill="#8a5a5a"/><circle cx="116.8" cy="145.1" r="3" fill="#8a5a5a"/><circle cx="119.4" cy="145.1" r="3" fill="#8a5a5a"/><circle cx="122.0" cy="145.1" r="3" fill="#8a5a5a"/><circle cx="124.6" cy="145.1" r="3" fill="#8a5a5a"/><circle cx="127.2" cy="145.1" r="3" fill="#8a5a5a"/><circle cx="129.8" cy="145.1" r="3" fill="#8a5a5a"/><circle cx="132.4" cy="145.1" r="3" fill="#8a5a5a"/><circle cx="135.0" cy="145.1" r="3" fill="#8a5a5a"/><circle cx="137.6" cy="145.1" r="3" fill="#8a5a5a"/><circle cx="140.2" cy="145.1" r="3" fill="#8a5a5a"/><circle cx="142.8" cy="145.1" r="3" fill="#8a5a5a"/><circle cx="145.4" cy="145.1" r="3" fill="#8a5a5a"/><circle cx="148.0" cy="145.1" r="3" fill="#8a5a5a"/><circle cx="150.7" cy="145.1" r="3" fill="#8a5a5a"/><circle cx="153.3" cy="145.1" r="3" fill="#8a5a5a"/><circle cx="155.9" cy="145.1" r="3" fill="#8a5a5a"/><circle cx="158.5" cy="145.1" r="3" fill="#8a5a5a"/><circle cx="161.1" cy="145.1" r="3" fill="#8a5a5a"/><circle cx="163.7" cy="145.1" r="3" fill="#8a5a5a"/><circle cx="166.3" cy="155.7" r="3" fill="#8a5a5a"/><circle cx="168.9" cy="155.7" r="3" fill="#8a5a5a"/><circle cx="171.5" cy="155.7" r="3" fill="#8a5a5a"/><circle cx="174.1" cy="155.7" r="3" fill="#8a5a5a"/><circle cx="176.7" cy="155.7" r="3" fill="#8a5a5a"/><circle cx="179.3" cy="155.7" r="3" fill="#8a5a5a"/><circle cx="181.9" cy="155.7" r="3" fill="#8a5a5a"/><circle cx="184.5" cy="155.7" r="3" fill="#8a5a5a"/><circle cx="187.1" cy="155.7" r="3" fill="#8a5a5a"/><circle cx="189.7" cy="155.7" r="3" fill="#8a5a5a"/><circle cx="192.3" cy="155.7" r="3" fill="#8a5a5a"/><circle cx="195.0" cy="155.7" r="3" fill="#8a5a5a"/><circle cx="197.6" cy="155.7" r="3" fill="#8a5a5a"/><circle cx="200.2" cy="155.7" r="3" fill="#8a5a5a"/><circle cx="202.8" cy="155.7" r="3" fill="#8a5a5a"/><circle cx="205.4" cy="155.7" r="3" fill="#8a5a5a"/><circle cx="208.0" cy="155.7" r="3" fill="#8a5a5a"/><circle cx="210.6" cy="155.7" r="3" fill="#8a5a5a"/><circle cx="213.2" cy="155.7" r="3" fill="#8a5a5a"/><circle cx="215.8" cy="155.7" r="3" fill="#8a5a5a"/><circle cx="218.4" cy="155.7" r="3" fill="#8a5a5a"/><circle cx="221.0" cy="155.7" r="3" fill="#8a5a5a"/><circle cx="223.6" cy="155.7" r="3" fill="#8a5a5a"/><circle cx="226.2" cy="155.7" r="3" fill="#8a5a5a"/><circle cx="228.8" cy="155.7" r="3" fill="#8a5a5a"/><circle cx="231.4" cy="155.7" r="3" fill="#8a5a5a"/><circle cx="234.0" cy="155.7" r="3" fill="#8a5a5a"/><circle cx="236.6" cy="155.7" r="3" fill="#8a5a5a"/><circle cx="239.3" cy="155.7" r="3" fill="#8a5a5a"/><circle cx="241.9" cy="155.7" r="3" fill="#8a5a5a"/><circle cx="244.5" cy="155.7" r="3" fill="#8a5a5a"/><circle cx="247.1" cy="155.7" r="3" fill="#8a5a5a"/><circle cx="249.7" cy="155.7" r="3" fill="#8a5a5a"/><circle cx="252.3" cy="155.7" r="3" fill="#8a5a5a"/><circle cx="254.9" cy="167.6" r="3" fill="#8a5a5a"/><circle cx="257.5" cy="167.6" r="3" fill="#8a5a5a"/><circle cx="260.1" cy="170.3" r="3" fill="#8a5a5a"/><circle cx="262.7" cy="170.3" r="3" fill="#8a5a5a"/><circle cx="265.3" cy="170.5" r="3" fill="#8a5a5a"/><circle cx="267.9" cy="170.7" r="3" fill="#8a5a5a"/><circle cx="270.5" cy="170.7" r="3" fill="#8a5a5a"/><circle cx="273.1" cy="170.9" r="3" fill="#8a5a5a"/><circle cx="275.7" cy="172.7" r="3" fill="#8a5a5a"/><circle cx="278.3" cy="180.6" r="3" fill="#8a5a5a"/><circle cx="280.9" cy="181.8" r="3" fill="#8a5a5a"/><circle cx="283.6" cy="189.1" r="3" fill="#8a5a5a"/><circle cx="286.2" cy="190.5" r="3" fill="#8a5a5a"/><circle cx="288.8" cy="195.2" r="3" fill="#8a5a5a"/><circle cx="291.4" cy="198.0" r="3" fill="#8a5a5a"/><circle cx="294.0" cy="198.0" r="3" fill="#8a5a5a"/><circle cx="296.6" cy="198.0" r="3" fill="#8a5a5a"/><circle cx="299.2" cy="198.0" r="3" fill="#8a5a5a"/><circle cx="301.8" cy="198.0" r="3" fill="#8a5a5a"/><circle cx="304.4" cy="198.0" r="3" fill="#8a5a5a"/><circle cx="307.0" cy="198.0" r="3" fill="#8a5a5a"/><circle cx="309.6" cy="198.0" r="3" fill="#8a5a5a"/><circle cx="312.2" cy="198.0" r="3" fill="#8a5a5a"/><circle cx="314.8" cy="198.0" r="3" fill="#8a5a5a"/><circle cx="317.4" cy="198.0" r="3" fill="#8a5a5a"/><circle cx="320.0" cy="198.0" r="3" fill="#8a5a5a"/><circle cx="322.6" cy="198.0" r="3" fill="#8a5a5a"/><circle cx="325.2" cy="198.0" r="3" fill="#8a5a5a"/><circle cx="327.9" cy="198.0" r="3" fill="#8a5a5a"/><circle cx="330.5" cy="198.0" r="3" fill="#8a5a5a"/><circle cx="333.1" cy="198.0" r="3" fill="#8a5a5a"/><circle cx="335.7" cy="198.0" r="3" fill="#8a5a5a"/><circle cx="338.3" cy="198.0" r="3" fill="#8a5a5a"/><circle cx="340.9" cy="198.0" r="3" fill="#8a5a5a"/><circle cx="343.5" cy="198.0" r="3" fill="#8a5a5a"/><circle cx="346.1" cy="198.0" r="3" fill="#8a5a5a"/><circle cx="348.7" cy="198.0" r="3" fill="#8a5a5a"/><circle cx="351.3" cy="198.0" r="3" fill="#8a5a5a"/><circle cx="353.9" cy="198.0" r="3" fill="#8a5a5a"/><circle cx="356.5" cy="198.0" r="3" fill="#8a5a5a"/><circle cx="359.1" cy="198.0" r="3" fill="#8a5a5a"/><circle cx="361.7" cy="198.0" r="3" fill="#8a5a5a"/><circle cx="364.3" cy="198.0" r="3" fill="#8a5a5a"/><circle cx="366.9" cy="198.0" r="3" fill="#8a5a5a"/><circle cx="369.5" cy="198.0" r="3" fill="#8a5a5a"/><circle cx="372.1" cy="198.0" r="3" fill="#8a5a5a"/><circle cx="374.8" cy="198.0" r="3" fill="#8a5a5a"/><circle cx="377.4" cy="198.0" r="3" fill="#8a5a5a"/><circle cx="380.0" cy="198.0" r="3" fill="#8a5a5a"/><circle cx="382.6" cy="198.0" r="3" fill="#8a5a5a"/><circle cx="385.2" cy="198.0" r="3" fill="#8a5a5a"/><circle cx="387.8" cy="198.0" r="3" fill="#8a5a5a"/><circle cx="390.4" cy="198.0" r="3" fill="#8a5a5a"/><circle cx="393.0" cy="198.0" r="3" fill="#8a5a5a"/><circle cx="395.6" cy="198.0" r="3" fill="#8a5a5a"/><circle cx="398.2" cy="198.0" r="3" fill="#8a5a5a"/><circle cx="400.8" cy="198.0" r="3" fill="#8a5a5a"/><circle cx="403.4" cy="198.0" r="3" fill="#8a5a5a"/><circle cx="406.0" cy="198.0" r="3" fill="#8a5a5a"/><circle cx="408.6" cy="198.0" r="3" fill="#8a5a5a"/><circle cx="411.2" cy="198.0" r="3" fill="#8a5a5a"/><circle cx="413.8" cy="198.0" r="3" fill="#8a5a5a"/><circle cx="416.4" cy="198.0" r="3" fill="#8a5a5a"/><circle cx="419.1" cy="198.0" r="3" fill="#8a5a5a"/><circle cx="421.7" cy="198.0" r="3" fill="#8a5a5a"/><circle cx="424.3" cy="198.0" r="3" fill="#8a5a5a"/><circle cx="426.9" cy="198.0" r="3" fill="#8a5a5a"/><circle cx="429.5" cy="198.0" r="3" fill="#8a5a5a"/><circle cx="432.1" cy="198.0" r="3" fill="#8a5a5a"/><circle cx="434.7" cy="198.0" r="3" fill="#8a5a5a"/><circle cx="437.3" cy="198.0" r="3" fill="#8a5a5a"/><circle cx="439.9" cy="198.0" r="3" fill="#8a5a5a"/><circle cx="442.5" cy="198.0" r="3" fill="#8a5a5a"/><circle cx="445.1" cy="198.0" r="3" fill="#8a5a5a"/><circle cx="447.7" cy="198.0" r="3" fill="#8a5a5a"/><circle cx="450.3" cy="198.0" r="3" fill="#8a5a5a"/><circle cx="452.9" cy="198.0" r="3" fill="#8a5a5a"/><circle cx="455.5" cy="198.0" r="3" fill="#8a5a5a"/><circle cx="458.1" cy="198.0" r="3" fill="#8a5a5a"/><circle cx="460.7" cy="198.0" r="3" fill="#8a5a5a"/><circle cx="463.4" cy="198.0" r="3" fill="#8a5a5a"/><circle cx="466.0" cy="198.0" r="3" fill="#8a5a5a"/><circle cx="468.6" cy="198.0" r="3" fill="#8a5a5a"/><circle cx="471.2" cy="198.0" r="3" fill="#8a5a5a"/><circle cx="473.8" cy="198.0" r="3" fill="#8a5a5a"/><circle cx="476.4" cy="198.0" r="3" fill="#8a5a5a"/><circle cx="479.0" cy="198.0" r="3" fill="#8a5a5a"/><circle cx="481.6" cy="198.0" r="3" fill="#8a5a5a"/><circle cx="484.2" cy="198.0" r="3" fill="#8a5a5a"/><circle cx="486.8" cy="198.0" r="3" fill="#8a5a5a"/><circle cx="489.4" cy="198.0" r="3" fill="#8a5a5a"/><circle cx="492.0" cy="198.0" r="3" fill="#8a5a5a"/><circle cx="494.6" cy="198.0" r="3" fill="#8a5a5a"/><circle cx="497.2" cy="198.0" r="3" fill="#8a5a5a"/><circle cx="499.8" cy="198.0" r="3" fill="#8a5a5a"/><circle cx="502.4" cy="198.0" r="3" fill="#8a5a5a"/><circle cx="505.0" cy="198.0" r="3" fill="#8a5a5a"/><circle cx="507.7" cy="198.0" r="3" fill="#8a5a5a"/><circle cx="510.3" cy="198.0" r="3" fill="#8a5a5a"/><circle cx="512.9" cy="198.0" r="3" fill="#8a5a5a"/><circle cx="515.5" cy="198.0" r="3" fill="#8a5a5a"/><circle cx="518.1" cy="198.0" r="3" fill="#8a5a5a"/><circle cx="520.7" cy="198.0" r="3" fill="#8a5a5a"/><circle cx="523.3" cy="198.0" r="3" fill="#8a5a5a"/><circle cx="525.9" cy="198.0" r="3" fill="#8a5a5a"/><circle cx="528.5" cy="198.0" r="3" fill="#8a5a5a"/><circle cx="531.1" cy="198.0" r="3" fill="#8a5a5a"/><circle cx="533.7" cy="198.0" r="3" fill="#8a5a5a"/><circle cx="536.3" cy="198.0" r="3" fill="#8a5a5a"/><circle cx="538.9" cy="198.0" r="3" fill="#8a5a5a"/><circle cx="541.5" cy="198.0" r="3" fill="#8a5a5a"/><circle cx="544.1" cy="198.0" r="3" fill="#8a5a5a"/><circle cx="546.7" cy="198.0" r="3" fill="#8a5a5a"/><circle cx="549.3" cy="198.0" r="3" fill="#8a5a5a"/><circle cx="552.0" cy="198.0" r="3" fill="#8a5a5a"/><circle cx="554.6" cy="198.0" r="3" fill="#8a5a5a"/><circle cx="557.2" cy="198.0" r="3" fill="#8a5a5a"/><circle cx="559.8" cy="198.0" r="3" fill="#8a5a5a"/><circle cx="562.4" cy="198.0" r="3" fill="#8a5a5a"/><circle cx="565.0" cy="198.0" r="3" fill="#8a5a5a"/><circle cx="567.6" cy="198.0" r="3" fill="#8a5a5a"/><circle cx="570.2" cy="198.0" r="3" fill="#8a5a5a"/><circle cx="572.8" cy="198.0" r="3" fill="#8a5a5a"/><circle cx="575.4" cy="198.0" r="3" fill="#8a5a5a"/><circle cx="578.0" cy="198.0" r="3" fill="#8a5a5a"/><circle cx="580.6" cy="198.0" r="3" fill="#8a5a5a"/><circle cx="583.2" cy="198.0" r="3" fill="#8a5a5a"/><circle cx="585.8" cy="198.0" r="3" fill="#8a5a5a"/><circle cx="588.4" cy="198.0" r="3" fill="#8a5a5a"/><circle cx="591.0" cy="198.0" r="3" fill="#8a5a5a"/><circle cx="593.6" cy="198.0" r="3" fill="#8a5a5a"/><circle cx="596.2" cy="198.0" r="3" fill="#8a5a5a"/><circle cx="598.9" cy="198.0" r="3" fill="#8a5a5a"/><circle cx="601.5" cy="198.0" r="3" fill="#8a5a5a"/><circle cx="604.1" cy="198.0" r="3" fill="#8a5a5a"/><circle cx="606.7" cy="198.0" r="3" fill="#8a5a5a"/><circle cx="609.3" cy="198.0" r="3" fill="#8a5a5a"/><circle cx="611.9" cy="198.0" r="3" fill="#8a5a5a"/><circle cx="614.5" cy="198.0" r="3" fill="#8a5a5a"/><circle cx="617.1" cy="198.0" r="3" fill="#8a5a5a"/><circle cx="619.7" cy="198.0" r="3" fill="#8a5a5a"/><circle cx="622.3" cy="198.0" r="3" fill="#8a5a5a"/><circle cx="624.9" cy="198.0" r="3" fill="#8a5a5a"/><circle cx="627.5" cy="198.0" r="3" fill="#8a5a5a"/><circle cx="630.1" cy="198.0" r="3" fill="#8a5a5a"/><circle cx="632.7" cy="198.0" r="3" fill="#8a5a5a"/><circle cx="635.3" cy="198.0" r="3" fill="#8a5a5a"/><circle cx="637.9" cy="198.0" r="3" fill="#8a5a5a"/><circle cx="640.5" cy="198.0" r="3" fill="#8a5a5a"/><circle cx="643.2" cy="198.0" r="3" fill="#8a5a5a"/><circle cx="645.8" cy="198.0" r="3" fill="#8a5a5a"/><circle cx="648.4" cy="198.0" r="3" fill="#8a5a5a"/><circle cx="651.0" cy="198.0" r="3" fill="#8a5a5a"/><circle cx="653.6" cy="198.0" r="3" fill="#8a5a5a"/><circle cx="656.2" cy="198.0" r="3" fill="#8a5a5a"/><circle cx="658.8" cy="198.0" r="3" fill="#8a5a5a"/><circle cx="661.4" cy="198.0" r="3" fill="#8a5a5a"/><circle cx="664.0" cy="198.0" r="3" fill="#8a5a5a"/>
<polyline fill="none" stroke="#3fb950" stroke-width="2.5" stroke-linejoin="round" points="36.0,198.0 38.6,198.0 41.2,198.0 43.8,198.0 46.4,198.0 49.0,198.0 51.6,198.0 54.2,198.0 56.8,198.0 59.5,198.0 62.1,198.0 64.7,198.0 67.3,198.0 69.9,198.0 72.5,198.0 75.1,198.0 77.7,198.0 80.3,198.0 82.9,198.0 85.5,198.0 88.1,198.0 90.7,198.0 93.3,198.0 95.9,198.0 98.5,198.0 101.1,198.0 103.8,198.0 106.4,198.0 109.0,198.0 111.6,198.0 114.2,198.0 116.8,198.0 119.4,198.0 122.0,198.0 124.6,198.0 127.2,198.0 129.8,198.0 132.4,198.0 135.0,198.0 137.6,198.0 140.2,198.0 142.8,198.0 145.4,198.0 148.0,191.7 150.7,191.7 153.3,191.7 155.9,191.7 158.5,191.7 161.1,191.7 163.7,191.7 166.3,192.9 168.9,192.9 171.5,190.7 174.1,190.7 176.7,190.7 179.3,190.7 181.9,190.7 184.5,190.5 187.1,190.5 189.7,190.5 192.3,190.3 195.0,190.3 197.6,190.3 200.2,190.3 202.8,190.3 205.4,190.3 208.0,190.3 210.6,190.3 213.2,190.3 215.8,190.3 218.4,190.3 221.0,190.3 223.6,190.3 226.2,190.3 228.8,190.3 231.4,190.3 234.0,190.3 236.6,190.3 239.3,190.3 241.9,190.3 244.5,190.3 247.1,189.3 249.7,189.3 252.3,189.3 254.9,190.7 257.5,190.7 260.1,190.7 262.7,190.7 265.3,190.7 267.9,190.7 270.5,190.7 273.1,190.7 275.7,190.7 278.3,190.9 280.9,190.9 283.6,190.9 286.2,194.2 288.8,196.8 291.4,198.0 294.0,198.0 296.6,198.0 299.2,198.0 301.8,198.0 304.4,198.0 307.0,198.0 309.6,198.0 312.2,198.0 314.8,198.0 317.4,198.0 320.0,198.0 322.6,198.0 325.2,198.0 327.9,198.0 330.5,198.0 333.1,198.0 335.7,198.0 338.3,198.0 340.9,198.0 343.5,198.0 346.1,198.0 348.7,198.0 351.3,198.0 353.9,198.0 356.5,198.0 359.1,198.0 361.7,198.0 364.3,198.0 366.9,198.0 369.5,198.0 372.1,198.0 374.8,198.0 377.4,198.0 380.0,198.0 382.6,198.0 385.2,198.0 387.8,198.0 390.4,198.0 393.0,198.0 395.6,198.0 398.2,198.0 400.8,198.0 403.4,198.0 406.0,198.0 408.6,198.0 411.2,198.0 413.8,198.0 416.4,198.0 419.1,198.0 421.7,198.0 424.3,198.0 426.9,198.0 429.5,198.0 432.1,198.0 434.7,198.0 437.3,198.0 439.9,198.0 442.5,198.0 445.1,198.0 447.7,198.0 450.3,198.0 452.9,198.0 455.5,198.0 458.1,198.0 460.7,198.0 463.4,198.0 466.0,198.0 468.6,198.0 471.2,198.0 473.8,198.0 476.4,198.0 479.0,198.0 481.6,198.0 484.2,198.0 486.8,198.0 489.4,198.0 492.0,198.0 494.6,198.0 497.2,198.0 499.8,198.0 502.4,198.0 505.0,198.0 507.7,198.0 510.3,198.0 512.9,198.0 515.5,198.0 518.1,198.0 520.7,198.0 523.3,198.0 525.9,198.0 528.5,198.0 531.1,198.0 533.7,198.0 536.3,198.0 538.9,198.0 541.5,198.0 544.1,198.0 546.7,198.0 549.3,198.0 552.0,198.0 554.6,198.0 557.2,198.0 559.8,198.0 562.4,198.0 565.0,198.0 567.6,198.0 570.2,198.0 572.8,198.0 575.4,198.0 578.0,198.0 580.6,198.0 583.2,198.0 585.8,198.0 588.4,198.0 591.0,198.0 593.6,198.0 596.2,198.0 598.9,198.0 601.5,198.0 604.1,198.0 606.7,198.0 609.3,198.0 611.9,198.0 614.5,198.0 617.1,198.0 619.7,198.0 622.3,198.0 624.9,198.0 627.5,198.0 630.1,198.0 632.7,198.0 635.3,198.0 637.9,198.0 640.5,198.0 643.2,198.0 645.8,198.0 648.4,198.0 651.0,198.0 653.6,198.0 656.2,198.0 658.8,198.0 661.4,198.0 664.0,198.0"/><circle cx="36.0" cy="198.0" r="3" fill="#3fb950"/><circle cx="38.6" cy="198.0" r="3" fill="#3fb950"/><circle cx="41.2" cy="198.0" r="3" fill="#3fb950"/><circle cx="43.8" cy="198.0" r="3" fill="#3fb950"/><circle cx="46.4" cy="198.0" r="3" fill="#3fb950"/><circle cx="49.0" cy="198.0" r="3" fill="#3fb950"/><circle cx="51.6" cy="198.0" r="3" fill="#3fb950"/><circle cx="54.2" cy="198.0" r="3" fill="#3fb950"/><circle cx="56.8" cy="198.0" r="3" fill="#3fb950"/><circle cx="59.5" cy="198.0" r="3" fill="#3fb950"/><circle cx="62.1" cy="198.0" r="3" fill="#3fb950"/><circle cx="64.7" cy="198.0" r="3" fill="#3fb950"/><circle cx="67.3" cy="198.0" r="3" fill="#3fb950"/><circle cx="69.9" cy="198.0" r="3" fill="#3fb950"/><circle cx="72.5" cy="198.0" r="3" fill="#3fb950"/><circle cx="75.1" cy="198.0" r="3" fill="#3fb950"/><circle cx="77.7" cy="198.0" r="3" fill="#3fb950"/><circle cx="80.3" cy="198.0" r="3" fill="#3fb950"/><circle cx="82.9" cy="198.0" r="3" fill="#3fb950"/><circle cx="85.5" cy="198.0" r="3" fill="#3fb950"/><circle cx="88.1" cy="198.0" r="3" fill="#3fb950"/><circle cx="90.7" cy="198.0" r="3" fill="#3fb950"/><circle cx="93.3" cy="198.0" r="3" fill="#3fb950"/><circle cx="95.9" cy="198.0" r="3" fill="#3fb950"/><circle cx="98.5" cy="198.0" r="3" fill="#3fb950"/><circle cx="101.1" cy="198.0" r="3" fill="#3fb950"/><circle cx="103.8" cy="198.0" r="3" fill="#3fb950"/><circle cx="106.4" cy="198.0" r="3" fill="#3fb950"/><circle cx="109.0" cy="198.0" r="3" fill="#3fb950"/><circle cx="111.6" cy="198.0" r="3" fill="#3fb950"/><circle cx="114.2" cy="198.0" r="3" fill="#3fb950"/><circle cx="116.8" cy="198.0" r="3" fill="#3fb950"/><circle cx="119.4" cy="198.0" r="3" fill="#3fb950"/><circle cx="122.0" cy="198.0" r="3" fill="#3fb950"/><circle cx="124.6" cy="198.0" r="3" fill="#3fb950"/><circle cx="127.2" cy="198.0" r="3" fill="#3fb950"/><circle cx="129.8" cy="198.0" r="3" fill="#3fb950"/><circle cx="132.4" cy="198.0" r="3" fill="#3fb950"/><circle cx="135.0" cy="198.0" r="3" fill="#3fb950"/><circle cx="137.6" cy="198.0" r="3" fill="#3fb950"/><circle cx="140.2" cy="198.0" r="3" fill="#3fb950"/><circle cx="142.8" cy="198.0" r="3" fill="#3fb950"/><circle cx="145.4" cy="198.0" r="3" fill="#3fb950"/><circle cx="148.0" cy="191.7" r="3" fill="#3fb950"/><circle cx="150.7" cy="191.7" r="3" fill="#3fb950"/><circle cx="153.3" cy="191.7" r="3" fill="#3fb950"/><circle cx="155.9" cy="191.7" r="3" fill="#3fb950"/><circle cx="158.5" cy="191.7" r="3" fill="#3fb950"/><circle cx="161.1" cy="191.7" r="3" fill="#3fb950"/><circle cx="163.7" cy="191.7" r="3" fill="#3fb950"/><circle cx="166.3" cy="192.9" r="3" fill="#3fb950"/><circle cx="168.9" cy="192.9" r="3" fill="#3fb950"/><circle cx="171.5" cy="190.7" r="3" fill="#3fb950"/><circle cx="174.1" cy="190.7" r="3" fill="#3fb950"/><circle cx="176.7" cy="190.7" r="3" fill="#3fb950"/><circle cx="179.3" cy="190.7" r="3" fill="#3fb950"/><circle cx="181.9" cy="190.7" r="3" fill="#3fb950"/><circle cx="184.5" cy="190.5" r="3" fill="#3fb950"/><circle cx="187.1" cy="190.5" r="3" fill="#3fb950"/><circle cx="189.7" cy="190.5" r="3" fill="#3fb950"/><circle cx="192.3" cy="190.3" r="3" fill="#3fb950"/><circle cx="195.0" cy="190.3" r="3" fill="#3fb950"/><circle cx="197.6" cy="190.3" r="3" fill="#3fb950"/><circle cx="200.2" cy="190.3" r="3" fill="#3fb950"/><circle cx="202.8" cy="190.3" r="3" fill="#3fb950"/><circle cx="205.4" cy="190.3" r="3" fill="#3fb950"/><circle cx="208.0" cy="190.3" r="3" fill="#3fb950"/><circle cx="210.6" cy="190.3" r="3" fill="#3fb950"/><circle cx="213.2" cy="190.3" r="3" fill="#3fb950"/><circle cx="215.8" cy="190.3" r="3" fill="#3fb950"/><circle cx="218.4" cy="190.3" r="3" fill="#3fb950"/><circle cx="221.0" cy="190.3" r="3" fill="#3fb950"/><circle cx="223.6" cy="190.3" r="3" fill="#3fb950"/><circle cx="226.2" cy="190.3" r="3" fill="#3fb950"/><circle cx="228.8" cy="190.3" r="3" fill="#3fb950"/><circle cx="231.4" cy="190.3" r="3" fill="#3fb950"/><circle cx="234.0" cy="190.3" r="3" fill="#3fb950"/><circle cx="236.6" cy="190.3" r="3" fill="#3fb950"/><circle cx="239.3" cy="190.3" r="3" fill="#3fb950"/><circle cx="241.9" cy="190.3" r="3" fill="#3fb950"/><circle cx="244.5" cy="190.3" r="3" fill="#3fb950"/><circle cx="247.1" cy="189.3" r="3" fill="#3fb950"/><circle cx="249.7" cy="189.3" r="3" fill="#3fb950"/><circle cx="252.3" cy="189.3" r="3" fill="#3fb950"/><circle cx="254.9" cy="190.7" r="3" fill="#3fb950"/><circle cx="257.5" cy="190.7" r="3" fill="#3fb950"/><circle cx="260.1" cy="190.7" r="3" fill="#3fb950"/><circle cx="262.7" cy="190.7" r="3" fill="#3fb950"/><circle cx="265.3" cy="190.7" r="3" fill="#3fb950"/><circle cx="267.9" cy="190.7" r="3" fill="#3fb950"/><circle cx="270.5" cy="190.7" r="3" fill="#3fb950"/><circle cx="273.1" cy="190.7" r="3" fill="#3fb950"/><circle cx="275.7" cy="190.7" r="3" fill="#3fb950"/><circle cx="278.3" cy="190.9" r="3" fill="#3fb950"/><circle cx="280.9" cy="190.9" r="3" fill="#3fb950"/><circle cx="283.6" cy="190.9" r="3" fill="#3fb950"/><circle cx="286.2" cy="194.2" r="3" fill="#3fb950"/><circle cx="288.8" cy="196.8" r="3" fill="#3fb950"/><circle cx="291.4" cy="198.0" r="3" fill="#3fb950"/><circle cx="294.0" cy="198.0" r="3" fill="#3fb950"/><circle cx="296.6" cy="198.0" r="3" fill="#3fb950"/><circle cx="299.2" cy="198.0" r="3" fill="#3fb950"/><circle cx="301.8" cy="198.0" r="3" fill="#3fb950"/><circle cx="304.4" cy="198.0" r="3" fill="#3fb950"/><circle cx="307.0" cy="198.0" r="3" fill="#3fb950"/><circle cx="309.6" cy="198.0" r="3" fill="#3fb950"/><circle cx="312.2" cy="198.0" r="3" fill="#3fb950"/><circle cx="314.8" cy="198.0" r="3" fill="#3fb950"/><circle cx="317.4" cy="198.0" r="3" fill="#3fb950"/><circle cx="320.0" cy="198.0" r="3" fill="#3fb950"/><circle cx="322.6" cy="198.0" r="3" fill="#3fb950"/><circle cx="325.2" cy="198.0" r="3" fill="#3fb950"/><circle cx="327.9" cy="198.0" r="3" fill="#3fb950"/><circle cx="330.5" cy="198.0" r="3" fill="#3fb950"/><circle cx="333.1" cy="198.0" r="3" fill="#3fb950"/><circle cx="335.7" cy="198.0" r="3" fill="#3fb950"/><circle cx="338.3" cy="198.0" r="3" fill="#3fb950"/><circle cx="340.9" cy="198.0" r="3" fill="#3fb950"/><circle cx="343.5" cy="198.0" r="3" fill="#3fb950"/><circle cx="346.1" cy="198.0" r="3" fill="#3fb950"/><circle cx="348.7" cy="198.0" r="3" fill="#3fb950"/><circle cx="351.3" cy="198.0" r="3" fill="#3fb950"/><circle cx="353.9" cy="198.0" r="3" fill="#3fb950"/><circle cx="356.5" cy="198.0" r="3" fill="#3fb950"/><circle cx="359.1" cy="198.0" r="3" fill="#3fb950"/><circle cx="361.7" cy="198.0" r="3" fill="#3fb950"/><circle cx="364.3" cy="198.0" r="3" fill="#3fb950"/><circle cx="366.9" cy="198.0" r="3" fill="#3fb950"/><circle cx="369.5" cy="198.0" r="3" fill="#3fb950"/><circle cx="372.1" cy="198.0" r="3" fill="#3fb950"/><circle cx="374.8" cy="198.0" r="3" fill="#3fb950"/><circle cx="377.4" cy="198.0" r="3" fill="#3fb950"/><circle cx="380.0" cy="198.0" r="3" fill="#3fb950"/><circle cx="382.6" cy="198.0" r="3" fill="#3fb950"/><circle cx="385.2" cy="198.0" r="3" fill="#3fb950"/><circle cx="387.8" cy="198.0" r="3" fill="#3fb950"/><circle cx="390.4" cy="198.0" r="3" fill="#3fb950"/><circle cx="393.0" cy="198.0" r="3" fill="#3fb950"/><circle cx="395.6" cy="198.0" r="3" fill="#3fb950"/><circle cx="398.2" cy="198.0" r="3" fill="#3fb950"/><circle cx="400.8" cy="198.0" r="3" fill="#3fb950"/><circle cx="403.4" cy="198.0" r="3" fill="#3fb950"/><circle cx="406.0" cy="198.0" r="3" fill="#3fb950"/><circle cx="408.6" cy="198.0" r="3" fill="#3fb950"/><circle cx="411.2" cy="198.0" r="3" fill="#3fb950"/><circle cx="413.8" cy="198.0" r="3" fill="#3fb950"/><circle cx="416.4" cy="198.0" r="3" fill="#3fb950"/><circle cx="419.1" cy="198.0" r="3" fill="#3fb950"/><circle cx="421.7" cy="198.0" r="3" fill="#3fb950"/><circle cx="424.3" cy="198.0" r="3" fill="#3fb950"/><circle cx="426.9" cy="198.0" r="3" fill="#3fb950"/><circle cx="429.5" cy="198.0" r="3" fill="#3fb950"/><circle cx="432.1" cy="198.0" r="3" fill="#3fb950"/><circle cx="434.7" cy="198.0" r="3" fill="#3fb950"/><circle cx="437.3" cy="198.0" r="3" fill="#3fb950"/><circle cx="439.9" cy="198.0" r="3" fill="#3fb950"/><circle cx="442.5" cy="198.0" r="3" fill="#3fb950"/><circle cx="445.1" cy="198.0" r="3" fill="#3fb950"/><circle cx="447.7" cy="198.0" r="3" fill="#3fb950"/><circle cx="450.3" cy="198.0" r="3" fill="#3fb950"/><circle cx="452.9" cy="198.0" r="3" fill="#3fb950"/><circle cx="455.5" cy="198.0" r="3" fill="#3fb950"/><circle cx="458.1" cy="198.0" r="3" fill="#3fb950"/><circle cx="460.7" cy="198.0" r="3" fill="#3fb950"/><circle cx="463.4" cy="198.0" r="3" fill="#3fb950"/><circle cx="466.0" cy="198.0" r="3" fill="#3fb950"/><circle cx="468.6" cy="198.0" r="3" fill="#3fb950"/><circle cx="471.2" cy="198.0" r="3" fill="#3fb950"/><circle cx="473.8" cy="198.0" r="3" fill="#3fb950"/><circle cx="476.4" cy="198.0" r="3" fill="#3fb950"/><circle cx="479.0" cy="198.0" r="3" fill="#3fb950"/><circle cx="481.6" cy="198.0" r="3" fill="#3fb950"/><circle cx="484.2" cy="198.0" r="3" fill="#3fb950"/><circle cx="486.8" cy="198.0" r="3" fill="#3fb950"/><circle cx="489.4" cy="198.0" r="3" fill="#3fb950"/><circle cx="492.0" cy="198.0" r="3" fill="#3fb950"/><circle cx="494.6" cy="198.0" r="3" fill="#3fb950"/><circle cx="497.2" cy="198.0" r="3" fill="#3fb950"/><circle cx="499.8" cy="198.0" r="3" fill="#3fb950"/><circle cx="502.4" cy="198.0" r="3" fill="#3fb950"/><circle cx="505.0" cy="198.0" r="3" fill="#3fb950"/><circle cx="507.7" cy="198.0" r="3" fill="#3fb950"/><circle cx="510.3" cy="198.0" r="3" fill="#3fb950"/><circle cx="512.9" cy="198.0" r="3" fill="#3fb950"/><circle cx="515.5" cy="198.0" r="3" fill="#3fb950"/><circle cx="518.1" cy="198.0" r="3" fill="#3fb950"/><circle cx="520.7" cy="198.0" r="3" fill="#3fb950"/><circle cx="523.3" cy="198.0" r="3" fill="#3fb950"/><circle cx="525.9" cy="198.0" r="3" fill="#3fb950"/><circle cx="528.5" cy="198.0" r="3" fill="#3fb950"/><circle cx="531.1" cy="198.0" r="3" fill="#3fb950"/><circle cx="533.7" cy="198.0" r="3" fill="#3fb950"/><circle cx="536.3" cy="198.0" r="3" fill="#3fb950"/><circle cx="538.9" cy="198.0" r="3" fill="#3fb950"/><circle cx="541.5" cy="198.0" r="3" fill="#3fb950"/><circle cx="544.1" cy="198.0" r="3" fill="#3fb950"/><circle cx="546.7" cy="198.0" r="3" fill="#3fb950"/><circle cx="549.3" cy="198.0" r="3" fill="#3fb950"/><circle cx="552.0" cy="198.0" r="3" fill="#3fb950"/><circle cx="554.6" cy="198.0" r="3" fill="#3fb950"/><circle cx="557.2" cy="198.0" r="3" fill="#3fb950"/><circle cx="559.8" cy="198.0" r="3" fill="#3fb950"/><circle cx="562.4" cy="198.0" r="3" fill="#3fb950"/><circle cx="565.0" cy="198.0" r="3" fill="#3fb950"/><circle cx="567.6" cy="198.0" r="3" fill="#3fb950"/><circle cx="570.2" cy="198.0" r="3" fill="#3fb950"/><circle cx="572.8" cy="198.0" r="3" fill="#3fb950"/><circle cx="575.4" cy="198.0" r="3" fill="#3fb950"/><circle cx="578.0" cy="198.0" r="3" fill="#3fb950"/><circle cx="580.6" cy="198.0" r="3" fill="#3fb950"/><circle cx="583.2" cy="198.0" r="3" fill="#3fb950"/><circle cx="585.8" cy="198.0" r="3" fill="#3fb950"/><circle cx="588.4" cy="198.0" r="3" fill="#3fb950"/><circle cx="591.0" cy="198.0" r="3" fill="#3fb950"/><circle cx="593.6" cy="198.0" r="3" fill="#3fb950"/><circle cx="596.2" cy="198.0" r="3" fill="#3fb950"/><circle cx="598.9" cy="198.0" r="3" fill="#3fb950"/><circle cx="601.5" cy="198.0" r="3" fill="#3fb950"/><circle cx="604.1" cy="198.0" r="3" fill="#3fb950"/><circle cx="606.7" cy="198.0" r="3" fill="#3fb950"/><circle cx="609.3" cy="198.0" r="3" fill="#3fb950"/><circle cx="611.9" cy="198.0" r="3" fill="#3fb950"/><circle cx="614.5" cy="198.0" r="3" fill="#3fb950"/><circle cx="617.1" cy="198.0" r="3" fill="#3fb950"/><circle cx="619.7" cy="198.0" r="3" fill="#3fb950"/><circle cx="622.3" cy="198.0" r="3" fill="#3fb950"/><circle cx="624.9" cy="198.0" r="3" fill="#3fb950"/><circle cx="627.5" cy="198.0" r="3" fill="#3fb950"/><circle cx="630.1" cy="198.0" r="3" fill="#3fb950"/><circle cx="632.7" cy="198.0" r="3" fill="#3fb950"/><circle cx="635.3" cy="198.0" r="3" fill="#3fb950"/><circle cx="637.9" cy="198.0" r="3" fill="#3fb950"/><circle cx="640.5" cy="198.0" r="3" fill="#3fb950"/><circle cx="643.2" cy="198.0" r="3" fill="#3fb950"/><circle cx="645.8" cy="198.0" r="3" fill="#3fb950"/><circle cx="648.4" cy="198.0" r="3" fill="#3fb950"/><circle cx="651.0" cy="198.0" r="3" fill="#3fb950"/><circle cx="653.6" cy="198.0" r="3" fill="#3fb950"/><circle cx="656.2" cy="198.0" r="3" fill="#3fb950"/><circle cx="658.8" cy="198.0" r="3" fill="#3fb950"/><circle cx="661.4" cy="198.0" r="3" fill="#3fb950"/><circle cx="664.0" cy="198.0" r="3" fill="#3fb950"/>
<polyline fill="none" stroke="#4aa3ff" stroke-width="2.5" stroke-linejoin="round" points="36.0,144.3 38.6,144.3 41.2,144.3 43.8,144.3 46.4,144.3 49.0,144.3 51.6,144.3 54.2,144.3 56.8,144.3 59.5,144.3 62.1,144.3 64.7,144.3 67.3,144.3 69.9,144.3 72.5,144.3 75.1,136.2 77.7,132.4 80.3,129.6 82.9,129.6 85.5,121.0 88.1,121.0 90.7,121.0 93.3,114.4 95.9,114.4 98.5,114.4 101.1,111.3 103.8,110.9 106.4,110.9 109.0,110.5 111.6,110.5 114.2,109.9 116.8,108.7 119.4,107.3 122.0,106.9 124.6,106.9 127.2,106.9 129.8,106.9 132.4,106.9 135.0,106.9 137.6,106.9 140.2,106.9 142.8,106.9 145.4,106.9 148.0,113.2 150.7,113.2 153.3,113.2 155.9,113.2 158.5,113.2 161.1,110.7 163.7,105.3 166.3,83.4 168.9,83.4 171.5,85.6 174.1,85.6 176.7,85.6 179.3,85.6 181.9,85.6 184.5,85.8 187.1,85.8 189.7,85.8 192.3,86.0 195.0,86.0 197.6,86.0 200.2,86.0 202.8,86.0 205.4,86.0 208.0,86.0 210.6,86.0 213.2,86.0 215.8,86.0 218.4,86.0 221.0,86.0 223.6,86.0 226.2,86.0 228.8,86.0 231.4,86.0 234.0,86.0 236.6,86.0 239.3,86.0 241.9,86.0 244.5,86.0 247.1,87.0 249.7,87.0 252.3,87.0 254.9,73.7 257.5,73.7 260.1,71.0 262.7,71.0 265.3,70.8 267.9,70.6 270.5,70.6 273.1,70.4 275.7,68.6 278.3,60.5 280.9,59.3 283.6,52.0 286.2,47.3 288.8,40.1 291.4,36.0 294.0,36.0 296.6,36.0 299.2,36.0 301.8,36.0 304.4,36.0 307.0,36.0 309.6,36.0 312.2,36.0 314.8,36.0 317.4,36.0 320.0,36.0 322.6,36.0 325.2,36.0 327.9,36.0 330.5,36.0 333.1,36.0 335.7,36.0 338.3,36.0 340.9,36.0 343.5,36.0 346.1,36.0 348.7,36.0 351.3,36.0 353.9,36.0 356.5,36.0 359.1,36.0 361.7,36.0 364.3,36.0 366.9,36.0 369.5,36.0 372.1,36.0 374.8,36.0 377.4,36.0 380.0,36.0 382.6,36.0 385.2,36.0 387.8,36.0 390.4,36.0 393.0,36.0 395.6,36.0 398.2,36.0 400.8,36.0 403.4,36.0 406.0,36.0 408.6,36.0 411.2,36.0 413.8,36.0 416.4,36.0 419.1,36.0 421.7,36.0 424.3,36.0 426.9,36.0 429.5,36.0 432.1,36.0 434.7,36.0 437.3,36.0 439.9,36.0 442.5,36.0 445.1,36.0 447.7,36.0 450.3,36.0 452.9,36.0 455.5,36.0 458.1,36.0 460.7,36.0 463.4,36.0 466.0,36.0 468.6,36.0 471.2,36.0 473.8,36.0 476.4,36.0 479.0,36.0 481.6,36.0 484.2,36.0 486.8,36.0 489.4,36.0 492.0,36.0 494.6,36.0 497.2,36.0 499.8,36.0 502.4,36.0 505.0,36.0 507.7,36.0 510.3,36.0 512.9,36.0 515.5,36.0 518.1,36.0 520.7,36.0 523.3,36.0 525.9,36.0 528.5,36.0 531.1,36.0 533.7,36.0 536.3,36.0 538.9,36.0 541.5,36.0 544.1,36.0 546.7,36.0 549.3,36.0 552.0,36.0 554.6,36.0 557.2,36.0 559.8,36.0 562.4,36.0 565.0,36.0 567.6,36.0 570.2,36.0 572.8,36.0 575.4,36.0 578.0,36.0 580.6,36.0 583.2,36.0 585.8,36.0 588.4,36.0 591.0,36.0 593.6,36.0 596.2,36.0 598.9,36.0 601.5,36.0 604.1,36.0 606.7,36.0 609.3,36.0 611.9,36.0 614.5,36.0 617.1,36.0 619.7,36.0 622.3,36.0 624.9,36.0 627.5,36.0 630.1,36.0 632.7,36.0 635.3,36.0 637.9,36.0 640.5,36.0 643.2,36.0 645.8,36.0 648.4,36.0 651.0,36.0 653.6,36.0 656.2,36.0 658.8,36.0 661.4,36.0 664.0,36.0"/><circle cx="36.0" cy="144.3" r="3" fill="#4aa3ff"/><circle cx="38.6" cy="144.3" r="3" fill="#4aa3ff"/><circle cx="41.2" cy="144.3" r="3" fill="#4aa3ff"/><circle cx="43.8" cy="144.3" r="3" fill="#4aa3ff"/><circle cx="46.4" cy="144.3" r="3" fill="#4aa3ff"/><circle cx="49.0" cy="144.3" r="3" fill="#4aa3ff"/><circle cx="51.6" cy="144.3" r="3" fill="#4aa3ff"/><circle cx="54.2" cy="144.3" r="3" fill="#4aa3ff"/><circle cx="56.8" cy="144.3" r="3" fill="#4aa3ff"/><circle cx="59.5" cy="144.3" r="3" fill="#4aa3ff"/><circle cx="62.1" cy="144.3" r="3" fill="#4aa3ff"/><circle cx="64.7" cy="144.3" r="3" fill="#4aa3ff"/><circle cx="67.3" cy="144.3" r="3" fill="#4aa3ff"/><circle cx="69.9" cy="144.3" r="3" fill="#4aa3ff"/><circle cx="72.5" cy="144.3" r="3" fill="#4aa3ff"/><circle cx="75.1" cy="136.2" r="3" fill="#4aa3ff"/><circle cx="77.7" cy="132.4" r="3" fill="#4aa3ff"/><circle cx="80.3" cy="129.6" r="3" fill="#4aa3ff"/><circle cx="82.9" cy="129.6" r="3" fill="#4aa3ff"/><circle cx="85.5" cy="121.0" r="3" fill="#4aa3ff"/><circle cx="88.1" cy="121.0" r="3" fill="#4aa3ff"/><circle cx="90.7" cy="121.0" r="3" fill="#4aa3ff"/><circle cx="93.3" cy="114.4" r="3" fill="#4aa3ff"/><circle cx="95.9" cy="114.4" r="3" fill="#4aa3ff"/><circle cx="98.5" cy="114.4" r="3" fill="#4aa3ff"/><circle cx="101.1" cy="111.3" r="3" fill="#4aa3ff"/><circle cx="103.8" cy="110.9" r="3" fill="#4aa3ff"/><circle cx="106.4" cy="110.9" r="3" fill="#4aa3ff"/><circle cx="109.0" cy="110.5" r="3" fill="#4aa3ff"/><circle cx="111.6" cy="110.5" r="3" fill="#4aa3ff"/><circle cx="114.2" cy="109.9" r="3" fill="#4aa3ff"/><circle cx="116.8" cy="108.7" r="3" fill="#4aa3ff"/><circle cx="119.4" cy="107.3" r="3" fill="#4aa3ff"/><circle cx="122.0" cy="106.9" r="3" fill="#4aa3ff"/><circle cx="124.6" cy="106.9" r="3" fill="#4aa3ff"/><circle cx="127.2" cy="106.9" r="3" fill="#4aa3ff"/><circle cx="129.8" cy="106.9" r="3" fill="#4aa3ff"/><circle cx="132.4" cy="106.9" r="3" fill="#4aa3ff"/><circle cx="135.0" cy="106.9" r="3" fill="#4aa3ff"/><circle cx="137.6" cy="106.9" r="3" fill="#4aa3ff"/><circle cx="140.2" cy="106.9" r="3" fill="#4aa3ff"/><circle cx="142.8" cy="106.9" r="3" fill="#4aa3ff"/><circle cx="145.4" cy="106.9" r="3" fill="#4aa3ff"/><circle cx="148.0" cy="113.2" r="3" fill="#4aa3ff"/><circle cx="150.7" cy="113.2" r="3" fill="#4aa3ff"/><circle cx="153.3" cy="113.2" r="3" fill="#4aa3ff"/><circle cx="155.9" cy="113.2" r="3" fill="#4aa3ff"/><circle cx="158.5" cy="113.2" r="3" fill="#4aa3ff"/><circle cx="161.1" cy="110.7" r="3" fill="#4aa3ff"/><circle cx="163.7" cy="105.3" r="3" fill="#4aa3ff"/><circle cx="166.3" cy="83.4" r="3" fill="#4aa3ff"/><circle cx="168.9" cy="83.4" r="3" fill="#4aa3ff"/><circle cx="171.5" cy="85.6" r="3" fill="#4aa3ff"/><circle cx="174.1" cy="85.6" r="3" fill="#4aa3ff"/><circle cx="176.7" cy="85.6" r="3" fill="#4aa3ff"/><circle cx="179.3" cy="85.6" r="3" fill="#4aa3ff"/><circle cx="181.9" cy="85.6" r="3" fill="#4aa3ff"/><circle cx="184.5" cy="85.8" r="3" fill="#4aa3ff"/><circle cx="187.1" cy="85.8" r="3" fill="#4aa3ff"/><circle cx="189.7" cy="85.8" r="3" fill="#4aa3ff"/><circle cx="192.3" cy="86.0" r="3" fill="#4aa3ff"/><circle cx="195.0" cy="86.0" r="3" fill="#4aa3ff"/><circle cx="197.6" cy="86.0" r="3" fill="#4aa3ff"/><circle cx="200.2" cy="86.0" r="3" fill="#4aa3ff"/><circle cx="202.8" cy="86.0" r="3" fill="#4aa3ff"/><circle cx="205.4" cy="86.0" r="3" fill="#4aa3ff"/><circle cx="208.0" cy="86.0" r="3" fill="#4aa3ff"/><circle cx="210.6" cy="86.0" r="3" fill="#4aa3ff"/><circle cx="213.2" cy="86.0" r="3" fill="#4aa3ff"/><circle cx="215.8" cy="86.0" r="3" fill="#4aa3ff"/><circle cx="218.4" cy="86.0" r="3" fill="#4aa3ff"/><circle cx="221.0" cy="86.0" r="3" fill="#4aa3ff"/><circle cx="223.6" cy="86.0" r="3" fill="#4aa3ff"/><circle cx="226.2" cy="86.0" r="3" fill="#4aa3ff"/><circle cx="228.8" cy="86.0" r="3" fill="#4aa3ff"/><circle cx="231.4" cy="86.0" r="3" fill="#4aa3ff"/><circle cx="234.0" cy="86.0" r="3" fill="#4aa3ff"/><circle cx="236.6" cy="86.0" r="3" fill="#4aa3ff"/><circle cx="239.3" cy="86.0" r="3" fill="#4aa3ff"/><circle cx="241.9" cy="86.0" r="3" fill="#4aa3ff"/><circle cx="244.5" cy="86.0" r="3" fill="#4aa3ff"/><circle cx="247.1" cy="87.0" r="3" fill="#4aa3ff"/><circle cx="249.7" cy="87.0" r="3" fill="#4aa3ff"/><circle cx="252.3" cy="87.0" r="3" fill="#4aa3ff"/><circle cx="254.9" cy="73.7" r="3" fill="#4aa3ff"/><circle cx="257.5" cy="73.7" r="3" fill="#4aa3ff"/><circle cx="260.1" cy="71.0" r="3" fill="#4aa3ff"/><circle cx="262.7" cy="71.0" r="3" fill="#4aa3ff"/><circle cx="265.3" cy="70.8" r="3" fill="#4aa3ff"/><circle cx="267.9" cy="70.6" r="3" fill="#4aa3ff"/><circle cx="270.5" cy="70.6" r="3" fill="#4aa3ff"/><circle cx="273.1" cy="70.4" r="3" fill="#4aa3ff"/><circle cx="275.7" cy="68.6" r="3" fill="#4aa3ff"/><circle cx="278.3" cy="60.5" r="3" fill="#4aa3ff"/><circle cx="280.9" cy="59.3" r="3" fill="#4aa3ff"/><circle cx="283.6" cy="52.0" r="3" fill="#4aa3ff"/><circle cx="286.2" cy="47.3" r="3" fill="#4aa3ff"/><circle cx="288.8" cy="40.1" r="3" fill="#4aa3ff"/><circle cx="291.4" cy="36.0" r="3" fill="#4aa3ff"/><circle cx="294.0" cy="36.0" r="3" fill="#4aa3ff"/><circle cx="296.6" cy="36.0" r="3" fill="#4aa3ff"/><circle cx="299.2" cy="36.0" r="3" fill="#4aa3ff"/><circle cx="301.8" cy="36.0" r="3" fill="#4aa3ff"/><circle cx="304.4" cy="36.0" r="3" fill="#4aa3ff"/><circle cx="307.0" cy="36.0" r="3" fill="#4aa3ff"/><circle cx="309.6" cy="36.0" r="3" fill="#4aa3ff"/><circle cx="312.2" cy="36.0" r="3" fill="#4aa3ff"/><circle cx="314.8" cy="36.0" r="3" fill="#4aa3ff"/><circle cx="317.4" cy="36.0" r="3" fill="#4aa3ff"/><circle cx="320.0" cy="36.0" r="3" fill="#4aa3ff"/><circle cx="322.6" cy="36.0" r="3" fill="#4aa3ff"/><circle cx="325.2" cy="36.0" r="3" fill="#4aa3ff"/><circle cx="327.9" cy="36.0" r="3" fill="#4aa3ff"/><circle cx="330.5" cy="36.0" r="3" fill="#4aa3ff"/><circle cx="333.1" cy="36.0" r="3" fill="#4aa3ff"/><circle cx="335.7" cy="36.0" r="3" fill="#4aa3ff"/><circle cx="338.3" cy="36.0" r="3" fill="#4aa3ff"/><circle cx="340.9" cy="36.0" r="3" fill="#4aa3ff"/><circle cx="343.5" cy="36.0" r="3" fill="#4aa3ff"/><circle cx="346.1" cy="36.0" r="3" fill="#4aa3ff"/><circle cx="348.7" cy="36.0" r="3" fill="#4aa3ff"/><circle cx="351.3" cy="36.0" r="3" fill="#4aa3ff"/><circle cx="353.9" cy="36.0" r="3" fill="#4aa3ff"/><circle cx="356.5" cy="36.0" r="3" fill="#4aa3ff"/><circle cx="359.1" cy="36.0" r="3" fill="#4aa3ff"/><circle cx="361.7" cy="36.0" r="3" fill="#4aa3ff"/><circle cx="364.3" cy="36.0" r="3" fill="#4aa3ff"/><circle cx="366.9" cy="36.0" r="3" fill="#4aa3ff"/><circle cx="369.5" cy="36.0" r="3" fill="#4aa3ff"/><circle cx="372.1" cy="36.0" r="3" fill="#4aa3ff"/><circle cx="374.8" cy="36.0" r="3" fill="#4aa3ff"/><circle cx="377.4" cy="36.0" r="3" fill="#4aa3ff"/><circle cx="380.0" cy="36.0" r="3" fill="#4aa3ff"/><circle cx="382.6" cy="36.0" r="3" fill="#4aa3ff"/><circle cx="385.2" cy="36.0" r="3" fill="#4aa3ff"/><circle cx="387.8" cy="36.0" r="3" fill="#4aa3ff"/><circle cx="390.4" cy="36.0" r="3" fill="#4aa3ff"/><circle cx="393.0" cy="36.0" r="3" fill="#4aa3ff"/><circle cx="395.6" cy="36.0" r="3" fill="#4aa3ff"/><circle cx="398.2" cy="36.0" r="3" fill="#4aa3ff"/><circle cx="400.8" cy="36.0" r="3" fill="#4aa3ff"/><circle cx="403.4" cy="36.0" r="3" fill="#4aa3ff"/><circle cx="406.0" cy="36.0" r="3" fill="#4aa3ff"/><circle cx="408.6" cy="36.0" r="3" fill="#4aa3ff"/><circle cx="411.2" cy="36.0" r="3" fill="#4aa3ff"/><circle cx="413.8" cy="36.0" r="3" fill="#4aa3ff"/><circle cx="416.4" cy="36.0" r="3" fill="#4aa3ff"/><circle cx="419.1" cy="36.0" r="3" fill="#4aa3ff"/><circle cx="421.7" cy="36.0" r="3" fill="#4aa3ff"/><circle cx="424.3" cy="36.0" r="3" fill="#4aa3ff"/><circle cx="426.9" cy="36.0" r="3" fill="#4aa3ff"/><circle cx="429.5" cy="36.0" r="3" fill="#4aa3ff"/><circle cx="432.1" cy="36.0" r="3" fill="#4aa3ff"/><circle cx="434.7" cy="36.0" r="3" fill="#4aa3ff"/><circle cx="437.3" cy="36.0" r="3" fill="#4aa3ff"/><circle cx="439.9" cy="36.0" r="3" fill="#4aa3ff"/><circle cx="442.5" cy="36.0" r="3" fill="#4aa3ff"/><circle cx="445.1" cy="36.0" r="3" fill="#4aa3ff"/><circle cx="447.7" cy="36.0" r="3" fill="#4aa3ff"/><circle cx="450.3" cy="36.0" r="3" fill="#4aa3ff"/><circle cx="452.9" cy="36.0" r="3" fill="#4aa3ff"/><circle cx="455.5" cy="36.0" r="3" fill="#4aa3ff"/><circle cx="458.1" cy="36.0" r="3" fill="#4aa3ff"/><circle cx="460.7" cy="36.0" r="3" fill="#4aa3ff"/><circle cx="463.4" cy="36.0" r="3" fill="#4aa3ff"/><circle cx="466.0" cy="36.0" r="3" fill="#4aa3ff"/><circle cx="468.6" cy="36.0" r="3" fill="#4aa3ff"/><circle cx="471.2" cy="36.0" r="3" fill="#4aa3ff"/><circle cx="473.8" cy="36.0" r="3" fill="#4aa3ff"/><circle cx="476.4" cy="36.0" r="3" fill="#4aa3ff"/><circle cx="479.0" cy="36.0" r="3" fill="#4aa3ff"/><circle cx="481.6" cy="36.0" r="3" fill="#4aa3ff"/><circle cx="484.2" cy="36.0" r="3" fill="#4aa3ff"/><circle cx="486.8" cy="36.0" r="3" fill="#4aa3ff"/><circle cx="489.4" cy="36.0" r="3" fill="#4aa3ff"/><circle cx="492.0" cy="36.0" r="3" fill="#4aa3ff"/><circle cx="494.6" cy="36.0" r="3" fill="#4aa3ff"/><circle cx="497.2" cy="36.0" r="3" fill="#4aa3ff"/><circle cx="499.8" cy="36.0" r="3" fill="#4aa3ff"/><circle cx="502.4" cy="36.0" r="3" fill="#4aa3ff"/><circle cx="505.0" cy="36.0" r="3" fill="#4aa3ff"/><circle cx="507.7" cy="36.0" r="3" fill="#4aa3ff"/><circle cx="510.3" cy="36.0" r="3" fill="#4aa3ff"/><circle cx="512.9" cy="36.0" r="3" fill="#4aa3ff"/><circle cx="515.5" cy="36.0" r="3" fill="#4aa3ff"/><circle cx="518.1" cy="36.0" r="3" fill="#4aa3ff"/><circle cx="520.7" cy="36.0" r="3" fill="#4aa3ff"/><circle cx="523.3" cy="36.0" r="3" fill="#4aa3ff"/><circle cx="525.9" cy="36.0" r="3" fill="#4aa3ff"/><circle cx="528.5" cy="36.0" r="3" fill="#4aa3ff"/><circle cx="531.1" cy="36.0" r="3" fill="#4aa3ff"/><circle cx="533.7" cy="36.0" r="3" fill="#4aa3ff"/><circle cx="536.3" cy="36.0" r="3" fill="#4aa3ff"/><circle cx="538.9" cy="36.0" r="3" fill="#4aa3ff"/><circle cx="541.5" cy="36.0" r="3" fill="#4aa3ff"/><circle cx="544.1" cy="36.0" r="3" fill="#4aa3ff"/><circle cx="546.7" cy="36.0" r="3" fill="#4aa3ff"/><circle cx="549.3" cy="36.0" r="3" fill="#4aa3ff"/><circle cx="552.0" cy="36.0" r="3" fill="#4aa3ff"/><circle cx="554.6" cy="36.0" r="3" fill="#4aa3ff"/><circle cx="557.2" cy="36.0" r="3" fill="#4aa3ff"/><circle cx="559.8" cy="36.0" r="3" fill="#4aa3ff"/><circle cx="562.4" cy="36.0" r="3" fill="#4aa3ff"/><circle cx="565.0" cy="36.0" r="3" fill="#4aa3ff"/><circle cx="567.6" cy="36.0" r="3" fill="#4aa3ff"/><circle cx="570.2" cy="36.0" r="3" fill="#4aa3ff"/><circle cx="572.8" cy="36.0" r="3" fill="#4aa3ff"/><circle cx="575.4" cy="36.0" r="3" fill="#4aa3ff"/><circle cx="578.0" cy="36.0" r="3" fill="#4aa3ff"/><circle cx="580.6" cy="36.0" r="3" fill="#4aa3ff"/><circle cx="583.2" cy="36.0" r="3" fill="#4aa3ff"/><circle cx="585.8" cy="36.0" r="3" fill="#4aa3ff"/><circle cx="588.4" cy="36.0" r="3" fill="#4aa3ff"/><circle cx="591.0" cy="36.0" r="3" fill="#4aa3ff"/><circle cx="593.6" cy="36.0" r="3" fill="#4aa3ff"/><circle cx="596.2" cy="36.0" r="3" fill="#4aa3ff"/><circle cx="598.9" cy="36.0" r="3" fill="#4aa3ff"/><circle cx="601.5" cy="36.0" r="3" fill="#4aa3ff"/><circle cx="604.1" cy="36.0" r="3" fill="#4aa3ff"/><circle cx="606.7" cy="36.0" r="3" fill="#4aa3ff"/><circle cx="609.3" cy="36.0" r="3" fill="#4aa3ff"/><circle cx="611.9" cy="36.0" r="3" fill="#4aa3ff"/><circle cx="614.5" cy="36.0" r="3" fill="#4aa3ff"/><circle cx="617.1" cy="36.0" r="3" fill="#4aa3ff"/><circle cx="619.7" cy="36.0" r="3" fill="#4aa3ff"/><circle cx="622.3" cy="36.0" r="3" fill="#4aa3ff"/><circle cx="624.9" cy="36.0" r="3" fill="#4aa3ff"/><circle cx="627.5" cy="36.0" r="3" fill="#4aa3ff"/><circle cx="630.1" cy="36.0" r="3" fill="#4aa3ff"/><circle cx="632.7" cy="36.0" r="3" fill="#4aa3ff"/><circle cx="635.3" cy="36.0" r="3" fill="#4aa3ff"/><circle cx="637.9" cy="36.0" r="3" fill="#4aa3ff"/><circle cx="640.5" cy="36.0" r="3" fill="#4aa3ff"/><circle cx="643.2" cy="36.0" r="3" fill="#4aa3ff"/><circle cx="645.8" cy="36.0" r="3" fill="#4aa3ff"/><circle cx="648.4" cy="36.0" r="3" fill="#4aa3ff"/><circle cx="651.0" cy="36.0" r="3" fill="#4aa3ff"/><circle cx="653.6" cy="36.0" r="3" fill="#4aa3ff"/><circle cx="656.2" cy="36.0" r="3" fill="#4aa3ff"/><circle cx="658.8" cy="36.0" r="3" fill="#4aa3ff"/><circle cx="661.4" cy="36.0" r="3" fill="#4aa3ff"/><circle cx="664.0" cy="36.0" r="3" fill="#4aa3ff"/>
<text x="36" y="225" fill="#6b7280" font-size="11">2026-06-26</text>
<text x="664" y="225" fill="#6b7280" font-size="11" text-anchor="end">2026-07-20</text>
<text x="36" y="212" font-family="system-ui,sans-serif" font-size="11">
<tspan fill="#4aa3ff">&#9679; open FPs</tspan>  <tspan fill="#3fb950">&#9679; closed (Anthropic acting)</tspan>  <tspan fill="#8a5a5a">&#9679; harness withdrawn</tspan></text>
<text x="664" y="22" text-anchor="end" font-family="system-ui,sans-serif" font-size="12">
<tspan fill="#4aa3ff">open 800</tspan>  <tspan fill="#3fb950">closed 0</tspan>  <tspan fill="#8a5a5a">harness 0</tspan></text>
</svg>