<svg xmlns="http://www.w3.org/2000/svg" width="700" height="234" viewBox="0 0 700 234" role="img">
<rect width="700" height="234" rx="12" fill="#16181d"/>
<text x="36" y="22" fill="#e8eaed" font-family="system-ui,sans-serif" font-size="14" font-weight="700">Is Anthropic acting? cyber/aup false positives over time</text>
<line x1="36" y1="198.0" x2="664" y2="198.0" stroke="#2a2e37" stroke-width="1"/><text x="30" y="202.0" fill="#6b7280" font-size="11" text-anchor="end">0</text><line x1="36" y1="117.0" x2="664" y2="117.0" stroke="#2a2e37" stroke-width="1"/><text x="30" y="121.0" fill="#6b7280" font-size="11" text-anchor="end">225</text><line x1="36" y1="36.0" x2="664" y2="36.0" stroke="#2a2e37" stroke-width="1"/><text x="30" y="40.0" fill="#6b7280" font-size="11" text-anchor="end">450</text>

<polyline fill="none" stroke="#8a5a5a" stroke-width="2.5" stroke-linejoin="round" points="36.0,104.0 55.0,104.0 74.1,104.0 93.1,104.0 112.1,104.0 131.2,104.0 150.2,104.0 169.2,104.0 188.2,104.0 207.3,104.0 226.3,104.0 245.3,104.0 264.4,104.0 283.4,104.0 302.4,104.0 321.5,104.0 340.5,104.0 359.5,104.0 378.5,104.0 397.6,104.0 416.6,104.0 435.6,104.0 454.7,104.0 473.7,104.0 492.7,104.0 511.8,104.0 530.8,104.0 549.8,104.0 568.8,104.0 587.9,104.0 606.9,104.0 625.9,104.0 645.0,104.0 664.0,104.0"/><circle cx="36.0" cy="104.0" r="3" fill="#8a5a5a"/><circle cx="55.0" cy="104.0" r="3" fill="#8a5a5a"/><circle cx="74.1" cy="104.0" r="3" fill="#8a5a5a"/><circle cx="93.1" cy="104.0" r="3" fill="#8a5a5a"/><circle cx="112.1" cy="104.0" r="3" fill="#8a5a5a"/><circle cx="131.2" cy="104.0" r="3" fill="#8a5a5a"/><circle cx="150.2" cy="104.0" r="3" fill="#8a5a5a"/><circle cx="169.2" cy="104.0" r="3" fill="#8a5a5a"/><circle cx="188.2" cy="104.0" r="3" fill="#8a5a5a"/><circle cx="207.3" cy="104.0" r="3" fill="#8a5a5a"/><circle cx="226.3" cy="104.0" r="3" fill="#8a5a5a"/><circle cx="245.3" cy="104.0" r="3" fill="#8a5a5a"/><circle cx="264.4" cy="104.0" r="3" fill="#8a5a5a"/><circle cx="283.4" cy="104.0" r="3" fill="#8a5a5a"/><circle cx="302.4" cy="104.0" r="3" fill="#8a5a5a"/><circle cx="321.5" cy="104.0" r="3" fill="#8a5a5a"/><circle cx="340.5" cy="104.0" r="3" fill="#8a5a5a"/><circle cx="359.5" cy="104.0" r="3" fill="#8a5a5a"/><circle cx="378.5" cy="104.0" r="3" fill="#8a5a5a"/><circle cx="397.6" cy="104.0" r="3" fill="#8a5a5a"/><circle cx="416.6" cy="104.0" r="3" fill="#8a5a5a"/><circle cx="435.6" cy="104.0" r="3" fill="#8a5a5a"/><circle cx="454.7" cy="104.0" r="3" fill="#8a5a5a"/><circle cx="473.7" cy="104.0" r="3" fill="#8a5a5a"/><circle cx="492.7" cy="104.0" r="3" fill="#8a5a5a"/><circle cx="511.8" cy="104.0" r="3" fill="#8a5a5a"/><circle cx="530.8" cy="104.0" r="3" fill="#8a5a5a"/><circle cx="549.8" cy="104.0" r="3" fill="#8a5a5a"/><circle cx="568.8" cy="104.0" r="3" fill="#8a5a5a"/><circle cx="587.9" cy="104.0" r="3" fill="#8a5a5a"/><circle cx="606.9" cy="104.0" r="3" fill="#8a5a5a"/><circle cx="625.9" cy="104.0" r="3" fill="#8a5a5a"/><circle cx="645.0" cy="104.0" r="3" fill="#8a5a5a"/><circle cx="664.0" cy="104.0" r="3" fill="#8a5a5a"/>
<polyline fill="none" stroke="#3fb950" stroke-width="2.5" stroke-linejoin="round" points="36.0,198.0 55.0,198.0 74.1,198.0 93.1,198.0 112.1,198.0 131.2,198.0 150.2,198.0 169.2,198.0 188.2,198.0 207.3,198.0 226.3,198.0 245.3,198.0 264.4,198.0 283.4,198.0 302.4,198.0 321.5,198.0 340.5,198.0 359.5,198.0 378.5,198.0 397.6,198.0 416.6,198.0 435.6,198.0 454.7,198.0 473.7,198.0 492.7,198.0 511.8,198.0 530.8,198.0 549.8,198.0 568.8,198.0 587.9,198.0 606.9,198.0 625.9,198.0 645.0,198.0 664.0,198.0"/><circle cx="36.0" cy="198.0" r="3" fill="#3fb950"/><circle cx="55.0" cy="198.0" r="3" fill="#3fb950"/><circle cx="74.1" cy="198.0" r="3" fill="#3fb950"/><circle cx="93.1" cy="198.0" r="3" fill="#3fb950"/><circle cx="112.1" cy="198.0" r="3" fill="#3fb950"/><circle cx="131.2" cy="198.0" r="3" fill="#3fb950"/><circle cx="150.2" cy="198.0" r="3" fill="#3fb950"/><circle cx="169.2" cy="198.0" r="3" fill="#3fb950"/><circle cx="188.2" cy="198.0" r="3" fill="#3fb950"/><circle cx="207.3" cy="198.0" r="3" fill="#3fb950"/><circle cx="226.3" cy="198.0" r="3" fill="#3fb950"/><circle cx="245.3" cy="198.0" r="3" fill="#3fb950"/><circle cx="264.4" cy="198.0" r="3" fill="#3fb950"/><circle cx="283.4" cy="198.0" r="3" fill="#3fb950"/><circle cx="302.4" cy="198.0" r="3" fill="#3fb950"/><circle cx="321.5" cy="198.0" r="3" fill="#3fb950"/><circle cx="340.5" cy="198.0" r="3" fill="#3fb950"/><circle cx="359.5" cy="198.0" r="3" fill="#3fb950"/><circle cx="378.5" cy="198.0" r="3" fill="#3fb950"/><circle cx="397.6" cy="198.0" r="3" fill="#3fb950"/><circle cx="416.6" cy="198.0" r="3" fill="#3fb950"/><circle cx="435.6" cy="198.0" r="3" fill="#3fb950"/><circle cx="454.7" cy="198.0" r="3" fill="#3fb950"/><circle cx="473.7" cy="198.0" r="3" fill="#3fb950"/><circle cx="492.7" cy="198.0" r="3" fill="#3fb950"/><circle cx="511.8" cy="198.0" r="3" fill="#3fb950"/><circle cx="530.8" cy="198.0" r="3" fill="#3fb950"/><circle cx="549.8" cy="198.0" r="3" fill="#3fb950"/><circle cx="568.8" cy="198.0" r="3" fill="#3fb950"/><circle cx="587.9" cy="198.0" r="3" fill="#3fb950"/><circle cx="606.9" cy="198.0" r="3" fill="#3fb950"/><circle cx="625.9" cy="198.0" r="3" fill="#3fb950"/><circle cx="645.0" cy="198.0" r="3" fill="#3fb950"/><circle cx="664.0" cy="198.0" r="3" fill="#3fb950"/>
<polyline fill="none" stroke="#4aa3ff" stroke-width="2.5" stroke-linejoin="round" points="36.0,102.6 55.0,102.6 74.1,102.6 93.1,102.6 112.1,102.6 131.2,102.6 150.2,102.6 169.2,102.6 188.2,102.6 207.3,102.6 226.3,102.6 245.3,102.6 264.4,102.6 283.4,102.6 302.4,102.6 321.5,88.2 340.5,81.4 359.5,76.3 378.5,76.3 397.6,61.2 416.6,61.2 435.6,61.2 454.7,49.3 473.7,49.3 492.7,49.3 511.8,43.9 530.8,43.2 549.8,43.2 568.8,42.5 587.9,42.5 606.9,41.4 625.9,39.2 645.0,36.7 664.0,36.0"/><circle cx="36.0" cy="102.6" r="3" fill="#4aa3ff"/><circle cx="55.0" cy="102.6" r="3" fill="#4aa3ff"/><circle cx="74.1" cy="102.6" r="3" fill="#4aa3ff"/><circle cx="93.1" cy="102.6" r="3" fill="#4aa3ff"/><circle cx="112.1" cy="102.6" r="3" fill="#4aa3ff"/><circle cx="131.2" cy="102.6" r="3" fill="#4aa3ff"/><circle cx="150.2" cy="102.6" r="3" fill="#4aa3ff"/><circle cx="169.2" cy="102.6" r="3" fill="#4aa3ff"/><circle cx="188.2" cy="102.6" r="3" fill="#4aa3ff"/><circle cx="207.3" cy="102.6" r="3" fill="#4aa3ff"/><circle cx="226.3" cy="102.6" r="3" fill="#4aa3ff"/><circle cx="245.3" cy="102.6" r="3" fill="#4aa3ff"/><circle cx="264.4" cy="102.6" r="3" fill="#4aa3ff"/><circle cx="283.4" cy="102.6" r="3" fill="#4aa3ff"/><circle cx="302.4" cy="102.6" r="3" fill="#4aa3ff"/><circle cx="321.5" cy="88.2" r="3" fill="#4aa3ff"/><circle cx="340.5" cy="81.4" r="3" fill="#4aa3ff"/><circle cx="359.5" cy="76.3" r="3" fill="#4aa3ff"/><circle cx="378.5" cy="76.3" r="3" fill="#4aa3ff"/><circle cx="397.6" cy="61.2" r="3" fill="#4aa3ff"/><circle cx="416.6" cy="61.2" r="3" fill="#4aa3ff"/><circle cx="435.6" cy="61.2" r="3" fill="#4aa3ff"/><circle cx="454.7" cy="49.3" r="3" fill="#4aa3ff"/><circle cx="473.7" cy="49.3" r="3" fill="#4aa3ff"/><circle cx="492.7" cy="49.3" r="3" fill="#4aa3ff"/><circle cx="511.8" cy="43.9" r="3" fill="#4aa3ff"/><circle cx="530.8" cy="43.2" r="3" fill="#4aa3ff"/><circle cx="549.8" cy="43.2" r="3" fill="#4aa3ff"/><circle cx="568.8" cy="42.5" r="3" fill="#4aa3ff"/><circle cx="587.9" cy="42.5" r="3" fill="#4aa3ff"/><circle cx="606.9" cy="41.4" r="3" fill="#4aa3ff"/><circle cx="625.9" cy="39.2" r="3" fill="#4aa3ff"/><circle cx="645.0" cy="36.7" r="3" fill="#4aa3ff"/><circle cx="664.0" cy="36.0" r="3" fill="#4aa3ff"/>
<text x="36" y="225" fill="#6b7280" font-size="11">2026-06-26</text>
<text x="664" y="225" fill="#6b7280" font-size="11" text-anchor="end">2026-06-30</text>
<text x="36" y="212" font-family="system-ui,sans-serif" font-size="11">
<tspan fill="#4aa3ff">&#9679; open FPs</tspan>  <tspan fill="#3fb950">&#9679; closed (Anthropic acting)</tspan>  <tspan fill="#8a5a5a">&#9679; harness withdrawn</tspan></text>
<text x="664" y="22" text-anchor="end" font-family="system-ui,sans-serif" font-size="12">
<tspan fill="#4aa3ff">open 450</tspan>  <tspan fill="#3fb950">closed 0</tspan>  <tspan fill="#8a5a5a">harness 261</tspan></text>
</svg>