<svg xmlns="http://www.w3.org/2000/svg" width="700" height="234" viewBox="0 0 700 234" role="img">
<rect width="700" height="234" rx="12" fill="#16181d"/>
<text x="36" y="22" fill="#e8eaed" font-family="system-ui,sans-serif" font-size="14" font-weight="700">Is Anthropic acting? cyber/aup false positives over time</text>
<line x1="36" y1="198.0" x2="664" y2="198.0" stroke="#2a2e37" stroke-width="1"/><text x="30" y="202.0" fill="#6b7280" font-size="11" text-anchor="end">0</text><line x1="36" y1="117.0" x2="664" y2="117.0" stroke="#2a2e37" stroke-width="1"/><text x="30" y="121.0" fill="#6b7280" font-size="11" text-anchor="end">400</text><line x1="36" y1="36.0" x2="664" y2="36.0" stroke="#2a2e37" stroke-width="1"/><text x="30" y="40.0" fill="#6b7280" font-size="11" text-anchor="end">800</text>

<polyline fill="none" stroke="#8a5a5a" stroke-width="2.5" stroke-linejoin="round" points="36.0,145.1 39.9,145.1 43.8,145.1 47.7,145.1 51.6,145.1 55.5,145.1 59.4,145.1 63.3,145.1 67.2,145.1 71.1,145.1 75.0,145.1 78.9,145.1 82.8,145.1 86.7,145.1 90.6,145.1 94.5,145.1 98.4,145.1 102.3,145.1 106.2,145.1 110.1,145.1 114.0,145.1 117.9,145.1 121.8,145.1 125.7,145.1 129.6,145.1 133.5,145.1 137.4,145.1 141.3,145.1 145.2,145.1 149.1,145.1 153.0,145.1 156.9,145.1 160.8,145.1 164.7,145.1 168.6,145.1 172.5,145.1 176.4,145.1 180.3,145.1 184.2,145.1 188.1,145.1 192.0,145.1 195.9,145.1 199.8,145.1 203.7,145.1 207.6,145.1 211.5,145.1 215.4,145.1 219.3,145.1 223.2,145.1 227.1,145.1 231.0,155.7 234.9,155.7 238.8,155.7 242.7,155.7 246.6,155.7 250.5,155.7 254.4,155.7 258.3,155.7 262.2,155.7 266.1,155.7 270.0,155.7 273.9,155.7 277.8,155.7 281.7,155.7 285.6,155.7 289.5,155.7 293.4,155.7 297.3,155.7 301.2,155.7 305.1,155.7 309.0,155.7 312.9,155.7 316.8,155.7 320.7,155.7 324.6,155.7 328.5,155.7 332.4,155.7 336.3,155.7 340.2,155.7 344.1,155.7 348.0,155.7 352.0,155.7 355.9,155.7 359.8,155.7 363.7,167.6 367.6,167.6 371.5,170.3 375.4,170.3 379.3,170.5 383.2,170.7 387.1,170.7 391.0,170.9 394.9,172.7 398.8,180.6 402.7,181.8 406.6,189.1 410.5,190.5 414.4,195.2 418.3,198.0 422.2,198.0 426.1,198.0 430.0,198.0 433.9,198.0 437.8,198.0 441.7,198.0 445.6,198.0 449.5,198.0 453.4,198.0 457.3,198.0 461.2,198.0 465.1,198.0 469.0,198.0 472.9,198.0 476.8,198.0 480.7,198.0 484.6,198.0 488.5,198.0 492.4,198.0 496.3,198.0 500.2,198.0 504.1,198.0 508.0,198.0 511.9,198.0 515.8,198.0 519.7,198.0 523.6,198.0 527.5,198.0 531.4,198.0 535.3,198.0 539.2,198.0 543.1,198.0 547.0,198.0 550.9,198.0 554.8,198.0 558.7,198.0 562.6,198.0 566.5,198.0 570.4,198.0 574.3,198.0 578.2,198.0 582.1,198.0 586.0,198.0 589.9,198.0 593.8,198.0 597.7,198.0 601.6,198.0 605.5,198.0 609.4,198.0 613.3,198.0 617.2,198.0 621.1,198.0 625.0,198.0 628.9,198.0 632.8,198.0 636.7,198.0 640.6,198.0 644.5,198.0 648.4,198.0 652.3,198.0 656.2,198.0 660.1,198.0 664.0,198.0"/><circle cx="36.0" cy="145.1" r="3" fill="#8a5a5a"/><circle cx="39.9" cy="145.1" r="3" fill="#8a5a5a"/><circle cx="43.8" cy="145.1" r="3" fill="#8a5a5a"/><circle cx="47.7" cy="145.1" r="3" fill="#8a5a5a"/><circle cx="51.6" cy="145.1" r="3" fill="#8a5a5a"/><circle cx="55.5" cy="145.1" r="3" fill="#8a5a5a"/><circle cx="59.4" cy="145.1" r="3" fill="#8a5a5a"/><circle cx="63.3" cy="145.1" r="3" fill="#8a5a5a"/><circle cx="67.2" cy="145.1" r="3" fill="#8a5a5a"/><circle cx="71.1" cy="145.1" r="3" fill="#8a5a5a"/><circle cx="75.0" cy="145.1" r="3" fill="#8a5a5a"/><circle cx="78.9" cy="145.1" r="3" fill="#8a5a5a"/><circle cx="82.8" cy="145.1" r="3" fill="#8a5a5a"/><circle cx="86.7" cy="145.1" r="3" fill="#8a5a5a"/><circle cx="90.6" cy="145.1" r="3" fill="#8a5a5a"/><circle cx="94.5" cy="145.1" r="3" fill="#8a5a5a"/><circle cx="98.4" cy="145.1" r="3" fill="#8a5a5a"/><circle cx="102.3" cy="145.1" r="3" fill="#8a5a5a"/><circle cx="106.2" cy="145.1" r="3" fill="#8a5a5a"/><circle cx="110.1" cy="145.1" r="3" fill="#8a5a5a"/><circle cx="114.0" cy="145.1" r="3" fill="#8a5a5a"/><circle cx="117.9" cy="145.1" r="3" fill="#8a5a5a"/><circle cx="121.8" cy="145.1" r="3" fill="#8a5a5a"/><circle cx="125.7" cy="145.1" r="3" fill="#8a5a5a"/><circle cx="129.6" cy="145.1" r="3" fill="#8a5a5a"/><circle cx="133.5" cy="145.1" r="3" fill="#8a5a5a"/><circle cx="137.4" cy="145.1" r="3" fill="#8a5a5a"/><circle cx="141.3" cy="145.1" r="3" fill="#8a5a5a"/><circle cx="145.2" cy="145.1" r="3" fill="#8a5a5a"/><circle cx="149.1" cy="145.1" r="3" fill="#8a5a5a"/><circle cx="153.0" cy="145.1" r="3" fill="#8a5a5a"/><circle cx="156.9" cy="145.1" r="3" fill="#8a5a5a"/><circle cx="160.8" cy="145.1" r="3" fill="#8a5a5a"/><circle cx="164.7" cy="145.1" r="3" fill="#8a5a5a"/><circle cx="168.6" cy="145.1" r="3" fill="#8a5a5a"/><circle cx="172.5" cy="145.1" r="3" fill="#8a5a5a"/><circle cx="176.4" cy="145.1" r="3" fill="#8a5a5a"/><circle cx="180.3" cy="145.1" r="3" fill="#8a5a5a"/><circle cx="184.2" cy="145.1" r="3" fill="#8a5a5a"/><circle cx="188.1" cy="145.1" r="3" fill="#8a5a5a"/><circle cx="192.0" cy="145.1" r="3" fill="#8a5a5a"/><circle cx="195.9" cy="145.1" r="3" fill="#8a5a5a"/><circle cx="199.8" cy="145.1" r="3" fill="#8a5a5a"/><circle cx="203.7" cy="145.1" r="3" fill="#8a5a5a"/><circle cx="207.6" cy="145.1" r="3" fill="#8a5a5a"/><circle cx="211.5" cy="145.1" r="3" fill="#8a5a5a"/><circle cx="215.4" cy="145.1" r="3" fill="#8a5a5a"/><circle cx="219.3" cy="145.1" r="3" fill="#8a5a5a"/><circle cx="223.2" cy="145.1" r="3" fill="#8a5a5a"/><circle cx="227.1" cy="145.1" r="3" fill="#8a5a5a"/><circle cx="231.0" cy="155.7" r="3" fill="#8a5a5a"/><circle cx="234.9" cy="155.7" r="3" fill="#8a5a5a"/><circle cx="238.8" cy="155.7" r="3" fill="#8a5a5a"/><circle cx="242.7" cy="155.7" r="3" fill="#8a5a5a"/><circle cx="246.6" cy="155.7" r="3" fill="#8a5a5a"/><circle cx="250.5" cy="155.7" r="3" fill="#8a5a5a"/><circle cx="254.4" cy="155.7" r="3" fill="#8a5a5a"/><circle cx="258.3" cy="155.7" r="3" fill="#8a5a5a"/><circle cx="262.2" cy="155.7" r="3" fill="#8a5a5a"/><circle cx="266.1" cy="155.7" r="3" fill="#8a5a5a"/><circle cx="270.0" cy="155.7" r="3" fill="#8a5a5a"/><circle cx="273.9" cy="155.7" r="3" fill="#8a5a5a"/><circle cx="277.8" cy="155.7" r="3" fill="#8a5a5a"/><circle cx="281.7" cy="155.7" r="3" fill="#8a5a5a"/><circle cx="285.6" cy="155.7" r="3" fill="#8a5a5a"/><circle cx="289.5" cy="155.7" r="3" fill="#8a5a5a"/><circle cx="293.4" cy="155.7" r="3" fill="#8a5a5a"/><circle cx="297.3" cy="155.7" r="3" fill="#8a5a5a"/><circle cx="301.2" cy="155.7" r="3" fill="#8a5a5a"/><circle cx="305.1" cy="155.7" r="3" fill="#8a5a5a"/><circle cx="309.0" cy="155.7" r="3" fill="#8a5a5a"/><circle cx="312.9" cy="155.7" r="3" fill="#8a5a5a"/><circle cx="316.8" cy="155.7" r="3" fill="#8a5a5a"/><circle cx="320.7" cy="155.7" r="3" fill="#8a5a5a"/><circle cx="324.6" cy="155.7" r="3" fill="#8a5a5a"/><circle cx="328.5" cy="155.7" r="3" fill="#8a5a5a"/><circle cx="332.4" cy="155.7" r="3" fill="#8a5a5a"/><circle cx="336.3" cy="155.7" r="3" fill="#8a5a5a"/><circle cx="340.2" cy="155.7" r="3" fill="#8a5a5a"/><circle cx="344.1" cy="155.7" r="3" fill="#8a5a5a"/><circle cx="348.0" cy="155.7" r="3" fill="#8a5a5a"/><circle cx="352.0" cy="155.7" r="3" fill="#8a5a5a"/><circle cx="355.9" cy="155.7" r="3" fill="#8a5a5a"/><circle cx="359.8" cy="155.7" r="3" fill="#8a5a5a"/><circle cx="363.7" cy="167.6" r="3" fill="#8a5a5a"/><circle cx="367.6" cy="167.6" r="3" fill="#8a5a5a"/><circle cx="371.5" cy="170.3" r="3" fill="#8a5a5a"/><circle cx="375.4" cy="170.3" r="3" fill="#8a5a5a"/><circle cx="379.3" cy="170.5" r="3" fill="#8a5a5a"/><circle cx="383.2" cy="170.7" r="3" fill="#8a5a5a"/><circle cx="387.1" cy="170.7" r="3" fill="#8a5a5a"/><circle cx="391.0" cy="170.9" r="3" fill="#8a5a5a"/><circle cx="394.9" cy="172.7" r="3" fill="#8a5a5a"/><circle cx="398.8" cy="180.6" r="3" fill="#8a5a5a"/><circle cx="402.7" cy="181.8" r="3" fill="#8a5a5a"/><circle cx="406.6" cy="189.1" r="3" fill="#8a5a5a"/><circle cx="410.5" cy="190.5" r="3" fill="#8a5a5a"/><circle cx="414.4" cy="195.2" r="3" fill="#8a5a5a"/><circle cx="418.3" cy="198.0" r="3" fill="#8a5a5a"/><circle cx="422.2" cy="198.0" r="3" fill="#8a5a5a"/><circle cx="426.1" cy="198.0" r="3" fill="#8a5a5a"/><circle cx="430.0" cy="198.0" r="3" fill="#8a5a5a"/><circle cx="433.9" cy="198.0" r="3" fill="#8a5a5a"/><circle cx="437.8" cy="198.0" r="3" fill="#8a5a5a"/><circle cx="441.7" cy="198.0" r="3" fill="#8a5a5a"/><circle cx="445.6" cy="198.0" r="3" fill="#8a5a5a"/><circle cx="449.5" cy="198.0" r="3" fill="#8a5a5a"/><circle cx="453.4" cy="198.0" r="3" fill="#8a5a5a"/><circle cx="457.3" cy="198.0" r="3" fill="#8a5a5a"/><circle cx="461.2" cy="198.0" r="3" fill="#8a5a5a"/><circle cx="465.1" cy="198.0" r="3" fill="#8a5a5a"/><circle cx="469.0" cy="198.0" r="3" fill="#8a5a5a"/><circle cx="472.9" cy="198.0" r="3" fill="#8a5a5a"/><circle cx="476.8" cy="198.0" r="3" fill="#8a5a5a"/><circle cx="480.7" cy="198.0" r="3" fill="#8a5a5a"/><circle cx="484.6" cy="198.0" r="3" fill="#8a5a5a"/><circle cx="488.5" cy="198.0" r="3" fill="#8a5a5a"/><circle cx="492.4" cy="198.0" r="3" fill="#8a5a5a"/><circle cx="496.3" cy="198.0" r="3" fill="#8a5a5a"/><circle cx="500.2" cy="198.0" r="3" fill="#8a5a5a"/><circle cx="504.1" cy="198.0" r="3" fill="#8a5a5a"/><circle cx="508.0" cy="198.0" r="3" fill="#8a5a5a"/><circle cx="511.9" cy="198.0" r="3" fill="#8a5a5a"/><circle cx="515.8" cy="198.0" r="3" fill="#8a5a5a"/><circle cx="519.7" cy="198.0" r="3" fill="#8a5a5a"/><circle cx="523.6" cy="198.0" r="3" fill="#8a5a5a"/><circle cx="527.5" cy="198.0" r="3" fill="#8a5a5a"/><circle cx="531.4" cy="198.0" r="3" fill="#8a5a5a"/><circle cx="535.3" cy="198.0" r="3" fill="#8a5a5a"/><circle cx="539.2" cy="198.0" r="3" fill="#8a5a5a"/><circle cx="543.1" cy="198.0" r="3" fill="#8a5a5a"/><circle cx="547.0" cy="198.0" r="3" fill="#8a5a5a"/><circle cx="550.9" cy="198.0" r="3" fill="#8a5a5a"/><circle cx="554.8" cy="198.0" r="3" fill="#8a5a5a"/><circle cx="558.7" cy="198.0" r="3" fill="#8a5a5a"/><circle cx="562.6" cy="198.0" r="3" fill="#8a5a5a"/><circle cx="566.5" cy="198.0" r="3" fill="#8a5a5a"/><circle cx="570.4" cy="198.0" r="3" fill="#8a5a5a"/><circle cx="574.3" cy="198.0" r="3" fill="#8a5a5a"/><circle cx="578.2" cy="198.0" r="3" fill="#8a5a5a"/><circle cx="582.1" cy="198.0" r="3" fill="#8a5a5a"/><circle cx="586.0" cy="198.0" r="3" fill="#8a5a5a"/><circle cx="589.9" cy="198.0" r="3" fill="#8a5a5a"/><circle cx="593.8" cy="198.0" r="3" fill="#8a5a5a"/><circle cx="597.7" cy="198.0" r="3" fill="#8a5a5a"/><circle cx="601.6" cy="198.0" r="3" fill="#8a5a5a"/><circle cx="605.5" cy="198.0" r="3" fill="#8a5a5a"/><circle cx="609.4" cy="198.0" r="3" fill="#8a5a5a"/><circle cx="613.3" cy="198.0" r="3" fill="#8a5a5a"/><circle cx="617.2" cy="198.0" r="3" fill="#8a5a5a"/><circle cx="621.1" cy="198.0" r="3" fill="#8a5a5a"/><circle cx="625.0" cy="198.0" r="3" fill="#8a5a5a"/><circle cx="628.9" cy="198.0" r="3" fill="#8a5a5a"/><circle cx="632.8" cy="198.0" r="3" fill="#8a5a5a"/><circle cx="636.7" cy="198.0" r="3" fill="#8a5a5a"/><circle cx="640.6" cy="198.0" r="3" fill="#8a5a5a"/><circle cx="644.5" cy="198.0" r="3" fill="#8a5a5a"/><circle cx="648.4" cy="198.0" r="3" fill="#8a5a5a"/><circle cx="652.3" cy="198.0" r="3" fill="#8a5a5a"/><circle cx="656.2" cy="198.0" r="3" fill="#8a5a5a"/><circle cx="660.1" cy="198.0" r="3" fill="#8a5a5a"/><circle cx="664.0" cy="198.0" r="3" fill="#8a5a5a"/>
<polyline fill="none" stroke="#3fb950" stroke-width="2.5" stroke-linejoin="round" points="36.0,198.0 39.9,198.0 43.8,198.0 47.7,198.0 51.6,198.0 55.5,198.0 59.4,198.0 63.3,198.0 67.2,198.0 71.1,198.0 75.0,198.0 78.9,198.0 82.8,198.0 86.7,198.0 90.6,198.0 94.5,198.0 98.4,198.0 102.3,198.0 106.2,198.0 110.1,198.0 114.0,198.0 117.9,198.0 121.8,198.0 125.7,198.0 129.6,198.0 133.5,198.0 137.4,198.0 141.3,198.0 145.2,198.0 149.1,198.0 153.0,198.0 156.9,198.0 160.8,198.0 164.7,198.0 168.6,198.0 172.5,198.0 176.4,198.0 180.3,198.0 184.2,198.0 188.1,198.0 192.0,198.0 195.9,198.0 199.8,198.0 203.7,191.7 207.6,191.7 211.5,191.7 215.4,191.7 219.3,191.7 223.2,191.7 227.1,191.7 231.0,192.9 234.9,192.9 238.8,190.7 242.7,190.7 246.6,190.7 250.5,190.7 254.4,190.7 258.3,190.5 262.2,190.5 266.1,190.5 270.0,190.3 273.9,190.3 277.8,190.3 281.7,190.3 285.6,190.3 289.5,190.3 293.4,190.3 297.3,190.3 301.2,190.3 305.1,190.3 309.0,190.3 312.9,190.3 316.8,190.3 320.7,190.3 324.6,190.3 328.5,190.3 332.4,190.3 336.3,190.3 340.2,190.3 344.1,190.3 348.0,190.3 352.0,189.3 355.9,189.3 359.8,189.3 363.7,190.7 367.6,190.7 371.5,190.7 375.4,190.7 379.3,190.7 383.2,190.7 387.1,190.7 391.0,190.7 394.9,190.7 398.8,190.9 402.7,190.9 406.6,190.9 410.5,194.2 414.4,196.8 418.3,198.0 422.2,198.0 426.1,198.0 430.0,198.0 433.9,198.0 437.8,198.0 441.7,198.0 445.6,198.0 449.5,198.0 453.4,198.0 457.3,198.0 461.2,198.0 465.1,198.0 469.0,198.0 472.9,198.0 476.8,198.0 480.7,198.0 484.6,198.0 488.5,198.0 492.4,198.0 496.3,198.0 500.2,198.0 504.1,198.0 508.0,198.0 511.9,198.0 515.8,198.0 519.7,198.0 523.6,198.0 527.5,198.0 531.4,198.0 535.3,198.0 539.2,198.0 543.1,198.0 547.0,198.0 550.9,198.0 554.8,198.0 558.7,198.0 562.6,198.0 566.5,198.0 570.4,198.0 574.3,198.0 578.2,198.0 582.1,198.0 586.0,198.0 589.9,198.0 593.8,198.0 597.7,198.0 601.6,198.0 605.5,198.0 609.4,198.0 613.3,198.0 617.2,198.0 621.1,198.0 625.0,198.0 628.9,198.0 632.8,198.0 636.7,198.0 640.6,198.0 644.5,198.0 648.4,198.0 652.3,198.0 656.2,198.0 660.1,198.0 664.0,198.0"/><circle cx="36.0" cy="198.0" r="3" fill="#3fb950"/><circle cx="39.9" cy="198.0" r="3" fill="#3fb950"/><circle cx="43.8" cy="198.0" r="3" fill="#3fb950"/><circle cx="47.7" cy="198.0" r="3" fill="#3fb950"/><circle cx="51.6" cy="198.0" r="3" fill="#3fb950"/><circle cx="55.5" cy="198.0" r="3" fill="#3fb950"/><circle cx="59.4" cy="198.0" r="3" fill="#3fb950"/><circle cx="63.3" cy="198.0" r="3" fill="#3fb950"/><circle cx="67.2" cy="198.0" r="3" fill="#3fb950"/><circle cx="71.1" cy="198.0" r="3" fill="#3fb950"/><circle cx="75.0" cy="198.0" r="3" fill="#3fb950"/><circle cx="78.9" cy="198.0" r="3" fill="#3fb950"/><circle cx="82.8" cy="198.0" r="3" fill="#3fb950"/><circle cx="86.7" cy="198.0" r="3" fill="#3fb950"/><circle cx="90.6" cy="198.0" r="3" fill="#3fb950"/><circle cx="94.5" cy="198.0" r="3" fill="#3fb950"/><circle cx="98.4" cy="198.0" r="3" fill="#3fb950"/><circle cx="102.3" cy="198.0" r="3" fill="#3fb950"/><circle cx="106.2" cy="198.0" r="3" fill="#3fb950"/><circle cx="110.1" cy="198.0" r="3" fill="#3fb950"/><circle cx="114.0" cy="198.0" r="3" fill="#3fb950"/><circle cx="117.9" cy="198.0" r="3" fill="#3fb950"/><circle cx="121.8" cy="198.0" r="3" fill="#3fb950"/><circle cx="125.7" cy="198.0" r="3" fill="#3fb950"/><circle cx="129.6" cy="198.0" r="3" fill="#3fb950"/><circle cx="133.5" cy="198.0" r="3" fill="#3fb950"/><circle cx="137.4" cy="198.0" r="3" fill="#3fb950"/><circle cx="141.3" cy="198.0" r="3" fill="#3fb950"/><circle cx="145.2" cy="198.0" r="3" fill="#3fb950"/><circle cx="149.1" cy="198.0" r="3" fill="#3fb950"/><circle cx="153.0" cy="198.0" r="3" fill="#3fb950"/><circle cx="156.9" cy="198.0" r="3" fill="#3fb950"/><circle cx="160.8" cy="198.0" r="3" fill="#3fb950"/><circle cx="164.7" cy="198.0" r="3" fill="#3fb950"/><circle cx="168.6" cy="198.0" r="3" fill="#3fb950"/><circle cx="172.5" cy="198.0" r="3" fill="#3fb950"/><circle cx="176.4" cy="198.0" r="3" fill="#3fb950"/><circle cx="180.3" cy="198.0" r="3" fill="#3fb950"/><circle cx="184.2" cy="198.0" r="3" fill="#3fb950"/><circle cx="188.1" cy="198.0" r="3" fill="#3fb950"/><circle cx="192.0" cy="198.0" r="3" fill="#3fb950"/><circle cx="195.9" cy="198.0" r="3" fill="#3fb950"/><circle cx="199.8" cy="198.0" r="3" fill="#3fb950"/><circle cx="203.7" cy="191.7" r="3" fill="#3fb950"/><circle cx="207.6" cy="191.7" r="3" fill="#3fb950"/><circle cx="211.5" cy="191.7" r="3" fill="#3fb950"/><circle cx="215.4" cy="191.7" r="3" fill="#3fb950"/><circle cx="219.3" cy="191.7" r="3" fill="#3fb950"/><circle cx="223.2" cy="191.7" r="3" fill="#3fb950"/><circle cx="227.1" cy="191.7" r="3" fill="#3fb950"/><circle cx="231.0" cy="192.9" r="3" fill="#3fb950"/><circle cx="234.9" cy="192.9" r="3" fill="#3fb950"/><circle cx="238.8" cy="190.7" r="3" fill="#3fb950"/><circle cx="242.7" cy="190.7" r="3" fill="#3fb950"/><circle cx="246.6" cy="190.7" r="3" fill="#3fb950"/><circle cx="250.5" cy="190.7" r="3" fill="#3fb950"/><circle cx="254.4" cy="190.7" r="3" fill="#3fb950"/><circle cx="258.3" cy="190.5" r="3" fill="#3fb950"/><circle cx="262.2" cy="190.5" r="3" fill="#3fb950"/><circle cx="266.1" cy="190.5" r="3" fill="#3fb950"/><circle cx="270.0" cy="190.3" r="3" fill="#3fb950"/><circle cx="273.9" cy="190.3" r="3" fill="#3fb950"/><circle cx="277.8" cy="190.3" r="3" fill="#3fb950"/><circle cx="281.7" cy="190.3" r="3" fill="#3fb950"/><circle cx="285.6" cy="190.3" r="3" fill="#3fb950"/><circle cx="289.5" cy="190.3" r="3" fill="#3fb950"/><circle cx="293.4" cy="190.3" r="3" fill="#3fb950"/><circle cx="297.3" cy="190.3" r="3" fill="#3fb950"/><circle cx="301.2" cy="190.3" r="3" fill="#3fb950"/><circle cx="305.1" cy="190.3" r="3" fill="#3fb950"/><circle cx="309.0" cy="190.3" r="3" fill="#3fb950"/><circle cx="312.9" cy="190.3" r="3" fill="#3fb950"/><circle cx="316.8" cy="190.3" r="3" fill="#3fb950"/><circle cx="320.7" cy="190.3" r="3" fill="#3fb950"/><circle cx="324.6" cy="190.3" r="3" fill="#3fb950"/><circle cx="328.5" cy="190.3" r="3" fill="#3fb950"/><circle cx="332.4" cy="190.3" r="3" fill="#3fb950"/><circle cx="336.3" cy="190.3" r="3" fill="#3fb950"/><circle cx="340.2" cy="190.3" r="3" fill="#3fb950"/><circle cx="344.1" cy="190.3" r="3" fill="#3fb950"/><circle cx="348.0" cy="190.3" r="3" fill="#3fb950"/><circle cx="352.0" cy="189.3" r="3" fill="#3fb950"/><circle cx="355.9" cy="189.3" r="3" fill="#3fb950"/><circle cx="359.8" cy="189.3" r="3" fill="#3fb950"/><circle cx="363.7" cy="190.7" r="3" fill="#3fb950"/><circle cx="367.6" cy="190.7" r="3" fill="#3fb950"/><circle cx="371.5" cy="190.7" r="3" fill="#3fb950"/><circle cx="375.4" cy="190.7" r="3" fill="#3fb950"/><circle cx="379.3" cy="190.7" r="3" fill="#3fb950"/><circle cx="383.2" cy="190.7" r="3" fill="#3fb950"/><circle cx="387.1" cy="190.7" r="3" fill="#3fb950"/><circle cx="391.0" cy="190.7" r="3" fill="#3fb950"/><circle cx="394.9" cy="190.7" r="3" fill="#3fb950"/><circle cx="398.8" cy="190.9" r="3" fill="#3fb950"/><circle cx="402.7" cy="190.9" r="3" fill="#3fb950"/><circle cx="406.6" cy="190.9" r="3" fill="#3fb950"/><circle cx="410.5" cy="194.2" r="3" fill="#3fb950"/><circle cx="414.4" cy="196.8" r="3" fill="#3fb950"/><circle cx="418.3" cy="198.0" r="3" fill="#3fb950"/><circle cx="422.2" cy="198.0" r="3" fill="#3fb950"/><circle cx="426.1" cy="198.0" r="3" fill="#3fb950"/><circle cx="430.0" cy="198.0" r="3" fill="#3fb950"/><circle cx="433.9" cy="198.0" r="3" fill="#3fb950"/><circle cx="437.8" cy="198.0" r="3" fill="#3fb950"/><circle cx="441.7" cy="198.0" r="3" fill="#3fb950"/><circle cx="445.6" cy="198.0" r="3" fill="#3fb950"/><circle cx="449.5" cy="198.0" r="3" fill="#3fb950"/><circle cx="453.4" cy="198.0" r="3" fill="#3fb950"/><circle cx="457.3" cy="198.0" r="3" fill="#3fb950"/><circle cx="461.2" cy="198.0" r="3" fill="#3fb950"/><circle cx="465.1" cy="198.0" r="3" fill="#3fb950"/><circle cx="469.0" cy="198.0" r="3" fill="#3fb950"/><circle cx="472.9" cy="198.0" r="3" fill="#3fb950"/><circle cx="476.8" cy="198.0" r="3" fill="#3fb950"/><circle cx="480.7" cy="198.0" r="3" fill="#3fb950"/><circle cx="484.6" cy="198.0" r="3" fill="#3fb950"/><circle cx="488.5" cy="198.0" r="3" fill="#3fb950"/><circle cx="492.4" cy="198.0" r="3" fill="#3fb950"/><circle cx="496.3" cy="198.0" r="3" fill="#3fb950"/><circle cx="500.2" cy="198.0" r="3" fill="#3fb950"/><circle cx="504.1" cy="198.0" r="3" fill="#3fb950"/><circle cx="508.0" cy="198.0" r="3" fill="#3fb950"/><circle cx="511.9" cy="198.0" r="3" fill="#3fb950"/><circle cx="515.8" cy="198.0" r="3" fill="#3fb950"/><circle cx="519.7" cy="198.0" r="3" fill="#3fb950"/><circle cx="523.6" cy="198.0" r="3" fill="#3fb950"/><circle cx="527.5" cy="198.0" r="3" fill="#3fb950"/><circle cx="531.4" cy="198.0" r="3" fill="#3fb950"/><circle cx="535.3" cy="198.0" r="3" fill="#3fb950"/><circle cx="539.2" cy="198.0" r="3" fill="#3fb950"/><circle cx="543.1" cy="198.0" r="3" fill="#3fb950"/><circle cx="547.0" cy="198.0" r="3" fill="#3fb950"/><circle cx="550.9" cy="198.0" r="3" fill="#3fb950"/><circle cx="554.8" cy="198.0" r="3" fill="#3fb950"/><circle cx="558.7" cy="198.0" r="3" fill="#3fb950"/><circle cx="562.6" cy="198.0" r="3" fill="#3fb950"/><circle cx="566.5" cy="198.0" r="3" fill="#3fb950"/><circle cx="570.4" cy="198.0" r="3" fill="#3fb950"/><circle cx="574.3" cy="198.0" r="3" fill="#3fb950"/><circle cx="578.2" cy="198.0" r="3" fill="#3fb950"/><circle cx="582.1" cy="198.0" r="3" fill="#3fb950"/><circle cx="586.0" cy="198.0" r="3" fill="#3fb950"/><circle cx="589.9" cy="198.0" r="3" fill="#3fb950"/><circle cx="593.8" cy="198.0" r="3" fill="#3fb950"/><circle cx="597.7" cy="198.0" r="3" fill="#3fb950"/><circle cx="601.6" cy="198.0" r="3" fill="#3fb950"/><circle cx="605.5" cy="198.0" r="3" fill="#3fb950"/><circle cx="609.4" cy="198.0" r="3" fill="#3fb950"/><circle cx="613.3" cy="198.0" r="3" fill="#3fb950"/><circle cx="617.2" cy="198.0" r="3" fill="#3fb950"/><circle cx="621.1" cy="198.0" r="3" fill="#3fb950"/><circle cx="625.0" cy="198.0" r="3" fill="#3fb950"/><circle cx="628.9" cy="198.0" r="3" fill="#3fb950"/><circle cx="632.8" cy="198.0" r="3" fill="#3fb950"/><circle cx="636.7" cy="198.0" r="3" fill="#3fb950"/><circle cx="640.6" cy="198.0" r="3" fill="#3fb950"/><circle cx="644.5" cy="198.0" r="3" fill="#3fb950"/><circle cx="648.4" cy="198.0" r="3" fill="#3fb950"/><circle cx="652.3" cy="198.0" r="3" fill="#3fb950"/><circle cx="656.2" cy="198.0" r="3" fill="#3fb950"/><circle cx="660.1" cy="198.0" r="3" fill="#3fb950"/><circle cx="664.0" cy="198.0" r="3" fill="#3fb950"/>
<polyline fill="none" stroke="#4aa3ff" stroke-width="2.5" stroke-linejoin="round" points="36.0,144.3 39.9,144.3 43.8,144.3 47.7,144.3 51.6,144.3 55.5,144.3 59.4,144.3 63.3,144.3 67.2,144.3 71.1,144.3 75.0,144.3 78.9,144.3 82.8,144.3 86.7,144.3 90.6,144.3 94.5,136.2 98.4,132.4 102.3,129.6 106.2,129.6 110.1,121.0 114.0,121.0 117.9,121.0 121.8,114.4 125.7,114.4 129.6,114.4 133.5,111.3 137.4,110.9 141.3,110.9 145.2,110.5 149.1,110.5 153.0,109.9 156.9,108.7 160.8,107.3 164.7,106.9 168.6,106.9 172.5,106.9 176.4,106.9 180.3,106.9 184.2,106.9 188.1,106.9 192.0,106.9 195.9,106.9 199.8,106.9 203.7,113.2 207.6,113.2 211.5,113.2 215.4,113.2 219.3,113.2 223.2,110.7 227.1,105.3 231.0,83.4 234.9,83.4 238.8,85.6 242.7,85.6 246.6,85.6 250.5,85.6 254.4,85.6 258.3,85.8 262.2,85.8 266.1,85.8 270.0,86.0 273.9,86.0 277.8,86.0 281.7,86.0 285.6,86.0 289.5,86.0 293.4,86.0 297.3,86.0 301.2,86.0 305.1,86.0 309.0,86.0 312.9,86.0 316.8,86.0 320.7,86.0 324.6,86.0 328.5,86.0 332.4,86.0 336.3,86.0 340.2,86.0 344.1,86.0 348.0,86.0 352.0,87.0 355.9,87.0 359.8,87.0 363.7,73.7 367.6,73.7 371.5,71.0 375.4,71.0 379.3,70.8 383.2,70.6 387.1,70.6 391.0,70.4 394.9,68.6 398.8,60.5 402.7,59.3 406.6,52.0 410.5,47.3 414.4,40.1 418.3,36.0 422.2,36.0 426.1,36.0 430.0,36.0 433.9,36.0 437.8,36.0 441.7,36.0 445.6,36.0 449.5,36.0 453.4,36.0 457.3,36.0 461.2,36.0 465.1,36.0 469.0,36.0 472.9,36.0 476.8,36.0 480.7,36.0 484.6,36.0 488.5,36.0 492.4,36.0 496.3,36.0 500.2,36.0 504.1,36.0 508.0,36.0 511.9,36.0 515.8,36.0 519.7,36.0 523.6,36.0 527.5,36.0 531.4,36.0 535.3,36.0 539.2,36.0 543.1,36.0 547.0,36.0 550.9,36.0 554.8,36.0 558.7,36.0 562.6,36.0 566.5,36.0 570.4,36.0 574.3,36.0 578.2,36.0 582.1,36.0 586.0,36.0 589.9,36.0 593.8,36.0 597.7,36.0 601.6,36.0 605.5,36.0 609.4,36.0 613.3,36.0 617.2,36.0 621.1,36.0 625.0,36.0 628.9,36.0 632.8,36.0 636.7,36.0 640.6,36.0 644.5,36.0 648.4,36.0 652.3,36.0 656.2,36.0 660.1,36.0 664.0,36.0"/><circle cx="36.0" cy="144.3" r="3" fill="#4aa3ff"/><circle cx="39.9" cy="144.3" r="3" fill="#4aa3ff"/><circle cx="43.8" cy="144.3" r="3" fill="#4aa3ff"/><circle cx="47.7" cy="144.3" r="3" fill="#4aa3ff"/><circle cx="51.6" cy="144.3" r="3" fill="#4aa3ff"/><circle cx="55.5" cy="144.3" r="3" fill="#4aa3ff"/><circle cx="59.4" cy="144.3" r="3" fill="#4aa3ff"/><circle cx="63.3" cy="144.3" r="3" fill="#4aa3ff"/><circle cx="67.2" cy="144.3" r="3" fill="#4aa3ff"/><circle cx="71.1" cy="144.3" r="3" fill="#4aa3ff"/><circle cx="75.0" cy="144.3" r="3" fill="#4aa3ff"/><circle cx="78.9" cy="144.3" r="3" fill="#4aa3ff"/><circle cx="82.8" cy="144.3" r="3" fill="#4aa3ff"/><circle cx="86.7" cy="144.3" r="3" fill="#4aa3ff"/><circle cx="90.6" cy="144.3" r="3" fill="#4aa3ff"/><circle cx="94.5" cy="136.2" r="3" fill="#4aa3ff"/><circle cx="98.4" cy="132.4" r="3" fill="#4aa3ff"/><circle cx="102.3" cy="129.6" r="3" fill="#4aa3ff"/><circle cx="106.2" cy="129.6" r="3" fill="#4aa3ff"/><circle cx="110.1" cy="121.0" r="3" fill="#4aa3ff"/><circle cx="114.0" cy="121.0" r="3" fill="#4aa3ff"/><circle cx="117.9" cy="121.0" r="3" fill="#4aa3ff"/><circle cx="121.8" cy="114.4" r="3" fill="#4aa3ff"/><circle cx="125.7" cy="114.4" r="3" fill="#4aa3ff"/><circle cx="129.6" cy="114.4" r="3" fill="#4aa3ff"/><circle cx="133.5" cy="111.3" r="3" fill="#4aa3ff"/><circle cx="137.4" cy="110.9" r="3" fill="#4aa3ff"/><circle cx="141.3" cy="110.9" r="3" fill="#4aa3ff"/><circle cx="145.2" cy="110.5" r="3" fill="#4aa3ff"/><circle cx="149.1" cy="110.5" r="3" fill="#4aa3ff"/><circle cx="153.0" cy="109.9" r="3" fill="#4aa3ff"/><circle cx="156.9" cy="108.7" r="3" fill="#4aa3ff"/><circle cx="160.8" cy="107.3" r="3" fill="#4aa3ff"/><circle cx="164.7" cy="106.9" r="3" fill="#4aa3ff"/><circle cx="168.6" cy="106.9" r="3" fill="#4aa3ff"/><circle cx="172.5" cy="106.9" r="3" fill="#4aa3ff"/><circle cx="176.4" cy="106.9" r="3" fill="#4aa3ff"/><circle cx="180.3" cy="106.9" r="3" fill="#4aa3ff"/><circle cx="184.2" cy="106.9" r="3" fill="#4aa3ff"/><circle cx="188.1" cy="106.9" r="3" fill="#4aa3ff"/><circle cx="192.0" cy="106.9" r="3" fill="#4aa3ff"/><circle cx="195.9" cy="106.9" r="3" fill="#4aa3ff"/><circle cx="199.8" cy="106.9" r="3" fill="#4aa3ff"/><circle cx="203.7" cy="113.2" r="3" fill="#4aa3ff"/><circle cx="207.6" cy="113.2" r="3" fill="#4aa3ff"/><circle cx="211.5" cy="113.2" r="3" fill="#4aa3ff"/><circle cx="215.4" cy="113.2" r="3" fill="#4aa3ff"/><circle cx="219.3" cy="113.2" r="3" fill="#4aa3ff"/><circle cx="223.2" cy="110.7" r="3" fill="#4aa3ff"/><circle cx="227.1" cy="105.3" r="3" fill="#4aa3ff"/><circle cx="231.0" cy="83.4" r="3" fill="#4aa3ff"/><circle cx="234.9" cy="83.4" r="3" fill="#4aa3ff"/><circle cx="238.8" cy="85.6" r="3" fill="#4aa3ff"/><circle cx="242.7" cy="85.6" r="3" fill="#4aa3ff"/><circle cx="246.6" cy="85.6" r="3" fill="#4aa3ff"/><circle cx="250.5" cy="85.6" r="3" fill="#4aa3ff"/><circle cx="254.4" cy="85.6" r="3" fill="#4aa3ff"/><circle cx="258.3" cy="85.8" r="3" fill="#4aa3ff"/><circle cx="262.2" cy="85.8" r="3" fill="#4aa3ff"/><circle cx="266.1" cy="85.8" r="3" fill="#4aa3ff"/><circle cx="270.0" cy="86.0" r="3" fill="#4aa3ff"/><circle cx="273.9" cy="86.0" r="3" fill="#4aa3ff"/><circle cx="277.8" cy="86.0" r="3" fill="#4aa3ff"/><circle cx="281.7" cy="86.0" r="3" fill="#4aa3ff"/><circle cx="285.6" cy="86.0" r="3" fill="#4aa3ff"/><circle cx="289.5" cy="86.0" r="3" fill="#4aa3ff"/><circle cx="293.4" cy="86.0" r="3" fill="#4aa3ff"/><circle cx="297.3" cy="86.0" r="3" fill="#4aa3ff"/><circle cx="301.2" cy="86.0" r="3" fill="#4aa3ff"/><circle cx="305.1" cy="86.0" r="3" fill="#4aa3ff"/><circle cx="309.0" cy="86.0" r="3" fill="#4aa3ff"/><circle cx="312.9" cy="86.0" r="3" fill="#4aa3ff"/><circle cx="316.8" cy="86.0" r="3" fill="#4aa3ff"/><circle cx="320.7" cy="86.0" r="3" fill="#4aa3ff"/><circle cx="324.6" cy="86.0" r="3" fill="#4aa3ff"/><circle cx="328.5" cy="86.0" r="3" fill="#4aa3ff"/><circle cx="332.4" cy="86.0" r="3" fill="#4aa3ff"/><circle cx="336.3" cy="86.0" r="3" fill="#4aa3ff"/><circle cx="340.2" cy="86.0" r="3" fill="#4aa3ff"/><circle cx="344.1" cy="86.0" r="3" fill="#4aa3ff"/><circle cx="348.0" cy="86.0" r="3" fill="#4aa3ff"/><circle cx="352.0" cy="87.0" r="3" fill="#4aa3ff"/><circle cx="355.9" cy="87.0" r="3" fill="#4aa3ff"/><circle cx="359.8" cy="87.0" r="3" fill="#4aa3ff"/><circle cx="363.7" cy="73.7" r="3" fill="#4aa3ff"/><circle cx="367.6" cy="73.7" r="3" fill="#4aa3ff"/><circle cx="371.5" cy="71.0" r="3" fill="#4aa3ff"/><circle cx="375.4" cy="71.0" r="3" fill="#4aa3ff"/><circle cx="379.3" cy="70.8" r="3" fill="#4aa3ff"/><circle cx="383.2" cy="70.6" r="3" fill="#4aa3ff"/><circle cx="387.1" cy="70.6" r="3" fill="#4aa3ff"/><circle cx="391.0" cy="70.4" r="3" fill="#4aa3ff"/><circle cx="394.9" cy="68.6" r="3" fill="#4aa3ff"/><circle cx="398.8" cy="60.5" r="3" fill="#4aa3ff"/><circle cx="402.7" cy="59.3" r="3" fill="#4aa3ff"/><circle cx="406.6" cy="52.0" r="3" fill="#4aa3ff"/><circle cx="410.5" cy="47.3" r="3" fill="#4aa3ff"/><circle cx="414.4" cy="40.1" r="3" fill="#4aa3ff"/><circle cx="418.3" cy="36.0" r="3" fill="#4aa3ff"/><circle cx="422.2" cy="36.0" r="3" fill="#4aa3ff"/><circle cx="426.1" cy="36.0" r="3" fill="#4aa3ff"/><circle cx="430.0" cy="36.0" r="3" fill="#4aa3ff"/><circle cx="433.9" cy="36.0" r="3" fill="#4aa3ff"/><circle cx="437.8" cy="36.0" r="3" fill="#4aa3ff"/><circle cx="441.7" cy="36.0" r="3" fill="#4aa3ff"/><circle cx="445.6" cy="36.0" r="3" fill="#4aa3ff"/><circle cx="449.5" cy="36.0" r="3" fill="#4aa3ff"/><circle cx="453.4" cy="36.0" r="3" fill="#4aa3ff"/><circle cx="457.3" cy="36.0" r="3" fill="#4aa3ff"/><circle cx="461.2" cy="36.0" r="3" fill="#4aa3ff"/><circle cx="465.1" cy="36.0" r="3" fill="#4aa3ff"/><circle cx="469.0" cy="36.0" r="3" fill="#4aa3ff"/><circle cx="472.9" cy="36.0" r="3" fill="#4aa3ff"/><circle cx="476.8" cy="36.0" r="3" fill="#4aa3ff"/><circle cx="480.7" cy="36.0" r="3" fill="#4aa3ff"/><circle cx="484.6" cy="36.0" r="3" fill="#4aa3ff"/><circle cx="488.5" cy="36.0" r="3" fill="#4aa3ff"/><circle cx="492.4" cy="36.0" r="3" fill="#4aa3ff"/><circle cx="496.3" cy="36.0" r="3" fill="#4aa3ff"/><circle cx="500.2" cy="36.0" r="3" fill="#4aa3ff"/><circle cx="504.1" cy="36.0" r="3" fill="#4aa3ff"/><circle cx="508.0" cy="36.0" r="3" fill="#4aa3ff"/><circle cx="511.9" cy="36.0" r="3" fill="#4aa3ff"/><circle cx="515.8" cy="36.0" r="3" fill="#4aa3ff"/><circle cx="519.7" cy="36.0" r="3" fill="#4aa3ff"/><circle cx="523.6" cy="36.0" r="3" fill="#4aa3ff"/><circle cx="527.5" cy="36.0" r="3" fill="#4aa3ff"/><circle cx="531.4" cy="36.0" r="3" fill="#4aa3ff"/><circle cx="535.3" cy="36.0" r="3" fill="#4aa3ff"/><circle cx="539.2" cy="36.0" r="3" fill="#4aa3ff"/><circle cx="543.1" cy="36.0" r="3" fill="#4aa3ff"/><circle cx="547.0" cy="36.0" r="3" fill="#4aa3ff"/><circle cx="550.9" cy="36.0" r="3" fill="#4aa3ff"/><circle cx="554.8" cy="36.0" r="3" fill="#4aa3ff"/><circle cx="558.7" cy="36.0" r="3" fill="#4aa3ff"/><circle cx="562.6" cy="36.0" r="3" fill="#4aa3ff"/><circle cx="566.5" cy="36.0" r="3" fill="#4aa3ff"/><circle cx="570.4" cy="36.0" r="3" fill="#4aa3ff"/><circle cx="574.3" cy="36.0" r="3" fill="#4aa3ff"/><circle cx="578.2" cy="36.0" r="3" fill="#4aa3ff"/><circle cx="582.1" cy="36.0" r="3" fill="#4aa3ff"/><circle cx="586.0" cy="36.0" r="3" fill="#4aa3ff"/><circle cx="589.9" cy="36.0" r="3" fill="#4aa3ff"/><circle cx="593.8" cy="36.0" r="3" fill="#4aa3ff"/><circle cx="597.7" cy="36.0" r="3" fill="#4aa3ff"/><circle cx="601.6" cy="36.0" r="3" fill="#4aa3ff"/><circle cx="605.5" cy="36.0" r="3" fill="#4aa3ff"/><circle cx="609.4" cy="36.0" r="3" fill="#4aa3ff"/><circle cx="613.3" cy="36.0" r="3" fill="#4aa3ff"/><circle cx="617.2" cy="36.0" r="3" fill="#4aa3ff"/><circle cx="621.1" cy="36.0" r="3" fill="#4aa3ff"/><circle cx="625.0" cy="36.0" r="3" fill="#4aa3ff"/><circle cx="628.9" cy="36.0" r="3" fill="#4aa3ff"/><circle cx="632.8" cy="36.0" r="3" fill="#4aa3ff"/><circle cx="636.7" cy="36.0" r="3" fill="#4aa3ff"/><circle cx="640.6" cy="36.0" r="3" fill="#4aa3ff"/><circle cx="644.5" cy="36.0" r="3" fill="#4aa3ff"/><circle cx="648.4" cy="36.0" r="3" fill="#4aa3ff"/><circle cx="652.3" cy="36.0" r="3" fill="#4aa3ff"/><circle cx="656.2" cy="36.0" r="3" fill="#4aa3ff"/><circle cx="660.1" cy="36.0" r="3" fill="#4aa3ff"/><circle cx="664.0" cy="36.0" r="3" fill="#4aa3ff"/>
<text x="36" y="225" fill="#6b7280" font-size="11">2026-06-26</text>
<text x="664" y="225" fill="#6b7280" font-size="11" text-anchor="end">2026-07-13</text>
<text x="36" y="212" font-family="system-ui,sans-serif" font-size="11">
<tspan fill="#4aa3ff">&#9679; open FPs</tspan>  <tspan fill="#3fb950">&#9679; closed (Anthropic acting)</tspan>  <tspan fill="#8a5a5a">&#9679; harness withdrawn</tspan></text>
<text x="664" y="22" text-anchor="end" font-family="system-ui,sans-serif" font-size="12">
<tspan fill="#4aa3ff">open 800</tspan>  <tspan fill="#3fb950">closed 0</tspan>  <tspan fill="#8a5a5a">harness 0</tspan></text>
</svg>