<svg xmlns="http://www.w3.org/2000/svg" width="700" height="234" viewBox="0 0 700 234" role="img">
<rect width="700" height="234" rx="12" fill="#16181d"/>
<text x="36" y="22" fill="#e8eaed" font-family="system-ui,sans-serif" font-size="14" font-weight="700">Is Anthropic acting? cyber/aup false positives over time</text>
<line x1="36" y1="198.0" x2="664" y2="198.0" stroke="#2a2e37" stroke-width="1"/><text x="30" y="202.0" fill="#6b7280" font-size="11" text-anchor="end">0</text><line x1="36" y1="117.0" x2="664" y2="117.0" stroke="#2a2e37" stroke-width="1"/><text x="30" y="121.0" fill="#6b7280" font-size="11" text-anchor="end">400</text><line x1="36" y1="36.0" x2="664" y2="36.0" stroke="#2a2e37" stroke-width="1"/><text x="30" y="40.0" fill="#6b7280" font-size="11" text-anchor="end">800</text>

<polyline fill="none" stroke="#8a5a5a" stroke-width="2.5" stroke-linejoin="round" points="36.0,145.1 42.0,145.1 48.1,145.1 54.1,145.1 60.2,145.1 66.2,145.1 72.2,145.1 78.3,145.1 84.3,145.1 90.3,145.1 96.4,145.1 102.4,145.1 108.5,145.1 114.5,145.1 120.5,145.1 126.6,145.1 132.6,145.1 138.7,145.1 144.7,145.1 150.7,145.1 156.8,145.1 162.8,145.1 168.8,145.1 174.9,145.1 180.9,145.1 187.0,145.1 193.0,145.1 199.0,145.1 205.1,145.1 211.1,145.1 217.2,145.1 223.2,145.1 229.2,145.1 235.3,145.1 241.3,145.1 247.3,145.1 253.4,145.1 259.4,145.1 265.5,145.1 271.5,145.1 277.5,145.1 283.6,145.1 289.6,145.1 295.7,145.1 301.7,145.1 307.7,145.1 313.8,145.1 319.8,145.1 325.8,145.1 331.9,145.1 337.9,155.7 344.0,155.7 350.0,155.7 356.0,155.7 362.1,155.7 368.1,155.7 374.2,155.7 380.2,155.7 386.2,155.7 392.3,155.7 398.3,155.7 404.3,155.7 410.4,155.7 416.4,155.7 422.5,155.7 428.5,155.7 434.5,155.7 440.6,155.7 446.6,155.7 452.7,155.7 458.7,155.7 464.7,155.7 470.8,155.7 476.8,155.7 482.8,155.7 488.9,155.7 494.9,155.7 501.0,155.7 507.0,155.7 513.0,155.7 519.1,155.7 525.1,155.7 531.2,155.7 537.2,155.7 543.2,167.6 549.3,167.6 555.3,170.3 561.3,170.3 567.4,170.5 573.4,170.7 579.5,170.7 585.5,170.9 591.5,172.7 597.6,180.6 603.6,181.8 609.7,189.1 615.7,190.5 621.7,195.2 627.8,198.0 633.8,198.0 639.8,198.0 645.9,198.0 651.9,198.0 658.0,198.0 664.0,198.0"/><circle cx="36.0" cy="145.1" r="3" fill="#8a5a5a"/><circle cx="42.0" cy="145.1" r="3" fill="#8a5a5a"/><circle cx="48.1" cy="145.1" r="3" fill="#8a5a5a"/><circle cx="54.1" cy="145.1" r="3" fill="#8a5a5a"/><circle cx="60.2" cy="145.1" r="3" fill="#8a5a5a"/><circle cx="66.2" cy="145.1" r="3" fill="#8a5a5a"/><circle cx="72.2" cy="145.1" r="3" fill="#8a5a5a"/><circle cx="78.3" cy="145.1" r="3" fill="#8a5a5a"/><circle cx="84.3" cy="145.1" r="3" fill="#8a5a5a"/><circle cx="90.3" cy="145.1" r="3" fill="#8a5a5a"/><circle cx="96.4" cy="145.1" r="3" fill="#8a5a5a"/><circle cx="102.4" cy="145.1" r="3" fill="#8a5a5a"/><circle cx="108.5" cy="145.1" r="3" fill="#8a5a5a"/><circle cx="114.5" cy="145.1" r="3" fill="#8a5a5a"/><circle cx="120.5" cy="145.1" r="3" fill="#8a5a5a"/><circle cx="126.6" cy="145.1" r="3" fill="#8a5a5a"/><circle cx="132.6" cy="145.1" r="3" fill="#8a5a5a"/><circle cx="138.7" cy="145.1" r="3" fill="#8a5a5a"/><circle cx="144.7" cy="145.1" r="3" fill="#8a5a5a"/><circle cx="150.7" cy="145.1" r="3" fill="#8a5a5a"/><circle cx="156.8" cy="145.1" r="3" fill="#8a5a5a"/><circle cx="162.8" cy="145.1" r="3" fill="#8a5a5a"/><circle cx="168.8" cy="145.1" r="3" fill="#8a5a5a"/><circle cx="174.9" cy="145.1" r="3" fill="#8a5a5a"/><circle cx="180.9" cy="145.1" r="3" fill="#8a5a5a"/><circle cx="187.0" cy="145.1" r="3" fill="#8a5a5a"/><circle cx="193.0" cy="145.1" r="3" fill="#8a5a5a"/><circle cx="199.0" cy="145.1" r="3" fill="#8a5a5a"/><circle cx="205.1" cy="145.1" r="3" fill="#8a5a5a"/><circle cx="211.1" cy="145.1" r="3" fill="#8a5a5a"/><circle cx="217.2" cy="145.1" r="3" fill="#8a5a5a"/><circle cx="223.2" cy="145.1" r="3" fill="#8a5a5a"/><circle cx="229.2" cy="145.1" r="3" fill="#8a5a5a"/><circle cx="235.3" cy="145.1" r="3" fill="#8a5a5a"/><circle cx="241.3" cy="145.1" r="3" fill="#8a5a5a"/><circle cx="247.3" cy="145.1" r="3" fill="#8a5a5a"/><circle cx="253.4" cy="145.1" r="3" fill="#8a5a5a"/><circle cx="259.4" cy="145.1" r="3" fill="#8a5a5a"/><circle cx="265.5" cy="145.1" r="3" fill="#8a5a5a"/><circle cx="271.5" cy="145.1" r="3" fill="#8a5a5a"/><circle cx="277.5" cy="145.1" r="3" fill="#8a5a5a"/><circle cx="283.6" cy="145.1" r="3" fill="#8a5a5a"/><circle cx="289.6" cy="145.1" r="3" fill="#8a5a5a"/><circle cx="295.7" cy="145.1" r="3" fill="#8a5a5a"/><circle cx="301.7" cy="145.1" r="3" fill="#8a5a5a"/><circle cx="307.7" cy="145.1" r="3" fill="#8a5a5a"/><circle cx="313.8" cy="145.1" r="3" fill="#8a5a5a"/><circle cx="319.8" cy="145.1" r="3" fill="#8a5a5a"/><circle cx="325.8" cy="145.1" r="3" fill="#8a5a5a"/><circle cx="331.9" cy="145.1" r="3" fill="#8a5a5a"/><circle cx="337.9" cy="155.7" r="3" fill="#8a5a5a"/><circle cx="344.0" cy="155.7" r="3" fill="#8a5a5a"/><circle cx="350.0" cy="155.7" r="3" fill="#8a5a5a"/><circle cx="356.0" cy="155.7" r="3" fill="#8a5a5a"/><circle cx="362.1" cy="155.7" r="3" fill="#8a5a5a"/><circle cx="368.1" cy="155.7" r="3" fill="#8a5a5a"/><circle cx="374.2" cy="155.7" r="3" fill="#8a5a5a"/><circle cx="380.2" cy="155.7" r="3" fill="#8a5a5a"/><circle cx="386.2" cy="155.7" r="3" fill="#8a5a5a"/><circle cx="392.3" cy="155.7" r="3" fill="#8a5a5a"/><circle cx="398.3" cy="155.7" r="3" fill="#8a5a5a"/><circle cx="404.3" cy="155.7" r="3" fill="#8a5a5a"/><circle cx="410.4" cy="155.7" r="3" fill="#8a5a5a"/><circle cx="416.4" cy="155.7" r="3" fill="#8a5a5a"/><circle cx="422.5" cy="155.7" r="3" fill="#8a5a5a"/><circle cx="428.5" cy="155.7" r="3" fill="#8a5a5a"/><circle cx="434.5" cy="155.7" r="3" fill="#8a5a5a"/><circle cx="440.6" cy="155.7" r="3" fill="#8a5a5a"/><circle cx="446.6" cy="155.7" r="3" fill="#8a5a5a"/><circle cx="452.7" cy="155.7" r="3" fill="#8a5a5a"/><circle cx="458.7" cy="155.7" r="3" fill="#8a5a5a"/><circle cx="464.7" cy="155.7" r="3" fill="#8a5a5a"/><circle cx="470.8" cy="155.7" r="3" fill="#8a5a5a"/><circle cx="476.8" cy="155.7" r="3" fill="#8a5a5a"/><circle cx="482.8" cy="155.7" r="3" fill="#8a5a5a"/><circle cx="488.9" cy="155.7" r="3" fill="#8a5a5a"/><circle cx="494.9" cy="155.7" r="3" fill="#8a5a5a"/><circle cx="501.0" cy="155.7" r="3" fill="#8a5a5a"/><circle cx="507.0" cy="155.7" r="3" fill="#8a5a5a"/><circle cx="513.0" cy="155.7" r="3" fill="#8a5a5a"/><circle cx="519.1" cy="155.7" r="3" fill="#8a5a5a"/><circle cx="525.1" cy="155.7" r="3" fill="#8a5a5a"/><circle cx="531.2" cy="155.7" r="3" fill="#8a5a5a"/><circle cx="537.2" cy="155.7" r="3" fill="#8a5a5a"/><circle cx="543.2" cy="167.6" r="3" fill="#8a5a5a"/><circle cx="549.3" cy="167.6" r="3" fill="#8a5a5a"/><circle cx="555.3" cy="170.3" r="3" fill="#8a5a5a"/><circle cx="561.3" cy="170.3" r="3" fill="#8a5a5a"/><circle cx="567.4" cy="170.5" r="3" fill="#8a5a5a"/><circle cx="573.4" cy="170.7" r="3" fill="#8a5a5a"/><circle cx="579.5" cy="170.7" r="3" fill="#8a5a5a"/><circle cx="585.5" cy="170.9" r="3" fill="#8a5a5a"/><circle cx="591.5" cy="172.7" r="3" fill="#8a5a5a"/><circle cx="597.6" cy="180.6" r="3" fill="#8a5a5a"/><circle cx="603.6" cy="181.8" r="3" fill="#8a5a5a"/><circle cx="609.7" cy="189.1" r="3" fill="#8a5a5a"/><circle cx="615.7" cy="190.5" r="3" fill="#8a5a5a"/><circle cx="621.7" cy="195.2" r="3" fill="#8a5a5a"/><circle cx="627.8" cy="198.0" r="3" fill="#8a5a5a"/><circle cx="633.8" cy="198.0" r="3" fill="#8a5a5a"/><circle cx="639.8" cy="198.0" r="3" fill="#8a5a5a"/><circle cx="645.9" cy="198.0" r="3" fill="#8a5a5a"/><circle cx="651.9" cy="198.0" r="3" fill="#8a5a5a"/><circle cx="658.0" cy="198.0" r="3" fill="#8a5a5a"/><circle cx="664.0" cy="198.0" r="3" fill="#8a5a5a"/>
<polyline fill="none" stroke="#3fb950" stroke-width="2.5" stroke-linejoin="round" points="36.0,198.0 42.0,198.0 48.1,198.0 54.1,198.0 60.2,198.0 66.2,198.0 72.2,198.0 78.3,198.0 84.3,198.0 90.3,198.0 96.4,198.0 102.4,198.0 108.5,198.0 114.5,198.0 120.5,198.0 126.6,198.0 132.6,198.0 138.7,198.0 144.7,198.0 150.7,198.0 156.8,198.0 162.8,198.0 168.8,198.0 174.9,198.0 180.9,198.0 187.0,198.0 193.0,198.0 199.0,198.0 205.1,198.0 211.1,198.0 217.2,198.0 223.2,198.0 229.2,198.0 235.3,198.0 241.3,198.0 247.3,198.0 253.4,198.0 259.4,198.0 265.5,198.0 271.5,198.0 277.5,198.0 283.6,198.0 289.6,198.0 295.7,191.7 301.7,191.7 307.7,191.7 313.8,191.7 319.8,191.7 325.8,191.7 331.9,191.7 337.9,192.9 344.0,192.9 350.0,190.7 356.0,190.7 362.1,190.7 368.1,190.7 374.2,190.7 380.2,190.5 386.2,190.5 392.3,190.5 398.3,190.3 404.3,190.3 410.4,190.3 416.4,190.3 422.5,190.3 428.5,190.3 434.5,190.3 440.6,190.3 446.6,190.3 452.7,190.3 458.7,190.3 464.7,190.3 470.8,190.3 476.8,190.3 482.8,190.3 488.9,190.3 494.9,190.3 501.0,190.3 507.0,190.3 513.0,190.3 519.1,190.3 525.1,189.3 531.2,189.3 537.2,189.3 543.2,190.7 549.3,190.7 555.3,190.7 561.3,190.7 567.4,190.7 573.4,190.7 579.5,190.7 585.5,190.7 591.5,190.7 597.6,190.9 603.6,190.9 609.7,190.9 615.7,194.2 621.7,196.8 627.8,198.0 633.8,198.0 639.8,198.0 645.9,198.0 651.9,198.0 658.0,198.0 664.0,198.0"/><circle cx="36.0" cy="198.0" r="3" fill="#3fb950"/><circle cx="42.0" cy="198.0" r="3" fill="#3fb950"/><circle cx="48.1" cy="198.0" r="3" fill="#3fb950"/><circle cx="54.1" cy="198.0" r="3" fill="#3fb950"/><circle cx="60.2" cy="198.0" r="3" fill="#3fb950"/><circle cx="66.2" cy="198.0" r="3" fill="#3fb950"/><circle cx="72.2" cy="198.0" r="3" fill="#3fb950"/><circle cx="78.3" cy="198.0" r="3" fill="#3fb950"/><circle cx="84.3" cy="198.0" r="3" fill="#3fb950"/><circle cx="90.3" cy="198.0" r="3" fill="#3fb950"/><circle cx="96.4" cy="198.0" r="3" fill="#3fb950"/><circle cx="102.4" cy="198.0" r="3" fill="#3fb950"/><circle cx="108.5" cy="198.0" r="3" fill="#3fb950"/><circle cx="114.5" cy="198.0" r="3" fill="#3fb950"/><circle cx="120.5" cy="198.0" r="3" fill="#3fb950"/><circle cx="126.6" cy="198.0" r="3" fill="#3fb950"/><circle cx="132.6" cy="198.0" r="3" fill="#3fb950"/><circle cx="138.7" cy="198.0" r="3" fill="#3fb950"/><circle cx="144.7" cy="198.0" r="3" fill="#3fb950"/><circle cx="150.7" cy="198.0" r="3" fill="#3fb950"/><circle cx="156.8" cy="198.0" r="3" fill="#3fb950"/><circle cx="162.8" cy="198.0" r="3" fill="#3fb950"/><circle cx="168.8" cy="198.0" r="3" fill="#3fb950"/><circle cx="174.9" cy="198.0" r="3" fill="#3fb950"/><circle cx="180.9" cy="198.0" r="3" fill="#3fb950"/><circle cx="187.0" cy="198.0" r="3" fill="#3fb950"/><circle cx="193.0" cy="198.0" r="3" fill="#3fb950"/><circle cx="199.0" cy="198.0" r="3" fill="#3fb950"/><circle cx="205.1" cy="198.0" r="3" fill="#3fb950"/><circle cx="211.1" cy="198.0" r="3" fill="#3fb950"/><circle cx="217.2" cy="198.0" r="3" fill="#3fb950"/><circle cx="223.2" cy="198.0" r="3" fill="#3fb950"/><circle cx="229.2" cy="198.0" r="3" fill="#3fb950"/><circle cx="235.3" cy="198.0" r="3" fill="#3fb950"/><circle cx="241.3" cy="198.0" r="3" fill="#3fb950"/><circle cx="247.3" cy="198.0" r="3" fill="#3fb950"/><circle cx="253.4" cy="198.0" r="3" fill="#3fb950"/><circle cx="259.4" cy="198.0" r="3" fill="#3fb950"/><circle cx="265.5" cy="198.0" r="3" fill="#3fb950"/><circle cx="271.5" cy="198.0" r="3" fill="#3fb950"/><circle cx="277.5" cy="198.0" r="3" fill="#3fb950"/><circle cx="283.6" cy="198.0" r="3" fill="#3fb950"/><circle cx="289.6" cy="198.0" r="3" fill="#3fb950"/><circle cx="295.7" cy="191.7" r="3" fill="#3fb950"/><circle cx="301.7" cy="191.7" r="3" fill="#3fb950"/><circle cx="307.7" cy="191.7" r="3" fill="#3fb950"/><circle cx="313.8" cy="191.7" r="3" fill="#3fb950"/><circle cx="319.8" cy="191.7" r="3" fill="#3fb950"/><circle cx="325.8" cy="191.7" r="3" fill="#3fb950"/><circle cx="331.9" cy="191.7" r="3" fill="#3fb950"/><circle cx="337.9" cy="192.9" r="3" fill="#3fb950"/><circle cx="344.0" cy="192.9" r="3" fill="#3fb950"/><circle cx="350.0" cy="190.7" r="3" fill="#3fb950"/><circle cx="356.0" cy="190.7" r="3" fill="#3fb950"/><circle cx="362.1" cy="190.7" r="3" fill="#3fb950"/><circle cx="368.1" cy="190.7" r="3" fill="#3fb950"/><circle cx="374.2" cy="190.7" r="3" fill="#3fb950"/><circle cx="380.2" cy="190.5" r="3" fill="#3fb950"/><circle cx="386.2" cy="190.5" r="3" fill="#3fb950"/><circle cx="392.3" cy="190.5" r="3" fill="#3fb950"/><circle cx="398.3" cy="190.3" r="3" fill="#3fb950"/><circle cx="404.3" cy="190.3" r="3" fill="#3fb950"/><circle cx="410.4" cy="190.3" r="3" fill="#3fb950"/><circle cx="416.4" cy="190.3" r="3" fill="#3fb950"/><circle cx="422.5" cy="190.3" r="3" fill="#3fb950"/><circle cx="428.5" cy="190.3" r="3" fill="#3fb950"/><circle cx="434.5" cy="190.3" r="3" fill="#3fb950"/><circle cx="440.6" cy="190.3" r="3" fill="#3fb950"/><circle cx="446.6" cy="190.3" r="3" fill="#3fb950"/><circle cx="452.7" cy="190.3" r="3" fill="#3fb950"/><circle cx="458.7" cy="190.3" r="3" fill="#3fb950"/><circle cx="464.7" cy="190.3" r="3" fill="#3fb950"/><circle cx="470.8" cy="190.3" r="3" fill="#3fb950"/><circle cx="476.8" cy="190.3" r="3" fill="#3fb950"/><circle cx="482.8" cy="190.3" r="3" fill="#3fb950"/><circle cx="488.9" cy="190.3" r="3" fill="#3fb950"/><circle cx="494.9" cy="190.3" r="3" fill="#3fb950"/><circle cx="501.0" cy="190.3" r="3" fill="#3fb950"/><circle cx="507.0" cy="190.3" r="3" fill="#3fb950"/><circle cx="513.0" cy="190.3" r="3" fill="#3fb950"/><circle cx="519.1" cy="190.3" r="3" fill="#3fb950"/><circle cx="525.1" cy="189.3" r="3" fill="#3fb950"/><circle cx="531.2" cy="189.3" r="3" fill="#3fb950"/><circle cx="537.2" cy="189.3" r="3" fill="#3fb950"/><circle cx="543.2" cy="190.7" r="3" fill="#3fb950"/><circle cx="549.3" cy="190.7" r="3" fill="#3fb950"/><circle cx="555.3" cy="190.7" r="3" fill="#3fb950"/><circle cx="561.3" cy="190.7" r="3" fill="#3fb950"/><circle cx="567.4" cy="190.7" r="3" fill="#3fb950"/><circle cx="573.4" cy="190.7" r="3" fill="#3fb950"/><circle cx="579.5" cy="190.7" r="3" fill="#3fb950"/><circle cx="585.5" cy="190.7" r="3" fill="#3fb950"/><circle cx="591.5" cy="190.7" r="3" fill="#3fb950"/><circle cx="597.6" cy="190.9" r="3" fill="#3fb950"/><circle cx="603.6" cy="190.9" r="3" fill="#3fb950"/><circle cx="609.7" cy="190.9" r="3" fill="#3fb950"/><circle cx="615.7" cy="194.2" r="3" fill="#3fb950"/><circle cx="621.7" cy="196.8" r="3" fill="#3fb950"/><circle cx="627.8" cy="198.0" r="3" fill="#3fb950"/><circle cx="633.8" cy="198.0" r="3" fill="#3fb950"/><circle cx="639.8" cy="198.0" r="3" fill="#3fb950"/><circle cx="645.9" cy="198.0" r="3" fill="#3fb950"/><circle cx="651.9" cy="198.0" r="3" fill="#3fb950"/><circle cx="658.0" cy="198.0" r="3" fill="#3fb950"/><circle cx="664.0" cy="198.0" r="3" fill="#3fb950"/>
<polyline fill="none" stroke="#4aa3ff" stroke-width="2.5" stroke-linejoin="round" points="36.0,144.3 42.0,144.3 48.1,144.3 54.1,144.3 60.2,144.3 66.2,144.3 72.2,144.3 78.3,144.3 84.3,144.3 90.3,144.3 96.4,144.3 102.4,144.3 108.5,144.3 114.5,144.3 120.5,144.3 126.6,136.2 132.6,132.4 138.7,129.6 144.7,129.6 150.7,121.0 156.8,121.0 162.8,121.0 168.8,114.4 174.9,114.4 180.9,114.4 187.0,111.3 193.0,110.9 199.0,110.9 205.1,110.5 211.1,110.5 217.2,109.9 223.2,108.7 229.2,107.3 235.3,106.9 241.3,106.9 247.3,106.9 253.4,106.9 259.4,106.9 265.5,106.9 271.5,106.9 277.5,106.9 283.6,106.9 289.6,106.9 295.7,113.2 301.7,113.2 307.7,113.2 313.8,113.2 319.8,113.2 325.8,110.7 331.9,105.3 337.9,83.4 344.0,83.4 350.0,85.6 356.0,85.6 362.1,85.6 368.1,85.6 374.2,85.6 380.2,85.8 386.2,85.8 392.3,85.8 398.3,86.0 404.3,86.0 410.4,86.0 416.4,86.0 422.5,86.0 428.5,86.0 434.5,86.0 440.6,86.0 446.6,86.0 452.7,86.0 458.7,86.0 464.7,86.0 470.8,86.0 476.8,86.0 482.8,86.0 488.9,86.0 494.9,86.0 501.0,86.0 507.0,86.0 513.0,86.0 519.1,86.0 525.1,87.0 531.2,87.0 537.2,87.0 543.2,73.7 549.3,73.7 555.3,71.0 561.3,71.0 567.4,70.8 573.4,70.6 579.5,70.6 585.5,70.4 591.5,68.6 597.6,60.5 603.6,59.3 609.7,52.0 615.7,47.3 621.7,40.1 627.8,36.0 633.8,36.0 639.8,36.0 645.9,36.0 651.9,36.0 658.0,36.0 664.0,36.0"/><circle cx="36.0" cy="144.3" r="3" fill="#4aa3ff"/><circle cx="42.0" cy="144.3" r="3" fill="#4aa3ff"/><circle cx="48.1" cy="144.3" r="3" fill="#4aa3ff"/><circle cx="54.1" cy="144.3" r="3" fill="#4aa3ff"/><circle cx="60.2" cy="144.3" r="3" fill="#4aa3ff"/><circle cx="66.2" cy="144.3" r="3" fill="#4aa3ff"/><circle cx="72.2" cy="144.3" r="3" fill="#4aa3ff"/><circle cx="78.3" cy="144.3" r="3" fill="#4aa3ff"/><circle cx="84.3" cy="144.3" r="3" fill="#4aa3ff"/><circle cx="90.3" cy="144.3" r="3" fill="#4aa3ff"/><circle cx="96.4" cy="144.3" r="3" fill="#4aa3ff"/><circle cx="102.4" cy="144.3" r="3" fill="#4aa3ff"/><circle cx="108.5" cy="144.3" r="3" fill="#4aa3ff"/><circle cx="114.5" cy="144.3" r="3" fill="#4aa3ff"/><circle cx="120.5" cy="144.3" r="3" fill="#4aa3ff"/><circle cx="126.6" cy="136.2" r="3" fill="#4aa3ff"/><circle cx="132.6" cy="132.4" r="3" fill="#4aa3ff"/><circle cx="138.7" cy="129.6" r="3" fill="#4aa3ff"/><circle cx="144.7" cy="129.6" r="3" fill="#4aa3ff"/><circle cx="150.7" cy="121.0" r="3" fill="#4aa3ff"/><circle cx="156.8" cy="121.0" r="3" fill="#4aa3ff"/><circle cx="162.8" cy="121.0" r="3" fill="#4aa3ff"/><circle cx="168.8" cy="114.4" r="3" fill="#4aa3ff"/><circle cx="174.9" cy="114.4" r="3" fill="#4aa3ff"/><circle cx="180.9" cy="114.4" r="3" fill="#4aa3ff"/><circle cx="187.0" cy="111.3" r="3" fill="#4aa3ff"/><circle cx="193.0" cy="110.9" r="3" fill="#4aa3ff"/><circle cx="199.0" cy="110.9" r="3" fill="#4aa3ff"/><circle cx="205.1" cy="110.5" r="3" fill="#4aa3ff"/><circle cx="211.1" cy="110.5" r="3" fill="#4aa3ff"/><circle cx="217.2" cy="109.9" r="3" fill="#4aa3ff"/><circle cx="223.2" cy="108.7" r="3" fill="#4aa3ff"/><circle cx="229.2" cy="107.3" r="3" fill="#4aa3ff"/><circle cx="235.3" cy="106.9" r="3" fill="#4aa3ff"/><circle cx="241.3" cy="106.9" r="3" fill="#4aa3ff"/><circle cx="247.3" cy="106.9" r="3" fill="#4aa3ff"/><circle cx="253.4" cy="106.9" r="3" fill="#4aa3ff"/><circle cx="259.4" cy="106.9" r="3" fill="#4aa3ff"/><circle cx="265.5" cy="106.9" r="3" fill="#4aa3ff"/><circle cx="271.5" cy="106.9" r="3" fill="#4aa3ff"/><circle cx="277.5" cy="106.9" r="3" fill="#4aa3ff"/><circle cx="283.6" cy="106.9" r="3" fill="#4aa3ff"/><circle cx="289.6" cy="106.9" r="3" fill="#4aa3ff"/><circle cx="295.7" cy="113.2" r="3" fill="#4aa3ff"/><circle cx="301.7" cy="113.2" r="3" fill="#4aa3ff"/><circle cx="307.7" cy="113.2" r="3" fill="#4aa3ff"/><circle cx="313.8" cy="113.2" r="3" fill="#4aa3ff"/><circle cx="319.8" cy="113.2" r="3" fill="#4aa3ff"/><circle cx="325.8" cy="110.7" r="3" fill="#4aa3ff"/><circle cx="331.9" cy="105.3" r="3" fill="#4aa3ff"/><circle cx="337.9" cy="83.4" r="3" fill="#4aa3ff"/><circle cx="344.0" cy="83.4" r="3" fill="#4aa3ff"/><circle cx="350.0" cy="85.6" r="3" fill="#4aa3ff"/><circle cx="356.0" cy="85.6" r="3" fill="#4aa3ff"/><circle cx="362.1" cy="85.6" r="3" fill="#4aa3ff"/><circle cx="368.1" cy="85.6" r="3" fill="#4aa3ff"/><circle cx="374.2" cy="85.6" r="3" fill="#4aa3ff"/><circle cx="380.2" cy="85.8" r="3" fill="#4aa3ff"/><circle cx="386.2" cy="85.8" r="3" fill="#4aa3ff"/><circle cx="392.3" cy="85.8" r="3" fill="#4aa3ff"/><circle cx="398.3" cy="86.0" r="3" fill="#4aa3ff"/><circle cx="404.3" cy="86.0" r="3" fill="#4aa3ff"/><circle cx="410.4" cy="86.0" r="3" fill="#4aa3ff"/><circle cx="416.4" cy="86.0" r="3" fill="#4aa3ff"/><circle cx="422.5" cy="86.0" r="3" fill="#4aa3ff"/><circle cx="428.5" cy="86.0" r="3" fill="#4aa3ff"/><circle cx="434.5" cy="86.0" r="3" fill="#4aa3ff"/><circle cx="440.6" cy="86.0" r="3" fill="#4aa3ff"/><circle cx="446.6" cy="86.0" r="3" fill="#4aa3ff"/><circle cx="452.7" cy="86.0" r="3" fill="#4aa3ff"/><circle cx="458.7" cy="86.0" r="3" fill="#4aa3ff"/><circle cx="464.7" cy="86.0" r="3" fill="#4aa3ff"/><circle cx="470.8" cy="86.0" r="3" fill="#4aa3ff"/><circle cx="476.8" cy="86.0" r="3" fill="#4aa3ff"/><circle cx="482.8" cy="86.0" r="3" fill="#4aa3ff"/><circle cx="488.9" cy="86.0" r="3" fill="#4aa3ff"/><circle cx="494.9" cy="86.0" r="3" fill="#4aa3ff"/><circle cx="501.0" cy="86.0" r="3" fill="#4aa3ff"/><circle cx="507.0" cy="86.0" r="3" fill="#4aa3ff"/><circle cx="513.0" cy="86.0" r="3" fill="#4aa3ff"/><circle cx="519.1" cy="86.0" r="3" fill="#4aa3ff"/><circle cx="525.1" cy="87.0" r="3" fill="#4aa3ff"/><circle cx="531.2" cy="87.0" r="3" fill="#4aa3ff"/><circle cx="537.2" cy="87.0" r="3" fill="#4aa3ff"/><circle cx="543.2" cy="73.7" r="3" fill="#4aa3ff"/><circle cx="549.3" cy="73.7" r="3" fill="#4aa3ff"/><circle cx="555.3" cy="71.0" r="3" fill="#4aa3ff"/><circle cx="561.3" cy="71.0" r="3" fill="#4aa3ff"/><circle cx="567.4" cy="70.8" r="3" fill="#4aa3ff"/><circle cx="573.4" cy="70.6" r="3" fill="#4aa3ff"/><circle cx="579.5" cy="70.6" r="3" fill="#4aa3ff"/><circle cx="585.5" cy="70.4" r="3" fill="#4aa3ff"/><circle cx="591.5" cy="68.6" r="3" fill="#4aa3ff"/><circle cx="597.6" cy="60.5" r="3" fill="#4aa3ff"/><circle cx="603.6" cy="59.3" r="3" fill="#4aa3ff"/><circle cx="609.7" cy="52.0" r="3" fill="#4aa3ff"/><circle cx="615.7" cy="47.3" r="3" fill="#4aa3ff"/><circle cx="621.7" cy="40.1" r="3" fill="#4aa3ff"/><circle cx="627.8" cy="36.0" r="3" fill="#4aa3ff"/><circle cx="633.8" cy="36.0" r="3" fill="#4aa3ff"/><circle cx="639.8" cy="36.0" r="3" fill="#4aa3ff"/><circle cx="645.9" cy="36.0" r="3" fill="#4aa3ff"/><circle cx="651.9" cy="36.0" r="3" fill="#4aa3ff"/><circle cx="658.0" cy="36.0" r="3" fill="#4aa3ff"/><circle cx="664.0" cy="36.0" r="3" fill="#4aa3ff"/>
<text x="36" y="225" fill="#6b7280" font-size="11">2026-06-26</text>
<text x="664" y="225" fill="#6b7280" font-size="11" text-anchor="end">2026-07-08</text>
<text x="36" y="212" font-family="system-ui,sans-serif" font-size="11">
<tspan fill="#4aa3ff">&#9679; open FPs</tspan>  <tspan fill="#3fb950">&#9679; closed (Anthropic acting)</tspan>  <tspan fill="#8a5a5a">&#9679; harness withdrawn</tspan></text>
<text x="664" y="22" text-anchor="end" font-family="system-ui,sans-serif" font-size="12">
<tspan fill="#4aa3ff">open 800</tspan>  <tspan fill="#3fb950">closed 0</tspan>  <tspan fill="#8a5a5a">harness 0</tspan></text>
</svg>