<svg xmlns="http://www.w3.org/2000/svg" width="700" height="234" viewBox="0 0 700 234" role="img">
<rect width="700" height="234" rx="12" fill="#16181d"/>
<text x="36" y="22" fill="#e8eaed" font-family="system-ui,sans-serif" font-size="14" font-weight="700">Is Anthropic acting? cyber/aup false positives over time</text>
<line x1="36" y1="198.0" x2="664" y2="198.0" stroke="#2a2e37" stroke-width="1"/><text x="30" y="202.0" fill="#6b7280" font-size="11" text-anchor="end">0</text><line x1="36" y1="117.0" x2="664" y2="117.0" stroke="#2a2e37" stroke-width="1"/><text x="30" y="121.0" fill="#6b7280" font-size="11" text-anchor="end">400</text><line x1="36" y1="36.0" x2="664" y2="36.0" stroke="#2a2e37" stroke-width="1"/><text x="30" y="40.0" fill="#6b7280" font-size="11" text-anchor="end">800</text>

<polyline fill="none" stroke="#8a5a5a" stroke-width="2.5" stroke-linejoin="round" points="36.0,145.1 40.3,145.1 44.5,145.1 48.8,145.1 53.1,145.1 57.4,145.1 61.6,145.1 65.9,145.1 70.2,145.1 74.4,145.1 78.7,145.1 83.0,145.1 87.3,145.1 91.5,145.1 95.8,145.1 100.1,145.1 104.4,145.1 108.6,145.1 112.9,145.1 117.2,145.1 121.4,145.1 125.7,145.1 130.0,145.1 134.3,145.1 138.5,145.1 142.8,145.1 147.1,145.1 151.3,145.1 155.6,145.1 159.9,145.1 164.2,145.1 168.4,145.1 172.7,145.1 177.0,145.1 181.3,145.1 185.5,145.1 189.8,145.1 194.1,145.1 198.3,145.1 202.6,145.1 206.9,145.1 211.2,145.1 215.4,145.1 219.7,145.1 224.0,145.1 228.2,145.1 232.5,145.1 236.8,145.1 241.1,145.1 245.3,145.1 249.6,155.7 253.9,155.7 258.1,155.7 262.4,155.7 266.7,155.7 271.0,155.7 275.2,155.7 279.5,155.7 283.8,155.7 288.1,155.7 292.3,155.7 296.6,155.7 300.9,155.7 305.1,155.7 309.4,155.7 313.7,155.7 318.0,155.7 322.2,155.7 326.5,155.7 330.8,155.7 335.0,155.7 339.3,155.7 343.6,155.7 347.9,155.7 352.1,155.7 356.4,155.7 360.7,155.7 365.0,155.7 369.2,155.7 373.5,155.7 377.8,155.7 382.0,155.7 386.3,155.7 390.6,155.7 394.9,167.6 399.1,167.6 403.4,170.3 407.7,170.3 411.9,170.5 416.2,170.7 420.5,170.7 424.8,170.9 429.0,172.7 433.3,180.6 437.6,181.8 441.9,189.1 446.1,190.5 450.4,195.2 454.7,198.0 458.9,198.0 463.2,198.0 467.5,198.0 471.8,198.0 476.0,198.0 480.3,198.0 484.6,198.0 488.8,198.0 493.1,198.0 497.4,198.0 501.7,198.0 505.9,198.0 510.2,198.0 514.5,198.0 518.7,198.0 523.0,198.0 527.3,198.0 531.6,198.0 535.8,198.0 540.1,198.0 544.4,198.0 548.7,198.0 552.9,198.0 557.2,198.0 561.5,198.0 565.7,198.0 570.0,198.0 574.3,198.0 578.6,198.0 582.8,198.0 587.1,198.0 591.4,198.0 595.6,198.0 599.9,198.0 604.2,198.0 608.5,198.0 612.7,198.0 617.0,198.0 621.3,198.0 625.6,198.0 629.8,198.0 634.1,198.0 638.4,198.0 642.6,198.0 646.9,198.0 651.2,198.0 655.5,198.0 659.7,198.0 664.0,198.0"/><circle cx="36.0" cy="145.1" r="3" fill="#8a5a5a"/><circle cx="40.3" cy="145.1" r="3" fill="#8a5a5a"/><circle cx="44.5" cy="145.1" r="3" fill="#8a5a5a"/><circle cx="48.8" cy="145.1" r="3" fill="#8a5a5a"/><circle cx="53.1" cy="145.1" r="3" fill="#8a5a5a"/><circle cx="57.4" cy="145.1" r="3" fill="#8a5a5a"/><circle cx="61.6" cy="145.1" r="3" fill="#8a5a5a"/><circle cx="65.9" cy="145.1" r="3" fill="#8a5a5a"/><circle cx="70.2" cy="145.1" r="3" fill="#8a5a5a"/><circle cx="74.4" cy="145.1" r="3" fill="#8a5a5a"/><circle cx="78.7" cy="145.1" r="3" fill="#8a5a5a"/><circle cx="83.0" cy="145.1" r="3" fill="#8a5a5a"/><circle cx="87.3" cy="145.1" r="3" fill="#8a5a5a"/><circle cx="91.5" cy="145.1" r="3" fill="#8a5a5a"/><circle cx="95.8" cy="145.1" r="3" fill="#8a5a5a"/><circle cx="100.1" cy="145.1" r="3" fill="#8a5a5a"/><circle cx="104.4" cy="145.1" r="3" fill="#8a5a5a"/><circle cx="108.6" cy="145.1" r="3" fill="#8a5a5a"/><circle cx="112.9" cy="145.1" r="3" fill="#8a5a5a"/><circle cx="117.2" cy="145.1" r="3" fill="#8a5a5a"/><circle cx="121.4" cy="145.1" r="3" fill="#8a5a5a"/><circle cx="125.7" cy="145.1" r="3" fill="#8a5a5a"/><circle cx="130.0" cy="145.1" r="3" fill="#8a5a5a"/><circle cx="134.3" cy="145.1" r="3" fill="#8a5a5a"/><circle cx="138.5" cy="145.1" r="3" fill="#8a5a5a"/><circle cx="142.8" cy="145.1" r="3" fill="#8a5a5a"/><circle cx="147.1" cy="145.1" r="3" fill="#8a5a5a"/><circle cx="151.3" cy="145.1" r="3" fill="#8a5a5a"/><circle cx="155.6" cy="145.1" r="3" fill="#8a5a5a"/><circle cx="159.9" cy="145.1" r="3" fill="#8a5a5a"/><circle cx="164.2" cy="145.1" r="3" fill="#8a5a5a"/><circle cx="168.4" cy="145.1" r="3" fill="#8a5a5a"/><circle cx="172.7" cy="145.1" r="3" fill="#8a5a5a"/><circle cx="177.0" cy="145.1" r="3" fill="#8a5a5a"/><circle cx="181.3" cy="145.1" r="3" fill="#8a5a5a"/><circle cx="185.5" cy="145.1" r="3" fill="#8a5a5a"/><circle cx="189.8" cy="145.1" r="3" fill="#8a5a5a"/><circle cx="194.1" cy="145.1" r="3" fill="#8a5a5a"/><circle cx="198.3" cy="145.1" r="3" fill="#8a5a5a"/><circle cx="202.6" cy="145.1" r="3" fill="#8a5a5a"/><circle cx="206.9" cy="145.1" r="3" fill="#8a5a5a"/><circle cx="211.2" cy="145.1" r="3" fill="#8a5a5a"/><circle cx="215.4" cy="145.1" r="3" fill="#8a5a5a"/><circle cx="219.7" cy="145.1" r="3" fill="#8a5a5a"/><circle cx="224.0" cy="145.1" r="3" fill="#8a5a5a"/><circle cx="228.2" cy="145.1" r="3" fill="#8a5a5a"/><circle cx="232.5" cy="145.1" r="3" fill="#8a5a5a"/><circle cx="236.8" cy="145.1" r="3" fill="#8a5a5a"/><circle cx="241.1" cy="145.1" r="3" fill="#8a5a5a"/><circle cx="245.3" cy="145.1" r="3" fill="#8a5a5a"/><circle cx="249.6" cy="155.7" r="3" fill="#8a5a5a"/><circle cx="253.9" cy="155.7" r="3" fill="#8a5a5a"/><circle cx="258.1" cy="155.7" r="3" fill="#8a5a5a"/><circle cx="262.4" cy="155.7" r="3" fill="#8a5a5a"/><circle cx="266.7" cy="155.7" r="3" fill="#8a5a5a"/><circle cx="271.0" cy="155.7" r="3" fill="#8a5a5a"/><circle cx="275.2" cy="155.7" r="3" fill="#8a5a5a"/><circle cx="279.5" cy="155.7" r="3" fill="#8a5a5a"/><circle cx="283.8" cy="155.7" r="3" fill="#8a5a5a"/><circle cx="288.1" cy="155.7" r="3" fill="#8a5a5a"/><circle cx="292.3" cy="155.7" r="3" fill="#8a5a5a"/><circle cx="296.6" cy="155.7" r="3" fill="#8a5a5a"/><circle cx="300.9" cy="155.7" r="3" fill="#8a5a5a"/><circle cx="305.1" cy="155.7" r="3" fill="#8a5a5a"/><circle cx="309.4" cy="155.7" r="3" fill="#8a5a5a"/><circle cx="313.7" cy="155.7" r="3" fill="#8a5a5a"/><circle cx="318.0" cy="155.7" r="3" fill="#8a5a5a"/><circle cx="322.2" cy="155.7" r="3" fill="#8a5a5a"/><circle cx="326.5" cy="155.7" r="3" fill="#8a5a5a"/><circle cx="330.8" cy="155.7" r="3" fill="#8a5a5a"/><circle cx="335.0" cy="155.7" r="3" fill="#8a5a5a"/><circle cx="339.3" cy="155.7" r="3" fill="#8a5a5a"/><circle cx="343.6" cy="155.7" r="3" fill="#8a5a5a"/><circle cx="347.9" cy="155.7" r="3" fill="#8a5a5a"/><circle cx="352.1" cy="155.7" r="3" fill="#8a5a5a"/><circle cx="356.4" cy="155.7" r="3" fill="#8a5a5a"/><circle cx="360.7" cy="155.7" r="3" fill="#8a5a5a"/><circle cx="365.0" cy="155.7" r="3" fill="#8a5a5a"/><circle cx="369.2" cy="155.7" r="3" fill="#8a5a5a"/><circle cx="373.5" cy="155.7" r="3" fill="#8a5a5a"/><circle cx="377.8" cy="155.7" r="3" fill="#8a5a5a"/><circle cx="382.0" cy="155.7" r="3" fill="#8a5a5a"/><circle cx="386.3" cy="155.7" r="3" fill="#8a5a5a"/><circle cx="390.6" cy="155.7" r="3" fill="#8a5a5a"/><circle cx="394.9" cy="167.6" r="3" fill="#8a5a5a"/><circle cx="399.1" cy="167.6" r="3" fill="#8a5a5a"/><circle cx="403.4" cy="170.3" r="3" fill="#8a5a5a"/><circle cx="407.7" cy="170.3" r="3" fill="#8a5a5a"/><circle cx="411.9" cy="170.5" r="3" fill="#8a5a5a"/><circle cx="416.2" cy="170.7" r="3" fill="#8a5a5a"/><circle cx="420.5" cy="170.7" r="3" fill="#8a5a5a"/><circle cx="424.8" cy="170.9" r="3" fill="#8a5a5a"/><circle cx="429.0" cy="172.7" r="3" fill="#8a5a5a"/><circle cx="433.3" cy="180.6" r="3" fill="#8a5a5a"/><circle cx="437.6" cy="181.8" r="3" fill="#8a5a5a"/><circle cx="441.9" cy="189.1" r="3" fill="#8a5a5a"/><circle cx="446.1" cy="190.5" r="3" fill="#8a5a5a"/><circle cx="450.4" cy="195.2" r="3" fill="#8a5a5a"/><circle cx="454.7" cy="198.0" r="3" fill="#8a5a5a"/><circle cx="458.9" cy="198.0" r="3" fill="#8a5a5a"/><circle cx="463.2" cy="198.0" r="3" fill="#8a5a5a"/><circle cx="467.5" cy="198.0" r="3" fill="#8a5a5a"/><circle cx="471.8" cy="198.0" r="3" fill="#8a5a5a"/><circle cx="476.0" cy="198.0" r="3" fill="#8a5a5a"/><circle cx="480.3" cy="198.0" r="3" fill="#8a5a5a"/><circle cx="484.6" cy="198.0" r="3" fill="#8a5a5a"/><circle cx="488.8" cy="198.0" r="3" fill="#8a5a5a"/><circle cx="493.1" cy="198.0" r="3" fill="#8a5a5a"/><circle cx="497.4" cy="198.0" r="3" fill="#8a5a5a"/><circle cx="501.7" cy="198.0" r="3" fill="#8a5a5a"/><circle cx="505.9" cy="198.0" r="3" fill="#8a5a5a"/><circle cx="510.2" cy="198.0" r="3" fill="#8a5a5a"/><circle cx="514.5" cy="198.0" r="3" fill="#8a5a5a"/><circle cx="518.7" cy="198.0" r="3" fill="#8a5a5a"/><circle cx="523.0" cy="198.0" r="3" fill="#8a5a5a"/><circle cx="527.3" cy="198.0" r="3" fill="#8a5a5a"/><circle cx="531.6" cy="198.0" r="3" fill="#8a5a5a"/><circle cx="535.8" cy="198.0" r="3" fill="#8a5a5a"/><circle cx="540.1" cy="198.0" r="3" fill="#8a5a5a"/><circle cx="544.4" cy="198.0" r="3" fill="#8a5a5a"/><circle cx="548.7" cy="198.0" r="3" fill="#8a5a5a"/><circle cx="552.9" cy="198.0" r="3" fill="#8a5a5a"/><circle cx="557.2" cy="198.0" r="3" fill="#8a5a5a"/><circle cx="561.5" cy="198.0" r="3" fill="#8a5a5a"/><circle cx="565.7" cy="198.0" r="3" fill="#8a5a5a"/><circle cx="570.0" cy="198.0" r="3" fill="#8a5a5a"/><circle cx="574.3" cy="198.0" r="3" fill="#8a5a5a"/><circle cx="578.6" cy="198.0" r="3" fill="#8a5a5a"/><circle cx="582.8" cy="198.0" r="3" fill="#8a5a5a"/><circle cx="587.1" cy="198.0" r="3" fill="#8a5a5a"/><circle cx="591.4" cy="198.0" r="3" fill="#8a5a5a"/><circle cx="595.6" cy="198.0" r="3" fill="#8a5a5a"/><circle cx="599.9" cy="198.0" r="3" fill="#8a5a5a"/><circle cx="604.2" cy="198.0" r="3" fill="#8a5a5a"/><circle cx="608.5" cy="198.0" r="3" fill="#8a5a5a"/><circle cx="612.7" cy="198.0" r="3" fill="#8a5a5a"/><circle cx="617.0" cy="198.0" r="3" fill="#8a5a5a"/><circle cx="621.3" cy="198.0" r="3" fill="#8a5a5a"/><circle cx="625.6" cy="198.0" r="3" fill="#8a5a5a"/><circle cx="629.8" cy="198.0" r="3" fill="#8a5a5a"/><circle cx="634.1" cy="198.0" r="3" fill="#8a5a5a"/><circle cx="638.4" cy="198.0" r="3" fill="#8a5a5a"/><circle cx="642.6" cy="198.0" r="3" fill="#8a5a5a"/><circle cx="646.9" cy="198.0" r="3" fill="#8a5a5a"/><circle cx="651.2" cy="198.0" r="3" fill="#8a5a5a"/><circle cx="655.5" cy="198.0" r="3" fill="#8a5a5a"/><circle cx="659.7" cy="198.0" r="3" fill="#8a5a5a"/><circle cx="664.0" cy="198.0" r="3" fill="#8a5a5a"/>
<polyline fill="none" stroke="#3fb950" stroke-width="2.5" stroke-linejoin="round" points="36.0,198.0 40.3,198.0 44.5,198.0 48.8,198.0 53.1,198.0 57.4,198.0 61.6,198.0 65.9,198.0 70.2,198.0 74.4,198.0 78.7,198.0 83.0,198.0 87.3,198.0 91.5,198.0 95.8,198.0 100.1,198.0 104.4,198.0 108.6,198.0 112.9,198.0 117.2,198.0 121.4,198.0 125.7,198.0 130.0,198.0 134.3,198.0 138.5,198.0 142.8,198.0 147.1,198.0 151.3,198.0 155.6,198.0 159.9,198.0 164.2,198.0 168.4,198.0 172.7,198.0 177.0,198.0 181.3,198.0 185.5,198.0 189.8,198.0 194.1,198.0 198.3,198.0 202.6,198.0 206.9,198.0 211.2,198.0 215.4,198.0 219.7,191.7 224.0,191.7 228.2,191.7 232.5,191.7 236.8,191.7 241.1,191.7 245.3,191.7 249.6,192.9 253.9,192.9 258.1,190.7 262.4,190.7 266.7,190.7 271.0,190.7 275.2,190.7 279.5,190.5 283.8,190.5 288.1,190.5 292.3,190.3 296.6,190.3 300.9,190.3 305.1,190.3 309.4,190.3 313.7,190.3 318.0,190.3 322.2,190.3 326.5,190.3 330.8,190.3 335.0,190.3 339.3,190.3 343.6,190.3 347.9,190.3 352.1,190.3 356.4,190.3 360.7,190.3 365.0,190.3 369.2,190.3 373.5,190.3 377.8,190.3 382.0,189.3 386.3,189.3 390.6,189.3 394.9,190.7 399.1,190.7 403.4,190.7 407.7,190.7 411.9,190.7 416.2,190.7 420.5,190.7 424.8,190.7 429.0,190.7 433.3,190.9 437.6,190.9 441.9,190.9 446.1,194.2 450.4,196.8 454.7,198.0 458.9,198.0 463.2,198.0 467.5,198.0 471.8,198.0 476.0,198.0 480.3,198.0 484.6,198.0 488.8,198.0 493.1,198.0 497.4,198.0 501.7,198.0 505.9,198.0 510.2,198.0 514.5,198.0 518.7,198.0 523.0,198.0 527.3,198.0 531.6,198.0 535.8,198.0 540.1,198.0 544.4,198.0 548.7,198.0 552.9,198.0 557.2,198.0 561.5,198.0 565.7,198.0 570.0,198.0 574.3,198.0 578.6,198.0 582.8,198.0 587.1,198.0 591.4,198.0 595.6,198.0 599.9,198.0 604.2,198.0 608.5,198.0 612.7,198.0 617.0,198.0 621.3,198.0 625.6,198.0 629.8,198.0 634.1,198.0 638.4,198.0 642.6,198.0 646.9,198.0 651.2,198.0 655.5,198.0 659.7,198.0 664.0,198.0"/><circle cx="36.0" cy="198.0" r="3" fill="#3fb950"/><circle cx="40.3" cy="198.0" r="3" fill="#3fb950"/><circle cx="44.5" cy="198.0" r="3" fill="#3fb950"/><circle cx="48.8" cy="198.0" r="3" fill="#3fb950"/><circle cx="53.1" cy="198.0" r="3" fill="#3fb950"/><circle cx="57.4" cy="198.0" r="3" fill="#3fb950"/><circle cx="61.6" cy="198.0" r="3" fill="#3fb950"/><circle cx="65.9" cy="198.0" r="3" fill="#3fb950"/><circle cx="70.2" cy="198.0" r="3" fill="#3fb950"/><circle cx="74.4" cy="198.0" r="3" fill="#3fb950"/><circle cx="78.7" cy="198.0" r="3" fill="#3fb950"/><circle cx="83.0" cy="198.0" r="3" fill="#3fb950"/><circle cx="87.3" cy="198.0" r="3" fill="#3fb950"/><circle cx="91.5" cy="198.0" r="3" fill="#3fb950"/><circle cx="95.8" cy="198.0" r="3" fill="#3fb950"/><circle cx="100.1" cy="198.0" r="3" fill="#3fb950"/><circle cx="104.4" cy="198.0" r="3" fill="#3fb950"/><circle cx="108.6" cy="198.0" r="3" fill="#3fb950"/><circle cx="112.9" cy="198.0" r="3" fill="#3fb950"/><circle cx="117.2" cy="198.0" r="3" fill="#3fb950"/><circle cx="121.4" cy="198.0" r="3" fill="#3fb950"/><circle cx="125.7" cy="198.0" r="3" fill="#3fb950"/><circle cx="130.0" cy="198.0" r="3" fill="#3fb950"/><circle cx="134.3" cy="198.0" r="3" fill="#3fb950"/><circle cx="138.5" cy="198.0" r="3" fill="#3fb950"/><circle cx="142.8" cy="198.0" r="3" fill="#3fb950"/><circle cx="147.1" cy="198.0" r="3" fill="#3fb950"/><circle cx="151.3" cy="198.0" r="3" fill="#3fb950"/><circle cx="155.6" cy="198.0" r="3" fill="#3fb950"/><circle cx="159.9" cy="198.0" r="3" fill="#3fb950"/><circle cx="164.2" cy="198.0" r="3" fill="#3fb950"/><circle cx="168.4" cy="198.0" r="3" fill="#3fb950"/><circle cx="172.7" cy="198.0" r="3" fill="#3fb950"/><circle cx="177.0" cy="198.0" r="3" fill="#3fb950"/><circle cx="181.3" cy="198.0" r="3" fill="#3fb950"/><circle cx="185.5" cy="198.0" r="3" fill="#3fb950"/><circle cx="189.8" cy="198.0" r="3" fill="#3fb950"/><circle cx="194.1" cy="198.0" r="3" fill="#3fb950"/><circle cx="198.3" cy="198.0" r="3" fill="#3fb950"/><circle cx="202.6" cy="198.0" r="3" fill="#3fb950"/><circle cx="206.9" cy="198.0" r="3" fill="#3fb950"/><circle cx="211.2" cy="198.0" r="3" fill="#3fb950"/><circle cx="215.4" cy="198.0" r="3" fill="#3fb950"/><circle cx="219.7" cy="191.7" r="3" fill="#3fb950"/><circle cx="224.0" cy="191.7" r="3" fill="#3fb950"/><circle cx="228.2" cy="191.7" r="3" fill="#3fb950"/><circle cx="232.5" cy="191.7" r="3" fill="#3fb950"/><circle cx="236.8" cy="191.7" r="3" fill="#3fb950"/><circle cx="241.1" cy="191.7" r="3" fill="#3fb950"/><circle cx="245.3" cy="191.7" r="3" fill="#3fb950"/><circle cx="249.6" cy="192.9" r="3" fill="#3fb950"/><circle cx="253.9" cy="192.9" r="3" fill="#3fb950"/><circle cx="258.1" cy="190.7" r="3" fill="#3fb950"/><circle cx="262.4" cy="190.7" r="3" fill="#3fb950"/><circle cx="266.7" cy="190.7" r="3" fill="#3fb950"/><circle cx="271.0" cy="190.7" r="3" fill="#3fb950"/><circle cx="275.2" cy="190.7" r="3" fill="#3fb950"/><circle cx="279.5" cy="190.5" r="3" fill="#3fb950"/><circle cx="283.8" cy="190.5" r="3" fill="#3fb950"/><circle cx="288.1" cy="190.5" r="3" fill="#3fb950"/><circle cx="292.3" cy="190.3" r="3" fill="#3fb950"/><circle cx="296.6" cy="190.3" r="3" fill="#3fb950"/><circle cx="300.9" cy="190.3" r="3" fill="#3fb950"/><circle cx="305.1" cy="190.3" r="3" fill="#3fb950"/><circle cx="309.4" cy="190.3" r="3" fill="#3fb950"/><circle cx="313.7" cy="190.3" r="3" fill="#3fb950"/><circle cx="318.0" cy="190.3" r="3" fill="#3fb950"/><circle cx="322.2" cy="190.3" r="3" fill="#3fb950"/><circle cx="326.5" cy="190.3" r="3" fill="#3fb950"/><circle cx="330.8" cy="190.3" r="3" fill="#3fb950"/><circle cx="335.0" cy="190.3" r="3" fill="#3fb950"/><circle cx="339.3" cy="190.3" r="3" fill="#3fb950"/><circle cx="343.6" cy="190.3" r="3" fill="#3fb950"/><circle cx="347.9" cy="190.3" r="3" fill="#3fb950"/><circle cx="352.1" cy="190.3" r="3" fill="#3fb950"/><circle cx="356.4" cy="190.3" r="3" fill="#3fb950"/><circle cx="360.7" cy="190.3" r="3" fill="#3fb950"/><circle cx="365.0" cy="190.3" r="3" fill="#3fb950"/><circle cx="369.2" cy="190.3" r="3" fill="#3fb950"/><circle cx="373.5" cy="190.3" r="3" fill="#3fb950"/><circle cx="377.8" cy="190.3" r="3" fill="#3fb950"/><circle cx="382.0" cy="189.3" r="3" fill="#3fb950"/><circle cx="386.3" cy="189.3" r="3" fill="#3fb950"/><circle cx="390.6" cy="189.3" r="3" fill="#3fb950"/><circle cx="394.9" cy="190.7" r="3" fill="#3fb950"/><circle cx="399.1" cy="190.7" r="3" fill="#3fb950"/><circle cx="403.4" cy="190.7" r="3" fill="#3fb950"/><circle cx="407.7" cy="190.7" r="3" fill="#3fb950"/><circle cx="411.9" cy="190.7" r="3" fill="#3fb950"/><circle cx="416.2" cy="190.7" r="3" fill="#3fb950"/><circle cx="420.5" cy="190.7" r="3" fill="#3fb950"/><circle cx="424.8" cy="190.7" r="3" fill="#3fb950"/><circle cx="429.0" cy="190.7" r="3" fill="#3fb950"/><circle cx="433.3" cy="190.9" r="3" fill="#3fb950"/><circle cx="437.6" cy="190.9" r="3" fill="#3fb950"/><circle cx="441.9" cy="190.9" r="3" fill="#3fb950"/><circle cx="446.1" cy="194.2" r="3" fill="#3fb950"/><circle cx="450.4" cy="196.8" r="3" fill="#3fb950"/><circle cx="454.7" cy="198.0" r="3" fill="#3fb950"/><circle cx="458.9" cy="198.0" r="3" fill="#3fb950"/><circle cx="463.2" cy="198.0" r="3" fill="#3fb950"/><circle cx="467.5" cy="198.0" r="3" fill="#3fb950"/><circle cx="471.8" cy="198.0" r="3" fill="#3fb950"/><circle cx="476.0" cy="198.0" r="3" fill="#3fb950"/><circle cx="480.3" cy="198.0" r="3" fill="#3fb950"/><circle cx="484.6" cy="198.0" r="3" fill="#3fb950"/><circle cx="488.8" cy="198.0" r="3" fill="#3fb950"/><circle cx="493.1" cy="198.0" r="3" fill="#3fb950"/><circle cx="497.4" cy="198.0" r="3" fill="#3fb950"/><circle cx="501.7" cy="198.0" r="3" fill="#3fb950"/><circle cx="505.9" cy="198.0" r="3" fill="#3fb950"/><circle cx="510.2" cy="198.0" r="3" fill="#3fb950"/><circle cx="514.5" cy="198.0" r="3" fill="#3fb950"/><circle cx="518.7" cy="198.0" r="3" fill="#3fb950"/><circle cx="523.0" cy="198.0" r="3" fill="#3fb950"/><circle cx="527.3" cy="198.0" r="3" fill="#3fb950"/><circle cx="531.6" cy="198.0" r="3" fill="#3fb950"/><circle cx="535.8" cy="198.0" r="3" fill="#3fb950"/><circle cx="540.1" cy="198.0" r="3" fill="#3fb950"/><circle cx="544.4" cy="198.0" r="3" fill="#3fb950"/><circle cx="548.7" cy="198.0" r="3" fill="#3fb950"/><circle cx="552.9" cy="198.0" r="3" fill="#3fb950"/><circle cx="557.2" cy="198.0" r="3" fill="#3fb950"/><circle cx="561.5" cy="198.0" r="3" fill="#3fb950"/><circle cx="565.7" cy="198.0" r="3" fill="#3fb950"/><circle cx="570.0" cy="198.0" r="3" fill="#3fb950"/><circle cx="574.3" cy="198.0" r="3" fill="#3fb950"/><circle cx="578.6" cy="198.0" r="3" fill="#3fb950"/><circle cx="582.8" cy="198.0" r="3" fill="#3fb950"/><circle cx="587.1" cy="198.0" r="3" fill="#3fb950"/><circle cx="591.4" cy="198.0" r="3" fill="#3fb950"/><circle cx="595.6" cy="198.0" r="3" fill="#3fb950"/><circle cx="599.9" cy="198.0" r="3" fill="#3fb950"/><circle cx="604.2" cy="198.0" r="3" fill="#3fb950"/><circle cx="608.5" cy="198.0" r="3" fill="#3fb950"/><circle cx="612.7" cy="198.0" r="3" fill="#3fb950"/><circle cx="617.0" cy="198.0" r="3" fill="#3fb950"/><circle cx="621.3" cy="198.0" r="3" fill="#3fb950"/><circle cx="625.6" cy="198.0" r="3" fill="#3fb950"/><circle cx="629.8" cy="198.0" r="3" fill="#3fb950"/><circle cx="634.1" cy="198.0" r="3" fill="#3fb950"/><circle cx="638.4" cy="198.0" r="3" fill="#3fb950"/><circle cx="642.6" cy="198.0" r="3" fill="#3fb950"/><circle cx="646.9" cy="198.0" r="3" fill="#3fb950"/><circle cx="651.2" cy="198.0" r="3" fill="#3fb950"/><circle cx="655.5" cy="198.0" r="3" fill="#3fb950"/><circle cx="659.7" cy="198.0" r="3" fill="#3fb950"/><circle cx="664.0" cy="198.0" r="3" fill="#3fb950"/>
<polyline fill="none" stroke="#4aa3ff" stroke-width="2.5" stroke-linejoin="round" points="36.0,144.3 40.3,144.3 44.5,144.3 48.8,144.3 53.1,144.3 57.4,144.3 61.6,144.3 65.9,144.3 70.2,144.3 74.4,144.3 78.7,144.3 83.0,144.3 87.3,144.3 91.5,144.3 95.8,144.3 100.1,136.2 104.4,132.4 108.6,129.6 112.9,129.6 117.2,121.0 121.4,121.0 125.7,121.0 130.0,114.4 134.3,114.4 138.5,114.4 142.8,111.3 147.1,110.9 151.3,110.9 155.6,110.5 159.9,110.5 164.2,109.9 168.4,108.7 172.7,107.3 177.0,106.9 181.3,106.9 185.5,106.9 189.8,106.9 194.1,106.9 198.3,106.9 202.6,106.9 206.9,106.9 211.2,106.9 215.4,106.9 219.7,113.2 224.0,113.2 228.2,113.2 232.5,113.2 236.8,113.2 241.1,110.7 245.3,105.3 249.6,83.4 253.9,83.4 258.1,85.6 262.4,85.6 266.7,85.6 271.0,85.6 275.2,85.6 279.5,85.8 283.8,85.8 288.1,85.8 292.3,86.0 296.6,86.0 300.9,86.0 305.1,86.0 309.4,86.0 313.7,86.0 318.0,86.0 322.2,86.0 326.5,86.0 330.8,86.0 335.0,86.0 339.3,86.0 343.6,86.0 347.9,86.0 352.1,86.0 356.4,86.0 360.7,86.0 365.0,86.0 369.2,86.0 373.5,86.0 377.8,86.0 382.0,87.0 386.3,87.0 390.6,87.0 394.9,73.7 399.1,73.7 403.4,71.0 407.7,71.0 411.9,70.8 416.2,70.6 420.5,70.6 424.8,70.4 429.0,68.6 433.3,60.5 437.6,59.3 441.9,52.0 446.1,47.3 450.4,40.1 454.7,36.0 458.9,36.0 463.2,36.0 467.5,36.0 471.8,36.0 476.0,36.0 480.3,36.0 484.6,36.0 488.8,36.0 493.1,36.0 497.4,36.0 501.7,36.0 505.9,36.0 510.2,36.0 514.5,36.0 518.7,36.0 523.0,36.0 527.3,36.0 531.6,36.0 535.8,36.0 540.1,36.0 544.4,36.0 548.7,36.0 552.9,36.0 557.2,36.0 561.5,36.0 565.7,36.0 570.0,36.0 574.3,36.0 578.6,36.0 582.8,36.0 587.1,36.0 591.4,36.0 595.6,36.0 599.9,36.0 604.2,36.0 608.5,36.0 612.7,36.0 617.0,36.0 621.3,36.0 625.6,36.0 629.8,36.0 634.1,36.0 638.4,36.0 642.6,36.0 646.9,36.0 651.2,36.0 655.5,36.0 659.7,36.0 664.0,36.0"/><circle cx="36.0" cy="144.3" r="3" fill="#4aa3ff"/><circle cx="40.3" cy="144.3" r="3" fill="#4aa3ff"/><circle cx="44.5" cy="144.3" r="3" fill="#4aa3ff"/><circle cx="48.8" cy="144.3" r="3" fill="#4aa3ff"/><circle cx="53.1" cy="144.3" r="3" fill="#4aa3ff"/><circle cx="57.4" cy="144.3" r="3" fill="#4aa3ff"/><circle cx="61.6" cy="144.3" r="3" fill="#4aa3ff"/><circle cx="65.9" cy="144.3" r="3" fill="#4aa3ff"/><circle cx="70.2" cy="144.3" r="3" fill="#4aa3ff"/><circle cx="74.4" cy="144.3" r="3" fill="#4aa3ff"/><circle cx="78.7" cy="144.3" r="3" fill="#4aa3ff"/><circle cx="83.0" cy="144.3" r="3" fill="#4aa3ff"/><circle cx="87.3" cy="144.3" r="3" fill="#4aa3ff"/><circle cx="91.5" cy="144.3" r="3" fill="#4aa3ff"/><circle cx="95.8" cy="144.3" r="3" fill="#4aa3ff"/><circle cx="100.1" cy="136.2" r="3" fill="#4aa3ff"/><circle cx="104.4" cy="132.4" r="3" fill="#4aa3ff"/><circle cx="108.6" cy="129.6" r="3" fill="#4aa3ff"/><circle cx="112.9" cy="129.6" r="3" fill="#4aa3ff"/><circle cx="117.2" cy="121.0" r="3" fill="#4aa3ff"/><circle cx="121.4" cy="121.0" r="3" fill="#4aa3ff"/><circle cx="125.7" cy="121.0" r="3" fill="#4aa3ff"/><circle cx="130.0" cy="114.4" r="3" fill="#4aa3ff"/><circle cx="134.3" cy="114.4" r="3" fill="#4aa3ff"/><circle cx="138.5" cy="114.4" r="3" fill="#4aa3ff"/><circle cx="142.8" cy="111.3" r="3" fill="#4aa3ff"/><circle cx="147.1" cy="110.9" r="3" fill="#4aa3ff"/><circle cx="151.3" cy="110.9" r="3" fill="#4aa3ff"/><circle cx="155.6" cy="110.5" r="3" fill="#4aa3ff"/><circle cx="159.9" cy="110.5" r="3" fill="#4aa3ff"/><circle cx="164.2" cy="109.9" r="3" fill="#4aa3ff"/><circle cx="168.4" cy="108.7" r="3" fill="#4aa3ff"/><circle cx="172.7" cy="107.3" r="3" fill="#4aa3ff"/><circle cx="177.0" cy="106.9" r="3" fill="#4aa3ff"/><circle cx="181.3" cy="106.9" r="3" fill="#4aa3ff"/><circle cx="185.5" cy="106.9" r="3" fill="#4aa3ff"/><circle cx="189.8" cy="106.9" r="3" fill="#4aa3ff"/><circle cx="194.1" cy="106.9" r="3" fill="#4aa3ff"/><circle cx="198.3" cy="106.9" r="3" fill="#4aa3ff"/><circle cx="202.6" cy="106.9" r="3" fill="#4aa3ff"/><circle cx="206.9" cy="106.9" r="3" fill="#4aa3ff"/><circle cx="211.2" cy="106.9" r="3" fill="#4aa3ff"/><circle cx="215.4" cy="106.9" r="3" fill="#4aa3ff"/><circle cx="219.7" cy="113.2" r="3" fill="#4aa3ff"/><circle cx="224.0" cy="113.2" r="3" fill="#4aa3ff"/><circle cx="228.2" cy="113.2" r="3" fill="#4aa3ff"/><circle cx="232.5" cy="113.2" r="3" fill="#4aa3ff"/><circle cx="236.8" cy="113.2" r="3" fill="#4aa3ff"/><circle cx="241.1" cy="110.7" r="3" fill="#4aa3ff"/><circle cx="245.3" cy="105.3" r="3" fill="#4aa3ff"/><circle cx="249.6" cy="83.4" r="3" fill="#4aa3ff"/><circle cx="253.9" cy="83.4" r="3" fill="#4aa3ff"/><circle cx="258.1" cy="85.6" r="3" fill="#4aa3ff"/><circle cx="262.4" cy="85.6" r="3" fill="#4aa3ff"/><circle cx="266.7" cy="85.6" r="3" fill="#4aa3ff"/><circle cx="271.0" cy="85.6" r="3" fill="#4aa3ff"/><circle cx="275.2" cy="85.6" r="3" fill="#4aa3ff"/><circle cx="279.5" cy="85.8" r="3" fill="#4aa3ff"/><circle cx="283.8" cy="85.8" r="3" fill="#4aa3ff"/><circle cx="288.1" cy="85.8" r="3" fill="#4aa3ff"/><circle cx="292.3" cy="86.0" r="3" fill="#4aa3ff"/><circle cx="296.6" cy="86.0" r="3" fill="#4aa3ff"/><circle cx="300.9" cy="86.0" r="3" fill="#4aa3ff"/><circle cx="305.1" cy="86.0" r="3" fill="#4aa3ff"/><circle cx="309.4" cy="86.0" r="3" fill="#4aa3ff"/><circle cx="313.7" cy="86.0" r="3" fill="#4aa3ff"/><circle cx="318.0" cy="86.0" r="3" fill="#4aa3ff"/><circle cx="322.2" cy="86.0" r="3" fill="#4aa3ff"/><circle cx="326.5" cy="86.0" r="3" fill="#4aa3ff"/><circle cx="330.8" cy="86.0" r="3" fill="#4aa3ff"/><circle cx="335.0" cy="86.0" r="3" fill="#4aa3ff"/><circle cx="339.3" cy="86.0" r="3" fill="#4aa3ff"/><circle cx="343.6" cy="86.0" r="3" fill="#4aa3ff"/><circle cx="347.9" cy="86.0" r="3" fill="#4aa3ff"/><circle cx="352.1" cy="86.0" r="3" fill="#4aa3ff"/><circle cx="356.4" cy="86.0" r="3" fill="#4aa3ff"/><circle cx="360.7" cy="86.0" r="3" fill="#4aa3ff"/><circle cx="365.0" cy="86.0" r="3" fill="#4aa3ff"/><circle cx="369.2" cy="86.0" r="3" fill="#4aa3ff"/><circle cx="373.5" cy="86.0" r="3" fill="#4aa3ff"/><circle cx="377.8" cy="86.0" r="3" fill="#4aa3ff"/><circle cx="382.0" cy="87.0" r="3" fill="#4aa3ff"/><circle cx="386.3" cy="87.0" r="3" fill="#4aa3ff"/><circle cx="390.6" cy="87.0" r="3" fill="#4aa3ff"/><circle cx="394.9" cy="73.7" r="3" fill="#4aa3ff"/><circle cx="399.1" cy="73.7" r="3" fill="#4aa3ff"/><circle cx="403.4" cy="71.0" r="3" fill="#4aa3ff"/><circle cx="407.7" cy="71.0" r="3" fill="#4aa3ff"/><circle cx="411.9" cy="70.8" r="3" fill="#4aa3ff"/><circle cx="416.2" cy="70.6" r="3" fill="#4aa3ff"/><circle cx="420.5" cy="70.6" r="3" fill="#4aa3ff"/><circle cx="424.8" cy="70.4" r="3" fill="#4aa3ff"/><circle cx="429.0" cy="68.6" r="3" fill="#4aa3ff"/><circle cx="433.3" cy="60.5" r="3" fill="#4aa3ff"/><circle cx="437.6" cy="59.3" r="3" fill="#4aa3ff"/><circle cx="441.9" cy="52.0" r="3" fill="#4aa3ff"/><circle cx="446.1" cy="47.3" r="3" fill="#4aa3ff"/><circle cx="450.4" cy="40.1" r="3" fill="#4aa3ff"/><circle cx="454.7" cy="36.0" r="3" fill="#4aa3ff"/><circle cx="458.9" cy="36.0" r="3" fill="#4aa3ff"/><circle cx="463.2" cy="36.0" r="3" fill="#4aa3ff"/><circle cx="467.5" cy="36.0" r="3" fill="#4aa3ff"/><circle cx="471.8" cy="36.0" r="3" fill="#4aa3ff"/><circle cx="476.0" cy="36.0" r="3" fill="#4aa3ff"/><circle cx="480.3" cy="36.0" r="3" fill="#4aa3ff"/><circle cx="484.6" cy="36.0" r="3" fill="#4aa3ff"/><circle cx="488.8" cy="36.0" r="3" fill="#4aa3ff"/><circle cx="493.1" cy="36.0" r="3" fill="#4aa3ff"/><circle cx="497.4" cy="36.0" r="3" fill="#4aa3ff"/><circle cx="501.7" cy="36.0" r="3" fill="#4aa3ff"/><circle cx="505.9" cy="36.0" r="3" fill="#4aa3ff"/><circle cx="510.2" cy="36.0" r="3" fill="#4aa3ff"/><circle cx="514.5" cy="36.0" r="3" fill="#4aa3ff"/><circle cx="518.7" cy="36.0" r="3" fill="#4aa3ff"/><circle cx="523.0" cy="36.0" r="3" fill="#4aa3ff"/><circle cx="527.3" cy="36.0" r="3" fill="#4aa3ff"/><circle cx="531.6" cy="36.0" r="3" fill="#4aa3ff"/><circle cx="535.8" cy="36.0" r="3" fill="#4aa3ff"/><circle cx="540.1" cy="36.0" r="3" fill="#4aa3ff"/><circle cx="544.4" cy="36.0" r="3" fill="#4aa3ff"/><circle cx="548.7" cy="36.0" r="3" fill="#4aa3ff"/><circle cx="552.9" cy="36.0" r="3" fill="#4aa3ff"/><circle cx="557.2" cy="36.0" r="3" fill="#4aa3ff"/><circle cx="561.5" cy="36.0" r="3" fill="#4aa3ff"/><circle cx="565.7" cy="36.0" r="3" fill="#4aa3ff"/><circle cx="570.0" cy="36.0" r="3" fill="#4aa3ff"/><circle cx="574.3" cy="36.0" r="3" fill="#4aa3ff"/><circle cx="578.6" cy="36.0" r="3" fill="#4aa3ff"/><circle cx="582.8" cy="36.0" r="3" fill="#4aa3ff"/><circle cx="587.1" cy="36.0" r="3" fill="#4aa3ff"/><circle cx="591.4" cy="36.0" r="3" fill="#4aa3ff"/><circle cx="595.6" cy="36.0" r="3" fill="#4aa3ff"/><circle cx="599.9" cy="36.0" r="3" fill="#4aa3ff"/><circle cx="604.2" cy="36.0" r="3" fill="#4aa3ff"/><circle cx="608.5" cy="36.0" r="3" fill="#4aa3ff"/><circle cx="612.7" cy="36.0" r="3" fill="#4aa3ff"/><circle cx="617.0" cy="36.0" r="3" fill="#4aa3ff"/><circle cx="621.3" cy="36.0" r="3" fill="#4aa3ff"/><circle cx="625.6" cy="36.0" r="3" fill="#4aa3ff"/><circle cx="629.8" cy="36.0" r="3" fill="#4aa3ff"/><circle cx="634.1" cy="36.0" r="3" fill="#4aa3ff"/><circle cx="638.4" cy="36.0" r="3" fill="#4aa3ff"/><circle cx="642.6" cy="36.0" r="3" fill="#4aa3ff"/><circle cx="646.9" cy="36.0" r="3" fill="#4aa3ff"/><circle cx="651.2" cy="36.0" r="3" fill="#4aa3ff"/><circle cx="655.5" cy="36.0" r="3" fill="#4aa3ff"/><circle cx="659.7" cy="36.0" r="3" fill="#4aa3ff"/><circle cx="664.0" cy="36.0" r="3" fill="#4aa3ff"/>
<text x="36" y="225" fill="#6b7280" font-size="11">2026-06-26</text>
<text x="664" y="225" fill="#6b7280" font-size="11" text-anchor="end">2026-07-12</text>
<text x="36" y="212" font-family="system-ui,sans-serif" font-size="11">
<tspan fill="#4aa3ff">&#9679; open FPs</tspan>  <tspan fill="#3fb950">&#9679; closed (Anthropic acting)</tspan>  <tspan fill="#8a5a5a">&#9679; harness withdrawn</tspan></text>
<text x="664" y="22" text-anchor="end" font-family="system-ui,sans-serif" font-size="12">
<tspan fill="#4aa3ff">open 800</tspan>  <tspan fill="#3fb950">closed 0</tspan>  <tspan fill="#8a5a5a">harness 0</tspan></text>
</svg>