<svg xmlns="http://www.w3.org/2000/svg" width="700" height="234" viewBox="0 0 700 234" role="img">
<rect width="700" height="234" rx="12" fill="#16181d"/>
<text x="36" y="22" fill="#e8eaed" font-family="system-ui,sans-serif" font-size="14" font-weight="700">Is Anthropic acting? cyber/aup false positives over time</text>
<line x1="36" y1="198.0" x2="664" y2="198.0" stroke="#2a2e37" stroke-width="1"/><text x="30" y="202.0" fill="#6b7280" font-size="11" text-anchor="end">0</text><line x1="36" y1="117.0" x2="664" y2="117.0" stroke="#2a2e37" stroke-width="1"/><text x="30" y="121.0" fill="#6b7280" font-size="11" text-anchor="end">400</text><line x1="36" y1="36.0" x2="664" y2="36.0" stroke="#2a2e37" stroke-width="1"/><text x="30" y="40.0" fill="#6b7280" font-size="11" text-anchor="end">800</text>

<polyline fill="none" stroke="#8a5a5a" stroke-width="2.5" stroke-linejoin="round" points="36.0,145.1 41.4,145.1 46.7,145.1 52.1,145.1 57.5,145.1 62.8,145.1 68.2,145.1 73.6,145.1 78.9,145.1 84.3,145.1 89.7,145.1 95.0,145.1 100.4,145.1 105.8,145.1 111.1,145.1 116.5,145.1 121.9,145.1 127.2,145.1 132.6,145.1 138.0,145.1 143.4,145.1 148.7,145.1 154.1,145.1 159.5,145.1 164.8,145.1 170.2,145.1 175.6,145.1 180.9,145.1 186.3,145.1 191.7,145.1 197.0,145.1 202.4,145.1 207.8,145.1 213.1,145.1 218.5,145.1 223.9,145.1 229.2,145.1 234.6,145.1 240.0,145.1 245.3,145.1 250.7,145.1 256.1,145.1 261.4,145.1 266.8,145.1 272.2,145.1 277.5,145.1 282.9,145.1 288.3,145.1 293.6,145.1 299.0,145.1 304.4,155.7 309.7,155.7 315.1,155.7 320.5,155.7 325.8,155.7 331.2,155.7 336.6,155.7 341.9,155.7 347.3,155.7 352.7,155.7 358.1,155.7 363.4,155.7 368.8,155.7 374.2,155.7 379.5,155.7 384.9,155.7 390.3,155.7 395.6,155.7 401.0,155.7 406.4,155.7 411.7,155.7 417.1,155.7 422.5,155.7 427.8,155.7 433.2,155.7 438.6,155.7 443.9,155.7 449.3,155.7 454.7,155.7 460.0,155.7 465.4,155.7 470.8,155.7 476.1,155.7 481.5,155.7 486.9,167.6 492.2,167.6 497.6,170.3 503.0,170.3 508.3,170.5 513.7,170.7 519.1,170.7 524.4,170.9 529.8,172.7 535.2,180.6 540.5,181.8 545.9,189.1 551.3,190.5 556.6,195.2 562.0,198.0 567.4,198.0 572.8,198.0 578.1,198.0 583.5,198.0 588.9,198.0 594.2,198.0 599.6,198.0 605.0,198.0 610.3,198.0 615.7,198.0 621.1,198.0 626.4,198.0 631.8,198.0 637.2,198.0 642.5,198.0 647.9,198.0 653.3,198.0 658.6,198.0 664.0,198.0"/><circle cx="36.0" cy="145.1" r="3" fill="#8a5a5a"/><circle cx="41.4" cy="145.1" r="3" fill="#8a5a5a"/><circle cx="46.7" cy="145.1" r="3" fill="#8a5a5a"/><circle cx="52.1" cy="145.1" r="3" fill="#8a5a5a"/><circle cx="57.5" cy="145.1" r="3" fill="#8a5a5a"/><circle cx="62.8" cy="145.1" r="3" fill="#8a5a5a"/><circle cx="68.2" cy="145.1" r="3" fill="#8a5a5a"/><circle cx="73.6" cy="145.1" r="3" fill="#8a5a5a"/><circle cx="78.9" cy="145.1" r="3" fill="#8a5a5a"/><circle cx="84.3" cy="145.1" r="3" fill="#8a5a5a"/><circle cx="89.7" cy="145.1" r="3" fill="#8a5a5a"/><circle cx="95.0" cy="145.1" r="3" fill="#8a5a5a"/><circle cx="100.4" cy="145.1" r="3" fill="#8a5a5a"/><circle cx="105.8" cy="145.1" r="3" fill="#8a5a5a"/><circle cx="111.1" cy="145.1" r="3" fill="#8a5a5a"/><circle cx="116.5" cy="145.1" r="3" fill="#8a5a5a"/><circle cx="121.9" cy="145.1" r="3" fill="#8a5a5a"/><circle cx="127.2" cy="145.1" r="3" fill="#8a5a5a"/><circle cx="132.6" cy="145.1" r="3" fill="#8a5a5a"/><circle cx="138.0" cy="145.1" r="3" fill="#8a5a5a"/><circle cx="143.4" cy="145.1" r="3" fill="#8a5a5a"/><circle cx="148.7" cy="145.1" r="3" fill="#8a5a5a"/><circle cx="154.1" cy="145.1" r="3" fill="#8a5a5a"/><circle cx="159.5" cy="145.1" r="3" fill="#8a5a5a"/><circle cx="164.8" cy="145.1" r="3" fill="#8a5a5a"/><circle cx="170.2" cy="145.1" r="3" fill="#8a5a5a"/><circle cx="175.6" cy="145.1" r="3" fill="#8a5a5a"/><circle cx="180.9" cy="145.1" r="3" fill="#8a5a5a"/><circle cx="186.3" cy="145.1" r="3" fill="#8a5a5a"/><circle cx="191.7" cy="145.1" r="3" fill="#8a5a5a"/><circle cx="197.0" cy="145.1" r="3" fill="#8a5a5a"/><circle cx="202.4" cy="145.1" r="3" fill="#8a5a5a"/><circle cx="207.8" cy="145.1" r="3" fill="#8a5a5a"/><circle cx="213.1" cy="145.1" r="3" fill="#8a5a5a"/><circle cx="218.5" cy="145.1" r="3" fill="#8a5a5a"/><circle cx="223.9" cy="145.1" r="3" fill="#8a5a5a"/><circle cx="229.2" cy="145.1" r="3" fill="#8a5a5a"/><circle cx="234.6" cy="145.1" r="3" fill="#8a5a5a"/><circle cx="240.0" cy="145.1" r="3" fill="#8a5a5a"/><circle cx="245.3" cy="145.1" r="3" fill="#8a5a5a"/><circle cx="250.7" cy="145.1" r="3" fill="#8a5a5a"/><circle cx="256.1" cy="145.1" r="3" fill="#8a5a5a"/><circle cx="261.4" cy="145.1" r="3" fill="#8a5a5a"/><circle cx="266.8" cy="145.1" r="3" fill="#8a5a5a"/><circle cx="272.2" cy="145.1" r="3" fill="#8a5a5a"/><circle cx="277.5" cy="145.1" r="3" fill="#8a5a5a"/><circle cx="282.9" cy="145.1" r="3" fill="#8a5a5a"/><circle cx="288.3" cy="145.1" r="3" fill="#8a5a5a"/><circle cx="293.6" cy="145.1" r="3" fill="#8a5a5a"/><circle cx="299.0" cy="145.1" r="3" fill="#8a5a5a"/><circle cx="304.4" cy="155.7" r="3" fill="#8a5a5a"/><circle cx="309.7" cy="155.7" r="3" fill="#8a5a5a"/><circle cx="315.1" cy="155.7" r="3" fill="#8a5a5a"/><circle cx="320.5" cy="155.7" r="3" fill="#8a5a5a"/><circle cx="325.8" cy="155.7" r="3" fill="#8a5a5a"/><circle cx="331.2" cy="155.7" r="3" fill="#8a5a5a"/><circle cx="336.6" cy="155.7" r="3" fill="#8a5a5a"/><circle cx="341.9" cy="155.7" r="3" fill="#8a5a5a"/><circle cx="347.3" cy="155.7" r="3" fill="#8a5a5a"/><circle cx="352.7" cy="155.7" r="3" fill="#8a5a5a"/><circle cx="358.1" cy="155.7" r="3" fill="#8a5a5a"/><circle cx="363.4" cy="155.7" r="3" fill="#8a5a5a"/><circle cx="368.8" cy="155.7" r="3" fill="#8a5a5a"/><circle cx="374.2" cy="155.7" r="3" fill="#8a5a5a"/><circle cx="379.5" cy="155.7" r="3" fill="#8a5a5a"/><circle cx="384.9" cy="155.7" r="3" fill="#8a5a5a"/><circle cx="390.3" cy="155.7" r="3" fill="#8a5a5a"/><circle cx="395.6" cy="155.7" r="3" fill="#8a5a5a"/><circle cx="401.0" cy="155.7" r="3" fill="#8a5a5a"/><circle cx="406.4" cy="155.7" r="3" fill="#8a5a5a"/><circle cx="411.7" cy="155.7" r="3" fill="#8a5a5a"/><circle cx="417.1" cy="155.7" r="3" fill="#8a5a5a"/><circle cx="422.5" cy="155.7" r="3" fill="#8a5a5a"/><circle cx="427.8" cy="155.7" r="3" fill="#8a5a5a"/><circle cx="433.2" cy="155.7" r="3" fill="#8a5a5a"/><circle cx="438.6" cy="155.7" r="3" fill="#8a5a5a"/><circle cx="443.9" cy="155.7" r="3" fill="#8a5a5a"/><circle cx="449.3" cy="155.7" r="3" fill="#8a5a5a"/><circle cx="454.7" cy="155.7" r="3" fill="#8a5a5a"/><circle cx="460.0" cy="155.7" r="3" fill="#8a5a5a"/><circle cx="465.4" cy="155.7" r="3" fill="#8a5a5a"/><circle cx="470.8" cy="155.7" r="3" fill="#8a5a5a"/><circle cx="476.1" cy="155.7" r="3" fill="#8a5a5a"/><circle cx="481.5" cy="155.7" r="3" fill="#8a5a5a"/><circle cx="486.9" cy="167.6" r="3" fill="#8a5a5a"/><circle cx="492.2" cy="167.6" r="3" fill="#8a5a5a"/><circle cx="497.6" cy="170.3" r="3" fill="#8a5a5a"/><circle cx="503.0" cy="170.3" r="3" fill="#8a5a5a"/><circle cx="508.3" cy="170.5" r="3" fill="#8a5a5a"/><circle cx="513.7" cy="170.7" r="3" fill="#8a5a5a"/><circle cx="519.1" cy="170.7" r="3" fill="#8a5a5a"/><circle cx="524.4" cy="170.9" r="3" fill="#8a5a5a"/><circle cx="529.8" cy="172.7" r="3" fill="#8a5a5a"/><circle cx="535.2" cy="180.6" r="3" fill="#8a5a5a"/><circle cx="540.5" cy="181.8" r="3" fill="#8a5a5a"/><circle cx="545.9" cy="189.1" r="3" fill="#8a5a5a"/><circle cx="551.3" cy="190.5" r="3" fill="#8a5a5a"/><circle cx="556.6" cy="195.2" r="3" fill="#8a5a5a"/><circle cx="562.0" cy="198.0" r="3" fill="#8a5a5a"/><circle cx="567.4" cy="198.0" r="3" fill="#8a5a5a"/><circle cx="572.8" cy="198.0" r="3" fill="#8a5a5a"/><circle cx="578.1" cy="198.0" r="3" fill="#8a5a5a"/><circle cx="583.5" cy="198.0" r="3" fill="#8a5a5a"/><circle cx="588.9" cy="198.0" r="3" fill="#8a5a5a"/><circle cx="594.2" cy="198.0" r="3" fill="#8a5a5a"/><circle cx="599.6" cy="198.0" r="3" fill="#8a5a5a"/><circle cx="605.0" cy="198.0" r="3" fill="#8a5a5a"/><circle cx="610.3" cy="198.0" r="3" fill="#8a5a5a"/><circle cx="615.7" cy="198.0" r="3" fill="#8a5a5a"/><circle cx="621.1" cy="198.0" r="3" fill="#8a5a5a"/><circle cx="626.4" cy="198.0" r="3" fill="#8a5a5a"/><circle cx="631.8" cy="198.0" r="3" fill="#8a5a5a"/><circle cx="637.2" cy="198.0" r="3" fill="#8a5a5a"/><circle cx="642.5" cy="198.0" r="3" fill="#8a5a5a"/><circle cx="647.9" cy="198.0" r="3" fill="#8a5a5a"/><circle cx="653.3" cy="198.0" r="3" fill="#8a5a5a"/><circle cx="658.6" cy="198.0" r="3" fill="#8a5a5a"/><circle cx="664.0" cy="198.0" r="3" fill="#8a5a5a"/>
<polyline fill="none" stroke="#3fb950" stroke-width="2.5" stroke-linejoin="round" points="36.0,198.0 41.4,198.0 46.7,198.0 52.1,198.0 57.5,198.0 62.8,198.0 68.2,198.0 73.6,198.0 78.9,198.0 84.3,198.0 89.7,198.0 95.0,198.0 100.4,198.0 105.8,198.0 111.1,198.0 116.5,198.0 121.9,198.0 127.2,198.0 132.6,198.0 138.0,198.0 143.4,198.0 148.7,198.0 154.1,198.0 159.5,198.0 164.8,198.0 170.2,198.0 175.6,198.0 180.9,198.0 186.3,198.0 191.7,198.0 197.0,198.0 202.4,198.0 207.8,198.0 213.1,198.0 218.5,198.0 223.9,198.0 229.2,198.0 234.6,198.0 240.0,198.0 245.3,198.0 250.7,198.0 256.1,198.0 261.4,198.0 266.8,191.7 272.2,191.7 277.5,191.7 282.9,191.7 288.3,191.7 293.6,191.7 299.0,191.7 304.4,192.9 309.7,192.9 315.1,190.7 320.5,190.7 325.8,190.7 331.2,190.7 336.6,190.7 341.9,190.5 347.3,190.5 352.7,190.5 358.1,190.3 363.4,190.3 368.8,190.3 374.2,190.3 379.5,190.3 384.9,190.3 390.3,190.3 395.6,190.3 401.0,190.3 406.4,190.3 411.7,190.3 417.1,190.3 422.5,190.3 427.8,190.3 433.2,190.3 438.6,190.3 443.9,190.3 449.3,190.3 454.7,190.3 460.0,190.3 465.4,190.3 470.8,189.3 476.1,189.3 481.5,189.3 486.9,190.7 492.2,190.7 497.6,190.7 503.0,190.7 508.3,190.7 513.7,190.7 519.1,190.7 524.4,190.7 529.8,190.7 535.2,190.9 540.5,190.9 545.9,190.9 551.3,194.2 556.6,196.8 562.0,198.0 567.4,198.0 572.8,198.0 578.1,198.0 583.5,198.0 588.9,198.0 594.2,198.0 599.6,198.0 605.0,198.0 610.3,198.0 615.7,198.0 621.1,198.0 626.4,198.0 631.8,198.0 637.2,198.0 642.5,198.0 647.9,198.0 653.3,198.0 658.6,198.0 664.0,198.0"/><circle cx="36.0" cy="198.0" r="3" fill="#3fb950"/><circle cx="41.4" cy="198.0" r="3" fill="#3fb950"/><circle cx="46.7" cy="198.0" r="3" fill="#3fb950"/><circle cx="52.1" cy="198.0" r="3" fill="#3fb950"/><circle cx="57.5" cy="198.0" r="3" fill="#3fb950"/><circle cx="62.8" cy="198.0" r="3" fill="#3fb950"/><circle cx="68.2" cy="198.0" r="3" fill="#3fb950"/><circle cx="73.6" cy="198.0" r="3" fill="#3fb950"/><circle cx="78.9" cy="198.0" r="3" fill="#3fb950"/><circle cx="84.3" cy="198.0" r="3" fill="#3fb950"/><circle cx="89.7" cy="198.0" r="3" fill="#3fb950"/><circle cx="95.0" cy="198.0" r="3" fill="#3fb950"/><circle cx="100.4" cy="198.0" r="3" fill="#3fb950"/><circle cx="105.8" cy="198.0" r="3" fill="#3fb950"/><circle cx="111.1" cy="198.0" r="3" fill="#3fb950"/><circle cx="116.5" cy="198.0" r="3" fill="#3fb950"/><circle cx="121.9" cy="198.0" r="3" fill="#3fb950"/><circle cx="127.2" cy="198.0" r="3" fill="#3fb950"/><circle cx="132.6" cy="198.0" r="3" fill="#3fb950"/><circle cx="138.0" cy="198.0" r="3" fill="#3fb950"/><circle cx="143.4" cy="198.0" r="3" fill="#3fb950"/><circle cx="148.7" cy="198.0" r="3" fill="#3fb950"/><circle cx="154.1" cy="198.0" r="3" fill="#3fb950"/><circle cx="159.5" cy="198.0" r="3" fill="#3fb950"/><circle cx="164.8" cy="198.0" r="3" fill="#3fb950"/><circle cx="170.2" cy="198.0" r="3" fill="#3fb950"/><circle cx="175.6" cy="198.0" r="3" fill="#3fb950"/><circle cx="180.9" cy="198.0" r="3" fill="#3fb950"/><circle cx="186.3" cy="198.0" r="3" fill="#3fb950"/><circle cx="191.7" cy="198.0" r="3" fill="#3fb950"/><circle cx="197.0" cy="198.0" r="3" fill="#3fb950"/><circle cx="202.4" cy="198.0" r="3" fill="#3fb950"/><circle cx="207.8" cy="198.0" r="3" fill="#3fb950"/><circle cx="213.1" cy="198.0" r="3" fill="#3fb950"/><circle cx="218.5" cy="198.0" r="3" fill="#3fb950"/><circle cx="223.9" cy="198.0" r="3" fill="#3fb950"/><circle cx="229.2" cy="198.0" r="3" fill="#3fb950"/><circle cx="234.6" cy="198.0" r="3" fill="#3fb950"/><circle cx="240.0" cy="198.0" r="3" fill="#3fb950"/><circle cx="245.3" cy="198.0" r="3" fill="#3fb950"/><circle cx="250.7" cy="198.0" r="3" fill="#3fb950"/><circle cx="256.1" cy="198.0" r="3" fill="#3fb950"/><circle cx="261.4" cy="198.0" r="3" fill="#3fb950"/><circle cx="266.8" cy="191.7" r="3" fill="#3fb950"/><circle cx="272.2" cy="191.7" r="3" fill="#3fb950"/><circle cx="277.5" cy="191.7" r="3" fill="#3fb950"/><circle cx="282.9" cy="191.7" r="3" fill="#3fb950"/><circle cx="288.3" cy="191.7" r="3" fill="#3fb950"/><circle cx="293.6" cy="191.7" r="3" fill="#3fb950"/><circle cx="299.0" cy="191.7" r="3" fill="#3fb950"/><circle cx="304.4" cy="192.9" r="3" fill="#3fb950"/><circle cx="309.7" cy="192.9" r="3" fill="#3fb950"/><circle cx="315.1" cy="190.7" r="3" fill="#3fb950"/><circle cx="320.5" cy="190.7" r="3" fill="#3fb950"/><circle cx="325.8" cy="190.7" r="3" fill="#3fb950"/><circle cx="331.2" cy="190.7" r="3" fill="#3fb950"/><circle cx="336.6" cy="190.7" r="3" fill="#3fb950"/><circle cx="341.9" cy="190.5" r="3" fill="#3fb950"/><circle cx="347.3" cy="190.5" r="3" fill="#3fb950"/><circle cx="352.7" cy="190.5" r="3" fill="#3fb950"/><circle cx="358.1" cy="190.3" r="3" fill="#3fb950"/><circle cx="363.4" cy="190.3" r="3" fill="#3fb950"/><circle cx="368.8" cy="190.3" r="3" fill="#3fb950"/><circle cx="374.2" cy="190.3" r="3" fill="#3fb950"/><circle cx="379.5" cy="190.3" r="3" fill="#3fb950"/><circle cx="384.9" cy="190.3" r="3" fill="#3fb950"/><circle cx="390.3" cy="190.3" r="3" fill="#3fb950"/><circle cx="395.6" cy="190.3" r="3" fill="#3fb950"/><circle cx="401.0" cy="190.3" r="3" fill="#3fb950"/><circle cx="406.4" cy="190.3" r="3" fill="#3fb950"/><circle cx="411.7" cy="190.3" r="3" fill="#3fb950"/><circle cx="417.1" cy="190.3" r="3" fill="#3fb950"/><circle cx="422.5" cy="190.3" r="3" fill="#3fb950"/><circle cx="427.8" cy="190.3" r="3" fill="#3fb950"/><circle cx="433.2" cy="190.3" r="3" fill="#3fb950"/><circle cx="438.6" cy="190.3" r="3" fill="#3fb950"/><circle cx="443.9" cy="190.3" r="3" fill="#3fb950"/><circle cx="449.3" cy="190.3" r="3" fill="#3fb950"/><circle cx="454.7" cy="190.3" r="3" fill="#3fb950"/><circle cx="460.0" cy="190.3" r="3" fill="#3fb950"/><circle cx="465.4" cy="190.3" r="3" fill="#3fb950"/><circle cx="470.8" cy="189.3" r="3" fill="#3fb950"/><circle cx="476.1" cy="189.3" r="3" fill="#3fb950"/><circle cx="481.5" cy="189.3" r="3" fill="#3fb950"/><circle cx="486.9" cy="190.7" r="3" fill="#3fb950"/><circle cx="492.2" cy="190.7" r="3" fill="#3fb950"/><circle cx="497.6" cy="190.7" r="3" fill="#3fb950"/><circle cx="503.0" cy="190.7" r="3" fill="#3fb950"/><circle cx="508.3" cy="190.7" r="3" fill="#3fb950"/><circle cx="513.7" cy="190.7" r="3" fill="#3fb950"/><circle cx="519.1" cy="190.7" r="3" fill="#3fb950"/><circle cx="524.4" cy="190.7" r="3" fill="#3fb950"/><circle cx="529.8" cy="190.7" r="3" fill="#3fb950"/><circle cx="535.2" cy="190.9" r="3" fill="#3fb950"/><circle cx="540.5" cy="190.9" r="3" fill="#3fb950"/><circle cx="545.9" cy="190.9" r="3" fill="#3fb950"/><circle cx="551.3" cy="194.2" r="3" fill="#3fb950"/><circle cx="556.6" cy="196.8" r="3" fill="#3fb950"/><circle cx="562.0" cy="198.0" r="3" fill="#3fb950"/><circle cx="567.4" cy="198.0" r="3" fill="#3fb950"/><circle cx="572.8" cy="198.0" r="3" fill="#3fb950"/><circle cx="578.1" cy="198.0" r="3" fill="#3fb950"/><circle cx="583.5" cy="198.0" r="3" fill="#3fb950"/><circle cx="588.9" cy="198.0" r="3" fill="#3fb950"/><circle cx="594.2" cy="198.0" r="3" fill="#3fb950"/><circle cx="599.6" cy="198.0" r="3" fill="#3fb950"/><circle cx="605.0" cy="198.0" r="3" fill="#3fb950"/><circle cx="610.3" cy="198.0" r="3" fill="#3fb950"/><circle cx="615.7" cy="198.0" r="3" fill="#3fb950"/><circle cx="621.1" cy="198.0" r="3" fill="#3fb950"/><circle cx="626.4" cy="198.0" r="3" fill="#3fb950"/><circle cx="631.8" cy="198.0" r="3" fill="#3fb950"/><circle cx="637.2" cy="198.0" r="3" fill="#3fb950"/><circle cx="642.5" cy="198.0" r="3" fill="#3fb950"/><circle cx="647.9" cy="198.0" r="3" fill="#3fb950"/><circle cx="653.3" cy="198.0" r="3" fill="#3fb950"/><circle cx="658.6" cy="198.0" r="3" fill="#3fb950"/><circle cx="664.0" cy="198.0" r="3" fill="#3fb950"/>
<polyline fill="none" stroke="#4aa3ff" stroke-width="2.5" stroke-linejoin="round" points="36.0,144.3 41.4,144.3 46.7,144.3 52.1,144.3 57.5,144.3 62.8,144.3 68.2,144.3 73.6,144.3 78.9,144.3 84.3,144.3 89.7,144.3 95.0,144.3 100.4,144.3 105.8,144.3 111.1,144.3 116.5,136.2 121.9,132.4 127.2,129.6 132.6,129.6 138.0,121.0 143.4,121.0 148.7,121.0 154.1,114.4 159.5,114.4 164.8,114.4 170.2,111.3 175.6,110.9 180.9,110.9 186.3,110.5 191.7,110.5 197.0,109.9 202.4,108.7 207.8,107.3 213.1,106.9 218.5,106.9 223.9,106.9 229.2,106.9 234.6,106.9 240.0,106.9 245.3,106.9 250.7,106.9 256.1,106.9 261.4,106.9 266.8,113.2 272.2,113.2 277.5,113.2 282.9,113.2 288.3,113.2 293.6,110.7 299.0,105.3 304.4,83.4 309.7,83.4 315.1,85.6 320.5,85.6 325.8,85.6 331.2,85.6 336.6,85.6 341.9,85.8 347.3,85.8 352.7,85.8 358.1,86.0 363.4,86.0 368.8,86.0 374.2,86.0 379.5,86.0 384.9,86.0 390.3,86.0 395.6,86.0 401.0,86.0 406.4,86.0 411.7,86.0 417.1,86.0 422.5,86.0 427.8,86.0 433.2,86.0 438.6,86.0 443.9,86.0 449.3,86.0 454.7,86.0 460.0,86.0 465.4,86.0 470.8,87.0 476.1,87.0 481.5,87.0 486.9,73.7 492.2,73.7 497.6,71.0 503.0,71.0 508.3,70.8 513.7,70.6 519.1,70.6 524.4,70.4 529.8,68.6 535.2,60.5 540.5,59.3 545.9,52.0 551.3,47.3 556.6,40.1 562.0,36.0 567.4,36.0 572.8,36.0 578.1,36.0 583.5,36.0 588.9,36.0 594.2,36.0 599.6,36.0 605.0,36.0 610.3,36.0 615.7,36.0 621.1,36.0 626.4,36.0 631.8,36.0 637.2,36.0 642.5,36.0 647.9,36.0 653.3,36.0 658.6,36.0 664.0,36.0"/><circle cx="36.0" cy="144.3" r="3" fill="#4aa3ff"/><circle cx="41.4" cy="144.3" r="3" fill="#4aa3ff"/><circle cx="46.7" cy="144.3" r="3" fill="#4aa3ff"/><circle cx="52.1" cy="144.3" r="3" fill="#4aa3ff"/><circle cx="57.5" cy="144.3" r="3" fill="#4aa3ff"/><circle cx="62.8" cy="144.3" r="3" fill="#4aa3ff"/><circle cx="68.2" cy="144.3" r="3" fill="#4aa3ff"/><circle cx="73.6" cy="144.3" r="3" fill="#4aa3ff"/><circle cx="78.9" cy="144.3" r="3" fill="#4aa3ff"/><circle cx="84.3" cy="144.3" r="3" fill="#4aa3ff"/><circle cx="89.7" cy="144.3" r="3" fill="#4aa3ff"/><circle cx="95.0" cy="144.3" r="3" fill="#4aa3ff"/><circle cx="100.4" cy="144.3" r="3" fill="#4aa3ff"/><circle cx="105.8" cy="144.3" r="3" fill="#4aa3ff"/><circle cx="111.1" cy="144.3" r="3" fill="#4aa3ff"/><circle cx="116.5" cy="136.2" r="3" fill="#4aa3ff"/><circle cx="121.9" cy="132.4" r="3" fill="#4aa3ff"/><circle cx="127.2" cy="129.6" r="3" fill="#4aa3ff"/><circle cx="132.6" cy="129.6" r="3" fill="#4aa3ff"/><circle cx="138.0" cy="121.0" r="3" fill="#4aa3ff"/><circle cx="143.4" cy="121.0" r="3" fill="#4aa3ff"/><circle cx="148.7" cy="121.0" r="3" fill="#4aa3ff"/><circle cx="154.1" cy="114.4" r="3" fill="#4aa3ff"/><circle cx="159.5" cy="114.4" r="3" fill="#4aa3ff"/><circle cx="164.8" cy="114.4" r="3" fill="#4aa3ff"/><circle cx="170.2" cy="111.3" r="3" fill="#4aa3ff"/><circle cx="175.6" cy="110.9" r="3" fill="#4aa3ff"/><circle cx="180.9" cy="110.9" r="3" fill="#4aa3ff"/><circle cx="186.3" cy="110.5" r="3" fill="#4aa3ff"/><circle cx="191.7" cy="110.5" r="3" fill="#4aa3ff"/><circle cx="197.0" cy="109.9" r="3" fill="#4aa3ff"/><circle cx="202.4" cy="108.7" r="3" fill="#4aa3ff"/><circle cx="207.8" cy="107.3" r="3" fill="#4aa3ff"/><circle cx="213.1" cy="106.9" r="3" fill="#4aa3ff"/><circle cx="218.5" cy="106.9" r="3" fill="#4aa3ff"/><circle cx="223.9" cy="106.9" r="3" fill="#4aa3ff"/><circle cx="229.2" cy="106.9" r="3" fill="#4aa3ff"/><circle cx="234.6" cy="106.9" r="3" fill="#4aa3ff"/><circle cx="240.0" cy="106.9" r="3" fill="#4aa3ff"/><circle cx="245.3" cy="106.9" r="3" fill="#4aa3ff"/><circle cx="250.7" cy="106.9" r="3" fill="#4aa3ff"/><circle cx="256.1" cy="106.9" r="3" fill="#4aa3ff"/><circle cx="261.4" cy="106.9" r="3" fill="#4aa3ff"/><circle cx="266.8" cy="113.2" r="3" fill="#4aa3ff"/><circle cx="272.2" cy="113.2" r="3" fill="#4aa3ff"/><circle cx="277.5" cy="113.2" r="3" fill="#4aa3ff"/><circle cx="282.9" cy="113.2" r="3" fill="#4aa3ff"/><circle cx="288.3" cy="113.2" r="3" fill="#4aa3ff"/><circle cx="293.6" cy="110.7" r="3" fill="#4aa3ff"/><circle cx="299.0" cy="105.3" r="3" fill="#4aa3ff"/><circle cx="304.4" cy="83.4" r="3" fill="#4aa3ff"/><circle cx="309.7" cy="83.4" r="3" fill="#4aa3ff"/><circle cx="315.1" cy="85.6" r="3" fill="#4aa3ff"/><circle cx="320.5" cy="85.6" r="3" fill="#4aa3ff"/><circle cx="325.8" cy="85.6" r="3" fill="#4aa3ff"/><circle cx="331.2" cy="85.6" r="3" fill="#4aa3ff"/><circle cx="336.6" cy="85.6" r="3" fill="#4aa3ff"/><circle cx="341.9" cy="85.8" r="3" fill="#4aa3ff"/><circle cx="347.3" cy="85.8" r="3" fill="#4aa3ff"/><circle cx="352.7" cy="85.8" r="3" fill="#4aa3ff"/><circle cx="358.1" cy="86.0" r="3" fill="#4aa3ff"/><circle cx="363.4" cy="86.0" r="3" fill="#4aa3ff"/><circle cx="368.8" cy="86.0" r="3" fill="#4aa3ff"/><circle cx="374.2" cy="86.0" r="3" fill="#4aa3ff"/><circle cx="379.5" cy="86.0" r="3" fill="#4aa3ff"/><circle cx="384.9" cy="86.0" r="3" fill="#4aa3ff"/><circle cx="390.3" cy="86.0" r="3" fill="#4aa3ff"/><circle cx="395.6" cy="86.0" r="3" fill="#4aa3ff"/><circle cx="401.0" cy="86.0" r="3" fill="#4aa3ff"/><circle cx="406.4" cy="86.0" r="3" fill="#4aa3ff"/><circle cx="411.7" cy="86.0" r="3" fill="#4aa3ff"/><circle cx="417.1" cy="86.0" r="3" fill="#4aa3ff"/><circle cx="422.5" cy="86.0" r="3" fill="#4aa3ff"/><circle cx="427.8" cy="86.0" r="3" fill="#4aa3ff"/><circle cx="433.2" cy="86.0" r="3" fill="#4aa3ff"/><circle cx="438.6" cy="86.0" r="3" fill="#4aa3ff"/><circle cx="443.9" cy="86.0" r="3" fill="#4aa3ff"/><circle cx="449.3" cy="86.0" r="3" fill="#4aa3ff"/><circle cx="454.7" cy="86.0" r="3" fill="#4aa3ff"/><circle cx="460.0" cy="86.0" r="3" fill="#4aa3ff"/><circle cx="465.4" cy="86.0" r="3" fill="#4aa3ff"/><circle cx="470.8" cy="87.0" r="3" fill="#4aa3ff"/><circle cx="476.1" cy="87.0" r="3" fill="#4aa3ff"/><circle cx="481.5" cy="87.0" r="3" fill="#4aa3ff"/><circle cx="486.9" cy="73.7" r="3" fill="#4aa3ff"/><circle cx="492.2" cy="73.7" r="3" fill="#4aa3ff"/><circle cx="497.6" cy="71.0" r="3" fill="#4aa3ff"/><circle cx="503.0" cy="71.0" r="3" fill="#4aa3ff"/><circle cx="508.3" cy="70.8" r="3" fill="#4aa3ff"/><circle cx="513.7" cy="70.6" r="3" fill="#4aa3ff"/><circle cx="519.1" cy="70.6" r="3" fill="#4aa3ff"/><circle cx="524.4" cy="70.4" r="3" fill="#4aa3ff"/><circle cx="529.8" cy="68.6" r="3" fill="#4aa3ff"/><circle cx="535.2" cy="60.5" r="3" fill="#4aa3ff"/><circle cx="540.5" cy="59.3" r="3" fill="#4aa3ff"/><circle cx="545.9" cy="52.0" r="3" fill="#4aa3ff"/><circle cx="551.3" cy="47.3" r="3" fill="#4aa3ff"/><circle cx="556.6" cy="40.1" r="3" fill="#4aa3ff"/><circle cx="562.0" cy="36.0" r="3" fill="#4aa3ff"/><circle cx="567.4" cy="36.0" r="3" fill="#4aa3ff"/><circle cx="572.8" cy="36.0" r="3" fill="#4aa3ff"/><circle cx="578.1" cy="36.0" r="3" fill="#4aa3ff"/><circle cx="583.5" cy="36.0" r="3" fill="#4aa3ff"/><circle cx="588.9" cy="36.0" r="3" fill="#4aa3ff"/><circle cx="594.2" cy="36.0" r="3" fill="#4aa3ff"/><circle cx="599.6" cy="36.0" r="3" fill="#4aa3ff"/><circle cx="605.0" cy="36.0" r="3" fill="#4aa3ff"/><circle cx="610.3" cy="36.0" r="3" fill="#4aa3ff"/><circle cx="615.7" cy="36.0" r="3" fill="#4aa3ff"/><circle cx="621.1" cy="36.0" r="3" fill="#4aa3ff"/><circle cx="626.4" cy="36.0" r="3" fill="#4aa3ff"/><circle cx="631.8" cy="36.0" r="3" fill="#4aa3ff"/><circle cx="637.2" cy="36.0" r="3" fill="#4aa3ff"/><circle cx="642.5" cy="36.0" r="3" fill="#4aa3ff"/><circle cx="647.9" cy="36.0" r="3" fill="#4aa3ff"/><circle cx="653.3" cy="36.0" r="3" fill="#4aa3ff"/><circle cx="658.6" cy="36.0" r="3" fill="#4aa3ff"/><circle cx="664.0" cy="36.0" r="3" fill="#4aa3ff"/>
<text x="36" y="225" fill="#6b7280" font-size="11">2026-06-26</text>
<text x="664" y="225" fill="#6b7280" font-size="11" text-anchor="end">2026-07-09</text>
<text x="36" y="212" font-family="system-ui,sans-serif" font-size="11">
<tspan fill="#4aa3ff">&#9679; open FPs</tspan>  <tspan fill="#3fb950">&#9679; closed (Anthropic acting)</tspan>  <tspan fill="#8a5a5a">&#9679; harness withdrawn</tspan></text>
<text x="664" y="22" text-anchor="end" font-family="system-ui,sans-serif" font-size="12">
<tspan fill="#4aa3ff">open 800</tspan>  <tspan fill="#3fb950">closed 0</tspan>  <tspan fill="#8a5a5a">harness 0</tspan></text>
</svg>