<svg xmlns="http://www.w3.org/2000/svg" width="700" height="234" viewBox="0 0 700 234" role="img">
<rect width="700" height="234" rx="12" fill="#16181d"/>
<text x="36" y="22" fill="#e8eaed" font-family="system-ui,sans-serif" font-size="14" font-weight="700">Is Anthropic acting? cyber/aup false positives over time</text>
<line x1="36" y1="198.0" x2="664" y2="198.0" stroke="#2a2e37" stroke-width="1"/><text x="30" y="202.0" fill="#6b7280" font-size="11" text-anchor="end">0</text><line x1="36" y1="117.0" x2="664" y2="117.0" stroke="#2a2e37" stroke-width="1"/><text x="30" y="121.0" fill="#6b7280" font-size="11" text-anchor="end">320</text><line x1="36" y1="36.0" x2="664" y2="36.0" stroke="#2a2e37" stroke-width="1"/><text x="30" y="40.0" fill="#6b7280" font-size="11" text-anchor="end">639</text>

<polyline fill="none" stroke="#8a5a5a" stroke-width="2.5" stroke-linejoin="round" points="36.0,131.8 42.8,131.8 49.7,131.8 56.5,131.8 63.3,131.8 70.1,131.8 77.0,131.8 83.8,131.8 90.6,131.8 97.4,131.8 104.3,131.8 111.1,131.8 117.9,131.8 124.7,131.8 131.6,131.8 138.4,131.8 145.2,131.8 152.0,131.8 158.9,131.8 165.7,131.8 172.5,131.8 179.3,131.8 186.2,131.8 193.0,131.8 199.8,131.8 206.7,131.8 213.5,131.8 220.3,131.8 227.1,131.8 234.0,131.8 240.8,131.8 247.6,131.8 254.4,131.8 261.3,131.8 268.1,131.8 274.9,131.8 281.7,131.8 288.6,131.8 295.4,131.8 302.2,131.8 309.0,131.8 315.9,131.8 322.7,131.8 329.5,131.8 336.3,131.8 343.2,131.8 350.0,131.8 356.8,131.8 363.7,131.8 370.5,131.8 377.3,145.0 384.1,145.0 391.0,145.0 397.8,145.0 404.6,145.0 411.4,145.0 418.3,145.0 425.1,145.0 431.9,145.0 438.7,145.0 445.6,145.0 452.4,145.0 459.2,145.0 466.0,145.0 472.9,145.0 479.7,145.0 486.5,145.0 493.3,145.0 500.2,145.0 507.0,145.0 513.8,145.0 520.7,145.0 527.5,145.0 534.3,145.0 541.1,145.0 548.0,145.0 554.8,145.0 561.6,145.0 568.4,145.0 575.3,145.0 582.1,145.0 588.9,145.0 595.7,145.0 602.6,145.0 609.4,160.0 616.2,160.0 623.0,163.3 629.9,163.3 636.7,163.5 643.5,163.8 650.3,163.8 657.2,164.0 664.0,166.3"/><circle cx="36.0" cy="131.8" r="3" fill="#8a5a5a"/><circle cx="42.8" cy="131.8" r="3" fill="#8a5a5a"/><circle cx="49.7" cy="131.8" r="3" fill="#8a5a5a"/><circle cx="56.5" cy="131.8" r="3" fill="#8a5a5a"/><circle cx="63.3" cy="131.8" r="3" fill="#8a5a5a"/><circle cx="70.1" cy="131.8" r="3" fill="#8a5a5a"/><circle cx="77.0" cy="131.8" r="3" fill="#8a5a5a"/><circle cx="83.8" cy="131.8" r="3" fill="#8a5a5a"/><circle cx="90.6" cy="131.8" r="3" fill="#8a5a5a"/><circle cx="97.4" cy="131.8" r="3" fill="#8a5a5a"/><circle cx="104.3" cy="131.8" r="3" fill="#8a5a5a"/><circle cx="111.1" cy="131.8" r="3" fill="#8a5a5a"/><circle cx="117.9" cy="131.8" r="3" fill="#8a5a5a"/><circle cx="124.7" cy="131.8" r="3" fill="#8a5a5a"/><circle cx="131.6" cy="131.8" r="3" fill="#8a5a5a"/><circle cx="138.4" cy="131.8" r="3" fill="#8a5a5a"/><circle cx="145.2" cy="131.8" r="3" fill="#8a5a5a"/><circle cx="152.0" cy="131.8" r="3" fill="#8a5a5a"/><circle cx="158.9" cy="131.8" r="3" fill="#8a5a5a"/><circle cx="165.7" cy="131.8" r="3" fill="#8a5a5a"/><circle cx="172.5" cy="131.8" r="3" fill="#8a5a5a"/><circle cx="179.3" cy="131.8" r="3" fill="#8a5a5a"/><circle cx="186.2" cy="131.8" r="3" fill="#8a5a5a"/><circle cx="193.0" cy="131.8" r="3" fill="#8a5a5a"/><circle cx="199.8" cy="131.8" r="3" fill="#8a5a5a"/><circle cx="206.7" cy="131.8" r="3" fill="#8a5a5a"/><circle cx="213.5" cy="131.8" r="3" fill="#8a5a5a"/><circle cx="220.3" cy="131.8" r="3" fill="#8a5a5a"/><circle cx="227.1" cy="131.8" r="3" fill="#8a5a5a"/><circle cx="234.0" cy="131.8" r="3" fill="#8a5a5a"/><circle cx="240.8" cy="131.8" r="3" fill="#8a5a5a"/><circle cx="247.6" cy="131.8" r="3" fill="#8a5a5a"/><circle cx="254.4" cy="131.8" r="3" fill="#8a5a5a"/><circle cx="261.3" cy="131.8" r="3" fill="#8a5a5a"/><circle cx="268.1" cy="131.8" r="3" fill="#8a5a5a"/><circle cx="274.9" cy="131.8" r="3" fill="#8a5a5a"/><circle cx="281.7" cy="131.8" r="3" fill="#8a5a5a"/><circle cx="288.6" cy="131.8" r="3" fill="#8a5a5a"/><circle cx="295.4" cy="131.8" r="3" fill="#8a5a5a"/><circle cx="302.2" cy="131.8" r="3" fill="#8a5a5a"/><circle cx="309.0" cy="131.8" r="3" fill="#8a5a5a"/><circle cx="315.9" cy="131.8" r="3" fill="#8a5a5a"/><circle cx="322.7" cy="131.8" r="3" fill="#8a5a5a"/><circle cx="329.5" cy="131.8" r="3" fill="#8a5a5a"/><circle cx="336.3" cy="131.8" r="3" fill="#8a5a5a"/><circle cx="343.2" cy="131.8" r="3" fill="#8a5a5a"/><circle cx="350.0" cy="131.8" r="3" fill="#8a5a5a"/><circle cx="356.8" cy="131.8" r="3" fill="#8a5a5a"/><circle cx="363.7" cy="131.8" r="3" fill="#8a5a5a"/><circle cx="370.5" cy="131.8" r="3" fill="#8a5a5a"/><circle cx="377.3" cy="145.0" r="3" fill="#8a5a5a"/><circle cx="384.1" cy="145.0" r="3" fill="#8a5a5a"/><circle cx="391.0" cy="145.0" r="3" fill="#8a5a5a"/><circle cx="397.8" cy="145.0" r="3" fill="#8a5a5a"/><circle cx="404.6" cy="145.0" r="3" fill="#8a5a5a"/><circle cx="411.4" cy="145.0" r="3" fill="#8a5a5a"/><circle cx="418.3" cy="145.0" r="3" fill="#8a5a5a"/><circle cx="425.1" cy="145.0" r="3" fill="#8a5a5a"/><circle cx="431.9" cy="145.0" r="3" fill="#8a5a5a"/><circle cx="438.7" cy="145.0" r="3" fill="#8a5a5a"/><circle cx="445.6" cy="145.0" r="3" fill="#8a5a5a"/><circle cx="452.4" cy="145.0" r="3" fill="#8a5a5a"/><circle cx="459.2" cy="145.0" r="3" fill="#8a5a5a"/><circle cx="466.0" cy="145.0" r="3" fill="#8a5a5a"/><circle cx="472.9" cy="145.0" r="3" fill="#8a5a5a"/><circle cx="479.7" cy="145.0" r="3" fill="#8a5a5a"/><circle cx="486.5" cy="145.0" r="3" fill="#8a5a5a"/><circle cx="493.3" cy="145.0" r="3" fill="#8a5a5a"/><circle cx="500.2" cy="145.0" r="3" fill="#8a5a5a"/><circle cx="507.0" cy="145.0" r="3" fill="#8a5a5a"/><circle cx="513.8" cy="145.0" r="3" fill="#8a5a5a"/><circle cx="520.7" cy="145.0" r="3" fill="#8a5a5a"/><circle cx="527.5" cy="145.0" r="3" fill="#8a5a5a"/><circle cx="534.3" cy="145.0" r="3" fill="#8a5a5a"/><circle cx="541.1" cy="145.0" r="3" fill="#8a5a5a"/><circle cx="548.0" cy="145.0" r="3" fill="#8a5a5a"/><circle cx="554.8" cy="145.0" r="3" fill="#8a5a5a"/><circle cx="561.6" cy="145.0" r="3" fill="#8a5a5a"/><circle cx="568.4" cy="145.0" r="3" fill="#8a5a5a"/><circle cx="575.3" cy="145.0" r="3" fill="#8a5a5a"/><circle cx="582.1" cy="145.0" r="3" fill="#8a5a5a"/><circle cx="588.9" cy="145.0" r="3" fill="#8a5a5a"/><circle cx="595.7" cy="145.0" r="3" fill="#8a5a5a"/><circle cx="602.6" cy="145.0" r="3" fill="#8a5a5a"/><circle cx="609.4" cy="160.0" r="3" fill="#8a5a5a"/><circle cx="616.2" cy="160.0" r="3" fill="#8a5a5a"/><circle cx="623.0" cy="163.3" r="3" fill="#8a5a5a"/><circle cx="629.9" cy="163.3" r="3" fill="#8a5a5a"/><circle cx="636.7" cy="163.5" r="3" fill="#8a5a5a"/><circle cx="643.5" cy="163.8" r="3" fill="#8a5a5a"/><circle cx="650.3" cy="163.8" r="3" fill="#8a5a5a"/><circle cx="657.2" cy="164.0" r="3" fill="#8a5a5a"/><circle cx="664.0" cy="166.3" r="3" fill="#8a5a5a"/>
<polyline fill="none" stroke="#3fb950" stroke-width="2.5" stroke-linejoin="round" points="36.0,198.0 42.8,198.0 49.7,198.0 56.5,198.0 63.3,198.0 70.1,198.0 77.0,198.0 83.8,198.0 90.6,198.0 97.4,198.0 104.3,198.0 111.1,198.0 117.9,198.0 124.7,198.0 131.6,198.0 138.4,198.0 145.2,198.0 152.0,198.0 158.9,198.0 165.7,198.0 172.5,198.0 179.3,198.0 186.2,198.0 193.0,198.0 199.8,198.0 206.7,198.0 213.5,198.0 220.3,198.0 227.1,198.0 234.0,198.0 240.8,198.0 247.6,198.0 254.4,198.0 261.3,198.0 268.1,198.0 274.9,198.0 281.7,198.0 288.6,198.0 295.4,198.0 302.2,198.0 309.0,198.0 315.9,198.0 322.7,198.0 329.5,190.1 336.3,190.1 343.2,190.1 350.0,190.1 356.8,190.1 363.7,190.1 370.5,190.1 377.3,191.7 384.1,191.7 391.0,188.9 397.8,188.9 404.6,188.9 411.4,188.9 418.3,188.9 425.1,188.6 431.9,188.6 438.7,188.6 445.6,188.4 452.4,188.4 459.2,188.4 466.0,188.4 472.9,188.4 479.7,188.4 486.5,188.4 493.3,188.4 500.2,188.4 507.0,188.4 513.8,188.4 520.7,188.4 527.5,188.4 534.3,188.4 541.1,188.4 548.0,188.4 554.8,188.4 561.6,188.4 568.4,188.4 575.3,188.4 582.1,188.4 588.9,187.1 595.7,187.1 602.6,187.1 609.4,188.9 616.2,188.9 623.0,188.9 629.9,188.9 636.7,188.9 643.5,188.9 650.3,188.9 657.2,188.9 664.0,188.9"/><circle cx="36.0" cy="198.0" r="3" fill="#3fb950"/><circle cx="42.8" cy="198.0" r="3" fill="#3fb950"/><circle cx="49.7" cy="198.0" r="3" fill="#3fb950"/><circle cx="56.5" cy="198.0" r="3" fill="#3fb950"/><circle cx="63.3" cy="198.0" r="3" fill="#3fb950"/><circle cx="70.1" cy="198.0" r="3" fill="#3fb950"/><circle cx="77.0" cy="198.0" r="3" fill="#3fb950"/><circle cx="83.8" cy="198.0" r="3" fill="#3fb950"/><circle cx="90.6" cy="198.0" r="3" fill="#3fb950"/><circle cx="97.4" cy="198.0" r="3" fill="#3fb950"/><circle cx="104.3" cy="198.0" r="3" fill="#3fb950"/><circle cx="111.1" cy="198.0" r="3" fill="#3fb950"/><circle cx="117.9" cy="198.0" r="3" fill="#3fb950"/><circle cx="124.7" cy="198.0" r="3" fill="#3fb950"/><circle cx="131.6" cy="198.0" r="3" fill="#3fb950"/><circle cx="138.4" cy="198.0" r="3" fill="#3fb950"/><circle cx="145.2" cy="198.0" r="3" fill="#3fb950"/><circle cx="152.0" cy="198.0" r="3" fill="#3fb950"/><circle cx="158.9" cy="198.0" r="3" fill="#3fb950"/><circle cx="165.7" cy="198.0" r="3" fill="#3fb950"/><circle cx="172.5" cy="198.0" r="3" fill="#3fb950"/><circle cx="179.3" cy="198.0" r="3" fill="#3fb950"/><circle cx="186.2" cy="198.0" r="3" fill="#3fb950"/><circle cx="193.0" cy="198.0" r="3" fill="#3fb950"/><circle cx="199.8" cy="198.0" r="3" fill="#3fb950"/><circle cx="206.7" cy="198.0" r="3" fill="#3fb950"/><circle cx="213.5" cy="198.0" r="3" fill="#3fb950"/><circle cx="220.3" cy="198.0" r="3" fill="#3fb950"/><circle cx="227.1" cy="198.0" r="3" fill="#3fb950"/><circle cx="234.0" cy="198.0" r="3" fill="#3fb950"/><circle cx="240.8" cy="198.0" r="3" fill="#3fb950"/><circle cx="247.6" cy="198.0" r="3" fill="#3fb950"/><circle cx="254.4" cy="198.0" r="3" fill="#3fb950"/><circle cx="261.3" cy="198.0" r="3" fill="#3fb950"/><circle cx="268.1" cy="198.0" r="3" fill="#3fb950"/><circle cx="274.9" cy="198.0" r="3" fill="#3fb950"/><circle cx="281.7" cy="198.0" r="3" fill="#3fb950"/><circle cx="288.6" cy="198.0" r="3" fill="#3fb950"/><circle cx="295.4" cy="198.0" r="3" fill="#3fb950"/><circle cx="302.2" cy="198.0" r="3" fill="#3fb950"/><circle cx="309.0" cy="198.0" r="3" fill="#3fb950"/><circle cx="315.9" cy="198.0" r="3" fill="#3fb950"/><circle cx="322.7" cy="198.0" r="3" fill="#3fb950"/><circle cx="329.5" cy="190.1" r="3" fill="#3fb950"/><circle cx="336.3" cy="190.1" r="3" fill="#3fb950"/><circle cx="343.2" cy="190.1" r="3" fill="#3fb950"/><circle cx="350.0" cy="190.1" r="3" fill="#3fb950"/><circle cx="356.8" cy="190.1" r="3" fill="#3fb950"/><circle cx="363.7" cy="190.1" r="3" fill="#3fb950"/><circle cx="370.5" cy="190.1" r="3" fill="#3fb950"/><circle cx="377.3" cy="191.7" r="3" fill="#3fb950"/><circle cx="384.1" cy="191.7" r="3" fill="#3fb950"/><circle cx="391.0" cy="188.9" r="3" fill="#3fb950"/><circle cx="397.8" cy="188.9" r="3" fill="#3fb950"/><circle cx="404.6" cy="188.9" r="3" fill="#3fb950"/><circle cx="411.4" cy="188.9" r="3" fill="#3fb950"/><circle cx="418.3" cy="188.9" r="3" fill="#3fb950"/><circle cx="425.1" cy="188.6" r="3" fill="#3fb950"/><circle cx="431.9" cy="188.6" r="3" fill="#3fb950"/><circle cx="438.7" cy="188.6" r="3" fill="#3fb950"/><circle cx="445.6" cy="188.4" r="3" fill="#3fb950"/><circle cx="452.4" cy="188.4" r="3" fill="#3fb950"/><circle cx="459.2" cy="188.4" r="3" fill="#3fb950"/><circle cx="466.0" cy="188.4" r="3" fill="#3fb950"/><circle cx="472.9" cy="188.4" r="3" fill="#3fb950"/><circle cx="479.7" cy="188.4" r="3" fill="#3fb950"/><circle cx="486.5" cy="188.4" r="3" fill="#3fb950"/><circle cx="493.3" cy="188.4" r="3" fill="#3fb950"/><circle cx="500.2" cy="188.4" r="3" fill="#3fb950"/><circle cx="507.0" cy="188.4" r="3" fill="#3fb950"/><circle cx="513.8" cy="188.4" r="3" fill="#3fb950"/><circle cx="520.7" cy="188.4" r="3" fill="#3fb950"/><circle cx="527.5" cy="188.4" r="3" fill="#3fb950"/><circle cx="534.3" cy="188.4" r="3" fill="#3fb950"/><circle cx="541.1" cy="188.4" r="3" fill="#3fb950"/><circle cx="548.0" cy="188.4" r="3" fill="#3fb950"/><circle cx="554.8" cy="188.4" r="3" fill="#3fb950"/><circle cx="561.6" cy="188.4" r="3" fill="#3fb950"/><circle cx="568.4" cy="188.4" r="3" fill="#3fb950"/><circle cx="575.3" cy="188.4" r="3" fill="#3fb950"/><circle cx="582.1" cy="188.4" r="3" fill="#3fb950"/><circle cx="588.9" cy="187.1" r="3" fill="#3fb950"/><circle cx="595.7" cy="187.1" r="3" fill="#3fb950"/><circle cx="602.6" cy="187.1" r="3" fill="#3fb950"/><circle cx="609.4" cy="188.9" r="3" fill="#3fb950"/><circle cx="616.2" cy="188.9" r="3" fill="#3fb950"/><circle cx="623.0" cy="188.9" r="3" fill="#3fb950"/><circle cx="629.9" cy="188.9" r="3" fill="#3fb950"/><circle cx="636.7" cy="188.9" r="3" fill="#3fb950"/><circle cx="643.5" cy="188.9" r="3" fill="#3fb950"/><circle cx="650.3" cy="188.9" r="3" fill="#3fb950"/><circle cx="657.2" cy="188.9" r="3" fill="#3fb950"/><circle cx="664.0" cy="188.9" r="3" fill="#3fb950"/>
<polyline fill="none" stroke="#4aa3ff" stroke-width="2.5" stroke-linejoin="round" points="36.0,130.8 42.8,130.8 49.7,130.8 56.5,130.8 63.3,130.8 70.1,130.8 77.0,130.8 83.8,130.8 90.6,130.8 97.4,130.8 104.3,130.8 111.1,130.8 117.9,130.8 124.7,130.8 131.6,130.8 138.4,120.7 145.2,115.9 152.0,112.3 158.9,112.3 165.7,101.7 172.5,101.7 179.3,101.7 186.2,93.3 193.0,93.3 199.8,93.3 206.7,89.5 213.5,89.0 220.3,89.0 227.1,88.5 234.0,88.5 240.8,87.7 247.6,86.2 254.4,84.4 261.3,83.9 268.1,83.9 274.9,83.9 281.7,83.9 288.6,83.9 295.4,83.9 302.2,83.9 309.0,83.9 315.9,83.9 322.7,83.9 329.5,91.8 336.3,91.8 343.2,91.8 350.0,91.8 356.8,91.8 363.7,88.7 370.5,81.9 377.3,54.5 384.1,54.5 391.0,57.3 397.8,57.3 404.6,57.3 411.4,57.3 418.3,57.3 425.1,57.5 431.9,57.5 438.7,57.5 445.6,57.8 452.4,57.8 459.2,57.8 466.0,57.8 472.9,57.8 479.7,57.8 486.5,57.8 493.3,57.8 500.2,57.8 507.0,57.8 513.8,57.8 520.7,57.8 527.5,57.8 534.3,57.8 541.1,57.8 548.0,57.8 554.8,57.8 561.6,57.8 568.4,57.8 575.3,57.8 582.1,57.8 588.9,59.1 595.7,59.1 602.6,59.1 609.4,42.3 616.2,42.3 623.0,39.0 629.9,39.0 636.7,38.8 643.5,38.5 650.3,38.5 657.2,38.3 664.0,36.0"/><circle cx="36.0" cy="130.8" r="3" fill="#4aa3ff"/><circle cx="42.8" cy="130.8" r="3" fill="#4aa3ff"/><circle cx="49.7" cy="130.8" r="3" fill="#4aa3ff"/><circle cx="56.5" cy="130.8" r="3" fill="#4aa3ff"/><circle cx="63.3" cy="130.8" r="3" fill="#4aa3ff"/><circle cx="70.1" cy="130.8" r="3" fill="#4aa3ff"/><circle cx="77.0" cy="130.8" r="3" fill="#4aa3ff"/><circle cx="83.8" cy="130.8" r="3" fill="#4aa3ff"/><circle cx="90.6" cy="130.8" r="3" fill="#4aa3ff"/><circle cx="97.4" cy="130.8" r="3" fill="#4aa3ff"/><circle cx="104.3" cy="130.8" r="3" fill="#4aa3ff"/><circle cx="111.1" cy="130.8" r="3" fill="#4aa3ff"/><circle cx="117.9" cy="130.8" r="3" fill="#4aa3ff"/><circle cx="124.7" cy="130.8" r="3" fill="#4aa3ff"/><circle cx="131.6" cy="130.8" r="3" fill="#4aa3ff"/><circle cx="138.4" cy="120.7" r="3" fill="#4aa3ff"/><circle cx="145.2" cy="115.9" r="3" fill="#4aa3ff"/><circle cx="152.0" cy="112.3" r="3" fill="#4aa3ff"/><circle cx="158.9" cy="112.3" r="3" fill="#4aa3ff"/><circle cx="165.7" cy="101.7" r="3" fill="#4aa3ff"/><circle cx="172.5" cy="101.7" r="3" fill="#4aa3ff"/><circle cx="179.3" cy="101.7" r="3" fill="#4aa3ff"/><circle cx="186.2" cy="93.3" r="3" fill="#4aa3ff"/><circle cx="193.0" cy="93.3" r="3" fill="#4aa3ff"/><circle cx="199.8" cy="93.3" r="3" fill="#4aa3ff"/><circle cx="206.7" cy="89.5" r="3" fill="#4aa3ff"/><circle cx="213.5" cy="89.0" r="3" fill="#4aa3ff"/><circle cx="220.3" cy="89.0" r="3" fill="#4aa3ff"/><circle cx="227.1" cy="88.5" r="3" fill="#4aa3ff"/><circle cx="234.0" cy="88.5" r="3" fill="#4aa3ff"/><circle cx="240.8" cy="87.7" r="3" fill="#4aa3ff"/><circle cx="247.6" cy="86.2" r="3" fill="#4aa3ff"/><circle cx="254.4" cy="84.4" r="3" fill="#4aa3ff"/><circle cx="261.3" cy="83.9" r="3" fill="#4aa3ff"/><circle cx="268.1" cy="83.9" r="3" fill="#4aa3ff"/><circle cx="274.9" cy="83.9" r="3" fill="#4aa3ff"/><circle cx="281.7" cy="83.9" r="3" fill="#4aa3ff"/><circle cx="288.6" cy="83.9" r="3" fill="#4aa3ff"/><circle cx="295.4" cy="83.9" r="3" fill="#4aa3ff"/><circle cx="302.2" cy="83.9" r="3" fill="#4aa3ff"/><circle cx="309.0" cy="83.9" r="3" fill="#4aa3ff"/><circle cx="315.9" cy="83.9" r="3" fill="#4aa3ff"/><circle cx="322.7" cy="83.9" r="3" fill="#4aa3ff"/><circle cx="329.5" cy="91.8" r="3" fill="#4aa3ff"/><circle cx="336.3" cy="91.8" r="3" fill="#4aa3ff"/><circle cx="343.2" cy="91.8" r="3" fill="#4aa3ff"/><circle cx="350.0" cy="91.8" r="3" fill="#4aa3ff"/><circle cx="356.8" cy="91.8" r="3" fill="#4aa3ff"/><circle cx="363.7" cy="88.7" r="3" fill="#4aa3ff"/><circle cx="370.5" cy="81.9" r="3" fill="#4aa3ff"/><circle cx="377.3" cy="54.5" r="3" fill="#4aa3ff"/><circle cx="384.1" cy="54.5" r="3" fill="#4aa3ff"/><circle cx="391.0" cy="57.3" r="3" fill="#4aa3ff"/><circle cx="397.8" cy="57.3" r="3" fill="#4aa3ff"/><circle cx="404.6" cy="57.3" r="3" fill="#4aa3ff"/><circle cx="411.4" cy="57.3" r="3" fill="#4aa3ff"/><circle cx="418.3" cy="57.3" r="3" fill="#4aa3ff"/><circle cx="425.1" cy="57.5" r="3" fill="#4aa3ff"/><circle cx="431.9" cy="57.5" r="3" fill="#4aa3ff"/><circle cx="438.7" cy="57.5" r="3" fill="#4aa3ff"/><circle cx="445.6" cy="57.8" r="3" fill="#4aa3ff"/><circle cx="452.4" cy="57.8" r="3" fill="#4aa3ff"/><circle cx="459.2" cy="57.8" r="3" fill="#4aa3ff"/><circle cx="466.0" cy="57.8" r="3" fill="#4aa3ff"/><circle cx="472.9" cy="57.8" r="3" fill="#4aa3ff"/><circle cx="479.7" cy="57.8" r="3" fill="#4aa3ff"/><circle cx="486.5" cy="57.8" r="3" fill="#4aa3ff"/><circle cx="493.3" cy="57.8" r="3" fill="#4aa3ff"/><circle cx="500.2" cy="57.8" r="3" fill="#4aa3ff"/><circle cx="507.0" cy="57.8" r="3" fill="#4aa3ff"/><circle cx="513.8" cy="57.8" r="3" fill="#4aa3ff"/><circle cx="520.7" cy="57.8" r="3" fill="#4aa3ff"/><circle cx="527.5" cy="57.8" r="3" fill="#4aa3ff"/><circle cx="534.3" cy="57.8" r="3" fill="#4aa3ff"/><circle cx="541.1" cy="57.8" r="3" fill="#4aa3ff"/><circle cx="548.0" cy="57.8" r="3" fill="#4aa3ff"/><circle cx="554.8" cy="57.8" r="3" fill="#4aa3ff"/><circle cx="561.6" cy="57.8" r="3" fill="#4aa3ff"/><circle cx="568.4" cy="57.8" r="3" fill="#4aa3ff"/><circle cx="575.3" cy="57.8" r="3" fill="#4aa3ff"/><circle cx="582.1" cy="57.8" r="3" fill="#4aa3ff"/><circle cx="588.9" cy="59.1" r="3" fill="#4aa3ff"/><circle cx="595.7" cy="59.1" r="3" fill="#4aa3ff"/><circle cx="602.6" cy="59.1" r="3" fill="#4aa3ff"/><circle cx="609.4" cy="42.3" r="3" fill="#4aa3ff"/><circle cx="616.2" cy="42.3" r="3" fill="#4aa3ff"/><circle cx="623.0" cy="39.0" r="3" fill="#4aa3ff"/><circle cx="629.9" cy="39.0" r="3" fill="#4aa3ff"/><circle cx="636.7" cy="38.8" r="3" fill="#4aa3ff"/><circle cx="643.5" cy="38.5" r="3" fill="#4aa3ff"/><circle cx="650.3" cy="38.5" r="3" fill="#4aa3ff"/><circle cx="657.2" cy="38.3" r="3" fill="#4aa3ff"/><circle cx="664.0" cy="36.0" r="3" fill="#4aa3ff"/>
<text x="36" y="225" fill="#6b7280" font-size="11">2026-06-26</text>
<text x="664" y="225" fill="#6b7280" font-size="11" text-anchor="end">2026-07-06</text>
<text x="36" y="212" font-family="system-ui,sans-serif" font-size="11">
<tspan fill="#4aa3ff">&#9679; open FPs</tspan>  <tspan fill="#3fb950">&#9679; closed (Anthropic acting)</tspan>  <tspan fill="#8a5a5a">&#9679; harness withdrawn</tspan></text>
<text x="664" y="22" text-anchor="end" font-family="system-ui,sans-serif" font-size="12">
<tspan fill="#4aa3ff">open 639</tspan>  <tspan fill="#3fb950">closed 36</tspan>  <tspan fill="#8a5a5a">harness 125</tspan></text>
</svg>