<svg xmlns="http://www.w3.org/2000/svg" width="700" height="234" viewBox="0 0 700 234" role="img">
<rect width="700" height="234" rx="12" fill="#16181d"/>
<text x="36" y="22" fill="#e8eaed" font-family="system-ui,sans-serif" font-size="14" font-weight="700">Is Anthropic acting? cyber/aup false positives over time</text>
<line x1="36" y1="198.0" x2="664" y2="198.0" stroke="#2a2e37" stroke-width="1"/><text x="30" y="202.0" fill="#6b7280" font-size="11" text-anchor="end">0</text><line x1="36" y1="117.0" x2="664" y2="117.0" stroke="#2a2e37" stroke-width="1"/><text x="30" y="121.0" fill="#6b7280" font-size="11" text-anchor="end">400</text><line x1="36" y1="36.0" x2="664" y2="36.0" stroke="#2a2e37" stroke-width="1"/><text x="30" y="40.0" fill="#6b7280" font-size="11" text-anchor="end">800</text>

<polyline fill="none" stroke="#8a5a5a" stroke-width="2.5" stroke-linejoin="round" points="36.0,145.1 41.8,145.1 47.6,145.1 53.4,145.1 59.3,145.1 65.1,145.1 70.9,145.1 76.7,145.1 82.5,145.1 88.3,145.1 94.1,145.1 100.0,145.1 105.8,145.1 111.6,145.1 117.4,145.1 123.2,145.1 129.0,145.1 134.9,145.1 140.7,145.1 146.5,145.1 152.3,145.1 158.1,145.1 163.9,145.1 169.7,145.1 175.6,145.1 181.4,145.1 187.2,145.1 193.0,145.1 198.8,145.1 204.6,145.1 210.4,145.1 216.3,145.1 222.1,145.1 227.9,145.1 233.7,145.1 239.5,145.1 245.3,145.1 251.1,145.1 257.0,145.1 262.8,145.1 268.6,145.1 274.4,145.1 280.2,145.1 286.0,145.1 291.9,145.1 297.7,145.1 303.5,145.1 309.3,145.1 315.1,145.1 320.9,145.1 326.7,155.7 332.6,155.7 338.4,155.7 344.2,155.7 350.0,155.7 355.8,155.7 361.6,155.7 367.4,155.7 373.3,155.7 379.1,155.7 384.9,155.7 390.7,155.7 396.5,155.7 402.3,155.7 408.1,155.7 414.0,155.7 419.8,155.7 425.6,155.7 431.4,155.7 437.2,155.7 443.0,155.7 448.9,155.7 454.7,155.7 460.5,155.7 466.3,155.7 472.1,155.7 477.9,155.7 483.7,155.7 489.6,155.7 495.4,155.7 501.2,155.7 507.0,155.7 512.8,155.7 518.6,155.7 524.4,167.6 530.3,167.6 536.1,170.3 541.9,170.3 547.7,170.5 553.5,170.7 559.3,170.7 565.1,170.9 571.0,172.7 576.8,180.6 582.6,181.8 588.4,189.1 594.2,190.5 600.0,195.2 605.9,198.0 611.7,198.0 617.5,198.0 623.3,198.0 629.1,198.0 634.9,198.0 640.7,198.0 646.6,198.0 652.4,198.0 658.2,198.0 664.0,198.0"/><circle cx="36.0" cy="145.1" r="3" fill="#8a5a5a"/><circle cx="41.8" cy="145.1" r="3" fill="#8a5a5a"/><circle cx="47.6" cy="145.1" r="3" fill="#8a5a5a"/><circle cx="53.4" cy="145.1" r="3" fill="#8a5a5a"/><circle cx="59.3" cy="145.1" r="3" fill="#8a5a5a"/><circle cx="65.1" cy="145.1" r="3" fill="#8a5a5a"/><circle cx="70.9" cy="145.1" r="3" fill="#8a5a5a"/><circle cx="76.7" cy="145.1" r="3" fill="#8a5a5a"/><circle cx="82.5" cy="145.1" r="3" fill="#8a5a5a"/><circle cx="88.3" cy="145.1" r="3" fill="#8a5a5a"/><circle cx="94.1" cy="145.1" r="3" fill="#8a5a5a"/><circle cx="100.0" cy="145.1" r="3" fill="#8a5a5a"/><circle cx="105.8" cy="145.1" r="3" fill="#8a5a5a"/><circle cx="111.6" cy="145.1" r="3" fill="#8a5a5a"/><circle cx="117.4" cy="145.1" r="3" fill="#8a5a5a"/><circle cx="123.2" cy="145.1" r="3" fill="#8a5a5a"/><circle cx="129.0" cy="145.1" r="3" fill="#8a5a5a"/><circle cx="134.9" cy="145.1" r="3" fill="#8a5a5a"/><circle cx="140.7" cy="145.1" r="3" fill="#8a5a5a"/><circle cx="146.5" cy="145.1" r="3" fill="#8a5a5a"/><circle cx="152.3" cy="145.1" r="3" fill="#8a5a5a"/><circle cx="158.1" cy="145.1" r="3" fill="#8a5a5a"/><circle cx="163.9" cy="145.1" r="3" fill="#8a5a5a"/><circle cx="169.7" cy="145.1" r="3" fill="#8a5a5a"/><circle cx="175.6" cy="145.1" r="3" fill="#8a5a5a"/><circle cx="181.4" cy="145.1" r="3" fill="#8a5a5a"/><circle cx="187.2" cy="145.1" r="3" fill="#8a5a5a"/><circle cx="193.0" cy="145.1" r="3" fill="#8a5a5a"/><circle cx="198.8" cy="145.1" r="3" fill="#8a5a5a"/><circle cx="204.6" cy="145.1" r="3" fill="#8a5a5a"/><circle cx="210.4" cy="145.1" r="3" fill="#8a5a5a"/><circle cx="216.3" cy="145.1" r="3" fill="#8a5a5a"/><circle cx="222.1" cy="145.1" r="3" fill="#8a5a5a"/><circle cx="227.9" cy="145.1" r="3" fill="#8a5a5a"/><circle cx="233.7" cy="145.1" r="3" fill="#8a5a5a"/><circle cx="239.5" cy="145.1" r="3" fill="#8a5a5a"/><circle cx="245.3" cy="145.1" r="3" fill="#8a5a5a"/><circle cx="251.1" cy="145.1" r="3" fill="#8a5a5a"/><circle cx="257.0" cy="145.1" r="3" fill="#8a5a5a"/><circle cx="262.8" cy="145.1" r="3" fill="#8a5a5a"/><circle cx="268.6" cy="145.1" r="3" fill="#8a5a5a"/><circle cx="274.4" cy="145.1" r="3" fill="#8a5a5a"/><circle cx="280.2" cy="145.1" r="3" fill="#8a5a5a"/><circle cx="286.0" cy="145.1" r="3" fill="#8a5a5a"/><circle cx="291.9" cy="145.1" r="3" fill="#8a5a5a"/><circle cx="297.7" cy="145.1" r="3" fill="#8a5a5a"/><circle cx="303.5" cy="145.1" r="3" fill="#8a5a5a"/><circle cx="309.3" cy="145.1" r="3" fill="#8a5a5a"/><circle cx="315.1" cy="145.1" r="3" fill="#8a5a5a"/><circle cx="320.9" cy="145.1" r="3" fill="#8a5a5a"/><circle cx="326.7" cy="155.7" r="3" fill="#8a5a5a"/><circle cx="332.6" cy="155.7" r="3" fill="#8a5a5a"/><circle cx="338.4" cy="155.7" r="3" fill="#8a5a5a"/><circle cx="344.2" cy="155.7" r="3" fill="#8a5a5a"/><circle cx="350.0" cy="155.7" r="3" fill="#8a5a5a"/><circle cx="355.8" cy="155.7" r="3" fill="#8a5a5a"/><circle cx="361.6" cy="155.7" r="3" fill="#8a5a5a"/><circle cx="367.4" cy="155.7" r="3" fill="#8a5a5a"/><circle cx="373.3" cy="155.7" r="3" fill="#8a5a5a"/><circle cx="379.1" cy="155.7" r="3" fill="#8a5a5a"/><circle cx="384.9" cy="155.7" r="3" fill="#8a5a5a"/><circle cx="390.7" cy="155.7" r="3" fill="#8a5a5a"/><circle cx="396.5" cy="155.7" r="3" fill="#8a5a5a"/><circle cx="402.3" cy="155.7" r="3" fill="#8a5a5a"/><circle cx="408.1" cy="155.7" r="3" fill="#8a5a5a"/><circle cx="414.0" cy="155.7" r="3" fill="#8a5a5a"/><circle cx="419.8" cy="155.7" r="3" fill="#8a5a5a"/><circle cx="425.6" cy="155.7" r="3" fill="#8a5a5a"/><circle cx="431.4" cy="155.7" r="3" fill="#8a5a5a"/><circle cx="437.2" cy="155.7" r="3" fill="#8a5a5a"/><circle cx="443.0" cy="155.7" r="3" fill="#8a5a5a"/><circle cx="448.9" cy="155.7" r="3" fill="#8a5a5a"/><circle cx="454.7" cy="155.7" r="3" fill="#8a5a5a"/><circle cx="460.5" cy="155.7" r="3" fill="#8a5a5a"/><circle cx="466.3" cy="155.7" r="3" fill="#8a5a5a"/><circle cx="472.1" cy="155.7" r="3" fill="#8a5a5a"/><circle cx="477.9" cy="155.7" r="3" fill="#8a5a5a"/><circle cx="483.7" cy="155.7" r="3" fill="#8a5a5a"/><circle cx="489.6" cy="155.7" r="3" fill="#8a5a5a"/><circle cx="495.4" cy="155.7" r="3" fill="#8a5a5a"/><circle cx="501.2" cy="155.7" r="3" fill="#8a5a5a"/><circle cx="507.0" cy="155.7" r="3" fill="#8a5a5a"/><circle cx="512.8" cy="155.7" r="3" fill="#8a5a5a"/><circle cx="518.6" cy="155.7" r="3" fill="#8a5a5a"/><circle cx="524.4" cy="167.6" r="3" fill="#8a5a5a"/><circle cx="530.3" cy="167.6" r="3" fill="#8a5a5a"/><circle cx="536.1" cy="170.3" r="3" fill="#8a5a5a"/><circle cx="541.9" cy="170.3" r="3" fill="#8a5a5a"/><circle cx="547.7" cy="170.5" r="3" fill="#8a5a5a"/><circle cx="553.5" cy="170.7" r="3" fill="#8a5a5a"/><circle cx="559.3" cy="170.7" r="3" fill="#8a5a5a"/><circle cx="565.1" cy="170.9" r="3" fill="#8a5a5a"/><circle cx="571.0" cy="172.7" r="3" fill="#8a5a5a"/><circle cx="576.8" cy="180.6" r="3" fill="#8a5a5a"/><circle cx="582.6" cy="181.8" r="3" fill="#8a5a5a"/><circle cx="588.4" cy="189.1" r="3" fill="#8a5a5a"/><circle cx="594.2" cy="190.5" r="3" fill="#8a5a5a"/><circle cx="600.0" cy="195.2" r="3" fill="#8a5a5a"/><circle cx="605.9" cy="198.0" r="3" fill="#8a5a5a"/><circle cx="611.7" cy="198.0" r="3" fill="#8a5a5a"/><circle cx="617.5" cy="198.0" r="3" fill="#8a5a5a"/><circle cx="623.3" cy="198.0" r="3" fill="#8a5a5a"/><circle cx="629.1" cy="198.0" r="3" fill="#8a5a5a"/><circle cx="634.9" cy="198.0" r="3" fill="#8a5a5a"/><circle cx="640.7" cy="198.0" r="3" fill="#8a5a5a"/><circle cx="646.6" cy="198.0" r="3" fill="#8a5a5a"/><circle cx="652.4" cy="198.0" r="3" fill="#8a5a5a"/><circle cx="658.2" cy="198.0" r="3" fill="#8a5a5a"/><circle cx="664.0" cy="198.0" r="3" fill="#8a5a5a"/>
<polyline fill="none" stroke="#3fb950" stroke-width="2.5" stroke-linejoin="round" points="36.0,198.0 41.8,198.0 47.6,198.0 53.4,198.0 59.3,198.0 65.1,198.0 70.9,198.0 76.7,198.0 82.5,198.0 88.3,198.0 94.1,198.0 100.0,198.0 105.8,198.0 111.6,198.0 117.4,198.0 123.2,198.0 129.0,198.0 134.9,198.0 140.7,198.0 146.5,198.0 152.3,198.0 158.1,198.0 163.9,198.0 169.7,198.0 175.6,198.0 181.4,198.0 187.2,198.0 193.0,198.0 198.8,198.0 204.6,198.0 210.4,198.0 216.3,198.0 222.1,198.0 227.9,198.0 233.7,198.0 239.5,198.0 245.3,198.0 251.1,198.0 257.0,198.0 262.8,198.0 268.6,198.0 274.4,198.0 280.2,198.0 286.0,191.7 291.9,191.7 297.7,191.7 303.5,191.7 309.3,191.7 315.1,191.7 320.9,191.7 326.7,192.9 332.6,192.9 338.4,190.7 344.2,190.7 350.0,190.7 355.8,190.7 361.6,190.7 367.4,190.5 373.3,190.5 379.1,190.5 384.9,190.3 390.7,190.3 396.5,190.3 402.3,190.3 408.1,190.3 414.0,190.3 419.8,190.3 425.6,190.3 431.4,190.3 437.2,190.3 443.0,190.3 448.9,190.3 454.7,190.3 460.5,190.3 466.3,190.3 472.1,190.3 477.9,190.3 483.7,190.3 489.6,190.3 495.4,190.3 501.2,190.3 507.0,189.3 512.8,189.3 518.6,189.3 524.4,190.7 530.3,190.7 536.1,190.7 541.9,190.7 547.7,190.7 553.5,190.7 559.3,190.7 565.1,190.7 571.0,190.7 576.8,190.9 582.6,190.9 588.4,190.9 594.2,194.2 600.0,196.8 605.9,198.0 611.7,198.0 617.5,198.0 623.3,198.0 629.1,198.0 634.9,198.0 640.7,198.0 646.6,198.0 652.4,198.0 658.2,198.0 664.0,198.0"/><circle cx="36.0" cy="198.0" r="3" fill="#3fb950"/><circle cx="41.8" cy="198.0" r="3" fill="#3fb950"/><circle cx="47.6" cy="198.0" r="3" fill="#3fb950"/><circle cx="53.4" cy="198.0" r="3" fill="#3fb950"/><circle cx="59.3" cy="198.0" r="3" fill="#3fb950"/><circle cx="65.1" cy="198.0" r="3" fill="#3fb950"/><circle cx="70.9" cy="198.0" r="3" fill="#3fb950"/><circle cx="76.7" cy="198.0" r="3" fill="#3fb950"/><circle cx="82.5" cy="198.0" r="3" fill="#3fb950"/><circle cx="88.3" cy="198.0" r="3" fill="#3fb950"/><circle cx="94.1" cy="198.0" r="3" fill="#3fb950"/><circle cx="100.0" cy="198.0" r="3" fill="#3fb950"/><circle cx="105.8" cy="198.0" r="3" fill="#3fb950"/><circle cx="111.6" cy="198.0" r="3" fill="#3fb950"/><circle cx="117.4" cy="198.0" r="3" fill="#3fb950"/><circle cx="123.2" cy="198.0" r="3" fill="#3fb950"/><circle cx="129.0" cy="198.0" r="3" fill="#3fb950"/><circle cx="134.9" cy="198.0" r="3" fill="#3fb950"/><circle cx="140.7" cy="198.0" r="3" fill="#3fb950"/><circle cx="146.5" cy="198.0" r="3" fill="#3fb950"/><circle cx="152.3" cy="198.0" r="3" fill="#3fb950"/><circle cx="158.1" cy="198.0" r="3" fill="#3fb950"/><circle cx="163.9" cy="198.0" r="3" fill="#3fb950"/><circle cx="169.7" cy="198.0" r="3" fill="#3fb950"/><circle cx="175.6" cy="198.0" r="3" fill="#3fb950"/><circle cx="181.4" cy="198.0" r="3" fill="#3fb950"/><circle cx="187.2" cy="198.0" r="3" fill="#3fb950"/><circle cx="193.0" cy="198.0" r="3" fill="#3fb950"/><circle cx="198.8" cy="198.0" r="3" fill="#3fb950"/><circle cx="204.6" cy="198.0" r="3" fill="#3fb950"/><circle cx="210.4" cy="198.0" r="3" fill="#3fb950"/><circle cx="216.3" cy="198.0" r="3" fill="#3fb950"/><circle cx="222.1" cy="198.0" r="3" fill="#3fb950"/><circle cx="227.9" cy="198.0" r="3" fill="#3fb950"/><circle cx="233.7" cy="198.0" r="3" fill="#3fb950"/><circle cx="239.5" cy="198.0" r="3" fill="#3fb950"/><circle cx="245.3" cy="198.0" r="3" fill="#3fb950"/><circle cx="251.1" cy="198.0" r="3" fill="#3fb950"/><circle cx="257.0" cy="198.0" r="3" fill="#3fb950"/><circle cx="262.8" cy="198.0" r="3" fill="#3fb950"/><circle cx="268.6" cy="198.0" r="3" fill="#3fb950"/><circle cx="274.4" cy="198.0" r="3" fill="#3fb950"/><circle cx="280.2" cy="198.0" r="3" fill="#3fb950"/><circle cx="286.0" cy="191.7" r="3" fill="#3fb950"/><circle cx="291.9" cy="191.7" r="3" fill="#3fb950"/><circle cx="297.7" cy="191.7" r="3" fill="#3fb950"/><circle cx="303.5" cy="191.7" r="3" fill="#3fb950"/><circle cx="309.3" cy="191.7" r="3" fill="#3fb950"/><circle cx="315.1" cy="191.7" r="3" fill="#3fb950"/><circle cx="320.9" cy="191.7" r="3" fill="#3fb950"/><circle cx="326.7" cy="192.9" r="3" fill="#3fb950"/><circle cx="332.6" cy="192.9" r="3" fill="#3fb950"/><circle cx="338.4" cy="190.7" r="3" fill="#3fb950"/><circle cx="344.2" cy="190.7" r="3" fill="#3fb950"/><circle cx="350.0" cy="190.7" r="3" fill="#3fb950"/><circle cx="355.8" cy="190.7" r="3" fill="#3fb950"/><circle cx="361.6" cy="190.7" r="3" fill="#3fb950"/><circle cx="367.4" cy="190.5" r="3" fill="#3fb950"/><circle cx="373.3" cy="190.5" r="3" fill="#3fb950"/><circle cx="379.1" cy="190.5" r="3" fill="#3fb950"/><circle cx="384.9" cy="190.3" r="3" fill="#3fb950"/><circle cx="390.7" cy="190.3" r="3" fill="#3fb950"/><circle cx="396.5" cy="190.3" r="3" fill="#3fb950"/><circle cx="402.3" cy="190.3" r="3" fill="#3fb950"/><circle cx="408.1" cy="190.3" r="3" fill="#3fb950"/><circle cx="414.0" cy="190.3" r="3" fill="#3fb950"/><circle cx="419.8" cy="190.3" r="3" fill="#3fb950"/><circle cx="425.6" cy="190.3" r="3" fill="#3fb950"/><circle cx="431.4" cy="190.3" r="3" fill="#3fb950"/><circle cx="437.2" cy="190.3" r="3" fill="#3fb950"/><circle cx="443.0" cy="190.3" r="3" fill="#3fb950"/><circle cx="448.9" cy="190.3" r="3" fill="#3fb950"/><circle cx="454.7" cy="190.3" r="3" fill="#3fb950"/><circle cx="460.5" cy="190.3" r="3" fill="#3fb950"/><circle cx="466.3" cy="190.3" r="3" fill="#3fb950"/><circle cx="472.1" cy="190.3" r="3" fill="#3fb950"/><circle cx="477.9" cy="190.3" r="3" fill="#3fb950"/><circle cx="483.7" cy="190.3" r="3" fill="#3fb950"/><circle cx="489.6" cy="190.3" r="3" fill="#3fb950"/><circle cx="495.4" cy="190.3" r="3" fill="#3fb950"/><circle cx="501.2" cy="190.3" r="3" fill="#3fb950"/><circle cx="507.0" cy="189.3" r="3" fill="#3fb950"/><circle cx="512.8" cy="189.3" r="3" fill="#3fb950"/><circle cx="518.6" cy="189.3" r="3" fill="#3fb950"/><circle cx="524.4" cy="190.7" r="3" fill="#3fb950"/><circle cx="530.3" cy="190.7" r="3" fill="#3fb950"/><circle cx="536.1" cy="190.7" r="3" fill="#3fb950"/><circle cx="541.9" cy="190.7" r="3" fill="#3fb950"/><circle cx="547.7" cy="190.7" r="3" fill="#3fb950"/><circle cx="553.5" cy="190.7" r="3" fill="#3fb950"/><circle cx="559.3" cy="190.7" r="3" fill="#3fb950"/><circle cx="565.1" cy="190.7" r="3" fill="#3fb950"/><circle cx="571.0" cy="190.7" r="3" fill="#3fb950"/><circle cx="576.8" cy="190.9" r="3" fill="#3fb950"/><circle cx="582.6" cy="190.9" r="3" fill="#3fb950"/><circle cx="588.4" cy="190.9" r="3" fill="#3fb950"/><circle cx="594.2" cy="194.2" r="3" fill="#3fb950"/><circle cx="600.0" cy="196.8" r="3" fill="#3fb950"/><circle cx="605.9" cy="198.0" r="3" fill="#3fb950"/><circle cx="611.7" cy="198.0" r="3" fill="#3fb950"/><circle cx="617.5" cy="198.0" r="3" fill="#3fb950"/><circle cx="623.3" cy="198.0" r="3" fill="#3fb950"/><circle cx="629.1" cy="198.0" r="3" fill="#3fb950"/><circle cx="634.9" cy="198.0" r="3" fill="#3fb950"/><circle cx="640.7" cy="198.0" r="3" fill="#3fb950"/><circle cx="646.6" cy="198.0" r="3" fill="#3fb950"/><circle cx="652.4" cy="198.0" r="3" fill="#3fb950"/><circle cx="658.2" cy="198.0" r="3" fill="#3fb950"/><circle cx="664.0" cy="198.0" r="3" fill="#3fb950"/>
<polyline fill="none" stroke="#4aa3ff" stroke-width="2.5" stroke-linejoin="round" points="36.0,144.3 41.8,144.3 47.6,144.3 53.4,144.3 59.3,144.3 65.1,144.3 70.9,144.3 76.7,144.3 82.5,144.3 88.3,144.3 94.1,144.3 100.0,144.3 105.8,144.3 111.6,144.3 117.4,144.3 123.2,136.2 129.0,132.4 134.9,129.6 140.7,129.6 146.5,121.0 152.3,121.0 158.1,121.0 163.9,114.4 169.7,114.4 175.6,114.4 181.4,111.3 187.2,110.9 193.0,110.9 198.8,110.5 204.6,110.5 210.4,109.9 216.3,108.7 222.1,107.3 227.9,106.9 233.7,106.9 239.5,106.9 245.3,106.9 251.1,106.9 257.0,106.9 262.8,106.9 268.6,106.9 274.4,106.9 280.2,106.9 286.0,113.2 291.9,113.2 297.7,113.2 303.5,113.2 309.3,113.2 315.1,110.7 320.9,105.3 326.7,83.4 332.6,83.4 338.4,85.6 344.2,85.6 350.0,85.6 355.8,85.6 361.6,85.6 367.4,85.8 373.3,85.8 379.1,85.8 384.9,86.0 390.7,86.0 396.5,86.0 402.3,86.0 408.1,86.0 414.0,86.0 419.8,86.0 425.6,86.0 431.4,86.0 437.2,86.0 443.0,86.0 448.9,86.0 454.7,86.0 460.5,86.0 466.3,86.0 472.1,86.0 477.9,86.0 483.7,86.0 489.6,86.0 495.4,86.0 501.2,86.0 507.0,87.0 512.8,87.0 518.6,87.0 524.4,73.7 530.3,73.7 536.1,71.0 541.9,71.0 547.7,70.8 553.5,70.6 559.3,70.6 565.1,70.4 571.0,68.6 576.8,60.5 582.6,59.3 588.4,52.0 594.2,47.3 600.0,40.1 605.9,36.0 611.7,36.0 617.5,36.0 623.3,36.0 629.1,36.0 634.9,36.0 640.7,36.0 646.6,36.0 652.4,36.0 658.2,36.0 664.0,36.0"/><circle cx="36.0" cy="144.3" r="3" fill="#4aa3ff"/><circle cx="41.8" cy="144.3" r="3" fill="#4aa3ff"/><circle cx="47.6" cy="144.3" r="3" fill="#4aa3ff"/><circle cx="53.4" cy="144.3" r="3" fill="#4aa3ff"/><circle cx="59.3" cy="144.3" r="3" fill="#4aa3ff"/><circle cx="65.1" cy="144.3" r="3" fill="#4aa3ff"/><circle cx="70.9" cy="144.3" r="3" fill="#4aa3ff"/><circle cx="76.7" cy="144.3" r="3" fill="#4aa3ff"/><circle cx="82.5" cy="144.3" r="3" fill="#4aa3ff"/><circle cx="88.3" cy="144.3" r="3" fill="#4aa3ff"/><circle cx="94.1" cy="144.3" r="3" fill="#4aa3ff"/><circle cx="100.0" cy="144.3" r="3" fill="#4aa3ff"/><circle cx="105.8" cy="144.3" r="3" fill="#4aa3ff"/><circle cx="111.6" cy="144.3" r="3" fill="#4aa3ff"/><circle cx="117.4" cy="144.3" r="3" fill="#4aa3ff"/><circle cx="123.2" cy="136.2" r="3" fill="#4aa3ff"/><circle cx="129.0" cy="132.4" r="3" fill="#4aa3ff"/><circle cx="134.9" cy="129.6" r="3" fill="#4aa3ff"/><circle cx="140.7" cy="129.6" r="3" fill="#4aa3ff"/><circle cx="146.5" cy="121.0" r="3" fill="#4aa3ff"/><circle cx="152.3" cy="121.0" r="3" fill="#4aa3ff"/><circle cx="158.1" cy="121.0" r="3" fill="#4aa3ff"/><circle cx="163.9" cy="114.4" r="3" fill="#4aa3ff"/><circle cx="169.7" cy="114.4" r="3" fill="#4aa3ff"/><circle cx="175.6" cy="114.4" r="3" fill="#4aa3ff"/><circle cx="181.4" cy="111.3" r="3" fill="#4aa3ff"/><circle cx="187.2" cy="110.9" r="3" fill="#4aa3ff"/><circle cx="193.0" cy="110.9" r="3" fill="#4aa3ff"/><circle cx="198.8" cy="110.5" r="3" fill="#4aa3ff"/><circle cx="204.6" cy="110.5" r="3" fill="#4aa3ff"/><circle cx="210.4" cy="109.9" r="3" fill="#4aa3ff"/><circle cx="216.3" cy="108.7" r="3" fill="#4aa3ff"/><circle cx="222.1" cy="107.3" r="3" fill="#4aa3ff"/><circle cx="227.9" cy="106.9" r="3" fill="#4aa3ff"/><circle cx="233.7" cy="106.9" r="3" fill="#4aa3ff"/><circle cx="239.5" cy="106.9" r="3" fill="#4aa3ff"/><circle cx="245.3" cy="106.9" r="3" fill="#4aa3ff"/><circle cx="251.1" cy="106.9" r="3" fill="#4aa3ff"/><circle cx="257.0" cy="106.9" r="3" fill="#4aa3ff"/><circle cx="262.8" cy="106.9" r="3" fill="#4aa3ff"/><circle cx="268.6" cy="106.9" r="3" fill="#4aa3ff"/><circle cx="274.4" cy="106.9" r="3" fill="#4aa3ff"/><circle cx="280.2" cy="106.9" r="3" fill="#4aa3ff"/><circle cx="286.0" cy="113.2" r="3" fill="#4aa3ff"/><circle cx="291.9" cy="113.2" r="3" fill="#4aa3ff"/><circle cx="297.7" cy="113.2" r="3" fill="#4aa3ff"/><circle cx="303.5" cy="113.2" r="3" fill="#4aa3ff"/><circle cx="309.3" cy="113.2" r="3" fill="#4aa3ff"/><circle cx="315.1" cy="110.7" r="3" fill="#4aa3ff"/><circle cx="320.9" cy="105.3" r="3" fill="#4aa3ff"/><circle cx="326.7" cy="83.4" r="3" fill="#4aa3ff"/><circle cx="332.6" cy="83.4" r="3" fill="#4aa3ff"/><circle cx="338.4" cy="85.6" r="3" fill="#4aa3ff"/><circle cx="344.2" cy="85.6" r="3" fill="#4aa3ff"/><circle cx="350.0" cy="85.6" r="3" fill="#4aa3ff"/><circle cx="355.8" cy="85.6" r="3" fill="#4aa3ff"/><circle cx="361.6" cy="85.6" r="3" fill="#4aa3ff"/><circle cx="367.4" cy="85.8" r="3" fill="#4aa3ff"/><circle cx="373.3" cy="85.8" r="3" fill="#4aa3ff"/><circle cx="379.1" cy="85.8" r="3" fill="#4aa3ff"/><circle cx="384.9" cy="86.0" r="3" fill="#4aa3ff"/><circle cx="390.7" cy="86.0" r="3" fill="#4aa3ff"/><circle cx="396.5" cy="86.0" r="3" fill="#4aa3ff"/><circle cx="402.3" cy="86.0" r="3" fill="#4aa3ff"/><circle cx="408.1" cy="86.0" r="3" fill="#4aa3ff"/><circle cx="414.0" cy="86.0" r="3" fill="#4aa3ff"/><circle cx="419.8" cy="86.0" r="3" fill="#4aa3ff"/><circle cx="425.6" cy="86.0" r="3" fill="#4aa3ff"/><circle cx="431.4" cy="86.0" r="3" fill="#4aa3ff"/><circle cx="437.2" cy="86.0" r="3" fill="#4aa3ff"/><circle cx="443.0" cy="86.0" r="3" fill="#4aa3ff"/><circle cx="448.9" cy="86.0" r="3" fill="#4aa3ff"/><circle cx="454.7" cy="86.0" r="3" fill="#4aa3ff"/><circle cx="460.5" cy="86.0" r="3" fill="#4aa3ff"/><circle cx="466.3" cy="86.0" r="3" fill="#4aa3ff"/><circle cx="472.1" cy="86.0" r="3" fill="#4aa3ff"/><circle cx="477.9" cy="86.0" r="3" fill="#4aa3ff"/><circle cx="483.7" cy="86.0" r="3" fill="#4aa3ff"/><circle cx="489.6" cy="86.0" r="3" fill="#4aa3ff"/><circle cx="495.4" cy="86.0" r="3" fill="#4aa3ff"/><circle cx="501.2" cy="86.0" r="3" fill="#4aa3ff"/><circle cx="507.0" cy="87.0" r="3" fill="#4aa3ff"/><circle cx="512.8" cy="87.0" r="3" fill="#4aa3ff"/><circle cx="518.6" cy="87.0" r="3" fill="#4aa3ff"/><circle cx="524.4" cy="73.7" r="3" fill="#4aa3ff"/><circle cx="530.3" cy="73.7" r="3" fill="#4aa3ff"/><circle cx="536.1" cy="71.0" r="3" fill="#4aa3ff"/><circle cx="541.9" cy="71.0" r="3" fill="#4aa3ff"/><circle cx="547.7" cy="70.8" r="3" fill="#4aa3ff"/><circle cx="553.5" cy="70.6" r="3" fill="#4aa3ff"/><circle cx="559.3" cy="70.6" r="3" fill="#4aa3ff"/><circle cx="565.1" cy="70.4" r="3" fill="#4aa3ff"/><circle cx="571.0" cy="68.6" r="3" fill="#4aa3ff"/><circle cx="576.8" cy="60.5" r="3" fill="#4aa3ff"/><circle cx="582.6" cy="59.3" r="3" fill="#4aa3ff"/><circle cx="588.4" cy="52.0" r="3" fill="#4aa3ff"/><circle cx="594.2" cy="47.3" r="3" fill="#4aa3ff"/><circle cx="600.0" cy="40.1" r="3" fill="#4aa3ff"/><circle cx="605.9" cy="36.0" r="3" fill="#4aa3ff"/><circle cx="611.7" cy="36.0" r="3" fill="#4aa3ff"/><circle cx="617.5" cy="36.0" r="3" fill="#4aa3ff"/><circle cx="623.3" cy="36.0" r="3" fill="#4aa3ff"/><circle cx="629.1" cy="36.0" r="3" fill="#4aa3ff"/><circle cx="634.9" cy="36.0" r="3" fill="#4aa3ff"/><circle cx="640.7" cy="36.0" r="3" fill="#4aa3ff"/><circle cx="646.6" cy="36.0" r="3" fill="#4aa3ff"/><circle cx="652.4" cy="36.0" r="3" fill="#4aa3ff"/><circle cx="658.2" cy="36.0" r="3" fill="#4aa3ff"/><circle cx="664.0" cy="36.0" r="3" fill="#4aa3ff"/>
<text x="36" y="225" fill="#6b7280" font-size="11">2026-06-26</text>
<text x="664" y="225" fill="#6b7280" font-size="11" text-anchor="end">2026-07-08</text>
<text x="36" y="212" font-family="system-ui,sans-serif" font-size="11">
<tspan fill="#4aa3ff">&#9679; open FPs</tspan>  <tspan fill="#3fb950">&#9679; closed (Anthropic acting)</tspan>  <tspan fill="#8a5a5a">&#9679; harness withdrawn</tspan></text>
<text x="664" y="22" text-anchor="end" font-family="system-ui,sans-serif" font-size="12">
<tspan fill="#4aa3ff">open 800</tspan>  <tspan fill="#3fb950">closed 0</tspan>  <tspan fill="#8a5a5a">harness 0</tspan></text>
</svg>