<svg xmlns="http://www.w3.org/2000/svg" width="700" height="234" viewBox="0 0 700 234" role="img">
<rect width="700" height="234" rx="12" fill="#16181d"/>
<text x="36" y="22" fill="#e8eaed" font-family="system-ui,sans-serif" font-size="14" font-weight="700">Is Anthropic acting? cyber/aup false positives over time</text>
<line x1="36" y1="198.0" x2="664" y2="198.0" stroke="#2a2e37" stroke-width="1"/><text x="30" y="202.0" fill="#6b7280" font-size="11" text-anchor="end">0</text><line x1="36" y1="117.0" x2="664" y2="117.0" stroke="#2a2e37" stroke-width="1"/><text x="30" y="121.0" fill="#6b7280" font-size="11" text-anchor="end">400</text><line x1="36" y1="36.0" x2="664" y2="36.0" stroke="#2a2e37" stroke-width="1"/><text x="30" y="40.0" fill="#6b7280" font-size="11" text-anchor="end">800</text>

<polyline fill="none" stroke="#8a5a5a" stroke-width="2.5" stroke-linejoin="round" points="36.0,145.1 40.7,145.1 45.3,145.1 50.0,145.1 54.6,145.1 59.3,145.1 63.9,145.1 68.6,145.1 73.2,145.1 77.9,145.1 82.5,145.1 87.2,145.1 91.8,145.1 96.5,145.1 101.1,145.1 105.8,145.1 110.4,145.1 115.1,145.1 119.7,145.1 124.4,145.1 129.0,145.1 133.7,145.1 138.3,145.1 143.0,145.1 147.6,145.1 152.3,145.1 156.9,145.1 161.6,145.1 166.3,145.1 170.9,145.1 175.6,145.1 180.2,145.1 184.9,145.1 189.5,145.1 194.2,145.1 198.8,145.1 203.5,145.1 208.1,145.1 212.8,145.1 217.4,145.1 222.1,145.1 226.7,145.1 231.4,145.1 236.0,145.1 240.7,145.1 245.3,145.1 250.0,145.1 254.6,145.1 259.3,145.1 263.9,145.1 268.6,155.7 273.2,155.7 277.9,155.7 282.5,155.7 287.2,155.7 291.9,155.7 296.5,155.7 301.2,155.7 305.8,155.7 310.5,155.7 315.1,155.7 319.8,155.7 324.4,155.7 329.1,155.7 333.7,155.7 338.4,155.7 343.0,155.7 347.7,155.7 352.3,155.7 357.0,155.7 361.6,155.7 366.3,155.7 370.9,155.7 375.6,155.7 380.2,155.7 384.9,155.7 389.5,155.7 394.2,155.7 398.8,155.7 403.5,155.7 408.1,155.7 412.8,155.7 417.5,155.7 422.1,155.7 426.8,167.6 431.4,167.6 436.1,170.3 440.7,170.3 445.4,170.5 450.0,170.7 454.7,170.7 459.3,170.9 464.0,172.7 468.6,180.6 473.3,181.8 477.9,189.1 482.6,190.5 487.2,195.2 491.9,198.0 496.5,198.0 501.2,198.0 505.8,198.0 510.5,198.0 515.1,198.0 519.8,198.0 524.4,198.0 529.1,198.0 533.7,198.0 538.4,198.0 543.1,198.0 547.7,198.0 552.4,198.0 557.0,198.0 561.7,198.0 566.3,198.0 571.0,198.0 575.6,198.0 580.3,198.0 584.9,198.0 589.6,198.0 594.2,198.0 598.9,198.0 603.5,198.0 608.2,198.0 612.8,198.0 617.5,198.0 622.1,198.0 626.8,198.0 631.4,198.0 636.1,198.0 640.7,198.0 645.4,198.0 650.0,198.0 654.7,198.0 659.3,198.0 664.0,198.0"/><circle cx="36.0" cy="145.1" r="3" fill="#8a5a5a"/><circle cx="40.7" cy="145.1" r="3" fill="#8a5a5a"/><circle cx="45.3" cy="145.1" r="3" fill="#8a5a5a"/><circle cx="50.0" cy="145.1" r="3" fill="#8a5a5a"/><circle cx="54.6" cy="145.1" r="3" fill="#8a5a5a"/><circle cx="59.3" cy="145.1" r="3" fill="#8a5a5a"/><circle cx="63.9" cy="145.1" r="3" fill="#8a5a5a"/><circle cx="68.6" cy="145.1" r="3" fill="#8a5a5a"/><circle cx="73.2" cy="145.1" r="3" fill="#8a5a5a"/><circle cx="77.9" cy="145.1" r="3" fill="#8a5a5a"/><circle cx="82.5" cy="145.1" r="3" fill="#8a5a5a"/><circle cx="87.2" cy="145.1" r="3" fill="#8a5a5a"/><circle cx="91.8" cy="145.1" r="3" fill="#8a5a5a"/><circle cx="96.5" cy="145.1" r="3" fill="#8a5a5a"/><circle cx="101.1" cy="145.1" r="3" fill="#8a5a5a"/><circle cx="105.8" cy="145.1" r="3" fill="#8a5a5a"/><circle cx="110.4" cy="145.1" r="3" fill="#8a5a5a"/><circle cx="115.1" cy="145.1" r="3" fill="#8a5a5a"/><circle cx="119.7" cy="145.1" r="3" fill="#8a5a5a"/><circle cx="124.4" cy="145.1" r="3" fill="#8a5a5a"/><circle cx="129.0" cy="145.1" r="3" fill="#8a5a5a"/><circle cx="133.7" cy="145.1" r="3" fill="#8a5a5a"/><circle cx="138.3" cy="145.1" r="3" fill="#8a5a5a"/><circle cx="143.0" cy="145.1" r="3" fill="#8a5a5a"/><circle cx="147.6" cy="145.1" r="3" fill="#8a5a5a"/><circle cx="152.3" cy="145.1" r="3" fill="#8a5a5a"/><circle cx="156.9" cy="145.1" r="3" fill="#8a5a5a"/><circle cx="161.6" cy="145.1" r="3" fill="#8a5a5a"/><circle cx="166.3" cy="145.1" r="3" fill="#8a5a5a"/><circle cx="170.9" cy="145.1" r="3" fill="#8a5a5a"/><circle cx="175.6" cy="145.1" r="3" fill="#8a5a5a"/><circle cx="180.2" cy="145.1" r="3" fill="#8a5a5a"/><circle cx="184.9" cy="145.1" r="3" fill="#8a5a5a"/><circle cx="189.5" cy="145.1" r="3" fill="#8a5a5a"/><circle cx="194.2" cy="145.1" r="3" fill="#8a5a5a"/><circle cx="198.8" cy="145.1" r="3" fill="#8a5a5a"/><circle cx="203.5" cy="145.1" r="3" fill="#8a5a5a"/><circle cx="208.1" cy="145.1" r="3" fill="#8a5a5a"/><circle cx="212.8" cy="145.1" r="3" fill="#8a5a5a"/><circle cx="217.4" cy="145.1" r="3" fill="#8a5a5a"/><circle cx="222.1" cy="145.1" r="3" fill="#8a5a5a"/><circle cx="226.7" cy="145.1" r="3" fill="#8a5a5a"/><circle cx="231.4" cy="145.1" r="3" fill="#8a5a5a"/><circle cx="236.0" cy="145.1" r="3" fill="#8a5a5a"/><circle cx="240.7" cy="145.1" r="3" fill="#8a5a5a"/><circle cx="245.3" cy="145.1" r="3" fill="#8a5a5a"/><circle cx="250.0" cy="145.1" r="3" fill="#8a5a5a"/><circle cx="254.6" cy="145.1" r="3" fill="#8a5a5a"/><circle cx="259.3" cy="145.1" r="3" fill="#8a5a5a"/><circle cx="263.9" cy="145.1" r="3" fill="#8a5a5a"/><circle cx="268.6" cy="155.7" r="3" fill="#8a5a5a"/><circle cx="273.2" cy="155.7" r="3" fill="#8a5a5a"/><circle cx="277.9" cy="155.7" r="3" fill="#8a5a5a"/><circle cx="282.5" cy="155.7" r="3" fill="#8a5a5a"/><circle cx="287.2" cy="155.7" r="3" fill="#8a5a5a"/><circle cx="291.9" cy="155.7" r="3" fill="#8a5a5a"/><circle cx="296.5" cy="155.7" r="3" fill="#8a5a5a"/><circle cx="301.2" cy="155.7" r="3" fill="#8a5a5a"/><circle cx="305.8" cy="155.7" r="3" fill="#8a5a5a"/><circle cx="310.5" cy="155.7" r="3" fill="#8a5a5a"/><circle cx="315.1" cy="155.7" r="3" fill="#8a5a5a"/><circle cx="319.8" cy="155.7" r="3" fill="#8a5a5a"/><circle cx="324.4" cy="155.7" r="3" fill="#8a5a5a"/><circle cx="329.1" cy="155.7" r="3" fill="#8a5a5a"/><circle cx="333.7" cy="155.7" r="3" fill="#8a5a5a"/><circle cx="338.4" cy="155.7" r="3" fill="#8a5a5a"/><circle cx="343.0" cy="155.7" r="3" fill="#8a5a5a"/><circle cx="347.7" cy="155.7" r="3" fill="#8a5a5a"/><circle cx="352.3" cy="155.7" r="3" fill="#8a5a5a"/><circle cx="357.0" cy="155.7" r="3" fill="#8a5a5a"/><circle cx="361.6" cy="155.7" r="3" fill="#8a5a5a"/><circle cx="366.3" cy="155.7" r="3" fill="#8a5a5a"/><circle cx="370.9" cy="155.7" r="3" fill="#8a5a5a"/><circle cx="375.6" cy="155.7" r="3" fill="#8a5a5a"/><circle cx="380.2" cy="155.7" r="3" fill="#8a5a5a"/><circle cx="384.9" cy="155.7" r="3" fill="#8a5a5a"/><circle cx="389.5" cy="155.7" r="3" fill="#8a5a5a"/><circle cx="394.2" cy="155.7" r="3" fill="#8a5a5a"/><circle cx="398.8" cy="155.7" r="3" fill="#8a5a5a"/><circle cx="403.5" cy="155.7" r="3" fill="#8a5a5a"/><circle cx="408.1" cy="155.7" r="3" fill="#8a5a5a"/><circle cx="412.8" cy="155.7" r="3" fill="#8a5a5a"/><circle cx="417.5" cy="155.7" r="3" fill="#8a5a5a"/><circle cx="422.1" cy="155.7" r="3" fill="#8a5a5a"/><circle cx="426.8" cy="167.6" r="3" fill="#8a5a5a"/><circle cx="431.4" cy="167.6" r="3" fill="#8a5a5a"/><circle cx="436.1" cy="170.3" r="3" fill="#8a5a5a"/><circle cx="440.7" cy="170.3" r="3" fill="#8a5a5a"/><circle cx="445.4" cy="170.5" r="3" fill="#8a5a5a"/><circle cx="450.0" cy="170.7" r="3" fill="#8a5a5a"/><circle cx="454.7" cy="170.7" r="3" fill="#8a5a5a"/><circle cx="459.3" cy="170.9" r="3" fill="#8a5a5a"/><circle cx="464.0" cy="172.7" r="3" fill="#8a5a5a"/><circle cx="468.6" cy="180.6" r="3" fill="#8a5a5a"/><circle cx="473.3" cy="181.8" r="3" fill="#8a5a5a"/><circle cx="477.9" cy="189.1" r="3" fill="#8a5a5a"/><circle cx="482.6" cy="190.5" r="3" fill="#8a5a5a"/><circle cx="487.2" cy="195.2" r="3" fill="#8a5a5a"/><circle cx="491.9" cy="198.0" r="3" fill="#8a5a5a"/><circle cx="496.5" cy="198.0" r="3" fill="#8a5a5a"/><circle cx="501.2" cy="198.0" r="3" fill="#8a5a5a"/><circle cx="505.8" cy="198.0" r="3" fill="#8a5a5a"/><circle cx="510.5" cy="198.0" r="3" fill="#8a5a5a"/><circle cx="515.1" cy="198.0" r="3" fill="#8a5a5a"/><circle cx="519.8" cy="198.0" r="3" fill="#8a5a5a"/><circle cx="524.4" cy="198.0" r="3" fill="#8a5a5a"/><circle cx="529.1" cy="198.0" r="3" fill="#8a5a5a"/><circle cx="533.7" cy="198.0" r="3" fill="#8a5a5a"/><circle cx="538.4" cy="198.0" r="3" fill="#8a5a5a"/><circle cx="543.1" cy="198.0" r="3" fill="#8a5a5a"/><circle cx="547.7" cy="198.0" r="3" fill="#8a5a5a"/><circle cx="552.4" cy="198.0" r="3" fill="#8a5a5a"/><circle cx="557.0" cy="198.0" r="3" fill="#8a5a5a"/><circle cx="561.7" cy="198.0" r="3" fill="#8a5a5a"/><circle cx="566.3" cy="198.0" r="3" fill="#8a5a5a"/><circle cx="571.0" cy="198.0" r="3" fill="#8a5a5a"/><circle cx="575.6" cy="198.0" r="3" fill="#8a5a5a"/><circle cx="580.3" cy="198.0" r="3" fill="#8a5a5a"/><circle cx="584.9" cy="198.0" r="3" fill="#8a5a5a"/><circle cx="589.6" cy="198.0" r="3" fill="#8a5a5a"/><circle cx="594.2" cy="198.0" r="3" fill="#8a5a5a"/><circle cx="598.9" cy="198.0" r="3" fill="#8a5a5a"/><circle cx="603.5" cy="198.0" r="3" fill="#8a5a5a"/><circle cx="608.2" cy="198.0" r="3" fill="#8a5a5a"/><circle cx="612.8" cy="198.0" r="3" fill="#8a5a5a"/><circle cx="617.5" cy="198.0" r="3" fill="#8a5a5a"/><circle cx="622.1" cy="198.0" r="3" fill="#8a5a5a"/><circle cx="626.8" cy="198.0" r="3" fill="#8a5a5a"/><circle cx="631.4" cy="198.0" r="3" fill="#8a5a5a"/><circle cx="636.1" cy="198.0" r="3" fill="#8a5a5a"/><circle cx="640.7" cy="198.0" r="3" fill="#8a5a5a"/><circle cx="645.4" cy="198.0" r="3" fill="#8a5a5a"/><circle cx="650.0" cy="198.0" r="3" fill="#8a5a5a"/><circle cx="654.7" cy="198.0" r="3" fill="#8a5a5a"/><circle cx="659.3" cy="198.0" r="3" fill="#8a5a5a"/><circle cx="664.0" cy="198.0" r="3" fill="#8a5a5a"/>
<polyline fill="none" stroke="#3fb950" stroke-width="2.5" stroke-linejoin="round" points="36.0,198.0 40.7,198.0 45.3,198.0 50.0,198.0 54.6,198.0 59.3,198.0 63.9,198.0 68.6,198.0 73.2,198.0 77.9,198.0 82.5,198.0 87.2,198.0 91.8,198.0 96.5,198.0 101.1,198.0 105.8,198.0 110.4,198.0 115.1,198.0 119.7,198.0 124.4,198.0 129.0,198.0 133.7,198.0 138.3,198.0 143.0,198.0 147.6,198.0 152.3,198.0 156.9,198.0 161.6,198.0 166.3,198.0 170.9,198.0 175.6,198.0 180.2,198.0 184.9,198.0 189.5,198.0 194.2,198.0 198.8,198.0 203.5,198.0 208.1,198.0 212.8,198.0 217.4,198.0 222.1,198.0 226.7,198.0 231.4,198.0 236.0,191.7 240.7,191.7 245.3,191.7 250.0,191.7 254.6,191.7 259.3,191.7 263.9,191.7 268.6,192.9 273.2,192.9 277.9,190.7 282.5,190.7 287.2,190.7 291.9,190.7 296.5,190.7 301.2,190.5 305.8,190.5 310.5,190.5 315.1,190.3 319.8,190.3 324.4,190.3 329.1,190.3 333.7,190.3 338.4,190.3 343.0,190.3 347.7,190.3 352.3,190.3 357.0,190.3 361.6,190.3 366.3,190.3 370.9,190.3 375.6,190.3 380.2,190.3 384.9,190.3 389.5,190.3 394.2,190.3 398.8,190.3 403.5,190.3 408.1,190.3 412.8,189.3 417.5,189.3 422.1,189.3 426.8,190.7 431.4,190.7 436.1,190.7 440.7,190.7 445.4,190.7 450.0,190.7 454.7,190.7 459.3,190.7 464.0,190.7 468.6,190.9 473.3,190.9 477.9,190.9 482.6,194.2 487.2,196.8 491.9,198.0 496.5,198.0 501.2,198.0 505.8,198.0 510.5,198.0 515.1,198.0 519.8,198.0 524.4,198.0 529.1,198.0 533.7,198.0 538.4,198.0 543.1,198.0 547.7,198.0 552.4,198.0 557.0,198.0 561.7,198.0 566.3,198.0 571.0,198.0 575.6,198.0 580.3,198.0 584.9,198.0 589.6,198.0 594.2,198.0 598.9,198.0 603.5,198.0 608.2,198.0 612.8,198.0 617.5,198.0 622.1,198.0 626.8,198.0 631.4,198.0 636.1,198.0 640.7,198.0 645.4,198.0 650.0,198.0 654.7,198.0 659.3,198.0 664.0,198.0"/><circle cx="36.0" cy="198.0" r="3" fill="#3fb950"/><circle cx="40.7" cy="198.0" r="3" fill="#3fb950"/><circle cx="45.3" cy="198.0" r="3" fill="#3fb950"/><circle cx="50.0" cy="198.0" r="3" fill="#3fb950"/><circle cx="54.6" cy="198.0" r="3" fill="#3fb950"/><circle cx="59.3" cy="198.0" r="3" fill="#3fb950"/><circle cx="63.9" cy="198.0" r="3" fill="#3fb950"/><circle cx="68.6" cy="198.0" r="3" fill="#3fb950"/><circle cx="73.2" cy="198.0" r="3" fill="#3fb950"/><circle cx="77.9" cy="198.0" r="3" fill="#3fb950"/><circle cx="82.5" cy="198.0" r="3" fill="#3fb950"/><circle cx="87.2" cy="198.0" r="3" fill="#3fb950"/><circle cx="91.8" cy="198.0" r="3" fill="#3fb950"/><circle cx="96.5" cy="198.0" r="3" fill="#3fb950"/><circle cx="101.1" cy="198.0" r="3" fill="#3fb950"/><circle cx="105.8" cy="198.0" r="3" fill="#3fb950"/><circle cx="110.4" cy="198.0" r="3" fill="#3fb950"/><circle cx="115.1" cy="198.0" r="3" fill="#3fb950"/><circle cx="119.7" cy="198.0" r="3" fill="#3fb950"/><circle cx="124.4" cy="198.0" r="3" fill="#3fb950"/><circle cx="129.0" cy="198.0" r="3" fill="#3fb950"/><circle cx="133.7" cy="198.0" r="3" fill="#3fb950"/><circle cx="138.3" cy="198.0" r="3" fill="#3fb950"/><circle cx="143.0" cy="198.0" r="3" fill="#3fb950"/><circle cx="147.6" cy="198.0" r="3" fill="#3fb950"/><circle cx="152.3" cy="198.0" r="3" fill="#3fb950"/><circle cx="156.9" cy="198.0" r="3" fill="#3fb950"/><circle cx="161.6" cy="198.0" r="3" fill="#3fb950"/><circle cx="166.3" cy="198.0" r="3" fill="#3fb950"/><circle cx="170.9" cy="198.0" r="3" fill="#3fb950"/><circle cx="175.6" cy="198.0" r="3" fill="#3fb950"/><circle cx="180.2" cy="198.0" r="3" fill="#3fb950"/><circle cx="184.9" cy="198.0" r="3" fill="#3fb950"/><circle cx="189.5" cy="198.0" r="3" fill="#3fb950"/><circle cx="194.2" cy="198.0" r="3" fill="#3fb950"/><circle cx="198.8" cy="198.0" r="3" fill="#3fb950"/><circle cx="203.5" cy="198.0" r="3" fill="#3fb950"/><circle cx="208.1" cy="198.0" r="3" fill="#3fb950"/><circle cx="212.8" cy="198.0" r="3" fill="#3fb950"/><circle cx="217.4" cy="198.0" r="3" fill="#3fb950"/><circle cx="222.1" cy="198.0" r="3" fill="#3fb950"/><circle cx="226.7" cy="198.0" r="3" fill="#3fb950"/><circle cx="231.4" cy="198.0" r="3" fill="#3fb950"/><circle cx="236.0" cy="191.7" r="3" fill="#3fb950"/><circle cx="240.7" cy="191.7" r="3" fill="#3fb950"/><circle cx="245.3" cy="191.7" r="3" fill="#3fb950"/><circle cx="250.0" cy="191.7" r="3" fill="#3fb950"/><circle cx="254.6" cy="191.7" r="3" fill="#3fb950"/><circle cx="259.3" cy="191.7" r="3" fill="#3fb950"/><circle cx="263.9" cy="191.7" r="3" fill="#3fb950"/><circle cx="268.6" cy="192.9" r="3" fill="#3fb950"/><circle cx="273.2" cy="192.9" r="3" fill="#3fb950"/><circle cx="277.9" cy="190.7" r="3" fill="#3fb950"/><circle cx="282.5" cy="190.7" r="3" fill="#3fb950"/><circle cx="287.2" cy="190.7" r="3" fill="#3fb950"/><circle cx="291.9" cy="190.7" r="3" fill="#3fb950"/><circle cx="296.5" cy="190.7" r="3" fill="#3fb950"/><circle cx="301.2" cy="190.5" r="3" fill="#3fb950"/><circle cx="305.8" cy="190.5" r="3" fill="#3fb950"/><circle cx="310.5" cy="190.5" r="3" fill="#3fb950"/><circle cx="315.1" cy="190.3" r="3" fill="#3fb950"/><circle cx="319.8" cy="190.3" r="3" fill="#3fb950"/><circle cx="324.4" cy="190.3" r="3" fill="#3fb950"/><circle cx="329.1" cy="190.3" r="3" fill="#3fb950"/><circle cx="333.7" cy="190.3" r="3" fill="#3fb950"/><circle cx="338.4" cy="190.3" r="3" fill="#3fb950"/><circle cx="343.0" cy="190.3" r="3" fill="#3fb950"/><circle cx="347.7" cy="190.3" r="3" fill="#3fb950"/><circle cx="352.3" cy="190.3" r="3" fill="#3fb950"/><circle cx="357.0" cy="190.3" r="3" fill="#3fb950"/><circle cx="361.6" cy="190.3" r="3" fill="#3fb950"/><circle cx="366.3" cy="190.3" r="3" fill="#3fb950"/><circle cx="370.9" cy="190.3" r="3" fill="#3fb950"/><circle cx="375.6" cy="190.3" r="3" fill="#3fb950"/><circle cx="380.2" cy="190.3" r="3" fill="#3fb950"/><circle cx="384.9" cy="190.3" r="3" fill="#3fb950"/><circle cx="389.5" cy="190.3" r="3" fill="#3fb950"/><circle cx="394.2" cy="190.3" r="3" fill="#3fb950"/><circle cx="398.8" cy="190.3" r="3" fill="#3fb950"/><circle cx="403.5" cy="190.3" r="3" fill="#3fb950"/><circle cx="408.1" cy="190.3" r="3" fill="#3fb950"/><circle cx="412.8" cy="189.3" r="3" fill="#3fb950"/><circle cx="417.5" cy="189.3" r="3" fill="#3fb950"/><circle cx="422.1" cy="189.3" r="3" fill="#3fb950"/><circle cx="426.8" cy="190.7" r="3" fill="#3fb950"/><circle cx="431.4" cy="190.7" r="3" fill="#3fb950"/><circle cx="436.1" cy="190.7" r="3" fill="#3fb950"/><circle cx="440.7" cy="190.7" r="3" fill="#3fb950"/><circle cx="445.4" cy="190.7" r="3" fill="#3fb950"/><circle cx="450.0" cy="190.7" r="3" fill="#3fb950"/><circle cx="454.7" cy="190.7" r="3" fill="#3fb950"/><circle cx="459.3" cy="190.7" r="3" fill="#3fb950"/><circle cx="464.0" cy="190.7" r="3" fill="#3fb950"/><circle cx="468.6" cy="190.9" r="3" fill="#3fb950"/><circle cx="473.3" cy="190.9" r="3" fill="#3fb950"/><circle cx="477.9" cy="190.9" r="3" fill="#3fb950"/><circle cx="482.6" cy="194.2" r="3" fill="#3fb950"/><circle cx="487.2" cy="196.8" r="3" fill="#3fb950"/><circle cx="491.9" cy="198.0" r="3" fill="#3fb950"/><circle cx="496.5" cy="198.0" r="3" fill="#3fb950"/><circle cx="501.2" cy="198.0" r="3" fill="#3fb950"/><circle cx="505.8" cy="198.0" r="3" fill="#3fb950"/><circle cx="510.5" cy="198.0" r="3" fill="#3fb950"/><circle cx="515.1" cy="198.0" r="3" fill="#3fb950"/><circle cx="519.8" cy="198.0" r="3" fill="#3fb950"/><circle cx="524.4" cy="198.0" r="3" fill="#3fb950"/><circle cx="529.1" cy="198.0" r="3" fill="#3fb950"/><circle cx="533.7" cy="198.0" r="3" fill="#3fb950"/><circle cx="538.4" cy="198.0" r="3" fill="#3fb950"/><circle cx="543.1" cy="198.0" r="3" fill="#3fb950"/><circle cx="547.7" cy="198.0" r="3" fill="#3fb950"/><circle cx="552.4" cy="198.0" r="3" fill="#3fb950"/><circle cx="557.0" cy="198.0" r="3" fill="#3fb950"/><circle cx="561.7" cy="198.0" r="3" fill="#3fb950"/><circle cx="566.3" cy="198.0" r="3" fill="#3fb950"/><circle cx="571.0" cy="198.0" r="3" fill="#3fb950"/><circle cx="575.6" cy="198.0" r="3" fill="#3fb950"/><circle cx="580.3" cy="198.0" r="3" fill="#3fb950"/><circle cx="584.9" cy="198.0" r="3" fill="#3fb950"/><circle cx="589.6" cy="198.0" r="3" fill="#3fb950"/><circle cx="594.2" cy="198.0" r="3" fill="#3fb950"/><circle cx="598.9" cy="198.0" r="3" fill="#3fb950"/><circle cx="603.5" cy="198.0" r="3" fill="#3fb950"/><circle cx="608.2" cy="198.0" r="3" fill="#3fb950"/><circle cx="612.8" cy="198.0" r="3" fill="#3fb950"/><circle cx="617.5" cy="198.0" r="3" fill="#3fb950"/><circle cx="622.1" cy="198.0" r="3" fill="#3fb950"/><circle cx="626.8" cy="198.0" r="3" fill="#3fb950"/><circle cx="631.4" cy="198.0" r="3" fill="#3fb950"/><circle cx="636.1" cy="198.0" r="3" fill="#3fb950"/><circle cx="640.7" cy="198.0" r="3" fill="#3fb950"/><circle cx="645.4" cy="198.0" r="3" fill="#3fb950"/><circle cx="650.0" cy="198.0" r="3" fill="#3fb950"/><circle cx="654.7" cy="198.0" r="3" fill="#3fb950"/><circle cx="659.3" cy="198.0" r="3" fill="#3fb950"/><circle cx="664.0" cy="198.0" r="3" fill="#3fb950"/>
<polyline fill="none" stroke="#4aa3ff" stroke-width="2.5" stroke-linejoin="round" points="36.0,144.3 40.7,144.3 45.3,144.3 50.0,144.3 54.6,144.3 59.3,144.3 63.9,144.3 68.6,144.3 73.2,144.3 77.9,144.3 82.5,144.3 87.2,144.3 91.8,144.3 96.5,144.3 101.1,144.3 105.8,136.2 110.4,132.4 115.1,129.6 119.7,129.6 124.4,121.0 129.0,121.0 133.7,121.0 138.3,114.4 143.0,114.4 147.6,114.4 152.3,111.3 156.9,110.9 161.6,110.9 166.3,110.5 170.9,110.5 175.6,109.9 180.2,108.7 184.9,107.3 189.5,106.9 194.2,106.9 198.8,106.9 203.5,106.9 208.1,106.9 212.8,106.9 217.4,106.9 222.1,106.9 226.7,106.9 231.4,106.9 236.0,113.2 240.7,113.2 245.3,113.2 250.0,113.2 254.6,113.2 259.3,110.7 263.9,105.3 268.6,83.4 273.2,83.4 277.9,85.6 282.5,85.6 287.2,85.6 291.9,85.6 296.5,85.6 301.2,85.8 305.8,85.8 310.5,85.8 315.1,86.0 319.8,86.0 324.4,86.0 329.1,86.0 333.7,86.0 338.4,86.0 343.0,86.0 347.7,86.0 352.3,86.0 357.0,86.0 361.6,86.0 366.3,86.0 370.9,86.0 375.6,86.0 380.2,86.0 384.9,86.0 389.5,86.0 394.2,86.0 398.8,86.0 403.5,86.0 408.1,86.0 412.8,87.0 417.5,87.0 422.1,87.0 426.8,73.7 431.4,73.7 436.1,71.0 440.7,71.0 445.4,70.8 450.0,70.6 454.7,70.6 459.3,70.4 464.0,68.6 468.6,60.5 473.3,59.3 477.9,52.0 482.6,47.3 487.2,40.1 491.9,36.0 496.5,36.0 501.2,36.0 505.8,36.0 510.5,36.0 515.1,36.0 519.8,36.0 524.4,36.0 529.1,36.0 533.7,36.0 538.4,36.0 543.1,36.0 547.7,36.0 552.4,36.0 557.0,36.0 561.7,36.0 566.3,36.0 571.0,36.0 575.6,36.0 580.3,36.0 584.9,36.0 589.6,36.0 594.2,36.0 598.9,36.0 603.5,36.0 608.2,36.0 612.8,36.0 617.5,36.0 622.1,36.0 626.8,36.0 631.4,36.0 636.1,36.0 640.7,36.0 645.4,36.0 650.0,36.0 654.7,36.0 659.3,36.0 664.0,36.0"/><circle cx="36.0" cy="144.3" r="3" fill="#4aa3ff"/><circle cx="40.7" cy="144.3" r="3" fill="#4aa3ff"/><circle cx="45.3" cy="144.3" r="3" fill="#4aa3ff"/><circle cx="50.0" cy="144.3" r="3" fill="#4aa3ff"/><circle cx="54.6" cy="144.3" r="3" fill="#4aa3ff"/><circle cx="59.3" cy="144.3" r="3" fill="#4aa3ff"/><circle cx="63.9" cy="144.3" r="3" fill="#4aa3ff"/><circle cx="68.6" cy="144.3" r="3" fill="#4aa3ff"/><circle cx="73.2" cy="144.3" r="3" fill="#4aa3ff"/><circle cx="77.9" cy="144.3" r="3" fill="#4aa3ff"/><circle cx="82.5" cy="144.3" r="3" fill="#4aa3ff"/><circle cx="87.2" cy="144.3" r="3" fill="#4aa3ff"/><circle cx="91.8" cy="144.3" r="3" fill="#4aa3ff"/><circle cx="96.5" cy="144.3" r="3" fill="#4aa3ff"/><circle cx="101.1" cy="144.3" r="3" fill="#4aa3ff"/><circle cx="105.8" cy="136.2" r="3" fill="#4aa3ff"/><circle cx="110.4" cy="132.4" r="3" fill="#4aa3ff"/><circle cx="115.1" cy="129.6" r="3" fill="#4aa3ff"/><circle cx="119.7" cy="129.6" r="3" fill="#4aa3ff"/><circle cx="124.4" cy="121.0" r="3" fill="#4aa3ff"/><circle cx="129.0" cy="121.0" r="3" fill="#4aa3ff"/><circle cx="133.7" cy="121.0" r="3" fill="#4aa3ff"/><circle cx="138.3" cy="114.4" r="3" fill="#4aa3ff"/><circle cx="143.0" cy="114.4" r="3" fill="#4aa3ff"/><circle cx="147.6" cy="114.4" r="3" fill="#4aa3ff"/><circle cx="152.3" cy="111.3" r="3" fill="#4aa3ff"/><circle cx="156.9" cy="110.9" r="3" fill="#4aa3ff"/><circle cx="161.6" cy="110.9" r="3" fill="#4aa3ff"/><circle cx="166.3" cy="110.5" r="3" fill="#4aa3ff"/><circle cx="170.9" cy="110.5" r="3" fill="#4aa3ff"/><circle cx="175.6" cy="109.9" r="3" fill="#4aa3ff"/><circle cx="180.2" cy="108.7" r="3" fill="#4aa3ff"/><circle cx="184.9" cy="107.3" r="3" fill="#4aa3ff"/><circle cx="189.5" cy="106.9" r="3" fill="#4aa3ff"/><circle cx="194.2" cy="106.9" r="3" fill="#4aa3ff"/><circle cx="198.8" cy="106.9" r="3" fill="#4aa3ff"/><circle cx="203.5" cy="106.9" r="3" fill="#4aa3ff"/><circle cx="208.1" cy="106.9" r="3" fill="#4aa3ff"/><circle cx="212.8" cy="106.9" r="3" fill="#4aa3ff"/><circle cx="217.4" cy="106.9" r="3" fill="#4aa3ff"/><circle cx="222.1" cy="106.9" r="3" fill="#4aa3ff"/><circle cx="226.7" cy="106.9" r="3" fill="#4aa3ff"/><circle cx="231.4" cy="106.9" r="3" fill="#4aa3ff"/><circle cx="236.0" cy="113.2" r="3" fill="#4aa3ff"/><circle cx="240.7" cy="113.2" r="3" fill="#4aa3ff"/><circle cx="245.3" cy="113.2" r="3" fill="#4aa3ff"/><circle cx="250.0" cy="113.2" r="3" fill="#4aa3ff"/><circle cx="254.6" cy="113.2" r="3" fill="#4aa3ff"/><circle cx="259.3" cy="110.7" r="3" fill="#4aa3ff"/><circle cx="263.9" cy="105.3" r="3" fill="#4aa3ff"/><circle cx="268.6" cy="83.4" r="3" fill="#4aa3ff"/><circle cx="273.2" cy="83.4" r="3" fill="#4aa3ff"/><circle cx="277.9" cy="85.6" r="3" fill="#4aa3ff"/><circle cx="282.5" cy="85.6" r="3" fill="#4aa3ff"/><circle cx="287.2" cy="85.6" r="3" fill="#4aa3ff"/><circle cx="291.9" cy="85.6" r="3" fill="#4aa3ff"/><circle cx="296.5" cy="85.6" r="3" fill="#4aa3ff"/><circle cx="301.2" cy="85.8" r="3" fill="#4aa3ff"/><circle cx="305.8" cy="85.8" r="3" fill="#4aa3ff"/><circle cx="310.5" cy="85.8" r="3" fill="#4aa3ff"/><circle cx="315.1" cy="86.0" r="3" fill="#4aa3ff"/><circle cx="319.8" cy="86.0" r="3" fill="#4aa3ff"/><circle cx="324.4" cy="86.0" r="3" fill="#4aa3ff"/><circle cx="329.1" cy="86.0" r="3" fill="#4aa3ff"/><circle cx="333.7" cy="86.0" r="3" fill="#4aa3ff"/><circle cx="338.4" cy="86.0" r="3" fill="#4aa3ff"/><circle cx="343.0" cy="86.0" r="3" fill="#4aa3ff"/><circle cx="347.7" cy="86.0" r="3" fill="#4aa3ff"/><circle cx="352.3" cy="86.0" r="3" fill="#4aa3ff"/><circle cx="357.0" cy="86.0" r="3" fill="#4aa3ff"/><circle cx="361.6" cy="86.0" r="3" fill="#4aa3ff"/><circle cx="366.3" cy="86.0" r="3" fill="#4aa3ff"/><circle cx="370.9" cy="86.0" r="3" fill="#4aa3ff"/><circle cx="375.6" cy="86.0" r="3" fill="#4aa3ff"/><circle cx="380.2" cy="86.0" r="3" fill="#4aa3ff"/><circle cx="384.9" cy="86.0" r="3" fill="#4aa3ff"/><circle cx="389.5" cy="86.0" r="3" fill="#4aa3ff"/><circle cx="394.2" cy="86.0" r="3" fill="#4aa3ff"/><circle cx="398.8" cy="86.0" r="3" fill="#4aa3ff"/><circle cx="403.5" cy="86.0" r="3" fill="#4aa3ff"/><circle cx="408.1" cy="86.0" r="3" fill="#4aa3ff"/><circle cx="412.8" cy="87.0" r="3" fill="#4aa3ff"/><circle cx="417.5" cy="87.0" r="3" fill="#4aa3ff"/><circle cx="422.1" cy="87.0" r="3" fill="#4aa3ff"/><circle cx="426.8" cy="73.7" r="3" fill="#4aa3ff"/><circle cx="431.4" cy="73.7" r="3" fill="#4aa3ff"/><circle cx="436.1" cy="71.0" r="3" fill="#4aa3ff"/><circle cx="440.7" cy="71.0" r="3" fill="#4aa3ff"/><circle cx="445.4" cy="70.8" r="3" fill="#4aa3ff"/><circle cx="450.0" cy="70.6" r="3" fill="#4aa3ff"/><circle cx="454.7" cy="70.6" r="3" fill="#4aa3ff"/><circle cx="459.3" cy="70.4" r="3" fill="#4aa3ff"/><circle cx="464.0" cy="68.6" r="3" fill="#4aa3ff"/><circle cx="468.6" cy="60.5" r="3" fill="#4aa3ff"/><circle cx="473.3" cy="59.3" r="3" fill="#4aa3ff"/><circle cx="477.9" cy="52.0" r="3" fill="#4aa3ff"/><circle cx="482.6" cy="47.3" r="3" fill="#4aa3ff"/><circle cx="487.2" cy="40.1" r="3" fill="#4aa3ff"/><circle cx="491.9" cy="36.0" r="3" fill="#4aa3ff"/><circle cx="496.5" cy="36.0" r="3" fill="#4aa3ff"/><circle cx="501.2" cy="36.0" r="3" fill="#4aa3ff"/><circle cx="505.8" cy="36.0" r="3" fill="#4aa3ff"/><circle cx="510.5" cy="36.0" r="3" fill="#4aa3ff"/><circle cx="515.1" cy="36.0" r="3" fill="#4aa3ff"/><circle cx="519.8" cy="36.0" r="3" fill="#4aa3ff"/><circle cx="524.4" cy="36.0" r="3" fill="#4aa3ff"/><circle cx="529.1" cy="36.0" r="3" fill="#4aa3ff"/><circle cx="533.7" cy="36.0" r="3" fill="#4aa3ff"/><circle cx="538.4" cy="36.0" r="3" fill="#4aa3ff"/><circle cx="543.1" cy="36.0" r="3" fill="#4aa3ff"/><circle cx="547.7" cy="36.0" r="3" fill="#4aa3ff"/><circle cx="552.4" cy="36.0" r="3" fill="#4aa3ff"/><circle cx="557.0" cy="36.0" r="3" fill="#4aa3ff"/><circle cx="561.7" cy="36.0" r="3" fill="#4aa3ff"/><circle cx="566.3" cy="36.0" r="3" fill="#4aa3ff"/><circle cx="571.0" cy="36.0" r="3" fill="#4aa3ff"/><circle cx="575.6" cy="36.0" r="3" fill="#4aa3ff"/><circle cx="580.3" cy="36.0" r="3" fill="#4aa3ff"/><circle cx="584.9" cy="36.0" r="3" fill="#4aa3ff"/><circle cx="589.6" cy="36.0" r="3" fill="#4aa3ff"/><circle cx="594.2" cy="36.0" r="3" fill="#4aa3ff"/><circle cx="598.9" cy="36.0" r="3" fill="#4aa3ff"/><circle cx="603.5" cy="36.0" r="3" fill="#4aa3ff"/><circle cx="608.2" cy="36.0" r="3" fill="#4aa3ff"/><circle cx="612.8" cy="36.0" r="3" fill="#4aa3ff"/><circle cx="617.5" cy="36.0" r="3" fill="#4aa3ff"/><circle cx="622.1" cy="36.0" r="3" fill="#4aa3ff"/><circle cx="626.8" cy="36.0" r="3" fill="#4aa3ff"/><circle cx="631.4" cy="36.0" r="3" fill="#4aa3ff"/><circle cx="636.1" cy="36.0" r="3" fill="#4aa3ff"/><circle cx="640.7" cy="36.0" r="3" fill="#4aa3ff"/><circle cx="645.4" cy="36.0" r="3" fill="#4aa3ff"/><circle cx="650.0" cy="36.0" r="3" fill="#4aa3ff"/><circle cx="654.7" cy="36.0" r="3" fill="#4aa3ff"/><circle cx="659.3" cy="36.0" r="3" fill="#4aa3ff"/><circle cx="664.0" cy="36.0" r="3" fill="#4aa3ff"/>
<text x="36" y="225" fill="#6b7280" font-size="11">2026-06-26</text>
<text x="664" y="225" fill="#6b7280" font-size="11" text-anchor="end">2026-07-11</text>
<text x="36" y="212" font-family="system-ui,sans-serif" font-size="11">
<tspan fill="#4aa3ff">&#9679; open FPs</tspan>  <tspan fill="#3fb950">&#9679; closed (Anthropic acting)</tspan>  <tspan fill="#8a5a5a">&#9679; harness withdrawn</tspan></text>
<text x="664" y="22" text-anchor="end" font-family="system-ui,sans-serif" font-size="12">
<tspan fill="#4aa3ff">open 800</tspan>  <tspan fill="#3fb950">closed 0</tspan>  <tspan fill="#8a5a5a">harness 0</tspan></text>
</svg>