<svg xmlns="http://www.w3.org/2000/svg" width="700" height="234" viewBox="0 0 700 234" role="img">
<rect width="700" height="234" rx="12" fill="#16181d"/>
<text x="36" y="22" fill="#e8eaed" font-family="system-ui,sans-serif" font-size="14" font-weight="700">Is Anthropic acting? cyber/aup false positives over time</text>
<line x1="36" y1="198.0" x2="664" y2="198.0" stroke="#2a2e37" stroke-width="1"/><text x="30" y="202.0" fill="#6b7280" font-size="11" text-anchor="end">0</text><line x1="36" y1="117.0" x2="664" y2="117.0" stroke="#2a2e37" stroke-width="1"/><text x="30" y="121.0" fill="#6b7280" font-size="11" text-anchor="end">283</text><line x1="36" y1="36.0" x2="664" y2="36.0" stroke="#2a2e37" stroke-width="1"/><text x="30" y="40.0" fill="#6b7280" font-size="11" text-anchor="end">566</text>

<polyline fill="none" stroke="#8a5a5a" stroke-width="2.5" stroke-linejoin="round" points="36.0,123.3 46.0,123.3 55.9,123.3 65.9,123.3 75.9,123.3 85.8,123.3 95.8,123.3 105.8,123.3 115.7,123.3 125.7,123.3 135.7,123.3 145.7,123.3 155.6,123.3 165.6,123.3 175.6,123.3 185.5,123.3 195.5,123.3 205.5,123.3 215.4,123.3 225.4,123.3 235.4,123.3 245.3,123.3 255.3,123.3 265.3,123.3 275.2,123.3 285.2,123.3 295.2,123.3 305.1,123.3 315.1,123.3 325.1,123.3 335.0,123.3 345.0,123.3 355.0,123.3 365.0,123.3 374.9,123.3 384.9,123.3 394.9,123.3 404.8,123.3 414.8,123.3 424.8,123.3 434.7,123.3 444.7,123.3 454.7,123.3 464.6,123.3 474.6,123.3 484.6,123.3 494.5,123.3 504.5,123.3 514.5,123.3 524.4,123.3 534.4,138.2 544.4,138.2 554.3,138.2 564.3,138.2 574.3,138.2 584.3,138.2 594.2,138.2 604.2,138.2 614.2,138.2 624.1,138.2 634.1,138.2 644.1,138.2 654.0,138.2 664.0,138.2"/><circle cx="36.0" cy="123.3" r="3" fill="#8a5a5a"/><circle cx="46.0" cy="123.3" r="3" fill="#8a5a5a"/><circle cx="55.9" cy="123.3" r="3" fill="#8a5a5a"/><circle cx="65.9" cy="123.3" r="3" fill="#8a5a5a"/><circle cx="75.9" cy="123.3" r="3" fill="#8a5a5a"/><circle cx="85.8" cy="123.3" r="3" fill="#8a5a5a"/><circle cx="95.8" cy="123.3" r="3" fill="#8a5a5a"/><circle cx="105.8" cy="123.3" r="3" fill="#8a5a5a"/><circle cx="115.7" cy="123.3" r="3" fill="#8a5a5a"/><circle cx="125.7" cy="123.3" r="3" fill="#8a5a5a"/><circle cx="135.7" cy="123.3" r="3" fill="#8a5a5a"/><circle cx="145.7" cy="123.3" r="3" fill="#8a5a5a"/><circle cx="155.6" cy="123.3" r="3" fill="#8a5a5a"/><circle cx="165.6" cy="123.3" r="3" fill="#8a5a5a"/><circle cx="175.6" cy="123.3" r="3" fill="#8a5a5a"/><circle cx="185.5" cy="123.3" r="3" fill="#8a5a5a"/><circle cx="195.5" cy="123.3" r="3" fill="#8a5a5a"/><circle cx="205.5" cy="123.3" r="3" fill="#8a5a5a"/><circle cx="215.4" cy="123.3" r="3" fill="#8a5a5a"/><circle cx="225.4" cy="123.3" r="3" fill="#8a5a5a"/><circle cx="235.4" cy="123.3" r="3" fill="#8a5a5a"/><circle cx="245.3" cy="123.3" r="3" fill="#8a5a5a"/><circle cx="255.3" cy="123.3" r="3" fill="#8a5a5a"/><circle cx="265.3" cy="123.3" r="3" fill="#8a5a5a"/><circle cx="275.2" cy="123.3" r="3" fill="#8a5a5a"/><circle cx="285.2" cy="123.3" r="3" fill="#8a5a5a"/><circle cx="295.2" cy="123.3" r="3" fill="#8a5a5a"/><circle cx="305.1" cy="123.3" r="3" fill="#8a5a5a"/><circle cx="315.1" cy="123.3" r="3" fill="#8a5a5a"/><circle cx="325.1" cy="123.3" r="3" fill="#8a5a5a"/><circle cx="335.0" cy="123.3" r="3" fill="#8a5a5a"/><circle cx="345.0" cy="123.3" r="3" fill="#8a5a5a"/><circle cx="355.0" cy="123.3" r="3" fill="#8a5a5a"/><circle cx="365.0" cy="123.3" r="3" fill="#8a5a5a"/><circle cx="374.9" cy="123.3" r="3" fill="#8a5a5a"/><circle cx="384.9" cy="123.3" r="3" fill="#8a5a5a"/><circle cx="394.9" cy="123.3" r="3" fill="#8a5a5a"/><circle cx="404.8" cy="123.3" r="3" fill="#8a5a5a"/><circle cx="414.8" cy="123.3" r="3" fill="#8a5a5a"/><circle cx="424.8" cy="123.3" r="3" fill="#8a5a5a"/><circle cx="434.7" cy="123.3" r="3" fill="#8a5a5a"/><circle cx="444.7" cy="123.3" r="3" fill="#8a5a5a"/><circle cx="454.7" cy="123.3" r="3" fill="#8a5a5a"/><circle cx="464.6" cy="123.3" r="3" fill="#8a5a5a"/><circle cx="474.6" cy="123.3" r="3" fill="#8a5a5a"/><circle cx="484.6" cy="123.3" r="3" fill="#8a5a5a"/><circle cx="494.5" cy="123.3" r="3" fill="#8a5a5a"/><circle cx="504.5" cy="123.3" r="3" fill="#8a5a5a"/><circle cx="514.5" cy="123.3" r="3" fill="#8a5a5a"/><circle cx="524.4" cy="123.3" r="3" fill="#8a5a5a"/><circle cx="534.4" cy="138.2" r="3" fill="#8a5a5a"/><circle cx="544.4" cy="138.2" r="3" fill="#8a5a5a"/><circle cx="554.3" cy="138.2" r="3" fill="#8a5a5a"/><circle cx="564.3" cy="138.2" r="3" fill="#8a5a5a"/><circle cx="574.3" cy="138.2" r="3" fill="#8a5a5a"/><circle cx="584.3" cy="138.2" r="3" fill="#8a5a5a"/><circle cx="594.2" cy="138.2" r="3" fill="#8a5a5a"/><circle cx="604.2" cy="138.2" r="3" fill="#8a5a5a"/><circle cx="614.2" cy="138.2" r="3" fill="#8a5a5a"/><circle cx="624.1" cy="138.2" r="3" fill="#8a5a5a"/><circle cx="634.1" cy="138.2" r="3" fill="#8a5a5a"/><circle cx="644.1" cy="138.2" r="3" fill="#8a5a5a"/><circle cx="654.0" cy="138.2" r="3" fill="#8a5a5a"/><circle cx="664.0" cy="138.2" r="3" fill="#8a5a5a"/>
<polyline fill="none" stroke="#3fb950" stroke-width="2.5" stroke-linejoin="round" points="36.0,198.0 46.0,198.0 55.9,198.0 65.9,198.0 75.9,198.0 85.8,198.0 95.8,198.0 105.8,198.0 115.7,198.0 125.7,198.0 135.7,198.0 145.7,198.0 155.6,198.0 165.6,198.0 175.6,198.0 185.5,198.0 195.5,198.0 205.5,198.0 215.4,198.0 225.4,198.0 235.4,198.0 245.3,198.0 255.3,198.0 265.3,198.0 275.2,198.0 285.2,198.0 295.2,198.0 305.1,198.0 315.1,198.0 325.1,198.0 335.0,198.0 345.0,198.0 355.0,198.0 365.0,198.0 374.9,198.0 384.9,198.0 394.9,198.0 404.8,198.0 414.8,198.0 424.8,198.0 434.7,198.0 444.7,198.0 454.7,198.0 464.6,189.1 474.6,189.1 484.6,189.1 494.5,189.1 504.5,189.1 514.5,189.1 524.4,189.1 534.4,190.8 544.4,190.8 554.3,187.7 564.3,187.7 574.3,187.7 584.3,187.7 594.2,187.7 604.2,187.4 614.2,187.4 624.1,187.4 634.1,187.1 644.1,187.1 654.0,187.1 664.0,187.1"/><circle cx="36.0" cy="198.0" r="3" fill="#3fb950"/><circle cx="46.0" cy="198.0" r="3" fill="#3fb950"/><circle cx="55.9" cy="198.0" r="3" fill="#3fb950"/><circle cx="65.9" cy="198.0" r="3" fill="#3fb950"/><circle cx="75.9" cy="198.0" r="3" fill="#3fb950"/><circle cx="85.8" cy="198.0" r="3" fill="#3fb950"/><circle cx="95.8" cy="198.0" r="3" fill="#3fb950"/><circle cx="105.8" cy="198.0" r="3" fill="#3fb950"/><circle cx="115.7" cy="198.0" r="3" fill="#3fb950"/><circle cx="125.7" cy="198.0" r="3" fill="#3fb950"/><circle cx="135.7" cy="198.0" r="3" fill="#3fb950"/><circle cx="145.7" cy="198.0" r="3" fill="#3fb950"/><circle cx="155.6" cy="198.0" r="3" fill="#3fb950"/><circle cx="165.6" cy="198.0" r="3" fill="#3fb950"/><circle cx="175.6" cy="198.0" r="3" fill="#3fb950"/><circle cx="185.5" cy="198.0" r="3" fill="#3fb950"/><circle cx="195.5" cy="198.0" r="3" fill="#3fb950"/><circle cx="205.5" cy="198.0" r="3" fill="#3fb950"/><circle cx="215.4" cy="198.0" r="3" fill="#3fb950"/><circle cx="225.4" cy="198.0" r="3" fill="#3fb950"/><circle cx="235.4" cy="198.0" r="3" fill="#3fb950"/><circle cx="245.3" cy="198.0" r="3" fill="#3fb950"/><circle cx="255.3" cy="198.0" r="3" fill="#3fb950"/><circle cx="265.3" cy="198.0" r="3" fill="#3fb950"/><circle cx="275.2" cy="198.0" r="3" fill="#3fb950"/><circle cx="285.2" cy="198.0" r="3" fill="#3fb950"/><circle cx="295.2" cy="198.0" r="3" fill="#3fb950"/><circle cx="305.1" cy="198.0" r="3" fill="#3fb950"/><circle cx="315.1" cy="198.0" r="3" fill="#3fb950"/><circle cx="325.1" cy="198.0" r="3" fill="#3fb950"/><circle cx="335.0" cy="198.0" r="3" fill="#3fb950"/><circle cx="345.0" cy="198.0" r="3" fill="#3fb950"/><circle cx="355.0" cy="198.0" r="3" fill="#3fb950"/><circle cx="365.0" cy="198.0" r="3" fill="#3fb950"/><circle cx="374.9" cy="198.0" r="3" fill="#3fb950"/><circle cx="384.9" cy="198.0" r="3" fill="#3fb950"/><circle cx="394.9" cy="198.0" r="3" fill="#3fb950"/><circle cx="404.8" cy="198.0" r="3" fill="#3fb950"/><circle cx="414.8" cy="198.0" r="3" fill="#3fb950"/><circle cx="424.8" cy="198.0" r="3" fill="#3fb950"/><circle cx="434.7" cy="198.0" r="3" fill="#3fb950"/><circle cx="444.7" cy="198.0" r="3" fill="#3fb950"/><circle cx="454.7" cy="198.0" r="3" fill="#3fb950"/><circle cx="464.6" cy="189.1" r="3" fill="#3fb950"/><circle cx="474.6" cy="189.1" r="3" fill="#3fb950"/><circle cx="484.6" cy="189.1" r="3" fill="#3fb950"/><circle cx="494.5" cy="189.1" r="3" fill="#3fb950"/><circle cx="504.5" cy="189.1" r="3" fill="#3fb950"/><circle cx="514.5" cy="189.1" r="3" fill="#3fb950"/><circle cx="524.4" cy="189.1" r="3" fill="#3fb950"/><circle cx="534.4" cy="190.8" r="3" fill="#3fb950"/><circle cx="544.4" cy="190.8" r="3" fill="#3fb950"/><circle cx="554.3" cy="187.7" r="3" fill="#3fb950"/><circle cx="564.3" cy="187.7" r="3" fill="#3fb950"/><circle cx="574.3" cy="187.7" r="3" fill="#3fb950"/><circle cx="584.3" cy="187.7" r="3" fill="#3fb950"/><circle cx="594.2" cy="187.7" r="3" fill="#3fb950"/><circle cx="604.2" cy="187.4" r="3" fill="#3fb950"/><circle cx="614.2" cy="187.4" r="3" fill="#3fb950"/><circle cx="624.1" cy="187.4" r="3" fill="#3fb950"/><circle cx="634.1" cy="187.1" r="3" fill="#3fb950"/><circle cx="644.1" cy="187.1" r="3" fill="#3fb950"/><circle cx="654.0" cy="187.1" r="3" fill="#3fb950"/><circle cx="664.0" cy="187.1" r="3" fill="#3fb950"/>
<polyline fill="none" stroke="#4aa3ff" stroke-width="2.5" stroke-linejoin="round" points="36.0,122.2 46.0,122.2 55.9,122.2 65.9,122.2 75.9,122.2 85.8,122.2 95.8,122.2 105.8,122.2 115.7,122.2 125.7,122.2 135.7,122.2 145.7,122.2 155.6,122.2 165.6,122.2 175.6,122.2 185.5,110.7 195.5,105.3 205.5,101.3 215.4,101.3 225.4,89.2 235.4,89.2 245.3,89.2 255.3,79.8 265.3,79.8 275.2,79.8 285.2,75.5 295.2,74.9 305.1,74.9 315.1,74.4 325.1,74.4 335.0,73.5 345.0,71.8 355.0,69.8 365.0,69.2 374.9,69.2 384.9,69.2 394.9,69.2 404.8,69.2 414.8,69.2 424.8,69.2 434.7,69.2 444.7,69.2 454.7,69.2 464.6,78.1 474.6,78.1 484.6,78.1 494.5,78.1 504.5,78.1 514.5,74.6 524.4,66.9 534.4,36.0 544.4,36.0 554.3,39.1 564.3,39.1 574.3,39.1 584.3,39.1 594.2,39.1 604.2,39.4 614.2,39.4 624.1,39.4 634.1,39.7 644.1,39.7 654.0,39.7 664.0,39.7"/><circle cx="36.0" cy="122.2" r="3" fill="#4aa3ff"/><circle cx="46.0" cy="122.2" r="3" fill="#4aa3ff"/><circle cx="55.9" cy="122.2" r="3" fill="#4aa3ff"/><circle cx="65.9" cy="122.2" r="3" fill="#4aa3ff"/><circle cx="75.9" cy="122.2" r="3" fill="#4aa3ff"/><circle cx="85.8" cy="122.2" r="3" fill="#4aa3ff"/><circle cx="95.8" cy="122.2" r="3" fill="#4aa3ff"/><circle cx="105.8" cy="122.2" r="3" fill="#4aa3ff"/><circle cx="115.7" cy="122.2" r="3" fill="#4aa3ff"/><circle cx="125.7" cy="122.2" r="3" fill="#4aa3ff"/><circle cx="135.7" cy="122.2" r="3" fill="#4aa3ff"/><circle cx="145.7" cy="122.2" r="3" fill="#4aa3ff"/><circle cx="155.6" cy="122.2" r="3" fill="#4aa3ff"/><circle cx="165.6" cy="122.2" r="3" fill="#4aa3ff"/><circle cx="175.6" cy="122.2" r="3" fill="#4aa3ff"/><circle cx="185.5" cy="110.7" r="3" fill="#4aa3ff"/><circle cx="195.5" cy="105.3" r="3" fill="#4aa3ff"/><circle cx="205.5" cy="101.3" r="3" fill="#4aa3ff"/><circle cx="215.4" cy="101.3" r="3" fill="#4aa3ff"/><circle cx="225.4" cy="89.2" r="3" fill="#4aa3ff"/><circle cx="235.4" cy="89.2" r="3" fill="#4aa3ff"/><circle cx="245.3" cy="89.2" r="3" fill="#4aa3ff"/><circle cx="255.3" cy="79.8" r="3" fill="#4aa3ff"/><circle cx="265.3" cy="79.8" r="3" fill="#4aa3ff"/><circle cx="275.2" cy="79.8" r="3" fill="#4aa3ff"/><circle cx="285.2" cy="75.5" r="3" fill="#4aa3ff"/><circle cx="295.2" cy="74.9" r="3" fill="#4aa3ff"/><circle cx="305.1" cy="74.9" r="3" fill="#4aa3ff"/><circle cx="315.1" cy="74.4" r="3" fill="#4aa3ff"/><circle cx="325.1" cy="74.4" r="3" fill="#4aa3ff"/><circle cx="335.0" cy="73.5" r="3" fill="#4aa3ff"/><circle cx="345.0" cy="71.8" r="3" fill="#4aa3ff"/><circle cx="355.0" cy="69.8" r="3" fill="#4aa3ff"/><circle cx="365.0" cy="69.2" r="3" fill="#4aa3ff"/><circle cx="374.9" cy="69.2" r="3" fill="#4aa3ff"/><circle cx="384.9" cy="69.2" r="3" fill="#4aa3ff"/><circle cx="394.9" cy="69.2" r="3" fill="#4aa3ff"/><circle cx="404.8" cy="69.2" r="3" fill="#4aa3ff"/><circle cx="414.8" cy="69.2" r="3" fill="#4aa3ff"/><circle cx="424.8" cy="69.2" r="3" fill="#4aa3ff"/><circle cx="434.7" cy="69.2" r="3" fill="#4aa3ff"/><circle cx="444.7" cy="69.2" r="3" fill="#4aa3ff"/><circle cx="454.7" cy="69.2" r="3" fill="#4aa3ff"/><circle cx="464.6" cy="78.1" r="3" fill="#4aa3ff"/><circle cx="474.6" cy="78.1" r="3" fill="#4aa3ff"/><circle cx="484.6" cy="78.1" r="3" fill="#4aa3ff"/><circle cx="494.5" cy="78.1" r="3" fill="#4aa3ff"/><circle cx="504.5" cy="78.1" r="3" fill="#4aa3ff"/><circle cx="514.5" cy="74.6" r="3" fill="#4aa3ff"/><circle cx="524.4" cy="66.9" r="3" fill="#4aa3ff"/><circle cx="534.4" cy="36.0" r="3" fill="#4aa3ff"/><circle cx="544.4" cy="36.0" r="3" fill="#4aa3ff"/><circle cx="554.3" cy="39.1" r="3" fill="#4aa3ff"/><circle cx="564.3" cy="39.1" r="3" fill="#4aa3ff"/><circle cx="574.3" cy="39.1" r="3" fill="#4aa3ff"/><circle cx="584.3" cy="39.1" r="3" fill="#4aa3ff"/><circle cx="594.2" cy="39.1" r="3" fill="#4aa3ff"/><circle cx="604.2" cy="39.4" r="3" fill="#4aa3ff"/><circle cx="614.2" cy="39.4" r="3" fill="#4aa3ff"/><circle cx="624.1" cy="39.4" r="3" fill="#4aa3ff"/><circle cx="634.1" cy="39.7" r="3" fill="#4aa3ff"/><circle cx="644.1" cy="39.7" r="3" fill="#4aa3ff"/><circle cx="654.0" cy="39.7" r="3" fill="#4aa3ff"/><circle cx="664.0" cy="39.7" r="3" fill="#4aa3ff"/>
<text x="36" y="225" fill="#6b7280" font-size="11">2026-06-26</text>
<text x="664" y="225" fill="#6b7280" font-size="11" text-anchor="end">2026-07-03</text>
<text x="36" y="212" font-family="system-ui,sans-serif" font-size="11">
<tspan fill="#4aa3ff">&#9679; open FPs</tspan>  <tspan fill="#3fb950">&#9679; closed (Anthropic acting)</tspan>  <tspan fill="#8a5a5a">&#9679; harness withdrawn</tspan></text>
<text x="664" y="22" text-anchor="end" font-family="system-ui,sans-serif" font-size="12">
<tspan fill="#4aa3ff">open 553</tspan>  <tspan fill="#3fb950">closed 38</tspan>  <tspan fill="#8a5a5a">harness 209</tspan></text>
</svg>