<svg xmlns="http://www.w3.org/2000/svg" width="700" height="234" viewBox="0 0 700 234" role="img">
<rect width="700" height="234" rx="12" fill="#16181d"/>
<text x="36" y="22" fill="#e8eaed" font-family="system-ui,sans-serif" font-size="14" font-weight="700">Is Anthropic acting? cyber/aup false positives over time</text>
<line x1="36" y1="198.0" x2="664" y2="198.0" stroke="#2a2e37" stroke-width="1"/><text x="30" y="202.0" fill="#6b7280" font-size="11" text-anchor="end">0</text><line x1="36" y1="117.0" x2="664" y2="117.0" stroke="#2a2e37" stroke-width="1"/><text x="30" y="121.0" fill="#6b7280" font-size="11" text-anchor="end">400</text><line x1="36" y1="36.0" x2="664" y2="36.0" stroke="#2a2e37" stroke-width="1"/><text x="30" y="40.0" fill="#6b7280" font-size="11" text-anchor="end">800</text>

<polyline fill="none" stroke="#8a5a5a" stroke-width="2.5" stroke-linejoin="round" points="36.0,145.1 40.9,145.1 45.7,145.1 50.6,145.1 55.5,145.1 60.3,145.1 65.2,145.1 70.1,145.1 74.9,145.1 79.8,145.1 84.7,145.1 89.6,145.1 94.4,145.1 99.3,145.1 104.2,145.1 109.0,145.1 113.9,145.1 118.8,145.1 123.6,145.1 128.5,145.1 133.4,145.1 138.2,145.1 143.1,145.1 148.0,145.1 152.8,145.1 157.7,145.1 162.6,145.1 167.4,145.1 172.3,145.1 177.2,145.1 182.0,145.1 186.9,145.1 191.8,145.1 196.7,145.1 201.5,145.1 206.4,145.1 211.3,145.1 216.1,145.1 221.0,145.1 225.9,145.1 230.7,145.1 235.6,145.1 240.5,145.1 245.3,145.1 250.2,145.1 255.1,145.1 259.9,145.1 264.8,145.1 269.7,145.1 274.5,145.1 279.4,155.7 284.3,155.7 289.1,155.7 294.0,155.7 298.9,155.7 303.8,155.7 308.6,155.7 313.5,155.7 318.4,155.7 323.2,155.7 328.1,155.7 333.0,155.7 337.8,155.7 342.7,155.7 347.6,155.7 352.4,155.7 357.3,155.7 362.2,155.7 367.0,155.7 371.9,155.7 376.8,155.7 381.6,155.7 386.5,155.7 391.4,155.7 396.2,155.7 401.1,155.7 406.0,155.7 410.9,155.7 415.7,155.7 420.6,155.7 425.5,155.7 430.3,155.7 435.2,155.7 440.1,155.7 444.9,167.6 449.8,167.6 454.7,170.3 459.5,170.3 464.4,170.5 469.3,170.7 474.1,170.7 479.0,170.9 483.9,172.7 488.7,180.6 493.6,181.8 498.5,189.1 503.3,190.5 508.2,195.2 513.1,198.0 518.0,198.0 522.8,198.0 527.7,198.0 532.6,198.0 537.4,198.0 542.3,198.0 547.2,198.0 552.0,198.0 556.9,198.0 561.8,198.0 566.6,198.0 571.5,198.0 576.4,198.0 581.2,198.0 586.1,198.0 591.0,198.0 595.8,198.0 600.7,198.0 605.6,198.0 610.4,198.0 615.3,198.0 620.2,198.0 625.1,198.0 629.9,198.0 634.8,198.0 639.7,198.0 644.5,198.0 649.4,198.0 654.3,198.0 659.1,198.0 664.0,198.0"/><circle cx="36.0" cy="145.1" r="3" fill="#8a5a5a"/><circle cx="40.9" cy="145.1" r="3" fill="#8a5a5a"/><circle cx="45.7" cy="145.1" r="3" fill="#8a5a5a"/><circle cx="50.6" cy="145.1" r="3" fill="#8a5a5a"/><circle cx="55.5" cy="145.1" r="3" fill="#8a5a5a"/><circle cx="60.3" cy="145.1" r="3" fill="#8a5a5a"/><circle cx="65.2" cy="145.1" r="3" fill="#8a5a5a"/><circle cx="70.1" cy="145.1" r="3" fill="#8a5a5a"/><circle cx="74.9" cy="145.1" r="3" fill="#8a5a5a"/><circle cx="79.8" cy="145.1" r="3" fill="#8a5a5a"/><circle cx="84.7" cy="145.1" r="3" fill="#8a5a5a"/><circle cx="89.6" cy="145.1" r="3" fill="#8a5a5a"/><circle cx="94.4" cy="145.1" r="3" fill="#8a5a5a"/><circle cx="99.3" cy="145.1" r="3" fill="#8a5a5a"/><circle cx="104.2" cy="145.1" r="3" fill="#8a5a5a"/><circle cx="109.0" cy="145.1" r="3" fill="#8a5a5a"/><circle cx="113.9" cy="145.1" r="3" fill="#8a5a5a"/><circle cx="118.8" cy="145.1" r="3" fill="#8a5a5a"/><circle cx="123.6" cy="145.1" r="3" fill="#8a5a5a"/><circle cx="128.5" cy="145.1" r="3" fill="#8a5a5a"/><circle cx="133.4" cy="145.1" r="3" fill="#8a5a5a"/><circle cx="138.2" cy="145.1" r="3" fill="#8a5a5a"/><circle cx="143.1" cy="145.1" r="3" fill="#8a5a5a"/><circle cx="148.0" cy="145.1" r="3" fill="#8a5a5a"/><circle cx="152.8" cy="145.1" r="3" fill="#8a5a5a"/><circle cx="157.7" cy="145.1" r="3" fill="#8a5a5a"/><circle cx="162.6" cy="145.1" r="3" fill="#8a5a5a"/><circle cx="167.4" cy="145.1" r="3" fill="#8a5a5a"/><circle cx="172.3" cy="145.1" r="3" fill="#8a5a5a"/><circle cx="177.2" cy="145.1" r="3" fill="#8a5a5a"/><circle cx="182.0" cy="145.1" r="3" fill="#8a5a5a"/><circle cx="186.9" cy="145.1" r="3" fill="#8a5a5a"/><circle cx="191.8" cy="145.1" r="3" fill="#8a5a5a"/><circle cx="196.7" cy="145.1" r="3" fill="#8a5a5a"/><circle cx="201.5" cy="145.1" r="3" fill="#8a5a5a"/><circle cx="206.4" cy="145.1" r="3" fill="#8a5a5a"/><circle cx="211.3" cy="145.1" r="3" fill="#8a5a5a"/><circle cx="216.1" cy="145.1" r="3" fill="#8a5a5a"/><circle cx="221.0" cy="145.1" r="3" fill="#8a5a5a"/><circle cx="225.9" cy="145.1" r="3" fill="#8a5a5a"/><circle cx="230.7" cy="145.1" r="3" fill="#8a5a5a"/><circle cx="235.6" cy="145.1" r="3" fill="#8a5a5a"/><circle cx="240.5" cy="145.1" r="3" fill="#8a5a5a"/><circle cx="245.3" cy="145.1" r="3" fill="#8a5a5a"/><circle cx="250.2" cy="145.1" r="3" fill="#8a5a5a"/><circle cx="255.1" cy="145.1" r="3" fill="#8a5a5a"/><circle cx="259.9" cy="145.1" r="3" fill="#8a5a5a"/><circle cx="264.8" cy="145.1" r="3" fill="#8a5a5a"/><circle cx="269.7" cy="145.1" r="3" fill="#8a5a5a"/><circle cx="274.5" cy="145.1" r="3" fill="#8a5a5a"/><circle cx="279.4" cy="155.7" r="3" fill="#8a5a5a"/><circle cx="284.3" cy="155.7" r="3" fill="#8a5a5a"/><circle cx="289.1" cy="155.7" r="3" fill="#8a5a5a"/><circle cx="294.0" cy="155.7" r="3" fill="#8a5a5a"/><circle cx="298.9" cy="155.7" r="3" fill="#8a5a5a"/><circle cx="303.8" cy="155.7" r="3" fill="#8a5a5a"/><circle cx="308.6" cy="155.7" r="3" fill="#8a5a5a"/><circle cx="313.5" cy="155.7" r="3" fill="#8a5a5a"/><circle cx="318.4" cy="155.7" r="3" fill="#8a5a5a"/><circle cx="323.2" cy="155.7" r="3" fill="#8a5a5a"/><circle cx="328.1" cy="155.7" r="3" fill="#8a5a5a"/><circle cx="333.0" cy="155.7" r="3" fill="#8a5a5a"/><circle cx="337.8" cy="155.7" r="3" fill="#8a5a5a"/><circle cx="342.7" cy="155.7" r="3" fill="#8a5a5a"/><circle cx="347.6" cy="155.7" r="3" fill="#8a5a5a"/><circle cx="352.4" cy="155.7" r="3" fill="#8a5a5a"/><circle cx="357.3" cy="155.7" r="3" fill="#8a5a5a"/><circle cx="362.2" cy="155.7" r="3" fill="#8a5a5a"/><circle cx="367.0" cy="155.7" r="3" fill="#8a5a5a"/><circle cx="371.9" cy="155.7" r="3" fill="#8a5a5a"/><circle cx="376.8" cy="155.7" r="3" fill="#8a5a5a"/><circle cx="381.6" cy="155.7" r="3" fill="#8a5a5a"/><circle cx="386.5" cy="155.7" r="3" fill="#8a5a5a"/><circle cx="391.4" cy="155.7" r="3" fill="#8a5a5a"/><circle cx="396.2" cy="155.7" r="3" fill="#8a5a5a"/><circle cx="401.1" cy="155.7" r="3" fill="#8a5a5a"/><circle cx="406.0" cy="155.7" r="3" fill="#8a5a5a"/><circle cx="410.9" cy="155.7" r="3" fill="#8a5a5a"/><circle cx="415.7" cy="155.7" r="3" fill="#8a5a5a"/><circle cx="420.6" cy="155.7" r="3" fill="#8a5a5a"/><circle cx="425.5" cy="155.7" r="3" fill="#8a5a5a"/><circle cx="430.3" cy="155.7" r="3" fill="#8a5a5a"/><circle cx="435.2" cy="155.7" r="3" fill="#8a5a5a"/><circle cx="440.1" cy="155.7" r="3" fill="#8a5a5a"/><circle cx="444.9" cy="167.6" r="3" fill="#8a5a5a"/><circle cx="449.8" cy="167.6" r="3" fill="#8a5a5a"/><circle cx="454.7" cy="170.3" r="3" fill="#8a5a5a"/><circle cx="459.5" cy="170.3" r="3" fill="#8a5a5a"/><circle cx="464.4" cy="170.5" r="3" fill="#8a5a5a"/><circle cx="469.3" cy="170.7" r="3" fill="#8a5a5a"/><circle cx="474.1" cy="170.7" r="3" fill="#8a5a5a"/><circle cx="479.0" cy="170.9" r="3" fill="#8a5a5a"/><circle cx="483.9" cy="172.7" r="3" fill="#8a5a5a"/><circle cx="488.7" cy="180.6" r="3" fill="#8a5a5a"/><circle cx="493.6" cy="181.8" r="3" fill="#8a5a5a"/><circle cx="498.5" cy="189.1" r="3" fill="#8a5a5a"/><circle cx="503.3" cy="190.5" r="3" fill="#8a5a5a"/><circle cx="508.2" cy="195.2" r="3" fill="#8a5a5a"/><circle cx="513.1" cy="198.0" r="3" fill="#8a5a5a"/><circle cx="518.0" cy="198.0" r="3" fill="#8a5a5a"/><circle cx="522.8" cy="198.0" r="3" fill="#8a5a5a"/><circle cx="527.7" cy="198.0" r="3" fill="#8a5a5a"/><circle cx="532.6" cy="198.0" r="3" fill="#8a5a5a"/><circle cx="537.4" cy="198.0" r="3" fill="#8a5a5a"/><circle cx="542.3" cy="198.0" r="3" fill="#8a5a5a"/><circle cx="547.2" cy="198.0" r="3" fill="#8a5a5a"/><circle cx="552.0" cy="198.0" r="3" fill="#8a5a5a"/><circle cx="556.9" cy="198.0" r="3" fill="#8a5a5a"/><circle cx="561.8" cy="198.0" r="3" fill="#8a5a5a"/><circle cx="566.6" cy="198.0" r="3" fill="#8a5a5a"/><circle cx="571.5" cy="198.0" r="3" fill="#8a5a5a"/><circle cx="576.4" cy="198.0" r="3" fill="#8a5a5a"/><circle cx="581.2" cy="198.0" r="3" fill="#8a5a5a"/><circle cx="586.1" cy="198.0" r="3" fill="#8a5a5a"/><circle cx="591.0" cy="198.0" r="3" fill="#8a5a5a"/><circle cx="595.8" cy="198.0" r="3" fill="#8a5a5a"/><circle cx="600.7" cy="198.0" r="3" fill="#8a5a5a"/><circle cx="605.6" cy="198.0" r="3" fill="#8a5a5a"/><circle cx="610.4" cy="198.0" r="3" fill="#8a5a5a"/><circle cx="615.3" cy="198.0" r="3" fill="#8a5a5a"/><circle cx="620.2" cy="198.0" r="3" fill="#8a5a5a"/><circle cx="625.1" cy="198.0" r="3" fill="#8a5a5a"/><circle cx="629.9" cy="198.0" r="3" fill="#8a5a5a"/><circle cx="634.8" cy="198.0" r="3" fill="#8a5a5a"/><circle cx="639.7" cy="198.0" r="3" fill="#8a5a5a"/><circle cx="644.5" cy="198.0" r="3" fill="#8a5a5a"/><circle cx="649.4" cy="198.0" r="3" fill="#8a5a5a"/><circle cx="654.3" cy="198.0" r="3" fill="#8a5a5a"/><circle cx="659.1" cy="198.0" r="3" fill="#8a5a5a"/><circle cx="664.0" cy="198.0" r="3" fill="#8a5a5a"/>
<polyline fill="none" stroke="#3fb950" stroke-width="2.5" stroke-linejoin="round" points="36.0,198.0 40.9,198.0 45.7,198.0 50.6,198.0 55.5,198.0 60.3,198.0 65.2,198.0 70.1,198.0 74.9,198.0 79.8,198.0 84.7,198.0 89.6,198.0 94.4,198.0 99.3,198.0 104.2,198.0 109.0,198.0 113.9,198.0 118.8,198.0 123.6,198.0 128.5,198.0 133.4,198.0 138.2,198.0 143.1,198.0 148.0,198.0 152.8,198.0 157.7,198.0 162.6,198.0 167.4,198.0 172.3,198.0 177.2,198.0 182.0,198.0 186.9,198.0 191.8,198.0 196.7,198.0 201.5,198.0 206.4,198.0 211.3,198.0 216.1,198.0 221.0,198.0 225.9,198.0 230.7,198.0 235.6,198.0 240.5,198.0 245.3,191.7 250.2,191.7 255.1,191.7 259.9,191.7 264.8,191.7 269.7,191.7 274.5,191.7 279.4,192.9 284.3,192.9 289.1,190.7 294.0,190.7 298.9,190.7 303.8,190.7 308.6,190.7 313.5,190.5 318.4,190.5 323.2,190.5 328.1,190.3 333.0,190.3 337.8,190.3 342.7,190.3 347.6,190.3 352.4,190.3 357.3,190.3 362.2,190.3 367.0,190.3 371.9,190.3 376.8,190.3 381.6,190.3 386.5,190.3 391.4,190.3 396.2,190.3 401.1,190.3 406.0,190.3 410.9,190.3 415.7,190.3 420.6,190.3 425.5,190.3 430.3,189.3 435.2,189.3 440.1,189.3 444.9,190.7 449.8,190.7 454.7,190.7 459.5,190.7 464.4,190.7 469.3,190.7 474.1,190.7 479.0,190.7 483.9,190.7 488.7,190.9 493.6,190.9 498.5,190.9 503.3,194.2 508.2,196.8 513.1,198.0 518.0,198.0 522.8,198.0 527.7,198.0 532.6,198.0 537.4,198.0 542.3,198.0 547.2,198.0 552.0,198.0 556.9,198.0 561.8,198.0 566.6,198.0 571.5,198.0 576.4,198.0 581.2,198.0 586.1,198.0 591.0,198.0 595.8,198.0 600.7,198.0 605.6,198.0 610.4,198.0 615.3,198.0 620.2,198.0 625.1,198.0 629.9,198.0 634.8,198.0 639.7,198.0 644.5,198.0 649.4,198.0 654.3,198.0 659.1,198.0 664.0,198.0"/><circle cx="36.0" cy="198.0" r="3" fill="#3fb950"/><circle cx="40.9" cy="198.0" r="3" fill="#3fb950"/><circle cx="45.7" cy="198.0" r="3" fill="#3fb950"/><circle cx="50.6" cy="198.0" r="3" fill="#3fb950"/><circle cx="55.5" cy="198.0" r="3" fill="#3fb950"/><circle cx="60.3" cy="198.0" r="3" fill="#3fb950"/><circle cx="65.2" cy="198.0" r="3" fill="#3fb950"/><circle cx="70.1" cy="198.0" r="3" fill="#3fb950"/><circle cx="74.9" cy="198.0" r="3" fill="#3fb950"/><circle cx="79.8" cy="198.0" r="3" fill="#3fb950"/><circle cx="84.7" cy="198.0" r="3" fill="#3fb950"/><circle cx="89.6" cy="198.0" r="3" fill="#3fb950"/><circle cx="94.4" cy="198.0" r="3" fill="#3fb950"/><circle cx="99.3" cy="198.0" r="3" fill="#3fb950"/><circle cx="104.2" cy="198.0" r="3" fill="#3fb950"/><circle cx="109.0" cy="198.0" r="3" fill="#3fb950"/><circle cx="113.9" cy="198.0" r="3" fill="#3fb950"/><circle cx="118.8" cy="198.0" r="3" fill="#3fb950"/><circle cx="123.6" cy="198.0" r="3" fill="#3fb950"/><circle cx="128.5" cy="198.0" r="3" fill="#3fb950"/><circle cx="133.4" cy="198.0" r="3" fill="#3fb950"/><circle cx="138.2" cy="198.0" r="3" fill="#3fb950"/><circle cx="143.1" cy="198.0" r="3" fill="#3fb950"/><circle cx="148.0" cy="198.0" r="3" fill="#3fb950"/><circle cx="152.8" cy="198.0" r="3" fill="#3fb950"/><circle cx="157.7" cy="198.0" r="3" fill="#3fb950"/><circle cx="162.6" cy="198.0" r="3" fill="#3fb950"/><circle cx="167.4" cy="198.0" r="3" fill="#3fb950"/><circle cx="172.3" cy="198.0" r="3" fill="#3fb950"/><circle cx="177.2" cy="198.0" r="3" fill="#3fb950"/><circle cx="182.0" cy="198.0" r="3" fill="#3fb950"/><circle cx="186.9" cy="198.0" r="3" fill="#3fb950"/><circle cx="191.8" cy="198.0" r="3" fill="#3fb950"/><circle cx="196.7" cy="198.0" r="3" fill="#3fb950"/><circle cx="201.5" cy="198.0" r="3" fill="#3fb950"/><circle cx="206.4" cy="198.0" r="3" fill="#3fb950"/><circle cx="211.3" cy="198.0" r="3" fill="#3fb950"/><circle cx="216.1" cy="198.0" r="3" fill="#3fb950"/><circle cx="221.0" cy="198.0" r="3" fill="#3fb950"/><circle cx="225.9" cy="198.0" r="3" fill="#3fb950"/><circle cx="230.7" cy="198.0" r="3" fill="#3fb950"/><circle cx="235.6" cy="198.0" r="3" fill="#3fb950"/><circle cx="240.5" cy="198.0" r="3" fill="#3fb950"/><circle cx="245.3" cy="191.7" r="3" fill="#3fb950"/><circle cx="250.2" cy="191.7" r="3" fill="#3fb950"/><circle cx="255.1" cy="191.7" r="3" fill="#3fb950"/><circle cx="259.9" cy="191.7" r="3" fill="#3fb950"/><circle cx="264.8" cy="191.7" r="3" fill="#3fb950"/><circle cx="269.7" cy="191.7" r="3" fill="#3fb950"/><circle cx="274.5" cy="191.7" r="3" fill="#3fb950"/><circle cx="279.4" cy="192.9" r="3" fill="#3fb950"/><circle cx="284.3" cy="192.9" r="3" fill="#3fb950"/><circle cx="289.1" cy="190.7" r="3" fill="#3fb950"/><circle cx="294.0" cy="190.7" r="3" fill="#3fb950"/><circle cx="298.9" cy="190.7" r="3" fill="#3fb950"/><circle cx="303.8" cy="190.7" r="3" fill="#3fb950"/><circle cx="308.6" cy="190.7" r="3" fill="#3fb950"/><circle cx="313.5" cy="190.5" r="3" fill="#3fb950"/><circle cx="318.4" cy="190.5" r="3" fill="#3fb950"/><circle cx="323.2" cy="190.5" r="3" fill="#3fb950"/><circle cx="328.1" cy="190.3" r="3" fill="#3fb950"/><circle cx="333.0" cy="190.3" r="3" fill="#3fb950"/><circle cx="337.8" cy="190.3" r="3" fill="#3fb950"/><circle cx="342.7" cy="190.3" r="3" fill="#3fb950"/><circle cx="347.6" cy="190.3" r="3" fill="#3fb950"/><circle cx="352.4" cy="190.3" r="3" fill="#3fb950"/><circle cx="357.3" cy="190.3" r="3" fill="#3fb950"/><circle cx="362.2" cy="190.3" r="3" fill="#3fb950"/><circle cx="367.0" cy="190.3" r="3" fill="#3fb950"/><circle cx="371.9" cy="190.3" r="3" fill="#3fb950"/><circle cx="376.8" cy="190.3" r="3" fill="#3fb950"/><circle cx="381.6" cy="190.3" r="3" fill="#3fb950"/><circle cx="386.5" cy="190.3" r="3" fill="#3fb950"/><circle cx="391.4" cy="190.3" r="3" fill="#3fb950"/><circle cx="396.2" cy="190.3" r="3" fill="#3fb950"/><circle cx="401.1" cy="190.3" r="3" fill="#3fb950"/><circle cx="406.0" cy="190.3" r="3" fill="#3fb950"/><circle cx="410.9" cy="190.3" r="3" fill="#3fb950"/><circle cx="415.7" cy="190.3" r="3" fill="#3fb950"/><circle cx="420.6" cy="190.3" r="3" fill="#3fb950"/><circle cx="425.5" cy="190.3" r="3" fill="#3fb950"/><circle cx="430.3" cy="189.3" r="3" fill="#3fb950"/><circle cx="435.2" cy="189.3" r="3" fill="#3fb950"/><circle cx="440.1" cy="189.3" r="3" fill="#3fb950"/><circle cx="444.9" cy="190.7" r="3" fill="#3fb950"/><circle cx="449.8" cy="190.7" r="3" fill="#3fb950"/><circle cx="454.7" cy="190.7" r="3" fill="#3fb950"/><circle cx="459.5" cy="190.7" r="3" fill="#3fb950"/><circle cx="464.4" cy="190.7" r="3" fill="#3fb950"/><circle cx="469.3" cy="190.7" r="3" fill="#3fb950"/><circle cx="474.1" cy="190.7" r="3" fill="#3fb950"/><circle cx="479.0" cy="190.7" r="3" fill="#3fb950"/><circle cx="483.9" cy="190.7" r="3" fill="#3fb950"/><circle cx="488.7" cy="190.9" r="3" fill="#3fb950"/><circle cx="493.6" cy="190.9" r="3" fill="#3fb950"/><circle cx="498.5" cy="190.9" r="3" fill="#3fb950"/><circle cx="503.3" cy="194.2" r="3" fill="#3fb950"/><circle cx="508.2" cy="196.8" r="3" fill="#3fb950"/><circle cx="513.1" cy="198.0" r="3" fill="#3fb950"/><circle cx="518.0" cy="198.0" r="3" fill="#3fb950"/><circle cx="522.8" cy="198.0" r="3" fill="#3fb950"/><circle cx="527.7" cy="198.0" r="3" fill="#3fb950"/><circle cx="532.6" cy="198.0" r="3" fill="#3fb950"/><circle cx="537.4" cy="198.0" r="3" fill="#3fb950"/><circle cx="542.3" cy="198.0" r="3" fill="#3fb950"/><circle cx="547.2" cy="198.0" r="3" fill="#3fb950"/><circle cx="552.0" cy="198.0" r="3" fill="#3fb950"/><circle cx="556.9" cy="198.0" r="3" fill="#3fb950"/><circle cx="561.8" cy="198.0" r="3" fill="#3fb950"/><circle cx="566.6" cy="198.0" r="3" fill="#3fb950"/><circle cx="571.5" cy="198.0" r="3" fill="#3fb950"/><circle cx="576.4" cy="198.0" r="3" fill="#3fb950"/><circle cx="581.2" cy="198.0" r="3" fill="#3fb950"/><circle cx="586.1" cy="198.0" r="3" fill="#3fb950"/><circle cx="591.0" cy="198.0" r="3" fill="#3fb950"/><circle cx="595.8" cy="198.0" r="3" fill="#3fb950"/><circle cx="600.7" cy="198.0" r="3" fill="#3fb950"/><circle cx="605.6" cy="198.0" r="3" fill="#3fb950"/><circle cx="610.4" cy="198.0" r="3" fill="#3fb950"/><circle cx="615.3" cy="198.0" r="3" fill="#3fb950"/><circle cx="620.2" cy="198.0" r="3" fill="#3fb950"/><circle cx="625.1" cy="198.0" r="3" fill="#3fb950"/><circle cx="629.9" cy="198.0" r="3" fill="#3fb950"/><circle cx="634.8" cy="198.0" r="3" fill="#3fb950"/><circle cx="639.7" cy="198.0" r="3" fill="#3fb950"/><circle cx="644.5" cy="198.0" r="3" fill="#3fb950"/><circle cx="649.4" cy="198.0" r="3" fill="#3fb950"/><circle cx="654.3" cy="198.0" r="3" fill="#3fb950"/><circle cx="659.1" cy="198.0" r="3" fill="#3fb950"/><circle cx="664.0" cy="198.0" r="3" fill="#3fb950"/>
<polyline fill="none" stroke="#4aa3ff" stroke-width="2.5" stroke-linejoin="round" points="36.0,144.3 40.9,144.3 45.7,144.3 50.6,144.3 55.5,144.3 60.3,144.3 65.2,144.3 70.1,144.3 74.9,144.3 79.8,144.3 84.7,144.3 89.6,144.3 94.4,144.3 99.3,144.3 104.2,144.3 109.0,136.2 113.9,132.4 118.8,129.6 123.6,129.6 128.5,121.0 133.4,121.0 138.2,121.0 143.1,114.4 148.0,114.4 152.8,114.4 157.7,111.3 162.6,110.9 167.4,110.9 172.3,110.5 177.2,110.5 182.0,109.9 186.9,108.7 191.8,107.3 196.7,106.9 201.5,106.9 206.4,106.9 211.3,106.9 216.1,106.9 221.0,106.9 225.9,106.9 230.7,106.9 235.6,106.9 240.5,106.9 245.3,113.2 250.2,113.2 255.1,113.2 259.9,113.2 264.8,113.2 269.7,110.7 274.5,105.3 279.4,83.4 284.3,83.4 289.1,85.6 294.0,85.6 298.9,85.6 303.8,85.6 308.6,85.6 313.5,85.8 318.4,85.8 323.2,85.8 328.1,86.0 333.0,86.0 337.8,86.0 342.7,86.0 347.6,86.0 352.4,86.0 357.3,86.0 362.2,86.0 367.0,86.0 371.9,86.0 376.8,86.0 381.6,86.0 386.5,86.0 391.4,86.0 396.2,86.0 401.1,86.0 406.0,86.0 410.9,86.0 415.7,86.0 420.6,86.0 425.5,86.0 430.3,87.0 435.2,87.0 440.1,87.0 444.9,73.7 449.8,73.7 454.7,71.0 459.5,71.0 464.4,70.8 469.3,70.6 474.1,70.6 479.0,70.4 483.9,68.6 488.7,60.5 493.6,59.3 498.5,52.0 503.3,47.3 508.2,40.1 513.1,36.0 518.0,36.0 522.8,36.0 527.7,36.0 532.6,36.0 537.4,36.0 542.3,36.0 547.2,36.0 552.0,36.0 556.9,36.0 561.8,36.0 566.6,36.0 571.5,36.0 576.4,36.0 581.2,36.0 586.1,36.0 591.0,36.0 595.8,36.0 600.7,36.0 605.6,36.0 610.4,36.0 615.3,36.0 620.2,36.0 625.1,36.0 629.9,36.0 634.8,36.0 639.7,36.0 644.5,36.0 649.4,36.0 654.3,36.0 659.1,36.0 664.0,36.0"/><circle cx="36.0" cy="144.3" r="3" fill="#4aa3ff"/><circle cx="40.9" cy="144.3" r="3" fill="#4aa3ff"/><circle cx="45.7" cy="144.3" r="3" fill="#4aa3ff"/><circle cx="50.6" cy="144.3" r="3" fill="#4aa3ff"/><circle cx="55.5" cy="144.3" r="3" fill="#4aa3ff"/><circle cx="60.3" cy="144.3" r="3" fill="#4aa3ff"/><circle cx="65.2" cy="144.3" r="3" fill="#4aa3ff"/><circle cx="70.1" cy="144.3" r="3" fill="#4aa3ff"/><circle cx="74.9" cy="144.3" r="3" fill="#4aa3ff"/><circle cx="79.8" cy="144.3" r="3" fill="#4aa3ff"/><circle cx="84.7" cy="144.3" r="3" fill="#4aa3ff"/><circle cx="89.6" cy="144.3" r="3" fill="#4aa3ff"/><circle cx="94.4" cy="144.3" r="3" fill="#4aa3ff"/><circle cx="99.3" cy="144.3" r="3" fill="#4aa3ff"/><circle cx="104.2" cy="144.3" r="3" fill="#4aa3ff"/><circle cx="109.0" cy="136.2" r="3" fill="#4aa3ff"/><circle cx="113.9" cy="132.4" r="3" fill="#4aa3ff"/><circle cx="118.8" cy="129.6" r="3" fill="#4aa3ff"/><circle cx="123.6" cy="129.6" r="3" fill="#4aa3ff"/><circle cx="128.5" cy="121.0" r="3" fill="#4aa3ff"/><circle cx="133.4" cy="121.0" r="3" fill="#4aa3ff"/><circle cx="138.2" cy="121.0" r="3" fill="#4aa3ff"/><circle cx="143.1" cy="114.4" r="3" fill="#4aa3ff"/><circle cx="148.0" cy="114.4" r="3" fill="#4aa3ff"/><circle cx="152.8" cy="114.4" r="3" fill="#4aa3ff"/><circle cx="157.7" cy="111.3" r="3" fill="#4aa3ff"/><circle cx="162.6" cy="110.9" r="3" fill="#4aa3ff"/><circle cx="167.4" cy="110.9" r="3" fill="#4aa3ff"/><circle cx="172.3" cy="110.5" r="3" fill="#4aa3ff"/><circle cx="177.2" cy="110.5" r="3" fill="#4aa3ff"/><circle cx="182.0" cy="109.9" r="3" fill="#4aa3ff"/><circle cx="186.9" cy="108.7" r="3" fill="#4aa3ff"/><circle cx="191.8" cy="107.3" r="3" fill="#4aa3ff"/><circle cx="196.7" cy="106.9" r="3" fill="#4aa3ff"/><circle cx="201.5" cy="106.9" r="3" fill="#4aa3ff"/><circle cx="206.4" cy="106.9" r="3" fill="#4aa3ff"/><circle cx="211.3" cy="106.9" r="3" fill="#4aa3ff"/><circle cx="216.1" cy="106.9" r="3" fill="#4aa3ff"/><circle cx="221.0" cy="106.9" r="3" fill="#4aa3ff"/><circle cx="225.9" cy="106.9" r="3" fill="#4aa3ff"/><circle cx="230.7" cy="106.9" r="3" fill="#4aa3ff"/><circle cx="235.6" cy="106.9" r="3" fill="#4aa3ff"/><circle cx="240.5" cy="106.9" r="3" fill="#4aa3ff"/><circle cx="245.3" cy="113.2" r="3" fill="#4aa3ff"/><circle cx="250.2" cy="113.2" r="3" fill="#4aa3ff"/><circle cx="255.1" cy="113.2" r="3" fill="#4aa3ff"/><circle cx="259.9" cy="113.2" r="3" fill="#4aa3ff"/><circle cx="264.8" cy="113.2" r="3" fill="#4aa3ff"/><circle cx="269.7" cy="110.7" r="3" fill="#4aa3ff"/><circle cx="274.5" cy="105.3" r="3" fill="#4aa3ff"/><circle cx="279.4" cy="83.4" r="3" fill="#4aa3ff"/><circle cx="284.3" cy="83.4" r="3" fill="#4aa3ff"/><circle cx="289.1" cy="85.6" r="3" fill="#4aa3ff"/><circle cx="294.0" cy="85.6" r="3" fill="#4aa3ff"/><circle cx="298.9" cy="85.6" r="3" fill="#4aa3ff"/><circle cx="303.8" cy="85.6" r="3" fill="#4aa3ff"/><circle cx="308.6" cy="85.6" r="3" fill="#4aa3ff"/><circle cx="313.5" cy="85.8" r="3" fill="#4aa3ff"/><circle cx="318.4" cy="85.8" r="3" fill="#4aa3ff"/><circle cx="323.2" cy="85.8" r="3" fill="#4aa3ff"/><circle cx="328.1" cy="86.0" r="3" fill="#4aa3ff"/><circle cx="333.0" cy="86.0" r="3" fill="#4aa3ff"/><circle cx="337.8" cy="86.0" r="3" fill="#4aa3ff"/><circle cx="342.7" cy="86.0" r="3" fill="#4aa3ff"/><circle cx="347.6" cy="86.0" r="3" fill="#4aa3ff"/><circle cx="352.4" cy="86.0" r="3" fill="#4aa3ff"/><circle cx="357.3" cy="86.0" r="3" fill="#4aa3ff"/><circle cx="362.2" cy="86.0" r="3" fill="#4aa3ff"/><circle cx="367.0" cy="86.0" r="3" fill="#4aa3ff"/><circle cx="371.9" cy="86.0" r="3" fill="#4aa3ff"/><circle cx="376.8" cy="86.0" r="3" fill="#4aa3ff"/><circle cx="381.6" cy="86.0" r="3" fill="#4aa3ff"/><circle cx="386.5" cy="86.0" r="3" fill="#4aa3ff"/><circle cx="391.4" cy="86.0" r="3" fill="#4aa3ff"/><circle cx="396.2" cy="86.0" r="3" fill="#4aa3ff"/><circle cx="401.1" cy="86.0" r="3" fill="#4aa3ff"/><circle cx="406.0" cy="86.0" r="3" fill="#4aa3ff"/><circle cx="410.9" cy="86.0" r="3" fill="#4aa3ff"/><circle cx="415.7" cy="86.0" r="3" fill="#4aa3ff"/><circle cx="420.6" cy="86.0" r="3" fill="#4aa3ff"/><circle cx="425.5" cy="86.0" r="3" fill="#4aa3ff"/><circle cx="430.3" cy="87.0" r="3" fill="#4aa3ff"/><circle cx="435.2" cy="87.0" r="3" fill="#4aa3ff"/><circle cx="440.1" cy="87.0" r="3" fill="#4aa3ff"/><circle cx="444.9" cy="73.7" r="3" fill="#4aa3ff"/><circle cx="449.8" cy="73.7" r="3" fill="#4aa3ff"/><circle cx="454.7" cy="71.0" r="3" fill="#4aa3ff"/><circle cx="459.5" cy="71.0" r="3" fill="#4aa3ff"/><circle cx="464.4" cy="70.8" r="3" fill="#4aa3ff"/><circle cx="469.3" cy="70.6" r="3" fill="#4aa3ff"/><circle cx="474.1" cy="70.6" r="3" fill="#4aa3ff"/><circle cx="479.0" cy="70.4" r="3" fill="#4aa3ff"/><circle cx="483.9" cy="68.6" r="3" fill="#4aa3ff"/><circle cx="488.7" cy="60.5" r="3" fill="#4aa3ff"/><circle cx="493.6" cy="59.3" r="3" fill="#4aa3ff"/><circle cx="498.5" cy="52.0" r="3" fill="#4aa3ff"/><circle cx="503.3" cy="47.3" r="3" fill="#4aa3ff"/><circle cx="508.2" cy="40.1" r="3" fill="#4aa3ff"/><circle cx="513.1" cy="36.0" r="3" fill="#4aa3ff"/><circle cx="518.0" cy="36.0" r="3" fill="#4aa3ff"/><circle cx="522.8" cy="36.0" r="3" fill="#4aa3ff"/><circle cx="527.7" cy="36.0" r="3" fill="#4aa3ff"/><circle cx="532.6" cy="36.0" r="3" fill="#4aa3ff"/><circle cx="537.4" cy="36.0" r="3" fill="#4aa3ff"/><circle cx="542.3" cy="36.0" r="3" fill="#4aa3ff"/><circle cx="547.2" cy="36.0" r="3" fill="#4aa3ff"/><circle cx="552.0" cy="36.0" r="3" fill="#4aa3ff"/><circle cx="556.9" cy="36.0" r="3" fill="#4aa3ff"/><circle cx="561.8" cy="36.0" r="3" fill="#4aa3ff"/><circle cx="566.6" cy="36.0" r="3" fill="#4aa3ff"/><circle cx="571.5" cy="36.0" r="3" fill="#4aa3ff"/><circle cx="576.4" cy="36.0" r="3" fill="#4aa3ff"/><circle cx="581.2" cy="36.0" r="3" fill="#4aa3ff"/><circle cx="586.1" cy="36.0" r="3" fill="#4aa3ff"/><circle cx="591.0" cy="36.0" r="3" fill="#4aa3ff"/><circle cx="595.8" cy="36.0" r="3" fill="#4aa3ff"/><circle cx="600.7" cy="36.0" r="3" fill="#4aa3ff"/><circle cx="605.6" cy="36.0" r="3" fill="#4aa3ff"/><circle cx="610.4" cy="36.0" r="3" fill="#4aa3ff"/><circle cx="615.3" cy="36.0" r="3" fill="#4aa3ff"/><circle cx="620.2" cy="36.0" r="3" fill="#4aa3ff"/><circle cx="625.1" cy="36.0" r="3" fill="#4aa3ff"/><circle cx="629.9" cy="36.0" r="3" fill="#4aa3ff"/><circle cx="634.8" cy="36.0" r="3" fill="#4aa3ff"/><circle cx="639.7" cy="36.0" r="3" fill="#4aa3ff"/><circle cx="644.5" cy="36.0" r="3" fill="#4aa3ff"/><circle cx="649.4" cy="36.0" r="3" fill="#4aa3ff"/><circle cx="654.3" cy="36.0" r="3" fill="#4aa3ff"/><circle cx="659.1" cy="36.0" r="3" fill="#4aa3ff"/><circle cx="664.0" cy="36.0" r="3" fill="#4aa3ff"/>
<text x="36" y="225" fill="#6b7280" font-size="11">2026-06-26</text>
<text x="664" y="225" fill="#6b7280" font-size="11" text-anchor="end">2026-07-10</text>
<text x="36" y="212" font-family="system-ui,sans-serif" font-size="11">
<tspan fill="#4aa3ff">&#9679; open FPs</tspan>  <tspan fill="#3fb950">&#9679; closed (Anthropic acting)</tspan>  <tspan fill="#8a5a5a">&#9679; harness withdrawn</tspan></text>
<text x="664" y="22" text-anchor="end" font-family="system-ui,sans-serif" font-size="12">
<tspan fill="#4aa3ff">open 800</tspan>  <tspan fill="#3fb950">closed 0</tspan>  <tspan fill="#8a5a5a">harness 0</tspan></text>
</svg>