<svg xmlns="http://www.w3.org/2000/svg" width="700" height="234" viewBox="0 0 700 234" role="img">
<rect width="700" height="234" rx="12" fill="#16181d"/>
<text x="36" y="22" fill="#e8eaed" font-family="system-ui,sans-serif" font-size="14" font-weight="700">Is Anthropic acting? cyber/aup false positives over time</text>
<line x1="36" y1="198.0" x2="664" y2="198.0" stroke="#2a2e37" stroke-width="1"/><text x="30" y="202.0" fill="#6b7280" font-size="11" text-anchor="end">0</text><line x1="36" y1="117.0" x2="664" y2="117.0" stroke="#2a2e37" stroke-width="1"/><text x="30" y="121.0" fill="#6b7280" font-size="11" text-anchor="end">400</text><line x1="36" y1="36.0" x2="664" y2="36.0" stroke="#2a2e37" stroke-width="1"/><text x="30" y="40.0" fill="#6b7280" font-size="11" text-anchor="end">800</text>

<polyline fill="none" stroke="#8a5a5a" stroke-width="2.5" stroke-linejoin="round" points="36.0,145.1 38.9,145.1 41.7,145.1 44.6,145.1 47.5,145.1 50.3,145.1 53.2,145.1 56.1,145.1 58.9,145.1 61.8,145.1 64.7,145.1 67.5,145.1 70.4,145.1 73.3,145.1 76.1,145.1 79.0,145.1 81.9,145.1 84.7,145.1 87.6,145.1 90.5,145.1 93.4,145.1 96.2,145.1 99.1,145.1 102.0,145.1 104.8,145.1 107.7,145.1 110.6,145.1 113.4,145.1 116.3,145.1 119.2,145.1 122.0,145.1 124.9,145.1 127.8,145.1 130.6,145.1 133.5,145.1 136.4,145.1 139.2,145.1 142.1,145.1 145.0,145.1 147.8,145.1 150.7,145.1 153.6,145.1 156.4,145.1 159.3,145.1 162.2,145.1 165.0,145.1 167.9,145.1 170.8,145.1 173.6,145.1 176.5,145.1 179.4,155.7 182.2,155.7 185.1,155.7 188.0,155.7 190.8,155.7 193.7,155.7 196.6,155.7 199.5,155.7 202.3,155.7 205.2,155.7 208.1,155.7 210.9,155.7 213.8,155.7 216.7,155.7 219.5,155.7 222.4,155.7 225.3,155.7 228.1,155.7 231.0,155.7 233.9,155.7 236.7,155.7 239.6,155.7 242.5,155.7 245.3,155.7 248.2,155.7 251.1,155.7 253.9,155.7 256.8,155.7 259.7,155.7 262.5,155.7 265.4,155.7 268.3,155.7 271.1,155.7 274.0,155.7 276.9,167.6 279.7,167.6 282.6,170.3 285.5,170.3 288.3,170.5 291.2,170.7 294.1,170.7 296.9,170.9 299.8,172.7 302.7,180.6 305.6,181.8 308.4,189.1 311.3,190.5 314.2,195.2 317.0,198.0 319.9,198.0 322.8,198.0 325.6,198.0 328.5,198.0 331.4,198.0 334.2,198.0 337.1,198.0 340.0,198.0 342.8,198.0 345.7,198.0 348.6,198.0 351.4,198.0 354.3,198.0 357.2,198.0 360.0,198.0 362.9,198.0 365.8,198.0 368.6,198.0 371.5,198.0 374.4,198.0 377.2,198.0 380.1,198.0 383.0,198.0 385.8,198.0 388.7,198.0 391.6,198.0 394.4,198.0 397.3,198.0 400.2,198.0 403.1,198.0 405.9,198.0 408.8,198.0 411.7,198.0 414.5,198.0 417.4,198.0 420.3,198.0 423.1,198.0 426.0,198.0 428.9,198.0 431.7,198.0 434.6,198.0 437.5,198.0 440.3,198.0 443.2,198.0 446.1,198.0 448.9,198.0 451.8,198.0 454.7,198.0 457.5,198.0 460.4,198.0 463.3,198.0 466.1,198.0 469.0,198.0 471.9,198.0 474.7,198.0 477.6,198.0 480.5,198.0 483.3,198.0 486.2,198.0 489.1,198.0 491.9,198.0 494.8,198.0 497.7,198.0 500.5,198.0 503.4,198.0 506.3,198.0 509.2,198.0 512.0,198.0 514.9,198.0 517.8,198.0 520.6,198.0 523.5,198.0 526.4,198.0 529.2,198.0 532.1,198.0 535.0,198.0 537.8,198.0 540.7,198.0 543.6,198.0 546.4,198.0 549.3,198.0 552.2,198.0 555.0,198.0 557.9,198.0 560.8,198.0 563.6,198.0 566.5,198.0 569.4,198.0 572.2,198.0 575.1,198.0 578.0,198.0 580.8,198.0 583.7,198.0 586.6,198.0 589.4,198.0 592.3,198.0 595.2,198.0 598.0,198.0 600.9,198.0 603.8,198.0 606.6,198.0 609.5,198.0 612.4,198.0 615.3,198.0 618.1,198.0 621.0,198.0 623.9,198.0 626.7,198.0 629.6,198.0 632.5,198.0 635.3,198.0 638.2,198.0 641.1,198.0 643.9,198.0 646.8,198.0 649.7,198.0 652.5,198.0 655.4,198.0 658.3,198.0 661.1,198.0 664.0,198.0"/><circle cx="36.0" cy="145.1" r="3" fill="#8a5a5a"/><circle cx="38.9" cy="145.1" r="3" fill="#8a5a5a"/><circle cx="41.7" cy="145.1" r="3" fill="#8a5a5a"/><circle cx="44.6" cy="145.1" r="3" fill="#8a5a5a"/><circle cx="47.5" cy="145.1" r="3" fill="#8a5a5a"/><circle cx="50.3" cy="145.1" r="3" fill="#8a5a5a"/><circle cx="53.2" cy="145.1" r="3" fill="#8a5a5a"/><circle cx="56.1" cy="145.1" r="3" fill="#8a5a5a"/><circle cx="58.9" cy="145.1" r="3" fill="#8a5a5a"/><circle cx="61.8" cy="145.1" r="3" fill="#8a5a5a"/><circle cx="64.7" cy="145.1" r="3" fill="#8a5a5a"/><circle cx="67.5" cy="145.1" r="3" fill="#8a5a5a"/><circle cx="70.4" cy="145.1" r="3" fill="#8a5a5a"/><circle cx="73.3" cy="145.1" r="3" fill="#8a5a5a"/><circle cx="76.1" cy="145.1" r="3" fill="#8a5a5a"/><circle cx="79.0" cy="145.1" r="3" fill="#8a5a5a"/><circle cx="81.9" cy="145.1" r="3" fill="#8a5a5a"/><circle cx="84.7" cy="145.1" r="3" fill="#8a5a5a"/><circle cx="87.6" cy="145.1" r="3" fill="#8a5a5a"/><circle cx="90.5" cy="145.1" r="3" fill="#8a5a5a"/><circle cx="93.4" cy="145.1" r="3" fill="#8a5a5a"/><circle cx="96.2" cy="145.1" r="3" fill="#8a5a5a"/><circle cx="99.1" cy="145.1" r="3" fill="#8a5a5a"/><circle cx="102.0" cy="145.1" r="3" fill="#8a5a5a"/><circle cx="104.8" cy="145.1" r="3" fill="#8a5a5a"/><circle cx="107.7" cy="145.1" r="3" fill="#8a5a5a"/><circle cx="110.6" cy="145.1" r="3" fill="#8a5a5a"/><circle cx="113.4" cy="145.1" r="3" fill="#8a5a5a"/><circle cx="116.3" cy="145.1" r="3" fill="#8a5a5a"/><circle cx="119.2" cy="145.1" r="3" fill="#8a5a5a"/><circle cx="122.0" cy="145.1" r="3" fill="#8a5a5a"/><circle cx="124.9" cy="145.1" r="3" fill="#8a5a5a"/><circle cx="127.8" cy="145.1" r="3" fill="#8a5a5a"/><circle cx="130.6" cy="145.1" r="3" fill="#8a5a5a"/><circle cx="133.5" cy="145.1" r="3" fill="#8a5a5a"/><circle cx="136.4" cy="145.1" r="3" fill="#8a5a5a"/><circle cx="139.2" cy="145.1" r="3" fill="#8a5a5a"/><circle cx="142.1" cy="145.1" r="3" fill="#8a5a5a"/><circle cx="145.0" cy="145.1" r="3" fill="#8a5a5a"/><circle cx="147.8" cy="145.1" r="3" fill="#8a5a5a"/><circle cx="150.7" cy="145.1" r="3" fill="#8a5a5a"/><circle cx="153.6" cy="145.1" r="3" fill="#8a5a5a"/><circle cx="156.4" cy="145.1" r="3" fill="#8a5a5a"/><circle cx="159.3" cy="145.1" r="3" fill="#8a5a5a"/><circle cx="162.2" cy="145.1" r="3" fill="#8a5a5a"/><circle cx="165.0" cy="145.1" r="3" fill="#8a5a5a"/><circle cx="167.9" cy="145.1" r="3" fill="#8a5a5a"/><circle cx="170.8" cy="145.1" r="3" fill="#8a5a5a"/><circle cx="173.6" cy="145.1" r="3" fill="#8a5a5a"/><circle cx="176.5" cy="145.1" r="3" fill="#8a5a5a"/><circle cx="179.4" cy="155.7" r="3" fill="#8a5a5a"/><circle cx="182.2" cy="155.7" r="3" fill="#8a5a5a"/><circle cx="185.1" cy="155.7" r="3" fill="#8a5a5a"/><circle cx="188.0" cy="155.7" r="3" fill="#8a5a5a"/><circle cx="190.8" cy="155.7" r="3" fill="#8a5a5a"/><circle cx="193.7" cy="155.7" r="3" fill="#8a5a5a"/><circle cx="196.6" cy="155.7" r="3" fill="#8a5a5a"/><circle cx="199.5" cy="155.7" r="3" fill="#8a5a5a"/><circle cx="202.3" cy="155.7" r="3" fill="#8a5a5a"/><circle cx="205.2" cy="155.7" r="3" fill="#8a5a5a"/><circle cx="208.1" cy="155.7" r="3" fill="#8a5a5a"/><circle cx="210.9" cy="155.7" r="3" fill="#8a5a5a"/><circle cx="213.8" cy="155.7" r="3" fill="#8a5a5a"/><circle cx="216.7" cy="155.7" r="3" fill="#8a5a5a"/><circle cx="219.5" cy="155.7" r="3" fill="#8a5a5a"/><circle cx="222.4" cy="155.7" r="3" fill="#8a5a5a"/><circle cx="225.3" cy="155.7" r="3" fill="#8a5a5a"/><circle cx="228.1" cy="155.7" r="3" fill="#8a5a5a"/><circle cx="231.0" cy="155.7" r="3" fill="#8a5a5a"/><circle cx="233.9" cy="155.7" r="3" fill="#8a5a5a"/><circle cx="236.7" cy="155.7" r="3" fill="#8a5a5a"/><circle cx="239.6" cy="155.7" r="3" fill="#8a5a5a"/><circle cx="242.5" cy="155.7" r="3" fill="#8a5a5a"/><circle cx="245.3" cy="155.7" r="3" fill="#8a5a5a"/><circle cx="248.2" cy="155.7" r="3" fill="#8a5a5a"/><circle cx="251.1" cy="155.7" r="3" fill="#8a5a5a"/><circle cx="253.9" cy="155.7" r="3" fill="#8a5a5a"/><circle cx="256.8" cy="155.7" r="3" fill="#8a5a5a"/><circle cx="259.7" cy="155.7" r="3" fill="#8a5a5a"/><circle cx="262.5" cy="155.7" r="3" fill="#8a5a5a"/><circle cx="265.4" cy="155.7" r="3" fill="#8a5a5a"/><circle cx="268.3" cy="155.7" r="3" fill="#8a5a5a"/><circle cx="271.1" cy="155.7" r="3" fill="#8a5a5a"/><circle cx="274.0" cy="155.7" r="3" fill="#8a5a5a"/><circle cx="276.9" cy="167.6" r="3" fill="#8a5a5a"/><circle cx="279.7" cy="167.6" r="3" fill="#8a5a5a"/><circle cx="282.6" cy="170.3" r="3" fill="#8a5a5a"/><circle cx="285.5" cy="170.3" r="3" fill="#8a5a5a"/><circle cx="288.3" cy="170.5" r="3" fill="#8a5a5a"/><circle cx="291.2" cy="170.7" r="3" fill="#8a5a5a"/><circle cx="294.1" cy="170.7" r="3" fill="#8a5a5a"/><circle cx="296.9" cy="170.9" r="3" fill="#8a5a5a"/><circle cx="299.8" cy="172.7" r="3" fill="#8a5a5a"/><circle cx="302.7" cy="180.6" r="3" fill="#8a5a5a"/><circle cx="305.6" cy="181.8" r="3" fill="#8a5a5a"/><circle cx="308.4" cy="189.1" r="3" fill="#8a5a5a"/><circle cx="311.3" cy="190.5" r="3" fill="#8a5a5a"/><circle cx="314.2" cy="195.2" r="3" fill="#8a5a5a"/><circle cx="317.0" cy="198.0" r="3" fill="#8a5a5a"/><circle cx="319.9" cy="198.0" r="3" fill="#8a5a5a"/><circle cx="322.8" cy="198.0" r="3" fill="#8a5a5a"/><circle cx="325.6" cy="198.0" r="3" fill="#8a5a5a"/><circle cx="328.5" cy="198.0" r="3" fill="#8a5a5a"/><circle cx="331.4" cy="198.0" r="3" fill="#8a5a5a"/><circle cx="334.2" cy="198.0" r="3" fill="#8a5a5a"/><circle cx="337.1" cy="198.0" r="3" fill="#8a5a5a"/><circle cx="340.0" cy="198.0" r="3" fill="#8a5a5a"/><circle cx="342.8" cy="198.0" r="3" fill="#8a5a5a"/><circle cx="345.7" cy="198.0" r="3" fill="#8a5a5a"/><circle cx="348.6" cy="198.0" r="3" fill="#8a5a5a"/><circle cx="351.4" cy="198.0" r="3" fill="#8a5a5a"/><circle cx="354.3" cy="198.0" r="3" fill="#8a5a5a"/><circle cx="357.2" cy="198.0" r="3" fill="#8a5a5a"/><circle cx="360.0" cy="198.0" r="3" fill="#8a5a5a"/><circle cx="362.9" cy="198.0" r="3" fill="#8a5a5a"/><circle cx="365.8" cy="198.0" r="3" fill="#8a5a5a"/><circle cx="368.6" cy="198.0" r="3" fill="#8a5a5a"/><circle cx="371.5" cy="198.0" r="3" fill="#8a5a5a"/><circle cx="374.4" cy="198.0" r="3" fill="#8a5a5a"/><circle cx="377.2" cy="198.0" r="3" fill="#8a5a5a"/><circle cx="380.1" cy="198.0" r="3" fill="#8a5a5a"/><circle cx="383.0" cy="198.0" r="3" fill="#8a5a5a"/><circle cx="385.8" cy="198.0" r="3" fill="#8a5a5a"/><circle cx="388.7" cy="198.0" r="3" fill="#8a5a5a"/><circle cx="391.6" cy="198.0" r="3" fill="#8a5a5a"/><circle cx="394.4" cy="198.0" r="3" fill="#8a5a5a"/><circle cx="397.3" cy="198.0" r="3" fill="#8a5a5a"/><circle cx="400.2" cy="198.0" r="3" fill="#8a5a5a"/><circle cx="403.1" cy="198.0" r="3" fill="#8a5a5a"/><circle cx="405.9" cy="198.0" r="3" fill="#8a5a5a"/><circle cx="408.8" cy="198.0" r="3" fill="#8a5a5a"/><circle cx="411.7" cy="198.0" r="3" fill="#8a5a5a"/><circle cx="414.5" cy="198.0" r="3" fill="#8a5a5a"/><circle cx="417.4" cy="198.0" r="3" fill="#8a5a5a"/><circle cx="420.3" cy="198.0" r="3" fill="#8a5a5a"/><circle cx="423.1" cy="198.0" r="3" fill="#8a5a5a"/><circle cx="426.0" cy="198.0" r="3" fill="#8a5a5a"/><circle cx="428.9" cy="198.0" r="3" fill="#8a5a5a"/><circle cx="431.7" cy="198.0" r="3" fill="#8a5a5a"/><circle cx="434.6" cy="198.0" r="3" fill="#8a5a5a"/><circle cx="437.5" cy="198.0" r="3" fill="#8a5a5a"/><circle cx="440.3" cy="198.0" r="3" fill="#8a5a5a"/><circle cx="443.2" cy="198.0" r="3" fill="#8a5a5a"/><circle cx="446.1" cy="198.0" r="3" fill="#8a5a5a"/><circle cx="448.9" cy="198.0" r="3" fill="#8a5a5a"/><circle cx="451.8" cy="198.0" r="3" fill="#8a5a5a"/><circle cx="454.7" cy="198.0" r="3" fill="#8a5a5a"/><circle cx="457.5" cy="198.0" r="3" fill="#8a5a5a"/><circle cx="460.4" cy="198.0" r="3" fill="#8a5a5a"/><circle cx="463.3" cy="198.0" r="3" fill="#8a5a5a"/><circle cx="466.1" cy="198.0" r="3" fill="#8a5a5a"/><circle cx="469.0" cy="198.0" r="3" fill="#8a5a5a"/><circle cx="471.9" cy="198.0" r="3" fill="#8a5a5a"/><circle cx="474.7" cy="198.0" r="3" fill="#8a5a5a"/><circle cx="477.6" cy="198.0" r="3" fill="#8a5a5a"/><circle cx="480.5" cy="198.0" r="3" fill="#8a5a5a"/><circle cx="483.3" cy="198.0" r="3" fill="#8a5a5a"/><circle cx="486.2" cy="198.0" r="3" fill="#8a5a5a"/><circle cx="489.1" cy="198.0" r="3" fill="#8a5a5a"/><circle cx="491.9" cy="198.0" r="3" fill="#8a5a5a"/><circle cx="494.8" cy="198.0" r="3" fill="#8a5a5a"/><circle cx="497.7" cy="198.0" r="3" fill="#8a5a5a"/><circle cx="500.5" cy="198.0" r="3" fill="#8a5a5a"/><circle cx="503.4" cy="198.0" r="3" fill="#8a5a5a"/><circle cx="506.3" cy="198.0" r="3" fill="#8a5a5a"/><circle cx="509.2" cy="198.0" r="3" fill="#8a5a5a"/><circle cx="512.0" cy="198.0" r="3" fill="#8a5a5a"/><circle cx="514.9" cy="198.0" r="3" fill="#8a5a5a"/><circle cx="517.8" cy="198.0" r="3" fill="#8a5a5a"/><circle cx="520.6" cy="198.0" r="3" fill="#8a5a5a"/><circle cx="523.5" cy="198.0" r="3" fill="#8a5a5a"/><circle cx="526.4" cy="198.0" r="3" fill="#8a5a5a"/><circle cx="529.2" cy="198.0" r="3" fill="#8a5a5a"/><circle cx="532.1" cy="198.0" r="3" fill="#8a5a5a"/><circle cx="535.0" cy="198.0" r="3" fill="#8a5a5a"/><circle cx="537.8" cy="198.0" r="3" fill="#8a5a5a"/><circle cx="540.7" cy="198.0" r="3" fill="#8a5a5a"/><circle cx="543.6" cy="198.0" r="3" fill="#8a5a5a"/><circle cx="546.4" cy="198.0" r="3" fill="#8a5a5a"/><circle cx="549.3" cy="198.0" r="3" fill="#8a5a5a"/><circle cx="552.2" cy="198.0" r="3" fill="#8a5a5a"/><circle cx="555.0" cy="198.0" r="3" fill="#8a5a5a"/><circle cx="557.9" cy="198.0" r="3" fill="#8a5a5a"/><circle cx="560.8" cy="198.0" r="3" fill="#8a5a5a"/><circle cx="563.6" cy="198.0" r="3" fill="#8a5a5a"/><circle cx="566.5" cy="198.0" r="3" fill="#8a5a5a"/><circle cx="569.4" cy="198.0" r="3" fill="#8a5a5a"/><circle cx="572.2" cy="198.0" r="3" fill="#8a5a5a"/><circle cx="575.1" cy="198.0" r="3" fill="#8a5a5a"/><circle cx="578.0" cy="198.0" r="3" fill="#8a5a5a"/><circle cx="580.8" cy="198.0" r="3" fill="#8a5a5a"/><circle cx="583.7" cy="198.0" r="3" fill="#8a5a5a"/><circle cx="586.6" cy="198.0" r="3" fill="#8a5a5a"/><circle cx="589.4" cy="198.0" r="3" fill="#8a5a5a"/><circle cx="592.3" cy="198.0" r="3" fill="#8a5a5a"/><circle cx="595.2" cy="198.0" r="3" fill="#8a5a5a"/><circle cx="598.0" cy="198.0" r="3" fill="#8a5a5a"/><circle cx="600.9" cy="198.0" r="3" fill="#8a5a5a"/><circle cx="603.8" cy="198.0" r="3" fill="#8a5a5a"/><circle cx="606.6" cy="198.0" r="3" fill="#8a5a5a"/><circle cx="609.5" cy="198.0" r="3" fill="#8a5a5a"/><circle cx="612.4" cy="198.0" r="3" fill="#8a5a5a"/><circle cx="615.3" cy="198.0" r="3" fill="#8a5a5a"/><circle cx="618.1" cy="198.0" r="3" fill="#8a5a5a"/><circle cx="621.0" cy="198.0" r="3" fill="#8a5a5a"/><circle cx="623.9" cy="198.0" r="3" fill="#8a5a5a"/><circle cx="626.7" cy="198.0" r="3" fill="#8a5a5a"/><circle cx="629.6" cy="198.0" r="3" fill="#8a5a5a"/><circle cx="632.5" cy="198.0" r="3" fill="#8a5a5a"/><circle cx="635.3" cy="198.0" r="3" fill="#8a5a5a"/><circle cx="638.2" cy="198.0" r="3" fill="#8a5a5a"/><circle cx="641.1" cy="198.0" r="3" fill="#8a5a5a"/><circle cx="643.9" cy="198.0" r="3" fill="#8a5a5a"/><circle cx="646.8" cy="198.0" r="3" fill="#8a5a5a"/><circle cx="649.7" cy="198.0" r="3" fill="#8a5a5a"/><circle cx="652.5" cy="198.0" r="3" fill="#8a5a5a"/><circle cx="655.4" cy="198.0" r="3" fill="#8a5a5a"/><circle cx="658.3" cy="198.0" r="3" fill="#8a5a5a"/><circle cx="661.1" cy="198.0" r="3" fill="#8a5a5a"/><circle cx="664.0" cy="198.0" r="3" fill="#8a5a5a"/>
<polyline fill="none" stroke="#3fb950" stroke-width="2.5" stroke-linejoin="round" points="36.0,198.0 38.9,198.0 41.7,198.0 44.6,198.0 47.5,198.0 50.3,198.0 53.2,198.0 56.1,198.0 58.9,198.0 61.8,198.0 64.7,198.0 67.5,198.0 70.4,198.0 73.3,198.0 76.1,198.0 79.0,198.0 81.9,198.0 84.7,198.0 87.6,198.0 90.5,198.0 93.4,198.0 96.2,198.0 99.1,198.0 102.0,198.0 104.8,198.0 107.7,198.0 110.6,198.0 113.4,198.0 116.3,198.0 119.2,198.0 122.0,198.0 124.9,198.0 127.8,198.0 130.6,198.0 133.5,198.0 136.4,198.0 139.2,198.0 142.1,198.0 145.0,198.0 147.8,198.0 150.7,198.0 153.6,198.0 156.4,198.0 159.3,191.7 162.2,191.7 165.0,191.7 167.9,191.7 170.8,191.7 173.6,191.7 176.5,191.7 179.4,192.9 182.2,192.9 185.1,190.7 188.0,190.7 190.8,190.7 193.7,190.7 196.6,190.7 199.5,190.5 202.3,190.5 205.2,190.5 208.1,190.3 210.9,190.3 213.8,190.3 216.7,190.3 219.5,190.3 222.4,190.3 225.3,190.3 228.1,190.3 231.0,190.3 233.9,190.3 236.7,190.3 239.6,190.3 242.5,190.3 245.3,190.3 248.2,190.3 251.1,190.3 253.9,190.3 256.8,190.3 259.7,190.3 262.5,190.3 265.4,190.3 268.3,189.3 271.1,189.3 274.0,189.3 276.9,190.7 279.7,190.7 282.6,190.7 285.5,190.7 288.3,190.7 291.2,190.7 294.1,190.7 296.9,190.7 299.8,190.7 302.7,190.9 305.6,190.9 308.4,190.9 311.3,194.2 314.2,196.8 317.0,198.0 319.9,198.0 322.8,198.0 325.6,198.0 328.5,198.0 331.4,198.0 334.2,198.0 337.1,198.0 340.0,198.0 342.8,198.0 345.7,198.0 348.6,198.0 351.4,198.0 354.3,198.0 357.2,198.0 360.0,198.0 362.9,198.0 365.8,198.0 368.6,198.0 371.5,198.0 374.4,198.0 377.2,198.0 380.1,198.0 383.0,198.0 385.8,198.0 388.7,198.0 391.6,198.0 394.4,198.0 397.3,198.0 400.2,198.0 403.1,198.0 405.9,198.0 408.8,198.0 411.7,198.0 414.5,198.0 417.4,198.0 420.3,198.0 423.1,198.0 426.0,198.0 428.9,198.0 431.7,198.0 434.6,198.0 437.5,198.0 440.3,198.0 443.2,198.0 446.1,198.0 448.9,198.0 451.8,198.0 454.7,198.0 457.5,198.0 460.4,198.0 463.3,198.0 466.1,198.0 469.0,198.0 471.9,198.0 474.7,198.0 477.6,198.0 480.5,198.0 483.3,198.0 486.2,198.0 489.1,198.0 491.9,198.0 494.8,198.0 497.7,198.0 500.5,198.0 503.4,198.0 506.3,198.0 509.2,198.0 512.0,198.0 514.9,198.0 517.8,198.0 520.6,198.0 523.5,198.0 526.4,198.0 529.2,198.0 532.1,198.0 535.0,198.0 537.8,198.0 540.7,198.0 543.6,198.0 546.4,198.0 549.3,198.0 552.2,198.0 555.0,198.0 557.9,198.0 560.8,198.0 563.6,198.0 566.5,198.0 569.4,198.0 572.2,198.0 575.1,198.0 578.0,198.0 580.8,198.0 583.7,198.0 586.6,198.0 589.4,198.0 592.3,198.0 595.2,198.0 598.0,198.0 600.9,198.0 603.8,198.0 606.6,198.0 609.5,198.0 612.4,198.0 615.3,198.0 618.1,198.0 621.0,198.0 623.9,198.0 626.7,198.0 629.6,198.0 632.5,198.0 635.3,198.0 638.2,198.0 641.1,198.0 643.9,198.0 646.8,198.0 649.7,198.0 652.5,198.0 655.4,198.0 658.3,198.0 661.1,198.0 664.0,198.0"/><circle cx="36.0" cy="198.0" r="3" fill="#3fb950"/><circle cx="38.9" cy="198.0" r="3" fill="#3fb950"/><circle cx="41.7" cy="198.0" r="3" fill="#3fb950"/><circle cx="44.6" cy="198.0" r="3" fill="#3fb950"/><circle cx="47.5" cy="198.0" r="3" fill="#3fb950"/><circle cx="50.3" cy="198.0" r="3" fill="#3fb950"/><circle cx="53.2" cy="198.0" r="3" fill="#3fb950"/><circle cx="56.1" cy="198.0" r="3" fill="#3fb950"/><circle cx="58.9" cy="198.0" r="3" fill="#3fb950"/><circle cx="61.8" cy="198.0" r="3" fill="#3fb950"/><circle cx="64.7" cy="198.0" r="3" fill="#3fb950"/><circle cx="67.5" cy="198.0" r="3" fill="#3fb950"/><circle cx="70.4" cy="198.0" r="3" fill="#3fb950"/><circle cx="73.3" cy="198.0" r="3" fill="#3fb950"/><circle cx="76.1" cy="198.0" r="3" fill="#3fb950"/><circle cx="79.0" cy="198.0" r="3" fill="#3fb950"/><circle cx="81.9" cy="198.0" r="3" fill="#3fb950"/><circle cx="84.7" cy="198.0" r="3" fill="#3fb950"/><circle cx="87.6" cy="198.0" r="3" fill="#3fb950"/><circle cx="90.5" cy="198.0" r="3" fill="#3fb950"/><circle cx="93.4" cy="198.0" r="3" fill="#3fb950"/><circle cx="96.2" cy="198.0" r="3" fill="#3fb950"/><circle cx="99.1" cy="198.0" r="3" fill="#3fb950"/><circle cx="102.0" cy="198.0" r="3" fill="#3fb950"/><circle cx="104.8" cy="198.0" r="3" fill="#3fb950"/><circle cx="107.7" cy="198.0" r="3" fill="#3fb950"/><circle cx="110.6" cy="198.0" r="3" fill="#3fb950"/><circle cx="113.4" cy="198.0" r="3" fill="#3fb950"/><circle cx="116.3" cy="198.0" r="3" fill="#3fb950"/><circle cx="119.2" cy="198.0" r="3" fill="#3fb950"/><circle cx="122.0" cy="198.0" r="3" fill="#3fb950"/><circle cx="124.9" cy="198.0" r="3" fill="#3fb950"/><circle cx="127.8" cy="198.0" r="3" fill="#3fb950"/><circle cx="130.6" cy="198.0" r="3" fill="#3fb950"/><circle cx="133.5" cy="198.0" r="3" fill="#3fb950"/><circle cx="136.4" cy="198.0" r="3" fill="#3fb950"/><circle cx="139.2" cy="198.0" r="3" fill="#3fb950"/><circle cx="142.1" cy="198.0" r="3" fill="#3fb950"/><circle cx="145.0" cy="198.0" r="3" fill="#3fb950"/><circle cx="147.8" cy="198.0" r="3" fill="#3fb950"/><circle cx="150.7" cy="198.0" r="3" fill="#3fb950"/><circle cx="153.6" cy="198.0" r="3" fill="#3fb950"/><circle cx="156.4" cy="198.0" r="3" fill="#3fb950"/><circle cx="159.3" cy="191.7" r="3" fill="#3fb950"/><circle cx="162.2" cy="191.7" r="3" fill="#3fb950"/><circle cx="165.0" cy="191.7" r="3" fill="#3fb950"/><circle cx="167.9" cy="191.7" r="3" fill="#3fb950"/><circle cx="170.8" cy="191.7" r="3" fill="#3fb950"/><circle cx="173.6" cy="191.7" r="3" fill="#3fb950"/><circle cx="176.5" cy="191.7" r="3" fill="#3fb950"/><circle cx="179.4" cy="192.9" r="3" fill="#3fb950"/><circle cx="182.2" cy="192.9" r="3" fill="#3fb950"/><circle cx="185.1" cy="190.7" r="3" fill="#3fb950"/><circle cx="188.0" cy="190.7" r="3" fill="#3fb950"/><circle cx="190.8" cy="190.7" r="3" fill="#3fb950"/><circle cx="193.7" cy="190.7" r="3" fill="#3fb950"/><circle cx="196.6" cy="190.7" r="3" fill="#3fb950"/><circle cx="199.5" cy="190.5" r="3" fill="#3fb950"/><circle cx="202.3" cy="190.5" r="3" fill="#3fb950"/><circle cx="205.2" cy="190.5" r="3" fill="#3fb950"/><circle cx="208.1" cy="190.3" r="3" fill="#3fb950"/><circle cx="210.9" cy="190.3" r="3" fill="#3fb950"/><circle cx="213.8" cy="190.3" r="3" fill="#3fb950"/><circle cx="216.7" cy="190.3" r="3" fill="#3fb950"/><circle cx="219.5" cy="190.3" r="3" fill="#3fb950"/><circle cx="222.4" cy="190.3" r="3" fill="#3fb950"/><circle cx="225.3" cy="190.3" r="3" fill="#3fb950"/><circle cx="228.1" cy="190.3" r="3" fill="#3fb950"/><circle cx="231.0" cy="190.3" r="3" fill="#3fb950"/><circle cx="233.9" cy="190.3" r="3" fill="#3fb950"/><circle cx="236.7" cy="190.3" r="3" fill="#3fb950"/><circle cx="239.6" cy="190.3" r="3" fill="#3fb950"/><circle cx="242.5" cy="190.3" r="3" fill="#3fb950"/><circle cx="245.3" cy="190.3" r="3" fill="#3fb950"/><circle cx="248.2" cy="190.3" r="3" fill="#3fb950"/><circle cx="251.1" cy="190.3" r="3" fill="#3fb950"/><circle cx="253.9" cy="190.3" r="3" fill="#3fb950"/><circle cx="256.8" cy="190.3" r="3" fill="#3fb950"/><circle cx="259.7" cy="190.3" r="3" fill="#3fb950"/><circle cx="262.5" cy="190.3" r="3" fill="#3fb950"/><circle cx="265.4" cy="190.3" r="3" fill="#3fb950"/><circle cx="268.3" cy="189.3" r="3" fill="#3fb950"/><circle cx="271.1" cy="189.3" r="3" fill="#3fb950"/><circle cx="274.0" cy="189.3" r="3" fill="#3fb950"/><circle cx="276.9" cy="190.7" r="3" fill="#3fb950"/><circle cx="279.7" cy="190.7" r="3" fill="#3fb950"/><circle cx="282.6" cy="190.7" r="3" fill="#3fb950"/><circle cx="285.5" cy="190.7" r="3" fill="#3fb950"/><circle cx="288.3" cy="190.7" r="3" fill="#3fb950"/><circle cx="291.2" cy="190.7" r="3" fill="#3fb950"/><circle cx="294.1" cy="190.7" r="3" fill="#3fb950"/><circle cx="296.9" cy="190.7" r="3" fill="#3fb950"/><circle cx="299.8" cy="190.7" r="3" fill="#3fb950"/><circle cx="302.7" cy="190.9" r="3" fill="#3fb950"/><circle cx="305.6" cy="190.9" r="3" fill="#3fb950"/><circle cx="308.4" cy="190.9" r="3" fill="#3fb950"/><circle cx="311.3" cy="194.2" r="3" fill="#3fb950"/><circle cx="314.2" cy="196.8" r="3" fill="#3fb950"/><circle cx="317.0" cy="198.0" r="3" fill="#3fb950"/><circle cx="319.9" cy="198.0" r="3" fill="#3fb950"/><circle cx="322.8" cy="198.0" r="3" fill="#3fb950"/><circle cx="325.6" cy="198.0" r="3" fill="#3fb950"/><circle cx="328.5" cy="198.0" r="3" fill="#3fb950"/><circle cx="331.4" cy="198.0" r="3" fill="#3fb950"/><circle cx="334.2" cy="198.0" r="3" fill="#3fb950"/><circle cx="337.1" cy="198.0" r="3" fill="#3fb950"/><circle cx="340.0" cy="198.0" r="3" fill="#3fb950"/><circle cx="342.8" cy="198.0" r="3" fill="#3fb950"/><circle cx="345.7" cy="198.0" r="3" fill="#3fb950"/><circle cx="348.6" cy="198.0" r="3" fill="#3fb950"/><circle cx="351.4" cy="198.0" r="3" fill="#3fb950"/><circle cx="354.3" cy="198.0" r="3" fill="#3fb950"/><circle cx="357.2" cy="198.0" r="3" fill="#3fb950"/><circle cx="360.0" cy="198.0" r="3" fill="#3fb950"/><circle cx="362.9" cy="198.0" r="3" fill="#3fb950"/><circle cx="365.8" cy="198.0" r="3" fill="#3fb950"/><circle cx="368.6" cy="198.0" r="3" fill="#3fb950"/><circle cx="371.5" cy="198.0" r="3" fill="#3fb950"/><circle cx="374.4" cy="198.0" r="3" fill="#3fb950"/><circle cx="377.2" cy="198.0" r="3" fill="#3fb950"/><circle cx="380.1" cy="198.0" r="3" fill="#3fb950"/><circle cx="383.0" cy="198.0" r="3" fill="#3fb950"/><circle cx="385.8" cy="198.0" r="3" fill="#3fb950"/><circle cx="388.7" cy="198.0" r="3" fill="#3fb950"/><circle cx="391.6" cy="198.0" r="3" fill="#3fb950"/><circle cx="394.4" cy="198.0" r="3" fill="#3fb950"/><circle cx="397.3" cy="198.0" r="3" fill="#3fb950"/><circle cx="400.2" cy="198.0" r="3" fill="#3fb950"/><circle cx="403.1" cy="198.0" r="3" fill="#3fb950"/><circle cx="405.9" cy="198.0" r="3" fill="#3fb950"/><circle cx="408.8" cy="198.0" r="3" fill="#3fb950"/><circle cx="411.7" cy="198.0" r="3" fill="#3fb950"/><circle cx="414.5" cy="198.0" r="3" fill="#3fb950"/><circle cx="417.4" cy="198.0" r="3" fill="#3fb950"/><circle cx="420.3" cy="198.0" r="3" fill="#3fb950"/><circle cx="423.1" cy="198.0" r="3" fill="#3fb950"/><circle cx="426.0" cy="198.0" r="3" fill="#3fb950"/><circle cx="428.9" cy="198.0" r="3" fill="#3fb950"/><circle cx="431.7" cy="198.0" r="3" fill="#3fb950"/><circle cx="434.6" cy="198.0" r="3" fill="#3fb950"/><circle cx="437.5" cy="198.0" r="3" fill="#3fb950"/><circle cx="440.3" cy="198.0" r="3" fill="#3fb950"/><circle cx="443.2" cy="198.0" r="3" fill="#3fb950"/><circle cx="446.1" cy="198.0" r="3" fill="#3fb950"/><circle cx="448.9" cy="198.0" r="3" fill="#3fb950"/><circle cx="451.8" cy="198.0" r="3" fill="#3fb950"/><circle cx="454.7" cy="198.0" r="3" fill="#3fb950"/><circle cx="457.5" cy="198.0" r="3" fill="#3fb950"/><circle cx="460.4" cy="198.0" r="3" fill="#3fb950"/><circle cx="463.3" cy="198.0" r="3" fill="#3fb950"/><circle cx="466.1" cy="198.0" r="3" fill="#3fb950"/><circle cx="469.0" cy="198.0" r="3" fill="#3fb950"/><circle cx="471.9" cy="198.0" r="3" fill="#3fb950"/><circle cx="474.7" cy="198.0" r="3" fill="#3fb950"/><circle cx="477.6" cy="198.0" r="3" fill="#3fb950"/><circle cx="480.5" cy="198.0" r="3" fill="#3fb950"/><circle cx="483.3" cy="198.0" r="3" fill="#3fb950"/><circle cx="486.2" cy="198.0" r="3" fill="#3fb950"/><circle cx="489.1" cy="198.0" r="3" fill="#3fb950"/><circle cx="491.9" cy="198.0" r="3" fill="#3fb950"/><circle cx="494.8" cy="198.0" r="3" fill="#3fb950"/><circle cx="497.7" cy="198.0" r="3" fill="#3fb950"/><circle cx="500.5" cy="198.0" r="3" fill="#3fb950"/><circle cx="503.4" cy="198.0" r="3" fill="#3fb950"/><circle cx="506.3" cy="198.0" r="3" fill="#3fb950"/><circle cx="509.2" cy="198.0" r="3" fill="#3fb950"/><circle cx="512.0" cy="198.0" r="3" fill="#3fb950"/><circle cx="514.9" cy="198.0" r="3" fill="#3fb950"/><circle cx="517.8" cy="198.0" r="3" fill="#3fb950"/><circle cx="520.6" cy="198.0" r="3" fill="#3fb950"/><circle cx="523.5" cy="198.0" r="3" fill="#3fb950"/><circle cx="526.4" cy="198.0" r="3" fill="#3fb950"/><circle cx="529.2" cy="198.0" r="3" fill="#3fb950"/><circle cx="532.1" cy="198.0" r="3" fill="#3fb950"/><circle cx="535.0" cy="198.0" r="3" fill="#3fb950"/><circle cx="537.8" cy="198.0" r="3" fill="#3fb950"/><circle cx="540.7" cy="198.0" r="3" fill="#3fb950"/><circle cx="543.6" cy="198.0" r="3" fill="#3fb950"/><circle cx="546.4" cy="198.0" r="3" fill="#3fb950"/><circle cx="549.3" cy="198.0" r="3" fill="#3fb950"/><circle cx="552.2" cy="198.0" r="3" fill="#3fb950"/><circle cx="555.0" cy="198.0" r="3" fill="#3fb950"/><circle cx="557.9" cy="198.0" r="3" fill="#3fb950"/><circle cx="560.8" cy="198.0" r="3" fill="#3fb950"/><circle cx="563.6" cy="198.0" r="3" fill="#3fb950"/><circle cx="566.5" cy="198.0" r="3" fill="#3fb950"/><circle cx="569.4" cy="198.0" r="3" fill="#3fb950"/><circle cx="572.2" cy="198.0" r="3" fill="#3fb950"/><circle cx="575.1" cy="198.0" r="3" fill="#3fb950"/><circle cx="578.0" cy="198.0" r="3" fill="#3fb950"/><circle cx="580.8" cy="198.0" r="3" fill="#3fb950"/><circle cx="583.7" cy="198.0" r="3" fill="#3fb950"/><circle cx="586.6" cy="198.0" r="3" fill="#3fb950"/><circle cx="589.4" cy="198.0" r="3" fill="#3fb950"/><circle cx="592.3" cy="198.0" r="3" fill="#3fb950"/><circle cx="595.2" cy="198.0" r="3" fill="#3fb950"/><circle cx="598.0" cy="198.0" r="3" fill="#3fb950"/><circle cx="600.9" cy="198.0" r="3" fill="#3fb950"/><circle cx="603.8" cy="198.0" r="3" fill="#3fb950"/><circle cx="606.6" cy="198.0" r="3" fill="#3fb950"/><circle cx="609.5" cy="198.0" r="3" fill="#3fb950"/><circle cx="612.4" cy="198.0" r="3" fill="#3fb950"/><circle cx="615.3" cy="198.0" r="3" fill="#3fb950"/><circle cx="618.1" cy="198.0" r="3" fill="#3fb950"/><circle cx="621.0" cy="198.0" r="3" fill="#3fb950"/><circle cx="623.9" cy="198.0" r="3" fill="#3fb950"/><circle cx="626.7" cy="198.0" r="3" fill="#3fb950"/><circle cx="629.6" cy="198.0" r="3" fill="#3fb950"/><circle cx="632.5" cy="198.0" r="3" fill="#3fb950"/><circle cx="635.3" cy="198.0" r="3" fill="#3fb950"/><circle cx="638.2" cy="198.0" r="3" fill="#3fb950"/><circle cx="641.1" cy="198.0" r="3" fill="#3fb950"/><circle cx="643.9" cy="198.0" r="3" fill="#3fb950"/><circle cx="646.8" cy="198.0" r="3" fill="#3fb950"/><circle cx="649.7" cy="198.0" r="3" fill="#3fb950"/><circle cx="652.5" cy="198.0" r="3" fill="#3fb950"/><circle cx="655.4" cy="198.0" r="3" fill="#3fb950"/><circle cx="658.3" cy="198.0" r="3" fill="#3fb950"/><circle cx="661.1" cy="198.0" r="3" fill="#3fb950"/><circle cx="664.0" cy="198.0" r="3" fill="#3fb950"/>
<polyline fill="none" stroke="#4aa3ff" stroke-width="2.5" stroke-linejoin="round" points="36.0,144.3 38.9,144.3 41.7,144.3 44.6,144.3 47.5,144.3 50.3,144.3 53.2,144.3 56.1,144.3 58.9,144.3 61.8,144.3 64.7,144.3 67.5,144.3 70.4,144.3 73.3,144.3 76.1,144.3 79.0,136.2 81.9,132.4 84.7,129.6 87.6,129.6 90.5,121.0 93.4,121.0 96.2,121.0 99.1,114.4 102.0,114.4 104.8,114.4 107.7,111.3 110.6,110.9 113.4,110.9 116.3,110.5 119.2,110.5 122.0,109.9 124.9,108.7 127.8,107.3 130.6,106.9 133.5,106.9 136.4,106.9 139.2,106.9 142.1,106.9 145.0,106.9 147.8,106.9 150.7,106.9 153.6,106.9 156.4,106.9 159.3,113.2 162.2,113.2 165.0,113.2 167.9,113.2 170.8,113.2 173.6,110.7 176.5,105.3 179.4,83.4 182.2,83.4 185.1,85.6 188.0,85.6 190.8,85.6 193.7,85.6 196.6,85.6 199.5,85.8 202.3,85.8 205.2,85.8 208.1,86.0 210.9,86.0 213.8,86.0 216.7,86.0 219.5,86.0 222.4,86.0 225.3,86.0 228.1,86.0 231.0,86.0 233.9,86.0 236.7,86.0 239.6,86.0 242.5,86.0 245.3,86.0 248.2,86.0 251.1,86.0 253.9,86.0 256.8,86.0 259.7,86.0 262.5,86.0 265.4,86.0 268.3,87.0 271.1,87.0 274.0,87.0 276.9,73.7 279.7,73.7 282.6,71.0 285.5,71.0 288.3,70.8 291.2,70.6 294.1,70.6 296.9,70.4 299.8,68.6 302.7,60.5 305.6,59.3 308.4,52.0 311.3,47.3 314.2,40.1 317.0,36.0 319.9,36.0 322.8,36.0 325.6,36.0 328.5,36.0 331.4,36.0 334.2,36.0 337.1,36.0 340.0,36.0 342.8,36.0 345.7,36.0 348.6,36.0 351.4,36.0 354.3,36.0 357.2,36.0 360.0,36.0 362.9,36.0 365.8,36.0 368.6,36.0 371.5,36.0 374.4,36.0 377.2,36.0 380.1,36.0 383.0,36.0 385.8,36.0 388.7,36.0 391.6,36.0 394.4,36.0 397.3,36.0 400.2,36.0 403.1,36.0 405.9,36.0 408.8,36.0 411.7,36.0 414.5,36.0 417.4,36.0 420.3,36.0 423.1,36.0 426.0,36.0 428.9,36.0 431.7,36.0 434.6,36.0 437.5,36.0 440.3,36.0 443.2,36.0 446.1,36.0 448.9,36.0 451.8,36.0 454.7,36.0 457.5,36.0 460.4,36.0 463.3,36.0 466.1,36.0 469.0,36.0 471.9,36.0 474.7,36.0 477.6,36.0 480.5,36.0 483.3,36.0 486.2,36.0 489.1,36.0 491.9,36.0 494.8,36.0 497.7,36.0 500.5,36.0 503.4,36.0 506.3,36.0 509.2,36.0 512.0,36.0 514.9,36.0 517.8,36.0 520.6,36.0 523.5,36.0 526.4,36.0 529.2,36.0 532.1,36.0 535.0,36.0 537.8,36.0 540.7,36.0 543.6,36.0 546.4,36.0 549.3,36.0 552.2,36.0 555.0,36.0 557.9,36.0 560.8,36.0 563.6,36.0 566.5,36.0 569.4,36.0 572.2,36.0 575.1,36.0 578.0,36.0 580.8,36.0 583.7,36.0 586.6,36.0 589.4,36.0 592.3,36.0 595.2,36.0 598.0,36.0 600.9,36.0 603.8,36.0 606.6,36.0 609.5,36.0 612.4,36.0 615.3,36.0 618.1,36.0 621.0,36.0 623.9,36.0 626.7,36.0 629.6,36.0 632.5,36.0 635.3,36.0 638.2,36.0 641.1,36.0 643.9,36.0 646.8,36.0 649.7,36.0 652.5,36.0 655.4,36.0 658.3,36.0 661.1,36.0 664.0,36.0"/><circle cx="36.0" cy="144.3" r="3" fill="#4aa3ff"/><circle cx="38.9" cy="144.3" r="3" fill="#4aa3ff"/><circle cx="41.7" cy="144.3" r="3" fill="#4aa3ff"/><circle cx="44.6" cy="144.3" r="3" fill="#4aa3ff"/><circle cx="47.5" cy="144.3" r="3" fill="#4aa3ff"/><circle cx="50.3" cy="144.3" r="3" fill="#4aa3ff"/><circle cx="53.2" cy="144.3" r="3" fill="#4aa3ff"/><circle cx="56.1" cy="144.3" r="3" fill="#4aa3ff"/><circle cx="58.9" cy="144.3" r="3" fill="#4aa3ff"/><circle cx="61.8" cy="144.3" r="3" fill="#4aa3ff"/><circle cx="64.7" cy="144.3" r="3" fill="#4aa3ff"/><circle cx="67.5" cy="144.3" r="3" fill="#4aa3ff"/><circle cx="70.4" cy="144.3" r="3" fill="#4aa3ff"/><circle cx="73.3" cy="144.3" r="3" fill="#4aa3ff"/><circle cx="76.1" cy="144.3" r="3" fill="#4aa3ff"/><circle cx="79.0" cy="136.2" r="3" fill="#4aa3ff"/><circle cx="81.9" cy="132.4" r="3" fill="#4aa3ff"/><circle cx="84.7" cy="129.6" r="3" fill="#4aa3ff"/><circle cx="87.6" cy="129.6" r="3" fill="#4aa3ff"/><circle cx="90.5" cy="121.0" r="3" fill="#4aa3ff"/><circle cx="93.4" cy="121.0" r="3" fill="#4aa3ff"/><circle cx="96.2" cy="121.0" r="3" fill="#4aa3ff"/><circle cx="99.1" cy="114.4" r="3" fill="#4aa3ff"/><circle cx="102.0" cy="114.4" r="3" fill="#4aa3ff"/><circle cx="104.8" cy="114.4" r="3" fill="#4aa3ff"/><circle cx="107.7" cy="111.3" r="3" fill="#4aa3ff"/><circle cx="110.6" cy="110.9" r="3" fill="#4aa3ff"/><circle cx="113.4" cy="110.9" r="3" fill="#4aa3ff"/><circle cx="116.3" cy="110.5" r="3" fill="#4aa3ff"/><circle cx="119.2" cy="110.5" r="3" fill="#4aa3ff"/><circle cx="122.0" cy="109.9" r="3" fill="#4aa3ff"/><circle cx="124.9" cy="108.7" r="3" fill="#4aa3ff"/><circle cx="127.8" cy="107.3" r="3" fill="#4aa3ff"/><circle cx="130.6" cy="106.9" r="3" fill="#4aa3ff"/><circle cx="133.5" cy="106.9" r="3" fill="#4aa3ff"/><circle cx="136.4" cy="106.9" r="3" fill="#4aa3ff"/><circle cx="139.2" cy="106.9" r="3" fill="#4aa3ff"/><circle cx="142.1" cy="106.9" r="3" fill="#4aa3ff"/><circle cx="145.0" cy="106.9" r="3" fill="#4aa3ff"/><circle cx="147.8" cy="106.9" r="3" fill="#4aa3ff"/><circle cx="150.7" cy="106.9" r="3" fill="#4aa3ff"/><circle cx="153.6" cy="106.9" r="3" fill="#4aa3ff"/><circle cx="156.4" cy="106.9" r="3" fill="#4aa3ff"/><circle cx="159.3" cy="113.2" r="3" fill="#4aa3ff"/><circle cx="162.2" cy="113.2" r="3" fill="#4aa3ff"/><circle cx="165.0" cy="113.2" r="3" fill="#4aa3ff"/><circle cx="167.9" cy="113.2" r="3" fill="#4aa3ff"/><circle cx="170.8" cy="113.2" r="3" fill="#4aa3ff"/><circle cx="173.6" cy="110.7" r="3" fill="#4aa3ff"/><circle cx="176.5" cy="105.3" r="3" fill="#4aa3ff"/><circle cx="179.4" cy="83.4" r="3" fill="#4aa3ff"/><circle cx="182.2" cy="83.4" r="3" fill="#4aa3ff"/><circle cx="185.1" cy="85.6" r="3" fill="#4aa3ff"/><circle cx="188.0" cy="85.6" r="3" fill="#4aa3ff"/><circle cx="190.8" cy="85.6" r="3" fill="#4aa3ff"/><circle cx="193.7" cy="85.6" r="3" fill="#4aa3ff"/><circle cx="196.6" cy="85.6" r="3" fill="#4aa3ff"/><circle cx="199.5" cy="85.8" r="3" fill="#4aa3ff"/><circle cx="202.3" cy="85.8" r="3" fill="#4aa3ff"/><circle cx="205.2" cy="85.8" r="3" fill="#4aa3ff"/><circle cx="208.1" cy="86.0" r="3" fill="#4aa3ff"/><circle cx="210.9" cy="86.0" r="3" fill="#4aa3ff"/><circle cx="213.8" cy="86.0" r="3" fill="#4aa3ff"/><circle cx="216.7" cy="86.0" r="3" fill="#4aa3ff"/><circle cx="219.5" cy="86.0" r="3" fill="#4aa3ff"/><circle cx="222.4" cy="86.0" r="3" fill="#4aa3ff"/><circle cx="225.3" cy="86.0" r="3" fill="#4aa3ff"/><circle cx="228.1" cy="86.0" r="3" fill="#4aa3ff"/><circle cx="231.0" cy="86.0" r="3" fill="#4aa3ff"/><circle cx="233.9" cy="86.0" r="3" fill="#4aa3ff"/><circle cx="236.7" cy="86.0" r="3" fill="#4aa3ff"/><circle cx="239.6" cy="86.0" r="3" fill="#4aa3ff"/><circle cx="242.5" cy="86.0" r="3" fill="#4aa3ff"/><circle cx="245.3" cy="86.0" r="3" fill="#4aa3ff"/><circle cx="248.2" cy="86.0" r="3" fill="#4aa3ff"/><circle cx="251.1" cy="86.0" r="3" fill="#4aa3ff"/><circle cx="253.9" cy="86.0" r="3" fill="#4aa3ff"/><circle cx="256.8" cy="86.0" r="3" fill="#4aa3ff"/><circle cx="259.7" cy="86.0" r="3" fill="#4aa3ff"/><circle cx="262.5" cy="86.0" r="3" fill="#4aa3ff"/><circle cx="265.4" cy="86.0" r="3" fill="#4aa3ff"/><circle cx="268.3" cy="87.0" r="3" fill="#4aa3ff"/><circle cx="271.1" cy="87.0" r="3" fill="#4aa3ff"/><circle cx="274.0" cy="87.0" r="3" fill="#4aa3ff"/><circle cx="276.9" cy="73.7" r="3" fill="#4aa3ff"/><circle cx="279.7" cy="73.7" r="3" fill="#4aa3ff"/><circle cx="282.6" cy="71.0" r="3" fill="#4aa3ff"/><circle cx="285.5" cy="71.0" r="3" fill="#4aa3ff"/><circle cx="288.3" cy="70.8" r="3" fill="#4aa3ff"/><circle cx="291.2" cy="70.6" r="3" fill="#4aa3ff"/><circle cx="294.1" cy="70.6" r="3" fill="#4aa3ff"/><circle cx="296.9" cy="70.4" r="3" fill="#4aa3ff"/><circle cx="299.8" cy="68.6" r="3" fill="#4aa3ff"/><circle cx="302.7" cy="60.5" r="3" fill="#4aa3ff"/><circle cx="305.6" cy="59.3" r="3" fill="#4aa3ff"/><circle cx="308.4" cy="52.0" r="3" fill="#4aa3ff"/><circle cx="311.3" cy="47.3" r="3" fill="#4aa3ff"/><circle cx="314.2" cy="40.1" r="3" fill="#4aa3ff"/><circle cx="317.0" cy="36.0" r="3" fill="#4aa3ff"/><circle cx="319.9" cy="36.0" r="3" fill="#4aa3ff"/><circle cx="322.8" cy="36.0" r="3" fill="#4aa3ff"/><circle cx="325.6" cy="36.0" r="3" fill="#4aa3ff"/><circle cx="328.5" cy="36.0" r="3" fill="#4aa3ff"/><circle cx="331.4" cy="36.0" r="3" fill="#4aa3ff"/><circle cx="334.2" cy="36.0" r="3" fill="#4aa3ff"/><circle cx="337.1" cy="36.0" r="3" fill="#4aa3ff"/><circle cx="340.0" cy="36.0" r="3" fill="#4aa3ff"/><circle cx="342.8" cy="36.0" r="3" fill="#4aa3ff"/><circle cx="345.7" cy="36.0" r="3" fill="#4aa3ff"/><circle cx="348.6" cy="36.0" r="3" fill="#4aa3ff"/><circle cx="351.4" cy="36.0" r="3" fill="#4aa3ff"/><circle cx="354.3" cy="36.0" r="3" fill="#4aa3ff"/><circle cx="357.2" cy="36.0" r="3" fill="#4aa3ff"/><circle cx="360.0" cy="36.0" r="3" fill="#4aa3ff"/><circle cx="362.9" cy="36.0" r="3" fill="#4aa3ff"/><circle cx="365.8" cy="36.0" r="3" fill="#4aa3ff"/><circle cx="368.6" cy="36.0" r="3" fill="#4aa3ff"/><circle cx="371.5" cy="36.0" r="3" fill="#4aa3ff"/><circle cx="374.4" cy="36.0" r="3" fill="#4aa3ff"/><circle cx="377.2" cy="36.0" r="3" fill="#4aa3ff"/><circle cx="380.1" cy="36.0" r="3" fill="#4aa3ff"/><circle cx="383.0" cy="36.0" r="3" fill="#4aa3ff"/><circle cx="385.8" cy="36.0" r="3" fill="#4aa3ff"/><circle cx="388.7" cy="36.0" r="3" fill="#4aa3ff"/><circle cx="391.6" cy="36.0" r="3" fill="#4aa3ff"/><circle cx="394.4" cy="36.0" r="3" fill="#4aa3ff"/><circle cx="397.3" cy="36.0" r="3" fill="#4aa3ff"/><circle cx="400.2" cy="36.0" r="3" fill="#4aa3ff"/><circle cx="403.1" cy="36.0" r="3" fill="#4aa3ff"/><circle cx="405.9" cy="36.0" r="3" fill="#4aa3ff"/><circle cx="408.8" cy="36.0" r="3" fill="#4aa3ff"/><circle cx="411.7" cy="36.0" r="3" fill="#4aa3ff"/><circle cx="414.5" cy="36.0" r="3" fill="#4aa3ff"/><circle cx="417.4" cy="36.0" r="3" fill="#4aa3ff"/><circle cx="420.3" cy="36.0" r="3" fill="#4aa3ff"/><circle cx="423.1" cy="36.0" r="3" fill="#4aa3ff"/><circle cx="426.0" cy="36.0" r="3" fill="#4aa3ff"/><circle cx="428.9" cy="36.0" r="3" fill="#4aa3ff"/><circle cx="431.7" cy="36.0" r="3" fill="#4aa3ff"/><circle cx="434.6" cy="36.0" r="3" fill="#4aa3ff"/><circle cx="437.5" cy="36.0" r="3" fill="#4aa3ff"/><circle cx="440.3" cy="36.0" r="3" fill="#4aa3ff"/><circle cx="443.2" cy="36.0" r="3" fill="#4aa3ff"/><circle cx="446.1" cy="36.0" r="3" fill="#4aa3ff"/><circle cx="448.9" cy="36.0" r="3" fill="#4aa3ff"/><circle cx="451.8" cy="36.0" r="3" fill="#4aa3ff"/><circle cx="454.7" cy="36.0" r="3" fill="#4aa3ff"/><circle cx="457.5" cy="36.0" r="3" fill="#4aa3ff"/><circle cx="460.4" cy="36.0" r="3" fill="#4aa3ff"/><circle cx="463.3" cy="36.0" r="3" fill="#4aa3ff"/><circle cx="466.1" cy="36.0" r="3" fill="#4aa3ff"/><circle cx="469.0" cy="36.0" r="3" fill="#4aa3ff"/><circle cx="471.9" cy="36.0" r="3" fill="#4aa3ff"/><circle cx="474.7" cy="36.0" r="3" fill="#4aa3ff"/><circle cx="477.6" cy="36.0" r="3" fill="#4aa3ff"/><circle cx="480.5" cy="36.0" r="3" fill="#4aa3ff"/><circle cx="483.3" cy="36.0" r="3" fill="#4aa3ff"/><circle cx="486.2" cy="36.0" r="3" fill="#4aa3ff"/><circle cx="489.1" cy="36.0" r="3" fill="#4aa3ff"/><circle cx="491.9" cy="36.0" r="3" fill="#4aa3ff"/><circle cx="494.8" cy="36.0" r="3" fill="#4aa3ff"/><circle cx="497.7" cy="36.0" r="3" fill="#4aa3ff"/><circle cx="500.5" cy="36.0" r="3" fill="#4aa3ff"/><circle cx="503.4" cy="36.0" r="3" fill="#4aa3ff"/><circle cx="506.3" cy="36.0" r="3" fill="#4aa3ff"/><circle cx="509.2" cy="36.0" r="3" fill="#4aa3ff"/><circle cx="512.0" cy="36.0" r="3" fill="#4aa3ff"/><circle cx="514.9" cy="36.0" r="3" fill="#4aa3ff"/><circle cx="517.8" cy="36.0" r="3" fill="#4aa3ff"/><circle cx="520.6" cy="36.0" r="3" fill="#4aa3ff"/><circle cx="523.5" cy="36.0" r="3" fill="#4aa3ff"/><circle cx="526.4" cy="36.0" r="3" fill="#4aa3ff"/><circle cx="529.2" cy="36.0" r="3" fill="#4aa3ff"/><circle cx="532.1" cy="36.0" r="3" fill="#4aa3ff"/><circle cx="535.0" cy="36.0" r="3" fill="#4aa3ff"/><circle cx="537.8" cy="36.0" r="3" fill="#4aa3ff"/><circle cx="540.7" cy="36.0" r="3" fill="#4aa3ff"/><circle cx="543.6" cy="36.0" r="3" fill="#4aa3ff"/><circle cx="546.4" cy="36.0" r="3" fill="#4aa3ff"/><circle cx="549.3" cy="36.0" r="3" fill="#4aa3ff"/><circle cx="552.2" cy="36.0" r="3" fill="#4aa3ff"/><circle cx="555.0" cy="36.0" r="3" fill="#4aa3ff"/><circle cx="557.9" cy="36.0" r="3" fill="#4aa3ff"/><circle cx="560.8" cy="36.0" r="3" fill="#4aa3ff"/><circle cx="563.6" cy="36.0" r="3" fill="#4aa3ff"/><circle cx="566.5" cy="36.0" r="3" fill="#4aa3ff"/><circle cx="569.4" cy="36.0" r="3" fill="#4aa3ff"/><circle cx="572.2" cy="36.0" r="3" fill="#4aa3ff"/><circle cx="575.1" cy="36.0" r="3" fill="#4aa3ff"/><circle cx="578.0" cy="36.0" r="3" fill="#4aa3ff"/><circle cx="580.8" cy="36.0" r="3" fill="#4aa3ff"/><circle cx="583.7" cy="36.0" r="3" fill="#4aa3ff"/><circle cx="586.6" cy="36.0" r="3" fill="#4aa3ff"/><circle cx="589.4" cy="36.0" r="3" fill="#4aa3ff"/><circle cx="592.3" cy="36.0" r="3" fill="#4aa3ff"/><circle cx="595.2" cy="36.0" r="3" fill="#4aa3ff"/><circle cx="598.0" cy="36.0" r="3" fill="#4aa3ff"/><circle cx="600.9" cy="36.0" r="3" fill="#4aa3ff"/><circle cx="603.8" cy="36.0" r="3" fill="#4aa3ff"/><circle cx="606.6" cy="36.0" r="3" fill="#4aa3ff"/><circle cx="609.5" cy="36.0" r="3" fill="#4aa3ff"/><circle cx="612.4" cy="36.0" r="3" fill="#4aa3ff"/><circle cx="615.3" cy="36.0" r="3" fill="#4aa3ff"/><circle cx="618.1" cy="36.0" r="3" fill="#4aa3ff"/><circle cx="621.0" cy="36.0" r="3" fill="#4aa3ff"/><circle cx="623.9" cy="36.0" r="3" fill="#4aa3ff"/><circle cx="626.7" cy="36.0" r="3" fill="#4aa3ff"/><circle cx="629.6" cy="36.0" r="3" fill="#4aa3ff"/><circle cx="632.5" cy="36.0" r="3" fill="#4aa3ff"/><circle cx="635.3" cy="36.0" r="3" fill="#4aa3ff"/><circle cx="638.2" cy="36.0" r="3" fill="#4aa3ff"/><circle cx="641.1" cy="36.0" r="3" fill="#4aa3ff"/><circle cx="643.9" cy="36.0" r="3" fill="#4aa3ff"/><circle cx="646.8" cy="36.0" r="3" fill="#4aa3ff"/><circle cx="649.7" cy="36.0" r="3" fill="#4aa3ff"/><circle cx="652.5" cy="36.0" r="3" fill="#4aa3ff"/><circle cx="655.4" cy="36.0" r="3" fill="#4aa3ff"/><circle cx="658.3" cy="36.0" r="3" fill="#4aa3ff"/><circle cx="661.1" cy="36.0" r="3" fill="#4aa3ff"/><circle cx="664.0" cy="36.0" r="3" fill="#4aa3ff"/>
<text x="36" y="225" fill="#6b7280" font-size="11">2026-06-26</text>
<text x="664" y="225" fill="#6b7280" font-size="11" text-anchor="end">2026-07-18</text>
<text x="36" y="212" font-family="system-ui,sans-serif" font-size="11">
<tspan fill="#4aa3ff">&#9679; open FPs</tspan>  <tspan fill="#3fb950">&#9679; closed (Anthropic acting)</tspan>  <tspan fill="#8a5a5a">&#9679; harness withdrawn</tspan></text>
<text x="664" y="22" text-anchor="end" font-family="system-ui,sans-serif" font-size="12">
<tspan fill="#4aa3ff">open 800</tspan>  <tspan fill="#3fb950">closed 0</tspan>  <tspan fill="#8a5a5a">harness 0</tspan></text>
</svg>