<svg xmlns="http://www.w3.org/2000/svg" width="700" height="234" viewBox="0 0 700 234" role="img">
<rect width="700" height="234" rx="12" fill="#16181d"/>
<text x="36" y="22" fill="#e8eaed" font-family="system-ui,sans-serif" font-size="14" font-weight="700">Is Anthropic acting? cyber/aup false positives over time</text>
<line x1="36" y1="198.0" x2="664" y2="198.0" stroke="#2a2e37" stroke-width="1"/><text x="30" y="202.0" fill="#6b7280" font-size="11" text-anchor="end">0</text><line x1="36" y1="117.0" x2="664" y2="117.0" stroke="#2a2e37" stroke-width="1"/><text x="30" y="121.0" fill="#6b7280" font-size="11" text-anchor="end">206</text><line x1="36" y1="36.0" x2="664" y2="36.0" stroke="#2a2e37" stroke-width="1"/><text x="30" y="40.0" fill="#6b7280" font-size="11" text-anchor="end">413</text>

<polyline fill="none" stroke="#8a5a5a" stroke-width="2.5" stroke-linejoin="round" points="36.0,95.6 64.5,95.6 93.1,95.6 121.6,95.6 150.2,95.6 178.7,95.6 207.3,95.6 235.8,95.6 264.4,95.6 292.9,95.6 321.5,95.6 350.0,95.6 378.5,95.6 407.1,95.6 435.6,95.6 464.2,95.6 492.7,95.6 521.3,95.6 549.8,95.6 578.4,95.6 606.9,95.6 635.5,95.6 664.0,95.6"/><circle cx="36.0" cy="95.6" r="3" fill="#8a5a5a"/><circle cx="64.5" cy="95.6" r="3" fill="#8a5a5a"/><circle cx="93.1" cy="95.6" r="3" fill="#8a5a5a"/><circle cx="121.6" cy="95.6" r="3" fill="#8a5a5a"/><circle cx="150.2" cy="95.6" r="3" fill="#8a5a5a"/><circle cx="178.7" cy="95.6" r="3" fill="#8a5a5a"/><circle cx="207.3" cy="95.6" r="3" fill="#8a5a5a"/><circle cx="235.8" cy="95.6" r="3" fill="#8a5a5a"/><circle cx="264.4" cy="95.6" r="3" fill="#8a5a5a"/><circle cx="292.9" cy="95.6" r="3" fill="#8a5a5a"/><circle cx="321.5" cy="95.6" r="3" fill="#8a5a5a"/><circle cx="350.0" cy="95.6" r="3" fill="#8a5a5a"/><circle cx="378.5" cy="95.6" r="3" fill="#8a5a5a"/><circle cx="407.1" cy="95.6" r="3" fill="#8a5a5a"/><circle cx="435.6" cy="95.6" r="3" fill="#8a5a5a"/><circle cx="464.2" cy="95.6" r="3" fill="#8a5a5a"/><circle cx="492.7" cy="95.6" r="3" fill="#8a5a5a"/><circle cx="521.3" cy="95.6" r="3" fill="#8a5a5a"/><circle cx="549.8" cy="95.6" r="3" fill="#8a5a5a"/><circle cx="578.4" cy="95.6" r="3" fill="#8a5a5a"/><circle cx="606.9" cy="95.6" r="3" fill="#8a5a5a"/><circle cx="635.5" cy="95.6" r="3" fill="#8a5a5a"/><circle cx="664.0" cy="95.6" r="3" fill="#8a5a5a"/>
<polyline fill="none" stroke="#3fb950" stroke-width="2.5" stroke-linejoin="round" points="36.0,198.0 64.5,198.0 93.1,198.0 121.6,198.0 150.2,198.0 178.7,198.0 207.3,198.0 235.8,198.0 264.4,198.0 292.9,198.0 321.5,198.0 350.0,198.0 378.5,198.0 407.1,198.0 435.6,198.0 464.2,198.0 492.7,198.0 521.3,198.0 549.8,198.0 578.4,198.0 606.9,198.0 635.5,198.0 664.0,198.0"/><circle cx="36.0" cy="198.0" r="3" fill="#3fb950"/><circle cx="64.5" cy="198.0" r="3" fill="#3fb950"/><circle cx="93.1" cy="198.0" r="3" fill="#3fb950"/><circle cx="121.6" cy="198.0" r="3" fill="#3fb950"/><circle cx="150.2" cy="198.0" r="3" fill="#3fb950"/><circle cx="178.7" cy="198.0" r="3" fill="#3fb950"/><circle cx="207.3" cy="198.0" r="3" fill="#3fb950"/><circle cx="235.8" cy="198.0" r="3" fill="#3fb950"/><circle cx="264.4" cy="198.0" r="3" fill="#3fb950"/><circle cx="292.9" cy="198.0" r="3" fill="#3fb950"/><circle cx="321.5" cy="198.0" r="3" fill="#3fb950"/><circle cx="350.0" cy="198.0" r="3" fill="#3fb950"/><circle cx="378.5" cy="198.0" r="3" fill="#3fb950"/><circle cx="407.1" cy="198.0" r="3" fill="#3fb950"/><circle cx="435.6" cy="198.0" r="3" fill="#3fb950"/><circle cx="464.2" cy="198.0" r="3" fill="#3fb950"/><circle cx="492.7" cy="198.0" r="3" fill="#3fb950"/><circle cx="521.3" cy="198.0" r="3" fill="#3fb950"/><circle cx="549.8" cy="198.0" r="3" fill="#3fb950"/><circle cx="578.4" cy="198.0" r="3" fill="#3fb950"/><circle cx="606.9" cy="198.0" r="3" fill="#3fb950"/><circle cx="635.5" cy="198.0" r="3" fill="#3fb950"/><circle cx="664.0" cy="198.0" r="3" fill="#3fb950"/>
<polyline fill="none" stroke="#4aa3ff" stroke-width="2.5" stroke-linejoin="round" points="36.0,94.1 64.5,94.1 93.1,94.1 121.6,94.1 150.2,94.1 178.7,94.1 207.3,94.1 235.8,94.1 264.4,94.1 292.9,94.1 321.5,94.1 350.0,94.1 378.5,94.1 407.1,94.1 435.6,94.1 464.2,78.4 492.7,70.9 521.3,65.4 549.8,65.4 578.4,48.9 606.9,48.9 635.5,48.9 664.0,36.0"/><circle cx="36.0" cy="94.1" r="3" fill="#4aa3ff"/><circle cx="64.5" cy="94.1" r="3" fill="#4aa3ff"/><circle cx="93.1" cy="94.1" r="3" fill="#4aa3ff"/><circle cx="121.6" cy="94.1" r="3" fill="#4aa3ff"/><circle cx="150.2" cy="94.1" r="3" fill="#4aa3ff"/><circle cx="178.7" cy="94.1" r="3" fill="#4aa3ff"/><circle cx="207.3" cy="94.1" r="3" fill="#4aa3ff"/><circle cx="235.8" cy="94.1" r="3" fill="#4aa3ff"/><circle cx="264.4" cy="94.1" r="3" fill="#4aa3ff"/><circle cx="292.9" cy="94.1" r="3" fill="#4aa3ff"/><circle cx="321.5" cy="94.1" r="3" fill="#4aa3ff"/><circle cx="350.0" cy="94.1" r="3" fill="#4aa3ff"/><circle cx="378.5" cy="94.1" r="3" fill="#4aa3ff"/><circle cx="407.1" cy="94.1" r="3" fill="#4aa3ff"/><circle cx="435.6" cy="94.1" r="3" fill="#4aa3ff"/><circle cx="464.2" cy="78.4" r="3" fill="#4aa3ff"/><circle cx="492.7" cy="70.9" r="3" fill="#4aa3ff"/><circle cx="521.3" cy="65.4" r="3" fill="#4aa3ff"/><circle cx="549.8" cy="65.4" r="3" fill="#4aa3ff"/><circle cx="578.4" cy="48.9" r="3" fill="#4aa3ff"/><circle cx="606.9" cy="48.9" r="3" fill="#4aa3ff"/><circle cx="635.5" cy="48.9" r="3" fill="#4aa3ff"/><circle cx="664.0" cy="36.0" r="3" fill="#4aa3ff"/>
<text x="36" y="225" fill="#6b7280" font-size="11">2026-06-26</text>
<text x="664" y="225" fill="#6b7280" font-size="11" text-anchor="end">2026-06-28</text>
<text x="36" y="212" font-family="system-ui,sans-serif" font-size="11">
<tspan fill="#4aa3ff">&#9679; open FPs</tspan>  <tspan fill="#3fb950">&#9679; closed (Anthropic acting)</tspan>  <tspan fill="#8a5a5a">&#9679; harness withdrawn</tspan></text>
<text x="664" y="22" text-anchor="end" font-family="system-ui,sans-serif" font-size="12">
<tspan fill="#4aa3ff">open 413</tspan>  <tspan fill="#3fb950">closed 0</tspan>  <tspan fill="#8a5a5a">harness 261</tspan></text>
</svg>