<svg xmlns="http://www.w3.org/2000/svg" width="700" height="234" viewBox="0 0 700 234" role="img">
<rect width="700" height="234" rx="12" fill="#16181d"/>
<text x="36" y="22" fill="#e8eaed" font-family="system-ui,sans-serif" font-size="14" font-weight="700">Is Anthropic acting? cyber/aup false positives over time</text>
<line x1="36" y1="198.0" x2="664" y2="198.0" stroke="#2a2e37" stroke-width="1"/><text x="30" y="202.0" fill="#6b7280" font-size="11" text-anchor="end">0</text><line x1="36" y1="117.0" x2="664" y2="117.0" stroke="#2a2e37" stroke-width="1"/><text x="30" y="121.0" fill="#6b7280" font-size="11" text-anchor="end">283</text><line x1="36" y1="36.0" x2="664" y2="36.0" stroke="#2a2e37" stroke-width="1"/><text x="30" y="40.0" fill="#6b7280" font-size="11" text-anchor="end">566</text>

<polyline fill="none" stroke="#8a5a5a" stroke-width="2.5" stroke-linejoin="round" points="36.0,123.3 46.8,123.3 57.7,123.3 68.5,123.3 79.3,123.3 90.1,123.3 101.0,123.3 111.8,123.3 122.6,123.3 133.4,123.3 144.3,123.3 155.1,123.3 165.9,123.3 176.8,123.3 187.6,123.3 198.4,123.3 209.2,123.3 220.1,123.3 230.9,123.3 241.7,123.3 252.6,123.3 263.4,123.3 274.2,123.3 285.0,123.3 295.9,123.3 306.7,123.3 317.5,123.3 328.3,123.3 339.2,123.3 350.0,123.3 360.8,123.3 371.7,123.3 382.5,123.3 393.3,123.3 404.1,123.3 415.0,123.3 425.8,123.3 436.6,123.3 447.4,123.3 458.3,123.3 469.1,123.3 479.9,123.3 490.8,123.3 501.6,123.3 512.4,123.3 523.2,123.3 534.1,123.3 544.9,123.3 555.7,123.3 566.6,123.3 577.4,138.2 588.2,138.2 599.0,138.2 609.9,138.2 620.7,138.2 631.5,138.2 642.3,138.2 653.2,138.2 664.0,138.2"/><circle cx="36.0" cy="123.3" r="3" fill="#8a5a5a"/><circle cx="46.8" cy="123.3" r="3" fill="#8a5a5a"/><circle cx="57.7" cy="123.3" r="3" fill="#8a5a5a"/><circle cx="68.5" cy="123.3" r="3" fill="#8a5a5a"/><circle cx="79.3" cy="123.3" r="3" fill="#8a5a5a"/><circle cx="90.1" cy="123.3" r="3" fill="#8a5a5a"/><circle cx="101.0" cy="123.3" r="3" fill="#8a5a5a"/><circle cx="111.8" cy="123.3" r="3" fill="#8a5a5a"/><circle cx="122.6" cy="123.3" r="3" fill="#8a5a5a"/><circle cx="133.4" cy="123.3" r="3" fill="#8a5a5a"/><circle cx="144.3" cy="123.3" r="3" fill="#8a5a5a"/><circle cx="155.1" cy="123.3" r="3" fill="#8a5a5a"/><circle cx="165.9" cy="123.3" r="3" fill="#8a5a5a"/><circle cx="176.8" cy="123.3" r="3" fill="#8a5a5a"/><circle cx="187.6" cy="123.3" r="3" fill="#8a5a5a"/><circle cx="198.4" cy="123.3" r="3" fill="#8a5a5a"/><circle cx="209.2" cy="123.3" r="3" fill="#8a5a5a"/><circle cx="220.1" cy="123.3" r="3" fill="#8a5a5a"/><circle cx="230.9" cy="123.3" r="3" fill="#8a5a5a"/><circle cx="241.7" cy="123.3" r="3" fill="#8a5a5a"/><circle cx="252.6" cy="123.3" r="3" fill="#8a5a5a"/><circle cx="263.4" cy="123.3" r="3" fill="#8a5a5a"/><circle cx="274.2" cy="123.3" r="3" fill="#8a5a5a"/><circle cx="285.0" cy="123.3" r="3" fill="#8a5a5a"/><circle cx="295.9" cy="123.3" r="3" fill="#8a5a5a"/><circle cx="306.7" cy="123.3" r="3" fill="#8a5a5a"/><circle cx="317.5" cy="123.3" r="3" fill="#8a5a5a"/><circle cx="328.3" cy="123.3" r="3" fill="#8a5a5a"/><circle cx="339.2" cy="123.3" r="3" fill="#8a5a5a"/><circle cx="350.0" cy="123.3" r="3" fill="#8a5a5a"/><circle cx="360.8" cy="123.3" r="3" fill="#8a5a5a"/><circle cx="371.7" cy="123.3" r="3" fill="#8a5a5a"/><circle cx="382.5" cy="123.3" r="3" fill="#8a5a5a"/><circle cx="393.3" cy="123.3" r="3" fill="#8a5a5a"/><circle cx="404.1" cy="123.3" r="3" fill="#8a5a5a"/><circle cx="415.0" cy="123.3" r="3" fill="#8a5a5a"/><circle cx="425.8" cy="123.3" r="3" fill="#8a5a5a"/><circle cx="436.6" cy="123.3" r="3" fill="#8a5a5a"/><circle cx="447.4" cy="123.3" r="3" fill="#8a5a5a"/><circle cx="458.3" cy="123.3" r="3" fill="#8a5a5a"/><circle cx="469.1" cy="123.3" r="3" fill="#8a5a5a"/><circle cx="479.9" cy="123.3" r="3" fill="#8a5a5a"/><circle cx="490.8" cy="123.3" r="3" fill="#8a5a5a"/><circle cx="501.6" cy="123.3" r="3" fill="#8a5a5a"/><circle cx="512.4" cy="123.3" r="3" fill="#8a5a5a"/><circle cx="523.2" cy="123.3" r="3" fill="#8a5a5a"/><circle cx="534.1" cy="123.3" r="3" fill="#8a5a5a"/><circle cx="544.9" cy="123.3" r="3" fill="#8a5a5a"/><circle cx="555.7" cy="123.3" r="3" fill="#8a5a5a"/><circle cx="566.6" cy="123.3" r="3" fill="#8a5a5a"/><circle cx="577.4" cy="138.2" r="3" fill="#8a5a5a"/><circle cx="588.2" cy="138.2" r="3" fill="#8a5a5a"/><circle cx="599.0" cy="138.2" r="3" fill="#8a5a5a"/><circle cx="609.9" cy="138.2" r="3" fill="#8a5a5a"/><circle cx="620.7" cy="138.2" r="3" fill="#8a5a5a"/><circle cx="631.5" cy="138.2" r="3" fill="#8a5a5a"/><circle cx="642.3" cy="138.2" r="3" fill="#8a5a5a"/><circle cx="653.2" cy="138.2" r="3" fill="#8a5a5a"/><circle cx="664.0" cy="138.2" r="3" fill="#8a5a5a"/>
<polyline fill="none" stroke="#3fb950" stroke-width="2.5" stroke-linejoin="round" points="36.0,198.0 46.8,198.0 57.7,198.0 68.5,198.0 79.3,198.0 90.1,198.0 101.0,198.0 111.8,198.0 122.6,198.0 133.4,198.0 144.3,198.0 155.1,198.0 165.9,198.0 176.8,198.0 187.6,198.0 198.4,198.0 209.2,198.0 220.1,198.0 230.9,198.0 241.7,198.0 252.6,198.0 263.4,198.0 274.2,198.0 285.0,198.0 295.9,198.0 306.7,198.0 317.5,198.0 328.3,198.0 339.2,198.0 350.0,198.0 360.8,198.0 371.7,198.0 382.5,198.0 393.3,198.0 404.1,198.0 415.0,198.0 425.8,198.0 436.6,198.0 447.4,198.0 458.3,198.0 469.1,198.0 479.9,198.0 490.8,198.0 501.6,189.1 512.4,189.1 523.2,189.1 534.1,189.1 544.9,189.1 555.7,189.1 566.6,189.1 577.4,190.8 588.2,190.8 599.0,187.7 609.9,187.7 620.7,187.7 631.5,187.7 642.3,187.7 653.2,187.4 664.0,187.4"/><circle cx="36.0" cy="198.0" r="3" fill="#3fb950"/><circle cx="46.8" cy="198.0" r="3" fill="#3fb950"/><circle cx="57.7" cy="198.0" r="3" fill="#3fb950"/><circle cx="68.5" cy="198.0" r="3" fill="#3fb950"/><circle cx="79.3" cy="198.0" r="3" fill="#3fb950"/><circle cx="90.1" cy="198.0" r="3" fill="#3fb950"/><circle cx="101.0" cy="198.0" r="3" fill="#3fb950"/><circle cx="111.8" cy="198.0" r="3" fill="#3fb950"/><circle cx="122.6" cy="198.0" r="3" fill="#3fb950"/><circle cx="133.4" cy="198.0" r="3" fill="#3fb950"/><circle cx="144.3" cy="198.0" r="3" fill="#3fb950"/><circle cx="155.1" cy="198.0" r="3" fill="#3fb950"/><circle cx="165.9" cy="198.0" r="3" fill="#3fb950"/><circle cx="176.8" cy="198.0" r="3" fill="#3fb950"/><circle cx="187.6" cy="198.0" r="3" fill="#3fb950"/><circle cx="198.4" cy="198.0" r="3" fill="#3fb950"/><circle cx="209.2" cy="198.0" r="3" fill="#3fb950"/><circle cx="220.1" cy="198.0" r="3" fill="#3fb950"/><circle cx="230.9" cy="198.0" r="3" fill="#3fb950"/><circle cx="241.7" cy="198.0" r="3" fill="#3fb950"/><circle cx="252.6" cy="198.0" r="3" fill="#3fb950"/><circle cx="263.4" cy="198.0" r="3" fill="#3fb950"/><circle cx="274.2" cy="198.0" r="3" fill="#3fb950"/><circle cx="285.0" cy="198.0" r="3" fill="#3fb950"/><circle cx="295.9" cy="198.0" r="3" fill="#3fb950"/><circle cx="306.7" cy="198.0" r="3" fill="#3fb950"/><circle cx="317.5" cy="198.0" r="3" fill="#3fb950"/><circle cx="328.3" cy="198.0" r="3" fill="#3fb950"/><circle cx="339.2" cy="198.0" r="3" fill="#3fb950"/><circle cx="350.0" cy="198.0" r="3" fill="#3fb950"/><circle cx="360.8" cy="198.0" r="3" fill="#3fb950"/><circle cx="371.7" cy="198.0" r="3" fill="#3fb950"/><circle cx="382.5" cy="198.0" r="3" fill="#3fb950"/><circle cx="393.3" cy="198.0" r="3" fill="#3fb950"/><circle cx="404.1" cy="198.0" r="3" fill="#3fb950"/><circle cx="415.0" cy="198.0" r="3" fill="#3fb950"/><circle cx="425.8" cy="198.0" r="3" fill="#3fb950"/><circle cx="436.6" cy="198.0" r="3" fill="#3fb950"/><circle cx="447.4" cy="198.0" r="3" fill="#3fb950"/><circle cx="458.3" cy="198.0" r="3" fill="#3fb950"/><circle cx="469.1" cy="198.0" r="3" fill="#3fb950"/><circle cx="479.9" cy="198.0" r="3" fill="#3fb950"/><circle cx="490.8" cy="198.0" r="3" fill="#3fb950"/><circle cx="501.6" cy="189.1" r="3" fill="#3fb950"/><circle cx="512.4" cy="189.1" r="3" fill="#3fb950"/><circle cx="523.2" cy="189.1" r="3" fill="#3fb950"/><circle cx="534.1" cy="189.1" r="3" fill="#3fb950"/><circle cx="544.9" cy="189.1" r="3" fill="#3fb950"/><circle cx="555.7" cy="189.1" r="3" fill="#3fb950"/><circle cx="566.6" cy="189.1" r="3" fill="#3fb950"/><circle cx="577.4" cy="190.8" r="3" fill="#3fb950"/><circle cx="588.2" cy="190.8" r="3" fill="#3fb950"/><circle cx="599.0" cy="187.7" r="3" fill="#3fb950"/><circle cx="609.9" cy="187.7" r="3" fill="#3fb950"/><circle cx="620.7" cy="187.7" r="3" fill="#3fb950"/><circle cx="631.5" cy="187.7" r="3" fill="#3fb950"/><circle cx="642.3" cy="187.7" r="3" fill="#3fb950"/><circle cx="653.2" cy="187.4" r="3" fill="#3fb950"/><circle cx="664.0" cy="187.4" r="3" fill="#3fb950"/>
<polyline fill="none" stroke="#4aa3ff" stroke-width="2.5" stroke-linejoin="round" points="36.0,122.2 46.8,122.2 57.7,122.2 68.5,122.2 79.3,122.2 90.1,122.2 101.0,122.2 111.8,122.2 122.6,122.2 133.4,122.2 144.3,122.2 155.1,122.2 165.9,122.2 176.8,122.2 187.6,122.2 198.4,110.7 209.2,105.3 220.1,101.3 230.9,101.3 241.7,89.2 252.6,89.2 263.4,89.2 274.2,79.8 285.0,79.8 295.9,79.8 306.7,75.5 317.5,74.9 328.3,74.9 339.2,74.4 350.0,74.4 360.8,73.5 371.7,71.8 382.5,69.8 393.3,69.2 404.1,69.2 415.0,69.2 425.8,69.2 436.6,69.2 447.4,69.2 458.3,69.2 469.1,69.2 479.9,69.2 490.8,69.2 501.6,78.1 512.4,78.1 523.2,78.1 534.1,78.1 544.9,78.1 555.7,74.6 566.6,66.9 577.4,36.0 588.2,36.0 599.0,39.1 609.9,39.1 620.7,39.1 631.5,39.1 642.3,39.1 653.2,39.4 664.0,39.4"/><circle cx="36.0" cy="122.2" r="3" fill="#4aa3ff"/><circle cx="46.8" cy="122.2" r="3" fill="#4aa3ff"/><circle cx="57.7" cy="122.2" r="3" fill="#4aa3ff"/><circle cx="68.5" cy="122.2" r="3" fill="#4aa3ff"/><circle cx="79.3" cy="122.2" r="3" fill="#4aa3ff"/><circle cx="90.1" cy="122.2" r="3" fill="#4aa3ff"/><circle cx="101.0" cy="122.2" r="3" fill="#4aa3ff"/><circle cx="111.8" cy="122.2" r="3" fill="#4aa3ff"/><circle cx="122.6" cy="122.2" r="3" fill="#4aa3ff"/><circle cx="133.4" cy="122.2" r="3" fill="#4aa3ff"/><circle cx="144.3" cy="122.2" r="3" fill="#4aa3ff"/><circle cx="155.1" cy="122.2" r="3" fill="#4aa3ff"/><circle cx="165.9" cy="122.2" r="3" fill="#4aa3ff"/><circle cx="176.8" cy="122.2" r="3" fill="#4aa3ff"/><circle cx="187.6" cy="122.2" r="3" fill="#4aa3ff"/><circle cx="198.4" cy="110.7" r="3" fill="#4aa3ff"/><circle cx="209.2" cy="105.3" r="3" fill="#4aa3ff"/><circle cx="220.1" cy="101.3" r="3" fill="#4aa3ff"/><circle cx="230.9" cy="101.3" r="3" fill="#4aa3ff"/><circle cx="241.7" cy="89.2" r="3" fill="#4aa3ff"/><circle cx="252.6" cy="89.2" r="3" fill="#4aa3ff"/><circle cx="263.4" cy="89.2" r="3" fill="#4aa3ff"/><circle cx="274.2" cy="79.8" r="3" fill="#4aa3ff"/><circle cx="285.0" cy="79.8" r="3" fill="#4aa3ff"/><circle cx="295.9" cy="79.8" r="3" fill="#4aa3ff"/><circle cx="306.7" cy="75.5" r="3" fill="#4aa3ff"/><circle cx="317.5" cy="74.9" r="3" fill="#4aa3ff"/><circle cx="328.3" cy="74.9" r="3" fill="#4aa3ff"/><circle cx="339.2" cy="74.4" r="3" fill="#4aa3ff"/><circle cx="350.0" cy="74.4" r="3" fill="#4aa3ff"/><circle cx="360.8" cy="73.5" r="3" fill="#4aa3ff"/><circle cx="371.7" cy="71.8" r="3" fill="#4aa3ff"/><circle cx="382.5" cy="69.8" r="3" fill="#4aa3ff"/><circle cx="393.3" cy="69.2" r="3" fill="#4aa3ff"/><circle cx="404.1" cy="69.2" r="3" fill="#4aa3ff"/><circle cx="415.0" cy="69.2" r="3" fill="#4aa3ff"/><circle cx="425.8" cy="69.2" r="3" fill="#4aa3ff"/><circle cx="436.6" cy="69.2" r="3" fill="#4aa3ff"/><circle cx="447.4" cy="69.2" r="3" fill="#4aa3ff"/><circle cx="458.3" cy="69.2" r="3" fill="#4aa3ff"/><circle cx="469.1" cy="69.2" r="3" fill="#4aa3ff"/><circle cx="479.9" cy="69.2" r="3" fill="#4aa3ff"/><circle cx="490.8" cy="69.2" r="3" fill="#4aa3ff"/><circle cx="501.6" cy="78.1" r="3" fill="#4aa3ff"/><circle cx="512.4" cy="78.1" r="3" fill="#4aa3ff"/><circle cx="523.2" cy="78.1" r="3" fill="#4aa3ff"/><circle cx="534.1" cy="78.1" r="3" fill="#4aa3ff"/><circle cx="544.9" cy="78.1" r="3" fill="#4aa3ff"/><circle cx="555.7" cy="74.6" r="3" fill="#4aa3ff"/><circle cx="566.6" cy="66.9" r="3" fill="#4aa3ff"/><circle cx="577.4" cy="36.0" r="3" fill="#4aa3ff"/><circle cx="588.2" cy="36.0" r="3" fill="#4aa3ff"/><circle cx="599.0" cy="39.1" r="3" fill="#4aa3ff"/><circle cx="609.9" cy="39.1" r="3" fill="#4aa3ff"/><circle cx="620.7" cy="39.1" r="3" fill="#4aa3ff"/><circle cx="631.5" cy="39.1" r="3" fill="#4aa3ff"/><circle cx="642.3" cy="39.1" r="3" fill="#4aa3ff"/><circle cx="653.2" cy="39.4" r="3" fill="#4aa3ff"/><circle cx="664.0" cy="39.4" r="3" fill="#4aa3ff"/>
<text x="36" y="225" fill="#6b7280" font-size="11">2026-06-26</text>
<text x="664" y="225" fill="#6b7280" font-size="11" text-anchor="end">2026-07-03</text>
<text x="36" y="212" font-family="system-ui,sans-serif" font-size="11">
<tspan fill="#4aa3ff">&#9679; open FPs</tspan>  <tspan fill="#3fb950">&#9679; closed (Anthropic acting)</tspan>  <tspan fill="#8a5a5a">&#9679; harness withdrawn</tspan></text>
<text x="664" y="22" text-anchor="end" font-family="system-ui,sans-serif" font-size="12">
<tspan fill="#4aa3ff">open 554</tspan>  <tspan fill="#3fb950">closed 37</tspan>  <tspan fill="#8a5a5a">harness 209</tspan></text>
</svg>