<svg xmlns="http://www.w3.org/2000/svg" width="700" height="234" viewBox="0 0 700 234" role="img">
<rect width="700" height="234" rx="12" fill="#16181d"/>
<text x="36" y="22" fill="#e8eaed" font-family="system-ui,sans-serif" font-size="14" font-weight="700">Is Anthropic acting? cyber/aup false positives over time</text>
<line x1="36" y1="198.0" x2="664" y2="198.0" stroke="#2a2e37" stroke-width="1"/><text x="30" y="202.0" fill="#6b7280" font-size="11" text-anchor="end">0</text><line x1="36" y1="117.0" x2="664" y2="117.0" stroke="#2a2e37" stroke-width="1"/><text x="30" y="121.0" fill="#6b7280" font-size="11" text-anchor="end">400</text><line x1="36" y1="36.0" x2="664" y2="36.0" stroke="#2a2e37" stroke-width="1"/><text x="30" y="40.0" fill="#6b7280" font-size="11" text-anchor="end">800</text>

<polyline fill="none" stroke="#8a5a5a" stroke-width="2.5" stroke-linejoin="round" points="36.0,145.1 39.5,145.1 43.0,145.1 46.5,145.1 50.0,145.1 53.5,145.1 57.1,145.1 60.6,145.1 64.1,145.1 67.6,145.1 71.1,145.1 74.6,145.1 78.1,145.1 81.6,145.1 85.1,145.1 88.6,145.1 92.1,145.1 95.6,145.1 99.2,145.1 102.7,145.1 106.2,145.1 109.7,145.1 113.2,145.1 116.7,145.1 120.2,145.1 123.7,145.1 127.2,145.1 130.7,145.1 134.2,145.1 137.7,145.1 141.3,145.1 144.8,145.1 148.3,145.1 151.8,145.1 155.3,145.1 158.8,145.1 162.3,145.1 165.8,145.1 169.3,145.1 172.8,145.1 176.3,145.1 179.8,145.1 183.4,145.1 186.9,145.1 190.4,145.1 193.9,145.1 197.4,145.1 200.9,145.1 204.4,145.1 207.9,145.1 211.4,155.7 214.9,155.7 218.4,155.7 221.9,155.7 225.5,155.7 229.0,155.7 232.5,155.7 236.0,155.7 239.5,155.7 243.0,155.7 246.5,155.7 250.0,155.7 253.5,155.7 257.0,155.7 260.5,155.7 264.0,155.7 267.6,155.7 271.1,155.7 274.6,155.7 278.1,155.7 281.6,155.7 285.1,155.7 288.6,155.7 292.1,155.7 295.6,155.7 299.1,155.7 302.6,155.7 306.1,155.7 309.7,155.7 313.2,155.7 316.7,155.7 320.2,155.7 323.7,155.7 327.2,155.7 330.7,167.6 334.2,167.6 337.7,170.3 341.2,170.3 344.7,170.5 348.2,170.7 351.8,170.7 355.3,170.9 358.8,172.7 362.3,180.6 365.8,181.8 369.3,189.1 372.8,190.5 376.3,195.2 379.8,198.0 383.3,198.0 386.8,198.0 390.3,198.0 393.9,198.0 397.4,198.0 400.9,198.0 404.4,198.0 407.9,198.0 411.4,198.0 414.9,198.0 418.4,198.0 421.9,198.0 425.4,198.0 428.9,198.0 432.4,198.0 436.0,198.0 439.5,198.0 443.0,198.0 446.5,198.0 450.0,198.0 453.5,198.0 457.0,198.0 460.5,198.0 464.0,198.0 467.5,198.0 471.0,198.0 474.5,198.0 478.1,198.0 481.6,198.0 485.1,198.0 488.6,198.0 492.1,198.0 495.6,198.0 499.1,198.0 502.6,198.0 506.1,198.0 509.6,198.0 513.1,198.0 516.6,198.0 520.2,198.0 523.7,198.0 527.2,198.0 530.7,198.0 534.2,198.0 537.7,198.0 541.2,198.0 544.7,198.0 548.2,198.0 551.7,198.0 555.2,198.0 558.7,198.0 562.3,198.0 565.8,198.0 569.3,198.0 572.8,198.0 576.3,198.0 579.8,198.0 583.3,198.0 586.8,198.0 590.3,198.0 593.8,198.0 597.3,198.0 600.8,198.0 604.4,198.0 607.9,198.0 611.4,198.0 614.9,198.0 618.4,198.0 621.9,198.0 625.4,198.0 628.9,198.0 632.4,198.0 635.9,198.0 639.4,198.0 642.9,198.0 646.5,198.0 650.0,198.0 653.5,198.0 657.0,198.0 660.5,198.0 664.0,198.0"/><circle cx="36.0" cy="145.1" r="3" fill="#8a5a5a"/><circle cx="39.5" cy="145.1" r="3" fill="#8a5a5a"/><circle cx="43.0" cy="145.1" r="3" fill="#8a5a5a"/><circle cx="46.5" cy="145.1" r="3" fill="#8a5a5a"/><circle cx="50.0" cy="145.1" r="3" fill="#8a5a5a"/><circle cx="53.5" cy="145.1" r="3" fill="#8a5a5a"/><circle cx="57.1" cy="145.1" r="3" fill="#8a5a5a"/><circle cx="60.6" cy="145.1" r="3" fill="#8a5a5a"/><circle cx="64.1" cy="145.1" r="3" fill="#8a5a5a"/><circle cx="67.6" cy="145.1" r="3" fill="#8a5a5a"/><circle cx="71.1" cy="145.1" r="3" fill="#8a5a5a"/><circle cx="74.6" cy="145.1" r="3" fill="#8a5a5a"/><circle cx="78.1" cy="145.1" r="3" fill="#8a5a5a"/><circle cx="81.6" cy="145.1" r="3" fill="#8a5a5a"/><circle cx="85.1" cy="145.1" r="3" fill="#8a5a5a"/><circle cx="88.6" cy="145.1" r="3" fill="#8a5a5a"/><circle cx="92.1" cy="145.1" r="3" fill="#8a5a5a"/><circle cx="95.6" cy="145.1" r="3" fill="#8a5a5a"/><circle cx="99.2" cy="145.1" r="3" fill="#8a5a5a"/><circle cx="102.7" cy="145.1" r="3" fill="#8a5a5a"/><circle cx="106.2" cy="145.1" r="3" fill="#8a5a5a"/><circle cx="109.7" cy="145.1" r="3" fill="#8a5a5a"/><circle cx="113.2" cy="145.1" r="3" fill="#8a5a5a"/><circle cx="116.7" cy="145.1" r="3" fill="#8a5a5a"/><circle cx="120.2" cy="145.1" r="3" fill="#8a5a5a"/><circle cx="123.7" cy="145.1" r="3" fill="#8a5a5a"/><circle cx="127.2" cy="145.1" r="3" fill="#8a5a5a"/><circle cx="130.7" cy="145.1" r="3" fill="#8a5a5a"/><circle cx="134.2" cy="145.1" r="3" fill="#8a5a5a"/><circle cx="137.7" cy="145.1" r="3" fill="#8a5a5a"/><circle cx="141.3" cy="145.1" r="3" fill="#8a5a5a"/><circle cx="144.8" cy="145.1" r="3" fill="#8a5a5a"/><circle cx="148.3" cy="145.1" r="3" fill="#8a5a5a"/><circle cx="151.8" cy="145.1" r="3" fill="#8a5a5a"/><circle cx="155.3" cy="145.1" r="3" fill="#8a5a5a"/><circle cx="158.8" cy="145.1" r="3" fill="#8a5a5a"/><circle cx="162.3" cy="145.1" r="3" fill="#8a5a5a"/><circle cx="165.8" cy="145.1" r="3" fill="#8a5a5a"/><circle cx="169.3" cy="145.1" r="3" fill="#8a5a5a"/><circle cx="172.8" cy="145.1" r="3" fill="#8a5a5a"/><circle cx="176.3" cy="145.1" r="3" fill="#8a5a5a"/><circle cx="179.8" cy="145.1" r="3" fill="#8a5a5a"/><circle cx="183.4" cy="145.1" r="3" fill="#8a5a5a"/><circle cx="186.9" cy="145.1" r="3" fill="#8a5a5a"/><circle cx="190.4" cy="145.1" r="3" fill="#8a5a5a"/><circle cx="193.9" cy="145.1" r="3" fill="#8a5a5a"/><circle cx="197.4" cy="145.1" r="3" fill="#8a5a5a"/><circle cx="200.9" cy="145.1" r="3" fill="#8a5a5a"/><circle cx="204.4" cy="145.1" r="3" fill="#8a5a5a"/><circle cx="207.9" cy="145.1" r="3" fill="#8a5a5a"/><circle cx="211.4" cy="155.7" r="3" fill="#8a5a5a"/><circle cx="214.9" cy="155.7" r="3" fill="#8a5a5a"/><circle cx="218.4" cy="155.7" r="3" fill="#8a5a5a"/><circle cx="221.9" cy="155.7" r="3" fill="#8a5a5a"/><circle cx="225.5" cy="155.7" r="3" fill="#8a5a5a"/><circle cx="229.0" cy="155.7" r="3" fill="#8a5a5a"/><circle cx="232.5" cy="155.7" r="3" fill="#8a5a5a"/><circle cx="236.0" cy="155.7" r="3" fill="#8a5a5a"/><circle cx="239.5" cy="155.7" r="3" fill="#8a5a5a"/><circle cx="243.0" cy="155.7" r="3" fill="#8a5a5a"/><circle cx="246.5" cy="155.7" r="3" fill="#8a5a5a"/><circle cx="250.0" cy="155.7" r="3" fill="#8a5a5a"/><circle cx="253.5" cy="155.7" r="3" fill="#8a5a5a"/><circle cx="257.0" cy="155.7" r="3" fill="#8a5a5a"/><circle cx="260.5" cy="155.7" r="3" fill="#8a5a5a"/><circle cx="264.0" cy="155.7" r="3" fill="#8a5a5a"/><circle cx="267.6" cy="155.7" r="3" fill="#8a5a5a"/><circle cx="271.1" cy="155.7" r="3" fill="#8a5a5a"/><circle cx="274.6" cy="155.7" r="3" fill="#8a5a5a"/><circle cx="278.1" cy="155.7" r="3" fill="#8a5a5a"/><circle cx="281.6" cy="155.7" r="3" fill="#8a5a5a"/><circle cx="285.1" cy="155.7" r="3" fill="#8a5a5a"/><circle cx="288.6" cy="155.7" r="3" fill="#8a5a5a"/><circle cx="292.1" cy="155.7" r="3" fill="#8a5a5a"/><circle cx="295.6" cy="155.7" r="3" fill="#8a5a5a"/><circle cx="299.1" cy="155.7" r="3" fill="#8a5a5a"/><circle cx="302.6" cy="155.7" r="3" fill="#8a5a5a"/><circle cx="306.1" cy="155.7" r="3" fill="#8a5a5a"/><circle cx="309.7" cy="155.7" r="3" fill="#8a5a5a"/><circle cx="313.2" cy="155.7" r="3" fill="#8a5a5a"/><circle cx="316.7" cy="155.7" r="3" fill="#8a5a5a"/><circle cx="320.2" cy="155.7" r="3" fill="#8a5a5a"/><circle cx="323.7" cy="155.7" r="3" fill="#8a5a5a"/><circle cx="327.2" cy="155.7" r="3" fill="#8a5a5a"/><circle cx="330.7" cy="167.6" r="3" fill="#8a5a5a"/><circle cx="334.2" cy="167.6" r="3" fill="#8a5a5a"/><circle cx="337.7" cy="170.3" r="3" fill="#8a5a5a"/><circle cx="341.2" cy="170.3" r="3" fill="#8a5a5a"/><circle cx="344.7" cy="170.5" r="3" fill="#8a5a5a"/><circle cx="348.2" cy="170.7" r="3" fill="#8a5a5a"/><circle cx="351.8" cy="170.7" r="3" fill="#8a5a5a"/><circle cx="355.3" cy="170.9" r="3" fill="#8a5a5a"/><circle cx="358.8" cy="172.7" r="3" fill="#8a5a5a"/><circle cx="362.3" cy="180.6" r="3" fill="#8a5a5a"/><circle cx="365.8" cy="181.8" r="3" fill="#8a5a5a"/><circle cx="369.3" cy="189.1" r="3" fill="#8a5a5a"/><circle cx="372.8" cy="190.5" r="3" fill="#8a5a5a"/><circle cx="376.3" cy="195.2" r="3" fill="#8a5a5a"/><circle cx="379.8" cy="198.0" r="3" fill="#8a5a5a"/><circle cx="383.3" cy="198.0" r="3" fill="#8a5a5a"/><circle cx="386.8" cy="198.0" r="3" fill="#8a5a5a"/><circle cx="390.3" cy="198.0" r="3" fill="#8a5a5a"/><circle cx="393.9" cy="198.0" r="3" fill="#8a5a5a"/><circle cx="397.4" cy="198.0" r="3" fill="#8a5a5a"/><circle cx="400.9" cy="198.0" r="3" fill="#8a5a5a"/><circle cx="404.4" cy="198.0" r="3" fill="#8a5a5a"/><circle cx="407.9" cy="198.0" r="3" fill="#8a5a5a"/><circle cx="411.4" cy="198.0" r="3" fill="#8a5a5a"/><circle cx="414.9" cy="198.0" r="3" fill="#8a5a5a"/><circle cx="418.4" cy="198.0" r="3" fill="#8a5a5a"/><circle cx="421.9" cy="198.0" r="3" fill="#8a5a5a"/><circle cx="425.4" cy="198.0" r="3" fill="#8a5a5a"/><circle cx="428.9" cy="198.0" r="3" fill="#8a5a5a"/><circle cx="432.4" cy="198.0" r="3" fill="#8a5a5a"/><circle cx="436.0" cy="198.0" r="3" fill="#8a5a5a"/><circle cx="439.5" cy="198.0" r="3" fill="#8a5a5a"/><circle cx="443.0" cy="198.0" r="3" fill="#8a5a5a"/><circle cx="446.5" cy="198.0" r="3" fill="#8a5a5a"/><circle cx="450.0" cy="198.0" r="3" fill="#8a5a5a"/><circle cx="453.5" cy="198.0" r="3" fill="#8a5a5a"/><circle cx="457.0" cy="198.0" r="3" fill="#8a5a5a"/><circle cx="460.5" cy="198.0" r="3" fill="#8a5a5a"/><circle cx="464.0" cy="198.0" r="3" fill="#8a5a5a"/><circle cx="467.5" cy="198.0" r="3" fill="#8a5a5a"/><circle cx="471.0" cy="198.0" r="3" fill="#8a5a5a"/><circle cx="474.5" cy="198.0" r="3" fill="#8a5a5a"/><circle cx="478.1" cy="198.0" r="3" fill="#8a5a5a"/><circle cx="481.6" cy="198.0" r="3" fill="#8a5a5a"/><circle cx="485.1" cy="198.0" r="3" fill="#8a5a5a"/><circle cx="488.6" cy="198.0" r="3" fill="#8a5a5a"/><circle cx="492.1" cy="198.0" r="3" fill="#8a5a5a"/><circle cx="495.6" cy="198.0" r="3" fill="#8a5a5a"/><circle cx="499.1" cy="198.0" r="3" fill="#8a5a5a"/><circle cx="502.6" cy="198.0" r="3" fill="#8a5a5a"/><circle cx="506.1" cy="198.0" r="3" fill="#8a5a5a"/><circle cx="509.6" cy="198.0" r="3" fill="#8a5a5a"/><circle cx="513.1" cy="198.0" r="3" fill="#8a5a5a"/><circle cx="516.6" cy="198.0" r="3" fill="#8a5a5a"/><circle cx="520.2" cy="198.0" r="3" fill="#8a5a5a"/><circle cx="523.7" cy="198.0" r="3" fill="#8a5a5a"/><circle cx="527.2" cy="198.0" r="3" fill="#8a5a5a"/><circle cx="530.7" cy="198.0" r="3" fill="#8a5a5a"/><circle cx="534.2" cy="198.0" r="3" fill="#8a5a5a"/><circle cx="537.7" cy="198.0" r="3" fill="#8a5a5a"/><circle cx="541.2" cy="198.0" r="3" fill="#8a5a5a"/><circle cx="544.7" cy="198.0" r="3" fill="#8a5a5a"/><circle cx="548.2" cy="198.0" r="3" fill="#8a5a5a"/><circle cx="551.7" cy="198.0" r="3" fill="#8a5a5a"/><circle cx="555.2" cy="198.0" r="3" fill="#8a5a5a"/><circle cx="558.7" cy="198.0" r="3" fill="#8a5a5a"/><circle cx="562.3" cy="198.0" r="3" fill="#8a5a5a"/><circle cx="565.8" cy="198.0" r="3" fill="#8a5a5a"/><circle cx="569.3" cy="198.0" r="3" fill="#8a5a5a"/><circle cx="572.8" cy="198.0" r="3" fill="#8a5a5a"/><circle cx="576.3" cy="198.0" r="3" fill="#8a5a5a"/><circle cx="579.8" cy="198.0" r="3" fill="#8a5a5a"/><circle cx="583.3" cy="198.0" r="3" fill="#8a5a5a"/><circle cx="586.8" cy="198.0" r="3" fill="#8a5a5a"/><circle cx="590.3" cy="198.0" r="3" fill="#8a5a5a"/><circle cx="593.8" cy="198.0" r="3" fill="#8a5a5a"/><circle cx="597.3" cy="198.0" r="3" fill="#8a5a5a"/><circle cx="600.8" cy="198.0" r="3" fill="#8a5a5a"/><circle cx="604.4" cy="198.0" r="3" fill="#8a5a5a"/><circle cx="607.9" cy="198.0" r="3" fill="#8a5a5a"/><circle cx="611.4" cy="198.0" r="3" fill="#8a5a5a"/><circle cx="614.9" cy="198.0" r="3" fill="#8a5a5a"/><circle cx="618.4" cy="198.0" r="3" fill="#8a5a5a"/><circle cx="621.9" cy="198.0" r="3" fill="#8a5a5a"/><circle cx="625.4" cy="198.0" r="3" fill="#8a5a5a"/><circle cx="628.9" cy="198.0" r="3" fill="#8a5a5a"/><circle cx="632.4" cy="198.0" r="3" fill="#8a5a5a"/><circle cx="635.9" cy="198.0" r="3" fill="#8a5a5a"/><circle cx="639.4" cy="198.0" r="3" fill="#8a5a5a"/><circle cx="642.9" cy="198.0" r="3" fill="#8a5a5a"/><circle cx="646.5" cy="198.0" r="3" fill="#8a5a5a"/><circle cx="650.0" cy="198.0" r="3" fill="#8a5a5a"/><circle cx="653.5" cy="198.0" r="3" fill="#8a5a5a"/><circle cx="657.0" cy="198.0" r="3" fill="#8a5a5a"/><circle cx="660.5" cy="198.0" r="3" fill="#8a5a5a"/><circle cx="664.0" cy="198.0" r="3" fill="#8a5a5a"/>
<polyline fill="none" stroke="#3fb950" stroke-width="2.5" stroke-linejoin="round" points="36.0,198.0 39.5,198.0 43.0,198.0 46.5,198.0 50.0,198.0 53.5,198.0 57.1,198.0 60.6,198.0 64.1,198.0 67.6,198.0 71.1,198.0 74.6,198.0 78.1,198.0 81.6,198.0 85.1,198.0 88.6,198.0 92.1,198.0 95.6,198.0 99.2,198.0 102.7,198.0 106.2,198.0 109.7,198.0 113.2,198.0 116.7,198.0 120.2,198.0 123.7,198.0 127.2,198.0 130.7,198.0 134.2,198.0 137.7,198.0 141.3,198.0 144.8,198.0 148.3,198.0 151.8,198.0 155.3,198.0 158.8,198.0 162.3,198.0 165.8,198.0 169.3,198.0 172.8,198.0 176.3,198.0 179.8,198.0 183.4,198.0 186.9,191.7 190.4,191.7 193.9,191.7 197.4,191.7 200.9,191.7 204.4,191.7 207.9,191.7 211.4,192.9 214.9,192.9 218.4,190.7 221.9,190.7 225.5,190.7 229.0,190.7 232.5,190.7 236.0,190.5 239.5,190.5 243.0,190.5 246.5,190.3 250.0,190.3 253.5,190.3 257.0,190.3 260.5,190.3 264.0,190.3 267.6,190.3 271.1,190.3 274.6,190.3 278.1,190.3 281.6,190.3 285.1,190.3 288.6,190.3 292.1,190.3 295.6,190.3 299.1,190.3 302.6,190.3 306.1,190.3 309.7,190.3 313.2,190.3 316.7,190.3 320.2,189.3 323.7,189.3 327.2,189.3 330.7,190.7 334.2,190.7 337.7,190.7 341.2,190.7 344.7,190.7 348.2,190.7 351.8,190.7 355.3,190.7 358.8,190.7 362.3,190.9 365.8,190.9 369.3,190.9 372.8,194.2 376.3,196.8 379.8,198.0 383.3,198.0 386.8,198.0 390.3,198.0 393.9,198.0 397.4,198.0 400.9,198.0 404.4,198.0 407.9,198.0 411.4,198.0 414.9,198.0 418.4,198.0 421.9,198.0 425.4,198.0 428.9,198.0 432.4,198.0 436.0,198.0 439.5,198.0 443.0,198.0 446.5,198.0 450.0,198.0 453.5,198.0 457.0,198.0 460.5,198.0 464.0,198.0 467.5,198.0 471.0,198.0 474.5,198.0 478.1,198.0 481.6,198.0 485.1,198.0 488.6,198.0 492.1,198.0 495.6,198.0 499.1,198.0 502.6,198.0 506.1,198.0 509.6,198.0 513.1,198.0 516.6,198.0 520.2,198.0 523.7,198.0 527.2,198.0 530.7,198.0 534.2,198.0 537.7,198.0 541.2,198.0 544.7,198.0 548.2,198.0 551.7,198.0 555.2,198.0 558.7,198.0 562.3,198.0 565.8,198.0 569.3,198.0 572.8,198.0 576.3,198.0 579.8,198.0 583.3,198.0 586.8,198.0 590.3,198.0 593.8,198.0 597.3,198.0 600.8,198.0 604.4,198.0 607.9,198.0 611.4,198.0 614.9,198.0 618.4,198.0 621.9,198.0 625.4,198.0 628.9,198.0 632.4,198.0 635.9,198.0 639.4,198.0 642.9,198.0 646.5,198.0 650.0,198.0 653.5,198.0 657.0,198.0 660.5,198.0 664.0,198.0"/><circle cx="36.0" cy="198.0" r="3" fill="#3fb950"/><circle cx="39.5" cy="198.0" r="3" fill="#3fb950"/><circle cx="43.0" cy="198.0" r="3" fill="#3fb950"/><circle cx="46.5" cy="198.0" r="3" fill="#3fb950"/><circle cx="50.0" cy="198.0" r="3" fill="#3fb950"/><circle cx="53.5" cy="198.0" r="3" fill="#3fb950"/><circle cx="57.1" cy="198.0" r="3" fill="#3fb950"/><circle cx="60.6" cy="198.0" r="3" fill="#3fb950"/><circle cx="64.1" cy="198.0" r="3" fill="#3fb950"/><circle cx="67.6" cy="198.0" r="3" fill="#3fb950"/><circle cx="71.1" cy="198.0" r="3" fill="#3fb950"/><circle cx="74.6" cy="198.0" r="3" fill="#3fb950"/><circle cx="78.1" cy="198.0" r="3" fill="#3fb950"/><circle cx="81.6" cy="198.0" r="3" fill="#3fb950"/><circle cx="85.1" cy="198.0" r="3" fill="#3fb950"/><circle cx="88.6" cy="198.0" r="3" fill="#3fb950"/><circle cx="92.1" cy="198.0" r="3" fill="#3fb950"/><circle cx="95.6" cy="198.0" r="3" fill="#3fb950"/><circle cx="99.2" cy="198.0" r="3" fill="#3fb950"/><circle cx="102.7" cy="198.0" r="3" fill="#3fb950"/><circle cx="106.2" cy="198.0" r="3" fill="#3fb950"/><circle cx="109.7" cy="198.0" r="3" fill="#3fb950"/><circle cx="113.2" cy="198.0" r="3" fill="#3fb950"/><circle cx="116.7" cy="198.0" r="3" fill="#3fb950"/><circle cx="120.2" cy="198.0" r="3" fill="#3fb950"/><circle cx="123.7" cy="198.0" r="3" fill="#3fb950"/><circle cx="127.2" cy="198.0" r="3" fill="#3fb950"/><circle cx="130.7" cy="198.0" r="3" fill="#3fb950"/><circle cx="134.2" cy="198.0" r="3" fill="#3fb950"/><circle cx="137.7" cy="198.0" r="3" fill="#3fb950"/><circle cx="141.3" cy="198.0" r="3" fill="#3fb950"/><circle cx="144.8" cy="198.0" r="3" fill="#3fb950"/><circle cx="148.3" cy="198.0" r="3" fill="#3fb950"/><circle cx="151.8" cy="198.0" r="3" fill="#3fb950"/><circle cx="155.3" cy="198.0" r="3" fill="#3fb950"/><circle cx="158.8" cy="198.0" r="3" fill="#3fb950"/><circle cx="162.3" cy="198.0" r="3" fill="#3fb950"/><circle cx="165.8" cy="198.0" r="3" fill="#3fb950"/><circle cx="169.3" cy="198.0" r="3" fill="#3fb950"/><circle cx="172.8" cy="198.0" r="3" fill="#3fb950"/><circle cx="176.3" cy="198.0" r="3" fill="#3fb950"/><circle cx="179.8" cy="198.0" r="3" fill="#3fb950"/><circle cx="183.4" cy="198.0" r="3" fill="#3fb950"/><circle cx="186.9" cy="191.7" r="3" fill="#3fb950"/><circle cx="190.4" cy="191.7" r="3" fill="#3fb950"/><circle cx="193.9" cy="191.7" r="3" fill="#3fb950"/><circle cx="197.4" cy="191.7" r="3" fill="#3fb950"/><circle cx="200.9" cy="191.7" r="3" fill="#3fb950"/><circle cx="204.4" cy="191.7" r="3" fill="#3fb950"/><circle cx="207.9" cy="191.7" r="3" fill="#3fb950"/><circle cx="211.4" cy="192.9" r="3" fill="#3fb950"/><circle cx="214.9" cy="192.9" r="3" fill="#3fb950"/><circle cx="218.4" cy="190.7" r="3" fill="#3fb950"/><circle cx="221.9" cy="190.7" r="3" fill="#3fb950"/><circle cx="225.5" cy="190.7" r="3" fill="#3fb950"/><circle cx="229.0" cy="190.7" r="3" fill="#3fb950"/><circle cx="232.5" cy="190.7" r="3" fill="#3fb950"/><circle cx="236.0" cy="190.5" r="3" fill="#3fb950"/><circle cx="239.5" cy="190.5" r="3" fill="#3fb950"/><circle cx="243.0" cy="190.5" r="3" fill="#3fb950"/><circle cx="246.5" cy="190.3" r="3" fill="#3fb950"/><circle cx="250.0" cy="190.3" r="3" fill="#3fb950"/><circle cx="253.5" cy="190.3" r="3" fill="#3fb950"/><circle cx="257.0" cy="190.3" r="3" fill="#3fb950"/><circle cx="260.5" cy="190.3" r="3" fill="#3fb950"/><circle cx="264.0" cy="190.3" r="3" fill="#3fb950"/><circle cx="267.6" cy="190.3" r="3" fill="#3fb950"/><circle cx="271.1" cy="190.3" r="3" fill="#3fb950"/><circle cx="274.6" cy="190.3" r="3" fill="#3fb950"/><circle cx="278.1" cy="190.3" r="3" fill="#3fb950"/><circle cx="281.6" cy="190.3" r="3" fill="#3fb950"/><circle cx="285.1" cy="190.3" r="3" fill="#3fb950"/><circle cx="288.6" cy="190.3" r="3" fill="#3fb950"/><circle cx="292.1" cy="190.3" r="3" fill="#3fb950"/><circle cx="295.6" cy="190.3" r="3" fill="#3fb950"/><circle cx="299.1" cy="190.3" r="3" fill="#3fb950"/><circle cx="302.6" cy="190.3" r="3" fill="#3fb950"/><circle cx="306.1" cy="190.3" r="3" fill="#3fb950"/><circle cx="309.7" cy="190.3" r="3" fill="#3fb950"/><circle cx="313.2" cy="190.3" r="3" fill="#3fb950"/><circle cx="316.7" cy="190.3" r="3" fill="#3fb950"/><circle cx="320.2" cy="189.3" r="3" fill="#3fb950"/><circle cx="323.7" cy="189.3" r="3" fill="#3fb950"/><circle cx="327.2" cy="189.3" r="3" fill="#3fb950"/><circle cx="330.7" cy="190.7" r="3" fill="#3fb950"/><circle cx="334.2" cy="190.7" r="3" fill="#3fb950"/><circle cx="337.7" cy="190.7" r="3" fill="#3fb950"/><circle cx="341.2" cy="190.7" r="3" fill="#3fb950"/><circle cx="344.7" cy="190.7" r="3" fill="#3fb950"/><circle cx="348.2" cy="190.7" r="3" fill="#3fb950"/><circle cx="351.8" cy="190.7" r="3" fill="#3fb950"/><circle cx="355.3" cy="190.7" r="3" fill="#3fb950"/><circle cx="358.8" cy="190.7" r="3" fill="#3fb950"/><circle cx="362.3" cy="190.9" r="3" fill="#3fb950"/><circle cx="365.8" cy="190.9" r="3" fill="#3fb950"/><circle cx="369.3" cy="190.9" r="3" fill="#3fb950"/><circle cx="372.8" cy="194.2" r="3" fill="#3fb950"/><circle cx="376.3" cy="196.8" r="3" fill="#3fb950"/><circle cx="379.8" cy="198.0" r="3" fill="#3fb950"/><circle cx="383.3" cy="198.0" r="3" fill="#3fb950"/><circle cx="386.8" cy="198.0" r="3" fill="#3fb950"/><circle cx="390.3" cy="198.0" r="3" fill="#3fb950"/><circle cx="393.9" cy="198.0" r="3" fill="#3fb950"/><circle cx="397.4" cy="198.0" r="3" fill="#3fb950"/><circle cx="400.9" cy="198.0" r="3" fill="#3fb950"/><circle cx="404.4" cy="198.0" r="3" fill="#3fb950"/><circle cx="407.9" cy="198.0" r="3" fill="#3fb950"/><circle cx="411.4" cy="198.0" r="3" fill="#3fb950"/><circle cx="414.9" cy="198.0" r="3" fill="#3fb950"/><circle cx="418.4" cy="198.0" r="3" fill="#3fb950"/><circle cx="421.9" cy="198.0" r="3" fill="#3fb950"/><circle cx="425.4" cy="198.0" r="3" fill="#3fb950"/><circle cx="428.9" cy="198.0" r="3" fill="#3fb950"/><circle cx="432.4" cy="198.0" r="3" fill="#3fb950"/><circle cx="436.0" cy="198.0" r="3" fill="#3fb950"/><circle cx="439.5" cy="198.0" r="3" fill="#3fb950"/><circle cx="443.0" cy="198.0" r="3" fill="#3fb950"/><circle cx="446.5" cy="198.0" r="3" fill="#3fb950"/><circle cx="450.0" cy="198.0" r="3" fill="#3fb950"/><circle cx="453.5" cy="198.0" r="3" fill="#3fb950"/><circle cx="457.0" cy="198.0" r="3" fill="#3fb950"/><circle cx="460.5" cy="198.0" r="3" fill="#3fb950"/><circle cx="464.0" cy="198.0" r="3" fill="#3fb950"/><circle cx="467.5" cy="198.0" r="3" fill="#3fb950"/><circle cx="471.0" cy="198.0" r="3" fill="#3fb950"/><circle cx="474.5" cy="198.0" r="3" fill="#3fb950"/><circle cx="478.1" cy="198.0" r="3" fill="#3fb950"/><circle cx="481.6" cy="198.0" r="3" fill="#3fb950"/><circle cx="485.1" cy="198.0" r="3" fill="#3fb950"/><circle cx="488.6" cy="198.0" r="3" fill="#3fb950"/><circle cx="492.1" cy="198.0" r="3" fill="#3fb950"/><circle cx="495.6" cy="198.0" r="3" fill="#3fb950"/><circle cx="499.1" cy="198.0" r="3" fill="#3fb950"/><circle cx="502.6" cy="198.0" r="3" fill="#3fb950"/><circle cx="506.1" cy="198.0" r="3" fill="#3fb950"/><circle cx="509.6" cy="198.0" r="3" fill="#3fb950"/><circle cx="513.1" cy="198.0" r="3" fill="#3fb950"/><circle cx="516.6" cy="198.0" r="3" fill="#3fb950"/><circle cx="520.2" cy="198.0" r="3" fill="#3fb950"/><circle cx="523.7" cy="198.0" r="3" fill="#3fb950"/><circle cx="527.2" cy="198.0" r="3" fill="#3fb950"/><circle cx="530.7" cy="198.0" r="3" fill="#3fb950"/><circle cx="534.2" cy="198.0" r="3" fill="#3fb950"/><circle cx="537.7" cy="198.0" r="3" fill="#3fb950"/><circle cx="541.2" cy="198.0" r="3" fill="#3fb950"/><circle cx="544.7" cy="198.0" r="3" fill="#3fb950"/><circle cx="548.2" cy="198.0" r="3" fill="#3fb950"/><circle cx="551.7" cy="198.0" r="3" fill="#3fb950"/><circle cx="555.2" cy="198.0" r="3" fill="#3fb950"/><circle cx="558.7" cy="198.0" r="3" fill="#3fb950"/><circle cx="562.3" cy="198.0" r="3" fill="#3fb950"/><circle cx="565.8" cy="198.0" r="3" fill="#3fb950"/><circle cx="569.3" cy="198.0" r="3" fill="#3fb950"/><circle cx="572.8" cy="198.0" r="3" fill="#3fb950"/><circle cx="576.3" cy="198.0" r="3" fill="#3fb950"/><circle cx="579.8" cy="198.0" r="3" fill="#3fb950"/><circle cx="583.3" cy="198.0" r="3" fill="#3fb950"/><circle cx="586.8" cy="198.0" r="3" fill="#3fb950"/><circle cx="590.3" cy="198.0" r="3" fill="#3fb950"/><circle cx="593.8" cy="198.0" r="3" fill="#3fb950"/><circle cx="597.3" cy="198.0" r="3" fill="#3fb950"/><circle cx="600.8" cy="198.0" r="3" fill="#3fb950"/><circle cx="604.4" cy="198.0" r="3" fill="#3fb950"/><circle cx="607.9" cy="198.0" r="3" fill="#3fb950"/><circle cx="611.4" cy="198.0" r="3" fill="#3fb950"/><circle cx="614.9" cy="198.0" r="3" fill="#3fb950"/><circle cx="618.4" cy="198.0" r="3" fill="#3fb950"/><circle cx="621.9" cy="198.0" r="3" fill="#3fb950"/><circle cx="625.4" cy="198.0" r="3" fill="#3fb950"/><circle cx="628.9" cy="198.0" r="3" fill="#3fb950"/><circle cx="632.4" cy="198.0" r="3" fill="#3fb950"/><circle cx="635.9" cy="198.0" r="3" fill="#3fb950"/><circle cx="639.4" cy="198.0" r="3" fill="#3fb950"/><circle cx="642.9" cy="198.0" r="3" fill="#3fb950"/><circle cx="646.5" cy="198.0" r="3" fill="#3fb950"/><circle cx="650.0" cy="198.0" r="3" fill="#3fb950"/><circle cx="653.5" cy="198.0" r="3" fill="#3fb950"/><circle cx="657.0" cy="198.0" r="3" fill="#3fb950"/><circle cx="660.5" cy="198.0" r="3" fill="#3fb950"/><circle cx="664.0" cy="198.0" r="3" fill="#3fb950"/>
<polyline fill="none" stroke="#4aa3ff" stroke-width="2.5" stroke-linejoin="round" points="36.0,144.3 39.5,144.3 43.0,144.3 46.5,144.3 50.0,144.3 53.5,144.3 57.1,144.3 60.6,144.3 64.1,144.3 67.6,144.3 71.1,144.3 74.6,144.3 78.1,144.3 81.6,144.3 85.1,144.3 88.6,136.2 92.1,132.4 95.6,129.6 99.2,129.6 102.7,121.0 106.2,121.0 109.7,121.0 113.2,114.4 116.7,114.4 120.2,114.4 123.7,111.3 127.2,110.9 130.7,110.9 134.2,110.5 137.7,110.5 141.3,109.9 144.8,108.7 148.3,107.3 151.8,106.9 155.3,106.9 158.8,106.9 162.3,106.9 165.8,106.9 169.3,106.9 172.8,106.9 176.3,106.9 179.8,106.9 183.4,106.9 186.9,113.2 190.4,113.2 193.9,113.2 197.4,113.2 200.9,113.2 204.4,110.7 207.9,105.3 211.4,83.4 214.9,83.4 218.4,85.6 221.9,85.6 225.5,85.6 229.0,85.6 232.5,85.6 236.0,85.8 239.5,85.8 243.0,85.8 246.5,86.0 250.0,86.0 253.5,86.0 257.0,86.0 260.5,86.0 264.0,86.0 267.6,86.0 271.1,86.0 274.6,86.0 278.1,86.0 281.6,86.0 285.1,86.0 288.6,86.0 292.1,86.0 295.6,86.0 299.1,86.0 302.6,86.0 306.1,86.0 309.7,86.0 313.2,86.0 316.7,86.0 320.2,87.0 323.7,87.0 327.2,87.0 330.7,73.7 334.2,73.7 337.7,71.0 341.2,71.0 344.7,70.8 348.2,70.6 351.8,70.6 355.3,70.4 358.8,68.6 362.3,60.5 365.8,59.3 369.3,52.0 372.8,47.3 376.3,40.1 379.8,36.0 383.3,36.0 386.8,36.0 390.3,36.0 393.9,36.0 397.4,36.0 400.9,36.0 404.4,36.0 407.9,36.0 411.4,36.0 414.9,36.0 418.4,36.0 421.9,36.0 425.4,36.0 428.9,36.0 432.4,36.0 436.0,36.0 439.5,36.0 443.0,36.0 446.5,36.0 450.0,36.0 453.5,36.0 457.0,36.0 460.5,36.0 464.0,36.0 467.5,36.0 471.0,36.0 474.5,36.0 478.1,36.0 481.6,36.0 485.1,36.0 488.6,36.0 492.1,36.0 495.6,36.0 499.1,36.0 502.6,36.0 506.1,36.0 509.6,36.0 513.1,36.0 516.6,36.0 520.2,36.0 523.7,36.0 527.2,36.0 530.7,36.0 534.2,36.0 537.7,36.0 541.2,36.0 544.7,36.0 548.2,36.0 551.7,36.0 555.2,36.0 558.7,36.0 562.3,36.0 565.8,36.0 569.3,36.0 572.8,36.0 576.3,36.0 579.8,36.0 583.3,36.0 586.8,36.0 590.3,36.0 593.8,36.0 597.3,36.0 600.8,36.0 604.4,36.0 607.9,36.0 611.4,36.0 614.9,36.0 618.4,36.0 621.9,36.0 625.4,36.0 628.9,36.0 632.4,36.0 635.9,36.0 639.4,36.0 642.9,36.0 646.5,36.0 650.0,36.0 653.5,36.0 657.0,36.0 660.5,36.0 664.0,36.0"/><circle cx="36.0" cy="144.3" r="3" fill="#4aa3ff"/><circle cx="39.5" cy="144.3" r="3" fill="#4aa3ff"/><circle cx="43.0" cy="144.3" r="3" fill="#4aa3ff"/><circle cx="46.5" cy="144.3" r="3" fill="#4aa3ff"/><circle cx="50.0" cy="144.3" r="3" fill="#4aa3ff"/><circle cx="53.5" cy="144.3" r="3" fill="#4aa3ff"/><circle cx="57.1" cy="144.3" r="3" fill="#4aa3ff"/><circle cx="60.6" cy="144.3" r="3" fill="#4aa3ff"/><circle cx="64.1" cy="144.3" r="3" fill="#4aa3ff"/><circle cx="67.6" cy="144.3" r="3" fill="#4aa3ff"/><circle cx="71.1" cy="144.3" r="3" fill="#4aa3ff"/><circle cx="74.6" cy="144.3" r="3" fill="#4aa3ff"/><circle cx="78.1" cy="144.3" r="3" fill="#4aa3ff"/><circle cx="81.6" cy="144.3" r="3" fill="#4aa3ff"/><circle cx="85.1" cy="144.3" r="3" fill="#4aa3ff"/><circle cx="88.6" cy="136.2" r="3" fill="#4aa3ff"/><circle cx="92.1" cy="132.4" r="3" fill="#4aa3ff"/><circle cx="95.6" cy="129.6" r="3" fill="#4aa3ff"/><circle cx="99.2" cy="129.6" r="3" fill="#4aa3ff"/><circle cx="102.7" cy="121.0" r="3" fill="#4aa3ff"/><circle cx="106.2" cy="121.0" r="3" fill="#4aa3ff"/><circle cx="109.7" cy="121.0" r="3" fill="#4aa3ff"/><circle cx="113.2" cy="114.4" r="3" fill="#4aa3ff"/><circle cx="116.7" cy="114.4" r="3" fill="#4aa3ff"/><circle cx="120.2" cy="114.4" r="3" fill="#4aa3ff"/><circle cx="123.7" cy="111.3" r="3" fill="#4aa3ff"/><circle cx="127.2" cy="110.9" r="3" fill="#4aa3ff"/><circle cx="130.7" cy="110.9" r="3" fill="#4aa3ff"/><circle cx="134.2" cy="110.5" r="3" fill="#4aa3ff"/><circle cx="137.7" cy="110.5" r="3" fill="#4aa3ff"/><circle cx="141.3" cy="109.9" r="3" fill="#4aa3ff"/><circle cx="144.8" cy="108.7" r="3" fill="#4aa3ff"/><circle cx="148.3" cy="107.3" r="3" fill="#4aa3ff"/><circle cx="151.8" cy="106.9" r="3" fill="#4aa3ff"/><circle cx="155.3" cy="106.9" r="3" fill="#4aa3ff"/><circle cx="158.8" cy="106.9" r="3" fill="#4aa3ff"/><circle cx="162.3" cy="106.9" r="3" fill="#4aa3ff"/><circle cx="165.8" cy="106.9" r="3" fill="#4aa3ff"/><circle cx="169.3" cy="106.9" r="3" fill="#4aa3ff"/><circle cx="172.8" cy="106.9" r="3" fill="#4aa3ff"/><circle cx="176.3" cy="106.9" r="3" fill="#4aa3ff"/><circle cx="179.8" cy="106.9" r="3" fill="#4aa3ff"/><circle cx="183.4" cy="106.9" r="3" fill="#4aa3ff"/><circle cx="186.9" cy="113.2" r="3" fill="#4aa3ff"/><circle cx="190.4" cy="113.2" r="3" fill="#4aa3ff"/><circle cx="193.9" cy="113.2" r="3" fill="#4aa3ff"/><circle cx="197.4" cy="113.2" r="3" fill="#4aa3ff"/><circle cx="200.9" cy="113.2" r="3" fill="#4aa3ff"/><circle cx="204.4" cy="110.7" r="3" fill="#4aa3ff"/><circle cx="207.9" cy="105.3" r="3" fill="#4aa3ff"/><circle cx="211.4" cy="83.4" r="3" fill="#4aa3ff"/><circle cx="214.9" cy="83.4" r="3" fill="#4aa3ff"/><circle cx="218.4" cy="85.6" r="3" fill="#4aa3ff"/><circle cx="221.9" cy="85.6" r="3" fill="#4aa3ff"/><circle cx="225.5" cy="85.6" r="3" fill="#4aa3ff"/><circle cx="229.0" cy="85.6" r="3" fill="#4aa3ff"/><circle cx="232.5" cy="85.6" r="3" fill="#4aa3ff"/><circle cx="236.0" cy="85.8" r="3" fill="#4aa3ff"/><circle cx="239.5" cy="85.8" r="3" fill="#4aa3ff"/><circle cx="243.0" cy="85.8" r="3" fill="#4aa3ff"/><circle cx="246.5" cy="86.0" r="3" fill="#4aa3ff"/><circle cx="250.0" cy="86.0" r="3" fill="#4aa3ff"/><circle cx="253.5" cy="86.0" r="3" fill="#4aa3ff"/><circle cx="257.0" cy="86.0" r="3" fill="#4aa3ff"/><circle cx="260.5" cy="86.0" r="3" fill="#4aa3ff"/><circle cx="264.0" cy="86.0" r="3" fill="#4aa3ff"/><circle cx="267.6" cy="86.0" r="3" fill="#4aa3ff"/><circle cx="271.1" cy="86.0" r="3" fill="#4aa3ff"/><circle cx="274.6" cy="86.0" r="3" fill="#4aa3ff"/><circle cx="278.1" cy="86.0" r="3" fill="#4aa3ff"/><circle cx="281.6" cy="86.0" r="3" fill="#4aa3ff"/><circle cx="285.1" cy="86.0" r="3" fill="#4aa3ff"/><circle cx="288.6" cy="86.0" r="3" fill="#4aa3ff"/><circle cx="292.1" cy="86.0" r="3" fill="#4aa3ff"/><circle cx="295.6" cy="86.0" r="3" fill="#4aa3ff"/><circle cx="299.1" cy="86.0" r="3" fill="#4aa3ff"/><circle cx="302.6" cy="86.0" r="3" fill="#4aa3ff"/><circle cx="306.1" cy="86.0" r="3" fill="#4aa3ff"/><circle cx="309.7" cy="86.0" r="3" fill="#4aa3ff"/><circle cx="313.2" cy="86.0" r="3" fill="#4aa3ff"/><circle cx="316.7" cy="86.0" r="3" fill="#4aa3ff"/><circle cx="320.2" cy="87.0" r="3" fill="#4aa3ff"/><circle cx="323.7" cy="87.0" r="3" fill="#4aa3ff"/><circle cx="327.2" cy="87.0" r="3" fill="#4aa3ff"/><circle cx="330.7" cy="73.7" r="3" fill="#4aa3ff"/><circle cx="334.2" cy="73.7" r="3" fill="#4aa3ff"/><circle cx="337.7" cy="71.0" r="3" fill="#4aa3ff"/><circle cx="341.2" cy="71.0" r="3" fill="#4aa3ff"/><circle cx="344.7" cy="70.8" r="3" fill="#4aa3ff"/><circle cx="348.2" cy="70.6" r="3" fill="#4aa3ff"/><circle cx="351.8" cy="70.6" r="3" fill="#4aa3ff"/><circle cx="355.3" cy="70.4" r="3" fill="#4aa3ff"/><circle cx="358.8" cy="68.6" r="3" fill="#4aa3ff"/><circle cx="362.3" cy="60.5" r="3" fill="#4aa3ff"/><circle cx="365.8" cy="59.3" r="3" fill="#4aa3ff"/><circle cx="369.3" cy="52.0" r="3" fill="#4aa3ff"/><circle cx="372.8" cy="47.3" r="3" fill="#4aa3ff"/><circle cx="376.3" cy="40.1" r="3" fill="#4aa3ff"/><circle cx="379.8" cy="36.0" r="3" fill="#4aa3ff"/><circle cx="383.3" cy="36.0" r="3" fill="#4aa3ff"/><circle cx="386.8" cy="36.0" r="3" fill="#4aa3ff"/><circle cx="390.3" cy="36.0" r="3" fill="#4aa3ff"/><circle cx="393.9" cy="36.0" r="3" fill="#4aa3ff"/><circle cx="397.4" cy="36.0" r="3" fill="#4aa3ff"/><circle cx="400.9" cy="36.0" r="3" fill="#4aa3ff"/><circle cx="404.4" cy="36.0" r="3" fill="#4aa3ff"/><circle cx="407.9" cy="36.0" r="3" fill="#4aa3ff"/><circle cx="411.4" cy="36.0" r="3" fill="#4aa3ff"/><circle cx="414.9" cy="36.0" r="3" fill="#4aa3ff"/><circle cx="418.4" cy="36.0" r="3" fill="#4aa3ff"/><circle cx="421.9" cy="36.0" r="3" fill="#4aa3ff"/><circle cx="425.4" cy="36.0" r="3" fill="#4aa3ff"/><circle cx="428.9" cy="36.0" r="3" fill="#4aa3ff"/><circle cx="432.4" cy="36.0" r="3" fill="#4aa3ff"/><circle cx="436.0" cy="36.0" r="3" fill="#4aa3ff"/><circle cx="439.5" cy="36.0" r="3" fill="#4aa3ff"/><circle cx="443.0" cy="36.0" r="3" fill="#4aa3ff"/><circle cx="446.5" cy="36.0" r="3" fill="#4aa3ff"/><circle cx="450.0" cy="36.0" r="3" fill="#4aa3ff"/><circle cx="453.5" cy="36.0" r="3" fill="#4aa3ff"/><circle cx="457.0" cy="36.0" r="3" fill="#4aa3ff"/><circle cx="460.5" cy="36.0" r="3" fill="#4aa3ff"/><circle cx="464.0" cy="36.0" r="3" fill="#4aa3ff"/><circle cx="467.5" cy="36.0" r="3" fill="#4aa3ff"/><circle cx="471.0" cy="36.0" r="3" fill="#4aa3ff"/><circle cx="474.5" cy="36.0" r="3" fill="#4aa3ff"/><circle cx="478.1" cy="36.0" r="3" fill="#4aa3ff"/><circle cx="481.6" cy="36.0" r="3" fill="#4aa3ff"/><circle cx="485.1" cy="36.0" r="3" fill="#4aa3ff"/><circle cx="488.6" cy="36.0" r="3" fill="#4aa3ff"/><circle cx="492.1" cy="36.0" r="3" fill="#4aa3ff"/><circle cx="495.6" cy="36.0" r="3" fill="#4aa3ff"/><circle cx="499.1" cy="36.0" r="3" fill="#4aa3ff"/><circle cx="502.6" cy="36.0" r="3" fill="#4aa3ff"/><circle cx="506.1" cy="36.0" r="3" fill="#4aa3ff"/><circle cx="509.6" cy="36.0" r="3" fill="#4aa3ff"/><circle cx="513.1" cy="36.0" r="3" fill="#4aa3ff"/><circle cx="516.6" cy="36.0" r="3" fill="#4aa3ff"/><circle cx="520.2" cy="36.0" r="3" fill="#4aa3ff"/><circle cx="523.7" cy="36.0" r="3" fill="#4aa3ff"/><circle cx="527.2" cy="36.0" r="3" fill="#4aa3ff"/><circle cx="530.7" cy="36.0" r="3" fill="#4aa3ff"/><circle cx="534.2" cy="36.0" r="3" fill="#4aa3ff"/><circle cx="537.7" cy="36.0" r="3" fill="#4aa3ff"/><circle cx="541.2" cy="36.0" r="3" fill="#4aa3ff"/><circle cx="544.7" cy="36.0" r="3" fill="#4aa3ff"/><circle cx="548.2" cy="36.0" r="3" fill="#4aa3ff"/><circle cx="551.7" cy="36.0" r="3" fill="#4aa3ff"/><circle cx="555.2" cy="36.0" r="3" fill="#4aa3ff"/><circle cx="558.7" cy="36.0" r="3" fill="#4aa3ff"/><circle cx="562.3" cy="36.0" r="3" fill="#4aa3ff"/><circle cx="565.8" cy="36.0" r="3" fill="#4aa3ff"/><circle cx="569.3" cy="36.0" r="3" fill="#4aa3ff"/><circle cx="572.8" cy="36.0" r="3" fill="#4aa3ff"/><circle cx="576.3" cy="36.0" r="3" fill="#4aa3ff"/><circle cx="579.8" cy="36.0" r="3" fill="#4aa3ff"/><circle cx="583.3" cy="36.0" r="3" fill="#4aa3ff"/><circle cx="586.8" cy="36.0" r="3" fill="#4aa3ff"/><circle cx="590.3" cy="36.0" r="3" fill="#4aa3ff"/><circle cx="593.8" cy="36.0" r="3" fill="#4aa3ff"/><circle cx="597.3" cy="36.0" r="3" fill="#4aa3ff"/><circle cx="600.8" cy="36.0" r="3" fill="#4aa3ff"/><circle cx="604.4" cy="36.0" r="3" fill="#4aa3ff"/><circle cx="607.9" cy="36.0" r="3" fill="#4aa3ff"/><circle cx="611.4" cy="36.0" r="3" fill="#4aa3ff"/><circle cx="614.9" cy="36.0" r="3" fill="#4aa3ff"/><circle cx="618.4" cy="36.0" r="3" fill="#4aa3ff"/><circle cx="621.9" cy="36.0" r="3" fill="#4aa3ff"/><circle cx="625.4" cy="36.0" r="3" fill="#4aa3ff"/><circle cx="628.9" cy="36.0" r="3" fill="#4aa3ff"/><circle cx="632.4" cy="36.0" r="3" fill="#4aa3ff"/><circle cx="635.9" cy="36.0" r="3" fill="#4aa3ff"/><circle cx="639.4" cy="36.0" r="3" fill="#4aa3ff"/><circle cx="642.9" cy="36.0" r="3" fill="#4aa3ff"/><circle cx="646.5" cy="36.0" r="3" fill="#4aa3ff"/><circle cx="650.0" cy="36.0" r="3" fill="#4aa3ff"/><circle cx="653.5" cy="36.0" r="3" fill="#4aa3ff"/><circle cx="657.0" cy="36.0" r="3" fill="#4aa3ff"/><circle cx="660.5" cy="36.0" r="3" fill="#4aa3ff"/><circle cx="664.0" cy="36.0" r="3" fill="#4aa3ff"/>
<text x="36" y="225" fill="#6b7280" font-size="11">2026-06-26</text>
<text x="664" y="225" fill="#6b7280" font-size="11" text-anchor="end">2026-07-15</text>
<text x="36" y="212" font-family="system-ui,sans-serif" font-size="11">
<tspan fill="#4aa3ff">&#9679; open FPs</tspan>  <tspan fill="#3fb950">&#9679; closed (Anthropic acting)</tspan>  <tspan fill="#8a5a5a">&#9679; harness withdrawn</tspan></text>
<text x="664" y="22" text-anchor="end" font-family="system-ui,sans-serif" font-size="12">
<tspan fill="#4aa3ff">open 800</tspan>  <tspan fill="#3fb950">closed 0</tspan>  <tspan fill="#8a5a5a">harness 0</tspan></text>
</svg>