<svg xmlns="http://www.w3.org/2000/svg" width="700" height="234" viewBox="0 0 700 234" role="img">
<rect width="700" height="234" rx="12" fill="#16181d"/>
<text x="36" y="22" fill="#e8eaed" font-family="system-ui,sans-serif" font-size="14" font-weight="700">Is Anthropic acting? cyber/aup false positives over time</text>
<line x1="36" y1="198.0" x2="664" y2="198.0" stroke="#2a2e37" stroke-width="1"/><text x="30" y="202.0" fill="#6b7280" font-size="11" text-anchor="end">0</text><line x1="36" y1="117.0" x2="664" y2="117.0" stroke="#2a2e37" stroke-width="1"/><text x="30" y="121.0" fill="#6b7280" font-size="11" text-anchor="end">400</text><line x1="36" y1="36.0" x2="664" y2="36.0" stroke="#2a2e37" stroke-width="1"/><text x="30" y="40.0" fill="#6b7280" font-size="11" text-anchor="end">800</text>

<polyline fill="none" stroke="#8a5a5a" stroke-width="2.5" stroke-linejoin="round" points="36.0,145.1 38.6,145.1 41.3,145.1 43.9,145.1 46.5,145.1 49.1,145.1 51.8,145.1 54.4,145.1 57.0,145.1 59.6,145.1 62.3,145.1 64.9,145.1 67.5,145.1 70.2,145.1 72.8,145.1 75.4,145.1 78.0,145.1 80.7,145.1 83.3,145.1 85.9,145.1 88.6,145.1 91.2,145.1 93.8,145.1 96.4,145.1 99.1,145.1 101.7,145.1 104.3,145.1 106.9,145.1 109.6,145.1 112.2,145.1 114.8,145.1 117.5,145.1 120.1,145.1 122.7,145.1 125.3,145.1 128.0,145.1 130.6,145.1 133.2,145.1 135.8,145.1 138.5,145.1 141.1,145.1 143.7,145.1 146.4,145.1 149.0,145.1 151.6,145.1 154.2,145.1 156.9,145.1 159.5,145.1 162.1,145.1 164.8,145.1 167.4,155.7 170.0,155.7 172.6,155.7 175.3,155.7 177.9,155.7 180.5,155.7 183.1,155.7 185.8,155.7 188.4,155.7 191.0,155.7 193.7,155.7 196.3,155.7 198.9,155.7 201.5,155.7 204.2,155.7 206.8,155.7 209.4,155.7 212.1,155.7 214.7,155.7 217.3,155.7 219.9,155.7 222.6,155.7 225.2,155.7 227.8,155.7 230.4,155.7 233.1,155.7 235.7,155.7 238.3,155.7 241.0,155.7 243.6,155.7 246.2,155.7 248.8,155.7 251.5,155.7 254.1,155.7 256.7,167.6 259.3,167.6 262.0,170.3 264.6,170.3 267.2,170.5 269.9,170.7 272.5,170.7 275.1,170.9 277.7,172.7 280.4,180.6 283.0,181.8 285.6,189.1 288.3,190.5 290.9,195.2 293.5,198.0 296.1,198.0 298.8,198.0 301.4,198.0 304.0,198.0 306.6,198.0 309.3,198.0 311.9,198.0 314.5,198.0 317.2,198.0 319.8,198.0 322.4,198.0 325.0,198.0 327.7,198.0 330.3,198.0 332.9,198.0 335.5,198.0 338.2,198.0 340.8,198.0 343.4,198.0 346.1,198.0 348.7,198.0 351.3,198.0 353.9,198.0 356.6,198.0 359.2,198.0 361.8,198.0 364.5,198.0 367.1,198.0 369.7,198.0 372.3,198.0 375.0,198.0 377.6,198.0 380.2,198.0 382.8,198.0 385.5,198.0 388.1,198.0 390.7,198.0 393.4,198.0 396.0,198.0 398.6,198.0 401.2,198.0 403.9,198.0 406.5,198.0 409.1,198.0 411.7,198.0 414.4,198.0 417.0,198.0 419.6,198.0 422.3,198.0 424.9,198.0 427.5,198.0 430.1,198.0 432.8,198.0 435.4,198.0 438.0,198.0 440.7,198.0 443.3,198.0 445.9,198.0 448.5,198.0 451.2,198.0 453.8,198.0 456.4,198.0 459.0,198.0 461.7,198.0 464.3,198.0 466.9,198.0 469.6,198.0 472.2,198.0 474.8,198.0 477.4,198.0 480.1,198.0 482.7,198.0 485.3,198.0 487.9,198.0 490.6,198.0 493.2,198.0 495.8,198.0 498.5,198.0 501.1,198.0 503.7,198.0 506.3,198.0 509.0,198.0 511.6,198.0 514.2,198.0 516.9,198.0 519.5,198.0 522.1,198.0 524.7,198.0 527.4,198.0 530.0,198.0 532.6,198.0 535.2,198.0 537.9,198.0 540.5,198.0 543.1,198.0 545.8,198.0 548.4,198.0 551.0,198.0 553.6,198.0 556.3,198.0 558.9,198.0 561.5,198.0 564.2,198.0 566.8,198.0 569.4,198.0 572.0,198.0 574.7,198.0 577.3,198.0 579.9,198.0 582.5,198.0 585.2,198.0 587.8,198.0 590.4,198.0 593.1,198.0 595.7,198.0 598.3,198.0 600.9,198.0 603.6,198.0 606.2,198.0 608.8,198.0 611.4,198.0 614.1,198.0 616.7,198.0 619.3,198.0 622.0,198.0 624.6,198.0 627.2,198.0 629.8,198.0 632.5,198.0 635.1,198.0 637.7,198.0 640.4,198.0 643.0,198.0 645.6,198.0 648.2,198.0 650.9,198.0 653.5,198.0 656.1,198.0 658.7,198.0 661.4,198.0 664.0,198.0"/><circle cx="36.0" cy="145.1" r="3" fill="#8a5a5a"/><circle cx="38.6" cy="145.1" r="3" fill="#8a5a5a"/><circle cx="41.3" cy="145.1" r="3" fill="#8a5a5a"/><circle cx="43.9" cy="145.1" r="3" fill="#8a5a5a"/><circle cx="46.5" cy="145.1" r="3" fill="#8a5a5a"/><circle cx="49.1" cy="145.1" r="3" fill="#8a5a5a"/><circle cx="51.8" cy="145.1" r="3" fill="#8a5a5a"/><circle cx="54.4" cy="145.1" r="3" fill="#8a5a5a"/><circle cx="57.0" cy="145.1" r="3" fill="#8a5a5a"/><circle cx="59.6" cy="145.1" r="3" fill="#8a5a5a"/><circle cx="62.3" cy="145.1" r="3" fill="#8a5a5a"/><circle cx="64.9" cy="145.1" r="3" fill="#8a5a5a"/><circle cx="67.5" cy="145.1" r="3" fill="#8a5a5a"/><circle cx="70.2" cy="145.1" r="3" fill="#8a5a5a"/><circle cx="72.8" cy="145.1" r="3" fill="#8a5a5a"/><circle cx="75.4" cy="145.1" r="3" fill="#8a5a5a"/><circle cx="78.0" cy="145.1" r="3" fill="#8a5a5a"/><circle cx="80.7" cy="145.1" r="3" fill="#8a5a5a"/><circle cx="83.3" cy="145.1" r="3" fill="#8a5a5a"/><circle cx="85.9" cy="145.1" r="3" fill="#8a5a5a"/><circle cx="88.6" cy="145.1" r="3" fill="#8a5a5a"/><circle cx="91.2" cy="145.1" r="3" fill="#8a5a5a"/><circle cx="93.8" cy="145.1" r="3" fill="#8a5a5a"/><circle cx="96.4" cy="145.1" r="3" fill="#8a5a5a"/><circle cx="99.1" cy="145.1" r="3" fill="#8a5a5a"/><circle cx="101.7" cy="145.1" r="3" fill="#8a5a5a"/><circle cx="104.3" cy="145.1" r="3" fill="#8a5a5a"/><circle cx="106.9" cy="145.1" r="3" fill="#8a5a5a"/><circle cx="109.6" cy="145.1" r="3" fill="#8a5a5a"/><circle cx="112.2" cy="145.1" r="3" fill="#8a5a5a"/><circle cx="114.8" cy="145.1" r="3" fill="#8a5a5a"/><circle cx="117.5" cy="145.1" r="3" fill="#8a5a5a"/><circle cx="120.1" cy="145.1" r="3" fill="#8a5a5a"/><circle cx="122.7" cy="145.1" r="3" fill="#8a5a5a"/><circle cx="125.3" cy="145.1" r="3" fill="#8a5a5a"/><circle cx="128.0" cy="145.1" r="3" fill="#8a5a5a"/><circle cx="130.6" cy="145.1" r="3" fill="#8a5a5a"/><circle cx="133.2" cy="145.1" r="3" fill="#8a5a5a"/><circle cx="135.8" cy="145.1" r="3" fill="#8a5a5a"/><circle cx="138.5" cy="145.1" r="3" fill="#8a5a5a"/><circle cx="141.1" cy="145.1" r="3" fill="#8a5a5a"/><circle cx="143.7" cy="145.1" r="3" fill="#8a5a5a"/><circle cx="146.4" cy="145.1" r="3" fill="#8a5a5a"/><circle cx="149.0" cy="145.1" r="3" fill="#8a5a5a"/><circle cx="151.6" cy="145.1" r="3" fill="#8a5a5a"/><circle cx="154.2" cy="145.1" r="3" fill="#8a5a5a"/><circle cx="156.9" cy="145.1" r="3" fill="#8a5a5a"/><circle cx="159.5" cy="145.1" r="3" fill="#8a5a5a"/><circle cx="162.1" cy="145.1" r="3" fill="#8a5a5a"/><circle cx="164.8" cy="145.1" r="3" fill="#8a5a5a"/><circle cx="167.4" cy="155.7" r="3" fill="#8a5a5a"/><circle cx="170.0" cy="155.7" r="3" fill="#8a5a5a"/><circle cx="172.6" cy="155.7" r="3" fill="#8a5a5a"/><circle cx="175.3" cy="155.7" r="3" fill="#8a5a5a"/><circle cx="177.9" cy="155.7" r="3" fill="#8a5a5a"/><circle cx="180.5" cy="155.7" r="3" fill="#8a5a5a"/><circle cx="183.1" cy="155.7" r="3" fill="#8a5a5a"/><circle cx="185.8" cy="155.7" r="3" fill="#8a5a5a"/><circle cx="188.4" cy="155.7" r="3" fill="#8a5a5a"/><circle cx="191.0" cy="155.7" r="3" fill="#8a5a5a"/><circle cx="193.7" cy="155.7" r="3" fill="#8a5a5a"/><circle cx="196.3" cy="155.7" r="3" fill="#8a5a5a"/><circle cx="198.9" cy="155.7" r="3" fill="#8a5a5a"/><circle cx="201.5" cy="155.7" r="3" fill="#8a5a5a"/><circle cx="204.2" cy="155.7" r="3" fill="#8a5a5a"/><circle cx="206.8" cy="155.7" r="3" fill="#8a5a5a"/><circle cx="209.4" cy="155.7" r="3" fill="#8a5a5a"/><circle cx="212.1" cy="155.7" r="3" fill="#8a5a5a"/><circle cx="214.7" cy="155.7" r="3" fill="#8a5a5a"/><circle cx="217.3" cy="155.7" r="3" fill="#8a5a5a"/><circle cx="219.9" cy="155.7" r="3" fill="#8a5a5a"/><circle cx="222.6" cy="155.7" r="3" fill="#8a5a5a"/><circle cx="225.2" cy="155.7" r="3" fill="#8a5a5a"/><circle cx="227.8" cy="155.7" r="3" fill="#8a5a5a"/><circle cx="230.4" cy="155.7" r="3" fill="#8a5a5a"/><circle cx="233.1" cy="155.7" r="3" fill="#8a5a5a"/><circle cx="235.7" cy="155.7" r="3" fill="#8a5a5a"/><circle cx="238.3" cy="155.7" r="3" fill="#8a5a5a"/><circle cx="241.0" cy="155.7" r="3" fill="#8a5a5a"/><circle cx="243.6" cy="155.7" r="3" fill="#8a5a5a"/><circle cx="246.2" cy="155.7" r="3" fill="#8a5a5a"/><circle cx="248.8" cy="155.7" r="3" fill="#8a5a5a"/><circle cx="251.5" cy="155.7" r="3" fill="#8a5a5a"/><circle cx="254.1" cy="155.7" r="3" fill="#8a5a5a"/><circle cx="256.7" cy="167.6" r="3" fill="#8a5a5a"/><circle cx="259.3" cy="167.6" r="3" fill="#8a5a5a"/><circle cx="262.0" cy="170.3" r="3" fill="#8a5a5a"/><circle cx="264.6" cy="170.3" r="3" fill="#8a5a5a"/><circle cx="267.2" cy="170.5" r="3" fill="#8a5a5a"/><circle cx="269.9" cy="170.7" r="3" fill="#8a5a5a"/><circle cx="272.5" cy="170.7" r="3" fill="#8a5a5a"/><circle cx="275.1" cy="170.9" r="3" fill="#8a5a5a"/><circle cx="277.7" cy="172.7" r="3" fill="#8a5a5a"/><circle cx="280.4" cy="180.6" r="3" fill="#8a5a5a"/><circle cx="283.0" cy="181.8" r="3" fill="#8a5a5a"/><circle cx="285.6" cy="189.1" r="3" fill="#8a5a5a"/><circle cx="288.3" cy="190.5" r="3" fill="#8a5a5a"/><circle cx="290.9" cy="195.2" r="3" fill="#8a5a5a"/><circle cx="293.5" cy="198.0" r="3" fill="#8a5a5a"/><circle cx="296.1" cy="198.0" r="3" fill="#8a5a5a"/><circle cx="298.8" cy="198.0" r="3" fill="#8a5a5a"/><circle cx="301.4" cy="198.0" r="3" fill="#8a5a5a"/><circle cx="304.0" cy="198.0" r="3" fill="#8a5a5a"/><circle cx="306.6" cy="198.0" r="3" fill="#8a5a5a"/><circle cx="309.3" cy="198.0" r="3" fill="#8a5a5a"/><circle cx="311.9" cy="198.0" r="3" fill="#8a5a5a"/><circle cx="314.5" cy="198.0" r="3" fill="#8a5a5a"/><circle cx="317.2" cy="198.0" r="3" fill="#8a5a5a"/><circle cx="319.8" cy="198.0" r="3" fill="#8a5a5a"/><circle cx="322.4" cy="198.0" r="3" fill="#8a5a5a"/><circle cx="325.0" cy="198.0" r="3" fill="#8a5a5a"/><circle cx="327.7" cy="198.0" r="3" fill="#8a5a5a"/><circle cx="330.3" cy="198.0" r="3" fill="#8a5a5a"/><circle cx="332.9" cy="198.0" r="3" fill="#8a5a5a"/><circle cx="335.5" cy="198.0" r="3" fill="#8a5a5a"/><circle cx="338.2" cy="198.0" r="3" fill="#8a5a5a"/><circle cx="340.8" cy="198.0" r="3" fill="#8a5a5a"/><circle cx="343.4" cy="198.0" r="3" fill="#8a5a5a"/><circle cx="346.1" cy="198.0" r="3" fill="#8a5a5a"/><circle cx="348.7" cy="198.0" r="3" fill="#8a5a5a"/><circle cx="351.3" cy="198.0" r="3" fill="#8a5a5a"/><circle cx="353.9" cy="198.0" r="3" fill="#8a5a5a"/><circle cx="356.6" cy="198.0" r="3" fill="#8a5a5a"/><circle cx="359.2" cy="198.0" r="3" fill="#8a5a5a"/><circle cx="361.8" cy="198.0" r="3" fill="#8a5a5a"/><circle cx="364.5" cy="198.0" r="3" fill="#8a5a5a"/><circle cx="367.1" cy="198.0" r="3" fill="#8a5a5a"/><circle cx="369.7" cy="198.0" r="3" fill="#8a5a5a"/><circle cx="372.3" cy="198.0" r="3" fill="#8a5a5a"/><circle cx="375.0" cy="198.0" r="3" fill="#8a5a5a"/><circle cx="377.6" cy="198.0" r="3" fill="#8a5a5a"/><circle cx="380.2" cy="198.0" r="3" fill="#8a5a5a"/><circle cx="382.8" cy="198.0" r="3" fill="#8a5a5a"/><circle cx="385.5" cy="198.0" r="3" fill="#8a5a5a"/><circle cx="388.1" cy="198.0" r="3" fill="#8a5a5a"/><circle cx="390.7" cy="198.0" r="3" fill="#8a5a5a"/><circle cx="393.4" cy="198.0" r="3" fill="#8a5a5a"/><circle cx="396.0" cy="198.0" r="3" fill="#8a5a5a"/><circle cx="398.6" cy="198.0" r="3" fill="#8a5a5a"/><circle cx="401.2" cy="198.0" r="3" fill="#8a5a5a"/><circle cx="403.9" cy="198.0" r="3" fill="#8a5a5a"/><circle cx="406.5" cy="198.0" r="3" fill="#8a5a5a"/><circle cx="409.1" cy="198.0" r="3" fill="#8a5a5a"/><circle cx="411.7" cy="198.0" r="3" fill="#8a5a5a"/><circle cx="414.4" cy="198.0" r="3" fill="#8a5a5a"/><circle cx="417.0" cy="198.0" r="3" fill="#8a5a5a"/><circle cx="419.6" cy="198.0" r="3" fill="#8a5a5a"/><circle cx="422.3" cy="198.0" r="3" fill="#8a5a5a"/><circle cx="424.9" cy="198.0" r="3" fill="#8a5a5a"/><circle cx="427.5" cy="198.0" r="3" fill="#8a5a5a"/><circle cx="430.1" cy="198.0" r="3" fill="#8a5a5a"/><circle cx="432.8" cy="198.0" r="3" fill="#8a5a5a"/><circle cx="435.4" cy="198.0" r="3" fill="#8a5a5a"/><circle cx="438.0" cy="198.0" r="3" fill="#8a5a5a"/><circle cx="440.7" cy="198.0" r="3" fill="#8a5a5a"/><circle cx="443.3" cy="198.0" r="3" fill="#8a5a5a"/><circle cx="445.9" cy="198.0" r="3" fill="#8a5a5a"/><circle cx="448.5" cy="198.0" r="3" fill="#8a5a5a"/><circle cx="451.2" cy="198.0" r="3" fill="#8a5a5a"/><circle cx="453.8" cy="198.0" r="3" fill="#8a5a5a"/><circle cx="456.4" cy="198.0" r="3" fill="#8a5a5a"/><circle cx="459.0" cy="198.0" r="3" fill="#8a5a5a"/><circle cx="461.7" cy="198.0" r="3" fill="#8a5a5a"/><circle cx="464.3" cy="198.0" r="3" fill="#8a5a5a"/><circle cx="466.9" cy="198.0" r="3" fill="#8a5a5a"/><circle cx="469.6" cy="198.0" r="3" fill="#8a5a5a"/><circle cx="472.2" cy="198.0" r="3" fill="#8a5a5a"/><circle cx="474.8" cy="198.0" r="3" fill="#8a5a5a"/><circle cx="477.4" cy="198.0" r="3" fill="#8a5a5a"/><circle cx="480.1" cy="198.0" r="3" fill="#8a5a5a"/><circle cx="482.7" cy="198.0" r="3" fill="#8a5a5a"/><circle cx="485.3" cy="198.0" r="3" fill="#8a5a5a"/><circle cx="487.9" cy="198.0" r="3" fill="#8a5a5a"/><circle cx="490.6" cy="198.0" r="3" fill="#8a5a5a"/><circle cx="493.2" cy="198.0" r="3" fill="#8a5a5a"/><circle cx="495.8" cy="198.0" r="3" fill="#8a5a5a"/><circle cx="498.5" cy="198.0" r="3" fill="#8a5a5a"/><circle cx="501.1" cy="198.0" r="3" fill="#8a5a5a"/><circle cx="503.7" cy="198.0" r="3" fill="#8a5a5a"/><circle cx="506.3" cy="198.0" r="3" fill="#8a5a5a"/><circle cx="509.0" cy="198.0" r="3" fill="#8a5a5a"/><circle cx="511.6" cy="198.0" r="3" fill="#8a5a5a"/><circle cx="514.2" cy="198.0" r="3" fill="#8a5a5a"/><circle cx="516.9" cy="198.0" r="3" fill="#8a5a5a"/><circle cx="519.5" cy="198.0" r="3" fill="#8a5a5a"/><circle cx="522.1" cy="198.0" r="3" fill="#8a5a5a"/><circle cx="524.7" cy="198.0" r="3" fill="#8a5a5a"/><circle cx="527.4" cy="198.0" r="3" fill="#8a5a5a"/><circle cx="530.0" cy="198.0" r="3" fill="#8a5a5a"/><circle cx="532.6" cy="198.0" r="3" fill="#8a5a5a"/><circle cx="535.2" cy="198.0" r="3" fill="#8a5a5a"/><circle cx="537.9" cy="198.0" r="3" fill="#8a5a5a"/><circle cx="540.5" cy="198.0" r="3" fill="#8a5a5a"/><circle cx="543.1" cy="198.0" r="3" fill="#8a5a5a"/><circle cx="545.8" cy="198.0" r="3" fill="#8a5a5a"/><circle cx="548.4" cy="198.0" r="3" fill="#8a5a5a"/><circle cx="551.0" cy="198.0" r="3" fill="#8a5a5a"/><circle cx="553.6" cy="198.0" r="3" fill="#8a5a5a"/><circle cx="556.3" cy="198.0" r="3" fill="#8a5a5a"/><circle cx="558.9" cy="198.0" r="3" fill="#8a5a5a"/><circle cx="561.5" cy="198.0" r="3" fill="#8a5a5a"/><circle cx="564.2" cy="198.0" r="3" fill="#8a5a5a"/><circle cx="566.8" cy="198.0" r="3" fill="#8a5a5a"/><circle cx="569.4" cy="198.0" r="3" fill="#8a5a5a"/><circle cx="572.0" cy="198.0" r="3" fill="#8a5a5a"/><circle cx="574.7" cy="198.0" r="3" fill="#8a5a5a"/><circle cx="577.3" cy="198.0" r="3" fill="#8a5a5a"/><circle cx="579.9" cy="198.0" r="3" fill="#8a5a5a"/><circle cx="582.5" cy="198.0" r="3" fill="#8a5a5a"/><circle cx="585.2" cy="198.0" r="3" fill="#8a5a5a"/><circle cx="587.8" cy="198.0" r="3" fill="#8a5a5a"/><circle cx="590.4" cy="198.0" r="3" fill="#8a5a5a"/><circle cx="593.1" cy="198.0" r="3" fill="#8a5a5a"/><circle cx="595.7" cy="198.0" r="3" fill="#8a5a5a"/><circle cx="598.3" cy="198.0" r="3" fill="#8a5a5a"/><circle cx="600.9" cy="198.0" r="3" fill="#8a5a5a"/><circle cx="603.6" cy="198.0" r="3" fill="#8a5a5a"/><circle cx="606.2" cy="198.0" r="3" fill="#8a5a5a"/><circle cx="608.8" cy="198.0" r="3" fill="#8a5a5a"/><circle cx="611.4" cy="198.0" r="3" fill="#8a5a5a"/><circle cx="614.1" cy="198.0" r="3" fill="#8a5a5a"/><circle cx="616.7" cy="198.0" r="3" fill="#8a5a5a"/><circle cx="619.3" cy="198.0" r="3" fill="#8a5a5a"/><circle cx="622.0" cy="198.0" r="3" fill="#8a5a5a"/><circle cx="624.6" cy="198.0" r="3" fill="#8a5a5a"/><circle cx="627.2" cy="198.0" r="3" fill="#8a5a5a"/><circle cx="629.8" cy="198.0" r="3" fill="#8a5a5a"/><circle cx="632.5" cy="198.0" r="3" fill="#8a5a5a"/><circle cx="635.1" cy="198.0" r="3" fill="#8a5a5a"/><circle cx="637.7" cy="198.0" r="3" fill="#8a5a5a"/><circle cx="640.4" cy="198.0" r="3" fill="#8a5a5a"/><circle cx="643.0" cy="198.0" r="3" fill="#8a5a5a"/><circle cx="645.6" cy="198.0" r="3" fill="#8a5a5a"/><circle cx="648.2" cy="198.0" r="3" fill="#8a5a5a"/><circle cx="650.9" cy="198.0" r="3" fill="#8a5a5a"/><circle cx="653.5" cy="198.0" r="3" fill="#8a5a5a"/><circle cx="656.1" cy="198.0" r="3" fill="#8a5a5a"/><circle cx="658.7" cy="198.0" r="3" fill="#8a5a5a"/><circle cx="661.4" cy="198.0" r="3" fill="#8a5a5a"/><circle cx="664.0" cy="198.0" r="3" fill="#8a5a5a"/>
<polyline fill="none" stroke="#3fb950" stroke-width="2.5" stroke-linejoin="round" points="36.0,198.0 38.6,198.0 41.3,198.0 43.9,198.0 46.5,198.0 49.1,198.0 51.8,198.0 54.4,198.0 57.0,198.0 59.6,198.0 62.3,198.0 64.9,198.0 67.5,198.0 70.2,198.0 72.8,198.0 75.4,198.0 78.0,198.0 80.7,198.0 83.3,198.0 85.9,198.0 88.6,198.0 91.2,198.0 93.8,198.0 96.4,198.0 99.1,198.0 101.7,198.0 104.3,198.0 106.9,198.0 109.6,198.0 112.2,198.0 114.8,198.0 117.5,198.0 120.1,198.0 122.7,198.0 125.3,198.0 128.0,198.0 130.6,198.0 133.2,198.0 135.8,198.0 138.5,198.0 141.1,198.0 143.7,198.0 146.4,198.0 149.0,191.7 151.6,191.7 154.2,191.7 156.9,191.7 159.5,191.7 162.1,191.7 164.8,191.7 167.4,192.9 170.0,192.9 172.6,190.7 175.3,190.7 177.9,190.7 180.5,190.7 183.1,190.7 185.8,190.5 188.4,190.5 191.0,190.5 193.7,190.3 196.3,190.3 198.9,190.3 201.5,190.3 204.2,190.3 206.8,190.3 209.4,190.3 212.1,190.3 214.7,190.3 217.3,190.3 219.9,190.3 222.6,190.3 225.2,190.3 227.8,190.3 230.4,190.3 233.1,190.3 235.7,190.3 238.3,190.3 241.0,190.3 243.6,190.3 246.2,190.3 248.8,189.3 251.5,189.3 254.1,189.3 256.7,190.7 259.3,190.7 262.0,190.7 264.6,190.7 267.2,190.7 269.9,190.7 272.5,190.7 275.1,190.7 277.7,190.7 280.4,190.9 283.0,190.9 285.6,190.9 288.3,194.2 290.9,196.8 293.5,198.0 296.1,198.0 298.8,198.0 301.4,198.0 304.0,198.0 306.6,198.0 309.3,198.0 311.9,198.0 314.5,198.0 317.2,198.0 319.8,198.0 322.4,198.0 325.0,198.0 327.7,198.0 330.3,198.0 332.9,198.0 335.5,198.0 338.2,198.0 340.8,198.0 343.4,198.0 346.1,198.0 348.7,198.0 351.3,198.0 353.9,198.0 356.6,198.0 359.2,198.0 361.8,198.0 364.5,198.0 367.1,198.0 369.7,198.0 372.3,198.0 375.0,198.0 377.6,198.0 380.2,198.0 382.8,198.0 385.5,198.0 388.1,198.0 390.7,198.0 393.4,198.0 396.0,198.0 398.6,198.0 401.2,198.0 403.9,198.0 406.5,198.0 409.1,198.0 411.7,198.0 414.4,198.0 417.0,198.0 419.6,198.0 422.3,198.0 424.9,198.0 427.5,198.0 430.1,198.0 432.8,198.0 435.4,198.0 438.0,198.0 440.7,198.0 443.3,198.0 445.9,198.0 448.5,198.0 451.2,198.0 453.8,198.0 456.4,198.0 459.0,198.0 461.7,198.0 464.3,198.0 466.9,198.0 469.6,198.0 472.2,198.0 474.8,198.0 477.4,198.0 480.1,198.0 482.7,198.0 485.3,198.0 487.9,198.0 490.6,198.0 493.2,198.0 495.8,198.0 498.5,198.0 501.1,198.0 503.7,198.0 506.3,198.0 509.0,198.0 511.6,198.0 514.2,198.0 516.9,198.0 519.5,198.0 522.1,198.0 524.7,198.0 527.4,198.0 530.0,198.0 532.6,198.0 535.2,198.0 537.9,198.0 540.5,198.0 543.1,198.0 545.8,198.0 548.4,198.0 551.0,198.0 553.6,198.0 556.3,198.0 558.9,198.0 561.5,198.0 564.2,198.0 566.8,198.0 569.4,198.0 572.0,198.0 574.7,198.0 577.3,198.0 579.9,198.0 582.5,198.0 585.2,198.0 587.8,198.0 590.4,198.0 593.1,198.0 595.7,198.0 598.3,198.0 600.9,198.0 603.6,198.0 606.2,198.0 608.8,198.0 611.4,198.0 614.1,198.0 616.7,198.0 619.3,198.0 622.0,198.0 624.6,198.0 627.2,198.0 629.8,198.0 632.5,198.0 635.1,198.0 637.7,198.0 640.4,198.0 643.0,198.0 645.6,198.0 648.2,198.0 650.9,198.0 653.5,198.0 656.1,198.0 658.7,198.0 661.4,198.0 664.0,198.0"/><circle cx="36.0" cy="198.0" r="3" fill="#3fb950"/><circle cx="38.6" cy="198.0" r="3" fill="#3fb950"/><circle cx="41.3" cy="198.0" r="3" fill="#3fb950"/><circle cx="43.9" cy="198.0" r="3" fill="#3fb950"/><circle cx="46.5" cy="198.0" r="3" fill="#3fb950"/><circle cx="49.1" cy="198.0" r="3" fill="#3fb950"/><circle cx="51.8" cy="198.0" r="3" fill="#3fb950"/><circle cx="54.4" cy="198.0" r="3" fill="#3fb950"/><circle cx="57.0" cy="198.0" r="3" fill="#3fb950"/><circle cx="59.6" cy="198.0" r="3" fill="#3fb950"/><circle cx="62.3" cy="198.0" r="3" fill="#3fb950"/><circle cx="64.9" cy="198.0" r="3" fill="#3fb950"/><circle cx="67.5" cy="198.0" r="3" fill="#3fb950"/><circle cx="70.2" cy="198.0" r="3" fill="#3fb950"/><circle cx="72.8" cy="198.0" r="3" fill="#3fb950"/><circle cx="75.4" cy="198.0" r="3" fill="#3fb950"/><circle cx="78.0" cy="198.0" r="3" fill="#3fb950"/><circle cx="80.7" cy="198.0" r="3" fill="#3fb950"/><circle cx="83.3" cy="198.0" r="3" fill="#3fb950"/><circle cx="85.9" cy="198.0" r="3" fill="#3fb950"/><circle cx="88.6" cy="198.0" r="3" fill="#3fb950"/><circle cx="91.2" cy="198.0" r="3" fill="#3fb950"/><circle cx="93.8" cy="198.0" r="3" fill="#3fb950"/><circle cx="96.4" cy="198.0" r="3" fill="#3fb950"/><circle cx="99.1" cy="198.0" r="3" fill="#3fb950"/><circle cx="101.7" cy="198.0" r="3" fill="#3fb950"/><circle cx="104.3" cy="198.0" r="3" fill="#3fb950"/><circle cx="106.9" cy="198.0" r="3" fill="#3fb950"/><circle cx="109.6" cy="198.0" r="3" fill="#3fb950"/><circle cx="112.2" cy="198.0" r="3" fill="#3fb950"/><circle cx="114.8" cy="198.0" r="3" fill="#3fb950"/><circle cx="117.5" cy="198.0" r="3" fill="#3fb950"/><circle cx="120.1" cy="198.0" r="3" fill="#3fb950"/><circle cx="122.7" cy="198.0" r="3" fill="#3fb950"/><circle cx="125.3" cy="198.0" r="3" fill="#3fb950"/><circle cx="128.0" cy="198.0" r="3" fill="#3fb950"/><circle cx="130.6" cy="198.0" r="3" fill="#3fb950"/><circle cx="133.2" cy="198.0" r="3" fill="#3fb950"/><circle cx="135.8" cy="198.0" r="3" fill="#3fb950"/><circle cx="138.5" cy="198.0" r="3" fill="#3fb950"/><circle cx="141.1" cy="198.0" r="3" fill="#3fb950"/><circle cx="143.7" cy="198.0" r="3" fill="#3fb950"/><circle cx="146.4" cy="198.0" r="3" fill="#3fb950"/><circle cx="149.0" cy="191.7" r="3" fill="#3fb950"/><circle cx="151.6" cy="191.7" r="3" fill="#3fb950"/><circle cx="154.2" cy="191.7" r="3" fill="#3fb950"/><circle cx="156.9" cy="191.7" r="3" fill="#3fb950"/><circle cx="159.5" cy="191.7" r="3" fill="#3fb950"/><circle cx="162.1" cy="191.7" r="3" fill="#3fb950"/><circle cx="164.8" cy="191.7" r="3" fill="#3fb950"/><circle cx="167.4" cy="192.9" r="3" fill="#3fb950"/><circle cx="170.0" cy="192.9" r="3" fill="#3fb950"/><circle cx="172.6" cy="190.7" r="3" fill="#3fb950"/><circle cx="175.3" cy="190.7" r="3" fill="#3fb950"/><circle cx="177.9" cy="190.7" r="3" fill="#3fb950"/><circle cx="180.5" cy="190.7" r="3" fill="#3fb950"/><circle cx="183.1" cy="190.7" r="3" fill="#3fb950"/><circle cx="185.8" cy="190.5" r="3" fill="#3fb950"/><circle cx="188.4" cy="190.5" r="3" fill="#3fb950"/><circle cx="191.0" cy="190.5" r="3" fill="#3fb950"/><circle cx="193.7" cy="190.3" r="3" fill="#3fb950"/><circle cx="196.3" cy="190.3" r="3" fill="#3fb950"/><circle cx="198.9" cy="190.3" r="3" fill="#3fb950"/><circle cx="201.5" cy="190.3" r="3" fill="#3fb950"/><circle cx="204.2" cy="190.3" r="3" fill="#3fb950"/><circle cx="206.8" cy="190.3" r="3" fill="#3fb950"/><circle cx="209.4" cy="190.3" r="3" fill="#3fb950"/><circle cx="212.1" cy="190.3" r="3" fill="#3fb950"/><circle cx="214.7" cy="190.3" r="3" fill="#3fb950"/><circle cx="217.3" cy="190.3" r="3" fill="#3fb950"/><circle cx="219.9" cy="190.3" r="3" fill="#3fb950"/><circle cx="222.6" cy="190.3" r="3" fill="#3fb950"/><circle cx="225.2" cy="190.3" r="3" fill="#3fb950"/><circle cx="227.8" cy="190.3" r="3" fill="#3fb950"/><circle cx="230.4" cy="190.3" r="3" fill="#3fb950"/><circle cx="233.1" cy="190.3" r="3" fill="#3fb950"/><circle cx="235.7" cy="190.3" r="3" fill="#3fb950"/><circle cx="238.3" cy="190.3" r="3" fill="#3fb950"/><circle cx="241.0" cy="190.3" r="3" fill="#3fb950"/><circle cx="243.6" cy="190.3" r="3" fill="#3fb950"/><circle cx="246.2" cy="190.3" r="3" fill="#3fb950"/><circle cx="248.8" cy="189.3" r="3" fill="#3fb950"/><circle cx="251.5" cy="189.3" r="3" fill="#3fb950"/><circle cx="254.1" cy="189.3" r="3" fill="#3fb950"/><circle cx="256.7" cy="190.7" r="3" fill="#3fb950"/><circle cx="259.3" cy="190.7" r="3" fill="#3fb950"/><circle cx="262.0" cy="190.7" r="3" fill="#3fb950"/><circle cx="264.6" cy="190.7" r="3" fill="#3fb950"/><circle cx="267.2" cy="190.7" r="3" fill="#3fb950"/><circle cx="269.9" cy="190.7" r="3" fill="#3fb950"/><circle cx="272.5" cy="190.7" r="3" fill="#3fb950"/><circle cx="275.1" cy="190.7" r="3" fill="#3fb950"/><circle cx="277.7" cy="190.7" r="3" fill="#3fb950"/><circle cx="280.4" cy="190.9" r="3" fill="#3fb950"/><circle cx="283.0" cy="190.9" r="3" fill="#3fb950"/><circle cx="285.6" cy="190.9" r="3" fill="#3fb950"/><circle cx="288.3" cy="194.2" r="3" fill="#3fb950"/><circle cx="290.9" cy="196.8" r="3" fill="#3fb950"/><circle cx="293.5" cy="198.0" r="3" fill="#3fb950"/><circle cx="296.1" cy="198.0" r="3" fill="#3fb950"/><circle cx="298.8" cy="198.0" r="3" fill="#3fb950"/><circle cx="301.4" cy="198.0" r="3" fill="#3fb950"/><circle cx="304.0" cy="198.0" r="3" fill="#3fb950"/><circle cx="306.6" cy="198.0" r="3" fill="#3fb950"/><circle cx="309.3" cy="198.0" r="3" fill="#3fb950"/><circle cx="311.9" cy="198.0" r="3" fill="#3fb950"/><circle cx="314.5" cy="198.0" r="3" fill="#3fb950"/><circle cx="317.2" cy="198.0" r="3" fill="#3fb950"/><circle cx="319.8" cy="198.0" r="3" fill="#3fb950"/><circle cx="322.4" cy="198.0" r="3" fill="#3fb950"/><circle cx="325.0" cy="198.0" r="3" fill="#3fb950"/><circle cx="327.7" cy="198.0" r="3" fill="#3fb950"/><circle cx="330.3" cy="198.0" r="3" fill="#3fb950"/><circle cx="332.9" cy="198.0" r="3" fill="#3fb950"/><circle cx="335.5" cy="198.0" r="3" fill="#3fb950"/><circle cx="338.2" cy="198.0" r="3" fill="#3fb950"/><circle cx="340.8" cy="198.0" r="3" fill="#3fb950"/><circle cx="343.4" cy="198.0" r="3" fill="#3fb950"/><circle cx="346.1" cy="198.0" r="3" fill="#3fb950"/><circle cx="348.7" cy="198.0" r="3" fill="#3fb950"/><circle cx="351.3" cy="198.0" r="3" fill="#3fb950"/><circle cx="353.9" cy="198.0" r="3" fill="#3fb950"/><circle cx="356.6" cy="198.0" r="3" fill="#3fb950"/><circle cx="359.2" cy="198.0" r="3" fill="#3fb950"/><circle cx="361.8" cy="198.0" r="3" fill="#3fb950"/><circle cx="364.5" cy="198.0" r="3" fill="#3fb950"/><circle cx="367.1" cy="198.0" r="3" fill="#3fb950"/><circle cx="369.7" cy="198.0" r="3" fill="#3fb950"/><circle cx="372.3" cy="198.0" r="3" fill="#3fb950"/><circle cx="375.0" cy="198.0" r="3" fill="#3fb950"/><circle cx="377.6" cy="198.0" r="3" fill="#3fb950"/><circle cx="380.2" cy="198.0" r="3" fill="#3fb950"/><circle cx="382.8" cy="198.0" r="3" fill="#3fb950"/><circle cx="385.5" cy="198.0" r="3" fill="#3fb950"/><circle cx="388.1" cy="198.0" r="3" fill="#3fb950"/><circle cx="390.7" cy="198.0" r="3" fill="#3fb950"/><circle cx="393.4" cy="198.0" r="3" fill="#3fb950"/><circle cx="396.0" cy="198.0" r="3" fill="#3fb950"/><circle cx="398.6" cy="198.0" r="3" fill="#3fb950"/><circle cx="401.2" cy="198.0" r="3" fill="#3fb950"/><circle cx="403.9" cy="198.0" r="3" fill="#3fb950"/><circle cx="406.5" cy="198.0" r="3" fill="#3fb950"/><circle cx="409.1" cy="198.0" r="3" fill="#3fb950"/><circle cx="411.7" cy="198.0" r="3" fill="#3fb950"/><circle cx="414.4" cy="198.0" r="3" fill="#3fb950"/><circle cx="417.0" cy="198.0" r="3" fill="#3fb950"/><circle cx="419.6" cy="198.0" r="3" fill="#3fb950"/><circle cx="422.3" cy="198.0" r="3" fill="#3fb950"/><circle cx="424.9" cy="198.0" r="3" fill="#3fb950"/><circle cx="427.5" cy="198.0" r="3" fill="#3fb950"/><circle cx="430.1" cy="198.0" r="3" fill="#3fb950"/><circle cx="432.8" cy="198.0" r="3" fill="#3fb950"/><circle cx="435.4" cy="198.0" r="3" fill="#3fb950"/><circle cx="438.0" cy="198.0" r="3" fill="#3fb950"/><circle cx="440.7" cy="198.0" r="3" fill="#3fb950"/><circle cx="443.3" cy="198.0" r="3" fill="#3fb950"/><circle cx="445.9" cy="198.0" r="3" fill="#3fb950"/><circle cx="448.5" cy="198.0" r="3" fill="#3fb950"/><circle cx="451.2" cy="198.0" r="3" fill="#3fb950"/><circle cx="453.8" cy="198.0" r="3" fill="#3fb950"/><circle cx="456.4" cy="198.0" r="3" fill="#3fb950"/><circle cx="459.0" cy="198.0" r="3" fill="#3fb950"/><circle cx="461.7" cy="198.0" r="3" fill="#3fb950"/><circle cx="464.3" cy="198.0" r="3" fill="#3fb950"/><circle cx="466.9" cy="198.0" r="3" fill="#3fb950"/><circle cx="469.6" cy="198.0" r="3" fill="#3fb950"/><circle cx="472.2" cy="198.0" r="3" fill="#3fb950"/><circle cx="474.8" cy="198.0" r="3" fill="#3fb950"/><circle cx="477.4" cy="198.0" r="3" fill="#3fb950"/><circle cx="480.1" cy="198.0" r="3" fill="#3fb950"/><circle cx="482.7" cy="198.0" r="3" fill="#3fb950"/><circle cx="485.3" cy="198.0" r="3" fill="#3fb950"/><circle cx="487.9" cy="198.0" r="3" fill="#3fb950"/><circle cx="490.6" cy="198.0" r="3" fill="#3fb950"/><circle cx="493.2" cy="198.0" r="3" fill="#3fb950"/><circle cx="495.8" cy="198.0" r="3" fill="#3fb950"/><circle cx="498.5" cy="198.0" r="3" fill="#3fb950"/><circle cx="501.1" cy="198.0" r="3" fill="#3fb950"/><circle cx="503.7" cy="198.0" r="3" fill="#3fb950"/><circle cx="506.3" cy="198.0" r="3" fill="#3fb950"/><circle cx="509.0" cy="198.0" r="3" fill="#3fb950"/><circle cx="511.6" cy="198.0" r="3" fill="#3fb950"/><circle cx="514.2" cy="198.0" r="3" fill="#3fb950"/><circle cx="516.9" cy="198.0" r="3" fill="#3fb950"/><circle cx="519.5" cy="198.0" r="3" fill="#3fb950"/><circle cx="522.1" cy="198.0" r="3" fill="#3fb950"/><circle cx="524.7" cy="198.0" r="3" fill="#3fb950"/><circle cx="527.4" cy="198.0" r="3" fill="#3fb950"/><circle cx="530.0" cy="198.0" r="3" fill="#3fb950"/><circle cx="532.6" cy="198.0" r="3" fill="#3fb950"/><circle cx="535.2" cy="198.0" r="3" fill="#3fb950"/><circle cx="537.9" cy="198.0" r="3" fill="#3fb950"/><circle cx="540.5" cy="198.0" r="3" fill="#3fb950"/><circle cx="543.1" cy="198.0" r="3" fill="#3fb950"/><circle cx="545.8" cy="198.0" r="3" fill="#3fb950"/><circle cx="548.4" cy="198.0" r="3" fill="#3fb950"/><circle cx="551.0" cy="198.0" r="3" fill="#3fb950"/><circle cx="553.6" cy="198.0" r="3" fill="#3fb950"/><circle cx="556.3" cy="198.0" r="3" fill="#3fb950"/><circle cx="558.9" cy="198.0" r="3" fill="#3fb950"/><circle cx="561.5" cy="198.0" r="3" fill="#3fb950"/><circle cx="564.2" cy="198.0" r="3" fill="#3fb950"/><circle cx="566.8" cy="198.0" r="3" fill="#3fb950"/><circle cx="569.4" cy="198.0" r="3" fill="#3fb950"/><circle cx="572.0" cy="198.0" r="3" fill="#3fb950"/><circle cx="574.7" cy="198.0" r="3" fill="#3fb950"/><circle cx="577.3" cy="198.0" r="3" fill="#3fb950"/><circle cx="579.9" cy="198.0" r="3" fill="#3fb950"/><circle cx="582.5" cy="198.0" r="3" fill="#3fb950"/><circle cx="585.2" cy="198.0" r="3" fill="#3fb950"/><circle cx="587.8" cy="198.0" r="3" fill="#3fb950"/><circle cx="590.4" cy="198.0" r="3" fill="#3fb950"/><circle cx="593.1" cy="198.0" r="3" fill="#3fb950"/><circle cx="595.7" cy="198.0" r="3" fill="#3fb950"/><circle cx="598.3" cy="198.0" r="3" fill="#3fb950"/><circle cx="600.9" cy="198.0" r="3" fill="#3fb950"/><circle cx="603.6" cy="198.0" r="3" fill="#3fb950"/><circle cx="606.2" cy="198.0" r="3" fill="#3fb950"/><circle cx="608.8" cy="198.0" r="3" fill="#3fb950"/><circle cx="611.4" cy="198.0" r="3" fill="#3fb950"/><circle cx="614.1" cy="198.0" r="3" fill="#3fb950"/><circle cx="616.7" cy="198.0" r="3" fill="#3fb950"/><circle cx="619.3" cy="198.0" r="3" fill="#3fb950"/><circle cx="622.0" cy="198.0" r="3" fill="#3fb950"/><circle cx="624.6" cy="198.0" r="3" fill="#3fb950"/><circle cx="627.2" cy="198.0" r="3" fill="#3fb950"/><circle cx="629.8" cy="198.0" r="3" fill="#3fb950"/><circle cx="632.5" cy="198.0" r="3" fill="#3fb950"/><circle cx="635.1" cy="198.0" r="3" fill="#3fb950"/><circle cx="637.7" cy="198.0" r="3" fill="#3fb950"/><circle cx="640.4" cy="198.0" r="3" fill="#3fb950"/><circle cx="643.0" cy="198.0" r="3" fill="#3fb950"/><circle cx="645.6" cy="198.0" r="3" fill="#3fb950"/><circle cx="648.2" cy="198.0" r="3" fill="#3fb950"/><circle cx="650.9" cy="198.0" r="3" fill="#3fb950"/><circle cx="653.5" cy="198.0" r="3" fill="#3fb950"/><circle cx="656.1" cy="198.0" r="3" fill="#3fb950"/><circle cx="658.7" cy="198.0" r="3" fill="#3fb950"/><circle cx="661.4" cy="198.0" r="3" fill="#3fb950"/><circle cx="664.0" cy="198.0" r="3" fill="#3fb950"/>
<polyline fill="none" stroke="#4aa3ff" stroke-width="2.5" stroke-linejoin="round" points="36.0,144.3 38.6,144.3 41.3,144.3 43.9,144.3 46.5,144.3 49.1,144.3 51.8,144.3 54.4,144.3 57.0,144.3 59.6,144.3 62.3,144.3 64.9,144.3 67.5,144.3 70.2,144.3 72.8,144.3 75.4,136.2 78.0,132.4 80.7,129.6 83.3,129.6 85.9,121.0 88.6,121.0 91.2,121.0 93.8,114.4 96.4,114.4 99.1,114.4 101.7,111.3 104.3,110.9 106.9,110.9 109.6,110.5 112.2,110.5 114.8,109.9 117.5,108.7 120.1,107.3 122.7,106.9 125.3,106.9 128.0,106.9 130.6,106.9 133.2,106.9 135.8,106.9 138.5,106.9 141.1,106.9 143.7,106.9 146.4,106.9 149.0,113.2 151.6,113.2 154.2,113.2 156.9,113.2 159.5,113.2 162.1,110.7 164.8,105.3 167.4,83.4 170.0,83.4 172.6,85.6 175.3,85.6 177.9,85.6 180.5,85.6 183.1,85.6 185.8,85.8 188.4,85.8 191.0,85.8 193.7,86.0 196.3,86.0 198.9,86.0 201.5,86.0 204.2,86.0 206.8,86.0 209.4,86.0 212.1,86.0 214.7,86.0 217.3,86.0 219.9,86.0 222.6,86.0 225.2,86.0 227.8,86.0 230.4,86.0 233.1,86.0 235.7,86.0 238.3,86.0 241.0,86.0 243.6,86.0 246.2,86.0 248.8,87.0 251.5,87.0 254.1,87.0 256.7,73.7 259.3,73.7 262.0,71.0 264.6,71.0 267.2,70.8 269.9,70.6 272.5,70.6 275.1,70.4 277.7,68.6 280.4,60.5 283.0,59.3 285.6,52.0 288.3,47.3 290.9,40.1 293.5,36.0 296.1,36.0 298.8,36.0 301.4,36.0 304.0,36.0 306.6,36.0 309.3,36.0 311.9,36.0 314.5,36.0 317.2,36.0 319.8,36.0 322.4,36.0 325.0,36.0 327.7,36.0 330.3,36.0 332.9,36.0 335.5,36.0 338.2,36.0 340.8,36.0 343.4,36.0 346.1,36.0 348.7,36.0 351.3,36.0 353.9,36.0 356.6,36.0 359.2,36.0 361.8,36.0 364.5,36.0 367.1,36.0 369.7,36.0 372.3,36.0 375.0,36.0 377.6,36.0 380.2,36.0 382.8,36.0 385.5,36.0 388.1,36.0 390.7,36.0 393.4,36.0 396.0,36.0 398.6,36.0 401.2,36.0 403.9,36.0 406.5,36.0 409.1,36.0 411.7,36.0 414.4,36.0 417.0,36.0 419.6,36.0 422.3,36.0 424.9,36.0 427.5,36.0 430.1,36.0 432.8,36.0 435.4,36.0 438.0,36.0 440.7,36.0 443.3,36.0 445.9,36.0 448.5,36.0 451.2,36.0 453.8,36.0 456.4,36.0 459.0,36.0 461.7,36.0 464.3,36.0 466.9,36.0 469.6,36.0 472.2,36.0 474.8,36.0 477.4,36.0 480.1,36.0 482.7,36.0 485.3,36.0 487.9,36.0 490.6,36.0 493.2,36.0 495.8,36.0 498.5,36.0 501.1,36.0 503.7,36.0 506.3,36.0 509.0,36.0 511.6,36.0 514.2,36.0 516.9,36.0 519.5,36.0 522.1,36.0 524.7,36.0 527.4,36.0 530.0,36.0 532.6,36.0 535.2,36.0 537.9,36.0 540.5,36.0 543.1,36.0 545.8,36.0 548.4,36.0 551.0,36.0 553.6,36.0 556.3,36.0 558.9,36.0 561.5,36.0 564.2,36.0 566.8,36.0 569.4,36.0 572.0,36.0 574.7,36.0 577.3,36.0 579.9,36.0 582.5,36.0 585.2,36.0 587.8,36.0 590.4,36.0 593.1,36.0 595.7,36.0 598.3,36.0 600.9,36.0 603.6,36.0 606.2,36.0 608.8,36.0 611.4,36.0 614.1,36.0 616.7,36.0 619.3,36.0 622.0,36.0 624.6,36.0 627.2,36.0 629.8,36.0 632.5,36.0 635.1,36.0 637.7,36.0 640.4,36.0 643.0,36.0 645.6,36.0 648.2,36.0 650.9,36.0 653.5,36.0 656.1,36.0 658.7,36.0 661.4,36.0 664.0,36.0"/><circle cx="36.0" cy="144.3" r="3" fill="#4aa3ff"/><circle cx="38.6" cy="144.3" r="3" fill="#4aa3ff"/><circle cx="41.3" cy="144.3" r="3" fill="#4aa3ff"/><circle cx="43.9" cy="144.3" r="3" fill="#4aa3ff"/><circle cx="46.5" cy="144.3" r="3" fill="#4aa3ff"/><circle cx="49.1" cy="144.3" r="3" fill="#4aa3ff"/><circle cx="51.8" cy="144.3" r="3" fill="#4aa3ff"/><circle cx="54.4" cy="144.3" r="3" fill="#4aa3ff"/><circle cx="57.0" cy="144.3" r="3" fill="#4aa3ff"/><circle cx="59.6" cy="144.3" r="3" fill="#4aa3ff"/><circle cx="62.3" cy="144.3" r="3" fill="#4aa3ff"/><circle cx="64.9" cy="144.3" r="3" fill="#4aa3ff"/><circle cx="67.5" cy="144.3" r="3" fill="#4aa3ff"/><circle cx="70.2" cy="144.3" r="3" fill="#4aa3ff"/><circle cx="72.8" cy="144.3" r="3" fill="#4aa3ff"/><circle cx="75.4" cy="136.2" r="3" fill="#4aa3ff"/><circle cx="78.0" cy="132.4" r="3" fill="#4aa3ff"/><circle cx="80.7" cy="129.6" r="3" fill="#4aa3ff"/><circle cx="83.3" cy="129.6" r="3" fill="#4aa3ff"/><circle cx="85.9" cy="121.0" r="3" fill="#4aa3ff"/><circle cx="88.6" cy="121.0" r="3" fill="#4aa3ff"/><circle cx="91.2" cy="121.0" r="3" fill="#4aa3ff"/><circle cx="93.8" cy="114.4" r="3" fill="#4aa3ff"/><circle cx="96.4" cy="114.4" r="3" fill="#4aa3ff"/><circle cx="99.1" cy="114.4" r="3" fill="#4aa3ff"/><circle cx="101.7" cy="111.3" r="3" fill="#4aa3ff"/><circle cx="104.3" cy="110.9" r="3" fill="#4aa3ff"/><circle cx="106.9" cy="110.9" r="3" fill="#4aa3ff"/><circle cx="109.6" cy="110.5" r="3" fill="#4aa3ff"/><circle cx="112.2" cy="110.5" r="3" fill="#4aa3ff"/><circle cx="114.8" cy="109.9" r="3" fill="#4aa3ff"/><circle cx="117.5" cy="108.7" r="3" fill="#4aa3ff"/><circle cx="120.1" cy="107.3" r="3" fill="#4aa3ff"/><circle cx="122.7" cy="106.9" r="3" fill="#4aa3ff"/><circle cx="125.3" cy="106.9" r="3" fill="#4aa3ff"/><circle cx="128.0" cy="106.9" r="3" fill="#4aa3ff"/><circle cx="130.6" cy="106.9" r="3" fill="#4aa3ff"/><circle cx="133.2" cy="106.9" r="3" fill="#4aa3ff"/><circle cx="135.8" cy="106.9" r="3" fill="#4aa3ff"/><circle cx="138.5" cy="106.9" r="3" fill="#4aa3ff"/><circle cx="141.1" cy="106.9" r="3" fill="#4aa3ff"/><circle cx="143.7" cy="106.9" r="3" fill="#4aa3ff"/><circle cx="146.4" cy="106.9" r="3" fill="#4aa3ff"/><circle cx="149.0" cy="113.2" r="3" fill="#4aa3ff"/><circle cx="151.6" cy="113.2" r="3" fill="#4aa3ff"/><circle cx="154.2" cy="113.2" r="3" fill="#4aa3ff"/><circle cx="156.9" cy="113.2" r="3" fill="#4aa3ff"/><circle cx="159.5" cy="113.2" r="3" fill="#4aa3ff"/><circle cx="162.1" cy="110.7" r="3" fill="#4aa3ff"/><circle cx="164.8" cy="105.3" r="3" fill="#4aa3ff"/><circle cx="167.4" cy="83.4" r="3" fill="#4aa3ff"/><circle cx="170.0" cy="83.4" r="3" fill="#4aa3ff"/><circle cx="172.6" cy="85.6" r="3" fill="#4aa3ff"/><circle cx="175.3" cy="85.6" r="3" fill="#4aa3ff"/><circle cx="177.9" cy="85.6" r="3" fill="#4aa3ff"/><circle cx="180.5" cy="85.6" r="3" fill="#4aa3ff"/><circle cx="183.1" cy="85.6" r="3" fill="#4aa3ff"/><circle cx="185.8" cy="85.8" r="3" fill="#4aa3ff"/><circle cx="188.4" cy="85.8" r="3" fill="#4aa3ff"/><circle cx="191.0" cy="85.8" r="3" fill="#4aa3ff"/><circle cx="193.7" cy="86.0" r="3" fill="#4aa3ff"/><circle cx="196.3" cy="86.0" r="3" fill="#4aa3ff"/><circle cx="198.9" cy="86.0" r="3" fill="#4aa3ff"/><circle cx="201.5" cy="86.0" r="3" fill="#4aa3ff"/><circle cx="204.2" cy="86.0" r="3" fill="#4aa3ff"/><circle cx="206.8" cy="86.0" r="3" fill="#4aa3ff"/><circle cx="209.4" cy="86.0" r="3" fill="#4aa3ff"/><circle cx="212.1" cy="86.0" r="3" fill="#4aa3ff"/><circle cx="214.7" cy="86.0" r="3" fill="#4aa3ff"/><circle cx="217.3" cy="86.0" r="3" fill="#4aa3ff"/><circle cx="219.9" cy="86.0" r="3" fill="#4aa3ff"/><circle cx="222.6" cy="86.0" r="3" fill="#4aa3ff"/><circle cx="225.2" cy="86.0" r="3" fill="#4aa3ff"/><circle cx="227.8" cy="86.0" r="3" fill="#4aa3ff"/><circle cx="230.4" cy="86.0" r="3" fill="#4aa3ff"/><circle cx="233.1" cy="86.0" r="3" fill="#4aa3ff"/><circle cx="235.7" cy="86.0" r="3" fill="#4aa3ff"/><circle cx="238.3" cy="86.0" r="3" fill="#4aa3ff"/><circle cx="241.0" cy="86.0" r="3" fill="#4aa3ff"/><circle cx="243.6" cy="86.0" r="3" fill="#4aa3ff"/><circle cx="246.2" cy="86.0" r="3" fill="#4aa3ff"/><circle cx="248.8" cy="87.0" r="3" fill="#4aa3ff"/><circle cx="251.5" cy="87.0" r="3" fill="#4aa3ff"/><circle cx="254.1" cy="87.0" r="3" fill="#4aa3ff"/><circle cx="256.7" cy="73.7" r="3" fill="#4aa3ff"/><circle cx="259.3" cy="73.7" r="3" fill="#4aa3ff"/><circle cx="262.0" cy="71.0" r="3" fill="#4aa3ff"/><circle cx="264.6" cy="71.0" r="3" fill="#4aa3ff"/><circle cx="267.2" cy="70.8" r="3" fill="#4aa3ff"/><circle cx="269.9" cy="70.6" r="3" fill="#4aa3ff"/><circle cx="272.5" cy="70.6" r="3" fill="#4aa3ff"/><circle cx="275.1" cy="70.4" r="3" fill="#4aa3ff"/><circle cx="277.7" cy="68.6" r="3" fill="#4aa3ff"/><circle cx="280.4" cy="60.5" r="3" fill="#4aa3ff"/><circle cx="283.0" cy="59.3" r="3" fill="#4aa3ff"/><circle cx="285.6" cy="52.0" r="3" fill="#4aa3ff"/><circle cx="288.3" cy="47.3" r="3" fill="#4aa3ff"/><circle cx="290.9" cy="40.1" r="3" fill="#4aa3ff"/><circle cx="293.5" cy="36.0" r="3" fill="#4aa3ff"/><circle cx="296.1" cy="36.0" r="3" fill="#4aa3ff"/><circle cx="298.8" cy="36.0" r="3" fill="#4aa3ff"/><circle cx="301.4" cy="36.0" r="3" fill="#4aa3ff"/><circle cx="304.0" cy="36.0" r="3" fill="#4aa3ff"/><circle cx="306.6" cy="36.0" r="3" fill="#4aa3ff"/><circle cx="309.3" cy="36.0" r="3" fill="#4aa3ff"/><circle cx="311.9" cy="36.0" r="3" fill="#4aa3ff"/><circle cx="314.5" cy="36.0" r="3" fill="#4aa3ff"/><circle cx="317.2" cy="36.0" r="3" fill="#4aa3ff"/><circle cx="319.8" cy="36.0" r="3" fill="#4aa3ff"/><circle cx="322.4" cy="36.0" r="3" fill="#4aa3ff"/><circle cx="325.0" cy="36.0" r="3" fill="#4aa3ff"/><circle cx="327.7" cy="36.0" r="3" fill="#4aa3ff"/><circle cx="330.3" cy="36.0" r="3" fill="#4aa3ff"/><circle cx="332.9" cy="36.0" r="3" fill="#4aa3ff"/><circle cx="335.5" cy="36.0" r="3" fill="#4aa3ff"/><circle cx="338.2" cy="36.0" r="3" fill="#4aa3ff"/><circle cx="340.8" cy="36.0" r="3" fill="#4aa3ff"/><circle cx="343.4" cy="36.0" r="3" fill="#4aa3ff"/><circle cx="346.1" cy="36.0" r="3" fill="#4aa3ff"/><circle cx="348.7" cy="36.0" r="3" fill="#4aa3ff"/><circle cx="351.3" cy="36.0" r="3" fill="#4aa3ff"/><circle cx="353.9" cy="36.0" r="3" fill="#4aa3ff"/><circle cx="356.6" cy="36.0" r="3" fill="#4aa3ff"/><circle cx="359.2" cy="36.0" r="3" fill="#4aa3ff"/><circle cx="361.8" cy="36.0" r="3" fill="#4aa3ff"/><circle cx="364.5" cy="36.0" r="3" fill="#4aa3ff"/><circle cx="367.1" cy="36.0" r="3" fill="#4aa3ff"/><circle cx="369.7" cy="36.0" r="3" fill="#4aa3ff"/><circle cx="372.3" cy="36.0" r="3" fill="#4aa3ff"/><circle cx="375.0" cy="36.0" r="3" fill="#4aa3ff"/><circle cx="377.6" cy="36.0" r="3" fill="#4aa3ff"/><circle cx="380.2" cy="36.0" r="3" fill="#4aa3ff"/><circle cx="382.8" cy="36.0" r="3" fill="#4aa3ff"/><circle cx="385.5" cy="36.0" r="3" fill="#4aa3ff"/><circle cx="388.1" cy="36.0" r="3" fill="#4aa3ff"/><circle cx="390.7" cy="36.0" r="3" fill="#4aa3ff"/><circle cx="393.4" cy="36.0" r="3" fill="#4aa3ff"/><circle cx="396.0" cy="36.0" r="3" fill="#4aa3ff"/><circle cx="398.6" cy="36.0" r="3" fill="#4aa3ff"/><circle cx="401.2" cy="36.0" r="3" fill="#4aa3ff"/><circle cx="403.9" cy="36.0" r="3" fill="#4aa3ff"/><circle cx="406.5" cy="36.0" r="3" fill="#4aa3ff"/><circle cx="409.1" cy="36.0" r="3" fill="#4aa3ff"/><circle cx="411.7" cy="36.0" r="3" fill="#4aa3ff"/><circle cx="414.4" cy="36.0" r="3" fill="#4aa3ff"/><circle cx="417.0" cy="36.0" r="3" fill="#4aa3ff"/><circle cx="419.6" cy="36.0" r="3" fill="#4aa3ff"/><circle cx="422.3" cy="36.0" r="3" fill="#4aa3ff"/><circle cx="424.9" cy="36.0" r="3" fill="#4aa3ff"/><circle cx="427.5" cy="36.0" r="3" fill="#4aa3ff"/><circle cx="430.1" cy="36.0" r="3" fill="#4aa3ff"/><circle cx="432.8" cy="36.0" r="3" fill="#4aa3ff"/><circle cx="435.4" cy="36.0" r="3" fill="#4aa3ff"/><circle cx="438.0" cy="36.0" r="3" fill="#4aa3ff"/><circle cx="440.7" cy="36.0" r="3" fill="#4aa3ff"/><circle cx="443.3" cy="36.0" r="3" fill="#4aa3ff"/><circle cx="445.9" cy="36.0" r="3" fill="#4aa3ff"/><circle cx="448.5" cy="36.0" r="3" fill="#4aa3ff"/><circle cx="451.2" cy="36.0" r="3" fill="#4aa3ff"/><circle cx="453.8" cy="36.0" r="3" fill="#4aa3ff"/><circle cx="456.4" cy="36.0" r="3" fill="#4aa3ff"/><circle cx="459.0" cy="36.0" r="3" fill="#4aa3ff"/><circle cx="461.7" cy="36.0" r="3" fill="#4aa3ff"/><circle cx="464.3" cy="36.0" r="3" fill="#4aa3ff"/><circle cx="466.9" cy="36.0" r="3" fill="#4aa3ff"/><circle cx="469.6" cy="36.0" r="3" fill="#4aa3ff"/><circle cx="472.2" cy="36.0" r="3" fill="#4aa3ff"/><circle cx="474.8" cy="36.0" r="3" fill="#4aa3ff"/><circle cx="477.4" cy="36.0" r="3" fill="#4aa3ff"/><circle cx="480.1" cy="36.0" r="3" fill="#4aa3ff"/><circle cx="482.7" cy="36.0" r="3" fill="#4aa3ff"/><circle cx="485.3" cy="36.0" r="3" fill="#4aa3ff"/><circle cx="487.9" cy="36.0" r="3" fill="#4aa3ff"/><circle cx="490.6" cy="36.0" r="3" fill="#4aa3ff"/><circle cx="493.2" cy="36.0" r="3" fill="#4aa3ff"/><circle cx="495.8" cy="36.0" r="3" fill="#4aa3ff"/><circle cx="498.5" cy="36.0" r="3" fill="#4aa3ff"/><circle cx="501.1" cy="36.0" r="3" fill="#4aa3ff"/><circle cx="503.7" cy="36.0" r="3" fill="#4aa3ff"/><circle cx="506.3" cy="36.0" r="3" fill="#4aa3ff"/><circle cx="509.0" cy="36.0" r="3" fill="#4aa3ff"/><circle cx="511.6" cy="36.0" r="3" fill="#4aa3ff"/><circle cx="514.2" cy="36.0" r="3" fill="#4aa3ff"/><circle cx="516.9" cy="36.0" r="3" fill="#4aa3ff"/><circle cx="519.5" cy="36.0" r="3" fill="#4aa3ff"/><circle cx="522.1" cy="36.0" r="3" fill="#4aa3ff"/><circle cx="524.7" cy="36.0" r="3" fill="#4aa3ff"/><circle cx="527.4" cy="36.0" r="3" fill="#4aa3ff"/><circle cx="530.0" cy="36.0" r="3" fill="#4aa3ff"/><circle cx="532.6" cy="36.0" r="3" fill="#4aa3ff"/><circle cx="535.2" cy="36.0" r="3" fill="#4aa3ff"/><circle cx="537.9" cy="36.0" r="3" fill="#4aa3ff"/><circle cx="540.5" cy="36.0" r="3" fill="#4aa3ff"/><circle cx="543.1" cy="36.0" r="3" fill="#4aa3ff"/><circle cx="545.8" cy="36.0" r="3" fill="#4aa3ff"/><circle cx="548.4" cy="36.0" r="3" fill="#4aa3ff"/><circle cx="551.0" cy="36.0" r="3" fill="#4aa3ff"/><circle cx="553.6" cy="36.0" r="3" fill="#4aa3ff"/><circle cx="556.3" cy="36.0" r="3" fill="#4aa3ff"/><circle cx="558.9" cy="36.0" r="3" fill="#4aa3ff"/><circle cx="561.5" cy="36.0" r="3" fill="#4aa3ff"/><circle cx="564.2" cy="36.0" r="3" fill="#4aa3ff"/><circle cx="566.8" cy="36.0" r="3" fill="#4aa3ff"/><circle cx="569.4" cy="36.0" r="3" fill="#4aa3ff"/><circle cx="572.0" cy="36.0" r="3" fill="#4aa3ff"/><circle cx="574.7" cy="36.0" r="3" fill="#4aa3ff"/><circle cx="577.3" cy="36.0" r="3" fill="#4aa3ff"/><circle cx="579.9" cy="36.0" r="3" fill="#4aa3ff"/><circle cx="582.5" cy="36.0" r="3" fill="#4aa3ff"/><circle cx="585.2" cy="36.0" r="3" fill="#4aa3ff"/><circle cx="587.8" cy="36.0" r="3" fill="#4aa3ff"/><circle cx="590.4" cy="36.0" r="3" fill="#4aa3ff"/><circle cx="593.1" cy="36.0" r="3" fill="#4aa3ff"/><circle cx="595.7" cy="36.0" r="3" fill="#4aa3ff"/><circle cx="598.3" cy="36.0" r="3" fill="#4aa3ff"/><circle cx="600.9" cy="36.0" r="3" fill="#4aa3ff"/><circle cx="603.6" cy="36.0" r="3" fill="#4aa3ff"/><circle cx="606.2" cy="36.0" r="3" fill="#4aa3ff"/><circle cx="608.8" cy="36.0" r="3" fill="#4aa3ff"/><circle cx="611.4" cy="36.0" r="3" fill="#4aa3ff"/><circle cx="614.1" cy="36.0" r="3" fill="#4aa3ff"/><circle cx="616.7" cy="36.0" r="3" fill="#4aa3ff"/><circle cx="619.3" cy="36.0" r="3" fill="#4aa3ff"/><circle cx="622.0" cy="36.0" r="3" fill="#4aa3ff"/><circle cx="624.6" cy="36.0" r="3" fill="#4aa3ff"/><circle cx="627.2" cy="36.0" r="3" fill="#4aa3ff"/><circle cx="629.8" cy="36.0" r="3" fill="#4aa3ff"/><circle cx="632.5" cy="36.0" r="3" fill="#4aa3ff"/><circle cx="635.1" cy="36.0" r="3" fill="#4aa3ff"/><circle cx="637.7" cy="36.0" r="3" fill="#4aa3ff"/><circle cx="640.4" cy="36.0" r="3" fill="#4aa3ff"/><circle cx="643.0" cy="36.0" r="3" fill="#4aa3ff"/><circle cx="645.6" cy="36.0" r="3" fill="#4aa3ff"/><circle cx="648.2" cy="36.0" r="3" fill="#4aa3ff"/><circle cx="650.9" cy="36.0" r="3" fill="#4aa3ff"/><circle cx="653.5" cy="36.0" r="3" fill="#4aa3ff"/><circle cx="656.1" cy="36.0" r="3" fill="#4aa3ff"/><circle cx="658.7" cy="36.0" r="3" fill="#4aa3ff"/><circle cx="661.4" cy="36.0" r="3" fill="#4aa3ff"/><circle cx="664.0" cy="36.0" r="3" fill="#4aa3ff"/>
<text x="36" y="225" fill="#6b7280" font-size="11">2026-06-26</text>
<text x="664" y="225" fill="#6b7280" font-size="11" text-anchor="end">2026-07-20</text>
<text x="36" y="212" font-family="system-ui,sans-serif" font-size="11">
<tspan fill="#4aa3ff">&#9679; open FPs</tspan>  <tspan fill="#3fb950">&#9679; closed (Anthropic acting)</tspan>  <tspan fill="#8a5a5a">&#9679; harness withdrawn</tspan></text>
<text x="664" y="22" text-anchor="end" font-family="system-ui,sans-serif" font-size="12">
<tspan fill="#4aa3ff">open 800</tspan>  <tspan fill="#3fb950">closed 0</tspan>  <tspan fill="#8a5a5a">harness 0</tspan></text>
</svg>