<svg xmlns="http://www.w3.org/2000/svg" width="700" height="234" viewBox="0 0 700 234" role="img">
<rect width="700" height="234" rx="12" fill="#16181d"/>
<text x="36" y="22" fill="#e8eaed" font-family="system-ui,sans-serif" font-size="14" font-weight="700">Is Anthropic acting? cyber/aup false positives over time</text>
<line x1="36" y1="198.0" x2="664" y2="198.0" stroke="#2a2e37" stroke-width="1"/><text x="30" y="202.0" fill="#6b7280" font-size="11" text-anchor="end">0</text><line x1="36" y1="117.0" x2="664" y2="117.0" stroke="#2a2e37" stroke-width="1"/><text x="30" y="121.0" fill="#6b7280" font-size="11" text-anchor="end">400</text><line x1="36" y1="36.0" x2="664" y2="36.0" stroke="#2a2e37" stroke-width="1"/><text x="30" y="40.0" fill="#6b7280" font-size="11" text-anchor="end">800</text>

<polyline fill="none" stroke="#8a5a5a" stroke-width="2.5" stroke-linejoin="round" points="36.0,145.1 40.4,145.1 44.8,145.1 49.2,145.1 53.6,145.1 58.0,145.1 62.3,145.1 66.7,145.1 71.1,145.1 75.5,145.1 79.9,145.1 84.3,145.1 88.7,145.1 93.1,145.1 97.5,145.1 101.9,145.1 106.3,145.1 110.7,145.1 115.0,145.1 119.4,145.1 123.8,145.1 128.2,145.1 132.6,145.1 137.0,145.1 141.4,145.1 145.8,145.1 150.2,145.1 154.6,145.1 159.0,145.1 163.4,145.1 167.7,145.1 172.1,145.1 176.5,145.1 180.9,145.1 185.3,145.1 189.7,145.1 194.1,145.1 198.5,145.1 202.9,145.1 207.3,145.1 211.7,145.1 216.1,145.1 220.4,145.1 224.8,145.1 229.2,145.1 233.6,145.1 238.0,145.1 242.4,145.1 246.8,145.1 251.2,145.1 255.6,155.7 260.0,155.7 264.4,155.7 268.8,155.7 273.1,155.7 277.5,155.7 281.9,155.7 286.3,155.7 290.7,155.7 295.1,155.7 299.5,155.7 303.9,155.7 308.3,155.7 312.7,155.7 317.1,155.7 321.5,155.7 325.8,155.7 330.2,155.7 334.6,155.7 339.0,155.7 343.4,155.7 347.8,155.7 352.2,155.7 356.6,155.7 361.0,155.7 365.4,155.7 369.8,155.7 374.2,155.7 378.5,155.7 382.9,155.7 387.3,155.7 391.7,155.7 396.1,155.7 400.5,155.7 404.9,167.6 409.3,167.6 413.7,170.3 418.1,170.3 422.5,170.5 426.9,170.7 431.2,170.7 435.6,170.9 440.0,172.7 444.4,180.6 448.8,181.8 453.2,189.1 457.6,190.5 462.0,195.2 466.4,198.0 470.8,198.0 475.2,198.0 479.6,198.0 483.9,198.0 488.3,198.0 492.7,198.0 497.1,198.0 501.5,198.0 505.9,198.0 510.3,198.0 514.7,198.0 519.1,198.0 523.5,198.0 527.9,198.0 532.3,198.0 536.6,198.0 541.0,198.0 545.4,198.0 549.8,198.0 554.2,198.0 558.6,198.0 563.0,198.0 567.4,198.0 571.8,198.0 576.2,198.0 580.6,198.0 585.0,198.0 589.3,198.0 593.7,198.0 598.1,198.0 602.5,198.0 606.9,198.0 611.3,198.0 615.7,198.0 620.1,198.0 624.5,198.0 628.9,198.0 633.3,198.0 637.7,198.0 642.0,198.0 646.4,198.0 650.8,198.0 655.2,198.0 659.6,198.0 664.0,198.0"/><circle cx="36.0" cy="145.1" r="3" fill="#8a5a5a"/><circle cx="40.4" cy="145.1" r="3" fill="#8a5a5a"/><circle cx="44.8" cy="145.1" r="3" fill="#8a5a5a"/><circle cx="49.2" cy="145.1" r="3" fill="#8a5a5a"/><circle cx="53.6" cy="145.1" r="3" fill="#8a5a5a"/><circle cx="58.0" cy="145.1" r="3" fill="#8a5a5a"/><circle cx="62.3" cy="145.1" r="3" fill="#8a5a5a"/><circle cx="66.7" cy="145.1" r="3" fill="#8a5a5a"/><circle cx="71.1" cy="145.1" r="3" fill="#8a5a5a"/><circle cx="75.5" cy="145.1" r="3" fill="#8a5a5a"/><circle cx="79.9" cy="145.1" r="3" fill="#8a5a5a"/><circle cx="84.3" cy="145.1" r="3" fill="#8a5a5a"/><circle cx="88.7" cy="145.1" r="3" fill="#8a5a5a"/><circle cx="93.1" cy="145.1" r="3" fill="#8a5a5a"/><circle cx="97.5" cy="145.1" r="3" fill="#8a5a5a"/><circle cx="101.9" cy="145.1" r="3" fill="#8a5a5a"/><circle cx="106.3" cy="145.1" r="3" fill="#8a5a5a"/><circle cx="110.7" cy="145.1" r="3" fill="#8a5a5a"/><circle cx="115.0" cy="145.1" r="3" fill="#8a5a5a"/><circle cx="119.4" cy="145.1" r="3" fill="#8a5a5a"/><circle cx="123.8" cy="145.1" r="3" fill="#8a5a5a"/><circle cx="128.2" cy="145.1" r="3" fill="#8a5a5a"/><circle cx="132.6" cy="145.1" r="3" fill="#8a5a5a"/><circle cx="137.0" cy="145.1" r="3" fill="#8a5a5a"/><circle cx="141.4" cy="145.1" r="3" fill="#8a5a5a"/><circle cx="145.8" cy="145.1" r="3" fill="#8a5a5a"/><circle cx="150.2" cy="145.1" r="3" fill="#8a5a5a"/><circle cx="154.6" cy="145.1" r="3" fill="#8a5a5a"/><circle cx="159.0" cy="145.1" r="3" fill="#8a5a5a"/><circle cx="163.4" cy="145.1" r="3" fill="#8a5a5a"/><circle cx="167.7" cy="145.1" r="3" fill="#8a5a5a"/><circle cx="172.1" cy="145.1" r="3" fill="#8a5a5a"/><circle cx="176.5" cy="145.1" r="3" fill="#8a5a5a"/><circle cx="180.9" cy="145.1" r="3" fill="#8a5a5a"/><circle cx="185.3" cy="145.1" r="3" fill="#8a5a5a"/><circle cx="189.7" cy="145.1" r="3" fill="#8a5a5a"/><circle cx="194.1" cy="145.1" r="3" fill="#8a5a5a"/><circle cx="198.5" cy="145.1" r="3" fill="#8a5a5a"/><circle cx="202.9" cy="145.1" r="3" fill="#8a5a5a"/><circle cx="207.3" cy="145.1" r="3" fill="#8a5a5a"/><circle cx="211.7" cy="145.1" r="3" fill="#8a5a5a"/><circle cx="216.1" cy="145.1" r="3" fill="#8a5a5a"/><circle cx="220.4" cy="145.1" r="3" fill="#8a5a5a"/><circle cx="224.8" cy="145.1" r="3" fill="#8a5a5a"/><circle cx="229.2" cy="145.1" r="3" fill="#8a5a5a"/><circle cx="233.6" cy="145.1" r="3" fill="#8a5a5a"/><circle cx="238.0" cy="145.1" r="3" fill="#8a5a5a"/><circle cx="242.4" cy="145.1" r="3" fill="#8a5a5a"/><circle cx="246.8" cy="145.1" r="3" fill="#8a5a5a"/><circle cx="251.2" cy="145.1" r="3" fill="#8a5a5a"/><circle cx="255.6" cy="155.7" r="3" fill="#8a5a5a"/><circle cx="260.0" cy="155.7" r="3" fill="#8a5a5a"/><circle cx="264.4" cy="155.7" r="3" fill="#8a5a5a"/><circle cx="268.8" cy="155.7" r="3" fill="#8a5a5a"/><circle cx="273.1" cy="155.7" r="3" fill="#8a5a5a"/><circle cx="277.5" cy="155.7" r="3" fill="#8a5a5a"/><circle cx="281.9" cy="155.7" r="3" fill="#8a5a5a"/><circle cx="286.3" cy="155.7" r="3" fill="#8a5a5a"/><circle cx="290.7" cy="155.7" r="3" fill="#8a5a5a"/><circle cx="295.1" cy="155.7" r="3" fill="#8a5a5a"/><circle cx="299.5" cy="155.7" r="3" fill="#8a5a5a"/><circle cx="303.9" cy="155.7" r="3" fill="#8a5a5a"/><circle cx="308.3" cy="155.7" r="3" fill="#8a5a5a"/><circle cx="312.7" cy="155.7" r="3" fill="#8a5a5a"/><circle cx="317.1" cy="155.7" r="3" fill="#8a5a5a"/><circle cx="321.5" cy="155.7" r="3" fill="#8a5a5a"/><circle cx="325.8" cy="155.7" r="3" fill="#8a5a5a"/><circle cx="330.2" cy="155.7" r="3" fill="#8a5a5a"/><circle cx="334.6" cy="155.7" r="3" fill="#8a5a5a"/><circle cx="339.0" cy="155.7" r="3" fill="#8a5a5a"/><circle cx="343.4" cy="155.7" r="3" fill="#8a5a5a"/><circle cx="347.8" cy="155.7" r="3" fill="#8a5a5a"/><circle cx="352.2" cy="155.7" r="3" fill="#8a5a5a"/><circle cx="356.6" cy="155.7" r="3" fill="#8a5a5a"/><circle cx="361.0" cy="155.7" r="3" fill="#8a5a5a"/><circle cx="365.4" cy="155.7" r="3" fill="#8a5a5a"/><circle cx="369.8" cy="155.7" r="3" fill="#8a5a5a"/><circle cx="374.2" cy="155.7" r="3" fill="#8a5a5a"/><circle cx="378.5" cy="155.7" r="3" fill="#8a5a5a"/><circle cx="382.9" cy="155.7" r="3" fill="#8a5a5a"/><circle cx="387.3" cy="155.7" r="3" fill="#8a5a5a"/><circle cx="391.7" cy="155.7" r="3" fill="#8a5a5a"/><circle cx="396.1" cy="155.7" r="3" fill="#8a5a5a"/><circle cx="400.5" cy="155.7" r="3" fill="#8a5a5a"/><circle cx="404.9" cy="167.6" r="3" fill="#8a5a5a"/><circle cx="409.3" cy="167.6" r="3" fill="#8a5a5a"/><circle cx="413.7" cy="170.3" r="3" fill="#8a5a5a"/><circle cx="418.1" cy="170.3" r="3" fill="#8a5a5a"/><circle cx="422.5" cy="170.5" r="3" fill="#8a5a5a"/><circle cx="426.9" cy="170.7" r="3" fill="#8a5a5a"/><circle cx="431.2" cy="170.7" r="3" fill="#8a5a5a"/><circle cx="435.6" cy="170.9" r="3" fill="#8a5a5a"/><circle cx="440.0" cy="172.7" r="3" fill="#8a5a5a"/><circle cx="444.4" cy="180.6" r="3" fill="#8a5a5a"/><circle cx="448.8" cy="181.8" r="3" fill="#8a5a5a"/><circle cx="453.2" cy="189.1" r="3" fill="#8a5a5a"/><circle cx="457.6" cy="190.5" r="3" fill="#8a5a5a"/><circle cx="462.0" cy="195.2" r="3" fill="#8a5a5a"/><circle cx="466.4" cy="198.0" r="3" fill="#8a5a5a"/><circle cx="470.8" cy="198.0" r="3" fill="#8a5a5a"/><circle cx="475.2" cy="198.0" r="3" fill="#8a5a5a"/><circle cx="479.6" cy="198.0" r="3" fill="#8a5a5a"/><circle cx="483.9" cy="198.0" r="3" fill="#8a5a5a"/><circle cx="488.3" cy="198.0" r="3" fill="#8a5a5a"/><circle cx="492.7" cy="198.0" r="3" fill="#8a5a5a"/><circle cx="497.1" cy="198.0" r="3" fill="#8a5a5a"/><circle cx="501.5" cy="198.0" r="3" fill="#8a5a5a"/><circle cx="505.9" cy="198.0" r="3" fill="#8a5a5a"/><circle cx="510.3" cy="198.0" r="3" fill="#8a5a5a"/><circle cx="514.7" cy="198.0" r="3" fill="#8a5a5a"/><circle cx="519.1" cy="198.0" r="3" fill="#8a5a5a"/><circle cx="523.5" cy="198.0" r="3" fill="#8a5a5a"/><circle cx="527.9" cy="198.0" r="3" fill="#8a5a5a"/><circle cx="532.3" cy="198.0" r="3" fill="#8a5a5a"/><circle cx="536.6" cy="198.0" r="3" fill="#8a5a5a"/><circle cx="541.0" cy="198.0" r="3" fill="#8a5a5a"/><circle cx="545.4" cy="198.0" r="3" fill="#8a5a5a"/><circle cx="549.8" cy="198.0" r="3" fill="#8a5a5a"/><circle cx="554.2" cy="198.0" r="3" fill="#8a5a5a"/><circle cx="558.6" cy="198.0" r="3" fill="#8a5a5a"/><circle cx="563.0" cy="198.0" r="3" fill="#8a5a5a"/><circle cx="567.4" cy="198.0" r="3" fill="#8a5a5a"/><circle cx="571.8" cy="198.0" r="3" fill="#8a5a5a"/><circle cx="576.2" cy="198.0" r="3" fill="#8a5a5a"/><circle cx="580.6" cy="198.0" r="3" fill="#8a5a5a"/><circle cx="585.0" cy="198.0" r="3" fill="#8a5a5a"/><circle cx="589.3" cy="198.0" r="3" fill="#8a5a5a"/><circle cx="593.7" cy="198.0" r="3" fill="#8a5a5a"/><circle cx="598.1" cy="198.0" r="3" fill="#8a5a5a"/><circle cx="602.5" cy="198.0" r="3" fill="#8a5a5a"/><circle cx="606.9" cy="198.0" r="3" fill="#8a5a5a"/><circle cx="611.3" cy="198.0" r="3" fill="#8a5a5a"/><circle cx="615.7" cy="198.0" r="3" fill="#8a5a5a"/><circle cx="620.1" cy="198.0" r="3" fill="#8a5a5a"/><circle cx="624.5" cy="198.0" r="3" fill="#8a5a5a"/><circle cx="628.9" cy="198.0" r="3" fill="#8a5a5a"/><circle cx="633.3" cy="198.0" r="3" fill="#8a5a5a"/><circle cx="637.7" cy="198.0" r="3" fill="#8a5a5a"/><circle cx="642.0" cy="198.0" r="3" fill="#8a5a5a"/><circle cx="646.4" cy="198.0" r="3" fill="#8a5a5a"/><circle cx="650.8" cy="198.0" r="3" fill="#8a5a5a"/><circle cx="655.2" cy="198.0" r="3" fill="#8a5a5a"/><circle cx="659.6" cy="198.0" r="3" fill="#8a5a5a"/><circle cx="664.0" cy="198.0" r="3" fill="#8a5a5a"/>
<polyline fill="none" stroke="#3fb950" stroke-width="2.5" stroke-linejoin="round" points="36.0,198.0 40.4,198.0 44.8,198.0 49.2,198.0 53.6,198.0 58.0,198.0 62.3,198.0 66.7,198.0 71.1,198.0 75.5,198.0 79.9,198.0 84.3,198.0 88.7,198.0 93.1,198.0 97.5,198.0 101.9,198.0 106.3,198.0 110.7,198.0 115.0,198.0 119.4,198.0 123.8,198.0 128.2,198.0 132.6,198.0 137.0,198.0 141.4,198.0 145.8,198.0 150.2,198.0 154.6,198.0 159.0,198.0 163.4,198.0 167.7,198.0 172.1,198.0 176.5,198.0 180.9,198.0 185.3,198.0 189.7,198.0 194.1,198.0 198.5,198.0 202.9,198.0 207.3,198.0 211.7,198.0 216.1,198.0 220.4,198.0 224.8,191.7 229.2,191.7 233.6,191.7 238.0,191.7 242.4,191.7 246.8,191.7 251.2,191.7 255.6,192.9 260.0,192.9 264.4,190.7 268.8,190.7 273.1,190.7 277.5,190.7 281.9,190.7 286.3,190.5 290.7,190.5 295.1,190.5 299.5,190.3 303.9,190.3 308.3,190.3 312.7,190.3 317.1,190.3 321.5,190.3 325.8,190.3 330.2,190.3 334.6,190.3 339.0,190.3 343.4,190.3 347.8,190.3 352.2,190.3 356.6,190.3 361.0,190.3 365.4,190.3 369.8,190.3 374.2,190.3 378.5,190.3 382.9,190.3 387.3,190.3 391.7,189.3 396.1,189.3 400.5,189.3 404.9,190.7 409.3,190.7 413.7,190.7 418.1,190.7 422.5,190.7 426.9,190.7 431.2,190.7 435.6,190.7 440.0,190.7 444.4,190.9 448.8,190.9 453.2,190.9 457.6,194.2 462.0,196.8 466.4,198.0 470.8,198.0 475.2,198.0 479.6,198.0 483.9,198.0 488.3,198.0 492.7,198.0 497.1,198.0 501.5,198.0 505.9,198.0 510.3,198.0 514.7,198.0 519.1,198.0 523.5,198.0 527.9,198.0 532.3,198.0 536.6,198.0 541.0,198.0 545.4,198.0 549.8,198.0 554.2,198.0 558.6,198.0 563.0,198.0 567.4,198.0 571.8,198.0 576.2,198.0 580.6,198.0 585.0,198.0 589.3,198.0 593.7,198.0 598.1,198.0 602.5,198.0 606.9,198.0 611.3,198.0 615.7,198.0 620.1,198.0 624.5,198.0 628.9,198.0 633.3,198.0 637.7,198.0 642.0,198.0 646.4,198.0 650.8,198.0 655.2,198.0 659.6,198.0 664.0,198.0"/><circle cx="36.0" cy="198.0" r="3" fill="#3fb950"/><circle cx="40.4" cy="198.0" r="3" fill="#3fb950"/><circle cx="44.8" cy="198.0" r="3" fill="#3fb950"/><circle cx="49.2" cy="198.0" r="3" fill="#3fb950"/><circle cx="53.6" cy="198.0" r="3" fill="#3fb950"/><circle cx="58.0" cy="198.0" r="3" fill="#3fb950"/><circle cx="62.3" cy="198.0" r="3" fill="#3fb950"/><circle cx="66.7" cy="198.0" r="3" fill="#3fb950"/><circle cx="71.1" cy="198.0" r="3" fill="#3fb950"/><circle cx="75.5" cy="198.0" r="3" fill="#3fb950"/><circle cx="79.9" cy="198.0" r="3" fill="#3fb950"/><circle cx="84.3" cy="198.0" r="3" fill="#3fb950"/><circle cx="88.7" cy="198.0" r="3" fill="#3fb950"/><circle cx="93.1" cy="198.0" r="3" fill="#3fb950"/><circle cx="97.5" cy="198.0" r="3" fill="#3fb950"/><circle cx="101.9" cy="198.0" r="3" fill="#3fb950"/><circle cx="106.3" cy="198.0" r="3" fill="#3fb950"/><circle cx="110.7" cy="198.0" r="3" fill="#3fb950"/><circle cx="115.0" cy="198.0" r="3" fill="#3fb950"/><circle cx="119.4" cy="198.0" r="3" fill="#3fb950"/><circle cx="123.8" cy="198.0" r="3" fill="#3fb950"/><circle cx="128.2" cy="198.0" r="3" fill="#3fb950"/><circle cx="132.6" cy="198.0" r="3" fill="#3fb950"/><circle cx="137.0" cy="198.0" r="3" fill="#3fb950"/><circle cx="141.4" cy="198.0" r="3" fill="#3fb950"/><circle cx="145.8" cy="198.0" r="3" fill="#3fb950"/><circle cx="150.2" cy="198.0" r="3" fill="#3fb950"/><circle cx="154.6" cy="198.0" r="3" fill="#3fb950"/><circle cx="159.0" cy="198.0" r="3" fill="#3fb950"/><circle cx="163.4" cy="198.0" r="3" fill="#3fb950"/><circle cx="167.7" cy="198.0" r="3" fill="#3fb950"/><circle cx="172.1" cy="198.0" r="3" fill="#3fb950"/><circle cx="176.5" cy="198.0" r="3" fill="#3fb950"/><circle cx="180.9" cy="198.0" r="3" fill="#3fb950"/><circle cx="185.3" cy="198.0" r="3" fill="#3fb950"/><circle cx="189.7" cy="198.0" r="3" fill="#3fb950"/><circle cx="194.1" cy="198.0" r="3" fill="#3fb950"/><circle cx="198.5" cy="198.0" r="3" fill="#3fb950"/><circle cx="202.9" cy="198.0" r="3" fill="#3fb950"/><circle cx="207.3" cy="198.0" r="3" fill="#3fb950"/><circle cx="211.7" cy="198.0" r="3" fill="#3fb950"/><circle cx="216.1" cy="198.0" r="3" fill="#3fb950"/><circle cx="220.4" cy="198.0" r="3" fill="#3fb950"/><circle cx="224.8" cy="191.7" r="3" fill="#3fb950"/><circle cx="229.2" cy="191.7" r="3" fill="#3fb950"/><circle cx="233.6" cy="191.7" r="3" fill="#3fb950"/><circle cx="238.0" cy="191.7" r="3" fill="#3fb950"/><circle cx="242.4" cy="191.7" r="3" fill="#3fb950"/><circle cx="246.8" cy="191.7" r="3" fill="#3fb950"/><circle cx="251.2" cy="191.7" r="3" fill="#3fb950"/><circle cx="255.6" cy="192.9" r="3" fill="#3fb950"/><circle cx="260.0" cy="192.9" r="3" fill="#3fb950"/><circle cx="264.4" cy="190.7" r="3" fill="#3fb950"/><circle cx="268.8" cy="190.7" r="3" fill="#3fb950"/><circle cx="273.1" cy="190.7" r="3" fill="#3fb950"/><circle cx="277.5" cy="190.7" r="3" fill="#3fb950"/><circle cx="281.9" cy="190.7" r="3" fill="#3fb950"/><circle cx="286.3" cy="190.5" r="3" fill="#3fb950"/><circle cx="290.7" cy="190.5" r="3" fill="#3fb950"/><circle cx="295.1" cy="190.5" r="3" fill="#3fb950"/><circle cx="299.5" cy="190.3" r="3" fill="#3fb950"/><circle cx="303.9" cy="190.3" r="3" fill="#3fb950"/><circle cx="308.3" cy="190.3" r="3" fill="#3fb950"/><circle cx="312.7" cy="190.3" r="3" fill="#3fb950"/><circle cx="317.1" cy="190.3" r="3" fill="#3fb950"/><circle cx="321.5" cy="190.3" r="3" fill="#3fb950"/><circle cx="325.8" cy="190.3" r="3" fill="#3fb950"/><circle cx="330.2" cy="190.3" r="3" fill="#3fb950"/><circle cx="334.6" cy="190.3" r="3" fill="#3fb950"/><circle cx="339.0" cy="190.3" r="3" fill="#3fb950"/><circle cx="343.4" cy="190.3" r="3" fill="#3fb950"/><circle cx="347.8" cy="190.3" r="3" fill="#3fb950"/><circle cx="352.2" cy="190.3" r="3" fill="#3fb950"/><circle cx="356.6" cy="190.3" r="3" fill="#3fb950"/><circle cx="361.0" cy="190.3" r="3" fill="#3fb950"/><circle cx="365.4" cy="190.3" r="3" fill="#3fb950"/><circle cx="369.8" cy="190.3" r="3" fill="#3fb950"/><circle cx="374.2" cy="190.3" r="3" fill="#3fb950"/><circle cx="378.5" cy="190.3" r="3" fill="#3fb950"/><circle cx="382.9" cy="190.3" r="3" fill="#3fb950"/><circle cx="387.3" cy="190.3" r="3" fill="#3fb950"/><circle cx="391.7" cy="189.3" r="3" fill="#3fb950"/><circle cx="396.1" cy="189.3" r="3" fill="#3fb950"/><circle cx="400.5" cy="189.3" r="3" fill="#3fb950"/><circle cx="404.9" cy="190.7" r="3" fill="#3fb950"/><circle cx="409.3" cy="190.7" r="3" fill="#3fb950"/><circle cx="413.7" cy="190.7" r="3" fill="#3fb950"/><circle cx="418.1" cy="190.7" r="3" fill="#3fb950"/><circle cx="422.5" cy="190.7" r="3" fill="#3fb950"/><circle cx="426.9" cy="190.7" r="3" fill="#3fb950"/><circle cx="431.2" cy="190.7" r="3" fill="#3fb950"/><circle cx="435.6" cy="190.7" r="3" fill="#3fb950"/><circle cx="440.0" cy="190.7" r="3" fill="#3fb950"/><circle cx="444.4" cy="190.9" r="3" fill="#3fb950"/><circle cx="448.8" cy="190.9" r="3" fill="#3fb950"/><circle cx="453.2" cy="190.9" r="3" fill="#3fb950"/><circle cx="457.6" cy="194.2" r="3" fill="#3fb950"/><circle cx="462.0" cy="196.8" r="3" fill="#3fb950"/><circle cx="466.4" cy="198.0" r="3" fill="#3fb950"/><circle cx="470.8" cy="198.0" r="3" fill="#3fb950"/><circle cx="475.2" cy="198.0" r="3" fill="#3fb950"/><circle cx="479.6" cy="198.0" r="3" fill="#3fb950"/><circle cx="483.9" cy="198.0" r="3" fill="#3fb950"/><circle cx="488.3" cy="198.0" r="3" fill="#3fb950"/><circle cx="492.7" cy="198.0" r="3" fill="#3fb950"/><circle cx="497.1" cy="198.0" r="3" fill="#3fb950"/><circle cx="501.5" cy="198.0" r="3" fill="#3fb950"/><circle cx="505.9" cy="198.0" r="3" fill="#3fb950"/><circle cx="510.3" cy="198.0" r="3" fill="#3fb950"/><circle cx="514.7" cy="198.0" r="3" fill="#3fb950"/><circle cx="519.1" cy="198.0" r="3" fill="#3fb950"/><circle cx="523.5" cy="198.0" r="3" fill="#3fb950"/><circle cx="527.9" cy="198.0" r="3" fill="#3fb950"/><circle cx="532.3" cy="198.0" r="3" fill="#3fb950"/><circle cx="536.6" cy="198.0" r="3" fill="#3fb950"/><circle cx="541.0" cy="198.0" r="3" fill="#3fb950"/><circle cx="545.4" cy="198.0" r="3" fill="#3fb950"/><circle cx="549.8" cy="198.0" r="3" fill="#3fb950"/><circle cx="554.2" cy="198.0" r="3" fill="#3fb950"/><circle cx="558.6" cy="198.0" r="3" fill="#3fb950"/><circle cx="563.0" cy="198.0" r="3" fill="#3fb950"/><circle cx="567.4" cy="198.0" r="3" fill="#3fb950"/><circle cx="571.8" cy="198.0" r="3" fill="#3fb950"/><circle cx="576.2" cy="198.0" r="3" fill="#3fb950"/><circle cx="580.6" cy="198.0" r="3" fill="#3fb950"/><circle cx="585.0" cy="198.0" r="3" fill="#3fb950"/><circle cx="589.3" cy="198.0" r="3" fill="#3fb950"/><circle cx="593.7" cy="198.0" r="3" fill="#3fb950"/><circle cx="598.1" cy="198.0" r="3" fill="#3fb950"/><circle cx="602.5" cy="198.0" r="3" fill="#3fb950"/><circle cx="606.9" cy="198.0" r="3" fill="#3fb950"/><circle cx="611.3" cy="198.0" r="3" fill="#3fb950"/><circle cx="615.7" cy="198.0" r="3" fill="#3fb950"/><circle cx="620.1" cy="198.0" r="3" fill="#3fb950"/><circle cx="624.5" cy="198.0" r="3" fill="#3fb950"/><circle cx="628.9" cy="198.0" r="3" fill="#3fb950"/><circle cx="633.3" cy="198.0" r="3" fill="#3fb950"/><circle cx="637.7" cy="198.0" r="3" fill="#3fb950"/><circle cx="642.0" cy="198.0" r="3" fill="#3fb950"/><circle cx="646.4" cy="198.0" r="3" fill="#3fb950"/><circle cx="650.8" cy="198.0" r="3" fill="#3fb950"/><circle cx="655.2" cy="198.0" r="3" fill="#3fb950"/><circle cx="659.6" cy="198.0" r="3" fill="#3fb950"/><circle cx="664.0" cy="198.0" r="3" fill="#3fb950"/>
<polyline fill="none" stroke="#4aa3ff" stroke-width="2.5" stroke-linejoin="round" points="36.0,144.3 40.4,144.3 44.8,144.3 49.2,144.3 53.6,144.3 58.0,144.3 62.3,144.3 66.7,144.3 71.1,144.3 75.5,144.3 79.9,144.3 84.3,144.3 88.7,144.3 93.1,144.3 97.5,144.3 101.9,136.2 106.3,132.4 110.7,129.6 115.0,129.6 119.4,121.0 123.8,121.0 128.2,121.0 132.6,114.4 137.0,114.4 141.4,114.4 145.8,111.3 150.2,110.9 154.6,110.9 159.0,110.5 163.4,110.5 167.7,109.9 172.1,108.7 176.5,107.3 180.9,106.9 185.3,106.9 189.7,106.9 194.1,106.9 198.5,106.9 202.9,106.9 207.3,106.9 211.7,106.9 216.1,106.9 220.4,106.9 224.8,113.2 229.2,113.2 233.6,113.2 238.0,113.2 242.4,113.2 246.8,110.7 251.2,105.3 255.6,83.4 260.0,83.4 264.4,85.6 268.8,85.6 273.1,85.6 277.5,85.6 281.9,85.6 286.3,85.8 290.7,85.8 295.1,85.8 299.5,86.0 303.9,86.0 308.3,86.0 312.7,86.0 317.1,86.0 321.5,86.0 325.8,86.0 330.2,86.0 334.6,86.0 339.0,86.0 343.4,86.0 347.8,86.0 352.2,86.0 356.6,86.0 361.0,86.0 365.4,86.0 369.8,86.0 374.2,86.0 378.5,86.0 382.9,86.0 387.3,86.0 391.7,87.0 396.1,87.0 400.5,87.0 404.9,73.7 409.3,73.7 413.7,71.0 418.1,71.0 422.5,70.8 426.9,70.6 431.2,70.6 435.6,70.4 440.0,68.6 444.4,60.5 448.8,59.3 453.2,52.0 457.6,47.3 462.0,40.1 466.4,36.0 470.8,36.0 475.2,36.0 479.6,36.0 483.9,36.0 488.3,36.0 492.7,36.0 497.1,36.0 501.5,36.0 505.9,36.0 510.3,36.0 514.7,36.0 519.1,36.0 523.5,36.0 527.9,36.0 532.3,36.0 536.6,36.0 541.0,36.0 545.4,36.0 549.8,36.0 554.2,36.0 558.6,36.0 563.0,36.0 567.4,36.0 571.8,36.0 576.2,36.0 580.6,36.0 585.0,36.0 589.3,36.0 593.7,36.0 598.1,36.0 602.5,36.0 606.9,36.0 611.3,36.0 615.7,36.0 620.1,36.0 624.5,36.0 628.9,36.0 633.3,36.0 637.7,36.0 642.0,36.0 646.4,36.0 650.8,36.0 655.2,36.0 659.6,36.0 664.0,36.0"/><circle cx="36.0" cy="144.3" r="3" fill="#4aa3ff"/><circle cx="40.4" cy="144.3" r="3" fill="#4aa3ff"/><circle cx="44.8" cy="144.3" r="3" fill="#4aa3ff"/><circle cx="49.2" cy="144.3" r="3" fill="#4aa3ff"/><circle cx="53.6" cy="144.3" r="3" fill="#4aa3ff"/><circle cx="58.0" cy="144.3" r="3" fill="#4aa3ff"/><circle cx="62.3" cy="144.3" r="3" fill="#4aa3ff"/><circle cx="66.7" cy="144.3" r="3" fill="#4aa3ff"/><circle cx="71.1" cy="144.3" r="3" fill="#4aa3ff"/><circle cx="75.5" cy="144.3" r="3" fill="#4aa3ff"/><circle cx="79.9" cy="144.3" r="3" fill="#4aa3ff"/><circle cx="84.3" cy="144.3" r="3" fill="#4aa3ff"/><circle cx="88.7" cy="144.3" r="3" fill="#4aa3ff"/><circle cx="93.1" cy="144.3" r="3" fill="#4aa3ff"/><circle cx="97.5" cy="144.3" r="3" fill="#4aa3ff"/><circle cx="101.9" cy="136.2" r="3" fill="#4aa3ff"/><circle cx="106.3" cy="132.4" r="3" fill="#4aa3ff"/><circle cx="110.7" cy="129.6" r="3" fill="#4aa3ff"/><circle cx="115.0" cy="129.6" r="3" fill="#4aa3ff"/><circle cx="119.4" cy="121.0" r="3" fill="#4aa3ff"/><circle cx="123.8" cy="121.0" r="3" fill="#4aa3ff"/><circle cx="128.2" cy="121.0" r="3" fill="#4aa3ff"/><circle cx="132.6" cy="114.4" r="3" fill="#4aa3ff"/><circle cx="137.0" cy="114.4" r="3" fill="#4aa3ff"/><circle cx="141.4" cy="114.4" r="3" fill="#4aa3ff"/><circle cx="145.8" cy="111.3" r="3" fill="#4aa3ff"/><circle cx="150.2" cy="110.9" r="3" fill="#4aa3ff"/><circle cx="154.6" cy="110.9" r="3" fill="#4aa3ff"/><circle cx="159.0" cy="110.5" r="3" fill="#4aa3ff"/><circle cx="163.4" cy="110.5" r="3" fill="#4aa3ff"/><circle cx="167.7" cy="109.9" r="3" fill="#4aa3ff"/><circle cx="172.1" cy="108.7" r="3" fill="#4aa3ff"/><circle cx="176.5" cy="107.3" r="3" fill="#4aa3ff"/><circle cx="180.9" cy="106.9" r="3" fill="#4aa3ff"/><circle cx="185.3" cy="106.9" r="3" fill="#4aa3ff"/><circle cx="189.7" cy="106.9" r="3" fill="#4aa3ff"/><circle cx="194.1" cy="106.9" r="3" fill="#4aa3ff"/><circle cx="198.5" cy="106.9" r="3" fill="#4aa3ff"/><circle cx="202.9" cy="106.9" r="3" fill="#4aa3ff"/><circle cx="207.3" cy="106.9" r="3" fill="#4aa3ff"/><circle cx="211.7" cy="106.9" r="3" fill="#4aa3ff"/><circle cx="216.1" cy="106.9" r="3" fill="#4aa3ff"/><circle cx="220.4" cy="106.9" r="3" fill="#4aa3ff"/><circle cx="224.8" cy="113.2" r="3" fill="#4aa3ff"/><circle cx="229.2" cy="113.2" r="3" fill="#4aa3ff"/><circle cx="233.6" cy="113.2" r="3" fill="#4aa3ff"/><circle cx="238.0" cy="113.2" r="3" fill="#4aa3ff"/><circle cx="242.4" cy="113.2" r="3" fill="#4aa3ff"/><circle cx="246.8" cy="110.7" r="3" fill="#4aa3ff"/><circle cx="251.2" cy="105.3" r="3" fill="#4aa3ff"/><circle cx="255.6" cy="83.4" r="3" fill="#4aa3ff"/><circle cx="260.0" cy="83.4" r="3" fill="#4aa3ff"/><circle cx="264.4" cy="85.6" r="3" fill="#4aa3ff"/><circle cx="268.8" cy="85.6" r="3" fill="#4aa3ff"/><circle cx="273.1" cy="85.6" r="3" fill="#4aa3ff"/><circle cx="277.5" cy="85.6" r="3" fill="#4aa3ff"/><circle cx="281.9" cy="85.6" r="3" fill="#4aa3ff"/><circle cx="286.3" cy="85.8" r="3" fill="#4aa3ff"/><circle cx="290.7" cy="85.8" r="3" fill="#4aa3ff"/><circle cx="295.1" cy="85.8" r="3" fill="#4aa3ff"/><circle cx="299.5" cy="86.0" r="3" fill="#4aa3ff"/><circle cx="303.9" cy="86.0" r="3" fill="#4aa3ff"/><circle cx="308.3" cy="86.0" r="3" fill="#4aa3ff"/><circle cx="312.7" cy="86.0" r="3" fill="#4aa3ff"/><circle cx="317.1" cy="86.0" r="3" fill="#4aa3ff"/><circle cx="321.5" cy="86.0" r="3" fill="#4aa3ff"/><circle cx="325.8" cy="86.0" r="3" fill="#4aa3ff"/><circle cx="330.2" cy="86.0" r="3" fill="#4aa3ff"/><circle cx="334.6" cy="86.0" r="3" fill="#4aa3ff"/><circle cx="339.0" cy="86.0" r="3" fill="#4aa3ff"/><circle cx="343.4" cy="86.0" r="3" fill="#4aa3ff"/><circle cx="347.8" cy="86.0" r="3" fill="#4aa3ff"/><circle cx="352.2" cy="86.0" r="3" fill="#4aa3ff"/><circle cx="356.6" cy="86.0" r="3" fill="#4aa3ff"/><circle cx="361.0" cy="86.0" r="3" fill="#4aa3ff"/><circle cx="365.4" cy="86.0" r="3" fill="#4aa3ff"/><circle cx="369.8" cy="86.0" r="3" fill="#4aa3ff"/><circle cx="374.2" cy="86.0" r="3" fill="#4aa3ff"/><circle cx="378.5" cy="86.0" r="3" fill="#4aa3ff"/><circle cx="382.9" cy="86.0" r="3" fill="#4aa3ff"/><circle cx="387.3" cy="86.0" r="3" fill="#4aa3ff"/><circle cx="391.7" cy="87.0" r="3" fill="#4aa3ff"/><circle cx="396.1" cy="87.0" r="3" fill="#4aa3ff"/><circle cx="400.5" cy="87.0" r="3" fill="#4aa3ff"/><circle cx="404.9" cy="73.7" r="3" fill="#4aa3ff"/><circle cx="409.3" cy="73.7" r="3" fill="#4aa3ff"/><circle cx="413.7" cy="71.0" r="3" fill="#4aa3ff"/><circle cx="418.1" cy="71.0" r="3" fill="#4aa3ff"/><circle cx="422.5" cy="70.8" r="3" fill="#4aa3ff"/><circle cx="426.9" cy="70.6" r="3" fill="#4aa3ff"/><circle cx="431.2" cy="70.6" r="3" fill="#4aa3ff"/><circle cx="435.6" cy="70.4" r="3" fill="#4aa3ff"/><circle cx="440.0" cy="68.6" r="3" fill="#4aa3ff"/><circle cx="444.4" cy="60.5" r="3" fill="#4aa3ff"/><circle cx="448.8" cy="59.3" r="3" fill="#4aa3ff"/><circle cx="453.2" cy="52.0" r="3" fill="#4aa3ff"/><circle cx="457.6" cy="47.3" r="3" fill="#4aa3ff"/><circle cx="462.0" cy="40.1" r="3" fill="#4aa3ff"/><circle cx="466.4" cy="36.0" r="3" fill="#4aa3ff"/><circle cx="470.8" cy="36.0" r="3" fill="#4aa3ff"/><circle cx="475.2" cy="36.0" r="3" fill="#4aa3ff"/><circle cx="479.6" cy="36.0" r="3" fill="#4aa3ff"/><circle cx="483.9" cy="36.0" r="3" fill="#4aa3ff"/><circle cx="488.3" cy="36.0" r="3" fill="#4aa3ff"/><circle cx="492.7" cy="36.0" r="3" fill="#4aa3ff"/><circle cx="497.1" cy="36.0" r="3" fill="#4aa3ff"/><circle cx="501.5" cy="36.0" r="3" fill="#4aa3ff"/><circle cx="505.9" cy="36.0" r="3" fill="#4aa3ff"/><circle cx="510.3" cy="36.0" r="3" fill="#4aa3ff"/><circle cx="514.7" cy="36.0" r="3" fill="#4aa3ff"/><circle cx="519.1" cy="36.0" r="3" fill="#4aa3ff"/><circle cx="523.5" cy="36.0" r="3" fill="#4aa3ff"/><circle cx="527.9" cy="36.0" r="3" fill="#4aa3ff"/><circle cx="532.3" cy="36.0" r="3" fill="#4aa3ff"/><circle cx="536.6" cy="36.0" r="3" fill="#4aa3ff"/><circle cx="541.0" cy="36.0" r="3" fill="#4aa3ff"/><circle cx="545.4" cy="36.0" r="3" fill="#4aa3ff"/><circle cx="549.8" cy="36.0" r="3" fill="#4aa3ff"/><circle cx="554.2" cy="36.0" r="3" fill="#4aa3ff"/><circle cx="558.6" cy="36.0" r="3" fill="#4aa3ff"/><circle cx="563.0" cy="36.0" r="3" fill="#4aa3ff"/><circle cx="567.4" cy="36.0" r="3" fill="#4aa3ff"/><circle cx="571.8" cy="36.0" r="3" fill="#4aa3ff"/><circle cx="576.2" cy="36.0" r="3" fill="#4aa3ff"/><circle cx="580.6" cy="36.0" r="3" fill="#4aa3ff"/><circle cx="585.0" cy="36.0" r="3" fill="#4aa3ff"/><circle cx="589.3" cy="36.0" r="3" fill="#4aa3ff"/><circle cx="593.7" cy="36.0" r="3" fill="#4aa3ff"/><circle cx="598.1" cy="36.0" r="3" fill="#4aa3ff"/><circle cx="602.5" cy="36.0" r="3" fill="#4aa3ff"/><circle cx="606.9" cy="36.0" r="3" fill="#4aa3ff"/><circle cx="611.3" cy="36.0" r="3" fill="#4aa3ff"/><circle cx="615.7" cy="36.0" r="3" fill="#4aa3ff"/><circle cx="620.1" cy="36.0" r="3" fill="#4aa3ff"/><circle cx="624.5" cy="36.0" r="3" fill="#4aa3ff"/><circle cx="628.9" cy="36.0" r="3" fill="#4aa3ff"/><circle cx="633.3" cy="36.0" r="3" fill="#4aa3ff"/><circle cx="637.7" cy="36.0" r="3" fill="#4aa3ff"/><circle cx="642.0" cy="36.0" r="3" fill="#4aa3ff"/><circle cx="646.4" cy="36.0" r="3" fill="#4aa3ff"/><circle cx="650.8" cy="36.0" r="3" fill="#4aa3ff"/><circle cx="655.2" cy="36.0" r="3" fill="#4aa3ff"/><circle cx="659.6" cy="36.0" r="3" fill="#4aa3ff"/><circle cx="664.0" cy="36.0" r="3" fill="#4aa3ff"/>
<text x="36" y="225" fill="#6b7280" font-size="11">2026-06-26</text>
<text x="664" y="225" fill="#6b7280" font-size="11" text-anchor="end">2026-07-11</text>
<text x="36" y="212" font-family="system-ui,sans-serif" font-size="11">
<tspan fill="#4aa3ff">&#9679; open FPs</tspan>  <tspan fill="#3fb950">&#9679; closed (Anthropic acting)</tspan>  <tspan fill="#8a5a5a">&#9679; harness withdrawn</tspan></text>
<text x="664" y="22" text-anchor="end" font-family="system-ui,sans-serif" font-size="12">
<tspan fill="#4aa3ff">open 800</tspan>  <tspan fill="#3fb950">closed 0</tspan>  <tspan fill="#8a5a5a">harness 0</tspan></text>
</svg>