<svg xmlns="http://www.w3.org/2000/svg" width="700" height="234" viewBox="0 0 700 234" role="img">
<rect width="700" height="234" rx="12" fill="#16181d"/>
<text x="36" y="22" fill="#e8eaed" font-family="system-ui,sans-serif" font-size="14" font-weight="700">Is Anthropic acting? cyber/aup false positives over time</text>
<line x1="36" y1="198.0" x2="664" y2="198.0" stroke="#2a2e37" stroke-width="1"/><text x="30" y="202.0" fill="#6b7280" font-size="11" text-anchor="end">0</text><line x1="36" y1="117.0" x2="664" y2="117.0" stroke="#2a2e37" stroke-width="1"/><text x="30" y="121.0" fill="#6b7280" font-size="11" text-anchor="end">400</text><line x1="36" y1="36.0" x2="664" y2="36.0" stroke="#2a2e37" stroke-width="1"/><text x="30" y="40.0" fill="#6b7280" font-size="11" text-anchor="end">800</text>

<polyline fill="none" stroke="#8a5a5a" stroke-width="2.5" stroke-linejoin="round" points="36.0,145.1 39.3,145.1 42.5,145.1 45.8,145.1 49.0,145.1 52.3,145.1 55.5,145.1 58.8,145.1 62.0,145.1 65.3,145.1 68.5,145.1 71.8,145.1 75.0,145.1 78.3,145.1 81.6,145.1 84.8,145.1 88.1,145.1 91.3,145.1 94.6,145.1 97.8,145.1 101.1,145.1 104.3,145.1 107.6,145.1 110.8,145.1 114.1,145.1 117.3,145.1 120.6,145.1 123.9,145.1 127.1,145.1 130.4,145.1 133.6,145.1 136.9,145.1 140.1,145.1 143.4,145.1 146.6,145.1 149.9,145.1 153.1,145.1 156.4,145.1 159.6,145.1 162.9,145.1 166.2,145.1 169.4,145.1 172.7,145.1 175.9,145.1 179.2,145.1 182.4,145.1 185.7,145.1 188.9,145.1 192.2,145.1 195.4,145.1 198.7,155.7 201.9,155.7 205.2,155.7 208.5,155.7 211.7,155.7 215.0,155.7 218.2,155.7 221.5,155.7 224.7,155.7 228.0,155.7 231.2,155.7 234.5,155.7 237.7,155.7 241.0,155.7 244.2,155.7 247.5,155.7 250.8,155.7 254.0,155.7 257.3,155.7 260.5,155.7 263.8,155.7 267.0,155.7 270.3,155.7 273.5,155.7 276.8,155.7 280.0,155.7 283.3,155.7 286.5,155.7 289.8,155.7 293.1,155.7 296.3,155.7 299.6,155.7 302.8,155.7 306.1,155.7 309.3,167.6 312.6,167.6 315.8,170.3 319.1,170.3 322.3,170.5 325.6,170.7 328.8,170.7 332.1,170.9 335.4,172.7 338.6,180.6 341.9,181.8 345.1,189.1 348.4,190.5 351.6,195.2 354.9,198.0 358.1,198.0 361.4,198.0 364.6,198.0 367.9,198.0 371.2,198.0 374.4,198.0 377.7,198.0 380.9,198.0 384.2,198.0 387.4,198.0 390.7,198.0 393.9,198.0 397.2,198.0 400.4,198.0 403.7,198.0 406.9,198.0 410.2,198.0 413.5,198.0 416.7,198.0 420.0,198.0 423.2,198.0 426.5,198.0 429.7,198.0 433.0,198.0 436.2,198.0 439.5,198.0 442.7,198.0 446.0,198.0 449.2,198.0 452.5,198.0 455.8,198.0 459.0,198.0 462.3,198.0 465.5,198.0 468.8,198.0 472.0,198.0 475.3,198.0 478.5,198.0 481.8,198.0 485.0,198.0 488.3,198.0 491.5,198.0 494.8,198.0 498.1,198.0 501.3,198.0 504.6,198.0 507.8,198.0 511.1,198.0 514.3,198.0 517.6,198.0 520.8,198.0 524.1,198.0 527.3,198.0 530.6,198.0 533.8,198.0 537.1,198.0 540.4,198.0 543.6,198.0 546.9,198.0 550.1,198.0 553.4,198.0 556.6,198.0 559.9,198.0 563.1,198.0 566.4,198.0 569.6,198.0 572.9,198.0 576.1,198.0 579.4,198.0 582.7,198.0 585.9,198.0 589.2,198.0 592.4,198.0 595.7,198.0 598.9,198.0 602.2,198.0 605.4,198.0 608.7,198.0 611.9,198.0 615.2,198.0 618.4,198.0 621.7,198.0 625.0,198.0 628.2,198.0 631.5,198.0 634.7,198.0 638.0,198.0 641.2,198.0 644.5,198.0 647.7,198.0 651.0,198.0 654.2,198.0 657.5,198.0 660.7,198.0 664.0,198.0"/><circle cx="36.0" cy="145.1" r="3" fill="#8a5a5a"/><circle cx="39.3" cy="145.1" r="3" fill="#8a5a5a"/><circle cx="42.5" cy="145.1" r="3" fill="#8a5a5a"/><circle cx="45.8" cy="145.1" r="3" fill="#8a5a5a"/><circle cx="49.0" cy="145.1" r="3" fill="#8a5a5a"/><circle cx="52.3" cy="145.1" r="3" fill="#8a5a5a"/><circle cx="55.5" cy="145.1" r="3" fill="#8a5a5a"/><circle cx="58.8" cy="145.1" r="3" fill="#8a5a5a"/><circle cx="62.0" cy="145.1" r="3" fill="#8a5a5a"/><circle cx="65.3" cy="145.1" r="3" fill="#8a5a5a"/><circle cx="68.5" cy="145.1" r="3" fill="#8a5a5a"/><circle cx="71.8" cy="145.1" r="3" fill="#8a5a5a"/><circle cx="75.0" cy="145.1" r="3" fill="#8a5a5a"/><circle cx="78.3" cy="145.1" r="3" fill="#8a5a5a"/><circle cx="81.6" cy="145.1" r="3" fill="#8a5a5a"/><circle cx="84.8" cy="145.1" r="3" fill="#8a5a5a"/><circle cx="88.1" cy="145.1" r="3" fill="#8a5a5a"/><circle cx="91.3" cy="145.1" r="3" fill="#8a5a5a"/><circle cx="94.6" cy="145.1" r="3" fill="#8a5a5a"/><circle cx="97.8" cy="145.1" r="3" fill="#8a5a5a"/><circle cx="101.1" cy="145.1" r="3" fill="#8a5a5a"/><circle cx="104.3" cy="145.1" r="3" fill="#8a5a5a"/><circle cx="107.6" cy="145.1" r="3" fill="#8a5a5a"/><circle cx="110.8" cy="145.1" r="3" fill="#8a5a5a"/><circle cx="114.1" cy="145.1" r="3" fill="#8a5a5a"/><circle cx="117.3" cy="145.1" r="3" fill="#8a5a5a"/><circle cx="120.6" cy="145.1" r="3" fill="#8a5a5a"/><circle cx="123.9" cy="145.1" r="3" fill="#8a5a5a"/><circle cx="127.1" cy="145.1" r="3" fill="#8a5a5a"/><circle cx="130.4" cy="145.1" r="3" fill="#8a5a5a"/><circle cx="133.6" cy="145.1" r="3" fill="#8a5a5a"/><circle cx="136.9" cy="145.1" r="3" fill="#8a5a5a"/><circle cx="140.1" cy="145.1" r="3" fill="#8a5a5a"/><circle cx="143.4" cy="145.1" r="3" fill="#8a5a5a"/><circle cx="146.6" cy="145.1" r="3" fill="#8a5a5a"/><circle cx="149.9" cy="145.1" r="3" fill="#8a5a5a"/><circle cx="153.1" cy="145.1" r="3" fill="#8a5a5a"/><circle cx="156.4" cy="145.1" r="3" fill="#8a5a5a"/><circle cx="159.6" cy="145.1" r="3" fill="#8a5a5a"/><circle cx="162.9" cy="145.1" r="3" fill="#8a5a5a"/><circle cx="166.2" cy="145.1" r="3" fill="#8a5a5a"/><circle cx="169.4" cy="145.1" r="3" fill="#8a5a5a"/><circle cx="172.7" cy="145.1" r="3" fill="#8a5a5a"/><circle cx="175.9" cy="145.1" r="3" fill="#8a5a5a"/><circle cx="179.2" cy="145.1" r="3" fill="#8a5a5a"/><circle cx="182.4" cy="145.1" r="3" fill="#8a5a5a"/><circle cx="185.7" cy="145.1" r="3" fill="#8a5a5a"/><circle cx="188.9" cy="145.1" r="3" fill="#8a5a5a"/><circle cx="192.2" cy="145.1" r="3" fill="#8a5a5a"/><circle cx="195.4" cy="145.1" r="3" fill="#8a5a5a"/><circle cx="198.7" cy="155.7" r="3" fill="#8a5a5a"/><circle cx="201.9" cy="155.7" r="3" fill="#8a5a5a"/><circle cx="205.2" cy="155.7" r="3" fill="#8a5a5a"/><circle cx="208.5" cy="155.7" r="3" fill="#8a5a5a"/><circle cx="211.7" cy="155.7" r="3" fill="#8a5a5a"/><circle cx="215.0" cy="155.7" r="3" fill="#8a5a5a"/><circle cx="218.2" cy="155.7" r="3" fill="#8a5a5a"/><circle cx="221.5" cy="155.7" r="3" fill="#8a5a5a"/><circle cx="224.7" cy="155.7" r="3" fill="#8a5a5a"/><circle cx="228.0" cy="155.7" r="3" fill="#8a5a5a"/><circle cx="231.2" cy="155.7" r="3" fill="#8a5a5a"/><circle cx="234.5" cy="155.7" r="3" fill="#8a5a5a"/><circle cx="237.7" cy="155.7" r="3" fill="#8a5a5a"/><circle cx="241.0" cy="155.7" r="3" fill="#8a5a5a"/><circle cx="244.2" cy="155.7" r="3" fill="#8a5a5a"/><circle cx="247.5" cy="155.7" r="3" fill="#8a5a5a"/><circle cx="250.8" cy="155.7" r="3" fill="#8a5a5a"/><circle cx="254.0" cy="155.7" r="3" fill="#8a5a5a"/><circle cx="257.3" cy="155.7" r="3" fill="#8a5a5a"/><circle cx="260.5" cy="155.7" r="3" fill="#8a5a5a"/><circle cx="263.8" cy="155.7" r="3" fill="#8a5a5a"/><circle cx="267.0" cy="155.7" r="3" fill="#8a5a5a"/><circle cx="270.3" cy="155.7" r="3" fill="#8a5a5a"/><circle cx="273.5" cy="155.7" r="3" fill="#8a5a5a"/><circle cx="276.8" cy="155.7" r="3" fill="#8a5a5a"/><circle cx="280.0" cy="155.7" r="3" fill="#8a5a5a"/><circle cx="283.3" cy="155.7" r="3" fill="#8a5a5a"/><circle cx="286.5" cy="155.7" r="3" fill="#8a5a5a"/><circle cx="289.8" cy="155.7" r="3" fill="#8a5a5a"/><circle cx="293.1" cy="155.7" r="3" fill="#8a5a5a"/><circle cx="296.3" cy="155.7" r="3" fill="#8a5a5a"/><circle cx="299.6" cy="155.7" r="3" fill="#8a5a5a"/><circle cx="302.8" cy="155.7" r="3" fill="#8a5a5a"/><circle cx="306.1" cy="155.7" r="3" fill="#8a5a5a"/><circle cx="309.3" cy="167.6" r="3" fill="#8a5a5a"/><circle cx="312.6" cy="167.6" r="3" fill="#8a5a5a"/><circle cx="315.8" cy="170.3" r="3" fill="#8a5a5a"/><circle cx="319.1" cy="170.3" r="3" fill="#8a5a5a"/><circle cx="322.3" cy="170.5" r="3" fill="#8a5a5a"/><circle cx="325.6" cy="170.7" r="3" fill="#8a5a5a"/><circle cx="328.8" cy="170.7" r="3" fill="#8a5a5a"/><circle cx="332.1" cy="170.9" r="3" fill="#8a5a5a"/><circle cx="335.4" cy="172.7" r="3" fill="#8a5a5a"/><circle cx="338.6" cy="180.6" r="3" fill="#8a5a5a"/><circle cx="341.9" cy="181.8" r="3" fill="#8a5a5a"/><circle cx="345.1" cy="189.1" r="3" fill="#8a5a5a"/><circle cx="348.4" cy="190.5" r="3" fill="#8a5a5a"/><circle cx="351.6" cy="195.2" r="3" fill="#8a5a5a"/><circle cx="354.9" cy="198.0" r="3" fill="#8a5a5a"/><circle cx="358.1" cy="198.0" r="3" fill="#8a5a5a"/><circle cx="361.4" cy="198.0" r="3" fill="#8a5a5a"/><circle cx="364.6" cy="198.0" r="3" fill="#8a5a5a"/><circle cx="367.9" cy="198.0" r="3" fill="#8a5a5a"/><circle cx="371.2" cy="198.0" r="3" fill="#8a5a5a"/><circle cx="374.4" cy="198.0" r="3" fill="#8a5a5a"/><circle cx="377.7" cy="198.0" r="3" fill="#8a5a5a"/><circle cx="380.9" cy="198.0" r="3" fill="#8a5a5a"/><circle cx="384.2" cy="198.0" r="3" fill="#8a5a5a"/><circle cx="387.4" cy="198.0" r="3" fill="#8a5a5a"/><circle cx="390.7" cy="198.0" r="3" fill="#8a5a5a"/><circle cx="393.9" cy="198.0" r="3" fill="#8a5a5a"/><circle cx="397.2" cy="198.0" r="3" fill="#8a5a5a"/><circle cx="400.4" cy="198.0" r="3" fill="#8a5a5a"/><circle cx="403.7" cy="198.0" r="3" fill="#8a5a5a"/><circle cx="406.9" cy="198.0" r="3" fill="#8a5a5a"/><circle cx="410.2" cy="198.0" r="3" fill="#8a5a5a"/><circle cx="413.5" cy="198.0" r="3" fill="#8a5a5a"/><circle cx="416.7" cy="198.0" r="3" fill="#8a5a5a"/><circle cx="420.0" cy="198.0" r="3" fill="#8a5a5a"/><circle cx="423.2" cy="198.0" r="3" fill="#8a5a5a"/><circle cx="426.5" cy="198.0" r="3" fill="#8a5a5a"/><circle cx="429.7" cy="198.0" r="3" fill="#8a5a5a"/><circle cx="433.0" cy="198.0" r="3" fill="#8a5a5a"/><circle cx="436.2" cy="198.0" r="3" fill="#8a5a5a"/><circle cx="439.5" cy="198.0" r="3" fill="#8a5a5a"/><circle cx="442.7" cy="198.0" r="3" fill="#8a5a5a"/><circle cx="446.0" cy="198.0" r="3" fill="#8a5a5a"/><circle cx="449.2" cy="198.0" r="3" fill="#8a5a5a"/><circle cx="452.5" cy="198.0" r="3" fill="#8a5a5a"/><circle cx="455.8" cy="198.0" r="3" fill="#8a5a5a"/><circle cx="459.0" cy="198.0" r="3" fill="#8a5a5a"/><circle cx="462.3" cy="198.0" r="3" fill="#8a5a5a"/><circle cx="465.5" cy="198.0" r="3" fill="#8a5a5a"/><circle cx="468.8" cy="198.0" r="3" fill="#8a5a5a"/><circle cx="472.0" cy="198.0" r="3" fill="#8a5a5a"/><circle cx="475.3" cy="198.0" r="3" fill="#8a5a5a"/><circle cx="478.5" cy="198.0" r="3" fill="#8a5a5a"/><circle cx="481.8" cy="198.0" r="3" fill="#8a5a5a"/><circle cx="485.0" cy="198.0" r="3" fill="#8a5a5a"/><circle cx="488.3" cy="198.0" r="3" fill="#8a5a5a"/><circle cx="491.5" cy="198.0" r="3" fill="#8a5a5a"/><circle cx="494.8" cy="198.0" r="3" fill="#8a5a5a"/><circle cx="498.1" cy="198.0" r="3" fill="#8a5a5a"/><circle cx="501.3" cy="198.0" r="3" fill="#8a5a5a"/><circle cx="504.6" cy="198.0" r="3" fill="#8a5a5a"/><circle cx="507.8" cy="198.0" r="3" fill="#8a5a5a"/><circle cx="511.1" cy="198.0" r="3" fill="#8a5a5a"/><circle cx="514.3" cy="198.0" r="3" fill="#8a5a5a"/><circle cx="517.6" cy="198.0" r="3" fill="#8a5a5a"/><circle cx="520.8" cy="198.0" r="3" fill="#8a5a5a"/><circle cx="524.1" cy="198.0" r="3" fill="#8a5a5a"/><circle cx="527.3" cy="198.0" r="3" fill="#8a5a5a"/><circle cx="530.6" cy="198.0" r="3" fill="#8a5a5a"/><circle cx="533.8" cy="198.0" r="3" fill="#8a5a5a"/><circle cx="537.1" cy="198.0" r="3" fill="#8a5a5a"/><circle cx="540.4" cy="198.0" r="3" fill="#8a5a5a"/><circle cx="543.6" cy="198.0" r="3" fill="#8a5a5a"/><circle cx="546.9" cy="198.0" r="3" fill="#8a5a5a"/><circle cx="550.1" cy="198.0" r="3" fill="#8a5a5a"/><circle cx="553.4" cy="198.0" r="3" fill="#8a5a5a"/><circle cx="556.6" cy="198.0" r="3" fill="#8a5a5a"/><circle cx="559.9" cy="198.0" r="3" fill="#8a5a5a"/><circle cx="563.1" cy="198.0" r="3" fill="#8a5a5a"/><circle cx="566.4" cy="198.0" r="3" fill="#8a5a5a"/><circle cx="569.6" cy="198.0" r="3" fill="#8a5a5a"/><circle cx="572.9" cy="198.0" r="3" fill="#8a5a5a"/><circle cx="576.1" cy="198.0" r="3" fill="#8a5a5a"/><circle cx="579.4" cy="198.0" r="3" fill="#8a5a5a"/><circle cx="582.7" cy="198.0" r="3" fill="#8a5a5a"/><circle cx="585.9" cy="198.0" r="3" fill="#8a5a5a"/><circle cx="589.2" cy="198.0" r="3" fill="#8a5a5a"/><circle cx="592.4" cy="198.0" r="3" fill="#8a5a5a"/><circle cx="595.7" cy="198.0" r="3" fill="#8a5a5a"/><circle cx="598.9" cy="198.0" r="3" fill="#8a5a5a"/><circle cx="602.2" cy="198.0" r="3" fill="#8a5a5a"/><circle cx="605.4" cy="198.0" r="3" fill="#8a5a5a"/><circle cx="608.7" cy="198.0" r="3" fill="#8a5a5a"/><circle cx="611.9" cy="198.0" r="3" fill="#8a5a5a"/><circle cx="615.2" cy="198.0" r="3" fill="#8a5a5a"/><circle cx="618.4" cy="198.0" r="3" fill="#8a5a5a"/><circle cx="621.7" cy="198.0" r="3" fill="#8a5a5a"/><circle cx="625.0" cy="198.0" r="3" fill="#8a5a5a"/><circle cx="628.2" cy="198.0" r="3" fill="#8a5a5a"/><circle cx="631.5" cy="198.0" r="3" fill="#8a5a5a"/><circle cx="634.7" cy="198.0" r="3" fill="#8a5a5a"/><circle cx="638.0" cy="198.0" r="3" fill="#8a5a5a"/><circle cx="641.2" cy="198.0" r="3" fill="#8a5a5a"/><circle cx="644.5" cy="198.0" r="3" fill="#8a5a5a"/><circle cx="647.7" cy="198.0" r="3" fill="#8a5a5a"/><circle cx="651.0" cy="198.0" r="3" fill="#8a5a5a"/><circle cx="654.2" cy="198.0" r="3" fill="#8a5a5a"/><circle cx="657.5" cy="198.0" r="3" fill="#8a5a5a"/><circle cx="660.7" cy="198.0" r="3" fill="#8a5a5a"/><circle cx="664.0" cy="198.0" r="3" fill="#8a5a5a"/>
<polyline fill="none" stroke="#3fb950" stroke-width="2.5" stroke-linejoin="round" points="36.0,198.0 39.3,198.0 42.5,198.0 45.8,198.0 49.0,198.0 52.3,198.0 55.5,198.0 58.8,198.0 62.0,198.0 65.3,198.0 68.5,198.0 71.8,198.0 75.0,198.0 78.3,198.0 81.6,198.0 84.8,198.0 88.1,198.0 91.3,198.0 94.6,198.0 97.8,198.0 101.1,198.0 104.3,198.0 107.6,198.0 110.8,198.0 114.1,198.0 117.3,198.0 120.6,198.0 123.9,198.0 127.1,198.0 130.4,198.0 133.6,198.0 136.9,198.0 140.1,198.0 143.4,198.0 146.6,198.0 149.9,198.0 153.1,198.0 156.4,198.0 159.6,198.0 162.9,198.0 166.2,198.0 169.4,198.0 172.7,198.0 175.9,191.7 179.2,191.7 182.4,191.7 185.7,191.7 188.9,191.7 192.2,191.7 195.4,191.7 198.7,192.9 201.9,192.9 205.2,190.7 208.5,190.7 211.7,190.7 215.0,190.7 218.2,190.7 221.5,190.5 224.7,190.5 228.0,190.5 231.2,190.3 234.5,190.3 237.7,190.3 241.0,190.3 244.2,190.3 247.5,190.3 250.8,190.3 254.0,190.3 257.3,190.3 260.5,190.3 263.8,190.3 267.0,190.3 270.3,190.3 273.5,190.3 276.8,190.3 280.0,190.3 283.3,190.3 286.5,190.3 289.8,190.3 293.1,190.3 296.3,190.3 299.6,189.3 302.8,189.3 306.1,189.3 309.3,190.7 312.6,190.7 315.8,190.7 319.1,190.7 322.3,190.7 325.6,190.7 328.8,190.7 332.1,190.7 335.4,190.7 338.6,190.9 341.9,190.9 345.1,190.9 348.4,194.2 351.6,196.8 354.9,198.0 358.1,198.0 361.4,198.0 364.6,198.0 367.9,198.0 371.2,198.0 374.4,198.0 377.7,198.0 380.9,198.0 384.2,198.0 387.4,198.0 390.7,198.0 393.9,198.0 397.2,198.0 400.4,198.0 403.7,198.0 406.9,198.0 410.2,198.0 413.5,198.0 416.7,198.0 420.0,198.0 423.2,198.0 426.5,198.0 429.7,198.0 433.0,198.0 436.2,198.0 439.5,198.0 442.7,198.0 446.0,198.0 449.2,198.0 452.5,198.0 455.8,198.0 459.0,198.0 462.3,198.0 465.5,198.0 468.8,198.0 472.0,198.0 475.3,198.0 478.5,198.0 481.8,198.0 485.0,198.0 488.3,198.0 491.5,198.0 494.8,198.0 498.1,198.0 501.3,198.0 504.6,198.0 507.8,198.0 511.1,198.0 514.3,198.0 517.6,198.0 520.8,198.0 524.1,198.0 527.3,198.0 530.6,198.0 533.8,198.0 537.1,198.0 540.4,198.0 543.6,198.0 546.9,198.0 550.1,198.0 553.4,198.0 556.6,198.0 559.9,198.0 563.1,198.0 566.4,198.0 569.6,198.0 572.9,198.0 576.1,198.0 579.4,198.0 582.7,198.0 585.9,198.0 589.2,198.0 592.4,198.0 595.7,198.0 598.9,198.0 602.2,198.0 605.4,198.0 608.7,198.0 611.9,198.0 615.2,198.0 618.4,198.0 621.7,198.0 625.0,198.0 628.2,198.0 631.5,198.0 634.7,198.0 638.0,198.0 641.2,198.0 644.5,198.0 647.7,198.0 651.0,198.0 654.2,198.0 657.5,198.0 660.7,198.0 664.0,198.0"/><circle cx="36.0" cy="198.0" r="3" fill="#3fb950"/><circle cx="39.3" cy="198.0" r="3" fill="#3fb950"/><circle cx="42.5" cy="198.0" r="3" fill="#3fb950"/><circle cx="45.8" cy="198.0" r="3" fill="#3fb950"/><circle cx="49.0" cy="198.0" r="3" fill="#3fb950"/><circle cx="52.3" cy="198.0" r="3" fill="#3fb950"/><circle cx="55.5" cy="198.0" r="3" fill="#3fb950"/><circle cx="58.8" cy="198.0" r="3" fill="#3fb950"/><circle cx="62.0" cy="198.0" r="3" fill="#3fb950"/><circle cx="65.3" cy="198.0" r="3" fill="#3fb950"/><circle cx="68.5" cy="198.0" r="3" fill="#3fb950"/><circle cx="71.8" cy="198.0" r="3" fill="#3fb950"/><circle cx="75.0" cy="198.0" r="3" fill="#3fb950"/><circle cx="78.3" cy="198.0" r="3" fill="#3fb950"/><circle cx="81.6" cy="198.0" r="3" fill="#3fb950"/><circle cx="84.8" cy="198.0" r="3" fill="#3fb950"/><circle cx="88.1" cy="198.0" r="3" fill="#3fb950"/><circle cx="91.3" cy="198.0" r="3" fill="#3fb950"/><circle cx="94.6" cy="198.0" r="3" fill="#3fb950"/><circle cx="97.8" cy="198.0" r="3" fill="#3fb950"/><circle cx="101.1" cy="198.0" r="3" fill="#3fb950"/><circle cx="104.3" cy="198.0" r="3" fill="#3fb950"/><circle cx="107.6" cy="198.0" r="3" fill="#3fb950"/><circle cx="110.8" cy="198.0" r="3" fill="#3fb950"/><circle cx="114.1" cy="198.0" r="3" fill="#3fb950"/><circle cx="117.3" cy="198.0" r="3" fill="#3fb950"/><circle cx="120.6" cy="198.0" r="3" fill="#3fb950"/><circle cx="123.9" cy="198.0" r="3" fill="#3fb950"/><circle cx="127.1" cy="198.0" r="3" fill="#3fb950"/><circle cx="130.4" cy="198.0" r="3" fill="#3fb950"/><circle cx="133.6" cy="198.0" r="3" fill="#3fb950"/><circle cx="136.9" cy="198.0" r="3" fill="#3fb950"/><circle cx="140.1" cy="198.0" r="3" fill="#3fb950"/><circle cx="143.4" cy="198.0" r="3" fill="#3fb950"/><circle cx="146.6" cy="198.0" r="3" fill="#3fb950"/><circle cx="149.9" cy="198.0" r="3" fill="#3fb950"/><circle cx="153.1" cy="198.0" r="3" fill="#3fb950"/><circle cx="156.4" cy="198.0" r="3" fill="#3fb950"/><circle cx="159.6" cy="198.0" r="3" fill="#3fb950"/><circle cx="162.9" cy="198.0" r="3" fill="#3fb950"/><circle cx="166.2" cy="198.0" r="3" fill="#3fb950"/><circle cx="169.4" cy="198.0" r="3" fill="#3fb950"/><circle cx="172.7" cy="198.0" r="3" fill="#3fb950"/><circle cx="175.9" cy="191.7" r="3" fill="#3fb950"/><circle cx="179.2" cy="191.7" r="3" fill="#3fb950"/><circle cx="182.4" cy="191.7" r="3" fill="#3fb950"/><circle cx="185.7" cy="191.7" r="3" fill="#3fb950"/><circle cx="188.9" cy="191.7" r="3" fill="#3fb950"/><circle cx="192.2" cy="191.7" r="3" fill="#3fb950"/><circle cx="195.4" cy="191.7" r="3" fill="#3fb950"/><circle cx="198.7" cy="192.9" r="3" fill="#3fb950"/><circle cx="201.9" cy="192.9" r="3" fill="#3fb950"/><circle cx="205.2" cy="190.7" r="3" fill="#3fb950"/><circle cx="208.5" cy="190.7" r="3" fill="#3fb950"/><circle cx="211.7" cy="190.7" r="3" fill="#3fb950"/><circle cx="215.0" cy="190.7" r="3" fill="#3fb950"/><circle cx="218.2" cy="190.7" r="3" fill="#3fb950"/><circle cx="221.5" cy="190.5" r="3" fill="#3fb950"/><circle cx="224.7" cy="190.5" r="3" fill="#3fb950"/><circle cx="228.0" cy="190.5" r="3" fill="#3fb950"/><circle cx="231.2" cy="190.3" r="3" fill="#3fb950"/><circle cx="234.5" cy="190.3" r="3" fill="#3fb950"/><circle cx="237.7" cy="190.3" r="3" fill="#3fb950"/><circle cx="241.0" cy="190.3" r="3" fill="#3fb950"/><circle cx="244.2" cy="190.3" r="3" fill="#3fb950"/><circle cx="247.5" cy="190.3" r="3" fill="#3fb950"/><circle cx="250.8" cy="190.3" r="3" fill="#3fb950"/><circle cx="254.0" cy="190.3" r="3" fill="#3fb950"/><circle cx="257.3" cy="190.3" r="3" fill="#3fb950"/><circle cx="260.5" cy="190.3" r="3" fill="#3fb950"/><circle cx="263.8" cy="190.3" r="3" fill="#3fb950"/><circle cx="267.0" cy="190.3" r="3" fill="#3fb950"/><circle cx="270.3" cy="190.3" r="3" fill="#3fb950"/><circle cx="273.5" cy="190.3" r="3" fill="#3fb950"/><circle cx="276.8" cy="190.3" r="3" fill="#3fb950"/><circle cx="280.0" cy="190.3" r="3" fill="#3fb950"/><circle cx="283.3" cy="190.3" r="3" fill="#3fb950"/><circle cx="286.5" cy="190.3" r="3" fill="#3fb950"/><circle cx="289.8" cy="190.3" r="3" fill="#3fb950"/><circle cx="293.1" cy="190.3" r="3" fill="#3fb950"/><circle cx="296.3" cy="190.3" r="3" fill="#3fb950"/><circle cx="299.6" cy="189.3" r="3" fill="#3fb950"/><circle cx="302.8" cy="189.3" r="3" fill="#3fb950"/><circle cx="306.1" cy="189.3" r="3" fill="#3fb950"/><circle cx="309.3" cy="190.7" r="3" fill="#3fb950"/><circle cx="312.6" cy="190.7" r="3" fill="#3fb950"/><circle cx="315.8" cy="190.7" r="3" fill="#3fb950"/><circle cx="319.1" cy="190.7" r="3" fill="#3fb950"/><circle cx="322.3" cy="190.7" r="3" fill="#3fb950"/><circle cx="325.6" cy="190.7" r="3" fill="#3fb950"/><circle cx="328.8" cy="190.7" r="3" fill="#3fb950"/><circle cx="332.1" cy="190.7" r="3" fill="#3fb950"/><circle cx="335.4" cy="190.7" r="3" fill="#3fb950"/><circle cx="338.6" cy="190.9" r="3" fill="#3fb950"/><circle cx="341.9" cy="190.9" r="3" fill="#3fb950"/><circle cx="345.1" cy="190.9" r="3" fill="#3fb950"/><circle cx="348.4" cy="194.2" r="3" fill="#3fb950"/><circle cx="351.6" cy="196.8" r="3" fill="#3fb950"/><circle cx="354.9" cy="198.0" r="3" fill="#3fb950"/><circle cx="358.1" cy="198.0" r="3" fill="#3fb950"/><circle cx="361.4" cy="198.0" r="3" fill="#3fb950"/><circle cx="364.6" cy="198.0" r="3" fill="#3fb950"/><circle cx="367.9" cy="198.0" r="3" fill="#3fb950"/><circle cx="371.2" cy="198.0" r="3" fill="#3fb950"/><circle cx="374.4" cy="198.0" r="3" fill="#3fb950"/><circle cx="377.7" cy="198.0" r="3" fill="#3fb950"/><circle cx="380.9" cy="198.0" r="3" fill="#3fb950"/><circle cx="384.2" cy="198.0" r="3" fill="#3fb950"/><circle cx="387.4" cy="198.0" r="3" fill="#3fb950"/><circle cx="390.7" cy="198.0" r="3" fill="#3fb950"/><circle cx="393.9" cy="198.0" r="3" fill="#3fb950"/><circle cx="397.2" cy="198.0" r="3" fill="#3fb950"/><circle cx="400.4" cy="198.0" r="3" fill="#3fb950"/><circle cx="403.7" cy="198.0" r="3" fill="#3fb950"/><circle cx="406.9" cy="198.0" r="3" fill="#3fb950"/><circle cx="410.2" cy="198.0" r="3" fill="#3fb950"/><circle cx="413.5" cy="198.0" r="3" fill="#3fb950"/><circle cx="416.7" cy="198.0" r="3" fill="#3fb950"/><circle cx="420.0" cy="198.0" r="3" fill="#3fb950"/><circle cx="423.2" cy="198.0" r="3" fill="#3fb950"/><circle cx="426.5" cy="198.0" r="3" fill="#3fb950"/><circle cx="429.7" cy="198.0" r="3" fill="#3fb950"/><circle cx="433.0" cy="198.0" r="3" fill="#3fb950"/><circle cx="436.2" cy="198.0" r="3" fill="#3fb950"/><circle cx="439.5" cy="198.0" r="3" fill="#3fb950"/><circle cx="442.7" cy="198.0" r="3" fill="#3fb950"/><circle cx="446.0" cy="198.0" r="3" fill="#3fb950"/><circle cx="449.2" cy="198.0" r="3" fill="#3fb950"/><circle cx="452.5" cy="198.0" r="3" fill="#3fb950"/><circle cx="455.8" cy="198.0" r="3" fill="#3fb950"/><circle cx="459.0" cy="198.0" r="3" fill="#3fb950"/><circle cx="462.3" cy="198.0" r="3" fill="#3fb950"/><circle cx="465.5" cy="198.0" r="3" fill="#3fb950"/><circle cx="468.8" cy="198.0" r="3" fill="#3fb950"/><circle cx="472.0" cy="198.0" r="3" fill="#3fb950"/><circle cx="475.3" cy="198.0" r="3" fill="#3fb950"/><circle cx="478.5" cy="198.0" r="3" fill="#3fb950"/><circle cx="481.8" cy="198.0" r="3" fill="#3fb950"/><circle cx="485.0" cy="198.0" r="3" fill="#3fb950"/><circle cx="488.3" cy="198.0" r="3" fill="#3fb950"/><circle cx="491.5" cy="198.0" r="3" fill="#3fb950"/><circle cx="494.8" cy="198.0" r="3" fill="#3fb950"/><circle cx="498.1" cy="198.0" r="3" fill="#3fb950"/><circle cx="501.3" cy="198.0" r="3" fill="#3fb950"/><circle cx="504.6" cy="198.0" r="3" fill="#3fb950"/><circle cx="507.8" cy="198.0" r="3" fill="#3fb950"/><circle cx="511.1" cy="198.0" r="3" fill="#3fb950"/><circle cx="514.3" cy="198.0" r="3" fill="#3fb950"/><circle cx="517.6" cy="198.0" r="3" fill="#3fb950"/><circle cx="520.8" cy="198.0" r="3" fill="#3fb950"/><circle cx="524.1" cy="198.0" r="3" fill="#3fb950"/><circle cx="527.3" cy="198.0" r="3" fill="#3fb950"/><circle cx="530.6" cy="198.0" r="3" fill="#3fb950"/><circle cx="533.8" cy="198.0" r="3" fill="#3fb950"/><circle cx="537.1" cy="198.0" r="3" fill="#3fb950"/><circle cx="540.4" cy="198.0" r="3" fill="#3fb950"/><circle cx="543.6" cy="198.0" r="3" fill="#3fb950"/><circle cx="546.9" cy="198.0" r="3" fill="#3fb950"/><circle cx="550.1" cy="198.0" r="3" fill="#3fb950"/><circle cx="553.4" cy="198.0" r="3" fill="#3fb950"/><circle cx="556.6" cy="198.0" r="3" fill="#3fb950"/><circle cx="559.9" cy="198.0" r="3" fill="#3fb950"/><circle cx="563.1" cy="198.0" r="3" fill="#3fb950"/><circle cx="566.4" cy="198.0" r="3" fill="#3fb950"/><circle cx="569.6" cy="198.0" r="3" fill="#3fb950"/><circle cx="572.9" cy="198.0" r="3" fill="#3fb950"/><circle cx="576.1" cy="198.0" r="3" fill="#3fb950"/><circle cx="579.4" cy="198.0" r="3" fill="#3fb950"/><circle cx="582.7" cy="198.0" r="3" fill="#3fb950"/><circle cx="585.9" cy="198.0" r="3" fill="#3fb950"/><circle cx="589.2" cy="198.0" r="3" fill="#3fb950"/><circle cx="592.4" cy="198.0" r="3" fill="#3fb950"/><circle cx="595.7" cy="198.0" r="3" fill="#3fb950"/><circle cx="598.9" cy="198.0" r="3" fill="#3fb950"/><circle cx="602.2" cy="198.0" r="3" fill="#3fb950"/><circle cx="605.4" cy="198.0" r="3" fill="#3fb950"/><circle cx="608.7" cy="198.0" r="3" fill="#3fb950"/><circle cx="611.9" cy="198.0" r="3" fill="#3fb950"/><circle cx="615.2" cy="198.0" r="3" fill="#3fb950"/><circle cx="618.4" cy="198.0" r="3" fill="#3fb950"/><circle cx="621.7" cy="198.0" r="3" fill="#3fb950"/><circle cx="625.0" cy="198.0" r="3" fill="#3fb950"/><circle cx="628.2" cy="198.0" r="3" fill="#3fb950"/><circle cx="631.5" cy="198.0" r="3" fill="#3fb950"/><circle cx="634.7" cy="198.0" r="3" fill="#3fb950"/><circle cx="638.0" cy="198.0" r="3" fill="#3fb950"/><circle cx="641.2" cy="198.0" r="3" fill="#3fb950"/><circle cx="644.5" cy="198.0" r="3" fill="#3fb950"/><circle cx="647.7" cy="198.0" r="3" fill="#3fb950"/><circle cx="651.0" cy="198.0" r="3" fill="#3fb950"/><circle cx="654.2" cy="198.0" r="3" fill="#3fb950"/><circle cx="657.5" cy="198.0" r="3" fill="#3fb950"/><circle cx="660.7" cy="198.0" r="3" fill="#3fb950"/><circle cx="664.0" cy="198.0" r="3" fill="#3fb950"/>
<polyline fill="none" stroke="#4aa3ff" stroke-width="2.5" stroke-linejoin="round" points="36.0,144.3 39.3,144.3 42.5,144.3 45.8,144.3 49.0,144.3 52.3,144.3 55.5,144.3 58.8,144.3 62.0,144.3 65.3,144.3 68.5,144.3 71.8,144.3 75.0,144.3 78.3,144.3 81.6,144.3 84.8,136.2 88.1,132.4 91.3,129.6 94.6,129.6 97.8,121.0 101.1,121.0 104.3,121.0 107.6,114.4 110.8,114.4 114.1,114.4 117.3,111.3 120.6,110.9 123.9,110.9 127.1,110.5 130.4,110.5 133.6,109.9 136.9,108.7 140.1,107.3 143.4,106.9 146.6,106.9 149.9,106.9 153.1,106.9 156.4,106.9 159.6,106.9 162.9,106.9 166.2,106.9 169.4,106.9 172.7,106.9 175.9,113.2 179.2,113.2 182.4,113.2 185.7,113.2 188.9,113.2 192.2,110.7 195.4,105.3 198.7,83.4 201.9,83.4 205.2,85.6 208.5,85.6 211.7,85.6 215.0,85.6 218.2,85.6 221.5,85.8 224.7,85.8 228.0,85.8 231.2,86.0 234.5,86.0 237.7,86.0 241.0,86.0 244.2,86.0 247.5,86.0 250.8,86.0 254.0,86.0 257.3,86.0 260.5,86.0 263.8,86.0 267.0,86.0 270.3,86.0 273.5,86.0 276.8,86.0 280.0,86.0 283.3,86.0 286.5,86.0 289.8,86.0 293.1,86.0 296.3,86.0 299.6,87.0 302.8,87.0 306.1,87.0 309.3,73.7 312.6,73.7 315.8,71.0 319.1,71.0 322.3,70.8 325.6,70.6 328.8,70.6 332.1,70.4 335.4,68.6 338.6,60.5 341.9,59.3 345.1,52.0 348.4,47.3 351.6,40.1 354.9,36.0 358.1,36.0 361.4,36.0 364.6,36.0 367.9,36.0 371.2,36.0 374.4,36.0 377.7,36.0 380.9,36.0 384.2,36.0 387.4,36.0 390.7,36.0 393.9,36.0 397.2,36.0 400.4,36.0 403.7,36.0 406.9,36.0 410.2,36.0 413.5,36.0 416.7,36.0 420.0,36.0 423.2,36.0 426.5,36.0 429.7,36.0 433.0,36.0 436.2,36.0 439.5,36.0 442.7,36.0 446.0,36.0 449.2,36.0 452.5,36.0 455.8,36.0 459.0,36.0 462.3,36.0 465.5,36.0 468.8,36.0 472.0,36.0 475.3,36.0 478.5,36.0 481.8,36.0 485.0,36.0 488.3,36.0 491.5,36.0 494.8,36.0 498.1,36.0 501.3,36.0 504.6,36.0 507.8,36.0 511.1,36.0 514.3,36.0 517.6,36.0 520.8,36.0 524.1,36.0 527.3,36.0 530.6,36.0 533.8,36.0 537.1,36.0 540.4,36.0 543.6,36.0 546.9,36.0 550.1,36.0 553.4,36.0 556.6,36.0 559.9,36.0 563.1,36.0 566.4,36.0 569.6,36.0 572.9,36.0 576.1,36.0 579.4,36.0 582.7,36.0 585.9,36.0 589.2,36.0 592.4,36.0 595.7,36.0 598.9,36.0 602.2,36.0 605.4,36.0 608.7,36.0 611.9,36.0 615.2,36.0 618.4,36.0 621.7,36.0 625.0,36.0 628.2,36.0 631.5,36.0 634.7,36.0 638.0,36.0 641.2,36.0 644.5,36.0 647.7,36.0 651.0,36.0 654.2,36.0 657.5,36.0 660.7,36.0 664.0,36.0"/><circle cx="36.0" cy="144.3" r="3" fill="#4aa3ff"/><circle cx="39.3" cy="144.3" r="3" fill="#4aa3ff"/><circle cx="42.5" cy="144.3" r="3" fill="#4aa3ff"/><circle cx="45.8" cy="144.3" r="3" fill="#4aa3ff"/><circle cx="49.0" cy="144.3" r="3" fill="#4aa3ff"/><circle cx="52.3" cy="144.3" r="3" fill="#4aa3ff"/><circle cx="55.5" cy="144.3" r="3" fill="#4aa3ff"/><circle cx="58.8" cy="144.3" r="3" fill="#4aa3ff"/><circle cx="62.0" cy="144.3" r="3" fill="#4aa3ff"/><circle cx="65.3" cy="144.3" r="3" fill="#4aa3ff"/><circle cx="68.5" cy="144.3" r="3" fill="#4aa3ff"/><circle cx="71.8" cy="144.3" r="3" fill="#4aa3ff"/><circle cx="75.0" cy="144.3" r="3" fill="#4aa3ff"/><circle cx="78.3" cy="144.3" r="3" fill="#4aa3ff"/><circle cx="81.6" cy="144.3" r="3" fill="#4aa3ff"/><circle cx="84.8" cy="136.2" r="3" fill="#4aa3ff"/><circle cx="88.1" cy="132.4" r="3" fill="#4aa3ff"/><circle cx="91.3" cy="129.6" r="3" fill="#4aa3ff"/><circle cx="94.6" cy="129.6" r="3" fill="#4aa3ff"/><circle cx="97.8" cy="121.0" r="3" fill="#4aa3ff"/><circle cx="101.1" cy="121.0" r="3" fill="#4aa3ff"/><circle cx="104.3" cy="121.0" r="3" fill="#4aa3ff"/><circle cx="107.6" cy="114.4" r="3" fill="#4aa3ff"/><circle cx="110.8" cy="114.4" r="3" fill="#4aa3ff"/><circle cx="114.1" cy="114.4" r="3" fill="#4aa3ff"/><circle cx="117.3" cy="111.3" r="3" fill="#4aa3ff"/><circle cx="120.6" cy="110.9" r="3" fill="#4aa3ff"/><circle cx="123.9" cy="110.9" r="3" fill="#4aa3ff"/><circle cx="127.1" cy="110.5" r="3" fill="#4aa3ff"/><circle cx="130.4" cy="110.5" r="3" fill="#4aa3ff"/><circle cx="133.6" cy="109.9" r="3" fill="#4aa3ff"/><circle cx="136.9" cy="108.7" r="3" fill="#4aa3ff"/><circle cx="140.1" cy="107.3" r="3" fill="#4aa3ff"/><circle cx="143.4" cy="106.9" r="3" fill="#4aa3ff"/><circle cx="146.6" cy="106.9" r="3" fill="#4aa3ff"/><circle cx="149.9" cy="106.9" r="3" fill="#4aa3ff"/><circle cx="153.1" cy="106.9" r="3" fill="#4aa3ff"/><circle cx="156.4" cy="106.9" r="3" fill="#4aa3ff"/><circle cx="159.6" cy="106.9" r="3" fill="#4aa3ff"/><circle cx="162.9" cy="106.9" r="3" fill="#4aa3ff"/><circle cx="166.2" cy="106.9" r="3" fill="#4aa3ff"/><circle cx="169.4" cy="106.9" r="3" fill="#4aa3ff"/><circle cx="172.7" cy="106.9" r="3" fill="#4aa3ff"/><circle cx="175.9" cy="113.2" r="3" fill="#4aa3ff"/><circle cx="179.2" cy="113.2" r="3" fill="#4aa3ff"/><circle cx="182.4" cy="113.2" r="3" fill="#4aa3ff"/><circle cx="185.7" cy="113.2" r="3" fill="#4aa3ff"/><circle cx="188.9" cy="113.2" r="3" fill="#4aa3ff"/><circle cx="192.2" cy="110.7" r="3" fill="#4aa3ff"/><circle cx="195.4" cy="105.3" r="3" fill="#4aa3ff"/><circle cx="198.7" cy="83.4" r="3" fill="#4aa3ff"/><circle cx="201.9" cy="83.4" r="3" fill="#4aa3ff"/><circle cx="205.2" cy="85.6" r="3" fill="#4aa3ff"/><circle cx="208.5" cy="85.6" r="3" fill="#4aa3ff"/><circle cx="211.7" cy="85.6" r="3" fill="#4aa3ff"/><circle cx="215.0" cy="85.6" r="3" fill="#4aa3ff"/><circle cx="218.2" cy="85.6" r="3" fill="#4aa3ff"/><circle cx="221.5" cy="85.8" r="3" fill="#4aa3ff"/><circle cx="224.7" cy="85.8" r="3" fill="#4aa3ff"/><circle cx="228.0" cy="85.8" r="3" fill="#4aa3ff"/><circle cx="231.2" cy="86.0" r="3" fill="#4aa3ff"/><circle cx="234.5" cy="86.0" r="3" fill="#4aa3ff"/><circle cx="237.7" cy="86.0" r="3" fill="#4aa3ff"/><circle cx="241.0" cy="86.0" r="3" fill="#4aa3ff"/><circle cx="244.2" cy="86.0" r="3" fill="#4aa3ff"/><circle cx="247.5" cy="86.0" r="3" fill="#4aa3ff"/><circle cx="250.8" cy="86.0" r="3" fill="#4aa3ff"/><circle cx="254.0" cy="86.0" r="3" fill="#4aa3ff"/><circle cx="257.3" cy="86.0" r="3" fill="#4aa3ff"/><circle cx="260.5" cy="86.0" r="3" fill="#4aa3ff"/><circle cx="263.8" cy="86.0" r="3" fill="#4aa3ff"/><circle cx="267.0" cy="86.0" r="3" fill="#4aa3ff"/><circle cx="270.3" cy="86.0" r="3" fill="#4aa3ff"/><circle cx="273.5" cy="86.0" r="3" fill="#4aa3ff"/><circle cx="276.8" cy="86.0" r="3" fill="#4aa3ff"/><circle cx="280.0" cy="86.0" r="3" fill="#4aa3ff"/><circle cx="283.3" cy="86.0" r="3" fill="#4aa3ff"/><circle cx="286.5" cy="86.0" r="3" fill="#4aa3ff"/><circle cx="289.8" cy="86.0" r="3" fill="#4aa3ff"/><circle cx="293.1" cy="86.0" r="3" fill="#4aa3ff"/><circle cx="296.3" cy="86.0" r="3" fill="#4aa3ff"/><circle cx="299.6" cy="87.0" r="3" fill="#4aa3ff"/><circle cx="302.8" cy="87.0" r="3" fill="#4aa3ff"/><circle cx="306.1" cy="87.0" r="3" fill="#4aa3ff"/><circle cx="309.3" cy="73.7" r="3" fill="#4aa3ff"/><circle cx="312.6" cy="73.7" r="3" fill="#4aa3ff"/><circle cx="315.8" cy="71.0" r="3" fill="#4aa3ff"/><circle cx="319.1" cy="71.0" r="3" fill="#4aa3ff"/><circle cx="322.3" cy="70.8" r="3" fill="#4aa3ff"/><circle cx="325.6" cy="70.6" r="3" fill="#4aa3ff"/><circle cx="328.8" cy="70.6" r="3" fill="#4aa3ff"/><circle cx="332.1" cy="70.4" r="3" fill="#4aa3ff"/><circle cx="335.4" cy="68.6" r="3" fill="#4aa3ff"/><circle cx="338.6" cy="60.5" r="3" fill="#4aa3ff"/><circle cx="341.9" cy="59.3" r="3" fill="#4aa3ff"/><circle cx="345.1" cy="52.0" r="3" fill="#4aa3ff"/><circle cx="348.4" cy="47.3" r="3" fill="#4aa3ff"/><circle cx="351.6" cy="40.1" r="3" fill="#4aa3ff"/><circle cx="354.9" cy="36.0" r="3" fill="#4aa3ff"/><circle cx="358.1" cy="36.0" r="3" fill="#4aa3ff"/><circle cx="361.4" cy="36.0" r="3" fill="#4aa3ff"/><circle cx="364.6" cy="36.0" r="3" fill="#4aa3ff"/><circle cx="367.9" cy="36.0" r="3" fill="#4aa3ff"/><circle cx="371.2" cy="36.0" r="3" fill="#4aa3ff"/><circle cx="374.4" cy="36.0" r="3" fill="#4aa3ff"/><circle cx="377.7" cy="36.0" r="3" fill="#4aa3ff"/><circle cx="380.9" cy="36.0" r="3" fill="#4aa3ff"/><circle cx="384.2" cy="36.0" r="3" fill="#4aa3ff"/><circle cx="387.4" cy="36.0" r="3" fill="#4aa3ff"/><circle cx="390.7" cy="36.0" r="3" fill="#4aa3ff"/><circle cx="393.9" cy="36.0" r="3" fill="#4aa3ff"/><circle cx="397.2" cy="36.0" r="3" fill="#4aa3ff"/><circle cx="400.4" cy="36.0" r="3" fill="#4aa3ff"/><circle cx="403.7" cy="36.0" r="3" fill="#4aa3ff"/><circle cx="406.9" cy="36.0" r="3" fill="#4aa3ff"/><circle cx="410.2" cy="36.0" r="3" fill="#4aa3ff"/><circle cx="413.5" cy="36.0" r="3" fill="#4aa3ff"/><circle cx="416.7" cy="36.0" r="3" fill="#4aa3ff"/><circle cx="420.0" cy="36.0" r="3" fill="#4aa3ff"/><circle cx="423.2" cy="36.0" r="3" fill="#4aa3ff"/><circle cx="426.5" cy="36.0" r="3" fill="#4aa3ff"/><circle cx="429.7" cy="36.0" r="3" fill="#4aa3ff"/><circle cx="433.0" cy="36.0" r="3" fill="#4aa3ff"/><circle cx="436.2" cy="36.0" r="3" fill="#4aa3ff"/><circle cx="439.5" cy="36.0" r="3" fill="#4aa3ff"/><circle cx="442.7" cy="36.0" r="3" fill="#4aa3ff"/><circle cx="446.0" cy="36.0" r="3" fill="#4aa3ff"/><circle cx="449.2" cy="36.0" r="3" fill="#4aa3ff"/><circle cx="452.5" cy="36.0" r="3" fill="#4aa3ff"/><circle cx="455.8" cy="36.0" r="3" fill="#4aa3ff"/><circle cx="459.0" cy="36.0" r="3" fill="#4aa3ff"/><circle cx="462.3" cy="36.0" r="3" fill="#4aa3ff"/><circle cx="465.5" cy="36.0" r="3" fill="#4aa3ff"/><circle cx="468.8" cy="36.0" r="3" fill="#4aa3ff"/><circle cx="472.0" cy="36.0" r="3" fill="#4aa3ff"/><circle cx="475.3" cy="36.0" r="3" fill="#4aa3ff"/><circle cx="478.5" cy="36.0" r="3" fill="#4aa3ff"/><circle cx="481.8" cy="36.0" r="3" fill="#4aa3ff"/><circle cx="485.0" cy="36.0" r="3" fill="#4aa3ff"/><circle cx="488.3" cy="36.0" r="3" fill="#4aa3ff"/><circle cx="491.5" cy="36.0" r="3" fill="#4aa3ff"/><circle cx="494.8" cy="36.0" r="3" fill="#4aa3ff"/><circle cx="498.1" cy="36.0" r="3" fill="#4aa3ff"/><circle cx="501.3" cy="36.0" r="3" fill="#4aa3ff"/><circle cx="504.6" cy="36.0" r="3" fill="#4aa3ff"/><circle cx="507.8" cy="36.0" r="3" fill="#4aa3ff"/><circle cx="511.1" cy="36.0" r="3" fill="#4aa3ff"/><circle cx="514.3" cy="36.0" r="3" fill="#4aa3ff"/><circle cx="517.6" cy="36.0" r="3" fill="#4aa3ff"/><circle cx="520.8" cy="36.0" r="3" fill="#4aa3ff"/><circle cx="524.1" cy="36.0" r="3" fill="#4aa3ff"/><circle cx="527.3" cy="36.0" r="3" fill="#4aa3ff"/><circle cx="530.6" cy="36.0" r="3" fill="#4aa3ff"/><circle cx="533.8" cy="36.0" r="3" fill="#4aa3ff"/><circle cx="537.1" cy="36.0" r="3" fill="#4aa3ff"/><circle cx="540.4" cy="36.0" r="3" fill="#4aa3ff"/><circle cx="543.6" cy="36.0" r="3" fill="#4aa3ff"/><circle cx="546.9" cy="36.0" r="3" fill="#4aa3ff"/><circle cx="550.1" cy="36.0" r="3" fill="#4aa3ff"/><circle cx="553.4" cy="36.0" r="3" fill="#4aa3ff"/><circle cx="556.6" cy="36.0" r="3" fill="#4aa3ff"/><circle cx="559.9" cy="36.0" r="3" fill="#4aa3ff"/><circle cx="563.1" cy="36.0" r="3" fill="#4aa3ff"/><circle cx="566.4" cy="36.0" r="3" fill="#4aa3ff"/><circle cx="569.6" cy="36.0" r="3" fill="#4aa3ff"/><circle cx="572.9" cy="36.0" r="3" fill="#4aa3ff"/><circle cx="576.1" cy="36.0" r="3" fill="#4aa3ff"/><circle cx="579.4" cy="36.0" r="3" fill="#4aa3ff"/><circle cx="582.7" cy="36.0" r="3" fill="#4aa3ff"/><circle cx="585.9" cy="36.0" r="3" fill="#4aa3ff"/><circle cx="589.2" cy="36.0" r="3" fill="#4aa3ff"/><circle cx="592.4" cy="36.0" r="3" fill="#4aa3ff"/><circle cx="595.7" cy="36.0" r="3" fill="#4aa3ff"/><circle cx="598.9" cy="36.0" r="3" fill="#4aa3ff"/><circle cx="602.2" cy="36.0" r="3" fill="#4aa3ff"/><circle cx="605.4" cy="36.0" r="3" fill="#4aa3ff"/><circle cx="608.7" cy="36.0" r="3" fill="#4aa3ff"/><circle cx="611.9" cy="36.0" r="3" fill="#4aa3ff"/><circle cx="615.2" cy="36.0" r="3" fill="#4aa3ff"/><circle cx="618.4" cy="36.0" r="3" fill="#4aa3ff"/><circle cx="621.7" cy="36.0" r="3" fill="#4aa3ff"/><circle cx="625.0" cy="36.0" r="3" fill="#4aa3ff"/><circle cx="628.2" cy="36.0" r="3" fill="#4aa3ff"/><circle cx="631.5" cy="36.0" r="3" fill="#4aa3ff"/><circle cx="634.7" cy="36.0" r="3" fill="#4aa3ff"/><circle cx="638.0" cy="36.0" r="3" fill="#4aa3ff"/><circle cx="641.2" cy="36.0" r="3" fill="#4aa3ff"/><circle cx="644.5" cy="36.0" r="3" fill="#4aa3ff"/><circle cx="647.7" cy="36.0" r="3" fill="#4aa3ff"/><circle cx="651.0" cy="36.0" r="3" fill="#4aa3ff"/><circle cx="654.2" cy="36.0" r="3" fill="#4aa3ff"/><circle cx="657.5" cy="36.0" r="3" fill="#4aa3ff"/><circle cx="660.7" cy="36.0" r="3" fill="#4aa3ff"/><circle cx="664.0" cy="36.0" r="3" fill="#4aa3ff"/>
<text x="36" y="225" fill="#6b7280" font-size="11">2026-06-26</text>
<text x="664" y="225" fill="#6b7280" font-size="11" text-anchor="end">2026-07-16</text>
<text x="36" y="212" font-family="system-ui,sans-serif" font-size="11">
<tspan fill="#4aa3ff">&#9679; open FPs</tspan>  <tspan fill="#3fb950">&#9679; closed (Anthropic acting)</tspan>  <tspan fill="#8a5a5a">&#9679; harness withdrawn</tspan></text>
<text x="664" y="22" text-anchor="end" font-family="system-ui,sans-serif" font-size="12">
<tspan fill="#4aa3ff">open 800</tspan>  <tspan fill="#3fb950">closed 0</tspan>  <tspan fill="#8a5a5a">harness 0</tspan></text>
</svg>