<svg xmlns="http://www.w3.org/2000/svg" width="700" height="234" viewBox="0 0 700 234" role="img">
<rect width="700" height="234" rx="12" fill="#16181d"/>
<text x="36" y="22" fill="#e8eaed" font-family="system-ui,sans-serif" font-size="14" font-weight="700">Is Anthropic acting? cyber/aup false positives over time</text>
<line x1="36" y1="198.0" x2="664" y2="198.0" stroke="#2a2e37" stroke-width="1"/><text x="30" y="202.0" fill="#6b7280" font-size="11" text-anchor="end">0</text><line x1="36" y1="117.0" x2="664" y2="117.0" stroke="#2a2e37" stroke-width="1"/><text x="30" y="121.0" fill="#6b7280" font-size="11" text-anchor="end">400</text><line x1="36" y1="36.0" x2="664" y2="36.0" stroke="#2a2e37" stroke-width="1"/><text x="30" y="40.0" fill="#6b7280" font-size="11" text-anchor="end">800</text>

<polyline fill="none" stroke="#8a5a5a" stroke-width="2.5" stroke-linejoin="round" points="36.0,145.1 38.8,145.1 41.6,145.1 44.4,145.1 47.3,145.1 50.1,145.1 52.9,145.1 55.7,145.1 58.5,145.1 61.3,145.1 64.2,145.1 67.0,145.1 69.8,145.1 72.6,145.1 75.4,145.1 78.2,145.1 81.1,145.1 83.9,145.1 86.7,145.1 89.5,145.1 92.3,145.1 95.1,145.1 98.0,145.1 100.8,145.1 103.6,145.1 106.4,145.1 109.2,145.1 112.0,145.1 114.9,145.1 117.7,145.1 120.5,145.1 123.3,145.1 126.1,145.1 128.9,145.1 131.7,145.1 134.6,145.1 137.4,145.1 140.2,145.1 143.0,145.1 145.8,145.1 148.6,145.1 151.5,145.1 154.3,145.1 157.1,145.1 159.9,145.1 162.7,145.1 165.5,145.1 168.4,145.1 171.2,145.1 174.0,145.1 176.8,155.7 179.6,155.7 182.4,155.7 185.3,155.7 188.1,155.7 190.9,155.7 193.7,155.7 196.5,155.7 199.3,155.7 202.2,155.7 205.0,155.7 207.8,155.7 210.6,155.7 213.4,155.7 216.2,155.7 219.0,155.7 221.9,155.7 224.7,155.7 227.5,155.7 230.3,155.7 233.1,155.7 235.9,155.7 238.8,155.7 241.6,155.7 244.4,155.7 247.2,155.7 250.0,155.7 252.8,155.7 255.7,155.7 258.5,155.7 261.3,155.7 264.1,155.7 266.9,155.7 269.7,155.7 272.6,167.6 275.4,167.6 278.2,170.3 281.0,170.3 283.8,170.5 286.6,170.7 289.5,170.7 292.3,170.9 295.1,172.7 297.9,180.6 300.7,181.8 303.5,189.1 306.3,190.5 309.2,195.2 312.0,198.0 314.8,198.0 317.6,198.0 320.4,198.0 323.2,198.0 326.1,198.0 328.9,198.0 331.7,198.0 334.5,198.0 337.3,198.0 340.1,198.0 343.0,198.0 345.8,198.0 348.6,198.0 351.4,198.0 354.2,198.0 357.0,198.0 359.9,198.0 362.7,198.0 365.5,198.0 368.3,198.0 371.1,198.0 373.9,198.0 376.8,198.0 379.6,198.0 382.4,198.0 385.2,198.0 388.0,198.0 390.8,198.0 393.7,198.0 396.5,198.0 399.3,198.0 402.1,198.0 404.9,198.0 407.7,198.0 410.5,198.0 413.4,198.0 416.2,198.0 419.0,198.0 421.8,198.0 424.6,198.0 427.4,198.0 430.3,198.0 433.1,198.0 435.9,198.0 438.7,198.0 441.5,198.0 444.3,198.0 447.2,198.0 450.0,198.0 452.8,198.0 455.6,198.0 458.4,198.0 461.2,198.0 464.1,198.0 466.9,198.0 469.7,198.0 472.5,198.0 475.3,198.0 478.1,198.0 481.0,198.0 483.8,198.0 486.6,198.0 489.4,198.0 492.2,198.0 495.0,198.0 497.8,198.0 500.7,198.0 503.5,198.0 506.3,198.0 509.1,198.0 511.9,198.0 514.7,198.0 517.6,198.0 520.4,198.0 523.2,198.0 526.0,198.0 528.8,198.0 531.6,198.0 534.5,198.0 537.3,198.0 540.1,198.0 542.9,198.0 545.7,198.0 548.5,198.0 551.4,198.0 554.2,198.0 557.0,198.0 559.8,198.0 562.6,198.0 565.4,198.0 568.3,198.0 571.1,198.0 573.9,198.0 576.7,198.0 579.5,198.0 582.3,198.0 585.1,198.0 588.0,198.0 590.8,198.0 593.6,198.0 596.4,198.0 599.2,198.0 602.0,198.0 604.9,198.0 607.7,198.0 610.5,198.0 613.3,198.0 616.1,198.0 618.9,198.0 621.8,198.0 624.6,198.0 627.4,198.0 630.2,198.0 633.0,198.0 635.8,198.0 638.7,198.0 641.5,198.0 644.3,198.0 647.1,198.0 649.9,198.0 652.7,198.0 655.6,198.0 658.4,198.0 661.2,198.0 664.0,198.0"/><circle cx="36.0" cy="145.1" r="3" fill="#8a5a5a"/><circle cx="38.8" cy="145.1" r="3" fill="#8a5a5a"/><circle cx="41.6" cy="145.1" r="3" fill="#8a5a5a"/><circle cx="44.4" cy="145.1" r="3" fill="#8a5a5a"/><circle cx="47.3" cy="145.1" r="3" fill="#8a5a5a"/><circle cx="50.1" cy="145.1" r="3" fill="#8a5a5a"/><circle cx="52.9" cy="145.1" r="3" fill="#8a5a5a"/><circle cx="55.7" cy="145.1" r="3" fill="#8a5a5a"/><circle cx="58.5" cy="145.1" r="3" fill="#8a5a5a"/><circle cx="61.3" cy="145.1" r="3" fill="#8a5a5a"/><circle cx="64.2" cy="145.1" r="3" fill="#8a5a5a"/><circle cx="67.0" cy="145.1" r="3" fill="#8a5a5a"/><circle cx="69.8" cy="145.1" r="3" fill="#8a5a5a"/><circle cx="72.6" cy="145.1" r="3" fill="#8a5a5a"/><circle cx="75.4" cy="145.1" r="3" fill="#8a5a5a"/><circle cx="78.2" cy="145.1" r="3" fill="#8a5a5a"/><circle cx="81.1" cy="145.1" r="3" fill="#8a5a5a"/><circle cx="83.9" cy="145.1" r="3" fill="#8a5a5a"/><circle cx="86.7" cy="145.1" r="3" fill="#8a5a5a"/><circle cx="89.5" cy="145.1" r="3" fill="#8a5a5a"/><circle cx="92.3" cy="145.1" r="3" fill="#8a5a5a"/><circle cx="95.1" cy="145.1" r="3" fill="#8a5a5a"/><circle cx="98.0" cy="145.1" r="3" fill="#8a5a5a"/><circle cx="100.8" cy="145.1" r="3" fill="#8a5a5a"/><circle cx="103.6" cy="145.1" r="3" fill="#8a5a5a"/><circle cx="106.4" cy="145.1" r="3" fill="#8a5a5a"/><circle cx="109.2" cy="145.1" r="3" fill="#8a5a5a"/><circle cx="112.0" cy="145.1" r="3" fill="#8a5a5a"/><circle cx="114.9" cy="145.1" r="3" fill="#8a5a5a"/><circle cx="117.7" cy="145.1" r="3" fill="#8a5a5a"/><circle cx="120.5" cy="145.1" r="3" fill="#8a5a5a"/><circle cx="123.3" cy="145.1" r="3" fill="#8a5a5a"/><circle cx="126.1" cy="145.1" r="3" fill="#8a5a5a"/><circle cx="128.9" cy="145.1" r="3" fill="#8a5a5a"/><circle cx="131.7" cy="145.1" r="3" fill="#8a5a5a"/><circle cx="134.6" cy="145.1" r="3" fill="#8a5a5a"/><circle cx="137.4" cy="145.1" r="3" fill="#8a5a5a"/><circle cx="140.2" cy="145.1" r="3" fill="#8a5a5a"/><circle cx="143.0" cy="145.1" r="3" fill="#8a5a5a"/><circle cx="145.8" cy="145.1" r="3" fill="#8a5a5a"/><circle cx="148.6" cy="145.1" r="3" fill="#8a5a5a"/><circle cx="151.5" cy="145.1" r="3" fill="#8a5a5a"/><circle cx="154.3" cy="145.1" r="3" fill="#8a5a5a"/><circle cx="157.1" cy="145.1" r="3" fill="#8a5a5a"/><circle cx="159.9" cy="145.1" r="3" fill="#8a5a5a"/><circle cx="162.7" cy="145.1" r="3" fill="#8a5a5a"/><circle cx="165.5" cy="145.1" r="3" fill="#8a5a5a"/><circle cx="168.4" cy="145.1" r="3" fill="#8a5a5a"/><circle cx="171.2" cy="145.1" r="3" fill="#8a5a5a"/><circle cx="174.0" cy="145.1" r="3" fill="#8a5a5a"/><circle cx="176.8" cy="155.7" r="3" fill="#8a5a5a"/><circle cx="179.6" cy="155.7" r="3" fill="#8a5a5a"/><circle cx="182.4" cy="155.7" r="3" fill="#8a5a5a"/><circle cx="185.3" cy="155.7" r="3" fill="#8a5a5a"/><circle cx="188.1" cy="155.7" r="3" fill="#8a5a5a"/><circle cx="190.9" cy="155.7" r="3" fill="#8a5a5a"/><circle cx="193.7" cy="155.7" r="3" fill="#8a5a5a"/><circle cx="196.5" cy="155.7" r="3" fill="#8a5a5a"/><circle cx="199.3" cy="155.7" r="3" fill="#8a5a5a"/><circle cx="202.2" cy="155.7" r="3" fill="#8a5a5a"/><circle cx="205.0" cy="155.7" r="3" fill="#8a5a5a"/><circle cx="207.8" cy="155.7" r="3" fill="#8a5a5a"/><circle cx="210.6" cy="155.7" r="3" fill="#8a5a5a"/><circle cx="213.4" cy="155.7" r="3" fill="#8a5a5a"/><circle cx="216.2" cy="155.7" r="3" fill="#8a5a5a"/><circle cx="219.0" cy="155.7" r="3" fill="#8a5a5a"/><circle cx="221.9" cy="155.7" r="3" fill="#8a5a5a"/><circle cx="224.7" cy="155.7" r="3" fill="#8a5a5a"/><circle cx="227.5" cy="155.7" r="3" fill="#8a5a5a"/><circle cx="230.3" cy="155.7" r="3" fill="#8a5a5a"/><circle cx="233.1" cy="155.7" r="3" fill="#8a5a5a"/><circle cx="235.9" cy="155.7" r="3" fill="#8a5a5a"/><circle cx="238.8" cy="155.7" r="3" fill="#8a5a5a"/><circle cx="241.6" cy="155.7" r="3" fill="#8a5a5a"/><circle cx="244.4" cy="155.7" r="3" fill="#8a5a5a"/><circle cx="247.2" cy="155.7" r="3" fill="#8a5a5a"/><circle cx="250.0" cy="155.7" r="3" fill="#8a5a5a"/><circle cx="252.8" cy="155.7" r="3" fill="#8a5a5a"/><circle cx="255.7" cy="155.7" r="3" fill="#8a5a5a"/><circle cx="258.5" cy="155.7" r="3" fill="#8a5a5a"/><circle cx="261.3" cy="155.7" r="3" fill="#8a5a5a"/><circle cx="264.1" cy="155.7" r="3" fill="#8a5a5a"/><circle cx="266.9" cy="155.7" r="3" fill="#8a5a5a"/><circle cx="269.7" cy="155.7" r="3" fill="#8a5a5a"/><circle cx="272.6" cy="167.6" r="3" fill="#8a5a5a"/><circle cx="275.4" cy="167.6" r="3" fill="#8a5a5a"/><circle cx="278.2" cy="170.3" r="3" fill="#8a5a5a"/><circle cx="281.0" cy="170.3" r="3" fill="#8a5a5a"/><circle cx="283.8" cy="170.5" r="3" fill="#8a5a5a"/><circle cx="286.6" cy="170.7" r="3" fill="#8a5a5a"/><circle cx="289.5" cy="170.7" r="3" fill="#8a5a5a"/><circle cx="292.3" cy="170.9" r="3" fill="#8a5a5a"/><circle cx="295.1" cy="172.7" r="3" fill="#8a5a5a"/><circle cx="297.9" cy="180.6" r="3" fill="#8a5a5a"/><circle cx="300.7" cy="181.8" r="3" fill="#8a5a5a"/><circle cx="303.5" cy="189.1" r="3" fill="#8a5a5a"/><circle cx="306.3" cy="190.5" r="3" fill="#8a5a5a"/><circle cx="309.2" cy="195.2" r="3" fill="#8a5a5a"/><circle cx="312.0" cy="198.0" r="3" fill="#8a5a5a"/><circle cx="314.8" cy="198.0" r="3" fill="#8a5a5a"/><circle cx="317.6" cy="198.0" r="3" fill="#8a5a5a"/><circle cx="320.4" cy="198.0" r="3" fill="#8a5a5a"/><circle cx="323.2" cy="198.0" r="3" fill="#8a5a5a"/><circle cx="326.1" cy="198.0" r="3" fill="#8a5a5a"/><circle cx="328.9" cy="198.0" r="3" fill="#8a5a5a"/><circle cx="331.7" cy="198.0" r="3" fill="#8a5a5a"/><circle cx="334.5" cy="198.0" r="3" fill="#8a5a5a"/><circle cx="337.3" cy="198.0" r="3" fill="#8a5a5a"/><circle cx="340.1" cy="198.0" r="3" fill="#8a5a5a"/><circle cx="343.0" cy="198.0" r="3" fill="#8a5a5a"/><circle cx="345.8" cy="198.0" r="3" fill="#8a5a5a"/><circle cx="348.6" cy="198.0" r="3" fill="#8a5a5a"/><circle cx="351.4" cy="198.0" r="3" fill="#8a5a5a"/><circle cx="354.2" cy="198.0" r="3" fill="#8a5a5a"/><circle cx="357.0" cy="198.0" r="3" fill="#8a5a5a"/><circle cx="359.9" cy="198.0" r="3" fill="#8a5a5a"/><circle cx="362.7" cy="198.0" r="3" fill="#8a5a5a"/><circle cx="365.5" cy="198.0" r="3" fill="#8a5a5a"/><circle cx="368.3" cy="198.0" r="3" fill="#8a5a5a"/><circle cx="371.1" cy="198.0" r="3" fill="#8a5a5a"/><circle cx="373.9" cy="198.0" r="3" fill="#8a5a5a"/><circle cx="376.8" cy="198.0" r="3" fill="#8a5a5a"/><circle cx="379.6" cy="198.0" r="3" fill="#8a5a5a"/><circle cx="382.4" cy="198.0" r="3" fill="#8a5a5a"/><circle cx="385.2" cy="198.0" r="3" fill="#8a5a5a"/><circle cx="388.0" cy="198.0" r="3" fill="#8a5a5a"/><circle cx="390.8" cy="198.0" r="3" fill="#8a5a5a"/><circle cx="393.7" cy="198.0" r="3" fill="#8a5a5a"/><circle cx="396.5" cy="198.0" r="3" fill="#8a5a5a"/><circle cx="399.3" cy="198.0" r="3" fill="#8a5a5a"/><circle cx="402.1" cy="198.0" r="3" fill="#8a5a5a"/><circle cx="404.9" cy="198.0" r="3" fill="#8a5a5a"/><circle cx="407.7" cy="198.0" r="3" fill="#8a5a5a"/><circle cx="410.5" cy="198.0" r="3" fill="#8a5a5a"/><circle cx="413.4" cy="198.0" r="3" fill="#8a5a5a"/><circle cx="416.2" cy="198.0" r="3" fill="#8a5a5a"/><circle cx="419.0" cy="198.0" r="3" fill="#8a5a5a"/><circle cx="421.8" cy="198.0" r="3" fill="#8a5a5a"/><circle cx="424.6" cy="198.0" r="3" fill="#8a5a5a"/><circle cx="427.4" cy="198.0" r="3" fill="#8a5a5a"/><circle cx="430.3" cy="198.0" r="3" fill="#8a5a5a"/><circle cx="433.1" cy="198.0" r="3" fill="#8a5a5a"/><circle cx="435.9" cy="198.0" r="3" fill="#8a5a5a"/><circle cx="438.7" cy="198.0" r="3" fill="#8a5a5a"/><circle cx="441.5" cy="198.0" r="3" fill="#8a5a5a"/><circle cx="444.3" cy="198.0" r="3" fill="#8a5a5a"/><circle cx="447.2" cy="198.0" r="3" fill="#8a5a5a"/><circle cx="450.0" cy="198.0" r="3" fill="#8a5a5a"/><circle cx="452.8" cy="198.0" r="3" fill="#8a5a5a"/><circle cx="455.6" cy="198.0" r="3" fill="#8a5a5a"/><circle cx="458.4" cy="198.0" r="3" fill="#8a5a5a"/><circle cx="461.2" cy="198.0" r="3" fill="#8a5a5a"/><circle cx="464.1" cy="198.0" r="3" fill="#8a5a5a"/><circle cx="466.9" cy="198.0" r="3" fill="#8a5a5a"/><circle cx="469.7" cy="198.0" r="3" fill="#8a5a5a"/><circle cx="472.5" cy="198.0" r="3" fill="#8a5a5a"/><circle cx="475.3" cy="198.0" r="3" fill="#8a5a5a"/><circle cx="478.1" cy="198.0" r="3" fill="#8a5a5a"/><circle cx="481.0" cy="198.0" r="3" fill="#8a5a5a"/><circle cx="483.8" cy="198.0" r="3" fill="#8a5a5a"/><circle cx="486.6" cy="198.0" r="3" fill="#8a5a5a"/><circle cx="489.4" cy="198.0" r="3" fill="#8a5a5a"/><circle cx="492.2" cy="198.0" r="3" fill="#8a5a5a"/><circle cx="495.0" cy="198.0" r="3" fill="#8a5a5a"/><circle cx="497.8" cy="198.0" r="3" fill="#8a5a5a"/><circle cx="500.7" cy="198.0" r="3" fill="#8a5a5a"/><circle cx="503.5" cy="198.0" r="3" fill="#8a5a5a"/><circle cx="506.3" cy="198.0" r="3" fill="#8a5a5a"/><circle cx="509.1" cy="198.0" r="3" fill="#8a5a5a"/><circle cx="511.9" cy="198.0" r="3" fill="#8a5a5a"/><circle cx="514.7" cy="198.0" r="3" fill="#8a5a5a"/><circle cx="517.6" cy="198.0" r="3" fill="#8a5a5a"/><circle cx="520.4" cy="198.0" r="3" fill="#8a5a5a"/><circle cx="523.2" cy="198.0" r="3" fill="#8a5a5a"/><circle cx="526.0" cy="198.0" r="3" fill="#8a5a5a"/><circle cx="528.8" cy="198.0" r="3" fill="#8a5a5a"/><circle cx="531.6" cy="198.0" r="3" fill="#8a5a5a"/><circle cx="534.5" cy="198.0" r="3" fill="#8a5a5a"/><circle cx="537.3" cy="198.0" r="3" fill="#8a5a5a"/><circle cx="540.1" cy="198.0" r="3" fill="#8a5a5a"/><circle cx="542.9" cy="198.0" r="3" fill="#8a5a5a"/><circle cx="545.7" cy="198.0" r="3" fill="#8a5a5a"/><circle cx="548.5" cy="198.0" r="3" fill="#8a5a5a"/><circle cx="551.4" cy="198.0" r="3" fill="#8a5a5a"/><circle cx="554.2" cy="198.0" r="3" fill="#8a5a5a"/><circle cx="557.0" cy="198.0" r="3" fill="#8a5a5a"/><circle cx="559.8" cy="198.0" r="3" fill="#8a5a5a"/><circle cx="562.6" cy="198.0" r="3" fill="#8a5a5a"/><circle cx="565.4" cy="198.0" r="3" fill="#8a5a5a"/><circle cx="568.3" cy="198.0" r="3" fill="#8a5a5a"/><circle cx="571.1" cy="198.0" r="3" fill="#8a5a5a"/><circle cx="573.9" cy="198.0" r="3" fill="#8a5a5a"/><circle cx="576.7" cy="198.0" r="3" fill="#8a5a5a"/><circle cx="579.5" cy="198.0" r="3" fill="#8a5a5a"/><circle cx="582.3" cy="198.0" r="3" fill="#8a5a5a"/><circle cx="585.1" cy="198.0" r="3" fill="#8a5a5a"/><circle cx="588.0" cy="198.0" r="3" fill="#8a5a5a"/><circle cx="590.8" cy="198.0" r="3" fill="#8a5a5a"/><circle cx="593.6" cy="198.0" r="3" fill="#8a5a5a"/><circle cx="596.4" cy="198.0" r="3" fill="#8a5a5a"/><circle cx="599.2" cy="198.0" r="3" fill="#8a5a5a"/><circle cx="602.0" cy="198.0" r="3" fill="#8a5a5a"/><circle cx="604.9" cy="198.0" r="3" fill="#8a5a5a"/><circle cx="607.7" cy="198.0" r="3" fill="#8a5a5a"/><circle cx="610.5" cy="198.0" r="3" fill="#8a5a5a"/><circle cx="613.3" cy="198.0" r="3" fill="#8a5a5a"/><circle cx="616.1" cy="198.0" r="3" fill="#8a5a5a"/><circle cx="618.9" cy="198.0" r="3" fill="#8a5a5a"/><circle cx="621.8" cy="198.0" r="3" fill="#8a5a5a"/><circle cx="624.6" cy="198.0" r="3" fill="#8a5a5a"/><circle cx="627.4" cy="198.0" r="3" fill="#8a5a5a"/><circle cx="630.2" cy="198.0" r="3" fill="#8a5a5a"/><circle cx="633.0" cy="198.0" r="3" fill="#8a5a5a"/><circle cx="635.8" cy="198.0" r="3" fill="#8a5a5a"/><circle cx="638.7" cy="198.0" r="3" fill="#8a5a5a"/><circle cx="641.5" cy="198.0" r="3" fill="#8a5a5a"/><circle cx="644.3" cy="198.0" r="3" fill="#8a5a5a"/><circle cx="647.1" cy="198.0" r="3" fill="#8a5a5a"/><circle cx="649.9" cy="198.0" r="3" fill="#8a5a5a"/><circle cx="652.7" cy="198.0" r="3" fill="#8a5a5a"/><circle cx="655.6" cy="198.0" r="3" fill="#8a5a5a"/><circle cx="658.4" cy="198.0" r="3" fill="#8a5a5a"/><circle cx="661.2" cy="198.0" r="3" fill="#8a5a5a"/><circle cx="664.0" cy="198.0" r="3" fill="#8a5a5a"/>
<polyline fill="none" stroke="#3fb950" stroke-width="2.5" stroke-linejoin="round" points="36.0,198.0 38.8,198.0 41.6,198.0 44.4,198.0 47.3,198.0 50.1,198.0 52.9,198.0 55.7,198.0 58.5,198.0 61.3,198.0 64.2,198.0 67.0,198.0 69.8,198.0 72.6,198.0 75.4,198.0 78.2,198.0 81.1,198.0 83.9,198.0 86.7,198.0 89.5,198.0 92.3,198.0 95.1,198.0 98.0,198.0 100.8,198.0 103.6,198.0 106.4,198.0 109.2,198.0 112.0,198.0 114.9,198.0 117.7,198.0 120.5,198.0 123.3,198.0 126.1,198.0 128.9,198.0 131.7,198.0 134.6,198.0 137.4,198.0 140.2,198.0 143.0,198.0 145.8,198.0 148.6,198.0 151.5,198.0 154.3,198.0 157.1,191.7 159.9,191.7 162.7,191.7 165.5,191.7 168.4,191.7 171.2,191.7 174.0,191.7 176.8,192.9 179.6,192.9 182.4,190.7 185.3,190.7 188.1,190.7 190.9,190.7 193.7,190.7 196.5,190.5 199.3,190.5 202.2,190.5 205.0,190.3 207.8,190.3 210.6,190.3 213.4,190.3 216.2,190.3 219.0,190.3 221.9,190.3 224.7,190.3 227.5,190.3 230.3,190.3 233.1,190.3 235.9,190.3 238.8,190.3 241.6,190.3 244.4,190.3 247.2,190.3 250.0,190.3 252.8,190.3 255.7,190.3 258.5,190.3 261.3,190.3 264.1,189.3 266.9,189.3 269.7,189.3 272.6,190.7 275.4,190.7 278.2,190.7 281.0,190.7 283.8,190.7 286.6,190.7 289.5,190.7 292.3,190.7 295.1,190.7 297.9,190.9 300.7,190.9 303.5,190.9 306.3,194.2 309.2,196.8 312.0,198.0 314.8,198.0 317.6,198.0 320.4,198.0 323.2,198.0 326.1,198.0 328.9,198.0 331.7,198.0 334.5,198.0 337.3,198.0 340.1,198.0 343.0,198.0 345.8,198.0 348.6,198.0 351.4,198.0 354.2,198.0 357.0,198.0 359.9,198.0 362.7,198.0 365.5,198.0 368.3,198.0 371.1,198.0 373.9,198.0 376.8,198.0 379.6,198.0 382.4,198.0 385.2,198.0 388.0,198.0 390.8,198.0 393.7,198.0 396.5,198.0 399.3,198.0 402.1,198.0 404.9,198.0 407.7,198.0 410.5,198.0 413.4,198.0 416.2,198.0 419.0,198.0 421.8,198.0 424.6,198.0 427.4,198.0 430.3,198.0 433.1,198.0 435.9,198.0 438.7,198.0 441.5,198.0 444.3,198.0 447.2,198.0 450.0,198.0 452.8,198.0 455.6,198.0 458.4,198.0 461.2,198.0 464.1,198.0 466.9,198.0 469.7,198.0 472.5,198.0 475.3,198.0 478.1,198.0 481.0,198.0 483.8,198.0 486.6,198.0 489.4,198.0 492.2,198.0 495.0,198.0 497.8,198.0 500.7,198.0 503.5,198.0 506.3,198.0 509.1,198.0 511.9,198.0 514.7,198.0 517.6,198.0 520.4,198.0 523.2,198.0 526.0,198.0 528.8,198.0 531.6,198.0 534.5,198.0 537.3,198.0 540.1,198.0 542.9,198.0 545.7,198.0 548.5,198.0 551.4,198.0 554.2,198.0 557.0,198.0 559.8,198.0 562.6,198.0 565.4,198.0 568.3,198.0 571.1,198.0 573.9,198.0 576.7,198.0 579.5,198.0 582.3,198.0 585.1,198.0 588.0,198.0 590.8,198.0 593.6,198.0 596.4,198.0 599.2,198.0 602.0,198.0 604.9,198.0 607.7,198.0 610.5,198.0 613.3,198.0 616.1,198.0 618.9,198.0 621.8,198.0 624.6,198.0 627.4,198.0 630.2,198.0 633.0,198.0 635.8,198.0 638.7,198.0 641.5,198.0 644.3,198.0 647.1,198.0 649.9,198.0 652.7,198.0 655.6,198.0 658.4,198.0 661.2,198.0 664.0,198.0"/><circle cx="36.0" cy="198.0" r="3" fill="#3fb950"/><circle cx="38.8" cy="198.0" r="3" fill="#3fb950"/><circle cx="41.6" cy="198.0" r="3" fill="#3fb950"/><circle cx="44.4" cy="198.0" r="3" fill="#3fb950"/><circle cx="47.3" cy="198.0" r="3" fill="#3fb950"/><circle cx="50.1" cy="198.0" r="3" fill="#3fb950"/><circle cx="52.9" cy="198.0" r="3" fill="#3fb950"/><circle cx="55.7" cy="198.0" r="3" fill="#3fb950"/><circle cx="58.5" cy="198.0" r="3" fill="#3fb950"/><circle cx="61.3" cy="198.0" r="3" fill="#3fb950"/><circle cx="64.2" cy="198.0" r="3" fill="#3fb950"/><circle cx="67.0" cy="198.0" r="3" fill="#3fb950"/><circle cx="69.8" cy="198.0" r="3" fill="#3fb950"/><circle cx="72.6" cy="198.0" r="3" fill="#3fb950"/><circle cx="75.4" cy="198.0" r="3" fill="#3fb950"/><circle cx="78.2" cy="198.0" r="3" fill="#3fb950"/><circle cx="81.1" cy="198.0" r="3" fill="#3fb950"/><circle cx="83.9" cy="198.0" r="3" fill="#3fb950"/><circle cx="86.7" cy="198.0" r="3" fill="#3fb950"/><circle cx="89.5" cy="198.0" r="3" fill="#3fb950"/><circle cx="92.3" cy="198.0" r="3" fill="#3fb950"/><circle cx="95.1" cy="198.0" r="3" fill="#3fb950"/><circle cx="98.0" cy="198.0" r="3" fill="#3fb950"/><circle cx="100.8" cy="198.0" r="3" fill="#3fb950"/><circle cx="103.6" cy="198.0" r="3" fill="#3fb950"/><circle cx="106.4" cy="198.0" r="3" fill="#3fb950"/><circle cx="109.2" cy="198.0" r="3" fill="#3fb950"/><circle cx="112.0" cy="198.0" r="3" fill="#3fb950"/><circle cx="114.9" cy="198.0" r="3" fill="#3fb950"/><circle cx="117.7" cy="198.0" r="3" fill="#3fb950"/><circle cx="120.5" cy="198.0" r="3" fill="#3fb950"/><circle cx="123.3" cy="198.0" r="3" fill="#3fb950"/><circle cx="126.1" cy="198.0" r="3" fill="#3fb950"/><circle cx="128.9" cy="198.0" r="3" fill="#3fb950"/><circle cx="131.7" cy="198.0" r="3" fill="#3fb950"/><circle cx="134.6" cy="198.0" r="3" fill="#3fb950"/><circle cx="137.4" cy="198.0" r="3" fill="#3fb950"/><circle cx="140.2" cy="198.0" r="3" fill="#3fb950"/><circle cx="143.0" cy="198.0" r="3" fill="#3fb950"/><circle cx="145.8" cy="198.0" r="3" fill="#3fb950"/><circle cx="148.6" cy="198.0" r="3" fill="#3fb950"/><circle cx="151.5" cy="198.0" r="3" fill="#3fb950"/><circle cx="154.3" cy="198.0" r="3" fill="#3fb950"/><circle cx="157.1" cy="191.7" r="3" fill="#3fb950"/><circle cx="159.9" cy="191.7" r="3" fill="#3fb950"/><circle cx="162.7" cy="191.7" r="3" fill="#3fb950"/><circle cx="165.5" cy="191.7" r="3" fill="#3fb950"/><circle cx="168.4" cy="191.7" r="3" fill="#3fb950"/><circle cx="171.2" cy="191.7" r="3" fill="#3fb950"/><circle cx="174.0" cy="191.7" r="3" fill="#3fb950"/><circle cx="176.8" cy="192.9" r="3" fill="#3fb950"/><circle cx="179.6" cy="192.9" r="3" fill="#3fb950"/><circle cx="182.4" cy="190.7" r="3" fill="#3fb950"/><circle cx="185.3" cy="190.7" r="3" fill="#3fb950"/><circle cx="188.1" cy="190.7" r="3" fill="#3fb950"/><circle cx="190.9" cy="190.7" r="3" fill="#3fb950"/><circle cx="193.7" cy="190.7" r="3" fill="#3fb950"/><circle cx="196.5" cy="190.5" r="3" fill="#3fb950"/><circle cx="199.3" cy="190.5" r="3" fill="#3fb950"/><circle cx="202.2" cy="190.5" r="3" fill="#3fb950"/><circle cx="205.0" cy="190.3" r="3" fill="#3fb950"/><circle cx="207.8" cy="190.3" r="3" fill="#3fb950"/><circle cx="210.6" cy="190.3" r="3" fill="#3fb950"/><circle cx="213.4" cy="190.3" r="3" fill="#3fb950"/><circle cx="216.2" cy="190.3" r="3" fill="#3fb950"/><circle cx="219.0" cy="190.3" r="3" fill="#3fb950"/><circle cx="221.9" cy="190.3" r="3" fill="#3fb950"/><circle cx="224.7" cy="190.3" r="3" fill="#3fb950"/><circle cx="227.5" cy="190.3" r="3" fill="#3fb950"/><circle cx="230.3" cy="190.3" r="3" fill="#3fb950"/><circle cx="233.1" cy="190.3" r="3" fill="#3fb950"/><circle cx="235.9" cy="190.3" r="3" fill="#3fb950"/><circle cx="238.8" cy="190.3" r="3" fill="#3fb950"/><circle cx="241.6" cy="190.3" r="3" fill="#3fb950"/><circle cx="244.4" cy="190.3" r="3" fill="#3fb950"/><circle cx="247.2" cy="190.3" r="3" fill="#3fb950"/><circle cx="250.0" cy="190.3" r="3" fill="#3fb950"/><circle cx="252.8" cy="190.3" r="3" fill="#3fb950"/><circle cx="255.7" cy="190.3" r="3" fill="#3fb950"/><circle cx="258.5" cy="190.3" r="3" fill="#3fb950"/><circle cx="261.3" cy="190.3" r="3" fill="#3fb950"/><circle cx="264.1" cy="189.3" r="3" fill="#3fb950"/><circle cx="266.9" cy="189.3" r="3" fill="#3fb950"/><circle cx="269.7" cy="189.3" r="3" fill="#3fb950"/><circle cx="272.6" cy="190.7" r="3" fill="#3fb950"/><circle cx="275.4" cy="190.7" r="3" fill="#3fb950"/><circle cx="278.2" cy="190.7" r="3" fill="#3fb950"/><circle cx="281.0" cy="190.7" r="3" fill="#3fb950"/><circle cx="283.8" cy="190.7" r="3" fill="#3fb950"/><circle cx="286.6" cy="190.7" r="3" fill="#3fb950"/><circle cx="289.5" cy="190.7" r="3" fill="#3fb950"/><circle cx="292.3" cy="190.7" r="3" fill="#3fb950"/><circle cx="295.1" cy="190.7" r="3" fill="#3fb950"/><circle cx="297.9" cy="190.9" r="3" fill="#3fb950"/><circle cx="300.7" cy="190.9" r="3" fill="#3fb950"/><circle cx="303.5" cy="190.9" r="3" fill="#3fb950"/><circle cx="306.3" cy="194.2" r="3" fill="#3fb950"/><circle cx="309.2" cy="196.8" r="3" fill="#3fb950"/><circle cx="312.0" cy="198.0" r="3" fill="#3fb950"/><circle cx="314.8" cy="198.0" r="3" fill="#3fb950"/><circle cx="317.6" cy="198.0" r="3" fill="#3fb950"/><circle cx="320.4" cy="198.0" r="3" fill="#3fb950"/><circle cx="323.2" cy="198.0" r="3" fill="#3fb950"/><circle cx="326.1" cy="198.0" r="3" fill="#3fb950"/><circle cx="328.9" cy="198.0" r="3" fill="#3fb950"/><circle cx="331.7" cy="198.0" r="3" fill="#3fb950"/><circle cx="334.5" cy="198.0" r="3" fill="#3fb950"/><circle cx="337.3" cy="198.0" r="3" fill="#3fb950"/><circle cx="340.1" cy="198.0" r="3" fill="#3fb950"/><circle cx="343.0" cy="198.0" r="3" fill="#3fb950"/><circle cx="345.8" cy="198.0" r="3" fill="#3fb950"/><circle cx="348.6" cy="198.0" r="3" fill="#3fb950"/><circle cx="351.4" cy="198.0" r="3" fill="#3fb950"/><circle cx="354.2" cy="198.0" r="3" fill="#3fb950"/><circle cx="357.0" cy="198.0" r="3" fill="#3fb950"/><circle cx="359.9" cy="198.0" r="3" fill="#3fb950"/><circle cx="362.7" cy="198.0" r="3" fill="#3fb950"/><circle cx="365.5" cy="198.0" r="3" fill="#3fb950"/><circle cx="368.3" cy="198.0" r="3" fill="#3fb950"/><circle cx="371.1" cy="198.0" r="3" fill="#3fb950"/><circle cx="373.9" cy="198.0" r="3" fill="#3fb950"/><circle cx="376.8" cy="198.0" r="3" fill="#3fb950"/><circle cx="379.6" cy="198.0" r="3" fill="#3fb950"/><circle cx="382.4" cy="198.0" r="3" fill="#3fb950"/><circle cx="385.2" cy="198.0" r="3" fill="#3fb950"/><circle cx="388.0" cy="198.0" r="3" fill="#3fb950"/><circle cx="390.8" cy="198.0" r="3" fill="#3fb950"/><circle cx="393.7" cy="198.0" r="3" fill="#3fb950"/><circle cx="396.5" cy="198.0" r="3" fill="#3fb950"/><circle cx="399.3" cy="198.0" r="3" fill="#3fb950"/><circle cx="402.1" cy="198.0" r="3" fill="#3fb950"/><circle cx="404.9" cy="198.0" r="3" fill="#3fb950"/><circle cx="407.7" cy="198.0" r="3" fill="#3fb950"/><circle cx="410.5" cy="198.0" r="3" fill="#3fb950"/><circle cx="413.4" cy="198.0" r="3" fill="#3fb950"/><circle cx="416.2" cy="198.0" r="3" fill="#3fb950"/><circle cx="419.0" cy="198.0" r="3" fill="#3fb950"/><circle cx="421.8" cy="198.0" r="3" fill="#3fb950"/><circle cx="424.6" cy="198.0" r="3" fill="#3fb950"/><circle cx="427.4" cy="198.0" r="3" fill="#3fb950"/><circle cx="430.3" cy="198.0" r="3" fill="#3fb950"/><circle cx="433.1" cy="198.0" r="3" fill="#3fb950"/><circle cx="435.9" cy="198.0" r="3" fill="#3fb950"/><circle cx="438.7" cy="198.0" r="3" fill="#3fb950"/><circle cx="441.5" cy="198.0" r="3" fill="#3fb950"/><circle cx="444.3" cy="198.0" r="3" fill="#3fb950"/><circle cx="447.2" cy="198.0" r="3" fill="#3fb950"/><circle cx="450.0" cy="198.0" r="3" fill="#3fb950"/><circle cx="452.8" cy="198.0" r="3" fill="#3fb950"/><circle cx="455.6" cy="198.0" r="3" fill="#3fb950"/><circle cx="458.4" cy="198.0" r="3" fill="#3fb950"/><circle cx="461.2" cy="198.0" r="3" fill="#3fb950"/><circle cx="464.1" cy="198.0" r="3" fill="#3fb950"/><circle cx="466.9" cy="198.0" r="3" fill="#3fb950"/><circle cx="469.7" cy="198.0" r="3" fill="#3fb950"/><circle cx="472.5" cy="198.0" r="3" fill="#3fb950"/><circle cx="475.3" cy="198.0" r="3" fill="#3fb950"/><circle cx="478.1" cy="198.0" r="3" fill="#3fb950"/><circle cx="481.0" cy="198.0" r="3" fill="#3fb950"/><circle cx="483.8" cy="198.0" r="3" fill="#3fb950"/><circle cx="486.6" cy="198.0" r="3" fill="#3fb950"/><circle cx="489.4" cy="198.0" r="3" fill="#3fb950"/><circle cx="492.2" cy="198.0" r="3" fill="#3fb950"/><circle cx="495.0" cy="198.0" r="3" fill="#3fb950"/><circle cx="497.8" cy="198.0" r="3" fill="#3fb950"/><circle cx="500.7" cy="198.0" r="3" fill="#3fb950"/><circle cx="503.5" cy="198.0" r="3" fill="#3fb950"/><circle cx="506.3" cy="198.0" r="3" fill="#3fb950"/><circle cx="509.1" cy="198.0" r="3" fill="#3fb950"/><circle cx="511.9" cy="198.0" r="3" fill="#3fb950"/><circle cx="514.7" cy="198.0" r="3" fill="#3fb950"/><circle cx="517.6" cy="198.0" r="3" fill="#3fb950"/><circle cx="520.4" cy="198.0" r="3" fill="#3fb950"/><circle cx="523.2" cy="198.0" r="3" fill="#3fb950"/><circle cx="526.0" cy="198.0" r="3" fill="#3fb950"/><circle cx="528.8" cy="198.0" r="3" fill="#3fb950"/><circle cx="531.6" cy="198.0" r="3" fill="#3fb950"/><circle cx="534.5" cy="198.0" r="3" fill="#3fb950"/><circle cx="537.3" cy="198.0" r="3" fill="#3fb950"/><circle cx="540.1" cy="198.0" r="3" fill="#3fb950"/><circle cx="542.9" cy="198.0" r="3" fill="#3fb950"/><circle cx="545.7" cy="198.0" r="3" fill="#3fb950"/><circle cx="548.5" cy="198.0" r="3" fill="#3fb950"/><circle cx="551.4" cy="198.0" r="3" fill="#3fb950"/><circle cx="554.2" cy="198.0" r="3" fill="#3fb950"/><circle cx="557.0" cy="198.0" r="3" fill="#3fb950"/><circle cx="559.8" cy="198.0" r="3" fill="#3fb950"/><circle cx="562.6" cy="198.0" r="3" fill="#3fb950"/><circle cx="565.4" cy="198.0" r="3" fill="#3fb950"/><circle cx="568.3" cy="198.0" r="3" fill="#3fb950"/><circle cx="571.1" cy="198.0" r="3" fill="#3fb950"/><circle cx="573.9" cy="198.0" r="3" fill="#3fb950"/><circle cx="576.7" cy="198.0" r="3" fill="#3fb950"/><circle cx="579.5" cy="198.0" r="3" fill="#3fb950"/><circle cx="582.3" cy="198.0" r="3" fill="#3fb950"/><circle cx="585.1" cy="198.0" r="3" fill="#3fb950"/><circle cx="588.0" cy="198.0" r="3" fill="#3fb950"/><circle cx="590.8" cy="198.0" r="3" fill="#3fb950"/><circle cx="593.6" cy="198.0" r="3" fill="#3fb950"/><circle cx="596.4" cy="198.0" r="3" fill="#3fb950"/><circle cx="599.2" cy="198.0" r="3" fill="#3fb950"/><circle cx="602.0" cy="198.0" r="3" fill="#3fb950"/><circle cx="604.9" cy="198.0" r="3" fill="#3fb950"/><circle cx="607.7" cy="198.0" r="3" fill="#3fb950"/><circle cx="610.5" cy="198.0" r="3" fill="#3fb950"/><circle cx="613.3" cy="198.0" r="3" fill="#3fb950"/><circle cx="616.1" cy="198.0" r="3" fill="#3fb950"/><circle cx="618.9" cy="198.0" r="3" fill="#3fb950"/><circle cx="621.8" cy="198.0" r="3" fill="#3fb950"/><circle cx="624.6" cy="198.0" r="3" fill="#3fb950"/><circle cx="627.4" cy="198.0" r="3" fill="#3fb950"/><circle cx="630.2" cy="198.0" r="3" fill="#3fb950"/><circle cx="633.0" cy="198.0" r="3" fill="#3fb950"/><circle cx="635.8" cy="198.0" r="3" fill="#3fb950"/><circle cx="638.7" cy="198.0" r="3" fill="#3fb950"/><circle cx="641.5" cy="198.0" r="3" fill="#3fb950"/><circle cx="644.3" cy="198.0" r="3" fill="#3fb950"/><circle cx="647.1" cy="198.0" r="3" fill="#3fb950"/><circle cx="649.9" cy="198.0" r="3" fill="#3fb950"/><circle cx="652.7" cy="198.0" r="3" fill="#3fb950"/><circle cx="655.6" cy="198.0" r="3" fill="#3fb950"/><circle cx="658.4" cy="198.0" r="3" fill="#3fb950"/><circle cx="661.2" cy="198.0" r="3" fill="#3fb950"/><circle cx="664.0" cy="198.0" r="3" fill="#3fb950"/>
<polyline fill="none" stroke="#4aa3ff" stroke-width="2.5" stroke-linejoin="round" points="36.0,144.3 38.8,144.3 41.6,144.3 44.4,144.3 47.3,144.3 50.1,144.3 52.9,144.3 55.7,144.3 58.5,144.3 61.3,144.3 64.2,144.3 67.0,144.3 69.8,144.3 72.6,144.3 75.4,144.3 78.2,136.2 81.1,132.4 83.9,129.6 86.7,129.6 89.5,121.0 92.3,121.0 95.1,121.0 98.0,114.4 100.8,114.4 103.6,114.4 106.4,111.3 109.2,110.9 112.0,110.9 114.9,110.5 117.7,110.5 120.5,109.9 123.3,108.7 126.1,107.3 128.9,106.9 131.7,106.9 134.6,106.9 137.4,106.9 140.2,106.9 143.0,106.9 145.8,106.9 148.6,106.9 151.5,106.9 154.3,106.9 157.1,113.2 159.9,113.2 162.7,113.2 165.5,113.2 168.4,113.2 171.2,110.7 174.0,105.3 176.8,83.4 179.6,83.4 182.4,85.6 185.3,85.6 188.1,85.6 190.9,85.6 193.7,85.6 196.5,85.8 199.3,85.8 202.2,85.8 205.0,86.0 207.8,86.0 210.6,86.0 213.4,86.0 216.2,86.0 219.0,86.0 221.9,86.0 224.7,86.0 227.5,86.0 230.3,86.0 233.1,86.0 235.9,86.0 238.8,86.0 241.6,86.0 244.4,86.0 247.2,86.0 250.0,86.0 252.8,86.0 255.7,86.0 258.5,86.0 261.3,86.0 264.1,87.0 266.9,87.0 269.7,87.0 272.6,73.7 275.4,73.7 278.2,71.0 281.0,71.0 283.8,70.8 286.6,70.6 289.5,70.6 292.3,70.4 295.1,68.6 297.9,60.5 300.7,59.3 303.5,52.0 306.3,47.3 309.2,40.1 312.0,36.0 314.8,36.0 317.6,36.0 320.4,36.0 323.2,36.0 326.1,36.0 328.9,36.0 331.7,36.0 334.5,36.0 337.3,36.0 340.1,36.0 343.0,36.0 345.8,36.0 348.6,36.0 351.4,36.0 354.2,36.0 357.0,36.0 359.9,36.0 362.7,36.0 365.5,36.0 368.3,36.0 371.1,36.0 373.9,36.0 376.8,36.0 379.6,36.0 382.4,36.0 385.2,36.0 388.0,36.0 390.8,36.0 393.7,36.0 396.5,36.0 399.3,36.0 402.1,36.0 404.9,36.0 407.7,36.0 410.5,36.0 413.4,36.0 416.2,36.0 419.0,36.0 421.8,36.0 424.6,36.0 427.4,36.0 430.3,36.0 433.1,36.0 435.9,36.0 438.7,36.0 441.5,36.0 444.3,36.0 447.2,36.0 450.0,36.0 452.8,36.0 455.6,36.0 458.4,36.0 461.2,36.0 464.1,36.0 466.9,36.0 469.7,36.0 472.5,36.0 475.3,36.0 478.1,36.0 481.0,36.0 483.8,36.0 486.6,36.0 489.4,36.0 492.2,36.0 495.0,36.0 497.8,36.0 500.7,36.0 503.5,36.0 506.3,36.0 509.1,36.0 511.9,36.0 514.7,36.0 517.6,36.0 520.4,36.0 523.2,36.0 526.0,36.0 528.8,36.0 531.6,36.0 534.5,36.0 537.3,36.0 540.1,36.0 542.9,36.0 545.7,36.0 548.5,36.0 551.4,36.0 554.2,36.0 557.0,36.0 559.8,36.0 562.6,36.0 565.4,36.0 568.3,36.0 571.1,36.0 573.9,36.0 576.7,36.0 579.5,36.0 582.3,36.0 585.1,36.0 588.0,36.0 590.8,36.0 593.6,36.0 596.4,36.0 599.2,36.0 602.0,36.0 604.9,36.0 607.7,36.0 610.5,36.0 613.3,36.0 616.1,36.0 618.9,36.0 621.8,36.0 624.6,36.0 627.4,36.0 630.2,36.0 633.0,36.0 635.8,36.0 638.7,36.0 641.5,36.0 644.3,36.0 647.1,36.0 649.9,36.0 652.7,36.0 655.6,36.0 658.4,36.0 661.2,36.0 664.0,36.0"/><circle cx="36.0" cy="144.3" r="3" fill="#4aa3ff"/><circle cx="38.8" cy="144.3" r="3" fill="#4aa3ff"/><circle cx="41.6" cy="144.3" r="3" fill="#4aa3ff"/><circle cx="44.4" cy="144.3" r="3" fill="#4aa3ff"/><circle cx="47.3" cy="144.3" r="3" fill="#4aa3ff"/><circle cx="50.1" cy="144.3" r="3" fill="#4aa3ff"/><circle cx="52.9" cy="144.3" r="3" fill="#4aa3ff"/><circle cx="55.7" cy="144.3" r="3" fill="#4aa3ff"/><circle cx="58.5" cy="144.3" r="3" fill="#4aa3ff"/><circle cx="61.3" cy="144.3" r="3" fill="#4aa3ff"/><circle cx="64.2" cy="144.3" r="3" fill="#4aa3ff"/><circle cx="67.0" cy="144.3" r="3" fill="#4aa3ff"/><circle cx="69.8" cy="144.3" r="3" fill="#4aa3ff"/><circle cx="72.6" cy="144.3" r="3" fill="#4aa3ff"/><circle cx="75.4" cy="144.3" r="3" fill="#4aa3ff"/><circle cx="78.2" cy="136.2" r="3" fill="#4aa3ff"/><circle cx="81.1" cy="132.4" r="3" fill="#4aa3ff"/><circle cx="83.9" cy="129.6" r="3" fill="#4aa3ff"/><circle cx="86.7" cy="129.6" r="3" fill="#4aa3ff"/><circle cx="89.5" cy="121.0" r="3" fill="#4aa3ff"/><circle cx="92.3" cy="121.0" r="3" fill="#4aa3ff"/><circle cx="95.1" cy="121.0" r="3" fill="#4aa3ff"/><circle cx="98.0" cy="114.4" r="3" fill="#4aa3ff"/><circle cx="100.8" cy="114.4" r="3" fill="#4aa3ff"/><circle cx="103.6" cy="114.4" r="3" fill="#4aa3ff"/><circle cx="106.4" cy="111.3" r="3" fill="#4aa3ff"/><circle cx="109.2" cy="110.9" r="3" fill="#4aa3ff"/><circle cx="112.0" cy="110.9" r="3" fill="#4aa3ff"/><circle cx="114.9" cy="110.5" r="3" fill="#4aa3ff"/><circle cx="117.7" cy="110.5" r="3" fill="#4aa3ff"/><circle cx="120.5" cy="109.9" r="3" fill="#4aa3ff"/><circle cx="123.3" cy="108.7" r="3" fill="#4aa3ff"/><circle cx="126.1" cy="107.3" r="3" fill="#4aa3ff"/><circle cx="128.9" cy="106.9" r="3" fill="#4aa3ff"/><circle cx="131.7" cy="106.9" r="3" fill="#4aa3ff"/><circle cx="134.6" cy="106.9" r="3" fill="#4aa3ff"/><circle cx="137.4" cy="106.9" r="3" fill="#4aa3ff"/><circle cx="140.2" cy="106.9" r="3" fill="#4aa3ff"/><circle cx="143.0" cy="106.9" r="3" fill="#4aa3ff"/><circle cx="145.8" cy="106.9" r="3" fill="#4aa3ff"/><circle cx="148.6" cy="106.9" r="3" fill="#4aa3ff"/><circle cx="151.5" cy="106.9" r="3" fill="#4aa3ff"/><circle cx="154.3" cy="106.9" r="3" fill="#4aa3ff"/><circle cx="157.1" cy="113.2" r="3" fill="#4aa3ff"/><circle cx="159.9" cy="113.2" r="3" fill="#4aa3ff"/><circle cx="162.7" cy="113.2" r="3" fill="#4aa3ff"/><circle cx="165.5" cy="113.2" r="3" fill="#4aa3ff"/><circle cx="168.4" cy="113.2" r="3" fill="#4aa3ff"/><circle cx="171.2" cy="110.7" r="3" fill="#4aa3ff"/><circle cx="174.0" cy="105.3" r="3" fill="#4aa3ff"/><circle cx="176.8" cy="83.4" r="3" fill="#4aa3ff"/><circle cx="179.6" cy="83.4" r="3" fill="#4aa3ff"/><circle cx="182.4" cy="85.6" r="3" fill="#4aa3ff"/><circle cx="185.3" cy="85.6" r="3" fill="#4aa3ff"/><circle cx="188.1" cy="85.6" r="3" fill="#4aa3ff"/><circle cx="190.9" cy="85.6" r="3" fill="#4aa3ff"/><circle cx="193.7" cy="85.6" r="3" fill="#4aa3ff"/><circle cx="196.5" cy="85.8" r="3" fill="#4aa3ff"/><circle cx="199.3" cy="85.8" r="3" fill="#4aa3ff"/><circle cx="202.2" cy="85.8" r="3" fill="#4aa3ff"/><circle cx="205.0" cy="86.0" r="3" fill="#4aa3ff"/><circle cx="207.8" cy="86.0" r="3" fill="#4aa3ff"/><circle cx="210.6" cy="86.0" r="3" fill="#4aa3ff"/><circle cx="213.4" cy="86.0" r="3" fill="#4aa3ff"/><circle cx="216.2" cy="86.0" r="3" fill="#4aa3ff"/><circle cx="219.0" cy="86.0" r="3" fill="#4aa3ff"/><circle cx="221.9" cy="86.0" r="3" fill="#4aa3ff"/><circle cx="224.7" cy="86.0" r="3" fill="#4aa3ff"/><circle cx="227.5" cy="86.0" r="3" fill="#4aa3ff"/><circle cx="230.3" cy="86.0" r="3" fill="#4aa3ff"/><circle cx="233.1" cy="86.0" r="3" fill="#4aa3ff"/><circle cx="235.9" cy="86.0" r="3" fill="#4aa3ff"/><circle cx="238.8" cy="86.0" r="3" fill="#4aa3ff"/><circle cx="241.6" cy="86.0" r="3" fill="#4aa3ff"/><circle cx="244.4" cy="86.0" r="3" fill="#4aa3ff"/><circle cx="247.2" cy="86.0" r="3" fill="#4aa3ff"/><circle cx="250.0" cy="86.0" r="3" fill="#4aa3ff"/><circle cx="252.8" cy="86.0" r="3" fill="#4aa3ff"/><circle cx="255.7" cy="86.0" r="3" fill="#4aa3ff"/><circle cx="258.5" cy="86.0" r="3" fill="#4aa3ff"/><circle cx="261.3" cy="86.0" r="3" fill="#4aa3ff"/><circle cx="264.1" cy="87.0" r="3" fill="#4aa3ff"/><circle cx="266.9" cy="87.0" r="3" fill="#4aa3ff"/><circle cx="269.7" cy="87.0" r="3" fill="#4aa3ff"/><circle cx="272.6" cy="73.7" r="3" fill="#4aa3ff"/><circle cx="275.4" cy="73.7" r="3" fill="#4aa3ff"/><circle cx="278.2" cy="71.0" r="3" fill="#4aa3ff"/><circle cx="281.0" cy="71.0" r="3" fill="#4aa3ff"/><circle cx="283.8" cy="70.8" r="3" fill="#4aa3ff"/><circle cx="286.6" cy="70.6" r="3" fill="#4aa3ff"/><circle cx="289.5" cy="70.6" r="3" fill="#4aa3ff"/><circle cx="292.3" cy="70.4" r="3" fill="#4aa3ff"/><circle cx="295.1" cy="68.6" r="3" fill="#4aa3ff"/><circle cx="297.9" cy="60.5" r="3" fill="#4aa3ff"/><circle cx="300.7" cy="59.3" r="3" fill="#4aa3ff"/><circle cx="303.5" cy="52.0" r="3" fill="#4aa3ff"/><circle cx="306.3" cy="47.3" r="3" fill="#4aa3ff"/><circle cx="309.2" cy="40.1" r="3" fill="#4aa3ff"/><circle cx="312.0" cy="36.0" r="3" fill="#4aa3ff"/><circle cx="314.8" cy="36.0" r="3" fill="#4aa3ff"/><circle cx="317.6" cy="36.0" r="3" fill="#4aa3ff"/><circle cx="320.4" cy="36.0" r="3" fill="#4aa3ff"/><circle cx="323.2" cy="36.0" r="3" fill="#4aa3ff"/><circle cx="326.1" cy="36.0" r="3" fill="#4aa3ff"/><circle cx="328.9" cy="36.0" r="3" fill="#4aa3ff"/><circle cx="331.7" cy="36.0" r="3" fill="#4aa3ff"/><circle cx="334.5" cy="36.0" r="3" fill="#4aa3ff"/><circle cx="337.3" cy="36.0" r="3" fill="#4aa3ff"/><circle cx="340.1" cy="36.0" r="3" fill="#4aa3ff"/><circle cx="343.0" cy="36.0" r="3" fill="#4aa3ff"/><circle cx="345.8" cy="36.0" r="3" fill="#4aa3ff"/><circle cx="348.6" cy="36.0" r="3" fill="#4aa3ff"/><circle cx="351.4" cy="36.0" r="3" fill="#4aa3ff"/><circle cx="354.2" cy="36.0" r="3" fill="#4aa3ff"/><circle cx="357.0" cy="36.0" r="3" fill="#4aa3ff"/><circle cx="359.9" cy="36.0" r="3" fill="#4aa3ff"/><circle cx="362.7" cy="36.0" r="3" fill="#4aa3ff"/><circle cx="365.5" cy="36.0" r="3" fill="#4aa3ff"/><circle cx="368.3" cy="36.0" r="3" fill="#4aa3ff"/><circle cx="371.1" cy="36.0" r="3" fill="#4aa3ff"/><circle cx="373.9" cy="36.0" r="3" fill="#4aa3ff"/><circle cx="376.8" cy="36.0" r="3" fill="#4aa3ff"/><circle cx="379.6" cy="36.0" r="3" fill="#4aa3ff"/><circle cx="382.4" cy="36.0" r="3" fill="#4aa3ff"/><circle cx="385.2" cy="36.0" r="3" fill="#4aa3ff"/><circle cx="388.0" cy="36.0" r="3" fill="#4aa3ff"/><circle cx="390.8" cy="36.0" r="3" fill="#4aa3ff"/><circle cx="393.7" cy="36.0" r="3" fill="#4aa3ff"/><circle cx="396.5" cy="36.0" r="3" fill="#4aa3ff"/><circle cx="399.3" cy="36.0" r="3" fill="#4aa3ff"/><circle cx="402.1" cy="36.0" r="3" fill="#4aa3ff"/><circle cx="404.9" cy="36.0" r="3" fill="#4aa3ff"/><circle cx="407.7" cy="36.0" r="3" fill="#4aa3ff"/><circle cx="410.5" cy="36.0" r="3" fill="#4aa3ff"/><circle cx="413.4" cy="36.0" r="3" fill="#4aa3ff"/><circle cx="416.2" cy="36.0" r="3" fill="#4aa3ff"/><circle cx="419.0" cy="36.0" r="3" fill="#4aa3ff"/><circle cx="421.8" cy="36.0" r="3" fill="#4aa3ff"/><circle cx="424.6" cy="36.0" r="3" fill="#4aa3ff"/><circle cx="427.4" cy="36.0" r="3" fill="#4aa3ff"/><circle cx="430.3" cy="36.0" r="3" fill="#4aa3ff"/><circle cx="433.1" cy="36.0" r="3" fill="#4aa3ff"/><circle cx="435.9" cy="36.0" r="3" fill="#4aa3ff"/><circle cx="438.7" cy="36.0" r="3" fill="#4aa3ff"/><circle cx="441.5" cy="36.0" r="3" fill="#4aa3ff"/><circle cx="444.3" cy="36.0" r="3" fill="#4aa3ff"/><circle cx="447.2" cy="36.0" r="3" fill="#4aa3ff"/><circle cx="450.0" cy="36.0" r="3" fill="#4aa3ff"/><circle cx="452.8" cy="36.0" r="3" fill="#4aa3ff"/><circle cx="455.6" cy="36.0" r="3" fill="#4aa3ff"/><circle cx="458.4" cy="36.0" r="3" fill="#4aa3ff"/><circle cx="461.2" cy="36.0" r="3" fill="#4aa3ff"/><circle cx="464.1" cy="36.0" r="3" fill="#4aa3ff"/><circle cx="466.9" cy="36.0" r="3" fill="#4aa3ff"/><circle cx="469.7" cy="36.0" r="3" fill="#4aa3ff"/><circle cx="472.5" cy="36.0" r="3" fill="#4aa3ff"/><circle cx="475.3" cy="36.0" r="3" fill="#4aa3ff"/><circle cx="478.1" cy="36.0" r="3" fill="#4aa3ff"/><circle cx="481.0" cy="36.0" r="3" fill="#4aa3ff"/><circle cx="483.8" cy="36.0" r="3" fill="#4aa3ff"/><circle cx="486.6" cy="36.0" r="3" fill="#4aa3ff"/><circle cx="489.4" cy="36.0" r="3" fill="#4aa3ff"/><circle cx="492.2" cy="36.0" r="3" fill="#4aa3ff"/><circle cx="495.0" cy="36.0" r="3" fill="#4aa3ff"/><circle cx="497.8" cy="36.0" r="3" fill="#4aa3ff"/><circle cx="500.7" cy="36.0" r="3" fill="#4aa3ff"/><circle cx="503.5" cy="36.0" r="3" fill="#4aa3ff"/><circle cx="506.3" cy="36.0" r="3" fill="#4aa3ff"/><circle cx="509.1" cy="36.0" r="3" fill="#4aa3ff"/><circle cx="511.9" cy="36.0" r="3" fill="#4aa3ff"/><circle cx="514.7" cy="36.0" r="3" fill="#4aa3ff"/><circle cx="517.6" cy="36.0" r="3" fill="#4aa3ff"/><circle cx="520.4" cy="36.0" r="3" fill="#4aa3ff"/><circle cx="523.2" cy="36.0" r="3" fill="#4aa3ff"/><circle cx="526.0" cy="36.0" r="3" fill="#4aa3ff"/><circle cx="528.8" cy="36.0" r="3" fill="#4aa3ff"/><circle cx="531.6" cy="36.0" r="3" fill="#4aa3ff"/><circle cx="534.5" cy="36.0" r="3" fill="#4aa3ff"/><circle cx="537.3" cy="36.0" r="3" fill="#4aa3ff"/><circle cx="540.1" cy="36.0" r="3" fill="#4aa3ff"/><circle cx="542.9" cy="36.0" r="3" fill="#4aa3ff"/><circle cx="545.7" cy="36.0" r="3" fill="#4aa3ff"/><circle cx="548.5" cy="36.0" r="3" fill="#4aa3ff"/><circle cx="551.4" cy="36.0" r="3" fill="#4aa3ff"/><circle cx="554.2" cy="36.0" r="3" fill="#4aa3ff"/><circle cx="557.0" cy="36.0" r="3" fill="#4aa3ff"/><circle cx="559.8" cy="36.0" r="3" fill="#4aa3ff"/><circle cx="562.6" cy="36.0" r="3" fill="#4aa3ff"/><circle cx="565.4" cy="36.0" r="3" fill="#4aa3ff"/><circle cx="568.3" cy="36.0" r="3" fill="#4aa3ff"/><circle cx="571.1" cy="36.0" r="3" fill="#4aa3ff"/><circle cx="573.9" cy="36.0" r="3" fill="#4aa3ff"/><circle cx="576.7" cy="36.0" r="3" fill="#4aa3ff"/><circle cx="579.5" cy="36.0" r="3" fill="#4aa3ff"/><circle cx="582.3" cy="36.0" r="3" fill="#4aa3ff"/><circle cx="585.1" cy="36.0" r="3" fill="#4aa3ff"/><circle cx="588.0" cy="36.0" r="3" fill="#4aa3ff"/><circle cx="590.8" cy="36.0" r="3" fill="#4aa3ff"/><circle cx="593.6" cy="36.0" r="3" fill="#4aa3ff"/><circle cx="596.4" cy="36.0" r="3" fill="#4aa3ff"/><circle cx="599.2" cy="36.0" r="3" fill="#4aa3ff"/><circle cx="602.0" cy="36.0" r="3" fill="#4aa3ff"/><circle cx="604.9" cy="36.0" r="3" fill="#4aa3ff"/><circle cx="607.7" cy="36.0" r="3" fill="#4aa3ff"/><circle cx="610.5" cy="36.0" r="3" fill="#4aa3ff"/><circle cx="613.3" cy="36.0" r="3" fill="#4aa3ff"/><circle cx="616.1" cy="36.0" r="3" fill="#4aa3ff"/><circle cx="618.9" cy="36.0" r="3" fill="#4aa3ff"/><circle cx="621.8" cy="36.0" r="3" fill="#4aa3ff"/><circle cx="624.6" cy="36.0" r="3" fill="#4aa3ff"/><circle cx="627.4" cy="36.0" r="3" fill="#4aa3ff"/><circle cx="630.2" cy="36.0" r="3" fill="#4aa3ff"/><circle cx="633.0" cy="36.0" r="3" fill="#4aa3ff"/><circle cx="635.8" cy="36.0" r="3" fill="#4aa3ff"/><circle cx="638.7" cy="36.0" r="3" fill="#4aa3ff"/><circle cx="641.5" cy="36.0" r="3" fill="#4aa3ff"/><circle cx="644.3" cy="36.0" r="3" fill="#4aa3ff"/><circle cx="647.1" cy="36.0" r="3" fill="#4aa3ff"/><circle cx="649.9" cy="36.0" r="3" fill="#4aa3ff"/><circle cx="652.7" cy="36.0" r="3" fill="#4aa3ff"/><circle cx="655.6" cy="36.0" r="3" fill="#4aa3ff"/><circle cx="658.4" cy="36.0" r="3" fill="#4aa3ff"/><circle cx="661.2" cy="36.0" r="3" fill="#4aa3ff"/><circle cx="664.0" cy="36.0" r="3" fill="#4aa3ff"/>
<text x="36" y="225" fill="#6b7280" font-size="11">2026-06-26</text>
<text x="664" y="225" fill="#6b7280" font-size="11" text-anchor="end">2026-07-18</text>
<text x="36" y="212" font-family="system-ui,sans-serif" font-size="11">
<tspan fill="#4aa3ff">&#9679; open FPs</tspan>  <tspan fill="#3fb950">&#9679; closed (Anthropic acting)</tspan>  <tspan fill="#8a5a5a">&#9679; harness withdrawn</tspan></text>
<text x="664" y="22" text-anchor="end" font-family="system-ui,sans-serif" font-size="12">
<tspan fill="#4aa3ff">open 800</tspan>  <tspan fill="#3fb950">closed 0</tspan>  <tspan fill="#8a5a5a">harness 0</tspan></text>
</svg>