<svg xmlns="http://www.w3.org/2000/svg" width="700" height="234" viewBox="0 0 700 234" role="img">
<rect width="700" height="234" rx="12" fill="#16181d"/>
<text x="36" y="22" fill="#e8eaed" font-family="system-ui,sans-serif" font-size="14" font-weight="700">Is Anthropic acting? cyber/aup false positives over time</text>
<line x1="36" y1="198.0" x2="664" y2="198.0" stroke="#2a2e37" stroke-width="1"/><text x="30" y="202.0" fill="#6b7280" font-size="11" text-anchor="end">0</text><line x1="36" y1="117.0" x2="664" y2="117.0" stroke="#2a2e37" stroke-width="1"/><text x="30" y="121.0" fill="#6b7280" font-size="11" text-anchor="end">283</text><line x1="36" y1="36.0" x2="664" y2="36.0" stroke="#2a2e37" stroke-width="1"/><text x="30" y="40.0" fill="#6b7280" font-size="11" text-anchor="end">566</text>

<polyline fill="none" stroke="#8a5a5a" stroke-width="2.5" stroke-linejoin="round" points="36.0,123.3 44.3,123.3 52.5,123.3 60.8,123.3 69.1,123.3 77.3,123.3 85.6,123.3 93.8,123.3 102.1,123.3 110.4,123.3 118.6,123.3 126.9,123.3 135.2,123.3 143.4,123.3 151.7,123.3 159.9,123.3 168.2,123.3 176.5,123.3 184.7,123.3 193.0,123.3 201.3,123.3 209.5,123.3 217.8,123.3 226.1,123.3 234.3,123.3 242.6,123.3 250.8,123.3 259.1,123.3 267.4,123.3 275.6,123.3 283.9,123.3 292.2,123.3 300.4,123.3 308.7,123.3 316.9,123.3 325.2,123.3 333.5,123.3 341.7,123.3 350.0,123.3 358.3,123.3 366.5,123.3 374.8,123.3 383.1,123.3 391.3,123.3 399.6,123.3 407.8,123.3 416.1,123.3 424.4,123.3 432.6,123.3 440.9,123.3 449.2,138.2 457.4,138.2 465.7,138.2 473.9,138.2 482.2,138.2 490.5,138.2 498.7,138.2 507.0,138.2 515.3,138.2 523.5,138.2 531.8,138.2 540.1,138.2 548.3,138.2 556.6,138.2 564.8,138.2 573.1,138.2 581.4,138.2 589.6,138.2 597.9,138.2 606.2,138.2 614.4,138.2 622.7,138.2 630.9,138.2 639.2,138.2 647.5,138.2 655.7,138.2 664.0,138.2"/><circle cx="36.0" cy="123.3" r="3" fill="#8a5a5a"/><circle cx="44.3" cy="123.3" r="3" fill="#8a5a5a"/><circle cx="52.5" cy="123.3" r="3" fill="#8a5a5a"/><circle cx="60.8" cy="123.3" r="3" fill="#8a5a5a"/><circle cx="69.1" cy="123.3" r="3" fill="#8a5a5a"/><circle cx="77.3" cy="123.3" r="3" fill="#8a5a5a"/><circle cx="85.6" cy="123.3" r="3" fill="#8a5a5a"/><circle cx="93.8" cy="123.3" r="3" fill="#8a5a5a"/><circle cx="102.1" cy="123.3" r="3" fill="#8a5a5a"/><circle cx="110.4" cy="123.3" r="3" fill="#8a5a5a"/><circle cx="118.6" cy="123.3" r="3" fill="#8a5a5a"/><circle cx="126.9" cy="123.3" r="3" fill="#8a5a5a"/><circle cx="135.2" cy="123.3" r="3" fill="#8a5a5a"/><circle cx="143.4" cy="123.3" r="3" fill="#8a5a5a"/><circle cx="151.7" cy="123.3" r="3" fill="#8a5a5a"/><circle cx="159.9" cy="123.3" r="3" fill="#8a5a5a"/><circle cx="168.2" cy="123.3" r="3" fill="#8a5a5a"/><circle cx="176.5" cy="123.3" r="3" fill="#8a5a5a"/><circle cx="184.7" cy="123.3" r="3" fill="#8a5a5a"/><circle cx="193.0" cy="123.3" r="3" fill="#8a5a5a"/><circle cx="201.3" cy="123.3" r="3" fill="#8a5a5a"/><circle cx="209.5" cy="123.3" r="3" fill="#8a5a5a"/><circle cx="217.8" cy="123.3" r="3" fill="#8a5a5a"/><circle cx="226.1" cy="123.3" r="3" fill="#8a5a5a"/><circle cx="234.3" cy="123.3" r="3" fill="#8a5a5a"/><circle cx="242.6" cy="123.3" r="3" fill="#8a5a5a"/><circle cx="250.8" cy="123.3" r="3" fill="#8a5a5a"/><circle cx="259.1" cy="123.3" r="3" fill="#8a5a5a"/><circle cx="267.4" cy="123.3" r="3" fill="#8a5a5a"/><circle cx="275.6" cy="123.3" r="3" fill="#8a5a5a"/><circle cx="283.9" cy="123.3" r="3" fill="#8a5a5a"/><circle cx="292.2" cy="123.3" r="3" fill="#8a5a5a"/><circle cx="300.4" cy="123.3" r="3" fill="#8a5a5a"/><circle cx="308.7" cy="123.3" r="3" fill="#8a5a5a"/><circle cx="316.9" cy="123.3" r="3" fill="#8a5a5a"/><circle cx="325.2" cy="123.3" r="3" fill="#8a5a5a"/><circle cx="333.5" cy="123.3" r="3" fill="#8a5a5a"/><circle cx="341.7" cy="123.3" r="3" fill="#8a5a5a"/><circle cx="350.0" cy="123.3" r="3" fill="#8a5a5a"/><circle cx="358.3" cy="123.3" r="3" fill="#8a5a5a"/><circle cx="366.5" cy="123.3" r="3" fill="#8a5a5a"/><circle cx="374.8" cy="123.3" r="3" fill="#8a5a5a"/><circle cx="383.1" cy="123.3" r="3" fill="#8a5a5a"/><circle cx="391.3" cy="123.3" r="3" fill="#8a5a5a"/><circle cx="399.6" cy="123.3" r="3" fill="#8a5a5a"/><circle cx="407.8" cy="123.3" r="3" fill="#8a5a5a"/><circle cx="416.1" cy="123.3" r="3" fill="#8a5a5a"/><circle cx="424.4" cy="123.3" r="3" fill="#8a5a5a"/><circle cx="432.6" cy="123.3" r="3" fill="#8a5a5a"/><circle cx="440.9" cy="123.3" r="3" fill="#8a5a5a"/><circle cx="449.2" cy="138.2" r="3" fill="#8a5a5a"/><circle cx="457.4" cy="138.2" r="3" fill="#8a5a5a"/><circle cx="465.7" cy="138.2" r="3" fill="#8a5a5a"/><circle cx="473.9" cy="138.2" r="3" fill="#8a5a5a"/><circle cx="482.2" cy="138.2" r="3" fill="#8a5a5a"/><circle cx="490.5" cy="138.2" r="3" fill="#8a5a5a"/><circle cx="498.7" cy="138.2" r="3" fill="#8a5a5a"/><circle cx="507.0" cy="138.2" r="3" fill="#8a5a5a"/><circle cx="515.3" cy="138.2" r="3" fill="#8a5a5a"/><circle cx="523.5" cy="138.2" r="3" fill="#8a5a5a"/><circle cx="531.8" cy="138.2" r="3" fill="#8a5a5a"/><circle cx="540.1" cy="138.2" r="3" fill="#8a5a5a"/><circle cx="548.3" cy="138.2" r="3" fill="#8a5a5a"/><circle cx="556.6" cy="138.2" r="3" fill="#8a5a5a"/><circle cx="564.8" cy="138.2" r="3" fill="#8a5a5a"/><circle cx="573.1" cy="138.2" r="3" fill="#8a5a5a"/><circle cx="581.4" cy="138.2" r="3" fill="#8a5a5a"/><circle cx="589.6" cy="138.2" r="3" fill="#8a5a5a"/><circle cx="597.9" cy="138.2" r="3" fill="#8a5a5a"/><circle cx="606.2" cy="138.2" r="3" fill="#8a5a5a"/><circle cx="614.4" cy="138.2" r="3" fill="#8a5a5a"/><circle cx="622.7" cy="138.2" r="3" fill="#8a5a5a"/><circle cx="630.9" cy="138.2" r="3" fill="#8a5a5a"/><circle cx="639.2" cy="138.2" r="3" fill="#8a5a5a"/><circle cx="647.5" cy="138.2" r="3" fill="#8a5a5a"/><circle cx="655.7" cy="138.2" r="3" fill="#8a5a5a"/><circle cx="664.0" cy="138.2" r="3" fill="#8a5a5a"/>
<polyline fill="none" stroke="#3fb950" stroke-width="2.5" stroke-linejoin="round" points="36.0,198.0 44.3,198.0 52.5,198.0 60.8,198.0 69.1,198.0 77.3,198.0 85.6,198.0 93.8,198.0 102.1,198.0 110.4,198.0 118.6,198.0 126.9,198.0 135.2,198.0 143.4,198.0 151.7,198.0 159.9,198.0 168.2,198.0 176.5,198.0 184.7,198.0 193.0,198.0 201.3,198.0 209.5,198.0 217.8,198.0 226.1,198.0 234.3,198.0 242.6,198.0 250.8,198.0 259.1,198.0 267.4,198.0 275.6,198.0 283.9,198.0 292.2,198.0 300.4,198.0 308.7,198.0 316.9,198.0 325.2,198.0 333.5,198.0 341.7,198.0 350.0,198.0 358.3,198.0 366.5,198.0 374.8,198.0 383.1,198.0 391.3,189.1 399.6,189.1 407.8,189.1 416.1,189.1 424.4,189.1 432.6,189.1 440.9,189.1 449.2,190.8 457.4,190.8 465.7,187.7 473.9,187.7 482.2,187.7 490.5,187.7 498.7,187.7 507.0,187.4 515.3,187.4 523.5,187.4 531.8,187.1 540.1,187.1 548.3,187.1 556.6,187.1 564.8,187.1 573.1,187.1 581.4,187.1 589.6,187.1 597.9,187.1 606.2,187.1 614.4,187.1 622.7,187.1 630.9,187.1 639.2,187.1 647.5,187.1 655.7,187.1 664.0,187.1"/><circle cx="36.0" cy="198.0" r="3" fill="#3fb950"/><circle cx="44.3" cy="198.0" r="3" fill="#3fb950"/><circle cx="52.5" cy="198.0" r="3" fill="#3fb950"/><circle cx="60.8" cy="198.0" r="3" fill="#3fb950"/><circle cx="69.1" cy="198.0" r="3" fill="#3fb950"/><circle cx="77.3" cy="198.0" r="3" fill="#3fb950"/><circle cx="85.6" cy="198.0" r="3" fill="#3fb950"/><circle cx="93.8" cy="198.0" r="3" fill="#3fb950"/><circle cx="102.1" cy="198.0" r="3" fill="#3fb950"/><circle cx="110.4" cy="198.0" r="3" fill="#3fb950"/><circle cx="118.6" cy="198.0" r="3" fill="#3fb950"/><circle cx="126.9" cy="198.0" r="3" fill="#3fb950"/><circle cx="135.2" cy="198.0" r="3" fill="#3fb950"/><circle cx="143.4" cy="198.0" r="3" fill="#3fb950"/><circle cx="151.7" cy="198.0" r="3" fill="#3fb950"/><circle cx="159.9" cy="198.0" r="3" fill="#3fb950"/><circle cx="168.2" cy="198.0" r="3" fill="#3fb950"/><circle cx="176.5" cy="198.0" r="3" fill="#3fb950"/><circle cx="184.7" cy="198.0" r="3" fill="#3fb950"/><circle cx="193.0" cy="198.0" r="3" fill="#3fb950"/><circle cx="201.3" cy="198.0" r="3" fill="#3fb950"/><circle cx="209.5" cy="198.0" r="3" fill="#3fb950"/><circle cx="217.8" cy="198.0" r="3" fill="#3fb950"/><circle cx="226.1" cy="198.0" r="3" fill="#3fb950"/><circle cx="234.3" cy="198.0" r="3" fill="#3fb950"/><circle cx="242.6" cy="198.0" r="3" fill="#3fb950"/><circle cx="250.8" cy="198.0" r="3" fill="#3fb950"/><circle cx="259.1" cy="198.0" r="3" fill="#3fb950"/><circle cx="267.4" cy="198.0" r="3" fill="#3fb950"/><circle cx="275.6" cy="198.0" r="3" fill="#3fb950"/><circle cx="283.9" cy="198.0" r="3" fill="#3fb950"/><circle cx="292.2" cy="198.0" r="3" fill="#3fb950"/><circle cx="300.4" cy="198.0" r="3" fill="#3fb950"/><circle cx="308.7" cy="198.0" r="3" fill="#3fb950"/><circle cx="316.9" cy="198.0" r="3" fill="#3fb950"/><circle cx="325.2" cy="198.0" r="3" fill="#3fb950"/><circle cx="333.5" cy="198.0" r="3" fill="#3fb950"/><circle cx="341.7" cy="198.0" r="3" fill="#3fb950"/><circle cx="350.0" cy="198.0" r="3" fill="#3fb950"/><circle cx="358.3" cy="198.0" r="3" fill="#3fb950"/><circle cx="366.5" cy="198.0" r="3" fill="#3fb950"/><circle cx="374.8" cy="198.0" r="3" fill="#3fb950"/><circle cx="383.1" cy="198.0" r="3" fill="#3fb950"/><circle cx="391.3" cy="189.1" r="3" fill="#3fb950"/><circle cx="399.6" cy="189.1" r="3" fill="#3fb950"/><circle cx="407.8" cy="189.1" r="3" fill="#3fb950"/><circle cx="416.1" cy="189.1" r="3" fill="#3fb950"/><circle cx="424.4" cy="189.1" r="3" fill="#3fb950"/><circle cx="432.6" cy="189.1" r="3" fill="#3fb950"/><circle cx="440.9" cy="189.1" r="3" fill="#3fb950"/><circle cx="449.2" cy="190.8" r="3" fill="#3fb950"/><circle cx="457.4" cy="190.8" r="3" fill="#3fb950"/><circle cx="465.7" cy="187.7" r="3" fill="#3fb950"/><circle cx="473.9" cy="187.7" r="3" fill="#3fb950"/><circle cx="482.2" cy="187.7" r="3" fill="#3fb950"/><circle cx="490.5" cy="187.7" r="3" fill="#3fb950"/><circle cx="498.7" cy="187.7" r="3" fill="#3fb950"/><circle cx="507.0" cy="187.4" r="3" fill="#3fb950"/><circle cx="515.3" cy="187.4" r="3" fill="#3fb950"/><circle cx="523.5" cy="187.4" r="3" fill="#3fb950"/><circle cx="531.8" cy="187.1" r="3" fill="#3fb950"/><circle cx="540.1" cy="187.1" r="3" fill="#3fb950"/><circle cx="548.3" cy="187.1" r="3" fill="#3fb950"/><circle cx="556.6" cy="187.1" r="3" fill="#3fb950"/><circle cx="564.8" cy="187.1" r="3" fill="#3fb950"/><circle cx="573.1" cy="187.1" r="3" fill="#3fb950"/><circle cx="581.4" cy="187.1" r="3" fill="#3fb950"/><circle cx="589.6" cy="187.1" r="3" fill="#3fb950"/><circle cx="597.9" cy="187.1" r="3" fill="#3fb950"/><circle cx="606.2" cy="187.1" r="3" fill="#3fb950"/><circle cx="614.4" cy="187.1" r="3" fill="#3fb950"/><circle cx="622.7" cy="187.1" r="3" fill="#3fb950"/><circle cx="630.9" cy="187.1" r="3" fill="#3fb950"/><circle cx="639.2" cy="187.1" r="3" fill="#3fb950"/><circle cx="647.5" cy="187.1" r="3" fill="#3fb950"/><circle cx="655.7" cy="187.1" r="3" fill="#3fb950"/><circle cx="664.0" cy="187.1" r="3" fill="#3fb950"/>
<polyline fill="none" stroke="#4aa3ff" stroke-width="2.5" stroke-linejoin="round" points="36.0,122.2 44.3,122.2 52.5,122.2 60.8,122.2 69.1,122.2 77.3,122.2 85.6,122.2 93.8,122.2 102.1,122.2 110.4,122.2 118.6,122.2 126.9,122.2 135.2,122.2 143.4,122.2 151.7,122.2 159.9,110.7 168.2,105.3 176.5,101.3 184.7,101.3 193.0,89.2 201.3,89.2 209.5,89.2 217.8,79.8 226.1,79.8 234.3,79.8 242.6,75.5 250.8,74.9 259.1,74.9 267.4,74.4 275.6,74.4 283.9,73.5 292.2,71.8 300.4,69.8 308.7,69.2 316.9,69.2 325.2,69.2 333.5,69.2 341.7,69.2 350.0,69.2 358.3,69.2 366.5,69.2 374.8,69.2 383.1,69.2 391.3,78.1 399.6,78.1 407.8,78.1 416.1,78.1 424.4,78.1 432.6,74.6 440.9,66.9 449.2,36.0 457.4,36.0 465.7,39.1 473.9,39.1 482.2,39.1 490.5,39.1 498.7,39.1 507.0,39.4 515.3,39.4 523.5,39.4 531.8,39.7 540.1,39.7 548.3,39.7 556.6,39.7 564.8,39.7 573.1,39.7 581.4,39.7 589.6,39.7 597.9,39.7 606.2,39.7 614.4,39.7 622.7,39.7 630.9,39.7 639.2,39.7 647.5,39.7 655.7,39.7 664.0,39.7"/><circle cx="36.0" cy="122.2" r="3" fill="#4aa3ff"/><circle cx="44.3" cy="122.2" r="3" fill="#4aa3ff"/><circle cx="52.5" cy="122.2" r="3" fill="#4aa3ff"/><circle cx="60.8" cy="122.2" r="3" fill="#4aa3ff"/><circle cx="69.1" cy="122.2" r="3" fill="#4aa3ff"/><circle cx="77.3" cy="122.2" r="3" fill="#4aa3ff"/><circle cx="85.6" cy="122.2" r="3" fill="#4aa3ff"/><circle cx="93.8" cy="122.2" r="3" fill="#4aa3ff"/><circle cx="102.1" cy="122.2" r="3" fill="#4aa3ff"/><circle cx="110.4" cy="122.2" r="3" fill="#4aa3ff"/><circle cx="118.6" cy="122.2" r="3" fill="#4aa3ff"/><circle cx="126.9" cy="122.2" r="3" fill="#4aa3ff"/><circle cx="135.2" cy="122.2" r="3" fill="#4aa3ff"/><circle cx="143.4" cy="122.2" r="3" fill="#4aa3ff"/><circle cx="151.7" cy="122.2" r="3" fill="#4aa3ff"/><circle cx="159.9" cy="110.7" r="3" fill="#4aa3ff"/><circle cx="168.2" cy="105.3" r="3" fill="#4aa3ff"/><circle cx="176.5" cy="101.3" r="3" fill="#4aa3ff"/><circle cx="184.7" cy="101.3" r="3" fill="#4aa3ff"/><circle cx="193.0" cy="89.2" r="3" fill="#4aa3ff"/><circle cx="201.3" cy="89.2" r="3" fill="#4aa3ff"/><circle cx="209.5" cy="89.2" r="3" fill="#4aa3ff"/><circle cx="217.8" cy="79.8" r="3" fill="#4aa3ff"/><circle cx="226.1" cy="79.8" r="3" fill="#4aa3ff"/><circle cx="234.3" cy="79.8" r="3" fill="#4aa3ff"/><circle cx="242.6" cy="75.5" r="3" fill="#4aa3ff"/><circle cx="250.8" cy="74.9" r="3" fill="#4aa3ff"/><circle cx="259.1" cy="74.9" r="3" fill="#4aa3ff"/><circle cx="267.4" cy="74.4" r="3" fill="#4aa3ff"/><circle cx="275.6" cy="74.4" r="3" fill="#4aa3ff"/><circle cx="283.9" cy="73.5" r="3" fill="#4aa3ff"/><circle cx="292.2" cy="71.8" r="3" fill="#4aa3ff"/><circle cx="300.4" cy="69.8" r="3" fill="#4aa3ff"/><circle cx="308.7" cy="69.2" r="3" fill="#4aa3ff"/><circle cx="316.9" cy="69.2" r="3" fill="#4aa3ff"/><circle cx="325.2" cy="69.2" r="3" fill="#4aa3ff"/><circle cx="333.5" cy="69.2" r="3" fill="#4aa3ff"/><circle cx="341.7" cy="69.2" r="3" fill="#4aa3ff"/><circle cx="350.0" cy="69.2" r="3" fill="#4aa3ff"/><circle cx="358.3" cy="69.2" r="3" fill="#4aa3ff"/><circle cx="366.5" cy="69.2" r="3" fill="#4aa3ff"/><circle cx="374.8" cy="69.2" r="3" fill="#4aa3ff"/><circle cx="383.1" cy="69.2" r="3" fill="#4aa3ff"/><circle cx="391.3" cy="78.1" r="3" fill="#4aa3ff"/><circle cx="399.6" cy="78.1" r="3" fill="#4aa3ff"/><circle cx="407.8" cy="78.1" r="3" fill="#4aa3ff"/><circle cx="416.1" cy="78.1" r="3" fill="#4aa3ff"/><circle cx="424.4" cy="78.1" r="3" fill="#4aa3ff"/><circle cx="432.6" cy="74.6" r="3" fill="#4aa3ff"/><circle cx="440.9" cy="66.9" r="3" fill="#4aa3ff"/><circle cx="449.2" cy="36.0" r="3" fill="#4aa3ff"/><circle cx="457.4" cy="36.0" r="3" fill="#4aa3ff"/><circle cx="465.7" cy="39.1" r="3" fill="#4aa3ff"/><circle cx="473.9" cy="39.1" r="3" fill="#4aa3ff"/><circle cx="482.2" cy="39.1" r="3" fill="#4aa3ff"/><circle cx="490.5" cy="39.1" r="3" fill="#4aa3ff"/><circle cx="498.7" cy="39.1" r="3" fill="#4aa3ff"/><circle cx="507.0" cy="39.4" r="3" fill="#4aa3ff"/><circle cx="515.3" cy="39.4" r="3" fill="#4aa3ff"/><circle cx="523.5" cy="39.4" r="3" fill="#4aa3ff"/><circle cx="531.8" cy="39.7" r="3" fill="#4aa3ff"/><circle cx="540.1" cy="39.7" r="3" fill="#4aa3ff"/><circle cx="548.3" cy="39.7" r="3" fill="#4aa3ff"/><circle cx="556.6" cy="39.7" r="3" fill="#4aa3ff"/><circle cx="564.8" cy="39.7" r="3" fill="#4aa3ff"/><circle cx="573.1" cy="39.7" r="3" fill="#4aa3ff"/><circle cx="581.4" cy="39.7" r="3" fill="#4aa3ff"/><circle cx="589.6" cy="39.7" r="3" fill="#4aa3ff"/><circle cx="597.9" cy="39.7" r="3" fill="#4aa3ff"/><circle cx="606.2" cy="39.7" r="3" fill="#4aa3ff"/><circle cx="614.4" cy="39.7" r="3" fill="#4aa3ff"/><circle cx="622.7" cy="39.7" r="3" fill="#4aa3ff"/><circle cx="630.9" cy="39.7" r="3" fill="#4aa3ff"/><circle cx="639.2" cy="39.7" r="3" fill="#4aa3ff"/><circle cx="647.5" cy="39.7" r="3" fill="#4aa3ff"/><circle cx="655.7" cy="39.7" r="3" fill="#4aa3ff"/><circle cx="664.0" cy="39.7" r="3" fill="#4aa3ff"/>
<text x="36" y="225" fill="#6b7280" font-size="11">2026-06-26</text>
<text x="664" y="225" fill="#6b7280" font-size="11" text-anchor="end">2026-07-04</text>
<text x="36" y="212" font-family="system-ui,sans-serif" font-size="11">
<tspan fill="#4aa3ff">&#9679; open FPs</tspan>  <tspan fill="#3fb950">&#9679; closed (Anthropic acting)</tspan>  <tspan fill="#8a5a5a">&#9679; harness withdrawn</tspan></text>
<text x="664" y="22" text-anchor="end" font-family="system-ui,sans-serif" font-size="12">
<tspan fill="#4aa3ff">open 553</tspan>  <tspan fill="#3fb950">closed 38</tspan>  <tspan fill="#8a5a5a">harness 209</tspan></text>
</svg>