<svg xmlns="http://www.w3.org/2000/svg" width="700" height="234" viewBox="0 0 700 234" role="img">
<rect width="700" height="234" rx="12" fill="#16181d"/>
<text x="36" y="22" fill="#e8eaed" font-family="system-ui,sans-serif" font-size="14" font-weight="700">Is Anthropic acting? cyber/aup false positives over time</text>
<line x1="36" y1="198.0" x2="664" y2="198.0" stroke="#2a2e37" stroke-width="1"/><text x="30" y="202.0" fill="#6b7280" font-size="11" text-anchor="end">0</text><line x1="36" y1="117.0" x2="664" y2="117.0" stroke="#2a2e37" stroke-width="1"/><text x="30" y="121.0" fill="#6b7280" font-size="11" text-anchor="end">307</text><line x1="36" y1="36.0" x2="664" y2="36.0" stroke="#2a2e37" stroke-width="1"/><text x="30" y="40.0" fill="#6b7280" font-size="11" text-anchor="end">614</text>

<polyline fill="none" stroke="#8a5a5a" stroke-width="2.5" stroke-linejoin="round" points="36.0,129.1 43.4,129.1 50.8,129.1 58.2,129.1 65.6,129.1 72.9,129.1 80.3,129.1 87.7,129.1 95.1,129.1 102.5,129.1 109.9,129.1 117.3,129.1 124.7,129.1 132.0,129.1 139.4,129.1 146.8,129.1 154.2,129.1 161.6,129.1 169.0,129.1 176.4,129.1 183.8,129.1 191.2,129.1 198.5,129.1 205.9,129.1 213.3,129.1 220.7,129.1 228.1,129.1 235.5,129.1 242.9,129.1 250.3,129.1 257.6,129.1 265.0,129.1 272.4,129.1 279.8,129.1 287.2,129.1 294.6,129.1 302.0,129.1 309.4,129.1 316.8,129.1 324.1,129.1 331.5,129.1 338.9,129.1 346.3,129.1 353.7,129.1 361.1,129.1 368.5,129.1 375.9,129.1 383.2,129.1 390.6,129.1 398.0,129.1 405.4,142.9 412.8,142.9 420.2,142.9 427.6,142.9 435.0,142.9 442.4,142.9 449.7,142.9 457.1,142.9 464.5,142.9 471.9,142.9 479.3,142.9 486.7,142.9 494.1,142.9 501.5,142.9 508.8,142.9 516.2,142.9 523.6,142.9 531.0,142.9 538.4,142.9 545.8,142.9 553.2,142.9 560.6,142.9 568.0,142.9 575.3,142.9 582.7,142.9 590.1,142.9 597.5,142.9 604.9,142.9 612.3,142.9 619.7,142.9 627.1,142.9 634.4,142.9 641.8,142.9 649.2,142.9 656.6,158.4 664.0,158.4"/><circle cx="36.0" cy="129.1" r="3" fill="#8a5a5a"/><circle cx="43.4" cy="129.1" r="3" fill="#8a5a5a"/><circle cx="50.8" cy="129.1" r="3" fill="#8a5a5a"/><circle cx="58.2" cy="129.1" r="3" fill="#8a5a5a"/><circle cx="65.6" cy="129.1" r="3" fill="#8a5a5a"/><circle cx="72.9" cy="129.1" r="3" fill="#8a5a5a"/><circle cx="80.3" cy="129.1" r="3" fill="#8a5a5a"/><circle cx="87.7" cy="129.1" r="3" fill="#8a5a5a"/><circle cx="95.1" cy="129.1" r="3" fill="#8a5a5a"/><circle cx="102.5" cy="129.1" r="3" fill="#8a5a5a"/><circle cx="109.9" cy="129.1" r="3" fill="#8a5a5a"/><circle cx="117.3" cy="129.1" r="3" fill="#8a5a5a"/><circle cx="124.7" cy="129.1" r="3" fill="#8a5a5a"/><circle cx="132.0" cy="129.1" r="3" fill="#8a5a5a"/><circle cx="139.4" cy="129.1" r="3" fill="#8a5a5a"/><circle cx="146.8" cy="129.1" r="3" fill="#8a5a5a"/><circle cx="154.2" cy="129.1" r="3" fill="#8a5a5a"/><circle cx="161.6" cy="129.1" r="3" fill="#8a5a5a"/><circle cx="169.0" cy="129.1" r="3" fill="#8a5a5a"/><circle cx="176.4" cy="129.1" r="3" fill="#8a5a5a"/><circle cx="183.8" cy="129.1" r="3" fill="#8a5a5a"/><circle cx="191.2" cy="129.1" r="3" fill="#8a5a5a"/><circle cx="198.5" cy="129.1" r="3" fill="#8a5a5a"/><circle cx="205.9" cy="129.1" r="3" fill="#8a5a5a"/><circle cx="213.3" cy="129.1" r="3" fill="#8a5a5a"/><circle cx="220.7" cy="129.1" r="3" fill="#8a5a5a"/><circle cx="228.1" cy="129.1" r="3" fill="#8a5a5a"/><circle cx="235.5" cy="129.1" r="3" fill="#8a5a5a"/><circle cx="242.9" cy="129.1" r="3" fill="#8a5a5a"/><circle cx="250.3" cy="129.1" r="3" fill="#8a5a5a"/><circle cx="257.6" cy="129.1" r="3" fill="#8a5a5a"/><circle cx="265.0" cy="129.1" r="3" fill="#8a5a5a"/><circle cx="272.4" cy="129.1" r="3" fill="#8a5a5a"/><circle cx="279.8" cy="129.1" r="3" fill="#8a5a5a"/><circle cx="287.2" cy="129.1" r="3" fill="#8a5a5a"/><circle cx="294.6" cy="129.1" r="3" fill="#8a5a5a"/><circle cx="302.0" cy="129.1" r="3" fill="#8a5a5a"/><circle cx="309.4" cy="129.1" r="3" fill="#8a5a5a"/><circle cx="316.8" cy="129.1" r="3" fill="#8a5a5a"/><circle cx="324.1" cy="129.1" r="3" fill="#8a5a5a"/><circle cx="331.5" cy="129.1" r="3" fill="#8a5a5a"/><circle cx="338.9" cy="129.1" r="3" fill="#8a5a5a"/><circle cx="346.3" cy="129.1" r="3" fill="#8a5a5a"/><circle cx="353.7" cy="129.1" r="3" fill="#8a5a5a"/><circle cx="361.1" cy="129.1" r="3" fill="#8a5a5a"/><circle cx="368.5" cy="129.1" r="3" fill="#8a5a5a"/><circle cx="375.9" cy="129.1" r="3" fill="#8a5a5a"/><circle cx="383.2" cy="129.1" r="3" fill="#8a5a5a"/><circle cx="390.6" cy="129.1" r="3" fill="#8a5a5a"/><circle cx="398.0" cy="129.1" r="3" fill="#8a5a5a"/><circle cx="405.4" cy="142.9" r="3" fill="#8a5a5a"/><circle cx="412.8" cy="142.9" r="3" fill="#8a5a5a"/><circle cx="420.2" cy="142.9" r="3" fill="#8a5a5a"/><circle cx="427.6" cy="142.9" r="3" fill="#8a5a5a"/><circle cx="435.0" cy="142.9" r="3" fill="#8a5a5a"/><circle cx="442.4" cy="142.9" r="3" fill="#8a5a5a"/><circle cx="449.7" cy="142.9" r="3" fill="#8a5a5a"/><circle cx="457.1" cy="142.9" r="3" fill="#8a5a5a"/><circle cx="464.5" cy="142.9" r="3" fill="#8a5a5a"/><circle cx="471.9" cy="142.9" r="3" fill="#8a5a5a"/><circle cx="479.3" cy="142.9" r="3" fill="#8a5a5a"/><circle cx="486.7" cy="142.9" r="3" fill="#8a5a5a"/><circle cx="494.1" cy="142.9" r="3" fill="#8a5a5a"/><circle cx="501.5" cy="142.9" r="3" fill="#8a5a5a"/><circle cx="508.8" cy="142.9" r="3" fill="#8a5a5a"/><circle cx="516.2" cy="142.9" r="3" fill="#8a5a5a"/><circle cx="523.6" cy="142.9" r="3" fill="#8a5a5a"/><circle cx="531.0" cy="142.9" r="3" fill="#8a5a5a"/><circle cx="538.4" cy="142.9" r="3" fill="#8a5a5a"/><circle cx="545.8" cy="142.9" r="3" fill="#8a5a5a"/><circle cx="553.2" cy="142.9" r="3" fill="#8a5a5a"/><circle cx="560.6" cy="142.9" r="3" fill="#8a5a5a"/><circle cx="568.0" cy="142.9" r="3" fill="#8a5a5a"/><circle cx="575.3" cy="142.9" r="3" fill="#8a5a5a"/><circle cx="582.7" cy="142.9" r="3" fill="#8a5a5a"/><circle cx="590.1" cy="142.9" r="3" fill="#8a5a5a"/><circle cx="597.5" cy="142.9" r="3" fill="#8a5a5a"/><circle cx="604.9" cy="142.9" r="3" fill="#8a5a5a"/><circle cx="612.3" cy="142.9" r="3" fill="#8a5a5a"/><circle cx="619.7" cy="142.9" r="3" fill="#8a5a5a"/><circle cx="627.1" cy="142.9" r="3" fill="#8a5a5a"/><circle cx="634.4" cy="142.9" r="3" fill="#8a5a5a"/><circle cx="641.8" cy="142.9" r="3" fill="#8a5a5a"/><circle cx="649.2" cy="142.9" r="3" fill="#8a5a5a"/><circle cx="656.6" cy="158.4" r="3" fill="#8a5a5a"/><circle cx="664.0" cy="158.4" r="3" fill="#8a5a5a"/>
<polyline fill="none" stroke="#3fb950" stroke-width="2.5" stroke-linejoin="round" points="36.0,198.0 43.4,198.0 50.8,198.0 58.2,198.0 65.6,198.0 72.9,198.0 80.3,198.0 87.7,198.0 95.1,198.0 102.5,198.0 109.9,198.0 117.3,198.0 124.7,198.0 132.0,198.0 139.4,198.0 146.8,198.0 154.2,198.0 161.6,198.0 169.0,198.0 176.4,198.0 183.8,198.0 191.2,198.0 198.5,198.0 205.9,198.0 213.3,198.0 220.7,198.0 228.1,198.0 235.5,198.0 242.9,198.0 250.3,198.0 257.6,198.0 265.0,198.0 272.4,198.0 279.8,198.0 287.2,198.0 294.6,198.0 302.0,198.0 309.4,198.0 316.8,198.0 324.1,198.0 331.5,198.0 338.9,198.0 346.3,198.0 353.7,189.8 361.1,189.8 368.5,189.8 375.9,189.8 383.2,189.8 390.6,189.8 398.0,189.8 405.4,191.4 412.8,191.4 420.2,188.5 427.6,188.5 435.0,188.5 442.4,188.5 449.7,188.5 457.1,188.2 464.5,188.2 471.9,188.2 479.3,188.0 486.7,188.0 494.1,188.0 501.5,188.0 508.8,188.0 516.2,188.0 523.6,188.0 531.0,188.0 538.4,188.0 545.8,188.0 553.2,188.0 560.6,188.0 568.0,188.0 575.3,188.0 582.7,188.0 590.1,188.0 597.5,188.0 604.9,188.0 612.3,188.0 619.7,188.0 627.1,188.0 634.4,186.7 641.8,186.7 649.2,186.7 656.6,188.5 664.0,188.5"/><circle cx="36.0" cy="198.0" r="3" fill="#3fb950"/><circle cx="43.4" cy="198.0" r="3" fill="#3fb950"/><circle cx="50.8" cy="198.0" r="3" fill="#3fb950"/><circle cx="58.2" cy="198.0" r="3" fill="#3fb950"/><circle cx="65.6" cy="198.0" r="3" fill="#3fb950"/><circle cx="72.9" cy="198.0" r="3" fill="#3fb950"/><circle cx="80.3" cy="198.0" r="3" fill="#3fb950"/><circle cx="87.7" cy="198.0" r="3" fill="#3fb950"/><circle cx="95.1" cy="198.0" r="3" fill="#3fb950"/><circle cx="102.5" cy="198.0" r="3" fill="#3fb950"/><circle cx="109.9" cy="198.0" r="3" fill="#3fb950"/><circle cx="117.3" cy="198.0" r="3" fill="#3fb950"/><circle cx="124.7" cy="198.0" r="3" fill="#3fb950"/><circle cx="132.0" cy="198.0" r="3" fill="#3fb950"/><circle cx="139.4" cy="198.0" r="3" fill="#3fb950"/><circle cx="146.8" cy="198.0" r="3" fill="#3fb950"/><circle cx="154.2" cy="198.0" r="3" fill="#3fb950"/><circle cx="161.6" cy="198.0" r="3" fill="#3fb950"/><circle cx="169.0" cy="198.0" r="3" fill="#3fb950"/><circle cx="176.4" cy="198.0" r="3" fill="#3fb950"/><circle cx="183.8" cy="198.0" r="3" fill="#3fb950"/><circle cx="191.2" cy="198.0" r="3" fill="#3fb950"/><circle cx="198.5" cy="198.0" r="3" fill="#3fb950"/><circle cx="205.9" cy="198.0" r="3" fill="#3fb950"/><circle cx="213.3" cy="198.0" r="3" fill="#3fb950"/><circle cx="220.7" cy="198.0" r="3" fill="#3fb950"/><circle cx="228.1" cy="198.0" r="3" fill="#3fb950"/><circle cx="235.5" cy="198.0" r="3" fill="#3fb950"/><circle cx="242.9" cy="198.0" r="3" fill="#3fb950"/><circle cx="250.3" cy="198.0" r="3" fill="#3fb950"/><circle cx="257.6" cy="198.0" r="3" fill="#3fb950"/><circle cx="265.0" cy="198.0" r="3" fill="#3fb950"/><circle cx="272.4" cy="198.0" r="3" fill="#3fb950"/><circle cx="279.8" cy="198.0" r="3" fill="#3fb950"/><circle cx="287.2" cy="198.0" r="3" fill="#3fb950"/><circle cx="294.6" cy="198.0" r="3" fill="#3fb950"/><circle cx="302.0" cy="198.0" r="3" fill="#3fb950"/><circle cx="309.4" cy="198.0" r="3" fill="#3fb950"/><circle cx="316.8" cy="198.0" r="3" fill="#3fb950"/><circle cx="324.1" cy="198.0" r="3" fill="#3fb950"/><circle cx="331.5" cy="198.0" r="3" fill="#3fb950"/><circle cx="338.9" cy="198.0" r="3" fill="#3fb950"/><circle cx="346.3" cy="198.0" r="3" fill="#3fb950"/><circle cx="353.7" cy="189.8" r="3" fill="#3fb950"/><circle cx="361.1" cy="189.8" r="3" fill="#3fb950"/><circle cx="368.5" cy="189.8" r="3" fill="#3fb950"/><circle cx="375.9" cy="189.8" r="3" fill="#3fb950"/><circle cx="383.2" cy="189.8" r="3" fill="#3fb950"/><circle cx="390.6" cy="189.8" r="3" fill="#3fb950"/><circle cx="398.0" cy="189.8" r="3" fill="#3fb950"/><circle cx="405.4" cy="191.4" r="3" fill="#3fb950"/><circle cx="412.8" cy="191.4" r="3" fill="#3fb950"/><circle cx="420.2" cy="188.5" r="3" fill="#3fb950"/><circle cx="427.6" cy="188.5" r="3" fill="#3fb950"/><circle cx="435.0" cy="188.5" r="3" fill="#3fb950"/><circle cx="442.4" cy="188.5" r="3" fill="#3fb950"/><circle cx="449.7" cy="188.5" r="3" fill="#3fb950"/><circle cx="457.1" cy="188.2" r="3" fill="#3fb950"/><circle cx="464.5" cy="188.2" r="3" fill="#3fb950"/><circle cx="471.9" cy="188.2" r="3" fill="#3fb950"/><circle cx="479.3" cy="188.0" r="3" fill="#3fb950"/><circle cx="486.7" cy="188.0" r="3" fill="#3fb950"/><circle cx="494.1" cy="188.0" r="3" fill="#3fb950"/><circle cx="501.5" cy="188.0" r="3" fill="#3fb950"/><circle cx="508.8" cy="188.0" r="3" fill="#3fb950"/><circle cx="516.2" cy="188.0" r="3" fill="#3fb950"/><circle cx="523.6" cy="188.0" r="3" fill="#3fb950"/><circle cx="531.0" cy="188.0" r="3" fill="#3fb950"/><circle cx="538.4" cy="188.0" r="3" fill="#3fb950"/><circle cx="545.8" cy="188.0" r="3" fill="#3fb950"/><circle cx="553.2" cy="188.0" r="3" fill="#3fb950"/><circle cx="560.6" cy="188.0" r="3" fill="#3fb950"/><circle cx="568.0" cy="188.0" r="3" fill="#3fb950"/><circle cx="575.3" cy="188.0" r="3" fill="#3fb950"/><circle cx="582.7" cy="188.0" r="3" fill="#3fb950"/><circle cx="590.1" cy="188.0" r="3" fill="#3fb950"/><circle cx="597.5" cy="188.0" r="3" fill="#3fb950"/><circle cx="604.9" cy="188.0" r="3" fill="#3fb950"/><circle cx="612.3" cy="188.0" r="3" fill="#3fb950"/><circle cx="619.7" cy="188.0" r="3" fill="#3fb950"/><circle cx="627.1" cy="188.0" r="3" fill="#3fb950"/><circle cx="634.4" cy="186.7" r="3" fill="#3fb950"/><circle cx="641.8" cy="186.7" r="3" fill="#3fb950"/><circle cx="649.2" cy="186.7" r="3" fill="#3fb950"/><circle cx="656.6" cy="188.5" r="3" fill="#3fb950"/><circle cx="664.0" cy="188.5" r="3" fill="#3fb950"/>
<polyline fill="none" stroke="#4aa3ff" stroke-width="2.5" stroke-linejoin="round" points="36.0,128.1 43.4,128.1 50.8,128.1 58.2,128.1 65.6,128.1 72.9,128.1 80.3,128.1 87.7,128.1 95.1,128.1 102.5,128.1 109.9,128.1 117.3,128.1 124.7,128.1 132.0,128.1 139.4,128.1 146.8,117.5 154.2,112.5 161.6,108.8 169.0,108.8 176.4,97.7 183.8,97.7 191.2,97.7 198.5,89.0 205.9,89.0 213.3,89.0 220.7,85.1 228.1,84.5 235.5,84.5 242.9,84.0 250.3,84.0 257.6,83.2 265.0,81.6 272.4,79.8 279.8,79.3 287.2,79.3 294.6,79.3 302.0,79.3 309.4,79.3 316.8,79.3 324.1,79.3 331.5,79.3 338.9,79.3 346.3,79.3 353.7,87.4 361.1,87.4 368.5,87.4 375.9,87.4 383.2,87.4 390.6,84.3 398.0,77.2 405.4,48.7 412.8,48.7 420.2,51.6 427.6,51.6 435.0,51.6 442.4,51.6 449.7,51.6 457.1,51.8 464.5,51.8 471.9,51.8 479.3,52.1 486.7,52.1 494.1,52.1 501.5,52.1 508.8,52.1 516.2,52.1 523.6,52.1 531.0,52.1 538.4,52.1 545.8,52.1 553.2,52.1 560.6,52.1 568.0,52.1 575.3,52.1 582.7,52.1 590.1,52.1 597.5,52.1 604.9,52.1 612.3,52.1 619.7,52.1 627.1,52.1 634.4,53.4 641.8,53.4 649.2,53.4 656.6,36.0 664.0,36.0"/><circle cx="36.0" cy="128.1" r="3" fill="#4aa3ff"/><circle cx="43.4" cy="128.1" r="3" fill="#4aa3ff"/><circle cx="50.8" cy="128.1" r="3" fill="#4aa3ff"/><circle cx="58.2" cy="128.1" r="3" fill="#4aa3ff"/><circle cx="65.6" cy="128.1" r="3" fill="#4aa3ff"/><circle cx="72.9" cy="128.1" r="3" fill="#4aa3ff"/><circle cx="80.3" cy="128.1" r="3" fill="#4aa3ff"/><circle cx="87.7" cy="128.1" r="3" fill="#4aa3ff"/><circle cx="95.1" cy="128.1" r="3" fill="#4aa3ff"/><circle cx="102.5" cy="128.1" r="3" fill="#4aa3ff"/><circle cx="109.9" cy="128.1" r="3" fill="#4aa3ff"/><circle cx="117.3" cy="128.1" r="3" fill="#4aa3ff"/><circle cx="124.7" cy="128.1" r="3" fill="#4aa3ff"/><circle cx="132.0" cy="128.1" r="3" fill="#4aa3ff"/><circle cx="139.4" cy="128.1" r="3" fill="#4aa3ff"/><circle cx="146.8" cy="117.5" r="3" fill="#4aa3ff"/><circle cx="154.2" cy="112.5" r="3" fill="#4aa3ff"/><circle cx="161.6" cy="108.8" r="3" fill="#4aa3ff"/><circle cx="169.0" cy="108.8" r="3" fill="#4aa3ff"/><circle cx="176.4" cy="97.7" r="3" fill="#4aa3ff"/><circle cx="183.8" cy="97.7" r="3" fill="#4aa3ff"/><circle cx="191.2" cy="97.7" r="3" fill="#4aa3ff"/><circle cx="198.5" cy="89.0" r="3" fill="#4aa3ff"/><circle cx="205.9" cy="89.0" r="3" fill="#4aa3ff"/><circle cx="213.3" cy="89.0" r="3" fill="#4aa3ff"/><circle cx="220.7" cy="85.1" r="3" fill="#4aa3ff"/><circle cx="228.1" cy="84.5" r="3" fill="#4aa3ff"/><circle cx="235.5" cy="84.5" r="3" fill="#4aa3ff"/><circle cx="242.9" cy="84.0" r="3" fill="#4aa3ff"/><circle cx="250.3" cy="84.0" r="3" fill="#4aa3ff"/><circle cx="257.6" cy="83.2" r="3" fill="#4aa3ff"/><circle cx="265.0" cy="81.6" r="3" fill="#4aa3ff"/><circle cx="272.4" cy="79.8" r="3" fill="#4aa3ff"/><circle cx="279.8" cy="79.3" r="3" fill="#4aa3ff"/><circle cx="287.2" cy="79.3" r="3" fill="#4aa3ff"/><circle cx="294.6" cy="79.3" r="3" fill="#4aa3ff"/><circle cx="302.0" cy="79.3" r="3" fill="#4aa3ff"/><circle cx="309.4" cy="79.3" r="3" fill="#4aa3ff"/><circle cx="316.8" cy="79.3" r="3" fill="#4aa3ff"/><circle cx="324.1" cy="79.3" r="3" fill="#4aa3ff"/><circle cx="331.5" cy="79.3" r="3" fill="#4aa3ff"/><circle cx="338.9" cy="79.3" r="3" fill="#4aa3ff"/><circle cx="346.3" cy="79.3" r="3" fill="#4aa3ff"/><circle cx="353.7" cy="87.4" r="3" fill="#4aa3ff"/><circle cx="361.1" cy="87.4" r="3" fill="#4aa3ff"/><circle cx="368.5" cy="87.4" r="3" fill="#4aa3ff"/><circle cx="375.9" cy="87.4" r="3" fill="#4aa3ff"/><circle cx="383.2" cy="87.4" r="3" fill="#4aa3ff"/><circle cx="390.6" cy="84.3" r="3" fill="#4aa3ff"/><circle cx="398.0" cy="77.2" r="3" fill="#4aa3ff"/><circle cx="405.4" cy="48.7" r="3" fill="#4aa3ff"/><circle cx="412.8" cy="48.7" r="3" fill="#4aa3ff"/><circle cx="420.2" cy="51.6" r="3" fill="#4aa3ff"/><circle cx="427.6" cy="51.6" r="3" fill="#4aa3ff"/><circle cx="435.0" cy="51.6" r="3" fill="#4aa3ff"/><circle cx="442.4" cy="51.6" r="3" fill="#4aa3ff"/><circle cx="449.7" cy="51.6" r="3" fill="#4aa3ff"/><circle cx="457.1" cy="51.8" r="3" fill="#4aa3ff"/><circle cx="464.5" cy="51.8" r="3" fill="#4aa3ff"/><circle cx="471.9" cy="51.8" r="3" fill="#4aa3ff"/><circle cx="479.3" cy="52.1" r="3" fill="#4aa3ff"/><circle cx="486.7" cy="52.1" r="3" fill="#4aa3ff"/><circle cx="494.1" cy="52.1" r="3" fill="#4aa3ff"/><circle cx="501.5" cy="52.1" r="3" fill="#4aa3ff"/><circle cx="508.8" cy="52.1" r="3" fill="#4aa3ff"/><circle cx="516.2" cy="52.1" r="3" fill="#4aa3ff"/><circle cx="523.6" cy="52.1" r="3" fill="#4aa3ff"/><circle cx="531.0" cy="52.1" r="3" fill="#4aa3ff"/><circle cx="538.4" cy="52.1" r="3" fill="#4aa3ff"/><circle cx="545.8" cy="52.1" r="3" fill="#4aa3ff"/><circle cx="553.2" cy="52.1" r="3" fill="#4aa3ff"/><circle cx="560.6" cy="52.1" r="3" fill="#4aa3ff"/><circle cx="568.0" cy="52.1" r="3" fill="#4aa3ff"/><circle cx="575.3" cy="52.1" r="3" fill="#4aa3ff"/><circle cx="582.7" cy="52.1" r="3" fill="#4aa3ff"/><circle cx="590.1" cy="52.1" r="3" fill="#4aa3ff"/><circle cx="597.5" cy="52.1" r="3" fill="#4aa3ff"/><circle cx="604.9" cy="52.1" r="3" fill="#4aa3ff"/><circle cx="612.3" cy="52.1" r="3" fill="#4aa3ff"/><circle cx="619.7" cy="52.1" r="3" fill="#4aa3ff"/><circle cx="627.1" cy="52.1" r="3" fill="#4aa3ff"/><circle cx="634.4" cy="53.4" r="3" fill="#4aa3ff"/><circle cx="641.8" cy="53.4" r="3" fill="#4aa3ff"/><circle cx="649.2" cy="53.4" r="3" fill="#4aa3ff"/><circle cx="656.6" cy="36.0" r="3" fill="#4aa3ff"/><circle cx="664.0" cy="36.0" r="3" fill="#4aa3ff"/>
<text x="36" y="225" fill="#6b7280" font-size="11">2026-06-26</text>
<text x="664" y="225" fill="#6b7280" font-size="11" text-anchor="end">2026-07-05</text>
<text x="36" y="212" font-family="system-ui,sans-serif" font-size="11">
<tspan fill="#4aa3ff">&#9679; open FPs</tspan>  <tspan fill="#3fb950">&#9679; closed (Anthropic acting)</tspan>  <tspan fill="#8a5a5a">&#9679; harness withdrawn</tspan></text>
<text x="664" y="22" text-anchor="end" font-family="system-ui,sans-serif" font-size="12">
<tspan fill="#4aa3ff">open 614</tspan>  <tspan fill="#3fb950">closed 36</tspan>  <tspan fill="#8a5a5a">harness 150</tspan></text>
</svg>