<svg xmlns="http://www.w3.org/2000/svg" width="700" height="234" viewBox="0 0 700 234" role="img">
<rect width="700" height="234" rx="12" fill="#16181d"/>
<text x="36" y="22" fill="#e8eaed" font-family="system-ui,sans-serif" font-size="14" font-weight="700">Is Anthropic acting? cyber/aup false positives over time</text>
<line x1="36" y1="198.0" x2="664" y2="198.0" stroke="#2a2e37" stroke-width="1"/><text x="30" y="202.0" fill="#6b7280" font-size="11" text-anchor="end">0</text><line x1="36" y1="117.0" x2="664" y2="117.0" stroke="#2a2e37" stroke-width="1"/><text x="30" y="121.0" fill="#6b7280" font-size="11" text-anchor="end">400</text><line x1="36" y1="36.0" x2="664" y2="36.0" stroke="#2a2e37" stroke-width="1"/><text x="30" y="40.0" fill="#6b7280" font-size="11" text-anchor="end">800</text>

<polyline fill="none" stroke="#8a5a5a" stroke-width="2.5" stroke-linejoin="round" points="36.0,145.1 38.8,145.1 41.6,145.1 44.4,145.1 47.2,145.1 50.0,145.1 52.7,145.1 55.5,145.1 58.3,145.1 61.1,145.1 63.9,145.1 66.7,145.1 69.5,145.1 72.3,145.1 75.1,145.1 77.9,145.1 80.7,145.1 83.4,145.1 86.2,145.1 89.0,145.1 91.8,145.1 94.6,145.1 97.4,145.1 100.2,145.1 103.0,145.1 105.8,145.1 108.6,145.1 111.4,145.1 114.2,145.1 116.9,145.1 119.7,145.1 122.5,145.1 125.3,145.1 128.1,145.1 130.9,145.1 133.7,145.1 136.5,145.1 139.3,145.1 142.1,145.1 144.9,145.1 147.6,145.1 150.4,145.1 153.2,145.1 156.0,145.1 158.8,145.1 161.6,145.1 164.4,145.1 167.2,145.1 170.0,145.1 172.8,145.1 175.6,155.7 178.3,155.7 181.1,155.7 183.9,155.7 186.7,155.7 189.5,155.7 192.3,155.7 195.1,155.7 197.9,155.7 200.7,155.7 203.5,155.7 206.3,155.7 209.0,155.7 211.8,155.7 214.6,155.7 217.4,155.7 220.2,155.7 223.0,155.7 225.8,155.7 228.6,155.7 231.4,155.7 234.2,155.7 237.0,155.7 239.8,155.7 242.5,155.7 245.3,155.7 248.1,155.7 250.9,155.7 253.7,155.7 256.5,155.7 259.3,155.7 262.1,155.7 264.9,155.7 267.7,155.7 270.5,167.6 273.2,167.6 276.0,170.3 278.8,170.3 281.6,170.5 284.4,170.7 287.2,170.7 290.0,170.9 292.8,172.7 295.6,180.6 298.4,181.8 301.2,189.1 303.9,190.5 306.7,195.2 309.5,198.0 312.3,198.0 315.1,198.0 317.9,198.0 320.7,198.0 323.5,198.0 326.3,198.0 329.1,198.0 331.9,198.0 334.6,198.0 337.4,198.0 340.2,198.0 343.0,198.0 345.8,198.0 348.6,198.0 351.4,198.0 354.2,198.0 357.0,198.0 359.8,198.0 362.6,198.0 365.4,198.0 368.1,198.0 370.9,198.0 373.7,198.0 376.5,198.0 379.3,198.0 382.1,198.0 384.9,198.0 387.7,198.0 390.5,198.0 393.3,198.0 396.1,198.0 398.8,198.0 401.6,198.0 404.4,198.0 407.2,198.0 410.0,198.0 412.8,198.0 415.6,198.0 418.4,198.0 421.2,198.0 424.0,198.0 426.8,198.0 429.5,198.0 432.3,198.0 435.1,198.0 437.9,198.0 440.7,198.0 443.5,198.0 446.3,198.0 449.1,198.0 451.9,198.0 454.7,198.0 457.5,198.0 460.2,198.0 463.0,198.0 465.8,198.0 468.6,198.0 471.4,198.0 474.2,198.0 477.0,198.0 479.8,198.0 482.6,198.0 485.4,198.0 488.2,198.0 491.0,198.0 493.7,198.0 496.5,198.0 499.3,198.0 502.1,198.0 504.9,198.0 507.7,198.0 510.5,198.0 513.3,198.0 516.1,198.0 518.9,198.0 521.7,198.0 524.4,198.0 527.2,198.0 530.0,198.0 532.8,198.0 535.6,198.0 538.4,198.0 541.2,198.0 544.0,198.0 546.8,198.0 549.6,198.0 552.4,198.0 555.1,198.0 557.9,198.0 560.7,198.0 563.5,198.0 566.3,198.0 569.1,198.0 571.9,198.0 574.7,198.0 577.5,198.0 580.3,198.0 583.1,198.0 585.8,198.0 588.6,198.0 591.4,198.0 594.2,198.0 597.0,198.0 599.8,198.0 602.6,198.0 605.4,198.0 608.2,198.0 611.0,198.0 613.8,198.0 616.6,198.0 619.3,198.0 622.1,198.0 624.9,198.0 627.7,198.0 630.5,198.0 633.3,198.0 636.1,198.0 638.9,198.0 641.7,198.0 644.5,198.0 647.3,198.0 650.0,198.0 652.8,198.0 655.6,198.0 658.4,198.0 661.2,198.0 664.0,198.0"/><circle cx="36.0" cy="145.1" r="3" fill="#8a5a5a"/><circle cx="38.8" cy="145.1" r="3" fill="#8a5a5a"/><circle cx="41.6" cy="145.1" r="3" fill="#8a5a5a"/><circle cx="44.4" cy="145.1" r="3" fill="#8a5a5a"/><circle cx="47.2" cy="145.1" r="3" fill="#8a5a5a"/><circle cx="50.0" cy="145.1" r="3" fill="#8a5a5a"/><circle cx="52.7" cy="145.1" r="3" fill="#8a5a5a"/><circle cx="55.5" cy="145.1" r="3" fill="#8a5a5a"/><circle cx="58.3" cy="145.1" r="3" fill="#8a5a5a"/><circle cx="61.1" cy="145.1" r="3" fill="#8a5a5a"/><circle cx="63.9" cy="145.1" r="3" fill="#8a5a5a"/><circle cx="66.7" cy="145.1" r="3" fill="#8a5a5a"/><circle cx="69.5" cy="145.1" r="3" fill="#8a5a5a"/><circle cx="72.3" cy="145.1" r="3" fill="#8a5a5a"/><circle cx="75.1" cy="145.1" r="3" fill="#8a5a5a"/><circle cx="77.9" cy="145.1" r="3" fill="#8a5a5a"/><circle cx="80.7" cy="145.1" r="3" fill="#8a5a5a"/><circle cx="83.4" cy="145.1" r="3" fill="#8a5a5a"/><circle cx="86.2" cy="145.1" r="3" fill="#8a5a5a"/><circle cx="89.0" cy="145.1" r="3" fill="#8a5a5a"/><circle cx="91.8" cy="145.1" r="3" fill="#8a5a5a"/><circle cx="94.6" cy="145.1" r="3" fill="#8a5a5a"/><circle cx="97.4" cy="145.1" r="3" fill="#8a5a5a"/><circle cx="100.2" cy="145.1" r="3" fill="#8a5a5a"/><circle cx="103.0" cy="145.1" r="3" fill="#8a5a5a"/><circle cx="105.8" cy="145.1" r="3" fill="#8a5a5a"/><circle cx="108.6" cy="145.1" r="3" fill="#8a5a5a"/><circle cx="111.4" cy="145.1" r="3" fill="#8a5a5a"/><circle cx="114.2" cy="145.1" r="3" fill="#8a5a5a"/><circle cx="116.9" cy="145.1" r="3" fill="#8a5a5a"/><circle cx="119.7" cy="145.1" r="3" fill="#8a5a5a"/><circle cx="122.5" cy="145.1" r="3" fill="#8a5a5a"/><circle cx="125.3" cy="145.1" r="3" fill="#8a5a5a"/><circle cx="128.1" cy="145.1" r="3" fill="#8a5a5a"/><circle cx="130.9" cy="145.1" r="3" fill="#8a5a5a"/><circle cx="133.7" cy="145.1" r="3" fill="#8a5a5a"/><circle cx="136.5" cy="145.1" r="3" fill="#8a5a5a"/><circle cx="139.3" cy="145.1" r="3" fill="#8a5a5a"/><circle cx="142.1" cy="145.1" r="3" fill="#8a5a5a"/><circle cx="144.9" cy="145.1" r="3" fill="#8a5a5a"/><circle cx="147.6" cy="145.1" r="3" fill="#8a5a5a"/><circle cx="150.4" cy="145.1" r="3" fill="#8a5a5a"/><circle cx="153.2" cy="145.1" r="3" fill="#8a5a5a"/><circle cx="156.0" cy="145.1" r="3" fill="#8a5a5a"/><circle cx="158.8" cy="145.1" r="3" fill="#8a5a5a"/><circle cx="161.6" cy="145.1" r="3" fill="#8a5a5a"/><circle cx="164.4" cy="145.1" r="3" fill="#8a5a5a"/><circle cx="167.2" cy="145.1" r="3" fill="#8a5a5a"/><circle cx="170.0" cy="145.1" r="3" fill="#8a5a5a"/><circle cx="172.8" cy="145.1" r="3" fill="#8a5a5a"/><circle cx="175.6" cy="155.7" r="3" fill="#8a5a5a"/><circle cx="178.3" cy="155.7" r="3" fill="#8a5a5a"/><circle cx="181.1" cy="155.7" r="3" fill="#8a5a5a"/><circle cx="183.9" cy="155.7" r="3" fill="#8a5a5a"/><circle cx="186.7" cy="155.7" r="3" fill="#8a5a5a"/><circle cx="189.5" cy="155.7" r="3" fill="#8a5a5a"/><circle cx="192.3" cy="155.7" r="3" fill="#8a5a5a"/><circle cx="195.1" cy="155.7" r="3" fill="#8a5a5a"/><circle cx="197.9" cy="155.7" r="3" fill="#8a5a5a"/><circle cx="200.7" cy="155.7" r="3" fill="#8a5a5a"/><circle cx="203.5" cy="155.7" r="3" fill="#8a5a5a"/><circle cx="206.3" cy="155.7" r="3" fill="#8a5a5a"/><circle cx="209.0" cy="155.7" r="3" fill="#8a5a5a"/><circle cx="211.8" cy="155.7" r="3" fill="#8a5a5a"/><circle cx="214.6" cy="155.7" r="3" fill="#8a5a5a"/><circle cx="217.4" cy="155.7" r="3" fill="#8a5a5a"/><circle cx="220.2" cy="155.7" r="3" fill="#8a5a5a"/><circle cx="223.0" cy="155.7" r="3" fill="#8a5a5a"/><circle cx="225.8" cy="155.7" r="3" fill="#8a5a5a"/><circle cx="228.6" cy="155.7" r="3" fill="#8a5a5a"/><circle cx="231.4" cy="155.7" r="3" fill="#8a5a5a"/><circle cx="234.2" cy="155.7" r="3" fill="#8a5a5a"/><circle cx="237.0" cy="155.7" r="3" fill="#8a5a5a"/><circle cx="239.8" cy="155.7" r="3" fill="#8a5a5a"/><circle cx="242.5" cy="155.7" r="3" fill="#8a5a5a"/><circle cx="245.3" cy="155.7" r="3" fill="#8a5a5a"/><circle cx="248.1" cy="155.7" r="3" fill="#8a5a5a"/><circle cx="250.9" cy="155.7" r="3" fill="#8a5a5a"/><circle cx="253.7" cy="155.7" r="3" fill="#8a5a5a"/><circle cx="256.5" cy="155.7" r="3" fill="#8a5a5a"/><circle cx="259.3" cy="155.7" r="3" fill="#8a5a5a"/><circle cx="262.1" cy="155.7" r="3" fill="#8a5a5a"/><circle cx="264.9" cy="155.7" r="3" fill="#8a5a5a"/><circle cx="267.7" cy="155.7" r="3" fill="#8a5a5a"/><circle cx="270.5" cy="167.6" r="3" fill="#8a5a5a"/><circle cx="273.2" cy="167.6" r="3" fill="#8a5a5a"/><circle cx="276.0" cy="170.3" r="3" fill="#8a5a5a"/><circle cx="278.8" cy="170.3" r="3" fill="#8a5a5a"/><circle cx="281.6" cy="170.5" r="3" fill="#8a5a5a"/><circle cx="284.4" cy="170.7" r="3" fill="#8a5a5a"/><circle cx="287.2" cy="170.7" r="3" fill="#8a5a5a"/><circle cx="290.0" cy="170.9" r="3" fill="#8a5a5a"/><circle cx="292.8" cy="172.7" r="3" fill="#8a5a5a"/><circle cx="295.6" cy="180.6" r="3" fill="#8a5a5a"/><circle cx="298.4" cy="181.8" r="3" fill="#8a5a5a"/><circle cx="301.2" cy="189.1" r="3" fill="#8a5a5a"/><circle cx="303.9" cy="190.5" r="3" fill="#8a5a5a"/><circle cx="306.7" cy="195.2" r="3" fill="#8a5a5a"/><circle cx="309.5" cy="198.0" r="3" fill="#8a5a5a"/><circle cx="312.3" cy="198.0" r="3" fill="#8a5a5a"/><circle cx="315.1" cy="198.0" r="3" fill="#8a5a5a"/><circle cx="317.9" cy="198.0" r="3" fill="#8a5a5a"/><circle cx="320.7" cy="198.0" r="3" fill="#8a5a5a"/><circle cx="323.5" cy="198.0" r="3" fill="#8a5a5a"/><circle cx="326.3" cy="198.0" r="3" fill="#8a5a5a"/><circle cx="329.1" cy="198.0" r="3" fill="#8a5a5a"/><circle cx="331.9" cy="198.0" r="3" fill="#8a5a5a"/><circle cx="334.6" cy="198.0" r="3" fill="#8a5a5a"/><circle cx="337.4" cy="198.0" r="3" fill="#8a5a5a"/><circle cx="340.2" cy="198.0" r="3" fill="#8a5a5a"/><circle cx="343.0" cy="198.0" r="3" fill="#8a5a5a"/><circle cx="345.8" cy="198.0" r="3" fill="#8a5a5a"/><circle cx="348.6" cy="198.0" r="3" fill="#8a5a5a"/><circle cx="351.4" cy="198.0" r="3" fill="#8a5a5a"/><circle cx="354.2" cy="198.0" r="3" fill="#8a5a5a"/><circle cx="357.0" cy="198.0" r="3" fill="#8a5a5a"/><circle cx="359.8" cy="198.0" r="3" fill="#8a5a5a"/><circle cx="362.6" cy="198.0" r="3" fill="#8a5a5a"/><circle cx="365.4" cy="198.0" r="3" fill="#8a5a5a"/><circle cx="368.1" cy="198.0" r="3" fill="#8a5a5a"/><circle cx="370.9" cy="198.0" r="3" fill="#8a5a5a"/><circle cx="373.7" cy="198.0" r="3" fill="#8a5a5a"/><circle cx="376.5" cy="198.0" r="3" fill="#8a5a5a"/><circle cx="379.3" cy="198.0" r="3" fill="#8a5a5a"/><circle cx="382.1" cy="198.0" r="3" fill="#8a5a5a"/><circle cx="384.9" cy="198.0" r="3" fill="#8a5a5a"/><circle cx="387.7" cy="198.0" r="3" fill="#8a5a5a"/><circle cx="390.5" cy="198.0" r="3" fill="#8a5a5a"/><circle cx="393.3" cy="198.0" r="3" fill="#8a5a5a"/><circle cx="396.1" cy="198.0" r="3" fill="#8a5a5a"/><circle cx="398.8" cy="198.0" r="3" fill="#8a5a5a"/><circle cx="401.6" cy="198.0" r="3" fill="#8a5a5a"/><circle cx="404.4" cy="198.0" r="3" fill="#8a5a5a"/><circle cx="407.2" cy="198.0" r="3" fill="#8a5a5a"/><circle cx="410.0" cy="198.0" r="3" fill="#8a5a5a"/><circle cx="412.8" cy="198.0" r="3" fill="#8a5a5a"/><circle cx="415.6" cy="198.0" r="3" fill="#8a5a5a"/><circle cx="418.4" cy="198.0" r="3" fill="#8a5a5a"/><circle cx="421.2" cy="198.0" r="3" fill="#8a5a5a"/><circle cx="424.0" cy="198.0" r="3" fill="#8a5a5a"/><circle cx="426.8" cy="198.0" r="3" fill="#8a5a5a"/><circle cx="429.5" cy="198.0" r="3" fill="#8a5a5a"/><circle cx="432.3" cy="198.0" r="3" fill="#8a5a5a"/><circle cx="435.1" cy="198.0" r="3" fill="#8a5a5a"/><circle cx="437.9" cy="198.0" r="3" fill="#8a5a5a"/><circle cx="440.7" cy="198.0" r="3" fill="#8a5a5a"/><circle cx="443.5" cy="198.0" r="3" fill="#8a5a5a"/><circle cx="446.3" cy="198.0" r="3" fill="#8a5a5a"/><circle cx="449.1" cy="198.0" r="3" fill="#8a5a5a"/><circle cx="451.9" cy="198.0" r="3" fill="#8a5a5a"/><circle cx="454.7" cy="198.0" r="3" fill="#8a5a5a"/><circle cx="457.5" cy="198.0" r="3" fill="#8a5a5a"/><circle cx="460.2" cy="198.0" r="3" fill="#8a5a5a"/><circle cx="463.0" cy="198.0" r="3" fill="#8a5a5a"/><circle cx="465.8" cy="198.0" r="3" fill="#8a5a5a"/><circle cx="468.6" cy="198.0" r="3" fill="#8a5a5a"/><circle cx="471.4" cy="198.0" r="3" fill="#8a5a5a"/><circle cx="474.2" cy="198.0" r="3" fill="#8a5a5a"/><circle cx="477.0" cy="198.0" r="3" fill="#8a5a5a"/><circle cx="479.8" cy="198.0" r="3" fill="#8a5a5a"/><circle cx="482.6" cy="198.0" r="3" fill="#8a5a5a"/><circle cx="485.4" cy="198.0" r="3" fill="#8a5a5a"/><circle cx="488.2" cy="198.0" r="3" fill="#8a5a5a"/><circle cx="491.0" cy="198.0" r="3" fill="#8a5a5a"/><circle cx="493.7" cy="198.0" r="3" fill="#8a5a5a"/><circle cx="496.5" cy="198.0" r="3" fill="#8a5a5a"/><circle cx="499.3" cy="198.0" r="3" fill="#8a5a5a"/><circle cx="502.1" cy="198.0" r="3" fill="#8a5a5a"/><circle cx="504.9" cy="198.0" r="3" fill="#8a5a5a"/><circle cx="507.7" cy="198.0" r="3" fill="#8a5a5a"/><circle cx="510.5" cy="198.0" r="3" fill="#8a5a5a"/><circle cx="513.3" cy="198.0" r="3" fill="#8a5a5a"/><circle cx="516.1" cy="198.0" r="3" fill="#8a5a5a"/><circle cx="518.9" cy="198.0" r="3" fill="#8a5a5a"/><circle cx="521.7" cy="198.0" r="3" fill="#8a5a5a"/><circle cx="524.4" cy="198.0" r="3" fill="#8a5a5a"/><circle cx="527.2" cy="198.0" r="3" fill="#8a5a5a"/><circle cx="530.0" cy="198.0" r="3" fill="#8a5a5a"/><circle cx="532.8" cy="198.0" r="3" fill="#8a5a5a"/><circle cx="535.6" cy="198.0" r="3" fill="#8a5a5a"/><circle cx="538.4" cy="198.0" r="3" fill="#8a5a5a"/><circle cx="541.2" cy="198.0" r="3" fill="#8a5a5a"/><circle cx="544.0" cy="198.0" r="3" fill="#8a5a5a"/><circle cx="546.8" cy="198.0" r="3" fill="#8a5a5a"/><circle cx="549.6" cy="198.0" r="3" fill="#8a5a5a"/><circle cx="552.4" cy="198.0" r="3" fill="#8a5a5a"/><circle cx="555.1" cy="198.0" r="3" fill="#8a5a5a"/><circle cx="557.9" cy="198.0" r="3" fill="#8a5a5a"/><circle cx="560.7" cy="198.0" r="3" fill="#8a5a5a"/><circle cx="563.5" cy="198.0" r="3" fill="#8a5a5a"/><circle cx="566.3" cy="198.0" r="3" fill="#8a5a5a"/><circle cx="569.1" cy="198.0" r="3" fill="#8a5a5a"/><circle cx="571.9" cy="198.0" r="3" fill="#8a5a5a"/><circle cx="574.7" cy="198.0" r="3" fill="#8a5a5a"/><circle cx="577.5" cy="198.0" r="3" fill="#8a5a5a"/><circle cx="580.3" cy="198.0" r="3" fill="#8a5a5a"/><circle cx="583.1" cy="198.0" r="3" fill="#8a5a5a"/><circle cx="585.8" cy="198.0" r="3" fill="#8a5a5a"/><circle cx="588.6" cy="198.0" r="3" fill="#8a5a5a"/><circle cx="591.4" cy="198.0" r="3" fill="#8a5a5a"/><circle cx="594.2" cy="198.0" r="3" fill="#8a5a5a"/><circle cx="597.0" cy="198.0" r="3" fill="#8a5a5a"/><circle cx="599.8" cy="198.0" r="3" fill="#8a5a5a"/><circle cx="602.6" cy="198.0" r="3" fill="#8a5a5a"/><circle cx="605.4" cy="198.0" r="3" fill="#8a5a5a"/><circle cx="608.2" cy="198.0" r="3" fill="#8a5a5a"/><circle cx="611.0" cy="198.0" r="3" fill="#8a5a5a"/><circle cx="613.8" cy="198.0" r="3" fill="#8a5a5a"/><circle cx="616.6" cy="198.0" r="3" fill="#8a5a5a"/><circle cx="619.3" cy="198.0" r="3" fill="#8a5a5a"/><circle cx="622.1" cy="198.0" r="3" fill="#8a5a5a"/><circle cx="624.9" cy="198.0" r="3" fill="#8a5a5a"/><circle cx="627.7" cy="198.0" r="3" fill="#8a5a5a"/><circle cx="630.5" cy="198.0" r="3" fill="#8a5a5a"/><circle cx="633.3" cy="198.0" r="3" fill="#8a5a5a"/><circle cx="636.1" cy="198.0" r="3" fill="#8a5a5a"/><circle cx="638.9" cy="198.0" r="3" fill="#8a5a5a"/><circle cx="641.7" cy="198.0" r="3" fill="#8a5a5a"/><circle cx="644.5" cy="198.0" r="3" fill="#8a5a5a"/><circle cx="647.3" cy="198.0" r="3" fill="#8a5a5a"/><circle cx="650.0" cy="198.0" r="3" fill="#8a5a5a"/><circle cx="652.8" cy="198.0" r="3" fill="#8a5a5a"/><circle cx="655.6" cy="198.0" r="3" fill="#8a5a5a"/><circle cx="658.4" cy="198.0" r="3" fill="#8a5a5a"/><circle cx="661.2" cy="198.0" r="3" fill="#8a5a5a"/><circle cx="664.0" cy="198.0" r="3" fill="#8a5a5a"/>
<polyline fill="none" stroke="#3fb950" stroke-width="2.5" stroke-linejoin="round" points="36.0,198.0 38.8,198.0 41.6,198.0 44.4,198.0 47.2,198.0 50.0,198.0 52.7,198.0 55.5,198.0 58.3,198.0 61.1,198.0 63.9,198.0 66.7,198.0 69.5,198.0 72.3,198.0 75.1,198.0 77.9,198.0 80.7,198.0 83.4,198.0 86.2,198.0 89.0,198.0 91.8,198.0 94.6,198.0 97.4,198.0 100.2,198.0 103.0,198.0 105.8,198.0 108.6,198.0 111.4,198.0 114.2,198.0 116.9,198.0 119.7,198.0 122.5,198.0 125.3,198.0 128.1,198.0 130.9,198.0 133.7,198.0 136.5,198.0 139.3,198.0 142.1,198.0 144.9,198.0 147.6,198.0 150.4,198.0 153.2,198.0 156.0,191.7 158.8,191.7 161.6,191.7 164.4,191.7 167.2,191.7 170.0,191.7 172.8,191.7 175.6,192.9 178.3,192.9 181.1,190.7 183.9,190.7 186.7,190.7 189.5,190.7 192.3,190.7 195.1,190.5 197.9,190.5 200.7,190.5 203.5,190.3 206.3,190.3 209.0,190.3 211.8,190.3 214.6,190.3 217.4,190.3 220.2,190.3 223.0,190.3 225.8,190.3 228.6,190.3 231.4,190.3 234.2,190.3 237.0,190.3 239.8,190.3 242.5,190.3 245.3,190.3 248.1,190.3 250.9,190.3 253.7,190.3 256.5,190.3 259.3,190.3 262.1,189.3 264.9,189.3 267.7,189.3 270.5,190.7 273.2,190.7 276.0,190.7 278.8,190.7 281.6,190.7 284.4,190.7 287.2,190.7 290.0,190.7 292.8,190.7 295.6,190.9 298.4,190.9 301.2,190.9 303.9,194.2 306.7,196.8 309.5,198.0 312.3,198.0 315.1,198.0 317.9,198.0 320.7,198.0 323.5,198.0 326.3,198.0 329.1,198.0 331.9,198.0 334.6,198.0 337.4,198.0 340.2,198.0 343.0,198.0 345.8,198.0 348.6,198.0 351.4,198.0 354.2,198.0 357.0,198.0 359.8,198.0 362.6,198.0 365.4,198.0 368.1,198.0 370.9,198.0 373.7,198.0 376.5,198.0 379.3,198.0 382.1,198.0 384.9,198.0 387.7,198.0 390.5,198.0 393.3,198.0 396.1,198.0 398.8,198.0 401.6,198.0 404.4,198.0 407.2,198.0 410.0,198.0 412.8,198.0 415.6,198.0 418.4,198.0 421.2,198.0 424.0,198.0 426.8,198.0 429.5,198.0 432.3,198.0 435.1,198.0 437.9,198.0 440.7,198.0 443.5,198.0 446.3,198.0 449.1,198.0 451.9,198.0 454.7,198.0 457.5,198.0 460.2,198.0 463.0,198.0 465.8,198.0 468.6,198.0 471.4,198.0 474.2,198.0 477.0,198.0 479.8,198.0 482.6,198.0 485.4,198.0 488.2,198.0 491.0,198.0 493.7,198.0 496.5,198.0 499.3,198.0 502.1,198.0 504.9,198.0 507.7,198.0 510.5,198.0 513.3,198.0 516.1,198.0 518.9,198.0 521.7,198.0 524.4,198.0 527.2,198.0 530.0,198.0 532.8,198.0 535.6,198.0 538.4,198.0 541.2,198.0 544.0,198.0 546.8,198.0 549.6,198.0 552.4,198.0 555.1,198.0 557.9,198.0 560.7,198.0 563.5,198.0 566.3,198.0 569.1,198.0 571.9,198.0 574.7,198.0 577.5,198.0 580.3,198.0 583.1,198.0 585.8,198.0 588.6,198.0 591.4,198.0 594.2,198.0 597.0,198.0 599.8,198.0 602.6,198.0 605.4,198.0 608.2,198.0 611.0,198.0 613.8,198.0 616.6,198.0 619.3,198.0 622.1,198.0 624.9,198.0 627.7,198.0 630.5,198.0 633.3,198.0 636.1,198.0 638.9,198.0 641.7,198.0 644.5,198.0 647.3,198.0 650.0,198.0 652.8,198.0 655.6,198.0 658.4,198.0 661.2,198.0 664.0,198.0"/><circle cx="36.0" cy="198.0" r="3" fill="#3fb950"/><circle cx="38.8" cy="198.0" r="3" fill="#3fb950"/><circle cx="41.6" cy="198.0" r="3" fill="#3fb950"/><circle cx="44.4" cy="198.0" r="3" fill="#3fb950"/><circle cx="47.2" cy="198.0" r="3" fill="#3fb950"/><circle cx="50.0" cy="198.0" r="3" fill="#3fb950"/><circle cx="52.7" cy="198.0" r="3" fill="#3fb950"/><circle cx="55.5" cy="198.0" r="3" fill="#3fb950"/><circle cx="58.3" cy="198.0" r="3" fill="#3fb950"/><circle cx="61.1" cy="198.0" r="3" fill="#3fb950"/><circle cx="63.9" cy="198.0" r="3" fill="#3fb950"/><circle cx="66.7" cy="198.0" r="3" fill="#3fb950"/><circle cx="69.5" cy="198.0" r="3" fill="#3fb950"/><circle cx="72.3" cy="198.0" r="3" fill="#3fb950"/><circle cx="75.1" cy="198.0" r="3" fill="#3fb950"/><circle cx="77.9" cy="198.0" r="3" fill="#3fb950"/><circle cx="80.7" cy="198.0" r="3" fill="#3fb950"/><circle cx="83.4" cy="198.0" r="3" fill="#3fb950"/><circle cx="86.2" cy="198.0" r="3" fill="#3fb950"/><circle cx="89.0" cy="198.0" r="3" fill="#3fb950"/><circle cx="91.8" cy="198.0" r="3" fill="#3fb950"/><circle cx="94.6" cy="198.0" r="3" fill="#3fb950"/><circle cx="97.4" cy="198.0" r="3" fill="#3fb950"/><circle cx="100.2" cy="198.0" r="3" fill="#3fb950"/><circle cx="103.0" cy="198.0" r="3" fill="#3fb950"/><circle cx="105.8" cy="198.0" r="3" fill="#3fb950"/><circle cx="108.6" cy="198.0" r="3" fill="#3fb950"/><circle cx="111.4" cy="198.0" r="3" fill="#3fb950"/><circle cx="114.2" cy="198.0" r="3" fill="#3fb950"/><circle cx="116.9" cy="198.0" r="3" fill="#3fb950"/><circle cx="119.7" cy="198.0" r="3" fill="#3fb950"/><circle cx="122.5" cy="198.0" r="3" fill="#3fb950"/><circle cx="125.3" cy="198.0" r="3" fill="#3fb950"/><circle cx="128.1" cy="198.0" r="3" fill="#3fb950"/><circle cx="130.9" cy="198.0" r="3" fill="#3fb950"/><circle cx="133.7" cy="198.0" r="3" fill="#3fb950"/><circle cx="136.5" cy="198.0" r="3" fill="#3fb950"/><circle cx="139.3" cy="198.0" r="3" fill="#3fb950"/><circle cx="142.1" cy="198.0" r="3" fill="#3fb950"/><circle cx="144.9" cy="198.0" r="3" fill="#3fb950"/><circle cx="147.6" cy="198.0" r="3" fill="#3fb950"/><circle cx="150.4" cy="198.0" r="3" fill="#3fb950"/><circle cx="153.2" cy="198.0" r="3" fill="#3fb950"/><circle cx="156.0" cy="191.7" r="3" fill="#3fb950"/><circle cx="158.8" cy="191.7" r="3" fill="#3fb950"/><circle cx="161.6" cy="191.7" r="3" fill="#3fb950"/><circle cx="164.4" cy="191.7" r="3" fill="#3fb950"/><circle cx="167.2" cy="191.7" r="3" fill="#3fb950"/><circle cx="170.0" cy="191.7" r="3" fill="#3fb950"/><circle cx="172.8" cy="191.7" r="3" fill="#3fb950"/><circle cx="175.6" cy="192.9" r="3" fill="#3fb950"/><circle cx="178.3" cy="192.9" r="3" fill="#3fb950"/><circle cx="181.1" cy="190.7" r="3" fill="#3fb950"/><circle cx="183.9" cy="190.7" r="3" fill="#3fb950"/><circle cx="186.7" cy="190.7" r="3" fill="#3fb950"/><circle cx="189.5" cy="190.7" r="3" fill="#3fb950"/><circle cx="192.3" cy="190.7" r="3" fill="#3fb950"/><circle cx="195.1" cy="190.5" r="3" fill="#3fb950"/><circle cx="197.9" cy="190.5" r="3" fill="#3fb950"/><circle cx="200.7" cy="190.5" r="3" fill="#3fb950"/><circle cx="203.5" cy="190.3" r="3" fill="#3fb950"/><circle cx="206.3" cy="190.3" r="3" fill="#3fb950"/><circle cx="209.0" cy="190.3" r="3" fill="#3fb950"/><circle cx="211.8" cy="190.3" r="3" fill="#3fb950"/><circle cx="214.6" cy="190.3" r="3" fill="#3fb950"/><circle cx="217.4" cy="190.3" r="3" fill="#3fb950"/><circle cx="220.2" cy="190.3" r="3" fill="#3fb950"/><circle cx="223.0" cy="190.3" r="3" fill="#3fb950"/><circle cx="225.8" cy="190.3" r="3" fill="#3fb950"/><circle cx="228.6" cy="190.3" r="3" fill="#3fb950"/><circle cx="231.4" cy="190.3" r="3" fill="#3fb950"/><circle cx="234.2" cy="190.3" r="3" fill="#3fb950"/><circle cx="237.0" cy="190.3" r="3" fill="#3fb950"/><circle cx="239.8" cy="190.3" r="3" fill="#3fb950"/><circle cx="242.5" cy="190.3" r="3" fill="#3fb950"/><circle cx="245.3" cy="190.3" r="3" fill="#3fb950"/><circle cx="248.1" cy="190.3" r="3" fill="#3fb950"/><circle cx="250.9" cy="190.3" r="3" fill="#3fb950"/><circle cx="253.7" cy="190.3" r="3" fill="#3fb950"/><circle cx="256.5" cy="190.3" r="3" fill="#3fb950"/><circle cx="259.3" cy="190.3" r="3" fill="#3fb950"/><circle cx="262.1" cy="189.3" r="3" fill="#3fb950"/><circle cx="264.9" cy="189.3" r="3" fill="#3fb950"/><circle cx="267.7" cy="189.3" r="3" fill="#3fb950"/><circle cx="270.5" cy="190.7" r="3" fill="#3fb950"/><circle cx="273.2" cy="190.7" r="3" fill="#3fb950"/><circle cx="276.0" cy="190.7" r="3" fill="#3fb950"/><circle cx="278.8" cy="190.7" r="3" fill="#3fb950"/><circle cx="281.6" cy="190.7" r="3" fill="#3fb950"/><circle cx="284.4" cy="190.7" r="3" fill="#3fb950"/><circle cx="287.2" cy="190.7" r="3" fill="#3fb950"/><circle cx="290.0" cy="190.7" r="3" fill="#3fb950"/><circle cx="292.8" cy="190.7" r="3" fill="#3fb950"/><circle cx="295.6" cy="190.9" r="3" fill="#3fb950"/><circle cx="298.4" cy="190.9" r="3" fill="#3fb950"/><circle cx="301.2" cy="190.9" r="3" fill="#3fb950"/><circle cx="303.9" cy="194.2" r="3" fill="#3fb950"/><circle cx="306.7" cy="196.8" r="3" fill="#3fb950"/><circle cx="309.5" cy="198.0" r="3" fill="#3fb950"/><circle cx="312.3" cy="198.0" r="3" fill="#3fb950"/><circle cx="315.1" cy="198.0" r="3" fill="#3fb950"/><circle cx="317.9" cy="198.0" r="3" fill="#3fb950"/><circle cx="320.7" cy="198.0" r="3" fill="#3fb950"/><circle cx="323.5" cy="198.0" r="3" fill="#3fb950"/><circle cx="326.3" cy="198.0" r="3" fill="#3fb950"/><circle cx="329.1" cy="198.0" r="3" fill="#3fb950"/><circle cx="331.9" cy="198.0" r="3" fill="#3fb950"/><circle cx="334.6" cy="198.0" r="3" fill="#3fb950"/><circle cx="337.4" cy="198.0" r="3" fill="#3fb950"/><circle cx="340.2" cy="198.0" r="3" fill="#3fb950"/><circle cx="343.0" cy="198.0" r="3" fill="#3fb950"/><circle cx="345.8" cy="198.0" r="3" fill="#3fb950"/><circle cx="348.6" cy="198.0" r="3" fill="#3fb950"/><circle cx="351.4" cy="198.0" r="3" fill="#3fb950"/><circle cx="354.2" cy="198.0" r="3" fill="#3fb950"/><circle cx="357.0" cy="198.0" r="3" fill="#3fb950"/><circle cx="359.8" cy="198.0" r="3" fill="#3fb950"/><circle cx="362.6" cy="198.0" r="3" fill="#3fb950"/><circle cx="365.4" cy="198.0" r="3" fill="#3fb950"/><circle cx="368.1" cy="198.0" r="3" fill="#3fb950"/><circle cx="370.9" cy="198.0" r="3" fill="#3fb950"/><circle cx="373.7" cy="198.0" r="3" fill="#3fb950"/><circle cx="376.5" cy="198.0" r="3" fill="#3fb950"/><circle cx="379.3" cy="198.0" r="3" fill="#3fb950"/><circle cx="382.1" cy="198.0" r="3" fill="#3fb950"/><circle cx="384.9" cy="198.0" r="3" fill="#3fb950"/><circle cx="387.7" cy="198.0" r="3" fill="#3fb950"/><circle cx="390.5" cy="198.0" r="3" fill="#3fb950"/><circle cx="393.3" cy="198.0" r="3" fill="#3fb950"/><circle cx="396.1" cy="198.0" r="3" fill="#3fb950"/><circle cx="398.8" cy="198.0" r="3" fill="#3fb950"/><circle cx="401.6" cy="198.0" r="3" fill="#3fb950"/><circle cx="404.4" cy="198.0" r="3" fill="#3fb950"/><circle cx="407.2" cy="198.0" r="3" fill="#3fb950"/><circle cx="410.0" cy="198.0" r="3" fill="#3fb950"/><circle cx="412.8" cy="198.0" r="3" fill="#3fb950"/><circle cx="415.6" cy="198.0" r="3" fill="#3fb950"/><circle cx="418.4" cy="198.0" r="3" fill="#3fb950"/><circle cx="421.2" cy="198.0" r="3" fill="#3fb950"/><circle cx="424.0" cy="198.0" r="3" fill="#3fb950"/><circle cx="426.8" cy="198.0" r="3" fill="#3fb950"/><circle cx="429.5" cy="198.0" r="3" fill="#3fb950"/><circle cx="432.3" cy="198.0" r="3" fill="#3fb950"/><circle cx="435.1" cy="198.0" r="3" fill="#3fb950"/><circle cx="437.9" cy="198.0" r="3" fill="#3fb950"/><circle cx="440.7" cy="198.0" r="3" fill="#3fb950"/><circle cx="443.5" cy="198.0" r="3" fill="#3fb950"/><circle cx="446.3" cy="198.0" r="3" fill="#3fb950"/><circle cx="449.1" cy="198.0" r="3" fill="#3fb950"/><circle cx="451.9" cy="198.0" r="3" fill="#3fb950"/><circle cx="454.7" cy="198.0" r="3" fill="#3fb950"/><circle cx="457.5" cy="198.0" r="3" fill="#3fb950"/><circle cx="460.2" cy="198.0" r="3" fill="#3fb950"/><circle cx="463.0" cy="198.0" r="3" fill="#3fb950"/><circle cx="465.8" cy="198.0" r="3" fill="#3fb950"/><circle cx="468.6" cy="198.0" r="3" fill="#3fb950"/><circle cx="471.4" cy="198.0" r="3" fill="#3fb950"/><circle cx="474.2" cy="198.0" r="3" fill="#3fb950"/><circle cx="477.0" cy="198.0" r="3" fill="#3fb950"/><circle cx="479.8" cy="198.0" r="3" fill="#3fb950"/><circle cx="482.6" cy="198.0" r="3" fill="#3fb950"/><circle cx="485.4" cy="198.0" r="3" fill="#3fb950"/><circle cx="488.2" cy="198.0" r="3" fill="#3fb950"/><circle cx="491.0" cy="198.0" r="3" fill="#3fb950"/><circle cx="493.7" cy="198.0" r="3" fill="#3fb950"/><circle cx="496.5" cy="198.0" r="3" fill="#3fb950"/><circle cx="499.3" cy="198.0" r="3" fill="#3fb950"/><circle cx="502.1" cy="198.0" r="3" fill="#3fb950"/><circle cx="504.9" cy="198.0" r="3" fill="#3fb950"/><circle cx="507.7" cy="198.0" r="3" fill="#3fb950"/><circle cx="510.5" cy="198.0" r="3" fill="#3fb950"/><circle cx="513.3" cy="198.0" r="3" fill="#3fb950"/><circle cx="516.1" cy="198.0" r="3" fill="#3fb950"/><circle cx="518.9" cy="198.0" r="3" fill="#3fb950"/><circle cx="521.7" cy="198.0" r="3" fill="#3fb950"/><circle cx="524.4" cy="198.0" r="3" fill="#3fb950"/><circle cx="527.2" cy="198.0" r="3" fill="#3fb950"/><circle cx="530.0" cy="198.0" r="3" fill="#3fb950"/><circle cx="532.8" cy="198.0" r="3" fill="#3fb950"/><circle cx="535.6" cy="198.0" r="3" fill="#3fb950"/><circle cx="538.4" cy="198.0" r="3" fill="#3fb950"/><circle cx="541.2" cy="198.0" r="3" fill="#3fb950"/><circle cx="544.0" cy="198.0" r="3" fill="#3fb950"/><circle cx="546.8" cy="198.0" r="3" fill="#3fb950"/><circle cx="549.6" cy="198.0" r="3" fill="#3fb950"/><circle cx="552.4" cy="198.0" r="3" fill="#3fb950"/><circle cx="555.1" cy="198.0" r="3" fill="#3fb950"/><circle cx="557.9" cy="198.0" r="3" fill="#3fb950"/><circle cx="560.7" cy="198.0" r="3" fill="#3fb950"/><circle cx="563.5" cy="198.0" r="3" fill="#3fb950"/><circle cx="566.3" cy="198.0" r="3" fill="#3fb950"/><circle cx="569.1" cy="198.0" r="3" fill="#3fb950"/><circle cx="571.9" cy="198.0" r="3" fill="#3fb950"/><circle cx="574.7" cy="198.0" r="3" fill="#3fb950"/><circle cx="577.5" cy="198.0" r="3" fill="#3fb950"/><circle cx="580.3" cy="198.0" r="3" fill="#3fb950"/><circle cx="583.1" cy="198.0" r="3" fill="#3fb950"/><circle cx="585.8" cy="198.0" r="3" fill="#3fb950"/><circle cx="588.6" cy="198.0" r="3" fill="#3fb950"/><circle cx="591.4" cy="198.0" r="3" fill="#3fb950"/><circle cx="594.2" cy="198.0" r="3" fill="#3fb950"/><circle cx="597.0" cy="198.0" r="3" fill="#3fb950"/><circle cx="599.8" cy="198.0" r="3" fill="#3fb950"/><circle cx="602.6" cy="198.0" r="3" fill="#3fb950"/><circle cx="605.4" cy="198.0" r="3" fill="#3fb950"/><circle cx="608.2" cy="198.0" r="3" fill="#3fb950"/><circle cx="611.0" cy="198.0" r="3" fill="#3fb950"/><circle cx="613.8" cy="198.0" r="3" fill="#3fb950"/><circle cx="616.6" cy="198.0" r="3" fill="#3fb950"/><circle cx="619.3" cy="198.0" r="3" fill="#3fb950"/><circle cx="622.1" cy="198.0" r="3" fill="#3fb950"/><circle cx="624.9" cy="198.0" r="3" fill="#3fb950"/><circle cx="627.7" cy="198.0" r="3" fill="#3fb950"/><circle cx="630.5" cy="198.0" r="3" fill="#3fb950"/><circle cx="633.3" cy="198.0" r="3" fill="#3fb950"/><circle cx="636.1" cy="198.0" r="3" fill="#3fb950"/><circle cx="638.9" cy="198.0" r="3" fill="#3fb950"/><circle cx="641.7" cy="198.0" r="3" fill="#3fb950"/><circle cx="644.5" cy="198.0" r="3" fill="#3fb950"/><circle cx="647.3" cy="198.0" r="3" fill="#3fb950"/><circle cx="650.0" cy="198.0" r="3" fill="#3fb950"/><circle cx="652.8" cy="198.0" r="3" fill="#3fb950"/><circle cx="655.6" cy="198.0" r="3" fill="#3fb950"/><circle cx="658.4" cy="198.0" r="3" fill="#3fb950"/><circle cx="661.2" cy="198.0" r="3" fill="#3fb950"/><circle cx="664.0" cy="198.0" r="3" fill="#3fb950"/>
<polyline fill="none" stroke="#4aa3ff" stroke-width="2.5" stroke-linejoin="round" points="36.0,144.3 38.8,144.3 41.6,144.3 44.4,144.3 47.2,144.3 50.0,144.3 52.7,144.3 55.5,144.3 58.3,144.3 61.1,144.3 63.9,144.3 66.7,144.3 69.5,144.3 72.3,144.3 75.1,144.3 77.9,136.2 80.7,132.4 83.4,129.6 86.2,129.6 89.0,121.0 91.8,121.0 94.6,121.0 97.4,114.4 100.2,114.4 103.0,114.4 105.8,111.3 108.6,110.9 111.4,110.9 114.2,110.5 116.9,110.5 119.7,109.9 122.5,108.7 125.3,107.3 128.1,106.9 130.9,106.9 133.7,106.9 136.5,106.9 139.3,106.9 142.1,106.9 144.9,106.9 147.6,106.9 150.4,106.9 153.2,106.9 156.0,113.2 158.8,113.2 161.6,113.2 164.4,113.2 167.2,113.2 170.0,110.7 172.8,105.3 175.6,83.4 178.3,83.4 181.1,85.6 183.9,85.6 186.7,85.6 189.5,85.6 192.3,85.6 195.1,85.8 197.9,85.8 200.7,85.8 203.5,86.0 206.3,86.0 209.0,86.0 211.8,86.0 214.6,86.0 217.4,86.0 220.2,86.0 223.0,86.0 225.8,86.0 228.6,86.0 231.4,86.0 234.2,86.0 237.0,86.0 239.8,86.0 242.5,86.0 245.3,86.0 248.1,86.0 250.9,86.0 253.7,86.0 256.5,86.0 259.3,86.0 262.1,87.0 264.9,87.0 267.7,87.0 270.5,73.7 273.2,73.7 276.0,71.0 278.8,71.0 281.6,70.8 284.4,70.6 287.2,70.6 290.0,70.4 292.8,68.6 295.6,60.5 298.4,59.3 301.2,52.0 303.9,47.3 306.7,40.1 309.5,36.0 312.3,36.0 315.1,36.0 317.9,36.0 320.7,36.0 323.5,36.0 326.3,36.0 329.1,36.0 331.9,36.0 334.6,36.0 337.4,36.0 340.2,36.0 343.0,36.0 345.8,36.0 348.6,36.0 351.4,36.0 354.2,36.0 357.0,36.0 359.8,36.0 362.6,36.0 365.4,36.0 368.1,36.0 370.9,36.0 373.7,36.0 376.5,36.0 379.3,36.0 382.1,36.0 384.9,36.0 387.7,36.0 390.5,36.0 393.3,36.0 396.1,36.0 398.8,36.0 401.6,36.0 404.4,36.0 407.2,36.0 410.0,36.0 412.8,36.0 415.6,36.0 418.4,36.0 421.2,36.0 424.0,36.0 426.8,36.0 429.5,36.0 432.3,36.0 435.1,36.0 437.9,36.0 440.7,36.0 443.5,36.0 446.3,36.0 449.1,36.0 451.9,36.0 454.7,36.0 457.5,36.0 460.2,36.0 463.0,36.0 465.8,36.0 468.6,36.0 471.4,36.0 474.2,36.0 477.0,36.0 479.8,36.0 482.6,36.0 485.4,36.0 488.2,36.0 491.0,36.0 493.7,36.0 496.5,36.0 499.3,36.0 502.1,36.0 504.9,36.0 507.7,36.0 510.5,36.0 513.3,36.0 516.1,36.0 518.9,36.0 521.7,36.0 524.4,36.0 527.2,36.0 530.0,36.0 532.8,36.0 535.6,36.0 538.4,36.0 541.2,36.0 544.0,36.0 546.8,36.0 549.6,36.0 552.4,36.0 555.1,36.0 557.9,36.0 560.7,36.0 563.5,36.0 566.3,36.0 569.1,36.0 571.9,36.0 574.7,36.0 577.5,36.0 580.3,36.0 583.1,36.0 585.8,36.0 588.6,36.0 591.4,36.0 594.2,36.0 597.0,36.0 599.8,36.0 602.6,36.0 605.4,36.0 608.2,36.0 611.0,36.0 613.8,36.0 616.6,36.0 619.3,36.0 622.1,36.0 624.9,36.0 627.7,36.0 630.5,36.0 633.3,36.0 636.1,36.0 638.9,36.0 641.7,36.0 644.5,36.0 647.3,36.0 650.0,36.0 652.8,36.0 655.6,36.0 658.4,36.0 661.2,36.0 664.0,36.0"/><circle cx="36.0" cy="144.3" r="3" fill="#4aa3ff"/><circle cx="38.8" cy="144.3" r="3" fill="#4aa3ff"/><circle cx="41.6" cy="144.3" r="3" fill="#4aa3ff"/><circle cx="44.4" cy="144.3" r="3" fill="#4aa3ff"/><circle cx="47.2" cy="144.3" r="3" fill="#4aa3ff"/><circle cx="50.0" cy="144.3" r="3" fill="#4aa3ff"/><circle cx="52.7" cy="144.3" r="3" fill="#4aa3ff"/><circle cx="55.5" cy="144.3" r="3" fill="#4aa3ff"/><circle cx="58.3" cy="144.3" r="3" fill="#4aa3ff"/><circle cx="61.1" cy="144.3" r="3" fill="#4aa3ff"/><circle cx="63.9" cy="144.3" r="3" fill="#4aa3ff"/><circle cx="66.7" cy="144.3" r="3" fill="#4aa3ff"/><circle cx="69.5" cy="144.3" r="3" fill="#4aa3ff"/><circle cx="72.3" cy="144.3" r="3" fill="#4aa3ff"/><circle cx="75.1" cy="144.3" r="3" fill="#4aa3ff"/><circle cx="77.9" cy="136.2" r="3" fill="#4aa3ff"/><circle cx="80.7" cy="132.4" r="3" fill="#4aa3ff"/><circle cx="83.4" cy="129.6" r="3" fill="#4aa3ff"/><circle cx="86.2" cy="129.6" r="3" fill="#4aa3ff"/><circle cx="89.0" cy="121.0" r="3" fill="#4aa3ff"/><circle cx="91.8" cy="121.0" r="3" fill="#4aa3ff"/><circle cx="94.6" cy="121.0" r="3" fill="#4aa3ff"/><circle cx="97.4" cy="114.4" r="3" fill="#4aa3ff"/><circle cx="100.2" cy="114.4" r="3" fill="#4aa3ff"/><circle cx="103.0" cy="114.4" r="3" fill="#4aa3ff"/><circle cx="105.8" cy="111.3" r="3" fill="#4aa3ff"/><circle cx="108.6" cy="110.9" r="3" fill="#4aa3ff"/><circle cx="111.4" cy="110.9" r="3" fill="#4aa3ff"/><circle cx="114.2" cy="110.5" r="3" fill="#4aa3ff"/><circle cx="116.9" cy="110.5" r="3" fill="#4aa3ff"/><circle cx="119.7" cy="109.9" r="3" fill="#4aa3ff"/><circle cx="122.5" cy="108.7" r="3" fill="#4aa3ff"/><circle cx="125.3" cy="107.3" r="3" fill="#4aa3ff"/><circle cx="128.1" cy="106.9" r="3" fill="#4aa3ff"/><circle cx="130.9" cy="106.9" r="3" fill="#4aa3ff"/><circle cx="133.7" cy="106.9" r="3" fill="#4aa3ff"/><circle cx="136.5" cy="106.9" r="3" fill="#4aa3ff"/><circle cx="139.3" cy="106.9" r="3" fill="#4aa3ff"/><circle cx="142.1" cy="106.9" r="3" fill="#4aa3ff"/><circle cx="144.9" cy="106.9" r="3" fill="#4aa3ff"/><circle cx="147.6" cy="106.9" r="3" fill="#4aa3ff"/><circle cx="150.4" cy="106.9" r="3" fill="#4aa3ff"/><circle cx="153.2" cy="106.9" r="3" fill="#4aa3ff"/><circle cx="156.0" cy="113.2" r="3" fill="#4aa3ff"/><circle cx="158.8" cy="113.2" r="3" fill="#4aa3ff"/><circle cx="161.6" cy="113.2" r="3" fill="#4aa3ff"/><circle cx="164.4" cy="113.2" r="3" fill="#4aa3ff"/><circle cx="167.2" cy="113.2" r="3" fill="#4aa3ff"/><circle cx="170.0" cy="110.7" r="3" fill="#4aa3ff"/><circle cx="172.8" cy="105.3" r="3" fill="#4aa3ff"/><circle cx="175.6" cy="83.4" r="3" fill="#4aa3ff"/><circle cx="178.3" cy="83.4" r="3" fill="#4aa3ff"/><circle cx="181.1" cy="85.6" r="3" fill="#4aa3ff"/><circle cx="183.9" cy="85.6" r="3" fill="#4aa3ff"/><circle cx="186.7" cy="85.6" r="3" fill="#4aa3ff"/><circle cx="189.5" cy="85.6" r="3" fill="#4aa3ff"/><circle cx="192.3" cy="85.6" r="3" fill="#4aa3ff"/><circle cx="195.1" cy="85.8" r="3" fill="#4aa3ff"/><circle cx="197.9" cy="85.8" r="3" fill="#4aa3ff"/><circle cx="200.7" cy="85.8" r="3" fill="#4aa3ff"/><circle cx="203.5" cy="86.0" r="3" fill="#4aa3ff"/><circle cx="206.3" cy="86.0" r="3" fill="#4aa3ff"/><circle cx="209.0" cy="86.0" r="3" fill="#4aa3ff"/><circle cx="211.8" cy="86.0" r="3" fill="#4aa3ff"/><circle cx="214.6" cy="86.0" r="3" fill="#4aa3ff"/><circle cx="217.4" cy="86.0" r="3" fill="#4aa3ff"/><circle cx="220.2" cy="86.0" r="3" fill="#4aa3ff"/><circle cx="223.0" cy="86.0" r="3" fill="#4aa3ff"/><circle cx="225.8" cy="86.0" r="3" fill="#4aa3ff"/><circle cx="228.6" cy="86.0" r="3" fill="#4aa3ff"/><circle cx="231.4" cy="86.0" r="3" fill="#4aa3ff"/><circle cx="234.2" cy="86.0" r="3" fill="#4aa3ff"/><circle cx="237.0" cy="86.0" r="3" fill="#4aa3ff"/><circle cx="239.8" cy="86.0" r="3" fill="#4aa3ff"/><circle cx="242.5" cy="86.0" r="3" fill="#4aa3ff"/><circle cx="245.3" cy="86.0" r="3" fill="#4aa3ff"/><circle cx="248.1" cy="86.0" r="3" fill="#4aa3ff"/><circle cx="250.9" cy="86.0" r="3" fill="#4aa3ff"/><circle cx="253.7" cy="86.0" r="3" fill="#4aa3ff"/><circle cx="256.5" cy="86.0" r="3" fill="#4aa3ff"/><circle cx="259.3" cy="86.0" r="3" fill="#4aa3ff"/><circle cx="262.1" cy="87.0" r="3" fill="#4aa3ff"/><circle cx="264.9" cy="87.0" r="3" fill="#4aa3ff"/><circle cx="267.7" cy="87.0" r="3" fill="#4aa3ff"/><circle cx="270.5" cy="73.7" r="3" fill="#4aa3ff"/><circle cx="273.2" cy="73.7" r="3" fill="#4aa3ff"/><circle cx="276.0" cy="71.0" r="3" fill="#4aa3ff"/><circle cx="278.8" cy="71.0" r="3" fill="#4aa3ff"/><circle cx="281.6" cy="70.8" r="3" fill="#4aa3ff"/><circle cx="284.4" cy="70.6" r="3" fill="#4aa3ff"/><circle cx="287.2" cy="70.6" r="3" fill="#4aa3ff"/><circle cx="290.0" cy="70.4" r="3" fill="#4aa3ff"/><circle cx="292.8" cy="68.6" r="3" fill="#4aa3ff"/><circle cx="295.6" cy="60.5" r="3" fill="#4aa3ff"/><circle cx="298.4" cy="59.3" r="3" fill="#4aa3ff"/><circle cx="301.2" cy="52.0" r="3" fill="#4aa3ff"/><circle cx="303.9" cy="47.3" r="3" fill="#4aa3ff"/><circle cx="306.7" cy="40.1" r="3" fill="#4aa3ff"/><circle cx="309.5" cy="36.0" r="3" fill="#4aa3ff"/><circle cx="312.3" cy="36.0" r="3" fill="#4aa3ff"/><circle cx="315.1" cy="36.0" r="3" fill="#4aa3ff"/><circle cx="317.9" cy="36.0" r="3" fill="#4aa3ff"/><circle cx="320.7" cy="36.0" r="3" fill="#4aa3ff"/><circle cx="323.5" cy="36.0" r="3" fill="#4aa3ff"/><circle cx="326.3" cy="36.0" r="3" fill="#4aa3ff"/><circle cx="329.1" cy="36.0" r="3" fill="#4aa3ff"/><circle cx="331.9" cy="36.0" r="3" fill="#4aa3ff"/><circle cx="334.6" cy="36.0" r="3" fill="#4aa3ff"/><circle cx="337.4" cy="36.0" r="3" fill="#4aa3ff"/><circle cx="340.2" cy="36.0" r="3" fill="#4aa3ff"/><circle cx="343.0" cy="36.0" r="3" fill="#4aa3ff"/><circle cx="345.8" cy="36.0" r="3" fill="#4aa3ff"/><circle cx="348.6" cy="36.0" r="3" fill="#4aa3ff"/><circle cx="351.4" cy="36.0" r="3" fill="#4aa3ff"/><circle cx="354.2" cy="36.0" r="3" fill="#4aa3ff"/><circle cx="357.0" cy="36.0" r="3" fill="#4aa3ff"/><circle cx="359.8" cy="36.0" r="3" fill="#4aa3ff"/><circle cx="362.6" cy="36.0" r="3" fill="#4aa3ff"/><circle cx="365.4" cy="36.0" r="3" fill="#4aa3ff"/><circle cx="368.1" cy="36.0" r="3" fill="#4aa3ff"/><circle cx="370.9" cy="36.0" r="3" fill="#4aa3ff"/><circle cx="373.7" cy="36.0" r="3" fill="#4aa3ff"/><circle cx="376.5" cy="36.0" r="3" fill="#4aa3ff"/><circle cx="379.3" cy="36.0" r="3" fill="#4aa3ff"/><circle cx="382.1" cy="36.0" r="3" fill="#4aa3ff"/><circle cx="384.9" cy="36.0" r="3" fill="#4aa3ff"/><circle cx="387.7" cy="36.0" r="3" fill="#4aa3ff"/><circle cx="390.5" cy="36.0" r="3" fill="#4aa3ff"/><circle cx="393.3" cy="36.0" r="3" fill="#4aa3ff"/><circle cx="396.1" cy="36.0" r="3" fill="#4aa3ff"/><circle cx="398.8" cy="36.0" r="3" fill="#4aa3ff"/><circle cx="401.6" cy="36.0" r="3" fill="#4aa3ff"/><circle cx="404.4" cy="36.0" r="3" fill="#4aa3ff"/><circle cx="407.2" cy="36.0" r="3" fill="#4aa3ff"/><circle cx="410.0" cy="36.0" r="3" fill="#4aa3ff"/><circle cx="412.8" cy="36.0" r="3" fill="#4aa3ff"/><circle cx="415.6" cy="36.0" r="3" fill="#4aa3ff"/><circle cx="418.4" cy="36.0" r="3" fill="#4aa3ff"/><circle cx="421.2" cy="36.0" r="3" fill="#4aa3ff"/><circle cx="424.0" cy="36.0" r="3" fill="#4aa3ff"/><circle cx="426.8" cy="36.0" r="3" fill="#4aa3ff"/><circle cx="429.5" cy="36.0" r="3" fill="#4aa3ff"/><circle cx="432.3" cy="36.0" r="3" fill="#4aa3ff"/><circle cx="435.1" cy="36.0" r="3" fill="#4aa3ff"/><circle cx="437.9" cy="36.0" r="3" fill="#4aa3ff"/><circle cx="440.7" cy="36.0" r="3" fill="#4aa3ff"/><circle cx="443.5" cy="36.0" r="3" fill="#4aa3ff"/><circle cx="446.3" cy="36.0" r="3" fill="#4aa3ff"/><circle cx="449.1" cy="36.0" r="3" fill="#4aa3ff"/><circle cx="451.9" cy="36.0" r="3" fill="#4aa3ff"/><circle cx="454.7" cy="36.0" r="3" fill="#4aa3ff"/><circle cx="457.5" cy="36.0" r="3" fill="#4aa3ff"/><circle cx="460.2" cy="36.0" r="3" fill="#4aa3ff"/><circle cx="463.0" cy="36.0" r="3" fill="#4aa3ff"/><circle cx="465.8" cy="36.0" r="3" fill="#4aa3ff"/><circle cx="468.6" cy="36.0" r="3" fill="#4aa3ff"/><circle cx="471.4" cy="36.0" r="3" fill="#4aa3ff"/><circle cx="474.2" cy="36.0" r="3" fill="#4aa3ff"/><circle cx="477.0" cy="36.0" r="3" fill="#4aa3ff"/><circle cx="479.8" cy="36.0" r="3" fill="#4aa3ff"/><circle cx="482.6" cy="36.0" r="3" fill="#4aa3ff"/><circle cx="485.4" cy="36.0" r="3" fill="#4aa3ff"/><circle cx="488.2" cy="36.0" r="3" fill="#4aa3ff"/><circle cx="491.0" cy="36.0" r="3" fill="#4aa3ff"/><circle cx="493.7" cy="36.0" r="3" fill="#4aa3ff"/><circle cx="496.5" cy="36.0" r="3" fill="#4aa3ff"/><circle cx="499.3" cy="36.0" r="3" fill="#4aa3ff"/><circle cx="502.1" cy="36.0" r="3" fill="#4aa3ff"/><circle cx="504.9" cy="36.0" r="3" fill="#4aa3ff"/><circle cx="507.7" cy="36.0" r="3" fill="#4aa3ff"/><circle cx="510.5" cy="36.0" r="3" fill="#4aa3ff"/><circle cx="513.3" cy="36.0" r="3" fill="#4aa3ff"/><circle cx="516.1" cy="36.0" r="3" fill="#4aa3ff"/><circle cx="518.9" cy="36.0" r="3" fill="#4aa3ff"/><circle cx="521.7" cy="36.0" r="3" fill="#4aa3ff"/><circle cx="524.4" cy="36.0" r="3" fill="#4aa3ff"/><circle cx="527.2" cy="36.0" r="3" fill="#4aa3ff"/><circle cx="530.0" cy="36.0" r="3" fill="#4aa3ff"/><circle cx="532.8" cy="36.0" r="3" fill="#4aa3ff"/><circle cx="535.6" cy="36.0" r="3" fill="#4aa3ff"/><circle cx="538.4" cy="36.0" r="3" fill="#4aa3ff"/><circle cx="541.2" cy="36.0" r="3" fill="#4aa3ff"/><circle cx="544.0" cy="36.0" r="3" fill="#4aa3ff"/><circle cx="546.8" cy="36.0" r="3" fill="#4aa3ff"/><circle cx="549.6" cy="36.0" r="3" fill="#4aa3ff"/><circle cx="552.4" cy="36.0" r="3" fill="#4aa3ff"/><circle cx="555.1" cy="36.0" r="3" fill="#4aa3ff"/><circle cx="557.9" cy="36.0" r="3" fill="#4aa3ff"/><circle cx="560.7" cy="36.0" r="3" fill="#4aa3ff"/><circle cx="563.5" cy="36.0" r="3" fill="#4aa3ff"/><circle cx="566.3" cy="36.0" r="3" fill="#4aa3ff"/><circle cx="569.1" cy="36.0" r="3" fill="#4aa3ff"/><circle cx="571.9" cy="36.0" r="3" fill="#4aa3ff"/><circle cx="574.7" cy="36.0" r="3" fill="#4aa3ff"/><circle cx="577.5" cy="36.0" r="3" fill="#4aa3ff"/><circle cx="580.3" cy="36.0" r="3" fill="#4aa3ff"/><circle cx="583.1" cy="36.0" r="3" fill="#4aa3ff"/><circle cx="585.8" cy="36.0" r="3" fill="#4aa3ff"/><circle cx="588.6" cy="36.0" r="3" fill="#4aa3ff"/><circle cx="591.4" cy="36.0" r="3" fill="#4aa3ff"/><circle cx="594.2" cy="36.0" r="3" fill="#4aa3ff"/><circle cx="597.0" cy="36.0" r="3" fill="#4aa3ff"/><circle cx="599.8" cy="36.0" r="3" fill="#4aa3ff"/><circle cx="602.6" cy="36.0" r="3" fill="#4aa3ff"/><circle cx="605.4" cy="36.0" r="3" fill="#4aa3ff"/><circle cx="608.2" cy="36.0" r="3" fill="#4aa3ff"/><circle cx="611.0" cy="36.0" r="3" fill="#4aa3ff"/><circle cx="613.8" cy="36.0" r="3" fill="#4aa3ff"/><circle cx="616.6" cy="36.0" r="3" fill="#4aa3ff"/><circle cx="619.3" cy="36.0" r="3" fill="#4aa3ff"/><circle cx="622.1" cy="36.0" r="3" fill="#4aa3ff"/><circle cx="624.9" cy="36.0" r="3" fill="#4aa3ff"/><circle cx="627.7" cy="36.0" r="3" fill="#4aa3ff"/><circle cx="630.5" cy="36.0" r="3" fill="#4aa3ff"/><circle cx="633.3" cy="36.0" r="3" fill="#4aa3ff"/><circle cx="636.1" cy="36.0" r="3" fill="#4aa3ff"/><circle cx="638.9" cy="36.0" r="3" fill="#4aa3ff"/><circle cx="641.7" cy="36.0" r="3" fill="#4aa3ff"/><circle cx="644.5" cy="36.0" r="3" fill="#4aa3ff"/><circle cx="647.3" cy="36.0" r="3" fill="#4aa3ff"/><circle cx="650.0" cy="36.0" r="3" fill="#4aa3ff"/><circle cx="652.8" cy="36.0" r="3" fill="#4aa3ff"/><circle cx="655.6" cy="36.0" r="3" fill="#4aa3ff"/><circle cx="658.4" cy="36.0" r="3" fill="#4aa3ff"/><circle cx="661.2" cy="36.0" r="3" fill="#4aa3ff"/><circle cx="664.0" cy="36.0" r="3" fill="#4aa3ff"/>
<text x="36" y="225" fill="#6b7280" font-size="11">2026-06-26</text>
<text x="664" y="225" fill="#6b7280" font-size="11" text-anchor="end">2026-07-19</text>
<text x="36" y="212" font-family="system-ui,sans-serif" font-size="11">
<tspan fill="#4aa3ff">&#9679; open FPs</tspan>  <tspan fill="#3fb950">&#9679; closed (Anthropic acting)</tspan>  <tspan fill="#8a5a5a">&#9679; harness withdrawn</tspan></text>
<text x="664" y="22" text-anchor="end" font-family="system-ui,sans-serif" font-size="12">
<tspan fill="#4aa3ff">open 800</tspan>  <tspan fill="#3fb950">closed 0</tspan>  <tspan fill="#8a5a5a">harness 0</tspan></text>
</svg>