<svg xmlns="http://www.w3.org/2000/svg" width="700" height="234" viewBox="0 0 700 234" role="img">
<rect width="700" height="234" rx="12" fill="#16181d"/>
<text x="36" y="22" fill="#e8eaed" font-family="system-ui,sans-serif" font-size="14" font-weight="700">Is Anthropic acting? cyber/aup false positives over time</text>
<line x1="36" y1="198.0" x2="664" y2="198.0" stroke="#2a2e37" stroke-width="1"/><text x="30" y="202.0" fill="#6b7280" font-size="11" text-anchor="end">0</text><line x1="36" y1="117.0" x2="664" y2="117.0" stroke="#2a2e37" stroke-width="1"/><text x="30" y="121.0" fill="#6b7280" font-size="11" text-anchor="end">400</text><line x1="36" y1="36.0" x2="664" y2="36.0" stroke="#2a2e37" stroke-width="1"/><text x="30" y="40.0" fill="#6b7280" font-size="11" text-anchor="end">800</text>

<polyline fill="none" stroke="#8a5a5a" stroke-width="2.5" stroke-linejoin="round" points="36.0,145.1 42.4,145.1 48.8,145.1 55.2,145.1 61.6,145.1 68.0,145.1 74.4,145.1 80.9,145.1 87.3,145.1 93.7,145.1 100.1,145.1 106.5,145.1 112.9,145.1 119.3,145.1 125.7,145.1 132.1,145.1 138.5,145.1 144.9,145.1 151.3,145.1 157.8,145.1 164.2,145.1 170.6,145.1 177.0,145.1 183.4,145.1 189.8,145.1 196.2,145.1 202.6,145.1 209.0,145.1 215.4,145.1 221.8,145.1 228.2,145.1 234.7,145.1 241.1,145.1 247.5,145.1 253.9,145.1 260.3,145.1 266.7,145.1 273.1,145.1 279.5,145.1 285.9,145.1 292.3,145.1 298.7,145.1 305.1,145.1 311.6,145.1 318.0,145.1 324.4,145.1 330.8,145.1 337.2,145.1 343.6,145.1 350.0,145.1 356.4,155.7 362.8,155.7 369.2,155.7 375.6,155.7 382.0,155.7 388.4,155.7 394.9,155.7 401.3,155.7 407.7,155.7 414.1,155.7 420.5,155.7 426.9,155.7 433.3,155.7 439.7,155.7 446.1,155.7 452.5,155.7 458.9,155.7 465.3,155.7 471.8,155.7 478.2,155.7 484.6,155.7 491.0,155.7 497.4,155.7 503.8,155.7 510.2,155.7 516.6,155.7 523.0,155.7 529.4,155.7 535.8,155.7 542.2,155.7 548.7,155.7 555.1,155.7 561.5,155.7 567.9,155.7 574.3,167.6 580.7,167.6 587.1,170.3 593.5,170.3 599.9,170.5 606.3,170.7 612.7,170.7 619.1,170.9 625.6,172.7 632.0,180.6 638.4,181.8 644.8,189.1 651.2,190.5 657.6,195.2 664.0,198.0"/><circle cx="36.0" cy="145.1" r="3" fill="#8a5a5a"/><circle cx="42.4" cy="145.1" r="3" fill="#8a5a5a"/><circle cx="48.8" cy="145.1" r="3" fill="#8a5a5a"/><circle cx="55.2" cy="145.1" r="3" fill="#8a5a5a"/><circle cx="61.6" cy="145.1" r="3" fill="#8a5a5a"/><circle cx="68.0" cy="145.1" r="3" fill="#8a5a5a"/><circle cx="74.4" cy="145.1" r="3" fill="#8a5a5a"/><circle cx="80.9" cy="145.1" r="3" fill="#8a5a5a"/><circle cx="87.3" cy="145.1" r="3" fill="#8a5a5a"/><circle cx="93.7" cy="145.1" r="3" fill="#8a5a5a"/><circle cx="100.1" cy="145.1" r="3" fill="#8a5a5a"/><circle cx="106.5" cy="145.1" r="3" fill="#8a5a5a"/><circle cx="112.9" cy="145.1" r="3" fill="#8a5a5a"/><circle cx="119.3" cy="145.1" r="3" fill="#8a5a5a"/><circle cx="125.7" cy="145.1" r="3" fill="#8a5a5a"/><circle cx="132.1" cy="145.1" r="3" fill="#8a5a5a"/><circle cx="138.5" cy="145.1" r="3" fill="#8a5a5a"/><circle cx="144.9" cy="145.1" r="3" fill="#8a5a5a"/><circle cx="151.3" cy="145.1" r="3" fill="#8a5a5a"/><circle cx="157.8" cy="145.1" r="3" fill="#8a5a5a"/><circle cx="164.2" cy="145.1" r="3" fill="#8a5a5a"/><circle cx="170.6" cy="145.1" r="3" fill="#8a5a5a"/><circle cx="177.0" cy="145.1" r="3" fill="#8a5a5a"/><circle cx="183.4" cy="145.1" r="3" fill="#8a5a5a"/><circle cx="189.8" cy="145.1" r="3" fill="#8a5a5a"/><circle cx="196.2" cy="145.1" r="3" fill="#8a5a5a"/><circle cx="202.6" cy="145.1" r="3" fill="#8a5a5a"/><circle cx="209.0" cy="145.1" r="3" fill="#8a5a5a"/><circle cx="215.4" cy="145.1" r="3" fill="#8a5a5a"/><circle cx="221.8" cy="145.1" r="3" fill="#8a5a5a"/><circle cx="228.2" cy="145.1" r="3" fill="#8a5a5a"/><circle cx="234.7" cy="145.1" r="3" fill="#8a5a5a"/><circle cx="241.1" cy="145.1" r="3" fill="#8a5a5a"/><circle cx="247.5" cy="145.1" r="3" fill="#8a5a5a"/><circle cx="253.9" cy="145.1" r="3" fill="#8a5a5a"/><circle cx="260.3" cy="145.1" r="3" fill="#8a5a5a"/><circle cx="266.7" cy="145.1" r="3" fill="#8a5a5a"/><circle cx="273.1" cy="145.1" r="3" fill="#8a5a5a"/><circle cx="279.5" cy="145.1" r="3" fill="#8a5a5a"/><circle cx="285.9" cy="145.1" r="3" fill="#8a5a5a"/><circle cx="292.3" cy="145.1" r="3" fill="#8a5a5a"/><circle cx="298.7" cy="145.1" r="3" fill="#8a5a5a"/><circle cx="305.1" cy="145.1" r="3" fill="#8a5a5a"/><circle cx="311.6" cy="145.1" r="3" fill="#8a5a5a"/><circle cx="318.0" cy="145.1" r="3" fill="#8a5a5a"/><circle cx="324.4" cy="145.1" r="3" fill="#8a5a5a"/><circle cx="330.8" cy="145.1" r="3" fill="#8a5a5a"/><circle cx="337.2" cy="145.1" r="3" fill="#8a5a5a"/><circle cx="343.6" cy="145.1" r="3" fill="#8a5a5a"/><circle cx="350.0" cy="145.1" r="3" fill="#8a5a5a"/><circle cx="356.4" cy="155.7" r="3" fill="#8a5a5a"/><circle cx="362.8" cy="155.7" r="3" fill="#8a5a5a"/><circle cx="369.2" cy="155.7" r="3" fill="#8a5a5a"/><circle cx="375.6" cy="155.7" r="3" fill="#8a5a5a"/><circle cx="382.0" cy="155.7" r="3" fill="#8a5a5a"/><circle cx="388.4" cy="155.7" r="3" fill="#8a5a5a"/><circle cx="394.9" cy="155.7" r="3" fill="#8a5a5a"/><circle cx="401.3" cy="155.7" r="3" fill="#8a5a5a"/><circle cx="407.7" cy="155.7" r="3" fill="#8a5a5a"/><circle cx="414.1" cy="155.7" r="3" fill="#8a5a5a"/><circle cx="420.5" cy="155.7" r="3" fill="#8a5a5a"/><circle cx="426.9" cy="155.7" r="3" fill="#8a5a5a"/><circle cx="433.3" cy="155.7" r="3" fill="#8a5a5a"/><circle cx="439.7" cy="155.7" r="3" fill="#8a5a5a"/><circle cx="446.1" cy="155.7" r="3" fill="#8a5a5a"/><circle cx="452.5" cy="155.7" r="3" fill="#8a5a5a"/><circle cx="458.9" cy="155.7" r="3" fill="#8a5a5a"/><circle cx="465.3" cy="155.7" r="3" fill="#8a5a5a"/><circle cx="471.8" cy="155.7" r="3" fill="#8a5a5a"/><circle cx="478.2" cy="155.7" r="3" fill="#8a5a5a"/><circle cx="484.6" cy="155.7" r="3" fill="#8a5a5a"/><circle cx="491.0" cy="155.7" r="3" fill="#8a5a5a"/><circle cx="497.4" cy="155.7" r="3" fill="#8a5a5a"/><circle cx="503.8" cy="155.7" r="3" fill="#8a5a5a"/><circle cx="510.2" cy="155.7" r="3" fill="#8a5a5a"/><circle cx="516.6" cy="155.7" r="3" fill="#8a5a5a"/><circle cx="523.0" cy="155.7" r="3" fill="#8a5a5a"/><circle cx="529.4" cy="155.7" r="3" fill="#8a5a5a"/><circle cx="535.8" cy="155.7" r="3" fill="#8a5a5a"/><circle cx="542.2" cy="155.7" r="3" fill="#8a5a5a"/><circle cx="548.7" cy="155.7" r="3" fill="#8a5a5a"/><circle cx="555.1" cy="155.7" r="3" fill="#8a5a5a"/><circle cx="561.5" cy="155.7" r="3" fill="#8a5a5a"/><circle cx="567.9" cy="155.7" r="3" fill="#8a5a5a"/><circle cx="574.3" cy="167.6" r="3" fill="#8a5a5a"/><circle cx="580.7" cy="167.6" r="3" fill="#8a5a5a"/><circle cx="587.1" cy="170.3" r="3" fill="#8a5a5a"/><circle cx="593.5" cy="170.3" r="3" fill="#8a5a5a"/><circle cx="599.9" cy="170.5" r="3" fill="#8a5a5a"/><circle cx="606.3" cy="170.7" r="3" fill="#8a5a5a"/><circle cx="612.7" cy="170.7" r="3" fill="#8a5a5a"/><circle cx="619.1" cy="170.9" r="3" fill="#8a5a5a"/><circle cx="625.6" cy="172.7" r="3" fill="#8a5a5a"/><circle cx="632.0" cy="180.6" r="3" fill="#8a5a5a"/><circle cx="638.4" cy="181.8" r="3" fill="#8a5a5a"/><circle cx="644.8" cy="189.1" r="3" fill="#8a5a5a"/><circle cx="651.2" cy="190.5" r="3" fill="#8a5a5a"/><circle cx="657.6" cy="195.2" r="3" fill="#8a5a5a"/><circle cx="664.0" cy="198.0" r="3" fill="#8a5a5a"/>
<polyline fill="none" stroke="#3fb950" stroke-width="2.5" stroke-linejoin="round" points="36.0,198.0 42.4,198.0 48.8,198.0 55.2,198.0 61.6,198.0 68.0,198.0 74.4,198.0 80.9,198.0 87.3,198.0 93.7,198.0 100.1,198.0 106.5,198.0 112.9,198.0 119.3,198.0 125.7,198.0 132.1,198.0 138.5,198.0 144.9,198.0 151.3,198.0 157.8,198.0 164.2,198.0 170.6,198.0 177.0,198.0 183.4,198.0 189.8,198.0 196.2,198.0 202.6,198.0 209.0,198.0 215.4,198.0 221.8,198.0 228.2,198.0 234.7,198.0 241.1,198.0 247.5,198.0 253.9,198.0 260.3,198.0 266.7,198.0 273.1,198.0 279.5,198.0 285.9,198.0 292.3,198.0 298.7,198.0 305.1,198.0 311.6,191.7 318.0,191.7 324.4,191.7 330.8,191.7 337.2,191.7 343.6,191.7 350.0,191.7 356.4,192.9 362.8,192.9 369.2,190.7 375.6,190.7 382.0,190.7 388.4,190.7 394.9,190.7 401.3,190.5 407.7,190.5 414.1,190.5 420.5,190.3 426.9,190.3 433.3,190.3 439.7,190.3 446.1,190.3 452.5,190.3 458.9,190.3 465.3,190.3 471.8,190.3 478.2,190.3 484.6,190.3 491.0,190.3 497.4,190.3 503.8,190.3 510.2,190.3 516.6,190.3 523.0,190.3 529.4,190.3 535.8,190.3 542.2,190.3 548.7,190.3 555.1,189.3 561.5,189.3 567.9,189.3 574.3,190.7 580.7,190.7 587.1,190.7 593.5,190.7 599.9,190.7 606.3,190.7 612.7,190.7 619.1,190.7 625.6,190.7 632.0,190.9 638.4,190.9 644.8,190.9 651.2,194.2 657.6,196.8 664.0,198.0"/><circle cx="36.0" cy="198.0" r="3" fill="#3fb950"/><circle cx="42.4" cy="198.0" r="3" fill="#3fb950"/><circle cx="48.8" cy="198.0" r="3" fill="#3fb950"/><circle cx="55.2" cy="198.0" r="3" fill="#3fb950"/><circle cx="61.6" cy="198.0" r="3" fill="#3fb950"/><circle cx="68.0" cy="198.0" r="3" fill="#3fb950"/><circle cx="74.4" cy="198.0" r="3" fill="#3fb950"/><circle cx="80.9" cy="198.0" r="3" fill="#3fb950"/><circle cx="87.3" cy="198.0" r="3" fill="#3fb950"/><circle cx="93.7" cy="198.0" r="3" fill="#3fb950"/><circle cx="100.1" cy="198.0" r="3" fill="#3fb950"/><circle cx="106.5" cy="198.0" r="3" fill="#3fb950"/><circle cx="112.9" cy="198.0" r="3" fill="#3fb950"/><circle cx="119.3" cy="198.0" r="3" fill="#3fb950"/><circle cx="125.7" cy="198.0" r="3" fill="#3fb950"/><circle cx="132.1" cy="198.0" r="3" fill="#3fb950"/><circle cx="138.5" cy="198.0" r="3" fill="#3fb950"/><circle cx="144.9" cy="198.0" r="3" fill="#3fb950"/><circle cx="151.3" cy="198.0" r="3" fill="#3fb950"/><circle cx="157.8" cy="198.0" r="3" fill="#3fb950"/><circle cx="164.2" cy="198.0" r="3" fill="#3fb950"/><circle cx="170.6" cy="198.0" r="3" fill="#3fb950"/><circle cx="177.0" cy="198.0" r="3" fill="#3fb950"/><circle cx="183.4" cy="198.0" r="3" fill="#3fb950"/><circle cx="189.8" cy="198.0" r="3" fill="#3fb950"/><circle cx="196.2" cy="198.0" r="3" fill="#3fb950"/><circle cx="202.6" cy="198.0" r="3" fill="#3fb950"/><circle cx="209.0" cy="198.0" r="3" fill="#3fb950"/><circle cx="215.4" cy="198.0" r="3" fill="#3fb950"/><circle cx="221.8" cy="198.0" r="3" fill="#3fb950"/><circle cx="228.2" cy="198.0" r="3" fill="#3fb950"/><circle cx="234.7" cy="198.0" r="3" fill="#3fb950"/><circle cx="241.1" cy="198.0" r="3" fill="#3fb950"/><circle cx="247.5" cy="198.0" r="3" fill="#3fb950"/><circle cx="253.9" cy="198.0" r="3" fill="#3fb950"/><circle cx="260.3" cy="198.0" r="3" fill="#3fb950"/><circle cx="266.7" cy="198.0" r="3" fill="#3fb950"/><circle cx="273.1" cy="198.0" r="3" fill="#3fb950"/><circle cx="279.5" cy="198.0" r="3" fill="#3fb950"/><circle cx="285.9" cy="198.0" r="3" fill="#3fb950"/><circle cx="292.3" cy="198.0" r="3" fill="#3fb950"/><circle cx="298.7" cy="198.0" r="3" fill="#3fb950"/><circle cx="305.1" cy="198.0" r="3" fill="#3fb950"/><circle cx="311.6" cy="191.7" r="3" fill="#3fb950"/><circle cx="318.0" cy="191.7" r="3" fill="#3fb950"/><circle cx="324.4" cy="191.7" r="3" fill="#3fb950"/><circle cx="330.8" cy="191.7" r="3" fill="#3fb950"/><circle cx="337.2" cy="191.7" r="3" fill="#3fb950"/><circle cx="343.6" cy="191.7" r="3" fill="#3fb950"/><circle cx="350.0" cy="191.7" r="3" fill="#3fb950"/><circle cx="356.4" cy="192.9" r="3" fill="#3fb950"/><circle cx="362.8" cy="192.9" r="3" fill="#3fb950"/><circle cx="369.2" cy="190.7" r="3" fill="#3fb950"/><circle cx="375.6" cy="190.7" r="3" fill="#3fb950"/><circle cx="382.0" cy="190.7" r="3" fill="#3fb950"/><circle cx="388.4" cy="190.7" r="3" fill="#3fb950"/><circle cx="394.9" cy="190.7" r="3" fill="#3fb950"/><circle cx="401.3" cy="190.5" r="3" fill="#3fb950"/><circle cx="407.7" cy="190.5" r="3" fill="#3fb950"/><circle cx="414.1" cy="190.5" r="3" fill="#3fb950"/><circle cx="420.5" cy="190.3" r="3" fill="#3fb950"/><circle cx="426.9" cy="190.3" r="3" fill="#3fb950"/><circle cx="433.3" cy="190.3" r="3" fill="#3fb950"/><circle cx="439.7" cy="190.3" r="3" fill="#3fb950"/><circle cx="446.1" cy="190.3" r="3" fill="#3fb950"/><circle cx="452.5" cy="190.3" r="3" fill="#3fb950"/><circle cx="458.9" cy="190.3" r="3" fill="#3fb950"/><circle cx="465.3" cy="190.3" r="3" fill="#3fb950"/><circle cx="471.8" cy="190.3" r="3" fill="#3fb950"/><circle cx="478.2" cy="190.3" r="3" fill="#3fb950"/><circle cx="484.6" cy="190.3" r="3" fill="#3fb950"/><circle cx="491.0" cy="190.3" r="3" fill="#3fb950"/><circle cx="497.4" cy="190.3" r="3" fill="#3fb950"/><circle cx="503.8" cy="190.3" r="3" fill="#3fb950"/><circle cx="510.2" cy="190.3" r="3" fill="#3fb950"/><circle cx="516.6" cy="190.3" r="3" fill="#3fb950"/><circle cx="523.0" cy="190.3" r="3" fill="#3fb950"/><circle cx="529.4" cy="190.3" r="3" fill="#3fb950"/><circle cx="535.8" cy="190.3" r="3" fill="#3fb950"/><circle cx="542.2" cy="190.3" r="3" fill="#3fb950"/><circle cx="548.7" cy="190.3" r="3" fill="#3fb950"/><circle cx="555.1" cy="189.3" r="3" fill="#3fb950"/><circle cx="561.5" cy="189.3" r="3" fill="#3fb950"/><circle cx="567.9" cy="189.3" r="3" fill="#3fb950"/><circle cx="574.3" cy="190.7" r="3" fill="#3fb950"/><circle cx="580.7" cy="190.7" r="3" fill="#3fb950"/><circle cx="587.1" cy="190.7" r="3" fill="#3fb950"/><circle cx="593.5" cy="190.7" r="3" fill="#3fb950"/><circle cx="599.9" cy="190.7" r="3" fill="#3fb950"/><circle cx="606.3" cy="190.7" r="3" fill="#3fb950"/><circle cx="612.7" cy="190.7" r="3" fill="#3fb950"/><circle cx="619.1" cy="190.7" r="3" fill="#3fb950"/><circle cx="625.6" cy="190.7" r="3" fill="#3fb950"/><circle cx="632.0" cy="190.9" r="3" fill="#3fb950"/><circle cx="638.4" cy="190.9" r="3" fill="#3fb950"/><circle cx="644.8" cy="190.9" r="3" fill="#3fb950"/><circle cx="651.2" cy="194.2" r="3" fill="#3fb950"/><circle cx="657.6" cy="196.8" r="3" fill="#3fb950"/><circle cx="664.0" cy="198.0" r="3" fill="#3fb950"/>
<polyline fill="none" stroke="#4aa3ff" stroke-width="2.5" stroke-linejoin="round" points="36.0,144.3 42.4,144.3 48.8,144.3 55.2,144.3 61.6,144.3 68.0,144.3 74.4,144.3 80.9,144.3 87.3,144.3 93.7,144.3 100.1,144.3 106.5,144.3 112.9,144.3 119.3,144.3 125.7,144.3 132.1,136.2 138.5,132.4 144.9,129.6 151.3,129.6 157.8,121.0 164.2,121.0 170.6,121.0 177.0,114.4 183.4,114.4 189.8,114.4 196.2,111.3 202.6,110.9 209.0,110.9 215.4,110.5 221.8,110.5 228.2,109.9 234.7,108.7 241.1,107.3 247.5,106.9 253.9,106.9 260.3,106.9 266.7,106.9 273.1,106.9 279.5,106.9 285.9,106.9 292.3,106.9 298.7,106.9 305.1,106.9 311.6,113.2 318.0,113.2 324.4,113.2 330.8,113.2 337.2,113.2 343.6,110.7 350.0,105.3 356.4,83.4 362.8,83.4 369.2,85.6 375.6,85.6 382.0,85.6 388.4,85.6 394.9,85.6 401.3,85.8 407.7,85.8 414.1,85.8 420.5,86.0 426.9,86.0 433.3,86.0 439.7,86.0 446.1,86.0 452.5,86.0 458.9,86.0 465.3,86.0 471.8,86.0 478.2,86.0 484.6,86.0 491.0,86.0 497.4,86.0 503.8,86.0 510.2,86.0 516.6,86.0 523.0,86.0 529.4,86.0 535.8,86.0 542.2,86.0 548.7,86.0 555.1,87.0 561.5,87.0 567.9,87.0 574.3,73.7 580.7,73.7 587.1,71.0 593.5,71.0 599.9,70.8 606.3,70.6 612.7,70.6 619.1,70.4 625.6,68.6 632.0,60.5 638.4,59.3 644.8,52.0 651.2,47.3 657.6,40.1 664.0,36.0"/><circle cx="36.0" cy="144.3" r="3" fill="#4aa3ff"/><circle cx="42.4" cy="144.3" r="3" fill="#4aa3ff"/><circle cx="48.8" cy="144.3" r="3" fill="#4aa3ff"/><circle cx="55.2" cy="144.3" r="3" fill="#4aa3ff"/><circle cx="61.6" cy="144.3" r="3" fill="#4aa3ff"/><circle cx="68.0" cy="144.3" r="3" fill="#4aa3ff"/><circle cx="74.4" cy="144.3" r="3" fill="#4aa3ff"/><circle cx="80.9" cy="144.3" r="3" fill="#4aa3ff"/><circle cx="87.3" cy="144.3" r="3" fill="#4aa3ff"/><circle cx="93.7" cy="144.3" r="3" fill="#4aa3ff"/><circle cx="100.1" cy="144.3" r="3" fill="#4aa3ff"/><circle cx="106.5" cy="144.3" r="3" fill="#4aa3ff"/><circle cx="112.9" cy="144.3" r="3" fill="#4aa3ff"/><circle cx="119.3" cy="144.3" r="3" fill="#4aa3ff"/><circle cx="125.7" cy="144.3" r="3" fill="#4aa3ff"/><circle cx="132.1" cy="136.2" r="3" fill="#4aa3ff"/><circle cx="138.5" cy="132.4" r="3" fill="#4aa3ff"/><circle cx="144.9" cy="129.6" r="3" fill="#4aa3ff"/><circle cx="151.3" cy="129.6" r="3" fill="#4aa3ff"/><circle cx="157.8" cy="121.0" r="3" fill="#4aa3ff"/><circle cx="164.2" cy="121.0" r="3" fill="#4aa3ff"/><circle cx="170.6" cy="121.0" r="3" fill="#4aa3ff"/><circle cx="177.0" cy="114.4" r="3" fill="#4aa3ff"/><circle cx="183.4" cy="114.4" r="3" fill="#4aa3ff"/><circle cx="189.8" cy="114.4" r="3" fill="#4aa3ff"/><circle cx="196.2" cy="111.3" r="3" fill="#4aa3ff"/><circle cx="202.6" cy="110.9" r="3" fill="#4aa3ff"/><circle cx="209.0" cy="110.9" r="3" fill="#4aa3ff"/><circle cx="215.4" cy="110.5" r="3" fill="#4aa3ff"/><circle cx="221.8" cy="110.5" r="3" fill="#4aa3ff"/><circle cx="228.2" cy="109.9" r="3" fill="#4aa3ff"/><circle cx="234.7" cy="108.7" r="3" fill="#4aa3ff"/><circle cx="241.1" cy="107.3" r="3" fill="#4aa3ff"/><circle cx="247.5" cy="106.9" r="3" fill="#4aa3ff"/><circle cx="253.9" cy="106.9" r="3" fill="#4aa3ff"/><circle cx="260.3" cy="106.9" r="3" fill="#4aa3ff"/><circle cx="266.7" cy="106.9" r="3" fill="#4aa3ff"/><circle cx="273.1" cy="106.9" r="3" fill="#4aa3ff"/><circle cx="279.5" cy="106.9" r="3" fill="#4aa3ff"/><circle cx="285.9" cy="106.9" r="3" fill="#4aa3ff"/><circle cx="292.3" cy="106.9" r="3" fill="#4aa3ff"/><circle cx="298.7" cy="106.9" r="3" fill="#4aa3ff"/><circle cx="305.1" cy="106.9" r="3" fill="#4aa3ff"/><circle cx="311.6" cy="113.2" r="3" fill="#4aa3ff"/><circle cx="318.0" cy="113.2" r="3" fill="#4aa3ff"/><circle cx="324.4" cy="113.2" r="3" fill="#4aa3ff"/><circle cx="330.8" cy="113.2" r="3" fill="#4aa3ff"/><circle cx="337.2" cy="113.2" r="3" fill="#4aa3ff"/><circle cx="343.6" cy="110.7" r="3" fill="#4aa3ff"/><circle cx="350.0" cy="105.3" r="3" fill="#4aa3ff"/><circle cx="356.4" cy="83.4" r="3" fill="#4aa3ff"/><circle cx="362.8" cy="83.4" r="3" fill="#4aa3ff"/><circle cx="369.2" cy="85.6" r="3" fill="#4aa3ff"/><circle cx="375.6" cy="85.6" r="3" fill="#4aa3ff"/><circle cx="382.0" cy="85.6" r="3" fill="#4aa3ff"/><circle cx="388.4" cy="85.6" r="3" fill="#4aa3ff"/><circle cx="394.9" cy="85.6" r="3" fill="#4aa3ff"/><circle cx="401.3" cy="85.8" r="3" fill="#4aa3ff"/><circle cx="407.7" cy="85.8" r="3" fill="#4aa3ff"/><circle cx="414.1" cy="85.8" r="3" fill="#4aa3ff"/><circle cx="420.5" cy="86.0" r="3" fill="#4aa3ff"/><circle cx="426.9" cy="86.0" r="3" fill="#4aa3ff"/><circle cx="433.3" cy="86.0" r="3" fill="#4aa3ff"/><circle cx="439.7" cy="86.0" r="3" fill="#4aa3ff"/><circle cx="446.1" cy="86.0" r="3" fill="#4aa3ff"/><circle cx="452.5" cy="86.0" r="3" fill="#4aa3ff"/><circle cx="458.9" cy="86.0" r="3" fill="#4aa3ff"/><circle cx="465.3" cy="86.0" r="3" fill="#4aa3ff"/><circle cx="471.8" cy="86.0" r="3" fill="#4aa3ff"/><circle cx="478.2" cy="86.0" r="3" fill="#4aa3ff"/><circle cx="484.6" cy="86.0" r="3" fill="#4aa3ff"/><circle cx="491.0" cy="86.0" r="3" fill="#4aa3ff"/><circle cx="497.4" cy="86.0" r="3" fill="#4aa3ff"/><circle cx="503.8" cy="86.0" r="3" fill="#4aa3ff"/><circle cx="510.2" cy="86.0" r="3" fill="#4aa3ff"/><circle cx="516.6" cy="86.0" r="3" fill="#4aa3ff"/><circle cx="523.0" cy="86.0" r="3" fill="#4aa3ff"/><circle cx="529.4" cy="86.0" r="3" fill="#4aa3ff"/><circle cx="535.8" cy="86.0" r="3" fill="#4aa3ff"/><circle cx="542.2" cy="86.0" r="3" fill="#4aa3ff"/><circle cx="548.7" cy="86.0" r="3" fill="#4aa3ff"/><circle cx="555.1" cy="87.0" r="3" fill="#4aa3ff"/><circle cx="561.5" cy="87.0" r="3" fill="#4aa3ff"/><circle cx="567.9" cy="87.0" r="3" fill="#4aa3ff"/><circle cx="574.3" cy="73.7" r="3" fill="#4aa3ff"/><circle cx="580.7" cy="73.7" r="3" fill="#4aa3ff"/><circle cx="587.1" cy="71.0" r="3" fill="#4aa3ff"/><circle cx="593.5" cy="71.0" r="3" fill="#4aa3ff"/><circle cx="599.9" cy="70.8" r="3" fill="#4aa3ff"/><circle cx="606.3" cy="70.6" r="3" fill="#4aa3ff"/><circle cx="612.7" cy="70.6" r="3" fill="#4aa3ff"/><circle cx="619.1" cy="70.4" r="3" fill="#4aa3ff"/><circle cx="625.6" cy="68.6" r="3" fill="#4aa3ff"/><circle cx="632.0" cy="60.5" r="3" fill="#4aa3ff"/><circle cx="638.4" cy="59.3" r="3" fill="#4aa3ff"/><circle cx="644.8" cy="52.0" r="3" fill="#4aa3ff"/><circle cx="651.2" cy="47.3" r="3" fill="#4aa3ff"/><circle cx="657.6" cy="40.1" r="3" fill="#4aa3ff"/><circle cx="664.0" cy="36.0" r="3" fill="#4aa3ff"/>
<text x="36" y="225" fill="#6b7280" font-size="11">2026-06-26</text>
<text x="664" y="225" fill="#6b7280" font-size="11" text-anchor="end">2026-07-07</text>
<text x="36" y="212" font-family="system-ui,sans-serif" font-size="11">
<tspan fill="#4aa3ff">&#9679; open FPs</tspan>  <tspan fill="#3fb950">&#9679; closed (Anthropic acting)</tspan>  <tspan fill="#8a5a5a">&#9679; harness withdrawn</tspan></text>
<text x="664" y="22" text-anchor="end" font-family="system-ui,sans-serif" font-size="12">
<tspan fill="#4aa3ff">open 800</tspan>  <tspan fill="#3fb950">closed 0</tspan>  <tspan fill="#8a5a5a">harness 0</tspan></text>
</svg>