<svg xmlns="http://www.w3.org/2000/svg" width="700" height="234" viewBox="0 0 700 234" role="img">
<rect width="700" height="234" rx="12" fill="#16181d"/>
<text x="36" y="22" fill="#e8eaed" font-family="system-ui,sans-serif" font-size="14" font-weight="700">Is Anthropic acting? cyber/aup false positives over time</text>
<line x1="36" y1="198.0" x2="664" y2="198.0" stroke="#2a2e37" stroke-width="1"/><text x="30" y="202.0" fill="#6b7280" font-size="11" text-anchor="end">0</text><line x1="36" y1="117.0" x2="664" y2="117.0" stroke="#2a2e37" stroke-width="1"/><text x="30" y="121.0" fill="#6b7280" font-size="11" text-anchor="end">206</text><line x1="36" y1="36.0" x2="664" y2="36.0" stroke="#2a2e37" stroke-width="1"/><text x="30" y="40.0" fill="#6b7280" font-size="11" text-anchor="end">413</text>

<polyline fill="none" stroke="#8a5a5a" stroke-width="2.5" stroke-linejoin="round" points="36.0,95.6 62.2,95.6 88.3,95.6 114.5,95.6 140.7,95.6 166.8,95.6 193.0,95.6 219.2,95.6 245.3,95.6 271.5,95.6 297.7,95.6 323.8,95.6 350.0,95.6 376.2,95.6 402.3,95.6 428.5,95.6 454.7,95.6 480.8,95.6 507.0,95.6 533.2,95.6 559.3,95.6 585.5,95.6 611.7,95.6 637.8,95.6 664.0,95.6"/><circle cx="36.0" cy="95.6" r="3" fill="#8a5a5a"/><circle cx="62.2" cy="95.6" r="3" fill="#8a5a5a"/><circle cx="88.3" cy="95.6" r="3" fill="#8a5a5a"/><circle cx="114.5" cy="95.6" r="3" fill="#8a5a5a"/><circle cx="140.7" cy="95.6" r="3" fill="#8a5a5a"/><circle cx="166.8" cy="95.6" r="3" fill="#8a5a5a"/><circle cx="193.0" cy="95.6" r="3" fill="#8a5a5a"/><circle cx="219.2" cy="95.6" r="3" fill="#8a5a5a"/><circle cx="245.3" cy="95.6" r="3" fill="#8a5a5a"/><circle cx="271.5" cy="95.6" r="3" fill="#8a5a5a"/><circle cx="297.7" cy="95.6" r="3" fill="#8a5a5a"/><circle cx="323.8" cy="95.6" r="3" fill="#8a5a5a"/><circle cx="350.0" cy="95.6" r="3" fill="#8a5a5a"/><circle cx="376.2" cy="95.6" r="3" fill="#8a5a5a"/><circle cx="402.3" cy="95.6" r="3" fill="#8a5a5a"/><circle cx="428.5" cy="95.6" r="3" fill="#8a5a5a"/><circle cx="454.7" cy="95.6" r="3" fill="#8a5a5a"/><circle cx="480.8" cy="95.6" r="3" fill="#8a5a5a"/><circle cx="507.0" cy="95.6" r="3" fill="#8a5a5a"/><circle cx="533.2" cy="95.6" r="3" fill="#8a5a5a"/><circle cx="559.3" cy="95.6" r="3" fill="#8a5a5a"/><circle cx="585.5" cy="95.6" r="3" fill="#8a5a5a"/><circle cx="611.7" cy="95.6" r="3" fill="#8a5a5a"/><circle cx="637.8" cy="95.6" r="3" fill="#8a5a5a"/><circle cx="664.0" cy="95.6" r="3" fill="#8a5a5a"/>
<polyline fill="none" stroke="#3fb950" stroke-width="2.5" stroke-linejoin="round" points="36.0,198.0 62.2,198.0 88.3,198.0 114.5,198.0 140.7,198.0 166.8,198.0 193.0,198.0 219.2,198.0 245.3,198.0 271.5,198.0 297.7,198.0 323.8,198.0 350.0,198.0 376.2,198.0 402.3,198.0 428.5,198.0 454.7,198.0 480.8,198.0 507.0,198.0 533.2,198.0 559.3,198.0 585.5,198.0 611.7,198.0 637.8,198.0 664.0,198.0"/><circle cx="36.0" cy="198.0" r="3" fill="#3fb950"/><circle cx="62.2" cy="198.0" r="3" fill="#3fb950"/><circle cx="88.3" cy="198.0" r="3" fill="#3fb950"/><circle cx="114.5" cy="198.0" r="3" fill="#3fb950"/><circle cx="140.7" cy="198.0" r="3" fill="#3fb950"/><circle cx="166.8" cy="198.0" r="3" fill="#3fb950"/><circle cx="193.0" cy="198.0" r="3" fill="#3fb950"/><circle cx="219.2" cy="198.0" r="3" fill="#3fb950"/><circle cx="245.3" cy="198.0" r="3" fill="#3fb950"/><circle cx="271.5" cy="198.0" r="3" fill="#3fb950"/><circle cx="297.7" cy="198.0" r="3" fill="#3fb950"/><circle cx="323.8" cy="198.0" r="3" fill="#3fb950"/><circle cx="350.0" cy="198.0" r="3" fill="#3fb950"/><circle cx="376.2" cy="198.0" r="3" fill="#3fb950"/><circle cx="402.3" cy="198.0" r="3" fill="#3fb950"/><circle cx="428.5" cy="198.0" r="3" fill="#3fb950"/><circle cx="454.7" cy="198.0" r="3" fill="#3fb950"/><circle cx="480.8" cy="198.0" r="3" fill="#3fb950"/><circle cx="507.0" cy="198.0" r="3" fill="#3fb950"/><circle cx="533.2" cy="198.0" r="3" fill="#3fb950"/><circle cx="559.3" cy="198.0" r="3" fill="#3fb950"/><circle cx="585.5" cy="198.0" r="3" fill="#3fb950"/><circle cx="611.7" cy="198.0" r="3" fill="#3fb950"/><circle cx="637.8" cy="198.0" r="3" fill="#3fb950"/><circle cx="664.0" cy="198.0" r="3" fill="#3fb950"/>
<polyline fill="none" stroke="#4aa3ff" stroke-width="2.5" stroke-linejoin="round" points="36.0,94.1 62.2,94.1 88.3,94.1 114.5,94.1 140.7,94.1 166.8,94.1 193.0,94.1 219.2,94.1 245.3,94.1 271.5,94.1 297.7,94.1 323.8,94.1 350.0,94.1 376.2,94.1 402.3,94.1 428.5,78.4 454.7,70.9 480.8,65.4 507.0,65.4 533.2,48.9 559.3,48.9 585.5,48.9 611.7,36.0 637.8,36.0 664.0,36.0"/><circle cx="36.0" cy="94.1" r="3" fill="#4aa3ff"/><circle cx="62.2" cy="94.1" r="3" fill="#4aa3ff"/><circle cx="88.3" cy="94.1" r="3" fill="#4aa3ff"/><circle cx="114.5" cy="94.1" r="3" fill="#4aa3ff"/><circle cx="140.7" cy="94.1" r="3" fill="#4aa3ff"/><circle cx="166.8" cy="94.1" r="3" fill="#4aa3ff"/><circle cx="193.0" cy="94.1" r="3" fill="#4aa3ff"/><circle cx="219.2" cy="94.1" r="3" fill="#4aa3ff"/><circle cx="245.3" cy="94.1" r="3" fill="#4aa3ff"/><circle cx="271.5" cy="94.1" r="3" fill="#4aa3ff"/><circle cx="297.7" cy="94.1" r="3" fill="#4aa3ff"/><circle cx="323.8" cy="94.1" r="3" fill="#4aa3ff"/><circle cx="350.0" cy="94.1" r="3" fill="#4aa3ff"/><circle cx="376.2" cy="94.1" r="3" fill="#4aa3ff"/><circle cx="402.3" cy="94.1" r="3" fill="#4aa3ff"/><circle cx="428.5" cy="78.4" r="3" fill="#4aa3ff"/><circle cx="454.7" cy="70.9" r="3" fill="#4aa3ff"/><circle cx="480.8" cy="65.4" r="3" fill="#4aa3ff"/><circle cx="507.0" cy="65.4" r="3" fill="#4aa3ff"/><circle cx="533.2" cy="48.9" r="3" fill="#4aa3ff"/><circle cx="559.3" cy="48.9" r="3" fill="#4aa3ff"/><circle cx="585.5" cy="48.9" r="3" fill="#4aa3ff"/><circle cx="611.7" cy="36.0" r="3" fill="#4aa3ff"/><circle cx="637.8" cy="36.0" r="3" fill="#4aa3ff"/><circle cx="664.0" cy="36.0" r="3" fill="#4aa3ff"/>
<text x="36" y="225" fill="#6b7280" font-size="11">2026-06-26</text>
<text x="664" y="225" fill="#6b7280" font-size="11" text-anchor="end">2026-06-28</text>
<text x="36" y="212" font-family="system-ui,sans-serif" font-size="11">
<tspan fill="#4aa3ff">&#9679; open FPs</tspan>  <tspan fill="#3fb950">&#9679; closed (Anthropic acting)</tspan>  <tspan fill="#8a5a5a">&#9679; harness withdrawn</tspan></text>
<text x="664" y="22" text-anchor="end" font-family="system-ui,sans-serif" font-size="12">
<tspan fill="#4aa3ff">open 413</tspan>  <tspan fill="#3fb950">closed 0</tspan>  <tspan fill="#8a5a5a">harness 261</tspan></text>
</svg>