<svg xmlns="http://www.w3.org/2000/svg" width="700" height="234" viewBox="0 0 700 234" role="img">
<rect width="700" height="234" rx="12" fill="#16181d"/>
<text x="36" y="22" fill="#e8eaed" font-family="system-ui,sans-serif" font-size="14" font-weight="700">Is Anthropic acting? cyber/aup false positives over time</text>
<line x1="36" y1="198.0" x2="664" y2="198.0" stroke="#2a2e37" stroke-width="1"/><text x="30" y="202.0" fill="#6b7280" font-size="11" text-anchor="end">0</text><line x1="36" y1="117.0" x2="664" y2="117.0" stroke="#2a2e37" stroke-width="1"/><text x="30" y="121.0" fill="#6b7280" font-size="11" text-anchor="end">400</text><line x1="36" y1="36.0" x2="664" y2="36.0" stroke="#2a2e37" stroke-width="1"/><text x="30" y="40.0" fill="#6b7280" font-size="11" text-anchor="end">800</text>

<polyline fill="none" stroke="#8a5a5a" stroke-width="2.5" stroke-linejoin="round" points="36.0,145.1 39.6,145.1 43.3,145.1 46.9,145.1 50.5,145.1 54.2,145.1 57.8,145.1 61.4,145.1 65.0,145.1 68.7,145.1 72.3,145.1 75.9,145.1 79.6,145.1 83.2,145.1 86.8,145.1 90.5,145.1 94.1,145.1 97.7,145.1 101.3,145.1 105.0,145.1 108.6,145.1 112.2,145.1 115.9,145.1 119.5,145.1 123.1,145.1 126.8,145.1 130.4,145.1 134.0,145.1 137.6,145.1 141.3,145.1 144.9,145.1 148.5,145.1 152.2,145.1 155.8,145.1 159.4,145.1 163.1,145.1 166.7,145.1 170.3,145.1 173.9,145.1 177.6,145.1 181.2,145.1 184.8,145.1 188.5,145.1 192.1,145.1 195.7,145.1 199.4,145.1 203.0,145.1 206.6,145.1 210.2,145.1 213.9,145.1 217.5,155.7 221.1,155.7 224.8,155.7 228.4,155.7 232.0,155.7 235.7,155.7 239.3,155.7 242.9,155.7 246.5,155.7 250.2,155.7 253.8,155.7 257.4,155.7 261.1,155.7 264.7,155.7 268.3,155.7 272.0,155.7 275.6,155.7 279.2,155.7 282.8,155.7 286.5,155.7 290.1,155.7 293.7,155.7 297.4,155.7 301.0,155.7 304.6,155.7 308.3,155.7 311.9,155.7 315.5,155.7 319.1,155.7 322.8,155.7 326.4,155.7 330.0,155.7 333.7,155.7 337.3,155.7 340.9,167.6 344.6,167.6 348.2,170.3 351.8,170.3 355.4,170.5 359.1,170.7 362.7,170.7 366.3,170.9 370.0,172.7 373.6,180.6 377.2,181.8 380.9,189.1 384.5,190.5 388.1,195.2 391.7,198.0 395.4,198.0 399.0,198.0 402.6,198.0 406.3,198.0 409.9,198.0 413.5,198.0 417.2,198.0 420.8,198.0 424.4,198.0 428.0,198.0 431.7,198.0 435.3,198.0 438.9,198.0 442.6,198.0 446.2,198.0 449.8,198.0 453.5,198.0 457.1,198.0 460.7,198.0 464.3,198.0 468.0,198.0 471.6,198.0 475.2,198.0 478.9,198.0 482.5,198.0 486.1,198.0 489.8,198.0 493.4,198.0 497.0,198.0 500.6,198.0 504.3,198.0 507.9,198.0 511.5,198.0 515.2,198.0 518.8,198.0 522.4,198.0 526.1,198.0 529.7,198.0 533.3,198.0 536.9,198.0 540.6,198.0 544.2,198.0 547.8,198.0 551.5,198.0 555.1,198.0 558.7,198.0 562.4,198.0 566.0,198.0 569.6,198.0 573.2,198.0 576.9,198.0 580.5,198.0 584.1,198.0 587.8,198.0 591.4,198.0 595.0,198.0 598.7,198.0 602.3,198.0 605.9,198.0 609.5,198.0 613.2,198.0 616.8,198.0 620.4,198.0 624.1,198.0 627.7,198.0 631.3,198.0 635.0,198.0 638.6,198.0 642.2,198.0 645.8,198.0 649.5,198.0 653.1,198.0 656.7,198.0 660.4,198.0 664.0,198.0"/><circle cx="36.0" cy="145.1" r="3" fill="#8a5a5a"/><circle cx="39.6" cy="145.1" r="3" fill="#8a5a5a"/><circle cx="43.3" cy="145.1" r="3" fill="#8a5a5a"/><circle cx="46.9" cy="145.1" r="3" fill="#8a5a5a"/><circle cx="50.5" cy="145.1" r="3" fill="#8a5a5a"/><circle cx="54.2" cy="145.1" r="3" fill="#8a5a5a"/><circle cx="57.8" cy="145.1" r="3" fill="#8a5a5a"/><circle cx="61.4" cy="145.1" r="3" fill="#8a5a5a"/><circle cx="65.0" cy="145.1" r="3" fill="#8a5a5a"/><circle cx="68.7" cy="145.1" r="3" fill="#8a5a5a"/><circle cx="72.3" cy="145.1" r="3" fill="#8a5a5a"/><circle cx="75.9" cy="145.1" r="3" fill="#8a5a5a"/><circle cx="79.6" cy="145.1" r="3" fill="#8a5a5a"/><circle cx="83.2" cy="145.1" r="3" fill="#8a5a5a"/><circle cx="86.8" cy="145.1" r="3" fill="#8a5a5a"/><circle cx="90.5" cy="145.1" r="3" fill="#8a5a5a"/><circle cx="94.1" cy="145.1" r="3" fill="#8a5a5a"/><circle cx="97.7" cy="145.1" r="3" fill="#8a5a5a"/><circle cx="101.3" cy="145.1" r="3" fill="#8a5a5a"/><circle cx="105.0" cy="145.1" r="3" fill="#8a5a5a"/><circle cx="108.6" cy="145.1" r="3" fill="#8a5a5a"/><circle cx="112.2" cy="145.1" r="3" fill="#8a5a5a"/><circle cx="115.9" cy="145.1" r="3" fill="#8a5a5a"/><circle cx="119.5" cy="145.1" r="3" fill="#8a5a5a"/><circle cx="123.1" cy="145.1" r="3" fill="#8a5a5a"/><circle cx="126.8" cy="145.1" r="3" fill="#8a5a5a"/><circle cx="130.4" cy="145.1" r="3" fill="#8a5a5a"/><circle cx="134.0" cy="145.1" r="3" fill="#8a5a5a"/><circle cx="137.6" cy="145.1" r="3" fill="#8a5a5a"/><circle cx="141.3" cy="145.1" r="3" fill="#8a5a5a"/><circle cx="144.9" cy="145.1" r="3" fill="#8a5a5a"/><circle cx="148.5" cy="145.1" r="3" fill="#8a5a5a"/><circle cx="152.2" cy="145.1" r="3" fill="#8a5a5a"/><circle cx="155.8" cy="145.1" r="3" fill="#8a5a5a"/><circle cx="159.4" cy="145.1" r="3" fill="#8a5a5a"/><circle cx="163.1" cy="145.1" r="3" fill="#8a5a5a"/><circle cx="166.7" cy="145.1" r="3" fill="#8a5a5a"/><circle cx="170.3" cy="145.1" r="3" fill="#8a5a5a"/><circle cx="173.9" cy="145.1" r="3" fill="#8a5a5a"/><circle cx="177.6" cy="145.1" r="3" fill="#8a5a5a"/><circle cx="181.2" cy="145.1" r="3" fill="#8a5a5a"/><circle cx="184.8" cy="145.1" r="3" fill="#8a5a5a"/><circle cx="188.5" cy="145.1" r="3" fill="#8a5a5a"/><circle cx="192.1" cy="145.1" r="3" fill="#8a5a5a"/><circle cx="195.7" cy="145.1" r="3" fill="#8a5a5a"/><circle cx="199.4" cy="145.1" r="3" fill="#8a5a5a"/><circle cx="203.0" cy="145.1" r="3" fill="#8a5a5a"/><circle cx="206.6" cy="145.1" r="3" fill="#8a5a5a"/><circle cx="210.2" cy="145.1" r="3" fill="#8a5a5a"/><circle cx="213.9" cy="145.1" r="3" fill="#8a5a5a"/><circle cx="217.5" cy="155.7" r="3" fill="#8a5a5a"/><circle cx="221.1" cy="155.7" r="3" fill="#8a5a5a"/><circle cx="224.8" cy="155.7" r="3" fill="#8a5a5a"/><circle cx="228.4" cy="155.7" r="3" fill="#8a5a5a"/><circle cx="232.0" cy="155.7" r="3" fill="#8a5a5a"/><circle cx="235.7" cy="155.7" r="3" fill="#8a5a5a"/><circle cx="239.3" cy="155.7" r="3" fill="#8a5a5a"/><circle cx="242.9" cy="155.7" r="3" fill="#8a5a5a"/><circle cx="246.5" cy="155.7" r="3" fill="#8a5a5a"/><circle cx="250.2" cy="155.7" r="3" fill="#8a5a5a"/><circle cx="253.8" cy="155.7" r="3" fill="#8a5a5a"/><circle cx="257.4" cy="155.7" r="3" fill="#8a5a5a"/><circle cx="261.1" cy="155.7" r="3" fill="#8a5a5a"/><circle cx="264.7" cy="155.7" r="3" fill="#8a5a5a"/><circle cx="268.3" cy="155.7" r="3" fill="#8a5a5a"/><circle cx="272.0" cy="155.7" r="3" fill="#8a5a5a"/><circle cx="275.6" cy="155.7" r="3" fill="#8a5a5a"/><circle cx="279.2" cy="155.7" r="3" fill="#8a5a5a"/><circle cx="282.8" cy="155.7" r="3" fill="#8a5a5a"/><circle cx="286.5" cy="155.7" r="3" fill="#8a5a5a"/><circle cx="290.1" cy="155.7" r="3" fill="#8a5a5a"/><circle cx="293.7" cy="155.7" r="3" fill="#8a5a5a"/><circle cx="297.4" cy="155.7" r="3" fill="#8a5a5a"/><circle cx="301.0" cy="155.7" r="3" fill="#8a5a5a"/><circle cx="304.6" cy="155.7" r="3" fill="#8a5a5a"/><circle cx="308.3" cy="155.7" r="3" fill="#8a5a5a"/><circle cx="311.9" cy="155.7" r="3" fill="#8a5a5a"/><circle cx="315.5" cy="155.7" r="3" fill="#8a5a5a"/><circle cx="319.1" cy="155.7" r="3" fill="#8a5a5a"/><circle cx="322.8" cy="155.7" r="3" fill="#8a5a5a"/><circle cx="326.4" cy="155.7" r="3" fill="#8a5a5a"/><circle cx="330.0" cy="155.7" r="3" fill="#8a5a5a"/><circle cx="333.7" cy="155.7" r="3" fill="#8a5a5a"/><circle cx="337.3" cy="155.7" r="3" fill="#8a5a5a"/><circle cx="340.9" cy="167.6" r="3" fill="#8a5a5a"/><circle cx="344.6" cy="167.6" r="3" fill="#8a5a5a"/><circle cx="348.2" cy="170.3" r="3" fill="#8a5a5a"/><circle cx="351.8" cy="170.3" r="3" fill="#8a5a5a"/><circle cx="355.4" cy="170.5" r="3" fill="#8a5a5a"/><circle cx="359.1" cy="170.7" r="3" fill="#8a5a5a"/><circle cx="362.7" cy="170.7" r="3" fill="#8a5a5a"/><circle cx="366.3" cy="170.9" r="3" fill="#8a5a5a"/><circle cx="370.0" cy="172.7" r="3" fill="#8a5a5a"/><circle cx="373.6" cy="180.6" r="3" fill="#8a5a5a"/><circle cx="377.2" cy="181.8" r="3" fill="#8a5a5a"/><circle cx="380.9" cy="189.1" r="3" fill="#8a5a5a"/><circle cx="384.5" cy="190.5" r="3" fill="#8a5a5a"/><circle cx="388.1" cy="195.2" r="3" fill="#8a5a5a"/><circle cx="391.7" cy="198.0" r="3" fill="#8a5a5a"/><circle cx="395.4" cy="198.0" r="3" fill="#8a5a5a"/><circle cx="399.0" cy="198.0" r="3" fill="#8a5a5a"/><circle cx="402.6" cy="198.0" r="3" fill="#8a5a5a"/><circle cx="406.3" cy="198.0" r="3" fill="#8a5a5a"/><circle cx="409.9" cy="198.0" r="3" fill="#8a5a5a"/><circle cx="413.5" cy="198.0" r="3" fill="#8a5a5a"/><circle cx="417.2" cy="198.0" r="3" fill="#8a5a5a"/><circle cx="420.8" cy="198.0" r="3" fill="#8a5a5a"/><circle cx="424.4" cy="198.0" r="3" fill="#8a5a5a"/><circle cx="428.0" cy="198.0" r="3" fill="#8a5a5a"/><circle cx="431.7" cy="198.0" r="3" fill="#8a5a5a"/><circle cx="435.3" cy="198.0" r="3" fill="#8a5a5a"/><circle cx="438.9" cy="198.0" r="3" fill="#8a5a5a"/><circle cx="442.6" cy="198.0" r="3" fill="#8a5a5a"/><circle cx="446.2" cy="198.0" r="3" fill="#8a5a5a"/><circle cx="449.8" cy="198.0" r="3" fill="#8a5a5a"/><circle cx="453.5" cy="198.0" r="3" fill="#8a5a5a"/><circle cx="457.1" cy="198.0" r="3" fill="#8a5a5a"/><circle cx="460.7" cy="198.0" r="3" fill="#8a5a5a"/><circle cx="464.3" cy="198.0" r="3" fill="#8a5a5a"/><circle cx="468.0" cy="198.0" r="3" fill="#8a5a5a"/><circle cx="471.6" cy="198.0" r="3" fill="#8a5a5a"/><circle cx="475.2" cy="198.0" r="3" fill="#8a5a5a"/><circle cx="478.9" cy="198.0" r="3" fill="#8a5a5a"/><circle cx="482.5" cy="198.0" r="3" fill="#8a5a5a"/><circle cx="486.1" cy="198.0" r="3" fill="#8a5a5a"/><circle cx="489.8" cy="198.0" r="3" fill="#8a5a5a"/><circle cx="493.4" cy="198.0" r="3" fill="#8a5a5a"/><circle cx="497.0" cy="198.0" r="3" fill="#8a5a5a"/><circle cx="500.6" cy="198.0" r="3" fill="#8a5a5a"/><circle cx="504.3" cy="198.0" r="3" fill="#8a5a5a"/><circle cx="507.9" cy="198.0" r="3" fill="#8a5a5a"/><circle cx="511.5" cy="198.0" r="3" fill="#8a5a5a"/><circle cx="515.2" cy="198.0" r="3" fill="#8a5a5a"/><circle cx="518.8" cy="198.0" r="3" fill="#8a5a5a"/><circle cx="522.4" cy="198.0" r="3" fill="#8a5a5a"/><circle cx="526.1" cy="198.0" r="3" fill="#8a5a5a"/><circle cx="529.7" cy="198.0" r="3" fill="#8a5a5a"/><circle cx="533.3" cy="198.0" r="3" fill="#8a5a5a"/><circle cx="536.9" cy="198.0" r="3" fill="#8a5a5a"/><circle cx="540.6" cy="198.0" r="3" fill="#8a5a5a"/><circle cx="544.2" cy="198.0" r="3" fill="#8a5a5a"/><circle cx="547.8" cy="198.0" r="3" fill="#8a5a5a"/><circle cx="551.5" cy="198.0" r="3" fill="#8a5a5a"/><circle cx="555.1" cy="198.0" r="3" fill="#8a5a5a"/><circle cx="558.7" cy="198.0" r="3" fill="#8a5a5a"/><circle cx="562.4" cy="198.0" r="3" fill="#8a5a5a"/><circle cx="566.0" cy="198.0" r="3" fill="#8a5a5a"/><circle cx="569.6" cy="198.0" r="3" fill="#8a5a5a"/><circle cx="573.2" cy="198.0" r="3" fill="#8a5a5a"/><circle cx="576.9" cy="198.0" r="3" fill="#8a5a5a"/><circle cx="580.5" cy="198.0" r="3" fill="#8a5a5a"/><circle cx="584.1" cy="198.0" r="3" fill="#8a5a5a"/><circle cx="587.8" cy="198.0" r="3" fill="#8a5a5a"/><circle cx="591.4" cy="198.0" r="3" fill="#8a5a5a"/><circle cx="595.0" cy="198.0" r="3" fill="#8a5a5a"/><circle cx="598.7" cy="198.0" r="3" fill="#8a5a5a"/><circle cx="602.3" cy="198.0" r="3" fill="#8a5a5a"/><circle cx="605.9" cy="198.0" r="3" fill="#8a5a5a"/><circle cx="609.5" cy="198.0" r="3" fill="#8a5a5a"/><circle cx="613.2" cy="198.0" r="3" fill="#8a5a5a"/><circle cx="616.8" cy="198.0" r="3" fill="#8a5a5a"/><circle cx="620.4" cy="198.0" r="3" fill="#8a5a5a"/><circle cx="624.1" cy="198.0" r="3" fill="#8a5a5a"/><circle cx="627.7" cy="198.0" r="3" fill="#8a5a5a"/><circle cx="631.3" cy="198.0" r="3" fill="#8a5a5a"/><circle cx="635.0" cy="198.0" r="3" fill="#8a5a5a"/><circle cx="638.6" cy="198.0" r="3" fill="#8a5a5a"/><circle cx="642.2" cy="198.0" r="3" fill="#8a5a5a"/><circle cx="645.8" cy="198.0" r="3" fill="#8a5a5a"/><circle cx="649.5" cy="198.0" r="3" fill="#8a5a5a"/><circle cx="653.1" cy="198.0" r="3" fill="#8a5a5a"/><circle cx="656.7" cy="198.0" r="3" fill="#8a5a5a"/><circle cx="660.4" cy="198.0" r="3" fill="#8a5a5a"/><circle cx="664.0" cy="198.0" r="3" fill="#8a5a5a"/>
<polyline fill="none" stroke="#3fb950" stroke-width="2.5" stroke-linejoin="round" points="36.0,198.0 39.6,198.0 43.3,198.0 46.9,198.0 50.5,198.0 54.2,198.0 57.8,198.0 61.4,198.0 65.0,198.0 68.7,198.0 72.3,198.0 75.9,198.0 79.6,198.0 83.2,198.0 86.8,198.0 90.5,198.0 94.1,198.0 97.7,198.0 101.3,198.0 105.0,198.0 108.6,198.0 112.2,198.0 115.9,198.0 119.5,198.0 123.1,198.0 126.8,198.0 130.4,198.0 134.0,198.0 137.6,198.0 141.3,198.0 144.9,198.0 148.5,198.0 152.2,198.0 155.8,198.0 159.4,198.0 163.1,198.0 166.7,198.0 170.3,198.0 173.9,198.0 177.6,198.0 181.2,198.0 184.8,198.0 188.5,198.0 192.1,191.7 195.7,191.7 199.4,191.7 203.0,191.7 206.6,191.7 210.2,191.7 213.9,191.7 217.5,192.9 221.1,192.9 224.8,190.7 228.4,190.7 232.0,190.7 235.7,190.7 239.3,190.7 242.9,190.5 246.5,190.5 250.2,190.5 253.8,190.3 257.4,190.3 261.1,190.3 264.7,190.3 268.3,190.3 272.0,190.3 275.6,190.3 279.2,190.3 282.8,190.3 286.5,190.3 290.1,190.3 293.7,190.3 297.4,190.3 301.0,190.3 304.6,190.3 308.3,190.3 311.9,190.3 315.5,190.3 319.1,190.3 322.8,190.3 326.4,190.3 330.0,189.3 333.7,189.3 337.3,189.3 340.9,190.7 344.6,190.7 348.2,190.7 351.8,190.7 355.4,190.7 359.1,190.7 362.7,190.7 366.3,190.7 370.0,190.7 373.6,190.9 377.2,190.9 380.9,190.9 384.5,194.2 388.1,196.8 391.7,198.0 395.4,198.0 399.0,198.0 402.6,198.0 406.3,198.0 409.9,198.0 413.5,198.0 417.2,198.0 420.8,198.0 424.4,198.0 428.0,198.0 431.7,198.0 435.3,198.0 438.9,198.0 442.6,198.0 446.2,198.0 449.8,198.0 453.5,198.0 457.1,198.0 460.7,198.0 464.3,198.0 468.0,198.0 471.6,198.0 475.2,198.0 478.9,198.0 482.5,198.0 486.1,198.0 489.8,198.0 493.4,198.0 497.0,198.0 500.6,198.0 504.3,198.0 507.9,198.0 511.5,198.0 515.2,198.0 518.8,198.0 522.4,198.0 526.1,198.0 529.7,198.0 533.3,198.0 536.9,198.0 540.6,198.0 544.2,198.0 547.8,198.0 551.5,198.0 555.1,198.0 558.7,198.0 562.4,198.0 566.0,198.0 569.6,198.0 573.2,198.0 576.9,198.0 580.5,198.0 584.1,198.0 587.8,198.0 591.4,198.0 595.0,198.0 598.7,198.0 602.3,198.0 605.9,198.0 609.5,198.0 613.2,198.0 616.8,198.0 620.4,198.0 624.1,198.0 627.7,198.0 631.3,198.0 635.0,198.0 638.6,198.0 642.2,198.0 645.8,198.0 649.5,198.0 653.1,198.0 656.7,198.0 660.4,198.0 664.0,198.0"/><circle cx="36.0" cy="198.0" r="3" fill="#3fb950"/><circle cx="39.6" cy="198.0" r="3" fill="#3fb950"/><circle cx="43.3" cy="198.0" r="3" fill="#3fb950"/><circle cx="46.9" cy="198.0" r="3" fill="#3fb950"/><circle cx="50.5" cy="198.0" r="3" fill="#3fb950"/><circle cx="54.2" cy="198.0" r="3" fill="#3fb950"/><circle cx="57.8" cy="198.0" r="3" fill="#3fb950"/><circle cx="61.4" cy="198.0" r="3" fill="#3fb950"/><circle cx="65.0" cy="198.0" r="3" fill="#3fb950"/><circle cx="68.7" cy="198.0" r="3" fill="#3fb950"/><circle cx="72.3" cy="198.0" r="3" fill="#3fb950"/><circle cx="75.9" cy="198.0" r="3" fill="#3fb950"/><circle cx="79.6" cy="198.0" r="3" fill="#3fb950"/><circle cx="83.2" cy="198.0" r="3" fill="#3fb950"/><circle cx="86.8" cy="198.0" r="3" fill="#3fb950"/><circle cx="90.5" cy="198.0" r="3" fill="#3fb950"/><circle cx="94.1" cy="198.0" r="3" fill="#3fb950"/><circle cx="97.7" cy="198.0" r="3" fill="#3fb950"/><circle cx="101.3" cy="198.0" r="3" fill="#3fb950"/><circle cx="105.0" cy="198.0" r="3" fill="#3fb950"/><circle cx="108.6" cy="198.0" r="3" fill="#3fb950"/><circle cx="112.2" cy="198.0" r="3" fill="#3fb950"/><circle cx="115.9" cy="198.0" r="3" fill="#3fb950"/><circle cx="119.5" cy="198.0" r="3" fill="#3fb950"/><circle cx="123.1" cy="198.0" r="3" fill="#3fb950"/><circle cx="126.8" cy="198.0" r="3" fill="#3fb950"/><circle cx="130.4" cy="198.0" r="3" fill="#3fb950"/><circle cx="134.0" cy="198.0" r="3" fill="#3fb950"/><circle cx="137.6" cy="198.0" r="3" fill="#3fb950"/><circle cx="141.3" cy="198.0" r="3" fill="#3fb950"/><circle cx="144.9" cy="198.0" r="3" fill="#3fb950"/><circle cx="148.5" cy="198.0" r="3" fill="#3fb950"/><circle cx="152.2" cy="198.0" r="3" fill="#3fb950"/><circle cx="155.8" cy="198.0" r="3" fill="#3fb950"/><circle cx="159.4" cy="198.0" r="3" fill="#3fb950"/><circle cx="163.1" cy="198.0" r="3" fill="#3fb950"/><circle cx="166.7" cy="198.0" r="3" fill="#3fb950"/><circle cx="170.3" cy="198.0" r="3" fill="#3fb950"/><circle cx="173.9" cy="198.0" r="3" fill="#3fb950"/><circle cx="177.6" cy="198.0" r="3" fill="#3fb950"/><circle cx="181.2" cy="198.0" r="3" fill="#3fb950"/><circle cx="184.8" cy="198.0" r="3" fill="#3fb950"/><circle cx="188.5" cy="198.0" r="3" fill="#3fb950"/><circle cx="192.1" cy="191.7" r="3" fill="#3fb950"/><circle cx="195.7" cy="191.7" r="3" fill="#3fb950"/><circle cx="199.4" cy="191.7" r="3" fill="#3fb950"/><circle cx="203.0" cy="191.7" r="3" fill="#3fb950"/><circle cx="206.6" cy="191.7" r="3" fill="#3fb950"/><circle cx="210.2" cy="191.7" r="3" fill="#3fb950"/><circle cx="213.9" cy="191.7" r="3" fill="#3fb950"/><circle cx="217.5" cy="192.9" r="3" fill="#3fb950"/><circle cx="221.1" cy="192.9" r="3" fill="#3fb950"/><circle cx="224.8" cy="190.7" r="3" fill="#3fb950"/><circle cx="228.4" cy="190.7" r="3" fill="#3fb950"/><circle cx="232.0" cy="190.7" r="3" fill="#3fb950"/><circle cx="235.7" cy="190.7" r="3" fill="#3fb950"/><circle cx="239.3" cy="190.7" r="3" fill="#3fb950"/><circle cx="242.9" cy="190.5" r="3" fill="#3fb950"/><circle cx="246.5" cy="190.5" r="3" fill="#3fb950"/><circle cx="250.2" cy="190.5" r="3" fill="#3fb950"/><circle cx="253.8" cy="190.3" r="3" fill="#3fb950"/><circle cx="257.4" cy="190.3" r="3" fill="#3fb950"/><circle cx="261.1" cy="190.3" r="3" fill="#3fb950"/><circle cx="264.7" cy="190.3" r="3" fill="#3fb950"/><circle cx="268.3" cy="190.3" r="3" fill="#3fb950"/><circle cx="272.0" cy="190.3" r="3" fill="#3fb950"/><circle cx="275.6" cy="190.3" r="3" fill="#3fb950"/><circle cx="279.2" cy="190.3" r="3" fill="#3fb950"/><circle cx="282.8" cy="190.3" r="3" fill="#3fb950"/><circle cx="286.5" cy="190.3" r="3" fill="#3fb950"/><circle cx="290.1" cy="190.3" r="3" fill="#3fb950"/><circle cx="293.7" cy="190.3" r="3" fill="#3fb950"/><circle cx="297.4" cy="190.3" r="3" fill="#3fb950"/><circle cx="301.0" cy="190.3" r="3" fill="#3fb950"/><circle cx="304.6" cy="190.3" r="3" fill="#3fb950"/><circle cx="308.3" cy="190.3" r="3" fill="#3fb950"/><circle cx="311.9" cy="190.3" r="3" fill="#3fb950"/><circle cx="315.5" cy="190.3" r="3" fill="#3fb950"/><circle cx="319.1" cy="190.3" r="3" fill="#3fb950"/><circle cx="322.8" cy="190.3" r="3" fill="#3fb950"/><circle cx="326.4" cy="190.3" r="3" fill="#3fb950"/><circle cx="330.0" cy="189.3" r="3" fill="#3fb950"/><circle cx="333.7" cy="189.3" r="3" fill="#3fb950"/><circle cx="337.3" cy="189.3" r="3" fill="#3fb950"/><circle cx="340.9" cy="190.7" r="3" fill="#3fb950"/><circle cx="344.6" cy="190.7" r="3" fill="#3fb950"/><circle cx="348.2" cy="190.7" r="3" fill="#3fb950"/><circle cx="351.8" cy="190.7" r="3" fill="#3fb950"/><circle cx="355.4" cy="190.7" r="3" fill="#3fb950"/><circle cx="359.1" cy="190.7" r="3" fill="#3fb950"/><circle cx="362.7" cy="190.7" r="3" fill="#3fb950"/><circle cx="366.3" cy="190.7" r="3" fill="#3fb950"/><circle cx="370.0" cy="190.7" r="3" fill="#3fb950"/><circle cx="373.6" cy="190.9" r="3" fill="#3fb950"/><circle cx="377.2" cy="190.9" r="3" fill="#3fb950"/><circle cx="380.9" cy="190.9" r="3" fill="#3fb950"/><circle cx="384.5" cy="194.2" r="3" fill="#3fb950"/><circle cx="388.1" cy="196.8" r="3" fill="#3fb950"/><circle cx="391.7" cy="198.0" r="3" fill="#3fb950"/><circle cx="395.4" cy="198.0" r="3" fill="#3fb950"/><circle cx="399.0" cy="198.0" r="3" fill="#3fb950"/><circle cx="402.6" cy="198.0" r="3" fill="#3fb950"/><circle cx="406.3" cy="198.0" r="3" fill="#3fb950"/><circle cx="409.9" cy="198.0" r="3" fill="#3fb950"/><circle cx="413.5" cy="198.0" r="3" fill="#3fb950"/><circle cx="417.2" cy="198.0" r="3" fill="#3fb950"/><circle cx="420.8" cy="198.0" r="3" fill="#3fb950"/><circle cx="424.4" cy="198.0" r="3" fill="#3fb950"/><circle cx="428.0" cy="198.0" r="3" fill="#3fb950"/><circle cx="431.7" cy="198.0" r="3" fill="#3fb950"/><circle cx="435.3" cy="198.0" r="3" fill="#3fb950"/><circle cx="438.9" cy="198.0" r="3" fill="#3fb950"/><circle cx="442.6" cy="198.0" r="3" fill="#3fb950"/><circle cx="446.2" cy="198.0" r="3" fill="#3fb950"/><circle cx="449.8" cy="198.0" r="3" fill="#3fb950"/><circle cx="453.5" cy="198.0" r="3" fill="#3fb950"/><circle cx="457.1" cy="198.0" r="3" fill="#3fb950"/><circle cx="460.7" cy="198.0" r="3" fill="#3fb950"/><circle cx="464.3" cy="198.0" r="3" fill="#3fb950"/><circle cx="468.0" cy="198.0" r="3" fill="#3fb950"/><circle cx="471.6" cy="198.0" r="3" fill="#3fb950"/><circle cx="475.2" cy="198.0" r="3" fill="#3fb950"/><circle cx="478.9" cy="198.0" r="3" fill="#3fb950"/><circle cx="482.5" cy="198.0" r="3" fill="#3fb950"/><circle cx="486.1" cy="198.0" r="3" fill="#3fb950"/><circle cx="489.8" cy="198.0" r="3" fill="#3fb950"/><circle cx="493.4" cy="198.0" r="3" fill="#3fb950"/><circle cx="497.0" cy="198.0" r="3" fill="#3fb950"/><circle cx="500.6" cy="198.0" r="3" fill="#3fb950"/><circle cx="504.3" cy="198.0" r="3" fill="#3fb950"/><circle cx="507.9" cy="198.0" r="3" fill="#3fb950"/><circle cx="511.5" cy="198.0" r="3" fill="#3fb950"/><circle cx="515.2" cy="198.0" r="3" fill="#3fb950"/><circle cx="518.8" cy="198.0" r="3" fill="#3fb950"/><circle cx="522.4" cy="198.0" r="3" fill="#3fb950"/><circle cx="526.1" cy="198.0" r="3" fill="#3fb950"/><circle cx="529.7" cy="198.0" r="3" fill="#3fb950"/><circle cx="533.3" cy="198.0" r="3" fill="#3fb950"/><circle cx="536.9" cy="198.0" r="3" fill="#3fb950"/><circle cx="540.6" cy="198.0" r="3" fill="#3fb950"/><circle cx="544.2" cy="198.0" r="3" fill="#3fb950"/><circle cx="547.8" cy="198.0" r="3" fill="#3fb950"/><circle cx="551.5" cy="198.0" r="3" fill="#3fb950"/><circle cx="555.1" cy="198.0" r="3" fill="#3fb950"/><circle cx="558.7" cy="198.0" r="3" fill="#3fb950"/><circle cx="562.4" cy="198.0" r="3" fill="#3fb950"/><circle cx="566.0" cy="198.0" r="3" fill="#3fb950"/><circle cx="569.6" cy="198.0" r="3" fill="#3fb950"/><circle cx="573.2" cy="198.0" r="3" fill="#3fb950"/><circle cx="576.9" cy="198.0" r="3" fill="#3fb950"/><circle cx="580.5" cy="198.0" r="3" fill="#3fb950"/><circle cx="584.1" cy="198.0" r="3" fill="#3fb950"/><circle cx="587.8" cy="198.0" r="3" fill="#3fb950"/><circle cx="591.4" cy="198.0" r="3" fill="#3fb950"/><circle cx="595.0" cy="198.0" r="3" fill="#3fb950"/><circle cx="598.7" cy="198.0" r="3" fill="#3fb950"/><circle cx="602.3" cy="198.0" r="3" fill="#3fb950"/><circle cx="605.9" cy="198.0" r="3" fill="#3fb950"/><circle cx="609.5" cy="198.0" r="3" fill="#3fb950"/><circle cx="613.2" cy="198.0" r="3" fill="#3fb950"/><circle cx="616.8" cy="198.0" r="3" fill="#3fb950"/><circle cx="620.4" cy="198.0" r="3" fill="#3fb950"/><circle cx="624.1" cy="198.0" r="3" fill="#3fb950"/><circle cx="627.7" cy="198.0" r="3" fill="#3fb950"/><circle cx="631.3" cy="198.0" r="3" fill="#3fb950"/><circle cx="635.0" cy="198.0" r="3" fill="#3fb950"/><circle cx="638.6" cy="198.0" r="3" fill="#3fb950"/><circle cx="642.2" cy="198.0" r="3" fill="#3fb950"/><circle cx="645.8" cy="198.0" r="3" fill="#3fb950"/><circle cx="649.5" cy="198.0" r="3" fill="#3fb950"/><circle cx="653.1" cy="198.0" r="3" fill="#3fb950"/><circle cx="656.7" cy="198.0" r="3" fill="#3fb950"/><circle cx="660.4" cy="198.0" r="3" fill="#3fb950"/><circle cx="664.0" cy="198.0" r="3" fill="#3fb950"/>
<polyline fill="none" stroke="#4aa3ff" stroke-width="2.5" stroke-linejoin="round" points="36.0,144.3 39.6,144.3 43.3,144.3 46.9,144.3 50.5,144.3 54.2,144.3 57.8,144.3 61.4,144.3 65.0,144.3 68.7,144.3 72.3,144.3 75.9,144.3 79.6,144.3 83.2,144.3 86.8,144.3 90.5,136.2 94.1,132.4 97.7,129.6 101.3,129.6 105.0,121.0 108.6,121.0 112.2,121.0 115.9,114.4 119.5,114.4 123.1,114.4 126.8,111.3 130.4,110.9 134.0,110.9 137.6,110.5 141.3,110.5 144.9,109.9 148.5,108.7 152.2,107.3 155.8,106.9 159.4,106.9 163.1,106.9 166.7,106.9 170.3,106.9 173.9,106.9 177.6,106.9 181.2,106.9 184.8,106.9 188.5,106.9 192.1,113.2 195.7,113.2 199.4,113.2 203.0,113.2 206.6,113.2 210.2,110.7 213.9,105.3 217.5,83.4 221.1,83.4 224.8,85.6 228.4,85.6 232.0,85.6 235.7,85.6 239.3,85.6 242.9,85.8 246.5,85.8 250.2,85.8 253.8,86.0 257.4,86.0 261.1,86.0 264.7,86.0 268.3,86.0 272.0,86.0 275.6,86.0 279.2,86.0 282.8,86.0 286.5,86.0 290.1,86.0 293.7,86.0 297.4,86.0 301.0,86.0 304.6,86.0 308.3,86.0 311.9,86.0 315.5,86.0 319.1,86.0 322.8,86.0 326.4,86.0 330.0,87.0 333.7,87.0 337.3,87.0 340.9,73.7 344.6,73.7 348.2,71.0 351.8,71.0 355.4,70.8 359.1,70.6 362.7,70.6 366.3,70.4 370.0,68.6 373.6,60.5 377.2,59.3 380.9,52.0 384.5,47.3 388.1,40.1 391.7,36.0 395.4,36.0 399.0,36.0 402.6,36.0 406.3,36.0 409.9,36.0 413.5,36.0 417.2,36.0 420.8,36.0 424.4,36.0 428.0,36.0 431.7,36.0 435.3,36.0 438.9,36.0 442.6,36.0 446.2,36.0 449.8,36.0 453.5,36.0 457.1,36.0 460.7,36.0 464.3,36.0 468.0,36.0 471.6,36.0 475.2,36.0 478.9,36.0 482.5,36.0 486.1,36.0 489.8,36.0 493.4,36.0 497.0,36.0 500.6,36.0 504.3,36.0 507.9,36.0 511.5,36.0 515.2,36.0 518.8,36.0 522.4,36.0 526.1,36.0 529.7,36.0 533.3,36.0 536.9,36.0 540.6,36.0 544.2,36.0 547.8,36.0 551.5,36.0 555.1,36.0 558.7,36.0 562.4,36.0 566.0,36.0 569.6,36.0 573.2,36.0 576.9,36.0 580.5,36.0 584.1,36.0 587.8,36.0 591.4,36.0 595.0,36.0 598.7,36.0 602.3,36.0 605.9,36.0 609.5,36.0 613.2,36.0 616.8,36.0 620.4,36.0 624.1,36.0 627.7,36.0 631.3,36.0 635.0,36.0 638.6,36.0 642.2,36.0 645.8,36.0 649.5,36.0 653.1,36.0 656.7,36.0 660.4,36.0 664.0,36.0"/><circle cx="36.0" cy="144.3" r="3" fill="#4aa3ff"/><circle cx="39.6" cy="144.3" r="3" fill="#4aa3ff"/><circle cx="43.3" cy="144.3" r="3" fill="#4aa3ff"/><circle cx="46.9" cy="144.3" r="3" fill="#4aa3ff"/><circle cx="50.5" cy="144.3" r="3" fill="#4aa3ff"/><circle cx="54.2" cy="144.3" r="3" fill="#4aa3ff"/><circle cx="57.8" cy="144.3" r="3" fill="#4aa3ff"/><circle cx="61.4" cy="144.3" r="3" fill="#4aa3ff"/><circle cx="65.0" cy="144.3" r="3" fill="#4aa3ff"/><circle cx="68.7" cy="144.3" r="3" fill="#4aa3ff"/><circle cx="72.3" cy="144.3" r="3" fill="#4aa3ff"/><circle cx="75.9" cy="144.3" r="3" fill="#4aa3ff"/><circle cx="79.6" cy="144.3" r="3" fill="#4aa3ff"/><circle cx="83.2" cy="144.3" r="3" fill="#4aa3ff"/><circle cx="86.8" cy="144.3" r="3" fill="#4aa3ff"/><circle cx="90.5" cy="136.2" r="3" fill="#4aa3ff"/><circle cx="94.1" cy="132.4" r="3" fill="#4aa3ff"/><circle cx="97.7" cy="129.6" r="3" fill="#4aa3ff"/><circle cx="101.3" cy="129.6" r="3" fill="#4aa3ff"/><circle cx="105.0" cy="121.0" r="3" fill="#4aa3ff"/><circle cx="108.6" cy="121.0" r="3" fill="#4aa3ff"/><circle cx="112.2" cy="121.0" r="3" fill="#4aa3ff"/><circle cx="115.9" cy="114.4" r="3" fill="#4aa3ff"/><circle cx="119.5" cy="114.4" r="3" fill="#4aa3ff"/><circle cx="123.1" cy="114.4" r="3" fill="#4aa3ff"/><circle cx="126.8" cy="111.3" r="3" fill="#4aa3ff"/><circle cx="130.4" cy="110.9" r="3" fill="#4aa3ff"/><circle cx="134.0" cy="110.9" r="3" fill="#4aa3ff"/><circle cx="137.6" cy="110.5" r="3" fill="#4aa3ff"/><circle cx="141.3" cy="110.5" r="3" fill="#4aa3ff"/><circle cx="144.9" cy="109.9" r="3" fill="#4aa3ff"/><circle cx="148.5" cy="108.7" r="3" fill="#4aa3ff"/><circle cx="152.2" cy="107.3" r="3" fill="#4aa3ff"/><circle cx="155.8" cy="106.9" r="3" fill="#4aa3ff"/><circle cx="159.4" cy="106.9" r="3" fill="#4aa3ff"/><circle cx="163.1" cy="106.9" r="3" fill="#4aa3ff"/><circle cx="166.7" cy="106.9" r="3" fill="#4aa3ff"/><circle cx="170.3" cy="106.9" r="3" fill="#4aa3ff"/><circle cx="173.9" cy="106.9" r="3" fill="#4aa3ff"/><circle cx="177.6" cy="106.9" r="3" fill="#4aa3ff"/><circle cx="181.2" cy="106.9" r="3" fill="#4aa3ff"/><circle cx="184.8" cy="106.9" r="3" fill="#4aa3ff"/><circle cx="188.5" cy="106.9" r="3" fill="#4aa3ff"/><circle cx="192.1" cy="113.2" r="3" fill="#4aa3ff"/><circle cx="195.7" cy="113.2" r="3" fill="#4aa3ff"/><circle cx="199.4" cy="113.2" r="3" fill="#4aa3ff"/><circle cx="203.0" cy="113.2" r="3" fill="#4aa3ff"/><circle cx="206.6" cy="113.2" r="3" fill="#4aa3ff"/><circle cx="210.2" cy="110.7" r="3" fill="#4aa3ff"/><circle cx="213.9" cy="105.3" r="3" fill="#4aa3ff"/><circle cx="217.5" cy="83.4" r="3" fill="#4aa3ff"/><circle cx="221.1" cy="83.4" r="3" fill="#4aa3ff"/><circle cx="224.8" cy="85.6" r="3" fill="#4aa3ff"/><circle cx="228.4" cy="85.6" r="3" fill="#4aa3ff"/><circle cx="232.0" cy="85.6" r="3" fill="#4aa3ff"/><circle cx="235.7" cy="85.6" r="3" fill="#4aa3ff"/><circle cx="239.3" cy="85.6" r="3" fill="#4aa3ff"/><circle cx="242.9" cy="85.8" r="3" fill="#4aa3ff"/><circle cx="246.5" cy="85.8" r="3" fill="#4aa3ff"/><circle cx="250.2" cy="85.8" r="3" fill="#4aa3ff"/><circle cx="253.8" cy="86.0" r="3" fill="#4aa3ff"/><circle cx="257.4" cy="86.0" r="3" fill="#4aa3ff"/><circle cx="261.1" cy="86.0" r="3" fill="#4aa3ff"/><circle cx="264.7" cy="86.0" r="3" fill="#4aa3ff"/><circle cx="268.3" cy="86.0" r="3" fill="#4aa3ff"/><circle cx="272.0" cy="86.0" r="3" fill="#4aa3ff"/><circle cx="275.6" cy="86.0" r="3" fill="#4aa3ff"/><circle cx="279.2" cy="86.0" r="3" fill="#4aa3ff"/><circle cx="282.8" cy="86.0" r="3" fill="#4aa3ff"/><circle cx="286.5" cy="86.0" r="3" fill="#4aa3ff"/><circle cx="290.1" cy="86.0" r="3" fill="#4aa3ff"/><circle cx="293.7" cy="86.0" r="3" fill="#4aa3ff"/><circle cx="297.4" cy="86.0" r="3" fill="#4aa3ff"/><circle cx="301.0" cy="86.0" r="3" fill="#4aa3ff"/><circle cx="304.6" cy="86.0" r="3" fill="#4aa3ff"/><circle cx="308.3" cy="86.0" r="3" fill="#4aa3ff"/><circle cx="311.9" cy="86.0" r="3" fill="#4aa3ff"/><circle cx="315.5" cy="86.0" r="3" fill="#4aa3ff"/><circle cx="319.1" cy="86.0" r="3" fill="#4aa3ff"/><circle cx="322.8" cy="86.0" r="3" fill="#4aa3ff"/><circle cx="326.4" cy="86.0" r="3" fill="#4aa3ff"/><circle cx="330.0" cy="87.0" r="3" fill="#4aa3ff"/><circle cx="333.7" cy="87.0" r="3" fill="#4aa3ff"/><circle cx="337.3" cy="87.0" r="3" fill="#4aa3ff"/><circle cx="340.9" cy="73.7" r="3" fill="#4aa3ff"/><circle cx="344.6" cy="73.7" r="3" fill="#4aa3ff"/><circle cx="348.2" cy="71.0" r="3" fill="#4aa3ff"/><circle cx="351.8" cy="71.0" r="3" fill="#4aa3ff"/><circle cx="355.4" cy="70.8" r="3" fill="#4aa3ff"/><circle cx="359.1" cy="70.6" r="3" fill="#4aa3ff"/><circle cx="362.7" cy="70.6" r="3" fill="#4aa3ff"/><circle cx="366.3" cy="70.4" r="3" fill="#4aa3ff"/><circle cx="370.0" cy="68.6" r="3" fill="#4aa3ff"/><circle cx="373.6" cy="60.5" r="3" fill="#4aa3ff"/><circle cx="377.2" cy="59.3" r="3" fill="#4aa3ff"/><circle cx="380.9" cy="52.0" r="3" fill="#4aa3ff"/><circle cx="384.5" cy="47.3" r="3" fill="#4aa3ff"/><circle cx="388.1" cy="40.1" r="3" fill="#4aa3ff"/><circle cx="391.7" cy="36.0" r="3" fill="#4aa3ff"/><circle cx="395.4" cy="36.0" r="3" fill="#4aa3ff"/><circle cx="399.0" cy="36.0" r="3" fill="#4aa3ff"/><circle cx="402.6" cy="36.0" r="3" fill="#4aa3ff"/><circle cx="406.3" cy="36.0" r="3" fill="#4aa3ff"/><circle cx="409.9" cy="36.0" r="3" fill="#4aa3ff"/><circle cx="413.5" cy="36.0" r="3" fill="#4aa3ff"/><circle cx="417.2" cy="36.0" r="3" fill="#4aa3ff"/><circle cx="420.8" cy="36.0" r="3" fill="#4aa3ff"/><circle cx="424.4" cy="36.0" r="3" fill="#4aa3ff"/><circle cx="428.0" cy="36.0" r="3" fill="#4aa3ff"/><circle cx="431.7" cy="36.0" r="3" fill="#4aa3ff"/><circle cx="435.3" cy="36.0" r="3" fill="#4aa3ff"/><circle cx="438.9" cy="36.0" r="3" fill="#4aa3ff"/><circle cx="442.6" cy="36.0" r="3" fill="#4aa3ff"/><circle cx="446.2" cy="36.0" r="3" fill="#4aa3ff"/><circle cx="449.8" cy="36.0" r="3" fill="#4aa3ff"/><circle cx="453.5" cy="36.0" r="3" fill="#4aa3ff"/><circle cx="457.1" cy="36.0" r="3" fill="#4aa3ff"/><circle cx="460.7" cy="36.0" r="3" fill="#4aa3ff"/><circle cx="464.3" cy="36.0" r="3" fill="#4aa3ff"/><circle cx="468.0" cy="36.0" r="3" fill="#4aa3ff"/><circle cx="471.6" cy="36.0" r="3" fill="#4aa3ff"/><circle cx="475.2" cy="36.0" r="3" fill="#4aa3ff"/><circle cx="478.9" cy="36.0" r="3" fill="#4aa3ff"/><circle cx="482.5" cy="36.0" r="3" fill="#4aa3ff"/><circle cx="486.1" cy="36.0" r="3" fill="#4aa3ff"/><circle cx="489.8" cy="36.0" r="3" fill="#4aa3ff"/><circle cx="493.4" cy="36.0" r="3" fill="#4aa3ff"/><circle cx="497.0" cy="36.0" r="3" fill="#4aa3ff"/><circle cx="500.6" cy="36.0" r="3" fill="#4aa3ff"/><circle cx="504.3" cy="36.0" r="3" fill="#4aa3ff"/><circle cx="507.9" cy="36.0" r="3" fill="#4aa3ff"/><circle cx="511.5" cy="36.0" r="3" fill="#4aa3ff"/><circle cx="515.2" cy="36.0" r="3" fill="#4aa3ff"/><circle cx="518.8" cy="36.0" r="3" fill="#4aa3ff"/><circle cx="522.4" cy="36.0" r="3" fill="#4aa3ff"/><circle cx="526.1" cy="36.0" r="3" fill="#4aa3ff"/><circle cx="529.7" cy="36.0" r="3" fill="#4aa3ff"/><circle cx="533.3" cy="36.0" r="3" fill="#4aa3ff"/><circle cx="536.9" cy="36.0" r="3" fill="#4aa3ff"/><circle cx="540.6" cy="36.0" r="3" fill="#4aa3ff"/><circle cx="544.2" cy="36.0" r="3" fill="#4aa3ff"/><circle cx="547.8" cy="36.0" r="3" fill="#4aa3ff"/><circle cx="551.5" cy="36.0" r="3" fill="#4aa3ff"/><circle cx="555.1" cy="36.0" r="3" fill="#4aa3ff"/><circle cx="558.7" cy="36.0" r="3" fill="#4aa3ff"/><circle cx="562.4" cy="36.0" r="3" fill="#4aa3ff"/><circle cx="566.0" cy="36.0" r="3" fill="#4aa3ff"/><circle cx="569.6" cy="36.0" r="3" fill="#4aa3ff"/><circle cx="573.2" cy="36.0" r="3" fill="#4aa3ff"/><circle cx="576.9" cy="36.0" r="3" fill="#4aa3ff"/><circle cx="580.5" cy="36.0" r="3" fill="#4aa3ff"/><circle cx="584.1" cy="36.0" r="3" fill="#4aa3ff"/><circle cx="587.8" cy="36.0" r="3" fill="#4aa3ff"/><circle cx="591.4" cy="36.0" r="3" fill="#4aa3ff"/><circle cx="595.0" cy="36.0" r="3" fill="#4aa3ff"/><circle cx="598.7" cy="36.0" r="3" fill="#4aa3ff"/><circle cx="602.3" cy="36.0" r="3" fill="#4aa3ff"/><circle cx="605.9" cy="36.0" r="3" fill="#4aa3ff"/><circle cx="609.5" cy="36.0" r="3" fill="#4aa3ff"/><circle cx="613.2" cy="36.0" r="3" fill="#4aa3ff"/><circle cx="616.8" cy="36.0" r="3" fill="#4aa3ff"/><circle cx="620.4" cy="36.0" r="3" fill="#4aa3ff"/><circle cx="624.1" cy="36.0" r="3" fill="#4aa3ff"/><circle cx="627.7" cy="36.0" r="3" fill="#4aa3ff"/><circle cx="631.3" cy="36.0" r="3" fill="#4aa3ff"/><circle cx="635.0" cy="36.0" r="3" fill="#4aa3ff"/><circle cx="638.6" cy="36.0" r="3" fill="#4aa3ff"/><circle cx="642.2" cy="36.0" r="3" fill="#4aa3ff"/><circle cx="645.8" cy="36.0" r="3" fill="#4aa3ff"/><circle cx="649.5" cy="36.0" r="3" fill="#4aa3ff"/><circle cx="653.1" cy="36.0" r="3" fill="#4aa3ff"/><circle cx="656.7" cy="36.0" r="3" fill="#4aa3ff"/><circle cx="660.4" cy="36.0" r="3" fill="#4aa3ff"/><circle cx="664.0" cy="36.0" r="3" fill="#4aa3ff"/>
<text x="36" y="225" fill="#6b7280" font-size="11">2026-06-26</text>
<text x="664" y="225" fill="#6b7280" font-size="11" text-anchor="end">2026-07-14</text>
<text x="36" y="212" font-family="system-ui,sans-serif" font-size="11">
<tspan fill="#4aa3ff">&#9679; open FPs</tspan>  <tspan fill="#3fb950">&#9679; closed (Anthropic acting)</tspan>  <tspan fill="#8a5a5a">&#9679; harness withdrawn</tspan></text>
<text x="664" y="22" text-anchor="end" font-family="system-ui,sans-serif" font-size="12">
<tspan fill="#4aa3ff">open 800</tspan>  <tspan fill="#3fb950">closed 0</tspan>  <tspan fill="#8a5a5a">harness 0</tspan></text>
</svg>