<svg xmlns="http://www.w3.org/2000/svg" width="700" height="234" viewBox="0 0 700 234" role="img">
<rect width="700" height="234" rx="12" fill="#16181d"/>
<text x="36" y="22" fill="#e8eaed" font-family="system-ui,sans-serif" font-size="14" font-weight="700">Is Anthropic acting? cyber/aup false positives over time</text>
<line x1="36" y1="198.0" x2="664" y2="198.0" stroke="#2a2e37" stroke-width="1"/><text x="30" y="202.0" fill="#6b7280" font-size="11" text-anchor="end">0</text><line x1="36" y1="117.0" x2="664" y2="117.0" stroke="#2a2e37" stroke-width="1"/><text x="30" y="121.0" fill="#6b7280" font-size="11" text-anchor="end">400</text><line x1="36" y1="36.0" x2="664" y2="36.0" stroke="#2a2e37" stroke-width="1"/><text x="30" y="40.0" fill="#6b7280" font-size="11" text-anchor="end">800</text>

<polyline fill="none" stroke="#8a5a5a" stroke-width="2.5" stroke-linejoin="round" points="36.0,145.1 40.6,145.1 45.2,145.1 49.9,145.1 54.5,145.1 59.1,145.1 63.7,145.1 68.3,145.1 72.9,145.1 77.6,145.1 82.2,145.1 86.8,145.1 91.4,145.1 96.0,145.1 100.6,145.1 105.3,145.1 109.9,145.1 114.5,145.1 119.1,145.1 123.7,145.1 128.4,145.1 133.0,145.1 137.6,145.1 142.2,145.1 146.8,145.1 151.4,145.1 156.1,145.1 160.7,145.1 165.3,145.1 169.9,145.1 174.5,145.1 179.1,145.1 183.8,145.1 188.4,145.1 193.0,145.1 197.6,145.1 202.2,145.1 206.9,145.1 211.5,145.1 216.1,145.1 220.7,145.1 225.3,145.1 229.9,145.1 234.6,145.1 239.2,145.1 243.8,145.1 248.4,145.1 253.0,145.1 257.6,145.1 262.3,145.1 266.9,155.7 271.5,155.7 276.1,155.7 280.7,155.7 285.4,155.7 290.0,155.7 294.6,155.7 299.2,155.7 303.8,155.7 308.4,155.7 313.1,155.7 317.7,155.7 322.3,155.7 326.9,155.7 331.5,155.7 336.1,155.7 340.8,155.7 345.4,155.7 350.0,155.7 354.6,155.7 359.2,155.7 363.9,155.7 368.5,155.7 373.1,155.7 377.7,155.7 382.3,155.7 386.9,155.7 391.6,155.7 396.2,155.7 400.8,155.7 405.4,155.7 410.0,155.7 414.6,155.7 419.3,155.7 423.9,167.6 428.5,167.6 433.1,170.3 437.7,170.3 442.4,170.5 447.0,170.7 451.6,170.7 456.2,170.9 460.8,172.7 465.4,180.6 470.1,181.8 474.7,189.1 479.3,190.5 483.9,195.2 488.5,198.0 493.1,198.0 497.8,198.0 502.4,198.0 507.0,198.0 511.6,198.0 516.2,198.0 520.9,198.0 525.5,198.0 530.1,198.0 534.7,198.0 539.3,198.0 543.9,198.0 548.6,198.0 553.2,198.0 557.8,198.0 562.4,198.0 567.0,198.0 571.6,198.0 576.3,198.0 580.9,198.0 585.5,198.0 590.1,198.0 594.7,198.0 599.4,198.0 604.0,198.0 608.6,198.0 613.2,198.0 617.8,198.0 622.4,198.0 627.1,198.0 631.7,198.0 636.3,198.0 640.9,198.0 645.5,198.0 650.1,198.0 654.8,198.0 659.4,198.0 664.0,198.0"/><circle cx="36.0" cy="145.1" r="3" fill="#8a5a5a"/><circle cx="40.6" cy="145.1" r="3" fill="#8a5a5a"/><circle cx="45.2" cy="145.1" r="3" fill="#8a5a5a"/><circle cx="49.9" cy="145.1" r="3" fill="#8a5a5a"/><circle cx="54.5" cy="145.1" r="3" fill="#8a5a5a"/><circle cx="59.1" cy="145.1" r="3" fill="#8a5a5a"/><circle cx="63.7" cy="145.1" r="3" fill="#8a5a5a"/><circle cx="68.3" cy="145.1" r="3" fill="#8a5a5a"/><circle cx="72.9" cy="145.1" r="3" fill="#8a5a5a"/><circle cx="77.6" cy="145.1" r="3" fill="#8a5a5a"/><circle cx="82.2" cy="145.1" r="3" fill="#8a5a5a"/><circle cx="86.8" cy="145.1" r="3" fill="#8a5a5a"/><circle cx="91.4" cy="145.1" r="3" fill="#8a5a5a"/><circle cx="96.0" cy="145.1" r="3" fill="#8a5a5a"/><circle cx="100.6" cy="145.1" r="3" fill="#8a5a5a"/><circle cx="105.3" cy="145.1" r="3" fill="#8a5a5a"/><circle cx="109.9" cy="145.1" r="3" fill="#8a5a5a"/><circle cx="114.5" cy="145.1" r="3" fill="#8a5a5a"/><circle cx="119.1" cy="145.1" r="3" fill="#8a5a5a"/><circle cx="123.7" cy="145.1" r="3" fill="#8a5a5a"/><circle cx="128.4" cy="145.1" r="3" fill="#8a5a5a"/><circle cx="133.0" cy="145.1" r="3" fill="#8a5a5a"/><circle cx="137.6" cy="145.1" r="3" fill="#8a5a5a"/><circle cx="142.2" cy="145.1" r="3" fill="#8a5a5a"/><circle cx="146.8" cy="145.1" r="3" fill="#8a5a5a"/><circle cx="151.4" cy="145.1" r="3" fill="#8a5a5a"/><circle cx="156.1" cy="145.1" r="3" fill="#8a5a5a"/><circle cx="160.7" cy="145.1" r="3" fill="#8a5a5a"/><circle cx="165.3" cy="145.1" r="3" fill="#8a5a5a"/><circle cx="169.9" cy="145.1" r="3" fill="#8a5a5a"/><circle cx="174.5" cy="145.1" r="3" fill="#8a5a5a"/><circle cx="179.1" cy="145.1" r="3" fill="#8a5a5a"/><circle cx="183.8" cy="145.1" r="3" fill="#8a5a5a"/><circle cx="188.4" cy="145.1" r="3" fill="#8a5a5a"/><circle cx="193.0" cy="145.1" r="3" fill="#8a5a5a"/><circle cx="197.6" cy="145.1" r="3" fill="#8a5a5a"/><circle cx="202.2" cy="145.1" r="3" fill="#8a5a5a"/><circle cx="206.9" cy="145.1" r="3" fill="#8a5a5a"/><circle cx="211.5" cy="145.1" r="3" fill="#8a5a5a"/><circle cx="216.1" cy="145.1" r="3" fill="#8a5a5a"/><circle cx="220.7" cy="145.1" r="3" fill="#8a5a5a"/><circle cx="225.3" cy="145.1" r="3" fill="#8a5a5a"/><circle cx="229.9" cy="145.1" r="3" fill="#8a5a5a"/><circle cx="234.6" cy="145.1" r="3" fill="#8a5a5a"/><circle cx="239.2" cy="145.1" r="3" fill="#8a5a5a"/><circle cx="243.8" cy="145.1" r="3" fill="#8a5a5a"/><circle cx="248.4" cy="145.1" r="3" fill="#8a5a5a"/><circle cx="253.0" cy="145.1" r="3" fill="#8a5a5a"/><circle cx="257.6" cy="145.1" r="3" fill="#8a5a5a"/><circle cx="262.3" cy="145.1" r="3" fill="#8a5a5a"/><circle cx="266.9" cy="155.7" r="3" fill="#8a5a5a"/><circle cx="271.5" cy="155.7" r="3" fill="#8a5a5a"/><circle cx="276.1" cy="155.7" r="3" fill="#8a5a5a"/><circle cx="280.7" cy="155.7" r="3" fill="#8a5a5a"/><circle cx="285.4" cy="155.7" r="3" fill="#8a5a5a"/><circle cx="290.0" cy="155.7" r="3" fill="#8a5a5a"/><circle cx="294.6" cy="155.7" r="3" fill="#8a5a5a"/><circle cx="299.2" cy="155.7" r="3" fill="#8a5a5a"/><circle cx="303.8" cy="155.7" r="3" fill="#8a5a5a"/><circle cx="308.4" cy="155.7" r="3" fill="#8a5a5a"/><circle cx="313.1" cy="155.7" r="3" fill="#8a5a5a"/><circle cx="317.7" cy="155.7" r="3" fill="#8a5a5a"/><circle cx="322.3" cy="155.7" r="3" fill="#8a5a5a"/><circle cx="326.9" cy="155.7" r="3" fill="#8a5a5a"/><circle cx="331.5" cy="155.7" r="3" fill="#8a5a5a"/><circle cx="336.1" cy="155.7" r="3" fill="#8a5a5a"/><circle cx="340.8" cy="155.7" r="3" fill="#8a5a5a"/><circle cx="345.4" cy="155.7" r="3" fill="#8a5a5a"/><circle cx="350.0" cy="155.7" r="3" fill="#8a5a5a"/><circle cx="354.6" cy="155.7" r="3" fill="#8a5a5a"/><circle cx="359.2" cy="155.7" r="3" fill="#8a5a5a"/><circle cx="363.9" cy="155.7" r="3" fill="#8a5a5a"/><circle cx="368.5" cy="155.7" r="3" fill="#8a5a5a"/><circle cx="373.1" cy="155.7" r="3" fill="#8a5a5a"/><circle cx="377.7" cy="155.7" r="3" fill="#8a5a5a"/><circle cx="382.3" cy="155.7" r="3" fill="#8a5a5a"/><circle cx="386.9" cy="155.7" r="3" fill="#8a5a5a"/><circle cx="391.6" cy="155.7" r="3" fill="#8a5a5a"/><circle cx="396.2" cy="155.7" r="3" fill="#8a5a5a"/><circle cx="400.8" cy="155.7" r="3" fill="#8a5a5a"/><circle cx="405.4" cy="155.7" r="3" fill="#8a5a5a"/><circle cx="410.0" cy="155.7" r="3" fill="#8a5a5a"/><circle cx="414.6" cy="155.7" r="3" fill="#8a5a5a"/><circle cx="419.3" cy="155.7" r="3" fill="#8a5a5a"/><circle cx="423.9" cy="167.6" r="3" fill="#8a5a5a"/><circle cx="428.5" cy="167.6" r="3" fill="#8a5a5a"/><circle cx="433.1" cy="170.3" r="3" fill="#8a5a5a"/><circle cx="437.7" cy="170.3" r="3" fill="#8a5a5a"/><circle cx="442.4" cy="170.5" r="3" fill="#8a5a5a"/><circle cx="447.0" cy="170.7" r="3" fill="#8a5a5a"/><circle cx="451.6" cy="170.7" r="3" fill="#8a5a5a"/><circle cx="456.2" cy="170.9" r="3" fill="#8a5a5a"/><circle cx="460.8" cy="172.7" r="3" fill="#8a5a5a"/><circle cx="465.4" cy="180.6" r="3" fill="#8a5a5a"/><circle cx="470.1" cy="181.8" r="3" fill="#8a5a5a"/><circle cx="474.7" cy="189.1" r="3" fill="#8a5a5a"/><circle cx="479.3" cy="190.5" r="3" fill="#8a5a5a"/><circle cx="483.9" cy="195.2" r="3" fill="#8a5a5a"/><circle cx="488.5" cy="198.0" r="3" fill="#8a5a5a"/><circle cx="493.1" cy="198.0" r="3" fill="#8a5a5a"/><circle cx="497.8" cy="198.0" r="3" fill="#8a5a5a"/><circle cx="502.4" cy="198.0" r="3" fill="#8a5a5a"/><circle cx="507.0" cy="198.0" r="3" fill="#8a5a5a"/><circle cx="511.6" cy="198.0" r="3" fill="#8a5a5a"/><circle cx="516.2" cy="198.0" r="3" fill="#8a5a5a"/><circle cx="520.9" cy="198.0" r="3" fill="#8a5a5a"/><circle cx="525.5" cy="198.0" r="3" fill="#8a5a5a"/><circle cx="530.1" cy="198.0" r="3" fill="#8a5a5a"/><circle cx="534.7" cy="198.0" r="3" fill="#8a5a5a"/><circle cx="539.3" cy="198.0" r="3" fill="#8a5a5a"/><circle cx="543.9" cy="198.0" r="3" fill="#8a5a5a"/><circle cx="548.6" cy="198.0" r="3" fill="#8a5a5a"/><circle cx="553.2" cy="198.0" r="3" fill="#8a5a5a"/><circle cx="557.8" cy="198.0" r="3" fill="#8a5a5a"/><circle cx="562.4" cy="198.0" r="3" fill="#8a5a5a"/><circle cx="567.0" cy="198.0" r="3" fill="#8a5a5a"/><circle cx="571.6" cy="198.0" r="3" fill="#8a5a5a"/><circle cx="576.3" cy="198.0" r="3" fill="#8a5a5a"/><circle cx="580.9" cy="198.0" r="3" fill="#8a5a5a"/><circle cx="585.5" cy="198.0" r="3" fill="#8a5a5a"/><circle cx="590.1" cy="198.0" r="3" fill="#8a5a5a"/><circle cx="594.7" cy="198.0" r="3" fill="#8a5a5a"/><circle cx="599.4" cy="198.0" r="3" fill="#8a5a5a"/><circle cx="604.0" cy="198.0" r="3" fill="#8a5a5a"/><circle cx="608.6" cy="198.0" r="3" fill="#8a5a5a"/><circle cx="613.2" cy="198.0" r="3" fill="#8a5a5a"/><circle cx="617.8" cy="198.0" r="3" fill="#8a5a5a"/><circle cx="622.4" cy="198.0" r="3" fill="#8a5a5a"/><circle cx="627.1" cy="198.0" r="3" fill="#8a5a5a"/><circle cx="631.7" cy="198.0" r="3" fill="#8a5a5a"/><circle cx="636.3" cy="198.0" r="3" fill="#8a5a5a"/><circle cx="640.9" cy="198.0" r="3" fill="#8a5a5a"/><circle cx="645.5" cy="198.0" r="3" fill="#8a5a5a"/><circle cx="650.1" cy="198.0" r="3" fill="#8a5a5a"/><circle cx="654.8" cy="198.0" r="3" fill="#8a5a5a"/><circle cx="659.4" cy="198.0" r="3" fill="#8a5a5a"/><circle cx="664.0" cy="198.0" r="3" fill="#8a5a5a"/>
<polyline fill="none" stroke="#3fb950" stroke-width="2.5" stroke-linejoin="round" points="36.0,198.0 40.6,198.0 45.2,198.0 49.9,198.0 54.5,198.0 59.1,198.0 63.7,198.0 68.3,198.0 72.9,198.0 77.6,198.0 82.2,198.0 86.8,198.0 91.4,198.0 96.0,198.0 100.6,198.0 105.3,198.0 109.9,198.0 114.5,198.0 119.1,198.0 123.7,198.0 128.4,198.0 133.0,198.0 137.6,198.0 142.2,198.0 146.8,198.0 151.4,198.0 156.1,198.0 160.7,198.0 165.3,198.0 169.9,198.0 174.5,198.0 179.1,198.0 183.8,198.0 188.4,198.0 193.0,198.0 197.6,198.0 202.2,198.0 206.9,198.0 211.5,198.0 216.1,198.0 220.7,198.0 225.3,198.0 229.9,198.0 234.6,191.7 239.2,191.7 243.8,191.7 248.4,191.7 253.0,191.7 257.6,191.7 262.3,191.7 266.9,192.9 271.5,192.9 276.1,190.7 280.7,190.7 285.4,190.7 290.0,190.7 294.6,190.7 299.2,190.5 303.8,190.5 308.4,190.5 313.1,190.3 317.7,190.3 322.3,190.3 326.9,190.3 331.5,190.3 336.1,190.3 340.8,190.3 345.4,190.3 350.0,190.3 354.6,190.3 359.2,190.3 363.9,190.3 368.5,190.3 373.1,190.3 377.7,190.3 382.3,190.3 386.9,190.3 391.6,190.3 396.2,190.3 400.8,190.3 405.4,190.3 410.0,189.3 414.6,189.3 419.3,189.3 423.9,190.7 428.5,190.7 433.1,190.7 437.7,190.7 442.4,190.7 447.0,190.7 451.6,190.7 456.2,190.7 460.8,190.7 465.4,190.9 470.1,190.9 474.7,190.9 479.3,194.2 483.9,196.8 488.5,198.0 493.1,198.0 497.8,198.0 502.4,198.0 507.0,198.0 511.6,198.0 516.2,198.0 520.9,198.0 525.5,198.0 530.1,198.0 534.7,198.0 539.3,198.0 543.9,198.0 548.6,198.0 553.2,198.0 557.8,198.0 562.4,198.0 567.0,198.0 571.6,198.0 576.3,198.0 580.9,198.0 585.5,198.0 590.1,198.0 594.7,198.0 599.4,198.0 604.0,198.0 608.6,198.0 613.2,198.0 617.8,198.0 622.4,198.0 627.1,198.0 631.7,198.0 636.3,198.0 640.9,198.0 645.5,198.0 650.1,198.0 654.8,198.0 659.4,198.0 664.0,198.0"/><circle cx="36.0" cy="198.0" r="3" fill="#3fb950"/><circle cx="40.6" cy="198.0" r="3" fill="#3fb950"/><circle cx="45.2" cy="198.0" r="3" fill="#3fb950"/><circle cx="49.9" cy="198.0" r="3" fill="#3fb950"/><circle cx="54.5" cy="198.0" r="3" fill="#3fb950"/><circle cx="59.1" cy="198.0" r="3" fill="#3fb950"/><circle cx="63.7" cy="198.0" r="3" fill="#3fb950"/><circle cx="68.3" cy="198.0" r="3" fill="#3fb950"/><circle cx="72.9" cy="198.0" r="3" fill="#3fb950"/><circle cx="77.6" cy="198.0" r="3" fill="#3fb950"/><circle cx="82.2" cy="198.0" r="3" fill="#3fb950"/><circle cx="86.8" cy="198.0" r="3" fill="#3fb950"/><circle cx="91.4" cy="198.0" r="3" fill="#3fb950"/><circle cx="96.0" cy="198.0" r="3" fill="#3fb950"/><circle cx="100.6" cy="198.0" r="3" fill="#3fb950"/><circle cx="105.3" cy="198.0" r="3" fill="#3fb950"/><circle cx="109.9" cy="198.0" r="3" fill="#3fb950"/><circle cx="114.5" cy="198.0" r="3" fill="#3fb950"/><circle cx="119.1" cy="198.0" r="3" fill="#3fb950"/><circle cx="123.7" cy="198.0" r="3" fill="#3fb950"/><circle cx="128.4" cy="198.0" r="3" fill="#3fb950"/><circle cx="133.0" cy="198.0" r="3" fill="#3fb950"/><circle cx="137.6" cy="198.0" r="3" fill="#3fb950"/><circle cx="142.2" cy="198.0" r="3" fill="#3fb950"/><circle cx="146.8" cy="198.0" r="3" fill="#3fb950"/><circle cx="151.4" cy="198.0" r="3" fill="#3fb950"/><circle cx="156.1" cy="198.0" r="3" fill="#3fb950"/><circle cx="160.7" cy="198.0" r="3" fill="#3fb950"/><circle cx="165.3" cy="198.0" r="3" fill="#3fb950"/><circle cx="169.9" cy="198.0" r="3" fill="#3fb950"/><circle cx="174.5" cy="198.0" r="3" fill="#3fb950"/><circle cx="179.1" cy="198.0" r="3" fill="#3fb950"/><circle cx="183.8" cy="198.0" r="3" fill="#3fb950"/><circle cx="188.4" cy="198.0" r="3" fill="#3fb950"/><circle cx="193.0" cy="198.0" r="3" fill="#3fb950"/><circle cx="197.6" cy="198.0" r="3" fill="#3fb950"/><circle cx="202.2" cy="198.0" r="3" fill="#3fb950"/><circle cx="206.9" cy="198.0" r="3" fill="#3fb950"/><circle cx="211.5" cy="198.0" r="3" fill="#3fb950"/><circle cx="216.1" cy="198.0" r="3" fill="#3fb950"/><circle cx="220.7" cy="198.0" r="3" fill="#3fb950"/><circle cx="225.3" cy="198.0" r="3" fill="#3fb950"/><circle cx="229.9" cy="198.0" r="3" fill="#3fb950"/><circle cx="234.6" cy="191.7" r="3" fill="#3fb950"/><circle cx="239.2" cy="191.7" r="3" fill="#3fb950"/><circle cx="243.8" cy="191.7" r="3" fill="#3fb950"/><circle cx="248.4" cy="191.7" r="3" fill="#3fb950"/><circle cx="253.0" cy="191.7" r="3" fill="#3fb950"/><circle cx="257.6" cy="191.7" r="3" fill="#3fb950"/><circle cx="262.3" cy="191.7" r="3" fill="#3fb950"/><circle cx="266.9" cy="192.9" r="3" fill="#3fb950"/><circle cx="271.5" cy="192.9" r="3" fill="#3fb950"/><circle cx="276.1" cy="190.7" r="3" fill="#3fb950"/><circle cx="280.7" cy="190.7" r="3" fill="#3fb950"/><circle cx="285.4" cy="190.7" r="3" fill="#3fb950"/><circle cx="290.0" cy="190.7" r="3" fill="#3fb950"/><circle cx="294.6" cy="190.7" r="3" fill="#3fb950"/><circle cx="299.2" cy="190.5" r="3" fill="#3fb950"/><circle cx="303.8" cy="190.5" r="3" fill="#3fb950"/><circle cx="308.4" cy="190.5" r="3" fill="#3fb950"/><circle cx="313.1" cy="190.3" r="3" fill="#3fb950"/><circle cx="317.7" cy="190.3" r="3" fill="#3fb950"/><circle cx="322.3" cy="190.3" r="3" fill="#3fb950"/><circle cx="326.9" cy="190.3" r="3" fill="#3fb950"/><circle cx="331.5" cy="190.3" r="3" fill="#3fb950"/><circle cx="336.1" cy="190.3" r="3" fill="#3fb950"/><circle cx="340.8" cy="190.3" r="3" fill="#3fb950"/><circle cx="345.4" cy="190.3" r="3" fill="#3fb950"/><circle cx="350.0" cy="190.3" r="3" fill="#3fb950"/><circle cx="354.6" cy="190.3" r="3" fill="#3fb950"/><circle cx="359.2" cy="190.3" r="3" fill="#3fb950"/><circle cx="363.9" cy="190.3" r="3" fill="#3fb950"/><circle cx="368.5" cy="190.3" r="3" fill="#3fb950"/><circle cx="373.1" cy="190.3" r="3" fill="#3fb950"/><circle cx="377.7" cy="190.3" r="3" fill="#3fb950"/><circle cx="382.3" cy="190.3" r="3" fill="#3fb950"/><circle cx="386.9" cy="190.3" r="3" fill="#3fb950"/><circle cx="391.6" cy="190.3" r="3" fill="#3fb950"/><circle cx="396.2" cy="190.3" r="3" fill="#3fb950"/><circle cx="400.8" cy="190.3" r="3" fill="#3fb950"/><circle cx="405.4" cy="190.3" r="3" fill="#3fb950"/><circle cx="410.0" cy="189.3" r="3" fill="#3fb950"/><circle cx="414.6" cy="189.3" r="3" fill="#3fb950"/><circle cx="419.3" cy="189.3" r="3" fill="#3fb950"/><circle cx="423.9" cy="190.7" r="3" fill="#3fb950"/><circle cx="428.5" cy="190.7" r="3" fill="#3fb950"/><circle cx="433.1" cy="190.7" r="3" fill="#3fb950"/><circle cx="437.7" cy="190.7" r="3" fill="#3fb950"/><circle cx="442.4" cy="190.7" r="3" fill="#3fb950"/><circle cx="447.0" cy="190.7" r="3" fill="#3fb950"/><circle cx="451.6" cy="190.7" r="3" fill="#3fb950"/><circle cx="456.2" cy="190.7" r="3" fill="#3fb950"/><circle cx="460.8" cy="190.7" r="3" fill="#3fb950"/><circle cx="465.4" cy="190.9" r="3" fill="#3fb950"/><circle cx="470.1" cy="190.9" r="3" fill="#3fb950"/><circle cx="474.7" cy="190.9" r="3" fill="#3fb950"/><circle cx="479.3" cy="194.2" r="3" fill="#3fb950"/><circle cx="483.9" cy="196.8" r="3" fill="#3fb950"/><circle cx="488.5" cy="198.0" r="3" fill="#3fb950"/><circle cx="493.1" cy="198.0" r="3" fill="#3fb950"/><circle cx="497.8" cy="198.0" r="3" fill="#3fb950"/><circle cx="502.4" cy="198.0" r="3" fill="#3fb950"/><circle cx="507.0" cy="198.0" r="3" fill="#3fb950"/><circle cx="511.6" cy="198.0" r="3" fill="#3fb950"/><circle cx="516.2" cy="198.0" r="3" fill="#3fb950"/><circle cx="520.9" cy="198.0" r="3" fill="#3fb950"/><circle cx="525.5" cy="198.0" r="3" fill="#3fb950"/><circle cx="530.1" cy="198.0" r="3" fill="#3fb950"/><circle cx="534.7" cy="198.0" r="3" fill="#3fb950"/><circle cx="539.3" cy="198.0" r="3" fill="#3fb950"/><circle cx="543.9" cy="198.0" r="3" fill="#3fb950"/><circle cx="548.6" cy="198.0" r="3" fill="#3fb950"/><circle cx="553.2" cy="198.0" r="3" fill="#3fb950"/><circle cx="557.8" cy="198.0" r="3" fill="#3fb950"/><circle cx="562.4" cy="198.0" r="3" fill="#3fb950"/><circle cx="567.0" cy="198.0" r="3" fill="#3fb950"/><circle cx="571.6" cy="198.0" r="3" fill="#3fb950"/><circle cx="576.3" cy="198.0" r="3" fill="#3fb950"/><circle cx="580.9" cy="198.0" r="3" fill="#3fb950"/><circle cx="585.5" cy="198.0" r="3" fill="#3fb950"/><circle cx="590.1" cy="198.0" r="3" fill="#3fb950"/><circle cx="594.7" cy="198.0" r="3" fill="#3fb950"/><circle cx="599.4" cy="198.0" r="3" fill="#3fb950"/><circle cx="604.0" cy="198.0" r="3" fill="#3fb950"/><circle cx="608.6" cy="198.0" r="3" fill="#3fb950"/><circle cx="613.2" cy="198.0" r="3" fill="#3fb950"/><circle cx="617.8" cy="198.0" r="3" fill="#3fb950"/><circle cx="622.4" cy="198.0" r="3" fill="#3fb950"/><circle cx="627.1" cy="198.0" r="3" fill="#3fb950"/><circle cx="631.7" cy="198.0" r="3" fill="#3fb950"/><circle cx="636.3" cy="198.0" r="3" fill="#3fb950"/><circle cx="640.9" cy="198.0" r="3" fill="#3fb950"/><circle cx="645.5" cy="198.0" r="3" fill="#3fb950"/><circle cx="650.1" cy="198.0" r="3" fill="#3fb950"/><circle cx="654.8" cy="198.0" r="3" fill="#3fb950"/><circle cx="659.4" cy="198.0" r="3" fill="#3fb950"/><circle cx="664.0" cy="198.0" r="3" fill="#3fb950"/>
<polyline fill="none" stroke="#4aa3ff" stroke-width="2.5" stroke-linejoin="round" points="36.0,144.3 40.6,144.3 45.2,144.3 49.9,144.3 54.5,144.3 59.1,144.3 63.7,144.3 68.3,144.3 72.9,144.3 77.6,144.3 82.2,144.3 86.8,144.3 91.4,144.3 96.0,144.3 100.6,144.3 105.3,136.2 109.9,132.4 114.5,129.6 119.1,129.6 123.7,121.0 128.4,121.0 133.0,121.0 137.6,114.4 142.2,114.4 146.8,114.4 151.4,111.3 156.1,110.9 160.7,110.9 165.3,110.5 169.9,110.5 174.5,109.9 179.1,108.7 183.8,107.3 188.4,106.9 193.0,106.9 197.6,106.9 202.2,106.9 206.9,106.9 211.5,106.9 216.1,106.9 220.7,106.9 225.3,106.9 229.9,106.9 234.6,113.2 239.2,113.2 243.8,113.2 248.4,113.2 253.0,113.2 257.6,110.7 262.3,105.3 266.9,83.4 271.5,83.4 276.1,85.6 280.7,85.6 285.4,85.6 290.0,85.6 294.6,85.6 299.2,85.8 303.8,85.8 308.4,85.8 313.1,86.0 317.7,86.0 322.3,86.0 326.9,86.0 331.5,86.0 336.1,86.0 340.8,86.0 345.4,86.0 350.0,86.0 354.6,86.0 359.2,86.0 363.9,86.0 368.5,86.0 373.1,86.0 377.7,86.0 382.3,86.0 386.9,86.0 391.6,86.0 396.2,86.0 400.8,86.0 405.4,86.0 410.0,87.0 414.6,87.0 419.3,87.0 423.9,73.7 428.5,73.7 433.1,71.0 437.7,71.0 442.4,70.8 447.0,70.6 451.6,70.6 456.2,70.4 460.8,68.6 465.4,60.5 470.1,59.3 474.7,52.0 479.3,47.3 483.9,40.1 488.5,36.0 493.1,36.0 497.8,36.0 502.4,36.0 507.0,36.0 511.6,36.0 516.2,36.0 520.9,36.0 525.5,36.0 530.1,36.0 534.7,36.0 539.3,36.0 543.9,36.0 548.6,36.0 553.2,36.0 557.8,36.0 562.4,36.0 567.0,36.0 571.6,36.0 576.3,36.0 580.9,36.0 585.5,36.0 590.1,36.0 594.7,36.0 599.4,36.0 604.0,36.0 608.6,36.0 613.2,36.0 617.8,36.0 622.4,36.0 627.1,36.0 631.7,36.0 636.3,36.0 640.9,36.0 645.5,36.0 650.1,36.0 654.8,36.0 659.4,36.0 664.0,36.0"/><circle cx="36.0" cy="144.3" r="3" fill="#4aa3ff"/><circle cx="40.6" cy="144.3" r="3" fill="#4aa3ff"/><circle cx="45.2" cy="144.3" r="3" fill="#4aa3ff"/><circle cx="49.9" cy="144.3" r="3" fill="#4aa3ff"/><circle cx="54.5" cy="144.3" r="3" fill="#4aa3ff"/><circle cx="59.1" cy="144.3" r="3" fill="#4aa3ff"/><circle cx="63.7" cy="144.3" r="3" fill="#4aa3ff"/><circle cx="68.3" cy="144.3" r="3" fill="#4aa3ff"/><circle cx="72.9" cy="144.3" r="3" fill="#4aa3ff"/><circle cx="77.6" cy="144.3" r="3" fill="#4aa3ff"/><circle cx="82.2" cy="144.3" r="3" fill="#4aa3ff"/><circle cx="86.8" cy="144.3" r="3" fill="#4aa3ff"/><circle cx="91.4" cy="144.3" r="3" fill="#4aa3ff"/><circle cx="96.0" cy="144.3" r="3" fill="#4aa3ff"/><circle cx="100.6" cy="144.3" r="3" fill="#4aa3ff"/><circle cx="105.3" cy="136.2" r="3" fill="#4aa3ff"/><circle cx="109.9" cy="132.4" r="3" fill="#4aa3ff"/><circle cx="114.5" cy="129.6" r="3" fill="#4aa3ff"/><circle cx="119.1" cy="129.6" r="3" fill="#4aa3ff"/><circle cx="123.7" cy="121.0" r="3" fill="#4aa3ff"/><circle cx="128.4" cy="121.0" r="3" fill="#4aa3ff"/><circle cx="133.0" cy="121.0" r="3" fill="#4aa3ff"/><circle cx="137.6" cy="114.4" r="3" fill="#4aa3ff"/><circle cx="142.2" cy="114.4" r="3" fill="#4aa3ff"/><circle cx="146.8" cy="114.4" r="3" fill="#4aa3ff"/><circle cx="151.4" cy="111.3" r="3" fill="#4aa3ff"/><circle cx="156.1" cy="110.9" r="3" fill="#4aa3ff"/><circle cx="160.7" cy="110.9" r="3" fill="#4aa3ff"/><circle cx="165.3" cy="110.5" r="3" fill="#4aa3ff"/><circle cx="169.9" cy="110.5" r="3" fill="#4aa3ff"/><circle cx="174.5" cy="109.9" r="3" fill="#4aa3ff"/><circle cx="179.1" cy="108.7" r="3" fill="#4aa3ff"/><circle cx="183.8" cy="107.3" r="3" fill="#4aa3ff"/><circle cx="188.4" cy="106.9" r="3" fill="#4aa3ff"/><circle cx="193.0" cy="106.9" r="3" fill="#4aa3ff"/><circle cx="197.6" cy="106.9" r="3" fill="#4aa3ff"/><circle cx="202.2" cy="106.9" r="3" fill="#4aa3ff"/><circle cx="206.9" cy="106.9" r="3" fill="#4aa3ff"/><circle cx="211.5" cy="106.9" r="3" fill="#4aa3ff"/><circle cx="216.1" cy="106.9" r="3" fill="#4aa3ff"/><circle cx="220.7" cy="106.9" r="3" fill="#4aa3ff"/><circle cx="225.3" cy="106.9" r="3" fill="#4aa3ff"/><circle cx="229.9" cy="106.9" r="3" fill="#4aa3ff"/><circle cx="234.6" cy="113.2" r="3" fill="#4aa3ff"/><circle cx="239.2" cy="113.2" r="3" fill="#4aa3ff"/><circle cx="243.8" cy="113.2" r="3" fill="#4aa3ff"/><circle cx="248.4" cy="113.2" r="3" fill="#4aa3ff"/><circle cx="253.0" cy="113.2" r="3" fill="#4aa3ff"/><circle cx="257.6" cy="110.7" r="3" fill="#4aa3ff"/><circle cx="262.3" cy="105.3" r="3" fill="#4aa3ff"/><circle cx="266.9" cy="83.4" r="3" fill="#4aa3ff"/><circle cx="271.5" cy="83.4" r="3" fill="#4aa3ff"/><circle cx="276.1" cy="85.6" r="3" fill="#4aa3ff"/><circle cx="280.7" cy="85.6" r="3" fill="#4aa3ff"/><circle cx="285.4" cy="85.6" r="3" fill="#4aa3ff"/><circle cx="290.0" cy="85.6" r="3" fill="#4aa3ff"/><circle cx="294.6" cy="85.6" r="3" fill="#4aa3ff"/><circle cx="299.2" cy="85.8" r="3" fill="#4aa3ff"/><circle cx="303.8" cy="85.8" r="3" fill="#4aa3ff"/><circle cx="308.4" cy="85.8" r="3" fill="#4aa3ff"/><circle cx="313.1" cy="86.0" r="3" fill="#4aa3ff"/><circle cx="317.7" cy="86.0" r="3" fill="#4aa3ff"/><circle cx="322.3" cy="86.0" r="3" fill="#4aa3ff"/><circle cx="326.9" cy="86.0" r="3" fill="#4aa3ff"/><circle cx="331.5" cy="86.0" r="3" fill="#4aa3ff"/><circle cx="336.1" cy="86.0" r="3" fill="#4aa3ff"/><circle cx="340.8" cy="86.0" r="3" fill="#4aa3ff"/><circle cx="345.4" cy="86.0" r="3" fill="#4aa3ff"/><circle cx="350.0" cy="86.0" r="3" fill="#4aa3ff"/><circle cx="354.6" cy="86.0" r="3" fill="#4aa3ff"/><circle cx="359.2" cy="86.0" r="3" fill="#4aa3ff"/><circle cx="363.9" cy="86.0" r="3" fill="#4aa3ff"/><circle cx="368.5" cy="86.0" r="3" fill="#4aa3ff"/><circle cx="373.1" cy="86.0" r="3" fill="#4aa3ff"/><circle cx="377.7" cy="86.0" r="3" fill="#4aa3ff"/><circle cx="382.3" cy="86.0" r="3" fill="#4aa3ff"/><circle cx="386.9" cy="86.0" r="3" fill="#4aa3ff"/><circle cx="391.6" cy="86.0" r="3" fill="#4aa3ff"/><circle cx="396.2" cy="86.0" r="3" fill="#4aa3ff"/><circle cx="400.8" cy="86.0" r="3" fill="#4aa3ff"/><circle cx="405.4" cy="86.0" r="3" fill="#4aa3ff"/><circle cx="410.0" cy="87.0" r="3" fill="#4aa3ff"/><circle cx="414.6" cy="87.0" r="3" fill="#4aa3ff"/><circle cx="419.3" cy="87.0" r="3" fill="#4aa3ff"/><circle cx="423.9" cy="73.7" r="3" fill="#4aa3ff"/><circle cx="428.5" cy="73.7" r="3" fill="#4aa3ff"/><circle cx="433.1" cy="71.0" r="3" fill="#4aa3ff"/><circle cx="437.7" cy="71.0" r="3" fill="#4aa3ff"/><circle cx="442.4" cy="70.8" r="3" fill="#4aa3ff"/><circle cx="447.0" cy="70.6" r="3" fill="#4aa3ff"/><circle cx="451.6" cy="70.6" r="3" fill="#4aa3ff"/><circle cx="456.2" cy="70.4" r="3" fill="#4aa3ff"/><circle cx="460.8" cy="68.6" r="3" fill="#4aa3ff"/><circle cx="465.4" cy="60.5" r="3" fill="#4aa3ff"/><circle cx="470.1" cy="59.3" r="3" fill="#4aa3ff"/><circle cx="474.7" cy="52.0" r="3" fill="#4aa3ff"/><circle cx="479.3" cy="47.3" r="3" fill="#4aa3ff"/><circle cx="483.9" cy="40.1" r="3" fill="#4aa3ff"/><circle cx="488.5" cy="36.0" r="3" fill="#4aa3ff"/><circle cx="493.1" cy="36.0" r="3" fill="#4aa3ff"/><circle cx="497.8" cy="36.0" r="3" fill="#4aa3ff"/><circle cx="502.4" cy="36.0" r="3" fill="#4aa3ff"/><circle cx="507.0" cy="36.0" r="3" fill="#4aa3ff"/><circle cx="511.6" cy="36.0" r="3" fill="#4aa3ff"/><circle cx="516.2" cy="36.0" r="3" fill="#4aa3ff"/><circle cx="520.9" cy="36.0" r="3" fill="#4aa3ff"/><circle cx="525.5" cy="36.0" r="3" fill="#4aa3ff"/><circle cx="530.1" cy="36.0" r="3" fill="#4aa3ff"/><circle cx="534.7" cy="36.0" r="3" fill="#4aa3ff"/><circle cx="539.3" cy="36.0" r="3" fill="#4aa3ff"/><circle cx="543.9" cy="36.0" r="3" fill="#4aa3ff"/><circle cx="548.6" cy="36.0" r="3" fill="#4aa3ff"/><circle cx="553.2" cy="36.0" r="3" fill="#4aa3ff"/><circle cx="557.8" cy="36.0" r="3" fill="#4aa3ff"/><circle cx="562.4" cy="36.0" r="3" fill="#4aa3ff"/><circle cx="567.0" cy="36.0" r="3" fill="#4aa3ff"/><circle cx="571.6" cy="36.0" r="3" fill="#4aa3ff"/><circle cx="576.3" cy="36.0" r="3" fill="#4aa3ff"/><circle cx="580.9" cy="36.0" r="3" fill="#4aa3ff"/><circle cx="585.5" cy="36.0" r="3" fill="#4aa3ff"/><circle cx="590.1" cy="36.0" r="3" fill="#4aa3ff"/><circle cx="594.7" cy="36.0" r="3" fill="#4aa3ff"/><circle cx="599.4" cy="36.0" r="3" fill="#4aa3ff"/><circle cx="604.0" cy="36.0" r="3" fill="#4aa3ff"/><circle cx="608.6" cy="36.0" r="3" fill="#4aa3ff"/><circle cx="613.2" cy="36.0" r="3" fill="#4aa3ff"/><circle cx="617.8" cy="36.0" r="3" fill="#4aa3ff"/><circle cx="622.4" cy="36.0" r="3" fill="#4aa3ff"/><circle cx="627.1" cy="36.0" r="3" fill="#4aa3ff"/><circle cx="631.7" cy="36.0" r="3" fill="#4aa3ff"/><circle cx="636.3" cy="36.0" r="3" fill="#4aa3ff"/><circle cx="640.9" cy="36.0" r="3" fill="#4aa3ff"/><circle cx="645.5" cy="36.0" r="3" fill="#4aa3ff"/><circle cx="650.1" cy="36.0" r="3" fill="#4aa3ff"/><circle cx="654.8" cy="36.0" r="3" fill="#4aa3ff"/><circle cx="659.4" cy="36.0" r="3" fill="#4aa3ff"/><circle cx="664.0" cy="36.0" r="3" fill="#4aa3ff"/>
<text x="36" y="225" fill="#6b7280" font-size="11">2026-06-26</text>
<text x="664" y="225" fill="#6b7280" font-size="11" text-anchor="end">2026-07-11</text>
<text x="36" y="212" font-family="system-ui,sans-serif" font-size="11">
<tspan fill="#4aa3ff">&#9679; open FPs</tspan>  <tspan fill="#3fb950">&#9679; closed (Anthropic acting)</tspan>  <tspan fill="#8a5a5a">&#9679; harness withdrawn</tspan></text>
<text x="664" y="22" text-anchor="end" font-family="system-ui,sans-serif" font-size="12">
<tspan fill="#4aa3ff">open 800</tspan>  <tspan fill="#3fb950">closed 0</tspan>  <tspan fill="#8a5a5a">harness 0</tspan></text>
</svg>