<svg xmlns="http://www.w3.org/2000/svg" width="700" height="234" viewBox="0 0 700 234" role="img">
<rect width="700" height="234" rx="12" fill="#16181d"/>
<text x="36" y="22" fill="#e8eaed" font-family="system-ui,sans-serif" font-size="14" font-weight="700">Is Anthropic acting? cyber/aup false positives over time</text>
<line x1="36" y1="198.0" x2="664" y2="198.0" stroke="#2a2e37" stroke-width="1"/><text x="30" y="202.0" fill="#6b7280" font-size="11" text-anchor="end">0</text><line x1="36" y1="117.0" x2="664" y2="117.0" stroke="#2a2e37" stroke-width="1"/><text x="30" y="121.0" fill="#6b7280" font-size="11" text-anchor="end">400</text><line x1="36" y1="36.0" x2="664" y2="36.0" stroke="#2a2e37" stroke-width="1"/><text x="30" y="40.0" fill="#6b7280" font-size="11" text-anchor="end">800</text>

<polyline fill="none" stroke="#8a5a5a" stroke-width="2.5" stroke-linejoin="round" points="36.0,145.1 41.7,145.1 47.3,145.1 53.0,145.1 58.6,145.1 64.3,145.1 69.9,145.1 75.6,145.1 81.3,145.1 86.9,145.1 92.6,145.1 98.2,145.1 103.9,145.1 109.5,145.1 115.2,145.1 120.9,145.1 126.5,145.1 132.2,145.1 137.8,145.1 143.5,145.1 149.2,145.1 154.8,145.1 160.5,145.1 166.1,145.1 171.8,145.1 177.4,145.1 183.1,145.1 188.8,145.1 194.4,145.1 200.1,145.1 205.7,145.1 211.4,145.1 217.0,145.1 222.7,145.1 228.4,145.1 234.0,145.1 239.7,145.1 245.3,145.1 251.0,145.1 256.6,145.1 262.3,145.1 268.0,145.1 273.6,145.1 279.3,145.1 284.9,145.1 290.6,145.1 296.3,145.1 301.9,145.1 307.6,145.1 313.2,145.1 318.9,155.7 324.5,155.7 330.2,155.7 335.9,155.7 341.5,155.7 347.2,155.7 352.8,155.7 358.5,155.7 364.1,155.7 369.8,155.7 375.5,155.7 381.1,155.7 386.8,155.7 392.4,155.7 398.1,155.7 403.7,155.7 409.4,155.7 415.1,155.7 420.7,155.7 426.4,155.7 432.0,155.7 437.7,155.7 443.4,155.7 449.0,155.7 454.7,155.7 460.3,155.7 466.0,155.7 471.6,155.7 477.3,155.7 483.0,155.7 488.6,155.7 494.3,155.7 499.9,155.7 505.6,155.7 511.2,167.6 516.9,167.6 522.6,170.3 528.2,170.3 533.9,170.5 539.5,170.7 545.2,170.7 550.8,170.9 556.5,172.7 562.2,180.6 567.8,181.8 573.5,189.1 579.1,190.5 584.8,195.2 590.5,198.0 596.1,198.0 601.8,198.0 607.4,198.0 613.1,198.0 618.7,198.0 624.4,198.0 630.1,198.0 635.7,198.0 641.4,198.0 647.0,198.0 652.7,198.0 658.3,198.0 664.0,198.0"/><circle cx="36.0" cy="145.1" r="3" fill="#8a5a5a"/><circle cx="41.7" cy="145.1" r="3" fill="#8a5a5a"/><circle cx="47.3" cy="145.1" r="3" fill="#8a5a5a"/><circle cx="53.0" cy="145.1" r="3" fill="#8a5a5a"/><circle cx="58.6" cy="145.1" r="3" fill="#8a5a5a"/><circle cx="64.3" cy="145.1" r="3" fill="#8a5a5a"/><circle cx="69.9" cy="145.1" r="3" fill="#8a5a5a"/><circle cx="75.6" cy="145.1" r="3" fill="#8a5a5a"/><circle cx="81.3" cy="145.1" r="3" fill="#8a5a5a"/><circle cx="86.9" cy="145.1" r="3" fill="#8a5a5a"/><circle cx="92.6" cy="145.1" r="3" fill="#8a5a5a"/><circle cx="98.2" cy="145.1" r="3" fill="#8a5a5a"/><circle cx="103.9" cy="145.1" r="3" fill="#8a5a5a"/><circle cx="109.5" cy="145.1" r="3" fill="#8a5a5a"/><circle cx="115.2" cy="145.1" r="3" fill="#8a5a5a"/><circle cx="120.9" cy="145.1" r="3" fill="#8a5a5a"/><circle cx="126.5" cy="145.1" r="3" fill="#8a5a5a"/><circle cx="132.2" cy="145.1" r="3" fill="#8a5a5a"/><circle cx="137.8" cy="145.1" r="3" fill="#8a5a5a"/><circle cx="143.5" cy="145.1" r="3" fill="#8a5a5a"/><circle cx="149.2" cy="145.1" r="3" fill="#8a5a5a"/><circle cx="154.8" cy="145.1" r="3" fill="#8a5a5a"/><circle cx="160.5" cy="145.1" r="3" fill="#8a5a5a"/><circle cx="166.1" cy="145.1" r="3" fill="#8a5a5a"/><circle cx="171.8" cy="145.1" r="3" fill="#8a5a5a"/><circle cx="177.4" cy="145.1" r="3" fill="#8a5a5a"/><circle cx="183.1" cy="145.1" r="3" fill="#8a5a5a"/><circle cx="188.8" cy="145.1" r="3" fill="#8a5a5a"/><circle cx="194.4" cy="145.1" r="3" fill="#8a5a5a"/><circle cx="200.1" cy="145.1" r="3" fill="#8a5a5a"/><circle cx="205.7" cy="145.1" r="3" fill="#8a5a5a"/><circle cx="211.4" cy="145.1" r="3" fill="#8a5a5a"/><circle cx="217.0" cy="145.1" r="3" fill="#8a5a5a"/><circle cx="222.7" cy="145.1" r="3" fill="#8a5a5a"/><circle cx="228.4" cy="145.1" r="3" fill="#8a5a5a"/><circle cx="234.0" cy="145.1" r="3" fill="#8a5a5a"/><circle cx="239.7" cy="145.1" r="3" fill="#8a5a5a"/><circle cx="245.3" cy="145.1" r="3" fill="#8a5a5a"/><circle cx="251.0" cy="145.1" r="3" fill="#8a5a5a"/><circle cx="256.6" cy="145.1" r="3" fill="#8a5a5a"/><circle cx="262.3" cy="145.1" r="3" fill="#8a5a5a"/><circle cx="268.0" cy="145.1" r="3" fill="#8a5a5a"/><circle cx="273.6" cy="145.1" r="3" fill="#8a5a5a"/><circle cx="279.3" cy="145.1" r="3" fill="#8a5a5a"/><circle cx="284.9" cy="145.1" r="3" fill="#8a5a5a"/><circle cx="290.6" cy="145.1" r="3" fill="#8a5a5a"/><circle cx="296.3" cy="145.1" r="3" fill="#8a5a5a"/><circle cx="301.9" cy="145.1" r="3" fill="#8a5a5a"/><circle cx="307.6" cy="145.1" r="3" fill="#8a5a5a"/><circle cx="313.2" cy="145.1" r="3" fill="#8a5a5a"/><circle cx="318.9" cy="155.7" r="3" fill="#8a5a5a"/><circle cx="324.5" cy="155.7" r="3" fill="#8a5a5a"/><circle cx="330.2" cy="155.7" r="3" fill="#8a5a5a"/><circle cx="335.9" cy="155.7" r="3" fill="#8a5a5a"/><circle cx="341.5" cy="155.7" r="3" fill="#8a5a5a"/><circle cx="347.2" cy="155.7" r="3" fill="#8a5a5a"/><circle cx="352.8" cy="155.7" r="3" fill="#8a5a5a"/><circle cx="358.5" cy="155.7" r="3" fill="#8a5a5a"/><circle cx="364.1" cy="155.7" r="3" fill="#8a5a5a"/><circle cx="369.8" cy="155.7" r="3" fill="#8a5a5a"/><circle cx="375.5" cy="155.7" r="3" fill="#8a5a5a"/><circle cx="381.1" cy="155.7" r="3" fill="#8a5a5a"/><circle cx="386.8" cy="155.7" r="3" fill="#8a5a5a"/><circle cx="392.4" cy="155.7" r="3" fill="#8a5a5a"/><circle cx="398.1" cy="155.7" r="3" fill="#8a5a5a"/><circle cx="403.7" cy="155.7" r="3" fill="#8a5a5a"/><circle cx="409.4" cy="155.7" r="3" fill="#8a5a5a"/><circle cx="415.1" cy="155.7" r="3" fill="#8a5a5a"/><circle cx="420.7" cy="155.7" r="3" fill="#8a5a5a"/><circle cx="426.4" cy="155.7" r="3" fill="#8a5a5a"/><circle cx="432.0" cy="155.7" r="3" fill="#8a5a5a"/><circle cx="437.7" cy="155.7" r="3" fill="#8a5a5a"/><circle cx="443.4" cy="155.7" r="3" fill="#8a5a5a"/><circle cx="449.0" cy="155.7" r="3" fill="#8a5a5a"/><circle cx="454.7" cy="155.7" r="3" fill="#8a5a5a"/><circle cx="460.3" cy="155.7" r="3" fill="#8a5a5a"/><circle cx="466.0" cy="155.7" r="3" fill="#8a5a5a"/><circle cx="471.6" cy="155.7" r="3" fill="#8a5a5a"/><circle cx="477.3" cy="155.7" r="3" fill="#8a5a5a"/><circle cx="483.0" cy="155.7" r="3" fill="#8a5a5a"/><circle cx="488.6" cy="155.7" r="3" fill="#8a5a5a"/><circle cx="494.3" cy="155.7" r="3" fill="#8a5a5a"/><circle cx="499.9" cy="155.7" r="3" fill="#8a5a5a"/><circle cx="505.6" cy="155.7" r="3" fill="#8a5a5a"/><circle cx="511.2" cy="167.6" r="3" fill="#8a5a5a"/><circle cx="516.9" cy="167.6" r="3" fill="#8a5a5a"/><circle cx="522.6" cy="170.3" r="3" fill="#8a5a5a"/><circle cx="528.2" cy="170.3" r="3" fill="#8a5a5a"/><circle cx="533.9" cy="170.5" r="3" fill="#8a5a5a"/><circle cx="539.5" cy="170.7" r="3" fill="#8a5a5a"/><circle cx="545.2" cy="170.7" r="3" fill="#8a5a5a"/><circle cx="550.8" cy="170.9" r="3" fill="#8a5a5a"/><circle cx="556.5" cy="172.7" r="3" fill="#8a5a5a"/><circle cx="562.2" cy="180.6" r="3" fill="#8a5a5a"/><circle cx="567.8" cy="181.8" r="3" fill="#8a5a5a"/><circle cx="573.5" cy="189.1" r="3" fill="#8a5a5a"/><circle cx="579.1" cy="190.5" r="3" fill="#8a5a5a"/><circle cx="584.8" cy="195.2" r="3" fill="#8a5a5a"/><circle cx="590.5" cy="198.0" r="3" fill="#8a5a5a"/><circle cx="596.1" cy="198.0" r="3" fill="#8a5a5a"/><circle cx="601.8" cy="198.0" r="3" fill="#8a5a5a"/><circle cx="607.4" cy="198.0" r="3" fill="#8a5a5a"/><circle cx="613.1" cy="198.0" r="3" fill="#8a5a5a"/><circle cx="618.7" cy="198.0" r="3" fill="#8a5a5a"/><circle cx="624.4" cy="198.0" r="3" fill="#8a5a5a"/><circle cx="630.1" cy="198.0" r="3" fill="#8a5a5a"/><circle cx="635.7" cy="198.0" r="3" fill="#8a5a5a"/><circle cx="641.4" cy="198.0" r="3" fill="#8a5a5a"/><circle cx="647.0" cy="198.0" r="3" fill="#8a5a5a"/><circle cx="652.7" cy="198.0" r="3" fill="#8a5a5a"/><circle cx="658.3" cy="198.0" r="3" fill="#8a5a5a"/><circle cx="664.0" cy="198.0" r="3" fill="#8a5a5a"/>
<polyline fill="none" stroke="#3fb950" stroke-width="2.5" stroke-linejoin="round" points="36.0,198.0 41.7,198.0 47.3,198.0 53.0,198.0 58.6,198.0 64.3,198.0 69.9,198.0 75.6,198.0 81.3,198.0 86.9,198.0 92.6,198.0 98.2,198.0 103.9,198.0 109.5,198.0 115.2,198.0 120.9,198.0 126.5,198.0 132.2,198.0 137.8,198.0 143.5,198.0 149.2,198.0 154.8,198.0 160.5,198.0 166.1,198.0 171.8,198.0 177.4,198.0 183.1,198.0 188.8,198.0 194.4,198.0 200.1,198.0 205.7,198.0 211.4,198.0 217.0,198.0 222.7,198.0 228.4,198.0 234.0,198.0 239.7,198.0 245.3,198.0 251.0,198.0 256.6,198.0 262.3,198.0 268.0,198.0 273.6,198.0 279.3,191.7 284.9,191.7 290.6,191.7 296.3,191.7 301.9,191.7 307.6,191.7 313.2,191.7 318.9,192.9 324.5,192.9 330.2,190.7 335.9,190.7 341.5,190.7 347.2,190.7 352.8,190.7 358.5,190.5 364.1,190.5 369.8,190.5 375.5,190.3 381.1,190.3 386.8,190.3 392.4,190.3 398.1,190.3 403.7,190.3 409.4,190.3 415.1,190.3 420.7,190.3 426.4,190.3 432.0,190.3 437.7,190.3 443.4,190.3 449.0,190.3 454.7,190.3 460.3,190.3 466.0,190.3 471.6,190.3 477.3,190.3 483.0,190.3 488.6,190.3 494.3,189.3 499.9,189.3 505.6,189.3 511.2,190.7 516.9,190.7 522.6,190.7 528.2,190.7 533.9,190.7 539.5,190.7 545.2,190.7 550.8,190.7 556.5,190.7 562.2,190.9 567.8,190.9 573.5,190.9 579.1,194.2 584.8,196.8 590.5,198.0 596.1,198.0 601.8,198.0 607.4,198.0 613.1,198.0 618.7,198.0 624.4,198.0 630.1,198.0 635.7,198.0 641.4,198.0 647.0,198.0 652.7,198.0 658.3,198.0 664.0,198.0"/><circle cx="36.0" cy="198.0" r="3" fill="#3fb950"/><circle cx="41.7" cy="198.0" r="3" fill="#3fb950"/><circle cx="47.3" cy="198.0" r="3" fill="#3fb950"/><circle cx="53.0" cy="198.0" r="3" fill="#3fb950"/><circle cx="58.6" cy="198.0" r="3" fill="#3fb950"/><circle cx="64.3" cy="198.0" r="3" fill="#3fb950"/><circle cx="69.9" cy="198.0" r="3" fill="#3fb950"/><circle cx="75.6" cy="198.0" r="3" fill="#3fb950"/><circle cx="81.3" cy="198.0" r="3" fill="#3fb950"/><circle cx="86.9" cy="198.0" r="3" fill="#3fb950"/><circle cx="92.6" cy="198.0" r="3" fill="#3fb950"/><circle cx="98.2" cy="198.0" r="3" fill="#3fb950"/><circle cx="103.9" cy="198.0" r="3" fill="#3fb950"/><circle cx="109.5" cy="198.0" r="3" fill="#3fb950"/><circle cx="115.2" cy="198.0" r="3" fill="#3fb950"/><circle cx="120.9" cy="198.0" r="3" fill="#3fb950"/><circle cx="126.5" cy="198.0" r="3" fill="#3fb950"/><circle cx="132.2" cy="198.0" r="3" fill="#3fb950"/><circle cx="137.8" cy="198.0" r="3" fill="#3fb950"/><circle cx="143.5" cy="198.0" r="3" fill="#3fb950"/><circle cx="149.2" cy="198.0" r="3" fill="#3fb950"/><circle cx="154.8" cy="198.0" r="3" fill="#3fb950"/><circle cx="160.5" cy="198.0" r="3" fill="#3fb950"/><circle cx="166.1" cy="198.0" r="3" fill="#3fb950"/><circle cx="171.8" cy="198.0" r="3" fill="#3fb950"/><circle cx="177.4" cy="198.0" r="3" fill="#3fb950"/><circle cx="183.1" cy="198.0" r="3" fill="#3fb950"/><circle cx="188.8" cy="198.0" r="3" fill="#3fb950"/><circle cx="194.4" cy="198.0" r="3" fill="#3fb950"/><circle cx="200.1" cy="198.0" r="3" fill="#3fb950"/><circle cx="205.7" cy="198.0" r="3" fill="#3fb950"/><circle cx="211.4" cy="198.0" r="3" fill="#3fb950"/><circle cx="217.0" cy="198.0" r="3" fill="#3fb950"/><circle cx="222.7" cy="198.0" r="3" fill="#3fb950"/><circle cx="228.4" cy="198.0" r="3" fill="#3fb950"/><circle cx="234.0" cy="198.0" r="3" fill="#3fb950"/><circle cx="239.7" cy="198.0" r="3" fill="#3fb950"/><circle cx="245.3" cy="198.0" r="3" fill="#3fb950"/><circle cx="251.0" cy="198.0" r="3" fill="#3fb950"/><circle cx="256.6" cy="198.0" r="3" fill="#3fb950"/><circle cx="262.3" cy="198.0" r="3" fill="#3fb950"/><circle cx="268.0" cy="198.0" r="3" fill="#3fb950"/><circle cx="273.6" cy="198.0" r="3" fill="#3fb950"/><circle cx="279.3" cy="191.7" r="3" fill="#3fb950"/><circle cx="284.9" cy="191.7" r="3" fill="#3fb950"/><circle cx="290.6" cy="191.7" r="3" fill="#3fb950"/><circle cx="296.3" cy="191.7" r="3" fill="#3fb950"/><circle cx="301.9" cy="191.7" r="3" fill="#3fb950"/><circle cx="307.6" cy="191.7" r="3" fill="#3fb950"/><circle cx="313.2" cy="191.7" r="3" fill="#3fb950"/><circle cx="318.9" cy="192.9" r="3" fill="#3fb950"/><circle cx="324.5" cy="192.9" r="3" fill="#3fb950"/><circle cx="330.2" cy="190.7" r="3" fill="#3fb950"/><circle cx="335.9" cy="190.7" r="3" fill="#3fb950"/><circle cx="341.5" cy="190.7" r="3" fill="#3fb950"/><circle cx="347.2" cy="190.7" r="3" fill="#3fb950"/><circle cx="352.8" cy="190.7" r="3" fill="#3fb950"/><circle cx="358.5" cy="190.5" r="3" fill="#3fb950"/><circle cx="364.1" cy="190.5" r="3" fill="#3fb950"/><circle cx="369.8" cy="190.5" r="3" fill="#3fb950"/><circle cx="375.5" cy="190.3" r="3" fill="#3fb950"/><circle cx="381.1" cy="190.3" r="3" fill="#3fb950"/><circle cx="386.8" cy="190.3" r="3" fill="#3fb950"/><circle cx="392.4" cy="190.3" r="3" fill="#3fb950"/><circle cx="398.1" cy="190.3" r="3" fill="#3fb950"/><circle cx="403.7" cy="190.3" r="3" fill="#3fb950"/><circle cx="409.4" cy="190.3" r="3" fill="#3fb950"/><circle cx="415.1" cy="190.3" r="3" fill="#3fb950"/><circle cx="420.7" cy="190.3" r="3" fill="#3fb950"/><circle cx="426.4" cy="190.3" r="3" fill="#3fb950"/><circle cx="432.0" cy="190.3" r="3" fill="#3fb950"/><circle cx="437.7" cy="190.3" r="3" fill="#3fb950"/><circle cx="443.4" cy="190.3" r="3" fill="#3fb950"/><circle cx="449.0" cy="190.3" r="3" fill="#3fb950"/><circle cx="454.7" cy="190.3" r="3" fill="#3fb950"/><circle cx="460.3" cy="190.3" r="3" fill="#3fb950"/><circle cx="466.0" cy="190.3" r="3" fill="#3fb950"/><circle cx="471.6" cy="190.3" r="3" fill="#3fb950"/><circle cx="477.3" cy="190.3" r="3" fill="#3fb950"/><circle cx="483.0" cy="190.3" r="3" fill="#3fb950"/><circle cx="488.6" cy="190.3" r="3" fill="#3fb950"/><circle cx="494.3" cy="189.3" r="3" fill="#3fb950"/><circle cx="499.9" cy="189.3" r="3" fill="#3fb950"/><circle cx="505.6" cy="189.3" r="3" fill="#3fb950"/><circle cx="511.2" cy="190.7" r="3" fill="#3fb950"/><circle cx="516.9" cy="190.7" r="3" fill="#3fb950"/><circle cx="522.6" cy="190.7" r="3" fill="#3fb950"/><circle cx="528.2" cy="190.7" r="3" fill="#3fb950"/><circle cx="533.9" cy="190.7" r="3" fill="#3fb950"/><circle cx="539.5" cy="190.7" r="3" fill="#3fb950"/><circle cx="545.2" cy="190.7" r="3" fill="#3fb950"/><circle cx="550.8" cy="190.7" r="3" fill="#3fb950"/><circle cx="556.5" cy="190.7" r="3" fill="#3fb950"/><circle cx="562.2" cy="190.9" r="3" fill="#3fb950"/><circle cx="567.8" cy="190.9" r="3" fill="#3fb950"/><circle cx="573.5" cy="190.9" r="3" fill="#3fb950"/><circle cx="579.1" cy="194.2" r="3" fill="#3fb950"/><circle cx="584.8" cy="196.8" r="3" fill="#3fb950"/><circle cx="590.5" cy="198.0" r="3" fill="#3fb950"/><circle cx="596.1" cy="198.0" r="3" fill="#3fb950"/><circle cx="601.8" cy="198.0" r="3" fill="#3fb950"/><circle cx="607.4" cy="198.0" r="3" fill="#3fb950"/><circle cx="613.1" cy="198.0" r="3" fill="#3fb950"/><circle cx="618.7" cy="198.0" r="3" fill="#3fb950"/><circle cx="624.4" cy="198.0" r="3" fill="#3fb950"/><circle cx="630.1" cy="198.0" r="3" fill="#3fb950"/><circle cx="635.7" cy="198.0" r="3" fill="#3fb950"/><circle cx="641.4" cy="198.0" r="3" fill="#3fb950"/><circle cx="647.0" cy="198.0" r="3" fill="#3fb950"/><circle cx="652.7" cy="198.0" r="3" fill="#3fb950"/><circle cx="658.3" cy="198.0" r="3" fill="#3fb950"/><circle cx="664.0" cy="198.0" r="3" fill="#3fb950"/>
<polyline fill="none" stroke="#4aa3ff" stroke-width="2.5" stroke-linejoin="round" points="36.0,144.3 41.7,144.3 47.3,144.3 53.0,144.3 58.6,144.3 64.3,144.3 69.9,144.3 75.6,144.3 81.3,144.3 86.9,144.3 92.6,144.3 98.2,144.3 103.9,144.3 109.5,144.3 115.2,144.3 120.9,136.2 126.5,132.4 132.2,129.6 137.8,129.6 143.5,121.0 149.2,121.0 154.8,121.0 160.5,114.4 166.1,114.4 171.8,114.4 177.4,111.3 183.1,110.9 188.8,110.9 194.4,110.5 200.1,110.5 205.7,109.9 211.4,108.7 217.0,107.3 222.7,106.9 228.4,106.9 234.0,106.9 239.7,106.9 245.3,106.9 251.0,106.9 256.6,106.9 262.3,106.9 268.0,106.9 273.6,106.9 279.3,113.2 284.9,113.2 290.6,113.2 296.3,113.2 301.9,113.2 307.6,110.7 313.2,105.3 318.9,83.4 324.5,83.4 330.2,85.6 335.9,85.6 341.5,85.6 347.2,85.6 352.8,85.6 358.5,85.8 364.1,85.8 369.8,85.8 375.5,86.0 381.1,86.0 386.8,86.0 392.4,86.0 398.1,86.0 403.7,86.0 409.4,86.0 415.1,86.0 420.7,86.0 426.4,86.0 432.0,86.0 437.7,86.0 443.4,86.0 449.0,86.0 454.7,86.0 460.3,86.0 466.0,86.0 471.6,86.0 477.3,86.0 483.0,86.0 488.6,86.0 494.3,87.0 499.9,87.0 505.6,87.0 511.2,73.7 516.9,73.7 522.6,71.0 528.2,71.0 533.9,70.8 539.5,70.6 545.2,70.6 550.8,70.4 556.5,68.6 562.2,60.5 567.8,59.3 573.5,52.0 579.1,47.3 584.8,40.1 590.5,36.0 596.1,36.0 601.8,36.0 607.4,36.0 613.1,36.0 618.7,36.0 624.4,36.0 630.1,36.0 635.7,36.0 641.4,36.0 647.0,36.0 652.7,36.0 658.3,36.0 664.0,36.0"/><circle cx="36.0" cy="144.3" r="3" fill="#4aa3ff"/><circle cx="41.7" cy="144.3" r="3" fill="#4aa3ff"/><circle cx="47.3" cy="144.3" r="3" fill="#4aa3ff"/><circle cx="53.0" cy="144.3" r="3" fill="#4aa3ff"/><circle cx="58.6" cy="144.3" r="3" fill="#4aa3ff"/><circle cx="64.3" cy="144.3" r="3" fill="#4aa3ff"/><circle cx="69.9" cy="144.3" r="3" fill="#4aa3ff"/><circle cx="75.6" cy="144.3" r="3" fill="#4aa3ff"/><circle cx="81.3" cy="144.3" r="3" fill="#4aa3ff"/><circle cx="86.9" cy="144.3" r="3" fill="#4aa3ff"/><circle cx="92.6" cy="144.3" r="3" fill="#4aa3ff"/><circle cx="98.2" cy="144.3" r="3" fill="#4aa3ff"/><circle cx="103.9" cy="144.3" r="3" fill="#4aa3ff"/><circle cx="109.5" cy="144.3" r="3" fill="#4aa3ff"/><circle cx="115.2" cy="144.3" r="3" fill="#4aa3ff"/><circle cx="120.9" cy="136.2" r="3" fill="#4aa3ff"/><circle cx="126.5" cy="132.4" r="3" fill="#4aa3ff"/><circle cx="132.2" cy="129.6" r="3" fill="#4aa3ff"/><circle cx="137.8" cy="129.6" r="3" fill="#4aa3ff"/><circle cx="143.5" cy="121.0" r="3" fill="#4aa3ff"/><circle cx="149.2" cy="121.0" r="3" fill="#4aa3ff"/><circle cx="154.8" cy="121.0" r="3" fill="#4aa3ff"/><circle cx="160.5" cy="114.4" r="3" fill="#4aa3ff"/><circle cx="166.1" cy="114.4" r="3" fill="#4aa3ff"/><circle cx="171.8" cy="114.4" r="3" fill="#4aa3ff"/><circle cx="177.4" cy="111.3" r="3" fill="#4aa3ff"/><circle cx="183.1" cy="110.9" r="3" fill="#4aa3ff"/><circle cx="188.8" cy="110.9" r="3" fill="#4aa3ff"/><circle cx="194.4" cy="110.5" r="3" fill="#4aa3ff"/><circle cx="200.1" cy="110.5" r="3" fill="#4aa3ff"/><circle cx="205.7" cy="109.9" r="3" fill="#4aa3ff"/><circle cx="211.4" cy="108.7" r="3" fill="#4aa3ff"/><circle cx="217.0" cy="107.3" r="3" fill="#4aa3ff"/><circle cx="222.7" cy="106.9" r="3" fill="#4aa3ff"/><circle cx="228.4" cy="106.9" r="3" fill="#4aa3ff"/><circle cx="234.0" cy="106.9" r="3" fill="#4aa3ff"/><circle cx="239.7" cy="106.9" r="3" fill="#4aa3ff"/><circle cx="245.3" cy="106.9" r="3" fill="#4aa3ff"/><circle cx="251.0" cy="106.9" r="3" fill="#4aa3ff"/><circle cx="256.6" cy="106.9" r="3" fill="#4aa3ff"/><circle cx="262.3" cy="106.9" r="3" fill="#4aa3ff"/><circle cx="268.0" cy="106.9" r="3" fill="#4aa3ff"/><circle cx="273.6" cy="106.9" r="3" fill="#4aa3ff"/><circle cx="279.3" cy="113.2" r="3" fill="#4aa3ff"/><circle cx="284.9" cy="113.2" r="3" fill="#4aa3ff"/><circle cx="290.6" cy="113.2" r="3" fill="#4aa3ff"/><circle cx="296.3" cy="113.2" r="3" fill="#4aa3ff"/><circle cx="301.9" cy="113.2" r="3" fill="#4aa3ff"/><circle cx="307.6" cy="110.7" r="3" fill="#4aa3ff"/><circle cx="313.2" cy="105.3" r="3" fill="#4aa3ff"/><circle cx="318.9" cy="83.4" r="3" fill="#4aa3ff"/><circle cx="324.5" cy="83.4" r="3" fill="#4aa3ff"/><circle cx="330.2" cy="85.6" r="3" fill="#4aa3ff"/><circle cx="335.9" cy="85.6" r="3" fill="#4aa3ff"/><circle cx="341.5" cy="85.6" r="3" fill="#4aa3ff"/><circle cx="347.2" cy="85.6" r="3" fill="#4aa3ff"/><circle cx="352.8" cy="85.6" r="3" fill="#4aa3ff"/><circle cx="358.5" cy="85.8" r="3" fill="#4aa3ff"/><circle cx="364.1" cy="85.8" r="3" fill="#4aa3ff"/><circle cx="369.8" cy="85.8" r="3" fill="#4aa3ff"/><circle cx="375.5" cy="86.0" r="3" fill="#4aa3ff"/><circle cx="381.1" cy="86.0" r="3" fill="#4aa3ff"/><circle cx="386.8" cy="86.0" r="3" fill="#4aa3ff"/><circle cx="392.4" cy="86.0" r="3" fill="#4aa3ff"/><circle cx="398.1" cy="86.0" r="3" fill="#4aa3ff"/><circle cx="403.7" cy="86.0" r="3" fill="#4aa3ff"/><circle cx="409.4" cy="86.0" r="3" fill="#4aa3ff"/><circle cx="415.1" cy="86.0" r="3" fill="#4aa3ff"/><circle cx="420.7" cy="86.0" r="3" fill="#4aa3ff"/><circle cx="426.4" cy="86.0" r="3" fill="#4aa3ff"/><circle cx="432.0" cy="86.0" r="3" fill="#4aa3ff"/><circle cx="437.7" cy="86.0" r="3" fill="#4aa3ff"/><circle cx="443.4" cy="86.0" r="3" fill="#4aa3ff"/><circle cx="449.0" cy="86.0" r="3" fill="#4aa3ff"/><circle cx="454.7" cy="86.0" r="3" fill="#4aa3ff"/><circle cx="460.3" cy="86.0" r="3" fill="#4aa3ff"/><circle cx="466.0" cy="86.0" r="3" fill="#4aa3ff"/><circle cx="471.6" cy="86.0" r="3" fill="#4aa3ff"/><circle cx="477.3" cy="86.0" r="3" fill="#4aa3ff"/><circle cx="483.0" cy="86.0" r="3" fill="#4aa3ff"/><circle cx="488.6" cy="86.0" r="3" fill="#4aa3ff"/><circle cx="494.3" cy="87.0" r="3" fill="#4aa3ff"/><circle cx="499.9" cy="87.0" r="3" fill="#4aa3ff"/><circle cx="505.6" cy="87.0" r="3" fill="#4aa3ff"/><circle cx="511.2" cy="73.7" r="3" fill="#4aa3ff"/><circle cx="516.9" cy="73.7" r="3" fill="#4aa3ff"/><circle cx="522.6" cy="71.0" r="3" fill="#4aa3ff"/><circle cx="528.2" cy="71.0" r="3" fill="#4aa3ff"/><circle cx="533.9" cy="70.8" r="3" fill="#4aa3ff"/><circle cx="539.5" cy="70.6" r="3" fill="#4aa3ff"/><circle cx="545.2" cy="70.6" r="3" fill="#4aa3ff"/><circle cx="550.8" cy="70.4" r="3" fill="#4aa3ff"/><circle cx="556.5" cy="68.6" r="3" fill="#4aa3ff"/><circle cx="562.2" cy="60.5" r="3" fill="#4aa3ff"/><circle cx="567.8" cy="59.3" r="3" fill="#4aa3ff"/><circle cx="573.5" cy="52.0" r="3" fill="#4aa3ff"/><circle cx="579.1" cy="47.3" r="3" fill="#4aa3ff"/><circle cx="584.8" cy="40.1" r="3" fill="#4aa3ff"/><circle cx="590.5" cy="36.0" r="3" fill="#4aa3ff"/><circle cx="596.1" cy="36.0" r="3" fill="#4aa3ff"/><circle cx="601.8" cy="36.0" r="3" fill="#4aa3ff"/><circle cx="607.4" cy="36.0" r="3" fill="#4aa3ff"/><circle cx="613.1" cy="36.0" r="3" fill="#4aa3ff"/><circle cx="618.7" cy="36.0" r="3" fill="#4aa3ff"/><circle cx="624.4" cy="36.0" r="3" fill="#4aa3ff"/><circle cx="630.1" cy="36.0" r="3" fill="#4aa3ff"/><circle cx="635.7" cy="36.0" r="3" fill="#4aa3ff"/><circle cx="641.4" cy="36.0" r="3" fill="#4aa3ff"/><circle cx="647.0" cy="36.0" r="3" fill="#4aa3ff"/><circle cx="652.7" cy="36.0" r="3" fill="#4aa3ff"/><circle cx="658.3" cy="36.0" r="3" fill="#4aa3ff"/><circle cx="664.0" cy="36.0" r="3" fill="#4aa3ff"/>
<text x="36" y="225" fill="#6b7280" font-size="11">2026-06-26</text>
<text x="664" y="225" fill="#6b7280" font-size="11" text-anchor="end">2026-07-08</text>
<text x="36" y="212" font-family="system-ui,sans-serif" font-size="11">
<tspan fill="#4aa3ff">&#9679; open FPs</tspan>  <tspan fill="#3fb950">&#9679; closed (Anthropic acting)</tspan>  <tspan fill="#8a5a5a">&#9679; harness withdrawn</tspan></text>
<text x="664" y="22" text-anchor="end" font-family="system-ui,sans-serif" font-size="12">
<tspan fill="#4aa3ff">open 800</tspan>  <tspan fill="#3fb950">closed 0</tspan>  <tspan fill="#8a5a5a">harness 0</tspan></text>
</svg>