<svg xmlns="http://www.w3.org/2000/svg" width="700" height="234" viewBox="0 0 700 234" role="img">
<rect width="700" height="234" rx="12" fill="#16181d"/>
<text x="36" y="22" fill="#e8eaed" font-family="system-ui,sans-serif" font-size="14" font-weight="700">Is Anthropic acting? cyber/aup false positives over time</text>
<line x1="36" y1="198.0" x2="664" y2="198.0" stroke="#2a2e37" stroke-width="1"/><text x="30" y="202.0" fill="#6b7280" font-size="11" text-anchor="end">0</text><line x1="36" y1="117.0" x2="664" y2="117.0" stroke="#2a2e37" stroke-width="1"/><text x="30" y="121.0" fill="#6b7280" font-size="11" text-anchor="end">400</text><line x1="36" y1="36.0" x2="664" y2="36.0" stroke="#2a2e37" stroke-width="1"/><text x="30" y="40.0" fill="#6b7280" font-size="11" text-anchor="end">800</text>

<polyline fill="none" stroke="#8a5a5a" stroke-width="2.5" stroke-linejoin="round" points="36.0,145.1 41.0,145.1 46.0,145.1 51.0,145.1 55.9,145.1 60.9,145.1 65.9,145.1 70.9,145.1 75.9,145.1 80.9,145.1 85.8,145.1 90.8,145.1 95.8,145.1 100.8,145.1 105.8,145.1 110.8,145.1 115.7,145.1 120.7,145.1 125.7,145.1 130.7,145.1 135.7,145.1 140.7,145.1 145.7,145.1 150.6,145.1 155.6,145.1 160.6,145.1 165.6,145.1 170.6,145.1 175.6,145.1 180.5,145.1 185.5,145.1 190.5,145.1 195.5,145.1 200.5,145.1 205.5,145.1 210.4,145.1 215.4,145.1 220.4,145.1 225.4,145.1 230.4,145.1 235.4,145.1 240.3,145.1 245.3,145.1 250.3,145.1 255.3,145.1 260.3,145.1 265.3,145.1 270.3,145.1 275.2,145.1 280.2,145.1 285.2,155.7 290.2,155.7 295.2,155.7 300.2,155.7 305.1,155.7 310.1,155.7 315.1,155.7 320.1,155.7 325.1,155.7 330.1,155.7 335.0,155.7 340.0,155.7 345.0,155.7 350.0,155.7 355.0,155.7 360.0,155.7 365.0,155.7 369.9,155.7 374.9,155.7 379.9,155.7 384.9,155.7 389.9,155.7 394.9,155.7 399.8,155.7 404.8,155.7 409.8,155.7 414.8,155.7 419.8,155.7 424.8,155.7 429.7,155.7 434.7,155.7 439.7,155.7 444.7,155.7 449.7,155.7 454.7,167.6 459.7,167.6 464.6,170.3 469.6,170.3 474.6,170.5 479.6,170.7 484.6,170.7 489.6,170.9 494.5,172.7 499.5,180.6 504.5,181.8 509.5,189.1 514.5,190.5 519.5,195.2 524.4,198.0 529.4,198.0 534.4,198.0 539.4,198.0 544.4,198.0 549.4,198.0 554.3,198.0 559.3,198.0 564.3,198.0 569.3,198.0 574.3,198.0 579.3,198.0 584.3,198.0 589.2,198.0 594.2,198.0 599.2,198.0 604.2,198.0 609.2,198.0 614.2,198.0 619.1,198.0 624.1,198.0 629.1,198.0 634.1,198.0 639.1,198.0 644.1,198.0 649.0,198.0 654.0,198.0 659.0,198.0 664.0,198.0"/><circle cx="36.0" cy="145.1" r="3" fill="#8a5a5a"/><circle cx="41.0" cy="145.1" r="3" fill="#8a5a5a"/><circle cx="46.0" cy="145.1" r="3" fill="#8a5a5a"/><circle cx="51.0" cy="145.1" r="3" fill="#8a5a5a"/><circle cx="55.9" cy="145.1" r="3" fill="#8a5a5a"/><circle cx="60.9" cy="145.1" r="3" fill="#8a5a5a"/><circle cx="65.9" cy="145.1" r="3" fill="#8a5a5a"/><circle cx="70.9" cy="145.1" r="3" fill="#8a5a5a"/><circle cx="75.9" cy="145.1" r="3" fill="#8a5a5a"/><circle cx="80.9" cy="145.1" r="3" fill="#8a5a5a"/><circle cx="85.8" cy="145.1" r="3" fill="#8a5a5a"/><circle cx="90.8" cy="145.1" r="3" fill="#8a5a5a"/><circle cx="95.8" cy="145.1" r="3" fill="#8a5a5a"/><circle cx="100.8" cy="145.1" r="3" fill="#8a5a5a"/><circle cx="105.8" cy="145.1" r="3" fill="#8a5a5a"/><circle cx="110.8" cy="145.1" r="3" fill="#8a5a5a"/><circle cx="115.7" cy="145.1" r="3" fill="#8a5a5a"/><circle cx="120.7" cy="145.1" r="3" fill="#8a5a5a"/><circle cx="125.7" cy="145.1" r="3" fill="#8a5a5a"/><circle cx="130.7" cy="145.1" r="3" fill="#8a5a5a"/><circle cx="135.7" cy="145.1" r="3" fill="#8a5a5a"/><circle cx="140.7" cy="145.1" r="3" fill="#8a5a5a"/><circle cx="145.7" cy="145.1" r="3" fill="#8a5a5a"/><circle cx="150.6" cy="145.1" r="3" fill="#8a5a5a"/><circle cx="155.6" cy="145.1" r="3" fill="#8a5a5a"/><circle cx="160.6" cy="145.1" r="3" fill="#8a5a5a"/><circle cx="165.6" cy="145.1" r="3" fill="#8a5a5a"/><circle cx="170.6" cy="145.1" r="3" fill="#8a5a5a"/><circle cx="175.6" cy="145.1" r="3" fill="#8a5a5a"/><circle cx="180.5" cy="145.1" r="3" fill="#8a5a5a"/><circle cx="185.5" cy="145.1" r="3" fill="#8a5a5a"/><circle cx="190.5" cy="145.1" r="3" fill="#8a5a5a"/><circle cx="195.5" cy="145.1" r="3" fill="#8a5a5a"/><circle cx="200.5" cy="145.1" r="3" fill="#8a5a5a"/><circle cx="205.5" cy="145.1" r="3" fill="#8a5a5a"/><circle cx="210.4" cy="145.1" r="3" fill="#8a5a5a"/><circle cx="215.4" cy="145.1" r="3" fill="#8a5a5a"/><circle cx="220.4" cy="145.1" r="3" fill="#8a5a5a"/><circle cx="225.4" cy="145.1" r="3" fill="#8a5a5a"/><circle cx="230.4" cy="145.1" r="3" fill="#8a5a5a"/><circle cx="235.4" cy="145.1" r="3" fill="#8a5a5a"/><circle cx="240.3" cy="145.1" r="3" fill="#8a5a5a"/><circle cx="245.3" cy="145.1" r="3" fill="#8a5a5a"/><circle cx="250.3" cy="145.1" r="3" fill="#8a5a5a"/><circle cx="255.3" cy="145.1" r="3" fill="#8a5a5a"/><circle cx="260.3" cy="145.1" r="3" fill="#8a5a5a"/><circle cx="265.3" cy="145.1" r="3" fill="#8a5a5a"/><circle cx="270.3" cy="145.1" r="3" fill="#8a5a5a"/><circle cx="275.2" cy="145.1" r="3" fill="#8a5a5a"/><circle cx="280.2" cy="145.1" r="3" fill="#8a5a5a"/><circle cx="285.2" cy="155.7" r="3" fill="#8a5a5a"/><circle cx="290.2" cy="155.7" r="3" fill="#8a5a5a"/><circle cx="295.2" cy="155.7" r="3" fill="#8a5a5a"/><circle cx="300.2" cy="155.7" r="3" fill="#8a5a5a"/><circle cx="305.1" cy="155.7" r="3" fill="#8a5a5a"/><circle cx="310.1" cy="155.7" r="3" fill="#8a5a5a"/><circle cx="315.1" cy="155.7" r="3" fill="#8a5a5a"/><circle cx="320.1" cy="155.7" r="3" fill="#8a5a5a"/><circle cx="325.1" cy="155.7" r="3" fill="#8a5a5a"/><circle cx="330.1" cy="155.7" r="3" fill="#8a5a5a"/><circle cx="335.0" cy="155.7" r="3" fill="#8a5a5a"/><circle cx="340.0" cy="155.7" r="3" fill="#8a5a5a"/><circle cx="345.0" cy="155.7" r="3" fill="#8a5a5a"/><circle cx="350.0" cy="155.7" r="3" fill="#8a5a5a"/><circle cx="355.0" cy="155.7" r="3" fill="#8a5a5a"/><circle cx="360.0" cy="155.7" r="3" fill="#8a5a5a"/><circle cx="365.0" cy="155.7" r="3" fill="#8a5a5a"/><circle cx="369.9" cy="155.7" r="3" fill="#8a5a5a"/><circle cx="374.9" cy="155.7" r="3" fill="#8a5a5a"/><circle cx="379.9" cy="155.7" r="3" fill="#8a5a5a"/><circle cx="384.9" cy="155.7" r="3" fill="#8a5a5a"/><circle cx="389.9" cy="155.7" r="3" fill="#8a5a5a"/><circle cx="394.9" cy="155.7" r="3" fill="#8a5a5a"/><circle cx="399.8" cy="155.7" r="3" fill="#8a5a5a"/><circle cx="404.8" cy="155.7" r="3" fill="#8a5a5a"/><circle cx="409.8" cy="155.7" r="3" fill="#8a5a5a"/><circle cx="414.8" cy="155.7" r="3" fill="#8a5a5a"/><circle cx="419.8" cy="155.7" r="3" fill="#8a5a5a"/><circle cx="424.8" cy="155.7" r="3" fill="#8a5a5a"/><circle cx="429.7" cy="155.7" r="3" fill="#8a5a5a"/><circle cx="434.7" cy="155.7" r="3" fill="#8a5a5a"/><circle cx="439.7" cy="155.7" r="3" fill="#8a5a5a"/><circle cx="444.7" cy="155.7" r="3" fill="#8a5a5a"/><circle cx="449.7" cy="155.7" r="3" fill="#8a5a5a"/><circle cx="454.7" cy="167.6" r="3" fill="#8a5a5a"/><circle cx="459.7" cy="167.6" r="3" fill="#8a5a5a"/><circle cx="464.6" cy="170.3" r="3" fill="#8a5a5a"/><circle cx="469.6" cy="170.3" r="3" fill="#8a5a5a"/><circle cx="474.6" cy="170.5" r="3" fill="#8a5a5a"/><circle cx="479.6" cy="170.7" r="3" fill="#8a5a5a"/><circle cx="484.6" cy="170.7" r="3" fill="#8a5a5a"/><circle cx="489.6" cy="170.9" r="3" fill="#8a5a5a"/><circle cx="494.5" cy="172.7" r="3" fill="#8a5a5a"/><circle cx="499.5" cy="180.6" r="3" fill="#8a5a5a"/><circle cx="504.5" cy="181.8" r="3" fill="#8a5a5a"/><circle cx="509.5" cy="189.1" r="3" fill="#8a5a5a"/><circle cx="514.5" cy="190.5" r="3" fill="#8a5a5a"/><circle cx="519.5" cy="195.2" r="3" fill="#8a5a5a"/><circle cx="524.4" cy="198.0" r="3" fill="#8a5a5a"/><circle cx="529.4" cy="198.0" r="3" fill="#8a5a5a"/><circle cx="534.4" cy="198.0" r="3" fill="#8a5a5a"/><circle cx="539.4" cy="198.0" r="3" fill="#8a5a5a"/><circle cx="544.4" cy="198.0" r="3" fill="#8a5a5a"/><circle cx="549.4" cy="198.0" r="3" fill="#8a5a5a"/><circle cx="554.3" cy="198.0" r="3" fill="#8a5a5a"/><circle cx="559.3" cy="198.0" r="3" fill="#8a5a5a"/><circle cx="564.3" cy="198.0" r="3" fill="#8a5a5a"/><circle cx="569.3" cy="198.0" r="3" fill="#8a5a5a"/><circle cx="574.3" cy="198.0" r="3" fill="#8a5a5a"/><circle cx="579.3" cy="198.0" r="3" fill="#8a5a5a"/><circle cx="584.3" cy="198.0" r="3" fill="#8a5a5a"/><circle cx="589.2" cy="198.0" r="3" fill="#8a5a5a"/><circle cx="594.2" cy="198.0" r="3" fill="#8a5a5a"/><circle cx="599.2" cy="198.0" r="3" fill="#8a5a5a"/><circle cx="604.2" cy="198.0" r="3" fill="#8a5a5a"/><circle cx="609.2" cy="198.0" r="3" fill="#8a5a5a"/><circle cx="614.2" cy="198.0" r="3" fill="#8a5a5a"/><circle cx="619.1" cy="198.0" r="3" fill="#8a5a5a"/><circle cx="624.1" cy="198.0" r="3" fill="#8a5a5a"/><circle cx="629.1" cy="198.0" r="3" fill="#8a5a5a"/><circle cx="634.1" cy="198.0" r="3" fill="#8a5a5a"/><circle cx="639.1" cy="198.0" r="3" fill="#8a5a5a"/><circle cx="644.1" cy="198.0" r="3" fill="#8a5a5a"/><circle cx="649.0" cy="198.0" r="3" fill="#8a5a5a"/><circle cx="654.0" cy="198.0" r="3" fill="#8a5a5a"/><circle cx="659.0" cy="198.0" r="3" fill="#8a5a5a"/><circle cx="664.0" cy="198.0" r="3" fill="#8a5a5a"/>
<polyline fill="none" stroke="#3fb950" stroke-width="2.5" stroke-linejoin="round" points="36.0,198.0 41.0,198.0 46.0,198.0 51.0,198.0 55.9,198.0 60.9,198.0 65.9,198.0 70.9,198.0 75.9,198.0 80.9,198.0 85.8,198.0 90.8,198.0 95.8,198.0 100.8,198.0 105.8,198.0 110.8,198.0 115.7,198.0 120.7,198.0 125.7,198.0 130.7,198.0 135.7,198.0 140.7,198.0 145.7,198.0 150.6,198.0 155.6,198.0 160.6,198.0 165.6,198.0 170.6,198.0 175.6,198.0 180.5,198.0 185.5,198.0 190.5,198.0 195.5,198.0 200.5,198.0 205.5,198.0 210.4,198.0 215.4,198.0 220.4,198.0 225.4,198.0 230.4,198.0 235.4,198.0 240.3,198.0 245.3,198.0 250.3,191.7 255.3,191.7 260.3,191.7 265.3,191.7 270.3,191.7 275.2,191.7 280.2,191.7 285.2,192.9 290.2,192.9 295.2,190.7 300.2,190.7 305.1,190.7 310.1,190.7 315.1,190.7 320.1,190.5 325.1,190.5 330.1,190.5 335.0,190.3 340.0,190.3 345.0,190.3 350.0,190.3 355.0,190.3 360.0,190.3 365.0,190.3 369.9,190.3 374.9,190.3 379.9,190.3 384.9,190.3 389.9,190.3 394.9,190.3 399.8,190.3 404.8,190.3 409.8,190.3 414.8,190.3 419.8,190.3 424.8,190.3 429.7,190.3 434.7,190.3 439.7,189.3 444.7,189.3 449.7,189.3 454.7,190.7 459.7,190.7 464.6,190.7 469.6,190.7 474.6,190.7 479.6,190.7 484.6,190.7 489.6,190.7 494.5,190.7 499.5,190.9 504.5,190.9 509.5,190.9 514.5,194.2 519.5,196.8 524.4,198.0 529.4,198.0 534.4,198.0 539.4,198.0 544.4,198.0 549.4,198.0 554.3,198.0 559.3,198.0 564.3,198.0 569.3,198.0 574.3,198.0 579.3,198.0 584.3,198.0 589.2,198.0 594.2,198.0 599.2,198.0 604.2,198.0 609.2,198.0 614.2,198.0 619.1,198.0 624.1,198.0 629.1,198.0 634.1,198.0 639.1,198.0 644.1,198.0 649.0,198.0 654.0,198.0 659.0,198.0 664.0,198.0"/><circle cx="36.0" cy="198.0" r="3" fill="#3fb950"/><circle cx="41.0" cy="198.0" r="3" fill="#3fb950"/><circle cx="46.0" cy="198.0" r="3" fill="#3fb950"/><circle cx="51.0" cy="198.0" r="3" fill="#3fb950"/><circle cx="55.9" cy="198.0" r="3" fill="#3fb950"/><circle cx="60.9" cy="198.0" r="3" fill="#3fb950"/><circle cx="65.9" cy="198.0" r="3" fill="#3fb950"/><circle cx="70.9" cy="198.0" r="3" fill="#3fb950"/><circle cx="75.9" cy="198.0" r="3" fill="#3fb950"/><circle cx="80.9" cy="198.0" r="3" fill="#3fb950"/><circle cx="85.8" cy="198.0" r="3" fill="#3fb950"/><circle cx="90.8" cy="198.0" r="3" fill="#3fb950"/><circle cx="95.8" cy="198.0" r="3" fill="#3fb950"/><circle cx="100.8" cy="198.0" r="3" fill="#3fb950"/><circle cx="105.8" cy="198.0" r="3" fill="#3fb950"/><circle cx="110.8" cy="198.0" r="3" fill="#3fb950"/><circle cx="115.7" cy="198.0" r="3" fill="#3fb950"/><circle cx="120.7" cy="198.0" r="3" fill="#3fb950"/><circle cx="125.7" cy="198.0" r="3" fill="#3fb950"/><circle cx="130.7" cy="198.0" r="3" fill="#3fb950"/><circle cx="135.7" cy="198.0" r="3" fill="#3fb950"/><circle cx="140.7" cy="198.0" r="3" fill="#3fb950"/><circle cx="145.7" cy="198.0" r="3" fill="#3fb950"/><circle cx="150.6" cy="198.0" r="3" fill="#3fb950"/><circle cx="155.6" cy="198.0" r="3" fill="#3fb950"/><circle cx="160.6" cy="198.0" r="3" fill="#3fb950"/><circle cx="165.6" cy="198.0" r="3" fill="#3fb950"/><circle cx="170.6" cy="198.0" r="3" fill="#3fb950"/><circle cx="175.6" cy="198.0" r="3" fill="#3fb950"/><circle cx="180.5" cy="198.0" r="3" fill="#3fb950"/><circle cx="185.5" cy="198.0" r="3" fill="#3fb950"/><circle cx="190.5" cy="198.0" r="3" fill="#3fb950"/><circle cx="195.5" cy="198.0" r="3" fill="#3fb950"/><circle cx="200.5" cy="198.0" r="3" fill="#3fb950"/><circle cx="205.5" cy="198.0" r="3" fill="#3fb950"/><circle cx="210.4" cy="198.0" r="3" fill="#3fb950"/><circle cx="215.4" cy="198.0" r="3" fill="#3fb950"/><circle cx="220.4" cy="198.0" r="3" fill="#3fb950"/><circle cx="225.4" cy="198.0" r="3" fill="#3fb950"/><circle cx="230.4" cy="198.0" r="3" fill="#3fb950"/><circle cx="235.4" cy="198.0" r="3" fill="#3fb950"/><circle cx="240.3" cy="198.0" r="3" fill="#3fb950"/><circle cx="245.3" cy="198.0" r="3" fill="#3fb950"/><circle cx="250.3" cy="191.7" r="3" fill="#3fb950"/><circle cx="255.3" cy="191.7" r="3" fill="#3fb950"/><circle cx="260.3" cy="191.7" r="3" fill="#3fb950"/><circle cx="265.3" cy="191.7" r="3" fill="#3fb950"/><circle cx="270.3" cy="191.7" r="3" fill="#3fb950"/><circle cx="275.2" cy="191.7" r="3" fill="#3fb950"/><circle cx="280.2" cy="191.7" r="3" fill="#3fb950"/><circle cx="285.2" cy="192.9" r="3" fill="#3fb950"/><circle cx="290.2" cy="192.9" r="3" fill="#3fb950"/><circle cx="295.2" cy="190.7" r="3" fill="#3fb950"/><circle cx="300.2" cy="190.7" r="3" fill="#3fb950"/><circle cx="305.1" cy="190.7" r="3" fill="#3fb950"/><circle cx="310.1" cy="190.7" r="3" fill="#3fb950"/><circle cx="315.1" cy="190.7" r="3" fill="#3fb950"/><circle cx="320.1" cy="190.5" r="3" fill="#3fb950"/><circle cx="325.1" cy="190.5" r="3" fill="#3fb950"/><circle cx="330.1" cy="190.5" r="3" fill="#3fb950"/><circle cx="335.0" cy="190.3" r="3" fill="#3fb950"/><circle cx="340.0" cy="190.3" r="3" fill="#3fb950"/><circle cx="345.0" cy="190.3" r="3" fill="#3fb950"/><circle cx="350.0" cy="190.3" r="3" fill="#3fb950"/><circle cx="355.0" cy="190.3" r="3" fill="#3fb950"/><circle cx="360.0" cy="190.3" r="3" fill="#3fb950"/><circle cx="365.0" cy="190.3" r="3" fill="#3fb950"/><circle cx="369.9" cy="190.3" r="3" fill="#3fb950"/><circle cx="374.9" cy="190.3" r="3" fill="#3fb950"/><circle cx="379.9" cy="190.3" r="3" fill="#3fb950"/><circle cx="384.9" cy="190.3" r="3" fill="#3fb950"/><circle cx="389.9" cy="190.3" r="3" fill="#3fb950"/><circle cx="394.9" cy="190.3" r="3" fill="#3fb950"/><circle cx="399.8" cy="190.3" r="3" fill="#3fb950"/><circle cx="404.8" cy="190.3" r="3" fill="#3fb950"/><circle cx="409.8" cy="190.3" r="3" fill="#3fb950"/><circle cx="414.8" cy="190.3" r="3" fill="#3fb950"/><circle cx="419.8" cy="190.3" r="3" fill="#3fb950"/><circle cx="424.8" cy="190.3" r="3" fill="#3fb950"/><circle cx="429.7" cy="190.3" r="3" fill="#3fb950"/><circle cx="434.7" cy="190.3" r="3" fill="#3fb950"/><circle cx="439.7" cy="189.3" r="3" fill="#3fb950"/><circle cx="444.7" cy="189.3" r="3" fill="#3fb950"/><circle cx="449.7" cy="189.3" r="3" fill="#3fb950"/><circle cx="454.7" cy="190.7" r="3" fill="#3fb950"/><circle cx="459.7" cy="190.7" r="3" fill="#3fb950"/><circle cx="464.6" cy="190.7" r="3" fill="#3fb950"/><circle cx="469.6" cy="190.7" r="3" fill="#3fb950"/><circle cx="474.6" cy="190.7" r="3" fill="#3fb950"/><circle cx="479.6" cy="190.7" r="3" fill="#3fb950"/><circle cx="484.6" cy="190.7" r="3" fill="#3fb950"/><circle cx="489.6" cy="190.7" r="3" fill="#3fb950"/><circle cx="494.5" cy="190.7" r="3" fill="#3fb950"/><circle cx="499.5" cy="190.9" r="3" fill="#3fb950"/><circle cx="504.5" cy="190.9" r="3" fill="#3fb950"/><circle cx="509.5" cy="190.9" r="3" fill="#3fb950"/><circle cx="514.5" cy="194.2" r="3" fill="#3fb950"/><circle cx="519.5" cy="196.8" r="3" fill="#3fb950"/><circle cx="524.4" cy="198.0" r="3" fill="#3fb950"/><circle cx="529.4" cy="198.0" r="3" fill="#3fb950"/><circle cx="534.4" cy="198.0" r="3" fill="#3fb950"/><circle cx="539.4" cy="198.0" r="3" fill="#3fb950"/><circle cx="544.4" cy="198.0" r="3" fill="#3fb950"/><circle cx="549.4" cy="198.0" r="3" fill="#3fb950"/><circle cx="554.3" cy="198.0" r="3" fill="#3fb950"/><circle cx="559.3" cy="198.0" r="3" fill="#3fb950"/><circle cx="564.3" cy="198.0" r="3" fill="#3fb950"/><circle cx="569.3" cy="198.0" r="3" fill="#3fb950"/><circle cx="574.3" cy="198.0" r="3" fill="#3fb950"/><circle cx="579.3" cy="198.0" r="3" fill="#3fb950"/><circle cx="584.3" cy="198.0" r="3" fill="#3fb950"/><circle cx="589.2" cy="198.0" r="3" fill="#3fb950"/><circle cx="594.2" cy="198.0" r="3" fill="#3fb950"/><circle cx="599.2" cy="198.0" r="3" fill="#3fb950"/><circle cx="604.2" cy="198.0" r="3" fill="#3fb950"/><circle cx="609.2" cy="198.0" r="3" fill="#3fb950"/><circle cx="614.2" cy="198.0" r="3" fill="#3fb950"/><circle cx="619.1" cy="198.0" r="3" fill="#3fb950"/><circle cx="624.1" cy="198.0" r="3" fill="#3fb950"/><circle cx="629.1" cy="198.0" r="3" fill="#3fb950"/><circle cx="634.1" cy="198.0" r="3" fill="#3fb950"/><circle cx="639.1" cy="198.0" r="3" fill="#3fb950"/><circle cx="644.1" cy="198.0" r="3" fill="#3fb950"/><circle cx="649.0" cy="198.0" r="3" fill="#3fb950"/><circle cx="654.0" cy="198.0" r="3" fill="#3fb950"/><circle cx="659.0" cy="198.0" r="3" fill="#3fb950"/><circle cx="664.0" cy="198.0" r="3" fill="#3fb950"/>
<polyline fill="none" stroke="#4aa3ff" stroke-width="2.5" stroke-linejoin="round" points="36.0,144.3 41.0,144.3 46.0,144.3 51.0,144.3 55.9,144.3 60.9,144.3 65.9,144.3 70.9,144.3 75.9,144.3 80.9,144.3 85.8,144.3 90.8,144.3 95.8,144.3 100.8,144.3 105.8,144.3 110.8,136.2 115.7,132.4 120.7,129.6 125.7,129.6 130.7,121.0 135.7,121.0 140.7,121.0 145.7,114.4 150.6,114.4 155.6,114.4 160.6,111.3 165.6,110.9 170.6,110.9 175.6,110.5 180.5,110.5 185.5,109.9 190.5,108.7 195.5,107.3 200.5,106.9 205.5,106.9 210.4,106.9 215.4,106.9 220.4,106.9 225.4,106.9 230.4,106.9 235.4,106.9 240.3,106.9 245.3,106.9 250.3,113.2 255.3,113.2 260.3,113.2 265.3,113.2 270.3,113.2 275.2,110.7 280.2,105.3 285.2,83.4 290.2,83.4 295.2,85.6 300.2,85.6 305.1,85.6 310.1,85.6 315.1,85.6 320.1,85.8 325.1,85.8 330.1,85.8 335.0,86.0 340.0,86.0 345.0,86.0 350.0,86.0 355.0,86.0 360.0,86.0 365.0,86.0 369.9,86.0 374.9,86.0 379.9,86.0 384.9,86.0 389.9,86.0 394.9,86.0 399.8,86.0 404.8,86.0 409.8,86.0 414.8,86.0 419.8,86.0 424.8,86.0 429.7,86.0 434.7,86.0 439.7,87.0 444.7,87.0 449.7,87.0 454.7,73.7 459.7,73.7 464.6,71.0 469.6,71.0 474.6,70.8 479.6,70.6 484.6,70.6 489.6,70.4 494.5,68.6 499.5,60.5 504.5,59.3 509.5,52.0 514.5,47.3 519.5,40.1 524.4,36.0 529.4,36.0 534.4,36.0 539.4,36.0 544.4,36.0 549.4,36.0 554.3,36.0 559.3,36.0 564.3,36.0 569.3,36.0 574.3,36.0 579.3,36.0 584.3,36.0 589.2,36.0 594.2,36.0 599.2,36.0 604.2,36.0 609.2,36.0 614.2,36.0 619.1,36.0 624.1,36.0 629.1,36.0 634.1,36.0 639.1,36.0 644.1,36.0 649.0,36.0 654.0,36.0 659.0,36.0 664.0,36.0"/><circle cx="36.0" cy="144.3" r="3" fill="#4aa3ff"/><circle cx="41.0" cy="144.3" r="3" fill="#4aa3ff"/><circle cx="46.0" cy="144.3" r="3" fill="#4aa3ff"/><circle cx="51.0" cy="144.3" r="3" fill="#4aa3ff"/><circle cx="55.9" cy="144.3" r="3" fill="#4aa3ff"/><circle cx="60.9" cy="144.3" r="3" fill="#4aa3ff"/><circle cx="65.9" cy="144.3" r="3" fill="#4aa3ff"/><circle cx="70.9" cy="144.3" r="3" fill="#4aa3ff"/><circle cx="75.9" cy="144.3" r="3" fill="#4aa3ff"/><circle cx="80.9" cy="144.3" r="3" fill="#4aa3ff"/><circle cx="85.8" cy="144.3" r="3" fill="#4aa3ff"/><circle cx="90.8" cy="144.3" r="3" fill="#4aa3ff"/><circle cx="95.8" cy="144.3" r="3" fill="#4aa3ff"/><circle cx="100.8" cy="144.3" r="3" fill="#4aa3ff"/><circle cx="105.8" cy="144.3" r="3" fill="#4aa3ff"/><circle cx="110.8" cy="136.2" r="3" fill="#4aa3ff"/><circle cx="115.7" cy="132.4" r="3" fill="#4aa3ff"/><circle cx="120.7" cy="129.6" r="3" fill="#4aa3ff"/><circle cx="125.7" cy="129.6" r="3" fill="#4aa3ff"/><circle cx="130.7" cy="121.0" r="3" fill="#4aa3ff"/><circle cx="135.7" cy="121.0" r="3" fill="#4aa3ff"/><circle cx="140.7" cy="121.0" r="3" fill="#4aa3ff"/><circle cx="145.7" cy="114.4" r="3" fill="#4aa3ff"/><circle cx="150.6" cy="114.4" r="3" fill="#4aa3ff"/><circle cx="155.6" cy="114.4" r="3" fill="#4aa3ff"/><circle cx="160.6" cy="111.3" r="3" fill="#4aa3ff"/><circle cx="165.6" cy="110.9" r="3" fill="#4aa3ff"/><circle cx="170.6" cy="110.9" r="3" fill="#4aa3ff"/><circle cx="175.6" cy="110.5" r="3" fill="#4aa3ff"/><circle cx="180.5" cy="110.5" r="3" fill="#4aa3ff"/><circle cx="185.5" cy="109.9" r="3" fill="#4aa3ff"/><circle cx="190.5" cy="108.7" r="3" fill="#4aa3ff"/><circle cx="195.5" cy="107.3" r="3" fill="#4aa3ff"/><circle cx="200.5" cy="106.9" r="3" fill="#4aa3ff"/><circle cx="205.5" cy="106.9" r="3" fill="#4aa3ff"/><circle cx="210.4" cy="106.9" r="3" fill="#4aa3ff"/><circle cx="215.4" cy="106.9" r="3" fill="#4aa3ff"/><circle cx="220.4" cy="106.9" r="3" fill="#4aa3ff"/><circle cx="225.4" cy="106.9" r="3" fill="#4aa3ff"/><circle cx="230.4" cy="106.9" r="3" fill="#4aa3ff"/><circle cx="235.4" cy="106.9" r="3" fill="#4aa3ff"/><circle cx="240.3" cy="106.9" r="3" fill="#4aa3ff"/><circle cx="245.3" cy="106.9" r="3" fill="#4aa3ff"/><circle cx="250.3" cy="113.2" r="3" fill="#4aa3ff"/><circle cx="255.3" cy="113.2" r="3" fill="#4aa3ff"/><circle cx="260.3" cy="113.2" r="3" fill="#4aa3ff"/><circle cx="265.3" cy="113.2" r="3" fill="#4aa3ff"/><circle cx="270.3" cy="113.2" r="3" fill="#4aa3ff"/><circle cx="275.2" cy="110.7" r="3" fill="#4aa3ff"/><circle cx="280.2" cy="105.3" r="3" fill="#4aa3ff"/><circle cx="285.2" cy="83.4" r="3" fill="#4aa3ff"/><circle cx="290.2" cy="83.4" r="3" fill="#4aa3ff"/><circle cx="295.2" cy="85.6" r="3" fill="#4aa3ff"/><circle cx="300.2" cy="85.6" r="3" fill="#4aa3ff"/><circle cx="305.1" cy="85.6" r="3" fill="#4aa3ff"/><circle cx="310.1" cy="85.6" r="3" fill="#4aa3ff"/><circle cx="315.1" cy="85.6" r="3" fill="#4aa3ff"/><circle cx="320.1" cy="85.8" r="3" fill="#4aa3ff"/><circle cx="325.1" cy="85.8" r="3" fill="#4aa3ff"/><circle cx="330.1" cy="85.8" r="3" fill="#4aa3ff"/><circle cx="335.0" cy="86.0" r="3" fill="#4aa3ff"/><circle cx="340.0" cy="86.0" r="3" fill="#4aa3ff"/><circle cx="345.0" cy="86.0" r="3" fill="#4aa3ff"/><circle cx="350.0" cy="86.0" r="3" fill="#4aa3ff"/><circle cx="355.0" cy="86.0" r="3" fill="#4aa3ff"/><circle cx="360.0" cy="86.0" r="3" fill="#4aa3ff"/><circle cx="365.0" cy="86.0" r="3" fill="#4aa3ff"/><circle cx="369.9" cy="86.0" r="3" fill="#4aa3ff"/><circle cx="374.9" cy="86.0" r="3" fill="#4aa3ff"/><circle cx="379.9" cy="86.0" r="3" fill="#4aa3ff"/><circle cx="384.9" cy="86.0" r="3" fill="#4aa3ff"/><circle cx="389.9" cy="86.0" r="3" fill="#4aa3ff"/><circle cx="394.9" cy="86.0" r="3" fill="#4aa3ff"/><circle cx="399.8" cy="86.0" r="3" fill="#4aa3ff"/><circle cx="404.8" cy="86.0" r="3" fill="#4aa3ff"/><circle cx="409.8" cy="86.0" r="3" fill="#4aa3ff"/><circle cx="414.8" cy="86.0" r="3" fill="#4aa3ff"/><circle cx="419.8" cy="86.0" r="3" fill="#4aa3ff"/><circle cx="424.8" cy="86.0" r="3" fill="#4aa3ff"/><circle cx="429.7" cy="86.0" r="3" fill="#4aa3ff"/><circle cx="434.7" cy="86.0" r="3" fill="#4aa3ff"/><circle cx="439.7" cy="87.0" r="3" fill="#4aa3ff"/><circle cx="444.7" cy="87.0" r="3" fill="#4aa3ff"/><circle cx="449.7" cy="87.0" r="3" fill="#4aa3ff"/><circle cx="454.7" cy="73.7" r="3" fill="#4aa3ff"/><circle cx="459.7" cy="73.7" r="3" fill="#4aa3ff"/><circle cx="464.6" cy="71.0" r="3" fill="#4aa3ff"/><circle cx="469.6" cy="71.0" r="3" fill="#4aa3ff"/><circle cx="474.6" cy="70.8" r="3" fill="#4aa3ff"/><circle cx="479.6" cy="70.6" r="3" fill="#4aa3ff"/><circle cx="484.6" cy="70.6" r="3" fill="#4aa3ff"/><circle cx="489.6" cy="70.4" r="3" fill="#4aa3ff"/><circle cx="494.5" cy="68.6" r="3" fill="#4aa3ff"/><circle cx="499.5" cy="60.5" r="3" fill="#4aa3ff"/><circle cx="504.5" cy="59.3" r="3" fill="#4aa3ff"/><circle cx="509.5" cy="52.0" r="3" fill="#4aa3ff"/><circle cx="514.5" cy="47.3" r="3" fill="#4aa3ff"/><circle cx="519.5" cy="40.1" r="3" fill="#4aa3ff"/><circle cx="524.4" cy="36.0" r="3" fill="#4aa3ff"/><circle cx="529.4" cy="36.0" r="3" fill="#4aa3ff"/><circle cx="534.4" cy="36.0" r="3" fill="#4aa3ff"/><circle cx="539.4" cy="36.0" r="3" fill="#4aa3ff"/><circle cx="544.4" cy="36.0" r="3" fill="#4aa3ff"/><circle cx="549.4" cy="36.0" r="3" fill="#4aa3ff"/><circle cx="554.3" cy="36.0" r="3" fill="#4aa3ff"/><circle cx="559.3" cy="36.0" r="3" fill="#4aa3ff"/><circle cx="564.3" cy="36.0" r="3" fill="#4aa3ff"/><circle cx="569.3" cy="36.0" r="3" fill="#4aa3ff"/><circle cx="574.3" cy="36.0" r="3" fill="#4aa3ff"/><circle cx="579.3" cy="36.0" r="3" fill="#4aa3ff"/><circle cx="584.3" cy="36.0" r="3" fill="#4aa3ff"/><circle cx="589.2" cy="36.0" r="3" fill="#4aa3ff"/><circle cx="594.2" cy="36.0" r="3" fill="#4aa3ff"/><circle cx="599.2" cy="36.0" r="3" fill="#4aa3ff"/><circle cx="604.2" cy="36.0" r="3" fill="#4aa3ff"/><circle cx="609.2" cy="36.0" r="3" fill="#4aa3ff"/><circle cx="614.2" cy="36.0" r="3" fill="#4aa3ff"/><circle cx="619.1" cy="36.0" r="3" fill="#4aa3ff"/><circle cx="624.1" cy="36.0" r="3" fill="#4aa3ff"/><circle cx="629.1" cy="36.0" r="3" fill="#4aa3ff"/><circle cx="634.1" cy="36.0" r="3" fill="#4aa3ff"/><circle cx="639.1" cy="36.0" r="3" fill="#4aa3ff"/><circle cx="644.1" cy="36.0" r="3" fill="#4aa3ff"/><circle cx="649.0" cy="36.0" r="3" fill="#4aa3ff"/><circle cx="654.0" cy="36.0" r="3" fill="#4aa3ff"/><circle cx="659.0" cy="36.0" r="3" fill="#4aa3ff"/><circle cx="664.0" cy="36.0" r="3" fill="#4aa3ff"/>
<text x="36" y="225" fill="#6b7280" font-size="11">2026-06-26</text>
<text x="664" y="225" fill="#6b7280" font-size="11" text-anchor="end">2026-07-10</text>
<text x="36" y="212" font-family="system-ui,sans-serif" font-size="11">
<tspan fill="#4aa3ff">&#9679; open FPs</tspan>  <tspan fill="#3fb950">&#9679; closed (Anthropic acting)</tspan>  <tspan fill="#8a5a5a">&#9679; harness withdrawn</tspan></text>
<text x="664" y="22" text-anchor="end" font-family="system-ui,sans-serif" font-size="12">
<tspan fill="#4aa3ff">open 800</tspan>  <tspan fill="#3fb950">closed 0</tspan>  <tspan fill="#8a5a5a">harness 0</tspan></text>
</svg>