<svg xmlns="http://www.w3.org/2000/svg" width="700" height="234" viewBox="0 0 700 234" role="img">
<rect width="700" height="234" rx="12" fill="#16181d"/>
<text x="36" y="22" fill="#e8eaed" font-family="system-ui,sans-serif" font-size="14" font-weight="700">Is Anthropic acting? cyber/aup false positives over time</text>
<line x1="36" y1="198.0" x2="664" y2="198.0" stroke="#2a2e37" stroke-width="1"/><text x="30" y="202.0" fill="#6b7280" font-size="11" text-anchor="end">0</text><line x1="36" y1="117.0" x2="664" y2="117.0" stroke="#2a2e37" stroke-width="1"/><text x="30" y="121.0" fill="#6b7280" font-size="11" text-anchor="end">400</text><line x1="36" y1="36.0" x2="664" y2="36.0" stroke="#2a2e37" stroke-width="1"/><text x="30" y="40.0" fill="#6b7280" font-size="11" text-anchor="end">800</text>

<polyline fill="none" stroke="#8a5a5a" stroke-width="2.5" stroke-linejoin="round" points="36.0,145.1 40.8,145.1 45.5,145.1 50.3,145.1 55.0,145.1 59.8,145.1 64.5,145.1 69.3,145.1 74.1,145.1 78.8,145.1 83.6,145.1 88.3,145.1 93.1,145.1 97.8,145.1 102.6,145.1 107.4,145.1 112.1,145.1 116.9,145.1 121.6,145.1 126.4,145.1 131.2,145.1 135.9,145.1 140.7,145.1 145.4,145.1 150.2,145.1 154.9,145.1 159.7,145.1 164.5,145.1 169.2,145.1 174.0,145.1 178.7,145.1 183.5,145.1 188.2,145.1 193.0,145.1 197.8,145.1 202.5,145.1 207.3,145.1 212.0,145.1 216.8,145.1 221.5,145.1 226.3,145.1 231.1,145.1 235.8,145.1 240.6,145.1 245.3,145.1 250.1,145.1 254.8,145.1 259.6,145.1 264.4,145.1 269.1,145.1 273.9,155.7 278.6,155.7 283.4,155.7 288.2,155.7 292.9,155.7 297.7,155.7 302.4,155.7 307.2,155.7 311.9,155.7 316.7,155.7 321.5,155.7 326.2,155.7 331.0,155.7 335.7,155.7 340.5,155.7 345.2,155.7 350.0,155.7 354.8,155.7 359.5,155.7 364.3,155.7 369.0,155.7 373.8,155.7 378.5,155.7 383.3,155.7 388.1,155.7 392.8,155.7 397.6,155.7 402.3,155.7 407.1,155.7 411.8,155.7 416.6,155.7 421.4,155.7 426.1,155.7 430.9,155.7 435.6,167.6 440.4,167.6 445.2,170.3 449.9,170.3 454.7,170.5 459.4,170.7 464.2,170.7 468.9,170.9 473.7,172.7 478.5,180.6 483.2,181.8 488.0,189.1 492.7,190.5 497.5,195.2 502.2,198.0 507.0,198.0 511.8,198.0 516.5,198.0 521.3,198.0 526.0,198.0 530.8,198.0 535.5,198.0 540.3,198.0 545.1,198.0 549.8,198.0 554.6,198.0 559.3,198.0 564.1,198.0 568.8,198.0 573.6,198.0 578.4,198.0 583.1,198.0 587.9,198.0 592.6,198.0 597.4,198.0 602.2,198.0 606.9,198.0 611.7,198.0 616.4,198.0 621.2,198.0 625.9,198.0 630.7,198.0 635.5,198.0 640.2,198.0 645.0,198.0 649.7,198.0 654.5,198.0 659.2,198.0 664.0,198.0"/><circle cx="36.0" cy="145.1" r="3" fill="#8a5a5a"/><circle cx="40.8" cy="145.1" r="3" fill="#8a5a5a"/><circle cx="45.5" cy="145.1" r="3" fill="#8a5a5a"/><circle cx="50.3" cy="145.1" r="3" fill="#8a5a5a"/><circle cx="55.0" cy="145.1" r="3" fill="#8a5a5a"/><circle cx="59.8" cy="145.1" r="3" fill="#8a5a5a"/><circle cx="64.5" cy="145.1" r="3" fill="#8a5a5a"/><circle cx="69.3" cy="145.1" r="3" fill="#8a5a5a"/><circle cx="74.1" cy="145.1" r="3" fill="#8a5a5a"/><circle cx="78.8" cy="145.1" r="3" fill="#8a5a5a"/><circle cx="83.6" cy="145.1" r="3" fill="#8a5a5a"/><circle cx="88.3" cy="145.1" r="3" fill="#8a5a5a"/><circle cx="93.1" cy="145.1" r="3" fill="#8a5a5a"/><circle cx="97.8" cy="145.1" r="3" fill="#8a5a5a"/><circle cx="102.6" cy="145.1" r="3" fill="#8a5a5a"/><circle cx="107.4" cy="145.1" r="3" fill="#8a5a5a"/><circle cx="112.1" cy="145.1" r="3" fill="#8a5a5a"/><circle cx="116.9" cy="145.1" r="3" fill="#8a5a5a"/><circle cx="121.6" cy="145.1" r="3" fill="#8a5a5a"/><circle cx="126.4" cy="145.1" r="3" fill="#8a5a5a"/><circle cx="131.2" cy="145.1" r="3" fill="#8a5a5a"/><circle cx="135.9" cy="145.1" r="3" fill="#8a5a5a"/><circle cx="140.7" cy="145.1" r="3" fill="#8a5a5a"/><circle cx="145.4" cy="145.1" r="3" fill="#8a5a5a"/><circle cx="150.2" cy="145.1" r="3" fill="#8a5a5a"/><circle cx="154.9" cy="145.1" r="3" fill="#8a5a5a"/><circle cx="159.7" cy="145.1" r="3" fill="#8a5a5a"/><circle cx="164.5" cy="145.1" r="3" fill="#8a5a5a"/><circle cx="169.2" cy="145.1" r="3" fill="#8a5a5a"/><circle cx="174.0" cy="145.1" r="3" fill="#8a5a5a"/><circle cx="178.7" cy="145.1" r="3" fill="#8a5a5a"/><circle cx="183.5" cy="145.1" r="3" fill="#8a5a5a"/><circle cx="188.2" cy="145.1" r="3" fill="#8a5a5a"/><circle cx="193.0" cy="145.1" r="3" fill="#8a5a5a"/><circle cx="197.8" cy="145.1" r="3" fill="#8a5a5a"/><circle cx="202.5" cy="145.1" r="3" fill="#8a5a5a"/><circle cx="207.3" cy="145.1" r="3" fill="#8a5a5a"/><circle cx="212.0" cy="145.1" r="3" fill="#8a5a5a"/><circle cx="216.8" cy="145.1" r="3" fill="#8a5a5a"/><circle cx="221.5" cy="145.1" r="3" fill="#8a5a5a"/><circle cx="226.3" cy="145.1" r="3" fill="#8a5a5a"/><circle cx="231.1" cy="145.1" r="3" fill="#8a5a5a"/><circle cx="235.8" cy="145.1" r="3" fill="#8a5a5a"/><circle cx="240.6" cy="145.1" r="3" fill="#8a5a5a"/><circle cx="245.3" cy="145.1" r="3" fill="#8a5a5a"/><circle cx="250.1" cy="145.1" r="3" fill="#8a5a5a"/><circle cx="254.8" cy="145.1" r="3" fill="#8a5a5a"/><circle cx="259.6" cy="145.1" r="3" fill="#8a5a5a"/><circle cx="264.4" cy="145.1" r="3" fill="#8a5a5a"/><circle cx="269.1" cy="145.1" r="3" fill="#8a5a5a"/><circle cx="273.9" cy="155.7" r="3" fill="#8a5a5a"/><circle cx="278.6" cy="155.7" r="3" fill="#8a5a5a"/><circle cx="283.4" cy="155.7" r="3" fill="#8a5a5a"/><circle cx="288.2" cy="155.7" r="3" fill="#8a5a5a"/><circle cx="292.9" cy="155.7" r="3" fill="#8a5a5a"/><circle cx="297.7" cy="155.7" r="3" fill="#8a5a5a"/><circle cx="302.4" cy="155.7" r="3" fill="#8a5a5a"/><circle cx="307.2" cy="155.7" r="3" fill="#8a5a5a"/><circle cx="311.9" cy="155.7" r="3" fill="#8a5a5a"/><circle cx="316.7" cy="155.7" r="3" fill="#8a5a5a"/><circle cx="321.5" cy="155.7" r="3" fill="#8a5a5a"/><circle cx="326.2" cy="155.7" r="3" fill="#8a5a5a"/><circle cx="331.0" cy="155.7" r="3" fill="#8a5a5a"/><circle cx="335.7" cy="155.7" r="3" fill="#8a5a5a"/><circle cx="340.5" cy="155.7" r="3" fill="#8a5a5a"/><circle cx="345.2" cy="155.7" r="3" fill="#8a5a5a"/><circle cx="350.0" cy="155.7" r="3" fill="#8a5a5a"/><circle cx="354.8" cy="155.7" r="3" fill="#8a5a5a"/><circle cx="359.5" cy="155.7" r="3" fill="#8a5a5a"/><circle cx="364.3" cy="155.7" r="3" fill="#8a5a5a"/><circle cx="369.0" cy="155.7" r="3" fill="#8a5a5a"/><circle cx="373.8" cy="155.7" r="3" fill="#8a5a5a"/><circle cx="378.5" cy="155.7" r="3" fill="#8a5a5a"/><circle cx="383.3" cy="155.7" r="3" fill="#8a5a5a"/><circle cx="388.1" cy="155.7" r="3" fill="#8a5a5a"/><circle cx="392.8" cy="155.7" r="3" fill="#8a5a5a"/><circle cx="397.6" cy="155.7" r="3" fill="#8a5a5a"/><circle cx="402.3" cy="155.7" r="3" fill="#8a5a5a"/><circle cx="407.1" cy="155.7" r="3" fill="#8a5a5a"/><circle cx="411.8" cy="155.7" r="3" fill="#8a5a5a"/><circle cx="416.6" cy="155.7" r="3" fill="#8a5a5a"/><circle cx="421.4" cy="155.7" r="3" fill="#8a5a5a"/><circle cx="426.1" cy="155.7" r="3" fill="#8a5a5a"/><circle cx="430.9" cy="155.7" r="3" fill="#8a5a5a"/><circle cx="435.6" cy="167.6" r="3" fill="#8a5a5a"/><circle cx="440.4" cy="167.6" r="3" fill="#8a5a5a"/><circle cx="445.2" cy="170.3" r="3" fill="#8a5a5a"/><circle cx="449.9" cy="170.3" r="3" fill="#8a5a5a"/><circle cx="454.7" cy="170.5" r="3" fill="#8a5a5a"/><circle cx="459.4" cy="170.7" r="3" fill="#8a5a5a"/><circle cx="464.2" cy="170.7" r="3" fill="#8a5a5a"/><circle cx="468.9" cy="170.9" r="3" fill="#8a5a5a"/><circle cx="473.7" cy="172.7" r="3" fill="#8a5a5a"/><circle cx="478.5" cy="180.6" r="3" fill="#8a5a5a"/><circle cx="483.2" cy="181.8" r="3" fill="#8a5a5a"/><circle cx="488.0" cy="189.1" r="3" fill="#8a5a5a"/><circle cx="492.7" cy="190.5" r="3" fill="#8a5a5a"/><circle cx="497.5" cy="195.2" r="3" fill="#8a5a5a"/><circle cx="502.2" cy="198.0" r="3" fill="#8a5a5a"/><circle cx="507.0" cy="198.0" r="3" fill="#8a5a5a"/><circle cx="511.8" cy="198.0" r="3" fill="#8a5a5a"/><circle cx="516.5" cy="198.0" r="3" fill="#8a5a5a"/><circle cx="521.3" cy="198.0" r="3" fill="#8a5a5a"/><circle cx="526.0" cy="198.0" r="3" fill="#8a5a5a"/><circle cx="530.8" cy="198.0" r="3" fill="#8a5a5a"/><circle cx="535.5" cy="198.0" r="3" fill="#8a5a5a"/><circle cx="540.3" cy="198.0" r="3" fill="#8a5a5a"/><circle cx="545.1" cy="198.0" r="3" fill="#8a5a5a"/><circle cx="549.8" cy="198.0" r="3" fill="#8a5a5a"/><circle cx="554.6" cy="198.0" r="3" fill="#8a5a5a"/><circle cx="559.3" cy="198.0" r="3" fill="#8a5a5a"/><circle cx="564.1" cy="198.0" r="3" fill="#8a5a5a"/><circle cx="568.8" cy="198.0" r="3" fill="#8a5a5a"/><circle cx="573.6" cy="198.0" r="3" fill="#8a5a5a"/><circle cx="578.4" cy="198.0" r="3" fill="#8a5a5a"/><circle cx="583.1" cy="198.0" r="3" fill="#8a5a5a"/><circle cx="587.9" cy="198.0" r="3" fill="#8a5a5a"/><circle cx="592.6" cy="198.0" r="3" fill="#8a5a5a"/><circle cx="597.4" cy="198.0" r="3" fill="#8a5a5a"/><circle cx="602.2" cy="198.0" r="3" fill="#8a5a5a"/><circle cx="606.9" cy="198.0" r="3" fill="#8a5a5a"/><circle cx="611.7" cy="198.0" r="3" fill="#8a5a5a"/><circle cx="616.4" cy="198.0" r="3" fill="#8a5a5a"/><circle cx="621.2" cy="198.0" r="3" fill="#8a5a5a"/><circle cx="625.9" cy="198.0" r="3" fill="#8a5a5a"/><circle cx="630.7" cy="198.0" r="3" fill="#8a5a5a"/><circle cx="635.5" cy="198.0" r="3" fill="#8a5a5a"/><circle cx="640.2" cy="198.0" r="3" fill="#8a5a5a"/><circle cx="645.0" cy="198.0" r="3" fill="#8a5a5a"/><circle cx="649.7" cy="198.0" r="3" fill="#8a5a5a"/><circle cx="654.5" cy="198.0" r="3" fill="#8a5a5a"/><circle cx="659.2" cy="198.0" r="3" fill="#8a5a5a"/><circle cx="664.0" cy="198.0" r="3" fill="#8a5a5a"/>
<polyline fill="none" stroke="#3fb950" stroke-width="2.5" stroke-linejoin="round" points="36.0,198.0 40.8,198.0 45.5,198.0 50.3,198.0 55.0,198.0 59.8,198.0 64.5,198.0 69.3,198.0 74.1,198.0 78.8,198.0 83.6,198.0 88.3,198.0 93.1,198.0 97.8,198.0 102.6,198.0 107.4,198.0 112.1,198.0 116.9,198.0 121.6,198.0 126.4,198.0 131.2,198.0 135.9,198.0 140.7,198.0 145.4,198.0 150.2,198.0 154.9,198.0 159.7,198.0 164.5,198.0 169.2,198.0 174.0,198.0 178.7,198.0 183.5,198.0 188.2,198.0 193.0,198.0 197.8,198.0 202.5,198.0 207.3,198.0 212.0,198.0 216.8,198.0 221.5,198.0 226.3,198.0 231.1,198.0 235.8,198.0 240.6,191.7 245.3,191.7 250.1,191.7 254.8,191.7 259.6,191.7 264.4,191.7 269.1,191.7 273.9,192.9 278.6,192.9 283.4,190.7 288.2,190.7 292.9,190.7 297.7,190.7 302.4,190.7 307.2,190.5 311.9,190.5 316.7,190.5 321.5,190.3 326.2,190.3 331.0,190.3 335.7,190.3 340.5,190.3 345.2,190.3 350.0,190.3 354.8,190.3 359.5,190.3 364.3,190.3 369.0,190.3 373.8,190.3 378.5,190.3 383.3,190.3 388.1,190.3 392.8,190.3 397.6,190.3 402.3,190.3 407.1,190.3 411.8,190.3 416.6,190.3 421.4,189.3 426.1,189.3 430.9,189.3 435.6,190.7 440.4,190.7 445.2,190.7 449.9,190.7 454.7,190.7 459.4,190.7 464.2,190.7 468.9,190.7 473.7,190.7 478.5,190.9 483.2,190.9 488.0,190.9 492.7,194.2 497.5,196.8 502.2,198.0 507.0,198.0 511.8,198.0 516.5,198.0 521.3,198.0 526.0,198.0 530.8,198.0 535.5,198.0 540.3,198.0 545.1,198.0 549.8,198.0 554.6,198.0 559.3,198.0 564.1,198.0 568.8,198.0 573.6,198.0 578.4,198.0 583.1,198.0 587.9,198.0 592.6,198.0 597.4,198.0 602.2,198.0 606.9,198.0 611.7,198.0 616.4,198.0 621.2,198.0 625.9,198.0 630.7,198.0 635.5,198.0 640.2,198.0 645.0,198.0 649.7,198.0 654.5,198.0 659.2,198.0 664.0,198.0"/><circle cx="36.0" cy="198.0" r="3" fill="#3fb950"/><circle cx="40.8" cy="198.0" r="3" fill="#3fb950"/><circle cx="45.5" cy="198.0" r="3" fill="#3fb950"/><circle cx="50.3" cy="198.0" r="3" fill="#3fb950"/><circle cx="55.0" cy="198.0" r="3" fill="#3fb950"/><circle cx="59.8" cy="198.0" r="3" fill="#3fb950"/><circle cx="64.5" cy="198.0" r="3" fill="#3fb950"/><circle cx="69.3" cy="198.0" r="3" fill="#3fb950"/><circle cx="74.1" cy="198.0" r="3" fill="#3fb950"/><circle cx="78.8" cy="198.0" r="3" fill="#3fb950"/><circle cx="83.6" cy="198.0" r="3" fill="#3fb950"/><circle cx="88.3" cy="198.0" r="3" fill="#3fb950"/><circle cx="93.1" cy="198.0" r="3" fill="#3fb950"/><circle cx="97.8" cy="198.0" r="3" fill="#3fb950"/><circle cx="102.6" cy="198.0" r="3" fill="#3fb950"/><circle cx="107.4" cy="198.0" r="3" fill="#3fb950"/><circle cx="112.1" cy="198.0" r="3" fill="#3fb950"/><circle cx="116.9" cy="198.0" r="3" fill="#3fb950"/><circle cx="121.6" cy="198.0" r="3" fill="#3fb950"/><circle cx="126.4" cy="198.0" r="3" fill="#3fb950"/><circle cx="131.2" cy="198.0" r="3" fill="#3fb950"/><circle cx="135.9" cy="198.0" r="3" fill="#3fb950"/><circle cx="140.7" cy="198.0" r="3" fill="#3fb950"/><circle cx="145.4" cy="198.0" r="3" fill="#3fb950"/><circle cx="150.2" cy="198.0" r="3" fill="#3fb950"/><circle cx="154.9" cy="198.0" r="3" fill="#3fb950"/><circle cx="159.7" cy="198.0" r="3" fill="#3fb950"/><circle cx="164.5" cy="198.0" r="3" fill="#3fb950"/><circle cx="169.2" cy="198.0" r="3" fill="#3fb950"/><circle cx="174.0" cy="198.0" r="3" fill="#3fb950"/><circle cx="178.7" cy="198.0" r="3" fill="#3fb950"/><circle cx="183.5" cy="198.0" r="3" fill="#3fb950"/><circle cx="188.2" cy="198.0" r="3" fill="#3fb950"/><circle cx="193.0" cy="198.0" r="3" fill="#3fb950"/><circle cx="197.8" cy="198.0" r="3" fill="#3fb950"/><circle cx="202.5" cy="198.0" r="3" fill="#3fb950"/><circle cx="207.3" cy="198.0" r="3" fill="#3fb950"/><circle cx="212.0" cy="198.0" r="3" fill="#3fb950"/><circle cx="216.8" cy="198.0" r="3" fill="#3fb950"/><circle cx="221.5" cy="198.0" r="3" fill="#3fb950"/><circle cx="226.3" cy="198.0" r="3" fill="#3fb950"/><circle cx="231.1" cy="198.0" r="3" fill="#3fb950"/><circle cx="235.8" cy="198.0" r="3" fill="#3fb950"/><circle cx="240.6" cy="191.7" r="3" fill="#3fb950"/><circle cx="245.3" cy="191.7" r="3" fill="#3fb950"/><circle cx="250.1" cy="191.7" r="3" fill="#3fb950"/><circle cx="254.8" cy="191.7" r="3" fill="#3fb950"/><circle cx="259.6" cy="191.7" r="3" fill="#3fb950"/><circle cx="264.4" cy="191.7" r="3" fill="#3fb950"/><circle cx="269.1" cy="191.7" r="3" fill="#3fb950"/><circle cx="273.9" cy="192.9" r="3" fill="#3fb950"/><circle cx="278.6" cy="192.9" r="3" fill="#3fb950"/><circle cx="283.4" cy="190.7" r="3" fill="#3fb950"/><circle cx="288.2" cy="190.7" r="3" fill="#3fb950"/><circle cx="292.9" cy="190.7" r="3" fill="#3fb950"/><circle cx="297.7" cy="190.7" r="3" fill="#3fb950"/><circle cx="302.4" cy="190.7" r="3" fill="#3fb950"/><circle cx="307.2" cy="190.5" r="3" fill="#3fb950"/><circle cx="311.9" cy="190.5" r="3" fill="#3fb950"/><circle cx="316.7" cy="190.5" r="3" fill="#3fb950"/><circle cx="321.5" cy="190.3" r="3" fill="#3fb950"/><circle cx="326.2" cy="190.3" r="3" fill="#3fb950"/><circle cx="331.0" cy="190.3" r="3" fill="#3fb950"/><circle cx="335.7" cy="190.3" r="3" fill="#3fb950"/><circle cx="340.5" cy="190.3" r="3" fill="#3fb950"/><circle cx="345.2" cy="190.3" r="3" fill="#3fb950"/><circle cx="350.0" cy="190.3" r="3" fill="#3fb950"/><circle cx="354.8" cy="190.3" r="3" fill="#3fb950"/><circle cx="359.5" cy="190.3" r="3" fill="#3fb950"/><circle cx="364.3" cy="190.3" r="3" fill="#3fb950"/><circle cx="369.0" cy="190.3" r="3" fill="#3fb950"/><circle cx="373.8" cy="190.3" r="3" fill="#3fb950"/><circle cx="378.5" cy="190.3" r="3" fill="#3fb950"/><circle cx="383.3" cy="190.3" r="3" fill="#3fb950"/><circle cx="388.1" cy="190.3" r="3" fill="#3fb950"/><circle cx="392.8" cy="190.3" r="3" fill="#3fb950"/><circle cx="397.6" cy="190.3" r="3" fill="#3fb950"/><circle cx="402.3" cy="190.3" r="3" fill="#3fb950"/><circle cx="407.1" cy="190.3" r="3" fill="#3fb950"/><circle cx="411.8" cy="190.3" r="3" fill="#3fb950"/><circle cx="416.6" cy="190.3" r="3" fill="#3fb950"/><circle cx="421.4" cy="189.3" r="3" fill="#3fb950"/><circle cx="426.1" cy="189.3" r="3" fill="#3fb950"/><circle cx="430.9" cy="189.3" r="3" fill="#3fb950"/><circle cx="435.6" cy="190.7" r="3" fill="#3fb950"/><circle cx="440.4" cy="190.7" r="3" fill="#3fb950"/><circle cx="445.2" cy="190.7" r="3" fill="#3fb950"/><circle cx="449.9" cy="190.7" r="3" fill="#3fb950"/><circle cx="454.7" cy="190.7" r="3" fill="#3fb950"/><circle cx="459.4" cy="190.7" r="3" fill="#3fb950"/><circle cx="464.2" cy="190.7" r="3" fill="#3fb950"/><circle cx="468.9" cy="190.7" r="3" fill="#3fb950"/><circle cx="473.7" cy="190.7" r="3" fill="#3fb950"/><circle cx="478.5" cy="190.9" r="3" fill="#3fb950"/><circle cx="483.2" cy="190.9" r="3" fill="#3fb950"/><circle cx="488.0" cy="190.9" r="3" fill="#3fb950"/><circle cx="492.7" cy="194.2" r="3" fill="#3fb950"/><circle cx="497.5" cy="196.8" r="3" fill="#3fb950"/><circle cx="502.2" cy="198.0" r="3" fill="#3fb950"/><circle cx="507.0" cy="198.0" r="3" fill="#3fb950"/><circle cx="511.8" cy="198.0" r="3" fill="#3fb950"/><circle cx="516.5" cy="198.0" r="3" fill="#3fb950"/><circle cx="521.3" cy="198.0" r="3" fill="#3fb950"/><circle cx="526.0" cy="198.0" r="3" fill="#3fb950"/><circle cx="530.8" cy="198.0" r="3" fill="#3fb950"/><circle cx="535.5" cy="198.0" r="3" fill="#3fb950"/><circle cx="540.3" cy="198.0" r="3" fill="#3fb950"/><circle cx="545.1" cy="198.0" r="3" fill="#3fb950"/><circle cx="549.8" cy="198.0" r="3" fill="#3fb950"/><circle cx="554.6" cy="198.0" r="3" fill="#3fb950"/><circle cx="559.3" cy="198.0" r="3" fill="#3fb950"/><circle cx="564.1" cy="198.0" r="3" fill="#3fb950"/><circle cx="568.8" cy="198.0" r="3" fill="#3fb950"/><circle cx="573.6" cy="198.0" r="3" fill="#3fb950"/><circle cx="578.4" cy="198.0" r="3" fill="#3fb950"/><circle cx="583.1" cy="198.0" r="3" fill="#3fb950"/><circle cx="587.9" cy="198.0" r="3" fill="#3fb950"/><circle cx="592.6" cy="198.0" r="3" fill="#3fb950"/><circle cx="597.4" cy="198.0" r="3" fill="#3fb950"/><circle cx="602.2" cy="198.0" r="3" fill="#3fb950"/><circle cx="606.9" cy="198.0" r="3" fill="#3fb950"/><circle cx="611.7" cy="198.0" r="3" fill="#3fb950"/><circle cx="616.4" cy="198.0" r="3" fill="#3fb950"/><circle cx="621.2" cy="198.0" r="3" fill="#3fb950"/><circle cx="625.9" cy="198.0" r="3" fill="#3fb950"/><circle cx="630.7" cy="198.0" r="3" fill="#3fb950"/><circle cx="635.5" cy="198.0" r="3" fill="#3fb950"/><circle cx="640.2" cy="198.0" r="3" fill="#3fb950"/><circle cx="645.0" cy="198.0" r="3" fill="#3fb950"/><circle cx="649.7" cy="198.0" r="3" fill="#3fb950"/><circle cx="654.5" cy="198.0" r="3" fill="#3fb950"/><circle cx="659.2" cy="198.0" r="3" fill="#3fb950"/><circle cx="664.0" cy="198.0" r="3" fill="#3fb950"/>
<polyline fill="none" stroke="#4aa3ff" stroke-width="2.5" stroke-linejoin="round" points="36.0,144.3 40.8,144.3 45.5,144.3 50.3,144.3 55.0,144.3 59.8,144.3 64.5,144.3 69.3,144.3 74.1,144.3 78.8,144.3 83.6,144.3 88.3,144.3 93.1,144.3 97.8,144.3 102.6,144.3 107.4,136.2 112.1,132.4 116.9,129.6 121.6,129.6 126.4,121.0 131.2,121.0 135.9,121.0 140.7,114.4 145.4,114.4 150.2,114.4 154.9,111.3 159.7,110.9 164.5,110.9 169.2,110.5 174.0,110.5 178.7,109.9 183.5,108.7 188.2,107.3 193.0,106.9 197.8,106.9 202.5,106.9 207.3,106.9 212.0,106.9 216.8,106.9 221.5,106.9 226.3,106.9 231.1,106.9 235.8,106.9 240.6,113.2 245.3,113.2 250.1,113.2 254.8,113.2 259.6,113.2 264.4,110.7 269.1,105.3 273.9,83.4 278.6,83.4 283.4,85.6 288.2,85.6 292.9,85.6 297.7,85.6 302.4,85.6 307.2,85.8 311.9,85.8 316.7,85.8 321.5,86.0 326.2,86.0 331.0,86.0 335.7,86.0 340.5,86.0 345.2,86.0 350.0,86.0 354.8,86.0 359.5,86.0 364.3,86.0 369.0,86.0 373.8,86.0 378.5,86.0 383.3,86.0 388.1,86.0 392.8,86.0 397.6,86.0 402.3,86.0 407.1,86.0 411.8,86.0 416.6,86.0 421.4,87.0 426.1,87.0 430.9,87.0 435.6,73.7 440.4,73.7 445.2,71.0 449.9,71.0 454.7,70.8 459.4,70.6 464.2,70.6 468.9,70.4 473.7,68.6 478.5,60.5 483.2,59.3 488.0,52.0 492.7,47.3 497.5,40.1 502.2,36.0 507.0,36.0 511.8,36.0 516.5,36.0 521.3,36.0 526.0,36.0 530.8,36.0 535.5,36.0 540.3,36.0 545.1,36.0 549.8,36.0 554.6,36.0 559.3,36.0 564.1,36.0 568.8,36.0 573.6,36.0 578.4,36.0 583.1,36.0 587.9,36.0 592.6,36.0 597.4,36.0 602.2,36.0 606.9,36.0 611.7,36.0 616.4,36.0 621.2,36.0 625.9,36.0 630.7,36.0 635.5,36.0 640.2,36.0 645.0,36.0 649.7,36.0 654.5,36.0 659.2,36.0 664.0,36.0"/><circle cx="36.0" cy="144.3" r="3" fill="#4aa3ff"/><circle cx="40.8" cy="144.3" r="3" fill="#4aa3ff"/><circle cx="45.5" cy="144.3" r="3" fill="#4aa3ff"/><circle cx="50.3" cy="144.3" r="3" fill="#4aa3ff"/><circle cx="55.0" cy="144.3" r="3" fill="#4aa3ff"/><circle cx="59.8" cy="144.3" r="3" fill="#4aa3ff"/><circle cx="64.5" cy="144.3" r="3" fill="#4aa3ff"/><circle cx="69.3" cy="144.3" r="3" fill="#4aa3ff"/><circle cx="74.1" cy="144.3" r="3" fill="#4aa3ff"/><circle cx="78.8" cy="144.3" r="3" fill="#4aa3ff"/><circle cx="83.6" cy="144.3" r="3" fill="#4aa3ff"/><circle cx="88.3" cy="144.3" r="3" fill="#4aa3ff"/><circle cx="93.1" cy="144.3" r="3" fill="#4aa3ff"/><circle cx="97.8" cy="144.3" r="3" fill="#4aa3ff"/><circle cx="102.6" cy="144.3" r="3" fill="#4aa3ff"/><circle cx="107.4" cy="136.2" r="3" fill="#4aa3ff"/><circle cx="112.1" cy="132.4" r="3" fill="#4aa3ff"/><circle cx="116.9" cy="129.6" r="3" fill="#4aa3ff"/><circle cx="121.6" cy="129.6" r="3" fill="#4aa3ff"/><circle cx="126.4" cy="121.0" r="3" fill="#4aa3ff"/><circle cx="131.2" cy="121.0" r="3" fill="#4aa3ff"/><circle cx="135.9" cy="121.0" r="3" fill="#4aa3ff"/><circle cx="140.7" cy="114.4" r="3" fill="#4aa3ff"/><circle cx="145.4" cy="114.4" r="3" fill="#4aa3ff"/><circle cx="150.2" cy="114.4" r="3" fill="#4aa3ff"/><circle cx="154.9" cy="111.3" r="3" fill="#4aa3ff"/><circle cx="159.7" cy="110.9" r="3" fill="#4aa3ff"/><circle cx="164.5" cy="110.9" r="3" fill="#4aa3ff"/><circle cx="169.2" cy="110.5" r="3" fill="#4aa3ff"/><circle cx="174.0" cy="110.5" r="3" fill="#4aa3ff"/><circle cx="178.7" cy="109.9" r="3" fill="#4aa3ff"/><circle cx="183.5" cy="108.7" r="3" fill="#4aa3ff"/><circle cx="188.2" cy="107.3" r="3" fill="#4aa3ff"/><circle cx="193.0" cy="106.9" r="3" fill="#4aa3ff"/><circle cx="197.8" cy="106.9" r="3" fill="#4aa3ff"/><circle cx="202.5" cy="106.9" r="3" fill="#4aa3ff"/><circle cx="207.3" cy="106.9" r="3" fill="#4aa3ff"/><circle cx="212.0" cy="106.9" r="3" fill="#4aa3ff"/><circle cx="216.8" cy="106.9" r="3" fill="#4aa3ff"/><circle cx="221.5" cy="106.9" r="3" fill="#4aa3ff"/><circle cx="226.3" cy="106.9" r="3" fill="#4aa3ff"/><circle cx="231.1" cy="106.9" r="3" fill="#4aa3ff"/><circle cx="235.8" cy="106.9" r="3" fill="#4aa3ff"/><circle cx="240.6" cy="113.2" r="3" fill="#4aa3ff"/><circle cx="245.3" cy="113.2" r="3" fill="#4aa3ff"/><circle cx="250.1" cy="113.2" r="3" fill="#4aa3ff"/><circle cx="254.8" cy="113.2" r="3" fill="#4aa3ff"/><circle cx="259.6" cy="113.2" r="3" fill="#4aa3ff"/><circle cx="264.4" cy="110.7" r="3" fill="#4aa3ff"/><circle cx="269.1" cy="105.3" r="3" fill="#4aa3ff"/><circle cx="273.9" cy="83.4" r="3" fill="#4aa3ff"/><circle cx="278.6" cy="83.4" r="3" fill="#4aa3ff"/><circle cx="283.4" cy="85.6" r="3" fill="#4aa3ff"/><circle cx="288.2" cy="85.6" r="3" fill="#4aa3ff"/><circle cx="292.9" cy="85.6" r="3" fill="#4aa3ff"/><circle cx="297.7" cy="85.6" r="3" fill="#4aa3ff"/><circle cx="302.4" cy="85.6" r="3" fill="#4aa3ff"/><circle cx="307.2" cy="85.8" r="3" fill="#4aa3ff"/><circle cx="311.9" cy="85.8" r="3" fill="#4aa3ff"/><circle cx="316.7" cy="85.8" r="3" fill="#4aa3ff"/><circle cx="321.5" cy="86.0" r="3" fill="#4aa3ff"/><circle cx="326.2" cy="86.0" r="3" fill="#4aa3ff"/><circle cx="331.0" cy="86.0" r="3" fill="#4aa3ff"/><circle cx="335.7" cy="86.0" r="3" fill="#4aa3ff"/><circle cx="340.5" cy="86.0" r="3" fill="#4aa3ff"/><circle cx="345.2" cy="86.0" r="3" fill="#4aa3ff"/><circle cx="350.0" cy="86.0" r="3" fill="#4aa3ff"/><circle cx="354.8" cy="86.0" r="3" fill="#4aa3ff"/><circle cx="359.5" cy="86.0" r="3" fill="#4aa3ff"/><circle cx="364.3" cy="86.0" r="3" fill="#4aa3ff"/><circle cx="369.0" cy="86.0" r="3" fill="#4aa3ff"/><circle cx="373.8" cy="86.0" r="3" fill="#4aa3ff"/><circle cx="378.5" cy="86.0" r="3" fill="#4aa3ff"/><circle cx="383.3" cy="86.0" r="3" fill="#4aa3ff"/><circle cx="388.1" cy="86.0" r="3" fill="#4aa3ff"/><circle cx="392.8" cy="86.0" r="3" fill="#4aa3ff"/><circle cx="397.6" cy="86.0" r="3" fill="#4aa3ff"/><circle cx="402.3" cy="86.0" r="3" fill="#4aa3ff"/><circle cx="407.1" cy="86.0" r="3" fill="#4aa3ff"/><circle cx="411.8" cy="86.0" r="3" fill="#4aa3ff"/><circle cx="416.6" cy="86.0" r="3" fill="#4aa3ff"/><circle cx="421.4" cy="87.0" r="3" fill="#4aa3ff"/><circle cx="426.1" cy="87.0" r="3" fill="#4aa3ff"/><circle cx="430.9" cy="87.0" r="3" fill="#4aa3ff"/><circle cx="435.6" cy="73.7" r="3" fill="#4aa3ff"/><circle cx="440.4" cy="73.7" r="3" fill="#4aa3ff"/><circle cx="445.2" cy="71.0" r="3" fill="#4aa3ff"/><circle cx="449.9" cy="71.0" r="3" fill="#4aa3ff"/><circle cx="454.7" cy="70.8" r="3" fill="#4aa3ff"/><circle cx="459.4" cy="70.6" r="3" fill="#4aa3ff"/><circle cx="464.2" cy="70.6" r="3" fill="#4aa3ff"/><circle cx="468.9" cy="70.4" r="3" fill="#4aa3ff"/><circle cx="473.7" cy="68.6" r="3" fill="#4aa3ff"/><circle cx="478.5" cy="60.5" r="3" fill="#4aa3ff"/><circle cx="483.2" cy="59.3" r="3" fill="#4aa3ff"/><circle cx="488.0" cy="52.0" r="3" fill="#4aa3ff"/><circle cx="492.7" cy="47.3" r="3" fill="#4aa3ff"/><circle cx="497.5" cy="40.1" r="3" fill="#4aa3ff"/><circle cx="502.2" cy="36.0" r="3" fill="#4aa3ff"/><circle cx="507.0" cy="36.0" r="3" fill="#4aa3ff"/><circle cx="511.8" cy="36.0" r="3" fill="#4aa3ff"/><circle cx="516.5" cy="36.0" r="3" fill="#4aa3ff"/><circle cx="521.3" cy="36.0" r="3" fill="#4aa3ff"/><circle cx="526.0" cy="36.0" r="3" fill="#4aa3ff"/><circle cx="530.8" cy="36.0" r="3" fill="#4aa3ff"/><circle cx="535.5" cy="36.0" r="3" fill="#4aa3ff"/><circle cx="540.3" cy="36.0" r="3" fill="#4aa3ff"/><circle cx="545.1" cy="36.0" r="3" fill="#4aa3ff"/><circle cx="549.8" cy="36.0" r="3" fill="#4aa3ff"/><circle cx="554.6" cy="36.0" r="3" fill="#4aa3ff"/><circle cx="559.3" cy="36.0" r="3" fill="#4aa3ff"/><circle cx="564.1" cy="36.0" r="3" fill="#4aa3ff"/><circle cx="568.8" cy="36.0" r="3" fill="#4aa3ff"/><circle cx="573.6" cy="36.0" r="3" fill="#4aa3ff"/><circle cx="578.4" cy="36.0" r="3" fill="#4aa3ff"/><circle cx="583.1" cy="36.0" r="3" fill="#4aa3ff"/><circle cx="587.9" cy="36.0" r="3" fill="#4aa3ff"/><circle cx="592.6" cy="36.0" r="3" fill="#4aa3ff"/><circle cx="597.4" cy="36.0" r="3" fill="#4aa3ff"/><circle cx="602.2" cy="36.0" r="3" fill="#4aa3ff"/><circle cx="606.9" cy="36.0" r="3" fill="#4aa3ff"/><circle cx="611.7" cy="36.0" r="3" fill="#4aa3ff"/><circle cx="616.4" cy="36.0" r="3" fill="#4aa3ff"/><circle cx="621.2" cy="36.0" r="3" fill="#4aa3ff"/><circle cx="625.9" cy="36.0" r="3" fill="#4aa3ff"/><circle cx="630.7" cy="36.0" r="3" fill="#4aa3ff"/><circle cx="635.5" cy="36.0" r="3" fill="#4aa3ff"/><circle cx="640.2" cy="36.0" r="3" fill="#4aa3ff"/><circle cx="645.0" cy="36.0" r="3" fill="#4aa3ff"/><circle cx="649.7" cy="36.0" r="3" fill="#4aa3ff"/><circle cx="654.5" cy="36.0" r="3" fill="#4aa3ff"/><circle cx="659.2" cy="36.0" r="3" fill="#4aa3ff"/><circle cx="664.0" cy="36.0" r="3" fill="#4aa3ff"/>
<text x="36" y="225" fill="#6b7280" font-size="11">2026-06-26</text>
<text x="664" y="225" fill="#6b7280" font-size="11" text-anchor="end">2026-07-11</text>
<text x="36" y="212" font-family="system-ui,sans-serif" font-size="11">
<tspan fill="#4aa3ff">&#9679; open FPs</tspan>  <tspan fill="#3fb950">&#9679; closed (Anthropic acting)</tspan>  <tspan fill="#8a5a5a">&#9679; harness withdrawn</tspan></text>
<text x="664" y="22" text-anchor="end" font-family="system-ui,sans-serif" font-size="12">
<tspan fill="#4aa3ff">open 800</tspan>  <tspan fill="#3fb950">closed 0</tspan>  <tspan fill="#8a5a5a">harness 0</tspan></text>
</svg>