<svg xmlns="http://www.w3.org/2000/svg" width="700" height="234" viewBox="0 0 700 234" role="img">
<rect width="700" height="234" rx="12" fill="#16181d"/>
<text x="36" y="22" fill="#e8eaed" font-family="system-ui,sans-serif" font-size="14" font-weight="700">Is Anthropic acting? cyber/aup false positives over time</text>
<line x1="36" y1="198.0" x2="664" y2="198.0" stroke="#2a2e37" stroke-width="1"/><text x="30" y="202.0" fill="#6b7280" font-size="11" text-anchor="end">0</text><line x1="36" y1="117.0" x2="664" y2="117.0" stroke="#2a2e37" stroke-width="1"/><text x="30" y="121.0" fill="#6b7280" font-size="11" text-anchor="end">400</text><line x1="36" y1="36.0" x2="664" y2="36.0" stroke="#2a2e37" stroke-width="1"/><text x="30" y="40.0" fill="#6b7280" font-size="11" text-anchor="end">800</text>

<polyline fill="none" stroke="#8a5a5a" stroke-width="2.5" stroke-linejoin="round" points="36.0,145.1 38.5,145.1 41.0,145.1 43.5,145.1 46.0,145.1 48.6,145.1 51.1,145.1 53.6,145.1 56.1,145.1 58.6,145.1 61.1,145.1 63.6,145.1 66.1,145.1 68.7,145.1 71.2,145.1 73.7,145.1 76.2,145.1 78.7,145.1 81.2,145.1 83.7,145.1 86.2,145.1 88.8,145.1 91.3,145.1 93.8,145.1 96.3,145.1 98.8,145.1 101.3,145.1 103.8,145.1 106.3,145.1 108.8,145.1 111.4,145.1 113.9,145.1 116.4,145.1 118.9,145.1 121.4,145.1 123.9,145.1 126.4,145.1 128.9,145.1 131.5,145.1 134.0,145.1 136.5,145.1 139.0,145.1 141.5,145.1 144.0,145.1 146.5,145.1 149.0,145.1 151.6,145.1 154.1,145.1 156.6,145.1 159.1,145.1 161.6,155.7 164.1,155.7 166.6,155.7 169.1,155.7 171.6,155.7 174.2,155.7 176.7,155.7 179.2,155.7 181.7,155.7 184.2,155.7 186.7,155.7 189.2,155.7 191.7,155.7 194.3,155.7 196.8,155.7 199.3,155.7 201.8,155.7 204.3,155.7 206.8,155.7 209.3,155.7 211.8,155.7 214.4,155.7 216.9,155.7 219.4,155.7 221.9,155.7 224.4,155.7 226.9,155.7 229.4,155.7 231.9,155.7 234.4,155.7 237.0,155.7 239.5,155.7 242.0,155.7 244.5,155.7 247.0,167.6 249.5,167.6 252.0,170.3 254.5,170.3 257.1,170.5 259.6,170.7 262.1,170.7 264.6,170.9 267.1,172.7 269.6,180.6 272.1,181.8 274.6,189.1 277.2,190.5 279.7,195.2 282.2,198.0 284.7,198.0 287.2,198.0 289.7,198.0 292.2,198.0 294.7,198.0 297.2,198.0 299.8,198.0 302.3,198.0 304.8,198.0 307.3,198.0 309.8,198.0 312.3,198.0 314.8,198.0 317.3,198.0 319.9,198.0 322.4,198.0 324.9,198.0 327.4,198.0 329.9,198.0 332.4,198.0 334.9,198.0 337.4,198.0 340.0,198.0 342.5,198.0 345.0,198.0 347.5,198.0 350.0,198.0 352.5,198.0 355.0,198.0 357.5,198.0 360.0,198.0 362.6,198.0 365.1,198.0 367.6,198.0 370.1,198.0 372.6,198.0 375.1,198.0 377.6,198.0 380.1,198.0 382.7,198.0 385.2,198.0 387.7,198.0 390.2,198.0 392.7,198.0 395.2,198.0 397.7,198.0 400.2,198.0 402.8,198.0 405.3,198.0 407.8,198.0 410.3,198.0 412.8,198.0 415.3,198.0 417.8,198.0 420.3,198.0 422.8,198.0 425.4,198.0 427.9,198.0 430.4,198.0 432.9,198.0 435.4,198.0 437.9,198.0 440.4,198.0 442.9,198.0 445.5,198.0 448.0,198.0 450.5,198.0 453.0,198.0 455.5,198.0 458.0,198.0 460.5,198.0 463.0,198.0 465.6,198.0 468.1,198.0 470.6,198.0 473.1,198.0 475.6,198.0 478.1,198.0 480.6,198.0 483.1,198.0 485.6,198.0 488.2,198.0 490.7,198.0 493.2,198.0 495.7,198.0 498.2,198.0 500.7,198.0 503.2,198.0 505.7,198.0 508.3,198.0 510.8,198.0 513.3,198.0 515.8,198.0 518.3,198.0 520.8,198.0 523.3,198.0 525.8,198.0 528.4,198.0 530.9,198.0 533.4,198.0 535.9,198.0 538.4,198.0 540.9,198.0 543.4,198.0 545.9,198.0 548.4,198.0 551.0,198.0 553.5,198.0 556.0,198.0 558.5,198.0 561.0,198.0 563.5,198.0 566.0,198.0 568.5,198.0 571.1,198.0 573.6,198.0 576.1,198.0 578.6,198.0 581.1,198.0 583.6,198.0 586.1,198.0 588.6,198.0 591.2,198.0 593.7,198.0 596.2,198.0 598.7,198.0 601.2,198.0 603.7,198.0 606.2,198.0 608.7,198.0 611.2,198.0 613.8,198.0 616.3,198.0 618.8,198.0 621.3,198.0 623.8,198.0 626.3,198.0 628.8,198.0 631.3,198.0 633.9,198.0 636.4,198.0 638.9,198.0 641.4,198.0 643.9,198.0 646.4,198.0 648.9,198.0 651.4,198.0 654.0,198.0 656.5,198.0 659.0,198.0 661.5,198.0 664.0,198.0"/><circle cx="36.0" cy="145.1" r="3" fill="#8a5a5a"/><circle cx="38.5" cy="145.1" r="3" fill="#8a5a5a"/><circle cx="41.0" cy="145.1" r="3" fill="#8a5a5a"/><circle cx="43.5" cy="145.1" r="3" fill="#8a5a5a"/><circle cx="46.0" cy="145.1" r="3" fill="#8a5a5a"/><circle cx="48.6" cy="145.1" r="3" fill="#8a5a5a"/><circle cx="51.1" cy="145.1" r="3" fill="#8a5a5a"/><circle cx="53.6" cy="145.1" r="3" fill="#8a5a5a"/><circle cx="56.1" cy="145.1" r="3" fill="#8a5a5a"/><circle cx="58.6" cy="145.1" r="3" fill="#8a5a5a"/><circle cx="61.1" cy="145.1" r="3" fill="#8a5a5a"/><circle cx="63.6" cy="145.1" r="3" fill="#8a5a5a"/><circle cx="66.1" cy="145.1" r="3" fill="#8a5a5a"/><circle cx="68.7" cy="145.1" r="3" fill="#8a5a5a"/><circle cx="71.2" cy="145.1" r="3" fill="#8a5a5a"/><circle cx="73.7" cy="145.1" r="3" fill="#8a5a5a"/><circle cx="76.2" cy="145.1" r="3" fill="#8a5a5a"/><circle cx="78.7" cy="145.1" r="3" fill="#8a5a5a"/><circle cx="81.2" cy="145.1" r="3" fill="#8a5a5a"/><circle cx="83.7" cy="145.1" r="3" fill="#8a5a5a"/><circle cx="86.2" cy="145.1" r="3" fill="#8a5a5a"/><circle cx="88.8" cy="145.1" r="3" fill="#8a5a5a"/><circle cx="91.3" cy="145.1" r="3" fill="#8a5a5a"/><circle cx="93.8" cy="145.1" r="3" fill="#8a5a5a"/><circle cx="96.3" cy="145.1" r="3" fill="#8a5a5a"/><circle cx="98.8" cy="145.1" r="3" fill="#8a5a5a"/><circle cx="101.3" cy="145.1" r="3" fill="#8a5a5a"/><circle cx="103.8" cy="145.1" r="3" fill="#8a5a5a"/><circle cx="106.3" cy="145.1" r="3" fill="#8a5a5a"/><circle cx="108.8" cy="145.1" r="3" fill="#8a5a5a"/><circle cx="111.4" cy="145.1" r="3" fill="#8a5a5a"/><circle cx="113.9" cy="145.1" r="3" fill="#8a5a5a"/><circle cx="116.4" cy="145.1" r="3" fill="#8a5a5a"/><circle cx="118.9" cy="145.1" r="3" fill="#8a5a5a"/><circle cx="121.4" cy="145.1" r="3" fill="#8a5a5a"/><circle cx="123.9" cy="145.1" r="3" fill="#8a5a5a"/><circle cx="126.4" cy="145.1" r="3" fill="#8a5a5a"/><circle cx="128.9" cy="145.1" r="3" fill="#8a5a5a"/><circle cx="131.5" cy="145.1" r="3" fill="#8a5a5a"/><circle cx="134.0" cy="145.1" r="3" fill="#8a5a5a"/><circle cx="136.5" cy="145.1" r="3" fill="#8a5a5a"/><circle cx="139.0" cy="145.1" r="3" fill="#8a5a5a"/><circle cx="141.5" cy="145.1" r="3" fill="#8a5a5a"/><circle cx="144.0" cy="145.1" r="3" fill="#8a5a5a"/><circle cx="146.5" cy="145.1" r="3" fill="#8a5a5a"/><circle cx="149.0" cy="145.1" r="3" fill="#8a5a5a"/><circle cx="151.6" cy="145.1" r="3" fill="#8a5a5a"/><circle cx="154.1" cy="145.1" r="3" fill="#8a5a5a"/><circle cx="156.6" cy="145.1" r="3" fill="#8a5a5a"/><circle cx="159.1" cy="145.1" r="3" fill="#8a5a5a"/><circle cx="161.6" cy="155.7" r="3" fill="#8a5a5a"/><circle cx="164.1" cy="155.7" r="3" fill="#8a5a5a"/><circle cx="166.6" cy="155.7" r="3" fill="#8a5a5a"/><circle cx="169.1" cy="155.7" r="3" fill="#8a5a5a"/><circle cx="171.6" cy="155.7" r="3" fill="#8a5a5a"/><circle cx="174.2" cy="155.7" r="3" fill="#8a5a5a"/><circle cx="176.7" cy="155.7" r="3" fill="#8a5a5a"/><circle cx="179.2" cy="155.7" r="3" fill="#8a5a5a"/><circle cx="181.7" cy="155.7" r="3" fill="#8a5a5a"/><circle cx="184.2" cy="155.7" r="3" fill="#8a5a5a"/><circle cx="186.7" cy="155.7" r="3" fill="#8a5a5a"/><circle cx="189.2" cy="155.7" r="3" fill="#8a5a5a"/><circle cx="191.7" cy="155.7" r="3" fill="#8a5a5a"/><circle cx="194.3" cy="155.7" r="3" fill="#8a5a5a"/><circle cx="196.8" cy="155.7" r="3" fill="#8a5a5a"/><circle cx="199.3" cy="155.7" r="3" fill="#8a5a5a"/><circle cx="201.8" cy="155.7" r="3" fill="#8a5a5a"/><circle cx="204.3" cy="155.7" r="3" fill="#8a5a5a"/><circle cx="206.8" cy="155.7" r="3" fill="#8a5a5a"/><circle cx="209.3" cy="155.7" r="3" fill="#8a5a5a"/><circle cx="211.8" cy="155.7" r="3" fill="#8a5a5a"/><circle cx="214.4" cy="155.7" r="3" fill="#8a5a5a"/><circle cx="216.9" cy="155.7" r="3" fill="#8a5a5a"/><circle cx="219.4" cy="155.7" r="3" fill="#8a5a5a"/><circle cx="221.9" cy="155.7" r="3" fill="#8a5a5a"/><circle cx="224.4" cy="155.7" r="3" fill="#8a5a5a"/><circle cx="226.9" cy="155.7" r="3" fill="#8a5a5a"/><circle cx="229.4" cy="155.7" r="3" fill="#8a5a5a"/><circle cx="231.9" cy="155.7" r="3" fill="#8a5a5a"/><circle cx="234.4" cy="155.7" r="3" fill="#8a5a5a"/><circle cx="237.0" cy="155.7" r="3" fill="#8a5a5a"/><circle cx="239.5" cy="155.7" r="3" fill="#8a5a5a"/><circle cx="242.0" cy="155.7" r="3" fill="#8a5a5a"/><circle cx="244.5" cy="155.7" r="3" fill="#8a5a5a"/><circle cx="247.0" cy="167.6" r="3" fill="#8a5a5a"/><circle cx="249.5" cy="167.6" r="3" fill="#8a5a5a"/><circle cx="252.0" cy="170.3" r="3" fill="#8a5a5a"/><circle cx="254.5" cy="170.3" r="3" fill="#8a5a5a"/><circle cx="257.1" cy="170.5" r="3" fill="#8a5a5a"/><circle cx="259.6" cy="170.7" r="3" fill="#8a5a5a"/><circle cx="262.1" cy="170.7" r="3" fill="#8a5a5a"/><circle cx="264.6" cy="170.9" r="3" fill="#8a5a5a"/><circle cx="267.1" cy="172.7" r="3" fill="#8a5a5a"/><circle cx="269.6" cy="180.6" r="3" fill="#8a5a5a"/><circle cx="272.1" cy="181.8" r="3" fill="#8a5a5a"/><circle cx="274.6" cy="189.1" r="3" fill="#8a5a5a"/><circle cx="277.2" cy="190.5" r="3" fill="#8a5a5a"/><circle cx="279.7" cy="195.2" r="3" fill="#8a5a5a"/><circle cx="282.2" cy="198.0" r="3" fill="#8a5a5a"/><circle cx="284.7" cy="198.0" r="3" fill="#8a5a5a"/><circle cx="287.2" cy="198.0" r="3" fill="#8a5a5a"/><circle cx="289.7" cy="198.0" r="3" fill="#8a5a5a"/><circle cx="292.2" cy="198.0" r="3" fill="#8a5a5a"/><circle cx="294.7" cy="198.0" r="3" fill="#8a5a5a"/><circle cx="297.2" cy="198.0" r="3" fill="#8a5a5a"/><circle cx="299.8" cy="198.0" r="3" fill="#8a5a5a"/><circle cx="302.3" cy="198.0" r="3" fill="#8a5a5a"/><circle cx="304.8" cy="198.0" r="3" fill="#8a5a5a"/><circle cx="307.3" cy="198.0" r="3" fill="#8a5a5a"/><circle cx="309.8" cy="198.0" r="3" fill="#8a5a5a"/><circle cx="312.3" cy="198.0" r="3" fill="#8a5a5a"/><circle cx="314.8" cy="198.0" r="3" fill="#8a5a5a"/><circle cx="317.3" cy="198.0" r="3" fill="#8a5a5a"/><circle cx="319.9" cy="198.0" r="3" fill="#8a5a5a"/><circle cx="322.4" cy="198.0" r="3" fill="#8a5a5a"/><circle cx="324.9" cy="198.0" r="3" fill="#8a5a5a"/><circle cx="327.4" cy="198.0" r="3" fill="#8a5a5a"/><circle cx="329.9" cy="198.0" r="3" fill="#8a5a5a"/><circle cx="332.4" cy="198.0" r="3" fill="#8a5a5a"/><circle cx="334.9" cy="198.0" r="3" fill="#8a5a5a"/><circle cx="337.4" cy="198.0" r="3" fill="#8a5a5a"/><circle cx="340.0" cy="198.0" r="3" fill="#8a5a5a"/><circle cx="342.5" cy="198.0" r="3" fill="#8a5a5a"/><circle cx="345.0" cy="198.0" r="3" fill="#8a5a5a"/><circle cx="347.5" cy="198.0" r="3" fill="#8a5a5a"/><circle cx="350.0" cy="198.0" r="3" fill="#8a5a5a"/><circle cx="352.5" cy="198.0" r="3" fill="#8a5a5a"/><circle cx="355.0" cy="198.0" r="3" fill="#8a5a5a"/><circle cx="357.5" cy="198.0" r="3" fill="#8a5a5a"/><circle cx="360.0" cy="198.0" r="3" fill="#8a5a5a"/><circle cx="362.6" cy="198.0" r="3" fill="#8a5a5a"/><circle cx="365.1" cy="198.0" r="3" fill="#8a5a5a"/><circle cx="367.6" cy="198.0" r="3" fill="#8a5a5a"/><circle cx="370.1" cy="198.0" r="3" fill="#8a5a5a"/><circle cx="372.6" cy="198.0" r="3" fill="#8a5a5a"/><circle cx="375.1" cy="198.0" r="3" fill="#8a5a5a"/><circle cx="377.6" cy="198.0" r="3" fill="#8a5a5a"/><circle cx="380.1" cy="198.0" r="3" fill="#8a5a5a"/><circle cx="382.7" cy="198.0" r="3" fill="#8a5a5a"/><circle cx="385.2" cy="198.0" r="3" fill="#8a5a5a"/><circle cx="387.7" cy="198.0" r="3" fill="#8a5a5a"/><circle cx="390.2" cy="198.0" r="3" fill="#8a5a5a"/><circle cx="392.7" cy="198.0" r="3" fill="#8a5a5a"/><circle cx="395.2" cy="198.0" r="3" fill="#8a5a5a"/><circle cx="397.7" cy="198.0" r="3" fill="#8a5a5a"/><circle cx="400.2" cy="198.0" r="3" fill="#8a5a5a"/><circle cx="402.8" cy="198.0" r="3" fill="#8a5a5a"/><circle cx="405.3" cy="198.0" r="3" fill="#8a5a5a"/><circle cx="407.8" cy="198.0" r="3" fill="#8a5a5a"/><circle cx="410.3" cy="198.0" r="3" fill="#8a5a5a"/><circle cx="412.8" cy="198.0" r="3" fill="#8a5a5a"/><circle cx="415.3" cy="198.0" r="3" fill="#8a5a5a"/><circle cx="417.8" cy="198.0" r="3" fill="#8a5a5a"/><circle cx="420.3" cy="198.0" r="3" fill="#8a5a5a"/><circle cx="422.8" cy="198.0" r="3" fill="#8a5a5a"/><circle cx="425.4" cy="198.0" r="3" fill="#8a5a5a"/><circle cx="427.9" cy="198.0" r="3" fill="#8a5a5a"/><circle cx="430.4" cy="198.0" r="3" fill="#8a5a5a"/><circle cx="432.9" cy="198.0" r="3" fill="#8a5a5a"/><circle cx="435.4" cy="198.0" r="3" fill="#8a5a5a"/><circle cx="437.9" cy="198.0" r="3" fill="#8a5a5a"/><circle cx="440.4" cy="198.0" r="3" fill="#8a5a5a"/><circle cx="442.9" cy="198.0" r="3" fill="#8a5a5a"/><circle cx="445.5" cy="198.0" r="3" fill="#8a5a5a"/><circle cx="448.0" cy="198.0" r="3" fill="#8a5a5a"/><circle cx="450.5" cy="198.0" r="3" fill="#8a5a5a"/><circle cx="453.0" cy="198.0" r="3" fill="#8a5a5a"/><circle cx="455.5" cy="198.0" r="3" fill="#8a5a5a"/><circle cx="458.0" cy="198.0" r="3" fill="#8a5a5a"/><circle cx="460.5" cy="198.0" r="3" fill="#8a5a5a"/><circle cx="463.0" cy="198.0" r="3" fill="#8a5a5a"/><circle cx="465.6" cy="198.0" r="3" fill="#8a5a5a"/><circle cx="468.1" cy="198.0" r="3" fill="#8a5a5a"/><circle cx="470.6" cy="198.0" r="3" fill="#8a5a5a"/><circle cx="473.1" cy="198.0" r="3" fill="#8a5a5a"/><circle cx="475.6" cy="198.0" r="3" fill="#8a5a5a"/><circle cx="478.1" cy="198.0" r="3" fill="#8a5a5a"/><circle cx="480.6" cy="198.0" r="3" fill="#8a5a5a"/><circle cx="483.1" cy="198.0" r="3" fill="#8a5a5a"/><circle cx="485.6" cy="198.0" r="3" fill="#8a5a5a"/><circle cx="488.2" cy="198.0" r="3" fill="#8a5a5a"/><circle cx="490.7" cy="198.0" r="3" fill="#8a5a5a"/><circle cx="493.2" cy="198.0" r="3" fill="#8a5a5a"/><circle cx="495.7" cy="198.0" r="3" fill="#8a5a5a"/><circle cx="498.2" cy="198.0" r="3" fill="#8a5a5a"/><circle cx="500.7" cy="198.0" r="3" fill="#8a5a5a"/><circle cx="503.2" cy="198.0" r="3" fill="#8a5a5a"/><circle cx="505.7" cy="198.0" r="3" fill="#8a5a5a"/><circle cx="508.3" cy="198.0" r="3" fill="#8a5a5a"/><circle cx="510.8" cy="198.0" r="3" fill="#8a5a5a"/><circle cx="513.3" cy="198.0" r="3" fill="#8a5a5a"/><circle cx="515.8" cy="198.0" r="3" fill="#8a5a5a"/><circle cx="518.3" cy="198.0" r="3" fill="#8a5a5a"/><circle cx="520.8" cy="198.0" r="3" fill="#8a5a5a"/><circle cx="523.3" cy="198.0" r="3" fill="#8a5a5a"/><circle cx="525.8" cy="198.0" r="3" fill="#8a5a5a"/><circle cx="528.4" cy="198.0" r="3" fill="#8a5a5a"/><circle cx="530.9" cy="198.0" r="3" fill="#8a5a5a"/><circle cx="533.4" cy="198.0" r="3" fill="#8a5a5a"/><circle cx="535.9" cy="198.0" r="3" fill="#8a5a5a"/><circle cx="538.4" cy="198.0" r="3" fill="#8a5a5a"/><circle cx="540.9" cy="198.0" r="3" fill="#8a5a5a"/><circle cx="543.4" cy="198.0" r="3" fill="#8a5a5a"/><circle cx="545.9" cy="198.0" r="3" fill="#8a5a5a"/><circle cx="548.4" cy="198.0" r="3" fill="#8a5a5a"/><circle cx="551.0" cy="198.0" r="3" fill="#8a5a5a"/><circle cx="553.5" cy="198.0" r="3" fill="#8a5a5a"/><circle cx="556.0" cy="198.0" r="3" fill="#8a5a5a"/><circle cx="558.5" cy="198.0" r="3" fill="#8a5a5a"/><circle cx="561.0" cy="198.0" r="3" fill="#8a5a5a"/><circle cx="563.5" cy="198.0" r="3" fill="#8a5a5a"/><circle cx="566.0" cy="198.0" r="3" fill="#8a5a5a"/><circle cx="568.5" cy="198.0" r="3" fill="#8a5a5a"/><circle cx="571.1" cy="198.0" r="3" fill="#8a5a5a"/><circle cx="573.6" cy="198.0" r="3" fill="#8a5a5a"/><circle cx="576.1" cy="198.0" r="3" fill="#8a5a5a"/><circle cx="578.6" cy="198.0" r="3" fill="#8a5a5a"/><circle cx="581.1" cy="198.0" r="3" fill="#8a5a5a"/><circle cx="583.6" cy="198.0" r="3" fill="#8a5a5a"/><circle cx="586.1" cy="198.0" r="3" fill="#8a5a5a"/><circle cx="588.6" cy="198.0" r="3" fill="#8a5a5a"/><circle cx="591.2" cy="198.0" r="3" fill="#8a5a5a"/><circle cx="593.7" cy="198.0" r="3" fill="#8a5a5a"/><circle cx="596.2" cy="198.0" r="3" fill="#8a5a5a"/><circle cx="598.7" cy="198.0" r="3" fill="#8a5a5a"/><circle cx="601.2" cy="198.0" r="3" fill="#8a5a5a"/><circle cx="603.7" cy="198.0" r="3" fill="#8a5a5a"/><circle cx="606.2" cy="198.0" r="3" fill="#8a5a5a"/><circle cx="608.7" cy="198.0" r="3" fill="#8a5a5a"/><circle cx="611.2" cy="198.0" r="3" fill="#8a5a5a"/><circle cx="613.8" cy="198.0" r="3" fill="#8a5a5a"/><circle cx="616.3" cy="198.0" r="3" fill="#8a5a5a"/><circle cx="618.8" cy="198.0" r="3" fill="#8a5a5a"/><circle cx="621.3" cy="198.0" r="3" fill="#8a5a5a"/><circle cx="623.8" cy="198.0" r="3" fill="#8a5a5a"/><circle cx="626.3" cy="198.0" r="3" fill="#8a5a5a"/><circle cx="628.8" cy="198.0" r="3" fill="#8a5a5a"/><circle cx="631.3" cy="198.0" r="3" fill="#8a5a5a"/><circle cx="633.9" cy="198.0" r="3" fill="#8a5a5a"/><circle cx="636.4" cy="198.0" r="3" fill="#8a5a5a"/><circle cx="638.9" cy="198.0" r="3" fill="#8a5a5a"/><circle cx="641.4" cy="198.0" r="3" fill="#8a5a5a"/><circle cx="643.9" cy="198.0" r="3" fill="#8a5a5a"/><circle cx="646.4" cy="198.0" r="3" fill="#8a5a5a"/><circle cx="648.9" cy="198.0" r="3" fill="#8a5a5a"/><circle cx="651.4" cy="198.0" r="3" fill="#8a5a5a"/><circle cx="654.0" cy="198.0" r="3" fill="#8a5a5a"/><circle cx="656.5" cy="198.0" r="3" fill="#8a5a5a"/><circle cx="659.0" cy="198.0" r="3" fill="#8a5a5a"/><circle cx="661.5" cy="198.0" r="3" fill="#8a5a5a"/><circle cx="664.0" cy="198.0" r="3" fill="#8a5a5a"/>
<polyline fill="none" stroke="#3fb950" stroke-width="2.5" stroke-linejoin="round" points="36.0,198.0 38.5,198.0 41.0,198.0 43.5,198.0 46.0,198.0 48.6,198.0 51.1,198.0 53.6,198.0 56.1,198.0 58.6,198.0 61.1,198.0 63.6,198.0 66.1,198.0 68.7,198.0 71.2,198.0 73.7,198.0 76.2,198.0 78.7,198.0 81.2,198.0 83.7,198.0 86.2,198.0 88.8,198.0 91.3,198.0 93.8,198.0 96.3,198.0 98.8,198.0 101.3,198.0 103.8,198.0 106.3,198.0 108.8,198.0 111.4,198.0 113.9,198.0 116.4,198.0 118.9,198.0 121.4,198.0 123.9,198.0 126.4,198.0 128.9,198.0 131.5,198.0 134.0,198.0 136.5,198.0 139.0,198.0 141.5,198.0 144.0,191.7 146.5,191.7 149.0,191.7 151.6,191.7 154.1,191.7 156.6,191.7 159.1,191.7 161.6,192.9 164.1,192.9 166.6,190.7 169.1,190.7 171.6,190.7 174.2,190.7 176.7,190.7 179.2,190.5 181.7,190.5 184.2,190.5 186.7,190.3 189.2,190.3 191.7,190.3 194.3,190.3 196.8,190.3 199.3,190.3 201.8,190.3 204.3,190.3 206.8,190.3 209.3,190.3 211.8,190.3 214.4,190.3 216.9,190.3 219.4,190.3 221.9,190.3 224.4,190.3 226.9,190.3 229.4,190.3 231.9,190.3 234.4,190.3 237.0,190.3 239.5,189.3 242.0,189.3 244.5,189.3 247.0,190.7 249.5,190.7 252.0,190.7 254.5,190.7 257.1,190.7 259.6,190.7 262.1,190.7 264.6,190.7 267.1,190.7 269.6,190.9 272.1,190.9 274.6,190.9 277.2,194.2 279.7,196.8 282.2,198.0 284.7,198.0 287.2,198.0 289.7,198.0 292.2,198.0 294.7,198.0 297.2,198.0 299.8,198.0 302.3,198.0 304.8,198.0 307.3,198.0 309.8,198.0 312.3,198.0 314.8,198.0 317.3,198.0 319.9,198.0 322.4,198.0 324.9,198.0 327.4,198.0 329.9,198.0 332.4,198.0 334.9,198.0 337.4,198.0 340.0,198.0 342.5,198.0 345.0,198.0 347.5,198.0 350.0,198.0 352.5,198.0 355.0,198.0 357.5,198.0 360.0,198.0 362.6,198.0 365.1,198.0 367.6,198.0 370.1,198.0 372.6,198.0 375.1,198.0 377.6,198.0 380.1,198.0 382.7,198.0 385.2,198.0 387.7,198.0 390.2,198.0 392.7,198.0 395.2,198.0 397.7,198.0 400.2,198.0 402.8,198.0 405.3,198.0 407.8,198.0 410.3,198.0 412.8,198.0 415.3,198.0 417.8,198.0 420.3,198.0 422.8,198.0 425.4,198.0 427.9,198.0 430.4,198.0 432.9,198.0 435.4,198.0 437.9,198.0 440.4,198.0 442.9,198.0 445.5,198.0 448.0,198.0 450.5,198.0 453.0,198.0 455.5,198.0 458.0,198.0 460.5,198.0 463.0,198.0 465.6,198.0 468.1,198.0 470.6,198.0 473.1,198.0 475.6,198.0 478.1,198.0 480.6,198.0 483.1,198.0 485.6,198.0 488.2,198.0 490.7,198.0 493.2,198.0 495.7,198.0 498.2,198.0 500.7,198.0 503.2,198.0 505.7,198.0 508.3,198.0 510.8,198.0 513.3,198.0 515.8,198.0 518.3,198.0 520.8,198.0 523.3,198.0 525.8,198.0 528.4,198.0 530.9,198.0 533.4,198.0 535.9,198.0 538.4,198.0 540.9,198.0 543.4,198.0 545.9,198.0 548.4,198.0 551.0,198.0 553.5,198.0 556.0,198.0 558.5,198.0 561.0,198.0 563.5,198.0 566.0,198.0 568.5,198.0 571.1,198.0 573.6,198.0 576.1,198.0 578.6,198.0 581.1,198.0 583.6,198.0 586.1,198.0 588.6,198.0 591.2,198.0 593.7,198.0 596.2,198.0 598.7,198.0 601.2,198.0 603.7,198.0 606.2,198.0 608.7,198.0 611.2,198.0 613.8,198.0 616.3,198.0 618.8,198.0 621.3,198.0 623.8,198.0 626.3,198.0 628.8,198.0 631.3,198.0 633.9,198.0 636.4,198.0 638.9,198.0 641.4,198.0 643.9,198.0 646.4,198.0 648.9,198.0 651.4,198.0 654.0,198.0 656.5,198.0 659.0,198.0 661.5,198.0 664.0,198.0"/><circle cx="36.0" cy="198.0" r="3" fill="#3fb950"/><circle cx="38.5" cy="198.0" r="3" fill="#3fb950"/><circle cx="41.0" cy="198.0" r="3" fill="#3fb950"/><circle cx="43.5" cy="198.0" r="3" fill="#3fb950"/><circle cx="46.0" cy="198.0" r="3" fill="#3fb950"/><circle cx="48.6" cy="198.0" r="3" fill="#3fb950"/><circle cx="51.1" cy="198.0" r="3" fill="#3fb950"/><circle cx="53.6" cy="198.0" r="3" fill="#3fb950"/><circle cx="56.1" cy="198.0" r="3" fill="#3fb950"/><circle cx="58.6" cy="198.0" r="3" fill="#3fb950"/><circle cx="61.1" cy="198.0" r="3" fill="#3fb950"/><circle cx="63.6" cy="198.0" r="3" fill="#3fb950"/><circle cx="66.1" cy="198.0" r="3" fill="#3fb950"/><circle cx="68.7" cy="198.0" r="3" fill="#3fb950"/><circle cx="71.2" cy="198.0" r="3" fill="#3fb950"/><circle cx="73.7" cy="198.0" r="3" fill="#3fb950"/><circle cx="76.2" cy="198.0" r="3" fill="#3fb950"/><circle cx="78.7" cy="198.0" r="3" fill="#3fb950"/><circle cx="81.2" cy="198.0" r="3" fill="#3fb950"/><circle cx="83.7" cy="198.0" r="3" fill="#3fb950"/><circle cx="86.2" cy="198.0" r="3" fill="#3fb950"/><circle cx="88.8" cy="198.0" r="3" fill="#3fb950"/><circle cx="91.3" cy="198.0" r="3" fill="#3fb950"/><circle cx="93.8" cy="198.0" r="3" fill="#3fb950"/><circle cx="96.3" cy="198.0" r="3" fill="#3fb950"/><circle cx="98.8" cy="198.0" r="3" fill="#3fb950"/><circle cx="101.3" cy="198.0" r="3" fill="#3fb950"/><circle cx="103.8" cy="198.0" r="3" fill="#3fb950"/><circle cx="106.3" cy="198.0" r="3" fill="#3fb950"/><circle cx="108.8" cy="198.0" r="3" fill="#3fb950"/><circle cx="111.4" cy="198.0" r="3" fill="#3fb950"/><circle cx="113.9" cy="198.0" r="3" fill="#3fb950"/><circle cx="116.4" cy="198.0" r="3" fill="#3fb950"/><circle cx="118.9" cy="198.0" r="3" fill="#3fb950"/><circle cx="121.4" cy="198.0" r="3" fill="#3fb950"/><circle cx="123.9" cy="198.0" r="3" fill="#3fb950"/><circle cx="126.4" cy="198.0" r="3" fill="#3fb950"/><circle cx="128.9" cy="198.0" r="3" fill="#3fb950"/><circle cx="131.5" cy="198.0" r="3" fill="#3fb950"/><circle cx="134.0" cy="198.0" r="3" fill="#3fb950"/><circle cx="136.5" cy="198.0" r="3" fill="#3fb950"/><circle cx="139.0" cy="198.0" r="3" fill="#3fb950"/><circle cx="141.5" cy="198.0" r="3" fill="#3fb950"/><circle cx="144.0" cy="191.7" r="3" fill="#3fb950"/><circle cx="146.5" cy="191.7" r="3" fill="#3fb950"/><circle cx="149.0" cy="191.7" r="3" fill="#3fb950"/><circle cx="151.6" cy="191.7" r="3" fill="#3fb950"/><circle cx="154.1" cy="191.7" r="3" fill="#3fb950"/><circle cx="156.6" cy="191.7" r="3" fill="#3fb950"/><circle cx="159.1" cy="191.7" r="3" fill="#3fb950"/><circle cx="161.6" cy="192.9" r="3" fill="#3fb950"/><circle cx="164.1" cy="192.9" r="3" fill="#3fb950"/><circle cx="166.6" cy="190.7" r="3" fill="#3fb950"/><circle cx="169.1" cy="190.7" r="3" fill="#3fb950"/><circle cx="171.6" cy="190.7" r="3" fill="#3fb950"/><circle cx="174.2" cy="190.7" r="3" fill="#3fb950"/><circle cx="176.7" cy="190.7" r="3" fill="#3fb950"/><circle cx="179.2" cy="190.5" r="3" fill="#3fb950"/><circle cx="181.7" cy="190.5" r="3" fill="#3fb950"/><circle cx="184.2" cy="190.5" r="3" fill="#3fb950"/><circle cx="186.7" cy="190.3" r="3" fill="#3fb950"/><circle cx="189.2" cy="190.3" r="3" fill="#3fb950"/><circle cx="191.7" cy="190.3" r="3" fill="#3fb950"/><circle cx="194.3" cy="190.3" r="3" fill="#3fb950"/><circle cx="196.8" cy="190.3" r="3" fill="#3fb950"/><circle cx="199.3" cy="190.3" r="3" fill="#3fb950"/><circle cx="201.8" cy="190.3" r="3" fill="#3fb950"/><circle cx="204.3" cy="190.3" r="3" fill="#3fb950"/><circle cx="206.8" cy="190.3" r="3" fill="#3fb950"/><circle cx="209.3" cy="190.3" r="3" fill="#3fb950"/><circle cx="211.8" cy="190.3" r="3" fill="#3fb950"/><circle cx="214.4" cy="190.3" r="3" fill="#3fb950"/><circle cx="216.9" cy="190.3" r="3" fill="#3fb950"/><circle cx="219.4" cy="190.3" r="3" fill="#3fb950"/><circle cx="221.9" cy="190.3" r="3" fill="#3fb950"/><circle cx="224.4" cy="190.3" r="3" fill="#3fb950"/><circle cx="226.9" cy="190.3" r="3" fill="#3fb950"/><circle cx="229.4" cy="190.3" r="3" fill="#3fb950"/><circle cx="231.9" cy="190.3" r="3" fill="#3fb950"/><circle cx="234.4" cy="190.3" r="3" fill="#3fb950"/><circle cx="237.0" cy="190.3" r="3" fill="#3fb950"/><circle cx="239.5" cy="189.3" r="3" fill="#3fb950"/><circle cx="242.0" cy="189.3" r="3" fill="#3fb950"/><circle cx="244.5" cy="189.3" r="3" fill="#3fb950"/><circle cx="247.0" cy="190.7" r="3" fill="#3fb950"/><circle cx="249.5" cy="190.7" r="3" fill="#3fb950"/><circle cx="252.0" cy="190.7" r="3" fill="#3fb950"/><circle cx="254.5" cy="190.7" r="3" fill="#3fb950"/><circle cx="257.1" cy="190.7" r="3" fill="#3fb950"/><circle cx="259.6" cy="190.7" r="3" fill="#3fb950"/><circle cx="262.1" cy="190.7" r="3" fill="#3fb950"/><circle cx="264.6" cy="190.7" r="3" fill="#3fb950"/><circle cx="267.1" cy="190.7" r="3" fill="#3fb950"/><circle cx="269.6" cy="190.9" r="3" fill="#3fb950"/><circle cx="272.1" cy="190.9" r="3" fill="#3fb950"/><circle cx="274.6" cy="190.9" r="3" fill="#3fb950"/><circle cx="277.2" cy="194.2" r="3" fill="#3fb950"/><circle cx="279.7" cy="196.8" r="3" fill="#3fb950"/><circle cx="282.2" cy="198.0" r="3" fill="#3fb950"/><circle cx="284.7" cy="198.0" r="3" fill="#3fb950"/><circle cx="287.2" cy="198.0" r="3" fill="#3fb950"/><circle cx="289.7" cy="198.0" r="3" fill="#3fb950"/><circle cx="292.2" cy="198.0" r="3" fill="#3fb950"/><circle cx="294.7" cy="198.0" r="3" fill="#3fb950"/><circle cx="297.2" cy="198.0" r="3" fill="#3fb950"/><circle cx="299.8" cy="198.0" r="3" fill="#3fb950"/><circle cx="302.3" cy="198.0" r="3" fill="#3fb950"/><circle cx="304.8" cy="198.0" r="3" fill="#3fb950"/><circle cx="307.3" cy="198.0" r="3" fill="#3fb950"/><circle cx="309.8" cy="198.0" r="3" fill="#3fb950"/><circle cx="312.3" cy="198.0" r="3" fill="#3fb950"/><circle cx="314.8" cy="198.0" r="3" fill="#3fb950"/><circle cx="317.3" cy="198.0" r="3" fill="#3fb950"/><circle cx="319.9" cy="198.0" r="3" fill="#3fb950"/><circle cx="322.4" cy="198.0" r="3" fill="#3fb950"/><circle cx="324.9" cy="198.0" r="3" fill="#3fb950"/><circle cx="327.4" cy="198.0" r="3" fill="#3fb950"/><circle cx="329.9" cy="198.0" r="3" fill="#3fb950"/><circle cx="332.4" cy="198.0" r="3" fill="#3fb950"/><circle cx="334.9" cy="198.0" r="3" fill="#3fb950"/><circle cx="337.4" cy="198.0" r="3" fill="#3fb950"/><circle cx="340.0" cy="198.0" r="3" fill="#3fb950"/><circle cx="342.5" cy="198.0" r="3" fill="#3fb950"/><circle cx="345.0" cy="198.0" r="3" fill="#3fb950"/><circle cx="347.5" cy="198.0" r="3" fill="#3fb950"/><circle cx="350.0" cy="198.0" r="3" fill="#3fb950"/><circle cx="352.5" cy="198.0" r="3" fill="#3fb950"/><circle cx="355.0" cy="198.0" r="3" fill="#3fb950"/><circle cx="357.5" cy="198.0" r="3" fill="#3fb950"/><circle cx="360.0" cy="198.0" r="3" fill="#3fb950"/><circle cx="362.6" cy="198.0" r="3" fill="#3fb950"/><circle cx="365.1" cy="198.0" r="3" fill="#3fb950"/><circle cx="367.6" cy="198.0" r="3" fill="#3fb950"/><circle cx="370.1" cy="198.0" r="3" fill="#3fb950"/><circle cx="372.6" cy="198.0" r="3" fill="#3fb950"/><circle cx="375.1" cy="198.0" r="3" fill="#3fb950"/><circle cx="377.6" cy="198.0" r="3" fill="#3fb950"/><circle cx="380.1" cy="198.0" r="3" fill="#3fb950"/><circle cx="382.7" cy="198.0" r="3" fill="#3fb950"/><circle cx="385.2" cy="198.0" r="3" fill="#3fb950"/><circle cx="387.7" cy="198.0" r="3" fill="#3fb950"/><circle cx="390.2" cy="198.0" r="3" fill="#3fb950"/><circle cx="392.7" cy="198.0" r="3" fill="#3fb950"/><circle cx="395.2" cy="198.0" r="3" fill="#3fb950"/><circle cx="397.7" cy="198.0" r="3" fill="#3fb950"/><circle cx="400.2" cy="198.0" r="3" fill="#3fb950"/><circle cx="402.8" cy="198.0" r="3" fill="#3fb950"/><circle cx="405.3" cy="198.0" r="3" fill="#3fb950"/><circle cx="407.8" cy="198.0" r="3" fill="#3fb950"/><circle cx="410.3" cy="198.0" r="3" fill="#3fb950"/><circle cx="412.8" cy="198.0" r="3" fill="#3fb950"/><circle cx="415.3" cy="198.0" r="3" fill="#3fb950"/><circle cx="417.8" cy="198.0" r="3" fill="#3fb950"/><circle cx="420.3" cy="198.0" r="3" fill="#3fb950"/><circle cx="422.8" cy="198.0" r="3" fill="#3fb950"/><circle cx="425.4" cy="198.0" r="3" fill="#3fb950"/><circle cx="427.9" cy="198.0" r="3" fill="#3fb950"/><circle cx="430.4" cy="198.0" r="3" fill="#3fb950"/><circle cx="432.9" cy="198.0" r="3" fill="#3fb950"/><circle cx="435.4" cy="198.0" r="3" fill="#3fb950"/><circle cx="437.9" cy="198.0" r="3" fill="#3fb950"/><circle cx="440.4" cy="198.0" r="3" fill="#3fb950"/><circle cx="442.9" cy="198.0" r="3" fill="#3fb950"/><circle cx="445.5" cy="198.0" r="3" fill="#3fb950"/><circle cx="448.0" cy="198.0" r="3" fill="#3fb950"/><circle cx="450.5" cy="198.0" r="3" fill="#3fb950"/><circle cx="453.0" cy="198.0" r="3" fill="#3fb950"/><circle cx="455.5" cy="198.0" r="3" fill="#3fb950"/><circle cx="458.0" cy="198.0" r="3" fill="#3fb950"/><circle cx="460.5" cy="198.0" r="3" fill="#3fb950"/><circle cx="463.0" cy="198.0" r="3" fill="#3fb950"/><circle cx="465.6" cy="198.0" r="3" fill="#3fb950"/><circle cx="468.1" cy="198.0" r="3" fill="#3fb950"/><circle cx="470.6" cy="198.0" r="3" fill="#3fb950"/><circle cx="473.1" cy="198.0" r="3" fill="#3fb950"/><circle cx="475.6" cy="198.0" r="3" fill="#3fb950"/><circle cx="478.1" cy="198.0" r="3" fill="#3fb950"/><circle cx="480.6" cy="198.0" r="3" fill="#3fb950"/><circle cx="483.1" cy="198.0" r="3" fill="#3fb950"/><circle cx="485.6" cy="198.0" r="3" fill="#3fb950"/><circle cx="488.2" cy="198.0" r="3" fill="#3fb950"/><circle cx="490.7" cy="198.0" r="3" fill="#3fb950"/><circle cx="493.2" cy="198.0" r="3" fill="#3fb950"/><circle cx="495.7" cy="198.0" r="3" fill="#3fb950"/><circle cx="498.2" cy="198.0" r="3" fill="#3fb950"/><circle cx="500.7" cy="198.0" r="3" fill="#3fb950"/><circle cx="503.2" cy="198.0" r="3" fill="#3fb950"/><circle cx="505.7" cy="198.0" r="3" fill="#3fb950"/><circle cx="508.3" cy="198.0" r="3" fill="#3fb950"/><circle cx="510.8" cy="198.0" r="3" fill="#3fb950"/><circle cx="513.3" cy="198.0" r="3" fill="#3fb950"/><circle cx="515.8" cy="198.0" r="3" fill="#3fb950"/><circle cx="518.3" cy="198.0" r="3" fill="#3fb950"/><circle cx="520.8" cy="198.0" r="3" fill="#3fb950"/><circle cx="523.3" cy="198.0" r="3" fill="#3fb950"/><circle cx="525.8" cy="198.0" r="3" fill="#3fb950"/><circle cx="528.4" cy="198.0" r="3" fill="#3fb950"/><circle cx="530.9" cy="198.0" r="3" fill="#3fb950"/><circle cx="533.4" cy="198.0" r="3" fill="#3fb950"/><circle cx="535.9" cy="198.0" r="3" fill="#3fb950"/><circle cx="538.4" cy="198.0" r="3" fill="#3fb950"/><circle cx="540.9" cy="198.0" r="3" fill="#3fb950"/><circle cx="543.4" cy="198.0" r="3" fill="#3fb950"/><circle cx="545.9" cy="198.0" r="3" fill="#3fb950"/><circle cx="548.4" cy="198.0" r="3" fill="#3fb950"/><circle cx="551.0" cy="198.0" r="3" fill="#3fb950"/><circle cx="553.5" cy="198.0" r="3" fill="#3fb950"/><circle cx="556.0" cy="198.0" r="3" fill="#3fb950"/><circle cx="558.5" cy="198.0" r="3" fill="#3fb950"/><circle cx="561.0" cy="198.0" r="3" fill="#3fb950"/><circle cx="563.5" cy="198.0" r="3" fill="#3fb950"/><circle cx="566.0" cy="198.0" r="3" fill="#3fb950"/><circle cx="568.5" cy="198.0" r="3" fill="#3fb950"/><circle cx="571.1" cy="198.0" r="3" fill="#3fb950"/><circle cx="573.6" cy="198.0" r="3" fill="#3fb950"/><circle cx="576.1" cy="198.0" r="3" fill="#3fb950"/><circle cx="578.6" cy="198.0" r="3" fill="#3fb950"/><circle cx="581.1" cy="198.0" r="3" fill="#3fb950"/><circle cx="583.6" cy="198.0" r="3" fill="#3fb950"/><circle cx="586.1" cy="198.0" r="3" fill="#3fb950"/><circle cx="588.6" cy="198.0" r="3" fill="#3fb950"/><circle cx="591.2" cy="198.0" r="3" fill="#3fb950"/><circle cx="593.7" cy="198.0" r="3" fill="#3fb950"/><circle cx="596.2" cy="198.0" r="3" fill="#3fb950"/><circle cx="598.7" cy="198.0" r="3" fill="#3fb950"/><circle cx="601.2" cy="198.0" r="3" fill="#3fb950"/><circle cx="603.7" cy="198.0" r="3" fill="#3fb950"/><circle cx="606.2" cy="198.0" r="3" fill="#3fb950"/><circle cx="608.7" cy="198.0" r="3" fill="#3fb950"/><circle cx="611.2" cy="198.0" r="3" fill="#3fb950"/><circle cx="613.8" cy="198.0" r="3" fill="#3fb950"/><circle cx="616.3" cy="198.0" r="3" fill="#3fb950"/><circle cx="618.8" cy="198.0" r="3" fill="#3fb950"/><circle cx="621.3" cy="198.0" r="3" fill="#3fb950"/><circle cx="623.8" cy="198.0" r="3" fill="#3fb950"/><circle cx="626.3" cy="198.0" r="3" fill="#3fb950"/><circle cx="628.8" cy="198.0" r="3" fill="#3fb950"/><circle cx="631.3" cy="198.0" r="3" fill="#3fb950"/><circle cx="633.9" cy="198.0" r="3" fill="#3fb950"/><circle cx="636.4" cy="198.0" r="3" fill="#3fb950"/><circle cx="638.9" cy="198.0" r="3" fill="#3fb950"/><circle cx="641.4" cy="198.0" r="3" fill="#3fb950"/><circle cx="643.9" cy="198.0" r="3" fill="#3fb950"/><circle cx="646.4" cy="198.0" r="3" fill="#3fb950"/><circle cx="648.9" cy="198.0" r="3" fill="#3fb950"/><circle cx="651.4" cy="198.0" r="3" fill="#3fb950"/><circle cx="654.0" cy="198.0" r="3" fill="#3fb950"/><circle cx="656.5" cy="198.0" r="3" fill="#3fb950"/><circle cx="659.0" cy="198.0" r="3" fill="#3fb950"/><circle cx="661.5" cy="198.0" r="3" fill="#3fb950"/><circle cx="664.0" cy="198.0" r="3" fill="#3fb950"/>
<polyline fill="none" stroke="#4aa3ff" stroke-width="2.5" stroke-linejoin="round" points="36.0,144.3 38.5,144.3 41.0,144.3 43.5,144.3 46.0,144.3 48.6,144.3 51.1,144.3 53.6,144.3 56.1,144.3 58.6,144.3 61.1,144.3 63.6,144.3 66.1,144.3 68.7,144.3 71.2,144.3 73.7,136.2 76.2,132.4 78.7,129.6 81.2,129.6 83.7,121.0 86.2,121.0 88.8,121.0 91.3,114.4 93.8,114.4 96.3,114.4 98.8,111.3 101.3,110.9 103.8,110.9 106.3,110.5 108.8,110.5 111.4,109.9 113.9,108.7 116.4,107.3 118.9,106.9 121.4,106.9 123.9,106.9 126.4,106.9 128.9,106.9 131.5,106.9 134.0,106.9 136.5,106.9 139.0,106.9 141.5,106.9 144.0,113.2 146.5,113.2 149.0,113.2 151.6,113.2 154.1,113.2 156.6,110.7 159.1,105.3 161.6,83.4 164.1,83.4 166.6,85.6 169.1,85.6 171.6,85.6 174.2,85.6 176.7,85.6 179.2,85.8 181.7,85.8 184.2,85.8 186.7,86.0 189.2,86.0 191.7,86.0 194.3,86.0 196.8,86.0 199.3,86.0 201.8,86.0 204.3,86.0 206.8,86.0 209.3,86.0 211.8,86.0 214.4,86.0 216.9,86.0 219.4,86.0 221.9,86.0 224.4,86.0 226.9,86.0 229.4,86.0 231.9,86.0 234.4,86.0 237.0,86.0 239.5,87.0 242.0,87.0 244.5,87.0 247.0,73.7 249.5,73.7 252.0,71.0 254.5,71.0 257.1,70.8 259.6,70.6 262.1,70.6 264.6,70.4 267.1,68.6 269.6,60.5 272.1,59.3 274.6,52.0 277.2,47.3 279.7,40.1 282.2,36.0 284.7,36.0 287.2,36.0 289.7,36.0 292.2,36.0 294.7,36.0 297.2,36.0 299.8,36.0 302.3,36.0 304.8,36.0 307.3,36.0 309.8,36.0 312.3,36.0 314.8,36.0 317.3,36.0 319.9,36.0 322.4,36.0 324.9,36.0 327.4,36.0 329.9,36.0 332.4,36.0 334.9,36.0 337.4,36.0 340.0,36.0 342.5,36.0 345.0,36.0 347.5,36.0 350.0,36.0 352.5,36.0 355.0,36.0 357.5,36.0 360.0,36.0 362.6,36.0 365.1,36.0 367.6,36.0 370.1,36.0 372.6,36.0 375.1,36.0 377.6,36.0 380.1,36.0 382.7,36.0 385.2,36.0 387.7,36.0 390.2,36.0 392.7,36.0 395.2,36.0 397.7,36.0 400.2,36.0 402.8,36.0 405.3,36.0 407.8,36.0 410.3,36.0 412.8,36.0 415.3,36.0 417.8,36.0 420.3,36.0 422.8,36.0 425.4,36.0 427.9,36.0 430.4,36.0 432.9,36.0 435.4,36.0 437.9,36.0 440.4,36.0 442.9,36.0 445.5,36.0 448.0,36.0 450.5,36.0 453.0,36.0 455.5,36.0 458.0,36.0 460.5,36.0 463.0,36.0 465.6,36.0 468.1,36.0 470.6,36.0 473.1,36.0 475.6,36.0 478.1,36.0 480.6,36.0 483.1,36.0 485.6,36.0 488.2,36.0 490.7,36.0 493.2,36.0 495.7,36.0 498.2,36.0 500.7,36.0 503.2,36.0 505.7,36.0 508.3,36.0 510.8,36.0 513.3,36.0 515.8,36.0 518.3,36.0 520.8,36.0 523.3,36.0 525.8,36.0 528.4,36.0 530.9,36.0 533.4,36.0 535.9,36.0 538.4,36.0 540.9,36.0 543.4,36.0 545.9,36.0 548.4,36.0 551.0,36.0 553.5,36.0 556.0,36.0 558.5,36.0 561.0,36.0 563.5,36.0 566.0,36.0 568.5,36.0 571.1,36.0 573.6,36.0 576.1,36.0 578.6,36.0 581.1,36.0 583.6,36.0 586.1,36.0 588.6,36.0 591.2,36.0 593.7,36.0 596.2,36.0 598.7,36.0 601.2,36.0 603.7,36.0 606.2,36.0 608.7,36.0 611.2,36.0 613.8,36.0 616.3,36.0 618.8,36.0 621.3,36.0 623.8,36.0 626.3,36.0 628.8,36.0 631.3,36.0 633.9,36.0 636.4,36.0 638.9,36.0 641.4,36.0 643.9,36.0 646.4,36.0 648.9,36.0 651.4,36.0 654.0,36.0 656.5,36.0 659.0,36.0 661.5,36.0 664.0,36.0"/><circle cx="36.0" cy="144.3" r="3" fill="#4aa3ff"/><circle cx="38.5" cy="144.3" r="3" fill="#4aa3ff"/><circle cx="41.0" cy="144.3" r="3" fill="#4aa3ff"/><circle cx="43.5" cy="144.3" r="3" fill="#4aa3ff"/><circle cx="46.0" cy="144.3" r="3" fill="#4aa3ff"/><circle cx="48.6" cy="144.3" r="3" fill="#4aa3ff"/><circle cx="51.1" cy="144.3" r="3" fill="#4aa3ff"/><circle cx="53.6" cy="144.3" r="3" fill="#4aa3ff"/><circle cx="56.1" cy="144.3" r="3" fill="#4aa3ff"/><circle cx="58.6" cy="144.3" r="3" fill="#4aa3ff"/><circle cx="61.1" cy="144.3" r="3" fill="#4aa3ff"/><circle cx="63.6" cy="144.3" r="3" fill="#4aa3ff"/><circle cx="66.1" cy="144.3" r="3" fill="#4aa3ff"/><circle cx="68.7" cy="144.3" r="3" fill="#4aa3ff"/><circle cx="71.2" cy="144.3" r="3" fill="#4aa3ff"/><circle cx="73.7" cy="136.2" r="3" fill="#4aa3ff"/><circle cx="76.2" cy="132.4" r="3" fill="#4aa3ff"/><circle cx="78.7" cy="129.6" r="3" fill="#4aa3ff"/><circle cx="81.2" cy="129.6" r="3" fill="#4aa3ff"/><circle cx="83.7" cy="121.0" r="3" fill="#4aa3ff"/><circle cx="86.2" cy="121.0" r="3" fill="#4aa3ff"/><circle cx="88.8" cy="121.0" r="3" fill="#4aa3ff"/><circle cx="91.3" cy="114.4" r="3" fill="#4aa3ff"/><circle cx="93.8" cy="114.4" r="3" fill="#4aa3ff"/><circle cx="96.3" cy="114.4" r="3" fill="#4aa3ff"/><circle cx="98.8" cy="111.3" r="3" fill="#4aa3ff"/><circle cx="101.3" cy="110.9" r="3" fill="#4aa3ff"/><circle cx="103.8" cy="110.9" r="3" fill="#4aa3ff"/><circle cx="106.3" cy="110.5" r="3" fill="#4aa3ff"/><circle cx="108.8" cy="110.5" r="3" fill="#4aa3ff"/><circle cx="111.4" cy="109.9" r="3" fill="#4aa3ff"/><circle cx="113.9" cy="108.7" r="3" fill="#4aa3ff"/><circle cx="116.4" cy="107.3" r="3" fill="#4aa3ff"/><circle cx="118.9" cy="106.9" r="3" fill="#4aa3ff"/><circle cx="121.4" cy="106.9" r="3" fill="#4aa3ff"/><circle cx="123.9" cy="106.9" r="3" fill="#4aa3ff"/><circle cx="126.4" cy="106.9" r="3" fill="#4aa3ff"/><circle cx="128.9" cy="106.9" r="3" fill="#4aa3ff"/><circle cx="131.5" cy="106.9" r="3" fill="#4aa3ff"/><circle cx="134.0" cy="106.9" r="3" fill="#4aa3ff"/><circle cx="136.5" cy="106.9" r="3" fill="#4aa3ff"/><circle cx="139.0" cy="106.9" r="3" fill="#4aa3ff"/><circle cx="141.5" cy="106.9" r="3" fill="#4aa3ff"/><circle cx="144.0" cy="113.2" r="3" fill="#4aa3ff"/><circle cx="146.5" cy="113.2" r="3" fill="#4aa3ff"/><circle cx="149.0" cy="113.2" r="3" fill="#4aa3ff"/><circle cx="151.6" cy="113.2" r="3" fill="#4aa3ff"/><circle cx="154.1" cy="113.2" r="3" fill="#4aa3ff"/><circle cx="156.6" cy="110.7" r="3" fill="#4aa3ff"/><circle cx="159.1" cy="105.3" r="3" fill="#4aa3ff"/><circle cx="161.6" cy="83.4" r="3" fill="#4aa3ff"/><circle cx="164.1" cy="83.4" r="3" fill="#4aa3ff"/><circle cx="166.6" cy="85.6" r="3" fill="#4aa3ff"/><circle cx="169.1" cy="85.6" r="3" fill="#4aa3ff"/><circle cx="171.6" cy="85.6" r="3" fill="#4aa3ff"/><circle cx="174.2" cy="85.6" r="3" fill="#4aa3ff"/><circle cx="176.7" cy="85.6" r="3" fill="#4aa3ff"/><circle cx="179.2" cy="85.8" r="3" fill="#4aa3ff"/><circle cx="181.7" cy="85.8" r="3" fill="#4aa3ff"/><circle cx="184.2" cy="85.8" r="3" fill="#4aa3ff"/><circle cx="186.7" cy="86.0" r="3" fill="#4aa3ff"/><circle cx="189.2" cy="86.0" r="3" fill="#4aa3ff"/><circle cx="191.7" cy="86.0" r="3" fill="#4aa3ff"/><circle cx="194.3" cy="86.0" r="3" fill="#4aa3ff"/><circle cx="196.8" cy="86.0" r="3" fill="#4aa3ff"/><circle cx="199.3" cy="86.0" r="3" fill="#4aa3ff"/><circle cx="201.8" cy="86.0" r="3" fill="#4aa3ff"/><circle cx="204.3" cy="86.0" r="3" fill="#4aa3ff"/><circle cx="206.8" cy="86.0" r="3" fill="#4aa3ff"/><circle cx="209.3" cy="86.0" r="3" fill="#4aa3ff"/><circle cx="211.8" cy="86.0" r="3" fill="#4aa3ff"/><circle cx="214.4" cy="86.0" r="3" fill="#4aa3ff"/><circle cx="216.9" cy="86.0" r="3" fill="#4aa3ff"/><circle cx="219.4" cy="86.0" r="3" fill="#4aa3ff"/><circle cx="221.9" cy="86.0" r="3" fill="#4aa3ff"/><circle cx="224.4" cy="86.0" r="3" fill="#4aa3ff"/><circle cx="226.9" cy="86.0" r="3" fill="#4aa3ff"/><circle cx="229.4" cy="86.0" r="3" fill="#4aa3ff"/><circle cx="231.9" cy="86.0" r="3" fill="#4aa3ff"/><circle cx="234.4" cy="86.0" r="3" fill="#4aa3ff"/><circle cx="237.0" cy="86.0" r="3" fill="#4aa3ff"/><circle cx="239.5" cy="87.0" r="3" fill="#4aa3ff"/><circle cx="242.0" cy="87.0" r="3" fill="#4aa3ff"/><circle cx="244.5" cy="87.0" r="3" fill="#4aa3ff"/><circle cx="247.0" cy="73.7" r="3" fill="#4aa3ff"/><circle cx="249.5" cy="73.7" r="3" fill="#4aa3ff"/><circle cx="252.0" cy="71.0" r="3" fill="#4aa3ff"/><circle cx="254.5" cy="71.0" r="3" fill="#4aa3ff"/><circle cx="257.1" cy="70.8" r="3" fill="#4aa3ff"/><circle cx="259.6" cy="70.6" r="3" fill="#4aa3ff"/><circle cx="262.1" cy="70.6" r="3" fill="#4aa3ff"/><circle cx="264.6" cy="70.4" r="3" fill="#4aa3ff"/><circle cx="267.1" cy="68.6" r="3" fill="#4aa3ff"/><circle cx="269.6" cy="60.5" r="3" fill="#4aa3ff"/><circle cx="272.1" cy="59.3" r="3" fill="#4aa3ff"/><circle cx="274.6" cy="52.0" r="3" fill="#4aa3ff"/><circle cx="277.2" cy="47.3" r="3" fill="#4aa3ff"/><circle cx="279.7" cy="40.1" r="3" fill="#4aa3ff"/><circle cx="282.2" cy="36.0" r="3" fill="#4aa3ff"/><circle cx="284.7" cy="36.0" r="3" fill="#4aa3ff"/><circle cx="287.2" cy="36.0" r="3" fill="#4aa3ff"/><circle cx="289.7" cy="36.0" r="3" fill="#4aa3ff"/><circle cx="292.2" cy="36.0" r="3" fill="#4aa3ff"/><circle cx="294.7" cy="36.0" r="3" fill="#4aa3ff"/><circle cx="297.2" cy="36.0" r="3" fill="#4aa3ff"/><circle cx="299.8" cy="36.0" r="3" fill="#4aa3ff"/><circle cx="302.3" cy="36.0" r="3" fill="#4aa3ff"/><circle cx="304.8" cy="36.0" r="3" fill="#4aa3ff"/><circle cx="307.3" cy="36.0" r="3" fill="#4aa3ff"/><circle cx="309.8" cy="36.0" r="3" fill="#4aa3ff"/><circle cx="312.3" cy="36.0" r="3" fill="#4aa3ff"/><circle cx="314.8" cy="36.0" r="3" fill="#4aa3ff"/><circle cx="317.3" cy="36.0" r="3" fill="#4aa3ff"/><circle cx="319.9" cy="36.0" r="3" fill="#4aa3ff"/><circle cx="322.4" cy="36.0" r="3" fill="#4aa3ff"/><circle cx="324.9" cy="36.0" r="3" fill="#4aa3ff"/><circle cx="327.4" cy="36.0" r="3" fill="#4aa3ff"/><circle cx="329.9" cy="36.0" r="3" fill="#4aa3ff"/><circle cx="332.4" cy="36.0" r="3" fill="#4aa3ff"/><circle cx="334.9" cy="36.0" r="3" fill="#4aa3ff"/><circle cx="337.4" cy="36.0" r="3" fill="#4aa3ff"/><circle cx="340.0" cy="36.0" r="3" fill="#4aa3ff"/><circle cx="342.5" cy="36.0" r="3" fill="#4aa3ff"/><circle cx="345.0" cy="36.0" r="3" fill="#4aa3ff"/><circle cx="347.5" cy="36.0" r="3" fill="#4aa3ff"/><circle cx="350.0" cy="36.0" r="3" fill="#4aa3ff"/><circle cx="352.5" cy="36.0" r="3" fill="#4aa3ff"/><circle cx="355.0" cy="36.0" r="3" fill="#4aa3ff"/><circle cx="357.5" cy="36.0" r="3" fill="#4aa3ff"/><circle cx="360.0" cy="36.0" r="3" fill="#4aa3ff"/><circle cx="362.6" cy="36.0" r="3" fill="#4aa3ff"/><circle cx="365.1" cy="36.0" r="3" fill="#4aa3ff"/><circle cx="367.6" cy="36.0" r="3" fill="#4aa3ff"/><circle cx="370.1" cy="36.0" r="3" fill="#4aa3ff"/><circle cx="372.6" cy="36.0" r="3" fill="#4aa3ff"/><circle cx="375.1" cy="36.0" r="3" fill="#4aa3ff"/><circle cx="377.6" cy="36.0" r="3" fill="#4aa3ff"/><circle cx="380.1" cy="36.0" r="3" fill="#4aa3ff"/><circle cx="382.7" cy="36.0" r="3" fill="#4aa3ff"/><circle cx="385.2" cy="36.0" r="3" fill="#4aa3ff"/><circle cx="387.7" cy="36.0" r="3" fill="#4aa3ff"/><circle cx="390.2" cy="36.0" r="3" fill="#4aa3ff"/><circle cx="392.7" cy="36.0" r="3" fill="#4aa3ff"/><circle cx="395.2" cy="36.0" r="3" fill="#4aa3ff"/><circle cx="397.7" cy="36.0" r="3" fill="#4aa3ff"/><circle cx="400.2" cy="36.0" r="3" fill="#4aa3ff"/><circle cx="402.8" cy="36.0" r="3" fill="#4aa3ff"/><circle cx="405.3" cy="36.0" r="3" fill="#4aa3ff"/><circle cx="407.8" cy="36.0" r="3" fill="#4aa3ff"/><circle cx="410.3" cy="36.0" r="3" fill="#4aa3ff"/><circle cx="412.8" cy="36.0" r="3" fill="#4aa3ff"/><circle cx="415.3" cy="36.0" r="3" fill="#4aa3ff"/><circle cx="417.8" cy="36.0" r="3" fill="#4aa3ff"/><circle cx="420.3" cy="36.0" r="3" fill="#4aa3ff"/><circle cx="422.8" cy="36.0" r="3" fill="#4aa3ff"/><circle cx="425.4" cy="36.0" r="3" fill="#4aa3ff"/><circle cx="427.9" cy="36.0" r="3" fill="#4aa3ff"/><circle cx="430.4" cy="36.0" r="3" fill="#4aa3ff"/><circle cx="432.9" cy="36.0" r="3" fill="#4aa3ff"/><circle cx="435.4" cy="36.0" r="3" fill="#4aa3ff"/><circle cx="437.9" cy="36.0" r="3" fill="#4aa3ff"/><circle cx="440.4" cy="36.0" r="3" fill="#4aa3ff"/><circle cx="442.9" cy="36.0" r="3" fill="#4aa3ff"/><circle cx="445.5" cy="36.0" r="3" fill="#4aa3ff"/><circle cx="448.0" cy="36.0" r="3" fill="#4aa3ff"/><circle cx="450.5" cy="36.0" r="3" fill="#4aa3ff"/><circle cx="453.0" cy="36.0" r="3" fill="#4aa3ff"/><circle cx="455.5" cy="36.0" r="3" fill="#4aa3ff"/><circle cx="458.0" cy="36.0" r="3" fill="#4aa3ff"/><circle cx="460.5" cy="36.0" r="3" fill="#4aa3ff"/><circle cx="463.0" cy="36.0" r="3" fill="#4aa3ff"/><circle cx="465.6" cy="36.0" r="3" fill="#4aa3ff"/><circle cx="468.1" cy="36.0" r="3" fill="#4aa3ff"/><circle cx="470.6" cy="36.0" r="3" fill="#4aa3ff"/><circle cx="473.1" cy="36.0" r="3" fill="#4aa3ff"/><circle cx="475.6" cy="36.0" r="3" fill="#4aa3ff"/><circle cx="478.1" cy="36.0" r="3" fill="#4aa3ff"/><circle cx="480.6" cy="36.0" r="3" fill="#4aa3ff"/><circle cx="483.1" cy="36.0" r="3" fill="#4aa3ff"/><circle cx="485.6" cy="36.0" r="3" fill="#4aa3ff"/><circle cx="488.2" cy="36.0" r="3" fill="#4aa3ff"/><circle cx="490.7" cy="36.0" r="3" fill="#4aa3ff"/><circle cx="493.2" cy="36.0" r="3" fill="#4aa3ff"/><circle cx="495.7" cy="36.0" r="3" fill="#4aa3ff"/><circle cx="498.2" cy="36.0" r="3" fill="#4aa3ff"/><circle cx="500.7" cy="36.0" r="3" fill="#4aa3ff"/><circle cx="503.2" cy="36.0" r="3" fill="#4aa3ff"/><circle cx="505.7" cy="36.0" r="3" fill="#4aa3ff"/><circle cx="508.3" cy="36.0" r="3" fill="#4aa3ff"/><circle cx="510.8" cy="36.0" r="3" fill="#4aa3ff"/><circle cx="513.3" cy="36.0" r="3" fill="#4aa3ff"/><circle cx="515.8" cy="36.0" r="3" fill="#4aa3ff"/><circle cx="518.3" cy="36.0" r="3" fill="#4aa3ff"/><circle cx="520.8" cy="36.0" r="3" fill="#4aa3ff"/><circle cx="523.3" cy="36.0" r="3" fill="#4aa3ff"/><circle cx="525.8" cy="36.0" r="3" fill="#4aa3ff"/><circle cx="528.4" cy="36.0" r="3" fill="#4aa3ff"/><circle cx="530.9" cy="36.0" r="3" fill="#4aa3ff"/><circle cx="533.4" cy="36.0" r="3" fill="#4aa3ff"/><circle cx="535.9" cy="36.0" r="3" fill="#4aa3ff"/><circle cx="538.4" cy="36.0" r="3" fill="#4aa3ff"/><circle cx="540.9" cy="36.0" r="3" fill="#4aa3ff"/><circle cx="543.4" cy="36.0" r="3" fill="#4aa3ff"/><circle cx="545.9" cy="36.0" r="3" fill="#4aa3ff"/><circle cx="548.4" cy="36.0" r="3" fill="#4aa3ff"/><circle cx="551.0" cy="36.0" r="3" fill="#4aa3ff"/><circle cx="553.5" cy="36.0" r="3" fill="#4aa3ff"/><circle cx="556.0" cy="36.0" r="3" fill="#4aa3ff"/><circle cx="558.5" cy="36.0" r="3" fill="#4aa3ff"/><circle cx="561.0" cy="36.0" r="3" fill="#4aa3ff"/><circle cx="563.5" cy="36.0" r="3" fill="#4aa3ff"/><circle cx="566.0" cy="36.0" r="3" fill="#4aa3ff"/><circle cx="568.5" cy="36.0" r="3" fill="#4aa3ff"/><circle cx="571.1" cy="36.0" r="3" fill="#4aa3ff"/><circle cx="573.6" cy="36.0" r="3" fill="#4aa3ff"/><circle cx="576.1" cy="36.0" r="3" fill="#4aa3ff"/><circle cx="578.6" cy="36.0" r="3" fill="#4aa3ff"/><circle cx="581.1" cy="36.0" r="3" fill="#4aa3ff"/><circle cx="583.6" cy="36.0" r="3" fill="#4aa3ff"/><circle cx="586.1" cy="36.0" r="3" fill="#4aa3ff"/><circle cx="588.6" cy="36.0" r="3" fill="#4aa3ff"/><circle cx="591.2" cy="36.0" r="3" fill="#4aa3ff"/><circle cx="593.7" cy="36.0" r="3" fill="#4aa3ff"/><circle cx="596.2" cy="36.0" r="3" fill="#4aa3ff"/><circle cx="598.7" cy="36.0" r="3" fill="#4aa3ff"/><circle cx="601.2" cy="36.0" r="3" fill="#4aa3ff"/><circle cx="603.7" cy="36.0" r="3" fill="#4aa3ff"/><circle cx="606.2" cy="36.0" r="3" fill="#4aa3ff"/><circle cx="608.7" cy="36.0" r="3" fill="#4aa3ff"/><circle cx="611.2" cy="36.0" r="3" fill="#4aa3ff"/><circle cx="613.8" cy="36.0" r="3" fill="#4aa3ff"/><circle cx="616.3" cy="36.0" r="3" fill="#4aa3ff"/><circle cx="618.8" cy="36.0" r="3" fill="#4aa3ff"/><circle cx="621.3" cy="36.0" r="3" fill="#4aa3ff"/><circle cx="623.8" cy="36.0" r="3" fill="#4aa3ff"/><circle cx="626.3" cy="36.0" r="3" fill="#4aa3ff"/><circle cx="628.8" cy="36.0" r="3" fill="#4aa3ff"/><circle cx="631.3" cy="36.0" r="3" fill="#4aa3ff"/><circle cx="633.9" cy="36.0" r="3" fill="#4aa3ff"/><circle cx="636.4" cy="36.0" r="3" fill="#4aa3ff"/><circle cx="638.9" cy="36.0" r="3" fill="#4aa3ff"/><circle cx="641.4" cy="36.0" r="3" fill="#4aa3ff"/><circle cx="643.9" cy="36.0" r="3" fill="#4aa3ff"/><circle cx="646.4" cy="36.0" r="3" fill="#4aa3ff"/><circle cx="648.9" cy="36.0" r="3" fill="#4aa3ff"/><circle cx="651.4" cy="36.0" r="3" fill="#4aa3ff"/><circle cx="654.0" cy="36.0" r="3" fill="#4aa3ff"/><circle cx="656.5" cy="36.0" r="3" fill="#4aa3ff"/><circle cx="659.0" cy="36.0" r="3" fill="#4aa3ff"/><circle cx="661.5" cy="36.0" r="3" fill="#4aa3ff"/><circle cx="664.0" cy="36.0" r="3" fill="#4aa3ff"/>
<text x="36" y="225" fill="#6b7280" font-size="11">2026-06-26</text>
<text x="664" y="225" fill="#6b7280" font-size="11" text-anchor="end">2026-07-21</text>
<text x="36" y="212" font-family="system-ui,sans-serif" font-size="11">
<tspan fill="#4aa3ff">&#9679; open FPs</tspan>  <tspan fill="#3fb950">&#9679; closed (Anthropic acting)</tspan>  <tspan fill="#8a5a5a">&#9679; harness withdrawn</tspan></text>
<text x="664" y="22" text-anchor="end" font-family="system-ui,sans-serif" font-size="12">
<tspan fill="#4aa3ff">open 800</tspan>  <tspan fill="#3fb950">closed 0</tspan>  <tspan fill="#8a5a5a">harness 0</tspan></text>
</svg>