<svg xmlns="http://www.w3.org/2000/svg" width="700" height="234" viewBox="0 0 700 234" role="img">
<rect width="700" height="234" rx="12" fill="#16181d"/>
<text x="36" y="22" fill="#e8eaed" font-family="system-ui,sans-serif" font-size="14" font-weight="700">Is Anthropic acting? cyber/aup false positives over time</text>
<line x1="36" y1="198.0" x2="664" y2="198.0" stroke="#2a2e37" stroke-width="1"/><text x="30" y="202.0" fill="#6b7280" font-size="11" text-anchor="end">0</text><line x1="36" y1="117.0" x2="664" y2="117.0" stroke="#2a2e37" stroke-width="1"/><text x="30" y="121.0" fill="#6b7280" font-size="11" text-anchor="end">216</text><line x1="36" y1="36.0" x2="664" y2="36.0" stroke="#2a2e37" stroke-width="1"/><text x="30" y="40.0" fill="#6b7280" font-size="11" text-anchor="end">432</text>

<polyline fill="none" stroke="#8a5a5a" stroke-width="2.5" stroke-linejoin="round" points="36.0,100.1 58.4,100.1 80.9,100.1 103.3,100.1 125.7,100.1 148.1,100.1 170.6,100.1 193.0,100.1 215.4,100.1 237.9,100.1 260.3,100.1 282.7,100.1 305.1,100.1 327.6,100.1 350.0,100.1 372.4,100.1 394.9,100.1 417.3,100.1 439.7,100.1 462.1,100.1 484.6,100.1 507.0,100.1 529.4,100.1 551.9,100.1 574.3,100.1 596.7,100.1 619.1,100.1 641.6,100.1 664.0,100.1"/><circle cx="36.0" cy="100.1" r="3" fill="#8a5a5a"/><circle cx="58.4" cy="100.1" r="3" fill="#8a5a5a"/><circle cx="80.9" cy="100.1" r="3" fill="#8a5a5a"/><circle cx="103.3" cy="100.1" r="3" fill="#8a5a5a"/><circle cx="125.7" cy="100.1" r="3" fill="#8a5a5a"/><circle cx="148.1" cy="100.1" r="3" fill="#8a5a5a"/><circle cx="170.6" cy="100.1" r="3" fill="#8a5a5a"/><circle cx="193.0" cy="100.1" r="3" fill="#8a5a5a"/><circle cx="215.4" cy="100.1" r="3" fill="#8a5a5a"/><circle cx="237.9" cy="100.1" r="3" fill="#8a5a5a"/><circle cx="260.3" cy="100.1" r="3" fill="#8a5a5a"/><circle cx="282.7" cy="100.1" r="3" fill="#8a5a5a"/><circle cx="305.1" cy="100.1" r="3" fill="#8a5a5a"/><circle cx="327.6" cy="100.1" r="3" fill="#8a5a5a"/><circle cx="350.0" cy="100.1" r="3" fill="#8a5a5a"/><circle cx="372.4" cy="100.1" r="3" fill="#8a5a5a"/><circle cx="394.9" cy="100.1" r="3" fill="#8a5a5a"/><circle cx="417.3" cy="100.1" r="3" fill="#8a5a5a"/><circle cx="439.7" cy="100.1" r="3" fill="#8a5a5a"/><circle cx="462.1" cy="100.1" r="3" fill="#8a5a5a"/><circle cx="484.6" cy="100.1" r="3" fill="#8a5a5a"/><circle cx="507.0" cy="100.1" r="3" fill="#8a5a5a"/><circle cx="529.4" cy="100.1" r="3" fill="#8a5a5a"/><circle cx="551.9" cy="100.1" r="3" fill="#8a5a5a"/><circle cx="574.3" cy="100.1" r="3" fill="#8a5a5a"/><circle cx="596.7" cy="100.1" r="3" fill="#8a5a5a"/><circle cx="619.1" cy="100.1" r="3" fill="#8a5a5a"/><circle cx="641.6" cy="100.1" r="3" fill="#8a5a5a"/><circle cx="664.0" cy="100.1" r="3" fill="#8a5a5a"/>
<polyline fill="none" stroke="#3fb950" stroke-width="2.5" stroke-linejoin="round" points="36.0,198.0 58.4,198.0 80.9,198.0 103.3,198.0 125.7,198.0 148.1,198.0 170.6,198.0 193.0,198.0 215.4,198.0 237.9,198.0 260.3,198.0 282.7,198.0 305.1,198.0 327.6,198.0 350.0,198.0 372.4,198.0 394.9,198.0 417.3,198.0 439.7,198.0 462.1,198.0 484.6,198.0 507.0,198.0 529.4,198.0 551.9,198.0 574.3,198.0 596.7,198.0 619.1,198.0 641.6,198.0 664.0,198.0"/><circle cx="36.0" cy="198.0" r="3" fill="#3fb950"/><circle cx="58.4" cy="198.0" r="3" fill="#3fb950"/><circle cx="80.9" cy="198.0" r="3" fill="#3fb950"/><circle cx="103.3" cy="198.0" r="3" fill="#3fb950"/><circle cx="125.7" cy="198.0" r="3" fill="#3fb950"/><circle cx="148.1" cy="198.0" r="3" fill="#3fb950"/><circle cx="170.6" cy="198.0" r="3" fill="#3fb950"/><circle cx="193.0" cy="198.0" r="3" fill="#3fb950"/><circle cx="215.4" cy="198.0" r="3" fill="#3fb950"/><circle cx="237.9" cy="198.0" r="3" fill="#3fb950"/><circle cx="260.3" cy="198.0" r="3" fill="#3fb950"/><circle cx="282.7" cy="198.0" r="3" fill="#3fb950"/><circle cx="305.1" cy="198.0" r="3" fill="#3fb950"/><circle cx="327.6" cy="198.0" r="3" fill="#3fb950"/><circle cx="350.0" cy="198.0" r="3" fill="#3fb950"/><circle cx="372.4" cy="198.0" r="3" fill="#3fb950"/><circle cx="394.9" cy="198.0" r="3" fill="#3fb950"/><circle cx="417.3" cy="198.0" r="3" fill="#3fb950"/><circle cx="439.7" cy="198.0" r="3" fill="#3fb950"/><circle cx="462.1" cy="198.0" r="3" fill="#3fb950"/><circle cx="484.6" cy="198.0" r="3" fill="#3fb950"/><circle cx="507.0" cy="198.0" r="3" fill="#3fb950"/><circle cx="529.4" cy="198.0" r="3" fill="#3fb950"/><circle cx="551.9" cy="198.0" r="3" fill="#3fb950"/><circle cx="574.3" cy="198.0" r="3" fill="#3fb950"/><circle cx="596.7" cy="198.0" r="3" fill="#3fb950"/><circle cx="619.1" cy="198.0" r="3" fill="#3fb950"/><circle cx="641.6" cy="198.0" r="3" fill="#3fb950"/><circle cx="664.0" cy="198.0" r="3" fill="#3fb950"/>
<polyline fill="none" stroke="#4aa3ff" stroke-width="2.5" stroke-linejoin="round" points="36.0,98.6 58.4,98.6 80.9,98.6 103.3,98.6 125.7,98.6 148.1,98.6 170.6,98.6 193.0,98.6 215.4,98.6 237.9,98.6 260.3,98.6 282.7,98.6 305.1,98.6 327.6,98.6 350.0,98.6 372.4,83.6 394.9,76.5 417.3,71.2 439.7,71.2 462.1,55.5 484.6,55.5 507.0,55.5 529.4,43.1 551.9,43.1 574.3,43.1 596.7,37.5 619.1,36.8 641.6,36.8 664.0,36.0"/><circle cx="36.0" cy="98.6" r="3" fill="#4aa3ff"/><circle cx="58.4" cy="98.6" r="3" fill="#4aa3ff"/><circle cx="80.9" cy="98.6" r="3" fill="#4aa3ff"/><circle cx="103.3" cy="98.6" r="3" fill="#4aa3ff"/><circle cx="125.7" cy="98.6" r="3" fill="#4aa3ff"/><circle cx="148.1" cy="98.6" r="3" fill="#4aa3ff"/><circle cx="170.6" cy="98.6" r="3" fill="#4aa3ff"/><circle cx="193.0" cy="98.6" r="3" fill="#4aa3ff"/><circle cx="215.4" cy="98.6" r="3" fill="#4aa3ff"/><circle cx="237.9" cy="98.6" r="3" fill="#4aa3ff"/><circle cx="260.3" cy="98.6" r="3" fill="#4aa3ff"/><circle cx="282.7" cy="98.6" r="3" fill="#4aa3ff"/><circle cx="305.1" cy="98.6" r="3" fill="#4aa3ff"/><circle cx="327.6" cy="98.6" r="3" fill="#4aa3ff"/><circle cx="350.0" cy="98.6" r="3" fill="#4aa3ff"/><circle cx="372.4" cy="83.6" r="3" fill="#4aa3ff"/><circle cx="394.9" cy="76.5" r="3" fill="#4aa3ff"/><circle cx="417.3" cy="71.2" r="3" fill="#4aa3ff"/><circle cx="439.7" cy="71.2" r="3" fill="#4aa3ff"/><circle cx="462.1" cy="55.5" r="3" fill="#4aa3ff"/><circle cx="484.6" cy="55.5" r="3" fill="#4aa3ff"/><circle cx="507.0" cy="55.5" r="3" fill="#4aa3ff"/><circle cx="529.4" cy="43.1" r="3" fill="#4aa3ff"/><circle cx="551.9" cy="43.1" r="3" fill="#4aa3ff"/><circle cx="574.3" cy="43.1" r="3" fill="#4aa3ff"/><circle cx="596.7" cy="37.5" r="3" fill="#4aa3ff"/><circle cx="619.1" cy="36.8" r="3" fill="#4aa3ff"/><circle cx="641.6" cy="36.8" r="3" fill="#4aa3ff"/><circle cx="664.0" cy="36.0" r="3" fill="#4aa3ff"/>
<text x="36" y="225" fill="#6b7280" font-size="11">2026-06-26</text>
<text x="664" y="225" fill="#6b7280" font-size="11" text-anchor="end">2026-06-29</text>
<text x="36" y="212" font-family="system-ui,sans-serif" font-size="11">
<tspan fill="#4aa3ff">&#9679; open FPs</tspan>  <tspan fill="#3fb950">&#9679; closed (Anthropic acting)</tspan>  <tspan fill="#8a5a5a">&#9679; harness withdrawn</tspan></text>
<text x="664" y="22" text-anchor="end" font-family="system-ui,sans-serif" font-size="12">
<tspan fill="#4aa3ff">open 432</tspan>  <tspan fill="#3fb950">closed 0</tspan>  <tspan fill="#8a5a5a">harness 261</tspan></text>
</svg>