<svg xmlns="http://www.w3.org/2000/svg" width="700" height="234" viewBox="0 0 700 234" role="img">
<rect width="700" height="234" rx="12" fill="#16181d"/>
<text x="36" y="22" fill="#e8eaed" font-family="system-ui,sans-serif" font-size="14" font-weight="700">Is Anthropic acting? cyber/aup false positives over time</text>
<line x1="36" y1="198.0" x2="664" y2="198.0" stroke="#2a2e37" stroke-width="1"/><text x="30" y="202.0" fill="#6b7280" font-size="11" text-anchor="end">0</text><line x1="36" y1="117.0" x2="664" y2="117.0" stroke="#2a2e37" stroke-width="1"/><text x="30" y="121.0" fill="#6b7280" font-size="11" text-anchor="end">283</text><line x1="36" y1="36.0" x2="664" y2="36.0" stroke="#2a2e37" stroke-width="1"/><text x="30" y="40.0" fill="#6b7280" font-size="11" text-anchor="end">566</text>

<polyline fill="none" stroke="#8a5a5a" stroke-width="2.5" stroke-linejoin="round" points="36.0,123.3 44.4,123.3 52.7,123.3 61.1,123.3 69.5,123.3 77.9,123.3 86.2,123.3 94.6,123.3 103.0,123.3 111.4,123.3 119.7,123.3 128.1,123.3 136.5,123.3 144.9,123.3 153.2,123.3 161.6,123.3 170.0,123.3 178.3,123.3 186.7,123.3 195.1,123.3 203.5,123.3 211.8,123.3 220.2,123.3 228.6,123.3 237.0,123.3 245.3,123.3 253.7,123.3 262.1,123.3 270.5,123.3 278.8,123.3 287.2,123.3 295.6,123.3 303.9,123.3 312.3,123.3 320.7,123.3 329.1,123.3 337.4,123.3 345.8,123.3 354.2,123.3 362.6,123.3 370.9,123.3 379.3,123.3 387.7,123.3 396.1,123.3 404.4,123.3 412.8,123.3 421.2,123.3 429.5,123.3 437.9,123.3 446.3,123.3 454.7,138.2 463.0,138.2 471.4,138.2 479.8,138.2 488.2,138.2 496.5,138.2 504.9,138.2 513.3,138.2 521.7,138.2 530.0,138.2 538.4,138.2 546.8,138.2 555.1,138.2 563.5,138.2 571.9,138.2 580.3,138.2 588.6,138.2 597.0,138.2 605.4,138.2 613.8,138.2 622.1,138.2 630.5,138.2 638.9,138.2 647.3,138.2 655.6,138.2 664.0,138.2"/><circle cx="36.0" cy="123.3" r="3" fill="#8a5a5a"/><circle cx="44.4" cy="123.3" r="3" fill="#8a5a5a"/><circle cx="52.7" cy="123.3" r="3" fill="#8a5a5a"/><circle cx="61.1" cy="123.3" r="3" fill="#8a5a5a"/><circle cx="69.5" cy="123.3" r="3" fill="#8a5a5a"/><circle cx="77.9" cy="123.3" r="3" fill="#8a5a5a"/><circle cx="86.2" cy="123.3" r="3" fill="#8a5a5a"/><circle cx="94.6" cy="123.3" r="3" fill="#8a5a5a"/><circle cx="103.0" cy="123.3" r="3" fill="#8a5a5a"/><circle cx="111.4" cy="123.3" r="3" fill="#8a5a5a"/><circle cx="119.7" cy="123.3" r="3" fill="#8a5a5a"/><circle cx="128.1" cy="123.3" r="3" fill="#8a5a5a"/><circle cx="136.5" cy="123.3" r="3" fill="#8a5a5a"/><circle cx="144.9" cy="123.3" r="3" fill="#8a5a5a"/><circle cx="153.2" cy="123.3" r="3" fill="#8a5a5a"/><circle cx="161.6" cy="123.3" r="3" fill="#8a5a5a"/><circle cx="170.0" cy="123.3" r="3" fill="#8a5a5a"/><circle cx="178.3" cy="123.3" r="3" fill="#8a5a5a"/><circle cx="186.7" cy="123.3" r="3" fill="#8a5a5a"/><circle cx="195.1" cy="123.3" r="3" fill="#8a5a5a"/><circle cx="203.5" cy="123.3" r="3" fill="#8a5a5a"/><circle cx="211.8" cy="123.3" r="3" fill="#8a5a5a"/><circle cx="220.2" cy="123.3" r="3" fill="#8a5a5a"/><circle cx="228.6" cy="123.3" r="3" fill="#8a5a5a"/><circle cx="237.0" cy="123.3" r="3" fill="#8a5a5a"/><circle cx="245.3" cy="123.3" r="3" fill="#8a5a5a"/><circle cx="253.7" cy="123.3" r="3" fill="#8a5a5a"/><circle cx="262.1" cy="123.3" r="3" fill="#8a5a5a"/><circle cx="270.5" cy="123.3" r="3" fill="#8a5a5a"/><circle cx="278.8" cy="123.3" r="3" fill="#8a5a5a"/><circle cx="287.2" cy="123.3" r="3" fill="#8a5a5a"/><circle cx="295.6" cy="123.3" r="3" fill="#8a5a5a"/><circle cx="303.9" cy="123.3" r="3" fill="#8a5a5a"/><circle cx="312.3" cy="123.3" r="3" fill="#8a5a5a"/><circle cx="320.7" cy="123.3" r="3" fill="#8a5a5a"/><circle cx="329.1" cy="123.3" r="3" fill="#8a5a5a"/><circle cx="337.4" cy="123.3" r="3" fill="#8a5a5a"/><circle cx="345.8" cy="123.3" r="3" fill="#8a5a5a"/><circle cx="354.2" cy="123.3" r="3" fill="#8a5a5a"/><circle cx="362.6" cy="123.3" r="3" fill="#8a5a5a"/><circle cx="370.9" cy="123.3" r="3" fill="#8a5a5a"/><circle cx="379.3" cy="123.3" r="3" fill="#8a5a5a"/><circle cx="387.7" cy="123.3" r="3" fill="#8a5a5a"/><circle cx="396.1" cy="123.3" r="3" fill="#8a5a5a"/><circle cx="404.4" cy="123.3" r="3" fill="#8a5a5a"/><circle cx="412.8" cy="123.3" r="3" fill="#8a5a5a"/><circle cx="421.2" cy="123.3" r="3" fill="#8a5a5a"/><circle cx="429.5" cy="123.3" r="3" fill="#8a5a5a"/><circle cx="437.9" cy="123.3" r="3" fill="#8a5a5a"/><circle cx="446.3" cy="123.3" r="3" fill="#8a5a5a"/><circle cx="454.7" cy="138.2" r="3" fill="#8a5a5a"/><circle cx="463.0" cy="138.2" r="3" fill="#8a5a5a"/><circle cx="471.4" cy="138.2" r="3" fill="#8a5a5a"/><circle cx="479.8" cy="138.2" r="3" fill="#8a5a5a"/><circle cx="488.2" cy="138.2" r="3" fill="#8a5a5a"/><circle cx="496.5" cy="138.2" r="3" fill="#8a5a5a"/><circle cx="504.9" cy="138.2" r="3" fill="#8a5a5a"/><circle cx="513.3" cy="138.2" r="3" fill="#8a5a5a"/><circle cx="521.7" cy="138.2" r="3" fill="#8a5a5a"/><circle cx="530.0" cy="138.2" r="3" fill="#8a5a5a"/><circle cx="538.4" cy="138.2" r="3" fill="#8a5a5a"/><circle cx="546.8" cy="138.2" r="3" fill="#8a5a5a"/><circle cx="555.1" cy="138.2" r="3" fill="#8a5a5a"/><circle cx="563.5" cy="138.2" r="3" fill="#8a5a5a"/><circle cx="571.9" cy="138.2" r="3" fill="#8a5a5a"/><circle cx="580.3" cy="138.2" r="3" fill="#8a5a5a"/><circle cx="588.6" cy="138.2" r="3" fill="#8a5a5a"/><circle cx="597.0" cy="138.2" r="3" fill="#8a5a5a"/><circle cx="605.4" cy="138.2" r="3" fill="#8a5a5a"/><circle cx="613.8" cy="138.2" r="3" fill="#8a5a5a"/><circle cx="622.1" cy="138.2" r="3" fill="#8a5a5a"/><circle cx="630.5" cy="138.2" r="3" fill="#8a5a5a"/><circle cx="638.9" cy="138.2" r="3" fill="#8a5a5a"/><circle cx="647.3" cy="138.2" r="3" fill="#8a5a5a"/><circle cx="655.6" cy="138.2" r="3" fill="#8a5a5a"/><circle cx="664.0" cy="138.2" r="3" fill="#8a5a5a"/>
<polyline fill="none" stroke="#3fb950" stroke-width="2.5" stroke-linejoin="round" points="36.0,198.0 44.4,198.0 52.7,198.0 61.1,198.0 69.5,198.0 77.9,198.0 86.2,198.0 94.6,198.0 103.0,198.0 111.4,198.0 119.7,198.0 128.1,198.0 136.5,198.0 144.9,198.0 153.2,198.0 161.6,198.0 170.0,198.0 178.3,198.0 186.7,198.0 195.1,198.0 203.5,198.0 211.8,198.0 220.2,198.0 228.6,198.0 237.0,198.0 245.3,198.0 253.7,198.0 262.1,198.0 270.5,198.0 278.8,198.0 287.2,198.0 295.6,198.0 303.9,198.0 312.3,198.0 320.7,198.0 329.1,198.0 337.4,198.0 345.8,198.0 354.2,198.0 362.6,198.0 370.9,198.0 379.3,198.0 387.7,198.0 396.1,189.1 404.4,189.1 412.8,189.1 421.2,189.1 429.5,189.1 437.9,189.1 446.3,189.1 454.7,190.8 463.0,190.8 471.4,187.7 479.8,187.7 488.2,187.7 496.5,187.7 504.9,187.7 513.3,187.4 521.7,187.4 530.0,187.4 538.4,187.1 546.8,187.1 555.1,187.1 563.5,187.1 571.9,187.1 580.3,187.1 588.6,187.1 597.0,187.1 605.4,187.1 613.8,187.1 622.1,187.1 630.5,187.1 638.9,187.1 647.3,187.1 655.6,187.1 664.0,187.1"/><circle cx="36.0" cy="198.0" r="3" fill="#3fb950"/><circle cx="44.4" cy="198.0" r="3" fill="#3fb950"/><circle cx="52.7" cy="198.0" r="3" fill="#3fb950"/><circle cx="61.1" cy="198.0" r="3" fill="#3fb950"/><circle cx="69.5" cy="198.0" r="3" fill="#3fb950"/><circle cx="77.9" cy="198.0" r="3" fill="#3fb950"/><circle cx="86.2" cy="198.0" r="3" fill="#3fb950"/><circle cx="94.6" cy="198.0" r="3" fill="#3fb950"/><circle cx="103.0" cy="198.0" r="3" fill="#3fb950"/><circle cx="111.4" cy="198.0" r="3" fill="#3fb950"/><circle cx="119.7" cy="198.0" r="3" fill="#3fb950"/><circle cx="128.1" cy="198.0" r="3" fill="#3fb950"/><circle cx="136.5" cy="198.0" r="3" fill="#3fb950"/><circle cx="144.9" cy="198.0" r="3" fill="#3fb950"/><circle cx="153.2" cy="198.0" r="3" fill="#3fb950"/><circle cx="161.6" cy="198.0" r="3" fill="#3fb950"/><circle cx="170.0" cy="198.0" r="3" fill="#3fb950"/><circle cx="178.3" cy="198.0" r="3" fill="#3fb950"/><circle cx="186.7" cy="198.0" r="3" fill="#3fb950"/><circle cx="195.1" cy="198.0" r="3" fill="#3fb950"/><circle cx="203.5" cy="198.0" r="3" fill="#3fb950"/><circle cx="211.8" cy="198.0" r="3" fill="#3fb950"/><circle cx="220.2" cy="198.0" r="3" fill="#3fb950"/><circle cx="228.6" cy="198.0" r="3" fill="#3fb950"/><circle cx="237.0" cy="198.0" r="3" fill="#3fb950"/><circle cx="245.3" cy="198.0" r="3" fill="#3fb950"/><circle cx="253.7" cy="198.0" r="3" fill="#3fb950"/><circle cx="262.1" cy="198.0" r="3" fill="#3fb950"/><circle cx="270.5" cy="198.0" r="3" fill="#3fb950"/><circle cx="278.8" cy="198.0" r="3" fill="#3fb950"/><circle cx="287.2" cy="198.0" r="3" fill="#3fb950"/><circle cx="295.6" cy="198.0" r="3" fill="#3fb950"/><circle cx="303.9" cy="198.0" r="3" fill="#3fb950"/><circle cx="312.3" cy="198.0" r="3" fill="#3fb950"/><circle cx="320.7" cy="198.0" r="3" fill="#3fb950"/><circle cx="329.1" cy="198.0" r="3" fill="#3fb950"/><circle cx="337.4" cy="198.0" r="3" fill="#3fb950"/><circle cx="345.8" cy="198.0" r="3" fill="#3fb950"/><circle cx="354.2" cy="198.0" r="3" fill="#3fb950"/><circle cx="362.6" cy="198.0" r="3" fill="#3fb950"/><circle cx="370.9" cy="198.0" r="3" fill="#3fb950"/><circle cx="379.3" cy="198.0" r="3" fill="#3fb950"/><circle cx="387.7" cy="198.0" r="3" fill="#3fb950"/><circle cx="396.1" cy="189.1" r="3" fill="#3fb950"/><circle cx="404.4" cy="189.1" r="3" fill="#3fb950"/><circle cx="412.8" cy="189.1" r="3" fill="#3fb950"/><circle cx="421.2" cy="189.1" r="3" fill="#3fb950"/><circle cx="429.5" cy="189.1" r="3" fill="#3fb950"/><circle cx="437.9" cy="189.1" r="3" fill="#3fb950"/><circle cx="446.3" cy="189.1" r="3" fill="#3fb950"/><circle cx="454.7" cy="190.8" r="3" fill="#3fb950"/><circle cx="463.0" cy="190.8" r="3" fill="#3fb950"/><circle cx="471.4" cy="187.7" r="3" fill="#3fb950"/><circle cx="479.8" cy="187.7" r="3" fill="#3fb950"/><circle cx="488.2" cy="187.7" r="3" fill="#3fb950"/><circle cx="496.5" cy="187.7" r="3" fill="#3fb950"/><circle cx="504.9" cy="187.7" r="3" fill="#3fb950"/><circle cx="513.3" cy="187.4" r="3" fill="#3fb950"/><circle cx="521.7" cy="187.4" r="3" fill="#3fb950"/><circle cx="530.0" cy="187.4" r="3" fill="#3fb950"/><circle cx="538.4" cy="187.1" r="3" fill="#3fb950"/><circle cx="546.8" cy="187.1" r="3" fill="#3fb950"/><circle cx="555.1" cy="187.1" r="3" fill="#3fb950"/><circle cx="563.5" cy="187.1" r="3" fill="#3fb950"/><circle cx="571.9" cy="187.1" r="3" fill="#3fb950"/><circle cx="580.3" cy="187.1" r="3" fill="#3fb950"/><circle cx="588.6" cy="187.1" r="3" fill="#3fb950"/><circle cx="597.0" cy="187.1" r="3" fill="#3fb950"/><circle cx="605.4" cy="187.1" r="3" fill="#3fb950"/><circle cx="613.8" cy="187.1" r="3" fill="#3fb950"/><circle cx="622.1" cy="187.1" r="3" fill="#3fb950"/><circle cx="630.5" cy="187.1" r="3" fill="#3fb950"/><circle cx="638.9" cy="187.1" r="3" fill="#3fb950"/><circle cx="647.3" cy="187.1" r="3" fill="#3fb950"/><circle cx="655.6" cy="187.1" r="3" fill="#3fb950"/><circle cx="664.0" cy="187.1" r="3" fill="#3fb950"/>
<polyline fill="none" stroke="#4aa3ff" stroke-width="2.5" stroke-linejoin="round" points="36.0,122.2 44.4,122.2 52.7,122.2 61.1,122.2 69.5,122.2 77.9,122.2 86.2,122.2 94.6,122.2 103.0,122.2 111.4,122.2 119.7,122.2 128.1,122.2 136.5,122.2 144.9,122.2 153.2,122.2 161.6,110.7 170.0,105.3 178.3,101.3 186.7,101.3 195.1,89.2 203.5,89.2 211.8,89.2 220.2,79.8 228.6,79.8 237.0,79.8 245.3,75.5 253.7,74.9 262.1,74.9 270.5,74.4 278.8,74.4 287.2,73.5 295.6,71.8 303.9,69.8 312.3,69.2 320.7,69.2 329.1,69.2 337.4,69.2 345.8,69.2 354.2,69.2 362.6,69.2 370.9,69.2 379.3,69.2 387.7,69.2 396.1,78.1 404.4,78.1 412.8,78.1 421.2,78.1 429.5,78.1 437.9,74.6 446.3,66.9 454.7,36.0 463.0,36.0 471.4,39.1 479.8,39.1 488.2,39.1 496.5,39.1 504.9,39.1 513.3,39.4 521.7,39.4 530.0,39.4 538.4,39.7 546.8,39.7 555.1,39.7 563.5,39.7 571.9,39.7 580.3,39.7 588.6,39.7 597.0,39.7 605.4,39.7 613.8,39.7 622.1,39.7 630.5,39.7 638.9,39.7 647.3,39.7 655.6,39.7 664.0,39.7"/><circle cx="36.0" cy="122.2" r="3" fill="#4aa3ff"/><circle cx="44.4" cy="122.2" r="3" fill="#4aa3ff"/><circle cx="52.7" cy="122.2" r="3" fill="#4aa3ff"/><circle cx="61.1" cy="122.2" r="3" fill="#4aa3ff"/><circle cx="69.5" cy="122.2" r="3" fill="#4aa3ff"/><circle cx="77.9" cy="122.2" r="3" fill="#4aa3ff"/><circle cx="86.2" cy="122.2" r="3" fill="#4aa3ff"/><circle cx="94.6" cy="122.2" r="3" fill="#4aa3ff"/><circle cx="103.0" cy="122.2" r="3" fill="#4aa3ff"/><circle cx="111.4" cy="122.2" r="3" fill="#4aa3ff"/><circle cx="119.7" cy="122.2" r="3" fill="#4aa3ff"/><circle cx="128.1" cy="122.2" r="3" fill="#4aa3ff"/><circle cx="136.5" cy="122.2" r="3" fill="#4aa3ff"/><circle cx="144.9" cy="122.2" r="3" fill="#4aa3ff"/><circle cx="153.2" cy="122.2" r="3" fill="#4aa3ff"/><circle cx="161.6" cy="110.7" r="3" fill="#4aa3ff"/><circle cx="170.0" cy="105.3" r="3" fill="#4aa3ff"/><circle cx="178.3" cy="101.3" r="3" fill="#4aa3ff"/><circle cx="186.7" cy="101.3" r="3" fill="#4aa3ff"/><circle cx="195.1" cy="89.2" r="3" fill="#4aa3ff"/><circle cx="203.5" cy="89.2" r="3" fill="#4aa3ff"/><circle cx="211.8" cy="89.2" r="3" fill="#4aa3ff"/><circle cx="220.2" cy="79.8" r="3" fill="#4aa3ff"/><circle cx="228.6" cy="79.8" r="3" fill="#4aa3ff"/><circle cx="237.0" cy="79.8" r="3" fill="#4aa3ff"/><circle cx="245.3" cy="75.5" r="3" fill="#4aa3ff"/><circle cx="253.7" cy="74.9" r="3" fill="#4aa3ff"/><circle cx="262.1" cy="74.9" r="3" fill="#4aa3ff"/><circle cx="270.5" cy="74.4" r="3" fill="#4aa3ff"/><circle cx="278.8" cy="74.4" r="3" fill="#4aa3ff"/><circle cx="287.2" cy="73.5" r="3" fill="#4aa3ff"/><circle cx="295.6" cy="71.8" r="3" fill="#4aa3ff"/><circle cx="303.9" cy="69.8" r="3" fill="#4aa3ff"/><circle cx="312.3" cy="69.2" r="3" fill="#4aa3ff"/><circle cx="320.7" cy="69.2" r="3" fill="#4aa3ff"/><circle cx="329.1" cy="69.2" r="3" fill="#4aa3ff"/><circle cx="337.4" cy="69.2" r="3" fill="#4aa3ff"/><circle cx="345.8" cy="69.2" r="3" fill="#4aa3ff"/><circle cx="354.2" cy="69.2" r="3" fill="#4aa3ff"/><circle cx="362.6" cy="69.2" r="3" fill="#4aa3ff"/><circle cx="370.9" cy="69.2" r="3" fill="#4aa3ff"/><circle cx="379.3" cy="69.2" r="3" fill="#4aa3ff"/><circle cx="387.7" cy="69.2" r="3" fill="#4aa3ff"/><circle cx="396.1" cy="78.1" r="3" fill="#4aa3ff"/><circle cx="404.4" cy="78.1" r="3" fill="#4aa3ff"/><circle cx="412.8" cy="78.1" r="3" fill="#4aa3ff"/><circle cx="421.2" cy="78.1" r="3" fill="#4aa3ff"/><circle cx="429.5" cy="78.1" r="3" fill="#4aa3ff"/><circle cx="437.9" cy="74.6" r="3" fill="#4aa3ff"/><circle cx="446.3" cy="66.9" r="3" fill="#4aa3ff"/><circle cx="454.7" cy="36.0" r="3" fill="#4aa3ff"/><circle cx="463.0" cy="36.0" r="3" fill="#4aa3ff"/><circle cx="471.4" cy="39.1" r="3" fill="#4aa3ff"/><circle cx="479.8" cy="39.1" r="3" fill="#4aa3ff"/><circle cx="488.2" cy="39.1" r="3" fill="#4aa3ff"/><circle cx="496.5" cy="39.1" r="3" fill="#4aa3ff"/><circle cx="504.9" cy="39.1" r="3" fill="#4aa3ff"/><circle cx="513.3" cy="39.4" r="3" fill="#4aa3ff"/><circle cx="521.7" cy="39.4" r="3" fill="#4aa3ff"/><circle cx="530.0" cy="39.4" r="3" fill="#4aa3ff"/><circle cx="538.4" cy="39.7" r="3" fill="#4aa3ff"/><circle cx="546.8" cy="39.7" r="3" fill="#4aa3ff"/><circle cx="555.1" cy="39.7" r="3" fill="#4aa3ff"/><circle cx="563.5" cy="39.7" r="3" fill="#4aa3ff"/><circle cx="571.9" cy="39.7" r="3" fill="#4aa3ff"/><circle cx="580.3" cy="39.7" r="3" fill="#4aa3ff"/><circle cx="588.6" cy="39.7" r="3" fill="#4aa3ff"/><circle cx="597.0" cy="39.7" r="3" fill="#4aa3ff"/><circle cx="605.4" cy="39.7" r="3" fill="#4aa3ff"/><circle cx="613.8" cy="39.7" r="3" fill="#4aa3ff"/><circle cx="622.1" cy="39.7" r="3" fill="#4aa3ff"/><circle cx="630.5" cy="39.7" r="3" fill="#4aa3ff"/><circle cx="638.9" cy="39.7" r="3" fill="#4aa3ff"/><circle cx="647.3" cy="39.7" r="3" fill="#4aa3ff"/><circle cx="655.6" cy="39.7" r="3" fill="#4aa3ff"/><circle cx="664.0" cy="39.7" r="3" fill="#4aa3ff"/>
<text x="36" y="225" fill="#6b7280" font-size="11">2026-06-26</text>
<text x="664" y="225" fill="#6b7280" font-size="11" text-anchor="end">2026-07-04</text>
<text x="36" y="212" font-family="system-ui,sans-serif" font-size="11">
<tspan fill="#4aa3ff">&#9679; open FPs</tspan>  <tspan fill="#3fb950">&#9679; closed (Anthropic acting)</tspan>  <tspan fill="#8a5a5a">&#9679; harness withdrawn</tspan></text>
<text x="664" y="22" text-anchor="end" font-family="system-ui,sans-serif" font-size="12">
<tspan fill="#4aa3ff">open 553</tspan>  <tspan fill="#3fb950">closed 38</tspan>  <tspan fill="#8a5a5a">harness 209</tspan></text>
</svg>