<svg xmlns="http://www.w3.org/2000/svg" width="700" height="234" viewBox="0 0 700 234" role="img">
<rect width="700" height="234" rx="12" fill="#16181d"/>
<text x="36" y="22" fill="#e8eaed" font-family="system-ui,sans-serif" font-size="14" font-weight="700">Is Anthropic acting? cyber/aup false positives over time</text>
<line x1="36" y1="198.0" x2="664" y2="198.0" stroke="#2a2e37" stroke-width="1"/><text x="30" y="202.0" fill="#6b7280" font-size="11" text-anchor="end">0</text><line x1="36" y1="117.0" x2="664" y2="117.0" stroke="#2a2e37" stroke-width="1"/><text x="30" y="121.0" fill="#6b7280" font-size="11" text-anchor="end">400</text><line x1="36" y1="36.0" x2="664" y2="36.0" stroke="#2a2e37" stroke-width="1"/><text x="30" y="40.0" fill="#6b7280" font-size="11" text-anchor="end">800</text>

<polyline fill="none" stroke="#8a5a5a" stroke-width="2.5" stroke-linejoin="round" points="36.0,145.1 41.2,145.1 46.5,145.1 51.7,145.1 56.9,145.1 62.2,145.1 67.4,145.1 72.6,145.1 77.9,145.1 83.1,145.1 88.3,145.1 93.6,145.1 98.8,145.1 104.0,145.1 109.3,145.1 114.5,145.1 119.7,145.1 125.0,145.1 130.2,145.1 135.4,145.1 140.7,145.1 145.9,145.1 151.1,145.1 156.4,145.1 161.6,145.1 166.8,145.1 172.1,145.1 177.3,145.1 182.5,145.1 187.8,145.1 193.0,145.1 198.2,145.1 203.5,145.1 208.7,145.1 213.9,145.1 219.2,145.1 224.4,145.1 229.6,145.1 234.9,145.1 240.1,145.1 245.3,145.1 250.6,145.1 255.8,145.1 261.0,145.1 266.3,145.1 271.5,145.1 276.7,145.1 282.0,145.1 287.2,145.1 292.4,145.1 297.7,155.7 302.9,155.7 308.1,155.7 313.4,155.7 318.6,155.7 323.8,155.7 329.1,155.7 334.3,155.7 339.5,155.7 344.8,155.7 350.0,155.7 355.2,155.7 360.5,155.7 365.7,155.7 370.9,155.7 376.2,155.7 381.4,155.7 386.6,155.7 391.9,155.7 397.1,155.7 402.3,155.7 407.6,155.7 412.8,155.7 418.0,155.7 423.3,155.7 428.5,155.7 433.7,155.7 439.0,155.7 444.2,155.7 449.4,155.7 454.7,155.7 459.9,155.7 465.1,155.7 470.4,155.7 475.6,167.6 480.8,167.6 486.1,170.3 491.3,170.3 496.5,170.5 501.8,170.7 507.0,170.7 512.2,170.9 517.5,172.7 522.7,180.6 527.9,181.8 533.2,189.1 538.4,190.5 543.6,195.2 548.9,198.0 554.1,198.0 559.3,198.0 564.6,198.0 569.8,198.0 575.0,198.0 580.3,198.0 585.5,198.0 590.7,198.0 596.0,198.0 601.2,198.0 606.4,198.0 611.7,198.0 616.9,198.0 622.1,198.0 627.4,198.0 632.6,198.0 637.8,198.0 643.1,198.0 648.3,198.0 653.5,198.0 658.8,198.0 664.0,198.0"/><circle cx="36.0" cy="145.1" r="3" fill="#8a5a5a"/><circle cx="41.2" cy="145.1" r="3" fill="#8a5a5a"/><circle cx="46.5" cy="145.1" r="3" fill="#8a5a5a"/><circle cx="51.7" cy="145.1" r="3" fill="#8a5a5a"/><circle cx="56.9" cy="145.1" r="3" fill="#8a5a5a"/><circle cx="62.2" cy="145.1" r="3" fill="#8a5a5a"/><circle cx="67.4" cy="145.1" r="3" fill="#8a5a5a"/><circle cx="72.6" cy="145.1" r="3" fill="#8a5a5a"/><circle cx="77.9" cy="145.1" r="3" fill="#8a5a5a"/><circle cx="83.1" cy="145.1" r="3" fill="#8a5a5a"/><circle cx="88.3" cy="145.1" r="3" fill="#8a5a5a"/><circle cx="93.6" cy="145.1" r="3" fill="#8a5a5a"/><circle cx="98.8" cy="145.1" r="3" fill="#8a5a5a"/><circle cx="104.0" cy="145.1" r="3" fill="#8a5a5a"/><circle cx="109.3" cy="145.1" r="3" fill="#8a5a5a"/><circle cx="114.5" cy="145.1" r="3" fill="#8a5a5a"/><circle cx="119.7" cy="145.1" r="3" fill="#8a5a5a"/><circle cx="125.0" cy="145.1" r="3" fill="#8a5a5a"/><circle cx="130.2" cy="145.1" r="3" fill="#8a5a5a"/><circle cx="135.4" cy="145.1" r="3" fill="#8a5a5a"/><circle cx="140.7" cy="145.1" r="3" fill="#8a5a5a"/><circle cx="145.9" cy="145.1" r="3" fill="#8a5a5a"/><circle cx="151.1" cy="145.1" r="3" fill="#8a5a5a"/><circle cx="156.4" cy="145.1" r="3" fill="#8a5a5a"/><circle cx="161.6" cy="145.1" r="3" fill="#8a5a5a"/><circle cx="166.8" cy="145.1" r="3" fill="#8a5a5a"/><circle cx="172.1" cy="145.1" r="3" fill="#8a5a5a"/><circle cx="177.3" cy="145.1" r="3" fill="#8a5a5a"/><circle cx="182.5" cy="145.1" r="3" fill="#8a5a5a"/><circle cx="187.8" cy="145.1" r="3" fill="#8a5a5a"/><circle cx="193.0" cy="145.1" r="3" fill="#8a5a5a"/><circle cx="198.2" cy="145.1" r="3" fill="#8a5a5a"/><circle cx="203.5" cy="145.1" r="3" fill="#8a5a5a"/><circle cx="208.7" cy="145.1" r="3" fill="#8a5a5a"/><circle cx="213.9" cy="145.1" r="3" fill="#8a5a5a"/><circle cx="219.2" cy="145.1" r="3" fill="#8a5a5a"/><circle cx="224.4" cy="145.1" r="3" fill="#8a5a5a"/><circle cx="229.6" cy="145.1" r="3" fill="#8a5a5a"/><circle cx="234.9" cy="145.1" r="3" fill="#8a5a5a"/><circle cx="240.1" cy="145.1" r="3" fill="#8a5a5a"/><circle cx="245.3" cy="145.1" r="3" fill="#8a5a5a"/><circle cx="250.6" cy="145.1" r="3" fill="#8a5a5a"/><circle cx="255.8" cy="145.1" r="3" fill="#8a5a5a"/><circle cx="261.0" cy="145.1" r="3" fill="#8a5a5a"/><circle cx="266.3" cy="145.1" r="3" fill="#8a5a5a"/><circle cx="271.5" cy="145.1" r="3" fill="#8a5a5a"/><circle cx="276.7" cy="145.1" r="3" fill="#8a5a5a"/><circle cx="282.0" cy="145.1" r="3" fill="#8a5a5a"/><circle cx="287.2" cy="145.1" r="3" fill="#8a5a5a"/><circle cx="292.4" cy="145.1" r="3" fill="#8a5a5a"/><circle cx="297.7" cy="155.7" r="3" fill="#8a5a5a"/><circle cx="302.9" cy="155.7" r="3" fill="#8a5a5a"/><circle cx="308.1" cy="155.7" r="3" fill="#8a5a5a"/><circle cx="313.4" cy="155.7" r="3" fill="#8a5a5a"/><circle cx="318.6" cy="155.7" r="3" fill="#8a5a5a"/><circle cx="323.8" cy="155.7" r="3" fill="#8a5a5a"/><circle cx="329.1" cy="155.7" r="3" fill="#8a5a5a"/><circle cx="334.3" cy="155.7" r="3" fill="#8a5a5a"/><circle cx="339.5" cy="155.7" r="3" fill="#8a5a5a"/><circle cx="344.8" cy="155.7" r="3" fill="#8a5a5a"/><circle cx="350.0" cy="155.7" r="3" fill="#8a5a5a"/><circle cx="355.2" cy="155.7" r="3" fill="#8a5a5a"/><circle cx="360.5" cy="155.7" r="3" fill="#8a5a5a"/><circle cx="365.7" cy="155.7" r="3" fill="#8a5a5a"/><circle cx="370.9" cy="155.7" r="3" fill="#8a5a5a"/><circle cx="376.2" cy="155.7" r="3" fill="#8a5a5a"/><circle cx="381.4" cy="155.7" r="3" fill="#8a5a5a"/><circle cx="386.6" cy="155.7" r="3" fill="#8a5a5a"/><circle cx="391.9" cy="155.7" r="3" fill="#8a5a5a"/><circle cx="397.1" cy="155.7" r="3" fill="#8a5a5a"/><circle cx="402.3" cy="155.7" r="3" fill="#8a5a5a"/><circle cx="407.6" cy="155.7" r="3" fill="#8a5a5a"/><circle cx="412.8" cy="155.7" r="3" fill="#8a5a5a"/><circle cx="418.0" cy="155.7" r="3" fill="#8a5a5a"/><circle cx="423.3" cy="155.7" r="3" fill="#8a5a5a"/><circle cx="428.5" cy="155.7" r="3" fill="#8a5a5a"/><circle cx="433.7" cy="155.7" r="3" fill="#8a5a5a"/><circle cx="439.0" cy="155.7" r="3" fill="#8a5a5a"/><circle cx="444.2" cy="155.7" r="3" fill="#8a5a5a"/><circle cx="449.4" cy="155.7" r="3" fill="#8a5a5a"/><circle cx="454.7" cy="155.7" r="3" fill="#8a5a5a"/><circle cx="459.9" cy="155.7" r="3" fill="#8a5a5a"/><circle cx="465.1" cy="155.7" r="3" fill="#8a5a5a"/><circle cx="470.4" cy="155.7" r="3" fill="#8a5a5a"/><circle cx="475.6" cy="167.6" r="3" fill="#8a5a5a"/><circle cx="480.8" cy="167.6" r="3" fill="#8a5a5a"/><circle cx="486.1" cy="170.3" r="3" fill="#8a5a5a"/><circle cx="491.3" cy="170.3" r="3" fill="#8a5a5a"/><circle cx="496.5" cy="170.5" r="3" fill="#8a5a5a"/><circle cx="501.8" cy="170.7" r="3" fill="#8a5a5a"/><circle cx="507.0" cy="170.7" r="3" fill="#8a5a5a"/><circle cx="512.2" cy="170.9" r="3" fill="#8a5a5a"/><circle cx="517.5" cy="172.7" r="3" fill="#8a5a5a"/><circle cx="522.7" cy="180.6" r="3" fill="#8a5a5a"/><circle cx="527.9" cy="181.8" r="3" fill="#8a5a5a"/><circle cx="533.2" cy="189.1" r="3" fill="#8a5a5a"/><circle cx="538.4" cy="190.5" r="3" fill="#8a5a5a"/><circle cx="543.6" cy="195.2" r="3" fill="#8a5a5a"/><circle cx="548.9" cy="198.0" r="3" fill="#8a5a5a"/><circle cx="554.1" cy="198.0" r="3" fill="#8a5a5a"/><circle cx="559.3" cy="198.0" r="3" fill="#8a5a5a"/><circle cx="564.6" cy="198.0" r="3" fill="#8a5a5a"/><circle cx="569.8" cy="198.0" r="3" fill="#8a5a5a"/><circle cx="575.0" cy="198.0" r="3" fill="#8a5a5a"/><circle cx="580.3" cy="198.0" r="3" fill="#8a5a5a"/><circle cx="585.5" cy="198.0" r="3" fill="#8a5a5a"/><circle cx="590.7" cy="198.0" r="3" fill="#8a5a5a"/><circle cx="596.0" cy="198.0" r="3" fill="#8a5a5a"/><circle cx="601.2" cy="198.0" r="3" fill="#8a5a5a"/><circle cx="606.4" cy="198.0" r="3" fill="#8a5a5a"/><circle cx="611.7" cy="198.0" r="3" fill="#8a5a5a"/><circle cx="616.9" cy="198.0" r="3" fill="#8a5a5a"/><circle cx="622.1" cy="198.0" r="3" fill="#8a5a5a"/><circle cx="627.4" cy="198.0" r="3" fill="#8a5a5a"/><circle cx="632.6" cy="198.0" r="3" fill="#8a5a5a"/><circle cx="637.8" cy="198.0" r="3" fill="#8a5a5a"/><circle cx="643.1" cy="198.0" r="3" fill="#8a5a5a"/><circle cx="648.3" cy="198.0" r="3" fill="#8a5a5a"/><circle cx="653.5" cy="198.0" r="3" fill="#8a5a5a"/><circle cx="658.8" cy="198.0" r="3" fill="#8a5a5a"/><circle cx="664.0" cy="198.0" r="3" fill="#8a5a5a"/>
<polyline fill="none" stroke="#3fb950" stroke-width="2.5" stroke-linejoin="round" points="36.0,198.0 41.2,198.0 46.5,198.0 51.7,198.0 56.9,198.0 62.2,198.0 67.4,198.0 72.6,198.0 77.9,198.0 83.1,198.0 88.3,198.0 93.6,198.0 98.8,198.0 104.0,198.0 109.3,198.0 114.5,198.0 119.7,198.0 125.0,198.0 130.2,198.0 135.4,198.0 140.7,198.0 145.9,198.0 151.1,198.0 156.4,198.0 161.6,198.0 166.8,198.0 172.1,198.0 177.3,198.0 182.5,198.0 187.8,198.0 193.0,198.0 198.2,198.0 203.5,198.0 208.7,198.0 213.9,198.0 219.2,198.0 224.4,198.0 229.6,198.0 234.9,198.0 240.1,198.0 245.3,198.0 250.6,198.0 255.8,198.0 261.0,191.7 266.3,191.7 271.5,191.7 276.7,191.7 282.0,191.7 287.2,191.7 292.4,191.7 297.7,192.9 302.9,192.9 308.1,190.7 313.4,190.7 318.6,190.7 323.8,190.7 329.1,190.7 334.3,190.5 339.5,190.5 344.8,190.5 350.0,190.3 355.2,190.3 360.5,190.3 365.7,190.3 370.9,190.3 376.2,190.3 381.4,190.3 386.6,190.3 391.9,190.3 397.1,190.3 402.3,190.3 407.6,190.3 412.8,190.3 418.0,190.3 423.3,190.3 428.5,190.3 433.7,190.3 439.0,190.3 444.2,190.3 449.4,190.3 454.7,190.3 459.9,189.3 465.1,189.3 470.4,189.3 475.6,190.7 480.8,190.7 486.1,190.7 491.3,190.7 496.5,190.7 501.8,190.7 507.0,190.7 512.2,190.7 517.5,190.7 522.7,190.9 527.9,190.9 533.2,190.9 538.4,194.2 543.6,196.8 548.9,198.0 554.1,198.0 559.3,198.0 564.6,198.0 569.8,198.0 575.0,198.0 580.3,198.0 585.5,198.0 590.7,198.0 596.0,198.0 601.2,198.0 606.4,198.0 611.7,198.0 616.9,198.0 622.1,198.0 627.4,198.0 632.6,198.0 637.8,198.0 643.1,198.0 648.3,198.0 653.5,198.0 658.8,198.0 664.0,198.0"/><circle cx="36.0" cy="198.0" r="3" fill="#3fb950"/><circle cx="41.2" cy="198.0" r="3" fill="#3fb950"/><circle cx="46.5" cy="198.0" r="3" fill="#3fb950"/><circle cx="51.7" cy="198.0" r="3" fill="#3fb950"/><circle cx="56.9" cy="198.0" r="3" fill="#3fb950"/><circle cx="62.2" cy="198.0" r="3" fill="#3fb950"/><circle cx="67.4" cy="198.0" r="3" fill="#3fb950"/><circle cx="72.6" cy="198.0" r="3" fill="#3fb950"/><circle cx="77.9" cy="198.0" r="3" fill="#3fb950"/><circle cx="83.1" cy="198.0" r="3" fill="#3fb950"/><circle cx="88.3" cy="198.0" r="3" fill="#3fb950"/><circle cx="93.6" cy="198.0" r="3" fill="#3fb950"/><circle cx="98.8" cy="198.0" r="3" fill="#3fb950"/><circle cx="104.0" cy="198.0" r="3" fill="#3fb950"/><circle cx="109.3" cy="198.0" r="3" fill="#3fb950"/><circle cx="114.5" cy="198.0" r="3" fill="#3fb950"/><circle cx="119.7" cy="198.0" r="3" fill="#3fb950"/><circle cx="125.0" cy="198.0" r="3" fill="#3fb950"/><circle cx="130.2" cy="198.0" r="3" fill="#3fb950"/><circle cx="135.4" cy="198.0" r="3" fill="#3fb950"/><circle cx="140.7" cy="198.0" r="3" fill="#3fb950"/><circle cx="145.9" cy="198.0" r="3" fill="#3fb950"/><circle cx="151.1" cy="198.0" r="3" fill="#3fb950"/><circle cx="156.4" cy="198.0" r="3" fill="#3fb950"/><circle cx="161.6" cy="198.0" r="3" fill="#3fb950"/><circle cx="166.8" cy="198.0" r="3" fill="#3fb950"/><circle cx="172.1" cy="198.0" r="3" fill="#3fb950"/><circle cx="177.3" cy="198.0" r="3" fill="#3fb950"/><circle cx="182.5" cy="198.0" r="3" fill="#3fb950"/><circle cx="187.8" cy="198.0" r="3" fill="#3fb950"/><circle cx="193.0" cy="198.0" r="3" fill="#3fb950"/><circle cx="198.2" cy="198.0" r="3" fill="#3fb950"/><circle cx="203.5" cy="198.0" r="3" fill="#3fb950"/><circle cx="208.7" cy="198.0" r="3" fill="#3fb950"/><circle cx="213.9" cy="198.0" r="3" fill="#3fb950"/><circle cx="219.2" cy="198.0" r="3" fill="#3fb950"/><circle cx="224.4" cy="198.0" r="3" fill="#3fb950"/><circle cx="229.6" cy="198.0" r="3" fill="#3fb950"/><circle cx="234.9" cy="198.0" r="3" fill="#3fb950"/><circle cx="240.1" cy="198.0" r="3" fill="#3fb950"/><circle cx="245.3" cy="198.0" r="3" fill="#3fb950"/><circle cx="250.6" cy="198.0" r="3" fill="#3fb950"/><circle cx="255.8" cy="198.0" r="3" fill="#3fb950"/><circle cx="261.0" cy="191.7" r="3" fill="#3fb950"/><circle cx="266.3" cy="191.7" r="3" fill="#3fb950"/><circle cx="271.5" cy="191.7" r="3" fill="#3fb950"/><circle cx="276.7" cy="191.7" r="3" fill="#3fb950"/><circle cx="282.0" cy="191.7" r="3" fill="#3fb950"/><circle cx="287.2" cy="191.7" r="3" fill="#3fb950"/><circle cx="292.4" cy="191.7" r="3" fill="#3fb950"/><circle cx="297.7" cy="192.9" r="3" fill="#3fb950"/><circle cx="302.9" cy="192.9" r="3" fill="#3fb950"/><circle cx="308.1" cy="190.7" r="3" fill="#3fb950"/><circle cx="313.4" cy="190.7" r="3" fill="#3fb950"/><circle cx="318.6" cy="190.7" r="3" fill="#3fb950"/><circle cx="323.8" cy="190.7" r="3" fill="#3fb950"/><circle cx="329.1" cy="190.7" r="3" fill="#3fb950"/><circle cx="334.3" cy="190.5" r="3" fill="#3fb950"/><circle cx="339.5" cy="190.5" r="3" fill="#3fb950"/><circle cx="344.8" cy="190.5" r="3" fill="#3fb950"/><circle cx="350.0" cy="190.3" r="3" fill="#3fb950"/><circle cx="355.2" cy="190.3" r="3" fill="#3fb950"/><circle cx="360.5" cy="190.3" r="3" fill="#3fb950"/><circle cx="365.7" cy="190.3" r="3" fill="#3fb950"/><circle cx="370.9" cy="190.3" r="3" fill="#3fb950"/><circle cx="376.2" cy="190.3" r="3" fill="#3fb950"/><circle cx="381.4" cy="190.3" r="3" fill="#3fb950"/><circle cx="386.6" cy="190.3" r="3" fill="#3fb950"/><circle cx="391.9" cy="190.3" r="3" fill="#3fb950"/><circle cx="397.1" cy="190.3" r="3" fill="#3fb950"/><circle cx="402.3" cy="190.3" r="3" fill="#3fb950"/><circle cx="407.6" cy="190.3" r="3" fill="#3fb950"/><circle cx="412.8" cy="190.3" r="3" fill="#3fb950"/><circle cx="418.0" cy="190.3" r="3" fill="#3fb950"/><circle cx="423.3" cy="190.3" r="3" fill="#3fb950"/><circle cx="428.5" cy="190.3" r="3" fill="#3fb950"/><circle cx="433.7" cy="190.3" r="3" fill="#3fb950"/><circle cx="439.0" cy="190.3" r="3" fill="#3fb950"/><circle cx="444.2" cy="190.3" r="3" fill="#3fb950"/><circle cx="449.4" cy="190.3" r="3" fill="#3fb950"/><circle cx="454.7" cy="190.3" r="3" fill="#3fb950"/><circle cx="459.9" cy="189.3" r="3" fill="#3fb950"/><circle cx="465.1" cy="189.3" r="3" fill="#3fb950"/><circle cx="470.4" cy="189.3" r="3" fill="#3fb950"/><circle cx="475.6" cy="190.7" r="3" fill="#3fb950"/><circle cx="480.8" cy="190.7" r="3" fill="#3fb950"/><circle cx="486.1" cy="190.7" r="3" fill="#3fb950"/><circle cx="491.3" cy="190.7" r="3" fill="#3fb950"/><circle cx="496.5" cy="190.7" r="3" fill="#3fb950"/><circle cx="501.8" cy="190.7" r="3" fill="#3fb950"/><circle cx="507.0" cy="190.7" r="3" fill="#3fb950"/><circle cx="512.2" cy="190.7" r="3" fill="#3fb950"/><circle cx="517.5" cy="190.7" r="3" fill="#3fb950"/><circle cx="522.7" cy="190.9" r="3" fill="#3fb950"/><circle cx="527.9" cy="190.9" r="3" fill="#3fb950"/><circle cx="533.2" cy="190.9" r="3" fill="#3fb950"/><circle cx="538.4" cy="194.2" r="3" fill="#3fb950"/><circle cx="543.6" cy="196.8" r="3" fill="#3fb950"/><circle cx="548.9" cy="198.0" r="3" fill="#3fb950"/><circle cx="554.1" cy="198.0" r="3" fill="#3fb950"/><circle cx="559.3" cy="198.0" r="3" fill="#3fb950"/><circle cx="564.6" cy="198.0" r="3" fill="#3fb950"/><circle cx="569.8" cy="198.0" r="3" fill="#3fb950"/><circle cx="575.0" cy="198.0" r="3" fill="#3fb950"/><circle cx="580.3" cy="198.0" r="3" fill="#3fb950"/><circle cx="585.5" cy="198.0" r="3" fill="#3fb950"/><circle cx="590.7" cy="198.0" r="3" fill="#3fb950"/><circle cx="596.0" cy="198.0" r="3" fill="#3fb950"/><circle cx="601.2" cy="198.0" r="3" fill="#3fb950"/><circle cx="606.4" cy="198.0" r="3" fill="#3fb950"/><circle cx="611.7" cy="198.0" r="3" fill="#3fb950"/><circle cx="616.9" cy="198.0" r="3" fill="#3fb950"/><circle cx="622.1" cy="198.0" r="3" fill="#3fb950"/><circle cx="627.4" cy="198.0" r="3" fill="#3fb950"/><circle cx="632.6" cy="198.0" r="3" fill="#3fb950"/><circle cx="637.8" cy="198.0" r="3" fill="#3fb950"/><circle cx="643.1" cy="198.0" r="3" fill="#3fb950"/><circle cx="648.3" cy="198.0" r="3" fill="#3fb950"/><circle cx="653.5" cy="198.0" r="3" fill="#3fb950"/><circle cx="658.8" cy="198.0" r="3" fill="#3fb950"/><circle cx="664.0" cy="198.0" r="3" fill="#3fb950"/>
<polyline fill="none" stroke="#4aa3ff" stroke-width="2.5" stroke-linejoin="round" points="36.0,144.3 41.2,144.3 46.5,144.3 51.7,144.3 56.9,144.3 62.2,144.3 67.4,144.3 72.6,144.3 77.9,144.3 83.1,144.3 88.3,144.3 93.6,144.3 98.8,144.3 104.0,144.3 109.3,144.3 114.5,136.2 119.7,132.4 125.0,129.6 130.2,129.6 135.4,121.0 140.7,121.0 145.9,121.0 151.1,114.4 156.4,114.4 161.6,114.4 166.8,111.3 172.1,110.9 177.3,110.9 182.5,110.5 187.8,110.5 193.0,109.9 198.2,108.7 203.5,107.3 208.7,106.9 213.9,106.9 219.2,106.9 224.4,106.9 229.6,106.9 234.9,106.9 240.1,106.9 245.3,106.9 250.6,106.9 255.8,106.9 261.0,113.2 266.3,113.2 271.5,113.2 276.7,113.2 282.0,113.2 287.2,110.7 292.4,105.3 297.7,83.4 302.9,83.4 308.1,85.6 313.4,85.6 318.6,85.6 323.8,85.6 329.1,85.6 334.3,85.8 339.5,85.8 344.8,85.8 350.0,86.0 355.2,86.0 360.5,86.0 365.7,86.0 370.9,86.0 376.2,86.0 381.4,86.0 386.6,86.0 391.9,86.0 397.1,86.0 402.3,86.0 407.6,86.0 412.8,86.0 418.0,86.0 423.3,86.0 428.5,86.0 433.7,86.0 439.0,86.0 444.2,86.0 449.4,86.0 454.7,86.0 459.9,87.0 465.1,87.0 470.4,87.0 475.6,73.7 480.8,73.7 486.1,71.0 491.3,71.0 496.5,70.8 501.8,70.6 507.0,70.6 512.2,70.4 517.5,68.6 522.7,60.5 527.9,59.3 533.2,52.0 538.4,47.3 543.6,40.1 548.9,36.0 554.1,36.0 559.3,36.0 564.6,36.0 569.8,36.0 575.0,36.0 580.3,36.0 585.5,36.0 590.7,36.0 596.0,36.0 601.2,36.0 606.4,36.0 611.7,36.0 616.9,36.0 622.1,36.0 627.4,36.0 632.6,36.0 637.8,36.0 643.1,36.0 648.3,36.0 653.5,36.0 658.8,36.0 664.0,36.0"/><circle cx="36.0" cy="144.3" r="3" fill="#4aa3ff"/><circle cx="41.2" cy="144.3" r="3" fill="#4aa3ff"/><circle cx="46.5" cy="144.3" r="3" fill="#4aa3ff"/><circle cx="51.7" cy="144.3" r="3" fill="#4aa3ff"/><circle cx="56.9" cy="144.3" r="3" fill="#4aa3ff"/><circle cx="62.2" cy="144.3" r="3" fill="#4aa3ff"/><circle cx="67.4" cy="144.3" r="3" fill="#4aa3ff"/><circle cx="72.6" cy="144.3" r="3" fill="#4aa3ff"/><circle cx="77.9" cy="144.3" r="3" fill="#4aa3ff"/><circle cx="83.1" cy="144.3" r="3" fill="#4aa3ff"/><circle cx="88.3" cy="144.3" r="3" fill="#4aa3ff"/><circle cx="93.6" cy="144.3" r="3" fill="#4aa3ff"/><circle cx="98.8" cy="144.3" r="3" fill="#4aa3ff"/><circle cx="104.0" cy="144.3" r="3" fill="#4aa3ff"/><circle cx="109.3" cy="144.3" r="3" fill="#4aa3ff"/><circle cx="114.5" cy="136.2" r="3" fill="#4aa3ff"/><circle cx="119.7" cy="132.4" r="3" fill="#4aa3ff"/><circle cx="125.0" cy="129.6" r="3" fill="#4aa3ff"/><circle cx="130.2" cy="129.6" r="3" fill="#4aa3ff"/><circle cx="135.4" cy="121.0" r="3" fill="#4aa3ff"/><circle cx="140.7" cy="121.0" r="3" fill="#4aa3ff"/><circle cx="145.9" cy="121.0" r="3" fill="#4aa3ff"/><circle cx="151.1" cy="114.4" r="3" fill="#4aa3ff"/><circle cx="156.4" cy="114.4" r="3" fill="#4aa3ff"/><circle cx="161.6" cy="114.4" r="3" fill="#4aa3ff"/><circle cx="166.8" cy="111.3" r="3" fill="#4aa3ff"/><circle cx="172.1" cy="110.9" r="3" fill="#4aa3ff"/><circle cx="177.3" cy="110.9" r="3" fill="#4aa3ff"/><circle cx="182.5" cy="110.5" r="3" fill="#4aa3ff"/><circle cx="187.8" cy="110.5" r="3" fill="#4aa3ff"/><circle cx="193.0" cy="109.9" r="3" fill="#4aa3ff"/><circle cx="198.2" cy="108.7" r="3" fill="#4aa3ff"/><circle cx="203.5" cy="107.3" r="3" fill="#4aa3ff"/><circle cx="208.7" cy="106.9" r="3" fill="#4aa3ff"/><circle cx="213.9" cy="106.9" r="3" fill="#4aa3ff"/><circle cx="219.2" cy="106.9" r="3" fill="#4aa3ff"/><circle cx="224.4" cy="106.9" r="3" fill="#4aa3ff"/><circle cx="229.6" cy="106.9" r="3" fill="#4aa3ff"/><circle cx="234.9" cy="106.9" r="3" fill="#4aa3ff"/><circle cx="240.1" cy="106.9" r="3" fill="#4aa3ff"/><circle cx="245.3" cy="106.9" r="3" fill="#4aa3ff"/><circle cx="250.6" cy="106.9" r="3" fill="#4aa3ff"/><circle cx="255.8" cy="106.9" r="3" fill="#4aa3ff"/><circle cx="261.0" cy="113.2" r="3" fill="#4aa3ff"/><circle cx="266.3" cy="113.2" r="3" fill="#4aa3ff"/><circle cx="271.5" cy="113.2" r="3" fill="#4aa3ff"/><circle cx="276.7" cy="113.2" r="3" fill="#4aa3ff"/><circle cx="282.0" cy="113.2" r="3" fill="#4aa3ff"/><circle cx="287.2" cy="110.7" r="3" fill="#4aa3ff"/><circle cx="292.4" cy="105.3" r="3" fill="#4aa3ff"/><circle cx="297.7" cy="83.4" r="3" fill="#4aa3ff"/><circle cx="302.9" cy="83.4" r="3" fill="#4aa3ff"/><circle cx="308.1" cy="85.6" r="3" fill="#4aa3ff"/><circle cx="313.4" cy="85.6" r="3" fill="#4aa3ff"/><circle cx="318.6" cy="85.6" r="3" fill="#4aa3ff"/><circle cx="323.8" cy="85.6" r="3" fill="#4aa3ff"/><circle cx="329.1" cy="85.6" r="3" fill="#4aa3ff"/><circle cx="334.3" cy="85.8" r="3" fill="#4aa3ff"/><circle cx="339.5" cy="85.8" r="3" fill="#4aa3ff"/><circle cx="344.8" cy="85.8" r="3" fill="#4aa3ff"/><circle cx="350.0" cy="86.0" r="3" fill="#4aa3ff"/><circle cx="355.2" cy="86.0" r="3" fill="#4aa3ff"/><circle cx="360.5" cy="86.0" r="3" fill="#4aa3ff"/><circle cx="365.7" cy="86.0" r="3" fill="#4aa3ff"/><circle cx="370.9" cy="86.0" r="3" fill="#4aa3ff"/><circle cx="376.2" cy="86.0" r="3" fill="#4aa3ff"/><circle cx="381.4" cy="86.0" r="3" fill="#4aa3ff"/><circle cx="386.6" cy="86.0" r="3" fill="#4aa3ff"/><circle cx="391.9" cy="86.0" r="3" fill="#4aa3ff"/><circle cx="397.1" cy="86.0" r="3" fill="#4aa3ff"/><circle cx="402.3" cy="86.0" r="3" fill="#4aa3ff"/><circle cx="407.6" cy="86.0" r="3" fill="#4aa3ff"/><circle cx="412.8" cy="86.0" r="3" fill="#4aa3ff"/><circle cx="418.0" cy="86.0" r="3" fill="#4aa3ff"/><circle cx="423.3" cy="86.0" r="3" fill="#4aa3ff"/><circle cx="428.5" cy="86.0" r="3" fill="#4aa3ff"/><circle cx="433.7" cy="86.0" r="3" fill="#4aa3ff"/><circle cx="439.0" cy="86.0" r="3" fill="#4aa3ff"/><circle cx="444.2" cy="86.0" r="3" fill="#4aa3ff"/><circle cx="449.4" cy="86.0" r="3" fill="#4aa3ff"/><circle cx="454.7" cy="86.0" r="3" fill="#4aa3ff"/><circle cx="459.9" cy="87.0" r="3" fill="#4aa3ff"/><circle cx="465.1" cy="87.0" r="3" fill="#4aa3ff"/><circle cx="470.4" cy="87.0" r="3" fill="#4aa3ff"/><circle cx="475.6" cy="73.7" r="3" fill="#4aa3ff"/><circle cx="480.8" cy="73.7" r="3" fill="#4aa3ff"/><circle cx="486.1" cy="71.0" r="3" fill="#4aa3ff"/><circle cx="491.3" cy="71.0" r="3" fill="#4aa3ff"/><circle cx="496.5" cy="70.8" r="3" fill="#4aa3ff"/><circle cx="501.8" cy="70.6" r="3" fill="#4aa3ff"/><circle cx="507.0" cy="70.6" r="3" fill="#4aa3ff"/><circle cx="512.2" cy="70.4" r="3" fill="#4aa3ff"/><circle cx="517.5" cy="68.6" r="3" fill="#4aa3ff"/><circle cx="522.7" cy="60.5" r="3" fill="#4aa3ff"/><circle cx="527.9" cy="59.3" r="3" fill="#4aa3ff"/><circle cx="533.2" cy="52.0" r="3" fill="#4aa3ff"/><circle cx="538.4" cy="47.3" r="3" fill="#4aa3ff"/><circle cx="543.6" cy="40.1" r="3" fill="#4aa3ff"/><circle cx="548.9" cy="36.0" r="3" fill="#4aa3ff"/><circle cx="554.1" cy="36.0" r="3" fill="#4aa3ff"/><circle cx="559.3" cy="36.0" r="3" fill="#4aa3ff"/><circle cx="564.6" cy="36.0" r="3" fill="#4aa3ff"/><circle cx="569.8" cy="36.0" r="3" fill="#4aa3ff"/><circle cx="575.0" cy="36.0" r="3" fill="#4aa3ff"/><circle cx="580.3" cy="36.0" r="3" fill="#4aa3ff"/><circle cx="585.5" cy="36.0" r="3" fill="#4aa3ff"/><circle cx="590.7" cy="36.0" r="3" fill="#4aa3ff"/><circle cx="596.0" cy="36.0" r="3" fill="#4aa3ff"/><circle cx="601.2" cy="36.0" r="3" fill="#4aa3ff"/><circle cx="606.4" cy="36.0" r="3" fill="#4aa3ff"/><circle cx="611.7" cy="36.0" r="3" fill="#4aa3ff"/><circle cx="616.9" cy="36.0" r="3" fill="#4aa3ff"/><circle cx="622.1" cy="36.0" r="3" fill="#4aa3ff"/><circle cx="627.4" cy="36.0" r="3" fill="#4aa3ff"/><circle cx="632.6" cy="36.0" r="3" fill="#4aa3ff"/><circle cx="637.8" cy="36.0" r="3" fill="#4aa3ff"/><circle cx="643.1" cy="36.0" r="3" fill="#4aa3ff"/><circle cx="648.3" cy="36.0" r="3" fill="#4aa3ff"/><circle cx="653.5" cy="36.0" r="3" fill="#4aa3ff"/><circle cx="658.8" cy="36.0" r="3" fill="#4aa3ff"/><circle cx="664.0" cy="36.0" r="3" fill="#4aa3ff"/>
<text x="36" y="225" fill="#6b7280" font-size="11">2026-06-26</text>
<text x="664" y="225" fill="#6b7280" font-size="11" text-anchor="end">2026-07-09</text>
<text x="36" y="212" font-family="system-ui,sans-serif" font-size="11">
<tspan fill="#4aa3ff">&#9679; open FPs</tspan>  <tspan fill="#3fb950">&#9679; closed (Anthropic acting)</tspan>  <tspan fill="#8a5a5a">&#9679; harness withdrawn</tspan></text>
<text x="664" y="22" text-anchor="end" font-family="system-ui,sans-serif" font-size="12">
<tspan fill="#4aa3ff">open 800</tspan>  <tspan fill="#3fb950">closed 0</tspan>  <tspan fill="#8a5a5a">harness 0</tspan></text>
</svg>