<svg xmlns="http://www.w3.org/2000/svg" width="700" height="234" viewBox="0 0 700 234" role="img">
<rect width="700" height="234" rx="12" fill="#16181d"/>
<text x="36" y="22" fill="#e8eaed" font-family="system-ui,sans-serif" font-size="14" font-weight="700">Is Anthropic acting? cyber/aup false positives over time</text>
<line x1="36" y1="198.0" x2="664" y2="198.0" stroke="#2a2e37" stroke-width="1"/><text x="30" y="202.0" fill="#6b7280" font-size="11" text-anchor="end">0</text><line x1="36" y1="117.0" x2="664" y2="117.0" stroke="#2a2e37" stroke-width="1"/><text x="30" y="121.0" fill="#6b7280" font-size="11" text-anchor="end">400</text><line x1="36" y1="36.0" x2="664" y2="36.0" stroke="#2a2e37" stroke-width="1"/><text x="30" y="40.0" fill="#6b7280" font-size="11" text-anchor="end">800</text>

<polyline fill="none" stroke="#8a5a5a" stroke-width="2.5" stroke-linejoin="round" points="36.0,145.1 38.9,145.1 41.8,145.1 44.8,145.1 47.7,145.1 50.6,145.1 53.5,145.1 56.4,145.1 59.4,145.1 62.3,145.1 65.2,145.1 68.1,145.1 71.1,145.1 74.0,145.1 76.9,145.1 79.8,145.1 82.7,145.1 85.7,145.1 88.6,145.1 91.5,145.1 94.4,145.1 97.3,145.1 100.3,145.1 103.2,145.1 106.1,145.1 109.0,145.1 111.9,145.1 114.9,145.1 117.8,145.1 120.7,145.1 123.6,145.1 126.5,145.1 129.5,145.1 132.4,145.1 135.3,145.1 138.2,145.1 141.2,145.1 144.1,145.1 147.0,145.1 149.9,145.1 152.8,145.1 155.8,145.1 158.7,145.1 161.6,145.1 164.5,145.1 167.4,145.1 170.4,145.1 173.3,145.1 176.2,145.1 179.1,145.1 182.0,155.7 185.0,155.7 187.9,155.7 190.8,155.7 193.7,155.7 196.7,155.7 199.6,155.7 202.5,155.7 205.4,155.7 208.3,155.7 211.3,155.7 214.2,155.7 217.1,155.7 220.0,155.7 222.9,155.7 225.9,155.7 228.8,155.7 231.7,155.7 234.6,155.7 237.5,155.7 240.5,155.7 243.4,155.7 246.3,155.7 249.2,155.7 252.1,155.7 255.1,155.7 258.0,155.7 260.9,155.7 263.8,155.7 266.8,155.7 269.7,155.7 272.6,155.7 275.5,155.7 278.4,155.7 281.4,167.6 284.3,167.6 287.2,170.3 290.1,170.3 293.0,170.5 296.0,170.7 298.9,170.7 301.8,170.9 304.7,172.7 307.6,180.6 310.6,181.8 313.5,189.1 316.4,190.5 319.3,195.2 322.3,198.0 325.2,198.0 328.1,198.0 331.0,198.0 333.9,198.0 336.9,198.0 339.8,198.0 342.7,198.0 345.6,198.0 348.5,198.0 351.5,198.0 354.4,198.0 357.3,198.0 360.2,198.0 363.1,198.0 366.1,198.0 369.0,198.0 371.9,198.0 374.8,198.0 377.7,198.0 380.7,198.0 383.6,198.0 386.5,198.0 389.4,198.0 392.4,198.0 395.3,198.0 398.2,198.0 401.1,198.0 404.0,198.0 407.0,198.0 409.9,198.0 412.8,198.0 415.7,198.0 418.6,198.0 421.6,198.0 424.5,198.0 427.4,198.0 430.3,198.0 433.2,198.0 436.2,198.0 439.1,198.0 442.0,198.0 444.9,198.0 447.9,198.0 450.8,198.0 453.7,198.0 456.6,198.0 459.5,198.0 462.5,198.0 465.4,198.0 468.3,198.0 471.2,198.0 474.1,198.0 477.1,198.0 480.0,198.0 482.9,198.0 485.8,198.0 488.7,198.0 491.7,198.0 494.6,198.0 497.5,198.0 500.4,198.0 503.3,198.0 506.3,198.0 509.2,198.0 512.1,198.0 515.0,198.0 518.0,198.0 520.9,198.0 523.8,198.0 526.7,198.0 529.6,198.0 532.6,198.0 535.5,198.0 538.4,198.0 541.3,198.0 544.2,198.0 547.2,198.0 550.1,198.0 553.0,198.0 555.9,198.0 558.8,198.0 561.8,198.0 564.7,198.0 567.6,198.0 570.5,198.0 573.5,198.0 576.4,198.0 579.3,198.0 582.2,198.0 585.1,198.0 588.1,198.0 591.0,198.0 593.9,198.0 596.8,198.0 599.7,198.0 602.7,198.0 605.6,198.0 608.5,198.0 611.4,198.0 614.3,198.0 617.3,198.0 620.2,198.0 623.1,198.0 626.0,198.0 628.9,198.0 631.9,198.0 634.8,198.0 637.7,198.0 640.6,198.0 643.6,198.0 646.5,198.0 649.4,198.0 652.3,198.0 655.2,198.0 658.2,198.0 661.1,198.0 664.0,198.0"/><circle cx="36.0" cy="145.1" r="3" fill="#8a5a5a"/><circle cx="38.9" cy="145.1" r="3" fill="#8a5a5a"/><circle cx="41.8" cy="145.1" r="3" fill="#8a5a5a"/><circle cx="44.8" cy="145.1" r="3" fill="#8a5a5a"/><circle cx="47.7" cy="145.1" r="3" fill="#8a5a5a"/><circle cx="50.6" cy="145.1" r="3" fill="#8a5a5a"/><circle cx="53.5" cy="145.1" r="3" fill="#8a5a5a"/><circle cx="56.4" cy="145.1" r="3" fill="#8a5a5a"/><circle cx="59.4" cy="145.1" r="3" fill="#8a5a5a"/><circle cx="62.3" cy="145.1" r="3" fill="#8a5a5a"/><circle cx="65.2" cy="145.1" r="3" fill="#8a5a5a"/><circle cx="68.1" cy="145.1" r="3" fill="#8a5a5a"/><circle cx="71.1" cy="145.1" r="3" fill="#8a5a5a"/><circle cx="74.0" cy="145.1" r="3" fill="#8a5a5a"/><circle cx="76.9" cy="145.1" r="3" fill="#8a5a5a"/><circle cx="79.8" cy="145.1" r="3" fill="#8a5a5a"/><circle cx="82.7" cy="145.1" r="3" fill="#8a5a5a"/><circle cx="85.7" cy="145.1" r="3" fill="#8a5a5a"/><circle cx="88.6" cy="145.1" r="3" fill="#8a5a5a"/><circle cx="91.5" cy="145.1" r="3" fill="#8a5a5a"/><circle cx="94.4" cy="145.1" r="3" fill="#8a5a5a"/><circle cx="97.3" cy="145.1" r="3" fill="#8a5a5a"/><circle cx="100.3" cy="145.1" r="3" fill="#8a5a5a"/><circle cx="103.2" cy="145.1" r="3" fill="#8a5a5a"/><circle cx="106.1" cy="145.1" r="3" fill="#8a5a5a"/><circle cx="109.0" cy="145.1" r="3" fill="#8a5a5a"/><circle cx="111.9" cy="145.1" r="3" fill="#8a5a5a"/><circle cx="114.9" cy="145.1" r="3" fill="#8a5a5a"/><circle cx="117.8" cy="145.1" r="3" fill="#8a5a5a"/><circle cx="120.7" cy="145.1" r="3" fill="#8a5a5a"/><circle cx="123.6" cy="145.1" r="3" fill="#8a5a5a"/><circle cx="126.5" cy="145.1" r="3" fill="#8a5a5a"/><circle cx="129.5" cy="145.1" r="3" fill="#8a5a5a"/><circle cx="132.4" cy="145.1" r="3" fill="#8a5a5a"/><circle cx="135.3" cy="145.1" r="3" fill="#8a5a5a"/><circle cx="138.2" cy="145.1" r="3" fill="#8a5a5a"/><circle cx="141.2" cy="145.1" r="3" fill="#8a5a5a"/><circle cx="144.1" cy="145.1" r="3" fill="#8a5a5a"/><circle cx="147.0" cy="145.1" r="3" fill="#8a5a5a"/><circle cx="149.9" cy="145.1" r="3" fill="#8a5a5a"/><circle cx="152.8" cy="145.1" r="3" fill="#8a5a5a"/><circle cx="155.8" cy="145.1" r="3" fill="#8a5a5a"/><circle cx="158.7" cy="145.1" r="3" fill="#8a5a5a"/><circle cx="161.6" cy="145.1" r="3" fill="#8a5a5a"/><circle cx="164.5" cy="145.1" r="3" fill="#8a5a5a"/><circle cx="167.4" cy="145.1" r="3" fill="#8a5a5a"/><circle cx="170.4" cy="145.1" r="3" fill="#8a5a5a"/><circle cx="173.3" cy="145.1" r="3" fill="#8a5a5a"/><circle cx="176.2" cy="145.1" r="3" fill="#8a5a5a"/><circle cx="179.1" cy="145.1" r="3" fill="#8a5a5a"/><circle cx="182.0" cy="155.7" r="3" fill="#8a5a5a"/><circle cx="185.0" cy="155.7" r="3" fill="#8a5a5a"/><circle cx="187.9" cy="155.7" r="3" fill="#8a5a5a"/><circle cx="190.8" cy="155.7" r="3" fill="#8a5a5a"/><circle cx="193.7" cy="155.7" r="3" fill="#8a5a5a"/><circle cx="196.7" cy="155.7" r="3" fill="#8a5a5a"/><circle cx="199.6" cy="155.7" r="3" fill="#8a5a5a"/><circle cx="202.5" cy="155.7" r="3" fill="#8a5a5a"/><circle cx="205.4" cy="155.7" r="3" fill="#8a5a5a"/><circle cx="208.3" cy="155.7" r="3" fill="#8a5a5a"/><circle cx="211.3" cy="155.7" r="3" fill="#8a5a5a"/><circle cx="214.2" cy="155.7" r="3" fill="#8a5a5a"/><circle cx="217.1" cy="155.7" r="3" fill="#8a5a5a"/><circle cx="220.0" cy="155.7" r="3" fill="#8a5a5a"/><circle cx="222.9" cy="155.7" r="3" fill="#8a5a5a"/><circle cx="225.9" cy="155.7" r="3" fill="#8a5a5a"/><circle cx="228.8" cy="155.7" r="3" fill="#8a5a5a"/><circle cx="231.7" cy="155.7" r="3" fill="#8a5a5a"/><circle cx="234.6" cy="155.7" r="3" fill="#8a5a5a"/><circle cx="237.5" cy="155.7" r="3" fill="#8a5a5a"/><circle cx="240.5" cy="155.7" r="3" fill="#8a5a5a"/><circle cx="243.4" cy="155.7" r="3" fill="#8a5a5a"/><circle cx="246.3" cy="155.7" r="3" fill="#8a5a5a"/><circle cx="249.2" cy="155.7" r="3" fill="#8a5a5a"/><circle cx="252.1" cy="155.7" r="3" fill="#8a5a5a"/><circle cx="255.1" cy="155.7" r="3" fill="#8a5a5a"/><circle cx="258.0" cy="155.7" r="3" fill="#8a5a5a"/><circle cx="260.9" cy="155.7" r="3" fill="#8a5a5a"/><circle cx="263.8" cy="155.7" r="3" fill="#8a5a5a"/><circle cx="266.8" cy="155.7" r="3" fill="#8a5a5a"/><circle cx="269.7" cy="155.7" r="3" fill="#8a5a5a"/><circle cx="272.6" cy="155.7" r="3" fill="#8a5a5a"/><circle cx="275.5" cy="155.7" r="3" fill="#8a5a5a"/><circle cx="278.4" cy="155.7" r="3" fill="#8a5a5a"/><circle cx="281.4" cy="167.6" r="3" fill="#8a5a5a"/><circle cx="284.3" cy="167.6" r="3" fill="#8a5a5a"/><circle cx="287.2" cy="170.3" r="3" fill="#8a5a5a"/><circle cx="290.1" cy="170.3" r="3" fill="#8a5a5a"/><circle cx="293.0" cy="170.5" r="3" fill="#8a5a5a"/><circle cx="296.0" cy="170.7" r="3" fill="#8a5a5a"/><circle cx="298.9" cy="170.7" r="3" fill="#8a5a5a"/><circle cx="301.8" cy="170.9" r="3" fill="#8a5a5a"/><circle cx="304.7" cy="172.7" r="3" fill="#8a5a5a"/><circle cx="307.6" cy="180.6" r="3" fill="#8a5a5a"/><circle cx="310.6" cy="181.8" r="3" fill="#8a5a5a"/><circle cx="313.5" cy="189.1" r="3" fill="#8a5a5a"/><circle cx="316.4" cy="190.5" r="3" fill="#8a5a5a"/><circle cx="319.3" cy="195.2" r="3" fill="#8a5a5a"/><circle cx="322.3" cy="198.0" r="3" fill="#8a5a5a"/><circle cx="325.2" cy="198.0" r="3" fill="#8a5a5a"/><circle cx="328.1" cy="198.0" r="3" fill="#8a5a5a"/><circle cx="331.0" cy="198.0" r="3" fill="#8a5a5a"/><circle cx="333.9" cy="198.0" r="3" fill="#8a5a5a"/><circle cx="336.9" cy="198.0" r="3" fill="#8a5a5a"/><circle cx="339.8" cy="198.0" r="3" fill="#8a5a5a"/><circle cx="342.7" cy="198.0" r="3" fill="#8a5a5a"/><circle cx="345.6" cy="198.0" r="3" fill="#8a5a5a"/><circle cx="348.5" cy="198.0" r="3" fill="#8a5a5a"/><circle cx="351.5" cy="198.0" r="3" fill="#8a5a5a"/><circle cx="354.4" cy="198.0" r="3" fill="#8a5a5a"/><circle cx="357.3" cy="198.0" r="3" fill="#8a5a5a"/><circle cx="360.2" cy="198.0" r="3" fill="#8a5a5a"/><circle cx="363.1" cy="198.0" r="3" fill="#8a5a5a"/><circle cx="366.1" cy="198.0" r="3" fill="#8a5a5a"/><circle cx="369.0" cy="198.0" r="3" fill="#8a5a5a"/><circle cx="371.9" cy="198.0" r="3" fill="#8a5a5a"/><circle cx="374.8" cy="198.0" r="3" fill="#8a5a5a"/><circle cx="377.7" cy="198.0" r="3" fill="#8a5a5a"/><circle cx="380.7" cy="198.0" r="3" fill="#8a5a5a"/><circle cx="383.6" cy="198.0" r="3" fill="#8a5a5a"/><circle cx="386.5" cy="198.0" r="3" fill="#8a5a5a"/><circle cx="389.4" cy="198.0" r="3" fill="#8a5a5a"/><circle cx="392.4" cy="198.0" r="3" fill="#8a5a5a"/><circle cx="395.3" cy="198.0" r="3" fill="#8a5a5a"/><circle cx="398.2" cy="198.0" r="3" fill="#8a5a5a"/><circle cx="401.1" cy="198.0" r="3" fill="#8a5a5a"/><circle cx="404.0" cy="198.0" r="3" fill="#8a5a5a"/><circle cx="407.0" cy="198.0" r="3" fill="#8a5a5a"/><circle cx="409.9" cy="198.0" r="3" fill="#8a5a5a"/><circle cx="412.8" cy="198.0" r="3" fill="#8a5a5a"/><circle cx="415.7" cy="198.0" r="3" fill="#8a5a5a"/><circle cx="418.6" cy="198.0" r="3" fill="#8a5a5a"/><circle cx="421.6" cy="198.0" r="3" fill="#8a5a5a"/><circle cx="424.5" cy="198.0" r="3" fill="#8a5a5a"/><circle cx="427.4" cy="198.0" r="3" fill="#8a5a5a"/><circle cx="430.3" cy="198.0" r="3" fill="#8a5a5a"/><circle cx="433.2" cy="198.0" r="3" fill="#8a5a5a"/><circle cx="436.2" cy="198.0" r="3" fill="#8a5a5a"/><circle cx="439.1" cy="198.0" r="3" fill="#8a5a5a"/><circle cx="442.0" cy="198.0" r="3" fill="#8a5a5a"/><circle cx="444.9" cy="198.0" r="3" fill="#8a5a5a"/><circle cx="447.9" cy="198.0" r="3" fill="#8a5a5a"/><circle cx="450.8" cy="198.0" r="3" fill="#8a5a5a"/><circle cx="453.7" cy="198.0" r="3" fill="#8a5a5a"/><circle cx="456.6" cy="198.0" r="3" fill="#8a5a5a"/><circle cx="459.5" cy="198.0" r="3" fill="#8a5a5a"/><circle cx="462.5" cy="198.0" r="3" fill="#8a5a5a"/><circle cx="465.4" cy="198.0" r="3" fill="#8a5a5a"/><circle cx="468.3" cy="198.0" r="3" fill="#8a5a5a"/><circle cx="471.2" cy="198.0" r="3" fill="#8a5a5a"/><circle cx="474.1" cy="198.0" r="3" fill="#8a5a5a"/><circle cx="477.1" cy="198.0" r="3" fill="#8a5a5a"/><circle cx="480.0" cy="198.0" r="3" fill="#8a5a5a"/><circle cx="482.9" cy="198.0" r="3" fill="#8a5a5a"/><circle cx="485.8" cy="198.0" r="3" fill="#8a5a5a"/><circle cx="488.7" cy="198.0" r="3" fill="#8a5a5a"/><circle cx="491.7" cy="198.0" r="3" fill="#8a5a5a"/><circle cx="494.6" cy="198.0" r="3" fill="#8a5a5a"/><circle cx="497.5" cy="198.0" r="3" fill="#8a5a5a"/><circle cx="500.4" cy="198.0" r="3" fill="#8a5a5a"/><circle cx="503.3" cy="198.0" r="3" fill="#8a5a5a"/><circle cx="506.3" cy="198.0" r="3" fill="#8a5a5a"/><circle cx="509.2" cy="198.0" r="3" fill="#8a5a5a"/><circle cx="512.1" cy="198.0" r="3" fill="#8a5a5a"/><circle cx="515.0" cy="198.0" r="3" fill="#8a5a5a"/><circle cx="518.0" cy="198.0" r="3" fill="#8a5a5a"/><circle cx="520.9" cy="198.0" r="3" fill="#8a5a5a"/><circle cx="523.8" cy="198.0" r="3" fill="#8a5a5a"/><circle cx="526.7" cy="198.0" r="3" fill="#8a5a5a"/><circle cx="529.6" cy="198.0" r="3" fill="#8a5a5a"/><circle cx="532.6" cy="198.0" r="3" fill="#8a5a5a"/><circle cx="535.5" cy="198.0" r="3" fill="#8a5a5a"/><circle cx="538.4" cy="198.0" r="3" fill="#8a5a5a"/><circle cx="541.3" cy="198.0" r="3" fill="#8a5a5a"/><circle cx="544.2" cy="198.0" r="3" fill="#8a5a5a"/><circle cx="547.2" cy="198.0" r="3" fill="#8a5a5a"/><circle cx="550.1" cy="198.0" r="3" fill="#8a5a5a"/><circle cx="553.0" cy="198.0" r="3" fill="#8a5a5a"/><circle cx="555.9" cy="198.0" r="3" fill="#8a5a5a"/><circle cx="558.8" cy="198.0" r="3" fill="#8a5a5a"/><circle cx="561.8" cy="198.0" r="3" fill="#8a5a5a"/><circle cx="564.7" cy="198.0" r="3" fill="#8a5a5a"/><circle cx="567.6" cy="198.0" r="3" fill="#8a5a5a"/><circle cx="570.5" cy="198.0" r="3" fill="#8a5a5a"/><circle cx="573.5" cy="198.0" r="3" fill="#8a5a5a"/><circle cx="576.4" cy="198.0" r="3" fill="#8a5a5a"/><circle cx="579.3" cy="198.0" r="3" fill="#8a5a5a"/><circle cx="582.2" cy="198.0" r="3" fill="#8a5a5a"/><circle cx="585.1" cy="198.0" r="3" fill="#8a5a5a"/><circle cx="588.1" cy="198.0" r="3" fill="#8a5a5a"/><circle cx="591.0" cy="198.0" r="3" fill="#8a5a5a"/><circle cx="593.9" cy="198.0" r="3" fill="#8a5a5a"/><circle cx="596.8" cy="198.0" r="3" fill="#8a5a5a"/><circle cx="599.7" cy="198.0" r="3" fill="#8a5a5a"/><circle cx="602.7" cy="198.0" r="3" fill="#8a5a5a"/><circle cx="605.6" cy="198.0" r="3" fill="#8a5a5a"/><circle cx="608.5" cy="198.0" r="3" fill="#8a5a5a"/><circle cx="611.4" cy="198.0" r="3" fill="#8a5a5a"/><circle cx="614.3" cy="198.0" r="3" fill="#8a5a5a"/><circle cx="617.3" cy="198.0" r="3" fill="#8a5a5a"/><circle cx="620.2" cy="198.0" r="3" fill="#8a5a5a"/><circle cx="623.1" cy="198.0" r="3" fill="#8a5a5a"/><circle cx="626.0" cy="198.0" r="3" fill="#8a5a5a"/><circle cx="628.9" cy="198.0" r="3" fill="#8a5a5a"/><circle cx="631.9" cy="198.0" r="3" fill="#8a5a5a"/><circle cx="634.8" cy="198.0" r="3" fill="#8a5a5a"/><circle cx="637.7" cy="198.0" r="3" fill="#8a5a5a"/><circle cx="640.6" cy="198.0" r="3" fill="#8a5a5a"/><circle cx="643.6" cy="198.0" r="3" fill="#8a5a5a"/><circle cx="646.5" cy="198.0" r="3" fill="#8a5a5a"/><circle cx="649.4" cy="198.0" r="3" fill="#8a5a5a"/><circle cx="652.3" cy="198.0" r="3" fill="#8a5a5a"/><circle cx="655.2" cy="198.0" r="3" fill="#8a5a5a"/><circle cx="658.2" cy="198.0" r="3" fill="#8a5a5a"/><circle cx="661.1" cy="198.0" r="3" fill="#8a5a5a"/><circle cx="664.0" cy="198.0" r="3" fill="#8a5a5a"/>
<polyline fill="none" stroke="#3fb950" stroke-width="2.5" stroke-linejoin="round" points="36.0,198.0 38.9,198.0 41.8,198.0 44.8,198.0 47.7,198.0 50.6,198.0 53.5,198.0 56.4,198.0 59.4,198.0 62.3,198.0 65.2,198.0 68.1,198.0 71.1,198.0 74.0,198.0 76.9,198.0 79.8,198.0 82.7,198.0 85.7,198.0 88.6,198.0 91.5,198.0 94.4,198.0 97.3,198.0 100.3,198.0 103.2,198.0 106.1,198.0 109.0,198.0 111.9,198.0 114.9,198.0 117.8,198.0 120.7,198.0 123.6,198.0 126.5,198.0 129.5,198.0 132.4,198.0 135.3,198.0 138.2,198.0 141.2,198.0 144.1,198.0 147.0,198.0 149.9,198.0 152.8,198.0 155.8,198.0 158.7,198.0 161.6,191.7 164.5,191.7 167.4,191.7 170.4,191.7 173.3,191.7 176.2,191.7 179.1,191.7 182.0,192.9 185.0,192.9 187.9,190.7 190.8,190.7 193.7,190.7 196.7,190.7 199.6,190.7 202.5,190.5 205.4,190.5 208.3,190.5 211.3,190.3 214.2,190.3 217.1,190.3 220.0,190.3 222.9,190.3 225.9,190.3 228.8,190.3 231.7,190.3 234.6,190.3 237.5,190.3 240.5,190.3 243.4,190.3 246.3,190.3 249.2,190.3 252.1,190.3 255.1,190.3 258.0,190.3 260.9,190.3 263.8,190.3 266.8,190.3 269.7,190.3 272.6,189.3 275.5,189.3 278.4,189.3 281.4,190.7 284.3,190.7 287.2,190.7 290.1,190.7 293.0,190.7 296.0,190.7 298.9,190.7 301.8,190.7 304.7,190.7 307.6,190.9 310.6,190.9 313.5,190.9 316.4,194.2 319.3,196.8 322.3,198.0 325.2,198.0 328.1,198.0 331.0,198.0 333.9,198.0 336.9,198.0 339.8,198.0 342.7,198.0 345.6,198.0 348.5,198.0 351.5,198.0 354.4,198.0 357.3,198.0 360.2,198.0 363.1,198.0 366.1,198.0 369.0,198.0 371.9,198.0 374.8,198.0 377.7,198.0 380.7,198.0 383.6,198.0 386.5,198.0 389.4,198.0 392.4,198.0 395.3,198.0 398.2,198.0 401.1,198.0 404.0,198.0 407.0,198.0 409.9,198.0 412.8,198.0 415.7,198.0 418.6,198.0 421.6,198.0 424.5,198.0 427.4,198.0 430.3,198.0 433.2,198.0 436.2,198.0 439.1,198.0 442.0,198.0 444.9,198.0 447.9,198.0 450.8,198.0 453.7,198.0 456.6,198.0 459.5,198.0 462.5,198.0 465.4,198.0 468.3,198.0 471.2,198.0 474.1,198.0 477.1,198.0 480.0,198.0 482.9,198.0 485.8,198.0 488.7,198.0 491.7,198.0 494.6,198.0 497.5,198.0 500.4,198.0 503.3,198.0 506.3,198.0 509.2,198.0 512.1,198.0 515.0,198.0 518.0,198.0 520.9,198.0 523.8,198.0 526.7,198.0 529.6,198.0 532.6,198.0 535.5,198.0 538.4,198.0 541.3,198.0 544.2,198.0 547.2,198.0 550.1,198.0 553.0,198.0 555.9,198.0 558.8,198.0 561.8,198.0 564.7,198.0 567.6,198.0 570.5,198.0 573.5,198.0 576.4,198.0 579.3,198.0 582.2,198.0 585.1,198.0 588.1,198.0 591.0,198.0 593.9,198.0 596.8,198.0 599.7,198.0 602.7,198.0 605.6,198.0 608.5,198.0 611.4,198.0 614.3,198.0 617.3,198.0 620.2,198.0 623.1,198.0 626.0,198.0 628.9,198.0 631.9,198.0 634.8,198.0 637.7,198.0 640.6,198.0 643.6,198.0 646.5,198.0 649.4,198.0 652.3,198.0 655.2,198.0 658.2,198.0 661.1,198.0 664.0,198.0"/><circle cx="36.0" cy="198.0" r="3" fill="#3fb950"/><circle cx="38.9" cy="198.0" r="3" fill="#3fb950"/><circle cx="41.8" cy="198.0" r="3" fill="#3fb950"/><circle cx="44.8" cy="198.0" r="3" fill="#3fb950"/><circle cx="47.7" cy="198.0" r="3" fill="#3fb950"/><circle cx="50.6" cy="198.0" r="3" fill="#3fb950"/><circle cx="53.5" cy="198.0" r="3" fill="#3fb950"/><circle cx="56.4" cy="198.0" r="3" fill="#3fb950"/><circle cx="59.4" cy="198.0" r="3" fill="#3fb950"/><circle cx="62.3" cy="198.0" r="3" fill="#3fb950"/><circle cx="65.2" cy="198.0" r="3" fill="#3fb950"/><circle cx="68.1" cy="198.0" r="3" fill="#3fb950"/><circle cx="71.1" cy="198.0" r="3" fill="#3fb950"/><circle cx="74.0" cy="198.0" r="3" fill="#3fb950"/><circle cx="76.9" cy="198.0" r="3" fill="#3fb950"/><circle cx="79.8" cy="198.0" r="3" fill="#3fb950"/><circle cx="82.7" cy="198.0" r="3" fill="#3fb950"/><circle cx="85.7" cy="198.0" r="3" fill="#3fb950"/><circle cx="88.6" cy="198.0" r="3" fill="#3fb950"/><circle cx="91.5" cy="198.0" r="3" fill="#3fb950"/><circle cx="94.4" cy="198.0" r="3" fill="#3fb950"/><circle cx="97.3" cy="198.0" r="3" fill="#3fb950"/><circle cx="100.3" cy="198.0" r="3" fill="#3fb950"/><circle cx="103.2" cy="198.0" r="3" fill="#3fb950"/><circle cx="106.1" cy="198.0" r="3" fill="#3fb950"/><circle cx="109.0" cy="198.0" r="3" fill="#3fb950"/><circle cx="111.9" cy="198.0" r="3" fill="#3fb950"/><circle cx="114.9" cy="198.0" r="3" fill="#3fb950"/><circle cx="117.8" cy="198.0" r="3" fill="#3fb950"/><circle cx="120.7" cy="198.0" r="3" fill="#3fb950"/><circle cx="123.6" cy="198.0" r="3" fill="#3fb950"/><circle cx="126.5" cy="198.0" r="3" fill="#3fb950"/><circle cx="129.5" cy="198.0" r="3" fill="#3fb950"/><circle cx="132.4" cy="198.0" r="3" fill="#3fb950"/><circle cx="135.3" cy="198.0" r="3" fill="#3fb950"/><circle cx="138.2" cy="198.0" r="3" fill="#3fb950"/><circle cx="141.2" cy="198.0" r="3" fill="#3fb950"/><circle cx="144.1" cy="198.0" r="3" fill="#3fb950"/><circle cx="147.0" cy="198.0" r="3" fill="#3fb950"/><circle cx="149.9" cy="198.0" r="3" fill="#3fb950"/><circle cx="152.8" cy="198.0" r="3" fill="#3fb950"/><circle cx="155.8" cy="198.0" r="3" fill="#3fb950"/><circle cx="158.7" cy="198.0" r="3" fill="#3fb950"/><circle cx="161.6" cy="191.7" r="3" fill="#3fb950"/><circle cx="164.5" cy="191.7" r="3" fill="#3fb950"/><circle cx="167.4" cy="191.7" r="3" fill="#3fb950"/><circle cx="170.4" cy="191.7" r="3" fill="#3fb950"/><circle cx="173.3" cy="191.7" r="3" fill="#3fb950"/><circle cx="176.2" cy="191.7" r="3" fill="#3fb950"/><circle cx="179.1" cy="191.7" r="3" fill="#3fb950"/><circle cx="182.0" cy="192.9" r="3" fill="#3fb950"/><circle cx="185.0" cy="192.9" r="3" fill="#3fb950"/><circle cx="187.9" cy="190.7" r="3" fill="#3fb950"/><circle cx="190.8" cy="190.7" r="3" fill="#3fb950"/><circle cx="193.7" cy="190.7" r="3" fill="#3fb950"/><circle cx="196.7" cy="190.7" r="3" fill="#3fb950"/><circle cx="199.6" cy="190.7" r="3" fill="#3fb950"/><circle cx="202.5" cy="190.5" r="3" fill="#3fb950"/><circle cx="205.4" cy="190.5" r="3" fill="#3fb950"/><circle cx="208.3" cy="190.5" r="3" fill="#3fb950"/><circle cx="211.3" cy="190.3" r="3" fill="#3fb950"/><circle cx="214.2" cy="190.3" r="3" fill="#3fb950"/><circle cx="217.1" cy="190.3" r="3" fill="#3fb950"/><circle cx="220.0" cy="190.3" r="3" fill="#3fb950"/><circle cx="222.9" cy="190.3" r="3" fill="#3fb950"/><circle cx="225.9" cy="190.3" r="3" fill="#3fb950"/><circle cx="228.8" cy="190.3" r="3" fill="#3fb950"/><circle cx="231.7" cy="190.3" r="3" fill="#3fb950"/><circle cx="234.6" cy="190.3" r="3" fill="#3fb950"/><circle cx="237.5" cy="190.3" r="3" fill="#3fb950"/><circle cx="240.5" cy="190.3" r="3" fill="#3fb950"/><circle cx="243.4" cy="190.3" r="3" fill="#3fb950"/><circle cx="246.3" cy="190.3" r="3" fill="#3fb950"/><circle cx="249.2" cy="190.3" r="3" fill="#3fb950"/><circle cx="252.1" cy="190.3" r="3" fill="#3fb950"/><circle cx="255.1" cy="190.3" r="3" fill="#3fb950"/><circle cx="258.0" cy="190.3" r="3" fill="#3fb950"/><circle cx="260.9" cy="190.3" r="3" fill="#3fb950"/><circle cx="263.8" cy="190.3" r="3" fill="#3fb950"/><circle cx="266.8" cy="190.3" r="3" fill="#3fb950"/><circle cx="269.7" cy="190.3" r="3" fill="#3fb950"/><circle cx="272.6" cy="189.3" r="3" fill="#3fb950"/><circle cx="275.5" cy="189.3" r="3" fill="#3fb950"/><circle cx="278.4" cy="189.3" r="3" fill="#3fb950"/><circle cx="281.4" cy="190.7" r="3" fill="#3fb950"/><circle cx="284.3" cy="190.7" r="3" fill="#3fb950"/><circle cx="287.2" cy="190.7" r="3" fill="#3fb950"/><circle cx="290.1" cy="190.7" r="3" fill="#3fb950"/><circle cx="293.0" cy="190.7" r="3" fill="#3fb950"/><circle cx="296.0" cy="190.7" r="3" fill="#3fb950"/><circle cx="298.9" cy="190.7" r="3" fill="#3fb950"/><circle cx="301.8" cy="190.7" r="3" fill="#3fb950"/><circle cx="304.7" cy="190.7" r="3" fill="#3fb950"/><circle cx="307.6" cy="190.9" r="3" fill="#3fb950"/><circle cx="310.6" cy="190.9" r="3" fill="#3fb950"/><circle cx="313.5" cy="190.9" r="3" fill="#3fb950"/><circle cx="316.4" cy="194.2" r="3" fill="#3fb950"/><circle cx="319.3" cy="196.8" r="3" fill="#3fb950"/><circle cx="322.3" cy="198.0" r="3" fill="#3fb950"/><circle cx="325.2" cy="198.0" r="3" fill="#3fb950"/><circle cx="328.1" cy="198.0" r="3" fill="#3fb950"/><circle cx="331.0" cy="198.0" r="3" fill="#3fb950"/><circle cx="333.9" cy="198.0" r="3" fill="#3fb950"/><circle cx="336.9" cy="198.0" r="3" fill="#3fb950"/><circle cx="339.8" cy="198.0" r="3" fill="#3fb950"/><circle cx="342.7" cy="198.0" r="3" fill="#3fb950"/><circle cx="345.6" cy="198.0" r="3" fill="#3fb950"/><circle cx="348.5" cy="198.0" r="3" fill="#3fb950"/><circle cx="351.5" cy="198.0" r="3" fill="#3fb950"/><circle cx="354.4" cy="198.0" r="3" fill="#3fb950"/><circle cx="357.3" cy="198.0" r="3" fill="#3fb950"/><circle cx="360.2" cy="198.0" r="3" fill="#3fb950"/><circle cx="363.1" cy="198.0" r="3" fill="#3fb950"/><circle cx="366.1" cy="198.0" r="3" fill="#3fb950"/><circle cx="369.0" cy="198.0" r="3" fill="#3fb950"/><circle cx="371.9" cy="198.0" r="3" fill="#3fb950"/><circle cx="374.8" cy="198.0" r="3" fill="#3fb950"/><circle cx="377.7" cy="198.0" r="3" fill="#3fb950"/><circle cx="380.7" cy="198.0" r="3" fill="#3fb950"/><circle cx="383.6" cy="198.0" r="3" fill="#3fb950"/><circle cx="386.5" cy="198.0" r="3" fill="#3fb950"/><circle cx="389.4" cy="198.0" r="3" fill="#3fb950"/><circle cx="392.4" cy="198.0" r="3" fill="#3fb950"/><circle cx="395.3" cy="198.0" r="3" fill="#3fb950"/><circle cx="398.2" cy="198.0" r="3" fill="#3fb950"/><circle cx="401.1" cy="198.0" r="3" fill="#3fb950"/><circle cx="404.0" cy="198.0" r="3" fill="#3fb950"/><circle cx="407.0" cy="198.0" r="3" fill="#3fb950"/><circle cx="409.9" cy="198.0" r="3" fill="#3fb950"/><circle cx="412.8" cy="198.0" r="3" fill="#3fb950"/><circle cx="415.7" cy="198.0" r="3" fill="#3fb950"/><circle cx="418.6" cy="198.0" r="3" fill="#3fb950"/><circle cx="421.6" cy="198.0" r="3" fill="#3fb950"/><circle cx="424.5" cy="198.0" r="3" fill="#3fb950"/><circle cx="427.4" cy="198.0" r="3" fill="#3fb950"/><circle cx="430.3" cy="198.0" r="3" fill="#3fb950"/><circle cx="433.2" cy="198.0" r="3" fill="#3fb950"/><circle cx="436.2" cy="198.0" r="3" fill="#3fb950"/><circle cx="439.1" cy="198.0" r="3" fill="#3fb950"/><circle cx="442.0" cy="198.0" r="3" fill="#3fb950"/><circle cx="444.9" cy="198.0" r="3" fill="#3fb950"/><circle cx="447.9" cy="198.0" r="3" fill="#3fb950"/><circle cx="450.8" cy="198.0" r="3" fill="#3fb950"/><circle cx="453.7" cy="198.0" r="3" fill="#3fb950"/><circle cx="456.6" cy="198.0" r="3" fill="#3fb950"/><circle cx="459.5" cy="198.0" r="3" fill="#3fb950"/><circle cx="462.5" cy="198.0" r="3" fill="#3fb950"/><circle cx="465.4" cy="198.0" r="3" fill="#3fb950"/><circle cx="468.3" cy="198.0" r="3" fill="#3fb950"/><circle cx="471.2" cy="198.0" r="3" fill="#3fb950"/><circle cx="474.1" cy="198.0" r="3" fill="#3fb950"/><circle cx="477.1" cy="198.0" r="3" fill="#3fb950"/><circle cx="480.0" cy="198.0" r="3" fill="#3fb950"/><circle cx="482.9" cy="198.0" r="3" fill="#3fb950"/><circle cx="485.8" cy="198.0" r="3" fill="#3fb950"/><circle cx="488.7" cy="198.0" r="3" fill="#3fb950"/><circle cx="491.7" cy="198.0" r="3" fill="#3fb950"/><circle cx="494.6" cy="198.0" r="3" fill="#3fb950"/><circle cx="497.5" cy="198.0" r="3" fill="#3fb950"/><circle cx="500.4" cy="198.0" r="3" fill="#3fb950"/><circle cx="503.3" cy="198.0" r="3" fill="#3fb950"/><circle cx="506.3" cy="198.0" r="3" fill="#3fb950"/><circle cx="509.2" cy="198.0" r="3" fill="#3fb950"/><circle cx="512.1" cy="198.0" r="3" fill="#3fb950"/><circle cx="515.0" cy="198.0" r="3" fill="#3fb950"/><circle cx="518.0" cy="198.0" r="3" fill="#3fb950"/><circle cx="520.9" cy="198.0" r="3" fill="#3fb950"/><circle cx="523.8" cy="198.0" r="3" fill="#3fb950"/><circle cx="526.7" cy="198.0" r="3" fill="#3fb950"/><circle cx="529.6" cy="198.0" r="3" fill="#3fb950"/><circle cx="532.6" cy="198.0" r="3" fill="#3fb950"/><circle cx="535.5" cy="198.0" r="3" fill="#3fb950"/><circle cx="538.4" cy="198.0" r="3" fill="#3fb950"/><circle cx="541.3" cy="198.0" r="3" fill="#3fb950"/><circle cx="544.2" cy="198.0" r="3" fill="#3fb950"/><circle cx="547.2" cy="198.0" r="3" fill="#3fb950"/><circle cx="550.1" cy="198.0" r="3" fill="#3fb950"/><circle cx="553.0" cy="198.0" r="3" fill="#3fb950"/><circle cx="555.9" cy="198.0" r="3" fill="#3fb950"/><circle cx="558.8" cy="198.0" r="3" fill="#3fb950"/><circle cx="561.8" cy="198.0" r="3" fill="#3fb950"/><circle cx="564.7" cy="198.0" r="3" fill="#3fb950"/><circle cx="567.6" cy="198.0" r="3" fill="#3fb950"/><circle cx="570.5" cy="198.0" r="3" fill="#3fb950"/><circle cx="573.5" cy="198.0" r="3" fill="#3fb950"/><circle cx="576.4" cy="198.0" r="3" fill="#3fb950"/><circle cx="579.3" cy="198.0" r="3" fill="#3fb950"/><circle cx="582.2" cy="198.0" r="3" fill="#3fb950"/><circle cx="585.1" cy="198.0" r="3" fill="#3fb950"/><circle cx="588.1" cy="198.0" r="3" fill="#3fb950"/><circle cx="591.0" cy="198.0" r="3" fill="#3fb950"/><circle cx="593.9" cy="198.0" r="3" fill="#3fb950"/><circle cx="596.8" cy="198.0" r="3" fill="#3fb950"/><circle cx="599.7" cy="198.0" r="3" fill="#3fb950"/><circle cx="602.7" cy="198.0" r="3" fill="#3fb950"/><circle cx="605.6" cy="198.0" r="3" fill="#3fb950"/><circle cx="608.5" cy="198.0" r="3" fill="#3fb950"/><circle cx="611.4" cy="198.0" r="3" fill="#3fb950"/><circle cx="614.3" cy="198.0" r="3" fill="#3fb950"/><circle cx="617.3" cy="198.0" r="3" fill="#3fb950"/><circle cx="620.2" cy="198.0" r="3" fill="#3fb950"/><circle cx="623.1" cy="198.0" r="3" fill="#3fb950"/><circle cx="626.0" cy="198.0" r="3" fill="#3fb950"/><circle cx="628.9" cy="198.0" r="3" fill="#3fb950"/><circle cx="631.9" cy="198.0" r="3" fill="#3fb950"/><circle cx="634.8" cy="198.0" r="3" fill="#3fb950"/><circle cx="637.7" cy="198.0" r="3" fill="#3fb950"/><circle cx="640.6" cy="198.0" r="3" fill="#3fb950"/><circle cx="643.6" cy="198.0" r="3" fill="#3fb950"/><circle cx="646.5" cy="198.0" r="3" fill="#3fb950"/><circle cx="649.4" cy="198.0" r="3" fill="#3fb950"/><circle cx="652.3" cy="198.0" r="3" fill="#3fb950"/><circle cx="655.2" cy="198.0" r="3" fill="#3fb950"/><circle cx="658.2" cy="198.0" r="3" fill="#3fb950"/><circle cx="661.1" cy="198.0" r="3" fill="#3fb950"/><circle cx="664.0" cy="198.0" r="3" fill="#3fb950"/>
<polyline fill="none" stroke="#4aa3ff" stroke-width="2.5" stroke-linejoin="round" points="36.0,144.3 38.9,144.3 41.8,144.3 44.8,144.3 47.7,144.3 50.6,144.3 53.5,144.3 56.4,144.3 59.4,144.3 62.3,144.3 65.2,144.3 68.1,144.3 71.1,144.3 74.0,144.3 76.9,144.3 79.8,136.2 82.7,132.4 85.7,129.6 88.6,129.6 91.5,121.0 94.4,121.0 97.3,121.0 100.3,114.4 103.2,114.4 106.1,114.4 109.0,111.3 111.9,110.9 114.9,110.9 117.8,110.5 120.7,110.5 123.6,109.9 126.5,108.7 129.5,107.3 132.4,106.9 135.3,106.9 138.2,106.9 141.2,106.9 144.1,106.9 147.0,106.9 149.9,106.9 152.8,106.9 155.8,106.9 158.7,106.9 161.6,113.2 164.5,113.2 167.4,113.2 170.4,113.2 173.3,113.2 176.2,110.7 179.1,105.3 182.0,83.4 185.0,83.4 187.9,85.6 190.8,85.6 193.7,85.6 196.7,85.6 199.6,85.6 202.5,85.8 205.4,85.8 208.3,85.8 211.3,86.0 214.2,86.0 217.1,86.0 220.0,86.0 222.9,86.0 225.9,86.0 228.8,86.0 231.7,86.0 234.6,86.0 237.5,86.0 240.5,86.0 243.4,86.0 246.3,86.0 249.2,86.0 252.1,86.0 255.1,86.0 258.0,86.0 260.9,86.0 263.8,86.0 266.8,86.0 269.7,86.0 272.6,87.0 275.5,87.0 278.4,87.0 281.4,73.7 284.3,73.7 287.2,71.0 290.1,71.0 293.0,70.8 296.0,70.6 298.9,70.6 301.8,70.4 304.7,68.6 307.6,60.5 310.6,59.3 313.5,52.0 316.4,47.3 319.3,40.1 322.3,36.0 325.2,36.0 328.1,36.0 331.0,36.0 333.9,36.0 336.9,36.0 339.8,36.0 342.7,36.0 345.6,36.0 348.5,36.0 351.5,36.0 354.4,36.0 357.3,36.0 360.2,36.0 363.1,36.0 366.1,36.0 369.0,36.0 371.9,36.0 374.8,36.0 377.7,36.0 380.7,36.0 383.6,36.0 386.5,36.0 389.4,36.0 392.4,36.0 395.3,36.0 398.2,36.0 401.1,36.0 404.0,36.0 407.0,36.0 409.9,36.0 412.8,36.0 415.7,36.0 418.6,36.0 421.6,36.0 424.5,36.0 427.4,36.0 430.3,36.0 433.2,36.0 436.2,36.0 439.1,36.0 442.0,36.0 444.9,36.0 447.9,36.0 450.8,36.0 453.7,36.0 456.6,36.0 459.5,36.0 462.5,36.0 465.4,36.0 468.3,36.0 471.2,36.0 474.1,36.0 477.1,36.0 480.0,36.0 482.9,36.0 485.8,36.0 488.7,36.0 491.7,36.0 494.6,36.0 497.5,36.0 500.4,36.0 503.3,36.0 506.3,36.0 509.2,36.0 512.1,36.0 515.0,36.0 518.0,36.0 520.9,36.0 523.8,36.0 526.7,36.0 529.6,36.0 532.6,36.0 535.5,36.0 538.4,36.0 541.3,36.0 544.2,36.0 547.2,36.0 550.1,36.0 553.0,36.0 555.9,36.0 558.8,36.0 561.8,36.0 564.7,36.0 567.6,36.0 570.5,36.0 573.5,36.0 576.4,36.0 579.3,36.0 582.2,36.0 585.1,36.0 588.1,36.0 591.0,36.0 593.9,36.0 596.8,36.0 599.7,36.0 602.7,36.0 605.6,36.0 608.5,36.0 611.4,36.0 614.3,36.0 617.3,36.0 620.2,36.0 623.1,36.0 626.0,36.0 628.9,36.0 631.9,36.0 634.8,36.0 637.7,36.0 640.6,36.0 643.6,36.0 646.5,36.0 649.4,36.0 652.3,36.0 655.2,36.0 658.2,36.0 661.1,36.0 664.0,36.0"/><circle cx="36.0" cy="144.3" r="3" fill="#4aa3ff"/><circle cx="38.9" cy="144.3" r="3" fill="#4aa3ff"/><circle cx="41.8" cy="144.3" r="3" fill="#4aa3ff"/><circle cx="44.8" cy="144.3" r="3" fill="#4aa3ff"/><circle cx="47.7" cy="144.3" r="3" fill="#4aa3ff"/><circle cx="50.6" cy="144.3" r="3" fill="#4aa3ff"/><circle cx="53.5" cy="144.3" r="3" fill="#4aa3ff"/><circle cx="56.4" cy="144.3" r="3" fill="#4aa3ff"/><circle cx="59.4" cy="144.3" r="3" fill="#4aa3ff"/><circle cx="62.3" cy="144.3" r="3" fill="#4aa3ff"/><circle cx="65.2" cy="144.3" r="3" fill="#4aa3ff"/><circle cx="68.1" cy="144.3" r="3" fill="#4aa3ff"/><circle cx="71.1" cy="144.3" r="3" fill="#4aa3ff"/><circle cx="74.0" cy="144.3" r="3" fill="#4aa3ff"/><circle cx="76.9" cy="144.3" r="3" fill="#4aa3ff"/><circle cx="79.8" cy="136.2" r="3" fill="#4aa3ff"/><circle cx="82.7" cy="132.4" r="3" fill="#4aa3ff"/><circle cx="85.7" cy="129.6" r="3" fill="#4aa3ff"/><circle cx="88.6" cy="129.6" r="3" fill="#4aa3ff"/><circle cx="91.5" cy="121.0" r="3" fill="#4aa3ff"/><circle cx="94.4" cy="121.0" r="3" fill="#4aa3ff"/><circle cx="97.3" cy="121.0" r="3" fill="#4aa3ff"/><circle cx="100.3" cy="114.4" r="3" fill="#4aa3ff"/><circle cx="103.2" cy="114.4" r="3" fill="#4aa3ff"/><circle cx="106.1" cy="114.4" r="3" fill="#4aa3ff"/><circle cx="109.0" cy="111.3" r="3" fill="#4aa3ff"/><circle cx="111.9" cy="110.9" r="3" fill="#4aa3ff"/><circle cx="114.9" cy="110.9" r="3" fill="#4aa3ff"/><circle cx="117.8" cy="110.5" r="3" fill="#4aa3ff"/><circle cx="120.7" cy="110.5" r="3" fill="#4aa3ff"/><circle cx="123.6" cy="109.9" r="3" fill="#4aa3ff"/><circle cx="126.5" cy="108.7" r="3" fill="#4aa3ff"/><circle cx="129.5" cy="107.3" r="3" fill="#4aa3ff"/><circle cx="132.4" cy="106.9" r="3" fill="#4aa3ff"/><circle cx="135.3" cy="106.9" r="3" fill="#4aa3ff"/><circle cx="138.2" cy="106.9" r="3" fill="#4aa3ff"/><circle cx="141.2" cy="106.9" r="3" fill="#4aa3ff"/><circle cx="144.1" cy="106.9" r="3" fill="#4aa3ff"/><circle cx="147.0" cy="106.9" r="3" fill="#4aa3ff"/><circle cx="149.9" cy="106.9" r="3" fill="#4aa3ff"/><circle cx="152.8" cy="106.9" r="3" fill="#4aa3ff"/><circle cx="155.8" cy="106.9" r="3" fill="#4aa3ff"/><circle cx="158.7" cy="106.9" r="3" fill="#4aa3ff"/><circle cx="161.6" cy="113.2" r="3" fill="#4aa3ff"/><circle cx="164.5" cy="113.2" r="3" fill="#4aa3ff"/><circle cx="167.4" cy="113.2" r="3" fill="#4aa3ff"/><circle cx="170.4" cy="113.2" r="3" fill="#4aa3ff"/><circle cx="173.3" cy="113.2" r="3" fill="#4aa3ff"/><circle cx="176.2" cy="110.7" r="3" fill="#4aa3ff"/><circle cx="179.1" cy="105.3" r="3" fill="#4aa3ff"/><circle cx="182.0" cy="83.4" r="3" fill="#4aa3ff"/><circle cx="185.0" cy="83.4" r="3" fill="#4aa3ff"/><circle cx="187.9" cy="85.6" r="3" fill="#4aa3ff"/><circle cx="190.8" cy="85.6" r="3" fill="#4aa3ff"/><circle cx="193.7" cy="85.6" r="3" fill="#4aa3ff"/><circle cx="196.7" cy="85.6" r="3" fill="#4aa3ff"/><circle cx="199.6" cy="85.6" r="3" fill="#4aa3ff"/><circle cx="202.5" cy="85.8" r="3" fill="#4aa3ff"/><circle cx="205.4" cy="85.8" r="3" fill="#4aa3ff"/><circle cx="208.3" cy="85.8" r="3" fill="#4aa3ff"/><circle cx="211.3" cy="86.0" r="3" fill="#4aa3ff"/><circle cx="214.2" cy="86.0" r="3" fill="#4aa3ff"/><circle cx="217.1" cy="86.0" r="3" fill="#4aa3ff"/><circle cx="220.0" cy="86.0" r="3" fill="#4aa3ff"/><circle cx="222.9" cy="86.0" r="3" fill="#4aa3ff"/><circle cx="225.9" cy="86.0" r="3" fill="#4aa3ff"/><circle cx="228.8" cy="86.0" r="3" fill="#4aa3ff"/><circle cx="231.7" cy="86.0" r="3" fill="#4aa3ff"/><circle cx="234.6" cy="86.0" r="3" fill="#4aa3ff"/><circle cx="237.5" cy="86.0" r="3" fill="#4aa3ff"/><circle cx="240.5" cy="86.0" r="3" fill="#4aa3ff"/><circle cx="243.4" cy="86.0" r="3" fill="#4aa3ff"/><circle cx="246.3" cy="86.0" r="3" fill="#4aa3ff"/><circle cx="249.2" cy="86.0" r="3" fill="#4aa3ff"/><circle cx="252.1" cy="86.0" r="3" fill="#4aa3ff"/><circle cx="255.1" cy="86.0" r="3" fill="#4aa3ff"/><circle cx="258.0" cy="86.0" r="3" fill="#4aa3ff"/><circle cx="260.9" cy="86.0" r="3" fill="#4aa3ff"/><circle cx="263.8" cy="86.0" r="3" fill="#4aa3ff"/><circle cx="266.8" cy="86.0" r="3" fill="#4aa3ff"/><circle cx="269.7" cy="86.0" r="3" fill="#4aa3ff"/><circle cx="272.6" cy="87.0" r="3" fill="#4aa3ff"/><circle cx="275.5" cy="87.0" r="3" fill="#4aa3ff"/><circle cx="278.4" cy="87.0" r="3" fill="#4aa3ff"/><circle cx="281.4" cy="73.7" r="3" fill="#4aa3ff"/><circle cx="284.3" cy="73.7" r="3" fill="#4aa3ff"/><circle cx="287.2" cy="71.0" r="3" fill="#4aa3ff"/><circle cx="290.1" cy="71.0" r="3" fill="#4aa3ff"/><circle cx="293.0" cy="70.8" r="3" fill="#4aa3ff"/><circle cx="296.0" cy="70.6" r="3" fill="#4aa3ff"/><circle cx="298.9" cy="70.6" r="3" fill="#4aa3ff"/><circle cx="301.8" cy="70.4" r="3" fill="#4aa3ff"/><circle cx="304.7" cy="68.6" r="3" fill="#4aa3ff"/><circle cx="307.6" cy="60.5" r="3" fill="#4aa3ff"/><circle cx="310.6" cy="59.3" r="3" fill="#4aa3ff"/><circle cx="313.5" cy="52.0" r="3" fill="#4aa3ff"/><circle cx="316.4" cy="47.3" r="3" fill="#4aa3ff"/><circle cx="319.3" cy="40.1" r="3" fill="#4aa3ff"/><circle cx="322.3" cy="36.0" r="3" fill="#4aa3ff"/><circle cx="325.2" cy="36.0" r="3" fill="#4aa3ff"/><circle cx="328.1" cy="36.0" r="3" fill="#4aa3ff"/><circle cx="331.0" cy="36.0" r="3" fill="#4aa3ff"/><circle cx="333.9" cy="36.0" r="3" fill="#4aa3ff"/><circle cx="336.9" cy="36.0" r="3" fill="#4aa3ff"/><circle cx="339.8" cy="36.0" r="3" fill="#4aa3ff"/><circle cx="342.7" cy="36.0" r="3" fill="#4aa3ff"/><circle cx="345.6" cy="36.0" r="3" fill="#4aa3ff"/><circle cx="348.5" cy="36.0" r="3" fill="#4aa3ff"/><circle cx="351.5" cy="36.0" r="3" fill="#4aa3ff"/><circle cx="354.4" cy="36.0" r="3" fill="#4aa3ff"/><circle cx="357.3" cy="36.0" r="3" fill="#4aa3ff"/><circle cx="360.2" cy="36.0" r="3" fill="#4aa3ff"/><circle cx="363.1" cy="36.0" r="3" fill="#4aa3ff"/><circle cx="366.1" cy="36.0" r="3" fill="#4aa3ff"/><circle cx="369.0" cy="36.0" r="3" fill="#4aa3ff"/><circle cx="371.9" cy="36.0" r="3" fill="#4aa3ff"/><circle cx="374.8" cy="36.0" r="3" fill="#4aa3ff"/><circle cx="377.7" cy="36.0" r="3" fill="#4aa3ff"/><circle cx="380.7" cy="36.0" r="3" fill="#4aa3ff"/><circle cx="383.6" cy="36.0" r="3" fill="#4aa3ff"/><circle cx="386.5" cy="36.0" r="3" fill="#4aa3ff"/><circle cx="389.4" cy="36.0" r="3" fill="#4aa3ff"/><circle cx="392.4" cy="36.0" r="3" fill="#4aa3ff"/><circle cx="395.3" cy="36.0" r="3" fill="#4aa3ff"/><circle cx="398.2" cy="36.0" r="3" fill="#4aa3ff"/><circle cx="401.1" cy="36.0" r="3" fill="#4aa3ff"/><circle cx="404.0" cy="36.0" r="3" fill="#4aa3ff"/><circle cx="407.0" cy="36.0" r="3" fill="#4aa3ff"/><circle cx="409.9" cy="36.0" r="3" fill="#4aa3ff"/><circle cx="412.8" cy="36.0" r="3" fill="#4aa3ff"/><circle cx="415.7" cy="36.0" r="3" fill="#4aa3ff"/><circle cx="418.6" cy="36.0" r="3" fill="#4aa3ff"/><circle cx="421.6" cy="36.0" r="3" fill="#4aa3ff"/><circle cx="424.5" cy="36.0" r="3" fill="#4aa3ff"/><circle cx="427.4" cy="36.0" r="3" fill="#4aa3ff"/><circle cx="430.3" cy="36.0" r="3" fill="#4aa3ff"/><circle cx="433.2" cy="36.0" r="3" fill="#4aa3ff"/><circle cx="436.2" cy="36.0" r="3" fill="#4aa3ff"/><circle cx="439.1" cy="36.0" r="3" fill="#4aa3ff"/><circle cx="442.0" cy="36.0" r="3" fill="#4aa3ff"/><circle cx="444.9" cy="36.0" r="3" fill="#4aa3ff"/><circle cx="447.9" cy="36.0" r="3" fill="#4aa3ff"/><circle cx="450.8" cy="36.0" r="3" fill="#4aa3ff"/><circle cx="453.7" cy="36.0" r="3" fill="#4aa3ff"/><circle cx="456.6" cy="36.0" r="3" fill="#4aa3ff"/><circle cx="459.5" cy="36.0" r="3" fill="#4aa3ff"/><circle cx="462.5" cy="36.0" r="3" fill="#4aa3ff"/><circle cx="465.4" cy="36.0" r="3" fill="#4aa3ff"/><circle cx="468.3" cy="36.0" r="3" fill="#4aa3ff"/><circle cx="471.2" cy="36.0" r="3" fill="#4aa3ff"/><circle cx="474.1" cy="36.0" r="3" fill="#4aa3ff"/><circle cx="477.1" cy="36.0" r="3" fill="#4aa3ff"/><circle cx="480.0" cy="36.0" r="3" fill="#4aa3ff"/><circle cx="482.9" cy="36.0" r="3" fill="#4aa3ff"/><circle cx="485.8" cy="36.0" r="3" fill="#4aa3ff"/><circle cx="488.7" cy="36.0" r="3" fill="#4aa3ff"/><circle cx="491.7" cy="36.0" r="3" fill="#4aa3ff"/><circle cx="494.6" cy="36.0" r="3" fill="#4aa3ff"/><circle cx="497.5" cy="36.0" r="3" fill="#4aa3ff"/><circle cx="500.4" cy="36.0" r="3" fill="#4aa3ff"/><circle cx="503.3" cy="36.0" r="3" fill="#4aa3ff"/><circle cx="506.3" cy="36.0" r="3" fill="#4aa3ff"/><circle cx="509.2" cy="36.0" r="3" fill="#4aa3ff"/><circle cx="512.1" cy="36.0" r="3" fill="#4aa3ff"/><circle cx="515.0" cy="36.0" r="3" fill="#4aa3ff"/><circle cx="518.0" cy="36.0" r="3" fill="#4aa3ff"/><circle cx="520.9" cy="36.0" r="3" fill="#4aa3ff"/><circle cx="523.8" cy="36.0" r="3" fill="#4aa3ff"/><circle cx="526.7" cy="36.0" r="3" fill="#4aa3ff"/><circle cx="529.6" cy="36.0" r="3" fill="#4aa3ff"/><circle cx="532.6" cy="36.0" r="3" fill="#4aa3ff"/><circle cx="535.5" cy="36.0" r="3" fill="#4aa3ff"/><circle cx="538.4" cy="36.0" r="3" fill="#4aa3ff"/><circle cx="541.3" cy="36.0" r="3" fill="#4aa3ff"/><circle cx="544.2" cy="36.0" r="3" fill="#4aa3ff"/><circle cx="547.2" cy="36.0" r="3" fill="#4aa3ff"/><circle cx="550.1" cy="36.0" r="3" fill="#4aa3ff"/><circle cx="553.0" cy="36.0" r="3" fill="#4aa3ff"/><circle cx="555.9" cy="36.0" r="3" fill="#4aa3ff"/><circle cx="558.8" cy="36.0" r="3" fill="#4aa3ff"/><circle cx="561.8" cy="36.0" r="3" fill="#4aa3ff"/><circle cx="564.7" cy="36.0" r="3" fill="#4aa3ff"/><circle cx="567.6" cy="36.0" r="3" fill="#4aa3ff"/><circle cx="570.5" cy="36.0" r="3" fill="#4aa3ff"/><circle cx="573.5" cy="36.0" r="3" fill="#4aa3ff"/><circle cx="576.4" cy="36.0" r="3" fill="#4aa3ff"/><circle cx="579.3" cy="36.0" r="3" fill="#4aa3ff"/><circle cx="582.2" cy="36.0" r="3" fill="#4aa3ff"/><circle cx="585.1" cy="36.0" r="3" fill="#4aa3ff"/><circle cx="588.1" cy="36.0" r="3" fill="#4aa3ff"/><circle cx="591.0" cy="36.0" r="3" fill="#4aa3ff"/><circle cx="593.9" cy="36.0" r="3" fill="#4aa3ff"/><circle cx="596.8" cy="36.0" r="3" fill="#4aa3ff"/><circle cx="599.7" cy="36.0" r="3" fill="#4aa3ff"/><circle cx="602.7" cy="36.0" r="3" fill="#4aa3ff"/><circle cx="605.6" cy="36.0" r="3" fill="#4aa3ff"/><circle cx="608.5" cy="36.0" r="3" fill="#4aa3ff"/><circle cx="611.4" cy="36.0" r="3" fill="#4aa3ff"/><circle cx="614.3" cy="36.0" r="3" fill="#4aa3ff"/><circle cx="617.3" cy="36.0" r="3" fill="#4aa3ff"/><circle cx="620.2" cy="36.0" r="3" fill="#4aa3ff"/><circle cx="623.1" cy="36.0" r="3" fill="#4aa3ff"/><circle cx="626.0" cy="36.0" r="3" fill="#4aa3ff"/><circle cx="628.9" cy="36.0" r="3" fill="#4aa3ff"/><circle cx="631.9" cy="36.0" r="3" fill="#4aa3ff"/><circle cx="634.8" cy="36.0" r="3" fill="#4aa3ff"/><circle cx="637.7" cy="36.0" r="3" fill="#4aa3ff"/><circle cx="640.6" cy="36.0" r="3" fill="#4aa3ff"/><circle cx="643.6" cy="36.0" r="3" fill="#4aa3ff"/><circle cx="646.5" cy="36.0" r="3" fill="#4aa3ff"/><circle cx="649.4" cy="36.0" r="3" fill="#4aa3ff"/><circle cx="652.3" cy="36.0" r="3" fill="#4aa3ff"/><circle cx="655.2" cy="36.0" r="3" fill="#4aa3ff"/><circle cx="658.2" cy="36.0" r="3" fill="#4aa3ff"/><circle cx="661.1" cy="36.0" r="3" fill="#4aa3ff"/><circle cx="664.0" cy="36.0" r="3" fill="#4aa3ff"/>
<text x="36" y="225" fill="#6b7280" font-size="11">2026-06-26</text>
<text x="664" y="225" fill="#6b7280" font-size="11" text-anchor="end">2026-07-18</text>
<text x="36" y="212" font-family="system-ui,sans-serif" font-size="11">
<tspan fill="#4aa3ff">&#9679; open FPs</tspan>  <tspan fill="#3fb950">&#9679; closed (Anthropic acting)</tspan>  <tspan fill="#8a5a5a">&#9679; harness withdrawn</tspan></text>
<text x="664" y="22" text-anchor="end" font-family="system-ui,sans-serif" font-size="12">
<tspan fill="#4aa3ff">open 800</tspan>  <tspan fill="#3fb950">closed 0</tspan>  <tspan fill="#8a5a5a">harness 0</tspan></text>
</svg>