<svg xmlns="http://www.w3.org/2000/svg" width="700" height="234" viewBox="0 0 700 234" role="img">
<rect width="700" height="234" rx="12" fill="#16181d"/>
<text x="36" y="22" fill="#e8eaed" font-family="system-ui,sans-serif" font-size="14" font-weight="700">Is Anthropic acting? cyber/aup false positives over time</text>
<line x1="36" y1="198.0" x2="664" y2="198.0" stroke="#2a2e37" stroke-width="1"/><text x="30" y="202.0" fill="#6b7280" font-size="11" text-anchor="end">0</text><line x1="36" y1="117.0" x2="664" y2="117.0" stroke="#2a2e37" stroke-width="1"/><text x="30" y="121.0" fill="#6b7280" font-size="11" text-anchor="end">400</text><line x1="36" y1="36.0" x2="664" y2="36.0" stroke="#2a2e37" stroke-width="1"/><text x="30" y="40.0" fill="#6b7280" font-size="11" text-anchor="end">800</text>

<polyline fill="none" stroke="#8a5a5a" stroke-width="2.5" stroke-linejoin="round" points="36.0,145.1 41.1,145.1 46.2,145.1 51.3,145.1 56.4,145.1 61.5,145.1 66.6,145.1 71.7,145.1 76.8,145.1 82.0,145.1 87.1,145.1 92.2,145.1 97.3,145.1 102.4,145.1 107.5,145.1 112.6,145.1 117.7,145.1 122.8,145.1 127.9,145.1 133.0,145.1 138.1,145.1 143.2,145.1 148.3,145.1 153.4,145.1 158.5,145.1 163.6,145.1 168.7,145.1 173.9,145.1 179.0,145.1 184.1,145.1 189.2,145.1 194.3,145.1 199.4,145.1 204.5,145.1 209.6,145.1 214.7,145.1 219.8,145.1 224.9,145.1 230.0,145.1 235.1,145.1 240.2,145.1 245.3,145.1 250.4,145.1 255.5,145.1 260.7,145.1 265.8,145.1 270.9,145.1 276.0,145.1 281.1,145.1 286.2,145.1 291.3,155.7 296.4,155.7 301.5,155.7 306.6,155.7 311.7,155.7 316.8,155.7 321.9,155.7 327.0,155.7 332.1,155.7 337.2,155.7 342.3,155.7 347.4,155.7 352.6,155.7 357.7,155.7 362.8,155.7 367.9,155.7 373.0,155.7 378.1,155.7 383.2,155.7 388.3,155.7 393.4,155.7 398.5,155.7 403.6,155.7 408.7,155.7 413.8,155.7 418.9,155.7 424.0,155.7 429.1,155.7 434.2,155.7 439.3,155.7 444.5,155.7 449.6,155.7 454.7,155.7 459.8,155.7 464.9,167.6 470.0,167.6 475.1,170.3 480.2,170.3 485.3,170.5 490.4,170.7 495.5,170.7 500.6,170.9 505.7,172.7 510.8,180.6 515.9,181.8 521.0,189.1 526.1,190.5 531.3,195.2 536.4,198.0 541.5,198.0 546.6,198.0 551.7,198.0 556.8,198.0 561.9,198.0 567.0,198.0 572.1,198.0 577.2,198.0 582.3,198.0 587.4,198.0 592.5,198.0 597.6,198.0 602.7,198.0 607.8,198.0 612.9,198.0 618.0,198.0 623.2,198.0 628.3,198.0 633.4,198.0 638.5,198.0 643.6,198.0 648.7,198.0 653.8,198.0 658.9,198.0 664.0,198.0"/><circle cx="36.0" cy="145.1" r="3" fill="#8a5a5a"/><circle cx="41.1" cy="145.1" r="3" fill="#8a5a5a"/><circle cx="46.2" cy="145.1" r="3" fill="#8a5a5a"/><circle cx="51.3" cy="145.1" r="3" fill="#8a5a5a"/><circle cx="56.4" cy="145.1" r="3" fill="#8a5a5a"/><circle cx="61.5" cy="145.1" r="3" fill="#8a5a5a"/><circle cx="66.6" cy="145.1" r="3" fill="#8a5a5a"/><circle cx="71.7" cy="145.1" r="3" fill="#8a5a5a"/><circle cx="76.8" cy="145.1" r="3" fill="#8a5a5a"/><circle cx="82.0" cy="145.1" r="3" fill="#8a5a5a"/><circle cx="87.1" cy="145.1" r="3" fill="#8a5a5a"/><circle cx="92.2" cy="145.1" r="3" fill="#8a5a5a"/><circle cx="97.3" cy="145.1" r="3" fill="#8a5a5a"/><circle cx="102.4" cy="145.1" r="3" fill="#8a5a5a"/><circle cx="107.5" cy="145.1" r="3" fill="#8a5a5a"/><circle cx="112.6" cy="145.1" r="3" fill="#8a5a5a"/><circle cx="117.7" cy="145.1" r="3" fill="#8a5a5a"/><circle cx="122.8" cy="145.1" r="3" fill="#8a5a5a"/><circle cx="127.9" cy="145.1" r="3" fill="#8a5a5a"/><circle cx="133.0" cy="145.1" r="3" fill="#8a5a5a"/><circle cx="138.1" cy="145.1" r="3" fill="#8a5a5a"/><circle cx="143.2" cy="145.1" r="3" fill="#8a5a5a"/><circle cx="148.3" cy="145.1" r="3" fill="#8a5a5a"/><circle cx="153.4" cy="145.1" r="3" fill="#8a5a5a"/><circle cx="158.5" cy="145.1" r="3" fill="#8a5a5a"/><circle cx="163.6" cy="145.1" r="3" fill="#8a5a5a"/><circle cx="168.7" cy="145.1" r="3" fill="#8a5a5a"/><circle cx="173.9" cy="145.1" r="3" fill="#8a5a5a"/><circle cx="179.0" cy="145.1" r="3" fill="#8a5a5a"/><circle cx="184.1" cy="145.1" r="3" fill="#8a5a5a"/><circle cx="189.2" cy="145.1" r="3" fill="#8a5a5a"/><circle cx="194.3" cy="145.1" r="3" fill="#8a5a5a"/><circle cx="199.4" cy="145.1" r="3" fill="#8a5a5a"/><circle cx="204.5" cy="145.1" r="3" fill="#8a5a5a"/><circle cx="209.6" cy="145.1" r="3" fill="#8a5a5a"/><circle cx="214.7" cy="145.1" r="3" fill="#8a5a5a"/><circle cx="219.8" cy="145.1" r="3" fill="#8a5a5a"/><circle cx="224.9" cy="145.1" r="3" fill="#8a5a5a"/><circle cx="230.0" cy="145.1" r="3" fill="#8a5a5a"/><circle cx="235.1" cy="145.1" r="3" fill="#8a5a5a"/><circle cx="240.2" cy="145.1" r="3" fill="#8a5a5a"/><circle cx="245.3" cy="145.1" r="3" fill="#8a5a5a"/><circle cx="250.4" cy="145.1" r="3" fill="#8a5a5a"/><circle cx="255.5" cy="145.1" r="3" fill="#8a5a5a"/><circle cx="260.7" cy="145.1" r="3" fill="#8a5a5a"/><circle cx="265.8" cy="145.1" r="3" fill="#8a5a5a"/><circle cx="270.9" cy="145.1" r="3" fill="#8a5a5a"/><circle cx="276.0" cy="145.1" r="3" fill="#8a5a5a"/><circle cx="281.1" cy="145.1" r="3" fill="#8a5a5a"/><circle cx="286.2" cy="145.1" r="3" fill="#8a5a5a"/><circle cx="291.3" cy="155.7" r="3" fill="#8a5a5a"/><circle cx="296.4" cy="155.7" r="3" fill="#8a5a5a"/><circle cx="301.5" cy="155.7" r="3" fill="#8a5a5a"/><circle cx="306.6" cy="155.7" r="3" fill="#8a5a5a"/><circle cx="311.7" cy="155.7" r="3" fill="#8a5a5a"/><circle cx="316.8" cy="155.7" r="3" fill="#8a5a5a"/><circle cx="321.9" cy="155.7" r="3" fill="#8a5a5a"/><circle cx="327.0" cy="155.7" r="3" fill="#8a5a5a"/><circle cx="332.1" cy="155.7" r="3" fill="#8a5a5a"/><circle cx="337.2" cy="155.7" r="3" fill="#8a5a5a"/><circle cx="342.3" cy="155.7" r="3" fill="#8a5a5a"/><circle cx="347.4" cy="155.7" r="3" fill="#8a5a5a"/><circle cx="352.6" cy="155.7" r="3" fill="#8a5a5a"/><circle cx="357.7" cy="155.7" r="3" fill="#8a5a5a"/><circle cx="362.8" cy="155.7" r="3" fill="#8a5a5a"/><circle cx="367.9" cy="155.7" r="3" fill="#8a5a5a"/><circle cx="373.0" cy="155.7" r="3" fill="#8a5a5a"/><circle cx="378.1" cy="155.7" r="3" fill="#8a5a5a"/><circle cx="383.2" cy="155.7" r="3" fill="#8a5a5a"/><circle cx="388.3" cy="155.7" r="3" fill="#8a5a5a"/><circle cx="393.4" cy="155.7" r="3" fill="#8a5a5a"/><circle cx="398.5" cy="155.7" r="3" fill="#8a5a5a"/><circle cx="403.6" cy="155.7" r="3" fill="#8a5a5a"/><circle cx="408.7" cy="155.7" r="3" fill="#8a5a5a"/><circle cx="413.8" cy="155.7" r="3" fill="#8a5a5a"/><circle cx="418.9" cy="155.7" r="3" fill="#8a5a5a"/><circle cx="424.0" cy="155.7" r="3" fill="#8a5a5a"/><circle cx="429.1" cy="155.7" r="3" fill="#8a5a5a"/><circle cx="434.2" cy="155.7" r="3" fill="#8a5a5a"/><circle cx="439.3" cy="155.7" r="3" fill="#8a5a5a"/><circle cx="444.5" cy="155.7" r="3" fill="#8a5a5a"/><circle cx="449.6" cy="155.7" r="3" fill="#8a5a5a"/><circle cx="454.7" cy="155.7" r="3" fill="#8a5a5a"/><circle cx="459.8" cy="155.7" r="3" fill="#8a5a5a"/><circle cx="464.9" cy="167.6" r="3" fill="#8a5a5a"/><circle cx="470.0" cy="167.6" r="3" fill="#8a5a5a"/><circle cx="475.1" cy="170.3" r="3" fill="#8a5a5a"/><circle cx="480.2" cy="170.3" r="3" fill="#8a5a5a"/><circle cx="485.3" cy="170.5" r="3" fill="#8a5a5a"/><circle cx="490.4" cy="170.7" r="3" fill="#8a5a5a"/><circle cx="495.5" cy="170.7" r="3" fill="#8a5a5a"/><circle cx="500.6" cy="170.9" r="3" fill="#8a5a5a"/><circle cx="505.7" cy="172.7" r="3" fill="#8a5a5a"/><circle cx="510.8" cy="180.6" r="3" fill="#8a5a5a"/><circle cx="515.9" cy="181.8" r="3" fill="#8a5a5a"/><circle cx="521.0" cy="189.1" r="3" fill="#8a5a5a"/><circle cx="526.1" cy="190.5" r="3" fill="#8a5a5a"/><circle cx="531.3" cy="195.2" r="3" fill="#8a5a5a"/><circle cx="536.4" cy="198.0" r="3" fill="#8a5a5a"/><circle cx="541.5" cy="198.0" r="3" fill="#8a5a5a"/><circle cx="546.6" cy="198.0" r="3" fill="#8a5a5a"/><circle cx="551.7" cy="198.0" r="3" fill="#8a5a5a"/><circle cx="556.8" cy="198.0" r="3" fill="#8a5a5a"/><circle cx="561.9" cy="198.0" r="3" fill="#8a5a5a"/><circle cx="567.0" cy="198.0" r="3" fill="#8a5a5a"/><circle cx="572.1" cy="198.0" r="3" fill="#8a5a5a"/><circle cx="577.2" cy="198.0" r="3" fill="#8a5a5a"/><circle cx="582.3" cy="198.0" r="3" fill="#8a5a5a"/><circle cx="587.4" cy="198.0" r="3" fill="#8a5a5a"/><circle cx="592.5" cy="198.0" r="3" fill="#8a5a5a"/><circle cx="597.6" cy="198.0" r="3" fill="#8a5a5a"/><circle cx="602.7" cy="198.0" r="3" fill="#8a5a5a"/><circle cx="607.8" cy="198.0" r="3" fill="#8a5a5a"/><circle cx="612.9" cy="198.0" r="3" fill="#8a5a5a"/><circle cx="618.0" cy="198.0" r="3" fill="#8a5a5a"/><circle cx="623.2" cy="198.0" r="3" fill="#8a5a5a"/><circle cx="628.3" cy="198.0" r="3" fill="#8a5a5a"/><circle cx="633.4" cy="198.0" r="3" fill="#8a5a5a"/><circle cx="638.5" cy="198.0" r="3" fill="#8a5a5a"/><circle cx="643.6" cy="198.0" r="3" fill="#8a5a5a"/><circle cx="648.7" cy="198.0" r="3" fill="#8a5a5a"/><circle cx="653.8" cy="198.0" r="3" fill="#8a5a5a"/><circle cx="658.9" cy="198.0" r="3" fill="#8a5a5a"/><circle cx="664.0" cy="198.0" r="3" fill="#8a5a5a"/>
<polyline fill="none" stroke="#3fb950" stroke-width="2.5" stroke-linejoin="round" points="36.0,198.0 41.1,198.0 46.2,198.0 51.3,198.0 56.4,198.0 61.5,198.0 66.6,198.0 71.7,198.0 76.8,198.0 82.0,198.0 87.1,198.0 92.2,198.0 97.3,198.0 102.4,198.0 107.5,198.0 112.6,198.0 117.7,198.0 122.8,198.0 127.9,198.0 133.0,198.0 138.1,198.0 143.2,198.0 148.3,198.0 153.4,198.0 158.5,198.0 163.6,198.0 168.7,198.0 173.9,198.0 179.0,198.0 184.1,198.0 189.2,198.0 194.3,198.0 199.4,198.0 204.5,198.0 209.6,198.0 214.7,198.0 219.8,198.0 224.9,198.0 230.0,198.0 235.1,198.0 240.2,198.0 245.3,198.0 250.4,198.0 255.5,191.7 260.7,191.7 265.8,191.7 270.9,191.7 276.0,191.7 281.1,191.7 286.2,191.7 291.3,192.9 296.4,192.9 301.5,190.7 306.6,190.7 311.7,190.7 316.8,190.7 321.9,190.7 327.0,190.5 332.1,190.5 337.2,190.5 342.3,190.3 347.4,190.3 352.6,190.3 357.7,190.3 362.8,190.3 367.9,190.3 373.0,190.3 378.1,190.3 383.2,190.3 388.3,190.3 393.4,190.3 398.5,190.3 403.6,190.3 408.7,190.3 413.8,190.3 418.9,190.3 424.0,190.3 429.1,190.3 434.2,190.3 439.3,190.3 444.5,190.3 449.6,189.3 454.7,189.3 459.8,189.3 464.9,190.7 470.0,190.7 475.1,190.7 480.2,190.7 485.3,190.7 490.4,190.7 495.5,190.7 500.6,190.7 505.7,190.7 510.8,190.9 515.9,190.9 521.0,190.9 526.1,194.2 531.3,196.8 536.4,198.0 541.5,198.0 546.6,198.0 551.7,198.0 556.8,198.0 561.9,198.0 567.0,198.0 572.1,198.0 577.2,198.0 582.3,198.0 587.4,198.0 592.5,198.0 597.6,198.0 602.7,198.0 607.8,198.0 612.9,198.0 618.0,198.0 623.2,198.0 628.3,198.0 633.4,198.0 638.5,198.0 643.6,198.0 648.7,198.0 653.8,198.0 658.9,198.0 664.0,198.0"/><circle cx="36.0" cy="198.0" r="3" fill="#3fb950"/><circle cx="41.1" cy="198.0" r="3" fill="#3fb950"/><circle cx="46.2" cy="198.0" r="3" fill="#3fb950"/><circle cx="51.3" cy="198.0" r="3" fill="#3fb950"/><circle cx="56.4" cy="198.0" r="3" fill="#3fb950"/><circle cx="61.5" cy="198.0" r="3" fill="#3fb950"/><circle cx="66.6" cy="198.0" r="3" fill="#3fb950"/><circle cx="71.7" cy="198.0" r="3" fill="#3fb950"/><circle cx="76.8" cy="198.0" r="3" fill="#3fb950"/><circle cx="82.0" cy="198.0" r="3" fill="#3fb950"/><circle cx="87.1" cy="198.0" r="3" fill="#3fb950"/><circle cx="92.2" cy="198.0" r="3" fill="#3fb950"/><circle cx="97.3" cy="198.0" r="3" fill="#3fb950"/><circle cx="102.4" cy="198.0" r="3" fill="#3fb950"/><circle cx="107.5" cy="198.0" r="3" fill="#3fb950"/><circle cx="112.6" cy="198.0" r="3" fill="#3fb950"/><circle cx="117.7" cy="198.0" r="3" fill="#3fb950"/><circle cx="122.8" cy="198.0" r="3" fill="#3fb950"/><circle cx="127.9" cy="198.0" r="3" fill="#3fb950"/><circle cx="133.0" cy="198.0" r="3" fill="#3fb950"/><circle cx="138.1" cy="198.0" r="3" fill="#3fb950"/><circle cx="143.2" cy="198.0" r="3" fill="#3fb950"/><circle cx="148.3" cy="198.0" r="3" fill="#3fb950"/><circle cx="153.4" cy="198.0" r="3" fill="#3fb950"/><circle cx="158.5" cy="198.0" r="3" fill="#3fb950"/><circle cx="163.6" cy="198.0" r="3" fill="#3fb950"/><circle cx="168.7" cy="198.0" r="3" fill="#3fb950"/><circle cx="173.9" cy="198.0" r="3" fill="#3fb950"/><circle cx="179.0" cy="198.0" r="3" fill="#3fb950"/><circle cx="184.1" cy="198.0" r="3" fill="#3fb950"/><circle cx="189.2" cy="198.0" r="3" fill="#3fb950"/><circle cx="194.3" cy="198.0" r="3" fill="#3fb950"/><circle cx="199.4" cy="198.0" r="3" fill="#3fb950"/><circle cx="204.5" cy="198.0" r="3" fill="#3fb950"/><circle cx="209.6" cy="198.0" r="3" fill="#3fb950"/><circle cx="214.7" cy="198.0" r="3" fill="#3fb950"/><circle cx="219.8" cy="198.0" r="3" fill="#3fb950"/><circle cx="224.9" cy="198.0" r="3" fill="#3fb950"/><circle cx="230.0" cy="198.0" r="3" fill="#3fb950"/><circle cx="235.1" cy="198.0" r="3" fill="#3fb950"/><circle cx="240.2" cy="198.0" r="3" fill="#3fb950"/><circle cx="245.3" cy="198.0" r="3" fill="#3fb950"/><circle cx="250.4" cy="198.0" r="3" fill="#3fb950"/><circle cx="255.5" cy="191.7" r="3" fill="#3fb950"/><circle cx="260.7" cy="191.7" r="3" fill="#3fb950"/><circle cx="265.8" cy="191.7" r="3" fill="#3fb950"/><circle cx="270.9" cy="191.7" r="3" fill="#3fb950"/><circle cx="276.0" cy="191.7" r="3" fill="#3fb950"/><circle cx="281.1" cy="191.7" r="3" fill="#3fb950"/><circle cx="286.2" cy="191.7" r="3" fill="#3fb950"/><circle cx="291.3" cy="192.9" r="3" fill="#3fb950"/><circle cx="296.4" cy="192.9" r="3" fill="#3fb950"/><circle cx="301.5" cy="190.7" r="3" fill="#3fb950"/><circle cx="306.6" cy="190.7" r="3" fill="#3fb950"/><circle cx="311.7" cy="190.7" r="3" fill="#3fb950"/><circle cx="316.8" cy="190.7" r="3" fill="#3fb950"/><circle cx="321.9" cy="190.7" r="3" fill="#3fb950"/><circle cx="327.0" cy="190.5" r="3" fill="#3fb950"/><circle cx="332.1" cy="190.5" r="3" fill="#3fb950"/><circle cx="337.2" cy="190.5" r="3" fill="#3fb950"/><circle cx="342.3" cy="190.3" r="3" fill="#3fb950"/><circle cx="347.4" cy="190.3" r="3" fill="#3fb950"/><circle cx="352.6" cy="190.3" r="3" fill="#3fb950"/><circle cx="357.7" cy="190.3" r="3" fill="#3fb950"/><circle cx="362.8" cy="190.3" r="3" fill="#3fb950"/><circle cx="367.9" cy="190.3" r="3" fill="#3fb950"/><circle cx="373.0" cy="190.3" r="3" fill="#3fb950"/><circle cx="378.1" cy="190.3" r="3" fill="#3fb950"/><circle cx="383.2" cy="190.3" r="3" fill="#3fb950"/><circle cx="388.3" cy="190.3" r="3" fill="#3fb950"/><circle cx="393.4" cy="190.3" r="3" fill="#3fb950"/><circle cx="398.5" cy="190.3" r="3" fill="#3fb950"/><circle cx="403.6" cy="190.3" r="3" fill="#3fb950"/><circle cx="408.7" cy="190.3" r="3" fill="#3fb950"/><circle cx="413.8" cy="190.3" r="3" fill="#3fb950"/><circle cx="418.9" cy="190.3" r="3" fill="#3fb950"/><circle cx="424.0" cy="190.3" r="3" fill="#3fb950"/><circle cx="429.1" cy="190.3" r="3" fill="#3fb950"/><circle cx="434.2" cy="190.3" r="3" fill="#3fb950"/><circle cx="439.3" cy="190.3" r="3" fill="#3fb950"/><circle cx="444.5" cy="190.3" r="3" fill="#3fb950"/><circle cx="449.6" cy="189.3" r="3" fill="#3fb950"/><circle cx="454.7" cy="189.3" r="3" fill="#3fb950"/><circle cx="459.8" cy="189.3" r="3" fill="#3fb950"/><circle cx="464.9" cy="190.7" r="3" fill="#3fb950"/><circle cx="470.0" cy="190.7" r="3" fill="#3fb950"/><circle cx="475.1" cy="190.7" r="3" fill="#3fb950"/><circle cx="480.2" cy="190.7" r="3" fill="#3fb950"/><circle cx="485.3" cy="190.7" r="3" fill="#3fb950"/><circle cx="490.4" cy="190.7" r="3" fill="#3fb950"/><circle cx="495.5" cy="190.7" r="3" fill="#3fb950"/><circle cx="500.6" cy="190.7" r="3" fill="#3fb950"/><circle cx="505.7" cy="190.7" r="3" fill="#3fb950"/><circle cx="510.8" cy="190.9" r="3" fill="#3fb950"/><circle cx="515.9" cy="190.9" r="3" fill="#3fb950"/><circle cx="521.0" cy="190.9" r="3" fill="#3fb950"/><circle cx="526.1" cy="194.2" r="3" fill="#3fb950"/><circle cx="531.3" cy="196.8" r="3" fill="#3fb950"/><circle cx="536.4" cy="198.0" r="3" fill="#3fb950"/><circle cx="541.5" cy="198.0" r="3" fill="#3fb950"/><circle cx="546.6" cy="198.0" r="3" fill="#3fb950"/><circle cx="551.7" cy="198.0" r="3" fill="#3fb950"/><circle cx="556.8" cy="198.0" r="3" fill="#3fb950"/><circle cx="561.9" cy="198.0" r="3" fill="#3fb950"/><circle cx="567.0" cy="198.0" r="3" fill="#3fb950"/><circle cx="572.1" cy="198.0" r="3" fill="#3fb950"/><circle cx="577.2" cy="198.0" r="3" fill="#3fb950"/><circle cx="582.3" cy="198.0" r="3" fill="#3fb950"/><circle cx="587.4" cy="198.0" r="3" fill="#3fb950"/><circle cx="592.5" cy="198.0" r="3" fill="#3fb950"/><circle cx="597.6" cy="198.0" r="3" fill="#3fb950"/><circle cx="602.7" cy="198.0" r="3" fill="#3fb950"/><circle cx="607.8" cy="198.0" r="3" fill="#3fb950"/><circle cx="612.9" cy="198.0" r="3" fill="#3fb950"/><circle cx="618.0" cy="198.0" r="3" fill="#3fb950"/><circle cx="623.2" cy="198.0" r="3" fill="#3fb950"/><circle cx="628.3" cy="198.0" r="3" fill="#3fb950"/><circle cx="633.4" cy="198.0" r="3" fill="#3fb950"/><circle cx="638.5" cy="198.0" r="3" fill="#3fb950"/><circle cx="643.6" cy="198.0" r="3" fill="#3fb950"/><circle cx="648.7" cy="198.0" r="3" fill="#3fb950"/><circle cx="653.8" cy="198.0" r="3" fill="#3fb950"/><circle cx="658.9" cy="198.0" r="3" fill="#3fb950"/><circle cx="664.0" cy="198.0" r="3" fill="#3fb950"/>
<polyline fill="none" stroke="#4aa3ff" stroke-width="2.5" stroke-linejoin="round" points="36.0,144.3 41.1,144.3 46.2,144.3 51.3,144.3 56.4,144.3 61.5,144.3 66.6,144.3 71.7,144.3 76.8,144.3 82.0,144.3 87.1,144.3 92.2,144.3 97.3,144.3 102.4,144.3 107.5,144.3 112.6,136.2 117.7,132.4 122.8,129.6 127.9,129.6 133.0,121.0 138.1,121.0 143.2,121.0 148.3,114.4 153.4,114.4 158.5,114.4 163.6,111.3 168.7,110.9 173.9,110.9 179.0,110.5 184.1,110.5 189.2,109.9 194.3,108.7 199.4,107.3 204.5,106.9 209.6,106.9 214.7,106.9 219.8,106.9 224.9,106.9 230.0,106.9 235.1,106.9 240.2,106.9 245.3,106.9 250.4,106.9 255.5,113.2 260.7,113.2 265.8,113.2 270.9,113.2 276.0,113.2 281.1,110.7 286.2,105.3 291.3,83.4 296.4,83.4 301.5,85.6 306.6,85.6 311.7,85.6 316.8,85.6 321.9,85.6 327.0,85.8 332.1,85.8 337.2,85.8 342.3,86.0 347.4,86.0 352.6,86.0 357.7,86.0 362.8,86.0 367.9,86.0 373.0,86.0 378.1,86.0 383.2,86.0 388.3,86.0 393.4,86.0 398.5,86.0 403.6,86.0 408.7,86.0 413.8,86.0 418.9,86.0 424.0,86.0 429.1,86.0 434.2,86.0 439.3,86.0 444.5,86.0 449.6,87.0 454.7,87.0 459.8,87.0 464.9,73.7 470.0,73.7 475.1,71.0 480.2,71.0 485.3,70.8 490.4,70.6 495.5,70.6 500.6,70.4 505.7,68.6 510.8,60.5 515.9,59.3 521.0,52.0 526.1,47.3 531.3,40.1 536.4,36.0 541.5,36.0 546.6,36.0 551.7,36.0 556.8,36.0 561.9,36.0 567.0,36.0 572.1,36.0 577.2,36.0 582.3,36.0 587.4,36.0 592.5,36.0 597.6,36.0 602.7,36.0 607.8,36.0 612.9,36.0 618.0,36.0 623.2,36.0 628.3,36.0 633.4,36.0 638.5,36.0 643.6,36.0 648.7,36.0 653.8,36.0 658.9,36.0 664.0,36.0"/><circle cx="36.0" cy="144.3" r="3" fill="#4aa3ff"/><circle cx="41.1" cy="144.3" r="3" fill="#4aa3ff"/><circle cx="46.2" cy="144.3" r="3" fill="#4aa3ff"/><circle cx="51.3" cy="144.3" r="3" fill="#4aa3ff"/><circle cx="56.4" cy="144.3" r="3" fill="#4aa3ff"/><circle cx="61.5" cy="144.3" r="3" fill="#4aa3ff"/><circle cx="66.6" cy="144.3" r="3" fill="#4aa3ff"/><circle cx="71.7" cy="144.3" r="3" fill="#4aa3ff"/><circle cx="76.8" cy="144.3" r="3" fill="#4aa3ff"/><circle cx="82.0" cy="144.3" r="3" fill="#4aa3ff"/><circle cx="87.1" cy="144.3" r="3" fill="#4aa3ff"/><circle cx="92.2" cy="144.3" r="3" fill="#4aa3ff"/><circle cx="97.3" cy="144.3" r="3" fill="#4aa3ff"/><circle cx="102.4" cy="144.3" r="3" fill="#4aa3ff"/><circle cx="107.5" cy="144.3" r="3" fill="#4aa3ff"/><circle cx="112.6" cy="136.2" r="3" fill="#4aa3ff"/><circle cx="117.7" cy="132.4" r="3" fill="#4aa3ff"/><circle cx="122.8" cy="129.6" r="3" fill="#4aa3ff"/><circle cx="127.9" cy="129.6" r="3" fill="#4aa3ff"/><circle cx="133.0" cy="121.0" r="3" fill="#4aa3ff"/><circle cx="138.1" cy="121.0" r="3" fill="#4aa3ff"/><circle cx="143.2" cy="121.0" r="3" fill="#4aa3ff"/><circle cx="148.3" cy="114.4" r="3" fill="#4aa3ff"/><circle cx="153.4" cy="114.4" r="3" fill="#4aa3ff"/><circle cx="158.5" cy="114.4" r="3" fill="#4aa3ff"/><circle cx="163.6" cy="111.3" r="3" fill="#4aa3ff"/><circle cx="168.7" cy="110.9" r="3" fill="#4aa3ff"/><circle cx="173.9" cy="110.9" r="3" fill="#4aa3ff"/><circle cx="179.0" cy="110.5" r="3" fill="#4aa3ff"/><circle cx="184.1" cy="110.5" r="3" fill="#4aa3ff"/><circle cx="189.2" cy="109.9" r="3" fill="#4aa3ff"/><circle cx="194.3" cy="108.7" r="3" fill="#4aa3ff"/><circle cx="199.4" cy="107.3" r="3" fill="#4aa3ff"/><circle cx="204.5" cy="106.9" r="3" fill="#4aa3ff"/><circle cx="209.6" cy="106.9" r="3" fill="#4aa3ff"/><circle cx="214.7" cy="106.9" r="3" fill="#4aa3ff"/><circle cx="219.8" cy="106.9" r="3" fill="#4aa3ff"/><circle cx="224.9" cy="106.9" r="3" fill="#4aa3ff"/><circle cx="230.0" cy="106.9" r="3" fill="#4aa3ff"/><circle cx="235.1" cy="106.9" r="3" fill="#4aa3ff"/><circle cx="240.2" cy="106.9" r="3" fill="#4aa3ff"/><circle cx="245.3" cy="106.9" r="3" fill="#4aa3ff"/><circle cx="250.4" cy="106.9" r="3" fill="#4aa3ff"/><circle cx="255.5" cy="113.2" r="3" fill="#4aa3ff"/><circle cx="260.7" cy="113.2" r="3" fill="#4aa3ff"/><circle cx="265.8" cy="113.2" r="3" fill="#4aa3ff"/><circle cx="270.9" cy="113.2" r="3" fill="#4aa3ff"/><circle cx="276.0" cy="113.2" r="3" fill="#4aa3ff"/><circle cx="281.1" cy="110.7" r="3" fill="#4aa3ff"/><circle cx="286.2" cy="105.3" r="3" fill="#4aa3ff"/><circle cx="291.3" cy="83.4" r="3" fill="#4aa3ff"/><circle cx="296.4" cy="83.4" r="3" fill="#4aa3ff"/><circle cx="301.5" cy="85.6" r="3" fill="#4aa3ff"/><circle cx="306.6" cy="85.6" r="3" fill="#4aa3ff"/><circle cx="311.7" cy="85.6" r="3" fill="#4aa3ff"/><circle cx="316.8" cy="85.6" r="3" fill="#4aa3ff"/><circle cx="321.9" cy="85.6" r="3" fill="#4aa3ff"/><circle cx="327.0" cy="85.8" r="3" fill="#4aa3ff"/><circle cx="332.1" cy="85.8" r="3" fill="#4aa3ff"/><circle cx="337.2" cy="85.8" r="3" fill="#4aa3ff"/><circle cx="342.3" cy="86.0" r="3" fill="#4aa3ff"/><circle cx="347.4" cy="86.0" r="3" fill="#4aa3ff"/><circle cx="352.6" cy="86.0" r="3" fill="#4aa3ff"/><circle cx="357.7" cy="86.0" r="3" fill="#4aa3ff"/><circle cx="362.8" cy="86.0" r="3" fill="#4aa3ff"/><circle cx="367.9" cy="86.0" r="3" fill="#4aa3ff"/><circle cx="373.0" cy="86.0" r="3" fill="#4aa3ff"/><circle cx="378.1" cy="86.0" r="3" fill="#4aa3ff"/><circle cx="383.2" cy="86.0" r="3" fill="#4aa3ff"/><circle cx="388.3" cy="86.0" r="3" fill="#4aa3ff"/><circle cx="393.4" cy="86.0" r="3" fill="#4aa3ff"/><circle cx="398.5" cy="86.0" r="3" fill="#4aa3ff"/><circle cx="403.6" cy="86.0" r="3" fill="#4aa3ff"/><circle cx="408.7" cy="86.0" r="3" fill="#4aa3ff"/><circle cx="413.8" cy="86.0" r="3" fill="#4aa3ff"/><circle cx="418.9" cy="86.0" r="3" fill="#4aa3ff"/><circle cx="424.0" cy="86.0" r="3" fill="#4aa3ff"/><circle cx="429.1" cy="86.0" r="3" fill="#4aa3ff"/><circle cx="434.2" cy="86.0" r="3" fill="#4aa3ff"/><circle cx="439.3" cy="86.0" r="3" fill="#4aa3ff"/><circle cx="444.5" cy="86.0" r="3" fill="#4aa3ff"/><circle cx="449.6" cy="87.0" r="3" fill="#4aa3ff"/><circle cx="454.7" cy="87.0" r="3" fill="#4aa3ff"/><circle cx="459.8" cy="87.0" r="3" fill="#4aa3ff"/><circle cx="464.9" cy="73.7" r="3" fill="#4aa3ff"/><circle cx="470.0" cy="73.7" r="3" fill="#4aa3ff"/><circle cx="475.1" cy="71.0" r="3" fill="#4aa3ff"/><circle cx="480.2" cy="71.0" r="3" fill="#4aa3ff"/><circle cx="485.3" cy="70.8" r="3" fill="#4aa3ff"/><circle cx="490.4" cy="70.6" r="3" fill="#4aa3ff"/><circle cx="495.5" cy="70.6" r="3" fill="#4aa3ff"/><circle cx="500.6" cy="70.4" r="3" fill="#4aa3ff"/><circle cx="505.7" cy="68.6" r="3" fill="#4aa3ff"/><circle cx="510.8" cy="60.5" r="3" fill="#4aa3ff"/><circle cx="515.9" cy="59.3" r="3" fill="#4aa3ff"/><circle cx="521.0" cy="52.0" r="3" fill="#4aa3ff"/><circle cx="526.1" cy="47.3" r="3" fill="#4aa3ff"/><circle cx="531.3" cy="40.1" r="3" fill="#4aa3ff"/><circle cx="536.4" cy="36.0" r="3" fill="#4aa3ff"/><circle cx="541.5" cy="36.0" r="3" fill="#4aa3ff"/><circle cx="546.6" cy="36.0" r="3" fill="#4aa3ff"/><circle cx="551.7" cy="36.0" r="3" fill="#4aa3ff"/><circle cx="556.8" cy="36.0" r="3" fill="#4aa3ff"/><circle cx="561.9" cy="36.0" r="3" fill="#4aa3ff"/><circle cx="567.0" cy="36.0" r="3" fill="#4aa3ff"/><circle cx="572.1" cy="36.0" r="3" fill="#4aa3ff"/><circle cx="577.2" cy="36.0" r="3" fill="#4aa3ff"/><circle cx="582.3" cy="36.0" r="3" fill="#4aa3ff"/><circle cx="587.4" cy="36.0" r="3" fill="#4aa3ff"/><circle cx="592.5" cy="36.0" r="3" fill="#4aa3ff"/><circle cx="597.6" cy="36.0" r="3" fill="#4aa3ff"/><circle cx="602.7" cy="36.0" r="3" fill="#4aa3ff"/><circle cx="607.8" cy="36.0" r="3" fill="#4aa3ff"/><circle cx="612.9" cy="36.0" r="3" fill="#4aa3ff"/><circle cx="618.0" cy="36.0" r="3" fill="#4aa3ff"/><circle cx="623.2" cy="36.0" r="3" fill="#4aa3ff"/><circle cx="628.3" cy="36.0" r="3" fill="#4aa3ff"/><circle cx="633.4" cy="36.0" r="3" fill="#4aa3ff"/><circle cx="638.5" cy="36.0" r="3" fill="#4aa3ff"/><circle cx="643.6" cy="36.0" r="3" fill="#4aa3ff"/><circle cx="648.7" cy="36.0" r="3" fill="#4aa3ff"/><circle cx="653.8" cy="36.0" r="3" fill="#4aa3ff"/><circle cx="658.9" cy="36.0" r="3" fill="#4aa3ff"/><circle cx="664.0" cy="36.0" r="3" fill="#4aa3ff"/>
<text x="36" y="225" fill="#6b7280" font-size="11">2026-06-26</text>
<text x="664" y="225" fill="#6b7280" font-size="11" text-anchor="end">2026-07-10</text>
<text x="36" y="212" font-family="system-ui,sans-serif" font-size="11">
<tspan fill="#4aa3ff">&#9679; open FPs</tspan>  <tspan fill="#3fb950">&#9679; closed (Anthropic acting)</tspan>  <tspan fill="#8a5a5a">&#9679; harness withdrawn</tspan></text>
<text x="664" y="22" text-anchor="end" font-family="system-ui,sans-serif" font-size="12">
<tspan fill="#4aa3ff">open 800</tspan>  <tspan fill="#3fb950">closed 0</tspan>  <tspan fill="#8a5a5a">harness 0</tspan></text>
</svg>