<svg xmlns="http://www.w3.org/2000/svg" width="700" height="234" viewBox="0 0 700 234" role="img">
<rect width="700" height="234" rx="12" fill="#16181d"/>
<text x="36" y="22" fill="#e8eaed" font-family="system-ui,sans-serif" font-size="14" font-weight="700">Is Anthropic acting? cyber/aup false positives over time</text>
<line x1="36" y1="198.0" x2="664" y2="198.0" stroke="#2a2e37" stroke-width="1"/><text x="30" y="202.0" fill="#6b7280" font-size="11" text-anchor="end">0</text><line x1="36" y1="117.0" x2="664" y2="117.0" stroke="#2a2e37" stroke-width="1"/><text x="30" y="121.0" fill="#6b7280" font-size="11" text-anchor="end">400</text><line x1="36" y1="36.0" x2="664" y2="36.0" stroke="#2a2e37" stroke-width="1"/><text x="30" y="40.0" fill="#6b7280" font-size="11" text-anchor="end">800</text>

<polyline fill="none" stroke="#8a5a5a" stroke-width="2.5" stroke-linejoin="round" points="36.0,145.1 39.5,145.1 42.9,145.1 46.4,145.1 49.9,145.1 53.3,145.1 56.8,145.1 60.3,145.1 63.8,145.1 67.2,145.1 70.7,145.1 74.2,145.1 77.6,145.1 81.1,145.1 84.6,145.1 88.0,145.1 91.5,145.1 95.0,145.1 98.5,145.1 101.9,145.1 105.4,145.1 108.9,145.1 112.3,145.1 115.8,145.1 119.3,145.1 122.7,145.1 126.2,145.1 129.7,145.1 133.1,145.1 136.6,145.1 140.1,145.1 143.6,145.1 147.0,145.1 150.5,145.1 154.0,145.1 157.4,145.1 160.9,145.1 164.4,145.1 167.8,145.1 171.3,145.1 174.8,145.1 178.3,145.1 181.7,145.1 185.2,145.1 188.7,145.1 192.1,145.1 195.6,145.1 199.1,145.1 202.5,145.1 206.0,145.1 209.5,155.7 213.0,155.7 216.4,155.7 219.9,155.7 223.4,155.7 226.8,155.7 230.3,155.7 233.8,155.7 237.2,155.7 240.7,155.7 244.2,155.7 247.6,155.7 251.1,155.7 254.6,155.7 258.1,155.7 261.5,155.7 265.0,155.7 268.5,155.7 271.9,155.7 275.4,155.7 278.9,155.7 282.3,155.7 285.8,155.7 289.3,155.7 292.8,155.7 296.2,155.7 299.7,155.7 303.2,155.7 306.6,155.7 310.1,155.7 313.6,155.7 317.0,155.7 320.5,155.7 324.0,155.7 327.4,167.6 330.9,167.6 334.4,170.3 337.9,170.3 341.3,170.5 344.8,170.7 348.3,170.7 351.7,170.9 355.2,172.7 358.7,180.6 362.1,181.8 365.6,189.1 369.1,190.5 372.6,195.2 376.0,198.0 379.5,198.0 383.0,198.0 386.4,198.0 389.9,198.0 393.4,198.0 396.8,198.0 400.3,198.0 403.8,198.0 407.2,198.0 410.7,198.0 414.2,198.0 417.7,198.0 421.1,198.0 424.6,198.0 428.1,198.0 431.5,198.0 435.0,198.0 438.5,198.0 441.9,198.0 445.4,198.0 448.9,198.0 452.4,198.0 455.8,198.0 459.3,198.0 462.8,198.0 466.2,198.0 469.7,198.0 473.2,198.0 476.6,198.0 480.1,198.0 483.6,198.0 487.0,198.0 490.5,198.0 494.0,198.0 497.5,198.0 500.9,198.0 504.4,198.0 507.9,198.0 511.3,198.0 514.8,198.0 518.3,198.0 521.7,198.0 525.2,198.0 528.7,198.0 532.2,198.0 535.6,198.0 539.1,198.0 542.6,198.0 546.0,198.0 549.5,198.0 553.0,198.0 556.4,198.0 559.9,198.0 563.4,198.0 566.9,198.0 570.3,198.0 573.8,198.0 577.3,198.0 580.7,198.0 584.2,198.0 587.7,198.0 591.1,198.0 594.6,198.0 598.1,198.0 601.5,198.0 605.0,198.0 608.5,198.0 612.0,198.0 615.4,198.0 618.9,198.0 622.4,198.0 625.8,198.0 629.3,198.0 632.8,198.0 636.2,198.0 639.7,198.0 643.2,198.0 646.7,198.0 650.1,198.0 653.6,198.0 657.1,198.0 660.5,198.0 664.0,198.0"/><circle cx="36.0" cy="145.1" r="3" fill="#8a5a5a"/><circle cx="39.5" cy="145.1" r="3" fill="#8a5a5a"/><circle cx="42.9" cy="145.1" r="3" fill="#8a5a5a"/><circle cx="46.4" cy="145.1" r="3" fill="#8a5a5a"/><circle cx="49.9" cy="145.1" r="3" fill="#8a5a5a"/><circle cx="53.3" cy="145.1" r="3" fill="#8a5a5a"/><circle cx="56.8" cy="145.1" r="3" fill="#8a5a5a"/><circle cx="60.3" cy="145.1" r="3" fill="#8a5a5a"/><circle cx="63.8" cy="145.1" r="3" fill="#8a5a5a"/><circle cx="67.2" cy="145.1" r="3" fill="#8a5a5a"/><circle cx="70.7" cy="145.1" r="3" fill="#8a5a5a"/><circle cx="74.2" cy="145.1" r="3" fill="#8a5a5a"/><circle cx="77.6" cy="145.1" r="3" fill="#8a5a5a"/><circle cx="81.1" cy="145.1" r="3" fill="#8a5a5a"/><circle cx="84.6" cy="145.1" r="3" fill="#8a5a5a"/><circle cx="88.0" cy="145.1" r="3" fill="#8a5a5a"/><circle cx="91.5" cy="145.1" r="3" fill="#8a5a5a"/><circle cx="95.0" cy="145.1" r="3" fill="#8a5a5a"/><circle cx="98.5" cy="145.1" r="3" fill="#8a5a5a"/><circle cx="101.9" cy="145.1" r="3" fill="#8a5a5a"/><circle cx="105.4" cy="145.1" r="3" fill="#8a5a5a"/><circle cx="108.9" cy="145.1" r="3" fill="#8a5a5a"/><circle cx="112.3" cy="145.1" r="3" fill="#8a5a5a"/><circle cx="115.8" cy="145.1" r="3" fill="#8a5a5a"/><circle cx="119.3" cy="145.1" r="3" fill="#8a5a5a"/><circle cx="122.7" cy="145.1" r="3" fill="#8a5a5a"/><circle cx="126.2" cy="145.1" r="3" fill="#8a5a5a"/><circle cx="129.7" cy="145.1" r="3" fill="#8a5a5a"/><circle cx="133.1" cy="145.1" r="3" fill="#8a5a5a"/><circle cx="136.6" cy="145.1" r="3" fill="#8a5a5a"/><circle cx="140.1" cy="145.1" r="3" fill="#8a5a5a"/><circle cx="143.6" cy="145.1" r="3" fill="#8a5a5a"/><circle cx="147.0" cy="145.1" r="3" fill="#8a5a5a"/><circle cx="150.5" cy="145.1" r="3" fill="#8a5a5a"/><circle cx="154.0" cy="145.1" r="3" fill="#8a5a5a"/><circle cx="157.4" cy="145.1" r="3" fill="#8a5a5a"/><circle cx="160.9" cy="145.1" r="3" fill="#8a5a5a"/><circle cx="164.4" cy="145.1" r="3" fill="#8a5a5a"/><circle cx="167.8" cy="145.1" r="3" fill="#8a5a5a"/><circle cx="171.3" cy="145.1" r="3" fill="#8a5a5a"/><circle cx="174.8" cy="145.1" r="3" fill="#8a5a5a"/><circle cx="178.3" cy="145.1" r="3" fill="#8a5a5a"/><circle cx="181.7" cy="145.1" r="3" fill="#8a5a5a"/><circle cx="185.2" cy="145.1" r="3" fill="#8a5a5a"/><circle cx="188.7" cy="145.1" r="3" fill="#8a5a5a"/><circle cx="192.1" cy="145.1" r="3" fill="#8a5a5a"/><circle cx="195.6" cy="145.1" r="3" fill="#8a5a5a"/><circle cx="199.1" cy="145.1" r="3" fill="#8a5a5a"/><circle cx="202.5" cy="145.1" r="3" fill="#8a5a5a"/><circle cx="206.0" cy="145.1" r="3" fill="#8a5a5a"/><circle cx="209.5" cy="155.7" r="3" fill="#8a5a5a"/><circle cx="213.0" cy="155.7" r="3" fill="#8a5a5a"/><circle cx="216.4" cy="155.7" r="3" fill="#8a5a5a"/><circle cx="219.9" cy="155.7" r="3" fill="#8a5a5a"/><circle cx="223.4" cy="155.7" r="3" fill="#8a5a5a"/><circle cx="226.8" cy="155.7" r="3" fill="#8a5a5a"/><circle cx="230.3" cy="155.7" r="3" fill="#8a5a5a"/><circle cx="233.8" cy="155.7" r="3" fill="#8a5a5a"/><circle cx="237.2" cy="155.7" r="3" fill="#8a5a5a"/><circle cx="240.7" cy="155.7" r="3" fill="#8a5a5a"/><circle cx="244.2" cy="155.7" r="3" fill="#8a5a5a"/><circle cx="247.6" cy="155.7" r="3" fill="#8a5a5a"/><circle cx="251.1" cy="155.7" r="3" fill="#8a5a5a"/><circle cx="254.6" cy="155.7" r="3" fill="#8a5a5a"/><circle cx="258.1" cy="155.7" r="3" fill="#8a5a5a"/><circle cx="261.5" cy="155.7" r="3" fill="#8a5a5a"/><circle cx="265.0" cy="155.7" r="3" fill="#8a5a5a"/><circle cx="268.5" cy="155.7" r="3" fill="#8a5a5a"/><circle cx="271.9" cy="155.7" r="3" fill="#8a5a5a"/><circle cx="275.4" cy="155.7" r="3" fill="#8a5a5a"/><circle cx="278.9" cy="155.7" r="3" fill="#8a5a5a"/><circle cx="282.3" cy="155.7" r="3" fill="#8a5a5a"/><circle cx="285.8" cy="155.7" r="3" fill="#8a5a5a"/><circle cx="289.3" cy="155.7" r="3" fill="#8a5a5a"/><circle cx="292.8" cy="155.7" r="3" fill="#8a5a5a"/><circle cx="296.2" cy="155.7" r="3" fill="#8a5a5a"/><circle cx="299.7" cy="155.7" r="3" fill="#8a5a5a"/><circle cx="303.2" cy="155.7" r="3" fill="#8a5a5a"/><circle cx="306.6" cy="155.7" r="3" fill="#8a5a5a"/><circle cx="310.1" cy="155.7" r="3" fill="#8a5a5a"/><circle cx="313.6" cy="155.7" r="3" fill="#8a5a5a"/><circle cx="317.0" cy="155.7" r="3" fill="#8a5a5a"/><circle cx="320.5" cy="155.7" r="3" fill="#8a5a5a"/><circle cx="324.0" cy="155.7" r="3" fill="#8a5a5a"/><circle cx="327.4" cy="167.6" r="3" fill="#8a5a5a"/><circle cx="330.9" cy="167.6" r="3" fill="#8a5a5a"/><circle cx="334.4" cy="170.3" r="3" fill="#8a5a5a"/><circle cx="337.9" cy="170.3" r="3" fill="#8a5a5a"/><circle cx="341.3" cy="170.5" r="3" fill="#8a5a5a"/><circle cx="344.8" cy="170.7" r="3" fill="#8a5a5a"/><circle cx="348.3" cy="170.7" r="3" fill="#8a5a5a"/><circle cx="351.7" cy="170.9" r="3" fill="#8a5a5a"/><circle cx="355.2" cy="172.7" r="3" fill="#8a5a5a"/><circle cx="358.7" cy="180.6" r="3" fill="#8a5a5a"/><circle cx="362.1" cy="181.8" r="3" fill="#8a5a5a"/><circle cx="365.6" cy="189.1" r="3" fill="#8a5a5a"/><circle cx="369.1" cy="190.5" r="3" fill="#8a5a5a"/><circle cx="372.6" cy="195.2" r="3" fill="#8a5a5a"/><circle cx="376.0" cy="198.0" r="3" fill="#8a5a5a"/><circle cx="379.5" cy="198.0" r="3" fill="#8a5a5a"/><circle cx="383.0" cy="198.0" r="3" fill="#8a5a5a"/><circle cx="386.4" cy="198.0" r="3" fill="#8a5a5a"/><circle cx="389.9" cy="198.0" r="3" fill="#8a5a5a"/><circle cx="393.4" cy="198.0" r="3" fill="#8a5a5a"/><circle cx="396.8" cy="198.0" r="3" fill="#8a5a5a"/><circle cx="400.3" cy="198.0" r="3" fill="#8a5a5a"/><circle cx="403.8" cy="198.0" r="3" fill="#8a5a5a"/><circle cx="407.2" cy="198.0" r="3" fill="#8a5a5a"/><circle cx="410.7" cy="198.0" r="3" fill="#8a5a5a"/><circle cx="414.2" cy="198.0" r="3" fill="#8a5a5a"/><circle cx="417.7" cy="198.0" r="3" fill="#8a5a5a"/><circle cx="421.1" cy="198.0" r="3" fill="#8a5a5a"/><circle cx="424.6" cy="198.0" r="3" fill="#8a5a5a"/><circle cx="428.1" cy="198.0" r="3" fill="#8a5a5a"/><circle cx="431.5" cy="198.0" r="3" fill="#8a5a5a"/><circle cx="435.0" cy="198.0" r="3" fill="#8a5a5a"/><circle cx="438.5" cy="198.0" r="3" fill="#8a5a5a"/><circle cx="441.9" cy="198.0" r="3" fill="#8a5a5a"/><circle cx="445.4" cy="198.0" r="3" fill="#8a5a5a"/><circle cx="448.9" cy="198.0" r="3" fill="#8a5a5a"/><circle cx="452.4" cy="198.0" r="3" fill="#8a5a5a"/><circle cx="455.8" cy="198.0" r="3" fill="#8a5a5a"/><circle cx="459.3" cy="198.0" r="3" fill="#8a5a5a"/><circle cx="462.8" cy="198.0" r="3" fill="#8a5a5a"/><circle cx="466.2" cy="198.0" r="3" fill="#8a5a5a"/><circle cx="469.7" cy="198.0" r="3" fill="#8a5a5a"/><circle cx="473.2" cy="198.0" r="3" fill="#8a5a5a"/><circle cx="476.6" cy="198.0" r="3" fill="#8a5a5a"/><circle cx="480.1" cy="198.0" r="3" fill="#8a5a5a"/><circle cx="483.6" cy="198.0" r="3" fill="#8a5a5a"/><circle cx="487.0" cy="198.0" r="3" fill="#8a5a5a"/><circle cx="490.5" cy="198.0" r="3" fill="#8a5a5a"/><circle cx="494.0" cy="198.0" r="3" fill="#8a5a5a"/><circle cx="497.5" cy="198.0" r="3" fill="#8a5a5a"/><circle cx="500.9" cy="198.0" r="3" fill="#8a5a5a"/><circle cx="504.4" cy="198.0" r="3" fill="#8a5a5a"/><circle cx="507.9" cy="198.0" r="3" fill="#8a5a5a"/><circle cx="511.3" cy="198.0" r="3" fill="#8a5a5a"/><circle cx="514.8" cy="198.0" r="3" fill="#8a5a5a"/><circle cx="518.3" cy="198.0" r="3" fill="#8a5a5a"/><circle cx="521.7" cy="198.0" r="3" fill="#8a5a5a"/><circle cx="525.2" cy="198.0" r="3" fill="#8a5a5a"/><circle cx="528.7" cy="198.0" r="3" fill="#8a5a5a"/><circle cx="532.2" cy="198.0" r="3" fill="#8a5a5a"/><circle cx="535.6" cy="198.0" r="3" fill="#8a5a5a"/><circle cx="539.1" cy="198.0" r="3" fill="#8a5a5a"/><circle cx="542.6" cy="198.0" r="3" fill="#8a5a5a"/><circle cx="546.0" cy="198.0" r="3" fill="#8a5a5a"/><circle cx="549.5" cy="198.0" r="3" fill="#8a5a5a"/><circle cx="553.0" cy="198.0" r="3" fill="#8a5a5a"/><circle cx="556.4" cy="198.0" r="3" fill="#8a5a5a"/><circle cx="559.9" cy="198.0" r="3" fill="#8a5a5a"/><circle cx="563.4" cy="198.0" r="3" fill="#8a5a5a"/><circle cx="566.9" cy="198.0" r="3" fill="#8a5a5a"/><circle cx="570.3" cy="198.0" r="3" fill="#8a5a5a"/><circle cx="573.8" cy="198.0" r="3" fill="#8a5a5a"/><circle cx="577.3" cy="198.0" r="3" fill="#8a5a5a"/><circle cx="580.7" cy="198.0" r="3" fill="#8a5a5a"/><circle cx="584.2" cy="198.0" r="3" fill="#8a5a5a"/><circle cx="587.7" cy="198.0" r="3" fill="#8a5a5a"/><circle cx="591.1" cy="198.0" r="3" fill="#8a5a5a"/><circle cx="594.6" cy="198.0" r="3" fill="#8a5a5a"/><circle cx="598.1" cy="198.0" r="3" fill="#8a5a5a"/><circle cx="601.5" cy="198.0" r="3" fill="#8a5a5a"/><circle cx="605.0" cy="198.0" r="3" fill="#8a5a5a"/><circle cx="608.5" cy="198.0" r="3" fill="#8a5a5a"/><circle cx="612.0" cy="198.0" r="3" fill="#8a5a5a"/><circle cx="615.4" cy="198.0" r="3" fill="#8a5a5a"/><circle cx="618.9" cy="198.0" r="3" fill="#8a5a5a"/><circle cx="622.4" cy="198.0" r="3" fill="#8a5a5a"/><circle cx="625.8" cy="198.0" r="3" fill="#8a5a5a"/><circle cx="629.3" cy="198.0" r="3" fill="#8a5a5a"/><circle cx="632.8" cy="198.0" r="3" fill="#8a5a5a"/><circle cx="636.2" cy="198.0" r="3" fill="#8a5a5a"/><circle cx="639.7" cy="198.0" r="3" fill="#8a5a5a"/><circle cx="643.2" cy="198.0" r="3" fill="#8a5a5a"/><circle cx="646.7" cy="198.0" r="3" fill="#8a5a5a"/><circle cx="650.1" cy="198.0" r="3" fill="#8a5a5a"/><circle cx="653.6" cy="198.0" r="3" fill="#8a5a5a"/><circle cx="657.1" cy="198.0" r="3" fill="#8a5a5a"/><circle cx="660.5" cy="198.0" r="3" fill="#8a5a5a"/><circle cx="664.0" cy="198.0" r="3" fill="#8a5a5a"/>
<polyline fill="none" stroke="#3fb950" stroke-width="2.5" stroke-linejoin="round" points="36.0,198.0 39.5,198.0 42.9,198.0 46.4,198.0 49.9,198.0 53.3,198.0 56.8,198.0 60.3,198.0 63.8,198.0 67.2,198.0 70.7,198.0 74.2,198.0 77.6,198.0 81.1,198.0 84.6,198.0 88.0,198.0 91.5,198.0 95.0,198.0 98.5,198.0 101.9,198.0 105.4,198.0 108.9,198.0 112.3,198.0 115.8,198.0 119.3,198.0 122.7,198.0 126.2,198.0 129.7,198.0 133.1,198.0 136.6,198.0 140.1,198.0 143.6,198.0 147.0,198.0 150.5,198.0 154.0,198.0 157.4,198.0 160.9,198.0 164.4,198.0 167.8,198.0 171.3,198.0 174.8,198.0 178.3,198.0 181.7,198.0 185.2,191.7 188.7,191.7 192.1,191.7 195.6,191.7 199.1,191.7 202.5,191.7 206.0,191.7 209.5,192.9 213.0,192.9 216.4,190.7 219.9,190.7 223.4,190.7 226.8,190.7 230.3,190.7 233.8,190.5 237.2,190.5 240.7,190.5 244.2,190.3 247.6,190.3 251.1,190.3 254.6,190.3 258.1,190.3 261.5,190.3 265.0,190.3 268.5,190.3 271.9,190.3 275.4,190.3 278.9,190.3 282.3,190.3 285.8,190.3 289.3,190.3 292.8,190.3 296.2,190.3 299.7,190.3 303.2,190.3 306.6,190.3 310.1,190.3 313.6,190.3 317.0,189.3 320.5,189.3 324.0,189.3 327.4,190.7 330.9,190.7 334.4,190.7 337.9,190.7 341.3,190.7 344.8,190.7 348.3,190.7 351.7,190.7 355.2,190.7 358.7,190.9 362.1,190.9 365.6,190.9 369.1,194.2 372.6,196.8 376.0,198.0 379.5,198.0 383.0,198.0 386.4,198.0 389.9,198.0 393.4,198.0 396.8,198.0 400.3,198.0 403.8,198.0 407.2,198.0 410.7,198.0 414.2,198.0 417.7,198.0 421.1,198.0 424.6,198.0 428.1,198.0 431.5,198.0 435.0,198.0 438.5,198.0 441.9,198.0 445.4,198.0 448.9,198.0 452.4,198.0 455.8,198.0 459.3,198.0 462.8,198.0 466.2,198.0 469.7,198.0 473.2,198.0 476.6,198.0 480.1,198.0 483.6,198.0 487.0,198.0 490.5,198.0 494.0,198.0 497.5,198.0 500.9,198.0 504.4,198.0 507.9,198.0 511.3,198.0 514.8,198.0 518.3,198.0 521.7,198.0 525.2,198.0 528.7,198.0 532.2,198.0 535.6,198.0 539.1,198.0 542.6,198.0 546.0,198.0 549.5,198.0 553.0,198.0 556.4,198.0 559.9,198.0 563.4,198.0 566.9,198.0 570.3,198.0 573.8,198.0 577.3,198.0 580.7,198.0 584.2,198.0 587.7,198.0 591.1,198.0 594.6,198.0 598.1,198.0 601.5,198.0 605.0,198.0 608.5,198.0 612.0,198.0 615.4,198.0 618.9,198.0 622.4,198.0 625.8,198.0 629.3,198.0 632.8,198.0 636.2,198.0 639.7,198.0 643.2,198.0 646.7,198.0 650.1,198.0 653.6,198.0 657.1,198.0 660.5,198.0 664.0,198.0"/><circle cx="36.0" cy="198.0" r="3" fill="#3fb950"/><circle cx="39.5" cy="198.0" r="3" fill="#3fb950"/><circle cx="42.9" cy="198.0" r="3" fill="#3fb950"/><circle cx="46.4" cy="198.0" r="3" fill="#3fb950"/><circle cx="49.9" cy="198.0" r="3" fill="#3fb950"/><circle cx="53.3" cy="198.0" r="3" fill="#3fb950"/><circle cx="56.8" cy="198.0" r="3" fill="#3fb950"/><circle cx="60.3" cy="198.0" r="3" fill="#3fb950"/><circle cx="63.8" cy="198.0" r="3" fill="#3fb950"/><circle cx="67.2" cy="198.0" r="3" fill="#3fb950"/><circle cx="70.7" cy="198.0" r="3" fill="#3fb950"/><circle cx="74.2" cy="198.0" r="3" fill="#3fb950"/><circle cx="77.6" cy="198.0" r="3" fill="#3fb950"/><circle cx="81.1" cy="198.0" r="3" fill="#3fb950"/><circle cx="84.6" cy="198.0" r="3" fill="#3fb950"/><circle cx="88.0" cy="198.0" r="3" fill="#3fb950"/><circle cx="91.5" cy="198.0" r="3" fill="#3fb950"/><circle cx="95.0" cy="198.0" r="3" fill="#3fb950"/><circle cx="98.5" cy="198.0" r="3" fill="#3fb950"/><circle cx="101.9" cy="198.0" r="3" fill="#3fb950"/><circle cx="105.4" cy="198.0" r="3" fill="#3fb950"/><circle cx="108.9" cy="198.0" r="3" fill="#3fb950"/><circle cx="112.3" cy="198.0" r="3" fill="#3fb950"/><circle cx="115.8" cy="198.0" r="3" fill="#3fb950"/><circle cx="119.3" cy="198.0" r="3" fill="#3fb950"/><circle cx="122.7" cy="198.0" r="3" fill="#3fb950"/><circle cx="126.2" cy="198.0" r="3" fill="#3fb950"/><circle cx="129.7" cy="198.0" r="3" fill="#3fb950"/><circle cx="133.1" cy="198.0" r="3" fill="#3fb950"/><circle cx="136.6" cy="198.0" r="3" fill="#3fb950"/><circle cx="140.1" cy="198.0" r="3" fill="#3fb950"/><circle cx="143.6" cy="198.0" r="3" fill="#3fb950"/><circle cx="147.0" cy="198.0" r="3" fill="#3fb950"/><circle cx="150.5" cy="198.0" r="3" fill="#3fb950"/><circle cx="154.0" cy="198.0" r="3" fill="#3fb950"/><circle cx="157.4" cy="198.0" r="3" fill="#3fb950"/><circle cx="160.9" cy="198.0" r="3" fill="#3fb950"/><circle cx="164.4" cy="198.0" r="3" fill="#3fb950"/><circle cx="167.8" cy="198.0" r="3" fill="#3fb950"/><circle cx="171.3" cy="198.0" r="3" fill="#3fb950"/><circle cx="174.8" cy="198.0" r="3" fill="#3fb950"/><circle cx="178.3" cy="198.0" r="3" fill="#3fb950"/><circle cx="181.7" cy="198.0" r="3" fill="#3fb950"/><circle cx="185.2" cy="191.7" r="3" fill="#3fb950"/><circle cx="188.7" cy="191.7" r="3" fill="#3fb950"/><circle cx="192.1" cy="191.7" r="3" fill="#3fb950"/><circle cx="195.6" cy="191.7" r="3" fill="#3fb950"/><circle cx="199.1" cy="191.7" r="3" fill="#3fb950"/><circle cx="202.5" cy="191.7" r="3" fill="#3fb950"/><circle cx="206.0" cy="191.7" r="3" fill="#3fb950"/><circle cx="209.5" cy="192.9" r="3" fill="#3fb950"/><circle cx="213.0" cy="192.9" r="3" fill="#3fb950"/><circle cx="216.4" cy="190.7" r="3" fill="#3fb950"/><circle cx="219.9" cy="190.7" r="3" fill="#3fb950"/><circle cx="223.4" cy="190.7" r="3" fill="#3fb950"/><circle cx="226.8" cy="190.7" r="3" fill="#3fb950"/><circle cx="230.3" cy="190.7" r="3" fill="#3fb950"/><circle cx="233.8" cy="190.5" r="3" fill="#3fb950"/><circle cx="237.2" cy="190.5" r="3" fill="#3fb950"/><circle cx="240.7" cy="190.5" r="3" fill="#3fb950"/><circle cx="244.2" cy="190.3" r="3" fill="#3fb950"/><circle cx="247.6" cy="190.3" r="3" fill="#3fb950"/><circle cx="251.1" cy="190.3" r="3" fill="#3fb950"/><circle cx="254.6" cy="190.3" r="3" fill="#3fb950"/><circle cx="258.1" cy="190.3" r="3" fill="#3fb950"/><circle cx="261.5" cy="190.3" r="3" fill="#3fb950"/><circle cx="265.0" cy="190.3" r="3" fill="#3fb950"/><circle cx="268.5" cy="190.3" r="3" fill="#3fb950"/><circle cx="271.9" cy="190.3" r="3" fill="#3fb950"/><circle cx="275.4" cy="190.3" r="3" fill="#3fb950"/><circle cx="278.9" cy="190.3" r="3" fill="#3fb950"/><circle cx="282.3" cy="190.3" r="3" fill="#3fb950"/><circle cx="285.8" cy="190.3" r="3" fill="#3fb950"/><circle cx="289.3" cy="190.3" r="3" fill="#3fb950"/><circle cx="292.8" cy="190.3" r="3" fill="#3fb950"/><circle cx="296.2" cy="190.3" r="3" fill="#3fb950"/><circle cx="299.7" cy="190.3" r="3" fill="#3fb950"/><circle cx="303.2" cy="190.3" r="3" fill="#3fb950"/><circle cx="306.6" cy="190.3" r="3" fill="#3fb950"/><circle cx="310.1" cy="190.3" r="3" fill="#3fb950"/><circle cx="313.6" cy="190.3" r="3" fill="#3fb950"/><circle cx="317.0" cy="189.3" r="3" fill="#3fb950"/><circle cx="320.5" cy="189.3" r="3" fill="#3fb950"/><circle cx="324.0" cy="189.3" r="3" fill="#3fb950"/><circle cx="327.4" cy="190.7" r="3" fill="#3fb950"/><circle cx="330.9" cy="190.7" r="3" fill="#3fb950"/><circle cx="334.4" cy="190.7" r="3" fill="#3fb950"/><circle cx="337.9" cy="190.7" r="3" fill="#3fb950"/><circle cx="341.3" cy="190.7" r="3" fill="#3fb950"/><circle cx="344.8" cy="190.7" r="3" fill="#3fb950"/><circle cx="348.3" cy="190.7" r="3" fill="#3fb950"/><circle cx="351.7" cy="190.7" r="3" fill="#3fb950"/><circle cx="355.2" cy="190.7" r="3" fill="#3fb950"/><circle cx="358.7" cy="190.9" r="3" fill="#3fb950"/><circle cx="362.1" cy="190.9" r="3" fill="#3fb950"/><circle cx="365.6" cy="190.9" r="3" fill="#3fb950"/><circle cx="369.1" cy="194.2" r="3" fill="#3fb950"/><circle cx="372.6" cy="196.8" r="3" fill="#3fb950"/><circle cx="376.0" cy="198.0" r="3" fill="#3fb950"/><circle cx="379.5" cy="198.0" r="3" fill="#3fb950"/><circle cx="383.0" cy="198.0" r="3" fill="#3fb950"/><circle cx="386.4" cy="198.0" r="3" fill="#3fb950"/><circle cx="389.9" cy="198.0" r="3" fill="#3fb950"/><circle cx="393.4" cy="198.0" r="3" fill="#3fb950"/><circle cx="396.8" cy="198.0" r="3" fill="#3fb950"/><circle cx="400.3" cy="198.0" r="3" fill="#3fb950"/><circle cx="403.8" cy="198.0" r="3" fill="#3fb950"/><circle cx="407.2" cy="198.0" r="3" fill="#3fb950"/><circle cx="410.7" cy="198.0" r="3" fill="#3fb950"/><circle cx="414.2" cy="198.0" r="3" fill="#3fb950"/><circle cx="417.7" cy="198.0" r="3" fill="#3fb950"/><circle cx="421.1" cy="198.0" r="3" fill="#3fb950"/><circle cx="424.6" cy="198.0" r="3" fill="#3fb950"/><circle cx="428.1" cy="198.0" r="3" fill="#3fb950"/><circle cx="431.5" cy="198.0" r="3" fill="#3fb950"/><circle cx="435.0" cy="198.0" r="3" fill="#3fb950"/><circle cx="438.5" cy="198.0" r="3" fill="#3fb950"/><circle cx="441.9" cy="198.0" r="3" fill="#3fb950"/><circle cx="445.4" cy="198.0" r="3" fill="#3fb950"/><circle cx="448.9" cy="198.0" r="3" fill="#3fb950"/><circle cx="452.4" cy="198.0" r="3" fill="#3fb950"/><circle cx="455.8" cy="198.0" r="3" fill="#3fb950"/><circle cx="459.3" cy="198.0" r="3" fill="#3fb950"/><circle cx="462.8" cy="198.0" r="3" fill="#3fb950"/><circle cx="466.2" cy="198.0" r="3" fill="#3fb950"/><circle cx="469.7" cy="198.0" r="3" fill="#3fb950"/><circle cx="473.2" cy="198.0" r="3" fill="#3fb950"/><circle cx="476.6" cy="198.0" r="3" fill="#3fb950"/><circle cx="480.1" cy="198.0" r="3" fill="#3fb950"/><circle cx="483.6" cy="198.0" r="3" fill="#3fb950"/><circle cx="487.0" cy="198.0" r="3" fill="#3fb950"/><circle cx="490.5" cy="198.0" r="3" fill="#3fb950"/><circle cx="494.0" cy="198.0" r="3" fill="#3fb950"/><circle cx="497.5" cy="198.0" r="3" fill="#3fb950"/><circle cx="500.9" cy="198.0" r="3" fill="#3fb950"/><circle cx="504.4" cy="198.0" r="3" fill="#3fb950"/><circle cx="507.9" cy="198.0" r="3" fill="#3fb950"/><circle cx="511.3" cy="198.0" r="3" fill="#3fb950"/><circle cx="514.8" cy="198.0" r="3" fill="#3fb950"/><circle cx="518.3" cy="198.0" r="3" fill="#3fb950"/><circle cx="521.7" cy="198.0" r="3" fill="#3fb950"/><circle cx="525.2" cy="198.0" r="3" fill="#3fb950"/><circle cx="528.7" cy="198.0" r="3" fill="#3fb950"/><circle cx="532.2" cy="198.0" r="3" fill="#3fb950"/><circle cx="535.6" cy="198.0" r="3" fill="#3fb950"/><circle cx="539.1" cy="198.0" r="3" fill="#3fb950"/><circle cx="542.6" cy="198.0" r="3" fill="#3fb950"/><circle cx="546.0" cy="198.0" r="3" fill="#3fb950"/><circle cx="549.5" cy="198.0" r="3" fill="#3fb950"/><circle cx="553.0" cy="198.0" r="3" fill="#3fb950"/><circle cx="556.4" cy="198.0" r="3" fill="#3fb950"/><circle cx="559.9" cy="198.0" r="3" fill="#3fb950"/><circle cx="563.4" cy="198.0" r="3" fill="#3fb950"/><circle cx="566.9" cy="198.0" r="3" fill="#3fb950"/><circle cx="570.3" cy="198.0" r="3" fill="#3fb950"/><circle cx="573.8" cy="198.0" r="3" fill="#3fb950"/><circle cx="577.3" cy="198.0" r="3" fill="#3fb950"/><circle cx="580.7" cy="198.0" r="3" fill="#3fb950"/><circle cx="584.2" cy="198.0" r="3" fill="#3fb950"/><circle cx="587.7" cy="198.0" r="3" fill="#3fb950"/><circle cx="591.1" cy="198.0" r="3" fill="#3fb950"/><circle cx="594.6" cy="198.0" r="3" fill="#3fb950"/><circle cx="598.1" cy="198.0" r="3" fill="#3fb950"/><circle cx="601.5" cy="198.0" r="3" fill="#3fb950"/><circle cx="605.0" cy="198.0" r="3" fill="#3fb950"/><circle cx="608.5" cy="198.0" r="3" fill="#3fb950"/><circle cx="612.0" cy="198.0" r="3" fill="#3fb950"/><circle cx="615.4" cy="198.0" r="3" fill="#3fb950"/><circle cx="618.9" cy="198.0" r="3" fill="#3fb950"/><circle cx="622.4" cy="198.0" r="3" fill="#3fb950"/><circle cx="625.8" cy="198.0" r="3" fill="#3fb950"/><circle cx="629.3" cy="198.0" r="3" fill="#3fb950"/><circle cx="632.8" cy="198.0" r="3" fill="#3fb950"/><circle cx="636.2" cy="198.0" r="3" fill="#3fb950"/><circle cx="639.7" cy="198.0" r="3" fill="#3fb950"/><circle cx="643.2" cy="198.0" r="3" fill="#3fb950"/><circle cx="646.7" cy="198.0" r="3" fill="#3fb950"/><circle cx="650.1" cy="198.0" r="3" fill="#3fb950"/><circle cx="653.6" cy="198.0" r="3" fill="#3fb950"/><circle cx="657.1" cy="198.0" r="3" fill="#3fb950"/><circle cx="660.5" cy="198.0" r="3" fill="#3fb950"/><circle cx="664.0" cy="198.0" r="3" fill="#3fb950"/>
<polyline fill="none" stroke="#4aa3ff" stroke-width="2.5" stroke-linejoin="round" points="36.0,144.3 39.5,144.3 42.9,144.3 46.4,144.3 49.9,144.3 53.3,144.3 56.8,144.3 60.3,144.3 63.8,144.3 67.2,144.3 70.7,144.3 74.2,144.3 77.6,144.3 81.1,144.3 84.6,144.3 88.0,136.2 91.5,132.4 95.0,129.6 98.5,129.6 101.9,121.0 105.4,121.0 108.9,121.0 112.3,114.4 115.8,114.4 119.3,114.4 122.7,111.3 126.2,110.9 129.7,110.9 133.1,110.5 136.6,110.5 140.1,109.9 143.6,108.7 147.0,107.3 150.5,106.9 154.0,106.9 157.4,106.9 160.9,106.9 164.4,106.9 167.8,106.9 171.3,106.9 174.8,106.9 178.3,106.9 181.7,106.9 185.2,113.2 188.7,113.2 192.1,113.2 195.6,113.2 199.1,113.2 202.5,110.7 206.0,105.3 209.5,83.4 213.0,83.4 216.4,85.6 219.9,85.6 223.4,85.6 226.8,85.6 230.3,85.6 233.8,85.8 237.2,85.8 240.7,85.8 244.2,86.0 247.6,86.0 251.1,86.0 254.6,86.0 258.1,86.0 261.5,86.0 265.0,86.0 268.5,86.0 271.9,86.0 275.4,86.0 278.9,86.0 282.3,86.0 285.8,86.0 289.3,86.0 292.8,86.0 296.2,86.0 299.7,86.0 303.2,86.0 306.6,86.0 310.1,86.0 313.6,86.0 317.0,87.0 320.5,87.0 324.0,87.0 327.4,73.7 330.9,73.7 334.4,71.0 337.9,71.0 341.3,70.8 344.8,70.6 348.3,70.6 351.7,70.4 355.2,68.6 358.7,60.5 362.1,59.3 365.6,52.0 369.1,47.3 372.6,40.1 376.0,36.0 379.5,36.0 383.0,36.0 386.4,36.0 389.9,36.0 393.4,36.0 396.8,36.0 400.3,36.0 403.8,36.0 407.2,36.0 410.7,36.0 414.2,36.0 417.7,36.0 421.1,36.0 424.6,36.0 428.1,36.0 431.5,36.0 435.0,36.0 438.5,36.0 441.9,36.0 445.4,36.0 448.9,36.0 452.4,36.0 455.8,36.0 459.3,36.0 462.8,36.0 466.2,36.0 469.7,36.0 473.2,36.0 476.6,36.0 480.1,36.0 483.6,36.0 487.0,36.0 490.5,36.0 494.0,36.0 497.5,36.0 500.9,36.0 504.4,36.0 507.9,36.0 511.3,36.0 514.8,36.0 518.3,36.0 521.7,36.0 525.2,36.0 528.7,36.0 532.2,36.0 535.6,36.0 539.1,36.0 542.6,36.0 546.0,36.0 549.5,36.0 553.0,36.0 556.4,36.0 559.9,36.0 563.4,36.0 566.9,36.0 570.3,36.0 573.8,36.0 577.3,36.0 580.7,36.0 584.2,36.0 587.7,36.0 591.1,36.0 594.6,36.0 598.1,36.0 601.5,36.0 605.0,36.0 608.5,36.0 612.0,36.0 615.4,36.0 618.9,36.0 622.4,36.0 625.8,36.0 629.3,36.0 632.8,36.0 636.2,36.0 639.7,36.0 643.2,36.0 646.7,36.0 650.1,36.0 653.6,36.0 657.1,36.0 660.5,36.0 664.0,36.0"/><circle cx="36.0" cy="144.3" r="3" fill="#4aa3ff"/><circle cx="39.5" cy="144.3" r="3" fill="#4aa3ff"/><circle cx="42.9" cy="144.3" r="3" fill="#4aa3ff"/><circle cx="46.4" cy="144.3" r="3" fill="#4aa3ff"/><circle cx="49.9" cy="144.3" r="3" fill="#4aa3ff"/><circle cx="53.3" cy="144.3" r="3" fill="#4aa3ff"/><circle cx="56.8" cy="144.3" r="3" fill="#4aa3ff"/><circle cx="60.3" cy="144.3" r="3" fill="#4aa3ff"/><circle cx="63.8" cy="144.3" r="3" fill="#4aa3ff"/><circle cx="67.2" cy="144.3" r="3" fill="#4aa3ff"/><circle cx="70.7" cy="144.3" r="3" fill="#4aa3ff"/><circle cx="74.2" cy="144.3" r="3" fill="#4aa3ff"/><circle cx="77.6" cy="144.3" r="3" fill="#4aa3ff"/><circle cx="81.1" cy="144.3" r="3" fill="#4aa3ff"/><circle cx="84.6" cy="144.3" r="3" fill="#4aa3ff"/><circle cx="88.0" cy="136.2" r="3" fill="#4aa3ff"/><circle cx="91.5" cy="132.4" r="3" fill="#4aa3ff"/><circle cx="95.0" cy="129.6" r="3" fill="#4aa3ff"/><circle cx="98.5" cy="129.6" r="3" fill="#4aa3ff"/><circle cx="101.9" cy="121.0" r="3" fill="#4aa3ff"/><circle cx="105.4" cy="121.0" r="3" fill="#4aa3ff"/><circle cx="108.9" cy="121.0" r="3" fill="#4aa3ff"/><circle cx="112.3" cy="114.4" r="3" fill="#4aa3ff"/><circle cx="115.8" cy="114.4" r="3" fill="#4aa3ff"/><circle cx="119.3" cy="114.4" r="3" fill="#4aa3ff"/><circle cx="122.7" cy="111.3" r="3" fill="#4aa3ff"/><circle cx="126.2" cy="110.9" r="3" fill="#4aa3ff"/><circle cx="129.7" cy="110.9" r="3" fill="#4aa3ff"/><circle cx="133.1" cy="110.5" r="3" fill="#4aa3ff"/><circle cx="136.6" cy="110.5" r="3" fill="#4aa3ff"/><circle cx="140.1" cy="109.9" r="3" fill="#4aa3ff"/><circle cx="143.6" cy="108.7" r="3" fill="#4aa3ff"/><circle cx="147.0" cy="107.3" r="3" fill="#4aa3ff"/><circle cx="150.5" cy="106.9" r="3" fill="#4aa3ff"/><circle cx="154.0" cy="106.9" r="3" fill="#4aa3ff"/><circle cx="157.4" cy="106.9" r="3" fill="#4aa3ff"/><circle cx="160.9" cy="106.9" r="3" fill="#4aa3ff"/><circle cx="164.4" cy="106.9" r="3" fill="#4aa3ff"/><circle cx="167.8" cy="106.9" r="3" fill="#4aa3ff"/><circle cx="171.3" cy="106.9" r="3" fill="#4aa3ff"/><circle cx="174.8" cy="106.9" r="3" fill="#4aa3ff"/><circle cx="178.3" cy="106.9" r="3" fill="#4aa3ff"/><circle cx="181.7" cy="106.9" r="3" fill="#4aa3ff"/><circle cx="185.2" cy="113.2" r="3" fill="#4aa3ff"/><circle cx="188.7" cy="113.2" r="3" fill="#4aa3ff"/><circle cx="192.1" cy="113.2" r="3" fill="#4aa3ff"/><circle cx="195.6" cy="113.2" r="3" fill="#4aa3ff"/><circle cx="199.1" cy="113.2" r="3" fill="#4aa3ff"/><circle cx="202.5" cy="110.7" r="3" fill="#4aa3ff"/><circle cx="206.0" cy="105.3" r="3" fill="#4aa3ff"/><circle cx="209.5" cy="83.4" r="3" fill="#4aa3ff"/><circle cx="213.0" cy="83.4" r="3" fill="#4aa3ff"/><circle cx="216.4" cy="85.6" r="3" fill="#4aa3ff"/><circle cx="219.9" cy="85.6" r="3" fill="#4aa3ff"/><circle cx="223.4" cy="85.6" r="3" fill="#4aa3ff"/><circle cx="226.8" cy="85.6" r="3" fill="#4aa3ff"/><circle cx="230.3" cy="85.6" r="3" fill="#4aa3ff"/><circle cx="233.8" cy="85.8" r="3" fill="#4aa3ff"/><circle cx="237.2" cy="85.8" r="3" fill="#4aa3ff"/><circle cx="240.7" cy="85.8" r="3" fill="#4aa3ff"/><circle cx="244.2" cy="86.0" r="3" fill="#4aa3ff"/><circle cx="247.6" cy="86.0" r="3" fill="#4aa3ff"/><circle cx="251.1" cy="86.0" r="3" fill="#4aa3ff"/><circle cx="254.6" cy="86.0" r="3" fill="#4aa3ff"/><circle cx="258.1" cy="86.0" r="3" fill="#4aa3ff"/><circle cx="261.5" cy="86.0" r="3" fill="#4aa3ff"/><circle cx="265.0" cy="86.0" r="3" fill="#4aa3ff"/><circle cx="268.5" cy="86.0" r="3" fill="#4aa3ff"/><circle cx="271.9" cy="86.0" r="3" fill="#4aa3ff"/><circle cx="275.4" cy="86.0" r="3" fill="#4aa3ff"/><circle cx="278.9" cy="86.0" r="3" fill="#4aa3ff"/><circle cx="282.3" cy="86.0" r="3" fill="#4aa3ff"/><circle cx="285.8" cy="86.0" r="3" fill="#4aa3ff"/><circle cx="289.3" cy="86.0" r="3" fill="#4aa3ff"/><circle cx="292.8" cy="86.0" r="3" fill="#4aa3ff"/><circle cx="296.2" cy="86.0" r="3" fill="#4aa3ff"/><circle cx="299.7" cy="86.0" r="3" fill="#4aa3ff"/><circle cx="303.2" cy="86.0" r="3" fill="#4aa3ff"/><circle cx="306.6" cy="86.0" r="3" fill="#4aa3ff"/><circle cx="310.1" cy="86.0" r="3" fill="#4aa3ff"/><circle cx="313.6" cy="86.0" r="3" fill="#4aa3ff"/><circle cx="317.0" cy="87.0" r="3" fill="#4aa3ff"/><circle cx="320.5" cy="87.0" r="3" fill="#4aa3ff"/><circle cx="324.0" cy="87.0" r="3" fill="#4aa3ff"/><circle cx="327.4" cy="73.7" r="3" fill="#4aa3ff"/><circle cx="330.9" cy="73.7" r="3" fill="#4aa3ff"/><circle cx="334.4" cy="71.0" r="3" fill="#4aa3ff"/><circle cx="337.9" cy="71.0" r="3" fill="#4aa3ff"/><circle cx="341.3" cy="70.8" r="3" fill="#4aa3ff"/><circle cx="344.8" cy="70.6" r="3" fill="#4aa3ff"/><circle cx="348.3" cy="70.6" r="3" fill="#4aa3ff"/><circle cx="351.7" cy="70.4" r="3" fill="#4aa3ff"/><circle cx="355.2" cy="68.6" r="3" fill="#4aa3ff"/><circle cx="358.7" cy="60.5" r="3" fill="#4aa3ff"/><circle cx="362.1" cy="59.3" r="3" fill="#4aa3ff"/><circle cx="365.6" cy="52.0" r="3" fill="#4aa3ff"/><circle cx="369.1" cy="47.3" r="3" fill="#4aa3ff"/><circle cx="372.6" cy="40.1" r="3" fill="#4aa3ff"/><circle cx="376.0" cy="36.0" r="3" fill="#4aa3ff"/><circle cx="379.5" cy="36.0" r="3" fill="#4aa3ff"/><circle cx="383.0" cy="36.0" r="3" fill="#4aa3ff"/><circle cx="386.4" cy="36.0" r="3" fill="#4aa3ff"/><circle cx="389.9" cy="36.0" r="3" fill="#4aa3ff"/><circle cx="393.4" cy="36.0" r="3" fill="#4aa3ff"/><circle cx="396.8" cy="36.0" r="3" fill="#4aa3ff"/><circle cx="400.3" cy="36.0" r="3" fill="#4aa3ff"/><circle cx="403.8" cy="36.0" r="3" fill="#4aa3ff"/><circle cx="407.2" cy="36.0" r="3" fill="#4aa3ff"/><circle cx="410.7" cy="36.0" r="3" fill="#4aa3ff"/><circle cx="414.2" cy="36.0" r="3" fill="#4aa3ff"/><circle cx="417.7" cy="36.0" r="3" fill="#4aa3ff"/><circle cx="421.1" cy="36.0" r="3" fill="#4aa3ff"/><circle cx="424.6" cy="36.0" r="3" fill="#4aa3ff"/><circle cx="428.1" cy="36.0" r="3" fill="#4aa3ff"/><circle cx="431.5" cy="36.0" r="3" fill="#4aa3ff"/><circle cx="435.0" cy="36.0" r="3" fill="#4aa3ff"/><circle cx="438.5" cy="36.0" r="3" fill="#4aa3ff"/><circle cx="441.9" cy="36.0" r="3" fill="#4aa3ff"/><circle cx="445.4" cy="36.0" r="3" fill="#4aa3ff"/><circle cx="448.9" cy="36.0" r="3" fill="#4aa3ff"/><circle cx="452.4" cy="36.0" r="3" fill="#4aa3ff"/><circle cx="455.8" cy="36.0" r="3" fill="#4aa3ff"/><circle cx="459.3" cy="36.0" r="3" fill="#4aa3ff"/><circle cx="462.8" cy="36.0" r="3" fill="#4aa3ff"/><circle cx="466.2" cy="36.0" r="3" fill="#4aa3ff"/><circle cx="469.7" cy="36.0" r="3" fill="#4aa3ff"/><circle cx="473.2" cy="36.0" r="3" fill="#4aa3ff"/><circle cx="476.6" cy="36.0" r="3" fill="#4aa3ff"/><circle cx="480.1" cy="36.0" r="3" fill="#4aa3ff"/><circle cx="483.6" cy="36.0" r="3" fill="#4aa3ff"/><circle cx="487.0" cy="36.0" r="3" fill="#4aa3ff"/><circle cx="490.5" cy="36.0" r="3" fill="#4aa3ff"/><circle cx="494.0" cy="36.0" r="3" fill="#4aa3ff"/><circle cx="497.5" cy="36.0" r="3" fill="#4aa3ff"/><circle cx="500.9" cy="36.0" r="3" fill="#4aa3ff"/><circle cx="504.4" cy="36.0" r="3" fill="#4aa3ff"/><circle cx="507.9" cy="36.0" r="3" fill="#4aa3ff"/><circle cx="511.3" cy="36.0" r="3" fill="#4aa3ff"/><circle cx="514.8" cy="36.0" r="3" fill="#4aa3ff"/><circle cx="518.3" cy="36.0" r="3" fill="#4aa3ff"/><circle cx="521.7" cy="36.0" r="3" fill="#4aa3ff"/><circle cx="525.2" cy="36.0" r="3" fill="#4aa3ff"/><circle cx="528.7" cy="36.0" r="3" fill="#4aa3ff"/><circle cx="532.2" cy="36.0" r="3" fill="#4aa3ff"/><circle cx="535.6" cy="36.0" r="3" fill="#4aa3ff"/><circle cx="539.1" cy="36.0" r="3" fill="#4aa3ff"/><circle cx="542.6" cy="36.0" r="3" fill="#4aa3ff"/><circle cx="546.0" cy="36.0" r="3" fill="#4aa3ff"/><circle cx="549.5" cy="36.0" r="3" fill="#4aa3ff"/><circle cx="553.0" cy="36.0" r="3" fill="#4aa3ff"/><circle cx="556.4" cy="36.0" r="3" fill="#4aa3ff"/><circle cx="559.9" cy="36.0" r="3" fill="#4aa3ff"/><circle cx="563.4" cy="36.0" r="3" fill="#4aa3ff"/><circle cx="566.9" cy="36.0" r="3" fill="#4aa3ff"/><circle cx="570.3" cy="36.0" r="3" fill="#4aa3ff"/><circle cx="573.8" cy="36.0" r="3" fill="#4aa3ff"/><circle cx="577.3" cy="36.0" r="3" fill="#4aa3ff"/><circle cx="580.7" cy="36.0" r="3" fill="#4aa3ff"/><circle cx="584.2" cy="36.0" r="3" fill="#4aa3ff"/><circle cx="587.7" cy="36.0" r="3" fill="#4aa3ff"/><circle cx="591.1" cy="36.0" r="3" fill="#4aa3ff"/><circle cx="594.6" cy="36.0" r="3" fill="#4aa3ff"/><circle cx="598.1" cy="36.0" r="3" fill="#4aa3ff"/><circle cx="601.5" cy="36.0" r="3" fill="#4aa3ff"/><circle cx="605.0" cy="36.0" r="3" fill="#4aa3ff"/><circle cx="608.5" cy="36.0" r="3" fill="#4aa3ff"/><circle cx="612.0" cy="36.0" r="3" fill="#4aa3ff"/><circle cx="615.4" cy="36.0" r="3" fill="#4aa3ff"/><circle cx="618.9" cy="36.0" r="3" fill="#4aa3ff"/><circle cx="622.4" cy="36.0" r="3" fill="#4aa3ff"/><circle cx="625.8" cy="36.0" r="3" fill="#4aa3ff"/><circle cx="629.3" cy="36.0" r="3" fill="#4aa3ff"/><circle cx="632.8" cy="36.0" r="3" fill="#4aa3ff"/><circle cx="636.2" cy="36.0" r="3" fill="#4aa3ff"/><circle cx="639.7" cy="36.0" r="3" fill="#4aa3ff"/><circle cx="643.2" cy="36.0" r="3" fill="#4aa3ff"/><circle cx="646.7" cy="36.0" r="3" fill="#4aa3ff"/><circle cx="650.1" cy="36.0" r="3" fill="#4aa3ff"/><circle cx="653.6" cy="36.0" r="3" fill="#4aa3ff"/><circle cx="657.1" cy="36.0" r="3" fill="#4aa3ff"/><circle cx="660.5" cy="36.0" r="3" fill="#4aa3ff"/><circle cx="664.0" cy="36.0" r="3" fill="#4aa3ff"/>
<text x="36" y="225" fill="#6b7280" font-size="11">2026-06-26</text>
<text x="664" y="225" fill="#6b7280" font-size="11" text-anchor="end">2026-07-15</text>
<text x="36" y="212" font-family="system-ui,sans-serif" font-size="11">
<tspan fill="#4aa3ff">&#9679; open FPs</tspan>  <tspan fill="#3fb950">&#9679; closed (Anthropic acting)</tspan>  <tspan fill="#8a5a5a">&#9679; harness withdrawn</tspan></text>
<text x="664" y="22" text-anchor="end" font-family="system-ui,sans-serif" font-size="12">
<tspan fill="#4aa3ff">open 800</tspan>  <tspan fill="#3fb950">closed 0</tspan>  <tspan fill="#8a5a5a">harness 0</tspan></text>
</svg>