<svg xmlns="http://www.w3.org/2000/svg" width="700" height="234" viewBox="0 0 700 234" role="img">
<rect width="700" height="234" rx="12" fill="#16181d"/>
<text x="36" y="22" fill="#e8eaed" font-family="system-ui,sans-serif" font-size="14" font-weight="700">Is Anthropic acting? cyber/aup false positives over time</text>
<line x1="36" y1="198.0" x2="664" y2="198.0" stroke="#2a2e37" stroke-width="1"/><text x="30" y="202.0" fill="#6b7280" font-size="11" text-anchor="end">0</text><line x1="36" y1="117.0" x2="664" y2="117.0" stroke="#2a2e37" stroke-width="1"/><text x="30" y="121.0" fill="#6b7280" font-size="11" text-anchor="end">218</text><line x1="36" y1="36.0" x2="664" y2="36.0" stroke="#2a2e37" stroke-width="1"/><text x="30" y="40.0" fill="#6b7280" font-size="11" text-anchor="end">435</text>

<polyline fill="none" stroke="#8a5a5a" stroke-width="2.5" stroke-linejoin="round" points="36.0,100.8 56.9,100.8 77.9,100.8 98.8,100.8 119.7,100.8 140.7,100.8 161.6,100.8 182.5,100.8 203.5,100.8 224.4,100.8 245.3,100.8 266.3,100.8 287.2,100.8 308.1,100.8 329.1,100.8 350.0,100.8 370.9,100.8 391.9,100.8 412.8,100.8 433.7,100.8 454.7,100.8 475.6,100.8 496.5,100.8 517.5,100.8 538.4,100.8 559.3,100.8 580.3,100.8 601.2,100.8 622.1,100.8 643.1,100.8 664.0,100.8"/><circle cx="36.0" cy="100.8" r="3" fill="#8a5a5a"/><circle cx="56.9" cy="100.8" r="3" fill="#8a5a5a"/><circle cx="77.9" cy="100.8" r="3" fill="#8a5a5a"/><circle cx="98.8" cy="100.8" r="3" fill="#8a5a5a"/><circle cx="119.7" cy="100.8" r="3" fill="#8a5a5a"/><circle cx="140.7" cy="100.8" r="3" fill="#8a5a5a"/><circle cx="161.6" cy="100.8" r="3" fill="#8a5a5a"/><circle cx="182.5" cy="100.8" r="3" fill="#8a5a5a"/><circle cx="203.5" cy="100.8" r="3" fill="#8a5a5a"/><circle cx="224.4" cy="100.8" r="3" fill="#8a5a5a"/><circle cx="245.3" cy="100.8" r="3" fill="#8a5a5a"/><circle cx="266.3" cy="100.8" r="3" fill="#8a5a5a"/><circle cx="287.2" cy="100.8" r="3" fill="#8a5a5a"/><circle cx="308.1" cy="100.8" r="3" fill="#8a5a5a"/><circle cx="329.1" cy="100.8" r="3" fill="#8a5a5a"/><circle cx="350.0" cy="100.8" r="3" fill="#8a5a5a"/><circle cx="370.9" cy="100.8" r="3" fill="#8a5a5a"/><circle cx="391.9" cy="100.8" r="3" fill="#8a5a5a"/><circle cx="412.8" cy="100.8" r="3" fill="#8a5a5a"/><circle cx="433.7" cy="100.8" r="3" fill="#8a5a5a"/><circle cx="454.7" cy="100.8" r="3" fill="#8a5a5a"/><circle cx="475.6" cy="100.8" r="3" fill="#8a5a5a"/><circle cx="496.5" cy="100.8" r="3" fill="#8a5a5a"/><circle cx="517.5" cy="100.8" r="3" fill="#8a5a5a"/><circle cx="538.4" cy="100.8" r="3" fill="#8a5a5a"/><circle cx="559.3" cy="100.8" r="3" fill="#8a5a5a"/><circle cx="580.3" cy="100.8" r="3" fill="#8a5a5a"/><circle cx="601.2" cy="100.8" r="3" fill="#8a5a5a"/><circle cx="622.1" cy="100.8" r="3" fill="#8a5a5a"/><circle cx="643.1" cy="100.8" r="3" fill="#8a5a5a"/><circle cx="664.0" cy="100.8" r="3" fill="#8a5a5a"/>
<polyline fill="none" stroke="#3fb950" stroke-width="2.5" stroke-linejoin="round" points="36.0,198.0 56.9,198.0 77.9,198.0 98.8,198.0 119.7,198.0 140.7,198.0 161.6,198.0 182.5,198.0 203.5,198.0 224.4,198.0 245.3,198.0 266.3,198.0 287.2,198.0 308.1,198.0 329.1,198.0 350.0,198.0 370.9,198.0 391.9,198.0 412.8,198.0 433.7,198.0 454.7,198.0 475.6,198.0 496.5,198.0 517.5,198.0 538.4,198.0 559.3,198.0 580.3,198.0 601.2,198.0 622.1,198.0 643.1,198.0 664.0,198.0"/><circle cx="36.0" cy="198.0" r="3" fill="#3fb950"/><circle cx="56.9" cy="198.0" r="3" fill="#3fb950"/><circle cx="77.9" cy="198.0" r="3" fill="#3fb950"/><circle cx="98.8" cy="198.0" r="3" fill="#3fb950"/><circle cx="119.7" cy="198.0" r="3" fill="#3fb950"/><circle cx="140.7" cy="198.0" r="3" fill="#3fb950"/><circle cx="161.6" cy="198.0" r="3" fill="#3fb950"/><circle cx="182.5" cy="198.0" r="3" fill="#3fb950"/><circle cx="203.5" cy="198.0" r="3" fill="#3fb950"/><circle cx="224.4" cy="198.0" r="3" fill="#3fb950"/><circle cx="245.3" cy="198.0" r="3" fill="#3fb950"/><circle cx="266.3" cy="198.0" r="3" fill="#3fb950"/><circle cx="287.2" cy="198.0" r="3" fill="#3fb950"/><circle cx="308.1" cy="198.0" r="3" fill="#3fb950"/><circle cx="329.1" cy="198.0" r="3" fill="#3fb950"/><circle cx="350.0" cy="198.0" r="3" fill="#3fb950"/><circle cx="370.9" cy="198.0" r="3" fill="#3fb950"/><circle cx="391.9" cy="198.0" r="3" fill="#3fb950"/><circle cx="412.8" cy="198.0" r="3" fill="#3fb950"/><circle cx="433.7" cy="198.0" r="3" fill="#3fb950"/><circle cx="454.7" cy="198.0" r="3" fill="#3fb950"/><circle cx="475.6" cy="198.0" r="3" fill="#3fb950"/><circle cx="496.5" cy="198.0" r="3" fill="#3fb950"/><circle cx="517.5" cy="198.0" r="3" fill="#3fb950"/><circle cx="538.4" cy="198.0" r="3" fill="#3fb950"/><circle cx="559.3" cy="198.0" r="3" fill="#3fb950"/><circle cx="580.3" cy="198.0" r="3" fill="#3fb950"/><circle cx="601.2" cy="198.0" r="3" fill="#3fb950"/><circle cx="622.1" cy="198.0" r="3" fill="#3fb950"/><circle cx="643.1" cy="198.0" r="3" fill="#3fb950"/><circle cx="664.0" cy="198.0" r="3" fill="#3fb950"/>
<polyline fill="none" stroke="#4aa3ff" stroke-width="2.5" stroke-linejoin="round" points="36.0,99.3 56.9,99.3 77.9,99.3 98.8,99.3 119.7,99.3 140.7,99.3 161.6,99.3 182.5,99.3 203.5,99.3 224.4,99.3 245.3,99.3 266.3,99.3 287.2,99.3 308.1,99.3 329.1,99.3 350.0,84.4 370.9,77.3 391.9,72.1 412.8,72.1 433.7,56.5 454.7,56.5 475.6,56.5 496.5,44.2 517.5,44.2 538.4,44.2 559.3,38.6 580.3,37.9 601.2,37.9 622.1,37.1 643.1,37.1 664.0,36.0"/><circle cx="36.0" cy="99.3" r="3" fill="#4aa3ff"/><circle cx="56.9" cy="99.3" r="3" fill="#4aa3ff"/><circle cx="77.9" cy="99.3" r="3" fill="#4aa3ff"/><circle cx="98.8" cy="99.3" r="3" fill="#4aa3ff"/><circle cx="119.7" cy="99.3" r="3" fill="#4aa3ff"/><circle cx="140.7" cy="99.3" r="3" fill="#4aa3ff"/><circle cx="161.6" cy="99.3" r="3" fill="#4aa3ff"/><circle cx="182.5" cy="99.3" r="3" fill="#4aa3ff"/><circle cx="203.5" cy="99.3" r="3" fill="#4aa3ff"/><circle cx="224.4" cy="99.3" r="3" fill="#4aa3ff"/><circle cx="245.3" cy="99.3" r="3" fill="#4aa3ff"/><circle cx="266.3" cy="99.3" r="3" fill="#4aa3ff"/><circle cx="287.2" cy="99.3" r="3" fill="#4aa3ff"/><circle cx="308.1" cy="99.3" r="3" fill="#4aa3ff"/><circle cx="329.1" cy="99.3" r="3" fill="#4aa3ff"/><circle cx="350.0" cy="84.4" r="3" fill="#4aa3ff"/><circle cx="370.9" cy="77.3" r="3" fill="#4aa3ff"/><circle cx="391.9" cy="72.1" r="3" fill="#4aa3ff"/><circle cx="412.8" cy="72.1" r="3" fill="#4aa3ff"/><circle cx="433.7" cy="56.5" r="3" fill="#4aa3ff"/><circle cx="454.7" cy="56.5" r="3" fill="#4aa3ff"/><circle cx="475.6" cy="56.5" r="3" fill="#4aa3ff"/><circle cx="496.5" cy="44.2" r="3" fill="#4aa3ff"/><circle cx="517.5" cy="44.2" r="3" fill="#4aa3ff"/><circle cx="538.4" cy="44.2" r="3" fill="#4aa3ff"/><circle cx="559.3" cy="38.6" r="3" fill="#4aa3ff"/><circle cx="580.3" cy="37.9" r="3" fill="#4aa3ff"/><circle cx="601.2" cy="37.9" r="3" fill="#4aa3ff"/><circle cx="622.1" cy="37.1" r="3" fill="#4aa3ff"/><circle cx="643.1" cy="37.1" r="3" fill="#4aa3ff"/><circle cx="664.0" cy="36.0" r="3" fill="#4aa3ff"/>
<text x="36" y="225" fill="#6b7280" font-size="11">2026-06-26</text>
<text x="664" y="225" fill="#6b7280" font-size="11" text-anchor="end">2026-06-29</text>
<text x="36" y="212" font-family="system-ui,sans-serif" font-size="11">
<tspan fill="#4aa3ff">&#9679; open FPs</tspan>  <tspan fill="#3fb950">&#9679; closed (Anthropic acting)</tspan>  <tspan fill="#8a5a5a">&#9679; harness withdrawn</tspan></text>
<text x="664" y="22" text-anchor="end" font-family="system-ui,sans-serif" font-size="12">
<tspan fill="#4aa3ff">open 435</tspan>  <tspan fill="#3fb950">closed 0</tspan>  <tspan fill="#8a5a5a">harness 261</tspan></text>
</svg>