<svg xmlns="http://www.w3.org/2000/svg" width="700" height="234" viewBox="0 0 700 234" role="img">
<rect width="700" height="234" rx="12" fill="#16181d"/>
<text x="36" y="22" fill="#e8eaed" font-family="system-ui,sans-serif" font-size="14" font-weight="700">Is Anthropic acting? cyber/aup false positives over time</text>
<line x1="36" y1="198.0" x2="664" y2="198.0" stroke="#2a2e37" stroke-width="1"/><text x="30" y="202.0" fill="#6b7280" font-size="11" text-anchor="end">0</text><line x1="36" y1="117.0" x2="664" y2="117.0" stroke="#2a2e37" stroke-width="1"/><text x="30" y="121.0" fill="#6b7280" font-size="11" text-anchor="end">229</text><line x1="36" y1="36.0" x2="664" y2="36.0" stroke="#2a2e37" stroke-width="1"/><text x="30" y="40.0" fill="#6b7280" font-size="11" text-anchor="end">458</text>

<polyline fill="none" stroke="#8a5a5a" stroke-width="2.5" stroke-linejoin="round" points="36.0,105.7 48.8,105.7 61.6,105.7 74.4,105.7 87.3,105.7 100.1,105.7 112.9,105.7 125.7,105.7 138.5,105.7 151.3,105.7 164.2,105.7 177.0,105.7 189.8,105.7 202.6,105.7 215.4,105.7 228.2,105.7 241.1,105.7 253.9,105.7 266.7,105.7 279.5,105.7 292.3,105.7 305.1,105.7 318.0,105.7 330.8,105.7 343.6,105.7 356.4,105.7 369.2,105.7 382.0,105.7 394.9,105.7 407.7,105.7 420.5,105.7 433.3,105.7 446.1,105.7 458.9,105.7 471.8,105.7 484.6,105.7 497.4,105.7 510.2,105.7 523.0,105.7 535.8,105.7 548.7,105.7 561.5,105.7 574.3,105.7 587.1,105.7 599.9,105.7 612.7,105.7 625.6,105.7 638.4,105.7 651.2,105.7 664.0,105.7"/><circle cx="36.0" cy="105.7" r="3" fill="#8a5a5a"/><circle cx="48.8" cy="105.7" r="3" fill="#8a5a5a"/><circle cx="61.6" cy="105.7" r="3" fill="#8a5a5a"/><circle cx="74.4" cy="105.7" r="3" fill="#8a5a5a"/><circle cx="87.3" cy="105.7" r="3" fill="#8a5a5a"/><circle cx="100.1" cy="105.7" r="3" fill="#8a5a5a"/><circle cx="112.9" cy="105.7" r="3" fill="#8a5a5a"/><circle cx="125.7" cy="105.7" r="3" fill="#8a5a5a"/><circle cx="138.5" cy="105.7" r="3" fill="#8a5a5a"/><circle cx="151.3" cy="105.7" r="3" fill="#8a5a5a"/><circle cx="164.2" cy="105.7" r="3" fill="#8a5a5a"/><circle cx="177.0" cy="105.7" r="3" fill="#8a5a5a"/><circle cx="189.8" cy="105.7" r="3" fill="#8a5a5a"/><circle cx="202.6" cy="105.7" r="3" fill="#8a5a5a"/><circle cx="215.4" cy="105.7" r="3" fill="#8a5a5a"/><circle cx="228.2" cy="105.7" r="3" fill="#8a5a5a"/><circle cx="241.1" cy="105.7" r="3" fill="#8a5a5a"/><circle cx="253.9" cy="105.7" r="3" fill="#8a5a5a"/><circle cx="266.7" cy="105.7" r="3" fill="#8a5a5a"/><circle cx="279.5" cy="105.7" r="3" fill="#8a5a5a"/><circle cx="292.3" cy="105.7" r="3" fill="#8a5a5a"/><circle cx="305.1" cy="105.7" r="3" fill="#8a5a5a"/><circle cx="318.0" cy="105.7" r="3" fill="#8a5a5a"/><circle cx="330.8" cy="105.7" r="3" fill="#8a5a5a"/><circle cx="343.6" cy="105.7" r="3" fill="#8a5a5a"/><circle cx="356.4" cy="105.7" r="3" fill="#8a5a5a"/><circle cx="369.2" cy="105.7" r="3" fill="#8a5a5a"/><circle cx="382.0" cy="105.7" r="3" fill="#8a5a5a"/><circle cx="394.9" cy="105.7" r="3" fill="#8a5a5a"/><circle cx="407.7" cy="105.7" r="3" fill="#8a5a5a"/><circle cx="420.5" cy="105.7" r="3" fill="#8a5a5a"/><circle cx="433.3" cy="105.7" r="3" fill="#8a5a5a"/><circle cx="446.1" cy="105.7" r="3" fill="#8a5a5a"/><circle cx="458.9" cy="105.7" r="3" fill="#8a5a5a"/><circle cx="471.8" cy="105.7" r="3" fill="#8a5a5a"/><circle cx="484.6" cy="105.7" r="3" fill="#8a5a5a"/><circle cx="497.4" cy="105.7" r="3" fill="#8a5a5a"/><circle cx="510.2" cy="105.7" r="3" fill="#8a5a5a"/><circle cx="523.0" cy="105.7" r="3" fill="#8a5a5a"/><circle cx="535.8" cy="105.7" r="3" fill="#8a5a5a"/><circle cx="548.7" cy="105.7" r="3" fill="#8a5a5a"/><circle cx="561.5" cy="105.7" r="3" fill="#8a5a5a"/><circle cx="574.3" cy="105.7" r="3" fill="#8a5a5a"/><circle cx="587.1" cy="105.7" r="3" fill="#8a5a5a"/><circle cx="599.9" cy="105.7" r="3" fill="#8a5a5a"/><circle cx="612.7" cy="105.7" r="3" fill="#8a5a5a"/><circle cx="625.6" cy="105.7" r="3" fill="#8a5a5a"/><circle cx="638.4" cy="105.7" r="3" fill="#8a5a5a"/><circle cx="651.2" cy="105.7" r="3" fill="#8a5a5a"/><circle cx="664.0" cy="105.7" r="3" fill="#8a5a5a"/>
<polyline fill="none" stroke="#3fb950" stroke-width="2.5" stroke-linejoin="round" points="36.0,198.0 48.8,198.0 61.6,198.0 74.4,198.0 87.3,198.0 100.1,198.0 112.9,198.0 125.7,198.0 138.5,198.0 151.3,198.0 164.2,198.0 177.0,198.0 189.8,198.0 202.6,198.0 215.4,198.0 228.2,198.0 241.1,198.0 253.9,198.0 266.7,198.0 279.5,198.0 292.3,198.0 305.1,198.0 318.0,198.0 330.8,198.0 343.6,198.0 356.4,198.0 369.2,198.0 382.0,198.0 394.9,198.0 407.7,198.0 420.5,198.0 433.3,198.0 446.1,198.0 458.9,198.0 471.8,198.0 484.6,198.0 497.4,198.0 510.2,198.0 523.0,198.0 535.8,198.0 548.7,198.0 561.5,198.0 574.3,198.0 587.1,187.0 599.9,187.0 612.7,187.0 625.6,187.0 638.4,187.0 651.2,187.0 664.0,187.0"/><circle cx="36.0" cy="198.0" r="3" fill="#3fb950"/><circle cx="48.8" cy="198.0" r="3" fill="#3fb950"/><circle cx="61.6" cy="198.0" r="3" fill="#3fb950"/><circle cx="74.4" cy="198.0" r="3" fill="#3fb950"/><circle cx="87.3" cy="198.0" r="3" fill="#3fb950"/><circle cx="100.1" cy="198.0" r="3" fill="#3fb950"/><circle cx="112.9" cy="198.0" r="3" fill="#3fb950"/><circle cx="125.7" cy="198.0" r="3" fill="#3fb950"/><circle cx="138.5" cy="198.0" r="3" fill="#3fb950"/><circle cx="151.3" cy="198.0" r="3" fill="#3fb950"/><circle cx="164.2" cy="198.0" r="3" fill="#3fb950"/><circle cx="177.0" cy="198.0" r="3" fill="#3fb950"/><circle cx="189.8" cy="198.0" r="3" fill="#3fb950"/><circle cx="202.6" cy="198.0" r="3" fill="#3fb950"/><circle cx="215.4" cy="198.0" r="3" fill="#3fb950"/><circle cx="228.2" cy="198.0" r="3" fill="#3fb950"/><circle cx="241.1" cy="198.0" r="3" fill="#3fb950"/><circle cx="253.9" cy="198.0" r="3" fill="#3fb950"/><circle cx="266.7" cy="198.0" r="3" fill="#3fb950"/><circle cx="279.5" cy="198.0" r="3" fill="#3fb950"/><circle cx="292.3" cy="198.0" r="3" fill="#3fb950"/><circle cx="305.1" cy="198.0" r="3" fill="#3fb950"/><circle cx="318.0" cy="198.0" r="3" fill="#3fb950"/><circle cx="330.8" cy="198.0" r="3" fill="#3fb950"/><circle cx="343.6" cy="198.0" r="3" fill="#3fb950"/><circle cx="356.4" cy="198.0" r="3" fill="#3fb950"/><circle cx="369.2" cy="198.0" r="3" fill="#3fb950"/><circle cx="382.0" cy="198.0" r="3" fill="#3fb950"/><circle cx="394.9" cy="198.0" r="3" fill="#3fb950"/><circle cx="407.7" cy="198.0" r="3" fill="#3fb950"/><circle cx="420.5" cy="198.0" r="3" fill="#3fb950"/><circle cx="433.3" cy="198.0" r="3" fill="#3fb950"/><circle cx="446.1" cy="198.0" r="3" fill="#3fb950"/><circle cx="458.9" cy="198.0" r="3" fill="#3fb950"/><circle cx="471.8" cy="198.0" r="3" fill="#3fb950"/><circle cx="484.6" cy="198.0" r="3" fill="#3fb950"/><circle cx="497.4" cy="198.0" r="3" fill="#3fb950"/><circle cx="510.2" cy="198.0" r="3" fill="#3fb950"/><circle cx="523.0" cy="198.0" r="3" fill="#3fb950"/><circle cx="535.8" cy="198.0" r="3" fill="#3fb950"/><circle cx="548.7" cy="198.0" r="3" fill="#3fb950"/><circle cx="561.5" cy="198.0" r="3" fill="#3fb950"/><circle cx="574.3" cy="198.0" r="3" fill="#3fb950"/><circle cx="587.1" cy="187.0" r="3" fill="#3fb950"/><circle cx="599.9" cy="187.0" r="3" fill="#3fb950"/><circle cx="612.7" cy="187.0" r="3" fill="#3fb950"/><circle cx="625.6" cy="187.0" r="3" fill="#3fb950"/><circle cx="638.4" cy="187.0" r="3" fill="#3fb950"/><circle cx="651.2" cy="187.0" r="3" fill="#3fb950"/><circle cx="664.0" cy="187.0" r="3" fill="#3fb950"/>
<polyline fill="none" stroke="#4aa3ff" stroke-width="2.5" stroke-linejoin="round" points="36.0,104.3 48.8,104.3 61.6,104.3 74.4,104.3 87.3,104.3 100.1,104.3 112.9,104.3 125.7,104.3 138.5,104.3 151.3,104.3 164.2,104.3 177.0,104.3 189.8,104.3 202.6,104.3 215.4,104.3 228.2,90.1 241.1,83.4 253.9,78.4 266.7,78.4 279.5,63.6 292.3,63.6 305.1,63.6 318.0,51.9 330.8,51.9 343.6,51.9 356.4,46.6 369.2,45.9 382.0,45.9 394.9,45.2 407.7,45.2 420.5,44.1 433.3,42.0 446.1,39.5 458.9,38.8 471.8,38.8 484.6,38.8 497.4,38.8 510.2,38.8 523.0,38.8 535.8,38.8 548.7,38.8 561.5,38.8 574.3,38.8 587.1,49.8 599.9,49.8 612.7,49.8 625.6,49.8 638.4,49.8 651.2,45.6 664.0,36.0"/><circle cx="36.0" cy="104.3" r="3" fill="#4aa3ff"/><circle cx="48.8" cy="104.3" r="3" fill="#4aa3ff"/><circle cx="61.6" cy="104.3" r="3" fill="#4aa3ff"/><circle cx="74.4" cy="104.3" r="3" fill="#4aa3ff"/><circle cx="87.3" cy="104.3" r="3" fill="#4aa3ff"/><circle cx="100.1" cy="104.3" r="3" fill="#4aa3ff"/><circle cx="112.9" cy="104.3" r="3" fill="#4aa3ff"/><circle cx="125.7" cy="104.3" r="3" fill="#4aa3ff"/><circle cx="138.5" cy="104.3" r="3" fill="#4aa3ff"/><circle cx="151.3" cy="104.3" r="3" fill="#4aa3ff"/><circle cx="164.2" cy="104.3" r="3" fill="#4aa3ff"/><circle cx="177.0" cy="104.3" r="3" fill="#4aa3ff"/><circle cx="189.8" cy="104.3" r="3" fill="#4aa3ff"/><circle cx="202.6" cy="104.3" r="3" fill="#4aa3ff"/><circle cx="215.4" cy="104.3" r="3" fill="#4aa3ff"/><circle cx="228.2" cy="90.1" r="3" fill="#4aa3ff"/><circle cx="241.1" cy="83.4" r="3" fill="#4aa3ff"/><circle cx="253.9" cy="78.4" r="3" fill="#4aa3ff"/><circle cx="266.7" cy="78.4" r="3" fill="#4aa3ff"/><circle cx="279.5" cy="63.6" r="3" fill="#4aa3ff"/><circle cx="292.3" cy="63.6" r="3" fill="#4aa3ff"/><circle cx="305.1" cy="63.6" r="3" fill="#4aa3ff"/><circle cx="318.0" cy="51.9" r="3" fill="#4aa3ff"/><circle cx="330.8" cy="51.9" r="3" fill="#4aa3ff"/><circle cx="343.6" cy="51.9" r="3" fill="#4aa3ff"/><circle cx="356.4" cy="46.6" r="3" fill="#4aa3ff"/><circle cx="369.2" cy="45.9" r="3" fill="#4aa3ff"/><circle cx="382.0" cy="45.9" r="3" fill="#4aa3ff"/><circle cx="394.9" cy="45.2" r="3" fill="#4aa3ff"/><circle cx="407.7" cy="45.2" r="3" fill="#4aa3ff"/><circle cx="420.5" cy="44.1" r="3" fill="#4aa3ff"/><circle cx="433.3" cy="42.0" r="3" fill="#4aa3ff"/><circle cx="446.1" cy="39.5" r="3" fill="#4aa3ff"/><circle cx="458.9" cy="38.8" r="3" fill="#4aa3ff"/><circle cx="471.8" cy="38.8" r="3" fill="#4aa3ff"/><circle cx="484.6" cy="38.8" r="3" fill="#4aa3ff"/><circle cx="497.4" cy="38.8" r="3" fill="#4aa3ff"/><circle cx="510.2" cy="38.8" r="3" fill="#4aa3ff"/><circle cx="523.0" cy="38.8" r="3" fill="#4aa3ff"/><circle cx="535.8" cy="38.8" r="3" fill="#4aa3ff"/><circle cx="548.7" cy="38.8" r="3" fill="#4aa3ff"/><circle cx="561.5" cy="38.8" r="3" fill="#4aa3ff"/><circle cx="574.3" cy="38.8" r="3" fill="#4aa3ff"/><circle cx="587.1" cy="49.8" r="3" fill="#4aa3ff"/><circle cx="599.9" cy="49.8" r="3" fill="#4aa3ff"/><circle cx="612.7" cy="49.8" r="3" fill="#4aa3ff"/><circle cx="625.6" cy="49.8" r="3" fill="#4aa3ff"/><circle cx="638.4" cy="49.8" r="3" fill="#4aa3ff"/><circle cx="651.2" cy="45.6" r="3" fill="#4aa3ff"/><circle cx="664.0" cy="36.0" r="3" fill="#4aa3ff"/>
<text x="36" y="225" fill="#6b7280" font-size="11">2026-06-26</text>
<text x="664" y="225" fill="#6b7280" font-size="11" text-anchor="end">2026-07-02</text>
<text x="36" y="212" font-family="system-ui,sans-serif" font-size="11">
<tspan fill="#4aa3ff">&#9679; open FPs</tspan>  <tspan fill="#3fb950">&#9679; closed (Anthropic acting)</tspan>  <tspan fill="#8a5a5a">&#9679; harness withdrawn</tspan></text>
<text x="664" y="22" text-anchor="end" font-family="system-ui,sans-serif" font-size="12">
<tspan fill="#4aa3ff">open 458</tspan>  <tspan fill="#3fb950">closed 31</tspan>  <tspan fill="#8a5a5a">harness 261</tspan></text>
</svg>