<svg xmlns="http://www.w3.org/2000/svg" width="700" height="234" viewBox="0 0 700 234" role="img">
<rect width="700" height="234" rx="12" fill="#16181d"/>
<text x="36" y="22" fill="#e8eaed" font-family="system-ui,sans-serif" font-size="14" font-weight="700">Is Anthropic acting? cyber/aup false positives over time</text>
<line x1="36" y1="198.0" x2="664" y2="198.0" stroke="#2a2e37" stroke-width="1"/><text x="30" y="202.0" fill="#6b7280" font-size="11" text-anchor="end">0</text><line x1="36" y1="117.0" x2="664" y2="117.0" stroke="#2a2e37" stroke-width="1"/><text x="30" y="121.0" fill="#6b7280" font-size="11" text-anchor="end">400</text><line x1="36" y1="36.0" x2="664" y2="36.0" stroke="#2a2e37" stroke-width="1"/><text x="30" y="40.0" fill="#6b7280" font-size="11" text-anchor="end">800</text>

<polyline fill="none" stroke="#8a5a5a" stroke-width="2.5" stroke-linejoin="round" points="36.0,145.1 39.3,145.1 42.7,145.1 46.0,145.1 49.4,145.1 52.7,145.1 56.0,145.1 59.4,145.1 62.7,145.1 66.1,145.1 69.4,145.1 72.7,145.1 76.1,145.1 79.4,145.1 82.8,145.1 86.1,145.1 89.4,145.1 92.8,145.1 96.1,145.1 99.5,145.1 102.8,145.1 106.1,145.1 109.5,145.1 112.8,145.1 116.2,145.1 119.5,145.1 122.9,145.1 126.2,145.1 129.5,145.1 132.9,145.1 136.2,145.1 139.6,145.1 142.9,145.1 146.2,145.1 149.6,145.1 152.9,145.1 156.3,145.1 159.6,145.1 162.9,145.1 166.3,145.1 169.6,145.1 173.0,145.1 176.3,145.1 179.6,145.1 183.0,145.1 186.3,145.1 189.7,145.1 193.0,145.1 196.3,145.1 199.7,145.1 203.0,155.7 206.4,155.7 209.7,155.7 213.0,155.7 216.4,155.7 219.7,155.7 223.1,155.7 226.4,155.7 229.7,155.7 233.1,155.7 236.4,155.7 239.8,155.7 243.1,155.7 246.4,155.7 249.8,155.7 253.1,155.7 256.5,155.7 259.8,155.7 263.1,155.7 266.5,155.7 269.8,155.7 273.2,155.7 276.5,155.7 279.9,155.7 283.2,155.7 286.5,155.7 289.9,155.7 293.2,155.7 296.6,155.7 299.9,155.7 303.2,155.7 306.6,155.7 309.9,155.7 313.3,155.7 316.6,167.6 319.9,167.6 323.3,170.3 326.6,170.3 330.0,170.5 333.3,170.7 336.6,170.7 340.0,170.9 343.3,172.7 346.7,180.6 350.0,181.8 353.3,189.1 356.7,190.5 360.0,195.2 363.4,198.0 366.7,198.0 370.0,198.0 373.4,198.0 376.7,198.0 380.1,198.0 383.4,198.0 386.7,198.0 390.1,198.0 393.4,198.0 396.8,198.0 400.1,198.0 403.4,198.0 406.8,198.0 410.1,198.0 413.5,198.0 416.8,198.0 420.1,198.0 423.5,198.0 426.8,198.0 430.2,198.0 433.5,198.0 436.9,198.0 440.2,198.0 443.5,198.0 446.9,198.0 450.2,198.0 453.6,198.0 456.9,198.0 460.2,198.0 463.6,198.0 466.9,198.0 470.3,198.0 473.6,198.0 476.9,198.0 480.3,198.0 483.6,198.0 487.0,198.0 490.3,198.0 493.6,198.0 497.0,198.0 500.3,198.0 503.7,198.0 507.0,198.0 510.3,198.0 513.7,198.0 517.0,198.0 520.4,198.0 523.7,198.0 527.0,198.0 530.4,198.0 533.7,198.0 537.1,198.0 540.4,198.0 543.7,198.0 547.1,198.0 550.4,198.0 553.8,198.0 557.1,198.0 560.4,198.0 563.8,198.0 567.1,198.0 570.5,198.0 573.8,198.0 577.1,198.0 580.5,198.0 583.8,198.0 587.2,198.0 590.5,198.0 593.9,198.0 597.2,198.0 600.5,198.0 603.9,198.0 607.2,198.0 610.6,198.0 613.9,198.0 617.2,198.0 620.6,198.0 623.9,198.0 627.3,198.0 630.6,198.0 633.9,198.0 637.3,198.0 640.6,198.0 644.0,198.0 647.3,198.0 650.6,198.0 654.0,198.0 657.3,198.0 660.7,198.0 664.0,198.0"/><circle cx="36.0" cy="145.1" r="3" fill="#8a5a5a"/><circle cx="39.3" cy="145.1" r="3" fill="#8a5a5a"/><circle cx="42.7" cy="145.1" r="3" fill="#8a5a5a"/><circle cx="46.0" cy="145.1" r="3" fill="#8a5a5a"/><circle cx="49.4" cy="145.1" r="3" fill="#8a5a5a"/><circle cx="52.7" cy="145.1" r="3" fill="#8a5a5a"/><circle cx="56.0" cy="145.1" r="3" fill="#8a5a5a"/><circle cx="59.4" cy="145.1" r="3" fill="#8a5a5a"/><circle cx="62.7" cy="145.1" r="3" fill="#8a5a5a"/><circle cx="66.1" cy="145.1" r="3" fill="#8a5a5a"/><circle cx="69.4" cy="145.1" r="3" fill="#8a5a5a"/><circle cx="72.7" cy="145.1" r="3" fill="#8a5a5a"/><circle cx="76.1" cy="145.1" r="3" fill="#8a5a5a"/><circle cx="79.4" cy="145.1" r="3" fill="#8a5a5a"/><circle cx="82.8" cy="145.1" r="3" fill="#8a5a5a"/><circle cx="86.1" cy="145.1" r="3" fill="#8a5a5a"/><circle cx="89.4" cy="145.1" r="3" fill="#8a5a5a"/><circle cx="92.8" cy="145.1" r="3" fill="#8a5a5a"/><circle cx="96.1" cy="145.1" r="3" fill="#8a5a5a"/><circle cx="99.5" cy="145.1" r="3" fill="#8a5a5a"/><circle cx="102.8" cy="145.1" r="3" fill="#8a5a5a"/><circle cx="106.1" cy="145.1" r="3" fill="#8a5a5a"/><circle cx="109.5" cy="145.1" r="3" fill="#8a5a5a"/><circle cx="112.8" cy="145.1" r="3" fill="#8a5a5a"/><circle cx="116.2" cy="145.1" r="3" fill="#8a5a5a"/><circle cx="119.5" cy="145.1" r="3" fill="#8a5a5a"/><circle cx="122.9" cy="145.1" r="3" fill="#8a5a5a"/><circle cx="126.2" cy="145.1" r="3" fill="#8a5a5a"/><circle cx="129.5" cy="145.1" r="3" fill="#8a5a5a"/><circle cx="132.9" cy="145.1" r="3" fill="#8a5a5a"/><circle cx="136.2" cy="145.1" r="3" fill="#8a5a5a"/><circle cx="139.6" cy="145.1" r="3" fill="#8a5a5a"/><circle cx="142.9" cy="145.1" r="3" fill="#8a5a5a"/><circle cx="146.2" cy="145.1" r="3" fill="#8a5a5a"/><circle cx="149.6" cy="145.1" r="3" fill="#8a5a5a"/><circle cx="152.9" cy="145.1" r="3" fill="#8a5a5a"/><circle cx="156.3" cy="145.1" r="3" fill="#8a5a5a"/><circle cx="159.6" cy="145.1" r="3" fill="#8a5a5a"/><circle cx="162.9" cy="145.1" r="3" fill="#8a5a5a"/><circle cx="166.3" cy="145.1" r="3" fill="#8a5a5a"/><circle cx="169.6" cy="145.1" r="3" fill="#8a5a5a"/><circle cx="173.0" cy="145.1" r="3" fill="#8a5a5a"/><circle cx="176.3" cy="145.1" r="3" fill="#8a5a5a"/><circle cx="179.6" cy="145.1" r="3" fill="#8a5a5a"/><circle cx="183.0" cy="145.1" r="3" fill="#8a5a5a"/><circle cx="186.3" cy="145.1" r="3" fill="#8a5a5a"/><circle cx="189.7" cy="145.1" r="3" fill="#8a5a5a"/><circle cx="193.0" cy="145.1" r="3" fill="#8a5a5a"/><circle cx="196.3" cy="145.1" r="3" fill="#8a5a5a"/><circle cx="199.7" cy="145.1" r="3" fill="#8a5a5a"/><circle cx="203.0" cy="155.7" r="3" fill="#8a5a5a"/><circle cx="206.4" cy="155.7" r="3" fill="#8a5a5a"/><circle cx="209.7" cy="155.7" r="3" fill="#8a5a5a"/><circle cx="213.0" cy="155.7" r="3" fill="#8a5a5a"/><circle cx="216.4" cy="155.7" r="3" fill="#8a5a5a"/><circle cx="219.7" cy="155.7" r="3" fill="#8a5a5a"/><circle cx="223.1" cy="155.7" r="3" fill="#8a5a5a"/><circle cx="226.4" cy="155.7" r="3" fill="#8a5a5a"/><circle cx="229.7" cy="155.7" r="3" fill="#8a5a5a"/><circle cx="233.1" cy="155.7" r="3" fill="#8a5a5a"/><circle cx="236.4" cy="155.7" r="3" fill="#8a5a5a"/><circle cx="239.8" cy="155.7" r="3" fill="#8a5a5a"/><circle cx="243.1" cy="155.7" r="3" fill="#8a5a5a"/><circle cx="246.4" cy="155.7" r="3" fill="#8a5a5a"/><circle cx="249.8" cy="155.7" r="3" fill="#8a5a5a"/><circle cx="253.1" cy="155.7" r="3" fill="#8a5a5a"/><circle cx="256.5" cy="155.7" r="3" fill="#8a5a5a"/><circle cx="259.8" cy="155.7" r="3" fill="#8a5a5a"/><circle cx="263.1" cy="155.7" r="3" fill="#8a5a5a"/><circle cx="266.5" cy="155.7" r="3" fill="#8a5a5a"/><circle cx="269.8" cy="155.7" r="3" fill="#8a5a5a"/><circle cx="273.2" cy="155.7" r="3" fill="#8a5a5a"/><circle cx="276.5" cy="155.7" r="3" fill="#8a5a5a"/><circle cx="279.9" cy="155.7" r="3" fill="#8a5a5a"/><circle cx="283.2" cy="155.7" r="3" fill="#8a5a5a"/><circle cx="286.5" cy="155.7" r="3" fill="#8a5a5a"/><circle cx="289.9" cy="155.7" r="3" fill="#8a5a5a"/><circle cx="293.2" cy="155.7" r="3" fill="#8a5a5a"/><circle cx="296.6" cy="155.7" r="3" fill="#8a5a5a"/><circle cx="299.9" cy="155.7" r="3" fill="#8a5a5a"/><circle cx="303.2" cy="155.7" r="3" fill="#8a5a5a"/><circle cx="306.6" cy="155.7" r="3" fill="#8a5a5a"/><circle cx="309.9" cy="155.7" r="3" fill="#8a5a5a"/><circle cx="313.3" cy="155.7" r="3" fill="#8a5a5a"/><circle cx="316.6" cy="167.6" r="3" fill="#8a5a5a"/><circle cx="319.9" cy="167.6" r="3" fill="#8a5a5a"/><circle cx="323.3" cy="170.3" r="3" fill="#8a5a5a"/><circle cx="326.6" cy="170.3" r="3" fill="#8a5a5a"/><circle cx="330.0" cy="170.5" r="3" fill="#8a5a5a"/><circle cx="333.3" cy="170.7" r="3" fill="#8a5a5a"/><circle cx="336.6" cy="170.7" r="3" fill="#8a5a5a"/><circle cx="340.0" cy="170.9" r="3" fill="#8a5a5a"/><circle cx="343.3" cy="172.7" r="3" fill="#8a5a5a"/><circle cx="346.7" cy="180.6" r="3" fill="#8a5a5a"/><circle cx="350.0" cy="181.8" r="3" fill="#8a5a5a"/><circle cx="353.3" cy="189.1" r="3" fill="#8a5a5a"/><circle cx="356.7" cy="190.5" r="3" fill="#8a5a5a"/><circle cx="360.0" cy="195.2" r="3" fill="#8a5a5a"/><circle cx="363.4" cy="198.0" r="3" fill="#8a5a5a"/><circle cx="366.7" cy="198.0" r="3" fill="#8a5a5a"/><circle cx="370.0" cy="198.0" r="3" fill="#8a5a5a"/><circle cx="373.4" cy="198.0" r="3" fill="#8a5a5a"/><circle cx="376.7" cy="198.0" r="3" fill="#8a5a5a"/><circle cx="380.1" cy="198.0" r="3" fill="#8a5a5a"/><circle cx="383.4" cy="198.0" r="3" fill="#8a5a5a"/><circle cx="386.7" cy="198.0" r="3" fill="#8a5a5a"/><circle cx="390.1" cy="198.0" r="3" fill="#8a5a5a"/><circle cx="393.4" cy="198.0" r="3" fill="#8a5a5a"/><circle cx="396.8" cy="198.0" r="3" fill="#8a5a5a"/><circle cx="400.1" cy="198.0" r="3" fill="#8a5a5a"/><circle cx="403.4" cy="198.0" r="3" fill="#8a5a5a"/><circle cx="406.8" cy="198.0" r="3" fill="#8a5a5a"/><circle cx="410.1" cy="198.0" r="3" fill="#8a5a5a"/><circle cx="413.5" cy="198.0" r="3" fill="#8a5a5a"/><circle cx="416.8" cy="198.0" r="3" fill="#8a5a5a"/><circle cx="420.1" cy="198.0" r="3" fill="#8a5a5a"/><circle cx="423.5" cy="198.0" r="3" fill="#8a5a5a"/><circle cx="426.8" cy="198.0" r="3" fill="#8a5a5a"/><circle cx="430.2" cy="198.0" r="3" fill="#8a5a5a"/><circle cx="433.5" cy="198.0" r="3" fill="#8a5a5a"/><circle cx="436.9" cy="198.0" r="3" fill="#8a5a5a"/><circle cx="440.2" cy="198.0" r="3" fill="#8a5a5a"/><circle cx="443.5" cy="198.0" r="3" fill="#8a5a5a"/><circle cx="446.9" cy="198.0" r="3" fill="#8a5a5a"/><circle cx="450.2" cy="198.0" r="3" fill="#8a5a5a"/><circle cx="453.6" cy="198.0" r="3" fill="#8a5a5a"/><circle cx="456.9" cy="198.0" r="3" fill="#8a5a5a"/><circle cx="460.2" cy="198.0" r="3" fill="#8a5a5a"/><circle cx="463.6" cy="198.0" r="3" fill="#8a5a5a"/><circle cx="466.9" cy="198.0" r="3" fill="#8a5a5a"/><circle cx="470.3" cy="198.0" r="3" fill="#8a5a5a"/><circle cx="473.6" cy="198.0" r="3" fill="#8a5a5a"/><circle cx="476.9" cy="198.0" r="3" fill="#8a5a5a"/><circle cx="480.3" cy="198.0" r="3" fill="#8a5a5a"/><circle cx="483.6" cy="198.0" r="3" fill="#8a5a5a"/><circle cx="487.0" cy="198.0" r="3" fill="#8a5a5a"/><circle cx="490.3" cy="198.0" r="3" fill="#8a5a5a"/><circle cx="493.6" cy="198.0" r="3" fill="#8a5a5a"/><circle cx="497.0" cy="198.0" r="3" fill="#8a5a5a"/><circle cx="500.3" cy="198.0" r="3" fill="#8a5a5a"/><circle cx="503.7" cy="198.0" r="3" fill="#8a5a5a"/><circle cx="507.0" cy="198.0" r="3" fill="#8a5a5a"/><circle cx="510.3" cy="198.0" r="3" fill="#8a5a5a"/><circle cx="513.7" cy="198.0" r="3" fill="#8a5a5a"/><circle cx="517.0" cy="198.0" r="3" fill="#8a5a5a"/><circle cx="520.4" cy="198.0" r="3" fill="#8a5a5a"/><circle cx="523.7" cy="198.0" r="3" fill="#8a5a5a"/><circle cx="527.0" cy="198.0" r="3" fill="#8a5a5a"/><circle cx="530.4" cy="198.0" r="3" fill="#8a5a5a"/><circle cx="533.7" cy="198.0" r="3" fill="#8a5a5a"/><circle cx="537.1" cy="198.0" r="3" fill="#8a5a5a"/><circle cx="540.4" cy="198.0" r="3" fill="#8a5a5a"/><circle cx="543.7" cy="198.0" r="3" fill="#8a5a5a"/><circle cx="547.1" cy="198.0" r="3" fill="#8a5a5a"/><circle cx="550.4" cy="198.0" r="3" fill="#8a5a5a"/><circle cx="553.8" cy="198.0" r="3" fill="#8a5a5a"/><circle cx="557.1" cy="198.0" r="3" fill="#8a5a5a"/><circle cx="560.4" cy="198.0" r="3" fill="#8a5a5a"/><circle cx="563.8" cy="198.0" r="3" fill="#8a5a5a"/><circle cx="567.1" cy="198.0" r="3" fill="#8a5a5a"/><circle cx="570.5" cy="198.0" r="3" fill="#8a5a5a"/><circle cx="573.8" cy="198.0" r="3" fill="#8a5a5a"/><circle cx="577.1" cy="198.0" r="3" fill="#8a5a5a"/><circle cx="580.5" cy="198.0" r="3" fill="#8a5a5a"/><circle cx="583.8" cy="198.0" r="3" fill="#8a5a5a"/><circle cx="587.2" cy="198.0" r="3" fill="#8a5a5a"/><circle cx="590.5" cy="198.0" r="3" fill="#8a5a5a"/><circle cx="593.9" cy="198.0" r="3" fill="#8a5a5a"/><circle cx="597.2" cy="198.0" r="3" fill="#8a5a5a"/><circle cx="600.5" cy="198.0" r="3" fill="#8a5a5a"/><circle cx="603.9" cy="198.0" r="3" fill="#8a5a5a"/><circle cx="607.2" cy="198.0" r="3" fill="#8a5a5a"/><circle cx="610.6" cy="198.0" r="3" fill="#8a5a5a"/><circle cx="613.9" cy="198.0" r="3" fill="#8a5a5a"/><circle cx="617.2" cy="198.0" r="3" fill="#8a5a5a"/><circle cx="620.6" cy="198.0" r="3" fill="#8a5a5a"/><circle cx="623.9" cy="198.0" r="3" fill="#8a5a5a"/><circle cx="627.3" cy="198.0" r="3" fill="#8a5a5a"/><circle cx="630.6" cy="198.0" r="3" fill="#8a5a5a"/><circle cx="633.9" cy="198.0" r="3" fill="#8a5a5a"/><circle cx="637.3" cy="198.0" r="3" fill="#8a5a5a"/><circle cx="640.6" cy="198.0" r="3" fill="#8a5a5a"/><circle cx="644.0" cy="198.0" r="3" fill="#8a5a5a"/><circle cx="647.3" cy="198.0" r="3" fill="#8a5a5a"/><circle cx="650.6" cy="198.0" r="3" fill="#8a5a5a"/><circle cx="654.0" cy="198.0" r="3" fill="#8a5a5a"/><circle cx="657.3" cy="198.0" r="3" fill="#8a5a5a"/><circle cx="660.7" cy="198.0" r="3" fill="#8a5a5a"/><circle cx="664.0" cy="198.0" r="3" fill="#8a5a5a"/>
<polyline fill="none" stroke="#3fb950" stroke-width="2.5" stroke-linejoin="round" points="36.0,198.0 39.3,198.0 42.7,198.0 46.0,198.0 49.4,198.0 52.7,198.0 56.0,198.0 59.4,198.0 62.7,198.0 66.1,198.0 69.4,198.0 72.7,198.0 76.1,198.0 79.4,198.0 82.8,198.0 86.1,198.0 89.4,198.0 92.8,198.0 96.1,198.0 99.5,198.0 102.8,198.0 106.1,198.0 109.5,198.0 112.8,198.0 116.2,198.0 119.5,198.0 122.9,198.0 126.2,198.0 129.5,198.0 132.9,198.0 136.2,198.0 139.6,198.0 142.9,198.0 146.2,198.0 149.6,198.0 152.9,198.0 156.3,198.0 159.6,198.0 162.9,198.0 166.3,198.0 169.6,198.0 173.0,198.0 176.3,198.0 179.6,191.7 183.0,191.7 186.3,191.7 189.7,191.7 193.0,191.7 196.3,191.7 199.7,191.7 203.0,192.9 206.4,192.9 209.7,190.7 213.0,190.7 216.4,190.7 219.7,190.7 223.1,190.7 226.4,190.5 229.7,190.5 233.1,190.5 236.4,190.3 239.8,190.3 243.1,190.3 246.4,190.3 249.8,190.3 253.1,190.3 256.5,190.3 259.8,190.3 263.1,190.3 266.5,190.3 269.8,190.3 273.2,190.3 276.5,190.3 279.9,190.3 283.2,190.3 286.5,190.3 289.9,190.3 293.2,190.3 296.6,190.3 299.9,190.3 303.2,190.3 306.6,189.3 309.9,189.3 313.3,189.3 316.6,190.7 319.9,190.7 323.3,190.7 326.6,190.7 330.0,190.7 333.3,190.7 336.6,190.7 340.0,190.7 343.3,190.7 346.7,190.9 350.0,190.9 353.3,190.9 356.7,194.2 360.0,196.8 363.4,198.0 366.7,198.0 370.0,198.0 373.4,198.0 376.7,198.0 380.1,198.0 383.4,198.0 386.7,198.0 390.1,198.0 393.4,198.0 396.8,198.0 400.1,198.0 403.4,198.0 406.8,198.0 410.1,198.0 413.5,198.0 416.8,198.0 420.1,198.0 423.5,198.0 426.8,198.0 430.2,198.0 433.5,198.0 436.9,198.0 440.2,198.0 443.5,198.0 446.9,198.0 450.2,198.0 453.6,198.0 456.9,198.0 460.2,198.0 463.6,198.0 466.9,198.0 470.3,198.0 473.6,198.0 476.9,198.0 480.3,198.0 483.6,198.0 487.0,198.0 490.3,198.0 493.6,198.0 497.0,198.0 500.3,198.0 503.7,198.0 507.0,198.0 510.3,198.0 513.7,198.0 517.0,198.0 520.4,198.0 523.7,198.0 527.0,198.0 530.4,198.0 533.7,198.0 537.1,198.0 540.4,198.0 543.7,198.0 547.1,198.0 550.4,198.0 553.8,198.0 557.1,198.0 560.4,198.0 563.8,198.0 567.1,198.0 570.5,198.0 573.8,198.0 577.1,198.0 580.5,198.0 583.8,198.0 587.2,198.0 590.5,198.0 593.9,198.0 597.2,198.0 600.5,198.0 603.9,198.0 607.2,198.0 610.6,198.0 613.9,198.0 617.2,198.0 620.6,198.0 623.9,198.0 627.3,198.0 630.6,198.0 633.9,198.0 637.3,198.0 640.6,198.0 644.0,198.0 647.3,198.0 650.6,198.0 654.0,198.0 657.3,198.0 660.7,198.0 664.0,198.0"/><circle cx="36.0" cy="198.0" r="3" fill="#3fb950"/><circle cx="39.3" cy="198.0" r="3" fill="#3fb950"/><circle cx="42.7" cy="198.0" r="3" fill="#3fb950"/><circle cx="46.0" cy="198.0" r="3" fill="#3fb950"/><circle cx="49.4" cy="198.0" r="3" fill="#3fb950"/><circle cx="52.7" cy="198.0" r="3" fill="#3fb950"/><circle cx="56.0" cy="198.0" r="3" fill="#3fb950"/><circle cx="59.4" cy="198.0" r="3" fill="#3fb950"/><circle cx="62.7" cy="198.0" r="3" fill="#3fb950"/><circle cx="66.1" cy="198.0" r="3" fill="#3fb950"/><circle cx="69.4" cy="198.0" r="3" fill="#3fb950"/><circle cx="72.7" cy="198.0" r="3" fill="#3fb950"/><circle cx="76.1" cy="198.0" r="3" fill="#3fb950"/><circle cx="79.4" cy="198.0" r="3" fill="#3fb950"/><circle cx="82.8" cy="198.0" r="3" fill="#3fb950"/><circle cx="86.1" cy="198.0" r="3" fill="#3fb950"/><circle cx="89.4" cy="198.0" r="3" fill="#3fb950"/><circle cx="92.8" cy="198.0" r="3" fill="#3fb950"/><circle cx="96.1" cy="198.0" r="3" fill="#3fb950"/><circle cx="99.5" cy="198.0" r="3" fill="#3fb950"/><circle cx="102.8" cy="198.0" r="3" fill="#3fb950"/><circle cx="106.1" cy="198.0" r="3" fill="#3fb950"/><circle cx="109.5" cy="198.0" r="3" fill="#3fb950"/><circle cx="112.8" cy="198.0" r="3" fill="#3fb950"/><circle cx="116.2" cy="198.0" r="3" fill="#3fb950"/><circle cx="119.5" cy="198.0" r="3" fill="#3fb950"/><circle cx="122.9" cy="198.0" r="3" fill="#3fb950"/><circle cx="126.2" cy="198.0" r="3" fill="#3fb950"/><circle cx="129.5" cy="198.0" r="3" fill="#3fb950"/><circle cx="132.9" cy="198.0" r="3" fill="#3fb950"/><circle cx="136.2" cy="198.0" r="3" fill="#3fb950"/><circle cx="139.6" cy="198.0" r="3" fill="#3fb950"/><circle cx="142.9" cy="198.0" r="3" fill="#3fb950"/><circle cx="146.2" cy="198.0" r="3" fill="#3fb950"/><circle cx="149.6" cy="198.0" r="3" fill="#3fb950"/><circle cx="152.9" cy="198.0" r="3" fill="#3fb950"/><circle cx="156.3" cy="198.0" r="3" fill="#3fb950"/><circle cx="159.6" cy="198.0" r="3" fill="#3fb950"/><circle cx="162.9" cy="198.0" r="3" fill="#3fb950"/><circle cx="166.3" cy="198.0" r="3" fill="#3fb950"/><circle cx="169.6" cy="198.0" r="3" fill="#3fb950"/><circle cx="173.0" cy="198.0" r="3" fill="#3fb950"/><circle cx="176.3" cy="198.0" r="3" fill="#3fb950"/><circle cx="179.6" cy="191.7" r="3" fill="#3fb950"/><circle cx="183.0" cy="191.7" r="3" fill="#3fb950"/><circle cx="186.3" cy="191.7" r="3" fill="#3fb950"/><circle cx="189.7" cy="191.7" r="3" fill="#3fb950"/><circle cx="193.0" cy="191.7" r="3" fill="#3fb950"/><circle cx="196.3" cy="191.7" r="3" fill="#3fb950"/><circle cx="199.7" cy="191.7" r="3" fill="#3fb950"/><circle cx="203.0" cy="192.9" r="3" fill="#3fb950"/><circle cx="206.4" cy="192.9" r="3" fill="#3fb950"/><circle cx="209.7" cy="190.7" r="3" fill="#3fb950"/><circle cx="213.0" cy="190.7" r="3" fill="#3fb950"/><circle cx="216.4" cy="190.7" r="3" fill="#3fb950"/><circle cx="219.7" cy="190.7" r="3" fill="#3fb950"/><circle cx="223.1" cy="190.7" r="3" fill="#3fb950"/><circle cx="226.4" cy="190.5" r="3" fill="#3fb950"/><circle cx="229.7" cy="190.5" r="3" fill="#3fb950"/><circle cx="233.1" cy="190.5" r="3" fill="#3fb950"/><circle cx="236.4" cy="190.3" r="3" fill="#3fb950"/><circle cx="239.8" cy="190.3" r="3" fill="#3fb950"/><circle cx="243.1" cy="190.3" r="3" fill="#3fb950"/><circle cx="246.4" cy="190.3" r="3" fill="#3fb950"/><circle cx="249.8" cy="190.3" r="3" fill="#3fb950"/><circle cx="253.1" cy="190.3" r="3" fill="#3fb950"/><circle cx="256.5" cy="190.3" r="3" fill="#3fb950"/><circle cx="259.8" cy="190.3" r="3" fill="#3fb950"/><circle cx="263.1" cy="190.3" r="3" fill="#3fb950"/><circle cx="266.5" cy="190.3" r="3" fill="#3fb950"/><circle cx="269.8" cy="190.3" r="3" fill="#3fb950"/><circle cx="273.2" cy="190.3" r="3" fill="#3fb950"/><circle cx="276.5" cy="190.3" r="3" fill="#3fb950"/><circle cx="279.9" cy="190.3" r="3" fill="#3fb950"/><circle cx="283.2" cy="190.3" r="3" fill="#3fb950"/><circle cx="286.5" cy="190.3" r="3" fill="#3fb950"/><circle cx="289.9" cy="190.3" r="3" fill="#3fb950"/><circle cx="293.2" cy="190.3" r="3" fill="#3fb950"/><circle cx="296.6" cy="190.3" r="3" fill="#3fb950"/><circle cx="299.9" cy="190.3" r="3" fill="#3fb950"/><circle cx="303.2" cy="190.3" r="3" fill="#3fb950"/><circle cx="306.6" cy="189.3" r="3" fill="#3fb950"/><circle cx="309.9" cy="189.3" r="3" fill="#3fb950"/><circle cx="313.3" cy="189.3" r="3" fill="#3fb950"/><circle cx="316.6" cy="190.7" r="3" fill="#3fb950"/><circle cx="319.9" cy="190.7" r="3" fill="#3fb950"/><circle cx="323.3" cy="190.7" r="3" fill="#3fb950"/><circle cx="326.6" cy="190.7" r="3" fill="#3fb950"/><circle cx="330.0" cy="190.7" r="3" fill="#3fb950"/><circle cx="333.3" cy="190.7" r="3" fill="#3fb950"/><circle cx="336.6" cy="190.7" r="3" fill="#3fb950"/><circle cx="340.0" cy="190.7" r="3" fill="#3fb950"/><circle cx="343.3" cy="190.7" r="3" fill="#3fb950"/><circle cx="346.7" cy="190.9" r="3" fill="#3fb950"/><circle cx="350.0" cy="190.9" r="3" fill="#3fb950"/><circle cx="353.3" cy="190.9" r="3" fill="#3fb950"/><circle cx="356.7" cy="194.2" r="3" fill="#3fb950"/><circle cx="360.0" cy="196.8" r="3" fill="#3fb950"/><circle cx="363.4" cy="198.0" r="3" fill="#3fb950"/><circle cx="366.7" cy="198.0" r="3" fill="#3fb950"/><circle cx="370.0" cy="198.0" r="3" fill="#3fb950"/><circle cx="373.4" cy="198.0" r="3" fill="#3fb950"/><circle cx="376.7" cy="198.0" r="3" fill="#3fb950"/><circle cx="380.1" cy="198.0" r="3" fill="#3fb950"/><circle cx="383.4" cy="198.0" r="3" fill="#3fb950"/><circle cx="386.7" cy="198.0" r="3" fill="#3fb950"/><circle cx="390.1" cy="198.0" r="3" fill="#3fb950"/><circle cx="393.4" cy="198.0" r="3" fill="#3fb950"/><circle cx="396.8" cy="198.0" r="3" fill="#3fb950"/><circle cx="400.1" cy="198.0" r="3" fill="#3fb950"/><circle cx="403.4" cy="198.0" r="3" fill="#3fb950"/><circle cx="406.8" cy="198.0" r="3" fill="#3fb950"/><circle cx="410.1" cy="198.0" r="3" fill="#3fb950"/><circle cx="413.5" cy="198.0" r="3" fill="#3fb950"/><circle cx="416.8" cy="198.0" r="3" fill="#3fb950"/><circle cx="420.1" cy="198.0" r="3" fill="#3fb950"/><circle cx="423.5" cy="198.0" r="3" fill="#3fb950"/><circle cx="426.8" cy="198.0" r="3" fill="#3fb950"/><circle cx="430.2" cy="198.0" r="3" fill="#3fb950"/><circle cx="433.5" cy="198.0" r="3" fill="#3fb950"/><circle cx="436.9" cy="198.0" r="3" fill="#3fb950"/><circle cx="440.2" cy="198.0" r="3" fill="#3fb950"/><circle cx="443.5" cy="198.0" r="3" fill="#3fb950"/><circle cx="446.9" cy="198.0" r="3" fill="#3fb950"/><circle cx="450.2" cy="198.0" r="3" fill="#3fb950"/><circle cx="453.6" cy="198.0" r="3" fill="#3fb950"/><circle cx="456.9" cy="198.0" r="3" fill="#3fb950"/><circle cx="460.2" cy="198.0" r="3" fill="#3fb950"/><circle cx="463.6" cy="198.0" r="3" fill="#3fb950"/><circle cx="466.9" cy="198.0" r="3" fill="#3fb950"/><circle cx="470.3" cy="198.0" r="3" fill="#3fb950"/><circle cx="473.6" cy="198.0" r="3" fill="#3fb950"/><circle cx="476.9" cy="198.0" r="3" fill="#3fb950"/><circle cx="480.3" cy="198.0" r="3" fill="#3fb950"/><circle cx="483.6" cy="198.0" r="3" fill="#3fb950"/><circle cx="487.0" cy="198.0" r="3" fill="#3fb950"/><circle cx="490.3" cy="198.0" r="3" fill="#3fb950"/><circle cx="493.6" cy="198.0" r="3" fill="#3fb950"/><circle cx="497.0" cy="198.0" r="3" fill="#3fb950"/><circle cx="500.3" cy="198.0" r="3" fill="#3fb950"/><circle cx="503.7" cy="198.0" r="3" fill="#3fb950"/><circle cx="507.0" cy="198.0" r="3" fill="#3fb950"/><circle cx="510.3" cy="198.0" r="3" fill="#3fb950"/><circle cx="513.7" cy="198.0" r="3" fill="#3fb950"/><circle cx="517.0" cy="198.0" r="3" fill="#3fb950"/><circle cx="520.4" cy="198.0" r="3" fill="#3fb950"/><circle cx="523.7" cy="198.0" r="3" fill="#3fb950"/><circle cx="527.0" cy="198.0" r="3" fill="#3fb950"/><circle cx="530.4" cy="198.0" r="3" fill="#3fb950"/><circle cx="533.7" cy="198.0" r="3" fill="#3fb950"/><circle cx="537.1" cy="198.0" r="3" fill="#3fb950"/><circle cx="540.4" cy="198.0" r="3" fill="#3fb950"/><circle cx="543.7" cy="198.0" r="3" fill="#3fb950"/><circle cx="547.1" cy="198.0" r="3" fill="#3fb950"/><circle cx="550.4" cy="198.0" r="3" fill="#3fb950"/><circle cx="553.8" cy="198.0" r="3" fill="#3fb950"/><circle cx="557.1" cy="198.0" r="3" fill="#3fb950"/><circle cx="560.4" cy="198.0" r="3" fill="#3fb950"/><circle cx="563.8" cy="198.0" r="3" fill="#3fb950"/><circle cx="567.1" cy="198.0" r="3" fill="#3fb950"/><circle cx="570.5" cy="198.0" r="3" fill="#3fb950"/><circle cx="573.8" cy="198.0" r="3" fill="#3fb950"/><circle cx="577.1" cy="198.0" r="3" fill="#3fb950"/><circle cx="580.5" cy="198.0" r="3" fill="#3fb950"/><circle cx="583.8" cy="198.0" r="3" fill="#3fb950"/><circle cx="587.2" cy="198.0" r="3" fill="#3fb950"/><circle cx="590.5" cy="198.0" r="3" fill="#3fb950"/><circle cx="593.9" cy="198.0" r="3" fill="#3fb950"/><circle cx="597.2" cy="198.0" r="3" fill="#3fb950"/><circle cx="600.5" cy="198.0" r="3" fill="#3fb950"/><circle cx="603.9" cy="198.0" r="3" fill="#3fb950"/><circle cx="607.2" cy="198.0" r="3" fill="#3fb950"/><circle cx="610.6" cy="198.0" r="3" fill="#3fb950"/><circle cx="613.9" cy="198.0" r="3" fill="#3fb950"/><circle cx="617.2" cy="198.0" r="3" fill="#3fb950"/><circle cx="620.6" cy="198.0" r="3" fill="#3fb950"/><circle cx="623.9" cy="198.0" r="3" fill="#3fb950"/><circle cx="627.3" cy="198.0" r="3" fill="#3fb950"/><circle cx="630.6" cy="198.0" r="3" fill="#3fb950"/><circle cx="633.9" cy="198.0" r="3" fill="#3fb950"/><circle cx="637.3" cy="198.0" r="3" fill="#3fb950"/><circle cx="640.6" cy="198.0" r="3" fill="#3fb950"/><circle cx="644.0" cy="198.0" r="3" fill="#3fb950"/><circle cx="647.3" cy="198.0" r="3" fill="#3fb950"/><circle cx="650.6" cy="198.0" r="3" fill="#3fb950"/><circle cx="654.0" cy="198.0" r="3" fill="#3fb950"/><circle cx="657.3" cy="198.0" r="3" fill="#3fb950"/><circle cx="660.7" cy="198.0" r="3" fill="#3fb950"/><circle cx="664.0" cy="198.0" r="3" fill="#3fb950"/>
<polyline fill="none" stroke="#4aa3ff" stroke-width="2.5" stroke-linejoin="round" points="36.0,144.3 39.3,144.3 42.7,144.3 46.0,144.3 49.4,144.3 52.7,144.3 56.0,144.3 59.4,144.3 62.7,144.3 66.1,144.3 69.4,144.3 72.7,144.3 76.1,144.3 79.4,144.3 82.8,144.3 86.1,136.2 89.4,132.4 92.8,129.6 96.1,129.6 99.5,121.0 102.8,121.0 106.1,121.0 109.5,114.4 112.8,114.4 116.2,114.4 119.5,111.3 122.9,110.9 126.2,110.9 129.5,110.5 132.9,110.5 136.2,109.9 139.6,108.7 142.9,107.3 146.2,106.9 149.6,106.9 152.9,106.9 156.3,106.9 159.6,106.9 162.9,106.9 166.3,106.9 169.6,106.9 173.0,106.9 176.3,106.9 179.6,113.2 183.0,113.2 186.3,113.2 189.7,113.2 193.0,113.2 196.3,110.7 199.7,105.3 203.0,83.4 206.4,83.4 209.7,85.6 213.0,85.6 216.4,85.6 219.7,85.6 223.1,85.6 226.4,85.8 229.7,85.8 233.1,85.8 236.4,86.0 239.8,86.0 243.1,86.0 246.4,86.0 249.8,86.0 253.1,86.0 256.5,86.0 259.8,86.0 263.1,86.0 266.5,86.0 269.8,86.0 273.2,86.0 276.5,86.0 279.9,86.0 283.2,86.0 286.5,86.0 289.9,86.0 293.2,86.0 296.6,86.0 299.9,86.0 303.2,86.0 306.6,87.0 309.9,87.0 313.3,87.0 316.6,73.7 319.9,73.7 323.3,71.0 326.6,71.0 330.0,70.8 333.3,70.6 336.6,70.6 340.0,70.4 343.3,68.6 346.7,60.5 350.0,59.3 353.3,52.0 356.7,47.3 360.0,40.1 363.4,36.0 366.7,36.0 370.0,36.0 373.4,36.0 376.7,36.0 380.1,36.0 383.4,36.0 386.7,36.0 390.1,36.0 393.4,36.0 396.8,36.0 400.1,36.0 403.4,36.0 406.8,36.0 410.1,36.0 413.5,36.0 416.8,36.0 420.1,36.0 423.5,36.0 426.8,36.0 430.2,36.0 433.5,36.0 436.9,36.0 440.2,36.0 443.5,36.0 446.9,36.0 450.2,36.0 453.6,36.0 456.9,36.0 460.2,36.0 463.6,36.0 466.9,36.0 470.3,36.0 473.6,36.0 476.9,36.0 480.3,36.0 483.6,36.0 487.0,36.0 490.3,36.0 493.6,36.0 497.0,36.0 500.3,36.0 503.7,36.0 507.0,36.0 510.3,36.0 513.7,36.0 517.0,36.0 520.4,36.0 523.7,36.0 527.0,36.0 530.4,36.0 533.7,36.0 537.1,36.0 540.4,36.0 543.7,36.0 547.1,36.0 550.4,36.0 553.8,36.0 557.1,36.0 560.4,36.0 563.8,36.0 567.1,36.0 570.5,36.0 573.8,36.0 577.1,36.0 580.5,36.0 583.8,36.0 587.2,36.0 590.5,36.0 593.9,36.0 597.2,36.0 600.5,36.0 603.9,36.0 607.2,36.0 610.6,36.0 613.9,36.0 617.2,36.0 620.6,36.0 623.9,36.0 627.3,36.0 630.6,36.0 633.9,36.0 637.3,36.0 640.6,36.0 644.0,36.0 647.3,36.0 650.6,36.0 654.0,36.0 657.3,36.0 660.7,36.0 664.0,36.0"/><circle cx="36.0" cy="144.3" r="3" fill="#4aa3ff"/><circle cx="39.3" cy="144.3" r="3" fill="#4aa3ff"/><circle cx="42.7" cy="144.3" r="3" fill="#4aa3ff"/><circle cx="46.0" cy="144.3" r="3" fill="#4aa3ff"/><circle cx="49.4" cy="144.3" r="3" fill="#4aa3ff"/><circle cx="52.7" cy="144.3" r="3" fill="#4aa3ff"/><circle cx="56.0" cy="144.3" r="3" fill="#4aa3ff"/><circle cx="59.4" cy="144.3" r="3" fill="#4aa3ff"/><circle cx="62.7" cy="144.3" r="3" fill="#4aa3ff"/><circle cx="66.1" cy="144.3" r="3" fill="#4aa3ff"/><circle cx="69.4" cy="144.3" r="3" fill="#4aa3ff"/><circle cx="72.7" cy="144.3" r="3" fill="#4aa3ff"/><circle cx="76.1" cy="144.3" r="3" fill="#4aa3ff"/><circle cx="79.4" cy="144.3" r="3" fill="#4aa3ff"/><circle cx="82.8" cy="144.3" r="3" fill="#4aa3ff"/><circle cx="86.1" cy="136.2" r="3" fill="#4aa3ff"/><circle cx="89.4" cy="132.4" r="3" fill="#4aa3ff"/><circle cx="92.8" cy="129.6" r="3" fill="#4aa3ff"/><circle cx="96.1" cy="129.6" r="3" fill="#4aa3ff"/><circle cx="99.5" cy="121.0" r="3" fill="#4aa3ff"/><circle cx="102.8" cy="121.0" r="3" fill="#4aa3ff"/><circle cx="106.1" cy="121.0" r="3" fill="#4aa3ff"/><circle cx="109.5" cy="114.4" r="3" fill="#4aa3ff"/><circle cx="112.8" cy="114.4" r="3" fill="#4aa3ff"/><circle cx="116.2" cy="114.4" r="3" fill="#4aa3ff"/><circle cx="119.5" cy="111.3" r="3" fill="#4aa3ff"/><circle cx="122.9" cy="110.9" r="3" fill="#4aa3ff"/><circle cx="126.2" cy="110.9" r="3" fill="#4aa3ff"/><circle cx="129.5" cy="110.5" r="3" fill="#4aa3ff"/><circle cx="132.9" cy="110.5" r="3" fill="#4aa3ff"/><circle cx="136.2" cy="109.9" r="3" fill="#4aa3ff"/><circle cx="139.6" cy="108.7" r="3" fill="#4aa3ff"/><circle cx="142.9" cy="107.3" r="3" fill="#4aa3ff"/><circle cx="146.2" cy="106.9" r="3" fill="#4aa3ff"/><circle cx="149.6" cy="106.9" r="3" fill="#4aa3ff"/><circle cx="152.9" cy="106.9" r="3" fill="#4aa3ff"/><circle cx="156.3" cy="106.9" r="3" fill="#4aa3ff"/><circle cx="159.6" cy="106.9" r="3" fill="#4aa3ff"/><circle cx="162.9" cy="106.9" r="3" fill="#4aa3ff"/><circle cx="166.3" cy="106.9" r="3" fill="#4aa3ff"/><circle cx="169.6" cy="106.9" r="3" fill="#4aa3ff"/><circle cx="173.0" cy="106.9" r="3" fill="#4aa3ff"/><circle cx="176.3" cy="106.9" r="3" fill="#4aa3ff"/><circle cx="179.6" cy="113.2" r="3" fill="#4aa3ff"/><circle cx="183.0" cy="113.2" r="3" fill="#4aa3ff"/><circle cx="186.3" cy="113.2" r="3" fill="#4aa3ff"/><circle cx="189.7" cy="113.2" r="3" fill="#4aa3ff"/><circle cx="193.0" cy="113.2" r="3" fill="#4aa3ff"/><circle cx="196.3" cy="110.7" r="3" fill="#4aa3ff"/><circle cx="199.7" cy="105.3" r="3" fill="#4aa3ff"/><circle cx="203.0" cy="83.4" r="3" fill="#4aa3ff"/><circle cx="206.4" cy="83.4" r="3" fill="#4aa3ff"/><circle cx="209.7" cy="85.6" r="3" fill="#4aa3ff"/><circle cx="213.0" cy="85.6" r="3" fill="#4aa3ff"/><circle cx="216.4" cy="85.6" r="3" fill="#4aa3ff"/><circle cx="219.7" cy="85.6" r="3" fill="#4aa3ff"/><circle cx="223.1" cy="85.6" r="3" fill="#4aa3ff"/><circle cx="226.4" cy="85.8" r="3" fill="#4aa3ff"/><circle cx="229.7" cy="85.8" r="3" fill="#4aa3ff"/><circle cx="233.1" cy="85.8" r="3" fill="#4aa3ff"/><circle cx="236.4" cy="86.0" r="3" fill="#4aa3ff"/><circle cx="239.8" cy="86.0" r="3" fill="#4aa3ff"/><circle cx="243.1" cy="86.0" r="3" fill="#4aa3ff"/><circle cx="246.4" cy="86.0" r="3" fill="#4aa3ff"/><circle cx="249.8" cy="86.0" r="3" fill="#4aa3ff"/><circle cx="253.1" cy="86.0" r="3" fill="#4aa3ff"/><circle cx="256.5" cy="86.0" r="3" fill="#4aa3ff"/><circle cx="259.8" cy="86.0" r="3" fill="#4aa3ff"/><circle cx="263.1" cy="86.0" r="3" fill="#4aa3ff"/><circle cx="266.5" cy="86.0" r="3" fill="#4aa3ff"/><circle cx="269.8" cy="86.0" r="3" fill="#4aa3ff"/><circle cx="273.2" cy="86.0" r="3" fill="#4aa3ff"/><circle cx="276.5" cy="86.0" r="3" fill="#4aa3ff"/><circle cx="279.9" cy="86.0" r="3" fill="#4aa3ff"/><circle cx="283.2" cy="86.0" r="3" fill="#4aa3ff"/><circle cx="286.5" cy="86.0" r="3" fill="#4aa3ff"/><circle cx="289.9" cy="86.0" r="3" fill="#4aa3ff"/><circle cx="293.2" cy="86.0" r="3" fill="#4aa3ff"/><circle cx="296.6" cy="86.0" r="3" fill="#4aa3ff"/><circle cx="299.9" cy="86.0" r="3" fill="#4aa3ff"/><circle cx="303.2" cy="86.0" r="3" fill="#4aa3ff"/><circle cx="306.6" cy="87.0" r="3" fill="#4aa3ff"/><circle cx="309.9" cy="87.0" r="3" fill="#4aa3ff"/><circle cx="313.3" cy="87.0" r="3" fill="#4aa3ff"/><circle cx="316.6" cy="73.7" r="3" fill="#4aa3ff"/><circle cx="319.9" cy="73.7" r="3" fill="#4aa3ff"/><circle cx="323.3" cy="71.0" r="3" fill="#4aa3ff"/><circle cx="326.6" cy="71.0" r="3" fill="#4aa3ff"/><circle cx="330.0" cy="70.8" r="3" fill="#4aa3ff"/><circle cx="333.3" cy="70.6" r="3" fill="#4aa3ff"/><circle cx="336.6" cy="70.6" r="3" fill="#4aa3ff"/><circle cx="340.0" cy="70.4" r="3" fill="#4aa3ff"/><circle cx="343.3" cy="68.6" r="3" fill="#4aa3ff"/><circle cx="346.7" cy="60.5" r="3" fill="#4aa3ff"/><circle cx="350.0" cy="59.3" r="3" fill="#4aa3ff"/><circle cx="353.3" cy="52.0" r="3" fill="#4aa3ff"/><circle cx="356.7" cy="47.3" r="3" fill="#4aa3ff"/><circle cx="360.0" cy="40.1" r="3" fill="#4aa3ff"/><circle cx="363.4" cy="36.0" r="3" fill="#4aa3ff"/><circle cx="366.7" cy="36.0" r="3" fill="#4aa3ff"/><circle cx="370.0" cy="36.0" r="3" fill="#4aa3ff"/><circle cx="373.4" cy="36.0" r="3" fill="#4aa3ff"/><circle cx="376.7" cy="36.0" r="3" fill="#4aa3ff"/><circle cx="380.1" cy="36.0" r="3" fill="#4aa3ff"/><circle cx="383.4" cy="36.0" r="3" fill="#4aa3ff"/><circle cx="386.7" cy="36.0" r="3" fill="#4aa3ff"/><circle cx="390.1" cy="36.0" r="3" fill="#4aa3ff"/><circle cx="393.4" cy="36.0" r="3" fill="#4aa3ff"/><circle cx="396.8" cy="36.0" r="3" fill="#4aa3ff"/><circle cx="400.1" cy="36.0" r="3" fill="#4aa3ff"/><circle cx="403.4" cy="36.0" r="3" fill="#4aa3ff"/><circle cx="406.8" cy="36.0" r="3" fill="#4aa3ff"/><circle cx="410.1" cy="36.0" r="3" fill="#4aa3ff"/><circle cx="413.5" cy="36.0" r="3" fill="#4aa3ff"/><circle cx="416.8" cy="36.0" r="3" fill="#4aa3ff"/><circle cx="420.1" cy="36.0" r="3" fill="#4aa3ff"/><circle cx="423.5" cy="36.0" r="3" fill="#4aa3ff"/><circle cx="426.8" cy="36.0" r="3" fill="#4aa3ff"/><circle cx="430.2" cy="36.0" r="3" fill="#4aa3ff"/><circle cx="433.5" cy="36.0" r="3" fill="#4aa3ff"/><circle cx="436.9" cy="36.0" r="3" fill="#4aa3ff"/><circle cx="440.2" cy="36.0" r="3" fill="#4aa3ff"/><circle cx="443.5" cy="36.0" r="3" fill="#4aa3ff"/><circle cx="446.9" cy="36.0" r="3" fill="#4aa3ff"/><circle cx="450.2" cy="36.0" r="3" fill="#4aa3ff"/><circle cx="453.6" cy="36.0" r="3" fill="#4aa3ff"/><circle cx="456.9" cy="36.0" r="3" fill="#4aa3ff"/><circle cx="460.2" cy="36.0" r="3" fill="#4aa3ff"/><circle cx="463.6" cy="36.0" r="3" fill="#4aa3ff"/><circle cx="466.9" cy="36.0" r="3" fill="#4aa3ff"/><circle cx="470.3" cy="36.0" r="3" fill="#4aa3ff"/><circle cx="473.6" cy="36.0" r="3" fill="#4aa3ff"/><circle cx="476.9" cy="36.0" r="3" fill="#4aa3ff"/><circle cx="480.3" cy="36.0" r="3" fill="#4aa3ff"/><circle cx="483.6" cy="36.0" r="3" fill="#4aa3ff"/><circle cx="487.0" cy="36.0" r="3" fill="#4aa3ff"/><circle cx="490.3" cy="36.0" r="3" fill="#4aa3ff"/><circle cx="493.6" cy="36.0" r="3" fill="#4aa3ff"/><circle cx="497.0" cy="36.0" r="3" fill="#4aa3ff"/><circle cx="500.3" cy="36.0" r="3" fill="#4aa3ff"/><circle cx="503.7" cy="36.0" r="3" fill="#4aa3ff"/><circle cx="507.0" cy="36.0" r="3" fill="#4aa3ff"/><circle cx="510.3" cy="36.0" r="3" fill="#4aa3ff"/><circle cx="513.7" cy="36.0" r="3" fill="#4aa3ff"/><circle cx="517.0" cy="36.0" r="3" fill="#4aa3ff"/><circle cx="520.4" cy="36.0" r="3" fill="#4aa3ff"/><circle cx="523.7" cy="36.0" r="3" fill="#4aa3ff"/><circle cx="527.0" cy="36.0" r="3" fill="#4aa3ff"/><circle cx="530.4" cy="36.0" r="3" fill="#4aa3ff"/><circle cx="533.7" cy="36.0" r="3" fill="#4aa3ff"/><circle cx="537.1" cy="36.0" r="3" fill="#4aa3ff"/><circle cx="540.4" cy="36.0" r="3" fill="#4aa3ff"/><circle cx="543.7" cy="36.0" r="3" fill="#4aa3ff"/><circle cx="547.1" cy="36.0" r="3" fill="#4aa3ff"/><circle cx="550.4" cy="36.0" r="3" fill="#4aa3ff"/><circle cx="553.8" cy="36.0" r="3" fill="#4aa3ff"/><circle cx="557.1" cy="36.0" r="3" fill="#4aa3ff"/><circle cx="560.4" cy="36.0" r="3" fill="#4aa3ff"/><circle cx="563.8" cy="36.0" r="3" fill="#4aa3ff"/><circle cx="567.1" cy="36.0" r="3" fill="#4aa3ff"/><circle cx="570.5" cy="36.0" r="3" fill="#4aa3ff"/><circle cx="573.8" cy="36.0" r="3" fill="#4aa3ff"/><circle cx="577.1" cy="36.0" r="3" fill="#4aa3ff"/><circle cx="580.5" cy="36.0" r="3" fill="#4aa3ff"/><circle cx="583.8" cy="36.0" r="3" fill="#4aa3ff"/><circle cx="587.2" cy="36.0" r="3" fill="#4aa3ff"/><circle cx="590.5" cy="36.0" r="3" fill="#4aa3ff"/><circle cx="593.9" cy="36.0" r="3" fill="#4aa3ff"/><circle cx="597.2" cy="36.0" r="3" fill="#4aa3ff"/><circle cx="600.5" cy="36.0" r="3" fill="#4aa3ff"/><circle cx="603.9" cy="36.0" r="3" fill="#4aa3ff"/><circle cx="607.2" cy="36.0" r="3" fill="#4aa3ff"/><circle cx="610.6" cy="36.0" r="3" fill="#4aa3ff"/><circle cx="613.9" cy="36.0" r="3" fill="#4aa3ff"/><circle cx="617.2" cy="36.0" r="3" fill="#4aa3ff"/><circle cx="620.6" cy="36.0" r="3" fill="#4aa3ff"/><circle cx="623.9" cy="36.0" r="3" fill="#4aa3ff"/><circle cx="627.3" cy="36.0" r="3" fill="#4aa3ff"/><circle cx="630.6" cy="36.0" r="3" fill="#4aa3ff"/><circle cx="633.9" cy="36.0" r="3" fill="#4aa3ff"/><circle cx="637.3" cy="36.0" r="3" fill="#4aa3ff"/><circle cx="640.6" cy="36.0" r="3" fill="#4aa3ff"/><circle cx="644.0" cy="36.0" r="3" fill="#4aa3ff"/><circle cx="647.3" cy="36.0" r="3" fill="#4aa3ff"/><circle cx="650.6" cy="36.0" r="3" fill="#4aa3ff"/><circle cx="654.0" cy="36.0" r="3" fill="#4aa3ff"/><circle cx="657.3" cy="36.0" r="3" fill="#4aa3ff"/><circle cx="660.7" cy="36.0" r="3" fill="#4aa3ff"/><circle cx="664.0" cy="36.0" r="3" fill="#4aa3ff"/>
<text x="36" y="225" fill="#6b7280" font-size="11">2026-06-26</text>
<text x="664" y="225" fill="#6b7280" font-size="11" text-anchor="end">2026-07-15</text>
<text x="36" y="212" font-family="system-ui,sans-serif" font-size="11">
<tspan fill="#4aa3ff">&#9679; open FPs</tspan>  <tspan fill="#3fb950">&#9679; closed (Anthropic acting)</tspan>  <tspan fill="#8a5a5a">&#9679; harness withdrawn</tspan></text>
<text x="664" y="22" text-anchor="end" font-family="system-ui,sans-serif" font-size="12">
<tspan fill="#4aa3ff">open 800</tspan>  <tspan fill="#3fb950">closed 0</tspan>  <tspan fill="#8a5a5a">harness 0</tspan></text>
</svg>