<svg xmlns="http://www.w3.org/2000/svg" width="700" height="234" viewBox="0 0 700 234" role="img">
<rect width="700" height="234" rx="12" fill="#16181d"/>
<text x="36" y="22" fill="#e8eaed" font-family="system-ui,sans-serif" font-size="14" font-weight="700">Is Anthropic acting? cyber/aup false positives over time</text>
<line x1="36" y1="198.0" x2="664" y2="198.0" stroke="#2a2e37" stroke-width="1"/><text x="30" y="202.0" fill="#6b7280" font-size="11" text-anchor="end">0</text><line x1="36" y1="117.0" x2="664" y2="117.0" stroke="#2a2e37" stroke-width="1"/><text x="30" y="121.0" fill="#6b7280" font-size="11" text-anchor="end">215</text><line x1="36" y1="36.0" x2="664" y2="36.0" stroke="#2a2e37" stroke-width="1"/><text x="30" y="40.0" fill="#6b7280" font-size="11" text-anchor="end">430</text>

<polyline fill="none" stroke="#8a5a5a" stroke-width="2.5" stroke-linejoin="round" points="36.0,99.7 60.2,99.7 84.3,99.7 108.5,99.7 132.6,99.7 156.8,99.7 180.9,99.7 205.1,99.7 229.2,99.7 253.4,99.7 277.5,99.7 301.7,99.7 325.8,99.7 350.0,99.7 374.2,99.7 398.3,99.7 422.5,99.7 446.6,99.7 470.8,99.7 494.9,99.7 519.1,99.7 543.2,99.7 567.4,99.7 591.5,99.7 615.7,99.7 639.8,99.7 664.0,99.7"/><circle cx="36.0" cy="99.7" r="3" fill="#8a5a5a"/><circle cx="60.2" cy="99.7" r="3" fill="#8a5a5a"/><circle cx="84.3" cy="99.7" r="3" fill="#8a5a5a"/><circle cx="108.5" cy="99.7" r="3" fill="#8a5a5a"/><circle cx="132.6" cy="99.7" r="3" fill="#8a5a5a"/><circle cx="156.8" cy="99.7" r="3" fill="#8a5a5a"/><circle cx="180.9" cy="99.7" r="3" fill="#8a5a5a"/><circle cx="205.1" cy="99.7" r="3" fill="#8a5a5a"/><circle cx="229.2" cy="99.7" r="3" fill="#8a5a5a"/><circle cx="253.4" cy="99.7" r="3" fill="#8a5a5a"/><circle cx="277.5" cy="99.7" r="3" fill="#8a5a5a"/><circle cx="301.7" cy="99.7" r="3" fill="#8a5a5a"/><circle cx="325.8" cy="99.7" r="3" fill="#8a5a5a"/><circle cx="350.0" cy="99.7" r="3" fill="#8a5a5a"/><circle cx="374.2" cy="99.7" r="3" fill="#8a5a5a"/><circle cx="398.3" cy="99.7" r="3" fill="#8a5a5a"/><circle cx="422.5" cy="99.7" r="3" fill="#8a5a5a"/><circle cx="446.6" cy="99.7" r="3" fill="#8a5a5a"/><circle cx="470.8" cy="99.7" r="3" fill="#8a5a5a"/><circle cx="494.9" cy="99.7" r="3" fill="#8a5a5a"/><circle cx="519.1" cy="99.7" r="3" fill="#8a5a5a"/><circle cx="543.2" cy="99.7" r="3" fill="#8a5a5a"/><circle cx="567.4" cy="99.7" r="3" fill="#8a5a5a"/><circle cx="591.5" cy="99.7" r="3" fill="#8a5a5a"/><circle cx="615.7" cy="99.7" r="3" fill="#8a5a5a"/><circle cx="639.8" cy="99.7" r="3" fill="#8a5a5a"/><circle cx="664.0" cy="99.7" r="3" fill="#8a5a5a"/>
<polyline fill="none" stroke="#3fb950" stroke-width="2.5" stroke-linejoin="round" points="36.0,198.0 60.2,198.0 84.3,198.0 108.5,198.0 132.6,198.0 156.8,198.0 180.9,198.0 205.1,198.0 229.2,198.0 253.4,198.0 277.5,198.0 301.7,198.0 325.8,198.0 350.0,198.0 374.2,198.0 398.3,198.0 422.5,198.0 446.6,198.0 470.8,198.0 494.9,198.0 519.1,198.0 543.2,198.0 567.4,198.0 591.5,198.0 615.7,198.0 639.8,198.0 664.0,198.0"/><circle cx="36.0" cy="198.0" r="3" fill="#3fb950"/><circle cx="60.2" cy="198.0" r="3" fill="#3fb950"/><circle cx="84.3" cy="198.0" r="3" fill="#3fb950"/><circle cx="108.5" cy="198.0" r="3" fill="#3fb950"/><circle cx="132.6" cy="198.0" r="3" fill="#3fb950"/><circle cx="156.8" cy="198.0" r="3" fill="#3fb950"/><circle cx="180.9" cy="198.0" r="3" fill="#3fb950"/><circle cx="205.1" cy="198.0" r="3" fill="#3fb950"/><circle cx="229.2" cy="198.0" r="3" fill="#3fb950"/><circle cx="253.4" cy="198.0" r="3" fill="#3fb950"/><circle cx="277.5" cy="198.0" r="3" fill="#3fb950"/><circle cx="301.7" cy="198.0" r="3" fill="#3fb950"/><circle cx="325.8" cy="198.0" r="3" fill="#3fb950"/><circle cx="350.0" cy="198.0" r="3" fill="#3fb950"/><circle cx="374.2" cy="198.0" r="3" fill="#3fb950"/><circle cx="398.3" cy="198.0" r="3" fill="#3fb950"/><circle cx="422.5" cy="198.0" r="3" fill="#3fb950"/><circle cx="446.6" cy="198.0" r="3" fill="#3fb950"/><circle cx="470.8" cy="198.0" r="3" fill="#3fb950"/><circle cx="494.9" cy="198.0" r="3" fill="#3fb950"/><circle cx="519.1" cy="198.0" r="3" fill="#3fb950"/><circle cx="543.2" cy="198.0" r="3" fill="#3fb950"/><circle cx="567.4" cy="198.0" r="3" fill="#3fb950"/><circle cx="591.5" cy="198.0" r="3" fill="#3fb950"/><circle cx="615.7" cy="198.0" r="3" fill="#3fb950"/><circle cx="639.8" cy="198.0" r="3" fill="#3fb950"/><circle cx="664.0" cy="198.0" r="3" fill="#3fb950"/>
<polyline fill="none" stroke="#4aa3ff" stroke-width="2.5" stroke-linejoin="round" points="36.0,98.2 60.2,98.2 84.3,98.2 108.5,98.2 132.6,98.2 156.8,98.2 180.9,98.2 205.1,98.2 229.2,98.2 253.4,98.2 277.5,98.2 301.7,98.2 325.8,98.2 350.0,98.2 374.2,98.2 398.3,83.1 422.5,75.9 446.6,70.7 470.8,70.7 494.9,54.8 519.1,54.8 543.2,54.8 567.4,42.4 591.5,42.4 615.7,42.4 639.8,36.8 664.0,36.0"/><circle cx="36.0" cy="98.2" r="3" fill="#4aa3ff"/><circle cx="60.2" cy="98.2" r="3" fill="#4aa3ff"/><circle cx="84.3" cy="98.2" r="3" fill="#4aa3ff"/><circle cx="108.5" cy="98.2" r="3" fill="#4aa3ff"/><circle cx="132.6" cy="98.2" r="3" fill="#4aa3ff"/><circle cx="156.8" cy="98.2" r="3" fill="#4aa3ff"/><circle cx="180.9" cy="98.2" r="3" fill="#4aa3ff"/><circle cx="205.1" cy="98.2" r="3" fill="#4aa3ff"/><circle cx="229.2" cy="98.2" r="3" fill="#4aa3ff"/><circle cx="253.4" cy="98.2" r="3" fill="#4aa3ff"/><circle cx="277.5" cy="98.2" r="3" fill="#4aa3ff"/><circle cx="301.7" cy="98.2" r="3" fill="#4aa3ff"/><circle cx="325.8" cy="98.2" r="3" fill="#4aa3ff"/><circle cx="350.0" cy="98.2" r="3" fill="#4aa3ff"/><circle cx="374.2" cy="98.2" r="3" fill="#4aa3ff"/><circle cx="398.3" cy="83.1" r="3" fill="#4aa3ff"/><circle cx="422.5" cy="75.9" r="3" fill="#4aa3ff"/><circle cx="446.6" cy="70.7" r="3" fill="#4aa3ff"/><circle cx="470.8" cy="70.7" r="3" fill="#4aa3ff"/><circle cx="494.9" cy="54.8" r="3" fill="#4aa3ff"/><circle cx="519.1" cy="54.8" r="3" fill="#4aa3ff"/><circle cx="543.2" cy="54.8" r="3" fill="#4aa3ff"/><circle cx="567.4" cy="42.4" r="3" fill="#4aa3ff"/><circle cx="591.5" cy="42.4" r="3" fill="#4aa3ff"/><circle cx="615.7" cy="42.4" r="3" fill="#4aa3ff"/><circle cx="639.8" cy="36.8" r="3" fill="#4aa3ff"/><circle cx="664.0" cy="36.0" r="3" fill="#4aa3ff"/>
<text x="36" y="225" fill="#6b7280" font-size="11">2026-06-26</text>
<text x="664" y="225" fill="#6b7280" font-size="11" text-anchor="end">2026-06-28</text>
<text x="36" y="212" font-family="system-ui,sans-serif" font-size="11">
<tspan fill="#4aa3ff">&#9679; open FPs</tspan>  <tspan fill="#3fb950">&#9679; closed (Anthropic acting)</tspan>  <tspan fill="#8a5a5a">&#9679; harness withdrawn</tspan></text>
<text x="664" y="22" text-anchor="end" font-family="system-ui,sans-serif" font-size="12">
<tspan fill="#4aa3ff">open 430</tspan>  <tspan fill="#3fb950">closed 0</tspan>  <tspan fill="#8a5a5a">harness 261</tspan></text>
</svg>