<svg xmlns="http://www.w3.org/2000/svg" width="700" height="234" viewBox="0 0 700 234" role="img">
<rect width="700" height="234" rx="12" fill="#16181d"/>
<text x="36" y="22" fill="#e8eaed" font-family="system-ui,sans-serif" font-size="14" font-weight="700">Is Anthropic acting? cyber/aup false positives over time</text>
<line x1="36" y1="198.0" x2="664" y2="198.0" stroke="#2a2e37" stroke-width="1"/><text x="30" y="202.0" fill="#6b7280" font-size="11" text-anchor="end">0</text><line x1="36" y1="117.0" x2="664" y2="117.0" stroke="#2a2e37" stroke-width="1"/><text x="30" y="121.0" fill="#6b7280" font-size="11" text-anchor="end">400</text><line x1="36" y1="36.0" x2="664" y2="36.0" stroke="#2a2e37" stroke-width="1"/><text x="30" y="40.0" fill="#6b7280" font-size="11" text-anchor="end">800</text>

<polyline fill="none" stroke="#8a5a5a" stroke-width="2.5" stroke-linejoin="round" points="36.0,145.1 40.8,145.1 45.7,145.1 50.5,145.1 55.3,145.1 60.2,145.1 65.0,145.1 69.8,145.1 74.6,145.1 79.5,145.1 84.3,145.1 89.1,145.1 94.0,145.1 98.8,145.1 103.6,145.1 108.5,145.1 113.3,145.1 118.1,145.1 123.0,145.1 127.8,145.1 132.6,145.1 137.4,145.1 142.3,145.1 147.1,145.1 151.9,145.1 156.8,145.1 161.6,145.1 166.4,145.1 171.3,145.1 176.1,145.1 180.9,145.1 185.8,145.1 190.6,145.1 195.4,145.1 200.2,145.1 205.1,145.1 209.9,145.1 214.7,145.1 219.6,145.1 224.4,145.1 229.2,145.1 234.1,145.1 238.9,145.1 243.7,145.1 248.6,145.1 253.4,145.1 258.2,145.1 263.0,145.1 267.9,145.1 272.7,145.1 277.5,155.7 282.4,155.7 287.2,155.7 292.0,155.7 296.9,155.7 301.7,155.7 306.5,155.7 311.4,155.7 316.2,155.7 321.0,155.7 325.8,155.7 330.7,155.7 335.5,155.7 340.3,155.7 345.2,155.7 350.0,155.7 354.8,155.7 359.7,155.7 364.5,155.7 369.3,155.7 374.2,155.7 379.0,155.7 383.8,155.7 388.6,155.7 393.5,155.7 398.3,155.7 403.1,155.7 408.0,155.7 412.8,155.7 417.6,155.7 422.5,155.7 427.3,155.7 432.1,155.7 437.0,155.7 441.8,167.6 446.6,167.6 451.4,170.3 456.3,170.3 461.1,170.5 465.9,170.7 470.8,170.7 475.6,170.9 480.4,172.7 485.3,180.6 490.1,181.8 494.9,189.1 499.8,190.5 504.6,195.2 509.4,198.0 514.2,198.0 519.1,198.0 523.9,198.0 528.7,198.0 533.6,198.0 538.4,198.0 543.2,198.0 548.1,198.0 552.9,198.0 557.7,198.0 562.6,198.0 567.4,198.0 572.2,198.0 577.0,198.0 581.9,198.0 586.7,198.0 591.5,198.0 596.4,198.0 601.2,198.0 606.0,198.0 610.9,198.0 615.7,198.0 620.5,198.0 625.4,198.0 630.2,198.0 635.0,198.0 639.8,198.0 644.7,198.0 649.5,198.0 654.3,198.0 659.2,198.0 664.0,198.0"/><circle cx="36.0" cy="145.1" r="3" fill="#8a5a5a"/><circle cx="40.8" cy="145.1" r="3" fill="#8a5a5a"/><circle cx="45.7" cy="145.1" r="3" fill="#8a5a5a"/><circle cx="50.5" cy="145.1" r="3" fill="#8a5a5a"/><circle cx="55.3" cy="145.1" r="3" fill="#8a5a5a"/><circle cx="60.2" cy="145.1" r="3" fill="#8a5a5a"/><circle cx="65.0" cy="145.1" r="3" fill="#8a5a5a"/><circle cx="69.8" cy="145.1" r="3" fill="#8a5a5a"/><circle cx="74.6" cy="145.1" r="3" fill="#8a5a5a"/><circle cx="79.5" cy="145.1" r="3" fill="#8a5a5a"/><circle cx="84.3" cy="145.1" r="3" fill="#8a5a5a"/><circle cx="89.1" cy="145.1" r="3" fill="#8a5a5a"/><circle cx="94.0" cy="145.1" r="3" fill="#8a5a5a"/><circle cx="98.8" cy="145.1" r="3" fill="#8a5a5a"/><circle cx="103.6" cy="145.1" r="3" fill="#8a5a5a"/><circle cx="108.5" cy="145.1" r="3" fill="#8a5a5a"/><circle cx="113.3" cy="145.1" r="3" fill="#8a5a5a"/><circle cx="118.1" cy="145.1" r="3" fill="#8a5a5a"/><circle cx="123.0" cy="145.1" r="3" fill="#8a5a5a"/><circle cx="127.8" cy="145.1" r="3" fill="#8a5a5a"/><circle cx="132.6" cy="145.1" r="3" fill="#8a5a5a"/><circle cx="137.4" cy="145.1" r="3" fill="#8a5a5a"/><circle cx="142.3" cy="145.1" r="3" fill="#8a5a5a"/><circle cx="147.1" cy="145.1" r="3" fill="#8a5a5a"/><circle cx="151.9" cy="145.1" r="3" fill="#8a5a5a"/><circle cx="156.8" cy="145.1" r="3" fill="#8a5a5a"/><circle cx="161.6" cy="145.1" r="3" fill="#8a5a5a"/><circle cx="166.4" cy="145.1" r="3" fill="#8a5a5a"/><circle cx="171.3" cy="145.1" r="3" fill="#8a5a5a"/><circle cx="176.1" cy="145.1" r="3" fill="#8a5a5a"/><circle cx="180.9" cy="145.1" r="3" fill="#8a5a5a"/><circle cx="185.8" cy="145.1" r="3" fill="#8a5a5a"/><circle cx="190.6" cy="145.1" r="3" fill="#8a5a5a"/><circle cx="195.4" cy="145.1" r="3" fill="#8a5a5a"/><circle cx="200.2" cy="145.1" r="3" fill="#8a5a5a"/><circle cx="205.1" cy="145.1" r="3" fill="#8a5a5a"/><circle cx="209.9" cy="145.1" r="3" fill="#8a5a5a"/><circle cx="214.7" cy="145.1" r="3" fill="#8a5a5a"/><circle cx="219.6" cy="145.1" r="3" fill="#8a5a5a"/><circle cx="224.4" cy="145.1" r="3" fill="#8a5a5a"/><circle cx="229.2" cy="145.1" r="3" fill="#8a5a5a"/><circle cx="234.1" cy="145.1" r="3" fill="#8a5a5a"/><circle cx="238.9" cy="145.1" r="3" fill="#8a5a5a"/><circle cx="243.7" cy="145.1" r="3" fill="#8a5a5a"/><circle cx="248.6" cy="145.1" r="3" fill="#8a5a5a"/><circle cx="253.4" cy="145.1" r="3" fill="#8a5a5a"/><circle cx="258.2" cy="145.1" r="3" fill="#8a5a5a"/><circle cx="263.0" cy="145.1" r="3" fill="#8a5a5a"/><circle cx="267.9" cy="145.1" r="3" fill="#8a5a5a"/><circle cx="272.7" cy="145.1" r="3" fill="#8a5a5a"/><circle cx="277.5" cy="155.7" r="3" fill="#8a5a5a"/><circle cx="282.4" cy="155.7" r="3" fill="#8a5a5a"/><circle cx="287.2" cy="155.7" r="3" fill="#8a5a5a"/><circle cx="292.0" cy="155.7" r="3" fill="#8a5a5a"/><circle cx="296.9" cy="155.7" r="3" fill="#8a5a5a"/><circle cx="301.7" cy="155.7" r="3" fill="#8a5a5a"/><circle cx="306.5" cy="155.7" r="3" fill="#8a5a5a"/><circle cx="311.4" cy="155.7" r="3" fill="#8a5a5a"/><circle cx="316.2" cy="155.7" r="3" fill="#8a5a5a"/><circle cx="321.0" cy="155.7" r="3" fill="#8a5a5a"/><circle cx="325.8" cy="155.7" r="3" fill="#8a5a5a"/><circle cx="330.7" cy="155.7" r="3" fill="#8a5a5a"/><circle cx="335.5" cy="155.7" r="3" fill="#8a5a5a"/><circle cx="340.3" cy="155.7" r="3" fill="#8a5a5a"/><circle cx="345.2" cy="155.7" r="3" fill="#8a5a5a"/><circle cx="350.0" cy="155.7" r="3" fill="#8a5a5a"/><circle cx="354.8" cy="155.7" r="3" fill="#8a5a5a"/><circle cx="359.7" cy="155.7" r="3" fill="#8a5a5a"/><circle cx="364.5" cy="155.7" r="3" fill="#8a5a5a"/><circle cx="369.3" cy="155.7" r="3" fill="#8a5a5a"/><circle cx="374.2" cy="155.7" r="3" fill="#8a5a5a"/><circle cx="379.0" cy="155.7" r="3" fill="#8a5a5a"/><circle cx="383.8" cy="155.7" r="3" fill="#8a5a5a"/><circle cx="388.6" cy="155.7" r="3" fill="#8a5a5a"/><circle cx="393.5" cy="155.7" r="3" fill="#8a5a5a"/><circle cx="398.3" cy="155.7" r="3" fill="#8a5a5a"/><circle cx="403.1" cy="155.7" r="3" fill="#8a5a5a"/><circle cx="408.0" cy="155.7" r="3" fill="#8a5a5a"/><circle cx="412.8" cy="155.7" r="3" fill="#8a5a5a"/><circle cx="417.6" cy="155.7" r="3" fill="#8a5a5a"/><circle cx="422.5" cy="155.7" r="3" fill="#8a5a5a"/><circle cx="427.3" cy="155.7" r="3" fill="#8a5a5a"/><circle cx="432.1" cy="155.7" r="3" fill="#8a5a5a"/><circle cx="437.0" cy="155.7" r="3" fill="#8a5a5a"/><circle cx="441.8" cy="167.6" r="3" fill="#8a5a5a"/><circle cx="446.6" cy="167.6" r="3" fill="#8a5a5a"/><circle cx="451.4" cy="170.3" r="3" fill="#8a5a5a"/><circle cx="456.3" cy="170.3" r="3" fill="#8a5a5a"/><circle cx="461.1" cy="170.5" r="3" fill="#8a5a5a"/><circle cx="465.9" cy="170.7" r="3" fill="#8a5a5a"/><circle cx="470.8" cy="170.7" r="3" fill="#8a5a5a"/><circle cx="475.6" cy="170.9" r="3" fill="#8a5a5a"/><circle cx="480.4" cy="172.7" r="3" fill="#8a5a5a"/><circle cx="485.3" cy="180.6" r="3" fill="#8a5a5a"/><circle cx="490.1" cy="181.8" r="3" fill="#8a5a5a"/><circle cx="494.9" cy="189.1" r="3" fill="#8a5a5a"/><circle cx="499.8" cy="190.5" r="3" fill="#8a5a5a"/><circle cx="504.6" cy="195.2" r="3" fill="#8a5a5a"/><circle cx="509.4" cy="198.0" r="3" fill="#8a5a5a"/><circle cx="514.2" cy="198.0" r="3" fill="#8a5a5a"/><circle cx="519.1" cy="198.0" r="3" fill="#8a5a5a"/><circle cx="523.9" cy="198.0" r="3" fill="#8a5a5a"/><circle cx="528.7" cy="198.0" r="3" fill="#8a5a5a"/><circle cx="533.6" cy="198.0" r="3" fill="#8a5a5a"/><circle cx="538.4" cy="198.0" r="3" fill="#8a5a5a"/><circle cx="543.2" cy="198.0" r="3" fill="#8a5a5a"/><circle cx="548.1" cy="198.0" r="3" fill="#8a5a5a"/><circle cx="552.9" cy="198.0" r="3" fill="#8a5a5a"/><circle cx="557.7" cy="198.0" r="3" fill="#8a5a5a"/><circle cx="562.6" cy="198.0" r="3" fill="#8a5a5a"/><circle cx="567.4" cy="198.0" r="3" fill="#8a5a5a"/><circle cx="572.2" cy="198.0" r="3" fill="#8a5a5a"/><circle cx="577.0" cy="198.0" r="3" fill="#8a5a5a"/><circle cx="581.9" cy="198.0" r="3" fill="#8a5a5a"/><circle cx="586.7" cy="198.0" r="3" fill="#8a5a5a"/><circle cx="591.5" cy="198.0" r="3" fill="#8a5a5a"/><circle cx="596.4" cy="198.0" r="3" fill="#8a5a5a"/><circle cx="601.2" cy="198.0" r="3" fill="#8a5a5a"/><circle cx="606.0" cy="198.0" r="3" fill="#8a5a5a"/><circle cx="610.9" cy="198.0" r="3" fill="#8a5a5a"/><circle cx="615.7" cy="198.0" r="3" fill="#8a5a5a"/><circle cx="620.5" cy="198.0" r="3" fill="#8a5a5a"/><circle cx="625.4" cy="198.0" r="3" fill="#8a5a5a"/><circle cx="630.2" cy="198.0" r="3" fill="#8a5a5a"/><circle cx="635.0" cy="198.0" r="3" fill="#8a5a5a"/><circle cx="639.8" cy="198.0" r="3" fill="#8a5a5a"/><circle cx="644.7" cy="198.0" r="3" fill="#8a5a5a"/><circle cx="649.5" cy="198.0" r="3" fill="#8a5a5a"/><circle cx="654.3" cy="198.0" r="3" fill="#8a5a5a"/><circle cx="659.2" cy="198.0" r="3" fill="#8a5a5a"/><circle cx="664.0" cy="198.0" r="3" fill="#8a5a5a"/>
<polyline fill="none" stroke="#3fb950" stroke-width="2.5" stroke-linejoin="round" points="36.0,198.0 40.8,198.0 45.7,198.0 50.5,198.0 55.3,198.0 60.2,198.0 65.0,198.0 69.8,198.0 74.6,198.0 79.5,198.0 84.3,198.0 89.1,198.0 94.0,198.0 98.8,198.0 103.6,198.0 108.5,198.0 113.3,198.0 118.1,198.0 123.0,198.0 127.8,198.0 132.6,198.0 137.4,198.0 142.3,198.0 147.1,198.0 151.9,198.0 156.8,198.0 161.6,198.0 166.4,198.0 171.3,198.0 176.1,198.0 180.9,198.0 185.8,198.0 190.6,198.0 195.4,198.0 200.2,198.0 205.1,198.0 209.9,198.0 214.7,198.0 219.6,198.0 224.4,198.0 229.2,198.0 234.1,198.0 238.9,198.0 243.7,191.7 248.6,191.7 253.4,191.7 258.2,191.7 263.0,191.7 267.9,191.7 272.7,191.7 277.5,192.9 282.4,192.9 287.2,190.7 292.0,190.7 296.9,190.7 301.7,190.7 306.5,190.7 311.4,190.5 316.2,190.5 321.0,190.5 325.8,190.3 330.7,190.3 335.5,190.3 340.3,190.3 345.2,190.3 350.0,190.3 354.8,190.3 359.7,190.3 364.5,190.3 369.3,190.3 374.2,190.3 379.0,190.3 383.8,190.3 388.6,190.3 393.5,190.3 398.3,190.3 403.1,190.3 408.0,190.3 412.8,190.3 417.6,190.3 422.5,190.3 427.3,189.3 432.1,189.3 437.0,189.3 441.8,190.7 446.6,190.7 451.4,190.7 456.3,190.7 461.1,190.7 465.9,190.7 470.8,190.7 475.6,190.7 480.4,190.7 485.3,190.9 490.1,190.9 494.9,190.9 499.8,194.2 504.6,196.8 509.4,198.0 514.2,198.0 519.1,198.0 523.9,198.0 528.7,198.0 533.6,198.0 538.4,198.0 543.2,198.0 548.1,198.0 552.9,198.0 557.7,198.0 562.6,198.0 567.4,198.0 572.2,198.0 577.0,198.0 581.9,198.0 586.7,198.0 591.5,198.0 596.4,198.0 601.2,198.0 606.0,198.0 610.9,198.0 615.7,198.0 620.5,198.0 625.4,198.0 630.2,198.0 635.0,198.0 639.8,198.0 644.7,198.0 649.5,198.0 654.3,198.0 659.2,198.0 664.0,198.0"/><circle cx="36.0" cy="198.0" r="3" fill="#3fb950"/><circle cx="40.8" cy="198.0" r="3" fill="#3fb950"/><circle cx="45.7" cy="198.0" r="3" fill="#3fb950"/><circle cx="50.5" cy="198.0" r="3" fill="#3fb950"/><circle cx="55.3" cy="198.0" r="3" fill="#3fb950"/><circle cx="60.2" cy="198.0" r="3" fill="#3fb950"/><circle cx="65.0" cy="198.0" r="3" fill="#3fb950"/><circle cx="69.8" cy="198.0" r="3" fill="#3fb950"/><circle cx="74.6" cy="198.0" r="3" fill="#3fb950"/><circle cx="79.5" cy="198.0" r="3" fill="#3fb950"/><circle cx="84.3" cy="198.0" r="3" fill="#3fb950"/><circle cx="89.1" cy="198.0" r="3" fill="#3fb950"/><circle cx="94.0" cy="198.0" r="3" fill="#3fb950"/><circle cx="98.8" cy="198.0" r="3" fill="#3fb950"/><circle cx="103.6" cy="198.0" r="3" fill="#3fb950"/><circle cx="108.5" cy="198.0" r="3" fill="#3fb950"/><circle cx="113.3" cy="198.0" r="3" fill="#3fb950"/><circle cx="118.1" cy="198.0" r="3" fill="#3fb950"/><circle cx="123.0" cy="198.0" r="3" fill="#3fb950"/><circle cx="127.8" cy="198.0" r="3" fill="#3fb950"/><circle cx="132.6" cy="198.0" r="3" fill="#3fb950"/><circle cx="137.4" cy="198.0" r="3" fill="#3fb950"/><circle cx="142.3" cy="198.0" r="3" fill="#3fb950"/><circle cx="147.1" cy="198.0" r="3" fill="#3fb950"/><circle cx="151.9" cy="198.0" r="3" fill="#3fb950"/><circle cx="156.8" cy="198.0" r="3" fill="#3fb950"/><circle cx="161.6" cy="198.0" r="3" fill="#3fb950"/><circle cx="166.4" cy="198.0" r="3" fill="#3fb950"/><circle cx="171.3" cy="198.0" r="3" fill="#3fb950"/><circle cx="176.1" cy="198.0" r="3" fill="#3fb950"/><circle cx="180.9" cy="198.0" r="3" fill="#3fb950"/><circle cx="185.8" cy="198.0" r="3" fill="#3fb950"/><circle cx="190.6" cy="198.0" r="3" fill="#3fb950"/><circle cx="195.4" cy="198.0" r="3" fill="#3fb950"/><circle cx="200.2" cy="198.0" r="3" fill="#3fb950"/><circle cx="205.1" cy="198.0" r="3" fill="#3fb950"/><circle cx="209.9" cy="198.0" r="3" fill="#3fb950"/><circle cx="214.7" cy="198.0" r="3" fill="#3fb950"/><circle cx="219.6" cy="198.0" r="3" fill="#3fb950"/><circle cx="224.4" cy="198.0" r="3" fill="#3fb950"/><circle cx="229.2" cy="198.0" r="3" fill="#3fb950"/><circle cx="234.1" cy="198.0" r="3" fill="#3fb950"/><circle cx="238.9" cy="198.0" r="3" fill="#3fb950"/><circle cx="243.7" cy="191.7" r="3" fill="#3fb950"/><circle cx="248.6" cy="191.7" r="3" fill="#3fb950"/><circle cx="253.4" cy="191.7" r="3" fill="#3fb950"/><circle cx="258.2" cy="191.7" r="3" fill="#3fb950"/><circle cx="263.0" cy="191.7" r="3" fill="#3fb950"/><circle cx="267.9" cy="191.7" r="3" fill="#3fb950"/><circle cx="272.7" cy="191.7" r="3" fill="#3fb950"/><circle cx="277.5" cy="192.9" r="3" fill="#3fb950"/><circle cx="282.4" cy="192.9" r="3" fill="#3fb950"/><circle cx="287.2" cy="190.7" r="3" fill="#3fb950"/><circle cx="292.0" cy="190.7" r="3" fill="#3fb950"/><circle cx="296.9" cy="190.7" r="3" fill="#3fb950"/><circle cx="301.7" cy="190.7" r="3" fill="#3fb950"/><circle cx="306.5" cy="190.7" r="3" fill="#3fb950"/><circle cx="311.4" cy="190.5" r="3" fill="#3fb950"/><circle cx="316.2" cy="190.5" r="3" fill="#3fb950"/><circle cx="321.0" cy="190.5" r="3" fill="#3fb950"/><circle cx="325.8" cy="190.3" r="3" fill="#3fb950"/><circle cx="330.7" cy="190.3" r="3" fill="#3fb950"/><circle cx="335.5" cy="190.3" r="3" fill="#3fb950"/><circle cx="340.3" cy="190.3" r="3" fill="#3fb950"/><circle cx="345.2" cy="190.3" r="3" fill="#3fb950"/><circle cx="350.0" cy="190.3" r="3" fill="#3fb950"/><circle cx="354.8" cy="190.3" r="3" fill="#3fb950"/><circle cx="359.7" cy="190.3" r="3" fill="#3fb950"/><circle cx="364.5" cy="190.3" r="3" fill="#3fb950"/><circle cx="369.3" cy="190.3" r="3" fill="#3fb950"/><circle cx="374.2" cy="190.3" r="3" fill="#3fb950"/><circle cx="379.0" cy="190.3" r="3" fill="#3fb950"/><circle cx="383.8" cy="190.3" r="3" fill="#3fb950"/><circle cx="388.6" cy="190.3" r="3" fill="#3fb950"/><circle cx="393.5" cy="190.3" r="3" fill="#3fb950"/><circle cx="398.3" cy="190.3" r="3" fill="#3fb950"/><circle cx="403.1" cy="190.3" r="3" fill="#3fb950"/><circle cx="408.0" cy="190.3" r="3" fill="#3fb950"/><circle cx="412.8" cy="190.3" r="3" fill="#3fb950"/><circle cx="417.6" cy="190.3" r="3" fill="#3fb950"/><circle cx="422.5" cy="190.3" r="3" fill="#3fb950"/><circle cx="427.3" cy="189.3" r="3" fill="#3fb950"/><circle cx="432.1" cy="189.3" r="3" fill="#3fb950"/><circle cx="437.0" cy="189.3" r="3" fill="#3fb950"/><circle cx="441.8" cy="190.7" r="3" fill="#3fb950"/><circle cx="446.6" cy="190.7" r="3" fill="#3fb950"/><circle cx="451.4" cy="190.7" r="3" fill="#3fb950"/><circle cx="456.3" cy="190.7" r="3" fill="#3fb950"/><circle cx="461.1" cy="190.7" r="3" fill="#3fb950"/><circle cx="465.9" cy="190.7" r="3" fill="#3fb950"/><circle cx="470.8" cy="190.7" r="3" fill="#3fb950"/><circle cx="475.6" cy="190.7" r="3" fill="#3fb950"/><circle cx="480.4" cy="190.7" r="3" fill="#3fb950"/><circle cx="485.3" cy="190.9" r="3" fill="#3fb950"/><circle cx="490.1" cy="190.9" r="3" fill="#3fb950"/><circle cx="494.9" cy="190.9" r="3" fill="#3fb950"/><circle cx="499.8" cy="194.2" r="3" fill="#3fb950"/><circle cx="504.6" cy="196.8" r="3" fill="#3fb950"/><circle cx="509.4" cy="198.0" r="3" fill="#3fb950"/><circle cx="514.2" cy="198.0" r="3" fill="#3fb950"/><circle cx="519.1" cy="198.0" r="3" fill="#3fb950"/><circle cx="523.9" cy="198.0" r="3" fill="#3fb950"/><circle cx="528.7" cy="198.0" r="3" fill="#3fb950"/><circle cx="533.6" cy="198.0" r="3" fill="#3fb950"/><circle cx="538.4" cy="198.0" r="3" fill="#3fb950"/><circle cx="543.2" cy="198.0" r="3" fill="#3fb950"/><circle cx="548.1" cy="198.0" r="3" fill="#3fb950"/><circle cx="552.9" cy="198.0" r="3" fill="#3fb950"/><circle cx="557.7" cy="198.0" r="3" fill="#3fb950"/><circle cx="562.6" cy="198.0" r="3" fill="#3fb950"/><circle cx="567.4" cy="198.0" r="3" fill="#3fb950"/><circle cx="572.2" cy="198.0" r="3" fill="#3fb950"/><circle cx="577.0" cy="198.0" r="3" fill="#3fb950"/><circle cx="581.9" cy="198.0" r="3" fill="#3fb950"/><circle cx="586.7" cy="198.0" r="3" fill="#3fb950"/><circle cx="591.5" cy="198.0" r="3" fill="#3fb950"/><circle cx="596.4" cy="198.0" r="3" fill="#3fb950"/><circle cx="601.2" cy="198.0" r="3" fill="#3fb950"/><circle cx="606.0" cy="198.0" r="3" fill="#3fb950"/><circle cx="610.9" cy="198.0" r="3" fill="#3fb950"/><circle cx="615.7" cy="198.0" r="3" fill="#3fb950"/><circle cx="620.5" cy="198.0" r="3" fill="#3fb950"/><circle cx="625.4" cy="198.0" r="3" fill="#3fb950"/><circle cx="630.2" cy="198.0" r="3" fill="#3fb950"/><circle cx="635.0" cy="198.0" r="3" fill="#3fb950"/><circle cx="639.8" cy="198.0" r="3" fill="#3fb950"/><circle cx="644.7" cy="198.0" r="3" fill="#3fb950"/><circle cx="649.5" cy="198.0" r="3" fill="#3fb950"/><circle cx="654.3" cy="198.0" r="3" fill="#3fb950"/><circle cx="659.2" cy="198.0" r="3" fill="#3fb950"/><circle cx="664.0" cy="198.0" r="3" fill="#3fb950"/>
<polyline fill="none" stroke="#4aa3ff" stroke-width="2.5" stroke-linejoin="round" points="36.0,144.3 40.8,144.3 45.7,144.3 50.5,144.3 55.3,144.3 60.2,144.3 65.0,144.3 69.8,144.3 74.6,144.3 79.5,144.3 84.3,144.3 89.1,144.3 94.0,144.3 98.8,144.3 103.6,144.3 108.5,136.2 113.3,132.4 118.1,129.6 123.0,129.6 127.8,121.0 132.6,121.0 137.4,121.0 142.3,114.4 147.1,114.4 151.9,114.4 156.8,111.3 161.6,110.9 166.4,110.9 171.3,110.5 176.1,110.5 180.9,109.9 185.8,108.7 190.6,107.3 195.4,106.9 200.2,106.9 205.1,106.9 209.9,106.9 214.7,106.9 219.6,106.9 224.4,106.9 229.2,106.9 234.1,106.9 238.9,106.9 243.7,113.2 248.6,113.2 253.4,113.2 258.2,113.2 263.0,113.2 267.9,110.7 272.7,105.3 277.5,83.4 282.4,83.4 287.2,85.6 292.0,85.6 296.9,85.6 301.7,85.6 306.5,85.6 311.4,85.8 316.2,85.8 321.0,85.8 325.8,86.0 330.7,86.0 335.5,86.0 340.3,86.0 345.2,86.0 350.0,86.0 354.8,86.0 359.7,86.0 364.5,86.0 369.3,86.0 374.2,86.0 379.0,86.0 383.8,86.0 388.6,86.0 393.5,86.0 398.3,86.0 403.1,86.0 408.0,86.0 412.8,86.0 417.6,86.0 422.5,86.0 427.3,87.0 432.1,87.0 437.0,87.0 441.8,73.7 446.6,73.7 451.4,71.0 456.3,71.0 461.1,70.8 465.9,70.6 470.8,70.6 475.6,70.4 480.4,68.6 485.3,60.5 490.1,59.3 494.9,52.0 499.8,47.3 504.6,40.1 509.4,36.0 514.2,36.0 519.1,36.0 523.9,36.0 528.7,36.0 533.6,36.0 538.4,36.0 543.2,36.0 548.1,36.0 552.9,36.0 557.7,36.0 562.6,36.0 567.4,36.0 572.2,36.0 577.0,36.0 581.9,36.0 586.7,36.0 591.5,36.0 596.4,36.0 601.2,36.0 606.0,36.0 610.9,36.0 615.7,36.0 620.5,36.0 625.4,36.0 630.2,36.0 635.0,36.0 639.8,36.0 644.7,36.0 649.5,36.0 654.3,36.0 659.2,36.0 664.0,36.0"/><circle cx="36.0" cy="144.3" r="3" fill="#4aa3ff"/><circle cx="40.8" cy="144.3" r="3" fill="#4aa3ff"/><circle cx="45.7" cy="144.3" r="3" fill="#4aa3ff"/><circle cx="50.5" cy="144.3" r="3" fill="#4aa3ff"/><circle cx="55.3" cy="144.3" r="3" fill="#4aa3ff"/><circle cx="60.2" cy="144.3" r="3" fill="#4aa3ff"/><circle cx="65.0" cy="144.3" r="3" fill="#4aa3ff"/><circle cx="69.8" cy="144.3" r="3" fill="#4aa3ff"/><circle cx="74.6" cy="144.3" r="3" fill="#4aa3ff"/><circle cx="79.5" cy="144.3" r="3" fill="#4aa3ff"/><circle cx="84.3" cy="144.3" r="3" fill="#4aa3ff"/><circle cx="89.1" cy="144.3" r="3" fill="#4aa3ff"/><circle cx="94.0" cy="144.3" r="3" fill="#4aa3ff"/><circle cx="98.8" cy="144.3" r="3" fill="#4aa3ff"/><circle cx="103.6" cy="144.3" r="3" fill="#4aa3ff"/><circle cx="108.5" cy="136.2" r="3" fill="#4aa3ff"/><circle cx="113.3" cy="132.4" r="3" fill="#4aa3ff"/><circle cx="118.1" cy="129.6" r="3" fill="#4aa3ff"/><circle cx="123.0" cy="129.6" r="3" fill="#4aa3ff"/><circle cx="127.8" cy="121.0" r="3" fill="#4aa3ff"/><circle cx="132.6" cy="121.0" r="3" fill="#4aa3ff"/><circle cx="137.4" cy="121.0" r="3" fill="#4aa3ff"/><circle cx="142.3" cy="114.4" r="3" fill="#4aa3ff"/><circle cx="147.1" cy="114.4" r="3" fill="#4aa3ff"/><circle cx="151.9" cy="114.4" r="3" fill="#4aa3ff"/><circle cx="156.8" cy="111.3" r="3" fill="#4aa3ff"/><circle cx="161.6" cy="110.9" r="3" fill="#4aa3ff"/><circle cx="166.4" cy="110.9" r="3" fill="#4aa3ff"/><circle cx="171.3" cy="110.5" r="3" fill="#4aa3ff"/><circle cx="176.1" cy="110.5" r="3" fill="#4aa3ff"/><circle cx="180.9" cy="109.9" r="3" fill="#4aa3ff"/><circle cx="185.8" cy="108.7" r="3" fill="#4aa3ff"/><circle cx="190.6" cy="107.3" r="3" fill="#4aa3ff"/><circle cx="195.4" cy="106.9" r="3" fill="#4aa3ff"/><circle cx="200.2" cy="106.9" r="3" fill="#4aa3ff"/><circle cx="205.1" cy="106.9" r="3" fill="#4aa3ff"/><circle cx="209.9" cy="106.9" r="3" fill="#4aa3ff"/><circle cx="214.7" cy="106.9" r="3" fill="#4aa3ff"/><circle cx="219.6" cy="106.9" r="3" fill="#4aa3ff"/><circle cx="224.4" cy="106.9" r="3" fill="#4aa3ff"/><circle cx="229.2" cy="106.9" r="3" fill="#4aa3ff"/><circle cx="234.1" cy="106.9" r="3" fill="#4aa3ff"/><circle cx="238.9" cy="106.9" r="3" fill="#4aa3ff"/><circle cx="243.7" cy="113.2" r="3" fill="#4aa3ff"/><circle cx="248.6" cy="113.2" r="3" fill="#4aa3ff"/><circle cx="253.4" cy="113.2" r="3" fill="#4aa3ff"/><circle cx="258.2" cy="113.2" r="3" fill="#4aa3ff"/><circle cx="263.0" cy="113.2" r="3" fill="#4aa3ff"/><circle cx="267.9" cy="110.7" r="3" fill="#4aa3ff"/><circle cx="272.7" cy="105.3" r="3" fill="#4aa3ff"/><circle cx="277.5" cy="83.4" r="3" fill="#4aa3ff"/><circle cx="282.4" cy="83.4" r="3" fill="#4aa3ff"/><circle cx="287.2" cy="85.6" r="3" fill="#4aa3ff"/><circle cx="292.0" cy="85.6" r="3" fill="#4aa3ff"/><circle cx="296.9" cy="85.6" r="3" fill="#4aa3ff"/><circle cx="301.7" cy="85.6" r="3" fill="#4aa3ff"/><circle cx="306.5" cy="85.6" r="3" fill="#4aa3ff"/><circle cx="311.4" cy="85.8" r="3" fill="#4aa3ff"/><circle cx="316.2" cy="85.8" r="3" fill="#4aa3ff"/><circle cx="321.0" cy="85.8" r="3" fill="#4aa3ff"/><circle cx="325.8" cy="86.0" r="3" fill="#4aa3ff"/><circle cx="330.7" cy="86.0" r="3" fill="#4aa3ff"/><circle cx="335.5" cy="86.0" r="3" fill="#4aa3ff"/><circle cx="340.3" cy="86.0" r="3" fill="#4aa3ff"/><circle cx="345.2" cy="86.0" r="3" fill="#4aa3ff"/><circle cx="350.0" cy="86.0" r="3" fill="#4aa3ff"/><circle cx="354.8" cy="86.0" r="3" fill="#4aa3ff"/><circle cx="359.7" cy="86.0" r="3" fill="#4aa3ff"/><circle cx="364.5" cy="86.0" r="3" fill="#4aa3ff"/><circle cx="369.3" cy="86.0" r="3" fill="#4aa3ff"/><circle cx="374.2" cy="86.0" r="3" fill="#4aa3ff"/><circle cx="379.0" cy="86.0" r="3" fill="#4aa3ff"/><circle cx="383.8" cy="86.0" r="3" fill="#4aa3ff"/><circle cx="388.6" cy="86.0" r="3" fill="#4aa3ff"/><circle cx="393.5" cy="86.0" r="3" fill="#4aa3ff"/><circle cx="398.3" cy="86.0" r="3" fill="#4aa3ff"/><circle cx="403.1" cy="86.0" r="3" fill="#4aa3ff"/><circle cx="408.0" cy="86.0" r="3" fill="#4aa3ff"/><circle cx="412.8" cy="86.0" r="3" fill="#4aa3ff"/><circle cx="417.6" cy="86.0" r="3" fill="#4aa3ff"/><circle cx="422.5" cy="86.0" r="3" fill="#4aa3ff"/><circle cx="427.3" cy="87.0" r="3" fill="#4aa3ff"/><circle cx="432.1" cy="87.0" r="3" fill="#4aa3ff"/><circle cx="437.0" cy="87.0" r="3" fill="#4aa3ff"/><circle cx="441.8" cy="73.7" r="3" fill="#4aa3ff"/><circle cx="446.6" cy="73.7" r="3" fill="#4aa3ff"/><circle cx="451.4" cy="71.0" r="3" fill="#4aa3ff"/><circle cx="456.3" cy="71.0" r="3" fill="#4aa3ff"/><circle cx="461.1" cy="70.8" r="3" fill="#4aa3ff"/><circle cx="465.9" cy="70.6" r="3" fill="#4aa3ff"/><circle cx="470.8" cy="70.6" r="3" fill="#4aa3ff"/><circle cx="475.6" cy="70.4" r="3" fill="#4aa3ff"/><circle cx="480.4" cy="68.6" r="3" fill="#4aa3ff"/><circle cx="485.3" cy="60.5" r="3" fill="#4aa3ff"/><circle cx="490.1" cy="59.3" r="3" fill="#4aa3ff"/><circle cx="494.9" cy="52.0" r="3" fill="#4aa3ff"/><circle cx="499.8" cy="47.3" r="3" fill="#4aa3ff"/><circle cx="504.6" cy="40.1" r="3" fill="#4aa3ff"/><circle cx="509.4" cy="36.0" r="3" fill="#4aa3ff"/><circle cx="514.2" cy="36.0" r="3" fill="#4aa3ff"/><circle cx="519.1" cy="36.0" r="3" fill="#4aa3ff"/><circle cx="523.9" cy="36.0" r="3" fill="#4aa3ff"/><circle cx="528.7" cy="36.0" r="3" fill="#4aa3ff"/><circle cx="533.6" cy="36.0" r="3" fill="#4aa3ff"/><circle cx="538.4" cy="36.0" r="3" fill="#4aa3ff"/><circle cx="543.2" cy="36.0" r="3" fill="#4aa3ff"/><circle cx="548.1" cy="36.0" r="3" fill="#4aa3ff"/><circle cx="552.9" cy="36.0" r="3" fill="#4aa3ff"/><circle cx="557.7" cy="36.0" r="3" fill="#4aa3ff"/><circle cx="562.6" cy="36.0" r="3" fill="#4aa3ff"/><circle cx="567.4" cy="36.0" r="3" fill="#4aa3ff"/><circle cx="572.2" cy="36.0" r="3" fill="#4aa3ff"/><circle cx="577.0" cy="36.0" r="3" fill="#4aa3ff"/><circle cx="581.9" cy="36.0" r="3" fill="#4aa3ff"/><circle cx="586.7" cy="36.0" r="3" fill="#4aa3ff"/><circle cx="591.5" cy="36.0" r="3" fill="#4aa3ff"/><circle cx="596.4" cy="36.0" r="3" fill="#4aa3ff"/><circle cx="601.2" cy="36.0" r="3" fill="#4aa3ff"/><circle cx="606.0" cy="36.0" r="3" fill="#4aa3ff"/><circle cx="610.9" cy="36.0" r="3" fill="#4aa3ff"/><circle cx="615.7" cy="36.0" r="3" fill="#4aa3ff"/><circle cx="620.5" cy="36.0" r="3" fill="#4aa3ff"/><circle cx="625.4" cy="36.0" r="3" fill="#4aa3ff"/><circle cx="630.2" cy="36.0" r="3" fill="#4aa3ff"/><circle cx="635.0" cy="36.0" r="3" fill="#4aa3ff"/><circle cx="639.8" cy="36.0" r="3" fill="#4aa3ff"/><circle cx="644.7" cy="36.0" r="3" fill="#4aa3ff"/><circle cx="649.5" cy="36.0" r="3" fill="#4aa3ff"/><circle cx="654.3" cy="36.0" r="3" fill="#4aa3ff"/><circle cx="659.2" cy="36.0" r="3" fill="#4aa3ff"/><circle cx="664.0" cy="36.0" r="3" fill="#4aa3ff"/>
<text x="36" y="225" fill="#6b7280" font-size="11">2026-06-26</text>
<text x="664" y="225" fill="#6b7280" font-size="11" text-anchor="end">2026-07-10</text>
<text x="36" y="212" font-family="system-ui,sans-serif" font-size="11">
<tspan fill="#4aa3ff">&#9679; open FPs</tspan>  <tspan fill="#3fb950">&#9679; closed (Anthropic acting)</tspan>  <tspan fill="#8a5a5a">&#9679; harness withdrawn</tspan></text>
<text x="664" y="22" text-anchor="end" font-family="system-ui,sans-serif" font-size="12">
<tspan fill="#4aa3ff">open 800</tspan>  <tspan fill="#3fb950">closed 0</tspan>  <tspan fill="#8a5a5a">harness 0</tspan></text>
</svg>