<svg xmlns="http://www.w3.org/2000/svg" width="700" height="234" viewBox="0 0 700 234" role="img">
<rect width="700" height="234" rx="12" fill="#16181d"/>
<text x="36" y="22" fill="#e8eaed" font-family="system-ui,sans-serif" font-size="14" font-weight="700">Is Anthropic acting? cyber/aup false positives over time</text>
<line x1="36" y1="198.0" x2="664" y2="198.0" stroke="#2a2e37" stroke-width="1"/><text x="30" y="202.0" fill="#6b7280" font-size="11" text-anchor="end">0</text><line x1="36" y1="117.0" x2="664" y2="117.0" stroke="#2a2e37" stroke-width="1"/><text x="30" y="121.0" fill="#6b7280" font-size="11" text-anchor="end">400</text><line x1="36" y1="36.0" x2="664" y2="36.0" stroke="#2a2e37" stroke-width="1"/><text x="30" y="40.0" fill="#6b7280" font-size="11" text-anchor="end">800</text>

<polyline fill="none" stroke="#8a5a5a" stroke-width="2.5" stroke-linejoin="round" points="36.0,145.1 39.7,145.1 43.3,145.1 47.0,145.1 50.7,145.1 54.4,145.1 58.0,145.1 61.7,145.1 65.4,145.1 69.1,145.1 72.7,145.1 76.4,145.1 80.1,145.1 83.7,145.1 87.4,145.1 91.1,145.1 94.8,145.1 98.4,145.1 102.1,145.1 105.8,145.1 109.5,145.1 113.1,145.1 116.8,145.1 120.5,145.1 124.1,145.1 127.8,145.1 131.5,145.1 135.2,145.1 138.8,145.1 142.5,145.1 146.2,145.1 149.8,145.1 153.5,145.1 157.2,145.1 160.9,145.1 164.5,145.1 168.2,145.1 171.9,145.1 175.6,145.1 179.2,145.1 182.9,145.1 186.6,145.1 190.2,145.1 193.9,145.1 197.6,145.1 201.3,145.1 204.9,145.1 208.6,145.1 212.3,145.1 216.0,145.1 219.6,155.7 223.3,155.7 227.0,155.7 230.6,155.7 234.3,155.7 238.0,155.7 241.7,155.7 245.3,155.7 249.0,155.7 252.7,155.7 256.4,155.7 260.0,155.7 263.7,155.7 267.4,155.7 271.0,155.7 274.7,155.7 278.4,155.7 282.1,155.7 285.7,155.7 289.4,155.7 293.1,155.7 296.7,155.7 300.4,155.7 304.1,155.7 307.8,155.7 311.4,155.7 315.1,155.7 318.8,155.7 322.5,155.7 326.1,155.7 329.8,155.7 333.5,155.7 337.1,155.7 340.8,155.7 344.5,167.6 348.2,167.6 351.8,170.3 355.5,170.3 359.2,170.5 362.9,170.7 366.5,170.7 370.2,170.9 373.9,172.7 377.5,180.6 381.2,181.8 384.9,189.1 388.6,190.5 392.2,195.2 395.9,198.0 399.6,198.0 403.3,198.0 406.9,198.0 410.6,198.0 414.3,198.0 417.9,198.0 421.6,198.0 425.3,198.0 429.0,198.0 432.6,198.0 436.3,198.0 440.0,198.0 443.6,198.0 447.3,198.0 451.0,198.0 454.7,198.0 458.3,198.0 462.0,198.0 465.7,198.0 469.4,198.0 473.0,198.0 476.7,198.0 480.4,198.0 484.0,198.0 487.7,198.0 491.4,198.0 495.1,198.0 498.7,198.0 502.4,198.0 506.1,198.0 509.8,198.0 513.4,198.0 517.1,198.0 520.8,198.0 524.4,198.0 528.1,198.0 531.8,198.0 535.5,198.0 539.1,198.0 542.8,198.0 546.5,198.0 550.2,198.0 553.8,198.0 557.5,198.0 561.2,198.0 564.8,198.0 568.5,198.0 572.2,198.0 575.9,198.0 579.5,198.0 583.2,198.0 586.9,198.0 590.5,198.0 594.2,198.0 597.9,198.0 601.6,198.0 605.2,198.0 608.9,198.0 612.6,198.0 616.3,198.0 619.9,198.0 623.6,198.0 627.3,198.0 630.9,198.0 634.6,198.0 638.3,198.0 642.0,198.0 645.6,198.0 649.3,198.0 653.0,198.0 656.7,198.0 660.3,198.0 664.0,198.0"/><circle cx="36.0" cy="145.1" r="3" fill="#8a5a5a"/><circle cx="39.7" cy="145.1" r="3" fill="#8a5a5a"/><circle cx="43.3" cy="145.1" r="3" fill="#8a5a5a"/><circle cx="47.0" cy="145.1" r="3" fill="#8a5a5a"/><circle cx="50.7" cy="145.1" r="3" fill="#8a5a5a"/><circle cx="54.4" cy="145.1" r="3" fill="#8a5a5a"/><circle cx="58.0" cy="145.1" r="3" fill="#8a5a5a"/><circle cx="61.7" cy="145.1" r="3" fill="#8a5a5a"/><circle cx="65.4" cy="145.1" r="3" fill="#8a5a5a"/><circle cx="69.1" cy="145.1" r="3" fill="#8a5a5a"/><circle cx="72.7" cy="145.1" r="3" fill="#8a5a5a"/><circle cx="76.4" cy="145.1" r="3" fill="#8a5a5a"/><circle cx="80.1" cy="145.1" r="3" fill="#8a5a5a"/><circle cx="83.7" cy="145.1" r="3" fill="#8a5a5a"/><circle cx="87.4" cy="145.1" r="3" fill="#8a5a5a"/><circle cx="91.1" cy="145.1" r="3" fill="#8a5a5a"/><circle cx="94.8" cy="145.1" r="3" fill="#8a5a5a"/><circle cx="98.4" cy="145.1" r="3" fill="#8a5a5a"/><circle cx="102.1" cy="145.1" r="3" fill="#8a5a5a"/><circle cx="105.8" cy="145.1" r="3" fill="#8a5a5a"/><circle cx="109.5" cy="145.1" r="3" fill="#8a5a5a"/><circle cx="113.1" cy="145.1" r="3" fill="#8a5a5a"/><circle cx="116.8" cy="145.1" r="3" fill="#8a5a5a"/><circle cx="120.5" cy="145.1" r="3" fill="#8a5a5a"/><circle cx="124.1" cy="145.1" r="3" fill="#8a5a5a"/><circle cx="127.8" cy="145.1" r="3" fill="#8a5a5a"/><circle cx="131.5" cy="145.1" r="3" fill="#8a5a5a"/><circle cx="135.2" cy="145.1" r="3" fill="#8a5a5a"/><circle cx="138.8" cy="145.1" r="3" fill="#8a5a5a"/><circle cx="142.5" cy="145.1" r="3" fill="#8a5a5a"/><circle cx="146.2" cy="145.1" r="3" fill="#8a5a5a"/><circle cx="149.8" cy="145.1" r="3" fill="#8a5a5a"/><circle cx="153.5" cy="145.1" r="3" fill="#8a5a5a"/><circle cx="157.2" cy="145.1" r="3" fill="#8a5a5a"/><circle cx="160.9" cy="145.1" r="3" fill="#8a5a5a"/><circle cx="164.5" cy="145.1" r="3" fill="#8a5a5a"/><circle cx="168.2" cy="145.1" r="3" fill="#8a5a5a"/><circle cx="171.9" cy="145.1" r="3" fill="#8a5a5a"/><circle cx="175.6" cy="145.1" r="3" fill="#8a5a5a"/><circle cx="179.2" cy="145.1" r="3" fill="#8a5a5a"/><circle cx="182.9" cy="145.1" r="3" fill="#8a5a5a"/><circle cx="186.6" cy="145.1" r="3" fill="#8a5a5a"/><circle cx="190.2" cy="145.1" r="3" fill="#8a5a5a"/><circle cx="193.9" cy="145.1" r="3" fill="#8a5a5a"/><circle cx="197.6" cy="145.1" r="3" fill="#8a5a5a"/><circle cx="201.3" cy="145.1" r="3" fill="#8a5a5a"/><circle cx="204.9" cy="145.1" r="3" fill="#8a5a5a"/><circle cx="208.6" cy="145.1" r="3" fill="#8a5a5a"/><circle cx="212.3" cy="145.1" r="3" fill="#8a5a5a"/><circle cx="216.0" cy="145.1" r="3" fill="#8a5a5a"/><circle cx="219.6" cy="155.7" r="3" fill="#8a5a5a"/><circle cx="223.3" cy="155.7" r="3" fill="#8a5a5a"/><circle cx="227.0" cy="155.7" r="3" fill="#8a5a5a"/><circle cx="230.6" cy="155.7" r="3" fill="#8a5a5a"/><circle cx="234.3" cy="155.7" r="3" fill="#8a5a5a"/><circle cx="238.0" cy="155.7" r="3" fill="#8a5a5a"/><circle cx="241.7" cy="155.7" r="3" fill="#8a5a5a"/><circle cx="245.3" cy="155.7" r="3" fill="#8a5a5a"/><circle cx="249.0" cy="155.7" r="3" fill="#8a5a5a"/><circle cx="252.7" cy="155.7" r="3" fill="#8a5a5a"/><circle cx="256.4" cy="155.7" r="3" fill="#8a5a5a"/><circle cx="260.0" cy="155.7" r="3" fill="#8a5a5a"/><circle cx="263.7" cy="155.7" r="3" fill="#8a5a5a"/><circle cx="267.4" cy="155.7" r="3" fill="#8a5a5a"/><circle cx="271.0" cy="155.7" r="3" fill="#8a5a5a"/><circle cx="274.7" cy="155.7" r="3" fill="#8a5a5a"/><circle cx="278.4" cy="155.7" r="3" fill="#8a5a5a"/><circle cx="282.1" cy="155.7" r="3" fill="#8a5a5a"/><circle cx="285.7" cy="155.7" r="3" fill="#8a5a5a"/><circle cx="289.4" cy="155.7" r="3" fill="#8a5a5a"/><circle cx="293.1" cy="155.7" r="3" fill="#8a5a5a"/><circle cx="296.7" cy="155.7" r="3" fill="#8a5a5a"/><circle cx="300.4" cy="155.7" r="3" fill="#8a5a5a"/><circle cx="304.1" cy="155.7" r="3" fill="#8a5a5a"/><circle cx="307.8" cy="155.7" r="3" fill="#8a5a5a"/><circle cx="311.4" cy="155.7" r="3" fill="#8a5a5a"/><circle cx="315.1" cy="155.7" r="3" fill="#8a5a5a"/><circle cx="318.8" cy="155.7" r="3" fill="#8a5a5a"/><circle cx="322.5" cy="155.7" r="3" fill="#8a5a5a"/><circle cx="326.1" cy="155.7" r="3" fill="#8a5a5a"/><circle cx="329.8" cy="155.7" r="3" fill="#8a5a5a"/><circle cx="333.5" cy="155.7" r="3" fill="#8a5a5a"/><circle cx="337.1" cy="155.7" r="3" fill="#8a5a5a"/><circle cx="340.8" cy="155.7" r="3" fill="#8a5a5a"/><circle cx="344.5" cy="167.6" r="3" fill="#8a5a5a"/><circle cx="348.2" cy="167.6" r="3" fill="#8a5a5a"/><circle cx="351.8" cy="170.3" r="3" fill="#8a5a5a"/><circle cx="355.5" cy="170.3" r="3" fill="#8a5a5a"/><circle cx="359.2" cy="170.5" r="3" fill="#8a5a5a"/><circle cx="362.9" cy="170.7" r="3" fill="#8a5a5a"/><circle cx="366.5" cy="170.7" r="3" fill="#8a5a5a"/><circle cx="370.2" cy="170.9" r="3" fill="#8a5a5a"/><circle cx="373.9" cy="172.7" r="3" fill="#8a5a5a"/><circle cx="377.5" cy="180.6" r="3" fill="#8a5a5a"/><circle cx="381.2" cy="181.8" r="3" fill="#8a5a5a"/><circle cx="384.9" cy="189.1" r="3" fill="#8a5a5a"/><circle cx="388.6" cy="190.5" r="3" fill="#8a5a5a"/><circle cx="392.2" cy="195.2" r="3" fill="#8a5a5a"/><circle cx="395.9" cy="198.0" r="3" fill="#8a5a5a"/><circle cx="399.6" cy="198.0" r="3" fill="#8a5a5a"/><circle cx="403.3" cy="198.0" r="3" fill="#8a5a5a"/><circle cx="406.9" cy="198.0" r="3" fill="#8a5a5a"/><circle cx="410.6" cy="198.0" r="3" fill="#8a5a5a"/><circle cx="414.3" cy="198.0" r="3" fill="#8a5a5a"/><circle cx="417.9" cy="198.0" r="3" fill="#8a5a5a"/><circle cx="421.6" cy="198.0" r="3" fill="#8a5a5a"/><circle cx="425.3" cy="198.0" r="3" fill="#8a5a5a"/><circle cx="429.0" cy="198.0" r="3" fill="#8a5a5a"/><circle cx="432.6" cy="198.0" r="3" fill="#8a5a5a"/><circle cx="436.3" cy="198.0" r="3" fill="#8a5a5a"/><circle cx="440.0" cy="198.0" r="3" fill="#8a5a5a"/><circle cx="443.6" cy="198.0" r="3" fill="#8a5a5a"/><circle cx="447.3" cy="198.0" r="3" fill="#8a5a5a"/><circle cx="451.0" cy="198.0" r="3" fill="#8a5a5a"/><circle cx="454.7" cy="198.0" r="3" fill="#8a5a5a"/><circle cx="458.3" cy="198.0" r="3" fill="#8a5a5a"/><circle cx="462.0" cy="198.0" r="3" fill="#8a5a5a"/><circle cx="465.7" cy="198.0" r="3" fill="#8a5a5a"/><circle cx="469.4" cy="198.0" r="3" fill="#8a5a5a"/><circle cx="473.0" cy="198.0" r="3" fill="#8a5a5a"/><circle cx="476.7" cy="198.0" r="3" fill="#8a5a5a"/><circle cx="480.4" cy="198.0" r="3" fill="#8a5a5a"/><circle cx="484.0" cy="198.0" r="3" fill="#8a5a5a"/><circle cx="487.7" cy="198.0" r="3" fill="#8a5a5a"/><circle cx="491.4" cy="198.0" r="3" fill="#8a5a5a"/><circle cx="495.1" cy="198.0" r="3" fill="#8a5a5a"/><circle cx="498.7" cy="198.0" r="3" fill="#8a5a5a"/><circle cx="502.4" cy="198.0" r="3" fill="#8a5a5a"/><circle cx="506.1" cy="198.0" r="3" fill="#8a5a5a"/><circle cx="509.8" cy="198.0" r="3" fill="#8a5a5a"/><circle cx="513.4" cy="198.0" r="3" fill="#8a5a5a"/><circle cx="517.1" cy="198.0" r="3" fill="#8a5a5a"/><circle cx="520.8" cy="198.0" r="3" fill="#8a5a5a"/><circle cx="524.4" cy="198.0" r="3" fill="#8a5a5a"/><circle cx="528.1" cy="198.0" r="3" fill="#8a5a5a"/><circle cx="531.8" cy="198.0" r="3" fill="#8a5a5a"/><circle cx="535.5" cy="198.0" r="3" fill="#8a5a5a"/><circle cx="539.1" cy="198.0" r="3" fill="#8a5a5a"/><circle cx="542.8" cy="198.0" r="3" fill="#8a5a5a"/><circle cx="546.5" cy="198.0" r="3" fill="#8a5a5a"/><circle cx="550.2" cy="198.0" r="3" fill="#8a5a5a"/><circle cx="553.8" cy="198.0" r="3" fill="#8a5a5a"/><circle cx="557.5" cy="198.0" r="3" fill="#8a5a5a"/><circle cx="561.2" cy="198.0" r="3" fill="#8a5a5a"/><circle cx="564.8" cy="198.0" r="3" fill="#8a5a5a"/><circle cx="568.5" cy="198.0" r="3" fill="#8a5a5a"/><circle cx="572.2" cy="198.0" r="3" fill="#8a5a5a"/><circle cx="575.9" cy="198.0" r="3" fill="#8a5a5a"/><circle cx="579.5" cy="198.0" r="3" fill="#8a5a5a"/><circle cx="583.2" cy="198.0" r="3" fill="#8a5a5a"/><circle cx="586.9" cy="198.0" r="3" fill="#8a5a5a"/><circle cx="590.5" cy="198.0" r="3" fill="#8a5a5a"/><circle cx="594.2" cy="198.0" r="3" fill="#8a5a5a"/><circle cx="597.9" cy="198.0" r="3" fill="#8a5a5a"/><circle cx="601.6" cy="198.0" r="3" fill="#8a5a5a"/><circle cx="605.2" cy="198.0" r="3" fill="#8a5a5a"/><circle cx="608.9" cy="198.0" r="3" fill="#8a5a5a"/><circle cx="612.6" cy="198.0" r="3" fill="#8a5a5a"/><circle cx="616.3" cy="198.0" r="3" fill="#8a5a5a"/><circle cx="619.9" cy="198.0" r="3" fill="#8a5a5a"/><circle cx="623.6" cy="198.0" r="3" fill="#8a5a5a"/><circle cx="627.3" cy="198.0" r="3" fill="#8a5a5a"/><circle cx="630.9" cy="198.0" r="3" fill="#8a5a5a"/><circle cx="634.6" cy="198.0" r="3" fill="#8a5a5a"/><circle cx="638.3" cy="198.0" r="3" fill="#8a5a5a"/><circle cx="642.0" cy="198.0" r="3" fill="#8a5a5a"/><circle cx="645.6" cy="198.0" r="3" fill="#8a5a5a"/><circle cx="649.3" cy="198.0" r="3" fill="#8a5a5a"/><circle cx="653.0" cy="198.0" r="3" fill="#8a5a5a"/><circle cx="656.7" cy="198.0" r="3" fill="#8a5a5a"/><circle cx="660.3" cy="198.0" r="3" fill="#8a5a5a"/><circle cx="664.0" cy="198.0" r="3" fill="#8a5a5a"/>
<polyline fill="none" stroke="#3fb950" stroke-width="2.5" stroke-linejoin="round" points="36.0,198.0 39.7,198.0 43.3,198.0 47.0,198.0 50.7,198.0 54.4,198.0 58.0,198.0 61.7,198.0 65.4,198.0 69.1,198.0 72.7,198.0 76.4,198.0 80.1,198.0 83.7,198.0 87.4,198.0 91.1,198.0 94.8,198.0 98.4,198.0 102.1,198.0 105.8,198.0 109.5,198.0 113.1,198.0 116.8,198.0 120.5,198.0 124.1,198.0 127.8,198.0 131.5,198.0 135.2,198.0 138.8,198.0 142.5,198.0 146.2,198.0 149.8,198.0 153.5,198.0 157.2,198.0 160.9,198.0 164.5,198.0 168.2,198.0 171.9,198.0 175.6,198.0 179.2,198.0 182.9,198.0 186.6,198.0 190.2,198.0 193.9,191.7 197.6,191.7 201.3,191.7 204.9,191.7 208.6,191.7 212.3,191.7 216.0,191.7 219.6,192.9 223.3,192.9 227.0,190.7 230.6,190.7 234.3,190.7 238.0,190.7 241.7,190.7 245.3,190.5 249.0,190.5 252.7,190.5 256.4,190.3 260.0,190.3 263.7,190.3 267.4,190.3 271.0,190.3 274.7,190.3 278.4,190.3 282.1,190.3 285.7,190.3 289.4,190.3 293.1,190.3 296.7,190.3 300.4,190.3 304.1,190.3 307.8,190.3 311.4,190.3 315.1,190.3 318.8,190.3 322.5,190.3 326.1,190.3 329.8,190.3 333.5,189.3 337.1,189.3 340.8,189.3 344.5,190.7 348.2,190.7 351.8,190.7 355.5,190.7 359.2,190.7 362.9,190.7 366.5,190.7 370.2,190.7 373.9,190.7 377.5,190.9 381.2,190.9 384.9,190.9 388.6,194.2 392.2,196.8 395.9,198.0 399.6,198.0 403.3,198.0 406.9,198.0 410.6,198.0 414.3,198.0 417.9,198.0 421.6,198.0 425.3,198.0 429.0,198.0 432.6,198.0 436.3,198.0 440.0,198.0 443.6,198.0 447.3,198.0 451.0,198.0 454.7,198.0 458.3,198.0 462.0,198.0 465.7,198.0 469.4,198.0 473.0,198.0 476.7,198.0 480.4,198.0 484.0,198.0 487.7,198.0 491.4,198.0 495.1,198.0 498.7,198.0 502.4,198.0 506.1,198.0 509.8,198.0 513.4,198.0 517.1,198.0 520.8,198.0 524.4,198.0 528.1,198.0 531.8,198.0 535.5,198.0 539.1,198.0 542.8,198.0 546.5,198.0 550.2,198.0 553.8,198.0 557.5,198.0 561.2,198.0 564.8,198.0 568.5,198.0 572.2,198.0 575.9,198.0 579.5,198.0 583.2,198.0 586.9,198.0 590.5,198.0 594.2,198.0 597.9,198.0 601.6,198.0 605.2,198.0 608.9,198.0 612.6,198.0 616.3,198.0 619.9,198.0 623.6,198.0 627.3,198.0 630.9,198.0 634.6,198.0 638.3,198.0 642.0,198.0 645.6,198.0 649.3,198.0 653.0,198.0 656.7,198.0 660.3,198.0 664.0,198.0"/><circle cx="36.0" cy="198.0" r="3" fill="#3fb950"/><circle cx="39.7" cy="198.0" r="3" fill="#3fb950"/><circle cx="43.3" cy="198.0" r="3" fill="#3fb950"/><circle cx="47.0" cy="198.0" r="3" fill="#3fb950"/><circle cx="50.7" cy="198.0" r="3" fill="#3fb950"/><circle cx="54.4" cy="198.0" r="3" fill="#3fb950"/><circle cx="58.0" cy="198.0" r="3" fill="#3fb950"/><circle cx="61.7" cy="198.0" r="3" fill="#3fb950"/><circle cx="65.4" cy="198.0" r="3" fill="#3fb950"/><circle cx="69.1" cy="198.0" r="3" fill="#3fb950"/><circle cx="72.7" cy="198.0" r="3" fill="#3fb950"/><circle cx="76.4" cy="198.0" r="3" fill="#3fb950"/><circle cx="80.1" cy="198.0" r="3" fill="#3fb950"/><circle cx="83.7" cy="198.0" r="3" fill="#3fb950"/><circle cx="87.4" cy="198.0" r="3" fill="#3fb950"/><circle cx="91.1" cy="198.0" r="3" fill="#3fb950"/><circle cx="94.8" cy="198.0" r="3" fill="#3fb950"/><circle cx="98.4" cy="198.0" r="3" fill="#3fb950"/><circle cx="102.1" cy="198.0" r="3" fill="#3fb950"/><circle cx="105.8" cy="198.0" r="3" fill="#3fb950"/><circle cx="109.5" cy="198.0" r="3" fill="#3fb950"/><circle cx="113.1" cy="198.0" r="3" fill="#3fb950"/><circle cx="116.8" cy="198.0" r="3" fill="#3fb950"/><circle cx="120.5" cy="198.0" r="3" fill="#3fb950"/><circle cx="124.1" cy="198.0" r="3" fill="#3fb950"/><circle cx="127.8" cy="198.0" r="3" fill="#3fb950"/><circle cx="131.5" cy="198.0" r="3" fill="#3fb950"/><circle cx="135.2" cy="198.0" r="3" fill="#3fb950"/><circle cx="138.8" cy="198.0" r="3" fill="#3fb950"/><circle cx="142.5" cy="198.0" r="3" fill="#3fb950"/><circle cx="146.2" cy="198.0" r="3" fill="#3fb950"/><circle cx="149.8" cy="198.0" r="3" fill="#3fb950"/><circle cx="153.5" cy="198.0" r="3" fill="#3fb950"/><circle cx="157.2" cy="198.0" r="3" fill="#3fb950"/><circle cx="160.9" cy="198.0" r="3" fill="#3fb950"/><circle cx="164.5" cy="198.0" r="3" fill="#3fb950"/><circle cx="168.2" cy="198.0" r="3" fill="#3fb950"/><circle cx="171.9" cy="198.0" r="3" fill="#3fb950"/><circle cx="175.6" cy="198.0" r="3" fill="#3fb950"/><circle cx="179.2" cy="198.0" r="3" fill="#3fb950"/><circle cx="182.9" cy="198.0" r="3" fill="#3fb950"/><circle cx="186.6" cy="198.0" r="3" fill="#3fb950"/><circle cx="190.2" cy="198.0" r="3" fill="#3fb950"/><circle cx="193.9" cy="191.7" r="3" fill="#3fb950"/><circle cx="197.6" cy="191.7" r="3" fill="#3fb950"/><circle cx="201.3" cy="191.7" r="3" fill="#3fb950"/><circle cx="204.9" cy="191.7" r="3" fill="#3fb950"/><circle cx="208.6" cy="191.7" r="3" fill="#3fb950"/><circle cx="212.3" cy="191.7" r="3" fill="#3fb950"/><circle cx="216.0" cy="191.7" r="3" fill="#3fb950"/><circle cx="219.6" cy="192.9" r="3" fill="#3fb950"/><circle cx="223.3" cy="192.9" r="3" fill="#3fb950"/><circle cx="227.0" cy="190.7" r="3" fill="#3fb950"/><circle cx="230.6" cy="190.7" r="3" fill="#3fb950"/><circle cx="234.3" cy="190.7" r="3" fill="#3fb950"/><circle cx="238.0" cy="190.7" r="3" fill="#3fb950"/><circle cx="241.7" cy="190.7" r="3" fill="#3fb950"/><circle cx="245.3" cy="190.5" r="3" fill="#3fb950"/><circle cx="249.0" cy="190.5" r="3" fill="#3fb950"/><circle cx="252.7" cy="190.5" r="3" fill="#3fb950"/><circle cx="256.4" cy="190.3" r="3" fill="#3fb950"/><circle cx="260.0" cy="190.3" r="3" fill="#3fb950"/><circle cx="263.7" cy="190.3" r="3" fill="#3fb950"/><circle cx="267.4" cy="190.3" r="3" fill="#3fb950"/><circle cx="271.0" cy="190.3" r="3" fill="#3fb950"/><circle cx="274.7" cy="190.3" r="3" fill="#3fb950"/><circle cx="278.4" cy="190.3" r="3" fill="#3fb950"/><circle cx="282.1" cy="190.3" r="3" fill="#3fb950"/><circle cx="285.7" cy="190.3" r="3" fill="#3fb950"/><circle cx="289.4" cy="190.3" r="3" fill="#3fb950"/><circle cx="293.1" cy="190.3" r="3" fill="#3fb950"/><circle cx="296.7" cy="190.3" r="3" fill="#3fb950"/><circle cx="300.4" cy="190.3" r="3" fill="#3fb950"/><circle cx="304.1" cy="190.3" r="3" fill="#3fb950"/><circle cx="307.8" cy="190.3" r="3" fill="#3fb950"/><circle cx="311.4" cy="190.3" r="3" fill="#3fb950"/><circle cx="315.1" cy="190.3" r="3" fill="#3fb950"/><circle cx="318.8" cy="190.3" r="3" fill="#3fb950"/><circle cx="322.5" cy="190.3" r="3" fill="#3fb950"/><circle cx="326.1" cy="190.3" r="3" fill="#3fb950"/><circle cx="329.8" cy="190.3" r="3" fill="#3fb950"/><circle cx="333.5" cy="189.3" r="3" fill="#3fb950"/><circle cx="337.1" cy="189.3" r="3" fill="#3fb950"/><circle cx="340.8" cy="189.3" r="3" fill="#3fb950"/><circle cx="344.5" cy="190.7" r="3" fill="#3fb950"/><circle cx="348.2" cy="190.7" r="3" fill="#3fb950"/><circle cx="351.8" cy="190.7" r="3" fill="#3fb950"/><circle cx="355.5" cy="190.7" r="3" fill="#3fb950"/><circle cx="359.2" cy="190.7" r="3" fill="#3fb950"/><circle cx="362.9" cy="190.7" r="3" fill="#3fb950"/><circle cx="366.5" cy="190.7" r="3" fill="#3fb950"/><circle cx="370.2" cy="190.7" r="3" fill="#3fb950"/><circle cx="373.9" cy="190.7" r="3" fill="#3fb950"/><circle cx="377.5" cy="190.9" r="3" fill="#3fb950"/><circle cx="381.2" cy="190.9" r="3" fill="#3fb950"/><circle cx="384.9" cy="190.9" r="3" fill="#3fb950"/><circle cx="388.6" cy="194.2" r="3" fill="#3fb950"/><circle cx="392.2" cy="196.8" r="3" fill="#3fb950"/><circle cx="395.9" cy="198.0" r="3" fill="#3fb950"/><circle cx="399.6" cy="198.0" r="3" fill="#3fb950"/><circle cx="403.3" cy="198.0" r="3" fill="#3fb950"/><circle cx="406.9" cy="198.0" r="3" fill="#3fb950"/><circle cx="410.6" cy="198.0" r="3" fill="#3fb950"/><circle cx="414.3" cy="198.0" r="3" fill="#3fb950"/><circle cx="417.9" cy="198.0" r="3" fill="#3fb950"/><circle cx="421.6" cy="198.0" r="3" fill="#3fb950"/><circle cx="425.3" cy="198.0" r="3" fill="#3fb950"/><circle cx="429.0" cy="198.0" r="3" fill="#3fb950"/><circle cx="432.6" cy="198.0" r="3" fill="#3fb950"/><circle cx="436.3" cy="198.0" r="3" fill="#3fb950"/><circle cx="440.0" cy="198.0" r="3" fill="#3fb950"/><circle cx="443.6" cy="198.0" r="3" fill="#3fb950"/><circle cx="447.3" cy="198.0" r="3" fill="#3fb950"/><circle cx="451.0" cy="198.0" r="3" fill="#3fb950"/><circle cx="454.7" cy="198.0" r="3" fill="#3fb950"/><circle cx="458.3" cy="198.0" r="3" fill="#3fb950"/><circle cx="462.0" cy="198.0" r="3" fill="#3fb950"/><circle cx="465.7" cy="198.0" r="3" fill="#3fb950"/><circle cx="469.4" cy="198.0" r="3" fill="#3fb950"/><circle cx="473.0" cy="198.0" r="3" fill="#3fb950"/><circle cx="476.7" cy="198.0" r="3" fill="#3fb950"/><circle cx="480.4" cy="198.0" r="3" fill="#3fb950"/><circle cx="484.0" cy="198.0" r="3" fill="#3fb950"/><circle cx="487.7" cy="198.0" r="3" fill="#3fb950"/><circle cx="491.4" cy="198.0" r="3" fill="#3fb950"/><circle cx="495.1" cy="198.0" r="3" fill="#3fb950"/><circle cx="498.7" cy="198.0" r="3" fill="#3fb950"/><circle cx="502.4" cy="198.0" r="3" fill="#3fb950"/><circle cx="506.1" cy="198.0" r="3" fill="#3fb950"/><circle cx="509.8" cy="198.0" r="3" fill="#3fb950"/><circle cx="513.4" cy="198.0" r="3" fill="#3fb950"/><circle cx="517.1" cy="198.0" r="3" fill="#3fb950"/><circle cx="520.8" cy="198.0" r="3" fill="#3fb950"/><circle cx="524.4" cy="198.0" r="3" fill="#3fb950"/><circle cx="528.1" cy="198.0" r="3" fill="#3fb950"/><circle cx="531.8" cy="198.0" r="3" fill="#3fb950"/><circle cx="535.5" cy="198.0" r="3" fill="#3fb950"/><circle cx="539.1" cy="198.0" r="3" fill="#3fb950"/><circle cx="542.8" cy="198.0" r="3" fill="#3fb950"/><circle cx="546.5" cy="198.0" r="3" fill="#3fb950"/><circle cx="550.2" cy="198.0" r="3" fill="#3fb950"/><circle cx="553.8" cy="198.0" r="3" fill="#3fb950"/><circle cx="557.5" cy="198.0" r="3" fill="#3fb950"/><circle cx="561.2" cy="198.0" r="3" fill="#3fb950"/><circle cx="564.8" cy="198.0" r="3" fill="#3fb950"/><circle cx="568.5" cy="198.0" r="3" fill="#3fb950"/><circle cx="572.2" cy="198.0" r="3" fill="#3fb950"/><circle cx="575.9" cy="198.0" r="3" fill="#3fb950"/><circle cx="579.5" cy="198.0" r="3" fill="#3fb950"/><circle cx="583.2" cy="198.0" r="3" fill="#3fb950"/><circle cx="586.9" cy="198.0" r="3" fill="#3fb950"/><circle cx="590.5" cy="198.0" r="3" fill="#3fb950"/><circle cx="594.2" cy="198.0" r="3" fill="#3fb950"/><circle cx="597.9" cy="198.0" r="3" fill="#3fb950"/><circle cx="601.6" cy="198.0" r="3" fill="#3fb950"/><circle cx="605.2" cy="198.0" r="3" fill="#3fb950"/><circle cx="608.9" cy="198.0" r="3" fill="#3fb950"/><circle cx="612.6" cy="198.0" r="3" fill="#3fb950"/><circle cx="616.3" cy="198.0" r="3" fill="#3fb950"/><circle cx="619.9" cy="198.0" r="3" fill="#3fb950"/><circle cx="623.6" cy="198.0" r="3" fill="#3fb950"/><circle cx="627.3" cy="198.0" r="3" fill="#3fb950"/><circle cx="630.9" cy="198.0" r="3" fill="#3fb950"/><circle cx="634.6" cy="198.0" r="3" fill="#3fb950"/><circle cx="638.3" cy="198.0" r="3" fill="#3fb950"/><circle cx="642.0" cy="198.0" r="3" fill="#3fb950"/><circle cx="645.6" cy="198.0" r="3" fill="#3fb950"/><circle cx="649.3" cy="198.0" r="3" fill="#3fb950"/><circle cx="653.0" cy="198.0" r="3" fill="#3fb950"/><circle cx="656.7" cy="198.0" r="3" fill="#3fb950"/><circle cx="660.3" cy="198.0" r="3" fill="#3fb950"/><circle cx="664.0" cy="198.0" r="3" fill="#3fb950"/>
<polyline fill="none" stroke="#4aa3ff" stroke-width="2.5" stroke-linejoin="round" points="36.0,144.3 39.7,144.3 43.3,144.3 47.0,144.3 50.7,144.3 54.4,144.3 58.0,144.3 61.7,144.3 65.4,144.3 69.1,144.3 72.7,144.3 76.4,144.3 80.1,144.3 83.7,144.3 87.4,144.3 91.1,136.2 94.8,132.4 98.4,129.6 102.1,129.6 105.8,121.0 109.5,121.0 113.1,121.0 116.8,114.4 120.5,114.4 124.1,114.4 127.8,111.3 131.5,110.9 135.2,110.9 138.8,110.5 142.5,110.5 146.2,109.9 149.8,108.7 153.5,107.3 157.2,106.9 160.9,106.9 164.5,106.9 168.2,106.9 171.9,106.9 175.6,106.9 179.2,106.9 182.9,106.9 186.6,106.9 190.2,106.9 193.9,113.2 197.6,113.2 201.3,113.2 204.9,113.2 208.6,113.2 212.3,110.7 216.0,105.3 219.6,83.4 223.3,83.4 227.0,85.6 230.6,85.6 234.3,85.6 238.0,85.6 241.7,85.6 245.3,85.8 249.0,85.8 252.7,85.8 256.4,86.0 260.0,86.0 263.7,86.0 267.4,86.0 271.0,86.0 274.7,86.0 278.4,86.0 282.1,86.0 285.7,86.0 289.4,86.0 293.1,86.0 296.7,86.0 300.4,86.0 304.1,86.0 307.8,86.0 311.4,86.0 315.1,86.0 318.8,86.0 322.5,86.0 326.1,86.0 329.8,86.0 333.5,87.0 337.1,87.0 340.8,87.0 344.5,73.7 348.2,73.7 351.8,71.0 355.5,71.0 359.2,70.8 362.9,70.6 366.5,70.6 370.2,70.4 373.9,68.6 377.5,60.5 381.2,59.3 384.9,52.0 388.6,47.3 392.2,40.1 395.9,36.0 399.6,36.0 403.3,36.0 406.9,36.0 410.6,36.0 414.3,36.0 417.9,36.0 421.6,36.0 425.3,36.0 429.0,36.0 432.6,36.0 436.3,36.0 440.0,36.0 443.6,36.0 447.3,36.0 451.0,36.0 454.7,36.0 458.3,36.0 462.0,36.0 465.7,36.0 469.4,36.0 473.0,36.0 476.7,36.0 480.4,36.0 484.0,36.0 487.7,36.0 491.4,36.0 495.1,36.0 498.7,36.0 502.4,36.0 506.1,36.0 509.8,36.0 513.4,36.0 517.1,36.0 520.8,36.0 524.4,36.0 528.1,36.0 531.8,36.0 535.5,36.0 539.1,36.0 542.8,36.0 546.5,36.0 550.2,36.0 553.8,36.0 557.5,36.0 561.2,36.0 564.8,36.0 568.5,36.0 572.2,36.0 575.9,36.0 579.5,36.0 583.2,36.0 586.9,36.0 590.5,36.0 594.2,36.0 597.9,36.0 601.6,36.0 605.2,36.0 608.9,36.0 612.6,36.0 616.3,36.0 619.9,36.0 623.6,36.0 627.3,36.0 630.9,36.0 634.6,36.0 638.3,36.0 642.0,36.0 645.6,36.0 649.3,36.0 653.0,36.0 656.7,36.0 660.3,36.0 664.0,36.0"/><circle cx="36.0" cy="144.3" r="3" fill="#4aa3ff"/><circle cx="39.7" cy="144.3" r="3" fill="#4aa3ff"/><circle cx="43.3" cy="144.3" r="3" fill="#4aa3ff"/><circle cx="47.0" cy="144.3" r="3" fill="#4aa3ff"/><circle cx="50.7" cy="144.3" r="3" fill="#4aa3ff"/><circle cx="54.4" cy="144.3" r="3" fill="#4aa3ff"/><circle cx="58.0" cy="144.3" r="3" fill="#4aa3ff"/><circle cx="61.7" cy="144.3" r="3" fill="#4aa3ff"/><circle cx="65.4" cy="144.3" r="3" fill="#4aa3ff"/><circle cx="69.1" cy="144.3" r="3" fill="#4aa3ff"/><circle cx="72.7" cy="144.3" r="3" fill="#4aa3ff"/><circle cx="76.4" cy="144.3" r="3" fill="#4aa3ff"/><circle cx="80.1" cy="144.3" r="3" fill="#4aa3ff"/><circle cx="83.7" cy="144.3" r="3" fill="#4aa3ff"/><circle cx="87.4" cy="144.3" r="3" fill="#4aa3ff"/><circle cx="91.1" cy="136.2" r="3" fill="#4aa3ff"/><circle cx="94.8" cy="132.4" r="3" fill="#4aa3ff"/><circle cx="98.4" cy="129.6" r="3" fill="#4aa3ff"/><circle cx="102.1" cy="129.6" r="3" fill="#4aa3ff"/><circle cx="105.8" cy="121.0" r="3" fill="#4aa3ff"/><circle cx="109.5" cy="121.0" r="3" fill="#4aa3ff"/><circle cx="113.1" cy="121.0" r="3" fill="#4aa3ff"/><circle cx="116.8" cy="114.4" r="3" fill="#4aa3ff"/><circle cx="120.5" cy="114.4" r="3" fill="#4aa3ff"/><circle cx="124.1" cy="114.4" r="3" fill="#4aa3ff"/><circle cx="127.8" cy="111.3" r="3" fill="#4aa3ff"/><circle cx="131.5" cy="110.9" r="3" fill="#4aa3ff"/><circle cx="135.2" cy="110.9" r="3" fill="#4aa3ff"/><circle cx="138.8" cy="110.5" r="3" fill="#4aa3ff"/><circle cx="142.5" cy="110.5" r="3" fill="#4aa3ff"/><circle cx="146.2" cy="109.9" r="3" fill="#4aa3ff"/><circle cx="149.8" cy="108.7" r="3" fill="#4aa3ff"/><circle cx="153.5" cy="107.3" r="3" fill="#4aa3ff"/><circle cx="157.2" cy="106.9" r="3" fill="#4aa3ff"/><circle cx="160.9" cy="106.9" r="3" fill="#4aa3ff"/><circle cx="164.5" cy="106.9" r="3" fill="#4aa3ff"/><circle cx="168.2" cy="106.9" r="3" fill="#4aa3ff"/><circle cx="171.9" cy="106.9" r="3" fill="#4aa3ff"/><circle cx="175.6" cy="106.9" r="3" fill="#4aa3ff"/><circle cx="179.2" cy="106.9" r="3" fill="#4aa3ff"/><circle cx="182.9" cy="106.9" r="3" fill="#4aa3ff"/><circle cx="186.6" cy="106.9" r="3" fill="#4aa3ff"/><circle cx="190.2" cy="106.9" r="3" fill="#4aa3ff"/><circle cx="193.9" cy="113.2" r="3" fill="#4aa3ff"/><circle cx="197.6" cy="113.2" r="3" fill="#4aa3ff"/><circle cx="201.3" cy="113.2" r="3" fill="#4aa3ff"/><circle cx="204.9" cy="113.2" r="3" fill="#4aa3ff"/><circle cx="208.6" cy="113.2" r="3" fill="#4aa3ff"/><circle cx="212.3" cy="110.7" r="3" fill="#4aa3ff"/><circle cx="216.0" cy="105.3" r="3" fill="#4aa3ff"/><circle cx="219.6" cy="83.4" r="3" fill="#4aa3ff"/><circle cx="223.3" cy="83.4" r="3" fill="#4aa3ff"/><circle cx="227.0" cy="85.6" r="3" fill="#4aa3ff"/><circle cx="230.6" cy="85.6" r="3" fill="#4aa3ff"/><circle cx="234.3" cy="85.6" r="3" fill="#4aa3ff"/><circle cx="238.0" cy="85.6" r="3" fill="#4aa3ff"/><circle cx="241.7" cy="85.6" r="3" fill="#4aa3ff"/><circle cx="245.3" cy="85.8" r="3" fill="#4aa3ff"/><circle cx="249.0" cy="85.8" r="3" fill="#4aa3ff"/><circle cx="252.7" cy="85.8" r="3" fill="#4aa3ff"/><circle cx="256.4" cy="86.0" r="3" fill="#4aa3ff"/><circle cx="260.0" cy="86.0" r="3" fill="#4aa3ff"/><circle cx="263.7" cy="86.0" r="3" fill="#4aa3ff"/><circle cx="267.4" cy="86.0" r="3" fill="#4aa3ff"/><circle cx="271.0" cy="86.0" r="3" fill="#4aa3ff"/><circle cx="274.7" cy="86.0" r="3" fill="#4aa3ff"/><circle cx="278.4" cy="86.0" r="3" fill="#4aa3ff"/><circle cx="282.1" cy="86.0" r="3" fill="#4aa3ff"/><circle cx="285.7" cy="86.0" r="3" fill="#4aa3ff"/><circle cx="289.4" cy="86.0" r="3" fill="#4aa3ff"/><circle cx="293.1" cy="86.0" r="3" fill="#4aa3ff"/><circle cx="296.7" cy="86.0" r="3" fill="#4aa3ff"/><circle cx="300.4" cy="86.0" r="3" fill="#4aa3ff"/><circle cx="304.1" cy="86.0" r="3" fill="#4aa3ff"/><circle cx="307.8" cy="86.0" r="3" fill="#4aa3ff"/><circle cx="311.4" cy="86.0" r="3" fill="#4aa3ff"/><circle cx="315.1" cy="86.0" r="3" fill="#4aa3ff"/><circle cx="318.8" cy="86.0" r="3" fill="#4aa3ff"/><circle cx="322.5" cy="86.0" r="3" fill="#4aa3ff"/><circle cx="326.1" cy="86.0" r="3" fill="#4aa3ff"/><circle cx="329.8" cy="86.0" r="3" fill="#4aa3ff"/><circle cx="333.5" cy="87.0" r="3" fill="#4aa3ff"/><circle cx="337.1" cy="87.0" r="3" fill="#4aa3ff"/><circle cx="340.8" cy="87.0" r="3" fill="#4aa3ff"/><circle cx="344.5" cy="73.7" r="3" fill="#4aa3ff"/><circle cx="348.2" cy="73.7" r="3" fill="#4aa3ff"/><circle cx="351.8" cy="71.0" r="3" fill="#4aa3ff"/><circle cx="355.5" cy="71.0" r="3" fill="#4aa3ff"/><circle cx="359.2" cy="70.8" r="3" fill="#4aa3ff"/><circle cx="362.9" cy="70.6" r="3" fill="#4aa3ff"/><circle cx="366.5" cy="70.6" r="3" fill="#4aa3ff"/><circle cx="370.2" cy="70.4" r="3" fill="#4aa3ff"/><circle cx="373.9" cy="68.6" r="3" fill="#4aa3ff"/><circle cx="377.5" cy="60.5" r="3" fill="#4aa3ff"/><circle cx="381.2" cy="59.3" r="3" fill="#4aa3ff"/><circle cx="384.9" cy="52.0" r="3" fill="#4aa3ff"/><circle cx="388.6" cy="47.3" r="3" fill="#4aa3ff"/><circle cx="392.2" cy="40.1" r="3" fill="#4aa3ff"/><circle cx="395.9" cy="36.0" r="3" fill="#4aa3ff"/><circle cx="399.6" cy="36.0" r="3" fill="#4aa3ff"/><circle cx="403.3" cy="36.0" r="3" fill="#4aa3ff"/><circle cx="406.9" cy="36.0" r="3" fill="#4aa3ff"/><circle cx="410.6" cy="36.0" r="3" fill="#4aa3ff"/><circle cx="414.3" cy="36.0" r="3" fill="#4aa3ff"/><circle cx="417.9" cy="36.0" r="3" fill="#4aa3ff"/><circle cx="421.6" cy="36.0" r="3" fill="#4aa3ff"/><circle cx="425.3" cy="36.0" r="3" fill="#4aa3ff"/><circle cx="429.0" cy="36.0" r="3" fill="#4aa3ff"/><circle cx="432.6" cy="36.0" r="3" fill="#4aa3ff"/><circle cx="436.3" cy="36.0" r="3" fill="#4aa3ff"/><circle cx="440.0" cy="36.0" r="3" fill="#4aa3ff"/><circle cx="443.6" cy="36.0" r="3" fill="#4aa3ff"/><circle cx="447.3" cy="36.0" r="3" fill="#4aa3ff"/><circle cx="451.0" cy="36.0" r="3" fill="#4aa3ff"/><circle cx="454.7" cy="36.0" r="3" fill="#4aa3ff"/><circle cx="458.3" cy="36.0" r="3" fill="#4aa3ff"/><circle cx="462.0" cy="36.0" r="3" fill="#4aa3ff"/><circle cx="465.7" cy="36.0" r="3" fill="#4aa3ff"/><circle cx="469.4" cy="36.0" r="3" fill="#4aa3ff"/><circle cx="473.0" cy="36.0" r="3" fill="#4aa3ff"/><circle cx="476.7" cy="36.0" r="3" fill="#4aa3ff"/><circle cx="480.4" cy="36.0" r="3" fill="#4aa3ff"/><circle cx="484.0" cy="36.0" r="3" fill="#4aa3ff"/><circle cx="487.7" cy="36.0" r="3" fill="#4aa3ff"/><circle cx="491.4" cy="36.0" r="3" fill="#4aa3ff"/><circle cx="495.1" cy="36.0" r="3" fill="#4aa3ff"/><circle cx="498.7" cy="36.0" r="3" fill="#4aa3ff"/><circle cx="502.4" cy="36.0" r="3" fill="#4aa3ff"/><circle cx="506.1" cy="36.0" r="3" fill="#4aa3ff"/><circle cx="509.8" cy="36.0" r="3" fill="#4aa3ff"/><circle cx="513.4" cy="36.0" r="3" fill="#4aa3ff"/><circle cx="517.1" cy="36.0" r="3" fill="#4aa3ff"/><circle cx="520.8" cy="36.0" r="3" fill="#4aa3ff"/><circle cx="524.4" cy="36.0" r="3" fill="#4aa3ff"/><circle cx="528.1" cy="36.0" r="3" fill="#4aa3ff"/><circle cx="531.8" cy="36.0" r="3" fill="#4aa3ff"/><circle cx="535.5" cy="36.0" r="3" fill="#4aa3ff"/><circle cx="539.1" cy="36.0" r="3" fill="#4aa3ff"/><circle cx="542.8" cy="36.0" r="3" fill="#4aa3ff"/><circle cx="546.5" cy="36.0" r="3" fill="#4aa3ff"/><circle cx="550.2" cy="36.0" r="3" fill="#4aa3ff"/><circle cx="553.8" cy="36.0" r="3" fill="#4aa3ff"/><circle cx="557.5" cy="36.0" r="3" fill="#4aa3ff"/><circle cx="561.2" cy="36.0" r="3" fill="#4aa3ff"/><circle cx="564.8" cy="36.0" r="3" fill="#4aa3ff"/><circle cx="568.5" cy="36.0" r="3" fill="#4aa3ff"/><circle cx="572.2" cy="36.0" r="3" fill="#4aa3ff"/><circle cx="575.9" cy="36.0" r="3" fill="#4aa3ff"/><circle cx="579.5" cy="36.0" r="3" fill="#4aa3ff"/><circle cx="583.2" cy="36.0" r="3" fill="#4aa3ff"/><circle cx="586.9" cy="36.0" r="3" fill="#4aa3ff"/><circle cx="590.5" cy="36.0" r="3" fill="#4aa3ff"/><circle cx="594.2" cy="36.0" r="3" fill="#4aa3ff"/><circle cx="597.9" cy="36.0" r="3" fill="#4aa3ff"/><circle cx="601.6" cy="36.0" r="3" fill="#4aa3ff"/><circle cx="605.2" cy="36.0" r="3" fill="#4aa3ff"/><circle cx="608.9" cy="36.0" r="3" fill="#4aa3ff"/><circle cx="612.6" cy="36.0" r="3" fill="#4aa3ff"/><circle cx="616.3" cy="36.0" r="3" fill="#4aa3ff"/><circle cx="619.9" cy="36.0" r="3" fill="#4aa3ff"/><circle cx="623.6" cy="36.0" r="3" fill="#4aa3ff"/><circle cx="627.3" cy="36.0" r="3" fill="#4aa3ff"/><circle cx="630.9" cy="36.0" r="3" fill="#4aa3ff"/><circle cx="634.6" cy="36.0" r="3" fill="#4aa3ff"/><circle cx="638.3" cy="36.0" r="3" fill="#4aa3ff"/><circle cx="642.0" cy="36.0" r="3" fill="#4aa3ff"/><circle cx="645.6" cy="36.0" r="3" fill="#4aa3ff"/><circle cx="649.3" cy="36.0" r="3" fill="#4aa3ff"/><circle cx="653.0" cy="36.0" r="3" fill="#4aa3ff"/><circle cx="656.7" cy="36.0" r="3" fill="#4aa3ff"/><circle cx="660.3" cy="36.0" r="3" fill="#4aa3ff"/><circle cx="664.0" cy="36.0" r="3" fill="#4aa3ff"/>
<text x="36" y="225" fill="#6b7280" font-size="11">2026-06-26</text>
<text x="664" y="225" fill="#6b7280" font-size="11" text-anchor="end">2026-07-14</text>
<text x="36" y="212" font-family="system-ui,sans-serif" font-size="11">
<tspan fill="#4aa3ff">&#9679; open FPs</tspan>  <tspan fill="#3fb950">&#9679; closed (Anthropic acting)</tspan>  <tspan fill="#8a5a5a">&#9679; harness withdrawn</tspan></text>
<text x="664" y="22" text-anchor="end" font-family="system-ui,sans-serif" font-size="12">
<tspan fill="#4aa3ff">open 800</tspan>  <tspan fill="#3fb950">closed 0</tspan>  <tspan fill="#8a5a5a">harness 0</tspan></text>
</svg>