<svg xmlns="http://www.w3.org/2000/svg" width="700" height="234" viewBox="0 0 700 234" role="img">
<rect width="700" height="234" rx="12" fill="#16181d"/>
<text x="36" y="22" fill="#e8eaed" font-family="system-ui,sans-serif" font-size="14" font-weight="700">Is Anthropic acting? cyber/aup false positives over time</text>
<line x1="36" y1="198.0" x2="664" y2="198.0" stroke="#2a2e37" stroke-width="1"/><text x="30" y="202.0" fill="#6b7280" font-size="11" text-anchor="end">0</text><line x1="36" y1="117.0" x2="664" y2="117.0" stroke="#2a2e37" stroke-width="1"/><text x="30" y="121.0" fill="#6b7280" font-size="11" text-anchor="end">400</text><line x1="36" y1="36.0" x2="664" y2="36.0" stroke="#2a2e37" stroke-width="1"/><text x="30" y="40.0" fill="#6b7280" font-size="11" text-anchor="end">800</text>

<polyline fill="none" stroke="#8a5a5a" stroke-width="2.5" stroke-linejoin="round" points="36.0,145.1 39.0,145.1 42.1,145.1 45.1,145.1 48.1,145.1 51.2,145.1 54.2,145.1 57.2,145.1 60.3,145.1 63.3,145.1 66.3,145.1 69.4,145.1 72.4,145.1 75.4,145.1 78.5,145.1 81.5,145.1 84.5,145.1 87.6,145.1 90.6,145.1 93.6,145.1 96.7,145.1 99.7,145.1 102.7,145.1 105.8,145.1 108.8,145.1 111.8,145.1 114.9,145.1 117.9,145.1 120.9,145.1 124.0,145.1 127.0,145.1 130.0,145.1 133.1,145.1 136.1,145.1 139.1,145.1 142.2,145.1 145.2,145.1 148.3,145.1 151.3,145.1 154.3,145.1 157.4,145.1 160.4,145.1 163.4,145.1 166.5,145.1 169.5,145.1 172.5,145.1 175.6,145.1 178.6,145.1 181.6,145.1 184.7,145.1 187.7,155.7 190.7,155.7 193.8,155.7 196.8,155.7 199.8,155.7 202.9,155.7 205.9,155.7 208.9,155.7 212.0,155.7 215.0,155.7 218.0,155.7 221.1,155.7 224.1,155.7 227.1,155.7 230.2,155.7 233.2,155.7 236.2,155.7 239.3,155.7 242.3,155.7 245.3,155.7 248.4,155.7 251.4,155.7 254.4,155.7 257.5,155.7 260.5,155.7 263.5,155.7 266.6,155.7 269.6,155.7 272.6,155.7 275.7,155.7 278.7,155.7 281.7,155.7 284.8,155.7 287.8,155.7 290.8,167.6 293.9,167.6 296.9,170.3 299.9,170.3 303.0,170.5 306.0,170.7 309.0,170.7 312.1,170.9 315.1,172.7 318.1,180.6 321.2,181.8 324.2,189.1 327.2,190.5 330.3,195.2 333.3,198.0 336.3,198.0 339.4,198.0 342.4,198.0 345.4,198.0 348.5,198.0 351.5,198.0 354.6,198.0 357.6,198.0 360.6,198.0 363.7,198.0 366.7,198.0 369.7,198.0 372.8,198.0 375.8,198.0 378.8,198.0 381.9,198.0 384.9,198.0 387.9,198.0 391.0,198.0 394.0,198.0 397.0,198.0 400.1,198.0 403.1,198.0 406.1,198.0 409.2,198.0 412.2,198.0 415.2,198.0 418.3,198.0 421.3,198.0 424.3,198.0 427.4,198.0 430.4,198.0 433.4,198.0 436.5,198.0 439.5,198.0 442.5,198.0 445.6,198.0 448.6,198.0 451.6,198.0 454.7,198.0 457.7,198.0 460.7,198.0 463.8,198.0 466.8,198.0 469.8,198.0 472.9,198.0 475.9,198.0 478.9,198.0 482.0,198.0 485.0,198.0 488.0,198.0 491.1,198.0 494.1,198.0 497.1,198.0 500.2,198.0 503.2,198.0 506.2,198.0 509.3,198.0 512.3,198.0 515.3,198.0 518.4,198.0 521.4,198.0 524.4,198.0 527.5,198.0 530.5,198.0 533.5,198.0 536.6,198.0 539.6,198.0 542.6,198.0 545.7,198.0 548.7,198.0 551.7,198.0 554.8,198.0 557.8,198.0 560.9,198.0 563.9,198.0 566.9,198.0 570.0,198.0 573.0,198.0 576.0,198.0 579.1,198.0 582.1,198.0 585.1,198.0 588.2,198.0 591.2,198.0 594.2,198.0 597.3,198.0 600.3,198.0 603.3,198.0 606.4,198.0 609.4,198.0 612.4,198.0 615.5,198.0 618.5,198.0 621.5,198.0 624.6,198.0 627.6,198.0 630.6,198.0 633.7,198.0 636.7,198.0 639.7,198.0 642.8,198.0 645.8,198.0 648.8,198.0 651.9,198.0 654.9,198.0 657.9,198.0 661.0,198.0 664.0,198.0"/><circle cx="36.0" cy="145.1" r="3" fill="#8a5a5a"/><circle cx="39.0" cy="145.1" r="3" fill="#8a5a5a"/><circle cx="42.1" cy="145.1" r="3" fill="#8a5a5a"/><circle cx="45.1" cy="145.1" r="3" fill="#8a5a5a"/><circle cx="48.1" cy="145.1" r="3" fill="#8a5a5a"/><circle cx="51.2" cy="145.1" r="3" fill="#8a5a5a"/><circle cx="54.2" cy="145.1" r="3" fill="#8a5a5a"/><circle cx="57.2" cy="145.1" r="3" fill="#8a5a5a"/><circle cx="60.3" cy="145.1" r="3" fill="#8a5a5a"/><circle cx="63.3" cy="145.1" r="3" fill="#8a5a5a"/><circle cx="66.3" cy="145.1" r="3" fill="#8a5a5a"/><circle cx="69.4" cy="145.1" r="3" fill="#8a5a5a"/><circle cx="72.4" cy="145.1" r="3" fill="#8a5a5a"/><circle cx="75.4" cy="145.1" r="3" fill="#8a5a5a"/><circle cx="78.5" cy="145.1" r="3" fill="#8a5a5a"/><circle cx="81.5" cy="145.1" r="3" fill="#8a5a5a"/><circle cx="84.5" cy="145.1" r="3" fill="#8a5a5a"/><circle cx="87.6" cy="145.1" r="3" fill="#8a5a5a"/><circle cx="90.6" cy="145.1" r="3" fill="#8a5a5a"/><circle cx="93.6" cy="145.1" r="3" fill="#8a5a5a"/><circle cx="96.7" cy="145.1" r="3" fill="#8a5a5a"/><circle cx="99.7" cy="145.1" r="3" fill="#8a5a5a"/><circle cx="102.7" cy="145.1" r="3" fill="#8a5a5a"/><circle cx="105.8" cy="145.1" r="3" fill="#8a5a5a"/><circle cx="108.8" cy="145.1" r="3" fill="#8a5a5a"/><circle cx="111.8" cy="145.1" r="3" fill="#8a5a5a"/><circle cx="114.9" cy="145.1" r="3" fill="#8a5a5a"/><circle cx="117.9" cy="145.1" r="3" fill="#8a5a5a"/><circle cx="120.9" cy="145.1" r="3" fill="#8a5a5a"/><circle cx="124.0" cy="145.1" r="3" fill="#8a5a5a"/><circle cx="127.0" cy="145.1" r="3" fill="#8a5a5a"/><circle cx="130.0" cy="145.1" r="3" fill="#8a5a5a"/><circle cx="133.1" cy="145.1" r="3" fill="#8a5a5a"/><circle cx="136.1" cy="145.1" r="3" fill="#8a5a5a"/><circle cx="139.1" cy="145.1" r="3" fill="#8a5a5a"/><circle cx="142.2" cy="145.1" r="3" fill="#8a5a5a"/><circle cx="145.2" cy="145.1" r="3" fill="#8a5a5a"/><circle cx="148.3" cy="145.1" r="3" fill="#8a5a5a"/><circle cx="151.3" cy="145.1" r="3" fill="#8a5a5a"/><circle cx="154.3" cy="145.1" r="3" fill="#8a5a5a"/><circle cx="157.4" cy="145.1" r="3" fill="#8a5a5a"/><circle cx="160.4" cy="145.1" r="3" fill="#8a5a5a"/><circle cx="163.4" cy="145.1" r="3" fill="#8a5a5a"/><circle cx="166.5" cy="145.1" r="3" fill="#8a5a5a"/><circle cx="169.5" cy="145.1" r="3" fill="#8a5a5a"/><circle cx="172.5" cy="145.1" r="3" fill="#8a5a5a"/><circle cx="175.6" cy="145.1" r="3" fill="#8a5a5a"/><circle cx="178.6" cy="145.1" r="3" fill="#8a5a5a"/><circle cx="181.6" cy="145.1" r="3" fill="#8a5a5a"/><circle cx="184.7" cy="145.1" r="3" fill="#8a5a5a"/><circle cx="187.7" cy="155.7" r="3" fill="#8a5a5a"/><circle cx="190.7" cy="155.7" r="3" fill="#8a5a5a"/><circle cx="193.8" cy="155.7" r="3" fill="#8a5a5a"/><circle cx="196.8" cy="155.7" r="3" fill="#8a5a5a"/><circle cx="199.8" cy="155.7" r="3" fill="#8a5a5a"/><circle cx="202.9" cy="155.7" r="3" fill="#8a5a5a"/><circle cx="205.9" cy="155.7" r="3" fill="#8a5a5a"/><circle cx="208.9" cy="155.7" r="3" fill="#8a5a5a"/><circle cx="212.0" cy="155.7" r="3" fill="#8a5a5a"/><circle cx="215.0" cy="155.7" r="3" fill="#8a5a5a"/><circle cx="218.0" cy="155.7" r="3" fill="#8a5a5a"/><circle cx="221.1" cy="155.7" r="3" fill="#8a5a5a"/><circle cx="224.1" cy="155.7" r="3" fill="#8a5a5a"/><circle cx="227.1" cy="155.7" r="3" fill="#8a5a5a"/><circle cx="230.2" cy="155.7" r="3" fill="#8a5a5a"/><circle cx="233.2" cy="155.7" r="3" fill="#8a5a5a"/><circle cx="236.2" cy="155.7" r="3" fill="#8a5a5a"/><circle cx="239.3" cy="155.7" r="3" fill="#8a5a5a"/><circle cx="242.3" cy="155.7" r="3" fill="#8a5a5a"/><circle cx="245.3" cy="155.7" r="3" fill="#8a5a5a"/><circle cx="248.4" cy="155.7" r="3" fill="#8a5a5a"/><circle cx="251.4" cy="155.7" r="3" fill="#8a5a5a"/><circle cx="254.4" cy="155.7" r="3" fill="#8a5a5a"/><circle cx="257.5" cy="155.7" r="3" fill="#8a5a5a"/><circle cx="260.5" cy="155.7" r="3" fill="#8a5a5a"/><circle cx="263.5" cy="155.7" r="3" fill="#8a5a5a"/><circle cx="266.6" cy="155.7" r="3" fill="#8a5a5a"/><circle cx="269.6" cy="155.7" r="3" fill="#8a5a5a"/><circle cx="272.6" cy="155.7" r="3" fill="#8a5a5a"/><circle cx="275.7" cy="155.7" r="3" fill="#8a5a5a"/><circle cx="278.7" cy="155.7" r="3" fill="#8a5a5a"/><circle cx="281.7" cy="155.7" r="3" fill="#8a5a5a"/><circle cx="284.8" cy="155.7" r="3" fill="#8a5a5a"/><circle cx="287.8" cy="155.7" r="3" fill="#8a5a5a"/><circle cx="290.8" cy="167.6" r="3" fill="#8a5a5a"/><circle cx="293.9" cy="167.6" r="3" fill="#8a5a5a"/><circle cx="296.9" cy="170.3" r="3" fill="#8a5a5a"/><circle cx="299.9" cy="170.3" r="3" fill="#8a5a5a"/><circle cx="303.0" cy="170.5" r="3" fill="#8a5a5a"/><circle cx="306.0" cy="170.7" r="3" fill="#8a5a5a"/><circle cx="309.0" cy="170.7" r="3" fill="#8a5a5a"/><circle cx="312.1" cy="170.9" r="3" fill="#8a5a5a"/><circle cx="315.1" cy="172.7" r="3" fill="#8a5a5a"/><circle cx="318.1" cy="180.6" r="3" fill="#8a5a5a"/><circle cx="321.2" cy="181.8" r="3" fill="#8a5a5a"/><circle cx="324.2" cy="189.1" r="3" fill="#8a5a5a"/><circle cx="327.2" cy="190.5" r="3" fill="#8a5a5a"/><circle cx="330.3" cy="195.2" r="3" fill="#8a5a5a"/><circle cx="333.3" cy="198.0" r="3" fill="#8a5a5a"/><circle cx="336.3" cy="198.0" r="3" fill="#8a5a5a"/><circle cx="339.4" cy="198.0" r="3" fill="#8a5a5a"/><circle cx="342.4" cy="198.0" r="3" fill="#8a5a5a"/><circle cx="345.4" cy="198.0" r="3" fill="#8a5a5a"/><circle cx="348.5" cy="198.0" r="3" fill="#8a5a5a"/><circle cx="351.5" cy="198.0" r="3" fill="#8a5a5a"/><circle cx="354.6" cy="198.0" r="3" fill="#8a5a5a"/><circle cx="357.6" cy="198.0" r="3" fill="#8a5a5a"/><circle cx="360.6" cy="198.0" r="3" fill="#8a5a5a"/><circle cx="363.7" cy="198.0" r="3" fill="#8a5a5a"/><circle cx="366.7" cy="198.0" r="3" fill="#8a5a5a"/><circle cx="369.7" cy="198.0" r="3" fill="#8a5a5a"/><circle cx="372.8" cy="198.0" r="3" fill="#8a5a5a"/><circle cx="375.8" cy="198.0" r="3" fill="#8a5a5a"/><circle cx="378.8" cy="198.0" r="3" fill="#8a5a5a"/><circle cx="381.9" cy="198.0" r="3" fill="#8a5a5a"/><circle cx="384.9" cy="198.0" r="3" fill="#8a5a5a"/><circle cx="387.9" cy="198.0" r="3" fill="#8a5a5a"/><circle cx="391.0" cy="198.0" r="3" fill="#8a5a5a"/><circle cx="394.0" cy="198.0" r="3" fill="#8a5a5a"/><circle cx="397.0" cy="198.0" r="3" fill="#8a5a5a"/><circle cx="400.1" cy="198.0" r="3" fill="#8a5a5a"/><circle cx="403.1" cy="198.0" r="3" fill="#8a5a5a"/><circle cx="406.1" cy="198.0" r="3" fill="#8a5a5a"/><circle cx="409.2" cy="198.0" r="3" fill="#8a5a5a"/><circle cx="412.2" cy="198.0" r="3" fill="#8a5a5a"/><circle cx="415.2" cy="198.0" r="3" fill="#8a5a5a"/><circle cx="418.3" cy="198.0" r="3" fill="#8a5a5a"/><circle cx="421.3" cy="198.0" r="3" fill="#8a5a5a"/><circle cx="424.3" cy="198.0" r="3" fill="#8a5a5a"/><circle cx="427.4" cy="198.0" r="3" fill="#8a5a5a"/><circle cx="430.4" cy="198.0" r="3" fill="#8a5a5a"/><circle cx="433.4" cy="198.0" r="3" fill="#8a5a5a"/><circle cx="436.5" cy="198.0" r="3" fill="#8a5a5a"/><circle cx="439.5" cy="198.0" r="3" fill="#8a5a5a"/><circle cx="442.5" cy="198.0" r="3" fill="#8a5a5a"/><circle cx="445.6" cy="198.0" r="3" fill="#8a5a5a"/><circle cx="448.6" cy="198.0" r="3" fill="#8a5a5a"/><circle cx="451.6" cy="198.0" r="3" fill="#8a5a5a"/><circle cx="454.7" cy="198.0" r="3" fill="#8a5a5a"/><circle cx="457.7" cy="198.0" r="3" fill="#8a5a5a"/><circle cx="460.7" cy="198.0" r="3" fill="#8a5a5a"/><circle cx="463.8" cy="198.0" r="3" fill="#8a5a5a"/><circle cx="466.8" cy="198.0" r="3" fill="#8a5a5a"/><circle cx="469.8" cy="198.0" r="3" fill="#8a5a5a"/><circle cx="472.9" cy="198.0" r="3" fill="#8a5a5a"/><circle cx="475.9" cy="198.0" r="3" fill="#8a5a5a"/><circle cx="478.9" cy="198.0" r="3" fill="#8a5a5a"/><circle cx="482.0" cy="198.0" r="3" fill="#8a5a5a"/><circle cx="485.0" cy="198.0" r="3" fill="#8a5a5a"/><circle cx="488.0" cy="198.0" r="3" fill="#8a5a5a"/><circle cx="491.1" cy="198.0" r="3" fill="#8a5a5a"/><circle cx="494.1" cy="198.0" r="3" fill="#8a5a5a"/><circle cx="497.1" cy="198.0" r="3" fill="#8a5a5a"/><circle cx="500.2" cy="198.0" r="3" fill="#8a5a5a"/><circle cx="503.2" cy="198.0" r="3" fill="#8a5a5a"/><circle cx="506.2" cy="198.0" r="3" fill="#8a5a5a"/><circle cx="509.3" cy="198.0" r="3" fill="#8a5a5a"/><circle cx="512.3" cy="198.0" r="3" fill="#8a5a5a"/><circle cx="515.3" cy="198.0" r="3" fill="#8a5a5a"/><circle cx="518.4" cy="198.0" r="3" fill="#8a5a5a"/><circle cx="521.4" cy="198.0" r="3" fill="#8a5a5a"/><circle cx="524.4" cy="198.0" r="3" fill="#8a5a5a"/><circle cx="527.5" cy="198.0" r="3" fill="#8a5a5a"/><circle cx="530.5" cy="198.0" r="3" fill="#8a5a5a"/><circle cx="533.5" cy="198.0" r="3" fill="#8a5a5a"/><circle cx="536.6" cy="198.0" r="3" fill="#8a5a5a"/><circle cx="539.6" cy="198.0" r="3" fill="#8a5a5a"/><circle cx="542.6" cy="198.0" r="3" fill="#8a5a5a"/><circle cx="545.7" cy="198.0" r="3" fill="#8a5a5a"/><circle cx="548.7" cy="198.0" r="3" fill="#8a5a5a"/><circle cx="551.7" cy="198.0" r="3" fill="#8a5a5a"/><circle cx="554.8" cy="198.0" r="3" fill="#8a5a5a"/><circle cx="557.8" cy="198.0" r="3" fill="#8a5a5a"/><circle cx="560.9" cy="198.0" r="3" fill="#8a5a5a"/><circle cx="563.9" cy="198.0" r="3" fill="#8a5a5a"/><circle cx="566.9" cy="198.0" r="3" fill="#8a5a5a"/><circle cx="570.0" cy="198.0" r="3" fill="#8a5a5a"/><circle cx="573.0" cy="198.0" r="3" fill="#8a5a5a"/><circle cx="576.0" cy="198.0" r="3" fill="#8a5a5a"/><circle cx="579.1" cy="198.0" r="3" fill="#8a5a5a"/><circle cx="582.1" cy="198.0" r="3" fill="#8a5a5a"/><circle cx="585.1" cy="198.0" r="3" fill="#8a5a5a"/><circle cx="588.2" cy="198.0" r="3" fill="#8a5a5a"/><circle cx="591.2" cy="198.0" r="3" fill="#8a5a5a"/><circle cx="594.2" cy="198.0" r="3" fill="#8a5a5a"/><circle cx="597.3" cy="198.0" r="3" fill="#8a5a5a"/><circle cx="600.3" cy="198.0" r="3" fill="#8a5a5a"/><circle cx="603.3" cy="198.0" r="3" fill="#8a5a5a"/><circle cx="606.4" cy="198.0" r="3" fill="#8a5a5a"/><circle cx="609.4" cy="198.0" r="3" fill="#8a5a5a"/><circle cx="612.4" cy="198.0" r="3" fill="#8a5a5a"/><circle cx="615.5" cy="198.0" r="3" fill="#8a5a5a"/><circle cx="618.5" cy="198.0" r="3" fill="#8a5a5a"/><circle cx="621.5" cy="198.0" r="3" fill="#8a5a5a"/><circle cx="624.6" cy="198.0" r="3" fill="#8a5a5a"/><circle cx="627.6" cy="198.0" r="3" fill="#8a5a5a"/><circle cx="630.6" cy="198.0" r="3" fill="#8a5a5a"/><circle cx="633.7" cy="198.0" r="3" fill="#8a5a5a"/><circle cx="636.7" cy="198.0" r="3" fill="#8a5a5a"/><circle cx="639.7" cy="198.0" r="3" fill="#8a5a5a"/><circle cx="642.8" cy="198.0" r="3" fill="#8a5a5a"/><circle cx="645.8" cy="198.0" r="3" fill="#8a5a5a"/><circle cx="648.8" cy="198.0" r="3" fill="#8a5a5a"/><circle cx="651.9" cy="198.0" r="3" fill="#8a5a5a"/><circle cx="654.9" cy="198.0" r="3" fill="#8a5a5a"/><circle cx="657.9" cy="198.0" r="3" fill="#8a5a5a"/><circle cx="661.0" cy="198.0" r="3" fill="#8a5a5a"/><circle cx="664.0" cy="198.0" r="3" fill="#8a5a5a"/>
<polyline fill="none" stroke="#3fb950" stroke-width="2.5" stroke-linejoin="round" points="36.0,198.0 39.0,198.0 42.1,198.0 45.1,198.0 48.1,198.0 51.2,198.0 54.2,198.0 57.2,198.0 60.3,198.0 63.3,198.0 66.3,198.0 69.4,198.0 72.4,198.0 75.4,198.0 78.5,198.0 81.5,198.0 84.5,198.0 87.6,198.0 90.6,198.0 93.6,198.0 96.7,198.0 99.7,198.0 102.7,198.0 105.8,198.0 108.8,198.0 111.8,198.0 114.9,198.0 117.9,198.0 120.9,198.0 124.0,198.0 127.0,198.0 130.0,198.0 133.1,198.0 136.1,198.0 139.1,198.0 142.2,198.0 145.2,198.0 148.3,198.0 151.3,198.0 154.3,198.0 157.4,198.0 160.4,198.0 163.4,198.0 166.5,191.7 169.5,191.7 172.5,191.7 175.6,191.7 178.6,191.7 181.6,191.7 184.7,191.7 187.7,192.9 190.7,192.9 193.8,190.7 196.8,190.7 199.8,190.7 202.9,190.7 205.9,190.7 208.9,190.5 212.0,190.5 215.0,190.5 218.0,190.3 221.1,190.3 224.1,190.3 227.1,190.3 230.2,190.3 233.2,190.3 236.2,190.3 239.3,190.3 242.3,190.3 245.3,190.3 248.4,190.3 251.4,190.3 254.4,190.3 257.5,190.3 260.5,190.3 263.5,190.3 266.6,190.3 269.6,190.3 272.6,190.3 275.7,190.3 278.7,190.3 281.7,189.3 284.8,189.3 287.8,189.3 290.8,190.7 293.9,190.7 296.9,190.7 299.9,190.7 303.0,190.7 306.0,190.7 309.0,190.7 312.1,190.7 315.1,190.7 318.1,190.9 321.2,190.9 324.2,190.9 327.2,194.2 330.3,196.8 333.3,198.0 336.3,198.0 339.4,198.0 342.4,198.0 345.4,198.0 348.5,198.0 351.5,198.0 354.6,198.0 357.6,198.0 360.6,198.0 363.7,198.0 366.7,198.0 369.7,198.0 372.8,198.0 375.8,198.0 378.8,198.0 381.9,198.0 384.9,198.0 387.9,198.0 391.0,198.0 394.0,198.0 397.0,198.0 400.1,198.0 403.1,198.0 406.1,198.0 409.2,198.0 412.2,198.0 415.2,198.0 418.3,198.0 421.3,198.0 424.3,198.0 427.4,198.0 430.4,198.0 433.4,198.0 436.5,198.0 439.5,198.0 442.5,198.0 445.6,198.0 448.6,198.0 451.6,198.0 454.7,198.0 457.7,198.0 460.7,198.0 463.8,198.0 466.8,198.0 469.8,198.0 472.9,198.0 475.9,198.0 478.9,198.0 482.0,198.0 485.0,198.0 488.0,198.0 491.1,198.0 494.1,198.0 497.1,198.0 500.2,198.0 503.2,198.0 506.2,198.0 509.3,198.0 512.3,198.0 515.3,198.0 518.4,198.0 521.4,198.0 524.4,198.0 527.5,198.0 530.5,198.0 533.5,198.0 536.6,198.0 539.6,198.0 542.6,198.0 545.7,198.0 548.7,198.0 551.7,198.0 554.8,198.0 557.8,198.0 560.9,198.0 563.9,198.0 566.9,198.0 570.0,198.0 573.0,198.0 576.0,198.0 579.1,198.0 582.1,198.0 585.1,198.0 588.2,198.0 591.2,198.0 594.2,198.0 597.3,198.0 600.3,198.0 603.3,198.0 606.4,198.0 609.4,198.0 612.4,198.0 615.5,198.0 618.5,198.0 621.5,198.0 624.6,198.0 627.6,198.0 630.6,198.0 633.7,198.0 636.7,198.0 639.7,198.0 642.8,198.0 645.8,198.0 648.8,198.0 651.9,198.0 654.9,198.0 657.9,198.0 661.0,198.0 664.0,198.0"/><circle cx="36.0" cy="198.0" r="3" fill="#3fb950"/><circle cx="39.0" cy="198.0" r="3" fill="#3fb950"/><circle cx="42.1" cy="198.0" r="3" fill="#3fb950"/><circle cx="45.1" cy="198.0" r="3" fill="#3fb950"/><circle cx="48.1" cy="198.0" r="3" fill="#3fb950"/><circle cx="51.2" cy="198.0" r="3" fill="#3fb950"/><circle cx="54.2" cy="198.0" r="3" fill="#3fb950"/><circle cx="57.2" cy="198.0" r="3" fill="#3fb950"/><circle cx="60.3" cy="198.0" r="3" fill="#3fb950"/><circle cx="63.3" cy="198.0" r="3" fill="#3fb950"/><circle cx="66.3" cy="198.0" r="3" fill="#3fb950"/><circle cx="69.4" cy="198.0" r="3" fill="#3fb950"/><circle cx="72.4" cy="198.0" r="3" fill="#3fb950"/><circle cx="75.4" cy="198.0" r="3" fill="#3fb950"/><circle cx="78.5" cy="198.0" r="3" fill="#3fb950"/><circle cx="81.5" cy="198.0" r="3" fill="#3fb950"/><circle cx="84.5" cy="198.0" r="3" fill="#3fb950"/><circle cx="87.6" cy="198.0" r="3" fill="#3fb950"/><circle cx="90.6" cy="198.0" r="3" fill="#3fb950"/><circle cx="93.6" cy="198.0" r="3" fill="#3fb950"/><circle cx="96.7" cy="198.0" r="3" fill="#3fb950"/><circle cx="99.7" cy="198.0" r="3" fill="#3fb950"/><circle cx="102.7" cy="198.0" r="3" fill="#3fb950"/><circle cx="105.8" cy="198.0" r="3" fill="#3fb950"/><circle cx="108.8" cy="198.0" r="3" fill="#3fb950"/><circle cx="111.8" cy="198.0" r="3" fill="#3fb950"/><circle cx="114.9" cy="198.0" r="3" fill="#3fb950"/><circle cx="117.9" cy="198.0" r="3" fill="#3fb950"/><circle cx="120.9" cy="198.0" r="3" fill="#3fb950"/><circle cx="124.0" cy="198.0" r="3" fill="#3fb950"/><circle cx="127.0" cy="198.0" r="3" fill="#3fb950"/><circle cx="130.0" cy="198.0" r="3" fill="#3fb950"/><circle cx="133.1" cy="198.0" r="3" fill="#3fb950"/><circle cx="136.1" cy="198.0" r="3" fill="#3fb950"/><circle cx="139.1" cy="198.0" r="3" fill="#3fb950"/><circle cx="142.2" cy="198.0" r="3" fill="#3fb950"/><circle cx="145.2" cy="198.0" r="3" fill="#3fb950"/><circle cx="148.3" cy="198.0" r="3" fill="#3fb950"/><circle cx="151.3" cy="198.0" r="3" fill="#3fb950"/><circle cx="154.3" cy="198.0" r="3" fill="#3fb950"/><circle cx="157.4" cy="198.0" r="3" fill="#3fb950"/><circle cx="160.4" cy="198.0" r="3" fill="#3fb950"/><circle cx="163.4" cy="198.0" r="3" fill="#3fb950"/><circle cx="166.5" cy="191.7" r="3" fill="#3fb950"/><circle cx="169.5" cy="191.7" r="3" fill="#3fb950"/><circle cx="172.5" cy="191.7" r="3" fill="#3fb950"/><circle cx="175.6" cy="191.7" r="3" fill="#3fb950"/><circle cx="178.6" cy="191.7" r="3" fill="#3fb950"/><circle cx="181.6" cy="191.7" r="3" fill="#3fb950"/><circle cx="184.7" cy="191.7" r="3" fill="#3fb950"/><circle cx="187.7" cy="192.9" r="3" fill="#3fb950"/><circle cx="190.7" cy="192.9" r="3" fill="#3fb950"/><circle cx="193.8" cy="190.7" r="3" fill="#3fb950"/><circle cx="196.8" cy="190.7" r="3" fill="#3fb950"/><circle cx="199.8" cy="190.7" r="3" fill="#3fb950"/><circle cx="202.9" cy="190.7" r="3" fill="#3fb950"/><circle cx="205.9" cy="190.7" r="3" fill="#3fb950"/><circle cx="208.9" cy="190.5" r="3" fill="#3fb950"/><circle cx="212.0" cy="190.5" r="3" fill="#3fb950"/><circle cx="215.0" cy="190.5" r="3" fill="#3fb950"/><circle cx="218.0" cy="190.3" r="3" fill="#3fb950"/><circle cx="221.1" cy="190.3" r="3" fill="#3fb950"/><circle cx="224.1" cy="190.3" r="3" fill="#3fb950"/><circle cx="227.1" cy="190.3" r="3" fill="#3fb950"/><circle cx="230.2" cy="190.3" r="3" fill="#3fb950"/><circle cx="233.2" cy="190.3" r="3" fill="#3fb950"/><circle cx="236.2" cy="190.3" r="3" fill="#3fb950"/><circle cx="239.3" cy="190.3" r="3" fill="#3fb950"/><circle cx="242.3" cy="190.3" r="3" fill="#3fb950"/><circle cx="245.3" cy="190.3" r="3" fill="#3fb950"/><circle cx="248.4" cy="190.3" r="3" fill="#3fb950"/><circle cx="251.4" cy="190.3" r="3" fill="#3fb950"/><circle cx="254.4" cy="190.3" r="3" fill="#3fb950"/><circle cx="257.5" cy="190.3" r="3" fill="#3fb950"/><circle cx="260.5" cy="190.3" r="3" fill="#3fb950"/><circle cx="263.5" cy="190.3" r="3" fill="#3fb950"/><circle cx="266.6" cy="190.3" r="3" fill="#3fb950"/><circle cx="269.6" cy="190.3" r="3" fill="#3fb950"/><circle cx="272.6" cy="190.3" r="3" fill="#3fb950"/><circle cx="275.7" cy="190.3" r="3" fill="#3fb950"/><circle cx="278.7" cy="190.3" r="3" fill="#3fb950"/><circle cx="281.7" cy="189.3" r="3" fill="#3fb950"/><circle cx="284.8" cy="189.3" r="3" fill="#3fb950"/><circle cx="287.8" cy="189.3" r="3" fill="#3fb950"/><circle cx="290.8" cy="190.7" r="3" fill="#3fb950"/><circle cx="293.9" cy="190.7" r="3" fill="#3fb950"/><circle cx="296.9" cy="190.7" r="3" fill="#3fb950"/><circle cx="299.9" cy="190.7" r="3" fill="#3fb950"/><circle cx="303.0" cy="190.7" r="3" fill="#3fb950"/><circle cx="306.0" cy="190.7" r="3" fill="#3fb950"/><circle cx="309.0" cy="190.7" r="3" fill="#3fb950"/><circle cx="312.1" cy="190.7" r="3" fill="#3fb950"/><circle cx="315.1" cy="190.7" r="3" fill="#3fb950"/><circle cx="318.1" cy="190.9" r="3" fill="#3fb950"/><circle cx="321.2" cy="190.9" r="3" fill="#3fb950"/><circle cx="324.2" cy="190.9" r="3" fill="#3fb950"/><circle cx="327.2" cy="194.2" r="3" fill="#3fb950"/><circle cx="330.3" cy="196.8" r="3" fill="#3fb950"/><circle cx="333.3" cy="198.0" r="3" fill="#3fb950"/><circle cx="336.3" cy="198.0" r="3" fill="#3fb950"/><circle cx="339.4" cy="198.0" r="3" fill="#3fb950"/><circle cx="342.4" cy="198.0" r="3" fill="#3fb950"/><circle cx="345.4" cy="198.0" r="3" fill="#3fb950"/><circle cx="348.5" cy="198.0" r="3" fill="#3fb950"/><circle cx="351.5" cy="198.0" r="3" fill="#3fb950"/><circle cx="354.6" cy="198.0" r="3" fill="#3fb950"/><circle cx="357.6" cy="198.0" r="3" fill="#3fb950"/><circle cx="360.6" cy="198.0" r="3" fill="#3fb950"/><circle cx="363.7" cy="198.0" r="3" fill="#3fb950"/><circle cx="366.7" cy="198.0" r="3" fill="#3fb950"/><circle cx="369.7" cy="198.0" r="3" fill="#3fb950"/><circle cx="372.8" cy="198.0" r="3" fill="#3fb950"/><circle cx="375.8" cy="198.0" r="3" fill="#3fb950"/><circle cx="378.8" cy="198.0" r="3" fill="#3fb950"/><circle cx="381.9" cy="198.0" r="3" fill="#3fb950"/><circle cx="384.9" cy="198.0" r="3" fill="#3fb950"/><circle cx="387.9" cy="198.0" r="3" fill="#3fb950"/><circle cx="391.0" cy="198.0" r="3" fill="#3fb950"/><circle cx="394.0" cy="198.0" r="3" fill="#3fb950"/><circle cx="397.0" cy="198.0" r="3" fill="#3fb950"/><circle cx="400.1" cy="198.0" r="3" fill="#3fb950"/><circle cx="403.1" cy="198.0" r="3" fill="#3fb950"/><circle cx="406.1" cy="198.0" r="3" fill="#3fb950"/><circle cx="409.2" cy="198.0" r="3" fill="#3fb950"/><circle cx="412.2" cy="198.0" r="3" fill="#3fb950"/><circle cx="415.2" cy="198.0" r="3" fill="#3fb950"/><circle cx="418.3" cy="198.0" r="3" fill="#3fb950"/><circle cx="421.3" cy="198.0" r="3" fill="#3fb950"/><circle cx="424.3" cy="198.0" r="3" fill="#3fb950"/><circle cx="427.4" cy="198.0" r="3" fill="#3fb950"/><circle cx="430.4" cy="198.0" r="3" fill="#3fb950"/><circle cx="433.4" cy="198.0" r="3" fill="#3fb950"/><circle cx="436.5" cy="198.0" r="3" fill="#3fb950"/><circle cx="439.5" cy="198.0" r="3" fill="#3fb950"/><circle cx="442.5" cy="198.0" r="3" fill="#3fb950"/><circle cx="445.6" cy="198.0" r="3" fill="#3fb950"/><circle cx="448.6" cy="198.0" r="3" fill="#3fb950"/><circle cx="451.6" cy="198.0" r="3" fill="#3fb950"/><circle cx="454.7" cy="198.0" r="3" fill="#3fb950"/><circle cx="457.7" cy="198.0" r="3" fill="#3fb950"/><circle cx="460.7" cy="198.0" r="3" fill="#3fb950"/><circle cx="463.8" cy="198.0" r="3" fill="#3fb950"/><circle cx="466.8" cy="198.0" r="3" fill="#3fb950"/><circle cx="469.8" cy="198.0" r="3" fill="#3fb950"/><circle cx="472.9" cy="198.0" r="3" fill="#3fb950"/><circle cx="475.9" cy="198.0" r="3" fill="#3fb950"/><circle cx="478.9" cy="198.0" r="3" fill="#3fb950"/><circle cx="482.0" cy="198.0" r="3" fill="#3fb950"/><circle cx="485.0" cy="198.0" r="3" fill="#3fb950"/><circle cx="488.0" cy="198.0" r="3" fill="#3fb950"/><circle cx="491.1" cy="198.0" r="3" fill="#3fb950"/><circle cx="494.1" cy="198.0" r="3" fill="#3fb950"/><circle cx="497.1" cy="198.0" r="3" fill="#3fb950"/><circle cx="500.2" cy="198.0" r="3" fill="#3fb950"/><circle cx="503.2" cy="198.0" r="3" fill="#3fb950"/><circle cx="506.2" cy="198.0" r="3" fill="#3fb950"/><circle cx="509.3" cy="198.0" r="3" fill="#3fb950"/><circle cx="512.3" cy="198.0" r="3" fill="#3fb950"/><circle cx="515.3" cy="198.0" r="3" fill="#3fb950"/><circle cx="518.4" cy="198.0" r="3" fill="#3fb950"/><circle cx="521.4" cy="198.0" r="3" fill="#3fb950"/><circle cx="524.4" cy="198.0" r="3" fill="#3fb950"/><circle cx="527.5" cy="198.0" r="3" fill="#3fb950"/><circle cx="530.5" cy="198.0" r="3" fill="#3fb950"/><circle cx="533.5" cy="198.0" r="3" fill="#3fb950"/><circle cx="536.6" cy="198.0" r="3" fill="#3fb950"/><circle cx="539.6" cy="198.0" r="3" fill="#3fb950"/><circle cx="542.6" cy="198.0" r="3" fill="#3fb950"/><circle cx="545.7" cy="198.0" r="3" fill="#3fb950"/><circle cx="548.7" cy="198.0" r="3" fill="#3fb950"/><circle cx="551.7" cy="198.0" r="3" fill="#3fb950"/><circle cx="554.8" cy="198.0" r="3" fill="#3fb950"/><circle cx="557.8" cy="198.0" r="3" fill="#3fb950"/><circle cx="560.9" cy="198.0" r="3" fill="#3fb950"/><circle cx="563.9" cy="198.0" r="3" fill="#3fb950"/><circle cx="566.9" cy="198.0" r="3" fill="#3fb950"/><circle cx="570.0" cy="198.0" r="3" fill="#3fb950"/><circle cx="573.0" cy="198.0" r="3" fill="#3fb950"/><circle cx="576.0" cy="198.0" r="3" fill="#3fb950"/><circle cx="579.1" cy="198.0" r="3" fill="#3fb950"/><circle cx="582.1" cy="198.0" r="3" fill="#3fb950"/><circle cx="585.1" cy="198.0" r="3" fill="#3fb950"/><circle cx="588.2" cy="198.0" r="3" fill="#3fb950"/><circle cx="591.2" cy="198.0" r="3" fill="#3fb950"/><circle cx="594.2" cy="198.0" r="3" fill="#3fb950"/><circle cx="597.3" cy="198.0" r="3" fill="#3fb950"/><circle cx="600.3" cy="198.0" r="3" fill="#3fb950"/><circle cx="603.3" cy="198.0" r="3" fill="#3fb950"/><circle cx="606.4" cy="198.0" r="3" fill="#3fb950"/><circle cx="609.4" cy="198.0" r="3" fill="#3fb950"/><circle cx="612.4" cy="198.0" r="3" fill="#3fb950"/><circle cx="615.5" cy="198.0" r="3" fill="#3fb950"/><circle cx="618.5" cy="198.0" r="3" fill="#3fb950"/><circle cx="621.5" cy="198.0" r="3" fill="#3fb950"/><circle cx="624.6" cy="198.0" r="3" fill="#3fb950"/><circle cx="627.6" cy="198.0" r="3" fill="#3fb950"/><circle cx="630.6" cy="198.0" r="3" fill="#3fb950"/><circle cx="633.7" cy="198.0" r="3" fill="#3fb950"/><circle cx="636.7" cy="198.0" r="3" fill="#3fb950"/><circle cx="639.7" cy="198.0" r="3" fill="#3fb950"/><circle cx="642.8" cy="198.0" r="3" fill="#3fb950"/><circle cx="645.8" cy="198.0" r="3" fill="#3fb950"/><circle cx="648.8" cy="198.0" r="3" fill="#3fb950"/><circle cx="651.9" cy="198.0" r="3" fill="#3fb950"/><circle cx="654.9" cy="198.0" r="3" fill="#3fb950"/><circle cx="657.9" cy="198.0" r="3" fill="#3fb950"/><circle cx="661.0" cy="198.0" r="3" fill="#3fb950"/><circle cx="664.0" cy="198.0" r="3" fill="#3fb950"/>
<polyline fill="none" stroke="#4aa3ff" stroke-width="2.5" stroke-linejoin="round" points="36.0,144.3 39.0,144.3 42.1,144.3 45.1,144.3 48.1,144.3 51.2,144.3 54.2,144.3 57.2,144.3 60.3,144.3 63.3,144.3 66.3,144.3 69.4,144.3 72.4,144.3 75.4,144.3 78.5,144.3 81.5,136.2 84.5,132.4 87.6,129.6 90.6,129.6 93.6,121.0 96.7,121.0 99.7,121.0 102.7,114.4 105.8,114.4 108.8,114.4 111.8,111.3 114.9,110.9 117.9,110.9 120.9,110.5 124.0,110.5 127.0,109.9 130.0,108.7 133.1,107.3 136.1,106.9 139.1,106.9 142.2,106.9 145.2,106.9 148.3,106.9 151.3,106.9 154.3,106.9 157.4,106.9 160.4,106.9 163.4,106.9 166.5,113.2 169.5,113.2 172.5,113.2 175.6,113.2 178.6,113.2 181.6,110.7 184.7,105.3 187.7,83.4 190.7,83.4 193.8,85.6 196.8,85.6 199.8,85.6 202.9,85.6 205.9,85.6 208.9,85.8 212.0,85.8 215.0,85.8 218.0,86.0 221.1,86.0 224.1,86.0 227.1,86.0 230.2,86.0 233.2,86.0 236.2,86.0 239.3,86.0 242.3,86.0 245.3,86.0 248.4,86.0 251.4,86.0 254.4,86.0 257.5,86.0 260.5,86.0 263.5,86.0 266.6,86.0 269.6,86.0 272.6,86.0 275.7,86.0 278.7,86.0 281.7,87.0 284.8,87.0 287.8,87.0 290.8,73.7 293.9,73.7 296.9,71.0 299.9,71.0 303.0,70.8 306.0,70.6 309.0,70.6 312.1,70.4 315.1,68.6 318.1,60.5 321.2,59.3 324.2,52.0 327.2,47.3 330.3,40.1 333.3,36.0 336.3,36.0 339.4,36.0 342.4,36.0 345.4,36.0 348.5,36.0 351.5,36.0 354.6,36.0 357.6,36.0 360.6,36.0 363.7,36.0 366.7,36.0 369.7,36.0 372.8,36.0 375.8,36.0 378.8,36.0 381.9,36.0 384.9,36.0 387.9,36.0 391.0,36.0 394.0,36.0 397.0,36.0 400.1,36.0 403.1,36.0 406.1,36.0 409.2,36.0 412.2,36.0 415.2,36.0 418.3,36.0 421.3,36.0 424.3,36.0 427.4,36.0 430.4,36.0 433.4,36.0 436.5,36.0 439.5,36.0 442.5,36.0 445.6,36.0 448.6,36.0 451.6,36.0 454.7,36.0 457.7,36.0 460.7,36.0 463.8,36.0 466.8,36.0 469.8,36.0 472.9,36.0 475.9,36.0 478.9,36.0 482.0,36.0 485.0,36.0 488.0,36.0 491.1,36.0 494.1,36.0 497.1,36.0 500.2,36.0 503.2,36.0 506.2,36.0 509.3,36.0 512.3,36.0 515.3,36.0 518.4,36.0 521.4,36.0 524.4,36.0 527.5,36.0 530.5,36.0 533.5,36.0 536.6,36.0 539.6,36.0 542.6,36.0 545.7,36.0 548.7,36.0 551.7,36.0 554.8,36.0 557.8,36.0 560.9,36.0 563.9,36.0 566.9,36.0 570.0,36.0 573.0,36.0 576.0,36.0 579.1,36.0 582.1,36.0 585.1,36.0 588.2,36.0 591.2,36.0 594.2,36.0 597.3,36.0 600.3,36.0 603.3,36.0 606.4,36.0 609.4,36.0 612.4,36.0 615.5,36.0 618.5,36.0 621.5,36.0 624.6,36.0 627.6,36.0 630.6,36.0 633.7,36.0 636.7,36.0 639.7,36.0 642.8,36.0 645.8,36.0 648.8,36.0 651.9,36.0 654.9,36.0 657.9,36.0 661.0,36.0 664.0,36.0"/><circle cx="36.0" cy="144.3" r="3" fill="#4aa3ff"/><circle cx="39.0" cy="144.3" r="3" fill="#4aa3ff"/><circle cx="42.1" cy="144.3" r="3" fill="#4aa3ff"/><circle cx="45.1" cy="144.3" r="3" fill="#4aa3ff"/><circle cx="48.1" cy="144.3" r="3" fill="#4aa3ff"/><circle cx="51.2" cy="144.3" r="3" fill="#4aa3ff"/><circle cx="54.2" cy="144.3" r="3" fill="#4aa3ff"/><circle cx="57.2" cy="144.3" r="3" fill="#4aa3ff"/><circle cx="60.3" cy="144.3" r="3" fill="#4aa3ff"/><circle cx="63.3" cy="144.3" r="3" fill="#4aa3ff"/><circle cx="66.3" cy="144.3" r="3" fill="#4aa3ff"/><circle cx="69.4" cy="144.3" r="3" fill="#4aa3ff"/><circle cx="72.4" cy="144.3" r="3" fill="#4aa3ff"/><circle cx="75.4" cy="144.3" r="3" fill="#4aa3ff"/><circle cx="78.5" cy="144.3" r="3" fill="#4aa3ff"/><circle cx="81.5" cy="136.2" r="3" fill="#4aa3ff"/><circle cx="84.5" cy="132.4" r="3" fill="#4aa3ff"/><circle cx="87.6" cy="129.6" r="3" fill="#4aa3ff"/><circle cx="90.6" cy="129.6" r="3" fill="#4aa3ff"/><circle cx="93.6" cy="121.0" r="3" fill="#4aa3ff"/><circle cx="96.7" cy="121.0" r="3" fill="#4aa3ff"/><circle cx="99.7" cy="121.0" r="3" fill="#4aa3ff"/><circle cx="102.7" cy="114.4" r="3" fill="#4aa3ff"/><circle cx="105.8" cy="114.4" r="3" fill="#4aa3ff"/><circle cx="108.8" cy="114.4" r="3" fill="#4aa3ff"/><circle cx="111.8" cy="111.3" r="3" fill="#4aa3ff"/><circle cx="114.9" cy="110.9" r="3" fill="#4aa3ff"/><circle cx="117.9" cy="110.9" r="3" fill="#4aa3ff"/><circle cx="120.9" cy="110.5" r="3" fill="#4aa3ff"/><circle cx="124.0" cy="110.5" r="3" fill="#4aa3ff"/><circle cx="127.0" cy="109.9" r="3" fill="#4aa3ff"/><circle cx="130.0" cy="108.7" r="3" fill="#4aa3ff"/><circle cx="133.1" cy="107.3" r="3" fill="#4aa3ff"/><circle cx="136.1" cy="106.9" r="3" fill="#4aa3ff"/><circle cx="139.1" cy="106.9" r="3" fill="#4aa3ff"/><circle cx="142.2" cy="106.9" r="3" fill="#4aa3ff"/><circle cx="145.2" cy="106.9" r="3" fill="#4aa3ff"/><circle cx="148.3" cy="106.9" r="3" fill="#4aa3ff"/><circle cx="151.3" cy="106.9" r="3" fill="#4aa3ff"/><circle cx="154.3" cy="106.9" r="3" fill="#4aa3ff"/><circle cx="157.4" cy="106.9" r="3" fill="#4aa3ff"/><circle cx="160.4" cy="106.9" r="3" fill="#4aa3ff"/><circle cx="163.4" cy="106.9" r="3" fill="#4aa3ff"/><circle cx="166.5" cy="113.2" r="3" fill="#4aa3ff"/><circle cx="169.5" cy="113.2" r="3" fill="#4aa3ff"/><circle cx="172.5" cy="113.2" r="3" fill="#4aa3ff"/><circle cx="175.6" cy="113.2" r="3" fill="#4aa3ff"/><circle cx="178.6" cy="113.2" r="3" fill="#4aa3ff"/><circle cx="181.6" cy="110.7" r="3" fill="#4aa3ff"/><circle cx="184.7" cy="105.3" r="3" fill="#4aa3ff"/><circle cx="187.7" cy="83.4" r="3" fill="#4aa3ff"/><circle cx="190.7" cy="83.4" r="3" fill="#4aa3ff"/><circle cx="193.8" cy="85.6" r="3" fill="#4aa3ff"/><circle cx="196.8" cy="85.6" r="3" fill="#4aa3ff"/><circle cx="199.8" cy="85.6" r="3" fill="#4aa3ff"/><circle cx="202.9" cy="85.6" r="3" fill="#4aa3ff"/><circle cx="205.9" cy="85.6" r="3" fill="#4aa3ff"/><circle cx="208.9" cy="85.8" r="3" fill="#4aa3ff"/><circle cx="212.0" cy="85.8" r="3" fill="#4aa3ff"/><circle cx="215.0" cy="85.8" r="3" fill="#4aa3ff"/><circle cx="218.0" cy="86.0" r="3" fill="#4aa3ff"/><circle cx="221.1" cy="86.0" r="3" fill="#4aa3ff"/><circle cx="224.1" cy="86.0" r="3" fill="#4aa3ff"/><circle cx="227.1" cy="86.0" r="3" fill="#4aa3ff"/><circle cx="230.2" cy="86.0" r="3" fill="#4aa3ff"/><circle cx="233.2" cy="86.0" r="3" fill="#4aa3ff"/><circle cx="236.2" cy="86.0" r="3" fill="#4aa3ff"/><circle cx="239.3" cy="86.0" r="3" fill="#4aa3ff"/><circle cx="242.3" cy="86.0" r="3" fill="#4aa3ff"/><circle cx="245.3" cy="86.0" r="3" fill="#4aa3ff"/><circle cx="248.4" cy="86.0" r="3" fill="#4aa3ff"/><circle cx="251.4" cy="86.0" r="3" fill="#4aa3ff"/><circle cx="254.4" cy="86.0" r="3" fill="#4aa3ff"/><circle cx="257.5" cy="86.0" r="3" fill="#4aa3ff"/><circle cx="260.5" cy="86.0" r="3" fill="#4aa3ff"/><circle cx="263.5" cy="86.0" r="3" fill="#4aa3ff"/><circle cx="266.6" cy="86.0" r="3" fill="#4aa3ff"/><circle cx="269.6" cy="86.0" r="3" fill="#4aa3ff"/><circle cx="272.6" cy="86.0" r="3" fill="#4aa3ff"/><circle cx="275.7" cy="86.0" r="3" fill="#4aa3ff"/><circle cx="278.7" cy="86.0" r="3" fill="#4aa3ff"/><circle cx="281.7" cy="87.0" r="3" fill="#4aa3ff"/><circle cx="284.8" cy="87.0" r="3" fill="#4aa3ff"/><circle cx="287.8" cy="87.0" r="3" fill="#4aa3ff"/><circle cx="290.8" cy="73.7" r="3" fill="#4aa3ff"/><circle cx="293.9" cy="73.7" r="3" fill="#4aa3ff"/><circle cx="296.9" cy="71.0" r="3" fill="#4aa3ff"/><circle cx="299.9" cy="71.0" r="3" fill="#4aa3ff"/><circle cx="303.0" cy="70.8" r="3" fill="#4aa3ff"/><circle cx="306.0" cy="70.6" r="3" fill="#4aa3ff"/><circle cx="309.0" cy="70.6" r="3" fill="#4aa3ff"/><circle cx="312.1" cy="70.4" r="3" fill="#4aa3ff"/><circle cx="315.1" cy="68.6" r="3" fill="#4aa3ff"/><circle cx="318.1" cy="60.5" r="3" fill="#4aa3ff"/><circle cx="321.2" cy="59.3" r="3" fill="#4aa3ff"/><circle cx="324.2" cy="52.0" r="3" fill="#4aa3ff"/><circle cx="327.2" cy="47.3" r="3" fill="#4aa3ff"/><circle cx="330.3" cy="40.1" r="3" fill="#4aa3ff"/><circle cx="333.3" cy="36.0" r="3" fill="#4aa3ff"/><circle cx="336.3" cy="36.0" r="3" fill="#4aa3ff"/><circle cx="339.4" cy="36.0" r="3" fill="#4aa3ff"/><circle cx="342.4" cy="36.0" r="3" fill="#4aa3ff"/><circle cx="345.4" cy="36.0" r="3" fill="#4aa3ff"/><circle cx="348.5" cy="36.0" r="3" fill="#4aa3ff"/><circle cx="351.5" cy="36.0" r="3" fill="#4aa3ff"/><circle cx="354.6" cy="36.0" r="3" fill="#4aa3ff"/><circle cx="357.6" cy="36.0" r="3" fill="#4aa3ff"/><circle cx="360.6" cy="36.0" r="3" fill="#4aa3ff"/><circle cx="363.7" cy="36.0" r="3" fill="#4aa3ff"/><circle cx="366.7" cy="36.0" r="3" fill="#4aa3ff"/><circle cx="369.7" cy="36.0" r="3" fill="#4aa3ff"/><circle cx="372.8" cy="36.0" r="3" fill="#4aa3ff"/><circle cx="375.8" cy="36.0" r="3" fill="#4aa3ff"/><circle cx="378.8" cy="36.0" r="3" fill="#4aa3ff"/><circle cx="381.9" cy="36.0" r="3" fill="#4aa3ff"/><circle cx="384.9" cy="36.0" r="3" fill="#4aa3ff"/><circle cx="387.9" cy="36.0" r="3" fill="#4aa3ff"/><circle cx="391.0" cy="36.0" r="3" fill="#4aa3ff"/><circle cx="394.0" cy="36.0" r="3" fill="#4aa3ff"/><circle cx="397.0" cy="36.0" r="3" fill="#4aa3ff"/><circle cx="400.1" cy="36.0" r="3" fill="#4aa3ff"/><circle cx="403.1" cy="36.0" r="3" fill="#4aa3ff"/><circle cx="406.1" cy="36.0" r="3" fill="#4aa3ff"/><circle cx="409.2" cy="36.0" r="3" fill="#4aa3ff"/><circle cx="412.2" cy="36.0" r="3" fill="#4aa3ff"/><circle cx="415.2" cy="36.0" r="3" fill="#4aa3ff"/><circle cx="418.3" cy="36.0" r="3" fill="#4aa3ff"/><circle cx="421.3" cy="36.0" r="3" fill="#4aa3ff"/><circle cx="424.3" cy="36.0" r="3" fill="#4aa3ff"/><circle cx="427.4" cy="36.0" r="3" fill="#4aa3ff"/><circle cx="430.4" cy="36.0" r="3" fill="#4aa3ff"/><circle cx="433.4" cy="36.0" r="3" fill="#4aa3ff"/><circle cx="436.5" cy="36.0" r="3" fill="#4aa3ff"/><circle cx="439.5" cy="36.0" r="3" fill="#4aa3ff"/><circle cx="442.5" cy="36.0" r="3" fill="#4aa3ff"/><circle cx="445.6" cy="36.0" r="3" fill="#4aa3ff"/><circle cx="448.6" cy="36.0" r="3" fill="#4aa3ff"/><circle cx="451.6" cy="36.0" r="3" fill="#4aa3ff"/><circle cx="454.7" cy="36.0" r="3" fill="#4aa3ff"/><circle cx="457.7" cy="36.0" r="3" fill="#4aa3ff"/><circle cx="460.7" cy="36.0" r="3" fill="#4aa3ff"/><circle cx="463.8" cy="36.0" r="3" fill="#4aa3ff"/><circle cx="466.8" cy="36.0" r="3" fill="#4aa3ff"/><circle cx="469.8" cy="36.0" r="3" fill="#4aa3ff"/><circle cx="472.9" cy="36.0" r="3" fill="#4aa3ff"/><circle cx="475.9" cy="36.0" r="3" fill="#4aa3ff"/><circle cx="478.9" cy="36.0" r="3" fill="#4aa3ff"/><circle cx="482.0" cy="36.0" r="3" fill="#4aa3ff"/><circle cx="485.0" cy="36.0" r="3" fill="#4aa3ff"/><circle cx="488.0" cy="36.0" r="3" fill="#4aa3ff"/><circle cx="491.1" cy="36.0" r="3" fill="#4aa3ff"/><circle cx="494.1" cy="36.0" r="3" fill="#4aa3ff"/><circle cx="497.1" cy="36.0" r="3" fill="#4aa3ff"/><circle cx="500.2" cy="36.0" r="3" fill="#4aa3ff"/><circle cx="503.2" cy="36.0" r="3" fill="#4aa3ff"/><circle cx="506.2" cy="36.0" r="3" fill="#4aa3ff"/><circle cx="509.3" cy="36.0" r="3" fill="#4aa3ff"/><circle cx="512.3" cy="36.0" r="3" fill="#4aa3ff"/><circle cx="515.3" cy="36.0" r="3" fill="#4aa3ff"/><circle cx="518.4" cy="36.0" r="3" fill="#4aa3ff"/><circle cx="521.4" cy="36.0" r="3" fill="#4aa3ff"/><circle cx="524.4" cy="36.0" r="3" fill="#4aa3ff"/><circle cx="527.5" cy="36.0" r="3" fill="#4aa3ff"/><circle cx="530.5" cy="36.0" r="3" fill="#4aa3ff"/><circle cx="533.5" cy="36.0" r="3" fill="#4aa3ff"/><circle cx="536.6" cy="36.0" r="3" fill="#4aa3ff"/><circle cx="539.6" cy="36.0" r="3" fill="#4aa3ff"/><circle cx="542.6" cy="36.0" r="3" fill="#4aa3ff"/><circle cx="545.7" cy="36.0" r="3" fill="#4aa3ff"/><circle cx="548.7" cy="36.0" r="3" fill="#4aa3ff"/><circle cx="551.7" cy="36.0" r="3" fill="#4aa3ff"/><circle cx="554.8" cy="36.0" r="3" fill="#4aa3ff"/><circle cx="557.8" cy="36.0" r="3" fill="#4aa3ff"/><circle cx="560.9" cy="36.0" r="3" fill="#4aa3ff"/><circle cx="563.9" cy="36.0" r="3" fill="#4aa3ff"/><circle cx="566.9" cy="36.0" r="3" fill="#4aa3ff"/><circle cx="570.0" cy="36.0" r="3" fill="#4aa3ff"/><circle cx="573.0" cy="36.0" r="3" fill="#4aa3ff"/><circle cx="576.0" cy="36.0" r="3" fill="#4aa3ff"/><circle cx="579.1" cy="36.0" r="3" fill="#4aa3ff"/><circle cx="582.1" cy="36.0" r="3" fill="#4aa3ff"/><circle cx="585.1" cy="36.0" r="3" fill="#4aa3ff"/><circle cx="588.2" cy="36.0" r="3" fill="#4aa3ff"/><circle cx="591.2" cy="36.0" r="3" fill="#4aa3ff"/><circle cx="594.2" cy="36.0" r="3" fill="#4aa3ff"/><circle cx="597.3" cy="36.0" r="3" fill="#4aa3ff"/><circle cx="600.3" cy="36.0" r="3" fill="#4aa3ff"/><circle cx="603.3" cy="36.0" r="3" fill="#4aa3ff"/><circle cx="606.4" cy="36.0" r="3" fill="#4aa3ff"/><circle cx="609.4" cy="36.0" r="3" fill="#4aa3ff"/><circle cx="612.4" cy="36.0" r="3" fill="#4aa3ff"/><circle cx="615.5" cy="36.0" r="3" fill="#4aa3ff"/><circle cx="618.5" cy="36.0" r="3" fill="#4aa3ff"/><circle cx="621.5" cy="36.0" r="3" fill="#4aa3ff"/><circle cx="624.6" cy="36.0" r="3" fill="#4aa3ff"/><circle cx="627.6" cy="36.0" r="3" fill="#4aa3ff"/><circle cx="630.6" cy="36.0" r="3" fill="#4aa3ff"/><circle cx="633.7" cy="36.0" r="3" fill="#4aa3ff"/><circle cx="636.7" cy="36.0" r="3" fill="#4aa3ff"/><circle cx="639.7" cy="36.0" r="3" fill="#4aa3ff"/><circle cx="642.8" cy="36.0" r="3" fill="#4aa3ff"/><circle cx="645.8" cy="36.0" r="3" fill="#4aa3ff"/><circle cx="648.8" cy="36.0" r="3" fill="#4aa3ff"/><circle cx="651.9" cy="36.0" r="3" fill="#4aa3ff"/><circle cx="654.9" cy="36.0" r="3" fill="#4aa3ff"/><circle cx="657.9" cy="36.0" r="3" fill="#4aa3ff"/><circle cx="661.0" cy="36.0" r="3" fill="#4aa3ff"/><circle cx="664.0" cy="36.0" r="3" fill="#4aa3ff"/>
<text x="36" y="225" fill="#6b7280" font-size="11">2026-06-26</text>
<text x="664" y="225" fill="#6b7280" font-size="11" text-anchor="end">2026-07-17</text>
<text x="36" y="212" font-family="system-ui,sans-serif" font-size="11">
<tspan fill="#4aa3ff">&#9679; open FPs</tspan>  <tspan fill="#3fb950">&#9679; closed (Anthropic acting)</tspan>  <tspan fill="#8a5a5a">&#9679; harness withdrawn</tspan></text>
<text x="664" y="22" text-anchor="end" font-family="system-ui,sans-serif" font-size="12">
<tspan fill="#4aa3ff">open 800</tspan>  <tspan fill="#3fb950">closed 0</tspan>  <tspan fill="#8a5a5a">harness 0</tspan></text>
</svg>