<svg xmlns="http://www.w3.org/2000/svg" width="700" height="234" viewBox="0 0 700 234" role="img">
<rect width="700" height="234" rx="12" fill="#16181d"/>
<text x="36" y="22" fill="#e8eaed" font-family="system-ui,sans-serif" font-size="14" font-weight="700">Is Anthropic acting? cyber/aup false positives over time</text>
<line x1="36" y1="198.0" x2="664" y2="198.0" stroke="#2a2e37" stroke-width="1"/><text x="30" y="202.0" fill="#6b7280" font-size="11" text-anchor="end">0</text><line x1="36" y1="117.0" x2="664" y2="117.0" stroke="#2a2e37" stroke-width="1"/><text x="30" y="121.0" fill="#6b7280" font-size="11" text-anchor="end">400</text><line x1="36" y1="36.0" x2="664" y2="36.0" stroke="#2a2e37" stroke-width="1"/><text x="30" y="40.0" fill="#6b7280" font-size="11" text-anchor="end">800</text>

<polyline fill="none" stroke="#8a5a5a" stroke-width="2.5" stroke-linejoin="round" points="36.0,145.1 41.7,145.1 47.4,145.1 53.1,145.1 58.8,145.1 64.5,145.1 70.3,145.1 76.0,145.1 81.7,145.1 87.4,145.1 93.1,145.1 98.8,145.1 104.5,145.1 110.2,145.1 115.9,145.1 121.6,145.1 127.3,145.1 133.1,145.1 138.8,145.1 144.5,145.1 150.2,145.1 155.9,145.1 161.6,145.1 167.3,145.1 173.0,145.1 178.7,145.1 184.4,145.1 190.1,145.1 195.9,145.1 201.6,145.1 207.3,145.1 213.0,145.1 218.7,145.1 224.4,145.1 230.1,145.1 235.8,145.1 241.5,145.1 247.2,145.1 252.9,145.1 258.7,145.1 264.4,145.1 270.1,145.1 275.8,145.1 281.5,145.1 287.2,145.1 292.9,145.1 298.6,145.1 304.3,145.1 310.0,145.1 315.7,145.1 321.5,155.7 327.2,155.7 332.9,155.7 338.6,155.7 344.3,155.7 350.0,155.7 355.7,155.7 361.4,155.7 367.1,155.7 372.8,155.7 378.5,155.7 384.3,155.7 390.0,155.7 395.7,155.7 401.4,155.7 407.1,155.7 412.8,155.7 418.5,155.7 424.2,155.7 429.9,155.7 435.6,155.7 441.3,155.7 447.1,155.7 452.8,155.7 458.5,155.7 464.2,155.7 469.9,155.7 475.6,155.7 481.3,155.7 487.0,155.7 492.7,155.7 498.4,155.7 504.1,155.7 509.9,155.7 515.6,167.6 521.3,167.6 527.0,170.3 532.7,170.3 538.4,170.5 544.1,170.7 549.8,170.7 555.5,170.9 561.2,172.7 566.9,180.6 572.7,181.8 578.4,189.1 584.1,190.5 589.8,195.2 595.5,198.0 601.2,198.0 606.9,198.0 612.6,198.0 618.3,198.0 624.0,198.0 629.7,198.0 635.5,198.0 641.2,198.0 646.9,198.0 652.6,198.0 658.3,198.0 664.0,198.0"/><circle cx="36.0" cy="145.1" r="3" fill="#8a5a5a"/><circle cx="41.7" cy="145.1" r="3" fill="#8a5a5a"/><circle cx="47.4" cy="145.1" r="3" fill="#8a5a5a"/><circle cx="53.1" cy="145.1" r="3" fill="#8a5a5a"/><circle cx="58.8" cy="145.1" r="3" fill="#8a5a5a"/><circle cx="64.5" cy="145.1" r="3" fill="#8a5a5a"/><circle cx="70.3" cy="145.1" r="3" fill="#8a5a5a"/><circle cx="76.0" cy="145.1" r="3" fill="#8a5a5a"/><circle cx="81.7" cy="145.1" r="3" fill="#8a5a5a"/><circle cx="87.4" cy="145.1" r="3" fill="#8a5a5a"/><circle cx="93.1" cy="145.1" r="3" fill="#8a5a5a"/><circle cx="98.8" cy="145.1" r="3" fill="#8a5a5a"/><circle cx="104.5" cy="145.1" r="3" fill="#8a5a5a"/><circle cx="110.2" cy="145.1" r="3" fill="#8a5a5a"/><circle cx="115.9" cy="145.1" r="3" fill="#8a5a5a"/><circle cx="121.6" cy="145.1" r="3" fill="#8a5a5a"/><circle cx="127.3" cy="145.1" r="3" fill="#8a5a5a"/><circle cx="133.1" cy="145.1" r="3" fill="#8a5a5a"/><circle cx="138.8" cy="145.1" r="3" fill="#8a5a5a"/><circle cx="144.5" cy="145.1" r="3" fill="#8a5a5a"/><circle cx="150.2" cy="145.1" r="3" fill="#8a5a5a"/><circle cx="155.9" cy="145.1" r="3" fill="#8a5a5a"/><circle cx="161.6" cy="145.1" r="3" fill="#8a5a5a"/><circle cx="167.3" cy="145.1" r="3" fill="#8a5a5a"/><circle cx="173.0" cy="145.1" r="3" fill="#8a5a5a"/><circle cx="178.7" cy="145.1" r="3" fill="#8a5a5a"/><circle cx="184.4" cy="145.1" r="3" fill="#8a5a5a"/><circle cx="190.1" cy="145.1" r="3" fill="#8a5a5a"/><circle cx="195.9" cy="145.1" r="3" fill="#8a5a5a"/><circle cx="201.6" cy="145.1" r="3" fill="#8a5a5a"/><circle cx="207.3" cy="145.1" r="3" fill="#8a5a5a"/><circle cx="213.0" cy="145.1" r="3" fill="#8a5a5a"/><circle cx="218.7" cy="145.1" r="3" fill="#8a5a5a"/><circle cx="224.4" cy="145.1" r="3" fill="#8a5a5a"/><circle cx="230.1" cy="145.1" r="3" fill="#8a5a5a"/><circle cx="235.8" cy="145.1" r="3" fill="#8a5a5a"/><circle cx="241.5" cy="145.1" r="3" fill="#8a5a5a"/><circle cx="247.2" cy="145.1" r="3" fill="#8a5a5a"/><circle cx="252.9" cy="145.1" r="3" fill="#8a5a5a"/><circle cx="258.7" cy="145.1" r="3" fill="#8a5a5a"/><circle cx="264.4" cy="145.1" r="3" fill="#8a5a5a"/><circle cx="270.1" cy="145.1" r="3" fill="#8a5a5a"/><circle cx="275.8" cy="145.1" r="3" fill="#8a5a5a"/><circle cx="281.5" cy="145.1" r="3" fill="#8a5a5a"/><circle cx="287.2" cy="145.1" r="3" fill="#8a5a5a"/><circle cx="292.9" cy="145.1" r="3" fill="#8a5a5a"/><circle cx="298.6" cy="145.1" r="3" fill="#8a5a5a"/><circle cx="304.3" cy="145.1" r="3" fill="#8a5a5a"/><circle cx="310.0" cy="145.1" r="3" fill="#8a5a5a"/><circle cx="315.7" cy="145.1" r="3" fill="#8a5a5a"/><circle cx="321.5" cy="155.7" r="3" fill="#8a5a5a"/><circle cx="327.2" cy="155.7" r="3" fill="#8a5a5a"/><circle cx="332.9" cy="155.7" r="3" fill="#8a5a5a"/><circle cx="338.6" cy="155.7" r="3" fill="#8a5a5a"/><circle cx="344.3" cy="155.7" r="3" fill="#8a5a5a"/><circle cx="350.0" cy="155.7" r="3" fill="#8a5a5a"/><circle cx="355.7" cy="155.7" r="3" fill="#8a5a5a"/><circle cx="361.4" cy="155.7" r="3" fill="#8a5a5a"/><circle cx="367.1" cy="155.7" r="3" fill="#8a5a5a"/><circle cx="372.8" cy="155.7" r="3" fill="#8a5a5a"/><circle cx="378.5" cy="155.7" r="3" fill="#8a5a5a"/><circle cx="384.3" cy="155.7" r="3" fill="#8a5a5a"/><circle cx="390.0" cy="155.7" r="3" fill="#8a5a5a"/><circle cx="395.7" cy="155.7" r="3" fill="#8a5a5a"/><circle cx="401.4" cy="155.7" r="3" fill="#8a5a5a"/><circle cx="407.1" cy="155.7" r="3" fill="#8a5a5a"/><circle cx="412.8" cy="155.7" r="3" fill="#8a5a5a"/><circle cx="418.5" cy="155.7" r="3" fill="#8a5a5a"/><circle cx="424.2" cy="155.7" r="3" fill="#8a5a5a"/><circle cx="429.9" cy="155.7" r="3" fill="#8a5a5a"/><circle cx="435.6" cy="155.7" r="3" fill="#8a5a5a"/><circle cx="441.3" cy="155.7" r="3" fill="#8a5a5a"/><circle cx="447.1" cy="155.7" r="3" fill="#8a5a5a"/><circle cx="452.8" cy="155.7" r="3" fill="#8a5a5a"/><circle cx="458.5" cy="155.7" r="3" fill="#8a5a5a"/><circle cx="464.2" cy="155.7" r="3" fill="#8a5a5a"/><circle cx="469.9" cy="155.7" r="3" fill="#8a5a5a"/><circle cx="475.6" cy="155.7" r="3" fill="#8a5a5a"/><circle cx="481.3" cy="155.7" r="3" fill="#8a5a5a"/><circle cx="487.0" cy="155.7" r="3" fill="#8a5a5a"/><circle cx="492.7" cy="155.7" r="3" fill="#8a5a5a"/><circle cx="498.4" cy="155.7" r="3" fill="#8a5a5a"/><circle cx="504.1" cy="155.7" r="3" fill="#8a5a5a"/><circle cx="509.9" cy="155.7" r="3" fill="#8a5a5a"/><circle cx="515.6" cy="167.6" r="3" fill="#8a5a5a"/><circle cx="521.3" cy="167.6" r="3" fill="#8a5a5a"/><circle cx="527.0" cy="170.3" r="3" fill="#8a5a5a"/><circle cx="532.7" cy="170.3" r="3" fill="#8a5a5a"/><circle cx="538.4" cy="170.5" r="3" fill="#8a5a5a"/><circle cx="544.1" cy="170.7" r="3" fill="#8a5a5a"/><circle cx="549.8" cy="170.7" r="3" fill="#8a5a5a"/><circle cx="555.5" cy="170.9" r="3" fill="#8a5a5a"/><circle cx="561.2" cy="172.7" r="3" fill="#8a5a5a"/><circle cx="566.9" cy="180.6" r="3" fill="#8a5a5a"/><circle cx="572.7" cy="181.8" r="3" fill="#8a5a5a"/><circle cx="578.4" cy="189.1" r="3" fill="#8a5a5a"/><circle cx="584.1" cy="190.5" r="3" fill="#8a5a5a"/><circle cx="589.8" cy="195.2" r="3" fill="#8a5a5a"/><circle cx="595.5" cy="198.0" r="3" fill="#8a5a5a"/><circle cx="601.2" cy="198.0" r="3" fill="#8a5a5a"/><circle cx="606.9" cy="198.0" r="3" fill="#8a5a5a"/><circle cx="612.6" cy="198.0" r="3" fill="#8a5a5a"/><circle cx="618.3" cy="198.0" r="3" fill="#8a5a5a"/><circle cx="624.0" cy="198.0" r="3" fill="#8a5a5a"/><circle cx="629.7" cy="198.0" r="3" fill="#8a5a5a"/><circle cx="635.5" cy="198.0" r="3" fill="#8a5a5a"/><circle cx="641.2" cy="198.0" r="3" fill="#8a5a5a"/><circle cx="646.9" cy="198.0" r="3" fill="#8a5a5a"/><circle cx="652.6" cy="198.0" r="3" fill="#8a5a5a"/><circle cx="658.3" cy="198.0" r="3" fill="#8a5a5a"/><circle cx="664.0" cy="198.0" r="3" fill="#8a5a5a"/>
<polyline fill="none" stroke="#3fb950" stroke-width="2.5" stroke-linejoin="round" points="36.0,198.0 41.7,198.0 47.4,198.0 53.1,198.0 58.8,198.0 64.5,198.0 70.3,198.0 76.0,198.0 81.7,198.0 87.4,198.0 93.1,198.0 98.8,198.0 104.5,198.0 110.2,198.0 115.9,198.0 121.6,198.0 127.3,198.0 133.1,198.0 138.8,198.0 144.5,198.0 150.2,198.0 155.9,198.0 161.6,198.0 167.3,198.0 173.0,198.0 178.7,198.0 184.4,198.0 190.1,198.0 195.9,198.0 201.6,198.0 207.3,198.0 213.0,198.0 218.7,198.0 224.4,198.0 230.1,198.0 235.8,198.0 241.5,198.0 247.2,198.0 252.9,198.0 258.7,198.0 264.4,198.0 270.1,198.0 275.8,198.0 281.5,191.7 287.2,191.7 292.9,191.7 298.6,191.7 304.3,191.7 310.0,191.7 315.7,191.7 321.5,192.9 327.2,192.9 332.9,190.7 338.6,190.7 344.3,190.7 350.0,190.7 355.7,190.7 361.4,190.5 367.1,190.5 372.8,190.5 378.5,190.3 384.3,190.3 390.0,190.3 395.7,190.3 401.4,190.3 407.1,190.3 412.8,190.3 418.5,190.3 424.2,190.3 429.9,190.3 435.6,190.3 441.3,190.3 447.1,190.3 452.8,190.3 458.5,190.3 464.2,190.3 469.9,190.3 475.6,190.3 481.3,190.3 487.0,190.3 492.7,190.3 498.4,189.3 504.1,189.3 509.9,189.3 515.6,190.7 521.3,190.7 527.0,190.7 532.7,190.7 538.4,190.7 544.1,190.7 549.8,190.7 555.5,190.7 561.2,190.7 566.9,190.9 572.7,190.9 578.4,190.9 584.1,194.2 589.8,196.8 595.5,198.0 601.2,198.0 606.9,198.0 612.6,198.0 618.3,198.0 624.0,198.0 629.7,198.0 635.5,198.0 641.2,198.0 646.9,198.0 652.6,198.0 658.3,198.0 664.0,198.0"/><circle cx="36.0" cy="198.0" r="3" fill="#3fb950"/><circle cx="41.7" cy="198.0" r="3" fill="#3fb950"/><circle cx="47.4" cy="198.0" r="3" fill="#3fb950"/><circle cx="53.1" cy="198.0" r="3" fill="#3fb950"/><circle cx="58.8" cy="198.0" r="3" fill="#3fb950"/><circle cx="64.5" cy="198.0" r="3" fill="#3fb950"/><circle cx="70.3" cy="198.0" r="3" fill="#3fb950"/><circle cx="76.0" cy="198.0" r="3" fill="#3fb950"/><circle cx="81.7" cy="198.0" r="3" fill="#3fb950"/><circle cx="87.4" cy="198.0" r="3" fill="#3fb950"/><circle cx="93.1" cy="198.0" r="3" fill="#3fb950"/><circle cx="98.8" cy="198.0" r="3" fill="#3fb950"/><circle cx="104.5" cy="198.0" r="3" fill="#3fb950"/><circle cx="110.2" cy="198.0" r="3" fill="#3fb950"/><circle cx="115.9" cy="198.0" r="3" fill="#3fb950"/><circle cx="121.6" cy="198.0" r="3" fill="#3fb950"/><circle cx="127.3" cy="198.0" r="3" fill="#3fb950"/><circle cx="133.1" cy="198.0" r="3" fill="#3fb950"/><circle cx="138.8" cy="198.0" r="3" fill="#3fb950"/><circle cx="144.5" cy="198.0" r="3" fill="#3fb950"/><circle cx="150.2" cy="198.0" r="3" fill="#3fb950"/><circle cx="155.9" cy="198.0" r="3" fill="#3fb950"/><circle cx="161.6" cy="198.0" r="3" fill="#3fb950"/><circle cx="167.3" cy="198.0" r="3" fill="#3fb950"/><circle cx="173.0" cy="198.0" r="3" fill="#3fb950"/><circle cx="178.7" cy="198.0" r="3" fill="#3fb950"/><circle cx="184.4" cy="198.0" r="3" fill="#3fb950"/><circle cx="190.1" cy="198.0" r="3" fill="#3fb950"/><circle cx="195.9" cy="198.0" r="3" fill="#3fb950"/><circle cx="201.6" cy="198.0" r="3" fill="#3fb950"/><circle cx="207.3" cy="198.0" r="3" fill="#3fb950"/><circle cx="213.0" cy="198.0" r="3" fill="#3fb950"/><circle cx="218.7" cy="198.0" r="3" fill="#3fb950"/><circle cx="224.4" cy="198.0" r="3" fill="#3fb950"/><circle cx="230.1" cy="198.0" r="3" fill="#3fb950"/><circle cx="235.8" cy="198.0" r="3" fill="#3fb950"/><circle cx="241.5" cy="198.0" r="3" fill="#3fb950"/><circle cx="247.2" cy="198.0" r="3" fill="#3fb950"/><circle cx="252.9" cy="198.0" r="3" fill="#3fb950"/><circle cx="258.7" cy="198.0" r="3" fill="#3fb950"/><circle cx="264.4" cy="198.0" r="3" fill="#3fb950"/><circle cx="270.1" cy="198.0" r="3" fill="#3fb950"/><circle cx="275.8" cy="198.0" r="3" fill="#3fb950"/><circle cx="281.5" cy="191.7" r="3" fill="#3fb950"/><circle cx="287.2" cy="191.7" r="3" fill="#3fb950"/><circle cx="292.9" cy="191.7" r="3" fill="#3fb950"/><circle cx="298.6" cy="191.7" r="3" fill="#3fb950"/><circle cx="304.3" cy="191.7" r="3" fill="#3fb950"/><circle cx="310.0" cy="191.7" r="3" fill="#3fb950"/><circle cx="315.7" cy="191.7" r="3" fill="#3fb950"/><circle cx="321.5" cy="192.9" r="3" fill="#3fb950"/><circle cx="327.2" cy="192.9" r="3" fill="#3fb950"/><circle cx="332.9" cy="190.7" r="3" fill="#3fb950"/><circle cx="338.6" cy="190.7" r="3" fill="#3fb950"/><circle cx="344.3" cy="190.7" r="3" fill="#3fb950"/><circle cx="350.0" cy="190.7" r="3" fill="#3fb950"/><circle cx="355.7" cy="190.7" r="3" fill="#3fb950"/><circle cx="361.4" cy="190.5" r="3" fill="#3fb950"/><circle cx="367.1" cy="190.5" r="3" fill="#3fb950"/><circle cx="372.8" cy="190.5" r="3" fill="#3fb950"/><circle cx="378.5" cy="190.3" r="3" fill="#3fb950"/><circle cx="384.3" cy="190.3" r="3" fill="#3fb950"/><circle cx="390.0" cy="190.3" r="3" fill="#3fb950"/><circle cx="395.7" cy="190.3" r="3" fill="#3fb950"/><circle cx="401.4" cy="190.3" r="3" fill="#3fb950"/><circle cx="407.1" cy="190.3" r="3" fill="#3fb950"/><circle cx="412.8" cy="190.3" r="3" fill="#3fb950"/><circle cx="418.5" cy="190.3" r="3" fill="#3fb950"/><circle cx="424.2" cy="190.3" r="3" fill="#3fb950"/><circle cx="429.9" cy="190.3" r="3" fill="#3fb950"/><circle cx="435.6" cy="190.3" r="3" fill="#3fb950"/><circle cx="441.3" cy="190.3" r="3" fill="#3fb950"/><circle cx="447.1" cy="190.3" r="3" fill="#3fb950"/><circle cx="452.8" cy="190.3" r="3" fill="#3fb950"/><circle cx="458.5" cy="190.3" r="3" fill="#3fb950"/><circle cx="464.2" cy="190.3" r="3" fill="#3fb950"/><circle cx="469.9" cy="190.3" r="3" fill="#3fb950"/><circle cx="475.6" cy="190.3" r="3" fill="#3fb950"/><circle cx="481.3" cy="190.3" r="3" fill="#3fb950"/><circle cx="487.0" cy="190.3" r="3" fill="#3fb950"/><circle cx="492.7" cy="190.3" r="3" fill="#3fb950"/><circle cx="498.4" cy="189.3" r="3" fill="#3fb950"/><circle cx="504.1" cy="189.3" r="3" fill="#3fb950"/><circle cx="509.9" cy="189.3" r="3" fill="#3fb950"/><circle cx="515.6" cy="190.7" r="3" fill="#3fb950"/><circle cx="521.3" cy="190.7" r="3" fill="#3fb950"/><circle cx="527.0" cy="190.7" r="3" fill="#3fb950"/><circle cx="532.7" cy="190.7" r="3" fill="#3fb950"/><circle cx="538.4" cy="190.7" r="3" fill="#3fb950"/><circle cx="544.1" cy="190.7" r="3" fill="#3fb950"/><circle cx="549.8" cy="190.7" r="3" fill="#3fb950"/><circle cx="555.5" cy="190.7" r="3" fill="#3fb950"/><circle cx="561.2" cy="190.7" r="3" fill="#3fb950"/><circle cx="566.9" cy="190.9" r="3" fill="#3fb950"/><circle cx="572.7" cy="190.9" r="3" fill="#3fb950"/><circle cx="578.4" cy="190.9" r="3" fill="#3fb950"/><circle cx="584.1" cy="194.2" r="3" fill="#3fb950"/><circle cx="589.8" cy="196.8" r="3" fill="#3fb950"/><circle cx="595.5" cy="198.0" r="3" fill="#3fb950"/><circle cx="601.2" cy="198.0" r="3" fill="#3fb950"/><circle cx="606.9" cy="198.0" r="3" fill="#3fb950"/><circle cx="612.6" cy="198.0" r="3" fill="#3fb950"/><circle cx="618.3" cy="198.0" r="3" fill="#3fb950"/><circle cx="624.0" cy="198.0" r="3" fill="#3fb950"/><circle cx="629.7" cy="198.0" r="3" fill="#3fb950"/><circle cx="635.5" cy="198.0" r="3" fill="#3fb950"/><circle cx="641.2" cy="198.0" r="3" fill="#3fb950"/><circle cx="646.9" cy="198.0" r="3" fill="#3fb950"/><circle cx="652.6" cy="198.0" r="3" fill="#3fb950"/><circle cx="658.3" cy="198.0" r="3" fill="#3fb950"/><circle cx="664.0" cy="198.0" r="3" fill="#3fb950"/>
<polyline fill="none" stroke="#4aa3ff" stroke-width="2.5" stroke-linejoin="round" points="36.0,144.3 41.7,144.3 47.4,144.3 53.1,144.3 58.8,144.3 64.5,144.3 70.3,144.3 76.0,144.3 81.7,144.3 87.4,144.3 93.1,144.3 98.8,144.3 104.5,144.3 110.2,144.3 115.9,144.3 121.6,136.2 127.3,132.4 133.1,129.6 138.8,129.6 144.5,121.0 150.2,121.0 155.9,121.0 161.6,114.4 167.3,114.4 173.0,114.4 178.7,111.3 184.4,110.9 190.1,110.9 195.9,110.5 201.6,110.5 207.3,109.9 213.0,108.7 218.7,107.3 224.4,106.9 230.1,106.9 235.8,106.9 241.5,106.9 247.2,106.9 252.9,106.9 258.7,106.9 264.4,106.9 270.1,106.9 275.8,106.9 281.5,113.2 287.2,113.2 292.9,113.2 298.6,113.2 304.3,113.2 310.0,110.7 315.7,105.3 321.5,83.4 327.2,83.4 332.9,85.6 338.6,85.6 344.3,85.6 350.0,85.6 355.7,85.6 361.4,85.8 367.1,85.8 372.8,85.8 378.5,86.0 384.3,86.0 390.0,86.0 395.7,86.0 401.4,86.0 407.1,86.0 412.8,86.0 418.5,86.0 424.2,86.0 429.9,86.0 435.6,86.0 441.3,86.0 447.1,86.0 452.8,86.0 458.5,86.0 464.2,86.0 469.9,86.0 475.6,86.0 481.3,86.0 487.0,86.0 492.7,86.0 498.4,87.0 504.1,87.0 509.9,87.0 515.6,73.7 521.3,73.7 527.0,71.0 532.7,71.0 538.4,70.8 544.1,70.6 549.8,70.6 555.5,70.4 561.2,68.6 566.9,60.5 572.7,59.3 578.4,52.0 584.1,47.3 589.8,40.1 595.5,36.0 601.2,36.0 606.9,36.0 612.6,36.0 618.3,36.0 624.0,36.0 629.7,36.0 635.5,36.0 641.2,36.0 646.9,36.0 652.6,36.0 658.3,36.0 664.0,36.0"/><circle cx="36.0" cy="144.3" r="3" fill="#4aa3ff"/><circle cx="41.7" cy="144.3" r="3" fill="#4aa3ff"/><circle cx="47.4" cy="144.3" r="3" fill="#4aa3ff"/><circle cx="53.1" cy="144.3" r="3" fill="#4aa3ff"/><circle cx="58.8" cy="144.3" r="3" fill="#4aa3ff"/><circle cx="64.5" cy="144.3" r="3" fill="#4aa3ff"/><circle cx="70.3" cy="144.3" r="3" fill="#4aa3ff"/><circle cx="76.0" cy="144.3" r="3" fill="#4aa3ff"/><circle cx="81.7" cy="144.3" r="3" fill="#4aa3ff"/><circle cx="87.4" cy="144.3" r="3" fill="#4aa3ff"/><circle cx="93.1" cy="144.3" r="3" fill="#4aa3ff"/><circle cx="98.8" cy="144.3" r="3" fill="#4aa3ff"/><circle cx="104.5" cy="144.3" r="3" fill="#4aa3ff"/><circle cx="110.2" cy="144.3" r="3" fill="#4aa3ff"/><circle cx="115.9" cy="144.3" r="3" fill="#4aa3ff"/><circle cx="121.6" cy="136.2" r="3" fill="#4aa3ff"/><circle cx="127.3" cy="132.4" r="3" fill="#4aa3ff"/><circle cx="133.1" cy="129.6" r="3" fill="#4aa3ff"/><circle cx="138.8" cy="129.6" r="3" fill="#4aa3ff"/><circle cx="144.5" cy="121.0" r="3" fill="#4aa3ff"/><circle cx="150.2" cy="121.0" r="3" fill="#4aa3ff"/><circle cx="155.9" cy="121.0" r="3" fill="#4aa3ff"/><circle cx="161.6" cy="114.4" r="3" fill="#4aa3ff"/><circle cx="167.3" cy="114.4" r="3" fill="#4aa3ff"/><circle cx="173.0" cy="114.4" r="3" fill="#4aa3ff"/><circle cx="178.7" cy="111.3" r="3" fill="#4aa3ff"/><circle cx="184.4" cy="110.9" r="3" fill="#4aa3ff"/><circle cx="190.1" cy="110.9" r="3" fill="#4aa3ff"/><circle cx="195.9" cy="110.5" r="3" fill="#4aa3ff"/><circle cx="201.6" cy="110.5" r="3" fill="#4aa3ff"/><circle cx="207.3" cy="109.9" r="3" fill="#4aa3ff"/><circle cx="213.0" cy="108.7" r="3" fill="#4aa3ff"/><circle cx="218.7" cy="107.3" r="3" fill="#4aa3ff"/><circle cx="224.4" cy="106.9" r="3" fill="#4aa3ff"/><circle cx="230.1" cy="106.9" r="3" fill="#4aa3ff"/><circle cx="235.8" cy="106.9" r="3" fill="#4aa3ff"/><circle cx="241.5" cy="106.9" r="3" fill="#4aa3ff"/><circle cx="247.2" cy="106.9" r="3" fill="#4aa3ff"/><circle cx="252.9" cy="106.9" r="3" fill="#4aa3ff"/><circle cx="258.7" cy="106.9" r="3" fill="#4aa3ff"/><circle cx="264.4" cy="106.9" r="3" fill="#4aa3ff"/><circle cx="270.1" cy="106.9" r="3" fill="#4aa3ff"/><circle cx="275.8" cy="106.9" r="3" fill="#4aa3ff"/><circle cx="281.5" cy="113.2" r="3" fill="#4aa3ff"/><circle cx="287.2" cy="113.2" r="3" fill="#4aa3ff"/><circle cx="292.9" cy="113.2" r="3" fill="#4aa3ff"/><circle cx="298.6" cy="113.2" r="3" fill="#4aa3ff"/><circle cx="304.3" cy="113.2" r="3" fill="#4aa3ff"/><circle cx="310.0" cy="110.7" r="3" fill="#4aa3ff"/><circle cx="315.7" cy="105.3" r="3" fill="#4aa3ff"/><circle cx="321.5" cy="83.4" r="3" fill="#4aa3ff"/><circle cx="327.2" cy="83.4" r="3" fill="#4aa3ff"/><circle cx="332.9" cy="85.6" r="3" fill="#4aa3ff"/><circle cx="338.6" cy="85.6" r="3" fill="#4aa3ff"/><circle cx="344.3" cy="85.6" r="3" fill="#4aa3ff"/><circle cx="350.0" cy="85.6" r="3" fill="#4aa3ff"/><circle cx="355.7" cy="85.6" r="3" fill="#4aa3ff"/><circle cx="361.4" cy="85.8" r="3" fill="#4aa3ff"/><circle cx="367.1" cy="85.8" r="3" fill="#4aa3ff"/><circle cx="372.8" cy="85.8" r="3" fill="#4aa3ff"/><circle cx="378.5" cy="86.0" r="3" fill="#4aa3ff"/><circle cx="384.3" cy="86.0" r="3" fill="#4aa3ff"/><circle cx="390.0" cy="86.0" r="3" fill="#4aa3ff"/><circle cx="395.7" cy="86.0" r="3" fill="#4aa3ff"/><circle cx="401.4" cy="86.0" r="3" fill="#4aa3ff"/><circle cx="407.1" cy="86.0" r="3" fill="#4aa3ff"/><circle cx="412.8" cy="86.0" r="3" fill="#4aa3ff"/><circle cx="418.5" cy="86.0" r="3" fill="#4aa3ff"/><circle cx="424.2" cy="86.0" r="3" fill="#4aa3ff"/><circle cx="429.9" cy="86.0" r="3" fill="#4aa3ff"/><circle cx="435.6" cy="86.0" r="3" fill="#4aa3ff"/><circle cx="441.3" cy="86.0" r="3" fill="#4aa3ff"/><circle cx="447.1" cy="86.0" r="3" fill="#4aa3ff"/><circle cx="452.8" cy="86.0" r="3" fill="#4aa3ff"/><circle cx="458.5" cy="86.0" r="3" fill="#4aa3ff"/><circle cx="464.2" cy="86.0" r="3" fill="#4aa3ff"/><circle cx="469.9" cy="86.0" r="3" fill="#4aa3ff"/><circle cx="475.6" cy="86.0" r="3" fill="#4aa3ff"/><circle cx="481.3" cy="86.0" r="3" fill="#4aa3ff"/><circle cx="487.0" cy="86.0" r="3" fill="#4aa3ff"/><circle cx="492.7" cy="86.0" r="3" fill="#4aa3ff"/><circle cx="498.4" cy="87.0" r="3" fill="#4aa3ff"/><circle cx="504.1" cy="87.0" r="3" fill="#4aa3ff"/><circle cx="509.9" cy="87.0" r="3" fill="#4aa3ff"/><circle cx="515.6" cy="73.7" r="3" fill="#4aa3ff"/><circle cx="521.3" cy="73.7" r="3" fill="#4aa3ff"/><circle cx="527.0" cy="71.0" r="3" fill="#4aa3ff"/><circle cx="532.7" cy="71.0" r="3" fill="#4aa3ff"/><circle cx="538.4" cy="70.8" r="3" fill="#4aa3ff"/><circle cx="544.1" cy="70.6" r="3" fill="#4aa3ff"/><circle cx="549.8" cy="70.6" r="3" fill="#4aa3ff"/><circle cx="555.5" cy="70.4" r="3" fill="#4aa3ff"/><circle cx="561.2" cy="68.6" r="3" fill="#4aa3ff"/><circle cx="566.9" cy="60.5" r="3" fill="#4aa3ff"/><circle cx="572.7" cy="59.3" r="3" fill="#4aa3ff"/><circle cx="578.4" cy="52.0" r="3" fill="#4aa3ff"/><circle cx="584.1" cy="47.3" r="3" fill="#4aa3ff"/><circle cx="589.8" cy="40.1" r="3" fill="#4aa3ff"/><circle cx="595.5" cy="36.0" r="3" fill="#4aa3ff"/><circle cx="601.2" cy="36.0" r="3" fill="#4aa3ff"/><circle cx="606.9" cy="36.0" r="3" fill="#4aa3ff"/><circle cx="612.6" cy="36.0" r="3" fill="#4aa3ff"/><circle cx="618.3" cy="36.0" r="3" fill="#4aa3ff"/><circle cx="624.0" cy="36.0" r="3" fill="#4aa3ff"/><circle cx="629.7" cy="36.0" r="3" fill="#4aa3ff"/><circle cx="635.5" cy="36.0" r="3" fill="#4aa3ff"/><circle cx="641.2" cy="36.0" r="3" fill="#4aa3ff"/><circle cx="646.9" cy="36.0" r="3" fill="#4aa3ff"/><circle cx="652.6" cy="36.0" r="3" fill="#4aa3ff"/><circle cx="658.3" cy="36.0" r="3" fill="#4aa3ff"/><circle cx="664.0" cy="36.0" r="3" fill="#4aa3ff"/>
<text x="36" y="225" fill="#6b7280" font-size="11">2026-06-26</text>
<text x="664" y="225" fill="#6b7280" font-size="11" text-anchor="end">2026-07-08</text>
<text x="36" y="212" font-family="system-ui,sans-serif" font-size="11">
<tspan fill="#4aa3ff">&#9679; open FPs</tspan>  <tspan fill="#3fb950">&#9679; closed (Anthropic acting)</tspan>  <tspan fill="#8a5a5a">&#9679; harness withdrawn</tspan></text>
<text x="664" y="22" text-anchor="end" font-family="system-ui,sans-serif" font-size="12">
<tspan fill="#4aa3ff">open 800</tspan>  <tspan fill="#3fb950">closed 0</tspan>  <tspan fill="#8a5a5a">harness 0</tspan></text>
</svg>